<?xml version="1.0" encoding="utf-8" standalone="no"?>
<!DOCTYPE svg PUBLIC "-//W3C//DTD SVG 1.1//EN"
  "http://www.w3.org/Graphics/SVG/1.1/DTD/svg11.dtd">
<svg xmlns:xlink="http://www.w3.org/1999/xlink" width="1386.05pt" height="392.273625pt" viewBox="0 0 1386.05 392.273625" xmlns="http://www.w3.org/2000/svg" version="1.1">
 <metadata>
  <rdf:RDF xmlns:dc="http://purl.org/dc/elements/1.1/" xmlns:cc="http://creativecommons.org/ns#" xmlns:rdf="http://www.w3.org/1999/02/22-rdf-syntax-ns#">
   <cc:Work>
    <dc:type rdf:resource="http://purl.org/dc/dcmitype/StillImage"/>
    <dc:date>2022-06-26T17:20:25.917074</dc:date>
    <dc:format>image/svg+xml</dc:format>
    <dc:creator>
     <cc:Agent>
      <dc:title>Matplotlib v3.5.2, https://matplotlib.org/</dc:title>
     </cc:Agent>
    </dc:creator>
   </cc:Work>
  </rdf:RDF>
 </metadata>
 <defs>
  <style type="text/css">*{stroke-linejoin: round; stroke-linecap: butt}</style>
 </defs>
 <g id="figure_1">
  <g id="patch_1">
   <path d="M 0 392.273625 
L 1386.05 392.273625 
L 1386.05 0 
L 0 0 
z
" style="fill: #ffffff"/>
  </g>
  <g id="axes_1">
   <g id="patch_2">
    <path d="M 39.65 368.3955 
L 1378.85 368.3955 
L 1378.85 35.7555 
L 39.65 35.7555 
z
" style="fill: #ffffff"/>
   </g>
   <g id="matplotlib.axis_1">
    <g id="xtick_1">
     <g id="line2d_1">
      <defs>
       <path id="m9a19107575" d="M 0 0 
L 0 3.5 
" style="stroke: #000000; stroke-width: 0.8"/>
      </defs>
      <g>
       <use xlink:href="#m9a19107575" x="70.663196" y="368.3955" style="stroke: #000000; stroke-width: 0.8"/>
      </g>
     </g>
     <g id="text_1">
      <!-- 2020-01 -->
      <g transform="translate(49.771789 382.993937)scale(0.1 -0.1)">
       <defs>
        <path id="DejaVuSans-32" d="M 1228 531 
L 3431 531 
L 3431 0 
L 469 0 
L 469 531 
Q 828 903 1448 1529 
Q 2069 2156 2228 2338 
Q 2531 2678 2651 2914 
Q 2772 3150 2772 3378 
Q 2772 3750 2511 3984 
Q 2250 4219 1831 4219 
Q 1534 4219 1204 4116 
Q 875 4013 500 3803 
L 500 4441 
Q 881 4594 1212 4672 
Q 1544 4750 1819 4750 
Q 2544 4750 2975 4387 
Q 3406 4025 3406 3419 
Q 3406 3131 3298 2873 
Q 3191 2616 2906 2266 
Q 2828 2175 2409 1742 
Q 1991 1309 1228 531 
z
" transform="scale(0.015625)"/>
        <path id="DejaVuSans-30" d="M 2034 4250 
Q 1547 4250 1301 3770 
Q 1056 3291 1056 2328 
Q 1056 1369 1301 889 
Q 1547 409 2034 409 
Q 2525 409 2770 889 
Q 3016 1369 3016 2328 
Q 3016 3291 2770 3770 
Q 2525 4250 2034 4250 
z
M 2034 4750 
Q 2819 4750 3233 4129 
Q 3647 3509 3647 2328 
Q 3647 1150 3233 529 
Q 2819 -91 2034 -91 
Q 1250 -91 836 529 
Q 422 1150 422 2328 
Q 422 3509 836 4129 
Q 1250 4750 2034 4750 
z
" transform="scale(0.015625)"/>
        <path id="DejaVuSans-2d" d="M 313 2009 
L 1997 2009 
L 1997 1497 
L 313 1497 
L 313 2009 
z
" transform="scale(0.015625)"/>
        <path id="DejaVuSans-31" d="M 794 531 
L 1825 531 
L 1825 4091 
L 703 3866 
L 703 4441 
L 1819 4666 
L 2450 4666 
L 2450 531 
L 3481 531 
L 3481 0 
L 794 0 
L 794 531 
z
" transform="scale(0.015625)"/>
       </defs>
       <use xlink:href="#DejaVuSans-32"/>
       <use xlink:href="#DejaVuSans-30" x="63.623047"/>
       <use xlink:href="#DejaVuSans-32" x="127.246094"/>
       <use xlink:href="#DejaVuSans-30" x="190.869141"/>
       <use xlink:href="#DejaVuSans-2d" x="254.492188"/>
       <use xlink:href="#DejaVuSans-30" x="290.576172"/>
       <use xlink:href="#DejaVuSans-31" x="354.199219"/>
      </g>
     </g>
    </g>
    <g id="xtick_2">
     <g id="line2d_2">
      <g>
       <use xlink:href="#m9a19107575" x="194.173077" y="368.3955" style="stroke: #000000; stroke-width: 0.8"/>
      </g>
     </g>
     <g id="text_2">
      <!-- 2020-04 -->
      <g transform="translate(173.281671 382.993937)scale(0.1 -0.1)">
       <defs>
        <path id="DejaVuSans-34" d="M 2419 4116 
L 825 1625 
L 2419 1625 
L 2419 4116 
z
M 2253 4666 
L 3047 4666 
L 3047 1625 
L 3713 1625 
L 3713 1100 
L 3047 1100 
L 3047 0 
L 2419 0 
L 2419 1100 
L 313 1100 
L 313 1709 
L 2253 4666 
z
" transform="scale(0.015625)"/>
       </defs>
       <use xlink:href="#DejaVuSans-32"/>
       <use xlink:href="#DejaVuSans-30" x="63.623047"/>
       <use xlink:href="#DejaVuSans-32" x="127.246094"/>
       <use xlink:href="#DejaVuSans-30" x="190.869141"/>
       <use xlink:href="#DejaVuSans-2d" x="254.492188"/>
       <use xlink:href="#DejaVuSans-30" x="290.576172"/>
       <use xlink:href="#DejaVuSans-34" x="354.199219"/>
      </g>
     </g>
    </g>
    <g id="xtick_3">
     <g id="line2d_3">
      <g>
       <use xlink:href="#m9a19107575" x="317.682958" y="368.3955" style="stroke: #000000; stroke-width: 0.8"/>
      </g>
     </g>
     <g id="text_3">
      <!-- 2020-07 -->
      <g transform="translate(296.791552 382.993937)scale(0.1 -0.1)">
       <defs>
        <path id="DejaVuSans-37" d="M 525 4666 
L 3525 4666 
L 3525 4397 
L 1831 0 
L 1172 0 
L 2766 4134 
L 525 4134 
L 525 4666 
z
" transform="scale(0.015625)"/>
       </defs>
       <use xlink:href="#DejaVuSans-32"/>
       <use xlink:href="#DejaVuSans-30" x="63.623047"/>
       <use xlink:href="#DejaVuSans-32" x="127.246094"/>
       <use xlink:href="#DejaVuSans-30" x="190.869141"/>
       <use xlink:href="#DejaVuSans-2d" x="254.492188"/>
       <use xlink:href="#DejaVuSans-30" x="290.576172"/>
       <use xlink:href="#DejaVuSans-37" x="354.199219"/>
      </g>
     </g>
    </g>
    <g id="xtick_4">
     <g id="line2d_4">
      <g>
       <use xlink:href="#m9a19107575" x="442.550091" y="368.3955" style="stroke: #000000; stroke-width: 0.8"/>
      </g>
     </g>
     <g id="text_4">
      <!-- 2020-10 -->
      <g transform="translate(421.658685 382.993937)scale(0.1 -0.1)">
       <use xlink:href="#DejaVuSans-32"/>
       <use xlink:href="#DejaVuSans-30" x="63.623047"/>
       <use xlink:href="#DejaVuSans-32" x="127.246094"/>
       <use xlink:href="#DejaVuSans-30" x="190.869141"/>
       <use xlink:href="#DejaVuSans-2d" x="254.492188"/>
       <use xlink:href="#DejaVuSans-31" x="290.576172"/>
       <use xlink:href="#DejaVuSans-30" x="354.199219"/>
      </g>
     </g>
    </g>
    <g id="xtick_5">
     <g id="line2d_5">
      <g>
       <use xlink:href="#m9a19107575" x="567.417224" y="368.3955" style="stroke: #000000; stroke-width: 0.8"/>
      </g>
     </g>
     <g id="text_5">
      <!-- 2021-01 -->
      <g transform="translate(546.525818 382.993937)scale(0.1 -0.1)">
       <use xlink:href="#DejaVuSans-32"/>
       <use xlink:href="#DejaVuSans-30" x="63.623047"/>
       <use xlink:href="#DejaVuSans-32" x="127.246094"/>
       <use xlink:href="#DejaVuSans-31" x="190.869141"/>
       <use xlink:href="#DejaVuSans-2d" x="254.492188"/>
       <use xlink:href="#DejaVuSans-30" x="290.576172"/>
       <use xlink:href="#DejaVuSans-31" x="354.199219"/>
      </g>
     </g>
    </g>
    <g id="xtick_6">
     <g id="line2d_6">
      <g>
       <use xlink:href="#m9a19107575" x="689.569854" y="368.3955" style="stroke: #000000; stroke-width: 0.8"/>
      </g>
     </g>
     <g id="text_6">
      <!-- 2021-04 -->
      <g transform="translate(668.678448 382.993937)scale(0.1 -0.1)">
       <use xlink:href="#DejaVuSans-32"/>
       <use xlink:href="#DejaVuSans-30" x="63.623047"/>
       <use xlink:href="#DejaVuSans-32" x="127.246094"/>
       <use xlink:href="#DejaVuSans-31" x="190.869141"/>
       <use xlink:href="#DejaVuSans-2d" x="254.492188"/>
       <use xlink:href="#DejaVuSans-30" x="290.576172"/>
       <use xlink:href="#DejaVuSans-34" x="354.199219"/>
      </g>
     </g>
    </g>
    <g id="xtick_7">
     <g id="line2d_7">
      <g>
       <use xlink:href="#m9a19107575" x="813.079735" y="368.3955" style="stroke: #000000; stroke-width: 0.8"/>
      </g>
     </g>
     <g id="text_7">
      <!-- 2021-07 -->
      <g transform="translate(792.188329 382.993937)scale(0.1 -0.1)">
       <use xlink:href="#DejaVuSans-32"/>
       <use xlink:href="#DejaVuSans-30" x="63.623047"/>
       <use xlink:href="#DejaVuSans-32" x="127.246094"/>
       <use xlink:href="#DejaVuSans-31" x="190.869141"/>
       <use xlink:href="#DejaVuSans-2d" x="254.492188"/>
       <use xlink:href="#DejaVuSans-30" x="290.576172"/>
       <use xlink:href="#DejaVuSans-37" x="354.199219"/>
      </g>
     </g>
    </g>
    <g id="xtick_8">
     <g id="line2d_8">
      <g>
       <use xlink:href="#m9a19107575" x="937.946868" y="368.3955" style="stroke: #000000; stroke-width: 0.8"/>
      </g>
     </g>
     <g id="text_8">
      <!-- 2021-10 -->
      <g transform="translate(917.055462 382.993937)scale(0.1 -0.1)">
       <use xlink:href="#DejaVuSans-32"/>
       <use xlink:href="#DejaVuSans-30" x="63.623047"/>
       <use xlink:href="#DejaVuSans-32" x="127.246094"/>
       <use xlink:href="#DejaVuSans-31" x="190.869141"/>
       <use xlink:href="#DejaVuSans-2d" x="254.492188"/>
       <use xlink:href="#DejaVuSans-31" x="290.576172"/>
       <use xlink:href="#DejaVuSans-30" x="354.199219"/>
      </g>
     </g>
    </g>
    <g id="xtick_9">
     <g id="line2d_9">
      <g>
       <use xlink:href="#m9a19107575" x="1062.814001" y="368.3955" style="stroke: #000000; stroke-width: 0.8"/>
      </g>
     </g>
     <g id="text_9">
      <!-- 2022-01 -->
      <g transform="translate(1041.922595 382.993937)scale(0.1 -0.1)">
       <use xlink:href="#DejaVuSans-32"/>
       <use xlink:href="#DejaVuSans-30" x="63.623047"/>
       <use xlink:href="#DejaVuSans-32" x="127.246094"/>
       <use xlink:href="#DejaVuSans-32" x="190.869141"/>
       <use xlink:href="#DejaVuSans-2d" x="254.492188"/>
       <use xlink:href="#DejaVuSans-30" x="290.576172"/>
       <use xlink:href="#DejaVuSans-31" x="354.199219"/>
      </g>
     </g>
    </g>
    <g id="xtick_10">
     <g id="line2d_10">
      <g>
       <use xlink:href="#m9a19107575" x="1184.966631" y="368.3955" style="stroke: #000000; stroke-width: 0.8"/>
      </g>
     </g>
     <g id="text_10">
      <!-- 2022-04 -->
      <g transform="translate(1164.075225 382.993937)scale(0.1 -0.1)">
       <use xlink:href="#DejaVuSans-32"/>
       <use xlink:href="#DejaVuSans-30" x="63.623047"/>
       <use xlink:href="#DejaVuSans-32" x="127.246094"/>
       <use xlink:href="#DejaVuSans-32" x="190.869141"/>
       <use xlink:href="#DejaVuSans-2d" x="254.492188"/>
       <use xlink:href="#DejaVuSans-30" x="290.576172"/>
       <use xlink:href="#DejaVuSans-34" x="354.199219"/>
      </g>
     </g>
    </g>
    <g id="xtick_11">
     <g id="line2d_11">
      <g>
       <use xlink:href="#m9a19107575" x="1308.476513" y="368.3955" style="stroke: #000000; stroke-width: 0.8"/>
      </g>
     </g>
     <g id="text_11">
      <!-- 2022-07 -->
      <g transform="translate(1287.585106 382.993937)scale(0.1 -0.1)">
       <use xlink:href="#DejaVuSans-32"/>
       <use xlink:href="#DejaVuSans-30" x="63.623047"/>
       <use xlink:href="#DejaVuSans-32" x="127.246094"/>
       <use xlink:href="#DejaVuSans-32" x="190.869141"/>
       <use xlink:href="#DejaVuSans-2d" x="254.492188"/>
       <use xlink:href="#DejaVuSans-30" x="290.576172"/>
       <use xlink:href="#DejaVuSans-37" x="354.199219"/>
      </g>
     </g>
    </g>
   </g>
   <g id="matplotlib.axis_2">
    <g id="ytick_1">
     <g id="line2d_12">
      <defs>
       <path id="m37cd22b94b" d="M 0 0 
L -3.5 0 
" style="stroke: #000000; stroke-width: 0.8"/>
      </defs>
      <g>
       <use xlink:href="#m37cd22b94b" x="39.65" y="330.753582" style="stroke: #000000; stroke-width: 0.8"/>
      </g>
     </g>
     <g id="text_12">
      <!-- 0 -->
      <g transform="translate(26.2875 334.552801)scale(0.1 -0.1)">
       <use xlink:href="#DejaVuSans-30"/>
      </g>
     </g>
    </g>
    <g id="ytick_2">
     <g id="line2d_13">
      <g>
       <use xlink:href="#m37cd22b94b" x="39.65" y="269.065665" style="stroke: #000000; stroke-width: 0.8"/>
      </g>
     </g>
     <g id="text_13">
      <!-- 1000 -->
      <g transform="translate(7.2 272.864883)scale(0.1 -0.1)">
       <use xlink:href="#DejaVuSans-31"/>
       <use xlink:href="#DejaVuSans-30" x="63.623047"/>
       <use xlink:href="#DejaVuSans-30" x="127.246094"/>
       <use xlink:href="#DejaVuSans-30" x="190.869141"/>
      </g>
     </g>
    </g>
    <g id="ytick_3">
     <g id="line2d_14">
      <g>
       <use xlink:href="#m37cd22b94b" x="39.65" y="207.377747" style="stroke: #000000; stroke-width: 0.8"/>
      </g>
     </g>
     <g id="text_14">
      <!-- 2000 -->
      <g transform="translate(7.2 211.176966)scale(0.1 -0.1)">
       <use xlink:href="#DejaVuSans-32"/>
       <use xlink:href="#DejaVuSans-30" x="63.623047"/>
       <use xlink:href="#DejaVuSans-30" x="127.246094"/>
       <use xlink:href="#DejaVuSans-30" x="190.869141"/>
      </g>
     </g>
    </g>
    <g id="ytick_4">
     <g id="line2d_15">
      <g>
       <use xlink:href="#m37cd22b94b" x="39.65" y="145.689829" style="stroke: #000000; stroke-width: 0.8"/>
      </g>
     </g>
     <g id="text_15">
      <!-- 3000 -->
      <g transform="translate(7.2 149.489048)scale(0.1 -0.1)">
       <defs>
        <path id="DejaVuSans-33" d="M 2597 2516 
Q 3050 2419 3304 2112 
Q 3559 1806 3559 1356 
Q 3559 666 3084 287 
Q 2609 -91 1734 -91 
Q 1441 -91 1130 -33 
Q 819 25 488 141 
L 488 750 
Q 750 597 1062 519 
Q 1375 441 1716 441 
Q 2309 441 2620 675 
Q 2931 909 2931 1356 
Q 2931 1769 2642 2001 
Q 2353 2234 1838 2234 
L 1294 2234 
L 1294 2753 
L 1863 2753 
Q 2328 2753 2575 2939 
Q 2822 3125 2822 3475 
Q 2822 3834 2567 4026 
Q 2313 4219 1838 4219 
Q 1578 4219 1281 4162 
Q 984 4106 628 3988 
L 628 4550 
Q 988 4650 1302 4700 
Q 1616 4750 1894 4750 
Q 2613 4750 3031 4423 
Q 3450 4097 3450 3541 
Q 3450 3153 3228 2886 
Q 3006 2619 2597 2516 
z
" transform="scale(0.015625)"/>
       </defs>
       <use xlink:href="#DejaVuSans-33"/>
       <use xlink:href="#DejaVuSans-30" x="63.623047"/>
       <use xlink:href="#DejaVuSans-30" x="127.246094"/>
       <use xlink:href="#DejaVuSans-30" x="190.869141"/>
      </g>
     </g>
    </g>
    <g id="ytick_5">
     <g id="line2d_16">
      <g>
       <use xlink:href="#m37cd22b94b" x="39.65" y="84.001912" style="stroke: #000000; stroke-width: 0.8"/>
      </g>
     </g>
     <g id="text_16">
      <!-- 4000 -->
      <g transform="translate(7.2 87.801131)scale(0.1 -0.1)">
       <use xlink:href="#DejaVuSans-34"/>
       <use xlink:href="#DejaVuSans-30" x="63.623047"/>
       <use xlink:href="#DejaVuSans-30" x="127.246094"/>
       <use xlink:href="#DejaVuSans-30" x="190.869141"/>
      </g>
     </g>
    </g>
   </g>
   <g id="line2d_17">
    <path d="M 100.522727 330.753582 
L 169.742551 330.691894 
L 171.099802 330.630207 
L 172.457054 330.753582 
L 173.814305 330.506831 
L 175.171557 330.691894 
L 176.528808 329.889952 
L 177.88606 329.951639 
L 180.600562 330.753582 
L 181.957814 329.149696 
L 183.315065 329.951639 
L 184.672317 330.136703 
L 186.029568 327.360747 
L 187.38682 327.113995 
L 188.744071 328.964633 
L 190.101323 327.85425 
L 191.458574 327.113995 
L 192.815825 319.958197 
L 194.173077 327.607499 
L 195.530328 317.79912 
L 196.88758 323.659472 
L 198.244831 322.672465 
L 199.602083 327.299059 
L 200.959334 329.33476 
L 202.316586 326.497116 
L 203.673837 328.286066 
L 205.031088 329.396448 
L 206.38834 323.227656 
L 207.745591 328.16269 
L 209.102843 330.075015 
L 210.460094 329.581512 
L 211.817346 328.409441 
L 213.174597 330.198391 
L 214.531849 323.72116 
L 215.8891 329.396448 
L 217.246351 327.915938 
L 218.603603 329.951639 
L 219.960854 330.506831 
L 221.318106 326.805556 
L 222.675357 328.902945 
L 224.032609 326.435428 
L 225.38986 328.656193 
L 226.747112 329.704888 
L 228.104363 330.136703 
L 229.461614 330.753582 
L 230.818866 327.360747 
L 232.176117 330.753582 
L 233.533369 328.779569 
L 234.89062 328.841257 
L 236.247872 327.915938 
L 237.605123 330.753582 
L 238.962375 327.977626 
L 240.319626 329.458136 
L 241.676877 328.841257 
L 243.034129 329.519824 
L 244.39138 330.753582 
L 245.748632 329.088009 
L 247.105883 329.211384 
L 248.463135 328.902945 
L 249.820386 328.717881 
L 251.177638 330.753582 
L 252.534889 327.175683 
L 253.89214 330.753582 
L 255.249392 326.558804 
L 256.606643 330.753582 
L 257.963895 328.532817 
L 259.321146 330.753582 
L 260.678398 327.607499 
L 262.035649 330.753582 
L 263.392901 325.263358 
L 264.750152 330.753582 
L 266.107403 328.841257 
L 267.464655 330.753582 
L 268.821906 330.753582 
L 270.179158 326.250364 
L 271.536409 326.37374 
L 272.893661 330.753582 
L 274.250912 328.717881 
L 275.608164 328.532817 
L 276.965415 330.753582 
L 278.322666 324.954918 
L 279.679918 330.753582 
L 281.037169 327.237371 
L 282.394421 323.289344 
L 283.751672 329.026321 
L 285.108924 330.753582 
L 286.466175 327.669186 
L 287.823427 328.779569 
L 289.180678 328.347754 
L 290.537929 330.753582 
L 291.895181 325.016606 
L 293.252432 330.753582 
L 294.609684 327.915938 
L 295.966935 330.753582 
L 297.324187 326.867244 
L 298.681438 320.266636 
L 300.03869 323.906223 
L 301.395941 322.857529 
L 302.753192 322.549089 
L 304.110444 330.630207 
L 305.467695 315.331603 
L 306.824947 330.876958 
L 308.182198 321.623771 
L 309.53945 302.192076 
L 310.896701 330.753582 
L 312.253953 302.562204 
L 313.611204 330.753582 
L 314.968455 304.227778 
L 316.325707 308.237492 
L 317.682958 315.146539 
L 319.04021 316.997177 
L 320.397461 306.016727 
L 321.754713 307.558925 
L 323.111964 308.360868 
L 324.469216 311.075137 
L 325.826467 300.711566 
L 327.183718 304.227778 
L 328.54097 302.37714 
L 329.898221 299.909624 
L 331.255473 295.159654 
L 332.612724 306.263479 
L 333.969976 299.847936 
L 335.327227 311.2602 
L 336.684479 285.78309 
L 338.04173 288.497359 
L 340.756233 296.825228 
L 342.113484 295.529781 
L 343.470736 306.448543 
L 344.827987 296.516788 
L 346.185239 299.971311 
L 347.54249 305.153097 
L 348.899742 298.182362 
L 350.256993 296.146661 
L 351.614244 309.039435 
L 352.971496 299.045993 
L 354.328747 298.182362 
L 355.685999 302.747268 
L 357.04325 295.714845 
L 358.400502 301.513509 
L 359.757753 306.448543 
L 361.115005 330.753582 
L 362.472256 296.208348 
L 363.829507 295.838221 
L 365.186759 301.636885 
L 366.54401 288.003855 
L 367.901262 298.429114 
L 369.258513 295.468093 
L 370.615765 319.773133 
L 371.973016 304.289466 
L 373.330268 300.279751 
L 374.687519 297.688858 
L 376.04477 300.218063 
L 377.402022 297.318731 
L 378.759273 312.000455 
L 380.116525 319.588069 
L 382.831028 307.065422 
L 384.188279 308.60762 
L 385.545531 304.227778 
L 386.902782 315.084851 
L 388.260033 312.555647 
L 389.617285 319.27963 
L 390.974536 317.675744 
L 392.331788 305.584912 
L 393.689039 311.87708 
L 395.046291 309.656315 
L 396.403542 314.52966 
L 397.760794 312.74071 
L 399.118045 319.032878 
L 400.475296 316.997177 
L 401.832548 313.974469 
L 403.189799 311.56864 
L 404.547051 314.52966 
L 405.904302 314.344596 
L 407.261554 313.419277 
L 408.618805 319.032878 
L 409.976057 326.188676 
L 411.333308 315.948482 
L 412.690559 310.890073 
L 414.047811 311.198512 
L 415.405062 310.211506 
L 416.762314 317.367304 
L 418.119565 323.844536 
L 419.476817 315.146539 
L 420.834068 313.604341 
L 422.19132 313.295902 
L 423.548571 306.325167 
L 424.905822 301.760261 
L 426.263074 312.987462 
L 427.620325 315.70173 
L 428.977577 305.461536 
L 430.334828 303.240771 
L 431.69208 306.325167 
L 433.049331 300.464815 
L 434.406583 298.490801 
L 435.763834 297.503795 
L 437.121085 318.107559 
L 438.478337 304.721281 
L 439.835588 299.231056 
L 441.19284 292.877201 
L 442.550091 299.107681 
L 443.907343 288.990862 
L 446.621846 314.591348 
L 449.336348 290.039557 
L 450.6936 289.36099 
L 452.050851 289.237614 
L 453.408103 289.916181 
L 454.765354 292.938889 
L 456.122606 308.237492 
L 457.479857 293.925896 
L 458.837109 294.727838 
L 460.19436 290.964875 
L 461.551611 286.461657 
L 462.908863 263.267 
L 464.266114 276.591591 
L 465.623366 299.292744 
L 468.337869 276.90003 
L 469.69512 269.867608 
L 471.052372 272.150061 
L 472.409623 264.562447 
L 473.766874 267.770218 
L 475.124126 290.656436 
L 476.481377 287.757104 
L 477.838629 276.344839 
L 479.19588 277.578597 
L 481.910383 265.117638 
L 483.267635 281.526624 
L 484.624886 301.143382 
L 485.982137 284.055829 
L 487.339389 258.023527 
L 488.69664 251.176169 
L 490.053892 252.718367 
L 491.411143 248.708652 
L 492.768395 244.205434 
L 494.125646 290.718124 
L 495.482898 252.656679 
L 496.840149 256.666393 
L 498.1974 226.315938 
L 499.554652 259.318974 
L 500.911903 237.049635 
L 502.269155 237.049635 
L 503.626406 273.507195 
L 504.983658 262.958561 
L 506.340909 220.887401 
L 507.698161 249.94241 
L 510.412663 220.578961 
L 511.769915 264.74751 
L 513.127166 280.231178 
L 514.484418 242.108045 
L 515.841669 229.585397 
L 517.198921 221.380904 
L 518.556172 330.753582 
L 519.913424 207.562811 
L 521.270675 259.195598 
L 522.627926 279.922738 
L 525.342429 231.621099 
L 526.699681 242.601548 
L 528.056932 224.588676 
L 529.414184 212.867972 
L 532.128687 281.094809 
L 533.485938 245.439192 
L 534.843189 206.637492 
L 536.200441 188.994748 
L 537.557692 218.173133 
L 538.914944 233.163297 
L 540.272195 267.708531 
L 541.629447 297.010291 
L 542.986698 266.721524 
L 544.34395 219.591955 
L 545.701201 242.354796 
L 547.058452 242.786612 
L 548.415704 248.091773 
L 549.772955 278.257164 
L 551.130207 275.789648 
L 552.487458 274.185762 
L 553.84471 224.835428 
L 555.201961 244.945689 
L 556.559213 253.767061 
L 557.916464 330.753582 
L 559.273715 296.578476 
L 560.630967 304.351154 
L 561.988218 281.711688 
L 563.34547 237.358075 
L 564.702721 248.091773 
L 566.059973 255.926138 
L 567.417224 330.753582 
L 568.774476 261.539739 
L 570.131727 311.753704 
L 571.488978 281.526624 
L 572.84623 235.877565 
L 574.203481 252.841742 
L 575.560733 264.932574 
L 576.917984 263.822192 
L 578.275236 270.484487 
L 579.632487 304.104402 
L 580.989739 295.468093 
L 582.34699 266.968276 
L 583.704241 263.452064 
L 585.061493 269.435792 
L 586.418744 262.156618 
L 587.775996 281.033121 
L 589.133247 313.604341 
L 590.490499 330.753582 
L 591.84775 255.247571 
L 593.205002 280.786369 
L 594.562253 293.000577 
L 595.919504 293.864208 
L 597.276756 298.24405 
L 598.634007 319.588069 
L 599.991259 298.24405 
L 601.34851 296.270036 
L 602.705762 292.507073 
L 604.063013 299.41612 
L 605.420265 291.581755 
L 608.134767 330.753582 
L 609.492019 301.020006 
L 610.84927 300.464815 
L 612.206522 299.477808 
L 613.563773 305.955039 
L 614.921025 305.831664 
L 616.278276 315.948482 
L 617.635528 330.753582 
L 618.992779 303.055707 
L 620.35003 303.795962 
L 621.707282 302.500516 
L 623.064533 310.828385 
L 624.421785 309.224499 
L 625.779036 314.8381 
L 627.136288 330.753582 
L 628.493539 330.753582 
L 629.850791 302.253764 
L 631.208042 305.584912 
L 632.565293 313.110838 
L 633.922545 311.383576 
L 635.279796 318.601063 
L 636.637048 330.753582 
L 637.994299 303.981026 
L 639.351551 313.35759 
L 640.708802 304.659593 
L 642.066054 311.87708 
L 643.423305 311.506952 
L 644.780556 316.380298 
L 646.137808 330.753582 
L 647.495059 310.890073 
L 648.852311 307.682301 
L 650.209562 302.870644 
L 651.566814 312.308895 
L 652.924065 315.948482 
L 654.281317 324.338039 
L 655.638568 330.753582 
L 656.995819 307.435549 
L 658.353071 301.081694 
L 659.710322 302.623892 
L 661.067574 308.29918 
L 662.424825 310.211506 
L 663.782077 312.679022 
L 665.139328 330.753582 
L 666.49658 304.782969 
L 667.853831 309.162811 
L 669.211082 302.747268 
L 670.568334 309.718002 
L 671.925585 307.12711 
L 673.282837 316.256922 
L 674.640088 330.753582 
L 675.99734 309.77969 
L 677.354591 308.60762 
L 678.711843 304.536217 
L 680.069094 309.594627 
L 681.426345 311.198512 
L 682.783597 316.935489 
L 684.140848 330.753582 
L 685.4981 310.08813 
L 686.855351 311.445264 
L 688.212603 302.37714 
L 689.569854 308.484244 
L 690.927106 313.234214 
L 692.284357 330.753582 
L 693.641608 330.753582 
L 694.99886 290.347996 
L 696.356111 309.409563 
L 697.713363 309.224499 
L 699.070614 311.630328 
L 700.427866 311.506952 
L 701.785117 330.753582 
L 703.142369 330.753582 
L 704.49962 297.565483 
L 705.856871 317.243928 
L 707.214123 303.795962 
L 708.571374 317.79912 
L 709.928626 317.675744 
L 711.285877 330.753582 
L 712.643129 330.753582 
L 714.00038 302.500516 
L 715.357631 316.071858 
L 716.714883 312.617335 
L 718.072134 316.31861 
L 719.429386 319.032878 
L 720.786637 330.753582 
L 722.143889 330.753582 
L 723.50114 297.318731 
L 724.858392 312.925774 
L 726.215643 315.023163 
L 727.572894 317.79912 
L 728.930146 319.834821 
L 730.287397 330.753582 
L 731.644649 330.753582 
L 733.0019 308.052429 
L 734.359152 317.860808 
L 735.716403 318.292623 
L 737.073655 320.513388 
L 738.430906 319.217942 
L 739.788157 330.753582 
L 741.145409 330.753582 
L 742.50266 309.77969 
L 743.859912 316.380298 
L 745.217163 316.873801 
L 746.574415 321.562083 
L 747.931666 320.081573 
L 749.288918 330.753582 
L 750.646169 330.753582 
L 752.00342 307.867365 
L 753.360672 318.847814 
L 754.717923 315.948482 
L 756.075175 319.156254 
L 757.432426 320.390012 
L 758.789678 330.753582 
L 760.146929 330.753582 
L 761.504181 310.458257 
L 762.861432 321.562083 
L 764.218683 318.909502 
L 765.575935 322.178962 
L 766.933186 322.425713 
L 768.290438 330.753582 
L 771.004941 330.753582 
L 772.362192 312.679022 
L 773.719444 320.081573 
L 775.076695 321.377019 
L 776.433946 320.575076 
L 777.791198 330.753582 
L 779.148449 330.753582 
L 780.505701 316.256922 
L 781.862952 322.919217 
L 783.220204 322.24065 
L 784.577455 324.461415 
L 785.934707 323.474408 
L 787.291958 330.753582 
L 788.649209 330.753582 
L 790.006461 316.688737 
L 791.363712 325.263358 
L 792.720964 325.386734 
L 794.078215 325.386734 
L 795.435467 330.753582 
L 798.14997 330.753582 
L 799.507221 315.763418 
L 800.864472 323.474408 
L 802.221724 321.315331 
L 803.578975 325.263358 
L 804.936227 325.756861 
L 806.293478 330.753582 
L 807.65073 330.753582 
L 809.007981 322.487401 
L 810.365233 326.003613 
L 811.722484 324.769854 
L 813.079735 325.139982 
L 814.436987 325.633485 
L 815.794238 330.753582 
L 818.508741 330.753582 
L 819.865993 314.899788 
L 821.223244 323.165968 
L 822.580496 321.870522 
L 823.937747 322.425713 
L 825.294998 330.753582 
L 826.65225 330.753582 
L 828.009501 312.432271 
L 829.366753 319.526381 
L 830.724004 319.711445 
L 832.081256 318.045871 
L 833.438507 320.821828 
L 834.795759 330.753582 
L 836.15301 330.753582 
L 837.510261 308.854372 
L 838.867513 315.640043 
L 840.224764 310.705009 
L 841.582016 316.380298 
L 842.939267 313.35759 
L 844.296519 330.753582 
L 845.65377 330.753582 
L 847.011022 297.195355 
L 848.368273 311.136825 
L 849.725524 308.669308 
L 851.082776 303.672587 
L 852.440027 298.120674 
L 853.797279 330.753582 
L 855.15453 330.753582 
L 856.511782 277.20847 
L 857.869033 288.805798 
L 859.226285 291.458379 
L 860.583536 284.91946 
L 861.940787 288.867486 
L 863.298039 330.753582 
L 864.65529 330.753582 
L 866.012542 272.643564 
L 867.369793 284.240892 
L 868.727045 285.351275 
L 870.084296 284.425956 
L 871.441548 282.637007 
L 872.798799 330.753582 
L 874.15605 330.753582 
L 875.513302 247.043078 
L 876.870553 274.987705 
L 878.227805 255.679387 
L 879.585056 281.711688 
L 880.942308 293.000577 
L 882.299559 330.753582 
L 883.656811 330.753582 
L 885.014062 264.685823 
L 886.371313 267.091651 
L 887.728565 267.893594 
L 889.085816 269.559168 
L 890.443068 279.305859 
L 891.800319 330.753582 
L 893.157571 330.753582 
L 894.514822 190.351882 
L 895.872074 255.124195 
L 897.229325 259.010534 
L 898.586576 231.806162 
L 899.943828 245.130753 
L 901.301079 330.753582 
L 904.015582 330.753582 
L 905.372834 174.868214 
L 906.730085 236.61782 
L 908.087337 240.750911 
L 909.444588 233.6568 
L 912.159091 310.39657 
L 913.516342 242.169733 
L 914.873594 228.536703 
L 916.230845 249.633971 
L 917.588097 255.617699 
L 918.945348 224.033485 
L 920.3026 283.994141 
L 921.659851 312.247207 
L 923.017102 254.013813 
L 924.374354 217.864693 
L 925.731605 247.228142 
L 927.088857 247.783333 
L 928.446108 229.21527 
L 929.80336 280.416242 
L 931.160611 306.140103 
L 932.517863 242.971676 
L 933.875114 247.166454 
L 935.232365 226.871129 
L 936.589617 213.238099 
L 937.946868 221.072465 
L 939.30412 274.494201 
L 940.661371 309.841378 
L 943.375874 217.741317 
L 944.733126 246.241135 
L 946.090377 249.263843 
L 947.447628 226.994505 
L 948.80488 282.020127 
L 950.162131 318.045871 
L 951.519383 330.753582 
L 952.876634 211.017334 
L 954.233886 205.897237 
L 955.591137 211.387462 
L 956.948389 236.987948 
L 958.30564 282.513631 
L 959.662891 311.938767 
L 961.020143 251.176169 
L 962.377394 240.442471 
L 963.734646 235.198998 
L 965.091897 248.832028 
L 966.449149 239.455464 
L 967.8064 286.029842 
L 969.163652 315.825106 
L 970.520903 263.513752 
L 971.878154 247.845021 
L 973.235406 254.013813 
L 974.592657 276.90003 
L 975.949909 264.377383 
L 977.30716 307.312174 
L 978.664412 326.805556 
L 980.021663 269.003977 
L 981.378915 273.753946 
L 982.736166 254.013813 
L 984.093417 289.916181 
L 985.450669 281.218184 
L 986.80792 309.224499 
L 988.165172 330.753582 
L 989.522423 278.750668 
L 990.879675 283.377262 
L 992.236926 286.09153 
L 993.594178 330.753582 
L 994.951429 272.643564 
L 996.30868 313.912781 
L 997.665932 330.753582 
L 999.023183 288.929174 
L 1001.737686 290.656436 
L 1003.094938 296.640164 
L 1004.452189 290.286308 
L 1005.809441 315.578355 
L 1007.166692 330.753582 
L 1008.523943 291.766818 
L 1009.881195 291.581755 
L 1011.238446 295.591469 
L 1012.595698 330.753582 
L 1013.952949 306.633607 
L 1015.310201 316.071858 
L 1016.667452 330.753582 
L 1018.024704 303.179083 
L 1019.381955 291.520067 
L 1020.739206 286.585033 
L 1022.096458 294.110959 
L 1023.453709 299.045993 
L 1024.810961 318.415999 
L 1026.168212 330.753582 
L 1027.525464 303.302459 
L 1028.882715 287.818792 
L 1030.239967 290.594748 
L 1031.597218 300.588191 
L 1032.954469 307.867365 
L 1034.311721 320.204948 
L 1035.668972 330.753582 
L 1037.026224 300.279751 
L 1038.383475 305.769976 
L 1039.740727 302.994019 
L 1041.097978 307.188798 
L 1042.45523 306.756982 
L 1043.812481 321.191955 
L 1045.169732 330.753582 
L 1046.526984 298.367426 
L 1047.884235 304.659593 
L 1049.241487 308.854372 
L 1050.598738 302.623892 
L 1051.95599 330.753582 
L 1054.670493 330.753582 
L 1056.027744 269.682544 
L 1057.384995 267.893594 
L 1058.742247 286.153218 
L 1060.099498 273.753946 
L 1061.45675 330.753582 
L 1064.171253 330.753582 
L 1065.528504 243.156739 
L 1066.885756 224.526988 
L 1068.243007 241.861293 
L 1069.600258 221.874408 
L 1070.95751 248.400212 
L 1072.314761 306.942046 
L 1073.672013 330.753582 
L 1075.029264 238.530145 
L 1076.386516 187.699301 
L 1077.743767 156.731967 
L 1079.101019 186.527231 
L 1080.45827 129.280843 
L 1081.815521 258.763782 
L 1083.172773 330.753582 
L 1084.530024 330.753582 
L 1085.887276 111.453035 
L 1087.244527 50.8755 
L 1088.601779 117.190011 
L 1089.95903 102.446599 
L 1091.316282 210.770583 
L 1092.673533 330.753582 
L 1094.030784 145.566454 
L 1095.388036 113.735488 
L 1096.745287 78.573375 
L 1098.102539 97.758317 
L 1099.45979 105.407619 
L 1100.817042 230.449028 
L 1102.174293 330.753582 
L 1103.531545 171.537067 
L 1104.888796 197.260929 
L 1107.603299 176.78054 
L 1108.96055 180.975318 
L 1110.317802 247.351518 
L 1111.675053 330.753582 
L 1113.032305 208.241378 
L 1114.389556 188.069429 
L 1115.746808 172.524074 
L 1117.104059 184.676593 
L 1119.818562 263.57544 
L 1121.175813 330.753582 
L 1122.533065 238.715209 
L 1123.890316 196.458986 
L 1125.247568 187.45255 
L 1126.604819 205.588797 
L 1127.962071 194.176533 
L 1130.676573 330.753582 
L 1132.033825 330.753582 
L 1133.391076 185.478536 
L 1134.748328 188.254493 
L 1136.105579 182.147389 
L 1137.462831 204.231663 
L 1138.820082 330.753582 
L 1140.177334 330.753582 
L 1141.534585 174.929902 
L 1142.891836 233.6568 
L 1144.249088 223.539981 
L 1145.606339 241.799605 
L 1146.963591 234.211991 
L 1148.320842 330.753582 
L 1149.678094 330.753582 
L 1151.035345 227.488008 
L 1152.392597 279.922738 
L 1153.749848 265.857893 
L 1155.107099 267.338403 
L 1156.464351 277.085094 
L 1157.821602 330.753582 
L 1159.178854 330.753582 
L 1160.536105 258.455343 
L 1161.893357 279.86105 
L 1163.250608 278.010413 
L 1164.60786 294.234335 
L 1165.965111 296.023285 
L 1167.322362 330.753582 
L 1168.679614 330.753582 
L 1170.036865 289.237614 
L 1171.394117 304.597905 
L 1172.751368 313.851093 
L 1175.465871 326.435428 
L 1176.823123 330.753582 
L 1178.180374 330.753582 
L 1179.537625 323.536096 
L 1180.894877 322.980905 
L 1182.252128 322.24065 
L 1183.60938 330.753582 
L 1184.966631 313.480965 
L 1186.323883 330.753582 
L 1187.681134 330.753582 
L 1189.038386 317.614056 
L 1190.395637 326.065301 
L 1191.752888 329.273072 
L 1193.11014 326.990619 
L 1194.467391 327.484123 
L 1195.824643 330.753582 
L 1197.181894 330.753582 
L 1198.539146 323.351032 
L 1199.896397 324.152975 
L 1201.253649 328.101002 
L 1202.6109 324.584791 
L 1203.968151 328.717881 
L 1205.325403 330.753582 
L 1206.682654 330.753582 
L 1208.039906 322.919217 
L 1209.397157 330.753582 
L 1210.754409 319.464693 
L 1212.11166 330.753582 
L 1213.468912 318.724438 
L 1214.826163 330.753582 
L 1216.183414 330.753582 
L 1217.540666 323.042593 
L 1218.897917 330.753582 
L 1220.255169 321.438707 
L 1221.61242 330.753582 
L 1222.969672 317.243928 
L 1224.326923 330.753582 
L 1225.684175 330.753582 
L 1227.041426 319.217942 
L 1228.398677 330.753582 
L 1229.755929 310.890073 
L 1231.11318 330.753582 
L 1232.470432 311.815392 
L 1233.827683 330.753582 
L 1235.184935 330.753582 
L 1236.542186 312.062143 
L 1237.899438 330.753582 
L 1239.256689 307.250486 
L 1240.61394 330.753582 
L 1241.971192 307.743989 
L 1243.328443 330.753582 
L 1244.685695 330.753582 
L 1246.042946 308.792684 
L 1247.400198 330.753582 
L 1248.757449 300.834942 
L 1250.114701 330.753582 
L 1251.471952 299.231056 
L 1252.829203 330.753582 
L 1254.186455 330.753582 
L 1255.543706 305.029721 
L 1256.900958 330.753582 
L 1258.258209 290.347996 
L 1259.615461 330.753582 
L 1260.972712 292.507073 
L 1262.329964 330.753582 
L 1266.401718 330.753582 
L 1267.758969 261.169611 
L 1269.116221 330.753582 
L 1270.473472 279.367547 
L 1271.830724 330.753582 
L 1273.187975 330.753582 
L 1274.545227 291.766818 
L 1275.902478 330.753582 
L 1277.259729 267.400091 
L 1278.616981 330.753582 
L 1279.974232 278.318852 
L 1281.331484 330.753582 
L 1282.688735 330.753582 
L 1284.045987 287.2636 
L 1285.403238 330.753582 
L 1286.76049 275.604584 
L 1288.117741 330.753582 
L 1289.474992 276.406527 
L 1290.832244 330.753582 
L 1294.903998 330.753582 
L 1296.26125 230.942532 
L 1297.618501 330.753582 
L 1298.975753 255.741074 
L 1300.333004 330.753582 
L 1300.333004 330.753582 
" clip-path="url(#p715eb78270)" style="fill: none; stroke: #0000ff; stroke-width: 1.5; stroke-linecap: square"/>
   </g>
   <g id="line2d_18">
    <path d="M 1061.45675 318.29552 
L 1062.814001 319.843846 
L 1064.171253 279.320522 
L 1065.528504 265.86459 
L 1066.885756 270.968408 
L 1068.243007 268.875649 
L 1069.600258 294.222041 
L 1070.95751 284.826533 
L 1072.314761 292.98727 
L 1073.672013 243.249157 
L 1075.029264 221.512312 
L 1076.386516 217.675436 
L 1077.743767 199.689185 
L 1079.101019 238.281978 
L 1080.45827 242.240041 
L 1081.815521 263.239679 
L 1083.172773 212.612272 
L 1084.530024 203.125753 
L 1085.887276 139.203414 
L 1087.244527 129.06946 
L 1088.601779 145.554563 
L 1089.95903 228.430212 
L 1091.316282 252.808063 
L 1092.673533 231.478974 
L 1094.030784 83.607436 
L 1095.388036 60.200401 
L 1096.745287 107.85036 
L 1098.102539 99.322563 
L 1099.45979 170.82849 
L 1100.817042 256.975838 
L 1103.531545 99.514871 
L 1104.888796 94.750902 
L 1106.246047 142.393567 
L 1107.603299 141.647252 
L 1108.96055 232.774681 
L 1110.317802 316.377017 
L 1111.675053 215.711348 
L 1113.032305 200.537923 
L 1114.389556 182.633375 
L 1115.746808 186.341952 
L 1117.104059 188.466064 
L 1118.46131 265.497817 
L 1119.818562 328.742732 
L 1121.175813 222.26345 
L 1122.533065 212.05344 
L 1123.890316 196.640982 
L 1125.247568 203.179434 
L 1126.604819 223.612986 
L 1127.962071 264.638004 
L 1129.319322 323.92712 
L 1130.676573 241.35348 
L 1132.033825 238.994446 
L 1133.391076 200.371031 
L 1136.105579 212.332584 
L 1137.462831 275.246761 
L 1138.820082 345.512112 
L 1140.177334 293.110592 
L 1141.534585 176.447019 
L 1142.891836 203.359009 
L 1144.249088 224.025201 
L 1145.606339 230.077194 
L 1146.963591 291.037978 
L 1148.320842 328.68729 
L 1149.678094 244.167516 
L 1151.035345 235.023176 
L 1152.392597 245.726055 
L 1153.749848 259.891865 
L 1155.107099 255.871757 
L 1156.464351 333.738456 
L 1157.821602 346.485495 
L 1159.178854 261.793098 
L 1160.536105 285.215806 
L 1161.893357 278.376753 
L 1163.250608 281.685772 
L 1164.60786 287.282917 
L 1165.965111 344.374367 
L 1167.322362 343.249035 
L 1168.679614 273.537904 
L 1170.036865 301.093367 
L 1171.394117 297.756805 
L 1172.751368 307.151819 
L 1174.10862 309.345431 
L 1175.465871 353.2755 
L 1176.823123 348.212351 
L 1178.180374 299.447743 
L 1179.537625 326.983466 
L 1180.894877 327.734664 
L 1182.252128 327.321263 
L 1183.60938 330.247988 
L 1184.966631 348.055925 
L 1186.323883 346.739968 
L 1187.681134 321.562845 
L 1189.038386 329.464929 
L 1190.395637 327.648968 
L 1191.752888 332.348628 
L 1193.11014 322.875518 
L 1194.467391 340.845229 
L 1195.824643 339.180661 
L 1197.181894 321.835331 
L 1198.539146 330.121334 
L 1199.896397 330.636287 
L 1201.253649 330.741966 
L 1202.6109 326.233892 
L 1203.968151 336.432723 
L 1205.325403 334.940492 
L 1206.682654 323.486235 
L 1208.039906 326.819112 
L 1209.397157 330.84657 
L 1210.754409 325.994476 
L 1213.468912 330.989542 
L 1214.826163 331.992925 
L 1216.183414 323.351357 
L 1217.540666 328.374847 
L 1218.897917 324.070898 
L 1220.255169 327.687933 
L 1221.61242 323.671533 
L 1222.969672 329.402033 
L 1224.326923 330.636195 
L 1225.684175 323.8866 
L 1227.041426 328.086656 
L 1228.398677 322.676321 
L 1229.755929 325.780853 
L 1231.11318 320.05784 
L 1232.470432 327.0937 
L 1233.827683 328.562739 
L 1235.184935 319.97986 
L 1236.542186 325.006282 
L 1237.899438 315.224173 
L 1239.256689 325.186638 
L 1240.61394 315.455714 
L 1241.971192 325.048422 
L 1243.328443 327.24756 
L 1244.685695 315.567729 
L 1246.042946 324.829398 
L 1247.400198 310.943591 
L 1248.757449 324.304836 
L 1250.114701 311.722038 
L 1251.471952 323.442547 
L 1252.829203 326.461283 
L 1254.186455 311.861113 
L 1255.543706 323.975846 
L 1256.900958 305.126055 
L 1258.258209 321.898767 
L 1259.615461 305.375243 
L 1260.972712 322.426422 
L 1262.329964 325.522223 
L 1263.687215 307.475618 
L 1265.044466 330.791646 
L 1266.401718 300.114578 
L 1267.758969 315.411362 
L 1269.116221 299.731754 
L 1270.473472 325.053407 
L 1271.830724 326.607019 
L 1273.187975 315.549657 
L 1274.545227 315.694541 
L 1275.902478 277.784551 
L 1277.259729 319.446499 
L 1278.616981 289.098601 
L 1279.974232 317.470338 
L 1281.331484 322.205127 
L 1282.688735 302.427732 
L 1284.045987 318.163237 
L 1285.403238 275.420335 
L 1286.76049 323.626537 
L 1288.117741 287.231426 
L 1289.474992 319.990165 
L 1290.832244 324.496191 
L 1292.189495 297.949963 
L 1293.546747 334.285511 
L 1294.903998 283.450904 
L 1296.26125 312.649537 
L 1297.618501 284.941539 
L 1298.975753 324.60903 
L 1300.333004 326.387402 
L 1300.333004 326.387402 
" clip-path="url(#p715eb78270)" style="fill: none; stroke: #ffa500; stroke-width: 1.5; stroke-linecap: square"/>
   </g>
   <g id="line2d_19">
    <path d="M 1300.333004 326.387402 
L 1301.690255 308.469588 
L 1303.047507 319.628372 
L 1304.404758 253.067806 
L 1305.76201 318.755622 
L 1307.119261 269.140296 
L 1308.476513 320.460256 
L 1309.833764 318.308394 
L 1311.191016 304.368889 
L 1312.548267 314.554019 
L 1313.905518 257.327062 
L 1315.26277 314.432595 
L 1316.620021 270.266903 
L 1317.977273 315.256362 
" clip-path="url(#p715eb78270)" style="fill: none; stroke: #ff0000; stroke-width: 1.5; stroke-linecap: square"/>
   </g>
   <g id="patch_3">
    <path d="M 39.65 368.3955 
L 39.65 35.7555 
" style="fill: none; stroke: #000000; stroke-width: 0.8; stroke-linejoin: miter; stroke-linecap: square"/>
   </g>
   <g id="patch_4">
    <path d="M 1378.85 368.3955 
L 1378.85 35.7555 
" style="fill: none; stroke: #000000; stroke-width: 0.8; stroke-linejoin: miter; stroke-linecap: square"/>
   </g>
   <g id="patch_5">
    <path d="M 39.65 368.3955 
L 1378.85 368.3955 
" style="fill: none; stroke: #000000; stroke-width: 0.8; stroke-linejoin: miter; stroke-linecap: square"/>
   </g>
   <g id="patch_6">
    <path d="M 39.65 35.7555 
L 1378.85 35.7555 
" style="fill: none; stroke: #000000; stroke-width: 0.8; stroke-linejoin: miter; stroke-linecap: square"/>
   </g>
   <g id="text_17">
    <!-- Daily Confirmed Cases Forecasting - Idaho -->
    <g transform="translate(582.02 16.318125)scale(0.12 -0.12)">
     <defs>
      <path id="DejaVuSans-44" d="M 1259 4147 
L 1259 519 
L 2022 519 
Q 2988 519 3436 956 
Q 3884 1394 3884 2338 
Q 3884 3275 3436 3711 
Q 2988 4147 2022 4147 
L 1259 4147 
z
M 628 4666 
L 1925 4666 
Q 3281 4666 3915 4102 
Q 4550 3538 4550 2338 
Q 4550 1131 3912 565 
Q 3275 0 1925 0 
L 628 0 
L 628 4666 
z
" transform="scale(0.015625)"/>
      <path id="DejaVuSans-61" d="M 2194 1759 
Q 1497 1759 1228 1600 
Q 959 1441 959 1056 
Q 959 750 1161 570 
Q 1363 391 1709 391 
Q 2188 391 2477 730 
Q 2766 1069 2766 1631 
L 2766 1759 
L 2194 1759 
z
M 3341 1997 
L 3341 0 
L 2766 0 
L 2766 531 
Q 2569 213 2275 61 
Q 1981 -91 1556 -91 
Q 1019 -91 701 211 
Q 384 513 384 1019 
Q 384 1609 779 1909 
Q 1175 2209 1959 2209 
L 2766 2209 
L 2766 2266 
Q 2766 2663 2505 2880 
Q 2244 3097 1772 3097 
Q 1472 3097 1187 3025 
Q 903 2953 641 2809 
L 641 3341 
Q 956 3463 1253 3523 
Q 1550 3584 1831 3584 
Q 2591 3584 2966 3190 
Q 3341 2797 3341 1997 
z
" transform="scale(0.015625)"/>
      <path id="DejaVuSans-69" d="M 603 3500 
L 1178 3500 
L 1178 0 
L 603 0 
L 603 3500 
z
M 603 4863 
L 1178 4863 
L 1178 4134 
L 603 4134 
L 603 4863 
z
" transform="scale(0.015625)"/>
      <path id="DejaVuSans-6c" d="M 603 4863 
L 1178 4863 
L 1178 0 
L 603 0 
L 603 4863 
z
" transform="scale(0.015625)"/>
      <path id="DejaVuSans-79" d="M 2059 -325 
Q 1816 -950 1584 -1140 
Q 1353 -1331 966 -1331 
L 506 -1331 
L 506 -850 
L 844 -850 
Q 1081 -850 1212 -737 
Q 1344 -625 1503 -206 
L 1606 56 
L 191 3500 
L 800 3500 
L 1894 763 
L 2988 3500 
L 3597 3500 
L 2059 -325 
z
" transform="scale(0.015625)"/>
      <path id="DejaVuSans-20" transform="scale(0.015625)"/>
      <path id="DejaVuSans-43" d="M 4122 4306 
L 4122 3641 
Q 3803 3938 3442 4084 
Q 3081 4231 2675 4231 
Q 1875 4231 1450 3742 
Q 1025 3253 1025 2328 
Q 1025 1406 1450 917 
Q 1875 428 2675 428 
Q 3081 428 3442 575 
Q 3803 722 4122 1019 
L 4122 359 
Q 3791 134 3420 21 
Q 3050 -91 2638 -91 
Q 1578 -91 968 557 
Q 359 1206 359 2328 
Q 359 3453 968 4101 
Q 1578 4750 2638 4750 
Q 3056 4750 3426 4639 
Q 3797 4528 4122 4306 
z
" transform="scale(0.015625)"/>
      <path id="DejaVuSans-6f" d="M 1959 3097 
Q 1497 3097 1228 2736 
Q 959 2375 959 1747 
Q 959 1119 1226 758 
Q 1494 397 1959 397 
Q 2419 397 2687 759 
Q 2956 1122 2956 1747 
Q 2956 2369 2687 2733 
Q 2419 3097 1959 3097 
z
M 1959 3584 
Q 2709 3584 3137 3096 
Q 3566 2609 3566 1747 
Q 3566 888 3137 398 
Q 2709 -91 1959 -91 
Q 1206 -91 779 398 
Q 353 888 353 1747 
Q 353 2609 779 3096 
Q 1206 3584 1959 3584 
z
" transform="scale(0.015625)"/>
      <path id="DejaVuSans-6e" d="M 3513 2113 
L 3513 0 
L 2938 0 
L 2938 2094 
Q 2938 2591 2744 2837 
Q 2550 3084 2163 3084 
Q 1697 3084 1428 2787 
Q 1159 2491 1159 1978 
L 1159 0 
L 581 0 
L 581 3500 
L 1159 3500 
L 1159 2956 
Q 1366 3272 1645 3428 
Q 1925 3584 2291 3584 
Q 2894 3584 3203 3211 
Q 3513 2838 3513 2113 
z
" transform="scale(0.015625)"/>
      <path id="DejaVuSans-66" d="M 2375 4863 
L 2375 4384 
L 1825 4384 
Q 1516 4384 1395 4259 
Q 1275 4134 1275 3809 
L 1275 3500 
L 2222 3500 
L 2222 3053 
L 1275 3053 
L 1275 0 
L 697 0 
L 697 3053 
L 147 3053 
L 147 3500 
L 697 3500 
L 697 3744 
Q 697 4328 969 4595 
Q 1241 4863 1831 4863 
L 2375 4863 
z
" transform="scale(0.015625)"/>
      <path id="DejaVuSans-72" d="M 2631 2963 
Q 2534 3019 2420 3045 
Q 2306 3072 2169 3072 
Q 1681 3072 1420 2755 
Q 1159 2438 1159 1844 
L 1159 0 
L 581 0 
L 581 3500 
L 1159 3500 
L 1159 2956 
Q 1341 3275 1631 3429 
Q 1922 3584 2338 3584 
Q 2397 3584 2469 3576 
Q 2541 3569 2628 3553 
L 2631 2963 
z
" transform="scale(0.015625)"/>
      <path id="DejaVuSans-6d" d="M 3328 2828 
Q 3544 3216 3844 3400 
Q 4144 3584 4550 3584 
Q 5097 3584 5394 3201 
Q 5691 2819 5691 2113 
L 5691 0 
L 5113 0 
L 5113 2094 
Q 5113 2597 4934 2840 
Q 4756 3084 4391 3084 
Q 3944 3084 3684 2787 
Q 3425 2491 3425 1978 
L 3425 0 
L 2847 0 
L 2847 2094 
Q 2847 2600 2669 2842 
Q 2491 3084 2119 3084 
Q 1678 3084 1418 2786 
Q 1159 2488 1159 1978 
L 1159 0 
L 581 0 
L 581 3500 
L 1159 3500 
L 1159 2956 
Q 1356 3278 1631 3431 
Q 1906 3584 2284 3584 
Q 2666 3584 2933 3390 
Q 3200 3197 3328 2828 
z
" transform="scale(0.015625)"/>
      <path id="DejaVuSans-65" d="M 3597 1894 
L 3597 1613 
L 953 1613 
Q 991 1019 1311 708 
Q 1631 397 2203 397 
Q 2534 397 2845 478 
Q 3156 559 3463 722 
L 3463 178 
Q 3153 47 2828 -22 
Q 2503 -91 2169 -91 
Q 1331 -91 842 396 
Q 353 884 353 1716 
Q 353 2575 817 3079 
Q 1281 3584 2069 3584 
Q 2775 3584 3186 3129 
Q 3597 2675 3597 1894 
z
M 3022 2063 
Q 3016 2534 2758 2815 
Q 2500 3097 2075 3097 
Q 1594 3097 1305 2825 
Q 1016 2553 972 2059 
L 3022 2063 
z
" transform="scale(0.015625)"/>
      <path id="DejaVuSans-64" d="M 2906 2969 
L 2906 4863 
L 3481 4863 
L 3481 0 
L 2906 0 
L 2906 525 
Q 2725 213 2448 61 
Q 2172 -91 1784 -91 
Q 1150 -91 751 415 
Q 353 922 353 1747 
Q 353 2572 751 3078 
Q 1150 3584 1784 3584 
Q 2172 3584 2448 3432 
Q 2725 3281 2906 2969 
z
M 947 1747 
Q 947 1113 1208 752 
Q 1469 391 1925 391 
Q 2381 391 2643 752 
Q 2906 1113 2906 1747 
Q 2906 2381 2643 2742 
Q 2381 3103 1925 3103 
Q 1469 3103 1208 2742 
Q 947 2381 947 1747 
z
" transform="scale(0.015625)"/>
      <path id="DejaVuSans-73" d="M 2834 3397 
L 2834 2853 
Q 2591 2978 2328 3040 
Q 2066 3103 1784 3103 
Q 1356 3103 1142 2972 
Q 928 2841 928 2578 
Q 928 2378 1081 2264 
Q 1234 2150 1697 2047 
L 1894 2003 
Q 2506 1872 2764 1633 
Q 3022 1394 3022 966 
Q 3022 478 2636 193 
Q 2250 -91 1575 -91 
Q 1294 -91 989 -36 
Q 684 19 347 128 
L 347 722 
Q 666 556 975 473 
Q 1284 391 1588 391 
Q 1994 391 2212 530 
Q 2431 669 2431 922 
Q 2431 1156 2273 1281 
Q 2116 1406 1581 1522 
L 1381 1569 
Q 847 1681 609 1914 
Q 372 2147 372 2553 
Q 372 3047 722 3315 
Q 1072 3584 1716 3584 
Q 2034 3584 2315 3537 
Q 2597 3491 2834 3397 
z
" transform="scale(0.015625)"/>
      <path id="DejaVuSans-46" d="M 628 4666 
L 3309 4666 
L 3309 4134 
L 1259 4134 
L 1259 2759 
L 3109 2759 
L 3109 2228 
L 1259 2228 
L 1259 0 
L 628 0 
L 628 4666 
z
" transform="scale(0.015625)"/>
      <path id="DejaVuSans-63" d="M 3122 3366 
L 3122 2828 
Q 2878 2963 2633 3030 
Q 2388 3097 2138 3097 
Q 1578 3097 1268 2742 
Q 959 2388 959 1747 
Q 959 1106 1268 751 
Q 1578 397 2138 397 
Q 2388 397 2633 464 
Q 2878 531 3122 666 
L 3122 134 
Q 2881 22 2623 -34 
Q 2366 -91 2075 -91 
Q 1284 -91 818 406 
Q 353 903 353 1747 
Q 353 2603 823 3093 
Q 1294 3584 2113 3584 
Q 2378 3584 2631 3529 
Q 2884 3475 3122 3366 
z
" transform="scale(0.015625)"/>
      <path id="DejaVuSans-74" d="M 1172 4494 
L 1172 3500 
L 2356 3500 
L 2356 3053 
L 1172 3053 
L 1172 1153 
Q 1172 725 1289 603 
Q 1406 481 1766 481 
L 2356 481 
L 2356 0 
L 1766 0 
Q 1100 0 847 248 
Q 594 497 594 1153 
L 594 3053 
L 172 3053 
L 172 3500 
L 594 3500 
L 594 4494 
L 1172 4494 
z
" transform="scale(0.015625)"/>
      <path id="DejaVuSans-67" d="M 2906 1791 
Q 2906 2416 2648 2759 
Q 2391 3103 1925 3103 
Q 1463 3103 1205 2759 
Q 947 2416 947 1791 
Q 947 1169 1205 825 
Q 1463 481 1925 481 
Q 2391 481 2648 825 
Q 2906 1169 2906 1791 
z
M 3481 434 
Q 3481 -459 3084 -895 
Q 2688 -1331 1869 -1331 
Q 1566 -1331 1297 -1286 
Q 1028 -1241 775 -1147 
L 775 -588 
Q 1028 -725 1275 -790 
Q 1522 -856 1778 -856 
Q 2344 -856 2625 -561 
Q 2906 -266 2906 331 
L 2906 616 
Q 2728 306 2450 153 
Q 2172 0 1784 0 
Q 1141 0 747 490 
Q 353 981 353 1791 
Q 353 2603 747 3093 
Q 1141 3584 1784 3584 
Q 2172 3584 2450 3431 
Q 2728 3278 2906 2969 
L 2906 3500 
L 3481 3500 
L 3481 434 
z
" transform="scale(0.015625)"/>
      <path id="DejaVuSans-49" d="M 628 4666 
L 1259 4666 
L 1259 0 
L 628 0 
L 628 4666 
z
" transform="scale(0.015625)"/>
      <path id="DejaVuSans-68" d="M 3513 2113 
L 3513 0 
L 2938 0 
L 2938 2094 
Q 2938 2591 2744 2837 
Q 2550 3084 2163 3084 
Q 1697 3084 1428 2787 
Q 1159 2491 1159 1978 
L 1159 0 
L 581 0 
L 581 4863 
L 1159 4863 
L 1159 2956 
Q 1366 3272 1645 3428 
Q 1925 3584 2291 3584 
Q 2894 3584 3203 3211 
Q 3513 2838 3513 2113 
z
" transform="scale(0.015625)"/>
     </defs>
     <use xlink:href="#DejaVuSans-44"/>
     <use xlink:href="#DejaVuSans-61" x="77.001953"/>
     <use xlink:href="#DejaVuSans-69" x="138.28125"/>
     <use xlink:href="#DejaVuSans-6c" x="166.064453"/>
     <use xlink:href="#DejaVuSans-79" x="193.847656"/>
     <use xlink:href="#DejaVuSans-20" x="253.027344"/>
     <use xlink:href="#DejaVuSans-43" x="284.814453"/>
     <use xlink:href="#DejaVuSans-6f" x="354.638672"/>
     <use xlink:href="#DejaVuSans-6e" x="415.820312"/>
     <use xlink:href="#DejaVuSans-66" x="479.199219"/>
     <use xlink:href="#DejaVuSans-69" x="514.404297"/>
     <use xlink:href="#DejaVuSans-72" x="542.1875"/>
     <use xlink:href="#DejaVuSans-6d" x="581.550781"/>
     <use xlink:href="#DejaVuSans-65" x="678.962891"/>
     <use xlink:href="#DejaVuSans-64" x="740.486328"/>
     <use xlink:href="#DejaVuSans-20" x="803.962891"/>
     <use xlink:href="#DejaVuSans-43" x="835.75"/>
     <use xlink:href="#DejaVuSans-61" x="905.574219"/>
     <use xlink:href="#DejaVuSans-73" x="966.853516"/>
     <use xlink:href="#DejaVuSans-65" x="1018.953125"/>
     <use xlink:href="#DejaVuSans-73" x="1080.476562"/>
     <use xlink:href="#DejaVuSans-20" x="1132.576172"/>
     <use xlink:href="#DejaVuSans-46" x="1164.363281"/>
     <use xlink:href="#DejaVuSans-6f" x="1218.257812"/>
     <use xlink:href="#DejaVuSans-72" x="1279.439453"/>
     <use xlink:href="#DejaVuSans-65" x="1318.302734"/>
     <use xlink:href="#DejaVuSans-63" x="1379.826172"/>
     <use xlink:href="#DejaVuSans-61" x="1434.806641"/>
     <use xlink:href="#DejaVuSans-73" x="1496.085938"/>
     <use xlink:href="#DejaVuSans-74" x="1548.185547"/>
     <use xlink:href="#DejaVuSans-69" x="1587.394531"/>
     <use xlink:href="#DejaVuSans-6e" x="1615.177734"/>
     <use xlink:href="#DejaVuSans-67" x="1678.556641"/>
     <use xlink:href="#DejaVuSans-20" x="1742.033203"/>
     <use xlink:href="#DejaVuSans-2d" x="1773.820312"/>
     <use xlink:href="#DejaVuSans-20" x="1809.904297"/>
     <use xlink:href="#DejaVuSans-49" x="1841.691406"/>
     <use xlink:href="#DejaVuSans-64" x="1871.183594"/>
     <use xlink:href="#DejaVuSans-61" x="1934.660156"/>
     <use xlink:href="#DejaVuSans-68" x="1995.939453"/>
     <use xlink:href="#DejaVuSans-6f" x="2059.318359"/>
    </g>
    <!-- ARIMA (4, 1, 1)x(1, 0, 1, 7) (R2 = 0.585689) -->
    <g transform="translate(577.265938 29.7555)scale(0.12 -0.12)">
     <defs>
      <path id="DejaVuSans-41" d="M 2188 4044 
L 1331 1722 
L 3047 1722 
L 2188 4044 
z
M 1831 4666 
L 2547 4666 
L 4325 0 
L 3669 0 
L 3244 1197 
L 1141 1197 
L 716 0 
L 50 0 
L 1831 4666 
z
" transform="scale(0.015625)"/>
      <path id="DejaVuSans-52" d="M 2841 2188 
Q 3044 2119 3236 1894 
Q 3428 1669 3622 1275 
L 4263 0 
L 3584 0 
L 2988 1197 
Q 2756 1666 2539 1819 
Q 2322 1972 1947 1972 
L 1259 1972 
L 1259 0 
L 628 0 
L 628 4666 
L 2053 4666 
Q 2853 4666 3247 4331 
Q 3641 3997 3641 3322 
Q 3641 2881 3436 2590 
Q 3231 2300 2841 2188 
z
M 1259 4147 
L 1259 2491 
L 2053 2491 
Q 2509 2491 2742 2702 
Q 2975 2913 2975 3322 
Q 2975 3731 2742 3939 
Q 2509 4147 2053 4147 
L 1259 4147 
z
" transform="scale(0.015625)"/>
      <path id="DejaVuSans-4d" d="M 628 4666 
L 1569 4666 
L 2759 1491 
L 3956 4666 
L 4897 4666 
L 4897 0 
L 4281 0 
L 4281 4097 
L 3078 897 
L 2444 897 
L 1241 4097 
L 1241 0 
L 628 0 
L 628 4666 
z
" transform="scale(0.015625)"/>
      <path id="DejaVuSans-28" d="M 1984 4856 
Q 1566 4138 1362 3434 
Q 1159 2731 1159 2009 
Q 1159 1288 1364 580 
Q 1569 -128 1984 -844 
L 1484 -844 
Q 1016 -109 783 600 
Q 550 1309 550 2009 
Q 550 2706 781 3412 
Q 1013 4119 1484 4856 
L 1984 4856 
z
" transform="scale(0.015625)"/>
      <path id="DejaVuSans-2c" d="M 750 794 
L 1409 794 
L 1409 256 
L 897 -744 
L 494 -744 
L 750 256 
L 750 794 
z
" transform="scale(0.015625)"/>
      <path id="DejaVuSans-29" d="M 513 4856 
L 1013 4856 
Q 1481 4119 1714 3412 
Q 1947 2706 1947 2009 
Q 1947 1309 1714 600 
Q 1481 -109 1013 -844 
L 513 -844 
Q 928 -128 1133 580 
Q 1338 1288 1338 2009 
Q 1338 2731 1133 3434 
Q 928 4138 513 4856 
z
" transform="scale(0.015625)"/>
      <path id="DejaVuSans-78" d="M 3513 3500 
L 2247 1797 
L 3578 0 
L 2900 0 
L 1881 1375 
L 863 0 
L 184 0 
L 1544 1831 
L 300 3500 
L 978 3500 
L 1906 2253 
L 2834 3500 
L 3513 3500 
z
" transform="scale(0.015625)"/>
      <path id="DejaVuSans-3d" d="M 678 2906 
L 4684 2906 
L 4684 2381 
L 678 2381 
L 678 2906 
z
M 678 1631 
L 4684 1631 
L 4684 1100 
L 678 1100 
L 678 1631 
z
" transform="scale(0.015625)"/>
      <path id="DejaVuSans-2e" d="M 684 794 
L 1344 794 
L 1344 0 
L 684 0 
L 684 794 
z
" transform="scale(0.015625)"/>
      <path id="DejaVuSans-35" d="M 691 4666 
L 3169 4666 
L 3169 4134 
L 1269 4134 
L 1269 2991 
Q 1406 3038 1543 3061 
Q 1681 3084 1819 3084 
Q 2600 3084 3056 2656 
Q 3513 2228 3513 1497 
Q 3513 744 3044 326 
Q 2575 -91 1722 -91 
Q 1428 -91 1123 -41 
Q 819 9 494 109 
L 494 744 
Q 775 591 1075 516 
Q 1375 441 1709 441 
Q 2250 441 2565 725 
Q 2881 1009 2881 1497 
Q 2881 1984 2565 2268 
Q 2250 2553 1709 2553 
Q 1456 2553 1204 2497 
Q 953 2441 691 2322 
L 691 4666 
z
" transform="scale(0.015625)"/>
      <path id="DejaVuSans-38" d="M 2034 2216 
Q 1584 2216 1326 1975 
Q 1069 1734 1069 1313 
Q 1069 891 1326 650 
Q 1584 409 2034 409 
Q 2484 409 2743 651 
Q 3003 894 3003 1313 
Q 3003 1734 2745 1975 
Q 2488 2216 2034 2216 
z
M 1403 2484 
Q 997 2584 770 2862 
Q 544 3141 544 3541 
Q 544 4100 942 4425 
Q 1341 4750 2034 4750 
Q 2731 4750 3128 4425 
Q 3525 4100 3525 3541 
Q 3525 3141 3298 2862 
Q 3072 2584 2669 2484 
Q 3125 2378 3379 2068 
Q 3634 1759 3634 1313 
Q 3634 634 3220 271 
Q 2806 -91 2034 -91 
Q 1263 -91 848 271 
Q 434 634 434 1313 
Q 434 1759 690 2068 
Q 947 2378 1403 2484 
z
M 1172 3481 
Q 1172 3119 1398 2916 
Q 1625 2713 2034 2713 
Q 2441 2713 2670 2916 
Q 2900 3119 2900 3481 
Q 2900 3844 2670 4047 
Q 2441 4250 2034 4250 
Q 1625 4250 1398 4047 
Q 1172 3844 1172 3481 
z
" transform="scale(0.015625)"/>
      <path id="DejaVuSans-36" d="M 2113 2584 
Q 1688 2584 1439 2293 
Q 1191 2003 1191 1497 
Q 1191 994 1439 701 
Q 1688 409 2113 409 
Q 2538 409 2786 701 
Q 3034 994 3034 1497 
Q 3034 2003 2786 2293 
Q 2538 2584 2113 2584 
z
M 3366 4563 
L 3366 3988 
Q 3128 4100 2886 4159 
Q 2644 4219 2406 4219 
Q 1781 4219 1451 3797 
Q 1122 3375 1075 2522 
Q 1259 2794 1537 2939 
Q 1816 3084 2150 3084 
Q 2853 3084 3261 2657 
Q 3669 2231 3669 1497 
Q 3669 778 3244 343 
Q 2819 -91 2113 -91 
Q 1303 -91 875 529 
Q 447 1150 447 2328 
Q 447 3434 972 4092 
Q 1497 4750 2381 4750 
Q 2619 4750 2861 4703 
Q 3103 4656 3366 4563 
z
" transform="scale(0.015625)"/>
      <path id="DejaVuSans-39" d="M 703 97 
L 703 672 
Q 941 559 1184 500 
Q 1428 441 1663 441 
Q 2288 441 2617 861 
Q 2947 1281 2994 2138 
Q 2813 1869 2534 1725 
Q 2256 1581 1919 1581 
Q 1219 1581 811 2004 
Q 403 2428 403 3163 
Q 403 3881 828 4315 
Q 1253 4750 1959 4750 
Q 2769 4750 3195 4129 
Q 3622 3509 3622 2328 
Q 3622 1225 3098 567 
Q 2575 -91 1691 -91 
Q 1453 -91 1209 -44 
Q 966 3 703 97 
z
M 1959 2075 
Q 2384 2075 2632 2365 
Q 2881 2656 2881 3163 
Q 2881 3666 2632 3958 
Q 2384 4250 1959 4250 
Q 1534 4250 1286 3958 
Q 1038 3666 1038 3163 
Q 1038 2656 1286 2365 
Q 1534 2075 1959 2075 
z
" transform="scale(0.015625)"/>
     </defs>
     <use xlink:href="#DejaVuSans-41"/>
     <use xlink:href="#DejaVuSans-52" x="68.408203"/>
     <use xlink:href="#DejaVuSans-49" x="137.890625"/>
     <use xlink:href="#DejaVuSans-4d" x="167.382812"/>
     <use xlink:href="#DejaVuSans-41" x="253.662109"/>
     <use xlink:href="#DejaVuSans-20" x="322.070312"/>
     <use xlink:href="#DejaVuSans-28" x="353.857422"/>
     <use xlink:href="#DejaVuSans-34" x="392.871094"/>
     <use xlink:href="#DejaVuSans-2c" x="456.494141"/>
     <use xlink:href="#DejaVuSans-20" x="488.28125"/>
     <use xlink:href="#DejaVuSans-31" x="520.068359"/>
     <use xlink:href="#DejaVuSans-2c" x="583.691406"/>
     <use xlink:href="#DejaVuSans-20" x="615.478516"/>
     <use xlink:href="#DejaVuSans-31" x="647.265625"/>
     <use xlink:href="#DejaVuSans-29" x="710.888672"/>
     <use xlink:href="#DejaVuSans-78" x="749.902344"/>
     <use xlink:href="#DejaVuSans-28" x="809.082031"/>
     <use xlink:href="#DejaVuSans-31" x="848.095703"/>
     <use xlink:href="#DejaVuSans-2c" x="911.71875"/>
     <use xlink:href="#DejaVuSans-20" x="943.505859"/>
     <use xlink:href="#DejaVuSans-30" x="975.292969"/>
     <use xlink:href="#DejaVuSans-2c" x="1038.916016"/>
     <use xlink:href="#DejaVuSans-20" x="1070.703125"/>
     <use xlink:href="#DejaVuSans-31" x="1102.490234"/>
     <use xlink:href="#DejaVuSans-2c" x="1166.113281"/>
     <use xlink:href="#DejaVuSans-20" x="1197.900391"/>
     <use xlink:href="#DejaVuSans-37" x="1229.6875"/>
     <use xlink:href="#DejaVuSans-29" x="1293.310547"/>
     <use xlink:href="#DejaVuSans-20" x="1332.324219"/>
     <use xlink:href="#DejaVuSans-28" x="1364.111328"/>
     <use xlink:href="#DejaVuSans-52" x="1403.125"/>
     <use xlink:href="#DejaVuSans-32" x="1472.607422"/>
     <use xlink:href="#DejaVuSans-20" x="1536.230469"/>
     <use xlink:href="#DejaVuSans-3d" x="1568.017578"/>
     <use xlink:href="#DejaVuSans-20" x="1651.806641"/>
     <use xlink:href="#DejaVuSans-30" x="1683.59375"/>
     <use xlink:href="#DejaVuSans-2e" x="1747.216797"/>
     <use xlink:href="#DejaVuSans-35" x="1779.003906"/>
     <use xlink:href="#DejaVuSans-38" x="1842.626953"/>
     <use xlink:href="#DejaVuSans-35" x="1906.25"/>
     <use xlink:href="#DejaVuSans-36" x="1969.873047"/>
     <use xlink:href="#DejaVuSans-38" x="2033.496094"/>
     <use xlink:href="#DejaVuSans-39" x="2097.119141"/>
     <use xlink:href="#DejaVuSans-29" x="2160.742188"/>
    </g>
   </g>
   <g id="legend_1">
    <g id="patch_7">
     <path d="M 1274.770313 87.789875 
L 1371.85 87.789875 
Q 1373.85 87.789875 1373.85 85.789875 
L 1373.85 42.7555 
Q 1373.85 40.7555 1371.85 40.7555 
L 1274.770313 40.7555 
Q 1272.770313 40.7555 1272.770313 42.7555 
L 1272.770313 85.789875 
Q 1272.770313 87.789875 1274.770313 87.789875 
z
" style="fill: #ffffff; opacity: 0.8; stroke: #cccccc; stroke-linejoin: miter"/>
    </g>
    <g id="line2d_20">
     <path d="M 1276.770313 48.853937 
L 1286.770313 48.853937 
L 1296.770313 48.853937 
" style="fill: none; stroke: #0000ff; stroke-width: 1.5; stroke-linecap: square"/>
    </g>
    <g id="text_18">
     <!-- Actual Value -->
     <g transform="translate(1304.770313 52.353937)scale(0.1 -0.1)">
      <defs>
       <path id="DejaVuSans-75" d="M 544 1381 
L 544 3500 
L 1119 3500 
L 1119 1403 
Q 1119 906 1312 657 
Q 1506 409 1894 409 
Q 2359 409 2629 706 
Q 2900 1003 2900 1516 
L 2900 3500 
L 3475 3500 
L 3475 0 
L 2900 0 
L 2900 538 
Q 2691 219 2414 64 
Q 2138 -91 1772 -91 
Q 1169 -91 856 284 
Q 544 659 544 1381 
z
M 1991 3584 
L 1991 3584 
z
" transform="scale(0.015625)"/>
       <path id="DejaVuSans-56" d="M 1831 0 
L 50 4666 
L 709 4666 
L 2188 738 
L 3669 4666 
L 4325 4666 
L 2547 0 
L 1831 0 
z
" transform="scale(0.015625)"/>
      </defs>
      <use xlink:href="#DejaVuSans-41"/>
      <use xlink:href="#DejaVuSans-63" x="66.658203"/>
      <use xlink:href="#DejaVuSans-74" x="121.638672"/>
      <use xlink:href="#DejaVuSans-75" x="160.847656"/>
      <use xlink:href="#DejaVuSans-61" x="224.226562"/>
      <use xlink:href="#DejaVuSans-6c" x="285.505859"/>
      <use xlink:href="#DejaVuSans-20" x="313.289062"/>
      <use xlink:href="#DejaVuSans-56" x="345.076172"/>
      <use xlink:href="#DejaVuSans-61" x="405.734375"/>
      <use xlink:href="#DejaVuSans-6c" x="467.013672"/>
      <use xlink:href="#DejaVuSans-75" x="494.796875"/>
      <use xlink:href="#DejaVuSans-65" x="558.175781"/>
     </g>
    </g>
    <g id="line2d_21">
     <path d="M 1276.770313 63.532062 
L 1286.770313 63.532062 
L 1296.770313 63.532062 
" style="fill: none; stroke: #ffa500; stroke-width: 1.5; stroke-linecap: square"/>
    </g>
    <g id="text_19">
     <!-- Check Value -->
     <g transform="translate(1304.770313 67.032062)scale(0.1 -0.1)">
      <defs>
       <path id="DejaVuSans-6b" d="M 581 4863 
L 1159 4863 
L 1159 1991 
L 2875 3500 
L 3609 3500 
L 1753 1863 
L 3688 0 
L 2938 0 
L 1159 1709 
L 1159 0 
L 581 0 
L 581 4863 
z
" transform="scale(0.015625)"/>
      </defs>
      <use xlink:href="#DejaVuSans-43"/>
      <use xlink:href="#DejaVuSans-68" x="69.824219"/>
      <use xlink:href="#DejaVuSans-65" x="133.203125"/>
      <use xlink:href="#DejaVuSans-63" x="194.726562"/>
      <use xlink:href="#DejaVuSans-6b" x="249.707031"/>
      <use xlink:href="#DejaVuSans-20" x="307.617188"/>
      <use xlink:href="#DejaVuSans-56" x="339.404297"/>
      <use xlink:href="#DejaVuSans-61" x="400.0625"/>
      <use xlink:href="#DejaVuSans-6c" x="461.341797"/>
      <use xlink:href="#DejaVuSans-75" x="489.125"/>
      <use xlink:href="#DejaVuSans-65" x="552.503906"/>
     </g>
    </g>
    <g id="line2d_22">
     <path d="M 1276.770313 78.210187 
L 1286.770313 78.210187 
L 1296.770313 78.210187 
" style="fill: none; stroke: #ff0000; stroke-width: 1.5; stroke-linecap: square"/>
    </g>
    <g id="text_20">
     <!-- Predict Value -->
     <g transform="translate(1304.770313 81.710187)scale(0.1 -0.1)">
      <defs>
       <path id="DejaVuSans-50" d="M 1259 4147 
L 1259 2394 
L 2053 2394 
Q 2494 2394 2734 2622 
Q 2975 2850 2975 3272 
Q 2975 3691 2734 3919 
Q 2494 4147 2053 4147 
L 1259 4147 
z
M 628 4666 
L 2053 4666 
Q 2838 4666 3239 4311 
Q 3641 3956 3641 3272 
Q 3641 2581 3239 2228 
Q 2838 1875 2053 1875 
L 1259 1875 
L 1259 0 
L 628 0 
L 628 4666 
z
" transform="scale(0.015625)"/>
      </defs>
      <use xlink:href="#DejaVuSans-50"/>
      <use xlink:href="#DejaVuSans-72" x="58.552734"/>
      <use xlink:href="#DejaVuSans-65" x="97.416016"/>
      <use xlink:href="#DejaVuSans-64" x="158.939453"/>
      <use xlink:href="#DejaVuSans-69" x="222.416016"/>
      <use xlink:href="#DejaVuSans-63" x="250.199219"/>
      <use xlink:href="#DejaVuSans-74" x="305.179688"/>
      <use xlink:href="#DejaVuSans-20" x="344.388672"/>
      <use xlink:href="#DejaVuSans-56" x="376.175781"/>
      <use xlink:href="#DejaVuSans-61" x="436.833984"/>
      <use xlink:href="#DejaVuSans-6c" x="498.113281"/>
      <use xlink:href="#DejaVuSans-75" x="525.896484"/>
      <use xlink:href="#DejaVuSans-65" x="589.275391"/>
     </g>
    </g>
   </g>
  </g>
 </g>
 <defs>
  <clipPath id="p715eb78270">
   <rect x="39.65" y="35.7555" width="1339.2" height="332.64"/>
  </clipPath>
 </defs>
</svg>
