<?xml version="1.0" encoding="utf-8" standalone="no"?>
<!DOCTYPE svg PUBLIC "-//W3C//DTD SVG 1.1//EN"
  "http://www.w3.org/Graphics/SVG/1.1/DTD/svg11.dtd">
<svg xmlns:xlink="http://www.w3.org/1999/xlink" width="1394.429688pt" height="392.273625pt" viewBox="0 0 1394.429688 392.273625" xmlns="http://www.w3.org/2000/svg" version="1.1">
 <metadata>
  <rdf:RDF xmlns:dc="http://purl.org/dc/elements/1.1/" xmlns:cc="http://creativecommons.org/ns#" xmlns:rdf="http://www.w3.org/1999/02/22-rdf-syntax-ns#">
   <cc:Work>
    <dc:type rdf:resource="http://purl.org/dc/dcmitype/StillImage"/>
    <dc:date>2022-07-24T17:21:14.193009</dc:date>
    <dc:format>image/svg+xml</dc:format>
    <dc:creator>
     <cc:Agent>
      <dc:title>Matplotlib v3.5.2, https://matplotlib.org/</dc:title>
     </cc:Agent>
    </dc:creator>
   </cc:Work>
  </rdf:RDF>
 </metadata>
 <defs>
  <style type="text/css">*{stroke-linejoin: round; stroke-linecap: butt}</style>
 </defs>
 <g id="figure_1">
  <g id="patch_1">
   <path d="M 0 392.273625 
L 1394.429688 392.273625 
L 1394.429688 0 
L 0 0 
z
" style="fill: #ffffff"/>
  </g>
  <g id="axes_1">
   <g id="patch_2">
    <path d="M 48.029688 368.3955 
L 1387.229688 368.3955 
L 1387.229688 35.7555 
L 48.029688 35.7555 
z
" style="fill: #ffffff"/>
   </g>
   <g id="matplotlib.axis_1">
    <g id="xtick_1">
     <g id="line2d_1">
      <defs>
       <path id="m8cdfcfb926" d="M 0 0 
L 0 3.5 
" style="stroke: #000000; stroke-width: 0.8"/>
      </defs>
      <g>
       <use xlink:href="#m8cdfcfb926" x="79.946739" y="368.3955" style="stroke: #000000; stroke-width: 0.8"/>
      </g>
     </g>
     <g id="text_1">
      <!-- 2020-01 -->
      <g transform="translate(59.055333 382.993937)scale(0.1 -0.1)">
       <defs>
        <path id="DejaVuSans-32" d="M 1228 531 
L 3431 531 
L 3431 0 
L 469 0 
L 469 531 
Q 828 903 1448 1529 
Q 2069 2156 2228 2338 
Q 2531 2678 2651 2914 
Q 2772 3150 2772 3378 
Q 2772 3750 2511 3984 
Q 2250 4219 1831 4219 
Q 1534 4219 1204 4116 
Q 875 4013 500 3803 
L 500 4441 
Q 881 4594 1212 4672 
Q 1544 4750 1819 4750 
Q 2544 4750 2975 4387 
Q 3406 4025 3406 3419 
Q 3406 3131 3298 2873 
Q 3191 2616 2906 2266 
Q 2828 2175 2409 1742 
Q 1991 1309 1228 531 
z
" transform="scale(0.015625)"/>
        <path id="DejaVuSans-30" d="M 2034 4250 
Q 1547 4250 1301 3770 
Q 1056 3291 1056 2328 
Q 1056 1369 1301 889 
Q 1547 409 2034 409 
Q 2525 409 2770 889 
Q 3016 1369 3016 2328 
Q 3016 3291 2770 3770 
Q 2525 4250 2034 4250 
z
M 2034 4750 
Q 2819 4750 3233 4129 
Q 3647 3509 3647 2328 
Q 3647 1150 3233 529 
Q 2819 -91 2034 -91 
Q 1250 -91 836 529 
Q 422 1150 422 2328 
Q 422 3509 836 4129 
Q 1250 4750 2034 4750 
z
" transform="scale(0.015625)"/>
        <path id="DejaVuSans-2d" d="M 313 2009 
L 1997 2009 
L 1997 1497 
L 313 1497 
L 313 2009 
z
" transform="scale(0.015625)"/>
        <path id="DejaVuSans-31" d="M 794 531 
L 1825 531 
L 1825 4091 
L 703 3866 
L 703 4441 
L 1819 4666 
L 2450 4666 
L 2450 531 
L 3481 531 
L 3481 0 
L 794 0 
L 794 531 
z
" transform="scale(0.015625)"/>
       </defs>
       <use xlink:href="#DejaVuSans-32"/>
       <use xlink:href="#DejaVuSans-30" x="63.623047"/>
       <use xlink:href="#DejaVuSans-32" x="127.246094"/>
       <use xlink:href="#DejaVuSans-30" x="190.869141"/>
       <use xlink:href="#DejaVuSans-2d" x="254.492188"/>
       <use xlink:href="#DejaVuSans-30" x="290.576172"/>
       <use xlink:href="#DejaVuSans-31" x="354.199219"/>
      </g>
     </g>
    </g>
    <g id="xtick_2">
     <g id="line2d_2">
      <g>
       <use xlink:href="#m8cdfcfb926" x="199.717943" y="368.3955" style="stroke: #000000; stroke-width: 0.8"/>
      </g>
     </g>
     <g id="text_2">
      <!-- 2020-04 -->
      <g transform="translate(178.826537 382.993937)scale(0.1 -0.1)">
       <defs>
        <path id="DejaVuSans-34" d="M 2419 4116 
L 825 1625 
L 2419 1625 
L 2419 4116 
z
M 2253 4666 
L 3047 4666 
L 3047 1625 
L 3713 1625 
L 3713 1100 
L 3047 1100 
L 3047 0 
L 2419 0 
L 2419 1100 
L 313 1100 
L 313 1709 
L 2253 4666 
z
" transform="scale(0.015625)"/>
       </defs>
       <use xlink:href="#DejaVuSans-32"/>
       <use xlink:href="#DejaVuSans-30" x="63.623047"/>
       <use xlink:href="#DejaVuSans-32" x="127.246094"/>
       <use xlink:href="#DejaVuSans-30" x="190.869141"/>
       <use xlink:href="#DejaVuSans-2d" x="254.492188"/>
       <use xlink:href="#DejaVuSans-30" x="290.576172"/>
       <use xlink:href="#DejaVuSans-34" x="354.199219"/>
      </g>
     </g>
    </g>
    <g id="xtick_3">
     <g id="line2d_3">
      <g>
       <use xlink:href="#m8cdfcfb926" x="319.489147" y="368.3955" style="stroke: #000000; stroke-width: 0.8"/>
      </g>
     </g>
     <g id="text_3">
      <!-- 2020-07 -->
      <g transform="translate(298.597741 382.993937)scale(0.1 -0.1)">
       <defs>
        <path id="DejaVuSans-37" d="M 525 4666 
L 3525 4666 
L 3525 4397 
L 1831 0 
L 1172 0 
L 2766 4134 
L 525 4134 
L 525 4666 
z
" transform="scale(0.015625)"/>
       </defs>
       <use xlink:href="#DejaVuSans-32"/>
       <use xlink:href="#DejaVuSans-30" x="63.623047"/>
       <use xlink:href="#DejaVuSans-32" x="127.246094"/>
       <use xlink:href="#DejaVuSans-30" x="190.869141"/>
       <use xlink:href="#DejaVuSans-2d" x="254.492188"/>
       <use xlink:href="#DejaVuSans-30" x="290.576172"/>
       <use xlink:href="#DejaVuSans-37" x="354.199219"/>
      </g>
     </g>
    </g>
    <g id="xtick_4">
     <g id="line2d_4">
      <g>
       <use xlink:href="#m8cdfcfb926" x="440.576518" y="368.3955" style="stroke: #000000; stroke-width: 0.8"/>
      </g>
     </g>
     <g id="text_4">
      <!-- 2020-10 -->
      <g transform="translate(419.685112 382.993937)scale(0.1 -0.1)">
       <use xlink:href="#DejaVuSans-32"/>
       <use xlink:href="#DejaVuSans-30" x="63.623047"/>
       <use xlink:href="#DejaVuSans-32" x="127.246094"/>
       <use xlink:href="#DejaVuSans-30" x="190.869141"/>
       <use xlink:href="#DejaVuSans-2d" x="254.492188"/>
       <use xlink:href="#DejaVuSans-31" x="290.576172"/>
       <use xlink:href="#DejaVuSans-30" x="354.199219"/>
      </g>
     </g>
    </g>
    <g id="xtick_5">
     <g id="line2d_5">
      <g>
       <use xlink:href="#m8cdfcfb926" x="561.663889" y="368.3955" style="stroke: #000000; stroke-width: 0.8"/>
      </g>
     </g>
     <g id="text_5">
      <!-- 2021-01 -->
      <g transform="translate(540.772483 382.993937)scale(0.1 -0.1)">
       <use xlink:href="#DejaVuSans-32"/>
       <use xlink:href="#DejaVuSans-30" x="63.623047"/>
       <use xlink:href="#DejaVuSans-32" x="127.246094"/>
       <use xlink:href="#DejaVuSans-31" x="190.869141"/>
       <use xlink:href="#DejaVuSans-2d" x="254.492188"/>
       <use xlink:href="#DejaVuSans-30" x="290.576172"/>
       <use xlink:href="#DejaVuSans-31" x="354.199219"/>
      </g>
     </g>
    </g>
    <g id="xtick_6">
     <g id="line2d_6">
      <g>
       <use xlink:href="#m8cdfcfb926" x="680.118926" y="368.3955" style="stroke: #000000; stroke-width: 0.8"/>
      </g>
     </g>
     <g id="text_6">
      <!-- 2021-04 -->
      <g transform="translate(659.22752 382.993937)scale(0.1 -0.1)">
       <use xlink:href="#DejaVuSans-32"/>
       <use xlink:href="#DejaVuSans-30" x="63.623047"/>
       <use xlink:href="#DejaVuSans-32" x="127.246094"/>
       <use xlink:href="#DejaVuSans-31" x="190.869141"/>
       <use xlink:href="#DejaVuSans-2d" x="254.492188"/>
       <use xlink:href="#DejaVuSans-30" x="290.576172"/>
       <use xlink:href="#DejaVuSans-34" x="354.199219"/>
      </g>
     </g>
    </g>
    <g id="xtick_7">
     <g id="line2d_7">
      <g>
       <use xlink:href="#m8cdfcfb926" x="799.89013" y="368.3955" style="stroke: #000000; stroke-width: 0.8"/>
      </g>
     </g>
     <g id="text_7">
      <!-- 2021-07 -->
      <g transform="translate(778.998724 382.993937)scale(0.1 -0.1)">
       <use xlink:href="#DejaVuSans-32"/>
       <use xlink:href="#DejaVuSans-30" x="63.623047"/>
       <use xlink:href="#DejaVuSans-32" x="127.246094"/>
       <use xlink:href="#DejaVuSans-31" x="190.869141"/>
       <use xlink:href="#DejaVuSans-2d" x="254.492188"/>
       <use xlink:href="#DejaVuSans-30" x="290.576172"/>
       <use xlink:href="#DejaVuSans-37" x="354.199219"/>
      </g>
     </g>
    </g>
    <g id="xtick_8">
     <g id="line2d_8">
      <g>
       <use xlink:href="#m8cdfcfb926" x="920.977501" y="368.3955" style="stroke: #000000; stroke-width: 0.8"/>
      </g>
     </g>
     <g id="text_8">
      <!-- 2021-10 -->
      <g transform="translate(900.086095 382.993937)scale(0.1 -0.1)">
       <use xlink:href="#DejaVuSans-32"/>
       <use xlink:href="#DejaVuSans-30" x="63.623047"/>
       <use xlink:href="#DejaVuSans-32" x="127.246094"/>
       <use xlink:href="#DejaVuSans-31" x="190.869141"/>
       <use xlink:href="#DejaVuSans-2d" x="254.492188"/>
       <use xlink:href="#DejaVuSans-31" x="290.576172"/>
       <use xlink:href="#DejaVuSans-30" x="354.199219"/>
      </g>
     </g>
    </g>
    <g id="xtick_9">
     <g id="line2d_9">
      <g>
       <use xlink:href="#m8cdfcfb926" x="1042.064872" y="368.3955" style="stroke: #000000; stroke-width: 0.8"/>
      </g>
     </g>
     <g id="text_9">
      <!-- 2022-01 -->
      <g transform="translate(1021.173466 382.993937)scale(0.1 -0.1)">
       <use xlink:href="#DejaVuSans-32"/>
       <use xlink:href="#DejaVuSans-30" x="63.623047"/>
       <use xlink:href="#DejaVuSans-32" x="127.246094"/>
       <use xlink:href="#DejaVuSans-32" x="190.869141"/>
       <use xlink:href="#DejaVuSans-2d" x="254.492188"/>
       <use xlink:href="#DejaVuSans-30" x="290.576172"/>
       <use xlink:href="#DejaVuSans-31" x="354.199219"/>
      </g>
     </g>
    </g>
    <g id="xtick_10">
     <g id="line2d_10">
      <g>
       <use xlink:href="#m8cdfcfb926" x="1160.519909" y="368.3955" style="stroke: #000000; stroke-width: 0.8"/>
      </g>
     </g>
     <g id="text_10">
      <!-- 2022-04 -->
      <g transform="translate(1139.628502 382.993937)scale(0.1 -0.1)">
       <use xlink:href="#DejaVuSans-32"/>
       <use xlink:href="#DejaVuSans-30" x="63.623047"/>
       <use xlink:href="#DejaVuSans-32" x="127.246094"/>
       <use xlink:href="#DejaVuSans-32" x="190.869141"/>
       <use xlink:href="#DejaVuSans-2d" x="254.492188"/>
       <use xlink:href="#DejaVuSans-30" x="290.576172"/>
       <use xlink:href="#DejaVuSans-34" x="354.199219"/>
      </g>
     </g>
    </g>
    <g id="xtick_11">
     <g id="line2d_11">
      <g>
       <use xlink:href="#m8cdfcfb926" x="1280.291113" y="368.3955" style="stroke: #000000; stroke-width: 0.8"/>
      </g>
     </g>
     <g id="text_11">
      <!-- 2022-07 -->
      <g transform="translate(1259.399706 382.993937)scale(0.1 -0.1)">
       <use xlink:href="#DejaVuSans-32"/>
       <use xlink:href="#DejaVuSans-30" x="63.623047"/>
       <use xlink:href="#DejaVuSans-32" x="127.246094"/>
       <use xlink:href="#DejaVuSans-32" x="190.869141"/>
       <use xlink:href="#DejaVuSans-2d" x="254.492188"/>
       <use xlink:href="#DejaVuSans-30" x="290.576172"/>
       <use xlink:href="#DejaVuSans-37" x="354.199219"/>
      </g>
     </g>
    </g>
   </g>
   <g id="matplotlib.axis_2">
    <g id="ytick_1">
     <g id="line2d_12">
      <defs>
       <path id="md1d9f4acf3" d="M 0 0 
L -3.5 0 
" style="stroke: #000000; stroke-width: 0.8"/>
      </defs>
      <g>
       <use xlink:href="#md1d9f4acf3" x="48.029688" y="338.459157" style="stroke: #000000; stroke-width: 0.8"/>
      </g>
     </g>
     <g id="text_12">
      <!-- −1000 -->
      <g transform="translate(7.2 342.258375)scale(0.1 -0.1)">
       <defs>
        <path id="DejaVuSans-2212" d="M 678 2272 
L 4684 2272 
L 4684 1741 
L 678 1741 
L 678 2272 
z
" transform="scale(0.015625)"/>
       </defs>
       <use xlink:href="#DejaVuSans-2212"/>
       <use xlink:href="#DejaVuSans-31" x="83.789062"/>
       <use xlink:href="#DejaVuSans-30" x="147.412109"/>
       <use xlink:href="#DejaVuSans-30" x="211.035156"/>
       <use xlink:href="#DejaVuSans-30" x="274.658203"/>
      </g>
     </g>
    </g>
    <g id="ytick_2">
     <g id="line2d_13">
      <g>
       <use xlink:href="#md1d9f4acf3" x="48.029688" y="286.104586" style="stroke: #000000; stroke-width: 0.8"/>
      </g>
     </g>
     <g id="text_13">
      <!-- 0 -->
      <g transform="translate(34.667188 289.903805)scale(0.1 -0.1)">
       <use xlink:href="#DejaVuSans-30"/>
      </g>
     </g>
    </g>
    <g id="ytick_3">
     <g id="line2d_14">
      <g>
       <use xlink:href="#md1d9f4acf3" x="48.029688" y="233.750015" style="stroke: #000000; stroke-width: 0.8"/>
      </g>
     </g>
     <g id="text_14">
      <!-- 1000 -->
      <g transform="translate(15.579688 237.549234)scale(0.1 -0.1)">
       <use xlink:href="#DejaVuSans-31"/>
       <use xlink:href="#DejaVuSans-30" x="63.623047"/>
       <use xlink:href="#DejaVuSans-30" x="127.246094"/>
       <use xlink:href="#DejaVuSans-30" x="190.869141"/>
      </g>
     </g>
    </g>
    <g id="ytick_4">
     <g id="line2d_15">
      <g>
       <use xlink:href="#md1d9f4acf3" x="48.029688" y="181.395445" style="stroke: #000000; stroke-width: 0.8"/>
      </g>
     </g>
     <g id="text_15">
      <!-- 2000 -->
      <g transform="translate(15.579688 185.194663)scale(0.1 -0.1)">
       <use xlink:href="#DejaVuSans-32"/>
       <use xlink:href="#DejaVuSans-30" x="63.623047"/>
       <use xlink:href="#DejaVuSans-30" x="127.246094"/>
       <use xlink:href="#DejaVuSans-30" x="190.869141"/>
      </g>
     </g>
    </g>
    <g id="ytick_5">
     <g id="line2d_16">
      <g>
       <use xlink:href="#md1d9f4acf3" x="48.029688" y="129.040874" style="stroke: #000000; stroke-width: 0.8"/>
      </g>
     </g>
     <g id="text_16">
      <!-- 3000 -->
      <g transform="translate(15.579688 132.840093)scale(0.1 -0.1)">
       <defs>
        <path id="DejaVuSans-33" d="M 2597 2516 
Q 3050 2419 3304 2112 
Q 3559 1806 3559 1356 
Q 3559 666 3084 287 
Q 2609 -91 1734 -91 
Q 1441 -91 1130 -33 
Q 819 25 488 141 
L 488 750 
Q 750 597 1062 519 
Q 1375 441 1716 441 
Q 2309 441 2620 675 
Q 2931 909 2931 1356 
Q 2931 1769 2642 2001 
Q 2353 2234 1838 2234 
L 1294 2234 
L 1294 2753 
L 1863 2753 
Q 2328 2753 2575 2939 
Q 2822 3125 2822 3475 
Q 2822 3834 2567 4026 
Q 2313 4219 1838 4219 
Q 1578 4219 1281 4162 
Q 984 4106 628 3988 
L 628 4550 
Q 988 4650 1302 4700 
Q 1616 4750 1894 4750 
Q 2613 4750 3031 4423 
Q 3450 4097 3450 3541 
Q 3450 3153 3228 2886 
Q 3006 2619 2597 2516 
z
" transform="scale(0.015625)"/>
       </defs>
       <use xlink:href="#DejaVuSans-33"/>
       <use xlink:href="#DejaVuSans-30" x="63.623047"/>
       <use xlink:href="#DejaVuSans-30" x="127.246094"/>
       <use xlink:href="#DejaVuSans-30" x="190.869141"/>
      </g>
     </g>
    </g>
    <g id="ytick_6">
     <g id="line2d_17">
      <g>
       <use xlink:href="#md1d9f4acf3" x="48.029688" y="76.686303" style="stroke: #000000; stroke-width: 0.8"/>
      </g>
     </g>
     <g id="text_17">
      <!-- 4000 -->
      <g transform="translate(15.579688 80.485522)scale(0.1 -0.1)">
       <use xlink:href="#DejaVuSans-34"/>
       <use xlink:href="#DejaVuSans-30" x="63.623047"/>
       <use xlink:href="#DejaVuSans-30" x="127.246094"/>
       <use xlink:href="#DejaVuSans-30" x="190.869141"/>
      </g>
     </g>
    </g>
   </g>
   <g id="line2d_18">
    <path d="M 108.902415 286.104586 
L 173.394602 286.104586 
L 174.710769 285.947522 
L 178.65927 285.999877 
L 179.975437 285.685749 
L 181.291604 285.947522 
L 182.607771 285.528686 
L 185.240105 285.790458 
L 186.556272 285.528686 
L 187.872439 285.476331 
L 189.188606 284.219821 
L 190.504773 285.319267 
L 191.820941 285.528686 
L 193.137108 284.376885 
L 194.453275 283.434503 
L 195.769442 285.162204 
L 197.085609 284.42924 
L 198.401776 283.225084 
L 199.717943 283.539212 
L 201.03411 284.795722 
L 202.350277 283.120375 
L 203.666444 278.617882 
L 204.982611 281.91622 
L 206.298778 280.345583 
L 207.614945 278.513173 
L 208.931113 276.261927 
L 210.24728 281.235611 
L 211.563447 279.979101 
L 212.879614 278.094337 
L 214.195781 278.460819 
L 215.511948 279.141428 
L 216.828115 277.309018 
L 218.144282 281.497384 
L 219.460449 283.17273 
L 220.776616 273.173007 
L 222.092783 274.534226 
L 223.40895 286.104586 
L 224.725117 275.26719 
L 226.041285 276.366636 
L 227.357452 272.021206 
L 228.673619 280.450292 
L 229.989786 279.089073 
L 231.305953 279.089073 
L 232.62212 262.126193 
L 233.938287 279.403201 
L 235.254454 264.482148 
L 236.570621 281.91622 
L 237.886788 281.968575 
L 239.202955 276.471345 
L 240.519122 279.822037 
L 241.835289 277.204309 
L 243.151457 281.91622 
L 244.467624 281.759157 
L 245.783791 264.796276 
L 247.099958 277.6755 
L 248.416125 277.0996 
L 249.732292 277.413727 
L 251.048459 286.104586 
L 252.364626 271.02647 
L 253.680793 276.890181 
L 254.99696 275.057771 
L 256.313127 271.916497 
L 257.629294 278.2514 
L 258.945461 276.994891 
L 260.261629 279.664974 
L 261.577796 275.686026 
L 262.893963 277.309018 
L 264.21013 277.884918 
L 265.526297 276.052508 
L 266.842464 278.617882 
L 268.158631 286.104586 
L 269.474798 271.445306 
L 270.790965 277.937273 
L 272.107132 280.816774 
L 273.423299 284.533949 
L 274.739466 282.177993 
L 276.055633 282.701539 
L 277.371801 276.366636 
L 278.687968 282.125639 
L 280.004135 280.502647 
L 281.320302 281.91622 
L 282.636469 284.691012 
L 283.952636 284.32453 
L 285.268803 284.691012 
L 286.58497 282.335057 
L 287.901137 281.026193 
L 289.217304 284.533949 
L 290.533471 283.591566 
L 291.849638 284.219821 
L 293.165805 283.486857 
L 294.481973 282.59683 
L 295.79814 283.17273 
L 297.114307 284.272176 
L 298.430474 282.125639 
L 299.746641 282.806248 
L 301.062808 283.958048 
L 302.378975 283.225084 
L 303.695142 280.240874 
L 305.011309 282.439766 
L 306.327476 281.183256 
L 307.643643 283.74863 
L 308.95981 284.691012 
L 310.275977 283.905694 
L 311.592145 281.34032 
L 312.908312 284.167467 
L 314.224479 282.230348 
L 315.540646 279.036719 
L 316.856813 278.2514 
L 318.17298 280.973838 
L 319.489147 284.219821 
L 320.805314 274.534226 
L 322.121481 276.052508 
L 323.437648 282.282702 
L 324.753815 279.193783 
L 326.069982 277.466082 
L 327.386149 279.769683 
L 328.702316 283.591566 
L 330.018484 282.49212 
L 331.334651 279.769683 
L 333.966985 282.910957 
L 336.599319 281.392675 
L 337.915486 281.863866 
L 339.231653 282.753893 
L 340.54782 274.429517 
L 341.863987 281.287965 
L 343.180154 281.392675 
L 345.812488 279.717328 
L 347.128656 283.696276 
L 348.444823 279.193783 
L 349.76099 271.550015 
L 351.077157 287.518159 
L 352.393324 280.08381 
L 353.709491 280.031456 
L 355.025658 282.439766 
L 356.341825 279.50791 
L 357.657992 281.549738 
L 358.974159 280.921483 
L 360.290326 281.445029 
L 361.606493 282.335057 
L 362.92266 280.555001 
L 364.238828 281.811511 
L 365.554995 277.780209 
L 366.871162 282.49212 
L 368.187329 281.91622 
L 369.503496 283.120375 
L 370.819663 282.282702 
L 372.13583 283.015666 
L 373.451997 282.701539 
L 374.768164 282.649184 
L 376.084331 275.528963 
L 377.400498 266.576331 
L 378.716665 283.17273 
L 380.032832 283.225084 
L 381.349 281.654447 
L 382.665167 283.120375 
L 383.981334 283.486857 
L 385.297501 282.177993 
L 386.613668 283.382148 
L 387.929835 283.068021 
L 389.246002 282.59683 
L 390.562169 283.643921 
L 391.878336 285.057494 
L 393.194503 284.848076 
L 394.51067 286.628132 
L 395.826837 280.502647 
L 397.143004 272.17827 
L 398.459172 286.418713 
L 399.775339 281.602093 
L 401.091506 280.555001 
L 402.407673 285.371622 
L 403.72384 280.659711 
L 405.040007 280.921483 
L 406.356174 278.774946 
L 407.672341 278.199046 
L 408.988508 275.319544 
L 410.304675 283.015666 
L 411.620842 286.104586 
L 412.937009 277.832564 
L 414.253176 281.235611 
L 415.569344 277.361373 
L 416.885511 279.664974 
L 418.201678 281.497384 
L 419.517845 275.633672 
L 420.834012 281.026193 
L 422.150179 281.706802 
L 423.466346 283.591566 
L 426.09868 279.979101 
L 427.414847 280.816774 
L 428.731014 281.183256 
L 430.047181 282.49212 
L 431.363348 279.979101 
L 432.679516 278.879655 
L 433.995683 282.387411 
L 435.31185 280.659711 
L 436.628017 279.350846 
L 437.944184 278.670237 
L 439.260351 281.811511 
L 440.576518 276.994891 
L 441.892685 278.2514 
L 443.208852 276.261927 
L 444.525019 279.926747 
L 445.841186 279.822037 
L 448.47352 281.706802 
L 449.789688 279.193783 
L 451.105855 278.513173 
L 452.422022 277.151954 
L 453.738189 279.193783 
L 455.054356 277.780209 
L 456.370523 280.607356 
L 457.68669 282.387411 
L 459.002857 281.130902 
L 460.319024 277.518436 
L 461.635191 274.691289 
L 462.951358 278.199046 
L 464.267525 280.712065 
L 465.583692 279.350846 
L 466.899859 283.486857 
L 468.216027 278.094337 
L 469.532194 277.780209 
L 470.848361 277.727855 
L 472.164528 280.136165 
L 473.480695 275.26719 
L 474.796862 281.863866 
L 476.113029 278.617882 
L 477.429196 277.6755 
L 478.745363 275.738381 
L 480.06153 275.633672 
L 481.377697 276.942536 
L 482.693864 276.41899 
L 484.010031 280.08381 
L 485.326199 280.450292 
L 486.642366 274.638935 
L 487.958533 271.340597 
L 489.2747 274.429517 
L 490.590867 268.042259 
L 491.907034 270.136442 
L 493.223201 275.424253 
L 494.539368 274.063035 
L 495.855535 275.424253 
L 497.171702 261.497938 
L 498.487869 266.262204 
L 499.804036 264.743921 
L 501.120203 265.319821 
L 502.436371 267.675777 
L 503.752538 275.476608 
L 505.068705 265.267467 
L 506.384872 251.393506 
L 507.701039 259.665528 
L 509.017206 260.60791 
L 510.333373 265.005694 
L 511.64954 262.387965 
L 512.965707 268.775223 
L 514.281874 255.529517 
L 515.598041 255.163035 
L 516.914208 259.927301 
L 518.230375 255.68658 
L 519.546543 265.005694 
L 520.86271 250.032287 
L 522.178877 267.518713 
L 523.495044 246.419821 
L 524.811211 236.78658 
L 526.127378 249.561096 
L 527.443545 243.383256 
L 528.759712 244.273284 
L 530.075879 246.681594 
L 531.392046 237.46719 
L 532.708213 252.440597 
L 534.02438 245.163312 
L 535.340547 230.71345 
L 536.656715 255.529517 
L 537.972882 233.907079 
L 539.289049 250.241705 
L 540.605216 244.901539 
L 541.921383 242.179101 
L 543.23755 268.251677 
L 544.553717 232.336442 
L 545.869884 260.974392 
L 547.186051 263.068575 
L 548.502218 256.419544 
L 549.818385 254.063589 
L 551.134552 245.268021 
L 552.450719 252.70237 
L 553.766887 243.173838 
L 555.083054 255.529517 
L 556.399221 263.539766 
L 557.715388 249.404032 
L 559.031555 264.796276 
L 560.347722 241.079655 
L 561.663889 254.273007 
L 562.980056 243.749738 
L 564.296223 254.115943 
L 565.61239 241.655555 
L 566.928557 245.94863 
L 568.244724 253.173561 
L 569.560891 222.23201 
L 570.877059 257.100154 
L 572.193226 235.215943 
L 573.509393 244.325639 
L 574.82556 257.100154 
L 576.141727 253.697107 
L 577.457894 248.042813 
L 578.774061 239.404309 
L 580.090228 251.44586 
L 581.406395 252.335888 
L 582.722562 237.833672 
L 584.038729 253.85417 
L 585.354896 265.110403 
L 586.671063 261.812065 
L 587.98723 246.943367 
L 589.303398 248.932841 
L 590.619565 250.398769 
L 591.935732 251.550569 
L 593.251899 253.85417 
L 594.568066 270.450569 
L 595.884233 268.199323 
L 597.2004 251.393506 
L 598.516567 263.068575 
L 599.832734 253.85417 
L 602.465068 263.906248 
L 603.781235 275.581317 
L 605.097402 271.131179 
L 606.41357 273.382425 
L 607.729737 269.298769 
L 609.045904 271.131179 
L 610.362071 246.210403 
L 611.678238 268.461096 
L 612.994405 271.497661 
L 614.310572 272.963589 
L 615.626739 264.429794 
L 616.942906 265.791012 
L 618.259073 264.691566 
L 619.57524 268.775223 
L 620.891407 273.748907 
L 622.207574 279.298492 
L 623.523742 275.005417 
L 626.156076 268.879932 
L 627.472243 267.780486 
L 628.78841 275.581317 
L 630.104577 267.36165 
L 631.420744 278.879655 
L 632.736911 271.550015 
L 634.053078 270.659988 
L 635.369245 270.555278 
L 636.685412 264.168021 
L 638.001579 271.340597 
L 639.317746 271.392952 
L 640.633914 280.188519 
L 641.950081 273.958325 
L 643.266248 274.691289 
L 644.582415 274.01068 
L 645.898582 272.230625 
L 647.214749 274.848353 
L 648.530916 275.162481 
L 649.847083 280.031456 
L 651.16325 275.005417 
L 652.479417 244.79683 
L 653.795584 274.01068 
L 655.111751 273.277716 
L 656.427918 274.324807 
L 657.744086 273.905971 
L 659.060253 278.93201 
L 660.37642 266.628686 
L 661.692587 270.293506 
L 663.008754 275.110126 
L 664.324921 270.031733 
L 665.641088 268.042259 
L 666.957255 278.670237 
L 668.273422 276.680763 
L 669.589589 275.110126 
L 670.905756 274.638935 
L 672.221923 271.078824 
L 673.53809 266.419267 
L 674.854258 267.204586 
L 676.170425 268.304032 
L 677.486592 277.151954 
L 678.802759 274.115389 
L 680.118926 265.895722 
L 681.435093 265.058048 
L 682.75126 260.60791 
L 684.067427 270.450569 
L 685.383594 275.581317 
L 686.699761 274.115389 
L 688.015928 273.748907 
L 689.332095 267.152231 
L 690.648262 266.209849 
L 691.96443 264.168021 
L 693.280597 266.890458 
L 694.596764 267.518713 
L 695.912931 275.110126 
L 697.229098 266.209849 
L 698.545265 265.162758 
L 699.861432 264.796276 
L 701.177599 262.283256 
L 702.493766 266.157494 
L 703.809933 265.738658 
L 705.1261 277.727855 
L 706.442267 271.131179 
L 707.758434 271.759434 
L 709.074602 269.036996 
L 710.390769 268.618159 
L 711.706936 270.659988 
L 713.023103 273.696553 
L 714.33927 278.565528 
L 715.655437 273.487134 
L 716.971604 275.947799 
L 718.287771 266.890458 
L 719.603938 274.795999 
L 720.920105 271.02647 
L 722.236272 277.832564 
L 723.552439 278.93201 
L 724.868606 275.790735 
L 726.184773 277.151954 
L 727.500941 275.476608 
L 728.817108 277.047245 
L 730.133275 275.633672 
L 731.449442 280.659711 
L 732.765609 281.445029 
L 734.081776 280.136165 
L 736.71411 279.036719 
L 738.030277 277.832564 
L 739.346444 279.089073 
L 740.662611 281.811511 
L 741.978778 281.602093 
L 743.294945 246.681594 
L 744.611113 280.712065 
L 745.92728 279.036719 
L 747.243447 280.136165 
L 748.559614 281.654447 
L 751.191948 286.104586 
L 752.508115 279.664974 
L 753.824282 282.177993 
L 755.140449 282.230348 
L 756.456616 281.445029 
L 757.772783 283.434503 
L 759.08895 283.74863 
L 760.405117 284.638658 
L 761.721285 285.214558 
L 763.037452 283.696276 
L 764.353619 283.591566 
L 765.669786 282.701539 
L 766.985953 283.17273 
L 768.30212 283.958048 
L 769.618287 285.00514 
L 770.934454 284.167467 
L 772.250621 284.376885 
L 773.566788 284.115112 
L 774.882955 284.743367 
L 776.199122 284.219821 
L 777.515289 285.00514 
L 778.831457 283.905694 
L 780.147624 286.26165 
L 781.463791 283.382148 
L 782.779958 284.481594 
L 784.096125 284.691012 
L 785.412292 285.057494 
L 788.044626 285.423976 
L 789.360793 284.952785 
L 790.67696 285.00514 
L 791.993127 285.266913 
L 794.625461 284.795722 
L 797.257796 285.476331 
L 798.573963 284.42924 
L 799.89013 284.743367 
L 801.206297 283.486857 
L 802.522464 284.743367 
L 803.838631 284.586303 
L 805.154798 285.266913 
L 807.787132 286.104586 
L 809.103299 284.481594 
L 810.419466 283.225084 
L 811.735633 284.376885 
L 813.051801 283.225084 
L 814.367968 285.109849 
L 815.684135 285.109849 
L 817.000302 282.439766 
L 818.316469 283.539212 
L 819.632636 284.062758 
L 820.948803 282.49212 
L 822.26497 283.591566 
L 823.581137 284.219821 
L 824.897304 284.32453 
L 826.213471 283.74863 
L 827.529638 282.387411 
L 828.845805 282.701539 
L 830.161973 281.34032 
L 831.47814 282.544475 
L 832.794307 282.701539 
L 834.110474 281.863866 
L 835.426641 282.282702 
L 836.742808 280.188519 
L 838.058975 278.460819 
L 839.375142 279.193783 
L 840.691309 277.937273 
L 843.323643 281.863866 
L 844.63981 279.717328 
L 845.955977 276.366636 
L 847.272145 274.167744 
L 848.588312 272.492398 
L 849.904479 274.900708 
L 851.220646 275.895445 
L 852.536813 279.664974 
L 853.85298 277.6755 
L 855.169147 268.775223 
L 856.485314 271.916497 
L 857.801481 268.618159 
L 859.117648 270.450569 
L 860.433815 271.235888 
L 861.749982 278.670237 
L 863.066149 269.141705 
L 864.382316 263.644475 
L 867.014651 265.791012 
L 868.330818 269.874669 
L 869.646985 271.445306 
L 870.963152 275.895445 
L 872.279319 268.251677 
L 873.595486 263.644475 
L 874.911653 258.461373 
L 876.22782 266.10514 
L 877.543987 270.398215 
L 878.860154 265.476885 
L 880.176321 273.958325 
L 881.492488 268.932287 
L 882.808656 257.466636 
L 884.124823 256.995445 
L 886.757157 266.890458 
L 888.073324 272.544752 
L 889.389491 267.885195 
L 890.705658 273.644198 
L 892.021825 267.675777 
L 893.337992 252.074115 
L 894.654159 253.801816 
L 897.286493 262.859157 
L 898.60266 273.068298 
L 899.918828 272.911234 
L 901.234995 257.100154 
L 902.551162 253.749461 
L 903.867329 255.68658 
L 905.183496 262.545029 
L 906.499663 263.120929 
L 907.81583 271.864143 
L 909.131997 272.125916 
L 910.448164 252.440597 
L 911.764331 256.262481 
L 913.080498 254.744198 
L 914.396665 266.157494 
L 915.712832 263.906248 
L 917.029 270.92176 
L 918.345167 270.712342 
L 919.661334 258.304309 
L 920.977501 252.807079 
L 922.293668 253.749461 
L 923.609835 265.058048 
L 924.926002 266.995168 
L 926.242169 271.288242 
L 927.558336 263.69683 
L 930.19067 259.089627 
L 931.506837 254.377716 
L 932.823004 269.822314 
L 934.139172 267.309295 
L 935.455339 277.466082 
L 936.771506 269.298769 
L 938.087673 260.241428 
L 939.40384 262.963866 
L 940.720007 260.241428 
L 942.036174 286.104586 
L 943.352341 255.320098 
L 944.668508 276.209572 
L 945.984675 270.764697 
L 947.300842 266.262204 
L 948.617009 265.476885 
L 949.933176 268.251677 
L 951.249344 270.607633 
L 952.565511 273.225361 
L 953.881678 280.502647 
L 955.197845 272.387688 
L 956.514012 269.76996 
L 957.830179 271.340597 
L 959.146346 265.843367 
L 960.462513 273.120652 
L 961.77868 275.686026 
L 963.094847 282.125639 
L 964.411014 271.340597 
L 965.727181 270.34586 
L 967.043348 271.759434 
L 969.675683 270.869406 
L 970.99185 273.748907 
L 972.308017 282.544475 
L 973.624184 271.60237 
L 974.940351 269.560542 
L 976.256518 263.435057 
L 977.572685 270.398215 
L 978.888852 268.199323 
L 980.205019 271.759434 
L 981.521186 278.565528 
L 982.837353 266.157494 
L 984.15352 264.010957 
L 985.469688 261.497938 
L 986.785855 260.974392 
L 988.102022 268.356386 
L 989.418189 273.539489 
L 990.734356 272.963589 
L 992.050523 271.02647 
L 993.36669 260.398492 
L 994.682857 259.403755 
L 995.999024 273.43478 
L 997.315191 272.335334 
L 998.631358 273.853616 
L 999.947525 271.131179 
L 1001.263692 256.157771 
L 1003.896027 247.571622 
L 1005.212194 245.634503 
L 1006.528361 258.251954 
L 1007.844528 286.104586 
L 1009.160695 248.35694 
L 1010.476862 255.948353 
L 1011.793029 241.655555 
L 1013.109196 244.273284 
L 1014.425363 248.147522 
L 1015.74153 252.388242 
L 1017.057697 255.163035 
L 1018.373864 270.869406 
L 1019.690031 250.451123 
L 1021.006199 249.979932 
L 1022.322366 230.032841 
L 1023.638533 242.597938 
L 1024.9547 249.561096 
L 1026.270867 250.974669 
L 1027.587034 258.461373 
L 1028.903201 250.86996 
L 1030.219368 226.525084 
L 1031.535535 213.959988 
L 1032.851702 204.745583 
L 1034.167869 219.928409 
L 1035.484036 263.539766 
L 1036.800203 256.471899 
L 1038.116371 229.299877 
L 1039.432538 183.803755 
L 1040.748705 102.706525 
L 1042.064872 102.130625 
L 1043.381039 122.967744 
L 1044.697206 161.18658 
L 1046.013373 167.416774 
L 1047.32954 217.048907 
L 1048.645707 148.307356 
L 1049.961874 133.909849 
L 1051.278041 90.874392 
L 1052.594208 107.889627 
L 1053.910375 144.747245 
L 1055.226543 176.317051 
L 1056.54271 99.931733 
L 1057.858877 50.8755 
L 1059.175044 112.025639 
L 1060.491211 114.22453 
L 1061.807378 155.218159 
L 1063.123545 172.75694 
L 1064.439712 227.62453 
L 1065.755879 220.347245 
L 1068.388213 172.023976 
L 1069.70438 156.317605 
L 1071.020547 198.253616 
L 1072.336715 223.907356 
L 1073.652882 236.001262 
L 1074.969049 240.137273 
L 1076.285216 206.106802 
L 1077.601383 217.677162 
L 1078.91755 237.833672 
L 1080.233717 250.555832 
L 1081.549884 261.340874 
L 1082.866051 268.51345 
L 1084.182218 261.86442 
L 1085.498385 243.906802 
L 1086.814552 254.953616 
L 1088.130719 262.806802 
L 1089.446887 263.277993 
L 1090.763054 271.707079 
L 1092.079221 275.528963 
L 1093.395388 265.215112 
L 1094.711555 259.979655 
L 1096.027722 262.911511 
L 1097.343889 271.340597 
L 1098.660056 273.43478 
L 1099.976223 274.900708 
L 1101.29239 279.141428 
L 1102.608557 275.528963 
L 1103.924724 267.36165 
L 1105.240891 271.550015 
L 1106.557059 274.220098 
L 1107.873226 278.2514 
L 1110.50556 282.073284 
L 1111.821727 280.973838 
L 1113.137894 243.069129 
L 1114.454061 279.298492 
L 1115.770228 280.345583 
L 1117.086395 280.659711 
L 1119.718729 284.272176 
L 1121.034896 281.026193 
L 1122.351063 278.670237 
L 1123.66723 277.204309 
L 1124.983398 280.031456 
L 1126.299565 281.445029 
L 1127.615732 283.225084 
L 1128.931899 283.905694 
L 1130.248066 282.387411 
L 1131.564233 264.639212 
L 1132.8804 276.890181 
L 1134.196567 286.104586 
L 1135.512734 277.6755 
L 1136.828901 283.958048 
L 1138.145068 282.910957 
L 1139.461235 282.963312 
L 1140.777402 281.863866 
L 1142.09357 281.654447 
L 1143.409737 281.811511 
L 1144.725904 282.125639 
L 1146.042071 284.115112 
L 1147.358238 284.638658 
L 1148.674405 282.649184 
L 1149.990572 275.633672 
L 1151.306739 276.576054 
L 1152.622906 286.104586 
L 1153.939073 276.209572 
L 1155.25524 284.481594 
L 1156.571407 283.591566 
L 1157.887574 281.602093 
L 1159.203742 280.450292 
L 1160.519909 280.921483 
L 1161.836076 280.76442 
L 1163.152243 281.968575 
L 1164.46841 283.486857 
L 1165.784577 283.643921 
L 1167.100744 281.130902 
L 1168.416911 277.0996 
L 1169.733078 353.2755 
L 1171.049245 280.345583 
L 1172.365412 278.722591 
L 1173.681579 281.549738 
L 1174.997746 282.282702 
L 1177.630081 274.272453 
L 1178.946248 273.277716 
L 1180.262415 286.104586 
L 1181.578582 286.104586 
L 1182.894749 263.330348 
L 1184.210916 281.392675 
L 1185.527083 277.256663 
L 1186.84325 276.523699 
L 1188.159417 275.633672 
L 1189.475584 271.392952 
L 1190.791751 286.104586 
L 1192.107918 272.440043 
L 1193.424086 280.76442 
L 1194.740253 275.84309 
L 1196.05642 272.85888 
L 1197.372587 273.015943 
L 1198.688754 286.104586 
L 1200.004921 286.104586 
L 1201.321088 249.299323 
L 1202.637255 280.607356 
L 1203.953422 275.110126 
L 1205.269589 260.764974 
L 1206.585756 264.482148 
L 1207.901923 286.104586 
L 1209.21809 286.104586 
L 1210.534258 228.723976 
L 1211.850425 273.801262 
L 1213.166592 286.104586 
L 1214.482759 235.530071 
L 1215.798926 255.11068 
L 1217.115093 286.104586 
L 1218.43126 286.104586 
L 1219.747427 198.148907 
L 1221.063594 272.85888 
L 1222.379761 253.644752 
L 1223.695928 250.86996 
L 1225.012095 244.063866 
L 1226.328262 286.104586 
L 1227.64443 286.104586 
L 1228.960597 201.656663 
L 1230.276764 270.398215 
L 1231.592931 259.141982 
L 1234.225265 254.011234 
L 1235.541432 286.104586 
L 1236.857599 286.104586 
L 1238.173766 204.693229 
L 1239.489933 276.41899 
L 1240.8061 279.193783 
L 1242.122267 264.325084 
L 1243.438434 261.026747 
L 1244.754602 286.104586 
L 1246.070769 286.104586 
L 1247.386936 236.734226 
L 1248.703103 272.073561 
L 1250.01927 286.104586 
L 1251.335437 286.104586 
L 1252.651604 214.117051 
L 1253.967771 286.104586 
L 1257.916272 286.104586 
L 1259.232439 228.776331 
L 1260.548606 271.60237 
L 1261.864773 267.152231 
L 1263.180941 286.104586 
L 1264.497108 286.104586 
L 1265.813275 246.472176 
L 1267.129442 277.413727 
L 1268.445609 280.450292 
L 1269.761776 267.623422 
L 1271.077943 272.387688 
L 1272.39411 286.104586 
L 1273.710277 286.104586 
L 1275.026444 249.351677 
L 1276.342611 279.455555 
L 1277.658778 271.864143 
L 1280.291113 267.414004 
L 1281.60728 286.104586 
L 1282.923447 286.104586 
L 1284.239614 250.18935 
L 1285.555781 278.879655 
L 1286.871948 276.41899 
L 1288.188115 269.08935 
L 1289.504282 268.251677 
L 1290.820449 286.104586 
L 1292.136616 286.104586 
L 1293.452783 233.017051 
L 1294.76895 276.314281 
L 1296.085117 270.188796 
L 1297.401285 286.104586 
L 1298.717452 250.346414 
L 1300.033619 286.104586 
L 1301.349786 286.104586 
L 1302.665953 241.917328 
L 1303.98212 270.869406 
L 1305.298287 286.104586 
L 1306.614454 243.645029 
L 1309.246788 286.104586 
L 1309.246788 286.104586 
" clip-path="url(#pdb5d1e03b9)" style="fill: none; stroke: #0000ff; stroke-width: 1.5; stroke-linecap: square"/>
   </g>
   <g id="line2d_19">
    <path d="M 1069.70438 179.372591 
L 1072.336715 237.483711 
L 1074.969049 205.467733 
L 1076.285216 200.806505 
L 1077.601383 200.087126 
L 1078.91755 240.855488 
L 1080.233717 259.573302 
L 1081.549884 275.227033 
L 1082.866051 266.039565 
L 1084.182218 240.07398 
L 1085.498385 244.509226 
L 1086.814552 251.374391 
L 1088.130719 272.682548 
L 1089.446887 279.665053 
L 1090.763054 287.377729 
L 1092.079221 277.376822 
L 1093.395388 253.89412 
L 1094.711555 262.95332 
L 1096.027722 266.212238 
L 1097.343889 277.658466 
L 1098.660056 284.629474 
L 1099.976223 287.177314 
L 1101.29239 278.176202 
L 1102.608557 266.200936 
L 1103.924724 270.61779 
L 1105.240891 275.686783 
L 1107.873226 284.920266 
L 1109.189393 287.871194 
L 1110.50556 281.151916 
L 1111.821727 272.917111 
L 1113.137894 261.472233 
L 1114.454061 276.42708 
L 1115.770228 281.384647 
L 1118.402562 286.498954 
L 1119.718729 282.88409 
L 1121.034896 265.239311 
L 1122.351063 285.545648 
L 1123.66723 282.295428 
L 1124.983398 284.038234 
L 1127.615732 287.036553 
L 1128.931899 283.305453 
L 1130.248066 273.473525 
L 1131.564233 275.885764 
L 1132.8804 279.26403 
L 1134.196567 284.385465 
L 1135.512734 282.30755 
L 1136.828901 285.09906 
L 1138.145068 282.167936 
L 1139.461235 271.850711 
L 1140.777402 284.242228 
L 1142.09357 286.080464 
L 1143.409737 282.183151 
L 1144.725904 285.597296 
L 1146.042071 285.379137 
L 1147.358238 284.239414 
L 1148.674405 277.436005 
L 1149.990572 280.596404 
L 1151.306739 281.007928 
L 1152.622906 283.063586 
L 1153.939073 281.521653 
L 1155.25524 283.951793 
L 1156.571407 282.46439 
L 1157.887574 276.529607 
L 1159.203742 280.90522 
L 1160.519909 284.818425 
L 1161.836076 279.06775 
L 1163.152243 284.745104 
L 1164.46841 283.840285 
L 1165.784577 282.576291 
L 1167.100744 278.611028 
L 1168.416911 279.404105 
L 1169.733078 318.26998 
L 1171.049245 291.070956 
L 1172.365412 289.789781 
L 1173.681579 287.311142 
L 1174.997746 284.419043 
L 1176.313914 278.971389 
L 1177.630081 302.863151 
L 1178.946248 266.267517 
L 1180.262415 277.607533 
L 1181.578582 282.738846 
L 1182.894749 272.347549 
L 1184.210916 276.339086 
L 1185.527083 273.360624 
L 1186.84325 287.880596 
L 1188.159417 273.759303 
L 1189.475584 272.967499 
L 1190.791751 273.672411 
L 1192.107918 277.909073 
L 1193.424086 276.763798 
L 1194.740253 274.260679 
L 1196.05642 280.253441 
L 1197.372587 271.350248 
L 1198.688754 283.753252 
L 1201.321088 268.197062 
L 1202.637255 273.84952 
L 1205.269589 269.687791 
L 1206.585756 269.480292 
L 1207.901923 280.695601 
L 1209.21809 265.887422 
L 1210.534258 260.031586 
L 1211.850425 266.86511 
L 1213.166592 270.031832 
L 1214.482759 254.142818 
L 1217.115093 277.230951 
L 1218.43126 252.611217 
L 1219.747427 246.188627 
L 1221.063594 266.511528 
L 1222.379761 239.122153 
L 1223.695928 253.837197 
L 1225.012095 262.244975 
L 1226.328262 275.427698 
L 1227.64443 235.678002 
L 1228.960597 253.207251 
L 1230.276764 259.578919 
L 1231.592931 247.127845 
L 1232.909098 253.649693 
L 1234.225265 274.063091 
L 1235.541432 280.151292 
L 1236.857599 231.801862 
L 1238.173766 258.850005 
L 1239.489933 263.601822 
L 1240.8061 263.371102 
L 1242.122267 262.381826 
L 1243.438434 282.91301 
L 1244.754602 284.723393 
L 1246.070769 232.179156 
L 1247.386936 279.3324 
L 1248.703103 272.842412 
L 1250.01927 271.603128 
L 1251.335437 276.681016 
L 1252.651604 263.756832 
L 1253.967771 280.479822 
L 1255.283938 238.190974 
L 1256.600105 296.437833 
L 1257.916272 289.968781 
L 1259.232439 255.413853 
L 1260.548606 245.274205 
L 1261.864773 289.369384 
L 1263.180941 285.667932 
L 1264.497108 262.554922 
L 1265.813275 273.190792 
L 1267.129442 259.866989 
L 1268.445609 281.503552 
L 1269.761776 258.618021 
L 1271.077943 290.338679 
L 1272.39411 287.154391 
L 1273.710277 261.668791 
L 1275.026444 275.619962 
L 1276.342611 270.754378 
L 1277.658778 273.109053 
L 1278.974945 265.420979 
L 1280.291113 283.821017 
L 1281.60728 284.830836 
L 1282.923447 259.987196 
L 1284.239614 275.279763 
L 1285.555781 271.285969 
L 1286.871948 273.979642 
L 1288.188115 267.193967 
L 1289.504282 283.198292 
L 1290.820449 284.609934 
L 1292.136616 260.067355 
L 1293.452783 266.55614 
L 1294.76895 269.564864 
L 1296.085117 267.213132 
L 1297.401285 274.096849 
L 1298.717452 274.348252 
L 1300.033619 282.057717 
L 1301.349786 252.842171 
L 1302.665953 271.587261 
L 1303.98212 267.89045 
L 1305.298287 281.13843 
L 1306.614454 248.101823 
L 1307.930621 278.470031 
L 1309.246788 281.2726 
L 1309.246788 281.2726 
" clip-path="url(#pdb5d1e03b9)" style="fill: none; stroke: #ffa500; stroke-width: 1.5; stroke-linecap: square"/>
   </g>
   <g id="line2d_20">
    <path d="M 1309.246788 281.2726 
L 1310.562955 249.922051 
L 1311.879122 272.19214 
L 1313.195289 274.858589 
L 1314.511457 263.164991 
L 1315.827624 263.257755 
L 1317.143791 280.169461 
L 1318.459958 278.599536 
L 1319.776125 252.325425 
L 1321.092292 271.414185 
L 1322.408459 273.705533 
L 1323.724626 263.731646 
L 1325.040793 263.811355 
L 1326.35696 278.240448 
" clip-path="url(#pdb5d1e03b9)" style="fill: none; stroke: #ff0000; stroke-width: 1.5; stroke-linecap: square"/>
   </g>
   <g id="patch_3">
    <path d="M 48.029688 368.3955 
L 48.029688 35.7555 
" style="fill: none; stroke: #000000; stroke-width: 0.8; stroke-linejoin: miter; stroke-linecap: square"/>
   </g>
   <g id="patch_4">
    <path d="M 1387.229688 368.3955 
L 1387.229688 35.7555 
" style="fill: none; stroke: #000000; stroke-width: 0.8; stroke-linejoin: miter; stroke-linecap: square"/>
   </g>
   <g id="patch_5">
    <path d="M 48.029687 368.3955 
L 1387.229687 368.3955 
" style="fill: none; stroke: #000000; stroke-width: 0.8; stroke-linejoin: miter; stroke-linecap: square"/>
   </g>
   <g id="patch_6">
    <path d="M 48.029687 35.7555 
L 1387.229687 35.7555 
" style="fill: none; stroke: #000000; stroke-width: 0.8; stroke-linejoin: miter; stroke-linecap: square"/>
   </g>
   <g id="text_18">
    <!-- Daily Confirmed Cases Forecasting - Delaware -->
    <g transform="translate(578.866563 16.318125)scale(0.12 -0.12)">
     <defs>
      <path id="DejaVuSans-44" d="M 1259 4147 
L 1259 519 
L 2022 519 
Q 2988 519 3436 956 
Q 3884 1394 3884 2338 
Q 3884 3275 3436 3711 
Q 2988 4147 2022 4147 
L 1259 4147 
z
M 628 4666 
L 1925 4666 
Q 3281 4666 3915 4102 
Q 4550 3538 4550 2338 
Q 4550 1131 3912 565 
Q 3275 0 1925 0 
L 628 0 
L 628 4666 
z
" transform="scale(0.015625)"/>
      <path id="DejaVuSans-61" d="M 2194 1759 
Q 1497 1759 1228 1600 
Q 959 1441 959 1056 
Q 959 750 1161 570 
Q 1363 391 1709 391 
Q 2188 391 2477 730 
Q 2766 1069 2766 1631 
L 2766 1759 
L 2194 1759 
z
M 3341 1997 
L 3341 0 
L 2766 0 
L 2766 531 
Q 2569 213 2275 61 
Q 1981 -91 1556 -91 
Q 1019 -91 701 211 
Q 384 513 384 1019 
Q 384 1609 779 1909 
Q 1175 2209 1959 2209 
L 2766 2209 
L 2766 2266 
Q 2766 2663 2505 2880 
Q 2244 3097 1772 3097 
Q 1472 3097 1187 3025 
Q 903 2953 641 2809 
L 641 3341 
Q 956 3463 1253 3523 
Q 1550 3584 1831 3584 
Q 2591 3584 2966 3190 
Q 3341 2797 3341 1997 
z
" transform="scale(0.015625)"/>
      <path id="DejaVuSans-69" d="M 603 3500 
L 1178 3500 
L 1178 0 
L 603 0 
L 603 3500 
z
M 603 4863 
L 1178 4863 
L 1178 4134 
L 603 4134 
L 603 4863 
z
" transform="scale(0.015625)"/>
      <path id="DejaVuSans-6c" d="M 603 4863 
L 1178 4863 
L 1178 0 
L 603 0 
L 603 4863 
z
" transform="scale(0.015625)"/>
      <path id="DejaVuSans-79" d="M 2059 -325 
Q 1816 -950 1584 -1140 
Q 1353 -1331 966 -1331 
L 506 -1331 
L 506 -850 
L 844 -850 
Q 1081 -850 1212 -737 
Q 1344 -625 1503 -206 
L 1606 56 
L 191 3500 
L 800 3500 
L 1894 763 
L 2988 3500 
L 3597 3500 
L 2059 -325 
z
" transform="scale(0.015625)"/>
      <path id="DejaVuSans-20" transform="scale(0.015625)"/>
      <path id="DejaVuSans-43" d="M 4122 4306 
L 4122 3641 
Q 3803 3938 3442 4084 
Q 3081 4231 2675 4231 
Q 1875 4231 1450 3742 
Q 1025 3253 1025 2328 
Q 1025 1406 1450 917 
Q 1875 428 2675 428 
Q 3081 428 3442 575 
Q 3803 722 4122 1019 
L 4122 359 
Q 3791 134 3420 21 
Q 3050 -91 2638 -91 
Q 1578 -91 968 557 
Q 359 1206 359 2328 
Q 359 3453 968 4101 
Q 1578 4750 2638 4750 
Q 3056 4750 3426 4639 
Q 3797 4528 4122 4306 
z
" transform="scale(0.015625)"/>
      <path id="DejaVuSans-6f" d="M 1959 3097 
Q 1497 3097 1228 2736 
Q 959 2375 959 1747 
Q 959 1119 1226 758 
Q 1494 397 1959 397 
Q 2419 397 2687 759 
Q 2956 1122 2956 1747 
Q 2956 2369 2687 2733 
Q 2419 3097 1959 3097 
z
M 1959 3584 
Q 2709 3584 3137 3096 
Q 3566 2609 3566 1747 
Q 3566 888 3137 398 
Q 2709 -91 1959 -91 
Q 1206 -91 779 398 
Q 353 888 353 1747 
Q 353 2609 779 3096 
Q 1206 3584 1959 3584 
z
" transform="scale(0.015625)"/>
      <path id="DejaVuSans-6e" d="M 3513 2113 
L 3513 0 
L 2938 0 
L 2938 2094 
Q 2938 2591 2744 2837 
Q 2550 3084 2163 3084 
Q 1697 3084 1428 2787 
Q 1159 2491 1159 1978 
L 1159 0 
L 581 0 
L 581 3500 
L 1159 3500 
L 1159 2956 
Q 1366 3272 1645 3428 
Q 1925 3584 2291 3584 
Q 2894 3584 3203 3211 
Q 3513 2838 3513 2113 
z
" transform="scale(0.015625)"/>
      <path id="DejaVuSans-66" d="M 2375 4863 
L 2375 4384 
L 1825 4384 
Q 1516 4384 1395 4259 
Q 1275 4134 1275 3809 
L 1275 3500 
L 2222 3500 
L 2222 3053 
L 1275 3053 
L 1275 0 
L 697 0 
L 697 3053 
L 147 3053 
L 147 3500 
L 697 3500 
L 697 3744 
Q 697 4328 969 4595 
Q 1241 4863 1831 4863 
L 2375 4863 
z
" transform="scale(0.015625)"/>
      <path id="DejaVuSans-72" d="M 2631 2963 
Q 2534 3019 2420 3045 
Q 2306 3072 2169 3072 
Q 1681 3072 1420 2755 
Q 1159 2438 1159 1844 
L 1159 0 
L 581 0 
L 581 3500 
L 1159 3500 
L 1159 2956 
Q 1341 3275 1631 3429 
Q 1922 3584 2338 3584 
Q 2397 3584 2469 3576 
Q 2541 3569 2628 3553 
L 2631 2963 
z
" transform="scale(0.015625)"/>
      <path id="DejaVuSans-6d" d="M 3328 2828 
Q 3544 3216 3844 3400 
Q 4144 3584 4550 3584 
Q 5097 3584 5394 3201 
Q 5691 2819 5691 2113 
L 5691 0 
L 5113 0 
L 5113 2094 
Q 5113 2597 4934 2840 
Q 4756 3084 4391 3084 
Q 3944 3084 3684 2787 
Q 3425 2491 3425 1978 
L 3425 0 
L 2847 0 
L 2847 2094 
Q 2847 2600 2669 2842 
Q 2491 3084 2119 3084 
Q 1678 3084 1418 2786 
Q 1159 2488 1159 1978 
L 1159 0 
L 581 0 
L 581 3500 
L 1159 3500 
L 1159 2956 
Q 1356 3278 1631 3431 
Q 1906 3584 2284 3584 
Q 2666 3584 2933 3390 
Q 3200 3197 3328 2828 
z
" transform="scale(0.015625)"/>
      <path id="DejaVuSans-65" d="M 3597 1894 
L 3597 1613 
L 953 1613 
Q 991 1019 1311 708 
Q 1631 397 2203 397 
Q 2534 397 2845 478 
Q 3156 559 3463 722 
L 3463 178 
Q 3153 47 2828 -22 
Q 2503 -91 2169 -91 
Q 1331 -91 842 396 
Q 353 884 353 1716 
Q 353 2575 817 3079 
Q 1281 3584 2069 3584 
Q 2775 3584 3186 3129 
Q 3597 2675 3597 1894 
z
M 3022 2063 
Q 3016 2534 2758 2815 
Q 2500 3097 2075 3097 
Q 1594 3097 1305 2825 
Q 1016 2553 972 2059 
L 3022 2063 
z
" transform="scale(0.015625)"/>
      <path id="DejaVuSans-64" d="M 2906 2969 
L 2906 4863 
L 3481 4863 
L 3481 0 
L 2906 0 
L 2906 525 
Q 2725 213 2448 61 
Q 2172 -91 1784 -91 
Q 1150 -91 751 415 
Q 353 922 353 1747 
Q 353 2572 751 3078 
Q 1150 3584 1784 3584 
Q 2172 3584 2448 3432 
Q 2725 3281 2906 2969 
z
M 947 1747 
Q 947 1113 1208 752 
Q 1469 391 1925 391 
Q 2381 391 2643 752 
Q 2906 1113 2906 1747 
Q 2906 2381 2643 2742 
Q 2381 3103 1925 3103 
Q 1469 3103 1208 2742 
Q 947 2381 947 1747 
z
" transform="scale(0.015625)"/>
      <path id="DejaVuSans-73" d="M 2834 3397 
L 2834 2853 
Q 2591 2978 2328 3040 
Q 2066 3103 1784 3103 
Q 1356 3103 1142 2972 
Q 928 2841 928 2578 
Q 928 2378 1081 2264 
Q 1234 2150 1697 2047 
L 1894 2003 
Q 2506 1872 2764 1633 
Q 3022 1394 3022 966 
Q 3022 478 2636 193 
Q 2250 -91 1575 -91 
Q 1294 -91 989 -36 
Q 684 19 347 128 
L 347 722 
Q 666 556 975 473 
Q 1284 391 1588 391 
Q 1994 391 2212 530 
Q 2431 669 2431 922 
Q 2431 1156 2273 1281 
Q 2116 1406 1581 1522 
L 1381 1569 
Q 847 1681 609 1914 
Q 372 2147 372 2553 
Q 372 3047 722 3315 
Q 1072 3584 1716 3584 
Q 2034 3584 2315 3537 
Q 2597 3491 2834 3397 
z
" transform="scale(0.015625)"/>
      <path id="DejaVuSans-46" d="M 628 4666 
L 3309 4666 
L 3309 4134 
L 1259 4134 
L 1259 2759 
L 3109 2759 
L 3109 2228 
L 1259 2228 
L 1259 0 
L 628 0 
L 628 4666 
z
" transform="scale(0.015625)"/>
      <path id="DejaVuSans-63" d="M 3122 3366 
L 3122 2828 
Q 2878 2963 2633 3030 
Q 2388 3097 2138 3097 
Q 1578 3097 1268 2742 
Q 959 2388 959 1747 
Q 959 1106 1268 751 
Q 1578 397 2138 397 
Q 2388 397 2633 464 
Q 2878 531 3122 666 
L 3122 134 
Q 2881 22 2623 -34 
Q 2366 -91 2075 -91 
Q 1284 -91 818 406 
Q 353 903 353 1747 
Q 353 2603 823 3093 
Q 1294 3584 2113 3584 
Q 2378 3584 2631 3529 
Q 2884 3475 3122 3366 
z
" transform="scale(0.015625)"/>
      <path id="DejaVuSans-74" d="M 1172 4494 
L 1172 3500 
L 2356 3500 
L 2356 3053 
L 1172 3053 
L 1172 1153 
Q 1172 725 1289 603 
Q 1406 481 1766 481 
L 2356 481 
L 2356 0 
L 1766 0 
Q 1100 0 847 248 
Q 594 497 594 1153 
L 594 3053 
L 172 3053 
L 172 3500 
L 594 3500 
L 594 4494 
L 1172 4494 
z
" transform="scale(0.015625)"/>
      <path id="DejaVuSans-67" d="M 2906 1791 
Q 2906 2416 2648 2759 
Q 2391 3103 1925 3103 
Q 1463 3103 1205 2759 
Q 947 2416 947 1791 
Q 947 1169 1205 825 
Q 1463 481 1925 481 
Q 2391 481 2648 825 
Q 2906 1169 2906 1791 
z
M 3481 434 
Q 3481 -459 3084 -895 
Q 2688 -1331 1869 -1331 
Q 1566 -1331 1297 -1286 
Q 1028 -1241 775 -1147 
L 775 -588 
Q 1028 -725 1275 -790 
Q 1522 -856 1778 -856 
Q 2344 -856 2625 -561 
Q 2906 -266 2906 331 
L 2906 616 
Q 2728 306 2450 153 
Q 2172 0 1784 0 
Q 1141 0 747 490 
Q 353 981 353 1791 
Q 353 2603 747 3093 
Q 1141 3584 1784 3584 
Q 2172 3584 2450 3431 
Q 2728 3278 2906 2969 
L 2906 3500 
L 3481 3500 
L 3481 434 
z
" transform="scale(0.015625)"/>
      <path id="DejaVuSans-77" d="M 269 3500 
L 844 3500 
L 1563 769 
L 2278 3500 
L 2956 3500 
L 3675 769 
L 4391 3500 
L 4966 3500 
L 4050 0 
L 3372 0 
L 2619 2869 
L 1863 0 
L 1184 0 
L 269 3500 
z
" transform="scale(0.015625)"/>
     </defs>
     <use xlink:href="#DejaVuSans-44"/>
     <use xlink:href="#DejaVuSans-61" x="77.001953"/>
     <use xlink:href="#DejaVuSans-69" x="138.28125"/>
     <use xlink:href="#DejaVuSans-6c" x="166.064453"/>
     <use xlink:href="#DejaVuSans-79" x="193.847656"/>
     <use xlink:href="#DejaVuSans-20" x="253.027344"/>
     <use xlink:href="#DejaVuSans-43" x="284.814453"/>
     <use xlink:href="#DejaVuSans-6f" x="354.638672"/>
     <use xlink:href="#DejaVuSans-6e" x="415.820312"/>
     <use xlink:href="#DejaVuSans-66" x="479.199219"/>
     <use xlink:href="#DejaVuSans-69" x="514.404297"/>
     <use xlink:href="#DejaVuSans-72" x="542.1875"/>
     <use xlink:href="#DejaVuSans-6d" x="581.550781"/>
     <use xlink:href="#DejaVuSans-65" x="678.962891"/>
     <use xlink:href="#DejaVuSans-64" x="740.486328"/>
     <use xlink:href="#DejaVuSans-20" x="803.962891"/>
     <use xlink:href="#DejaVuSans-43" x="835.75"/>
     <use xlink:href="#DejaVuSans-61" x="905.574219"/>
     <use xlink:href="#DejaVuSans-73" x="966.853516"/>
     <use xlink:href="#DejaVuSans-65" x="1018.953125"/>
     <use xlink:href="#DejaVuSans-73" x="1080.476562"/>
     <use xlink:href="#DejaVuSans-20" x="1132.576172"/>
     <use xlink:href="#DejaVuSans-46" x="1164.363281"/>
     <use xlink:href="#DejaVuSans-6f" x="1218.257812"/>
     <use xlink:href="#DejaVuSans-72" x="1279.439453"/>
     <use xlink:href="#DejaVuSans-65" x="1318.302734"/>
     <use xlink:href="#DejaVuSans-63" x="1379.826172"/>
     <use xlink:href="#DejaVuSans-61" x="1434.806641"/>
     <use xlink:href="#DejaVuSans-73" x="1496.085938"/>
     <use xlink:href="#DejaVuSans-74" x="1548.185547"/>
     <use xlink:href="#DejaVuSans-69" x="1587.394531"/>
     <use xlink:href="#DejaVuSans-6e" x="1615.177734"/>
     <use xlink:href="#DejaVuSans-67" x="1678.556641"/>
     <use xlink:href="#DejaVuSans-20" x="1742.033203"/>
     <use xlink:href="#DejaVuSans-2d" x="1773.820312"/>
     <use xlink:href="#DejaVuSans-20" x="1809.904297"/>
     <use xlink:href="#DejaVuSans-44" x="1841.691406"/>
     <use xlink:href="#DejaVuSans-65" x="1918.693359"/>
     <use xlink:href="#DejaVuSans-6c" x="1980.216797"/>
     <use xlink:href="#DejaVuSans-61" x="2008"/>
     <use xlink:href="#DejaVuSans-77" x="2069.279297"/>
     <use xlink:href="#DejaVuSans-61" x="2151.066406"/>
     <use xlink:href="#DejaVuSans-72" x="2212.345703"/>
     <use xlink:href="#DejaVuSans-65" x="2251.208984"/>
    </g>
    <!-- ARIMA (1, 1, 1)x(1, 0, 1, 7) (R2 = 0.417589) -->
    <g transform="translate(585.645625 29.7555)scale(0.12 -0.12)">
     <defs>
      <path id="DejaVuSans-41" d="M 2188 4044 
L 1331 1722 
L 3047 1722 
L 2188 4044 
z
M 1831 4666 
L 2547 4666 
L 4325 0 
L 3669 0 
L 3244 1197 
L 1141 1197 
L 716 0 
L 50 0 
L 1831 4666 
z
" transform="scale(0.015625)"/>
      <path id="DejaVuSans-52" d="M 2841 2188 
Q 3044 2119 3236 1894 
Q 3428 1669 3622 1275 
L 4263 0 
L 3584 0 
L 2988 1197 
Q 2756 1666 2539 1819 
Q 2322 1972 1947 1972 
L 1259 1972 
L 1259 0 
L 628 0 
L 628 4666 
L 2053 4666 
Q 2853 4666 3247 4331 
Q 3641 3997 3641 3322 
Q 3641 2881 3436 2590 
Q 3231 2300 2841 2188 
z
M 1259 4147 
L 1259 2491 
L 2053 2491 
Q 2509 2491 2742 2702 
Q 2975 2913 2975 3322 
Q 2975 3731 2742 3939 
Q 2509 4147 2053 4147 
L 1259 4147 
z
" transform="scale(0.015625)"/>
      <path id="DejaVuSans-49" d="M 628 4666 
L 1259 4666 
L 1259 0 
L 628 0 
L 628 4666 
z
" transform="scale(0.015625)"/>
      <path id="DejaVuSans-4d" d="M 628 4666 
L 1569 4666 
L 2759 1491 
L 3956 4666 
L 4897 4666 
L 4897 0 
L 4281 0 
L 4281 4097 
L 3078 897 
L 2444 897 
L 1241 4097 
L 1241 0 
L 628 0 
L 628 4666 
z
" transform="scale(0.015625)"/>
      <path id="DejaVuSans-28" d="M 1984 4856 
Q 1566 4138 1362 3434 
Q 1159 2731 1159 2009 
Q 1159 1288 1364 580 
Q 1569 -128 1984 -844 
L 1484 -844 
Q 1016 -109 783 600 
Q 550 1309 550 2009 
Q 550 2706 781 3412 
Q 1013 4119 1484 4856 
L 1984 4856 
z
" transform="scale(0.015625)"/>
      <path id="DejaVuSans-2c" d="M 750 794 
L 1409 794 
L 1409 256 
L 897 -744 
L 494 -744 
L 750 256 
L 750 794 
z
" transform="scale(0.015625)"/>
      <path id="DejaVuSans-29" d="M 513 4856 
L 1013 4856 
Q 1481 4119 1714 3412 
Q 1947 2706 1947 2009 
Q 1947 1309 1714 600 
Q 1481 -109 1013 -844 
L 513 -844 
Q 928 -128 1133 580 
Q 1338 1288 1338 2009 
Q 1338 2731 1133 3434 
Q 928 4138 513 4856 
z
" transform="scale(0.015625)"/>
      <path id="DejaVuSans-78" d="M 3513 3500 
L 2247 1797 
L 3578 0 
L 2900 0 
L 1881 1375 
L 863 0 
L 184 0 
L 1544 1831 
L 300 3500 
L 978 3500 
L 1906 2253 
L 2834 3500 
L 3513 3500 
z
" transform="scale(0.015625)"/>
      <path id="DejaVuSans-3d" d="M 678 2906 
L 4684 2906 
L 4684 2381 
L 678 2381 
L 678 2906 
z
M 678 1631 
L 4684 1631 
L 4684 1100 
L 678 1100 
L 678 1631 
z
" transform="scale(0.015625)"/>
      <path id="DejaVuSans-2e" d="M 684 794 
L 1344 794 
L 1344 0 
L 684 0 
L 684 794 
z
" transform="scale(0.015625)"/>
      <path id="DejaVuSans-35" d="M 691 4666 
L 3169 4666 
L 3169 4134 
L 1269 4134 
L 1269 2991 
Q 1406 3038 1543 3061 
Q 1681 3084 1819 3084 
Q 2600 3084 3056 2656 
Q 3513 2228 3513 1497 
Q 3513 744 3044 326 
Q 2575 -91 1722 -91 
Q 1428 -91 1123 -41 
Q 819 9 494 109 
L 494 744 
Q 775 591 1075 516 
Q 1375 441 1709 441 
Q 2250 441 2565 725 
Q 2881 1009 2881 1497 
Q 2881 1984 2565 2268 
Q 2250 2553 1709 2553 
Q 1456 2553 1204 2497 
Q 953 2441 691 2322 
L 691 4666 
z
" transform="scale(0.015625)"/>
      <path id="DejaVuSans-38" d="M 2034 2216 
Q 1584 2216 1326 1975 
Q 1069 1734 1069 1313 
Q 1069 891 1326 650 
Q 1584 409 2034 409 
Q 2484 409 2743 651 
Q 3003 894 3003 1313 
Q 3003 1734 2745 1975 
Q 2488 2216 2034 2216 
z
M 1403 2484 
Q 997 2584 770 2862 
Q 544 3141 544 3541 
Q 544 4100 942 4425 
Q 1341 4750 2034 4750 
Q 2731 4750 3128 4425 
Q 3525 4100 3525 3541 
Q 3525 3141 3298 2862 
Q 3072 2584 2669 2484 
Q 3125 2378 3379 2068 
Q 3634 1759 3634 1313 
Q 3634 634 3220 271 
Q 2806 -91 2034 -91 
Q 1263 -91 848 271 
Q 434 634 434 1313 
Q 434 1759 690 2068 
Q 947 2378 1403 2484 
z
M 1172 3481 
Q 1172 3119 1398 2916 
Q 1625 2713 2034 2713 
Q 2441 2713 2670 2916 
Q 2900 3119 2900 3481 
Q 2900 3844 2670 4047 
Q 2441 4250 2034 4250 
Q 1625 4250 1398 4047 
Q 1172 3844 1172 3481 
z
" transform="scale(0.015625)"/>
      <path id="DejaVuSans-39" d="M 703 97 
L 703 672 
Q 941 559 1184 500 
Q 1428 441 1663 441 
Q 2288 441 2617 861 
Q 2947 1281 2994 2138 
Q 2813 1869 2534 1725 
Q 2256 1581 1919 1581 
Q 1219 1581 811 2004 
Q 403 2428 403 3163 
Q 403 3881 828 4315 
Q 1253 4750 1959 4750 
Q 2769 4750 3195 4129 
Q 3622 3509 3622 2328 
Q 3622 1225 3098 567 
Q 2575 -91 1691 -91 
Q 1453 -91 1209 -44 
Q 966 3 703 97 
z
M 1959 2075 
Q 2384 2075 2632 2365 
Q 2881 2656 2881 3163 
Q 2881 3666 2632 3958 
Q 2384 4250 1959 4250 
Q 1534 4250 1286 3958 
Q 1038 3666 1038 3163 
Q 1038 2656 1286 2365 
Q 1534 2075 1959 2075 
z
" transform="scale(0.015625)"/>
     </defs>
     <use xlink:href="#DejaVuSans-41"/>
     <use xlink:href="#DejaVuSans-52" x="68.408203"/>
     <use xlink:href="#DejaVuSans-49" x="137.890625"/>
     <use xlink:href="#DejaVuSans-4d" x="167.382812"/>
     <use xlink:href="#DejaVuSans-41" x="253.662109"/>
     <use xlink:href="#DejaVuSans-20" x="322.070312"/>
     <use xlink:href="#DejaVuSans-28" x="353.857422"/>
     <use xlink:href="#DejaVuSans-31" x="392.871094"/>
     <use xlink:href="#DejaVuSans-2c" x="456.494141"/>
     <use xlink:href="#DejaVuSans-20" x="488.28125"/>
     <use xlink:href="#DejaVuSans-31" x="520.068359"/>
     <use xlink:href="#DejaVuSans-2c" x="583.691406"/>
     <use xlink:href="#DejaVuSans-20" x="615.478516"/>
     <use xlink:href="#DejaVuSans-31" x="647.265625"/>
     <use xlink:href="#DejaVuSans-29" x="710.888672"/>
     <use xlink:href="#DejaVuSans-78" x="749.902344"/>
     <use xlink:href="#DejaVuSans-28" x="809.082031"/>
     <use xlink:href="#DejaVuSans-31" x="848.095703"/>
     <use xlink:href="#DejaVuSans-2c" x="911.71875"/>
     <use xlink:href="#DejaVuSans-20" x="943.505859"/>
     <use xlink:href="#DejaVuSans-30" x="975.292969"/>
     <use xlink:href="#DejaVuSans-2c" x="1038.916016"/>
     <use xlink:href="#DejaVuSans-20" x="1070.703125"/>
     <use xlink:href="#DejaVuSans-31" x="1102.490234"/>
     <use xlink:href="#DejaVuSans-2c" x="1166.113281"/>
     <use xlink:href="#DejaVuSans-20" x="1197.900391"/>
     <use xlink:href="#DejaVuSans-37" x="1229.6875"/>
     <use xlink:href="#DejaVuSans-29" x="1293.310547"/>
     <use xlink:href="#DejaVuSans-20" x="1332.324219"/>
     <use xlink:href="#DejaVuSans-28" x="1364.111328"/>
     <use xlink:href="#DejaVuSans-52" x="1403.125"/>
     <use xlink:href="#DejaVuSans-32" x="1472.607422"/>
     <use xlink:href="#DejaVuSans-20" x="1536.230469"/>
     <use xlink:href="#DejaVuSans-3d" x="1568.017578"/>
     <use xlink:href="#DejaVuSans-20" x="1651.806641"/>
     <use xlink:href="#DejaVuSans-30" x="1683.59375"/>
     <use xlink:href="#DejaVuSans-2e" x="1747.216797"/>
     <use xlink:href="#DejaVuSans-34" x="1779.003906"/>
     <use xlink:href="#DejaVuSans-31" x="1842.626953"/>
     <use xlink:href="#DejaVuSans-37" x="1906.25"/>
     <use xlink:href="#DejaVuSans-35" x="1969.873047"/>
     <use xlink:href="#DejaVuSans-38" x="2033.496094"/>
     <use xlink:href="#DejaVuSans-39" x="2097.119141"/>
     <use xlink:href="#DejaVuSans-29" x="2160.742188"/>
    </g>
   </g>
   <g id="legend_1">
    <g id="patch_7">
     <path d="M 1283.15 87.789875 
L 1380.229688 87.789875 
Q 1382.229688 87.789875 1382.229688 85.789875 
L 1382.229688 42.7555 
Q 1382.229688 40.7555 1380.229688 40.7555 
L 1283.15 40.7555 
Q 1281.15 40.7555 1281.15 42.7555 
L 1281.15 85.789875 
Q 1281.15 87.789875 1283.15 87.789875 
z
" style="fill: #ffffff; opacity: 0.8; stroke: #cccccc; stroke-linejoin: miter"/>
    </g>
    <g id="line2d_21">
     <path d="M 1285.15 48.853937 
L 1295.15 48.853937 
L 1305.15 48.853937 
" style="fill: none; stroke: #0000ff; stroke-width: 1.5; stroke-linecap: square"/>
    </g>
    <g id="text_19">
     <!-- Actual Value -->
     <g transform="translate(1313.15 52.353937)scale(0.1 -0.1)">
      <defs>
       <path id="DejaVuSans-75" d="M 544 1381 
L 544 3500 
L 1119 3500 
L 1119 1403 
Q 1119 906 1312 657 
Q 1506 409 1894 409 
Q 2359 409 2629 706 
Q 2900 1003 2900 1516 
L 2900 3500 
L 3475 3500 
L 3475 0 
L 2900 0 
L 2900 538 
Q 2691 219 2414 64 
Q 2138 -91 1772 -91 
Q 1169 -91 856 284 
Q 544 659 544 1381 
z
M 1991 3584 
L 1991 3584 
z
" transform="scale(0.015625)"/>
       <path id="DejaVuSans-56" d="M 1831 0 
L 50 4666 
L 709 4666 
L 2188 738 
L 3669 4666 
L 4325 4666 
L 2547 0 
L 1831 0 
z
" transform="scale(0.015625)"/>
      </defs>
      <use xlink:href="#DejaVuSans-41"/>
      <use xlink:href="#DejaVuSans-63" x="66.658203"/>
      <use xlink:href="#DejaVuSans-74" x="121.638672"/>
      <use xlink:href="#DejaVuSans-75" x="160.847656"/>
      <use xlink:href="#DejaVuSans-61" x="224.226562"/>
      <use xlink:href="#DejaVuSans-6c" x="285.505859"/>
      <use xlink:href="#DejaVuSans-20" x="313.289062"/>
      <use xlink:href="#DejaVuSans-56" x="345.076172"/>
      <use xlink:href="#DejaVuSans-61" x="405.734375"/>
      <use xlink:href="#DejaVuSans-6c" x="467.013672"/>
      <use xlink:href="#DejaVuSans-75" x="494.796875"/>
      <use xlink:href="#DejaVuSans-65" x="558.175781"/>
     </g>
    </g>
    <g id="line2d_22">
     <path d="M 1285.15 63.532062 
L 1295.15 63.532062 
L 1305.15 63.532062 
" style="fill: none; stroke: #ffa500; stroke-width: 1.5; stroke-linecap: square"/>
    </g>
    <g id="text_20">
     <!-- Check Value -->
     <g transform="translate(1313.15 67.032062)scale(0.1 -0.1)">
      <defs>
       <path id="DejaVuSans-68" d="M 3513 2113 
L 3513 0 
L 2938 0 
L 2938 2094 
Q 2938 2591 2744 2837 
Q 2550 3084 2163 3084 
Q 1697 3084 1428 2787 
Q 1159 2491 1159 1978 
L 1159 0 
L 581 0 
L 581 4863 
L 1159 4863 
L 1159 2956 
Q 1366 3272 1645 3428 
Q 1925 3584 2291 3584 
Q 2894 3584 3203 3211 
Q 3513 2838 3513 2113 
z
" transform="scale(0.015625)"/>
       <path id="DejaVuSans-6b" d="M 581 4863 
L 1159 4863 
L 1159 1991 
L 2875 3500 
L 3609 3500 
L 1753 1863 
L 3688 0 
L 2938 0 
L 1159 1709 
L 1159 0 
L 581 0 
L 581 4863 
z
" transform="scale(0.015625)"/>
      </defs>
      <use xlink:href="#DejaVuSans-43"/>
      <use xlink:href="#DejaVuSans-68" x="69.824219"/>
      <use xlink:href="#DejaVuSans-65" x="133.203125"/>
      <use xlink:href="#DejaVuSans-63" x="194.726562"/>
      <use xlink:href="#DejaVuSans-6b" x="249.707031"/>
      <use xlink:href="#DejaVuSans-20" x="307.617188"/>
      <use xlink:href="#DejaVuSans-56" x="339.404297"/>
      <use xlink:href="#DejaVuSans-61" x="400.0625"/>
      <use xlink:href="#DejaVuSans-6c" x="461.341797"/>
      <use xlink:href="#DejaVuSans-75" x="489.125"/>
      <use xlink:href="#DejaVuSans-65" x="552.503906"/>
     </g>
    </g>
    <g id="line2d_23">
     <path d="M 1285.15 78.210187 
L 1295.15 78.210187 
L 1305.15 78.210187 
" style="fill: none; stroke: #ff0000; stroke-width: 1.5; stroke-linecap: square"/>
    </g>
    <g id="text_21">
     <!-- Predict Value -->
     <g transform="translate(1313.15 81.710187)scale(0.1 -0.1)">
      <defs>
       <path id="DejaVuSans-50" d="M 1259 4147 
L 1259 2394 
L 2053 2394 
Q 2494 2394 2734 2622 
Q 2975 2850 2975 3272 
Q 2975 3691 2734 3919 
Q 2494 4147 2053 4147 
L 1259 4147 
z
M 628 4666 
L 2053 4666 
Q 2838 4666 3239 4311 
Q 3641 3956 3641 3272 
Q 3641 2581 3239 2228 
Q 2838 1875 2053 1875 
L 1259 1875 
L 1259 0 
L 628 0 
L 628 4666 
z
" transform="scale(0.015625)"/>
      </defs>
      <use xlink:href="#DejaVuSans-50"/>
      <use xlink:href="#DejaVuSans-72" x="58.552734"/>
      <use xlink:href="#DejaVuSans-65" x="97.416016"/>
      <use xlink:href="#DejaVuSans-64" x="158.939453"/>
      <use xlink:href="#DejaVuSans-69" x="222.416016"/>
      <use xlink:href="#DejaVuSans-63" x="250.199219"/>
      <use xlink:href="#DejaVuSans-74" x="305.179688"/>
      <use xlink:href="#DejaVuSans-20" x="344.388672"/>
      <use xlink:href="#DejaVuSans-56" x="376.175781"/>
      <use xlink:href="#DejaVuSans-61" x="436.833984"/>
      <use xlink:href="#DejaVuSans-6c" x="498.113281"/>
      <use xlink:href="#DejaVuSans-75" x="525.896484"/>
      <use xlink:href="#DejaVuSans-65" x="589.275391"/>
     </g>
    </g>
   </g>
  </g>
 </g>
 <defs>
  <clipPath id="pdb5d1e03b9">
   <rect x="48.029688" y="35.7555" width="1339.2" height="332.64"/>
  </clipPath>
 </defs>
</svg>
