<?xml version="1.0" encoding="utf-8" standalone="no"?>
<!DOCTYPE svg PUBLIC "-//W3C//DTD SVG 1.1//EN"
  "http://www.w3.org/Graphics/SVG/1.1/DTD/svg11.dtd">
<svg xmlns:xlink="http://www.w3.org/1999/xlink" width="1386.05pt" height="392.273625pt" viewBox="0 0 1386.05 392.273625" xmlns="http://www.w3.org/2000/svg" version="1.1">
 <metadata>
  <rdf:RDF xmlns:dc="http://purl.org/dc/elements/1.1/" xmlns:cc="http://creativecommons.org/ns#" xmlns:rdf="http://www.w3.org/1999/02/22-rdf-syntax-ns#">
   <cc:Work>
    <dc:type rdf:resource="http://purl.org/dc/dcmitype/StillImage"/>
    <dc:date>2022-07-08T17:42:19.516097</dc:date>
    <dc:format>image/svg+xml</dc:format>
    <dc:creator>
     <cc:Agent>
      <dc:title>Matplotlib v3.5.2, https://matplotlib.org/</dc:title>
     </cc:Agent>
    </dc:creator>
   </cc:Work>
  </rdf:RDF>
 </metadata>
 <defs>
  <style type="text/css">*{stroke-linejoin: round; stroke-linecap: butt}</style>
 </defs>
 <g id="figure_1">
  <g id="patch_1">
   <path d="M 0 392.273625 
L 1386.05 392.273625 
L 1386.05 0 
L 0 0 
z
" style="fill: #ffffff"/>
  </g>
  <g id="axes_1">
   <g id="patch_2">
    <path d="M 39.65 368.3955 
L 1378.85 368.3955 
L 1378.85 35.7555 
L 39.65 35.7555 
z
" style="fill: #ffffff"/>
   </g>
   <g id="matplotlib.axis_1">
    <g id="xtick_1">
     <g id="line2d_1">
      <defs>
       <path id="m2f7ed9e120" d="M 0 0 
L 0 3.5 
" style="stroke: #000000; stroke-width: 0.8"/>
      </defs>
      <g>
       <use xlink:href="#m2f7ed9e120" x="71.057381" y="368.3955" style="stroke: #000000; stroke-width: 0.8"/>
      </g>
     </g>
     <g id="text_1">
      <!-- 2020-01 -->
      <g transform="translate(50.165974 382.993937)scale(0.1 -0.1)">
       <defs>
        <path id="DejaVuSans-32" d="M 1228 531 
L 3431 531 
L 3431 0 
L 469 0 
L 469 531 
Q 828 903 1448 1529 
Q 2069 2156 2228 2338 
Q 2531 2678 2651 2914 
Q 2772 3150 2772 3378 
Q 2772 3750 2511 3984 
Q 2250 4219 1831 4219 
Q 1534 4219 1204 4116 
Q 875 4013 500 3803 
L 500 4441 
Q 881 4594 1212 4672 
Q 1544 4750 1819 4750 
Q 2544 4750 2975 4387 
Q 3406 4025 3406 3419 
Q 3406 3131 3298 2873 
Q 3191 2616 2906 2266 
Q 2828 2175 2409 1742 
Q 1991 1309 1228 531 
z
" transform="scale(0.015625)"/>
        <path id="DejaVuSans-30" d="M 2034 4250 
Q 1547 4250 1301 3770 
Q 1056 3291 1056 2328 
Q 1056 1369 1301 889 
Q 1547 409 2034 409 
Q 2525 409 2770 889 
Q 3016 1369 3016 2328 
Q 3016 3291 2770 3770 
Q 2525 4250 2034 4250 
z
M 2034 4750 
Q 2819 4750 3233 4129 
Q 3647 3509 3647 2328 
Q 3647 1150 3233 529 
Q 2819 -91 2034 -91 
Q 1250 -91 836 529 
Q 422 1150 422 2328 
Q 422 3509 836 4129 
Q 1250 4750 2034 4750 
z
" transform="scale(0.015625)"/>
        <path id="DejaVuSans-2d" d="M 313 2009 
L 1997 2009 
L 1997 1497 
L 313 1497 
L 313 2009 
z
" transform="scale(0.015625)"/>
        <path id="DejaVuSans-31" d="M 794 531 
L 1825 531 
L 1825 4091 
L 703 3866 
L 703 4441 
L 1819 4666 
L 2450 4666 
L 2450 531 
L 3481 531 
L 3481 0 
L 794 0 
L 794 531 
z
" transform="scale(0.015625)"/>
       </defs>
       <use xlink:href="#DejaVuSans-32"/>
       <use xlink:href="#DejaVuSans-30" x="63.623047"/>
       <use xlink:href="#DejaVuSans-32" x="127.246094"/>
       <use xlink:href="#DejaVuSans-30" x="190.869141"/>
       <use xlink:href="#DejaVuSans-2d" x="254.492188"/>
       <use xlink:href="#DejaVuSans-30" x="290.576172"/>
       <use xlink:href="#DejaVuSans-31" x="354.199219"/>
      </g>
     </g>
    </g>
    <g id="xtick_2">
     <g id="line2d_2">
      <g>
       <use xlink:href="#m2f7ed9e120" x="192.936769" y="368.3955" style="stroke: #000000; stroke-width: 0.8"/>
      </g>
     </g>
     <g id="text_2">
      <!-- 2020-04 -->
      <g transform="translate(172.045362 382.993937)scale(0.1 -0.1)">
       <defs>
        <path id="DejaVuSans-34" d="M 2419 4116 
L 825 1625 
L 2419 1625 
L 2419 4116 
z
M 2253 4666 
L 3047 4666 
L 3047 1625 
L 3713 1625 
L 3713 1100 
L 3047 1100 
L 3047 0 
L 2419 0 
L 2419 1100 
L 313 1100 
L 313 1709 
L 2253 4666 
z
" transform="scale(0.015625)"/>
       </defs>
       <use xlink:href="#DejaVuSans-32"/>
       <use xlink:href="#DejaVuSans-30" x="63.623047"/>
       <use xlink:href="#DejaVuSans-32" x="127.246094"/>
       <use xlink:href="#DejaVuSans-30" x="190.869141"/>
       <use xlink:href="#DejaVuSans-2d" x="254.492188"/>
       <use xlink:href="#DejaVuSans-30" x="290.576172"/>
       <use xlink:href="#DejaVuSans-34" x="354.199219"/>
      </g>
     </g>
    </g>
    <g id="xtick_3">
     <g id="line2d_3">
      <g>
       <use xlink:href="#m2f7ed9e120" x="314.816157" y="368.3955" style="stroke: #000000; stroke-width: 0.8"/>
      </g>
     </g>
     <g id="text_3">
      <!-- 2020-07 -->
      <g transform="translate(293.92475 382.993937)scale(0.1 -0.1)">
       <defs>
        <path id="DejaVuSans-37" d="M 525 4666 
L 3525 4666 
L 3525 4397 
L 1831 0 
L 1172 0 
L 2766 4134 
L 525 4134 
L 525 4666 
z
" transform="scale(0.015625)"/>
       </defs>
       <use xlink:href="#DejaVuSans-32"/>
       <use xlink:href="#DejaVuSans-30" x="63.623047"/>
       <use xlink:href="#DejaVuSans-32" x="127.246094"/>
       <use xlink:href="#DejaVuSans-30" x="190.869141"/>
       <use xlink:href="#DejaVuSans-2d" x="254.492188"/>
       <use xlink:href="#DejaVuSans-30" x="290.576172"/>
       <use xlink:href="#DejaVuSans-37" x="354.199219"/>
      </g>
     </g>
    </g>
    <g id="xtick_4">
     <g id="line2d_4">
      <g>
       <use xlink:href="#m2f7ed9e120" x="438.034878" y="368.3955" style="stroke: #000000; stroke-width: 0.8"/>
      </g>
     </g>
     <g id="text_4">
      <!-- 2020-10 -->
      <g transform="translate(417.143472 382.993937)scale(0.1 -0.1)">
       <use xlink:href="#DejaVuSans-32"/>
       <use xlink:href="#DejaVuSans-30" x="63.623047"/>
       <use xlink:href="#DejaVuSans-32" x="127.246094"/>
       <use xlink:href="#DejaVuSans-30" x="190.869141"/>
       <use xlink:href="#DejaVuSans-2d" x="254.492188"/>
       <use xlink:href="#DejaVuSans-31" x="290.576172"/>
       <use xlink:href="#DejaVuSans-30" x="354.199219"/>
      </g>
     </g>
    </g>
    <g id="xtick_5">
     <g id="line2d_5">
      <g>
       <use xlink:href="#m2f7ed9e120" x="561.2536" y="368.3955" style="stroke: #000000; stroke-width: 0.8"/>
      </g>
     </g>
     <g id="text_5">
      <!-- 2021-01 -->
      <g transform="translate(540.362194 382.993937)scale(0.1 -0.1)">
       <use xlink:href="#DejaVuSans-32"/>
       <use xlink:href="#DejaVuSans-30" x="63.623047"/>
       <use xlink:href="#DejaVuSans-32" x="127.246094"/>
       <use xlink:href="#DejaVuSans-31" x="190.869141"/>
       <use xlink:href="#DejaVuSans-2d" x="254.492188"/>
       <use xlink:href="#DejaVuSans-30" x="290.576172"/>
       <use xlink:href="#DejaVuSans-31" x="354.199219"/>
      </g>
     </g>
    </g>
    <g id="xtick_6">
     <g id="line2d_6">
      <g>
       <use xlink:href="#m2f7ed9e120" x="681.793654" y="368.3955" style="stroke: #000000; stroke-width: 0.8"/>
      </g>
     </g>
     <g id="text_6">
      <!-- 2021-04 -->
      <g transform="translate(660.902248 382.993937)scale(0.1 -0.1)">
       <use xlink:href="#DejaVuSans-32"/>
       <use xlink:href="#DejaVuSans-30" x="63.623047"/>
       <use xlink:href="#DejaVuSans-32" x="127.246094"/>
       <use xlink:href="#DejaVuSans-31" x="190.869141"/>
       <use xlink:href="#DejaVuSans-2d" x="254.492188"/>
       <use xlink:href="#DejaVuSans-30" x="290.576172"/>
       <use xlink:href="#DejaVuSans-34" x="354.199219"/>
      </g>
     </g>
    </g>
    <g id="xtick_7">
     <g id="line2d_7">
      <g>
       <use xlink:href="#m2f7ed9e120" x="803.673042" y="368.3955" style="stroke: #000000; stroke-width: 0.8"/>
      </g>
     </g>
     <g id="text_7">
      <!-- 2021-07 -->
      <g transform="translate(782.781636 382.993937)scale(0.1 -0.1)">
       <use xlink:href="#DejaVuSans-32"/>
       <use xlink:href="#DejaVuSans-30" x="63.623047"/>
       <use xlink:href="#DejaVuSans-32" x="127.246094"/>
       <use xlink:href="#DejaVuSans-31" x="190.869141"/>
       <use xlink:href="#DejaVuSans-2d" x="254.492188"/>
       <use xlink:href="#DejaVuSans-30" x="290.576172"/>
       <use xlink:href="#DejaVuSans-37" x="354.199219"/>
      </g>
     </g>
    </g>
    <g id="xtick_8">
     <g id="line2d_8">
      <g>
       <use xlink:href="#m2f7ed9e120" x="926.891764" y="368.3955" style="stroke: #000000; stroke-width: 0.8"/>
      </g>
     </g>
     <g id="text_8">
      <!-- 2021-10 -->
      <g transform="translate(906.000358 382.993937)scale(0.1 -0.1)">
       <use xlink:href="#DejaVuSans-32"/>
       <use xlink:href="#DejaVuSans-30" x="63.623047"/>
       <use xlink:href="#DejaVuSans-32" x="127.246094"/>
       <use xlink:href="#DejaVuSans-31" x="190.869141"/>
       <use xlink:href="#DejaVuSans-2d" x="254.492188"/>
       <use xlink:href="#DejaVuSans-31" x="290.576172"/>
       <use xlink:href="#DejaVuSans-30" x="354.199219"/>
      </g>
     </g>
    </g>
    <g id="xtick_9">
     <g id="line2d_9">
      <g>
       <use xlink:href="#m2f7ed9e120" x="1050.110486" y="368.3955" style="stroke: #000000; stroke-width: 0.8"/>
      </g>
     </g>
     <g id="text_9">
      <!-- 2022-01 -->
      <g transform="translate(1029.21908 382.993937)scale(0.1 -0.1)">
       <use xlink:href="#DejaVuSans-32"/>
       <use xlink:href="#DejaVuSans-30" x="63.623047"/>
       <use xlink:href="#DejaVuSans-32" x="127.246094"/>
       <use xlink:href="#DejaVuSans-32" x="190.869141"/>
       <use xlink:href="#DejaVuSans-2d" x="254.492188"/>
       <use xlink:href="#DejaVuSans-30" x="290.576172"/>
       <use xlink:href="#DejaVuSans-31" x="354.199219"/>
      </g>
     </g>
    </g>
    <g id="xtick_10">
     <g id="line2d_10">
      <g>
       <use xlink:href="#m2f7ed9e120" x="1170.65054" y="368.3955" style="stroke: #000000; stroke-width: 0.8"/>
      </g>
     </g>
     <g id="text_10">
      <!-- 2022-04 -->
      <g transform="translate(1149.759134 382.993937)scale(0.1 -0.1)">
       <use xlink:href="#DejaVuSans-32"/>
       <use xlink:href="#DejaVuSans-30" x="63.623047"/>
       <use xlink:href="#DejaVuSans-32" x="127.246094"/>
       <use xlink:href="#DejaVuSans-32" x="190.869141"/>
       <use xlink:href="#DejaVuSans-2d" x="254.492188"/>
       <use xlink:href="#DejaVuSans-30" x="290.576172"/>
       <use xlink:href="#DejaVuSans-34" x="354.199219"/>
      </g>
     </g>
    </g>
    <g id="xtick_11">
     <g id="line2d_11">
      <g>
       <use xlink:href="#m2f7ed9e120" x="1292.529928" y="368.3955" style="stroke: #000000; stroke-width: 0.8"/>
      </g>
     </g>
     <g id="text_11">
      <!-- 2022-07 -->
      <g transform="translate(1271.638522 382.993937)scale(0.1 -0.1)">
       <use xlink:href="#DejaVuSans-32"/>
       <use xlink:href="#DejaVuSans-30" x="63.623047"/>
       <use xlink:href="#DejaVuSans-32" x="127.246094"/>
       <use xlink:href="#DejaVuSans-32" x="190.869141"/>
       <use xlink:href="#DejaVuSans-2d" x="254.492188"/>
       <use xlink:href="#DejaVuSans-30" x="290.576172"/>
       <use xlink:href="#DejaVuSans-37" x="354.199219"/>
      </g>
     </g>
    </g>
   </g>
   <g id="matplotlib.axis_2">
    <g id="ytick_1">
     <g id="line2d_12">
      <defs>
       <path id="m5d4c43fda4" d="M 0 0 
L -3.5 0 
" style="stroke: #000000; stroke-width: 0.8"/>
      </defs>
      <g>
       <use xlink:href="#m5d4c43fda4" x="39.65" y="350.206469" style="stroke: #000000; stroke-width: 0.8"/>
      </g>
     </g>
     <g id="text_12">
      <!-- 0 -->
      <g transform="translate(26.2875 354.005688)scale(0.1 -0.1)">
       <use xlink:href="#DejaVuSans-30"/>
      </g>
     </g>
    </g>
    <g id="ytick_2">
     <g id="line2d_13">
      <g>
       <use xlink:href="#m5d4c43fda4" x="39.65" y="302.505831" style="stroke: #000000; stroke-width: 0.8"/>
      </g>
     </g>
     <g id="text_13">
      <!-- 500 -->
      <g transform="translate(13.5625 306.30505)scale(0.1 -0.1)">
       <defs>
        <path id="DejaVuSans-35" d="M 691 4666 
L 3169 4666 
L 3169 4134 
L 1269 4134 
L 1269 2991 
Q 1406 3038 1543 3061 
Q 1681 3084 1819 3084 
Q 2600 3084 3056 2656 
Q 3513 2228 3513 1497 
Q 3513 744 3044 326 
Q 2575 -91 1722 -91 
Q 1428 -91 1123 -41 
Q 819 9 494 109 
L 494 744 
Q 775 591 1075 516 
Q 1375 441 1709 441 
Q 2250 441 2565 725 
Q 2881 1009 2881 1497 
Q 2881 1984 2565 2268 
Q 2250 2553 1709 2553 
Q 1456 2553 1204 2497 
Q 953 2441 691 2322 
L 691 4666 
z
" transform="scale(0.015625)"/>
       </defs>
       <use xlink:href="#DejaVuSans-35"/>
       <use xlink:href="#DejaVuSans-30" x="63.623047"/>
       <use xlink:href="#DejaVuSans-30" x="127.246094"/>
      </g>
     </g>
    </g>
    <g id="ytick_3">
     <g id="line2d_14">
      <g>
       <use xlink:href="#m5d4c43fda4" x="39.65" y="254.805193" style="stroke: #000000; stroke-width: 0.8"/>
      </g>
     </g>
     <g id="text_14">
      <!-- 1000 -->
      <g transform="translate(7.2 258.604411)scale(0.1 -0.1)">
       <use xlink:href="#DejaVuSans-31"/>
       <use xlink:href="#DejaVuSans-30" x="63.623047"/>
       <use xlink:href="#DejaVuSans-30" x="127.246094"/>
       <use xlink:href="#DejaVuSans-30" x="190.869141"/>
      </g>
     </g>
    </g>
    <g id="ytick_4">
     <g id="line2d_15">
      <g>
       <use xlink:href="#m5d4c43fda4" x="39.65" y="207.104554" style="stroke: #000000; stroke-width: 0.8"/>
      </g>
     </g>
     <g id="text_15">
      <!-- 1500 -->
      <g transform="translate(7.2 210.903773)scale(0.1 -0.1)">
       <use xlink:href="#DejaVuSans-31"/>
       <use xlink:href="#DejaVuSans-35" x="63.623047"/>
       <use xlink:href="#DejaVuSans-30" x="127.246094"/>
       <use xlink:href="#DejaVuSans-30" x="190.869141"/>
      </g>
     </g>
    </g>
    <g id="ytick_5">
     <g id="line2d_16">
      <g>
       <use xlink:href="#m5d4c43fda4" x="39.65" y="159.403916" style="stroke: #000000; stroke-width: 0.8"/>
      </g>
     </g>
     <g id="text_16">
      <!-- 2000 -->
      <g transform="translate(7.2 163.203135)scale(0.1 -0.1)">
       <use xlink:href="#DejaVuSans-32"/>
       <use xlink:href="#DejaVuSans-30" x="63.623047"/>
       <use xlink:href="#DejaVuSans-30" x="127.246094"/>
       <use xlink:href="#DejaVuSans-30" x="190.869141"/>
      </g>
     </g>
    </g>
    <g id="ytick_6">
     <g id="line2d_17">
      <g>
       <use xlink:href="#m5d4c43fda4" x="39.65" y="111.703278" style="stroke: #000000; stroke-width: 0.8"/>
      </g>
     </g>
     <g id="text_17">
      <!-- 2500 -->
      <g transform="translate(7.2 115.502496)scale(0.1 -0.1)">
       <use xlink:href="#DejaVuSans-32"/>
       <use xlink:href="#DejaVuSans-35" x="63.623047"/>
       <use xlink:href="#DejaVuSans-30" x="127.246094"/>
       <use xlink:href="#DejaVuSans-30" x="190.869141"/>
      </g>
     </g>
    </g>
    <g id="ytick_7">
     <g id="line2d_18">
      <g>
       <use xlink:href="#m5d4c43fda4" x="39.65" y="64.002639" style="stroke: #000000; stroke-width: 0.8"/>
      </g>
     </g>
     <g id="text_18">
      <!-- 3000 -->
      <g transform="translate(7.2 67.801858)scale(0.1 -0.1)">
       <defs>
        <path id="DejaVuSans-33" d="M 2597 2516 
Q 3050 2419 3304 2112 
Q 3559 1806 3559 1356 
Q 3559 666 3084 287 
Q 2609 -91 1734 -91 
Q 1441 -91 1130 -33 
Q 819 25 488 141 
L 488 750 
Q 750 597 1062 519 
Q 1375 441 1716 441 
Q 2309 441 2620 675 
Q 2931 909 2931 1356 
Q 2931 1769 2642 2001 
Q 2353 2234 1838 2234 
L 1294 2234 
L 1294 2753 
L 1863 2753 
Q 2328 2753 2575 2939 
Q 2822 3125 2822 3475 
Q 2822 3834 2567 4026 
Q 2313 4219 1838 4219 
Q 1578 4219 1281 4162 
Q 984 4106 628 3988 
L 628 4550 
Q 988 4650 1302 4700 
Q 1616 4750 1894 4750 
Q 2613 4750 3031 4423 
Q 3450 4097 3450 3541 
Q 3450 3153 3228 2886 
Q 3006 2619 2597 2516 
z
" transform="scale(0.015625)"/>
       </defs>
       <use xlink:href="#DejaVuSans-33"/>
       <use xlink:href="#DejaVuSans-30" x="63.623047"/>
       <use xlink:href="#DejaVuSans-30" x="127.246094"/>
       <use xlink:href="#DejaVuSans-30" x="190.869141"/>
      </g>
     </g>
    </g>
   </g>
   <g id="line2d_19">
    <path d="M 100.522727 350.206469 
L 171.507426 350.206469 
L 174.186094 349.920265 
L 175.525428 348.966253 
L 178.204095 350.015667 
L 179.543429 350.206469 
L 180.882763 350.015667 
L 183.561431 349.347858 
L 184.900765 349.634062 
L 186.240099 348.584648 
L 187.579433 347.726036 
L 188.918767 349.824864 
L 190.258101 349.157055 
L 191.597435 348.966253 
L 192.936769 346.676622 
L 194.276103 348.870851 
L 195.615437 348.966253 
L 196.95477 348.203042 
L 198.294104 348.489246 
L 199.633438 349.061654 
L 200.972772 348.870851 
L 202.312106 348.489246 
L 203.65144 349.347858 
L 204.990774 348.77545 
L 206.330108 348.77545 
L 207.669442 348.01224 
L 209.008776 349.252456 
L 210.34811 348.01224 
L 211.687444 347.535233 
L 213.026778 345.818011 
L 214.366112 341.620354 
L 215.705446 344.863998 
L 217.044779 346.199616 
L 218.384113 348.489246 
L 219.723447 347.058227 
L 221.062781 347.153628 
L 222.402115 346.581221 
L 223.741449 344.863998 
L 225.080783 344.100788 
L 226.420117 343.051373 
L 227.759451 345.531807 
L 230.438119 346.962826 
L 233.116787 345.818011 
L 234.456121 346.581221 
L 235.795455 346.962826 
L 237.134788 346.390418 
L 238.474122 344.863998 
L 239.813456 345.531807 
L 241.15279 345.150202 
L 243.831458 347.726036 
L 245.170792 347.726036 
L 246.510126 345.245603 
L 247.84946 343.242176 
L 249.188794 343.814584 
L 250.528128 345.341004 
L 251.867462 341.906558 
L 253.206796 345.341004 
L 254.54613 347.24903 
L 255.885464 344.482393 
L 258.564131 340.666342 
L 259.903465 343.52838 
L 261.242799 345.436405 
L 262.582133 345.0548 
L 263.921467 346.390418 
L 265.260801 346.104214 
L 266.600135 348.584648 
L 267.939469 346.295017 
L 269.278803 346.390418 
L 270.618137 346.962826 
L 271.957471 348.01224 
L 273.296805 345.722609 
L 274.636139 348.107641 
L 275.975473 347.058227 
L 277.314806 347.726036 
L 278.65414 346.390418 
L 279.993474 343.432979 
L 282.672142 348.393845 
L 284.011476 348.107641 
L 285.35081 346.390418 
L 288.029478 346.772023 
L 289.368812 346.199616 
L 290.708146 348.107641 
L 293.386814 348.01224 
L 294.726148 346.485819 
L 296.065482 347.439832 
L 297.404815 347.153628 
L 298.744149 347.821437 
L 300.083483 346.676622 
L 301.422817 347.821437 
L 302.762151 349.53866 
L 304.101485 346.295017 
L 305.440819 347.153628 
L 306.780153 347.535233 
L 308.119487 346.676622 
L 309.458821 346.867425 
L 310.798155 345.818011 
L 312.137489 346.581221 
L 313.476823 346.485819 
L 314.816157 346.104214 
L 316.155491 344.196189 
L 317.494824 344.768596 
L 318.834158 346.772023 
L 320.173492 347.058227 
L 321.512826 345.341004 
L 322.85216 343.242176 
L 324.191494 340.761743 
L 325.530828 342.192762 
L 326.870162 341.811157 
L 328.209496 341.620354 
L 329.54883 340.475539 
L 330.888164 345.0548 
L 332.227498 343.432979 
L 333.566832 340.380138 
L 334.906166 338.472112 
L 336.2455 339.235322 
L 337.584833 339.521526 
L 338.924167 340.093934 
L 340.263501 342.478966 
L 341.602835 334.942265 
L 342.942169 338.376711 
L 344.281503 338.758316 
L 345.620837 338.662915 
L 346.960171 336.85029 
L 348.299505 339.616928 
L 349.638839 335.800876 
L 350.978173 341.715756 
L 352.317507 343.337577 
L 353.656841 334.274456 
L 354.996175 337.613501 
L 356.335509 344.863998 
L 357.674842 338.090507 
L 359.014176 335.991679 
L 360.35351 338.567513 
L 361.692844 338.567513 
L 363.032178 336.08708 
L 364.371512 333.129641 
L 365.710846 341.524953 
L 367.05018 339.04452 
L 368.389514 334.083653 
L 369.728848 341.906558 
L 371.068182 331.126214 
L 372.407516 335.705475 
L 373.74685 338.567513 
L 375.086184 336.754889 
L 376.425518 344.577794 
L 377.764851 337.518099 
L 379.104185 332.36643 
L 380.443519 324.066519 
L 381.782853 328.168774 
L 383.122187 325.783742 
L 384.461521 337.136494 
L 385.800855 338.376711 
L 387.140189 327.977972 
L 388.479523 327.88257 
L 389.818857 318.533245 
L 391.158191 320.918277 
L 392.497525 314.717194 
L 393.836859 329.122787 
L 395.176193 339.330724 
L 397.85486 325.020532 
L 399.194194 315.957411 
L 400.533528 317.960838 
L 401.872862 316.339016 
L 403.212196 321.776889 
L 404.55153 334.083653 
L 405.890864 343.146775 
L 407.230198 327.691768 
L 408.569532 318.342443 
L 409.908866 327.214762 
L 411.2482 305.844876 
L 412.587534 309.279322 
L 413.926868 326.165348 
L 415.266202 328.645781 
L 416.605536 324.925131 
L 417.944869 312.809169 
L 419.284203 302.124226 
L 420.623537 314.43099 
L 421.962871 316.62522 
L 423.302205 323.112507 
L 424.641539 325.115933 
L 425.980873 305.272468 
L 427.320207 305.749474 
L 428.659541 309.374723 
L 429.998875 302.792035 
L 431.338209 317.770035 
L 432.677543 325.59294 
L 434.016877 310.233334 
L 435.356211 307.848302 
L 436.695545 315.194201 
L 438.034878 305.844876 
L 439.374212 308.134506 
L 440.713546 311.091946 
L 442.05288 320.918277 
L 443.392214 302.41043 
L 444.731548 303.555245 
L 446.070882 300.407003 
L 447.410216 288.95885 
L 448.74955 293.347308 
L 450.088884 289.626659 
L 451.428218 305.177067 
L 452.767552 303.459844 
L 454.106886 286.955423 
L 455.44622 283.902582 
L 456.785554 266.348747 
L 458.124887 276.938289 
L 460.803555 287.718633 
L 462.142889 250.035129 
L 463.482223 300.502404 
L 464.821557 250.607536 
L 466.160891 264.917728 
L 467.500225 258.33504 
L 468.839559 269.306187 
L 470.178893 299.739194 
L 471.518227 264.440722 
L 472.857561 272.359027 
L 474.196895 233.339905 
L 475.536229 219.220516 
L 476.875563 211.30221 
L 478.214896 240.495001 
L 479.55423 257.858033 
L 480.893564 234.770924 
L 482.232898 238.586976 
L 483.572232 200.998873 
L 484.911566 178.197967 
L 486.2509 193.36677 
L 487.590234 243.834046 
L 488.929568 240.495001 
L 490.268902 260.147664 
L 491.608236 245.837473 
L 492.94757 176.766948 
L 494.286904 208.535573 
L 495.626238 129.447915 
L 496.965572 259.956862 
L 498.304905 247.077689 
L 499.644239 244.406453 
L 500.983573 223.131969 
L 502.322907 212.256223 
L 503.662241 215.690669 
L 505.001575 202.620694 
L 506.340909 238.777778 
L 507.680243 284.188786 
L 509.019577 249.081116 
L 510.358911 238.682377 
L 511.698245 255.282199 
L 513.037579 279.800327 
L 514.376913 275.793473 
L 515.716247 282.853168 
L 518.394914 306.321882 
L 519.734248 298.594379 
L 521.073582 253.374173 
L 522.412916 266.730352 
L 523.75225 293.156506 
L 526.430918 314.43099 
L 527.770252 294.96913 
L 529.109586 306.035678 
L 530.44892 297.067958 
L 531.788254 302.601232 
L 533.127588 315.385003 
L 534.466922 324.734328 
L 535.806256 331.984825 
L 537.14559 319.105653 
L 538.484923 322.826303 
L 539.824257 316.339016 
L 541.163591 303.650646 
L 542.502925 329.31359 
L 543.842259 328.168774 
L 545.181593 343.051373 
L 546.520927 319.296456 
L 547.860261 325.59294 
L 549.199595 328.931985 
L 550.538929 324.543526 
L 551.878263 339.235322 
L 553.217597 341.047947 
L 554.556931 341.715756 
L 555.896265 322.921704 
L 557.235599 317.579233 
L 558.574932 322.730902 
L 559.914266 325.306736 
L 561.2536 338.376711 
L 562.592934 334.751462 
L 563.932268 332.748036 
L 565.271602 327.11936 
L 566.610936 322.063093 
L 567.95027 319.773462 
L 569.289604 324.543526 
L 571.968272 341.811157 
L 573.307606 338.662915 
L 574.64694 326.642354 
L 575.986274 329.218188 
L 577.325608 327.405564 
L 578.664941 328.359577 
L 580.004275 338.28131 
L 581.343609 335.800876 
L 582.682943 343.623781 
L 584.022277 337.231896 
L 585.361611 335.419271 
L 586.700945 336.182482 
L 588.040279 332.652634 
L 589.379613 334.656061 
L 590.718947 341.143348 
L 592.058281 345.0548 
L 593.397615 337.804303 
L 594.736949 335.133068 
L 596.076283 336.468685 
L 597.415617 335.705475 
L 598.75495 340.380138 
L 600.094284 343.909985 
L 601.433618 346.104214 
L 602.772952 337.613501 
L 604.112286 337.041093 
L 605.45162 335.610074 
L 606.790954 341.524953 
L 608.130288 342.669768 
L 609.469622 345.818011 
L 610.808956 346.962826 
L 612.14829 340.857144 
L 613.487624 336.468685 
L 614.826958 337.231896 
L 617.505626 341.524953 
L 618.844959 345.722609 
L 620.184293 345.722609 
L 621.523627 337.518099 
L 622.862961 338.567513 
L 624.202295 337.518099 
L 625.541629 339.139921 
L 628.220297 345.913412 
L 629.559631 346.867425 
L 630.898965 340.380138 
L 632.238299 339.04452 
L 633.577633 341.811157 
L 634.916967 341.715756 
L 636.256301 343.814584 
L 637.595635 347.24903 
L 638.934968 346.008813 
L 640.274302 340.380138 
L 642.95297 338.949119 
L 644.292304 341.143348 
L 645.631638 342.574367 
L 646.970972 347.058227 
L 648.310306 347.630635 
L 649.64964 340.761743 
L 652.328308 339.712329 
L 653.667642 338.376711 
L 655.006976 340.952545 
L 656.34631 346.962826 
L 657.685644 347.821437 
L 659.024977 336.08708 
L 660.364311 337.804303 
L 661.703645 339.139921 
L 663.042979 339.235322 
L 664.382313 341.906558 
L 665.721647 345.818011 
L 667.060981 345.436405 
L 668.400315 334.465259 
L 669.739649 336.754889 
L 671.078983 331.221615 
L 672.418317 332.938838 
L 673.757651 334.942265 
L 675.096985 345.531807 
L 676.436319 344.959399 
L 677.775653 326.928558 
L 679.114986 330.0768 
L 680.45432 330.553806 
L 683.132988 338.662915 
L 684.472322 344.768596 
L 685.811656 343.146775 
L 687.15099 325.783742 
L 688.490324 331.698622 
L 689.829658 331.030813 
L 691.168992 338.662915 
L 692.508326 330.0768 
L 693.84766 345.627208 
L 695.186994 344.196189 
L 696.526328 328.359577 
L 697.865662 333.606647 
L 699.204995 334.274456 
L 700.544329 333.225042 
L 701.883663 336.945692 
L 703.222997 344.863998 
L 704.562331 345.531807 
L 705.901665 327.405564 
L 707.240999 333.415845 
L 708.580333 334.369857 
L 709.919667 335.610074 
L 711.259001 338.949119 
L 712.598335 345.436405 
L 713.937669 340.284736 
L 715.277003 332.080227 
L 716.616337 335.610074 
L 717.955671 336.277883 
L 719.295005 333.702048 
L 720.634338 334.56066 
L 721.973672 343.52838 
L 723.313006 344.959399 
L 724.65234 335.991679 
L 725.991674 333.892851 
L 727.331008 337.136494 
L 728.670342 338.662915 
L 730.009676 340.666342 
L 731.34901 346.390418 
L 732.688344 345.913412 
L 734.027678 338.28131 
L 735.367012 339.712329 
L 736.706346 339.139921 
L 738.04568 341.334151 
L 739.385014 342.192762 
L 740.724347 345.722609 
L 742.063681 347.24903 
L 743.403015 340.761743 
L 744.742349 338.853717 
L 746.081683 342.669768 
L 747.421017 343.719182 
L 748.760351 343.623781 
L 750.099685 347.726036 
L 751.439019 347.344431 
L 752.778353 342.669768 
L 754.117687 343.623781 
L 755.457021 346.485819 
L 756.796355 345.531807 
L 758.135689 345.818011 
L 759.475023 348.203042 
L 760.814356 349.443259 
L 762.15369 348.489246 
L 763.493024 342.192762 
L 764.832358 345.0548 
L 766.171692 345.245603 
L 767.511026 347.630635 
L 770.189694 348.680049 
L 771.529028 346.485819 
L 774.207696 345.245603 
L 775.54703 346.962826 
L 776.886364 346.581221 
L 778.225698 349.443259 
L 779.565032 349.443259 
L 780.904365 347.153628 
L 782.243699 348.298444 
L 783.583033 347.630635 
L 784.922367 347.821437 
L 787.601035 349.53866 
L 788.940369 349.729463 
L 790.279703 347.439832 
L 791.619037 348.77545 
L 792.958371 348.77545 
L 794.297705 348.393845 
L 795.637039 348.870851 
L 796.976373 349.634062 
L 798.315707 349.729463 
L 799.655041 348.966253 
L 800.994374 347.726036 
L 802.333708 348.966253 
L 806.35171 350.015667 
L 807.691044 349.347858 
L 809.030378 349.634062 
L 810.369712 347.439832 
L 811.709046 347.439832 
L 813.04838 348.77545 
L 814.387714 347.726036 
L 815.727048 349.252456 
L 817.066382 350.015667 
L 818.405716 346.199616 
L 819.74505 347.535233 
L 821.084383 347.535233 
L 822.423717 348.393845 
L 823.763051 347.821437 
L 825.102385 349.347858 
L 826.441719 349.157055 
L 827.781053 345.913412 
L 829.120387 347.726036 
L 831.799055 346.104214 
L 833.138389 346.008813 
L 834.477723 347.821437 
L 835.817057 347.630635 
L 837.156391 344.005386 
L 838.495725 342.478966 
L 839.835059 343.146775 
L 841.174392 342.192762 
L 842.513726 342.955972 
L 843.85306 347.24903 
L 845.192394 347.726036 
L 846.531728 336.945692 
L 847.871062 341.143348 
L 849.210396 339.139921 
L 850.54973 338.853717 
L 851.889064 339.139921 
L 853.228398 345.245603 
L 854.567732 344.673195 
L 855.907066 334.656061 
L 857.2464 333.79745 
L 858.585734 336.468685 
L 859.925068 333.415845 
L 861.264401 334.846864 
L 862.603735 339.80773 
L 863.943069 343.146775 
L 865.282403 324.82973 
L 866.621737 326.35615 
L 867.961071 326.833156 
L 869.300405 322.444698 
L 870.639739 329.504392 
L 871.979073 338.853717 
L 873.318407 340.189335 
L 874.657741 312.713768 
L 875.997075 315.671207 
L 877.336409 316.243615 
L 878.675743 322.921704 
L 880.015077 316.148213 
L 881.35441 333.892851 
L 882.693744 336.373284 
L 884.033078 301.074812 
L 885.372412 306.417283 
L 886.711746 299.834595 
L 888.05108 308.134506 
L 889.390414 306.989691 
L 890.729748 333.606647 
L 892.069082 337.136494 
L 893.408416 324.161921 
L 894.74775 289.626659 
L 896.087084 291.820888 
L 897.426418 290.389869 
L 898.765752 303.17364 
L 900.105086 330.0768 
L 901.444419 332.843437 
L 902.783753 315.480405 
L 904.123087 260.910874 
L 905.462421 295.255334 
L 906.801755 303.650646 
L 908.141089 303.364442 
L 909.480423 331.126214 
L 910.819757 329.408991 
L 912.159091 290.294467 
L 913.498425 289.245053 
L 914.837759 290.199066 
L 917.516427 288.672646 
L 918.855761 323.303309 
L 920.195095 329.31359 
L 921.534428 266.825753 
L 922.873762 271.691219 
L 924.213096 277.606098 
L 925.55243 288.100238 
L 926.891764 282.566964 
L 928.231098 324.734328 
L 929.570432 323.875717 
L 930.909766 268.638378 
L 932.2491 273.122238 
L 933.588434 283.330174 
L 934.927768 283.997983 
L 936.267102 297.92657 
L 937.606436 323.971118 
L 938.94577 328.359577 
L 940.285104 281.994556 
L 941.624437 287.432429 
L 942.963771 290.199066 
L 944.303105 296.781754 
L 945.642439 300.502404 
L 946.981773 329.218188 
L 948.321107 331.412418 
L 949.660441 280.945142 
L 950.999775 295.255334 
L 952.339109 298.785181 
L 953.678443 295.923143 
L 955.017777 305.46327 
L 956.357111 326.165348 
L 957.696445 331.412418 
L 959.035779 279.99113 
L 960.375113 288.481843 
L 961.714446 286.192213 
L 963.05378 300.025398 
L 964.393114 300.693207 
L 965.732448 321.395284 
L 967.071782 335.32387 
L 968.411116 287.623232 
L 969.75045 289.245053 
L 971.089784 292.774901 
L 972.429118 295.541538 
L 973.768452 292.393296 
L 975.107786 331.507819 
L 976.44712 334.846864 
L 977.786454 275.316467 
L 979.125788 288.95885 
L 980.465122 290.580671 
L 981.804455 311.664353 
L 983.143789 302.601232 
L 984.483123 330.744609 
L 985.822457 332.36643 
L 987.161791 276.27048 
L 988.501125 290.389869 
L 989.840459 288.95885 
L 991.179793 305.654073 
L 992.519127 303.364442 
L 993.858461 330.553806 
L 995.197795 334.465259 
L 996.537129 286.573818 
L 997.876463 299.643793 
L 999.215797 288.100238 
L 1000.555131 333.606647 
L 1001.894464 314.621793 
L 1003.233798 330.458405 
L 1004.573132 335.705475 
L 1005.912466 269.401588 
L 1007.2518 284.665792 
L 1008.591134 293.538111 
L 1009.930468 299.929996 
L 1011.269802 307.180493 
L 1012.609136 334.656061 
L 1013.94847 339.80773 
L 1015.287804 296.877156 
L 1016.627138 305.654073 
L 1017.966472 312.999971 
L 1019.305806 315.194201 
L 1020.64514 312.14136 
L 1021.984473 335.896278 
L 1023.323807 338.662915 
L 1024.663141 298.785181 
L 1026.002475 308.706914 
L 1027.341809 310.996545 
L 1028.681143 318.819449 
L 1030.020477 324.257322 
L 1031.359811 335.800876 
L 1032.699145 339.521526 
L 1034.038479 307.752901 
L 1035.377813 311.950557 
L 1036.717147 310.710341 
L 1038.056481 310.901143 
L 1039.395815 334.083653 
L 1040.735149 343.623781 
L 1042.074482 338.949119 
L 1043.413816 311.282748 
L 1044.75315 289.054251 
L 1046.092484 277.129091 
L 1047.431818 274.744059 
L 1048.771152 306.989691 
L 1050.110486 335.514673 
L 1051.44982 320.250468 
L 1052.789154 234.675523 
L 1054.128488 209.680389 
L 1055.467822 221.128542 
L 1056.807156 207.009153 
L 1058.14649 222.941166 
L 1059.485824 294.20592 
L 1060.825158 291.725487 
L 1062.164491 149.672986 
L 1063.503825 121.529609 
L 1064.843159 98.060895 
L 1066.182493 149.291381 
L 1067.521827 137.461622 
L 1068.861161 247.840899 
L 1070.200495 279.418722 
L 1071.539829 72.207149 
L 1072.879163 54.176308 
L 1074.218497 58.660168 
L 1075.557831 88.71157 
L 1076.897165 111.035469 
L 1078.236499 258.239639 
L 1079.575833 291.725487 
L 1080.915167 118.285966 
L 1082.2545 123.628437 
L 1083.593834 143.185699 
L 1084.933168 149.577584 
L 1086.272502 197.755229 
L 1087.611836 281.135945 
L 1088.95117 315.575806 
L 1090.290504 181.632413 
L 1091.629838 232.385893 
L 1092.969172 221.414746 
L 1095.64784 272.168225 
L 1096.987174 309.94713 
L 1098.326508 326.833156 
L 1099.665842 260.243065 
L 1101.005176 271.977422 
L 1102.344509 282.089958 
L 1103.683843 287.623232 
L 1105.023177 305.272468 
L 1106.362511 330.935411 
L 1107.701845 339.712329 
L 1109.041179 307.180493 
L 1110.380513 308.611513 
L 1111.719847 310.996545 
L 1113.059181 322.253895 
L 1114.398515 328.168774 
L 1115.737849 339.139921 
L 1117.077183 344.577794 
L 1118.416517 334.274456 
L 1119.755851 331.126214 
L 1121.095185 324.638927 
L 1125.113186 343.051373 
L 1126.45252 347.821437 
L 1127.791854 334.846864 
L 1129.131188 336.08708 
L 1130.470522 336.373284 
L 1131.809856 338.567513 
L 1133.14919 341.811157 
L 1134.488524 347.344431 
L 1135.827858 347.153628 
L 1137.167192 341.906558 
L 1138.506526 341.047947 
L 1139.84586 341.143348 
L 1141.185194 342.955972 
L 1142.524527 343.814584 
L 1143.863861 347.726036 
L 1145.203195 348.870851 
L 1146.542529 343.814584 
L 1147.881863 344.673195 
L 1149.221197 344.673195 
L 1150.560531 345.818011 
L 1151.899865 347.153628 
L 1153.239199 348.870851 
L 1154.578533 349.347858 
L 1155.917867 344.577794 
L 1157.257201 346.199616 
L 1158.596535 346.581221 
L 1159.935869 345.722609 
L 1162.614536 349.920265 
L 1163.95387 350.015667 
L 1165.293204 346.295017 
L 1166.632538 346.772023 
L 1167.971872 346.390418 
L 1169.311206 345.531807 
L 1170.65054 346.867425 
L 1171.989874 349.824864 
L 1173.329208 349.53866 
L 1174.668542 345.436405 
L 1176.007876 345.0548 
L 1177.34721 345.818011 
L 1178.686544 345.627208 
L 1180.025878 346.104214 
L 1181.365212 348.870851 
L 1182.704545 349.347858 
L 1184.043879 343.719182 
L 1185.383213 344.482393 
L 1186.722547 346.104214 
L 1188.061881 347.153628 
L 1189.401215 347.153628 
L 1190.740549 349.53866 
L 1192.079883 348.966253 
L 1193.419217 341.334151 
L 1194.758551 343.719182 
L 1196.097885 344.005386 
L 1197.437219 344.482393 
L 1198.776553 343.432979 
L 1200.115887 349.347858 
L 1201.455221 348.203042 
L 1202.794554 340.57094 
L 1204.133888 343.52838 
L 1205.473222 343.623781 
L 1206.812556 341.906558 
L 1208.15189 343.337577 
L 1209.491224 348.203042 
L 1210.830558 346.390418 
L 1212.169892 339.04452 
L 1213.509226 339.80773 
L 1214.84856 338.949119 
L 1216.187894 337.613501 
L 1217.527228 339.235322 
L 1218.866562 348.107641 
L 1220.205896 346.295017 
L 1221.54523 335.610074 
L 1222.884563 336.564087 
L 1224.223897 340.761743 
L 1226.902565 331.317016 
L 1228.241899 350.206469 
L 1229.581233 350.111068 
L 1230.920567 326.928558 
L 1232.259901 335.037666 
L 1233.599235 335.705475 
L 1234.938569 336.182482 
L 1236.277903 336.08708 
L 1237.617237 347.344431 
L 1238.956571 345.627208 
L 1240.295905 330.363004 
L 1241.635239 335.133068 
L 1242.974572 332.748036 
L 1244.313906 332.748036 
L 1245.65324 331.889424 
L 1246.992574 346.390418 
L 1248.331908 344.196189 
L 1249.671242 344.005386 
L 1251.010576 320.441271 
L 1252.34991 325.783742 
L 1253.689244 326.260749 
L 1255.028578 330.935411 
L 1256.367912 346.485819 
L 1257.707246 346.485819 
L 1259.04658 331.412418 
L 1260.385914 335.228469 
L 1261.725248 323.207908 
L 1263.064581 334.369857 
L 1264.403915 326.737755 
L 1265.743249 345.0548 
L 1267.082583 342.76517 
L 1268.421917 328.264176 
L 1269.761251 331.794023 
L 1271.100585 329.027386 
L 1272.439919 321.204481 
L 1273.779253 330.935411 
L 1275.118587 347.058227 
L 1276.457921 344.196189 
L 1277.797255 325.59294 
L 1279.136589 328.741182 
L 1280.475923 330.267602 
L 1281.815257 328.454978 
L 1283.15459 331.698622 
L 1284.493924 346.772023 
L 1285.833258 344.29159 
L 1287.172592 321.681488 
L 1288.511926 324.925131 
L 1289.85126 324.448125 
L 1291.190594 323.017105 
L 1292.529928 350.206469 
L 1297.887264 350.206469 
L 1299.226598 306.131079 
L 1300.565932 308.993118 
L 1300.565932 308.993118 
" clip-path="url(#p6c40ac3791)" style="fill: none; stroke: #0000ff; stroke-width: 1.5; stroke-linecap: square"/>
   </g>
   <g id="line2d_20">
    <path d="M 1060.825158 206.310571 
L 1062.164491 157.764959 
L 1063.503825 153.16999 
L 1064.843159 118.610232 
L 1066.182493 149.446844 
L 1067.521827 199.380592 
L 1068.861161 220.709898 
L 1070.200495 131.699948 
L 1071.539829 77.312686 
L 1072.879163 50.8755 
L 1074.218497 97.310681 
L 1075.557831 83.538833 
L 1076.897165 185.254936 
L 1078.236499 243.144831 
L 1079.575833 95.486125 
L 1080.915167 88.234419 
L 1082.2545 106.625193 
L 1083.593834 145.444545 
L 1084.933168 162.722221 
L 1086.272502 296.395309 
L 1087.611836 313.807975 
L 1088.95117 176.552733 
L 1090.290504 183.181686 
L 1091.629838 221.608826 
L 1092.969172 223.5711 
L 1094.308506 273.076807 
L 1095.64784 337.842312 
L 1096.987174 352.183553 
L 1098.326508 234.819247 
L 1099.665842 289.114661 
L 1101.005176 270.933712 
L 1102.344509 298.0565 
L 1103.683843 312.19401 
L 1105.023177 339.745317 
L 1106.362511 349.612249 
L 1107.701845 292.286231 
L 1109.041179 309.343497 
L 1110.380513 316.253892 
L 1111.719847 318.161347 
L 1114.398515 351.856724 
L 1115.737849 353.2755 
L 1117.077183 323.988714 
L 1118.416517 330.591539 
L 1119.755851 332.191533 
L 1121.095185 337.555703 
L 1122.434518 339.499228 
L 1123.773852 347.286749 
L 1125.113186 349.896877 
L 1126.45252 340.968139 
L 1127.791854 335.73712 
L 1129.131188 331.105878 
L 1130.470522 338.411235 
L 1131.809856 342.743398 
L 1133.14919 347.602079 
L 1134.488524 351.349473 
L 1135.827858 339.021137 
L 1137.167192 341.628174 
L 1138.506526 341.437639 
L 1139.84586 343.073687 
L 1141.185194 345.633864 
L 1142.524527 349.216597 
L 1143.863861 348.477227 
L 1145.203195 344.56858 
L 1146.542529 343.515644 
L 1147.881863 344.180244 
L 1149.221197 345.795938 
L 1150.560531 346.455325 
L 1151.899865 349.906832 
L 1153.239199 350.29293 
L 1154.578533 345.86252 
L 1157.257201 346.186184 
L 1158.596535 347.285997 
L 1159.935869 347.596325 
L 1161.275203 349.169164 
L 1162.614536 349.900325 
L 1163.95387 346.091498 
L 1165.293204 347.472142 
L 1166.632538 347.434885 
L 1167.971872 346.299088 
L 1170.65054 349.036788 
L 1171.989874 349.539792 
L 1173.329208 346.520569 
L 1174.668542 346.388553 
L 1176.007876 345.523283 
L 1177.34721 345.064287 
L 1178.686544 346.389383 
L 1180.025878 348.586238 
L 1181.365212 348.504257 
L 1182.704545 345.602138 
L 1184.043879 344.359311 
L 1185.383213 345.137223 
L 1186.722547 345.443568 
L 1188.061881 346.569038 
L 1189.401215 348.945057 
L 1190.740549 349.556434 
L 1192.079883 344.733858 
L 1193.419217 343.780136 
L 1194.758551 345.261702 
L 1196.097885 345.540004 
L 1197.437219 345.124085 
L 1200.115887 347.391995 
L 1201.455221 341.492865 
L 1202.794554 342.898417 
L 1204.133888 343.471655 
L 1205.473222 343.891611 
L 1206.812556 342.10707 
L 1208.15189 347.537517 
L 1209.491224 346.872278 
L 1210.830558 340.491736 
L 1212.169892 342.202695 
L 1213.509226 341.246614 
L 1214.84856 338.95212 
L 1216.187894 339.628223 
L 1217.527228 343.437329 
L 1218.866562 344.215033 
L 1220.205896 339.031105 
L 1222.884563 336.764583 
L 1224.223897 337.674945 
L 1225.563231 337.993469 
L 1226.902565 342.028807 
L 1228.241899 344.83547 
L 1229.581233 338.308738 
L 1230.920567 333.353589 
L 1232.259901 338.158316 
L 1233.599235 333.239339 
L 1234.938569 330.951895 
L 1236.277903 348.311584 
L 1237.617237 347.446713 
L 1238.956571 328.065416 
L 1240.295905 335.746042 
L 1241.635239 335.864648 
L 1242.974572 334.806276 
L 1244.313906 333.958051 
L 1245.65324 342.142901 
L 1246.992574 342.907063 
L 1248.331908 331.055178 
L 1249.671242 340.842633 
L 1251.010576 328.55009 
L 1252.34991 328.411874 
L 1253.689244 327.019632 
L 1255.028578 340.627088 
L 1256.367912 341.400208 
L 1257.707246 343.248912 
L 1259.04658 318.482624 
L 1260.385914 331.303267 
L 1261.725248 326.935396 
L 1263.064581 334.552624 
L 1264.403915 342.914093 
L 1265.743249 344.351473 
L 1267.082583 331.465449 
L 1268.421917 333.104064 
L 1269.761251 323.078656 
L 1271.100585 334.905836 
L 1272.439919 322.0149 
L 1273.779253 341.658302 
L 1275.118587 341.905544 
L 1276.457921 330.994074 
L 1277.797255 331.097742 
L 1279.136589 328.088574 
L 1280.475923 323.03318 
L 1281.815257 333.250626 
L 1283.15459 345.075441 
L 1284.493924 343.637182 
L 1285.833258 328.962318 
L 1287.172592 328.012163 
L 1288.511926 328.225956 
L 1289.85126 325.243345 
L 1291.190594 327.053672 
L 1292.529928 350.148005 
L 1293.869262 346.787249 
L 1295.208596 330.136004 
L 1296.54793 341.922417 
L 1297.887264 344.169009 
L 1299.226598 324.514836 
L 1300.565932 341.245013 
L 1300.565932 341.245013 
" clip-path="url(#p6c40ac3791)" style="fill: none; stroke: #ffa500; stroke-width: 1.5; stroke-linecap: square"/>
   </g>
   <g id="line2d_21">
    <path d="M 1300.565932 341.245013 
L 1301.905266 342.460979 
L 1303.244599 342.601821 
L 1304.583933 342.618134 
L 1305.923267 342.620024 
L 1307.262601 307.356238 
L 1308.601935 309.646134 
L 1309.941269 335.450355 
L 1311.280603 336.42323 
L 1312.619937 336.535915 
L 1313.959271 336.548967 
L 1315.298605 336.550479 
L 1316.637939 308.336496 
L 1317.977273 310.168605 
" clip-path="url(#p6c40ac3791)" style="fill: none; stroke: #ff0000; stroke-width: 1.5; stroke-linecap: square"/>
   </g>
   <g id="patch_3">
    <path d="M 39.65 368.3955 
L 39.65 35.7555 
" style="fill: none; stroke: #000000; stroke-width: 0.8; stroke-linejoin: miter; stroke-linecap: square"/>
   </g>
   <g id="patch_4">
    <path d="M 1378.85 368.3955 
L 1378.85 35.7555 
" style="fill: none; stroke: #000000; stroke-width: 0.8; stroke-linejoin: miter; stroke-linecap: square"/>
   </g>
   <g id="patch_5">
    <path d="M 39.65 368.3955 
L 1378.85 368.3955 
" style="fill: none; stroke: #000000; stroke-width: 0.8; stroke-linejoin: miter; stroke-linecap: square"/>
   </g>
   <g id="patch_6">
    <path d="M 39.65 35.7555 
L 1378.85 35.7555 
" style="fill: none; stroke: #000000; stroke-width: 0.8; stroke-linejoin: miter; stroke-linecap: square"/>
   </g>
   <g id="text_19">
    <!-- Daily Confirmed Cases Forecasting - North Dakota -->
    <g transform="translate(558.8075 16.318125)scale(0.12 -0.12)">
     <defs>
      <path id="DejaVuSans-44" d="M 1259 4147 
L 1259 519 
L 2022 519 
Q 2988 519 3436 956 
Q 3884 1394 3884 2338 
Q 3884 3275 3436 3711 
Q 2988 4147 2022 4147 
L 1259 4147 
z
M 628 4666 
L 1925 4666 
Q 3281 4666 3915 4102 
Q 4550 3538 4550 2338 
Q 4550 1131 3912 565 
Q 3275 0 1925 0 
L 628 0 
L 628 4666 
z
" transform="scale(0.015625)"/>
      <path id="DejaVuSans-61" d="M 2194 1759 
Q 1497 1759 1228 1600 
Q 959 1441 959 1056 
Q 959 750 1161 570 
Q 1363 391 1709 391 
Q 2188 391 2477 730 
Q 2766 1069 2766 1631 
L 2766 1759 
L 2194 1759 
z
M 3341 1997 
L 3341 0 
L 2766 0 
L 2766 531 
Q 2569 213 2275 61 
Q 1981 -91 1556 -91 
Q 1019 -91 701 211 
Q 384 513 384 1019 
Q 384 1609 779 1909 
Q 1175 2209 1959 2209 
L 2766 2209 
L 2766 2266 
Q 2766 2663 2505 2880 
Q 2244 3097 1772 3097 
Q 1472 3097 1187 3025 
Q 903 2953 641 2809 
L 641 3341 
Q 956 3463 1253 3523 
Q 1550 3584 1831 3584 
Q 2591 3584 2966 3190 
Q 3341 2797 3341 1997 
z
" transform="scale(0.015625)"/>
      <path id="DejaVuSans-69" d="M 603 3500 
L 1178 3500 
L 1178 0 
L 603 0 
L 603 3500 
z
M 603 4863 
L 1178 4863 
L 1178 4134 
L 603 4134 
L 603 4863 
z
" transform="scale(0.015625)"/>
      <path id="DejaVuSans-6c" d="M 603 4863 
L 1178 4863 
L 1178 0 
L 603 0 
L 603 4863 
z
" transform="scale(0.015625)"/>
      <path id="DejaVuSans-79" d="M 2059 -325 
Q 1816 -950 1584 -1140 
Q 1353 -1331 966 -1331 
L 506 -1331 
L 506 -850 
L 844 -850 
Q 1081 -850 1212 -737 
Q 1344 -625 1503 -206 
L 1606 56 
L 191 3500 
L 800 3500 
L 1894 763 
L 2988 3500 
L 3597 3500 
L 2059 -325 
z
" transform="scale(0.015625)"/>
      <path id="DejaVuSans-20" transform="scale(0.015625)"/>
      <path id="DejaVuSans-43" d="M 4122 4306 
L 4122 3641 
Q 3803 3938 3442 4084 
Q 3081 4231 2675 4231 
Q 1875 4231 1450 3742 
Q 1025 3253 1025 2328 
Q 1025 1406 1450 917 
Q 1875 428 2675 428 
Q 3081 428 3442 575 
Q 3803 722 4122 1019 
L 4122 359 
Q 3791 134 3420 21 
Q 3050 -91 2638 -91 
Q 1578 -91 968 557 
Q 359 1206 359 2328 
Q 359 3453 968 4101 
Q 1578 4750 2638 4750 
Q 3056 4750 3426 4639 
Q 3797 4528 4122 4306 
z
" transform="scale(0.015625)"/>
      <path id="DejaVuSans-6f" d="M 1959 3097 
Q 1497 3097 1228 2736 
Q 959 2375 959 1747 
Q 959 1119 1226 758 
Q 1494 397 1959 397 
Q 2419 397 2687 759 
Q 2956 1122 2956 1747 
Q 2956 2369 2687 2733 
Q 2419 3097 1959 3097 
z
M 1959 3584 
Q 2709 3584 3137 3096 
Q 3566 2609 3566 1747 
Q 3566 888 3137 398 
Q 2709 -91 1959 -91 
Q 1206 -91 779 398 
Q 353 888 353 1747 
Q 353 2609 779 3096 
Q 1206 3584 1959 3584 
z
" transform="scale(0.015625)"/>
      <path id="DejaVuSans-6e" d="M 3513 2113 
L 3513 0 
L 2938 0 
L 2938 2094 
Q 2938 2591 2744 2837 
Q 2550 3084 2163 3084 
Q 1697 3084 1428 2787 
Q 1159 2491 1159 1978 
L 1159 0 
L 581 0 
L 581 3500 
L 1159 3500 
L 1159 2956 
Q 1366 3272 1645 3428 
Q 1925 3584 2291 3584 
Q 2894 3584 3203 3211 
Q 3513 2838 3513 2113 
z
" transform="scale(0.015625)"/>
      <path id="DejaVuSans-66" d="M 2375 4863 
L 2375 4384 
L 1825 4384 
Q 1516 4384 1395 4259 
Q 1275 4134 1275 3809 
L 1275 3500 
L 2222 3500 
L 2222 3053 
L 1275 3053 
L 1275 0 
L 697 0 
L 697 3053 
L 147 3053 
L 147 3500 
L 697 3500 
L 697 3744 
Q 697 4328 969 4595 
Q 1241 4863 1831 4863 
L 2375 4863 
z
" transform="scale(0.015625)"/>
      <path id="DejaVuSans-72" d="M 2631 2963 
Q 2534 3019 2420 3045 
Q 2306 3072 2169 3072 
Q 1681 3072 1420 2755 
Q 1159 2438 1159 1844 
L 1159 0 
L 581 0 
L 581 3500 
L 1159 3500 
L 1159 2956 
Q 1341 3275 1631 3429 
Q 1922 3584 2338 3584 
Q 2397 3584 2469 3576 
Q 2541 3569 2628 3553 
L 2631 2963 
z
" transform="scale(0.015625)"/>
      <path id="DejaVuSans-6d" d="M 3328 2828 
Q 3544 3216 3844 3400 
Q 4144 3584 4550 3584 
Q 5097 3584 5394 3201 
Q 5691 2819 5691 2113 
L 5691 0 
L 5113 0 
L 5113 2094 
Q 5113 2597 4934 2840 
Q 4756 3084 4391 3084 
Q 3944 3084 3684 2787 
Q 3425 2491 3425 1978 
L 3425 0 
L 2847 0 
L 2847 2094 
Q 2847 2600 2669 2842 
Q 2491 3084 2119 3084 
Q 1678 3084 1418 2786 
Q 1159 2488 1159 1978 
L 1159 0 
L 581 0 
L 581 3500 
L 1159 3500 
L 1159 2956 
Q 1356 3278 1631 3431 
Q 1906 3584 2284 3584 
Q 2666 3584 2933 3390 
Q 3200 3197 3328 2828 
z
" transform="scale(0.015625)"/>
      <path id="DejaVuSans-65" d="M 3597 1894 
L 3597 1613 
L 953 1613 
Q 991 1019 1311 708 
Q 1631 397 2203 397 
Q 2534 397 2845 478 
Q 3156 559 3463 722 
L 3463 178 
Q 3153 47 2828 -22 
Q 2503 -91 2169 -91 
Q 1331 -91 842 396 
Q 353 884 353 1716 
Q 353 2575 817 3079 
Q 1281 3584 2069 3584 
Q 2775 3584 3186 3129 
Q 3597 2675 3597 1894 
z
M 3022 2063 
Q 3016 2534 2758 2815 
Q 2500 3097 2075 3097 
Q 1594 3097 1305 2825 
Q 1016 2553 972 2059 
L 3022 2063 
z
" transform="scale(0.015625)"/>
      <path id="DejaVuSans-64" d="M 2906 2969 
L 2906 4863 
L 3481 4863 
L 3481 0 
L 2906 0 
L 2906 525 
Q 2725 213 2448 61 
Q 2172 -91 1784 -91 
Q 1150 -91 751 415 
Q 353 922 353 1747 
Q 353 2572 751 3078 
Q 1150 3584 1784 3584 
Q 2172 3584 2448 3432 
Q 2725 3281 2906 2969 
z
M 947 1747 
Q 947 1113 1208 752 
Q 1469 391 1925 391 
Q 2381 391 2643 752 
Q 2906 1113 2906 1747 
Q 2906 2381 2643 2742 
Q 2381 3103 1925 3103 
Q 1469 3103 1208 2742 
Q 947 2381 947 1747 
z
" transform="scale(0.015625)"/>
      <path id="DejaVuSans-73" d="M 2834 3397 
L 2834 2853 
Q 2591 2978 2328 3040 
Q 2066 3103 1784 3103 
Q 1356 3103 1142 2972 
Q 928 2841 928 2578 
Q 928 2378 1081 2264 
Q 1234 2150 1697 2047 
L 1894 2003 
Q 2506 1872 2764 1633 
Q 3022 1394 3022 966 
Q 3022 478 2636 193 
Q 2250 -91 1575 -91 
Q 1294 -91 989 -36 
Q 684 19 347 128 
L 347 722 
Q 666 556 975 473 
Q 1284 391 1588 391 
Q 1994 391 2212 530 
Q 2431 669 2431 922 
Q 2431 1156 2273 1281 
Q 2116 1406 1581 1522 
L 1381 1569 
Q 847 1681 609 1914 
Q 372 2147 372 2553 
Q 372 3047 722 3315 
Q 1072 3584 1716 3584 
Q 2034 3584 2315 3537 
Q 2597 3491 2834 3397 
z
" transform="scale(0.015625)"/>
      <path id="DejaVuSans-46" d="M 628 4666 
L 3309 4666 
L 3309 4134 
L 1259 4134 
L 1259 2759 
L 3109 2759 
L 3109 2228 
L 1259 2228 
L 1259 0 
L 628 0 
L 628 4666 
z
" transform="scale(0.015625)"/>
      <path id="DejaVuSans-63" d="M 3122 3366 
L 3122 2828 
Q 2878 2963 2633 3030 
Q 2388 3097 2138 3097 
Q 1578 3097 1268 2742 
Q 959 2388 959 1747 
Q 959 1106 1268 751 
Q 1578 397 2138 397 
Q 2388 397 2633 464 
Q 2878 531 3122 666 
L 3122 134 
Q 2881 22 2623 -34 
Q 2366 -91 2075 -91 
Q 1284 -91 818 406 
Q 353 903 353 1747 
Q 353 2603 823 3093 
Q 1294 3584 2113 3584 
Q 2378 3584 2631 3529 
Q 2884 3475 3122 3366 
z
" transform="scale(0.015625)"/>
      <path id="DejaVuSans-74" d="M 1172 4494 
L 1172 3500 
L 2356 3500 
L 2356 3053 
L 1172 3053 
L 1172 1153 
Q 1172 725 1289 603 
Q 1406 481 1766 481 
L 2356 481 
L 2356 0 
L 1766 0 
Q 1100 0 847 248 
Q 594 497 594 1153 
L 594 3053 
L 172 3053 
L 172 3500 
L 594 3500 
L 594 4494 
L 1172 4494 
z
" transform="scale(0.015625)"/>
      <path id="DejaVuSans-67" d="M 2906 1791 
Q 2906 2416 2648 2759 
Q 2391 3103 1925 3103 
Q 1463 3103 1205 2759 
Q 947 2416 947 1791 
Q 947 1169 1205 825 
Q 1463 481 1925 481 
Q 2391 481 2648 825 
Q 2906 1169 2906 1791 
z
M 3481 434 
Q 3481 -459 3084 -895 
Q 2688 -1331 1869 -1331 
Q 1566 -1331 1297 -1286 
Q 1028 -1241 775 -1147 
L 775 -588 
Q 1028 -725 1275 -790 
Q 1522 -856 1778 -856 
Q 2344 -856 2625 -561 
Q 2906 -266 2906 331 
L 2906 616 
Q 2728 306 2450 153 
Q 2172 0 1784 0 
Q 1141 0 747 490 
Q 353 981 353 1791 
Q 353 2603 747 3093 
Q 1141 3584 1784 3584 
Q 2172 3584 2450 3431 
Q 2728 3278 2906 2969 
L 2906 3500 
L 3481 3500 
L 3481 434 
z
" transform="scale(0.015625)"/>
      <path id="DejaVuSans-4e" d="M 628 4666 
L 1478 4666 
L 3547 763 
L 3547 4666 
L 4159 4666 
L 4159 0 
L 3309 0 
L 1241 3903 
L 1241 0 
L 628 0 
L 628 4666 
z
" transform="scale(0.015625)"/>
      <path id="DejaVuSans-68" d="M 3513 2113 
L 3513 0 
L 2938 0 
L 2938 2094 
Q 2938 2591 2744 2837 
Q 2550 3084 2163 3084 
Q 1697 3084 1428 2787 
Q 1159 2491 1159 1978 
L 1159 0 
L 581 0 
L 581 4863 
L 1159 4863 
L 1159 2956 
Q 1366 3272 1645 3428 
Q 1925 3584 2291 3584 
Q 2894 3584 3203 3211 
Q 3513 2838 3513 2113 
z
" transform="scale(0.015625)"/>
      <path id="DejaVuSans-6b" d="M 581 4863 
L 1159 4863 
L 1159 1991 
L 2875 3500 
L 3609 3500 
L 1753 1863 
L 3688 0 
L 2938 0 
L 1159 1709 
L 1159 0 
L 581 0 
L 581 4863 
z
" transform="scale(0.015625)"/>
     </defs>
     <use xlink:href="#DejaVuSans-44"/>
     <use xlink:href="#DejaVuSans-61" x="77.001953"/>
     <use xlink:href="#DejaVuSans-69" x="138.28125"/>
     <use xlink:href="#DejaVuSans-6c" x="166.064453"/>
     <use xlink:href="#DejaVuSans-79" x="193.847656"/>
     <use xlink:href="#DejaVuSans-20" x="253.027344"/>
     <use xlink:href="#DejaVuSans-43" x="284.814453"/>
     <use xlink:href="#DejaVuSans-6f" x="354.638672"/>
     <use xlink:href="#DejaVuSans-6e" x="415.820312"/>
     <use xlink:href="#DejaVuSans-66" x="479.199219"/>
     <use xlink:href="#DejaVuSans-69" x="514.404297"/>
     <use xlink:href="#DejaVuSans-72" x="542.1875"/>
     <use xlink:href="#DejaVuSans-6d" x="581.550781"/>
     <use xlink:href="#DejaVuSans-65" x="678.962891"/>
     <use xlink:href="#DejaVuSans-64" x="740.486328"/>
     <use xlink:href="#DejaVuSans-20" x="803.962891"/>
     <use xlink:href="#DejaVuSans-43" x="835.75"/>
     <use xlink:href="#DejaVuSans-61" x="905.574219"/>
     <use xlink:href="#DejaVuSans-73" x="966.853516"/>
     <use xlink:href="#DejaVuSans-65" x="1018.953125"/>
     <use xlink:href="#DejaVuSans-73" x="1080.476562"/>
     <use xlink:href="#DejaVuSans-20" x="1132.576172"/>
     <use xlink:href="#DejaVuSans-46" x="1164.363281"/>
     <use xlink:href="#DejaVuSans-6f" x="1218.257812"/>
     <use xlink:href="#DejaVuSans-72" x="1279.439453"/>
     <use xlink:href="#DejaVuSans-65" x="1318.302734"/>
     <use xlink:href="#DejaVuSans-63" x="1379.826172"/>
     <use xlink:href="#DejaVuSans-61" x="1434.806641"/>
     <use xlink:href="#DejaVuSans-73" x="1496.085938"/>
     <use xlink:href="#DejaVuSans-74" x="1548.185547"/>
     <use xlink:href="#DejaVuSans-69" x="1587.394531"/>
     <use xlink:href="#DejaVuSans-6e" x="1615.177734"/>
     <use xlink:href="#DejaVuSans-67" x="1678.556641"/>
     <use xlink:href="#DejaVuSans-20" x="1742.033203"/>
     <use xlink:href="#DejaVuSans-2d" x="1773.820312"/>
     <use xlink:href="#DejaVuSans-20" x="1809.904297"/>
     <use xlink:href="#DejaVuSans-4e" x="1841.691406"/>
     <use xlink:href="#DejaVuSans-6f" x="1916.496094"/>
     <use xlink:href="#DejaVuSans-72" x="1977.677734"/>
     <use xlink:href="#DejaVuSans-74" x="2018.791016"/>
     <use xlink:href="#DejaVuSans-68" x="2058"/>
     <use xlink:href="#DejaVuSans-20" x="2121.378906"/>
     <use xlink:href="#DejaVuSans-44" x="2153.166016"/>
     <use xlink:href="#DejaVuSans-61" x="2230.167969"/>
     <use xlink:href="#DejaVuSans-6b" x="2291.447266"/>
     <use xlink:href="#DejaVuSans-6f" x="2345.732422"/>
     <use xlink:href="#DejaVuSans-74" x="2406.914062"/>
     <use xlink:href="#DejaVuSans-61" x="2446.123047"/>
    </g>
    <!-- ARIMA (1, 1, 1)x(1, 0, 0, 7) (R2 = 0.814817) -->
    <g transform="translate(577.265938 29.7555)scale(0.12 -0.12)">
     <defs>
      <path id="DejaVuSans-41" d="M 2188 4044 
L 1331 1722 
L 3047 1722 
L 2188 4044 
z
M 1831 4666 
L 2547 4666 
L 4325 0 
L 3669 0 
L 3244 1197 
L 1141 1197 
L 716 0 
L 50 0 
L 1831 4666 
z
" transform="scale(0.015625)"/>
      <path id="DejaVuSans-52" d="M 2841 2188 
Q 3044 2119 3236 1894 
Q 3428 1669 3622 1275 
L 4263 0 
L 3584 0 
L 2988 1197 
Q 2756 1666 2539 1819 
Q 2322 1972 1947 1972 
L 1259 1972 
L 1259 0 
L 628 0 
L 628 4666 
L 2053 4666 
Q 2853 4666 3247 4331 
Q 3641 3997 3641 3322 
Q 3641 2881 3436 2590 
Q 3231 2300 2841 2188 
z
M 1259 4147 
L 1259 2491 
L 2053 2491 
Q 2509 2491 2742 2702 
Q 2975 2913 2975 3322 
Q 2975 3731 2742 3939 
Q 2509 4147 2053 4147 
L 1259 4147 
z
" transform="scale(0.015625)"/>
      <path id="DejaVuSans-49" d="M 628 4666 
L 1259 4666 
L 1259 0 
L 628 0 
L 628 4666 
z
" transform="scale(0.015625)"/>
      <path id="DejaVuSans-4d" d="M 628 4666 
L 1569 4666 
L 2759 1491 
L 3956 4666 
L 4897 4666 
L 4897 0 
L 4281 0 
L 4281 4097 
L 3078 897 
L 2444 897 
L 1241 4097 
L 1241 0 
L 628 0 
L 628 4666 
z
" transform="scale(0.015625)"/>
      <path id="DejaVuSans-28" d="M 1984 4856 
Q 1566 4138 1362 3434 
Q 1159 2731 1159 2009 
Q 1159 1288 1364 580 
Q 1569 -128 1984 -844 
L 1484 -844 
Q 1016 -109 783 600 
Q 550 1309 550 2009 
Q 550 2706 781 3412 
Q 1013 4119 1484 4856 
L 1984 4856 
z
" transform="scale(0.015625)"/>
      <path id="DejaVuSans-2c" d="M 750 794 
L 1409 794 
L 1409 256 
L 897 -744 
L 494 -744 
L 750 256 
L 750 794 
z
" transform="scale(0.015625)"/>
      <path id="DejaVuSans-29" d="M 513 4856 
L 1013 4856 
Q 1481 4119 1714 3412 
Q 1947 2706 1947 2009 
Q 1947 1309 1714 600 
Q 1481 -109 1013 -844 
L 513 -844 
Q 928 -128 1133 580 
Q 1338 1288 1338 2009 
Q 1338 2731 1133 3434 
Q 928 4138 513 4856 
z
" transform="scale(0.015625)"/>
      <path id="DejaVuSans-78" d="M 3513 3500 
L 2247 1797 
L 3578 0 
L 2900 0 
L 1881 1375 
L 863 0 
L 184 0 
L 1544 1831 
L 300 3500 
L 978 3500 
L 1906 2253 
L 2834 3500 
L 3513 3500 
z
" transform="scale(0.015625)"/>
      <path id="DejaVuSans-3d" d="M 678 2906 
L 4684 2906 
L 4684 2381 
L 678 2381 
L 678 2906 
z
M 678 1631 
L 4684 1631 
L 4684 1100 
L 678 1100 
L 678 1631 
z
" transform="scale(0.015625)"/>
      <path id="DejaVuSans-2e" d="M 684 794 
L 1344 794 
L 1344 0 
L 684 0 
L 684 794 
z
" transform="scale(0.015625)"/>
      <path id="DejaVuSans-38" d="M 2034 2216 
Q 1584 2216 1326 1975 
Q 1069 1734 1069 1313 
Q 1069 891 1326 650 
Q 1584 409 2034 409 
Q 2484 409 2743 651 
Q 3003 894 3003 1313 
Q 3003 1734 2745 1975 
Q 2488 2216 2034 2216 
z
M 1403 2484 
Q 997 2584 770 2862 
Q 544 3141 544 3541 
Q 544 4100 942 4425 
Q 1341 4750 2034 4750 
Q 2731 4750 3128 4425 
Q 3525 4100 3525 3541 
Q 3525 3141 3298 2862 
Q 3072 2584 2669 2484 
Q 3125 2378 3379 2068 
Q 3634 1759 3634 1313 
Q 3634 634 3220 271 
Q 2806 -91 2034 -91 
Q 1263 -91 848 271 
Q 434 634 434 1313 
Q 434 1759 690 2068 
Q 947 2378 1403 2484 
z
M 1172 3481 
Q 1172 3119 1398 2916 
Q 1625 2713 2034 2713 
Q 2441 2713 2670 2916 
Q 2900 3119 2900 3481 
Q 2900 3844 2670 4047 
Q 2441 4250 2034 4250 
Q 1625 4250 1398 4047 
Q 1172 3844 1172 3481 
z
" transform="scale(0.015625)"/>
     </defs>
     <use xlink:href="#DejaVuSans-41"/>
     <use xlink:href="#DejaVuSans-52" x="68.408203"/>
     <use xlink:href="#DejaVuSans-49" x="137.890625"/>
     <use xlink:href="#DejaVuSans-4d" x="167.382812"/>
     <use xlink:href="#DejaVuSans-41" x="253.662109"/>
     <use xlink:href="#DejaVuSans-20" x="322.070312"/>
     <use xlink:href="#DejaVuSans-28" x="353.857422"/>
     <use xlink:href="#DejaVuSans-31" x="392.871094"/>
     <use xlink:href="#DejaVuSans-2c" x="456.494141"/>
     <use xlink:href="#DejaVuSans-20" x="488.28125"/>
     <use xlink:href="#DejaVuSans-31" x="520.068359"/>
     <use xlink:href="#DejaVuSans-2c" x="583.691406"/>
     <use xlink:href="#DejaVuSans-20" x="615.478516"/>
     <use xlink:href="#DejaVuSans-31" x="647.265625"/>
     <use xlink:href="#DejaVuSans-29" x="710.888672"/>
     <use xlink:href="#DejaVuSans-78" x="749.902344"/>
     <use xlink:href="#DejaVuSans-28" x="809.082031"/>
     <use xlink:href="#DejaVuSans-31" x="848.095703"/>
     <use xlink:href="#DejaVuSans-2c" x="911.71875"/>
     <use xlink:href="#DejaVuSans-20" x="943.505859"/>
     <use xlink:href="#DejaVuSans-30" x="975.292969"/>
     <use xlink:href="#DejaVuSans-2c" x="1038.916016"/>
     <use xlink:href="#DejaVuSans-20" x="1070.703125"/>
     <use xlink:href="#DejaVuSans-30" x="1102.490234"/>
     <use xlink:href="#DejaVuSans-2c" x="1166.113281"/>
     <use xlink:href="#DejaVuSans-20" x="1197.900391"/>
     <use xlink:href="#DejaVuSans-37" x="1229.6875"/>
     <use xlink:href="#DejaVuSans-29" x="1293.310547"/>
     <use xlink:href="#DejaVuSans-20" x="1332.324219"/>
     <use xlink:href="#DejaVuSans-28" x="1364.111328"/>
     <use xlink:href="#DejaVuSans-52" x="1403.125"/>
     <use xlink:href="#DejaVuSans-32" x="1472.607422"/>
     <use xlink:href="#DejaVuSans-20" x="1536.230469"/>
     <use xlink:href="#DejaVuSans-3d" x="1568.017578"/>
     <use xlink:href="#DejaVuSans-20" x="1651.806641"/>
     <use xlink:href="#DejaVuSans-30" x="1683.59375"/>
     <use xlink:href="#DejaVuSans-2e" x="1747.216797"/>
     <use xlink:href="#DejaVuSans-38" x="1779.003906"/>
     <use xlink:href="#DejaVuSans-31" x="1842.626953"/>
     <use xlink:href="#DejaVuSans-34" x="1906.25"/>
     <use xlink:href="#DejaVuSans-38" x="1969.873047"/>
     <use xlink:href="#DejaVuSans-31" x="2033.496094"/>
     <use xlink:href="#DejaVuSans-37" x="2097.119141"/>
     <use xlink:href="#DejaVuSans-29" x="2160.742188"/>
    </g>
   </g>
   <g id="legend_1">
    <g id="patch_7">
     <path d="M 1274.770313 87.789875 
L 1371.85 87.789875 
Q 1373.85 87.789875 1373.85 85.789875 
L 1373.85 42.7555 
Q 1373.85 40.7555 1371.85 40.7555 
L 1274.770313 40.7555 
Q 1272.770313 40.7555 1272.770313 42.7555 
L 1272.770313 85.789875 
Q 1272.770313 87.789875 1274.770313 87.789875 
z
" style="fill: #ffffff; opacity: 0.8; stroke: #cccccc; stroke-linejoin: miter"/>
    </g>
    <g id="line2d_22">
     <path d="M 1276.770313 48.853937 
L 1286.770313 48.853937 
L 1296.770313 48.853937 
" style="fill: none; stroke: #0000ff; stroke-width: 1.5; stroke-linecap: square"/>
    </g>
    <g id="text_20">
     <!-- Actual Value -->
     <g transform="translate(1304.770313 52.353937)scale(0.1 -0.1)">
      <defs>
       <path id="DejaVuSans-75" d="M 544 1381 
L 544 3500 
L 1119 3500 
L 1119 1403 
Q 1119 906 1312 657 
Q 1506 409 1894 409 
Q 2359 409 2629 706 
Q 2900 1003 2900 1516 
L 2900 3500 
L 3475 3500 
L 3475 0 
L 2900 0 
L 2900 538 
Q 2691 219 2414 64 
Q 2138 -91 1772 -91 
Q 1169 -91 856 284 
Q 544 659 544 1381 
z
M 1991 3584 
L 1991 3584 
z
" transform="scale(0.015625)"/>
       <path id="DejaVuSans-56" d="M 1831 0 
L 50 4666 
L 709 4666 
L 2188 738 
L 3669 4666 
L 4325 4666 
L 2547 0 
L 1831 0 
z
" transform="scale(0.015625)"/>
      </defs>
      <use xlink:href="#DejaVuSans-41"/>
      <use xlink:href="#DejaVuSans-63" x="66.658203"/>
      <use xlink:href="#DejaVuSans-74" x="121.638672"/>
      <use xlink:href="#DejaVuSans-75" x="160.847656"/>
      <use xlink:href="#DejaVuSans-61" x="224.226562"/>
      <use xlink:href="#DejaVuSans-6c" x="285.505859"/>
      <use xlink:href="#DejaVuSans-20" x="313.289062"/>
      <use xlink:href="#DejaVuSans-56" x="345.076172"/>
      <use xlink:href="#DejaVuSans-61" x="405.734375"/>
      <use xlink:href="#DejaVuSans-6c" x="467.013672"/>
      <use xlink:href="#DejaVuSans-75" x="494.796875"/>
      <use xlink:href="#DejaVuSans-65" x="558.175781"/>
     </g>
    </g>
    <g id="line2d_23">
     <path d="M 1276.770313 63.532062 
L 1286.770313 63.532062 
L 1296.770313 63.532062 
" style="fill: none; stroke: #ffa500; stroke-width: 1.5; stroke-linecap: square"/>
    </g>
    <g id="text_21">
     <!-- Check Value -->
     <g transform="translate(1304.770313 67.032062)scale(0.1 -0.1)">
      <use xlink:href="#DejaVuSans-43"/>
      <use xlink:href="#DejaVuSans-68" x="69.824219"/>
      <use xlink:href="#DejaVuSans-65" x="133.203125"/>
      <use xlink:href="#DejaVuSans-63" x="194.726562"/>
      <use xlink:href="#DejaVuSans-6b" x="249.707031"/>
      <use xlink:href="#DejaVuSans-20" x="307.617188"/>
      <use xlink:href="#DejaVuSans-56" x="339.404297"/>
      <use xlink:href="#DejaVuSans-61" x="400.0625"/>
      <use xlink:href="#DejaVuSans-6c" x="461.341797"/>
      <use xlink:href="#DejaVuSans-75" x="489.125"/>
      <use xlink:href="#DejaVuSans-65" x="552.503906"/>
     </g>
    </g>
    <g id="line2d_24">
     <path d="M 1276.770313 78.210187 
L 1286.770313 78.210187 
L 1296.770313 78.210187 
" style="fill: none; stroke: #ff0000; stroke-width: 1.5; stroke-linecap: square"/>
    </g>
    <g id="text_22">
     <!-- Predict Value -->
     <g transform="translate(1304.770313 81.710187)scale(0.1 -0.1)">
      <defs>
       <path id="DejaVuSans-50" d="M 1259 4147 
L 1259 2394 
L 2053 2394 
Q 2494 2394 2734 2622 
Q 2975 2850 2975 3272 
Q 2975 3691 2734 3919 
Q 2494 4147 2053 4147 
L 1259 4147 
z
M 628 4666 
L 2053 4666 
Q 2838 4666 3239 4311 
Q 3641 3956 3641 3272 
Q 3641 2581 3239 2228 
Q 2838 1875 2053 1875 
L 1259 1875 
L 1259 0 
L 628 0 
L 628 4666 
z
" transform="scale(0.015625)"/>
      </defs>
      <use xlink:href="#DejaVuSans-50"/>
      <use xlink:href="#DejaVuSans-72" x="58.552734"/>
      <use xlink:href="#DejaVuSans-65" x="97.416016"/>
      <use xlink:href="#DejaVuSans-64" x="158.939453"/>
      <use xlink:href="#DejaVuSans-69" x="222.416016"/>
      <use xlink:href="#DejaVuSans-63" x="250.199219"/>
      <use xlink:href="#DejaVuSans-74" x="305.179688"/>
      <use xlink:href="#DejaVuSans-20" x="344.388672"/>
      <use xlink:href="#DejaVuSans-56" x="376.175781"/>
      <use xlink:href="#DejaVuSans-61" x="436.833984"/>
      <use xlink:href="#DejaVuSans-6c" x="498.113281"/>
      <use xlink:href="#DejaVuSans-75" x="525.896484"/>
      <use xlink:href="#DejaVuSans-65" x="589.275391"/>
     </g>
    </g>
   </g>
  </g>
 </g>
 <defs>
  <clipPath id="p6c40ac3791">
   <rect x="39.65" y="35.7555" width="1339.2" height="332.64"/>
  </clipPath>
 </defs>
</svg>
