<?xml version="1.0" encoding="utf-8" standalone="no"?>
<!DOCTYPE svg PUBLIC "-//W3C//DTD SVG 1.1//EN"
  "http://www.w3.org/Graphics/SVG/1.1/DTD/svg11.dtd">
<svg xmlns:xlink="http://www.w3.org/1999/xlink" width="1400.792188pt" height="392.273625pt" viewBox="0 0 1400.792188 392.273625" xmlns="http://www.w3.org/2000/svg" version="1.1">
 <metadata>
  <rdf:RDF xmlns:dc="http://purl.org/dc/elements/1.1/" xmlns:cc="http://creativecommons.org/ns#" xmlns:rdf="http://www.w3.org/1999/02/22-rdf-syntax-ns#">
   <cc:Work>
    <dc:type rdf:resource="http://purl.org/dc/dcmitype/StillImage"/>
    <dc:date>2022-07-15T17:43:45.098953</dc:date>
    <dc:format>image/svg+xml</dc:format>
    <dc:creator>
     <cc:Agent>
      <dc:title>Matplotlib v3.5.2, https://matplotlib.org/</dc:title>
     </cc:Agent>
    </dc:creator>
   </cc:Work>
  </rdf:RDF>
 </metadata>
 <defs>
  <style type="text/css">*{stroke-linejoin: round; stroke-linecap: butt}</style>
 </defs>
 <g id="figure_1">
  <g id="patch_1">
   <path d="M 0 392.273625 
L 1400.792188 392.273625 
L 1400.792188 0 
L 0 0 
z
" style="fill: #ffffff"/>
  </g>
  <g id="axes_1">
   <g id="patch_2">
    <path d="M 54.392188 368.3955 
L 1393.592188 368.3955 
L 1393.592188 35.7555 
L 54.392188 35.7555 
z
" style="fill: #ffffff"/>
   </g>
   <g id="matplotlib.axis_1">
    <g id="xtick_1">
     <g id="line2d_1">
      <defs>
       <path id="mbe35fbec20" d="M 0 0 
L 0 3.5 
" style="stroke: #000000; stroke-width: 0.8"/>
      </defs>
      <g>
       <use xlink:href="#mbe35fbec20" x="86.02474" y="368.3955" style="stroke: #000000; stroke-width: 0.8"/>
      </g>
     </g>
     <g id="text_1">
      <!-- 2020-01 -->
      <g transform="translate(65.133334 382.993937)scale(0.1 -0.1)">
       <defs>
        <path id="DejaVuSans-32" d="M 1228 531 
L 3431 531 
L 3431 0 
L 469 0 
L 469 531 
Q 828 903 1448 1529 
Q 2069 2156 2228 2338 
Q 2531 2678 2651 2914 
Q 2772 3150 2772 3378 
Q 2772 3750 2511 3984 
Q 2250 4219 1831 4219 
Q 1534 4219 1204 4116 
Q 875 4013 500 3803 
L 500 4441 
Q 881 4594 1212 4672 
Q 1544 4750 1819 4750 
Q 2544 4750 2975 4387 
Q 3406 4025 3406 3419 
Q 3406 3131 3298 2873 
Q 3191 2616 2906 2266 
Q 2828 2175 2409 1742 
Q 1991 1309 1228 531 
z
" transform="scale(0.015625)"/>
        <path id="DejaVuSans-30" d="M 2034 4250 
Q 1547 4250 1301 3770 
Q 1056 3291 1056 2328 
Q 1056 1369 1301 889 
Q 1547 409 2034 409 
Q 2525 409 2770 889 
Q 3016 1369 3016 2328 
Q 3016 3291 2770 3770 
Q 2525 4250 2034 4250 
z
M 2034 4750 
Q 2819 4750 3233 4129 
Q 3647 3509 3647 2328 
Q 3647 1150 3233 529 
Q 2819 -91 2034 -91 
Q 1250 -91 836 529 
Q 422 1150 422 2328 
Q 422 3509 836 4129 
Q 1250 4750 2034 4750 
z
" transform="scale(0.015625)"/>
        <path id="DejaVuSans-2d" d="M 313 2009 
L 1997 2009 
L 1997 1497 
L 313 1497 
L 313 2009 
z
" transform="scale(0.015625)"/>
        <path id="DejaVuSans-31" d="M 794 531 
L 1825 531 
L 1825 4091 
L 703 3866 
L 703 4441 
L 1819 4666 
L 2450 4666 
L 2450 531 
L 3481 531 
L 3481 0 
L 794 0 
L 794 531 
z
" transform="scale(0.015625)"/>
       </defs>
       <use xlink:href="#DejaVuSans-32"/>
       <use xlink:href="#DejaVuSans-30" x="63.623047"/>
       <use xlink:href="#DejaVuSans-32" x="127.246094"/>
       <use xlink:href="#DejaVuSans-30" x="190.869141"/>
       <use xlink:href="#DejaVuSans-2d" x="254.492188"/>
       <use xlink:href="#DejaVuSans-30" x="290.576172"/>
       <use xlink:href="#DejaVuSans-31" x="354.199219"/>
      </g>
     </g>
    </g>
    <g id="xtick_2">
     <g id="line2d_2">
      <g>
       <use xlink:href="#mbe35fbec20" x="206.972735" y="368.3955" style="stroke: #000000; stroke-width: 0.8"/>
      </g>
     </g>
     <g id="text_2">
      <!-- 2020-04 -->
      <g transform="translate(186.081329 382.993937)scale(0.1 -0.1)">
       <defs>
        <path id="DejaVuSans-34" d="M 2419 4116 
L 825 1625 
L 2419 1625 
L 2419 4116 
z
M 2253 4666 
L 3047 4666 
L 3047 1625 
L 3713 1625 
L 3713 1100 
L 3047 1100 
L 3047 0 
L 2419 0 
L 2419 1100 
L 313 1100 
L 313 1709 
L 2253 4666 
z
" transform="scale(0.015625)"/>
       </defs>
       <use xlink:href="#DejaVuSans-32"/>
       <use xlink:href="#DejaVuSans-30" x="63.623047"/>
       <use xlink:href="#DejaVuSans-32" x="127.246094"/>
       <use xlink:href="#DejaVuSans-30" x="190.869141"/>
       <use xlink:href="#DejaVuSans-2d" x="254.492188"/>
       <use xlink:href="#DejaVuSans-30" x="290.576172"/>
       <use xlink:href="#DejaVuSans-34" x="354.199219"/>
      </g>
     </g>
    </g>
    <g id="xtick_3">
     <g id="line2d_3">
      <g>
       <use xlink:href="#mbe35fbec20" x="327.920731" y="368.3955" style="stroke: #000000; stroke-width: 0.8"/>
      </g>
     </g>
     <g id="text_3">
      <!-- 2020-07 -->
      <g transform="translate(307.029324 382.993937)scale(0.1 -0.1)">
       <defs>
        <path id="DejaVuSans-37" d="M 525 4666 
L 3525 4666 
L 3525 4397 
L 1831 0 
L 1172 0 
L 2766 4134 
L 525 4134 
L 525 4666 
z
" transform="scale(0.015625)"/>
       </defs>
       <use xlink:href="#DejaVuSans-32"/>
       <use xlink:href="#DejaVuSans-30" x="63.623047"/>
       <use xlink:href="#DejaVuSans-32" x="127.246094"/>
       <use xlink:href="#DejaVuSans-30" x="190.869141"/>
       <use xlink:href="#DejaVuSans-2d" x="254.492188"/>
       <use xlink:href="#DejaVuSans-30" x="290.576172"/>
       <use xlink:href="#DejaVuSans-37" x="354.199219"/>
      </g>
     </g>
    </g>
    <g id="xtick_4">
     <g id="line2d_4">
      <g>
       <use xlink:href="#mbe35fbec20" x="450.197825" y="368.3955" style="stroke: #000000; stroke-width: 0.8"/>
      </g>
     </g>
     <g id="text_4">
      <!-- 2020-10 -->
      <g transform="translate(429.306418 382.993937)scale(0.1 -0.1)">
       <use xlink:href="#DejaVuSans-32"/>
       <use xlink:href="#DejaVuSans-30" x="63.623047"/>
       <use xlink:href="#DejaVuSans-32" x="127.246094"/>
       <use xlink:href="#DejaVuSans-30" x="190.869141"/>
       <use xlink:href="#DejaVuSans-2d" x="254.492188"/>
       <use xlink:href="#DejaVuSans-31" x="290.576172"/>
       <use xlink:href="#DejaVuSans-30" x="354.199219"/>
      </g>
     </g>
    </g>
    <g id="xtick_5">
     <g id="line2d_5">
      <g>
       <use xlink:href="#mbe35fbec20" x="572.474919" y="368.3955" style="stroke: #000000; stroke-width: 0.8"/>
      </g>
     </g>
     <g id="text_5">
      <!-- 2021-01 -->
      <g transform="translate(551.583512 382.993937)scale(0.1 -0.1)">
       <use xlink:href="#DejaVuSans-32"/>
       <use xlink:href="#DejaVuSans-30" x="63.623047"/>
       <use xlink:href="#DejaVuSans-32" x="127.246094"/>
       <use xlink:href="#DejaVuSans-31" x="190.869141"/>
       <use xlink:href="#DejaVuSans-2d" x="254.492188"/>
       <use xlink:href="#DejaVuSans-30" x="290.576172"/>
       <use xlink:href="#DejaVuSans-31" x="354.199219"/>
      </g>
     </g>
    </g>
    <g id="xtick_6">
     <g id="line2d_6">
      <g>
       <use xlink:href="#mbe35fbec20" x="692.093815" y="368.3955" style="stroke: #000000; stroke-width: 0.8"/>
      </g>
     </g>
     <g id="text_6">
      <!-- 2021-04 -->
      <g transform="translate(671.202409 382.993937)scale(0.1 -0.1)">
       <use xlink:href="#DejaVuSans-32"/>
       <use xlink:href="#DejaVuSans-30" x="63.623047"/>
       <use xlink:href="#DejaVuSans-32" x="127.246094"/>
       <use xlink:href="#DejaVuSans-31" x="190.869141"/>
       <use xlink:href="#DejaVuSans-2d" x="254.492188"/>
       <use xlink:href="#DejaVuSans-30" x="290.576172"/>
       <use xlink:href="#DejaVuSans-34" x="354.199219"/>
      </g>
     </g>
    </g>
    <g id="xtick_7">
     <g id="line2d_7">
      <g>
       <use xlink:href="#mbe35fbec20" x="813.04181" y="368.3955" style="stroke: #000000; stroke-width: 0.8"/>
      </g>
     </g>
     <g id="text_7">
      <!-- 2021-07 -->
      <g transform="translate(792.150404 382.993937)scale(0.1 -0.1)">
       <use xlink:href="#DejaVuSans-32"/>
       <use xlink:href="#DejaVuSans-30" x="63.623047"/>
       <use xlink:href="#DejaVuSans-32" x="127.246094"/>
       <use xlink:href="#DejaVuSans-31" x="190.869141"/>
       <use xlink:href="#DejaVuSans-2d" x="254.492188"/>
       <use xlink:href="#DejaVuSans-30" x="290.576172"/>
       <use xlink:href="#DejaVuSans-37" x="354.199219"/>
      </g>
     </g>
    </g>
    <g id="xtick_8">
     <g id="line2d_8">
      <g>
       <use xlink:href="#mbe35fbec20" x="935.318904" y="368.3955" style="stroke: #000000; stroke-width: 0.8"/>
      </g>
     </g>
     <g id="text_8">
      <!-- 2021-10 -->
      <g transform="translate(914.427498 382.993937)scale(0.1 -0.1)">
       <use xlink:href="#DejaVuSans-32"/>
       <use xlink:href="#DejaVuSans-30" x="63.623047"/>
       <use xlink:href="#DejaVuSans-32" x="127.246094"/>
       <use xlink:href="#DejaVuSans-31" x="190.869141"/>
       <use xlink:href="#DejaVuSans-2d" x="254.492188"/>
       <use xlink:href="#DejaVuSans-31" x="290.576172"/>
       <use xlink:href="#DejaVuSans-30" x="354.199219"/>
      </g>
     </g>
    </g>
    <g id="xtick_9">
     <g id="line2d_9">
      <g>
       <use xlink:href="#mbe35fbec20" x="1057.595999" y="368.3955" style="stroke: #000000; stroke-width: 0.8"/>
      </g>
     </g>
     <g id="text_9">
      <!-- 2022-01 -->
      <g transform="translate(1036.704592 382.993937)scale(0.1 -0.1)">
       <use xlink:href="#DejaVuSans-32"/>
       <use xlink:href="#DejaVuSans-30" x="63.623047"/>
       <use xlink:href="#DejaVuSans-32" x="127.246094"/>
       <use xlink:href="#DejaVuSans-32" x="190.869141"/>
       <use xlink:href="#DejaVuSans-2d" x="254.492188"/>
       <use xlink:href="#DejaVuSans-30" x="290.576172"/>
       <use xlink:href="#DejaVuSans-31" x="354.199219"/>
      </g>
     </g>
    </g>
    <g id="xtick_10">
     <g id="line2d_10">
      <g>
       <use xlink:href="#mbe35fbec20" x="1177.214895" y="368.3955" style="stroke: #000000; stroke-width: 0.8"/>
      </g>
     </g>
     <g id="text_10">
      <!-- 2022-04 -->
      <g transform="translate(1156.323489 382.993937)scale(0.1 -0.1)">
       <use xlink:href="#DejaVuSans-32"/>
       <use xlink:href="#DejaVuSans-30" x="63.623047"/>
       <use xlink:href="#DejaVuSans-32" x="127.246094"/>
       <use xlink:href="#DejaVuSans-32" x="190.869141"/>
       <use xlink:href="#DejaVuSans-2d" x="254.492188"/>
       <use xlink:href="#DejaVuSans-30" x="290.576172"/>
       <use xlink:href="#DejaVuSans-34" x="354.199219"/>
      </g>
     </g>
    </g>
    <g id="xtick_11">
     <g id="line2d_11">
      <g>
       <use xlink:href="#mbe35fbec20" x="1298.16289" y="368.3955" style="stroke: #000000; stroke-width: 0.8"/>
      </g>
     </g>
     <g id="text_11">
      <!-- 2022-07 -->
      <g transform="translate(1277.271484 382.993937)scale(0.1 -0.1)">
       <use xlink:href="#DejaVuSans-32"/>
       <use xlink:href="#DejaVuSans-30" x="63.623047"/>
       <use xlink:href="#DejaVuSans-32" x="127.246094"/>
       <use xlink:href="#DejaVuSans-32" x="190.869141"/>
       <use xlink:href="#DejaVuSans-2d" x="254.492188"/>
       <use xlink:href="#DejaVuSans-30" x="290.576172"/>
       <use xlink:href="#DejaVuSans-37" x="354.199219"/>
      </g>
     </g>
    </g>
   </g>
   <g id="matplotlib.axis_2">
    <g id="ytick_1">
     <g id="line2d_12">
      <defs>
       <path id="meb93c5f0de" d="M 0 0 
L -3.5 0 
" style="stroke: #000000; stroke-width: 0.8"/>
      </defs>
      <g>
       <use xlink:href="#meb93c5f0de" x="54.392188" y="366.412721" style="stroke: #000000; stroke-width: 0.8"/>
      </g>
     </g>
     <g id="text_12">
      <!-- −10000 -->
      <g transform="translate(7.2 370.211939)scale(0.1 -0.1)">
       <defs>
        <path id="DejaVuSans-2212" d="M 678 2272 
L 4684 2272 
L 4684 1741 
L 678 1741 
L 678 2272 
z
" transform="scale(0.015625)"/>
       </defs>
       <use xlink:href="#DejaVuSans-2212"/>
       <use xlink:href="#DejaVuSans-31" x="83.789062"/>
       <use xlink:href="#DejaVuSans-30" x="147.412109"/>
       <use xlink:href="#DejaVuSans-30" x="211.035156"/>
       <use xlink:href="#DejaVuSans-30" x="274.658203"/>
       <use xlink:href="#DejaVuSans-30" x="338.28125"/>
      </g>
     </g>
    </g>
    <g id="ytick_2">
     <g id="line2d_13">
      <g>
       <use xlink:href="#meb93c5f0de" x="54.392188" y="322.854297" style="stroke: #000000; stroke-width: 0.8"/>
      </g>
     </g>
     <g id="text_13">
      <!-- −5000 -->
      <g transform="translate(13.5625 326.653516)scale(0.1 -0.1)">
       <defs>
        <path id="DejaVuSans-35" d="M 691 4666 
L 3169 4666 
L 3169 4134 
L 1269 4134 
L 1269 2991 
Q 1406 3038 1543 3061 
Q 1681 3084 1819 3084 
Q 2600 3084 3056 2656 
Q 3513 2228 3513 1497 
Q 3513 744 3044 326 
Q 2575 -91 1722 -91 
Q 1428 -91 1123 -41 
Q 819 9 494 109 
L 494 744 
Q 775 591 1075 516 
Q 1375 441 1709 441 
Q 2250 441 2565 725 
Q 2881 1009 2881 1497 
Q 2881 1984 2565 2268 
Q 2250 2553 1709 2553 
Q 1456 2553 1204 2497 
Q 953 2441 691 2322 
L 691 4666 
z
" transform="scale(0.015625)"/>
       </defs>
       <use xlink:href="#DejaVuSans-2212"/>
       <use xlink:href="#DejaVuSans-35" x="83.789062"/>
       <use xlink:href="#DejaVuSans-30" x="147.412109"/>
       <use xlink:href="#DejaVuSans-30" x="211.035156"/>
       <use xlink:href="#DejaVuSans-30" x="274.658203"/>
      </g>
     </g>
    </g>
    <g id="ytick_3">
     <g id="line2d_14">
      <g>
       <use xlink:href="#meb93c5f0de" x="54.392188" y="279.295873" style="stroke: #000000; stroke-width: 0.8"/>
      </g>
     </g>
     <g id="text_14">
      <!-- 0 -->
      <g transform="translate(41.029688 283.095092)scale(0.1 -0.1)">
       <use xlink:href="#DejaVuSans-30"/>
      </g>
     </g>
    </g>
    <g id="ytick_4">
     <g id="line2d_15">
      <g>
       <use xlink:href="#meb93c5f0de" x="54.392188" y="235.73745" style="stroke: #000000; stroke-width: 0.8"/>
      </g>
     </g>
     <g id="text_15">
      <!-- 5000 -->
      <g transform="translate(21.942188 239.536669)scale(0.1 -0.1)">
       <use xlink:href="#DejaVuSans-35"/>
       <use xlink:href="#DejaVuSans-30" x="63.623047"/>
       <use xlink:href="#DejaVuSans-30" x="127.246094"/>
       <use xlink:href="#DejaVuSans-30" x="190.869141"/>
      </g>
     </g>
    </g>
    <g id="ytick_5">
     <g id="line2d_16">
      <g>
       <use xlink:href="#meb93c5f0de" x="54.392188" y="192.179026" style="stroke: #000000; stroke-width: 0.8"/>
      </g>
     </g>
     <g id="text_16">
      <!-- 10000 -->
      <g transform="translate(15.579688 195.978245)scale(0.1 -0.1)">
       <use xlink:href="#DejaVuSans-31"/>
       <use xlink:href="#DejaVuSans-30" x="63.623047"/>
       <use xlink:href="#DejaVuSans-30" x="127.246094"/>
       <use xlink:href="#DejaVuSans-30" x="190.869141"/>
       <use xlink:href="#DejaVuSans-30" x="254.492188"/>
      </g>
     </g>
    </g>
    <g id="ytick_6">
     <g id="line2d_17">
      <g>
       <use xlink:href="#meb93c5f0de" x="54.392188" y="148.620603" style="stroke: #000000; stroke-width: 0.8"/>
      </g>
     </g>
     <g id="text_17">
      <!-- 15000 -->
      <g transform="translate(15.579688 152.419821)scale(0.1 -0.1)">
       <use xlink:href="#DejaVuSans-31"/>
       <use xlink:href="#DejaVuSans-35" x="63.623047"/>
       <use xlink:href="#DejaVuSans-30" x="127.246094"/>
       <use xlink:href="#DejaVuSans-30" x="190.869141"/>
       <use xlink:href="#DejaVuSans-30" x="254.492188"/>
      </g>
     </g>
    </g>
    <g id="ytick_7">
     <g id="line2d_18">
      <g>
       <use xlink:href="#meb93c5f0de" x="54.392188" y="105.062179" style="stroke: #000000; stroke-width: 0.8"/>
      </g>
     </g>
     <g id="text_18">
      <!-- 20000 -->
      <g transform="translate(15.579688 108.861398)scale(0.1 -0.1)">
       <use xlink:href="#DejaVuSans-32"/>
       <use xlink:href="#DejaVuSans-30" x="63.623047"/>
       <use xlink:href="#DejaVuSans-30" x="127.246094"/>
       <use xlink:href="#DejaVuSans-30" x="190.869141"/>
       <use xlink:href="#DejaVuSans-30" x="254.492188"/>
      </g>
     </g>
    </g>
    <g id="ytick_8">
     <g id="line2d_19">
      <g>
       <use xlink:href="#meb93c5f0de" x="54.392188" y="61.503755" style="stroke: #000000; stroke-width: 0.8"/>
      </g>
     </g>
     <g id="text_19">
      <!-- 25000 -->
      <g transform="translate(15.579688 65.302974)scale(0.1 -0.1)">
       <use xlink:href="#DejaVuSans-32"/>
       <use xlink:href="#DejaVuSans-35" x="63.623047"/>
       <use xlink:href="#DejaVuSans-30" x="127.246094"/>
       <use xlink:href="#DejaVuSans-30" x="190.869141"/>
       <use xlink:href="#DejaVuSans-30" x="254.492188"/>
      </g>
     </g>
    </g>
   </g>
   <g id="line2d_20">
    <path d="M 115.264915 279.295873 
L 187.036253 279.217468 
L 189.69445 279.095505 
L 191.023549 278.903848 
L 192.352648 279.165198 
L 193.681747 278.886424 
L 195.010846 278.337588 
L 196.339945 278.65992 
L 197.669043 278.442128 
L 198.998142 277.457708 
L 201.65634 278.050102 
L 202.985439 278.511822 
L 204.314538 276.264207 
L 205.643636 277.039547 
L 206.972735 277.117952 
L 208.301834 277.414149 
L 209.630933 278.102373 
L 210.960032 276.22936 
L 212.289131 278.520533 
L 213.61823 275.558561 
L 214.947328 276.717215 
L 216.276427 277.710347 
L 217.605526 277.318321 
L 218.934625 275.837335 
L 220.263724 277.492555 
L 221.592823 278.355011 
L 222.921922 277.597095 
L 224.25102 277.788752 
L 225.580119 278.093661 
L 226.909218 276.630098 
L 228.238317 277.379303 
L 229.567416 277.658077 
L 230.896515 278.111084 
L 232.225613 277.875869 
L 233.554712 277.300898 
L 234.883811 277.51869 
L 236.21291 276.935007 
L 237.542009 277.248627 
L 238.871108 277.867157 
L 241.529305 277.83231 
L 242.858404 278.067526 
L 244.187503 277.509978 
L 245.516602 277.300898 
L 246.845701 276.542981 
L 248.1748 277.440285 
L 249.503898 277.814887 
L 250.832997 276.856602 
L 252.162096 277.483843 
L 253.491195 277.074394 
L 256.149393 278.111084 
L 257.478492 277.936851 
L 258.80759 278.433417 
L 261.465788 278.180778 
L 262.794887 277.597095 
L 264.123986 277.858445 
L 265.453085 277.457708 
L 268.111282 278.363723 
L 269.440381 278.032679 
L 270.76948 278.154643 
L 272.098579 277.649365 
L 273.427678 277.971697 
L 274.756777 277.431573 
L 276.085875 278.032679 
L 277.414974 277.318321 
L 278.744073 278.172066 
L 280.073172 277.745193 
L 281.402271 277.88458 
L 282.73137 277.483843 
L 284.060469 277.910715 
L 286.718666 277.902004 
L 288.047765 277.335744 
L 289.376864 276.90016 
L 290.705963 277.083105 
L 292.035062 276.882737 
L 293.364161 277.875869 
L 294.693259 276.813043 
L 296.022358 278.485687 
L 297.351457 277.553536 
L 298.680556 277.492555 
L 300.009655 277.588383 
L 301.338754 277.509978 
L 302.667852 278.851577 
L 303.996951 277.318321 
L 305.32605 278.956118 
L 306.655149 276.246784 
L 307.984248 276.987277 
L 309.313347 277.379303 
L 310.642446 276.569116 
L 311.971544 276.630098 
L 313.300643 275.715371 
L 314.629742 275.541137 
L 315.958841 277.62323 
L 317.28794 275.253652 
L 318.617039 276.264207 
L 319.946137 275.027148 
L 321.275236 274.687392 
L 323.933434 277.501266 
L 325.262533 274.460888 
L 326.591632 274.783221 
L 327.920731 276.142243 
L 329.249829 274.443465 
L 330.578928 274.434753 
L 331.908027 275.323345 
L 333.237126 277.0047 
L 334.566225 275.288498 
L 335.895324 272.561741 
L 337.224423 272.683705 
L 338.553521 272.387507 
L 339.88262 273.284811 
L 341.211719 274.513158 
L 342.540818 276.752061 
L 343.869917 275.236228 
L 345.199016 270.749711 
L 346.528114 272.134869 
L 347.857213 272.012905 
L 349.186312 271.429222 
L 350.515411 271.15916 
L 353.173609 273.702972 
L 354.502708 269.55621 
L 355.831806 268.075223 
L 357.160905 265.818897 
L 358.490004 265.313619 
L 359.819103 267.343442 
L 361.148202 269.077067 
L 362.477301 267.979395 
L 363.806399 264.416316 
L 365.135498 263.858768 
L 366.464597 260.853237 
L 367.793696 266.428715 
L 370.451894 274.426042 
L 371.780993 269.983082 
L 373.110091 268.475961 
L 374.43919 269.277436 
L 375.768289 269.791425 
L 377.097388 269.669462 
L 378.426487 277.989121 
L 379.755586 267.596081 
L 381.084685 270.427378 
L 382.413783 269.538786 
L 383.742882 265.583682 
L 385.071981 266.24577 
L 386.40108 267.23019 
L 387.730179 268.963815 
L 389.059278 269.077067 
L 390.388376 269.922101 
L 391.717475 271.699284 
L 393.046574 268.258169 
L 394.375673 269.530075 
L 395.704772 267.979395 
L 397.033871 267.726756 
L 398.36297 272.230697 
L 399.692068 271.838671 
L 401.021167 271.917076 
L 402.350266 266.916569 
L 403.679365 265.906014 
L 405.008464 266.24577 
L 406.337563 266.123806 
L 407.666661 268.275592 
L 410.324859 269.233878 
L 411.653958 265.966996 
L 412.983057 265.966996 
L 414.312156 265.078404 
L 415.641255 262.36907 
L 416.970353 267.787738 
L 418.299452 271.05462 
L 419.628551 272.065175 
L 420.95765 266.376445 
L 422.286749 267.822585 
L 423.615848 265.209079 
L 424.944947 261.428208 
L 427.603144 267.474117 
L 428.932243 266.1935 
L 430.261342 267.700621 
L 431.590441 264.111407 
L 432.91954 262.464898 
L 434.248638 266.437427 
L 435.577737 267.12565 
L 436.906836 266.167364 
L 438.235935 268.101358 
L 439.565034 264.991287 
L 440.894133 266.899146 
L 442.223232 261.916062 
L 443.55233 261.227839 
L 444.881429 265.966996 
L 446.210528 268.031665 
L 447.539627 275.279787 
L 448.868726 276.760773 
L 450.197825 277.170222 
L 451.526924 243.072688 
L 452.856022 264.895459 
L 454.185121 266.533255 
L 455.51422 267.543811 
L 456.843319 269.512651 
L 458.172418 268.388844 
L 460.830615 260.92293 
L 462.159714 238.350955 
L 463.488813 276.856602 
L 464.817912 276.978565 
L 466.147011 276.299054 
L 467.47611 239.439916 
L 468.805209 262.229683 
L 470.134307 258.474947 
L 471.463406 259.790411 
L 474.121604 265.975707 
L 475.450703 265.557547 
L 476.779802 265.932149 
L 478.1089 261.158146 
L 479.437999 260.469923 
L 480.767098 255.791748 
L 482.096197 261.69827 
L 483.425296 263.013735 
L 484.754395 262.978888 
L 486.083494 257.856417 
L 487.412592 273.02346 
L 488.741691 230.736943 
L 490.07079 254.005853 
L 491.399889 256.793592 
L 492.728988 252.577136 
L 494.058087 257.568932 
L 495.387186 252.664253 
L 496.716284 243.534408 
L 498.045383 239.195989 
L 499.374482 238.655864 
L 500.703581 244.283612 
L 502.03268 248.195159 
L 503.361779 237.270706 
L 504.690877 241.138694 
L 506.019976 231.285779 
L 507.349075 237.070338 
L 508.678174 196.238671 
L 510.007273 271.899653 
L 511.336372 238.446784 
L 512.665471 227.417791 
L 513.994569 236.05107 
L 515.323668 236.277574 
L 516.652767 235.293154 
L 517.981866 235.693891 
L 519.310965 241.53072 
L 520.640064 244.47527 
L 521.969162 240.85992 
L 523.298261 235.824567 
L 524.62736 240.223967 
L 525.956459 249.33639 
L 527.285558 256.087945 
L 528.614657 249.824244 
L 529.943756 241.042866 
L 531.272854 246.18276 
L 532.601953 248.735283 
L 533.931052 236.112052 
L 535.260151 237.261995 
L 536.58925 232.967134 
L 537.918349 244.884719 
L 539.247448 249.371236 
L 540.576546 244.78889 
L 541.905645 247.202027 
L 543.234744 235.937819 
L 544.563843 257.873841 
L 545.892942 211.344733 
L 547.222041 251.531734 
L 548.551139 247.498224 
L 551.209337 245.51196 
L 552.538436 240.80765 
L 553.867535 240.406913 
L 555.196634 250.155288 
L 556.525733 256.044387 
L 557.854831 245.651347 
L 559.18393 252.429038 
L 560.513029 246.113066 
L 561.842128 247.811845 
L 563.171227 262.917906 
L 564.500326 260.478634 
L 565.829424 263.658399 
L 567.158523 258.204885 
L 568.487622 240.110715 
L 569.816721 241.983728 
L 571.14582 232.810324 
L 572.474919 242.157961 
L 573.804018 249.954919 
L 575.133116 251.261672 
L 576.462215 258.300713 
L 577.791314 242.576122 
L 579.120413 245.903986 
L 580.449512 228.132149 
L 581.778611 232.723207 
L 583.10771 241.53072 
L 584.436808 253.674809 
L 585.765907 256.183774 
L 587.095006 251.026456 
L 588.424105 254.35432 
L 589.753204 248.108042 
L 591.082303 243.246922 
L 592.411401 254.650517 
L 593.7405 260.156302 
L 595.069599 264.686378 
L 596.398698 258.701451 
L 597.727797 257.272734 
L 599.056896 253.169531 
L 600.385995 256.776168 
L 601.715093 259.624889 
L 603.044192 259.537772 
L 604.373291 264.163677 
L 605.70239 260.14759 
L 607.031489 260.304401 
L 608.360588 256.070522 
L 609.689687 257.699607 
L 611.018785 265.810185 
L 612.347884 268.867987 
L 613.676983 264.947729 
L 615.006082 263.771651 
L 616.335181 265.113251 
L 617.66428 260.104032 
L 618.993378 260.208572 
L 620.322477 268.894122 
L 621.651576 272.282967 
L 624.309774 269.686885 
L 625.638873 266.759759 
L 626.967972 267.238902 
L 628.29707 269.86983 
L 630.955268 274.4696 
L 632.284367 273.598432 
L 633.613466 272.500759 
L 634.942565 270.976214 
L 636.271663 269.965659 
L 638.929861 272.404931 
L 640.25896 274.26052 
L 641.588059 271.10689 
L 642.917158 268.667618 
L 644.246257 271.551186 
L 645.575355 270.984926 
L 646.904454 273.145424 
L 648.233553 273.74653 
L 649.562652 276.717215 
L 650.891751 274.338925 
L 652.22085 273.633278 
L 653.549949 273.241252 
L 654.879047 272.727263 
L 656.208146 273.85107 
L 657.537245 273.824935 
L 658.866344 276.02028 
L 661.524542 273.441621 
L 662.85364 278.990964 
L 664.182739 275.1404 
L 665.511838 271.978058 
L 666.840937 272.76211 
L 668.170036 274.966166 
L 669.499135 275.811199 
L 670.828234 273.467756 
L 672.157332 272.587876 
L 673.486431 273.067019 
L 674.81553 273.702972 
L 676.144629 273.668125 
L 677.473728 275.758929 
L 678.802827 276.603963 
L 680.131925 274.861626 
L 681.461024 271.951923 
L 682.790123 268.545654 
L 685.448321 274.103709 
L 686.77742 275.584696 
L 688.106519 276.360036 
L 689.435617 274.391195 
L 690.764716 273.197694 
L 692.093815 273.197694 
L 693.422914 272.753398 
L 694.752013 274.41733 
L 696.081112 274.617699 
L 697.410211 276.447152 
L 698.739309 274.277943 
L 700.068408 272.544318 
L 701.397507 272.396219 
L 702.726606 272.518183 
L 704.055705 273.459045 
L 705.384804 275.114265 
L 706.713902 276.368747 
L 708.043001 273.511315 
L 709.3721 272.100022 
L 710.701199 272.718551 
L 712.030298 271.917076 
L 713.359397 353.2755 
L 714.688496 275.994145 
L 716.017594 275.941875 
L 717.346693 273.572296 
L 718.675792 273.040884 
L 720.004891 272.24812 
L 721.33399 271.995482 
L 722.663089 272.457201 
L 723.992188 275.950586 
L 725.321286 276.821755 
L 726.650385 274.321501 
L 727.979484 272.300391 
L 729.308583 272.343949 
L 730.637682 273.511315 
L 731.966781 270.148604 
L 733.295879 272.439777 
L 734.624978 276.185802 
L 735.954077 274.513158 
L 737.283176 274.034016 
L 738.612275 273.676837 
L 741.270473 274.643834 
L 742.599571 276.342612 
L 743.92867 277.144087 
L 745.257769 275.724083 
L 746.586868 274.608987 
L 747.915967 273.729107 
L 749.245066 275.19267 
L 750.574164 275.29721 
L 751.903263 276.752061 
L 753.232362 277.579671 
L 754.561461 275.567272 
L 755.89056 275.375615 
L 757.219659 274.36506 
L 758.548758 274.347636 
L 759.877856 274.608987 
L 761.206955 276.908872 
L 762.536054 277.501266 
L 763.865153 275.210093 
L 765.194252 275.384327 
L 766.523351 273.293523 
L 767.85245 273.946899 
L 769.181548 275.166535 
L 770.510647 277.170222 
L 771.839746 277.814887 
L 773.168845 277.719058 
L 774.497944 275.044571 
L 775.827043 273.929476 
L 777.156141 273.293523 
L 778.48524 274.879049 
L 779.814339 282.710854 
L 781.143438 272.753398 
L 782.472537 272.988614 
L 783.801636 273.859782 
L 785.130735 273.415486 
L 786.459833 273.676837 
L 787.788932 274.460888 
L 789.118031 275.776353 
L 790.44713 276.595251 
L 793.105328 271.786401 
L 794.434426 272.666281 
L 795.763525 271.289835 
L 797.092624 273.929476 
L 798.421723 275.009724 
L 799.750822 275.549849 
L 801.079921 272.457201 
L 802.40902 271.969347 
L 803.738118 268.510808 
L 805.067217 271.533762 
L 806.396316 272.422354 
L 809.054514 275.445309 
L 810.383613 271.167872 
L 811.712712 267.752891 
L 813.04181 268.092647 
L 814.370909 269.077067 
L 815.700008 277.300898 
L 817.029107 268.336574 
L 819.687305 272.622723 
L 821.016403 264.843188 
L 822.345502 264.790918 
L 823.674601 260.635445 
L 826.332799 269.756579 
L 827.661898 277.440285 
L 828.990997 259.37225 
L 830.320095 259.651024 
L 831.649194 254.781193 
L 832.978293 258.962801 
L 834.307392 258.431388 
L 835.636491 267.404424 
L 836.96559 270.261856 
L 838.294688 260.861948 
L 839.623787 253.770637 
L 840.952886 250.738971 
L 842.281985 254.981561 
L 843.611084 251.087438 
L 844.940183 265.958284 
L 846.269282 269.381976 
L 847.59838 257.159482 
L 848.927479 254.598247 
L 850.256578 252.472596 
L 851.585677 244.823737 
L 852.914776 255.382299 
L 854.243875 262.52588 
L 855.572974 268.83314 
L 856.902072 256.06181 
L 858.231171 241.312928 
L 859.56027 244.030974 
L 860.889369 251.71468 
L 862.218468 256.087945 
L 863.547567 263.318644 
L 864.876665 268.67633 
L 866.205764 257.934822 
L 867.534863 243.543119 
L 868.863962 247.646323 
L 870.193061 254.484995 
L 871.52216 250.93934 
L 872.851259 264.825765 
L 874.180357 267.569946 
L 875.509456 260.417653 
L 876.838555 252.402903 
L 878.167654 250.137865 
L 879.496753 255.443281 
L 880.825852 257.673472 
L 882.154951 264.198524 
L 883.484049 266.698777 
L 884.813148 259.21544 
L 886.142247 255.826595 
L 887.471346 254.014564 
L 888.800445 255.042543 
L 890.129544 257.952246 
L 891.458642 269.111914 
L 892.787741 260.452499 
L 894.11684 267.082091 
L 895.445939 252.437749 
L 896.775038 252.254804 
L 898.104137 255.425857 
L 899.433236 257.255311 
L 900.762334 266.263193 
L 902.091433 269.164184 
L 903.420532 269.582345 
L 904.749631 256.976537 
L 906.07873 257.359851 
L 907.407829 251.784373 
L 908.736927 255.399722 
L 910.066026 264.773495 
L 911.395125 267.169208 
L 912.724224 259.982068 
L 914.053323 256.540953 
L 915.382422 255.905 
L 916.711521 257.098501 
L 918.040619 260.112744 
L 919.369718 267.221478 
L 920.698817 270.218298 
L 922.027916 261.811522 
L 923.357015 260.905507 
L 924.686114 260.792255 
L 926.015213 262.133854 
L 927.344311 260.992624 
L 928.67341 269.538786 
L 930.002509 272.413642 
L 931.331608 265.365889 
L 932.660707 261.733117 
L 933.989806 261.80281 
L 935.318904 263.771651 
L 936.648003 264.555703 
L 937.977102 270.401243 
L 939.306201 272.70984 
L 940.6353 268.78087 
L 941.964399 262.290665 
L 943.293498 266.210923 
L 944.622596 265.670798 
L 945.951695 268.319151 
L 947.280794 272.561741 
L 948.609893 272.86665 
L 949.938992 270.601612 
L 951.268091 267.535099 
L 952.597189 266.463562 
L 953.926288 266.994975 
L 955.255387 270.418667 
L 956.584486 273.206406 
L 957.913585 275.697948 
L 959.242684 270.453513 
L 960.571783 269.007374 
L 961.900881 268.197187 
L 963.22998 270.113758 
L 964.559079 269.260013 
L 965.888178 274.452177 
L 967.217277 274.809356 
L 968.546376 270.444802 
L 969.875475 268.432403 
L 971.204573 268.920257 
L 972.533672 270.113758 
L 973.862771 269.86983 
L 975.19187 272.875362 
L 976.520969 275.288498 
L 977.850068 268.928969 
L 979.179166 267.979395 
L 981.837364 269.312283 
L 983.166463 266.550679 
L 984.495562 272.831803 
L 985.824661 273.476468 
L 987.15376 266.472273 
L 988.482858 264.668955 
L 989.811957 278.433417 
L 991.141056 251.157132 
L 992.470155 264.886747 
L 993.799254 270.897809 
L 995.128353 272.884073 
L 996.457451 265.365889 
L 997.78655 264.947729 
L 999.115649 182.700713 
L 1000.444748 264.425028 
L 1001.773847 265.5227 
L 1003.102946 271.82996 
L 1005.761143 262.438763 
L 1007.090242 261.759252 
L 1008.419341 278.485687 
L 1009.74844 279.295873 
L 1011.077539 273.206406 
L 1012.406638 277.448996 
L 1013.735737 230.545286 
L 1015.064835 255.878865 
L 1016.393934 252.106705 
L 1017.723033 234.099653 
L 1019.052132 275.175246 
L 1020.381231 237.715002 
L 1021.71033 266.29804 
L 1023.039428 251.444617 
L 1024.368527 257.751877 
L 1025.697626 245.877851 
L 1027.026725 250.643142 
L 1028.355824 247.707305 
L 1029.684923 259.328692 
L 1031.014022 263.893615 
L 1032.34312 265.688222 
L 1033.672219 273.128001 
L 1035.001318 233.280755 
L 1036.330417 243.377597 
L 1037.659516 251.653698 
L 1038.988615 249.658722 
L 1040.317714 263.841345 
L 1041.646812 265.313619 
L 1042.975911 254.929291 
L 1044.30501 246.783866 
L 1045.634109 231.791057 
L 1046.963208 276.84789 
L 1048.292307 279.295873 
L 1049.621405 259.799123 
L 1050.950504 219.899607 
L 1052.279603 234.953398 
L 1053.608702 199.836597 
L 1054.937801 202.302004 
L 1056.2669 274.67868 
L 1057.595999 279.295873 
L 1058.925097 227.713988 
L 1060.254196 261.402073 
L 1061.583295 50.8755 
L 1062.912394 170.748282 
L 1064.241493 168.988521 
L 1065.570592 168.439685 
L 1066.89969 160.302972 
L 1068.228789 212.442405 
L 1069.557888 216.040331 
L 1070.886987 169.075638 
L 1072.216086 164.650102 
L 1073.545185 144.918137 
L 1074.874284 192.771421 
L 1076.203382 103.276284 
L 1077.532481 279.034523 
L 1078.86158 279.287162 
L 1080.190679 68.7693 
L 1081.519778 152.575707 
L 1082.848877 140.353214 
L 1084.177976 146.852131 
L 1085.507074 187.056556 
L 1086.836173 219.65568 
L 1088.165272 217.190273 
L 1089.494371 196.639409 
L 1090.82347 188.886009 
L 1092.152569 195.724682 
L 1093.481667 198.024567 
L 1094.810766 203.390964 
L 1096.139865 251.793085 
L 1097.468964 244.754043 
L 1098.798063 234.517814 
L 1100.127162 195.515601 
L 1101.456261 239.457339 
L 1102.785359 255.12966 
L 1104.114458 255.95727 
L 1105.443557 261.994468 
L 1108.101755 251.374924 
L 1109.430854 239.195989 
L 1110.759952 222.365014 
L 1112.089051 273.276099 
L 1113.41815 277.579671 
L 1114.747249 279.295873 
L 1116.076348 217.808803 
L 1117.405447 263.170545 
L 1118.734546 261.820234 
L 1120.063644 262.839501 
L 1121.392743 270.653882 
L 1122.721842 277.248627 
L 1124.050941 279.295873 
L 1125.38004 278.642497 
L 1126.709139 250.181423 
L 1128.038238 268.16234 
L 1129.367336 267.988107 
L 1130.696435 269.338418 
L 1132.025534 278.738326 
L 1133.354633 279.295873 
L 1134.683732 265.78405 
L 1136.012831 272.744686 
L 1137.341929 273.067019 
L 1138.671028 272.239409 
L 1140.000127 273.7988 
L 1141.329226 278.598939 
L 1142.658325 279.295873 
L 1143.987424 270.340261 
L 1145.316523 272.570453 
L 1146.645621 275.86347 
L 1147.97472 274.103709 
L 1149.303819 275.994145 
L 1150.632918 279.295873 
L 1151.962017 279.295873 
L 1153.291116 270.453513 
L 1154.620214 274.41733 
L 1155.949313 276.238072 
L 1157.278412 278.886424 
L 1158.607511 279.295873 
L 1161.265709 279.295873 
L 1162.594808 265.853744 
L 1163.923906 292.738003 
L 1165.253005 255.913712 
L 1166.582104 272.979902 
L 1167.911203 274.086286 
L 1169.240302 279.295873 
L 1170.569401 279.295873 
L 1171.8985 272.230697 
L 1173.227598 274.948743 
L 1174.556697 273.790089 
L 1175.885796 274.225673 
L 1177.214895 278.625074 
L 1178.543994 279.295873 
L 1179.873093 279.295873 
L 1181.202191 277.88458 
L 1182.53129 278.738326 
L 1183.860389 277.544825 
L 1185.189488 245.520672 
L 1186.518587 278.468263 
L 1187.847686 279.295873 
L 1189.176785 279.295873 
L 1190.505883 277.239916 
L 1191.834982 278.084949 
L 1193.164081 278.433417 
L 1194.49318 263.222815 
L 1195.822279 277.814887 
L 1197.151378 279.295873 
L 1198.480477 279.295873 
L 1199.809575 276.403594 
L 1201.138674 277.6755 
L 1202.467773 277.579671 
L 1203.796872 258.753721 
L 1205.125971 277.483843 
L 1206.45507 279.295873 
L 1207.784168 279.295873 
L 1209.113267 274.704816 
L 1210.442366 277.178934 
L 1211.771465 276.752061 
L 1213.100564 251.836643 
L 1214.429663 277.222492 
L 1215.758762 279.295873 
L 1217.08786 279.295873 
L 1218.416959 276.307765 
L 1219.746058 276.255495 
L 1221.075157 277.448996 
L 1222.404256 274.478312 
L 1223.733355 248.526203 
L 1225.062453 279.295873 
L 1226.391552 279.295873 
L 1227.720651 271.856095 
L 1229.04975 276.055127 
L 1230.378849 275.34948 
L 1231.707948 275.602119 
L 1233.037047 244.89343 
L 1234.366145 279.295873 
L 1235.695244 279.295873 
L 1237.024343 270.958791 
L 1238.353442 274.034016 
L 1239.682541 265.592393 
L 1241.01164 275.114265 
L 1242.340739 233.298178 
L 1243.669837 279.295873 
L 1244.998936 279.295873 
L 1246.328035 271.464069 
L 1247.657134 275.1404 
L 1248.986233 275.183958 
L 1250.315332 275.497579 
L 1251.64443 220.439731 
L 1252.973529 279.295873 
L 1255.631727 279.295873 
L 1256.960826 267.622216 
L 1258.289925 275.706659 
L 1259.619024 271.394375 
L 1260.948122 218.645124 
L 1262.277221 279.295873 
L 1263.60632 279.295873 
L 1264.935419 273.380639 
L 1266.264518 270.157316 
L 1267.593617 273.720395 
L 1268.922715 275.122976 
L 1270.251814 208.940308 
L 1271.580913 279.295873 
L 1272.910012 279.295873 
L 1274.239111 271.516339 
L 1275.56821 274.643834 
L 1276.897309 274.722239 
L 1278.226407 274.530582 
L 1279.555506 205.708273 
L 1280.884605 279.295873 
L 1283.542803 279.295873 
L 1284.871902 266.733624 
L 1286.201001 275.288498 
L 1287.530099 274.487023 
L 1288.859198 199.340031 
L 1290.188297 279.295873 
L 1291.517396 279.295873 
L 1292.846495 267.787738 
L 1294.175594 272.86665 
L 1295.504692 274.818067 
L 1296.833791 274.530582 
L 1298.16289 189.121225 
L 1299.491989 279.295873 
L 1302.150187 279.295873 
L 1303.479286 268.040377 
L 1304.808384 276.360036 
L 1306.137483 269.477805 
L 1307.466582 189.87043 
L 1308.795681 279.295873 
L 1310.12478 279.295873 
L 1311.453879 267.709333 
L 1312.782977 274.042727 
L 1314.112076 275.001013 
L 1315.441175 274.330213 
L 1315.441175 274.330213 
" clip-path="url(#pe57615a3b6)" style="fill: none; stroke: #0000ff; stroke-width: 1.5; stroke-linecap: square"/>
   </g>
   <g id="line2d_21">
    <path d="M 1076.203382 175.09717 
L 1077.532481 193.101348 
L 1078.86158 153.870753 
L 1080.190679 163.101663 
L 1081.519778 157.698391 
L 1082.848877 173.131055 
L 1084.177976 138.019504 
L 1085.507074 206.891386 
L 1086.836173 209.677602 
L 1088.165272 119.869115 
L 1089.494371 166.217185 
L 1090.82347 163.120782 
L 1092.152569 185.994059 
L 1093.481667 187.383876 
L 1094.810766 232.661776 
L 1096.139865 236.055594 
L 1097.468964 185.78411 
L 1098.798063 208.13131 
L 1100.127162 205.938626 
L 1101.456261 220.583378 
L 1102.785359 225.996529 
L 1104.114458 268.815732 
L 1105.443557 267.688213 
L 1106.772656 238.426805 
L 1108.101755 233.403813 
L 1109.430854 247.765706 
L 1110.759952 253.886347 
L 1112.089051 257.362878 
L 1113.41815 278.649336 
L 1114.747249 277.292706 
L 1116.076348 254.102168 
L 1117.405447 247.403926 
L 1118.734546 247.396655 
L 1120.063644 271.976709 
L 1121.392743 274.750148 
L 1122.721842 285.901931 
L 1124.050941 262.813337 
L 1125.38004 272.570422 
L 1126.709139 265.362982 
L 1128.038238 267.285632 
L 1129.367336 279.054116 
L 1130.696435 280.998613 
L 1132.025534 286.24131 
L 1133.354633 273.76228 
L 1134.683732 266.583965 
L 1136.012831 271.143498 
L 1137.341929 271.48682 
L 1138.671028 278.774945 
L 1140.000127 282.800836 
L 1141.329226 285.041922 
L 1142.658325 274.077955 
L 1143.987424 272.733107 
L 1145.316523 274.493964 
L 1146.645621 274.435091 
L 1149.303819 281.847289 
L 1150.632918 283.066684 
L 1151.962017 274.614005 
L 1153.291116 274.329444 
L 1154.620214 276.223953 
L 1155.949313 275.394008 
L 1158.607511 281.569264 
L 1159.93661 282.246215 
L 1161.265709 275.102938 
L 1162.594808 275.158867 
L 1163.923906 279.033963 
L 1165.253005 276.060063 
L 1166.582104 277.687065 
L 1167.911203 277.206857 
L 1169.240302 277.752158 
L 1170.569401 270.150953 
L 1171.8985 280.338548 
L 1173.227598 268.176978 
L 1174.556697 274.982337 
L 1175.885796 275.654587 
L 1177.214895 278.851007 
L 1178.543994 279.0856 
L 1179.873093 273.14555 
L 1181.202191 279.474187 
L 1182.53129 273.461274 
L 1183.860389 277.347753 
L 1185.189488 274.751306 
L 1186.518587 276.474672 
L 1187.847686 275.227487 
L 1189.176785 272.789556 
L 1190.505883 276.741055 
L 1191.834982 273.869741 
L 1193.164081 265.541452 
L 1194.49318 277.267131 
L 1195.822279 278.510392 
L 1197.151378 278.516641 
L 1198.480477 276.309394 
L 1199.809575 278.13533 
L 1201.138674 276.619785 
L 1202.467773 267.195035 
L 1203.796872 276.654585 
L 1205.125971 277.675884 
L 1206.45507 277.465647 
L 1207.784168 275.731003 
L 1209.113267 276.997008 
L 1210.442366 276.338286 
L 1211.771465 265.398725 
L 1213.100564 274.921794 
L 1214.429663 276.163906 
L 1215.758762 275.893992 
L 1217.08786 274.07323 
L 1218.416959 276.087921 
L 1219.746058 275.787104 
L 1221.075157 262.492752 
L 1222.404256 278.251153 
L 1223.733355 275.468906 
L 1225.062453 276.273268 
L 1226.391552 272.781884 
L 1227.720651 273.734472 
L 1229.04975 274.451259 
L 1230.378849 266.897602 
L 1231.707948 266.430046 
L 1233.037047 274.378453 
L 1234.366145 275.260965 
L 1235.695244 271.076973 
L 1237.024343 273.229517 
L 1238.353442 273.448957 
L 1239.682541 268.663029 
L 1241.01164 258.359622 
L 1242.340739 271.194086 
L 1243.669837 272.415445 
L 1244.998936 267.578759 
L 1246.328035 270.676617 
L 1247.657134 268.885723 
L 1248.986233 271.402868 
L 1250.315332 252.900012 
L 1251.64443 272.139969 
L 1252.973529 272.898083 
L 1254.302628 267.249144 
L 1255.631727 271.782712 
L 1256.960826 270.37782 
L 1258.289925 272.465624 
L 1259.619024 244.262016 
L 1260.948122 271.949209 
L 1262.277221 272.578664 
L 1263.60632 269.862517 
L 1264.935419 268.168704 
L 1266.264518 270.933205 
L 1267.593617 270.419161 
L 1268.922715 240.081732 
L 1270.251814 271.181348 
L 1271.580913 272.156904 
L 1272.910012 268.406073 
L 1274.239111 267.112239 
L 1275.56821 270.852224 
L 1276.897309 271.547707 
L 1278.226407 235.190812 
L 1279.555506 271.849694 
L 1280.884605 272.632278 
L 1282.213704 267.90955 
L 1283.542803 270.063191 
L 1284.871902 271.244943 
L 1286.201001 272.24192 
L 1287.530099 231.283788 
L 1288.859198 271.293121 
L 1290.188297 272.11914 
L 1291.517396 269.450355 
L 1292.846495 265.677888 
L 1294.175594 270.517235 
L 1295.504692 270.737193 
L 1296.833791 226.688924 
L 1298.16289 269.812989 
L 1299.491989 270.816226 
L 1300.821088 265.219537 
L 1302.150187 267.718721 
L 1303.479286 270.786575 
L 1304.808384 272.017766 
L 1306.137483 221.239638 
L 1307.466582 270.537108 
L 1308.795681 271.193619 
L 1310.12478 268.38488 
L 1311.453879 265.148333 
L 1312.782977 270.797398 
L 1314.112076 268.964828 
L 1315.441175 219.200536 
L 1315.441175 219.200536 
" clip-path="url(#pe57615a3b6)" style="fill: none; stroke: #ffa500; stroke-width: 1.5; stroke-linecap: square"/>
   </g>
   <g id="line2d_22">
    <path d="M 1315.441175 219.200536 
L 1316.770274 275.333507 
L 1318.099373 275.579129 
L 1319.428472 270.534199 
L 1320.757571 270.721282 
L 1322.086669 272.936205 
L 1323.415768 271.538258 
L 1324.744867 228.322585 
L 1326.073966 274.207103 
L 1327.403065 274.289135 
L 1328.732164 270.17344 
L 1330.061263 270.332885 
L 1331.390361 272.146602 
L 1332.71946 271.000461 
" clip-path="url(#pe57615a3b6)" style="fill: none; stroke: #ff0000; stroke-width: 1.5; stroke-linecap: square"/>
   </g>
   <g id="patch_3">
    <path d="M 54.392188 368.3955 
L 54.392188 35.7555 
" style="fill: none; stroke: #000000; stroke-width: 0.8; stroke-linejoin: miter; stroke-linecap: square"/>
   </g>
   <g id="patch_4">
    <path d="M 1393.592188 368.3955 
L 1393.592188 35.7555 
" style="fill: none; stroke: #000000; stroke-width: 0.8; stroke-linejoin: miter; stroke-linecap: square"/>
   </g>
   <g id="patch_5">
    <path d="M 54.392188 368.3955 
L 1393.592188 368.3955 
" style="fill: none; stroke: #000000; stroke-width: 0.8; stroke-linejoin: miter; stroke-linecap: square"/>
   </g>
   <g id="patch_6">
    <path d="M 54.392188 35.7555 
L 1393.592188 35.7555 
" style="fill: none; stroke: #000000; stroke-width: 0.8; stroke-linejoin: miter; stroke-linecap: square"/>
   </g>
   <g id="text_20">
    <!-- Daily Confirmed Cases Forecasting - Missouri -->
    <g transform="translate(588.789688 16.318125)scale(0.12 -0.12)">
     <defs>
      <path id="DejaVuSans-44" d="M 1259 4147 
L 1259 519 
L 2022 519 
Q 2988 519 3436 956 
Q 3884 1394 3884 2338 
Q 3884 3275 3436 3711 
Q 2988 4147 2022 4147 
L 1259 4147 
z
M 628 4666 
L 1925 4666 
Q 3281 4666 3915 4102 
Q 4550 3538 4550 2338 
Q 4550 1131 3912 565 
Q 3275 0 1925 0 
L 628 0 
L 628 4666 
z
" transform="scale(0.015625)"/>
      <path id="DejaVuSans-61" d="M 2194 1759 
Q 1497 1759 1228 1600 
Q 959 1441 959 1056 
Q 959 750 1161 570 
Q 1363 391 1709 391 
Q 2188 391 2477 730 
Q 2766 1069 2766 1631 
L 2766 1759 
L 2194 1759 
z
M 3341 1997 
L 3341 0 
L 2766 0 
L 2766 531 
Q 2569 213 2275 61 
Q 1981 -91 1556 -91 
Q 1019 -91 701 211 
Q 384 513 384 1019 
Q 384 1609 779 1909 
Q 1175 2209 1959 2209 
L 2766 2209 
L 2766 2266 
Q 2766 2663 2505 2880 
Q 2244 3097 1772 3097 
Q 1472 3097 1187 3025 
Q 903 2953 641 2809 
L 641 3341 
Q 956 3463 1253 3523 
Q 1550 3584 1831 3584 
Q 2591 3584 2966 3190 
Q 3341 2797 3341 1997 
z
" transform="scale(0.015625)"/>
      <path id="DejaVuSans-69" d="M 603 3500 
L 1178 3500 
L 1178 0 
L 603 0 
L 603 3500 
z
M 603 4863 
L 1178 4863 
L 1178 4134 
L 603 4134 
L 603 4863 
z
" transform="scale(0.015625)"/>
      <path id="DejaVuSans-6c" d="M 603 4863 
L 1178 4863 
L 1178 0 
L 603 0 
L 603 4863 
z
" transform="scale(0.015625)"/>
      <path id="DejaVuSans-79" d="M 2059 -325 
Q 1816 -950 1584 -1140 
Q 1353 -1331 966 -1331 
L 506 -1331 
L 506 -850 
L 844 -850 
Q 1081 -850 1212 -737 
Q 1344 -625 1503 -206 
L 1606 56 
L 191 3500 
L 800 3500 
L 1894 763 
L 2988 3500 
L 3597 3500 
L 2059 -325 
z
" transform="scale(0.015625)"/>
      <path id="DejaVuSans-20" transform="scale(0.015625)"/>
      <path id="DejaVuSans-43" d="M 4122 4306 
L 4122 3641 
Q 3803 3938 3442 4084 
Q 3081 4231 2675 4231 
Q 1875 4231 1450 3742 
Q 1025 3253 1025 2328 
Q 1025 1406 1450 917 
Q 1875 428 2675 428 
Q 3081 428 3442 575 
Q 3803 722 4122 1019 
L 4122 359 
Q 3791 134 3420 21 
Q 3050 -91 2638 -91 
Q 1578 -91 968 557 
Q 359 1206 359 2328 
Q 359 3453 968 4101 
Q 1578 4750 2638 4750 
Q 3056 4750 3426 4639 
Q 3797 4528 4122 4306 
z
" transform="scale(0.015625)"/>
      <path id="DejaVuSans-6f" d="M 1959 3097 
Q 1497 3097 1228 2736 
Q 959 2375 959 1747 
Q 959 1119 1226 758 
Q 1494 397 1959 397 
Q 2419 397 2687 759 
Q 2956 1122 2956 1747 
Q 2956 2369 2687 2733 
Q 2419 3097 1959 3097 
z
M 1959 3584 
Q 2709 3584 3137 3096 
Q 3566 2609 3566 1747 
Q 3566 888 3137 398 
Q 2709 -91 1959 -91 
Q 1206 -91 779 398 
Q 353 888 353 1747 
Q 353 2609 779 3096 
Q 1206 3584 1959 3584 
z
" transform="scale(0.015625)"/>
      <path id="DejaVuSans-6e" d="M 3513 2113 
L 3513 0 
L 2938 0 
L 2938 2094 
Q 2938 2591 2744 2837 
Q 2550 3084 2163 3084 
Q 1697 3084 1428 2787 
Q 1159 2491 1159 1978 
L 1159 0 
L 581 0 
L 581 3500 
L 1159 3500 
L 1159 2956 
Q 1366 3272 1645 3428 
Q 1925 3584 2291 3584 
Q 2894 3584 3203 3211 
Q 3513 2838 3513 2113 
z
" transform="scale(0.015625)"/>
      <path id="DejaVuSans-66" d="M 2375 4863 
L 2375 4384 
L 1825 4384 
Q 1516 4384 1395 4259 
Q 1275 4134 1275 3809 
L 1275 3500 
L 2222 3500 
L 2222 3053 
L 1275 3053 
L 1275 0 
L 697 0 
L 697 3053 
L 147 3053 
L 147 3500 
L 697 3500 
L 697 3744 
Q 697 4328 969 4595 
Q 1241 4863 1831 4863 
L 2375 4863 
z
" transform="scale(0.015625)"/>
      <path id="DejaVuSans-72" d="M 2631 2963 
Q 2534 3019 2420 3045 
Q 2306 3072 2169 3072 
Q 1681 3072 1420 2755 
Q 1159 2438 1159 1844 
L 1159 0 
L 581 0 
L 581 3500 
L 1159 3500 
L 1159 2956 
Q 1341 3275 1631 3429 
Q 1922 3584 2338 3584 
Q 2397 3584 2469 3576 
Q 2541 3569 2628 3553 
L 2631 2963 
z
" transform="scale(0.015625)"/>
      <path id="DejaVuSans-6d" d="M 3328 2828 
Q 3544 3216 3844 3400 
Q 4144 3584 4550 3584 
Q 5097 3584 5394 3201 
Q 5691 2819 5691 2113 
L 5691 0 
L 5113 0 
L 5113 2094 
Q 5113 2597 4934 2840 
Q 4756 3084 4391 3084 
Q 3944 3084 3684 2787 
Q 3425 2491 3425 1978 
L 3425 0 
L 2847 0 
L 2847 2094 
Q 2847 2600 2669 2842 
Q 2491 3084 2119 3084 
Q 1678 3084 1418 2786 
Q 1159 2488 1159 1978 
L 1159 0 
L 581 0 
L 581 3500 
L 1159 3500 
L 1159 2956 
Q 1356 3278 1631 3431 
Q 1906 3584 2284 3584 
Q 2666 3584 2933 3390 
Q 3200 3197 3328 2828 
z
" transform="scale(0.015625)"/>
      <path id="DejaVuSans-65" d="M 3597 1894 
L 3597 1613 
L 953 1613 
Q 991 1019 1311 708 
Q 1631 397 2203 397 
Q 2534 397 2845 478 
Q 3156 559 3463 722 
L 3463 178 
Q 3153 47 2828 -22 
Q 2503 -91 2169 -91 
Q 1331 -91 842 396 
Q 353 884 353 1716 
Q 353 2575 817 3079 
Q 1281 3584 2069 3584 
Q 2775 3584 3186 3129 
Q 3597 2675 3597 1894 
z
M 3022 2063 
Q 3016 2534 2758 2815 
Q 2500 3097 2075 3097 
Q 1594 3097 1305 2825 
Q 1016 2553 972 2059 
L 3022 2063 
z
" transform="scale(0.015625)"/>
      <path id="DejaVuSans-64" d="M 2906 2969 
L 2906 4863 
L 3481 4863 
L 3481 0 
L 2906 0 
L 2906 525 
Q 2725 213 2448 61 
Q 2172 -91 1784 -91 
Q 1150 -91 751 415 
Q 353 922 353 1747 
Q 353 2572 751 3078 
Q 1150 3584 1784 3584 
Q 2172 3584 2448 3432 
Q 2725 3281 2906 2969 
z
M 947 1747 
Q 947 1113 1208 752 
Q 1469 391 1925 391 
Q 2381 391 2643 752 
Q 2906 1113 2906 1747 
Q 2906 2381 2643 2742 
Q 2381 3103 1925 3103 
Q 1469 3103 1208 2742 
Q 947 2381 947 1747 
z
" transform="scale(0.015625)"/>
      <path id="DejaVuSans-73" d="M 2834 3397 
L 2834 2853 
Q 2591 2978 2328 3040 
Q 2066 3103 1784 3103 
Q 1356 3103 1142 2972 
Q 928 2841 928 2578 
Q 928 2378 1081 2264 
Q 1234 2150 1697 2047 
L 1894 2003 
Q 2506 1872 2764 1633 
Q 3022 1394 3022 966 
Q 3022 478 2636 193 
Q 2250 -91 1575 -91 
Q 1294 -91 989 -36 
Q 684 19 347 128 
L 347 722 
Q 666 556 975 473 
Q 1284 391 1588 391 
Q 1994 391 2212 530 
Q 2431 669 2431 922 
Q 2431 1156 2273 1281 
Q 2116 1406 1581 1522 
L 1381 1569 
Q 847 1681 609 1914 
Q 372 2147 372 2553 
Q 372 3047 722 3315 
Q 1072 3584 1716 3584 
Q 2034 3584 2315 3537 
Q 2597 3491 2834 3397 
z
" transform="scale(0.015625)"/>
      <path id="DejaVuSans-46" d="M 628 4666 
L 3309 4666 
L 3309 4134 
L 1259 4134 
L 1259 2759 
L 3109 2759 
L 3109 2228 
L 1259 2228 
L 1259 0 
L 628 0 
L 628 4666 
z
" transform="scale(0.015625)"/>
      <path id="DejaVuSans-63" d="M 3122 3366 
L 3122 2828 
Q 2878 2963 2633 3030 
Q 2388 3097 2138 3097 
Q 1578 3097 1268 2742 
Q 959 2388 959 1747 
Q 959 1106 1268 751 
Q 1578 397 2138 397 
Q 2388 397 2633 464 
Q 2878 531 3122 666 
L 3122 134 
Q 2881 22 2623 -34 
Q 2366 -91 2075 -91 
Q 1284 -91 818 406 
Q 353 903 353 1747 
Q 353 2603 823 3093 
Q 1294 3584 2113 3584 
Q 2378 3584 2631 3529 
Q 2884 3475 3122 3366 
z
" transform="scale(0.015625)"/>
      <path id="DejaVuSans-74" d="M 1172 4494 
L 1172 3500 
L 2356 3500 
L 2356 3053 
L 1172 3053 
L 1172 1153 
Q 1172 725 1289 603 
Q 1406 481 1766 481 
L 2356 481 
L 2356 0 
L 1766 0 
Q 1100 0 847 248 
Q 594 497 594 1153 
L 594 3053 
L 172 3053 
L 172 3500 
L 594 3500 
L 594 4494 
L 1172 4494 
z
" transform="scale(0.015625)"/>
      <path id="DejaVuSans-67" d="M 2906 1791 
Q 2906 2416 2648 2759 
Q 2391 3103 1925 3103 
Q 1463 3103 1205 2759 
Q 947 2416 947 1791 
Q 947 1169 1205 825 
Q 1463 481 1925 481 
Q 2391 481 2648 825 
Q 2906 1169 2906 1791 
z
M 3481 434 
Q 3481 -459 3084 -895 
Q 2688 -1331 1869 -1331 
Q 1566 -1331 1297 -1286 
Q 1028 -1241 775 -1147 
L 775 -588 
Q 1028 -725 1275 -790 
Q 1522 -856 1778 -856 
Q 2344 -856 2625 -561 
Q 2906 -266 2906 331 
L 2906 616 
Q 2728 306 2450 153 
Q 2172 0 1784 0 
Q 1141 0 747 490 
Q 353 981 353 1791 
Q 353 2603 747 3093 
Q 1141 3584 1784 3584 
Q 2172 3584 2450 3431 
Q 2728 3278 2906 2969 
L 2906 3500 
L 3481 3500 
L 3481 434 
z
" transform="scale(0.015625)"/>
      <path id="DejaVuSans-4d" d="M 628 4666 
L 1569 4666 
L 2759 1491 
L 3956 4666 
L 4897 4666 
L 4897 0 
L 4281 0 
L 4281 4097 
L 3078 897 
L 2444 897 
L 1241 4097 
L 1241 0 
L 628 0 
L 628 4666 
z
" transform="scale(0.015625)"/>
      <path id="DejaVuSans-75" d="M 544 1381 
L 544 3500 
L 1119 3500 
L 1119 1403 
Q 1119 906 1312 657 
Q 1506 409 1894 409 
Q 2359 409 2629 706 
Q 2900 1003 2900 1516 
L 2900 3500 
L 3475 3500 
L 3475 0 
L 2900 0 
L 2900 538 
Q 2691 219 2414 64 
Q 2138 -91 1772 -91 
Q 1169 -91 856 284 
Q 544 659 544 1381 
z
M 1991 3584 
L 1991 3584 
z
" transform="scale(0.015625)"/>
     </defs>
     <use xlink:href="#DejaVuSans-44"/>
     <use xlink:href="#DejaVuSans-61" x="77.001953"/>
     <use xlink:href="#DejaVuSans-69" x="138.28125"/>
     <use xlink:href="#DejaVuSans-6c" x="166.064453"/>
     <use xlink:href="#DejaVuSans-79" x="193.847656"/>
     <use xlink:href="#DejaVuSans-20" x="253.027344"/>
     <use xlink:href="#DejaVuSans-43" x="284.814453"/>
     <use xlink:href="#DejaVuSans-6f" x="354.638672"/>
     <use xlink:href="#DejaVuSans-6e" x="415.820312"/>
     <use xlink:href="#DejaVuSans-66" x="479.199219"/>
     <use xlink:href="#DejaVuSans-69" x="514.404297"/>
     <use xlink:href="#DejaVuSans-72" x="542.1875"/>
     <use xlink:href="#DejaVuSans-6d" x="581.550781"/>
     <use xlink:href="#DejaVuSans-65" x="678.962891"/>
     <use xlink:href="#DejaVuSans-64" x="740.486328"/>
     <use xlink:href="#DejaVuSans-20" x="803.962891"/>
     <use xlink:href="#DejaVuSans-43" x="835.75"/>
     <use xlink:href="#DejaVuSans-61" x="905.574219"/>
     <use xlink:href="#DejaVuSans-73" x="966.853516"/>
     <use xlink:href="#DejaVuSans-65" x="1018.953125"/>
     <use xlink:href="#DejaVuSans-73" x="1080.476562"/>
     <use xlink:href="#DejaVuSans-20" x="1132.576172"/>
     <use xlink:href="#DejaVuSans-46" x="1164.363281"/>
     <use xlink:href="#DejaVuSans-6f" x="1218.257812"/>
     <use xlink:href="#DejaVuSans-72" x="1279.439453"/>
     <use xlink:href="#DejaVuSans-65" x="1318.302734"/>
     <use xlink:href="#DejaVuSans-63" x="1379.826172"/>
     <use xlink:href="#DejaVuSans-61" x="1434.806641"/>
     <use xlink:href="#DejaVuSans-73" x="1496.085938"/>
     <use xlink:href="#DejaVuSans-74" x="1548.185547"/>
     <use xlink:href="#DejaVuSans-69" x="1587.394531"/>
     <use xlink:href="#DejaVuSans-6e" x="1615.177734"/>
     <use xlink:href="#DejaVuSans-67" x="1678.556641"/>
     <use xlink:href="#DejaVuSans-20" x="1742.033203"/>
     <use xlink:href="#DejaVuSans-2d" x="1773.820312"/>
     <use xlink:href="#DejaVuSans-20" x="1809.904297"/>
     <use xlink:href="#DejaVuSans-4d" x="1841.691406"/>
     <use xlink:href="#DejaVuSans-69" x="1927.970703"/>
     <use xlink:href="#DejaVuSans-73" x="1955.753906"/>
     <use xlink:href="#DejaVuSans-73" x="2007.853516"/>
     <use xlink:href="#DejaVuSans-6f" x="2059.953125"/>
     <use xlink:href="#DejaVuSans-75" x="2121.134766"/>
     <use xlink:href="#DejaVuSans-72" x="2184.513672"/>
     <use xlink:href="#DejaVuSans-69" x="2225.626953"/>
    </g>
    <!-- ARIMA (2, 1, 1)x(1, 0, 1, 7) (R2 = 0.410977) -->
    <g transform="translate(592.008125 29.7555)scale(0.12 -0.12)">
     <defs>
      <path id="DejaVuSans-41" d="M 2188 4044 
L 1331 1722 
L 3047 1722 
L 2188 4044 
z
M 1831 4666 
L 2547 4666 
L 4325 0 
L 3669 0 
L 3244 1197 
L 1141 1197 
L 716 0 
L 50 0 
L 1831 4666 
z
" transform="scale(0.015625)"/>
      <path id="DejaVuSans-52" d="M 2841 2188 
Q 3044 2119 3236 1894 
Q 3428 1669 3622 1275 
L 4263 0 
L 3584 0 
L 2988 1197 
Q 2756 1666 2539 1819 
Q 2322 1972 1947 1972 
L 1259 1972 
L 1259 0 
L 628 0 
L 628 4666 
L 2053 4666 
Q 2853 4666 3247 4331 
Q 3641 3997 3641 3322 
Q 3641 2881 3436 2590 
Q 3231 2300 2841 2188 
z
M 1259 4147 
L 1259 2491 
L 2053 2491 
Q 2509 2491 2742 2702 
Q 2975 2913 2975 3322 
Q 2975 3731 2742 3939 
Q 2509 4147 2053 4147 
L 1259 4147 
z
" transform="scale(0.015625)"/>
      <path id="DejaVuSans-49" d="M 628 4666 
L 1259 4666 
L 1259 0 
L 628 0 
L 628 4666 
z
" transform="scale(0.015625)"/>
      <path id="DejaVuSans-28" d="M 1984 4856 
Q 1566 4138 1362 3434 
Q 1159 2731 1159 2009 
Q 1159 1288 1364 580 
Q 1569 -128 1984 -844 
L 1484 -844 
Q 1016 -109 783 600 
Q 550 1309 550 2009 
Q 550 2706 781 3412 
Q 1013 4119 1484 4856 
L 1984 4856 
z
" transform="scale(0.015625)"/>
      <path id="DejaVuSans-2c" d="M 750 794 
L 1409 794 
L 1409 256 
L 897 -744 
L 494 -744 
L 750 256 
L 750 794 
z
" transform="scale(0.015625)"/>
      <path id="DejaVuSans-29" d="M 513 4856 
L 1013 4856 
Q 1481 4119 1714 3412 
Q 1947 2706 1947 2009 
Q 1947 1309 1714 600 
Q 1481 -109 1013 -844 
L 513 -844 
Q 928 -128 1133 580 
Q 1338 1288 1338 2009 
Q 1338 2731 1133 3434 
Q 928 4138 513 4856 
z
" transform="scale(0.015625)"/>
      <path id="DejaVuSans-78" d="M 3513 3500 
L 2247 1797 
L 3578 0 
L 2900 0 
L 1881 1375 
L 863 0 
L 184 0 
L 1544 1831 
L 300 3500 
L 978 3500 
L 1906 2253 
L 2834 3500 
L 3513 3500 
z
" transform="scale(0.015625)"/>
      <path id="DejaVuSans-3d" d="M 678 2906 
L 4684 2906 
L 4684 2381 
L 678 2381 
L 678 2906 
z
M 678 1631 
L 4684 1631 
L 4684 1100 
L 678 1100 
L 678 1631 
z
" transform="scale(0.015625)"/>
      <path id="DejaVuSans-2e" d="M 684 794 
L 1344 794 
L 1344 0 
L 684 0 
L 684 794 
z
" transform="scale(0.015625)"/>
      <path id="DejaVuSans-39" d="M 703 97 
L 703 672 
Q 941 559 1184 500 
Q 1428 441 1663 441 
Q 2288 441 2617 861 
Q 2947 1281 2994 2138 
Q 2813 1869 2534 1725 
Q 2256 1581 1919 1581 
Q 1219 1581 811 2004 
Q 403 2428 403 3163 
Q 403 3881 828 4315 
Q 1253 4750 1959 4750 
Q 2769 4750 3195 4129 
Q 3622 3509 3622 2328 
Q 3622 1225 3098 567 
Q 2575 -91 1691 -91 
Q 1453 -91 1209 -44 
Q 966 3 703 97 
z
M 1959 2075 
Q 2384 2075 2632 2365 
Q 2881 2656 2881 3163 
Q 2881 3666 2632 3958 
Q 2384 4250 1959 4250 
Q 1534 4250 1286 3958 
Q 1038 3666 1038 3163 
Q 1038 2656 1286 2365 
Q 1534 2075 1959 2075 
z
" transform="scale(0.015625)"/>
     </defs>
     <use xlink:href="#DejaVuSans-41"/>
     <use xlink:href="#DejaVuSans-52" x="68.408203"/>
     <use xlink:href="#DejaVuSans-49" x="137.890625"/>
     <use xlink:href="#DejaVuSans-4d" x="167.382812"/>
     <use xlink:href="#DejaVuSans-41" x="253.662109"/>
     <use xlink:href="#DejaVuSans-20" x="322.070312"/>
     <use xlink:href="#DejaVuSans-28" x="353.857422"/>
     <use xlink:href="#DejaVuSans-32" x="392.871094"/>
     <use xlink:href="#DejaVuSans-2c" x="456.494141"/>
     <use xlink:href="#DejaVuSans-20" x="488.28125"/>
     <use xlink:href="#DejaVuSans-31" x="520.068359"/>
     <use xlink:href="#DejaVuSans-2c" x="583.691406"/>
     <use xlink:href="#DejaVuSans-20" x="615.478516"/>
     <use xlink:href="#DejaVuSans-31" x="647.265625"/>
     <use xlink:href="#DejaVuSans-29" x="710.888672"/>
     <use xlink:href="#DejaVuSans-78" x="749.902344"/>
     <use xlink:href="#DejaVuSans-28" x="809.082031"/>
     <use xlink:href="#DejaVuSans-31" x="848.095703"/>
     <use xlink:href="#DejaVuSans-2c" x="911.71875"/>
     <use xlink:href="#DejaVuSans-20" x="943.505859"/>
     <use xlink:href="#DejaVuSans-30" x="975.292969"/>
     <use xlink:href="#DejaVuSans-2c" x="1038.916016"/>
     <use xlink:href="#DejaVuSans-20" x="1070.703125"/>
     <use xlink:href="#DejaVuSans-31" x="1102.490234"/>
     <use xlink:href="#DejaVuSans-2c" x="1166.113281"/>
     <use xlink:href="#DejaVuSans-20" x="1197.900391"/>
     <use xlink:href="#DejaVuSans-37" x="1229.6875"/>
     <use xlink:href="#DejaVuSans-29" x="1293.310547"/>
     <use xlink:href="#DejaVuSans-20" x="1332.324219"/>
     <use xlink:href="#DejaVuSans-28" x="1364.111328"/>
     <use xlink:href="#DejaVuSans-52" x="1403.125"/>
     <use xlink:href="#DejaVuSans-32" x="1472.607422"/>
     <use xlink:href="#DejaVuSans-20" x="1536.230469"/>
     <use xlink:href="#DejaVuSans-3d" x="1568.017578"/>
     <use xlink:href="#DejaVuSans-20" x="1651.806641"/>
     <use xlink:href="#DejaVuSans-30" x="1683.59375"/>
     <use xlink:href="#DejaVuSans-2e" x="1747.216797"/>
     <use xlink:href="#DejaVuSans-34" x="1779.003906"/>
     <use xlink:href="#DejaVuSans-31" x="1842.626953"/>
     <use xlink:href="#DejaVuSans-30" x="1906.25"/>
     <use xlink:href="#DejaVuSans-39" x="1969.873047"/>
     <use xlink:href="#DejaVuSans-37" x="2033.496094"/>
     <use xlink:href="#DejaVuSans-37" x="2097.119141"/>
     <use xlink:href="#DejaVuSans-29" x="2160.742188"/>
    </g>
   </g>
   <g id="legend_1">
    <g id="patch_7">
     <path d="M 1289.5125 87.789875 
L 1386.592188 87.789875 
Q 1388.592188 87.789875 1388.592188 85.789875 
L 1388.592188 42.7555 
Q 1388.592188 40.7555 1386.592188 40.7555 
L 1289.5125 40.7555 
Q 1287.5125 40.7555 1287.5125 42.7555 
L 1287.5125 85.789875 
Q 1287.5125 87.789875 1289.5125 87.789875 
z
" style="fill: #ffffff; opacity: 0.8; stroke: #cccccc; stroke-linejoin: miter"/>
    </g>
    <g id="line2d_23">
     <path d="M 1291.5125 48.853937 
L 1301.5125 48.853937 
L 1311.5125 48.853937 
" style="fill: none; stroke: #0000ff; stroke-width: 1.5; stroke-linecap: square"/>
    </g>
    <g id="text_21">
     <!-- Actual Value -->
     <g transform="translate(1319.5125 52.353937)scale(0.1 -0.1)">
      <defs>
       <path id="DejaVuSans-56" d="M 1831 0 
L 50 4666 
L 709 4666 
L 2188 738 
L 3669 4666 
L 4325 4666 
L 2547 0 
L 1831 0 
z
" transform="scale(0.015625)"/>
      </defs>
      <use xlink:href="#DejaVuSans-41"/>
      <use xlink:href="#DejaVuSans-63" x="66.658203"/>
      <use xlink:href="#DejaVuSans-74" x="121.638672"/>
      <use xlink:href="#DejaVuSans-75" x="160.847656"/>
      <use xlink:href="#DejaVuSans-61" x="224.226562"/>
      <use xlink:href="#DejaVuSans-6c" x="285.505859"/>
      <use xlink:href="#DejaVuSans-20" x="313.289062"/>
      <use xlink:href="#DejaVuSans-56" x="345.076172"/>
      <use xlink:href="#DejaVuSans-61" x="405.734375"/>
      <use xlink:href="#DejaVuSans-6c" x="467.013672"/>
      <use xlink:href="#DejaVuSans-75" x="494.796875"/>
      <use xlink:href="#DejaVuSans-65" x="558.175781"/>
     </g>
    </g>
    <g id="line2d_24">
     <path d="M 1291.5125 63.532062 
L 1301.5125 63.532062 
L 1311.5125 63.532062 
" style="fill: none; stroke: #ffa500; stroke-width: 1.5; stroke-linecap: square"/>
    </g>
    <g id="text_22">
     <!-- Check Value -->
     <g transform="translate(1319.5125 67.032062)scale(0.1 -0.1)">
      <defs>
       <path id="DejaVuSans-68" d="M 3513 2113 
L 3513 0 
L 2938 0 
L 2938 2094 
Q 2938 2591 2744 2837 
Q 2550 3084 2163 3084 
Q 1697 3084 1428 2787 
Q 1159 2491 1159 1978 
L 1159 0 
L 581 0 
L 581 4863 
L 1159 4863 
L 1159 2956 
Q 1366 3272 1645 3428 
Q 1925 3584 2291 3584 
Q 2894 3584 3203 3211 
Q 3513 2838 3513 2113 
z
" transform="scale(0.015625)"/>
       <path id="DejaVuSans-6b" d="M 581 4863 
L 1159 4863 
L 1159 1991 
L 2875 3500 
L 3609 3500 
L 1753 1863 
L 3688 0 
L 2938 0 
L 1159 1709 
L 1159 0 
L 581 0 
L 581 4863 
z
" transform="scale(0.015625)"/>
      </defs>
      <use xlink:href="#DejaVuSans-43"/>
      <use xlink:href="#DejaVuSans-68" x="69.824219"/>
      <use xlink:href="#DejaVuSans-65" x="133.203125"/>
      <use xlink:href="#DejaVuSans-63" x="194.726562"/>
      <use xlink:href="#DejaVuSans-6b" x="249.707031"/>
      <use xlink:href="#DejaVuSans-20" x="307.617188"/>
      <use xlink:href="#DejaVuSans-56" x="339.404297"/>
      <use xlink:href="#DejaVuSans-61" x="400.0625"/>
      <use xlink:href="#DejaVuSans-6c" x="461.341797"/>
      <use xlink:href="#DejaVuSans-75" x="489.125"/>
      <use xlink:href="#DejaVuSans-65" x="552.503906"/>
     </g>
    </g>
    <g id="line2d_25">
     <path d="M 1291.5125 78.210187 
L 1301.5125 78.210187 
L 1311.5125 78.210187 
" style="fill: none; stroke: #ff0000; stroke-width: 1.5; stroke-linecap: square"/>
    </g>
    <g id="text_23">
     <!-- Predict Value -->
     <g transform="translate(1319.5125 81.710187)scale(0.1 -0.1)">
      <defs>
       <path id="DejaVuSans-50" d="M 1259 4147 
L 1259 2394 
L 2053 2394 
Q 2494 2394 2734 2622 
Q 2975 2850 2975 3272 
Q 2975 3691 2734 3919 
Q 2494 4147 2053 4147 
L 1259 4147 
z
M 628 4666 
L 2053 4666 
Q 2838 4666 3239 4311 
Q 3641 3956 3641 3272 
Q 3641 2581 3239 2228 
Q 2838 1875 2053 1875 
L 1259 1875 
L 1259 0 
L 628 0 
L 628 4666 
z
" transform="scale(0.015625)"/>
      </defs>
      <use xlink:href="#DejaVuSans-50"/>
      <use xlink:href="#DejaVuSans-72" x="58.552734"/>
      <use xlink:href="#DejaVuSans-65" x="97.416016"/>
      <use xlink:href="#DejaVuSans-64" x="158.939453"/>
      <use xlink:href="#DejaVuSans-69" x="222.416016"/>
      <use xlink:href="#DejaVuSans-63" x="250.199219"/>
      <use xlink:href="#DejaVuSans-74" x="305.179688"/>
      <use xlink:href="#DejaVuSans-20" x="344.388672"/>
      <use xlink:href="#DejaVuSans-56" x="376.175781"/>
      <use xlink:href="#DejaVuSans-61" x="436.833984"/>
      <use xlink:href="#DejaVuSans-6c" x="498.113281"/>
      <use xlink:href="#DejaVuSans-75" x="525.896484"/>
      <use xlink:href="#DejaVuSans-65" x="589.275391"/>
     </g>
    </g>
   </g>
  </g>
 </g>
 <defs>
  <clipPath id="pe57615a3b6">
   <rect x="54.392188" y="35.7555" width="1339.2" height="332.64"/>
  </clipPath>
 </defs>
</svg>
