<?xml version="1.0" encoding="utf-8" standalone="no"?>
<!DOCTYPE svg PUBLIC "-//W3C//DTD SVG 1.1//EN"
  "http://www.w3.org/Graphics/SVG/1.1/DTD/svg11.dtd">
<svg xmlns:xlink="http://www.w3.org/1999/xlink" width="1398.775pt" height="392.273625pt" viewBox="0 0 1398.775 392.273625" xmlns="http://www.w3.org/2000/svg" version="1.1">
 <metadata>
  <rdf:RDF xmlns:dc="http://purl.org/dc/elements/1.1/" xmlns:cc="http://creativecommons.org/ns#" xmlns:rdf="http://www.w3.org/1999/02/22-rdf-syntax-ns#">
   <cc:Work>
    <dc:type rdf:resource="http://purl.org/dc/dcmitype/StillImage"/>
    <dc:date>2022-07-05T17:27:06.604620</dc:date>
    <dc:format>image/svg+xml</dc:format>
    <dc:creator>
     <cc:Agent>
      <dc:title>Matplotlib v3.5.2, https://matplotlib.org/</dc:title>
     </cc:Agent>
    </dc:creator>
   </cc:Work>
  </rdf:RDF>
 </metadata>
 <defs>
  <style type="text/css">*{stroke-linejoin: round; stroke-linecap: butt}</style>
 </defs>
 <g id="figure_1">
  <g id="patch_1">
   <path d="M 0 392.273625 
L 1398.775 392.273625 
L 1398.775 0 
L 0 0 
z
" style="fill: #ffffff"/>
  </g>
  <g id="axes_1">
   <g id="patch_2">
    <path d="M 52.375 368.3955 
L 1391.575 368.3955 
L 1391.575 35.7555 
L 52.375 35.7555 
z
" style="fill: #ffffff"/>
   </g>
   <g id="matplotlib.axis_1">
    <g id="xtick_1">
     <g id="line2d_1">
      <defs>
       <path id="ma89abcde6e" d="M 0 0 
L 0 3.5 
" style="stroke: #000000; stroke-width: 0.8"/>
      </defs>
      <g>
       <use xlink:href="#ma89abcde6e" x="83.684813" y="368.3955" style="stroke: #000000; stroke-width: 0.8"/>
      </g>
     </g>
     <g id="text_1">
      <!-- 2020-01 -->
      <g transform="translate(62.793407 382.993937)scale(0.1 -0.1)">
       <defs>
        <path id="DejaVuSans-32" d="M 1228 531 
L 3431 531 
L 3431 0 
L 469 0 
L 469 531 
Q 828 903 1448 1529 
Q 2069 2156 2228 2338 
Q 2531 2678 2651 2914 
Q 2772 3150 2772 3378 
Q 2772 3750 2511 3984 
Q 2250 4219 1831 4219 
Q 1534 4219 1204 4116 
Q 875 4013 500 3803 
L 500 4441 
Q 881 4594 1212 4672 
Q 1544 4750 1819 4750 
Q 2544 4750 2975 4387 
Q 3406 4025 3406 3419 
Q 3406 3131 3298 2873 
Q 3191 2616 2906 2266 
Q 2828 2175 2409 1742 
Q 1991 1309 1228 531 
z
" transform="scale(0.015625)"/>
        <path id="DejaVuSans-30" d="M 2034 4250 
Q 1547 4250 1301 3770 
Q 1056 3291 1056 2328 
Q 1056 1369 1301 889 
Q 1547 409 2034 409 
Q 2525 409 2770 889 
Q 3016 1369 3016 2328 
Q 3016 3291 2770 3770 
Q 2525 4250 2034 4250 
z
M 2034 4750 
Q 2819 4750 3233 4129 
Q 3647 3509 3647 2328 
Q 3647 1150 3233 529 
Q 2819 -91 2034 -91 
Q 1250 -91 836 529 
Q 422 1150 422 2328 
Q 422 3509 836 4129 
Q 1250 4750 2034 4750 
z
" transform="scale(0.015625)"/>
        <path id="DejaVuSans-2d" d="M 313 2009 
L 1997 2009 
L 1997 1497 
L 313 1497 
L 313 2009 
z
" transform="scale(0.015625)"/>
        <path id="DejaVuSans-31" d="M 794 531 
L 1825 531 
L 1825 4091 
L 703 3866 
L 703 4441 
L 1819 4666 
L 2450 4666 
L 2450 531 
L 3481 531 
L 3481 0 
L 794 0 
L 794 531 
z
" transform="scale(0.015625)"/>
       </defs>
       <use xlink:href="#DejaVuSans-32"/>
       <use xlink:href="#DejaVuSans-30" x="63.623047"/>
       <use xlink:href="#DejaVuSans-32" x="127.246094"/>
       <use xlink:href="#DejaVuSans-30" x="190.869141"/>
       <use xlink:href="#DejaVuSans-2d" x="254.492188"/>
       <use xlink:href="#DejaVuSans-30" x="290.576172"/>
       <use xlink:href="#DejaVuSans-31" x="354.199219"/>
      </g>
     </g>
    </g>
    <g id="xtick_2">
     <g id="line2d_2">
      <g>
       <use xlink:href="#ma89abcde6e" x="205.967775" y="368.3955" style="stroke: #000000; stroke-width: 0.8"/>
      </g>
     </g>
     <g id="text_2">
      <!-- 2020-04 -->
      <g transform="translate(185.076369 382.993937)scale(0.1 -0.1)">
       <defs>
        <path id="DejaVuSans-34" d="M 2419 4116 
L 825 1625 
L 2419 1625 
L 2419 4116 
z
M 2253 4666 
L 3047 4666 
L 3047 1625 
L 3713 1625 
L 3713 1100 
L 3047 1100 
L 3047 0 
L 2419 0 
L 2419 1100 
L 313 1100 
L 313 1709 
L 2253 4666 
z
" transform="scale(0.015625)"/>
       </defs>
       <use xlink:href="#DejaVuSans-32"/>
       <use xlink:href="#DejaVuSans-30" x="63.623047"/>
       <use xlink:href="#DejaVuSans-32" x="127.246094"/>
       <use xlink:href="#DejaVuSans-30" x="190.869141"/>
       <use xlink:href="#DejaVuSans-2d" x="254.492188"/>
       <use xlink:href="#DejaVuSans-30" x="290.576172"/>
       <use xlink:href="#DejaVuSans-34" x="354.199219"/>
      </g>
     </g>
    </g>
    <g id="xtick_3">
     <g id="line2d_3">
      <g>
       <use xlink:href="#ma89abcde6e" x="328.250738" y="368.3955" style="stroke: #000000; stroke-width: 0.8"/>
      </g>
     </g>
     <g id="text_3">
      <!-- 2020-07 -->
      <g transform="translate(307.359331 382.993937)scale(0.1 -0.1)">
       <defs>
        <path id="DejaVuSans-37" d="M 525 4666 
L 3525 4666 
L 3525 4397 
L 1831 0 
L 1172 0 
L 2766 4134 
L 525 4134 
L 525 4666 
z
" transform="scale(0.015625)"/>
       </defs>
       <use xlink:href="#DejaVuSans-32"/>
       <use xlink:href="#DejaVuSans-30" x="63.623047"/>
       <use xlink:href="#DejaVuSans-32" x="127.246094"/>
       <use xlink:href="#DejaVuSans-30" x="190.869141"/>
       <use xlink:href="#DejaVuSans-2d" x="254.492188"/>
       <use xlink:href="#DejaVuSans-30" x="290.576172"/>
       <use xlink:href="#DejaVuSans-37" x="354.199219"/>
      </g>
     </g>
    </g>
    <g id="xtick_4">
     <g id="line2d_4">
      <g>
       <use xlink:href="#ma89abcde6e" x="451.877468" y="368.3955" style="stroke: #000000; stroke-width: 0.8"/>
      </g>
     </g>
     <g id="text_4">
      <!-- 2020-10 -->
      <g transform="translate(430.986062 382.993937)scale(0.1 -0.1)">
       <use xlink:href="#DejaVuSans-32"/>
       <use xlink:href="#DejaVuSans-30" x="63.623047"/>
       <use xlink:href="#DejaVuSans-32" x="127.246094"/>
       <use xlink:href="#DejaVuSans-30" x="190.869141"/>
       <use xlink:href="#DejaVuSans-2d" x="254.492188"/>
       <use xlink:href="#DejaVuSans-31" x="290.576172"/>
       <use xlink:href="#DejaVuSans-30" x="354.199219"/>
      </g>
     </g>
    </g>
    <g id="xtick_5">
     <g id="line2d_5">
      <g>
       <use xlink:href="#ma89abcde6e" x="575.504199" y="368.3955" style="stroke: #000000; stroke-width: 0.8"/>
      </g>
     </g>
     <g id="text_5">
      <!-- 2021-01 -->
      <g transform="translate(554.612793 382.993937)scale(0.1 -0.1)">
       <use xlink:href="#DejaVuSans-32"/>
       <use xlink:href="#DejaVuSans-30" x="63.623047"/>
       <use xlink:href="#DejaVuSans-32" x="127.246094"/>
       <use xlink:href="#DejaVuSans-31" x="190.869141"/>
       <use xlink:href="#DejaVuSans-2d" x="254.492188"/>
       <use xlink:href="#DejaVuSans-30" x="290.576172"/>
       <use xlink:href="#DejaVuSans-31" x="354.199219"/>
      </g>
     </g>
    </g>
    <g id="xtick_6">
     <g id="line2d_6">
      <g>
       <use xlink:href="#ma89abcde6e" x="696.443393" y="368.3955" style="stroke: #000000; stroke-width: 0.8"/>
      </g>
     </g>
     <g id="text_6">
      <!-- 2021-04 -->
      <g transform="translate(675.551986 382.993937)scale(0.1 -0.1)">
       <use xlink:href="#DejaVuSans-32"/>
       <use xlink:href="#DejaVuSans-30" x="63.623047"/>
       <use xlink:href="#DejaVuSans-32" x="127.246094"/>
       <use xlink:href="#DejaVuSans-31" x="190.869141"/>
       <use xlink:href="#DejaVuSans-2d" x="254.492188"/>
       <use xlink:href="#DejaVuSans-30" x="290.576172"/>
       <use xlink:href="#DejaVuSans-34" x="354.199219"/>
      </g>
     </g>
    </g>
    <g id="xtick_7">
     <g id="line2d_7">
      <g>
       <use xlink:href="#ma89abcde6e" x="818.726355" y="368.3955" style="stroke: #000000; stroke-width: 0.8"/>
      </g>
     </g>
     <g id="text_7">
      <!-- 2021-07 -->
      <g transform="translate(797.834948 382.993937)scale(0.1 -0.1)">
       <use xlink:href="#DejaVuSans-32"/>
       <use xlink:href="#DejaVuSans-30" x="63.623047"/>
       <use xlink:href="#DejaVuSans-32" x="127.246094"/>
       <use xlink:href="#DejaVuSans-31" x="190.869141"/>
       <use xlink:href="#DejaVuSans-2d" x="254.492188"/>
       <use xlink:href="#DejaVuSans-30" x="290.576172"/>
       <use xlink:href="#DejaVuSans-37" x="354.199219"/>
      </g>
     </g>
    </g>
    <g id="xtick_8">
     <g id="line2d_8">
      <g>
       <use xlink:href="#ma89abcde6e" x="942.353085" y="368.3955" style="stroke: #000000; stroke-width: 0.8"/>
      </g>
     </g>
     <g id="text_8">
      <!-- 2021-10 -->
      <g transform="translate(921.461679 382.993937)scale(0.1 -0.1)">
       <use xlink:href="#DejaVuSans-32"/>
       <use xlink:href="#DejaVuSans-30" x="63.623047"/>
       <use xlink:href="#DejaVuSans-32" x="127.246094"/>
       <use xlink:href="#DejaVuSans-31" x="190.869141"/>
       <use xlink:href="#DejaVuSans-2d" x="254.492188"/>
       <use xlink:href="#DejaVuSans-31" x="290.576172"/>
       <use xlink:href="#DejaVuSans-30" x="354.199219"/>
      </g>
     </g>
    </g>
    <g id="xtick_9">
     <g id="line2d_9">
      <g>
       <use xlink:href="#ma89abcde6e" x="1065.979816" y="368.3955" style="stroke: #000000; stroke-width: 0.8"/>
      </g>
     </g>
     <g id="text_9">
      <!-- 2022-01 -->
      <g transform="translate(1045.08841 382.993937)scale(0.1 -0.1)">
       <use xlink:href="#DejaVuSans-32"/>
       <use xlink:href="#DejaVuSans-30" x="63.623047"/>
       <use xlink:href="#DejaVuSans-32" x="127.246094"/>
       <use xlink:href="#DejaVuSans-32" x="190.869141"/>
       <use xlink:href="#DejaVuSans-2d" x="254.492188"/>
       <use xlink:href="#DejaVuSans-30" x="290.576172"/>
       <use xlink:href="#DejaVuSans-31" x="354.199219"/>
      </g>
     </g>
    </g>
    <g id="xtick_10">
     <g id="line2d_10">
      <g>
       <use xlink:href="#ma89abcde6e" x="1186.91901" y="368.3955" style="stroke: #000000; stroke-width: 0.8"/>
      </g>
     </g>
     <g id="text_10">
      <!-- 2022-04 -->
      <g transform="translate(1166.027603 382.993937)scale(0.1 -0.1)">
       <use xlink:href="#DejaVuSans-32"/>
       <use xlink:href="#DejaVuSans-30" x="63.623047"/>
       <use xlink:href="#DejaVuSans-32" x="127.246094"/>
       <use xlink:href="#DejaVuSans-32" x="190.869141"/>
       <use xlink:href="#DejaVuSans-2d" x="254.492188"/>
       <use xlink:href="#DejaVuSans-30" x="290.576172"/>
       <use xlink:href="#DejaVuSans-34" x="354.199219"/>
      </g>
     </g>
    </g>
    <g id="xtick_11">
     <g id="line2d_11">
      <g>
       <use xlink:href="#ma89abcde6e" x="1309.201972" y="368.3955" style="stroke: #000000; stroke-width: 0.8"/>
      </g>
     </g>
     <g id="text_11">
      <!-- 2022-07 -->
      <g transform="translate(1288.310565 382.993937)scale(0.1 -0.1)">
       <use xlink:href="#DejaVuSans-32"/>
       <use xlink:href="#DejaVuSans-30" x="63.623047"/>
       <use xlink:href="#DejaVuSans-32" x="127.246094"/>
       <use xlink:href="#DejaVuSans-32" x="190.869141"/>
       <use xlink:href="#DejaVuSans-2d" x="254.492188"/>
       <use xlink:href="#DejaVuSans-30" x="290.576172"/>
       <use xlink:href="#DejaVuSans-37" x="354.199219"/>
      </g>
     </g>
    </g>
   </g>
   <g id="matplotlib.axis_2">
    <g id="ytick_1">
     <g id="line2d_12">
      <defs>
       <path id="m4fc53c9a3a" d="M 0 0 
L -3.5 0 
" style="stroke: #000000; stroke-width: 0.8"/>
      </defs>
      <g>
       <use xlink:href="#m4fc53c9a3a" x="52.375" y="350.389026" style="stroke: #000000; stroke-width: 0.8"/>
      </g>
     </g>
     <g id="text_12">
      <!-- 0 -->
      <g transform="translate(39.0125 354.188245)scale(0.1 -0.1)">
       <use xlink:href="#DejaVuSans-30"/>
      </g>
     </g>
    </g>
    <g id="ytick_2">
     <g id="line2d_13">
      <g>
       <use xlink:href="#m4fc53c9a3a" x="52.375" y="310.520602" style="stroke: #000000; stroke-width: 0.8"/>
      </g>
     </g>
     <g id="text_13">
      <!-- 20000 -->
      <g transform="translate(13.5625 314.319821)scale(0.1 -0.1)">
       <use xlink:href="#DejaVuSans-32"/>
       <use xlink:href="#DejaVuSans-30" x="63.623047"/>
       <use xlink:href="#DejaVuSans-30" x="127.246094"/>
       <use xlink:href="#DejaVuSans-30" x="190.869141"/>
       <use xlink:href="#DejaVuSans-30" x="254.492188"/>
      </g>
     </g>
    </g>
    <g id="ytick_3">
     <g id="line2d_14">
      <g>
       <use xlink:href="#m4fc53c9a3a" x="52.375" y="270.652179" style="stroke: #000000; stroke-width: 0.8"/>
      </g>
     </g>
     <g id="text_14">
      <!-- 40000 -->
      <g transform="translate(13.5625 274.451398)scale(0.1 -0.1)">
       <use xlink:href="#DejaVuSans-34"/>
       <use xlink:href="#DejaVuSans-30" x="63.623047"/>
       <use xlink:href="#DejaVuSans-30" x="127.246094"/>
       <use xlink:href="#DejaVuSans-30" x="190.869141"/>
       <use xlink:href="#DejaVuSans-30" x="254.492188"/>
      </g>
     </g>
    </g>
    <g id="ytick_4">
     <g id="line2d_15">
      <g>
       <use xlink:href="#m4fc53c9a3a" x="52.375" y="230.783755" style="stroke: #000000; stroke-width: 0.8"/>
      </g>
     </g>
     <g id="text_15">
      <!-- 60000 -->
      <g transform="translate(13.5625 234.582974)scale(0.1 -0.1)">
       <defs>
        <path id="DejaVuSans-36" d="M 2113 2584 
Q 1688 2584 1439 2293 
Q 1191 2003 1191 1497 
Q 1191 994 1439 701 
Q 1688 409 2113 409 
Q 2538 409 2786 701 
Q 3034 994 3034 1497 
Q 3034 2003 2786 2293 
Q 2538 2584 2113 2584 
z
M 3366 4563 
L 3366 3988 
Q 3128 4100 2886 4159 
Q 2644 4219 2406 4219 
Q 1781 4219 1451 3797 
Q 1122 3375 1075 2522 
Q 1259 2794 1537 2939 
Q 1816 3084 2150 3084 
Q 2853 3084 3261 2657 
Q 3669 2231 3669 1497 
Q 3669 778 3244 343 
Q 2819 -91 2113 -91 
Q 1303 -91 875 529 
Q 447 1150 447 2328 
Q 447 3434 972 4092 
Q 1497 4750 2381 4750 
Q 2619 4750 2861 4703 
Q 3103 4656 3366 4563 
z
" transform="scale(0.015625)"/>
       </defs>
       <use xlink:href="#DejaVuSans-36"/>
       <use xlink:href="#DejaVuSans-30" x="63.623047"/>
       <use xlink:href="#DejaVuSans-30" x="127.246094"/>
       <use xlink:href="#DejaVuSans-30" x="190.869141"/>
       <use xlink:href="#DejaVuSans-30" x="254.492188"/>
      </g>
     </g>
    </g>
    <g id="ytick_5">
     <g id="line2d_16">
      <g>
       <use xlink:href="#m4fc53c9a3a" x="52.375" y="190.915332" style="stroke: #000000; stroke-width: 0.8"/>
      </g>
     </g>
     <g id="text_16">
      <!-- 80000 -->
      <g transform="translate(13.5625 194.71455)scale(0.1 -0.1)">
       <defs>
        <path id="DejaVuSans-38" d="M 2034 2216 
Q 1584 2216 1326 1975 
Q 1069 1734 1069 1313 
Q 1069 891 1326 650 
Q 1584 409 2034 409 
Q 2484 409 2743 651 
Q 3003 894 3003 1313 
Q 3003 1734 2745 1975 
Q 2488 2216 2034 2216 
z
M 1403 2484 
Q 997 2584 770 2862 
Q 544 3141 544 3541 
Q 544 4100 942 4425 
Q 1341 4750 2034 4750 
Q 2731 4750 3128 4425 
Q 3525 4100 3525 3541 
Q 3525 3141 3298 2862 
Q 3072 2584 2669 2484 
Q 3125 2378 3379 2068 
Q 3634 1759 3634 1313 
Q 3634 634 3220 271 
Q 2806 -91 2034 -91 
Q 1263 -91 848 271 
Q 434 634 434 1313 
Q 434 1759 690 2068 
Q 947 2378 1403 2484 
z
M 1172 3481 
Q 1172 3119 1398 2916 
Q 1625 2713 2034 2713 
Q 2441 2713 2670 2916 
Q 2900 3119 2900 3481 
Q 2900 3844 2670 4047 
Q 2441 4250 2034 4250 
Q 1625 4250 1398 4047 
Q 1172 3844 1172 3481 
z
" transform="scale(0.015625)"/>
       </defs>
       <use xlink:href="#DejaVuSans-38"/>
       <use xlink:href="#DejaVuSans-30" x="63.623047"/>
       <use xlink:href="#DejaVuSans-30" x="127.246094"/>
       <use xlink:href="#DejaVuSans-30" x="190.869141"/>
       <use xlink:href="#DejaVuSans-30" x="254.492188"/>
      </g>
     </g>
    </g>
    <g id="ytick_6">
     <g id="line2d_17">
      <g>
       <use xlink:href="#m4fc53c9a3a" x="52.375" y="151.046908" style="stroke: #000000; stroke-width: 0.8"/>
      </g>
     </g>
     <g id="text_17">
      <!-- 100000 -->
      <g transform="translate(7.2 154.846127)scale(0.1 -0.1)">
       <use xlink:href="#DejaVuSans-31"/>
       <use xlink:href="#DejaVuSans-30" x="63.623047"/>
       <use xlink:href="#DejaVuSans-30" x="127.246094"/>
       <use xlink:href="#DejaVuSans-30" x="190.869141"/>
       <use xlink:href="#DejaVuSans-30" x="254.492188"/>
       <use xlink:href="#DejaVuSans-30" x="318.115234"/>
      </g>
     </g>
    </g>
    <g id="ytick_7">
     <g id="line2d_18">
      <g>
       <use xlink:href="#m4fc53c9a3a" x="52.375" y="111.178484" style="stroke: #000000; stroke-width: 0.8"/>
      </g>
     </g>
     <g id="text_18">
      <!-- 120000 -->
      <g transform="translate(7.2 114.977703)scale(0.1 -0.1)">
       <use xlink:href="#DejaVuSans-31"/>
       <use xlink:href="#DejaVuSans-32" x="63.623047"/>
       <use xlink:href="#DejaVuSans-30" x="127.246094"/>
       <use xlink:href="#DejaVuSans-30" x="190.869141"/>
       <use xlink:href="#DejaVuSans-30" x="254.492188"/>
       <use xlink:href="#DejaVuSans-30" x="318.115234"/>
      </g>
     </g>
    </g>
    <g id="ytick_8">
     <g id="line2d_19">
      <g>
       <use xlink:href="#m4fc53c9a3a" x="52.375" y="71.310061" style="stroke: #000000; stroke-width: 0.8"/>
      </g>
     </g>
     <g id="text_19">
      <!-- 140000 -->
      <g transform="translate(7.2 75.109279)scale(0.1 -0.1)">
       <use xlink:href="#DejaVuSans-31"/>
       <use xlink:href="#DejaVuSans-34" x="63.623047"/>
       <use xlink:href="#DejaVuSans-30" x="127.246094"/>
       <use xlink:href="#DejaVuSans-30" x="190.869141"/>
       <use xlink:href="#DejaVuSans-30" x="254.492188"/>
       <use xlink:href="#DejaVuSans-30" x="318.115234"/>
      </g>
     </g>
    </g>
   </g>
   <g id="line2d_20">
    <path d="M 113.247727 350.389026 
L 184.467474 350.387033 
L 185.811243 350.211612 
L 193.873856 349.944493 
L 195.217625 350.020243 
L 196.561394 349.850802 
L 197.905163 349.043467 
L 199.248931 349.306598 
L 200.5927 348.668704 
L 201.936469 349.426204 
L 203.280238 347.943098 
L 204.624007 347.861368 
L 205.967775 349.960441 
L 207.311544 346.298526 
L 208.655313 347.877315 
L 209.999082 347.859375 
L 211.342851 348.768375 
L 212.68662 348.447434 
L 214.030388 347.955059 
L 215.374157 348.573019 
L 216.717926 348.579 
L 218.061695 348.062704 
L 219.405464 348.469362 
L 220.749232 347.596243 
L 222.093001 348.148421 
L 223.43677 349.175033 
L 224.780539 348.628835 
L 226.124308 348.7305 
L 227.468076 347.566342 
L 228.811845 348.927848 
L 230.155614 348.750434 
L 231.499383 348.903927 
L 232.843152 348.774355 
L 234.186921 349.511921 
L 235.530689 347.719835 
L 236.874458 348.624848 
L 238.218227 349.779039 
L 239.561996 349.007585 
L 240.905765 349.181013 
L 242.249533 348.973697 
L 243.593302 349.701296 
L 244.937071 349.398296 
L 246.28084 348.319855 
L 247.624609 348.923862 
L 248.968377 349.163072 
L 250.312146 348.756414 
L 251.655915 349.308592 
L 252.999684 349.26673 
L 254.343453 348.74246 
L 255.687222 349.649467 
L 257.03099 348.790302 
L 259.718528 349.619566 
L 261.062297 348.513217 
L 262.406066 349.434177 
L 263.749834 348.778342 
L 265.093603 348.539131 
L 266.437372 349.047454 
L 269.12491 348.686644 
L 270.468679 349.388329 
L 271.812447 349.338493 
L 273.156216 347.988947 
L 274.499985 348.842131 
L 275.843754 349.041473 
L 277.187523 348.913894 
L 278.531291 348.636809 
L 279.87506 349.374375 
L 281.218829 349.633519 
L 282.562598 349.091309 
L 283.906367 347.973 
L 285.250135 348.541125 
L 286.593904 348.915888 
L 289.281442 349.159085 
L 290.625211 347.76369 
L 291.96898 347.560361 
L 293.312748 347.787611 
L 296.000286 348.036789 
L 297.344055 348.463381 
L 298.687824 348.204237 
L 302.71913 346.597539 
L 304.062899 345.244006 
L 305.406668 346.370289 
L 306.750436 346.884592 
L 308.094205 344.841335 
L 309.437974 345.186197 
L 312.125512 342.77017 
L 313.469281 342.317664 
L 316.156818 344.556276 
L 317.500587 343.838644 
L 318.844356 339.403282 
L 320.188125 340.413947 
L 321.531893 332.563854 
L 322.875662 331.282084 
L 324.219431 333.385143 
L 325.5632 339.89167 
L 326.906969 338.243111 
L 328.250738 337.306203 
L 329.594506 330.237531 
L 330.938275 331.475446 
L 332.282044 327.548406 
L 333.625813 330.337202 
L 334.969582 337.75871 
L 336.31335 335.743361 
L 337.657119 330.476742 
L 339.000888 332.577808 
L 340.344657 327.598242 
L 341.688426 329.737183 
L 343.032194 319.889682 
L 344.375963 325.224077 
L 345.719732 332.061512 
L 347.063501 330.094005 
L 348.40727 322.550899 
L 349.751039 327.532459 
L 351.094807 329.800972 
L 352.438576 325.515117 
L 353.782345 329.763097 
L 355.126114 331.57113 
L 356.469883 330.8834 
L 357.813651 329.958452 
L 359.15742 325.582893 
L 360.501189 326.071281 
L 361.844958 331.762499 
L 363.188727 332.663525 
L 364.532495 331.989749 
L 365.876264 331.55917 
L 367.220033 330.542525 
L 368.563802 332.434282 
L 369.907571 331.168459 
L 372.595108 340.916289 
L 373.938877 339.532854 
L 375.282646 339.606611 
L 376.626415 335.139354 
L 377.970184 335.067591 
L 379.313952 333.440959 
L 380.657721 337.972006 
L 382.00149 342.106361 
L 383.345259 338.765387 
L 384.689028 334.224374 
L 386.032797 337.958052 
L 387.376565 338.133473 
L 388.720334 337.726815 
L 390.064103 342.855887 
L 391.407872 345.050644 
L 392.751641 342.738276 
L 394.095409 342.186098 
L 395.439178 341.308993 
L 396.782947 341.051841 
L 398.126716 341.795387 
L 399.470485 344.460592 
L 400.814253 345.887881 
L 402.158022 345.060611 
L 403.501791 343.97021 
L 404.84556 343.872532 
L 406.189329 342.784124 
L 408.876866 345.240019 
L 410.220635 346.631427 
L 411.564404 335.300821 
L 412.908173 345.600828 
L 414.251942 343.270519 
L 415.59571 344.014065 
L 416.939479 343.101078 
L 418.283248 345.277894 
L 419.627017 346.725118 
L 420.970786 346.755019 
L 423.658323 345.461289 
L 425.002092 343.113039 
L 426.345861 344.030013 
L 429.033399 346.928447 
L 430.377167 344.177526 
L 431.720936 345.694519 
L 433.064705 343.90044 
L 434.408474 344.002105 
L 435.752243 343.266532 
L 437.096011 345.363611 
L 438.43978 347.030111 
L 439.783549 345.465276 
L 441.127318 345.226065 
L 442.471087 345.323743 
L 443.814856 344.713756 
L 445.158624 344.817414 
L 446.502393 346.637407 
L 447.846162 348.917881 
L 449.189931 343.878513 
L 450.5337 346.505842 
L 451.877468 345.150315 
L 453.221237 345.086526 
L 454.565006 344.833361 
L 455.908775 346.665315 
L 457.252544 347.568335 
L 458.596312 345.901835 
L 459.940081 345.242013 
L 461.28385 343.798776 
L 462.627619 344.592157 
L 463.971388 350.389026 
L 465.315157 339.28567 
L 466.658925 347.333111 
L 468.002694 344.956953 
L 469.346463 344.641993 
L 470.690232 343.699105 
L 472.034001 343.513716 
L 473.377769 342.327631 
L 474.721538 345.32773 
L 476.065307 346.986256 
L 477.409076 343.089118 
L 478.752845 346.115131 
L 480.096613 339.309591 
L 481.440382 343.035295 
L 482.784151 341.47644 
L 484.12792 345.634717 
L 486.815458 341.821302 
L 488.159226 342.186098 
L 489.502995 342.020644 
L 490.846764 339.241815 
L 492.190533 345.742361 
L 493.534302 340.691032 
L 494.87807 341.117624 
L 496.221839 341.145532 
L 497.565608 341.572124 
L 498.909377 337.91619 
L 500.253146 339.933532 
L 501.596915 341.514315 
L 502.940683 336.793894 
L 504.284452 342.566841 
L 505.628221 341.711664 
L 506.97199 338.751433 
L 508.315759 339.211914 
L 509.659527 336.568637 
L 511.003296 341.33092 
L 512.347065 330.245505 
L 513.690834 341.093703 
L 515.034603 335.520098 
L 516.378371 334.591163 
L 517.72214 332.278795 
L 519.065909 332.278795 
L 520.409678 333.626347 
L 521.753447 337.258361 
L 523.097216 337.768677 
L 524.440984 333.335308 
L 525.784753 333.69213 
L 527.128522 350.389026 
L 528.472291 315.815129 
L 529.81606 337.876321 
L 531.159828 335.711466 
L 532.503597 337.114834 
L 533.847366 332.753229 
L 535.191135 330.466775 
L 536.534904 328.720538 
L 537.878672 330.101979 
L 539.222441 329.59565 
L 540.56621 333.572525 
L 541.909979 335.017755 
L 543.253748 334.471558 
L 545.941285 327.793597 
L 547.285054 327.067992 
L 548.628823 329.30461 
L 549.972592 332.531959 
L 551.316361 333.54063 
L 552.660129 331.628939 
L 554.003898 327.382952 
L 555.347667 324.179524 
L 556.691436 324.474551 
L 558.035205 327.10188 
L 559.378974 333.642295 
L 560.722742 328.431492 
L 562.066511 329.58967 
L 563.41028 327.695919 
L 564.754049 324.181518 
L 566.097818 350.389026 
L 567.441586 316.417142 
L 568.785355 335.65565 
L 570.129124 334.046959 
L 571.472893 326.318465 
L 572.816662 322.738281 
L 574.16043 316.118129 
L 575.504199 350.389026 
L 576.847968 287.560377 
L 578.191737 329.252781 
L 579.535506 327.951077 
L 580.879275 319.628544 
L 582.223043 314.940017 
L 583.566812 310.887392 
L 584.910581 311.45751 
L 586.25435 319.600636 
L 587.598119 325.844031 
L 588.941887 327.313183 
L 590.285656 320.695024 
L 591.629425 322.501064 
L 592.973194 323.039288 
L 594.316963 316.750044 
L 595.660731 326.230755 
L 597.0045 328.276005 
L 598.348269 334.43767 
L 599.692038 330.821604 
L 601.035807 326.639406 
L 602.379576 324.727715 
L 603.723344 323.041281 
L 605.067113 325.848018 
L 606.410882 331.381755 
L 607.754651 333.006393 
L 609.09842 331.264143 
L 610.442188 333.628341 
L 611.785957 327.618176 
L 613.129726 328.509235 
L 614.473495 320.449833 
L 615.817264 334.864262 
L 617.161033 338.966723 
L 618.504801 329.392321 
L 619.84857 336.47694 
L 621.192339 335.017755 
L 622.536108 327.378965 
L 623.879877 335.466275 
L 626.567414 338.952769 
L 627.911183 336.389229 
L 629.254952 335.364611 
L 630.598721 333.395111 
L 631.942489 335.205137 
L 633.286258 335.408466 
L 634.630027 339.552789 
L 635.973796 343.182809 
L 637.317565 337.836453 
L 638.661334 335.753328 
L 640.005102 340.18869 
L 641.348871 337.066992 
L 642.69264 335.87692 
L 644.036409 340.292348 
L 645.380178 342.114335 
L 648.067715 336.17992 
L 649.411484 337.152709 
L 650.755253 338.583986 
L 652.099022 339.50694 
L 653.44279 339.347466 
L 654.786559 347.00021 
L 656.130328 336.078255 
L 657.474097 338.400591 
L 658.817866 338.193275 
L 660.161635 338.478335 
L 661.505403 341.039881 
L 662.849172 342.219986 
L 664.192941 343.786815 
L 665.53671 341.566144 
L 666.880479 340.714953 
L 668.224247 340.292348 
L 669.568016 339.995328 
L 670.911785 339.935525 
L 672.255554 343.015361 
L 673.599323 344.755618 
L 674.943092 340.838545 
L 676.28686 341.221282 
L 677.630629 340.236532 
L 678.974398 340.142841 
L 680.318167 340.212611 
L 683.005704 344.683855 
L 684.349473 339.819907 
L 685.693242 340.136861 
L 687.037011 338.881006 
L 688.38078 338.926854 
L 689.724548 338.661729 
L 691.068317 340.535545 
L 692.412086 343.663223 
L 693.755855 340.298328 
L 695.099624 339.835854 
L 696.443393 336.853696 
L 697.787161 337.451723 
L 699.13093 338.394611 
L 701.818468 343.45192 
L 703.162237 339.313578 
L 704.506005 338.657742 
L 705.849774 334.563255 
L 707.193543 336.193874 
L 708.537312 336.622459 
L 709.881081 339.385341 
L 711.224849 347.173638 
L 712.568618 332.312683 
L 713.912387 336.889578 
L 715.256156 336.909512 
L 716.599925 335.845025 
L 717.943694 337.784624 
L 719.287462 336.765986 
L 720.631231 341.942901 
L 721.975 339.136164 
L 723.318769 339.283677 
L 724.662538 337.064999 
L 726.006306 339.496973 
L 727.350075 335.615782 
L 728.693844 341.077756 
L 730.037613 343.386138 
L 731.381382 339.881703 
L 732.725151 340.067091 
L 734.068919 339.094302 
L 735.412688 339.811933 
L 736.756457 339.586677 
L 738.100226 342.732295 
L 739.443995 344.259256 
L 740.787763 343.049249 
L 742.131532 341.629933 
L 743.475301 341.410657 
L 744.81907 342.086427 
L 746.162839 342.46119 
L 747.506607 343.948282 
L 748.850376 345.812131 
L 750.194145 343.884493 
L 751.537914 344.041973 
L 752.881683 342.287762 
L 754.225452 343.232644 
L 755.56922 343.772861 
L 756.912989 345.441355 
L 758.256758 346.450026 
L 759.600527 344.79748 
L 760.944296 344.785519 
L 762.288064 344.622059 
L 763.631833 345.662625 
L 764.975602 343.599434 
L 766.319371 346.264638 
L 767.66314 347.187592 
L 769.006908 346.653355 
L 770.350677 345.750335 
L 773.038215 345.728407 
L 774.381984 350.389026 
L 777.069521 350.389026 
L 778.41329 338.554085 
L 779.757059 347.929144 
L 781.100828 346.645381 
L 782.444597 350.389026 
L 783.788365 344.408763 
L 785.132134 350.389026 
L 790.50721 350.389026 
L 791.850978 327.55638 
L 793.194747 350.389026 
L 799.913591 350.389026 
L 801.25736 330.265439 
L 802.601129 350.389026 
L 809.319973 350.389026 
L 810.663742 328.365709 
L 812.007511 350.389026 
L 818.726355 350.389026 
L 820.070123 319.124208 
L 821.413892 350.389026 
L 828.132736 350.389026 
L 829.476505 303.051253 
L 830.820274 350.389026 
L 837.539118 350.389026 
L 838.882887 259.790027 
L 840.226656 350.389026 
L 846.9455 350.389026 
L 848.289269 204.538372 
L 849.633037 350.389026 
L 856.351881 350.389026 
L 857.69565 129.669459 
L 859.039419 350.389026 
L 865.758263 350.389026 
L 867.102032 81.773528 
L 868.445801 350.389026 
L 871.133338 350.389026 
L 872.477107 324.325044 
L 873.820876 301.045872 
L 875.164645 309.212918 
L 876.508414 164.442698 
L 877.852182 350.389026 
L 879.195951 350.389026 
L 880.53972 325.112446 
L 881.883489 307.193583 
L 883.227258 303.872543 
L 884.571026 319.319564 
L 885.914795 195.958687 
L 887.258564 350.389026 
L 888.602333 350.389026 
L 889.946102 327.974998 
L 891.289871 308.11255 
L 892.633639 298.155411 
L 893.977408 307.002214 
L 895.321177 208.178359 
L 896.664946 350.389026 
L 898.008715 350.389026 
L 899.352483 333.251584 
L 900.696252 313.295445 
L 902.040021 312.418339 
L 903.38379 307.085938 
L 904.727559 228.339821 
L 906.071328 350.389026 
L 908.758865 350.389026 
L 910.102634 325.377571 
L 911.446403 322.931643 
L 912.790172 325.698511 
L 914.13394 227.7099 
L 915.477709 350.389026 
L 918.165247 350.389026 
L 919.509016 349.013566 
L 920.852784 329.013571 
L 922.196553 330.933235 
L 923.540322 241.09971 
L 924.884091 350.389026 
L 928.915397 350.389026 
L 930.259166 353.2755 
L 931.602935 341.986756 
L 932.946704 248.042796 
L 934.290473 350.389026 
L 941.009317 350.389026 
L 942.353085 276.036409 
L 943.696854 350.389026 
L 950.415698 350.389026 
L 951.759467 300.186707 
L 953.103236 350.389026 
L 959.82208 350.389026 
L 961.165849 312.898754 
L 962.509618 350.389026 
L 969.228462 350.389026 
L 970.572231 321.35684 
L 971.915999 350.389026 
L 978.634843 350.389026 
L 979.978612 326.166965 
L 981.322381 350.389026 
L 988.041225 350.389026 
L 989.384994 329.462091 
L 990.728763 350.389026 
L 997.447607 350.389026 
L 998.791376 329.852801 
L 1000.135144 350.389026 
L 1006.853989 350.389026 
L 1008.197757 330.672097 
L 1009.541526 350.389026 
L 1021.635446 350.389026 
L 1022.979214 332.663525 
L 1024.322983 350.389026 
L 1025.666752 350.389026 
L 1027.010521 329.133176 
L 1028.35429 350.389026 
L 1035.073134 350.389026 
L 1036.416902 324.506445 
L 1037.760671 350.389026 
L 1044.479515 350.389026 
L 1045.823284 292.896766 
L 1047.167053 350.389026 
L 1051.198359 350.389026 
L 1053.885897 284.867265 
L 1055.229666 200.447872 
L 1056.573435 350.389026 
L 1057.917203 350.389026 
L 1059.260972 293.732009 
L 1060.604741 292.4622 
L 1061.94851 256.851724 
L 1063.292279 195.205174 
L 1064.636048 111.324004 
L 1065.979816 350.389026 
L 1068.667354 350.389026 
L 1070.011123 50.8755 
L 1071.354892 350.389026 
L 1072.69866 99.022602 
L 1074.042429 110.753885 
L 1075.386198 297.387944 
L 1076.729967 350.389026 
L 1078.073736 99.225931 
L 1079.417505 255.284895 
L 1080.761273 207.377004 
L 1082.105042 240.762822 
L 1083.448811 232.655578 
L 1084.79258 252.035618 
L 1086.136349 350.389026 
L 1087.480117 350.389026 
L 1088.823886 127.88136 
L 1090.167655 264.315093 
L 1091.511424 259.353468 
L 1092.855193 189.019588 
L 1094.198961 348.194269 
L 1095.54273 350.389026 
L 1096.886499 303.762905 
L 1098.230268 280.089035 
L 1099.574037 275.314791 
L 1100.917806 295.504161 
L 1102.261574 203.039319 
L 1103.605343 350.389026 
L 1104.949112 350.389026 
L 1106.292881 323.284478 
L 1107.63665 310.37907 
L 1108.980418 316.734096 
L 1110.324187 350.389026 
L 1111.667956 189.304647 
L 1113.011725 349.711263 
L 1114.355494 350.389026 
L 1115.699262 296.461003 
L 1117.043031 311.904037 
L 1118.3868 324.632031 
L 1119.730569 330.692031 
L 1121.074338 244.20546 
L 1122.418107 350.389026 
L 1129.136951 350.389026 
L 1130.480719 265.92179 
L 1131.824488 350.389026 
L 1139.887101 350.389026 
L 1141.23087 299.510937 
L 1142.574639 350.389026 
L 1143.918408 350.654151 
L 1145.262176 350.389026 
L 1147.949714 350.389026 
L 1149.293483 322.56884 
L 1150.637252 350.389026 
L 1157.356096 350.389026 
L 1158.699865 329.900643 
L 1160.043633 350.522585 
L 1161.387402 350.389026 
L 1176.168859 350.389026 
L 1177.512628 317.017162 
L 1178.856397 350.389026 
L 1194.981623 350.389026 
L 1196.325391 307.833471 
L 1197.66916 350.389026 
L 1213.794386 350.389026 
L 1215.138155 277.886304 
L 1216.481924 350.389026 
L 1228.575843 350.389026 
L 1229.919612 352.380454 
L 1231.26338 341.496374 
L 1232.607149 337.515512 
L 1233.950918 251.694743 
L 1235.294687 350.389026 
L 1246.044837 350.389026 
L 1247.388606 311.264149 
L 1248.732375 333.722032 
L 1251.419913 329.926558 
L 1252.763682 246.645408 
L 1254.10745 350.389026 
L 1258.138757 350.389026 
L 1259.482526 348.732493 
L 1260.826294 327.664025 
L 1262.170063 328.260058 
L 1263.513832 350.389026 
L 1266.20137 350.389026 
L 1267.545138 281.442568 
L 1268.888907 330.518604 
L 1270.232676 324.067893 
L 1271.576445 235.635742 
L 1272.920214 350.389026 
L 1276.95152 350.389026 
L 1278.295289 336.859677 
L 1279.639058 326.19886 
L 1280.982827 326.623459 
L 1282.326595 328.999617 
L 1283.670364 350.389026 
L 1285.014133 318.986662 
L 1286.357902 330.919281 
L 1287.701671 323.764893 
L 1289.045439 324.960946 
L 1290.389208 239.650493 
L 1291.732977 350.389026 
L 1295.764284 350.389026 
L 1297.108052 338.51621 
L 1298.451821 325.483222 
L 1299.79559 326.782932 
L 1301.139359 328.277998 
L 1302.483128 350.389026 
L 1303.826896 317.461695 
L 1305.170665 350.389026 
L 1306.514434 305.656655 
L 1307.858203 324.962939 
L 1309.201972 240.318289 
L 1310.545741 350.389026 
L 1313.233278 350.389026 
L 1313.233278 350.389026 
" clip-path="url(#p103b8e4612)" style="fill: none; stroke: #0000ff; stroke-width: 1.5; stroke-linecap: square"/>
   </g>
   <g id="line2d_21">
    <path d="M 1074.042429 297.69832 
L 1075.386198 297.674786 
L 1076.729967 301.671803 
L 1078.073736 108.237535 
L 1079.417505 297.471253 
L 1080.761273 141.183139 
L 1082.105042 155.708849 
L 1083.448811 272.511663 
L 1084.79258 302.472326 
L 1086.136349 156.769683 
L 1087.480117 264.239851 
L 1088.823886 225.415623 
L 1090.167655 248.215598 
L 1091.511424 244.239735 
L 1092.855193 251.575642 
L 1094.198961 317.380387 
L 1095.54273 319.883242 
L 1096.886499 186.362909 
L 1098.230268 274.59003 
L 1099.574037 271.694915 
L 1100.917806 231.6813 
L 1102.261574 324.151206 
L 1103.605343 327.445621 
L 1104.949112 301.462451 
L 1106.292881 289.041143 
L 1107.63665 287.820418 
L 1108.980418 302.016918 
L 1110.324187 250.707195 
L 1111.667956 333.662193 
L 1113.011725 334.879102 
L 1114.355494 319.93938 
L 1115.699262 310.485886 
L 1117.043031 314.371971 
L 1118.3868 335.160391 
L 1119.730569 239.044456 
L 1121.074338 334.809928 
L 1122.418107 336.394184 
L 1123.761875 305.390951 
L 1125.105644 317.984974 
L 1126.449413 328.009764 
L 1127.793182 333.309794 
L 1129.136951 283.181856 
L 1130.480719 345.007469 
L 1134.512026 346.141152 
L 1137.199564 346.760913 
L 1138.543332 296.813706 
L 1139.887101 351.098321 
L 1141.23087 347.186746 
L 1146.605945 348.070171 
L 1147.949714 348.245996 
L 1149.293483 316.048085 
L 1150.637252 348.902921 
L 1151.98102 349.173241 
L 1153.324789 349.10779 
L 1156.012327 349.294721 
L 1157.356096 332.836443 
L 1158.699865 349.155091 
L 1165.418709 349.564525 
L 1166.762477 337.445114 
L 1168.106246 350.687916 
L 1170.793784 350.570918 
L 1176.168859 350.521714 
L 1177.512628 347.981257 
L 1182.887703 348.632587 
L 1184.231472 348.765768 
L 1185.575241 329.046695 
L 1186.91901 350.507116 
L 1194.981623 350.462603 
L 1196.325391 347.230281 
L 1201.700467 348.084759 
L 1203.044235 348.259478 
L 1204.388004 323.11838 
L 1205.731773 350.488726 
L 1213.794386 350.451145 
L 1215.138155 344.94897 
L 1219.169461 346.094976 
L 1221.856999 346.721475 
L 1223.200768 303.891087 
L 1224.544536 350.525235 
L 1228.575843 350.496541 
L 1229.919612 350.639388 
L 1231.26338 349.946125 
L 1232.607149 349.003584 
L 1233.950918 341.625214 
L 1236.638456 342.903847 
L 1237.982225 344.655463 
L 1239.325993 338.618779 
L 1240.669762 337.144318 
L 1242.013531 287.121502 
L 1243.3573 350.600101 
L 1246.044837 350.569305 
L 1247.388606 347.589021 
L 1250.076144 345.41877 
L 1251.419913 344.244085 
L 1252.763682 336.843739 
L 1254.10745 337.8708 
L 1255.451219 315.557219 
L 1256.794988 331.551263 
L 1259.482526 332.004813 
L 1260.826294 282.158589 
L 1262.170063 347.337805 
L 1266.20137 347.980578 
L 1267.545138 341.950446 
L 1268.888907 328.556801 
L 1270.232676 328.57082 
L 1271.576445 334.681472 
L 1274.263983 336.973191 
L 1275.607751 296.996433 
L 1276.95152 330.224387 
L 1278.295289 326.892056 
L 1279.639058 274.25974 
L 1280.982827 346.459884 
L 1282.326595 345.135973 
L 1283.670364 345.534281 
L 1285.014133 343.521328 
L 1286.357902 334.521543 
L 1287.701671 327.367248 
L 1289.045439 327.437248 
L 1290.389208 322.193693 
L 1291.732977 337.049242 
L 1293.076746 319.389586 
L 1294.420515 328.834961 
L 1295.764284 326.215444 
L 1297.108052 327.859286 
L 1298.451821 276.955459 
L 1299.79559 346.576215 
L 1301.139359 345.188766 
L 1302.483128 345.583072 
L 1303.826896 343.45079 
L 1305.170665 336.917568 
L 1306.514434 326.798114 
L 1307.858203 327.431741 
L 1309.201972 321.715362 
L 1310.545741 337.036237 
L 1311.889509 318.470857 
L 1313.233278 340.468874 
L 1313.233278 340.468874 
" clip-path="url(#p103b8e4612)" style="fill: none; stroke: #ffa500; stroke-width: 1.5; stroke-linecap: square"/>
   </g>
   <g id="line2d_22">
    <path d="M 1313.233278 340.468874 
L 1314.577047 313.872018 
L 1315.920816 325.351098 
L 1317.264585 275.023305 
L 1318.608353 340.468874 
L 1319.952122 340.468874 
L 1321.295891 340.468874 
L 1322.63966 334.570576 
L 1323.983429 318.756687 
L 1325.327197 325.581888 
L 1326.670966 295.658122 
L 1328.014735 334.570576 
L 1329.358504 334.570576 
L 1330.702273 334.570576 
" clip-path="url(#p103b8e4612)" style="fill: none; stroke: #ff0000; stroke-width: 1.5; stroke-linecap: square"/>
   </g>
   <g id="patch_3">
    <path d="M 52.375 368.3955 
L 52.375 35.7555 
" style="fill: none; stroke: #000000; stroke-width: 0.8; stroke-linejoin: miter; stroke-linecap: square"/>
   </g>
   <g id="patch_4">
    <path d="M 1391.575 368.3955 
L 1391.575 35.7555 
" style="fill: none; stroke: #000000; stroke-width: 0.8; stroke-linejoin: miter; stroke-linecap: square"/>
   </g>
   <g id="patch_5">
    <path d="M 52.375 368.3955 
L 1391.575 368.3955 
" style="fill: none; stroke: #000000; stroke-width: 0.8; stroke-linejoin: miter; stroke-linecap: square"/>
   </g>
   <g id="patch_6">
    <path d="M 52.375 35.7555 
L 1391.575 35.7555 
" style="fill: none; stroke: #000000; stroke-width: 0.8; stroke-linejoin: miter; stroke-linecap: square"/>
   </g>
   <g id="text_20">
    <!-- Daily Confirmed Cases Forecasting - Florida -->
    <g transform="translate(591.06625 16.318125)scale(0.12 -0.12)">
     <defs>
      <path id="DejaVuSans-44" d="M 1259 4147 
L 1259 519 
L 2022 519 
Q 2988 519 3436 956 
Q 3884 1394 3884 2338 
Q 3884 3275 3436 3711 
Q 2988 4147 2022 4147 
L 1259 4147 
z
M 628 4666 
L 1925 4666 
Q 3281 4666 3915 4102 
Q 4550 3538 4550 2338 
Q 4550 1131 3912 565 
Q 3275 0 1925 0 
L 628 0 
L 628 4666 
z
" transform="scale(0.015625)"/>
      <path id="DejaVuSans-61" d="M 2194 1759 
Q 1497 1759 1228 1600 
Q 959 1441 959 1056 
Q 959 750 1161 570 
Q 1363 391 1709 391 
Q 2188 391 2477 730 
Q 2766 1069 2766 1631 
L 2766 1759 
L 2194 1759 
z
M 3341 1997 
L 3341 0 
L 2766 0 
L 2766 531 
Q 2569 213 2275 61 
Q 1981 -91 1556 -91 
Q 1019 -91 701 211 
Q 384 513 384 1019 
Q 384 1609 779 1909 
Q 1175 2209 1959 2209 
L 2766 2209 
L 2766 2266 
Q 2766 2663 2505 2880 
Q 2244 3097 1772 3097 
Q 1472 3097 1187 3025 
Q 903 2953 641 2809 
L 641 3341 
Q 956 3463 1253 3523 
Q 1550 3584 1831 3584 
Q 2591 3584 2966 3190 
Q 3341 2797 3341 1997 
z
" transform="scale(0.015625)"/>
      <path id="DejaVuSans-69" d="M 603 3500 
L 1178 3500 
L 1178 0 
L 603 0 
L 603 3500 
z
M 603 4863 
L 1178 4863 
L 1178 4134 
L 603 4134 
L 603 4863 
z
" transform="scale(0.015625)"/>
      <path id="DejaVuSans-6c" d="M 603 4863 
L 1178 4863 
L 1178 0 
L 603 0 
L 603 4863 
z
" transform="scale(0.015625)"/>
      <path id="DejaVuSans-79" d="M 2059 -325 
Q 1816 -950 1584 -1140 
Q 1353 -1331 966 -1331 
L 506 -1331 
L 506 -850 
L 844 -850 
Q 1081 -850 1212 -737 
Q 1344 -625 1503 -206 
L 1606 56 
L 191 3500 
L 800 3500 
L 1894 763 
L 2988 3500 
L 3597 3500 
L 2059 -325 
z
" transform="scale(0.015625)"/>
      <path id="DejaVuSans-20" transform="scale(0.015625)"/>
      <path id="DejaVuSans-43" d="M 4122 4306 
L 4122 3641 
Q 3803 3938 3442 4084 
Q 3081 4231 2675 4231 
Q 1875 4231 1450 3742 
Q 1025 3253 1025 2328 
Q 1025 1406 1450 917 
Q 1875 428 2675 428 
Q 3081 428 3442 575 
Q 3803 722 4122 1019 
L 4122 359 
Q 3791 134 3420 21 
Q 3050 -91 2638 -91 
Q 1578 -91 968 557 
Q 359 1206 359 2328 
Q 359 3453 968 4101 
Q 1578 4750 2638 4750 
Q 3056 4750 3426 4639 
Q 3797 4528 4122 4306 
z
" transform="scale(0.015625)"/>
      <path id="DejaVuSans-6f" d="M 1959 3097 
Q 1497 3097 1228 2736 
Q 959 2375 959 1747 
Q 959 1119 1226 758 
Q 1494 397 1959 397 
Q 2419 397 2687 759 
Q 2956 1122 2956 1747 
Q 2956 2369 2687 2733 
Q 2419 3097 1959 3097 
z
M 1959 3584 
Q 2709 3584 3137 3096 
Q 3566 2609 3566 1747 
Q 3566 888 3137 398 
Q 2709 -91 1959 -91 
Q 1206 -91 779 398 
Q 353 888 353 1747 
Q 353 2609 779 3096 
Q 1206 3584 1959 3584 
z
" transform="scale(0.015625)"/>
      <path id="DejaVuSans-6e" d="M 3513 2113 
L 3513 0 
L 2938 0 
L 2938 2094 
Q 2938 2591 2744 2837 
Q 2550 3084 2163 3084 
Q 1697 3084 1428 2787 
Q 1159 2491 1159 1978 
L 1159 0 
L 581 0 
L 581 3500 
L 1159 3500 
L 1159 2956 
Q 1366 3272 1645 3428 
Q 1925 3584 2291 3584 
Q 2894 3584 3203 3211 
Q 3513 2838 3513 2113 
z
" transform="scale(0.015625)"/>
      <path id="DejaVuSans-66" d="M 2375 4863 
L 2375 4384 
L 1825 4384 
Q 1516 4384 1395 4259 
Q 1275 4134 1275 3809 
L 1275 3500 
L 2222 3500 
L 2222 3053 
L 1275 3053 
L 1275 0 
L 697 0 
L 697 3053 
L 147 3053 
L 147 3500 
L 697 3500 
L 697 3744 
Q 697 4328 969 4595 
Q 1241 4863 1831 4863 
L 2375 4863 
z
" transform="scale(0.015625)"/>
      <path id="DejaVuSans-72" d="M 2631 2963 
Q 2534 3019 2420 3045 
Q 2306 3072 2169 3072 
Q 1681 3072 1420 2755 
Q 1159 2438 1159 1844 
L 1159 0 
L 581 0 
L 581 3500 
L 1159 3500 
L 1159 2956 
Q 1341 3275 1631 3429 
Q 1922 3584 2338 3584 
Q 2397 3584 2469 3576 
Q 2541 3569 2628 3553 
L 2631 2963 
z
" transform="scale(0.015625)"/>
      <path id="DejaVuSans-6d" d="M 3328 2828 
Q 3544 3216 3844 3400 
Q 4144 3584 4550 3584 
Q 5097 3584 5394 3201 
Q 5691 2819 5691 2113 
L 5691 0 
L 5113 0 
L 5113 2094 
Q 5113 2597 4934 2840 
Q 4756 3084 4391 3084 
Q 3944 3084 3684 2787 
Q 3425 2491 3425 1978 
L 3425 0 
L 2847 0 
L 2847 2094 
Q 2847 2600 2669 2842 
Q 2491 3084 2119 3084 
Q 1678 3084 1418 2786 
Q 1159 2488 1159 1978 
L 1159 0 
L 581 0 
L 581 3500 
L 1159 3500 
L 1159 2956 
Q 1356 3278 1631 3431 
Q 1906 3584 2284 3584 
Q 2666 3584 2933 3390 
Q 3200 3197 3328 2828 
z
" transform="scale(0.015625)"/>
      <path id="DejaVuSans-65" d="M 3597 1894 
L 3597 1613 
L 953 1613 
Q 991 1019 1311 708 
Q 1631 397 2203 397 
Q 2534 397 2845 478 
Q 3156 559 3463 722 
L 3463 178 
Q 3153 47 2828 -22 
Q 2503 -91 2169 -91 
Q 1331 -91 842 396 
Q 353 884 353 1716 
Q 353 2575 817 3079 
Q 1281 3584 2069 3584 
Q 2775 3584 3186 3129 
Q 3597 2675 3597 1894 
z
M 3022 2063 
Q 3016 2534 2758 2815 
Q 2500 3097 2075 3097 
Q 1594 3097 1305 2825 
Q 1016 2553 972 2059 
L 3022 2063 
z
" transform="scale(0.015625)"/>
      <path id="DejaVuSans-64" d="M 2906 2969 
L 2906 4863 
L 3481 4863 
L 3481 0 
L 2906 0 
L 2906 525 
Q 2725 213 2448 61 
Q 2172 -91 1784 -91 
Q 1150 -91 751 415 
Q 353 922 353 1747 
Q 353 2572 751 3078 
Q 1150 3584 1784 3584 
Q 2172 3584 2448 3432 
Q 2725 3281 2906 2969 
z
M 947 1747 
Q 947 1113 1208 752 
Q 1469 391 1925 391 
Q 2381 391 2643 752 
Q 2906 1113 2906 1747 
Q 2906 2381 2643 2742 
Q 2381 3103 1925 3103 
Q 1469 3103 1208 2742 
Q 947 2381 947 1747 
z
" transform="scale(0.015625)"/>
      <path id="DejaVuSans-73" d="M 2834 3397 
L 2834 2853 
Q 2591 2978 2328 3040 
Q 2066 3103 1784 3103 
Q 1356 3103 1142 2972 
Q 928 2841 928 2578 
Q 928 2378 1081 2264 
Q 1234 2150 1697 2047 
L 1894 2003 
Q 2506 1872 2764 1633 
Q 3022 1394 3022 966 
Q 3022 478 2636 193 
Q 2250 -91 1575 -91 
Q 1294 -91 989 -36 
Q 684 19 347 128 
L 347 722 
Q 666 556 975 473 
Q 1284 391 1588 391 
Q 1994 391 2212 530 
Q 2431 669 2431 922 
Q 2431 1156 2273 1281 
Q 2116 1406 1581 1522 
L 1381 1569 
Q 847 1681 609 1914 
Q 372 2147 372 2553 
Q 372 3047 722 3315 
Q 1072 3584 1716 3584 
Q 2034 3584 2315 3537 
Q 2597 3491 2834 3397 
z
" transform="scale(0.015625)"/>
      <path id="DejaVuSans-46" d="M 628 4666 
L 3309 4666 
L 3309 4134 
L 1259 4134 
L 1259 2759 
L 3109 2759 
L 3109 2228 
L 1259 2228 
L 1259 0 
L 628 0 
L 628 4666 
z
" transform="scale(0.015625)"/>
      <path id="DejaVuSans-63" d="M 3122 3366 
L 3122 2828 
Q 2878 2963 2633 3030 
Q 2388 3097 2138 3097 
Q 1578 3097 1268 2742 
Q 959 2388 959 1747 
Q 959 1106 1268 751 
Q 1578 397 2138 397 
Q 2388 397 2633 464 
Q 2878 531 3122 666 
L 3122 134 
Q 2881 22 2623 -34 
Q 2366 -91 2075 -91 
Q 1284 -91 818 406 
Q 353 903 353 1747 
Q 353 2603 823 3093 
Q 1294 3584 2113 3584 
Q 2378 3584 2631 3529 
Q 2884 3475 3122 3366 
z
" transform="scale(0.015625)"/>
      <path id="DejaVuSans-74" d="M 1172 4494 
L 1172 3500 
L 2356 3500 
L 2356 3053 
L 1172 3053 
L 1172 1153 
Q 1172 725 1289 603 
Q 1406 481 1766 481 
L 2356 481 
L 2356 0 
L 1766 0 
Q 1100 0 847 248 
Q 594 497 594 1153 
L 594 3053 
L 172 3053 
L 172 3500 
L 594 3500 
L 594 4494 
L 1172 4494 
z
" transform="scale(0.015625)"/>
      <path id="DejaVuSans-67" d="M 2906 1791 
Q 2906 2416 2648 2759 
Q 2391 3103 1925 3103 
Q 1463 3103 1205 2759 
Q 947 2416 947 1791 
Q 947 1169 1205 825 
Q 1463 481 1925 481 
Q 2391 481 2648 825 
Q 2906 1169 2906 1791 
z
M 3481 434 
Q 3481 -459 3084 -895 
Q 2688 -1331 1869 -1331 
Q 1566 -1331 1297 -1286 
Q 1028 -1241 775 -1147 
L 775 -588 
Q 1028 -725 1275 -790 
Q 1522 -856 1778 -856 
Q 2344 -856 2625 -561 
Q 2906 -266 2906 331 
L 2906 616 
Q 2728 306 2450 153 
Q 2172 0 1784 0 
Q 1141 0 747 490 
Q 353 981 353 1791 
Q 353 2603 747 3093 
Q 1141 3584 1784 3584 
Q 2172 3584 2450 3431 
Q 2728 3278 2906 2969 
L 2906 3500 
L 3481 3500 
L 3481 434 
z
" transform="scale(0.015625)"/>
     </defs>
     <use xlink:href="#DejaVuSans-44"/>
     <use xlink:href="#DejaVuSans-61" x="77.001953"/>
     <use xlink:href="#DejaVuSans-69" x="138.28125"/>
     <use xlink:href="#DejaVuSans-6c" x="166.064453"/>
     <use xlink:href="#DejaVuSans-79" x="193.847656"/>
     <use xlink:href="#DejaVuSans-20" x="253.027344"/>
     <use xlink:href="#DejaVuSans-43" x="284.814453"/>
     <use xlink:href="#DejaVuSans-6f" x="354.638672"/>
     <use xlink:href="#DejaVuSans-6e" x="415.820312"/>
     <use xlink:href="#DejaVuSans-66" x="479.199219"/>
     <use xlink:href="#DejaVuSans-69" x="514.404297"/>
     <use xlink:href="#DejaVuSans-72" x="542.1875"/>
     <use xlink:href="#DejaVuSans-6d" x="581.550781"/>
     <use xlink:href="#DejaVuSans-65" x="678.962891"/>
     <use xlink:href="#DejaVuSans-64" x="740.486328"/>
     <use xlink:href="#DejaVuSans-20" x="803.962891"/>
     <use xlink:href="#DejaVuSans-43" x="835.75"/>
     <use xlink:href="#DejaVuSans-61" x="905.574219"/>
     <use xlink:href="#DejaVuSans-73" x="966.853516"/>
     <use xlink:href="#DejaVuSans-65" x="1018.953125"/>
     <use xlink:href="#DejaVuSans-73" x="1080.476562"/>
     <use xlink:href="#DejaVuSans-20" x="1132.576172"/>
     <use xlink:href="#DejaVuSans-46" x="1164.363281"/>
     <use xlink:href="#DejaVuSans-6f" x="1218.257812"/>
     <use xlink:href="#DejaVuSans-72" x="1279.439453"/>
     <use xlink:href="#DejaVuSans-65" x="1318.302734"/>
     <use xlink:href="#DejaVuSans-63" x="1379.826172"/>
     <use xlink:href="#DejaVuSans-61" x="1434.806641"/>
     <use xlink:href="#DejaVuSans-73" x="1496.085938"/>
     <use xlink:href="#DejaVuSans-74" x="1548.185547"/>
     <use xlink:href="#DejaVuSans-69" x="1587.394531"/>
     <use xlink:href="#DejaVuSans-6e" x="1615.177734"/>
     <use xlink:href="#DejaVuSans-67" x="1678.556641"/>
     <use xlink:href="#DejaVuSans-20" x="1742.033203"/>
     <use xlink:href="#DejaVuSans-2d" x="1773.820312"/>
     <use xlink:href="#DejaVuSans-20" x="1809.904297"/>
     <use xlink:href="#DejaVuSans-46" x="1841.691406"/>
     <use xlink:href="#DejaVuSans-6c" x="1899.210938"/>
     <use xlink:href="#DejaVuSans-6f" x="1926.994141"/>
     <use xlink:href="#DejaVuSans-72" x="1988.175781"/>
     <use xlink:href="#DejaVuSans-69" x="2029.289062"/>
     <use xlink:href="#DejaVuSans-64" x="2057.072266"/>
     <use xlink:href="#DejaVuSans-61" x="2120.548828"/>
    </g>
    <!-- ARIMA (0, 1, 1)x(1, 0, 0, 7) (R2 = 0.171999) -->
    <g transform="translate(589.990937 29.7555)scale(0.12 -0.12)">
     <defs>
      <path id="DejaVuSans-41" d="M 2188 4044 
L 1331 1722 
L 3047 1722 
L 2188 4044 
z
M 1831 4666 
L 2547 4666 
L 4325 0 
L 3669 0 
L 3244 1197 
L 1141 1197 
L 716 0 
L 50 0 
L 1831 4666 
z
" transform="scale(0.015625)"/>
      <path id="DejaVuSans-52" d="M 2841 2188 
Q 3044 2119 3236 1894 
Q 3428 1669 3622 1275 
L 4263 0 
L 3584 0 
L 2988 1197 
Q 2756 1666 2539 1819 
Q 2322 1972 1947 1972 
L 1259 1972 
L 1259 0 
L 628 0 
L 628 4666 
L 2053 4666 
Q 2853 4666 3247 4331 
Q 3641 3997 3641 3322 
Q 3641 2881 3436 2590 
Q 3231 2300 2841 2188 
z
M 1259 4147 
L 1259 2491 
L 2053 2491 
Q 2509 2491 2742 2702 
Q 2975 2913 2975 3322 
Q 2975 3731 2742 3939 
Q 2509 4147 2053 4147 
L 1259 4147 
z
" transform="scale(0.015625)"/>
      <path id="DejaVuSans-49" d="M 628 4666 
L 1259 4666 
L 1259 0 
L 628 0 
L 628 4666 
z
" transform="scale(0.015625)"/>
      <path id="DejaVuSans-4d" d="M 628 4666 
L 1569 4666 
L 2759 1491 
L 3956 4666 
L 4897 4666 
L 4897 0 
L 4281 0 
L 4281 4097 
L 3078 897 
L 2444 897 
L 1241 4097 
L 1241 0 
L 628 0 
L 628 4666 
z
" transform="scale(0.015625)"/>
      <path id="DejaVuSans-28" d="M 1984 4856 
Q 1566 4138 1362 3434 
Q 1159 2731 1159 2009 
Q 1159 1288 1364 580 
Q 1569 -128 1984 -844 
L 1484 -844 
Q 1016 -109 783 600 
Q 550 1309 550 2009 
Q 550 2706 781 3412 
Q 1013 4119 1484 4856 
L 1984 4856 
z
" transform="scale(0.015625)"/>
      <path id="DejaVuSans-2c" d="M 750 794 
L 1409 794 
L 1409 256 
L 897 -744 
L 494 -744 
L 750 256 
L 750 794 
z
" transform="scale(0.015625)"/>
      <path id="DejaVuSans-29" d="M 513 4856 
L 1013 4856 
Q 1481 4119 1714 3412 
Q 1947 2706 1947 2009 
Q 1947 1309 1714 600 
Q 1481 -109 1013 -844 
L 513 -844 
Q 928 -128 1133 580 
Q 1338 1288 1338 2009 
Q 1338 2731 1133 3434 
Q 928 4138 513 4856 
z
" transform="scale(0.015625)"/>
      <path id="DejaVuSans-78" d="M 3513 3500 
L 2247 1797 
L 3578 0 
L 2900 0 
L 1881 1375 
L 863 0 
L 184 0 
L 1544 1831 
L 300 3500 
L 978 3500 
L 1906 2253 
L 2834 3500 
L 3513 3500 
z
" transform="scale(0.015625)"/>
      <path id="DejaVuSans-3d" d="M 678 2906 
L 4684 2906 
L 4684 2381 
L 678 2381 
L 678 2906 
z
M 678 1631 
L 4684 1631 
L 4684 1100 
L 678 1100 
L 678 1631 
z
" transform="scale(0.015625)"/>
      <path id="DejaVuSans-2e" d="M 684 794 
L 1344 794 
L 1344 0 
L 684 0 
L 684 794 
z
" transform="scale(0.015625)"/>
      <path id="DejaVuSans-39" d="M 703 97 
L 703 672 
Q 941 559 1184 500 
Q 1428 441 1663 441 
Q 2288 441 2617 861 
Q 2947 1281 2994 2138 
Q 2813 1869 2534 1725 
Q 2256 1581 1919 1581 
Q 1219 1581 811 2004 
Q 403 2428 403 3163 
Q 403 3881 828 4315 
Q 1253 4750 1959 4750 
Q 2769 4750 3195 4129 
Q 3622 3509 3622 2328 
Q 3622 1225 3098 567 
Q 2575 -91 1691 -91 
Q 1453 -91 1209 -44 
Q 966 3 703 97 
z
M 1959 2075 
Q 2384 2075 2632 2365 
Q 2881 2656 2881 3163 
Q 2881 3666 2632 3958 
Q 2384 4250 1959 4250 
Q 1534 4250 1286 3958 
Q 1038 3666 1038 3163 
Q 1038 2656 1286 2365 
Q 1534 2075 1959 2075 
z
" transform="scale(0.015625)"/>
     </defs>
     <use xlink:href="#DejaVuSans-41"/>
     <use xlink:href="#DejaVuSans-52" x="68.408203"/>
     <use xlink:href="#DejaVuSans-49" x="137.890625"/>
     <use xlink:href="#DejaVuSans-4d" x="167.382812"/>
     <use xlink:href="#DejaVuSans-41" x="253.662109"/>
     <use xlink:href="#DejaVuSans-20" x="322.070312"/>
     <use xlink:href="#DejaVuSans-28" x="353.857422"/>
     <use xlink:href="#DejaVuSans-30" x="392.871094"/>
     <use xlink:href="#DejaVuSans-2c" x="456.494141"/>
     <use xlink:href="#DejaVuSans-20" x="488.28125"/>
     <use xlink:href="#DejaVuSans-31" x="520.068359"/>
     <use xlink:href="#DejaVuSans-2c" x="583.691406"/>
     <use xlink:href="#DejaVuSans-20" x="615.478516"/>
     <use xlink:href="#DejaVuSans-31" x="647.265625"/>
     <use xlink:href="#DejaVuSans-29" x="710.888672"/>
     <use xlink:href="#DejaVuSans-78" x="749.902344"/>
     <use xlink:href="#DejaVuSans-28" x="809.082031"/>
     <use xlink:href="#DejaVuSans-31" x="848.095703"/>
     <use xlink:href="#DejaVuSans-2c" x="911.71875"/>
     <use xlink:href="#DejaVuSans-20" x="943.505859"/>
     <use xlink:href="#DejaVuSans-30" x="975.292969"/>
     <use xlink:href="#DejaVuSans-2c" x="1038.916016"/>
     <use xlink:href="#DejaVuSans-20" x="1070.703125"/>
     <use xlink:href="#DejaVuSans-30" x="1102.490234"/>
     <use xlink:href="#DejaVuSans-2c" x="1166.113281"/>
     <use xlink:href="#DejaVuSans-20" x="1197.900391"/>
     <use xlink:href="#DejaVuSans-37" x="1229.6875"/>
     <use xlink:href="#DejaVuSans-29" x="1293.310547"/>
     <use xlink:href="#DejaVuSans-20" x="1332.324219"/>
     <use xlink:href="#DejaVuSans-28" x="1364.111328"/>
     <use xlink:href="#DejaVuSans-52" x="1403.125"/>
     <use xlink:href="#DejaVuSans-32" x="1472.607422"/>
     <use xlink:href="#DejaVuSans-20" x="1536.230469"/>
     <use xlink:href="#DejaVuSans-3d" x="1568.017578"/>
     <use xlink:href="#DejaVuSans-20" x="1651.806641"/>
     <use xlink:href="#DejaVuSans-30" x="1683.59375"/>
     <use xlink:href="#DejaVuSans-2e" x="1747.216797"/>
     <use xlink:href="#DejaVuSans-31" x="1779.003906"/>
     <use xlink:href="#DejaVuSans-37" x="1842.626953"/>
     <use xlink:href="#DejaVuSans-31" x="1906.25"/>
     <use xlink:href="#DejaVuSans-39" x="1969.873047"/>
     <use xlink:href="#DejaVuSans-39" x="2033.496094"/>
     <use xlink:href="#DejaVuSans-39" x="2097.119141"/>
     <use xlink:href="#DejaVuSans-29" x="2160.742188"/>
    </g>
   </g>
   <g id="legend_1">
    <g id="patch_7">
     <path d="M 1287.495312 87.789875 
L 1384.575 87.789875 
Q 1386.575 87.789875 1386.575 85.789875 
L 1386.575 42.7555 
Q 1386.575 40.7555 1384.575 40.7555 
L 1287.495312 40.7555 
Q 1285.495312 40.7555 1285.495312 42.7555 
L 1285.495312 85.789875 
Q 1285.495312 87.789875 1287.495312 87.789875 
z
" style="fill: #ffffff; opacity: 0.8; stroke: #cccccc; stroke-linejoin: miter"/>
    </g>
    <g id="line2d_23">
     <path d="M 1289.495312 48.853937 
L 1299.495312 48.853937 
L 1309.495312 48.853937 
" style="fill: none; stroke: #0000ff; stroke-width: 1.5; stroke-linecap: square"/>
    </g>
    <g id="text_21">
     <!-- Actual Value -->
     <g transform="translate(1317.495312 52.353937)scale(0.1 -0.1)">
      <defs>
       <path id="DejaVuSans-75" d="M 544 1381 
L 544 3500 
L 1119 3500 
L 1119 1403 
Q 1119 906 1312 657 
Q 1506 409 1894 409 
Q 2359 409 2629 706 
Q 2900 1003 2900 1516 
L 2900 3500 
L 3475 3500 
L 3475 0 
L 2900 0 
L 2900 538 
Q 2691 219 2414 64 
Q 2138 -91 1772 -91 
Q 1169 -91 856 284 
Q 544 659 544 1381 
z
M 1991 3584 
L 1991 3584 
z
" transform="scale(0.015625)"/>
       <path id="DejaVuSans-56" d="M 1831 0 
L 50 4666 
L 709 4666 
L 2188 738 
L 3669 4666 
L 4325 4666 
L 2547 0 
L 1831 0 
z
" transform="scale(0.015625)"/>
      </defs>
      <use xlink:href="#DejaVuSans-41"/>
      <use xlink:href="#DejaVuSans-63" x="66.658203"/>
      <use xlink:href="#DejaVuSans-74" x="121.638672"/>
      <use xlink:href="#DejaVuSans-75" x="160.847656"/>
      <use xlink:href="#DejaVuSans-61" x="224.226562"/>
      <use xlink:href="#DejaVuSans-6c" x="285.505859"/>
      <use xlink:href="#DejaVuSans-20" x="313.289062"/>
      <use xlink:href="#DejaVuSans-56" x="345.076172"/>
      <use xlink:href="#DejaVuSans-61" x="405.734375"/>
      <use xlink:href="#DejaVuSans-6c" x="467.013672"/>
      <use xlink:href="#DejaVuSans-75" x="494.796875"/>
      <use xlink:href="#DejaVuSans-65" x="558.175781"/>
     </g>
    </g>
    <g id="line2d_24">
     <path d="M 1289.495312 63.532062 
L 1299.495312 63.532062 
L 1309.495312 63.532062 
" style="fill: none; stroke: #ffa500; stroke-width: 1.5; stroke-linecap: square"/>
    </g>
    <g id="text_22">
     <!-- Check Value -->
     <g transform="translate(1317.495312 67.032062)scale(0.1 -0.1)">
      <defs>
       <path id="DejaVuSans-68" d="M 3513 2113 
L 3513 0 
L 2938 0 
L 2938 2094 
Q 2938 2591 2744 2837 
Q 2550 3084 2163 3084 
Q 1697 3084 1428 2787 
Q 1159 2491 1159 1978 
L 1159 0 
L 581 0 
L 581 4863 
L 1159 4863 
L 1159 2956 
Q 1366 3272 1645 3428 
Q 1925 3584 2291 3584 
Q 2894 3584 3203 3211 
Q 3513 2838 3513 2113 
z
" transform="scale(0.015625)"/>
       <path id="DejaVuSans-6b" d="M 581 4863 
L 1159 4863 
L 1159 1991 
L 2875 3500 
L 3609 3500 
L 1753 1863 
L 3688 0 
L 2938 0 
L 1159 1709 
L 1159 0 
L 581 0 
L 581 4863 
z
" transform="scale(0.015625)"/>
      </defs>
      <use xlink:href="#DejaVuSans-43"/>
      <use xlink:href="#DejaVuSans-68" x="69.824219"/>
      <use xlink:href="#DejaVuSans-65" x="133.203125"/>
      <use xlink:href="#DejaVuSans-63" x="194.726562"/>
      <use xlink:href="#DejaVuSans-6b" x="249.707031"/>
      <use xlink:href="#DejaVuSans-20" x="307.617188"/>
      <use xlink:href="#DejaVuSans-56" x="339.404297"/>
      <use xlink:href="#DejaVuSans-61" x="400.0625"/>
      <use xlink:href="#DejaVuSans-6c" x="461.341797"/>
      <use xlink:href="#DejaVuSans-75" x="489.125"/>
      <use xlink:href="#DejaVuSans-65" x="552.503906"/>
     </g>
    </g>
    <g id="line2d_25">
     <path d="M 1289.495312 78.210187 
L 1299.495312 78.210187 
L 1309.495312 78.210187 
" style="fill: none; stroke: #ff0000; stroke-width: 1.5; stroke-linecap: square"/>
    </g>
    <g id="text_23">
     <!-- Predict Value -->
     <g transform="translate(1317.495312 81.710187)scale(0.1 -0.1)">
      <defs>
       <path id="DejaVuSans-50" d="M 1259 4147 
L 1259 2394 
L 2053 2394 
Q 2494 2394 2734 2622 
Q 2975 2850 2975 3272 
Q 2975 3691 2734 3919 
Q 2494 4147 2053 4147 
L 1259 4147 
z
M 628 4666 
L 2053 4666 
Q 2838 4666 3239 4311 
Q 3641 3956 3641 3272 
Q 3641 2581 3239 2228 
Q 2838 1875 2053 1875 
L 1259 1875 
L 1259 0 
L 628 0 
L 628 4666 
z
" transform="scale(0.015625)"/>
      </defs>
      <use xlink:href="#DejaVuSans-50"/>
      <use xlink:href="#DejaVuSans-72" x="58.552734"/>
      <use xlink:href="#DejaVuSans-65" x="97.416016"/>
      <use xlink:href="#DejaVuSans-64" x="158.939453"/>
      <use xlink:href="#DejaVuSans-69" x="222.416016"/>
      <use xlink:href="#DejaVuSans-63" x="250.199219"/>
      <use xlink:href="#DejaVuSans-74" x="305.179688"/>
      <use xlink:href="#DejaVuSans-20" x="344.388672"/>
      <use xlink:href="#DejaVuSans-56" x="376.175781"/>
      <use xlink:href="#DejaVuSans-61" x="436.833984"/>
      <use xlink:href="#DejaVuSans-6c" x="498.113281"/>
      <use xlink:href="#DejaVuSans-75" x="525.896484"/>
      <use xlink:href="#DejaVuSans-65" x="589.275391"/>
     </g>
    </g>
   </g>
  </g>
 </g>
 <defs>
  <clipPath id="p103b8e4612">
   <rect x="52.375" y="35.7555" width="1339.2" height="332.64"/>
  </clipPath>
 </defs>
</svg>
