<?xml version="1.0" encoding="utf-8" standalone="no"?>
<!DOCTYPE svg PUBLIC "-//W3C//DTD SVG 1.1//EN"
  "http://www.w3.org/Graphics/SVG/1.1/DTD/svg11.dtd">
<svg xmlns:xlink="http://www.w3.org/1999/xlink" width="1386.05pt" height="392.273625pt" viewBox="0 0 1386.05 392.273625" xmlns="http://www.w3.org/2000/svg" version="1.1">
 <metadata>
  <rdf:RDF xmlns:dc="http://purl.org/dc/elements/1.1/" xmlns:cc="http://creativecommons.org/ns#" xmlns:rdf="http://www.w3.org/1999/02/22-rdf-syntax-ns#">
   <cc:Work>
    <dc:type rdf:resource="http://purl.org/dc/dcmitype/StillImage"/>
    <dc:date>2022-07-20T17:38:25.605709</dc:date>
    <dc:format>image/svg+xml</dc:format>
    <dc:creator>
     <cc:Agent>
      <dc:title>Matplotlib v3.5.2, https://matplotlib.org/</dc:title>
     </cc:Agent>
    </dc:creator>
   </cc:Work>
  </rdf:RDF>
 </metadata>
 <defs>
  <style type="text/css">*{stroke-linejoin: round; stroke-linecap: butt}</style>
 </defs>
 <g id="figure_1">
  <g id="patch_1">
   <path d="M 0 392.273625 
L 1386.05 392.273625 
L 1386.05 0 
L 0 0 
z
" style="fill: #ffffff"/>
  </g>
  <g id="axes_1">
   <g id="patch_2">
    <path d="M 39.65 368.3955 
L 1378.85 368.3955 
L 1378.85 35.7555 
L 39.65 35.7555 
z
" style="fill: #ffffff"/>
   </g>
   <g id="matplotlib.axis_1">
    <g id="xtick_1">
     <g id="line2d_1">
      <defs>
       <path id="md09ae26125" d="M 0 0 
L 0 3.5 
" style="stroke: #000000; stroke-width: 0.8"/>
      </defs>
      <g>
       <use xlink:href="#md09ae26125" x="71.441294" y="368.3955" style="stroke: #000000; stroke-width: 0.8"/>
      </g>
     </g>
     <g id="text_1">
      <!-- 2020-01 -->
      <g transform="translate(50.549888 382.993937)scale(0.1 -0.1)">
       <defs>
        <path id="DejaVuSans-32" d="M 1228 531 
L 3431 531 
L 3431 0 
L 469 0 
L 469 531 
Q 828 903 1448 1529 
Q 2069 2156 2228 2338 
Q 2531 2678 2651 2914 
Q 2772 3150 2772 3378 
Q 2772 3750 2511 3984 
Q 2250 4219 1831 4219 
Q 1534 4219 1204 4116 
Q 875 4013 500 3803 
L 500 4441 
Q 881 4594 1212 4672 
Q 1544 4750 1819 4750 
Q 2544 4750 2975 4387 
Q 3406 4025 3406 3419 
Q 3406 3131 3298 2873 
Q 3191 2616 2906 2266 
Q 2828 2175 2409 1742 
Q 1991 1309 1228 531 
z
" transform="scale(0.015625)"/>
        <path id="DejaVuSans-30" d="M 2034 4250 
Q 1547 4250 1301 3770 
Q 1056 3291 1056 2328 
Q 1056 1369 1301 889 
Q 1547 409 2034 409 
Q 2525 409 2770 889 
Q 3016 1369 3016 2328 
Q 3016 3291 2770 3770 
Q 2525 4250 2034 4250 
z
M 2034 4750 
Q 2819 4750 3233 4129 
Q 3647 3509 3647 2328 
Q 3647 1150 3233 529 
Q 2819 -91 2034 -91 
Q 1250 -91 836 529 
Q 422 1150 422 2328 
Q 422 3509 836 4129 
Q 1250 4750 2034 4750 
z
" transform="scale(0.015625)"/>
        <path id="DejaVuSans-2d" d="M 313 2009 
L 1997 2009 
L 1997 1497 
L 313 1497 
L 313 2009 
z
" transform="scale(0.015625)"/>
        <path id="DejaVuSans-31" d="M 794 531 
L 1825 531 
L 1825 4091 
L 703 3866 
L 703 4441 
L 1819 4666 
L 2450 4666 
L 2450 531 
L 3481 531 
L 3481 0 
L 794 0 
L 794 531 
z
" transform="scale(0.015625)"/>
       </defs>
       <use xlink:href="#DejaVuSans-32"/>
       <use xlink:href="#DejaVuSans-30" x="63.623047"/>
       <use xlink:href="#DejaVuSans-32" x="127.246094"/>
       <use xlink:href="#DejaVuSans-30" x="190.869141"/>
       <use xlink:href="#DejaVuSans-2d" x="254.492188"/>
       <use xlink:href="#DejaVuSans-30" x="290.576172"/>
       <use xlink:href="#DejaVuSans-31" x="354.199219"/>
      </g>
     </g>
    </g>
    <g id="xtick_2">
     <g id="line2d_2">
      <g>
       <use xlink:href="#md09ae26125" x="191.732677" y="368.3955" style="stroke: #000000; stroke-width: 0.8"/>
      </g>
     </g>
     <g id="text_2">
      <!-- 2020-04 -->
      <g transform="translate(170.841271 382.993937)scale(0.1 -0.1)">
       <defs>
        <path id="DejaVuSans-34" d="M 2419 4116 
L 825 1625 
L 2419 1625 
L 2419 4116 
z
M 2253 4666 
L 3047 4666 
L 3047 1625 
L 3713 1625 
L 3713 1100 
L 3047 1100 
L 3047 0 
L 2419 0 
L 2419 1100 
L 313 1100 
L 313 1709 
L 2253 4666 
z
" transform="scale(0.015625)"/>
       </defs>
       <use xlink:href="#DejaVuSans-32"/>
       <use xlink:href="#DejaVuSans-30" x="63.623047"/>
       <use xlink:href="#DejaVuSans-32" x="127.246094"/>
       <use xlink:href="#DejaVuSans-30" x="190.869141"/>
       <use xlink:href="#DejaVuSans-2d" x="254.492188"/>
       <use xlink:href="#DejaVuSans-30" x="290.576172"/>
       <use xlink:href="#DejaVuSans-34" x="354.199219"/>
      </g>
     </g>
    </g>
    <g id="xtick_3">
     <g id="line2d_3">
      <g>
       <use xlink:href="#md09ae26125" x="312.02406" y="368.3955" style="stroke: #000000; stroke-width: 0.8"/>
      </g>
     </g>
     <g id="text_3">
      <!-- 2020-07 -->
      <g transform="translate(291.132654 382.993937)scale(0.1 -0.1)">
       <defs>
        <path id="DejaVuSans-37" d="M 525 4666 
L 3525 4666 
L 3525 4397 
L 1831 0 
L 1172 0 
L 2766 4134 
L 525 4134 
L 525 4666 
z
" transform="scale(0.015625)"/>
       </defs>
       <use xlink:href="#DejaVuSans-32"/>
       <use xlink:href="#DejaVuSans-30" x="63.623047"/>
       <use xlink:href="#DejaVuSans-32" x="127.246094"/>
       <use xlink:href="#DejaVuSans-30" x="190.869141"/>
       <use xlink:href="#DejaVuSans-2d" x="254.492188"/>
       <use xlink:href="#DejaVuSans-30" x="290.576172"/>
       <use xlink:href="#DejaVuSans-37" x="354.199219"/>
      </g>
     </g>
    </g>
    <g id="xtick_4">
     <g id="line2d_4">
      <g>
       <use xlink:href="#md09ae26125" x="433.637326" y="368.3955" style="stroke: #000000; stroke-width: 0.8"/>
      </g>
     </g>
     <g id="text_4">
      <!-- 2020-10 -->
      <g transform="translate(412.74592 382.993937)scale(0.1 -0.1)">
       <use xlink:href="#DejaVuSans-32"/>
       <use xlink:href="#DejaVuSans-30" x="63.623047"/>
       <use xlink:href="#DejaVuSans-32" x="127.246094"/>
       <use xlink:href="#DejaVuSans-30" x="190.869141"/>
       <use xlink:href="#DejaVuSans-2d" x="254.492188"/>
       <use xlink:href="#DejaVuSans-31" x="290.576172"/>
       <use xlink:href="#DejaVuSans-30" x="354.199219"/>
      </g>
     </g>
    </g>
    <g id="xtick_5">
     <g id="line2d_5">
      <g>
       <use xlink:href="#md09ae26125" x="555.250592" y="368.3955" style="stroke: #000000; stroke-width: 0.8"/>
      </g>
     </g>
     <g id="text_5">
      <!-- 2021-01 -->
      <g transform="translate(534.359186 382.993937)scale(0.1 -0.1)">
       <use xlink:href="#DejaVuSans-32"/>
       <use xlink:href="#DejaVuSans-30" x="63.623047"/>
       <use xlink:href="#DejaVuSans-32" x="127.246094"/>
       <use xlink:href="#DejaVuSans-31" x="190.869141"/>
       <use xlink:href="#DejaVuSans-2d" x="254.492188"/>
       <use xlink:href="#DejaVuSans-30" x="290.576172"/>
       <use xlink:href="#DejaVuSans-31" x="354.199219"/>
      </g>
     </g>
    </g>
    <g id="xtick_6">
     <g id="line2d_6">
      <g>
       <use xlink:href="#md09ae26125" x="674.220092" y="368.3955" style="stroke: #000000; stroke-width: 0.8"/>
      </g>
     </g>
     <g id="text_6">
      <!-- 2021-04 -->
      <g transform="translate(653.328686 382.993937)scale(0.1 -0.1)">
       <use xlink:href="#DejaVuSans-32"/>
       <use xlink:href="#DejaVuSans-30" x="63.623047"/>
       <use xlink:href="#DejaVuSans-32" x="127.246094"/>
       <use xlink:href="#DejaVuSans-31" x="190.869141"/>
       <use xlink:href="#DejaVuSans-2d" x="254.492188"/>
       <use xlink:href="#DejaVuSans-30" x="290.576172"/>
       <use xlink:href="#DejaVuSans-34" x="354.199219"/>
      </g>
     </g>
    </g>
    <g id="xtick_7">
     <g id="line2d_7">
      <g>
       <use xlink:href="#md09ae26125" x="794.511475" y="368.3955" style="stroke: #000000; stroke-width: 0.8"/>
      </g>
     </g>
     <g id="text_7">
      <!-- 2021-07 -->
      <g transform="translate(773.620068 382.993937)scale(0.1 -0.1)">
       <use xlink:href="#DejaVuSans-32"/>
       <use xlink:href="#DejaVuSans-30" x="63.623047"/>
       <use xlink:href="#DejaVuSans-32" x="127.246094"/>
       <use xlink:href="#DejaVuSans-31" x="190.869141"/>
       <use xlink:href="#DejaVuSans-2d" x="254.492188"/>
       <use xlink:href="#DejaVuSans-30" x="290.576172"/>
       <use xlink:href="#DejaVuSans-37" x="354.199219"/>
      </g>
     </g>
    </g>
    <g id="xtick_8">
     <g id="line2d_8">
      <g>
       <use xlink:href="#md09ae26125" x="916.124741" y="368.3955" style="stroke: #000000; stroke-width: 0.8"/>
      </g>
     </g>
     <g id="text_8">
      <!-- 2021-10 -->
      <g transform="translate(895.233335 382.993937)scale(0.1 -0.1)">
       <use xlink:href="#DejaVuSans-32"/>
       <use xlink:href="#DejaVuSans-30" x="63.623047"/>
       <use xlink:href="#DejaVuSans-32" x="127.246094"/>
       <use xlink:href="#DejaVuSans-31" x="190.869141"/>
       <use xlink:href="#DejaVuSans-2d" x="254.492188"/>
       <use xlink:href="#DejaVuSans-31" x="290.576172"/>
       <use xlink:href="#DejaVuSans-30" x="354.199219"/>
      </g>
     </g>
    </g>
    <g id="xtick_9">
     <g id="line2d_9">
      <g>
       <use xlink:href="#md09ae26125" x="1037.738007" y="368.3955" style="stroke: #000000; stroke-width: 0.8"/>
      </g>
     </g>
     <g id="text_9">
      <!-- 2022-01 -->
      <g transform="translate(1016.846601 382.993937)scale(0.1 -0.1)">
       <use xlink:href="#DejaVuSans-32"/>
       <use xlink:href="#DejaVuSans-30" x="63.623047"/>
       <use xlink:href="#DejaVuSans-32" x="127.246094"/>
       <use xlink:href="#DejaVuSans-32" x="190.869141"/>
       <use xlink:href="#DejaVuSans-2d" x="254.492188"/>
       <use xlink:href="#DejaVuSans-30" x="290.576172"/>
       <use xlink:href="#DejaVuSans-31" x="354.199219"/>
      </g>
     </g>
    </g>
    <g id="xtick_10">
     <g id="line2d_10">
      <g>
       <use xlink:href="#md09ae26125" x="1156.707507" y="368.3955" style="stroke: #000000; stroke-width: 0.8"/>
      </g>
     </g>
     <g id="text_10">
      <!-- 2022-04 -->
      <g transform="translate(1135.8161 382.993937)scale(0.1 -0.1)">
       <use xlink:href="#DejaVuSans-32"/>
       <use xlink:href="#DejaVuSans-30" x="63.623047"/>
       <use xlink:href="#DejaVuSans-32" x="127.246094"/>
       <use xlink:href="#DejaVuSans-32" x="190.869141"/>
       <use xlink:href="#DejaVuSans-2d" x="254.492188"/>
       <use xlink:href="#DejaVuSans-30" x="290.576172"/>
       <use xlink:href="#DejaVuSans-34" x="354.199219"/>
      </g>
     </g>
    </g>
    <g id="xtick_11">
     <g id="line2d_11">
      <g>
       <use xlink:href="#md09ae26125" x="1276.99889" y="368.3955" style="stroke: #000000; stroke-width: 0.8"/>
      </g>
     </g>
     <g id="text_11">
      <!-- 2022-07 -->
      <g transform="translate(1256.107483 382.993937)scale(0.1 -0.1)">
       <use xlink:href="#DejaVuSans-32"/>
       <use xlink:href="#DejaVuSans-30" x="63.623047"/>
       <use xlink:href="#DejaVuSans-32" x="127.246094"/>
       <use xlink:href="#DejaVuSans-32" x="190.869141"/>
       <use xlink:href="#DejaVuSans-2d" x="254.492188"/>
       <use xlink:href="#DejaVuSans-30" x="290.576172"/>
       <use xlink:href="#DejaVuSans-37" x="354.199219"/>
      </g>
     </g>
    </g>
   </g>
   <g id="matplotlib.axis_2">
    <g id="ytick_1">
     <g id="line2d_12">
      <defs>
       <path id="m4acc0893b8" d="M 0 0 
L -3.5 0 
" style="stroke: #000000; stroke-width: 0.8"/>
      </defs>
      <g>
       <use xlink:href="#m4acc0893b8" x="39.65" y="331.370881" style="stroke: #000000; stroke-width: 0.8"/>
      </g>
     </g>
     <g id="text_12">
      <!-- 0 -->
      <g transform="translate(26.2875 335.170099)scale(0.1 -0.1)">
       <use xlink:href="#DejaVuSans-30"/>
      </g>
     </g>
    </g>
    <g id="ytick_2">
     <g id="line2d_13">
      <g>
       <use xlink:href="#m4acc0893b8" x="39.65" y="275.283022" style="stroke: #000000; stroke-width: 0.8"/>
      </g>
     </g>
     <g id="text_13">
      <!-- 1000 -->
      <g transform="translate(7.2 279.082241)scale(0.1 -0.1)">
       <use xlink:href="#DejaVuSans-31"/>
       <use xlink:href="#DejaVuSans-30" x="63.623047"/>
       <use xlink:href="#DejaVuSans-30" x="127.246094"/>
       <use xlink:href="#DejaVuSans-30" x="190.869141"/>
      </g>
     </g>
    </g>
    <g id="ytick_3">
     <g id="line2d_14">
      <g>
       <use xlink:href="#m4acc0893b8" x="39.65" y="219.195163" style="stroke: #000000; stroke-width: 0.8"/>
      </g>
     </g>
     <g id="text_14">
      <!-- 2000 -->
      <g transform="translate(7.2 222.994382)scale(0.1 -0.1)">
       <use xlink:href="#DejaVuSans-32"/>
       <use xlink:href="#DejaVuSans-30" x="63.623047"/>
       <use xlink:href="#DejaVuSans-30" x="127.246094"/>
       <use xlink:href="#DejaVuSans-30" x="190.869141"/>
      </g>
     </g>
    </g>
    <g id="ytick_4">
     <g id="line2d_15">
      <g>
       <use xlink:href="#m4acc0893b8" x="39.65" y="163.107305" style="stroke: #000000; stroke-width: 0.8"/>
      </g>
     </g>
     <g id="text_15">
      <!-- 3000 -->
      <g transform="translate(7.2 166.906524)scale(0.1 -0.1)">
       <defs>
        <path id="DejaVuSans-33" d="M 2597 2516 
Q 3050 2419 3304 2112 
Q 3559 1806 3559 1356 
Q 3559 666 3084 287 
Q 2609 -91 1734 -91 
Q 1441 -91 1130 -33 
Q 819 25 488 141 
L 488 750 
Q 750 597 1062 519 
Q 1375 441 1716 441 
Q 2309 441 2620 675 
Q 2931 909 2931 1356 
Q 2931 1769 2642 2001 
Q 2353 2234 1838 2234 
L 1294 2234 
L 1294 2753 
L 1863 2753 
Q 2328 2753 2575 2939 
Q 2822 3125 2822 3475 
Q 2822 3834 2567 4026 
Q 2313 4219 1838 4219 
Q 1578 4219 1281 4162 
Q 984 4106 628 3988 
L 628 4550 
Q 988 4650 1302 4700 
Q 1616 4750 1894 4750 
Q 2613 4750 3031 4423 
Q 3450 4097 3450 3541 
Q 3450 3153 3228 2886 
Q 3006 2619 2597 2516 
z
" transform="scale(0.015625)"/>
       </defs>
       <use xlink:href="#DejaVuSans-33"/>
       <use xlink:href="#DejaVuSans-30" x="63.623047"/>
       <use xlink:href="#DejaVuSans-30" x="127.246094"/>
       <use xlink:href="#DejaVuSans-30" x="190.869141"/>
      </g>
     </g>
    </g>
    <g id="ytick_5">
     <g id="line2d_16">
      <g>
       <use xlink:href="#m4acc0893b8" x="39.65" y="107.019446" style="stroke: #000000; stroke-width: 0.8"/>
      </g>
     </g>
     <g id="text_16">
      <!-- 4000 -->
      <g transform="translate(7.2 110.818665)scale(0.1 -0.1)">
       <use xlink:href="#DejaVuSans-34"/>
       <use xlink:href="#DejaVuSans-30" x="63.623047"/>
       <use xlink:href="#DejaVuSans-30" x="127.246094"/>
       <use xlink:href="#DejaVuSans-30" x="190.869141"/>
      </g>
     </g>
    </g>
    <g id="ytick_6">
     <g id="line2d_17">
      <g>
       <use xlink:href="#m4acc0893b8" x="39.65" y="50.931588" style="stroke: #000000; stroke-width: 0.8"/>
      </g>
     </g>
     <g id="text_17">
      <!-- 5000 -->
      <g transform="translate(7.2 54.730807)scale(0.1 -0.1)">
       <defs>
        <path id="DejaVuSans-35" d="M 691 4666 
L 3169 4666 
L 3169 4134 
L 1269 4134 
L 1269 2991 
Q 1406 3038 1543 3061 
Q 1681 3084 1819 3084 
Q 2600 3084 3056 2656 
Q 3513 2228 3513 1497 
Q 3513 744 3044 326 
Q 2575 -91 1722 -91 
Q 1428 -91 1123 -41 
Q 819 9 494 109 
L 494 744 
Q 775 591 1075 516 
Q 1375 441 1709 441 
Q 2250 441 2565 725 
Q 2881 1009 2881 1497 
Q 2881 1984 2565 2268 
Q 2250 2553 1709 2553 
Q 1456 2553 1204 2497 
Q 953 2441 691 2322 
L 691 4666 
z
" transform="scale(0.015625)"/>
       </defs>
       <use xlink:href="#DejaVuSans-35"/>
       <use xlink:href="#DejaVuSans-30" x="63.623047"/>
       <use xlink:href="#DejaVuSans-30" x="127.246094"/>
       <use xlink:href="#DejaVuSans-30" x="190.869141"/>
      </g>
     </g>
    </g>
   </g>
   <g id="line2d_18">
    <path d="M 100.522727 331.370881 
L 166.616894 331.314793 
L 167.938777 331.146529 
L 169.26066 331.314793 
L 170.582544 331.370881 
L 171.904427 331.258705 
L 174.548194 331.314793 
L 175.870077 330.86609 
L 177.19196 330.978265 
L 178.513844 330.978265 
L 179.835727 331.370881 
L 181.15761 330.417387 
L 182.479494 330.58565 
L 183.801377 329.968684 
L 185.12326 330.305211 
L 186.445144 330.249123 
L 187.767027 329.968684 
L 189.08891 330.417387 
L 190.410794 329.856508 
L 191.732677 330.810002 
L 193.05456 329.519981 
L 194.376444 331.258705 
L 195.698327 330.136948 
L 197.02021 330.193035 
L 198.342094 330.641738 
L 199.663977 330.249123 
L 200.98586 330.641738 
L 202.307744 330.136948 
L 203.629627 330.753914 
L 204.95151 330.697826 
L 210.239044 331.090441 
L 211.560927 330.753914 
L 214.204694 331.146529 
L 215.526577 330.978265 
L 216.84846 331.370881 
L 218.170344 331.146529 
L 219.492227 331.258705 
L 220.81411 331.202617 
L 223.457877 331.314793 
L 224.77976 331.202617 
L 226.101643 331.314793 
L 227.423527 331.258705 
L 228.74541 331.370881 
L 230.067293 331.258705 
L 231.389177 331.370881 
L 232.71106 331.258705 
L 234.032943 331.370881 
L 235.354827 331.258705 
L 236.67671 331.426968 
L 240.64236 331.258705 
L 241.964243 331.370881 
L 244.60801 331.314793 
L 245.929893 331.258705 
L 248.57366 331.370881 
L 249.895543 331.146529 
L 252.53931 331.370881 
L 253.861193 331.258705 
L 255.183077 331.314793 
L 256.50496 330.978265 
L 257.826843 331.314793 
L 260.47061 331.370881 
L 264.43626 331.370881 
L 267.080027 331.146529 
L 269.723793 330.697826 
L 271.045677 330.810002 
L 272.36756 331.146529 
L 273.689443 331.146529 
L 275.011327 331.258705 
L 276.33321 330.58565 
L 277.655093 331.258705 
L 278.976977 331.426968 
L 280.29886 331.090441 
L 281.620743 331.202617 
L 282.942627 331.034353 
L 284.26451 330.978265 
L 285.586393 331.258705 
L 286.908277 330.810002 
L 288.23016 330.529563 
L 289.552043 330.641738 
L 292.19581 331.090441 
L 294.839577 329.968684 
L 296.16146 330.753914 
L 297.483343 329.576069 
L 298.805227 330.305211 
L 300.12711 330.417387 
L 301.448993 330.86609 
L 304.09276 329.29563 
L 305.414643 329.912596 
L 306.736527 330.08086 
L 308.05841 330.753914 
L 309.380293 328.22996 
L 310.702176 328.678663 
L 312.02406 328.622575 
L 313.345943 327.612994 
L 314.667826 328.846927 
L 315.98971 329.183454 
L 317.311593 328.846927 
L 318.633476 329.29563 
L 319.95536 326.996028 
L 321.277243 328.903015 
L 322.599126 326.042534 
L 323.92101 324.247722 
L 325.242893 326.6595 
L 326.564776 326.827764 
L 327.88666 326.603413 
L 329.208543 325.257304 
L 330.530426 323.294229 
L 331.85231 323.79902 
L 333.174193 323.79902 
L 334.496076 325.481655 
L 335.81796 327.893433 
L 337.139843 326.491237 
L 338.461726 326.266885 
L 339.78361 325.706007 
L 341.105493 325.930358 
L 342.427376 324.135547 
L 343.74926 318.975464 
L 345.071143 326.771676 
L 346.393026 329.183454 
L 347.71491 326.098622 
L 349.036793 320.041133 
L 350.358676 323.630756 
L 351.68056 322.901614 
L 353.002443 324.864689 
L 354.324326 325.08904 
L 355.64621 329.127366 
L 356.968093 326.827764 
L 358.289976 324.920777 
L 359.61186 321.667681 
L 360.933743 322.677262 
L 362.255626 323.967283 
L 363.57751 327.837345 
L 364.899393 327.72517 
L 366.221276 326.491237 
L 367.54316 322.172472 
L 368.865043 323.574668 
L 370.186926 323.855107 
L 371.50881 324.752513 
L 372.830693 326.266885 
L 374.152576 329.01519 
L 375.47446 328.342136 
L 376.796343 325.201216 
L 378.118226 324.864689 
L 379.44011 323.294229 
L 380.761993 322.396823 
L 382.083876 328.398224 
L 383.40576 328.005609 
L 384.727643 323.79902 
L 386.049526 322.340735 
L 387.37141 323.294229 
L 388.693293 323.855107 
L 390.015176 320.826363 
L 391.33706 326.379061 
L 392.658943 326.827764 
L 393.980826 326.435149 
L 395.30271 321.16289 
L 396.624593 321.275066 
L 397.946476 323.069877 
L 399.268359 323.238141 
L 401.912126 328.454312 
L 403.234009 327.72517 
L 404.555893 326.491237 
L 405.877776 320.433748 
L 407.199659 324.528162 
L 408.521543 323.51858 
L 409.843426 325.986446 
L 411.165309 326.547325 
L 413.809076 320.882451 
L 415.130959 319.255903 
L 416.452843 318.8072 
L 417.774726 314.993226 
L 419.096609 323.742932 
L 420.418493 324.079459 
L 421.740376 316.171071 
L 423.062259 319.480254 
L 424.384143 312.861887 
L 425.706026 313.31059 
L 427.027909 312.132745 
L 428.349793 320.153309 
L 429.671676 314.207996 
L 430.993559 313.927556 
L 432.315443 311.908394 
L 433.637326 307.309189 
L 434.959209 311.459691 
L 436.281093 303.270863 
L 437.602976 315.722368 
L 438.924859 319.480254 
L 440.246743 303.326951 
L 441.568626 291.211974 
L 442.890509 296.932935 
L 444.212393 290.875447 
L 445.534276 291.099798 
L 446.856159 298.559483 
L 448.178043 307.645716 
L 449.499926 304.112181 
L 450.821809 297.774253 
L 452.143693 290.819359 
L 453.465576 294.240718 
L 457.431226 299.456889 
L 458.753109 291.941116 
L 460.074993 296.652496 
L 461.396876 279.321348 
L 462.718759 282.967059 
L 464.040643 295.530739 
L 465.362526 289.978041 
L 466.684409 296.54032 
L 468.006293 283.97664 
L 469.328176 296.596408 
L 470.650059 281.62095 
L 471.971943 271.749487 
L 474.615709 292.445907 
L 475.937593 288.912372 
L 477.259476 280.499193 
L 478.581359 286.724945 
L 479.903243 274.55388 
L 481.225126 276.460867 
L 482.547009 275.226934 
L 483.868893 290.370656 
L 485.190776 310.394021 
L 486.512659 269.786412 
L 487.834542 279.826139 
L 489.156426 277.470448 
L 490.478309 263.336308 
L 491.800192 239.274617 
L 493.122076 260.027124 
L 494.443959 282.630531 
L 495.765842 254.474426 
L 497.087726 264.962856 
L 498.409609 262.046287 
L 499.731492 248.641289 
L 501.053376 261.317145 
L 502.375259 267.542897 
L 503.697142 292.053292 
L 505.019026 268.384215 
L 506.340909 271.861663 
L 507.662792 268.720743 
L 508.984676 324.976865 
L 510.306559 272.534717 
L 511.628442 277.750888 
L 512.950326 309.104001 
L 514.272209 274.890407 
L 515.594092 267.711161 
L 516.915976 287.510175 
L 518.237859 257.671434 
L 519.559742 295.867266 
L 520.881626 286.164067 
L 522.203509 291.211974 
L 523.525392 289.024547 
L 524.847276 287.229736 
L 526.169159 288.800196 
L 527.491042 276.516955 
L 528.812926 287.958878 
L 530.134809 294.408982 
L 531.456692 331.370881 
L 532.778576 290.034129 
L 534.100459 297.493814 
L 535.422342 284.313167 
L 536.744226 302.822161 
L 538.066109 296.203793 
L 539.387992 300.46647 
L 540.709876 322.73335 
L 542.031759 296.428145 
L 543.353642 299.120362 
L 544.675526 308.543122 
L 545.997409 331.370881 
L 547.319292 303.1026 
L 548.641176 311.908394 
L 549.963059 319.087639 
L 551.284942 307.421365 
L 552.606826 282.350092 
L 553.928709 317.068477 
L 555.250592 331.370881 
L 556.572476 309.552704 
L 557.894359 306.860486 
L 559.216242 315.498017 
L 560.538126 291.32415 
L 561.860009 293.118961 
L 563.181892 292.670258 
L 564.503776 285.491012 
L 565.825659 301.419964 
L 567.147542 318.919376 
L 568.469426 312.917975 
L 569.791309 307.589628 
L 571.113192 299.064274 
L 572.435076 305.738729 
L 573.756959 301.924755 
L 575.078842 307.757892 
L 576.400725 312.469272 
L 577.722609 321.106802 
L 580.366375 309.440528 
L 581.688259 309.272264 
L 583.010142 308.935737 
L 584.332025 311.123164 
L 585.653909 317.797619 
L 586.975792 322.172472 
L 588.297675 312.076657 
L 589.619559 310.562285 
L 590.941442 308.767474 
L 592.263325 313.871469 
L 593.585209 302.429545 
L 594.907092 320.882451 
L 596.228975 324.58425 
L 597.550859 313.759293 
L 598.872742 307.477453 
L 600.194625 314.488435 
L 601.516509 311.908394 
L 602.838392 316.844125 
L 604.160275 327.276467 
L 605.482159 324.415986 
L 606.804042 310.394021 
L 608.125925 314.151908 
L 609.447809 317.517179 
L 610.769692 318.975464 
L 612.091575 318.246322 
L 613.413459 325.537743 
L 614.735342 323.630756 
L 616.057225 324.247722 
L 617.379109 318.246322 
L 618.700992 320.153309 
L 620.022875 315.834544 
L 621.344759 316.563686 
L 622.666642 323.630756 
L 623.988525 329.632157 
L 625.310409 318.470673 
L 626.632292 320.041133 
L 627.954175 319.985045 
L 629.276059 321.94812 
L 630.597942 318.8072 
L 631.919825 324.808601 
L 633.241709 328.622575 
L 634.563592 322.677262 
L 635.885475 320.545924 
L 637.207359 321.275066 
L 638.529242 324.359898 
L 639.851125 331.370881 
L 641.173009 316.900213 
L 642.494892 328.846927 
L 643.816775 323.855107 
L 645.138659 322.957702 
L 646.460542 321.218978 
L 647.782425 323.967283 
L 649.104309 321.835945 
L 650.426192 329.463893 
L 651.748075 321.667681 
L 653.069959 308.318771 
L 654.391842 323.51858 
L 655.713725 323.967283 
L 657.035609 322.845526 
L 658.357492 320.265485 
L 659.679375 326.098622 
L 661.001259 329.239542 
L 662.323142 311.515779 
L 663.645025 319.368079 
L 664.966908 322.172472 
L 666.288792 322.957702 
L 667.610675 324.808601 
L 668.932558 329.632157 
L 670.254442 329.407805 
L 671.576325 322.508999 
L 672.898208 318.414585 
L 674.220092 321.667681 
L 675.541975 324.191635 
L 676.863858 321.16289 
L 678.185742 325.36948 
L 679.507625 331.370881 
L 680.829508 320.6581 
L 682.151392 320.545924 
L 683.473275 318.8072 
L 684.795158 318.8072 
L 686.117042 321.94812 
L 687.438925 329.071278 
L 688.760808 327.44473 
L 690.082692 321.667681 
L 691.404575 319.87287 
L 692.726458 320.602012 
L 694.048342 324.752513 
L 695.370225 323.069877 
L 696.692108 328.22996 
L 698.013992 328.173873 
L 699.335875 321.44333 
L 700.657758 322.508999 
L 701.979642 321.218978 
L 703.301525 322.677262 
L 704.623408 321.555505 
L 705.945292 328.622575 
L 707.267175 330.58565 
L 708.589058 321.499417 
L 709.910942 320.041133 
L 711.232825 321.611593 
L 712.554708 322.73335 
L 713.876592 321.94812 
L 715.198475 328.846927 
L 716.520358 327.893433 
L 717.842242 318.863288 
L 719.164125 323.51858 
L 720.486008 323.911195 
L 721.807892 323.01379 
L 723.129775 322.845526 
L 724.451658 329.407805 
L 725.773542 330.753914 
L 727.095425 321.723769 
L 728.417308 319.59243 
L 729.739192 325.08904 
L 731.061075 324.023371 
L 733.704842 329.071278 
L 735.026725 329.239542 
L 736.348608 323.630756 
L 737.670492 324.023371 
L 738.992375 329.519981 
L 740.314258 323.742932 
L 741.636142 330.978265 
L 742.958025 329.407805 
L 744.279908 330.193035 
L 745.601792 322.789438 
L 746.923675 327.052115 
L 748.245558 321.892032 
L 749.567442 326.042534 
L 750.889325 327.612994 
L 752.211208 330.024772 
L 754.854975 330.529563 
L 756.176858 322.508999 
L 757.498741 324.247722 
L 758.820625 324.023371 
L 760.142508 331.370881 
L 761.464391 331.370881 
L 762.786275 324.58425 
L 764.108158 323.686844 
L 765.430041 327.276467 
L 766.751925 325.818183 
L 768.073808 327.388643 
L 769.395691 331.370881 
L 770.717575 331.370881 
L 772.039458 326.379061 
L 773.361341 325.818183 
L 774.683225 327.332555 
L 776.005108 327.388643 
L 777.326991 327.164291 
L 778.648875 331.370881 
L 779.970758 331.370881 
L 782.614525 324.864689 
L 783.936408 327.893433 
L 785.258291 327.556906 
L 786.580175 328.117785 
L 787.902058 331.370881 
L 789.223941 331.370881 
L 790.545825 328.678663 
L 791.867708 325.032952 
L 793.189591 327.72517 
L 794.511475 327.669082 
L 795.833358 328.454312 
L 797.155241 331.370881 
L 799.799008 331.370881 
L 802.442775 322.901614 
L 803.764658 326.491237 
L 805.086541 328.5104 
L 806.408425 331.370881 
L 807.730308 331.370881 
L 809.052191 326.603413 
L 811.695958 326.15471 
L 813.017841 327.556906 
L 814.339725 326.491237 
L 815.661608 331.370881 
L 816.983491 331.370881 
L 819.627258 322.565087 
L 820.949141 325.593831 
L 822.271025 323.462492 
L 823.592908 325.08904 
L 824.914791 331.370881 
L 826.236675 331.370881 
L 827.558558 322.901614 
L 828.880441 316.844125 
L 830.202325 318.863288 
L 831.524208 317.068477 
L 832.846091 318.863288 
L 834.167975 331.370881 
L 835.489858 331.370881 
L 836.811741 316.339334 
L 838.133625 308.991825 
L 839.455508 314.824962 
L 840.777391 315.554104 
L 842.099275 316.114983 
L 843.421158 331.370881 
L 844.743041 331.370881 
L 846.064924 309.608791 
L 847.386808 304.224357 
L 848.708691 310.674461 
L 850.030574 309.160089 
L 851.352458 312.020569 
L 852.674341 331.370881 
L 853.996224 331.370881 
L 855.318108 305.514378 
L 856.639991 296.54032 
L 857.961874 306.916574 
L 859.283758 303.607391 
L 860.605641 306.636135 
L 861.927524 331.370881 
L 863.249408 331.370881 
L 864.571291 295.138124 
L 865.893174 291.548501 
L 867.215058 297.493814 
L 868.536941 295.923354 
L 869.858824 291.772852 
L 871.180708 331.370881 
L 872.502591 331.370881 
L 873.824474 290.875447 
L 875.146358 281.508774 
L 876.468241 282.518356 
L 877.790124 290.034129 
L 879.112008 294.801597 
L 880.433891 331.370881 
L 883.077658 331.370881 
L 884.399541 263.055869 
L 885.721424 272.646893 
L 887.043308 275.395198 
L 888.365191 277.246097 
L 889.687074 331.370881 
L 891.008958 331.370881 
L 892.330841 262.943693 
L 893.652724 261.821936 
L 894.974608 263.28022 
L 896.296491 269.449885 
L 897.618374 262.999781 
L 898.940258 331.370881 
L 900.262141 331.370881 
L 901.584024 240.115935 
L 902.905908 265.523735 
L 904.227791 257.727522 
L 906.871558 273.319947 
L 908.193441 331.370881 
L 909.515324 331.370881 
L 910.837208 261.148882 
L 912.159091 263.897187 
L 913.480974 256.549677 
L 914.802858 263.56066 
L 916.124741 276.853482 
L 917.446624 331.370881 
L 918.768508 331.370881 
L 920.090391 248.697377 
L 921.412274 262.663254 
L 922.734158 254.250075 
L 924.056041 258.849279 
L 925.377924 258.007962 
L 926.699808 331.370881 
L 929.343574 331.370881 
L 930.665458 207.080186 
L 931.987341 255.988799 
L 933.309224 259.185807 
L 934.631107 267.318546 
L 935.952991 331.370881 
L 937.274874 331.370881 
L 938.596757 260.027124 
L 939.918641 256.942292 
L 941.240524 261.541497 
L 942.562407 276.629131 
L 943.884291 270.908169 
L 945.206174 331.370881 
L 946.528057 331.370881 
L 947.849941 252.062649 
L 949.171824 268.384215 
L 950.493707 276.236516 
L 951.815591 276.236516 
L 953.137474 287.790614 
L 954.459357 331.370881 
L 955.781241 331.370881 
L 957.103124 268.047688 
L 958.425007 267.542897 
L 959.746891 282.798795 
L 961.068774 287.061472 
L 962.390657 293.118961 
L 963.712541 331.370881 
L 965.034424 331.370881 
L 966.356307 281.003984 
L 967.678191 268.664655 
L 969.000074 289.585426 
L 970.321957 331.370881 
L 971.643841 265.13112 
L 972.965724 331.370881 
L 974.287607 331.370881 
L 975.609491 287.510175 
L 976.931374 273.544298 
L 978.253257 297.998605 
L 979.575141 290.538919 
L 980.897024 304.280445 
L 982.218907 331.370881 
L 983.540791 331.370881 
L 984.862674 303.775654 
L 986.184557 293.118961 
L 987.506441 303.831742 
L 988.828324 331.370881 
L 990.150207 309.328352 
L 991.472091 331.370881 
L 992.793974 331.370881 
L 994.115857 311.571866 
L 995.437741 298.39122 
L 996.759624 298.783835 
L 998.081507 312.749711 
L 999.403391 313.927556 
L 1000.725274 331.370881 
L 1002.047157 331.370881 
L 1003.369041 311.515779 
L 1004.690924 308.094419 
L 1006.012807 316.114983 
L 1007.334691 316.45151 
L 1008.656574 321.555505 
L 1009.978457 331.370881 
L 1011.300341 331.370881 
L 1012.622224 320.882451 
L 1013.944107 319.985045 
L 1015.265991 315.161489 
L 1016.587874 322.116384 
L 1017.909757 320.041133 
L 1019.231641 331.370881 
L 1020.553524 331.370881 
L 1021.875407 322.116384 
L 1023.19729 317.797619 
L 1025.841057 317.23674 
L 1027.16294 331.370881 
L 1029.806707 331.370881 
L 1031.12859 310.337934 
L 1032.450474 308.430946 
L 1033.772357 297.269463 
L 1035.09424 294.18463 
L 1036.416124 331.370881 
L 1039.05989 331.370881 
L 1040.381774 286.724945 
L 1041.703657 278.928733 
L 1043.02554 269.505973 
L 1044.347424 266.196789 
L 1045.669307 267.262458 
L 1046.99119 331.370881 
L 1048.313074 331.370881 
L 1049.634957 223.401753 
L 1050.95684 246.846478 
L 1052.278724 228.337484 
L 1053.600607 232.207547 
L 1054.92249 209.211525 
L 1056.244374 331.370881 
L 1058.88814 331.370881 
L 1060.210024 112.067354 
L 1061.531907 215.88598 
L 1062.85379 216.783386 
L 1064.175674 219.0269 
L 1065.497557 331.370881 
L 1066.81944 331.370881 
L 1068.141324 50.8755 
L 1069.463207 170.286551 
L 1070.78509 158.059398 
L 1072.106974 168.099124 
L 1073.428857 172.417889 
L 1074.75074 331.370881 
L 1076.072624 331.370881 
L 1077.394507 141.850007 
L 1078.71639 277.919151 
L 1080.038274 251.613946 
L 1081.360157 272.422541 
L 1082.68204 83.294282 
L 1084.003924 331.370881 
L 1085.325807 331.370881 
L 1086.64769 225.30874 
L 1087.969574 259.35407 
L 1089.291457 273.76865 
L 1090.61334 265.187207 
L 1091.935224 262.999781 
L 1093.257107 331.370881 
L 1094.57899 331.370881 
L 1095.900874 262.831517 
L 1097.222757 280.162666 
L 1098.54464 278.872645 
L 1099.866524 280.779632 
L 1101.188407 268.608567 
L 1102.51029 331.370881 
L 1105.154057 331.370881 
L 1106.47594 239.611144 
L 1107.797824 279.826139 
L 1109.119707 280.891808 
L 1110.44159 296.596408 
L 1111.763473 331.370881 
L 1113.085357 331.370881 
L 1114.40724 287.510175 
L 1115.729123 294.801597 
L 1117.051007 282.630531 
L 1118.37289 283.696201 
L 1119.694773 214.708135 
L 1121.016657 331.370881 
L 1122.33854 331.370881 
L 1123.660423 322.340735 
L 1126.30419 324.191635 
L 1127.626073 324.30381 
L 1128.947957 328.5104 
L 1130.26984 331.370881 
L 1131.591723 331.370881 
L 1132.913607 323.911195 
L 1134.23549 325.706007 
L 1135.557373 327.276467 
L 1136.879257 326.435149 
L 1138.20114 327.500818 
L 1139.523023 331.370881 
L 1140.844907 331.370881 
L 1142.16679 326.996028 
L 1143.488673 327.164291 
L 1144.810557 328.398224 
L 1146.13244 328.846927 
L 1147.454323 329.071278 
L 1148.776207 331.370881 
L 1150.09809 331.370881 
L 1151.419973 328.173873 
L 1152.741857 328.286048 
L 1155.385623 330.697826 
L 1156.707507 327.669082 
L 1158.02939 331.370881 
L 1159.351273 331.370881 
L 1160.673157 328.117785 
L 1161.99504 328.678663 
L 1163.316923 327.500818 
L 1164.638807 329.688245 
L 1165.96069 330.08086 
L 1167.282573 331.370881 
L 1168.604457 331.370881 
L 1169.92634 327.44473 
L 1171.248223 328.005609 
L 1172.570107 328.959103 
L 1173.89199 329.407805 
L 1175.213873 328.173873 
L 1176.535757 331.370881 
L 1177.85764 331.370881 
L 1179.179523 326.322973 
L 1180.501407 326.715588 
L 1181.82329 326.6595 
L 1183.145173 329.01519 
L 1184.467057 327.108203 
L 1185.78894 331.370881 
L 1187.110823 331.370881 
L 1188.432707 326.883852 
L 1189.75459 325.145128 
L 1191.076473 325.313392 
L 1192.398357 324.864689 
L 1193.72024 326.996028 
L 1195.042123 331.370881 
L 1196.364007 331.370881 
L 1197.68589 322.845526 
L 1199.007773 324.023371 
L 1200.329656 324.472074 
L 1201.65154 326.15471 
L 1202.973423 324.808601 
L 1204.295306 331.370881 
L 1210.904723 331.370881 
L 1212.226606 302.485633 
L 1213.54849 331.370881 
L 1220.157906 331.370881 
L 1221.47979 270.852081 
L 1222.801673 331.370881 
L 1229.41109 331.370881 
L 1230.732973 258.176225 
L 1232.054856 331.370881 
L 1243.951806 331.370881 
L 1245.27369 247.463444 
L 1246.595573 331.370881 
L 1247.917456 331.370881 
L 1249.23934 220.765623 
L 1250.561223 331.370881 
L 1257.17064 331.370881 
L 1258.492523 214.203344 
L 1259.814406 331.370881 
L 1266.423823 331.370881 
L 1267.745706 221.270414 
L 1269.06759 331.370881 
L 1275.677006 331.370881 
L 1276.99889 212.015918 
L 1278.320773 331.370881 
L 1284.93019 331.370881 
L 1286.252073 207.977592 
L 1287.573956 331.370881 
L 1294.183373 331.370881 
L 1295.505256 180.999332 
L 1296.827139 331.370881 
L 1300.792789 331.370881 
L 1300.792789 331.370881 
" clip-path="url(#p2b01df4e4c)" style="fill: none; stroke: #0000ff; stroke-width: 1.5; stroke-linecap: square"/>
   </g>
   <g id="line2d_19">
    <path d="M 1061.531907 225.713382 
L 1062.85379 218.732821 
L 1064.175674 283.888582 
L 1065.497557 288.868601 
L 1066.81944 268.475704 
L 1068.141324 157.890743 
L 1069.463207 187.285867 
L 1070.78509 186.346573 
L 1072.106974 181.247835 
L 1073.428857 258.204292 
L 1074.75074 265.416555 
L 1076.072624 143.437911 
L 1077.394507 155.257856 
L 1078.71639 180.951513 
L 1080.038274 199.237066 
L 1081.360157 211.165845 
L 1082.68204 306.192208 
L 1084.003924 302.110015 
L 1085.325807 163.713706 
L 1086.64769 233.788493 
L 1087.969574 234.445736 
L 1089.291457 250.747403 
L 1090.61334 173.896698 
L 1091.935224 338.884024 
L 1093.257107 342.597146 
L 1094.57899 228.413201 
L 1095.900874 275.19 
L 1097.222757 281.275859 
L 1098.54464 282.706322 
L 1099.866524 243.809943 
L 1101.188407 348.196897 
L 1102.51029 347.712012 
L 1103.832174 263.134321 
L 1105.154057 297.356125 
L 1106.47594 296.085251 
L 1107.797824 292.789122 
L 1109.119707 267.627929 
L 1110.44159 344.643616 
L 1111.763473 344.767592 
L 1113.085357 304.204042 
L 1114.40724 275.706835 
L 1115.729123 294.634296 
L 1117.051007 295.575045 
L 1118.37289 289.471146 
L 1119.694773 330.930558 
L 1121.016657 327.207251 
L 1122.33854 291.138077 
L 1123.660423 285.454831 
L 1124.982307 294.083139 
L 1126.30419 300.052788 
L 1127.626073 272.56417 
L 1128.947957 352.717653 
L 1130.26984 353.2755 
L 1131.591723 328.676402 
L 1132.913607 323.242308 
L 1134.23549 325.185901 
L 1135.557373 326.058028 
L 1136.879257 313.257639 
L 1138.20114 350.274057 
L 1139.523023 349.030437 
L 1140.844907 333.125524 
L 1142.16679 330.587822 
L 1143.488673 331.515128 
L 1144.810557 330.915522 
L 1146.13244 324.942016 
L 1147.454323 343.576508 
L 1148.776207 342.521849 
L 1150.09809 332.736303 
L 1151.419973 331.306094 
L 1152.741857 332.042403 
L 1154.06374 331.769218 
L 1155.385623 329.001732 
L 1156.707507 338.375687 
L 1158.02939 337.581718 
L 1159.351273 331.471291 
L 1160.673157 330.675555 
L 1161.99504 331.404191 
L 1163.316923 331.496641 
L 1164.638807 328.634255 
L 1165.96069 334.765905 
L 1167.282573 334.490772 
L 1168.604457 330.203596 
L 1171.248223 329.611757 
L 1172.570107 330.664772 
L 1173.89199 329.510828 
L 1175.213873 332.701723 
L 1176.535757 332.498798 
L 1177.85764 328.86601 
L 1180.501407 328.927306 
L 1181.82329 329.348694 
L 1183.145173 328.210968 
L 1184.467057 331.041145 
L 1185.78894 331.019997 
L 1187.110823 327.302387 
L 1188.432707 327.592649 
L 1189.75459 327.484393 
L 1191.076473 328.497617 
L 1192.398357 326.735901 
L 1193.72024 329.790372 
L 1195.042123 329.978212 
L 1196.364007 326.516515 
L 1197.68589 325.606711 
L 1199.007773 325.402468 
L 1201.65154 325.998954 
L 1202.973423 329.273154 
L 1204.295306 329.429416 
L 1205.61719 324.372286 
L 1206.939073 325.417699 
L 1208.260956 326.650183 
L 1209.58284 328.352417 
L 1210.904723 328.460936 
L 1212.226606 330.282305 
L 1213.54849 329.066904 
L 1214.870373 326.920838 
L 1217.51414 328.334462 
L 1218.836023 329.264769 
L 1220.157906 317.087484 
L 1221.47979 326.769074 
L 1222.801673 324.891524 
L 1224.123556 324.75396 
L 1226.767323 326.756649 
L 1228.089206 327.705827 
L 1229.41109 296.576379 
L 1230.732973 325.353387 
L 1232.054856 324.017271 
L 1233.37674 324.646967 
L 1236.020506 326.65702 
L 1237.34239 327.512145 
L 1238.664273 281.998695 
L 1239.986156 333.866216 
L 1241.30804 336.106424 
L 1242.629923 335.085812 
L 1243.951806 334.484563 
L 1245.27369 325.265887 
L 1246.595573 321.531445 
L 1247.917456 301.491085 
L 1249.23934 315.375347 
L 1250.561223 312.908824 
L 1251.883106 315.756219 
L 1253.20499 282.421417 
L 1254.526873 324.108903 
L 1255.848756 327.332129 
L 1257.17064 270.59841 
L 1258.492523 322.396115 
L 1259.814406 320.451751 
L 1261.13629 322.15071 
L 1262.458173 306.832767 
L 1263.780056 326.627985 
L 1265.10194 328.354049 
L 1266.423823 251.892008 
L 1267.745706 325.838864 
L 1269.06759 324.84944 
L 1270.389473 325.871459 
L 1271.711356 318.881495 
L 1273.03324 328.318323 
L 1274.355123 329.26072 
L 1275.677006 246.502339 
L 1276.99889 326.131842 
L 1278.320773 324.917877 
L 1279.642656 325.943064 
L 1280.96454 323.125271 
L 1282.286423 327.932876 
L 1283.608306 328.697358 
L 1284.93019 239.193485 
L 1286.252073 326.015658 
L 1287.573956 324.978547 
L 1288.89584 326.000621 
L 1290.217723 325.134432 
L 1291.539606 327.76912 
L 1292.861489 328.447497 
L 1294.183373 234.054676 
L 1295.505256 323.54035 
L 1296.827139 321.649734 
L 1298.149023 323.210219 
L 1299.470906 323.711786 
L 1300.792789 325.708246 
L 1300.792789 325.708246 
" clip-path="url(#p2b01df4e4c)" style="fill: none; stroke: #ffa500; stroke-width: 1.5; stroke-linecap: square"/>
   </g>
   <g id="line2d_20">
    <path d="M 1300.792789 325.708246 
L 1302.114673 326.076084 
L 1303.436556 217.357354 
L 1304.758439 326.058443 
L 1306.080323 326.058375 
L 1307.402206 326.057092 
L 1308.724089 325.677183 
L 1310.045973 323.63822 
L 1311.367856 323.795577 
L 1312.689739 226.406821 
L 1314.011623 323.788989 
L 1315.333506 323.78896 
L 1316.655389 323.787808 
L 1317.977273 323.447457 
" clip-path="url(#p2b01df4e4c)" style="fill: none; stroke: #ff0000; stroke-width: 1.5; stroke-linecap: square"/>
   </g>
   <g id="patch_3">
    <path d="M 39.65 368.3955 
L 39.65 35.7555 
" style="fill: none; stroke: #000000; stroke-width: 0.8; stroke-linejoin: miter; stroke-linecap: square"/>
   </g>
   <g id="patch_4">
    <path d="M 1378.85 368.3955 
L 1378.85 35.7555 
" style="fill: none; stroke: #000000; stroke-width: 0.8; stroke-linejoin: miter; stroke-linecap: square"/>
   </g>
   <g id="patch_5">
    <path d="M 39.65 368.3955 
L 1378.85 368.3955 
" style="fill: none; stroke: #000000; stroke-width: 0.8; stroke-linejoin: miter; stroke-linecap: square"/>
   </g>
   <g id="patch_6">
    <path d="M 39.65 35.7555 
L 1378.85 35.7555 
" style="fill: none; stroke: #000000; stroke-width: 0.8; stroke-linejoin: miter; stroke-linecap: square"/>
   </g>
   <g id="text_18">
    <!-- Daily Confirmed Cases Forecasting - Montana -->
    <g transform="translate(572.590625 16.318125)scale(0.12 -0.12)">
     <defs>
      <path id="DejaVuSans-44" d="M 1259 4147 
L 1259 519 
L 2022 519 
Q 2988 519 3436 956 
Q 3884 1394 3884 2338 
Q 3884 3275 3436 3711 
Q 2988 4147 2022 4147 
L 1259 4147 
z
M 628 4666 
L 1925 4666 
Q 3281 4666 3915 4102 
Q 4550 3538 4550 2338 
Q 4550 1131 3912 565 
Q 3275 0 1925 0 
L 628 0 
L 628 4666 
z
" transform="scale(0.015625)"/>
      <path id="DejaVuSans-61" d="M 2194 1759 
Q 1497 1759 1228 1600 
Q 959 1441 959 1056 
Q 959 750 1161 570 
Q 1363 391 1709 391 
Q 2188 391 2477 730 
Q 2766 1069 2766 1631 
L 2766 1759 
L 2194 1759 
z
M 3341 1997 
L 3341 0 
L 2766 0 
L 2766 531 
Q 2569 213 2275 61 
Q 1981 -91 1556 -91 
Q 1019 -91 701 211 
Q 384 513 384 1019 
Q 384 1609 779 1909 
Q 1175 2209 1959 2209 
L 2766 2209 
L 2766 2266 
Q 2766 2663 2505 2880 
Q 2244 3097 1772 3097 
Q 1472 3097 1187 3025 
Q 903 2953 641 2809 
L 641 3341 
Q 956 3463 1253 3523 
Q 1550 3584 1831 3584 
Q 2591 3584 2966 3190 
Q 3341 2797 3341 1997 
z
" transform="scale(0.015625)"/>
      <path id="DejaVuSans-69" d="M 603 3500 
L 1178 3500 
L 1178 0 
L 603 0 
L 603 3500 
z
M 603 4863 
L 1178 4863 
L 1178 4134 
L 603 4134 
L 603 4863 
z
" transform="scale(0.015625)"/>
      <path id="DejaVuSans-6c" d="M 603 4863 
L 1178 4863 
L 1178 0 
L 603 0 
L 603 4863 
z
" transform="scale(0.015625)"/>
      <path id="DejaVuSans-79" d="M 2059 -325 
Q 1816 -950 1584 -1140 
Q 1353 -1331 966 -1331 
L 506 -1331 
L 506 -850 
L 844 -850 
Q 1081 -850 1212 -737 
Q 1344 -625 1503 -206 
L 1606 56 
L 191 3500 
L 800 3500 
L 1894 763 
L 2988 3500 
L 3597 3500 
L 2059 -325 
z
" transform="scale(0.015625)"/>
      <path id="DejaVuSans-20" transform="scale(0.015625)"/>
      <path id="DejaVuSans-43" d="M 4122 4306 
L 4122 3641 
Q 3803 3938 3442 4084 
Q 3081 4231 2675 4231 
Q 1875 4231 1450 3742 
Q 1025 3253 1025 2328 
Q 1025 1406 1450 917 
Q 1875 428 2675 428 
Q 3081 428 3442 575 
Q 3803 722 4122 1019 
L 4122 359 
Q 3791 134 3420 21 
Q 3050 -91 2638 -91 
Q 1578 -91 968 557 
Q 359 1206 359 2328 
Q 359 3453 968 4101 
Q 1578 4750 2638 4750 
Q 3056 4750 3426 4639 
Q 3797 4528 4122 4306 
z
" transform="scale(0.015625)"/>
      <path id="DejaVuSans-6f" d="M 1959 3097 
Q 1497 3097 1228 2736 
Q 959 2375 959 1747 
Q 959 1119 1226 758 
Q 1494 397 1959 397 
Q 2419 397 2687 759 
Q 2956 1122 2956 1747 
Q 2956 2369 2687 2733 
Q 2419 3097 1959 3097 
z
M 1959 3584 
Q 2709 3584 3137 3096 
Q 3566 2609 3566 1747 
Q 3566 888 3137 398 
Q 2709 -91 1959 -91 
Q 1206 -91 779 398 
Q 353 888 353 1747 
Q 353 2609 779 3096 
Q 1206 3584 1959 3584 
z
" transform="scale(0.015625)"/>
      <path id="DejaVuSans-6e" d="M 3513 2113 
L 3513 0 
L 2938 0 
L 2938 2094 
Q 2938 2591 2744 2837 
Q 2550 3084 2163 3084 
Q 1697 3084 1428 2787 
Q 1159 2491 1159 1978 
L 1159 0 
L 581 0 
L 581 3500 
L 1159 3500 
L 1159 2956 
Q 1366 3272 1645 3428 
Q 1925 3584 2291 3584 
Q 2894 3584 3203 3211 
Q 3513 2838 3513 2113 
z
" transform="scale(0.015625)"/>
      <path id="DejaVuSans-66" d="M 2375 4863 
L 2375 4384 
L 1825 4384 
Q 1516 4384 1395 4259 
Q 1275 4134 1275 3809 
L 1275 3500 
L 2222 3500 
L 2222 3053 
L 1275 3053 
L 1275 0 
L 697 0 
L 697 3053 
L 147 3053 
L 147 3500 
L 697 3500 
L 697 3744 
Q 697 4328 969 4595 
Q 1241 4863 1831 4863 
L 2375 4863 
z
" transform="scale(0.015625)"/>
      <path id="DejaVuSans-72" d="M 2631 2963 
Q 2534 3019 2420 3045 
Q 2306 3072 2169 3072 
Q 1681 3072 1420 2755 
Q 1159 2438 1159 1844 
L 1159 0 
L 581 0 
L 581 3500 
L 1159 3500 
L 1159 2956 
Q 1341 3275 1631 3429 
Q 1922 3584 2338 3584 
Q 2397 3584 2469 3576 
Q 2541 3569 2628 3553 
L 2631 2963 
z
" transform="scale(0.015625)"/>
      <path id="DejaVuSans-6d" d="M 3328 2828 
Q 3544 3216 3844 3400 
Q 4144 3584 4550 3584 
Q 5097 3584 5394 3201 
Q 5691 2819 5691 2113 
L 5691 0 
L 5113 0 
L 5113 2094 
Q 5113 2597 4934 2840 
Q 4756 3084 4391 3084 
Q 3944 3084 3684 2787 
Q 3425 2491 3425 1978 
L 3425 0 
L 2847 0 
L 2847 2094 
Q 2847 2600 2669 2842 
Q 2491 3084 2119 3084 
Q 1678 3084 1418 2786 
Q 1159 2488 1159 1978 
L 1159 0 
L 581 0 
L 581 3500 
L 1159 3500 
L 1159 2956 
Q 1356 3278 1631 3431 
Q 1906 3584 2284 3584 
Q 2666 3584 2933 3390 
Q 3200 3197 3328 2828 
z
" transform="scale(0.015625)"/>
      <path id="DejaVuSans-65" d="M 3597 1894 
L 3597 1613 
L 953 1613 
Q 991 1019 1311 708 
Q 1631 397 2203 397 
Q 2534 397 2845 478 
Q 3156 559 3463 722 
L 3463 178 
Q 3153 47 2828 -22 
Q 2503 -91 2169 -91 
Q 1331 -91 842 396 
Q 353 884 353 1716 
Q 353 2575 817 3079 
Q 1281 3584 2069 3584 
Q 2775 3584 3186 3129 
Q 3597 2675 3597 1894 
z
M 3022 2063 
Q 3016 2534 2758 2815 
Q 2500 3097 2075 3097 
Q 1594 3097 1305 2825 
Q 1016 2553 972 2059 
L 3022 2063 
z
" transform="scale(0.015625)"/>
      <path id="DejaVuSans-64" d="M 2906 2969 
L 2906 4863 
L 3481 4863 
L 3481 0 
L 2906 0 
L 2906 525 
Q 2725 213 2448 61 
Q 2172 -91 1784 -91 
Q 1150 -91 751 415 
Q 353 922 353 1747 
Q 353 2572 751 3078 
Q 1150 3584 1784 3584 
Q 2172 3584 2448 3432 
Q 2725 3281 2906 2969 
z
M 947 1747 
Q 947 1113 1208 752 
Q 1469 391 1925 391 
Q 2381 391 2643 752 
Q 2906 1113 2906 1747 
Q 2906 2381 2643 2742 
Q 2381 3103 1925 3103 
Q 1469 3103 1208 2742 
Q 947 2381 947 1747 
z
" transform="scale(0.015625)"/>
      <path id="DejaVuSans-73" d="M 2834 3397 
L 2834 2853 
Q 2591 2978 2328 3040 
Q 2066 3103 1784 3103 
Q 1356 3103 1142 2972 
Q 928 2841 928 2578 
Q 928 2378 1081 2264 
Q 1234 2150 1697 2047 
L 1894 2003 
Q 2506 1872 2764 1633 
Q 3022 1394 3022 966 
Q 3022 478 2636 193 
Q 2250 -91 1575 -91 
Q 1294 -91 989 -36 
Q 684 19 347 128 
L 347 722 
Q 666 556 975 473 
Q 1284 391 1588 391 
Q 1994 391 2212 530 
Q 2431 669 2431 922 
Q 2431 1156 2273 1281 
Q 2116 1406 1581 1522 
L 1381 1569 
Q 847 1681 609 1914 
Q 372 2147 372 2553 
Q 372 3047 722 3315 
Q 1072 3584 1716 3584 
Q 2034 3584 2315 3537 
Q 2597 3491 2834 3397 
z
" transform="scale(0.015625)"/>
      <path id="DejaVuSans-46" d="M 628 4666 
L 3309 4666 
L 3309 4134 
L 1259 4134 
L 1259 2759 
L 3109 2759 
L 3109 2228 
L 1259 2228 
L 1259 0 
L 628 0 
L 628 4666 
z
" transform="scale(0.015625)"/>
      <path id="DejaVuSans-63" d="M 3122 3366 
L 3122 2828 
Q 2878 2963 2633 3030 
Q 2388 3097 2138 3097 
Q 1578 3097 1268 2742 
Q 959 2388 959 1747 
Q 959 1106 1268 751 
Q 1578 397 2138 397 
Q 2388 397 2633 464 
Q 2878 531 3122 666 
L 3122 134 
Q 2881 22 2623 -34 
Q 2366 -91 2075 -91 
Q 1284 -91 818 406 
Q 353 903 353 1747 
Q 353 2603 823 3093 
Q 1294 3584 2113 3584 
Q 2378 3584 2631 3529 
Q 2884 3475 3122 3366 
z
" transform="scale(0.015625)"/>
      <path id="DejaVuSans-74" d="M 1172 4494 
L 1172 3500 
L 2356 3500 
L 2356 3053 
L 1172 3053 
L 1172 1153 
Q 1172 725 1289 603 
Q 1406 481 1766 481 
L 2356 481 
L 2356 0 
L 1766 0 
Q 1100 0 847 248 
Q 594 497 594 1153 
L 594 3053 
L 172 3053 
L 172 3500 
L 594 3500 
L 594 4494 
L 1172 4494 
z
" transform="scale(0.015625)"/>
      <path id="DejaVuSans-67" d="M 2906 1791 
Q 2906 2416 2648 2759 
Q 2391 3103 1925 3103 
Q 1463 3103 1205 2759 
Q 947 2416 947 1791 
Q 947 1169 1205 825 
Q 1463 481 1925 481 
Q 2391 481 2648 825 
Q 2906 1169 2906 1791 
z
M 3481 434 
Q 3481 -459 3084 -895 
Q 2688 -1331 1869 -1331 
Q 1566 -1331 1297 -1286 
Q 1028 -1241 775 -1147 
L 775 -588 
Q 1028 -725 1275 -790 
Q 1522 -856 1778 -856 
Q 2344 -856 2625 -561 
Q 2906 -266 2906 331 
L 2906 616 
Q 2728 306 2450 153 
Q 2172 0 1784 0 
Q 1141 0 747 490 
Q 353 981 353 1791 
Q 353 2603 747 3093 
Q 1141 3584 1784 3584 
Q 2172 3584 2450 3431 
Q 2728 3278 2906 2969 
L 2906 3500 
L 3481 3500 
L 3481 434 
z
" transform="scale(0.015625)"/>
      <path id="DejaVuSans-4d" d="M 628 4666 
L 1569 4666 
L 2759 1491 
L 3956 4666 
L 4897 4666 
L 4897 0 
L 4281 0 
L 4281 4097 
L 3078 897 
L 2444 897 
L 1241 4097 
L 1241 0 
L 628 0 
L 628 4666 
z
" transform="scale(0.015625)"/>
     </defs>
     <use xlink:href="#DejaVuSans-44"/>
     <use xlink:href="#DejaVuSans-61" x="77.001953"/>
     <use xlink:href="#DejaVuSans-69" x="138.28125"/>
     <use xlink:href="#DejaVuSans-6c" x="166.064453"/>
     <use xlink:href="#DejaVuSans-79" x="193.847656"/>
     <use xlink:href="#DejaVuSans-20" x="253.027344"/>
     <use xlink:href="#DejaVuSans-43" x="284.814453"/>
     <use xlink:href="#DejaVuSans-6f" x="354.638672"/>
     <use xlink:href="#DejaVuSans-6e" x="415.820312"/>
     <use xlink:href="#DejaVuSans-66" x="479.199219"/>
     <use xlink:href="#DejaVuSans-69" x="514.404297"/>
     <use xlink:href="#DejaVuSans-72" x="542.1875"/>
     <use xlink:href="#DejaVuSans-6d" x="581.550781"/>
     <use xlink:href="#DejaVuSans-65" x="678.962891"/>
     <use xlink:href="#DejaVuSans-64" x="740.486328"/>
     <use xlink:href="#DejaVuSans-20" x="803.962891"/>
     <use xlink:href="#DejaVuSans-43" x="835.75"/>
     <use xlink:href="#DejaVuSans-61" x="905.574219"/>
     <use xlink:href="#DejaVuSans-73" x="966.853516"/>
     <use xlink:href="#DejaVuSans-65" x="1018.953125"/>
     <use xlink:href="#DejaVuSans-73" x="1080.476562"/>
     <use xlink:href="#DejaVuSans-20" x="1132.576172"/>
     <use xlink:href="#DejaVuSans-46" x="1164.363281"/>
     <use xlink:href="#DejaVuSans-6f" x="1218.257812"/>
     <use xlink:href="#DejaVuSans-72" x="1279.439453"/>
     <use xlink:href="#DejaVuSans-65" x="1318.302734"/>
     <use xlink:href="#DejaVuSans-63" x="1379.826172"/>
     <use xlink:href="#DejaVuSans-61" x="1434.806641"/>
     <use xlink:href="#DejaVuSans-73" x="1496.085938"/>
     <use xlink:href="#DejaVuSans-74" x="1548.185547"/>
     <use xlink:href="#DejaVuSans-69" x="1587.394531"/>
     <use xlink:href="#DejaVuSans-6e" x="1615.177734"/>
     <use xlink:href="#DejaVuSans-67" x="1678.556641"/>
     <use xlink:href="#DejaVuSans-20" x="1742.033203"/>
     <use xlink:href="#DejaVuSans-2d" x="1773.820312"/>
     <use xlink:href="#DejaVuSans-20" x="1809.904297"/>
     <use xlink:href="#DejaVuSans-4d" x="1841.691406"/>
     <use xlink:href="#DejaVuSans-6f" x="1927.970703"/>
     <use xlink:href="#DejaVuSans-6e" x="1989.152344"/>
     <use xlink:href="#DejaVuSans-74" x="2052.53125"/>
     <use xlink:href="#DejaVuSans-61" x="2091.740234"/>
     <use xlink:href="#DejaVuSans-6e" x="2153.019531"/>
     <use xlink:href="#DejaVuSans-61" x="2216.398438"/>
    </g>
    <!-- ARIMA (1, 1, 1)x(1, 0, 1, 7) (R2 = 0.122247) -->
    <g transform="translate(577.265938 29.7555)scale(0.12 -0.12)">
     <defs>
      <path id="DejaVuSans-41" d="M 2188 4044 
L 1331 1722 
L 3047 1722 
L 2188 4044 
z
M 1831 4666 
L 2547 4666 
L 4325 0 
L 3669 0 
L 3244 1197 
L 1141 1197 
L 716 0 
L 50 0 
L 1831 4666 
z
" transform="scale(0.015625)"/>
      <path id="DejaVuSans-52" d="M 2841 2188 
Q 3044 2119 3236 1894 
Q 3428 1669 3622 1275 
L 4263 0 
L 3584 0 
L 2988 1197 
Q 2756 1666 2539 1819 
Q 2322 1972 1947 1972 
L 1259 1972 
L 1259 0 
L 628 0 
L 628 4666 
L 2053 4666 
Q 2853 4666 3247 4331 
Q 3641 3997 3641 3322 
Q 3641 2881 3436 2590 
Q 3231 2300 2841 2188 
z
M 1259 4147 
L 1259 2491 
L 2053 2491 
Q 2509 2491 2742 2702 
Q 2975 2913 2975 3322 
Q 2975 3731 2742 3939 
Q 2509 4147 2053 4147 
L 1259 4147 
z
" transform="scale(0.015625)"/>
      <path id="DejaVuSans-49" d="M 628 4666 
L 1259 4666 
L 1259 0 
L 628 0 
L 628 4666 
z
" transform="scale(0.015625)"/>
      <path id="DejaVuSans-28" d="M 1984 4856 
Q 1566 4138 1362 3434 
Q 1159 2731 1159 2009 
Q 1159 1288 1364 580 
Q 1569 -128 1984 -844 
L 1484 -844 
Q 1016 -109 783 600 
Q 550 1309 550 2009 
Q 550 2706 781 3412 
Q 1013 4119 1484 4856 
L 1984 4856 
z
" transform="scale(0.015625)"/>
      <path id="DejaVuSans-2c" d="M 750 794 
L 1409 794 
L 1409 256 
L 897 -744 
L 494 -744 
L 750 256 
L 750 794 
z
" transform="scale(0.015625)"/>
      <path id="DejaVuSans-29" d="M 513 4856 
L 1013 4856 
Q 1481 4119 1714 3412 
Q 1947 2706 1947 2009 
Q 1947 1309 1714 600 
Q 1481 -109 1013 -844 
L 513 -844 
Q 928 -128 1133 580 
Q 1338 1288 1338 2009 
Q 1338 2731 1133 3434 
Q 928 4138 513 4856 
z
" transform="scale(0.015625)"/>
      <path id="DejaVuSans-78" d="M 3513 3500 
L 2247 1797 
L 3578 0 
L 2900 0 
L 1881 1375 
L 863 0 
L 184 0 
L 1544 1831 
L 300 3500 
L 978 3500 
L 1906 2253 
L 2834 3500 
L 3513 3500 
z
" transform="scale(0.015625)"/>
      <path id="DejaVuSans-3d" d="M 678 2906 
L 4684 2906 
L 4684 2381 
L 678 2381 
L 678 2906 
z
M 678 1631 
L 4684 1631 
L 4684 1100 
L 678 1100 
L 678 1631 
z
" transform="scale(0.015625)"/>
      <path id="DejaVuSans-2e" d="M 684 794 
L 1344 794 
L 1344 0 
L 684 0 
L 684 794 
z
" transform="scale(0.015625)"/>
     </defs>
     <use xlink:href="#DejaVuSans-41"/>
     <use xlink:href="#DejaVuSans-52" x="68.408203"/>
     <use xlink:href="#DejaVuSans-49" x="137.890625"/>
     <use xlink:href="#DejaVuSans-4d" x="167.382812"/>
     <use xlink:href="#DejaVuSans-41" x="253.662109"/>
     <use xlink:href="#DejaVuSans-20" x="322.070312"/>
     <use xlink:href="#DejaVuSans-28" x="353.857422"/>
     <use xlink:href="#DejaVuSans-31" x="392.871094"/>
     <use xlink:href="#DejaVuSans-2c" x="456.494141"/>
     <use xlink:href="#DejaVuSans-20" x="488.28125"/>
     <use xlink:href="#DejaVuSans-31" x="520.068359"/>
     <use xlink:href="#DejaVuSans-2c" x="583.691406"/>
     <use xlink:href="#DejaVuSans-20" x="615.478516"/>
     <use xlink:href="#DejaVuSans-31" x="647.265625"/>
     <use xlink:href="#DejaVuSans-29" x="710.888672"/>
     <use xlink:href="#DejaVuSans-78" x="749.902344"/>
     <use xlink:href="#DejaVuSans-28" x="809.082031"/>
     <use xlink:href="#DejaVuSans-31" x="848.095703"/>
     <use xlink:href="#DejaVuSans-2c" x="911.71875"/>
     <use xlink:href="#DejaVuSans-20" x="943.505859"/>
     <use xlink:href="#DejaVuSans-30" x="975.292969"/>
     <use xlink:href="#DejaVuSans-2c" x="1038.916016"/>
     <use xlink:href="#DejaVuSans-20" x="1070.703125"/>
     <use xlink:href="#DejaVuSans-31" x="1102.490234"/>
     <use xlink:href="#DejaVuSans-2c" x="1166.113281"/>
     <use xlink:href="#DejaVuSans-20" x="1197.900391"/>
     <use xlink:href="#DejaVuSans-37" x="1229.6875"/>
     <use xlink:href="#DejaVuSans-29" x="1293.310547"/>
     <use xlink:href="#DejaVuSans-20" x="1332.324219"/>
     <use xlink:href="#DejaVuSans-28" x="1364.111328"/>
     <use xlink:href="#DejaVuSans-52" x="1403.125"/>
     <use xlink:href="#DejaVuSans-32" x="1472.607422"/>
     <use xlink:href="#DejaVuSans-20" x="1536.230469"/>
     <use xlink:href="#DejaVuSans-3d" x="1568.017578"/>
     <use xlink:href="#DejaVuSans-20" x="1651.806641"/>
     <use xlink:href="#DejaVuSans-30" x="1683.59375"/>
     <use xlink:href="#DejaVuSans-2e" x="1747.216797"/>
     <use xlink:href="#DejaVuSans-31" x="1779.003906"/>
     <use xlink:href="#DejaVuSans-32" x="1842.626953"/>
     <use xlink:href="#DejaVuSans-32" x="1906.25"/>
     <use xlink:href="#DejaVuSans-32" x="1969.873047"/>
     <use xlink:href="#DejaVuSans-34" x="2033.496094"/>
     <use xlink:href="#DejaVuSans-37" x="2097.119141"/>
     <use xlink:href="#DejaVuSans-29" x="2160.742188"/>
    </g>
   </g>
   <g id="legend_1">
    <g id="patch_7">
     <path d="M 1274.770313 87.789875 
L 1371.85 87.789875 
Q 1373.85 87.789875 1373.85 85.789875 
L 1373.85 42.7555 
Q 1373.85 40.7555 1371.85 40.7555 
L 1274.770313 40.7555 
Q 1272.770313 40.7555 1272.770313 42.7555 
L 1272.770313 85.789875 
Q 1272.770313 87.789875 1274.770313 87.789875 
z
" style="fill: #ffffff; opacity: 0.8; stroke: #cccccc; stroke-linejoin: miter"/>
    </g>
    <g id="line2d_21">
     <path d="M 1276.770313 48.853937 
L 1286.770313 48.853937 
L 1296.770313 48.853937 
" style="fill: none; stroke: #0000ff; stroke-width: 1.5; stroke-linecap: square"/>
    </g>
    <g id="text_19">
     <!-- Actual Value -->
     <g transform="translate(1304.770313 52.353937)scale(0.1 -0.1)">
      <defs>
       <path id="DejaVuSans-75" d="M 544 1381 
L 544 3500 
L 1119 3500 
L 1119 1403 
Q 1119 906 1312 657 
Q 1506 409 1894 409 
Q 2359 409 2629 706 
Q 2900 1003 2900 1516 
L 2900 3500 
L 3475 3500 
L 3475 0 
L 2900 0 
L 2900 538 
Q 2691 219 2414 64 
Q 2138 -91 1772 -91 
Q 1169 -91 856 284 
Q 544 659 544 1381 
z
M 1991 3584 
L 1991 3584 
z
" transform="scale(0.015625)"/>
       <path id="DejaVuSans-56" d="M 1831 0 
L 50 4666 
L 709 4666 
L 2188 738 
L 3669 4666 
L 4325 4666 
L 2547 0 
L 1831 0 
z
" transform="scale(0.015625)"/>
      </defs>
      <use xlink:href="#DejaVuSans-41"/>
      <use xlink:href="#DejaVuSans-63" x="66.658203"/>
      <use xlink:href="#DejaVuSans-74" x="121.638672"/>
      <use xlink:href="#DejaVuSans-75" x="160.847656"/>
      <use xlink:href="#DejaVuSans-61" x="224.226562"/>
      <use xlink:href="#DejaVuSans-6c" x="285.505859"/>
      <use xlink:href="#DejaVuSans-20" x="313.289062"/>
      <use xlink:href="#DejaVuSans-56" x="345.076172"/>
      <use xlink:href="#DejaVuSans-61" x="405.734375"/>
      <use xlink:href="#DejaVuSans-6c" x="467.013672"/>
      <use xlink:href="#DejaVuSans-75" x="494.796875"/>
      <use xlink:href="#DejaVuSans-65" x="558.175781"/>
     </g>
    </g>
    <g id="line2d_22">
     <path d="M 1276.770313 63.532062 
L 1286.770313 63.532062 
L 1296.770313 63.532062 
" style="fill: none; stroke: #ffa500; stroke-width: 1.5; stroke-linecap: square"/>
    </g>
    <g id="text_20">
     <!-- Check Value -->
     <g transform="translate(1304.770313 67.032062)scale(0.1 -0.1)">
      <defs>
       <path id="DejaVuSans-68" d="M 3513 2113 
L 3513 0 
L 2938 0 
L 2938 2094 
Q 2938 2591 2744 2837 
Q 2550 3084 2163 3084 
Q 1697 3084 1428 2787 
Q 1159 2491 1159 1978 
L 1159 0 
L 581 0 
L 581 4863 
L 1159 4863 
L 1159 2956 
Q 1366 3272 1645 3428 
Q 1925 3584 2291 3584 
Q 2894 3584 3203 3211 
Q 3513 2838 3513 2113 
z
" transform="scale(0.015625)"/>
       <path id="DejaVuSans-6b" d="M 581 4863 
L 1159 4863 
L 1159 1991 
L 2875 3500 
L 3609 3500 
L 1753 1863 
L 3688 0 
L 2938 0 
L 1159 1709 
L 1159 0 
L 581 0 
L 581 4863 
z
" transform="scale(0.015625)"/>
      </defs>
      <use xlink:href="#DejaVuSans-43"/>
      <use xlink:href="#DejaVuSans-68" x="69.824219"/>
      <use xlink:href="#DejaVuSans-65" x="133.203125"/>
      <use xlink:href="#DejaVuSans-63" x="194.726562"/>
      <use xlink:href="#DejaVuSans-6b" x="249.707031"/>
      <use xlink:href="#DejaVuSans-20" x="307.617188"/>
      <use xlink:href="#DejaVuSans-56" x="339.404297"/>
      <use xlink:href="#DejaVuSans-61" x="400.0625"/>
      <use xlink:href="#DejaVuSans-6c" x="461.341797"/>
      <use xlink:href="#DejaVuSans-75" x="489.125"/>
      <use xlink:href="#DejaVuSans-65" x="552.503906"/>
     </g>
    </g>
    <g id="line2d_23">
     <path d="M 1276.770313 78.210187 
L 1286.770313 78.210187 
L 1296.770313 78.210187 
" style="fill: none; stroke: #ff0000; stroke-width: 1.5; stroke-linecap: square"/>
    </g>
    <g id="text_21">
     <!-- Predict Value -->
     <g transform="translate(1304.770313 81.710187)scale(0.1 -0.1)">
      <defs>
       <path id="DejaVuSans-50" d="M 1259 4147 
L 1259 2394 
L 2053 2394 
Q 2494 2394 2734 2622 
Q 2975 2850 2975 3272 
Q 2975 3691 2734 3919 
Q 2494 4147 2053 4147 
L 1259 4147 
z
M 628 4666 
L 2053 4666 
Q 2838 4666 3239 4311 
Q 3641 3956 3641 3272 
Q 3641 2581 3239 2228 
Q 2838 1875 2053 1875 
L 1259 1875 
L 1259 0 
L 628 0 
L 628 4666 
z
" transform="scale(0.015625)"/>
      </defs>
      <use xlink:href="#DejaVuSans-50"/>
      <use xlink:href="#DejaVuSans-72" x="58.552734"/>
      <use xlink:href="#DejaVuSans-65" x="97.416016"/>
      <use xlink:href="#DejaVuSans-64" x="158.939453"/>
      <use xlink:href="#DejaVuSans-69" x="222.416016"/>
      <use xlink:href="#DejaVuSans-63" x="250.199219"/>
      <use xlink:href="#DejaVuSans-74" x="305.179688"/>
      <use xlink:href="#DejaVuSans-20" x="344.388672"/>
      <use xlink:href="#DejaVuSans-56" x="376.175781"/>
      <use xlink:href="#DejaVuSans-61" x="436.833984"/>
      <use xlink:href="#DejaVuSans-6c" x="498.113281"/>
      <use xlink:href="#DejaVuSans-75" x="525.896484"/>
      <use xlink:href="#DejaVuSans-65" x="589.275391"/>
     </g>
    </g>
   </g>
  </g>
 </g>
 <defs>
  <clipPath id="p2b01df4e4c">
   <rect x="39.65" y="35.7555" width="1339.2" height="332.64"/>
  </clipPath>
 </defs>
</svg>
