<?xml version="1.0" encoding="utf-8" standalone="no"?>
<!DOCTYPE svg PUBLIC "-//W3C//DTD SVG 1.1//EN"
  "http://www.w3.org/Graphics/SVG/1.1/DTD/svg11.dtd">
<svg xmlns:xlink="http://www.w3.org/1999/xlink" width="1392.4125pt" height="392.273625pt" viewBox="0 0 1392.4125 392.273625" xmlns="http://www.w3.org/2000/svg" version="1.1">
 <metadata>
  <rdf:RDF xmlns:dc="http://purl.org/dc/elements/1.1/" xmlns:cc="http://creativecommons.org/ns#" xmlns:rdf="http://www.w3.org/1999/02/22-rdf-syntax-ns#">
   <cc:Work>
    <dc:type rdf:resource="http://purl.org/dc/dcmitype/StillImage"/>
    <dc:date>2022-07-04T17:32:12.892785</dc:date>
    <dc:format>image/svg+xml</dc:format>
    <dc:creator>
     <cc:Agent>
      <dc:title>Matplotlib v3.5.2, https://matplotlib.org/</dc:title>
     </cc:Agent>
    </dc:creator>
   </cc:Work>
  </rdf:RDF>
 </metadata>
 <defs>
  <style type="text/css">*{stroke-linejoin: round; stroke-linecap: butt}</style>
 </defs>
 <g id="figure_1">
  <g id="patch_1">
   <path d="M 0 392.273625 
L 1392.4125 392.273625 
L 1392.4125 0 
L 0 0 
z
" style="fill: #ffffff"/>
  </g>
  <g id="axes_1">
   <g id="patch_2">
    <path d="M 46.0125 368.3955 
L 1385.2125 368.3955 
L 1385.2125 35.7555 
L 46.0125 35.7555 
z
" style="fill: #ffffff"/>
   </g>
   <g id="matplotlib.axis_1">
    <g id="xtick_1">
     <g id="line2d_1">
      <defs>
       <path id="m30b43b925e" d="M 0 0 
L 0 3.5 
" style="stroke: #000000; stroke-width: 0.8"/>
      </defs>
      <g>
       <use xlink:href="#m30b43b925e" x="77.289647" y="368.3955" style="stroke: #000000; stroke-width: 0.8"/>
      </g>
     </g>
     <g id="text_1">
      <!-- 2020-01 -->
      <g transform="translate(56.398241 382.993937)scale(0.1 -0.1)">
       <defs>
        <path id="DejaVuSans-32" d="M 1228 531 
L 3431 531 
L 3431 0 
L 469 0 
L 469 531 
Q 828 903 1448 1529 
Q 2069 2156 2228 2338 
Q 2531 2678 2651 2914 
Q 2772 3150 2772 3378 
Q 2772 3750 2511 3984 
Q 2250 4219 1831 4219 
Q 1534 4219 1204 4116 
Q 875 4013 500 3803 
L 500 4441 
Q 881 4594 1212 4672 
Q 1544 4750 1819 4750 
Q 2544 4750 2975 4387 
Q 3406 4025 3406 3419 
Q 3406 3131 3298 2873 
Q 3191 2616 2906 2266 
Q 2828 2175 2409 1742 
Q 1991 1309 1228 531 
z
" transform="scale(0.015625)"/>
        <path id="DejaVuSans-30" d="M 2034 4250 
Q 1547 4250 1301 3770 
Q 1056 3291 1056 2328 
Q 1056 1369 1301 889 
Q 1547 409 2034 409 
Q 2525 409 2770 889 
Q 3016 1369 3016 2328 
Q 3016 3291 2770 3770 
Q 2525 4250 2034 4250 
z
M 2034 4750 
Q 2819 4750 3233 4129 
Q 3647 3509 3647 2328 
Q 3647 1150 3233 529 
Q 2819 -91 2034 -91 
Q 1250 -91 836 529 
Q 422 1150 422 2328 
Q 422 3509 836 4129 
Q 1250 4750 2034 4750 
z
" transform="scale(0.015625)"/>
        <path id="DejaVuSans-2d" d="M 313 2009 
L 1997 2009 
L 1997 1497 
L 313 1497 
L 313 2009 
z
" transform="scale(0.015625)"/>
        <path id="DejaVuSans-31" d="M 794 531 
L 1825 531 
L 1825 4091 
L 703 3866 
L 703 4441 
L 1819 4666 
L 2450 4666 
L 2450 531 
L 3481 531 
L 3481 0 
L 794 0 
L 794 531 
z
" transform="scale(0.015625)"/>
       </defs>
       <use xlink:href="#DejaVuSans-32"/>
       <use xlink:href="#DejaVuSans-30" x="63.623047"/>
       <use xlink:href="#DejaVuSans-32" x="127.246094"/>
       <use xlink:href="#DejaVuSans-30" x="190.869141"/>
       <use xlink:href="#DejaVuSans-2d" x="254.492188"/>
       <use xlink:href="#DejaVuSans-30" x="290.576172"/>
       <use xlink:href="#DejaVuSans-31" x="354.199219"/>
      </g>
     </g>
    </g>
    <g id="xtick_2">
     <g id="line2d_2">
      <g>
       <use xlink:href="#m30b43b925e" x="199.707729" y="368.3955" style="stroke: #000000; stroke-width: 0.8"/>
      </g>
     </g>
     <g id="text_2">
      <!-- 2020-04 -->
      <g transform="translate(178.816322 382.993937)scale(0.1 -0.1)">
       <defs>
        <path id="DejaVuSans-34" d="M 2419 4116 
L 825 1625 
L 2419 1625 
L 2419 4116 
z
M 2253 4666 
L 3047 4666 
L 3047 1625 
L 3713 1625 
L 3713 1100 
L 3047 1100 
L 3047 0 
L 2419 0 
L 2419 1100 
L 313 1100 
L 313 1709 
L 2253 4666 
z
" transform="scale(0.015625)"/>
       </defs>
       <use xlink:href="#DejaVuSans-32"/>
       <use xlink:href="#DejaVuSans-30" x="63.623047"/>
       <use xlink:href="#DejaVuSans-32" x="127.246094"/>
       <use xlink:href="#DejaVuSans-30" x="190.869141"/>
       <use xlink:href="#DejaVuSans-2d" x="254.492188"/>
       <use xlink:href="#DejaVuSans-30" x="290.576172"/>
       <use xlink:href="#DejaVuSans-34" x="354.199219"/>
      </g>
     </g>
    </g>
    <g id="xtick_3">
     <g id="line2d_3">
      <g>
       <use xlink:href="#m30b43b925e" x="322.12581" y="368.3955" style="stroke: #000000; stroke-width: 0.8"/>
      </g>
     </g>
     <g id="text_3">
      <!-- 2020-07 -->
      <g transform="translate(301.234404 382.993937)scale(0.1 -0.1)">
       <defs>
        <path id="DejaVuSans-37" d="M 525 4666 
L 3525 4666 
L 3525 4397 
L 1831 0 
L 1172 0 
L 2766 4134 
L 525 4134 
L 525 4666 
z
" transform="scale(0.015625)"/>
       </defs>
       <use xlink:href="#DejaVuSans-32"/>
       <use xlink:href="#DejaVuSans-30" x="63.623047"/>
       <use xlink:href="#DejaVuSans-32" x="127.246094"/>
       <use xlink:href="#DejaVuSans-30" x="190.869141"/>
       <use xlink:href="#DejaVuSans-2d" x="254.492188"/>
       <use xlink:href="#DejaVuSans-30" x="290.576172"/>
       <use xlink:href="#DejaVuSans-37" x="354.199219"/>
      </g>
     </g>
    </g>
    <g id="xtick_4">
     <g id="line2d_4">
      <g>
       <use xlink:href="#m30b43b925e" x="445.889145" y="368.3955" style="stroke: #000000; stroke-width: 0.8"/>
      </g>
     </g>
     <g id="text_4">
      <!-- 2020-10 -->
      <g transform="translate(424.997739 382.993937)scale(0.1 -0.1)">
       <use xlink:href="#DejaVuSans-32"/>
       <use xlink:href="#DejaVuSans-30" x="63.623047"/>
       <use xlink:href="#DejaVuSans-32" x="127.246094"/>
       <use xlink:href="#DejaVuSans-30" x="190.869141"/>
       <use xlink:href="#DejaVuSans-2d" x="254.492188"/>
       <use xlink:href="#DejaVuSans-31" x="290.576172"/>
       <use xlink:href="#DejaVuSans-30" x="354.199219"/>
      </g>
     </g>
    </g>
    <g id="xtick_5">
     <g id="line2d_5">
      <g>
       <use xlink:href="#m30b43b925e" x="569.65248" y="368.3955" style="stroke: #000000; stroke-width: 0.8"/>
      </g>
     </g>
     <g id="text_5">
      <!-- 2021-01 -->
      <g transform="translate(548.761074 382.993937)scale(0.1 -0.1)">
       <use xlink:href="#DejaVuSans-32"/>
       <use xlink:href="#DejaVuSans-30" x="63.623047"/>
       <use xlink:href="#DejaVuSans-32" x="127.246094"/>
       <use xlink:href="#DejaVuSans-31" x="190.869141"/>
       <use xlink:href="#DejaVuSans-2d" x="254.492188"/>
       <use xlink:href="#DejaVuSans-30" x="290.576172"/>
       <use xlink:href="#DejaVuSans-31" x="354.199219"/>
      </g>
     </g>
    </g>
    <g id="xtick_6">
     <g id="line2d_6">
      <g>
       <use xlink:href="#m30b43b925e" x="690.725308" y="368.3955" style="stroke: #000000; stroke-width: 0.8"/>
      </g>
     </g>
     <g id="text_6">
      <!-- 2021-04 -->
      <g transform="translate(669.833901 382.993937)scale(0.1 -0.1)">
       <use xlink:href="#DejaVuSans-32"/>
       <use xlink:href="#DejaVuSans-30" x="63.623047"/>
       <use xlink:href="#DejaVuSans-32" x="127.246094"/>
       <use xlink:href="#DejaVuSans-31" x="190.869141"/>
       <use xlink:href="#DejaVuSans-2d" x="254.492188"/>
       <use xlink:href="#DejaVuSans-30" x="290.576172"/>
       <use xlink:href="#DejaVuSans-34" x="354.199219"/>
      </g>
     </g>
    </g>
    <g id="xtick_7">
     <g id="line2d_7">
      <g>
       <use xlink:href="#m30b43b925e" x="813.143389" y="368.3955" style="stroke: #000000; stroke-width: 0.8"/>
      </g>
     </g>
     <g id="text_7">
      <!-- 2021-07 -->
      <g transform="translate(792.251983 382.993937)scale(0.1 -0.1)">
       <use xlink:href="#DejaVuSans-32"/>
       <use xlink:href="#DejaVuSans-30" x="63.623047"/>
       <use xlink:href="#DejaVuSans-32" x="127.246094"/>
       <use xlink:href="#DejaVuSans-31" x="190.869141"/>
       <use xlink:href="#DejaVuSans-2d" x="254.492188"/>
       <use xlink:href="#DejaVuSans-30" x="290.576172"/>
       <use xlink:href="#DejaVuSans-37" x="354.199219"/>
      </g>
     </g>
    </g>
    <g id="xtick_8">
     <g id="line2d_8">
      <g>
       <use xlink:href="#m30b43b925e" x="936.906724" y="368.3955" style="stroke: #000000; stroke-width: 0.8"/>
      </g>
     </g>
     <g id="text_8">
      <!-- 2021-10 -->
      <g transform="translate(916.015318 382.993937)scale(0.1 -0.1)">
       <use xlink:href="#DejaVuSans-32"/>
       <use xlink:href="#DejaVuSans-30" x="63.623047"/>
       <use xlink:href="#DejaVuSans-32" x="127.246094"/>
       <use xlink:href="#DejaVuSans-31" x="190.869141"/>
       <use xlink:href="#DejaVuSans-2d" x="254.492188"/>
       <use xlink:href="#DejaVuSans-31" x="290.576172"/>
       <use xlink:href="#DejaVuSans-30" x="354.199219"/>
      </g>
     </g>
    </g>
    <g id="xtick_9">
     <g id="line2d_9">
      <g>
       <use xlink:href="#m30b43b925e" x="1060.670059" y="368.3955" style="stroke: #000000; stroke-width: 0.8"/>
      </g>
     </g>
     <g id="text_9">
      <!-- 2022-01 -->
      <g transform="translate(1039.778653 382.993937)scale(0.1 -0.1)">
       <use xlink:href="#DejaVuSans-32"/>
       <use xlink:href="#DejaVuSans-30" x="63.623047"/>
       <use xlink:href="#DejaVuSans-32" x="127.246094"/>
       <use xlink:href="#DejaVuSans-32" x="190.869141"/>
       <use xlink:href="#DejaVuSans-2d" x="254.492188"/>
       <use xlink:href="#DejaVuSans-30" x="290.576172"/>
       <use xlink:href="#DejaVuSans-31" x="354.199219"/>
      </g>
     </g>
    </g>
    <g id="xtick_10">
     <g id="line2d_10">
      <g>
       <use xlink:href="#m30b43b925e" x="1181.742887" y="368.3955" style="stroke: #000000; stroke-width: 0.8"/>
      </g>
     </g>
     <g id="text_10">
      <!-- 2022-04 -->
      <g transform="translate(1160.85148 382.993937)scale(0.1 -0.1)">
       <use xlink:href="#DejaVuSans-32"/>
       <use xlink:href="#DejaVuSans-30" x="63.623047"/>
       <use xlink:href="#DejaVuSans-32" x="127.246094"/>
       <use xlink:href="#DejaVuSans-32" x="190.869141"/>
       <use xlink:href="#DejaVuSans-2d" x="254.492188"/>
       <use xlink:href="#DejaVuSans-30" x="290.576172"/>
       <use xlink:href="#DejaVuSans-34" x="354.199219"/>
      </g>
     </g>
    </g>
    <g id="xtick_11">
     <g id="line2d_11">
      <g>
       <use xlink:href="#m30b43b925e" x="1304.160968" y="368.3955" style="stroke: #000000; stroke-width: 0.8"/>
      </g>
     </g>
     <g id="text_11">
      <!-- 2022-07 -->
      <g transform="translate(1283.269562 382.993937)scale(0.1 -0.1)">
       <use xlink:href="#DejaVuSans-32"/>
       <use xlink:href="#DejaVuSans-30" x="63.623047"/>
       <use xlink:href="#DejaVuSans-32" x="127.246094"/>
       <use xlink:href="#DejaVuSans-32" x="190.869141"/>
       <use xlink:href="#DejaVuSans-2d" x="254.492188"/>
       <use xlink:href="#DejaVuSans-30" x="290.576172"/>
       <use xlink:href="#DejaVuSans-37" x="354.199219"/>
      </g>
     </g>
    </g>
   </g>
   <g id="matplotlib.axis_2">
    <g id="ytick_1">
     <g id="line2d_12">
      <defs>
       <path id="mb6d8d52a28" d="M 0 0 
L -3.5 0 
" style="stroke: #000000; stroke-width: 0.8"/>
      </defs>
      <g>
       <use xlink:href="#mb6d8d52a28" x="46.0125" y="330.045788" style="stroke: #000000; stroke-width: 0.8"/>
      </g>
     </g>
     <g id="text_12">
      <!-- 0 -->
      <g transform="translate(32.65 333.845007)scale(0.1 -0.1)">
       <use xlink:href="#DejaVuSans-30"/>
      </g>
     </g>
    </g>
    <g id="ytick_2">
     <g id="line2d_13">
      <g>
       <use xlink:href="#mb6d8d52a28" x="46.0125" y="267.474001" style="stroke: #000000; stroke-width: 0.8"/>
      </g>
     </g>
     <g id="text_13">
      <!-- 10000 -->
      <g transform="translate(7.2 271.273219)scale(0.1 -0.1)">
       <use xlink:href="#DejaVuSans-31"/>
       <use xlink:href="#DejaVuSans-30" x="63.623047"/>
       <use xlink:href="#DejaVuSans-30" x="127.246094"/>
       <use xlink:href="#DejaVuSans-30" x="190.869141"/>
       <use xlink:href="#DejaVuSans-30" x="254.492188"/>
      </g>
     </g>
    </g>
    <g id="ytick_3">
     <g id="line2d_14">
      <g>
       <use xlink:href="#mb6d8d52a28" x="46.0125" y="204.902213" style="stroke: #000000; stroke-width: 0.8"/>
      </g>
     </g>
     <g id="text_14">
      <!-- 20000 -->
      <g transform="translate(7.2 208.701432)scale(0.1 -0.1)">
       <use xlink:href="#DejaVuSans-32"/>
       <use xlink:href="#DejaVuSans-30" x="63.623047"/>
       <use xlink:href="#DejaVuSans-30" x="127.246094"/>
       <use xlink:href="#DejaVuSans-30" x="190.869141"/>
       <use xlink:href="#DejaVuSans-30" x="254.492188"/>
      </g>
     </g>
    </g>
    <g id="ytick_4">
     <g id="line2d_15">
      <g>
       <use xlink:href="#mb6d8d52a28" x="46.0125" y="142.330425" style="stroke: #000000; stroke-width: 0.8"/>
      </g>
     </g>
     <g id="text_15">
      <!-- 30000 -->
      <g transform="translate(7.2 146.129644)scale(0.1 -0.1)">
       <defs>
        <path id="DejaVuSans-33" d="M 2597 2516 
Q 3050 2419 3304 2112 
Q 3559 1806 3559 1356 
Q 3559 666 3084 287 
Q 2609 -91 1734 -91 
Q 1441 -91 1130 -33 
Q 819 25 488 141 
L 488 750 
Q 750 597 1062 519 
Q 1375 441 1716 441 
Q 2309 441 2620 675 
Q 2931 909 2931 1356 
Q 2931 1769 2642 2001 
Q 2353 2234 1838 2234 
L 1294 2234 
L 1294 2753 
L 1863 2753 
Q 2328 2753 2575 2939 
Q 2822 3125 2822 3475 
Q 2822 3834 2567 4026 
Q 2313 4219 1838 4219 
Q 1578 4219 1281 4162 
Q 984 4106 628 3988 
L 628 4550 
Q 988 4650 1302 4700 
Q 1616 4750 1894 4750 
Q 2613 4750 3031 4423 
Q 3450 4097 3450 3541 
Q 3450 3153 3228 2886 
Q 3006 2619 2597 2516 
z
" transform="scale(0.015625)"/>
       </defs>
       <use xlink:href="#DejaVuSans-33"/>
       <use xlink:href="#DejaVuSans-30" x="63.623047"/>
       <use xlink:href="#DejaVuSans-30" x="127.246094"/>
       <use xlink:href="#DejaVuSans-30" x="190.869141"/>
       <use xlink:href="#DejaVuSans-30" x="254.492188"/>
      </g>
     </g>
    </g>
    <g id="ytick_5">
     <g id="line2d_16">
      <g>
       <use xlink:href="#mb6d8d52a28" x="46.0125" y="79.758637" style="stroke: #000000; stroke-width: 0.8"/>
      </g>
     </g>
     <g id="text_16">
      <!-- 40000 -->
      <g transform="translate(7.2 83.557856)scale(0.1 -0.1)">
       <use xlink:href="#DejaVuSans-34"/>
       <use xlink:href="#DejaVuSans-30" x="63.623047"/>
       <use xlink:href="#DejaVuSans-30" x="127.246094"/>
       <use xlink:href="#DejaVuSans-30" x="190.869141"/>
       <use xlink:href="#DejaVuSans-30" x="254.492188"/>
      </g>
     </g>
    </g>
   </g>
   <g id="line2d_17">
    <path d="M 106.885227 330.045788 
L 176.838417 330.045788 
L 178.18367 329.845559 
L 179.528924 330.008245 
L 180.874178 329.933159 
L 182.219431 329.970702 
L 187.600446 329.626557 
L 188.945699 329.876845 
L 190.290953 329.889359 
L 191.636207 329.682872 
L 194.326714 329.764215 
L 197.017221 329.589014 
L 198.362475 329.714158 
L 201.052982 329.714158 
L 202.398236 329.757958 
L 203.743489 329.563986 
L 206.433997 329.726672 
L 207.77925 329.526443 
L 213.160265 329.476385 
L 214.505519 328.831896 
L 215.850772 330.045788 
L 217.196026 329.582757 
L 218.54128 329.33247 
L 219.886533 330.045788 
L 221.231787 328.412665 
L 222.57704 329.176041 
L 223.922294 329.125983 
L 226.612801 329.438842 
L 229.303309 328.669209 
L 231.993816 328.412665 
L 233.33907 329.069669 
L 234.684323 328.738038 
L 236.029577 327.730632 
L 237.37483 327.148715 
L 238.720084 326.967256 
L 240.065338 326.329024 
L 241.410591 326.904685 
L 242.755845 327.348944 
L 244.101099 326.472939 
L 245.446352 326.185109 
L 246.791606 325.490562 
L 248.13686 325.127646 
L 249.482113 325.521848 
L 250.827367 325.653249 
L 252.172621 327.036085 
L 253.517874 326.741998 
L 254.863128 325.697049 
L 256.208381 327.399002 
L 257.553635 326.80457 
L 258.898889 325.008759 
L 260.244142 325.484305 
L 261.589396 325.67202 
L 262.93465 325.640735 
L 264.279903 325.934822 
L 265.625157 326.034937 
L 266.970411 326.729484 
L 268.315664 325.008759 
L 269.660918 324.789758 
L 271.006172 325.490562 
L 272.351425 325.402962 
L 273.696679 326.009908 
L 275.041932 326.89217 
L 276.387186 327.023571 
L 277.73244 326.391596 
L 279.077693 325.922308 
L 280.422947 325.91605 
L 281.768201 327.805718 
L 283.113454 328.168635 
L 284.458708 327.78069 
L 285.803962 327.524145 
L 287.149215 325.621963 
L 288.494469 326.785798 
L 289.839723 327.636775 
L 292.53023 328.174892 
L 293.875483 327.880805 
L 295.220737 327.248829 
L 296.565991 327.0486 
L 297.911244 327.686832 
L 300.601752 328.656695 
L 301.947005 328.863182 
L 303.292259 327.455316 
L 305.982766 327.818233 
L 307.32802 327.317658 
L 308.673273 327.211286 
L 310.018527 328.124835 
L 311.363781 328.531551 
L 314.054288 327.793204 
L 315.399542 326.960999 
L 316.744795 327.436545 
L 318.090049 326.817084 
L 319.435303 328.093549 
L 320.780556 327.280115 
L 322.12581 327.461574 
L 323.471064 326.954742 
L 324.816317 327.455316 
L 326.161571 330.045788 
L 327.506824 326.842113 
L 328.852078 327.33643 
L 330.197332 326.51674 
L 331.542585 327.192515 
L 332.887839 326.454168 
L 334.233093 326.266452 
L 335.578346 325.015017 
L 336.9236 325.603191 
L 338.268854 326.973514 
L 339.614107 327.555431 
L 340.959361 326.466682 
L 342.304615 326.260195 
L 343.649868 325.878507 
L 344.995122 327.186258 
L 346.340375 325.453019 
L 347.685629 324.395556 
L 349.030883 327.855776 
L 350.376136 326.89217 
L 351.72139 325.290333 
L 353.066644 325.246532 
L 354.411897 325.021274 
L 355.757151 324.6521 
L 357.102405 325.978622 
L 358.447658 327.054857 
L 359.792912 325.878507 
L 361.138165 325.38419 
L 362.483419 325.221504 
L 363.828673 325.509334 
L 365.173926 325.29659 
L 366.51918 326.210138 
L 367.864434 326.278967 
L 369.209687 326.185109 
L 370.554941 324.658357 
L 371.900195 326.635626 
L 373.245448 324.314213 
L 374.590702 325.058817 
L 375.935956 326.178852 
L 377.281209 328.02472 
L 378.626463 327.142457 
L 379.971716 325.728335 
L 381.31697 325.478048 
L 382.662224 325.728335 
L 384.007477 325.421733 
L 386.697985 327.693089 
L 390.733746 324.883616 
L 392.078999 325.453019 
L 394.769507 325.578163 
L 396.11476 327.486602 
L 397.460014 326.735741 
L 398.805267 322.825004 
L 400.150521 324.727186 
L 401.495775 323.682238 
L 402.841028 324.214098 
L 404.186282 325.822193 
L 405.531536 326.973514 
L 406.876789 325.478048 
L 408.222043 323.550837 
L 409.567297 324.770987 
L 410.91255 324.326727 
L 412.257804 325.621963 
L 413.603058 326.053708 
L 414.948311 327.649289 
L 416.293565 328.418922 
L 417.638818 327.661803 
L 418.984072 327.123686 
L 420.329326 324.589529 
L 421.674579 325.521848 
L 423.019833 326.053708 
L 424.365087 327.530403 
L 425.71034 327.154972 
L 427.055594 324.358013 
L 428.400848 323.256749 
L 429.746101 324.326727 
L 431.091355 321.936485 
L 432.436608 324.257898 
L 433.781862 327.042343 
L 435.127116 325.803421 
L 436.472369 324.339241 
L 439.162877 320.847736 
L 440.50813 323.319321 
L 441.853384 324.389299 
L 443.198638 324.983731 
L 444.543891 325.747107 
L 445.889145 323.375636 
L 447.234399 322.749918 
L 448.579652 321.154337 
L 449.924906 323.54458 
L 451.270159 323.957553 
L 453.960667 324.345499 
L 455.30592 322.092914 
L 457.996428 320.559905 
L 459.341681 321.035451 
L 460.686935 322.718632 
L 462.032189 322.94389 
L 463.377442 321.479711 
L 464.722696 322.768689 
L 466.06795 315.716849 
L 467.413203 319.446128 
L 468.758457 319.270927 
L 470.10371 319.865359 
L 471.448964 323.212949 
L 472.794218 323.413179 
L 474.139471 320.278332 
L 475.484725 319.339756 
L 476.829979 315.910822 
L 478.175232 319.533728 
L 479.520486 320.222018 
L 480.86574 316.505254 
L 482.210993 318.107091 
L 483.556247 312.106457 
L 484.901501 310.310647 
L 486.246754 311.230452 
L 487.592008 316.279995 
L 488.937261 311.599625 
L 490.282515 308.295835 
L 491.627769 306.099565 
L 492.973022 305.37999 
L 494.318276 295.994221 
L 495.66353 300.968679 
L 497.008783 293.078376 
L 498.354037 305.480105 
L 499.699291 299.429413 
L 501.044544 299.454441 
L 502.389798 284.837672 
L 503.735051 295.355989 
L 505.080305 275.677162 
L 506.425559 282.785317 
L 507.770812 283.51115 
L 509.116066 292.934461 
L 510.46132 298.17172 
L 511.806573 280.845592 
L 513.151827 287.534516 
L 514.497081 290.925907 
L 515.842334 284.962815 
L 517.187588 290.356503 
L 518.532842 289.899729 
L 519.878095 290.081188 
L 521.223349 330.045788 
L 522.568602 294.392384 
L 523.913856 273.593521 
L 525.25911 274.069067 
L 526.604363 293.791695 
L 527.949617 307.839061 
L 529.294871 297.72746 
L 530.640124 291.570396 
L 531.985378 296.588653 
L 533.330632 290.575505 
L 534.675885 295.124474 
L 536.021139 296.945313 
L 537.366393 310.955136 
L 538.711646 301.788369 
L 540.0569 308.15192 
L 541.402153 306.581368 
L 542.747407 302.326486 
L 544.092661 308.614951 
L 545.437914 311.161623 
L 546.783168 315.510362 
L 548.128422 315.979651 
L 549.473675 312.782232 
L 550.818929 313.038776 
L 552.164183 312.863575 
L 553.509436 313.251521 
L 554.85469 317.581488 
L 556.199943 319.408584 
L 557.545197 320.609963 
L 558.890451 318.257264 
L 560.235704 330.045788 
L 561.580958 316.642911 
L 562.926212 314.302727 
L 564.271465 323.306807 
L 565.616719 323.963811 
L 566.961973 317.550202 
L 568.307226 316.311281 
L 569.65248 330.045788 
L 570.997734 314.215126 
L 572.342987 313.07632 
L 573.688241 310.373218 
L 575.033494 320.203246 
L 576.378748 315.491591 
L 577.724002 317.637803 
L 579.069255 315.191246 
L 580.414509 314.596814 
L 581.759763 316.536539 
L 583.105016 323.913753 
L 584.45027 321.817598 
L 585.795524 320.741364 
L 587.140777 320.153189 
L 588.486031 319.865359 
L 591.176538 321.704969 
L 592.521792 323.982582 
L 593.867045 324.295441 
L 595.212299 322.387002 
L 596.557553 322.099171 
L 597.902806 320.622477 
L 599.24806 320.409733 
L 601.938567 325.077588 
L 603.283821 325.621963 
L 604.629075 324.871102 
L 605.974328 321.811341 
L 607.319582 323.075291 
L 608.664836 323.338093 
L 610.010089 323.863696 
L 611.355343 325.534362 
L 612.700596 326.266452 
L 614.04585 326.078737 
L 615.391104 321.223166 
L 616.736357 323.488265 
L 618.081611 323.83241 
L 619.426865 324.40807 
L 620.772118 326.51674 
L 622.117372 326.466682 
L 623.462626 325.972365 
L 624.807879 324.426842 
L 626.153133 323.488265 
L 627.498386 324.16404 
L 631.534147 327.217544 
L 632.879401 325.302847 
L 634.224655 324.332984 
L 635.569908 323.819896 
L 636.915162 324.602043 
L 638.260416 324.545728 
L 639.605669 326.573054 
L 640.950923 326.917199 
L 643.64143 323.87621 
L 644.986684 322.868804 
L 646.331937 324.964959 
L 647.677191 325.015017 
L 649.022445 326.066223 
L 650.367698 327.386487 
L 651.712952 325.171446 
L 653.058206 324.16404 
L 654.403459 325.065074 
L 655.748713 324.126497 
L 657.093967 324.445613 
L 658.43922 327.0924 
L 659.784474 319.877873 
L 661.129728 324.383042 
L 662.474981 323.206692 
L 663.820235 323.150377 
L 665.165488 322.618517 
L 667.855996 324.877359 
L 669.201249 325.615706 
L 670.546503 323.563351 
L 671.891757 320.685049 
L 674.582264 321.410882 
L 675.927518 324.095211 
L 677.272771 322.837518 
L 678.618025 324.695901 
L 679.963279 321.848884 
L 681.308532 318.426207 
L 682.653786 319.414842 
L 683.999039 319.183326 
L 685.344293 322.380744 
L 686.689547 320.347161 
L 688.0348 322.0804 
L 689.380054 319.733958 
L 690.725308 316.66794 
L 692.070561 314.177583 
L 693.415815 317.130971 
L 694.761069 330.045788 
L 696.106322 321.39211 
L 697.451576 311.199166 
L 698.796829 317.55646 
L 700.142083 314.252669 
L 701.487337 313.489293 
L 702.83259 314.721958 
L 704.177844 318.933039 
L 705.523098 317.575231 
L 706.868351 321.54854 
L 708.213605 319.427356 
L 709.558859 312.969948 
L 710.904112 315.735621 
L 712.249366 314.909673 
L 714.939873 322.011571 
L 716.285127 322.631032 
L 717.63038 320.034302 
L 718.975634 317.719146 
L 720.320888 316.505254 
L 721.666141 316.886941 
L 723.011395 320.309618 
L 724.356649 322.555945 
L 725.701902 323.30055 
L 728.39241 318.075805 
L 729.737663 318.319835 
L 731.082917 319.333498 
L 732.428171 319.339756 
L 733.773424 323.131606 
L 735.118678 323.819896 
L 736.463931 322.28063 
L 737.809185 319.715186 
L 739.154439 320.972879 
L 740.499692 322.024085 
L 741.844946 325.021274 
L 743.1902 322.599746 
L 744.535453 326.447911 
L 745.880707 324.358013 
L 747.225961 323.732295 
L 748.571214 321.88017 
L 749.916468 324.589529 
L 751.261721 325.008759 
L 752.606975 326.36031 
L 753.952229 326.817084 
L 755.297482 325.953593 
L 756.642736 324.627072 
L 757.98799 325.797164 
L 759.333243 326.31651 
L 760.678497 327.298887 
L 762.023751 327.117429 
L 763.369004 328.525294 
L 764.714258 327.342687 
L 766.059512 326.923456 
L 767.404765 327.799461 
L 768.750019 327.930862 
L 770.095272 328.300036 
L 771.440526 330.045788 
L 772.78578 329.213584 
L 774.131033 329.24487 
L 775.476287 328.569094 
L 776.821541 328.462722 
L 778.166794 328.206178 
L 779.512048 328.431436 
L 782.202555 329.263641 
L 786.238316 329.038383 
L 790.274077 329.319956 
L 791.619331 329.482642 
L 792.964584 329.507671 
L 794.309838 329.219841 
L 795.655092 329.37627 
L 797.000345 329.326213 
L 802.38136 329.601529 
L 803.726614 329.28867 
L 806.417121 329.614043 
L 807.762374 329.438842 
L 810.452882 329.551471 
L 811.798135 329.6203 
L 815.833896 329.351242 
L 817.17915 330.045788 
L 818.524404 330.045788 
L 819.869657 329.151012 
L 821.214911 328.60038 
L 822.560164 329.269898 
L 823.905418 329.176041 
L 825.250672 330.045788 
L 826.595925 330.045788 
L 829.286433 327.630517 
L 830.631686 328.80061 
L 831.97694 328.738038 
L 833.322194 328.506522 
L 834.667447 330.045788 
L 836.012701 330.045788 
L 837.357955 328.418922 
L 838.703208 326.16008 
L 840.048462 328.337579 
L 841.393715 327.930862 
L 842.738969 327.724375 
L 844.084223 330.045788 
L 845.429476 330.045788 
L 846.77473 327.399002 
L 848.119984 323.607151 
L 849.465237 326.172595 
L 850.810491 326.64814 
L 852.155745 325.665763 
L 853.500998 330.045788 
L 854.846252 330.045788 
L 856.191506 326.141309 
L 857.536759 319.627586 
L 858.882013 324.207841 
L 860.227266 324.658357 
L 861.57252 323.763581 
L 862.917774 330.045788 
L 864.263027 330.045788 
L 865.608281 323.050263 
L 866.953535 319.502442 
L 868.298788 319.877873 
L 869.644042 321.842627 
L 870.989296 321.761284 
L 872.334549 330.045788 
L 873.679803 330.045788 
L 875.025057 320.916565 
L 876.37031 310.998936 
L 877.715564 322.799975 
L 879.060817 321.623626 
L 880.406071 319.421099 
L 881.751325 330.045788 
L 883.096578 330.045788 
L 884.441832 319.621329 
L 885.787086 306.036993 
L 887.132339 321.285738 
L 888.477593 318.601408 
L 889.822847 318.144634 
L 891.1681 330.045788 
L 892.513354 330.045788 
L 895.203861 305.830507 
L 896.549115 321.135566 
L 897.894368 318.157149 
L 899.239622 316.717998 
L 900.584876 330.045788 
L 903.275383 330.045788 
L 904.620637 317.0684 
L 905.96589 294.029467 
L 907.311144 322.468345 
L 908.656398 317.299915 
L 910.001651 330.045788 
L 911.346905 330.045788 
L 912.692158 313.276549 
L 914.037412 301.27528 
L 915.382666 312.957433 
L 916.727919 314.571785 
L 918.073173 313.558122 
L 919.418427 330.045788 
L 920.76368 330.045788 
L 922.108934 314.6719 
L 923.454188 290.494161 
L 924.799441 319.79653 
L 926.144695 315.710592 
L 927.489949 312.137743 
L 928.835202 330.045788 
L 930.180456 330.045788 
L 931.525709 312.625803 
L 932.870963 291.301337 
L 934.216217 317.143486 
L 936.906724 306.919256 
L 938.251978 330.045788 
L 939.597231 330.045788 
L 942.287739 285.469647 
L 943.632992 305.749163 
L 944.978246 313.357893 
L 946.323499 307.238372 
L 947.668753 330.045788 
L 949.014007 330.045788 
L 950.35926 310.041588 
L 951.704514 280.457647 
L 953.049768 315.178732 
L 954.395021 311.799855 
L 955.740275 309.140554 
L 957.085529 330.045788 
L 958.430782 330.045788 
L 961.12129 294.611385 
L 962.466543 318.495036 
L 963.811797 315.335161 
L 965.15705 316.692969 
L 966.502304 330.045788 
L 967.847558 330.045788 
L 969.192811 311.393138 
L 970.538065 289.236468 
L 971.883319 318.789124 
L 973.228572 313.245263 
L 974.573826 309.290726 
L 975.91908 330.045788 
L 977.264333 330.045788 
L 978.609587 264.758385 
L 979.954841 286.051564 
L 981.300094 311.643426 
L 982.645348 306.906741 
L 983.990601 309.059211 
L 985.335855 330.045788 
L 986.681109 330.045788 
L 988.026362 303.571665 
L 989.371616 285.213102 
L 990.71687 297.101742 
L 992.062123 298.021547 
L 993.407377 299.773557 
L 994.752631 330.045788 
L 996.097884 330.045788 
L 998.788392 261.817511 
L 1000.133645 308.496065 
L 1001.478899 299.886187 
L 1002.824152 297.833832 
L 1004.169406 330.045788 
L 1005.51466 330.045788 
L 1006.859913 300.549448 
L 1008.205167 258.394834 
L 1009.550421 306.700254 
L 1010.895674 330.045788 
L 1012.240928 304.20364 
L 1013.586182 330.045788 
L 1014.931435 330.045788 
L 1016.276689 301.825912 
L 1017.621942 251.011363 
L 1018.967196 307.695146 
L 1020.31245 296.838941 
L 1021.657703 294.492499 
L 1023.002957 330.045788 
L 1024.348211 330.045788 
L 1027.038718 252.331628 
L 1028.383972 310.992679 
L 1029.729225 306.631425 
L 1031.074479 301.594396 
L 1032.419733 330.045788 
L 1033.764986 330.045788 
L 1035.11024 307.232115 
L 1036.455493 273.57475 
L 1037.800747 316.173623 
L 1039.146001 306.393653 
L 1040.491254 306.043251 
L 1041.836508 330.045788 
L 1043.181762 330.045788 
L 1044.527015 308.890267 
L 1045.872269 283.849037 
L 1047.217523 312.500659 
L 1048.562776 308.940324 
L 1049.90803 330.045788 
L 1052.598537 330.045788 
L 1053.943791 304.15984 
L 1055.289044 268.324977 
L 1056.634298 297.445887 
L 1057.979552 287.640888 
L 1059.324805 330.045788 
L 1062.015313 330.045788 
L 1063.360566 287.659659 
L 1064.70582 228.779607 
L 1066.051074 304.141068 
L 1067.396327 286.708568 
L 1068.741581 281.058336 
L 1070.086835 330.045788 
L 1071.432088 330.045788 
L 1072.777342 261.448337 
L 1074.122595 145.671758 
L 1075.467849 263.068947 
L 1076.813103 258.09449 
L 1078.158356 257.781631 
L 1079.50361 330.045788 
L 1082.194117 330.045788 
L 1083.539371 263.456892 
L 1084.884625 50.8755 
L 1086.229878 258.557521 
L 1087.575132 256.179793 
L 1088.920385 330.045788 
L 1090.265639 330.045788 
L 1091.610893 250.517046 
L 1092.956146 107.972256 
L 1094.3014 232.652801 
L 1095.646654 238.584606 
L 1096.991907 239.016352 
L 1098.337161 330.045788 
L 1099.682415 330.045788 
L 1101.027668 254.409011 
L 1102.372922 196.536365 
L 1103.718176 305.580219 
L 1105.063429 295.956678 
L 1106.408683 288.685837 
L 1107.753936 330.045788 
L 1109.09919 330.045788 
L 1110.444444 293.591465 
L 1111.789697 265.002415 
L 1113.134951 306.124594 
L 1114.480205 302.182571 
L 1115.825458 299.7235 
L 1117.170712 330.045788 
L 1118.515966 330.045788 
L 1119.861219 302.952204 
L 1121.206473 289.793357 
L 1122.551727 320.910307 
L 1123.89698 318.689009 
L 1125.242234 316.13608 
L 1126.587487 330.045788 
L 1129.277995 330.045788 
L 1131.968502 305.461333 
L 1133.313756 323.726038 
L 1134.659009 324.389299 
L 1136.004263 330.045788 
L 1137.349517 330.045788 
L 1140.040024 317.055885 
L 1141.385277 326.673169 
L 1142.730531 324.889873 
L 1144.075785 325.065074 
L 1145.421038 330.045788 
L 1146.766292 330.045788 
L 1148.111546 324.5207 
L 1149.456799 320.941593 
L 1150.802053 326.472939 
L 1152.147307 326.341539 
L 1153.49256 326.56054 
L 1154.837814 330.045788 
L 1156.183068 330.045788 
L 1157.528321 327.073628 
L 1158.873575 327.098657 
L 1160.218828 324.614557 
L 1161.564082 327.392745 
L 1162.909336 326.879656 
L 1164.254589 330.045788 
L 1165.599843 330.045788 
L 1166.945097 327.42403 
L 1168.29035 323.638437 
L 1169.635604 328.35635 
L 1170.980858 327.161229 
L 1172.326111 327.023571 
L 1173.671365 330.045788 
L 1175.016619 330.045788 
L 1177.707126 323.976325 
L 1179.052379 327.874547 
L 1180.397633 326.923456 
L 1181.742887 326.673169 
L 1183.08814 330.045788 
L 1184.433394 330.045788 
L 1185.778648 327.123686 
L 1187.123901 323.244235 
L 1188.469155 327.799461 
L 1189.814409 326.197623 
L 1191.159662 326.241424 
L 1192.504916 330.045788 
L 1193.85017 330.045788 
L 1196.540677 321.698712 
L 1197.88593 325.778392 
L 1199.231184 324.714672 
L 1200.576438 324.589529 
L 1201.921691 330.045788 
L 1203.266945 330.045788 
L 1204.612199 324.239126 
L 1205.957452 319.177069 
L 1207.302706 323.938782 
L 1208.64796 323.05652 
L 1209.993213 320.891536 
L 1211.338467 330.045788 
L 1212.68372 330.045788 
L 1214.028974 322.799975 
L 1215.374228 314.039925 
L 1216.719481 321.510997 
L 1218.064735 319.809044 
L 1219.409989 317.706632 
L 1220.755242 330.045788 
L 1222.100496 330.045788 
L 1223.44575 319.214612 
L 1224.791003 314.402841 
L 1226.136257 313.98361 
L 1227.481511 315.798192 
L 1228.826764 315.44779 
L 1230.172018 330.045788 
L 1231.517271 330.045788 
L 1234.207779 298.034062 
L 1235.553032 318.845438 
L 1236.898286 313.702037 
L 1238.24354 311.812369 
L 1239.588793 330.045788 
L 1240.934047 330.045788 
L 1242.279301 313.902267 
L 1243.624554 301.381652 
L 1244.969808 316.799341 
L 1246.315062 316.780569 
L 1247.660315 314.91593 
L 1249.005569 330.045788 
L 1250.350822 330.045788 
L 1251.696076 316.617883 
L 1253.04133 304.835615 
L 1254.386583 320.547391 
L 1255.731837 316.517768 
L 1257.077091 315.879536 
L 1258.422344 330.045788 
L 1261.112852 330.045788 
L 1262.458105 316.367596 
L 1263.803359 318.90801 
L 1265.148613 299.936244 
L 1266.493866 317.756689 
L 1267.83912 330.045788 
L 1269.184373 330.045788 
L 1270.529627 316.58034 
L 1271.874881 304.660414 
L 1273.220134 321.448425 
L 1274.565388 318.714038 
L 1275.910642 317.362487 
L 1277.255895 330.045788 
L 1278.601149 330.045788 
L 1279.946403 320.353418 
L 1281.291656 306.055765 
L 1282.63691 321.561054 
L 1283.982163 320.390962 
L 1285.327417 318.238492 
L 1286.672671 330.045788 
L 1289.363178 330.045788 
L 1290.708432 320.466048 
L 1292.053685 320.209503 
L 1293.398939 301.362881 
L 1294.744193 319.427356 
L 1296.089446 330.045788 
L 1297.4347 330.045788 
L 1298.779954 320.597448 
L 1300.125207 309.077982 
L 1301.470461 322.030342 
L 1302.815714 330.045788 
L 1306.851475 330.045788 
L 1306.851475 330.045788 
" clip-path="url(#p37d8b2e86a)" style="fill: none; stroke: #0000ff; stroke-width: 1.5; stroke-linecap: square"/>
   </g>
   <g id="line2d_18">
    <path d="M 1067.396327 309.408183 
L 1068.741581 315.255179 
L 1070.086835 311.360938 
L 1071.432088 289.365558 
L 1072.777342 251.001158 
L 1074.122595 263.870252 
L 1075.467849 282.322423 
L 1076.813103 284.942465 
L 1078.158356 300.435673 
L 1079.50361 285.422973 
L 1082.194117 219.980176 
L 1083.539371 264.628061 
L 1084.884625 213.741871 
L 1086.229878 284.650947 
L 1087.575132 297.885742 
L 1088.920385 333.303137 
L 1090.265639 242.567047 
L 1091.610893 196.146562 
L 1092.956146 170.435901 
L 1094.3014 258.250316 
L 1095.646654 251.285047 
L 1096.991907 292.915208 
L 1099.682415 251.957731 
L 1101.027668 181.738019 
L 1102.372922 204.200692 
L 1103.718176 265.821176 
L 1105.063429 265.320013 
L 1106.408683 312.749408 
L 1107.753936 306.432503 
L 1109.09919 287.667441 
L 1110.444444 233.687082 
L 1111.789697 279.424665 
L 1113.134951 297.990913 
L 1114.480205 293.875824 
L 1115.825458 336.076457 
L 1117.170712 339.658325 
L 1118.515966 309.82817 
L 1119.861219 261.57195 
L 1121.206473 303.710119 
L 1122.551727 310.881571 
L 1123.89698 306.663937 
L 1125.242234 342.376524 
L 1126.587487 345.238686 
L 1127.932741 319.260888 
L 1129.277995 287.868738 
L 1130.623248 324.051817 
L 1131.968502 317.747807 
L 1133.313756 317.881722 
L 1134.659009 347.746761 
L 1136.004263 353.2755 
L 1138.69477 299.723995 
L 1140.040024 324.609886 
L 1141.385277 326.921655 
L 1142.730531 321.586484 
L 1144.075785 343.618552 
L 1145.421038 345.495893 
L 1146.766292 330.870495 
L 1148.111546 309.099802 
L 1149.456799 328.256032 
L 1150.802053 327.963762 
L 1152.147307 324.408752 
L 1153.49256 340.54541 
L 1154.837814 342.226253 
L 1156.183068 330.197822 
L 1157.528321 314.521263 
L 1158.873575 329.967952 
L 1160.218828 327.742355 
L 1161.564082 326.292743 
L 1162.909336 337.933619 
L 1164.254589 340.576298 
L 1166.945097 319.170583 
L 1168.29035 328.386691 
L 1169.635604 329.066704 
L 1170.980858 326.402884 
L 1172.326111 336.068423 
L 1173.671365 336.56899 
L 1175.016619 329.869515 
L 1176.361872 320.952955 
L 1177.707126 328.526102 
L 1179.052379 328.569041 
L 1180.397633 326.74285 
L 1181.742887 334.014371 
L 1183.08814 334.525297 
L 1184.433394 329.018649 
L 1185.778648 321.99524 
L 1187.123901 327.911539 
L 1188.469155 328.073994 
L 1189.814409 326.533043 
L 1191.159662 332.56346 
L 1192.504916 332.758036 
L 1193.85017 328.315218 
L 1195.195423 322.079184 
L 1196.540677 327.153105 
L 1197.88593 326.94382 
L 1199.231184 326.059436 
L 1200.576438 330.785883 
L 1201.921691 331.073782 
L 1203.266945 326.662112 
L 1204.612199 320.993106 
L 1205.957452 325.135588 
L 1207.302706 325.306388 
L 1208.64796 324.862331 
L 1209.993213 328.725964 
L 1211.338467 329.452872 
L 1212.68372 324.663375 
L 1214.028974 319.426485 
L 1215.374228 321.924984 
L 1216.719481 323.239035 
L 1218.064735 322.291499 
L 1219.409989 327.179174 
L 1220.755242 327.350855 
L 1222.100496 322.24623 
L 1223.44575 315.739278 
L 1224.791003 319.84945 
L 1226.136257 319.107553 
L 1227.481511 319.916894 
L 1228.826764 325.085245 
L 1230.172018 326.645073 
L 1232.862525 311.861413 
L 1234.207779 312.58373 
L 1235.553032 318.265276 
L 1236.898286 316.302628 
L 1238.24354 323.628383 
L 1239.588793 321.504733 
L 1240.934047 315.189895 
L 1242.279301 307.194183 
L 1243.624554 312.451463 
L 1244.969808 315.319501 
L 1246.315062 315.58901 
L 1247.660315 324.542816 
L 1249.005569 323.671244 
L 1250.350822 315.07119 
L 1251.696076 307.698119 
L 1253.04133 315.258391 
L 1254.386583 317.634573 
L 1255.731837 316.322562 
L 1257.077091 326.831456 
L 1258.422344 326.064432 
L 1259.767598 317.646685 
L 1261.112852 312.045171 
L 1262.458105 319.559166 
L 1263.803359 318.507409 
L 1265.148613 313.887689 
L 1266.493866 331.467145 
L 1267.83912 330.431665 
L 1269.184373 324.083186 
L 1270.529627 308.438097 
L 1271.874881 316.103481 
L 1273.220134 314.005915 
L 1274.565388 318.253653 
L 1275.910642 326.620843 
L 1277.255895 325.870073 
L 1278.601149 319.117155 
L 1279.946403 311.732454 
L 1281.291656 319.023802 
L 1282.63691 316.959289 
L 1283.982163 319.471031 
L 1285.327417 328.516928 
L 1286.672671 327.69837 
L 1288.017924 320.399396 
L 1289.363178 314.269696 
L 1290.708432 323.222923 
L 1292.053685 318.585294 
L 1293.398939 316.377257 
L 1294.744193 331.72592 
L 1296.089446 331.59127 
L 1297.4347 326.211828 
L 1298.779954 311.449263 
L 1300.125207 318.567212 
L 1301.470461 314.248276 
L 1302.815714 322.5336 
L 1304.160968 329.842896 
L 1305.506222 327.779724 
L 1306.851475 322.530808 
L 1306.851475 322.530808 
" clip-path="url(#p37d8b2e86a)" style="fill: none; stroke: #ffa500; stroke-width: 1.5; stroke-linecap: square"/>
   </g>
   <g id="line2d_19">
    <path d="M 1306.851475 322.530808 
L 1308.196729 317.015289 
L 1309.541983 327.12128 
L 1310.887236 323.491949 
L 1312.23249 325.970383 
L 1313.577744 331.369221 
L 1314.922997 331.216749 
L 1316.268251 326.139008 
L 1317.613505 319.202482 
L 1318.958758 326.820433 
L 1320.304012 323.851932 
L 1321.649265 326.48284 
L 1322.994519 332.141231 
L 1324.339773 332.208711 
" clip-path="url(#p37d8b2e86a)" style="fill: none; stroke: #ff0000; stroke-width: 1.5; stroke-linecap: square"/>
   </g>
   <g id="patch_3">
    <path d="M 46.0125 368.3955 
L 46.0125 35.7555 
" style="fill: none; stroke: #000000; stroke-width: 0.8; stroke-linejoin: miter; stroke-linecap: square"/>
   </g>
   <g id="patch_4">
    <path d="M 1385.2125 368.3955 
L 1385.2125 35.7555 
" style="fill: none; stroke: #000000; stroke-width: 0.8; stroke-linejoin: miter; stroke-linecap: square"/>
   </g>
   <g id="patch_5">
    <path d="M 46.0125 368.3955 
L 1385.2125 368.3955 
" style="fill: none; stroke: #000000; stroke-width: 0.8; stroke-linejoin: miter; stroke-linecap: square"/>
   </g>
   <g id="patch_6">
    <path d="M 46.0125 35.7555 
L 1385.2125 35.7555 
" style="fill: none; stroke: #000000; stroke-width: 0.8; stroke-linejoin: miter; stroke-linecap: square"/>
   </g>
   <g id="text_17">
    <!-- Daily Confirmed Cases Forecasting - Minnesota -->
    <g transform="translate(574.145625 16.318125)scale(0.12 -0.12)">
     <defs>
      <path id="DejaVuSans-44" d="M 1259 4147 
L 1259 519 
L 2022 519 
Q 2988 519 3436 956 
Q 3884 1394 3884 2338 
Q 3884 3275 3436 3711 
Q 2988 4147 2022 4147 
L 1259 4147 
z
M 628 4666 
L 1925 4666 
Q 3281 4666 3915 4102 
Q 4550 3538 4550 2338 
Q 4550 1131 3912 565 
Q 3275 0 1925 0 
L 628 0 
L 628 4666 
z
" transform="scale(0.015625)"/>
      <path id="DejaVuSans-61" d="M 2194 1759 
Q 1497 1759 1228 1600 
Q 959 1441 959 1056 
Q 959 750 1161 570 
Q 1363 391 1709 391 
Q 2188 391 2477 730 
Q 2766 1069 2766 1631 
L 2766 1759 
L 2194 1759 
z
M 3341 1997 
L 3341 0 
L 2766 0 
L 2766 531 
Q 2569 213 2275 61 
Q 1981 -91 1556 -91 
Q 1019 -91 701 211 
Q 384 513 384 1019 
Q 384 1609 779 1909 
Q 1175 2209 1959 2209 
L 2766 2209 
L 2766 2266 
Q 2766 2663 2505 2880 
Q 2244 3097 1772 3097 
Q 1472 3097 1187 3025 
Q 903 2953 641 2809 
L 641 3341 
Q 956 3463 1253 3523 
Q 1550 3584 1831 3584 
Q 2591 3584 2966 3190 
Q 3341 2797 3341 1997 
z
" transform="scale(0.015625)"/>
      <path id="DejaVuSans-69" d="M 603 3500 
L 1178 3500 
L 1178 0 
L 603 0 
L 603 3500 
z
M 603 4863 
L 1178 4863 
L 1178 4134 
L 603 4134 
L 603 4863 
z
" transform="scale(0.015625)"/>
      <path id="DejaVuSans-6c" d="M 603 4863 
L 1178 4863 
L 1178 0 
L 603 0 
L 603 4863 
z
" transform="scale(0.015625)"/>
      <path id="DejaVuSans-79" d="M 2059 -325 
Q 1816 -950 1584 -1140 
Q 1353 -1331 966 -1331 
L 506 -1331 
L 506 -850 
L 844 -850 
Q 1081 -850 1212 -737 
Q 1344 -625 1503 -206 
L 1606 56 
L 191 3500 
L 800 3500 
L 1894 763 
L 2988 3500 
L 3597 3500 
L 2059 -325 
z
" transform="scale(0.015625)"/>
      <path id="DejaVuSans-20" transform="scale(0.015625)"/>
      <path id="DejaVuSans-43" d="M 4122 4306 
L 4122 3641 
Q 3803 3938 3442 4084 
Q 3081 4231 2675 4231 
Q 1875 4231 1450 3742 
Q 1025 3253 1025 2328 
Q 1025 1406 1450 917 
Q 1875 428 2675 428 
Q 3081 428 3442 575 
Q 3803 722 4122 1019 
L 4122 359 
Q 3791 134 3420 21 
Q 3050 -91 2638 -91 
Q 1578 -91 968 557 
Q 359 1206 359 2328 
Q 359 3453 968 4101 
Q 1578 4750 2638 4750 
Q 3056 4750 3426 4639 
Q 3797 4528 4122 4306 
z
" transform="scale(0.015625)"/>
      <path id="DejaVuSans-6f" d="M 1959 3097 
Q 1497 3097 1228 2736 
Q 959 2375 959 1747 
Q 959 1119 1226 758 
Q 1494 397 1959 397 
Q 2419 397 2687 759 
Q 2956 1122 2956 1747 
Q 2956 2369 2687 2733 
Q 2419 3097 1959 3097 
z
M 1959 3584 
Q 2709 3584 3137 3096 
Q 3566 2609 3566 1747 
Q 3566 888 3137 398 
Q 2709 -91 1959 -91 
Q 1206 -91 779 398 
Q 353 888 353 1747 
Q 353 2609 779 3096 
Q 1206 3584 1959 3584 
z
" transform="scale(0.015625)"/>
      <path id="DejaVuSans-6e" d="M 3513 2113 
L 3513 0 
L 2938 0 
L 2938 2094 
Q 2938 2591 2744 2837 
Q 2550 3084 2163 3084 
Q 1697 3084 1428 2787 
Q 1159 2491 1159 1978 
L 1159 0 
L 581 0 
L 581 3500 
L 1159 3500 
L 1159 2956 
Q 1366 3272 1645 3428 
Q 1925 3584 2291 3584 
Q 2894 3584 3203 3211 
Q 3513 2838 3513 2113 
z
" transform="scale(0.015625)"/>
      <path id="DejaVuSans-66" d="M 2375 4863 
L 2375 4384 
L 1825 4384 
Q 1516 4384 1395 4259 
Q 1275 4134 1275 3809 
L 1275 3500 
L 2222 3500 
L 2222 3053 
L 1275 3053 
L 1275 0 
L 697 0 
L 697 3053 
L 147 3053 
L 147 3500 
L 697 3500 
L 697 3744 
Q 697 4328 969 4595 
Q 1241 4863 1831 4863 
L 2375 4863 
z
" transform="scale(0.015625)"/>
      <path id="DejaVuSans-72" d="M 2631 2963 
Q 2534 3019 2420 3045 
Q 2306 3072 2169 3072 
Q 1681 3072 1420 2755 
Q 1159 2438 1159 1844 
L 1159 0 
L 581 0 
L 581 3500 
L 1159 3500 
L 1159 2956 
Q 1341 3275 1631 3429 
Q 1922 3584 2338 3584 
Q 2397 3584 2469 3576 
Q 2541 3569 2628 3553 
L 2631 2963 
z
" transform="scale(0.015625)"/>
      <path id="DejaVuSans-6d" d="M 3328 2828 
Q 3544 3216 3844 3400 
Q 4144 3584 4550 3584 
Q 5097 3584 5394 3201 
Q 5691 2819 5691 2113 
L 5691 0 
L 5113 0 
L 5113 2094 
Q 5113 2597 4934 2840 
Q 4756 3084 4391 3084 
Q 3944 3084 3684 2787 
Q 3425 2491 3425 1978 
L 3425 0 
L 2847 0 
L 2847 2094 
Q 2847 2600 2669 2842 
Q 2491 3084 2119 3084 
Q 1678 3084 1418 2786 
Q 1159 2488 1159 1978 
L 1159 0 
L 581 0 
L 581 3500 
L 1159 3500 
L 1159 2956 
Q 1356 3278 1631 3431 
Q 1906 3584 2284 3584 
Q 2666 3584 2933 3390 
Q 3200 3197 3328 2828 
z
" transform="scale(0.015625)"/>
      <path id="DejaVuSans-65" d="M 3597 1894 
L 3597 1613 
L 953 1613 
Q 991 1019 1311 708 
Q 1631 397 2203 397 
Q 2534 397 2845 478 
Q 3156 559 3463 722 
L 3463 178 
Q 3153 47 2828 -22 
Q 2503 -91 2169 -91 
Q 1331 -91 842 396 
Q 353 884 353 1716 
Q 353 2575 817 3079 
Q 1281 3584 2069 3584 
Q 2775 3584 3186 3129 
Q 3597 2675 3597 1894 
z
M 3022 2063 
Q 3016 2534 2758 2815 
Q 2500 3097 2075 3097 
Q 1594 3097 1305 2825 
Q 1016 2553 972 2059 
L 3022 2063 
z
" transform="scale(0.015625)"/>
      <path id="DejaVuSans-64" d="M 2906 2969 
L 2906 4863 
L 3481 4863 
L 3481 0 
L 2906 0 
L 2906 525 
Q 2725 213 2448 61 
Q 2172 -91 1784 -91 
Q 1150 -91 751 415 
Q 353 922 353 1747 
Q 353 2572 751 3078 
Q 1150 3584 1784 3584 
Q 2172 3584 2448 3432 
Q 2725 3281 2906 2969 
z
M 947 1747 
Q 947 1113 1208 752 
Q 1469 391 1925 391 
Q 2381 391 2643 752 
Q 2906 1113 2906 1747 
Q 2906 2381 2643 2742 
Q 2381 3103 1925 3103 
Q 1469 3103 1208 2742 
Q 947 2381 947 1747 
z
" transform="scale(0.015625)"/>
      <path id="DejaVuSans-73" d="M 2834 3397 
L 2834 2853 
Q 2591 2978 2328 3040 
Q 2066 3103 1784 3103 
Q 1356 3103 1142 2972 
Q 928 2841 928 2578 
Q 928 2378 1081 2264 
Q 1234 2150 1697 2047 
L 1894 2003 
Q 2506 1872 2764 1633 
Q 3022 1394 3022 966 
Q 3022 478 2636 193 
Q 2250 -91 1575 -91 
Q 1294 -91 989 -36 
Q 684 19 347 128 
L 347 722 
Q 666 556 975 473 
Q 1284 391 1588 391 
Q 1994 391 2212 530 
Q 2431 669 2431 922 
Q 2431 1156 2273 1281 
Q 2116 1406 1581 1522 
L 1381 1569 
Q 847 1681 609 1914 
Q 372 2147 372 2553 
Q 372 3047 722 3315 
Q 1072 3584 1716 3584 
Q 2034 3584 2315 3537 
Q 2597 3491 2834 3397 
z
" transform="scale(0.015625)"/>
      <path id="DejaVuSans-46" d="M 628 4666 
L 3309 4666 
L 3309 4134 
L 1259 4134 
L 1259 2759 
L 3109 2759 
L 3109 2228 
L 1259 2228 
L 1259 0 
L 628 0 
L 628 4666 
z
" transform="scale(0.015625)"/>
      <path id="DejaVuSans-63" d="M 3122 3366 
L 3122 2828 
Q 2878 2963 2633 3030 
Q 2388 3097 2138 3097 
Q 1578 3097 1268 2742 
Q 959 2388 959 1747 
Q 959 1106 1268 751 
Q 1578 397 2138 397 
Q 2388 397 2633 464 
Q 2878 531 3122 666 
L 3122 134 
Q 2881 22 2623 -34 
Q 2366 -91 2075 -91 
Q 1284 -91 818 406 
Q 353 903 353 1747 
Q 353 2603 823 3093 
Q 1294 3584 2113 3584 
Q 2378 3584 2631 3529 
Q 2884 3475 3122 3366 
z
" transform="scale(0.015625)"/>
      <path id="DejaVuSans-74" d="M 1172 4494 
L 1172 3500 
L 2356 3500 
L 2356 3053 
L 1172 3053 
L 1172 1153 
Q 1172 725 1289 603 
Q 1406 481 1766 481 
L 2356 481 
L 2356 0 
L 1766 0 
Q 1100 0 847 248 
Q 594 497 594 1153 
L 594 3053 
L 172 3053 
L 172 3500 
L 594 3500 
L 594 4494 
L 1172 4494 
z
" transform="scale(0.015625)"/>
      <path id="DejaVuSans-67" d="M 2906 1791 
Q 2906 2416 2648 2759 
Q 2391 3103 1925 3103 
Q 1463 3103 1205 2759 
Q 947 2416 947 1791 
Q 947 1169 1205 825 
Q 1463 481 1925 481 
Q 2391 481 2648 825 
Q 2906 1169 2906 1791 
z
M 3481 434 
Q 3481 -459 3084 -895 
Q 2688 -1331 1869 -1331 
Q 1566 -1331 1297 -1286 
Q 1028 -1241 775 -1147 
L 775 -588 
Q 1028 -725 1275 -790 
Q 1522 -856 1778 -856 
Q 2344 -856 2625 -561 
Q 2906 -266 2906 331 
L 2906 616 
Q 2728 306 2450 153 
Q 2172 0 1784 0 
Q 1141 0 747 490 
Q 353 981 353 1791 
Q 353 2603 747 3093 
Q 1141 3584 1784 3584 
Q 2172 3584 2450 3431 
Q 2728 3278 2906 2969 
L 2906 3500 
L 3481 3500 
L 3481 434 
z
" transform="scale(0.015625)"/>
      <path id="DejaVuSans-4d" d="M 628 4666 
L 1569 4666 
L 2759 1491 
L 3956 4666 
L 4897 4666 
L 4897 0 
L 4281 0 
L 4281 4097 
L 3078 897 
L 2444 897 
L 1241 4097 
L 1241 0 
L 628 0 
L 628 4666 
z
" transform="scale(0.015625)"/>
     </defs>
     <use xlink:href="#DejaVuSans-44"/>
     <use xlink:href="#DejaVuSans-61" x="77.001953"/>
     <use xlink:href="#DejaVuSans-69" x="138.28125"/>
     <use xlink:href="#DejaVuSans-6c" x="166.064453"/>
     <use xlink:href="#DejaVuSans-79" x="193.847656"/>
     <use xlink:href="#DejaVuSans-20" x="253.027344"/>
     <use xlink:href="#DejaVuSans-43" x="284.814453"/>
     <use xlink:href="#DejaVuSans-6f" x="354.638672"/>
     <use xlink:href="#DejaVuSans-6e" x="415.820312"/>
     <use xlink:href="#DejaVuSans-66" x="479.199219"/>
     <use xlink:href="#DejaVuSans-69" x="514.404297"/>
     <use xlink:href="#DejaVuSans-72" x="542.1875"/>
     <use xlink:href="#DejaVuSans-6d" x="581.550781"/>
     <use xlink:href="#DejaVuSans-65" x="678.962891"/>
     <use xlink:href="#DejaVuSans-64" x="740.486328"/>
     <use xlink:href="#DejaVuSans-20" x="803.962891"/>
     <use xlink:href="#DejaVuSans-43" x="835.75"/>
     <use xlink:href="#DejaVuSans-61" x="905.574219"/>
     <use xlink:href="#DejaVuSans-73" x="966.853516"/>
     <use xlink:href="#DejaVuSans-65" x="1018.953125"/>
     <use xlink:href="#DejaVuSans-73" x="1080.476562"/>
     <use xlink:href="#DejaVuSans-20" x="1132.576172"/>
     <use xlink:href="#DejaVuSans-46" x="1164.363281"/>
     <use xlink:href="#DejaVuSans-6f" x="1218.257812"/>
     <use xlink:href="#DejaVuSans-72" x="1279.439453"/>
     <use xlink:href="#DejaVuSans-65" x="1318.302734"/>
     <use xlink:href="#DejaVuSans-63" x="1379.826172"/>
     <use xlink:href="#DejaVuSans-61" x="1434.806641"/>
     <use xlink:href="#DejaVuSans-73" x="1496.085938"/>
     <use xlink:href="#DejaVuSans-74" x="1548.185547"/>
     <use xlink:href="#DejaVuSans-69" x="1587.394531"/>
     <use xlink:href="#DejaVuSans-6e" x="1615.177734"/>
     <use xlink:href="#DejaVuSans-67" x="1678.556641"/>
     <use xlink:href="#DejaVuSans-20" x="1742.033203"/>
     <use xlink:href="#DejaVuSans-2d" x="1773.820312"/>
     <use xlink:href="#DejaVuSans-20" x="1809.904297"/>
     <use xlink:href="#DejaVuSans-4d" x="1841.691406"/>
     <use xlink:href="#DejaVuSans-69" x="1927.970703"/>
     <use xlink:href="#DejaVuSans-6e" x="1955.753906"/>
     <use xlink:href="#DejaVuSans-6e" x="2019.132812"/>
     <use xlink:href="#DejaVuSans-65" x="2082.511719"/>
     <use xlink:href="#DejaVuSans-73" x="2144.035156"/>
     <use xlink:href="#DejaVuSans-6f" x="2196.134766"/>
     <use xlink:href="#DejaVuSans-74" x="2257.316406"/>
     <use xlink:href="#DejaVuSans-61" x="2296.525391"/>
    </g>
    <!-- ARIMA (4, 1, 1)x(1, 0, 1, 7) (R2 = 0.440321) -->
    <g transform="translate(583.628438 29.7555)scale(0.12 -0.12)">
     <defs>
      <path id="DejaVuSans-41" d="M 2188 4044 
L 1331 1722 
L 3047 1722 
L 2188 4044 
z
M 1831 4666 
L 2547 4666 
L 4325 0 
L 3669 0 
L 3244 1197 
L 1141 1197 
L 716 0 
L 50 0 
L 1831 4666 
z
" transform="scale(0.015625)"/>
      <path id="DejaVuSans-52" d="M 2841 2188 
Q 3044 2119 3236 1894 
Q 3428 1669 3622 1275 
L 4263 0 
L 3584 0 
L 2988 1197 
Q 2756 1666 2539 1819 
Q 2322 1972 1947 1972 
L 1259 1972 
L 1259 0 
L 628 0 
L 628 4666 
L 2053 4666 
Q 2853 4666 3247 4331 
Q 3641 3997 3641 3322 
Q 3641 2881 3436 2590 
Q 3231 2300 2841 2188 
z
M 1259 4147 
L 1259 2491 
L 2053 2491 
Q 2509 2491 2742 2702 
Q 2975 2913 2975 3322 
Q 2975 3731 2742 3939 
Q 2509 4147 2053 4147 
L 1259 4147 
z
" transform="scale(0.015625)"/>
      <path id="DejaVuSans-49" d="M 628 4666 
L 1259 4666 
L 1259 0 
L 628 0 
L 628 4666 
z
" transform="scale(0.015625)"/>
      <path id="DejaVuSans-28" d="M 1984 4856 
Q 1566 4138 1362 3434 
Q 1159 2731 1159 2009 
Q 1159 1288 1364 580 
Q 1569 -128 1984 -844 
L 1484 -844 
Q 1016 -109 783 600 
Q 550 1309 550 2009 
Q 550 2706 781 3412 
Q 1013 4119 1484 4856 
L 1984 4856 
z
" transform="scale(0.015625)"/>
      <path id="DejaVuSans-2c" d="M 750 794 
L 1409 794 
L 1409 256 
L 897 -744 
L 494 -744 
L 750 256 
L 750 794 
z
" transform="scale(0.015625)"/>
      <path id="DejaVuSans-29" d="M 513 4856 
L 1013 4856 
Q 1481 4119 1714 3412 
Q 1947 2706 1947 2009 
Q 1947 1309 1714 600 
Q 1481 -109 1013 -844 
L 513 -844 
Q 928 -128 1133 580 
Q 1338 1288 1338 2009 
Q 1338 2731 1133 3434 
Q 928 4138 513 4856 
z
" transform="scale(0.015625)"/>
      <path id="DejaVuSans-78" d="M 3513 3500 
L 2247 1797 
L 3578 0 
L 2900 0 
L 1881 1375 
L 863 0 
L 184 0 
L 1544 1831 
L 300 3500 
L 978 3500 
L 1906 2253 
L 2834 3500 
L 3513 3500 
z
" transform="scale(0.015625)"/>
      <path id="DejaVuSans-3d" d="M 678 2906 
L 4684 2906 
L 4684 2381 
L 678 2381 
L 678 2906 
z
M 678 1631 
L 4684 1631 
L 4684 1100 
L 678 1100 
L 678 1631 
z
" transform="scale(0.015625)"/>
      <path id="DejaVuSans-2e" d="M 684 794 
L 1344 794 
L 1344 0 
L 684 0 
L 684 794 
z
" transform="scale(0.015625)"/>
     </defs>
     <use xlink:href="#DejaVuSans-41"/>
     <use xlink:href="#DejaVuSans-52" x="68.408203"/>
     <use xlink:href="#DejaVuSans-49" x="137.890625"/>
     <use xlink:href="#DejaVuSans-4d" x="167.382812"/>
     <use xlink:href="#DejaVuSans-41" x="253.662109"/>
     <use xlink:href="#DejaVuSans-20" x="322.070312"/>
     <use xlink:href="#DejaVuSans-28" x="353.857422"/>
     <use xlink:href="#DejaVuSans-34" x="392.871094"/>
     <use xlink:href="#DejaVuSans-2c" x="456.494141"/>
     <use xlink:href="#DejaVuSans-20" x="488.28125"/>
     <use xlink:href="#DejaVuSans-31" x="520.068359"/>
     <use xlink:href="#DejaVuSans-2c" x="583.691406"/>
     <use xlink:href="#DejaVuSans-20" x="615.478516"/>
     <use xlink:href="#DejaVuSans-31" x="647.265625"/>
     <use xlink:href="#DejaVuSans-29" x="710.888672"/>
     <use xlink:href="#DejaVuSans-78" x="749.902344"/>
     <use xlink:href="#DejaVuSans-28" x="809.082031"/>
     <use xlink:href="#DejaVuSans-31" x="848.095703"/>
     <use xlink:href="#DejaVuSans-2c" x="911.71875"/>
     <use xlink:href="#DejaVuSans-20" x="943.505859"/>
     <use xlink:href="#DejaVuSans-30" x="975.292969"/>
     <use xlink:href="#DejaVuSans-2c" x="1038.916016"/>
     <use xlink:href="#DejaVuSans-20" x="1070.703125"/>
     <use xlink:href="#DejaVuSans-31" x="1102.490234"/>
     <use xlink:href="#DejaVuSans-2c" x="1166.113281"/>
     <use xlink:href="#DejaVuSans-20" x="1197.900391"/>
     <use xlink:href="#DejaVuSans-37" x="1229.6875"/>
     <use xlink:href="#DejaVuSans-29" x="1293.310547"/>
     <use xlink:href="#DejaVuSans-20" x="1332.324219"/>
     <use xlink:href="#DejaVuSans-28" x="1364.111328"/>
     <use xlink:href="#DejaVuSans-52" x="1403.125"/>
     <use xlink:href="#DejaVuSans-32" x="1472.607422"/>
     <use xlink:href="#DejaVuSans-20" x="1536.230469"/>
     <use xlink:href="#DejaVuSans-3d" x="1568.017578"/>
     <use xlink:href="#DejaVuSans-20" x="1651.806641"/>
     <use xlink:href="#DejaVuSans-30" x="1683.59375"/>
     <use xlink:href="#DejaVuSans-2e" x="1747.216797"/>
     <use xlink:href="#DejaVuSans-34" x="1779.003906"/>
     <use xlink:href="#DejaVuSans-34" x="1842.626953"/>
     <use xlink:href="#DejaVuSans-30" x="1906.25"/>
     <use xlink:href="#DejaVuSans-33" x="1969.873047"/>
     <use xlink:href="#DejaVuSans-32" x="2033.496094"/>
     <use xlink:href="#DejaVuSans-31" x="2097.119141"/>
     <use xlink:href="#DejaVuSans-29" x="2160.742188"/>
    </g>
   </g>
   <g id="legend_1">
    <g id="patch_7">
     <path d="M 1281.132812 87.789875 
L 1378.2125 87.789875 
Q 1380.2125 87.789875 1380.2125 85.789875 
L 1380.2125 42.7555 
Q 1380.2125 40.7555 1378.2125 40.7555 
L 1281.132812 40.7555 
Q 1279.132812 40.7555 1279.132812 42.7555 
L 1279.132812 85.789875 
Q 1279.132812 87.789875 1281.132812 87.789875 
z
" style="fill: #ffffff; opacity: 0.8; stroke: #cccccc; stroke-linejoin: miter"/>
    </g>
    <g id="line2d_20">
     <path d="M 1283.132812 48.853937 
L 1293.132812 48.853937 
L 1303.132812 48.853937 
" style="fill: none; stroke: #0000ff; stroke-width: 1.5; stroke-linecap: square"/>
    </g>
    <g id="text_18">
     <!-- Actual Value -->
     <g transform="translate(1311.132812 52.353937)scale(0.1 -0.1)">
      <defs>
       <path id="DejaVuSans-75" d="M 544 1381 
L 544 3500 
L 1119 3500 
L 1119 1403 
Q 1119 906 1312 657 
Q 1506 409 1894 409 
Q 2359 409 2629 706 
Q 2900 1003 2900 1516 
L 2900 3500 
L 3475 3500 
L 3475 0 
L 2900 0 
L 2900 538 
Q 2691 219 2414 64 
Q 2138 -91 1772 -91 
Q 1169 -91 856 284 
Q 544 659 544 1381 
z
M 1991 3584 
L 1991 3584 
z
" transform="scale(0.015625)"/>
       <path id="DejaVuSans-56" d="M 1831 0 
L 50 4666 
L 709 4666 
L 2188 738 
L 3669 4666 
L 4325 4666 
L 2547 0 
L 1831 0 
z
" transform="scale(0.015625)"/>
      </defs>
      <use xlink:href="#DejaVuSans-41"/>
      <use xlink:href="#DejaVuSans-63" x="66.658203"/>
      <use xlink:href="#DejaVuSans-74" x="121.638672"/>
      <use xlink:href="#DejaVuSans-75" x="160.847656"/>
      <use xlink:href="#DejaVuSans-61" x="224.226562"/>
      <use xlink:href="#DejaVuSans-6c" x="285.505859"/>
      <use xlink:href="#DejaVuSans-20" x="313.289062"/>
      <use xlink:href="#DejaVuSans-56" x="345.076172"/>
      <use xlink:href="#DejaVuSans-61" x="405.734375"/>
      <use xlink:href="#DejaVuSans-6c" x="467.013672"/>
      <use xlink:href="#DejaVuSans-75" x="494.796875"/>
      <use xlink:href="#DejaVuSans-65" x="558.175781"/>
     </g>
    </g>
    <g id="line2d_21">
     <path d="M 1283.132812 63.532062 
L 1293.132812 63.532062 
L 1303.132812 63.532062 
" style="fill: none; stroke: #ffa500; stroke-width: 1.5; stroke-linecap: square"/>
    </g>
    <g id="text_19">
     <!-- Check Value -->
     <g transform="translate(1311.132812 67.032062)scale(0.1 -0.1)">
      <defs>
       <path id="DejaVuSans-68" d="M 3513 2113 
L 3513 0 
L 2938 0 
L 2938 2094 
Q 2938 2591 2744 2837 
Q 2550 3084 2163 3084 
Q 1697 3084 1428 2787 
Q 1159 2491 1159 1978 
L 1159 0 
L 581 0 
L 581 4863 
L 1159 4863 
L 1159 2956 
Q 1366 3272 1645 3428 
Q 1925 3584 2291 3584 
Q 2894 3584 3203 3211 
Q 3513 2838 3513 2113 
z
" transform="scale(0.015625)"/>
       <path id="DejaVuSans-6b" d="M 581 4863 
L 1159 4863 
L 1159 1991 
L 2875 3500 
L 3609 3500 
L 1753 1863 
L 3688 0 
L 2938 0 
L 1159 1709 
L 1159 0 
L 581 0 
L 581 4863 
z
" transform="scale(0.015625)"/>
      </defs>
      <use xlink:href="#DejaVuSans-43"/>
      <use xlink:href="#DejaVuSans-68" x="69.824219"/>
      <use xlink:href="#DejaVuSans-65" x="133.203125"/>
      <use xlink:href="#DejaVuSans-63" x="194.726562"/>
      <use xlink:href="#DejaVuSans-6b" x="249.707031"/>
      <use xlink:href="#DejaVuSans-20" x="307.617188"/>
      <use xlink:href="#DejaVuSans-56" x="339.404297"/>
      <use xlink:href="#DejaVuSans-61" x="400.0625"/>
      <use xlink:href="#DejaVuSans-6c" x="461.341797"/>
      <use xlink:href="#DejaVuSans-75" x="489.125"/>
      <use xlink:href="#DejaVuSans-65" x="552.503906"/>
     </g>
    </g>
    <g id="line2d_22">
     <path d="M 1283.132812 78.210187 
L 1293.132812 78.210187 
L 1303.132812 78.210187 
" style="fill: none; stroke: #ff0000; stroke-width: 1.5; stroke-linecap: square"/>
    </g>
    <g id="text_20">
     <!-- Predict Value -->
     <g transform="translate(1311.132812 81.710187)scale(0.1 -0.1)">
      <defs>
       <path id="DejaVuSans-50" d="M 1259 4147 
L 1259 2394 
L 2053 2394 
Q 2494 2394 2734 2622 
Q 2975 2850 2975 3272 
Q 2975 3691 2734 3919 
Q 2494 4147 2053 4147 
L 1259 4147 
z
M 628 4666 
L 2053 4666 
Q 2838 4666 3239 4311 
Q 3641 3956 3641 3272 
Q 3641 2581 3239 2228 
Q 2838 1875 2053 1875 
L 1259 1875 
L 1259 0 
L 628 0 
L 628 4666 
z
" transform="scale(0.015625)"/>
      </defs>
      <use xlink:href="#DejaVuSans-50"/>
      <use xlink:href="#DejaVuSans-72" x="58.552734"/>
      <use xlink:href="#DejaVuSans-65" x="97.416016"/>
      <use xlink:href="#DejaVuSans-64" x="158.939453"/>
      <use xlink:href="#DejaVuSans-69" x="222.416016"/>
      <use xlink:href="#DejaVuSans-63" x="250.199219"/>
      <use xlink:href="#DejaVuSans-74" x="305.179688"/>
      <use xlink:href="#DejaVuSans-20" x="344.388672"/>
      <use xlink:href="#DejaVuSans-56" x="376.175781"/>
      <use xlink:href="#DejaVuSans-61" x="436.833984"/>
      <use xlink:href="#DejaVuSans-6c" x="498.113281"/>
      <use xlink:href="#DejaVuSans-75" x="525.896484"/>
      <use xlink:href="#DejaVuSans-65" x="589.275391"/>
     </g>
    </g>
   </g>
  </g>
 </g>
 <defs>
  <clipPath id="p37d8b2e86a">
   <rect x="46.0125" y="35.7555" width="1339.2" height="332.64"/>
  </clipPath>
 </defs>
</svg>
