<?xml version="1.0" encoding="utf-8" standalone="no"?>
<!DOCTYPE svg PUBLIC "-//W3C//DTD SVG 1.1//EN"
  "http://www.w3.org/Graphics/SVG/1.1/DTD/svg11.dtd">
<svg xmlns:xlink="http://www.w3.org/1999/xlink" width="1398.775pt" height="392.273625pt" viewBox="0 0 1398.775 392.273625" xmlns="http://www.w3.org/2000/svg" version="1.1">
 <metadata>
  <rdf:RDF xmlns:dc="http://purl.org/dc/elements/1.1/" xmlns:cc="http://creativecommons.org/ns#" xmlns:rdf="http://www.w3.org/1999/02/22-rdf-syntax-ns#">
   <cc:Work>
    <dc:type rdf:resource="http://purl.org/dc/dcmitype/StillImage"/>
    <dc:date>2022-06-26T17:18:50.504287</dc:date>
    <dc:format>image/svg+xml</dc:format>
    <dc:creator>
     <cc:Agent>
      <dc:title>Matplotlib v3.5.2, https://matplotlib.org/</dc:title>
     </cc:Agent>
    </dc:creator>
   </cc:Work>
  </rdf:RDF>
 </metadata>
 <defs>
  <style type="text/css">*{stroke-linejoin: round; stroke-linecap: butt}</style>
 </defs>
 <g id="figure_1">
  <g id="patch_1">
   <path d="M 0 392.273625 
L 1398.775 392.273625 
L 1398.775 0 
L 0 0 
z
" style="fill: #ffffff"/>
  </g>
  <g id="axes_1">
   <g id="patch_2">
    <path d="M 52.375 368.3955 
L 1391.575 368.3955 
L 1391.575 35.7555 
L 52.375 35.7555 
z
" style="fill: #ffffff"/>
   </g>
   <g id="matplotlib.axis_1">
    <g id="xtick_1">
     <g id="line2d_1">
      <defs>
       <path id="m843498f0c1" d="M 0 0 
L 0 3.5 
" style="stroke: #000000; stroke-width: 0.8"/>
      </defs>
      <g>
       <use xlink:href="#m843498f0c1" x="83.388196" y="368.3955" style="stroke: #000000; stroke-width: 0.8"/>
      </g>
     </g>
     <g id="text_1">
      <!-- 2020-01 -->
      <g transform="translate(62.496789 382.993937)scale(0.1 -0.1)">
       <defs>
        <path id="DejaVuSans-32" d="M 1228 531 
L 3431 531 
L 3431 0 
L 469 0 
L 469 531 
Q 828 903 1448 1529 
Q 2069 2156 2228 2338 
Q 2531 2678 2651 2914 
Q 2772 3150 2772 3378 
Q 2772 3750 2511 3984 
Q 2250 4219 1831 4219 
Q 1534 4219 1204 4116 
Q 875 4013 500 3803 
L 500 4441 
Q 881 4594 1212 4672 
Q 1544 4750 1819 4750 
Q 2544 4750 2975 4387 
Q 3406 4025 3406 3419 
Q 3406 3131 3298 2873 
Q 3191 2616 2906 2266 
Q 2828 2175 2409 1742 
Q 1991 1309 1228 531 
z
" transform="scale(0.015625)"/>
        <path id="DejaVuSans-30" d="M 2034 4250 
Q 1547 4250 1301 3770 
Q 1056 3291 1056 2328 
Q 1056 1369 1301 889 
Q 1547 409 2034 409 
Q 2525 409 2770 889 
Q 3016 1369 3016 2328 
Q 3016 3291 2770 3770 
Q 2525 4250 2034 4250 
z
M 2034 4750 
Q 2819 4750 3233 4129 
Q 3647 3509 3647 2328 
Q 3647 1150 3233 529 
Q 2819 -91 2034 -91 
Q 1250 -91 836 529 
Q 422 1150 422 2328 
Q 422 3509 836 4129 
Q 1250 4750 2034 4750 
z
" transform="scale(0.015625)"/>
        <path id="DejaVuSans-2d" d="M 313 2009 
L 1997 2009 
L 1997 1497 
L 313 1497 
L 313 2009 
z
" transform="scale(0.015625)"/>
        <path id="DejaVuSans-31" d="M 794 531 
L 1825 531 
L 1825 4091 
L 703 3866 
L 703 4441 
L 1819 4666 
L 2450 4666 
L 2450 531 
L 3481 531 
L 3481 0 
L 794 0 
L 794 531 
z
" transform="scale(0.015625)"/>
       </defs>
       <use xlink:href="#DejaVuSans-32"/>
       <use xlink:href="#DejaVuSans-30" x="63.623047"/>
       <use xlink:href="#DejaVuSans-32" x="127.246094"/>
       <use xlink:href="#DejaVuSans-30" x="190.869141"/>
       <use xlink:href="#DejaVuSans-2d" x="254.492188"/>
       <use xlink:href="#DejaVuSans-30" x="290.576172"/>
       <use xlink:href="#DejaVuSans-31" x="354.199219"/>
      </g>
     </g>
    </g>
    <g id="xtick_2">
     <g id="line2d_2">
      <g>
       <use xlink:href="#m843498f0c1" x="206.898077" y="368.3955" style="stroke: #000000; stroke-width: 0.8"/>
      </g>
     </g>
     <g id="text_2">
      <!-- 2020-04 -->
      <g transform="translate(186.006671 382.993937)scale(0.1 -0.1)">
       <defs>
        <path id="DejaVuSans-34" d="M 2419 4116 
L 825 1625 
L 2419 1625 
L 2419 4116 
z
M 2253 4666 
L 3047 4666 
L 3047 1625 
L 3713 1625 
L 3713 1100 
L 3047 1100 
L 3047 0 
L 2419 0 
L 2419 1100 
L 313 1100 
L 313 1709 
L 2253 4666 
z
" transform="scale(0.015625)"/>
       </defs>
       <use xlink:href="#DejaVuSans-32"/>
       <use xlink:href="#DejaVuSans-30" x="63.623047"/>
       <use xlink:href="#DejaVuSans-32" x="127.246094"/>
       <use xlink:href="#DejaVuSans-30" x="190.869141"/>
       <use xlink:href="#DejaVuSans-2d" x="254.492188"/>
       <use xlink:href="#DejaVuSans-30" x="290.576172"/>
       <use xlink:href="#DejaVuSans-34" x="354.199219"/>
      </g>
     </g>
    </g>
    <g id="xtick_3">
     <g id="line2d_3">
      <g>
       <use xlink:href="#m843498f0c1" x="330.407958" y="368.3955" style="stroke: #000000; stroke-width: 0.8"/>
      </g>
     </g>
     <g id="text_3">
      <!-- 2020-07 -->
      <g transform="translate(309.516552 382.993937)scale(0.1 -0.1)">
       <defs>
        <path id="DejaVuSans-37" d="M 525 4666 
L 3525 4666 
L 3525 4397 
L 1831 0 
L 1172 0 
L 2766 4134 
L 525 4134 
L 525 4666 
z
" transform="scale(0.015625)"/>
       </defs>
       <use xlink:href="#DejaVuSans-32"/>
       <use xlink:href="#DejaVuSans-30" x="63.623047"/>
       <use xlink:href="#DejaVuSans-32" x="127.246094"/>
       <use xlink:href="#DejaVuSans-30" x="190.869141"/>
       <use xlink:href="#DejaVuSans-2d" x="254.492188"/>
       <use xlink:href="#DejaVuSans-30" x="290.576172"/>
       <use xlink:href="#DejaVuSans-37" x="354.199219"/>
      </g>
     </g>
    </g>
    <g id="xtick_4">
     <g id="line2d_4">
      <g>
       <use xlink:href="#m843498f0c1" x="455.275091" y="368.3955" style="stroke: #000000; stroke-width: 0.8"/>
      </g>
     </g>
     <g id="text_4">
      <!-- 2020-10 -->
      <g transform="translate(434.383685 382.993937)scale(0.1 -0.1)">
       <use xlink:href="#DejaVuSans-32"/>
       <use xlink:href="#DejaVuSans-30" x="63.623047"/>
       <use xlink:href="#DejaVuSans-32" x="127.246094"/>
       <use xlink:href="#DejaVuSans-30" x="190.869141"/>
       <use xlink:href="#DejaVuSans-2d" x="254.492188"/>
       <use xlink:href="#DejaVuSans-31" x="290.576172"/>
       <use xlink:href="#DejaVuSans-30" x="354.199219"/>
      </g>
     </g>
    </g>
    <g id="xtick_5">
     <g id="line2d_5">
      <g>
       <use xlink:href="#m843498f0c1" x="580.142224" y="368.3955" style="stroke: #000000; stroke-width: 0.8"/>
      </g>
     </g>
     <g id="text_5">
      <!-- 2021-01 -->
      <g transform="translate(559.250818 382.993937)scale(0.1 -0.1)">
       <use xlink:href="#DejaVuSans-32"/>
       <use xlink:href="#DejaVuSans-30" x="63.623047"/>
       <use xlink:href="#DejaVuSans-32" x="127.246094"/>
       <use xlink:href="#DejaVuSans-31" x="190.869141"/>
       <use xlink:href="#DejaVuSans-2d" x="254.492188"/>
       <use xlink:href="#DejaVuSans-30" x="290.576172"/>
       <use xlink:href="#DejaVuSans-31" x="354.199219"/>
      </g>
     </g>
    </g>
    <g id="xtick_6">
     <g id="line2d_6">
      <g>
       <use xlink:href="#m843498f0c1" x="702.294854" y="368.3955" style="stroke: #000000; stroke-width: 0.8"/>
      </g>
     </g>
     <g id="text_6">
      <!-- 2021-04 -->
      <g transform="translate(681.403448 382.993937)scale(0.1 -0.1)">
       <use xlink:href="#DejaVuSans-32"/>
       <use xlink:href="#DejaVuSans-30" x="63.623047"/>
       <use xlink:href="#DejaVuSans-32" x="127.246094"/>
       <use xlink:href="#DejaVuSans-31" x="190.869141"/>
       <use xlink:href="#DejaVuSans-2d" x="254.492188"/>
       <use xlink:href="#DejaVuSans-30" x="290.576172"/>
       <use xlink:href="#DejaVuSans-34" x="354.199219"/>
      </g>
     </g>
    </g>
    <g id="xtick_7">
     <g id="line2d_7">
      <g>
       <use xlink:href="#m843498f0c1" x="825.804735" y="368.3955" style="stroke: #000000; stroke-width: 0.8"/>
      </g>
     </g>
     <g id="text_7">
      <!-- 2021-07 -->
      <g transform="translate(804.913329 382.993937)scale(0.1 -0.1)">
       <use xlink:href="#DejaVuSans-32"/>
       <use xlink:href="#DejaVuSans-30" x="63.623047"/>
       <use xlink:href="#DejaVuSans-32" x="127.246094"/>
       <use xlink:href="#DejaVuSans-31" x="190.869141"/>
       <use xlink:href="#DejaVuSans-2d" x="254.492188"/>
       <use xlink:href="#DejaVuSans-30" x="290.576172"/>
       <use xlink:href="#DejaVuSans-37" x="354.199219"/>
      </g>
     </g>
    </g>
    <g id="xtick_8">
     <g id="line2d_8">
      <g>
       <use xlink:href="#m843498f0c1" x="950.671868" y="368.3955" style="stroke: #000000; stroke-width: 0.8"/>
      </g>
     </g>
     <g id="text_8">
      <!-- 2021-10 -->
      <g transform="translate(929.780462 382.993937)scale(0.1 -0.1)">
       <use xlink:href="#DejaVuSans-32"/>
       <use xlink:href="#DejaVuSans-30" x="63.623047"/>
       <use xlink:href="#DejaVuSans-32" x="127.246094"/>
       <use xlink:href="#DejaVuSans-31" x="190.869141"/>
       <use xlink:href="#DejaVuSans-2d" x="254.492188"/>
       <use xlink:href="#DejaVuSans-31" x="290.576172"/>
       <use xlink:href="#DejaVuSans-30" x="354.199219"/>
      </g>
     </g>
    </g>
    <g id="xtick_9">
     <g id="line2d_9">
      <g>
       <use xlink:href="#m843498f0c1" x="1075.539001" y="368.3955" style="stroke: #000000; stroke-width: 0.8"/>
      </g>
     </g>
     <g id="text_9">
      <!-- 2022-01 -->
      <g transform="translate(1054.647595 382.993937)scale(0.1 -0.1)">
       <use xlink:href="#DejaVuSans-32"/>
       <use xlink:href="#DejaVuSans-30" x="63.623047"/>
       <use xlink:href="#DejaVuSans-32" x="127.246094"/>
       <use xlink:href="#DejaVuSans-32" x="190.869141"/>
       <use xlink:href="#DejaVuSans-2d" x="254.492188"/>
       <use xlink:href="#DejaVuSans-30" x="290.576172"/>
       <use xlink:href="#DejaVuSans-31" x="354.199219"/>
      </g>
     </g>
    </g>
    <g id="xtick_10">
     <g id="line2d_10">
      <g>
       <use xlink:href="#m843498f0c1" x="1197.691631" y="368.3955" style="stroke: #000000; stroke-width: 0.8"/>
      </g>
     </g>
     <g id="text_10">
      <!-- 2022-04 -->
      <g transform="translate(1176.800225 382.993937)scale(0.1 -0.1)">
       <use xlink:href="#DejaVuSans-32"/>
       <use xlink:href="#DejaVuSans-30" x="63.623047"/>
       <use xlink:href="#DejaVuSans-32" x="127.246094"/>
       <use xlink:href="#DejaVuSans-32" x="190.869141"/>
       <use xlink:href="#DejaVuSans-2d" x="254.492188"/>
       <use xlink:href="#DejaVuSans-30" x="290.576172"/>
       <use xlink:href="#DejaVuSans-34" x="354.199219"/>
      </g>
     </g>
    </g>
    <g id="xtick_11">
     <g id="line2d_11">
      <g>
       <use xlink:href="#m843498f0c1" x="1321.201513" y="368.3955" style="stroke: #000000; stroke-width: 0.8"/>
      </g>
     </g>
     <g id="text_11">
      <!-- 2022-07 -->
      <g transform="translate(1300.310106 382.993937)scale(0.1 -0.1)">
       <use xlink:href="#DejaVuSans-32"/>
       <use xlink:href="#DejaVuSans-30" x="63.623047"/>
       <use xlink:href="#DejaVuSans-32" x="127.246094"/>
       <use xlink:href="#DejaVuSans-32" x="190.869141"/>
       <use xlink:href="#DejaVuSans-2d" x="254.492188"/>
       <use xlink:href="#DejaVuSans-30" x="290.576172"/>
       <use xlink:href="#DejaVuSans-37" x="354.199219"/>
      </g>
     </g>
    </g>
   </g>
   <g id="matplotlib.axis_2">
    <g id="ytick_1">
     <g id="line2d_12">
      <defs>
       <path id="mefbb2c3aec" d="M 0 0 
L -3.5 0 
" style="stroke: #000000; stroke-width: 0.8"/>
      </defs>
      <g>
       <use xlink:href="#mefbb2c3aec" x="52.375" y="346.776258" style="stroke: #000000; stroke-width: 0.8"/>
      </g>
     </g>
     <g id="text_12">
      <!-- 0 -->
      <g transform="translate(39.0125 350.575477)scale(0.1 -0.1)">
       <use xlink:href="#DejaVuSans-30"/>
      </g>
     </g>
    </g>
    <g id="ytick_2">
     <g id="line2d_13">
      <g>
       <use xlink:href="#mefbb2c3aec" x="52.375" y="285.335071" style="stroke: #000000; stroke-width: 0.8"/>
      </g>
     </g>
     <g id="text_13">
      <!-- 20000 -->
      <g transform="translate(13.5625 289.13429)scale(0.1 -0.1)">
       <use xlink:href="#DejaVuSans-32"/>
       <use xlink:href="#DejaVuSans-30" x="63.623047"/>
       <use xlink:href="#DejaVuSans-30" x="127.246094"/>
       <use xlink:href="#DejaVuSans-30" x="190.869141"/>
       <use xlink:href="#DejaVuSans-30" x="254.492188"/>
      </g>
     </g>
    </g>
    <g id="ytick_3">
     <g id="line2d_14">
      <g>
       <use xlink:href="#mefbb2c3aec" x="52.375" y="223.893884" style="stroke: #000000; stroke-width: 0.8"/>
      </g>
     </g>
     <g id="text_14">
      <!-- 40000 -->
      <g transform="translate(13.5625 227.693102)scale(0.1 -0.1)">
       <use xlink:href="#DejaVuSans-34"/>
       <use xlink:href="#DejaVuSans-30" x="63.623047"/>
       <use xlink:href="#DejaVuSans-30" x="127.246094"/>
       <use xlink:href="#DejaVuSans-30" x="190.869141"/>
       <use xlink:href="#DejaVuSans-30" x="254.492188"/>
      </g>
     </g>
    </g>
    <g id="ytick_4">
     <g id="line2d_15">
      <g>
       <use xlink:href="#mefbb2c3aec" x="52.375" y="162.452696" style="stroke: #000000; stroke-width: 0.8"/>
      </g>
     </g>
     <g id="text_15">
      <!-- 60000 -->
      <g transform="translate(13.5625 166.251915)scale(0.1 -0.1)">
       <defs>
        <path id="DejaVuSans-36" d="M 2113 2584 
Q 1688 2584 1439 2293 
Q 1191 2003 1191 1497 
Q 1191 994 1439 701 
Q 1688 409 2113 409 
Q 2538 409 2786 701 
Q 3034 994 3034 1497 
Q 3034 2003 2786 2293 
Q 2538 2584 2113 2584 
z
M 3366 4563 
L 3366 3988 
Q 3128 4100 2886 4159 
Q 2644 4219 2406 4219 
Q 1781 4219 1451 3797 
Q 1122 3375 1075 2522 
Q 1259 2794 1537 2939 
Q 1816 3084 2150 3084 
Q 2853 3084 3261 2657 
Q 3669 2231 3669 1497 
Q 3669 778 3244 343 
Q 2819 -91 2113 -91 
Q 1303 -91 875 529 
Q 447 1150 447 2328 
Q 447 3434 972 4092 
Q 1497 4750 2381 4750 
Q 2619 4750 2861 4703 
Q 3103 4656 3366 4563 
z
" transform="scale(0.015625)"/>
       </defs>
       <use xlink:href="#DejaVuSans-36"/>
       <use xlink:href="#DejaVuSans-30" x="63.623047"/>
       <use xlink:href="#DejaVuSans-30" x="127.246094"/>
       <use xlink:href="#DejaVuSans-30" x="190.869141"/>
       <use xlink:href="#DejaVuSans-30" x="254.492188"/>
      </g>
     </g>
    </g>
    <g id="ytick_5">
     <g id="line2d_16">
      <g>
       <use xlink:href="#mefbb2c3aec" x="52.375" y="101.011509" style="stroke: #000000; stroke-width: 0.8"/>
      </g>
     </g>
     <g id="text_16">
      <!-- 80000 -->
      <g transform="translate(13.5625 104.810728)scale(0.1 -0.1)">
       <defs>
        <path id="DejaVuSans-38" d="M 2034 2216 
Q 1584 2216 1326 1975 
Q 1069 1734 1069 1313 
Q 1069 891 1326 650 
Q 1584 409 2034 409 
Q 2484 409 2743 651 
Q 3003 894 3003 1313 
Q 3003 1734 2745 1975 
Q 2488 2216 2034 2216 
z
M 1403 2484 
Q 997 2584 770 2862 
Q 544 3141 544 3541 
Q 544 4100 942 4425 
Q 1341 4750 2034 4750 
Q 2731 4750 3128 4425 
Q 3525 4100 3525 3541 
Q 3525 3141 3298 2862 
Q 3072 2584 2669 2484 
Q 3125 2378 3379 2068 
Q 3634 1759 3634 1313 
Q 3634 634 3220 271 
Q 2806 -91 2034 -91 
Q 1263 -91 848 271 
Q 434 634 434 1313 
Q 434 1759 690 2068 
Q 947 2378 1403 2484 
z
M 1172 3481 
Q 1172 3119 1398 2916 
Q 1625 2713 2034 2713 
Q 2441 2713 2670 2916 
Q 2900 3119 2900 3481 
Q 2900 3844 2670 4047 
Q 2441 4250 2034 4250 
Q 1625 4250 1398 4047 
Q 1172 3844 1172 3481 
z
" transform="scale(0.015625)"/>
       </defs>
       <use xlink:href="#DejaVuSans-38"/>
       <use xlink:href="#DejaVuSans-30" x="63.623047"/>
       <use xlink:href="#DejaVuSans-30" x="127.246094"/>
       <use xlink:href="#DejaVuSans-30" x="190.869141"/>
       <use xlink:href="#DejaVuSans-30" x="254.492188"/>
      </g>
     </g>
    </g>
    <g id="ytick_6">
     <g id="line2d_17">
      <g>
       <use xlink:href="#mefbb2c3aec" x="52.375" y="39.570322" style="stroke: #000000; stroke-width: 0.8"/>
      </g>
     </g>
     <g id="text_17">
      <!-- 100000 -->
      <g transform="translate(7.2 43.36954)scale(0.1 -0.1)">
       <use xlink:href="#DejaVuSans-31"/>
       <use xlink:href="#DejaVuSans-30" x="63.623047"/>
       <use xlink:href="#DejaVuSans-30" x="127.246094"/>
       <use xlink:href="#DejaVuSans-30" x="190.869141"/>
       <use xlink:href="#DejaVuSans-30" x="254.492188"/>
       <use xlink:href="#DejaVuSans-30" x="318.115234"/>
      </g>
     </g>
    </g>
   </g>
   <g id="line2d_18">
    <path d="M 113.247727 346.776258 
L 186.539305 346.699457 
L 189.253808 346.499773 
L 190.61106 346.16799 
L 191.968311 346.561214 
L 193.325562 346.573502 
L 196.040065 345.995955 
L 197.397317 346.097333 
L 198.754568 345.922226 
L 200.11182 345.31703 
L 204.183574 346.293945 
L 205.540825 343.33248 
L 206.898077 344.598168 
L 208.255328 344.595096 
L 209.61258 345.292453 
L 210.969831 345.765551 
L 213.684334 344.727195 
L 215.041586 342.143593 
L 217.756088 344.733339 
L 219.11334 343.953036 
L 220.470591 344.70569 
L 221.827843 345.876145 
L 223.185094 344.125071 
L 224.542346 342.896247 
L 225.899597 345.519786 
L 227.256849 344.681114 
L 228.6141 342.091368 
L 229.971351 345.31703 
L 231.328603 344.834717 
L 232.685854 343.37856 
L 234.043106 345.320102 
L 235.400357 342.681203 
L 236.757609 344.72105 
L 238.11486 344.908446 
L 239.472112 344.530583 
L 240.829363 345.965234 
L 242.186614 344.269458 
L 243.543866 344.871581 
L 244.901117 344.155792 
L 246.258369 345.274021 
L 247.61562 343.012985 
L 248.972872 344.189584 
L 250.330123 345.75019 
L 251.687375 344.361619 
L 253.044626 345.095842 
L 254.401877 344.487574 
L 255.759129 344.088206 
L 257.11638 345.046689 
L 258.473632 345.52593 
L 259.830883 343.728775 
L 261.188135 345.479849 
L 262.545386 343.943819 
L 263.902638 345.231012 
L 265.259889 345.086625 
L 266.61714 344.333971 
L 267.974392 345.424552 
L 269.331643 345.648812 
L 270.688895 344.613528 
L 272.046146 345.01904 
L 273.403398 343.87009 
L 274.760649 344.128143 
L 277.475152 344.441493 
L 278.832403 344.748699 
L 280.189655 345.246373 
L 282.904158 344.764059 
L 285.618661 344.886942 
L 286.975912 345.393831 
L 288.333164 344.527511 
L 289.690415 344.1988 
L 291.047666 345.83928 
L 292.404918 344.665753 
L 293.762169 343.811721 
L 295.119421 344.435349 
L 296.476672 344.509078 
L 297.833924 345.120418 
L 299.191175 344.936095 
L 300.548427 344.46607 
L 301.905678 344.530583 
L 303.262929 343.725703 
L 304.620181 344.28789 
L 305.977432 343.639686 
L 308.691935 344.524439 
L 310.049187 344.736411 
L 311.406438 343.851658 
L 312.76369 344.066702 
L 314.120941 343.406209 
L 315.478192 341.246551 
L 316.835444 344.035981 
L 318.192695 343.006841 
L 319.549947 340.994642 
L 320.907198 341.950053 
L 322.26445 341.510748 
L 323.621701 340.939345 
L 324.978953 340.66286 
L 326.336204 339.940926 
L 327.693455 339.996223 
L 329.050707 341.019219 
L 330.407958 337.710611 
L 331.76521 336.125428 
L 333.122461 338.223645 
L 334.479713 338.094618 
L 337.194216 342.02071 
L 338.551467 336.312824 
L 339.908718 336.269815 
L 341.26597 338.060826 
L 342.623221 332.982712 
L 343.980473 336.994821 
L 345.337724 338.99166 
L 346.694976 335.603178 
L 348.052227 336.358905 
L 349.409479 334.872028 
L 350.76673 336.180725 
L 352.123981 334.779866 
L 353.481233 332.374444 
L 354.838484 336.795137 
L 356.195736 339.240497 
L 357.552987 336.312824 
L 358.910239 336.595453 
L 360.26749 333.551043 
L 361.624742 331.990436 
L 364.339244 338.282014 
L 365.696496 337.898007 
L 367.053747 333.84596 
L 368.410999 336.727552 
L 369.76825 334.601687 
L 371.125502 334.285265 
L 372.482753 335.532521 
L 373.840005 337.05319 
L 375.197256 339.839548 
L 376.554507 339.056173 
L 377.911759 335.209955 
L 379.26901 337.000965 
L 380.626262 334.153166 
L 381.983513 333.18854 
L 383.340765 337.040902 
L 384.698016 339.314226 
L 386.055268 335.830511 
L 387.412519 335.824367 
L 388.76977 339.050029 
L 390.127022 336.862723 
L 391.484273 336.721408 
L 392.841525 341.056084 
L 394.198776 341.151317 
L 395.556028 338.125339 
L 396.913279 339.695161 
L 398.270531 338.300446 
L 399.627782 337.901079 
L 400.985033 338.81348 
L 402.342285 341.470812 
L 403.699536 339.698233 
L 405.056788 340.321861 
L 406.414039 339.907133 
L 407.771291 339.145263 
L 409.128542 339.716666 
L 410.485794 339.446324 
L 411.843045 343.043706 
L 413.200296 342.174313 
L 414.557548 339.937854 
L 415.914799 340.890192 
L 417.272051 338.558499 
L 418.629302 340.429383 
L 419.986554 340.03616 
L 421.343805 341.704288 
L 422.701057 344.908446 
L 424.058308 342.036071 
L 425.415559 340.785742 
L 426.772811 341.175894 
L 428.130062 341.682784 
L 429.487314 340.251204 
L 430.844565 342.447727 
L 432.201817 343.633541 
L 433.559068 341.685856 
L 434.91632 340.441672 
L 436.273571 341.102164 
L 437.630822 340.78267 
L 438.988074 340.119106 
L 440.345325 343.292543 
L 441.702577 343.13894 
L 443.059828 343.842441 
L 444.41708 341.040723 
L 445.774331 342.054503 
L 447.131583 344.269458 
L 448.488834 342.601329 
L 449.846085 344.281746 
L 451.203337 344.945311 
L 452.560588 343.627397 
L 453.91784 341.492316 
L 455.275091 342.681203 
L 456.632343 342.859382 
L 457.989594 342.060647 
L 459.346846 344.453781 
L 460.704097 344.352403 
L 462.061348 343.900811 
L 463.4186 342.192746 
L 464.775851 342.890103 
L 466.133103 341.784162 
L 467.490354 342.976121 
L 468.847606 343.27411 
L 470.204857 344.005261 
L 471.562109 343.725703 
L 474.276611 341.738081 
L 475.633863 341.833315 
L 476.991114 342.063719 
L 478.348366 343.16966 
L 479.705617 344.46607 
L 481.062869 343.310975 
L 482.42012 342.745716 
L 485.134623 339.943998 
L 486.491874 341.105237 
L 487.849126 342.727284 
L 489.206377 343.833225 
L 490.563629 342.195818 
L 493.278132 341.175894 
L 494.635383 342.546032 
L 495.992635 338.896426 
L 497.349886 343.114363 
L 498.707137 343.891594 
L 500.064389 249.683822 
L 501.42164 338.755111 
L 502.778892 339.132974 
L 504.136143 338.168348 
L 505.493395 338.758183 
L 506.850646 343.630469 
L 508.207898 342.868599 
L 509.565149 333.508034 
L 510.9224 339.888701 
L 512.279652 337.615377 
L 514.994155 337.452558 
L 516.351406 340.374086 
L 517.708658 342.9454 
L 519.065909 333.458881 
L 520.423161 337.065478 
L 521.780412 336.257527 
L 523.137663 336.223734 
L 524.494915 327.689553 
L 525.852166 339.624504 
L 527.209418 340.865616 
L 528.566669 335.483368 
L 529.923921 337.016326 
L 531.281172 335.692268 
L 532.638424 337.532432 
L 533.995675 337.443342 
L 535.352926 340.779598 
L 536.710178 340.487753 
L 538.067429 331.901347 
L 539.424681 329.16107 
L 540.781932 328.838504 
L 542.139184 327.188808 
L 543.496435 331.363736 
L 544.853687 340.527689 
L 546.210938 330.540424 
L 547.568189 329.643383 
L 548.925441 329.843067 
L 550.282692 323.35795 
L 551.639944 327.757139 
L 552.997195 326.970691 
L 554.354447 332.036517 
L 555.711698 335.348197 
L 557.06895 323.929353 
L 558.426201 326.426937 
L 559.783452 322.884852 
L 561.140704 321.766623 
L 562.497955 329.07198 
L 563.855207 329.517429 
L 565.212458 335.962609 
L 566.56971 318.885031 
L 567.926961 322.897141 
L 569.284213 315.177056 
L 570.641464 328.178011 
L 571.998715 334.002635 
L 573.355967 335.990258 
L 574.713218 334.669272 
L 576.07047 317.745297 
L 577.427721 318.964905 
L 578.784973 310.805515 
L 580.142224 312.562733 
L 581.499476 323.634435 
L 582.856727 329.025899 
L 584.213978 330.915216 
L 585.57123 315.776107 
L 586.928481 323.16441 
L 588.285733 316.700797 
L 589.642984 305.930157 
L 591.000236 310.138878 
L 592.357487 321.606876 
L 593.714739 323.877128 
L 595.07199 318.534816 
L 596.429241 320.368836 
L 597.786493 319.01713 
L 599.143744 316.651644 
L 600.500996 320.562376 
L 601.858247 327.323978 
L 603.215499 331.54806 
L 604.57275 323.339517 
L 605.930002 321.990883 
L 607.287253 321.738974 
L 608.644504 321.050833 
L 610.001756 319.173805 
L 611.359007 332.17476 
L 612.716259 334.743002 
L 614.07351 320.992464 
L 615.430762 327.164231 
L 616.788013 324.190478 
L 618.145265 326.629693 
L 619.502516 327.290186 
L 620.859767 335.756781 
L 622.217019 337.45563 
L 623.57427 331.535772 
L 624.931522 331.649438 
L 626.288773 329.247087 
L 627.646025 331.901347 
L 629.003276 332.982712 
L 631.717779 338.46941 
L 633.07503 335.345125 
L 634.432282 336.054771 
L 635.789533 333.938122 
L 637.146785 334.795227 
L 638.504036 335.031775 
L 639.861288 340.850256 
L 641.218539 340.417095 
L 642.575791 337.882646 
L 643.933042 335.885808 
L 645.290293 336.070131 
L 646.647545 335.474152 
L 648.004796 336.527868 
L 649.362048 341.375578 
L 650.719299 342.057575 
L 652.076551 335.163874 
L 653.433802 336.822786 
L 656.148305 336.226806 
L 657.505556 336.438778 
L 658.862808 339.606072 
L 660.220059 340.205123 
L 661.577311 337.108487 
L 662.934562 338.374176 
L 664.291814 337.910295 
L 665.649065 340.383303 
L 667.006317 339.805755 
L 668.363568 341.526109 
L 669.720819 342.340204 
L 671.078071 341.366362 
L 673.792574 341.510748 
L 675.149825 341.962341 
L 676.507077 342.923896 
L 677.864328 344.260242 
L 679.22158 343.774856 
L 680.578831 341.421659 
L 681.936082 340.496969 
L 683.293334 339.8119 
L 684.650585 341.860963 
L 686.007837 341.501532 
L 687.365088 341.983846 
L 688.72234 344.662681 
L 690.079591 341.2742 
L 691.436843 343.016057 
L 692.794094 340.742734 
L 694.151345 341.679712 
L 695.508597 342.444654 
L 696.865848 344.238737 
L 698.2231 343.197309 
L 699.580351 342.72114 
L 700.937603 341.225047 
L 702.294854 342.398574 
L 703.652106 341.91626 
L 705.009357 343.320191 
L 707.72386 344.800924 
L 709.081111 342.248043 
L 710.438363 342.082151 
L 713.152866 342.349421 
L 714.510117 341.953125 
L 715.867369 343.421569 
L 717.22462 343.891594 
L 718.581871 340.899409 
L 719.939123 341.446235 
L 721.296374 341.860963 
L 724.010877 341.642847 
L 725.368129 343.790216 
L 726.72538 344.045197 
L 728.082631 342.745716 
L 729.439883 342.727284 
L 730.797134 341.535325 
L 732.154386 341.117525 
L 733.511637 342.128232 
L 734.868889 343.962252 
L 736.22614 344.281746 
L 737.583392 342.785653 
L 738.940643 342.475375 
L 741.655146 342.278763 
L 743.012397 342.782581 
L 744.369649 342.776437 
L 745.7269 344.103566 
L 747.084152 343.157372 
L 748.441403 343.648902 
L 749.798655 343.04985 
L 751.155906 342.939256 
L 752.513157 343.664262 
L 753.870409 344.847005 
L 755.22766 345.363111 
L 756.584912 343.833225 
L 757.942163 343.946891 
L 759.299415 343.353984 
L 763.371169 345.151139 
L 764.72842 345.52593 
L 766.085672 344.419989 
L 767.442923 344.625817 
L 768.800175 344.217233 
L 771.514678 344.926878 
L 772.871929 345.654956 
L 774.229181 345.876145 
L 775.586432 344.776348 
L 776.943683 345.089698 
L 778.300935 344.644249 
L 779.658186 345.101986 
L 781.015438 344.834717 
L 782.372689 345.974451 
L 785.087192 346.042036 
L 786.444444 345.267877 
L 787.801695 345.40612 
L 789.158946 345.255589 
L 790.516198 345.725614 
L 791.873449 345.916082 
L 793.230701 345.968307 
L 794.587952 345.572011 
L 798.659707 345.442984 
L 800.016958 345.624236 
L 801.374209 346.091189 
L 802.731461 346.223287 
L 804.088712 345.833136 
L 805.445964 345.246373 
L 806.803215 345.522858 
L 809.517718 345.618092 
L 810.87497 346.15263 
L 812.232221 346.210999 
L 813.589472 345.697965 
L 814.946724 345.581227 
L 817.661227 345.756334 
L 819.018478 345.54129 
L 820.37573 346.075829 
L 821.732981 346.192567 
L 823.090233 345.234084 
L 824.447484 344.963743 
L 827.161987 345.446056 
L 828.519238 346.776258 
L 831.233741 346.776258 
L 832.590993 342.576753 
L 833.948244 344.727195 
L 835.305496 343.913099 
L 836.662747 343.999116 
L 838.019998 346.776258 
L 839.37725 346.776258 
L 840.734501 341.360217 
L 842.091753 343.369344 
L 843.449004 342.905463 
L 844.806256 342.592113 
L 846.163507 343.440002 
L 847.520759 346.776258 
L 848.87801 346.776258 
L 850.235261 336.669183 
L 851.592513 341.956197 
L 852.949764 339.928638 
L 854.307016 340.189763 
L 855.664267 339.105326 
L 857.021519 346.776258 
L 858.37877 346.776258 
L 859.736022 327.996759 
L 861.093273 335.756781 
L 862.450524 335.016415 
L 863.807776 332.60792 
L 865.165027 335.704556 
L 866.522279 346.776258 
L 867.87953 346.776258 
L 869.236782 327.898453 
L 870.594033 318.593186 
L 871.951285 331.84605 
L 873.308536 328.939881 
L 874.665787 328.328542 
L 876.023039 346.776258 
L 877.38029 346.776258 
L 878.737542 306.713532 
L 880.094793 325.440806 
L 881.452045 325.400869 
L 882.809296 325.22269 
L 884.166548 324.608278 
L 885.523799 346.776258 
L 886.88105 346.776258 
L 888.238302 287.181379 
L 889.595553 323.308797 
L 890.952805 322.156774 
L 892.310056 316.559482 
L 893.667308 317.342857 
L 895.024559 346.776258 
L 896.381811 346.776258 
L 897.739062 282.041823 
L 899.096313 318.556321 
L 900.453565 313.97588 
L 901.810816 313.52736 
L 903.168068 312.725552 
L 904.525319 346.776258 
L 905.882571 346.776258 
L 907.239822 275.704165 
L 908.597074 314.455122 
L 909.954325 316.971138 
L 911.311576 320.934095 
L 912.668828 309.856249 
L 914.026079 346.776258 
L 916.740582 346.776258 
L 918.097834 267.07475 
L 919.455085 319.889595 
L 920.812337 323.471616 
L 922.169588 321.345751 
L 923.526839 346.776258 
L 924.884091 346.776258 
L 926.241342 297.92437 
L 927.598594 324.267279 
L 928.955845 327.830868 
L 930.313097 328.798567 
L 931.670348 329.597302 
L 933.0276 346.776258 
L 934.384851 346.776258 
L 935.742102 311.899168 
L 937.099354 323.757317 
L 938.456605 332.266922 
L 939.813857 332.789172 
L 941.171108 333.566403 
L 942.52836 346.776258 
L 943.885611 346.776258 
L 945.242863 322.187495 
L 946.600114 334.902749 
L 947.957365 333.151675 
L 949.314617 331.796897 
L 950.671868 336.494075 
L 952.02912 346.776258 
L 953.386371 346.776258 
L 954.743623 322.832627 
L 956.100874 337.94716 
L 957.458126 343.983756 
L 958.815377 329.102701 
L 960.172628 336.718336 
L 961.52988 346.776258 
L 964.244383 346.776258 
L 965.601634 325.228834 
L 966.958886 340.598347 
L 968.316137 340.318789 
L 969.673389 340.923985 
L 971.03064 346.776258 
L 972.387891 346.776258 
L 973.745143 336.589309 
L 975.102394 341.61827 
L 976.459646 341.609054 
L 977.816897 342.208106 
L 979.174149 342.057575 
L 980.5314 346.776258 
L 981.888652 346.776258 
L 983.245903 338.27587 
L 984.603154 343.178877 
L 985.960406 340.598347 
L 987.317657 342.100584 
L 988.674909 343.01913 
L 990.03216 346.776258 
L 991.389412 346.776258 
L 992.746663 339.919422 
L 994.103915 342.948472 
L 995.461166 343.596677 
L 996.818417 342.813302 
L 998.175669 343.27411 
L 999.53292 346.776258 
L 1002.247423 346.776258 
L 1003.604675 337.839637 
L 1004.961926 343.544452 
L 1006.319178 346.776258 
L 1007.676429 339.808828 
L 1009.03368 346.776258 
L 1010.390932 346.776258 
L 1011.748183 339.848764 
L 1013.105435 342.979193 
L 1014.462686 343.102075 
L 1015.819938 342.828662 
L 1017.177189 342.43851 
L 1018.534441 346.776258 
L 1019.891692 346.776258 
L 1021.248943 339.578423 
L 1022.606195 342.564465 
L 1023.963446 343.310975 
L 1025.320698 346.776258 
L 1029.392452 346.776258 
L 1030.749704 336.011762 
L 1032.106955 342.287979 
L 1033.464206 341.695072 
L 1034.821458 342.106728 
L 1036.178709 342.951544 
L 1037.535961 346.776258 
L 1038.893212 346.776258 
L 1040.250464 337.830421 
L 1041.607715 342.797941 
L 1042.964967 339.492405 
L 1044.322218 342.678131 
L 1045.679469 340.758094 
L 1047.036721 346.776258 
L 1048.393972 346.776258 
L 1049.751224 337.068551 
L 1051.108475 341.338713 
L 1052.465727 338.616868 
L 1053.822978 339.175983 
L 1055.18023 337.965592 
L 1056.537481 346.776258 
L 1057.894732 346.776258 
L 1059.251984 318.854311 
L 1060.609235 329.204079 
L 1061.966487 323.397886 
L 1063.323738 316.0188 
L 1064.68099 317.607054 
L 1066.038241 346.776258 
L 1067.395493 346.776258 
L 1068.752744 266.04561 
L 1070.109995 306.784189 
L 1071.467247 288.026195 
L 1072.824498 271.756568 
L 1074.18175 274.773331 
L 1075.539001 346.776258 
L 1078.253504 346.776258 
L 1079.610756 146.972589 
L 1080.968007 272.973104 
L 1082.325258 346.776258 
L 1086.397013 346.776258 
L 1087.754264 50.8755 
L 1089.111516 270.389502 
L 1090.468767 288.594526 
L 1091.826019 272.094495 
L 1093.18327 285.510178 
L 1094.540521 346.776258 
L 1095.897773 346.776258 
L 1097.255024 238.796443 
L 1098.612276 309.69343 
L 1099.969527 261.431377 
L 1101.326779 277.089663 
L 1102.68403 289.417838 
L 1104.041282 346.776258 
L 1105.398533 346.776258 
L 1106.755784 215.335126 
L 1108.113036 296.910591 
L 1109.470287 293.531325 
L 1110.827539 280.087993 
L 1112.18479 289.067623 
L 1113.542042 346.776258 
L 1114.899293 346.776258 
L 1116.256545 280.622532 
L 1117.613796 315.361379 
L 1118.971047 322.138342 
L 1120.328299 322.110693 
L 1121.68555 319.74828 
L 1123.042802 346.776258 
L 1124.400053 346.776258 
L 1125.757305 310.513669 
L 1127.114556 332.724659 
L 1128.471808 330.042751 
L 1131.18631 333.590979 
L 1132.543562 346.776258 
L 1133.900813 346.776258 
L 1135.258065 327.078213 
L 1136.615316 337.968664 
L 1137.972568 337.206793 
L 1139.329819 339.360307 
L 1140.687071 337.655314 
L 1142.044322 346.776258 
L 1143.401573 346.776258 
L 1144.758825 335.517161 
L 1146.116076 342.804085 
L 1147.473328 340.386375 
L 1148.830579 340.149826 
L 1150.187831 341.983846 
L 1151.545082 346.776258 
L 1152.902334 346.776258 
L 1154.259585 339.42482 
L 1155.616836 342.263403 
L 1156.974088 342.481519 
L 1158.331339 343.194237 
L 1159.688591 342.797941 
L 1161.045842 346.776258 
L 1162.403094 346.776258 
L 1163.760345 341.381722 
L 1165.117597 343.962252 
L 1166.474848 343.025274 
L 1167.832099 343.052922 
L 1169.189351 343.621253 
L 1170.546602 346.776258 
L 1171.903854 346.776258 
L 1173.261105 343.025274 
L 1174.618357 342.939256 
L 1175.975608 342.530672 
L 1177.33286 343.547524 
L 1178.690111 343.400065 
L 1180.047362 346.776258 
L 1181.404614 346.776258 
L 1182.761865 343.894666 
L 1184.119117 345.381543 
L 1185.476368 345.31703 
L 1186.83362 344.539799 
L 1188.190871 344.862365 
L 1189.548123 346.776258 
L 1190.905374 346.776258 
L 1192.262625 343.304831 
L 1193.619877 344.939167 
L 1194.977128 319.007914 
L 1196.33438 337.781268 
L 1197.691631 344.232593 
L 1199.048883 346.776258 
L 1200.406134 346.776258 
L 1201.763386 343.667334 
L 1203.120637 345.495209 
L 1204.477888 345.22794 
L 1207.192391 345.501354 
L 1208.549643 346.776258 
L 1209.906894 346.776258 
L 1211.264146 343.166588 
L 1212.621397 345.231012 
L 1213.978649 344.985248 
L 1215.3359 345.200292 
L 1216.693151 344.386196 
L 1218.050403 346.776258 
L 1222.122157 346.776258 
L 1223.479409 339.016236 
L 1224.83666 346.776258 
L 1231.622917 346.776258 
L 1232.980169 328.408415 
L 1234.33742 346.776258 
L 1241.123677 346.776258 
L 1242.480929 326.731071 
L 1243.83818 346.776258 
L 1250.624438 346.776258 
L 1251.981689 318.347421 
L 1253.33894 346.776258 
L 1260.125198 346.776258 
L 1261.482449 313.121848 
L 1262.839701 347.267788 
L 1264.196952 346.776258 
L 1269.625958 346.776258 
L 1270.983209 302.750575 
L 1272.340461 346.776258 
L 1279.126718 346.776258 
L 1280.483969 300.511044 
L 1281.841221 346.776258 
L 1288.627478 346.776258 
L 1289.984729 292.397735 
L 1291.341981 346.616511 
L 1292.699232 346.776258 
L 1298.128238 346.776258 
L 1299.48549 287.439431 
L 1300.842741 346.776258 
L 1307.628998 346.776258 
L 1308.98625 290.173564 
L 1310.343501 346.776258 
L 1313.058004 346.776258 
L 1313.058004 346.776258 
" clip-path="url(#pa5a0530d1f)" style="fill: none; stroke: #0000ff; stroke-width: 1.5; stroke-linecap: square"/>
   </g>
   <g id="line2d_19">
    <path d="M 1074.18175 318.760609 
L 1075.539001 321.554289 
L 1076.896253 292.783468 
L 1078.253504 313.324547 
L 1079.610756 289.401159 
L 1080.968007 281.681802 
L 1082.325258 289.224972 
L 1083.68251 323.311584 
L 1085.039761 325.647007 
L 1086.397013 311.70225 
L 1087.754264 230.68236 
L 1089.111516 270.395876 
L 1090.468767 292.186643 
L 1091.826019 290.657181 
L 1093.18327 304.636198 
L 1094.540521 308.852125 
L 1095.897773 211.869409 
L 1097.255024 255.137593 
L 1098.612276 284.629656 
L 1099.969527 287.356438 
L 1101.326779 290.75837 
L 1102.68403 317.206997 
L 1104.041282 320.157117 
L 1105.398533 237.352239 
L 1106.755784 278.096781 
L 1108.113036 277.19245 
L 1109.470287 286.318231 
L 1110.827539 291.808348 
L 1112.18479 323.092862 
L 1113.542042 325.450309 
L 1114.899293 242.630378 
L 1116.256545 293.990649 
L 1117.613796 293.636879 
L 1118.971047 296.125759 
L 1120.328299 304.675031 
L 1121.68555 340.41546 
L 1123.042802 341.028622 
L 1124.400053 277.324715 
L 1125.757305 315.898449 
L 1127.114556 318.41382 
L 1128.471808 319.367384 
L 1129.829059 322.905647 
L 1131.18631 349.974088 
L 1132.543562 349.624752 
L 1133.900813 305.012972 
L 1135.258065 332.238356 
L 1136.615316 332.384391 
L 1137.972568 333.281289 
L 1139.329819 335.628589 
L 1140.687071 353.274565 
L 1142.044322 352.59289 
L 1143.401573 323.099116 
L 1144.758825 340.566489 
L 1146.116076 340.319164 
L 1147.473328 341.197101 
L 1148.830579 341.435051 
L 1150.187831 353.2755 
L 1151.545082 352.593731 
L 1152.902334 333.646455 
L 1154.259585 344.81162 
L 1155.616836 343.543148 
L 1156.974088 343.795771 
L 1158.331339 344.471617 
L 1159.688591 351.833201 
L 1161.045842 351.296663 
L 1162.403094 339.111435 
L 1163.760345 345.642647 
L 1165.117597 345.009354 
L 1166.474848 345.203559 
L 1167.832099 345.22745 
L 1169.189351 350.158806 
L 1170.546602 349.790869 
L 1171.903854 341.770536 
L 1173.261105 345.923223 
L 1174.618357 345.078367 
L 1175.975608 345.019238 
L 1177.33286 345.158804 
L 1178.690111 348.567366 
L 1180.047362 348.359678 
L 1181.404614 343.055877 
L 1182.761865 345.165215 
L 1184.119117 344.766683 
L 1185.476368 345.228062 
L 1186.83362 345.246915 
L 1188.190871 348.089871 
L 1189.548123 347.930265 
L 1190.905374 344.260994 
L 1192.262625 345.65498 
L 1193.619877 345.333832 
L 1194.977128 342.634783 
L 1196.33438 342.278848 
L 1197.691631 344.538847 
L 1199.048883 344.736808 
L 1200.406134 342.020791 
L 1201.763386 343.448773 
L 1203.120637 335.403625 
L 1204.477888 342.226327 
L 1205.83514 344.610024 
L 1207.192391 346.540249 
L 1208.549643 346.53668 
L 1209.906894 344.076794 
L 1211.264146 345.190875 
L 1212.621397 340.866001 
L 1213.978649 344.287286 
L 1216.693151 346.705115 
L 1218.050403 346.684946 
L 1219.407654 344.277842 
L 1220.764906 345.78018 
L 1222.122157 343.570019 
L 1223.479409 344.707443 
L 1224.83666 345.215763 
L 1226.193912 346.788926 
L 1227.551163 346.760317 
L 1228.908414 345.509299 
L 1230.265666 346.265071 
L 1231.622917 342.691212 
L 1232.980169 344.485259 
L 1234.33742 344.856505 
L 1235.694672 345.762774 
L 1237.051923 345.837493 
L 1238.409175 345.276242 
L 1239.766426 345.73617 
L 1241.123677 338.223518 
L 1242.480929 344.455435 
L 1243.83818 344.747904 
L 1245.195432 345.304509 
L 1246.552683 345.425372 
L 1247.909935 345.211738 
L 1249.267186 345.514387 
L 1250.624438 335.451963 
L 1251.981689 343.775429 
L 1253.33894 344.094427 
L 1254.696192 344.531882 
L 1256.053443 344.730544 
L 1257.410695 344.743882 
L 1258.767946 345.009643 
L 1260.125198 331.056787 
L 1261.482449 343.281259 
L 1264.196952 344.062524 
L 1268.268706 344.69761 
L 1269.625958 327.12039 
L 1270.983209 342.528661 
L 1272.340461 342.786925 
L 1275.054964 343.544038 
L 1277.769466 344.094439 
L 1279.126718 321.459244 
L 1280.483969 342.267289 
L 1287.270227 343.975541 
L 1288.627478 318.026526 
L 1289.984729 341.656499 
L 1295.413735 343.294205 
L 1296.770987 343.623615 
L 1298.128238 313.466767 
L 1299.48549 341.233219 
L 1302.199992 342.276006 
L 1304.914495 343.078893 
L 1306.271747 343.427002 
L 1307.628998 309.562858 
L 1308.98625 341.740588 
L 1311.700753 342.669487 
L 1313.058004 343.055682 
L 1313.058004 343.055682 
" clip-path="url(#pa5a0530d1f)" style="fill: none; stroke: #ffa500; stroke-width: 1.5; stroke-linecap: square"/>
   </g>
   <g id="line2d_20">
    <path d="M 1313.058004 343.055682 
L 1314.415255 343.025339 
L 1315.772507 342.999616 
L 1317.129758 307.741728 
L 1318.48701 342.936431 
L 1319.844261 342.917197 
L 1321.201513 342.891681 
L 1322.558764 341.700716 
L 1323.916016 341.662349 
L 1325.273267 341.627796 
L 1326.630518 312.50375 
L 1327.98777 341.548999 
L 1329.345021 341.519804 
L 1330.702273 341.485423 
" clip-path="url(#pa5a0530d1f)" style="fill: none; stroke: #ff0000; stroke-width: 1.5; stroke-linecap: square"/>
   </g>
   <g id="patch_3">
    <path d="M 52.375 368.3955 
L 52.375 35.7555 
" style="fill: none; stroke: #000000; stroke-width: 0.8; stroke-linejoin: miter; stroke-linecap: square"/>
   </g>
   <g id="patch_4">
    <path d="M 1391.575 368.3955 
L 1391.575 35.7555 
" style="fill: none; stroke: #000000; stroke-width: 0.8; stroke-linejoin: miter; stroke-linecap: square"/>
   </g>
   <g id="patch_5">
    <path d="M 52.375 368.3955 
L 1391.575 368.3955 
" style="fill: none; stroke: #000000; stroke-width: 0.8; stroke-linejoin: miter; stroke-linecap: square"/>
   </g>
   <g id="patch_6">
    <path d="M 52.375 35.7555 
L 1391.575 35.7555 
" style="fill: none; stroke: #000000; stroke-width: 0.8; stroke-linejoin: miter; stroke-linecap: square"/>
   </g>
   <g id="text_18">
    <!-- Daily Confirmed Cases Forecasting - Georgia -->
    <g transform="translate(587.948125 16.318125)scale(0.12 -0.12)">
     <defs>
      <path id="DejaVuSans-44" d="M 1259 4147 
L 1259 519 
L 2022 519 
Q 2988 519 3436 956 
Q 3884 1394 3884 2338 
Q 3884 3275 3436 3711 
Q 2988 4147 2022 4147 
L 1259 4147 
z
M 628 4666 
L 1925 4666 
Q 3281 4666 3915 4102 
Q 4550 3538 4550 2338 
Q 4550 1131 3912 565 
Q 3275 0 1925 0 
L 628 0 
L 628 4666 
z
" transform="scale(0.015625)"/>
      <path id="DejaVuSans-61" d="M 2194 1759 
Q 1497 1759 1228 1600 
Q 959 1441 959 1056 
Q 959 750 1161 570 
Q 1363 391 1709 391 
Q 2188 391 2477 730 
Q 2766 1069 2766 1631 
L 2766 1759 
L 2194 1759 
z
M 3341 1997 
L 3341 0 
L 2766 0 
L 2766 531 
Q 2569 213 2275 61 
Q 1981 -91 1556 -91 
Q 1019 -91 701 211 
Q 384 513 384 1019 
Q 384 1609 779 1909 
Q 1175 2209 1959 2209 
L 2766 2209 
L 2766 2266 
Q 2766 2663 2505 2880 
Q 2244 3097 1772 3097 
Q 1472 3097 1187 3025 
Q 903 2953 641 2809 
L 641 3341 
Q 956 3463 1253 3523 
Q 1550 3584 1831 3584 
Q 2591 3584 2966 3190 
Q 3341 2797 3341 1997 
z
" transform="scale(0.015625)"/>
      <path id="DejaVuSans-69" d="M 603 3500 
L 1178 3500 
L 1178 0 
L 603 0 
L 603 3500 
z
M 603 4863 
L 1178 4863 
L 1178 4134 
L 603 4134 
L 603 4863 
z
" transform="scale(0.015625)"/>
      <path id="DejaVuSans-6c" d="M 603 4863 
L 1178 4863 
L 1178 0 
L 603 0 
L 603 4863 
z
" transform="scale(0.015625)"/>
      <path id="DejaVuSans-79" d="M 2059 -325 
Q 1816 -950 1584 -1140 
Q 1353 -1331 966 -1331 
L 506 -1331 
L 506 -850 
L 844 -850 
Q 1081 -850 1212 -737 
Q 1344 -625 1503 -206 
L 1606 56 
L 191 3500 
L 800 3500 
L 1894 763 
L 2988 3500 
L 3597 3500 
L 2059 -325 
z
" transform="scale(0.015625)"/>
      <path id="DejaVuSans-20" transform="scale(0.015625)"/>
      <path id="DejaVuSans-43" d="M 4122 4306 
L 4122 3641 
Q 3803 3938 3442 4084 
Q 3081 4231 2675 4231 
Q 1875 4231 1450 3742 
Q 1025 3253 1025 2328 
Q 1025 1406 1450 917 
Q 1875 428 2675 428 
Q 3081 428 3442 575 
Q 3803 722 4122 1019 
L 4122 359 
Q 3791 134 3420 21 
Q 3050 -91 2638 -91 
Q 1578 -91 968 557 
Q 359 1206 359 2328 
Q 359 3453 968 4101 
Q 1578 4750 2638 4750 
Q 3056 4750 3426 4639 
Q 3797 4528 4122 4306 
z
" transform="scale(0.015625)"/>
      <path id="DejaVuSans-6f" d="M 1959 3097 
Q 1497 3097 1228 2736 
Q 959 2375 959 1747 
Q 959 1119 1226 758 
Q 1494 397 1959 397 
Q 2419 397 2687 759 
Q 2956 1122 2956 1747 
Q 2956 2369 2687 2733 
Q 2419 3097 1959 3097 
z
M 1959 3584 
Q 2709 3584 3137 3096 
Q 3566 2609 3566 1747 
Q 3566 888 3137 398 
Q 2709 -91 1959 -91 
Q 1206 -91 779 398 
Q 353 888 353 1747 
Q 353 2609 779 3096 
Q 1206 3584 1959 3584 
z
" transform="scale(0.015625)"/>
      <path id="DejaVuSans-6e" d="M 3513 2113 
L 3513 0 
L 2938 0 
L 2938 2094 
Q 2938 2591 2744 2837 
Q 2550 3084 2163 3084 
Q 1697 3084 1428 2787 
Q 1159 2491 1159 1978 
L 1159 0 
L 581 0 
L 581 3500 
L 1159 3500 
L 1159 2956 
Q 1366 3272 1645 3428 
Q 1925 3584 2291 3584 
Q 2894 3584 3203 3211 
Q 3513 2838 3513 2113 
z
" transform="scale(0.015625)"/>
      <path id="DejaVuSans-66" d="M 2375 4863 
L 2375 4384 
L 1825 4384 
Q 1516 4384 1395 4259 
Q 1275 4134 1275 3809 
L 1275 3500 
L 2222 3500 
L 2222 3053 
L 1275 3053 
L 1275 0 
L 697 0 
L 697 3053 
L 147 3053 
L 147 3500 
L 697 3500 
L 697 3744 
Q 697 4328 969 4595 
Q 1241 4863 1831 4863 
L 2375 4863 
z
" transform="scale(0.015625)"/>
      <path id="DejaVuSans-72" d="M 2631 2963 
Q 2534 3019 2420 3045 
Q 2306 3072 2169 3072 
Q 1681 3072 1420 2755 
Q 1159 2438 1159 1844 
L 1159 0 
L 581 0 
L 581 3500 
L 1159 3500 
L 1159 2956 
Q 1341 3275 1631 3429 
Q 1922 3584 2338 3584 
Q 2397 3584 2469 3576 
Q 2541 3569 2628 3553 
L 2631 2963 
z
" transform="scale(0.015625)"/>
      <path id="DejaVuSans-6d" d="M 3328 2828 
Q 3544 3216 3844 3400 
Q 4144 3584 4550 3584 
Q 5097 3584 5394 3201 
Q 5691 2819 5691 2113 
L 5691 0 
L 5113 0 
L 5113 2094 
Q 5113 2597 4934 2840 
Q 4756 3084 4391 3084 
Q 3944 3084 3684 2787 
Q 3425 2491 3425 1978 
L 3425 0 
L 2847 0 
L 2847 2094 
Q 2847 2600 2669 2842 
Q 2491 3084 2119 3084 
Q 1678 3084 1418 2786 
Q 1159 2488 1159 1978 
L 1159 0 
L 581 0 
L 581 3500 
L 1159 3500 
L 1159 2956 
Q 1356 3278 1631 3431 
Q 1906 3584 2284 3584 
Q 2666 3584 2933 3390 
Q 3200 3197 3328 2828 
z
" transform="scale(0.015625)"/>
      <path id="DejaVuSans-65" d="M 3597 1894 
L 3597 1613 
L 953 1613 
Q 991 1019 1311 708 
Q 1631 397 2203 397 
Q 2534 397 2845 478 
Q 3156 559 3463 722 
L 3463 178 
Q 3153 47 2828 -22 
Q 2503 -91 2169 -91 
Q 1331 -91 842 396 
Q 353 884 353 1716 
Q 353 2575 817 3079 
Q 1281 3584 2069 3584 
Q 2775 3584 3186 3129 
Q 3597 2675 3597 1894 
z
M 3022 2063 
Q 3016 2534 2758 2815 
Q 2500 3097 2075 3097 
Q 1594 3097 1305 2825 
Q 1016 2553 972 2059 
L 3022 2063 
z
" transform="scale(0.015625)"/>
      <path id="DejaVuSans-64" d="M 2906 2969 
L 2906 4863 
L 3481 4863 
L 3481 0 
L 2906 0 
L 2906 525 
Q 2725 213 2448 61 
Q 2172 -91 1784 -91 
Q 1150 -91 751 415 
Q 353 922 353 1747 
Q 353 2572 751 3078 
Q 1150 3584 1784 3584 
Q 2172 3584 2448 3432 
Q 2725 3281 2906 2969 
z
M 947 1747 
Q 947 1113 1208 752 
Q 1469 391 1925 391 
Q 2381 391 2643 752 
Q 2906 1113 2906 1747 
Q 2906 2381 2643 2742 
Q 2381 3103 1925 3103 
Q 1469 3103 1208 2742 
Q 947 2381 947 1747 
z
" transform="scale(0.015625)"/>
      <path id="DejaVuSans-73" d="M 2834 3397 
L 2834 2853 
Q 2591 2978 2328 3040 
Q 2066 3103 1784 3103 
Q 1356 3103 1142 2972 
Q 928 2841 928 2578 
Q 928 2378 1081 2264 
Q 1234 2150 1697 2047 
L 1894 2003 
Q 2506 1872 2764 1633 
Q 3022 1394 3022 966 
Q 3022 478 2636 193 
Q 2250 -91 1575 -91 
Q 1294 -91 989 -36 
Q 684 19 347 128 
L 347 722 
Q 666 556 975 473 
Q 1284 391 1588 391 
Q 1994 391 2212 530 
Q 2431 669 2431 922 
Q 2431 1156 2273 1281 
Q 2116 1406 1581 1522 
L 1381 1569 
Q 847 1681 609 1914 
Q 372 2147 372 2553 
Q 372 3047 722 3315 
Q 1072 3584 1716 3584 
Q 2034 3584 2315 3537 
Q 2597 3491 2834 3397 
z
" transform="scale(0.015625)"/>
      <path id="DejaVuSans-46" d="M 628 4666 
L 3309 4666 
L 3309 4134 
L 1259 4134 
L 1259 2759 
L 3109 2759 
L 3109 2228 
L 1259 2228 
L 1259 0 
L 628 0 
L 628 4666 
z
" transform="scale(0.015625)"/>
      <path id="DejaVuSans-63" d="M 3122 3366 
L 3122 2828 
Q 2878 2963 2633 3030 
Q 2388 3097 2138 3097 
Q 1578 3097 1268 2742 
Q 959 2388 959 1747 
Q 959 1106 1268 751 
Q 1578 397 2138 397 
Q 2388 397 2633 464 
Q 2878 531 3122 666 
L 3122 134 
Q 2881 22 2623 -34 
Q 2366 -91 2075 -91 
Q 1284 -91 818 406 
Q 353 903 353 1747 
Q 353 2603 823 3093 
Q 1294 3584 2113 3584 
Q 2378 3584 2631 3529 
Q 2884 3475 3122 3366 
z
" transform="scale(0.015625)"/>
      <path id="DejaVuSans-74" d="M 1172 4494 
L 1172 3500 
L 2356 3500 
L 2356 3053 
L 1172 3053 
L 1172 1153 
Q 1172 725 1289 603 
Q 1406 481 1766 481 
L 2356 481 
L 2356 0 
L 1766 0 
Q 1100 0 847 248 
Q 594 497 594 1153 
L 594 3053 
L 172 3053 
L 172 3500 
L 594 3500 
L 594 4494 
L 1172 4494 
z
" transform="scale(0.015625)"/>
      <path id="DejaVuSans-67" d="M 2906 1791 
Q 2906 2416 2648 2759 
Q 2391 3103 1925 3103 
Q 1463 3103 1205 2759 
Q 947 2416 947 1791 
Q 947 1169 1205 825 
Q 1463 481 1925 481 
Q 2391 481 2648 825 
Q 2906 1169 2906 1791 
z
M 3481 434 
Q 3481 -459 3084 -895 
Q 2688 -1331 1869 -1331 
Q 1566 -1331 1297 -1286 
Q 1028 -1241 775 -1147 
L 775 -588 
Q 1028 -725 1275 -790 
Q 1522 -856 1778 -856 
Q 2344 -856 2625 -561 
Q 2906 -266 2906 331 
L 2906 616 
Q 2728 306 2450 153 
Q 2172 0 1784 0 
Q 1141 0 747 490 
Q 353 981 353 1791 
Q 353 2603 747 3093 
Q 1141 3584 1784 3584 
Q 2172 3584 2450 3431 
Q 2728 3278 2906 2969 
L 2906 3500 
L 3481 3500 
L 3481 434 
z
" transform="scale(0.015625)"/>
      <path id="DejaVuSans-47" d="M 3809 666 
L 3809 1919 
L 2778 1919 
L 2778 2438 
L 4434 2438 
L 4434 434 
Q 4069 175 3628 42 
Q 3188 -91 2688 -91 
Q 1594 -91 976 548 
Q 359 1188 359 2328 
Q 359 3472 976 4111 
Q 1594 4750 2688 4750 
Q 3144 4750 3555 4637 
Q 3966 4525 4313 4306 
L 4313 3634 
Q 3963 3931 3569 4081 
Q 3175 4231 2741 4231 
Q 1884 4231 1454 3753 
Q 1025 3275 1025 2328 
Q 1025 1384 1454 906 
Q 1884 428 2741 428 
Q 3075 428 3337 486 
Q 3600 544 3809 666 
z
" transform="scale(0.015625)"/>
     </defs>
     <use xlink:href="#DejaVuSans-44"/>
     <use xlink:href="#DejaVuSans-61" x="77.001953"/>
     <use xlink:href="#DejaVuSans-69" x="138.28125"/>
     <use xlink:href="#DejaVuSans-6c" x="166.064453"/>
     <use xlink:href="#DejaVuSans-79" x="193.847656"/>
     <use xlink:href="#DejaVuSans-20" x="253.027344"/>
     <use xlink:href="#DejaVuSans-43" x="284.814453"/>
     <use xlink:href="#DejaVuSans-6f" x="354.638672"/>
     <use xlink:href="#DejaVuSans-6e" x="415.820312"/>
     <use xlink:href="#DejaVuSans-66" x="479.199219"/>
     <use xlink:href="#DejaVuSans-69" x="514.404297"/>
     <use xlink:href="#DejaVuSans-72" x="542.1875"/>
     <use xlink:href="#DejaVuSans-6d" x="581.550781"/>
     <use xlink:href="#DejaVuSans-65" x="678.962891"/>
     <use xlink:href="#DejaVuSans-64" x="740.486328"/>
     <use xlink:href="#DejaVuSans-20" x="803.962891"/>
     <use xlink:href="#DejaVuSans-43" x="835.75"/>
     <use xlink:href="#DejaVuSans-61" x="905.574219"/>
     <use xlink:href="#DejaVuSans-73" x="966.853516"/>
     <use xlink:href="#DejaVuSans-65" x="1018.953125"/>
     <use xlink:href="#DejaVuSans-73" x="1080.476562"/>
     <use xlink:href="#DejaVuSans-20" x="1132.576172"/>
     <use xlink:href="#DejaVuSans-46" x="1164.363281"/>
     <use xlink:href="#DejaVuSans-6f" x="1218.257812"/>
     <use xlink:href="#DejaVuSans-72" x="1279.439453"/>
     <use xlink:href="#DejaVuSans-65" x="1318.302734"/>
     <use xlink:href="#DejaVuSans-63" x="1379.826172"/>
     <use xlink:href="#DejaVuSans-61" x="1434.806641"/>
     <use xlink:href="#DejaVuSans-73" x="1496.085938"/>
     <use xlink:href="#DejaVuSans-74" x="1548.185547"/>
     <use xlink:href="#DejaVuSans-69" x="1587.394531"/>
     <use xlink:href="#DejaVuSans-6e" x="1615.177734"/>
     <use xlink:href="#DejaVuSans-67" x="1678.556641"/>
     <use xlink:href="#DejaVuSans-20" x="1742.033203"/>
     <use xlink:href="#DejaVuSans-2d" x="1773.820312"/>
     <use xlink:href="#DejaVuSans-20" x="1809.904297"/>
     <use xlink:href="#DejaVuSans-47" x="1841.691406"/>
     <use xlink:href="#DejaVuSans-65" x="1919.181641"/>
     <use xlink:href="#DejaVuSans-6f" x="1980.705078"/>
     <use xlink:href="#DejaVuSans-72" x="2041.886719"/>
     <use xlink:href="#DejaVuSans-67" x="2081.25"/>
     <use xlink:href="#DejaVuSans-69" x="2144.726562"/>
     <use xlink:href="#DejaVuSans-61" x="2172.509766"/>
    </g>
    <!-- ARIMA (0, 1, 1)x(1, 0, 1, 7) (R2 = 0.291208) -->
    <g transform="translate(589.990937 29.7555)scale(0.12 -0.12)">
     <defs>
      <path id="DejaVuSans-41" d="M 2188 4044 
L 1331 1722 
L 3047 1722 
L 2188 4044 
z
M 1831 4666 
L 2547 4666 
L 4325 0 
L 3669 0 
L 3244 1197 
L 1141 1197 
L 716 0 
L 50 0 
L 1831 4666 
z
" transform="scale(0.015625)"/>
      <path id="DejaVuSans-52" d="M 2841 2188 
Q 3044 2119 3236 1894 
Q 3428 1669 3622 1275 
L 4263 0 
L 3584 0 
L 2988 1197 
Q 2756 1666 2539 1819 
Q 2322 1972 1947 1972 
L 1259 1972 
L 1259 0 
L 628 0 
L 628 4666 
L 2053 4666 
Q 2853 4666 3247 4331 
Q 3641 3997 3641 3322 
Q 3641 2881 3436 2590 
Q 3231 2300 2841 2188 
z
M 1259 4147 
L 1259 2491 
L 2053 2491 
Q 2509 2491 2742 2702 
Q 2975 2913 2975 3322 
Q 2975 3731 2742 3939 
Q 2509 4147 2053 4147 
L 1259 4147 
z
" transform="scale(0.015625)"/>
      <path id="DejaVuSans-49" d="M 628 4666 
L 1259 4666 
L 1259 0 
L 628 0 
L 628 4666 
z
" transform="scale(0.015625)"/>
      <path id="DejaVuSans-4d" d="M 628 4666 
L 1569 4666 
L 2759 1491 
L 3956 4666 
L 4897 4666 
L 4897 0 
L 4281 0 
L 4281 4097 
L 3078 897 
L 2444 897 
L 1241 4097 
L 1241 0 
L 628 0 
L 628 4666 
z
" transform="scale(0.015625)"/>
      <path id="DejaVuSans-28" d="M 1984 4856 
Q 1566 4138 1362 3434 
Q 1159 2731 1159 2009 
Q 1159 1288 1364 580 
Q 1569 -128 1984 -844 
L 1484 -844 
Q 1016 -109 783 600 
Q 550 1309 550 2009 
Q 550 2706 781 3412 
Q 1013 4119 1484 4856 
L 1984 4856 
z
" transform="scale(0.015625)"/>
      <path id="DejaVuSans-2c" d="M 750 794 
L 1409 794 
L 1409 256 
L 897 -744 
L 494 -744 
L 750 256 
L 750 794 
z
" transform="scale(0.015625)"/>
      <path id="DejaVuSans-29" d="M 513 4856 
L 1013 4856 
Q 1481 4119 1714 3412 
Q 1947 2706 1947 2009 
Q 1947 1309 1714 600 
Q 1481 -109 1013 -844 
L 513 -844 
Q 928 -128 1133 580 
Q 1338 1288 1338 2009 
Q 1338 2731 1133 3434 
Q 928 4138 513 4856 
z
" transform="scale(0.015625)"/>
      <path id="DejaVuSans-78" d="M 3513 3500 
L 2247 1797 
L 3578 0 
L 2900 0 
L 1881 1375 
L 863 0 
L 184 0 
L 1544 1831 
L 300 3500 
L 978 3500 
L 1906 2253 
L 2834 3500 
L 3513 3500 
z
" transform="scale(0.015625)"/>
      <path id="DejaVuSans-3d" d="M 678 2906 
L 4684 2906 
L 4684 2381 
L 678 2381 
L 678 2906 
z
M 678 1631 
L 4684 1631 
L 4684 1100 
L 678 1100 
L 678 1631 
z
" transform="scale(0.015625)"/>
      <path id="DejaVuSans-2e" d="M 684 794 
L 1344 794 
L 1344 0 
L 684 0 
L 684 794 
z
" transform="scale(0.015625)"/>
      <path id="DejaVuSans-39" d="M 703 97 
L 703 672 
Q 941 559 1184 500 
Q 1428 441 1663 441 
Q 2288 441 2617 861 
Q 2947 1281 2994 2138 
Q 2813 1869 2534 1725 
Q 2256 1581 1919 1581 
Q 1219 1581 811 2004 
Q 403 2428 403 3163 
Q 403 3881 828 4315 
Q 1253 4750 1959 4750 
Q 2769 4750 3195 4129 
Q 3622 3509 3622 2328 
Q 3622 1225 3098 567 
Q 2575 -91 1691 -91 
Q 1453 -91 1209 -44 
Q 966 3 703 97 
z
M 1959 2075 
Q 2384 2075 2632 2365 
Q 2881 2656 2881 3163 
Q 2881 3666 2632 3958 
Q 2384 4250 1959 4250 
Q 1534 4250 1286 3958 
Q 1038 3666 1038 3163 
Q 1038 2656 1286 2365 
Q 1534 2075 1959 2075 
z
" transform="scale(0.015625)"/>
     </defs>
     <use xlink:href="#DejaVuSans-41"/>
     <use xlink:href="#DejaVuSans-52" x="68.408203"/>
     <use xlink:href="#DejaVuSans-49" x="137.890625"/>
     <use xlink:href="#DejaVuSans-4d" x="167.382812"/>
     <use xlink:href="#DejaVuSans-41" x="253.662109"/>
     <use xlink:href="#DejaVuSans-20" x="322.070312"/>
     <use xlink:href="#DejaVuSans-28" x="353.857422"/>
     <use xlink:href="#DejaVuSans-30" x="392.871094"/>
     <use xlink:href="#DejaVuSans-2c" x="456.494141"/>
     <use xlink:href="#DejaVuSans-20" x="488.28125"/>
     <use xlink:href="#DejaVuSans-31" x="520.068359"/>
     <use xlink:href="#DejaVuSans-2c" x="583.691406"/>
     <use xlink:href="#DejaVuSans-20" x="615.478516"/>
     <use xlink:href="#DejaVuSans-31" x="647.265625"/>
     <use xlink:href="#DejaVuSans-29" x="710.888672"/>
     <use xlink:href="#DejaVuSans-78" x="749.902344"/>
     <use xlink:href="#DejaVuSans-28" x="809.082031"/>
     <use xlink:href="#DejaVuSans-31" x="848.095703"/>
     <use xlink:href="#DejaVuSans-2c" x="911.71875"/>
     <use xlink:href="#DejaVuSans-20" x="943.505859"/>
     <use xlink:href="#DejaVuSans-30" x="975.292969"/>
     <use xlink:href="#DejaVuSans-2c" x="1038.916016"/>
     <use xlink:href="#DejaVuSans-20" x="1070.703125"/>
     <use xlink:href="#DejaVuSans-31" x="1102.490234"/>
     <use xlink:href="#DejaVuSans-2c" x="1166.113281"/>
     <use xlink:href="#DejaVuSans-20" x="1197.900391"/>
     <use xlink:href="#DejaVuSans-37" x="1229.6875"/>
     <use xlink:href="#DejaVuSans-29" x="1293.310547"/>
     <use xlink:href="#DejaVuSans-20" x="1332.324219"/>
     <use xlink:href="#DejaVuSans-28" x="1364.111328"/>
     <use xlink:href="#DejaVuSans-52" x="1403.125"/>
     <use xlink:href="#DejaVuSans-32" x="1472.607422"/>
     <use xlink:href="#DejaVuSans-20" x="1536.230469"/>
     <use xlink:href="#DejaVuSans-3d" x="1568.017578"/>
     <use xlink:href="#DejaVuSans-20" x="1651.806641"/>
     <use xlink:href="#DejaVuSans-30" x="1683.59375"/>
     <use xlink:href="#DejaVuSans-2e" x="1747.216797"/>
     <use xlink:href="#DejaVuSans-32" x="1779.003906"/>
     <use xlink:href="#DejaVuSans-39" x="1842.626953"/>
     <use xlink:href="#DejaVuSans-31" x="1906.25"/>
     <use xlink:href="#DejaVuSans-32" x="1969.873047"/>
     <use xlink:href="#DejaVuSans-30" x="2033.496094"/>
     <use xlink:href="#DejaVuSans-38" x="2097.119141"/>
     <use xlink:href="#DejaVuSans-29" x="2160.742188"/>
    </g>
   </g>
   <g id="legend_1">
    <g id="patch_7">
     <path d="M 1287.495312 87.789875 
L 1384.575 87.789875 
Q 1386.575 87.789875 1386.575 85.789875 
L 1386.575 42.7555 
Q 1386.575 40.7555 1384.575 40.7555 
L 1287.495312 40.7555 
Q 1285.495312 40.7555 1285.495312 42.7555 
L 1285.495312 85.789875 
Q 1285.495312 87.789875 1287.495312 87.789875 
z
" style="fill: #ffffff; opacity: 0.8; stroke: #cccccc; stroke-linejoin: miter"/>
    </g>
    <g id="line2d_21">
     <path d="M 1289.495312 48.853937 
L 1299.495312 48.853937 
L 1309.495312 48.853937 
" style="fill: none; stroke: #0000ff; stroke-width: 1.5; stroke-linecap: square"/>
    </g>
    <g id="text_19">
     <!-- Actual Value -->
     <g transform="translate(1317.495312 52.353937)scale(0.1 -0.1)">
      <defs>
       <path id="DejaVuSans-75" d="M 544 1381 
L 544 3500 
L 1119 3500 
L 1119 1403 
Q 1119 906 1312 657 
Q 1506 409 1894 409 
Q 2359 409 2629 706 
Q 2900 1003 2900 1516 
L 2900 3500 
L 3475 3500 
L 3475 0 
L 2900 0 
L 2900 538 
Q 2691 219 2414 64 
Q 2138 -91 1772 -91 
Q 1169 -91 856 284 
Q 544 659 544 1381 
z
M 1991 3584 
L 1991 3584 
z
" transform="scale(0.015625)"/>
       <path id="DejaVuSans-56" d="M 1831 0 
L 50 4666 
L 709 4666 
L 2188 738 
L 3669 4666 
L 4325 4666 
L 2547 0 
L 1831 0 
z
" transform="scale(0.015625)"/>
      </defs>
      <use xlink:href="#DejaVuSans-41"/>
      <use xlink:href="#DejaVuSans-63" x="66.658203"/>
      <use xlink:href="#DejaVuSans-74" x="121.638672"/>
      <use xlink:href="#DejaVuSans-75" x="160.847656"/>
      <use xlink:href="#DejaVuSans-61" x="224.226562"/>
      <use xlink:href="#DejaVuSans-6c" x="285.505859"/>
      <use xlink:href="#DejaVuSans-20" x="313.289062"/>
      <use xlink:href="#DejaVuSans-56" x="345.076172"/>
      <use xlink:href="#DejaVuSans-61" x="405.734375"/>
      <use xlink:href="#DejaVuSans-6c" x="467.013672"/>
      <use xlink:href="#DejaVuSans-75" x="494.796875"/>
      <use xlink:href="#DejaVuSans-65" x="558.175781"/>
     </g>
    </g>
    <g id="line2d_22">
     <path d="M 1289.495312 63.532062 
L 1299.495312 63.532062 
L 1309.495312 63.532062 
" style="fill: none; stroke: #ffa500; stroke-width: 1.5; stroke-linecap: square"/>
    </g>
    <g id="text_20">
     <!-- Check Value -->
     <g transform="translate(1317.495312 67.032062)scale(0.1 -0.1)">
      <defs>
       <path id="DejaVuSans-68" d="M 3513 2113 
L 3513 0 
L 2938 0 
L 2938 2094 
Q 2938 2591 2744 2837 
Q 2550 3084 2163 3084 
Q 1697 3084 1428 2787 
Q 1159 2491 1159 1978 
L 1159 0 
L 581 0 
L 581 4863 
L 1159 4863 
L 1159 2956 
Q 1366 3272 1645 3428 
Q 1925 3584 2291 3584 
Q 2894 3584 3203 3211 
Q 3513 2838 3513 2113 
z
" transform="scale(0.015625)"/>
       <path id="DejaVuSans-6b" d="M 581 4863 
L 1159 4863 
L 1159 1991 
L 2875 3500 
L 3609 3500 
L 1753 1863 
L 3688 0 
L 2938 0 
L 1159 1709 
L 1159 0 
L 581 0 
L 581 4863 
z
" transform="scale(0.015625)"/>
      </defs>
      <use xlink:href="#DejaVuSans-43"/>
      <use xlink:href="#DejaVuSans-68" x="69.824219"/>
      <use xlink:href="#DejaVuSans-65" x="133.203125"/>
      <use xlink:href="#DejaVuSans-63" x="194.726562"/>
      <use xlink:href="#DejaVuSans-6b" x="249.707031"/>
      <use xlink:href="#DejaVuSans-20" x="307.617188"/>
      <use xlink:href="#DejaVuSans-56" x="339.404297"/>
      <use xlink:href="#DejaVuSans-61" x="400.0625"/>
      <use xlink:href="#DejaVuSans-6c" x="461.341797"/>
      <use xlink:href="#DejaVuSans-75" x="489.125"/>
      <use xlink:href="#DejaVuSans-65" x="552.503906"/>
     </g>
    </g>
    <g id="line2d_23">
     <path d="M 1289.495312 78.210187 
L 1299.495312 78.210187 
L 1309.495312 78.210187 
" style="fill: none; stroke: #ff0000; stroke-width: 1.5; stroke-linecap: square"/>
    </g>
    <g id="text_21">
     <!-- Predict Value -->
     <g transform="translate(1317.495312 81.710187)scale(0.1 -0.1)">
      <defs>
       <path id="DejaVuSans-50" d="M 1259 4147 
L 1259 2394 
L 2053 2394 
Q 2494 2394 2734 2622 
Q 2975 2850 2975 3272 
Q 2975 3691 2734 3919 
Q 2494 4147 2053 4147 
L 1259 4147 
z
M 628 4666 
L 2053 4666 
Q 2838 4666 3239 4311 
Q 3641 3956 3641 3272 
Q 3641 2581 3239 2228 
Q 2838 1875 2053 1875 
L 1259 1875 
L 1259 0 
L 628 0 
L 628 4666 
z
" transform="scale(0.015625)"/>
      </defs>
      <use xlink:href="#DejaVuSans-50"/>
      <use xlink:href="#DejaVuSans-72" x="58.552734"/>
      <use xlink:href="#DejaVuSans-65" x="97.416016"/>
      <use xlink:href="#DejaVuSans-64" x="158.939453"/>
      <use xlink:href="#DejaVuSans-69" x="222.416016"/>
      <use xlink:href="#DejaVuSans-63" x="250.199219"/>
      <use xlink:href="#DejaVuSans-74" x="305.179688"/>
      <use xlink:href="#DejaVuSans-20" x="344.388672"/>
      <use xlink:href="#DejaVuSans-56" x="376.175781"/>
      <use xlink:href="#DejaVuSans-61" x="436.833984"/>
      <use xlink:href="#DejaVuSans-6c" x="498.113281"/>
      <use xlink:href="#DejaVuSans-75" x="525.896484"/>
      <use xlink:href="#DejaVuSans-65" x="589.275391"/>
     </g>
    </g>
   </g>
  </g>
 </g>
 <defs>
  <clipPath id="pa5a0530d1f">
   <rect x="52.375" y="35.7555" width="1339.2" height="332.64"/>
  </clipPath>
 </defs>
</svg>
