<?xml version="1.0" encoding="utf-8" standalone="no"?>
<!DOCTYPE svg PUBLIC "-//W3C//DTD SVG 1.1//EN"
  "http://www.w3.org/Graphics/SVG/1.1/DTD/svg11.dtd">
<svg xmlns:xlink="http://www.w3.org/1999/xlink" width="1386.05pt" height="392.273625pt" viewBox="0 0 1386.05 392.273625" xmlns="http://www.w3.org/2000/svg" version="1.1">
 <metadata>
  <rdf:RDF xmlns:dc="http://purl.org/dc/elements/1.1/" xmlns:cc="http://creativecommons.org/ns#" xmlns:rdf="http://www.w3.org/1999/02/22-rdf-syntax-ns#">
   <cc:Work>
    <dc:type rdf:resource="http://purl.org/dc/dcmitype/StillImage"/>
    <dc:date>2022-07-28T17:46:58.257019</dc:date>
    <dc:format>image/svg+xml</dc:format>
    <dc:creator>
     <cc:Agent>
      <dc:title>Matplotlib v3.5.2, https://matplotlib.org/</dc:title>
     </cc:Agent>
    </dc:creator>
   </cc:Work>
  </rdf:RDF>
 </metadata>
 <defs>
  <style type="text/css">*{stroke-linejoin: round; stroke-linecap: butt}</style>
 </defs>
 <g id="figure_1">
  <g id="patch_1">
   <path d="M 0 392.273625 
L 1386.05 392.273625 
L 1386.05 0 
L 0 0 
z
" style="fill: #ffffff"/>
  </g>
  <g id="axes_1">
   <g id="patch_2">
    <path d="M 39.65 368.3955 
L 1378.85 368.3955 
L 1378.85 35.7555 
L 39.65 35.7555 
z
" style="fill: #ffffff"/>
   </g>
   <g id="matplotlib.axis_1">
    <g id="xtick_1">
     <g id="line2d_1">
      <defs>
       <path id="mdaefe3a234" d="M 0 0 
L 0 3.5 
" style="stroke: #000000; stroke-width: 0.8"/>
      </defs>
      <g>
       <use xlink:href="#mdaefe3a234" x="71.691726" y="368.3955" style="stroke: #000000; stroke-width: 0.8"/>
      </g>
     </g>
     <g id="text_1">
      <!-- 2020-01 -->
      <g transform="translate(50.80032 382.993937)scale(0.1 -0.1)">
       <defs>
        <path id="DejaVuSans-32" d="M 1228 531 
L 3431 531 
L 3431 0 
L 469 0 
L 469 531 
Q 828 903 1448 1529 
Q 2069 2156 2228 2338 
Q 2531 2678 2651 2914 
Q 2772 3150 2772 3378 
Q 2772 3750 2511 3984 
Q 2250 4219 1831 4219 
Q 1534 4219 1204 4116 
Q 875 4013 500 3803 
L 500 4441 
Q 881 4594 1212 4672 
Q 1544 4750 1819 4750 
Q 2544 4750 2975 4387 
Q 3406 4025 3406 3419 
Q 3406 3131 3298 2873 
Q 3191 2616 2906 2266 
Q 2828 2175 2409 1742 
Q 1991 1309 1228 531 
z
" transform="scale(0.015625)"/>
        <path id="DejaVuSans-30" d="M 2034 4250 
Q 1547 4250 1301 3770 
Q 1056 3291 1056 2328 
Q 1056 1369 1301 889 
Q 1547 409 2034 409 
Q 2525 409 2770 889 
Q 3016 1369 3016 2328 
Q 3016 3291 2770 3770 
Q 2525 4250 2034 4250 
z
M 2034 4750 
Q 2819 4750 3233 4129 
Q 3647 3509 3647 2328 
Q 3647 1150 3233 529 
Q 2819 -91 2034 -91 
Q 1250 -91 836 529 
Q 422 1150 422 2328 
Q 422 3509 836 4129 
Q 1250 4750 2034 4750 
z
" transform="scale(0.015625)"/>
        <path id="DejaVuSans-2d" d="M 313 2009 
L 1997 2009 
L 1997 1497 
L 313 1497 
L 313 2009 
z
" transform="scale(0.015625)"/>
        <path id="DejaVuSans-31" d="M 794 531 
L 1825 531 
L 1825 4091 
L 703 3866 
L 703 4441 
L 1819 4666 
L 2450 4666 
L 2450 531 
L 3481 531 
L 3481 0 
L 794 0 
L 794 531 
z
" transform="scale(0.015625)"/>
       </defs>
       <use xlink:href="#DejaVuSans-32"/>
       <use xlink:href="#DejaVuSans-30" x="63.623047"/>
       <use xlink:href="#DejaVuSans-32" x="127.246094"/>
       <use xlink:href="#DejaVuSans-30" x="190.869141"/>
       <use xlink:href="#DejaVuSans-2d" x="254.492188"/>
       <use xlink:href="#DejaVuSans-30" x="290.576172"/>
       <use xlink:href="#DejaVuSans-31" x="354.199219"/>
      </g>
     </g>
    </g>
    <g id="xtick_2">
     <g id="line2d_2">
      <g>
       <use xlink:href="#mdaefe3a234" x="190.947231" y="368.3955" style="stroke: #000000; stroke-width: 0.8"/>
      </g>
     </g>
     <g id="text_2">
      <!-- 2020-04 -->
      <g transform="translate(170.055824 382.993937)scale(0.1 -0.1)">
       <defs>
        <path id="DejaVuSans-34" d="M 2419 4116 
L 825 1625 
L 2419 1625 
L 2419 4116 
z
M 2253 4666 
L 3047 4666 
L 3047 1625 
L 3713 1625 
L 3713 1100 
L 3047 1100 
L 3047 0 
L 2419 0 
L 2419 1100 
L 313 1100 
L 313 1709 
L 2253 4666 
z
" transform="scale(0.015625)"/>
       </defs>
       <use xlink:href="#DejaVuSans-32"/>
       <use xlink:href="#DejaVuSans-30" x="63.623047"/>
       <use xlink:href="#DejaVuSans-32" x="127.246094"/>
       <use xlink:href="#DejaVuSans-30" x="190.869141"/>
       <use xlink:href="#DejaVuSans-2d" x="254.492188"/>
       <use xlink:href="#DejaVuSans-30" x="290.576172"/>
       <use xlink:href="#DejaVuSans-34" x="354.199219"/>
      </g>
     </g>
    </g>
    <g id="xtick_3">
     <g id="line2d_3">
      <g>
       <use xlink:href="#mdaefe3a234" x="310.202735" y="368.3955" style="stroke: #000000; stroke-width: 0.8"/>
      </g>
     </g>
     <g id="text_3">
      <!-- 2020-07 -->
      <g transform="translate(289.311329 382.993937)scale(0.1 -0.1)">
       <defs>
        <path id="DejaVuSans-37" d="M 525 4666 
L 3525 4666 
L 3525 4397 
L 1831 0 
L 1172 0 
L 2766 4134 
L 525 4134 
L 525 4666 
z
" transform="scale(0.015625)"/>
       </defs>
       <use xlink:href="#DejaVuSans-32"/>
       <use xlink:href="#DejaVuSans-30" x="63.623047"/>
       <use xlink:href="#DejaVuSans-32" x="127.246094"/>
       <use xlink:href="#DejaVuSans-30" x="190.869141"/>
       <use xlink:href="#DejaVuSans-2d" x="254.492188"/>
       <use xlink:href="#DejaVuSans-30" x="290.576172"/>
       <use xlink:href="#DejaVuSans-37" x="354.199219"/>
      </g>
     </g>
    </g>
    <g id="xtick_4">
     <g id="line2d_4">
      <g>
       <use xlink:href="#mdaefe3a234" x="430.76874" y="368.3955" style="stroke: #000000; stroke-width: 0.8"/>
      </g>
     </g>
     <g id="text_4">
      <!-- 2020-10 -->
      <g transform="translate(409.877333 382.993937)scale(0.1 -0.1)">
       <use xlink:href="#DejaVuSans-32"/>
       <use xlink:href="#DejaVuSans-30" x="63.623047"/>
       <use xlink:href="#DejaVuSans-32" x="127.246094"/>
       <use xlink:href="#DejaVuSans-30" x="190.869141"/>
       <use xlink:href="#DejaVuSans-2d" x="254.492188"/>
       <use xlink:href="#DejaVuSans-31" x="290.576172"/>
       <use xlink:href="#DejaVuSans-30" x="354.199219"/>
      </g>
     </g>
    </g>
    <g id="xtick_5">
     <g id="line2d_5">
      <g>
       <use xlink:href="#mdaefe3a234" x="551.334744" y="368.3955" style="stroke: #000000; stroke-width: 0.8"/>
      </g>
     </g>
     <g id="text_5">
      <!-- 2021-01 -->
      <g transform="translate(530.443338 382.993937)scale(0.1 -0.1)">
       <use xlink:href="#DejaVuSans-32"/>
       <use xlink:href="#DejaVuSans-30" x="63.623047"/>
       <use xlink:href="#DejaVuSans-32" x="127.246094"/>
       <use xlink:href="#DejaVuSans-31" x="190.869141"/>
       <use xlink:href="#DejaVuSans-2d" x="254.492188"/>
       <use xlink:href="#DejaVuSans-30" x="290.576172"/>
       <use xlink:href="#DejaVuSans-31" x="354.199219"/>
      </g>
     </g>
    </g>
    <g id="xtick_6">
     <g id="line2d_6">
      <g>
       <use xlink:href="#mdaefe3a234" x="669.279749" y="368.3955" style="stroke: #000000; stroke-width: 0.8"/>
      </g>
     </g>
     <g id="text_6">
      <!-- 2021-04 -->
      <g transform="translate(648.388342 382.993937)scale(0.1 -0.1)">
       <use xlink:href="#DejaVuSans-32"/>
       <use xlink:href="#DejaVuSans-30" x="63.623047"/>
       <use xlink:href="#DejaVuSans-32" x="127.246094"/>
       <use xlink:href="#DejaVuSans-31" x="190.869141"/>
       <use xlink:href="#DejaVuSans-2d" x="254.492188"/>
       <use xlink:href="#DejaVuSans-30" x="290.576172"/>
       <use xlink:href="#DejaVuSans-34" x="354.199219"/>
      </g>
     </g>
    </g>
    <g id="xtick_7">
     <g id="line2d_7">
      <g>
       <use xlink:href="#mdaefe3a234" x="788.535253" y="368.3955" style="stroke: #000000; stroke-width: 0.8"/>
      </g>
     </g>
     <g id="text_7">
      <!-- 2021-07 -->
      <g transform="translate(767.643847 382.993937)scale(0.1 -0.1)">
       <use xlink:href="#DejaVuSans-32"/>
       <use xlink:href="#DejaVuSans-30" x="63.623047"/>
       <use xlink:href="#DejaVuSans-32" x="127.246094"/>
       <use xlink:href="#DejaVuSans-31" x="190.869141"/>
       <use xlink:href="#DejaVuSans-2d" x="254.492188"/>
       <use xlink:href="#DejaVuSans-30" x="290.576172"/>
       <use xlink:href="#DejaVuSans-37" x="354.199219"/>
      </g>
     </g>
    </g>
    <g id="xtick_8">
     <g id="line2d_8">
      <g>
       <use xlink:href="#mdaefe3a234" x="909.101257" y="368.3955" style="stroke: #000000; stroke-width: 0.8"/>
      </g>
     </g>
     <g id="text_8">
      <!-- 2021-10 -->
      <g transform="translate(888.209851 382.993937)scale(0.1 -0.1)">
       <use xlink:href="#DejaVuSans-32"/>
       <use xlink:href="#DejaVuSans-30" x="63.623047"/>
       <use xlink:href="#DejaVuSans-32" x="127.246094"/>
       <use xlink:href="#DejaVuSans-31" x="190.869141"/>
       <use xlink:href="#DejaVuSans-2d" x="254.492188"/>
       <use xlink:href="#DejaVuSans-31" x="290.576172"/>
       <use xlink:href="#DejaVuSans-30" x="354.199219"/>
      </g>
     </g>
    </g>
    <g id="xtick_9">
     <g id="line2d_9">
      <g>
       <use xlink:href="#mdaefe3a234" x="1029.667262" y="368.3955" style="stroke: #000000; stroke-width: 0.8"/>
      </g>
     </g>
     <g id="text_9">
      <!-- 2022-01 -->
      <g transform="translate(1008.775856 382.993937)scale(0.1 -0.1)">
       <use xlink:href="#DejaVuSans-32"/>
       <use xlink:href="#DejaVuSans-30" x="63.623047"/>
       <use xlink:href="#DejaVuSans-32" x="127.246094"/>
       <use xlink:href="#DejaVuSans-32" x="190.869141"/>
       <use xlink:href="#DejaVuSans-2d" x="254.492188"/>
       <use xlink:href="#DejaVuSans-30" x="290.576172"/>
       <use xlink:href="#DejaVuSans-31" x="354.199219"/>
      </g>
     </g>
    </g>
    <g id="xtick_10">
     <g id="line2d_10">
      <g>
       <use xlink:href="#mdaefe3a234" x="1147.612266" y="368.3955" style="stroke: #000000; stroke-width: 0.8"/>
      </g>
     </g>
     <g id="text_10">
      <!-- 2022-04 -->
      <g transform="translate(1126.72086 382.993937)scale(0.1 -0.1)">
       <use xlink:href="#DejaVuSans-32"/>
       <use xlink:href="#DejaVuSans-30" x="63.623047"/>
       <use xlink:href="#DejaVuSans-32" x="127.246094"/>
       <use xlink:href="#DejaVuSans-32" x="190.869141"/>
       <use xlink:href="#DejaVuSans-2d" x="254.492188"/>
       <use xlink:href="#DejaVuSans-30" x="290.576172"/>
       <use xlink:href="#DejaVuSans-34" x="354.199219"/>
      </g>
     </g>
    </g>
    <g id="xtick_11">
     <g id="line2d_11">
      <g>
       <use xlink:href="#mdaefe3a234" x="1266.867771" y="368.3955" style="stroke: #000000; stroke-width: 0.8"/>
      </g>
     </g>
     <g id="text_11">
      <!-- 2022-07 -->
      <g transform="translate(1245.976365 382.993937)scale(0.1 -0.1)">
       <use xlink:href="#DejaVuSans-32"/>
       <use xlink:href="#DejaVuSans-30" x="63.623047"/>
       <use xlink:href="#DejaVuSans-32" x="127.246094"/>
       <use xlink:href="#DejaVuSans-32" x="190.869141"/>
       <use xlink:href="#DejaVuSans-2d" x="254.492188"/>
       <use xlink:href="#DejaVuSans-30" x="290.576172"/>
       <use xlink:href="#DejaVuSans-37" x="354.199219"/>
      </g>
     </g>
    </g>
   </g>
   <g id="matplotlib.axis_2">
    <g id="ytick_1">
     <g id="line2d_12">
      <defs>
       <path id="m0a133b1d86" d="M 0 0 
L -3.5 0 
" style="stroke: #000000; stroke-width: 0.8"/>
      </defs>
      <g>
       <use xlink:href="#m0a133b1d86" x="39.65" y="353.218604" style="stroke: #000000; stroke-width: 0.8"/>
      </g>
     </g>
     <g id="text_12">
      <!-- 0 -->
      <g transform="translate(26.2875 357.017823)scale(0.1 -0.1)">
       <use xlink:href="#DejaVuSans-30"/>
      </g>
     </g>
    </g>
    <g id="ytick_2">
     <g id="line2d_13">
      <g>
       <use xlink:href="#m0a133b1d86" x="39.65" y="296.323026" style="stroke: #000000; stroke-width: 0.8"/>
      </g>
     </g>
     <g id="text_13">
      <!-- 1000 -->
      <g transform="translate(7.2 300.122245)scale(0.1 -0.1)">
       <use xlink:href="#DejaVuSans-31"/>
       <use xlink:href="#DejaVuSans-30" x="63.623047"/>
       <use xlink:href="#DejaVuSans-30" x="127.246094"/>
       <use xlink:href="#DejaVuSans-30" x="190.869141"/>
      </g>
     </g>
    </g>
    <g id="ytick_3">
     <g id="line2d_14">
      <g>
       <use xlink:href="#m0a133b1d86" x="39.65" y="239.427447" style="stroke: #000000; stroke-width: 0.8"/>
      </g>
     </g>
     <g id="text_14">
      <!-- 2000 -->
      <g transform="translate(7.2 243.226666)scale(0.1 -0.1)">
       <use xlink:href="#DejaVuSans-32"/>
       <use xlink:href="#DejaVuSans-30" x="63.623047"/>
       <use xlink:href="#DejaVuSans-30" x="127.246094"/>
       <use xlink:href="#DejaVuSans-30" x="190.869141"/>
      </g>
     </g>
    </g>
    <g id="ytick_4">
     <g id="line2d_15">
      <g>
       <use xlink:href="#m0a133b1d86" x="39.65" y="182.531869" style="stroke: #000000; stroke-width: 0.8"/>
      </g>
     </g>
     <g id="text_15">
      <!-- 3000 -->
      <g transform="translate(7.2 186.331088)scale(0.1 -0.1)">
       <defs>
        <path id="DejaVuSans-33" d="M 2597 2516 
Q 3050 2419 3304 2112 
Q 3559 1806 3559 1356 
Q 3559 666 3084 287 
Q 2609 -91 1734 -91 
Q 1441 -91 1130 -33 
Q 819 25 488 141 
L 488 750 
Q 750 597 1062 519 
Q 1375 441 1716 441 
Q 2309 441 2620 675 
Q 2931 909 2931 1356 
Q 2931 1769 2642 2001 
Q 2353 2234 1838 2234 
L 1294 2234 
L 1294 2753 
L 1863 2753 
Q 2328 2753 2575 2939 
Q 2822 3125 2822 3475 
Q 2822 3834 2567 4026 
Q 2313 4219 1838 4219 
Q 1578 4219 1281 4162 
Q 984 4106 628 3988 
L 628 4550 
Q 988 4650 1302 4700 
Q 1616 4750 1894 4750 
Q 2613 4750 3031 4423 
Q 3450 4097 3450 3541 
Q 3450 3153 3228 2886 
Q 3006 2619 2597 2516 
z
" transform="scale(0.015625)"/>
       </defs>
       <use xlink:href="#DejaVuSans-33"/>
       <use xlink:href="#DejaVuSans-30" x="63.623047"/>
       <use xlink:href="#DejaVuSans-30" x="127.246094"/>
       <use xlink:href="#DejaVuSans-30" x="190.869141"/>
      </g>
     </g>
    </g>
    <g id="ytick_5">
     <g id="line2d_16">
      <g>
       <use xlink:href="#m0a133b1d86" x="39.65" y="125.63629" style="stroke: #000000; stroke-width: 0.8"/>
      </g>
     </g>
     <g id="text_16">
      <!-- 4000 -->
      <g transform="translate(7.2 129.435509)scale(0.1 -0.1)">
       <use xlink:href="#DejaVuSans-34"/>
       <use xlink:href="#DejaVuSans-30" x="63.623047"/>
       <use xlink:href="#DejaVuSans-30" x="127.246094"/>
       <use xlink:href="#DejaVuSans-30" x="190.869141"/>
      </g>
     </g>
    </g>
    <g id="ytick_6">
     <g id="line2d_17">
      <g>
       <use xlink:href="#m0a133b1d86" x="39.65" y="68.740712" style="stroke: #000000; stroke-width: 0.8"/>
      </g>
     </g>
     <g id="text_17">
      <!-- 5000 -->
      <g transform="translate(7.2 72.53993)scale(0.1 -0.1)">
       <defs>
        <path id="DejaVuSans-35" d="M 691 4666 
L 3169 4666 
L 3169 4134 
L 1269 4134 
L 1269 2991 
Q 1406 3038 1543 3061 
Q 1681 3084 1819 3084 
Q 2600 3084 3056 2656 
Q 3513 2228 3513 1497 
Q 3513 744 3044 326 
Q 2575 -91 1722 -91 
Q 1428 -91 1123 -41 
Q 819 9 494 109 
L 494 744 
Q 775 591 1075 516 
Q 1375 441 1709 441 
Q 2250 441 2565 725 
Q 2881 1009 2881 1497 
Q 2881 1984 2565 2268 
Q 2250 2553 1709 2553 
Q 1456 2553 1204 2497 
Q 953 2441 691 2322 
L 691 4666 
z
" transform="scale(0.015625)"/>
       </defs>
       <use xlink:href="#DejaVuSans-35"/>
       <use xlink:href="#DejaVuSans-30" x="63.623047"/>
       <use xlink:href="#DejaVuSans-30" x="127.246094"/>
       <use xlink:href="#DejaVuSans-30" x="190.869141"/>
      </g>
     </g>
    </g>
   </g>
   <g id="line2d_18">
    <path d="M 100.522727 353.218604 
L 166.04773 353.218604 
L 167.35823 353.047918 
L 168.66873 353.218604 
L 169.97923 352.820335 
L 171.28973 353.218604 
L 172.60023 353.161709 
L 173.91073 352.706544 
L 175.22123 352.820335 
L 176.53173 352.080693 
L 177.84223 353.047918 
L 179.15273 351.910006 
L 180.46323 352.080693 
L 181.77373 351.511737 
L 183.08423 351.34105 
L 184.39473 351.739319 
L 185.70523 351.682424 
L 188.326231 352.023797 
L 189.636731 351.113468 
L 192.257731 352.25138 
L 193.568231 350.31693 
L 194.878731 349.122123 
L 197.499731 351.454841 
L 198.810231 351.397946 
L 200.120731 351.511737 
L 201.431231 351.910006 
L 202.741731 350.31693 
L 204.052231 351.397946 
L 205.362731 352.308275 
L 206.673231 352.023797 
L 207.983731 352.991022 
L 209.294231 352.820335 
L 210.604731 352.365171 
L 211.915231 352.934127 
L 213.225731 351.853111 
L 214.536232 352.649649 
L 215.846732 353.047918 
L 217.157232 353.104813 
L 218.467732 352.934127 
L 219.778232 353.104813 
L 221.088732 353.104813 
L 222.399232 352.308275 
L 223.709732 352.76344 
L 225.020232 352.991022 
L 226.330732 352.820335 
L 227.641232 353.218604 
L 228.951732 352.991022 
L 230.262232 352.478962 
L 231.572732 352.820335 
L 232.883232 352.592753 
L 234.193732 352.934127 
L 235.504232 352.934127 
L 236.814732 353.161709 
L 238.125232 352.76344 
L 239.435732 353.047918 
L 240.746233 353.104813 
L 242.056733 352.877231 
L 243.367233 353.2755 
L 245.988233 353.104813 
L 247.298733 353.047918 
L 248.609233 353.161709 
L 249.919733 353.161709 
L 251.230233 352.877231 
L 252.540733 353.218604 
L 253.851233 352.991022 
L 255.161733 353.218604 
L 256.472233 352.877231 
L 257.782733 353.104813 
L 260.403733 353.104813 
L 261.714233 352.877231 
L 268.266734 353.104813 
L 269.577234 352.991022 
L 270.887734 353.104813 
L 272.198234 352.934127 
L 273.508734 353.104813 
L 274.819234 351.170364 
L 276.129734 353.161709 
L 277.440234 352.137588 
L 278.750734 352.25138 
L 280.061234 352.535857 
L 281.371734 352.706544 
L 282.682234 352.592753 
L 283.992734 352.365171 
L 285.303234 352.706544 
L 289.234734 353.161709 
L 290.545234 353.047918 
L 291.855734 353.2755 
L 294.476735 352.706544 
L 295.787235 353.047918 
L 297.097735 352.535857 
L 298.408235 352.991022 
L 299.718735 353.161709 
L 301.029235 352.080693 
L 302.339735 352.820335 
L 303.650235 352.820335 
L 304.960735 353.104813 
L 306.271235 353.104813 
L 307.581735 352.877231 
L 308.892235 353.218604 
L 310.202735 353.104813 
L 311.513235 352.25138 
L 314.134235 353.104813 
L 315.444735 352.592753 
L 316.755235 353.104813 
L 318.065735 353.047918 
L 319.376235 353.104813 
L 320.686735 352.308275 
L 321.997236 352.934127 
L 323.307736 352.877231 
L 324.618236 352.478962 
L 325.928736 352.934127 
L 327.239236 352.991022 
L 328.549736 352.478962 
L 329.860236 352.820335 
L 331.170736 352.706544 
L 332.481236 352.991022 
L 333.791736 352.535857 
L 335.102236 352.649649 
L 336.412736 352.877231 
L 337.723236 353.218604 
L 339.033736 352.592753 
L 340.344236 352.76344 
L 341.654736 352.592753 
L 342.965236 352.991022 
L 344.275736 353.104813 
L 345.586236 353.047918 
L 346.896736 353.161709 
L 348.207237 353.161709 
L 349.517737 352.820335 
L 350.828237 352.820335 
L 352.138737 352.934127 
L 353.449237 353.161709 
L 354.759737 352.991022 
L 356.070237 352.934127 
L 357.380737 352.706544 
L 358.691237 353.047918 
L 360.001737 352.877231 
L 362.622737 353.047918 
L 363.933237 352.649649 
L 365.243737 352.877231 
L 366.554237 352.877231 
L 367.864737 352.25138 
L 369.175237 352.76344 
L 370.485737 352.877231 
L 371.796237 352.535857 
L 373.106737 353.047918 
L 377.038238 352.991022 
L 378.348738 352.535857 
L 379.659238 352.991022 
L 380.969738 352.706544 
L 382.280238 352.877231 
L 383.590738 352.934127 
L 384.901238 352.706544 
L 386.211738 353.047918 
L 387.522238 352.308275 
L 388.832738 352.592753 
L 390.143238 352.76344 
L 391.453738 352.592753 
L 392.764238 353.104813 
L 394.074738 353.218604 
L 395.385238 352.934127 
L 396.695738 352.934127 
L 398.006238 353.161709 
L 399.316738 353.047918 
L 401.937739 353.104813 
L 404.558739 352.820335 
L 405.869239 352.706544 
L 407.179739 352.820335 
L 408.490239 352.535857 
L 411.111239 353.218604 
L 412.421739 353.047918 
L 413.732239 353.161709 
L 415.042739 352.991022 
L 416.353239 352.934127 
L 421.595239 353.104813 
L 422.905739 352.820335 
L 424.216239 352.76344 
L 425.526739 353.047918 
L 430.76874 353.047918 
L 432.07924 352.478962 
L 434.70024 352.820335 
L 436.01074 351.397946 
L 437.32124 352.991022 
L 438.63174 352.877231 
L 439.94224 352.592753 
L 441.25274 352.76344 
L 442.56324 352.592753 
L 443.87374 352.592753 
L 445.18424 352.76344 
L 446.49474 352.649649 
L 447.80524 353.047918 
L 449.11574 352.422066 
L 451.73674 352.592753 
L 453.04724 352.592753 
L 454.35774 352.706544 
L 455.668241 352.649649 
L 456.978741 352.365171 
L 458.289241 352.308275 
L 459.599741 351.568633 
L 460.910241 351.682424 
L 462.220741 351.511737 
L 463.531241 352.649649 
L 464.841741 351.511737 
L 466.152241 352.820335 
L 467.462741 352.023797 
L 468.773241 352.422066 
L 470.083741 351.853111 
L 471.394241 352.25138 
L 472.704741 351.910006 
L 474.015241 352.194484 
L 475.325741 351.511737 
L 476.636241 351.170364 
L 477.946741 351.910006 
L 479.257241 352.023797 
L 480.567741 350.658303 
L 481.878242 351.910006 
L 484.499242 349.065227 
L 485.809742 346.618717 
L 487.120242 347.984211 
L 488.430742 347.529047 
L 489.741242 350.601408 
L 491.051742 346.448031 
L 492.362242 347.756629 
L 493.672742 349.975556 
L 494.983242 344.741163 
L 496.293742 344.741163 
L 497.604242 348.268689 
L 498.914742 348.496271 
L 500.225242 348.38248 
L 501.535742 350.487617 
L 502.846242 349.520392 
L 504.156742 353.218604 
L 505.467242 343.091191 
L 506.777742 351.625528 
L 508.088242 349.406601 
L 509.398743 349.122123 
L 510.709243 349.406601 
L 512.019743 340.587786 
L 513.330243 342.920505 
L 514.640743 346.334239 
L 515.951243 345.765284 
L 517.261743 346.334239 
L 518.572243 349.520392 
L 519.882743 347.529047 
L 521.193243 347.244569 
L 522.503743 345.93597 
L 523.814243 345.93597 
L 525.124743 348.38248 
L 526.435243 345.992866 
L 527.745743 347.301464 
L 529.056243 349.463496 
L 530.366743 348.325585 
L 531.677243 345.253223 
L 532.987743 347.87042 
L 534.298243 347.529047 
L 535.608744 347.529047 
L 536.919244 348.041107 
L 538.229744 349.008332 
L 539.540244 349.122123 
L 540.850744 347.472151 
L 542.161244 353.218604 
L 543.471744 342.692922 
L 544.782244 349.634183 
L 546.092744 348.041107 
L 548.713744 349.008332 
L 550.024244 345.480806 
L 551.334744 353.218604 
L 552.645244 337.458529 
L 553.955744 347.301464 
L 555.266244 348.666958 
L 556.576744 343.830834 
L 557.887244 346.391135 
L 559.197744 339.279188 
L 560.508244 340.929159 
L 561.818744 343.48946 
L 563.129245 343.148087 
L 564.439745 346.903195 
L 565.750245 343.603252 
L 567.060745 346.334239 
L 568.371245 341.555011 
L 569.681745 344.058416 
L 570.992245 342.920505 
L 572.302745 345.139432 
L 573.613245 343.944625 
L 574.923745 347.472151 
L 576.234245 344.684268 
L 577.544745 347.016986 
L 578.855245 343.034296 
L 580.165745 344.741163 
L 581.476245 346.106657 
L 582.786745 345.708388 
L 584.097245 346.391135 
L 585.407745 347.87042 
L 586.718245 345.025641 
L 588.028745 345.537701 
L 589.339246 343.375669 
L 590.649746 345.594597 
L 591.960246 346.504926 
L 593.270746 346.789404 
L 594.581246 345.651492 
L 595.891746 343.318774 
L 597.202246 347.016986 
L 598.512746 344.456685 
L 599.823246 345.594597 
L 601.133746 344.91185 
L 602.444246 349.861765 
L 603.754746 352.25138 
L 605.065246 345.992866 
L 606.375746 343.773938 
L 607.686246 344.91185 
L 608.996746 346.618717 
L 610.307246 342.692922 
L 611.617746 350.089348 
L 612.928246 348.723854 
L 614.238746 344.513581 
L 615.549247 347.415255 
L 616.859747 347.073882 
L 618.170247 345.594597 
L 619.480747 346.675613 
L 620.791247 348.496271 
L 623.412247 349.122123 
L 624.722747 346.220448 
L 626.033247 345.537701 
L 627.343747 347.529047 
L 628.654247 348.325585 
L 629.964747 348.211794 
L 631.275247 346.675613 
L 632.585747 341.896384 
L 633.896247 345.651492 
L 635.206747 344.968746 
L 636.517247 346.448031 
L 637.827747 346.618717 
L 639.138247 348.268689 
L 640.448747 348.38248 
L 641.759247 345.879075 
L 643.069748 346.220448 
L 644.380248 348.951436 
L 645.690748 342.294653 
L 647.001248 347.415255 
L 648.311748 350.089348 
L 649.622248 349.861765 
L 650.932748 345.196328 
L 652.243248 344.91185 
L 653.553748 344.001521 
L 654.864248 342.692922 
L 656.174748 347.585942 
L 657.485248 347.87042 
L 658.795748 347.813524 
L 661.416748 337.117156 
L 662.727248 346.106657 
L 664.037748 342.010175 
L 665.348248 342.863609 
L 666.658748 347.130778 
L 667.969248 343.773938 
L 669.279749 339.108501 
L 670.590249 340.01883 
L 671.900749 344.684268 
L 673.211249 339.336083 
L 674.521749 346.504926 
L 675.832249 347.187673 
L 677.142749 349.29281 
L 678.453249 340.303308 
L 679.763749 344.91185 
L 681.074249 344.684268 
L 682.384749 339.734352 
L 683.695249 348.154898 
L 685.005749 347.699733 
L 686.316249 347.529047 
L 687.626749 343.204983 
L 688.937249 345.310119 
L 690.247749 349.463496 
L 691.558249 344.854954 
L 692.868749 347.756629 
L 694.179249 353.218604 
L 695.489749 346.049762 
L 696.80025 348.268689 
L 698.11075 348.041107 
L 699.42125 349.634183 
L 700.73175 347.699733 
L 702.04225 350.885886 
L 703.35275 349.918661 
L 704.66325 350.487617 
L 705.97375 347.472151 
L 707.28425 345.93597 
L 708.59475 348.666958 
L 709.90525 347.87042 
L 711.21575 351.397946 
L 712.52625 351.34105 
L 713.83675 350.032452 
L 715.14725 350.430721 
L 716.45775 347.699733 
L 717.76825 350.260034 
L 719.07875 350.885886 
L 720.38925 350.089348 
L 721.69975 349.520392 
L 723.010251 350.658303 
L 724.320751 349.065227 
L 725.631251 349.349705 
L 726.941751 350.089348 
L 728.252251 351.170364 
L 729.562751 351.568633 
L 730.873251 351.34105 
L 732.183751 350.772095 
L 733.494251 351.056572 
L 734.804751 350.999677 
L 736.115251 352.137588 
L 737.425751 351.966902 
L 738.736251 352.023797 
L 740.046751 352.706544 
L 741.357251 351.739319 
L 742.667751 352.080693 
L 743.978251 352.76344 
L 745.288751 352.649649 
L 746.599251 352.706544 
L 747.909751 352.592753 
L 749.220251 352.991022 
L 750.530752 352.76344 
L 751.841252 352.76344 
L 753.151752 352.535857 
L 754.462252 353.218604 
L 755.772752 353.218604 
L 757.083252 351.511737 
L 758.393752 352.478962 
L 759.704252 352.934127 
L 761.014752 352.422066 
L 763.635752 353.218604 
L 764.946252 353.218604 
L 766.256752 352.592753 
L 767.567252 352.76344 
L 770.188252 352.706544 
L 771.498752 353.047918 
L 772.809252 353.218604 
L 774.119752 353.218604 
L 775.430252 352.76344 
L 776.740753 353.047918 
L 778.051253 352.76344 
L 779.361753 352.877231 
L 780.672253 352.820335 
L 781.982753 353.218604 
L 783.293253 353.218604 
L 784.603753 352.649649 
L 785.914253 352.991022 
L 787.224753 352.991022 
L 788.535253 353.104813 
L 789.845753 352.820335 
L 791.156253 353.218604 
L 793.777253 353.218604 
L 795.087753 352.422066 
L 796.398253 352.820335 
L 797.708753 352.934127 
L 799.019253 352.535857 
L 800.329753 353.218604 
L 801.640253 353.218604 
L 802.950753 351.397946 
L 804.261254 352.76344 
L 805.571754 352.137588 
L 806.882254 352.478962 
L 808.192754 352.023797 
L 809.503254 353.218604 
L 810.813754 353.218604 
L 812.124254 351.568633 
L 813.434754 352.592753 
L 814.745254 352.137588 
L 816.055754 351.056572 
L 817.366254 351.568633 
L 818.676754 353.218604 
L 819.987254 353.218604 
L 821.297754 349.122123 
L 822.608254 352.535857 
L 823.918754 350.715199 
L 825.229254 351.739319 
L 826.539754 349.861765 
L 827.850254 353.218604 
L 829.160754 353.218604 
L 830.471255 344.741163 
L 831.781755 350.999677 
L 833.092255 350.260034 
L 834.402755 348.098002 
L 835.713255 347.472151 
L 837.023755 353.218604 
L 838.334255 353.218604 
L 839.644755 338.937814 
L 840.955255 347.984211 
L 842.265755 347.87042 
L 844.886755 344.285999 
L 846.197255 353.218604 
L 848.818255 353.218604 
L 850.128755 332.906883 
L 851.439255 347.699733 
L 852.749755 343.603252 
L 854.060255 346.675613 
L 855.370755 344.91185 
L 856.681256 346.049762 
L 857.991756 348.553167 
L 859.302256 347.244569 
L 860.612756 346.504926 
L 861.923256 344.741163 
L 863.233756 345.025641 
L 864.544256 342.579131 
L 865.854756 345.42391 
L 867.165256 349.122123 
L 868.475756 344.342894 
L 869.786256 341.896384 
L 871.096756 345.082537 
L 873.717756 342.920505 
L 875.028256 346.960091 
L 876.338756 345.765284 
L 877.649256 341.839489 
L 878.959756 346.903195 
L 880.270256 344.570476 
L 881.580756 344.854954 
L 882.891256 341.896384 
L 884.201757 342.9774 
L 885.512257 344.684268 
L 886.822757 346.8463 
L 888.133257 341.384324 
L 889.443757 333.987899 
L 890.754257 339.905039 
L 892.064757 341.555011 
L 893.375257 337.686111 
L 894.685757 345.822179 
L 895.996257 344.854954 
L 897.306757 343.660147 
L 898.617257 336.775782 
L 899.927757 339.449874 
L 901.238257 342.9774 
L 902.548757 339.50677 
L 903.859257 341.839489 
L 905.169757 347.642838 
L 906.480257 347.016986 
L 907.790757 340.473995 
L 909.101257 342.408444 
L 910.411758 340.189517 
L 911.722258 345.253223 
L 913.032758 342.408444 
L 914.343258 347.87042 
L 915.653758 345.992866 
L 916.964258 336.661991 
L 918.274758 337.230947 
L 919.585258 338.710232 
L 920.895758 341.099846 
L 922.206258 340.701577 
L 923.516758 345.651492 
L 924.827258 334.61375 
L 926.137758 344.627372 
L 927.448258 340.303308 
L 928.758758 333.931003 
L 930.069258 339.051605 
L 931.379758 341.782593 
L 932.690258 345.708388 
L 934.000758 346.561822 
L 935.311258 334.898228 
L 936.621758 340.132621 
L 937.932259 338.824023 
L 939.242759 337.856798 
L 940.553259 345.310119 
L 941.863759 348.098002 
L 943.174259 344.058416 
L 944.484759 334.670646 
L 947.105759 345.537701 
L 948.416259 337.970589 
L 949.726759 344.741163 
L 951.037259 343.375669 
L 952.347759 341.042951 
L 953.658259 323.234635 
L 956.279259 338.198172 
L 957.589759 330.175895 
L 958.900259 339.905039 
L 960.210759 343.603252 
L 961.521259 342.180862 
L 962.831759 318.455406 
L 964.14226 324.258755 
L 965.45276 327.046638 
L 966.76326 335.524079 
L 968.07376 340.53089 
L 969.38426 342.46534 
L 970.69476 339.392979 
L 972.00526 323.120843 
L 973.31576 326.819056 
L 974.62626 327.786281 
L 975.93676 325.908727 
L 977.24726 339.961935 
L 978.55776 342.067071 
L 979.86826 335.296497 
L 981.17876 353.218604 
L 985.11026 353.218604 
L 986.42076 257.577137 
L 987.73126 341.099846 
L 989.04176 324.998397 
L 990.35226 317.715763 
L 991.662761 325.055293 
L 992.973261 321.015707 
L 994.283761 313.733073 
L 995.594261 339.449874 
L 996.904761 336.149931 
L 998.215261 330.232791 
L 999.525761 325.567353 
L 1000.836261 311.343459 
L 1002.146761 338.425754 
L 1003.457261 322.950157 
L 1004.767761 339.848143 
L 1006.078261 339.961935 
L 1007.388761 333.646525 
L 1008.699261 314.984776 
L 1010.009761 326.136309 
L 1011.320261 328.298341 
L 1012.630761 327.729385 
L 1013.941261 339.563666 
L 1015.251761 339.563666 
L 1016.562261 316.179583 
L 1017.872762 328.241445 
L 1019.183262 353.218604 
L 1021.804262 353.218604 
L 1023.114762 269.582104 
L 1024.425262 330.005208 
L 1025.735762 300.13503 
L 1027.046262 275.214766 
L 1028.356762 353.218604 
L 1030.977762 353.218604 
L 1032.288262 195.105792 
L 1033.598762 254.732358 
L 1034.909262 307.417664 
L 1036.219762 229.186243 
L 1037.530262 247.392828 
L 1038.840762 204.209084 
L 1040.151262 338.880919 
L 1041.461762 353.218604 
L 1042.772262 353.218604 
L 1044.082763 50.8755 
L 1045.393263 239.029178 
L 1046.703763 221.391549 
L 1048.014263 251.204832 
L 1049.324763 207.338341 
L 1050.635263 353.218604 
L 1051.945763 266.168369 
L 1053.256263 279.595726 
L 1054.566763 353.218604 
L 1055.877263 186.912828 
L 1057.187763 263.380486 
L 1058.498263 289.780034 
L 1059.808763 322.381201 
L 1061.119263 328.127654 
L 1062.429763 323.120843 
L 1063.740263 266.054578 
L 1065.050763 301.272941 
L 1066.361263 325.73804 
L 1067.671763 318.455406 
L 1068.982263 335.467184 
L 1070.292763 332.451718 
L 1071.603264 311.571041 
L 1072.913764 318.796779 
L 1074.224264 323.860486 
L 1075.534764 353.218604 
L 1076.845264 353.218604 
L 1078.155764 308.384889 
L 1079.466264 341.782593 
L 1080.776764 325.510458 
L 1082.087264 329.834522 
L 1083.397764 330.915538 
L 1084.708264 353.218604 
L 1086.018764 353.218604 
L 1087.329264 315.553731 
L 1088.639764 344.001521 
L 1089.950264 331.712076 
L 1091.260764 339.222292 
L 1092.571264 338.311963 
L 1093.881764 353.218604 
L 1096.502764 353.218604 
L 1097.813265 316.805434 
L 1099.123765 338.141276 
L 1100.434265 341.270533 
L 1101.744765 340.189517 
L 1103.055265 353.218604 
L 1104.365765 353.218604 
L 1105.676265 333.817212 
L 1106.986765 353.218604 
L 1108.297265 353.218604 
L 1109.607765 322.381201 
L 1110.918265 341.782593 
L 1112.228765 353.218604 
L 1113.539265 353.218604 
L 1114.849765 336.149931 
L 1116.160265 350.544512 
L 1117.470765 342.010175 
L 1118.781265 346.903195 
L 1120.091765 342.636027 
L 1121.402265 353.218604 
L 1122.712765 353.218604 
L 1124.023265 338.539545 
L 1125.333766 348.496271 
L 1126.644266 339.222292 
L 1127.954766 343.318774 
L 1129.265266 344.172207 
L 1130.575766 353.218604 
L 1131.886266 353.218604 
L 1133.196766 332.508614 
L 1134.507266 348.666958 
L 1135.817766 340.758473 
L 1137.128266 345.025641 
L 1138.438766 343.318774 
L 1139.749266 353.218604 
L 1141.059766 353.218604 
L 1142.370266 335.694766 
L 1143.680766 348.154898 
L 1144.991266 340.758473 
L 1146.301766 343.318774 
L 1147.612266 344.058416 
L 1148.922766 353.218604 
L 1150.233266 353.218604 
L 1151.543767 332.736196 
L 1152.854267 344.741163 
L 1154.164767 340.701577 
L 1155.475267 341.099846 
L 1156.785767 339.051605 
L 1158.096267 353.218604 
L 1159.406767 353.218604 
L 1160.717267 323.120843 
L 1162.027767 343.944625 
L 1163.338267 335.580975 
L 1164.648767 333.532734 
L 1165.959267 337.629216 
L 1167.269767 353.218604 
L 1168.580267 353.218604 
L 1169.890767 311.172772 
L 1171.201267 344.627372 
L 1172.511767 333.646525 
L 1173.822267 333.532734 
L 1175.132767 333.817212 
L 1176.443267 353.218604 
L 1177.753767 353.218604 
L 1179.064268 307.303873 
L 1180.374768 353.218604 
L 1181.685268 312.196892 
L 1182.995768 330.858642 
L 1184.306268 331.200016 
L 1185.616768 353.218604 
L 1186.927268 353.218604 
L 1188.237768 314.472715 
L 1189.548268 335.751662 
L 1190.858768 323.80359 
L 1192.169268 333.191361 
L 1193.479768 330.460373 
L 1194.790268 353.218604 
L 1196.100768 353.218604 
L 1197.411268 305.54011 
L 1198.721768 338.880919 
L 1200.032268 337.970589 
L 1201.342768 319.024362 
L 1202.653268 329.72073 
L 1203.963768 353.218604 
L 1205.274269 353.218604 
L 1206.584769 308.783158 
L 1207.895269 341.156742 
L 1209.205769 331.029329 
L 1210.516269 353.218604 
L 1218.379269 353.218604 
L 1219.689769 261.844305 
L 1221.000269 353.218604 
L 1226.242269 353.218604 
L 1227.552769 284.033581 
L 1228.863269 353.218604 
L 1235.41577 353.218604 
L 1236.72627 296.721295 
L 1238.03677 353.218604 
L 1244.58927 353.218604 
L 1245.89977 310.774503 
L 1247.21027 353.218604 
L 1253.76277 353.218604 
L 1255.07327 318.227824 
L 1256.38377 353.218604 
L 1262.936271 353.218604 
L 1264.246771 316.919225 
L 1265.557271 353.218604 
L 1272.109771 353.218604 
L 1273.420271 326.079413 
L 1274.730771 353.218604 
L 1281.283271 353.218604 
L 1282.593771 321.926036 
L 1283.904271 353.218604 
L 1290.456772 353.218604 
L 1291.767272 320.84502 
L 1293.077772 353.218604 
L 1299.630272 353.218604 
L 1300.940772 331.313807 
L 1300.940772 331.313807 
" clip-path="url(#pca732a5d10)" style="fill: none; stroke: #0000ff; stroke-width: 1.5; stroke-linecap: square"/>
   </g>
   <g id="line2d_19">
    <path d="M 1061.119263 285.972045 
L 1062.429763 302.871027 
L 1063.740263 271.259656 
L 1065.050763 287.617553 
L 1066.361263 297.132131 
L 1067.671763 305.294143 
L 1068.982263 310.412754 
L 1070.292763 312.685833 
L 1071.603264 303.443376 
L 1072.913764 311.190455 
L 1074.224264 316.851366 
L 1075.534764 320.758188 
L 1076.845264 327.989339 
L 1078.155764 324.777968 
L 1079.466264 323.821957 
L 1082.087264 326.658714 
L 1083.397764 331.926697 
L 1084.708264 334.892977 
L 1086.018764 330.306754 
L 1087.329264 333.56964 
L 1088.639764 332.431805 
L 1089.950264 333.020094 
L 1091.260764 334.056292 
L 1092.571264 338.200678 
L 1093.881764 340.292899 
L 1095.192264 336.095943 
L 1096.502764 343.011369 
L 1097.813265 337.403539 
L 1099.123765 338.702233 
L 1100.434265 338.915076 
L 1101.744765 341.466336 
L 1103.055265 343.103602 
L 1104.365765 344.512773 
L 1105.676265 337.224341 
L 1106.986765 342.850069 
L 1108.297265 344.792859 
L 1109.607765 341.498442 
L 1110.918265 343.612761 
L 1112.228765 344.950998 
L 1113.539265 343.013349 
L 1114.849765 345.146622 
L 1116.160265 345.898629 
L 1117.470765 340.446406 
L 1118.781265 344.435383 
L 1120.091765 346.005759 
L 1121.402265 347.010616 
L 1122.712765 345.157491 
L 1124.023265 346.527684 
L 1125.333766 345.442942 
L 1126.644266 345.355471 
L 1127.954766 344.392231 
L 1129.265266 346.046732 
L 1130.575766 347.045881 
L 1131.886266 345.568361 
L 1133.196766 345.334439 
L 1134.507266 344.321933 
L 1137.128266 344.690029 
L 1138.438766 345.939528 
L 1139.749266 346.953611 
L 1141.059766 344.528589 
L 1142.370266 345.870938 
L 1143.680766 344.929792 
L 1144.991266 345.028162 
L 1146.301766 344.51822 
L 1147.612266 346.030597 
L 1148.922766 347.031994 
L 1150.233266 345.10341 
L 1151.543767 345.364606 
L 1152.854267 344.099955 
L 1154.164767 344.034209 
L 1155.475267 343.743188 
L 1156.785767 344.548236 
L 1158.096267 345.756148 
L 1159.406767 343.53419 
L 1160.717267 342.60196 
L 1162.027767 342.145756 
L 1163.338267 341.294604 
L 1164.648767 339.887101 
L 1165.959267 341.828476 
L 1167.269767 343.415291 
L 1168.580267 339.988314 
L 1171.201267 338.701613 
L 1172.511767 337.671205 
L 1173.822267 337.746972 
L 1176.443267 341.56779 
L 1177.753767 336.495605 
L 1179.064268 337.756023 
L 1180.374768 338.161617 
L 1181.685268 334.526224 
L 1182.995768 334.060575 
L 1184.306268 336.751506 
L 1185.616768 339.045618 
L 1186.927268 333.708731 
L 1188.237768 338.340263 
L 1189.548268 331.447394 
L 1190.858768 333.354168 
L 1192.169268 333.385847 
L 1193.479768 336.484493 
L 1194.790268 338.815804 
L 1196.100768 334.652489 
L 1197.411268 333.98513 
L 1198.721768 332.764592 
L 1200.032268 334.98476 
L 1201.342768 332.32636 
L 1202.653268 335.587345 
L 1203.963768 338.043642 
L 1205.274269 332.565486 
L 1206.584769 334.561396 
L 1207.895269 335.335266 
L 1209.205769 331.718415 
L 1210.516269 336.416986 
L 1211.826769 342.499469 
L 1213.137269 343.992804 
L 1214.447769 338.20226 
L 1215.758269 345.449383 
L 1217.068769 344.919077 
L 1218.379269 349.608713 
L 1219.689769 337.381823 
L 1221.000269 339.588123 
L 1222.310769 341.487052 
L 1223.621269 343.121432 
L 1224.931769 344.528118 
L 1226.242269 345.738833 
L 1227.552769 322.592061 
L 1228.863269 341.409106 
L 1230.173769 343.054345 
L 1231.484269 344.470378 
L 1232.79477 345.689136 
L 1234.10527 346.738103 
L 1235.41577 336.624011 
L 1236.72627 342.081891 
L 1238.03677 343.633401 
L 1239.34727 344.968762 
L 1240.65777 346.118088 
L 1243.27877 347.958692 
L 1244.58927 339.694927 
L 1245.89977 344.662431 
L 1247.21027 345.854433 
L 1248.52077 346.880372 
L 1251.14177 348.523376 
L 1252.45227 349.177491 
L 1253.76277 342.981741 
L 1255.07327 346.291889 
L 1257.69427 348.08744 
L 1260.315271 349.417546 
L 1261.625771 349.94709 
L 1262.936271 344.83098 
L 1264.246771 346.514338 
L 1266.867771 348.252226 
L 1269.488771 349.539616 
L 1270.799271 350.052154 
L 1272.109771 344.713027 
L 1273.420271 347.897348 
L 1276.041271 349.27673 
L 1278.662271 350.298547 
L 1279.972771 350.705355 
L 1281.283271 346.733882 
L 1283.904271 348.382226 
L 1286.525272 349.635918 
L 1289.146272 350.564626 
L 1290.456772 345.951381 
L 1291.767272 347.436674 
L 1294.388272 348.935473 
L 1297.009272 350.045751 
L 1298.319772 350.487777 
L 1299.630272 345.713099 
L 1300.940772 348.862186 
L 1300.940772 348.862186 
" clip-path="url(#pca732a5d10)" style="fill: none; stroke: #ffa500; stroke-width: 1.5; stroke-linecap: square"/>
   </g>
   <g id="line2d_20">
    <path d="M 1300.940772 348.862186 
L 1302.251272 348.862186 
L 1303.561772 348.862186 
L 1304.872272 348.862186 
L 1306.182772 348.862186 
L 1307.493272 348.862186 
L 1308.803772 345.374098 
L 1310.114272 348.168476 
L 1311.424772 348.168476 
L 1312.735273 348.168476 
L 1314.045773 348.168476 
L 1315.356273 348.168476 
L 1316.666773 348.168476 
L 1317.977273 347.613038 
" clip-path="url(#pca732a5d10)" style="fill: none; stroke: #ff0000; stroke-width: 1.5; stroke-linecap: square"/>
   </g>
   <g id="patch_3">
    <path d="M 39.65 368.3955 
L 39.65 35.7555 
" style="fill: none; stroke: #000000; stroke-width: 0.8; stroke-linejoin: miter; stroke-linecap: square"/>
   </g>
   <g id="patch_4">
    <path d="M 1378.85 368.3955 
L 1378.85 35.7555 
" style="fill: none; stroke: #000000; stroke-width: 0.8; stroke-linejoin: miter; stroke-linecap: square"/>
   </g>
   <g id="patch_5">
    <path d="M 39.65 368.3955 
L 1378.85 368.3955 
" style="fill: none; stroke: #000000; stroke-width: 0.8; stroke-linejoin: miter; stroke-linecap: square"/>
   </g>
   <g id="patch_6">
    <path d="M 39.65 35.7555 
L 1378.85 35.7555 
" style="fill: none; stroke: #000000; stroke-width: 0.8; stroke-linejoin: miter; stroke-linecap: square"/>
   </g>
   <g id="text_18">
    <!-- Daily Confirmed Cases Forecasting - Vermont -->
    <g transform="translate(573.386562 16.318125)scale(0.12 -0.12)">
     <defs>
      <path id="DejaVuSans-44" d="M 1259 4147 
L 1259 519 
L 2022 519 
Q 2988 519 3436 956 
Q 3884 1394 3884 2338 
Q 3884 3275 3436 3711 
Q 2988 4147 2022 4147 
L 1259 4147 
z
M 628 4666 
L 1925 4666 
Q 3281 4666 3915 4102 
Q 4550 3538 4550 2338 
Q 4550 1131 3912 565 
Q 3275 0 1925 0 
L 628 0 
L 628 4666 
z
" transform="scale(0.015625)"/>
      <path id="DejaVuSans-61" d="M 2194 1759 
Q 1497 1759 1228 1600 
Q 959 1441 959 1056 
Q 959 750 1161 570 
Q 1363 391 1709 391 
Q 2188 391 2477 730 
Q 2766 1069 2766 1631 
L 2766 1759 
L 2194 1759 
z
M 3341 1997 
L 3341 0 
L 2766 0 
L 2766 531 
Q 2569 213 2275 61 
Q 1981 -91 1556 -91 
Q 1019 -91 701 211 
Q 384 513 384 1019 
Q 384 1609 779 1909 
Q 1175 2209 1959 2209 
L 2766 2209 
L 2766 2266 
Q 2766 2663 2505 2880 
Q 2244 3097 1772 3097 
Q 1472 3097 1187 3025 
Q 903 2953 641 2809 
L 641 3341 
Q 956 3463 1253 3523 
Q 1550 3584 1831 3584 
Q 2591 3584 2966 3190 
Q 3341 2797 3341 1997 
z
" transform="scale(0.015625)"/>
      <path id="DejaVuSans-69" d="M 603 3500 
L 1178 3500 
L 1178 0 
L 603 0 
L 603 3500 
z
M 603 4863 
L 1178 4863 
L 1178 4134 
L 603 4134 
L 603 4863 
z
" transform="scale(0.015625)"/>
      <path id="DejaVuSans-6c" d="M 603 4863 
L 1178 4863 
L 1178 0 
L 603 0 
L 603 4863 
z
" transform="scale(0.015625)"/>
      <path id="DejaVuSans-79" d="M 2059 -325 
Q 1816 -950 1584 -1140 
Q 1353 -1331 966 -1331 
L 506 -1331 
L 506 -850 
L 844 -850 
Q 1081 -850 1212 -737 
Q 1344 -625 1503 -206 
L 1606 56 
L 191 3500 
L 800 3500 
L 1894 763 
L 2988 3500 
L 3597 3500 
L 2059 -325 
z
" transform="scale(0.015625)"/>
      <path id="DejaVuSans-20" transform="scale(0.015625)"/>
      <path id="DejaVuSans-43" d="M 4122 4306 
L 4122 3641 
Q 3803 3938 3442 4084 
Q 3081 4231 2675 4231 
Q 1875 4231 1450 3742 
Q 1025 3253 1025 2328 
Q 1025 1406 1450 917 
Q 1875 428 2675 428 
Q 3081 428 3442 575 
Q 3803 722 4122 1019 
L 4122 359 
Q 3791 134 3420 21 
Q 3050 -91 2638 -91 
Q 1578 -91 968 557 
Q 359 1206 359 2328 
Q 359 3453 968 4101 
Q 1578 4750 2638 4750 
Q 3056 4750 3426 4639 
Q 3797 4528 4122 4306 
z
" transform="scale(0.015625)"/>
      <path id="DejaVuSans-6f" d="M 1959 3097 
Q 1497 3097 1228 2736 
Q 959 2375 959 1747 
Q 959 1119 1226 758 
Q 1494 397 1959 397 
Q 2419 397 2687 759 
Q 2956 1122 2956 1747 
Q 2956 2369 2687 2733 
Q 2419 3097 1959 3097 
z
M 1959 3584 
Q 2709 3584 3137 3096 
Q 3566 2609 3566 1747 
Q 3566 888 3137 398 
Q 2709 -91 1959 -91 
Q 1206 -91 779 398 
Q 353 888 353 1747 
Q 353 2609 779 3096 
Q 1206 3584 1959 3584 
z
" transform="scale(0.015625)"/>
      <path id="DejaVuSans-6e" d="M 3513 2113 
L 3513 0 
L 2938 0 
L 2938 2094 
Q 2938 2591 2744 2837 
Q 2550 3084 2163 3084 
Q 1697 3084 1428 2787 
Q 1159 2491 1159 1978 
L 1159 0 
L 581 0 
L 581 3500 
L 1159 3500 
L 1159 2956 
Q 1366 3272 1645 3428 
Q 1925 3584 2291 3584 
Q 2894 3584 3203 3211 
Q 3513 2838 3513 2113 
z
" transform="scale(0.015625)"/>
      <path id="DejaVuSans-66" d="M 2375 4863 
L 2375 4384 
L 1825 4384 
Q 1516 4384 1395 4259 
Q 1275 4134 1275 3809 
L 1275 3500 
L 2222 3500 
L 2222 3053 
L 1275 3053 
L 1275 0 
L 697 0 
L 697 3053 
L 147 3053 
L 147 3500 
L 697 3500 
L 697 3744 
Q 697 4328 969 4595 
Q 1241 4863 1831 4863 
L 2375 4863 
z
" transform="scale(0.015625)"/>
      <path id="DejaVuSans-72" d="M 2631 2963 
Q 2534 3019 2420 3045 
Q 2306 3072 2169 3072 
Q 1681 3072 1420 2755 
Q 1159 2438 1159 1844 
L 1159 0 
L 581 0 
L 581 3500 
L 1159 3500 
L 1159 2956 
Q 1341 3275 1631 3429 
Q 1922 3584 2338 3584 
Q 2397 3584 2469 3576 
Q 2541 3569 2628 3553 
L 2631 2963 
z
" transform="scale(0.015625)"/>
      <path id="DejaVuSans-6d" d="M 3328 2828 
Q 3544 3216 3844 3400 
Q 4144 3584 4550 3584 
Q 5097 3584 5394 3201 
Q 5691 2819 5691 2113 
L 5691 0 
L 5113 0 
L 5113 2094 
Q 5113 2597 4934 2840 
Q 4756 3084 4391 3084 
Q 3944 3084 3684 2787 
Q 3425 2491 3425 1978 
L 3425 0 
L 2847 0 
L 2847 2094 
Q 2847 2600 2669 2842 
Q 2491 3084 2119 3084 
Q 1678 3084 1418 2786 
Q 1159 2488 1159 1978 
L 1159 0 
L 581 0 
L 581 3500 
L 1159 3500 
L 1159 2956 
Q 1356 3278 1631 3431 
Q 1906 3584 2284 3584 
Q 2666 3584 2933 3390 
Q 3200 3197 3328 2828 
z
" transform="scale(0.015625)"/>
      <path id="DejaVuSans-65" d="M 3597 1894 
L 3597 1613 
L 953 1613 
Q 991 1019 1311 708 
Q 1631 397 2203 397 
Q 2534 397 2845 478 
Q 3156 559 3463 722 
L 3463 178 
Q 3153 47 2828 -22 
Q 2503 -91 2169 -91 
Q 1331 -91 842 396 
Q 353 884 353 1716 
Q 353 2575 817 3079 
Q 1281 3584 2069 3584 
Q 2775 3584 3186 3129 
Q 3597 2675 3597 1894 
z
M 3022 2063 
Q 3016 2534 2758 2815 
Q 2500 3097 2075 3097 
Q 1594 3097 1305 2825 
Q 1016 2553 972 2059 
L 3022 2063 
z
" transform="scale(0.015625)"/>
      <path id="DejaVuSans-64" d="M 2906 2969 
L 2906 4863 
L 3481 4863 
L 3481 0 
L 2906 0 
L 2906 525 
Q 2725 213 2448 61 
Q 2172 -91 1784 -91 
Q 1150 -91 751 415 
Q 353 922 353 1747 
Q 353 2572 751 3078 
Q 1150 3584 1784 3584 
Q 2172 3584 2448 3432 
Q 2725 3281 2906 2969 
z
M 947 1747 
Q 947 1113 1208 752 
Q 1469 391 1925 391 
Q 2381 391 2643 752 
Q 2906 1113 2906 1747 
Q 2906 2381 2643 2742 
Q 2381 3103 1925 3103 
Q 1469 3103 1208 2742 
Q 947 2381 947 1747 
z
" transform="scale(0.015625)"/>
      <path id="DejaVuSans-73" d="M 2834 3397 
L 2834 2853 
Q 2591 2978 2328 3040 
Q 2066 3103 1784 3103 
Q 1356 3103 1142 2972 
Q 928 2841 928 2578 
Q 928 2378 1081 2264 
Q 1234 2150 1697 2047 
L 1894 2003 
Q 2506 1872 2764 1633 
Q 3022 1394 3022 966 
Q 3022 478 2636 193 
Q 2250 -91 1575 -91 
Q 1294 -91 989 -36 
Q 684 19 347 128 
L 347 722 
Q 666 556 975 473 
Q 1284 391 1588 391 
Q 1994 391 2212 530 
Q 2431 669 2431 922 
Q 2431 1156 2273 1281 
Q 2116 1406 1581 1522 
L 1381 1569 
Q 847 1681 609 1914 
Q 372 2147 372 2553 
Q 372 3047 722 3315 
Q 1072 3584 1716 3584 
Q 2034 3584 2315 3537 
Q 2597 3491 2834 3397 
z
" transform="scale(0.015625)"/>
      <path id="DejaVuSans-46" d="M 628 4666 
L 3309 4666 
L 3309 4134 
L 1259 4134 
L 1259 2759 
L 3109 2759 
L 3109 2228 
L 1259 2228 
L 1259 0 
L 628 0 
L 628 4666 
z
" transform="scale(0.015625)"/>
      <path id="DejaVuSans-63" d="M 3122 3366 
L 3122 2828 
Q 2878 2963 2633 3030 
Q 2388 3097 2138 3097 
Q 1578 3097 1268 2742 
Q 959 2388 959 1747 
Q 959 1106 1268 751 
Q 1578 397 2138 397 
Q 2388 397 2633 464 
Q 2878 531 3122 666 
L 3122 134 
Q 2881 22 2623 -34 
Q 2366 -91 2075 -91 
Q 1284 -91 818 406 
Q 353 903 353 1747 
Q 353 2603 823 3093 
Q 1294 3584 2113 3584 
Q 2378 3584 2631 3529 
Q 2884 3475 3122 3366 
z
" transform="scale(0.015625)"/>
      <path id="DejaVuSans-74" d="M 1172 4494 
L 1172 3500 
L 2356 3500 
L 2356 3053 
L 1172 3053 
L 1172 1153 
Q 1172 725 1289 603 
Q 1406 481 1766 481 
L 2356 481 
L 2356 0 
L 1766 0 
Q 1100 0 847 248 
Q 594 497 594 1153 
L 594 3053 
L 172 3053 
L 172 3500 
L 594 3500 
L 594 4494 
L 1172 4494 
z
" transform="scale(0.015625)"/>
      <path id="DejaVuSans-67" d="M 2906 1791 
Q 2906 2416 2648 2759 
Q 2391 3103 1925 3103 
Q 1463 3103 1205 2759 
Q 947 2416 947 1791 
Q 947 1169 1205 825 
Q 1463 481 1925 481 
Q 2391 481 2648 825 
Q 2906 1169 2906 1791 
z
M 3481 434 
Q 3481 -459 3084 -895 
Q 2688 -1331 1869 -1331 
Q 1566 -1331 1297 -1286 
Q 1028 -1241 775 -1147 
L 775 -588 
Q 1028 -725 1275 -790 
Q 1522 -856 1778 -856 
Q 2344 -856 2625 -561 
Q 2906 -266 2906 331 
L 2906 616 
Q 2728 306 2450 153 
Q 2172 0 1784 0 
Q 1141 0 747 490 
Q 353 981 353 1791 
Q 353 2603 747 3093 
Q 1141 3584 1784 3584 
Q 2172 3584 2450 3431 
Q 2728 3278 2906 2969 
L 2906 3500 
L 3481 3500 
L 3481 434 
z
" transform="scale(0.015625)"/>
      <path id="DejaVuSans-56" d="M 1831 0 
L 50 4666 
L 709 4666 
L 2188 738 
L 3669 4666 
L 4325 4666 
L 2547 0 
L 1831 0 
z
" transform="scale(0.015625)"/>
     </defs>
     <use xlink:href="#DejaVuSans-44"/>
     <use xlink:href="#DejaVuSans-61" x="77.001953"/>
     <use xlink:href="#DejaVuSans-69" x="138.28125"/>
     <use xlink:href="#DejaVuSans-6c" x="166.064453"/>
     <use xlink:href="#DejaVuSans-79" x="193.847656"/>
     <use xlink:href="#DejaVuSans-20" x="253.027344"/>
     <use xlink:href="#DejaVuSans-43" x="284.814453"/>
     <use xlink:href="#DejaVuSans-6f" x="354.638672"/>
     <use xlink:href="#DejaVuSans-6e" x="415.820312"/>
     <use xlink:href="#DejaVuSans-66" x="479.199219"/>
     <use xlink:href="#DejaVuSans-69" x="514.404297"/>
     <use xlink:href="#DejaVuSans-72" x="542.1875"/>
     <use xlink:href="#DejaVuSans-6d" x="581.550781"/>
     <use xlink:href="#DejaVuSans-65" x="678.962891"/>
     <use xlink:href="#DejaVuSans-64" x="740.486328"/>
     <use xlink:href="#DejaVuSans-20" x="803.962891"/>
     <use xlink:href="#DejaVuSans-43" x="835.75"/>
     <use xlink:href="#DejaVuSans-61" x="905.574219"/>
     <use xlink:href="#DejaVuSans-73" x="966.853516"/>
     <use xlink:href="#DejaVuSans-65" x="1018.953125"/>
     <use xlink:href="#DejaVuSans-73" x="1080.476562"/>
     <use xlink:href="#DejaVuSans-20" x="1132.576172"/>
     <use xlink:href="#DejaVuSans-46" x="1164.363281"/>
     <use xlink:href="#DejaVuSans-6f" x="1218.257812"/>
     <use xlink:href="#DejaVuSans-72" x="1279.439453"/>
     <use xlink:href="#DejaVuSans-65" x="1318.302734"/>
     <use xlink:href="#DejaVuSans-63" x="1379.826172"/>
     <use xlink:href="#DejaVuSans-61" x="1434.806641"/>
     <use xlink:href="#DejaVuSans-73" x="1496.085938"/>
     <use xlink:href="#DejaVuSans-74" x="1548.185547"/>
     <use xlink:href="#DejaVuSans-69" x="1587.394531"/>
     <use xlink:href="#DejaVuSans-6e" x="1615.177734"/>
     <use xlink:href="#DejaVuSans-67" x="1678.556641"/>
     <use xlink:href="#DejaVuSans-20" x="1742.033203"/>
     <use xlink:href="#DejaVuSans-2d" x="1773.820312"/>
     <use xlink:href="#DejaVuSans-20" x="1809.904297"/>
     <use xlink:href="#DejaVuSans-56" x="1841.691406"/>
     <use xlink:href="#DejaVuSans-65" x="1902.349609"/>
     <use xlink:href="#DejaVuSans-72" x="1963.873047"/>
     <use xlink:href="#DejaVuSans-6d" x="2003.236328"/>
     <use xlink:href="#DejaVuSans-6f" x="2100.648438"/>
     <use xlink:href="#DejaVuSans-6e" x="2161.830078"/>
     <use xlink:href="#DejaVuSans-74" x="2225.208984"/>
    </g>
    <!-- ARIMA (0, 1, 1)x(1, 0, 0, 7) (R2 = 0.261703) -->
    <g transform="translate(577.265938 29.7555)scale(0.12 -0.12)">
     <defs>
      <path id="DejaVuSans-41" d="M 2188 4044 
L 1331 1722 
L 3047 1722 
L 2188 4044 
z
M 1831 4666 
L 2547 4666 
L 4325 0 
L 3669 0 
L 3244 1197 
L 1141 1197 
L 716 0 
L 50 0 
L 1831 4666 
z
" transform="scale(0.015625)"/>
      <path id="DejaVuSans-52" d="M 2841 2188 
Q 3044 2119 3236 1894 
Q 3428 1669 3622 1275 
L 4263 0 
L 3584 0 
L 2988 1197 
Q 2756 1666 2539 1819 
Q 2322 1972 1947 1972 
L 1259 1972 
L 1259 0 
L 628 0 
L 628 4666 
L 2053 4666 
Q 2853 4666 3247 4331 
Q 3641 3997 3641 3322 
Q 3641 2881 3436 2590 
Q 3231 2300 2841 2188 
z
M 1259 4147 
L 1259 2491 
L 2053 2491 
Q 2509 2491 2742 2702 
Q 2975 2913 2975 3322 
Q 2975 3731 2742 3939 
Q 2509 4147 2053 4147 
L 1259 4147 
z
" transform="scale(0.015625)"/>
      <path id="DejaVuSans-49" d="M 628 4666 
L 1259 4666 
L 1259 0 
L 628 0 
L 628 4666 
z
" transform="scale(0.015625)"/>
      <path id="DejaVuSans-4d" d="M 628 4666 
L 1569 4666 
L 2759 1491 
L 3956 4666 
L 4897 4666 
L 4897 0 
L 4281 0 
L 4281 4097 
L 3078 897 
L 2444 897 
L 1241 4097 
L 1241 0 
L 628 0 
L 628 4666 
z
" transform="scale(0.015625)"/>
      <path id="DejaVuSans-28" d="M 1984 4856 
Q 1566 4138 1362 3434 
Q 1159 2731 1159 2009 
Q 1159 1288 1364 580 
Q 1569 -128 1984 -844 
L 1484 -844 
Q 1016 -109 783 600 
Q 550 1309 550 2009 
Q 550 2706 781 3412 
Q 1013 4119 1484 4856 
L 1984 4856 
z
" transform="scale(0.015625)"/>
      <path id="DejaVuSans-2c" d="M 750 794 
L 1409 794 
L 1409 256 
L 897 -744 
L 494 -744 
L 750 256 
L 750 794 
z
" transform="scale(0.015625)"/>
      <path id="DejaVuSans-29" d="M 513 4856 
L 1013 4856 
Q 1481 4119 1714 3412 
Q 1947 2706 1947 2009 
Q 1947 1309 1714 600 
Q 1481 -109 1013 -844 
L 513 -844 
Q 928 -128 1133 580 
Q 1338 1288 1338 2009 
Q 1338 2731 1133 3434 
Q 928 4138 513 4856 
z
" transform="scale(0.015625)"/>
      <path id="DejaVuSans-78" d="M 3513 3500 
L 2247 1797 
L 3578 0 
L 2900 0 
L 1881 1375 
L 863 0 
L 184 0 
L 1544 1831 
L 300 3500 
L 978 3500 
L 1906 2253 
L 2834 3500 
L 3513 3500 
z
" transform="scale(0.015625)"/>
      <path id="DejaVuSans-3d" d="M 678 2906 
L 4684 2906 
L 4684 2381 
L 678 2381 
L 678 2906 
z
M 678 1631 
L 4684 1631 
L 4684 1100 
L 678 1100 
L 678 1631 
z
" transform="scale(0.015625)"/>
      <path id="DejaVuSans-2e" d="M 684 794 
L 1344 794 
L 1344 0 
L 684 0 
L 684 794 
z
" transform="scale(0.015625)"/>
      <path id="DejaVuSans-36" d="M 2113 2584 
Q 1688 2584 1439 2293 
Q 1191 2003 1191 1497 
Q 1191 994 1439 701 
Q 1688 409 2113 409 
Q 2538 409 2786 701 
Q 3034 994 3034 1497 
Q 3034 2003 2786 2293 
Q 2538 2584 2113 2584 
z
M 3366 4563 
L 3366 3988 
Q 3128 4100 2886 4159 
Q 2644 4219 2406 4219 
Q 1781 4219 1451 3797 
Q 1122 3375 1075 2522 
Q 1259 2794 1537 2939 
Q 1816 3084 2150 3084 
Q 2853 3084 3261 2657 
Q 3669 2231 3669 1497 
Q 3669 778 3244 343 
Q 2819 -91 2113 -91 
Q 1303 -91 875 529 
Q 447 1150 447 2328 
Q 447 3434 972 4092 
Q 1497 4750 2381 4750 
Q 2619 4750 2861 4703 
Q 3103 4656 3366 4563 
z
" transform="scale(0.015625)"/>
     </defs>
     <use xlink:href="#DejaVuSans-41"/>
     <use xlink:href="#DejaVuSans-52" x="68.408203"/>
     <use xlink:href="#DejaVuSans-49" x="137.890625"/>
     <use xlink:href="#DejaVuSans-4d" x="167.382812"/>
     <use xlink:href="#DejaVuSans-41" x="253.662109"/>
     <use xlink:href="#DejaVuSans-20" x="322.070312"/>
     <use xlink:href="#DejaVuSans-28" x="353.857422"/>
     <use xlink:href="#DejaVuSans-30" x="392.871094"/>
     <use xlink:href="#DejaVuSans-2c" x="456.494141"/>
     <use xlink:href="#DejaVuSans-20" x="488.28125"/>
     <use xlink:href="#DejaVuSans-31" x="520.068359"/>
     <use xlink:href="#DejaVuSans-2c" x="583.691406"/>
     <use xlink:href="#DejaVuSans-20" x="615.478516"/>
     <use xlink:href="#DejaVuSans-31" x="647.265625"/>
     <use xlink:href="#DejaVuSans-29" x="710.888672"/>
     <use xlink:href="#DejaVuSans-78" x="749.902344"/>
     <use xlink:href="#DejaVuSans-28" x="809.082031"/>
     <use xlink:href="#DejaVuSans-31" x="848.095703"/>
     <use xlink:href="#DejaVuSans-2c" x="911.71875"/>
     <use xlink:href="#DejaVuSans-20" x="943.505859"/>
     <use xlink:href="#DejaVuSans-30" x="975.292969"/>
     <use xlink:href="#DejaVuSans-2c" x="1038.916016"/>
     <use xlink:href="#DejaVuSans-20" x="1070.703125"/>
     <use xlink:href="#DejaVuSans-30" x="1102.490234"/>
     <use xlink:href="#DejaVuSans-2c" x="1166.113281"/>
     <use xlink:href="#DejaVuSans-20" x="1197.900391"/>
     <use xlink:href="#DejaVuSans-37" x="1229.6875"/>
     <use xlink:href="#DejaVuSans-29" x="1293.310547"/>
     <use xlink:href="#DejaVuSans-20" x="1332.324219"/>
     <use xlink:href="#DejaVuSans-28" x="1364.111328"/>
     <use xlink:href="#DejaVuSans-52" x="1403.125"/>
     <use xlink:href="#DejaVuSans-32" x="1472.607422"/>
     <use xlink:href="#DejaVuSans-20" x="1536.230469"/>
     <use xlink:href="#DejaVuSans-3d" x="1568.017578"/>
     <use xlink:href="#DejaVuSans-20" x="1651.806641"/>
     <use xlink:href="#DejaVuSans-30" x="1683.59375"/>
     <use xlink:href="#DejaVuSans-2e" x="1747.216797"/>
     <use xlink:href="#DejaVuSans-32" x="1779.003906"/>
     <use xlink:href="#DejaVuSans-36" x="1842.626953"/>
     <use xlink:href="#DejaVuSans-31" x="1906.25"/>
     <use xlink:href="#DejaVuSans-37" x="1969.873047"/>
     <use xlink:href="#DejaVuSans-30" x="2033.496094"/>
     <use xlink:href="#DejaVuSans-33" x="2097.119141"/>
     <use xlink:href="#DejaVuSans-29" x="2160.742188"/>
    </g>
   </g>
   <g id="legend_1">
    <g id="patch_7">
     <path d="M 1274.770313 87.789875 
L 1371.85 87.789875 
Q 1373.85 87.789875 1373.85 85.789875 
L 1373.85 42.7555 
Q 1373.85 40.7555 1371.85 40.7555 
L 1274.770313 40.7555 
Q 1272.770313 40.7555 1272.770313 42.7555 
L 1272.770313 85.789875 
Q 1272.770313 87.789875 1274.770313 87.789875 
z
" style="fill: #ffffff; opacity: 0.8; stroke: #cccccc; stroke-linejoin: miter"/>
    </g>
    <g id="line2d_21">
     <path d="M 1276.770313 48.853937 
L 1286.770313 48.853937 
L 1296.770313 48.853937 
" style="fill: none; stroke: #0000ff; stroke-width: 1.5; stroke-linecap: square"/>
    </g>
    <g id="text_19">
     <!-- Actual Value -->
     <g transform="translate(1304.770313 52.353937)scale(0.1 -0.1)">
      <defs>
       <path id="DejaVuSans-75" d="M 544 1381 
L 544 3500 
L 1119 3500 
L 1119 1403 
Q 1119 906 1312 657 
Q 1506 409 1894 409 
Q 2359 409 2629 706 
Q 2900 1003 2900 1516 
L 2900 3500 
L 3475 3500 
L 3475 0 
L 2900 0 
L 2900 538 
Q 2691 219 2414 64 
Q 2138 -91 1772 -91 
Q 1169 -91 856 284 
Q 544 659 544 1381 
z
M 1991 3584 
L 1991 3584 
z
" transform="scale(0.015625)"/>
      </defs>
      <use xlink:href="#DejaVuSans-41"/>
      <use xlink:href="#DejaVuSans-63" x="66.658203"/>
      <use xlink:href="#DejaVuSans-74" x="121.638672"/>
      <use xlink:href="#DejaVuSans-75" x="160.847656"/>
      <use xlink:href="#DejaVuSans-61" x="224.226562"/>
      <use xlink:href="#DejaVuSans-6c" x="285.505859"/>
      <use xlink:href="#DejaVuSans-20" x="313.289062"/>
      <use xlink:href="#DejaVuSans-56" x="345.076172"/>
      <use xlink:href="#DejaVuSans-61" x="405.734375"/>
      <use xlink:href="#DejaVuSans-6c" x="467.013672"/>
      <use xlink:href="#DejaVuSans-75" x="494.796875"/>
      <use xlink:href="#DejaVuSans-65" x="558.175781"/>
     </g>
    </g>
    <g id="line2d_22">
     <path d="M 1276.770313 63.532062 
L 1286.770313 63.532062 
L 1296.770313 63.532062 
" style="fill: none; stroke: #ffa500; stroke-width: 1.5; stroke-linecap: square"/>
    </g>
    <g id="text_20">
     <!-- Check Value -->
     <g transform="translate(1304.770313 67.032062)scale(0.1 -0.1)">
      <defs>
       <path id="DejaVuSans-68" d="M 3513 2113 
L 3513 0 
L 2938 0 
L 2938 2094 
Q 2938 2591 2744 2837 
Q 2550 3084 2163 3084 
Q 1697 3084 1428 2787 
Q 1159 2491 1159 1978 
L 1159 0 
L 581 0 
L 581 4863 
L 1159 4863 
L 1159 2956 
Q 1366 3272 1645 3428 
Q 1925 3584 2291 3584 
Q 2894 3584 3203 3211 
Q 3513 2838 3513 2113 
z
" transform="scale(0.015625)"/>
       <path id="DejaVuSans-6b" d="M 581 4863 
L 1159 4863 
L 1159 1991 
L 2875 3500 
L 3609 3500 
L 1753 1863 
L 3688 0 
L 2938 0 
L 1159 1709 
L 1159 0 
L 581 0 
L 581 4863 
z
" transform="scale(0.015625)"/>
      </defs>
      <use xlink:href="#DejaVuSans-43"/>
      <use xlink:href="#DejaVuSans-68" x="69.824219"/>
      <use xlink:href="#DejaVuSans-65" x="133.203125"/>
      <use xlink:href="#DejaVuSans-63" x="194.726562"/>
      <use xlink:href="#DejaVuSans-6b" x="249.707031"/>
      <use xlink:href="#DejaVuSans-20" x="307.617188"/>
      <use xlink:href="#DejaVuSans-56" x="339.404297"/>
      <use xlink:href="#DejaVuSans-61" x="400.0625"/>
      <use xlink:href="#DejaVuSans-6c" x="461.341797"/>
      <use xlink:href="#DejaVuSans-75" x="489.125"/>
      <use xlink:href="#DejaVuSans-65" x="552.503906"/>
     </g>
    </g>
    <g id="line2d_23">
     <path d="M 1276.770313 78.210187 
L 1286.770313 78.210187 
L 1296.770313 78.210187 
" style="fill: none; stroke: #ff0000; stroke-width: 1.5; stroke-linecap: square"/>
    </g>
    <g id="text_21">
     <!-- Predict Value -->
     <g transform="translate(1304.770313 81.710187)scale(0.1 -0.1)">
      <defs>
       <path id="DejaVuSans-50" d="M 1259 4147 
L 1259 2394 
L 2053 2394 
Q 2494 2394 2734 2622 
Q 2975 2850 2975 3272 
Q 2975 3691 2734 3919 
Q 2494 4147 2053 4147 
L 1259 4147 
z
M 628 4666 
L 2053 4666 
Q 2838 4666 3239 4311 
Q 3641 3956 3641 3272 
Q 3641 2581 3239 2228 
Q 2838 1875 2053 1875 
L 1259 1875 
L 1259 0 
L 628 0 
L 628 4666 
z
" transform="scale(0.015625)"/>
      </defs>
      <use xlink:href="#DejaVuSans-50"/>
      <use xlink:href="#DejaVuSans-72" x="58.552734"/>
      <use xlink:href="#DejaVuSans-65" x="97.416016"/>
      <use xlink:href="#DejaVuSans-64" x="158.939453"/>
      <use xlink:href="#DejaVuSans-69" x="222.416016"/>
      <use xlink:href="#DejaVuSans-63" x="250.199219"/>
      <use xlink:href="#DejaVuSans-74" x="305.179688"/>
      <use xlink:href="#DejaVuSans-20" x="344.388672"/>
      <use xlink:href="#DejaVuSans-56" x="376.175781"/>
      <use xlink:href="#DejaVuSans-61" x="436.833984"/>
      <use xlink:href="#DejaVuSans-6c" x="498.113281"/>
      <use xlink:href="#DejaVuSans-75" x="525.896484"/>
      <use xlink:href="#DejaVuSans-65" x="589.275391"/>
     </g>
    </g>
   </g>
  </g>
 </g>
 <defs>
  <clipPath id="pca732a5d10">
   <rect x="39.65" y="35.7555" width="1339.2" height="332.64"/>
  </clipPath>
 </defs>
</svg>
