<?xml version="1.0" encoding="utf-8" standalone="no"?>
<!DOCTYPE svg PUBLIC "-//W3C//DTD SVG 1.1//EN"
  "http://www.w3.org/Graphics/SVG/1.1/DTD/svg11.dtd">
<svg xmlns:xlink="http://www.w3.org/1999/xlink" width="1392.4125pt" height="392.273625pt" viewBox="0 0 1392.4125 392.273625" xmlns="http://www.w3.org/2000/svg" version="1.1">
 <metadata>
  <rdf:RDF xmlns:dc="http://purl.org/dc/elements/1.1/" xmlns:cc="http://creativecommons.org/ns#" xmlns:rdf="http://www.w3.org/1999/02/22-rdf-syntax-ns#">
   <cc:Work>
    <dc:type rdf:resource="http://purl.org/dc/dcmitype/StillImage"/>
    <dc:date>2022-07-21T17:36:30.363616</dc:date>
    <dc:format>image/svg+xml</dc:format>
    <dc:creator>
     <cc:Agent>
      <dc:title>Matplotlib v3.5.2, https://matplotlib.org/</dc:title>
     </cc:Agent>
    </dc:creator>
   </cc:Work>
  </rdf:RDF>
 </metadata>
 <defs>
  <style type="text/css">*{stroke-linejoin: round; stroke-linecap: butt}</style>
 </defs>
 <g id="figure_1">
  <g id="patch_1">
   <path d="M 0 392.273625 
L 1392.4125 392.273625 
L 1392.4125 0 
L 0 0 
z
" style="fill: #ffffff"/>
  </g>
  <g id="axes_1">
   <g id="patch_2">
    <path d="M 46.0125 368.3955 
L 1385.2125 368.3955 
L 1385.2125 35.7555 
L 46.0125 35.7555 
z
" style="fill: #ffffff"/>
   </g>
   <g id="matplotlib.axis_1">
    <g id="xtick_1">
     <g id="line2d_1">
      <defs>
       <path id="m00078443e3" d="M 0 0 
L 0 3.5 
" style="stroke: #000000; stroke-width: 0.8"/>
      </defs>
      <g>
       <use xlink:href="#m00078443e3" x="77.835336" y="368.3955" style="stroke: #000000; stroke-width: 0.8"/>
      </g>
     </g>
     <g id="text_1">
      <!-- 2020-01 -->
      <g transform="translate(56.943929 382.993937)scale(0.1 -0.1)">
       <defs>
        <path id="DejaVuSans-32" d="M 1228 531 
L 3431 531 
L 3431 0 
L 469 0 
L 469 531 
Q 828 903 1448 1529 
Q 2069 2156 2228 2338 
Q 2531 2678 2651 2914 
Q 2772 3150 2772 3378 
Q 2772 3750 2511 3984 
Q 2250 4219 1831 4219 
Q 1534 4219 1204 4116 
Q 875 4013 500 3803 
L 500 4441 
Q 881 4594 1212 4672 
Q 1544 4750 1819 4750 
Q 2544 4750 2975 4387 
Q 3406 4025 3406 3419 
Q 3406 3131 3298 2873 
Q 3191 2616 2906 2266 
Q 2828 2175 2409 1742 
Q 1991 1309 1228 531 
z
" transform="scale(0.015625)"/>
        <path id="DejaVuSans-30" d="M 2034 4250 
Q 1547 4250 1301 3770 
Q 1056 3291 1056 2328 
Q 1056 1369 1301 889 
Q 1547 409 2034 409 
Q 2525 409 2770 889 
Q 3016 1369 3016 2328 
Q 3016 3291 2770 3770 
Q 2525 4250 2034 4250 
z
M 2034 4750 
Q 2819 4750 3233 4129 
Q 3647 3509 3647 2328 
Q 3647 1150 3233 529 
Q 2819 -91 2034 -91 
Q 1250 -91 836 529 
Q 422 1150 422 2328 
Q 422 3509 836 4129 
Q 1250 4750 2034 4750 
z
" transform="scale(0.015625)"/>
        <path id="DejaVuSans-2d" d="M 313 2009 
L 1997 2009 
L 1997 1497 
L 313 1497 
L 313 2009 
z
" transform="scale(0.015625)"/>
        <path id="DejaVuSans-31" d="M 794 531 
L 1825 531 
L 1825 4091 
L 703 3866 
L 703 4441 
L 1819 4666 
L 2450 4666 
L 2450 531 
L 3481 531 
L 3481 0 
L 794 0 
L 794 531 
z
" transform="scale(0.015625)"/>
       </defs>
       <use xlink:href="#DejaVuSans-32"/>
       <use xlink:href="#DejaVuSans-30" x="63.623047"/>
       <use xlink:href="#DejaVuSans-32" x="127.246094"/>
       <use xlink:href="#DejaVuSans-30" x="190.869141"/>
       <use xlink:href="#DejaVuSans-2d" x="254.492188"/>
       <use xlink:href="#DejaVuSans-30" x="290.576172"/>
       <use xlink:href="#DejaVuSans-31" x="354.199219"/>
      </g>
     </g>
    </g>
    <g id="xtick_2">
     <g id="line2d_2">
      <g>
       <use xlink:href="#m00078443e3" x="197.996251" y="368.3955" style="stroke: #000000; stroke-width: 0.8"/>
      </g>
     </g>
     <g id="text_2">
      <!-- 2020-04 -->
      <g transform="translate(177.104844 382.993937)scale(0.1 -0.1)">
       <defs>
        <path id="DejaVuSans-34" d="M 2419 4116 
L 825 1625 
L 2419 1625 
L 2419 4116 
z
M 2253 4666 
L 3047 4666 
L 3047 1625 
L 3713 1625 
L 3713 1100 
L 3047 1100 
L 3047 0 
L 2419 0 
L 2419 1100 
L 313 1100 
L 313 1709 
L 2253 4666 
z
" transform="scale(0.015625)"/>
       </defs>
       <use xlink:href="#DejaVuSans-32"/>
       <use xlink:href="#DejaVuSans-30" x="63.623047"/>
       <use xlink:href="#DejaVuSans-32" x="127.246094"/>
       <use xlink:href="#DejaVuSans-30" x="190.869141"/>
       <use xlink:href="#DejaVuSans-2d" x="254.492188"/>
       <use xlink:href="#DejaVuSans-30" x="290.576172"/>
       <use xlink:href="#DejaVuSans-34" x="354.199219"/>
      </g>
     </g>
    </g>
    <g id="xtick_3">
     <g id="line2d_3">
      <g>
       <use xlink:href="#m00078443e3" x="318.157166" y="368.3955" style="stroke: #000000; stroke-width: 0.8"/>
      </g>
     </g>
     <g id="text_3">
      <!-- 2020-07 -->
      <g transform="translate(297.265759 382.993937)scale(0.1 -0.1)">
       <defs>
        <path id="DejaVuSans-37" d="M 525 4666 
L 3525 4666 
L 3525 4397 
L 1831 0 
L 1172 0 
L 2766 4134 
L 525 4134 
L 525 4666 
z
" transform="scale(0.015625)"/>
       </defs>
       <use xlink:href="#DejaVuSans-32"/>
       <use xlink:href="#DejaVuSans-30" x="63.623047"/>
       <use xlink:href="#DejaVuSans-32" x="127.246094"/>
       <use xlink:href="#DejaVuSans-30" x="190.869141"/>
       <use xlink:href="#DejaVuSans-2d" x="254.492188"/>
       <use xlink:href="#DejaVuSans-30" x="290.576172"/>
       <use xlink:href="#DejaVuSans-37" x="354.199219"/>
      </g>
     </g>
    </g>
    <g id="xtick_4">
     <g id="line2d_4">
      <g>
       <use xlink:href="#m00078443e3" x="439.63853" y="368.3955" style="stroke: #000000; stroke-width: 0.8"/>
      </g>
     </g>
     <g id="text_4">
      <!-- 2020-10 -->
      <g transform="translate(418.747124 382.993937)scale(0.1 -0.1)">
       <use xlink:href="#DejaVuSans-32"/>
       <use xlink:href="#DejaVuSans-30" x="63.623047"/>
       <use xlink:href="#DejaVuSans-32" x="127.246094"/>
       <use xlink:href="#DejaVuSans-30" x="190.869141"/>
       <use xlink:href="#DejaVuSans-2d" x="254.492188"/>
       <use xlink:href="#DejaVuSans-31" x="290.576172"/>
       <use xlink:href="#DejaVuSans-30" x="354.199219"/>
      </g>
     </g>
    </g>
    <g id="xtick_5">
     <g id="line2d_5">
      <g>
       <use xlink:href="#m00078443e3" x="561.119895" y="368.3955" style="stroke: #000000; stroke-width: 0.8"/>
      </g>
     </g>
     <g id="text_5">
      <!-- 2021-01 -->
      <g transform="translate(540.228489 382.993937)scale(0.1 -0.1)">
       <use xlink:href="#DejaVuSans-32"/>
       <use xlink:href="#DejaVuSans-30" x="63.623047"/>
       <use xlink:href="#DejaVuSans-32" x="127.246094"/>
       <use xlink:href="#DejaVuSans-31" x="190.869141"/>
       <use xlink:href="#DejaVuSans-2d" x="254.492188"/>
       <use xlink:href="#DejaVuSans-30" x="290.576172"/>
       <use xlink:href="#DejaVuSans-31" x="354.199219"/>
      </g>
     </g>
    </g>
    <g id="xtick_6">
     <g id="line2d_6">
      <g>
       <use xlink:href="#m00078443e3" x="679.96036" y="368.3955" style="stroke: #000000; stroke-width: 0.8"/>
      </g>
     </g>
     <g id="text_6">
      <!-- 2021-04 -->
      <g transform="translate(659.068954 382.993937)scale(0.1 -0.1)">
       <use xlink:href="#DejaVuSans-32"/>
       <use xlink:href="#DejaVuSans-30" x="63.623047"/>
       <use xlink:href="#DejaVuSans-32" x="127.246094"/>
       <use xlink:href="#DejaVuSans-31" x="190.869141"/>
       <use xlink:href="#DejaVuSans-2d" x="254.492188"/>
       <use xlink:href="#DejaVuSans-30" x="290.576172"/>
       <use xlink:href="#DejaVuSans-34" x="354.199219"/>
      </g>
     </g>
    </g>
    <g id="xtick_7">
     <g id="line2d_7">
      <g>
       <use xlink:href="#m00078443e3" x="800.121275" y="368.3955" style="stroke: #000000; stroke-width: 0.8"/>
      </g>
     </g>
     <g id="text_7">
      <!-- 2021-07 -->
      <g transform="translate(779.229869 382.993937)scale(0.1 -0.1)">
       <use xlink:href="#DejaVuSans-32"/>
       <use xlink:href="#DejaVuSans-30" x="63.623047"/>
       <use xlink:href="#DejaVuSans-32" x="127.246094"/>
       <use xlink:href="#DejaVuSans-31" x="190.869141"/>
       <use xlink:href="#DejaVuSans-2d" x="254.492188"/>
       <use xlink:href="#DejaVuSans-30" x="290.576172"/>
       <use xlink:href="#DejaVuSans-37" x="354.199219"/>
      </g>
     </g>
    </g>
    <g id="xtick_8">
     <g id="line2d_8">
      <g>
       <use xlink:href="#m00078443e3" x="921.60264" y="368.3955" style="stroke: #000000; stroke-width: 0.8"/>
      </g>
     </g>
     <g id="text_8">
      <!-- 2021-10 -->
      <g transform="translate(900.711234 382.993937)scale(0.1 -0.1)">
       <use xlink:href="#DejaVuSans-32"/>
       <use xlink:href="#DejaVuSans-30" x="63.623047"/>
       <use xlink:href="#DejaVuSans-32" x="127.246094"/>
       <use xlink:href="#DejaVuSans-31" x="190.869141"/>
       <use xlink:href="#DejaVuSans-2d" x="254.492188"/>
       <use xlink:href="#DejaVuSans-31" x="290.576172"/>
       <use xlink:href="#DejaVuSans-30" x="354.199219"/>
      </g>
     </g>
    </g>
    <g id="xtick_9">
     <g id="line2d_9">
      <g>
       <use xlink:href="#m00078443e3" x="1043.084005" y="368.3955" style="stroke: #000000; stroke-width: 0.8"/>
      </g>
     </g>
     <g id="text_9">
      <!-- 2022-01 -->
      <g transform="translate(1022.192598 382.993937)scale(0.1 -0.1)">
       <use xlink:href="#DejaVuSans-32"/>
       <use xlink:href="#DejaVuSans-30" x="63.623047"/>
       <use xlink:href="#DejaVuSans-32" x="127.246094"/>
       <use xlink:href="#DejaVuSans-32" x="190.869141"/>
       <use xlink:href="#DejaVuSans-2d" x="254.492188"/>
       <use xlink:href="#DejaVuSans-30" x="290.576172"/>
       <use xlink:href="#DejaVuSans-31" x="354.199219"/>
      </g>
     </g>
    </g>
    <g id="xtick_10">
     <g id="line2d_10">
      <g>
       <use xlink:href="#m00078443e3" x="1161.92447" y="368.3955" style="stroke: #000000; stroke-width: 0.8"/>
      </g>
     </g>
     <g id="text_10">
      <!-- 2022-04 -->
      <g transform="translate(1141.033064 382.993937)scale(0.1 -0.1)">
       <use xlink:href="#DejaVuSans-32"/>
       <use xlink:href="#DejaVuSans-30" x="63.623047"/>
       <use xlink:href="#DejaVuSans-32" x="127.246094"/>
       <use xlink:href="#DejaVuSans-32" x="190.869141"/>
       <use xlink:href="#DejaVuSans-2d" x="254.492188"/>
       <use xlink:href="#DejaVuSans-30" x="290.576172"/>
       <use xlink:href="#DejaVuSans-34" x="354.199219"/>
      </g>
     </g>
    </g>
    <g id="xtick_11">
     <g id="line2d_11">
      <g>
       <use xlink:href="#m00078443e3" x="1282.085385" y="368.3955" style="stroke: #000000; stroke-width: 0.8"/>
      </g>
     </g>
     <g id="text_11">
      <!-- 2022-07 -->
      <g transform="translate(1261.193979 382.993937)scale(0.1 -0.1)">
       <use xlink:href="#DejaVuSans-32"/>
       <use xlink:href="#DejaVuSans-30" x="63.623047"/>
       <use xlink:href="#DejaVuSans-32" x="127.246094"/>
       <use xlink:href="#DejaVuSans-32" x="190.869141"/>
       <use xlink:href="#DejaVuSans-2d" x="254.492188"/>
       <use xlink:href="#DejaVuSans-30" x="290.576172"/>
       <use xlink:href="#DejaVuSans-37" x="354.199219"/>
      </g>
     </g>
    </g>
   </g>
   <g id="matplotlib.axis_2">
    <g id="ytick_1">
     <g id="line2d_12">
      <defs>
       <path id="m428dcd4c1a" d="M 0 0 
L -3.5 0 
" style="stroke: #000000; stroke-width: 0.8"/>
      </defs>
      <g>
       <use xlink:href="#m428dcd4c1a" x="46.0125" y="349.595856" style="stroke: #000000; stroke-width: 0.8"/>
      </g>
     </g>
     <g id="text_12">
      <!-- 0 -->
      <g transform="translate(32.65 353.395074)scale(0.1 -0.1)">
       <use xlink:href="#DejaVuSans-30"/>
      </g>
     </g>
    </g>
    <g id="ytick_2">
     <g id="line2d_13">
      <g>
       <use xlink:href="#m428dcd4c1a" x="46.0125" y="283.083486" style="stroke: #000000; stroke-width: 0.8"/>
      </g>
     </g>
     <g id="text_13">
      <!-- 5000 -->
      <g transform="translate(13.5625 286.882704)scale(0.1 -0.1)">
       <defs>
        <path id="DejaVuSans-35" d="M 691 4666 
L 3169 4666 
L 3169 4134 
L 1269 4134 
L 1269 2991 
Q 1406 3038 1543 3061 
Q 1681 3084 1819 3084 
Q 2600 3084 3056 2656 
Q 3513 2228 3513 1497 
Q 3513 744 3044 326 
Q 2575 -91 1722 -91 
Q 1428 -91 1123 -41 
Q 819 9 494 109 
L 494 744 
Q 775 591 1075 516 
Q 1375 441 1709 441 
Q 2250 441 2565 725 
Q 2881 1009 2881 1497 
Q 2881 1984 2565 2268 
Q 2250 2553 1709 2553 
Q 1456 2553 1204 2497 
Q 953 2441 691 2322 
L 691 4666 
z
" transform="scale(0.015625)"/>
       </defs>
       <use xlink:href="#DejaVuSans-35"/>
       <use xlink:href="#DejaVuSans-30" x="63.623047"/>
       <use xlink:href="#DejaVuSans-30" x="127.246094"/>
       <use xlink:href="#DejaVuSans-30" x="190.869141"/>
      </g>
     </g>
    </g>
    <g id="ytick_3">
     <g id="line2d_14">
      <g>
       <use xlink:href="#m428dcd4c1a" x="46.0125" y="216.571116" style="stroke: #000000; stroke-width: 0.8"/>
      </g>
     </g>
     <g id="text_14">
      <!-- 10000 -->
      <g transform="translate(7.2 220.370335)scale(0.1 -0.1)">
       <use xlink:href="#DejaVuSans-31"/>
       <use xlink:href="#DejaVuSans-30" x="63.623047"/>
       <use xlink:href="#DejaVuSans-30" x="127.246094"/>
       <use xlink:href="#DejaVuSans-30" x="190.869141"/>
       <use xlink:href="#DejaVuSans-30" x="254.492188"/>
      </g>
     </g>
    </g>
    <g id="ytick_4">
     <g id="line2d_15">
      <g>
       <use xlink:href="#m428dcd4c1a" x="46.0125" y="150.058746" style="stroke: #000000; stroke-width: 0.8"/>
      </g>
     </g>
     <g id="text_15">
      <!-- 15000 -->
      <g transform="translate(7.2 153.857965)scale(0.1 -0.1)">
       <use xlink:href="#DejaVuSans-31"/>
       <use xlink:href="#DejaVuSans-35" x="63.623047"/>
       <use xlink:href="#DejaVuSans-30" x="127.246094"/>
       <use xlink:href="#DejaVuSans-30" x="190.869141"/>
       <use xlink:href="#DejaVuSans-30" x="254.492188"/>
      </g>
     </g>
    </g>
    <g id="ytick_5">
     <g id="line2d_16">
      <g>
       <use xlink:href="#m428dcd4c1a" x="46.0125" y="83.546376" style="stroke: #000000; stroke-width: 0.8"/>
      </g>
     </g>
     <g id="text_16">
      <!-- 20000 -->
      <g transform="translate(7.2 87.345595)scale(0.1 -0.1)">
       <use xlink:href="#DejaVuSans-32"/>
       <use xlink:href="#DejaVuSans-30" x="63.623047"/>
       <use xlink:href="#DejaVuSans-30" x="127.246094"/>
       <use xlink:href="#DejaVuSans-30" x="190.869141"/>
       <use xlink:href="#DejaVuSans-30" x="254.492188"/>
      </g>
     </g>
    </g>
   </g>
   <g id="line2d_17">
    <path d="M 106.885227 349.595856 
L 176.869057 349.516041 
L 180.830406 349.383016 
L 182.150855 349.196781 
L 183.471305 348.797707 
L 184.791755 348.70459 
L 186.112204 349.037152 
L 187.432654 348.65138 
L 188.753103 348.837615 
L 190.073553 348.159188 
L 192.714452 348.478448 
L 194.034902 348.318818 
L 195.355352 348.425238 
L 196.675801 348.398633 
L 197.996251 347.786719 
L 199.3167 348.212398 
L 200.63715 347.188108 
L 201.9576 348.305516 
L 203.278049 347.161503 
L 204.598499 348.265608 
L 205.918948 347.241318 
L 207.239398 348.425238 
L 208.559848 346.17712 
L 209.880297 346.815639 
L 212.521197 347.746812 
L 213.841646 347.454157 
L 215.162096 347.666997 
L 216.482545 345.96428 
L 217.802995 346.084002 
L 219.123445 347.347738 
L 220.443894 347.188108 
L 221.764344 345.605113 
L 223.084793 346.429867 
L 225.725693 347.228015 
L 227.046142 346.150515 
L 228.366592 345.85786 
L 229.687042 345.817953 
L 231.007491 347.028478 
L 232.327941 347.161503 
L 233.64839 346.296842 
L 234.96884 346.576194 
L 236.28929 346.323447 
L 237.609739 344.314773 
L 238.930189 346.549589 
L 240.250638 348.145886 
L 241.571088 345.245947 
L 242.891538 345.206039 
L 244.211987 346.709219 
L 245.532437 346.110607 
L 246.852887 344.221656 
L 248.173336 345.764743 
L 249.493786 347.959651 
L 250.814235 347.294528 
L 252.134685 346.483077 
L 253.455135 347.174805 
L 254.775584 344.367983 
L 256.096034 345.365669 
L 257.416483 345.312459 
L 258.736933 347.294528 
L 260.057383 347.786719 
L 261.377832 345.977583 
L 264.018732 346.203725 
L 265.339181 344.234959 
L 266.659631 344.540916 
L 267.98008 346.203725 
L 269.30053 346.961966 
L 270.62098 345.96428 
L 271.941429 345.432181 
L 273.261879 345.232644 
L 274.582328 343.995514 
L 275.902778 343.795977 
L 277.223228 345.684928 
L 278.543677 346.549589 
L 279.864127 345.751441 
L 281.184577 345.85786 
L 282.505026 346.429867 
L 283.825476 346.815639 
L 285.145925 346.004188 
L 286.466375 346.522984 
L 287.786825 342.971224 
L 289.107274 344.873477 
L 290.427724 344.806965 
L 291.748173 349.595856 
L 293.068623 341.507951 
L 294.389073 346.17712 
L 295.709522 347.36104 
L 297.029972 345.831255 
L 298.350422 344.900082 
L 299.670871 343.090946 
L 300.991321 349.595856 
L 304.95267 349.595856 
L 306.273119 327.14128 
L 307.593569 342.026748 
L 308.914018 342.598754 
L 310.234468 335.069554 
L 311.554918 342.279495 
L 312.875367 343.410205 
L 314.195817 344.793663 
L 315.516267 340.616686 
L 316.836716 340.550173 
L 318.157166 340.90934 
L 319.477615 338.022703 
L 320.798065 337.437394 
L 322.118515 336.426406 
L 323.438964 346.589497 
L 324.759414 344.846872 
L 326.079863 336.865388 
L 327.400313 340.629988 
L 328.720763 340.244216 
L 330.041212 335.881005 
L 331.361662 338.993784 
L 332.682112 338.049308 
L 334.002561 344.367983 
L 335.323011 338.129123 
L 336.64346 335.96082 
L 337.96391 333.233813 
L 339.28436 335.867702 
L 340.604809 336.06724 
L 341.925259 339.060296 
L 343.245708 332.954461 
L 344.566158 327.846311 
L 345.886608 329.016928 
L 347.207057 336.532826 
L 348.527507 329.216465 
L 349.847957 331.025602 
L 351.168406 333.992054 
L 352.488856 341.255204 
L 353.809305 332.24943 
L 355.129755 326.728903 
L 356.450205 325.983964 
L 357.770654 334.058566 
L 359.091104 334.51085 
L 360.411553 340.656593 
L 361.732003 341.986841 
L 363.052453 335.308999 
L 364.372902 333.034276 
L 365.693352 336.878691 
L 367.013802 335.814493 
L 368.334251 333.499862 
L 369.654701 342.585452 
L 370.97515 343.263878 
L 372.2956 341.029062 
L 373.61605 335.215881 
L 374.936499 341.454742 
L 376.256949 337.03832 
L 377.577398 338.621315 
L 378.897848 344.527613 
L 380.218298 345.924373 
L 382.859197 331.664121 
L 384.179647 337.703444 
L 385.500096 337.969493 
L 386.820546 337.025018 
L 388.140995 341.268507 
L 389.461445 342.798291 
L 390.781895 338.940574 
L 392.102344 337.570419 
L 393.422794 341.813908 
L 394.743243 341.627674 
L 396.063693 339.818537 
L 397.384143 340.989155 
L 398.704592 345.950978 
L 400.025042 341.162087 
L 401.345492 339.206623 
L 402.665941 339.605698 
L 403.986391 338.64792 
L 405.30684 342.425822 
L 406.62729 344.141841 
L 407.94774 346.376657 
L 409.268189 346.28354 
L 410.588639 343.929002 
L 411.909088 342.718477 
L 413.229538 338.248845 
L 414.549988 343.676255 
L 415.870437 346.217027 
L 417.190887 347.680299 
L 418.511337 342.878106 
L 419.831786 340.137797 
L 421.152236 340.270821 
L 422.472685 342.984526 
L 423.793135 340.882735 
L 425.113585 345.91107 
L 426.434034 347.041781 
L 427.754484 343.410205 
L 429.074933 342.25289 
L 430.395383 339.791932 
L 431.715833 339.991469 
L 433.036282 341.01576 
L 434.356732 347.174805 
L 435.677182 347.068386 
L 436.997631 341.760698 
L 438.318081 342.25289 
L 439.63853 340.337334 
L 440.95898 340.656593 
L 442.27943 341.494649 
L 443.599879 345.325761 
L 444.920329 346.735824 
L 446.240778 336.625943 
L 447.561228 342.106563 
L 448.881678 341.907026 
L 450.202127 338.129123 
L 451.522577 336.865388 
L 452.843027 345.684928 
L 454.163476 345.658323 
L 455.483926 340.111192 
L 456.804375 337.942888 
L 458.124825 332.009985 
L 459.445275 334.750295 
L 460.765724 339.605698 
L 462.086174 349.595856 
L 463.406623 341.800606 
L 464.727073 339.88505 
L 466.047523 338.940574 
L 467.367972 336.852086 
L 468.688422 339.020389 
L 470.008872 333.473257 
L 471.329321 349.595856 
L 472.649771 340.616686 
L 473.97022 338.235543 
L 475.29067 336.293382 
L 476.61112 336.692456 
L 477.931569 339.632303 
L 479.252019 338.634617 
L 480.572468 345.073014 
L 481.892918 344.740453 
L 483.213368 341.029062 
L 484.533817 339.406161 
L 485.854267 328.152268 
L 487.174717 336.732363 
L 488.495166 335.881005 
L 489.815616 338.900667 
L 491.136065 342.731779 
L 492.456515 337.184647 
L 493.776965 332.887948 
L 495.097414 332.688411 
L 496.417864 332.236127 
L 497.738313 331.371466 
L 500.379213 341.760698 
L 501.699662 337.557117 
L 503.020112 328.405015 
L 504.340562 331.038904 
L 505.661011 327.806403 
L 506.981461 323.363377 
L 508.30191 339.233228 
L 509.62236 340.297426 
L 510.94281 340.74971 
L 512.263259 335.069554 
L 513.583709 326.369736 
L 514.904158 336.226869 
L 516.224608 328.937114 
L 517.545058 325.052791 
L 520.185957 334.417733 
L 521.506407 316.911677 
L 522.826856 320.756092 
L 524.147306 316.60572 
L 525.467755 323.762451 
L 526.788205 330.001311 
L 528.108655 332.794831 
L 529.429104 326.555971 
L 530.749554 313.067262 
L 532.070003 319.226308 
L 533.390453 318.640999 
L 534.710903 314.144762 
L 536.031352 329.642145 
L 537.351802 327.673379 
L 538.672252 320.263901 
L 539.992701 318.428159 
L 541.313151 319.518962 
L 542.6336 316.246553 
L 543.95405 326.98165 
L 545.2745 320.037758 
L 546.594949 334.071868 
L 547.915399 320.450135 
L 549.235848 314.557139 
L 550.556298 318.654301 
L 551.876748 329.282978 
L 553.197197 338.355265 
L 554.517647 331.437979 
L 555.838097 326.968347 
L 557.158546 323.749149 
L 558.478996 309.382477 
L 559.799445 312.934237 
L 561.119895 315.341985 
L 562.440345 324.440877 
L 563.760794 325.864242 
L 565.081244 328.099058 
L 566.401693 326.090384 
L 567.722143 312.468651 
L 569.042593 349.595856 
L 570.363042 277.363422 
L 571.683492 306.988031 
L 574.324391 333.27372 
L 575.644841 327.673379 
L 576.96529 323.762451 
L 578.28574 323.682636 
L 579.60619 318.441462 
L 580.926639 313.945225 
L 582.247089 328.232082 
L 583.567538 330.214151 
L 584.887988 333.726004 
L 586.208438 326.955045 
L 587.528887 319.13319 
L 588.849337 322.325784 
L 590.169787 324.906464 
L 591.490236 333.686097 
L 592.810686 337.264462 
L 594.131135 330.280663 
L 595.451585 322.006525 
L 596.772035 325.598193 
L 598.092484 320.516648 
L 599.412934 329.269675 
L 600.733383 338.807549 
L 602.053833 340.217611 
L 603.374283 338.621315 
L 604.694732 339.073599 
L 606.015182 333.499862 
L 607.335632 333.499862 
L 608.656081 335.814493 
L 609.976531 337.623629 
L 611.29698 341.148785 
L 612.61743 340.869433 
L 615.258329 337.477302 
L 616.578779 336.506221 
L 617.899228 340.350636 
L 619.219678 335.056252 
L 620.540128 342.35931 
L 621.860577 339.83184 
L 623.181027 340.496963 
L 624.501477 347.813324 
L 625.821926 344.806965 
L 627.142376 344.93999 
L 628.462825 344.407891 
L 629.783275 346.376657 
L 631.103725 344.966595 
L 632.424174 340.696501 
L 633.744624 337.35758 
L 636.385523 342.292797 
L 637.705973 340.230914 
L 639.026422 346.948663 
L 640.346872 345.591811 
L 641.667322 344.540916 
L 642.987771 343.223971 
L 644.308221 341.734094 
L 645.62867 341.933631 
L 646.94912 346.137212 
L 648.26957 348.664682 
L 649.590019 344.846872 
L 650.910469 343.782674 
L 652.230918 340.563476 
L 653.551368 339.446068 
L 654.871818 340.417149 
L 656.192267 346.895453 
L 657.512717 348.252306 
L 658.833167 344.687243 
L 660.153616 344.913385 
L 661.474066 345.312459 
L 662.794515 344.381286 
L 664.114965 344.793663 
L 665.435415 347.46746 
L 666.755864 348.332121 
L 668.076314 345.525299 
L 669.396763 344.447798 
L 670.717213 345.378971 
L 673.358112 346.802336 
L 674.678562 346.988571 
L 675.999012 348.54496 
L 677.319461 347.427552 
L 678.639911 345.764743 
L 679.96036 345.990885 
L 682.60126 345.738138 
L 683.921709 348.305516 
L 685.242159 348.664682 
L 686.562608 347.161503 
L 687.883058 346.004188 
L 689.203508 346.403262 
L 691.844407 346.429867 
L 693.164857 348.039466 
L 694.485306 348.664682 
L 695.805756 345.378971 
L 697.126205 345.937675 
L 698.446655 344.141841 
L 699.767105 346.722521 
L 701.087554 345.711533 
L 702.408004 347.507367 
L 703.728453 349.103664 
L 705.048903 344.78036 
L 706.369353 346.496379 
L 707.689802 345.352366 
L 709.010252 346.775731 
L 710.330702 349.595856 
L 711.651151 349.595856 
L 712.971601 341.108877 
L 714.29205 347.30783 
L 715.6125 345.152829 
L 716.93295 347.454157 
L 718.253399 346.323447 
L 719.573849 349.595856 
L 720.894298 349.595856 
L 722.214748 342.944619 
L 723.535198 346.828941 
L 724.855647 348.212398 
L 726.176097 346.749126 
L 727.496547 346.403262 
L 728.816996 349.595856 
L 730.137446 349.595856 
L 731.457895 342.824896 
L 732.778345 346.044095 
L 734.098795 346.868848 
L 735.419244 344.78036 
L 736.739694 346.922058 
L 738.060143 349.595856 
L 739.380593 349.595856 
L 742.021492 341.507951 
L 743.341942 346.17712 
L 744.662392 345.924373 
L 745.982841 348.199096 
L 747.303291 349.595856 
L 748.62374 349.595856 
L 749.94419 343.184063 
L 751.26464 347.507367 
L 752.585089 347.547275 
L 753.905539 346.789034 
L 755.225988 347.853232 
L 756.546438 349.595856 
L 757.866888 349.595856 
L 759.187337 345.525299 
L 760.507787 349.037152 
L 761.828237 348.252306 
L 763.148686 347.041781 
L 764.469136 347.720207 
L 765.789585 349.595856 
L 767.110035 349.595856 
L 768.430485 345.179434 
L 769.750934 348.837615 
L 771.071384 348.172491 
L 772.391833 347.015176 
L 773.712283 346.456472 
L 775.032733 349.595856 
L 776.353182 349.595856 
L 777.673632 346.057398 
L 778.994082 348.970639 
L 780.314531 348.49175 
L 781.634981 347.028478 
L 782.95543 346.350052 
L 784.27588 349.595856 
L 785.59633 349.595856 
L 786.916779 347.480762 
L 788.237229 348.70459 
L 789.557678 348.026164 
L 790.878128 345.578508 
L 792.198578 346.363354 
L 793.519027 349.595856 
L 794.839477 349.595856 
L 796.159927 345.591811 
L 797.480376 346.004188 
L 798.800826 344.860175 
L 800.121275 347.20141 
L 801.441725 346.376657 
L 802.762175 349.595856 
L 805.403074 349.595856 
L 806.723523 340.96255 
L 808.043973 344.554218 
L 809.364423 343.915699 
L 810.684872 344.062026 
L 812.005322 349.595856 
L 813.325772 349.595856 
L 814.646221 339.007086 
L 815.966671 346.682614 
L 817.28712 341.06897 
L 818.60757 342.186378 
L 819.92802 342.492335 
L 821.248469 349.595856 
L 822.568919 349.595856 
L 823.889368 318.654301 
L 825.209818 341.973538 
L 826.530268 336.812178 
L 827.850717 333.646189 
L 829.171167 332.076497 
L 830.491617 349.595856 
L 831.812066 349.595856 
L 833.132516 301.60053 
L 834.452965 332.422362 
L 835.773415 324.653717 
L 837.093865 324.214735 
L 838.414314 327.739891 
L 839.734764 349.595856 
L 841.055213 349.595856 
L 842.375663 283.203208 
L 843.696113 328.657762 
L 845.016562 312.069577 
L 846.337012 307.506828 
L 847.657462 321.740475 
L 848.977911 349.595856 
L 850.298361 349.595856 
L 851.61881 257.649155 
L 852.93926 303.196826 
L 854.25971 307.52013 
L 855.580159 290.90534 
L 856.900609 282.777529 
L 858.221058 349.595856 
L 859.541508 349.595856 
L 860.861958 245.317762 
L 862.182407 305.391735 
L 864.823307 285.650863 
L 866.143756 282.444967 
L 867.464206 349.595856 
L 868.784655 349.595856 
L 870.105105 253.166222 
L 871.425555 305.817414 
L 872.746004 304.566981 
L 874.066454 304.034882 
L 875.386903 295.840558 
L 876.707353 349.595856 
L 878.027803 349.595856 
L 879.348252 243.561836 
L 880.668702 334.816807 
L 881.989152 310.499885 
L 883.309601 298.381331 
L 884.630051 305.005963 
L 885.9505 349.595856 
L 887.27095 349.595856 
L 888.5914 272.694254 
L 889.911849 340.230914 
L 892.552748 307.852692 
L 893.873198 324.427575 
L 895.193648 349.595856 
L 896.514097 349.595856 
L 897.834547 299.538646 
L 899.154997 322.059734 
L 900.475446 318.295134 
L 901.795896 315.089238 
L 903.116345 318.720814 
L 904.436795 349.595856 
L 905.757245 349.595856 
L 907.077694 313.852108 
L 908.398144 327.394027 
L 909.718593 328.883904 
L 911.039043 322.046432 
L 912.359493 329.575632 
L 913.679942 349.595856 
L 915.000392 349.595856 
L 916.320842 326.010569 
L 917.641291 329.376095 
L 918.961741 334.989739 
L 920.28219 334.949832 
L 921.60264 338.661222 
L 922.92309 349.595856 
L 924.243539 349.595856 
L 925.563989 328.830694 
L 926.884438 336.998413 
L 928.204888 338.501592 
L 929.525338 334.803505 
L 930.845787 341.601069 
L 932.166237 349.595856 
L 933.486687 349.595856 
L 934.807136 335.74798 
L 936.127586 338.687827 
L 937.448035 340.031377 
L 938.768485 342.572149 
L 940.088935 344.128539 
L 941.409384 349.595856 
L 942.729834 349.595856 
L 944.050283 339.352951 
L 945.370733 332.595294 
L 946.691183 343.636347 
L 948.011632 343.968909 
L 949.332082 344.434496 
L 950.652532 349.595856 
L 951.972981 349.595856 
L 953.293431 342.212983 
L 954.61388 327.380724 
L 955.93433 345.019805 
L 957.25478 345.033107 
L 958.575229 345.485391 
L 959.895679 349.595856 
L 961.216128 349.595856 
L 962.536578 343.037736 
L 963.857028 343.54323 
L 965.177477 344.341378 
L 966.497927 344.527613 
L 967.818377 342.758384 
L 969.138826 349.595856 
L 970.459276 349.595856 
L 971.779725 342.14647 
L 973.100175 344.806965 
L 974.420625 345.618416 
L 975.741074 349.595856 
L 977.061524 340.363939 
L 978.381973 349.595856 
L 979.702423 349.595856 
L 981.022873 338.874062 
L 982.343322 343.716162 
L 983.663772 346.602799 
L 984.984222 344.540916 
L 986.304671 343.929002 
L 987.625121 349.595856 
L 988.94557 349.595856 
L 990.26602 333.805819 
L 991.58647 346.0707 
L 992.906919 343.849187 
L 994.227369 349.595856 
L 998.188718 349.595856 
L 999.509167 336.426406 
L 1000.829617 342.292797 
L 1002.150067 343.370298 
L 1003.470516 342.026748 
L 1006.111415 349.595856 
L 1007.431865 349.595856 
L 1008.752315 336.532826 
L 1010.072764 340.922643 
L 1011.393214 339.126809 
L 1012.713663 339.685513 
L 1014.034113 343.676255 
L 1015.354563 349.595856 
L 1016.675012 349.595856 
L 1017.995462 339.805235 
L 1019.315912 344.168446 
L 1020.636361 341.946933 
L 1021.956811 340.151099 
L 1023.27726 337.477302 
L 1024.59771 349.595856 
L 1025.91816 349.595856 
L 1027.238609 330.520108 
L 1028.559059 339.752025 
L 1029.879508 337.982796 
L 1031.199958 349.595856 
L 1035.161307 349.595856 
L 1036.481757 255.706994 
L 1037.802206 313.705781 
L 1039.122656 301.786764 
L 1040.443105 284.61327 
L 1041.763555 349.595856 
L 1044.404454 349.595856 
L 1045.724904 116.469999 
L 1047.045353 285.211882 
L 1048.365803 261.905947 
L 1049.686253 255.427642 
L 1051.006702 259.484897 
L 1052.327152 349.595856 
L 1054.968051 349.595856 
L 1056.288501 54.001581 
L 1057.60895 240.462359 
L 1058.9294 238.440383 
L 1060.24985 225.882848 
L 1061.570299 349.595856 
L 1064.211198 349.595856 
L 1065.531648 50.8755 
L 1066.852098 237.056926 
L 1068.172547 238.79955 
L 1069.492997 249.707579 
L 1070.813447 349.595856 
L 1072.133896 349.595856 
L 1073.454346 180.508109 
L 1074.774795 284.294011 
L 1076.095245 261.852737 
L 1077.415695 262.664188 
L 1078.736144 275.993267 
L 1080.056594 349.595856 
L 1081.377043 349.595856 
L 1082.697493 219.870129 
L 1084.017943 293.073644 
L 1085.338392 270.57916 
L 1086.658842 264.247183 
L 1087.979292 245.317762 
L 1089.299741 349.595856 
L 1090.620191 349.595856 
L 1091.94064 128.8413 
L 1093.26109 322.126247 
L 1094.58154 318.707511 
L 1095.901989 327.500446 
L 1097.222439 320.170783 
L 1098.542888 349.595856 
L 1099.863338 349.595856 
L 1101.183788 286.821481 
L 1102.504237 332.927856 
L 1103.824687 335.468628 
L 1105.145137 341.787303 
L 1106.465586 333.765912 
L 1107.786036 349.595856 
L 1110.426935 349.595856 
L 1111.747385 324.746834 
L 1113.067834 342.385915 
L 1114.388284 342.399217 
L 1115.708733 341.920328 
L 1117.029183 349.595856 
L 1118.349633 349.595856 
L 1119.670082 337.836469 
L 1120.990532 346.562892 
L 1122.310982 343.636347 
L 1123.631431 344.67394 
L 1124.951881 346.642706 
L 1126.27233 349.595856 
L 1127.59278 349.595856 
L 1128.91323 341.494649 
L 1130.233679 347.613787 
L 1131.554129 347.427552 
L 1132.874578 347.46746 
L 1134.195028 345.990885 
L 1135.515478 349.595856 
L 1136.835927 349.595856 
L 1138.156377 344.407891 
L 1139.476827 347.560577 
L 1140.797276 348.292213 
L 1142.117726 348.571565 
L 1143.438175 348.105979 
L 1144.758625 349.595856 
L 1146.079075 349.595856 
L 1147.399524 346.336749 
L 1148.719974 348.185793 
L 1150.040423 347.879836 
L 1151.360873 348.398633 
L 1152.681323 347.826627 
L 1154.001772 349.595856 
L 1155.322222 349.595856 
L 1156.642672 347.839929 
L 1157.963121 348.70459 
L 1159.283571 347.800022 
L 1160.60402 347.853232 
L 1161.92447 347.427552 
L 1163.24492 349.595856 
L 1164.565369 349.595856 
L 1165.885819 343.70286 
L 1167.206268 347.813324 
L 1168.526718 348.132583 
L 1169.847168 346.868848 
L 1171.167617 346.789034 
L 1172.488067 349.595856 
L 1175.128966 349.595856 
L 1176.449416 346.948663 
L 1177.769865 348.052769 
L 1179.090315 347.959651 
L 1180.410765 348.451843 
L 1181.731214 349.595856 
L 1183.051664 349.595856 
L 1184.372113 347.627089 
L 1185.692563 348.930732 
L 1187.013013 348.278911 
L 1188.333462 348.332121 
L 1189.653912 348.265608 
L 1190.974362 349.595856 
L 1193.615261 349.595856 
L 1194.93571 345.325761 
L 1196.25616 348.425238 
L 1197.57661 347.41425 
L 1198.897059 347.440855 
L 1200.217509 349.595856 
L 1201.537958 349.595856 
L 1202.858408 344.979897 
L 1204.178858 347.693602 
L 1205.499307 346.695916 
L 1206.819757 347.1482 
L 1208.140207 346.217027 
L 1209.460656 349.595856 
L 1210.781106 349.595856 
L 1212.101555 337.796561 
L 1213.422005 346.044095 
L 1214.742455 344.72715 
L 1216.062904 341.813908 
L 1217.383354 340.270821 
L 1218.703803 349.595856 
L 1220.024253 349.595856 
L 1221.344703 336.891993 
L 1222.665152 345.445484 
L 1223.985602 342.718477 
L 1225.306052 343.583137 
L 1226.626501 344.806965 
L 1227.946951 349.595856 
L 1229.2674 349.595856 
L 1230.58785 337.397487 
L 1231.9083 346.203725 
L 1233.228749 342.878106 
L 1234.549199 342.878106 
L 1235.869648 342.505637 
L 1237.190098 349.595856 
L 1239.830997 349.595856 
L 1241.151447 329.642145 
L 1242.471897 342.279495 
L 1243.792346 337.330975 
L 1245.112796 340.629988 
L 1246.433245 349.595856 
L 1247.753695 349.595856 
L 1249.074145 331.650818 
L 1250.394594 340.696501 
L 1251.715044 338.315358 
L 1253.035493 338.900667 
L 1254.355943 338.621315 
L 1255.676393 349.595856 
L 1256.996842 349.595856 
L 1258.317292 328.405015 
L 1259.637742 337.916283 
L 1260.958191 334.963134 
L 1262.278641 336.918598 
L 1263.59909 334.218196 
L 1264.91954 349.595856 
L 1267.560439 349.595856 
L 1268.880889 303.542691 
L 1270.201338 332.049892 
L 1271.521788 328.684367 
L 1272.842238 331.278349 
L 1274.162687 349.595856 
L 1275.483137 349.595856 
L 1276.803587 313.985133 
L 1278.124036 334.35122 
L 1279.444486 349.595856 
L 1280.764935 310.912261 
L 1282.085385 327.819706 
L 1283.405835 349.595856 
L 1286.046734 349.595856 
L 1287.367183 306.49584 
L 1288.687633 331.637516 
L 1290.008083 325.066094 
L 1291.328532 322.804673 
L 1292.648982 349.595856 
L 1293.969432 349.595856 
L 1295.289881 300.629449 
L 1296.610331 326.555971 
L 1297.93078 325.58489 
L 1299.25123 322.631741 
L 1300.57168 328.16557 
L 1301.892129 349.595856 
L 1303.212579 349.595856 
L 1304.533028 305.817414 
L 1305.853478 330.772855 
L 1307.173928 326.170199 
L 1307.173928 326.170199 
" clip-path="url(#p611a53081a)" style="fill: none; stroke: #0000ff; stroke-width: 1.5; stroke-linecap: square"/>
   </g>
   <g id="line2d_18">
    <path d="M 1068.172547 237.914933 
L 1069.492997 301.092247 
L 1070.813447 298.598114 
L 1072.133896 294.71353 
L 1073.454346 159.096617 
L 1074.774795 232.730629 
L 1076.095245 250.649805 
L 1077.415695 253.451835 
L 1078.736144 320.657843 
L 1080.056594 319.343713 
L 1081.377043 206.837071 
L 1082.697493 314.395623 
L 1084.017943 284.970261 
L 1085.338392 285.022265 
L 1086.658842 291.788654 
L 1087.979292 330.164627 
L 1089.299741 320.458735 
L 1090.620191 253.83845 
L 1091.94064 297.238661 
L 1093.26109 271.458099 
L 1094.58154 265.834599 
L 1095.901989 241.475261 
L 1097.222439 312.62248 
L 1098.542888 324.818048 
L 1099.863338 195.30512 
L 1101.183788 319.30115 
L 1102.504237 331.388661 
L 1103.824687 341.769837 
L 1105.145137 346.965911 
L 1106.465586 353.2755 
L 1107.786036 351.289793 
L 1109.106485 336.002044 
L 1110.426935 338.913407 
L 1111.747385 344.485904 
L 1113.067834 345.65485 
L 1114.388284 341.568232 
L 1115.708733 348.689992 
L 1117.029183 348.918638 
L 1118.349633 351.802229 
L 1119.670082 335.551459 
L 1120.990532 343.943328 
L 1122.310982 344.877093 
L 1123.631431 344.57918 
L 1124.951881 349.025026 
L 1126.27233 348.883526 
L 1127.59278 340.282297 
L 1128.91323 350.056786 
L 1130.233679 346.123274 
L 1131.554129 346.490339 
L 1134.195028 349.25979 
L 1135.515478 349.15499 
L 1136.835927 345.433064 
L 1138.156377 347.602798 
L 1139.476827 348.321397 
L 1140.797276 348.190764 
L 1142.117726 346.800154 
L 1143.438175 348.929707 
L 1144.758625 349.06641 
L 1146.079075 346.401575 
L 1147.399524 348.286197 
L 1150.040423 348.931661 
L 1151.360873 348.786677 
L 1152.681323 349.355972 
L 1154.001772 349.122399 
L 1155.322222 347.43216 
L 1156.642672 348.318019 
L 1157.963121 348.124726 
L 1159.283571 348.560411 
L 1160.60402 348.226781 
L 1161.92447 349.2987 
L 1163.24492 349.0963 
L 1164.565369 348.177807 
L 1165.885819 349.089283 
L 1167.206268 348.047983 
L 1168.526718 347.783757 
L 1169.847168 347.284675 
L 1171.167617 348.510141 
L 1172.488067 348.374618 
L 1173.808517 344.500294 
L 1175.128966 346.868513 
L 1176.449416 348.08772 
L 1177.769865 347.383383 
L 1179.090315 347.665246 
L 1180.410765 349.137586 
L 1181.731214 349.201497 
L 1183.051664 350.079346 
L 1184.372113 348.093865 
L 1188.333462 348.701962 
L 1189.653912 349.310147 
L 1190.974362 349.183351 
L 1192.294811 347.657769 
L 1193.615261 348.863459 
L 1194.93571 348.989603 
L 1196.25616 348.576508 
L 1197.57661 348.584151 
L 1198.897059 348.979003 
L 1200.217509 348.805564 
L 1201.537958 349.047704 
L 1202.858408 346.369086 
L 1204.178858 347.940268 
L 1206.819757 347.123491 
L 1208.140207 348.686458 
L 1209.460656 348.312593 
L 1210.781106 345.11065 
L 1212.101555 348.519352 
L 1213.422005 346.659835 
L 1214.742455 346.898254 
L 1216.062904 345.824892 
L 1217.383354 347.702033 
L 1218.703803 346.547116 
L 1220.024253 338.744475 
L 1221.344703 344.254671 
L 1222.665152 343.5968 
L 1225.306052 340.476302 
L 1226.626501 346.330464 
L 1227.946951 346.568532 
L 1229.2674 339.851038 
L 1230.58785 345.665369 
L 1231.9083 343.660544 
L 1233.228749 344.911406 
L 1234.549199 345.722931 
L 1235.869648 347.911125 
L 1237.190098 347.148089 
L 1238.510548 340.138569 
L 1239.830997 344.372899 
L 1241.151447 345.725681 
L 1242.471897 343.918388 
L 1243.792346 344.059377 
L 1245.112796 346.240923 
L 1246.433245 345.524277 
L 1247.753695 346.608388 
L 1249.074145 334.225063 
L 1250.394594 340.705244 
L 1251.715044 338.600281 
L 1253.035493 339.281219 
L 1254.355943 345.605661 
L 1255.676393 344.713179 
L 1256.996842 332.406178 
L 1258.317292 342.688719 
L 1259.637742 339.537926 
L 1260.958191 340.554066 
L 1262.278641 338.992575 
L 1263.59909 345.022034 
L 1264.91954 343.599879 
L 1266.23999 331.657024 
L 1267.560439 335.099866 
L 1268.880889 340.437124 
L 1270.201338 338.20618 
L 1271.521788 336.962219 
L 1272.842238 341.941298 
L 1274.162687 340.602929 
L 1275.483137 342.820147 
L 1276.803587 314.982441 
L 1278.124036 329.14773 
L 1279.444486 327.457856 
L 1280.764935 332.017908 
L 1282.085385 343.398022 
L 1283.405835 342.883889 
L 1284.726284 316.237408 
L 1286.046734 334.523053 
L 1287.367183 349.656842 
L 1288.687633 322.331243 
L 1291.328532 342.624002 
L 1292.648982 340.022823 
L 1293.969432 346.001476 
L 1295.289881 317.98643 
L 1296.610331 326.984427 
L 1297.93078 329.102597 
L 1299.25123 321.908021 
L 1300.57168 338.19392 
L 1301.892129 337.566964 
L 1303.212579 303.303017 
L 1304.533028 330.213482 
L 1305.853478 327.52288 
L 1307.173928 326.122695 
L 1307.173928 326.122695 
" clip-path="url(#p611a53081a)" style="fill: none; stroke: #ffa500; stroke-width: 1.5; stroke-linecap: square"/>
   </g>
   <g id="line2d_19">
    <path d="M 1307.173928 326.122695 
L 1308.494377 330.198672 
L 1309.814827 341.477957 
L 1311.135277 341.36763 
L 1312.455726 318.730556 
L 1313.776176 330.647658 
L 1315.096625 328.323106 
L 1316.417075 328.73755 
L 1317.737525 330.57352 
L 1319.057974 335.912084 
L 1320.378424 335.837108 
L 1321.698873 325.10151 
L 1323.019323 330.762805 
L 1324.339773 329.658232 
" clip-path="url(#p611a53081a)" style="fill: none; stroke: #ff0000; stroke-width: 1.5; stroke-linecap: square"/>
   </g>
   <g id="patch_3">
    <path d="M 46.0125 368.3955 
L 46.0125 35.7555 
" style="fill: none; stroke: #000000; stroke-width: 0.8; stroke-linejoin: miter; stroke-linecap: square"/>
   </g>
   <g id="patch_4">
    <path d="M 1385.2125 368.3955 
L 1385.2125 35.7555 
" style="fill: none; stroke: #000000; stroke-width: 0.8; stroke-linejoin: miter; stroke-linecap: square"/>
   </g>
   <g id="patch_5">
    <path d="M 46.0125 368.3955 
L 1385.2125 368.3955 
" style="fill: none; stroke: #000000; stroke-width: 0.8; stroke-linejoin: miter; stroke-linecap: square"/>
   </g>
   <g id="patch_6">
    <path d="M 46.0125 35.7555 
L 1385.2125 35.7555 
" style="fill: none; stroke: #000000; stroke-width: 0.8; stroke-linejoin: miter; stroke-linecap: square"/>
   </g>
   <g id="text_17">
    <!-- Daily Confirmed Cases Forecasting - Mississippi -->
    <g transform="translate(573.147188 16.318125)scale(0.12 -0.12)">
     <defs>
      <path id="DejaVuSans-44" d="M 1259 4147 
L 1259 519 
L 2022 519 
Q 2988 519 3436 956 
Q 3884 1394 3884 2338 
Q 3884 3275 3436 3711 
Q 2988 4147 2022 4147 
L 1259 4147 
z
M 628 4666 
L 1925 4666 
Q 3281 4666 3915 4102 
Q 4550 3538 4550 2338 
Q 4550 1131 3912 565 
Q 3275 0 1925 0 
L 628 0 
L 628 4666 
z
" transform="scale(0.015625)"/>
      <path id="DejaVuSans-61" d="M 2194 1759 
Q 1497 1759 1228 1600 
Q 959 1441 959 1056 
Q 959 750 1161 570 
Q 1363 391 1709 391 
Q 2188 391 2477 730 
Q 2766 1069 2766 1631 
L 2766 1759 
L 2194 1759 
z
M 3341 1997 
L 3341 0 
L 2766 0 
L 2766 531 
Q 2569 213 2275 61 
Q 1981 -91 1556 -91 
Q 1019 -91 701 211 
Q 384 513 384 1019 
Q 384 1609 779 1909 
Q 1175 2209 1959 2209 
L 2766 2209 
L 2766 2266 
Q 2766 2663 2505 2880 
Q 2244 3097 1772 3097 
Q 1472 3097 1187 3025 
Q 903 2953 641 2809 
L 641 3341 
Q 956 3463 1253 3523 
Q 1550 3584 1831 3584 
Q 2591 3584 2966 3190 
Q 3341 2797 3341 1997 
z
" transform="scale(0.015625)"/>
      <path id="DejaVuSans-69" d="M 603 3500 
L 1178 3500 
L 1178 0 
L 603 0 
L 603 3500 
z
M 603 4863 
L 1178 4863 
L 1178 4134 
L 603 4134 
L 603 4863 
z
" transform="scale(0.015625)"/>
      <path id="DejaVuSans-6c" d="M 603 4863 
L 1178 4863 
L 1178 0 
L 603 0 
L 603 4863 
z
" transform="scale(0.015625)"/>
      <path id="DejaVuSans-79" d="M 2059 -325 
Q 1816 -950 1584 -1140 
Q 1353 -1331 966 -1331 
L 506 -1331 
L 506 -850 
L 844 -850 
Q 1081 -850 1212 -737 
Q 1344 -625 1503 -206 
L 1606 56 
L 191 3500 
L 800 3500 
L 1894 763 
L 2988 3500 
L 3597 3500 
L 2059 -325 
z
" transform="scale(0.015625)"/>
      <path id="DejaVuSans-20" transform="scale(0.015625)"/>
      <path id="DejaVuSans-43" d="M 4122 4306 
L 4122 3641 
Q 3803 3938 3442 4084 
Q 3081 4231 2675 4231 
Q 1875 4231 1450 3742 
Q 1025 3253 1025 2328 
Q 1025 1406 1450 917 
Q 1875 428 2675 428 
Q 3081 428 3442 575 
Q 3803 722 4122 1019 
L 4122 359 
Q 3791 134 3420 21 
Q 3050 -91 2638 -91 
Q 1578 -91 968 557 
Q 359 1206 359 2328 
Q 359 3453 968 4101 
Q 1578 4750 2638 4750 
Q 3056 4750 3426 4639 
Q 3797 4528 4122 4306 
z
" transform="scale(0.015625)"/>
      <path id="DejaVuSans-6f" d="M 1959 3097 
Q 1497 3097 1228 2736 
Q 959 2375 959 1747 
Q 959 1119 1226 758 
Q 1494 397 1959 397 
Q 2419 397 2687 759 
Q 2956 1122 2956 1747 
Q 2956 2369 2687 2733 
Q 2419 3097 1959 3097 
z
M 1959 3584 
Q 2709 3584 3137 3096 
Q 3566 2609 3566 1747 
Q 3566 888 3137 398 
Q 2709 -91 1959 -91 
Q 1206 -91 779 398 
Q 353 888 353 1747 
Q 353 2609 779 3096 
Q 1206 3584 1959 3584 
z
" transform="scale(0.015625)"/>
      <path id="DejaVuSans-6e" d="M 3513 2113 
L 3513 0 
L 2938 0 
L 2938 2094 
Q 2938 2591 2744 2837 
Q 2550 3084 2163 3084 
Q 1697 3084 1428 2787 
Q 1159 2491 1159 1978 
L 1159 0 
L 581 0 
L 581 3500 
L 1159 3500 
L 1159 2956 
Q 1366 3272 1645 3428 
Q 1925 3584 2291 3584 
Q 2894 3584 3203 3211 
Q 3513 2838 3513 2113 
z
" transform="scale(0.015625)"/>
      <path id="DejaVuSans-66" d="M 2375 4863 
L 2375 4384 
L 1825 4384 
Q 1516 4384 1395 4259 
Q 1275 4134 1275 3809 
L 1275 3500 
L 2222 3500 
L 2222 3053 
L 1275 3053 
L 1275 0 
L 697 0 
L 697 3053 
L 147 3053 
L 147 3500 
L 697 3500 
L 697 3744 
Q 697 4328 969 4595 
Q 1241 4863 1831 4863 
L 2375 4863 
z
" transform="scale(0.015625)"/>
      <path id="DejaVuSans-72" d="M 2631 2963 
Q 2534 3019 2420 3045 
Q 2306 3072 2169 3072 
Q 1681 3072 1420 2755 
Q 1159 2438 1159 1844 
L 1159 0 
L 581 0 
L 581 3500 
L 1159 3500 
L 1159 2956 
Q 1341 3275 1631 3429 
Q 1922 3584 2338 3584 
Q 2397 3584 2469 3576 
Q 2541 3569 2628 3553 
L 2631 2963 
z
" transform="scale(0.015625)"/>
      <path id="DejaVuSans-6d" d="M 3328 2828 
Q 3544 3216 3844 3400 
Q 4144 3584 4550 3584 
Q 5097 3584 5394 3201 
Q 5691 2819 5691 2113 
L 5691 0 
L 5113 0 
L 5113 2094 
Q 5113 2597 4934 2840 
Q 4756 3084 4391 3084 
Q 3944 3084 3684 2787 
Q 3425 2491 3425 1978 
L 3425 0 
L 2847 0 
L 2847 2094 
Q 2847 2600 2669 2842 
Q 2491 3084 2119 3084 
Q 1678 3084 1418 2786 
Q 1159 2488 1159 1978 
L 1159 0 
L 581 0 
L 581 3500 
L 1159 3500 
L 1159 2956 
Q 1356 3278 1631 3431 
Q 1906 3584 2284 3584 
Q 2666 3584 2933 3390 
Q 3200 3197 3328 2828 
z
" transform="scale(0.015625)"/>
      <path id="DejaVuSans-65" d="M 3597 1894 
L 3597 1613 
L 953 1613 
Q 991 1019 1311 708 
Q 1631 397 2203 397 
Q 2534 397 2845 478 
Q 3156 559 3463 722 
L 3463 178 
Q 3153 47 2828 -22 
Q 2503 -91 2169 -91 
Q 1331 -91 842 396 
Q 353 884 353 1716 
Q 353 2575 817 3079 
Q 1281 3584 2069 3584 
Q 2775 3584 3186 3129 
Q 3597 2675 3597 1894 
z
M 3022 2063 
Q 3016 2534 2758 2815 
Q 2500 3097 2075 3097 
Q 1594 3097 1305 2825 
Q 1016 2553 972 2059 
L 3022 2063 
z
" transform="scale(0.015625)"/>
      <path id="DejaVuSans-64" d="M 2906 2969 
L 2906 4863 
L 3481 4863 
L 3481 0 
L 2906 0 
L 2906 525 
Q 2725 213 2448 61 
Q 2172 -91 1784 -91 
Q 1150 -91 751 415 
Q 353 922 353 1747 
Q 353 2572 751 3078 
Q 1150 3584 1784 3584 
Q 2172 3584 2448 3432 
Q 2725 3281 2906 2969 
z
M 947 1747 
Q 947 1113 1208 752 
Q 1469 391 1925 391 
Q 2381 391 2643 752 
Q 2906 1113 2906 1747 
Q 2906 2381 2643 2742 
Q 2381 3103 1925 3103 
Q 1469 3103 1208 2742 
Q 947 2381 947 1747 
z
" transform="scale(0.015625)"/>
      <path id="DejaVuSans-73" d="M 2834 3397 
L 2834 2853 
Q 2591 2978 2328 3040 
Q 2066 3103 1784 3103 
Q 1356 3103 1142 2972 
Q 928 2841 928 2578 
Q 928 2378 1081 2264 
Q 1234 2150 1697 2047 
L 1894 2003 
Q 2506 1872 2764 1633 
Q 3022 1394 3022 966 
Q 3022 478 2636 193 
Q 2250 -91 1575 -91 
Q 1294 -91 989 -36 
Q 684 19 347 128 
L 347 722 
Q 666 556 975 473 
Q 1284 391 1588 391 
Q 1994 391 2212 530 
Q 2431 669 2431 922 
Q 2431 1156 2273 1281 
Q 2116 1406 1581 1522 
L 1381 1569 
Q 847 1681 609 1914 
Q 372 2147 372 2553 
Q 372 3047 722 3315 
Q 1072 3584 1716 3584 
Q 2034 3584 2315 3537 
Q 2597 3491 2834 3397 
z
" transform="scale(0.015625)"/>
      <path id="DejaVuSans-46" d="M 628 4666 
L 3309 4666 
L 3309 4134 
L 1259 4134 
L 1259 2759 
L 3109 2759 
L 3109 2228 
L 1259 2228 
L 1259 0 
L 628 0 
L 628 4666 
z
" transform="scale(0.015625)"/>
      <path id="DejaVuSans-63" d="M 3122 3366 
L 3122 2828 
Q 2878 2963 2633 3030 
Q 2388 3097 2138 3097 
Q 1578 3097 1268 2742 
Q 959 2388 959 1747 
Q 959 1106 1268 751 
Q 1578 397 2138 397 
Q 2388 397 2633 464 
Q 2878 531 3122 666 
L 3122 134 
Q 2881 22 2623 -34 
Q 2366 -91 2075 -91 
Q 1284 -91 818 406 
Q 353 903 353 1747 
Q 353 2603 823 3093 
Q 1294 3584 2113 3584 
Q 2378 3584 2631 3529 
Q 2884 3475 3122 3366 
z
" transform="scale(0.015625)"/>
      <path id="DejaVuSans-74" d="M 1172 4494 
L 1172 3500 
L 2356 3500 
L 2356 3053 
L 1172 3053 
L 1172 1153 
Q 1172 725 1289 603 
Q 1406 481 1766 481 
L 2356 481 
L 2356 0 
L 1766 0 
Q 1100 0 847 248 
Q 594 497 594 1153 
L 594 3053 
L 172 3053 
L 172 3500 
L 594 3500 
L 594 4494 
L 1172 4494 
z
" transform="scale(0.015625)"/>
      <path id="DejaVuSans-67" d="M 2906 1791 
Q 2906 2416 2648 2759 
Q 2391 3103 1925 3103 
Q 1463 3103 1205 2759 
Q 947 2416 947 1791 
Q 947 1169 1205 825 
Q 1463 481 1925 481 
Q 2391 481 2648 825 
Q 2906 1169 2906 1791 
z
M 3481 434 
Q 3481 -459 3084 -895 
Q 2688 -1331 1869 -1331 
Q 1566 -1331 1297 -1286 
Q 1028 -1241 775 -1147 
L 775 -588 
Q 1028 -725 1275 -790 
Q 1522 -856 1778 -856 
Q 2344 -856 2625 -561 
Q 2906 -266 2906 331 
L 2906 616 
Q 2728 306 2450 153 
Q 2172 0 1784 0 
Q 1141 0 747 490 
Q 353 981 353 1791 
Q 353 2603 747 3093 
Q 1141 3584 1784 3584 
Q 2172 3584 2450 3431 
Q 2728 3278 2906 2969 
L 2906 3500 
L 3481 3500 
L 3481 434 
z
" transform="scale(0.015625)"/>
      <path id="DejaVuSans-4d" d="M 628 4666 
L 1569 4666 
L 2759 1491 
L 3956 4666 
L 4897 4666 
L 4897 0 
L 4281 0 
L 4281 4097 
L 3078 897 
L 2444 897 
L 1241 4097 
L 1241 0 
L 628 0 
L 628 4666 
z
" transform="scale(0.015625)"/>
      <path id="DejaVuSans-70" d="M 1159 525 
L 1159 -1331 
L 581 -1331 
L 581 3500 
L 1159 3500 
L 1159 2969 
Q 1341 3281 1617 3432 
Q 1894 3584 2278 3584 
Q 2916 3584 3314 3078 
Q 3713 2572 3713 1747 
Q 3713 922 3314 415 
Q 2916 -91 2278 -91 
Q 1894 -91 1617 61 
Q 1341 213 1159 525 
z
M 3116 1747 
Q 3116 2381 2855 2742 
Q 2594 3103 2138 3103 
Q 1681 3103 1420 2742 
Q 1159 2381 1159 1747 
Q 1159 1113 1420 752 
Q 1681 391 2138 391 
Q 2594 391 2855 752 
Q 3116 1113 3116 1747 
z
" transform="scale(0.015625)"/>
     </defs>
     <use xlink:href="#DejaVuSans-44"/>
     <use xlink:href="#DejaVuSans-61" x="77.001953"/>
     <use xlink:href="#DejaVuSans-69" x="138.28125"/>
     <use xlink:href="#DejaVuSans-6c" x="166.064453"/>
     <use xlink:href="#DejaVuSans-79" x="193.847656"/>
     <use xlink:href="#DejaVuSans-20" x="253.027344"/>
     <use xlink:href="#DejaVuSans-43" x="284.814453"/>
     <use xlink:href="#DejaVuSans-6f" x="354.638672"/>
     <use xlink:href="#DejaVuSans-6e" x="415.820312"/>
     <use xlink:href="#DejaVuSans-66" x="479.199219"/>
     <use xlink:href="#DejaVuSans-69" x="514.404297"/>
     <use xlink:href="#DejaVuSans-72" x="542.1875"/>
     <use xlink:href="#DejaVuSans-6d" x="581.550781"/>
     <use xlink:href="#DejaVuSans-65" x="678.962891"/>
     <use xlink:href="#DejaVuSans-64" x="740.486328"/>
     <use xlink:href="#DejaVuSans-20" x="803.962891"/>
     <use xlink:href="#DejaVuSans-43" x="835.75"/>
     <use xlink:href="#DejaVuSans-61" x="905.574219"/>
     <use xlink:href="#DejaVuSans-73" x="966.853516"/>
     <use xlink:href="#DejaVuSans-65" x="1018.953125"/>
     <use xlink:href="#DejaVuSans-73" x="1080.476562"/>
     <use xlink:href="#DejaVuSans-20" x="1132.576172"/>
     <use xlink:href="#DejaVuSans-46" x="1164.363281"/>
     <use xlink:href="#DejaVuSans-6f" x="1218.257812"/>
     <use xlink:href="#DejaVuSans-72" x="1279.439453"/>
     <use xlink:href="#DejaVuSans-65" x="1318.302734"/>
     <use xlink:href="#DejaVuSans-63" x="1379.826172"/>
     <use xlink:href="#DejaVuSans-61" x="1434.806641"/>
     <use xlink:href="#DejaVuSans-73" x="1496.085938"/>
     <use xlink:href="#DejaVuSans-74" x="1548.185547"/>
     <use xlink:href="#DejaVuSans-69" x="1587.394531"/>
     <use xlink:href="#DejaVuSans-6e" x="1615.177734"/>
     <use xlink:href="#DejaVuSans-67" x="1678.556641"/>
     <use xlink:href="#DejaVuSans-20" x="1742.033203"/>
     <use xlink:href="#DejaVuSans-2d" x="1773.820312"/>
     <use xlink:href="#DejaVuSans-20" x="1809.904297"/>
     <use xlink:href="#DejaVuSans-4d" x="1841.691406"/>
     <use xlink:href="#DejaVuSans-69" x="1927.970703"/>
     <use xlink:href="#DejaVuSans-73" x="1955.753906"/>
     <use xlink:href="#DejaVuSans-73" x="2007.853516"/>
     <use xlink:href="#DejaVuSans-69" x="2059.953125"/>
     <use xlink:href="#DejaVuSans-73" x="2087.736328"/>
     <use xlink:href="#DejaVuSans-73" x="2139.835938"/>
     <use xlink:href="#DejaVuSans-69" x="2191.935547"/>
     <use xlink:href="#DejaVuSans-70" x="2219.71875"/>
     <use xlink:href="#DejaVuSans-70" x="2283.195312"/>
     <use xlink:href="#DejaVuSans-69" x="2346.671875"/>
    </g>
    <!-- ARIMA (3, 1, 1)x(1, 0, 1, 7) (R2 = 0.116109) -->
    <g transform="translate(583.628438 29.7555)scale(0.12 -0.12)">
     <defs>
      <path id="DejaVuSans-41" d="M 2188 4044 
L 1331 1722 
L 3047 1722 
L 2188 4044 
z
M 1831 4666 
L 2547 4666 
L 4325 0 
L 3669 0 
L 3244 1197 
L 1141 1197 
L 716 0 
L 50 0 
L 1831 4666 
z
" transform="scale(0.015625)"/>
      <path id="DejaVuSans-52" d="M 2841 2188 
Q 3044 2119 3236 1894 
Q 3428 1669 3622 1275 
L 4263 0 
L 3584 0 
L 2988 1197 
Q 2756 1666 2539 1819 
Q 2322 1972 1947 1972 
L 1259 1972 
L 1259 0 
L 628 0 
L 628 4666 
L 2053 4666 
Q 2853 4666 3247 4331 
Q 3641 3997 3641 3322 
Q 3641 2881 3436 2590 
Q 3231 2300 2841 2188 
z
M 1259 4147 
L 1259 2491 
L 2053 2491 
Q 2509 2491 2742 2702 
Q 2975 2913 2975 3322 
Q 2975 3731 2742 3939 
Q 2509 4147 2053 4147 
L 1259 4147 
z
" transform="scale(0.015625)"/>
      <path id="DejaVuSans-49" d="M 628 4666 
L 1259 4666 
L 1259 0 
L 628 0 
L 628 4666 
z
" transform="scale(0.015625)"/>
      <path id="DejaVuSans-28" d="M 1984 4856 
Q 1566 4138 1362 3434 
Q 1159 2731 1159 2009 
Q 1159 1288 1364 580 
Q 1569 -128 1984 -844 
L 1484 -844 
Q 1016 -109 783 600 
Q 550 1309 550 2009 
Q 550 2706 781 3412 
Q 1013 4119 1484 4856 
L 1984 4856 
z
" transform="scale(0.015625)"/>
      <path id="DejaVuSans-33" d="M 2597 2516 
Q 3050 2419 3304 2112 
Q 3559 1806 3559 1356 
Q 3559 666 3084 287 
Q 2609 -91 1734 -91 
Q 1441 -91 1130 -33 
Q 819 25 488 141 
L 488 750 
Q 750 597 1062 519 
Q 1375 441 1716 441 
Q 2309 441 2620 675 
Q 2931 909 2931 1356 
Q 2931 1769 2642 2001 
Q 2353 2234 1838 2234 
L 1294 2234 
L 1294 2753 
L 1863 2753 
Q 2328 2753 2575 2939 
Q 2822 3125 2822 3475 
Q 2822 3834 2567 4026 
Q 2313 4219 1838 4219 
Q 1578 4219 1281 4162 
Q 984 4106 628 3988 
L 628 4550 
Q 988 4650 1302 4700 
Q 1616 4750 1894 4750 
Q 2613 4750 3031 4423 
Q 3450 4097 3450 3541 
Q 3450 3153 3228 2886 
Q 3006 2619 2597 2516 
z
" transform="scale(0.015625)"/>
      <path id="DejaVuSans-2c" d="M 750 794 
L 1409 794 
L 1409 256 
L 897 -744 
L 494 -744 
L 750 256 
L 750 794 
z
" transform="scale(0.015625)"/>
      <path id="DejaVuSans-29" d="M 513 4856 
L 1013 4856 
Q 1481 4119 1714 3412 
Q 1947 2706 1947 2009 
Q 1947 1309 1714 600 
Q 1481 -109 1013 -844 
L 513 -844 
Q 928 -128 1133 580 
Q 1338 1288 1338 2009 
Q 1338 2731 1133 3434 
Q 928 4138 513 4856 
z
" transform="scale(0.015625)"/>
      <path id="DejaVuSans-78" d="M 3513 3500 
L 2247 1797 
L 3578 0 
L 2900 0 
L 1881 1375 
L 863 0 
L 184 0 
L 1544 1831 
L 300 3500 
L 978 3500 
L 1906 2253 
L 2834 3500 
L 3513 3500 
z
" transform="scale(0.015625)"/>
      <path id="DejaVuSans-3d" d="M 678 2906 
L 4684 2906 
L 4684 2381 
L 678 2381 
L 678 2906 
z
M 678 1631 
L 4684 1631 
L 4684 1100 
L 678 1100 
L 678 1631 
z
" transform="scale(0.015625)"/>
      <path id="DejaVuSans-2e" d="M 684 794 
L 1344 794 
L 1344 0 
L 684 0 
L 684 794 
z
" transform="scale(0.015625)"/>
      <path id="DejaVuSans-36" d="M 2113 2584 
Q 1688 2584 1439 2293 
Q 1191 2003 1191 1497 
Q 1191 994 1439 701 
Q 1688 409 2113 409 
Q 2538 409 2786 701 
Q 3034 994 3034 1497 
Q 3034 2003 2786 2293 
Q 2538 2584 2113 2584 
z
M 3366 4563 
L 3366 3988 
Q 3128 4100 2886 4159 
Q 2644 4219 2406 4219 
Q 1781 4219 1451 3797 
Q 1122 3375 1075 2522 
Q 1259 2794 1537 2939 
Q 1816 3084 2150 3084 
Q 2853 3084 3261 2657 
Q 3669 2231 3669 1497 
Q 3669 778 3244 343 
Q 2819 -91 2113 -91 
Q 1303 -91 875 529 
Q 447 1150 447 2328 
Q 447 3434 972 4092 
Q 1497 4750 2381 4750 
Q 2619 4750 2861 4703 
Q 3103 4656 3366 4563 
z
" transform="scale(0.015625)"/>
      <path id="DejaVuSans-39" d="M 703 97 
L 703 672 
Q 941 559 1184 500 
Q 1428 441 1663 441 
Q 2288 441 2617 861 
Q 2947 1281 2994 2138 
Q 2813 1869 2534 1725 
Q 2256 1581 1919 1581 
Q 1219 1581 811 2004 
Q 403 2428 403 3163 
Q 403 3881 828 4315 
Q 1253 4750 1959 4750 
Q 2769 4750 3195 4129 
Q 3622 3509 3622 2328 
Q 3622 1225 3098 567 
Q 2575 -91 1691 -91 
Q 1453 -91 1209 -44 
Q 966 3 703 97 
z
M 1959 2075 
Q 2384 2075 2632 2365 
Q 2881 2656 2881 3163 
Q 2881 3666 2632 3958 
Q 2384 4250 1959 4250 
Q 1534 4250 1286 3958 
Q 1038 3666 1038 3163 
Q 1038 2656 1286 2365 
Q 1534 2075 1959 2075 
z
" transform="scale(0.015625)"/>
     </defs>
     <use xlink:href="#DejaVuSans-41"/>
     <use xlink:href="#DejaVuSans-52" x="68.408203"/>
     <use xlink:href="#DejaVuSans-49" x="137.890625"/>
     <use xlink:href="#DejaVuSans-4d" x="167.382812"/>
     <use xlink:href="#DejaVuSans-41" x="253.662109"/>
     <use xlink:href="#DejaVuSans-20" x="322.070312"/>
     <use xlink:href="#DejaVuSans-28" x="353.857422"/>
     <use xlink:href="#DejaVuSans-33" x="392.871094"/>
     <use xlink:href="#DejaVuSans-2c" x="456.494141"/>
     <use xlink:href="#DejaVuSans-20" x="488.28125"/>
     <use xlink:href="#DejaVuSans-31" x="520.068359"/>
     <use xlink:href="#DejaVuSans-2c" x="583.691406"/>
     <use xlink:href="#DejaVuSans-20" x="615.478516"/>
     <use xlink:href="#DejaVuSans-31" x="647.265625"/>
     <use xlink:href="#DejaVuSans-29" x="710.888672"/>
     <use xlink:href="#DejaVuSans-78" x="749.902344"/>
     <use xlink:href="#DejaVuSans-28" x="809.082031"/>
     <use xlink:href="#DejaVuSans-31" x="848.095703"/>
     <use xlink:href="#DejaVuSans-2c" x="911.71875"/>
     <use xlink:href="#DejaVuSans-20" x="943.505859"/>
     <use xlink:href="#DejaVuSans-30" x="975.292969"/>
     <use xlink:href="#DejaVuSans-2c" x="1038.916016"/>
     <use xlink:href="#DejaVuSans-20" x="1070.703125"/>
     <use xlink:href="#DejaVuSans-31" x="1102.490234"/>
     <use xlink:href="#DejaVuSans-2c" x="1166.113281"/>
     <use xlink:href="#DejaVuSans-20" x="1197.900391"/>
     <use xlink:href="#DejaVuSans-37" x="1229.6875"/>
     <use xlink:href="#DejaVuSans-29" x="1293.310547"/>
     <use xlink:href="#DejaVuSans-20" x="1332.324219"/>
     <use xlink:href="#DejaVuSans-28" x="1364.111328"/>
     <use xlink:href="#DejaVuSans-52" x="1403.125"/>
     <use xlink:href="#DejaVuSans-32" x="1472.607422"/>
     <use xlink:href="#DejaVuSans-20" x="1536.230469"/>
     <use xlink:href="#DejaVuSans-3d" x="1568.017578"/>
     <use xlink:href="#DejaVuSans-20" x="1651.806641"/>
     <use xlink:href="#DejaVuSans-30" x="1683.59375"/>
     <use xlink:href="#DejaVuSans-2e" x="1747.216797"/>
     <use xlink:href="#DejaVuSans-31" x="1779.003906"/>
     <use xlink:href="#DejaVuSans-31" x="1842.626953"/>
     <use xlink:href="#DejaVuSans-36" x="1906.25"/>
     <use xlink:href="#DejaVuSans-31" x="1969.873047"/>
     <use xlink:href="#DejaVuSans-30" x="2033.496094"/>
     <use xlink:href="#DejaVuSans-39" x="2097.119141"/>
     <use xlink:href="#DejaVuSans-29" x="2160.742188"/>
    </g>
   </g>
   <g id="legend_1">
    <g id="patch_7">
     <path d="M 1281.132812 87.789875 
L 1378.2125 87.789875 
Q 1380.2125 87.789875 1380.2125 85.789875 
L 1380.2125 42.7555 
Q 1380.2125 40.7555 1378.2125 40.7555 
L 1281.132812 40.7555 
Q 1279.132812 40.7555 1279.132812 42.7555 
L 1279.132812 85.789875 
Q 1279.132812 87.789875 1281.132812 87.789875 
z
" style="fill: #ffffff; opacity: 0.8; stroke: #cccccc; stroke-linejoin: miter"/>
    </g>
    <g id="line2d_20">
     <path d="M 1283.132812 48.853937 
L 1293.132812 48.853937 
L 1303.132812 48.853937 
" style="fill: none; stroke: #0000ff; stroke-width: 1.5; stroke-linecap: square"/>
    </g>
    <g id="text_18">
     <!-- Actual Value -->
     <g transform="translate(1311.132812 52.353937)scale(0.1 -0.1)">
      <defs>
       <path id="DejaVuSans-75" d="M 544 1381 
L 544 3500 
L 1119 3500 
L 1119 1403 
Q 1119 906 1312 657 
Q 1506 409 1894 409 
Q 2359 409 2629 706 
Q 2900 1003 2900 1516 
L 2900 3500 
L 3475 3500 
L 3475 0 
L 2900 0 
L 2900 538 
Q 2691 219 2414 64 
Q 2138 -91 1772 -91 
Q 1169 -91 856 284 
Q 544 659 544 1381 
z
M 1991 3584 
L 1991 3584 
z
" transform="scale(0.015625)"/>
       <path id="DejaVuSans-56" d="M 1831 0 
L 50 4666 
L 709 4666 
L 2188 738 
L 3669 4666 
L 4325 4666 
L 2547 0 
L 1831 0 
z
" transform="scale(0.015625)"/>
      </defs>
      <use xlink:href="#DejaVuSans-41"/>
      <use xlink:href="#DejaVuSans-63" x="66.658203"/>
      <use xlink:href="#DejaVuSans-74" x="121.638672"/>
      <use xlink:href="#DejaVuSans-75" x="160.847656"/>
      <use xlink:href="#DejaVuSans-61" x="224.226562"/>
      <use xlink:href="#DejaVuSans-6c" x="285.505859"/>
      <use xlink:href="#DejaVuSans-20" x="313.289062"/>
      <use xlink:href="#DejaVuSans-56" x="345.076172"/>
      <use xlink:href="#DejaVuSans-61" x="405.734375"/>
      <use xlink:href="#DejaVuSans-6c" x="467.013672"/>
      <use xlink:href="#DejaVuSans-75" x="494.796875"/>
      <use xlink:href="#DejaVuSans-65" x="558.175781"/>
     </g>
    </g>
    <g id="line2d_21">
     <path d="M 1283.132812 63.532062 
L 1293.132812 63.532062 
L 1303.132812 63.532062 
" style="fill: none; stroke: #ffa500; stroke-width: 1.5; stroke-linecap: square"/>
    </g>
    <g id="text_19">
     <!-- Check Value -->
     <g transform="translate(1311.132812 67.032062)scale(0.1 -0.1)">
      <defs>
       <path id="DejaVuSans-68" d="M 3513 2113 
L 3513 0 
L 2938 0 
L 2938 2094 
Q 2938 2591 2744 2837 
Q 2550 3084 2163 3084 
Q 1697 3084 1428 2787 
Q 1159 2491 1159 1978 
L 1159 0 
L 581 0 
L 581 4863 
L 1159 4863 
L 1159 2956 
Q 1366 3272 1645 3428 
Q 1925 3584 2291 3584 
Q 2894 3584 3203 3211 
Q 3513 2838 3513 2113 
z
" transform="scale(0.015625)"/>
       <path id="DejaVuSans-6b" d="M 581 4863 
L 1159 4863 
L 1159 1991 
L 2875 3500 
L 3609 3500 
L 1753 1863 
L 3688 0 
L 2938 0 
L 1159 1709 
L 1159 0 
L 581 0 
L 581 4863 
z
" transform="scale(0.015625)"/>
      </defs>
      <use xlink:href="#DejaVuSans-43"/>
      <use xlink:href="#DejaVuSans-68" x="69.824219"/>
      <use xlink:href="#DejaVuSans-65" x="133.203125"/>
      <use xlink:href="#DejaVuSans-63" x="194.726562"/>
      <use xlink:href="#DejaVuSans-6b" x="249.707031"/>
      <use xlink:href="#DejaVuSans-20" x="307.617188"/>
      <use xlink:href="#DejaVuSans-56" x="339.404297"/>
      <use xlink:href="#DejaVuSans-61" x="400.0625"/>
      <use xlink:href="#DejaVuSans-6c" x="461.341797"/>
      <use xlink:href="#DejaVuSans-75" x="489.125"/>
      <use xlink:href="#DejaVuSans-65" x="552.503906"/>
     </g>
    </g>
    <g id="line2d_22">
     <path d="M 1283.132812 78.210187 
L 1293.132812 78.210187 
L 1303.132812 78.210187 
" style="fill: none; stroke: #ff0000; stroke-width: 1.5; stroke-linecap: square"/>
    </g>
    <g id="text_20">
     <!-- Predict Value -->
     <g transform="translate(1311.132812 81.710187)scale(0.1 -0.1)">
      <defs>
       <path id="DejaVuSans-50" d="M 1259 4147 
L 1259 2394 
L 2053 2394 
Q 2494 2394 2734 2622 
Q 2975 2850 2975 3272 
Q 2975 3691 2734 3919 
Q 2494 4147 2053 4147 
L 1259 4147 
z
M 628 4666 
L 2053 4666 
Q 2838 4666 3239 4311 
Q 3641 3956 3641 3272 
Q 3641 2581 3239 2228 
Q 2838 1875 2053 1875 
L 1259 1875 
L 1259 0 
L 628 0 
L 628 4666 
z
" transform="scale(0.015625)"/>
      </defs>
      <use xlink:href="#DejaVuSans-50"/>
      <use xlink:href="#DejaVuSans-72" x="58.552734"/>
      <use xlink:href="#DejaVuSans-65" x="97.416016"/>
      <use xlink:href="#DejaVuSans-64" x="158.939453"/>
      <use xlink:href="#DejaVuSans-69" x="222.416016"/>
      <use xlink:href="#DejaVuSans-63" x="250.199219"/>
      <use xlink:href="#DejaVuSans-74" x="305.179688"/>
      <use xlink:href="#DejaVuSans-20" x="344.388672"/>
      <use xlink:href="#DejaVuSans-56" x="376.175781"/>
      <use xlink:href="#DejaVuSans-61" x="436.833984"/>
      <use xlink:href="#DejaVuSans-6c" x="498.113281"/>
      <use xlink:href="#DejaVuSans-75" x="525.896484"/>
      <use xlink:href="#DejaVuSans-65" x="589.275391"/>
     </g>
    </g>
   </g>
  </g>
 </g>
 <defs>
  <clipPath id="p611a53081a">
   <rect x="46.0125" y="35.7555" width="1339.2" height="332.64"/>
  </clipPath>
 </defs>
</svg>
