<?xml version="1.0" encoding="utf-8" standalone="no"?>
<!DOCTYPE svg PUBLIC "-//W3C//DTD SVG 1.1//EN"
  "http://www.w3.org/Graphics/SVG/1.1/DTD/svg11.dtd">
<svg xmlns:xlink="http://www.w3.org/1999/xlink" width="1400.792187pt" height="392.273625pt" viewBox="0 0 1400.792187 392.273625" xmlns="http://www.w3.org/2000/svg" version="1.1">
 <metadata>
  <rdf:RDF xmlns:dc="http://purl.org/dc/elements/1.1/" xmlns:cc="http://creativecommons.org/ns#" xmlns:rdf="http://www.w3.org/1999/02/22-rdf-syntax-ns#">
   <cc:Work>
    <dc:type rdf:resource="http://purl.org/dc/dcmitype/StillImage"/>
    <dc:date>2022-06-30T17:25:01.713668</dc:date>
    <dc:format>image/svg+xml</dc:format>
    <dc:creator>
     <cc:Agent>
      <dc:title>Matplotlib v3.5.2, https://matplotlib.org/</dc:title>
     </cc:Agent>
    </dc:creator>
   </cc:Work>
  </rdf:RDF>
 </metadata>
 <defs>
  <style type="text/css">*{stroke-linejoin: round; stroke-linecap: butt}</style>
 </defs>
 <g id="figure_1">
  <g id="patch_1">
   <path d="M 0 392.273625 
L 1400.792187 392.273625 
L 1400.792187 0 
L 0 0 
z
" style="fill: #ffffff"/>
  </g>
  <g id="axes_1">
   <g id="patch_2">
    <path d="M 54.392188 368.3955 
L 1393.592188 368.3955 
L 1393.592188 35.7555 
L 54.392188 35.7555 
z
" style="fill: #ffffff"/>
   </g>
   <g id="matplotlib.axis_1">
    <g id="xtick_1">
     <g id="line2d_1">
      <defs>
       <path id="mc86c38bd5d" d="M 0 0 
L 0 3.5 
" style="stroke: #000000; stroke-width: 0.8"/>
      </defs>
      <g>
       <use xlink:href="#mc86c38bd5d" x="85.537945" y="368.3955" style="stroke: #000000; stroke-width: 0.8"/>
      </g>
     </g>
     <g id="text_1">
      <!-- 2020-01 -->
      <g transform="translate(64.646538 382.993937)scale(0.1 -0.1)">
       <defs>
        <path id="DejaVuSans-32" d="M 1228 531 
L 3431 531 
L 3431 0 
L 469 0 
L 469 531 
Q 828 903 1448 1529 
Q 2069 2156 2228 2338 
Q 2531 2678 2651 2914 
Q 2772 3150 2772 3378 
Q 2772 3750 2511 3984 
Q 2250 4219 1831 4219 
Q 1534 4219 1204 4116 
Q 875 4013 500 3803 
L 500 4441 
Q 881 4594 1212 4672 
Q 1544 4750 1819 4750 
Q 2544 4750 2975 4387 
Q 3406 4025 3406 3419 
Q 3406 3131 3298 2873 
Q 3191 2616 2906 2266 
Q 2828 2175 2409 1742 
Q 1991 1309 1228 531 
z
" transform="scale(0.015625)"/>
        <path id="DejaVuSans-30" d="M 2034 4250 
Q 1547 4250 1301 3770 
Q 1056 3291 1056 2328 
Q 1056 1369 1301 889 
Q 1547 409 2034 409 
Q 2525 409 2770 889 
Q 3016 1369 3016 2328 
Q 3016 3291 2770 3770 
Q 2525 4250 2034 4250 
z
M 2034 4750 
Q 2819 4750 3233 4129 
Q 3647 3509 3647 2328 
Q 3647 1150 3233 529 
Q 2819 -91 2034 -91 
Q 1250 -91 836 529 
Q 422 1150 422 2328 
Q 422 3509 836 4129 
Q 1250 4750 2034 4750 
z
" transform="scale(0.015625)"/>
        <path id="DejaVuSans-2d" d="M 313 2009 
L 1997 2009 
L 1997 1497 
L 313 1497 
L 313 2009 
z
" transform="scale(0.015625)"/>
        <path id="DejaVuSans-31" d="M 794 531 
L 1825 531 
L 1825 4091 
L 703 3866 
L 703 4441 
L 1819 4666 
L 2450 4666 
L 2450 531 
L 3481 531 
L 3481 0 
L 794 0 
L 794 531 
z
" transform="scale(0.015625)"/>
       </defs>
       <use xlink:href="#DejaVuSans-32"/>
       <use xlink:href="#DejaVuSans-30" x="63.623047"/>
       <use xlink:href="#DejaVuSans-32" x="127.246094"/>
       <use xlink:href="#DejaVuSans-30" x="190.869141"/>
       <use xlink:href="#DejaVuSans-2d" x="254.492188"/>
       <use xlink:href="#DejaVuSans-30" x="290.576172"/>
       <use xlink:href="#DejaVuSans-31" x="354.199219"/>
      </g>
     </g>
    </g>
    <g id="xtick_2">
     <g id="line2d_2">
      <g>
       <use xlink:href="#mc86c38bd5d" x="208.499503" y="368.3955" style="stroke: #000000; stroke-width: 0.8"/>
      </g>
     </g>
     <g id="text_2">
      <!-- 2020-04 -->
      <g transform="translate(187.608096 382.993937)scale(0.1 -0.1)">
       <defs>
        <path id="DejaVuSans-34" d="M 2419 4116 
L 825 1625 
L 2419 1625 
L 2419 4116 
z
M 2253 4666 
L 3047 4666 
L 3047 1625 
L 3713 1625 
L 3713 1100 
L 3047 1100 
L 3047 0 
L 2419 0 
L 2419 1100 
L 313 1100 
L 313 1709 
L 2253 4666 
z
" transform="scale(0.015625)"/>
       </defs>
       <use xlink:href="#DejaVuSans-32"/>
       <use xlink:href="#DejaVuSans-30" x="63.623047"/>
       <use xlink:href="#DejaVuSans-32" x="127.246094"/>
       <use xlink:href="#DejaVuSans-30" x="190.869141"/>
       <use xlink:href="#DejaVuSans-2d" x="254.492188"/>
       <use xlink:href="#DejaVuSans-30" x="290.576172"/>
       <use xlink:href="#DejaVuSans-34" x="354.199219"/>
      </g>
     </g>
    </g>
    <g id="xtick_3">
     <g id="line2d_3">
      <g>
       <use xlink:href="#mc86c38bd5d" x="331.46106" y="368.3955" style="stroke: #000000; stroke-width: 0.8"/>
      </g>
     </g>
     <g id="text_3">
      <!-- 2020-07 -->
      <g transform="translate(310.569654 382.993937)scale(0.1 -0.1)">
       <defs>
        <path id="DejaVuSans-37" d="M 525 4666 
L 3525 4666 
L 3525 4397 
L 1831 0 
L 1172 0 
L 2766 4134 
L 525 4134 
L 525 4666 
z
" transform="scale(0.015625)"/>
       </defs>
       <use xlink:href="#DejaVuSans-32"/>
       <use xlink:href="#DejaVuSans-30" x="63.623047"/>
       <use xlink:href="#DejaVuSans-32" x="127.246094"/>
       <use xlink:href="#DejaVuSans-30" x="190.869141"/>
       <use xlink:href="#DejaVuSans-2d" x="254.492188"/>
       <use xlink:href="#DejaVuSans-30" x="290.576172"/>
       <use xlink:href="#DejaVuSans-37" x="354.199219"/>
      </g>
     </g>
    </g>
    <g id="xtick_4">
     <g id="line2d_4">
      <g>
       <use xlink:href="#mc86c38bd5d" x="455.773844" y="368.3955" style="stroke: #000000; stroke-width: 0.8"/>
      </g>
     </g>
     <g id="text_4">
      <!-- 2020-10 -->
      <g transform="translate(434.882438 382.993937)scale(0.1 -0.1)">
       <use xlink:href="#DejaVuSans-32"/>
       <use xlink:href="#DejaVuSans-30" x="63.623047"/>
       <use xlink:href="#DejaVuSans-32" x="127.246094"/>
       <use xlink:href="#DejaVuSans-30" x="190.869141"/>
       <use xlink:href="#DejaVuSans-2d" x="254.492188"/>
       <use xlink:href="#DejaVuSans-31" x="290.576172"/>
       <use xlink:href="#DejaVuSans-30" x="354.199219"/>
      </g>
     </g>
    </g>
    <g id="xtick_5">
     <g id="line2d_5">
      <g>
       <use xlink:href="#mc86c38bd5d" x="580.086628" y="368.3955" style="stroke: #000000; stroke-width: 0.8"/>
      </g>
     </g>
     <g id="text_5">
      <!-- 2021-01 -->
      <g transform="translate(559.195222 382.993937)scale(0.1 -0.1)">
       <use xlink:href="#DejaVuSans-32"/>
       <use xlink:href="#DejaVuSans-30" x="63.623047"/>
       <use xlink:href="#DejaVuSans-32" x="127.246094"/>
       <use xlink:href="#DejaVuSans-31" x="190.869141"/>
       <use xlink:href="#DejaVuSans-2d" x="254.492188"/>
       <use xlink:href="#DejaVuSans-30" x="290.576172"/>
       <use xlink:href="#DejaVuSans-31" x="354.199219"/>
      </g>
     </g>
    </g>
    <g id="xtick_6">
     <g id="line2d_6">
      <g>
       <use xlink:href="#mc86c38bd5d" x="701.69696" y="368.3955" style="stroke: #000000; stroke-width: 0.8"/>
      </g>
     </g>
     <g id="text_6">
      <!-- 2021-04 -->
      <g transform="translate(680.805554 382.993937)scale(0.1 -0.1)">
       <use xlink:href="#DejaVuSans-32"/>
       <use xlink:href="#DejaVuSans-30" x="63.623047"/>
       <use xlink:href="#DejaVuSans-32" x="127.246094"/>
       <use xlink:href="#DejaVuSans-31" x="190.869141"/>
       <use xlink:href="#DejaVuSans-2d" x="254.492188"/>
       <use xlink:href="#DejaVuSans-30" x="290.576172"/>
       <use xlink:href="#DejaVuSans-34" x="354.199219"/>
      </g>
     </g>
    </g>
    <g id="xtick_7">
     <g id="line2d_7">
      <g>
       <use xlink:href="#mc86c38bd5d" x="824.658518" y="368.3955" style="stroke: #000000; stroke-width: 0.8"/>
      </g>
     </g>
     <g id="text_7">
      <!-- 2021-07 -->
      <g transform="translate(803.767112 382.993937)scale(0.1 -0.1)">
       <use xlink:href="#DejaVuSans-32"/>
       <use xlink:href="#DejaVuSans-30" x="63.623047"/>
       <use xlink:href="#DejaVuSans-32" x="127.246094"/>
       <use xlink:href="#DejaVuSans-31" x="190.869141"/>
       <use xlink:href="#DejaVuSans-2d" x="254.492188"/>
       <use xlink:href="#DejaVuSans-30" x="290.576172"/>
       <use xlink:href="#DejaVuSans-37" x="354.199219"/>
      </g>
     </g>
    </g>
    <g id="xtick_8">
     <g id="line2d_8">
      <g>
       <use xlink:href="#mc86c38bd5d" x="948.971302" y="368.3955" style="stroke: #000000; stroke-width: 0.8"/>
      </g>
     </g>
     <g id="text_8">
      <!-- 2021-10 -->
      <g transform="translate(928.079895 382.993937)scale(0.1 -0.1)">
       <use xlink:href="#DejaVuSans-32"/>
       <use xlink:href="#DejaVuSans-30" x="63.623047"/>
       <use xlink:href="#DejaVuSans-32" x="127.246094"/>
       <use xlink:href="#DejaVuSans-31" x="190.869141"/>
       <use xlink:href="#DejaVuSans-2d" x="254.492188"/>
       <use xlink:href="#DejaVuSans-31" x="290.576172"/>
       <use xlink:href="#DejaVuSans-30" x="354.199219"/>
      </g>
     </g>
    </g>
    <g id="xtick_9">
     <g id="line2d_9">
      <g>
       <use xlink:href="#mc86c38bd5d" x="1073.284085" y="368.3955" style="stroke: #000000; stroke-width: 0.8"/>
      </g>
     </g>
     <g id="text_9">
      <!-- 2022-01 -->
      <g transform="translate(1052.392679 382.993937)scale(0.1 -0.1)">
       <use xlink:href="#DejaVuSans-32"/>
       <use xlink:href="#DejaVuSans-30" x="63.623047"/>
       <use xlink:href="#DejaVuSans-32" x="127.246094"/>
       <use xlink:href="#DejaVuSans-32" x="190.869141"/>
       <use xlink:href="#DejaVuSans-2d" x="254.492188"/>
       <use xlink:href="#DejaVuSans-30" x="290.576172"/>
       <use xlink:href="#DejaVuSans-31" x="354.199219"/>
      </g>
     </g>
    </g>
    <g id="xtick_10">
     <g id="line2d_10">
      <g>
       <use xlink:href="#mc86c38bd5d" x="1194.894417" y="368.3955" style="stroke: #000000; stroke-width: 0.8"/>
      </g>
     </g>
     <g id="text_10">
      <!-- 2022-04 -->
      <g transform="translate(1174.003011 382.993937)scale(0.1 -0.1)">
       <use xlink:href="#DejaVuSans-32"/>
       <use xlink:href="#DejaVuSans-30" x="63.623047"/>
       <use xlink:href="#DejaVuSans-32" x="127.246094"/>
       <use xlink:href="#DejaVuSans-32" x="190.869141"/>
       <use xlink:href="#DejaVuSans-2d" x="254.492188"/>
       <use xlink:href="#DejaVuSans-30" x="290.576172"/>
       <use xlink:href="#DejaVuSans-34" x="354.199219"/>
      </g>
     </g>
    </g>
    <g id="xtick_11">
     <g id="line2d_11">
      <g>
       <use xlink:href="#mc86c38bd5d" x="1317.855975" y="368.3955" style="stroke: #000000; stroke-width: 0.8"/>
      </g>
     </g>
     <g id="text_11">
      <!-- 2022-07 -->
      <g transform="translate(1296.964569 382.993937)scale(0.1 -0.1)">
       <use xlink:href="#DejaVuSans-32"/>
       <use xlink:href="#DejaVuSans-30" x="63.623047"/>
       <use xlink:href="#DejaVuSans-32" x="127.246094"/>
       <use xlink:href="#DejaVuSans-32" x="190.869141"/>
       <use xlink:href="#DejaVuSans-2d" x="254.492188"/>
       <use xlink:href="#DejaVuSans-30" x="290.576172"/>
       <use xlink:href="#DejaVuSans-37" x="354.199219"/>
      </g>
     </g>
    </g>
   </g>
   <g id="matplotlib.axis_2">
    <g id="ytick_1">
     <g id="line2d_12">
      <defs>
       <path id="m0e38e5e879" d="M 0 0 
L -3.5 0 
" style="stroke: #000000; stroke-width: 0.8"/>
      </defs>
      <g>
       <use xlink:href="#m0e38e5e879" x="54.392188" y="359.359806" style="stroke: #000000; stroke-width: 0.8"/>
      </g>
     </g>
     <g id="text_12">
      <!-- −10000 -->
      <g transform="translate(7.2 363.159025)scale(0.1 -0.1)">
       <defs>
        <path id="DejaVuSans-2212" d="M 678 2272 
L 4684 2272 
L 4684 1741 
L 678 1741 
L 678 2272 
z
" transform="scale(0.015625)"/>
       </defs>
       <use xlink:href="#DejaVuSans-2212"/>
       <use xlink:href="#DejaVuSans-31" x="83.789062"/>
       <use xlink:href="#DejaVuSans-30" x="147.412109"/>
       <use xlink:href="#DejaVuSans-30" x="211.035156"/>
       <use xlink:href="#DejaVuSans-30" x="274.658203"/>
       <use xlink:href="#DejaVuSans-30" x="338.28125"/>
      </g>
     </g>
    </g>
    <g id="ytick_2">
     <g id="line2d_13">
      <g>
       <use xlink:href="#m0e38e5e879" x="54.392188" y="309.488443" style="stroke: #000000; stroke-width: 0.8"/>
      </g>
     </g>
     <g id="text_13">
      <!-- 0 -->
      <g transform="translate(41.029688 313.287662)scale(0.1 -0.1)">
       <use xlink:href="#DejaVuSans-30"/>
      </g>
     </g>
    </g>
    <g id="ytick_3">
     <g id="line2d_14">
      <g>
       <use xlink:href="#m0e38e5e879" x="54.392188" y="259.617079" style="stroke: #000000; stroke-width: 0.8"/>
      </g>
     </g>
     <g id="text_14">
      <!-- 10000 -->
      <g transform="translate(15.579688 263.416298)scale(0.1 -0.1)">
       <use xlink:href="#DejaVuSans-31"/>
       <use xlink:href="#DejaVuSans-30" x="63.623047"/>
       <use xlink:href="#DejaVuSans-30" x="127.246094"/>
       <use xlink:href="#DejaVuSans-30" x="190.869141"/>
       <use xlink:href="#DejaVuSans-30" x="254.492188"/>
      </g>
     </g>
    </g>
    <g id="ytick_4">
     <g id="line2d_15">
      <g>
       <use xlink:href="#m0e38e5e879" x="54.392188" y="209.745716" style="stroke: #000000; stroke-width: 0.8"/>
      </g>
     </g>
     <g id="text_15">
      <!-- 20000 -->
      <g transform="translate(15.579688 213.544934)scale(0.1 -0.1)">
       <use xlink:href="#DejaVuSans-32"/>
       <use xlink:href="#DejaVuSans-30" x="63.623047"/>
       <use xlink:href="#DejaVuSans-30" x="127.246094"/>
       <use xlink:href="#DejaVuSans-30" x="190.869141"/>
       <use xlink:href="#DejaVuSans-30" x="254.492188"/>
      </g>
     </g>
    </g>
    <g id="ytick_5">
     <g id="line2d_16">
      <g>
       <use xlink:href="#m0e38e5e879" x="54.392188" y="159.874352" style="stroke: #000000; stroke-width: 0.8"/>
      </g>
     </g>
     <g id="text_16">
      <!-- 30000 -->
      <g transform="translate(15.579688 163.673571)scale(0.1 -0.1)">
       <defs>
        <path id="DejaVuSans-33" d="M 2597 2516 
Q 3050 2419 3304 2112 
Q 3559 1806 3559 1356 
Q 3559 666 3084 287 
Q 2609 -91 1734 -91 
Q 1441 -91 1130 -33 
Q 819 25 488 141 
L 488 750 
Q 750 597 1062 519 
Q 1375 441 1716 441 
Q 2309 441 2620 675 
Q 2931 909 2931 1356 
Q 2931 1769 2642 2001 
Q 2353 2234 1838 2234 
L 1294 2234 
L 1294 2753 
L 1863 2753 
Q 2328 2753 2575 2939 
Q 2822 3125 2822 3475 
Q 2822 3834 2567 4026 
Q 2313 4219 1838 4219 
Q 1578 4219 1281 4162 
Q 984 4106 628 3988 
L 628 4550 
Q 988 4650 1302 4700 
Q 1616 4750 1894 4750 
Q 2613 4750 3031 4423 
Q 3450 4097 3450 3541 
Q 3450 3153 3228 2886 
Q 3006 2619 2597 2516 
z
" transform="scale(0.015625)"/>
       </defs>
       <use xlink:href="#DejaVuSans-33"/>
       <use xlink:href="#DejaVuSans-30" x="63.623047"/>
       <use xlink:href="#DejaVuSans-30" x="127.246094"/>
       <use xlink:href="#DejaVuSans-30" x="190.869141"/>
       <use xlink:href="#DejaVuSans-30" x="254.492188"/>
      </g>
     </g>
    </g>
    <g id="ytick_6">
     <g id="line2d_17">
      <g>
       <use xlink:href="#m0e38e5e879" x="54.392188" y="110.002989" style="stroke: #000000; stroke-width: 0.8"/>
      </g>
     </g>
     <g id="text_17">
      <!-- 40000 -->
      <g transform="translate(15.579688 113.802207)scale(0.1 -0.1)">
       <use xlink:href="#DejaVuSans-34"/>
       <use xlink:href="#DejaVuSans-30" x="63.623047"/>
       <use xlink:href="#DejaVuSans-30" x="127.246094"/>
       <use xlink:href="#DejaVuSans-30" x="190.869141"/>
       <use xlink:href="#DejaVuSans-30" x="254.492188"/>
      </g>
     </g>
    </g>
    <g id="ytick_7">
     <g id="line2d_18">
      <g>
       <use xlink:href="#m0e38e5e879" x="54.392188" y="60.131625" style="stroke: #000000; stroke-width: 0.8"/>
      </g>
     </g>
     <g id="text_18">
      <!-- 50000 -->
      <g transform="translate(15.579688 63.930844)scale(0.1 -0.1)">
       <defs>
        <path id="DejaVuSans-35" d="M 691 4666 
L 3169 4666 
L 3169 4134 
L 1269 4134 
L 1269 2991 
Q 1406 3038 1543 3061 
Q 1681 3084 1819 3084 
Q 2600 3084 3056 2656 
Q 3513 2228 3513 1497 
Q 3513 744 3044 326 
Q 2575 -91 1722 -91 
Q 1428 -91 1123 -41 
Q 819 9 494 109 
L 494 744 
Q 775 591 1075 516 
Q 1375 441 1709 441 
Q 2250 441 2565 725 
Q 2881 1009 2881 1497 
Q 2881 1984 2565 2268 
Q 2250 2553 1709 2553 
Q 1456 2553 1204 2497 
Q 953 2441 691 2322 
L 691 4666 
z
" transform="scale(0.015625)"/>
       </defs>
       <use xlink:href="#DejaVuSans-35"/>
       <use xlink:href="#DejaVuSans-30" x="63.623047"/>
       <use xlink:href="#DejaVuSans-30" x="127.246094"/>
       <use xlink:href="#DejaVuSans-30" x="190.869141"/>
       <use xlink:href="#DejaVuSans-30" x="254.492188"/>
      </g>
     </g>
    </g>
   </g>
   <g id="line2d_19">
    <path d="M 115.264915 309.488443 
L 189.58234 309.438571 
L 192.284792 309.35379 
L 197.689695 309.119395 
L 199.040921 308.620681 
L 200.392147 308.979755 
L 203.094599 308.904948 
L 204.445825 309.094459 
L 205.797051 308.884999 
L 207.148277 309.17924 
L 208.499503 308.929884 
L 209.850729 308.510964 
L 211.201954 308.316466 
L 212.55318 308.884999 
L 213.904406 308.600733 
L 215.255632 308.620681 
L 219.30931 307.792816 
L 220.660536 308.700475 
L 223.362988 307.887572 
L 224.714214 308.476054 
L 226.065439 308.635642 
L 227.416665 308.161865 
L 228.767891 308.700475 
L 230.119117 309.029626 
L 231.470343 308.336414 
L 232.821569 308.540887 
L 234.172795 308.565823 
L 236.875247 308.052148 
L 238.226473 308.456106 
L 240.928924 308.580784 
L 242.28015 308.486028 
L 243.631376 308.760321 
L 244.982602 308.496003 
L 246.333828 308.695488 
L 249.03628 308.226697 
L 251.738732 308.107006 
L 253.089958 308.36135 
L 254.441184 307.907521 
L 255.792409 308.246646 
L 257.143635 307.762894 
L 261.197313 308.181813 
L 263.899765 307.972353 
L 265.250991 308.211736 
L 266.602217 307.797804 
L 272.00712 307.987315 
L 273.358346 307.558421 
L 274.709572 307.688087 
L 276.060798 307.47364 
L 277.412024 307.673125 
L 278.76325 307.623254 
L 280.114476 307.752919 
L 281.465702 306.331585 
L 282.816928 306.546032 
L 284.168154 307.673125 
L 285.51938 307.064695 
L 286.870605 306.930042 
L 288.221831 307.358936 
L 289.573057 306.940016 
L 290.924283 307.867623 
L 292.275509 308.446131 
L 293.626735 308.391273 
L 294.977961 307.952405 
L 296.329187 306.256778 
L 297.680413 307.269167 
L 299.031639 307.383871 
L 301.73409 306.665724 
L 303.085316 305.374055 
L 304.436542 305.942589 
L 305.787768 304.326757 
L 307.138994 304.705779 
L 308.49022 305.408965 
L 309.841446 307.97734 
L 311.192672 306.750505 
L 312.543898 304.96511 
L 315.24635 306.750505 
L 316.597575 307.204334 
L 317.948801 307.29909 
L 319.300027 306.251791 
L 320.651253 303.912824 
L 322.002479 304.556165 
L 324.704931 304.386602 
L 326.056157 308.590758 
L 327.407383 302.406709 
L 328.758609 304.072413 
L 330.109835 305.059866 
L 331.46106 303.653493 
L 332.812286 301.045221 
L 334.163512 304.925213 
L 335.514738 304.695805 
L 336.865964 305.468811 
L 338.21719 304.950149 
L 339.568416 302.426658 
L 340.919642 300.50661 
L 342.270868 301.77833 
L 343.622094 301.339462 
L 344.97332 302.142391 
L 346.324545 299.6189 
L 347.675771 302.571285 
L 349.026997 298.935662 
L 350.378223 299.963012 
L 351.729449 299.843321 
L 353.080675 299.394479 
L 354.431901 299.369543 
L 355.783127 301.748407 
L 357.134353 301.992777 
L 358.485579 302.685989 
L 359.836805 299.544093 
L 361.188031 299.060341 
L 362.539256 298.965585 
L 363.890482 302.541362 
L 365.241708 300.711083 
L 366.592934 302.965268 
L 367.94416 302.296992 
L 369.295386 299.743578 
L 370.646612 299.454324 
L 371.997838 301.49905 
L 373.349064 299.349595 
L 374.70029 303.708352 
L 376.051516 304.281872 
L 377.402741 304.725728 
L 378.753967 300.182446 
L 380.105193 300.905581 
L 381.456419 300.257253 
L 382.807645 304.705779 
L 384.158871 301.449179 
L 385.510097 304.875342 
L 386.861323 304.032516 
L 388.212549 305.827885 
L 389.563775 305.713181 
L 390.915001 303.90285 
L 392.266226 305.34912 
L 393.617452 305.792975 
L 394.968678 302.381774 
L 396.319904 302.890461 
L 397.67113 303.099921 
L 399.022356 304.296834 
L 400.373582 302.132417 
L 401.724808 306.511122 
L 403.076034 306.117139 
L 404.42726 306.695646 
L 405.778486 298.791035 
L 407.129711 300.940491 
L 408.480937 303.818069 
L 409.832163 300.322086 
L 411.183389 303.124857 
L 412.534615 305.553592 
L 413.885841 301.728459 
L 415.237067 305.827885 
L 416.588293 304.471384 
L 417.939519 304.576113 
L 419.290745 303.76321 
L 420.641971 306.790402 
L 421.993196 305.618425 
L 423.344422 306.840273 
L 426.046874 304.222027 
L 427.3981 304.117297 
L 428.749326 304.655908 
L 430.100552 304.207065 
L 431.451778 306.022383 
L 432.803004 305.708193 
L 434.15423 304.296834 
L 435.505456 305.683258 
L 438.207907 302.935346 
L 439.559133 305.448862 
L 440.910359 305.763052 
L 442.261585 305.114724 
L 443.612811 306.211894 
L 444.964037 304.311795 
L 446.315263 297.688878 
L 447.666489 304.620998 
L 449.017715 305.867782 
L 450.368941 306.301663 
L 451.720167 305.768039 
L 453.071392 303.334317 
L 454.422618 303.563725 
L 455.773844 304.725728 
L 457.12507 301.134989 
L 458.476296 305.603464 
L 459.827522 306.815338 
L 462.529974 304.456422 
L 463.8812 306.496161 
L 465.232426 301.518999 
L 467.934877 305.493747 
L 469.286103 305.917653 
L 470.637329 304.002593 
L 471.988555 305.089789 
L 473.339781 303.384188 
L 474.691007 303.379201 
L 476.042233 302.94532 
L 477.393459 304.601049 
L 478.744685 305.17457 
L 480.095911 304.122284 
L 481.447137 303.843004 
L 482.798362 302.531388 
L 484.149588 290.377736 
L 485.500814 298.865842 
L 486.85204 303.184702 
L 488.203266 305.039917 
L 489.554492 303.429072 
L 490.905718 302.860539 
L 492.256944 301.967841 
L 493.60817 302.815654 
L 494.959396 300.416842 
L 496.310622 301.105067 
L 497.661847 305.274313 
L 499.013073 303.334317 
L 500.364299 300.451752 
L 501.715525 302.391748 
L 503.066751 301.504038 
L 504.417977 301.494063 
L 507.120429 303.768197 
L 508.471655 300.222343 
L 509.822881 309.293944 
L 511.174107 299.140135 
L 512.525332 299.51417 
L 513.876558 294.626776 
L 515.227784 298.387077 
L 516.57901 299.6189 
L 517.930236 302.456581 
L 519.281462 301.42923 
L 520.632688 296.332377 
L 521.983914 297.399624 
L 523.33514 297.205126 
L 524.686366 297.843479 
L 526.037592 300.521572 
L 527.388818 301.63869 
L 528.740043 295.599268 
L 530.091269 297.254997 
L 531.442495 296.32739 
L 532.793721 304.915239 
L 534.144947 298.920701 
L 535.496173 298.337206 
L 536.847399 298.042965 
L 538.198625 292.65187 
L 539.549851 289.898971 
L 540.901077 291.878864 
L 542.252303 290.337839 
L 543.603528 292.582051 
L 544.954754 298.077875 
L 546.30598 297.758698 
L 547.657206 287.365506 
L 549.008432 291.923749 
L 550.359658 285.874352 
L 551.710884 290.273006 
L 553.06211 289.210746 
L 554.413336 295.574332 
L 555.764562 298.197566 
L 557.115788 291.345241 
L 558.467013 289.006274 
L 559.818239 286.073838 
L 561.169465 282.817238 
L 562.520691 288.43774 
L 563.871917 296.781219 
L 565.223143 297.619058 
L 566.574369 284.657491 
L 567.925595 285.759648 
L 569.276821 288.382882 
L 570.628047 291.410074 
L 571.979273 304.341718 
L 573.330498 298.666357 
L 574.681724 298.17263 
L 576.03295 290.003701 
L 577.384176 284.472967 
L 578.735402 287.51512 
L 580.086628 286.941599 
L 581.437854 290.98118 
L 582.78908 297.140293 
L 584.140306 298.711241 
L 585.491532 282.069167 
L 586.842758 286.5925 
L 588.193983 284.323353 
L 589.545209 284.268494 
L 590.896435 285.235999 
L 592.247661 295.773818 
L 593.598887 299.015456 
L 594.950113 290.297942 
L 596.301339 293.793925 
L 597.652565 291.594598 
L 599.003791 294.801326 
L 600.355017 293.764002 
L 601.706243 299.928102 
L 603.057469 302.356838 
L 604.408694 296.945795 
L 605.75992 293.968474 
L 607.111146 295.120503 
L 608.462372 291.779122 
L 609.813598 292.7566 
L 611.164824 300.870671 
L 612.51605 300.317099 
L 613.867276 295.025747 
L 615.218502 293.644311 
L 616.569728 291.295369 
L 617.920954 295.285078 
L 619.272179 309.488443 
L 620.623405 289.255631 
L 621.974631 303.399149 
L 623.325857 299.125173 
L 624.677083 298.925688 
L 626.028309 295.689037 
L 627.379535 302.027687 
L 628.730761 299.554067 
L 630.081987 303.942747 
L 631.433213 304.875342 
L 632.784439 302.915397 
L 635.48689 301.992777 
L 636.838116 304.017554 
L 638.189342 303.558738 
L 639.540568 304.127271 
L 640.891794 306.127113 
L 642.24302 305.084801 
L 643.594246 306.102177 
L 644.945472 303.513853 
L 646.296698 305.264338 
L 647.647924 305.628399 
L 648.999149 305.214467 
L 650.350375 306.112151 
L 651.701601 302.242134 
L 653.052827 303.269484 
L 654.404053 305.049891 
L 655.755279 305.802949 
L 657.106505 305.329171 
L 658.457731 306.650762 
L 659.808957 306.910093 
L 661.160183 306.23683 
L 662.511409 295.858599 
L 663.862634 304.890303 
L 665.21386 305.443875 
L 666.565086 306.875183 
L 669.267538 308.126955 
L 671.96999 305.588502 
L 673.321216 305.17457 
L 674.672442 307.254206 
L 676.023668 306.526084 
L 677.374894 307.653177 
L 678.726119 286.76705 
L 680.077345 307.05472 
L 681.428571 305.703206 
L 682.779797 306.635801 
L 685.482249 306.954978 
L 686.833475 307.628241 
L 688.184701 307.897546 
L 689.535927 309.438571 
L 690.887153 304.890303 
L 692.238379 307.358936 
L 693.589605 307.284129 
L 694.94083 307.034772 
L 696.292056 307.897546 
L 697.643282 308.351376 
L 698.994508 307.688087 
L 700.345734 307.453691 
L 701.69696 307.104592 
L 703.048186 307.493588 
L 704.399412 307.747932 
L 705.750638 308.520938 
L 707.101864 308.944845 
L 708.45309 308.510964 
L 711.155541 307.174412 
L 712.506767 307.902533 
L 713.857993 307.722997 
L 715.209219 307.937443 
L 716.560445 308.630655 
L 717.911671 302.346864 
L 719.262897 308.107006 
L 720.614123 307.388858 
L 721.965349 307.383871 
L 723.316575 306.954978 
L 724.6678 308.141916 
L 726.019026 308.934871 
L 727.370252 302.292005 
L 728.721478 307.433743 
L 730.072704 306.087216 
L 731.42393 307.353948 
L 732.775156 307.388858 
L 734.126382 308.32644 
L 735.477608 308.406234 
L 736.828834 307.698061 
L 738.18006 307.61328 
L 739.531285 307.343974 
L 742.233737 307.558421 
L 744.936189 308.555848 
L 746.287415 309.488443 
L 747.638641 306.186959 
L 748.989867 306.670711 
L 750.341093 307.922482 
L 751.692319 307.398833 
L 753.043545 308.271582 
L 754.39477 308.959806 
L 755.745996 307.942431 
L 757.097222 307.757906 
L 758.448448 303.783159 
L 759.799674 284.961706 
L 761.1509 299.434376 
L 762.502126 308.22171 
L 763.853352 308.57081 
L 765.204578 307.812765 
L 766.555804 308.052148 
L 767.90703 307.797804 
L 769.258256 307.279141 
L 770.609481 308.216723 
L 773.311933 308.830141 
L 774.663159 307.962379 
L 776.014385 308.146903 
L 777.365611 307.762894 
L 778.716837 308.351376 
L 780.068063 309.488443 
L 782.770515 309.488443 
L 784.121741 306.296676 
L 785.472966 306.730556 
L 786.824192 307.343974 
L 788.175418 306.710608 
L 789.526644 309.488443 
L 790.87787 309.488443 
L 792.229096 305.802949 
L 793.580322 308.411221 
L 794.931548 307.967366 
L 796.282774 308.042173 
L 797.634 308.550861 
L 798.985226 309.488443 
L 800.336451 309.488443 
L 801.687677 306.745518 
L 803.038903 308.042173 
L 804.390129 308.690501 
L 805.741355 309.488443 
L 807.092581 307.822739 
L 808.443807 309.488443 
L 809.795033 309.488443 
L 811.146259 307.713022 
L 812.497485 309.488443 
L 813.848711 307.588344 
L 815.199936 309.488443 
L 816.551162 306.795389 
L 817.902388 309.488443 
L 819.253614 309.488443 
L 820.60484 306.910093 
L 821.956066 309.488443 
L 823.307292 306.835286 
L 824.658518 309.488443 
L 826.009744 307.917495 
L 827.36097 309.488443 
L 831.414647 309.488443 
L 832.765873 301.444192 
L 834.117099 309.488443 
L 835.468325 303.703365 
L 836.819551 306.825312 
L 838.170777 309.488443 
L 839.522003 306.44629 
L 840.873229 309.488443 
L 842.224455 302.516426 
L 843.575681 304.675856 
L 844.926906 304.506294 
L 846.278132 304.995033 
L 847.629358 305.877756 
L 848.980584 305.907679 
L 850.33181 302.551336 
L 851.683036 301.349436 
L 853.034262 301.6736 
L 855.736714 300.072729 
L 857.08794 301.828201 
L 858.439166 302.491491 
L 859.790392 296.18775 
L 861.141617 295.893509 
L 862.492843 309.488443 
L 863.844069 309.488443 
L 865.195295 268.873204 
L 866.546521 300.521572 
L 867.897747 300.985375 
L 869.248973 292.995983 
L 870.600199 292.537166 
L 871.951425 290.452543 
L 873.302651 291.110845 
L 874.653877 290.083495 
L 876.005102 309.488443 
L 877.356328 285.166179 
L 878.707554 290.462518 
L 880.05878 290.282981 
L 881.410006 288.707046 
L 882.761232 289.609717 
L 884.112458 309.488443 
L 885.463684 274.618385 
L 886.81491 297.190165 
L 888.166136 289.425193 
L 889.517362 287.220879 
L 890.868587 290.088482 
L 892.219813 290.542312 
L 893.571039 278.518326 
L 894.922265 292.956086 
L 896.273491 296.581734 
L 897.624717 309.488443 
L 898.975943 309.488443 
L 900.327169 253.92177 
L 901.678395 284.388186 
L 903.029621 278.618069 
L 904.380847 292.367604 
L 905.732072 294.16796 
L 907.083298 283.525411 
L 908.434524 286.093786 
L 909.78575 282.996774 
L 911.136976 283.914408 
L 912.488202 287.4453 
L 913.839428 295.315001 
L 915.190654 296.691451 
L 916.54188 296.162814 
L 917.893106 285.595073 
L 919.244332 287.709618 
L 920.595557 285.550188 
L 921.946783 287.076252 
L 923.298009 300.54152 
L 924.649235 296.063072 
L 926.000461 289.819177 
L 927.351687 291.280408 
L 928.702913 289.679537 
L 930.054139 294.656699 
L 931.405365 292.222977 
L 932.756591 299.065328 
L 934.107817 299.913141 
L 935.459043 293.429864 
L 936.810268 294.437265 
L 938.161494 292.701742 
L 939.51272 296.67649 
L 940.863946 294.841223 
L 942.215172 301.344449 
L 943.566398 301.538947 
L 944.917624 299.593964 
L 946.26885 298.810984 
L 947.620076 301.000337 
L 948.971302 300.287176 
L 950.322528 302.107481 
L 951.673753 305.039917 
L 953.024979 305.81791 
L 954.376205 301.763369 
L 955.727431 303.144805 
L 957.078657 303.194677 
L 958.429883 304.256937 
L 959.781109 304.905264 
L 961.132335 306.231843 
L 962.483561 307.15945 
L 963.834787 305.06984 
L 965.186013 304.421512 
L 966.537238 304.25195 
L 967.888464 303.788146 
L 969.23969 305.563566 
L 970.590916 306.775441 
L 971.942142 307.802791 
L 973.293368 304.695805 
L 974.644594 306.171997 
L 975.99582 304.177143 
L 977.347046 301.518999 
L 978.698272 304.775599 
L 980.049498 307.423768 
L 981.400723 307.987315 
L 982.751949 304.785573 
L 984.103175 272.618544 
L 985.454401 298.810984 
L 986.805627 307.61328 
L 988.156853 307.05472 
L 989.508079 307.523511 
L 990.859305 308.406234 
L 992.210531 305.773026 
L 993.561757 307.074669 
L 994.912983 304.057451 
L 996.264208 306.620839 
L 997.615434 306.580942 
L 998.96666 308.032199 
L 1000.317886 308.376311 
L 1001.669112 304.526242 
L 1003.020338 308.600733 
L 1004.371564 306.067267 
L 1005.72279 305.88773 
L 1007.074016 306.496161 
L 1008.425242 308.196774 
L 1009.776468 308.201762 
L 1011.127694 306.785415 
L 1012.478919 307.014823 
L 1015.181371 307.129527 
L 1016.532597 306.09719 
L 1017.883823 308.131942 
L 1019.235049 308.226697 
L 1020.586275 306.401405 
L 1021.937501 307.413794 
L 1023.288727 307.503563 
L 1024.639953 309.488443 
L 1025.991179 307.708035 
L 1027.342404 308.705462 
L 1028.69363 308.610707 
L 1030.044856 307.109579 
L 1031.396082 306.815338 
L 1032.747308 305.663309 
L 1034.098534 306.521097 
L 1036.800986 307.688087 
L 1038.152212 308.087057 
L 1039.503438 306.346547 
L 1040.854664 306.06228 
L 1042.205889 306.750505 
L 1043.557115 306.536058 
L 1044.908341 305.932615 
L 1046.259567 307.842688 
L 1047.610793 308.022225 
L 1048.962019 301.234732 
L 1050.313245 306.261766 
L 1051.664471 305.41894 
L 1053.015697 304.960123 
L 1054.366923 306.037344 
L 1055.718149 306.735544 
L 1057.069374 306.735544 
L 1058.4206 303.234574 
L 1059.771826 302.207224 
L 1061.123052 299.214942 
L 1062.474278 297.190165 
L 1063.825504 297.274946 
L 1065.17673 305.184544 
L 1066.527956 301.115041 
L 1067.879182 291.011103 
L 1070.581634 268.314645 
L 1071.932859 269.337008 
L 1073.284085 309.488443 
L 1074.635311 245.019731 
L 1075.986537 289.230695 
L 1078.688989 254.255908 
L 1080.040215 246.520859 
L 1081.391441 244.79531 
L 1082.742667 267.935623 
L 1084.093893 247.388621 
L 1085.445119 278.318841 
L 1086.796344 266.918247 
L 1088.14757 253.612567 
L 1089.498796 309.488443 
L 1092.201248 309.488443 
L 1093.552474 50.8755 
L 1094.9037 269.302098 
L 1096.254926 275.934989 
L 1097.606152 224.178488 
L 1098.957378 229.764081 
L 1100.308604 227.076015 
L 1101.65983 227.17077 
L 1103.011055 260.579597 
L 1104.362281 279.790046 
L 1105.713507 265.701386 
L 1107.064733 353.2755 
L 1108.415959 309.488443 
L 1109.767185 97.993964 
L 1111.118411 255.87174 
L 1112.469637 277.121928 
L 1113.820863 282.263665 
L 1115.172089 281.365981 
L 1116.523315 282.537958 
L 1117.87454 309.488443 
L 1119.225766 253.652464 
L 1120.576992 299.893192 
L 1121.928218 309.488443 
L 1123.279444 292.2529 
L 1124.63067 287.011419 
L 1125.981896 291.290382 
L 1127.333122 295.958342 
L 1128.684348 295.349911 
L 1130.035574 297.329804 
L 1131.3868 304.232001 
L 1132.738025 305.877756 
L 1134.089251 298.83592 
L 1135.440477 299.638849 
L 1136.791703 298.975559 
L 1138.142929 302.306966 
L 1139.494155 303.738275 
L 1140.845381 307.074669 
L 1142.196607 307.533485 
L 1143.547833 306.301663 
L 1144.899059 303.344291 
L 1146.250285 303.379201 
L 1147.60151 303.219612 
L 1148.952736 303.65848 
L 1150.303962 307.703048 
L 1151.655188 308.486028 
L 1153.006414 305.568554 
L 1154.35764 303.209638 
L 1155.708866 305.688245 
L 1157.060092 306.630814 
L 1158.411318 309.488443 
L 1159.762544 309.488443 
L 1161.11377 290.986167 
L 1162.464995 306.34156 
L 1163.816221 306.815338 
L 1165.167447 306.336573 
L 1166.518673 306.770453 
L 1167.869899 309.488443 
L 1169.221125 309.488443 
L 1170.572351 306.940016 
L 1171.923577 308.406234 
L 1173.274803 307.304077 
L 1174.626029 306.860222 
L 1175.977255 307.024797 
L 1177.328481 309.488443 
L 1178.679706 309.488443 
L 1180.030932 307.618267 
L 1181.382158 308.491016 
L 1182.733384 308.565823 
L 1184.08461 307.503563 
L 1185.435836 308.670552 
L 1186.787062 309.488443 
L 1188.138288 309.488443 
L 1189.489514 299.394479 
L 1190.84074 308.072096 
L 1192.191966 308.226697 
L 1193.543191 308.201762 
L 1194.894417 309.358777 
L 1196.245643 308.914922 
L 1197.596869 309.488443 
L 1198.948095 307.373897 
L 1200.299321 308.306491 
L 1204.352999 308.630655 
L 1205.704225 309.488443 
L 1207.055451 309.488443 
L 1208.406676 307.688087 
L 1209.757902 308.421196 
L 1211.109128 308.71045 
L 1213.81158 308.391273 
L 1215.162806 309.488443 
L 1216.514032 309.488443 
L 1217.865258 304.660895 
L 1219.216484 311.30376 
L 1220.56771 308.725411 
L 1221.918936 308.22171 
L 1223.270161 308.206749 
L 1224.621387 309.488443 
L 1225.972613 309.488443 
L 1227.323839 306.102177 
L 1228.675065 308.191787 
L 1230.026291 308.481041 
L 1231.377517 308.32644 
L 1232.728743 308.381299 
L 1234.079969 309.488443 
L 1235.431195 309.488443 
L 1236.782421 307.304077 
L 1238.133646 308.032199 
L 1239.484872 307.782842 
L 1240.836098 307.742945 
L 1242.187324 308.281556 
L 1243.53855 309.488443 
L 1244.889776 309.488443 
L 1246.241002 306.755492 
L 1247.592228 307.014823 
L 1248.943454 307.523511 
L 1250.29468 307.214309 
L 1251.645906 307.398833 
L 1252.997132 309.488443 
L 1254.348357 309.488443 
L 1255.699583 304.725728 
L 1257.050809 307.239244 
L 1259.753261 306.351534 
L 1261.104487 306.536058 
L 1262.455713 309.488443 
L 1263.806939 309.488443 
L 1265.158165 302.995191 
L 1266.509391 306.705621 
L 1267.860617 305.648348 
L 1269.211842 305.159608 
L 1270.563068 304.222027 
L 1271.914294 309.488443 
L 1274.616746 309.488443 
L 1275.967972 296.890936 
L 1277.319198 304.645933 
L 1278.670424 304.027528 
L 1280.02165 309.488443 
L 1282.724102 309.488443 
L 1284.075327 291.140768 
L 1285.426553 303.583673 
L 1286.777779 304.177143 
L 1288.129005 303.399149 
L 1289.480231 303.58866 
L 1290.831457 309.488443 
L 1292.182683 309.488443 
L 1293.533909 294.726519 
L 1294.885135 301.977815 
L 1296.236361 301.384346 
L 1297.587587 301.085118 
L 1298.938812 300.292163 
L 1300.290038 309.488443 
L 1301.641264 309.488443 
L 1302.99249 293.549555 
L 1304.343716 299.848308 
L 1305.694942 299.314685 
L 1307.046168 299.100238 
L 1308.397394 299.33962 
L 1309.74862 309.488443 
L 1311.099846 309.488443 
L 1312.451072 287.210905 
L 1313.802297 298.616486 
L 1315.153523 297.394637 
L 1315.153523 297.394637 
" clip-path="url(#pd6e19f1311)" style="fill: none; stroke: #0000ff; stroke-width: 1.5; stroke-linecap: square"/>
   </g>
   <g id="line2d_20">
    <path d="M 1075.986537 285.544434 
L 1077.337763 282.239426 
L 1078.688989 277.002439 
L 1080.040215 272.979613 
L 1081.391441 274.201338 
L 1082.742667 265.043283 
L 1084.093893 268.289284 
L 1085.445119 267.604059 
L 1086.796344 265.473985 
L 1088.14757 263.04227 
L 1089.498796 269.178594 
L 1090.850022 276.999712 
L 1092.201248 279.906672 
L 1093.552474 251.67041 
L 1094.9037 252.906908 
L 1096.254926 254.63937 
L 1097.606152 257.642618 
L 1100.308604 249.881505 
L 1101.65983 214.179966 
L 1103.011055 247.830236 
L 1104.362281 253.208049 
L 1105.713507 248.543551 
L 1107.064733 262.717037 
L 1108.415959 268.792598 
L 1109.767185 245.396488 
L 1111.118411 255.199436 
L 1112.469637 257.185636 
L 1113.820863 258.716578 
L 1115.172089 273.734817 
L 1116.523315 269.418577 
L 1117.87454 248.154144 
L 1119.225766 268.914766 
L 1121.928218 280.343265 
L 1123.279444 282.106554 
L 1124.63067 281.418806 
L 1125.981896 286.890277 
L 1127.333122 284.450032 
L 1128.684348 289.27166 
L 1130.035574 291.387004 
L 1131.3868 290.866417 
L 1132.738025 292.246285 
L 1134.089251 293.865725 
L 1138.142929 296.437302 
L 1140.845381 299.904598 
L 1142.196607 300.145467 
L 1143.547833 301.001662 
L 1144.899059 301.230288 
L 1146.250285 301.898108 
L 1147.60151 302.282553 
L 1148.952736 302.799648 
L 1151.655188 304.102646 
L 1154.35764 303.845241 
L 1155.708866 304.030733 
L 1157.060092 304.417528 
L 1158.411318 305.584665 
L 1159.762544 306.220401 
L 1161.11377 303.766282 
L 1162.464995 303.868469 
L 1163.816221 304.5851 
L 1165.167447 304.95355 
L 1166.518673 305.561384 
L 1167.869899 306.040725 
L 1169.221125 304.156032 
L 1170.572351 306.530587 
L 1171.923577 306.87996 
L 1174.626029 306.879755 
L 1178.679706 307.766591 
L 1181.382158 307.639566 
L 1184.08461 307.70896 
L 1185.435836 308.115326 
L 1186.787062 308.302849 
L 1188.138288 308.231594 
L 1189.489514 307.137638 
L 1190.84074 307.294575 
L 1192.191966 307.293396 
L 1196.245643 308.02153 
L 1197.596869 306.973071 
L 1198.948095 308.112943 
L 1201.650547 308.201732 
L 1203.001773 308.362761 
L 1204.352999 308.334539 
L 1205.704225 308.565613 
L 1207.055451 308.582676 
L 1208.406676 308.44058 
L 1212.460354 308.5039 
L 1215.162806 308.717407 
L 1216.514032 308.60893 
L 1217.865258 308.162371 
L 1219.216484 308.629057 
L 1223.270161 308.623202 
L 1224.621387 308.743138 
L 1225.972613 308.260685 
L 1227.323839 308.794333 
L 1228.675065 308.380304 
L 1231.377517 308.332817 
L 1234.079969 308.623614 
L 1235.431195 308.387216 
L 1239.484872 308.326423 
L 1240.836098 308.253185 
L 1243.53855 308.531152 
L 1246.241002 308.272793 
L 1247.592228 308.058538 
L 1250.29468 307.943629 
L 1251.645906 308.006396 
L 1252.997132 308.209829 
L 1254.348357 308.06831 
L 1255.699583 307.633225 
L 1257.050809 307.648895 
L 1259.753261 307.347613 
L 1261.104487 307.483651 
L 1262.455713 307.758841 
L 1265.158165 307.139208 
L 1267.860617 306.776219 
L 1269.211842 306.575821 
L 1270.563068 306.595595 
L 1271.914294 306.992685 
L 1273.26552 306.583635 
L 1274.616746 307.412685 
L 1275.967972 305.843121 
L 1277.319198 305.622865 
L 1278.670424 305.282308 
L 1280.02165 306.483761 
L 1282.724102 307.347304 
L 1284.075327 303.47133 
L 1285.426553 304.485629 
L 1286.777779 304.371986 
L 1288.129005 304.946066 
L 1289.480231 304.680632 
L 1290.831457 305.340582 
L 1292.182683 303.572175 
L 1293.533909 304.144509 
L 1297.587587 302.995115 
L 1298.938812 303.381956 
L 1300.290038 304.22017 
L 1301.641264 303.368481 
L 1302.99249 302.713368 
L 1307.046168 301.355944 
L 1308.397394 302.148797 
L 1309.74862 303.156282 
L 1311.099846 302.204735 
L 1312.451072 300.857194 
L 1315.153523 300.041893 
L 1315.153523 300.041893 
" clip-path="url(#pd6e19f1311)" style="fill: none; stroke: #ffa500; stroke-width: 1.5; stroke-linecap: square"/>
   </g>
   <g id="line2d_21">
    <path d="M 1315.153523 300.041893 
L 1316.504749 300.083921 
L 1317.855975 301.234771 
L 1319.207201 301.234771 
L 1320.558427 298.641734 
L 1321.909653 299.997394 
L 1323.260879 299.849986 
L 1324.612105 300.188562 
L 1325.963331 300.188562 
L 1327.314557 300.188562 
L 1328.665782 300.188562 
L 1330.017008 300.188562 
L 1331.368234 300.188562 
L 1332.71946 300.188562 
" clip-path="url(#pd6e19f1311)" style="fill: none; stroke: #ff0000; stroke-width: 1.5; stroke-linecap: square"/>
   </g>
   <g id="patch_3">
    <path d="M 54.392188 368.3955 
L 54.392188 35.7555 
" style="fill: none; stroke: #000000; stroke-width: 0.8; stroke-linejoin: miter; stroke-linecap: square"/>
   </g>
   <g id="patch_4">
    <path d="M 1393.592188 368.3955 
L 1393.592188 35.7555 
" style="fill: none; stroke: #000000; stroke-width: 0.8; stroke-linejoin: miter; stroke-linecap: square"/>
   </g>
   <g id="patch_5">
    <path d="M 54.392187 368.3955 
L 1393.592187 368.3955 
" style="fill: none; stroke: #000000; stroke-width: 0.8; stroke-linejoin: miter; stroke-linecap: square"/>
   </g>
   <g id="patch_6">
    <path d="M 54.392187 35.7555 
L 1393.592187 35.7555 
" style="fill: none; stroke: #000000; stroke-width: 0.8; stroke-linejoin: miter; stroke-linecap: square"/>
   </g>
   <g id="text_19">
    <!-- Daily Confirmed Cases Forecasting - Alabama -->
    <g transform="translate(587.036562 16.318125)scale(0.12 -0.12)">
     <defs>
      <path id="DejaVuSans-44" d="M 1259 4147 
L 1259 519 
L 2022 519 
Q 2988 519 3436 956 
Q 3884 1394 3884 2338 
Q 3884 3275 3436 3711 
Q 2988 4147 2022 4147 
L 1259 4147 
z
M 628 4666 
L 1925 4666 
Q 3281 4666 3915 4102 
Q 4550 3538 4550 2338 
Q 4550 1131 3912 565 
Q 3275 0 1925 0 
L 628 0 
L 628 4666 
z
" transform="scale(0.015625)"/>
      <path id="DejaVuSans-61" d="M 2194 1759 
Q 1497 1759 1228 1600 
Q 959 1441 959 1056 
Q 959 750 1161 570 
Q 1363 391 1709 391 
Q 2188 391 2477 730 
Q 2766 1069 2766 1631 
L 2766 1759 
L 2194 1759 
z
M 3341 1997 
L 3341 0 
L 2766 0 
L 2766 531 
Q 2569 213 2275 61 
Q 1981 -91 1556 -91 
Q 1019 -91 701 211 
Q 384 513 384 1019 
Q 384 1609 779 1909 
Q 1175 2209 1959 2209 
L 2766 2209 
L 2766 2266 
Q 2766 2663 2505 2880 
Q 2244 3097 1772 3097 
Q 1472 3097 1187 3025 
Q 903 2953 641 2809 
L 641 3341 
Q 956 3463 1253 3523 
Q 1550 3584 1831 3584 
Q 2591 3584 2966 3190 
Q 3341 2797 3341 1997 
z
" transform="scale(0.015625)"/>
      <path id="DejaVuSans-69" d="M 603 3500 
L 1178 3500 
L 1178 0 
L 603 0 
L 603 3500 
z
M 603 4863 
L 1178 4863 
L 1178 4134 
L 603 4134 
L 603 4863 
z
" transform="scale(0.015625)"/>
      <path id="DejaVuSans-6c" d="M 603 4863 
L 1178 4863 
L 1178 0 
L 603 0 
L 603 4863 
z
" transform="scale(0.015625)"/>
      <path id="DejaVuSans-79" d="M 2059 -325 
Q 1816 -950 1584 -1140 
Q 1353 -1331 966 -1331 
L 506 -1331 
L 506 -850 
L 844 -850 
Q 1081 -850 1212 -737 
Q 1344 -625 1503 -206 
L 1606 56 
L 191 3500 
L 800 3500 
L 1894 763 
L 2988 3500 
L 3597 3500 
L 2059 -325 
z
" transform="scale(0.015625)"/>
      <path id="DejaVuSans-20" transform="scale(0.015625)"/>
      <path id="DejaVuSans-43" d="M 4122 4306 
L 4122 3641 
Q 3803 3938 3442 4084 
Q 3081 4231 2675 4231 
Q 1875 4231 1450 3742 
Q 1025 3253 1025 2328 
Q 1025 1406 1450 917 
Q 1875 428 2675 428 
Q 3081 428 3442 575 
Q 3803 722 4122 1019 
L 4122 359 
Q 3791 134 3420 21 
Q 3050 -91 2638 -91 
Q 1578 -91 968 557 
Q 359 1206 359 2328 
Q 359 3453 968 4101 
Q 1578 4750 2638 4750 
Q 3056 4750 3426 4639 
Q 3797 4528 4122 4306 
z
" transform="scale(0.015625)"/>
      <path id="DejaVuSans-6f" d="M 1959 3097 
Q 1497 3097 1228 2736 
Q 959 2375 959 1747 
Q 959 1119 1226 758 
Q 1494 397 1959 397 
Q 2419 397 2687 759 
Q 2956 1122 2956 1747 
Q 2956 2369 2687 2733 
Q 2419 3097 1959 3097 
z
M 1959 3584 
Q 2709 3584 3137 3096 
Q 3566 2609 3566 1747 
Q 3566 888 3137 398 
Q 2709 -91 1959 -91 
Q 1206 -91 779 398 
Q 353 888 353 1747 
Q 353 2609 779 3096 
Q 1206 3584 1959 3584 
z
" transform="scale(0.015625)"/>
      <path id="DejaVuSans-6e" d="M 3513 2113 
L 3513 0 
L 2938 0 
L 2938 2094 
Q 2938 2591 2744 2837 
Q 2550 3084 2163 3084 
Q 1697 3084 1428 2787 
Q 1159 2491 1159 1978 
L 1159 0 
L 581 0 
L 581 3500 
L 1159 3500 
L 1159 2956 
Q 1366 3272 1645 3428 
Q 1925 3584 2291 3584 
Q 2894 3584 3203 3211 
Q 3513 2838 3513 2113 
z
" transform="scale(0.015625)"/>
      <path id="DejaVuSans-66" d="M 2375 4863 
L 2375 4384 
L 1825 4384 
Q 1516 4384 1395 4259 
Q 1275 4134 1275 3809 
L 1275 3500 
L 2222 3500 
L 2222 3053 
L 1275 3053 
L 1275 0 
L 697 0 
L 697 3053 
L 147 3053 
L 147 3500 
L 697 3500 
L 697 3744 
Q 697 4328 969 4595 
Q 1241 4863 1831 4863 
L 2375 4863 
z
" transform="scale(0.015625)"/>
      <path id="DejaVuSans-72" d="M 2631 2963 
Q 2534 3019 2420 3045 
Q 2306 3072 2169 3072 
Q 1681 3072 1420 2755 
Q 1159 2438 1159 1844 
L 1159 0 
L 581 0 
L 581 3500 
L 1159 3500 
L 1159 2956 
Q 1341 3275 1631 3429 
Q 1922 3584 2338 3584 
Q 2397 3584 2469 3576 
Q 2541 3569 2628 3553 
L 2631 2963 
z
" transform="scale(0.015625)"/>
      <path id="DejaVuSans-6d" d="M 3328 2828 
Q 3544 3216 3844 3400 
Q 4144 3584 4550 3584 
Q 5097 3584 5394 3201 
Q 5691 2819 5691 2113 
L 5691 0 
L 5113 0 
L 5113 2094 
Q 5113 2597 4934 2840 
Q 4756 3084 4391 3084 
Q 3944 3084 3684 2787 
Q 3425 2491 3425 1978 
L 3425 0 
L 2847 0 
L 2847 2094 
Q 2847 2600 2669 2842 
Q 2491 3084 2119 3084 
Q 1678 3084 1418 2786 
Q 1159 2488 1159 1978 
L 1159 0 
L 581 0 
L 581 3500 
L 1159 3500 
L 1159 2956 
Q 1356 3278 1631 3431 
Q 1906 3584 2284 3584 
Q 2666 3584 2933 3390 
Q 3200 3197 3328 2828 
z
" transform="scale(0.015625)"/>
      <path id="DejaVuSans-65" d="M 3597 1894 
L 3597 1613 
L 953 1613 
Q 991 1019 1311 708 
Q 1631 397 2203 397 
Q 2534 397 2845 478 
Q 3156 559 3463 722 
L 3463 178 
Q 3153 47 2828 -22 
Q 2503 -91 2169 -91 
Q 1331 -91 842 396 
Q 353 884 353 1716 
Q 353 2575 817 3079 
Q 1281 3584 2069 3584 
Q 2775 3584 3186 3129 
Q 3597 2675 3597 1894 
z
M 3022 2063 
Q 3016 2534 2758 2815 
Q 2500 3097 2075 3097 
Q 1594 3097 1305 2825 
Q 1016 2553 972 2059 
L 3022 2063 
z
" transform="scale(0.015625)"/>
      <path id="DejaVuSans-64" d="M 2906 2969 
L 2906 4863 
L 3481 4863 
L 3481 0 
L 2906 0 
L 2906 525 
Q 2725 213 2448 61 
Q 2172 -91 1784 -91 
Q 1150 -91 751 415 
Q 353 922 353 1747 
Q 353 2572 751 3078 
Q 1150 3584 1784 3584 
Q 2172 3584 2448 3432 
Q 2725 3281 2906 2969 
z
M 947 1747 
Q 947 1113 1208 752 
Q 1469 391 1925 391 
Q 2381 391 2643 752 
Q 2906 1113 2906 1747 
Q 2906 2381 2643 2742 
Q 2381 3103 1925 3103 
Q 1469 3103 1208 2742 
Q 947 2381 947 1747 
z
" transform="scale(0.015625)"/>
      <path id="DejaVuSans-73" d="M 2834 3397 
L 2834 2853 
Q 2591 2978 2328 3040 
Q 2066 3103 1784 3103 
Q 1356 3103 1142 2972 
Q 928 2841 928 2578 
Q 928 2378 1081 2264 
Q 1234 2150 1697 2047 
L 1894 2003 
Q 2506 1872 2764 1633 
Q 3022 1394 3022 966 
Q 3022 478 2636 193 
Q 2250 -91 1575 -91 
Q 1294 -91 989 -36 
Q 684 19 347 128 
L 347 722 
Q 666 556 975 473 
Q 1284 391 1588 391 
Q 1994 391 2212 530 
Q 2431 669 2431 922 
Q 2431 1156 2273 1281 
Q 2116 1406 1581 1522 
L 1381 1569 
Q 847 1681 609 1914 
Q 372 2147 372 2553 
Q 372 3047 722 3315 
Q 1072 3584 1716 3584 
Q 2034 3584 2315 3537 
Q 2597 3491 2834 3397 
z
" transform="scale(0.015625)"/>
      <path id="DejaVuSans-46" d="M 628 4666 
L 3309 4666 
L 3309 4134 
L 1259 4134 
L 1259 2759 
L 3109 2759 
L 3109 2228 
L 1259 2228 
L 1259 0 
L 628 0 
L 628 4666 
z
" transform="scale(0.015625)"/>
      <path id="DejaVuSans-63" d="M 3122 3366 
L 3122 2828 
Q 2878 2963 2633 3030 
Q 2388 3097 2138 3097 
Q 1578 3097 1268 2742 
Q 959 2388 959 1747 
Q 959 1106 1268 751 
Q 1578 397 2138 397 
Q 2388 397 2633 464 
Q 2878 531 3122 666 
L 3122 134 
Q 2881 22 2623 -34 
Q 2366 -91 2075 -91 
Q 1284 -91 818 406 
Q 353 903 353 1747 
Q 353 2603 823 3093 
Q 1294 3584 2113 3584 
Q 2378 3584 2631 3529 
Q 2884 3475 3122 3366 
z
" transform="scale(0.015625)"/>
      <path id="DejaVuSans-74" d="M 1172 4494 
L 1172 3500 
L 2356 3500 
L 2356 3053 
L 1172 3053 
L 1172 1153 
Q 1172 725 1289 603 
Q 1406 481 1766 481 
L 2356 481 
L 2356 0 
L 1766 0 
Q 1100 0 847 248 
Q 594 497 594 1153 
L 594 3053 
L 172 3053 
L 172 3500 
L 594 3500 
L 594 4494 
L 1172 4494 
z
" transform="scale(0.015625)"/>
      <path id="DejaVuSans-67" d="M 2906 1791 
Q 2906 2416 2648 2759 
Q 2391 3103 1925 3103 
Q 1463 3103 1205 2759 
Q 947 2416 947 1791 
Q 947 1169 1205 825 
Q 1463 481 1925 481 
Q 2391 481 2648 825 
Q 2906 1169 2906 1791 
z
M 3481 434 
Q 3481 -459 3084 -895 
Q 2688 -1331 1869 -1331 
Q 1566 -1331 1297 -1286 
Q 1028 -1241 775 -1147 
L 775 -588 
Q 1028 -725 1275 -790 
Q 1522 -856 1778 -856 
Q 2344 -856 2625 -561 
Q 2906 -266 2906 331 
L 2906 616 
Q 2728 306 2450 153 
Q 2172 0 1784 0 
Q 1141 0 747 490 
Q 353 981 353 1791 
Q 353 2603 747 3093 
Q 1141 3584 1784 3584 
Q 2172 3584 2450 3431 
Q 2728 3278 2906 2969 
L 2906 3500 
L 3481 3500 
L 3481 434 
z
" transform="scale(0.015625)"/>
      <path id="DejaVuSans-41" d="M 2188 4044 
L 1331 1722 
L 3047 1722 
L 2188 4044 
z
M 1831 4666 
L 2547 4666 
L 4325 0 
L 3669 0 
L 3244 1197 
L 1141 1197 
L 716 0 
L 50 0 
L 1831 4666 
z
" transform="scale(0.015625)"/>
      <path id="DejaVuSans-62" d="M 3116 1747 
Q 3116 2381 2855 2742 
Q 2594 3103 2138 3103 
Q 1681 3103 1420 2742 
Q 1159 2381 1159 1747 
Q 1159 1113 1420 752 
Q 1681 391 2138 391 
Q 2594 391 2855 752 
Q 3116 1113 3116 1747 
z
M 1159 2969 
Q 1341 3281 1617 3432 
Q 1894 3584 2278 3584 
Q 2916 3584 3314 3078 
Q 3713 2572 3713 1747 
Q 3713 922 3314 415 
Q 2916 -91 2278 -91 
Q 1894 -91 1617 61 
Q 1341 213 1159 525 
L 1159 0 
L 581 0 
L 581 4863 
L 1159 4863 
L 1159 2969 
z
" transform="scale(0.015625)"/>
     </defs>
     <use xlink:href="#DejaVuSans-44"/>
     <use xlink:href="#DejaVuSans-61" x="77.001953"/>
     <use xlink:href="#DejaVuSans-69" x="138.28125"/>
     <use xlink:href="#DejaVuSans-6c" x="166.064453"/>
     <use xlink:href="#DejaVuSans-79" x="193.847656"/>
     <use xlink:href="#DejaVuSans-20" x="253.027344"/>
     <use xlink:href="#DejaVuSans-43" x="284.814453"/>
     <use xlink:href="#DejaVuSans-6f" x="354.638672"/>
     <use xlink:href="#DejaVuSans-6e" x="415.820312"/>
     <use xlink:href="#DejaVuSans-66" x="479.199219"/>
     <use xlink:href="#DejaVuSans-69" x="514.404297"/>
     <use xlink:href="#DejaVuSans-72" x="542.1875"/>
     <use xlink:href="#DejaVuSans-6d" x="581.550781"/>
     <use xlink:href="#DejaVuSans-65" x="678.962891"/>
     <use xlink:href="#DejaVuSans-64" x="740.486328"/>
     <use xlink:href="#DejaVuSans-20" x="803.962891"/>
     <use xlink:href="#DejaVuSans-43" x="835.75"/>
     <use xlink:href="#DejaVuSans-61" x="905.574219"/>
     <use xlink:href="#DejaVuSans-73" x="966.853516"/>
     <use xlink:href="#DejaVuSans-65" x="1018.953125"/>
     <use xlink:href="#DejaVuSans-73" x="1080.476562"/>
     <use xlink:href="#DejaVuSans-20" x="1132.576172"/>
     <use xlink:href="#DejaVuSans-46" x="1164.363281"/>
     <use xlink:href="#DejaVuSans-6f" x="1218.257812"/>
     <use xlink:href="#DejaVuSans-72" x="1279.439453"/>
     <use xlink:href="#DejaVuSans-65" x="1318.302734"/>
     <use xlink:href="#DejaVuSans-63" x="1379.826172"/>
     <use xlink:href="#DejaVuSans-61" x="1434.806641"/>
     <use xlink:href="#DejaVuSans-73" x="1496.085938"/>
     <use xlink:href="#DejaVuSans-74" x="1548.185547"/>
     <use xlink:href="#DejaVuSans-69" x="1587.394531"/>
     <use xlink:href="#DejaVuSans-6e" x="1615.177734"/>
     <use xlink:href="#DejaVuSans-67" x="1678.556641"/>
     <use xlink:href="#DejaVuSans-20" x="1742.033203"/>
     <use xlink:href="#DejaVuSans-2d" x="1773.820312"/>
     <use xlink:href="#DejaVuSans-20" x="1809.904297"/>
     <use xlink:href="#DejaVuSans-41" x="1841.691406"/>
     <use xlink:href="#DejaVuSans-6c" x="1910.099609"/>
     <use xlink:href="#DejaVuSans-61" x="1937.882812"/>
     <use xlink:href="#DejaVuSans-62" x="1999.162109"/>
     <use xlink:href="#DejaVuSans-61" x="2062.638672"/>
     <use xlink:href="#DejaVuSans-6d" x="2123.917969"/>
     <use xlink:href="#DejaVuSans-61" x="2221.330078"/>
    </g>
    <!-- ARIMA (0, 1, 1)x(0, 0, 1, 7) (R2 = 0.429430) -->
    <g transform="translate(592.008125 29.7555)scale(0.12 -0.12)">
     <defs>
      <path id="DejaVuSans-52" d="M 2841 2188 
Q 3044 2119 3236 1894 
Q 3428 1669 3622 1275 
L 4263 0 
L 3584 0 
L 2988 1197 
Q 2756 1666 2539 1819 
Q 2322 1972 1947 1972 
L 1259 1972 
L 1259 0 
L 628 0 
L 628 4666 
L 2053 4666 
Q 2853 4666 3247 4331 
Q 3641 3997 3641 3322 
Q 3641 2881 3436 2590 
Q 3231 2300 2841 2188 
z
M 1259 4147 
L 1259 2491 
L 2053 2491 
Q 2509 2491 2742 2702 
Q 2975 2913 2975 3322 
Q 2975 3731 2742 3939 
Q 2509 4147 2053 4147 
L 1259 4147 
z
" transform="scale(0.015625)"/>
      <path id="DejaVuSans-49" d="M 628 4666 
L 1259 4666 
L 1259 0 
L 628 0 
L 628 4666 
z
" transform="scale(0.015625)"/>
      <path id="DejaVuSans-4d" d="M 628 4666 
L 1569 4666 
L 2759 1491 
L 3956 4666 
L 4897 4666 
L 4897 0 
L 4281 0 
L 4281 4097 
L 3078 897 
L 2444 897 
L 1241 4097 
L 1241 0 
L 628 0 
L 628 4666 
z
" transform="scale(0.015625)"/>
      <path id="DejaVuSans-28" d="M 1984 4856 
Q 1566 4138 1362 3434 
Q 1159 2731 1159 2009 
Q 1159 1288 1364 580 
Q 1569 -128 1984 -844 
L 1484 -844 
Q 1016 -109 783 600 
Q 550 1309 550 2009 
Q 550 2706 781 3412 
Q 1013 4119 1484 4856 
L 1984 4856 
z
" transform="scale(0.015625)"/>
      <path id="DejaVuSans-2c" d="M 750 794 
L 1409 794 
L 1409 256 
L 897 -744 
L 494 -744 
L 750 256 
L 750 794 
z
" transform="scale(0.015625)"/>
      <path id="DejaVuSans-29" d="M 513 4856 
L 1013 4856 
Q 1481 4119 1714 3412 
Q 1947 2706 1947 2009 
Q 1947 1309 1714 600 
Q 1481 -109 1013 -844 
L 513 -844 
Q 928 -128 1133 580 
Q 1338 1288 1338 2009 
Q 1338 2731 1133 3434 
Q 928 4138 513 4856 
z
" transform="scale(0.015625)"/>
      <path id="DejaVuSans-78" d="M 3513 3500 
L 2247 1797 
L 3578 0 
L 2900 0 
L 1881 1375 
L 863 0 
L 184 0 
L 1544 1831 
L 300 3500 
L 978 3500 
L 1906 2253 
L 2834 3500 
L 3513 3500 
z
" transform="scale(0.015625)"/>
      <path id="DejaVuSans-3d" d="M 678 2906 
L 4684 2906 
L 4684 2381 
L 678 2381 
L 678 2906 
z
M 678 1631 
L 4684 1631 
L 4684 1100 
L 678 1100 
L 678 1631 
z
" transform="scale(0.015625)"/>
      <path id="DejaVuSans-2e" d="M 684 794 
L 1344 794 
L 1344 0 
L 684 0 
L 684 794 
z
" transform="scale(0.015625)"/>
      <path id="DejaVuSans-39" d="M 703 97 
L 703 672 
Q 941 559 1184 500 
Q 1428 441 1663 441 
Q 2288 441 2617 861 
Q 2947 1281 2994 2138 
Q 2813 1869 2534 1725 
Q 2256 1581 1919 1581 
Q 1219 1581 811 2004 
Q 403 2428 403 3163 
Q 403 3881 828 4315 
Q 1253 4750 1959 4750 
Q 2769 4750 3195 4129 
Q 3622 3509 3622 2328 
Q 3622 1225 3098 567 
Q 2575 -91 1691 -91 
Q 1453 -91 1209 -44 
Q 966 3 703 97 
z
M 1959 2075 
Q 2384 2075 2632 2365 
Q 2881 2656 2881 3163 
Q 2881 3666 2632 3958 
Q 2384 4250 1959 4250 
Q 1534 4250 1286 3958 
Q 1038 3666 1038 3163 
Q 1038 2656 1286 2365 
Q 1534 2075 1959 2075 
z
" transform="scale(0.015625)"/>
     </defs>
     <use xlink:href="#DejaVuSans-41"/>
     <use xlink:href="#DejaVuSans-52" x="68.408203"/>
     <use xlink:href="#DejaVuSans-49" x="137.890625"/>
     <use xlink:href="#DejaVuSans-4d" x="167.382812"/>
     <use xlink:href="#DejaVuSans-41" x="253.662109"/>
     <use xlink:href="#DejaVuSans-20" x="322.070312"/>
     <use xlink:href="#DejaVuSans-28" x="353.857422"/>
     <use xlink:href="#DejaVuSans-30" x="392.871094"/>
     <use xlink:href="#DejaVuSans-2c" x="456.494141"/>
     <use xlink:href="#DejaVuSans-20" x="488.28125"/>
     <use xlink:href="#DejaVuSans-31" x="520.068359"/>
     <use xlink:href="#DejaVuSans-2c" x="583.691406"/>
     <use xlink:href="#DejaVuSans-20" x="615.478516"/>
     <use xlink:href="#DejaVuSans-31" x="647.265625"/>
     <use xlink:href="#DejaVuSans-29" x="710.888672"/>
     <use xlink:href="#DejaVuSans-78" x="749.902344"/>
     <use xlink:href="#DejaVuSans-28" x="809.082031"/>
     <use xlink:href="#DejaVuSans-30" x="848.095703"/>
     <use xlink:href="#DejaVuSans-2c" x="911.71875"/>
     <use xlink:href="#DejaVuSans-20" x="943.505859"/>
     <use xlink:href="#DejaVuSans-30" x="975.292969"/>
     <use xlink:href="#DejaVuSans-2c" x="1038.916016"/>
     <use xlink:href="#DejaVuSans-20" x="1070.703125"/>
     <use xlink:href="#DejaVuSans-31" x="1102.490234"/>
     <use xlink:href="#DejaVuSans-2c" x="1166.113281"/>
     <use xlink:href="#DejaVuSans-20" x="1197.900391"/>
     <use xlink:href="#DejaVuSans-37" x="1229.6875"/>
     <use xlink:href="#DejaVuSans-29" x="1293.310547"/>
     <use xlink:href="#DejaVuSans-20" x="1332.324219"/>
     <use xlink:href="#DejaVuSans-28" x="1364.111328"/>
     <use xlink:href="#DejaVuSans-52" x="1403.125"/>
     <use xlink:href="#DejaVuSans-32" x="1472.607422"/>
     <use xlink:href="#DejaVuSans-20" x="1536.230469"/>
     <use xlink:href="#DejaVuSans-3d" x="1568.017578"/>
     <use xlink:href="#DejaVuSans-20" x="1651.806641"/>
     <use xlink:href="#DejaVuSans-30" x="1683.59375"/>
     <use xlink:href="#DejaVuSans-2e" x="1747.216797"/>
     <use xlink:href="#DejaVuSans-34" x="1779.003906"/>
     <use xlink:href="#DejaVuSans-32" x="1842.626953"/>
     <use xlink:href="#DejaVuSans-39" x="1906.25"/>
     <use xlink:href="#DejaVuSans-34" x="1969.873047"/>
     <use xlink:href="#DejaVuSans-33" x="2033.496094"/>
     <use xlink:href="#DejaVuSans-30" x="2097.119141"/>
     <use xlink:href="#DejaVuSans-29" x="2160.742188"/>
    </g>
   </g>
   <g id="legend_1">
    <g id="patch_7">
     <path d="M 1289.5125 87.789875 
L 1386.592188 87.789875 
Q 1388.592188 87.789875 1388.592188 85.789875 
L 1388.592188 42.7555 
Q 1388.592188 40.7555 1386.592188 40.7555 
L 1289.5125 40.7555 
Q 1287.5125 40.7555 1287.5125 42.7555 
L 1287.5125 85.789875 
Q 1287.5125 87.789875 1289.5125 87.789875 
z
" style="fill: #ffffff; opacity: 0.8; stroke: #cccccc; stroke-linejoin: miter"/>
    </g>
    <g id="line2d_22">
     <path d="M 1291.5125 48.853937 
L 1301.5125 48.853937 
L 1311.5125 48.853937 
" style="fill: none; stroke: #0000ff; stroke-width: 1.5; stroke-linecap: square"/>
    </g>
    <g id="text_20">
     <!-- Actual Value -->
     <g transform="translate(1319.5125 52.353937)scale(0.1 -0.1)">
      <defs>
       <path id="DejaVuSans-75" d="M 544 1381 
L 544 3500 
L 1119 3500 
L 1119 1403 
Q 1119 906 1312 657 
Q 1506 409 1894 409 
Q 2359 409 2629 706 
Q 2900 1003 2900 1516 
L 2900 3500 
L 3475 3500 
L 3475 0 
L 2900 0 
L 2900 538 
Q 2691 219 2414 64 
Q 2138 -91 1772 -91 
Q 1169 -91 856 284 
Q 544 659 544 1381 
z
M 1991 3584 
L 1991 3584 
z
" transform="scale(0.015625)"/>
       <path id="DejaVuSans-56" d="M 1831 0 
L 50 4666 
L 709 4666 
L 2188 738 
L 3669 4666 
L 4325 4666 
L 2547 0 
L 1831 0 
z
" transform="scale(0.015625)"/>
      </defs>
      <use xlink:href="#DejaVuSans-41"/>
      <use xlink:href="#DejaVuSans-63" x="66.658203"/>
      <use xlink:href="#DejaVuSans-74" x="121.638672"/>
      <use xlink:href="#DejaVuSans-75" x="160.847656"/>
      <use xlink:href="#DejaVuSans-61" x="224.226562"/>
      <use xlink:href="#DejaVuSans-6c" x="285.505859"/>
      <use xlink:href="#DejaVuSans-20" x="313.289062"/>
      <use xlink:href="#DejaVuSans-56" x="345.076172"/>
      <use xlink:href="#DejaVuSans-61" x="405.734375"/>
      <use xlink:href="#DejaVuSans-6c" x="467.013672"/>
      <use xlink:href="#DejaVuSans-75" x="494.796875"/>
      <use xlink:href="#DejaVuSans-65" x="558.175781"/>
     </g>
    </g>
    <g id="line2d_23">
     <path d="M 1291.5125 63.532062 
L 1301.5125 63.532062 
L 1311.5125 63.532062 
" style="fill: none; stroke: #ffa500; stroke-width: 1.5; stroke-linecap: square"/>
    </g>
    <g id="text_21">
     <!-- Check Value -->
     <g transform="translate(1319.5125 67.032062)scale(0.1 -0.1)">
      <defs>
       <path id="DejaVuSans-68" d="M 3513 2113 
L 3513 0 
L 2938 0 
L 2938 2094 
Q 2938 2591 2744 2837 
Q 2550 3084 2163 3084 
Q 1697 3084 1428 2787 
Q 1159 2491 1159 1978 
L 1159 0 
L 581 0 
L 581 4863 
L 1159 4863 
L 1159 2956 
Q 1366 3272 1645 3428 
Q 1925 3584 2291 3584 
Q 2894 3584 3203 3211 
Q 3513 2838 3513 2113 
z
" transform="scale(0.015625)"/>
       <path id="DejaVuSans-6b" d="M 581 4863 
L 1159 4863 
L 1159 1991 
L 2875 3500 
L 3609 3500 
L 1753 1863 
L 3688 0 
L 2938 0 
L 1159 1709 
L 1159 0 
L 581 0 
L 581 4863 
z
" transform="scale(0.015625)"/>
      </defs>
      <use xlink:href="#DejaVuSans-43"/>
      <use xlink:href="#DejaVuSans-68" x="69.824219"/>
      <use xlink:href="#DejaVuSans-65" x="133.203125"/>
      <use xlink:href="#DejaVuSans-63" x="194.726562"/>
      <use xlink:href="#DejaVuSans-6b" x="249.707031"/>
      <use xlink:href="#DejaVuSans-20" x="307.617188"/>
      <use xlink:href="#DejaVuSans-56" x="339.404297"/>
      <use xlink:href="#DejaVuSans-61" x="400.0625"/>
      <use xlink:href="#DejaVuSans-6c" x="461.341797"/>
      <use xlink:href="#DejaVuSans-75" x="489.125"/>
      <use xlink:href="#DejaVuSans-65" x="552.503906"/>
     </g>
    </g>
    <g id="line2d_24">
     <path d="M 1291.5125 78.210187 
L 1301.5125 78.210187 
L 1311.5125 78.210187 
" style="fill: none; stroke: #ff0000; stroke-width: 1.5; stroke-linecap: square"/>
    </g>
    <g id="text_22">
     <!-- Predict Value -->
     <g transform="translate(1319.5125 81.710187)scale(0.1 -0.1)">
      <defs>
       <path id="DejaVuSans-50" d="M 1259 4147 
L 1259 2394 
L 2053 2394 
Q 2494 2394 2734 2622 
Q 2975 2850 2975 3272 
Q 2975 3691 2734 3919 
Q 2494 4147 2053 4147 
L 1259 4147 
z
M 628 4666 
L 2053 4666 
Q 2838 4666 3239 4311 
Q 3641 3956 3641 3272 
Q 3641 2581 3239 2228 
Q 2838 1875 2053 1875 
L 1259 1875 
L 1259 0 
L 628 0 
L 628 4666 
z
" transform="scale(0.015625)"/>
      </defs>
      <use xlink:href="#DejaVuSans-50"/>
      <use xlink:href="#DejaVuSans-72" x="58.552734"/>
      <use xlink:href="#DejaVuSans-65" x="97.416016"/>
      <use xlink:href="#DejaVuSans-64" x="158.939453"/>
      <use xlink:href="#DejaVuSans-69" x="222.416016"/>
      <use xlink:href="#DejaVuSans-63" x="250.199219"/>
      <use xlink:href="#DejaVuSans-74" x="305.179688"/>
      <use xlink:href="#DejaVuSans-20" x="344.388672"/>
      <use xlink:href="#DejaVuSans-56" x="376.175781"/>
      <use xlink:href="#DejaVuSans-61" x="436.833984"/>
      <use xlink:href="#DejaVuSans-6c" x="498.113281"/>
      <use xlink:href="#DejaVuSans-75" x="525.896484"/>
      <use xlink:href="#DejaVuSans-65" x="589.275391"/>
     </g>
    </g>
   </g>
  </g>
 </g>
 <defs>
  <clipPath id="pd6e19f1311">
   <rect x="54.392188" y="35.7555" width="1339.2" height="332.64"/>
  </clipPath>
 </defs>
</svg>
