<?xml version="1.0" encoding="utf-8" standalone="no"?>
<!DOCTYPE svg PUBLIC "-//W3C//DTD SVG 1.1//EN"
  "http://www.w3.org/Graphics/SVG/1.1/DTD/svg11.dtd">
<svg xmlns:xlink="http://www.w3.org/1999/xlink" width="1394.429688pt" height="392.273625pt" viewBox="0 0 1394.429688 392.273625" xmlns="http://www.w3.org/2000/svg" version="1.1">
 <metadata>
  <rdf:RDF xmlns:dc="http://purl.org/dc/elements/1.1/" xmlns:cc="http://creativecommons.org/ns#" xmlns:rdf="http://www.w3.org/1999/02/22-rdf-syntax-ns#">
   <cc:Work>
    <dc:type rdf:resource="http://purl.org/dc/dcmitype/StillImage"/>
    <dc:date>2022-06-25T17:35:25.011308</dc:date>
    <dc:format>image/svg+xml</dc:format>
    <dc:creator>
     <cc:Agent>
      <dc:title>Matplotlib v3.5.2, https://matplotlib.org/</dc:title>
     </cc:Agent>
    </dc:creator>
   </cc:Work>
  </rdf:RDF>
 </metadata>
 <defs>
  <style type="text/css">*{stroke-linejoin: round; stroke-linecap: butt}</style>
 </defs>
 <g id="figure_1">
  <g id="patch_1">
   <path d="M 0 392.273625 
L 1394.429688 392.273625 
L 1394.429688 0 
L 0 0 
z
" style="fill: #ffffff"/>
  </g>
  <g id="axes_1">
   <g id="patch_2">
    <path d="M 48.029688 368.3955 
L 1387.229688 368.3955 
L 1387.229688 35.7555 
L 48.029688 35.7555 
z
" style="fill: #ffffff"/>
   </g>
   <g id="matplotlib.axis_1">
    <g id="xtick_1">
     <g id="line2d_1">
      <defs>
       <path id="m0190259b37" d="M 0 0 
L 0 3.5 
" style="stroke: #000000; stroke-width: 0.8"/>
      </defs>
      <g>
       <use xlink:href="#m0190259b37" x="79.009558" y="368.3955" style="stroke: #000000; stroke-width: 0.8"/>
      </g>
     </g>
     <g id="text_1">
      <!-- 2020-01 -->
      <g transform="translate(58.118151 382.993937)scale(0.1 -0.1)">
       <defs>
        <path id="DejaVuSans-32" d="M 1228 531 
L 3431 531 
L 3431 0 
L 469 0 
L 469 531 
Q 828 903 1448 1529 
Q 2069 2156 2228 2338 
Q 2531 2678 2651 2914 
Q 2772 3150 2772 3378 
Q 2772 3750 2511 3984 
Q 2250 4219 1831 4219 
Q 1534 4219 1204 4116 
Q 875 4013 500 3803 
L 500 4441 
Q 881 4594 1212 4672 
Q 1544 4750 1819 4750 
Q 2544 4750 2975 4387 
Q 3406 4025 3406 3419 
Q 3406 3131 3298 2873 
Q 3191 2616 2906 2266 
Q 2828 2175 2409 1742 
Q 1991 1309 1228 531 
z
" transform="scale(0.015625)"/>
        <path id="DejaVuSans-30" d="M 2034 4250 
Q 1547 4250 1301 3770 
Q 1056 3291 1056 2328 
Q 1056 1369 1301 889 
Q 1547 409 2034 409 
Q 2525 409 2770 889 
Q 3016 1369 3016 2328 
Q 3016 3291 2770 3770 
Q 2525 4250 2034 4250 
z
M 2034 4750 
Q 2819 4750 3233 4129 
Q 3647 3509 3647 2328 
Q 3647 1150 3233 529 
Q 2819 -91 2034 -91 
Q 1250 -91 836 529 
Q 422 1150 422 2328 
Q 422 3509 836 4129 
Q 1250 4750 2034 4750 
z
" transform="scale(0.015625)"/>
        <path id="DejaVuSans-2d" d="M 313 2009 
L 1997 2009 
L 1997 1497 
L 313 1497 
L 313 2009 
z
" transform="scale(0.015625)"/>
        <path id="DejaVuSans-31" d="M 794 531 
L 1825 531 
L 1825 4091 
L 703 3866 
L 703 4441 
L 1819 4666 
L 2450 4666 
L 2450 531 
L 3481 531 
L 3481 0 
L 794 0 
L 794 531 
z
" transform="scale(0.015625)"/>
       </defs>
       <use xlink:href="#DejaVuSans-32"/>
       <use xlink:href="#DejaVuSans-30" x="63.623047"/>
       <use xlink:href="#DejaVuSans-32" x="127.246094"/>
       <use xlink:href="#DejaVuSans-30" x="190.869141"/>
       <use xlink:href="#DejaVuSans-2d" x="254.492188"/>
       <use xlink:href="#DejaVuSans-30" x="290.576172"/>
       <use xlink:href="#DejaVuSans-31" x="354.199219"/>
      </g>
     </g>
    </g>
    <g id="xtick_2">
     <g id="line2d_2">
      <g>
       <use xlink:href="#m0190259b37" x="202.657285" y="368.3955" style="stroke: #000000; stroke-width: 0.8"/>
      </g>
     </g>
     <g id="text_2">
      <!-- 2020-04 -->
      <g transform="translate(181.765879 382.993937)scale(0.1 -0.1)">
       <defs>
        <path id="DejaVuSans-34" d="M 2419 4116 
L 825 1625 
L 2419 1625 
L 2419 4116 
z
M 2253 4666 
L 3047 4666 
L 3047 1625 
L 3713 1625 
L 3713 1100 
L 3047 1100 
L 3047 0 
L 2419 0 
L 2419 1100 
L 313 1100 
L 313 1709 
L 2253 4666 
z
" transform="scale(0.015625)"/>
       </defs>
       <use xlink:href="#DejaVuSans-32"/>
       <use xlink:href="#DejaVuSans-30" x="63.623047"/>
       <use xlink:href="#DejaVuSans-32" x="127.246094"/>
       <use xlink:href="#DejaVuSans-30" x="190.869141"/>
       <use xlink:href="#DejaVuSans-2d" x="254.492188"/>
       <use xlink:href="#DejaVuSans-30" x="290.576172"/>
       <use xlink:href="#DejaVuSans-34" x="354.199219"/>
      </g>
     </g>
    </g>
    <g id="xtick_3">
     <g id="line2d_3">
      <g>
       <use xlink:href="#m0190259b37" x="326.305012" y="368.3955" style="stroke: #000000; stroke-width: 0.8"/>
      </g>
     </g>
     <g id="text_3">
      <!-- 2020-07 -->
      <g transform="translate(305.413606 382.993937)scale(0.1 -0.1)">
       <defs>
        <path id="DejaVuSans-37" d="M 525 4666 
L 3525 4666 
L 3525 4397 
L 1831 0 
L 1172 0 
L 2766 4134 
L 525 4134 
L 525 4666 
z
" transform="scale(0.015625)"/>
       </defs>
       <use xlink:href="#DejaVuSans-32"/>
       <use xlink:href="#DejaVuSans-30" x="63.623047"/>
       <use xlink:href="#DejaVuSans-32" x="127.246094"/>
       <use xlink:href="#DejaVuSans-30" x="190.869141"/>
       <use xlink:href="#DejaVuSans-2d" x="254.492188"/>
       <use xlink:href="#DejaVuSans-30" x="290.576172"/>
       <use xlink:href="#DejaVuSans-37" x="354.199219"/>
      </g>
     </g>
    </g>
    <g id="xtick_4">
     <g id="line2d_4">
      <g>
       <use xlink:href="#m0190259b37" x="451.311506" y="368.3955" style="stroke: #000000; stroke-width: 0.8"/>
      </g>
     </g>
     <g id="text_4">
      <!-- 2020-10 -->
      <g transform="translate(430.420099 382.993937)scale(0.1 -0.1)">
       <use xlink:href="#DejaVuSans-32"/>
       <use xlink:href="#DejaVuSans-30" x="63.623047"/>
       <use xlink:href="#DejaVuSans-32" x="127.246094"/>
       <use xlink:href="#DejaVuSans-30" x="190.869141"/>
       <use xlink:href="#DejaVuSans-2d" x="254.492188"/>
       <use xlink:href="#DejaVuSans-31" x="290.576172"/>
       <use xlink:href="#DejaVuSans-30" x="354.199219"/>
      </g>
     </g>
    </g>
    <g id="xtick_5">
     <g id="line2d_5">
      <g>
       <use xlink:href="#m0190259b37" x="576.317999" y="368.3955" style="stroke: #000000; stroke-width: 0.8"/>
      </g>
     </g>
     <g id="text_5">
      <!-- 2021-01 -->
      <g transform="translate(555.426593 382.993937)scale(0.1 -0.1)">
       <use xlink:href="#DejaVuSans-32"/>
       <use xlink:href="#DejaVuSans-30" x="63.623047"/>
       <use xlink:href="#DejaVuSans-32" x="127.246094"/>
       <use xlink:href="#DejaVuSans-31" x="190.869141"/>
       <use xlink:href="#DejaVuSans-2d" x="254.492188"/>
       <use xlink:href="#DejaVuSans-30" x="290.576172"/>
       <use xlink:href="#DejaVuSans-31" x="354.199219"/>
      </g>
     </g>
    </g>
    <g id="xtick_6">
     <g id="line2d_6">
      <g>
       <use xlink:href="#m0190259b37" x="698.60696" y="368.3955" style="stroke: #000000; stroke-width: 0.8"/>
      </g>
     </g>
     <g id="text_6">
      <!-- 2021-04 -->
      <g transform="translate(677.715554 382.993937)scale(0.1 -0.1)">
       <use xlink:href="#DejaVuSans-32"/>
       <use xlink:href="#DejaVuSans-30" x="63.623047"/>
       <use xlink:href="#DejaVuSans-32" x="127.246094"/>
       <use xlink:href="#DejaVuSans-31" x="190.869141"/>
       <use xlink:href="#DejaVuSans-2d" x="254.492188"/>
       <use xlink:href="#DejaVuSans-30" x="290.576172"/>
       <use xlink:href="#DejaVuSans-34" x="354.199219"/>
      </g>
     </g>
    </g>
    <g id="xtick_7">
     <g id="line2d_7">
      <g>
       <use xlink:href="#m0190259b37" x="822.254687" y="368.3955" style="stroke: #000000; stroke-width: 0.8"/>
      </g>
     </g>
     <g id="text_7">
      <!-- 2021-07 -->
      <g transform="translate(801.363281 382.993937)scale(0.1 -0.1)">
       <use xlink:href="#DejaVuSans-32"/>
       <use xlink:href="#DejaVuSans-30" x="63.623047"/>
       <use xlink:href="#DejaVuSans-32" x="127.246094"/>
       <use xlink:href="#DejaVuSans-31" x="190.869141"/>
       <use xlink:href="#DejaVuSans-2d" x="254.492188"/>
       <use xlink:href="#DejaVuSans-30" x="290.576172"/>
       <use xlink:href="#DejaVuSans-37" x="354.199219"/>
      </g>
     </g>
    </g>
    <g id="xtick_8">
     <g id="line2d_8">
      <g>
       <use xlink:href="#m0190259b37" x="947.261181" y="368.3955" style="stroke: #000000; stroke-width: 0.8"/>
      </g>
     </g>
     <g id="text_8">
      <!-- 2021-10 -->
      <g transform="translate(926.369775 382.993937)scale(0.1 -0.1)">
       <use xlink:href="#DejaVuSans-32"/>
       <use xlink:href="#DejaVuSans-30" x="63.623047"/>
       <use xlink:href="#DejaVuSans-32" x="127.246094"/>
       <use xlink:href="#DejaVuSans-31" x="190.869141"/>
       <use xlink:href="#DejaVuSans-2d" x="254.492188"/>
       <use xlink:href="#DejaVuSans-31" x="290.576172"/>
       <use xlink:href="#DejaVuSans-30" x="354.199219"/>
      </g>
     </g>
    </g>
    <g id="xtick_9">
     <g id="line2d_9">
      <g>
       <use xlink:href="#m0190259b37" x="1072.267675" y="368.3955" style="stroke: #000000; stroke-width: 0.8"/>
      </g>
     </g>
     <g id="text_9">
      <!-- 2022-01 -->
      <g transform="translate(1051.376268 382.993937)scale(0.1 -0.1)">
       <use xlink:href="#DejaVuSans-32"/>
       <use xlink:href="#DejaVuSans-30" x="63.623047"/>
       <use xlink:href="#DejaVuSans-32" x="127.246094"/>
       <use xlink:href="#DejaVuSans-32" x="190.869141"/>
       <use xlink:href="#DejaVuSans-2d" x="254.492188"/>
       <use xlink:href="#DejaVuSans-30" x="290.576172"/>
       <use xlink:href="#DejaVuSans-31" x="354.199219"/>
      </g>
     </g>
    </g>
    <g id="xtick_10">
     <g id="line2d_10">
      <g>
       <use xlink:href="#m0190259b37" x="1194.556636" y="368.3955" style="stroke: #000000; stroke-width: 0.8"/>
      </g>
     </g>
     <g id="text_10">
      <!-- 2022-04 -->
      <g transform="translate(1173.665229 382.993937)scale(0.1 -0.1)">
       <use xlink:href="#DejaVuSans-32"/>
       <use xlink:href="#DejaVuSans-30" x="63.623047"/>
       <use xlink:href="#DejaVuSans-32" x="127.246094"/>
       <use xlink:href="#DejaVuSans-32" x="190.869141"/>
       <use xlink:href="#DejaVuSans-2d" x="254.492188"/>
       <use xlink:href="#DejaVuSans-30" x="290.576172"/>
       <use xlink:href="#DejaVuSans-34" x="354.199219"/>
      </g>
     </g>
    </g>
    <g id="xtick_11">
     <g id="line2d_11">
      <g>
       <use xlink:href="#m0190259b37" x="1318.204363" y="368.3955" style="stroke: #000000; stroke-width: 0.8"/>
      </g>
     </g>
     <g id="text_11">
      <!-- 2022-07 -->
      <g transform="translate(1297.312957 382.993937)scale(0.1 -0.1)">
       <use xlink:href="#DejaVuSans-32"/>
       <use xlink:href="#DejaVuSans-30" x="63.623047"/>
       <use xlink:href="#DejaVuSans-32" x="127.246094"/>
       <use xlink:href="#DejaVuSans-32" x="190.869141"/>
       <use xlink:href="#DejaVuSans-2d" x="254.492188"/>
       <use xlink:href="#DejaVuSans-30" x="290.576172"/>
       <use xlink:href="#DejaVuSans-37" x="354.199219"/>
      </g>
     </g>
    </g>
   </g>
   <g id="matplotlib.axis_2">
    <g id="ytick_1">
     <g id="line2d_12">
      <defs>
       <path id="m7bd6aae1db" d="M 0 0 
L -3.5 0 
" style="stroke: #000000; stroke-width: 0.8"/>
      </defs>
      <g>
       <use xlink:href="#m7bd6aae1db" x="48.029688" y="348.159199" style="stroke: #000000; stroke-width: 0.8"/>
      </g>
     </g>
     <g id="text_12">
      <!-- −5000 -->
      <g transform="translate(7.2 351.958418)scale(0.1 -0.1)">
       <defs>
        <path id="DejaVuSans-2212" d="M 678 2272 
L 4684 2272 
L 4684 1741 
L 678 1741 
L 678 2272 
z
" transform="scale(0.015625)"/>
        <path id="DejaVuSans-35" d="M 691 4666 
L 3169 4666 
L 3169 4134 
L 1269 4134 
L 1269 2991 
Q 1406 3038 1543 3061 
Q 1681 3084 1819 3084 
Q 2600 3084 3056 2656 
Q 3513 2228 3513 1497 
Q 3513 744 3044 326 
Q 2575 -91 1722 -91 
Q 1428 -91 1123 -41 
Q 819 9 494 109 
L 494 744 
Q 775 591 1075 516 
Q 1375 441 1709 441 
Q 2250 441 2565 725 
Q 2881 1009 2881 1497 
Q 2881 1984 2565 2268 
Q 2250 2553 1709 2553 
Q 1456 2553 1204 2497 
Q 953 2441 691 2322 
L 691 4666 
z
" transform="scale(0.015625)"/>
       </defs>
       <use xlink:href="#DejaVuSans-2212"/>
       <use xlink:href="#DejaVuSans-35" x="83.789062"/>
       <use xlink:href="#DejaVuSans-30" x="147.412109"/>
       <use xlink:href="#DejaVuSans-30" x="211.035156"/>
       <use xlink:href="#DejaVuSans-30" x="274.658203"/>
      </g>
     </g>
    </g>
    <g id="ytick_2">
     <g id="line2d_13">
      <g>
       <use xlink:href="#m7bd6aae1db" x="48.029688" y="293.380822" style="stroke: #000000; stroke-width: 0.8"/>
      </g>
     </g>
     <g id="text_13">
      <!-- 0 -->
      <g transform="translate(34.667188 297.18004)scale(0.1 -0.1)">
       <use xlink:href="#DejaVuSans-30"/>
      </g>
     </g>
    </g>
    <g id="ytick_3">
     <g id="line2d_14">
      <g>
       <use xlink:href="#m7bd6aae1db" x="48.029688" y="238.602444" style="stroke: #000000; stroke-width: 0.8"/>
      </g>
     </g>
     <g id="text_14">
      <!-- 5000 -->
      <g transform="translate(15.579688 242.401662)scale(0.1 -0.1)">
       <use xlink:href="#DejaVuSans-35"/>
       <use xlink:href="#DejaVuSans-30" x="63.623047"/>
       <use xlink:href="#DejaVuSans-30" x="127.246094"/>
       <use xlink:href="#DejaVuSans-30" x="190.869141"/>
      </g>
     </g>
    </g>
    <g id="ytick_4">
     <g id="line2d_15">
      <g>
       <use xlink:href="#m7bd6aae1db" x="48.029688" y="183.824066" style="stroke: #000000; stroke-width: 0.8"/>
      </g>
     </g>
     <g id="text_15">
      <!-- 10000 -->
      <g transform="translate(9.217188 187.623284)scale(0.1 -0.1)">
       <use xlink:href="#DejaVuSans-31"/>
       <use xlink:href="#DejaVuSans-30" x="63.623047"/>
       <use xlink:href="#DejaVuSans-30" x="127.246094"/>
       <use xlink:href="#DejaVuSans-30" x="190.869141"/>
       <use xlink:href="#DejaVuSans-30" x="254.492188"/>
      </g>
     </g>
    </g>
    <g id="ytick_5">
     <g id="line2d_16">
      <g>
       <use xlink:href="#m7bd6aae1db" x="48.029688" y="129.045688" style="stroke: #000000; stroke-width: 0.8"/>
      </g>
     </g>
     <g id="text_16">
      <!-- 15000 -->
      <g transform="translate(9.217188 132.844906)scale(0.1 -0.1)">
       <use xlink:href="#DejaVuSans-31"/>
       <use xlink:href="#DejaVuSans-35" x="63.623047"/>
       <use xlink:href="#DejaVuSans-30" x="127.246094"/>
       <use xlink:href="#DejaVuSans-30" x="190.869141"/>
       <use xlink:href="#DejaVuSans-30" x="254.492188"/>
      </g>
     </g>
    </g>
    <g id="ytick_6">
     <g id="line2d_17">
      <g>
       <use xlink:href="#m7bd6aae1db" x="48.029688" y="74.26731" style="stroke: #000000; stroke-width: 0.8"/>
      </g>
     </g>
     <g id="text_17">
      <!-- 20000 -->
      <g transform="translate(9.217188 78.066528)scale(0.1 -0.1)">
       <use xlink:href="#DejaVuSans-32"/>
       <use xlink:href="#DejaVuSans-30" x="63.623047"/>
       <use xlink:href="#DejaVuSans-30" x="127.246094"/>
       <use xlink:href="#DejaVuSans-30" x="190.869141"/>
       <use xlink:href="#DejaVuSans-30" x="254.492188"/>
      </g>
     </g>
    </g>
   </g>
   <g id="line2d_18">
    <path d="M 108.902415 293.380822 
L 179.558259 293.380822 
L 180.917025 293.161708 
L 183.634558 293.095974 
L 184.993324 292.789215 
L 189.069623 292.405766 
L 190.428389 290.959617 
L 191.787155 291.649825 
L 193.145921 291.803204 
L 195.863454 290.959617 
L 197.22222 291.266376 
L 198.580986 291.091085 
L 199.939752 291.222553 
L 201.298519 288.187831 
L 202.657285 290.817193 
L 204.016051 290.422789 
L 205.374817 290.619991 
L 206.733584 291.178731 
L 208.09235 289.962651 
L 209.451116 290.882927 
L 210.809882 290.028385 
L 212.168649 291.134908 
L 213.527415 290.324188 
L 214.886181 291.244465 
L 216.244947 290.181764 
L 217.603713 290.915795 
L 218.96248 291.014396 
L 220.321246 291.386889 
L 221.680012 290.499479 
L 224.397545 289.875005 
L 225.756311 291.48549 
L 227.115077 290.346099 
L 228.473843 290.641903 
L 229.83261 290.225587 
L 231.191376 287.913939 
L 232.550142 288.428856 
L 233.908908 288.253565 
L 235.267675 290.083163 
L 237.985207 290.126986 
L 239.343973 290.389922 
L 240.702739 287.157998 
L 242.061506 282.403235 
L 243.420272 284.955907 
L 244.779038 290.784326 
L 246.137804 289.327222 
L 247.496571 289.984562 
L 248.855337 291.310199 
L 250.214103 290.543302 
L 251.572869 289.086197 
L 252.931636 291.244465 
L 254.290402 290.707637 
L 255.649168 290.67477 
L 257.007934 287.333289 
L 258.3667 285.755671 
L 259.725467 289.875005 
L 262.442999 291.266376 
L 263.801765 290.532346 
L 265.160532 288.220698 
L 266.519298 289.644936 
L 267.878064 289.721626 
L 269.23683 290.543302 
L 270.595597 289.184798 
L 271.954363 289.162886 
L 273.313129 288.801349 
L 274.671895 289.754493 
L 276.030662 286.87315 
L 277.389428 289.502512 
L 278.748194 291.036307 
L 280.10696 286.851239 
L 281.465726 290.861016 
L 282.824493 288.385033 
L 284.183259 286.730726 
L 285.542025 286.774549 
L 286.900791 286.325366 
L 288.259558 289.513468 
L 289.618324 290.893883 
L 290.97709 287.793427 
L 293.694623 288.713704 
L 295.053389 288.045408 
L 296.412155 286.971751 
L 297.770921 288.702748 
L 299.129687 286.675948 
L 300.488454 287.420934 
L 301.84722 287.497624 
L 303.205986 286.774549 
L 304.564752 285.646115 
L 305.923519 286.686904 
L 307.282285 288.943773 
L 308.641051 281.395312 
L 311.358584 288.954729 
L 312.71735 286.916973 
L 314.076116 286.533524 
L 315.434882 282.282722 
L 316.793649 284.18901 
L 318.152415 281.702071 
L 319.511181 282.720949 
L 320.869947 290.499479 
L 322.228713 286.21581 
L 323.58748 273.945453 
L 324.946246 275.380647 
L 326.305012 277.845674 
L 327.663778 272.411658 
L 329.022545 278.700216 
L 330.381311 277.462225 
L 331.740077 278.744039 
L 333.098843 283.717916 
L 334.45761 269.902809 
L 335.816376 275.424469 
L 338.533908 271.863875 
L 339.892675 280.518858 
L 341.251441 268.018433 
L 342.610207 273.485315 
L 343.968973 270.341036 
L 345.327739 272.345924 
L 346.686506 261.105401 
L 348.045272 270.154789 
L 349.404038 270.264346 
L 350.762804 276.191367 
L 352.121571 280.321656 
L 353.480337 259.012867 
L 354.839103 271.69954 
L 356.197869 265.860164 
L 357.556636 273.222378 
L 358.915402 259.71403 
L 360.274168 268.182768 
L 361.632934 272.608861 
L 362.9917 266.134056 
L 364.350467 280.529814 
L 365.709233 254.477218 
L 367.067999 274.285079 
L 368.426765 269.826119 
L 369.785532 281.647293 
L 371.144298 273.792074 
L 372.503064 274.38368 
L 373.86183 278.711172 
L 375.220597 263.537561 
L 376.579363 273.934497 
L 377.938129 270.417725 
L 379.296895 276.213278 
L 380.655662 283.586448 
L 382.014428 273.693472 
L 383.373194 279.773872 
L 384.73196 265.980677 
L 386.090726 278.382502 
L 387.449493 272.345924 
L 390.167025 284.18901 
L 391.525791 274.153611 
L 392.884558 278.76595 
L 394.243324 266.802353 
L 395.60209 287.629092 
L 396.960856 266.83522 
L 398.319623 284.506724 
L 399.678389 286.325366 
L 401.037155 274.78904 
L 402.395921 279.039842 
L 403.754687 267.908876 
L 405.113454 281.077598 
L 406.47222 276.673416 
L 407.830986 277.385535 
L 409.189752 279.828651 
L 410.548519 274.94242 
L 411.907285 280.442169 
L 413.266051 275.293001 
L 414.624817 281.220022 
L 415.983584 265.443849 
L 417.34235 284.375256 
L 418.701116 284.84635 
L 420.059882 284.451946 
L 421.418649 280.94613 
L 422.777415 271.535204 
L 424.136181 282.41419 
L 425.494947 278.908374 
L 426.853713 278.152432 
L 428.21248 275.895563 
L 429.571246 272.674595 
L 430.930012 281.833539 
L 432.288778 273.49627 
L 433.647545 276.936352 
L 435.006311 270.110967 
L 436.365077 282.184121 
L 437.723843 286.106253 
L 439.08261 275.468292 
L 440.441376 283.367334 
L 441.800142 278.10861 
L 443.158908 278.733083 
L 444.517675 270.220523 
L 445.876441 278.524925 
L 447.235207 286.040519 
L 448.593973 280.38739 
L 449.952739 277.779939 
L 451.311506 280.86944 
L 452.670272 280.277834 
L 454.029038 278.612571 
L 455.387804 273.638694 
L 456.746571 269.26738 
L 458.105337 271.54616 
L 459.464103 273.299068 
L 460.822869 271.568071 
L 462.181636 277.977142 
L 463.540402 272.882752 
L 464.899168 261.280692 
L 466.257934 279.98203 
L 467.6167 276.563859 
L 468.975467 268.215635 
L 470.334233 277.922363 
L 471.692999 274.690439 
L 473.051765 264.227769 
L 474.410532 264.698863 
L 475.769298 269.574138 
L 478.48683 274.504192 
L 479.845597 258.695153 
L 481.204363 264.468794 
L 482.563129 254.19237 
L 483.921895 259.724986 
L 485.280662 277.056865 
L 486.639428 266.703751 
L 487.998194 264.216813 
L 489.35696 267.547338 
L 490.715726 267.273447 
L 492.074493 291.759382 
L 493.433259 266.320303 
L 494.792025 272.729373 
L 496.150791 260.52475 
L 497.509558 264.556439 
L 498.868324 278.020964 
L 500.22709 254.258104 
L 501.585856 247.849034 
L 502.944623 234.778913 
L 504.303389 267.383003 
L 505.662155 260.459016 
L 507.020921 250.587953 
L 508.379687 258.990956 
L 509.738454 245.877012 
L 511.09722 240.234839 
L 512.455986 223.012517 
L 513.814752 242.656044 
L 515.173519 255.014046 
L 516.532285 249.393784 
L 517.891051 260.67813 
L 519.249817 249.40474 
L 520.608584 256.000056 
L 521.96735 233.03696 
L 523.326116 269.201645 
L 524.684882 270.932642 
L 526.043649 269.300247 
L 527.402415 236.005948 
L 528.761181 234.40642 
L 530.119947 242.579354 
L 531.478713 233.497099 
L 532.83748 228.336976 
L 534.196246 220.711825 
L 535.555012 266.079278 
L 536.913778 240.936002 
L 538.272545 234.680312 
L 539.631311 259.845499 
L 540.990077 249.262316 
L 542.348843 215.485968 
L 543.70761 205.056165 
L 545.066376 230.078928 
L 546.425142 196.390226 
L 547.783908 227.405743 
L 549.142675 196.039644 
L 550.501441 170.830634 
L 551.860207 206.798117 
L 553.218973 164.246273 
L 554.577739 191.547817 
L 555.936506 182.323138 
L 557.295272 202.94172 
L 558.654038 216.022796 
L 560.012804 184.163692 
L 561.371571 229.695479 
L 562.730337 217.808571 
L 564.089103 226.770314 
L 565.447869 220.657047 
L 566.806636 220.887116 
L 568.165402 239.884258 
L 569.524168 256.383505 
L 570.882934 254.59773 
L 572.2417 204.990431 
L 573.600467 220.109263 
L 574.959233 192.928232 
L 576.317999 220.29551 
L 577.676765 214.576647 
L 579.035532 254.981179 
L 580.394298 249.097981 
L 581.753064 201.375058 
L 583.11183 212.856606 
L 584.470597 213.075719 
L 585.829363 227.077073 
L 587.188129 214.456135 
L 588.546895 234.559799 
L 589.905662 252.034102 
L 591.264428 241.505698 
L 592.623194 248.363951 
L 593.98196 225.948638 
L 595.340726 263.241758 
L 596.699493 217.677103 
L 598.058259 265.180913 
L 599.417025 275.687405 
L 600.775791 240.968869 
L 602.134558 259.440139 
L 603.493324 242.042526 
L 604.85209 264.545483 
L 606.210856 244.397996 
L 607.569623 275.906519 
L 608.928389 273.518182 
L 610.287155 259.089557 
L 611.645921 263.581384 
L 613.004687 250.116859 
L 614.363454 274.087877 
L 615.72222 254.882577 
L 617.080986 269.628917 
L 618.439752 274.887641 
L 619.798519 279.006975 
L 621.157285 256.755998 
L 622.516051 261.675096 
L 623.874817 269.376936 
L 625.233584 253.326872 
L 626.59235 278.590659 
L 627.951116 279.817695 
L 629.309882 263.942921 
L 630.668649 269.968543 
L 632.027415 266.922865 
L 633.386181 272.334969 
L 634.744947 275.073888 
L 636.103713 279.65336 
L 637.46248 284.868262 
L 638.821246 279.971075 
L 640.180012 283.202999 
L 641.538778 277.166422 
L 642.897545 282.49088 
L 644.256311 278.415369 
L 645.615077 283.838428 
L 646.973843 281.811628 
L 648.33261 273.189511 
L 649.691376 272.43357 
L 651.050142 274.997198 
L 652.408908 281.066642 
L 653.767675 277.593693 
L 655.126441 284.210921 
L 656.485207 287.179909 
L 657.843973 276.465258 
L 659.202739 279.149399 
L 660.561506 275.873652 
L 661.920272 279.971075 
L 663.279038 279.839606 
L 664.637804 285.142153 
L 665.996571 281.515825 
L 668.714103 275.884608 
L 671.431636 281.241933 
L 672.790402 277.14451 
L 674.149168 286.13912 
L 675.507934 283.509758 
L 676.8667 272.236368 
L 678.225467 281.669204 
L 679.584233 277.889496 
L 680.942999 272.1049 
L 682.301765 285.164065 
L 683.660532 285.087375 
L 685.019298 279.499981 
L 686.378064 280.551725 
L 687.73683 275.764095 
L 689.095597 280.858484 
L 690.454363 282.479924 
L 691.813129 284.451946 
L 693.171895 284.462902 
L 694.530662 280.332612 
L 695.889428 280.321656 
L 697.248194 272.948487 
L 698.60696 279.686227 
L 699.965726 281.75685 
L 701.324493 283.597403 
L 702.683259 287.322333 
L 704.042025 283.63027 
L 705.400791 278.744039 
L 706.759558 276.103721 
L 708.118324 280.847529 
L 709.47709 278.711172 
L 710.835856 283.816517 
L 712.194623 286.237721 
L 713.553389 279.861518 
L 714.912155 281.022819 
L 716.270921 273.715384 
L 717.629687 278.283901 
L 718.988454 247.356028 
L 720.34722 285.668026 
L 721.705986 287.245643 
L 725.782285 278.272945 
L 727.141051 273.189511 
L 728.499817 283.005797 
L 731.21735 287.322333 
L 732.576116 281.406268 
L 733.934882 280.737972 
L 735.293649 280.332612 
L 736.652415 282.151254 
L 738.011181 281.658249 
L 739.369947 286.719771 
L 740.728713 287.913939 
L 742.08748 286.182943 
L 743.446246 284.057542 
L 744.805012 280.179232 
L 746.163778 284.769661 
L 747.522545 282.107431 
L 748.881311 287.256599 
L 750.240077 289.261488 
L 751.598843 286.533524 
L 752.95761 284.134231 
L 754.316376 283.553581 
L 755.675142 285.624203 
L 757.033908 284.583414 
L 758.392675 288.97664 
L 759.751441 290.378966 
L 761.110207 286.237721 
L 762.468973 287.147042 
L 763.827739 286.478746 
L 765.186506 287.409978 
L 766.545272 287.727693 
L 767.904038 289.995518 
L 769.262804 290.630947 
L 770.621571 288.450768 
L 771.980337 288.779438 
L 773.339103 287.935851 
L 774.697869 289.086197 
L 776.056636 289.907872 
L 777.415402 291.321155 
L 778.774168 291.4088 
L 780.132934 291.33211 
L 781.4917 288.779438 
L 782.850467 289.414867 
L 784.209233 289.907872 
L 785.567999 290.159853 
L 786.926765 291.584091 
L 788.285532 292.274298 
L 789.644298 290.532346 
L 791.003064 290.411833 
L 792.36183 291.025351 
L 793.720597 290.795282 
L 795.079363 290.214631 
L 796.438129 291.759382 
L 797.796895 292.449589 
L 799.155662 291.036307 
L 800.514428 290.017429 
L 801.873194 290.455656 
L 803.23196 291.529312 
L 804.590726 291.386889 
L 805.949493 291.989451 
L 807.308259 292.460545 
L 810.025791 290.806238 
L 814.10209 291.014396 
L 815.460856 291.967539 
L 816.819623 292.329077 
L 818.178389 292.175697 
L 819.537155 288.867083 
L 820.895921 290.083163 
L 822.254687 290.061252 
L 823.613454 289.896917 
L 824.97222 290.455656 
L 826.330986 291.419756 
L 827.689752 291.288287 
L 829.048519 288.691792 
L 830.407285 287.892028 
L 831.766051 287.267555 
L 833.124817 287.20182 
L 834.483584 288.910906 
L 835.84235 290.861016 
L 837.201116 286.993663 
L 838.559882 284.550547 
L 839.918649 285.602292 
L 841.277415 284.714882 
L 842.636181 284.791572 
L 845.353713 288.154964 
L 846.71248 282.720949 
L 848.071246 279.357557 
L 849.430012 277.538915 
L 850.788778 276.498125 
L 852.147545 276.33379 
L 853.506311 279.499981 
L 854.865077 283.915118 
L 856.223843 269.957587 
L 857.58261 268.544305 
L 858.941376 264.194902 
L 860.300142 268.106078 
L 861.658908 259.483961 
L 863.017675 271.129844 
L 864.376441 274.86573 
L 867.093973 252.340861 
L 868.452739 257.862521 
L 869.811506 250.511263 
L 871.170272 243.773522 
L 872.529038 265.005622 
L 873.887804 269.727518 
L 875.246571 253.513118 
L 876.605337 248.583064 
L 877.964103 232.007127 
L 879.322869 243.061404 
L 880.681636 232.719246 
L 882.040402 240.15815 
L 883.399168 262.95691 
L 884.757934 252.844822 
L 886.1167 234.231129 
L 887.475467 222.103196 
L 888.834233 215.310677 
L 890.192999 223.505523 
L 891.551765 186.048068 
L 892.910532 249.010335 
L 894.269298 237.035782 
L 895.628064 243.269561 
L 896.98683 221.412989 
L 898.345597 211.607659 
L 899.704363 207.510236 
L 901.063129 225.718569 
L 902.421895 223.176852 
L 903.780662 185.412639 
L 905.139428 190.266003 
L 906.498194 257.479073 
L 907.85696 221.621146 
L 909.215726 240.89218 
L 910.574493 194.166223 
L 911.933259 168.716189 
L 913.292025 150.474989 
L 914.650791 234.877514 
L 916.009558 244.397996 
L 917.368324 236.805713 
L 918.72709 128.300702 
L 920.085856 169.680288 
L 921.444623 255.671386 
L 922.803389 231.985216 
L 924.162155 212.692271 
L 925.520921 243.795434 
L 926.879687 224.140952 
L 928.238454 219.364277 
L 929.59722 249.788188 
L 930.955986 275.139622 
L 932.314752 242.831334 
L 933.673519 241.845324 
L 935.032285 248.703576 
L 936.391051 232.467265 
L 937.749817 250.883756 
L 939.108584 272.904664 
L 940.46735 270.100011 
L 941.826116 256.843643 
L 943.184882 254.11568 
L 944.543649 248.18866 
L 945.902415 257.216136 
L 947.261181 255.594696 
L 948.619947 275.391602 
L 949.978713 280.584592 
L 951.33748 259.253892 
L 952.696246 259.571607 
L 954.055012 266.550372 
L 955.413778 265.816342 
L 956.772545 267.448737 
L 958.131311 278.141477 
L 959.490077 284.638192 
L 960.848843 264.819375 
L 962.20761 268.741507 
L 963.566376 270.549194 
L 964.925142 270.866908 
L 966.283908 273.912586 
L 967.642675 284.156143 
L 969.001441 287.048441 
L 970.360207 275.851741 
L 971.718973 272.641728 
L 973.077739 275.457336 
L 974.436506 274.810951 
L 975.795272 278.744039 
L 977.154038 284.703926 
L 978.512804 286.938884 
L 979.871571 282.129343 
L 981.230337 279.784828 
L 982.589103 277.812807 
L 983.947869 281.493914 
L 985.306636 281.099509 
L 986.665402 286.434923 
L 988.024168 288.582236 
L 989.382934 279.499981 
L 990.7417 281.132376 
L 992.100467 279.489025 
L 993.459233 282.951018 
L 994.817999 281.241933 
L 996.176765 286.171987 
L 997.535532 287.366156 
L 998.894298 280.814662 
L 1000.253064 272.148722 
L 1001.61183 277.232156 
L 1002.970597 280.299745 
L 1004.329363 280.365479 
L 1005.688129 285.284577 
L 1007.046895 285.580381 
L 1008.405662 278.963152 
L 1009.764428 275.446381 
L 1011.123194 273.594871 
L 1012.48196 275.764095 
L 1013.840726 276.322835 
L 1015.199493 284.167098 
L 1016.558259 287.015574 
L 1017.917025 277.013042 
L 1019.275791 275.34778 
L 1020.634558 276.355702 
L 1021.993324 284.627237 
L 1023.35209 287.68387 
L 1024.710856 285.722804 
L 1026.069623 285.668026 
L 1027.428389 269.694651 
L 1028.787155 270.034277 
L 1030.145921 266.791397 
L 1031.504687 269.793252 
L 1032.863454 268.63195 
L 1034.22222 281.921185 
L 1035.580986 283.027708 
L 1036.939752 271.348958 
L 1038.298519 269.771341 
L 1039.657285 265.717741 
L 1041.016051 270.362947 
L 1042.374817 273.200467 
L 1043.733584 282.666171 
L 1045.09235 282.337501 
L 1046.451116 273.660605 
L 1047.809882 269.902809 
L 1049.168649 268.697684 
L 1050.527415 266.802353 
L 1051.886181 267.700718 
L 1053.244947 272.302102 
L 1054.603713 277.758028 
L 1055.96248 261.981855 
L 1057.321246 253.907522 
L 1058.680012 228.972405 
L 1060.038778 236.619466 
L 1061.397545 242.371196 
L 1062.756311 250.697509 
L 1064.115077 277.823762 
L 1066.83261 168.08076 
L 1068.191376 154.429988 
L 1069.550142 133.154066 
L 1072.267675 209.076898 
L 1073.626441 210.764072 
L 1074.985207 192.665296 
L 1076.343973 127.741962 
L 1077.702739 102.182371 
L 1079.061506 80.314843 
L 1080.420272 148.020918 
L 1081.779038 166.503142 
L 1083.137804 193.015877 
L 1084.496571 141.885739 
L 1085.855337 108.032702 
L 1087.214103 107.265805 
L 1088.572869 62.336579 
L 1089.931636 72.711604 
L 1091.290402 130.38228 
L 1092.649168 166.831813 
L 1094.007934 172.802656 
L 1095.3667 115.603074 
L 1096.725467 51.41377 
L 1098.084233 57.143589 
L 1099.442999 95.466542 
L 1100.801765 106.038769 
L 1102.160532 195.228924 
L 1103.519298 114.945733 
L 1104.878064 118.834998 
L 1106.23683 135.104176 
L 1107.595597 98.139727 
L 1108.954363 152.786637 
L 1110.313129 186.124757 
L 1111.671895 235.381475 
L 1113.030662 187.603774 
L 1114.389428 158.845125 
L 1115.748194 170.293806 
L 1117.10696 55.401636 
L 1118.465726 210.030042 
L 1119.824493 251.321983 
L 1121.183259 260.93011 
L 1122.542025 222.366132 
L 1123.900791 225.466589 
L 1125.259558 225.74048 
L 1126.618324 231.262141 
L 1127.97709 238.657222 
L 1129.335856 267.941743 
L 1130.694623 278.864551 
L 1132.053389 236.323663 
L 1133.412155 250.160681 
L 1134.770921 251.080958 
L 1136.129687 254.203326 
L 1137.488454 262.989777 
L 1138.84722 279.072709 
L 1140.205986 284.11232 
L 1141.564752 277.078776 
L 1142.923519 264.238724 
L 1144.282285 268.796286 
L 1145.641051 271.69954 
L 1146.999817 275.128666 
L 1148.358584 286.095297 
L 1149.71735 292.526279 
L 1151.076116 272.751284 
L 1152.434882 274.986242 
L 1155.152415 284.758705 
L 1156.511181 285.175021 
L 1157.869947 289.677803 
L 1159.228713 290.335144 
L 1160.58748 286.807416 
L 1161.946246 285.689937 
L 1163.305012 286.46779 
L 1164.663778 288.615103 
L 1166.022545 288.220698 
L 1167.381311 291.857983 
L 1168.740077 291.48549 
L 1170.098843 289.349133 
L 1171.45761 289.075241 
L 1172.816376 289.403911 
L 1174.175142 289.984562 
L 1175.533908 289.743537 
L 1176.892675 291.562179 
L 1178.251441 291.649825 
L 1179.610207 290.137942 
L 1180.968973 289.677803 
L 1182.327739 289.885961 
L 1183.686506 290.652858 
L 1185.045272 291.036307 
L 1186.404038 291.857983 
L 1187.762804 292.526279 
L 1189.121571 289.951695 
L 1190.480337 290.532346 
L 1191.839103 289.962651 
L 1193.197869 290.302277 
L 1194.556636 290.477568 
L 1197.274168 292.383855 
L 1198.632934 290.718592 
L 1199.9917 289.853094 
L 1201.350467 289.195753 
L 1202.709233 288.154964 
L 1204.067999 290.214631 
L 1205.426765 291.507401 
L 1206.785532 291.967539 
L 1208.144298 290.094119 
L 1209.503064 289.940739 
L 1210.86183 288.198787 
L 1212.220597 288.724659 
L 1214.938129 291.091085 
L 1216.296895 291.496445 
L 1217.655662 288.834216 
L 1219.014428 287.990629 
L 1220.373194 287.957762 
L 1221.73196 288.385033 
L 1223.090726 288.01254 
L 1224.449493 290.302277 
L 1225.808259 290.641903 
L 1227.167025 287.935851 
L 1228.525791 286.763593 
L 1229.884558 285.821405 
L 1232.60209 286.960796 
L 1233.960856 289.776404 
L 1235.319623 291.134908 
L 1236.678389 286.423968 
L 1238.037155 285.087375 
L 1239.395921 283.312556 
L 1240.754687 284.287611 
L 1242.113454 283.192043 
L 1243.47222 287.267555 
L 1244.830986 288.943773 
L 1246.189752 283.553581 
L 1247.548519 280.431213 
L 1248.907285 281.230977 
L 1250.266051 280.705105 
L 1251.624817 279.883429 
L 1252.983584 287.420934 
L 1254.34235 285.350311 
L 1255.701116 281.329578 
L 1257.059882 274.909552 
L 1258.418649 280.255922 
L 1259.777415 275.172489 
L 1261.136181 275.720272 
L 1262.494947 282.41419 
L 1263.853713 285.459868 
L 1265.21248 280.398346 
L 1266.571246 269.968543 
L 1267.930012 274.438458 
L 1269.288778 273.529137 
L 1270.647545 273.90163 
L 1272.006311 281.220022 
L 1273.365077 282.556614 
L 1274.723843 284.824439 
L 1276.08261 275.205356 
L 1277.441376 267.722629 
L 1278.800142 271.239401 
L 1280.158908 268.763418 
L 1281.517675 279.828651 
L 1282.876441 281.472002 
L 1284.235207 273.671561 
L 1285.593973 266.539416 
L 1286.952739 270.121922 
L 1288.311506 268.588128 
L 1289.670272 269.84803 
L 1291.029038 280.354523 
L 1292.387804 353.2755 
L 1293.746571 293.380822 
L 1295.105337 222.913916 
L 1296.464103 275.983209 
L 1297.822869 266.035455 
L 1299.181636 269.793252 
L 1300.540402 293.380822 
L 1303.257934 293.380822 
L 1304.6167 221.182919 
L 1305.975467 269.749429 
L 1307.334233 263.537561 
L 1308.692999 264.260636 
L 1308.692999 264.260636 
" clip-path="url(#pad8203e521)" style="fill: none; stroke: #0000ff; stroke-width: 1.5; stroke-linecap: square"/>
   </g>
   <g id="line2d_19">
    <path d="M 1069.550142 185.193331 
L 1070.908908 193.566179 
L 1072.267675 204.747602 
L 1073.626441 174.458817 
L 1076.343973 128.227972 
L 1077.702739 122.078404 
L 1079.061506 126.377151 
L 1080.420272 165.347729 
L 1081.779038 162.237705 
L 1083.137804 151.695878 
L 1084.496571 101.036524 
L 1085.855337 97.916975 
L 1087.214103 96.877094 
L 1088.572869 114.303916 
L 1089.931636 111.266651 
L 1091.290402 139.141962 
L 1092.649168 127.670542 
L 1094.007934 112.023095 
L 1095.3667 88.919477 
L 1096.725467 50.8755 
L 1098.084233 85.640203 
L 1099.442999 128.016097 
L 1100.801765 133.430103 
L 1102.160532 146.03594 
L 1103.519298 85.033533 
L 1104.878064 83.062222 
L 1106.23683 95.514848 
L 1108.954363 140.552249 
L 1110.313129 193.90776 
L 1111.671895 180.360557 
L 1113.030662 160.294211 
L 1114.389428 155.078647 
L 1115.748194 153.270621 
L 1117.10696 136.810297 
L 1118.465726 209.607096 
L 1119.824493 250.312605 
L 1122.542025 179.031639 
L 1123.900791 211.486222 
L 1125.259558 176.949303 
L 1126.618324 266.27462 
L 1127.97709 261.125965 
L 1129.335856 286.663934 
L 1130.694623 257.47762 
L 1132.053389 253.766869 
L 1133.412155 253.815448 
L 1134.770921 233.533285 
L 1136.129687 273.005051 
L 1137.488454 279.27884 
L 1138.84722 292.55439 
L 1140.205986 264.018542 
L 1141.564752 279.330949 
L 1142.923519 269.512137 
L 1144.282285 262.478978 
L 1145.641051 281.916496 
L 1146.999817 293.295523 
L 1148.358584 296.503346 
L 1149.71735 282.206706 
L 1151.076116 277.463101 
L 1152.434882 279.261044 
L 1153.793649 277.057869 
L 1155.152415 288.318333 
L 1156.511181 293.536233 
L 1157.869947 297.114148 
L 1159.228713 282.771639 
L 1160.58748 287.580997 
L 1161.946246 288.529203 
L 1163.305012 286.938549 
L 1164.663778 290.214881 
L 1166.022545 295.6599 
L 1167.381311 297.349266 
L 1168.740077 288.591966 
L 1170.098843 289.936041 
L 1171.45761 290.507206 
L 1172.816376 290.322134 
L 1174.175142 290.904984 
L 1175.533908 294.602787 
L 1176.892675 294.812437 
L 1178.251441 290.314226 
L 1179.610207 290.580714 
L 1180.968973 290.723798 
L 1182.327739 290.567235 
L 1183.686506 290.881775 
L 1185.045272 293.435866 
L 1186.404038 293.262788 
L 1187.762804 291.058875 
L 1189.121571 290.432742 
L 1190.480337 291.122364 
L 1191.839103 290.865899 
L 1193.197869 291.071374 
L 1194.556636 292.115654 
L 1195.915402 292.451142 
L 1197.274168 290.700097 
L 1198.632934 290.712189 
L 1199.9917 290.173671 
L 1201.350467 290.101263 
L 1202.709233 289.685294 
L 1204.067999 291.363207 
L 1205.426765 291.872031 
L 1206.785532 290.295479 
L 1208.144298 289.490621 
L 1209.503064 289.60538 
L 1210.86183 288.853831 
L 1212.220597 289.977506 
L 1213.579363 290.804282 
L 1214.938129 291.365206 
L 1216.296895 289.842193 
L 1217.655662 289.075861 
L 1219.014428 288.10821 
L 1220.373194 288.543189 
L 1221.73196 289.405984 
L 1223.090726 289.348462 
L 1224.449493 290.122351 
L 1225.808259 288.764314 
L 1228.525791 287.018831 
L 1229.884558 287.079552 
L 1231.243324 287.418451 
L 1232.60209 288.404492 
L 1233.960856 289.192696 
L 1235.319623 288.029752 
L 1236.678389 286.120884 
L 1238.037155 285.398247 
L 1239.395921 285.316857 
L 1240.754687 286.083901 
L 1242.113454 286.17832 
L 1243.47222 287.534015 
L 1247.548519 281.100913 
L 1248.907285 282.621602 
L 1250.266051 282.100499 
L 1251.624817 283.19254 
L 1252.983584 285.900145 
L 1254.34235 281.916334 
L 1255.701116 279.946717 
L 1257.059882 277.306802 
L 1258.418649 280.751145 
L 1259.777415 277.509608 
L 1261.136181 280.890602 
L 1262.494947 280.803736 
L 1263.853713 280.571478 
L 1265.21248 276.046938 
L 1266.571246 274.331104 
L 1267.930012 274.34353 
L 1269.288778 275.360155 
L 1270.647545 278.908897 
L 1272.006311 279.800546 
L 1273.365077 277.335228 
L 1274.723843 275.457305 
L 1276.08261 276.032649 
L 1277.441376 271.23951 
L 1278.800142 273.577491 
L 1280.158908 277.235425 
L 1281.517675 280.353468 
L 1282.876441 278.063308 
L 1284.235207 269.646291 
L 1285.593973 266.817835 
L 1286.952739 271.027246 
L 1288.311506 269.559147 
L 1289.670272 274.763417 
L 1291.029038 277.355437 
L 1292.387804 310.315728 
L 1295.105337 252.512896 
L 1296.464103 276.718184 
L 1297.822869 285.116649 
L 1299.181636 284.477482 
L 1300.540402 302.436898 
L 1301.899168 275.157327 
L 1303.257934 259.388888 
L 1304.6167 256.825893 
L 1305.975467 270.290238 
L 1307.334233 265.564827 
L 1308.692999 278.815995 
L 1308.692999 278.815995 
" clip-path="url(#pad8203e521)" style="fill: none; stroke: #ffa500; stroke-width: 1.5; stroke-linecap: square"/>
   </g>
   <g id="line2d_20">
    <path d="M 1308.692999 278.815995 
L 1310.051765 283.492689 
L 1311.410532 274.689756 
L 1312.769298 239.42832 
L 1314.128064 264.530188 
L 1315.48683 261.750704 
L 1316.845597 261.898027 
L 1318.204363 271.130005 
L 1319.563129 277.578818 
L 1320.921895 270.500097 
L 1322.280662 242.804629 
L 1323.639428 262.253495 
L 1324.998194 259.593524 
L 1326.35696 259.925794 
" clip-path="url(#pad8203e521)" style="fill: none; stroke: #ff0000; stroke-width: 1.5; stroke-linecap: square"/>
   </g>
   <g id="patch_3">
    <path d="M 48.029688 368.3955 
L 48.029688 35.7555 
" style="fill: none; stroke: #000000; stroke-width: 0.8; stroke-linejoin: miter; stroke-linecap: square"/>
   </g>
   <g id="patch_4">
    <path d="M 1387.229688 368.3955 
L 1387.229688 35.7555 
" style="fill: none; stroke: #000000; stroke-width: 0.8; stroke-linejoin: miter; stroke-linecap: square"/>
   </g>
   <g id="patch_5">
    <path d="M 48.029687 368.3955 
L 1387.229687 368.3955 
" style="fill: none; stroke: #000000; stroke-width: 0.8; stroke-linejoin: miter; stroke-linecap: square"/>
   </g>
   <g id="patch_6">
    <path d="M 48.029687 35.7555 
L 1387.229687 35.7555 
" style="fill: none; stroke: #000000; stroke-width: 0.8; stroke-linejoin: miter; stroke-linecap: square"/>
   </g>
   <g id="text_18">
    <!-- Daily Confirmed Cases Forecasting - Tennessee -->
    <g transform="translate(575.860938 16.318125)scale(0.12 -0.12)">
     <defs>
      <path id="DejaVuSans-44" d="M 1259 4147 
L 1259 519 
L 2022 519 
Q 2988 519 3436 956 
Q 3884 1394 3884 2338 
Q 3884 3275 3436 3711 
Q 2988 4147 2022 4147 
L 1259 4147 
z
M 628 4666 
L 1925 4666 
Q 3281 4666 3915 4102 
Q 4550 3538 4550 2338 
Q 4550 1131 3912 565 
Q 3275 0 1925 0 
L 628 0 
L 628 4666 
z
" transform="scale(0.015625)"/>
      <path id="DejaVuSans-61" d="M 2194 1759 
Q 1497 1759 1228 1600 
Q 959 1441 959 1056 
Q 959 750 1161 570 
Q 1363 391 1709 391 
Q 2188 391 2477 730 
Q 2766 1069 2766 1631 
L 2766 1759 
L 2194 1759 
z
M 3341 1997 
L 3341 0 
L 2766 0 
L 2766 531 
Q 2569 213 2275 61 
Q 1981 -91 1556 -91 
Q 1019 -91 701 211 
Q 384 513 384 1019 
Q 384 1609 779 1909 
Q 1175 2209 1959 2209 
L 2766 2209 
L 2766 2266 
Q 2766 2663 2505 2880 
Q 2244 3097 1772 3097 
Q 1472 3097 1187 3025 
Q 903 2953 641 2809 
L 641 3341 
Q 956 3463 1253 3523 
Q 1550 3584 1831 3584 
Q 2591 3584 2966 3190 
Q 3341 2797 3341 1997 
z
" transform="scale(0.015625)"/>
      <path id="DejaVuSans-69" d="M 603 3500 
L 1178 3500 
L 1178 0 
L 603 0 
L 603 3500 
z
M 603 4863 
L 1178 4863 
L 1178 4134 
L 603 4134 
L 603 4863 
z
" transform="scale(0.015625)"/>
      <path id="DejaVuSans-6c" d="M 603 4863 
L 1178 4863 
L 1178 0 
L 603 0 
L 603 4863 
z
" transform="scale(0.015625)"/>
      <path id="DejaVuSans-79" d="M 2059 -325 
Q 1816 -950 1584 -1140 
Q 1353 -1331 966 -1331 
L 506 -1331 
L 506 -850 
L 844 -850 
Q 1081 -850 1212 -737 
Q 1344 -625 1503 -206 
L 1606 56 
L 191 3500 
L 800 3500 
L 1894 763 
L 2988 3500 
L 3597 3500 
L 2059 -325 
z
" transform="scale(0.015625)"/>
      <path id="DejaVuSans-20" transform="scale(0.015625)"/>
      <path id="DejaVuSans-43" d="M 4122 4306 
L 4122 3641 
Q 3803 3938 3442 4084 
Q 3081 4231 2675 4231 
Q 1875 4231 1450 3742 
Q 1025 3253 1025 2328 
Q 1025 1406 1450 917 
Q 1875 428 2675 428 
Q 3081 428 3442 575 
Q 3803 722 4122 1019 
L 4122 359 
Q 3791 134 3420 21 
Q 3050 -91 2638 -91 
Q 1578 -91 968 557 
Q 359 1206 359 2328 
Q 359 3453 968 4101 
Q 1578 4750 2638 4750 
Q 3056 4750 3426 4639 
Q 3797 4528 4122 4306 
z
" transform="scale(0.015625)"/>
      <path id="DejaVuSans-6f" d="M 1959 3097 
Q 1497 3097 1228 2736 
Q 959 2375 959 1747 
Q 959 1119 1226 758 
Q 1494 397 1959 397 
Q 2419 397 2687 759 
Q 2956 1122 2956 1747 
Q 2956 2369 2687 2733 
Q 2419 3097 1959 3097 
z
M 1959 3584 
Q 2709 3584 3137 3096 
Q 3566 2609 3566 1747 
Q 3566 888 3137 398 
Q 2709 -91 1959 -91 
Q 1206 -91 779 398 
Q 353 888 353 1747 
Q 353 2609 779 3096 
Q 1206 3584 1959 3584 
z
" transform="scale(0.015625)"/>
      <path id="DejaVuSans-6e" d="M 3513 2113 
L 3513 0 
L 2938 0 
L 2938 2094 
Q 2938 2591 2744 2837 
Q 2550 3084 2163 3084 
Q 1697 3084 1428 2787 
Q 1159 2491 1159 1978 
L 1159 0 
L 581 0 
L 581 3500 
L 1159 3500 
L 1159 2956 
Q 1366 3272 1645 3428 
Q 1925 3584 2291 3584 
Q 2894 3584 3203 3211 
Q 3513 2838 3513 2113 
z
" transform="scale(0.015625)"/>
      <path id="DejaVuSans-66" d="M 2375 4863 
L 2375 4384 
L 1825 4384 
Q 1516 4384 1395 4259 
Q 1275 4134 1275 3809 
L 1275 3500 
L 2222 3500 
L 2222 3053 
L 1275 3053 
L 1275 0 
L 697 0 
L 697 3053 
L 147 3053 
L 147 3500 
L 697 3500 
L 697 3744 
Q 697 4328 969 4595 
Q 1241 4863 1831 4863 
L 2375 4863 
z
" transform="scale(0.015625)"/>
      <path id="DejaVuSans-72" d="M 2631 2963 
Q 2534 3019 2420 3045 
Q 2306 3072 2169 3072 
Q 1681 3072 1420 2755 
Q 1159 2438 1159 1844 
L 1159 0 
L 581 0 
L 581 3500 
L 1159 3500 
L 1159 2956 
Q 1341 3275 1631 3429 
Q 1922 3584 2338 3584 
Q 2397 3584 2469 3576 
Q 2541 3569 2628 3553 
L 2631 2963 
z
" transform="scale(0.015625)"/>
      <path id="DejaVuSans-6d" d="M 3328 2828 
Q 3544 3216 3844 3400 
Q 4144 3584 4550 3584 
Q 5097 3584 5394 3201 
Q 5691 2819 5691 2113 
L 5691 0 
L 5113 0 
L 5113 2094 
Q 5113 2597 4934 2840 
Q 4756 3084 4391 3084 
Q 3944 3084 3684 2787 
Q 3425 2491 3425 1978 
L 3425 0 
L 2847 0 
L 2847 2094 
Q 2847 2600 2669 2842 
Q 2491 3084 2119 3084 
Q 1678 3084 1418 2786 
Q 1159 2488 1159 1978 
L 1159 0 
L 581 0 
L 581 3500 
L 1159 3500 
L 1159 2956 
Q 1356 3278 1631 3431 
Q 1906 3584 2284 3584 
Q 2666 3584 2933 3390 
Q 3200 3197 3328 2828 
z
" transform="scale(0.015625)"/>
      <path id="DejaVuSans-65" d="M 3597 1894 
L 3597 1613 
L 953 1613 
Q 991 1019 1311 708 
Q 1631 397 2203 397 
Q 2534 397 2845 478 
Q 3156 559 3463 722 
L 3463 178 
Q 3153 47 2828 -22 
Q 2503 -91 2169 -91 
Q 1331 -91 842 396 
Q 353 884 353 1716 
Q 353 2575 817 3079 
Q 1281 3584 2069 3584 
Q 2775 3584 3186 3129 
Q 3597 2675 3597 1894 
z
M 3022 2063 
Q 3016 2534 2758 2815 
Q 2500 3097 2075 3097 
Q 1594 3097 1305 2825 
Q 1016 2553 972 2059 
L 3022 2063 
z
" transform="scale(0.015625)"/>
      <path id="DejaVuSans-64" d="M 2906 2969 
L 2906 4863 
L 3481 4863 
L 3481 0 
L 2906 0 
L 2906 525 
Q 2725 213 2448 61 
Q 2172 -91 1784 -91 
Q 1150 -91 751 415 
Q 353 922 353 1747 
Q 353 2572 751 3078 
Q 1150 3584 1784 3584 
Q 2172 3584 2448 3432 
Q 2725 3281 2906 2969 
z
M 947 1747 
Q 947 1113 1208 752 
Q 1469 391 1925 391 
Q 2381 391 2643 752 
Q 2906 1113 2906 1747 
Q 2906 2381 2643 2742 
Q 2381 3103 1925 3103 
Q 1469 3103 1208 2742 
Q 947 2381 947 1747 
z
" transform="scale(0.015625)"/>
      <path id="DejaVuSans-73" d="M 2834 3397 
L 2834 2853 
Q 2591 2978 2328 3040 
Q 2066 3103 1784 3103 
Q 1356 3103 1142 2972 
Q 928 2841 928 2578 
Q 928 2378 1081 2264 
Q 1234 2150 1697 2047 
L 1894 2003 
Q 2506 1872 2764 1633 
Q 3022 1394 3022 966 
Q 3022 478 2636 193 
Q 2250 -91 1575 -91 
Q 1294 -91 989 -36 
Q 684 19 347 128 
L 347 722 
Q 666 556 975 473 
Q 1284 391 1588 391 
Q 1994 391 2212 530 
Q 2431 669 2431 922 
Q 2431 1156 2273 1281 
Q 2116 1406 1581 1522 
L 1381 1569 
Q 847 1681 609 1914 
Q 372 2147 372 2553 
Q 372 3047 722 3315 
Q 1072 3584 1716 3584 
Q 2034 3584 2315 3537 
Q 2597 3491 2834 3397 
z
" transform="scale(0.015625)"/>
      <path id="DejaVuSans-46" d="M 628 4666 
L 3309 4666 
L 3309 4134 
L 1259 4134 
L 1259 2759 
L 3109 2759 
L 3109 2228 
L 1259 2228 
L 1259 0 
L 628 0 
L 628 4666 
z
" transform="scale(0.015625)"/>
      <path id="DejaVuSans-63" d="M 3122 3366 
L 3122 2828 
Q 2878 2963 2633 3030 
Q 2388 3097 2138 3097 
Q 1578 3097 1268 2742 
Q 959 2388 959 1747 
Q 959 1106 1268 751 
Q 1578 397 2138 397 
Q 2388 397 2633 464 
Q 2878 531 3122 666 
L 3122 134 
Q 2881 22 2623 -34 
Q 2366 -91 2075 -91 
Q 1284 -91 818 406 
Q 353 903 353 1747 
Q 353 2603 823 3093 
Q 1294 3584 2113 3584 
Q 2378 3584 2631 3529 
Q 2884 3475 3122 3366 
z
" transform="scale(0.015625)"/>
      <path id="DejaVuSans-74" d="M 1172 4494 
L 1172 3500 
L 2356 3500 
L 2356 3053 
L 1172 3053 
L 1172 1153 
Q 1172 725 1289 603 
Q 1406 481 1766 481 
L 2356 481 
L 2356 0 
L 1766 0 
Q 1100 0 847 248 
Q 594 497 594 1153 
L 594 3053 
L 172 3053 
L 172 3500 
L 594 3500 
L 594 4494 
L 1172 4494 
z
" transform="scale(0.015625)"/>
      <path id="DejaVuSans-67" d="M 2906 1791 
Q 2906 2416 2648 2759 
Q 2391 3103 1925 3103 
Q 1463 3103 1205 2759 
Q 947 2416 947 1791 
Q 947 1169 1205 825 
Q 1463 481 1925 481 
Q 2391 481 2648 825 
Q 2906 1169 2906 1791 
z
M 3481 434 
Q 3481 -459 3084 -895 
Q 2688 -1331 1869 -1331 
Q 1566 -1331 1297 -1286 
Q 1028 -1241 775 -1147 
L 775 -588 
Q 1028 -725 1275 -790 
Q 1522 -856 1778 -856 
Q 2344 -856 2625 -561 
Q 2906 -266 2906 331 
L 2906 616 
Q 2728 306 2450 153 
Q 2172 0 1784 0 
Q 1141 0 747 490 
Q 353 981 353 1791 
Q 353 2603 747 3093 
Q 1141 3584 1784 3584 
Q 2172 3584 2450 3431 
Q 2728 3278 2906 2969 
L 2906 3500 
L 3481 3500 
L 3481 434 
z
" transform="scale(0.015625)"/>
      <path id="DejaVuSans-54" d="M -19 4666 
L 3928 4666 
L 3928 4134 
L 2272 4134 
L 2272 0 
L 1638 0 
L 1638 4134 
L -19 4134 
L -19 4666 
z
" transform="scale(0.015625)"/>
     </defs>
     <use xlink:href="#DejaVuSans-44"/>
     <use xlink:href="#DejaVuSans-61" x="77.001953"/>
     <use xlink:href="#DejaVuSans-69" x="138.28125"/>
     <use xlink:href="#DejaVuSans-6c" x="166.064453"/>
     <use xlink:href="#DejaVuSans-79" x="193.847656"/>
     <use xlink:href="#DejaVuSans-20" x="253.027344"/>
     <use xlink:href="#DejaVuSans-43" x="284.814453"/>
     <use xlink:href="#DejaVuSans-6f" x="354.638672"/>
     <use xlink:href="#DejaVuSans-6e" x="415.820312"/>
     <use xlink:href="#DejaVuSans-66" x="479.199219"/>
     <use xlink:href="#DejaVuSans-69" x="514.404297"/>
     <use xlink:href="#DejaVuSans-72" x="542.1875"/>
     <use xlink:href="#DejaVuSans-6d" x="581.550781"/>
     <use xlink:href="#DejaVuSans-65" x="678.962891"/>
     <use xlink:href="#DejaVuSans-64" x="740.486328"/>
     <use xlink:href="#DejaVuSans-20" x="803.962891"/>
     <use xlink:href="#DejaVuSans-43" x="835.75"/>
     <use xlink:href="#DejaVuSans-61" x="905.574219"/>
     <use xlink:href="#DejaVuSans-73" x="966.853516"/>
     <use xlink:href="#DejaVuSans-65" x="1018.953125"/>
     <use xlink:href="#DejaVuSans-73" x="1080.476562"/>
     <use xlink:href="#DejaVuSans-20" x="1132.576172"/>
     <use xlink:href="#DejaVuSans-46" x="1164.363281"/>
     <use xlink:href="#DejaVuSans-6f" x="1218.257812"/>
     <use xlink:href="#DejaVuSans-72" x="1279.439453"/>
     <use xlink:href="#DejaVuSans-65" x="1318.302734"/>
     <use xlink:href="#DejaVuSans-63" x="1379.826172"/>
     <use xlink:href="#DejaVuSans-61" x="1434.806641"/>
     <use xlink:href="#DejaVuSans-73" x="1496.085938"/>
     <use xlink:href="#DejaVuSans-74" x="1548.185547"/>
     <use xlink:href="#DejaVuSans-69" x="1587.394531"/>
     <use xlink:href="#DejaVuSans-6e" x="1615.177734"/>
     <use xlink:href="#DejaVuSans-67" x="1678.556641"/>
     <use xlink:href="#DejaVuSans-20" x="1742.033203"/>
     <use xlink:href="#DejaVuSans-2d" x="1773.820312"/>
     <use xlink:href="#DejaVuSans-20" x="1809.904297"/>
     <use xlink:href="#DejaVuSans-54" x="1841.691406"/>
     <use xlink:href="#DejaVuSans-65" x="1885.775391"/>
     <use xlink:href="#DejaVuSans-6e" x="1947.298828"/>
     <use xlink:href="#DejaVuSans-6e" x="2010.677734"/>
     <use xlink:href="#DejaVuSans-65" x="2074.056641"/>
     <use xlink:href="#DejaVuSans-73" x="2135.580078"/>
     <use xlink:href="#DejaVuSans-73" x="2187.679688"/>
     <use xlink:href="#DejaVuSans-65" x="2239.779297"/>
     <use xlink:href="#DejaVuSans-65" x="2301.302734"/>
    </g>
    <!-- ARIMA (4, 1, 1)x(1, 0, 1, 7) (R2 = 0.912298) -->
    <g transform="translate(585.645625 29.7555)scale(0.12 -0.12)">
     <defs>
      <path id="DejaVuSans-41" d="M 2188 4044 
L 1331 1722 
L 3047 1722 
L 2188 4044 
z
M 1831 4666 
L 2547 4666 
L 4325 0 
L 3669 0 
L 3244 1197 
L 1141 1197 
L 716 0 
L 50 0 
L 1831 4666 
z
" transform="scale(0.015625)"/>
      <path id="DejaVuSans-52" d="M 2841 2188 
Q 3044 2119 3236 1894 
Q 3428 1669 3622 1275 
L 4263 0 
L 3584 0 
L 2988 1197 
Q 2756 1666 2539 1819 
Q 2322 1972 1947 1972 
L 1259 1972 
L 1259 0 
L 628 0 
L 628 4666 
L 2053 4666 
Q 2853 4666 3247 4331 
Q 3641 3997 3641 3322 
Q 3641 2881 3436 2590 
Q 3231 2300 2841 2188 
z
M 1259 4147 
L 1259 2491 
L 2053 2491 
Q 2509 2491 2742 2702 
Q 2975 2913 2975 3322 
Q 2975 3731 2742 3939 
Q 2509 4147 2053 4147 
L 1259 4147 
z
" transform="scale(0.015625)"/>
      <path id="DejaVuSans-49" d="M 628 4666 
L 1259 4666 
L 1259 0 
L 628 0 
L 628 4666 
z
" transform="scale(0.015625)"/>
      <path id="DejaVuSans-4d" d="M 628 4666 
L 1569 4666 
L 2759 1491 
L 3956 4666 
L 4897 4666 
L 4897 0 
L 4281 0 
L 4281 4097 
L 3078 897 
L 2444 897 
L 1241 4097 
L 1241 0 
L 628 0 
L 628 4666 
z
" transform="scale(0.015625)"/>
      <path id="DejaVuSans-28" d="M 1984 4856 
Q 1566 4138 1362 3434 
Q 1159 2731 1159 2009 
Q 1159 1288 1364 580 
Q 1569 -128 1984 -844 
L 1484 -844 
Q 1016 -109 783 600 
Q 550 1309 550 2009 
Q 550 2706 781 3412 
Q 1013 4119 1484 4856 
L 1984 4856 
z
" transform="scale(0.015625)"/>
      <path id="DejaVuSans-2c" d="M 750 794 
L 1409 794 
L 1409 256 
L 897 -744 
L 494 -744 
L 750 256 
L 750 794 
z
" transform="scale(0.015625)"/>
      <path id="DejaVuSans-29" d="M 513 4856 
L 1013 4856 
Q 1481 4119 1714 3412 
Q 1947 2706 1947 2009 
Q 1947 1309 1714 600 
Q 1481 -109 1013 -844 
L 513 -844 
Q 928 -128 1133 580 
Q 1338 1288 1338 2009 
Q 1338 2731 1133 3434 
Q 928 4138 513 4856 
z
" transform="scale(0.015625)"/>
      <path id="DejaVuSans-78" d="M 3513 3500 
L 2247 1797 
L 3578 0 
L 2900 0 
L 1881 1375 
L 863 0 
L 184 0 
L 1544 1831 
L 300 3500 
L 978 3500 
L 1906 2253 
L 2834 3500 
L 3513 3500 
z
" transform="scale(0.015625)"/>
      <path id="DejaVuSans-3d" d="M 678 2906 
L 4684 2906 
L 4684 2381 
L 678 2381 
L 678 2906 
z
M 678 1631 
L 4684 1631 
L 4684 1100 
L 678 1100 
L 678 1631 
z
" transform="scale(0.015625)"/>
      <path id="DejaVuSans-2e" d="M 684 794 
L 1344 794 
L 1344 0 
L 684 0 
L 684 794 
z
" transform="scale(0.015625)"/>
      <path id="DejaVuSans-39" d="M 703 97 
L 703 672 
Q 941 559 1184 500 
Q 1428 441 1663 441 
Q 2288 441 2617 861 
Q 2947 1281 2994 2138 
Q 2813 1869 2534 1725 
Q 2256 1581 1919 1581 
Q 1219 1581 811 2004 
Q 403 2428 403 3163 
Q 403 3881 828 4315 
Q 1253 4750 1959 4750 
Q 2769 4750 3195 4129 
Q 3622 3509 3622 2328 
Q 3622 1225 3098 567 
Q 2575 -91 1691 -91 
Q 1453 -91 1209 -44 
Q 966 3 703 97 
z
M 1959 2075 
Q 2384 2075 2632 2365 
Q 2881 2656 2881 3163 
Q 2881 3666 2632 3958 
Q 2384 4250 1959 4250 
Q 1534 4250 1286 3958 
Q 1038 3666 1038 3163 
Q 1038 2656 1286 2365 
Q 1534 2075 1959 2075 
z
" transform="scale(0.015625)"/>
      <path id="DejaVuSans-38" d="M 2034 2216 
Q 1584 2216 1326 1975 
Q 1069 1734 1069 1313 
Q 1069 891 1326 650 
Q 1584 409 2034 409 
Q 2484 409 2743 651 
Q 3003 894 3003 1313 
Q 3003 1734 2745 1975 
Q 2488 2216 2034 2216 
z
M 1403 2484 
Q 997 2584 770 2862 
Q 544 3141 544 3541 
Q 544 4100 942 4425 
Q 1341 4750 2034 4750 
Q 2731 4750 3128 4425 
Q 3525 4100 3525 3541 
Q 3525 3141 3298 2862 
Q 3072 2584 2669 2484 
Q 3125 2378 3379 2068 
Q 3634 1759 3634 1313 
Q 3634 634 3220 271 
Q 2806 -91 2034 -91 
Q 1263 -91 848 271 
Q 434 634 434 1313 
Q 434 1759 690 2068 
Q 947 2378 1403 2484 
z
M 1172 3481 
Q 1172 3119 1398 2916 
Q 1625 2713 2034 2713 
Q 2441 2713 2670 2916 
Q 2900 3119 2900 3481 
Q 2900 3844 2670 4047 
Q 2441 4250 2034 4250 
Q 1625 4250 1398 4047 
Q 1172 3844 1172 3481 
z
" transform="scale(0.015625)"/>
     </defs>
     <use xlink:href="#DejaVuSans-41"/>
     <use xlink:href="#DejaVuSans-52" x="68.408203"/>
     <use xlink:href="#DejaVuSans-49" x="137.890625"/>
     <use xlink:href="#DejaVuSans-4d" x="167.382812"/>
     <use xlink:href="#DejaVuSans-41" x="253.662109"/>
     <use xlink:href="#DejaVuSans-20" x="322.070312"/>
     <use xlink:href="#DejaVuSans-28" x="353.857422"/>
     <use xlink:href="#DejaVuSans-34" x="392.871094"/>
     <use xlink:href="#DejaVuSans-2c" x="456.494141"/>
     <use xlink:href="#DejaVuSans-20" x="488.28125"/>
     <use xlink:href="#DejaVuSans-31" x="520.068359"/>
     <use xlink:href="#DejaVuSans-2c" x="583.691406"/>
     <use xlink:href="#DejaVuSans-20" x="615.478516"/>
     <use xlink:href="#DejaVuSans-31" x="647.265625"/>
     <use xlink:href="#DejaVuSans-29" x="710.888672"/>
     <use xlink:href="#DejaVuSans-78" x="749.902344"/>
     <use xlink:href="#DejaVuSans-28" x="809.082031"/>
     <use xlink:href="#DejaVuSans-31" x="848.095703"/>
     <use xlink:href="#DejaVuSans-2c" x="911.71875"/>
     <use xlink:href="#DejaVuSans-20" x="943.505859"/>
     <use xlink:href="#DejaVuSans-30" x="975.292969"/>
     <use xlink:href="#DejaVuSans-2c" x="1038.916016"/>
     <use xlink:href="#DejaVuSans-20" x="1070.703125"/>
     <use xlink:href="#DejaVuSans-31" x="1102.490234"/>
     <use xlink:href="#DejaVuSans-2c" x="1166.113281"/>
     <use xlink:href="#DejaVuSans-20" x="1197.900391"/>
     <use xlink:href="#DejaVuSans-37" x="1229.6875"/>
     <use xlink:href="#DejaVuSans-29" x="1293.310547"/>
     <use xlink:href="#DejaVuSans-20" x="1332.324219"/>
     <use xlink:href="#DejaVuSans-28" x="1364.111328"/>
     <use xlink:href="#DejaVuSans-52" x="1403.125"/>
     <use xlink:href="#DejaVuSans-32" x="1472.607422"/>
     <use xlink:href="#DejaVuSans-20" x="1536.230469"/>
     <use xlink:href="#DejaVuSans-3d" x="1568.017578"/>
     <use xlink:href="#DejaVuSans-20" x="1651.806641"/>
     <use xlink:href="#DejaVuSans-30" x="1683.59375"/>
     <use xlink:href="#DejaVuSans-2e" x="1747.216797"/>
     <use xlink:href="#DejaVuSans-39" x="1779.003906"/>
     <use xlink:href="#DejaVuSans-31" x="1842.626953"/>
     <use xlink:href="#DejaVuSans-32" x="1906.25"/>
     <use xlink:href="#DejaVuSans-32" x="1969.873047"/>
     <use xlink:href="#DejaVuSans-39" x="2033.496094"/>
     <use xlink:href="#DejaVuSans-38" x="2097.119141"/>
     <use xlink:href="#DejaVuSans-29" x="2160.742188"/>
    </g>
   </g>
   <g id="legend_1">
    <g id="patch_7">
     <path d="M 1283.15 87.789875 
L 1380.229688 87.789875 
Q 1382.229688 87.789875 1382.229688 85.789875 
L 1382.229688 42.7555 
Q 1382.229688 40.7555 1380.229688 40.7555 
L 1283.15 40.7555 
Q 1281.15 40.7555 1281.15 42.7555 
L 1281.15 85.789875 
Q 1281.15 87.789875 1283.15 87.789875 
z
" style="fill: #ffffff; opacity: 0.8; stroke: #cccccc; stroke-linejoin: miter"/>
    </g>
    <g id="line2d_21">
     <path d="M 1285.15 48.853937 
L 1295.15 48.853937 
L 1305.15 48.853937 
" style="fill: none; stroke: #0000ff; stroke-width: 1.5; stroke-linecap: square"/>
    </g>
    <g id="text_19">
     <!-- Actual Value -->
     <g transform="translate(1313.15 52.353937)scale(0.1 -0.1)">
      <defs>
       <path id="DejaVuSans-75" d="M 544 1381 
L 544 3500 
L 1119 3500 
L 1119 1403 
Q 1119 906 1312 657 
Q 1506 409 1894 409 
Q 2359 409 2629 706 
Q 2900 1003 2900 1516 
L 2900 3500 
L 3475 3500 
L 3475 0 
L 2900 0 
L 2900 538 
Q 2691 219 2414 64 
Q 2138 -91 1772 -91 
Q 1169 -91 856 284 
Q 544 659 544 1381 
z
M 1991 3584 
L 1991 3584 
z
" transform="scale(0.015625)"/>
       <path id="DejaVuSans-56" d="M 1831 0 
L 50 4666 
L 709 4666 
L 2188 738 
L 3669 4666 
L 4325 4666 
L 2547 0 
L 1831 0 
z
" transform="scale(0.015625)"/>
      </defs>
      <use xlink:href="#DejaVuSans-41"/>
      <use xlink:href="#DejaVuSans-63" x="66.658203"/>
      <use xlink:href="#DejaVuSans-74" x="121.638672"/>
      <use xlink:href="#DejaVuSans-75" x="160.847656"/>
      <use xlink:href="#DejaVuSans-61" x="224.226562"/>
      <use xlink:href="#DejaVuSans-6c" x="285.505859"/>
      <use xlink:href="#DejaVuSans-20" x="313.289062"/>
      <use xlink:href="#DejaVuSans-56" x="345.076172"/>
      <use xlink:href="#DejaVuSans-61" x="405.734375"/>
      <use xlink:href="#DejaVuSans-6c" x="467.013672"/>
      <use xlink:href="#DejaVuSans-75" x="494.796875"/>
      <use xlink:href="#DejaVuSans-65" x="558.175781"/>
     </g>
    </g>
    <g id="line2d_22">
     <path d="M 1285.15 63.532062 
L 1295.15 63.532062 
L 1305.15 63.532062 
" style="fill: none; stroke: #ffa500; stroke-width: 1.5; stroke-linecap: square"/>
    </g>
    <g id="text_20">
     <!-- Check Value -->
     <g transform="translate(1313.15 67.032062)scale(0.1 -0.1)">
      <defs>
       <path id="DejaVuSans-68" d="M 3513 2113 
L 3513 0 
L 2938 0 
L 2938 2094 
Q 2938 2591 2744 2837 
Q 2550 3084 2163 3084 
Q 1697 3084 1428 2787 
Q 1159 2491 1159 1978 
L 1159 0 
L 581 0 
L 581 4863 
L 1159 4863 
L 1159 2956 
Q 1366 3272 1645 3428 
Q 1925 3584 2291 3584 
Q 2894 3584 3203 3211 
Q 3513 2838 3513 2113 
z
" transform="scale(0.015625)"/>
       <path id="DejaVuSans-6b" d="M 581 4863 
L 1159 4863 
L 1159 1991 
L 2875 3500 
L 3609 3500 
L 1753 1863 
L 3688 0 
L 2938 0 
L 1159 1709 
L 1159 0 
L 581 0 
L 581 4863 
z
" transform="scale(0.015625)"/>
      </defs>
      <use xlink:href="#DejaVuSans-43"/>
      <use xlink:href="#DejaVuSans-68" x="69.824219"/>
      <use xlink:href="#DejaVuSans-65" x="133.203125"/>
      <use xlink:href="#DejaVuSans-63" x="194.726562"/>
      <use xlink:href="#DejaVuSans-6b" x="249.707031"/>
      <use xlink:href="#DejaVuSans-20" x="307.617188"/>
      <use xlink:href="#DejaVuSans-56" x="339.404297"/>
      <use xlink:href="#DejaVuSans-61" x="400.0625"/>
      <use xlink:href="#DejaVuSans-6c" x="461.341797"/>
      <use xlink:href="#DejaVuSans-75" x="489.125"/>
      <use xlink:href="#DejaVuSans-65" x="552.503906"/>
     </g>
    </g>
    <g id="line2d_23">
     <path d="M 1285.15 78.210187 
L 1295.15 78.210187 
L 1305.15 78.210187 
" style="fill: none; stroke: #ff0000; stroke-width: 1.5; stroke-linecap: square"/>
    </g>
    <g id="text_21">
     <!-- Predict Value -->
     <g transform="translate(1313.15 81.710187)scale(0.1 -0.1)">
      <defs>
       <path id="DejaVuSans-50" d="M 1259 4147 
L 1259 2394 
L 2053 2394 
Q 2494 2394 2734 2622 
Q 2975 2850 2975 3272 
Q 2975 3691 2734 3919 
Q 2494 4147 2053 4147 
L 1259 4147 
z
M 628 4666 
L 2053 4666 
Q 2838 4666 3239 4311 
Q 3641 3956 3641 3272 
Q 3641 2581 3239 2228 
Q 2838 1875 2053 1875 
L 1259 1875 
L 1259 0 
L 628 0 
L 628 4666 
z
" transform="scale(0.015625)"/>
      </defs>
      <use xlink:href="#DejaVuSans-50"/>
      <use xlink:href="#DejaVuSans-72" x="58.552734"/>
      <use xlink:href="#DejaVuSans-65" x="97.416016"/>
      <use xlink:href="#DejaVuSans-64" x="158.939453"/>
      <use xlink:href="#DejaVuSans-69" x="222.416016"/>
      <use xlink:href="#DejaVuSans-63" x="250.199219"/>
      <use xlink:href="#DejaVuSans-74" x="305.179688"/>
      <use xlink:href="#DejaVuSans-20" x="344.388672"/>
      <use xlink:href="#DejaVuSans-56" x="376.175781"/>
      <use xlink:href="#DejaVuSans-61" x="436.833984"/>
      <use xlink:href="#DejaVuSans-6c" x="498.113281"/>
      <use xlink:href="#DejaVuSans-75" x="525.896484"/>
      <use xlink:href="#DejaVuSans-65" x="589.275391"/>
     </g>
    </g>
   </g>
  </g>
 </g>
 <defs>
  <clipPath id="pad8203e521">
   <rect x="48.029688" y="35.7555" width="1339.2" height="332.64"/>
  </clipPath>
 </defs>
</svg>
