<?xml version="1.0" encoding="utf-8" standalone="no"?>
<!DOCTYPE svg PUBLIC "-//W3C//DTD SVG 1.1//EN"
  "http://www.w3.org/Graphics/SVG/1.1/DTD/svg11.dtd">
<svg xmlns:xlink="http://www.w3.org/1999/xlink" width="1392.4125pt" height="392.273625pt" viewBox="0 0 1392.4125 392.273625" xmlns="http://www.w3.org/2000/svg" version="1.1">
 <metadata>
  <rdf:RDF xmlns:dc="http://purl.org/dc/elements/1.1/" xmlns:cc="http://creativecommons.org/ns#" xmlns:rdf="http://www.w3.org/1999/02/22-rdf-syntax-ns#">
   <cc:Work>
    <dc:type rdf:resource="http://purl.org/dc/dcmitype/StillImage"/>
    <dc:date>2022-07-08T17:32:35.307606</dc:date>
    <dc:format>image/svg+xml</dc:format>
    <dc:creator>
     <cc:Agent>
      <dc:title>Matplotlib v3.5.2, https://matplotlib.org/</dc:title>
     </cc:Agent>
    </dc:creator>
   </cc:Work>
  </rdf:RDF>
 </metadata>
 <defs>
  <style type="text/css">*{stroke-linejoin: round; stroke-linecap: butt}</style>
 </defs>
 <g id="figure_1">
  <g id="patch_1">
   <path d="M 0 392.273625 
L 1392.4125 392.273625 
L 1392.4125 0 
L 0 0 
z
" style="fill: #ffffff"/>
  </g>
  <g id="axes_1">
   <g id="patch_2">
    <path d="M 46.0125 368.3955 
L 1385.2125 368.3955 
L 1385.2125 35.7555 
L 46.0125 35.7555 
z
" style="fill: #ffffff"/>
   </g>
   <g id="matplotlib.axis_1">
    <g id="xtick_1">
     <g id="line2d_1">
      <defs>
       <path id="mc25633daf2" d="M 0 0 
L 0 3.5 
" style="stroke: #000000; stroke-width: 0.8"/>
      </defs>
      <g>
       <use xlink:href="#mc25633daf2" x="77.419881" y="368.3955" style="stroke: #000000; stroke-width: 0.8"/>
      </g>
     </g>
     <g id="text_1">
      <!-- 2020-01 -->
      <g transform="translate(56.528474 382.993937)scale(0.1 -0.1)">
       <defs>
        <path id="DejaVuSans-32" d="M 1228 531 
L 3431 531 
L 3431 0 
L 469 0 
L 469 531 
Q 828 903 1448 1529 
Q 2069 2156 2228 2338 
Q 2531 2678 2651 2914 
Q 2772 3150 2772 3378 
Q 2772 3750 2511 3984 
Q 2250 4219 1831 4219 
Q 1534 4219 1204 4116 
Q 875 4013 500 3803 
L 500 4441 
Q 881 4594 1212 4672 
Q 1544 4750 1819 4750 
Q 2544 4750 2975 4387 
Q 3406 4025 3406 3419 
Q 3406 3131 3298 2873 
Q 3191 2616 2906 2266 
Q 2828 2175 2409 1742 
Q 1991 1309 1228 531 
z
" transform="scale(0.015625)"/>
        <path id="DejaVuSans-30" d="M 2034 4250 
Q 1547 4250 1301 3770 
Q 1056 3291 1056 2328 
Q 1056 1369 1301 889 
Q 1547 409 2034 409 
Q 2525 409 2770 889 
Q 3016 1369 3016 2328 
Q 3016 3291 2770 3770 
Q 2525 4250 2034 4250 
z
M 2034 4750 
Q 2819 4750 3233 4129 
Q 3647 3509 3647 2328 
Q 3647 1150 3233 529 
Q 2819 -91 2034 -91 
Q 1250 -91 836 529 
Q 422 1150 422 2328 
Q 422 3509 836 4129 
Q 1250 4750 2034 4750 
z
" transform="scale(0.015625)"/>
        <path id="DejaVuSans-2d" d="M 313 2009 
L 1997 2009 
L 1997 1497 
L 313 1497 
L 313 2009 
z
" transform="scale(0.015625)"/>
        <path id="DejaVuSans-31" d="M 794 531 
L 1825 531 
L 1825 4091 
L 703 3866 
L 703 4441 
L 1819 4666 
L 2450 4666 
L 2450 531 
L 3481 531 
L 3481 0 
L 794 0 
L 794 531 
z
" transform="scale(0.015625)"/>
       </defs>
       <use xlink:href="#DejaVuSans-32"/>
       <use xlink:href="#DejaVuSans-30" x="63.623047"/>
       <use xlink:href="#DejaVuSans-32" x="127.246094"/>
       <use xlink:href="#DejaVuSans-30" x="190.869141"/>
       <use xlink:href="#DejaVuSans-2d" x="254.492188"/>
       <use xlink:href="#DejaVuSans-30" x="290.576172"/>
       <use xlink:href="#DejaVuSans-31" x="354.199219"/>
      </g>
     </g>
    </g>
    <g id="xtick_2">
     <g id="line2d_2">
      <g>
       <use xlink:href="#mc25633daf2" x="199.299269" y="368.3955" style="stroke: #000000; stroke-width: 0.8"/>
      </g>
     </g>
     <g id="text_2">
      <!-- 2020-04 -->
      <g transform="translate(178.407862 382.993937)scale(0.1 -0.1)">
       <defs>
        <path id="DejaVuSans-34" d="M 2419 4116 
L 825 1625 
L 2419 1625 
L 2419 4116 
z
M 2253 4666 
L 3047 4666 
L 3047 1625 
L 3713 1625 
L 3713 1100 
L 3047 1100 
L 3047 0 
L 2419 0 
L 2419 1100 
L 313 1100 
L 313 1709 
L 2253 4666 
z
" transform="scale(0.015625)"/>
       </defs>
       <use xlink:href="#DejaVuSans-32"/>
       <use xlink:href="#DejaVuSans-30" x="63.623047"/>
       <use xlink:href="#DejaVuSans-32" x="127.246094"/>
       <use xlink:href="#DejaVuSans-30" x="190.869141"/>
       <use xlink:href="#DejaVuSans-2d" x="254.492188"/>
       <use xlink:href="#DejaVuSans-30" x="290.576172"/>
       <use xlink:href="#DejaVuSans-34" x="354.199219"/>
      </g>
     </g>
    </g>
    <g id="xtick_3">
     <g id="line2d_3">
      <g>
       <use xlink:href="#mc25633daf2" x="321.178657" y="368.3955" style="stroke: #000000; stroke-width: 0.8"/>
      </g>
     </g>
     <g id="text_3">
      <!-- 2020-07 -->
      <g transform="translate(300.28725 382.993937)scale(0.1 -0.1)">
       <defs>
        <path id="DejaVuSans-37" d="M 525 4666 
L 3525 4666 
L 3525 4397 
L 1831 0 
L 1172 0 
L 2766 4134 
L 525 4134 
L 525 4666 
z
" transform="scale(0.015625)"/>
       </defs>
       <use xlink:href="#DejaVuSans-32"/>
       <use xlink:href="#DejaVuSans-30" x="63.623047"/>
       <use xlink:href="#DejaVuSans-32" x="127.246094"/>
       <use xlink:href="#DejaVuSans-30" x="190.869141"/>
       <use xlink:href="#DejaVuSans-2d" x="254.492188"/>
       <use xlink:href="#DejaVuSans-30" x="290.576172"/>
       <use xlink:href="#DejaVuSans-37" x="354.199219"/>
      </g>
     </g>
    </g>
    <g id="xtick_4">
     <g id="line2d_4">
      <g>
       <use xlink:href="#mc25633daf2" x="444.397378" y="368.3955" style="stroke: #000000; stroke-width: 0.8"/>
      </g>
     </g>
     <g id="text_4">
      <!-- 2020-10 -->
      <g transform="translate(423.505972 382.993937)scale(0.1 -0.1)">
       <use xlink:href="#DejaVuSans-32"/>
       <use xlink:href="#DejaVuSans-30" x="63.623047"/>
       <use xlink:href="#DejaVuSans-32" x="127.246094"/>
       <use xlink:href="#DejaVuSans-30" x="190.869141"/>
       <use xlink:href="#DejaVuSans-2d" x="254.492188"/>
       <use xlink:href="#DejaVuSans-31" x="290.576172"/>
       <use xlink:href="#DejaVuSans-30" x="354.199219"/>
      </g>
     </g>
    </g>
    <g id="xtick_5">
     <g id="line2d_5">
      <g>
       <use xlink:href="#mc25633daf2" x="567.6161" y="368.3955" style="stroke: #000000; stroke-width: 0.8"/>
      </g>
     </g>
     <g id="text_5">
      <!-- 2021-01 -->
      <g transform="translate(546.724694 382.993937)scale(0.1 -0.1)">
       <use xlink:href="#DejaVuSans-32"/>
       <use xlink:href="#DejaVuSans-30" x="63.623047"/>
       <use xlink:href="#DejaVuSans-32" x="127.246094"/>
       <use xlink:href="#DejaVuSans-31" x="190.869141"/>
       <use xlink:href="#DejaVuSans-2d" x="254.492188"/>
       <use xlink:href="#DejaVuSans-30" x="290.576172"/>
       <use xlink:href="#DejaVuSans-31" x="354.199219"/>
      </g>
     </g>
    </g>
    <g id="xtick_6">
     <g id="line2d_6">
      <g>
       <use xlink:href="#mc25633daf2" x="688.156154" y="368.3955" style="stroke: #000000; stroke-width: 0.8"/>
      </g>
     </g>
     <g id="text_6">
      <!-- 2021-04 -->
      <g transform="translate(667.264748 382.993937)scale(0.1 -0.1)">
       <use xlink:href="#DejaVuSans-32"/>
       <use xlink:href="#DejaVuSans-30" x="63.623047"/>
       <use xlink:href="#DejaVuSans-32" x="127.246094"/>
       <use xlink:href="#DejaVuSans-31" x="190.869141"/>
       <use xlink:href="#DejaVuSans-2d" x="254.492188"/>
       <use xlink:href="#DejaVuSans-30" x="290.576172"/>
       <use xlink:href="#DejaVuSans-34" x="354.199219"/>
      </g>
     </g>
    </g>
    <g id="xtick_7">
     <g id="line2d_7">
      <g>
       <use xlink:href="#mc25633daf2" x="810.035542" y="368.3955" style="stroke: #000000; stroke-width: 0.8"/>
      </g>
     </g>
     <g id="text_7">
      <!-- 2021-07 -->
      <g transform="translate(789.144136 382.993937)scale(0.1 -0.1)">
       <use xlink:href="#DejaVuSans-32"/>
       <use xlink:href="#DejaVuSans-30" x="63.623047"/>
       <use xlink:href="#DejaVuSans-32" x="127.246094"/>
       <use xlink:href="#DejaVuSans-31" x="190.869141"/>
       <use xlink:href="#DejaVuSans-2d" x="254.492188"/>
       <use xlink:href="#DejaVuSans-30" x="290.576172"/>
       <use xlink:href="#DejaVuSans-37" x="354.199219"/>
      </g>
     </g>
    </g>
    <g id="xtick_8">
     <g id="line2d_8">
      <g>
       <use xlink:href="#mc25633daf2" x="933.254264" y="368.3955" style="stroke: #000000; stroke-width: 0.8"/>
      </g>
     </g>
     <g id="text_8">
      <!-- 2021-10 -->
      <g transform="translate(912.362858 382.993937)scale(0.1 -0.1)">
       <use xlink:href="#DejaVuSans-32"/>
       <use xlink:href="#DejaVuSans-30" x="63.623047"/>
       <use xlink:href="#DejaVuSans-32" x="127.246094"/>
       <use xlink:href="#DejaVuSans-31" x="190.869141"/>
       <use xlink:href="#DejaVuSans-2d" x="254.492188"/>
       <use xlink:href="#DejaVuSans-31" x="290.576172"/>
       <use xlink:href="#DejaVuSans-30" x="354.199219"/>
      </g>
     </g>
    </g>
    <g id="xtick_9">
     <g id="line2d_9">
      <g>
       <use xlink:href="#mc25633daf2" x="1056.472986" y="368.3955" style="stroke: #000000; stroke-width: 0.8"/>
      </g>
     </g>
     <g id="text_9">
      <!-- 2022-01 -->
      <g transform="translate(1035.58158 382.993937)scale(0.1 -0.1)">
       <use xlink:href="#DejaVuSans-32"/>
       <use xlink:href="#DejaVuSans-30" x="63.623047"/>
       <use xlink:href="#DejaVuSans-32" x="127.246094"/>
       <use xlink:href="#DejaVuSans-32" x="190.869141"/>
       <use xlink:href="#DejaVuSans-2d" x="254.492188"/>
       <use xlink:href="#DejaVuSans-30" x="290.576172"/>
       <use xlink:href="#DejaVuSans-31" x="354.199219"/>
      </g>
     </g>
    </g>
    <g id="xtick_10">
     <g id="line2d_10">
      <g>
       <use xlink:href="#mc25633daf2" x="1177.01304" y="368.3955" style="stroke: #000000; stroke-width: 0.8"/>
      </g>
     </g>
     <g id="text_10">
      <!-- 2022-04 -->
      <g transform="translate(1156.121634 382.993937)scale(0.1 -0.1)">
       <use xlink:href="#DejaVuSans-32"/>
       <use xlink:href="#DejaVuSans-30" x="63.623047"/>
       <use xlink:href="#DejaVuSans-32" x="127.246094"/>
       <use xlink:href="#DejaVuSans-32" x="190.869141"/>
       <use xlink:href="#DejaVuSans-2d" x="254.492188"/>
       <use xlink:href="#DejaVuSans-30" x="290.576172"/>
       <use xlink:href="#DejaVuSans-34" x="354.199219"/>
      </g>
     </g>
    </g>
    <g id="xtick_11">
     <g id="line2d_11">
      <g>
       <use xlink:href="#mc25633daf2" x="1298.892428" y="368.3955" style="stroke: #000000; stroke-width: 0.8"/>
      </g>
     </g>
     <g id="text_11">
      <!-- 2022-07 -->
      <g transform="translate(1278.001022 382.993937)scale(0.1 -0.1)">
       <use xlink:href="#DejaVuSans-32"/>
       <use xlink:href="#DejaVuSans-30" x="63.623047"/>
       <use xlink:href="#DejaVuSans-32" x="127.246094"/>
       <use xlink:href="#DejaVuSans-32" x="190.869141"/>
       <use xlink:href="#DejaVuSans-2d" x="254.492188"/>
       <use xlink:href="#DejaVuSans-30" x="290.576172"/>
       <use xlink:href="#DejaVuSans-37" x="354.199219"/>
      </g>
     </g>
    </g>
   </g>
   <g id="matplotlib.axis_2">
    <g id="ytick_1">
     <g id="line2d_12">
      <defs>
       <path id="m155877ae13" d="M 0 0 
L -3.5 0 
" style="stroke: #000000; stroke-width: 0.8"/>
      </defs>
      <g>
       <use xlink:href="#m155877ae13" x="46.0125" y="329.834431" style="stroke: #000000; stroke-width: 0.8"/>
      </g>
     </g>
     <g id="text_12">
      <!-- 0 -->
      <g transform="translate(32.65 333.63365)scale(0.1 -0.1)">
       <use xlink:href="#DejaVuSans-30"/>
      </g>
     </g>
    </g>
    <g id="ytick_2">
     <g id="line2d_13">
      <g>
       <use xlink:href="#m155877ae13" x="46.0125" y="270.058585" style="stroke: #000000; stroke-width: 0.8"/>
      </g>
     </g>
     <g id="text_13">
      <!-- 20000 -->
      <g transform="translate(7.2 273.857803)scale(0.1 -0.1)">
       <use xlink:href="#DejaVuSans-32"/>
       <use xlink:href="#DejaVuSans-30" x="63.623047"/>
       <use xlink:href="#DejaVuSans-30" x="127.246094"/>
       <use xlink:href="#DejaVuSans-30" x="190.869141"/>
       <use xlink:href="#DejaVuSans-30" x="254.492188"/>
      </g>
     </g>
    </g>
    <g id="ytick_3">
     <g id="line2d_14">
      <g>
       <use xlink:href="#m155877ae13" x="46.0125" y="210.282738" style="stroke: #000000; stroke-width: 0.8"/>
      </g>
     </g>
     <g id="text_14">
      <!-- 40000 -->
      <g transform="translate(7.2 214.081957)scale(0.1 -0.1)">
       <use xlink:href="#DejaVuSans-34"/>
       <use xlink:href="#DejaVuSans-30" x="63.623047"/>
       <use xlink:href="#DejaVuSans-30" x="127.246094"/>
       <use xlink:href="#DejaVuSans-30" x="190.869141"/>
       <use xlink:href="#DejaVuSans-30" x="254.492188"/>
      </g>
     </g>
    </g>
    <g id="ytick_4">
     <g id="line2d_15">
      <g>
       <use xlink:href="#m155877ae13" x="46.0125" y="150.506892" style="stroke: #000000; stroke-width: 0.8"/>
      </g>
     </g>
     <g id="text_15">
      <!-- 60000 -->
      <g transform="translate(7.2 154.306111)scale(0.1 -0.1)">
       <defs>
        <path id="DejaVuSans-36" d="M 2113 2584 
Q 1688 2584 1439 2293 
Q 1191 2003 1191 1497 
Q 1191 994 1439 701 
Q 1688 409 2113 409 
Q 2538 409 2786 701 
Q 3034 994 3034 1497 
Q 3034 2003 2786 2293 
Q 2538 2584 2113 2584 
z
M 3366 4563 
L 3366 3988 
Q 3128 4100 2886 4159 
Q 2644 4219 2406 4219 
Q 1781 4219 1451 3797 
Q 1122 3375 1075 2522 
Q 1259 2794 1537 2939 
Q 1816 3084 2150 3084 
Q 2853 3084 3261 2657 
Q 3669 2231 3669 1497 
Q 3669 778 3244 343 
Q 2819 -91 2113 -91 
Q 1303 -91 875 529 
Q 447 1150 447 2328 
Q 447 3434 972 4092 
Q 1497 4750 2381 4750 
Q 2619 4750 2861 4703 
Q 3103 4656 3366 4563 
z
" transform="scale(0.015625)"/>
       </defs>
       <use xlink:href="#DejaVuSans-36"/>
       <use xlink:href="#DejaVuSans-30" x="63.623047"/>
       <use xlink:href="#DejaVuSans-30" x="127.246094"/>
       <use xlink:href="#DejaVuSans-30" x="190.869141"/>
       <use xlink:href="#DejaVuSans-30" x="254.492188"/>
      </g>
     </g>
    </g>
    <g id="ytick_5">
     <g id="line2d_16">
      <g>
       <use xlink:href="#m155877ae13" x="46.0125" y="90.731046" style="stroke: #000000; stroke-width: 0.8"/>
      </g>
     </g>
     <g id="text_16">
      <!-- 80000 -->
      <g transform="translate(7.2 94.530264)scale(0.1 -0.1)">
       <defs>
        <path id="DejaVuSans-38" d="M 2034 2216 
Q 1584 2216 1326 1975 
Q 1069 1734 1069 1313 
Q 1069 891 1326 650 
Q 1584 409 2034 409 
Q 2484 409 2743 651 
Q 3003 894 3003 1313 
Q 3003 1734 2745 1975 
Q 2488 2216 2034 2216 
z
M 1403 2484 
Q 997 2584 770 2862 
Q 544 3141 544 3541 
Q 544 4100 942 4425 
Q 1341 4750 2034 4750 
Q 2731 4750 3128 4425 
Q 3525 4100 3525 3541 
Q 3525 3141 3298 2862 
Q 3072 2584 2669 2484 
Q 3125 2378 3379 2068 
Q 3634 1759 3634 1313 
Q 3634 634 3220 271 
Q 2806 -91 2034 -91 
Q 1263 -91 848 271 
Q 434 634 434 1313 
Q 434 1759 690 2068 
Q 947 2378 1403 2484 
z
M 1172 3481 
Q 1172 3119 1398 2916 
Q 1625 2713 2034 2713 
Q 2441 2713 2670 2916 
Q 2900 3119 2900 3481 
Q 2900 3844 2670 4047 
Q 2441 4250 2034 4250 
Q 1625 4250 1398 4047 
Q 1172 3844 1172 3481 
z
" transform="scale(0.015625)"/>
       </defs>
       <use xlink:href="#DejaVuSans-38"/>
       <use xlink:href="#DejaVuSans-30" x="63.623047"/>
       <use xlink:href="#DejaVuSans-30" x="127.246094"/>
       <use xlink:href="#DejaVuSans-30" x="190.869141"/>
       <use xlink:href="#DejaVuSans-30" x="254.492188"/>
      </g>
     </g>
    </g>
   </g>
   <g id="line2d_17">
    <path d="M 106.885227 329.834431 
L 157.779917 329.831442 
L 177.869926 329.783622 
L 180.548594 329.502675 
L 183.227261 329.347258 
L 184.566595 329.332314 
L 185.905929 328.949748 
L 187.245263 329.129076 
L 188.584597 329.081255 
L 189.923931 328.854107 
L 191.263265 327.822974 
L 192.602599 328.381878 
L 193.941933 328.438665 
L 195.281267 326.531815 
L 196.620601 328.459587 
L 197.959935 327.030944 
L 199.299269 326.887482 
L 200.638603 327.697444 
L 201.977937 326.220981 
L 203.31727 325.491716 
L 204.656604 327.13854 
L 205.995938 326.836672 
L 207.335272 325.9759 
L 208.674606 325.276523 
L 210.01394 325.817494 
L 211.353274 325.45585 
L 212.692608 325.969923 
L 214.031942 324.83717 
L 215.371276 326.328578 
L 216.71061 326.179138 
L 218.049944 325.814505 
L 219.389278 326.424219 
L 220.728612 324.323098 
L 222.067946 325.106162 
L 223.407279 326.256847 
L 224.746613 326.379387 
L 226.085947 325.213758 
L 227.425281 323.713384 
L 228.764615 324.364941 
L 230.103949 321.701927 
L 231.443283 323.50118 
L 232.782617 323.480259 
L 234.121951 323.916622 
L 235.461285 323.202301 
L 236.800619 323.091716 
L 238.139953 322.183123 
L 239.479287 320.458589 
L 240.818621 322.51189 
L 242.157955 320.885987 
L 243.497288 323.025962 
L 244.836622 323.522102 
L 246.175956 322.831691 
L 247.51529 321.947008 
L 248.854624 321.19981 
L 250.193958 322.885489 
L 251.533292 324.884991 
L 252.872626 326.05062 
L 254.21196 317.837419 
L 255.551294 324.834181 
L 256.890628 320.141778 
L 258.229962 322.565688 
L 260.90863 324.651865 
L 262.247964 322.978141 
L 263.587297 325.216747 
L 264.926631 322.697195 
L 266.265965 323.049872 
L 267.605299 321.597319 
L 268.944633 322.804791 
L 270.283967 322.33854 
L 271.623301 324.71463 
L 272.962635 326.313634 
L 274.301969 326.513883 
L 275.641303 325.270545 
L 276.980637 324.98661 
L 278.319971 325.464817 
L 279.659305 325.820483 
L 280.998639 326.923347 
L 282.337973 325.01052 
L 283.677306 326.899437 
L 285.01664 327.057843 
L 286.355974 326.379387 
L 287.695308 326.920358 
L 289.034642 327.243148 
L 290.373976 327.867806 
L 291.71331 327.452364 
L 293.052644 327.966436 
L 294.391978 327.545016 
L 295.731312 328.0561 
L 297.070646 327.822974 
L 298.40998 327.825963 
L 299.749314 328.420732 
L 301.088648 327.972413 
L 302.427982 328.20255 
L 303.767315 328.062077 
L 305.106649 327.766187 
L 306.445983 327.939537 
L 307.785317 327.867806 
L 309.124651 328.453609 
L 313.142653 327.162451 
L 315.821321 327.48524 
L 317.160655 327.903671 
L 318.499989 327.628702 
L 319.839323 327.670545 
L 321.178657 327.359711 
L 322.517991 327.23717 
L 325.196658 327.258092 
L 326.535992 327.924593 
L 327.875326 327.999313 
L 329.21466 324.726585 
L 330.553994 326.905415 
L 331.893328 326.79184 
L 333.232662 325.868304 
L 334.571996 326.262824 
L 335.91133 326.983123 
L 337.250664 327.195327 
L 338.589998 327.721355 
L 339.929332 326.286735 
L 341.268666 326.077519 
L 342.608 325.569424 
L 343.947333 326.020732 
L 345.286667 326.950246 
L 346.626001 326.331566 
L 347.965335 327.018989 
L 349.304669 325.019487 
L 351.983337 325.052363 
L 353.322671 325.572413 
L 354.662005 325.228702 
L 356.001339 326.155228 
L 357.340673 326.624468 
L 358.680007 325.665066 
L 360.019341 324.538291 
L 361.358675 323.916622 
L 362.698009 324.9358 
L 365.376676 325.954979 
L 366.71601 325.437917 
L 368.055344 324.577145 
L 369.394678 323.99732 
L 370.734012 323.549001 
L 372.073346 323.288976 
L 373.41268 325.70392 
L 374.752014 325.892214 
L 376.091348 325.204792 
L 377.430682 324.917868 
L 378.770016 324.352986 
L 380.10935 322.972164 
L 381.448684 324.370919 
L 382.788018 325.168926 
L 384.127351 324.535302 
L 385.466685 324.636921 
L 386.806019 322.972164 
L 388.145353 324.358963 
L 389.484687 322.98113 
L 390.824021 322.792836 
L 392.163355 324.176647 
L 393.502689 325.016498 
L 394.842023 324.810271 
L 396.181357 323.390595 
L 397.520691 324.732563 
L 398.860025 322.553733 
L 400.199359 324.215501 
L 401.538693 323.880757 
L 402.878027 324.855103 
L 404.21736 325.375153 
L 405.556694 323.474281 
L 406.896028 325.769673 
L 408.235362 313.115127 
L 409.574696 321.453857 
L 410.91403 325.611267 
L 412.253364 325.742774 
L 413.592698 325.674032 
L 414.932032 325.838416 
L 416.271366 323.99732 
L 417.6107 322.921354 
L 418.950034 323.498191 
L 420.289368 325.470794 
L 421.628702 325.733808 
L 422.968036 325.458839 
L 424.307369 324.027208 
L 425.646703 323.689474 
L 426.986037 323.190346 
L 428.325371 322.290719 
L 429.664705 325.644144 
L 432.343373 325.252612 
L 433.682707 324.305165 
L 435.022041 323.091716 
L 436.361375 321.54651 
L 437.700709 322.538789 
L 439.040043 325.052363 
L 440.379377 324.726585 
L 441.718711 325.751741 
L 443.058045 323.043895 
L 444.397378 323.366684 
L 445.736712 322.493957 
L 447.076046 322.5358 
L 448.41538 325.491716 
L 449.754714 324.296199 
L 451.094048 325.001554 
L 452.433382 321.973907 
L 453.772716 320.587108 
L 455.11205 320.518365 
L 457.790718 321.683994 
L 459.130052 321.64514 
L 460.469386 321.307407 
L 461.80872 321.268552 
L 464.487387 314.573657 
L 465.826721 318.988104 
L 467.166055 317.147008 
L 468.505389 320.530321 
L 472.523391 315.066808 
L 473.862725 314.890469 
L 475.202059 311.420482 
L 476.541393 317.708901 
L 477.880727 315.700432 
L 479.220061 317.879262 
L 480.559395 311.57291 
L 481.898729 310.819734 
L 483.238063 304.462573 
L 484.577396 306.22596 
L 485.91673 308.972661 
L 487.256064 311.238165 
L 488.595398 310.35946 
L 489.934732 307.304915 
L 491.274066 300.140779 
L 492.6134 294.560704 
L 493.952734 292.659832 
L 495.292068 299.919609 
L 496.631402 298.23393 
L 497.970736 292.106906 
L 500.649404 291.870791 
L 501.988738 283.762197 
L 503.328072 296.874029 
L 504.667405 298.06058 
L 507.346073 292.172659 
L 508.685407 303.168426 
L 510.024741 286.162198 
L 511.364075 290.944265 
L 512.703409 294.294702 
L 514.042743 299.910642 
L 515.382077 304.961701 
L 516.721411 301.533557 
L 518.060745 295.827952 
L 519.400079 293.90317 
L 520.739413 307.197318 
L 522.078747 306.303669 
L 523.418081 308.38088 
L 524.757414 311.333807 
L 526.096748 292.348998 
L 527.436082 300.672784 
L 528.775416 297.080256 
L 530.11475 298.374403 
L 531.454084 300.284241 
L 532.793418 307.125587 
L 534.132752 303.858837 
L 535.472086 306.193084 
L 536.81142 305.158962 
L 538.150754 296.655847 
L 539.490088 301.680007 
L 540.829422 303.721353 
L 542.168756 308.267306 
L 543.50809 308.273283 
L 544.847423 307.839908 
L 546.186757 308.545263 
L 547.526091 303.449372 
L 548.865425 307.78611 
L 550.204759 307.233183 
L 551.544093 311.892711 
L 552.883427 315.790096 
L 554.222761 311.187356 
L 555.562095 309.624217 
L 556.901429 308.802299 
L 558.240763 312.672786 
L 559.580097 319.992338 
L 560.919431 318.57565 
L 562.258765 316.525339 
L 563.598099 312.965687 
L 564.937432 307.795076 
L 566.276766 305.897193 
L 567.6161 329.834431 
L 568.955434 294.079508 
L 570.294768 316.477518 
L 571.634102 314.714131 
L 572.973436 309.39408 
L 574.31277 307.212262 
L 575.652104 303.661577 
L 576.991438 302.107405 
L 578.330772 309.758713 
L 579.670106 315.75423 
L 581.00944 315.559959 
L 582.348774 309.982872 
L 583.688108 312.31413 
L 585.027441 309.952984 
L 586.366775 309.982872 
L 587.706109 313.865314 
L 589.045443 317.395077 
L 590.384777 319.717369 
L 591.724111 316.928826 
L 593.063445 315.422474 
L 594.402779 314.953234 
L 595.742113 308.787355 
L 598.420781 319.995327 
L 599.760115 321.035426 
L 601.099449 318.87453 
L 602.438783 318.623471 
L 603.778117 317.308402 
L 605.11745 317.41301 
L 606.456784 319.836921 
L 607.796118 322.577643 
L 609.135452 322.924343 
L 610.474786 322.948253 
L 611.81412 319.929573 
L 613.153454 319.88773 
L 614.492788 318.895451 
L 615.832122 320.682749 
L 617.171456 323.662575 
L 618.51079 324.627955 
L 619.850124 323.611765 
L 621.189458 321.391093 
L 622.528792 321.352238 
L 623.868126 322.069549 
L 626.546793 324.959711 
L 627.886127 325.590346 
L 629.225461 325.805539 
L 630.564795 324.469549 
L 631.904129 323.955477 
L 633.243463 323.20529 
L 635.922131 325.097195 
L 637.261465 326.110396 
L 638.600799 324.858092 
L 639.940133 323.791093 
L 641.279467 324.203546 
L 642.618801 322.538789 
L 643.958135 324.514381 
L 645.297468 326.101429 
L 646.636802 326.418241 
L 647.976136 325.121106 
L 649.31547 323.546012 
L 650.654804 324.633932 
L 651.994138 325.524592 
L 653.333472 322.168179 
L 654.672806 326.642401 
L 656.01214 326.301678 
L 657.351474 325.321355 
L 658.690808 324.807282 
L 660.030142 324.753484 
L 661.369476 324.56519 
L 662.70881 324.828204 
L 664.048144 325.399063 
L 665.387477 327.497195 
L 666.726811 323.865813 
L 668.066145 324.88798 
L 669.405479 322.885489 
L 670.744813 322.721105 
L 672.084147 323.97042 
L 673.423481 325.557469 
L 674.762815 326.188104 
L 676.102149 324.358963 
L 677.441483 321.486734 
L 678.780817 323.288976 
L 680.120151 320.862076 
L 681.459485 321.830445 
L 682.798819 323.109648 
L 684.138153 324.571168 
L 685.477486 322.649374 
L 686.81682 322.087481 
L 688.156154 319.295949 
L 689.495488 320.165688 
L 692.174156 322.514879 
L 693.51349 323.55199 
L 696.192158 318.506908 
L 697.531492 318.659337 
L 698.870826 317.867307 
L 700.21016 318.985115 
L 701.549494 321.041404 
L 702.888828 322.562699 
L 704.228162 320.291217 
L 705.567495 319.266061 
L 706.906829 319.131566 
L 708.246163 318.27976 
L 709.585497 320.288228 
L 710.924831 321.866311 
L 712.264165 323.979387 
L 713.603499 322.102425 
L 714.942833 321.57042 
L 716.282167 320.359959 
L 717.621501 319.76519 
L 718.960835 321.146012 
L 720.300169 323.752239 
L 721.639503 323.447382 
L 722.978837 322.195078 
L 724.318171 321.681006 
L 725.657505 319.69047 
L 726.996838 320.249374 
L 728.336172 321.426958 
L 729.675506 324.275277 
L 733.693508 322.631442 
L 735.032842 324.520358 
L 736.372176 319.908652 
L 737.71151 324.666809 
L 739.050844 324.630944 
L 740.390178 325.578391 
L 741.729512 325.165937 
L 743.068846 324.469549 
L 744.40818 324.101927 
L 745.747514 324.332064 
L 747.086847 325.312388 
L 749.765515 327.007033 
L 751.104849 325.366186 
L 752.444183 324.953733 
L 753.783517 325.225713 
L 755.122851 325.133061 
L 756.462185 326.522849 
L 757.801519 327.016 
L 759.140853 327.045888 
L 760.480187 327.419487 
L 761.819521 326.430197 
L 763.158855 327.171417 
L 764.498189 326.899437 
L 767.176856 328.035178 
L 768.51619 328.27727 
L 769.855524 328.635925 
L 771.194858 328.405788 
L 772.534192 327.819985 
L 773.873526 327.963447 
L 775.21286 328.226461 
L 776.552194 328.812264 
L 777.891528 329.105166 
L 779.230862 328.743522 
L 780.570196 328.615004 
L 781.90953 328.740533 
L 783.248864 328.635925 
L 784.588198 329.033435 
L 785.927532 328.943771 
L 787.266865 329.34128 
L 788.606199 329.158964 
L 789.945533 328.782376 
L 791.284867 329.093211 
L 792.624201 329.529574 
L 793.963535 329.834431 
L 795.302869 329.729823 
L 796.642203 327.577893 
L 797.981537 329.260583 
L 799.320871 329.063323 
L 800.660205 329.090222 
L 801.999539 328.958715 
L 803.338873 329.834431 
L 804.678207 329.834431 
L 806.017541 327.715377 
L 807.356874 328.928827 
L 808.696208 329.063323 
L 810.035542 328.468553 
L 811.374876 328.767432 
L 812.71421 329.834431 
L 815.392878 329.834431 
L 816.732212 326.185116 
L 818.071546 328.453609 
L 819.41088 327.984369 
L 820.750214 327.912638 
L 822.089548 329.834431 
L 823.428882 329.834431 
L 824.768216 325.076274 
L 826.10755 328.10392 
L 827.446883 327.613758 
L 828.786217 327.26407 
L 830.125551 327.816996 
L 831.464885 329.834431 
L 832.804219 329.834431 
L 834.143553 321.415003 
L 835.482887 327.61077 
L 836.822221 326.959213 
L 838.161555 323.883745 
L 839.500889 325.440906 
L 840.840223 329.834431 
L 842.179557 329.834431 
L 843.518891 318.20504 
L 844.858225 324.816249 
L 846.197559 323.602799 
L 847.536892 324.819237 
L 848.876226 322.822724 
L 850.21556 329.834431 
L 851.554894 329.834431 
L 852.894228 313.070295 
L 854.233562 321.812512 
L 855.572896 322.745016 
L 856.91223 320.748502 
L 858.251564 320.742525 
L 859.590898 329.834431 
L 860.930232 329.834431 
L 862.269566 306.363445 
L 863.6089 320.999561 
L 864.948234 318.052612 
L 866.287568 320.503421 
L 867.626901 319.490221 
L 868.966235 329.834431 
L 870.305569 329.834431 
L 871.644903 302.56469 
L 872.984237 318.940283 
L 874.323571 318.393334 
L 875.662905 320.330071 
L 877.002239 315.168427 
L 878.341573 329.834431 
L 879.680907 329.834431 
L 881.020241 302.307654 
L 882.359575 320.90392 
L 883.698909 316.516372 
L 885.038243 317.753732 
L 886.377577 315.069797 
L 887.71691 329.834431 
L 889.056244 329.834431 
L 890.395578 299.770169 
L 891.734912 315.252113 
L 893.074246 314.355476 
L 894.41358 317.21575 
L 895.752914 311.955475 
L 897.092248 329.834431 
L 899.770916 329.834431 
L 901.11025 293.834428 
L 902.449584 317.962948 
L 903.788918 315.673533 
L 905.128252 313.984865 
L 906.467586 329.834431 
L 907.806919 329.834431 
L 909.146253 302.481004 
L 910.485587 315.906659 
L 911.824921 317.29047 
L 913.164255 316.851117 
L 914.503589 319.056846 
L 915.842923 329.834431 
L 917.182257 329.834431 
L 918.521591 304.689721 
L 919.860925 320.865065 
L 921.200259 319.19433 
L 922.539593 319.346759 
L 923.878927 319.965439 
L 925.218261 329.834431 
L 926.557595 329.834431 
L 927.896928 309.887231 
L 929.236262 322.730072 
L 930.575596 320.888976 
L 931.91493 319.860831 
L 933.254264 319.786111 
L 934.593598 329.834431 
L 935.932932 329.834431 
L 937.272266 308.527331 
L 938.6116 320.691715 
L 939.950934 321.059337 
L 941.290268 319.753235 
L 942.629602 321.636174 
L 943.968936 329.834431 
L 946.647604 329.834431 
L 947.986937 306.345512 
L 949.326271 321.110146 
L 950.665605 322.428204 
L 952.004939 322.625464 
L 953.344273 329.834431 
L 954.683607 329.834431 
L 956.022941 313.408028 
L 957.362275 323.629698 
L 958.701609 322.508901 
L 960.040943 323.429449 
L 961.380277 320.957718 
L 962.719611 329.834431 
L 964.058945 329.834431 
L 965.398279 314.472038 
L 966.737613 323.20529 
L 968.076946 323.829947 
L 969.41628 322.063571 
L 970.755614 321.920109 
L 972.094948 329.834431 
L 973.434282 329.834431 
L 974.773616 311.540033 
L 976.11295 322.694206 
L 977.452284 324.616 
L 978.791618 317.087232 
L 980.130952 321.053359 
L 981.470286 329.834431 
L 982.80962 329.834431 
L 984.148954 307.854852 
L 985.488288 323.121603 
L 986.827622 314.755974 
L 988.166955 329.834431 
L 989.506289 306.058588 
L 990.845623 329.834431 
L 992.184957 329.834431 
L 993.524291 303.192336 
L 994.863625 320.85311 
L 996.202959 314.905413 
L 997.542293 312.986609 
L 998.881627 312.714629 
L 1000.220961 329.834431 
L 1001.560295 329.834431 
L 1002.899629 295.818986 
L 1004.238963 316.121852 
L 1005.578297 314.705164 
L 1006.917631 329.834431 
L 1010.935632 329.834431 
L 1012.274966 272.279257 
L 1013.6143 312.756472 
L 1014.953634 311.528078 
L 1016.292968 295.385611 
L 1017.632302 307.257094 
L 1018.971636 329.834431 
L 1020.31097 329.834431 
L 1021.650304 272.724587 
L 1022.989638 308.715624 
L 1024.328972 309.929074 
L 1025.668306 302.038662 
L 1027.00764 307.325836 
L 1028.346973 329.831442 
L 1029.686307 329.834431 
L 1031.025641 271.517115 
L 1032.364975 307.723345 
L 1033.704309 300.61002 
L 1035.043643 294.378388 
L 1036.382977 297.669048 
L 1037.722311 329.834431 
L 1039.061645 329.834431 
L 1040.400979 235.810013 
L 1041.740313 299.112635 
L 1043.079647 280.307153 
L 1044.418981 273.244637 
L 1045.758315 329.78661 
L 1048.436982 329.834431 
L 1049.776316 162.584602 
L 1051.11565 267.655596 
L 1052.454984 266.749992 
L 1053.794318 239.022965 
L 1055.133652 329.834431 
L 1057.81232 329.834431 
L 1059.151654 63.270022 
L 1060.490988 256.818235 
L 1061.830322 233.338282 
L 1063.169656 198.073522 
L 1064.50899 201.564431 
L 1065.848324 329.834431 
L 1067.187658 329.834431 
L 1068.526991 97.183848 
L 1069.866325 245.846378 
L 1071.205659 226.56269 
L 1072.544993 219.135541 
L 1073.884327 241.261571 
L 1075.223661 329.810521 
L 1077.902329 329.834431 
L 1079.241663 50.8755 
L 1080.580997 250.6673 
L 1081.920331 260.339032 
L 1083.259665 208.280247 
L 1084.598999 329.834431 
L 1085.938333 329.834431 
L 1087.277667 136.833167 
L 1088.617 289.183867 
L 1089.956334 282.725086 
L 1091.295668 286.730068 
L 1092.635002 283.714377 
L 1093.974336 329.834431 
L 1095.31367 329.834431 
L 1096.653004 258.734051 
L 1097.992338 303.936546 
L 1099.331672 301.527579 
L 1100.671006 329.834431 
L 1102.01034 274.646381 
L 1103.349674 329.834431 
L 1104.689008 329.834431 
L 1106.028342 288.158711 
L 1107.367676 312.400805 
L 1108.707009 315.673533 
L 1110.046343 313.644143 
L 1111.385677 329.834431 
L 1114.064345 329.834431 
L 1115.403679 287.211264 
L 1116.743013 321.163944 
L 1118.082347 319.908652 
L 1119.421681 322.248876 
L 1120.761015 320.321105 
L 1122.100349 329.834431 
L 1124.779017 329.834431 
L 1126.118351 311.178389 
L 1127.457685 321.675028 
L 1128.797018 323.925589 
L 1130.136352 323.638665 
L 1131.475686 329.834431 
L 1132.81502 329.834431 
L 1134.154354 316.435675 
L 1135.493688 324.332064 
L 1136.833022 324.926834 
L 1138.172356 326.337544 
L 1139.51169 325.862326 
L 1140.851024 329.834431 
L 1142.190358 329.834431 
L 1143.529692 322.051616 
L 1144.869026 326.681255 
L 1146.20836 324.950744 
L 1147.547694 325.644144 
L 1148.887027 324.394829 
L 1150.226361 329.834431 
L 1151.565695 329.834431 
L 1152.905029 322.891466 
L 1154.244363 325.124094 
L 1155.583697 326.752986 
L 1156.923031 326.39732 
L 1158.262365 325.677021 
L 1159.601699 329.834431 
L 1160.941033 329.834431 
L 1162.280367 322.508901 
L 1163.619701 325.521604 
L 1164.959035 326.516872 
L 1166.298369 324.672787 
L 1167.637703 325.919113 
L 1168.977036 329.83742 
L 1170.31637 329.83742 
L 1171.655704 322.329573 
L 1172.995038 325.094206 
L 1174.334372 325.874281 
L 1175.673706 325.076274 
L 1177.01304 325.60529 
L 1178.352374 329.834431 
L 1179.691708 329.834431 
L 1181.031042 320.921852 
L 1182.370376 324.460582 
L 1183.70971 323.277021 
L 1185.049044 325.360209 
L 1186.388378 322.921354 
L 1187.727712 329.834431 
L 1189.067045 329.834431 
L 1190.406379 316.489473 
L 1191.745713 324.568179 
L 1193.085047 323.668552 
L 1194.424381 319.854853 
L 1195.763715 322.592587 
L 1197.103049 329.834431 
L 1198.442383 329.834431 
L 1199.781717 312.648875 
L 1201.121051 322.446136 
L 1202.460385 318.088477 
L 1203.799719 319.107655 
L 1205.139053 318.450121 
L 1206.478387 329.834431 
L 1207.817721 329.834431 
L 1209.157054 305.475774 
L 1210.496388 322.326585 
L 1211.835722 319.573907 
L 1213.175056 316.097942 
L 1214.51439 312.033184 
L 1215.853724 329.834431 
L 1217.193058 329.834431 
L 1218.532392 302.980132 
L 1219.871726 317.753732 
L 1221.21106 312.654853 
L 1222.550394 317.424965 
L 1223.889728 306.79682 
L 1225.229062 329.834431 
L 1226.568396 329.834431 
L 1227.90773 286.739035 
L 1229.247063 313.853358 
L 1230.586397 311.42347 
L 1231.925731 312.83418 
L 1233.265065 304.686732 
L 1234.604399 329.834431 
L 1235.943733 329.834431 
L 1237.283067 279.479258 
L 1238.622401 313.901179 
L 1239.961735 312.610021 
L 1241.301069 307.26606 
L 1242.640403 315.80504 
L 1243.979737 329.834431 
L 1245.319071 329.834431 
L 1246.658405 286.70018 
L 1247.997739 317.918116 
L 1249.337072 310.691216 
L 1250.676406 310.816745 
L 1252.01574 312.941777 
L 1253.355074 329.834431 
L 1256.033742 329.834431 
L 1257.373076 281.888225 
L 1258.71241 316.863072 
L 1260.051744 310.709149 
L 1261.391078 312.43966 
L 1262.730412 329.834431 
L 1264.069746 329.834431 
L 1265.40908 288.595075 
L 1266.748414 315.305912 
L 1268.087748 315.18636 
L 1269.427081 317.000557 
L 1270.766415 311.462325 
L 1272.105749 329.834431 
L 1273.445083 329.834431 
L 1274.784417 303.942523 
L 1276.123751 318.240906 
L 1277.463085 312.687729 
L 1278.802419 313.892213 
L 1280.141753 319.376647 
L 1281.481087 329.834431 
L 1284.159755 329.834431 
L 1285.499089 289.712883 
L 1286.838423 316.059087 
L 1288.177757 319.394579 
L 1289.51709 313.192835 
L 1290.856424 329.834431 
L 1292.195758 329.834431 
L 1293.535092 300.233432 
L 1294.874426 317.158963 
L 1296.21376 315.951491 
L 1297.553094 315.296945 
L 1298.892428 316.19956 
L 1300.231762 329.834431 
L 1302.91043 329.834431 
L 1304.249764 297.370169 
L 1305.589098 313.449872 
L 1306.928432 312.511391 
L 1306.928432 312.511391 
" clip-path="url(#p3b59ec2ac9)" style="fill: none; stroke: #0000ff; stroke-width: 1.5; stroke-linecap: square"/>
   </g>
   <g id="line2d_18">
    <path d="M 1067.187658 104.892957 
L 1068.526991 236.993986 
L 1069.866325 226.578731 
L 1071.205659 201.487293 
L 1072.544993 223.062446 
L 1073.884327 278.971316 
L 1075.223661 277.629755 
L 1076.562995 125.278098 
L 1077.902329 217.765855 
L 1079.241663 276.294179 
L 1081.920331 227.51276 
L 1083.259665 303.299051 
L 1084.598999 299.224176 
L 1085.938333 230.726984 
L 1087.277667 182.293641 
L 1088.617 226.379476 
L 1089.956334 227.909609 
L 1091.295668 238.739155 
L 1092.635002 318.090284 
L 1093.974336 328.512714 
L 1095.31367 227.231279 
L 1097.992338 284.101149 
L 1099.331672 298.091964 
L 1100.671006 293.679706 
L 1102.01034 351.408429 
L 1103.349674 353.2755 
L 1104.689008 274.430916 
L 1106.028342 298.870003 
L 1107.367676 309.993028 
L 1108.707009 327.601954 
L 1110.046343 305.107559 
L 1111.385677 341.341762 
L 1112.725011 346.68837 
L 1114.064345 303.53798 
L 1115.403679 321.893281 
L 1116.743013 323.05698 
L 1118.082347 327.2037 
L 1119.421681 324.223512 
L 1120.761015 340.678054 
L 1122.100349 340.900599 
L 1123.439683 303.0522 
L 1124.779017 319.44857 
L 1126.118351 327.874988 
L 1127.457685 333.555574 
L 1128.797018 327.846428 
L 1130.136352 337.456845 
L 1131.475686 337.224032 
L 1132.81502 321.487548 
L 1134.154354 321.72045 
L 1135.493688 325.001993 
L 1136.833022 327.546315 
L 1138.172356 327.21222 
L 1139.51169 333.943059 
L 1140.851024 334.073324 
L 1142.190358 322.021703 
L 1143.529692 324.709819 
L 1144.869026 326.573506 
L 1146.20836 328.96047 
L 1147.547694 328.583092 
L 1148.887027 332.598546 
L 1150.226361 331.818926 
L 1151.565695 323.240272 
L 1152.905029 326.372612 
L 1154.244363 326.623994 
L 1155.583697 327.261713 
L 1156.923031 326.484007 
L 1158.262365 330.625577 
L 1159.601699 330.437113 
L 1160.941033 324.149873 
L 1162.280367 326.600691 
L 1163.619701 327.131829 
L 1164.959035 327.021983 
L 1166.298369 326.587037 
L 1167.637703 329.563251 
L 1168.977036 329.121955 
L 1170.31637 323.625446 
L 1171.655704 326.259308 
L 1172.995038 326.894739 
L 1174.334372 325.88628 
L 1175.673706 326.015101 
L 1177.01304 328.879008 
L 1178.352374 328.613463 
L 1179.691708 323.268898 
L 1181.031042 326.061112 
L 1182.370376 326.442401 
L 1183.70971 325.541953 
L 1185.049044 325.208657 
L 1186.388378 328.219585 
L 1187.727712 327.672102 
L 1189.067045 321.538805 
L 1190.406379 325.381148 
L 1191.745713 324.252082 
L 1193.085047 323.982538 
L 1194.424381 323.893232 
L 1195.763715 327.227008 
L 1197.103049 326.054029 
L 1198.442383 318.33631 
L 1199.781717 324.659476 
L 1201.121051 323.409128 
L 1202.460385 321.364002 
L 1203.799719 321.526233 
L 1205.139053 325.662364 
L 1206.478387 324.454008 
L 1207.817721 314.019407 
L 1209.157054 322.919911 
L 1210.496388 319.370531 
L 1211.835722 317.65012 
L 1213.175056 318.66527 
L 1214.51439 325.937465 
L 1215.853724 323.585546 
L 1217.193058 308.583422 
L 1218.532392 321.142015 
L 1221.21106 316.145214 
L 1222.550394 313.101363 
L 1223.889728 323.936567 
L 1225.229062 322.225958 
L 1226.568396 304.542507 
L 1227.90773 319.857871 
L 1229.247063 314.224547 
L 1230.586397 311.88668 
L 1231.925731 306.879152 
L 1233.265065 321.189277 
L 1234.604399 319.547296 
L 1235.943733 294.83199 
L 1237.283067 315.832571 
L 1238.622401 310.998282 
L 1239.961735 308.874832 
L 1241.301069 305.163482 
L 1242.640403 319.698104 
L 1243.979737 320.101204 
L 1245.319071 291.374211 
L 1246.658405 315.167883 
L 1247.997739 312.690404 
L 1249.337072 310.693136 
L 1250.676406 312.390684 
L 1252.01574 324.288424 
L 1253.355074 323.7423 
L 1254.694408 293.599329 
L 1256.033742 311.908525 
L 1257.373076 320.849743 
L 1258.71241 317.922145 
L 1260.051744 313.089911 
L 1261.391078 325.876445 
L 1262.730412 324.803512 
L 1264.069746 312.456 
L 1265.40908 306.212917 
L 1266.748414 312.985682 
L 1268.087748 308.651257 
L 1269.427081 312.363602 
L 1270.766415 325.91507 
L 1272.105749 325.757537 
L 1273.445083 303.278616 
L 1274.784417 311.219091 
L 1276.123751 315.90364 
L 1277.463085 317.260837 
L 1278.802419 316.095691 
L 1280.141753 326.587911 
L 1281.481087 326.759025 
L 1282.820421 307.921949 
L 1284.159755 314.218123 
L 1285.499089 322.452071 
L 1286.838423 320.661333 
L 1288.177757 316.339852 
L 1289.51709 327.35361 
L 1290.856424 326.726979 
L 1292.195758 318.054859 
L 1293.535092 308.611823 
L 1294.874426 314.550804 
L 1297.553094 316.26494 
L 1298.892428 326.434541 
L 1300.231762 325.666232 
L 1301.571096 310.424881 
L 1302.91043 310.721604 
L 1304.249764 321.039256 
L 1305.589098 321.479674 
L 1306.928432 317.541461 
L 1306.928432 317.541461 
" clip-path="url(#p3b59ec2ac9)" style="fill: none; stroke: #ffa500; stroke-width: 1.5; stroke-linecap: square"/>
   </g>
   <g id="line2d_19">
    <path d="M 1306.928432 317.541461 
L 1308.267766 325.947551 
L 1309.607099 325.587534 
L 1310.946433 319.637291 
L 1312.285767 306.717017 
L 1313.625101 314.975682 
L 1314.964435 314.756292 
L 1316.303769 316.678457 
L 1317.643103 324.280032 
L 1318.982437 324.131981 
L 1320.321771 319.061617 
L 1321.661105 308.450442 
L 1323.000439 315.271791 
L 1324.339773 315.079242 
" clip-path="url(#p3b59ec2ac9)" style="fill: none; stroke: #ff0000; stroke-width: 1.5; stroke-linecap: square"/>
   </g>
   <g id="patch_3">
    <path d="M 46.0125 368.3955 
L 46.0125 35.7555 
" style="fill: none; stroke: #000000; stroke-width: 0.8; stroke-linejoin: miter; stroke-linecap: square"/>
   </g>
   <g id="patch_4">
    <path d="M 1385.2125 368.3955 
L 1385.2125 35.7555 
" style="fill: none; stroke: #000000; stroke-width: 0.8; stroke-linejoin: miter; stroke-linecap: square"/>
   </g>
   <g id="patch_5">
    <path d="M 46.0125 368.3955 
L 1385.2125 368.3955 
" style="fill: none; stroke: #000000; stroke-width: 0.8; stroke-linejoin: miter; stroke-linecap: square"/>
   </g>
   <g id="patch_6">
    <path d="M 46.0125 35.7555 
L 1385.2125 35.7555 
" style="fill: none; stroke: #000000; stroke-width: 0.8; stroke-linejoin: miter; stroke-linecap: square"/>
   </g>
   <g id="text_17">
    <!-- Daily Confirmed Cases Forecasting - Illinois -->
    <g transform="translate(586.075313 16.318125)scale(0.12 -0.12)">
     <defs>
      <path id="DejaVuSans-44" d="M 1259 4147 
L 1259 519 
L 2022 519 
Q 2988 519 3436 956 
Q 3884 1394 3884 2338 
Q 3884 3275 3436 3711 
Q 2988 4147 2022 4147 
L 1259 4147 
z
M 628 4666 
L 1925 4666 
Q 3281 4666 3915 4102 
Q 4550 3538 4550 2338 
Q 4550 1131 3912 565 
Q 3275 0 1925 0 
L 628 0 
L 628 4666 
z
" transform="scale(0.015625)"/>
      <path id="DejaVuSans-61" d="M 2194 1759 
Q 1497 1759 1228 1600 
Q 959 1441 959 1056 
Q 959 750 1161 570 
Q 1363 391 1709 391 
Q 2188 391 2477 730 
Q 2766 1069 2766 1631 
L 2766 1759 
L 2194 1759 
z
M 3341 1997 
L 3341 0 
L 2766 0 
L 2766 531 
Q 2569 213 2275 61 
Q 1981 -91 1556 -91 
Q 1019 -91 701 211 
Q 384 513 384 1019 
Q 384 1609 779 1909 
Q 1175 2209 1959 2209 
L 2766 2209 
L 2766 2266 
Q 2766 2663 2505 2880 
Q 2244 3097 1772 3097 
Q 1472 3097 1187 3025 
Q 903 2953 641 2809 
L 641 3341 
Q 956 3463 1253 3523 
Q 1550 3584 1831 3584 
Q 2591 3584 2966 3190 
Q 3341 2797 3341 1997 
z
" transform="scale(0.015625)"/>
      <path id="DejaVuSans-69" d="M 603 3500 
L 1178 3500 
L 1178 0 
L 603 0 
L 603 3500 
z
M 603 4863 
L 1178 4863 
L 1178 4134 
L 603 4134 
L 603 4863 
z
" transform="scale(0.015625)"/>
      <path id="DejaVuSans-6c" d="M 603 4863 
L 1178 4863 
L 1178 0 
L 603 0 
L 603 4863 
z
" transform="scale(0.015625)"/>
      <path id="DejaVuSans-79" d="M 2059 -325 
Q 1816 -950 1584 -1140 
Q 1353 -1331 966 -1331 
L 506 -1331 
L 506 -850 
L 844 -850 
Q 1081 -850 1212 -737 
Q 1344 -625 1503 -206 
L 1606 56 
L 191 3500 
L 800 3500 
L 1894 763 
L 2988 3500 
L 3597 3500 
L 2059 -325 
z
" transform="scale(0.015625)"/>
      <path id="DejaVuSans-20" transform="scale(0.015625)"/>
      <path id="DejaVuSans-43" d="M 4122 4306 
L 4122 3641 
Q 3803 3938 3442 4084 
Q 3081 4231 2675 4231 
Q 1875 4231 1450 3742 
Q 1025 3253 1025 2328 
Q 1025 1406 1450 917 
Q 1875 428 2675 428 
Q 3081 428 3442 575 
Q 3803 722 4122 1019 
L 4122 359 
Q 3791 134 3420 21 
Q 3050 -91 2638 -91 
Q 1578 -91 968 557 
Q 359 1206 359 2328 
Q 359 3453 968 4101 
Q 1578 4750 2638 4750 
Q 3056 4750 3426 4639 
Q 3797 4528 4122 4306 
z
" transform="scale(0.015625)"/>
      <path id="DejaVuSans-6f" d="M 1959 3097 
Q 1497 3097 1228 2736 
Q 959 2375 959 1747 
Q 959 1119 1226 758 
Q 1494 397 1959 397 
Q 2419 397 2687 759 
Q 2956 1122 2956 1747 
Q 2956 2369 2687 2733 
Q 2419 3097 1959 3097 
z
M 1959 3584 
Q 2709 3584 3137 3096 
Q 3566 2609 3566 1747 
Q 3566 888 3137 398 
Q 2709 -91 1959 -91 
Q 1206 -91 779 398 
Q 353 888 353 1747 
Q 353 2609 779 3096 
Q 1206 3584 1959 3584 
z
" transform="scale(0.015625)"/>
      <path id="DejaVuSans-6e" d="M 3513 2113 
L 3513 0 
L 2938 0 
L 2938 2094 
Q 2938 2591 2744 2837 
Q 2550 3084 2163 3084 
Q 1697 3084 1428 2787 
Q 1159 2491 1159 1978 
L 1159 0 
L 581 0 
L 581 3500 
L 1159 3500 
L 1159 2956 
Q 1366 3272 1645 3428 
Q 1925 3584 2291 3584 
Q 2894 3584 3203 3211 
Q 3513 2838 3513 2113 
z
" transform="scale(0.015625)"/>
      <path id="DejaVuSans-66" d="M 2375 4863 
L 2375 4384 
L 1825 4384 
Q 1516 4384 1395 4259 
Q 1275 4134 1275 3809 
L 1275 3500 
L 2222 3500 
L 2222 3053 
L 1275 3053 
L 1275 0 
L 697 0 
L 697 3053 
L 147 3053 
L 147 3500 
L 697 3500 
L 697 3744 
Q 697 4328 969 4595 
Q 1241 4863 1831 4863 
L 2375 4863 
z
" transform="scale(0.015625)"/>
      <path id="DejaVuSans-72" d="M 2631 2963 
Q 2534 3019 2420 3045 
Q 2306 3072 2169 3072 
Q 1681 3072 1420 2755 
Q 1159 2438 1159 1844 
L 1159 0 
L 581 0 
L 581 3500 
L 1159 3500 
L 1159 2956 
Q 1341 3275 1631 3429 
Q 1922 3584 2338 3584 
Q 2397 3584 2469 3576 
Q 2541 3569 2628 3553 
L 2631 2963 
z
" transform="scale(0.015625)"/>
      <path id="DejaVuSans-6d" d="M 3328 2828 
Q 3544 3216 3844 3400 
Q 4144 3584 4550 3584 
Q 5097 3584 5394 3201 
Q 5691 2819 5691 2113 
L 5691 0 
L 5113 0 
L 5113 2094 
Q 5113 2597 4934 2840 
Q 4756 3084 4391 3084 
Q 3944 3084 3684 2787 
Q 3425 2491 3425 1978 
L 3425 0 
L 2847 0 
L 2847 2094 
Q 2847 2600 2669 2842 
Q 2491 3084 2119 3084 
Q 1678 3084 1418 2786 
Q 1159 2488 1159 1978 
L 1159 0 
L 581 0 
L 581 3500 
L 1159 3500 
L 1159 2956 
Q 1356 3278 1631 3431 
Q 1906 3584 2284 3584 
Q 2666 3584 2933 3390 
Q 3200 3197 3328 2828 
z
" transform="scale(0.015625)"/>
      <path id="DejaVuSans-65" d="M 3597 1894 
L 3597 1613 
L 953 1613 
Q 991 1019 1311 708 
Q 1631 397 2203 397 
Q 2534 397 2845 478 
Q 3156 559 3463 722 
L 3463 178 
Q 3153 47 2828 -22 
Q 2503 -91 2169 -91 
Q 1331 -91 842 396 
Q 353 884 353 1716 
Q 353 2575 817 3079 
Q 1281 3584 2069 3584 
Q 2775 3584 3186 3129 
Q 3597 2675 3597 1894 
z
M 3022 2063 
Q 3016 2534 2758 2815 
Q 2500 3097 2075 3097 
Q 1594 3097 1305 2825 
Q 1016 2553 972 2059 
L 3022 2063 
z
" transform="scale(0.015625)"/>
      <path id="DejaVuSans-64" d="M 2906 2969 
L 2906 4863 
L 3481 4863 
L 3481 0 
L 2906 0 
L 2906 525 
Q 2725 213 2448 61 
Q 2172 -91 1784 -91 
Q 1150 -91 751 415 
Q 353 922 353 1747 
Q 353 2572 751 3078 
Q 1150 3584 1784 3584 
Q 2172 3584 2448 3432 
Q 2725 3281 2906 2969 
z
M 947 1747 
Q 947 1113 1208 752 
Q 1469 391 1925 391 
Q 2381 391 2643 752 
Q 2906 1113 2906 1747 
Q 2906 2381 2643 2742 
Q 2381 3103 1925 3103 
Q 1469 3103 1208 2742 
Q 947 2381 947 1747 
z
" transform="scale(0.015625)"/>
      <path id="DejaVuSans-73" d="M 2834 3397 
L 2834 2853 
Q 2591 2978 2328 3040 
Q 2066 3103 1784 3103 
Q 1356 3103 1142 2972 
Q 928 2841 928 2578 
Q 928 2378 1081 2264 
Q 1234 2150 1697 2047 
L 1894 2003 
Q 2506 1872 2764 1633 
Q 3022 1394 3022 966 
Q 3022 478 2636 193 
Q 2250 -91 1575 -91 
Q 1294 -91 989 -36 
Q 684 19 347 128 
L 347 722 
Q 666 556 975 473 
Q 1284 391 1588 391 
Q 1994 391 2212 530 
Q 2431 669 2431 922 
Q 2431 1156 2273 1281 
Q 2116 1406 1581 1522 
L 1381 1569 
Q 847 1681 609 1914 
Q 372 2147 372 2553 
Q 372 3047 722 3315 
Q 1072 3584 1716 3584 
Q 2034 3584 2315 3537 
Q 2597 3491 2834 3397 
z
" transform="scale(0.015625)"/>
      <path id="DejaVuSans-46" d="M 628 4666 
L 3309 4666 
L 3309 4134 
L 1259 4134 
L 1259 2759 
L 3109 2759 
L 3109 2228 
L 1259 2228 
L 1259 0 
L 628 0 
L 628 4666 
z
" transform="scale(0.015625)"/>
      <path id="DejaVuSans-63" d="M 3122 3366 
L 3122 2828 
Q 2878 2963 2633 3030 
Q 2388 3097 2138 3097 
Q 1578 3097 1268 2742 
Q 959 2388 959 1747 
Q 959 1106 1268 751 
Q 1578 397 2138 397 
Q 2388 397 2633 464 
Q 2878 531 3122 666 
L 3122 134 
Q 2881 22 2623 -34 
Q 2366 -91 2075 -91 
Q 1284 -91 818 406 
Q 353 903 353 1747 
Q 353 2603 823 3093 
Q 1294 3584 2113 3584 
Q 2378 3584 2631 3529 
Q 2884 3475 3122 3366 
z
" transform="scale(0.015625)"/>
      <path id="DejaVuSans-74" d="M 1172 4494 
L 1172 3500 
L 2356 3500 
L 2356 3053 
L 1172 3053 
L 1172 1153 
Q 1172 725 1289 603 
Q 1406 481 1766 481 
L 2356 481 
L 2356 0 
L 1766 0 
Q 1100 0 847 248 
Q 594 497 594 1153 
L 594 3053 
L 172 3053 
L 172 3500 
L 594 3500 
L 594 4494 
L 1172 4494 
z
" transform="scale(0.015625)"/>
      <path id="DejaVuSans-67" d="M 2906 1791 
Q 2906 2416 2648 2759 
Q 2391 3103 1925 3103 
Q 1463 3103 1205 2759 
Q 947 2416 947 1791 
Q 947 1169 1205 825 
Q 1463 481 1925 481 
Q 2391 481 2648 825 
Q 2906 1169 2906 1791 
z
M 3481 434 
Q 3481 -459 3084 -895 
Q 2688 -1331 1869 -1331 
Q 1566 -1331 1297 -1286 
Q 1028 -1241 775 -1147 
L 775 -588 
Q 1028 -725 1275 -790 
Q 1522 -856 1778 -856 
Q 2344 -856 2625 -561 
Q 2906 -266 2906 331 
L 2906 616 
Q 2728 306 2450 153 
Q 2172 0 1784 0 
Q 1141 0 747 490 
Q 353 981 353 1791 
Q 353 2603 747 3093 
Q 1141 3584 1784 3584 
Q 2172 3584 2450 3431 
Q 2728 3278 2906 2969 
L 2906 3500 
L 3481 3500 
L 3481 434 
z
" transform="scale(0.015625)"/>
      <path id="DejaVuSans-49" d="M 628 4666 
L 1259 4666 
L 1259 0 
L 628 0 
L 628 4666 
z
" transform="scale(0.015625)"/>
     </defs>
     <use xlink:href="#DejaVuSans-44"/>
     <use xlink:href="#DejaVuSans-61" x="77.001953"/>
     <use xlink:href="#DejaVuSans-69" x="138.28125"/>
     <use xlink:href="#DejaVuSans-6c" x="166.064453"/>
     <use xlink:href="#DejaVuSans-79" x="193.847656"/>
     <use xlink:href="#DejaVuSans-20" x="253.027344"/>
     <use xlink:href="#DejaVuSans-43" x="284.814453"/>
     <use xlink:href="#DejaVuSans-6f" x="354.638672"/>
     <use xlink:href="#DejaVuSans-6e" x="415.820312"/>
     <use xlink:href="#DejaVuSans-66" x="479.199219"/>
     <use xlink:href="#DejaVuSans-69" x="514.404297"/>
     <use xlink:href="#DejaVuSans-72" x="542.1875"/>
     <use xlink:href="#DejaVuSans-6d" x="581.550781"/>
     <use xlink:href="#DejaVuSans-65" x="678.962891"/>
     <use xlink:href="#DejaVuSans-64" x="740.486328"/>
     <use xlink:href="#DejaVuSans-20" x="803.962891"/>
     <use xlink:href="#DejaVuSans-43" x="835.75"/>
     <use xlink:href="#DejaVuSans-61" x="905.574219"/>
     <use xlink:href="#DejaVuSans-73" x="966.853516"/>
     <use xlink:href="#DejaVuSans-65" x="1018.953125"/>
     <use xlink:href="#DejaVuSans-73" x="1080.476562"/>
     <use xlink:href="#DejaVuSans-20" x="1132.576172"/>
     <use xlink:href="#DejaVuSans-46" x="1164.363281"/>
     <use xlink:href="#DejaVuSans-6f" x="1218.257812"/>
     <use xlink:href="#DejaVuSans-72" x="1279.439453"/>
     <use xlink:href="#DejaVuSans-65" x="1318.302734"/>
     <use xlink:href="#DejaVuSans-63" x="1379.826172"/>
     <use xlink:href="#DejaVuSans-61" x="1434.806641"/>
     <use xlink:href="#DejaVuSans-73" x="1496.085938"/>
     <use xlink:href="#DejaVuSans-74" x="1548.185547"/>
     <use xlink:href="#DejaVuSans-69" x="1587.394531"/>
     <use xlink:href="#DejaVuSans-6e" x="1615.177734"/>
     <use xlink:href="#DejaVuSans-67" x="1678.556641"/>
     <use xlink:href="#DejaVuSans-20" x="1742.033203"/>
     <use xlink:href="#DejaVuSans-2d" x="1773.820312"/>
     <use xlink:href="#DejaVuSans-20" x="1809.904297"/>
     <use xlink:href="#DejaVuSans-49" x="1841.691406"/>
     <use xlink:href="#DejaVuSans-6c" x="1871.183594"/>
     <use xlink:href="#DejaVuSans-6c" x="1898.966797"/>
     <use xlink:href="#DejaVuSans-69" x="1926.75"/>
     <use xlink:href="#DejaVuSans-6e" x="1954.533203"/>
     <use xlink:href="#DejaVuSans-6f" x="2017.912109"/>
     <use xlink:href="#DejaVuSans-69" x="2079.09375"/>
     <use xlink:href="#DejaVuSans-73" x="2106.876953"/>
    </g>
    <!-- ARIMA (2, 1, 1)x(1, 0, 1, 7) (R2 = -0.148980) -->
    <g transform="translate(581.46375 29.7555)scale(0.12 -0.12)">
     <defs>
      <path id="DejaVuSans-41" d="M 2188 4044 
L 1331 1722 
L 3047 1722 
L 2188 4044 
z
M 1831 4666 
L 2547 4666 
L 4325 0 
L 3669 0 
L 3244 1197 
L 1141 1197 
L 716 0 
L 50 0 
L 1831 4666 
z
" transform="scale(0.015625)"/>
      <path id="DejaVuSans-52" d="M 2841 2188 
Q 3044 2119 3236 1894 
Q 3428 1669 3622 1275 
L 4263 0 
L 3584 0 
L 2988 1197 
Q 2756 1666 2539 1819 
Q 2322 1972 1947 1972 
L 1259 1972 
L 1259 0 
L 628 0 
L 628 4666 
L 2053 4666 
Q 2853 4666 3247 4331 
Q 3641 3997 3641 3322 
Q 3641 2881 3436 2590 
Q 3231 2300 2841 2188 
z
M 1259 4147 
L 1259 2491 
L 2053 2491 
Q 2509 2491 2742 2702 
Q 2975 2913 2975 3322 
Q 2975 3731 2742 3939 
Q 2509 4147 2053 4147 
L 1259 4147 
z
" transform="scale(0.015625)"/>
      <path id="DejaVuSans-4d" d="M 628 4666 
L 1569 4666 
L 2759 1491 
L 3956 4666 
L 4897 4666 
L 4897 0 
L 4281 0 
L 4281 4097 
L 3078 897 
L 2444 897 
L 1241 4097 
L 1241 0 
L 628 0 
L 628 4666 
z
" transform="scale(0.015625)"/>
      <path id="DejaVuSans-28" d="M 1984 4856 
Q 1566 4138 1362 3434 
Q 1159 2731 1159 2009 
Q 1159 1288 1364 580 
Q 1569 -128 1984 -844 
L 1484 -844 
Q 1016 -109 783 600 
Q 550 1309 550 2009 
Q 550 2706 781 3412 
Q 1013 4119 1484 4856 
L 1984 4856 
z
" transform="scale(0.015625)"/>
      <path id="DejaVuSans-2c" d="M 750 794 
L 1409 794 
L 1409 256 
L 897 -744 
L 494 -744 
L 750 256 
L 750 794 
z
" transform="scale(0.015625)"/>
      <path id="DejaVuSans-29" d="M 513 4856 
L 1013 4856 
Q 1481 4119 1714 3412 
Q 1947 2706 1947 2009 
Q 1947 1309 1714 600 
Q 1481 -109 1013 -844 
L 513 -844 
Q 928 -128 1133 580 
Q 1338 1288 1338 2009 
Q 1338 2731 1133 3434 
Q 928 4138 513 4856 
z
" transform="scale(0.015625)"/>
      <path id="DejaVuSans-78" d="M 3513 3500 
L 2247 1797 
L 3578 0 
L 2900 0 
L 1881 1375 
L 863 0 
L 184 0 
L 1544 1831 
L 300 3500 
L 978 3500 
L 1906 2253 
L 2834 3500 
L 3513 3500 
z
" transform="scale(0.015625)"/>
      <path id="DejaVuSans-3d" d="M 678 2906 
L 4684 2906 
L 4684 2381 
L 678 2381 
L 678 2906 
z
M 678 1631 
L 4684 1631 
L 4684 1100 
L 678 1100 
L 678 1631 
z
" transform="scale(0.015625)"/>
      <path id="DejaVuSans-2e" d="M 684 794 
L 1344 794 
L 1344 0 
L 684 0 
L 684 794 
z
" transform="scale(0.015625)"/>
      <path id="DejaVuSans-39" d="M 703 97 
L 703 672 
Q 941 559 1184 500 
Q 1428 441 1663 441 
Q 2288 441 2617 861 
Q 2947 1281 2994 2138 
Q 2813 1869 2534 1725 
Q 2256 1581 1919 1581 
Q 1219 1581 811 2004 
Q 403 2428 403 3163 
Q 403 3881 828 4315 
Q 1253 4750 1959 4750 
Q 2769 4750 3195 4129 
Q 3622 3509 3622 2328 
Q 3622 1225 3098 567 
Q 2575 -91 1691 -91 
Q 1453 -91 1209 -44 
Q 966 3 703 97 
z
M 1959 2075 
Q 2384 2075 2632 2365 
Q 2881 2656 2881 3163 
Q 2881 3666 2632 3958 
Q 2384 4250 1959 4250 
Q 1534 4250 1286 3958 
Q 1038 3666 1038 3163 
Q 1038 2656 1286 2365 
Q 1534 2075 1959 2075 
z
" transform="scale(0.015625)"/>
     </defs>
     <use xlink:href="#DejaVuSans-41"/>
     <use xlink:href="#DejaVuSans-52" x="68.408203"/>
     <use xlink:href="#DejaVuSans-49" x="137.890625"/>
     <use xlink:href="#DejaVuSans-4d" x="167.382812"/>
     <use xlink:href="#DejaVuSans-41" x="253.662109"/>
     <use xlink:href="#DejaVuSans-20" x="322.070312"/>
     <use xlink:href="#DejaVuSans-28" x="353.857422"/>
     <use xlink:href="#DejaVuSans-32" x="392.871094"/>
     <use xlink:href="#DejaVuSans-2c" x="456.494141"/>
     <use xlink:href="#DejaVuSans-20" x="488.28125"/>
     <use xlink:href="#DejaVuSans-31" x="520.068359"/>
     <use xlink:href="#DejaVuSans-2c" x="583.691406"/>
     <use xlink:href="#DejaVuSans-20" x="615.478516"/>
     <use xlink:href="#DejaVuSans-31" x="647.265625"/>
     <use xlink:href="#DejaVuSans-29" x="710.888672"/>
     <use xlink:href="#DejaVuSans-78" x="749.902344"/>
     <use xlink:href="#DejaVuSans-28" x="809.082031"/>
     <use xlink:href="#DejaVuSans-31" x="848.095703"/>
     <use xlink:href="#DejaVuSans-2c" x="911.71875"/>
     <use xlink:href="#DejaVuSans-20" x="943.505859"/>
     <use xlink:href="#DejaVuSans-30" x="975.292969"/>
     <use xlink:href="#DejaVuSans-2c" x="1038.916016"/>
     <use xlink:href="#DejaVuSans-20" x="1070.703125"/>
     <use xlink:href="#DejaVuSans-31" x="1102.490234"/>
     <use xlink:href="#DejaVuSans-2c" x="1166.113281"/>
     <use xlink:href="#DejaVuSans-20" x="1197.900391"/>
     <use xlink:href="#DejaVuSans-37" x="1229.6875"/>
     <use xlink:href="#DejaVuSans-29" x="1293.310547"/>
     <use xlink:href="#DejaVuSans-20" x="1332.324219"/>
     <use xlink:href="#DejaVuSans-28" x="1364.111328"/>
     <use xlink:href="#DejaVuSans-52" x="1403.125"/>
     <use xlink:href="#DejaVuSans-32" x="1472.607422"/>
     <use xlink:href="#DejaVuSans-20" x="1536.230469"/>
     <use xlink:href="#DejaVuSans-3d" x="1568.017578"/>
     <use xlink:href="#DejaVuSans-20" x="1651.806641"/>
     <use xlink:href="#DejaVuSans-2d" x="1683.59375"/>
     <use xlink:href="#DejaVuSans-30" x="1719.677734"/>
     <use xlink:href="#DejaVuSans-2e" x="1783.300781"/>
     <use xlink:href="#DejaVuSans-31" x="1815.087891"/>
     <use xlink:href="#DejaVuSans-34" x="1878.710938"/>
     <use xlink:href="#DejaVuSans-38" x="1942.333984"/>
     <use xlink:href="#DejaVuSans-39" x="2005.957031"/>
     <use xlink:href="#DejaVuSans-38" x="2069.580078"/>
     <use xlink:href="#DejaVuSans-30" x="2133.203125"/>
     <use xlink:href="#DejaVuSans-29" x="2196.826172"/>
    </g>
   </g>
   <g id="legend_1">
    <g id="patch_7">
     <path d="M 1281.132812 87.789875 
L 1378.2125 87.789875 
Q 1380.2125 87.789875 1380.2125 85.789875 
L 1380.2125 42.7555 
Q 1380.2125 40.7555 1378.2125 40.7555 
L 1281.132812 40.7555 
Q 1279.132812 40.7555 1279.132812 42.7555 
L 1279.132812 85.789875 
Q 1279.132812 87.789875 1281.132812 87.789875 
z
" style="fill: #ffffff; opacity: 0.8; stroke: #cccccc; stroke-linejoin: miter"/>
    </g>
    <g id="line2d_20">
     <path d="M 1283.132812 48.853937 
L 1293.132812 48.853937 
L 1303.132812 48.853937 
" style="fill: none; stroke: #0000ff; stroke-width: 1.5; stroke-linecap: square"/>
    </g>
    <g id="text_18">
     <!-- Actual Value -->
     <g transform="translate(1311.132812 52.353937)scale(0.1 -0.1)">
      <defs>
       <path id="DejaVuSans-75" d="M 544 1381 
L 544 3500 
L 1119 3500 
L 1119 1403 
Q 1119 906 1312 657 
Q 1506 409 1894 409 
Q 2359 409 2629 706 
Q 2900 1003 2900 1516 
L 2900 3500 
L 3475 3500 
L 3475 0 
L 2900 0 
L 2900 538 
Q 2691 219 2414 64 
Q 2138 -91 1772 -91 
Q 1169 -91 856 284 
Q 544 659 544 1381 
z
M 1991 3584 
L 1991 3584 
z
" transform="scale(0.015625)"/>
       <path id="DejaVuSans-56" d="M 1831 0 
L 50 4666 
L 709 4666 
L 2188 738 
L 3669 4666 
L 4325 4666 
L 2547 0 
L 1831 0 
z
" transform="scale(0.015625)"/>
      </defs>
      <use xlink:href="#DejaVuSans-41"/>
      <use xlink:href="#DejaVuSans-63" x="66.658203"/>
      <use xlink:href="#DejaVuSans-74" x="121.638672"/>
      <use xlink:href="#DejaVuSans-75" x="160.847656"/>
      <use xlink:href="#DejaVuSans-61" x="224.226562"/>
      <use xlink:href="#DejaVuSans-6c" x="285.505859"/>
      <use xlink:href="#DejaVuSans-20" x="313.289062"/>
      <use xlink:href="#DejaVuSans-56" x="345.076172"/>
      <use xlink:href="#DejaVuSans-61" x="405.734375"/>
      <use xlink:href="#DejaVuSans-6c" x="467.013672"/>
      <use xlink:href="#DejaVuSans-75" x="494.796875"/>
      <use xlink:href="#DejaVuSans-65" x="558.175781"/>
     </g>
    </g>
    <g id="line2d_21">
     <path d="M 1283.132812 63.532062 
L 1293.132812 63.532062 
L 1303.132812 63.532062 
" style="fill: none; stroke: #ffa500; stroke-width: 1.5; stroke-linecap: square"/>
    </g>
    <g id="text_19">
     <!-- Check Value -->
     <g transform="translate(1311.132812 67.032062)scale(0.1 -0.1)">
      <defs>
       <path id="DejaVuSans-68" d="M 3513 2113 
L 3513 0 
L 2938 0 
L 2938 2094 
Q 2938 2591 2744 2837 
Q 2550 3084 2163 3084 
Q 1697 3084 1428 2787 
Q 1159 2491 1159 1978 
L 1159 0 
L 581 0 
L 581 4863 
L 1159 4863 
L 1159 2956 
Q 1366 3272 1645 3428 
Q 1925 3584 2291 3584 
Q 2894 3584 3203 3211 
Q 3513 2838 3513 2113 
z
" transform="scale(0.015625)"/>
       <path id="DejaVuSans-6b" d="M 581 4863 
L 1159 4863 
L 1159 1991 
L 2875 3500 
L 3609 3500 
L 1753 1863 
L 3688 0 
L 2938 0 
L 1159 1709 
L 1159 0 
L 581 0 
L 581 4863 
z
" transform="scale(0.015625)"/>
      </defs>
      <use xlink:href="#DejaVuSans-43"/>
      <use xlink:href="#DejaVuSans-68" x="69.824219"/>
      <use xlink:href="#DejaVuSans-65" x="133.203125"/>
      <use xlink:href="#DejaVuSans-63" x="194.726562"/>
      <use xlink:href="#DejaVuSans-6b" x="249.707031"/>
      <use xlink:href="#DejaVuSans-20" x="307.617188"/>
      <use xlink:href="#DejaVuSans-56" x="339.404297"/>
      <use xlink:href="#DejaVuSans-61" x="400.0625"/>
      <use xlink:href="#DejaVuSans-6c" x="461.341797"/>
      <use xlink:href="#DejaVuSans-75" x="489.125"/>
      <use xlink:href="#DejaVuSans-65" x="552.503906"/>
     </g>
    </g>
    <g id="line2d_22">
     <path d="M 1283.132812 78.210187 
L 1293.132812 78.210187 
L 1303.132812 78.210187 
" style="fill: none; stroke: #ff0000; stroke-width: 1.5; stroke-linecap: square"/>
    </g>
    <g id="text_20">
     <!-- Predict Value -->
     <g transform="translate(1311.132812 81.710187)scale(0.1 -0.1)">
      <defs>
       <path id="DejaVuSans-50" d="M 1259 4147 
L 1259 2394 
L 2053 2394 
Q 2494 2394 2734 2622 
Q 2975 2850 2975 3272 
Q 2975 3691 2734 3919 
Q 2494 4147 2053 4147 
L 1259 4147 
z
M 628 4666 
L 2053 4666 
Q 2838 4666 3239 4311 
Q 3641 3956 3641 3272 
Q 3641 2581 3239 2228 
Q 2838 1875 2053 1875 
L 1259 1875 
L 1259 0 
L 628 0 
L 628 4666 
z
" transform="scale(0.015625)"/>
      </defs>
      <use xlink:href="#DejaVuSans-50"/>
      <use xlink:href="#DejaVuSans-72" x="58.552734"/>
      <use xlink:href="#DejaVuSans-65" x="97.416016"/>
      <use xlink:href="#DejaVuSans-64" x="158.939453"/>
      <use xlink:href="#DejaVuSans-69" x="222.416016"/>
      <use xlink:href="#DejaVuSans-63" x="250.199219"/>
      <use xlink:href="#DejaVuSans-74" x="305.179688"/>
      <use xlink:href="#DejaVuSans-20" x="344.388672"/>
      <use xlink:href="#DejaVuSans-56" x="376.175781"/>
      <use xlink:href="#DejaVuSans-61" x="436.833984"/>
      <use xlink:href="#DejaVuSans-6c" x="498.113281"/>
      <use xlink:href="#DejaVuSans-75" x="525.896484"/>
      <use xlink:href="#DejaVuSans-65" x="589.275391"/>
     </g>
    </g>
   </g>
  </g>
 </g>
 <defs>
  <clipPath id="p3b59ec2ac9">
   <rect x="46.0125" y="35.7555" width="1339.2" height="332.64"/>
  </clipPath>
 </defs>
</svg>
