<?xml version="1.0" encoding="utf-8" standalone="no"?>
<!DOCTYPE svg PUBLIC "-//W3C//DTD SVG 1.1//EN"
  "http://www.w3.org/Graphics/SVG/1.1/DTD/svg11.dtd">
<svg xmlns:xlink="http://www.w3.org/1999/xlink" width="1386.05pt" height="392.273625pt" viewBox="0 0 1386.05 392.273625" xmlns="http://www.w3.org/2000/svg" version="1.1">
 <metadata>
  <rdf:RDF xmlns:dc="http://purl.org/dc/elements/1.1/" xmlns:cc="http://creativecommons.org/ns#" xmlns:rdf="http://www.w3.org/1999/02/22-rdf-syntax-ns#">
   <cc:Work>
    <dc:type rdf:resource="http://purl.org/dc/dcmitype/StillImage"/>
    <dc:date>2022-06-20T17:34:06.582372</dc:date>
    <dc:format>image/svg+xml</dc:format>
    <dc:creator>
     <cc:Agent>
      <dc:title>Matplotlib v3.5.2, https://matplotlib.org/</dc:title>
     </cc:Agent>
    </dc:creator>
   </cc:Work>
  </rdf:RDF>
 </metadata>
 <defs>
  <style type="text/css">*{stroke-linejoin: round; stroke-linecap: butt}</style>
 </defs>
 <g id="figure_1">
  <g id="patch_1">
   <path d="M 0 392.273625 
L 1386.05 392.273625 
L 1386.05 0 
L 0 0 
z
" style="fill: #ffffff"/>
  </g>
  <g id="axes_1">
   <g id="patch_2">
    <path d="M 39.65 368.3955 
L 1378.85 368.3955 
L 1378.85 35.7555 
L 39.65 35.7555 
z
" style="fill: #ffffff"/>
   </g>
   <g id="matplotlib.axis_1">
    <g id="xtick_1">
     <g id="line2d_1">
      <defs>
       <path id="mf1f0acd5a8" d="M 0 0 
L 0 3.5 
" style="stroke: #000000; stroke-width: 0.8"/>
      </defs>
      <g>
       <use xlink:href="#mf1f0acd5a8" x="70.462121" y="368.3955" style="stroke: #000000; stroke-width: 0.8"/>
      </g>
     </g>
     <g id="text_1">
      <!-- 2020-01 -->
      <g transform="translate(49.570715 382.993937)scale(0.1 -0.1)">
       <defs>
        <path id="DejaVuSans-32" d="M 1228 531 
L 3431 531 
L 3431 0 
L 469 0 
L 469 531 
Q 828 903 1448 1529 
Q 2069 2156 2228 2338 
Q 2531 2678 2651 2914 
Q 2772 3150 2772 3378 
Q 2772 3750 2511 3984 
Q 2250 4219 1831 4219 
Q 1534 4219 1204 4116 
Q 875 4013 500 3803 
L 500 4441 
Q 881 4594 1212 4672 
Q 1544 4750 1819 4750 
Q 2544 4750 2975 4387 
Q 3406 4025 3406 3419 
Q 3406 3131 3298 2873 
Q 3191 2616 2906 2266 
Q 2828 2175 2409 1742 
Q 1991 1309 1228 531 
z
" transform="scale(0.015625)"/>
        <path id="DejaVuSans-30" d="M 2034 4250 
Q 1547 4250 1301 3770 
Q 1056 3291 1056 2328 
Q 1056 1369 1301 889 
Q 1547 409 2034 409 
Q 2525 409 2770 889 
Q 3016 1369 3016 2328 
Q 3016 3291 2770 3770 
Q 2525 4250 2034 4250 
z
M 2034 4750 
Q 2819 4750 3233 4129 
Q 3647 3509 3647 2328 
Q 3647 1150 3233 529 
Q 2819 -91 2034 -91 
Q 1250 -91 836 529 
Q 422 1150 422 2328 
Q 422 3509 836 4129 
Q 1250 4750 2034 4750 
z
" transform="scale(0.015625)"/>
        <path id="DejaVuSans-2d" d="M 313 2009 
L 1997 2009 
L 1997 1497 
L 313 1497 
L 313 2009 
z
" transform="scale(0.015625)"/>
        <path id="DejaVuSans-31" d="M 794 531 
L 1825 531 
L 1825 4091 
L 703 3866 
L 703 4441 
L 1819 4666 
L 2450 4666 
L 2450 531 
L 3481 531 
L 3481 0 
L 794 0 
L 794 531 
z
" transform="scale(0.015625)"/>
       </defs>
       <use xlink:href="#DejaVuSans-32"/>
       <use xlink:href="#DejaVuSans-30" x="63.623047"/>
       <use xlink:href="#DejaVuSans-32" x="127.246094"/>
       <use xlink:href="#DejaVuSans-30" x="190.869141"/>
       <use xlink:href="#DejaVuSans-2d" x="254.492188"/>
       <use xlink:href="#DejaVuSans-30" x="290.576172"/>
       <use xlink:href="#DejaVuSans-31" x="354.199219"/>
      </g>
     </g>
    </g>
    <g id="xtick_2">
     <g id="line2d_2">
      <g>
       <use xlink:href="#mf1f0acd5a8" x="194.803719" y="368.3955" style="stroke: #000000; stroke-width: 0.8"/>
      </g>
     </g>
     <g id="text_2">
      <!-- 2020-04 -->
      <g transform="translate(173.912313 382.993937)scale(0.1 -0.1)">
       <defs>
        <path id="DejaVuSans-34" d="M 2419 4116 
L 825 1625 
L 2419 1625 
L 2419 4116 
z
M 2253 4666 
L 3047 4666 
L 3047 1625 
L 3713 1625 
L 3713 1100 
L 3047 1100 
L 3047 0 
L 2419 0 
L 2419 1100 
L 313 1100 
L 313 1709 
L 2253 4666 
z
" transform="scale(0.015625)"/>
       </defs>
       <use xlink:href="#DejaVuSans-32"/>
       <use xlink:href="#DejaVuSans-30" x="63.623047"/>
       <use xlink:href="#DejaVuSans-32" x="127.246094"/>
       <use xlink:href="#DejaVuSans-30" x="190.869141"/>
       <use xlink:href="#DejaVuSans-2d" x="254.492188"/>
       <use xlink:href="#DejaVuSans-30" x="290.576172"/>
       <use xlink:href="#DejaVuSans-34" x="354.199219"/>
      </g>
     </g>
    </g>
    <g id="xtick_3">
     <g id="line2d_3">
      <g>
       <use xlink:href="#mf1f0acd5a8" x="319.145317" y="368.3955" style="stroke: #000000; stroke-width: 0.8"/>
      </g>
     </g>
     <g id="text_3">
      <!-- 2020-07 -->
      <g transform="translate(298.253911 382.993937)scale(0.1 -0.1)">
       <defs>
        <path id="DejaVuSans-37" d="M 525 4666 
L 3525 4666 
L 3525 4397 
L 1831 0 
L 1172 0 
L 2766 4134 
L 525 4134 
L 525 4666 
z
" transform="scale(0.015625)"/>
       </defs>
       <use xlink:href="#DejaVuSans-32"/>
       <use xlink:href="#DejaVuSans-30" x="63.623047"/>
       <use xlink:href="#DejaVuSans-32" x="127.246094"/>
       <use xlink:href="#DejaVuSans-30" x="190.869141"/>
       <use xlink:href="#DejaVuSans-2d" x="254.492188"/>
       <use xlink:href="#DejaVuSans-30" x="290.576172"/>
       <use xlink:href="#DejaVuSans-37" x="354.199219"/>
      </g>
     </g>
    </g>
    <g id="xtick_4">
     <g id="line2d_4">
      <g>
       <use xlink:href="#mf1f0acd5a8" x="444.853306" y="368.3955" style="stroke: #000000; stroke-width: 0.8"/>
      </g>
     </g>
     <g id="text_4">
      <!-- 2020-10 -->
      <g transform="translate(423.9619 382.993937)scale(0.1 -0.1)">
       <use xlink:href="#DejaVuSans-32"/>
       <use xlink:href="#DejaVuSans-30" x="63.623047"/>
       <use xlink:href="#DejaVuSans-32" x="127.246094"/>
       <use xlink:href="#DejaVuSans-30" x="190.869141"/>
       <use xlink:href="#DejaVuSans-2d" x="254.492188"/>
       <use xlink:href="#DejaVuSans-31" x="290.576172"/>
       <use xlink:href="#DejaVuSans-30" x="354.199219"/>
      </g>
     </g>
    </g>
    <g id="xtick_5">
     <g id="line2d_5">
      <g>
       <use xlink:href="#mf1f0acd5a8" x="570.561295" y="368.3955" style="stroke: #000000; stroke-width: 0.8"/>
      </g>
     </g>
     <g id="text_5">
      <!-- 2021-01 -->
      <g transform="translate(549.669889 382.993937)scale(0.1 -0.1)">
       <use xlink:href="#DejaVuSans-32"/>
       <use xlink:href="#DejaVuSans-30" x="63.623047"/>
       <use xlink:href="#DejaVuSans-32" x="127.246094"/>
       <use xlink:href="#DejaVuSans-31" x="190.869141"/>
       <use xlink:href="#DejaVuSans-2d" x="254.492188"/>
       <use xlink:href="#DejaVuSans-30" x="290.576172"/>
       <use xlink:href="#DejaVuSans-31" x="354.199219"/>
      </g>
     </g>
    </g>
    <g id="xtick_6">
     <g id="line2d_6">
      <g>
       <use xlink:href="#mf1f0acd5a8" x="693.536501" y="368.3955" style="stroke: #000000; stroke-width: 0.8"/>
      </g>
     </g>
     <g id="text_6">
      <!-- 2021-04 -->
      <g transform="translate(672.645095 382.993937)scale(0.1 -0.1)">
       <use xlink:href="#DejaVuSans-32"/>
       <use xlink:href="#DejaVuSans-30" x="63.623047"/>
       <use xlink:href="#DejaVuSans-32" x="127.246094"/>
       <use xlink:href="#DejaVuSans-31" x="190.869141"/>
       <use xlink:href="#DejaVuSans-2d" x="254.492188"/>
       <use xlink:href="#DejaVuSans-30" x="290.576172"/>
       <use xlink:href="#DejaVuSans-34" x="354.199219"/>
      </g>
     </g>
    </g>
    <g id="xtick_7">
     <g id="line2d_7">
      <g>
       <use xlink:href="#mf1f0acd5a8" x="817.878099" y="368.3955" style="stroke: #000000; stroke-width: 0.8"/>
      </g>
     </g>
     <g id="text_7">
      <!-- 2021-07 -->
      <g transform="translate(796.986693 382.993937)scale(0.1 -0.1)">
       <use xlink:href="#DejaVuSans-32"/>
       <use xlink:href="#DejaVuSans-30" x="63.623047"/>
       <use xlink:href="#DejaVuSans-32" x="127.246094"/>
       <use xlink:href="#DejaVuSans-31" x="190.869141"/>
       <use xlink:href="#DejaVuSans-2d" x="254.492188"/>
       <use xlink:href="#DejaVuSans-30" x="290.576172"/>
       <use xlink:href="#DejaVuSans-37" x="354.199219"/>
      </g>
     </g>
    </g>
    <g id="xtick_8">
     <g id="line2d_8">
      <g>
       <use xlink:href="#mf1f0acd5a8" x="943.586088" y="368.3955" style="stroke: #000000; stroke-width: 0.8"/>
      </g>
     </g>
     <g id="text_8">
      <!-- 2021-10 -->
      <g transform="translate(922.694682 382.993937)scale(0.1 -0.1)">
       <use xlink:href="#DejaVuSans-32"/>
       <use xlink:href="#DejaVuSans-30" x="63.623047"/>
       <use xlink:href="#DejaVuSans-32" x="127.246094"/>
       <use xlink:href="#DejaVuSans-31" x="190.869141"/>
       <use xlink:href="#DejaVuSans-2d" x="254.492188"/>
       <use xlink:href="#DejaVuSans-31" x="290.576172"/>
       <use xlink:href="#DejaVuSans-30" x="354.199219"/>
      </g>
     </g>
    </g>
    <g id="xtick_9">
     <g id="line2d_9">
      <g>
       <use xlink:href="#mf1f0acd5a8" x="1069.294077" y="368.3955" style="stroke: #000000; stroke-width: 0.8"/>
      </g>
     </g>
     <g id="text_9">
      <!-- 2022-01 -->
      <g transform="translate(1048.402671 382.993937)scale(0.1 -0.1)">
       <use xlink:href="#DejaVuSans-32"/>
       <use xlink:href="#DejaVuSans-30" x="63.623047"/>
       <use xlink:href="#DejaVuSans-32" x="127.246094"/>
       <use xlink:href="#DejaVuSans-32" x="190.869141"/>
       <use xlink:href="#DejaVuSans-2d" x="254.492188"/>
       <use xlink:href="#DejaVuSans-30" x="290.576172"/>
       <use xlink:href="#DejaVuSans-31" x="354.199219"/>
      </g>
     </g>
    </g>
    <g id="xtick_10">
     <g id="line2d_10">
      <g>
       <use xlink:href="#mf1f0acd5a8" x="1192.269284" y="368.3955" style="stroke: #000000; stroke-width: 0.8"/>
      </g>
     </g>
     <g id="text_10">
      <!-- 2022-04 -->
      <g transform="translate(1171.377877 382.993937)scale(0.1 -0.1)">
       <use xlink:href="#DejaVuSans-32"/>
       <use xlink:href="#DejaVuSans-30" x="63.623047"/>
       <use xlink:href="#DejaVuSans-32" x="127.246094"/>
       <use xlink:href="#DejaVuSans-32" x="190.869141"/>
       <use xlink:href="#DejaVuSans-2d" x="254.492188"/>
       <use xlink:href="#DejaVuSans-30" x="290.576172"/>
       <use xlink:href="#DejaVuSans-34" x="354.199219"/>
      </g>
     </g>
    </g>
    <g id="xtick_11">
     <g id="line2d_11">
      <g>
       <use xlink:href="#mf1f0acd5a8" x="1316.610882" y="368.3955" style="stroke: #000000; stroke-width: 0.8"/>
      </g>
     </g>
     <g id="text_11">
      <!-- 2022-07 -->
      <g transform="translate(1295.719475 382.993937)scale(0.1 -0.1)">
       <use xlink:href="#DejaVuSans-32"/>
       <use xlink:href="#DejaVuSans-30" x="63.623047"/>
       <use xlink:href="#DejaVuSans-32" x="127.246094"/>
       <use xlink:href="#DejaVuSans-32" x="190.869141"/>
       <use xlink:href="#DejaVuSans-2d" x="254.492188"/>
       <use xlink:href="#DejaVuSans-30" x="290.576172"/>
       <use xlink:href="#DejaVuSans-37" x="354.199219"/>
      </g>
     </g>
    </g>
   </g>
   <g id="matplotlib.axis_2">
    <g id="ytick_1">
     <g id="line2d_12">
      <defs>
       <path id="m6d0249c557" d="M 0 0 
L -3.5 0 
" style="stroke: #000000; stroke-width: 0.8"/>
      </defs>
      <g>
       <use xlink:href="#m6d0249c557" x="39.65" y="332.657691" style="stroke: #000000; stroke-width: 0.8"/>
      </g>
     </g>
     <g id="text_12">
      <!-- 0 -->
      <g transform="translate(26.2875 336.45691)scale(0.1 -0.1)">
       <use xlink:href="#DejaVuSans-30"/>
      </g>
     </g>
    </g>
    <g id="ytick_2">
     <g id="line2d_13">
      <g>
       <use xlink:href="#m6d0249c557" x="39.65" y="276.312522" style="stroke: #000000; stroke-width: 0.8"/>
      </g>
     </g>
     <g id="text_13">
      <!-- 1000 -->
      <g transform="translate(7.2 280.111741)scale(0.1 -0.1)">
       <use xlink:href="#DejaVuSans-31"/>
       <use xlink:href="#DejaVuSans-30" x="63.623047"/>
       <use xlink:href="#DejaVuSans-30" x="127.246094"/>
       <use xlink:href="#DejaVuSans-30" x="190.869141"/>
      </g>
     </g>
    </g>
    <g id="ytick_3">
     <g id="line2d_14">
      <g>
       <use xlink:href="#m6d0249c557" x="39.65" y="219.967353" style="stroke: #000000; stroke-width: 0.8"/>
      </g>
     </g>
     <g id="text_14">
      <!-- 2000 -->
      <g transform="translate(7.2 223.766572)scale(0.1 -0.1)">
       <use xlink:href="#DejaVuSans-32"/>
       <use xlink:href="#DejaVuSans-30" x="63.623047"/>
       <use xlink:href="#DejaVuSans-30" x="127.246094"/>
       <use xlink:href="#DejaVuSans-30" x="190.869141"/>
      </g>
     </g>
    </g>
    <g id="ytick_4">
     <g id="line2d_15">
      <g>
       <use xlink:href="#m6d0249c557" x="39.65" y="163.622184" style="stroke: #000000; stroke-width: 0.8"/>
      </g>
     </g>
     <g id="text_15">
      <!-- 3000 -->
      <g transform="translate(7.2 167.421402)scale(0.1 -0.1)">
       <defs>
        <path id="DejaVuSans-33" d="M 2597 2516 
Q 3050 2419 3304 2112 
Q 3559 1806 3559 1356 
Q 3559 666 3084 287 
Q 2609 -91 1734 -91 
Q 1441 -91 1130 -33 
Q 819 25 488 141 
L 488 750 
Q 750 597 1062 519 
Q 1375 441 1716 441 
Q 2309 441 2620 675 
Q 2931 909 2931 1356 
Q 2931 1769 2642 2001 
Q 2353 2234 1838 2234 
L 1294 2234 
L 1294 2753 
L 1863 2753 
Q 2328 2753 2575 2939 
Q 2822 3125 2822 3475 
Q 2822 3834 2567 4026 
Q 2313 4219 1838 4219 
Q 1578 4219 1281 4162 
Q 984 4106 628 3988 
L 628 4550 
Q 988 4650 1302 4700 
Q 1616 4750 1894 4750 
Q 2613 4750 3031 4423 
Q 3450 4097 3450 3541 
Q 3450 3153 3228 2886 
Q 3006 2619 2597 2516 
z
" transform="scale(0.015625)"/>
       </defs>
       <use xlink:href="#DejaVuSans-33"/>
       <use xlink:href="#DejaVuSans-30" x="63.623047"/>
       <use xlink:href="#DejaVuSans-30" x="127.246094"/>
       <use xlink:href="#DejaVuSans-30" x="190.869141"/>
      </g>
     </g>
    </g>
    <g id="ytick_5">
     <g id="line2d_16">
      <g>
       <use xlink:href="#m6d0249c557" x="39.65" y="107.277014" style="stroke: #000000; stroke-width: 0.8"/>
      </g>
     </g>
     <g id="text_16">
      <!-- 4000 -->
      <g transform="translate(7.2 111.076233)scale(0.1 -0.1)">
       <use xlink:href="#DejaVuSans-34"/>
       <use xlink:href="#DejaVuSans-30" x="63.623047"/>
       <use xlink:href="#DejaVuSans-30" x="127.246094"/>
       <use xlink:href="#DejaVuSans-30" x="190.869141"/>
      </g>
     </g>
    </g>
    <g id="ytick_6">
     <g id="line2d_17">
      <g>
       <use xlink:href="#m6d0249c557" x="39.65" y="50.931845" style="stroke: #000000; stroke-width: 0.8"/>
      </g>
     </g>
     <g id="text_17">
      <!-- 5000 -->
      <g transform="translate(7.2 54.731064)scale(0.1 -0.1)">
       <defs>
        <path id="DejaVuSans-35" d="M 691 4666 
L 3169 4666 
L 3169 4134 
L 1269 4134 
L 1269 2991 
Q 1406 3038 1543 3061 
Q 1681 3084 1819 3084 
Q 2600 3084 3056 2656 
Q 3513 2228 3513 1497 
Q 3513 744 3044 326 
Q 2575 -91 1722 -91 
Q 1428 -91 1123 -41 
Q 819 9 494 109 
L 494 744 
Q 775 591 1075 516 
Q 1375 441 1709 441 
Q 2250 441 2565 725 
Q 2881 1009 2881 1497 
Q 2881 1984 2565 2268 
Q 2250 2553 1709 2553 
Q 1456 2553 1204 2497 
Q 953 2441 691 2322 
L 691 4666 
z
" transform="scale(0.015625)"/>
       </defs>
       <use xlink:href="#DejaVuSans-35"/>
       <use xlink:href="#DejaVuSans-30" x="63.623047"/>
       <use xlink:href="#DejaVuSans-30" x="127.246094"/>
       <use xlink:href="#DejaVuSans-30" x="190.869141"/>
      </g>
     </g>
    </g>
   </g>
   <g id="line2d_18">
    <path d="M 100.522727 332.657691 
L 168.842287 332.601346 
L 170.208678 332.432311 
L 171.575069 332.601346 
L 172.94146 332.657691 
L 174.307851 332.545001 
L 177.040634 332.601346 
L 178.407025 332.150585 
L 179.773416 332.263275 
L 181.139807 332.263275 
L 182.506198 332.657691 
L 183.87259 331.699823 
L 185.238981 331.868859 
L 186.605372 331.249062 
L 187.971763 331.587133 
L 189.338154 331.530788 
L 190.704545 331.249062 
L 192.070937 331.699823 
L 193.437328 331.136372 
L 194.803719 332.09424 
L 196.17011 330.798301 
L 197.536501 332.545001 
L 198.902893 331.418098 
L 200.269284 331.474443 
L 201.635675 331.925204 
L 203.002066 331.530788 
L 204.368457 331.925204 
L 205.734848 331.418098 
L 207.10124 332.037895 
L 208.467631 331.981549 
L 213.933196 332.375966 
L 215.299587 332.037895 
L 218.032369 332.432311 
L 219.39876 332.263275 
L 220.765152 332.657691 
L 222.131543 332.432311 
L 223.497934 332.545001 
L 224.864325 332.488656 
L 227.597107 332.601346 
L 228.963499 332.488656 
L 230.32989 332.601346 
L 231.696281 332.545001 
L 233.062672 332.657691 
L 234.429063 332.545001 
L 235.795455 332.657691 
L 237.161846 332.545001 
L 238.528237 332.657691 
L 239.894628 332.545001 
L 241.261019 332.714037 
L 245.360193 332.545001 
L 246.726584 332.657691 
L 249.459366 332.601346 
L 250.825758 332.545001 
L 253.55854 332.657691 
L 254.924931 332.432311 
L 257.657713 332.657691 
L 259.024105 332.545001 
L 260.390496 332.601346 
L 261.756887 332.263275 
L 263.123278 332.601346 
L 265.856061 332.657691 
L 269.955234 332.657691 
L 272.688017 332.432311 
L 275.420799 331.981549 
L 276.78719 332.09424 
L 278.153581 332.432311 
L 279.519972 332.432311 
L 280.886364 332.545001 
L 282.252755 331.868859 
L 283.619146 332.545001 
L 284.985537 332.714037 
L 286.351928 332.375966 
L 287.71832 332.488656 
L 289.084711 332.31962 
L 290.451102 332.263275 
L 291.817493 332.545001 
L 293.183884 332.09424 
L 294.550275 331.812514 
L 295.916667 331.925204 
L 298.649449 332.375966 
L 301.382231 331.249062 
L 302.748623 332.037895 
L 304.115014 330.854646 
L 305.481405 331.587133 
L 306.847796 331.699823 
L 308.214187 332.150585 
L 310.94697 330.57292 
L 312.313361 331.192717 
L 313.679752 331.361752 
L 315.046143 332.037895 
L 316.412534 329.502362 
L 317.778926 329.953123 
L 319.145317 329.896778 
L 320.511708 328.882565 
L 321.878099 330.122159 
L 323.24449 330.46023 
L 324.610882 330.122159 
L 325.977273 330.57292 
L 327.343664 328.262768 
L 328.710055 330.178504 
L 330.076446 327.3049 
L 331.442837 325.501855 
L 332.809229 327.924697 
L 334.17562 328.093733 
L 335.542011 327.868352 
L 336.908402 326.516068 
L 338.274793 324.543987 
L 339.641185 325.051094 
L 341.007576 325.051094 
L 342.373967 326.741449 
L 343.740358 329.164291 
L 345.106749 327.755662 
L 346.47314 327.530281 
L 347.839532 326.966829 
L 349.205923 327.19221 
L 350.572314 325.389165 
L 351.938705 320.205409 
L 353.305096 328.037387 
L 354.671488 330.46023 
L 356.037879 327.361245 
L 357.40427 321.275967 
L 358.770661 324.882058 
L 360.137052 324.149571 
L 361.503444 326.121652 
L 362.869835 326.347032 
L 364.236226 330.403885 
L 365.602617 328.093733 
L 366.969008 326.177997 
L 368.335399 322.909977 
L 369.701791 323.92419 
L 371.068182 325.220129 
L 372.434573 329.107946 
L 373.800964 328.995255 
L 375.167355 327.755662 
L 376.533747 323.417084 
L 377.900138 324.825713 
L 379.266529 325.107439 
L 380.63292 326.008961 
L 381.999311 327.530281 
L 383.365702 330.291194 
L 384.732094 329.615052 
L 386.098485 326.459723 
L 387.464876 326.121652 
L 388.831267 324.543987 
L 390.197658 323.642464 
L 391.56405 329.671397 
L 392.930441 329.276981 
L 394.296832 325.051094 
L 395.663223 323.586119 
L 397.029614 324.543987 
L 398.396006 325.107439 
L 399.762397 322.0648 
L 401.128788 327.642971 
L 402.495179 328.093733 
L 403.86157 327.699316 
L 405.227961 322.402871 
L 406.594353 322.515561 
L 407.960744 324.318606 
L 409.327135 324.487642 
L 412.059917 329.727743 
L 413.426309 328.995255 
L 414.7927 327.755662 
L 416.159091 321.670383 
L 417.525482 325.783581 
L 418.891873 324.769368 
L 420.258264 327.248555 
L 421.624656 327.812007 
L 424.357438 322.121145 
L 425.723829 320.487135 
L 427.09022 320.036373 
L 428.456612 316.204902 
L 429.823003 324.994748 
L 431.189394 325.332819 
L 432.555785 317.388151 
L 433.922176 320.712515 
L 435.288567 314.063786 
L 436.654959 314.514547 
L 438.02135 313.331298 
L 439.387741 321.388658 
L 440.754132 315.41607 
L 442.120523 315.134344 
L 443.486915 313.105918 
L 444.853306 308.485614 
L 446.219697 312.655156 
L 447.586088 304.428762 
L 448.952479 316.937389 
L 450.318871 320.712515 
L 451.685262 304.485107 
L 453.051653 292.31455 
L 454.418044 298.061757 
L 455.784435 291.976479 
L 457.150826 292.20186 
L 458.517218 299.695767 
L 459.883609 308.823685 
L 461.25 305.273939 
L 462.616391 298.906935 
L 463.982782 291.920134 
L 465.349174 295.357189 
L 469.448347 300.59729 
L 470.814738 293.047037 
L 472.181129 297.780032 
L 473.547521 280.369374 
L 474.913912 284.03181 
L 476.280303 296.653128 
L 477.646694 291.074956 
L 479.013085 297.667341 
L 480.379477 285.046023 
L 481.745868 297.723686 
L 483.112259 282.679526 
L 484.47865 272.762776 
L 487.211433 293.554144 
L 488.577824 290.004398 
L 489.944215 281.552623 
L 491.310606 287.806937 
L 492.676997 275.580035 
L 494.043388 277.495771 
L 495.40978 276.256177 
L 496.776171 291.469373 
L 498.142562 311.584598 
L 499.508953 270.790696 
L 500.875344 280.876481 
L 502.241736 278.509984 
L 503.608127 264.311001 
L 504.974518 240.138923 
L 506.340909 260.986636 
L 507.7073 283.693739 
L 509.073691 255.408464 
L 510.440083 265.945011 
L 511.806474 263.015062 
L 513.172865 249.548567 
L 514.539256 262.282575 
L 515.905647 268.536889 
L 517.272039 293.159728 
L 518.63843 269.382066 
L 520.004821 272.875467 
L 521.371212 269.720137 
L 522.737603 326.234342 
L 524.103994 273.551609 
L 525.470386 278.79171 
L 526.836777 310.288659 
L 528.203168 275.918106 
L 529.569559 268.705924 
L 530.93595 288.595769 
L 532.302342 258.620139 
L 533.668733 296.991199 
L 535.035124 287.243485 
L 536.401515 292.31455 
L 537.767906 290.117089 
L 539.134298 288.314043 
L 540.500689 289.891708 
L 541.86708 277.552116 
L 543.233471 289.04653 
L 544.599862 295.526225 
L 545.966253 332.657691 
L 547.332645 291.131302 
L 548.699036 298.625209 
L 550.065427 285.384094 
L 551.431818 303.978 
L 552.798209 297.32927 
L 554.164601 301.611503 
L 555.530992 323.980535 
L 556.897383 297.554651 
L 558.263774 300.259219 
L 559.630165 309.725207 
L 560.996556 332.657691 
L 562.362948 304.259726 
L 563.729339 313.105918 
L 565.09573 320.318099 
L 566.462121 308.598304 
L 567.828512 283.412013 
L 569.194904 318.289673 
L 570.561295 332.657691 
L 571.927686 310.739421 
L 573.294077 308.034852 
L 574.660468 316.712008 
L 576.02686 292.427241 
L 577.393251 294.230286 
L 578.759642 293.779525 
L 580.126033 286.567343 
L 581.492424 302.569371 
L 582.858815 320.149064 
L 584.225207 314.120131 
L 585.591598 308.76734 
L 586.957989 300.202874 
L 588.32438 306.907949 
L 589.690771 303.076478 
L 591.057163 308.936375 
L 592.423554 313.669369 
L 593.789945 322.346525 
L 596.522727 310.62673 
L 597.889118 310.457695 
L 599.25551 310.119624 
L 600.621901 312.317085 
L 601.988292 319.02216 
L 603.354683 323.417084 
L 604.721074 313.274953 
L 606.087466 311.753634 
L 607.453857 309.950588 
L 608.820248 315.077999 
L 610.186639 303.583584 
L 611.55303 322.121145 
L 612.919421 325.839926 
L 614.285813 314.965308 
L 615.652204 308.654649 
L 617.018595 315.697795 
L 618.384986 313.105918 
L 619.751377 318.064293 
L 621.117769 328.544494 
L 622.48416 325.67089 
L 623.850551 311.584598 
L 625.216942 315.359724 
L 626.583333 318.740435 
L 627.949725 320.205409 
L 629.316116 319.472922 
L 630.682507 326.797794 
L 632.048898 324.882058 
L 633.415289 325.501855 
L 634.78168 319.472922 
L 636.148072 321.388658 
L 637.514463 317.050079 
L 638.880854 317.782567 
L 640.247245 324.882058 
L 641.613636 330.910991 
L 642.980028 319.698302 
L 644.346419 321.275967 
L 645.71281 321.219622 
L 647.079201 323.191703 
L 648.445592 320.036373 
L 649.811983 326.065307 
L 651.178375 329.896778 
L 652.544766 323.92419 
L 653.911157 321.783074 
L 655.277548 322.515561 
L 656.643939 325.614545 
L 658.010331 332.657691 
L 659.376722 318.120638 
L 660.743113 330.122159 
L 662.109504 325.107439 
L 663.475895 324.205916 
L 664.842287 322.459216 
L 666.208678 325.220129 
L 667.575069 323.079013 
L 668.94146 330.741956 
L 670.307851 322.909977 
L 671.674242 309.499827 
L 673.040634 324.769368 
L 674.407025 325.220129 
L 675.773416 324.093226 
L 677.139807 321.501348 
L 678.506198 327.361245 
L 679.87259 330.516575 
L 681.238981 312.711501 
L 682.605372 320.599825 
L 683.971763 323.417084 
L 685.338154 324.205916 
L 686.704545 326.065307 
L 688.070937 330.910991 
L 689.437328 330.68561 
L 690.803719 323.755155 
L 692.17011 319.641957 
L 693.536501 322.909977 
L 694.902893 325.44551 
L 696.269284 322.402871 
L 697.635675 326.628758 
L 699.002066 332.657691 
L 700.368457 321.895764 
L 701.734848 321.783074 
L 703.10124 320.036373 
L 704.467631 320.036373 
L 705.834022 323.191703 
L 707.200413 330.347539 
L 708.566804 328.71353 
L 709.933196 322.909977 
L 711.299587 321.106932 
L 712.665978 321.839419 
L 714.032369 326.008961 
L 715.39876 324.318606 
L 716.765152 329.502362 
L 718.131543 329.446017 
L 719.497934 322.684596 
L 720.864325 323.755155 
L 722.230716 322.459216 
L 723.597107 323.92419 
L 724.963499 322.797287 
L 726.32989 329.896778 
L 727.696281 331.868859 
L 729.062672 322.740942 
L 730.429063 321.275967 
L 731.795455 322.853632 
L 733.161846 323.980535 
L 734.528237 323.191703 
L 735.894628 330.122159 
L 737.261019 329.164291 
L 738.62741 320.092719 
L 739.993802 324.769368 
L 741.360193 325.163784 
L 742.726584 324.262261 
L 744.092975 324.093226 
L 745.459366 330.68561 
L 746.825758 332.037895 
L 748.192149 322.966322 
L 749.55854 320.825206 
L 750.924931 326.347032 
L 752.291322 325.276474 
L 755.024105 330.347539 
L 756.390496 330.516575 
L 757.756887 324.882058 
L 759.123278 325.276474 
L 760.489669 330.798301 
L 761.856061 324.994748 
L 763.222452 332.263275 
L 764.588843 330.68561 
L 765.955234 331.474443 
L 767.321625 324.03688 
L 768.688017 328.319113 
L 770.054408 323.135358 
L 771.420799 327.3049 
L 772.78719 328.882565 
L 774.153581 331.305407 
L 776.886364 331.812514 
L 778.252755 323.755155 
L 779.619146 325.501855 
L 780.985537 325.276474 
L 782.351928 332.657691 
L 783.71832 332.657691 
L 785.084711 325.839926 
L 786.451102 324.938403 
L 787.817493 328.544494 
L 789.183884 327.07952 
L 790.550275 328.657184 
L 791.916667 332.657691 
L 793.283058 332.657691 
L 794.649449 327.642971 
L 796.01584 327.07952 
L 797.382231 328.600839 
L 798.748623 328.657184 
L 800.115014 328.431804 
L 801.481405 332.657691 
L 802.847796 332.657691 
L 805.580579 326.121652 
L 806.94697 329.164291 
L 808.313361 328.82622 
L 809.679752 329.389672 
L 811.046143 332.657691 
L 812.412534 332.657691 
L 813.778926 329.953123 
L 815.145317 326.290687 
L 816.511708 328.995255 
L 817.878099 328.93891 
L 819.24449 329.727743 
L 820.610882 332.657691 
L 823.343664 332.657691 
L 826.076446 324.149571 
L 827.442837 327.755662 
L 828.809229 329.784088 
L 830.17562 332.657691 
L 831.542011 332.657691 
L 832.908402 327.868352 
L 835.641185 327.417591 
L 837.007576 328.82622 
L 838.373967 327.755662 
L 839.740358 332.657691 
L 841.106749 332.657691 
L 843.839532 323.8115 
L 845.205923 326.854139 
L 846.572314 324.713023 
L 847.938705 326.347032 
L 849.305096 332.657691 
L 850.671488 332.657691 
L 852.037879 324.149571 
L 853.40427 318.064293 
L 854.770661 320.092719 
L 856.137052 318.289673 
L 857.503444 320.092719 
L 858.869835 332.657691 
L 860.236226 332.657691 
L 861.602617 317.557186 
L 862.969008 310.175969 
L 864.335399 316.035866 
L 865.701791 316.768354 
L 867.068182 317.331805 
L 868.434573 332.657691 
L 869.800964 332.657691 
L 871.167355 310.795766 
L 872.533747 305.386629 
L 873.900138 311.866324 
L 875.266529 310.345004 
L 876.63292 313.218608 
L 877.999311 332.657691 
L 879.365702 332.657691 
L 880.732094 306.682568 
L 882.098485 297.667341 
L 883.464876 308.091198 
L 884.831267 304.766833 
L 886.197658 307.809472 
L 887.56405 332.657691 
L 888.930441 332.657691 
L 890.296832 296.258712 
L 891.663223 292.652621 
L 893.029614 298.625209 
L 894.396006 297.047544 
L 895.762397 292.878002 
L 897.128788 332.657691 
L 898.495179 332.657691 
L 899.86157 291.976479 
L 901.227961 282.566836 
L 902.594353 283.581049 
L 903.960744 291.131302 
L 905.327135 295.920641 
L 906.693526 332.657691 
L 909.426309 332.657691 
L 910.7927 264.029275 
L 912.159091 273.664299 
L 913.525482 276.425212 
L 914.891873 278.284603 
L 916.258264 332.657691 
L 917.624656 332.657691 
L 918.991047 263.916585 
L 920.357438 262.789682 
L 921.723829 264.254656 
L 923.09022 270.452625 
L 924.456612 263.97293 
L 925.823003 332.657691 
L 927.189394 332.657691 
L 928.555785 240.984101 
L 929.922176 266.508463 
L 931.288567 258.676484 
L 934.02135 274.340441 
L 935.387741 332.657691 
L 936.754132 332.657691 
L 938.120523 262.113539 
L 939.486915 264.874453 
L 940.853306 257.493236 
L 942.219697 264.536382 
L 943.586088 277.890187 
L 944.952479 332.657691 
L 946.318871 332.657691 
L 947.685262 249.604912 
L 949.051653 263.634859 
L 950.418044 255.183084 
L 951.784435 259.803388 
L 953.150826 258.95821 
L 954.517218 332.657691 
L 957.25 332.657691 
L 958.616391 207.796796 
L 959.982782 256.929784 
L 961.349174 260.141459 
L 962.715565 268.311508 
L 964.081956 332.657691 
L 965.448347 332.657691 
L 966.814738 260.986636 
L 968.181129 257.887652 
L 969.547521 262.507956 
L 970.913912 277.664806 
L 972.280303 271.917599 
L 973.646694 332.657691 
L 975.013085 332.657691 
L 976.379477 252.985622 
L 977.745868 269.382066 
L 979.112259 277.27039 
L 980.47865 277.27039 
L 981.845041 288.877495 
L 983.211433 332.657691 
L 984.577824 332.657691 
L 985.944215 269.043995 
L 987.310606 268.536889 
L 988.676997 283.862775 
L 990.043388 288.145008 
L 991.40978 294.230286 
L 992.776171 332.657691 
L 994.142562 332.657691 
L 995.508953 282.059729 
L 996.875344 269.663792 
L 998.241736 290.68054 
L 999.608127 332.657691 
L 1000.974518 266.114046 
L 1002.340909 332.657691 
L 1003.7073 332.657691 
L 1005.073691 288.595769 
L 1006.440083 274.565822 
L 1007.806474 299.132316 
L 1009.172865 291.638408 
L 1010.539256 305.442975 
L 1011.905647 332.657691 
L 1013.272039 332.657691 
L 1014.63843 304.935868 
L 1016.004821 294.230286 
L 1017.371212 304.992213 
L 1018.737603 332.657691 
L 1020.103994 310.51404 
L 1021.470386 332.657691 
L 1022.836777 332.657691 
L 1024.203168 312.767847 
L 1025.569559 299.526732 
L 1026.93595 299.921148 
L 1028.302342 313.951095 
L 1029.668733 315.134344 
L 1031.035124 332.657691 
L 1032.401515 332.657691 
L 1033.767906 312.711501 
L 1035.134298 309.274446 
L 1036.500689 317.331805 
L 1037.86708 317.669876 
L 1039.233471 322.797287 
L 1040.599862 332.657691 
L 1041.966253 332.657691 
L 1043.332645 322.121145 
L 1044.699036 321.219622 
L 1046.065427 316.373937 
L 1047.431818 323.360738 
L 1048.798209 321.275967 
L 1050.164601 332.657691 
L 1051.530992 332.657691 
L 1052.897383 323.360738 
L 1054.263774 319.02216 
L 1055.630165 318.79678 
L 1056.996556 318.458709 
L 1058.362948 332.657691 
L 1061.09573 332.657691 
L 1062.462121 311.528253 
L 1063.828512 309.612517 
L 1065.194904 298.399828 
L 1066.561295 295.300844 
L 1067.927686 332.657691 
L 1070.660468 332.657691 
L 1072.02686 287.806937 
L 1073.393251 279.974958 
L 1074.759642 270.50897 
L 1076.126033 267.184605 
L 1077.492424 268.255163 
L 1078.858815 332.657691 
L 1080.225207 332.657691 
L 1081.591598 224.193241 
L 1082.957989 247.745521 
L 1084.32438 229.151615 
L 1085.690771 233.039432 
L 1087.057163 209.937913 
L 1088.423554 332.657691 
L 1091.156336 332.657691 
L 1092.522727 112.34808 
L 1093.889118 216.642988 
L 1095.25551 217.544511 
L 1096.621901 219.798317 
L 1097.988292 332.657691 
L 1099.354683 332.657691 
L 1100.721074 50.8755 
L 1102.087466 170.834365 
L 1103.453857 158.551118 
L 1104.820248 168.636904 
L 1106.186639 172.975482 
L 1107.55303 332.657691 
L 1108.919421 332.657691 
L 1110.285813 142.267365 
L 1111.652204 278.960745 
L 1113.018595 252.534861 
L 1114.384986 273.438919 
L 1115.751377 83.443008 
L 1117.117769 332.657691 
L 1118.48416 332.657691 
L 1119.850551 226.108976 
L 1121.216942 260.310494 
L 1122.583333 274.791203 
L 1123.949725 266.170392 
L 1125.316116 263.97293 
L 1126.682507 332.657691 
L 1128.048898 332.657691 
L 1129.415289 263.803895 
L 1130.78168 281.214552 
L 1132.148072 279.918613 
L 1133.514463 281.834349 
L 1134.880854 269.607447 
L 1136.247245 332.657691 
L 1138.980028 332.657691 
L 1140.346419 240.476994 
L 1141.71281 280.876481 
L 1143.079201 281.947039 
L 1144.445592 297.723686 
L 1145.811983 332.657691 
L 1147.178375 332.657691 
L 1148.544766 288.595769 
L 1149.911157 295.920641 
L 1151.277548 283.693739 
L 1152.643939 284.764298 
L 1154.010331 215.459739 
L 1155.376722 332.657691 
L 1156.743113 332.657691 
L 1158.109504 323.586119 
L 1160.842287 325.44551 
L 1162.208678 325.5582 
L 1163.575069 329.784088 
L 1164.94146 332.657691 
L 1166.307851 332.657691 
L 1167.674242 325.163784 
L 1169.040634 326.966829 
L 1170.407025 328.544494 
L 1171.773416 327.699316 
L 1173.139807 328.769875 
L 1174.506198 332.657691 
L 1175.87259 332.657691 
L 1177.238981 328.262768 
L 1178.605372 328.431804 
L 1179.971763 329.671397 
L 1181.338154 330.122159 
L 1182.704545 330.347539 
L 1184.070937 332.657691 
L 1185.437328 332.657691 
L 1186.803719 329.446017 
L 1188.17011 329.558707 
L 1190.902893 331.981549 
L 1192.269284 328.93891 
L 1193.635675 332.657691 
L 1195.002066 332.657691 
L 1196.368457 329.389672 
L 1197.734848 329.953123 
L 1199.10124 328.769875 
L 1200.467631 330.967336 
L 1201.834022 331.361752 
L 1203.200413 332.657691 
L 1204.566804 332.657691 
L 1205.933196 328.71353 
L 1207.299587 329.276981 
L 1208.665978 330.234849 
L 1210.032369 330.68561 
L 1211.39876 329.446017 
L 1212.765152 332.657691 
L 1214.131543 332.657691 
L 1215.497934 327.586626 
L 1216.864325 327.981042 
L 1218.230716 327.924697 
L 1219.597107 330.291194 
L 1220.963499 328.375459 
L 1222.32989 332.657691 
L 1223.696281 332.657691 
L 1225.062672 328.150078 
L 1226.429063 326.403378 
L 1227.795455 326.572413 
L 1229.161846 326.121652 
L 1230.528237 328.262768 
L 1231.894628 332.657691 
L 1233.261019 332.657691 
L 1234.62741 324.093226 
L 1235.993802 325.276474 
L 1237.360193 325.727236 
L 1238.726584 327.417591 
L 1240.092975 326.065307 
L 1241.459366 332.657691 
L 1248.291322 332.657691 
L 1249.657713 303.639929 
L 1251.024105 332.657691 
L 1257.856061 332.657691 
L 1259.222452 271.861254 
L 1260.588843 332.657691 
L 1267.420799 332.657691 
L 1268.78719 259.127246 
L 1270.153581 332.657691 
L 1282.451102 332.657691 
L 1283.817493 248.365318 
L 1285.183884 332.657691 
L 1286.550275 332.657691 
L 1287.916667 221.545018 
L 1289.283058 332.657691 
L 1296.115014 332.657691 
L 1297.481405 214.952633 
L 1298.847796 332.657691 
L 1300.214187 332.657691 
L 1300.214187 332.657691 
" clip-path="url(#p911f8a33d7)" style="fill: none; stroke: #0000ff; stroke-width: 1.5; stroke-linecap: square"/>
   </g>
   <g id="line2d_19">
    <path d="M 1061.09573 324.841389 
L 1062.462121 319.683658 
L 1063.828512 318.547714 
L 1065.194904 318.060049 
L 1066.561295 319.692357 
L 1067.927686 326.637167 
L 1069.294077 327.537133 
L 1070.660468 315.393981 
L 1072.02686 309.00435 
L 1073.393251 300.480176 
L 1074.759642 296.006001 
L 1076.126033 308.647539 
L 1077.492424 305.012911 
L 1078.858815 309.145335 
L 1080.225207 289.014986 
L 1081.591598 275.190651 
L 1082.957989 265.396657 
L 1084.32438 258.688224 
L 1085.690771 263.406992 
L 1087.057163 281.622914 
L 1088.423554 289.251744 
L 1089.789945 242.193297 
L 1091.156336 262.894193 
L 1092.522727 230.424375 
L 1093.889118 229.257366 
L 1095.25551 222.624709 
L 1096.621901 282.525548 
L 1097.988292 290.01945 
L 1099.354683 270.689326 
L 1100.721074 155.567901 
L 1102.087466 193.640773 
L 1104.820248 184.63825 
L 1106.186639 255.758023 
L 1107.55303 267.253214 
L 1108.919421 155.067876 
L 1110.285813 160.334627 
L 1111.652204 190.469026 
L 1113.018595 204.044698 
L 1114.384986 215.401836 
L 1115.751377 292.774638 
L 1117.117769 298.736475 
L 1118.48416 171.193389 
L 1119.850551 236.02781 
L 1121.216942 235.330181 
L 1122.583333 251.424477 
L 1123.949725 180.185563 
L 1125.316116 336.273711 
L 1126.682507 335.733178 
L 1128.048898 230.164217 
L 1129.415289 275.680044 
L 1130.78168 280.063598 
L 1132.148072 281.58222 
L 1133.514463 245.510501 
L 1134.880854 344.747418 
L 1136.247245 342.94021 
L 1137.613636 264.161475 
L 1138.980028 300.60876 
L 1140.346419 292.822998 
L 1141.71281 292.521868 
L 1143.079201 268.850997 
L 1144.445592 343.602909 
L 1145.811983 341.966785 
L 1147.178375 303.497349 
L 1148.544766 277.98871 
L 1149.911157 296.963556 
L 1151.277548 296.109109 
L 1152.643939 289.947162 
L 1154.010331 326.214151 
L 1155.376722 327.177351 
L 1156.743113 293.056556 
L 1158.109504 289.294355 
L 1159.475895 297.620107 
L 1160.842287 302.738045 
L 1162.208678 277.04339 
L 1163.575069 353.2755 
L 1164.94146 350.193489 
L 1166.307851 327.27095 
L 1167.674242 323.310079 
L 1169.040634 325.7006 
L 1170.407025 326.629665 
L 1171.773416 314.462056 
L 1173.139807 350.527606 
L 1174.506198 347.856358 
L 1175.87259 332.92392 
L 1177.238981 331.178495 
L 1178.605372 332.266798 
L 1179.971763 331.791933 
L 1181.338154 326.041315 
L 1182.704545 344.483206 
L 1184.070937 342.715493 
L 1185.437328 333.424888 
L 1186.803719 332.392492 
L 1188.17011 333.17064 
L 1189.536501 332.941243 
L 1190.902893 330.244845 
L 1192.269284 339.491927 
L 1193.635675 338.470325 
L 1195.002066 332.61396 
L 1196.368457 331.965755 
L 1197.734848 332.702098 
L 1199.10124 332.660701 
L 1200.467631 329.998399 
L 1201.834022 336.181473 
L 1203.200413 335.654728 
L 1204.566804 331.541231 
L 1207.299587 330.999379 
L 1208.665978 332.002276 
L 1210.032369 330.802438 
L 1211.39876 333.974043 
L 1212.765152 333.777271 
L 1214.131543 330.315962 
L 1215.497934 330.194097 
L 1216.864325 330.253955 
L 1218.230716 330.617408 
L 1219.597107 329.604923 
L 1220.963499 332.290378 
L 1222.32989 332.345285 
L 1223.696281 328.837975 
L 1225.062672 329.025935 
L 1226.429063 328.799519 
L 1227.795455 329.728863 
L 1229.161846 327.981744 
L 1230.528237 331.067005 
L 1231.894628 331.304785 
L 1233.261019 328.047382 
L 1234.62741 326.916357 
L 1235.993802 326.816481 
L 1238.726584 327.387196 
L 1240.092975 330.360219 
L 1241.459366 330.703652 
L 1242.825758 326.003141 
L 1245.55854 328.260092 
L 1246.924931 329.781745 
L 1248.291322 329.80708 
L 1249.657713 329.982195 
L 1251.024105 330.382136 
L 1252.390496 328.32572 
L 1256.489669 330.577247 
L 1257.856061 319.405048 
L 1259.222452 325.548743 
L 1260.588843 326.61141 
L 1261.955234 326.364813 
L 1263.321625 327.351838 
L 1266.054408 329.066732 
L 1267.420799 300.439236 
L 1268.78719 324.276519 
L 1270.153581 325.529362 
L 1271.519972 326.042699 
L 1272.886364 327.053776 
L 1275.619146 328.72259 
L 1276.985537 286.705181 
L 1278.351928 336.58721 
L 1279.71832 335.999814 
L 1281.084711 335.235141 
L 1282.451102 334.860536 
L 1283.817493 321.943987 
L 1285.183884 323.591392 
L 1286.550275 304.494905 
L 1287.916667 312.742554 
L 1289.283058 315.719528 
L 1290.649449 318.124249 
L 1292.01584 287.509015 
L 1293.382231 327.057083 
L 1294.748623 327.916306 
L 1296.115014 275.580771 
L 1297.481405 319.656033 
L 1298.847796 321.59956 
L 1300.214187 323.191481 
L 1300.214187 323.191481 
" clip-path="url(#p911f8a33d7)" style="fill: none; stroke: #ffa500; stroke-width: 1.5; stroke-linecap: square"/>
   </g>
   <g id="line2d_20">
    <path d="M 1300.214187 323.191481 
L 1301.580579 307.452569 
L 1302.94697 323.19694 
L 1304.313361 323.207514 
L 1305.679752 251.953324 
L 1307.046143 323.252562 
L 1308.412534 323.252562 
L 1309.778926 319.540534 
L 1311.145317 305.862452 
L 1312.511708 319.545279 
L 1313.878099 319.554468 
L 1315.24449 257.630195 
L 1316.610882 319.593618 
L 1317.977273 319.593618 
" clip-path="url(#p911f8a33d7)" style="fill: none; stroke: #ff0000; stroke-width: 1.5; stroke-linecap: square"/>
   </g>
   <g id="patch_3">
    <path d="M 39.65 368.3955 
L 39.65 35.7555 
" style="fill: none; stroke: #000000; stroke-width: 0.8; stroke-linejoin: miter; stroke-linecap: square"/>
   </g>
   <g id="patch_4">
    <path d="M 1378.85 368.3955 
L 1378.85 35.7555 
" style="fill: none; stroke: #000000; stroke-width: 0.8; stroke-linejoin: miter; stroke-linecap: square"/>
   </g>
   <g id="patch_5">
    <path d="M 39.65 368.3955 
L 1378.85 368.3955 
" style="fill: none; stroke: #000000; stroke-width: 0.8; stroke-linejoin: miter; stroke-linecap: square"/>
   </g>
   <g id="patch_6">
    <path d="M 39.65 35.7555 
L 1378.85 35.7555 
" style="fill: none; stroke: #000000; stroke-width: 0.8; stroke-linejoin: miter; stroke-linecap: square"/>
   </g>
   <g id="text_18">
    <!-- Daily Confirmed Cases Forecasting - Montana -->
    <g transform="translate(572.590625 16.318125)scale(0.12 -0.12)">
     <defs>
      <path id="DejaVuSans-44" d="M 1259 4147 
L 1259 519 
L 2022 519 
Q 2988 519 3436 956 
Q 3884 1394 3884 2338 
Q 3884 3275 3436 3711 
Q 2988 4147 2022 4147 
L 1259 4147 
z
M 628 4666 
L 1925 4666 
Q 3281 4666 3915 4102 
Q 4550 3538 4550 2338 
Q 4550 1131 3912 565 
Q 3275 0 1925 0 
L 628 0 
L 628 4666 
z
" transform="scale(0.015625)"/>
      <path id="DejaVuSans-61" d="M 2194 1759 
Q 1497 1759 1228 1600 
Q 959 1441 959 1056 
Q 959 750 1161 570 
Q 1363 391 1709 391 
Q 2188 391 2477 730 
Q 2766 1069 2766 1631 
L 2766 1759 
L 2194 1759 
z
M 3341 1997 
L 3341 0 
L 2766 0 
L 2766 531 
Q 2569 213 2275 61 
Q 1981 -91 1556 -91 
Q 1019 -91 701 211 
Q 384 513 384 1019 
Q 384 1609 779 1909 
Q 1175 2209 1959 2209 
L 2766 2209 
L 2766 2266 
Q 2766 2663 2505 2880 
Q 2244 3097 1772 3097 
Q 1472 3097 1187 3025 
Q 903 2953 641 2809 
L 641 3341 
Q 956 3463 1253 3523 
Q 1550 3584 1831 3584 
Q 2591 3584 2966 3190 
Q 3341 2797 3341 1997 
z
" transform="scale(0.015625)"/>
      <path id="DejaVuSans-69" d="M 603 3500 
L 1178 3500 
L 1178 0 
L 603 0 
L 603 3500 
z
M 603 4863 
L 1178 4863 
L 1178 4134 
L 603 4134 
L 603 4863 
z
" transform="scale(0.015625)"/>
      <path id="DejaVuSans-6c" d="M 603 4863 
L 1178 4863 
L 1178 0 
L 603 0 
L 603 4863 
z
" transform="scale(0.015625)"/>
      <path id="DejaVuSans-79" d="M 2059 -325 
Q 1816 -950 1584 -1140 
Q 1353 -1331 966 -1331 
L 506 -1331 
L 506 -850 
L 844 -850 
Q 1081 -850 1212 -737 
Q 1344 -625 1503 -206 
L 1606 56 
L 191 3500 
L 800 3500 
L 1894 763 
L 2988 3500 
L 3597 3500 
L 2059 -325 
z
" transform="scale(0.015625)"/>
      <path id="DejaVuSans-20" transform="scale(0.015625)"/>
      <path id="DejaVuSans-43" d="M 4122 4306 
L 4122 3641 
Q 3803 3938 3442 4084 
Q 3081 4231 2675 4231 
Q 1875 4231 1450 3742 
Q 1025 3253 1025 2328 
Q 1025 1406 1450 917 
Q 1875 428 2675 428 
Q 3081 428 3442 575 
Q 3803 722 4122 1019 
L 4122 359 
Q 3791 134 3420 21 
Q 3050 -91 2638 -91 
Q 1578 -91 968 557 
Q 359 1206 359 2328 
Q 359 3453 968 4101 
Q 1578 4750 2638 4750 
Q 3056 4750 3426 4639 
Q 3797 4528 4122 4306 
z
" transform="scale(0.015625)"/>
      <path id="DejaVuSans-6f" d="M 1959 3097 
Q 1497 3097 1228 2736 
Q 959 2375 959 1747 
Q 959 1119 1226 758 
Q 1494 397 1959 397 
Q 2419 397 2687 759 
Q 2956 1122 2956 1747 
Q 2956 2369 2687 2733 
Q 2419 3097 1959 3097 
z
M 1959 3584 
Q 2709 3584 3137 3096 
Q 3566 2609 3566 1747 
Q 3566 888 3137 398 
Q 2709 -91 1959 -91 
Q 1206 -91 779 398 
Q 353 888 353 1747 
Q 353 2609 779 3096 
Q 1206 3584 1959 3584 
z
" transform="scale(0.015625)"/>
      <path id="DejaVuSans-6e" d="M 3513 2113 
L 3513 0 
L 2938 0 
L 2938 2094 
Q 2938 2591 2744 2837 
Q 2550 3084 2163 3084 
Q 1697 3084 1428 2787 
Q 1159 2491 1159 1978 
L 1159 0 
L 581 0 
L 581 3500 
L 1159 3500 
L 1159 2956 
Q 1366 3272 1645 3428 
Q 1925 3584 2291 3584 
Q 2894 3584 3203 3211 
Q 3513 2838 3513 2113 
z
" transform="scale(0.015625)"/>
      <path id="DejaVuSans-66" d="M 2375 4863 
L 2375 4384 
L 1825 4384 
Q 1516 4384 1395 4259 
Q 1275 4134 1275 3809 
L 1275 3500 
L 2222 3500 
L 2222 3053 
L 1275 3053 
L 1275 0 
L 697 0 
L 697 3053 
L 147 3053 
L 147 3500 
L 697 3500 
L 697 3744 
Q 697 4328 969 4595 
Q 1241 4863 1831 4863 
L 2375 4863 
z
" transform="scale(0.015625)"/>
      <path id="DejaVuSans-72" d="M 2631 2963 
Q 2534 3019 2420 3045 
Q 2306 3072 2169 3072 
Q 1681 3072 1420 2755 
Q 1159 2438 1159 1844 
L 1159 0 
L 581 0 
L 581 3500 
L 1159 3500 
L 1159 2956 
Q 1341 3275 1631 3429 
Q 1922 3584 2338 3584 
Q 2397 3584 2469 3576 
Q 2541 3569 2628 3553 
L 2631 2963 
z
" transform="scale(0.015625)"/>
      <path id="DejaVuSans-6d" d="M 3328 2828 
Q 3544 3216 3844 3400 
Q 4144 3584 4550 3584 
Q 5097 3584 5394 3201 
Q 5691 2819 5691 2113 
L 5691 0 
L 5113 0 
L 5113 2094 
Q 5113 2597 4934 2840 
Q 4756 3084 4391 3084 
Q 3944 3084 3684 2787 
Q 3425 2491 3425 1978 
L 3425 0 
L 2847 0 
L 2847 2094 
Q 2847 2600 2669 2842 
Q 2491 3084 2119 3084 
Q 1678 3084 1418 2786 
Q 1159 2488 1159 1978 
L 1159 0 
L 581 0 
L 581 3500 
L 1159 3500 
L 1159 2956 
Q 1356 3278 1631 3431 
Q 1906 3584 2284 3584 
Q 2666 3584 2933 3390 
Q 3200 3197 3328 2828 
z
" transform="scale(0.015625)"/>
      <path id="DejaVuSans-65" d="M 3597 1894 
L 3597 1613 
L 953 1613 
Q 991 1019 1311 708 
Q 1631 397 2203 397 
Q 2534 397 2845 478 
Q 3156 559 3463 722 
L 3463 178 
Q 3153 47 2828 -22 
Q 2503 -91 2169 -91 
Q 1331 -91 842 396 
Q 353 884 353 1716 
Q 353 2575 817 3079 
Q 1281 3584 2069 3584 
Q 2775 3584 3186 3129 
Q 3597 2675 3597 1894 
z
M 3022 2063 
Q 3016 2534 2758 2815 
Q 2500 3097 2075 3097 
Q 1594 3097 1305 2825 
Q 1016 2553 972 2059 
L 3022 2063 
z
" transform="scale(0.015625)"/>
      <path id="DejaVuSans-64" d="M 2906 2969 
L 2906 4863 
L 3481 4863 
L 3481 0 
L 2906 0 
L 2906 525 
Q 2725 213 2448 61 
Q 2172 -91 1784 -91 
Q 1150 -91 751 415 
Q 353 922 353 1747 
Q 353 2572 751 3078 
Q 1150 3584 1784 3584 
Q 2172 3584 2448 3432 
Q 2725 3281 2906 2969 
z
M 947 1747 
Q 947 1113 1208 752 
Q 1469 391 1925 391 
Q 2381 391 2643 752 
Q 2906 1113 2906 1747 
Q 2906 2381 2643 2742 
Q 2381 3103 1925 3103 
Q 1469 3103 1208 2742 
Q 947 2381 947 1747 
z
" transform="scale(0.015625)"/>
      <path id="DejaVuSans-73" d="M 2834 3397 
L 2834 2853 
Q 2591 2978 2328 3040 
Q 2066 3103 1784 3103 
Q 1356 3103 1142 2972 
Q 928 2841 928 2578 
Q 928 2378 1081 2264 
Q 1234 2150 1697 2047 
L 1894 2003 
Q 2506 1872 2764 1633 
Q 3022 1394 3022 966 
Q 3022 478 2636 193 
Q 2250 -91 1575 -91 
Q 1294 -91 989 -36 
Q 684 19 347 128 
L 347 722 
Q 666 556 975 473 
Q 1284 391 1588 391 
Q 1994 391 2212 530 
Q 2431 669 2431 922 
Q 2431 1156 2273 1281 
Q 2116 1406 1581 1522 
L 1381 1569 
Q 847 1681 609 1914 
Q 372 2147 372 2553 
Q 372 3047 722 3315 
Q 1072 3584 1716 3584 
Q 2034 3584 2315 3537 
Q 2597 3491 2834 3397 
z
" transform="scale(0.015625)"/>
      <path id="DejaVuSans-46" d="M 628 4666 
L 3309 4666 
L 3309 4134 
L 1259 4134 
L 1259 2759 
L 3109 2759 
L 3109 2228 
L 1259 2228 
L 1259 0 
L 628 0 
L 628 4666 
z
" transform="scale(0.015625)"/>
      <path id="DejaVuSans-63" d="M 3122 3366 
L 3122 2828 
Q 2878 2963 2633 3030 
Q 2388 3097 2138 3097 
Q 1578 3097 1268 2742 
Q 959 2388 959 1747 
Q 959 1106 1268 751 
Q 1578 397 2138 397 
Q 2388 397 2633 464 
Q 2878 531 3122 666 
L 3122 134 
Q 2881 22 2623 -34 
Q 2366 -91 2075 -91 
Q 1284 -91 818 406 
Q 353 903 353 1747 
Q 353 2603 823 3093 
Q 1294 3584 2113 3584 
Q 2378 3584 2631 3529 
Q 2884 3475 3122 3366 
z
" transform="scale(0.015625)"/>
      <path id="DejaVuSans-74" d="M 1172 4494 
L 1172 3500 
L 2356 3500 
L 2356 3053 
L 1172 3053 
L 1172 1153 
Q 1172 725 1289 603 
Q 1406 481 1766 481 
L 2356 481 
L 2356 0 
L 1766 0 
Q 1100 0 847 248 
Q 594 497 594 1153 
L 594 3053 
L 172 3053 
L 172 3500 
L 594 3500 
L 594 4494 
L 1172 4494 
z
" transform="scale(0.015625)"/>
      <path id="DejaVuSans-67" d="M 2906 1791 
Q 2906 2416 2648 2759 
Q 2391 3103 1925 3103 
Q 1463 3103 1205 2759 
Q 947 2416 947 1791 
Q 947 1169 1205 825 
Q 1463 481 1925 481 
Q 2391 481 2648 825 
Q 2906 1169 2906 1791 
z
M 3481 434 
Q 3481 -459 3084 -895 
Q 2688 -1331 1869 -1331 
Q 1566 -1331 1297 -1286 
Q 1028 -1241 775 -1147 
L 775 -588 
Q 1028 -725 1275 -790 
Q 1522 -856 1778 -856 
Q 2344 -856 2625 -561 
Q 2906 -266 2906 331 
L 2906 616 
Q 2728 306 2450 153 
Q 2172 0 1784 0 
Q 1141 0 747 490 
Q 353 981 353 1791 
Q 353 2603 747 3093 
Q 1141 3584 1784 3584 
Q 2172 3584 2450 3431 
Q 2728 3278 2906 2969 
L 2906 3500 
L 3481 3500 
L 3481 434 
z
" transform="scale(0.015625)"/>
      <path id="DejaVuSans-4d" d="M 628 4666 
L 1569 4666 
L 2759 1491 
L 3956 4666 
L 4897 4666 
L 4897 0 
L 4281 0 
L 4281 4097 
L 3078 897 
L 2444 897 
L 1241 4097 
L 1241 0 
L 628 0 
L 628 4666 
z
" transform="scale(0.015625)"/>
     </defs>
     <use xlink:href="#DejaVuSans-44"/>
     <use xlink:href="#DejaVuSans-61" x="77.001953"/>
     <use xlink:href="#DejaVuSans-69" x="138.28125"/>
     <use xlink:href="#DejaVuSans-6c" x="166.064453"/>
     <use xlink:href="#DejaVuSans-79" x="193.847656"/>
     <use xlink:href="#DejaVuSans-20" x="253.027344"/>
     <use xlink:href="#DejaVuSans-43" x="284.814453"/>
     <use xlink:href="#DejaVuSans-6f" x="354.638672"/>
     <use xlink:href="#DejaVuSans-6e" x="415.820312"/>
     <use xlink:href="#DejaVuSans-66" x="479.199219"/>
     <use xlink:href="#DejaVuSans-69" x="514.404297"/>
     <use xlink:href="#DejaVuSans-72" x="542.1875"/>
     <use xlink:href="#DejaVuSans-6d" x="581.550781"/>
     <use xlink:href="#DejaVuSans-65" x="678.962891"/>
     <use xlink:href="#DejaVuSans-64" x="740.486328"/>
     <use xlink:href="#DejaVuSans-20" x="803.962891"/>
     <use xlink:href="#DejaVuSans-43" x="835.75"/>
     <use xlink:href="#DejaVuSans-61" x="905.574219"/>
     <use xlink:href="#DejaVuSans-73" x="966.853516"/>
     <use xlink:href="#DejaVuSans-65" x="1018.953125"/>
     <use xlink:href="#DejaVuSans-73" x="1080.476562"/>
     <use xlink:href="#DejaVuSans-20" x="1132.576172"/>
     <use xlink:href="#DejaVuSans-46" x="1164.363281"/>
     <use xlink:href="#DejaVuSans-6f" x="1218.257812"/>
     <use xlink:href="#DejaVuSans-72" x="1279.439453"/>
     <use xlink:href="#DejaVuSans-65" x="1318.302734"/>
     <use xlink:href="#DejaVuSans-63" x="1379.826172"/>
     <use xlink:href="#DejaVuSans-61" x="1434.806641"/>
     <use xlink:href="#DejaVuSans-73" x="1496.085938"/>
     <use xlink:href="#DejaVuSans-74" x="1548.185547"/>
     <use xlink:href="#DejaVuSans-69" x="1587.394531"/>
     <use xlink:href="#DejaVuSans-6e" x="1615.177734"/>
     <use xlink:href="#DejaVuSans-67" x="1678.556641"/>
     <use xlink:href="#DejaVuSans-20" x="1742.033203"/>
     <use xlink:href="#DejaVuSans-2d" x="1773.820312"/>
     <use xlink:href="#DejaVuSans-20" x="1809.904297"/>
     <use xlink:href="#DejaVuSans-4d" x="1841.691406"/>
     <use xlink:href="#DejaVuSans-6f" x="1927.970703"/>
     <use xlink:href="#DejaVuSans-6e" x="1989.152344"/>
     <use xlink:href="#DejaVuSans-74" x="2052.53125"/>
     <use xlink:href="#DejaVuSans-61" x="2091.740234"/>
     <use xlink:href="#DejaVuSans-6e" x="2153.019531"/>
     <use xlink:href="#DejaVuSans-61" x="2216.398438"/>
    </g>
    <!-- ARIMA (0, 1, 1)x(1, 0, 1, 7) (R2 = 0.323818) -->
    <g transform="translate(577.265938 29.7555)scale(0.12 -0.12)">
     <defs>
      <path id="DejaVuSans-41" d="M 2188 4044 
L 1331 1722 
L 3047 1722 
L 2188 4044 
z
M 1831 4666 
L 2547 4666 
L 4325 0 
L 3669 0 
L 3244 1197 
L 1141 1197 
L 716 0 
L 50 0 
L 1831 4666 
z
" transform="scale(0.015625)"/>
      <path id="DejaVuSans-52" d="M 2841 2188 
Q 3044 2119 3236 1894 
Q 3428 1669 3622 1275 
L 4263 0 
L 3584 0 
L 2988 1197 
Q 2756 1666 2539 1819 
Q 2322 1972 1947 1972 
L 1259 1972 
L 1259 0 
L 628 0 
L 628 4666 
L 2053 4666 
Q 2853 4666 3247 4331 
Q 3641 3997 3641 3322 
Q 3641 2881 3436 2590 
Q 3231 2300 2841 2188 
z
M 1259 4147 
L 1259 2491 
L 2053 2491 
Q 2509 2491 2742 2702 
Q 2975 2913 2975 3322 
Q 2975 3731 2742 3939 
Q 2509 4147 2053 4147 
L 1259 4147 
z
" transform="scale(0.015625)"/>
      <path id="DejaVuSans-49" d="M 628 4666 
L 1259 4666 
L 1259 0 
L 628 0 
L 628 4666 
z
" transform="scale(0.015625)"/>
      <path id="DejaVuSans-28" d="M 1984 4856 
Q 1566 4138 1362 3434 
Q 1159 2731 1159 2009 
Q 1159 1288 1364 580 
Q 1569 -128 1984 -844 
L 1484 -844 
Q 1016 -109 783 600 
Q 550 1309 550 2009 
Q 550 2706 781 3412 
Q 1013 4119 1484 4856 
L 1984 4856 
z
" transform="scale(0.015625)"/>
      <path id="DejaVuSans-2c" d="M 750 794 
L 1409 794 
L 1409 256 
L 897 -744 
L 494 -744 
L 750 256 
L 750 794 
z
" transform="scale(0.015625)"/>
      <path id="DejaVuSans-29" d="M 513 4856 
L 1013 4856 
Q 1481 4119 1714 3412 
Q 1947 2706 1947 2009 
Q 1947 1309 1714 600 
Q 1481 -109 1013 -844 
L 513 -844 
Q 928 -128 1133 580 
Q 1338 1288 1338 2009 
Q 1338 2731 1133 3434 
Q 928 4138 513 4856 
z
" transform="scale(0.015625)"/>
      <path id="DejaVuSans-78" d="M 3513 3500 
L 2247 1797 
L 3578 0 
L 2900 0 
L 1881 1375 
L 863 0 
L 184 0 
L 1544 1831 
L 300 3500 
L 978 3500 
L 1906 2253 
L 2834 3500 
L 3513 3500 
z
" transform="scale(0.015625)"/>
      <path id="DejaVuSans-3d" d="M 678 2906 
L 4684 2906 
L 4684 2381 
L 678 2381 
L 678 2906 
z
M 678 1631 
L 4684 1631 
L 4684 1100 
L 678 1100 
L 678 1631 
z
" transform="scale(0.015625)"/>
      <path id="DejaVuSans-2e" d="M 684 794 
L 1344 794 
L 1344 0 
L 684 0 
L 684 794 
z
" transform="scale(0.015625)"/>
      <path id="DejaVuSans-38" d="M 2034 2216 
Q 1584 2216 1326 1975 
Q 1069 1734 1069 1313 
Q 1069 891 1326 650 
Q 1584 409 2034 409 
Q 2484 409 2743 651 
Q 3003 894 3003 1313 
Q 3003 1734 2745 1975 
Q 2488 2216 2034 2216 
z
M 1403 2484 
Q 997 2584 770 2862 
Q 544 3141 544 3541 
Q 544 4100 942 4425 
Q 1341 4750 2034 4750 
Q 2731 4750 3128 4425 
Q 3525 4100 3525 3541 
Q 3525 3141 3298 2862 
Q 3072 2584 2669 2484 
Q 3125 2378 3379 2068 
Q 3634 1759 3634 1313 
Q 3634 634 3220 271 
Q 2806 -91 2034 -91 
Q 1263 -91 848 271 
Q 434 634 434 1313 
Q 434 1759 690 2068 
Q 947 2378 1403 2484 
z
M 1172 3481 
Q 1172 3119 1398 2916 
Q 1625 2713 2034 2713 
Q 2441 2713 2670 2916 
Q 2900 3119 2900 3481 
Q 2900 3844 2670 4047 
Q 2441 4250 2034 4250 
Q 1625 4250 1398 4047 
Q 1172 3844 1172 3481 
z
" transform="scale(0.015625)"/>
     </defs>
     <use xlink:href="#DejaVuSans-41"/>
     <use xlink:href="#DejaVuSans-52" x="68.408203"/>
     <use xlink:href="#DejaVuSans-49" x="137.890625"/>
     <use xlink:href="#DejaVuSans-4d" x="167.382812"/>
     <use xlink:href="#DejaVuSans-41" x="253.662109"/>
     <use xlink:href="#DejaVuSans-20" x="322.070312"/>
     <use xlink:href="#DejaVuSans-28" x="353.857422"/>
     <use xlink:href="#DejaVuSans-30" x="392.871094"/>
     <use xlink:href="#DejaVuSans-2c" x="456.494141"/>
     <use xlink:href="#DejaVuSans-20" x="488.28125"/>
     <use xlink:href="#DejaVuSans-31" x="520.068359"/>
     <use xlink:href="#DejaVuSans-2c" x="583.691406"/>
     <use xlink:href="#DejaVuSans-20" x="615.478516"/>
     <use xlink:href="#DejaVuSans-31" x="647.265625"/>
     <use xlink:href="#DejaVuSans-29" x="710.888672"/>
     <use xlink:href="#DejaVuSans-78" x="749.902344"/>
     <use xlink:href="#DejaVuSans-28" x="809.082031"/>
     <use xlink:href="#DejaVuSans-31" x="848.095703"/>
     <use xlink:href="#DejaVuSans-2c" x="911.71875"/>
     <use xlink:href="#DejaVuSans-20" x="943.505859"/>
     <use xlink:href="#DejaVuSans-30" x="975.292969"/>
     <use xlink:href="#DejaVuSans-2c" x="1038.916016"/>
     <use xlink:href="#DejaVuSans-20" x="1070.703125"/>
     <use xlink:href="#DejaVuSans-31" x="1102.490234"/>
     <use xlink:href="#DejaVuSans-2c" x="1166.113281"/>
     <use xlink:href="#DejaVuSans-20" x="1197.900391"/>
     <use xlink:href="#DejaVuSans-37" x="1229.6875"/>
     <use xlink:href="#DejaVuSans-29" x="1293.310547"/>
     <use xlink:href="#DejaVuSans-20" x="1332.324219"/>
     <use xlink:href="#DejaVuSans-28" x="1364.111328"/>
     <use xlink:href="#DejaVuSans-52" x="1403.125"/>
     <use xlink:href="#DejaVuSans-32" x="1472.607422"/>
     <use xlink:href="#DejaVuSans-20" x="1536.230469"/>
     <use xlink:href="#DejaVuSans-3d" x="1568.017578"/>
     <use xlink:href="#DejaVuSans-20" x="1651.806641"/>
     <use xlink:href="#DejaVuSans-30" x="1683.59375"/>
     <use xlink:href="#DejaVuSans-2e" x="1747.216797"/>
     <use xlink:href="#DejaVuSans-33" x="1779.003906"/>
     <use xlink:href="#DejaVuSans-32" x="1842.626953"/>
     <use xlink:href="#DejaVuSans-33" x="1906.25"/>
     <use xlink:href="#DejaVuSans-38" x="1969.873047"/>
     <use xlink:href="#DejaVuSans-31" x="2033.496094"/>
     <use xlink:href="#DejaVuSans-38" x="2097.119141"/>
     <use xlink:href="#DejaVuSans-29" x="2160.742188"/>
    </g>
   </g>
   <g id="legend_1">
    <g id="patch_7">
     <path d="M 1274.770313 87.789875 
L 1371.85 87.789875 
Q 1373.85 87.789875 1373.85 85.789875 
L 1373.85 42.7555 
Q 1373.85 40.7555 1371.85 40.7555 
L 1274.770313 40.7555 
Q 1272.770313 40.7555 1272.770313 42.7555 
L 1272.770313 85.789875 
Q 1272.770313 87.789875 1274.770313 87.789875 
z
" style="fill: #ffffff; opacity: 0.8; stroke: #cccccc; stroke-linejoin: miter"/>
    </g>
    <g id="line2d_21">
     <path d="M 1276.770313 48.853937 
L 1286.770313 48.853937 
L 1296.770313 48.853937 
" style="fill: none; stroke: #0000ff; stroke-width: 1.5; stroke-linecap: square"/>
    </g>
    <g id="text_19">
     <!-- Actual Value -->
     <g transform="translate(1304.770313 52.353937)scale(0.1 -0.1)">
      <defs>
       <path id="DejaVuSans-75" d="M 544 1381 
L 544 3500 
L 1119 3500 
L 1119 1403 
Q 1119 906 1312 657 
Q 1506 409 1894 409 
Q 2359 409 2629 706 
Q 2900 1003 2900 1516 
L 2900 3500 
L 3475 3500 
L 3475 0 
L 2900 0 
L 2900 538 
Q 2691 219 2414 64 
Q 2138 -91 1772 -91 
Q 1169 -91 856 284 
Q 544 659 544 1381 
z
M 1991 3584 
L 1991 3584 
z
" transform="scale(0.015625)"/>
       <path id="DejaVuSans-56" d="M 1831 0 
L 50 4666 
L 709 4666 
L 2188 738 
L 3669 4666 
L 4325 4666 
L 2547 0 
L 1831 0 
z
" transform="scale(0.015625)"/>
      </defs>
      <use xlink:href="#DejaVuSans-41"/>
      <use xlink:href="#DejaVuSans-63" x="66.658203"/>
      <use xlink:href="#DejaVuSans-74" x="121.638672"/>
      <use xlink:href="#DejaVuSans-75" x="160.847656"/>
      <use xlink:href="#DejaVuSans-61" x="224.226562"/>
      <use xlink:href="#DejaVuSans-6c" x="285.505859"/>
      <use xlink:href="#DejaVuSans-20" x="313.289062"/>
      <use xlink:href="#DejaVuSans-56" x="345.076172"/>
      <use xlink:href="#DejaVuSans-61" x="405.734375"/>
      <use xlink:href="#DejaVuSans-6c" x="467.013672"/>
      <use xlink:href="#DejaVuSans-75" x="494.796875"/>
      <use xlink:href="#DejaVuSans-65" x="558.175781"/>
     </g>
    </g>
    <g id="line2d_22">
     <path d="M 1276.770313 63.532062 
L 1286.770313 63.532062 
L 1296.770313 63.532062 
" style="fill: none; stroke: #ffa500; stroke-width: 1.5; stroke-linecap: square"/>
    </g>
    <g id="text_20">
     <!-- Check Value -->
     <g transform="translate(1304.770313 67.032062)scale(0.1 -0.1)">
      <defs>
       <path id="DejaVuSans-68" d="M 3513 2113 
L 3513 0 
L 2938 0 
L 2938 2094 
Q 2938 2591 2744 2837 
Q 2550 3084 2163 3084 
Q 1697 3084 1428 2787 
Q 1159 2491 1159 1978 
L 1159 0 
L 581 0 
L 581 4863 
L 1159 4863 
L 1159 2956 
Q 1366 3272 1645 3428 
Q 1925 3584 2291 3584 
Q 2894 3584 3203 3211 
Q 3513 2838 3513 2113 
z
" transform="scale(0.015625)"/>
       <path id="DejaVuSans-6b" d="M 581 4863 
L 1159 4863 
L 1159 1991 
L 2875 3500 
L 3609 3500 
L 1753 1863 
L 3688 0 
L 2938 0 
L 1159 1709 
L 1159 0 
L 581 0 
L 581 4863 
z
" transform="scale(0.015625)"/>
      </defs>
      <use xlink:href="#DejaVuSans-43"/>
      <use xlink:href="#DejaVuSans-68" x="69.824219"/>
      <use xlink:href="#DejaVuSans-65" x="133.203125"/>
      <use xlink:href="#DejaVuSans-63" x="194.726562"/>
      <use xlink:href="#DejaVuSans-6b" x="249.707031"/>
      <use xlink:href="#DejaVuSans-20" x="307.617188"/>
      <use xlink:href="#DejaVuSans-56" x="339.404297"/>
      <use xlink:href="#DejaVuSans-61" x="400.0625"/>
      <use xlink:href="#DejaVuSans-6c" x="461.341797"/>
      <use xlink:href="#DejaVuSans-75" x="489.125"/>
      <use xlink:href="#DejaVuSans-65" x="552.503906"/>
     </g>
    </g>
    <g id="line2d_23">
     <path d="M 1276.770313 78.210187 
L 1286.770313 78.210187 
L 1296.770313 78.210187 
" style="fill: none; stroke: #ff0000; stroke-width: 1.5; stroke-linecap: square"/>
    </g>
    <g id="text_21">
     <!-- Predict Value -->
     <g transform="translate(1304.770313 81.710187)scale(0.1 -0.1)">
      <defs>
       <path id="DejaVuSans-50" d="M 1259 4147 
L 1259 2394 
L 2053 2394 
Q 2494 2394 2734 2622 
Q 2975 2850 2975 3272 
Q 2975 3691 2734 3919 
Q 2494 4147 2053 4147 
L 1259 4147 
z
M 628 4666 
L 2053 4666 
Q 2838 4666 3239 4311 
Q 3641 3956 3641 3272 
Q 3641 2581 3239 2228 
Q 2838 1875 2053 1875 
L 1259 1875 
L 1259 0 
L 628 0 
L 628 4666 
z
" transform="scale(0.015625)"/>
      </defs>
      <use xlink:href="#DejaVuSans-50"/>
      <use xlink:href="#DejaVuSans-72" x="58.552734"/>
      <use xlink:href="#DejaVuSans-65" x="97.416016"/>
      <use xlink:href="#DejaVuSans-64" x="158.939453"/>
      <use xlink:href="#DejaVuSans-69" x="222.416016"/>
      <use xlink:href="#DejaVuSans-63" x="250.199219"/>
      <use xlink:href="#DejaVuSans-74" x="305.179688"/>
      <use xlink:href="#DejaVuSans-20" x="344.388672"/>
      <use xlink:href="#DejaVuSans-56" x="376.175781"/>
      <use xlink:href="#DejaVuSans-61" x="436.833984"/>
      <use xlink:href="#DejaVuSans-6c" x="498.113281"/>
      <use xlink:href="#DejaVuSans-75" x="525.896484"/>
      <use xlink:href="#DejaVuSans-65" x="589.275391"/>
     </g>
    </g>
   </g>
  </g>
 </g>
 <defs>
  <clipPath id="p911f8a33d7">
   <rect x="39.65" y="35.7555" width="1339.2" height="332.64"/>
  </clipPath>
 </defs>
</svg>
