<?xml version="1.0" encoding="utf-8" standalone="no"?>
<!DOCTYPE svg PUBLIC "-//W3C//DTD SVG 1.1//EN"
  "http://www.w3.org/Graphics/SVG/1.1/DTD/svg11.dtd">
<svg xmlns:xlink="http://www.w3.org/1999/xlink" width="1400.792187pt" height="392.273625pt" viewBox="0 0 1400.792187 392.273625" xmlns="http://www.w3.org/2000/svg" version="1.1">
 <metadata>
  <rdf:RDF xmlns:dc="http://purl.org/dc/elements/1.1/" xmlns:cc="http://creativecommons.org/ns#" xmlns:rdf="http://www.w3.org/1999/02/22-rdf-syntax-ns#">
   <cc:Work>
    <dc:type rdf:resource="http://purl.org/dc/dcmitype/StillImage"/>
    <dc:date>2022-06-30T17:38:35.812651</dc:date>
    <dc:format>image/svg+xml</dc:format>
    <dc:creator>
     <cc:Agent>
      <dc:title>Matplotlib v3.5.2, https://matplotlib.org/</dc:title>
     </cc:Agent>
    </dc:creator>
   </cc:Work>
  </rdf:RDF>
 </metadata>
 <defs>
  <style type="text/css">*{stroke-linejoin: round; stroke-linecap: butt}</style>
 </defs>
 <g id="figure_1">
  <g id="patch_1">
   <path d="M 0 392.273625 
L 1400.792187 392.273625 
L 1400.792187 0 
L 0 0 
z
" style="fill: #ffffff"/>
  </g>
  <g id="axes_1">
   <g id="patch_2">
    <path d="M 54.392188 368.3955 
L 1393.592188 368.3955 
L 1393.592188 35.7555 
L 54.392188 35.7555 
z
" style="fill: #ffffff"/>
   </g>
   <g id="matplotlib.axis_1">
    <g id="xtick_1">
     <g id="line2d_1">
      <defs>
       <path id="m982bd242d3" d="M 0 0 
L 0 3.5 
" style="stroke: #000000; stroke-width: 0.8"/>
      </defs>
      <g>
       <use xlink:href="#m982bd242d3" x="85.537945" y="368.3955" style="stroke: #000000; stroke-width: 0.8"/>
      </g>
     </g>
     <g id="text_1">
      <!-- 2020-01 -->
      <g transform="translate(64.646538 382.993937)scale(0.1 -0.1)">
       <defs>
        <path id="DejaVuSans-32" d="M 1228 531 
L 3431 531 
L 3431 0 
L 469 0 
L 469 531 
Q 828 903 1448 1529 
Q 2069 2156 2228 2338 
Q 2531 2678 2651 2914 
Q 2772 3150 2772 3378 
Q 2772 3750 2511 3984 
Q 2250 4219 1831 4219 
Q 1534 4219 1204 4116 
Q 875 4013 500 3803 
L 500 4441 
Q 881 4594 1212 4672 
Q 1544 4750 1819 4750 
Q 2544 4750 2975 4387 
Q 3406 4025 3406 3419 
Q 3406 3131 3298 2873 
Q 3191 2616 2906 2266 
Q 2828 2175 2409 1742 
Q 1991 1309 1228 531 
z
" transform="scale(0.015625)"/>
        <path id="DejaVuSans-30" d="M 2034 4250 
Q 1547 4250 1301 3770 
Q 1056 3291 1056 2328 
Q 1056 1369 1301 889 
Q 1547 409 2034 409 
Q 2525 409 2770 889 
Q 3016 1369 3016 2328 
Q 3016 3291 2770 3770 
Q 2525 4250 2034 4250 
z
M 2034 4750 
Q 2819 4750 3233 4129 
Q 3647 3509 3647 2328 
Q 3647 1150 3233 529 
Q 2819 -91 2034 -91 
Q 1250 -91 836 529 
Q 422 1150 422 2328 
Q 422 3509 836 4129 
Q 1250 4750 2034 4750 
z
" transform="scale(0.015625)"/>
        <path id="DejaVuSans-2d" d="M 313 2009 
L 1997 2009 
L 1997 1497 
L 313 1497 
L 313 2009 
z
" transform="scale(0.015625)"/>
        <path id="DejaVuSans-31" d="M 794 531 
L 1825 531 
L 1825 4091 
L 703 3866 
L 703 4441 
L 1819 4666 
L 2450 4666 
L 2450 531 
L 3481 531 
L 3481 0 
L 794 0 
L 794 531 
z
" transform="scale(0.015625)"/>
       </defs>
       <use xlink:href="#DejaVuSans-32"/>
       <use xlink:href="#DejaVuSans-30" x="63.623047"/>
       <use xlink:href="#DejaVuSans-32" x="127.246094"/>
       <use xlink:href="#DejaVuSans-30" x="190.869141"/>
       <use xlink:href="#DejaVuSans-2d" x="254.492188"/>
       <use xlink:href="#DejaVuSans-30" x="290.576172"/>
       <use xlink:href="#DejaVuSans-31" x="354.199219"/>
      </g>
     </g>
    </g>
    <g id="xtick_2">
     <g id="line2d_2">
      <g>
       <use xlink:href="#m982bd242d3" x="208.499503" y="368.3955" style="stroke: #000000; stroke-width: 0.8"/>
      </g>
     </g>
     <g id="text_2">
      <!-- 2020-04 -->
      <g transform="translate(187.608096 382.993937)scale(0.1 -0.1)">
       <defs>
        <path id="DejaVuSans-34" d="M 2419 4116 
L 825 1625 
L 2419 1625 
L 2419 4116 
z
M 2253 4666 
L 3047 4666 
L 3047 1625 
L 3713 1625 
L 3713 1100 
L 3047 1100 
L 3047 0 
L 2419 0 
L 2419 1100 
L 313 1100 
L 313 1709 
L 2253 4666 
z
" transform="scale(0.015625)"/>
       </defs>
       <use xlink:href="#DejaVuSans-32"/>
       <use xlink:href="#DejaVuSans-30" x="63.623047"/>
       <use xlink:href="#DejaVuSans-32" x="127.246094"/>
       <use xlink:href="#DejaVuSans-30" x="190.869141"/>
       <use xlink:href="#DejaVuSans-2d" x="254.492188"/>
       <use xlink:href="#DejaVuSans-30" x="290.576172"/>
       <use xlink:href="#DejaVuSans-34" x="354.199219"/>
      </g>
     </g>
    </g>
    <g id="xtick_3">
     <g id="line2d_3">
      <g>
       <use xlink:href="#m982bd242d3" x="331.46106" y="368.3955" style="stroke: #000000; stroke-width: 0.8"/>
      </g>
     </g>
     <g id="text_3">
      <!-- 2020-07 -->
      <g transform="translate(310.569654 382.993937)scale(0.1 -0.1)">
       <defs>
        <path id="DejaVuSans-37" d="M 525 4666 
L 3525 4666 
L 3525 4397 
L 1831 0 
L 1172 0 
L 2766 4134 
L 525 4134 
L 525 4666 
z
" transform="scale(0.015625)"/>
       </defs>
       <use xlink:href="#DejaVuSans-32"/>
       <use xlink:href="#DejaVuSans-30" x="63.623047"/>
       <use xlink:href="#DejaVuSans-32" x="127.246094"/>
       <use xlink:href="#DejaVuSans-30" x="190.869141"/>
       <use xlink:href="#DejaVuSans-2d" x="254.492188"/>
       <use xlink:href="#DejaVuSans-30" x="290.576172"/>
       <use xlink:href="#DejaVuSans-37" x="354.199219"/>
      </g>
     </g>
    </g>
    <g id="xtick_4">
     <g id="line2d_4">
      <g>
       <use xlink:href="#m982bd242d3" x="455.773844" y="368.3955" style="stroke: #000000; stroke-width: 0.8"/>
      </g>
     </g>
     <g id="text_4">
      <!-- 2020-10 -->
      <g transform="translate(434.882438 382.993937)scale(0.1 -0.1)">
       <use xlink:href="#DejaVuSans-32"/>
       <use xlink:href="#DejaVuSans-30" x="63.623047"/>
       <use xlink:href="#DejaVuSans-32" x="127.246094"/>
       <use xlink:href="#DejaVuSans-30" x="190.869141"/>
       <use xlink:href="#DejaVuSans-2d" x="254.492188"/>
       <use xlink:href="#DejaVuSans-31" x="290.576172"/>
       <use xlink:href="#DejaVuSans-30" x="354.199219"/>
      </g>
     </g>
    </g>
    <g id="xtick_5">
     <g id="line2d_5">
      <g>
       <use xlink:href="#m982bd242d3" x="580.086628" y="368.3955" style="stroke: #000000; stroke-width: 0.8"/>
      </g>
     </g>
     <g id="text_5">
      <!-- 2021-01 -->
      <g transform="translate(559.195222 382.993937)scale(0.1 -0.1)">
       <use xlink:href="#DejaVuSans-32"/>
       <use xlink:href="#DejaVuSans-30" x="63.623047"/>
       <use xlink:href="#DejaVuSans-32" x="127.246094"/>
       <use xlink:href="#DejaVuSans-31" x="190.869141"/>
       <use xlink:href="#DejaVuSans-2d" x="254.492188"/>
       <use xlink:href="#DejaVuSans-30" x="290.576172"/>
       <use xlink:href="#DejaVuSans-31" x="354.199219"/>
      </g>
     </g>
    </g>
    <g id="xtick_6">
     <g id="line2d_6">
      <g>
       <use xlink:href="#m982bd242d3" x="701.69696" y="368.3955" style="stroke: #000000; stroke-width: 0.8"/>
      </g>
     </g>
     <g id="text_6">
      <!-- 2021-04 -->
      <g transform="translate(680.805554 382.993937)scale(0.1 -0.1)">
       <use xlink:href="#DejaVuSans-32"/>
       <use xlink:href="#DejaVuSans-30" x="63.623047"/>
       <use xlink:href="#DejaVuSans-32" x="127.246094"/>
       <use xlink:href="#DejaVuSans-31" x="190.869141"/>
       <use xlink:href="#DejaVuSans-2d" x="254.492188"/>
       <use xlink:href="#DejaVuSans-30" x="290.576172"/>
       <use xlink:href="#DejaVuSans-34" x="354.199219"/>
      </g>
     </g>
    </g>
    <g id="xtick_7">
     <g id="line2d_7">
      <g>
       <use xlink:href="#m982bd242d3" x="824.658518" y="368.3955" style="stroke: #000000; stroke-width: 0.8"/>
      </g>
     </g>
     <g id="text_7">
      <!-- 2021-07 -->
      <g transform="translate(803.767112 382.993937)scale(0.1 -0.1)">
       <use xlink:href="#DejaVuSans-32"/>
       <use xlink:href="#DejaVuSans-30" x="63.623047"/>
       <use xlink:href="#DejaVuSans-32" x="127.246094"/>
       <use xlink:href="#DejaVuSans-31" x="190.869141"/>
       <use xlink:href="#DejaVuSans-2d" x="254.492188"/>
       <use xlink:href="#DejaVuSans-30" x="290.576172"/>
       <use xlink:href="#DejaVuSans-37" x="354.199219"/>
      </g>
     </g>
    </g>
    <g id="xtick_8">
     <g id="line2d_8">
      <g>
       <use xlink:href="#m982bd242d3" x="948.971302" y="368.3955" style="stroke: #000000; stroke-width: 0.8"/>
      </g>
     </g>
     <g id="text_8">
      <!-- 2021-10 -->
      <g transform="translate(928.079895 382.993937)scale(0.1 -0.1)">
       <use xlink:href="#DejaVuSans-32"/>
       <use xlink:href="#DejaVuSans-30" x="63.623047"/>
       <use xlink:href="#DejaVuSans-32" x="127.246094"/>
       <use xlink:href="#DejaVuSans-31" x="190.869141"/>
       <use xlink:href="#DejaVuSans-2d" x="254.492188"/>
       <use xlink:href="#DejaVuSans-31" x="290.576172"/>
       <use xlink:href="#DejaVuSans-30" x="354.199219"/>
      </g>
     </g>
    </g>
    <g id="xtick_9">
     <g id="line2d_9">
      <g>
       <use xlink:href="#m982bd242d3" x="1073.284085" y="368.3955" style="stroke: #000000; stroke-width: 0.8"/>
      </g>
     </g>
     <g id="text_9">
      <!-- 2022-01 -->
      <g transform="translate(1052.392679 382.993937)scale(0.1 -0.1)">
       <use xlink:href="#DejaVuSans-32"/>
       <use xlink:href="#DejaVuSans-30" x="63.623047"/>
       <use xlink:href="#DejaVuSans-32" x="127.246094"/>
       <use xlink:href="#DejaVuSans-32" x="190.869141"/>
       <use xlink:href="#DejaVuSans-2d" x="254.492188"/>
       <use xlink:href="#DejaVuSans-30" x="290.576172"/>
       <use xlink:href="#DejaVuSans-31" x="354.199219"/>
      </g>
     </g>
    </g>
    <g id="xtick_10">
     <g id="line2d_10">
      <g>
       <use xlink:href="#m982bd242d3" x="1194.894417" y="368.3955" style="stroke: #000000; stroke-width: 0.8"/>
      </g>
     </g>
     <g id="text_10">
      <!-- 2022-04 -->
      <g transform="translate(1174.003011 382.993937)scale(0.1 -0.1)">
       <use xlink:href="#DejaVuSans-32"/>
       <use xlink:href="#DejaVuSans-30" x="63.623047"/>
       <use xlink:href="#DejaVuSans-32" x="127.246094"/>
       <use xlink:href="#DejaVuSans-32" x="190.869141"/>
       <use xlink:href="#DejaVuSans-2d" x="254.492188"/>
       <use xlink:href="#DejaVuSans-30" x="290.576172"/>
       <use xlink:href="#DejaVuSans-34" x="354.199219"/>
      </g>
     </g>
    </g>
    <g id="xtick_11">
     <g id="line2d_11">
      <g>
       <use xlink:href="#m982bd242d3" x="1317.855975" y="368.3955" style="stroke: #000000; stroke-width: 0.8"/>
      </g>
     </g>
     <g id="text_11">
      <!-- 2022-07 -->
      <g transform="translate(1296.964569 382.993937)scale(0.1 -0.1)">
       <use xlink:href="#DejaVuSans-32"/>
       <use xlink:href="#DejaVuSans-30" x="63.623047"/>
       <use xlink:href="#DejaVuSans-32" x="127.246094"/>
       <use xlink:href="#DejaVuSans-32" x="190.869141"/>
       <use xlink:href="#DejaVuSans-2d" x="254.492188"/>
       <use xlink:href="#DejaVuSans-30" x="290.576172"/>
       <use xlink:href="#DejaVuSans-37" x="354.199219"/>
      </g>
     </g>
    </g>
   </g>
   <g id="matplotlib.axis_2">
    <g id="ytick_1">
     <g id="line2d_12">
      <defs>
       <path id="m32924420be" d="M 0 0 
L -3.5 0 
" style="stroke: #000000; stroke-width: 0.8"/>
      </defs>
      <g>
       <use xlink:href="#m32924420be" x="54.392188" y="359.397172" style="stroke: #000000; stroke-width: 0.8"/>
      </g>
     </g>
     <g id="text_12">
      <!-- −10000 -->
      <g transform="translate(7.2 363.196391)scale(0.1 -0.1)">
       <defs>
        <path id="DejaVuSans-2212" d="M 678 2272 
L 4684 2272 
L 4684 1741 
L 678 1741 
L 678 2272 
z
" transform="scale(0.015625)"/>
       </defs>
       <use xlink:href="#DejaVuSans-2212"/>
       <use xlink:href="#DejaVuSans-31" x="83.789062"/>
       <use xlink:href="#DejaVuSans-30" x="147.412109"/>
       <use xlink:href="#DejaVuSans-30" x="211.035156"/>
       <use xlink:href="#DejaVuSans-30" x="274.658203"/>
       <use xlink:href="#DejaVuSans-30" x="338.28125"/>
      </g>
     </g>
    </g>
    <g id="ytick_2">
     <g id="line2d_13">
      <g>
       <use xlink:href="#m32924420be" x="54.392188" y="297.87283" style="stroke: #000000; stroke-width: 0.8"/>
      </g>
     </g>
     <g id="text_13">
      <!-- 0 -->
      <g transform="translate(41.029688 301.672049)scale(0.1 -0.1)">
       <use xlink:href="#DejaVuSans-30"/>
      </g>
     </g>
    </g>
    <g id="ytick_3">
     <g id="line2d_14">
      <g>
       <use xlink:href="#m32924420be" x="54.392188" y="236.348488" style="stroke: #000000; stroke-width: 0.8"/>
      </g>
     </g>
     <g id="text_14">
      <!-- 10000 -->
      <g transform="translate(15.579688 240.147707)scale(0.1 -0.1)">
       <use xlink:href="#DejaVuSans-31"/>
       <use xlink:href="#DejaVuSans-30" x="63.623047"/>
       <use xlink:href="#DejaVuSans-30" x="127.246094"/>
       <use xlink:href="#DejaVuSans-30" x="190.869141"/>
       <use xlink:href="#DejaVuSans-30" x="254.492188"/>
      </g>
     </g>
    </g>
    <g id="ytick_4">
     <g id="line2d_15">
      <g>
       <use xlink:href="#m32924420be" x="54.392188" y="174.824147" style="stroke: #000000; stroke-width: 0.8"/>
      </g>
     </g>
     <g id="text_15">
      <!-- 20000 -->
      <g transform="translate(15.579688 178.623365)scale(0.1 -0.1)">
       <use xlink:href="#DejaVuSans-32"/>
       <use xlink:href="#DejaVuSans-30" x="63.623047"/>
       <use xlink:href="#DejaVuSans-30" x="127.246094"/>
       <use xlink:href="#DejaVuSans-30" x="190.869141"/>
       <use xlink:href="#DejaVuSans-30" x="254.492188"/>
      </g>
     </g>
    </g>
    <g id="ytick_5">
     <g id="line2d_16">
      <g>
       <use xlink:href="#m32924420be" x="54.392188" y="113.299805" style="stroke: #000000; stroke-width: 0.8"/>
      </g>
     </g>
     <g id="text_16">
      <!-- 30000 -->
      <g transform="translate(15.579688 117.099023)scale(0.1 -0.1)">
       <defs>
        <path id="DejaVuSans-33" d="M 2597 2516 
Q 3050 2419 3304 2112 
Q 3559 1806 3559 1356 
Q 3559 666 3084 287 
Q 2609 -91 1734 -91 
Q 1441 -91 1130 -33 
Q 819 25 488 141 
L 488 750 
Q 750 597 1062 519 
Q 1375 441 1716 441 
Q 2309 441 2620 675 
Q 2931 909 2931 1356 
Q 2931 1769 2642 2001 
Q 2353 2234 1838 2234 
L 1294 2234 
L 1294 2753 
L 1863 2753 
Q 2328 2753 2575 2939 
Q 2822 3125 2822 3475 
Q 2822 3834 2567 4026 
Q 2313 4219 1838 4219 
Q 1578 4219 1281 4162 
Q 984 4106 628 3988 
L 628 4550 
Q 988 4650 1302 4700 
Q 1616 4750 1894 4750 
Q 2613 4750 3031 4423 
Q 3450 4097 3450 3541 
Q 3450 3153 3228 2886 
Q 3006 2619 2597 2516 
z
" transform="scale(0.015625)"/>
       </defs>
       <use xlink:href="#DejaVuSans-33"/>
       <use xlink:href="#DejaVuSans-30" x="63.623047"/>
       <use xlink:href="#DejaVuSans-30" x="127.246094"/>
       <use xlink:href="#DejaVuSans-30" x="190.869141"/>
       <use xlink:href="#DejaVuSans-30" x="254.492188"/>
      </g>
     </g>
    </g>
    <g id="ytick_6">
     <g id="line2d_17">
      <g>
       <use xlink:href="#m32924420be" x="54.392188" y="51.775463" style="stroke: #000000; stroke-width: 0.8"/>
      </g>
     </g>
     <g id="text_17">
      <!-- 40000 -->
      <g transform="translate(15.579688 55.574682)scale(0.1 -0.1)">
       <use xlink:href="#DejaVuSans-34"/>
       <use xlink:href="#DejaVuSans-30" x="63.623047"/>
       <use xlink:href="#DejaVuSans-30" x="127.246094"/>
       <use xlink:href="#DejaVuSans-30" x="190.869141"/>
       <use xlink:href="#DejaVuSans-30" x="254.492188"/>
      </g>
     </g>
    </g>
   </g>
   <g id="line2d_18">
    <path d="M 115.264915 297.87283 
L 181.474984 297.835916 
L 184.177436 297.749782 
L 185.528662 297.854373 
L 186.879888 297.232977 
L 188.231114 297.41755 
L 189.58234 296.968422 
L 190.933566 295.756393 
L 192.284792 296.956118 
L 193.636018 295.184216 
L 194.987243 294.261351 
L 196.338469 292.151066 
L 199.040921 293.400011 
L 200.392147 282.651708 
L 201.743373 285.881736 
L 203.094599 283.728384 
L 204.445825 283.956024 
L 205.797051 277.877419 
L 207.148277 285.198816 
L 208.499503 275.976317 
L 209.850729 277.354462 
L 211.201954 271.386601 
L 212.55318 271.854186 
L 213.904406 277.07145 
L 215.255632 275.816354 
L 216.606858 277.409834 
L 217.958084 279.286327 
L 219.30931 275.785591 
L 220.660536 275.964012 
L 222.011762 275.951707 
L 223.362988 275.114976 
L 224.714214 281.052075 
L 226.065439 271.786509 
L 227.416665 284.30056 
L 228.767891 271.497345 
L 230.119117 278.492663 
L 231.470343 279.704692 
L 232.821569 273.995233 
L 234.172795 276.825353 
L 235.524021 275.324159 
L 236.875247 276.173195 
L 238.226473 272.580173 
L 239.577699 284.515896 
L 240.928924 277.557493 
L 242.28015 276.093213 
L 243.631376 284.645097 
L 244.982602 281.458136 
L 246.333828 282.436373 
L 247.685054 283.802213 
L 249.03628 282.177971 
L 250.387506 282.294867 
L 251.738732 279.243259 
L 253.089958 288.441149 
L 254.441184 283.525354 
L 255.792409 289.874666 
L 257.143635 284.897347 
L 258.494861 286.416998 
L 259.846087 288.244271 
L 261.197313 289.511672 
L 262.548539 288.853362 
L 263.899765 293.400011 
L 265.250991 293.830681 
L 266.602217 290.729854 
L 267.953443 289.93619 
L 269.304669 291.049781 
L 272.00712 287.118375 
L 273.358346 290.908275 
L 274.709572 288.994868 
L 276.060798 292.79092 
L 277.412024 291.621957 
L 278.76325 294.396705 
L 280.114476 291.6035 
L 281.465702 292.08339 
L 282.816928 293.646108 
L 284.168154 292.464841 
L 285.51938 294.329028 
L 286.870605 287.616722 
L 288.221831 293.135456 
L 289.573057 292.71709 
L 290.924283 294.882747 
L 292.275509 293.824529 
L 293.626735 294.544363 
L 294.977961 294.931967 
L 296.329187 292.797072 
L 297.680413 294.390552 
L 299.031639 296.156301 
L 300.382865 295.731783 
L 301.73409 295.928661 
L 303.085316 294.390552 
L 304.436542 294.827375 
L 305.787768 295.614887 
L 307.138994 295.06732 
L 308.49022 296.125539 
L 309.841446 296.371636 
L 311.192672 295.701021 
L 312.543898 296.020948 
L 313.895124 295.258046 
L 315.24635 295.29496 
L 316.597575 295.688716 
L 319.300027 295.996338 
L 320.651253 295.670259 
L 322.002479 296.783849 
L 323.353705 295.811765 
L 324.704931 295.338027 
L 326.056157 295.959423 
L 327.407383 295.873289 
L 328.758609 297.054556 
L 330.109835 295.202674 
L 331.46106 296.020948 
L 332.812286 294.938119 
L 334.163512 295.301113 
L 335.514738 296.008643 
L 336.865964 295.461076 
L 338.21719 296.383941 
L 339.568416 295.885594 
L 340.919642 296.648496 
L 342.270868 296.156301 
L 343.622094 295.430314 
L 344.97332 295.608734 
L 346.324545 295.559515 
L 347.675771 296.107082 
L 349.026997 295.073473 
L 350.378223 295.331875 
L 351.729449 296.187063 
L 353.080675 297.276044 
L 354.431901 296.094777 
L 355.783127 297.92205 
L 357.134353 296.396246 
L 359.836805 295.147302 
L 361.188031 296.119386 
L 362.539256 294.808918 
L 363.890482 294.495144 
L 365.241708 294.58743 
L 366.592934 294.827375 
L 367.94416 294.507449 
L 369.295386 295.781003 
L 370.646612 295.362637 
L 371.997838 293.270809 
L 373.349064 295.381094 
L 376.051516 295.97788 
L 377.402741 295.454924 
L 381.456419 295.368789 
L 384.158871 295.621039 
L 385.510097 295.990185 
L 386.861323 294.925814 
L 388.212549 294.679717 
L 389.563775 293.603041 
L 390.915001 294.064473 
L 393.617452 297.626733 
L 394.968678 295.657954 
L 396.319904 295.528753 
L 397.67113 295.59643 
L 399.022356 297.005337 
L 400.373582 295.836374 
L 401.724808 294.458229 
L 403.076034 296.75924 
L 404.42726 296.156301 
L 405.778486 295.75024 
L 407.129711 295.79946 
L 408.480937 295.719478 
L 409.832163 295.381094 
L 411.183389 295.565667 
L 412.534615 295.928661 
L 413.885841 295.399552 
L 416.588293 295.744088 
L 419.290745 294.722784 
L 420.641971 295.608734 
L 421.993196 295.781003 
L 423.344422 295.621039 
L 424.695648 295.713326 
L 426.046874 295.436466 
L 428.749326 294.61204 
L 430.100552 294.925814 
L 431.451778 295.836374 
L 432.803004 295.485686 
L 434.15423 294.845833 
L 435.505456 295.079625 
L 436.856681 293.978339 
L 438.207907 294.550516 
L 439.559133 294.821223 
L 442.261585 294.925814 
L 443.612811 294.741241 
L 444.964037 294.845833 
L 446.315263 295.996338 
L 447.666489 291.954189 
L 449.017715 292.852444 
L 450.368941 293.178523 
L 453.071392 294.365943 
L 454.422618 292.870901 
L 455.773844 293.461535 
L 457.12507 292.735548 
L 458.476296 291.560433 
L 459.827522 293.596888 
L 461.178748 294.144455 
L 462.529974 293.307724 
L 463.8812 294.027559 
L 465.232426 289.167136 
L 466.583652 291.78192 
L 467.934877 291.954189 
L 469.286103 292.723243 
L 470.637329 293.978339 
L 471.988555 290.545281 
L 473.339781 290.809836 
L 474.691007 290.717549 
L 476.042233 291.449689 
L 477.393459 291.178982 
L 478.744685 291.154372 
L 480.095911 286.755382 
L 481.447137 290.083849 
L 482.798362 289.75777 
L 484.149588 289.05024 
L 485.500814 289.603959 
L 486.85204 284.405152 
L 488.203266 289.173288 
L 489.554492 287.678247 
L 490.905718 285.561809 
L 492.256944 284.989633 
L 493.60817 285.721773 
L 494.959396 283.303866 
L 496.310622 287.093766 
L 497.661847 284.503591 
L 499.013073 285.887888 
L 500.364299 282.823976 
L 501.715525 279.095601 
L 503.066751 281.993398 
L 504.417977 280.885959 
L 505.769203 275.188805 
L 507.120429 282.442525 
L 508.471655 281.125904 
L 509.822881 270.488346 
L 511.174107 274.407446 
L 512.525332 272.518649 
L 513.876558 273.121587 
L 515.227784 268.015067 
L 516.57901 266.78458 
L 517.930236 279.833893 
L 519.281462 268.691835 
L 520.632688 268.691835 
L 521.983914 267.799732 
L 523.33514 271.835729 
L 524.686366 266.230861 
L 526.037592 270.617547 
L 527.388818 271.534259 
L 528.740043 267.135269 
L 530.091269 268.790274 
L 531.442495 267.805884 
L 532.793721 268.150421 
L 534.144947 274.868879 
L 535.496173 265.929392 
L 536.847399 273.023149 
L 538.198625 264.219015 
L 539.549851 266.692294 
L 540.901077 263.609924 
L 542.252303 258.540318 
L 543.603528 261.370438 
L 544.954754 257.211393 
L 546.30598 270.54987 
L 547.657206 259.875397 
L 549.008432 266.396977 
L 550.359658 262.077968 
L 551.710884 271.429668 
L 553.06211 256.073192 
L 554.413336 268.999457 
L 555.764562 263.812955 
L 557.115788 269.485499 
L 558.467013 258.964836 
L 559.818239 268.304232 
L 561.169465 269.719291 
L 562.520691 268.562634 
L 563.871917 262.853175 
L 565.223143 273.970623 
L 566.574369 265.554093 
L 567.925595 264.48357 
L 569.276821 265.283386 
L 570.628047 264.45896 
L 571.979273 269.233249 
L 573.330498 279.163278 
L 574.681724 275.330311 
L 576.03295 270.703681 
L 577.384176 264.342064 
L 580.086628 260.859786 
L 581.437854 259.979988 
L 582.78908 271.73729 
L 584.140306 286.816906 
L 585.491532 253.864468 
L 586.842758 263.06851 
L 588.193983 256.626911 
L 589.545209 261.382743 
L 590.896435 257.525167 
L 592.247661 263.554552 
L 593.598887 265.055746 
L 594.950113 269.651615 
L 596.301339 249.391649 
L 599.003791 259.044818 
L 600.355017 260.607536 
L 601.706243 266.298538 
L 603.057469 274.167501 
L 605.75992 264.415893 
L 607.111146 266.80919 
L 608.462372 272.032607 
L 609.813598 253.901383 
L 611.164824 265.437197 
L 612.51605 272.383295 
L 613.867276 268.156573 
L 615.218502 268.611853 
L 616.569728 268.673378 
L 617.920954 261.044359 
L 619.272179 265.424892 
L 620.623405 271.503497 
L 621.974631 276.234719 
L 623.325857 278.492663 
L 624.677083 283.654555 
L 627.379535 271.860338 
L 628.730761 270.1192 
L 630.081987 271.220485 
L 631.433213 282.116446 
L 632.784439 275.871726 
L 634.135664 270.986693 
L 635.48689 275.379531 
L 636.838116 274.911946 
L 638.189342 274.758135 
L 639.540568 284.534353 
L 640.891794 288.982563 
L 642.24302 275.521037 
L 643.594246 272.592478 
L 644.945472 277.711303 
L 646.296698 279.126363 
L 647.647924 280.172277 
L 648.999149 285.383389 
L 650.350375 281.236648 
L 651.701601 278.443443 
L 653.052827 278.683388 
L 654.404053 275.865573 
L 657.106505 272.438667 
L 658.457731 283.174665 
L 659.808957 278.554187 
L 661.160183 277.637474 
L 662.511409 275.164196 
L 663.862634 278.228108 
L 665.21386 275.102671 
L 666.565086 274.985775 
L 667.916312 282.374848 
L 669.267538 283.679165 
L 670.618764 272.487887 
L 671.96999 274.647391 
L 673.321216 274.401294 
L 674.672442 272.961624 
L 676.023668 274.08752 
L 677.374894 277.483663 
L 678.726119 280.498356 
L 680.077345 275.028842 
L 681.428571 271.238943 
L 682.779797 270.426821 
L 684.131023 269.873102 
L 685.482249 267.670531 
L 686.833475 277.951248 
L 688.184701 278.48651 
L 689.535927 268.322689 
L 690.887153 272.67246 
L 692.238379 273.595325 
L 693.589605 263.425351 
L 694.94083 269.190182 
L 696.292056 270.131504 
L 697.643282 275.594866 
L 698.994508 267.904323 
L 700.345734 275.281092 
L 701.69696 263.382284 
L 703.048186 270.008456 
L 704.399412 270.52526 
L 705.750638 274.499733 
L 707.101864 280.455289 
L 708.45309 275.047299 
L 709.804315 271.768052 
L 711.155541 271.220485 
L 712.506767 272.075674 
L 713.857993 275.73022 
L 715.209219 277.034536 
L 716.560445 282.688623 
L 717.911671 273.490734 
L 719.262897 275.951707 
L 721.965349 271.171266 
L 723.316575 273.742983 
L 724.6678 278.498815 
L 726.019026 284.442066 
L 728.721478 276.493121 
L 730.072704 278.000468 
L 731.42393 280.436832 
L 732.775156 280.750606 
L 734.126382 287.450607 
L 735.477608 353.2755 
L 736.828834 284.80506 
L 738.18006 284.872737 
L 739.531285 284.079073 
L 740.882511 286.441607 
L 742.233737 288.096612 
L 743.584963 290.502214 
L 744.936189 291.824987 
L 746.287415 291.695786 
L 747.638641 282.319477 
L 748.989867 289.179441 
L 750.341093 286.564656 
L 751.692319 299.232518 
L 753.043545 295.787155 
L 754.39477 296.93766 
L 755.745996 294.421315 
L 759.799674 295.885594 
L 761.1509 293.898358 
L 762.502126 296.217825 
L 763.853352 295.737936 
L 765.204578 293.898358 
L 766.555804 295.141149 
L 767.90703 294.421315 
L 769.258256 293.861443 
L 770.609481 295.54721 
L 771.960707 296.020948 
L 773.311933 297.245282 
L 774.663159 295.479533 
L 777.365611 295.448771 
L 778.716837 296.236283 
L 781.419289 296.359331 
L 784.121741 296.900746 
L 785.472966 296.193216 
L 786.824192 296.143996 
L 788.175418 297.41755 
L 789.526644 294.322876 
L 790.87787 296.586971 
L 793.580322 296.673106 
L 794.931548 296.740782 
L 796.282774 295.768698 
L 797.634 296.187063 
L 798.985226 297.87283 
L 800.336451 295.06732 
L 801.687677 296.451618 
L 804.390129 296.131691 
L 805.741355 296.408551 
L 807.092581 296.236283 
L 809.795033 296.98688 
L 811.146259 297.097623 
L 812.497485 296.359331 
L 815.199936 296.199368 
L 816.551162 295.725631 
L 817.902388 296.414703 
L 819.253614 296.949965 
L 820.60484 296.968422 
L 821.956066 296.500837 
L 823.307292 296.673106 
L 824.658518 296.5316 
L 826.009744 295.965576 
L 827.36097 296.703868 
L 828.712196 297.183758 
L 830.063421 297.343721 
L 831.414647 296.925355 
L 832.765873 296.131691 
L 834.117099 295.836374 
L 835.468325 295.424161 
L 836.819551 295.959423 
L 838.170777 296.131691 
L 839.522003 296.550057 
L 840.873229 295.639497 
L 842.224455 295.627192 
L 843.575681 295.128845 
L 846.278132 294.495144 
L 848.980584 295.953271 
L 850.33181 293.824529 
L 853.034262 293.283114 
L 854.385488 292.280268 
L 855.736714 292.575584 
L 857.08794 294.205979 
L 858.439166 294.667412 
L 859.790392 292.987797 
L 861.141617 292.040323 
L 862.492843 291.246659 
L 863.844069 290.988256 
L 865.195295 290.600653 
L 866.546521 292.163371 
L 867.897747 292.470993 
L 869.248973 289.794684 
L 870.600199 290.305336 
L 871.951425 288.853362 
L 873.302651 289.591654 
L 874.653877 288.404234 
L 876.005102 290.680635 
L 877.356328 292.575584 
L 878.707554 287.850515 
L 880.05878 287.499826 
L 881.410006 286.466217 
L 882.761232 286.527742 
L 884.112458 282.097989 
L 885.463684 290.034629 
L 886.81491 289.850056 
L 888.166136 286.669248 
L 889.517362 287.555198 
L 890.868587 285.432608 
L 892.219813 279.784674 
L 893.571039 284.595877 
L 894.922265 288.951801 
L 896.273491 287.881277 
L 898.975943 284.872737 
L 900.327169 285.23573 
L 901.678395 281.925721 
L 903.029621 285.974022 
L 904.380847 286.490827 
L 905.732072 288.594959 
L 907.083298 284.78045 
L 908.434524 283.826823 
L 909.78575 282.233343 
L 911.136976 287.198357 
L 912.488202 284.042158 
L 913.839428 287.327558 
L 915.190654 285.869431 
L 916.54188 295.694868 
L 917.893106 276.351615 
L 919.244332 284.275951 
L 920.595557 281.482746 
L 921.946783 282.528659 
L 923.298009 286.509284 
L 924.649235 288.367319 
L 926.000461 285.334169 
L 927.351687 283.876042 
L 928.702913 279.67393 
L 930.054139 283.266951 
L 931.405365 281.734995 
L 932.756591 286.127833 
L 934.107817 287.88743 
L 935.459043 284.55281 
L 936.810268 283.408457 
L 938.161494 284.017548 
L 940.863946 284.128292 
L 942.215172 291.043628 
L 943.566398 290.742159 
L 944.917624 286.257034 
L 946.26885 285.586419 
L 947.620076 283.556116 
L 948.971302 287.579808 
L 950.322528 285.96787 
L 951.673753 288.927191 
L 953.024979 290.206897 
L 954.376205 287.733619 
L 957.078657 285.168054 
L 958.429883 286.373931 
L 959.781109 286.626181 
L 961.132335 289.056392 
L 962.483561 292.003408 
L 963.834787 287.770533 
L 965.186013 287.13068 
L 966.537238 287.795143 
L 967.888464 289.364014 
L 969.23969 288.939496 
L 970.590916 292.360249 
L 971.942142 293.153913 
L 973.293368 290.256117 
L 974.644594 291.068238 
L 975.99582 288.841057 
L 977.347046 287.376777 
L 978.698272 290.859055 
L 980.049498 293.030864 
L 981.400723 292.071085 
L 982.751949 288.810295 
L 984.103175 289.942343 
L 985.454401 285.783297 
L 986.805627 289.837751 
L 988.156853 290.305336 
L 989.508079 290.397623 
L 990.859305 292.821682 
L 992.210531 290.397623 
L 993.561757 289.886971 
L 994.912983 288.619569 
L 996.264208 289.351709 
L 997.615434 289.240965 
L 998.96666 292.175676 
L 1000.317886 292.630956 
L 1001.669112 288.865667 
L 1004.371564 286.656943 
L 1005.72279 286.669248 
L 1007.074016 287.795143 
L 1008.425242 287.40754 
L 1009.776468 289.493215 
L 1011.127694 287.173747 
L 1012.478919 285.887888 
L 1013.830145 282.65786 
L 1015.181371 284.09753 
L 1016.532597 284.343627 
L 1017.883823 288.016631 
L 1019.235049 288.379624 
L 1020.586275 281.630404 
L 1021.937501 284.288256 
L 1023.288727 280.33224 
L 1024.639953 284.682011 
L 1025.991179 285.629486 
L 1027.342404 286.373931 
L 1028.69363 284.085225 
L 1030.044856 277.871267 
L 1031.396082 278.25887 
L 1032.747308 270.420669 
L 1034.098534 270.414516 
L 1035.44976 270.715986 
L 1036.800986 276.36392 
L 1038.152212 279.483204 
L 1039.503438 273.570715 
L 1040.854664 271.675765 
L 1042.205889 263.314607 
L 1043.557115 264.262082 
L 1044.908341 269.596243 
L 1046.259567 274.235178 
L 1047.610793 277.698999 
L 1048.962019 270.820577 
L 1050.313245 267.178336 
L 1051.664471 253.433798 
L 1053.015697 252.363275 
L 1054.366923 250.843623 
L 1055.718149 252.683201 
L 1057.069374 254.22131 
L 1058.4206 245.614054 
L 1059.771826 224.621949 
L 1061.123052 186.378418 
L 1062.474278 181.339574 
L 1063.825504 178.01726 
L 1065.17673 210.760515 
L 1066.527956 237.997341 
L 1067.879182 204.146648 
L 1069.230408 134.99944 
L 1070.581634 81.460958 
L 1073.284085 98.589335 
L 1074.635311 135.128641 
L 1075.986537 164.100454 
L 1078.688989 68.479322 
L 1080.040215 99.370694 
L 1081.391441 61.244059 
L 1082.742667 96.688232 
L 1084.093893 122.442322 
L 1085.445119 156.010003 
L 1086.796344 141.557935 
L 1088.14757 154.674925 
L 1089.498796 152.232408 
L 1090.850022 155.696229 
L 1092.201248 194.148942 
L 1093.552474 202.848484 
L 1094.9037 242.790087 
L 1096.254926 228.676403 
L 1097.606152 230.725164 
L 1098.957378 223.58834 
L 1100.308604 224.763455 
L 1101.65983 242.968508 
L 1103.011055 241.301198 
L 1104.362281 268.070439 
L 1105.713507 262.668602 
L 1107.064733 254.024432 
L 1108.415959 256.503863 
L 1109.767185 235.622501 
L 1111.118411 264.778887 
L 1112.469637 284.478981 
L 1113.820863 285.118834 
L 1115.172089 276.653085 
L 1116.523315 273.306161 
L 1117.87454 273.822965 
L 1119.225766 279.274022 
L 1120.576992 279.655473 
L 1121.928218 286.65079 
L 1123.279444 290.865208 
L 1124.63067 286.158596 
L 1125.981896 283.543811 
L 1127.333122 278.23426 
L 1128.684348 282.011855 
L 1130.035574 286.226272 
L 1131.3868 291.12361 
L 1132.738025 290.87136 
L 1134.089251 288.201204 
L 1135.440477 282.528659 
L 1136.791703 281.002856 
L 1138.142929 283.679165 
L 1139.494155 297.87283 
L 1140.845381 297.87283 
L 1142.196607 276.831505 
L 1143.547833 290.471452 
L 1144.899059 290.69294 
L 1146.250285 297.87283 
L 1147.60151 278.320394 
L 1148.952736 291.006714 
L 1150.303962 290.034629 
L 1151.655188 293.215438 
L 1153.006414 291.006714 
L 1154.35764 289.074849 
L 1155.708866 290.010019 
L 1157.060092 289.062544 
L 1159.762544 293.812224 
L 1161.11377 291.929579 
L 1162.464995 290.526824 
L 1163.816221 291.935731 
L 1165.167447 289.394776 
L 1166.518673 290.243812 
L 1167.869899 293.479992 
L 1169.221125 294.993491 
L 1170.572351 295.227283 
L 1171.923577 293.387706 
L 1173.274803 287.518283 
L 1174.626029 291.209744 
L 1175.977255 288.502673 
L 1177.328481 292.526365 
L 1178.679706 294.716631 
L 1180.030932 294.476687 
L 1181.382158 292.587889 
L 1182.733384 291.080543 
L 1184.08461 288.330405 
L 1185.435836 290.637568 
L 1186.787062 292.280268 
L 1188.138288 292.08339 
L 1189.489514 293.916815 
L 1192.191966 289.450148 
L 1193.543191 288.841057 
L 1194.894417 288.539588 
L 1196.245643 288.687246 
L 1197.596869 297.87283 
L 1198.948095 286.626181 
L 1200.299321 287.967411 
L 1203.001773 284.897347 
L 1204.352999 285.457218 
L 1205.704225 287.850515 
L 1207.055451 286.730772 
L 1208.406676 290.988256 
L 1209.757902 285.678706 
L 1211.109128 283.8945 
L 1212.460354 281.076685 
L 1213.81158 283.254647 
L 1215.162806 284.565115 
L 1216.514032 287.727466 
L 1217.865258 297.87283 
L 1219.216484 280.566033 
L 1220.56771 284.060615 
L 1221.918936 280.664472 
L 1223.270161 280.215344 
L 1224.621387 282.294867 
L 1225.972613 287.505979 
L 1227.323839 289.782379 
L 1228.675065 281.101295 
L 1230.026291 278.892571 
L 1232.728743 277.969706 
L 1234.079969 277.852809 
L 1235.431195 283.740689 
L 1236.782421 279.323241 
L 1238.133646 281.611947 
L 1239.484872 276.948402 
L 1240.836098 271.177418 
L 1242.187324 271.626546 
L 1243.53855 273.349228 
L 1244.889776 277.514425 
L 1246.241002 284.712773 
L 1247.592228 270.845187 
L 1248.943454 267.572092 
L 1250.29468 259.930769 
L 1251.645906 257.955837 
L 1252.997132 266.083203 
L 1254.348357 273.416904 
L 1255.699583 277.440596 
L 1257.050809 269.454737 
L 1258.402035 266.427739 
L 1259.753261 260.988987 
L 1261.104487 260.146104 
L 1262.455713 265.461807 
L 1263.806939 273.712221 
L 1265.158165 279.692387 
L 1266.509391 260.195323 
L 1267.860617 268.02122 
L 1269.211842 264.212863 
L 1270.563068 265.917087 
L 1271.914294 268.4765 
L 1273.26552 297.87283 
L 1274.616746 259.60469 
L 1275.967972 282.95933 
L 1278.670424 268.741054 
L 1280.02165 268.605701 
L 1281.372876 271.072827 
L 1282.724102 279.44629 
L 1284.075327 283.100836 
L 1285.426553 275.164196 
L 1286.777779 276.253176 
L 1288.129005 274.856574 
L 1289.480231 275.256482 
L 1290.831457 277.692846 
L 1292.182683 284.165207 
L 1293.533909 291.849597 
L 1294.885135 278.634169 
L 1296.236361 278.984857 
L 1297.587587 278.203498 
L 1298.938812 276.505426 
L 1300.290038 281.845739 
L 1301.641264 283.248494 
L 1302.99249 289.02563 
L 1304.343716 280.289173 
L 1305.694942 276.019384 
L 1307.046168 278.03123 
L 1308.397394 277.532883 
L 1309.74862 278.074297 
L 1311.099846 281.864196 
L 1312.451072 288.588807 
L 1313.802297 275.545647 
L 1315.153523 278.529577 
L 1315.153523 278.529577 
" clip-path="url(#p663e4881fd)" style="fill: none; stroke: #0000ff; stroke-width: 1.5; stroke-linecap: square"/>
   </g>
   <g id="line2d_19">
    <path d="M 1075.986537 140.740114 
L 1078.688989 50.8755 
L 1080.040215 86.281073 
L 1081.391441 72.393827 
L 1082.742667 106.944364 
L 1084.093893 131.957579 
L 1085.445119 124.695017 
L 1086.796344 108.762515 
L 1088.14757 144.28065 
L 1089.498796 135.349768 
L 1090.850022 163.823043 
L 1092.201248 199.543735 
L 1093.552474 219.227149 
L 1094.9037 222.604871 
L 1096.254926 224.086362 
L 1097.606152 228.929993 
L 1098.957378 222.65376 
L 1100.308604 243.532422 
L 1101.65983 251.004002 
L 1103.011055 265.312549 
L 1104.362281 258.030148 
L 1105.713507 261.208475 
L 1107.064733 253.688023 
L 1108.415959 255.266803 
L 1109.767185 254.884805 
L 1111.118411 263.090131 
L 1112.469637 293.948922 
L 1113.820863 283.291664 
L 1115.172089 275.4464 
L 1116.523315 274.220776 
L 1117.87454 265.600059 
L 1119.225766 289.94402 
L 1120.576992 291.307941 
L 1121.928218 293.168747 
L 1123.279444 286.919303 
L 1124.63067 284.113405 
L 1125.981896 283.995869 
L 1127.333122 279.910514 
L 1130.035574 291.214338 
L 1131.3868 294.24422 
L 1132.738025 288.778301 
L 1134.089251 286.70072 
L 1135.440477 281.881171 
L 1136.791703 282.723508 
L 1138.142929 286.314439 
L 1139.494155 297.455097 
L 1140.845381 298.517736 
L 1142.196607 282.027116 
L 1144.899059 287.611714 
L 1146.250285 295.948788 
L 1147.60151 290.610411 
L 1148.952736 291.847892 
L 1150.303962 282.527459 
L 1151.655188 294.518453 
L 1153.006414 291.475793 
L 1154.35764 292.37315 
L 1155.708866 283.469795 
L 1157.060092 294.082223 
L 1158.411318 292.22107 
L 1159.762544 292.229757 
L 1161.11377 292.53592 
L 1162.464995 290.22854 
L 1163.816221 292.457055 
L 1165.167447 287.940566 
L 1166.518673 292.394415 
L 1167.869899 294.020971 
L 1169.221125 293.624862 
L 1170.572351 294.287055 
L 1171.923577 293.967868 
L 1173.274803 288.954596 
L 1175.977255 291.142382 
L 1177.328481 292.925089 
L 1178.679706 293.917809 
L 1180.030932 293.446378 
L 1181.382158 290.628782 
L 1182.733384 292.19388 
L 1184.08461 288.430626 
L 1185.435836 292.104586 
L 1186.787062 293.333915 
L 1188.138288 292.342793 
L 1189.489514 292.407149 
L 1192.191966 289.129008 
L 1193.543191 289.513438 
L 1194.894417 290.139357 
L 1196.245643 289.406925 
L 1197.596869 295.755988 
L 1198.948095 288.475137 
L 1200.299321 286.900018 
L 1203.001773 285.348201 
L 1204.352999 285.844662 
L 1205.704225 290.892445 
L 1207.055451 283.848782 
L 1208.406676 288.825044 
L 1209.757902 285.749733 
L 1211.109128 283.78032 
L 1212.460354 282.205126 
L 1213.81158 283.976172 
L 1215.162806 284.985495 
L 1216.514032 287.290273 
L 1217.865258 292.328608 
L 1219.216484 283.471364 
L 1220.56771 282.542426 
L 1221.918936 282.214586 
L 1223.270161 281.700303 
L 1224.621387 283.525994 
L 1225.972613 290.340863 
L 1227.323839 282.530828 
L 1228.675065 282.676523 
L 1230.026291 278.420912 
L 1231.377517 278.511291 
L 1232.728743 279.207426 
L 1234.079969 280.771543 
L 1235.431195 284.846028 
L 1236.782421 275.58792 
L 1238.133646 279.061038 
L 1239.484872 276.969618 
L 1240.836098 272.937028 
L 1242.187324 272.315916 
L 1243.53855 276.044491 
L 1244.889776 275.875759 
L 1246.241002 281.108906 
L 1247.592228 272.232106 
L 1248.943454 266.63444 
L 1250.29468 262.280378 
L 1251.645906 260.140649 
L 1252.997132 266.635199 
L 1254.348357 273.695516 
L 1255.699583 270.517379 
L 1257.050809 267.937141 
L 1258.402035 263.193598 
L 1259.753261 260.97405 
L 1261.104487 263.853168 
L 1262.455713 268.552304 
L 1263.806939 274.319432 
L 1265.158165 273.130534 
L 1266.509391 262.739255 
L 1269.211842 263.284085 
L 1271.914294 272.663681 
L 1273.26552 292.567342 
L 1274.616746 261.415686 
L 1275.967972 278.440758 
L 1277.319198 274.35122 
L 1278.670424 271.114381 
L 1280.02165 271.329648 
L 1281.372876 284.024417 
L 1282.724102 266.674421 
L 1284.075327 284.321122 
L 1285.426553 276.163154 
L 1286.777779 272.672849 
L 1288.129005 274.229249 
L 1289.480231 276.434848 
L 1290.831457 284.267541 
L 1292.182683 281.565117 
L 1293.533909 287.207396 
L 1294.885135 281.320107 
L 1296.236361 278.189683 
L 1298.938812 278.524724 
L 1300.290038 285.307206 
L 1301.641264 286.218924 
L 1302.99249 282.510896 
L 1304.343716 281.120132 
L 1305.694942 276.948596 
L 1307.046168 277.054004 
L 1308.397394 279.888212 
L 1309.74862 280.531729 
L 1311.099846 284.364996 
L 1312.451072 282.137754 
L 1313.802297 276.06205 
L 1315.153523 278.294089 
L 1315.153523 278.294089 
" clip-path="url(#p663e4881fd)" style="fill: none; stroke: #ffa500; stroke-width: 1.5; stroke-linecap: square"/>
   </g>
   <g id="line2d_20">
    <path d="M 1315.153523 278.294089 
L 1316.504749 277.919877 
L 1317.855975 278.852272 
L 1319.207201 280.883391 
L 1320.558427 284.385883 
L 1321.909653 277.778147 
L 1323.260879 278.484477 
L 1324.612105 278.556999 
L 1325.963331 278.30195 
L 1327.314557 278.937435 
L 1328.665782 280.321768 
L 1330.017008 282.708932 
L 1331.368234 278.205352 
L 1332.71946 278.68676 
" clip-path="url(#p663e4881fd)" style="fill: none; stroke: #ff0000; stroke-width: 1.5; stroke-linecap: square"/>
   </g>
   <g id="patch_3">
    <path d="M 54.392188 368.3955 
L 54.392188 35.7555 
" style="fill: none; stroke: #000000; stroke-width: 0.8; stroke-linejoin: miter; stroke-linecap: square"/>
   </g>
   <g id="patch_4">
    <path d="M 1393.592188 368.3955 
L 1393.592188 35.7555 
" style="fill: none; stroke: #000000; stroke-width: 0.8; stroke-linejoin: miter; stroke-linecap: square"/>
   </g>
   <g id="patch_5">
    <path d="M 54.392187 368.3955 
L 1393.592187 368.3955 
" style="fill: none; stroke: #000000; stroke-width: 0.8; stroke-linejoin: miter; stroke-linecap: square"/>
   </g>
   <g id="patch_6">
    <path d="M 54.392187 35.7555 
L 1393.592187 35.7555 
" style="fill: none; stroke: #000000; stroke-width: 0.8; stroke-linejoin: miter; stroke-linecap: square"/>
   </g>
   <g id="text_18">
    <!-- Daily Confirmed Cases Forecasting - New Jersey -->
    <g transform="translate(580.200312 16.318125)scale(0.12 -0.12)">
     <defs>
      <path id="DejaVuSans-44" d="M 1259 4147 
L 1259 519 
L 2022 519 
Q 2988 519 3436 956 
Q 3884 1394 3884 2338 
Q 3884 3275 3436 3711 
Q 2988 4147 2022 4147 
L 1259 4147 
z
M 628 4666 
L 1925 4666 
Q 3281 4666 3915 4102 
Q 4550 3538 4550 2338 
Q 4550 1131 3912 565 
Q 3275 0 1925 0 
L 628 0 
L 628 4666 
z
" transform="scale(0.015625)"/>
      <path id="DejaVuSans-61" d="M 2194 1759 
Q 1497 1759 1228 1600 
Q 959 1441 959 1056 
Q 959 750 1161 570 
Q 1363 391 1709 391 
Q 2188 391 2477 730 
Q 2766 1069 2766 1631 
L 2766 1759 
L 2194 1759 
z
M 3341 1997 
L 3341 0 
L 2766 0 
L 2766 531 
Q 2569 213 2275 61 
Q 1981 -91 1556 -91 
Q 1019 -91 701 211 
Q 384 513 384 1019 
Q 384 1609 779 1909 
Q 1175 2209 1959 2209 
L 2766 2209 
L 2766 2266 
Q 2766 2663 2505 2880 
Q 2244 3097 1772 3097 
Q 1472 3097 1187 3025 
Q 903 2953 641 2809 
L 641 3341 
Q 956 3463 1253 3523 
Q 1550 3584 1831 3584 
Q 2591 3584 2966 3190 
Q 3341 2797 3341 1997 
z
" transform="scale(0.015625)"/>
      <path id="DejaVuSans-69" d="M 603 3500 
L 1178 3500 
L 1178 0 
L 603 0 
L 603 3500 
z
M 603 4863 
L 1178 4863 
L 1178 4134 
L 603 4134 
L 603 4863 
z
" transform="scale(0.015625)"/>
      <path id="DejaVuSans-6c" d="M 603 4863 
L 1178 4863 
L 1178 0 
L 603 0 
L 603 4863 
z
" transform="scale(0.015625)"/>
      <path id="DejaVuSans-79" d="M 2059 -325 
Q 1816 -950 1584 -1140 
Q 1353 -1331 966 -1331 
L 506 -1331 
L 506 -850 
L 844 -850 
Q 1081 -850 1212 -737 
Q 1344 -625 1503 -206 
L 1606 56 
L 191 3500 
L 800 3500 
L 1894 763 
L 2988 3500 
L 3597 3500 
L 2059 -325 
z
" transform="scale(0.015625)"/>
      <path id="DejaVuSans-20" transform="scale(0.015625)"/>
      <path id="DejaVuSans-43" d="M 4122 4306 
L 4122 3641 
Q 3803 3938 3442 4084 
Q 3081 4231 2675 4231 
Q 1875 4231 1450 3742 
Q 1025 3253 1025 2328 
Q 1025 1406 1450 917 
Q 1875 428 2675 428 
Q 3081 428 3442 575 
Q 3803 722 4122 1019 
L 4122 359 
Q 3791 134 3420 21 
Q 3050 -91 2638 -91 
Q 1578 -91 968 557 
Q 359 1206 359 2328 
Q 359 3453 968 4101 
Q 1578 4750 2638 4750 
Q 3056 4750 3426 4639 
Q 3797 4528 4122 4306 
z
" transform="scale(0.015625)"/>
      <path id="DejaVuSans-6f" d="M 1959 3097 
Q 1497 3097 1228 2736 
Q 959 2375 959 1747 
Q 959 1119 1226 758 
Q 1494 397 1959 397 
Q 2419 397 2687 759 
Q 2956 1122 2956 1747 
Q 2956 2369 2687 2733 
Q 2419 3097 1959 3097 
z
M 1959 3584 
Q 2709 3584 3137 3096 
Q 3566 2609 3566 1747 
Q 3566 888 3137 398 
Q 2709 -91 1959 -91 
Q 1206 -91 779 398 
Q 353 888 353 1747 
Q 353 2609 779 3096 
Q 1206 3584 1959 3584 
z
" transform="scale(0.015625)"/>
      <path id="DejaVuSans-6e" d="M 3513 2113 
L 3513 0 
L 2938 0 
L 2938 2094 
Q 2938 2591 2744 2837 
Q 2550 3084 2163 3084 
Q 1697 3084 1428 2787 
Q 1159 2491 1159 1978 
L 1159 0 
L 581 0 
L 581 3500 
L 1159 3500 
L 1159 2956 
Q 1366 3272 1645 3428 
Q 1925 3584 2291 3584 
Q 2894 3584 3203 3211 
Q 3513 2838 3513 2113 
z
" transform="scale(0.015625)"/>
      <path id="DejaVuSans-66" d="M 2375 4863 
L 2375 4384 
L 1825 4384 
Q 1516 4384 1395 4259 
Q 1275 4134 1275 3809 
L 1275 3500 
L 2222 3500 
L 2222 3053 
L 1275 3053 
L 1275 0 
L 697 0 
L 697 3053 
L 147 3053 
L 147 3500 
L 697 3500 
L 697 3744 
Q 697 4328 969 4595 
Q 1241 4863 1831 4863 
L 2375 4863 
z
" transform="scale(0.015625)"/>
      <path id="DejaVuSans-72" d="M 2631 2963 
Q 2534 3019 2420 3045 
Q 2306 3072 2169 3072 
Q 1681 3072 1420 2755 
Q 1159 2438 1159 1844 
L 1159 0 
L 581 0 
L 581 3500 
L 1159 3500 
L 1159 2956 
Q 1341 3275 1631 3429 
Q 1922 3584 2338 3584 
Q 2397 3584 2469 3576 
Q 2541 3569 2628 3553 
L 2631 2963 
z
" transform="scale(0.015625)"/>
      <path id="DejaVuSans-6d" d="M 3328 2828 
Q 3544 3216 3844 3400 
Q 4144 3584 4550 3584 
Q 5097 3584 5394 3201 
Q 5691 2819 5691 2113 
L 5691 0 
L 5113 0 
L 5113 2094 
Q 5113 2597 4934 2840 
Q 4756 3084 4391 3084 
Q 3944 3084 3684 2787 
Q 3425 2491 3425 1978 
L 3425 0 
L 2847 0 
L 2847 2094 
Q 2847 2600 2669 2842 
Q 2491 3084 2119 3084 
Q 1678 3084 1418 2786 
Q 1159 2488 1159 1978 
L 1159 0 
L 581 0 
L 581 3500 
L 1159 3500 
L 1159 2956 
Q 1356 3278 1631 3431 
Q 1906 3584 2284 3584 
Q 2666 3584 2933 3390 
Q 3200 3197 3328 2828 
z
" transform="scale(0.015625)"/>
      <path id="DejaVuSans-65" d="M 3597 1894 
L 3597 1613 
L 953 1613 
Q 991 1019 1311 708 
Q 1631 397 2203 397 
Q 2534 397 2845 478 
Q 3156 559 3463 722 
L 3463 178 
Q 3153 47 2828 -22 
Q 2503 -91 2169 -91 
Q 1331 -91 842 396 
Q 353 884 353 1716 
Q 353 2575 817 3079 
Q 1281 3584 2069 3584 
Q 2775 3584 3186 3129 
Q 3597 2675 3597 1894 
z
M 3022 2063 
Q 3016 2534 2758 2815 
Q 2500 3097 2075 3097 
Q 1594 3097 1305 2825 
Q 1016 2553 972 2059 
L 3022 2063 
z
" transform="scale(0.015625)"/>
      <path id="DejaVuSans-64" d="M 2906 2969 
L 2906 4863 
L 3481 4863 
L 3481 0 
L 2906 0 
L 2906 525 
Q 2725 213 2448 61 
Q 2172 -91 1784 -91 
Q 1150 -91 751 415 
Q 353 922 353 1747 
Q 353 2572 751 3078 
Q 1150 3584 1784 3584 
Q 2172 3584 2448 3432 
Q 2725 3281 2906 2969 
z
M 947 1747 
Q 947 1113 1208 752 
Q 1469 391 1925 391 
Q 2381 391 2643 752 
Q 2906 1113 2906 1747 
Q 2906 2381 2643 2742 
Q 2381 3103 1925 3103 
Q 1469 3103 1208 2742 
Q 947 2381 947 1747 
z
" transform="scale(0.015625)"/>
      <path id="DejaVuSans-73" d="M 2834 3397 
L 2834 2853 
Q 2591 2978 2328 3040 
Q 2066 3103 1784 3103 
Q 1356 3103 1142 2972 
Q 928 2841 928 2578 
Q 928 2378 1081 2264 
Q 1234 2150 1697 2047 
L 1894 2003 
Q 2506 1872 2764 1633 
Q 3022 1394 3022 966 
Q 3022 478 2636 193 
Q 2250 -91 1575 -91 
Q 1294 -91 989 -36 
Q 684 19 347 128 
L 347 722 
Q 666 556 975 473 
Q 1284 391 1588 391 
Q 1994 391 2212 530 
Q 2431 669 2431 922 
Q 2431 1156 2273 1281 
Q 2116 1406 1581 1522 
L 1381 1569 
Q 847 1681 609 1914 
Q 372 2147 372 2553 
Q 372 3047 722 3315 
Q 1072 3584 1716 3584 
Q 2034 3584 2315 3537 
Q 2597 3491 2834 3397 
z
" transform="scale(0.015625)"/>
      <path id="DejaVuSans-46" d="M 628 4666 
L 3309 4666 
L 3309 4134 
L 1259 4134 
L 1259 2759 
L 3109 2759 
L 3109 2228 
L 1259 2228 
L 1259 0 
L 628 0 
L 628 4666 
z
" transform="scale(0.015625)"/>
      <path id="DejaVuSans-63" d="M 3122 3366 
L 3122 2828 
Q 2878 2963 2633 3030 
Q 2388 3097 2138 3097 
Q 1578 3097 1268 2742 
Q 959 2388 959 1747 
Q 959 1106 1268 751 
Q 1578 397 2138 397 
Q 2388 397 2633 464 
Q 2878 531 3122 666 
L 3122 134 
Q 2881 22 2623 -34 
Q 2366 -91 2075 -91 
Q 1284 -91 818 406 
Q 353 903 353 1747 
Q 353 2603 823 3093 
Q 1294 3584 2113 3584 
Q 2378 3584 2631 3529 
Q 2884 3475 3122 3366 
z
" transform="scale(0.015625)"/>
      <path id="DejaVuSans-74" d="M 1172 4494 
L 1172 3500 
L 2356 3500 
L 2356 3053 
L 1172 3053 
L 1172 1153 
Q 1172 725 1289 603 
Q 1406 481 1766 481 
L 2356 481 
L 2356 0 
L 1766 0 
Q 1100 0 847 248 
Q 594 497 594 1153 
L 594 3053 
L 172 3053 
L 172 3500 
L 594 3500 
L 594 4494 
L 1172 4494 
z
" transform="scale(0.015625)"/>
      <path id="DejaVuSans-67" d="M 2906 1791 
Q 2906 2416 2648 2759 
Q 2391 3103 1925 3103 
Q 1463 3103 1205 2759 
Q 947 2416 947 1791 
Q 947 1169 1205 825 
Q 1463 481 1925 481 
Q 2391 481 2648 825 
Q 2906 1169 2906 1791 
z
M 3481 434 
Q 3481 -459 3084 -895 
Q 2688 -1331 1869 -1331 
Q 1566 -1331 1297 -1286 
Q 1028 -1241 775 -1147 
L 775 -588 
Q 1028 -725 1275 -790 
Q 1522 -856 1778 -856 
Q 2344 -856 2625 -561 
Q 2906 -266 2906 331 
L 2906 616 
Q 2728 306 2450 153 
Q 2172 0 1784 0 
Q 1141 0 747 490 
Q 353 981 353 1791 
Q 353 2603 747 3093 
Q 1141 3584 1784 3584 
Q 2172 3584 2450 3431 
Q 2728 3278 2906 2969 
L 2906 3500 
L 3481 3500 
L 3481 434 
z
" transform="scale(0.015625)"/>
      <path id="DejaVuSans-4e" d="M 628 4666 
L 1478 4666 
L 3547 763 
L 3547 4666 
L 4159 4666 
L 4159 0 
L 3309 0 
L 1241 3903 
L 1241 0 
L 628 0 
L 628 4666 
z
" transform="scale(0.015625)"/>
      <path id="DejaVuSans-77" d="M 269 3500 
L 844 3500 
L 1563 769 
L 2278 3500 
L 2956 3500 
L 3675 769 
L 4391 3500 
L 4966 3500 
L 4050 0 
L 3372 0 
L 2619 2869 
L 1863 0 
L 1184 0 
L 269 3500 
z
" transform="scale(0.015625)"/>
      <path id="DejaVuSans-4a" d="M 628 4666 
L 1259 4666 
L 1259 325 
Q 1259 -519 939 -900 
Q 619 -1281 -91 -1281 
L -331 -1281 
L -331 -750 
L -134 -750 
Q 284 -750 456 -515 
Q 628 -281 628 325 
L 628 4666 
z
" transform="scale(0.015625)"/>
     </defs>
     <use xlink:href="#DejaVuSans-44"/>
     <use xlink:href="#DejaVuSans-61" x="77.001953"/>
     <use xlink:href="#DejaVuSans-69" x="138.28125"/>
     <use xlink:href="#DejaVuSans-6c" x="166.064453"/>
     <use xlink:href="#DejaVuSans-79" x="193.847656"/>
     <use xlink:href="#DejaVuSans-20" x="253.027344"/>
     <use xlink:href="#DejaVuSans-43" x="284.814453"/>
     <use xlink:href="#DejaVuSans-6f" x="354.638672"/>
     <use xlink:href="#DejaVuSans-6e" x="415.820312"/>
     <use xlink:href="#DejaVuSans-66" x="479.199219"/>
     <use xlink:href="#DejaVuSans-69" x="514.404297"/>
     <use xlink:href="#DejaVuSans-72" x="542.1875"/>
     <use xlink:href="#DejaVuSans-6d" x="581.550781"/>
     <use xlink:href="#DejaVuSans-65" x="678.962891"/>
     <use xlink:href="#DejaVuSans-64" x="740.486328"/>
     <use xlink:href="#DejaVuSans-20" x="803.962891"/>
     <use xlink:href="#DejaVuSans-43" x="835.75"/>
     <use xlink:href="#DejaVuSans-61" x="905.574219"/>
     <use xlink:href="#DejaVuSans-73" x="966.853516"/>
     <use xlink:href="#DejaVuSans-65" x="1018.953125"/>
     <use xlink:href="#DejaVuSans-73" x="1080.476562"/>
     <use xlink:href="#DejaVuSans-20" x="1132.576172"/>
     <use xlink:href="#DejaVuSans-46" x="1164.363281"/>
     <use xlink:href="#DejaVuSans-6f" x="1218.257812"/>
     <use xlink:href="#DejaVuSans-72" x="1279.439453"/>
     <use xlink:href="#DejaVuSans-65" x="1318.302734"/>
     <use xlink:href="#DejaVuSans-63" x="1379.826172"/>
     <use xlink:href="#DejaVuSans-61" x="1434.806641"/>
     <use xlink:href="#DejaVuSans-73" x="1496.085938"/>
     <use xlink:href="#DejaVuSans-74" x="1548.185547"/>
     <use xlink:href="#DejaVuSans-69" x="1587.394531"/>
     <use xlink:href="#DejaVuSans-6e" x="1615.177734"/>
     <use xlink:href="#DejaVuSans-67" x="1678.556641"/>
     <use xlink:href="#DejaVuSans-20" x="1742.033203"/>
     <use xlink:href="#DejaVuSans-2d" x="1773.820312"/>
     <use xlink:href="#DejaVuSans-20" x="1809.904297"/>
     <use xlink:href="#DejaVuSans-4e" x="1841.691406"/>
     <use xlink:href="#DejaVuSans-65" x="1916.496094"/>
     <use xlink:href="#DejaVuSans-77" x="1978.019531"/>
     <use xlink:href="#DejaVuSans-20" x="2059.806641"/>
     <use xlink:href="#DejaVuSans-4a" x="2091.59375"/>
     <use xlink:href="#DejaVuSans-65" x="2121.085938"/>
     <use xlink:href="#DejaVuSans-72" x="2182.609375"/>
     <use xlink:href="#DejaVuSans-73" x="2223.722656"/>
     <use xlink:href="#DejaVuSans-65" x="2275.822266"/>
     <use xlink:href="#DejaVuSans-79" x="2337.345703"/>
    </g>
    <!-- ARIMA (0, 1, 1)x(1, 0, 1, 7) (R2 = 0.974034) -->
    <g transform="translate(592.008125 29.7555)scale(0.12 -0.12)">
     <defs>
      <path id="DejaVuSans-41" d="M 2188 4044 
L 1331 1722 
L 3047 1722 
L 2188 4044 
z
M 1831 4666 
L 2547 4666 
L 4325 0 
L 3669 0 
L 3244 1197 
L 1141 1197 
L 716 0 
L 50 0 
L 1831 4666 
z
" transform="scale(0.015625)"/>
      <path id="DejaVuSans-52" d="M 2841 2188 
Q 3044 2119 3236 1894 
Q 3428 1669 3622 1275 
L 4263 0 
L 3584 0 
L 2988 1197 
Q 2756 1666 2539 1819 
Q 2322 1972 1947 1972 
L 1259 1972 
L 1259 0 
L 628 0 
L 628 4666 
L 2053 4666 
Q 2853 4666 3247 4331 
Q 3641 3997 3641 3322 
Q 3641 2881 3436 2590 
Q 3231 2300 2841 2188 
z
M 1259 4147 
L 1259 2491 
L 2053 2491 
Q 2509 2491 2742 2702 
Q 2975 2913 2975 3322 
Q 2975 3731 2742 3939 
Q 2509 4147 2053 4147 
L 1259 4147 
z
" transform="scale(0.015625)"/>
      <path id="DejaVuSans-49" d="M 628 4666 
L 1259 4666 
L 1259 0 
L 628 0 
L 628 4666 
z
" transform="scale(0.015625)"/>
      <path id="DejaVuSans-4d" d="M 628 4666 
L 1569 4666 
L 2759 1491 
L 3956 4666 
L 4897 4666 
L 4897 0 
L 4281 0 
L 4281 4097 
L 3078 897 
L 2444 897 
L 1241 4097 
L 1241 0 
L 628 0 
L 628 4666 
z
" transform="scale(0.015625)"/>
      <path id="DejaVuSans-28" d="M 1984 4856 
Q 1566 4138 1362 3434 
Q 1159 2731 1159 2009 
Q 1159 1288 1364 580 
Q 1569 -128 1984 -844 
L 1484 -844 
Q 1016 -109 783 600 
Q 550 1309 550 2009 
Q 550 2706 781 3412 
Q 1013 4119 1484 4856 
L 1984 4856 
z
" transform="scale(0.015625)"/>
      <path id="DejaVuSans-2c" d="M 750 794 
L 1409 794 
L 1409 256 
L 897 -744 
L 494 -744 
L 750 256 
L 750 794 
z
" transform="scale(0.015625)"/>
      <path id="DejaVuSans-29" d="M 513 4856 
L 1013 4856 
Q 1481 4119 1714 3412 
Q 1947 2706 1947 2009 
Q 1947 1309 1714 600 
Q 1481 -109 1013 -844 
L 513 -844 
Q 928 -128 1133 580 
Q 1338 1288 1338 2009 
Q 1338 2731 1133 3434 
Q 928 4138 513 4856 
z
" transform="scale(0.015625)"/>
      <path id="DejaVuSans-78" d="M 3513 3500 
L 2247 1797 
L 3578 0 
L 2900 0 
L 1881 1375 
L 863 0 
L 184 0 
L 1544 1831 
L 300 3500 
L 978 3500 
L 1906 2253 
L 2834 3500 
L 3513 3500 
z
" transform="scale(0.015625)"/>
      <path id="DejaVuSans-3d" d="M 678 2906 
L 4684 2906 
L 4684 2381 
L 678 2381 
L 678 2906 
z
M 678 1631 
L 4684 1631 
L 4684 1100 
L 678 1100 
L 678 1631 
z
" transform="scale(0.015625)"/>
      <path id="DejaVuSans-2e" d="M 684 794 
L 1344 794 
L 1344 0 
L 684 0 
L 684 794 
z
" transform="scale(0.015625)"/>
      <path id="DejaVuSans-39" d="M 703 97 
L 703 672 
Q 941 559 1184 500 
Q 1428 441 1663 441 
Q 2288 441 2617 861 
Q 2947 1281 2994 2138 
Q 2813 1869 2534 1725 
Q 2256 1581 1919 1581 
Q 1219 1581 811 2004 
Q 403 2428 403 3163 
Q 403 3881 828 4315 
Q 1253 4750 1959 4750 
Q 2769 4750 3195 4129 
Q 3622 3509 3622 2328 
Q 3622 1225 3098 567 
Q 2575 -91 1691 -91 
Q 1453 -91 1209 -44 
Q 966 3 703 97 
z
M 1959 2075 
Q 2384 2075 2632 2365 
Q 2881 2656 2881 3163 
Q 2881 3666 2632 3958 
Q 2384 4250 1959 4250 
Q 1534 4250 1286 3958 
Q 1038 3666 1038 3163 
Q 1038 2656 1286 2365 
Q 1534 2075 1959 2075 
z
" transform="scale(0.015625)"/>
     </defs>
     <use xlink:href="#DejaVuSans-41"/>
     <use xlink:href="#DejaVuSans-52" x="68.408203"/>
     <use xlink:href="#DejaVuSans-49" x="137.890625"/>
     <use xlink:href="#DejaVuSans-4d" x="167.382812"/>
     <use xlink:href="#DejaVuSans-41" x="253.662109"/>
     <use xlink:href="#DejaVuSans-20" x="322.070312"/>
     <use xlink:href="#DejaVuSans-28" x="353.857422"/>
     <use xlink:href="#DejaVuSans-30" x="392.871094"/>
     <use xlink:href="#DejaVuSans-2c" x="456.494141"/>
     <use xlink:href="#DejaVuSans-20" x="488.28125"/>
     <use xlink:href="#DejaVuSans-31" x="520.068359"/>
     <use xlink:href="#DejaVuSans-2c" x="583.691406"/>
     <use xlink:href="#DejaVuSans-20" x="615.478516"/>
     <use xlink:href="#DejaVuSans-31" x="647.265625"/>
     <use xlink:href="#DejaVuSans-29" x="710.888672"/>
     <use xlink:href="#DejaVuSans-78" x="749.902344"/>
     <use xlink:href="#DejaVuSans-28" x="809.082031"/>
     <use xlink:href="#DejaVuSans-31" x="848.095703"/>
     <use xlink:href="#DejaVuSans-2c" x="911.71875"/>
     <use xlink:href="#DejaVuSans-20" x="943.505859"/>
     <use xlink:href="#DejaVuSans-30" x="975.292969"/>
     <use xlink:href="#DejaVuSans-2c" x="1038.916016"/>
     <use xlink:href="#DejaVuSans-20" x="1070.703125"/>
     <use xlink:href="#DejaVuSans-31" x="1102.490234"/>
     <use xlink:href="#DejaVuSans-2c" x="1166.113281"/>
     <use xlink:href="#DejaVuSans-20" x="1197.900391"/>
     <use xlink:href="#DejaVuSans-37" x="1229.6875"/>
     <use xlink:href="#DejaVuSans-29" x="1293.310547"/>
     <use xlink:href="#DejaVuSans-20" x="1332.324219"/>
     <use xlink:href="#DejaVuSans-28" x="1364.111328"/>
     <use xlink:href="#DejaVuSans-52" x="1403.125"/>
     <use xlink:href="#DejaVuSans-32" x="1472.607422"/>
     <use xlink:href="#DejaVuSans-20" x="1536.230469"/>
     <use xlink:href="#DejaVuSans-3d" x="1568.017578"/>
     <use xlink:href="#DejaVuSans-20" x="1651.806641"/>
     <use xlink:href="#DejaVuSans-30" x="1683.59375"/>
     <use xlink:href="#DejaVuSans-2e" x="1747.216797"/>
     <use xlink:href="#DejaVuSans-39" x="1779.003906"/>
     <use xlink:href="#DejaVuSans-37" x="1842.626953"/>
     <use xlink:href="#DejaVuSans-34" x="1906.25"/>
     <use xlink:href="#DejaVuSans-30" x="1969.873047"/>
     <use xlink:href="#DejaVuSans-33" x="2033.496094"/>
     <use xlink:href="#DejaVuSans-34" x="2097.119141"/>
     <use xlink:href="#DejaVuSans-29" x="2160.742188"/>
    </g>
   </g>
   <g id="legend_1">
    <g id="patch_7">
     <path d="M 1289.5125 87.789875 
L 1386.592188 87.789875 
Q 1388.592188 87.789875 1388.592188 85.789875 
L 1388.592188 42.7555 
Q 1388.592188 40.7555 1386.592188 40.7555 
L 1289.5125 40.7555 
Q 1287.5125 40.7555 1287.5125 42.7555 
L 1287.5125 85.789875 
Q 1287.5125 87.789875 1289.5125 87.789875 
z
" style="fill: #ffffff; opacity: 0.8; stroke: #cccccc; stroke-linejoin: miter"/>
    </g>
    <g id="line2d_21">
     <path d="M 1291.5125 48.853937 
L 1301.5125 48.853937 
L 1311.5125 48.853937 
" style="fill: none; stroke: #0000ff; stroke-width: 1.5; stroke-linecap: square"/>
    </g>
    <g id="text_19">
     <!-- Actual Value -->
     <g transform="translate(1319.5125 52.353937)scale(0.1 -0.1)">
      <defs>
       <path id="DejaVuSans-75" d="M 544 1381 
L 544 3500 
L 1119 3500 
L 1119 1403 
Q 1119 906 1312 657 
Q 1506 409 1894 409 
Q 2359 409 2629 706 
Q 2900 1003 2900 1516 
L 2900 3500 
L 3475 3500 
L 3475 0 
L 2900 0 
L 2900 538 
Q 2691 219 2414 64 
Q 2138 -91 1772 -91 
Q 1169 -91 856 284 
Q 544 659 544 1381 
z
M 1991 3584 
L 1991 3584 
z
" transform="scale(0.015625)"/>
       <path id="DejaVuSans-56" d="M 1831 0 
L 50 4666 
L 709 4666 
L 2188 738 
L 3669 4666 
L 4325 4666 
L 2547 0 
L 1831 0 
z
" transform="scale(0.015625)"/>
      </defs>
      <use xlink:href="#DejaVuSans-41"/>
      <use xlink:href="#DejaVuSans-63" x="66.658203"/>
      <use xlink:href="#DejaVuSans-74" x="121.638672"/>
      <use xlink:href="#DejaVuSans-75" x="160.847656"/>
      <use xlink:href="#DejaVuSans-61" x="224.226562"/>
      <use xlink:href="#DejaVuSans-6c" x="285.505859"/>
      <use xlink:href="#DejaVuSans-20" x="313.289062"/>
      <use xlink:href="#DejaVuSans-56" x="345.076172"/>
      <use xlink:href="#DejaVuSans-61" x="405.734375"/>
      <use xlink:href="#DejaVuSans-6c" x="467.013672"/>
      <use xlink:href="#DejaVuSans-75" x="494.796875"/>
      <use xlink:href="#DejaVuSans-65" x="558.175781"/>
     </g>
    </g>
    <g id="line2d_22">
     <path d="M 1291.5125 63.532062 
L 1301.5125 63.532062 
L 1311.5125 63.532062 
" style="fill: none; stroke: #ffa500; stroke-width: 1.5; stroke-linecap: square"/>
    </g>
    <g id="text_20">
     <!-- Check Value -->
     <g transform="translate(1319.5125 67.032062)scale(0.1 -0.1)">
      <defs>
       <path id="DejaVuSans-68" d="M 3513 2113 
L 3513 0 
L 2938 0 
L 2938 2094 
Q 2938 2591 2744 2837 
Q 2550 3084 2163 3084 
Q 1697 3084 1428 2787 
Q 1159 2491 1159 1978 
L 1159 0 
L 581 0 
L 581 4863 
L 1159 4863 
L 1159 2956 
Q 1366 3272 1645 3428 
Q 1925 3584 2291 3584 
Q 2894 3584 3203 3211 
Q 3513 2838 3513 2113 
z
" transform="scale(0.015625)"/>
       <path id="DejaVuSans-6b" d="M 581 4863 
L 1159 4863 
L 1159 1991 
L 2875 3500 
L 3609 3500 
L 1753 1863 
L 3688 0 
L 2938 0 
L 1159 1709 
L 1159 0 
L 581 0 
L 581 4863 
z
" transform="scale(0.015625)"/>
      </defs>
      <use xlink:href="#DejaVuSans-43"/>
      <use xlink:href="#DejaVuSans-68" x="69.824219"/>
      <use xlink:href="#DejaVuSans-65" x="133.203125"/>
      <use xlink:href="#DejaVuSans-63" x="194.726562"/>
      <use xlink:href="#DejaVuSans-6b" x="249.707031"/>
      <use xlink:href="#DejaVuSans-20" x="307.617188"/>
      <use xlink:href="#DejaVuSans-56" x="339.404297"/>
      <use xlink:href="#DejaVuSans-61" x="400.0625"/>
      <use xlink:href="#DejaVuSans-6c" x="461.341797"/>
      <use xlink:href="#DejaVuSans-75" x="489.125"/>
      <use xlink:href="#DejaVuSans-65" x="552.503906"/>
     </g>
    </g>
    <g id="line2d_23">
     <path d="M 1291.5125 78.210187 
L 1301.5125 78.210187 
L 1311.5125 78.210187 
" style="fill: none; stroke: #ff0000; stroke-width: 1.5; stroke-linecap: square"/>
    </g>
    <g id="text_21">
     <!-- Predict Value -->
     <g transform="translate(1319.5125 81.710187)scale(0.1 -0.1)">
      <defs>
       <path id="DejaVuSans-50" d="M 1259 4147 
L 1259 2394 
L 2053 2394 
Q 2494 2394 2734 2622 
Q 2975 2850 2975 3272 
Q 2975 3691 2734 3919 
Q 2494 4147 2053 4147 
L 1259 4147 
z
M 628 4666 
L 2053 4666 
Q 2838 4666 3239 4311 
Q 3641 3956 3641 3272 
Q 3641 2581 3239 2228 
Q 2838 1875 2053 1875 
L 1259 1875 
L 1259 0 
L 628 0 
L 628 4666 
z
" transform="scale(0.015625)"/>
      </defs>
      <use xlink:href="#DejaVuSans-50"/>
      <use xlink:href="#DejaVuSans-72" x="58.552734"/>
      <use xlink:href="#DejaVuSans-65" x="97.416016"/>
      <use xlink:href="#DejaVuSans-64" x="158.939453"/>
      <use xlink:href="#DejaVuSans-69" x="222.416016"/>
      <use xlink:href="#DejaVuSans-63" x="250.199219"/>
      <use xlink:href="#DejaVuSans-74" x="305.179688"/>
      <use xlink:href="#DejaVuSans-20" x="344.388672"/>
      <use xlink:href="#DejaVuSans-56" x="376.175781"/>
      <use xlink:href="#DejaVuSans-61" x="436.833984"/>
      <use xlink:href="#DejaVuSans-6c" x="498.113281"/>
      <use xlink:href="#DejaVuSans-75" x="525.896484"/>
      <use xlink:href="#DejaVuSans-65" x="589.275391"/>
     </g>
    </g>
   </g>
  </g>
 </g>
 <defs>
  <clipPath id="p663e4881fd">
   <rect x="54.392188" y="35.7555" width="1339.2" height="332.64"/>
  </clipPath>
 </defs>
</svg>
