<?xml version="1.0" encoding="utf-8" standalone="no"?>
<!DOCTYPE svg PUBLIC "-//W3C//DTD SVG 1.1//EN"
  "http://www.w3.org/Graphics/SVG/1.1/DTD/svg11.dtd">
<svg xmlns:xlink="http://www.w3.org/1999/xlink" width="1386.05pt" height="392.273625pt" viewBox="0 0 1386.05 392.273625" xmlns="http://www.w3.org/2000/svg" version="1.1">
 <metadata>
  <rdf:RDF xmlns:dc="http://purl.org/dc/elements/1.1/" xmlns:cc="http://creativecommons.org/ns#" xmlns:rdf="http://www.w3.org/1999/02/22-rdf-syntax-ns#">
   <cc:Work>
    <dc:type rdf:resource="http://purl.org/dc/dcmitype/StillImage"/>
    <dc:date>2022-06-28T17:42:27.680781</dc:date>
    <dc:format>image/svg+xml</dc:format>
    <dc:creator>
     <cc:Agent>
      <dc:title>Matplotlib v3.5.2, https://matplotlib.org/</dc:title>
     </cc:Agent>
    </dc:creator>
   </cc:Work>
  </rdf:RDF>
 </metadata>
 <defs>
  <style type="text/css">*{stroke-linejoin: round; stroke-linecap: butt}</style>
 </defs>
 <g id="figure_1">
  <g id="patch_1">
   <path d="M 0 392.273625 
L 1386.05 392.273625 
L 1386.05 0 
L 0 0 
z
" style="fill: #ffffff"/>
  </g>
  <g id="axes_1">
   <g id="patch_2">
    <path d="M 39.65 368.3955 
L 1378.85 368.3955 
L 1378.85 35.7555 
L 39.65 35.7555 
z
" style="fill: #ffffff"/>
   </g>
   <g id="matplotlib.axis_1">
    <g id="xtick_1">
     <g id="line2d_1">
      <defs>
       <path id="mb11c5d13dc" d="M 0 0 
L 0 3.5 
" style="stroke: #000000; stroke-width: 0.8"/>
      </defs>
      <g>
       <use xlink:href="#mb11c5d13dc" x="70.729624" y="368.3955" style="stroke: #000000; stroke-width: 0.8"/>
      </g>
     </g>
     <g id="text_1">
      <!-- 2020-01 -->
      <g transform="translate(49.838218 382.993937)scale(0.1 -0.1)">
       <defs>
        <path id="DejaVuSans-32" d="M 1228 531 
L 3431 531 
L 3431 0 
L 469 0 
L 469 531 
Q 828 903 1448 1529 
Q 2069 2156 2228 2338 
Q 2531 2678 2651 2914 
Q 2772 3150 2772 3378 
Q 2772 3750 2511 3984 
Q 2250 4219 1831 4219 
Q 1534 4219 1204 4116 
Q 875 4013 500 3803 
L 500 4441 
Q 881 4594 1212 4672 
Q 1544 4750 1819 4750 
Q 2544 4750 2975 4387 
Q 3406 4025 3406 3419 
Q 3406 3131 3298 2873 
Q 3191 2616 2906 2266 
Q 2828 2175 2409 1742 
Q 1991 1309 1228 531 
z
" transform="scale(0.015625)"/>
        <path id="DejaVuSans-30" d="M 2034 4250 
Q 1547 4250 1301 3770 
Q 1056 3291 1056 2328 
Q 1056 1369 1301 889 
Q 1547 409 2034 409 
Q 2525 409 2770 889 
Q 3016 1369 3016 2328 
Q 3016 3291 2770 3770 
Q 2525 4250 2034 4250 
z
M 2034 4750 
Q 2819 4750 3233 4129 
Q 3647 3509 3647 2328 
Q 3647 1150 3233 529 
Q 2819 -91 2034 -91 
Q 1250 -91 836 529 
Q 422 1150 422 2328 
Q 422 3509 836 4129 
Q 1250 4750 2034 4750 
z
" transform="scale(0.015625)"/>
        <path id="DejaVuSans-2d" d="M 313 2009 
L 1997 2009 
L 1997 1497 
L 313 1497 
L 313 2009 
z
" transform="scale(0.015625)"/>
        <path id="DejaVuSans-31" d="M 794 531 
L 1825 531 
L 1825 4091 
L 703 3866 
L 703 4441 
L 1819 4666 
L 2450 4666 
L 2450 531 
L 3481 531 
L 3481 0 
L 794 0 
L 794 531 
z
" transform="scale(0.015625)"/>
       </defs>
       <use xlink:href="#DejaVuSans-32"/>
       <use xlink:href="#DejaVuSans-30" x="63.623047"/>
       <use xlink:href="#DejaVuSans-32" x="127.246094"/>
       <use xlink:href="#DejaVuSans-30" x="190.869141"/>
       <use xlink:href="#DejaVuSans-2d" x="254.492188"/>
       <use xlink:href="#DejaVuSans-30" x="290.576172"/>
       <use xlink:href="#DejaVuSans-31" x="354.199219"/>
      </g>
     </g>
    </g>
    <g id="xtick_2">
     <g id="line2d_2">
      <g>
       <use xlink:href="#mb11c5d13dc" x="193.964734" y="368.3955" style="stroke: #000000; stroke-width: 0.8"/>
      </g>
     </g>
     <g id="text_2">
      <!-- 2020-04 -->
      <g transform="translate(173.073327 382.993937)scale(0.1 -0.1)">
       <defs>
        <path id="DejaVuSans-34" d="M 2419 4116 
L 825 1625 
L 2419 1625 
L 2419 4116 
z
M 2253 4666 
L 3047 4666 
L 3047 1625 
L 3713 1625 
L 3713 1100 
L 3047 1100 
L 3047 0 
L 2419 0 
L 2419 1100 
L 313 1100 
L 313 1709 
L 2253 4666 
z
" transform="scale(0.015625)"/>
       </defs>
       <use xlink:href="#DejaVuSans-32"/>
       <use xlink:href="#DejaVuSans-30" x="63.623047"/>
       <use xlink:href="#DejaVuSans-32" x="127.246094"/>
       <use xlink:href="#DejaVuSans-30" x="190.869141"/>
       <use xlink:href="#DejaVuSans-2d" x="254.492188"/>
       <use xlink:href="#DejaVuSans-30" x="290.576172"/>
       <use xlink:href="#DejaVuSans-34" x="354.199219"/>
      </g>
     </g>
    </g>
    <g id="xtick_3">
     <g id="line2d_3">
      <g>
       <use xlink:href="#mb11c5d13dc" x="317.199843" y="368.3955" style="stroke: #000000; stroke-width: 0.8"/>
      </g>
     </g>
     <g id="text_3">
      <!-- 2020-07 -->
      <g transform="translate(296.308437 382.993937)scale(0.1 -0.1)">
       <defs>
        <path id="DejaVuSans-37" d="M 525 4666 
L 3525 4666 
L 3525 4397 
L 1831 0 
L 1172 0 
L 2766 4134 
L 525 4134 
L 525 4666 
z
" transform="scale(0.015625)"/>
       </defs>
       <use xlink:href="#DejaVuSans-32"/>
       <use xlink:href="#DejaVuSans-30" x="63.623047"/>
       <use xlink:href="#DejaVuSans-32" x="127.246094"/>
       <use xlink:href="#DejaVuSans-30" x="190.869141"/>
       <use xlink:href="#DejaVuSans-2d" x="254.492188"/>
       <use xlink:href="#DejaVuSans-30" x="290.576172"/>
       <use xlink:href="#DejaVuSans-37" x="354.199219"/>
      </g>
     </g>
    </g>
    <g id="xtick_4">
     <g id="line2d_4">
      <g>
       <use xlink:href="#mb11c5d13dc" x="441.789185" y="368.3955" style="stroke: #000000; stroke-width: 0.8"/>
      </g>
     </g>
     <g id="text_4">
      <!-- 2020-10 -->
      <g transform="translate(420.897779 382.993937)scale(0.1 -0.1)">
       <use xlink:href="#DejaVuSans-32"/>
       <use xlink:href="#DejaVuSans-30" x="63.623047"/>
       <use xlink:href="#DejaVuSans-32" x="127.246094"/>
       <use xlink:href="#DejaVuSans-30" x="190.869141"/>
       <use xlink:href="#DejaVuSans-2d" x="254.492188"/>
       <use xlink:href="#DejaVuSans-31" x="290.576172"/>
       <use xlink:href="#DejaVuSans-30" x="354.199219"/>
      </g>
     </g>
    </g>
    <g id="xtick_5">
     <g id="line2d_5">
      <g>
       <use xlink:href="#mb11c5d13dc" x="566.378527" y="368.3955" style="stroke: #000000; stroke-width: 0.8"/>
      </g>
     </g>
     <g id="text_5">
      <!-- 2021-01 -->
      <g transform="translate(545.48712 382.993937)scale(0.1 -0.1)">
       <use xlink:href="#DejaVuSans-32"/>
       <use xlink:href="#DejaVuSans-30" x="63.623047"/>
       <use xlink:href="#DejaVuSans-32" x="127.246094"/>
       <use xlink:href="#DejaVuSans-31" x="190.869141"/>
       <use xlink:href="#DejaVuSans-2d" x="254.492188"/>
       <use xlink:href="#DejaVuSans-30" x="290.576172"/>
       <use xlink:href="#DejaVuSans-31" x="354.199219"/>
      </g>
     </g>
    </g>
    <g id="xtick_6">
     <g id="line2d_6">
      <g>
       <use xlink:href="#mb11c5d13dc" x="688.259404" y="368.3955" style="stroke: #000000; stroke-width: 0.8"/>
      </g>
     </g>
     <g id="text_6">
      <!-- 2021-04 -->
      <g transform="translate(667.367998 382.993937)scale(0.1 -0.1)">
       <use xlink:href="#DejaVuSans-32"/>
       <use xlink:href="#DejaVuSans-30" x="63.623047"/>
       <use xlink:href="#DejaVuSans-32" x="127.246094"/>
       <use xlink:href="#DejaVuSans-31" x="190.869141"/>
       <use xlink:href="#DejaVuSans-2d" x="254.492188"/>
       <use xlink:href="#DejaVuSans-30" x="290.576172"/>
       <use xlink:href="#DejaVuSans-34" x="354.199219"/>
      </g>
     </g>
    </g>
    <g id="xtick_7">
     <g id="line2d_7">
      <g>
       <use xlink:href="#mb11c5d13dc" x="811.494514" y="368.3955" style="stroke: #000000; stroke-width: 0.8"/>
      </g>
     </g>
     <g id="text_7">
      <!-- 2021-07 -->
      <g transform="translate(790.603108 382.993937)scale(0.1 -0.1)">
       <use xlink:href="#DejaVuSans-32"/>
       <use xlink:href="#DejaVuSans-30" x="63.623047"/>
       <use xlink:href="#DejaVuSans-32" x="127.246094"/>
       <use xlink:href="#DejaVuSans-31" x="190.869141"/>
       <use xlink:href="#DejaVuSans-2d" x="254.492188"/>
       <use xlink:href="#DejaVuSans-30" x="290.576172"/>
       <use xlink:href="#DejaVuSans-37" x="354.199219"/>
      </g>
     </g>
    </g>
    <g id="xtick_8">
     <g id="line2d_8">
      <g>
       <use xlink:href="#mb11c5d13dc" x="936.083856" y="368.3955" style="stroke: #000000; stroke-width: 0.8"/>
      </g>
     </g>
     <g id="text_8">
      <!-- 2021-10 -->
      <g transform="translate(915.19245 382.993937)scale(0.1 -0.1)">
       <use xlink:href="#DejaVuSans-32"/>
       <use xlink:href="#DejaVuSans-30" x="63.623047"/>
       <use xlink:href="#DejaVuSans-32" x="127.246094"/>
       <use xlink:href="#DejaVuSans-31" x="190.869141"/>
       <use xlink:href="#DejaVuSans-2d" x="254.492188"/>
       <use xlink:href="#DejaVuSans-31" x="290.576172"/>
       <use xlink:href="#DejaVuSans-30" x="354.199219"/>
      </g>
     </g>
    </g>
    <g id="xtick_9">
     <g id="line2d_9">
      <g>
       <use xlink:href="#mb11c5d13dc" x="1060.673197" y="368.3955" style="stroke: #000000; stroke-width: 0.8"/>
      </g>
     </g>
     <g id="text_9">
      <!-- 2022-01 -->
      <g transform="translate(1039.781791 382.993937)scale(0.1 -0.1)">
       <use xlink:href="#DejaVuSans-32"/>
       <use xlink:href="#DejaVuSans-30" x="63.623047"/>
       <use xlink:href="#DejaVuSans-32" x="127.246094"/>
       <use xlink:href="#DejaVuSans-32" x="190.869141"/>
       <use xlink:href="#DejaVuSans-2d" x="254.492188"/>
       <use xlink:href="#DejaVuSans-30" x="290.576172"/>
       <use xlink:href="#DejaVuSans-31" x="354.199219"/>
      </g>
     </g>
    </g>
    <g id="xtick_10">
     <g id="line2d_10">
      <g>
       <use xlink:href="#mb11c5d13dc" x="1182.554075" y="368.3955" style="stroke: #000000; stroke-width: 0.8"/>
      </g>
     </g>
     <g id="text_10">
      <!-- 2022-04 -->
      <g transform="translate(1161.662669 382.993937)scale(0.1 -0.1)">
       <use xlink:href="#DejaVuSans-32"/>
       <use xlink:href="#DejaVuSans-30" x="63.623047"/>
       <use xlink:href="#DejaVuSans-32" x="127.246094"/>
       <use xlink:href="#DejaVuSans-32" x="190.869141"/>
       <use xlink:href="#DejaVuSans-2d" x="254.492188"/>
       <use xlink:href="#DejaVuSans-30" x="290.576172"/>
       <use xlink:href="#DejaVuSans-34" x="354.199219"/>
      </g>
     </g>
    </g>
    <g id="xtick_11">
     <g id="line2d_11">
      <g>
       <use xlink:href="#mb11c5d13dc" x="1305.789185" y="368.3955" style="stroke: #000000; stroke-width: 0.8"/>
      </g>
     </g>
     <g id="text_11">
      <!-- 2022-07 -->
      <g transform="translate(1284.897779 382.993937)scale(0.1 -0.1)">
       <use xlink:href="#DejaVuSans-32"/>
       <use xlink:href="#DejaVuSans-30" x="63.623047"/>
       <use xlink:href="#DejaVuSans-32" x="127.246094"/>
       <use xlink:href="#DejaVuSans-32" x="190.869141"/>
       <use xlink:href="#DejaVuSans-2d" x="254.492188"/>
       <use xlink:href="#DejaVuSans-30" x="290.576172"/>
       <use xlink:href="#DejaVuSans-37" x="354.199219"/>
      </g>
     </g>
    </g>
   </g>
   <g id="matplotlib.axis_2">
    <g id="ytick_1">
     <g id="line2d_12">
      <defs>
       <path id="m4cee339da2" d="M 0 0 
L -3.5 0 
" style="stroke: #000000; stroke-width: 0.8"/>
      </defs>
      <g>
       <use xlink:href="#m4cee339da2" x="39.65" y="346.44285" style="stroke: #000000; stroke-width: 0.8"/>
      </g>
     </g>
     <g id="text_12">
      <!-- 0 -->
      <g transform="translate(26.2875 350.242069)scale(0.1 -0.1)">
       <use xlink:href="#DejaVuSans-30"/>
      </g>
     </g>
    </g>
    <g id="ytick_2">
     <g id="line2d_13">
      <g>
       <use xlink:href="#m4cee339da2" x="39.65" y="278.869153" style="stroke: #000000; stroke-width: 0.8"/>
      </g>
     </g>
     <g id="text_13">
      <!-- 2000 -->
      <g transform="translate(7.2 282.668372)scale(0.1 -0.1)">
       <use xlink:href="#DejaVuSans-32"/>
       <use xlink:href="#DejaVuSans-30" x="63.623047"/>
       <use xlink:href="#DejaVuSans-30" x="127.246094"/>
       <use xlink:href="#DejaVuSans-30" x="190.869141"/>
      </g>
     </g>
    </g>
    <g id="ytick_3">
     <g id="line2d_14">
      <g>
       <use xlink:href="#m4cee339da2" x="39.65" y="211.295456" style="stroke: #000000; stroke-width: 0.8"/>
      </g>
     </g>
     <g id="text_14">
      <!-- 4000 -->
      <g transform="translate(7.2 215.094675)scale(0.1 -0.1)">
       <use xlink:href="#DejaVuSans-34"/>
       <use xlink:href="#DejaVuSans-30" x="63.623047"/>
       <use xlink:href="#DejaVuSans-30" x="127.246094"/>
       <use xlink:href="#DejaVuSans-30" x="190.869141"/>
      </g>
     </g>
    </g>
    <g id="ytick_4">
     <g id="line2d_15">
      <g>
       <use xlink:href="#m4cee339da2" x="39.65" y="143.72176" style="stroke: #000000; stroke-width: 0.8"/>
      </g>
     </g>
     <g id="text_15">
      <!-- 6000 -->
      <g transform="translate(7.2 147.520978)scale(0.1 -0.1)">
       <defs>
        <path id="DejaVuSans-36" d="M 2113 2584 
Q 1688 2584 1439 2293 
Q 1191 2003 1191 1497 
Q 1191 994 1439 701 
Q 1688 409 2113 409 
Q 2538 409 2786 701 
Q 3034 994 3034 1497 
Q 3034 2003 2786 2293 
Q 2538 2584 2113 2584 
z
M 3366 4563 
L 3366 3988 
Q 3128 4100 2886 4159 
Q 2644 4219 2406 4219 
Q 1781 4219 1451 3797 
Q 1122 3375 1075 2522 
Q 1259 2794 1537 2939 
Q 1816 3084 2150 3084 
Q 2853 3084 3261 2657 
Q 3669 2231 3669 1497 
Q 3669 778 3244 343 
Q 2819 -91 2113 -91 
Q 1303 -91 875 529 
Q 447 1150 447 2328 
Q 447 3434 972 4092 
Q 1497 4750 2381 4750 
Q 2619 4750 2861 4703 
Q 3103 4656 3366 4563 
z
" transform="scale(0.015625)"/>
       </defs>
       <use xlink:href="#DejaVuSans-36"/>
       <use xlink:href="#DejaVuSans-30" x="63.623047"/>
       <use xlink:href="#DejaVuSans-30" x="127.246094"/>
       <use xlink:href="#DejaVuSans-30" x="190.869141"/>
      </g>
     </g>
    </g>
    <g id="ytick_5">
     <g id="line2d_16">
      <g>
       <use xlink:href="#m4cee339da2" x="39.65" y="76.148063" style="stroke: #000000; stroke-width: 0.8"/>
      </g>
     </g>
     <g id="text_16">
      <!-- 8000 -->
      <g transform="translate(7.2 79.947281)scale(0.1 -0.1)">
       <defs>
        <path id="DejaVuSans-38" d="M 2034 2216 
Q 1584 2216 1326 1975 
Q 1069 1734 1069 1313 
Q 1069 891 1326 650 
Q 1584 409 2034 409 
Q 2484 409 2743 651 
Q 3003 894 3003 1313 
Q 3003 1734 2745 1975 
Q 2488 2216 2034 2216 
z
M 1403 2484 
Q 997 2584 770 2862 
Q 544 3141 544 3541 
Q 544 4100 942 4425 
Q 1341 4750 2034 4750 
Q 2731 4750 3128 4425 
Q 3525 4100 3525 3541 
Q 3525 3141 3298 2862 
Q 3072 2584 2669 2484 
Q 3125 2378 3379 2068 
Q 3634 1759 3634 1313 
Q 3634 634 3220 271 
Q 2806 -91 2034 -91 
Q 1263 -91 848 271 
Q 434 634 434 1313 
Q 434 1759 690 2068 
Q 947 2378 1403 2484 
z
M 1172 3481 
Q 1172 3119 1398 2916 
Q 1625 2713 2034 2713 
Q 2441 2713 2670 2916 
Q 2900 3119 2900 3481 
Q 2900 3844 2670 4047 
Q 2441 4250 2034 4250 
Q 1625 4250 1398 4047 
Q 1172 3844 1172 3481 
z
" transform="scale(0.015625)"/>
       </defs>
       <use xlink:href="#DejaVuSans-38"/>
       <use xlink:href="#DejaVuSans-30" x="63.623047"/>
       <use xlink:href="#DejaVuSans-30" x="127.246094"/>
       <use xlink:href="#DejaVuSans-30" x="190.869141"/>
      </g>
     </g>
    </g>
   </g>
   <g id="line2d_17">
    <path d="M 100.522727 346.44285 
L 164.17163 346.44285 
L 165.525862 346.172556 
L 166.880094 346.476637 
L 169.588558 346.44285 
L 179.068182 346.44285 
L 180.422414 346.206342 
L 181.776646 346.206342 
L 183.130878 346.375277 
L 184.48511 346.071195 
L 185.839342 346.273916 
L 187.193574 346.037408 
L 188.547806 346.104982 
L 189.902038 345.69954 
L 191.25627 346.071195 
L 192.610502 346.206342 
L 195.318966 345.226524 
L 196.673197 345.69954 
L 199.381661 345.496819 
L 200.735893 344.821082 
L 202.090125 345.361671 
L 203.444357 343.97641 
L 204.798589 344.618361 
L 206.152821 343.435821 
L 207.507053 343.402034 
L 208.861285 342.929018 
L 210.215517 341.780265 
L 211.569749 342.388429 
L 212.923981 340.361218 
L 214.278213 341.611331 
L 215.632445 343.064166 
L 216.986677 342.016773 
L 218.340909 343.300673 
L 219.695141 344.753508 
L 221.049373 344.077771 
L 222.403605 342.962805 
L 223.757837 343.131739 
L 225.112069 343.604755 
L 226.466301 342.827658 
L 227.820533 344.246705 
L 229.174765 345.361671 
L 230.528997 344.111558 
L 231.883229 344.415639 
L 233.237461 343.87505 
L 234.591693 343.87505 
L 235.945925 344.314279 
L 237.300157 344.990016 
L 238.654389 345.192737 
L 240.008621 344.652147 
L 241.362853 344.449426 
L 242.717085 342.185707 
L 244.071317 338.367794 
L 245.425549 338.063712 
L 246.779781 342.253281 
L 248.134013 343.165526 
L 249.488245 344.787295 
L 250.842476 344.111558 
L 252.196708 344.415639 
L 253.55094 343.2331 
L 254.905172 344.010197 
L 256.259404 345.496819 
L 257.613636 345.091376 
L 258.967868 344.483213 
L 260.3221 343.33446 
L 261.676332 346.44285 
L 263.030564 340.395004 
L 264.384796 342.793871 
L 265.739028 343.097952 
L 267.09326 345.665753 
L 268.447492 344.179132 
L 269.801724 344.517 
L 271.155956 343.638542 
L 272.510188 343.97641 
L 273.86442 343.266887 
L 275.218652 345.327884 
L 276.572884 345.05759 
L 277.927116 345.327884 
L 279.281348 343.2331 
L 280.63558 343.570968 
L 281.989812 345.429245 
L 283.344044 343.402034 
L 284.698276 344.043984 
L 286.052508 345.327884 
L 287.40674 344.685934 
L 288.760972 343.706116 
L 290.115204 344.381853 
L 292.823668 343.368247 
L 294.1779 344.246705 
L 295.532132 345.429245 
L 296.886364 345.15895 
L 298.240596 343.604755 
L 299.594828 344.449426 
L 300.94906 344.787295 
L 302.303292 344.179132 
L 303.657524 344.010197 
L 305.011755 345.463032 
L 306.365987 345.530605 
L 307.720219 344.212918 
L 310.428683 344.550787 
L 311.782915 343.368247 
L 313.137147 344.584574 
L 314.491379 345.260311 
L 317.199843 344.348066 
L 318.554075 344.179132 
L 319.908307 343.570968 
L 321.262539 344.753508 
L 322.616771 345.260311 
L 323.971003 345.023803 
L 325.325235 344.483213 
L 326.679467 343.773689 
L 328.033699 343.266887 
L 329.387931 344.246705 
L 330.742163 344.652147 
L 332.096395 344.922442 
L 333.450627 345.598179 
L 334.804859 344.821082 
L 336.159091 343.739902 
L 337.513323 345.023803 
L 338.867555 343.2331 
L 340.221787 343.97641 
L 341.576019 344.956229 
L 342.930251 345.192737 
L 344.284483 343.87505 
L 345.638715 344.483213 
L 346.992947 344.212918 
L 348.347179 344.517 
L 349.701411 342.895231 
L 351.055643 343.402034 
L 352.409875 344.787295 
L 353.764107 344.821082 
L 355.118339 341.40861 
L 356.472571 344.956229 
L 357.826803 343.773689 
L 359.181034 342.962805 
L 360.535266 343.469608 
L 361.889498 344.246705 
L 363.24373 344.449426 
L 364.597962 343.435821 
L 365.952194 342.895231 
L 367.306426 343.131739 
L 368.660658 342.861444 
L 370.01489 342.118134 
L 371.369122 344.483213 
L 372.723354 344.753508 
L 374.077586 342.996592 
L 375.431818 343.672329 
L 376.78605 342.151921 
L 378.140282 343.266887 
L 379.494514 341.172102 
L 380.848746 343.537181 
L 382.202978 343.706116 
L 383.55721 342.219494 
L 384.911442 342.219494 
L 386.265674 339.921989 
L 387.619906 337.962351 
L 388.974138 341.678905 
L 390.32837 341.40861 
L 391.682602 343.739902 
L 393.036834 344.212918 
L 394.391066 325.393644 
L 395.745298 335.529698 
L 397.09953 332.08344 
L 398.453762 333.603848 
L 399.807994 340.12471 
L 401.162226 338.334007 
L 402.516458 337.860991 
L 403.87069 335.158043 
L 405.224922 337.692057 
L 406.579154 336.543304 
L 407.933386 339.009744 
L 409.287618 339.989562 
L 410.64185 342.962805 
L 411.996082 340.76666 
L 413.350313 337.556909 
L 414.704545 336.881172 
L 416.058777 335.631059 
L 417.413009 339.651694 
L 418.767241 340.935594 
L 420.121473 339.921989 
L 422.829937 333.097045 
L 424.184169 333.299766 
L 425.538401 333.975503 
L 426.892633 337.928565 
L 428.246865 340.597726 
L 429.601097 335.631059 
L 430.955329 331.407703 
L 432.309561 330.79954 
L 433.663793 331.002261 
L 435.018025 326.880265 
L 436.372257 332.657816 
L 437.726489 339.786841 
L 439.080721 337.692057 
L 440.434953 333.198406 
L 441.789185 321.204075 
L 443.143417 333.401127 
L 444.497649 330.765753 
L 445.851881 331.846932 
L 447.206113 340.361218 
L 448.560345 337.050106 
L 449.914577 311.642396 
L 451.268809 328.366886 
L 452.623041 320.29183 
L 453.977273 321.710877 
L 455.331505 325.596365 
L 456.685737 334.245798 
L 458.039969 332.455095 
L 459.394201 316.845571 
L 460.748433 319.514732 
L 462.102665 319.64988 
L 463.456897 319.21065 
L 464.811129 324.211104 
L 466.165361 327.285707 
L 467.519592 325.461217 
L 468.873824 326.60997 
L 470.228056 313.568247 
L 471.582288 306.405435 
L 472.93652 314.717 
L 474.290752 310.561217 
L 475.644984 328.265526 
L 476.999216 313.027657 
L 478.353448 303.533553 
L 479.70768 312.656002 
L 481.061912 293.769154 
L 482.416144 298.026297 
L 483.770376 301.438768 
L 485.124608 328.670968 
L 486.47884 312.520854 
L 487.833072 314.784573 
L 489.187304 300.492736 
L 490.541536 296.16802 
L 491.895768 301.269834 
L 493.25 298.195231 
L 494.604232 315.798179 
L 495.958464 311.878904 
L 497.312696 300.425163 
L 498.666928 278.193416 
L 500.02116 292.012237 
L 501.375392 283.768246 
L 502.729624 305.932419 
L 504.083856 316.136047 
L 505.438088 312.453281 
L 506.79232 299.580492 
L 508.146552 310.257136 
L 509.500784 301.573916 
L 510.855016 307.790696 
L 512.209248 317.690242 
L 513.56348 319.987748 
L 514.917712 312.284347 
L 516.271944 303.094324 
L 517.626176 346.44285 
L 518.980408 274.206568 
L 520.334639 318.771421 
L 521.688871 319.379585 
L 523.043103 327.387068 
L 524.397335 331.306342 
L 525.751567 302.824029 
L 527.105799 307.756909 
L 528.460031 310.966659 
L 529.814263 315.831966 
L 531.168495 323.231285 
L 532.522727 329.245344 
L 533.876959 328.265526 
L 535.231191 313.162805 
L 536.585423 322.656909 
L 537.939655 314.514279 
L 539.293887 321.609517 
L 540.648119 325.123349 
L 542.002351 335.766206 
L 543.356583 334.786388 
L 544.710815 315.899539 
L 546.065047 326.373462 
L 547.419279 327.015412 
L 548.773511 327.387068 
L 550.127743 333.232193 
L 551.481975 334.718814 
L 552.836207 331.745571 
L 554.190439 328.502034 
L 555.544671 329.346705 
L 556.898903 346.44285 
L 558.253135 332.353735 
L 559.607367 332.015866 
L 560.961599 337.421762 
L 562.315831 329.515639 
L 563.670063 327.454642 
L 565.024295 331.44149 
L 566.378527 346.44285 
L 567.732759 323.974596 
L 569.086991 322.690696 
L 570.441223 342.69251 
L 571.795455 331.813145 
L 573.149687 325.900446 
L 574.503918 331.306342 
L 575.85815 331.306342 
L 577.212382 335.597272 
L 578.566614 332.353735 
L 579.920846 340.327431 
L 581.275078 338.198859 
L 582.62931 331.171195 
L 583.983542 335.732419 
L 585.337774 332.08344 
L 586.692006 334.921535 
L 588.046238 337.455549 
L 589.40047 342.557363 
L 590.754702 342.151921 
L 592.108934 337.083893 
L 593.463166 335.056682 
L 594.817398 335.766206 
L 596.17163 338.097499 
L 597.525862 340.192283 
L 598.880094 345.361671 
L 600.234326 339.685481 
L 601.588558 338.739449 
L 602.94279 340.12471 
L 604.297022 341.036955 
L 605.651254 342.557363 
L 607.005486 340.361218 
L 608.359718 344.246705 
L 609.71395 342.523576 
L 611.068182 339.415186 
L 612.422414 340.563939 
L 613.776646 342.016773 
L 615.130878 340.090923 
L 616.48511 343.165526 
L 617.839342 344.618361 
L 619.193574 342.320855 
L 620.547806 340.530152 
L 621.902038 337.01632 
L 624.610502 341.814052 
L 625.964734 342.726297 
L 627.318966 344.381853 
L 628.673197 339.111104 
L 630.027429 343.33446 
L 631.381661 340.158497 
L 632.735893 341.476184 
L 634.090125 341.476184 
L 635.444357 341.746478 
L 636.798589 345.429245 
L 638.152821 339.280038 
L 639.507053 337.590696 
L 640.861285 341.172102 
L 642.215517 341.611331 
L 643.569749 340.158497 
L 644.923981 341.915413 
L 646.278213 344.990016 
L 647.632445 340.293644 
L 648.986677 340.327431 
L 650.340909 338.604302 
L 651.695141 340.901807 
L 653.049373 341.40861 
L 654.403605 339.313825 
L 655.757837 346.206342 
L 657.112069 341.138315 
L 658.466301 339.381399 
L 659.820533 339.651694 
L 661.174765 340.22607 
L 662.528997 341.50997 
L 663.883229 342.05056 
L 665.237461 345.564392 
L 666.591693 341.645118 
L 667.945925 340.530152 
L 669.300157 338.435367 
L 670.654389 335.799993 
L 672.008621 339.516546 
L 673.362853 341.577544 
L 674.717085 342.895231 
L 676.071317 342.118134 
L 677.425549 337.320401 
L 678.779781 337.860991 
L 680.134013 339.381399 
L 681.488245 338.063712 
L 682.842476 340.935594 
L 684.196708 343.33446 
L 685.55094 341.070741 
L 686.905172 337.523122 
L 689.613636 339.786841 
L 690.967868 340.530152 
L 692.3221 346.44285 
L 693.676332 341.172102 
L 695.030564 340.935594 
L 696.384796 336.47573 
L 697.739028 338.94217 
L 699.09326 337.320401 
L 700.447492 338.40158 
L 701.801724 346.44285 
L 703.155956 340.12471 
L 704.510188 337.590696 
L 705.86442 338.840809 
L 708.572884 338.232646 
L 709.927116 339.685481 
L 711.281348 346.44285 
L 712.63558 341.9492 
L 713.989812 340.665299 
L 715.344044 341.138315 
L 716.698276 341.915413 
L 718.052508 339.719268 
L 719.40674 341.847839 
L 720.760972 346.44285 
L 722.115204 343.266887 
L 723.469436 341.442397 
L 724.823668 340.699086 
L 726.1779 341.915413 
L 727.532132 342.118134 
L 728.886364 346.44285 
L 730.240596 346.44285 
L 731.594828 343.570968 
L 732.94906 338.705662 
L 734.303292 343.097952 
L 735.657524 343.604755 
L 737.011755 343.87505 
L 738.365987 346.44285 
L 739.720219 346.44285 
L 741.074451 343.841263 
L 742.428683 342.219494 
L 743.782915 343.638542 
L 745.137147 343.706116 
L 746.491379 344.922442 
L 747.845611 346.44285 
L 749.199843 346.44285 
L 750.554075 345.023803 
L 751.908307 343.131739 
L 753.262539 345.15895 
L 754.616771 344.584574 
L 755.971003 345.294098 
L 757.325235 346.44285 
L 758.679467 346.44285 
L 760.033699 345.395458 
L 761.387931 343.706116 
L 762.742163 344.821082 
L 764.096395 345.294098 
L 765.450627 344.517 
L 766.804859 346.44285 
L 768.159091 346.44285 
L 769.513323 345.463032 
L 770.867555 346.44285 
L 772.221787 345.226524 
L 773.576019 345.936048 
L 774.930251 345.8009 
L 776.284483 346.44285 
L 777.638715 346.44285 
L 778.992947 346.037408 
L 780.347179 345.463032 
L 781.701411 346.037408 
L 783.055643 345.733327 
L 784.409875 346.172556 
L 785.764107 346.44285 
L 787.118339 345.868474 
L 788.472571 346.577998 
L 789.826803 345.733327 
L 791.181034 346.273916 
L 792.535266 346.071195 
L 793.889498 346.44285 
L 796.597962 346.44285 
L 799.306426 345.260311 
L 800.660658 345.598179 
L 802.01489 346.071195 
L 803.369122 345.969834 
L 804.723354 346.44285 
L 806.077586 346.44285 
L 807.431818 345.8009 
L 808.78605 346.071195 
L 810.140282 345.767113 
L 811.494514 345.631966 
L 812.848746 345.69954 
L 814.202978 346.44285 
L 818.265674 346.44285 
L 819.619906 344.415639 
L 820.974138 346.44285 
L 827.745298 346.44285 
L 829.09953 343.131739 
L 830.453762 345.969834 
L 831.807994 346.44285 
L 837.224922 346.44285 
L 838.579154 339.820628 
L 839.933386 346.44285 
L 846.704545 346.44285 
L 848.058777 337.489336 
L 849.413009 346.44285 
L 856.184169 346.44285 
L 857.538401 333.806569 
L 858.892633 346.44285 
L 865.663793 346.44285 
L 867.018025 317.419948 
L 868.372257 341.273463 
L 869.726489 341.780265 
L 871.080721 346.44285 
L 872.434953 346.44285 
L 873.789185 340.428791 
L 875.143417 333.097045 
L 876.497649 333.738995 
L 877.851881 336.47573 
L 879.206113 336.171648 
L 880.560345 346.44285 
L 881.914577 346.44285 
L 883.268809 335.326977 
L 884.623041 319.920174 
L 885.977273 331.069834 
L 887.331505 330.529245 
L 888.685737 331.610424 
L 890.039969 346.44285 
L 891.394201 346.44285 
L 892.748433 330.79954 
L 894.102665 311.980265 
L 895.456897 326.914052 
L 896.811129 328.366886 
L 898.165361 330.123803 
L 899.519592 346.44285 
L 902.228056 346.44285 
L 903.582288 331.137408 
L 904.93652 304.885027 
L 906.290752 325.528791 
L 907.644984 325.663939 
L 908.999216 346.44285 
L 910.353448 346.44285 
L 911.70768 328.603394 
L 913.061912 312.926297 
L 914.416144 327.25192 
L 915.770376 327.79251 
L 917.124608 328.062805 
L 918.47884 346.44285 
L 919.833072 346.44285 
L 921.187304 331.373916 
L 922.541536 321.474369 
L 923.895768 326.035594 
L 925.25 326.677544 
L 926.604232 330.563032 
L 927.958464 346.44285 
L 929.312696 346.44285 
L 930.666928 333.502487 
L 932.02116 319.007929 
L 933.375392 327.826297 
L 934.729624 330.495458 
L 936.083856 331.036047 
L 937.438088 346.44285 
L 938.79232 346.44285 
L 941.500784 320.93378 
L 942.855016 332.894324 
L 944.209248 330.427884 
L 945.56348 334.583667 
L 946.917712 346.44285 
L 949.626176 346.44285 
L 950.980408 331.948292 
L 952.334639 309.682759 
L 953.688871 334.921535 
L 955.043103 335.698633 
L 956.397335 346.44285 
L 960.460031 346.44285 
L 961.814263 293.80294 
L 963.168495 332.353735 
L 964.522727 335.056682 
L 965.876959 346.44285 
L 967.231191 346.44285 
L 968.585423 336.47573 
L 969.939655 322.183893 
L 971.293887 331.137408 
L 972.648119 335.901354 
L 974.002351 333.063258 
L 975.356583 346.44285 
L 976.710815 346.44285 
L 978.065047 332.82675 
L 979.419279 322.183893 
L 980.773511 328.873689 
L 982.127743 331.54285 
L 983.481975 331.880719 
L 984.836207 346.44285 
L 986.190439 346.44285 
L 987.544671 332.894324 
L 988.898903 317.014505 
L 990.253135 327.691149 
L 991.607367 346.44285 
L 992.961599 328.839902 
L 994.315831 346.44285 
L 995.670063 346.44285 
L 997.024295 321.271648 
L 998.378527 315.899539 
L 999.732759 330.157589 
L 1001.086991 330.022442 
L 1002.441223 332.421308 
L 1003.795455 346.44285 
L 1005.149687 346.44285 
L 1006.503918 332.421308 
L 1007.85815 314.987294 
L 1009.212382 327.15056 
L 1010.566614 346.44285 
L 1014.62931 346.44285 
L 1015.983542 327.015412 
L 1017.337774 301.134687 
L 1018.692006 314.81836 
L 1020.046238 325.663939 
L 1021.40047 329.143984 
L 1022.754702 346.44285 
L 1024.108934 346.44285 
L 1025.463166 329.819721 
L 1026.817398 311.777544 
L 1028.17163 325.258496 
L 1029.525862 333.468701 
L 1030.880094 331.306342 
L 1032.234326 346.44285 
L 1033.588558 346.44285 
L 1034.94279 335.124256 
L 1036.297022 322.21768 
L 1037.651254 331.44149 
L 1039.005486 329.110197 
L 1040.359718 332.995685 
L 1041.71395 346.44285 
L 1043.068182 346.44285 
L 1045.776646 320.697272 
L 1047.130878 330.698179 
L 1048.48511 331.982079 
L 1049.839342 346.44285 
L 1052.547806 346.44285 
L 1053.902038 329.245344 
L 1055.25627 303.702487 
L 1056.610502 314.548065 
L 1057.964734 319.10929 
L 1059.318966 346.44285 
L 1062.027429 346.44285 
L 1063.381661 320.122895 
L 1064.735893 243.494323 
L 1066.090125 270.287294 
L 1067.444357 272.68616 
L 1068.798589 280.761217 
L 1070.152821 346.44285 
L 1071.507053 346.44285 
L 1072.861285 289.579584 
L 1074.215517 207.578903 
L 1075.569749 254.948065 
L 1076.923981 259.137634 
L 1078.278213 257.211784 
L 1079.632445 346.44285 
L 1083.695141 346.44285 
L 1085.049373 50.8755 
L 1086.403605 259.002487 
L 1087.757837 272.68616 
L 1089.112069 346.44285 
L 1090.466301 346.44285 
L 1091.820533 282.687067 
L 1093.174765 250.859856 
L 1094.528997 295.492283 
L 1095.883229 300.56031 
L 1097.237461 307.756909 
L 1098.591693 346.44285 
L 1099.945925 346.44285 
L 1101.300157 311.642396 
L 1102.654389 287.113144 
L 1104.008621 320.460764 
L 1105.362853 321.67709 
L 1106.717085 327.218134 
L 1108.071317 346.44285 
L 1109.425549 346.44285 
L 1110.779781 326.373462 
L 1112.134013 328.029018 
L 1113.488245 323.907022 
L 1114.842476 346.44285 
L 1116.196708 323.50158 
L 1117.55094 346.44285 
L 1118.905172 346.44285 
L 1120.259404 336.881172 
L 1121.613636 331.813145 
L 1122.967868 337.962351 
L 1124.3221 333.198406 
L 1125.676332 316.811784 
L 1127.030564 346.44285 
L 1129.739028 346.44285 
L 1131.09326 341.205889 
L 1132.447492 332.08344 
L 1133.801724 342.624936 
L 1135.155956 341.9492 
L 1136.510188 346.44285 
L 1137.86442 346.44285 
L 1139.218652 343.2331 
L 1140.572884 340.563939 
L 1141.927116 343.87505 
L 1143.281348 343.435821 
L 1144.63558 344.584574 
L 1145.989812 346.44285 
L 1147.344044 346.44285 
L 1148.698276 343.908837 
L 1150.052508 343.706116 
L 1151.40674 344.043984 
L 1152.760972 344.787295 
L 1154.115204 344.753508 
L 1155.469436 346.44285 
L 1156.823668 346.44285 
L 1158.1779 344.888655 
L 1159.532132 344.179132 
L 1160.886364 345.260311 
L 1162.240596 344.854868 
L 1163.594828 344.821082 
L 1164.94906 346.44285 
L 1169.011755 346.44285 
L 1170.365987 342.726297 
L 1171.720219 346.44285 
L 1178.491379 346.44285 
L 1179.845611 341.239676 
L 1181.199843 346.44285 
L 1187.971003 346.44285 
L 1189.325235 341.814052 
L 1190.679467 346.44285 
L 1197.450627 346.44285 
L 1198.804859 342.253281 
L 1200.159091 346.44285 
L 1206.930251 346.44285 
L 1208.284483 340.86802 
L 1209.638715 346.44285 
L 1216.409875 346.44285 
L 1217.764107 337.083893 
L 1219.118339 346.44285 
L 1225.889498 346.44285 
L 1227.24373 333.840356 
L 1228.597962 346.44285 
L 1235.369122 346.44285 
L 1236.723354 331.238769 
L 1238.077586 346.44285 
L 1244.848746 346.44285 
L 1246.202978 330.394097 
L 1247.55721 346.44285 
L 1254.32837 346.44285 
L 1255.682602 326.373462 
L 1257.036834 346.44285 
L 1263.807994 346.44285 
L 1265.162226 324.380038 
L 1266.516458 346.44285 
L 1273.287618 346.44285 
L 1274.64185 313.703394 
L 1275.996082 346.44285 
L 1282.767241 346.44285 
L 1284.121473 313.602034 
L 1285.475705 346.44285 
L 1292.246865 346.44285 
L 1293.601097 313.63582 
L 1294.955329 346.44285 
L 1300.372257 346.44285 
L 1300.372257 346.44285 
" clip-path="url(#p91f4fb85a7)" style="fill: none; stroke: #0000ff; stroke-width: 1.5; stroke-linecap: square"/>
   </g>
   <g id="line2d_18">
    <path d="M 1060.673197 340.0097 
L 1062.027429 331.434864 
L 1063.381661 317.560595 
L 1064.735893 314.47222 
L 1066.090125 310.899851 
L 1067.444357 316.834904 
L 1068.798589 314.211264 
L 1070.152821 318.423277 
L 1071.507053 309.252032 
L 1072.861285 276.815418 
L 1074.215517 279.336447 
L 1075.569749 277.989674 
L 1076.923981 283.47673 
L 1078.278213 301.383336 
L 1079.632445 307.271697 
L 1080.986677 288.414103 
L 1082.340909 255.750868 
L 1083.695141 288.014321 
L 1085.049373 259.238307 
L 1086.403605 262.581229 
L 1087.757837 302.125816 
L 1089.112069 307.917151 
L 1090.466301 300.983035 
L 1091.820533 278.501806 
L 1093.174765 193.749609 
L 1094.528997 272.460559 
L 1095.883229 282.044942 
L 1097.237461 327.276318 
L 1098.591693 329.780994 
L 1099.945925 306.283521 
L 1101.300157 287.120585 
L 1102.654389 260.407191 
L 1104.008621 302.475145 
L 1105.362853 310.159498 
L 1106.717085 345.243983 
L 1108.071317 345.40065 
L 1109.425549 321.967196 
L 1110.779781 305.048173 
L 1112.134013 305.021209 
L 1113.488245 324.947165 
L 1114.842476 332.051671 
L 1116.196708 353.2755 
L 1117.55094 352.382612 
L 1118.905172 333.639475 
L 1120.259404 325.84154 
L 1121.613636 323.835655 
L 1122.967868 341.35993 
L 1124.3221 335.348837 
L 1125.676332 351.167508 
L 1127.030564 350.550091 
L 1128.384796 338.090052 
L 1129.739028 333.51153 
L 1131.09326 335.026259 
L 1132.447492 340.995941 
L 1133.801724 333.677179 
L 1135.155956 353.01969 
L 1136.510188 352.160231 
L 1137.86442 345.461176 
L 1139.218652 340.721412 
L 1140.572884 338.136231 
L 1141.927116 345.315393 
L 1143.281348 341.101306 
L 1144.63558 352.06086 
L 1145.989812 351.326701 
L 1147.344044 346.725588 
L 1148.698276 343.312071 
L 1150.052508 343.10648 
L 1151.40674 346.302626 
L 1152.760972 344.478574 
L 1154.115204 350.3323 
L 1155.469436 349.824028 
L 1156.823668 346.620969 
L 1158.1779 344.811726 
L 1159.532132 344.705127 
L 1160.886364 346.541664 
L 1162.240596 345.499108 
L 1163.594828 348.836649 
L 1164.94906 348.523828 
L 1166.303292 346.393298 
L 1167.657524 345.390395 
L 1170.365987 346.197122 
L 1171.720219 345.808402 
L 1173.074451 348.102705 
L 1174.428683 347.885796 
L 1175.782915 346.769457 
L 1177.137147 346.222911 
L 1178.491379 345.264056 
L 1179.845611 346.263571 
L 1181.199843 346.076927 
L 1182.554075 347.228635 
L 1183.908307 347.125949 
L 1185.262539 346.573553 
L 1186.616771 346.304952 
L 1187.971003 344.222219 
L 1189.325235 346.276746 
L 1190.679467 346.193588 
L 1192.033699 346.777204 
L 1193.387931 346.733511 
L 1194.742163 346.464341 
L 1196.096395 346.335978 
L 1197.450627 343.871003 
L 1198.804859 346.272557 
L 1200.159091 346.242465 
L 1201.513323 346.543722 
L 1202.867555 346.53054 
L 1205.576019 346.346121 
L 1206.930251 343.826755 
L 1208.284483 346.039014 
L 1209.638715 346.065657 
L 1210.992947 346.252259 
L 1215.055643 346.236273 
L 1216.409875 343.276733 
L 1217.764107 345.487385 
L 1224.535266 345.965448 
L 1225.889498 341.645125 
L 1227.24373 345.02458 
L 1232.660658 345.640088 
L 1234.01489 345.737196 
L 1235.369122 339.747514 
L 1236.723354 344.725813 
L 1240.78605 345.327215 
L 1243.494514 345.589624 
L 1244.848746 337.96714 
L 1246.202978 344.715635 
L 1250.265674 345.314323 
L 1252.974138 345.58495 
L 1254.32837 336.877383 
L 1255.682602 344.326485 
L 1259.745298 345.055569 
L 1262.453762 345.391935 
L 1263.807994 334.925271 
L 1265.162226 344.152256 
L 1269.224922 344.939561 
L 1271.933386 345.305528 
L 1273.287618 333.343494 
L 1274.64185 342.888109 
L 1277.350313 343.757354 
L 1280.058777 344.412928 
L 1281.413009 344.677956 
L 1282.767241 328.746788 
L 1284.121473 342.929738 
L 1286.829937 343.78837 
L 1289.538401 344.43659 
L 1290.892633 344.698647 
L 1292.246865 326.711195 
L 1293.601097 343.218022 
L 1296.309561 344.006011 
L 1299.018025 344.601176 
L 1300.372257 344.841785 
L 1300.372257 344.841785 
" clip-path="url(#p91f4fb85a7)" style="fill: none; stroke: #ffa500; stroke-width: 1.5; stroke-linecap: square"/>
   </g>
   <g id="line2d_19">
    <path d="M 1300.372257 344.841785 
L 1301.726489 325.611728 
L 1303.080721 344.84185 
L 1304.434953 344.841825 
L 1305.789185 344.841956 
L 1307.143417 344.841956 
L 1308.497649 344.841901 
L 1309.851881 344.347148 
L 1311.206113 328.805818 
L 1312.560345 344.3472 
L 1313.914577 344.34718 
L 1315.268809 344.347286 
L 1316.623041 344.347286 
L 1317.977273 344.347241 
" clip-path="url(#p91f4fb85a7)" style="fill: none; stroke: #ff0000; stroke-width: 1.5; stroke-linecap: square"/>
   </g>
   <g id="patch_3">
    <path d="M 39.65 368.3955 
L 39.65 35.7555 
" style="fill: none; stroke: #000000; stroke-width: 0.8; stroke-linejoin: miter; stroke-linecap: square"/>
   </g>
   <g id="patch_4">
    <path d="M 1378.85 368.3955 
L 1378.85 35.7555 
" style="fill: none; stroke: #000000; stroke-width: 0.8; stroke-linejoin: miter; stroke-linecap: square"/>
   </g>
   <g id="patch_5">
    <path d="M 39.65 368.3955 
L 1378.85 368.3955 
" style="fill: none; stroke: #000000; stroke-width: 0.8; stroke-linejoin: miter; stroke-linecap: square"/>
   </g>
   <g id="patch_6">
    <path d="M 39.65 35.7555 
L 1378.85 35.7555 
" style="fill: none; stroke: #000000; stroke-width: 0.8; stroke-linejoin: miter; stroke-linecap: square"/>
   </g>
   <g id="text_17">
    <!-- Daily Confirmed Cases Forecasting - South Dakota -->
    <g transform="translate(558.15125 16.318125)scale(0.12 -0.12)">
     <defs>
      <path id="DejaVuSans-44" d="M 1259 4147 
L 1259 519 
L 2022 519 
Q 2988 519 3436 956 
Q 3884 1394 3884 2338 
Q 3884 3275 3436 3711 
Q 2988 4147 2022 4147 
L 1259 4147 
z
M 628 4666 
L 1925 4666 
Q 3281 4666 3915 4102 
Q 4550 3538 4550 2338 
Q 4550 1131 3912 565 
Q 3275 0 1925 0 
L 628 0 
L 628 4666 
z
" transform="scale(0.015625)"/>
      <path id="DejaVuSans-61" d="M 2194 1759 
Q 1497 1759 1228 1600 
Q 959 1441 959 1056 
Q 959 750 1161 570 
Q 1363 391 1709 391 
Q 2188 391 2477 730 
Q 2766 1069 2766 1631 
L 2766 1759 
L 2194 1759 
z
M 3341 1997 
L 3341 0 
L 2766 0 
L 2766 531 
Q 2569 213 2275 61 
Q 1981 -91 1556 -91 
Q 1019 -91 701 211 
Q 384 513 384 1019 
Q 384 1609 779 1909 
Q 1175 2209 1959 2209 
L 2766 2209 
L 2766 2266 
Q 2766 2663 2505 2880 
Q 2244 3097 1772 3097 
Q 1472 3097 1187 3025 
Q 903 2953 641 2809 
L 641 3341 
Q 956 3463 1253 3523 
Q 1550 3584 1831 3584 
Q 2591 3584 2966 3190 
Q 3341 2797 3341 1997 
z
" transform="scale(0.015625)"/>
      <path id="DejaVuSans-69" d="M 603 3500 
L 1178 3500 
L 1178 0 
L 603 0 
L 603 3500 
z
M 603 4863 
L 1178 4863 
L 1178 4134 
L 603 4134 
L 603 4863 
z
" transform="scale(0.015625)"/>
      <path id="DejaVuSans-6c" d="M 603 4863 
L 1178 4863 
L 1178 0 
L 603 0 
L 603 4863 
z
" transform="scale(0.015625)"/>
      <path id="DejaVuSans-79" d="M 2059 -325 
Q 1816 -950 1584 -1140 
Q 1353 -1331 966 -1331 
L 506 -1331 
L 506 -850 
L 844 -850 
Q 1081 -850 1212 -737 
Q 1344 -625 1503 -206 
L 1606 56 
L 191 3500 
L 800 3500 
L 1894 763 
L 2988 3500 
L 3597 3500 
L 2059 -325 
z
" transform="scale(0.015625)"/>
      <path id="DejaVuSans-20" transform="scale(0.015625)"/>
      <path id="DejaVuSans-43" d="M 4122 4306 
L 4122 3641 
Q 3803 3938 3442 4084 
Q 3081 4231 2675 4231 
Q 1875 4231 1450 3742 
Q 1025 3253 1025 2328 
Q 1025 1406 1450 917 
Q 1875 428 2675 428 
Q 3081 428 3442 575 
Q 3803 722 4122 1019 
L 4122 359 
Q 3791 134 3420 21 
Q 3050 -91 2638 -91 
Q 1578 -91 968 557 
Q 359 1206 359 2328 
Q 359 3453 968 4101 
Q 1578 4750 2638 4750 
Q 3056 4750 3426 4639 
Q 3797 4528 4122 4306 
z
" transform="scale(0.015625)"/>
      <path id="DejaVuSans-6f" d="M 1959 3097 
Q 1497 3097 1228 2736 
Q 959 2375 959 1747 
Q 959 1119 1226 758 
Q 1494 397 1959 397 
Q 2419 397 2687 759 
Q 2956 1122 2956 1747 
Q 2956 2369 2687 2733 
Q 2419 3097 1959 3097 
z
M 1959 3584 
Q 2709 3584 3137 3096 
Q 3566 2609 3566 1747 
Q 3566 888 3137 398 
Q 2709 -91 1959 -91 
Q 1206 -91 779 398 
Q 353 888 353 1747 
Q 353 2609 779 3096 
Q 1206 3584 1959 3584 
z
" transform="scale(0.015625)"/>
      <path id="DejaVuSans-6e" d="M 3513 2113 
L 3513 0 
L 2938 0 
L 2938 2094 
Q 2938 2591 2744 2837 
Q 2550 3084 2163 3084 
Q 1697 3084 1428 2787 
Q 1159 2491 1159 1978 
L 1159 0 
L 581 0 
L 581 3500 
L 1159 3500 
L 1159 2956 
Q 1366 3272 1645 3428 
Q 1925 3584 2291 3584 
Q 2894 3584 3203 3211 
Q 3513 2838 3513 2113 
z
" transform="scale(0.015625)"/>
      <path id="DejaVuSans-66" d="M 2375 4863 
L 2375 4384 
L 1825 4384 
Q 1516 4384 1395 4259 
Q 1275 4134 1275 3809 
L 1275 3500 
L 2222 3500 
L 2222 3053 
L 1275 3053 
L 1275 0 
L 697 0 
L 697 3053 
L 147 3053 
L 147 3500 
L 697 3500 
L 697 3744 
Q 697 4328 969 4595 
Q 1241 4863 1831 4863 
L 2375 4863 
z
" transform="scale(0.015625)"/>
      <path id="DejaVuSans-72" d="M 2631 2963 
Q 2534 3019 2420 3045 
Q 2306 3072 2169 3072 
Q 1681 3072 1420 2755 
Q 1159 2438 1159 1844 
L 1159 0 
L 581 0 
L 581 3500 
L 1159 3500 
L 1159 2956 
Q 1341 3275 1631 3429 
Q 1922 3584 2338 3584 
Q 2397 3584 2469 3576 
Q 2541 3569 2628 3553 
L 2631 2963 
z
" transform="scale(0.015625)"/>
      <path id="DejaVuSans-6d" d="M 3328 2828 
Q 3544 3216 3844 3400 
Q 4144 3584 4550 3584 
Q 5097 3584 5394 3201 
Q 5691 2819 5691 2113 
L 5691 0 
L 5113 0 
L 5113 2094 
Q 5113 2597 4934 2840 
Q 4756 3084 4391 3084 
Q 3944 3084 3684 2787 
Q 3425 2491 3425 1978 
L 3425 0 
L 2847 0 
L 2847 2094 
Q 2847 2600 2669 2842 
Q 2491 3084 2119 3084 
Q 1678 3084 1418 2786 
Q 1159 2488 1159 1978 
L 1159 0 
L 581 0 
L 581 3500 
L 1159 3500 
L 1159 2956 
Q 1356 3278 1631 3431 
Q 1906 3584 2284 3584 
Q 2666 3584 2933 3390 
Q 3200 3197 3328 2828 
z
" transform="scale(0.015625)"/>
      <path id="DejaVuSans-65" d="M 3597 1894 
L 3597 1613 
L 953 1613 
Q 991 1019 1311 708 
Q 1631 397 2203 397 
Q 2534 397 2845 478 
Q 3156 559 3463 722 
L 3463 178 
Q 3153 47 2828 -22 
Q 2503 -91 2169 -91 
Q 1331 -91 842 396 
Q 353 884 353 1716 
Q 353 2575 817 3079 
Q 1281 3584 2069 3584 
Q 2775 3584 3186 3129 
Q 3597 2675 3597 1894 
z
M 3022 2063 
Q 3016 2534 2758 2815 
Q 2500 3097 2075 3097 
Q 1594 3097 1305 2825 
Q 1016 2553 972 2059 
L 3022 2063 
z
" transform="scale(0.015625)"/>
      <path id="DejaVuSans-64" d="M 2906 2969 
L 2906 4863 
L 3481 4863 
L 3481 0 
L 2906 0 
L 2906 525 
Q 2725 213 2448 61 
Q 2172 -91 1784 -91 
Q 1150 -91 751 415 
Q 353 922 353 1747 
Q 353 2572 751 3078 
Q 1150 3584 1784 3584 
Q 2172 3584 2448 3432 
Q 2725 3281 2906 2969 
z
M 947 1747 
Q 947 1113 1208 752 
Q 1469 391 1925 391 
Q 2381 391 2643 752 
Q 2906 1113 2906 1747 
Q 2906 2381 2643 2742 
Q 2381 3103 1925 3103 
Q 1469 3103 1208 2742 
Q 947 2381 947 1747 
z
" transform="scale(0.015625)"/>
      <path id="DejaVuSans-73" d="M 2834 3397 
L 2834 2853 
Q 2591 2978 2328 3040 
Q 2066 3103 1784 3103 
Q 1356 3103 1142 2972 
Q 928 2841 928 2578 
Q 928 2378 1081 2264 
Q 1234 2150 1697 2047 
L 1894 2003 
Q 2506 1872 2764 1633 
Q 3022 1394 3022 966 
Q 3022 478 2636 193 
Q 2250 -91 1575 -91 
Q 1294 -91 989 -36 
Q 684 19 347 128 
L 347 722 
Q 666 556 975 473 
Q 1284 391 1588 391 
Q 1994 391 2212 530 
Q 2431 669 2431 922 
Q 2431 1156 2273 1281 
Q 2116 1406 1581 1522 
L 1381 1569 
Q 847 1681 609 1914 
Q 372 2147 372 2553 
Q 372 3047 722 3315 
Q 1072 3584 1716 3584 
Q 2034 3584 2315 3537 
Q 2597 3491 2834 3397 
z
" transform="scale(0.015625)"/>
      <path id="DejaVuSans-46" d="M 628 4666 
L 3309 4666 
L 3309 4134 
L 1259 4134 
L 1259 2759 
L 3109 2759 
L 3109 2228 
L 1259 2228 
L 1259 0 
L 628 0 
L 628 4666 
z
" transform="scale(0.015625)"/>
      <path id="DejaVuSans-63" d="M 3122 3366 
L 3122 2828 
Q 2878 2963 2633 3030 
Q 2388 3097 2138 3097 
Q 1578 3097 1268 2742 
Q 959 2388 959 1747 
Q 959 1106 1268 751 
Q 1578 397 2138 397 
Q 2388 397 2633 464 
Q 2878 531 3122 666 
L 3122 134 
Q 2881 22 2623 -34 
Q 2366 -91 2075 -91 
Q 1284 -91 818 406 
Q 353 903 353 1747 
Q 353 2603 823 3093 
Q 1294 3584 2113 3584 
Q 2378 3584 2631 3529 
Q 2884 3475 3122 3366 
z
" transform="scale(0.015625)"/>
      <path id="DejaVuSans-74" d="M 1172 4494 
L 1172 3500 
L 2356 3500 
L 2356 3053 
L 1172 3053 
L 1172 1153 
Q 1172 725 1289 603 
Q 1406 481 1766 481 
L 2356 481 
L 2356 0 
L 1766 0 
Q 1100 0 847 248 
Q 594 497 594 1153 
L 594 3053 
L 172 3053 
L 172 3500 
L 594 3500 
L 594 4494 
L 1172 4494 
z
" transform="scale(0.015625)"/>
      <path id="DejaVuSans-67" d="M 2906 1791 
Q 2906 2416 2648 2759 
Q 2391 3103 1925 3103 
Q 1463 3103 1205 2759 
Q 947 2416 947 1791 
Q 947 1169 1205 825 
Q 1463 481 1925 481 
Q 2391 481 2648 825 
Q 2906 1169 2906 1791 
z
M 3481 434 
Q 3481 -459 3084 -895 
Q 2688 -1331 1869 -1331 
Q 1566 -1331 1297 -1286 
Q 1028 -1241 775 -1147 
L 775 -588 
Q 1028 -725 1275 -790 
Q 1522 -856 1778 -856 
Q 2344 -856 2625 -561 
Q 2906 -266 2906 331 
L 2906 616 
Q 2728 306 2450 153 
Q 2172 0 1784 0 
Q 1141 0 747 490 
Q 353 981 353 1791 
Q 353 2603 747 3093 
Q 1141 3584 1784 3584 
Q 2172 3584 2450 3431 
Q 2728 3278 2906 2969 
L 2906 3500 
L 3481 3500 
L 3481 434 
z
" transform="scale(0.015625)"/>
      <path id="DejaVuSans-53" d="M 3425 4513 
L 3425 3897 
Q 3066 4069 2747 4153 
Q 2428 4238 2131 4238 
Q 1616 4238 1336 4038 
Q 1056 3838 1056 3469 
Q 1056 3159 1242 3001 
Q 1428 2844 1947 2747 
L 2328 2669 
Q 3034 2534 3370 2195 
Q 3706 1856 3706 1288 
Q 3706 609 3251 259 
Q 2797 -91 1919 -91 
Q 1588 -91 1214 -16 
Q 841 59 441 206 
L 441 856 
Q 825 641 1194 531 
Q 1563 422 1919 422 
Q 2459 422 2753 634 
Q 3047 847 3047 1241 
Q 3047 1584 2836 1778 
Q 2625 1972 2144 2069 
L 1759 2144 
Q 1053 2284 737 2584 
Q 422 2884 422 3419 
Q 422 4038 858 4394 
Q 1294 4750 2059 4750 
Q 2388 4750 2728 4690 
Q 3069 4631 3425 4513 
z
" transform="scale(0.015625)"/>
      <path id="DejaVuSans-75" d="M 544 1381 
L 544 3500 
L 1119 3500 
L 1119 1403 
Q 1119 906 1312 657 
Q 1506 409 1894 409 
Q 2359 409 2629 706 
Q 2900 1003 2900 1516 
L 2900 3500 
L 3475 3500 
L 3475 0 
L 2900 0 
L 2900 538 
Q 2691 219 2414 64 
Q 2138 -91 1772 -91 
Q 1169 -91 856 284 
Q 544 659 544 1381 
z
M 1991 3584 
L 1991 3584 
z
" transform="scale(0.015625)"/>
      <path id="DejaVuSans-68" d="M 3513 2113 
L 3513 0 
L 2938 0 
L 2938 2094 
Q 2938 2591 2744 2837 
Q 2550 3084 2163 3084 
Q 1697 3084 1428 2787 
Q 1159 2491 1159 1978 
L 1159 0 
L 581 0 
L 581 4863 
L 1159 4863 
L 1159 2956 
Q 1366 3272 1645 3428 
Q 1925 3584 2291 3584 
Q 2894 3584 3203 3211 
Q 3513 2838 3513 2113 
z
" transform="scale(0.015625)"/>
      <path id="DejaVuSans-6b" d="M 581 4863 
L 1159 4863 
L 1159 1991 
L 2875 3500 
L 3609 3500 
L 1753 1863 
L 3688 0 
L 2938 0 
L 1159 1709 
L 1159 0 
L 581 0 
L 581 4863 
z
" transform="scale(0.015625)"/>
     </defs>
     <use xlink:href="#DejaVuSans-44"/>
     <use xlink:href="#DejaVuSans-61" x="77.001953"/>
     <use xlink:href="#DejaVuSans-69" x="138.28125"/>
     <use xlink:href="#DejaVuSans-6c" x="166.064453"/>
     <use xlink:href="#DejaVuSans-79" x="193.847656"/>
     <use xlink:href="#DejaVuSans-20" x="253.027344"/>
     <use xlink:href="#DejaVuSans-43" x="284.814453"/>
     <use xlink:href="#DejaVuSans-6f" x="354.638672"/>
     <use xlink:href="#DejaVuSans-6e" x="415.820312"/>
     <use xlink:href="#DejaVuSans-66" x="479.199219"/>
     <use xlink:href="#DejaVuSans-69" x="514.404297"/>
     <use xlink:href="#DejaVuSans-72" x="542.1875"/>
     <use xlink:href="#DejaVuSans-6d" x="581.550781"/>
     <use xlink:href="#DejaVuSans-65" x="678.962891"/>
     <use xlink:href="#DejaVuSans-64" x="740.486328"/>
     <use xlink:href="#DejaVuSans-20" x="803.962891"/>
     <use xlink:href="#DejaVuSans-43" x="835.75"/>
     <use xlink:href="#DejaVuSans-61" x="905.574219"/>
     <use xlink:href="#DejaVuSans-73" x="966.853516"/>
     <use xlink:href="#DejaVuSans-65" x="1018.953125"/>
     <use xlink:href="#DejaVuSans-73" x="1080.476562"/>
     <use xlink:href="#DejaVuSans-20" x="1132.576172"/>
     <use xlink:href="#DejaVuSans-46" x="1164.363281"/>
     <use xlink:href="#DejaVuSans-6f" x="1218.257812"/>
     <use xlink:href="#DejaVuSans-72" x="1279.439453"/>
     <use xlink:href="#DejaVuSans-65" x="1318.302734"/>
     <use xlink:href="#DejaVuSans-63" x="1379.826172"/>
     <use xlink:href="#DejaVuSans-61" x="1434.806641"/>
     <use xlink:href="#DejaVuSans-73" x="1496.085938"/>
     <use xlink:href="#DejaVuSans-74" x="1548.185547"/>
     <use xlink:href="#DejaVuSans-69" x="1587.394531"/>
     <use xlink:href="#DejaVuSans-6e" x="1615.177734"/>
     <use xlink:href="#DejaVuSans-67" x="1678.556641"/>
     <use xlink:href="#DejaVuSans-20" x="1742.033203"/>
     <use xlink:href="#DejaVuSans-2d" x="1773.820312"/>
     <use xlink:href="#DejaVuSans-20" x="1809.904297"/>
     <use xlink:href="#DejaVuSans-53" x="1841.691406"/>
     <use xlink:href="#DejaVuSans-6f" x="1905.167969"/>
     <use xlink:href="#DejaVuSans-75" x="1966.349609"/>
     <use xlink:href="#DejaVuSans-74" x="2029.728516"/>
     <use xlink:href="#DejaVuSans-68" x="2068.9375"/>
     <use xlink:href="#DejaVuSans-20" x="2132.316406"/>
     <use xlink:href="#DejaVuSans-44" x="2164.103516"/>
     <use xlink:href="#DejaVuSans-61" x="2241.105469"/>
     <use xlink:href="#DejaVuSans-6b" x="2302.384766"/>
     <use xlink:href="#DejaVuSans-6f" x="2356.669922"/>
     <use xlink:href="#DejaVuSans-74" x="2417.851562"/>
     <use xlink:href="#DejaVuSans-61" x="2457.060547"/>
    </g>
    <!-- ARIMA (0, 1, 1)x(1, 0, 1, 7) (R2 = 0.428331) -->
    <g transform="translate(577.265938 29.7555)scale(0.12 -0.12)">
     <defs>
      <path id="DejaVuSans-41" d="M 2188 4044 
L 1331 1722 
L 3047 1722 
L 2188 4044 
z
M 1831 4666 
L 2547 4666 
L 4325 0 
L 3669 0 
L 3244 1197 
L 1141 1197 
L 716 0 
L 50 0 
L 1831 4666 
z
" transform="scale(0.015625)"/>
      <path id="DejaVuSans-52" d="M 2841 2188 
Q 3044 2119 3236 1894 
Q 3428 1669 3622 1275 
L 4263 0 
L 3584 0 
L 2988 1197 
Q 2756 1666 2539 1819 
Q 2322 1972 1947 1972 
L 1259 1972 
L 1259 0 
L 628 0 
L 628 4666 
L 2053 4666 
Q 2853 4666 3247 4331 
Q 3641 3997 3641 3322 
Q 3641 2881 3436 2590 
Q 3231 2300 2841 2188 
z
M 1259 4147 
L 1259 2491 
L 2053 2491 
Q 2509 2491 2742 2702 
Q 2975 2913 2975 3322 
Q 2975 3731 2742 3939 
Q 2509 4147 2053 4147 
L 1259 4147 
z
" transform="scale(0.015625)"/>
      <path id="DejaVuSans-49" d="M 628 4666 
L 1259 4666 
L 1259 0 
L 628 0 
L 628 4666 
z
" transform="scale(0.015625)"/>
      <path id="DejaVuSans-4d" d="M 628 4666 
L 1569 4666 
L 2759 1491 
L 3956 4666 
L 4897 4666 
L 4897 0 
L 4281 0 
L 4281 4097 
L 3078 897 
L 2444 897 
L 1241 4097 
L 1241 0 
L 628 0 
L 628 4666 
z
" transform="scale(0.015625)"/>
      <path id="DejaVuSans-28" d="M 1984 4856 
Q 1566 4138 1362 3434 
Q 1159 2731 1159 2009 
Q 1159 1288 1364 580 
Q 1569 -128 1984 -844 
L 1484 -844 
Q 1016 -109 783 600 
Q 550 1309 550 2009 
Q 550 2706 781 3412 
Q 1013 4119 1484 4856 
L 1984 4856 
z
" transform="scale(0.015625)"/>
      <path id="DejaVuSans-2c" d="M 750 794 
L 1409 794 
L 1409 256 
L 897 -744 
L 494 -744 
L 750 256 
L 750 794 
z
" transform="scale(0.015625)"/>
      <path id="DejaVuSans-29" d="M 513 4856 
L 1013 4856 
Q 1481 4119 1714 3412 
Q 1947 2706 1947 2009 
Q 1947 1309 1714 600 
Q 1481 -109 1013 -844 
L 513 -844 
Q 928 -128 1133 580 
Q 1338 1288 1338 2009 
Q 1338 2731 1133 3434 
Q 928 4138 513 4856 
z
" transform="scale(0.015625)"/>
      <path id="DejaVuSans-78" d="M 3513 3500 
L 2247 1797 
L 3578 0 
L 2900 0 
L 1881 1375 
L 863 0 
L 184 0 
L 1544 1831 
L 300 3500 
L 978 3500 
L 1906 2253 
L 2834 3500 
L 3513 3500 
z
" transform="scale(0.015625)"/>
      <path id="DejaVuSans-3d" d="M 678 2906 
L 4684 2906 
L 4684 2381 
L 678 2381 
L 678 2906 
z
M 678 1631 
L 4684 1631 
L 4684 1100 
L 678 1100 
L 678 1631 
z
" transform="scale(0.015625)"/>
      <path id="DejaVuSans-2e" d="M 684 794 
L 1344 794 
L 1344 0 
L 684 0 
L 684 794 
z
" transform="scale(0.015625)"/>
      <path id="DejaVuSans-33" d="M 2597 2516 
Q 3050 2419 3304 2112 
Q 3559 1806 3559 1356 
Q 3559 666 3084 287 
Q 2609 -91 1734 -91 
Q 1441 -91 1130 -33 
Q 819 25 488 141 
L 488 750 
Q 750 597 1062 519 
Q 1375 441 1716 441 
Q 2309 441 2620 675 
Q 2931 909 2931 1356 
Q 2931 1769 2642 2001 
Q 2353 2234 1838 2234 
L 1294 2234 
L 1294 2753 
L 1863 2753 
Q 2328 2753 2575 2939 
Q 2822 3125 2822 3475 
Q 2822 3834 2567 4026 
Q 2313 4219 1838 4219 
Q 1578 4219 1281 4162 
Q 984 4106 628 3988 
L 628 4550 
Q 988 4650 1302 4700 
Q 1616 4750 1894 4750 
Q 2613 4750 3031 4423 
Q 3450 4097 3450 3541 
Q 3450 3153 3228 2886 
Q 3006 2619 2597 2516 
z
" transform="scale(0.015625)"/>
     </defs>
     <use xlink:href="#DejaVuSans-41"/>
     <use xlink:href="#DejaVuSans-52" x="68.408203"/>
     <use xlink:href="#DejaVuSans-49" x="137.890625"/>
     <use xlink:href="#DejaVuSans-4d" x="167.382812"/>
     <use xlink:href="#DejaVuSans-41" x="253.662109"/>
     <use xlink:href="#DejaVuSans-20" x="322.070312"/>
     <use xlink:href="#DejaVuSans-28" x="353.857422"/>
     <use xlink:href="#DejaVuSans-30" x="392.871094"/>
     <use xlink:href="#DejaVuSans-2c" x="456.494141"/>
     <use xlink:href="#DejaVuSans-20" x="488.28125"/>
     <use xlink:href="#DejaVuSans-31" x="520.068359"/>
     <use xlink:href="#DejaVuSans-2c" x="583.691406"/>
     <use xlink:href="#DejaVuSans-20" x="615.478516"/>
     <use xlink:href="#DejaVuSans-31" x="647.265625"/>
     <use xlink:href="#DejaVuSans-29" x="710.888672"/>
     <use xlink:href="#DejaVuSans-78" x="749.902344"/>
     <use xlink:href="#DejaVuSans-28" x="809.082031"/>
     <use xlink:href="#DejaVuSans-31" x="848.095703"/>
     <use xlink:href="#DejaVuSans-2c" x="911.71875"/>
     <use xlink:href="#DejaVuSans-20" x="943.505859"/>
     <use xlink:href="#DejaVuSans-30" x="975.292969"/>
     <use xlink:href="#DejaVuSans-2c" x="1038.916016"/>
     <use xlink:href="#DejaVuSans-20" x="1070.703125"/>
     <use xlink:href="#DejaVuSans-31" x="1102.490234"/>
     <use xlink:href="#DejaVuSans-2c" x="1166.113281"/>
     <use xlink:href="#DejaVuSans-20" x="1197.900391"/>
     <use xlink:href="#DejaVuSans-37" x="1229.6875"/>
     <use xlink:href="#DejaVuSans-29" x="1293.310547"/>
     <use xlink:href="#DejaVuSans-20" x="1332.324219"/>
     <use xlink:href="#DejaVuSans-28" x="1364.111328"/>
     <use xlink:href="#DejaVuSans-52" x="1403.125"/>
     <use xlink:href="#DejaVuSans-32" x="1472.607422"/>
     <use xlink:href="#DejaVuSans-20" x="1536.230469"/>
     <use xlink:href="#DejaVuSans-3d" x="1568.017578"/>
     <use xlink:href="#DejaVuSans-20" x="1651.806641"/>
     <use xlink:href="#DejaVuSans-30" x="1683.59375"/>
     <use xlink:href="#DejaVuSans-2e" x="1747.216797"/>
     <use xlink:href="#DejaVuSans-34" x="1779.003906"/>
     <use xlink:href="#DejaVuSans-32" x="1842.626953"/>
     <use xlink:href="#DejaVuSans-38" x="1906.25"/>
     <use xlink:href="#DejaVuSans-33" x="1969.873047"/>
     <use xlink:href="#DejaVuSans-33" x="2033.496094"/>
     <use xlink:href="#DejaVuSans-31" x="2097.119141"/>
     <use xlink:href="#DejaVuSans-29" x="2160.742188"/>
    </g>
   </g>
   <g id="legend_1">
    <g id="patch_7">
     <path d="M 1274.770313 87.789875 
L 1371.85 87.789875 
Q 1373.85 87.789875 1373.85 85.789875 
L 1373.85 42.7555 
Q 1373.85 40.7555 1371.85 40.7555 
L 1274.770313 40.7555 
Q 1272.770313 40.7555 1272.770313 42.7555 
L 1272.770313 85.789875 
Q 1272.770313 87.789875 1274.770313 87.789875 
z
" style="fill: #ffffff; opacity: 0.8; stroke: #cccccc; stroke-linejoin: miter"/>
    </g>
    <g id="line2d_20">
     <path d="M 1276.770313 48.853937 
L 1286.770313 48.853937 
L 1296.770313 48.853937 
" style="fill: none; stroke: #0000ff; stroke-width: 1.5; stroke-linecap: square"/>
    </g>
    <g id="text_18">
     <!-- Actual Value -->
     <g transform="translate(1304.770313 52.353937)scale(0.1 -0.1)">
      <defs>
       <path id="DejaVuSans-56" d="M 1831 0 
L 50 4666 
L 709 4666 
L 2188 738 
L 3669 4666 
L 4325 4666 
L 2547 0 
L 1831 0 
z
" transform="scale(0.015625)"/>
      </defs>
      <use xlink:href="#DejaVuSans-41"/>
      <use xlink:href="#DejaVuSans-63" x="66.658203"/>
      <use xlink:href="#DejaVuSans-74" x="121.638672"/>
      <use xlink:href="#DejaVuSans-75" x="160.847656"/>
      <use xlink:href="#DejaVuSans-61" x="224.226562"/>
      <use xlink:href="#DejaVuSans-6c" x="285.505859"/>
      <use xlink:href="#DejaVuSans-20" x="313.289062"/>
      <use xlink:href="#DejaVuSans-56" x="345.076172"/>
      <use xlink:href="#DejaVuSans-61" x="405.734375"/>
      <use xlink:href="#DejaVuSans-6c" x="467.013672"/>
      <use xlink:href="#DejaVuSans-75" x="494.796875"/>
      <use xlink:href="#DejaVuSans-65" x="558.175781"/>
     </g>
    </g>
    <g id="line2d_21">
     <path d="M 1276.770313 63.532062 
L 1286.770313 63.532062 
L 1296.770313 63.532062 
" style="fill: none; stroke: #ffa500; stroke-width: 1.5; stroke-linecap: square"/>
    </g>
    <g id="text_19">
     <!-- Check Value -->
     <g transform="translate(1304.770313 67.032062)scale(0.1 -0.1)">
      <use xlink:href="#DejaVuSans-43"/>
      <use xlink:href="#DejaVuSans-68" x="69.824219"/>
      <use xlink:href="#DejaVuSans-65" x="133.203125"/>
      <use xlink:href="#DejaVuSans-63" x="194.726562"/>
      <use xlink:href="#DejaVuSans-6b" x="249.707031"/>
      <use xlink:href="#DejaVuSans-20" x="307.617188"/>
      <use xlink:href="#DejaVuSans-56" x="339.404297"/>
      <use xlink:href="#DejaVuSans-61" x="400.0625"/>
      <use xlink:href="#DejaVuSans-6c" x="461.341797"/>
      <use xlink:href="#DejaVuSans-75" x="489.125"/>
      <use xlink:href="#DejaVuSans-65" x="552.503906"/>
     </g>
    </g>
    <g id="line2d_22">
     <path d="M 1276.770313 78.210187 
L 1286.770313 78.210187 
L 1296.770313 78.210187 
" style="fill: none; stroke: #ff0000; stroke-width: 1.5; stroke-linecap: square"/>
    </g>
    <g id="text_20">
     <!-- Predict Value -->
     <g transform="translate(1304.770313 81.710187)scale(0.1 -0.1)">
      <defs>
       <path id="DejaVuSans-50" d="M 1259 4147 
L 1259 2394 
L 2053 2394 
Q 2494 2394 2734 2622 
Q 2975 2850 2975 3272 
Q 2975 3691 2734 3919 
Q 2494 4147 2053 4147 
L 1259 4147 
z
M 628 4666 
L 2053 4666 
Q 2838 4666 3239 4311 
Q 3641 3956 3641 3272 
Q 3641 2581 3239 2228 
Q 2838 1875 2053 1875 
L 1259 1875 
L 1259 0 
L 628 0 
L 628 4666 
z
" transform="scale(0.015625)"/>
      </defs>
      <use xlink:href="#DejaVuSans-50"/>
      <use xlink:href="#DejaVuSans-72" x="58.552734"/>
      <use xlink:href="#DejaVuSans-65" x="97.416016"/>
      <use xlink:href="#DejaVuSans-64" x="158.939453"/>
      <use xlink:href="#DejaVuSans-69" x="222.416016"/>
      <use xlink:href="#DejaVuSans-63" x="250.199219"/>
      <use xlink:href="#DejaVuSans-74" x="305.179688"/>
      <use xlink:href="#DejaVuSans-20" x="344.388672"/>
      <use xlink:href="#DejaVuSans-56" x="376.175781"/>
      <use xlink:href="#DejaVuSans-61" x="436.833984"/>
      <use xlink:href="#DejaVuSans-6c" x="498.113281"/>
      <use xlink:href="#DejaVuSans-75" x="525.896484"/>
      <use xlink:href="#DejaVuSans-65" x="589.275391"/>
     </g>
    </g>
   </g>
  </g>
 </g>
 <defs>
  <clipPath id="p91f4fb85a7">
   <rect x="39.65" y="35.7555" width="1339.2" height="332.64"/>
  </clipPath>
 </defs>
</svg>
