<?xml version="1.0" encoding="utf-8" standalone="no"?>
<!DOCTYPE svg PUBLIC "-//W3C//DTD SVG 1.1//EN"
  "http://www.w3.org/Graphics/SVG/1.1/DTD/svg11.dtd">
<svg xmlns:xlink="http://www.w3.org/1999/xlink" width="1386.05pt" height="392.273625pt" viewBox="0 0 1386.05 392.273625" xmlns="http://www.w3.org/2000/svg" version="1.1">
 <metadata>
  <rdf:RDF xmlns:dc="http://purl.org/dc/elements/1.1/" xmlns:cc="http://creativecommons.org/ns#" xmlns:rdf="http://www.w3.org/1999/02/22-rdf-syntax-ns#">
   <cc:Work>
    <dc:type rdf:resource="http://purl.org/dc/dcmitype/StillImage"/>
    <dc:date>2022-07-03T17:35:54.340398</dc:date>
    <dc:format>image/svg+xml</dc:format>
    <dc:creator>
     <cc:Agent>
      <dc:title>Matplotlib v3.5.2, https://matplotlib.org/</dc:title>
     </cc:Agent>
    </dc:creator>
   </cc:Work>
  </rdf:RDF>
 </metadata>
 <defs>
  <style type="text/css">*{stroke-linejoin: round; stroke-linecap: butt}</style>
 </defs>
 <g id="figure_1">
  <g id="patch_1">
   <path d="M 0 392.273625 
L 1386.05 392.273625 
L 1386.05 0 
L 0 0 
z
" style="fill: #ffffff"/>
  </g>
  <g id="axes_1">
   <g id="patch_2">
    <path d="M 39.65 368.3955 
L 1378.85 368.3955 
L 1378.85 35.7555 
L 39.65 35.7555 
z
" style="fill: #ffffff"/>
   </g>
   <g id="matplotlib.axis_1">
    <g id="xtick_1">
     <g id="line2d_1">
      <defs>
       <path id="mf419ebc7be" d="M 0 0 
L 0 3.5 
" style="stroke: #000000; stroke-width: 0.8"/>
      </defs>
      <g>
       <use xlink:href="#mf419ebc7be" x="70.894409" y="368.3955" style="stroke: #000000; stroke-width: 0.8"/>
      </g>
     </g>
     <g id="text_1">
      <!-- 2020-01 -->
      <g transform="translate(50.003002 382.993937)scale(0.1 -0.1)">
       <defs>
        <path id="DejaVuSans-32" d="M 1228 531 
L 3431 531 
L 3431 0 
L 469 0 
L 469 531 
Q 828 903 1448 1529 
Q 2069 2156 2228 2338 
Q 2531 2678 2651 2914 
Q 2772 3150 2772 3378 
Q 2772 3750 2511 3984 
Q 2250 4219 1831 4219 
Q 1534 4219 1204 4116 
Q 875 4013 500 3803 
L 500 4441 
Q 881 4594 1212 4672 
Q 1544 4750 1819 4750 
Q 2544 4750 2975 4387 
Q 3406 4025 3406 3419 
Q 3406 3131 3298 2873 
Q 3191 2616 2906 2266 
Q 2828 2175 2409 1742 
Q 1991 1309 1228 531 
z
" transform="scale(0.015625)"/>
        <path id="DejaVuSans-30" d="M 2034 4250 
Q 1547 4250 1301 3770 
Q 1056 3291 1056 2328 
Q 1056 1369 1301 889 
Q 1547 409 2034 409 
Q 2525 409 2770 889 
Q 3016 1369 3016 2328 
Q 3016 3291 2770 3770 
Q 2525 4250 2034 4250 
z
M 2034 4750 
Q 2819 4750 3233 4129 
Q 3647 3509 3647 2328 
Q 3647 1150 3233 529 
Q 2819 -91 2034 -91 
Q 1250 -91 836 529 
Q 422 1150 422 2328 
Q 422 3509 836 4129 
Q 1250 4750 2034 4750 
z
" transform="scale(0.015625)"/>
        <path id="DejaVuSans-2d" d="M 313 2009 
L 1997 2009 
L 1997 1497 
L 313 1497 
L 313 2009 
z
" transform="scale(0.015625)"/>
        <path id="DejaVuSans-31" d="M 794 531 
L 1825 531 
L 1825 4091 
L 703 3866 
L 703 4441 
L 1819 4666 
L 2450 4666 
L 2450 531 
L 3481 531 
L 3481 0 
L 794 0 
L 794 531 
z
" transform="scale(0.015625)"/>
       </defs>
       <use xlink:href="#DejaVuSans-32"/>
       <use xlink:href="#DejaVuSans-30" x="63.623047"/>
       <use xlink:href="#DejaVuSans-32" x="127.246094"/>
       <use xlink:href="#DejaVuSans-30" x="190.869141"/>
       <use xlink:href="#DejaVuSans-2d" x="254.492188"/>
       <use xlink:href="#DejaVuSans-30" x="290.576172"/>
       <use xlink:href="#DejaVuSans-31" x="354.199219"/>
      </g>
     </g>
    </g>
    <g id="xtick_2">
     <g id="line2d_2">
      <g>
       <use xlink:href="#mf419ebc7be" x="193.447908" y="368.3955" style="stroke: #000000; stroke-width: 0.8"/>
      </g>
     </g>
     <g id="text_2">
      <!-- 2020-04 -->
      <g transform="translate(172.556502 382.993937)scale(0.1 -0.1)">
       <defs>
        <path id="DejaVuSans-34" d="M 2419 4116 
L 825 1625 
L 2419 1625 
L 2419 4116 
z
M 2253 4666 
L 3047 4666 
L 3047 1625 
L 3713 1625 
L 3713 1100 
L 3047 1100 
L 3047 0 
L 2419 0 
L 2419 1100 
L 313 1100 
L 313 1709 
L 2253 4666 
z
" transform="scale(0.015625)"/>
       </defs>
       <use xlink:href="#DejaVuSans-32"/>
       <use xlink:href="#DejaVuSans-30" x="63.623047"/>
       <use xlink:href="#DejaVuSans-32" x="127.246094"/>
       <use xlink:href="#DejaVuSans-30" x="190.869141"/>
       <use xlink:href="#DejaVuSans-2d" x="254.492188"/>
       <use xlink:href="#DejaVuSans-30" x="290.576172"/>
       <use xlink:href="#DejaVuSans-34" x="354.199219"/>
      </g>
     </g>
    </g>
    <g id="xtick_3">
     <g id="line2d_3">
      <g>
       <use xlink:href="#mf419ebc7be" x="316.001408" y="368.3955" style="stroke: #000000; stroke-width: 0.8"/>
      </g>
     </g>
     <g id="text_3">
      <!-- 2020-07 -->
      <g transform="translate(295.110002 382.993937)scale(0.1 -0.1)">
       <defs>
        <path id="DejaVuSans-37" d="M 525 4666 
L 3525 4666 
L 3525 4397 
L 1831 0 
L 1172 0 
L 2766 4134 
L 525 4134 
L 525 4666 
z
" transform="scale(0.015625)"/>
       </defs>
       <use xlink:href="#DejaVuSans-32"/>
       <use xlink:href="#DejaVuSans-30" x="63.623047"/>
       <use xlink:href="#DejaVuSans-32" x="127.246094"/>
       <use xlink:href="#DejaVuSans-30" x="190.869141"/>
       <use xlink:href="#DejaVuSans-2d" x="254.492188"/>
       <use xlink:href="#DejaVuSans-30" x="290.576172"/>
       <use xlink:href="#DejaVuSans-37" x="354.199219"/>
      </g>
     </g>
    </g>
    <g id="xtick_4">
     <g id="line2d_4">
      <g>
       <use xlink:href="#mf419ebc7be" x="439.901649" y="368.3955" style="stroke: #000000; stroke-width: 0.8"/>
      </g>
     </g>
     <g id="text_4">
      <!-- 2020-10 -->
      <g transform="translate(419.010243 382.993937)scale(0.1 -0.1)">
       <use xlink:href="#DejaVuSans-32"/>
       <use xlink:href="#DejaVuSans-30" x="63.623047"/>
       <use xlink:href="#DejaVuSans-32" x="127.246094"/>
       <use xlink:href="#DejaVuSans-30" x="190.869141"/>
       <use xlink:href="#DejaVuSans-2d" x="254.492188"/>
       <use xlink:href="#DejaVuSans-31" x="290.576172"/>
       <use xlink:href="#DejaVuSans-30" x="354.199219"/>
      </g>
     </g>
    </g>
    <g id="xtick_5">
     <g id="line2d_5">
      <g>
       <use xlink:href="#mf419ebc7be" x="563.801891" y="368.3955" style="stroke: #000000; stroke-width: 0.8"/>
      </g>
     </g>
     <g id="text_5">
      <!-- 2021-01 -->
      <g transform="translate(542.910484 382.993937)scale(0.1 -0.1)">
       <use xlink:href="#DejaVuSans-32"/>
       <use xlink:href="#DejaVuSans-30" x="63.623047"/>
       <use xlink:href="#DejaVuSans-32" x="127.246094"/>
       <use xlink:href="#DejaVuSans-31" x="190.869141"/>
       <use xlink:href="#DejaVuSans-2d" x="254.492188"/>
       <use xlink:href="#DejaVuSans-30" x="290.576172"/>
       <use xlink:href="#DejaVuSans-31" x="354.199219"/>
      </g>
     </g>
    </g>
    <g id="xtick_6">
     <g id="line2d_6">
      <g>
       <use xlink:href="#mf419ebc7be" x="685.008648" y="368.3955" style="stroke: #000000; stroke-width: 0.8"/>
      </g>
     </g>
     <g id="text_6">
      <!-- 2021-04 -->
      <g transform="translate(664.117242 382.993937)scale(0.1 -0.1)">
       <use xlink:href="#DejaVuSans-32"/>
       <use xlink:href="#DejaVuSans-30" x="63.623047"/>
       <use xlink:href="#DejaVuSans-32" x="127.246094"/>
       <use xlink:href="#DejaVuSans-31" x="190.869141"/>
       <use xlink:href="#DejaVuSans-2d" x="254.492188"/>
       <use xlink:href="#DejaVuSans-30" x="290.576172"/>
       <use xlink:href="#DejaVuSans-34" x="354.199219"/>
      </g>
     </g>
    </g>
    <g id="xtick_7">
     <g id="line2d_7">
      <g>
       <use xlink:href="#mf419ebc7be" x="807.562148" y="368.3955" style="stroke: #000000; stroke-width: 0.8"/>
      </g>
     </g>
     <g id="text_7">
      <!-- 2021-07 -->
      <g transform="translate(786.670742 382.993937)scale(0.1 -0.1)">
       <use xlink:href="#DejaVuSans-32"/>
       <use xlink:href="#DejaVuSans-30" x="63.623047"/>
       <use xlink:href="#DejaVuSans-32" x="127.246094"/>
       <use xlink:href="#DejaVuSans-31" x="190.869141"/>
       <use xlink:href="#DejaVuSans-2d" x="254.492188"/>
       <use xlink:href="#DejaVuSans-30" x="290.576172"/>
       <use xlink:href="#DejaVuSans-37" x="354.199219"/>
      </g>
     </g>
    </g>
    <g id="xtick_8">
     <g id="line2d_8">
      <g>
       <use xlink:href="#mf419ebc7be" x="931.462389" y="368.3955" style="stroke: #000000; stroke-width: 0.8"/>
      </g>
     </g>
     <g id="text_8">
      <!-- 2021-10 -->
      <g transform="translate(910.570983 382.993937)scale(0.1 -0.1)">
       <use xlink:href="#DejaVuSans-32"/>
       <use xlink:href="#DejaVuSans-30" x="63.623047"/>
       <use xlink:href="#DejaVuSans-32" x="127.246094"/>
       <use xlink:href="#DejaVuSans-31" x="190.869141"/>
       <use xlink:href="#DejaVuSans-2d" x="254.492188"/>
       <use xlink:href="#DejaVuSans-31" x="290.576172"/>
       <use xlink:href="#DejaVuSans-30" x="354.199219"/>
      </g>
     </g>
    </g>
    <g id="xtick_9">
     <g id="line2d_9">
      <g>
       <use xlink:href="#mf419ebc7be" x="1055.362631" y="368.3955" style="stroke: #000000; stroke-width: 0.8"/>
      </g>
     </g>
     <g id="text_9">
      <!-- 2022-01 -->
      <g transform="translate(1034.471224 382.993937)scale(0.1 -0.1)">
       <use xlink:href="#DejaVuSans-32"/>
       <use xlink:href="#DejaVuSans-30" x="63.623047"/>
       <use xlink:href="#DejaVuSans-32" x="127.246094"/>
       <use xlink:href="#DejaVuSans-32" x="190.869141"/>
       <use xlink:href="#DejaVuSans-2d" x="254.492188"/>
       <use xlink:href="#DejaVuSans-30" x="290.576172"/>
       <use xlink:href="#DejaVuSans-31" x="354.199219"/>
      </g>
     </g>
    </g>
    <g id="xtick_10">
     <g id="line2d_10">
      <g>
       <use xlink:href="#mf419ebc7be" x="1176.569389" y="368.3955" style="stroke: #000000; stroke-width: 0.8"/>
      </g>
     </g>
     <g id="text_10">
      <!-- 2022-04 -->
      <g transform="translate(1155.677982 382.993937)scale(0.1 -0.1)">
       <use xlink:href="#DejaVuSans-32"/>
       <use xlink:href="#DejaVuSans-30" x="63.623047"/>
       <use xlink:href="#DejaVuSans-32" x="127.246094"/>
       <use xlink:href="#DejaVuSans-32" x="190.869141"/>
       <use xlink:href="#DejaVuSans-2d" x="254.492188"/>
       <use xlink:href="#DejaVuSans-30" x="290.576172"/>
       <use xlink:href="#DejaVuSans-34" x="354.199219"/>
      </g>
     </g>
    </g>
    <g id="xtick_11">
     <g id="line2d_11">
      <g>
       <use xlink:href="#mf419ebc7be" x="1299.122888" y="368.3955" style="stroke: #000000; stroke-width: 0.8"/>
      </g>
     </g>
     <g id="text_11">
      <!-- 2022-07 -->
      <g transform="translate(1278.231482 382.993937)scale(0.1 -0.1)">
       <use xlink:href="#DejaVuSans-32"/>
       <use xlink:href="#DejaVuSans-30" x="63.623047"/>
       <use xlink:href="#DejaVuSans-32" x="127.246094"/>
       <use xlink:href="#DejaVuSans-32" x="190.869141"/>
       <use xlink:href="#DejaVuSans-2d" x="254.492188"/>
       <use xlink:href="#DejaVuSans-30" x="290.576172"/>
       <use xlink:href="#DejaVuSans-37" x="354.199219"/>
      </g>
     </g>
    </g>
   </g>
   <g id="matplotlib.axis_2">
    <g id="ytick_1">
     <g id="line2d_12">
      <defs>
       <path id="me1d39ebb28" d="M 0 0 
L -3.5 0 
" style="stroke: #000000; stroke-width: 0.8"/>
      </defs>
      <g>
       <use xlink:href="#me1d39ebb28" x="39.65" y="353.218604" style="stroke: #000000; stroke-width: 0.8"/>
      </g>
     </g>
     <g id="text_12">
      <!-- 0 -->
      <g transform="translate(26.2875 357.017823)scale(0.1 -0.1)">
       <use xlink:href="#DejaVuSans-30"/>
      </g>
     </g>
    </g>
    <g id="ytick_2">
     <g id="line2d_13">
      <g>
       <use xlink:href="#me1d39ebb28" x="39.65" y="296.323026" style="stroke: #000000; stroke-width: 0.8"/>
      </g>
     </g>
     <g id="text_13">
      <!-- 1000 -->
      <g transform="translate(7.2 300.122245)scale(0.1 -0.1)">
       <use xlink:href="#DejaVuSans-31"/>
       <use xlink:href="#DejaVuSans-30" x="63.623047"/>
       <use xlink:href="#DejaVuSans-30" x="127.246094"/>
       <use xlink:href="#DejaVuSans-30" x="190.869141"/>
      </g>
     </g>
    </g>
    <g id="ytick_3">
     <g id="line2d_14">
      <g>
       <use xlink:href="#me1d39ebb28" x="39.65" y="239.427447" style="stroke: #000000; stroke-width: 0.8"/>
      </g>
     </g>
     <g id="text_14">
      <!-- 2000 -->
      <g transform="translate(7.2 243.226666)scale(0.1 -0.1)">
       <use xlink:href="#DejaVuSans-32"/>
       <use xlink:href="#DejaVuSans-30" x="63.623047"/>
       <use xlink:href="#DejaVuSans-30" x="127.246094"/>
       <use xlink:href="#DejaVuSans-30" x="190.869141"/>
      </g>
     </g>
    </g>
    <g id="ytick_4">
     <g id="line2d_15">
      <g>
       <use xlink:href="#me1d39ebb28" x="39.65" y="182.531869" style="stroke: #000000; stroke-width: 0.8"/>
      </g>
     </g>
     <g id="text_15">
      <!-- 3000 -->
      <g transform="translate(7.2 186.331088)scale(0.1 -0.1)">
       <defs>
        <path id="DejaVuSans-33" d="M 2597 2516 
Q 3050 2419 3304 2112 
Q 3559 1806 3559 1356 
Q 3559 666 3084 287 
Q 2609 -91 1734 -91 
Q 1441 -91 1130 -33 
Q 819 25 488 141 
L 488 750 
Q 750 597 1062 519 
Q 1375 441 1716 441 
Q 2309 441 2620 675 
Q 2931 909 2931 1356 
Q 2931 1769 2642 2001 
Q 2353 2234 1838 2234 
L 1294 2234 
L 1294 2753 
L 1863 2753 
Q 2328 2753 2575 2939 
Q 2822 3125 2822 3475 
Q 2822 3834 2567 4026 
Q 2313 4219 1838 4219 
Q 1578 4219 1281 4162 
Q 984 4106 628 3988 
L 628 4550 
Q 988 4650 1302 4700 
Q 1616 4750 1894 4750 
Q 2613 4750 3031 4423 
Q 3450 4097 3450 3541 
Q 3450 3153 3228 2886 
Q 3006 2619 2597 2516 
z
" transform="scale(0.015625)"/>
       </defs>
       <use xlink:href="#DejaVuSans-33"/>
       <use xlink:href="#DejaVuSans-30" x="63.623047"/>
       <use xlink:href="#DejaVuSans-30" x="127.246094"/>
       <use xlink:href="#DejaVuSans-30" x="190.869141"/>
      </g>
     </g>
    </g>
    <g id="ytick_5">
     <g id="line2d_16">
      <g>
       <use xlink:href="#me1d39ebb28" x="39.65" y="125.63629" style="stroke: #000000; stroke-width: 0.8"/>
      </g>
     </g>
     <g id="text_16">
      <!-- 4000 -->
      <g transform="translate(7.2 129.435509)scale(0.1 -0.1)">
       <use xlink:href="#DejaVuSans-34"/>
       <use xlink:href="#DejaVuSans-30" x="63.623047"/>
       <use xlink:href="#DejaVuSans-30" x="127.246094"/>
       <use xlink:href="#DejaVuSans-30" x="190.869141"/>
      </g>
     </g>
    </g>
    <g id="ytick_6">
     <g id="line2d_17">
      <g>
       <use xlink:href="#me1d39ebb28" x="39.65" y="68.740712" style="stroke: #000000; stroke-width: 0.8"/>
      </g>
     </g>
     <g id="text_17">
      <!-- 5000 -->
      <g transform="translate(7.2 72.53993)scale(0.1 -0.1)">
       <defs>
        <path id="DejaVuSans-35" d="M 691 4666 
L 3169 4666 
L 3169 4134 
L 1269 4134 
L 1269 2991 
Q 1406 3038 1543 3061 
Q 1681 3084 1819 3084 
Q 2600 3084 3056 2656 
Q 3513 2228 3513 1497 
Q 3513 744 3044 326 
Q 2575 -91 1722 -91 
Q 1428 -91 1123 -41 
Q 819 9 494 109 
L 494 744 
Q 775 591 1075 516 
Q 1375 441 1709 441 
Q 2250 441 2565 725 
Q 2881 1009 2881 1497 
Q 2881 1984 2565 2268 
Q 2250 2553 1709 2553 
Q 1456 2553 1204 2497 
Q 953 2441 691 2322 
L 691 4666 
z
" transform="scale(0.015625)"/>
       </defs>
       <use xlink:href="#DejaVuSans-35"/>
       <use xlink:href="#DejaVuSans-30" x="63.623047"/>
       <use xlink:href="#DejaVuSans-30" x="127.246094"/>
       <use xlink:href="#DejaVuSans-30" x="190.869141"/>
      </g>
     </g>
    </g>
   </g>
   <g id="line2d_18">
    <path d="M 100.522727 353.218604 
L 167.859815 353.218604 
L 169.206557 353.047918 
L 170.553298 353.218604 
L 171.90004 352.820335 
L 173.246782 353.218604 
L 174.593524 353.161709 
L 175.940265 352.706544 
L 177.287007 352.820335 
L 178.633749 352.080693 
L 179.980491 353.047918 
L 181.327233 351.910006 
L 182.673974 352.080693 
L 184.020716 351.511737 
L 185.367458 351.34105 
L 186.7142 351.739319 
L 188.060941 351.682424 
L 190.754425 352.023797 
L 192.101167 351.113468 
L 194.79465 352.25138 
L 196.141392 350.31693 
L 197.488134 349.122123 
L 200.181617 351.454841 
L 201.528359 351.397946 
L 202.875101 351.511737 
L 204.221842 351.910006 
L 205.568584 350.31693 
L 206.915326 351.397946 
L 208.262068 352.308275 
L 209.608809 352.023797 
L 210.955551 352.991022 
L 212.302293 352.820335 
L 213.649035 352.365171 
L 214.995776 352.934127 
L 216.342518 351.853111 
L 217.68926 352.649649 
L 219.036002 353.047918 
L 220.382743 353.104813 
L 221.729485 352.934127 
L 223.076227 353.104813 
L 224.422969 353.104813 
L 225.76971 352.308275 
L 227.116452 352.76344 
L 228.463194 352.991022 
L 229.809936 352.820335 
L 231.156677 353.218604 
L 232.503419 352.991022 
L 233.850161 352.478962 
L 235.196903 352.820335 
L 236.543644 352.592753 
L 237.890386 352.934127 
L 239.237128 352.934127 
L 240.58387 353.161709 
L 241.930611 352.76344 
L 243.277353 353.047918 
L 244.624095 353.104813 
L 245.970837 352.877231 
L 247.317578 353.2755 
L 250.011062 353.104813 
L 251.357804 353.047918 
L 252.704545 353.161709 
L 254.051287 353.161709 
L 255.398029 352.877231 
L 256.744771 353.218604 
L 258.091512 352.991022 
L 259.438254 353.218604 
L 260.784996 352.877231 
L 262.131738 353.104813 
L 264.825221 353.104813 
L 266.171963 352.877231 
L 272.905672 353.104813 
L 274.252414 352.991022 
L 275.599155 353.104813 
L 276.945897 352.934127 
L 278.292639 353.104813 
L 279.639381 351.170364 
L 280.986122 353.161709 
L 282.332864 352.137588 
L 283.679606 352.25138 
L 285.026348 352.535857 
L 286.373089 352.706544 
L 287.719831 352.592753 
L 289.066573 352.365171 
L 290.413315 352.706544 
L 294.45354 353.161709 
L 295.800282 353.047918 
L 297.147023 353.2755 
L 299.840507 352.706544 
L 301.187249 353.047918 
L 302.53399 352.535857 
L 303.880732 352.991022 
L 305.227474 353.161709 
L 306.574216 352.080693 
L 307.920957 352.820335 
L 309.267699 352.820335 
L 310.614441 353.104813 
L 311.961183 353.104813 
L 313.307924 352.877231 
L 314.654666 353.218604 
L 316.001408 353.104813 
L 317.34815 352.25138 
L 320.041633 353.104813 
L 321.388375 352.592753 
L 322.735117 353.104813 
L 324.081858 353.047918 
L 325.4286 353.104813 
L 326.775342 352.308275 
L 328.122084 352.934127 
L 329.468825 352.877231 
L 330.815567 352.478962 
L 332.162309 352.934127 
L 333.509051 352.991022 
L 334.855792 352.478962 
L 336.202534 352.820335 
L 337.549276 352.706544 
L 338.896018 352.991022 
L 340.242759 352.535857 
L 341.589501 352.649649 
L 342.936243 352.877231 
L 344.282985 353.218604 
L 345.629726 352.592753 
L 346.976468 352.76344 
L 348.32321 352.592753 
L 349.669952 352.991022 
L 351.016693 353.104813 
L 352.363435 353.047918 
L 353.710177 353.161709 
L 355.056919 353.161709 
L 356.40366 352.820335 
L 357.750402 352.820335 
L 359.097144 352.934127 
L 360.443886 353.161709 
L 361.790628 352.991022 
L 363.137369 352.934127 
L 364.484111 352.706544 
L 365.830853 353.047918 
L 367.177595 352.877231 
L 369.871078 353.047918 
L 371.21782 352.649649 
L 372.564562 352.877231 
L 373.911303 352.877231 
L 375.258045 352.25138 
L 376.604787 352.76344 
L 377.951529 352.877231 
L 379.29827 352.535857 
L 380.645012 353.047918 
L 384.685237 352.991022 
L 386.031979 352.535857 
L 387.378721 352.991022 
L 388.725463 352.706544 
L 390.072204 352.877231 
L 391.418946 352.934127 
L 392.765688 352.706544 
L 394.11243 353.047918 
L 395.459171 352.308275 
L 396.805913 352.592753 
L 398.152655 352.76344 
L 399.499397 352.592753 
L 400.846138 353.104813 
L 402.19288 353.218604 
L 403.539622 352.934127 
L 404.886364 352.934127 
L 406.233105 353.161709 
L 407.579847 353.047918 
L 410.273331 353.104813 
L 412.966814 352.820335 
L 414.313556 352.706544 
L 415.660298 352.820335 
L 417.007039 352.535857 
L 419.700523 353.218604 
L 421.047265 353.047918 
L 422.394006 353.161709 
L 423.740748 352.991022 
L 425.08749 352.934127 
L 430.474457 353.104813 
L 431.821199 352.820335 
L 433.16794 352.76344 
L 434.514682 353.047918 
L 439.901649 353.047918 
L 441.248391 352.478962 
L 443.941874 352.820335 
L 445.288616 351.397946 
L 446.635358 352.991022 
L 447.9821 352.877231 
L 449.328842 352.592753 
L 450.675583 352.76344 
L 452.022325 352.592753 
L 453.369067 352.592753 
L 454.715809 352.76344 
L 456.06255 352.649649 
L 457.409292 353.047918 
L 458.756034 352.422066 
L 461.449517 352.592753 
L 462.796259 352.592753 
L 464.143001 352.706544 
L 465.489743 352.649649 
L 466.836484 352.365171 
L 468.183226 352.308275 
L 469.529968 351.568633 
L 470.87671 351.682424 
L 472.223451 351.511737 
L 473.570193 352.649649 
L 474.916935 351.511737 
L 476.263677 352.820335 
L 477.610418 352.023797 
L 478.95716 352.422066 
L 480.303902 351.853111 
L 481.650644 352.25138 
L 482.997385 351.910006 
L 484.344127 352.194484 
L 485.690869 351.511737 
L 487.037611 351.170364 
L 488.384352 351.910006 
L 489.731094 352.023797 
L 491.077836 350.658303 
L 492.424578 351.910006 
L 495.118061 349.065227 
L 496.464803 346.618717 
L 497.811545 347.984211 
L 499.158286 347.529047 
L 500.505028 350.601408 
L 501.85177 346.448031 
L 503.198512 347.756629 
L 504.545253 349.975556 
L 505.891995 344.741163 
L 507.238737 344.741163 
L 508.585479 348.268689 
L 509.93222 348.496271 
L 511.278962 348.38248 
L 512.625704 350.487617 
L 513.972446 349.520392 
L 515.319187 353.218604 
L 516.665929 343.091191 
L 518.012671 351.625528 
L 519.359413 349.406601 
L 520.706154 349.122123 
L 522.052896 349.406601 
L 523.399638 340.587786 
L 524.74638 342.920505 
L 526.093121 346.334239 
L 527.439863 345.765284 
L 528.786605 346.334239 
L 530.133347 349.520392 
L 531.480088 347.529047 
L 532.82683 347.244569 
L 534.173572 345.93597 
L 535.520314 345.93597 
L 536.867056 348.38248 
L 538.213797 345.992866 
L 539.560539 347.301464 
L 540.907281 349.463496 
L 542.254023 348.325585 
L 543.600764 345.253223 
L 544.947506 347.87042 
L 546.294248 347.529047 
L 547.64099 347.529047 
L 548.987731 348.041107 
L 550.334473 349.008332 
L 551.681215 349.122123 
L 553.027957 347.472151 
L 554.374698 353.218604 
L 555.72144 342.692922 
L 557.068182 349.634183 
L 558.414924 348.041107 
L 561.108407 349.008332 
L 562.455149 345.480806 
L 563.801891 353.218604 
L 565.148632 337.458529 
L 566.495374 347.301464 
L 567.842116 348.666958 
L 569.188858 343.830834 
L 570.535599 346.391135 
L 571.882341 339.279188 
L 573.229083 340.929159 
L 574.575825 343.48946 
L 575.922566 343.148087 
L 577.269308 346.903195 
L 578.61605 343.603252 
L 579.962792 346.334239 
L 581.309533 341.555011 
L 582.656275 344.058416 
L 584.003017 342.920505 
L 585.349759 345.139432 
L 586.6965 343.944625 
L 588.043242 347.472151 
L 589.389984 344.684268 
L 590.736726 347.016986 
L 592.083467 343.034296 
L 593.430209 344.741163 
L 594.776951 346.106657 
L 596.123693 345.708388 
L 597.470434 346.391135 
L 598.817176 347.87042 
L 600.163918 345.025641 
L 601.51066 345.537701 
L 602.857401 343.375669 
L 604.204143 345.594597 
L 605.550885 346.504926 
L 606.897627 346.789404 
L 608.244368 345.651492 
L 609.59111 343.318774 
L 610.937852 347.016986 
L 612.284594 344.456685 
L 613.631335 345.594597 
L 614.978077 344.91185 
L 616.324819 349.861765 
L 617.671561 352.25138 
L 619.018302 345.992866 
L 620.365044 343.773938 
L 621.711786 344.91185 
L 623.058528 346.618717 
L 624.40527 342.692922 
L 625.752011 350.089348 
L 627.098753 348.723854 
L 628.445495 344.513581 
L 629.792237 347.415255 
L 631.138978 347.073882 
L 632.48572 345.594597 
L 633.832462 346.675613 
L 635.179204 348.496271 
L 637.872687 349.122123 
L 639.219429 346.220448 
L 640.566171 345.537701 
L 641.912912 347.529047 
L 643.259654 348.325585 
L 644.606396 348.211794 
L 645.953138 346.675613 
L 647.299879 341.896384 
L 648.646621 345.651492 
L 649.993363 344.968746 
L 651.340105 346.448031 
L 652.686846 346.618717 
L 654.033588 348.268689 
L 655.38033 348.38248 
L 656.727072 345.879075 
L 658.073813 346.220448 
L 659.420555 348.951436 
L 660.767297 342.294653 
L 662.114039 347.415255 
L 663.46078 350.089348 
L 664.807522 349.861765 
L 666.154264 345.196328 
L 667.501006 344.91185 
L 668.847747 344.001521 
L 670.194489 342.692922 
L 671.541231 347.585942 
L 672.887973 347.87042 
L 674.234714 347.813524 
L 676.928198 337.117156 
L 678.27494 346.106657 
L 679.621681 342.010175 
L 680.968423 342.863609 
L 682.315165 347.130778 
L 683.661907 343.773938 
L 685.008648 339.108501 
L 686.35539 340.01883 
L 687.702132 344.684268 
L 689.048874 339.336083 
L 690.395615 346.504926 
L 691.742357 347.187673 
L 693.089099 349.29281 
L 694.435841 340.303308 
L 695.782582 344.91185 
L 697.129324 344.684268 
L 698.476066 339.734352 
L 699.822808 348.154898 
L 701.169549 347.699733 
L 702.516291 347.529047 
L 703.863033 343.204983 
L 705.209775 345.310119 
L 706.556516 349.463496 
L 707.903258 344.854954 
L 709.25 347.756629 
L 710.596742 353.218604 
L 711.943484 346.049762 
L 713.290225 348.268689 
L 714.636967 348.041107 
L 715.983709 349.634183 
L 717.330451 347.699733 
L 718.677192 350.885886 
L 720.023934 349.918661 
L 721.370676 350.487617 
L 722.717418 347.472151 
L 724.064159 345.93597 
L 725.410901 348.666958 
L 726.757643 347.87042 
L 728.104385 351.397946 
L 729.451126 351.34105 
L 730.797868 350.032452 
L 732.14461 350.430721 
L 733.491352 347.699733 
L 734.838093 350.260034 
L 736.184835 350.885886 
L 737.531577 350.089348 
L 738.878319 349.520392 
L 740.22506 350.658303 
L 741.571802 349.065227 
L 742.918544 349.349705 
L 744.265286 350.089348 
L 745.612027 351.170364 
L 746.958769 351.568633 
L 748.305511 351.34105 
L 749.652253 350.772095 
L 750.998994 351.056572 
L 752.345736 350.999677 
L 753.692478 352.137588 
L 755.03922 351.966902 
L 756.385961 352.023797 
L 757.732703 352.706544 
L 759.079445 351.739319 
L 760.426187 352.080693 
L 761.772928 352.76344 
L 763.11967 352.649649 
L 764.466412 352.706544 
L 765.813154 352.592753 
L 767.159895 352.991022 
L 768.506637 352.76344 
L 769.853379 352.76344 
L 771.200121 352.535857 
L 772.546862 353.218604 
L 773.893604 353.218604 
L 775.240346 351.511737 
L 776.587088 352.478962 
L 777.933829 352.934127 
L 779.280571 352.422066 
L 781.974055 353.218604 
L 783.320796 353.218604 
L 784.667538 352.592753 
L 786.01428 352.76344 
L 788.707763 352.706544 
L 790.054505 353.047918 
L 791.401247 353.218604 
L 792.747989 353.218604 
L 794.09473 352.76344 
L 795.441472 353.047918 
L 796.788214 352.76344 
L 798.134956 352.877231 
L 799.481698 352.820335 
L 800.828439 353.218604 
L 802.175181 353.218604 
L 803.521923 352.649649 
L 804.868665 352.991022 
L 806.215406 352.991022 
L 807.562148 353.104813 
L 808.90889 352.820335 
L 810.255632 353.218604 
L 812.949115 353.218604 
L 814.295857 352.422066 
L 815.642599 352.820335 
L 816.98934 352.934127 
L 818.336082 352.535857 
L 819.682824 353.218604 
L 821.029566 353.218604 
L 822.376307 351.397946 
L 823.723049 352.76344 
L 825.069791 352.137588 
L 826.416533 352.478962 
L 827.763274 352.023797 
L 829.110016 353.218604 
L 830.456758 353.218604 
L 831.8035 351.568633 
L 833.150241 352.592753 
L 834.496983 352.137588 
L 835.843725 351.056572 
L 837.190467 351.568633 
L 838.537208 353.218604 
L 839.88395 353.218604 
L 841.230692 349.122123 
L 842.577434 352.535857 
L 843.924175 350.715199 
L 845.270917 351.739319 
L 846.617659 349.861765 
L 847.964401 353.218604 
L 849.311142 353.218604 
L 850.657884 344.741163 
L 852.004626 350.999677 
L 853.351368 350.260034 
L 854.698109 348.098002 
L 856.044851 347.472151 
L 857.391593 353.218604 
L 858.738335 353.218604 
L 860.085076 338.937814 
L 861.431818 347.984211 
L 862.77856 347.87042 
L 865.472043 344.285999 
L 866.818785 353.218604 
L 869.512269 353.218604 
L 870.85901 332.906883 
L 872.205752 347.699733 
L 873.552494 343.603252 
L 874.899236 346.675613 
L 876.245977 344.91185 
L 877.592719 346.049762 
L 878.939461 348.553167 
L 880.286203 347.244569 
L 881.632944 346.504926 
L 882.979686 344.741163 
L 884.326428 345.025641 
L 885.67317 342.579131 
L 887.019912 345.42391 
L 888.366653 349.122123 
L 889.713395 344.342894 
L 891.060137 341.896384 
L 892.406879 345.082537 
L 895.100362 342.920505 
L 896.447104 346.960091 
L 897.793846 345.765284 
L 899.140587 341.839489 
L 900.487329 346.903195 
L 901.834071 344.570476 
L 903.180813 344.854954 
L 904.527554 341.896384 
L 905.874296 342.9774 
L 907.221038 344.684268 
L 908.56778 346.8463 
L 909.914521 341.384324 
L 911.261263 333.987899 
L 912.608005 339.905039 
L 913.954747 341.555011 
L 915.301488 337.686111 
L 916.64823 345.822179 
L 917.994972 344.854954 
L 919.341714 343.660147 
L 920.688455 336.775782 
L 922.035197 339.449874 
L 923.381939 342.9774 
L 924.728681 339.50677 
L 926.075422 341.839489 
L 927.422164 347.642838 
L 928.768906 347.016986 
L 930.115648 340.473995 
L 931.462389 342.408444 
L 932.809131 340.189517 
L 934.155873 345.253223 
L 935.502615 342.408444 
L 936.849356 347.87042 
L 938.196098 345.992866 
L 939.54284 336.661991 
L 940.889582 337.230947 
L 942.236323 338.710232 
L 943.583065 341.099846 
L 944.929807 340.701577 
L 946.276549 345.651492 
L 947.62329 334.61375 
L 948.970032 344.627372 
L 950.316774 340.303308 
L 951.663516 333.931003 
L 953.010257 339.051605 
L 954.356999 341.782593 
L 955.703741 345.708388 
L 957.050483 346.561822 
L 958.397224 334.898228 
L 959.743966 340.132621 
L 961.090708 338.824023 
L 962.43745 337.856798 
L 963.784191 345.310119 
L 965.130933 348.098002 
L 966.477675 344.058416 
L 967.824417 334.670646 
L 970.5179 345.537701 
L 971.864642 337.970589 
L 973.211384 344.741163 
L 974.558126 343.375669 
L 975.904867 341.042951 
L 977.251609 323.234635 
L 979.945093 338.198172 
L 981.291834 330.175895 
L 982.638576 339.905039 
L 983.985318 343.603252 
L 985.33206 342.180862 
L 986.678801 318.455406 
L 988.025543 324.258755 
L 989.372285 327.046638 
L 990.719027 335.524079 
L 992.065768 340.53089 
L 993.41251 342.46534 
L 994.759252 339.392979 
L 996.105994 323.120843 
L 997.452735 326.819056 
L 998.799477 327.786281 
L 1000.146219 325.908727 
L 1001.492961 339.961935 
L 1002.839702 342.067071 
L 1004.186444 335.296497 
L 1005.533186 353.218604 
L 1009.573411 353.218604 
L 1010.920153 257.577137 
L 1012.266895 341.099846 
L 1013.613636 324.998397 
L 1014.960378 317.715763 
L 1016.30712 325.055293 
L 1017.653862 321.015707 
L 1019.000603 313.733073 
L 1020.347345 339.449874 
L 1021.694087 336.149931 
L 1023.040829 330.232791 
L 1024.38757 325.567353 
L 1025.734312 311.343459 
L 1027.081054 338.425754 
L 1028.427796 322.950157 
L 1029.774537 339.848143 
L 1031.121279 339.961935 
L 1032.468021 333.646525 
L 1033.814763 314.984776 
L 1035.161504 326.136309 
L 1036.508246 328.298341 
L 1037.854988 327.729385 
L 1039.20173 339.563666 
L 1040.548471 339.563666 
L 1041.895213 316.179583 
L 1043.241955 328.241445 
L 1044.588697 353.218604 
L 1047.28218 353.218604 
L 1048.628922 269.582104 
L 1049.975664 330.005208 
L 1051.322405 300.13503 
L 1052.669147 275.214766 
L 1054.015889 353.218604 
L 1056.709372 353.218604 
L 1058.056114 195.105792 
L 1059.402856 254.732358 
L 1060.749598 307.417664 
L 1062.09634 229.186243 
L 1063.443081 247.392828 
L 1064.789823 204.209084 
L 1066.136565 338.880919 
L 1067.483307 353.218604 
L 1068.830048 353.218604 
L 1070.17679 50.8755 
L 1071.523532 239.029178 
L 1072.870274 221.391549 
L 1074.217015 251.204832 
L 1075.563757 207.338341 
L 1076.910499 353.218604 
L 1078.257241 266.168369 
L 1079.603982 279.595726 
L 1080.950724 353.218604 
L 1082.297466 186.912828 
L 1083.644208 263.380486 
L 1084.990949 289.780034 
L 1086.337691 322.381201 
L 1087.684433 328.127654 
L 1089.031175 323.120843 
L 1090.377916 266.054578 
L 1091.724658 301.272941 
L 1093.0714 325.73804 
L 1094.418142 318.455406 
L 1095.764883 335.467184 
L 1097.111625 332.451718 
L 1098.458367 311.571041 
L 1099.805109 318.796779 
L 1101.15185 323.860486 
L 1102.498592 353.218604 
L 1103.845334 353.218604 
L 1105.192076 308.384889 
L 1106.538817 341.782593 
L 1107.885559 325.510458 
L 1109.232301 329.834522 
L 1110.579043 330.915538 
L 1111.925784 353.218604 
L 1113.272526 353.218604 
L 1114.619268 315.553731 
L 1115.96601 344.001521 
L 1117.312751 331.712076 
L 1118.659493 339.222292 
L 1120.006235 338.311963 
L 1121.352977 353.218604 
L 1124.04646 353.218604 
L 1125.393202 316.805434 
L 1126.739944 338.141276 
L 1128.086685 341.270533 
L 1129.433427 340.189517 
L 1130.780169 353.218604 
L 1132.126911 353.218604 
L 1133.473652 333.817212 
L 1134.820394 353.218604 
L 1136.167136 353.218604 
L 1137.513878 322.381201 
L 1138.860619 341.782593 
L 1140.207361 353.218604 
L 1141.554103 353.218604 
L 1142.900845 336.149931 
L 1144.247586 350.544512 
L 1145.594328 342.010175 
L 1146.94107 346.903195 
L 1148.287812 342.636027 
L 1149.634553 353.218604 
L 1150.981295 353.218604 
L 1152.328037 338.539545 
L 1153.674779 348.496271 
L 1155.021521 339.222292 
L 1156.368262 343.318774 
L 1157.715004 344.172207 
L 1159.061746 353.218604 
L 1160.408488 353.218604 
L 1161.755229 332.508614 
L 1163.101971 348.666958 
L 1164.448713 340.758473 
L 1165.795455 345.025641 
L 1167.142196 343.318774 
L 1168.488938 353.218604 
L 1169.83568 353.218604 
L 1171.182422 335.694766 
L 1172.529163 348.154898 
L 1173.875905 340.758473 
L 1175.222647 343.318774 
L 1176.569389 344.058416 
L 1177.91613 353.218604 
L 1179.262872 353.218604 
L 1180.609614 332.736196 
L 1181.956356 344.741163 
L 1183.303097 340.701577 
L 1184.649839 341.099846 
L 1185.996581 339.051605 
L 1187.343323 353.218604 
L 1188.690064 353.218604 
L 1190.036806 323.120843 
L 1191.383548 343.944625 
L 1192.73029 335.580975 
L 1194.077031 333.532734 
L 1195.423773 337.629216 
L 1196.770515 353.218604 
L 1198.117257 353.218604 
L 1199.463998 311.172772 
L 1200.81074 344.627372 
L 1202.157482 333.646525 
L 1203.504224 333.532734 
L 1204.850965 333.817212 
L 1206.197707 353.218604 
L 1207.544449 353.218604 
L 1208.891191 307.303873 
L 1210.237932 353.218604 
L 1211.584674 312.196892 
L 1212.931416 330.858642 
L 1214.278158 331.200016 
L 1215.624899 353.218604 
L 1216.971641 353.218604 
L 1218.318383 314.472715 
L 1219.665125 335.751662 
L 1221.011866 323.80359 
L 1222.358608 333.191361 
L 1223.70535 330.460373 
L 1225.052092 353.218604 
L 1226.398833 353.218604 
L 1227.745575 305.54011 
L 1229.092317 338.880919 
L 1230.439059 337.970589 
L 1231.7858 319.024362 
L 1233.132542 329.72073 
L 1234.479284 353.218604 
L 1235.826026 353.218604 
L 1237.172767 308.783158 
L 1238.519509 341.156742 
L 1239.866251 331.029329 
L 1241.212993 353.218604 
L 1249.293443 353.218604 
L 1250.640185 261.844305 
L 1251.986927 353.218604 
L 1257.373894 353.218604 
L 1258.720636 284.033581 
L 1260.067377 353.218604 
L 1266.801086 353.218604 
L 1268.147828 296.721295 
L 1269.49457 353.218604 
L 1276.228278 353.218604 
L 1277.57502 310.774503 
L 1278.921762 353.218604 
L 1285.655471 353.218604 
L 1287.002212 318.227824 
L 1288.348954 353.218604 
L 1295.082663 353.218604 
L 1296.429405 316.919225 
L 1297.776146 353.218604 
L 1300.46963 353.218604 
L 1300.46963 353.218604 
" clip-path="url(#p6db8863507)" style="fill: none; stroke: #0000ff; stroke-width: 1.5; stroke-linecap: square"/>
   </g>
   <g id="line2d_19">
    <path d="M 1060.749598 296.753474 
L 1062.09634 298.465578 
L 1063.443081 291.204688 
L 1064.789823 278.836731 
L 1066.136565 264.431673 
L 1067.483307 285.705822 
L 1068.830048 302.948333 
L 1070.17679 255.760745 
L 1071.523532 256.023744 
L 1072.870274 244.834418 
L 1074.217015 265.280309 
L 1075.563757 259.123166 
L 1076.910499 272.50049 
L 1078.257241 227.731761 
L 1079.603982 262.405316 
L 1080.950724 272.75689 
L 1082.297466 264.878407 
L 1083.644208 258.300637 
L 1084.990949 283.942501 
L 1086.337691 276.776676 
L 1087.684433 286.025365 
L 1089.031175 301.98146 
L 1090.377916 272.743666 
L 1091.724658 287.894688 
L 1093.0714 297.105233 
L 1094.418142 304.870806 
L 1095.764883 310.054402 
L 1097.111625 312.512111 
L 1098.458367 304.098285 
L 1099.805109 311.297947 
L 1101.15185 316.6337 
L 1102.498592 320.778213 
L 1103.845334 327.858512 
L 1105.192076 324.652464 
L 1106.538817 324.058129 
L 1109.232301 326.690553 
L 1110.579043 331.550928 
L 1111.925784 334.63137 
L 1113.272526 330.768719 
L 1114.619268 333.451485 
L 1115.96601 332.590351 
L 1117.312751 333.092889 
L 1118.659493 334.121142 
L 1120.006235 337.953007 
L 1121.352977 340.12328 
L 1122.699718 336.520022 
L 1124.04646 343.021655 
L 1125.393202 337.511419 
L 1126.739944 338.69066 
L 1128.086685 338.92535 
L 1129.433427 341.267954 
L 1130.780169 342.96695 
L 1132.126911 344.424403 
L 1133.473652 337.633031 
L 1134.820394 342.944521 
L 1136.167136 344.859203 
L 1137.513878 341.506709 
L 1138.860619 343.436388 
L 1140.207361 344.827102 
L 1141.554103 343.205055 
L 1142.900845 345.017092 
L 1144.247586 345.802912 
L 1145.594328 340.789351 
L 1146.94107 344.473589 
L 1148.287812 345.871656 
L 1149.634553 346.916154 
L 1150.981295 345.335578 
L 1152.328037 346.457985 
L 1153.674779 345.509473 
L 1155.021521 345.325593 
L 1156.368262 344.421143 
L 1157.715004 345.921233 
L 1159.061746 346.958682 
L 1160.408488 345.718781 
L 1161.755229 345.285395 
L 1163.101971 344.420535 
L 1164.448713 344.494288 
L 1165.795455 344.693658 
L 1168.488938 346.863934 
L 1169.83568 344.762444 
L 1171.182422 345.817811 
L 1172.529163 345.002586 
L 1173.875905 345.018356 
L 1175.222647 344.529073 
L 1176.569389 345.898577 
L 1177.91613 346.939248 
L 1179.262872 345.289346 
L 1180.609614 345.312599 
L 1181.956356 344.158174 
L 1183.303097 344.038245 
L 1184.649839 343.727819 
L 1185.996581 344.392111 
L 1187.343323 345.646952 
L 1188.690064 343.751499 
L 1190.036806 342.56035 
L 1191.383548 342.171025 
L 1192.73029 341.29192 
L 1194.077031 339.891625 
L 1196.770515 343.273704 
L 1198.117257 340.320508 
L 1199.463998 339.198073 
L 1200.81074 338.756419 
L 1202.157482 337.732768 
L 1203.504224 337.730039 
L 1204.850965 339.435706 
L 1206.197707 341.395187 
L 1207.544449 336.97545 
L 1210.237932 338.23681 
L 1211.584674 334.518267 
L 1212.931416 334.039263 
L 1215.624899 338.834519 
L 1216.971641 334.217467 
L 1218.318383 338.072406 
L 1219.665125 331.790422 
L 1221.011866 333.362682 
L 1222.358608 333.387857 
L 1223.70535 336.166453 
L 1225.052092 338.590717 
L 1226.398833 335.048489 
L 1229.092317 332.909539 
L 1230.439059 334.991176 
L 1231.7858 332.324959 
L 1233.132542 335.256831 
L 1234.479284 337.810413 
L 1235.826026 333.083042 
L 1237.172767 334.465974 
L 1238.519509 335.2851 
L 1239.866251 331.931062 
L 1241.212993 336.509452 
L 1242.559735 342.294379 
L 1243.906476 343.84745 
L 1245.253218 338.732359 
L 1246.59996 345.489082 
L 1247.946702 345.118532 
L 1249.293443 349.489655 
L 1250.640185 337.029325 
L 1251.986927 339.330916 
L 1253.333669 341.305296 
L 1254.68041 342.998982 
L 1256.027152 344.451882 
L 1257.373894 345.698226 
L 1258.720636 323.673546 
L 1260.067377 341.131861 
L 1261.414119 342.850204 
L 1262.760861 344.324255 
L 1264.107603 345.588743 
L 1265.454344 346.673462 
L 1266.801086 337.565561 
L 1268.147828 341.797238 
L 1269.49457 343.420986 
L 1270.841311 344.81389 
L 1272.188053 346.008768 
L 1273.534795 347.033774 
L 1274.881537 347.913056 
L 1276.228278 340.46985 
L 1277.57502 344.445617 
L 1278.921762 345.692851 
L 1280.268504 346.76277 
L 1282.961987 348.467908 
L 1284.308729 349.143303 
L 1285.655471 343.564247 
L 1287.002212 346.12066 
L 1288.348954 347.129758 
L 1291.042438 348.737966 
L 1293.735921 349.921408 
L 1295.082663 345.313172 
L 1297.776146 347.329464 
L 1300.46963 348.884925 
L 1300.46963 348.884925 
" clip-path="url(#p6db8863507)" style="fill: none; stroke: #ffa500; stroke-width: 1.5; stroke-linecap: square"/>
   </g>
   <g id="line2d_20">
    <path d="M 1300.46963 348.884925 
L 1301.816372 348.884925 
L 1303.163113 348.884925 
L 1304.509855 343.618062 
L 1305.856597 348.884925 
L 1307.203339 348.884925 
L 1308.55008 348.884925 
L 1309.896822 348.256129 
L 1311.243564 348.256129 
L 1312.590306 348.256129 
L 1313.937047 347.491933 
L 1315.283789 348.256129 
L 1316.630531 348.256129 
L 1317.977273 348.256129 
" clip-path="url(#p6db8863507)" style="fill: none; stroke: #ff0000; stroke-width: 1.5; stroke-linecap: square"/>
   </g>
   <g id="patch_3">
    <path d="M 39.65 368.3955 
L 39.65 35.7555 
" style="fill: none; stroke: #000000; stroke-width: 0.8; stroke-linejoin: miter; stroke-linecap: square"/>
   </g>
   <g id="patch_4">
    <path d="M 1378.85 368.3955 
L 1378.85 35.7555 
" style="fill: none; stroke: #000000; stroke-width: 0.8; stroke-linejoin: miter; stroke-linecap: square"/>
   </g>
   <g id="patch_5">
    <path d="M 39.65 368.3955 
L 1378.85 368.3955 
" style="fill: none; stroke: #000000; stroke-width: 0.8; stroke-linejoin: miter; stroke-linecap: square"/>
   </g>
   <g id="patch_6">
    <path d="M 39.65 35.7555 
L 1378.85 35.7555 
" style="fill: none; stroke: #000000; stroke-width: 0.8; stroke-linejoin: miter; stroke-linecap: square"/>
   </g>
   <g id="text_18">
    <!-- Daily Confirmed Cases Forecasting - Vermont -->
    <g transform="translate(573.386562 16.318125)scale(0.12 -0.12)">
     <defs>
      <path id="DejaVuSans-44" d="M 1259 4147 
L 1259 519 
L 2022 519 
Q 2988 519 3436 956 
Q 3884 1394 3884 2338 
Q 3884 3275 3436 3711 
Q 2988 4147 2022 4147 
L 1259 4147 
z
M 628 4666 
L 1925 4666 
Q 3281 4666 3915 4102 
Q 4550 3538 4550 2338 
Q 4550 1131 3912 565 
Q 3275 0 1925 0 
L 628 0 
L 628 4666 
z
" transform="scale(0.015625)"/>
      <path id="DejaVuSans-61" d="M 2194 1759 
Q 1497 1759 1228 1600 
Q 959 1441 959 1056 
Q 959 750 1161 570 
Q 1363 391 1709 391 
Q 2188 391 2477 730 
Q 2766 1069 2766 1631 
L 2766 1759 
L 2194 1759 
z
M 3341 1997 
L 3341 0 
L 2766 0 
L 2766 531 
Q 2569 213 2275 61 
Q 1981 -91 1556 -91 
Q 1019 -91 701 211 
Q 384 513 384 1019 
Q 384 1609 779 1909 
Q 1175 2209 1959 2209 
L 2766 2209 
L 2766 2266 
Q 2766 2663 2505 2880 
Q 2244 3097 1772 3097 
Q 1472 3097 1187 3025 
Q 903 2953 641 2809 
L 641 3341 
Q 956 3463 1253 3523 
Q 1550 3584 1831 3584 
Q 2591 3584 2966 3190 
Q 3341 2797 3341 1997 
z
" transform="scale(0.015625)"/>
      <path id="DejaVuSans-69" d="M 603 3500 
L 1178 3500 
L 1178 0 
L 603 0 
L 603 3500 
z
M 603 4863 
L 1178 4863 
L 1178 4134 
L 603 4134 
L 603 4863 
z
" transform="scale(0.015625)"/>
      <path id="DejaVuSans-6c" d="M 603 4863 
L 1178 4863 
L 1178 0 
L 603 0 
L 603 4863 
z
" transform="scale(0.015625)"/>
      <path id="DejaVuSans-79" d="M 2059 -325 
Q 1816 -950 1584 -1140 
Q 1353 -1331 966 -1331 
L 506 -1331 
L 506 -850 
L 844 -850 
Q 1081 -850 1212 -737 
Q 1344 -625 1503 -206 
L 1606 56 
L 191 3500 
L 800 3500 
L 1894 763 
L 2988 3500 
L 3597 3500 
L 2059 -325 
z
" transform="scale(0.015625)"/>
      <path id="DejaVuSans-20" transform="scale(0.015625)"/>
      <path id="DejaVuSans-43" d="M 4122 4306 
L 4122 3641 
Q 3803 3938 3442 4084 
Q 3081 4231 2675 4231 
Q 1875 4231 1450 3742 
Q 1025 3253 1025 2328 
Q 1025 1406 1450 917 
Q 1875 428 2675 428 
Q 3081 428 3442 575 
Q 3803 722 4122 1019 
L 4122 359 
Q 3791 134 3420 21 
Q 3050 -91 2638 -91 
Q 1578 -91 968 557 
Q 359 1206 359 2328 
Q 359 3453 968 4101 
Q 1578 4750 2638 4750 
Q 3056 4750 3426 4639 
Q 3797 4528 4122 4306 
z
" transform="scale(0.015625)"/>
      <path id="DejaVuSans-6f" d="M 1959 3097 
Q 1497 3097 1228 2736 
Q 959 2375 959 1747 
Q 959 1119 1226 758 
Q 1494 397 1959 397 
Q 2419 397 2687 759 
Q 2956 1122 2956 1747 
Q 2956 2369 2687 2733 
Q 2419 3097 1959 3097 
z
M 1959 3584 
Q 2709 3584 3137 3096 
Q 3566 2609 3566 1747 
Q 3566 888 3137 398 
Q 2709 -91 1959 -91 
Q 1206 -91 779 398 
Q 353 888 353 1747 
Q 353 2609 779 3096 
Q 1206 3584 1959 3584 
z
" transform="scale(0.015625)"/>
      <path id="DejaVuSans-6e" d="M 3513 2113 
L 3513 0 
L 2938 0 
L 2938 2094 
Q 2938 2591 2744 2837 
Q 2550 3084 2163 3084 
Q 1697 3084 1428 2787 
Q 1159 2491 1159 1978 
L 1159 0 
L 581 0 
L 581 3500 
L 1159 3500 
L 1159 2956 
Q 1366 3272 1645 3428 
Q 1925 3584 2291 3584 
Q 2894 3584 3203 3211 
Q 3513 2838 3513 2113 
z
" transform="scale(0.015625)"/>
      <path id="DejaVuSans-66" d="M 2375 4863 
L 2375 4384 
L 1825 4384 
Q 1516 4384 1395 4259 
Q 1275 4134 1275 3809 
L 1275 3500 
L 2222 3500 
L 2222 3053 
L 1275 3053 
L 1275 0 
L 697 0 
L 697 3053 
L 147 3053 
L 147 3500 
L 697 3500 
L 697 3744 
Q 697 4328 969 4595 
Q 1241 4863 1831 4863 
L 2375 4863 
z
" transform="scale(0.015625)"/>
      <path id="DejaVuSans-72" d="M 2631 2963 
Q 2534 3019 2420 3045 
Q 2306 3072 2169 3072 
Q 1681 3072 1420 2755 
Q 1159 2438 1159 1844 
L 1159 0 
L 581 0 
L 581 3500 
L 1159 3500 
L 1159 2956 
Q 1341 3275 1631 3429 
Q 1922 3584 2338 3584 
Q 2397 3584 2469 3576 
Q 2541 3569 2628 3553 
L 2631 2963 
z
" transform="scale(0.015625)"/>
      <path id="DejaVuSans-6d" d="M 3328 2828 
Q 3544 3216 3844 3400 
Q 4144 3584 4550 3584 
Q 5097 3584 5394 3201 
Q 5691 2819 5691 2113 
L 5691 0 
L 5113 0 
L 5113 2094 
Q 5113 2597 4934 2840 
Q 4756 3084 4391 3084 
Q 3944 3084 3684 2787 
Q 3425 2491 3425 1978 
L 3425 0 
L 2847 0 
L 2847 2094 
Q 2847 2600 2669 2842 
Q 2491 3084 2119 3084 
Q 1678 3084 1418 2786 
Q 1159 2488 1159 1978 
L 1159 0 
L 581 0 
L 581 3500 
L 1159 3500 
L 1159 2956 
Q 1356 3278 1631 3431 
Q 1906 3584 2284 3584 
Q 2666 3584 2933 3390 
Q 3200 3197 3328 2828 
z
" transform="scale(0.015625)"/>
      <path id="DejaVuSans-65" d="M 3597 1894 
L 3597 1613 
L 953 1613 
Q 991 1019 1311 708 
Q 1631 397 2203 397 
Q 2534 397 2845 478 
Q 3156 559 3463 722 
L 3463 178 
Q 3153 47 2828 -22 
Q 2503 -91 2169 -91 
Q 1331 -91 842 396 
Q 353 884 353 1716 
Q 353 2575 817 3079 
Q 1281 3584 2069 3584 
Q 2775 3584 3186 3129 
Q 3597 2675 3597 1894 
z
M 3022 2063 
Q 3016 2534 2758 2815 
Q 2500 3097 2075 3097 
Q 1594 3097 1305 2825 
Q 1016 2553 972 2059 
L 3022 2063 
z
" transform="scale(0.015625)"/>
      <path id="DejaVuSans-64" d="M 2906 2969 
L 2906 4863 
L 3481 4863 
L 3481 0 
L 2906 0 
L 2906 525 
Q 2725 213 2448 61 
Q 2172 -91 1784 -91 
Q 1150 -91 751 415 
Q 353 922 353 1747 
Q 353 2572 751 3078 
Q 1150 3584 1784 3584 
Q 2172 3584 2448 3432 
Q 2725 3281 2906 2969 
z
M 947 1747 
Q 947 1113 1208 752 
Q 1469 391 1925 391 
Q 2381 391 2643 752 
Q 2906 1113 2906 1747 
Q 2906 2381 2643 2742 
Q 2381 3103 1925 3103 
Q 1469 3103 1208 2742 
Q 947 2381 947 1747 
z
" transform="scale(0.015625)"/>
      <path id="DejaVuSans-73" d="M 2834 3397 
L 2834 2853 
Q 2591 2978 2328 3040 
Q 2066 3103 1784 3103 
Q 1356 3103 1142 2972 
Q 928 2841 928 2578 
Q 928 2378 1081 2264 
Q 1234 2150 1697 2047 
L 1894 2003 
Q 2506 1872 2764 1633 
Q 3022 1394 3022 966 
Q 3022 478 2636 193 
Q 2250 -91 1575 -91 
Q 1294 -91 989 -36 
Q 684 19 347 128 
L 347 722 
Q 666 556 975 473 
Q 1284 391 1588 391 
Q 1994 391 2212 530 
Q 2431 669 2431 922 
Q 2431 1156 2273 1281 
Q 2116 1406 1581 1522 
L 1381 1569 
Q 847 1681 609 1914 
Q 372 2147 372 2553 
Q 372 3047 722 3315 
Q 1072 3584 1716 3584 
Q 2034 3584 2315 3537 
Q 2597 3491 2834 3397 
z
" transform="scale(0.015625)"/>
      <path id="DejaVuSans-46" d="M 628 4666 
L 3309 4666 
L 3309 4134 
L 1259 4134 
L 1259 2759 
L 3109 2759 
L 3109 2228 
L 1259 2228 
L 1259 0 
L 628 0 
L 628 4666 
z
" transform="scale(0.015625)"/>
      <path id="DejaVuSans-63" d="M 3122 3366 
L 3122 2828 
Q 2878 2963 2633 3030 
Q 2388 3097 2138 3097 
Q 1578 3097 1268 2742 
Q 959 2388 959 1747 
Q 959 1106 1268 751 
Q 1578 397 2138 397 
Q 2388 397 2633 464 
Q 2878 531 3122 666 
L 3122 134 
Q 2881 22 2623 -34 
Q 2366 -91 2075 -91 
Q 1284 -91 818 406 
Q 353 903 353 1747 
Q 353 2603 823 3093 
Q 1294 3584 2113 3584 
Q 2378 3584 2631 3529 
Q 2884 3475 3122 3366 
z
" transform="scale(0.015625)"/>
      <path id="DejaVuSans-74" d="M 1172 4494 
L 1172 3500 
L 2356 3500 
L 2356 3053 
L 1172 3053 
L 1172 1153 
Q 1172 725 1289 603 
Q 1406 481 1766 481 
L 2356 481 
L 2356 0 
L 1766 0 
Q 1100 0 847 248 
Q 594 497 594 1153 
L 594 3053 
L 172 3053 
L 172 3500 
L 594 3500 
L 594 4494 
L 1172 4494 
z
" transform="scale(0.015625)"/>
      <path id="DejaVuSans-67" d="M 2906 1791 
Q 2906 2416 2648 2759 
Q 2391 3103 1925 3103 
Q 1463 3103 1205 2759 
Q 947 2416 947 1791 
Q 947 1169 1205 825 
Q 1463 481 1925 481 
Q 2391 481 2648 825 
Q 2906 1169 2906 1791 
z
M 3481 434 
Q 3481 -459 3084 -895 
Q 2688 -1331 1869 -1331 
Q 1566 -1331 1297 -1286 
Q 1028 -1241 775 -1147 
L 775 -588 
Q 1028 -725 1275 -790 
Q 1522 -856 1778 -856 
Q 2344 -856 2625 -561 
Q 2906 -266 2906 331 
L 2906 616 
Q 2728 306 2450 153 
Q 2172 0 1784 0 
Q 1141 0 747 490 
Q 353 981 353 1791 
Q 353 2603 747 3093 
Q 1141 3584 1784 3584 
Q 2172 3584 2450 3431 
Q 2728 3278 2906 2969 
L 2906 3500 
L 3481 3500 
L 3481 434 
z
" transform="scale(0.015625)"/>
      <path id="DejaVuSans-56" d="M 1831 0 
L 50 4666 
L 709 4666 
L 2188 738 
L 3669 4666 
L 4325 4666 
L 2547 0 
L 1831 0 
z
" transform="scale(0.015625)"/>
     </defs>
     <use xlink:href="#DejaVuSans-44"/>
     <use xlink:href="#DejaVuSans-61" x="77.001953"/>
     <use xlink:href="#DejaVuSans-69" x="138.28125"/>
     <use xlink:href="#DejaVuSans-6c" x="166.064453"/>
     <use xlink:href="#DejaVuSans-79" x="193.847656"/>
     <use xlink:href="#DejaVuSans-20" x="253.027344"/>
     <use xlink:href="#DejaVuSans-43" x="284.814453"/>
     <use xlink:href="#DejaVuSans-6f" x="354.638672"/>
     <use xlink:href="#DejaVuSans-6e" x="415.820312"/>
     <use xlink:href="#DejaVuSans-66" x="479.199219"/>
     <use xlink:href="#DejaVuSans-69" x="514.404297"/>
     <use xlink:href="#DejaVuSans-72" x="542.1875"/>
     <use xlink:href="#DejaVuSans-6d" x="581.550781"/>
     <use xlink:href="#DejaVuSans-65" x="678.962891"/>
     <use xlink:href="#DejaVuSans-64" x="740.486328"/>
     <use xlink:href="#DejaVuSans-20" x="803.962891"/>
     <use xlink:href="#DejaVuSans-43" x="835.75"/>
     <use xlink:href="#DejaVuSans-61" x="905.574219"/>
     <use xlink:href="#DejaVuSans-73" x="966.853516"/>
     <use xlink:href="#DejaVuSans-65" x="1018.953125"/>
     <use xlink:href="#DejaVuSans-73" x="1080.476562"/>
     <use xlink:href="#DejaVuSans-20" x="1132.576172"/>
     <use xlink:href="#DejaVuSans-46" x="1164.363281"/>
     <use xlink:href="#DejaVuSans-6f" x="1218.257812"/>
     <use xlink:href="#DejaVuSans-72" x="1279.439453"/>
     <use xlink:href="#DejaVuSans-65" x="1318.302734"/>
     <use xlink:href="#DejaVuSans-63" x="1379.826172"/>
     <use xlink:href="#DejaVuSans-61" x="1434.806641"/>
     <use xlink:href="#DejaVuSans-73" x="1496.085938"/>
     <use xlink:href="#DejaVuSans-74" x="1548.185547"/>
     <use xlink:href="#DejaVuSans-69" x="1587.394531"/>
     <use xlink:href="#DejaVuSans-6e" x="1615.177734"/>
     <use xlink:href="#DejaVuSans-67" x="1678.556641"/>
     <use xlink:href="#DejaVuSans-20" x="1742.033203"/>
     <use xlink:href="#DejaVuSans-2d" x="1773.820312"/>
     <use xlink:href="#DejaVuSans-20" x="1809.904297"/>
     <use xlink:href="#DejaVuSans-56" x="1841.691406"/>
     <use xlink:href="#DejaVuSans-65" x="1902.349609"/>
     <use xlink:href="#DejaVuSans-72" x="1963.873047"/>
     <use xlink:href="#DejaVuSans-6d" x="2003.236328"/>
     <use xlink:href="#DejaVuSans-6f" x="2100.648438"/>
     <use xlink:href="#DejaVuSans-6e" x="2161.830078"/>
     <use xlink:href="#DejaVuSans-74" x="2225.208984"/>
    </g>
    <!-- ARIMA (0, 1, 1)x(1, 0, 0, 7) (R2 = 0.488106) -->
    <g transform="translate(577.265938 29.7555)scale(0.12 -0.12)">
     <defs>
      <path id="DejaVuSans-41" d="M 2188 4044 
L 1331 1722 
L 3047 1722 
L 2188 4044 
z
M 1831 4666 
L 2547 4666 
L 4325 0 
L 3669 0 
L 3244 1197 
L 1141 1197 
L 716 0 
L 50 0 
L 1831 4666 
z
" transform="scale(0.015625)"/>
      <path id="DejaVuSans-52" d="M 2841 2188 
Q 3044 2119 3236 1894 
Q 3428 1669 3622 1275 
L 4263 0 
L 3584 0 
L 2988 1197 
Q 2756 1666 2539 1819 
Q 2322 1972 1947 1972 
L 1259 1972 
L 1259 0 
L 628 0 
L 628 4666 
L 2053 4666 
Q 2853 4666 3247 4331 
Q 3641 3997 3641 3322 
Q 3641 2881 3436 2590 
Q 3231 2300 2841 2188 
z
M 1259 4147 
L 1259 2491 
L 2053 2491 
Q 2509 2491 2742 2702 
Q 2975 2913 2975 3322 
Q 2975 3731 2742 3939 
Q 2509 4147 2053 4147 
L 1259 4147 
z
" transform="scale(0.015625)"/>
      <path id="DejaVuSans-49" d="M 628 4666 
L 1259 4666 
L 1259 0 
L 628 0 
L 628 4666 
z
" transform="scale(0.015625)"/>
      <path id="DejaVuSans-4d" d="M 628 4666 
L 1569 4666 
L 2759 1491 
L 3956 4666 
L 4897 4666 
L 4897 0 
L 4281 0 
L 4281 4097 
L 3078 897 
L 2444 897 
L 1241 4097 
L 1241 0 
L 628 0 
L 628 4666 
z
" transform="scale(0.015625)"/>
      <path id="DejaVuSans-28" d="M 1984 4856 
Q 1566 4138 1362 3434 
Q 1159 2731 1159 2009 
Q 1159 1288 1364 580 
Q 1569 -128 1984 -844 
L 1484 -844 
Q 1016 -109 783 600 
Q 550 1309 550 2009 
Q 550 2706 781 3412 
Q 1013 4119 1484 4856 
L 1984 4856 
z
" transform="scale(0.015625)"/>
      <path id="DejaVuSans-2c" d="M 750 794 
L 1409 794 
L 1409 256 
L 897 -744 
L 494 -744 
L 750 256 
L 750 794 
z
" transform="scale(0.015625)"/>
      <path id="DejaVuSans-29" d="M 513 4856 
L 1013 4856 
Q 1481 4119 1714 3412 
Q 1947 2706 1947 2009 
Q 1947 1309 1714 600 
Q 1481 -109 1013 -844 
L 513 -844 
Q 928 -128 1133 580 
Q 1338 1288 1338 2009 
Q 1338 2731 1133 3434 
Q 928 4138 513 4856 
z
" transform="scale(0.015625)"/>
      <path id="DejaVuSans-78" d="M 3513 3500 
L 2247 1797 
L 3578 0 
L 2900 0 
L 1881 1375 
L 863 0 
L 184 0 
L 1544 1831 
L 300 3500 
L 978 3500 
L 1906 2253 
L 2834 3500 
L 3513 3500 
z
" transform="scale(0.015625)"/>
      <path id="DejaVuSans-3d" d="M 678 2906 
L 4684 2906 
L 4684 2381 
L 678 2381 
L 678 2906 
z
M 678 1631 
L 4684 1631 
L 4684 1100 
L 678 1100 
L 678 1631 
z
" transform="scale(0.015625)"/>
      <path id="DejaVuSans-2e" d="M 684 794 
L 1344 794 
L 1344 0 
L 684 0 
L 684 794 
z
" transform="scale(0.015625)"/>
      <path id="DejaVuSans-38" d="M 2034 2216 
Q 1584 2216 1326 1975 
Q 1069 1734 1069 1313 
Q 1069 891 1326 650 
Q 1584 409 2034 409 
Q 2484 409 2743 651 
Q 3003 894 3003 1313 
Q 3003 1734 2745 1975 
Q 2488 2216 2034 2216 
z
M 1403 2484 
Q 997 2584 770 2862 
Q 544 3141 544 3541 
Q 544 4100 942 4425 
Q 1341 4750 2034 4750 
Q 2731 4750 3128 4425 
Q 3525 4100 3525 3541 
Q 3525 3141 3298 2862 
Q 3072 2584 2669 2484 
Q 3125 2378 3379 2068 
Q 3634 1759 3634 1313 
Q 3634 634 3220 271 
Q 2806 -91 2034 -91 
Q 1263 -91 848 271 
Q 434 634 434 1313 
Q 434 1759 690 2068 
Q 947 2378 1403 2484 
z
M 1172 3481 
Q 1172 3119 1398 2916 
Q 1625 2713 2034 2713 
Q 2441 2713 2670 2916 
Q 2900 3119 2900 3481 
Q 2900 3844 2670 4047 
Q 2441 4250 2034 4250 
Q 1625 4250 1398 4047 
Q 1172 3844 1172 3481 
z
" transform="scale(0.015625)"/>
      <path id="DejaVuSans-36" d="M 2113 2584 
Q 1688 2584 1439 2293 
Q 1191 2003 1191 1497 
Q 1191 994 1439 701 
Q 1688 409 2113 409 
Q 2538 409 2786 701 
Q 3034 994 3034 1497 
Q 3034 2003 2786 2293 
Q 2538 2584 2113 2584 
z
M 3366 4563 
L 3366 3988 
Q 3128 4100 2886 4159 
Q 2644 4219 2406 4219 
Q 1781 4219 1451 3797 
Q 1122 3375 1075 2522 
Q 1259 2794 1537 2939 
Q 1816 3084 2150 3084 
Q 2853 3084 3261 2657 
Q 3669 2231 3669 1497 
Q 3669 778 3244 343 
Q 2819 -91 2113 -91 
Q 1303 -91 875 529 
Q 447 1150 447 2328 
Q 447 3434 972 4092 
Q 1497 4750 2381 4750 
Q 2619 4750 2861 4703 
Q 3103 4656 3366 4563 
z
" transform="scale(0.015625)"/>
     </defs>
     <use xlink:href="#DejaVuSans-41"/>
     <use xlink:href="#DejaVuSans-52" x="68.408203"/>
     <use xlink:href="#DejaVuSans-49" x="137.890625"/>
     <use xlink:href="#DejaVuSans-4d" x="167.382812"/>
     <use xlink:href="#DejaVuSans-41" x="253.662109"/>
     <use xlink:href="#DejaVuSans-20" x="322.070312"/>
     <use xlink:href="#DejaVuSans-28" x="353.857422"/>
     <use xlink:href="#DejaVuSans-30" x="392.871094"/>
     <use xlink:href="#DejaVuSans-2c" x="456.494141"/>
     <use xlink:href="#DejaVuSans-20" x="488.28125"/>
     <use xlink:href="#DejaVuSans-31" x="520.068359"/>
     <use xlink:href="#DejaVuSans-2c" x="583.691406"/>
     <use xlink:href="#DejaVuSans-20" x="615.478516"/>
     <use xlink:href="#DejaVuSans-31" x="647.265625"/>
     <use xlink:href="#DejaVuSans-29" x="710.888672"/>
     <use xlink:href="#DejaVuSans-78" x="749.902344"/>
     <use xlink:href="#DejaVuSans-28" x="809.082031"/>
     <use xlink:href="#DejaVuSans-31" x="848.095703"/>
     <use xlink:href="#DejaVuSans-2c" x="911.71875"/>
     <use xlink:href="#DejaVuSans-20" x="943.505859"/>
     <use xlink:href="#DejaVuSans-30" x="975.292969"/>
     <use xlink:href="#DejaVuSans-2c" x="1038.916016"/>
     <use xlink:href="#DejaVuSans-20" x="1070.703125"/>
     <use xlink:href="#DejaVuSans-30" x="1102.490234"/>
     <use xlink:href="#DejaVuSans-2c" x="1166.113281"/>
     <use xlink:href="#DejaVuSans-20" x="1197.900391"/>
     <use xlink:href="#DejaVuSans-37" x="1229.6875"/>
     <use xlink:href="#DejaVuSans-29" x="1293.310547"/>
     <use xlink:href="#DejaVuSans-20" x="1332.324219"/>
     <use xlink:href="#DejaVuSans-28" x="1364.111328"/>
     <use xlink:href="#DejaVuSans-52" x="1403.125"/>
     <use xlink:href="#DejaVuSans-32" x="1472.607422"/>
     <use xlink:href="#DejaVuSans-20" x="1536.230469"/>
     <use xlink:href="#DejaVuSans-3d" x="1568.017578"/>
     <use xlink:href="#DejaVuSans-20" x="1651.806641"/>
     <use xlink:href="#DejaVuSans-30" x="1683.59375"/>
     <use xlink:href="#DejaVuSans-2e" x="1747.216797"/>
     <use xlink:href="#DejaVuSans-34" x="1779.003906"/>
     <use xlink:href="#DejaVuSans-38" x="1842.626953"/>
     <use xlink:href="#DejaVuSans-38" x="1906.25"/>
     <use xlink:href="#DejaVuSans-31" x="1969.873047"/>
     <use xlink:href="#DejaVuSans-30" x="2033.496094"/>
     <use xlink:href="#DejaVuSans-36" x="2097.119141"/>
     <use xlink:href="#DejaVuSans-29" x="2160.742188"/>
    </g>
   </g>
   <g id="legend_1">
    <g id="patch_7">
     <path d="M 1274.770313 87.789875 
L 1371.85 87.789875 
Q 1373.85 87.789875 1373.85 85.789875 
L 1373.85 42.7555 
Q 1373.85 40.7555 1371.85 40.7555 
L 1274.770313 40.7555 
Q 1272.770313 40.7555 1272.770313 42.7555 
L 1272.770313 85.789875 
Q 1272.770313 87.789875 1274.770313 87.789875 
z
" style="fill: #ffffff; opacity: 0.8; stroke: #cccccc; stroke-linejoin: miter"/>
    </g>
    <g id="line2d_21">
     <path d="M 1276.770313 48.853937 
L 1286.770313 48.853937 
L 1296.770313 48.853937 
" style="fill: none; stroke: #0000ff; stroke-width: 1.5; stroke-linecap: square"/>
    </g>
    <g id="text_19">
     <!-- Actual Value -->
     <g transform="translate(1304.770313 52.353937)scale(0.1 -0.1)">
      <defs>
       <path id="DejaVuSans-75" d="M 544 1381 
L 544 3500 
L 1119 3500 
L 1119 1403 
Q 1119 906 1312 657 
Q 1506 409 1894 409 
Q 2359 409 2629 706 
Q 2900 1003 2900 1516 
L 2900 3500 
L 3475 3500 
L 3475 0 
L 2900 0 
L 2900 538 
Q 2691 219 2414 64 
Q 2138 -91 1772 -91 
Q 1169 -91 856 284 
Q 544 659 544 1381 
z
M 1991 3584 
L 1991 3584 
z
" transform="scale(0.015625)"/>
      </defs>
      <use xlink:href="#DejaVuSans-41"/>
      <use xlink:href="#DejaVuSans-63" x="66.658203"/>
      <use xlink:href="#DejaVuSans-74" x="121.638672"/>
      <use xlink:href="#DejaVuSans-75" x="160.847656"/>
      <use xlink:href="#DejaVuSans-61" x="224.226562"/>
      <use xlink:href="#DejaVuSans-6c" x="285.505859"/>
      <use xlink:href="#DejaVuSans-20" x="313.289062"/>
      <use xlink:href="#DejaVuSans-56" x="345.076172"/>
      <use xlink:href="#DejaVuSans-61" x="405.734375"/>
      <use xlink:href="#DejaVuSans-6c" x="467.013672"/>
      <use xlink:href="#DejaVuSans-75" x="494.796875"/>
      <use xlink:href="#DejaVuSans-65" x="558.175781"/>
     </g>
    </g>
    <g id="line2d_22">
     <path d="M 1276.770313 63.532062 
L 1286.770313 63.532062 
L 1296.770313 63.532062 
" style="fill: none; stroke: #ffa500; stroke-width: 1.5; stroke-linecap: square"/>
    </g>
    <g id="text_20">
     <!-- Check Value -->
     <g transform="translate(1304.770313 67.032062)scale(0.1 -0.1)">
      <defs>
       <path id="DejaVuSans-68" d="M 3513 2113 
L 3513 0 
L 2938 0 
L 2938 2094 
Q 2938 2591 2744 2837 
Q 2550 3084 2163 3084 
Q 1697 3084 1428 2787 
Q 1159 2491 1159 1978 
L 1159 0 
L 581 0 
L 581 4863 
L 1159 4863 
L 1159 2956 
Q 1366 3272 1645 3428 
Q 1925 3584 2291 3584 
Q 2894 3584 3203 3211 
Q 3513 2838 3513 2113 
z
" transform="scale(0.015625)"/>
       <path id="DejaVuSans-6b" d="M 581 4863 
L 1159 4863 
L 1159 1991 
L 2875 3500 
L 3609 3500 
L 1753 1863 
L 3688 0 
L 2938 0 
L 1159 1709 
L 1159 0 
L 581 0 
L 581 4863 
z
" transform="scale(0.015625)"/>
      </defs>
      <use xlink:href="#DejaVuSans-43"/>
      <use xlink:href="#DejaVuSans-68" x="69.824219"/>
      <use xlink:href="#DejaVuSans-65" x="133.203125"/>
      <use xlink:href="#DejaVuSans-63" x="194.726562"/>
      <use xlink:href="#DejaVuSans-6b" x="249.707031"/>
      <use xlink:href="#DejaVuSans-20" x="307.617188"/>
      <use xlink:href="#DejaVuSans-56" x="339.404297"/>
      <use xlink:href="#DejaVuSans-61" x="400.0625"/>
      <use xlink:href="#DejaVuSans-6c" x="461.341797"/>
      <use xlink:href="#DejaVuSans-75" x="489.125"/>
      <use xlink:href="#DejaVuSans-65" x="552.503906"/>
     </g>
    </g>
    <g id="line2d_23">
     <path d="M 1276.770313 78.210187 
L 1286.770313 78.210187 
L 1296.770313 78.210187 
" style="fill: none; stroke: #ff0000; stroke-width: 1.5; stroke-linecap: square"/>
    </g>
    <g id="text_21">
     <!-- Predict Value -->
     <g transform="translate(1304.770313 81.710187)scale(0.1 -0.1)">
      <defs>
       <path id="DejaVuSans-50" d="M 1259 4147 
L 1259 2394 
L 2053 2394 
Q 2494 2394 2734 2622 
Q 2975 2850 2975 3272 
Q 2975 3691 2734 3919 
Q 2494 4147 2053 4147 
L 1259 4147 
z
M 628 4666 
L 2053 4666 
Q 2838 4666 3239 4311 
Q 3641 3956 3641 3272 
Q 3641 2581 3239 2228 
Q 2838 1875 2053 1875 
L 1259 1875 
L 1259 0 
L 628 0 
L 628 4666 
z
" transform="scale(0.015625)"/>
      </defs>
      <use xlink:href="#DejaVuSans-50"/>
      <use xlink:href="#DejaVuSans-72" x="58.552734"/>
      <use xlink:href="#DejaVuSans-65" x="97.416016"/>
      <use xlink:href="#DejaVuSans-64" x="158.939453"/>
      <use xlink:href="#DejaVuSans-69" x="222.416016"/>
      <use xlink:href="#DejaVuSans-63" x="250.199219"/>
      <use xlink:href="#DejaVuSans-74" x="305.179688"/>
      <use xlink:href="#DejaVuSans-20" x="344.388672"/>
      <use xlink:href="#DejaVuSans-56" x="376.175781"/>
      <use xlink:href="#DejaVuSans-61" x="436.833984"/>
      <use xlink:href="#DejaVuSans-6c" x="498.113281"/>
      <use xlink:href="#DejaVuSans-75" x="525.896484"/>
      <use xlink:href="#DejaVuSans-65" x="589.275391"/>
     </g>
    </g>
   </g>
  </g>
 </g>
 <defs>
  <clipPath id="p6db8863507">
   <rect x="39.65" y="35.7555" width="1339.2" height="332.64"/>
  </clipPath>
 </defs>
</svg>
