<?xml version="1.0" encoding="utf-8" standalone="no"?>
<!DOCTYPE svg PUBLIC "-//W3C//DTD SVG 1.1//EN"
  "http://www.w3.org/Graphics/SVG/1.1/DTD/svg11.dtd">
<svg xmlns:xlink="http://www.w3.org/1999/xlink" width="1392.4125pt" height="392.273625pt" viewBox="0 0 1392.4125 392.273625" xmlns="http://www.w3.org/2000/svg" version="1.1">
 <metadata>
  <rdf:RDF xmlns:dc="http://purl.org/dc/elements/1.1/" xmlns:cc="http://creativecommons.org/ns#" xmlns:rdf="http://www.w3.org/1999/02/22-rdf-syntax-ns#">
   <cc:Work>
    <dc:type rdf:resource="http://purl.org/dc/dcmitype/StillImage"/>
    <dc:date>2022-06-24T17:29:56.056901</dc:date>
    <dc:format>image/svg+xml</dc:format>
    <dc:creator>
     <cc:Agent>
      <dc:title>Matplotlib v3.5.2, https://matplotlib.org/</dc:title>
     </cc:Agent>
    </dc:creator>
   </cc:Work>
  </rdf:RDF>
 </metadata>
 <defs>
  <style type="text/css">*{stroke-linejoin: round; stroke-linecap: butt}</style>
 </defs>
 <g id="figure_1">
  <g id="patch_1">
   <path d="M 0 392.273625 
L 1392.4125 392.273625 
L 1392.4125 0 
L 0 0 
z
" style="fill: #ffffff"/>
  </g>
  <g id="axes_1">
   <g id="patch_2">
    <path d="M 46.0125 368.3955 
L 1385.2125 368.3955 
L 1385.2125 35.7555 
L 46.0125 35.7555 
z
" style="fill: #ffffff"/>
   </g>
   <g id="matplotlib.axis_1">
    <g id="xtick_1">
     <g id="line2d_1">
      <defs>
       <path id="mef153aa12b" d="M 0 0 
L 0 3.5 
" style="stroke: #000000; stroke-width: 0.8"/>
      </defs>
      <g>
       <use xlink:href="#mef153aa12b" x="76.95897" y="368.3955" style="stroke: #000000; stroke-width: 0.8"/>
      </g>
     </g>
     <g id="text_1">
      <!-- 2020-01 -->
      <g transform="translate(56.067564 382.993937)scale(0.1 -0.1)">
       <defs>
        <path id="DejaVuSans-32" d="M 1228 531 
L 3431 531 
L 3431 0 
L 469 0 
L 469 531 
Q 828 903 1448 1529 
Q 2069 2156 2228 2338 
Q 2531 2678 2651 2914 
Q 2772 3150 2772 3378 
Q 2772 3750 2511 3984 
Q 2250 4219 1831 4219 
Q 1534 4219 1204 4116 
Q 875 4013 500 3803 
L 500 4441 
Q 881 4594 1212 4672 
Q 1544 4750 1819 4750 
Q 2544 4750 2975 4387 
Q 3406 4025 3406 3419 
Q 3406 3131 3298 2873 
Q 3191 2616 2906 2266 
Q 2828 2175 2409 1742 
Q 1991 1309 1228 531 
z
" transform="scale(0.015625)"/>
        <path id="DejaVuSans-30" d="M 2034 4250 
Q 1547 4250 1301 3770 
Q 1056 3291 1056 2328 
Q 1056 1369 1301 889 
Q 1547 409 2034 409 
Q 2525 409 2770 889 
Q 3016 1369 3016 2328 
Q 3016 3291 2770 3770 
Q 2525 4250 2034 4250 
z
M 2034 4750 
Q 2819 4750 3233 4129 
Q 3647 3509 3647 2328 
Q 3647 1150 3233 529 
Q 2819 -91 2034 -91 
Q 1250 -91 836 529 
Q 422 1150 422 2328 
Q 422 3509 836 4129 
Q 1250 4750 2034 4750 
z
" transform="scale(0.015625)"/>
        <path id="DejaVuSans-2d" d="M 313 2009 
L 1997 2009 
L 1997 1497 
L 313 1497 
L 313 2009 
z
" transform="scale(0.015625)"/>
        <path id="DejaVuSans-31" d="M 794 531 
L 1825 531 
L 1825 4091 
L 703 3866 
L 703 4441 
L 1819 4666 
L 2450 4666 
L 2450 531 
L 3481 531 
L 3481 0 
L 794 0 
L 794 531 
z
" transform="scale(0.015625)"/>
       </defs>
       <use xlink:href="#DejaVuSans-32"/>
       <use xlink:href="#DejaVuSans-30" x="63.623047"/>
       <use xlink:href="#DejaVuSans-32" x="127.246094"/>
       <use xlink:href="#DejaVuSans-30" x="190.869141"/>
       <use xlink:href="#DejaVuSans-2d" x="254.492188"/>
       <use xlink:href="#DejaVuSans-30" x="290.576172"/>
       <use xlink:href="#DejaVuSans-31" x="354.199219"/>
      </g>
     </g>
    </g>
    <g id="xtick_2">
     <g id="line2d_2">
      <g>
       <use xlink:href="#mef153aa12b" x="200.744851" y="368.3955" style="stroke: #000000; stroke-width: 0.8"/>
      </g>
     </g>
     <g id="text_2">
      <!-- 2020-04 -->
      <g transform="translate(179.853445 382.993937)scale(0.1 -0.1)">
       <defs>
        <path id="DejaVuSans-34" d="M 2419 4116 
L 825 1625 
L 2419 1625 
L 2419 4116 
z
M 2253 4666 
L 3047 4666 
L 3047 1625 
L 3713 1625 
L 3713 1100 
L 3047 1100 
L 3047 0 
L 2419 0 
L 2419 1100 
L 313 1100 
L 313 1709 
L 2253 4666 
z
" transform="scale(0.015625)"/>
       </defs>
       <use xlink:href="#DejaVuSans-32"/>
       <use xlink:href="#DejaVuSans-30" x="63.623047"/>
       <use xlink:href="#DejaVuSans-32" x="127.246094"/>
       <use xlink:href="#DejaVuSans-30" x="190.869141"/>
       <use xlink:href="#DejaVuSans-2d" x="254.492188"/>
       <use xlink:href="#DejaVuSans-30" x="290.576172"/>
       <use xlink:href="#DejaVuSans-34" x="354.199219"/>
      </g>
     </g>
    </g>
    <g id="xtick_3">
     <g id="line2d_3">
      <g>
       <use xlink:href="#mef153aa12b" x="324.530733" y="368.3955" style="stroke: #000000; stroke-width: 0.8"/>
      </g>
     </g>
     <g id="text_3">
      <!-- 2020-07 -->
      <g transform="translate(303.639326 382.993937)scale(0.1 -0.1)">
       <defs>
        <path id="DejaVuSans-37" d="M 525 4666 
L 3525 4666 
L 3525 4397 
L 1831 0 
L 1172 0 
L 2766 4134 
L 525 4134 
L 525 4666 
z
" transform="scale(0.015625)"/>
       </defs>
       <use xlink:href="#DejaVuSans-32"/>
       <use xlink:href="#DejaVuSans-30" x="63.623047"/>
       <use xlink:href="#DejaVuSans-32" x="127.246094"/>
       <use xlink:href="#DejaVuSans-30" x="190.869141"/>
       <use xlink:href="#DejaVuSans-2d" x="254.492188"/>
       <use xlink:href="#DejaVuSans-30" x="290.576172"/>
       <use xlink:href="#DejaVuSans-37" x="354.199219"/>
      </g>
     </g>
    </g>
    <g id="xtick_4">
     <g id="line2d_4">
      <g>
       <use xlink:href="#mef153aa12b" x="449.676898" y="368.3955" style="stroke: #000000; stroke-width: 0.8"/>
      </g>
     </g>
     <g id="text_4">
      <!-- 2020-10 -->
      <g transform="translate(428.785492 382.993937)scale(0.1 -0.1)">
       <use xlink:href="#DejaVuSans-32"/>
       <use xlink:href="#DejaVuSans-30" x="63.623047"/>
       <use xlink:href="#DejaVuSans-32" x="127.246094"/>
       <use xlink:href="#DejaVuSans-30" x="190.869141"/>
       <use xlink:href="#DejaVuSans-2d" x="254.492188"/>
       <use xlink:href="#DejaVuSans-31" x="290.576172"/>
       <use xlink:href="#DejaVuSans-30" x="354.199219"/>
      </g>
     </g>
    </g>
    <g id="xtick_5">
     <g id="line2d_5">
      <g>
       <use xlink:href="#mef153aa12b" x="574.823064" y="368.3955" style="stroke: #000000; stroke-width: 0.8"/>
      </g>
     </g>
     <g id="text_5">
      <!-- 2021-01 -->
      <g transform="translate(553.931657 382.993937)scale(0.1 -0.1)">
       <use xlink:href="#DejaVuSans-32"/>
       <use xlink:href="#DejaVuSans-30" x="63.623047"/>
       <use xlink:href="#DejaVuSans-32" x="127.246094"/>
       <use xlink:href="#DejaVuSans-31" x="190.869141"/>
       <use xlink:href="#DejaVuSans-2d" x="254.492188"/>
       <use xlink:href="#DejaVuSans-30" x="290.576172"/>
       <use xlink:href="#DejaVuSans-31" x="354.199219"/>
      </g>
     </g>
    </g>
    <g id="xtick_6">
     <g id="line2d_6">
      <g>
       <use xlink:href="#mef153aa12b" x="697.24866" y="368.3955" style="stroke: #000000; stroke-width: 0.8"/>
      </g>
     </g>
     <g id="text_6">
      <!-- 2021-04 -->
      <g transform="translate(676.357254 382.993937)scale(0.1 -0.1)">
       <use xlink:href="#DejaVuSans-32"/>
       <use xlink:href="#DejaVuSans-30" x="63.623047"/>
       <use xlink:href="#DejaVuSans-32" x="127.246094"/>
       <use xlink:href="#DejaVuSans-31" x="190.869141"/>
       <use xlink:href="#DejaVuSans-2d" x="254.492188"/>
       <use xlink:href="#DejaVuSans-30" x="290.576172"/>
       <use xlink:href="#DejaVuSans-34" x="354.199219"/>
      </g>
     </g>
    </g>
    <g id="xtick_7">
     <g id="line2d_7">
      <g>
       <use xlink:href="#mef153aa12b" x="821.034542" y="368.3955" style="stroke: #000000; stroke-width: 0.8"/>
      </g>
     </g>
     <g id="text_7">
      <!-- 2021-07 -->
      <g transform="translate(800.143135 382.993937)scale(0.1 -0.1)">
       <use xlink:href="#DejaVuSans-32"/>
       <use xlink:href="#DejaVuSans-30" x="63.623047"/>
       <use xlink:href="#DejaVuSans-32" x="127.246094"/>
       <use xlink:href="#DejaVuSans-31" x="190.869141"/>
       <use xlink:href="#DejaVuSans-2d" x="254.492188"/>
       <use xlink:href="#DejaVuSans-30" x="290.576172"/>
       <use xlink:href="#DejaVuSans-37" x="354.199219"/>
      </g>
     </g>
    </g>
    <g id="xtick_8">
     <g id="line2d_8">
      <g>
       <use xlink:href="#mef153aa12b" x="946.180707" y="368.3955" style="stroke: #000000; stroke-width: 0.8"/>
      </g>
     </g>
     <g id="text_8">
      <!-- 2021-10 -->
      <g transform="translate(925.289301 382.993937)scale(0.1 -0.1)">
       <use xlink:href="#DejaVuSans-32"/>
       <use xlink:href="#DejaVuSans-30" x="63.623047"/>
       <use xlink:href="#DejaVuSans-32" x="127.246094"/>
       <use xlink:href="#DejaVuSans-31" x="190.869141"/>
       <use xlink:href="#DejaVuSans-2d" x="254.492188"/>
       <use xlink:href="#DejaVuSans-31" x="290.576172"/>
       <use xlink:href="#DejaVuSans-30" x="354.199219"/>
      </g>
     </g>
    </g>
    <g id="xtick_9">
     <g id="line2d_9">
      <g>
       <use xlink:href="#mef153aa12b" x="1071.326873" y="368.3955" style="stroke: #000000; stroke-width: 0.8"/>
      </g>
     </g>
     <g id="text_9">
      <!-- 2022-01 -->
      <g transform="translate(1050.435467 382.993937)scale(0.1 -0.1)">
       <use xlink:href="#DejaVuSans-32"/>
       <use xlink:href="#DejaVuSans-30" x="63.623047"/>
       <use xlink:href="#DejaVuSans-32" x="127.246094"/>
       <use xlink:href="#DejaVuSans-32" x="190.869141"/>
       <use xlink:href="#DejaVuSans-2d" x="254.492188"/>
       <use xlink:href="#DejaVuSans-30" x="290.576172"/>
       <use xlink:href="#DejaVuSans-31" x="354.199219"/>
      </g>
     </g>
    </g>
    <g id="xtick_10">
     <g id="line2d_10">
      <g>
       <use xlink:href="#mef153aa12b" x="1193.75247" y="368.3955" style="stroke: #000000; stroke-width: 0.8"/>
      </g>
     </g>
     <g id="text_10">
      <!-- 2022-04 -->
      <g transform="translate(1172.861063 382.993937)scale(0.1 -0.1)">
       <use xlink:href="#DejaVuSans-32"/>
       <use xlink:href="#DejaVuSans-30" x="63.623047"/>
       <use xlink:href="#DejaVuSans-32" x="127.246094"/>
       <use xlink:href="#DejaVuSans-32" x="190.869141"/>
       <use xlink:href="#DejaVuSans-2d" x="254.492188"/>
       <use xlink:href="#DejaVuSans-30" x="290.576172"/>
       <use xlink:href="#DejaVuSans-34" x="354.199219"/>
      </g>
     </g>
    </g>
    <g id="xtick_11">
     <g id="line2d_11">
      <g>
       <use xlink:href="#mef153aa12b" x="1317.538351" y="368.3955" style="stroke: #000000; stroke-width: 0.8"/>
      </g>
     </g>
     <g id="text_11">
      <!-- 2022-07 -->
      <g transform="translate(1296.646944 382.993937)scale(0.1 -0.1)">
       <use xlink:href="#DejaVuSans-32"/>
       <use xlink:href="#DejaVuSans-30" x="63.623047"/>
       <use xlink:href="#DejaVuSans-32" x="127.246094"/>
       <use xlink:href="#DejaVuSans-32" x="190.869141"/>
       <use xlink:href="#DejaVuSans-2d" x="254.492188"/>
       <use xlink:href="#DejaVuSans-30" x="290.576172"/>
       <use xlink:href="#DejaVuSans-37" x="354.199219"/>
      </g>
     </g>
    </g>
   </g>
   <g id="matplotlib.axis_2">
    <g id="ytick_1">
     <g id="line2d_12">
      <defs>
       <path id="m2996fcf2ae" d="M 0 0 
L -3.5 0 
" style="stroke: #000000; stroke-width: 0.8"/>
      </defs>
      <g>
       <use xlink:href="#m2996fcf2ae" x="46.0125" y="330.060786" style="stroke: #000000; stroke-width: 0.8"/>
      </g>
     </g>
     <g id="text_12">
      <!-- 0 -->
      <g transform="translate(32.65 333.860005)scale(0.1 -0.1)">
       <use xlink:href="#DejaVuSans-30"/>
      </g>
     </g>
    </g>
    <g id="ytick_2">
     <g id="line2d_13">
      <g>
       <use xlink:href="#m2996fcf2ae" x="46.0125" y="267.485637" style="stroke: #000000; stroke-width: 0.8"/>
      </g>
     </g>
     <g id="text_13">
      <!-- 10000 -->
      <g transform="translate(7.2 271.284855)scale(0.1 -0.1)">
       <use xlink:href="#DejaVuSans-31"/>
       <use xlink:href="#DejaVuSans-30" x="63.623047"/>
       <use xlink:href="#DejaVuSans-30" x="127.246094"/>
       <use xlink:href="#DejaVuSans-30" x="190.869141"/>
       <use xlink:href="#DejaVuSans-30" x="254.492188"/>
      </g>
     </g>
    </g>
    <g id="ytick_3">
     <g id="line2d_14">
      <g>
       <use xlink:href="#m2996fcf2ae" x="46.0125" y="204.910487" style="stroke: #000000; stroke-width: 0.8"/>
      </g>
     </g>
     <g id="text_14">
      <!-- 20000 -->
      <g transform="translate(7.2 208.709706)scale(0.1 -0.1)">
       <use xlink:href="#DejaVuSans-32"/>
       <use xlink:href="#DejaVuSans-30" x="63.623047"/>
       <use xlink:href="#DejaVuSans-30" x="127.246094"/>
       <use xlink:href="#DejaVuSans-30" x="190.869141"/>
       <use xlink:href="#DejaVuSans-30" x="254.492188"/>
      </g>
     </g>
    </g>
    <g id="ytick_4">
     <g id="line2d_15">
      <g>
       <use xlink:href="#m2996fcf2ae" x="46.0125" y="142.335338" style="stroke: #000000; stroke-width: 0.8"/>
      </g>
     </g>
     <g id="text_15">
      <!-- 30000 -->
      <g transform="translate(7.2 146.134557)scale(0.1 -0.1)">
       <defs>
        <path id="DejaVuSans-33" d="M 2597 2516 
Q 3050 2419 3304 2112 
Q 3559 1806 3559 1356 
Q 3559 666 3084 287 
Q 2609 -91 1734 -91 
Q 1441 -91 1130 -33 
Q 819 25 488 141 
L 488 750 
Q 750 597 1062 519 
Q 1375 441 1716 441 
Q 2309 441 2620 675 
Q 2931 909 2931 1356 
Q 2931 1769 2642 2001 
Q 2353 2234 1838 2234 
L 1294 2234 
L 1294 2753 
L 1863 2753 
Q 2328 2753 2575 2939 
Q 2822 3125 2822 3475 
Q 2822 3834 2567 4026 
Q 2313 4219 1838 4219 
Q 1578 4219 1281 4162 
Q 984 4106 628 3988 
L 628 4550 
Q 988 4650 1302 4700 
Q 1616 4750 1894 4750 
Q 2613 4750 3031 4423 
Q 3450 4097 3450 3541 
Q 3450 3153 3228 2886 
Q 3006 2619 2597 2516 
z
" transform="scale(0.015625)"/>
       </defs>
       <use xlink:href="#DejaVuSans-33"/>
       <use xlink:href="#DejaVuSans-30" x="63.623047"/>
       <use xlink:href="#DejaVuSans-30" x="127.246094"/>
       <use xlink:href="#DejaVuSans-30" x="190.869141"/>
       <use xlink:href="#DejaVuSans-30" x="254.492188"/>
      </g>
     </g>
    </g>
    <g id="ytick_5">
     <g id="line2d_16">
      <g>
       <use xlink:href="#m2996fcf2ae" x="46.0125" y="79.760189" style="stroke: #000000; stroke-width: 0.8"/>
      </g>
     </g>
     <g id="text_16">
      <!-- 40000 -->
      <g transform="translate(7.2 83.559408)scale(0.1 -0.1)">
       <use xlink:href="#DejaVuSans-34"/>
       <use xlink:href="#DejaVuSans-30" x="63.623047"/>
       <use xlink:href="#DejaVuSans-30" x="127.246094"/>
       <use xlink:href="#DejaVuSans-30" x="190.869141"/>
       <use xlink:href="#DejaVuSans-30" x="254.492188"/>
      </g>
     </g>
    </g>
   </g>
   <g id="line2d_17">
    <path d="M 106.885227 330.060786 
L 177.620017 330.060786 
L 178.980301 329.860545 
L 180.340585 330.023241 
L 181.70087 329.948151 
L 183.061154 329.985696 
L 188.502292 329.641532 
L 189.862576 329.891833 
L 191.222861 329.904348 
L 192.583145 329.69785 
L 195.303714 329.779198 
L 198.024283 329.603987 
L 199.384567 329.729138 
L 202.105136 329.729138 
L 203.46542 329.77294 
L 204.825705 329.578957 
L 207.546273 329.741653 
L 208.906558 329.541412 
L 214.347696 329.491352 
L 215.70798 328.846828 
L 217.068264 330.060786 
L 218.428549 329.59773 
L 219.788833 329.347429 
L 221.149118 330.060786 
L 222.509402 328.427574 
L 223.869686 329.190991 
L 225.229971 329.140931 
L 227.95054 329.453807 
L 230.671108 328.684133 
L 233.391677 328.427574 
L 234.751962 329.084614 
L 236.112246 328.752965 
L 237.47253 327.745505 
L 238.832815 327.163556 
L 240.193099 326.982088 
L 241.553384 326.343822 
L 242.913668 326.919513 
L 244.273953 327.363797 
L 245.634237 326.487745 
L 246.994521 326.199899 
L 248.354806 325.505315 
L 249.71509 325.142379 
L 251.075375 325.536603 
L 252.435659 325.66801 
L 253.795943 327.050921 
L 255.156228 326.756818 
L 256.516512 325.711813 
L 257.876797 327.413857 
L 259.237081 326.819393 
L 260.597365 325.023486 
L 261.95765 325.499057 
L 263.317934 325.686783 
L 264.678219 325.655495 
L 266.038503 325.949599 
L 267.398787 326.049719 
L 268.759072 326.744303 
L 270.119356 325.023486 
L 271.479641 324.804473 
L 272.839925 325.505315 
L 274.200209 325.41771 
L 275.560494 326.024689 
L 276.920778 326.906998 
L 278.281063 327.038406 
L 279.641347 326.406397 
L 281.001632 325.937084 
L 282.361916 325.930826 
L 283.7222 327.820595 
L 285.082485 328.183531 
L 286.442769 327.795565 
L 287.803054 327.539007 
L 289.163338 325.636723 
L 290.523622 326.800621 
L 291.883907 327.651643 
L 294.604476 328.189789 
L 295.96476 327.895686 
L 297.325044 327.263677 
L 298.685329 327.063436 
L 300.045613 327.701703 
L 302.766182 328.671618 
L 304.126466 328.878116 
L 305.486751 327.470175 
L 308.20732 327.833111 
L 309.567604 327.332509 
L 310.927889 327.226132 
L 312.288173 328.139729 
L 313.648457 328.546467 
L 316.369026 327.80808 
L 317.729311 326.975831 
L 319.089595 327.451402 
L 320.449879 326.831908 
L 321.810164 328.108441 
L 323.170448 327.294964 
L 324.530733 327.476432 
L 325.891017 326.969573 
L 327.251301 327.470175 
L 328.611586 330.060786 
L 329.97187 326.856938 
L 331.332155 327.351282 
L 332.692439 326.531547 
L 334.052723 327.207359 
L 335.413008 326.468972 
L 336.773292 326.281247 
L 338.133577 325.029744 
L 339.493861 325.61795 
L 340.854146 326.988346 
L 342.21443 327.570295 
L 343.574714 326.481487 
L 344.934999 326.274989 
L 346.295283 325.893281 
L 347.655568 327.201102 
L 349.015852 325.46777 
L 350.376136 324.41025 
L 351.736421 327.870656 
L 353.096705 326.906998 
L 354.45699 325.305074 
L 355.817274 325.261272 
L 357.177558 325.036001 
L 358.537843 324.666808 
L 359.898127 325.993401 
L 361.258412 327.069694 
L 362.618696 325.893281 
L 363.97898 325.398937 
L 365.339265 325.236242 
L 366.699549 325.524088 
L 368.059834 325.311332 
L 369.420118 326.224929 
L 370.780402 326.293762 
L 372.140687 326.199899 
L 373.500971 324.673065 
L 374.861256 326.65044 
L 376.22154 324.328902 
L 377.581825 325.073546 
L 378.942109 326.193642 
L 380.302393 328.039609 
L 381.662678 327.157299 
L 383.022962 325.743101 
L 384.383247 325.4928 
L 385.743531 325.743101 
L 387.103815 325.436482 
L 389.824384 327.70796 
L 393.905237 324.898336 
L 395.265522 325.46777 
L 397.986091 325.59292 
L 399.346375 327.501462 
L 400.706659 326.75056 
L 402.066944 322.839614 
L 403.427228 324.741898 
L 404.787513 323.696893 
L 406.147797 324.228782 
L 407.508082 325.836963 
L 408.868366 326.988346 
L 410.22865 325.4928 
L 411.588935 323.565485 
L 412.949219 324.785701 
L 414.309504 324.341417 
L 415.669788 325.636723 
L 417.030072 326.068491 
L 418.390357 327.664158 
L 419.750641 328.433832 
L 421.110926 327.676673 
L 422.47121 327.138526 
L 423.831494 324.604233 
L 425.191779 325.536603 
L 426.552063 326.068491 
L 427.912348 327.545265 
L 429.272632 327.169814 
L 430.632916 324.372705 
L 431.993201 323.271382 
L 433.353485 324.341417 
L 434.71377 321.951046 
L 436.074054 324.272585 
L 437.434338 327.057179 
L 438.794623 325.818191 
L 440.154907 324.353932 
L 441.515192 322.695691 
L 442.875476 320.862239 
L 444.235761 323.333957 
L 445.596045 324.403992 
L 446.956329 324.998456 
L 448.316614 325.761873 
L 449.676898 323.390275 
L 451.037183 322.764523 
L 452.397467 321.168857 
L 453.757751 323.559228 
L 455.118036 323.972224 
L 457.838605 324.36019 
L 459.198889 322.107484 
L 461.919458 320.574393 
L 463.279742 321.049964 
L 464.640027 322.733236 
L 466.000311 322.958506 
L 467.360595 321.494248 
L 468.72088 322.783296 
L 470.081164 315.731077 
L 471.441449 319.460556 
L 472.801733 319.285345 
L 474.162018 319.879809 
L 475.522302 323.22758 
L 476.882586 323.42782 
L 478.242871 320.292805 
L 479.603155 319.354178 
L 480.96344 315.92506 
L 482.323724 319.548161 
L 483.684008 320.236487 
L 485.044293 316.519524 
L 486.404577 318.121447 
L 487.764862 312.120491 
L 489.125146 310.324584 
L 490.48543 311.244438 
L 491.845715 316.294253 
L 493.205999 311.613632 
L 494.566284 308.309664 
L 495.926568 306.113276 
L 497.286852 305.393662 
L 498.647137 296.00739 
L 500.007421 300.982114 
L 501.367706 293.091388 
L 502.72799 305.493782 
L 504.088275 299.442765 
L 505.448559 299.467795 
L 506.808843 284.850241 
L 508.169128 295.369123 
L 509.529412 275.689239 
L 510.889697 282.797776 
L 512.249981 283.523647 
L 513.610265 292.947465 
L 514.97055 298.185005 
L 516.330834 280.857946 
L 517.691119 287.547229 
L 519.051403 290.938803 
L 520.411687 284.975391 
L 521.771972 290.369369 
L 523.132256 289.91257 
L 524.492541 290.094038 
L 525.852825 330.060786 
L 527.213109 294.405466 
L 528.573394 273.605486 
L 529.933678 274.081057 
L 531.293963 293.804744 
L 532.654247 307.852865 
L 534.014531 297.740721 
L 535.374816 291.583327 
L 536.7351 296.601854 
L 538.095385 290.588382 
L 539.455669 295.137595 
L 540.815954 296.958532 
L 542.176238 310.969108 
L 543.536522 301.801848 
L 544.896807 308.165741 
L 546.257091 306.595105 
L 547.617376 302.339995 
L 548.97766 308.628797 
L 550.337944 311.175606 
L 551.698229 315.524579 
L 553.058513 315.993892 
L 554.418798 312.796302 
L 555.779082 313.05286 
L 557.139366 312.87765 
L 558.499651 313.265616 
L 559.859935 317.595816 
L 561.22022 319.42301 
L 562.580504 320.624453 
L 563.940788 318.271628 
L 565.301073 330.060786 
L 566.661357 316.657189 
L 568.021642 314.316878 
L 569.381926 323.321442 
L 570.742211 323.978481 
L 572.102495 317.564529 
L 573.462779 316.325541 
L 574.823064 330.060786 
L 576.183348 314.229273 
L 577.543633 313.090405 
L 578.903917 310.387159 
L 580.264201 320.217715 
L 581.624486 315.505806 
L 582.98477 317.652134 
L 584.345055 315.205445 
L 585.705339 314.610981 
L 587.065623 316.550811 
L 588.425908 323.928421 
L 589.786192 321.832154 
L 591.146477 320.755861 
L 592.506761 320.167655 
L 593.867045 319.879809 
L 596.587614 321.719518 
L 597.947899 323.997254 
L 599.308183 324.31013 
L 600.668467 322.401588 
L 602.028752 322.113742 
L 603.389036 320.636968 
L 604.749321 320.424213 
L 607.46989 325.092319 
L 608.830174 325.636723 
L 610.190458 324.885821 
L 611.550743 321.825896 
L 612.911027 323.089914 
L 614.271312 323.35273 
L 615.631596 323.878361 
L 616.99188 325.549118 
L 618.352165 326.281247 
L 619.712449 326.093521 
L 621.072734 321.23769 
L 622.433018 323.50291 
L 623.793302 323.847074 
L 625.153587 324.422765 
L 626.513871 326.531547 
L 627.874156 326.481487 
L 629.23444 325.987144 
L 630.594724 324.441537 
L 631.955009 323.50291 
L 633.315293 324.178722 
L 637.396147 327.232389 
L 638.756431 325.31759 
L 640.116715 324.347675 
L 641.477 323.834558 
L 642.837284 324.616748 
L 644.197569 324.56043 
L 645.557853 326.587865 
L 646.918137 326.932028 
L 649.638706 323.890876 
L 650.998991 322.883416 
L 652.359275 324.979684 
L 653.719559 325.029744 
L 655.079844 326.081006 
L 656.440128 327.401342 
L 657.800413 325.186182 
L 659.160697 324.178722 
L 660.520981 325.079804 
L 661.881266 324.141177 
L 663.24155 324.46031 
L 664.601835 327.107239 
L 665.962119 319.892324 
L 667.322404 324.397735 
L 668.682688 323.221322 
L 670.042972 323.165004 
L 671.403257 322.633116 
L 674.123826 324.892079 
L 675.48411 325.630465 
L 676.844394 323.578 
L 678.204679 320.699544 
L 680.925248 321.425415 
L 682.285532 324.109889 
L 683.645816 322.852129 
L 685.006101 324.710611 
L 686.366385 321.863441 
L 687.72667 318.440581 
L 689.086954 319.429268 
L 690.447238 319.19774 
L 691.807523 322.39533 
L 693.167807 320.361638 
L 694.528092 322.094969 
L 695.888376 319.748401 
L 697.24866 316.682219 
L 698.608945 314.191728 
L 699.969229 317.145275 
L 701.329514 330.060786 
L 702.689798 321.406643 
L 704.050083 311.213151 
L 705.410367 317.570786 
L 706.770651 314.266818 
L 708.130936 313.503401 
L 709.49122 314.736132 
L 710.851505 318.947439 
L 712.211789 317.589559 
L 713.572073 321.563081 
L 714.932358 319.441783 
L 716.292642 312.984028 
L 717.652927 315.749849 
L 719.013211 314.923857 
L 721.73378 322.026137 
L 723.094064 322.645631 
L 724.454349 320.048762 
L 725.814633 317.733481 
L 727.174917 316.519524 
L 728.535202 316.901232 
L 729.895486 320.324093 
L 731.255771 322.57054 
L 732.616055 323.315185 
L 735.336624 318.09016 
L 736.696908 318.334203 
L 738.057193 319.34792 
L 739.417477 319.354178 
L 740.777762 323.146232 
L 742.138046 323.834558 
L 743.49833 322.29521 
L 744.858615 319.729629 
L 746.218899 320.987389 
L 747.579184 322.038652 
L 748.939468 325.036001 
L 750.299752 322.614343 
L 751.660037 326.462715 
L 753.020321 324.372705 
L 754.380606 323.746953 
L 755.74089 321.894729 
L 757.101174 324.604233 
L 758.461459 325.023486 
L 759.821743 326.37511 
L 761.182028 326.831908 
L 762.542312 325.968371 
L 763.902596 324.641778 
L 765.262881 325.811933 
L 766.623165 326.331307 
L 767.98345 327.313737 
L 769.343734 327.132269 
L 770.704019 328.54021 
L 772.064303 327.357539 
L 773.424587 326.938286 
L 774.784872 327.814338 
L 776.145156 327.945746 
L 777.505441 328.314939 
L 778.865725 330.060786 
L 780.226009 329.228536 
L 781.586294 329.259824 
L 782.946578 328.584012 
L 784.306863 328.477635 
L 785.667147 328.221076 
L 787.027431 328.446347 
L 789.748 329.278596 
L 793.828853 329.053326 
L 797.909707 329.334914 
L 799.269991 329.497609 
L 800.630276 329.52264 
L 801.99056 329.234794 
L 803.350844 329.391232 
L 804.711129 329.341172 
L 810.152266 329.616502 
L 811.512551 329.303627 
L 814.23312 329.629017 
L 815.593404 329.453807 
L 818.313973 329.566442 
L 819.674257 329.635275 
L 823.75511 329.366202 
L 825.115395 330.060786 
L 826.475679 330.060786 
L 827.835964 329.165961 
L 829.196248 328.6153 
L 830.556533 329.284854 
L 831.916817 329.190991 
L 833.277101 330.060786 
L 834.637386 330.060786 
L 837.357955 327.645385 
L 838.718239 328.81554 
L 840.078523 328.752965 
L 841.438808 328.521437 
L 842.799092 330.060786 
L 844.159377 330.060786 
L 845.519661 328.433832 
L 846.879945 326.174869 
L 848.24023 328.352484 
L 849.600514 327.945746 
L 850.960799 327.739248 
L 852.321083 330.060786 
L 853.681367 330.060786 
L 855.041652 327.413857 
L 856.401936 323.621803 
L 857.762221 326.187384 
L 859.122505 326.662955 
L 860.482789 325.680525 
L 861.843074 330.060786 
L 863.203358 330.060786 
L 864.563643 326.156097 
L 865.923927 319.642023 
L 867.284212 324.222524 
L 868.644496 324.673065 
L 870.00478 323.778241 
L 871.365065 330.060786 
L 872.725349 330.060786 
L 874.085634 323.064884 
L 875.445918 319.516873 
L 876.806202 319.892324 
L 878.166487 321.857184 
L 879.526771 321.775836 
L 880.887056 330.060786 
L 882.24734 330.060786 
L 883.607624 320.931072 
L 884.967909 311.01291 
L 886.328193 322.814584 
L 887.688478 321.638171 
L 889.048762 319.435526 
L 890.409046 330.060786 
L 891.769331 330.060786 
L 893.129615 319.635766 
L 894.4899 306.050701 
L 895.850184 321.300265 
L 897.210469 318.615791 
L 898.570753 318.158992 
L 899.931037 330.060786 
L 901.291322 330.060786 
L 904.011891 305.844203 
L 905.372175 321.150085 
L 906.732459 318.171507 
L 908.092744 316.732279 
L 909.453028 330.060786 
L 912.173597 330.060786 
L 913.533881 317.0827 
L 914.894166 294.04253 
L 916.25445 322.482935 
L 917.614735 317.314228 
L 918.975019 330.060786 
L 920.335303 330.060786 
L 921.695588 313.290646 
L 923.055872 301.288732 
L 924.416157 312.971513 
L 925.776441 314.585951 
L 927.136725 313.572234 
L 928.49701 330.060786 
L 929.857294 330.060786 
L 931.217579 314.686072 
L 932.577863 290.507034 
L 933.938148 319.810976 
L 935.298432 315.724819 
L 936.658716 312.151778 
L 938.019001 330.060786 
L 939.379285 330.060786 
L 940.73957 312.639864 
L 942.099854 291.314253 
L 943.460138 317.15779 
L 946.180707 306.933011 
L 947.540992 330.060786 
L 948.901276 330.060786 
L 951.621845 285.48225 
L 952.982129 305.762855 
L 954.342414 313.371994 
L 955.702698 307.252144 
L 957.062982 330.060786 
L 958.423267 330.060786 
L 959.783551 310.055511 
L 961.143836 280.46998 
L 962.50412 315.19293 
L 963.864405 311.813872 
L 965.224689 309.154428 
L 966.584973 330.060786 
L 967.945258 330.060786 
L 970.665827 294.624479 
L 972.026111 318.509413 
L 973.386395 315.349368 
L 974.74668 316.707249 
L 976.106964 330.060786 
L 977.467249 330.060786 
L 978.827533 311.407134 
L 980.187817 289.249274 
L 981.548102 318.803516 
L 982.908386 313.259358 
L 984.268671 309.304609 
L 985.628955 330.060786 
L 986.989239 330.060786 
L 988.349524 264.769875 
L 989.709808 286.064198 
L 991.070093 311.657434 
L 992.430377 306.920496 
L 993.790662 309.073081 
L 995.150946 330.060786 
L 996.51123 330.060786 
L 997.871515 303.58524 
L 999.231799 285.225691 
L 1000.592084 297.11497 
L 1001.952368 298.034824 
L 1003.312652 299.786929 
L 1004.672937 330.060786 
L 1006.033221 330.060786 
L 1008.75379 261.828843 
L 1010.114074 308.509904 
L 1011.474359 299.899564 
L 1012.834643 297.847099 
L 1014.194928 330.060786 
L 1015.555212 330.060786 
L 1016.915496 300.56286 
L 1018.275781 258.405982 
L 1019.636065 306.713998 
L 1020.99635 330.060786 
L 1022.356634 304.217249 
L 1023.716918 330.060786 
L 1025.077203 330.060786 
L 1026.437487 301.839394 
L 1027.797772 251.022115 
L 1029.158056 307.708943 
L 1030.518341 296.852154 
L 1031.878625 294.505586 
L 1033.238909 330.060786 
L 1034.599194 330.060786 
L 1037.319763 252.34245 
L 1038.680047 311.006653 
L 1040.040331 306.645165 
L 1041.400616 301.607865 
L 1042.7609 330.060786 
L 1044.121185 330.060786 
L 1045.481469 307.245886 
L 1046.841753 273.586714 
L 1048.202038 316.187875 
L 1049.562322 306.407379 
L 1050.922607 306.056959 
L 1052.282891 330.060786 
L 1053.643175 330.060786 
L 1055.00346 308.904128 
L 1056.363744 283.861553 
L 1057.724029 312.514714 
L 1059.084313 308.954188 
L 1060.444598 330.060786 
L 1063.165166 330.060786 
L 1064.525451 304.173447 
L 1065.885735 268.336659 
L 1067.24602 297.459133 
L 1068.606304 287.653607 
L 1069.966588 330.060786 
L 1072.687157 330.060786 
L 1074.047442 287.67238 
L 1075.407726 228.789164 
L 1076.76801 304.154674 
L 1078.128295 286.721237 
L 1079.488579 281.070702 
L 1080.848864 330.060786 
L 1082.209148 330.060786 
L 1083.569432 261.45965 
L 1084.929717 145.676851 
L 1086.290001 263.080346 
L 1087.650286 258.105622 
L 1089.01057 257.792746 
L 1090.370854 330.060786 
L 1093.091423 330.060786 
L 1094.451708 263.468312 
L 1095.811992 50.8755 
L 1097.172277 258.568678 
L 1098.532561 256.190822 
L 1099.892845 330.060786 
L 1101.25313 330.060786 
L 1102.613414 250.527771 
L 1103.973699 107.975324 
L 1105.333983 232.662566 
L 1106.694267 238.59469 
L 1108.054552 239.026459 
L 1109.414836 330.060786 
L 1110.775121 330.060786 
L 1112.135405 254.419945 
L 1113.495689 196.54419 
L 1114.855974 305.593902 
L 1116.216258 295.969845 
L 1117.576543 288.698612 
L 1118.936827 330.060786 
L 1120.297111 330.060786 
L 1121.657396 293.604504 
L 1123.01768 265.013918 
L 1124.377965 306.138306 
L 1125.738249 302.196072 
L 1127.098534 299.736869 
L 1128.458818 330.060786 
L 1129.819102 330.060786 
L 1131.179387 302.965746 
L 1132.539671 289.806192 
L 1133.899956 320.924814 
L 1135.26024 318.703396 
L 1136.620524 316.15033 
L 1137.980809 330.060786 
L 1140.701378 330.060786 
L 1143.421946 305.47501 
L 1144.782231 323.740696 
L 1146.142515 324.403992 
L 1147.5028 330.060786 
L 1148.863084 330.060786 
L 1151.583653 317.070185 
L 1152.943937 326.687985 
L 1154.304222 324.904594 
L 1155.664506 325.079804 
L 1157.024791 330.060786 
L 1158.385075 330.060786 
L 1159.745359 324.5354 
L 1161.105644 320.956102 
L 1162.465928 326.487745 
L 1163.826213 326.356337 
L 1165.186497 326.57535 
L 1166.546781 330.060786 
L 1167.907066 330.060786 
L 1169.26735 327.088466 
L 1170.627635 327.113496 
L 1171.987919 324.629263 
L 1173.348203 327.4076 
L 1174.708488 326.894483 
L 1176.068772 330.060786 
L 1177.429057 330.060786 
L 1178.789341 327.438887 
L 1180.149625 323.653091 
L 1181.50991 328.371257 
L 1182.870194 327.176071 
L 1184.230479 327.038406 
L 1185.590763 330.060786 
L 1186.951047 330.060786 
L 1188.311332 327.157299 
L 1189.671616 323.990996 
L 1191.031901 327.889428 
L 1192.392185 326.938286 
L 1193.75247 326.687985 
L 1195.112754 330.060786 
L 1196.473038 330.060786 
L 1197.833323 327.138526 
L 1199.193607 323.258867 
L 1200.553892 327.814338 
L 1201.914176 326.212414 
L 1203.27446 326.256217 
L 1204.634745 330.060786 
L 1205.995029 330.060786 
L 1208.715598 321.713261 
L 1210.075882 325.793161 
L 1211.436167 324.729383 
L 1212.796451 324.604233 
L 1214.156736 330.060786 
L 1215.51702 330.060786 
L 1216.877304 324.253812 
L 1218.237589 319.191482 
L 1219.597873 323.953451 
L 1220.958158 323.071142 
L 1222.318442 320.906042 
L 1223.678727 330.060786 
L 1225.039011 330.060786 
L 1226.399295 322.814584 
L 1227.75958 314.054063 
L 1229.119864 321.525535 
L 1230.480149 319.823491 
L 1231.840433 317.720966 
L 1233.200717 330.060786 
L 1234.561002 330.060786 
L 1235.921286 319.229028 
L 1237.281571 314.416999 
L 1238.641855 313.997745 
L 1240.002139 315.812424 
L 1241.362424 315.462004 
L 1242.722708 330.060786 
L 1244.082993 330.060786 
L 1246.803561 298.047339 
L 1248.163846 318.859834 
L 1249.52413 313.716157 
L 1250.884415 311.826387 
L 1252.244699 330.060786 
L 1253.604983 330.060786 
L 1254.965268 313.916397 
L 1256.325552 301.39511 
L 1257.685837 316.813627 
L 1259.046121 316.794854 
L 1260.406406 314.930115 
L 1261.76669 330.060786 
L 1263.126974 330.060786 
L 1264.487259 316.632159 
L 1265.847543 304.849258 
L 1267.207828 320.561878 
L 1268.568112 316.532039 
L 1269.928396 315.893772 
L 1271.288681 330.060786 
L 1274.00925 330.060786 
L 1275.369534 316.381858 
L 1276.729818 318.922409 
L 1278.090103 299.949624 
L 1279.450387 317.771027 
L 1280.810672 330.060786 
L 1282.170956 330.060786 
L 1283.53124 316.594614 
L 1284.891525 304.674048 
L 1286.251809 321.46296 
L 1287.612094 318.728426 
L 1288.972378 317.376803 
L 1290.332663 330.060786 
L 1291.692947 330.060786 
L 1293.053231 320.367895 
L 1294.413516 306.069474 
L 1295.7738 321.575596 
L 1297.134085 320.40544 
L 1298.494369 318.252855 
L 1299.854653 330.060786 
L 1302.575222 330.060786 
L 1303.935507 320.48053 
L 1305.295791 320.223972 
L 1306.656075 301.376337 
L 1306.656075 301.376337 
" clip-path="url(#p4c807a741d)" style="fill: none; stroke: #0000ff; stroke-width: 1.5; stroke-linecap: square"/>
   </g>
   <g id="line2d_18">
    <path d="M 1067.24602 312.002324 
L 1068.606304 311.155269 
L 1069.966588 332.990798 
L 1071.326873 323.402003 
L 1072.687157 303.853965 
L 1074.047442 268.521995 
L 1075.407726 296.772036 
L 1076.76801 304.508278 
L 1078.128295 309.559826 
L 1079.488579 315.349909 
L 1080.848864 311.46639 
L 1082.209148 289.389311 
L 1083.569432 251.038878 
L 1084.929717 264.255135 
L 1086.290001 282.454396 
L 1087.650286 285.169688 
L 1089.01057 300.557219 
L 1090.370854 285.583242 
L 1093.091423 219.620197 
L 1094.451708 264.456217 
L 1095.811992 214.185831 
L 1097.172277 284.541183 
L 1098.532561 298.216547 
L 1099.892845 333.016483 
L 1101.25313 242.865443 
L 1102.613414 196.218572 
L 1103.973699 170.55697 
L 1105.333983 258.17959 
L 1106.694267 251.330142 
L 1108.054552 292.865902 
L 1110.775121 251.866711 
L 1112.135405 181.526206 
L 1113.495689 204.034742 
L 1114.855974 265.451392 
L 1116.216258 264.978871 
L 1117.576543 312.496336 
L 1118.936827 306.370402 
L 1120.297111 287.447781 
L 1121.657396 233.440953 
L 1123.01768 279.243401 
L 1124.377965 297.82491 
L 1125.738249 293.739786 
L 1127.098534 336.044747 
L 1128.458818 339.681243 
L 1129.819102 309.804195 
L 1131.179387 261.573585 
L 1132.539671 303.680942 
L 1133.899956 310.843779 
L 1135.26024 306.614568 
L 1136.620524 342.375369 
L 1137.980809 345.270066 
L 1139.341093 319.269306 
L 1140.701378 287.883086 
L 1142.061662 324.012569 
L 1143.421946 317.799464 
L 1144.782231 317.896262 
L 1146.142515 347.781749 
L 1147.5028 353.2755 
L 1150.223368 299.858978 
L 1151.583653 324.616162 
L 1152.943937 326.965025 
L 1154.304222 321.64066 
L 1155.664506 343.634964 
L 1157.024791 345.516134 
L 1158.385075 330.922606 
L 1159.745359 309.226878 
L 1161.105644 328.273767 
L 1162.465928 328.014792 
L 1163.826213 324.465564 
L 1165.186497 340.558401 
L 1166.546781 342.231999 
L 1167.907066 330.24141 
L 1169.26735 314.632227 
L 1170.627635 329.972185 
L 1171.987919 327.790299 
L 1173.348203 326.337251 
L 1174.708488 337.944876 
L 1176.068772 340.564182 
L 1178.789341 319.27369 
L 1180.149625 328.406104 
L 1181.50991 329.100602 
L 1182.870194 326.451626 
L 1184.230479 336.067025 
L 1185.590763 336.563952 
L 1186.951047 329.89644 
L 1188.311332 321.037473 
L 1189.671616 328.544911 
L 1191.031901 328.598504 
L 1192.392185 326.784205 
L 1193.75247 334.014119 
L 1195.112754 334.518885 
L 1196.473038 329.040258 
L 1197.833323 322.06376 
L 1199.193607 327.931815 
L 1200.553892 328.097615 
L 1201.914176 326.569886 
L 1203.27446 332.563106 
L 1204.634745 332.753937 
L 1205.995029 328.332118 
L 1207.355314 322.137473 
L 1208.715598 327.176688 
L 1210.075882 326.969982 
L 1211.436167 326.094712 
L 1212.796451 330.794055 
L 1214.156736 331.07344 
L 1215.51702 326.677733 
L 1216.877304 321.041718 
L 1218.237589 325.162084 
L 1219.597873 325.330899 
L 1220.958158 324.893178 
L 1222.318442 328.743931 
L 1223.678727 329.45552 
L 1225.039011 324.678232 
L 1226.399295 319.461979 
L 1227.75958 321.962093 
L 1229.119864 323.262273 
L 1230.480149 322.323178 
L 1231.840433 327.200879 
L 1233.200717 327.35998 
L 1234.561002 322.257778 
L 1235.921286 315.767711 
L 1237.281571 319.87512 
L 1238.641855 319.142775 
L 1240.002139 319.937691 
L 1241.362424 325.120842 
L 1242.722708 326.647953 
L 1245.443277 311.897638 
L 1246.803561 312.643711 
L 1248.163846 318.276209 
L 1249.52413 316.331384 
L 1250.884415 323.647884 
L 1252.244699 321.531162 
L 1253.604983 315.18036 
L 1254.965268 307.189605 
L 1256.325552 312.483682 
L 1257.685837 315.314795 
L 1259.046121 315.580188 
L 1260.406406 324.547143 
L 1261.76669 323.67803 
L 1263.126974 315.056974 
L 1264.487259 307.679324 
L 1265.847543 315.273482 
L 1267.207828 317.619912 
L 1268.568112 316.319626 
L 1269.928396 326.836103 
L 1271.288681 326.079842 
L 1272.648965 317.638912 
L 1274.00925 312.000879 
L 1275.369534 319.551941 
L 1276.729818 318.490247 
L 1278.090103 313.941559 
L 1279.450387 331.474103 
L 1280.810672 330.464598 
L 1282.170956 324.090251 
L 1283.53124 308.498233 
L 1284.891525 316.157468 
L 1286.251809 314.003856 
L 1287.612094 318.258807 
L 1288.972378 326.630607 
L 1290.332663 325.883724 
L 1291.692947 319.121151 
L 1293.053231 311.724268 
L 1294.413516 319.051304 
L 1295.7738 316.95478 
L 1297.134085 319.474522 
L 1298.494369 328.525297 
L 1299.854653 327.713554 
L 1301.214938 320.411488 
L 1302.575222 314.238624 
L 1303.935507 323.211299 
L 1305.295791 318.583025 
L 1306.656075 316.432576 
L 1306.656075 316.432576 
" clip-path="url(#p4c807a741d)" style="fill: none; stroke: #ffa500; stroke-width: 1.5; stroke-linecap: square"/>
   </g>
   <g id="line2d_19">
    <path d="M 1306.656075 316.432576 
L 1308.01636 331.051286 
L 1309.376644 331.961839 
L 1310.736929 326.402462 
L 1312.097213 312.884866 
L 1313.457497 318.648087 
L 1314.817782 313.477688 
L 1316.178066 318.655878 
L 1317.538351 329.523992 
L 1318.898635 329.278938 
L 1320.25892 323.551212 
L 1321.619204 314.186221 
L 1322.979488 320.266815 
L 1324.339773 314.881208 
" clip-path="url(#p4c807a741d)" style="fill: none; stroke: #ff0000; stroke-width: 1.5; stroke-linecap: square"/>
   </g>
   <g id="patch_3">
    <path d="M 46.0125 368.3955 
L 46.0125 35.7555 
" style="fill: none; stroke: #000000; stroke-width: 0.8; stroke-linejoin: miter; stroke-linecap: square"/>
   </g>
   <g id="patch_4">
    <path d="M 1385.2125 368.3955 
L 1385.2125 35.7555 
" style="fill: none; stroke: #000000; stroke-width: 0.8; stroke-linejoin: miter; stroke-linecap: square"/>
   </g>
   <g id="patch_5">
    <path d="M 46.0125 368.3955 
L 1385.2125 368.3955 
" style="fill: none; stroke: #000000; stroke-width: 0.8; stroke-linejoin: miter; stroke-linecap: square"/>
   </g>
   <g id="patch_6">
    <path d="M 46.0125 35.7555 
L 1385.2125 35.7555 
" style="fill: none; stroke: #000000; stroke-width: 0.8; stroke-linejoin: miter; stroke-linecap: square"/>
   </g>
   <g id="text_17">
    <!-- Daily Confirmed Cases Forecasting - Minnesota -->
    <g transform="translate(574.145625 16.318125)scale(0.12 -0.12)">
     <defs>
      <path id="DejaVuSans-44" d="M 1259 4147 
L 1259 519 
L 2022 519 
Q 2988 519 3436 956 
Q 3884 1394 3884 2338 
Q 3884 3275 3436 3711 
Q 2988 4147 2022 4147 
L 1259 4147 
z
M 628 4666 
L 1925 4666 
Q 3281 4666 3915 4102 
Q 4550 3538 4550 2338 
Q 4550 1131 3912 565 
Q 3275 0 1925 0 
L 628 0 
L 628 4666 
z
" transform="scale(0.015625)"/>
      <path id="DejaVuSans-61" d="M 2194 1759 
Q 1497 1759 1228 1600 
Q 959 1441 959 1056 
Q 959 750 1161 570 
Q 1363 391 1709 391 
Q 2188 391 2477 730 
Q 2766 1069 2766 1631 
L 2766 1759 
L 2194 1759 
z
M 3341 1997 
L 3341 0 
L 2766 0 
L 2766 531 
Q 2569 213 2275 61 
Q 1981 -91 1556 -91 
Q 1019 -91 701 211 
Q 384 513 384 1019 
Q 384 1609 779 1909 
Q 1175 2209 1959 2209 
L 2766 2209 
L 2766 2266 
Q 2766 2663 2505 2880 
Q 2244 3097 1772 3097 
Q 1472 3097 1187 3025 
Q 903 2953 641 2809 
L 641 3341 
Q 956 3463 1253 3523 
Q 1550 3584 1831 3584 
Q 2591 3584 2966 3190 
Q 3341 2797 3341 1997 
z
" transform="scale(0.015625)"/>
      <path id="DejaVuSans-69" d="M 603 3500 
L 1178 3500 
L 1178 0 
L 603 0 
L 603 3500 
z
M 603 4863 
L 1178 4863 
L 1178 4134 
L 603 4134 
L 603 4863 
z
" transform="scale(0.015625)"/>
      <path id="DejaVuSans-6c" d="M 603 4863 
L 1178 4863 
L 1178 0 
L 603 0 
L 603 4863 
z
" transform="scale(0.015625)"/>
      <path id="DejaVuSans-79" d="M 2059 -325 
Q 1816 -950 1584 -1140 
Q 1353 -1331 966 -1331 
L 506 -1331 
L 506 -850 
L 844 -850 
Q 1081 -850 1212 -737 
Q 1344 -625 1503 -206 
L 1606 56 
L 191 3500 
L 800 3500 
L 1894 763 
L 2988 3500 
L 3597 3500 
L 2059 -325 
z
" transform="scale(0.015625)"/>
      <path id="DejaVuSans-20" transform="scale(0.015625)"/>
      <path id="DejaVuSans-43" d="M 4122 4306 
L 4122 3641 
Q 3803 3938 3442 4084 
Q 3081 4231 2675 4231 
Q 1875 4231 1450 3742 
Q 1025 3253 1025 2328 
Q 1025 1406 1450 917 
Q 1875 428 2675 428 
Q 3081 428 3442 575 
Q 3803 722 4122 1019 
L 4122 359 
Q 3791 134 3420 21 
Q 3050 -91 2638 -91 
Q 1578 -91 968 557 
Q 359 1206 359 2328 
Q 359 3453 968 4101 
Q 1578 4750 2638 4750 
Q 3056 4750 3426 4639 
Q 3797 4528 4122 4306 
z
" transform="scale(0.015625)"/>
      <path id="DejaVuSans-6f" d="M 1959 3097 
Q 1497 3097 1228 2736 
Q 959 2375 959 1747 
Q 959 1119 1226 758 
Q 1494 397 1959 397 
Q 2419 397 2687 759 
Q 2956 1122 2956 1747 
Q 2956 2369 2687 2733 
Q 2419 3097 1959 3097 
z
M 1959 3584 
Q 2709 3584 3137 3096 
Q 3566 2609 3566 1747 
Q 3566 888 3137 398 
Q 2709 -91 1959 -91 
Q 1206 -91 779 398 
Q 353 888 353 1747 
Q 353 2609 779 3096 
Q 1206 3584 1959 3584 
z
" transform="scale(0.015625)"/>
      <path id="DejaVuSans-6e" d="M 3513 2113 
L 3513 0 
L 2938 0 
L 2938 2094 
Q 2938 2591 2744 2837 
Q 2550 3084 2163 3084 
Q 1697 3084 1428 2787 
Q 1159 2491 1159 1978 
L 1159 0 
L 581 0 
L 581 3500 
L 1159 3500 
L 1159 2956 
Q 1366 3272 1645 3428 
Q 1925 3584 2291 3584 
Q 2894 3584 3203 3211 
Q 3513 2838 3513 2113 
z
" transform="scale(0.015625)"/>
      <path id="DejaVuSans-66" d="M 2375 4863 
L 2375 4384 
L 1825 4384 
Q 1516 4384 1395 4259 
Q 1275 4134 1275 3809 
L 1275 3500 
L 2222 3500 
L 2222 3053 
L 1275 3053 
L 1275 0 
L 697 0 
L 697 3053 
L 147 3053 
L 147 3500 
L 697 3500 
L 697 3744 
Q 697 4328 969 4595 
Q 1241 4863 1831 4863 
L 2375 4863 
z
" transform="scale(0.015625)"/>
      <path id="DejaVuSans-72" d="M 2631 2963 
Q 2534 3019 2420 3045 
Q 2306 3072 2169 3072 
Q 1681 3072 1420 2755 
Q 1159 2438 1159 1844 
L 1159 0 
L 581 0 
L 581 3500 
L 1159 3500 
L 1159 2956 
Q 1341 3275 1631 3429 
Q 1922 3584 2338 3584 
Q 2397 3584 2469 3576 
Q 2541 3569 2628 3553 
L 2631 2963 
z
" transform="scale(0.015625)"/>
      <path id="DejaVuSans-6d" d="M 3328 2828 
Q 3544 3216 3844 3400 
Q 4144 3584 4550 3584 
Q 5097 3584 5394 3201 
Q 5691 2819 5691 2113 
L 5691 0 
L 5113 0 
L 5113 2094 
Q 5113 2597 4934 2840 
Q 4756 3084 4391 3084 
Q 3944 3084 3684 2787 
Q 3425 2491 3425 1978 
L 3425 0 
L 2847 0 
L 2847 2094 
Q 2847 2600 2669 2842 
Q 2491 3084 2119 3084 
Q 1678 3084 1418 2786 
Q 1159 2488 1159 1978 
L 1159 0 
L 581 0 
L 581 3500 
L 1159 3500 
L 1159 2956 
Q 1356 3278 1631 3431 
Q 1906 3584 2284 3584 
Q 2666 3584 2933 3390 
Q 3200 3197 3328 2828 
z
" transform="scale(0.015625)"/>
      <path id="DejaVuSans-65" d="M 3597 1894 
L 3597 1613 
L 953 1613 
Q 991 1019 1311 708 
Q 1631 397 2203 397 
Q 2534 397 2845 478 
Q 3156 559 3463 722 
L 3463 178 
Q 3153 47 2828 -22 
Q 2503 -91 2169 -91 
Q 1331 -91 842 396 
Q 353 884 353 1716 
Q 353 2575 817 3079 
Q 1281 3584 2069 3584 
Q 2775 3584 3186 3129 
Q 3597 2675 3597 1894 
z
M 3022 2063 
Q 3016 2534 2758 2815 
Q 2500 3097 2075 3097 
Q 1594 3097 1305 2825 
Q 1016 2553 972 2059 
L 3022 2063 
z
" transform="scale(0.015625)"/>
      <path id="DejaVuSans-64" d="M 2906 2969 
L 2906 4863 
L 3481 4863 
L 3481 0 
L 2906 0 
L 2906 525 
Q 2725 213 2448 61 
Q 2172 -91 1784 -91 
Q 1150 -91 751 415 
Q 353 922 353 1747 
Q 353 2572 751 3078 
Q 1150 3584 1784 3584 
Q 2172 3584 2448 3432 
Q 2725 3281 2906 2969 
z
M 947 1747 
Q 947 1113 1208 752 
Q 1469 391 1925 391 
Q 2381 391 2643 752 
Q 2906 1113 2906 1747 
Q 2906 2381 2643 2742 
Q 2381 3103 1925 3103 
Q 1469 3103 1208 2742 
Q 947 2381 947 1747 
z
" transform="scale(0.015625)"/>
      <path id="DejaVuSans-73" d="M 2834 3397 
L 2834 2853 
Q 2591 2978 2328 3040 
Q 2066 3103 1784 3103 
Q 1356 3103 1142 2972 
Q 928 2841 928 2578 
Q 928 2378 1081 2264 
Q 1234 2150 1697 2047 
L 1894 2003 
Q 2506 1872 2764 1633 
Q 3022 1394 3022 966 
Q 3022 478 2636 193 
Q 2250 -91 1575 -91 
Q 1294 -91 989 -36 
Q 684 19 347 128 
L 347 722 
Q 666 556 975 473 
Q 1284 391 1588 391 
Q 1994 391 2212 530 
Q 2431 669 2431 922 
Q 2431 1156 2273 1281 
Q 2116 1406 1581 1522 
L 1381 1569 
Q 847 1681 609 1914 
Q 372 2147 372 2553 
Q 372 3047 722 3315 
Q 1072 3584 1716 3584 
Q 2034 3584 2315 3537 
Q 2597 3491 2834 3397 
z
" transform="scale(0.015625)"/>
      <path id="DejaVuSans-46" d="M 628 4666 
L 3309 4666 
L 3309 4134 
L 1259 4134 
L 1259 2759 
L 3109 2759 
L 3109 2228 
L 1259 2228 
L 1259 0 
L 628 0 
L 628 4666 
z
" transform="scale(0.015625)"/>
      <path id="DejaVuSans-63" d="M 3122 3366 
L 3122 2828 
Q 2878 2963 2633 3030 
Q 2388 3097 2138 3097 
Q 1578 3097 1268 2742 
Q 959 2388 959 1747 
Q 959 1106 1268 751 
Q 1578 397 2138 397 
Q 2388 397 2633 464 
Q 2878 531 3122 666 
L 3122 134 
Q 2881 22 2623 -34 
Q 2366 -91 2075 -91 
Q 1284 -91 818 406 
Q 353 903 353 1747 
Q 353 2603 823 3093 
Q 1294 3584 2113 3584 
Q 2378 3584 2631 3529 
Q 2884 3475 3122 3366 
z
" transform="scale(0.015625)"/>
      <path id="DejaVuSans-74" d="M 1172 4494 
L 1172 3500 
L 2356 3500 
L 2356 3053 
L 1172 3053 
L 1172 1153 
Q 1172 725 1289 603 
Q 1406 481 1766 481 
L 2356 481 
L 2356 0 
L 1766 0 
Q 1100 0 847 248 
Q 594 497 594 1153 
L 594 3053 
L 172 3053 
L 172 3500 
L 594 3500 
L 594 4494 
L 1172 4494 
z
" transform="scale(0.015625)"/>
      <path id="DejaVuSans-67" d="M 2906 1791 
Q 2906 2416 2648 2759 
Q 2391 3103 1925 3103 
Q 1463 3103 1205 2759 
Q 947 2416 947 1791 
Q 947 1169 1205 825 
Q 1463 481 1925 481 
Q 2391 481 2648 825 
Q 2906 1169 2906 1791 
z
M 3481 434 
Q 3481 -459 3084 -895 
Q 2688 -1331 1869 -1331 
Q 1566 -1331 1297 -1286 
Q 1028 -1241 775 -1147 
L 775 -588 
Q 1028 -725 1275 -790 
Q 1522 -856 1778 -856 
Q 2344 -856 2625 -561 
Q 2906 -266 2906 331 
L 2906 616 
Q 2728 306 2450 153 
Q 2172 0 1784 0 
Q 1141 0 747 490 
Q 353 981 353 1791 
Q 353 2603 747 3093 
Q 1141 3584 1784 3584 
Q 2172 3584 2450 3431 
Q 2728 3278 2906 2969 
L 2906 3500 
L 3481 3500 
L 3481 434 
z
" transform="scale(0.015625)"/>
      <path id="DejaVuSans-4d" d="M 628 4666 
L 1569 4666 
L 2759 1491 
L 3956 4666 
L 4897 4666 
L 4897 0 
L 4281 0 
L 4281 4097 
L 3078 897 
L 2444 897 
L 1241 4097 
L 1241 0 
L 628 0 
L 628 4666 
z
" transform="scale(0.015625)"/>
     </defs>
     <use xlink:href="#DejaVuSans-44"/>
     <use xlink:href="#DejaVuSans-61" x="77.001953"/>
     <use xlink:href="#DejaVuSans-69" x="138.28125"/>
     <use xlink:href="#DejaVuSans-6c" x="166.064453"/>
     <use xlink:href="#DejaVuSans-79" x="193.847656"/>
     <use xlink:href="#DejaVuSans-20" x="253.027344"/>
     <use xlink:href="#DejaVuSans-43" x="284.814453"/>
     <use xlink:href="#DejaVuSans-6f" x="354.638672"/>
     <use xlink:href="#DejaVuSans-6e" x="415.820312"/>
     <use xlink:href="#DejaVuSans-66" x="479.199219"/>
     <use xlink:href="#DejaVuSans-69" x="514.404297"/>
     <use xlink:href="#DejaVuSans-72" x="542.1875"/>
     <use xlink:href="#DejaVuSans-6d" x="581.550781"/>
     <use xlink:href="#DejaVuSans-65" x="678.962891"/>
     <use xlink:href="#DejaVuSans-64" x="740.486328"/>
     <use xlink:href="#DejaVuSans-20" x="803.962891"/>
     <use xlink:href="#DejaVuSans-43" x="835.75"/>
     <use xlink:href="#DejaVuSans-61" x="905.574219"/>
     <use xlink:href="#DejaVuSans-73" x="966.853516"/>
     <use xlink:href="#DejaVuSans-65" x="1018.953125"/>
     <use xlink:href="#DejaVuSans-73" x="1080.476562"/>
     <use xlink:href="#DejaVuSans-20" x="1132.576172"/>
     <use xlink:href="#DejaVuSans-46" x="1164.363281"/>
     <use xlink:href="#DejaVuSans-6f" x="1218.257812"/>
     <use xlink:href="#DejaVuSans-72" x="1279.439453"/>
     <use xlink:href="#DejaVuSans-65" x="1318.302734"/>
     <use xlink:href="#DejaVuSans-63" x="1379.826172"/>
     <use xlink:href="#DejaVuSans-61" x="1434.806641"/>
     <use xlink:href="#DejaVuSans-73" x="1496.085938"/>
     <use xlink:href="#DejaVuSans-74" x="1548.185547"/>
     <use xlink:href="#DejaVuSans-69" x="1587.394531"/>
     <use xlink:href="#DejaVuSans-6e" x="1615.177734"/>
     <use xlink:href="#DejaVuSans-67" x="1678.556641"/>
     <use xlink:href="#DejaVuSans-20" x="1742.033203"/>
     <use xlink:href="#DejaVuSans-2d" x="1773.820312"/>
     <use xlink:href="#DejaVuSans-20" x="1809.904297"/>
     <use xlink:href="#DejaVuSans-4d" x="1841.691406"/>
     <use xlink:href="#DejaVuSans-69" x="1927.970703"/>
     <use xlink:href="#DejaVuSans-6e" x="1955.753906"/>
     <use xlink:href="#DejaVuSans-6e" x="2019.132812"/>
     <use xlink:href="#DejaVuSans-65" x="2082.511719"/>
     <use xlink:href="#DejaVuSans-73" x="2144.035156"/>
     <use xlink:href="#DejaVuSans-6f" x="2196.134766"/>
     <use xlink:href="#DejaVuSans-74" x="2257.316406"/>
     <use xlink:href="#DejaVuSans-61" x="2296.525391"/>
    </g>
    <!-- ARIMA (4, 1, 1)x(1, 0, 1, 7) (R2 = 0.429995) -->
    <g transform="translate(583.628438 29.7555)scale(0.12 -0.12)">
     <defs>
      <path id="DejaVuSans-41" d="M 2188 4044 
L 1331 1722 
L 3047 1722 
L 2188 4044 
z
M 1831 4666 
L 2547 4666 
L 4325 0 
L 3669 0 
L 3244 1197 
L 1141 1197 
L 716 0 
L 50 0 
L 1831 4666 
z
" transform="scale(0.015625)"/>
      <path id="DejaVuSans-52" d="M 2841 2188 
Q 3044 2119 3236 1894 
Q 3428 1669 3622 1275 
L 4263 0 
L 3584 0 
L 2988 1197 
Q 2756 1666 2539 1819 
Q 2322 1972 1947 1972 
L 1259 1972 
L 1259 0 
L 628 0 
L 628 4666 
L 2053 4666 
Q 2853 4666 3247 4331 
Q 3641 3997 3641 3322 
Q 3641 2881 3436 2590 
Q 3231 2300 2841 2188 
z
M 1259 4147 
L 1259 2491 
L 2053 2491 
Q 2509 2491 2742 2702 
Q 2975 2913 2975 3322 
Q 2975 3731 2742 3939 
Q 2509 4147 2053 4147 
L 1259 4147 
z
" transform="scale(0.015625)"/>
      <path id="DejaVuSans-49" d="M 628 4666 
L 1259 4666 
L 1259 0 
L 628 0 
L 628 4666 
z
" transform="scale(0.015625)"/>
      <path id="DejaVuSans-28" d="M 1984 4856 
Q 1566 4138 1362 3434 
Q 1159 2731 1159 2009 
Q 1159 1288 1364 580 
Q 1569 -128 1984 -844 
L 1484 -844 
Q 1016 -109 783 600 
Q 550 1309 550 2009 
Q 550 2706 781 3412 
Q 1013 4119 1484 4856 
L 1984 4856 
z
" transform="scale(0.015625)"/>
      <path id="DejaVuSans-2c" d="M 750 794 
L 1409 794 
L 1409 256 
L 897 -744 
L 494 -744 
L 750 256 
L 750 794 
z
" transform="scale(0.015625)"/>
      <path id="DejaVuSans-29" d="M 513 4856 
L 1013 4856 
Q 1481 4119 1714 3412 
Q 1947 2706 1947 2009 
Q 1947 1309 1714 600 
Q 1481 -109 1013 -844 
L 513 -844 
Q 928 -128 1133 580 
Q 1338 1288 1338 2009 
Q 1338 2731 1133 3434 
Q 928 4138 513 4856 
z
" transform="scale(0.015625)"/>
      <path id="DejaVuSans-78" d="M 3513 3500 
L 2247 1797 
L 3578 0 
L 2900 0 
L 1881 1375 
L 863 0 
L 184 0 
L 1544 1831 
L 300 3500 
L 978 3500 
L 1906 2253 
L 2834 3500 
L 3513 3500 
z
" transform="scale(0.015625)"/>
      <path id="DejaVuSans-3d" d="M 678 2906 
L 4684 2906 
L 4684 2381 
L 678 2381 
L 678 2906 
z
M 678 1631 
L 4684 1631 
L 4684 1100 
L 678 1100 
L 678 1631 
z
" transform="scale(0.015625)"/>
      <path id="DejaVuSans-2e" d="M 684 794 
L 1344 794 
L 1344 0 
L 684 0 
L 684 794 
z
" transform="scale(0.015625)"/>
      <path id="DejaVuSans-39" d="M 703 97 
L 703 672 
Q 941 559 1184 500 
Q 1428 441 1663 441 
Q 2288 441 2617 861 
Q 2947 1281 2994 2138 
Q 2813 1869 2534 1725 
Q 2256 1581 1919 1581 
Q 1219 1581 811 2004 
Q 403 2428 403 3163 
Q 403 3881 828 4315 
Q 1253 4750 1959 4750 
Q 2769 4750 3195 4129 
Q 3622 3509 3622 2328 
Q 3622 1225 3098 567 
Q 2575 -91 1691 -91 
Q 1453 -91 1209 -44 
Q 966 3 703 97 
z
M 1959 2075 
Q 2384 2075 2632 2365 
Q 2881 2656 2881 3163 
Q 2881 3666 2632 3958 
Q 2384 4250 1959 4250 
Q 1534 4250 1286 3958 
Q 1038 3666 1038 3163 
Q 1038 2656 1286 2365 
Q 1534 2075 1959 2075 
z
" transform="scale(0.015625)"/>
      <path id="DejaVuSans-35" d="M 691 4666 
L 3169 4666 
L 3169 4134 
L 1269 4134 
L 1269 2991 
Q 1406 3038 1543 3061 
Q 1681 3084 1819 3084 
Q 2600 3084 3056 2656 
Q 3513 2228 3513 1497 
Q 3513 744 3044 326 
Q 2575 -91 1722 -91 
Q 1428 -91 1123 -41 
Q 819 9 494 109 
L 494 744 
Q 775 591 1075 516 
Q 1375 441 1709 441 
Q 2250 441 2565 725 
Q 2881 1009 2881 1497 
Q 2881 1984 2565 2268 
Q 2250 2553 1709 2553 
Q 1456 2553 1204 2497 
Q 953 2441 691 2322 
L 691 4666 
z
" transform="scale(0.015625)"/>
     </defs>
     <use xlink:href="#DejaVuSans-41"/>
     <use xlink:href="#DejaVuSans-52" x="68.408203"/>
     <use xlink:href="#DejaVuSans-49" x="137.890625"/>
     <use xlink:href="#DejaVuSans-4d" x="167.382812"/>
     <use xlink:href="#DejaVuSans-41" x="253.662109"/>
     <use xlink:href="#DejaVuSans-20" x="322.070312"/>
     <use xlink:href="#DejaVuSans-28" x="353.857422"/>
     <use xlink:href="#DejaVuSans-34" x="392.871094"/>
     <use xlink:href="#DejaVuSans-2c" x="456.494141"/>
     <use xlink:href="#DejaVuSans-20" x="488.28125"/>
     <use xlink:href="#DejaVuSans-31" x="520.068359"/>
     <use xlink:href="#DejaVuSans-2c" x="583.691406"/>
     <use xlink:href="#DejaVuSans-20" x="615.478516"/>
     <use xlink:href="#DejaVuSans-31" x="647.265625"/>
     <use xlink:href="#DejaVuSans-29" x="710.888672"/>
     <use xlink:href="#DejaVuSans-78" x="749.902344"/>
     <use xlink:href="#DejaVuSans-28" x="809.082031"/>
     <use xlink:href="#DejaVuSans-31" x="848.095703"/>
     <use xlink:href="#DejaVuSans-2c" x="911.71875"/>
     <use xlink:href="#DejaVuSans-20" x="943.505859"/>
     <use xlink:href="#DejaVuSans-30" x="975.292969"/>
     <use xlink:href="#DejaVuSans-2c" x="1038.916016"/>
     <use xlink:href="#DejaVuSans-20" x="1070.703125"/>
     <use xlink:href="#DejaVuSans-31" x="1102.490234"/>
     <use xlink:href="#DejaVuSans-2c" x="1166.113281"/>
     <use xlink:href="#DejaVuSans-20" x="1197.900391"/>
     <use xlink:href="#DejaVuSans-37" x="1229.6875"/>
     <use xlink:href="#DejaVuSans-29" x="1293.310547"/>
     <use xlink:href="#DejaVuSans-20" x="1332.324219"/>
     <use xlink:href="#DejaVuSans-28" x="1364.111328"/>
     <use xlink:href="#DejaVuSans-52" x="1403.125"/>
     <use xlink:href="#DejaVuSans-32" x="1472.607422"/>
     <use xlink:href="#DejaVuSans-20" x="1536.230469"/>
     <use xlink:href="#DejaVuSans-3d" x="1568.017578"/>
     <use xlink:href="#DejaVuSans-20" x="1651.806641"/>
     <use xlink:href="#DejaVuSans-30" x="1683.59375"/>
     <use xlink:href="#DejaVuSans-2e" x="1747.216797"/>
     <use xlink:href="#DejaVuSans-34" x="1779.003906"/>
     <use xlink:href="#DejaVuSans-32" x="1842.626953"/>
     <use xlink:href="#DejaVuSans-39" x="1906.25"/>
     <use xlink:href="#DejaVuSans-39" x="1969.873047"/>
     <use xlink:href="#DejaVuSans-39" x="2033.496094"/>
     <use xlink:href="#DejaVuSans-35" x="2097.119141"/>
     <use xlink:href="#DejaVuSans-29" x="2160.742188"/>
    </g>
   </g>
   <g id="legend_1">
    <g id="patch_7">
     <path d="M 1281.132812 87.789875 
L 1378.2125 87.789875 
Q 1380.2125 87.789875 1380.2125 85.789875 
L 1380.2125 42.7555 
Q 1380.2125 40.7555 1378.2125 40.7555 
L 1281.132812 40.7555 
Q 1279.132812 40.7555 1279.132812 42.7555 
L 1279.132812 85.789875 
Q 1279.132812 87.789875 1281.132812 87.789875 
z
" style="fill: #ffffff; opacity: 0.8; stroke: #cccccc; stroke-linejoin: miter"/>
    </g>
    <g id="line2d_20">
     <path d="M 1283.132812 48.853937 
L 1293.132812 48.853937 
L 1303.132812 48.853937 
" style="fill: none; stroke: #0000ff; stroke-width: 1.5; stroke-linecap: square"/>
    </g>
    <g id="text_18">
     <!-- Actual Value -->
     <g transform="translate(1311.132812 52.353937)scale(0.1 -0.1)">
      <defs>
       <path id="DejaVuSans-75" d="M 544 1381 
L 544 3500 
L 1119 3500 
L 1119 1403 
Q 1119 906 1312 657 
Q 1506 409 1894 409 
Q 2359 409 2629 706 
Q 2900 1003 2900 1516 
L 2900 3500 
L 3475 3500 
L 3475 0 
L 2900 0 
L 2900 538 
Q 2691 219 2414 64 
Q 2138 -91 1772 -91 
Q 1169 -91 856 284 
Q 544 659 544 1381 
z
M 1991 3584 
L 1991 3584 
z
" transform="scale(0.015625)"/>
       <path id="DejaVuSans-56" d="M 1831 0 
L 50 4666 
L 709 4666 
L 2188 738 
L 3669 4666 
L 4325 4666 
L 2547 0 
L 1831 0 
z
" transform="scale(0.015625)"/>
      </defs>
      <use xlink:href="#DejaVuSans-41"/>
      <use xlink:href="#DejaVuSans-63" x="66.658203"/>
      <use xlink:href="#DejaVuSans-74" x="121.638672"/>
      <use xlink:href="#DejaVuSans-75" x="160.847656"/>
      <use xlink:href="#DejaVuSans-61" x="224.226562"/>
      <use xlink:href="#DejaVuSans-6c" x="285.505859"/>
      <use xlink:href="#DejaVuSans-20" x="313.289062"/>
      <use xlink:href="#DejaVuSans-56" x="345.076172"/>
      <use xlink:href="#DejaVuSans-61" x="405.734375"/>
      <use xlink:href="#DejaVuSans-6c" x="467.013672"/>
      <use xlink:href="#DejaVuSans-75" x="494.796875"/>
      <use xlink:href="#DejaVuSans-65" x="558.175781"/>
     </g>
    </g>
    <g id="line2d_21">
     <path d="M 1283.132812 63.532062 
L 1293.132812 63.532062 
L 1303.132812 63.532062 
" style="fill: none; stroke: #ffa500; stroke-width: 1.5; stroke-linecap: square"/>
    </g>
    <g id="text_19">
     <!-- Check Value -->
     <g transform="translate(1311.132812 67.032062)scale(0.1 -0.1)">
      <defs>
       <path id="DejaVuSans-68" d="M 3513 2113 
L 3513 0 
L 2938 0 
L 2938 2094 
Q 2938 2591 2744 2837 
Q 2550 3084 2163 3084 
Q 1697 3084 1428 2787 
Q 1159 2491 1159 1978 
L 1159 0 
L 581 0 
L 581 4863 
L 1159 4863 
L 1159 2956 
Q 1366 3272 1645 3428 
Q 1925 3584 2291 3584 
Q 2894 3584 3203 3211 
Q 3513 2838 3513 2113 
z
" transform="scale(0.015625)"/>
       <path id="DejaVuSans-6b" d="M 581 4863 
L 1159 4863 
L 1159 1991 
L 2875 3500 
L 3609 3500 
L 1753 1863 
L 3688 0 
L 2938 0 
L 1159 1709 
L 1159 0 
L 581 0 
L 581 4863 
z
" transform="scale(0.015625)"/>
      </defs>
      <use xlink:href="#DejaVuSans-43"/>
      <use xlink:href="#DejaVuSans-68" x="69.824219"/>
      <use xlink:href="#DejaVuSans-65" x="133.203125"/>
      <use xlink:href="#DejaVuSans-63" x="194.726562"/>
      <use xlink:href="#DejaVuSans-6b" x="249.707031"/>
      <use xlink:href="#DejaVuSans-20" x="307.617188"/>
      <use xlink:href="#DejaVuSans-56" x="339.404297"/>
      <use xlink:href="#DejaVuSans-61" x="400.0625"/>
      <use xlink:href="#DejaVuSans-6c" x="461.341797"/>
      <use xlink:href="#DejaVuSans-75" x="489.125"/>
      <use xlink:href="#DejaVuSans-65" x="552.503906"/>
     </g>
    </g>
    <g id="line2d_22">
     <path d="M 1283.132812 78.210187 
L 1293.132812 78.210187 
L 1303.132812 78.210187 
" style="fill: none; stroke: #ff0000; stroke-width: 1.5; stroke-linecap: square"/>
    </g>
    <g id="text_20">
     <!-- Predict Value -->
     <g transform="translate(1311.132812 81.710187)scale(0.1 -0.1)">
      <defs>
       <path id="DejaVuSans-50" d="M 1259 4147 
L 1259 2394 
L 2053 2394 
Q 2494 2394 2734 2622 
Q 2975 2850 2975 3272 
Q 2975 3691 2734 3919 
Q 2494 4147 2053 4147 
L 1259 4147 
z
M 628 4666 
L 2053 4666 
Q 2838 4666 3239 4311 
Q 3641 3956 3641 3272 
Q 3641 2581 3239 2228 
Q 2838 1875 2053 1875 
L 1259 1875 
L 1259 0 
L 628 0 
L 628 4666 
z
" transform="scale(0.015625)"/>
      </defs>
      <use xlink:href="#DejaVuSans-50"/>
      <use xlink:href="#DejaVuSans-72" x="58.552734"/>
      <use xlink:href="#DejaVuSans-65" x="97.416016"/>
      <use xlink:href="#DejaVuSans-64" x="158.939453"/>
      <use xlink:href="#DejaVuSans-69" x="222.416016"/>
      <use xlink:href="#DejaVuSans-63" x="250.199219"/>
      <use xlink:href="#DejaVuSans-74" x="305.179688"/>
      <use xlink:href="#DejaVuSans-20" x="344.388672"/>
      <use xlink:href="#DejaVuSans-56" x="376.175781"/>
      <use xlink:href="#DejaVuSans-61" x="436.833984"/>
      <use xlink:href="#DejaVuSans-6c" x="498.113281"/>
      <use xlink:href="#DejaVuSans-75" x="525.896484"/>
      <use xlink:href="#DejaVuSans-65" x="589.275391"/>
     </g>
    </g>
   </g>
  </g>
 </g>
 <defs>
  <clipPath id="p4c807a741d">
   <rect x="46.0125" y="35.7555" width="1339.2" height="332.64"/>
  </clipPath>
 </defs>
</svg>
