<?xml version="1.0" encoding="utf-8" standalone="no"?>
<!DOCTYPE svg PUBLIC "-//W3C//DTD SVG 1.1//EN"
  "http://www.w3.org/Graphics/SVG/1.1/DTD/svg11.dtd">
<svg xmlns:xlink="http://www.w3.org/1999/xlink" width="1392.4125pt" height="392.273625pt" viewBox="0 0 1392.4125 392.273625" xmlns="http://www.w3.org/2000/svg" version="1.1">
 <metadata>
  <rdf:RDF xmlns:dc="http://purl.org/dc/elements/1.1/" xmlns:cc="http://creativecommons.org/ns#" xmlns:rdf="http://www.w3.org/1999/02/22-rdf-syntax-ns#">
   <cc:Work>
    <dc:type rdf:resource="http://purl.org/dc/dcmitype/StillImage"/>
    <dc:date>2022-06-21T17:36:03.465919</dc:date>
    <dc:format>image/svg+xml</dc:format>
    <dc:creator>
     <cc:Agent>
      <dc:title>Matplotlib v3.5.2, https://matplotlib.org/</dc:title>
     </cc:Agent>
    </dc:creator>
   </cc:Work>
  </rdf:RDF>
 </metadata>
 <defs>
  <style type="text/css">*{stroke-linejoin: round; stroke-linecap: butt}</style>
 </defs>
 <g id="figure_1">
  <g id="patch_1">
   <path d="M 0 392.273625 
L 1392.4125 392.273625 
L 1392.4125 0 
L 0 0 
z
" style="fill: #ffffff"/>
  </g>
  <g id="axes_1">
   <g id="patch_2">
    <path d="M 46.0125 368.3955 
L 1385.2125 368.3955 
L 1385.2125 35.7555 
L 46.0125 35.7555 
z
" style="fill: #ffffff"/>
   </g>
   <g id="matplotlib.axis_1">
    <g id="xtick_1">
     <g id="line2d_1">
      <defs>
       <path id="md63cdf5f57" d="M 0 0 
L 0 3.5 
" style="stroke: #000000; stroke-width: 0.8"/>
      </defs>
      <g>
       <use xlink:href="#md63cdf5f57" x="76.858321" y="368.3955" style="stroke: #000000; stroke-width: 0.8"/>
      </g>
     </g>
     <g id="text_1">
      <!-- 2020-01 -->
      <g transform="translate(55.966915 382.993937)scale(0.1 -0.1)">
       <defs>
        <path id="DejaVuSans-32" d="M 1228 531 
L 3431 531 
L 3431 0 
L 469 0 
L 469 531 
Q 828 903 1448 1529 
Q 2069 2156 2228 2338 
Q 2531 2678 2651 2914 
Q 2772 3150 2772 3378 
Q 2772 3750 2511 3984 
Q 2250 4219 1831 4219 
Q 1534 4219 1204 4116 
Q 875 4013 500 3803 
L 500 4441 
Q 881 4594 1212 4672 
Q 1544 4750 1819 4750 
Q 2544 4750 2975 4387 
Q 3406 4025 3406 3419 
Q 3406 3131 3298 2873 
Q 3191 2616 2906 2266 
Q 2828 2175 2409 1742 
Q 1991 1309 1228 531 
z
" transform="scale(0.015625)"/>
        <path id="DejaVuSans-30" d="M 2034 4250 
Q 1547 4250 1301 3770 
Q 1056 3291 1056 2328 
Q 1056 1369 1301 889 
Q 1547 409 2034 409 
Q 2525 409 2770 889 
Q 3016 1369 3016 2328 
Q 3016 3291 2770 3770 
Q 2525 4250 2034 4250 
z
M 2034 4750 
Q 2819 4750 3233 4129 
Q 3647 3509 3647 2328 
Q 3647 1150 3233 529 
Q 2819 -91 2034 -91 
Q 1250 -91 836 529 
Q 422 1150 422 2328 
Q 422 3509 836 4129 
Q 1250 4750 2034 4750 
z
" transform="scale(0.015625)"/>
        <path id="DejaVuSans-2d" d="M 313 2009 
L 1997 2009 
L 1997 1497 
L 313 1497 
L 313 2009 
z
" transform="scale(0.015625)"/>
        <path id="DejaVuSans-31" d="M 794 531 
L 1825 531 
L 1825 4091 
L 703 3866 
L 703 4441 
L 1819 4666 
L 2450 4666 
L 2450 531 
L 3481 531 
L 3481 0 
L 794 0 
L 794 531 
z
" transform="scale(0.015625)"/>
       </defs>
       <use xlink:href="#DejaVuSans-32"/>
       <use xlink:href="#DejaVuSans-30" x="63.623047"/>
       <use xlink:href="#DejaVuSans-32" x="127.246094"/>
       <use xlink:href="#DejaVuSans-30" x="190.869141"/>
       <use xlink:href="#DejaVuSans-2d" x="254.492188"/>
       <use xlink:href="#DejaVuSans-30" x="290.576172"/>
       <use xlink:href="#DejaVuSans-31" x="354.199219"/>
      </g>
     </g>
    </g>
    <g id="xtick_2">
     <g id="line2d_2">
      <g>
       <use xlink:href="#md63cdf5f57" x="201.060523" y="368.3955" style="stroke: #000000; stroke-width: 0.8"/>
      </g>
     </g>
     <g id="text_2">
      <!-- 2020-04 -->
      <g transform="translate(180.169117 382.993937)scale(0.1 -0.1)">
       <defs>
        <path id="DejaVuSans-34" d="M 2419 4116 
L 825 1625 
L 2419 1625 
L 2419 4116 
z
M 2253 4666 
L 3047 4666 
L 3047 1625 
L 3713 1625 
L 3713 1100 
L 3047 1100 
L 3047 0 
L 2419 0 
L 2419 1100 
L 313 1100 
L 313 1709 
L 2253 4666 
z
" transform="scale(0.015625)"/>
       </defs>
       <use xlink:href="#DejaVuSans-32"/>
       <use xlink:href="#DejaVuSans-30" x="63.623047"/>
       <use xlink:href="#DejaVuSans-32" x="127.246094"/>
       <use xlink:href="#DejaVuSans-30" x="190.869141"/>
       <use xlink:href="#DejaVuSans-2d" x="254.492188"/>
       <use xlink:href="#DejaVuSans-30" x="290.576172"/>
       <use xlink:href="#DejaVuSans-34" x="354.199219"/>
      </g>
     </g>
    </g>
    <g id="xtick_3">
     <g id="line2d_3">
      <g>
       <use xlink:href="#md63cdf5f57" x="325.262724" y="368.3955" style="stroke: #000000; stroke-width: 0.8"/>
      </g>
     </g>
     <g id="text_3">
      <!-- 2020-07 -->
      <g transform="translate(304.371318 382.993937)scale(0.1 -0.1)">
       <defs>
        <path id="DejaVuSans-37" d="M 525 4666 
L 3525 4666 
L 3525 4397 
L 1831 0 
L 1172 0 
L 2766 4134 
L 525 4134 
L 525 4666 
z
" transform="scale(0.015625)"/>
       </defs>
       <use xlink:href="#DejaVuSans-32"/>
       <use xlink:href="#DejaVuSans-30" x="63.623047"/>
       <use xlink:href="#DejaVuSans-32" x="127.246094"/>
       <use xlink:href="#DejaVuSans-30" x="190.869141"/>
       <use xlink:href="#DejaVuSans-2d" x="254.492188"/>
       <use xlink:href="#DejaVuSans-30" x="290.576172"/>
       <use xlink:href="#DejaVuSans-37" x="354.199219"/>
      </g>
     </g>
    </g>
    <g id="xtick_4">
     <g id="line2d_4">
      <g>
       <use xlink:href="#md63cdf5f57" x="450.829785" y="368.3955" style="stroke: #000000; stroke-width: 0.8"/>
      </g>
     </g>
     <g id="text_4">
      <!-- 2020-10 -->
      <g transform="translate(429.938379 382.993937)scale(0.1 -0.1)">
       <use xlink:href="#DejaVuSans-32"/>
       <use xlink:href="#DejaVuSans-30" x="63.623047"/>
       <use xlink:href="#DejaVuSans-32" x="127.246094"/>
       <use xlink:href="#DejaVuSans-30" x="190.869141"/>
       <use xlink:href="#DejaVuSans-2d" x="254.492188"/>
       <use xlink:href="#DejaVuSans-31" x="290.576172"/>
       <use xlink:href="#DejaVuSans-30" x="354.199219"/>
      </g>
     </g>
    </g>
    <g id="xtick_5">
     <g id="line2d_5">
      <g>
       <use xlink:href="#md63cdf5f57" x="576.396846" y="368.3955" style="stroke: #000000; stroke-width: 0.8"/>
      </g>
     </g>
     <g id="text_5">
      <!-- 2021-01 -->
      <g transform="translate(555.505439 382.993937)scale(0.1 -0.1)">
       <use xlink:href="#DejaVuSans-32"/>
       <use xlink:href="#DejaVuSans-30" x="63.623047"/>
       <use xlink:href="#DejaVuSans-32" x="127.246094"/>
       <use xlink:href="#DejaVuSans-31" x="190.869141"/>
       <use xlink:href="#DejaVuSans-2d" x="254.492188"/>
       <use xlink:href="#DejaVuSans-30" x="290.576172"/>
       <use xlink:href="#DejaVuSans-31" x="354.199219"/>
      </g>
     </g>
    </g>
    <g id="xtick_6">
     <g id="line2d_6">
      <g>
       <use xlink:href="#md63cdf5f57" x="699.234188" y="368.3955" style="stroke: #000000; stroke-width: 0.8"/>
      </g>
     </g>
     <g id="text_6">
      <!-- 2021-04 -->
      <g transform="translate(678.342781 382.993937)scale(0.1 -0.1)">
       <use xlink:href="#DejaVuSans-32"/>
       <use xlink:href="#DejaVuSans-30" x="63.623047"/>
       <use xlink:href="#DejaVuSans-32" x="127.246094"/>
       <use xlink:href="#DejaVuSans-31" x="190.869141"/>
       <use xlink:href="#DejaVuSans-2d" x="254.492188"/>
       <use xlink:href="#DejaVuSans-30" x="290.576172"/>
       <use xlink:href="#DejaVuSans-34" x="354.199219"/>
      </g>
     </g>
    </g>
    <g id="xtick_7">
     <g id="line2d_7">
      <g>
       <use xlink:href="#md63cdf5f57" x="823.436389" y="368.3955" style="stroke: #000000; stroke-width: 0.8"/>
      </g>
     </g>
     <g id="text_7">
      <!-- 2021-07 -->
      <g transform="translate(802.544983 382.993937)scale(0.1 -0.1)">
       <use xlink:href="#DejaVuSans-32"/>
       <use xlink:href="#DejaVuSans-30" x="63.623047"/>
       <use xlink:href="#DejaVuSans-32" x="127.246094"/>
       <use xlink:href="#DejaVuSans-31" x="190.869141"/>
       <use xlink:href="#DejaVuSans-2d" x="254.492188"/>
       <use xlink:href="#DejaVuSans-30" x="290.576172"/>
       <use xlink:href="#DejaVuSans-37" x="354.199219"/>
      </g>
     </g>
    </g>
    <g id="xtick_8">
     <g id="line2d_8">
      <g>
       <use xlink:href="#md63cdf5f57" x="949.00345" y="368.3955" style="stroke: #000000; stroke-width: 0.8"/>
      </g>
     </g>
     <g id="text_8">
      <!-- 2021-10 -->
      <g transform="translate(928.112044 382.993937)scale(0.1 -0.1)">
       <use xlink:href="#DejaVuSans-32"/>
       <use xlink:href="#DejaVuSans-30" x="63.623047"/>
       <use xlink:href="#DejaVuSans-32" x="127.246094"/>
       <use xlink:href="#DejaVuSans-31" x="190.869141"/>
       <use xlink:href="#DejaVuSans-2d" x="254.492188"/>
       <use xlink:href="#DejaVuSans-31" x="290.576172"/>
       <use xlink:href="#DejaVuSans-30" x="354.199219"/>
      </g>
     </g>
    </g>
    <g id="xtick_9">
     <g id="line2d_9">
      <g>
       <use xlink:href="#md63cdf5f57" x="1074.570511" y="368.3955" style="stroke: #000000; stroke-width: 0.8"/>
      </g>
     </g>
     <g id="text_9">
      <!-- 2022-01 -->
      <g transform="translate(1053.679104 382.993937)scale(0.1 -0.1)">
       <use xlink:href="#DejaVuSans-32"/>
       <use xlink:href="#DejaVuSans-30" x="63.623047"/>
       <use xlink:href="#DejaVuSans-32" x="127.246094"/>
       <use xlink:href="#DejaVuSans-32" x="190.869141"/>
       <use xlink:href="#DejaVuSans-2d" x="254.492188"/>
       <use xlink:href="#DejaVuSans-30" x="290.576172"/>
       <use xlink:href="#DejaVuSans-31" x="354.199219"/>
      </g>
     </g>
    </g>
    <g id="xtick_10">
     <g id="line2d_10">
      <g>
       <use xlink:href="#md63cdf5f57" x="1197.407853" y="368.3955" style="stroke: #000000; stroke-width: 0.8"/>
      </g>
     </g>
     <g id="text_10">
      <!-- 2022-04 -->
      <g transform="translate(1176.516446 382.993937)scale(0.1 -0.1)">
       <use xlink:href="#DejaVuSans-32"/>
       <use xlink:href="#DejaVuSans-30" x="63.623047"/>
       <use xlink:href="#DejaVuSans-32" x="127.246094"/>
       <use xlink:href="#DejaVuSans-32" x="190.869141"/>
       <use xlink:href="#DejaVuSans-2d" x="254.492188"/>
       <use xlink:href="#DejaVuSans-30" x="290.576172"/>
       <use xlink:href="#DejaVuSans-34" x="354.199219"/>
      </g>
     </g>
    </g>
    <g id="xtick_11">
     <g id="line2d_11">
      <g>
       <use xlink:href="#md63cdf5f57" x="1321.610054" y="368.3955" style="stroke: #000000; stroke-width: 0.8"/>
      </g>
     </g>
     <g id="text_11">
      <!-- 2022-07 -->
      <g transform="translate(1300.718648 382.993937)scale(0.1 -0.1)">
       <use xlink:href="#DejaVuSans-32"/>
       <use xlink:href="#DejaVuSans-30" x="63.623047"/>
       <use xlink:href="#DejaVuSans-32" x="127.246094"/>
       <use xlink:href="#DejaVuSans-32" x="190.869141"/>
       <use xlink:href="#DejaVuSans-2d" x="254.492188"/>
       <use xlink:href="#DejaVuSans-30" x="290.576172"/>
       <use xlink:href="#DejaVuSans-37" x="354.199219"/>
      </g>
     </g>
    </g>
   </g>
   <g id="matplotlib.axis_2">
    <g id="ytick_1">
     <g id="line2d_12">
      <defs>
       <path id="m38d1c9964b" d="M 0 0 
L -3.5 0 
" style="stroke: #000000; stroke-width: 0.8"/>
      </defs>
      <g>
       <use xlink:href="#m38d1c9964b" x="46.0125" y="337.349913" style="stroke: #000000; stroke-width: 0.8"/>
      </g>
     </g>
     <g id="text_12">
      <!-- 0 -->
      <g transform="translate(32.65 341.149132)scale(0.1 -0.1)">
       <use xlink:href="#DejaVuSans-30"/>
      </g>
     </g>
    </g>
    <g id="ytick_2">
     <g id="line2d_13">
      <g>
       <use xlink:href="#m38d1c9964b" x="46.0125" y="265.097293" style="stroke: #000000; stroke-width: 0.8"/>
      </g>
     </g>
     <g id="text_13">
      <!-- 10000 -->
      <g transform="translate(7.2 268.896512)scale(0.1 -0.1)">
       <use xlink:href="#DejaVuSans-31"/>
       <use xlink:href="#DejaVuSans-30" x="63.623047"/>
       <use xlink:href="#DejaVuSans-30" x="127.246094"/>
       <use xlink:href="#DejaVuSans-30" x="190.869141"/>
       <use xlink:href="#DejaVuSans-30" x="254.492188"/>
      </g>
     </g>
    </g>
    <g id="ytick_3">
     <g id="line2d_14">
      <g>
       <use xlink:href="#m38d1c9964b" x="46.0125" y="192.844673" style="stroke: #000000; stroke-width: 0.8"/>
      </g>
     </g>
     <g id="text_14">
      <!-- 20000 -->
      <g transform="translate(7.2 196.643892)scale(0.1 -0.1)">
       <use xlink:href="#DejaVuSans-32"/>
       <use xlink:href="#DejaVuSans-30" x="63.623047"/>
       <use xlink:href="#DejaVuSans-30" x="127.246094"/>
       <use xlink:href="#DejaVuSans-30" x="190.869141"/>
       <use xlink:href="#DejaVuSans-30" x="254.492188"/>
      </g>
     </g>
    </g>
    <g id="ytick_4">
     <g id="line2d_15">
      <g>
       <use xlink:href="#m38d1c9964b" x="46.0125" y="120.592053" style="stroke: #000000; stroke-width: 0.8"/>
      </g>
     </g>
     <g id="text_15">
      <!-- 30000 -->
      <g transform="translate(7.2 124.391272)scale(0.1 -0.1)">
       <defs>
        <path id="DejaVuSans-33" d="M 2597 2516 
Q 3050 2419 3304 2112 
Q 3559 1806 3559 1356 
Q 3559 666 3084 287 
Q 2609 -91 1734 -91 
Q 1441 -91 1130 -33 
Q 819 25 488 141 
L 488 750 
Q 750 597 1062 519 
Q 1375 441 1716 441 
Q 2309 441 2620 675 
Q 2931 909 2931 1356 
Q 2931 1769 2642 2001 
Q 2353 2234 1838 2234 
L 1294 2234 
L 1294 2753 
L 1863 2753 
Q 2328 2753 2575 2939 
Q 2822 3125 2822 3475 
Q 2822 3834 2567 4026 
Q 2313 4219 1838 4219 
Q 1578 4219 1281 4162 
Q 984 4106 628 3988 
L 628 4550 
Q 988 4650 1302 4700 
Q 1616 4750 1894 4750 
Q 2613 4750 3031 4423 
Q 3450 4097 3450 3541 
Q 3450 3153 3228 2886 
Q 3006 2619 2597 2516 
z
" transform="scale(0.015625)"/>
       </defs>
       <use xlink:href="#DejaVuSans-33"/>
       <use xlink:href="#DejaVuSans-30" x="63.623047"/>
       <use xlink:href="#DejaVuSans-30" x="127.246094"/>
       <use xlink:href="#DejaVuSans-30" x="190.869141"/>
       <use xlink:href="#DejaVuSans-30" x="254.492188"/>
      </g>
     </g>
    </g>
    <g id="ytick_5">
     <g id="line2d_16">
      <g>
       <use xlink:href="#m38d1c9964b" x="46.0125" y="48.339433" style="stroke: #000000; stroke-width: 0.8"/>
      </g>
     </g>
     <g id="text_16">
      <!-- 40000 -->
      <g transform="translate(7.2 52.138652)scale(0.1 -0.1)">
       <use xlink:href="#DejaVuSans-34"/>
       <use xlink:href="#DejaVuSans-30" x="63.623047"/>
       <use xlink:href="#DejaVuSans-30" x="127.246094"/>
       <use xlink:href="#DejaVuSans-30" x="190.869141"/>
       <use xlink:href="#DejaVuSans-30" x="254.492188"/>
      </g>
     </g>
    </g>
   </g>
   <g id="line2d_17">
    <path d="M 106.885227 337.349913 
L 187.411929 337.292111 
L 192.871367 337.075353 
L 194.236226 337.104254 
L 195.601085 336.916397 
L 196.965945 336.887496 
L 198.330804 337.046452 
L 199.695663 336.901947 
L 201.060523 336.981425 
L 203.790242 336.800793 
L 206.51996 336.966974 
L 207.88482 336.641837 
L 209.249679 336.894722 
L 210.614538 336.381728 
L 213.344257 337.342688 
L 214.709116 336.208322 
L 216.073976 336.85137 
L 217.438835 337.017551 
L 220.168554 336.894722 
L 221.533413 336.547909 
L 222.898273 336.519008 
L 224.263132 336.692414 
L 225.627991 336.742991 
L 226.992851 336.316701 
L 228.35771 336.511783 
L 229.722569 336.143294 
L 231.087429 334.532061 
L 232.452288 335.630301 
L 233.817147 336.078267 
L 235.182007 336.323926 
L 236.546866 335.933762 
L 237.911725 336.056591 
L 239.276585 335.998789 
L 240.641444 333.202613 
L 242.006304 335.75313 
L 244.736022 335.391867 
L 246.100882 335.709779 
L 247.465741 335.435219 
L 248.8306 334.857198 
L 251.560319 334.92945 
L 252.925178 336.179421 
L 254.290038 336.468431 
L 255.654897 335.847059 
L 257.019756 336.764667 
L 258.384616 335.34129 
L 259.749475 335.998789 
L 261.114334 336.042141 
L 262.479194 336.966974 
L 263.844053 337.248759 
L 265.208913 334.821071 
L 266.573772 336.98865 
L 267.938631 336.237223 
L 269.303491 336.497332 
L 270.66835 335.297939 
L 272.033209 337.082578 
L 273.398069 336.930848 
L 274.762928 336.475656 
L 276.127787 336.815244 
L 277.492647 336.685189 
L 278.857506 336.771892 
L 280.222365 335.247362 
L 281.587225 337.147606 
L 282.952084 337.27766 
L 284.316944 335.760355 
L 285.681803 337.024776 
L 287.046662 336.432305 
L 288.411522 336.808018 
L 289.776381 336.345602 
L 291.14124 336.952524 
L 292.5061 337.024776 
L 293.870959 336.352827 
L 295.235818 336.880271 
L 296.600678 336.331151 
L 297.965537 336.822469 
L 299.330396 336.266124 
L 300.695256 337.010326 
L 302.060115 336.764667 
L 303.424975 335.774806 
L 304.789834 336.685189 
L 306.154693 335.666427 
L 307.519553 336.562359 
L 308.884412 335.413543 
L 310.249271 336.800793 
L 311.614131 337.068128 
L 312.97899 335.240137 
L 314.343849 336.562359 
L 315.708709 334.510385 
L 317.073568 336.071042 
L 318.438427 334.784945 
L 319.803287 336.229997 
L 321.168146 335.688103 
L 322.533006 334.734368 
L 323.897865 336.186646 
L 325.262724 334.026293 
L 326.627584 336.107168 
L 327.992443 332.602916 
L 329.357302 335.529147 
L 330.722162 336.121618 
L 332.087021 333.325442 
L 333.45188 335.745905 
L 334.81674 333.939589 
L 336.181599 334.076869 
L 337.546458 333.607227 
L 338.911318 334.575412 
L 340.276177 335.225686 
L 341.641036 332.552339 
L 343.005896 335.6014 
L 344.370755 334.011842 
L 345.735615 333.96849 
L 347.100474 333.224288 
L 348.465333 335.146208 
L 349.830193 335.160659 
L 351.195052 332.58124 
L 352.559911 335.377417 
L 353.924771 333.368794 
L 355.28963 333.917914 
L 356.654489 333.029206 
L 358.019349 334.062419 
L 359.384208 335.319614 
L 360.749067 333.621678 
L 362.113927 335.543598 
L 363.478786 333.498848 
L 364.843646 335.232911 
L 366.208505 333.874562 
L 367.573364 335.702553 
L 368.938224 335.334065 
L 370.303083 333.282091 
L 371.667942 334.821071 
L 373.032802 333.961265 
L 374.397661 334.741593 
L 375.76252 333.592777 
L 377.12738 335.088406 
L 378.492239 335.912086 
L 379.857098 333.55665 
L 381.221958 335.290713 
L 382.586817 332.783547 
L 383.951677 334.633215 
L 385.316536 333.354343 
L 386.681395 331.063935 
L 388.046255 337.349913 
L 389.411114 332.191076 
L 390.775973 335.471345 
L 392.140833 333.419371 
L 393.505692 333.83121 
L 394.870551 330.168003 
L 396.235411 333.83121 
L 397.60027 335.399092 
L 398.965129 330.977232 
L 400.329989 335.088406 
L 401.694848 329.95847 
L 403.059708 333.917914 
L 404.424567 332.342806 
L 405.789426 333.426596 
L 407.154286 336.15052 
L 408.519145 331.259017 
L 409.884004 334.741593 
L 411.248864 330.970007 
L 412.613723 333.441046 
L 413.978582 330.341409 
L 415.343442 335.254587 
L 416.708301 336.121618 
L 418.07316 333.600002 
L 419.43802 332.559564 
L 420.802879 334.38033 
L 422.167738 334.676566 
L 423.532598 333.188162 
L 424.897457 335.269038 
L 426.262317 336.627387 
L 427.627176 330.912205 
L 428.992035 335.008928 
L 430.356895 332.046571 
L 431.721754 334.199699 
L 433.086613 330.406436 
L 434.451473 334.741593 
L 435.816332 319.915356 
L 437.181191 334.972802 
L 438.546051 330.009047 
L 439.91091 334.748819 
L 441.275769 329.351548 
L 442.640629 334.402006 
L 444.005488 337.321012 
L 445.370348 326.779355 
L 446.735207 334.647665 
L 448.100066 330.543716 
L 449.464926 335.34129 
L 450.829785 328.896356 
L 452.194644 335.579724 
L 453.559504 337.118705 
L 454.924363 328.990285 
L 456.289222 335.521922 
L 457.654082 328.824104 
L 459.018941 336.519008 
L 460.3838 325.753368 
L 461.74866 334.915 
L 463.113519 336.750216 
L 464.478379 325.883422 
L 465.843238 334.857198 
L 467.208097 328.809653 
L 468.572957 335.348515 
L 469.937816 326.533696 
L 471.302675 335.782031 
L 472.667535 336.569585 
L 474.032394 326.613174 
L 475.397253 332.863025 
L 476.762113 327.949847 
L 478.126972 334.532061 
L 479.491831 327.07559 
L 480.856691 333.809535 
L 482.22155 336.829694 
L 483.586409 324.272189 
L 484.951269 334.842747 
L 486.316128 317.783904 
L 487.680988 334.633215 
L 489.045847 317.588821 
L 490.410706 333.484398 
L 491.775566 337.060903 
L 493.140425 313.311466 
L 494.505284 334.120221 
L 495.870144 318.080139 
L 497.235003 333.910688 
L 498.599862 303.051594 
L 499.964722 330.861628 
L 501.329581 335.818157 
L 502.69444 302.357969 
L 504.0593 333.412145 
L 505.424159 334.062419 
L 506.789019 298.492454 
L 508.153878 335.384642 
L 509.518737 292.105322 
L 510.883597 337.241534 
L 512.248456 337.053677 
L 513.613315 285.653163 
L 514.978175 333.123135 
L 516.343034 298.131191 
L 517.707893 334.214149 
L 519.072753 295.941937 
L 520.437612 336.099943 
L 521.802471 337.212633 
L 523.167331 281.881577 
L 524.53219 335.008928 
L 525.89705 299.908605 
L 527.261909 334.784945 
L 528.626768 302.567502 
L 529.991628 336.706865 
L 531.356487 337.349913 
L 532.721346 306.274061 
L 534.086206 335.124532 
L 535.451065 304.236537 
L 536.815924 335.254587 
L 538.180784 293.824935 
L 539.545643 335.825383 
L 540.910502 337.342688 
L 542.275362 297.733801 
L 543.640221 334.250276 
L 545.005081 299.019898 
L 546.36994 335.485795 
L 547.734799 297.632648 
L 549.099659 336.323926 
L 550.464518 337.349913 
L 551.829377 304.706179 
L 553.194237 335.391867 
L 554.559096 305.472057 
L 555.923955 335.420768 
L 557.288815 296.418804 
L 558.653674 336.887496 
L 560.018533 337.313787 
L 561.383393 307.639636 
L 562.748252 335.348515 
L 564.113111 302.719232 
L 565.477971 336.360052 
L 566.84283 337.349913 
L 569.572549 337.349913 
L 570.937408 293.665979 
L 572.302268 334.647665 
L 573.667127 293.731006 
L 575.031986 337.306561 
L 576.396846 301.97503 
L 577.761705 337.270435 
L 579.126564 337.349913 
L 580.491424 308.810128 
L 581.856283 338.563757 
L 583.221142 299.084925 
L 584.586002 336.526233 
L 585.950861 299.258332 
L 587.315721 337.349913 
L 588.68058 337.349913 
L 590.045439 300.291544 
L 591.410299 336.692414 
L 592.775158 306.274061 
L 594.140017 335.138983 
L 595.504877 308.85348 
L 596.869736 337.349913 
L 598.234595 337.349913 
L 599.599455 312.271029 
L 600.964314 336.063816 
L 602.329173 311.924216 
L 603.694033 335.998789 
L 605.058892 314.2363 
L 606.423752 337.349913 
L 607.788611 337.349913 
L 609.15347 318.600358 
L 610.51833 336.808018 
L 611.883189 314.460283 
L 613.248048 336.793568 
L 614.612908 321.938429 
L 615.977767 337.349913 
L 617.342626 337.349913 
L 618.707486 322.523675 
L 620.072345 336.2878 
L 621.437204 321.69277 
L 622.802064 337.053677 
L 624.166923 318.831567 
L 625.531783 337.349913 
L 626.896642 337.349913 
L 628.261501 327.147843 
L 629.626361 337.328237 
L 630.99122 323.824223 
L 632.356079 336.894722 
L 633.720939 328.686824 
L 635.085798 337.349913 
L 636.450657 337.349913 
L 637.815517 327.574134 
L 639.180376 337.241534 
L 640.545235 328.318336 
L 641.910095 337.12593 
L 643.274954 322.24189 
L 644.639813 337.349913 
L 646.004673 337.349913 
L 647.369532 331.100061 
L 648.734392 337.270435 
L 650.099251 329.416575 
L 651.46411 337.162056 
L 652.82897 331.699758 
L 654.193829 337.349913 
L 655.558688 337.349913 
L 656.923548 332.675169 
L 658.288407 337.27766 
L 659.653266 331.641956 
L 661.018126 337.133155 
L 662.382985 333.628903 
L 663.747844 335.912086 
L 665.112704 337.349913 
L 666.477563 333.014756 
L 667.842423 337.219858 
L 669.207282 332.075472 
L 670.572141 337.162056 
L 671.937001 334.221375 
L 673.30186 337.349913 
L 674.666719 337.349913 
L 676.031579 334.178023 
L 677.396438 337.299336 
L 678.761297 332.8558 
L 680.126157 337.190957 
L 681.491016 334.214149 
L 682.855875 337.349913 
L 684.220735 337.349913 
L 685.585594 334.611539 
L 686.950454 337.14038 
L 688.315313 333.231514 
L 689.680172 336.974199 
L 691.045032 334.178023 
L 692.409891 337.349913 
L 693.77475 337.349913 
L 695.13961 334.24305 
L 696.504469 337.169281 
L 697.869328 333.758958 
L 699.234188 337.190957 
L 700.599047 333.975716 
L 701.963906 337.349913 
L 703.328766 337.349913 
L 704.693625 334.784945 
L 706.058485 337.284886 
L 707.423344 333.520524 
L 708.788203 337.190957 
L 710.153063 334.257501 
L 711.517922 337.349913 
L 712.882781 337.349913 
L 714.247641 333.81676 
L 715.6125 337.342688 
L 716.977359 332.848575 
L 718.342219 337.335463 
L 719.707078 333.600002 
L 721.071937 337.349913 
L 722.436797 337.349913 
L 723.801656 334.394781 
L 725.166515 337.349913 
L 726.531375 333.137585 
L 727.896234 337.306561 
L 729.261094 333.896238 
L 730.625953 337.349913 
L 731.990812 337.349913 
L 733.355672 333.823985 
L 734.720531 337.349913 
L 736.08539 332.725745 
L 737.45025 337.328237 
L 738.815109 333.115909 
L 740.179968 337.349913 
L 741.544828 337.349913 
L 742.909687 333.67948 
L 744.274546 337.349913 
L 745.639406 333.780634 
L 747.004265 337.328237 
L 748.369125 334.134671 
L 749.733984 337.349913 
L 751.098843 337.349913 
L 752.463703 334.813846 
L 753.828562 337.349913 
L 755.193421 334.459808 
L 756.558281 337.075353 
L 757.92314 334.799396 
L 759.287999 337.349913 
L 760.652859 337.349913 
L 762.017718 334.712692 
L 763.382577 337.335463 
L 764.747437 333.744507 
L 766.112296 337.147606 
L 767.477156 334.488709 
L 768.842015 337.349913 
L 770.206874 337.349913 
L 771.571734 335.362966 
L 772.936593 337.349913 
L 774.301452 334.806621 
L 775.666312 337.342688 
L 777.031171 335.75313 
L 778.39603 337.349913 
L 782.490608 337.328237 
L 783.855468 334.221375 
L 785.220327 337.349913 
L 786.585187 335.240137 
L 787.950046 337.349913 
L 789.314905 337.349913 
L 790.679765 335.839833 
L 792.044624 337.321012 
L 793.409483 334.568187 
L 794.774343 337.349913 
L 796.139202 335.695328 
L 797.504061 337.349913 
L 798.868921 337.349913 
L 800.23378 335.666427 
L 801.598639 337.349913 
L 802.963499 335.045054 
L 804.328358 337.335463 
L 805.693217 336.121618 
L 807.058077 337.349913 
L 808.422936 337.349913 
L 809.787796 336.295025 
L 811.152655 337.349913 
L 812.517514 334.886099 
L 813.882374 337.349913 
L 815.247233 335.507471 
L 816.612092 337.349913 
L 817.976952 337.349913 
L 819.341811 334.915 
L 820.70667 337.342688 
L 822.07153 334.206924 
L 823.436389 337.176507 
L 824.801248 334.51761 
L 826.166108 337.349913 
L 830.260686 337.270435 
L 831.625545 329.915118 
L 832.990405 337.205408 
L 834.355264 331.483 
L 835.720123 337.349913 
L 837.084983 337.349913 
L 838.449842 332.56679 
L 839.814701 337.349913 
L 841.179561 336.388953 
L 842.54442 329.445476 
L 843.909279 329.655009 
L 845.274139 337.349913 
L 846.638998 337.292111 
L 848.003858 331.504676 
L 849.368717 337.349913 
L 850.733576 337.118705 
L 852.098436 326.815481 
L 853.463295 326.432542 
L 854.828154 337.349913 
L 856.193014 337.349913 
L 857.557873 326.526471 
L 858.922732 337.349913 
L 860.287592 335.861509 
L 861.652451 322.51645 
L 863.01731 323.564113 
L 864.38217 337.349913 
L 865.747029 337.349913 
L 867.111889 336.800793 
L 868.476748 337.349913 
L 869.841607 335.912086 
L 871.206467 307.097741 
L 872.571326 321.606067 
L 873.936185 337.349913 
L 875.301045 337.349913 
L 876.665904 317.755002 
L 878.030763 337.349913 
L 879.395623 317.791129 
L 880.760482 337.349913 
L 882.125341 316.107643 
L 883.490201 337.349913 
L 884.85506 337.349913 
L 886.219919 319.243406 
L 887.584779 337.27766 
L 888.949638 336.453981 
L 890.314498 337.212633 
L 891.679357 297.647098 
L 893.044216 336.974199 
L 894.409076 337.349913 
L 895.773935 336.475656 
L 897.138794 317.993436 
L 898.503654 312.328831 
L 899.868513 337.082578 
L 901.233372 313.419845 
L 902.598232 336.786343 
L 903.963091 337.349913 
L 905.32795 314.633689 
L 906.69281 337.162056 
L 908.057669 306.960461 
L 909.422529 337.162056 
L 910.787388 308.940183 
L 912.152247 337.349913 
L 914.881966 337.349913 
L 916.246825 337.082578 
L 917.611685 296.324875 
L 918.976544 337.097029 
L 920.341403 307.083291 
L 921.706263 337.349913 
L 923.071122 337.349913 
L 924.435981 316.757916 
L 925.800841 337.270435 
L 927.1657 310.385235 
L 928.53056 337.198183 
L 929.895419 314.164047 
L 931.260278 337.349913 
L 932.625138 337.349913 
L 933.989997 319.640796 
L 935.354856 337.198183 
L 936.719716 319.315659 
L 938.084575 337.104254 
L 939.449434 319.387912 
L 940.814294 337.349913 
L 942.179153 337.349913 
L 943.544012 323.080021 
L 944.908872 337.306561 
L 946.273731 319.698598 
L 947.638591 336.808018 
L 949.00345 320.493377 
L 950.368309 337.349913 
L 951.733169 337.349913 
L 953.098028 324.199936 
L 954.462887 337.234309 
L 955.827747 320.551179 
L 957.192606 337.241534 
L 958.557465 322.429747 
L 959.922325 337.349913 
L 961.287184 337.349913 
L 962.652043 324.684029 
L 964.016903 337.010326 
L 965.381762 322.632054 
L 966.746621 337.190957 
L 968.111481 324.207161 
L 969.47634 337.349913 
L 970.8412 337.349913 
L 972.206059 326.627624 
L 973.570918 336.338376 
L 974.935778 322.538126 
L 976.300637 336.699639 
L 977.665496 324.149359 
L 979.030356 337.349913 
L 980.395215 337.349913 
L 981.760074 326.591498 
L 983.124934 337.292111 
L 984.489793 319.626345 
L 985.854652 337.227084 
L 987.219512 323.816997 
L 988.584371 337.349913 
L 989.949231 337.349913 
L 991.31409 328.087127 
L 992.678949 337.306561 
L 994.043809 321.042497 
L 995.408668 337.270435 
L 996.773527 322.400846 
L 998.138387 337.349913 
L 999.503246 337.349913 
L 1000.868105 323.491861 
L 1002.232965 337.205408 
L 1003.597824 317.242009 
L 1004.962683 337.032002 
L 1006.327543 317.480443 
L 1007.692402 337.349913 
L 1009.057262 337.349913 
L 1010.422121 322.942741 
L 1011.78698 337.205408 
L 1013.15184 315.421243 
L 1014.516699 336.229997 
L 1015.881558 317.350388 
L 1017.246418 337.349913 
L 1018.611277 337.349913 
L 1019.976136 319.568543 
L 1021.340996 337.349913 
L 1022.705855 322.335819 
L 1024.070714 330.890529 
L 1025.435574 337.349913 
L 1028.165292 337.349913 
L 1029.530152 307.957547 
L 1030.895011 337.349913 
L 1032.259871 305.414255 
L 1033.62473 336.388953 
L 1034.989589 304.821784 
L 1036.354449 336.453981 
L 1037.719308 337.349913 
L 1039.084167 313.427071 
L 1040.449027 337.198183 
L 1041.813886 305.392579 
L 1043.178745 337.068128 
L 1044.543605 309.915593 
L 1045.908464 337.349913 
L 1047.273323 337.349913 
L 1048.638183 314.185723 
L 1050.003042 336.98865 
L 1051.367902 307.928646 
L 1052.732761 336.215547 
L 1054.09762 306.758154 
L 1055.46248 337.349913 
L 1056.827339 337.349913 
L 1058.192198 318.477529 
L 1059.557058 337.162056 
L 1060.921917 300.4505 
L 1062.286776 337.205408 
L 1063.651636 337.349913 
L 1066.381354 337.349913 
L 1067.746214 289.995546 
L 1069.111073 337.097029 
L 1070.475933 284.258688 
L 1071.840792 336.829694 
L 1073.205651 337.349913 
L 1075.93537 337.349913 
L 1077.300229 231.673231 
L 1078.665089 337.082578 
L 1080.029948 228.067825 
L 1081.394807 337.032002 
L 1082.759667 221.948028 
L 1084.124526 337.349913 
L 1085.489385 337.349913 
L 1086.854245 239.881129 
L 1088.219104 336.901947 
L 1089.583964 321.960105 
L 1090.948823 336.128844 
L 1092.313682 50.8755 
L 1093.678542 337.349913 
L 1096.40826 337.349913 
L 1097.77312 336.605711 
L 1099.137979 56.980846 
L 1100.502838 334.965577 
L 1101.867698 192.122147 
L 1103.232557 337.212633 
L 1104.597416 337.349913 
L 1105.962276 236.759815 
L 1107.327135 335.167884 
L 1108.691994 228.580819 
L 1110.056854 336.952524 
L 1111.421713 245.379553 
L 1112.786573 337.349913 
L 1114.151432 337.349913 
L 1115.516291 281.404709 
L 1116.881151 337.154831 
L 1118.24601 274.056618 
L 1119.610869 332.906377 
L 1120.975729 303.159973 
L 1122.340588 337.349913 
L 1123.705447 337.349913 
L 1125.070307 308.918507 
L 1126.435166 337.313787 
L 1127.800025 332.053796 
L 1129.164885 337.219858 
L 1130.529744 336.107168 
L 1131.894604 337.349913 
L 1133.259463 337.349913 
L 1134.624322 336.374503 
L 1135.989182 272.763296 
L 1137.354041 319.077225 
L 1138.7189 337.313787 
L 1140.08376 327.162294 
L 1141.448619 337.349913 
L 1142.813478 337.349913 
L 1144.178338 330.399211 
L 1145.543197 337.284886 
L 1146.908056 329.27207 
L 1148.272916 337.349913 
L 1149.637775 328.520643 
L 1151.002635 337.349913 
L 1152.367494 337.349913 
L 1153.732353 333.845661 
L 1155.097213 337.313787 
L 1156.462072 329.66946 
L 1157.826931 337.321012 
L 1159.191791 333.686705 
L 1160.55665 337.349913 
L 1161.921509 337.349913 
L 1163.286369 335.045054 
L 1164.651228 337.12593 
L 1166.016087 333.549425 
L 1167.380947 337.342688 
L 1168.745806 335.146208 
L 1170.110666 337.349913 
L 1171.475525 337.349913 
L 1172.840384 336.72854 
L 1174.205244 337.342688 
L 1175.570103 335.442444 
L 1176.934962 337.349913 
L 1178.299822 336.128844 
L 1179.664681 337.349913 
L 1181.02954 337.349913 
L 1182.3944 336.562359 
L 1183.759259 337.349913 
L 1185.124118 335.471345 
L 1186.488978 337.349913 
L 1187.853837 336.793568 
L 1189.218696 337.212633 
L 1190.583556 337.349913 
L 1191.948415 336.295025 
L 1193.313275 337.349913 
L 1194.678134 335.767581 
L 1196.042993 337.342688 
L 1197.407853 336.042141 
L 1198.772712 337.349913 
L 1205.597009 337.349913 
L 1206.961868 332.516213 
L 1208.326727 337.349913 
L 1215.151024 337.349913 
L 1216.515884 330.023497 
L 1217.880743 337.349913 
L 1224.70504 337.349913 
L 1226.069899 327.277898 
L 1227.434758 337.349913 
L 1228.799618 337.349913 
L 1230.164477 334.250276 
L 1231.529337 335.471345 
L 1232.894196 337.349913 
L 1234.259055 336.280574 
L 1235.623915 325.912323 
L 1236.988774 337.349913 
L 1239.718493 337.342688 
L 1241.083352 335.521922 
L 1242.448211 337.349913 
L 1243.813071 336.511783 
L 1245.17793 323.780871 
L 1246.542789 337.349913 
L 1249.272508 337.313787 
L 1250.637368 335.897635 
L 1252.002227 337.349913 
L 1253.367086 336.374503 
L 1254.731946 319.127802 
L 1256.096805 337.349913 
L 1258.826524 337.321012 
L 1260.191383 336.092717 
L 1261.556242 324.86466 
L 1262.921102 336.612936 
L 1264.285961 337.349913 
L 1269.745398 337.299336 
L 1271.110258 316.555609 
L 1272.475117 337.349913 
L 1273.839977 336.063816 
L 1275.204836 337.349913 
L 1279.299414 337.349913 
L 1280.664273 314.257976 
L 1282.029133 337.349913 
L 1288.853429 337.349913 
L 1290.218289 303.644066 
L 1291.583148 337.349913 
L 1298.407445 337.349913 
L 1299.772304 308.932958 
L 1301.137164 337.349913 
L 1305.231742 337.349913 
L 1306.596601 337.010326 
L 1306.596601 337.010326 
" clip-path="url(#pbb341b7184)" style="fill: none; stroke: #0000ff; stroke-width: 1.5; stroke-linecap: square"/>
   </g>
   <g id="line2d_18">
    <path d="M 1067.746214 339.895606 
L 1069.111073 324.116218 
L 1070.475933 343.226845 
L 1071.840792 328.93401 
L 1073.205651 317.375494 
L 1074.570511 324.265224 
L 1075.93537 292.396937 
L 1077.300229 338.560537 
L 1078.665089 306.614918 
L 1080.029948 343.728839 
L 1081.394807 322.801683 
L 1082.759667 304.655773 
L 1084.124526 305.578745 
L 1085.489385 229.516544 
L 1086.854245 302.414557 
L 1088.219104 210.028035 
L 1089.583964 301.663331 
L 1090.948823 265.121532 
L 1092.313682 337.003846 
L 1093.678542 331.217245 
L 1095.043401 291.615549 
L 1096.40826 299.260084 
L 1097.77312 194.660503 
L 1099.137979 317.276743 
L 1100.502838 181.474535 
L 1101.867698 352.41035 
L 1103.232557 303.836503 
L 1104.597416 187.314723 
L 1105.962276 288.712604 
L 1107.327135 179.026793 
L 1108.691994 320.324205 
L 1110.056854 220.033505 
L 1111.421713 287.547353 
L 1112.786573 319.716948 
L 1114.151432 292.713909 
L 1115.516291 340.253772 
L 1116.881151 262.120819 
L 1118.24601 336.689819 
L 1119.610869 273.361797 
L 1120.975729 330.904656 
L 1122.340588 338.987697 
L 1123.705447 309.269289 
L 1125.070307 342.260353 
L 1126.435166 307.291229 
L 1127.800025 337.56098 
L 1129.164885 311.45768 
L 1130.529744 340.707846 
L 1131.894604 346.702598 
L 1133.259463 340.646073 
L 1134.624322 350.421594 
L 1135.989182 352.13175 
L 1137.354041 346.17341 
L 1138.7189 335.107203 
L 1140.08376 339.480233 
L 1141.448619 306.850589 
L 1142.813478 316.885589 
L 1144.178338 301.377242 
L 1146.908056 335.155309 
L 1148.272916 330.804075 
L 1149.637775 341.263948 
L 1151.002635 353.2755 
L 1152.367494 341.113971 
L 1153.732353 333.666573 
L 1155.097213 330.445546 
L 1156.462072 337.566066 
L 1157.826931 332.215236 
L 1159.191791 338.634552 
L 1160.55665 340.880558 
L 1161.921509 335.601496 
L 1163.286369 336.430102 
L 1164.651228 333.394184 
L 1166.016087 337.670895 
L 1167.380947 334.723121 
L 1168.745806 337.732026 
L 1170.110666 338.318042 
L 1171.475525 336.66411 
L 1172.840384 337.298374 
L 1174.205244 335.002112 
L 1175.570103 337.485352 
L 1176.934962 335.962803 
L 1178.299822 337.977565 
L 1179.664681 337.979671 
L 1181.02954 337.414657 
L 1182.3944 337.632565 
L 1183.759259 336.188633 
L 1185.124118 337.538491 
L 1186.488978 336.461656 
L 1187.853837 337.264973 
L 1189.218696 337.341902 
L 1190.583556 336.66838 
L 1191.948415 337.37214 
L 1193.313275 336.295424 
L 1194.678134 337.377323 
L 1196.042993 336.797113 
L 1197.407853 337.083072 
L 1198.772712 337.166179 
L 1200.137571 336.476811 
L 1201.502431 337.04176 
L 1202.86729 335.866373 
L 1204.232149 337.077515 
L 1205.597009 336.656452 
L 1206.961868 338.080487 
L 1208.326727 337.585598 
L 1209.691587 337.595594 
L 1211.056446 336.882529 
L 1212.421306 334.954869 
L 1213.786165 336.438613 
L 1215.151024 334.639464 
L 1216.515884 337.876867 
L 1217.880743 337.355363 
L 1219.245602 337.313692 
L 1220.610462 336.598367 
L 1221.975321 334.640861 
L 1223.34018 336.238142 
L 1224.70504 333.007976 
L 1226.069899 337.900319 
L 1227.434758 337.269733 
L 1228.799618 337.179372 
L 1230.164477 336.709809 
L 1231.529337 334.210628 
L 1232.894196 335.869889 
L 1234.259055 330.862444 
L 1235.623915 335.831338 
L 1236.988774 335.497385 
L 1238.353633 334.85162 
L 1239.718493 334.468988 
L 1241.083352 333.878662 
L 1242.448211 335.396208 
L 1243.813071 330.504979 
L 1245.17793 338.526707 
L 1246.542789 337.009949 
L 1247.907649 336.65994 
L 1249.272508 334.893984 
L 1250.637368 333.46483 
L 1252.002227 335.219208 
L 1253.367086 329.094736 
L 1254.731946 338.384586 
L 1256.096805 337.025764 
L 1257.461664 336.79314 
L 1258.826524 334.426957 
L 1260.191383 331.563875 
L 1261.556242 335.821365 
L 1262.921102 326.261927 
L 1264.285961 335.39835 
L 1265.65082 334.990417 
L 1267.01568 330.659728 
L 1268.380539 335.225874 
L 1269.745398 335.733378 
L 1271.110258 340.404933 
L 1272.475117 335.758554 
L 1273.839977 337.290066 
L 1275.204836 335.448188 
L 1276.569695 329.526472 
L 1277.934555 334.251638 
L 1279.299414 325.76861 
L 1280.664273 338.370935 
L 1282.029133 336.086444 
L 1283.393992 336.88633 
L 1284.758851 335.44931 
L 1286.123711 330.796857 
L 1287.48857 334.790959 
L 1288.853429 323.814544 
L 1290.218289 339.526864 
L 1291.583148 336.944092 
L 1292.948008 336.721384 
L 1294.312867 333.988449 
L 1295.677726 326.149521 
L 1297.042586 332.718809 
L 1298.407445 317.192603 
L 1299.772304 337.768143 
L 1301.137164 336.95632 
L 1302.502023 336.969685 
L 1303.866882 335.675011 
L 1305.231742 331.891297 
L 1306.596601 335.120261 
L 1306.596601 335.120261 
" clip-path="url(#pbb341b7184)" style="fill: none; stroke: #ffa500; stroke-width: 1.5; stroke-linecap: square"/>
   </g>
   <g id="line2d_19">
    <path d="M 1306.596601 335.120261 
L 1307.96146 319.570816 
L 1309.32632 337.026987 
L 1310.691179 337.101621 
L 1312.056039 336.752096 
L 1313.420898 335.998943 
L 1314.785757 336.389652 
L 1316.150617 335.814933 
L 1317.515476 324.946354 
L 1318.880335 336.539506 
L 1320.245195 336.240458 
L 1321.610054 336.276157 
L 1322.974913 336.115755 
L 1324.339773 336.320764 
" clip-path="url(#pbb341b7184)" style="fill: none; stroke: #ff0000; stroke-width: 1.5; stroke-linecap: square"/>
   </g>
   <g id="patch_3">
    <path d="M 46.0125 368.3955 
L 46.0125 35.7555 
" style="fill: none; stroke: #000000; stroke-width: 0.8; stroke-linejoin: miter; stroke-linecap: square"/>
   </g>
   <g id="patch_4">
    <path d="M 1385.2125 368.3955 
L 1385.2125 35.7555 
" style="fill: none; stroke: #000000; stroke-width: 0.8; stroke-linejoin: miter; stroke-linecap: square"/>
   </g>
   <g id="patch_5">
    <path d="M 46.0125 368.3955 
L 1385.2125 368.3955 
" style="fill: none; stroke: #000000; stroke-width: 0.8; stroke-linejoin: miter; stroke-linecap: square"/>
   </g>
   <g id="patch_6">
    <path d="M 46.0125 35.7555 
L 1385.2125 35.7555 
" style="fill: none; stroke: #000000; stroke-width: 0.8; stroke-linejoin: miter; stroke-linecap: square"/>
   </g>
   <g id="text_17">
    <!-- Daily Confirmed Cases Forecasting - Kansas -->
    <g transform="translate(583.875 16.318125)scale(0.12 -0.12)">
     <defs>
      <path id="DejaVuSans-44" d="M 1259 4147 
L 1259 519 
L 2022 519 
Q 2988 519 3436 956 
Q 3884 1394 3884 2338 
Q 3884 3275 3436 3711 
Q 2988 4147 2022 4147 
L 1259 4147 
z
M 628 4666 
L 1925 4666 
Q 3281 4666 3915 4102 
Q 4550 3538 4550 2338 
Q 4550 1131 3912 565 
Q 3275 0 1925 0 
L 628 0 
L 628 4666 
z
" transform="scale(0.015625)"/>
      <path id="DejaVuSans-61" d="M 2194 1759 
Q 1497 1759 1228 1600 
Q 959 1441 959 1056 
Q 959 750 1161 570 
Q 1363 391 1709 391 
Q 2188 391 2477 730 
Q 2766 1069 2766 1631 
L 2766 1759 
L 2194 1759 
z
M 3341 1997 
L 3341 0 
L 2766 0 
L 2766 531 
Q 2569 213 2275 61 
Q 1981 -91 1556 -91 
Q 1019 -91 701 211 
Q 384 513 384 1019 
Q 384 1609 779 1909 
Q 1175 2209 1959 2209 
L 2766 2209 
L 2766 2266 
Q 2766 2663 2505 2880 
Q 2244 3097 1772 3097 
Q 1472 3097 1187 3025 
Q 903 2953 641 2809 
L 641 3341 
Q 956 3463 1253 3523 
Q 1550 3584 1831 3584 
Q 2591 3584 2966 3190 
Q 3341 2797 3341 1997 
z
" transform="scale(0.015625)"/>
      <path id="DejaVuSans-69" d="M 603 3500 
L 1178 3500 
L 1178 0 
L 603 0 
L 603 3500 
z
M 603 4863 
L 1178 4863 
L 1178 4134 
L 603 4134 
L 603 4863 
z
" transform="scale(0.015625)"/>
      <path id="DejaVuSans-6c" d="M 603 4863 
L 1178 4863 
L 1178 0 
L 603 0 
L 603 4863 
z
" transform="scale(0.015625)"/>
      <path id="DejaVuSans-79" d="M 2059 -325 
Q 1816 -950 1584 -1140 
Q 1353 -1331 966 -1331 
L 506 -1331 
L 506 -850 
L 844 -850 
Q 1081 -850 1212 -737 
Q 1344 -625 1503 -206 
L 1606 56 
L 191 3500 
L 800 3500 
L 1894 763 
L 2988 3500 
L 3597 3500 
L 2059 -325 
z
" transform="scale(0.015625)"/>
      <path id="DejaVuSans-20" transform="scale(0.015625)"/>
      <path id="DejaVuSans-43" d="M 4122 4306 
L 4122 3641 
Q 3803 3938 3442 4084 
Q 3081 4231 2675 4231 
Q 1875 4231 1450 3742 
Q 1025 3253 1025 2328 
Q 1025 1406 1450 917 
Q 1875 428 2675 428 
Q 3081 428 3442 575 
Q 3803 722 4122 1019 
L 4122 359 
Q 3791 134 3420 21 
Q 3050 -91 2638 -91 
Q 1578 -91 968 557 
Q 359 1206 359 2328 
Q 359 3453 968 4101 
Q 1578 4750 2638 4750 
Q 3056 4750 3426 4639 
Q 3797 4528 4122 4306 
z
" transform="scale(0.015625)"/>
      <path id="DejaVuSans-6f" d="M 1959 3097 
Q 1497 3097 1228 2736 
Q 959 2375 959 1747 
Q 959 1119 1226 758 
Q 1494 397 1959 397 
Q 2419 397 2687 759 
Q 2956 1122 2956 1747 
Q 2956 2369 2687 2733 
Q 2419 3097 1959 3097 
z
M 1959 3584 
Q 2709 3584 3137 3096 
Q 3566 2609 3566 1747 
Q 3566 888 3137 398 
Q 2709 -91 1959 -91 
Q 1206 -91 779 398 
Q 353 888 353 1747 
Q 353 2609 779 3096 
Q 1206 3584 1959 3584 
z
" transform="scale(0.015625)"/>
      <path id="DejaVuSans-6e" d="M 3513 2113 
L 3513 0 
L 2938 0 
L 2938 2094 
Q 2938 2591 2744 2837 
Q 2550 3084 2163 3084 
Q 1697 3084 1428 2787 
Q 1159 2491 1159 1978 
L 1159 0 
L 581 0 
L 581 3500 
L 1159 3500 
L 1159 2956 
Q 1366 3272 1645 3428 
Q 1925 3584 2291 3584 
Q 2894 3584 3203 3211 
Q 3513 2838 3513 2113 
z
" transform="scale(0.015625)"/>
      <path id="DejaVuSans-66" d="M 2375 4863 
L 2375 4384 
L 1825 4384 
Q 1516 4384 1395 4259 
Q 1275 4134 1275 3809 
L 1275 3500 
L 2222 3500 
L 2222 3053 
L 1275 3053 
L 1275 0 
L 697 0 
L 697 3053 
L 147 3053 
L 147 3500 
L 697 3500 
L 697 3744 
Q 697 4328 969 4595 
Q 1241 4863 1831 4863 
L 2375 4863 
z
" transform="scale(0.015625)"/>
      <path id="DejaVuSans-72" d="M 2631 2963 
Q 2534 3019 2420 3045 
Q 2306 3072 2169 3072 
Q 1681 3072 1420 2755 
Q 1159 2438 1159 1844 
L 1159 0 
L 581 0 
L 581 3500 
L 1159 3500 
L 1159 2956 
Q 1341 3275 1631 3429 
Q 1922 3584 2338 3584 
Q 2397 3584 2469 3576 
Q 2541 3569 2628 3553 
L 2631 2963 
z
" transform="scale(0.015625)"/>
      <path id="DejaVuSans-6d" d="M 3328 2828 
Q 3544 3216 3844 3400 
Q 4144 3584 4550 3584 
Q 5097 3584 5394 3201 
Q 5691 2819 5691 2113 
L 5691 0 
L 5113 0 
L 5113 2094 
Q 5113 2597 4934 2840 
Q 4756 3084 4391 3084 
Q 3944 3084 3684 2787 
Q 3425 2491 3425 1978 
L 3425 0 
L 2847 0 
L 2847 2094 
Q 2847 2600 2669 2842 
Q 2491 3084 2119 3084 
Q 1678 3084 1418 2786 
Q 1159 2488 1159 1978 
L 1159 0 
L 581 0 
L 581 3500 
L 1159 3500 
L 1159 2956 
Q 1356 3278 1631 3431 
Q 1906 3584 2284 3584 
Q 2666 3584 2933 3390 
Q 3200 3197 3328 2828 
z
" transform="scale(0.015625)"/>
      <path id="DejaVuSans-65" d="M 3597 1894 
L 3597 1613 
L 953 1613 
Q 991 1019 1311 708 
Q 1631 397 2203 397 
Q 2534 397 2845 478 
Q 3156 559 3463 722 
L 3463 178 
Q 3153 47 2828 -22 
Q 2503 -91 2169 -91 
Q 1331 -91 842 396 
Q 353 884 353 1716 
Q 353 2575 817 3079 
Q 1281 3584 2069 3584 
Q 2775 3584 3186 3129 
Q 3597 2675 3597 1894 
z
M 3022 2063 
Q 3016 2534 2758 2815 
Q 2500 3097 2075 3097 
Q 1594 3097 1305 2825 
Q 1016 2553 972 2059 
L 3022 2063 
z
" transform="scale(0.015625)"/>
      <path id="DejaVuSans-64" d="M 2906 2969 
L 2906 4863 
L 3481 4863 
L 3481 0 
L 2906 0 
L 2906 525 
Q 2725 213 2448 61 
Q 2172 -91 1784 -91 
Q 1150 -91 751 415 
Q 353 922 353 1747 
Q 353 2572 751 3078 
Q 1150 3584 1784 3584 
Q 2172 3584 2448 3432 
Q 2725 3281 2906 2969 
z
M 947 1747 
Q 947 1113 1208 752 
Q 1469 391 1925 391 
Q 2381 391 2643 752 
Q 2906 1113 2906 1747 
Q 2906 2381 2643 2742 
Q 2381 3103 1925 3103 
Q 1469 3103 1208 2742 
Q 947 2381 947 1747 
z
" transform="scale(0.015625)"/>
      <path id="DejaVuSans-73" d="M 2834 3397 
L 2834 2853 
Q 2591 2978 2328 3040 
Q 2066 3103 1784 3103 
Q 1356 3103 1142 2972 
Q 928 2841 928 2578 
Q 928 2378 1081 2264 
Q 1234 2150 1697 2047 
L 1894 2003 
Q 2506 1872 2764 1633 
Q 3022 1394 3022 966 
Q 3022 478 2636 193 
Q 2250 -91 1575 -91 
Q 1294 -91 989 -36 
Q 684 19 347 128 
L 347 722 
Q 666 556 975 473 
Q 1284 391 1588 391 
Q 1994 391 2212 530 
Q 2431 669 2431 922 
Q 2431 1156 2273 1281 
Q 2116 1406 1581 1522 
L 1381 1569 
Q 847 1681 609 1914 
Q 372 2147 372 2553 
Q 372 3047 722 3315 
Q 1072 3584 1716 3584 
Q 2034 3584 2315 3537 
Q 2597 3491 2834 3397 
z
" transform="scale(0.015625)"/>
      <path id="DejaVuSans-46" d="M 628 4666 
L 3309 4666 
L 3309 4134 
L 1259 4134 
L 1259 2759 
L 3109 2759 
L 3109 2228 
L 1259 2228 
L 1259 0 
L 628 0 
L 628 4666 
z
" transform="scale(0.015625)"/>
      <path id="DejaVuSans-63" d="M 3122 3366 
L 3122 2828 
Q 2878 2963 2633 3030 
Q 2388 3097 2138 3097 
Q 1578 3097 1268 2742 
Q 959 2388 959 1747 
Q 959 1106 1268 751 
Q 1578 397 2138 397 
Q 2388 397 2633 464 
Q 2878 531 3122 666 
L 3122 134 
Q 2881 22 2623 -34 
Q 2366 -91 2075 -91 
Q 1284 -91 818 406 
Q 353 903 353 1747 
Q 353 2603 823 3093 
Q 1294 3584 2113 3584 
Q 2378 3584 2631 3529 
Q 2884 3475 3122 3366 
z
" transform="scale(0.015625)"/>
      <path id="DejaVuSans-74" d="M 1172 4494 
L 1172 3500 
L 2356 3500 
L 2356 3053 
L 1172 3053 
L 1172 1153 
Q 1172 725 1289 603 
Q 1406 481 1766 481 
L 2356 481 
L 2356 0 
L 1766 0 
Q 1100 0 847 248 
Q 594 497 594 1153 
L 594 3053 
L 172 3053 
L 172 3500 
L 594 3500 
L 594 4494 
L 1172 4494 
z
" transform="scale(0.015625)"/>
      <path id="DejaVuSans-67" d="M 2906 1791 
Q 2906 2416 2648 2759 
Q 2391 3103 1925 3103 
Q 1463 3103 1205 2759 
Q 947 2416 947 1791 
Q 947 1169 1205 825 
Q 1463 481 1925 481 
Q 2391 481 2648 825 
Q 2906 1169 2906 1791 
z
M 3481 434 
Q 3481 -459 3084 -895 
Q 2688 -1331 1869 -1331 
Q 1566 -1331 1297 -1286 
Q 1028 -1241 775 -1147 
L 775 -588 
Q 1028 -725 1275 -790 
Q 1522 -856 1778 -856 
Q 2344 -856 2625 -561 
Q 2906 -266 2906 331 
L 2906 616 
Q 2728 306 2450 153 
Q 2172 0 1784 0 
Q 1141 0 747 490 
Q 353 981 353 1791 
Q 353 2603 747 3093 
Q 1141 3584 1784 3584 
Q 2172 3584 2450 3431 
Q 2728 3278 2906 2969 
L 2906 3500 
L 3481 3500 
L 3481 434 
z
" transform="scale(0.015625)"/>
      <path id="DejaVuSans-4b" d="M 628 4666 
L 1259 4666 
L 1259 2694 
L 3353 4666 
L 4166 4666 
L 1850 2491 
L 4331 0 
L 3500 0 
L 1259 2247 
L 1259 0 
L 628 0 
L 628 4666 
z
" transform="scale(0.015625)"/>
     </defs>
     <use xlink:href="#DejaVuSans-44"/>
     <use xlink:href="#DejaVuSans-61" x="77.001953"/>
     <use xlink:href="#DejaVuSans-69" x="138.28125"/>
     <use xlink:href="#DejaVuSans-6c" x="166.064453"/>
     <use xlink:href="#DejaVuSans-79" x="193.847656"/>
     <use xlink:href="#DejaVuSans-20" x="253.027344"/>
     <use xlink:href="#DejaVuSans-43" x="284.814453"/>
     <use xlink:href="#DejaVuSans-6f" x="354.638672"/>
     <use xlink:href="#DejaVuSans-6e" x="415.820312"/>
     <use xlink:href="#DejaVuSans-66" x="479.199219"/>
     <use xlink:href="#DejaVuSans-69" x="514.404297"/>
     <use xlink:href="#DejaVuSans-72" x="542.1875"/>
     <use xlink:href="#DejaVuSans-6d" x="581.550781"/>
     <use xlink:href="#DejaVuSans-65" x="678.962891"/>
     <use xlink:href="#DejaVuSans-64" x="740.486328"/>
     <use xlink:href="#DejaVuSans-20" x="803.962891"/>
     <use xlink:href="#DejaVuSans-43" x="835.75"/>
     <use xlink:href="#DejaVuSans-61" x="905.574219"/>
     <use xlink:href="#DejaVuSans-73" x="966.853516"/>
     <use xlink:href="#DejaVuSans-65" x="1018.953125"/>
     <use xlink:href="#DejaVuSans-73" x="1080.476562"/>
     <use xlink:href="#DejaVuSans-20" x="1132.576172"/>
     <use xlink:href="#DejaVuSans-46" x="1164.363281"/>
     <use xlink:href="#DejaVuSans-6f" x="1218.257812"/>
     <use xlink:href="#DejaVuSans-72" x="1279.439453"/>
     <use xlink:href="#DejaVuSans-65" x="1318.302734"/>
     <use xlink:href="#DejaVuSans-63" x="1379.826172"/>
     <use xlink:href="#DejaVuSans-61" x="1434.806641"/>
     <use xlink:href="#DejaVuSans-73" x="1496.085938"/>
     <use xlink:href="#DejaVuSans-74" x="1548.185547"/>
     <use xlink:href="#DejaVuSans-69" x="1587.394531"/>
     <use xlink:href="#DejaVuSans-6e" x="1615.177734"/>
     <use xlink:href="#DejaVuSans-67" x="1678.556641"/>
     <use xlink:href="#DejaVuSans-20" x="1742.033203"/>
     <use xlink:href="#DejaVuSans-2d" x="1773.820312"/>
     <use xlink:href="#DejaVuSans-20" x="1809.904297"/>
     <use xlink:href="#DejaVuSans-4b" x="1841.691406"/>
     <use xlink:href="#DejaVuSans-61" x="1905.517578"/>
     <use xlink:href="#DejaVuSans-6e" x="1966.796875"/>
     <use xlink:href="#DejaVuSans-73" x="2030.175781"/>
     <use xlink:href="#DejaVuSans-61" x="2082.275391"/>
     <use xlink:href="#DejaVuSans-73" x="2143.554688"/>
    </g>
    <!-- ARIMA (4, 1, 1)x(1, 0, 1, 7) (R2 = -0.626396) -->
    <g transform="translate(581.46375 29.7555)scale(0.12 -0.12)">
     <defs>
      <path id="DejaVuSans-41" d="M 2188 4044 
L 1331 1722 
L 3047 1722 
L 2188 4044 
z
M 1831 4666 
L 2547 4666 
L 4325 0 
L 3669 0 
L 3244 1197 
L 1141 1197 
L 716 0 
L 50 0 
L 1831 4666 
z
" transform="scale(0.015625)"/>
      <path id="DejaVuSans-52" d="M 2841 2188 
Q 3044 2119 3236 1894 
Q 3428 1669 3622 1275 
L 4263 0 
L 3584 0 
L 2988 1197 
Q 2756 1666 2539 1819 
Q 2322 1972 1947 1972 
L 1259 1972 
L 1259 0 
L 628 0 
L 628 4666 
L 2053 4666 
Q 2853 4666 3247 4331 
Q 3641 3997 3641 3322 
Q 3641 2881 3436 2590 
Q 3231 2300 2841 2188 
z
M 1259 4147 
L 1259 2491 
L 2053 2491 
Q 2509 2491 2742 2702 
Q 2975 2913 2975 3322 
Q 2975 3731 2742 3939 
Q 2509 4147 2053 4147 
L 1259 4147 
z
" transform="scale(0.015625)"/>
      <path id="DejaVuSans-49" d="M 628 4666 
L 1259 4666 
L 1259 0 
L 628 0 
L 628 4666 
z
" transform="scale(0.015625)"/>
      <path id="DejaVuSans-4d" d="M 628 4666 
L 1569 4666 
L 2759 1491 
L 3956 4666 
L 4897 4666 
L 4897 0 
L 4281 0 
L 4281 4097 
L 3078 897 
L 2444 897 
L 1241 4097 
L 1241 0 
L 628 0 
L 628 4666 
z
" transform="scale(0.015625)"/>
      <path id="DejaVuSans-28" d="M 1984 4856 
Q 1566 4138 1362 3434 
Q 1159 2731 1159 2009 
Q 1159 1288 1364 580 
Q 1569 -128 1984 -844 
L 1484 -844 
Q 1016 -109 783 600 
Q 550 1309 550 2009 
Q 550 2706 781 3412 
Q 1013 4119 1484 4856 
L 1984 4856 
z
" transform="scale(0.015625)"/>
      <path id="DejaVuSans-2c" d="M 750 794 
L 1409 794 
L 1409 256 
L 897 -744 
L 494 -744 
L 750 256 
L 750 794 
z
" transform="scale(0.015625)"/>
      <path id="DejaVuSans-29" d="M 513 4856 
L 1013 4856 
Q 1481 4119 1714 3412 
Q 1947 2706 1947 2009 
Q 1947 1309 1714 600 
Q 1481 -109 1013 -844 
L 513 -844 
Q 928 -128 1133 580 
Q 1338 1288 1338 2009 
Q 1338 2731 1133 3434 
Q 928 4138 513 4856 
z
" transform="scale(0.015625)"/>
      <path id="DejaVuSans-78" d="M 3513 3500 
L 2247 1797 
L 3578 0 
L 2900 0 
L 1881 1375 
L 863 0 
L 184 0 
L 1544 1831 
L 300 3500 
L 978 3500 
L 1906 2253 
L 2834 3500 
L 3513 3500 
z
" transform="scale(0.015625)"/>
      <path id="DejaVuSans-3d" d="M 678 2906 
L 4684 2906 
L 4684 2381 
L 678 2381 
L 678 2906 
z
M 678 1631 
L 4684 1631 
L 4684 1100 
L 678 1100 
L 678 1631 
z
" transform="scale(0.015625)"/>
      <path id="DejaVuSans-2e" d="M 684 794 
L 1344 794 
L 1344 0 
L 684 0 
L 684 794 
z
" transform="scale(0.015625)"/>
      <path id="DejaVuSans-36" d="M 2113 2584 
Q 1688 2584 1439 2293 
Q 1191 2003 1191 1497 
Q 1191 994 1439 701 
Q 1688 409 2113 409 
Q 2538 409 2786 701 
Q 3034 994 3034 1497 
Q 3034 2003 2786 2293 
Q 2538 2584 2113 2584 
z
M 3366 4563 
L 3366 3988 
Q 3128 4100 2886 4159 
Q 2644 4219 2406 4219 
Q 1781 4219 1451 3797 
Q 1122 3375 1075 2522 
Q 1259 2794 1537 2939 
Q 1816 3084 2150 3084 
Q 2853 3084 3261 2657 
Q 3669 2231 3669 1497 
Q 3669 778 3244 343 
Q 2819 -91 2113 -91 
Q 1303 -91 875 529 
Q 447 1150 447 2328 
Q 447 3434 972 4092 
Q 1497 4750 2381 4750 
Q 2619 4750 2861 4703 
Q 3103 4656 3366 4563 
z
" transform="scale(0.015625)"/>
      <path id="DejaVuSans-39" d="M 703 97 
L 703 672 
Q 941 559 1184 500 
Q 1428 441 1663 441 
Q 2288 441 2617 861 
Q 2947 1281 2994 2138 
Q 2813 1869 2534 1725 
Q 2256 1581 1919 1581 
Q 1219 1581 811 2004 
Q 403 2428 403 3163 
Q 403 3881 828 4315 
Q 1253 4750 1959 4750 
Q 2769 4750 3195 4129 
Q 3622 3509 3622 2328 
Q 3622 1225 3098 567 
Q 2575 -91 1691 -91 
Q 1453 -91 1209 -44 
Q 966 3 703 97 
z
M 1959 2075 
Q 2384 2075 2632 2365 
Q 2881 2656 2881 3163 
Q 2881 3666 2632 3958 
Q 2384 4250 1959 4250 
Q 1534 4250 1286 3958 
Q 1038 3666 1038 3163 
Q 1038 2656 1286 2365 
Q 1534 2075 1959 2075 
z
" transform="scale(0.015625)"/>
     </defs>
     <use xlink:href="#DejaVuSans-41"/>
     <use xlink:href="#DejaVuSans-52" x="68.408203"/>
     <use xlink:href="#DejaVuSans-49" x="137.890625"/>
     <use xlink:href="#DejaVuSans-4d" x="167.382812"/>
     <use xlink:href="#DejaVuSans-41" x="253.662109"/>
     <use xlink:href="#DejaVuSans-20" x="322.070312"/>
     <use xlink:href="#DejaVuSans-28" x="353.857422"/>
     <use xlink:href="#DejaVuSans-34" x="392.871094"/>
     <use xlink:href="#DejaVuSans-2c" x="456.494141"/>
     <use xlink:href="#DejaVuSans-20" x="488.28125"/>
     <use xlink:href="#DejaVuSans-31" x="520.068359"/>
     <use xlink:href="#DejaVuSans-2c" x="583.691406"/>
     <use xlink:href="#DejaVuSans-20" x="615.478516"/>
     <use xlink:href="#DejaVuSans-31" x="647.265625"/>
     <use xlink:href="#DejaVuSans-29" x="710.888672"/>
     <use xlink:href="#DejaVuSans-78" x="749.902344"/>
     <use xlink:href="#DejaVuSans-28" x="809.082031"/>
     <use xlink:href="#DejaVuSans-31" x="848.095703"/>
     <use xlink:href="#DejaVuSans-2c" x="911.71875"/>
     <use xlink:href="#DejaVuSans-20" x="943.505859"/>
     <use xlink:href="#DejaVuSans-30" x="975.292969"/>
     <use xlink:href="#DejaVuSans-2c" x="1038.916016"/>
     <use xlink:href="#DejaVuSans-20" x="1070.703125"/>
     <use xlink:href="#DejaVuSans-31" x="1102.490234"/>
     <use xlink:href="#DejaVuSans-2c" x="1166.113281"/>
     <use xlink:href="#DejaVuSans-20" x="1197.900391"/>
     <use xlink:href="#DejaVuSans-37" x="1229.6875"/>
     <use xlink:href="#DejaVuSans-29" x="1293.310547"/>
     <use xlink:href="#DejaVuSans-20" x="1332.324219"/>
     <use xlink:href="#DejaVuSans-28" x="1364.111328"/>
     <use xlink:href="#DejaVuSans-52" x="1403.125"/>
     <use xlink:href="#DejaVuSans-32" x="1472.607422"/>
     <use xlink:href="#DejaVuSans-20" x="1536.230469"/>
     <use xlink:href="#DejaVuSans-3d" x="1568.017578"/>
     <use xlink:href="#DejaVuSans-20" x="1651.806641"/>
     <use xlink:href="#DejaVuSans-2d" x="1683.59375"/>
     <use xlink:href="#DejaVuSans-30" x="1719.677734"/>
     <use xlink:href="#DejaVuSans-2e" x="1783.300781"/>
     <use xlink:href="#DejaVuSans-36" x="1815.087891"/>
     <use xlink:href="#DejaVuSans-32" x="1878.710938"/>
     <use xlink:href="#DejaVuSans-36" x="1942.333984"/>
     <use xlink:href="#DejaVuSans-33" x="2005.957031"/>
     <use xlink:href="#DejaVuSans-39" x="2069.580078"/>
     <use xlink:href="#DejaVuSans-36" x="2133.203125"/>
     <use xlink:href="#DejaVuSans-29" x="2196.826172"/>
    </g>
   </g>
   <g id="legend_1">
    <g id="patch_7">
     <path d="M 1281.132812 87.789875 
L 1378.2125 87.789875 
Q 1380.2125 87.789875 1380.2125 85.789875 
L 1380.2125 42.7555 
Q 1380.2125 40.7555 1378.2125 40.7555 
L 1281.132812 40.7555 
Q 1279.132812 40.7555 1279.132812 42.7555 
L 1279.132812 85.789875 
Q 1279.132812 87.789875 1281.132812 87.789875 
z
" style="fill: #ffffff; opacity: 0.8; stroke: #cccccc; stroke-linejoin: miter"/>
    </g>
    <g id="line2d_20">
     <path d="M 1283.132812 48.853937 
L 1293.132812 48.853937 
L 1303.132812 48.853937 
" style="fill: none; stroke: #0000ff; stroke-width: 1.5; stroke-linecap: square"/>
    </g>
    <g id="text_18">
     <!-- Actual Value -->
     <g transform="translate(1311.132812 52.353937)scale(0.1 -0.1)">
      <defs>
       <path id="DejaVuSans-75" d="M 544 1381 
L 544 3500 
L 1119 3500 
L 1119 1403 
Q 1119 906 1312 657 
Q 1506 409 1894 409 
Q 2359 409 2629 706 
Q 2900 1003 2900 1516 
L 2900 3500 
L 3475 3500 
L 3475 0 
L 2900 0 
L 2900 538 
Q 2691 219 2414 64 
Q 2138 -91 1772 -91 
Q 1169 -91 856 284 
Q 544 659 544 1381 
z
M 1991 3584 
L 1991 3584 
z
" transform="scale(0.015625)"/>
       <path id="DejaVuSans-56" d="M 1831 0 
L 50 4666 
L 709 4666 
L 2188 738 
L 3669 4666 
L 4325 4666 
L 2547 0 
L 1831 0 
z
" transform="scale(0.015625)"/>
      </defs>
      <use xlink:href="#DejaVuSans-41"/>
      <use xlink:href="#DejaVuSans-63" x="66.658203"/>
      <use xlink:href="#DejaVuSans-74" x="121.638672"/>
      <use xlink:href="#DejaVuSans-75" x="160.847656"/>
      <use xlink:href="#DejaVuSans-61" x="224.226562"/>
      <use xlink:href="#DejaVuSans-6c" x="285.505859"/>
      <use xlink:href="#DejaVuSans-20" x="313.289062"/>
      <use xlink:href="#DejaVuSans-56" x="345.076172"/>
      <use xlink:href="#DejaVuSans-61" x="405.734375"/>
      <use xlink:href="#DejaVuSans-6c" x="467.013672"/>
      <use xlink:href="#DejaVuSans-75" x="494.796875"/>
      <use xlink:href="#DejaVuSans-65" x="558.175781"/>
     </g>
    </g>
    <g id="line2d_21">
     <path d="M 1283.132812 63.532062 
L 1293.132812 63.532062 
L 1303.132812 63.532062 
" style="fill: none; stroke: #ffa500; stroke-width: 1.5; stroke-linecap: square"/>
    </g>
    <g id="text_19">
     <!-- Check Value -->
     <g transform="translate(1311.132812 67.032062)scale(0.1 -0.1)">
      <defs>
       <path id="DejaVuSans-68" d="M 3513 2113 
L 3513 0 
L 2938 0 
L 2938 2094 
Q 2938 2591 2744 2837 
Q 2550 3084 2163 3084 
Q 1697 3084 1428 2787 
Q 1159 2491 1159 1978 
L 1159 0 
L 581 0 
L 581 4863 
L 1159 4863 
L 1159 2956 
Q 1366 3272 1645 3428 
Q 1925 3584 2291 3584 
Q 2894 3584 3203 3211 
Q 3513 2838 3513 2113 
z
" transform="scale(0.015625)"/>
       <path id="DejaVuSans-6b" d="M 581 4863 
L 1159 4863 
L 1159 1991 
L 2875 3500 
L 3609 3500 
L 1753 1863 
L 3688 0 
L 2938 0 
L 1159 1709 
L 1159 0 
L 581 0 
L 581 4863 
z
" transform="scale(0.015625)"/>
      </defs>
      <use xlink:href="#DejaVuSans-43"/>
      <use xlink:href="#DejaVuSans-68" x="69.824219"/>
      <use xlink:href="#DejaVuSans-65" x="133.203125"/>
      <use xlink:href="#DejaVuSans-63" x="194.726562"/>
      <use xlink:href="#DejaVuSans-6b" x="249.707031"/>
      <use xlink:href="#DejaVuSans-20" x="307.617188"/>
      <use xlink:href="#DejaVuSans-56" x="339.404297"/>
      <use xlink:href="#DejaVuSans-61" x="400.0625"/>
      <use xlink:href="#DejaVuSans-6c" x="461.341797"/>
      <use xlink:href="#DejaVuSans-75" x="489.125"/>
      <use xlink:href="#DejaVuSans-65" x="552.503906"/>
     </g>
    </g>
    <g id="line2d_22">
     <path d="M 1283.132812 78.210187 
L 1293.132812 78.210187 
L 1303.132812 78.210187 
" style="fill: none; stroke: #ff0000; stroke-width: 1.5; stroke-linecap: square"/>
    </g>
    <g id="text_20">
     <!-- Predict Value -->
     <g transform="translate(1311.132812 81.710187)scale(0.1 -0.1)">
      <defs>
       <path id="DejaVuSans-50" d="M 1259 4147 
L 1259 2394 
L 2053 2394 
Q 2494 2394 2734 2622 
Q 2975 2850 2975 3272 
Q 2975 3691 2734 3919 
Q 2494 4147 2053 4147 
L 1259 4147 
z
M 628 4666 
L 2053 4666 
Q 2838 4666 3239 4311 
Q 3641 3956 3641 3272 
Q 3641 2581 3239 2228 
Q 2838 1875 2053 1875 
L 1259 1875 
L 1259 0 
L 628 0 
L 628 4666 
z
" transform="scale(0.015625)"/>
      </defs>
      <use xlink:href="#DejaVuSans-50"/>
      <use xlink:href="#DejaVuSans-72" x="58.552734"/>
      <use xlink:href="#DejaVuSans-65" x="97.416016"/>
      <use xlink:href="#DejaVuSans-64" x="158.939453"/>
      <use xlink:href="#DejaVuSans-69" x="222.416016"/>
      <use xlink:href="#DejaVuSans-63" x="250.199219"/>
      <use xlink:href="#DejaVuSans-74" x="305.179688"/>
      <use xlink:href="#DejaVuSans-20" x="344.388672"/>
      <use xlink:href="#DejaVuSans-56" x="376.175781"/>
      <use xlink:href="#DejaVuSans-61" x="436.833984"/>
      <use xlink:href="#DejaVuSans-6c" x="498.113281"/>
      <use xlink:href="#DejaVuSans-75" x="525.896484"/>
      <use xlink:href="#DejaVuSans-65" x="589.275391"/>
     </g>
    </g>
   </g>
  </g>
 </g>
 <defs>
  <clipPath id="pbb341b7184">
   <rect x="46.0125" y="35.7555" width="1339.2" height="332.64"/>
  </clipPath>
 </defs>
</svg>
