<?xml version="1.0" encoding="utf-8" standalone="no"?>
<!DOCTYPE svg PUBLIC "-//W3C//DTD SVG 1.1//EN"
  "http://www.w3.org/Graphics/SVG/1.1/DTD/svg11.dtd">
<svg xmlns:xlink="http://www.w3.org/1999/xlink" width="1398.775pt" height="392.273625pt" viewBox="0 0 1398.775 392.273625" xmlns="http://www.w3.org/2000/svg" version="1.1">
 <metadata>
  <rdf:RDF xmlns:dc="http://purl.org/dc/elements/1.1/" xmlns:cc="http://creativecommons.org/ns#" xmlns:rdf="http://www.w3.org/1999/02/22-rdf-syntax-ns#">
   <cc:Work>
    <dc:type rdf:resource="http://purl.org/dc/dcmitype/StillImage"/>
    <dc:date>2022-07-11T17:31:12.392841</dc:date>
    <dc:format>image/svg+xml</dc:format>
    <dc:creator>
     <cc:Agent>
      <dc:title>Matplotlib v3.5.2, https://matplotlib.org/</dc:title>
     </cc:Agent>
    </dc:creator>
   </cc:Work>
  </rdf:RDF>
 </metadata>
 <defs>
  <style type="text/css">*{stroke-linejoin: round; stroke-linecap: butt}</style>
 </defs>
 <g id="figure_1">
  <g id="patch_1">
   <path d="M 0 392.273625 
L 1398.775 392.273625 
L 1398.775 0 
L 0 0 
z
" style="fill: #ffffff"/>
  </g>
  <g id="axes_1">
   <g id="patch_2">
    <path d="M 52.375 368.3955 
L 1391.575 368.3955 
L 1391.575 35.7555 
L 52.375 35.7555 
z
" style="fill: #ffffff"/>
   </g>
   <g id="matplotlib.axis_1">
    <g id="xtick_1">
     <g id="line2d_1">
      <defs>
       <path id="mfdbe9b4c8d" d="M 0 0 
L 0 3.5 
" style="stroke: #000000; stroke-width: 0.8"/>
      </defs>
      <g>
       <use xlink:href="#mfdbe9b4c8d" x="83.879306" y="368.3955" style="stroke: #000000; stroke-width: 0.8"/>
      </g>
     </g>
     <g id="text_1">
      <!-- 2020-01 -->
      <g transform="translate(62.9879 382.993937)scale(0.1 -0.1)">
       <defs>
        <path id="DejaVuSans-32" d="M 1228 531 
L 3431 531 
L 3431 0 
L 469 0 
L 469 531 
Q 828 903 1448 1529 
Q 2069 2156 2228 2338 
Q 2531 2678 2651 2914 
Q 2772 3150 2772 3378 
Q 2772 3750 2511 3984 
Q 2250 4219 1831 4219 
Q 1534 4219 1204 4116 
Q 875 4013 500 3803 
L 500 4441 
Q 881 4594 1212 4672 
Q 1544 4750 1819 4750 
Q 2544 4750 2975 4387 
Q 3406 4025 3406 3419 
Q 3406 3131 3298 2873 
Q 3191 2616 2906 2266 
Q 2828 2175 2409 1742 
Q 1991 1309 1228 531 
z
" transform="scale(0.015625)"/>
        <path id="DejaVuSans-30" d="M 2034 4250 
Q 1547 4250 1301 3770 
Q 1056 3291 1056 2328 
Q 1056 1369 1301 889 
Q 1547 409 2034 409 
Q 2525 409 2770 889 
Q 3016 1369 3016 2328 
Q 3016 3291 2770 3770 
Q 2525 4250 2034 4250 
z
M 2034 4750 
Q 2819 4750 3233 4129 
Q 3647 3509 3647 2328 
Q 3647 1150 3233 529 
Q 2819 -91 2034 -91 
Q 1250 -91 836 529 
Q 422 1150 422 2328 
Q 422 3509 836 4129 
Q 1250 4750 2034 4750 
z
" transform="scale(0.015625)"/>
        <path id="DejaVuSans-2d" d="M 313 2009 
L 1997 2009 
L 1997 1497 
L 313 1497 
L 313 2009 
z
" transform="scale(0.015625)"/>
        <path id="DejaVuSans-31" d="M 794 531 
L 1825 531 
L 1825 4091 
L 703 3866 
L 703 4441 
L 1819 4666 
L 2450 4666 
L 2450 531 
L 3481 531 
L 3481 0 
L 794 0 
L 794 531 
z
" transform="scale(0.015625)"/>
       </defs>
       <use xlink:href="#DejaVuSans-32"/>
       <use xlink:href="#DejaVuSans-30" x="63.623047"/>
       <use xlink:href="#DejaVuSans-32" x="127.246094"/>
       <use xlink:href="#DejaVuSans-30" x="190.869141"/>
       <use xlink:href="#DejaVuSans-2d" x="254.492188"/>
       <use xlink:href="#DejaVuSans-30" x="290.576172"/>
       <use xlink:href="#DejaVuSans-31" x="354.199219"/>
      </g>
     </g>
    </g>
    <g id="xtick_2">
     <g id="line2d_2">
      <g>
       <use xlink:href="#mfdbe9b4c8d" x="205.357775" y="368.3955" style="stroke: #000000; stroke-width: 0.8"/>
      </g>
     </g>
     <g id="text_2">
      <!-- 2020-04 -->
      <g transform="translate(184.466369 382.993937)scale(0.1 -0.1)">
       <defs>
        <path id="DejaVuSans-34" d="M 2419 4116 
L 825 1625 
L 2419 1625 
L 2419 4116 
z
M 2253 4666 
L 3047 4666 
L 3047 1625 
L 3713 1625 
L 3713 1100 
L 3047 1100 
L 3047 0 
L 2419 0 
L 2419 1100 
L 313 1100 
L 313 1709 
L 2253 4666 
z
" transform="scale(0.015625)"/>
       </defs>
       <use xlink:href="#DejaVuSans-32"/>
       <use xlink:href="#DejaVuSans-30" x="63.623047"/>
       <use xlink:href="#DejaVuSans-32" x="127.246094"/>
       <use xlink:href="#DejaVuSans-30" x="190.869141"/>
       <use xlink:href="#DejaVuSans-2d" x="254.492188"/>
       <use xlink:href="#DejaVuSans-30" x="290.576172"/>
       <use xlink:href="#DejaVuSans-34" x="354.199219"/>
      </g>
     </g>
    </g>
    <g id="xtick_3">
     <g id="line2d_3">
      <g>
       <use xlink:href="#mfdbe9b4c8d" x="326.836244" y="368.3955" style="stroke: #000000; stroke-width: 0.8"/>
      </g>
     </g>
     <g id="text_3">
      <!-- 2020-07 -->
      <g transform="translate(305.944838 382.993937)scale(0.1 -0.1)">
       <defs>
        <path id="DejaVuSans-37" d="M 525 4666 
L 3525 4666 
L 3525 4397 
L 1831 0 
L 1172 0 
L 2766 4134 
L 525 4134 
L 525 4666 
z
" transform="scale(0.015625)"/>
       </defs>
       <use xlink:href="#DejaVuSans-32"/>
       <use xlink:href="#DejaVuSans-30" x="63.623047"/>
       <use xlink:href="#DejaVuSans-32" x="127.246094"/>
       <use xlink:href="#DejaVuSans-30" x="190.869141"/>
       <use xlink:href="#DejaVuSans-2d" x="254.492188"/>
       <use xlink:href="#DejaVuSans-30" x="290.576172"/>
       <use xlink:href="#DejaVuSans-37" x="354.199219"/>
      </g>
     </g>
    </g>
    <g id="xtick_4">
     <g id="line2d_4">
      <g>
       <use xlink:href="#mfdbe9b4c8d" x="449.649641" y="368.3955" style="stroke: #000000; stroke-width: 0.8"/>
      </g>
     </g>
     <g id="text_4">
      <!-- 2020-10 -->
      <g transform="translate(428.758235 382.993937)scale(0.1 -0.1)">
       <use xlink:href="#DejaVuSans-32"/>
       <use xlink:href="#DejaVuSans-30" x="63.623047"/>
       <use xlink:href="#DejaVuSans-32" x="127.246094"/>
       <use xlink:href="#DejaVuSans-30" x="190.869141"/>
       <use xlink:href="#DejaVuSans-2d" x="254.492188"/>
       <use xlink:href="#DejaVuSans-31" x="290.576172"/>
       <use xlink:href="#DejaVuSans-30" x="354.199219"/>
      </g>
     </g>
    </g>
    <g id="xtick_5">
     <g id="line2d_5">
      <g>
       <use xlink:href="#mfdbe9b4c8d" x="572.463038" y="368.3955" style="stroke: #000000; stroke-width: 0.8"/>
      </g>
     </g>
     <g id="text_5">
      <!-- 2021-01 -->
      <g transform="translate(551.571632 382.993937)scale(0.1 -0.1)">
       <use xlink:href="#DejaVuSans-32"/>
       <use xlink:href="#DejaVuSans-30" x="63.623047"/>
       <use xlink:href="#DejaVuSans-32" x="127.246094"/>
       <use xlink:href="#DejaVuSans-31" x="190.869141"/>
       <use xlink:href="#DejaVuSans-2d" x="254.492188"/>
       <use xlink:href="#DejaVuSans-30" x="290.576172"/>
       <use xlink:href="#DejaVuSans-31" x="354.199219"/>
      </g>
     </g>
    </g>
    <g id="xtick_6">
     <g id="line2d_6">
      <g>
       <use xlink:href="#mfdbe9b4c8d" x="692.606579" y="368.3955" style="stroke: #000000; stroke-width: 0.8"/>
      </g>
     </g>
     <g id="text_6">
      <!-- 2021-04 -->
      <g transform="translate(671.715173 382.993937)scale(0.1 -0.1)">
       <use xlink:href="#DejaVuSans-32"/>
       <use xlink:href="#DejaVuSans-30" x="63.623047"/>
       <use xlink:href="#DejaVuSans-32" x="127.246094"/>
       <use xlink:href="#DejaVuSans-31" x="190.869141"/>
       <use xlink:href="#DejaVuSans-2d" x="254.492188"/>
       <use xlink:href="#DejaVuSans-30" x="290.576172"/>
       <use xlink:href="#DejaVuSans-34" x="354.199219"/>
      </g>
     </g>
    </g>
    <g id="xtick_7">
     <g id="line2d_7">
      <g>
       <use xlink:href="#mfdbe9b4c8d" x="814.085048" y="368.3955" style="stroke: #000000; stroke-width: 0.8"/>
      </g>
     </g>
     <g id="text_7">
      <!-- 2021-07 -->
      <g transform="translate(793.193642 382.993937)scale(0.1 -0.1)">
       <use xlink:href="#DejaVuSans-32"/>
       <use xlink:href="#DejaVuSans-30" x="63.623047"/>
       <use xlink:href="#DejaVuSans-32" x="127.246094"/>
       <use xlink:href="#DejaVuSans-31" x="190.869141"/>
       <use xlink:href="#DejaVuSans-2d" x="254.492188"/>
       <use xlink:href="#DejaVuSans-30" x="290.576172"/>
       <use xlink:href="#DejaVuSans-37" x="354.199219"/>
      </g>
     </g>
    </g>
    <g id="xtick_8">
     <g id="line2d_8">
      <g>
       <use xlink:href="#mfdbe9b4c8d" x="936.898445" y="368.3955" style="stroke: #000000; stroke-width: 0.8"/>
      </g>
     </g>
     <g id="text_8">
      <!-- 2021-10 -->
      <g transform="translate(916.007039 382.993937)scale(0.1 -0.1)">
       <use xlink:href="#DejaVuSans-32"/>
       <use xlink:href="#DejaVuSans-30" x="63.623047"/>
       <use xlink:href="#DejaVuSans-32" x="127.246094"/>
       <use xlink:href="#DejaVuSans-31" x="190.869141"/>
       <use xlink:href="#DejaVuSans-2d" x="254.492188"/>
       <use xlink:href="#DejaVuSans-31" x="290.576172"/>
       <use xlink:href="#DejaVuSans-30" x="354.199219"/>
      </g>
     </g>
    </g>
    <g id="xtick_9">
     <g id="line2d_9">
      <g>
       <use xlink:href="#mfdbe9b4c8d" x="1059.711842" y="368.3955" style="stroke: #000000; stroke-width: 0.8"/>
      </g>
     </g>
     <g id="text_9">
      <!-- 2022-01 -->
      <g transform="translate(1038.820436 382.993937)scale(0.1 -0.1)">
       <use xlink:href="#DejaVuSans-32"/>
       <use xlink:href="#DejaVuSans-30" x="63.623047"/>
       <use xlink:href="#DejaVuSans-32" x="127.246094"/>
       <use xlink:href="#DejaVuSans-32" x="190.869141"/>
       <use xlink:href="#DejaVuSans-2d" x="254.492188"/>
       <use xlink:href="#DejaVuSans-30" x="290.576172"/>
       <use xlink:href="#DejaVuSans-31" x="354.199219"/>
      </g>
     </g>
    </g>
    <g id="xtick_10">
     <g id="line2d_10">
      <g>
       <use xlink:href="#mfdbe9b4c8d" x="1179.855383" y="368.3955" style="stroke: #000000; stroke-width: 0.8"/>
      </g>
     </g>
     <g id="text_10">
      <!-- 2022-04 -->
      <g transform="translate(1158.963977 382.993937)scale(0.1 -0.1)">
       <use xlink:href="#DejaVuSans-32"/>
       <use xlink:href="#DejaVuSans-30" x="63.623047"/>
       <use xlink:href="#DejaVuSans-32" x="127.246094"/>
       <use xlink:href="#DejaVuSans-32" x="190.869141"/>
       <use xlink:href="#DejaVuSans-2d" x="254.492188"/>
       <use xlink:href="#DejaVuSans-30" x="290.576172"/>
       <use xlink:href="#DejaVuSans-34" x="354.199219"/>
      </g>
     </g>
    </g>
    <g id="xtick_11">
     <g id="line2d_11">
      <g>
       <use xlink:href="#mfdbe9b4c8d" x="1301.333852" y="368.3955" style="stroke: #000000; stroke-width: 0.8"/>
      </g>
     </g>
     <g id="text_11">
      <!-- 2022-07 -->
      <g transform="translate(1280.442445 382.993937)scale(0.1 -0.1)">
       <use xlink:href="#DejaVuSans-32"/>
       <use xlink:href="#DejaVuSans-30" x="63.623047"/>
       <use xlink:href="#DejaVuSans-32" x="127.246094"/>
       <use xlink:href="#DejaVuSans-32" x="190.869141"/>
       <use xlink:href="#DejaVuSans-2d" x="254.492188"/>
       <use xlink:href="#DejaVuSans-30" x="290.576172"/>
       <use xlink:href="#DejaVuSans-37" x="354.199219"/>
      </g>
     </g>
    </g>
   </g>
   <g id="matplotlib.axis_2">
    <g id="ytick_1">
     <g id="line2d_12">
      <defs>
       <path id="m03573220a9" d="M 0 0 
L -3.5 0 
" style="stroke: #000000; stroke-width: 0.8"/>
      </defs>
      <g>
       <use xlink:href="#m03573220a9" x="52.375" y="350.389026" style="stroke: #000000; stroke-width: 0.8"/>
      </g>
     </g>
     <g id="text_12">
      <!-- 0 -->
      <g transform="translate(39.0125 354.188245)scale(0.1 -0.1)">
       <use xlink:href="#DejaVuSans-30"/>
      </g>
     </g>
    </g>
    <g id="ytick_2">
     <g id="line2d_13">
      <g>
       <use xlink:href="#m03573220a9" x="52.375" y="310.520602" style="stroke: #000000; stroke-width: 0.8"/>
      </g>
     </g>
     <g id="text_13">
      <!-- 20000 -->
      <g transform="translate(13.5625 314.319821)scale(0.1 -0.1)">
       <use xlink:href="#DejaVuSans-32"/>
       <use xlink:href="#DejaVuSans-30" x="63.623047"/>
       <use xlink:href="#DejaVuSans-30" x="127.246094"/>
       <use xlink:href="#DejaVuSans-30" x="190.869141"/>
       <use xlink:href="#DejaVuSans-30" x="254.492188"/>
      </g>
     </g>
    </g>
    <g id="ytick_3">
     <g id="line2d_14">
      <g>
       <use xlink:href="#m03573220a9" x="52.375" y="270.652179" style="stroke: #000000; stroke-width: 0.8"/>
      </g>
     </g>
     <g id="text_14">
      <!-- 40000 -->
      <g transform="translate(13.5625 274.451398)scale(0.1 -0.1)">
       <use xlink:href="#DejaVuSans-34"/>
       <use xlink:href="#DejaVuSans-30" x="63.623047"/>
       <use xlink:href="#DejaVuSans-30" x="127.246094"/>
       <use xlink:href="#DejaVuSans-30" x="190.869141"/>
       <use xlink:href="#DejaVuSans-30" x="254.492188"/>
      </g>
     </g>
    </g>
    <g id="ytick_4">
     <g id="line2d_15">
      <g>
       <use xlink:href="#m03573220a9" x="52.375" y="230.783755" style="stroke: #000000; stroke-width: 0.8"/>
      </g>
     </g>
     <g id="text_15">
      <!-- 60000 -->
      <g transform="translate(13.5625 234.582974)scale(0.1 -0.1)">
       <defs>
        <path id="DejaVuSans-36" d="M 2113 2584 
Q 1688 2584 1439 2293 
Q 1191 2003 1191 1497 
Q 1191 994 1439 701 
Q 1688 409 2113 409 
Q 2538 409 2786 701 
Q 3034 994 3034 1497 
Q 3034 2003 2786 2293 
Q 2538 2584 2113 2584 
z
M 3366 4563 
L 3366 3988 
Q 3128 4100 2886 4159 
Q 2644 4219 2406 4219 
Q 1781 4219 1451 3797 
Q 1122 3375 1075 2522 
Q 1259 2794 1537 2939 
Q 1816 3084 2150 3084 
Q 2853 3084 3261 2657 
Q 3669 2231 3669 1497 
Q 3669 778 3244 343 
Q 2819 -91 2113 -91 
Q 1303 -91 875 529 
Q 447 1150 447 2328 
Q 447 3434 972 4092 
Q 1497 4750 2381 4750 
Q 2619 4750 2861 4703 
Q 3103 4656 3366 4563 
z
" transform="scale(0.015625)"/>
       </defs>
       <use xlink:href="#DejaVuSans-36"/>
       <use xlink:href="#DejaVuSans-30" x="63.623047"/>
       <use xlink:href="#DejaVuSans-30" x="127.246094"/>
       <use xlink:href="#DejaVuSans-30" x="190.869141"/>
       <use xlink:href="#DejaVuSans-30" x="254.492188"/>
      </g>
     </g>
    </g>
    <g id="ytick_5">
     <g id="line2d_16">
      <g>
       <use xlink:href="#m03573220a9" x="52.375" y="190.915332" style="stroke: #000000; stroke-width: 0.8"/>
      </g>
     </g>
     <g id="text_16">
      <!-- 80000 -->
      <g transform="translate(13.5625 194.71455)scale(0.1 -0.1)">
       <defs>
        <path id="DejaVuSans-38" d="M 2034 2216 
Q 1584 2216 1326 1975 
Q 1069 1734 1069 1313 
Q 1069 891 1326 650 
Q 1584 409 2034 409 
Q 2484 409 2743 651 
Q 3003 894 3003 1313 
Q 3003 1734 2745 1975 
Q 2488 2216 2034 2216 
z
M 1403 2484 
Q 997 2584 770 2862 
Q 544 3141 544 3541 
Q 544 4100 942 4425 
Q 1341 4750 2034 4750 
Q 2731 4750 3128 4425 
Q 3525 4100 3525 3541 
Q 3525 3141 3298 2862 
Q 3072 2584 2669 2484 
Q 3125 2378 3379 2068 
Q 3634 1759 3634 1313 
Q 3634 634 3220 271 
Q 2806 -91 2034 -91 
Q 1263 -91 848 271 
Q 434 634 434 1313 
Q 434 1759 690 2068 
Q 947 2378 1403 2484 
z
M 1172 3481 
Q 1172 3119 1398 2916 
Q 1625 2713 2034 2713 
Q 2441 2713 2670 2916 
Q 2900 3119 2900 3481 
Q 2900 3844 2670 4047 
Q 2441 4250 2034 4250 
Q 1625 4250 1398 4047 
Q 1172 3844 1172 3481 
z
" transform="scale(0.015625)"/>
       </defs>
       <use xlink:href="#DejaVuSans-38"/>
       <use xlink:href="#DejaVuSans-30" x="63.623047"/>
       <use xlink:href="#DejaVuSans-30" x="127.246094"/>
       <use xlink:href="#DejaVuSans-30" x="190.869141"/>
       <use xlink:href="#DejaVuSans-30" x="254.492188"/>
      </g>
     </g>
    </g>
    <g id="ytick_6">
     <g id="line2d_17">
      <g>
       <use xlink:href="#m03573220a9" x="52.375" y="151.046908" style="stroke: #000000; stroke-width: 0.8"/>
      </g>
     </g>
     <g id="text_17">
      <!-- 100000 -->
      <g transform="translate(7.2 154.846127)scale(0.1 -0.1)">
       <use xlink:href="#DejaVuSans-31"/>
       <use xlink:href="#DejaVuSans-30" x="63.623047"/>
       <use xlink:href="#DejaVuSans-30" x="127.246094"/>
       <use xlink:href="#DejaVuSans-30" x="190.869141"/>
       <use xlink:href="#DejaVuSans-30" x="254.492188"/>
       <use xlink:href="#DejaVuSans-30" x="318.115234"/>
      </g>
     </g>
    </g>
    <g id="ytick_7">
     <g id="line2d_18">
      <g>
       <use xlink:href="#m03573220a9" x="52.375" y="111.178484" style="stroke: #000000; stroke-width: 0.8"/>
      </g>
     </g>
     <g id="text_18">
      <!-- 120000 -->
      <g transform="translate(7.2 114.977703)scale(0.1 -0.1)">
       <use xlink:href="#DejaVuSans-31"/>
       <use xlink:href="#DejaVuSans-32" x="63.623047"/>
       <use xlink:href="#DejaVuSans-30" x="127.246094"/>
       <use xlink:href="#DejaVuSans-30" x="190.869141"/>
       <use xlink:href="#DejaVuSans-30" x="254.492188"/>
       <use xlink:href="#DejaVuSans-30" x="318.115234"/>
      </g>
     </g>
    </g>
    <g id="ytick_8">
     <g id="line2d_19">
      <g>
       <use xlink:href="#m03573220a9" x="52.375" y="71.310061" style="stroke: #000000; stroke-width: 0.8"/>
      </g>
     </g>
     <g id="text_19">
      <!-- 140000 -->
      <g transform="translate(7.2 75.109279)scale(0.1 -0.1)">
       <use xlink:href="#DejaVuSans-31"/>
       <use xlink:href="#DejaVuSans-34" x="63.623047"/>
       <use xlink:href="#DejaVuSans-30" x="127.246094"/>
       <use xlink:href="#DejaVuSans-30" x="190.869141"/>
       <use xlink:href="#DejaVuSans-30" x="254.492188"/>
       <use xlink:href="#DejaVuSans-30" x="318.115234"/>
      </g>
     </g>
    </g>
   </g>
   <g id="line2d_20">
    <path d="M 113.247727 350.389026 
L 183.998923 350.387033 
L 185.333852 350.211612 
L 193.343421 349.944493 
L 194.678349 350.020243 
L 196.013278 349.850802 
L 197.348206 349.043467 
L 198.683134 349.306598 
L 200.018062 348.668704 
L 201.35299 349.426204 
L 202.687919 347.943098 
L 204.022847 347.861368 
L 205.357775 349.960441 
L 206.692703 346.298526 
L 208.027632 347.877315 
L 209.36256 347.859375 
L 210.697488 348.768375 
L 212.032416 348.447434 
L 213.367344 347.955059 
L 214.702273 348.573019 
L 216.037201 348.579 
L 217.372129 348.062704 
L 218.707057 348.469362 
L 220.041986 347.596243 
L 221.376914 348.148421 
L 222.711842 349.175033 
L 224.04677 348.628835 
L 225.381699 348.7305 
L 226.716627 347.566342 
L 228.051555 348.927848 
L 229.386483 348.750434 
L 230.721411 348.903927 
L 232.05634 348.774355 
L 233.391268 349.511921 
L 234.726196 347.719835 
L 236.061124 348.624848 
L 237.396053 349.779039 
L 238.730981 349.007585 
L 240.065909 349.181013 
L 241.400837 348.973697 
L 242.735766 349.701296 
L 244.070694 349.398296 
L 245.405622 348.319855 
L 246.74055 348.923862 
L 248.075478 349.163072 
L 249.410407 348.756414 
L 250.745335 349.308592 
L 252.080263 349.26673 
L 253.415191 348.74246 
L 254.75012 349.649467 
L 256.085048 348.790302 
L 258.754904 349.619566 
L 260.089833 348.513217 
L 261.424761 349.434177 
L 262.759689 348.778342 
L 264.094617 348.539131 
L 265.429545 349.047454 
L 268.099402 348.686644 
L 269.43433 349.388329 
L 270.769258 349.338493 
L 272.104187 347.988947 
L 273.439115 348.842131 
L 274.774043 349.041473 
L 276.108971 348.913894 
L 277.4439 348.636809 
L 278.778828 349.374375 
L 280.113756 349.633519 
L 281.448684 349.091309 
L 282.783612 347.973 
L 284.118541 348.541125 
L 285.453469 348.915888 
L 288.123325 349.159085 
L 289.458254 347.76369 
L 290.793182 347.560361 
L 292.12811 347.787611 
L 294.797967 348.036789 
L 296.132895 348.463381 
L 297.467823 348.204237 
L 301.472608 346.597539 
L 302.807536 345.244006 
L 304.142464 346.370289 
L 305.477392 346.884592 
L 306.812321 344.841335 
L 308.147249 345.186197 
L 310.817105 342.77017 
L 312.152033 342.317664 
L 314.82189 344.556276 
L 316.156818 343.838644 
L 317.491746 339.403282 
L 318.826675 340.413947 
L 320.161603 332.563854 
L 321.496531 331.282084 
L 322.831459 333.385143 
L 324.166388 339.89167 
L 325.501316 338.243111 
L 326.836244 337.306203 
L 328.171172 330.237531 
L 329.5061 331.475446 
L 330.841029 327.548406 
L 332.175957 330.337202 
L 333.510885 337.75871 
L 334.845813 335.743361 
L 336.180742 330.476742 
L 337.51567 332.577808 
L 338.850598 327.598242 
L 340.185526 329.737183 
L 341.520455 319.889682 
L 342.855383 325.224077 
L 344.190311 332.061512 
L 345.525239 330.094005 
L 346.860167 322.550899 
L 348.195096 327.532459 
L 349.530024 329.800972 
L 350.864952 325.515117 
L 352.19988 329.763097 
L 353.534809 331.57113 
L 354.869737 330.8834 
L 356.204665 329.958452 
L 357.539593 325.582893 
L 358.874522 326.071281 
L 360.20945 331.762499 
L 361.544378 332.663525 
L 362.879306 331.989749 
L 364.214234 331.55917 
L 365.549163 330.542525 
L 366.884091 332.434282 
L 368.219019 331.168459 
L 370.888876 340.916289 
L 372.223804 339.532854 
L 373.558732 339.606611 
L 374.89366 335.139354 
L 376.228589 335.067591 
L 377.563517 333.440959 
L 378.898445 337.972006 
L 380.233373 342.106361 
L 381.568301 338.765387 
L 382.90323 334.224374 
L 384.238158 337.958052 
L 385.573086 338.133473 
L 386.908014 337.726815 
L 388.242943 342.855887 
L 389.577871 345.050644 
L 390.912799 342.738276 
L 392.247727 342.186098 
L 393.582656 341.308993 
L 394.917584 341.051841 
L 396.252512 341.795387 
L 397.58744 344.460592 
L 398.922368 345.887881 
L 400.257297 345.060611 
L 401.592225 343.97021 
L 402.927153 343.872532 
L 404.262081 342.784124 
L 406.931938 345.240019 
L 408.266866 346.631427 
L 409.601794 335.300821 
L 410.936722 345.600828 
L 412.271651 343.270519 
L 413.606579 344.014065 
L 414.941507 343.101078 
L 416.276435 345.277894 
L 417.611364 346.725118 
L 418.946292 346.755019 
L 421.616148 345.461289 
L 422.951077 343.113039 
L 424.286005 344.030013 
L 426.955861 346.928447 
L 428.290789 344.177526 
L 429.625718 345.694519 
L 430.960646 343.90044 
L 432.295574 344.002105 
L 433.630502 343.266532 
L 434.965431 345.363611 
L 436.300359 347.030111 
L 437.635287 345.465276 
L 438.970215 345.226065 
L 440.305144 345.323743 
L 441.640072 344.713756 
L 442.975 344.817414 
L 444.309928 346.637407 
L 445.644856 348.917881 
L 446.979785 343.878513 
L 448.314713 346.505842 
L 449.649641 345.150315 
L 450.984569 345.086526 
L 452.319498 344.833361 
L 453.654426 346.665315 
L 454.989354 347.568335 
L 456.324282 345.901835 
L 457.659211 345.242013 
L 458.994139 343.798776 
L 460.329067 344.592157 
L 461.663995 350.389026 
L 462.998923 339.28567 
L 464.333852 347.333111 
L 465.66878 344.956953 
L 467.003708 344.641993 
L 468.338636 343.699105 
L 469.673565 343.513716 
L 471.008493 342.327631 
L 472.343421 345.32773 
L 473.678349 346.986256 
L 475.013278 343.089118 
L 476.348206 346.115131 
L 477.683134 339.309591 
L 479.018062 343.035295 
L 480.35299 341.47644 
L 481.687919 345.634717 
L 484.357775 341.821302 
L 485.692703 342.186098 
L 487.027632 342.020644 
L 488.36256 339.241815 
L 489.697488 345.742361 
L 491.032416 340.691032 
L 492.367344 341.117624 
L 493.702273 341.145532 
L 495.037201 341.572124 
L 496.372129 337.91619 
L 497.707057 339.933532 
L 499.041986 341.514315 
L 500.376914 336.793894 
L 501.711842 342.566841 
L 503.04677 341.711664 
L 504.381699 338.751433 
L 505.716627 339.211914 
L 507.051555 336.568637 
L 508.386483 341.33092 
L 509.721411 330.245505 
L 511.05634 341.093703 
L 512.391268 335.520098 
L 513.726196 334.591163 
L 515.061124 332.278795 
L 516.396053 332.278795 
L 517.730981 333.626347 
L 519.065909 337.258361 
L 520.400837 337.768677 
L 521.735766 333.335308 
L 523.070694 333.69213 
L 524.405622 350.389026 
L 525.74055 315.815129 
L 527.075478 337.876321 
L 528.410407 335.711466 
L 529.745335 337.114834 
L 531.080263 332.753229 
L 532.415191 330.466775 
L 533.75012 328.720538 
L 535.085048 330.101979 
L 536.419976 329.59565 
L 537.754904 333.572525 
L 539.089833 335.017755 
L 540.424761 334.471558 
L 543.094617 327.793597 
L 544.429545 327.067992 
L 545.764474 329.30461 
L 547.099402 332.531959 
L 548.43433 333.54063 
L 549.769258 331.628939 
L 551.104187 327.382952 
L 552.439115 324.179524 
L 553.774043 324.474551 
L 555.108971 327.10188 
L 556.4439 333.642295 
L 557.778828 328.431492 
L 559.113756 329.58967 
L 560.448684 327.695919 
L 561.783612 324.181518 
L 563.118541 350.389026 
L 564.453469 316.417142 
L 565.788397 335.65565 
L 567.123325 334.046959 
L 568.458254 326.318465 
L 569.793182 322.738281 
L 571.12811 316.118129 
L 572.463038 350.389026 
L 573.797967 287.560377 
L 575.132895 329.252781 
L 576.467823 327.951077 
L 577.802751 319.628544 
L 579.137679 314.940017 
L 580.472608 310.887392 
L 581.807536 311.45751 
L 583.142464 319.600636 
L 584.477392 325.844031 
L 585.812321 327.313183 
L 587.147249 320.695024 
L 588.482177 322.501064 
L 589.817105 323.039288 
L 591.152033 316.750044 
L 592.486962 326.230755 
L 593.82189 328.276005 
L 595.156818 334.43767 
L 596.491746 330.821604 
L 597.826675 326.639406 
L 599.161603 324.727715 
L 600.496531 323.041281 
L 601.831459 325.848018 
L 603.166388 331.381755 
L 604.501316 333.006393 
L 605.836244 331.264143 
L 607.171172 333.628341 
L 608.5061 327.618176 
L 609.841029 328.509235 
L 611.175957 320.449833 
L 612.510885 334.864262 
L 613.845813 338.966723 
L 615.180742 329.392321 
L 616.51567 336.47694 
L 617.850598 335.017755 
L 619.185526 327.378965 
L 620.520455 335.466275 
L 623.190311 338.952769 
L 624.525239 336.389229 
L 625.860167 335.364611 
L 627.195096 333.395111 
L 628.530024 335.205137 
L 629.864952 335.408466 
L 631.19988 339.552789 
L 632.534809 343.182809 
L 633.869737 337.836453 
L 635.204665 335.753328 
L 636.539593 340.18869 
L 637.874522 337.066992 
L 639.20945 335.87692 
L 640.544378 340.292348 
L 641.879306 342.114335 
L 644.549163 336.17992 
L 645.884091 337.152709 
L 647.219019 338.583986 
L 648.553947 339.50694 
L 649.888876 339.347466 
L 651.223804 347.00021 
L 652.558732 336.078255 
L 653.89366 338.400591 
L 655.228589 338.193275 
L 656.563517 338.478335 
L 657.898445 341.039881 
L 659.233373 342.219986 
L 660.568301 343.786815 
L 661.90323 341.566144 
L 663.238158 340.714953 
L 664.573086 340.292348 
L 665.908014 339.995328 
L 667.242943 339.935525 
L 668.577871 343.015361 
L 669.912799 344.755618 
L 671.247727 340.838545 
L 672.582656 341.221282 
L 673.917584 340.236532 
L 675.252512 340.142841 
L 676.58744 340.212611 
L 679.257297 344.683855 
L 680.592225 339.819907 
L 681.927153 340.136861 
L 683.262081 338.881006 
L 684.59701 338.926854 
L 685.931938 338.661729 
L 687.266866 340.535545 
L 688.601794 343.663223 
L 689.936722 340.298328 
L 691.271651 339.835854 
L 692.606579 336.853696 
L 693.941507 337.451723 
L 695.276435 338.394611 
L 697.946292 343.45192 
L 699.28122 339.313578 
L 700.616148 338.657742 
L 701.951077 334.563255 
L 703.286005 336.193874 
L 704.620933 336.622459 
L 705.955861 339.385341 
L 707.290789 347.173638 
L 708.625718 332.312683 
L 709.960646 336.889578 
L 711.295574 336.909512 
L 712.630502 335.845025 
L 713.965431 337.784624 
L 715.300359 336.765986 
L 716.635287 341.942901 
L 717.970215 339.136164 
L 719.305144 339.283677 
L 720.640072 337.064999 
L 721.975 339.496973 
L 723.309928 335.615782 
L 724.644856 341.077756 
L 725.979785 343.386138 
L 727.314713 339.881703 
L 728.649641 340.067091 
L 729.984569 339.094302 
L 731.319498 339.811933 
L 732.654426 339.586677 
L 733.989354 342.732295 
L 735.324282 344.259256 
L 736.659211 343.049249 
L 737.994139 341.629933 
L 739.329067 341.410657 
L 740.663995 342.086427 
L 741.998923 342.46119 
L 743.333852 343.948282 
L 744.66878 345.812131 
L 746.003708 343.884493 
L 747.338636 344.041973 
L 748.673565 342.287762 
L 750.008493 343.232644 
L 751.343421 343.772861 
L 752.678349 345.441355 
L 754.013278 346.450026 
L 755.348206 344.79748 
L 756.683134 344.785519 
L 758.018062 344.622059 
L 759.35299 345.662625 
L 760.687919 343.599434 
L 762.022847 346.264638 
L 763.357775 347.187592 
L 764.692703 346.653355 
L 766.027632 345.750335 
L 768.697488 345.728407 
L 770.032416 350.389026 
L 772.702273 350.389026 
L 774.037201 338.554085 
L 775.372129 347.929144 
L 776.707057 346.645381 
L 778.041986 350.389026 
L 779.376914 344.408763 
L 780.711842 350.389026 
L 786.051555 350.389026 
L 787.386483 327.55638 
L 788.721411 350.389026 
L 795.396053 350.389026 
L 796.730981 330.265439 
L 798.065909 350.389026 
L 804.74055 350.389026 
L 806.075478 328.365709 
L 807.410407 350.389026 
L 814.085048 350.389026 
L 815.419976 319.124208 
L 816.754904 350.389026 
L 823.429545 350.389026 
L 824.764474 303.051253 
L 826.099402 350.389026 
L 832.774043 350.389026 
L 834.108971 259.790027 
L 835.4439 350.389026 
L 842.118541 350.389026 
L 843.453469 204.538372 
L 844.788397 350.389026 
L 851.463038 350.389026 
L 852.797967 129.669459 
L 854.132895 350.389026 
L 860.807536 350.389026 
L 862.142464 81.773528 
L 863.477392 350.389026 
L 866.147249 350.389026 
L 867.482177 324.325044 
L 868.817105 301.045872 
L 870.152033 309.212918 
L 871.486962 164.442698 
L 872.82189 350.389026 
L 874.156818 350.389026 
L 875.491746 325.112446 
L 876.826675 307.193583 
L 878.161603 303.872543 
L 879.496531 319.319564 
L 880.831459 195.958687 
L 882.166388 350.389026 
L 883.501316 350.389026 
L 884.836244 327.974998 
L 886.171172 308.11255 
L 887.5061 298.155411 
L 888.841029 307.002214 
L 890.175957 208.178359 
L 891.510885 350.389026 
L 892.845813 350.389026 
L 894.180742 333.251584 
L 895.51567 313.295445 
L 896.850598 312.418339 
L 898.185526 307.085938 
L 899.520455 228.339821 
L 900.855383 350.389026 
L 903.525239 350.389026 
L 904.860167 325.377571 
L 906.195096 322.931643 
L 907.530024 325.698511 
L 908.864952 227.7099 
L 910.19988 350.389026 
L 912.869737 350.389026 
L 914.204665 349.013566 
L 915.539593 329.013571 
L 916.874522 330.933235 
L 918.20945 241.09971 
L 919.544378 350.389026 
L 923.549163 350.389026 
L 924.884091 353.2755 
L 926.219019 341.986756 
L 927.553947 248.042796 
L 928.888876 350.389026 
L 935.563517 350.389026 
L 936.898445 276.036409 
L 938.233373 350.389026 
L 944.908014 350.389026 
L 946.242943 300.186707 
L 947.577871 350.389026 
L 954.252512 350.389026 
L 955.58744 312.898754 
L 956.922368 350.389026 
L 963.59701 350.389026 
L 964.931938 321.35684 
L 966.266866 350.389026 
L 972.941507 350.389026 
L 974.276435 326.166965 
L 975.611364 350.389026 
L 982.286005 350.389026 
L 983.620933 329.462091 
L 984.955861 350.389026 
L 991.630502 350.389026 
L 992.965431 329.852801 
L 994.300359 350.389026 
L 1000.975 350.389026 
L 1002.309928 330.672097 
L 1003.644856 350.389026 
L 1015.659211 350.389026 
L 1016.994139 332.663525 
L 1018.329067 350.389026 
L 1019.663995 350.389026 
L 1020.998923 329.133176 
L 1022.333852 350.389026 
L 1029.008493 350.389026 
L 1030.343421 324.506445 
L 1031.678349 350.389026 
L 1038.35299 350.389026 
L 1039.687919 292.896766 
L 1041.022847 350.389026 
L 1045.027632 350.389026 
L 1047.697488 284.867265 
L 1049.032416 200.447872 
L 1050.367344 350.389026 
L 1051.702273 350.389026 
L 1053.037201 293.732009 
L 1054.372129 292.4622 
L 1055.707057 256.851724 
L 1057.041986 195.205174 
L 1058.376914 111.324004 
L 1059.711842 350.389026 
L 1062.381699 350.389026 
L 1063.716627 50.8755 
L 1065.051555 350.389026 
L 1066.386483 99.022602 
L 1067.721411 110.753885 
L 1069.05634 297.387944 
L 1070.391268 350.389026 
L 1071.726196 99.225931 
L 1073.061124 255.284895 
L 1074.396053 207.377004 
L 1075.730981 240.762822 
L 1077.065909 232.655578 
L 1078.400837 252.035618 
L 1079.735766 350.389026 
L 1081.070694 350.389026 
L 1082.405622 127.88136 
L 1083.74055 264.315093 
L 1085.075478 259.353468 
L 1086.410407 189.019588 
L 1087.745335 348.194269 
L 1089.080263 350.389026 
L 1090.415191 303.762905 
L 1091.75012 280.089035 
L 1093.085048 275.314791 
L 1094.419976 295.504161 
L 1095.754904 203.039319 
L 1097.089833 350.389026 
L 1098.424761 350.389026 
L 1099.759689 323.284478 
L 1101.094617 310.37907 
L 1102.429545 316.734096 
L 1103.764474 350.389026 
L 1105.099402 189.304647 
L 1106.43433 349.711263 
L 1107.769258 350.389026 
L 1109.104187 296.461003 
L 1110.439115 311.904037 
L 1111.774043 324.632031 
L 1113.108971 330.692031 
L 1114.4439 244.20546 
L 1115.778828 350.389026 
L 1122.453469 350.389026 
L 1123.788397 265.92179 
L 1125.123325 350.389026 
L 1133.132895 350.389026 
L 1134.467823 299.510937 
L 1135.802751 350.389026 
L 1137.137679 350.654151 
L 1138.472608 350.389026 
L 1141.142464 350.389026 
L 1142.477392 322.56884 
L 1143.812321 350.389026 
L 1150.486962 350.389026 
L 1151.82189 329.900643 
L 1153.156818 350.522585 
L 1154.491746 350.389026 
L 1169.175957 350.389026 
L 1170.510885 317.017162 
L 1171.845813 350.389026 
L 1187.864952 350.389026 
L 1189.19988 307.833471 
L 1190.534809 350.389026 
L 1206.553947 350.389026 
L 1207.888876 277.886304 
L 1209.223804 350.389026 
L 1221.238158 350.389026 
L 1222.573086 352.380454 
L 1223.908014 341.496374 
L 1225.242943 337.515512 
L 1226.577871 251.694743 
L 1227.912799 350.389026 
L 1238.592225 350.389026 
L 1239.927153 311.264149 
L 1241.262081 333.722032 
L 1243.931938 329.926558 
L 1245.266866 246.645408 
L 1246.601794 350.389026 
L 1250.606579 350.389026 
L 1251.941507 348.732493 
L 1253.276435 327.664025 
L 1254.611364 328.260058 
L 1255.946292 350.389026 
L 1258.616148 350.389026 
L 1259.951077 281.442568 
L 1261.286005 330.518604 
L 1262.620933 324.067893 
L 1263.955861 235.635742 
L 1265.290789 350.389026 
L 1269.295574 350.389026 
L 1270.630502 336.859677 
L 1271.965431 326.19886 
L 1273.300359 326.623459 
L 1274.635287 328.999617 
L 1275.970215 350.389026 
L 1277.305144 318.986662 
L 1278.640072 330.919281 
L 1279.975 323.764893 
L 1281.309928 324.960946 
L 1282.644856 239.650493 
L 1283.979785 350.389026 
L 1287.984569 350.389026 
L 1289.319498 338.51621 
L 1290.654426 325.483222 
L 1291.989354 326.782932 
L 1293.324282 328.277998 
L 1294.659211 350.389026 
L 1295.994139 317.461695 
L 1297.329067 350.389026 
L 1298.663995 305.656655 
L 1299.998923 324.962939 
L 1301.333852 240.318289 
L 1302.66878 350.389026 
L 1308.008493 350.389026 
L 1309.343421 330.20763 
L 1310.678349 322.088426 
L 1312.013278 350.389026 
L 1313.348206 350.389026 
L 1313.348206 350.389026 
" clip-path="url(#pd499687074)" style="fill: none; stroke: #0000ff; stroke-width: 1.5; stroke-linecap: square"/>
   </g>
   <g id="line2d_21">
    <path d="M 1074.396053 141.98261 
L 1075.730981 156.514107 
L 1077.065909 272.111787 
L 1078.400837 301.716508 
L 1079.735766 157.83323 
L 1081.070694 264.455776 
L 1082.405622 225.736636 
L 1083.74055 248.344341 
L 1085.075478 244.429482 
L 1086.410407 251.539026 
L 1087.745335 316.826824 
L 1089.080263 319.421042 
L 1090.415191 187.41028 
L 1091.75012 274.776115 
L 1093.085048 271.901076 
L 1094.419976 232.379939 
L 1095.754904 323.682383 
L 1097.089833 327.036876 
L 1098.424761 301.432876 
L 1099.759689 289.205302 
L 1101.094617 288.035421 
L 1102.429545 302.121968 
L 1103.764474 251.497634 
L 1105.099402 333.309453 
L 1106.43433 334.577244 
L 1107.769258 319.866103 
L 1109.104187 310.470581 
L 1110.439115 314.317165 
L 1111.774043 334.898409 
L 1113.108971 239.880312 
L 1114.4439 334.509168 
L 1115.778828 336.135036 
L 1117.113756 305.535386 
L 1118.448684 318.080525 
L 1119.783612 328.05995 
L 1121.118541 333.348247 
L 1122.453469 283.82456 
L 1123.788397 344.860437 
L 1127.793182 346.045907 
L 1130.463038 346.691368 
L 1131.797967 297.323374 
L 1133.132895 351.078935 
L 1134.467823 347.092944 
L 1139.807536 348.017299 
L 1141.142464 348.200623 
L 1142.477392 316.310864 
L 1143.812321 348.853493 
L 1145.147249 349.128036 
L 1146.482177 349.069653 
L 1149.152033 349.265734 
L 1150.486962 332.998548 
L 1151.82189 349.113105 
L 1157.161603 349.472281 
L 1158.496531 349.543141 
L 1159.831459 337.564491 
L 1161.166388 350.67832 
L 1163.836244 350.562882 
L 1169.175957 350.515046 
L 1170.510885 347.9258 
L 1175.850598 348.603549 
L 1177.185526 348.741559 
L 1178.520455 329.251353 
L 1179.855383 350.502755 
L 1187.864952 350.459211 
L 1189.19988 347.16442 
L 1194.539593 348.05166 
L 1195.874522 348.232329 
L 1197.20945 323.382879 
L 1198.544378 350.486495 
L 1206.553947 350.449177 
L 1207.888876 344.84037 
L 1211.89366 346.030142 
L 1214.563517 346.677947 
L 1215.898445 304.344293 
L 1217.233373 350.523863 
L 1221.238158 350.494951 
L 1222.573086 350.640692 
L 1223.908014 349.933875 
L 1225.242943 348.973987 
L 1226.577871 341.454708 
L 1229.247727 342.782499 
L 1230.582656 344.541107 
L 1231.917584 338.594954 
L 1233.252512 337.166448 
L 1234.58744 287.739021 
L 1235.922368 350.598738 
L 1238.592225 350.567571 
L 1239.927153 347.529581 
L 1242.59701 345.327622 
L 1243.931938 344.137184 
L 1245.266866 336.601476 
L 1246.601794 337.667196 
L 1247.936722 315.651101 
L 1249.271651 331.537995 
L 1251.941507 332.06851 
L 1253.276435 282.771491 
L 1254.611364 347.272938 
L 1258.616148 347.941106 
L 1259.951077 341.827259 
L 1261.286005 328.568112 
L 1262.620933 328.57064 
L 1263.955861 334.395607 
L 1266.625718 336.772501 
L 1267.960646 297.295036 
L 1269.295574 330.248178 
L 1270.630502 326.967189 
L 1271.965431 274.92323 
L 1273.300359 346.37681 
L 1274.635287 345.033625 
L 1275.970215 345.447576 
L 1277.305144 343.402257 
L 1278.640072 334.484189 
L 1279.975 327.388703 
L 1281.309928 327.450647 
L 1282.644856 322.060879 
L 1283.979785 336.824225 
L 1285.314713 319.412944 
L 1286.649641 328.82182 
L 1287.984569 326.283189 
L 1289.319498 327.931846 
L 1290.654426 277.593088 
L 1291.989354 346.492567 
L 1293.324282 345.084657 
L 1294.659211 345.494663 
L 1295.994139 343.327831 
L 1297.329067 336.894233 
L 1298.663995 326.818297 
L 1299.998923 327.438916 
L 1301.333852 321.583725 
L 1302.66878 336.808155 
L 1304.003708 318.501668 
L 1305.338636 340.322659 
L 1306.673565 314.804959 
L 1308.008493 328.904599 
L 1309.343421 279.247218 
L 1310.678349 347.263413 
L 1313.348206 347.727932 
L 1313.348206 347.727932 
" clip-path="url(#pd499687074)" style="fill: none; stroke: #ffa500; stroke-width: 1.5; stroke-linecap: square"/>
   </g>
   <g id="line2d_22">
    <path d="M 1313.348206 347.727932 
L 1314.683134 347.727932 
L 1316.018062 347.727932 
L 1317.35299 335.86436 
L 1318.687919 331.09151 
L 1320.022847 347.727932 
L 1321.357775 347.727932 
L 1322.692703 346.163616 
L 1324.027632 346.163616 
L 1325.36256 346.163616 
L 1326.697488 339.189651 
L 1328.032416 336.383946 
L 1329.367344 346.163616 
L 1330.702273 346.163616 
" clip-path="url(#pd499687074)" style="fill: none; stroke: #ff0000; stroke-width: 1.5; stroke-linecap: square"/>
   </g>
   <g id="patch_3">
    <path d="M 52.375 368.3955 
L 52.375 35.7555 
" style="fill: none; stroke: #000000; stroke-width: 0.8; stroke-linejoin: miter; stroke-linecap: square"/>
   </g>
   <g id="patch_4">
    <path d="M 1391.575 368.3955 
L 1391.575 35.7555 
" style="fill: none; stroke: #000000; stroke-width: 0.8; stroke-linejoin: miter; stroke-linecap: square"/>
   </g>
   <g id="patch_5">
    <path d="M 52.375 368.3955 
L 1391.575 368.3955 
" style="fill: none; stroke: #000000; stroke-width: 0.8; stroke-linejoin: miter; stroke-linecap: square"/>
   </g>
   <g id="patch_6">
    <path d="M 52.375 35.7555 
L 1391.575 35.7555 
" style="fill: none; stroke: #000000; stroke-width: 0.8; stroke-linejoin: miter; stroke-linecap: square"/>
   </g>
   <g id="text_20">
    <!-- Daily Confirmed Cases Forecasting - Florida -->
    <g transform="translate(591.06625 16.318125)scale(0.12 -0.12)">
     <defs>
      <path id="DejaVuSans-44" d="M 1259 4147 
L 1259 519 
L 2022 519 
Q 2988 519 3436 956 
Q 3884 1394 3884 2338 
Q 3884 3275 3436 3711 
Q 2988 4147 2022 4147 
L 1259 4147 
z
M 628 4666 
L 1925 4666 
Q 3281 4666 3915 4102 
Q 4550 3538 4550 2338 
Q 4550 1131 3912 565 
Q 3275 0 1925 0 
L 628 0 
L 628 4666 
z
" transform="scale(0.015625)"/>
      <path id="DejaVuSans-61" d="M 2194 1759 
Q 1497 1759 1228 1600 
Q 959 1441 959 1056 
Q 959 750 1161 570 
Q 1363 391 1709 391 
Q 2188 391 2477 730 
Q 2766 1069 2766 1631 
L 2766 1759 
L 2194 1759 
z
M 3341 1997 
L 3341 0 
L 2766 0 
L 2766 531 
Q 2569 213 2275 61 
Q 1981 -91 1556 -91 
Q 1019 -91 701 211 
Q 384 513 384 1019 
Q 384 1609 779 1909 
Q 1175 2209 1959 2209 
L 2766 2209 
L 2766 2266 
Q 2766 2663 2505 2880 
Q 2244 3097 1772 3097 
Q 1472 3097 1187 3025 
Q 903 2953 641 2809 
L 641 3341 
Q 956 3463 1253 3523 
Q 1550 3584 1831 3584 
Q 2591 3584 2966 3190 
Q 3341 2797 3341 1997 
z
" transform="scale(0.015625)"/>
      <path id="DejaVuSans-69" d="M 603 3500 
L 1178 3500 
L 1178 0 
L 603 0 
L 603 3500 
z
M 603 4863 
L 1178 4863 
L 1178 4134 
L 603 4134 
L 603 4863 
z
" transform="scale(0.015625)"/>
      <path id="DejaVuSans-6c" d="M 603 4863 
L 1178 4863 
L 1178 0 
L 603 0 
L 603 4863 
z
" transform="scale(0.015625)"/>
      <path id="DejaVuSans-79" d="M 2059 -325 
Q 1816 -950 1584 -1140 
Q 1353 -1331 966 -1331 
L 506 -1331 
L 506 -850 
L 844 -850 
Q 1081 -850 1212 -737 
Q 1344 -625 1503 -206 
L 1606 56 
L 191 3500 
L 800 3500 
L 1894 763 
L 2988 3500 
L 3597 3500 
L 2059 -325 
z
" transform="scale(0.015625)"/>
      <path id="DejaVuSans-20" transform="scale(0.015625)"/>
      <path id="DejaVuSans-43" d="M 4122 4306 
L 4122 3641 
Q 3803 3938 3442 4084 
Q 3081 4231 2675 4231 
Q 1875 4231 1450 3742 
Q 1025 3253 1025 2328 
Q 1025 1406 1450 917 
Q 1875 428 2675 428 
Q 3081 428 3442 575 
Q 3803 722 4122 1019 
L 4122 359 
Q 3791 134 3420 21 
Q 3050 -91 2638 -91 
Q 1578 -91 968 557 
Q 359 1206 359 2328 
Q 359 3453 968 4101 
Q 1578 4750 2638 4750 
Q 3056 4750 3426 4639 
Q 3797 4528 4122 4306 
z
" transform="scale(0.015625)"/>
      <path id="DejaVuSans-6f" d="M 1959 3097 
Q 1497 3097 1228 2736 
Q 959 2375 959 1747 
Q 959 1119 1226 758 
Q 1494 397 1959 397 
Q 2419 397 2687 759 
Q 2956 1122 2956 1747 
Q 2956 2369 2687 2733 
Q 2419 3097 1959 3097 
z
M 1959 3584 
Q 2709 3584 3137 3096 
Q 3566 2609 3566 1747 
Q 3566 888 3137 398 
Q 2709 -91 1959 -91 
Q 1206 -91 779 398 
Q 353 888 353 1747 
Q 353 2609 779 3096 
Q 1206 3584 1959 3584 
z
" transform="scale(0.015625)"/>
      <path id="DejaVuSans-6e" d="M 3513 2113 
L 3513 0 
L 2938 0 
L 2938 2094 
Q 2938 2591 2744 2837 
Q 2550 3084 2163 3084 
Q 1697 3084 1428 2787 
Q 1159 2491 1159 1978 
L 1159 0 
L 581 0 
L 581 3500 
L 1159 3500 
L 1159 2956 
Q 1366 3272 1645 3428 
Q 1925 3584 2291 3584 
Q 2894 3584 3203 3211 
Q 3513 2838 3513 2113 
z
" transform="scale(0.015625)"/>
      <path id="DejaVuSans-66" d="M 2375 4863 
L 2375 4384 
L 1825 4384 
Q 1516 4384 1395 4259 
Q 1275 4134 1275 3809 
L 1275 3500 
L 2222 3500 
L 2222 3053 
L 1275 3053 
L 1275 0 
L 697 0 
L 697 3053 
L 147 3053 
L 147 3500 
L 697 3500 
L 697 3744 
Q 697 4328 969 4595 
Q 1241 4863 1831 4863 
L 2375 4863 
z
" transform="scale(0.015625)"/>
      <path id="DejaVuSans-72" d="M 2631 2963 
Q 2534 3019 2420 3045 
Q 2306 3072 2169 3072 
Q 1681 3072 1420 2755 
Q 1159 2438 1159 1844 
L 1159 0 
L 581 0 
L 581 3500 
L 1159 3500 
L 1159 2956 
Q 1341 3275 1631 3429 
Q 1922 3584 2338 3584 
Q 2397 3584 2469 3576 
Q 2541 3569 2628 3553 
L 2631 2963 
z
" transform="scale(0.015625)"/>
      <path id="DejaVuSans-6d" d="M 3328 2828 
Q 3544 3216 3844 3400 
Q 4144 3584 4550 3584 
Q 5097 3584 5394 3201 
Q 5691 2819 5691 2113 
L 5691 0 
L 5113 0 
L 5113 2094 
Q 5113 2597 4934 2840 
Q 4756 3084 4391 3084 
Q 3944 3084 3684 2787 
Q 3425 2491 3425 1978 
L 3425 0 
L 2847 0 
L 2847 2094 
Q 2847 2600 2669 2842 
Q 2491 3084 2119 3084 
Q 1678 3084 1418 2786 
Q 1159 2488 1159 1978 
L 1159 0 
L 581 0 
L 581 3500 
L 1159 3500 
L 1159 2956 
Q 1356 3278 1631 3431 
Q 1906 3584 2284 3584 
Q 2666 3584 2933 3390 
Q 3200 3197 3328 2828 
z
" transform="scale(0.015625)"/>
      <path id="DejaVuSans-65" d="M 3597 1894 
L 3597 1613 
L 953 1613 
Q 991 1019 1311 708 
Q 1631 397 2203 397 
Q 2534 397 2845 478 
Q 3156 559 3463 722 
L 3463 178 
Q 3153 47 2828 -22 
Q 2503 -91 2169 -91 
Q 1331 -91 842 396 
Q 353 884 353 1716 
Q 353 2575 817 3079 
Q 1281 3584 2069 3584 
Q 2775 3584 3186 3129 
Q 3597 2675 3597 1894 
z
M 3022 2063 
Q 3016 2534 2758 2815 
Q 2500 3097 2075 3097 
Q 1594 3097 1305 2825 
Q 1016 2553 972 2059 
L 3022 2063 
z
" transform="scale(0.015625)"/>
      <path id="DejaVuSans-64" d="M 2906 2969 
L 2906 4863 
L 3481 4863 
L 3481 0 
L 2906 0 
L 2906 525 
Q 2725 213 2448 61 
Q 2172 -91 1784 -91 
Q 1150 -91 751 415 
Q 353 922 353 1747 
Q 353 2572 751 3078 
Q 1150 3584 1784 3584 
Q 2172 3584 2448 3432 
Q 2725 3281 2906 2969 
z
M 947 1747 
Q 947 1113 1208 752 
Q 1469 391 1925 391 
Q 2381 391 2643 752 
Q 2906 1113 2906 1747 
Q 2906 2381 2643 2742 
Q 2381 3103 1925 3103 
Q 1469 3103 1208 2742 
Q 947 2381 947 1747 
z
" transform="scale(0.015625)"/>
      <path id="DejaVuSans-73" d="M 2834 3397 
L 2834 2853 
Q 2591 2978 2328 3040 
Q 2066 3103 1784 3103 
Q 1356 3103 1142 2972 
Q 928 2841 928 2578 
Q 928 2378 1081 2264 
Q 1234 2150 1697 2047 
L 1894 2003 
Q 2506 1872 2764 1633 
Q 3022 1394 3022 966 
Q 3022 478 2636 193 
Q 2250 -91 1575 -91 
Q 1294 -91 989 -36 
Q 684 19 347 128 
L 347 722 
Q 666 556 975 473 
Q 1284 391 1588 391 
Q 1994 391 2212 530 
Q 2431 669 2431 922 
Q 2431 1156 2273 1281 
Q 2116 1406 1581 1522 
L 1381 1569 
Q 847 1681 609 1914 
Q 372 2147 372 2553 
Q 372 3047 722 3315 
Q 1072 3584 1716 3584 
Q 2034 3584 2315 3537 
Q 2597 3491 2834 3397 
z
" transform="scale(0.015625)"/>
      <path id="DejaVuSans-46" d="M 628 4666 
L 3309 4666 
L 3309 4134 
L 1259 4134 
L 1259 2759 
L 3109 2759 
L 3109 2228 
L 1259 2228 
L 1259 0 
L 628 0 
L 628 4666 
z
" transform="scale(0.015625)"/>
      <path id="DejaVuSans-63" d="M 3122 3366 
L 3122 2828 
Q 2878 2963 2633 3030 
Q 2388 3097 2138 3097 
Q 1578 3097 1268 2742 
Q 959 2388 959 1747 
Q 959 1106 1268 751 
Q 1578 397 2138 397 
Q 2388 397 2633 464 
Q 2878 531 3122 666 
L 3122 134 
Q 2881 22 2623 -34 
Q 2366 -91 2075 -91 
Q 1284 -91 818 406 
Q 353 903 353 1747 
Q 353 2603 823 3093 
Q 1294 3584 2113 3584 
Q 2378 3584 2631 3529 
Q 2884 3475 3122 3366 
z
" transform="scale(0.015625)"/>
      <path id="DejaVuSans-74" d="M 1172 4494 
L 1172 3500 
L 2356 3500 
L 2356 3053 
L 1172 3053 
L 1172 1153 
Q 1172 725 1289 603 
Q 1406 481 1766 481 
L 2356 481 
L 2356 0 
L 1766 0 
Q 1100 0 847 248 
Q 594 497 594 1153 
L 594 3053 
L 172 3053 
L 172 3500 
L 594 3500 
L 594 4494 
L 1172 4494 
z
" transform="scale(0.015625)"/>
      <path id="DejaVuSans-67" d="M 2906 1791 
Q 2906 2416 2648 2759 
Q 2391 3103 1925 3103 
Q 1463 3103 1205 2759 
Q 947 2416 947 1791 
Q 947 1169 1205 825 
Q 1463 481 1925 481 
Q 2391 481 2648 825 
Q 2906 1169 2906 1791 
z
M 3481 434 
Q 3481 -459 3084 -895 
Q 2688 -1331 1869 -1331 
Q 1566 -1331 1297 -1286 
Q 1028 -1241 775 -1147 
L 775 -588 
Q 1028 -725 1275 -790 
Q 1522 -856 1778 -856 
Q 2344 -856 2625 -561 
Q 2906 -266 2906 331 
L 2906 616 
Q 2728 306 2450 153 
Q 2172 0 1784 0 
Q 1141 0 747 490 
Q 353 981 353 1791 
Q 353 2603 747 3093 
Q 1141 3584 1784 3584 
Q 2172 3584 2450 3431 
Q 2728 3278 2906 2969 
L 2906 3500 
L 3481 3500 
L 3481 434 
z
" transform="scale(0.015625)"/>
     </defs>
     <use xlink:href="#DejaVuSans-44"/>
     <use xlink:href="#DejaVuSans-61" x="77.001953"/>
     <use xlink:href="#DejaVuSans-69" x="138.28125"/>
     <use xlink:href="#DejaVuSans-6c" x="166.064453"/>
     <use xlink:href="#DejaVuSans-79" x="193.847656"/>
     <use xlink:href="#DejaVuSans-20" x="253.027344"/>
     <use xlink:href="#DejaVuSans-43" x="284.814453"/>
     <use xlink:href="#DejaVuSans-6f" x="354.638672"/>
     <use xlink:href="#DejaVuSans-6e" x="415.820312"/>
     <use xlink:href="#DejaVuSans-66" x="479.199219"/>
     <use xlink:href="#DejaVuSans-69" x="514.404297"/>
     <use xlink:href="#DejaVuSans-72" x="542.1875"/>
     <use xlink:href="#DejaVuSans-6d" x="581.550781"/>
     <use xlink:href="#DejaVuSans-65" x="678.962891"/>
     <use xlink:href="#DejaVuSans-64" x="740.486328"/>
     <use xlink:href="#DejaVuSans-20" x="803.962891"/>
     <use xlink:href="#DejaVuSans-43" x="835.75"/>
     <use xlink:href="#DejaVuSans-61" x="905.574219"/>
     <use xlink:href="#DejaVuSans-73" x="966.853516"/>
     <use xlink:href="#DejaVuSans-65" x="1018.953125"/>
     <use xlink:href="#DejaVuSans-73" x="1080.476562"/>
     <use xlink:href="#DejaVuSans-20" x="1132.576172"/>
     <use xlink:href="#DejaVuSans-46" x="1164.363281"/>
     <use xlink:href="#DejaVuSans-6f" x="1218.257812"/>
     <use xlink:href="#DejaVuSans-72" x="1279.439453"/>
     <use xlink:href="#DejaVuSans-65" x="1318.302734"/>
     <use xlink:href="#DejaVuSans-63" x="1379.826172"/>
     <use xlink:href="#DejaVuSans-61" x="1434.806641"/>
     <use xlink:href="#DejaVuSans-73" x="1496.085938"/>
     <use xlink:href="#DejaVuSans-74" x="1548.185547"/>
     <use xlink:href="#DejaVuSans-69" x="1587.394531"/>
     <use xlink:href="#DejaVuSans-6e" x="1615.177734"/>
     <use xlink:href="#DejaVuSans-67" x="1678.556641"/>
     <use xlink:href="#DejaVuSans-20" x="1742.033203"/>
     <use xlink:href="#DejaVuSans-2d" x="1773.820312"/>
     <use xlink:href="#DejaVuSans-20" x="1809.904297"/>
     <use xlink:href="#DejaVuSans-46" x="1841.691406"/>
     <use xlink:href="#DejaVuSans-6c" x="1899.210938"/>
     <use xlink:href="#DejaVuSans-6f" x="1926.994141"/>
     <use xlink:href="#DejaVuSans-72" x="1988.175781"/>
     <use xlink:href="#DejaVuSans-69" x="2029.289062"/>
     <use xlink:href="#DejaVuSans-64" x="2057.072266"/>
     <use xlink:href="#DejaVuSans-61" x="2120.548828"/>
    </g>
    <!-- ARIMA (0, 1, 1)x(1, 0, 0, 7) (R2 = -0.023341) -->
    <g transform="translate(587.82625 29.7555)scale(0.12 -0.12)">
     <defs>
      <path id="DejaVuSans-41" d="M 2188 4044 
L 1331 1722 
L 3047 1722 
L 2188 4044 
z
M 1831 4666 
L 2547 4666 
L 4325 0 
L 3669 0 
L 3244 1197 
L 1141 1197 
L 716 0 
L 50 0 
L 1831 4666 
z
" transform="scale(0.015625)"/>
      <path id="DejaVuSans-52" d="M 2841 2188 
Q 3044 2119 3236 1894 
Q 3428 1669 3622 1275 
L 4263 0 
L 3584 0 
L 2988 1197 
Q 2756 1666 2539 1819 
Q 2322 1972 1947 1972 
L 1259 1972 
L 1259 0 
L 628 0 
L 628 4666 
L 2053 4666 
Q 2853 4666 3247 4331 
Q 3641 3997 3641 3322 
Q 3641 2881 3436 2590 
Q 3231 2300 2841 2188 
z
M 1259 4147 
L 1259 2491 
L 2053 2491 
Q 2509 2491 2742 2702 
Q 2975 2913 2975 3322 
Q 2975 3731 2742 3939 
Q 2509 4147 2053 4147 
L 1259 4147 
z
" transform="scale(0.015625)"/>
      <path id="DejaVuSans-49" d="M 628 4666 
L 1259 4666 
L 1259 0 
L 628 0 
L 628 4666 
z
" transform="scale(0.015625)"/>
      <path id="DejaVuSans-4d" d="M 628 4666 
L 1569 4666 
L 2759 1491 
L 3956 4666 
L 4897 4666 
L 4897 0 
L 4281 0 
L 4281 4097 
L 3078 897 
L 2444 897 
L 1241 4097 
L 1241 0 
L 628 0 
L 628 4666 
z
" transform="scale(0.015625)"/>
      <path id="DejaVuSans-28" d="M 1984 4856 
Q 1566 4138 1362 3434 
Q 1159 2731 1159 2009 
Q 1159 1288 1364 580 
Q 1569 -128 1984 -844 
L 1484 -844 
Q 1016 -109 783 600 
Q 550 1309 550 2009 
Q 550 2706 781 3412 
Q 1013 4119 1484 4856 
L 1984 4856 
z
" transform="scale(0.015625)"/>
      <path id="DejaVuSans-2c" d="M 750 794 
L 1409 794 
L 1409 256 
L 897 -744 
L 494 -744 
L 750 256 
L 750 794 
z
" transform="scale(0.015625)"/>
      <path id="DejaVuSans-29" d="M 513 4856 
L 1013 4856 
Q 1481 4119 1714 3412 
Q 1947 2706 1947 2009 
Q 1947 1309 1714 600 
Q 1481 -109 1013 -844 
L 513 -844 
Q 928 -128 1133 580 
Q 1338 1288 1338 2009 
Q 1338 2731 1133 3434 
Q 928 4138 513 4856 
z
" transform="scale(0.015625)"/>
      <path id="DejaVuSans-78" d="M 3513 3500 
L 2247 1797 
L 3578 0 
L 2900 0 
L 1881 1375 
L 863 0 
L 184 0 
L 1544 1831 
L 300 3500 
L 978 3500 
L 1906 2253 
L 2834 3500 
L 3513 3500 
z
" transform="scale(0.015625)"/>
      <path id="DejaVuSans-3d" d="M 678 2906 
L 4684 2906 
L 4684 2381 
L 678 2381 
L 678 2906 
z
M 678 1631 
L 4684 1631 
L 4684 1100 
L 678 1100 
L 678 1631 
z
" transform="scale(0.015625)"/>
      <path id="DejaVuSans-2e" d="M 684 794 
L 1344 794 
L 1344 0 
L 684 0 
L 684 794 
z
" transform="scale(0.015625)"/>
      <path id="DejaVuSans-33" d="M 2597 2516 
Q 3050 2419 3304 2112 
Q 3559 1806 3559 1356 
Q 3559 666 3084 287 
Q 2609 -91 1734 -91 
Q 1441 -91 1130 -33 
Q 819 25 488 141 
L 488 750 
Q 750 597 1062 519 
Q 1375 441 1716 441 
Q 2309 441 2620 675 
Q 2931 909 2931 1356 
Q 2931 1769 2642 2001 
Q 2353 2234 1838 2234 
L 1294 2234 
L 1294 2753 
L 1863 2753 
Q 2328 2753 2575 2939 
Q 2822 3125 2822 3475 
Q 2822 3834 2567 4026 
Q 2313 4219 1838 4219 
Q 1578 4219 1281 4162 
Q 984 4106 628 3988 
L 628 4550 
Q 988 4650 1302 4700 
Q 1616 4750 1894 4750 
Q 2613 4750 3031 4423 
Q 3450 4097 3450 3541 
Q 3450 3153 3228 2886 
Q 3006 2619 2597 2516 
z
" transform="scale(0.015625)"/>
     </defs>
     <use xlink:href="#DejaVuSans-41"/>
     <use xlink:href="#DejaVuSans-52" x="68.408203"/>
     <use xlink:href="#DejaVuSans-49" x="137.890625"/>
     <use xlink:href="#DejaVuSans-4d" x="167.382812"/>
     <use xlink:href="#DejaVuSans-41" x="253.662109"/>
     <use xlink:href="#DejaVuSans-20" x="322.070312"/>
     <use xlink:href="#DejaVuSans-28" x="353.857422"/>
     <use xlink:href="#DejaVuSans-30" x="392.871094"/>
     <use xlink:href="#DejaVuSans-2c" x="456.494141"/>
     <use xlink:href="#DejaVuSans-20" x="488.28125"/>
     <use xlink:href="#DejaVuSans-31" x="520.068359"/>
     <use xlink:href="#DejaVuSans-2c" x="583.691406"/>
     <use xlink:href="#DejaVuSans-20" x="615.478516"/>
     <use xlink:href="#DejaVuSans-31" x="647.265625"/>
     <use xlink:href="#DejaVuSans-29" x="710.888672"/>
     <use xlink:href="#DejaVuSans-78" x="749.902344"/>
     <use xlink:href="#DejaVuSans-28" x="809.082031"/>
     <use xlink:href="#DejaVuSans-31" x="848.095703"/>
     <use xlink:href="#DejaVuSans-2c" x="911.71875"/>
     <use xlink:href="#DejaVuSans-20" x="943.505859"/>
     <use xlink:href="#DejaVuSans-30" x="975.292969"/>
     <use xlink:href="#DejaVuSans-2c" x="1038.916016"/>
     <use xlink:href="#DejaVuSans-20" x="1070.703125"/>
     <use xlink:href="#DejaVuSans-30" x="1102.490234"/>
     <use xlink:href="#DejaVuSans-2c" x="1166.113281"/>
     <use xlink:href="#DejaVuSans-20" x="1197.900391"/>
     <use xlink:href="#DejaVuSans-37" x="1229.6875"/>
     <use xlink:href="#DejaVuSans-29" x="1293.310547"/>
     <use xlink:href="#DejaVuSans-20" x="1332.324219"/>
     <use xlink:href="#DejaVuSans-28" x="1364.111328"/>
     <use xlink:href="#DejaVuSans-52" x="1403.125"/>
     <use xlink:href="#DejaVuSans-32" x="1472.607422"/>
     <use xlink:href="#DejaVuSans-20" x="1536.230469"/>
     <use xlink:href="#DejaVuSans-3d" x="1568.017578"/>
     <use xlink:href="#DejaVuSans-20" x="1651.806641"/>
     <use xlink:href="#DejaVuSans-2d" x="1683.59375"/>
     <use xlink:href="#DejaVuSans-30" x="1719.677734"/>
     <use xlink:href="#DejaVuSans-2e" x="1783.300781"/>
     <use xlink:href="#DejaVuSans-30" x="1815.087891"/>
     <use xlink:href="#DejaVuSans-32" x="1878.710938"/>
     <use xlink:href="#DejaVuSans-33" x="1942.333984"/>
     <use xlink:href="#DejaVuSans-33" x="2005.957031"/>
     <use xlink:href="#DejaVuSans-34" x="2069.580078"/>
     <use xlink:href="#DejaVuSans-31" x="2133.203125"/>
     <use xlink:href="#DejaVuSans-29" x="2196.826172"/>
    </g>
   </g>
   <g id="legend_1">
    <g id="patch_7">
     <path d="M 1287.495312 87.789875 
L 1384.575 87.789875 
Q 1386.575 87.789875 1386.575 85.789875 
L 1386.575 42.7555 
Q 1386.575 40.7555 1384.575 40.7555 
L 1287.495312 40.7555 
Q 1285.495312 40.7555 1285.495312 42.7555 
L 1285.495312 85.789875 
Q 1285.495312 87.789875 1287.495312 87.789875 
z
" style="fill: #ffffff; opacity: 0.8; stroke: #cccccc; stroke-linejoin: miter"/>
    </g>
    <g id="line2d_23">
     <path d="M 1289.495312 48.853937 
L 1299.495312 48.853937 
L 1309.495312 48.853937 
" style="fill: none; stroke: #0000ff; stroke-width: 1.5; stroke-linecap: square"/>
    </g>
    <g id="text_21">
     <!-- Actual Value -->
     <g transform="translate(1317.495312 52.353937)scale(0.1 -0.1)">
      <defs>
       <path id="DejaVuSans-75" d="M 544 1381 
L 544 3500 
L 1119 3500 
L 1119 1403 
Q 1119 906 1312 657 
Q 1506 409 1894 409 
Q 2359 409 2629 706 
Q 2900 1003 2900 1516 
L 2900 3500 
L 3475 3500 
L 3475 0 
L 2900 0 
L 2900 538 
Q 2691 219 2414 64 
Q 2138 -91 1772 -91 
Q 1169 -91 856 284 
Q 544 659 544 1381 
z
M 1991 3584 
L 1991 3584 
z
" transform="scale(0.015625)"/>
       <path id="DejaVuSans-56" d="M 1831 0 
L 50 4666 
L 709 4666 
L 2188 738 
L 3669 4666 
L 4325 4666 
L 2547 0 
L 1831 0 
z
" transform="scale(0.015625)"/>
      </defs>
      <use xlink:href="#DejaVuSans-41"/>
      <use xlink:href="#DejaVuSans-63" x="66.658203"/>
      <use xlink:href="#DejaVuSans-74" x="121.638672"/>
      <use xlink:href="#DejaVuSans-75" x="160.847656"/>
      <use xlink:href="#DejaVuSans-61" x="224.226562"/>
      <use xlink:href="#DejaVuSans-6c" x="285.505859"/>
      <use xlink:href="#DejaVuSans-20" x="313.289062"/>
      <use xlink:href="#DejaVuSans-56" x="345.076172"/>
      <use xlink:href="#DejaVuSans-61" x="405.734375"/>
      <use xlink:href="#DejaVuSans-6c" x="467.013672"/>
      <use xlink:href="#DejaVuSans-75" x="494.796875"/>
      <use xlink:href="#DejaVuSans-65" x="558.175781"/>
     </g>
    </g>
    <g id="line2d_24">
     <path d="M 1289.495312 63.532062 
L 1299.495312 63.532062 
L 1309.495312 63.532062 
" style="fill: none; stroke: #ffa500; stroke-width: 1.5; stroke-linecap: square"/>
    </g>
    <g id="text_22">
     <!-- Check Value -->
     <g transform="translate(1317.495312 67.032062)scale(0.1 -0.1)">
      <defs>
       <path id="DejaVuSans-68" d="M 3513 2113 
L 3513 0 
L 2938 0 
L 2938 2094 
Q 2938 2591 2744 2837 
Q 2550 3084 2163 3084 
Q 1697 3084 1428 2787 
Q 1159 2491 1159 1978 
L 1159 0 
L 581 0 
L 581 4863 
L 1159 4863 
L 1159 2956 
Q 1366 3272 1645 3428 
Q 1925 3584 2291 3584 
Q 2894 3584 3203 3211 
Q 3513 2838 3513 2113 
z
" transform="scale(0.015625)"/>
       <path id="DejaVuSans-6b" d="M 581 4863 
L 1159 4863 
L 1159 1991 
L 2875 3500 
L 3609 3500 
L 1753 1863 
L 3688 0 
L 2938 0 
L 1159 1709 
L 1159 0 
L 581 0 
L 581 4863 
z
" transform="scale(0.015625)"/>
      </defs>
      <use xlink:href="#DejaVuSans-43"/>
      <use xlink:href="#DejaVuSans-68" x="69.824219"/>
      <use xlink:href="#DejaVuSans-65" x="133.203125"/>
      <use xlink:href="#DejaVuSans-63" x="194.726562"/>
      <use xlink:href="#DejaVuSans-6b" x="249.707031"/>
      <use xlink:href="#DejaVuSans-20" x="307.617188"/>
      <use xlink:href="#DejaVuSans-56" x="339.404297"/>
      <use xlink:href="#DejaVuSans-61" x="400.0625"/>
      <use xlink:href="#DejaVuSans-6c" x="461.341797"/>
      <use xlink:href="#DejaVuSans-75" x="489.125"/>
      <use xlink:href="#DejaVuSans-65" x="552.503906"/>
     </g>
    </g>
    <g id="line2d_25">
     <path d="M 1289.495312 78.210187 
L 1299.495312 78.210187 
L 1309.495312 78.210187 
" style="fill: none; stroke: #ff0000; stroke-width: 1.5; stroke-linecap: square"/>
    </g>
    <g id="text_23">
     <!-- Predict Value -->
     <g transform="translate(1317.495312 81.710187)scale(0.1 -0.1)">
      <defs>
       <path id="DejaVuSans-50" d="M 1259 4147 
L 1259 2394 
L 2053 2394 
Q 2494 2394 2734 2622 
Q 2975 2850 2975 3272 
Q 2975 3691 2734 3919 
Q 2494 4147 2053 4147 
L 1259 4147 
z
M 628 4666 
L 2053 4666 
Q 2838 4666 3239 4311 
Q 3641 3956 3641 3272 
Q 3641 2581 3239 2228 
Q 2838 1875 2053 1875 
L 1259 1875 
L 1259 0 
L 628 0 
L 628 4666 
z
" transform="scale(0.015625)"/>
      </defs>
      <use xlink:href="#DejaVuSans-50"/>
      <use xlink:href="#DejaVuSans-72" x="58.552734"/>
      <use xlink:href="#DejaVuSans-65" x="97.416016"/>
      <use xlink:href="#DejaVuSans-64" x="158.939453"/>
      <use xlink:href="#DejaVuSans-69" x="222.416016"/>
      <use xlink:href="#DejaVuSans-63" x="250.199219"/>
      <use xlink:href="#DejaVuSans-74" x="305.179688"/>
      <use xlink:href="#DejaVuSans-20" x="344.388672"/>
      <use xlink:href="#DejaVuSans-56" x="376.175781"/>
      <use xlink:href="#DejaVuSans-61" x="436.833984"/>
      <use xlink:href="#DejaVuSans-6c" x="498.113281"/>
      <use xlink:href="#DejaVuSans-75" x="525.896484"/>
      <use xlink:href="#DejaVuSans-65" x="589.275391"/>
     </g>
    </g>
   </g>
  </g>
 </g>
 <defs>
  <clipPath id="pd499687074">
   <rect x="52.375" y="35.7555" width="1339.2" height="332.64"/>
  </clipPath>
 </defs>
</svg>
