<?xml version="1.0" encoding="utf-8" standalone="no"?>
<!DOCTYPE svg PUBLIC "-//W3C//DTD SVG 1.1//EN"
  "http://www.w3.org/Graphics/SVG/1.1/DTD/svg11.dtd">
<svg xmlns:xlink="http://www.w3.org/1999/xlink" width="1392.4125pt" height="392.273625pt" viewBox="0 0 1392.4125 392.273625" xmlns="http://www.w3.org/2000/svg" version="1.1">
 <metadata>
  <rdf:RDF xmlns:dc="http://purl.org/dc/elements/1.1/" xmlns:cc="http://creativecommons.org/ns#" xmlns:rdf="http://www.w3.org/1999/02/22-rdf-syntax-ns#">
   <cc:Work>
    <dc:type rdf:resource="http://purl.org/dc/dcmitype/StillImage"/>
    <dc:date>2022-06-22T17:49:24.588361</dc:date>
    <dc:format>image/svg+xml</dc:format>
    <dc:creator>
     <cc:Agent>
      <dc:title>Matplotlib v3.5.2, https://matplotlib.org/</dc:title>
     </cc:Agent>
    </dc:creator>
   </cc:Work>
  </rdf:RDF>
 </metadata>
 <defs>
  <style type="text/css">*{stroke-linejoin: round; stroke-linecap: butt}</style>
 </defs>
 <g id="figure_1">
  <g id="patch_1">
   <path d="M 0 392.273625 
L 1392.4125 392.273625 
L 1392.4125 0 
L 0 0 
z
" style="fill: #ffffff"/>
  </g>
  <g id="axes_1">
   <g id="patch_2">
    <path d="M 46.0125 368.3955 
L 1385.2125 368.3955 
L 1385.2125 35.7555 
L 46.0125 35.7555 
z
" style="fill: #ffffff"/>
   </g>
   <g id="matplotlib.axis_1">
    <g id="xtick_1">
     <g id="line2d_1">
      <defs>
       <path id="mf3cd8b4084" d="M 0 0 
L 0 3.5 
" style="stroke: #000000; stroke-width: 0.8"/>
      </defs>
      <g>
       <use xlink:href="#mf3cd8b4084" x="76.891946" y="368.3955" style="stroke: #000000; stroke-width: 0.8"/>
      </g>
     </g>
     <g id="text_1">
      <!-- 2020-01 -->
      <g transform="translate(56.00054 382.993937)scale(0.1 -0.1)">
       <defs>
        <path id="DejaVuSans-32" d="M 1228 531 
L 3431 531 
L 3431 0 
L 469 0 
L 469 531 
Q 828 903 1448 1529 
Q 2069 2156 2228 2338 
Q 2531 2678 2651 2914 
Q 2772 3150 2772 3378 
Q 2772 3750 2511 3984 
Q 2250 4219 1831 4219 
Q 1534 4219 1204 4116 
Q 875 4013 500 3803 
L 500 4441 
Q 881 4594 1212 4672 
Q 1544 4750 1819 4750 
Q 2544 4750 2975 4387 
Q 3406 4025 3406 3419 
Q 3406 3131 3298 2873 
Q 3191 2616 2906 2266 
Q 2828 2175 2409 1742 
Q 1991 1309 1228 531 
z
" transform="scale(0.015625)"/>
        <path id="DejaVuSans-30" d="M 2034 4250 
Q 1547 4250 1301 3770 
Q 1056 3291 1056 2328 
Q 1056 1369 1301 889 
Q 1547 409 2034 409 
Q 2525 409 2770 889 
Q 3016 1369 3016 2328 
Q 3016 3291 2770 3770 
Q 2525 4250 2034 4250 
z
M 2034 4750 
Q 2819 4750 3233 4129 
Q 3647 3509 3647 2328 
Q 3647 1150 3233 529 
Q 2819 -91 2034 -91 
Q 1250 -91 836 529 
Q 422 1150 422 2328 
Q 422 3509 836 4129 
Q 1250 4750 2034 4750 
z
" transform="scale(0.015625)"/>
        <path id="DejaVuSans-2d" d="M 313 2009 
L 1997 2009 
L 1997 1497 
L 313 1497 
L 313 2009 
z
" transform="scale(0.015625)"/>
        <path id="DejaVuSans-31" d="M 794 531 
L 1825 531 
L 1825 4091 
L 703 3866 
L 703 4441 
L 1819 4666 
L 2450 4666 
L 2450 531 
L 3481 531 
L 3481 0 
L 794 0 
L 794 531 
z
" transform="scale(0.015625)"/>
       </defs>
       <use xlink:href="#DejaVuSans-32"/>
       <use xlink:href="#DejaVuSans-30" x="63.623047"/>
       <use xlink:href="#DejaVuSans-32" x="127.246094"/>
       <use xlink:href="#DejaVuSans-30" x="190.869141"/>
       <use xlink:href="#DejaVuSans-2d" x="254.492188"/>
       <use xlink:href="#DejaVuSans-30" x="290.576172"/>
       <use xlink:href="#DejaVuSans-31" x="354.199219"/>
      </g>
     </g>
    </g>
    <g id="xtick_2">
     <g id="line2d_2">
      <g>
       <use xlink:href="#mf3cd8b4084" x="200.955063" y="368.3955" style="stroke: #000000; stroke-width: 0.8"/>
      </g>
     </g>
     <g id="text_2">
      <!-- 2020-04 -->
      <g transform="translate(180.063657 382.993937)scale(0.1 -0.1)">
       <defs>
        <path id="DejaVuSans-34" d="M 2419 4116 
L 825 1625 
L 2419 1625 
L 2419 4116 
z
M 2253 4666 
L 3047 4666 
L 3047 1625 
L 3713 1625 
L 3713 1100 
L 3047 1100 
L 3047 0 
L 2419 0 
L 2419 1100 
L 313 1100 
L 313 1709 
L 2253 4666 
z
" transform="scale(0.015625)"/>
       </defs>
       <use xlink:href="#DejaVuSans-32"/>
       <use xlink:href="#DejaVuSans-30" x="63.623047"/>
       <use xlink:href="#DejaVuSans-32" x="127.246094"/>
       <use xlink:href="#DejaVuSans-30" x="190.869141"/>
       <use xlink:href="#DejaVuSans-2d" x="254.492188"/>
       <use xlink:href="#DejaVuSans-30" x="290.576172"/>
       <use xlink:href="#DejaVuSans-34" x="354.199219"/>
      </g>
     </g>
    </g>
    <g id="xtick_3">
     <g id="line2d_3">
      <g>
       <use xlink:href="#mf3cd8b4084" x="325.018181" y="368.3955" style="stroke: #000000; stroke-width: 0.8"/>
      </g>
     </g>
     <g id="text_3">
      <!-- 2020-07 -->
      <g transform="translate(304.126774 382.993937)scale(0.1 -0.1)">
       <defs>
        <path id="DejaVuSans-37" d="M 525 4666 
L 3525 4666 
L 3525 4397 
L 1831 0 
L 1172 0 
L 2766 4134 
L 525 4134 
L 525 4666 
z
" transform="scale(0.015625)"/>
       </defs>
       <use xlink:href="#DejaVuSans-32"/>
       <use xlink:href="#DejaVuSans-30" x="63.623047"/>
       <use xlink:href="#DejaVuSans-32" x="127.246094"/>
       <use xlink:href="#DejaVuSans-30" x="190.869141"/>
       <use xlink:href="#DejaVuSans-2d" x="254.492188"/>
       <use xlink:href="#DejaVuSans-30" x="290.576172"/>
       <use xlink:href="#DejaVuSans-37" x="354.199219"/>
      </g>
     </g>
    </g>
    <g id="xtick_4">
     <g id="line2d_4">
      <g>
       <use xlink:href="#mf3cd8b4084" x="450.444629" y="368.3955" style="stroke: #000000; stroke-width: 0.8"/>
      </g>
     </g>
     <g id="text_4">
      <!-- 2020-10 -->
      <g transform="translate(429.553222 382.993937)scale(0.1 -0.1)">
       <use xlink:href="#DejaVuSans-32"/>
       <use xlink:href="#DejaVuSans-30" x="63.623047"/>
       <use xlink:href="#DejaVuSans-32" x="127.246094"/>
       <use xlink:href="#DejaVuSans-30" x="190.869141"/>
       <use xlink:href="#DejaVuSans-2d" x="254.492188"/>
       <use xlink:href="#DejaVuSans-31" x="290.576172"/>
       <use xlink:href="#DejaVuSans-30" x="354.199219"/>
      </g>
     </g>
    </g>
    <g id="xtick_5">
     <g id="line2d_5">
      <g>
       <use xlink:href="#mf3cd8b4084" x="575.871077" y="368.3955" style="stroke: #000000; stroke-width: 0.8"/>
      </g>
     </g>
     <g id="text_5">
      <!-- 2021-01 -->
      <g transform="translate(554.979671 382.993937)scale(0.1 -0.1)">
       <use xlink:href="#DejaVuSans-32"/>
       <use xlink:href="#DejaVuSans-30" x="63.623047"/>
       <use xlink:href="#DejaVuSans-32" x="127.246094"/>
       <use xlink:href="#DejaVuSans-31" x="190.869141"/>
       <use xlink:href="#DejaVuSans-2d" x="254.492188"/>
       <use xlink:href="#DejaVuSans-30" x="290.576172"/>
       <use xlink:href="#DejaVuSans-31" x="354.199219"/>
      </g>
     </g>
    </g>
    <g id="xtick_6">
     <g id="line2d_6">
      <g>
       <use xlink:href="#mf3cd8b4084" x="698.570863" y="368.3955" style="stroke: #000000; stroke-width: 0.8"/>
      </g>
     </g>
     <g id="text_6">
      <!-- 2021-04 -->
      <g transform="translate(677.679457 382.993937)scale(0.1 -0.1)">
       <use xlink:href="#DejaVuSans-32"/>
       <use xlink:href="#DejaVuSans-30" x="63.623047"/>
       <use xlink:href="#DejaVuSans-32" x="127.246094"/>
       <use xlink:href="#DejaVuSans-31" x="190.869141"/>
       <use xlink:href="#DejaVuSans-2d" x="254.492188"/>
       <use xlink:href="#DejaVuSans-30" x="290.576172"/>
       <use xlink:href="#DejaVuSans-34" x="354.199219"/>
      </g>
     </g>
    </g>
    <g id="xtick_7">
     <g id="line2d_7">
      <g>
       <use xlink:href="#mf3cd8b4084" x="822.63398" y="368.3955" style="stroke: #000000; stroke-width: 0.8"/>
      </g>
     </g>
     <g id="text_7">
      <!-- 2021-07 -->
      <g transform="translate(801.742574 382.993937)scale(0.1 -0.1)">
       <use xlink:href="#DejaVuSans-32"/>
       <use xlink:href="#DejaVuSans-30" x="63.623047"/>
       <use xlink:href="#DejaVuSans-32" x="127.246094"/>
       <use xlink:href="#DejaVuSans-31" x="190.869141"/>
       <use xlink:href="#DejaVuSans-2d" x="254.492188"/>
       <use xlink:href="#DejaVuSans-30" x="290.576172"/>
       <use xlink:href="#DejaVuSans-37" x="354.199219"/>
      </g>
     </g>
    </g>
    <g id="xtick_8">
     <g id="line2d_8">
      <g>
       <use xlink:href="#mf3cd8b4084" x="948.060428" y="368.3955" style="stroke: #000000; stroke-width: 0.8"/>
      </g>
     </g>
     <g id="text_8">
      <!-- 2021-10 -->
      <g transform="translate(927.169022 382.993937)scale(0.1 -0.1)">
       <use xlink:href="#DejaVuSans-32"/>
       <use xlink:href="#DejaVuSans-30" x="63.623047"/>
       <use xlink:href="#DejaVuSans-32" x="127.246094"/>
       <use xlink:href="#DejaVuSans-31" x="190.869141"/>
       <use xlink:href="#DejaVuSans-2d" x="254.492188"/>
       <use xlink:href="#DejaVuSans-31" x="290.576172"/>
       <use xlink:href="#DejaVuSans-30" x="354.199219"/>
      </g>
     </g>
    </g>
    <g id="xtick_9">
     <g id="line2d_9">
      <g>
       <use xlink:href="#mf3cd8b4084" x="1073.486876" y="368.3955" style="stroke: #000000; stroke-width: 0.8"/>
      </g>
     </g>
     <g id="text_9">
      <!-- 2022-01 -->
      <g transform="translate(1052.59547 382.993937)scale(0.1 -0.1)">
       <use xlink:href="#DejaVuSans-32"/>
       <use xlink:href="#DejaVuSans-30" x="63.623047"/>
       <use xlink:href="#DejaVuSans-32" x="127.246094"/>
       <use xlink:href="#DejaVuSans-32" x="190.869141"/>
       <use xlink:href="#DejaVuSans-2d" x="254.492188"/>
       <use xlink:href="#DejaVuSans-30" x="290.576172"/>
       <use xlink:href="#DejaVuSans-31" x="354.199219"/>
      </g>
     </g>
    </g>
    <g id="xtick_10">
     <g id="line2d_10">
      <g>
       <use xlink:href="#mf3cd8b4084" x="1196.186663" y="368.3955" style="stroke: #000000; stroke-width: 0.8"/>
      </g>
     </g>
     <g id="text_10">
      <!-- 2022-04 -->
      <g transform="translate(1175.295256 382.993937)scale(0.1 -0.1)">
       <use xlink:href="#DejaVuSans-32"/>
       <use xlink:href="#DejaVuSans-30" x="63.623047"/>
       <use xlink:href="#DejaVuSans-32" x="127.246094"/>
       <use xlink:href="#DejaVuSans-32" x="190.869141"/>
       <use xlink:href="#DejaVuSans-2d" x="254.492188"/>
       <use xlink:href="#DejaVuSans-30" x="290.576172"/>
       <use xlink:href="#DejaVuSans-34" x="354.199219"/>
      </g>
     </g>
    </g>
    <g id="xtick_11">
     <g id="line2d_11">
      <g>
       <use xlink:href="#mf3cd8b4084" x="1320.24978" y="368.3955" style="stroke: #000000; stroke-width: 0.8"/>
      </g>
     </g>
     <g id="text_11">
      <!-- 2022-07 -->
      <g transform="translate(1299.358374 382.993937)scale(0.1 -0.1)">
       <use xlink:href="#DejaVuSans-32"/>
       <use xlink:href="#DejaVuSans-30" x="63.623047"/>
       <use xlink:href="#DejaVuSans-32" x="127.246094"/>
       <use xlink:href="#DejaVuSans-32" x="190.869141"/>
       <use xlink:href="#DejaVuSans-2d" x="254.492188"/>
       <use xlink:href="#DejaVuSans-30" x="290.576172"/>
       <use xlink:href="#DejaVuSans-37" x="354.199219"/>
      </g>
     </g>
    </g>
   </g>
   <g id="matplotlib.axis_2">
    <g id="ytick_1">
     <g id="line2d_12">
      <defs>
       <path id="me5d04022b4" d="M 0 0 
L -3.5 0 
" style="stroke: #000000; stroke-width: 0.8"/>
      </defs>
      <g>
       <use xlink:href="#me5d04022b4" x="46.0125" y="333.676259" style="stroke: #000000; stroke-width: 0.8"/>
      </g>
     </g>
     <g id="text_12">
      <!-- 0 -->
      <g transform="translate(32.65 337.475477)scale(0.1 -0.1)">
       <use xlink:href="#DejaVuSans-30"/>
      </g>
     </g>
    </g>
    <g id="ytick_2">
     <g id="line2d_13">
      <g>
       <use xlink:href="#me5d04022b4" x="46.0125" y="288.160138" style="stroke: #000000; stroke-width: 0.8"/>
      </g>
     </g>
     <g id="text_13">
      <!-- 5000 -->
      <g transform="translate(13.5625 291.959357)scale(0.1 -0.1)">
       <defs>
        <path id="DejaVuSans-35" d="M 691 4666 
L 3169 4666 
L 3169 4134 
L 1269 4134 
L 1269 2991 
Q 1406 3038 1543 3061 
Q 1681 3084 1819 3084 
Q 2600 3084 3056 2656 
Q 3513 2228 3513 1497 
Q 3513 744 3044 326 
Q 2575 -91 1722 -91 
Q 1428 -91 1123 -41 
Q 819 9 494 109 
L 494 744 
Q 775 591 1075 516 
Q 1375 441 1709 441 
Q 2250 441 2565 725 
Q 2881 1009 2881 1497 
Q 2881 1984 2565 2268 
Q 2250 2553 1709 2553 
Q 1456 2553 1204 2497 
Q 953 2441 691 2322 
L 691 4666 
z
" transform="scale(0.015625)"/>
       </defs>
       <use xlink:href="#DejaVuSans-35"/>
       <use xlink:href="#DejaVuSans-30" x="63.623047"/>
       <use xlink:href="#DejaVuSans-30" x="127.246094"/>
       <use xlink:href="#DejaVuSans-30" x="190.869141"/>
      </g>
     </g>
    </g>
    <g id="ytick_3">
     <g id="line2d_14">
      <g>
       <use xlink:href="#me5d04022b4" x="46.0125" y="242.644018" style="stroke: #000000; stroke-width: 0.8"/>
      </g>
     </g>
     <g id="text_14">
      <!-- 10000 -->
      <g transform="translate(7.2 246.443237)scale(0.1 -0.1)">
       <use xlink:href="#DejaVuSans-31"/>
       <use xlink:href="#DejaVuSans-30" x="63.623047"/>
       <use xlink:href="#DejaVuSans-30" x="127.246094"/>
       <use xlink:href="#DejaVuSans-30" x="190.869141"/>
       <use xlink:href="#DejaVuSans-30" x="254.492188"/>
      </g>
     </g>
    </g>
    <g id="ytick_4">
     <g id="line2d_15">
      <g>
       <use xlink:href="#me5d04022b4" x="46.0125" y="197.127898" style="stroke: #000000; stroke-width: 0.8"/>
      </g>
     </g>
     <g id="text_15">
      <!-- 15000 -->
      <g transform="translate(7.2 200.927116)scale(0.1 -0.1)">
       <use xlink:href="#DejaVuSans-31"/>
       <use xlink:href="#DejaVuSans-35" x="63.623047"/>
       <use xlink:href="#DejaVuSans-30" x="127.246094"/>
       <use xlink:href="#DejaVuSans-30" x="190.869141"/>
       <use xlink:href="#DejaVuSans-30" x="254.492188"/>
      </g>
     </g>
    </g>
    <g id="ytick_5">
     <g id="line2d_16">
      <g>
       <use xlink:href="#me5d04022b4" x="46.0125" y="151.611777" style="stroke: #000000; stroke-width: 0.8"/>
      </g>
     </g>
     <g id="text_16">
      <!-- 20000 -->
      <g transform="translate(7.2 155.410996)scale(0.1 -0.1)">
       <use xlink:href="#DejaVuSans-32"/>
       <use xlink:href="#DejaVuSans-30" x="63.623047"/>
       <use xlink:href="#DejaVuSans-30" x="127.246094"/>
       <use xlink:href="#DejaVuSans-30" x="190.869141"/>
       <use xlink:href="#DejaVuSans-30" x="254.492188"/>
      </g>
     </g>
    </g>
    <g id="ytick_6">
     <g id="line2d_17">
      <g>
       <use xlink:href="#me5d04022b4" x="46.0125" y="106.095657" style="stroke: #000000; stroke-width: 0.8"/>
      </g>
     </g>
     <g id="text_17">
      <!-- 25000 -->
      <g transform="translate(7.2 109.894876)scale(0.1 -0.1)">
       <use xlink:href="#DejaVuSans-32"/>
       <use xlink:href="#DejaVuSans-35" x="63.623047"/>
       <use xlink:href="#DejaVuSans-30" x="127.246094"/>
       <use xlink:href="#DejaVuSans-30" x="190.869141"/>
       <use xlink:href="#DejaVuSans-30" x="254.492188"/>
      </g>
     </g>
    </g>
    <g id="ytick_7">
     <g id="line2d_18">
      <g>
       <use xlink:href="#me5d04022b4" x="46.0125" y="60.579537" style="stroke: #000000; stroke-width: 0.8"/>
      </g>
     </g>
     <g id="text_18">
      <!-- 30000 -->
      <g transform="translate(7.2 64.378756)scale(0.1 -0.1)">
       <defs>
        <path id="DejaVuSans-33" d="M 2597 2516 
Q 3050 2419 3304 2112 
Q 3559 1806 3559 1356 
Q 3559 666 3084 287 
Q 2609 -91 1734 -91 
Q 1441 -91 1130 -33 
Q 819 25 488 141 
L 488 750 
Q 750 597 1062 519 
Q 1375 441 1716 441 
Q 2309 441 2620 675 
Q 2931 909 2931 1356 
Q 2931 1769 2642 2001 
Q 2353 2234 1838 2234 
L 1294 2234 
L 1294 2753 
L 1863 2753 
Q 2328 2753 2575 2939 
Q 2822 3125 2822 3475 
Q 2822 3834 2567 4026 
Q 2313 4219 1838 4219 
Q 1578 4219 1281 4162 
Q 984 4106 628 3988 
L 628 4550 
Q 988 4650 1302 4700 
Q 1616 4750 1894 4750 
Q 2613 4750 3031 4423 
Q 3450 4097 3450 3541 
Q 3450 3153 3228 2886 
Q 3006 2619 2597 2516 
z
" transform="scale(0.015625)"/>
       </defs>
       <use xlink:href="#DejaVuSans-33"/>
       <use xlink:href="#DejaVuSans-30" x="63.623047"/>
       <use xlink:href="#DejaVuSans-30" x="127.246094"/>
       <use xlink:href="#DejaVuSans-30" x="190.869141"/>
       <use xlink:href="#DejaVuSans-30" x="254.492188"/>
      </g>
     </g>
    </g>
   </g>
   <g id="line2d_19">
    <path d="M 106.885227 333.676259 
L 177.778437 333.676259 
L 179.141768 333.448678 
L 181.86843 333.676259 
L 183.231761 333.31213 
L 184.595092 333.075446 
L 185.958423 333.676259 
L 188.685085 333.175581 
L 190.048416 333.375852 
L 191.411747 333.266614 
L 192.775078 332.793246 
L 194.138409 332.620285 
L 195.50174 332.856968 
L 196.86507 330.999911 
L 198.228401 332.838762 
L 199.591732 332.74773 
L 200.955063 332.174227 
L 202.318394 332.001265 
L 203.681725 333.211994 
L 205.045056 331.600724 
L 206.408387 332.647594 
L 207.771718 332.784143 
L 209.135049 332.119607 
L 210.49838 332.447323 
L 213.225042 331.254801 
L 214.588373 333.858323 
L 215.951704 332.456427 
L 217.315035 332.274362 
L 218.678366 332.365394 
L 221.405028 333.648949 
L 222.768359 330.854259 
L 224.13169 332.74773 
L 228.221683 332.702214 
L 229.585013 332.365394 
L 230.948344 332.520149 
L 232.311675 331.946646 
L 233.675006 332.392704 
L 235.038337 331.90113 
L 236.401668 333.985768 
L 237.764999 332.574768 
L 239.12833 332.647594 
L 240.491661 332.592975 
L 241.854992 331.90113 
L 244.581654 332.920691 
L 245.944985 332.237949 
L 247.308316 333.403162 
L 248.671647 332.938897 
L 250.034978 332.638491 
L 251.398309 333.084549 
L 252.76164 331.391349 
L 254.124971 334.140523 
L 255.488302 333.384955 
L 256.851633 332.21064 
L 258.214964 332.192433 
L 259.578295 333.421368 
L 260.941626 331.59162 
L 262.304956 332.948001 
L 263.668287 332.43822 
L 265.031618 332.656698 
L 266.394949 333.357646 
L 267.75828 331.018117 
L 269.121611 333.56702 
L 270.484942 332.538356 
L 271.848273 333.667155 
L 273.211604 330.444614 
L 274.574935 332.993517 
L 275.938266 332.756833 
L 277.301597 332.829659 
L 278.664928 332.784143 
L 280.028259 332.511046 
L 281.39159 332.392704 
L 284.118252 333.00262 
L 285.481583 332.256156 
L 286.844914 332.829659 
L 288.208245 332.055885 
L 292.298238 332.055885 
L 293.661569 332.338085 
L 295.024899 331.59162 
L 296.38823 332.101401 
L 297.751561 331.354936 
L 299.114892 331.573414 
L 300.478223 331.009014 
L 303.204885 332.638491 
L 304.568216 330.326272 
L 305.931547 332.119607 
L 307.294878 330.808743 
L 308.658209 330.444614 
L 310.02154 329.561601 
L 311.384871 331.273007 
L 312.748202 331.05453 
L 314.111533 329.406847 
L 315.474864 330.353582 
L 316.838195 329.151956 
L 318.201526 330.20793 
L 319.564857 323.671815 
L 320.928188 326.202512 
L 322.291519 326.994492 
L 323.65485 328.560247 
L 325.018181 327.804679 
L 326.381512 327.923021 
L 327.744842 324.709583 
L 329.108173 325.874796 
L 330.471504 326.002241 
L 331.834835 329.206576 
L 333.198166 325.701834 
L 334.561497 328.978995 
L 335.924828 328.187014 
L 337.288159 324.536622 
L 340.014821 325.984034 
L 341.378152 326.102376 
L 342.741483 323.626299 
L 344.104814 325.947621 
L 345.468145 320.503893 
L 346.831476 321.113809 
L 348.194807 322.916248 
L 349.558138 321.951306 
L 350.921469 325.046402 
L 352.2848 326.257131 
L 353.648131 323.398719 
L 355.011462 322.18799 
L 356.374793 324.882544 
L 357.738124 325.201157 
L 359.101454 324.327247 
L 360.464785 324.682273 
L 361.828116 323.617196 
L 363.191447 325.756454 
L 364.554778 324.409177 
L 365.918109 322.169783 
L 367.28144 324.70048 
L 368.644771 323.380512 
L 370.008102 324.627654 
L 371.371433 324.755099 
L 372.734764 327.768266 
L 374.098095 327.040008 
L 375.461426 324.791512 
L 376.824757 325.610802 
L 379.551419 326.921666 
L 380.91475 328.687692 
L 382.278081 328.869756 
L 383.641412 328.196118 
L 385.004743 323.671815 
L 386.368074 325.856589 
L 387.731405 327.331311 
L 389.094736 327.649924 
L 390.458067 327.558892 
L 391.821397 330.135104 
L 393.184728 328.614866 
L 394.548059 325.947621 
L 395.91139 327.886608 
L 397.274721 328.833343 
L 398.638052 329.95304 
L 400.001383 330.007659 
L 401.364714 331.373143 
L 402.728045 328.633072 
L 404.091376 327.923021 
L 405.454707 328.132395 
L 406.818038 329.607117 
L 408.181369 330.763227 
L 409.5447 329.989453 
L 410.908031 331.500588 
L 412.271362 330.481027 
L 413.634693 329.224782 
L 414.998024 330.126001 
L 416.361355 329.051821 
L 417.724686 330.426408 
L 419.088017 332.429117 
L 420.451348 332.274362 
L 421.814679 331.05453 
L 423.17801 331.30942 
L 424.54134 329.907524 
L 425.904671 330.790537 
L 429.994664 331.782788 
L 432.721326 329.115543 
L 434.084657 330.735917 
L 435.447988 330.171517 
L 436.811319 331.564311 
L 438.17465 331.291214 
L 439.537981 329.042718 
L 440.901312 330.126001 
L 442.264643 328.614866 
L 443.627974 328.196118 
L 444.991305 330.280756 
L 446.354636 329.461466 
L 447.717967 329.998556 
L 449.081298 330.171517 
L 450.444629 329.761872 
L 451.80796 326.64857 
L 453.171291 328.887963 
L 454.534622 330.107795 
L 455.897953 330.608472 
L 457.261283 329.315814 
L 458.624614 329.752769 
L 459.987945 329.306711 
L 461.351276 326.703189 
L 462.714607 326.33906 
L 464.077938 330.217033 
L 465.441269 328.496524 
L 466.8046 329.242988 
L 468.167931 329.315814 
L 469.531262 327.713647 
L 470.894593 327.15835 
L 472.257924 324.873441 
L 473.621255 328.132395 
L 474.984586 328.378182 
L 476.347917 327.704544 
L 477.711248 328.532937 
L 479.074579 326.493815 
L 480.43791 326.284441 
L 481.801241 323.234861 
L 483.164572 325.565286 
L 484.527903 329.352227 
L 485.891234 327.030905 
L 487.254565 328.478318 
L 488.617896 323.908499 
L 489.981226 322.461087 
L 492.707888 327.15835 
L 494.071219 327.877505 
L 495.43455 325.383221 
L 496.797881 323.954015 
L 498.161212 322.142474 
L 499.524543 319.457023 
L 500.887874 317.071978 
L 502.251205 322.060545 
L 503.614536 324.937164 
L 504.977867 321.641796 
L 506.341198 323.59899 
L 509.06786 316.771572 
L 510.431191 313.021043 
L 511.794522 322.961764 
L 513.157853 316.234481 
L 514.521184 318.237191 
L 515.884515 318.528494 
L 517.247846 311.673766 
L 518.611177 316.944533 
L 519.974508 315.296849 
L 521.337838 314.058811 
L 522.701169 312.383818 
L 524.0645 307.540902 
L 525.427831 305.073929 
L 526.791162 310.544966 
L 528.154493 319.693706 
L 529.517824 307.16767 
L 530.881155 321.860274 
L 532.244486 318.710558 
L 533.607817 309.361547 
L 534.971148 314.058811 
L 537.69781 307.258702 
L 539.061141 304.600561 
L 540.424472 310.80896 
L 541.787803 311.400669 
L 543.151134 309.124863 
L 544.514465 305.911425 
L 545.877796 313.712888 
L 547.241127 308.341986 
L 548.604458 309.65285 
L 549.967789 307.42256 
L 551.33112 310.189941 
L 552.694451 312.565882 
L 554.057781 312.13803 
L 555.421112 312.911805 
L 556.784443 307.47718 
L 558.147774 309.998773 
L 559.511105 314.67783 
L 560.874436 316.025107 
L 562.237767 323.753744 
L 563.601098 306.475825 
L 564.964429 313.203108 
L 566.32776 316.807984 
L 567.691091 319.211236 
L 569.054422 316.780675 
L 570.417753 325.77466 
L 571.781084 317.772926 
L 573.144415 311.182192 
L 574.507746 314.231772 
L 575.871077 312.602295 
L 577.234408 317.062875 
L 578.597739 308.706115 
L 579.96107 320.767887 
L 581.324401 311.619147 
L 582.687732 316.03421 
L 584.051063 302.697987 
L 585.414394 307.595522 
L 586.777724 309.570921 
L 588.141055 313.102972 
L 589.504386 318.382842 
L 590.867717 310.071599 
L 592.231048 323.271274 
L 593.594379 313.767508 
L 594.95771 316.580404 
L 596.321041 315.105682 
L 597.684372 320.176177 
L 599.047703 322.561222 
L 600.411034 322.952661 
L 601.774365 323.016383 
L 603.137696 322.75239 
L 604.501027 316.662333 
L 605.864358 320.012319 
L 607.227689 322.807009 
L 608.59102 324.664067 
L 609.954351 324.973576 
L 612.681013 323.862983 
L 614.044344 321.587177 
L 615.407675 323.935809 
L 618.134337 326.047757 
L 619.497667 326.293544 
L 620.860998 326.848841 
L 622.224329 325.583492 
L 624.950991 325.501563 
L 626.314322 327.75006 
L 627.677653 328.687692 
L 629.040984 328.705898 
L 630.404315 327.677234 
L 631.767646 328.28715 
L 633.130977 327.886608 
L 634.494308 326.275337 
L 635.857639 329.015408 
L 637.22097 330.116898 
L 638.584301 331.036324 
L 639.947632 330.371788 
L 641.310963 329.233885 
L 642.674294 329.852904 
L 644.037625 330.298962 
L 645.400956 330.936188 
L 646.764287 332.101401 
L 648.127618 330.053175 
L 649.490949 328.978995 
L 650.854279 328.478318 
L 652.21761 330.044072 
L 653.580941 329.497879 
L 654.944272 331.254801 
L 656.307603 331.61893 
L 659.034265 330.080485 
L 660.397596 330.171517 
L 661.760927 330.116898 
L 663.124258 329.124647 
L 664.487589 331.582517 
L 665.85092 331.828304 
L 667.214251 329.770975 
L 668.577582 330.717711 
L 669.940913 328.050466 
L 671.304244 325.865692 
L 672.667575 329.652634 
L 674.030906 331.655343 
L 675.394237 332.001265 
L 676.757568 330.526543 
L 678.120899 330.936188 
L 679.48423 330.972601 
L 680.847561 331.263904 
L 682.210892 331.209285 
L 683.574222 331.609827 
L 684.937553 332.256156 
L 686.300884 332.338085 
L 687.664215 331.436865 
L 689.027546 329.634427 
L 690.390877 329.625324 
L 693.117539 332.374498 
L 694.48087 331.746375 
L 695.844201 331.664446 
L 697.207532 331.236595 
L 698.570863 330.49013 
L 699.934194 330.562956 
L 701.297525 329.470569 
L 702.660856 331.30942 
L 704.024187 332.028575 
L 705.387518 330.990808 
L 706.750849 331.154666 
L 708.11418 330.162414 
L 709.477511 327.877505 
L 710.840842 326.830634 
L 712.204173 330.763227 
L 713.567504 330.77233 
L 714.930835 329.92573 
L 716.294165 330.080485 
L 717.657496 328.678589 
L 719.020827 328.796931 
L 720.384158 333.676259 
L 721.747489 333.676259 
L 723.11082 327.322208 
L 724.474151 330.20793 
L 725.837482 329.707253 
L 727.200813 328.869756 
L 728.564144 328.560247 
L 729.927475 333.676259 
L 731.290806 333.676259 
L 732.654137 326.02955 
L 734.017468 329.989453 
L 735.380799 330.126001 
L 738.107461 329.033614 
L 739.470792 333.676259 
L 740.834123 333.676259 
L 742.197454 326.384576 
L 743.560785 329.343124 
L 744.924116 330.280756 
L 746.287447 330.089588 
L 747.650778 329.142853 
L 749.014108 333.676259 
L 750.377439 333.676259 
L 751.74077 326.393679 
L 753.104101 329.397743 
L 754.467432 329.452363 
L 755.830763 329.707253 
L 757.194094 330.135104 
L 758.557425 333.676259 
L 759.920756 333.676259 
L 761.284087 328.742311 
L 762.647418 331.063633 
L 764.010749 330.508337 
L 765.37408 330.927085 
L 766.737411 330.635782 
L 768.100742 333.676259 
L 769.464073 333.676259 
L 770.827404 329.989453 
L 772.190735 331.263904 
L 773.554066 331.609827 
L 774.917397 331.564311 
L 776.280728 331.245698 
L 777.644059 333.676259 
L 780.370721 333.676259 
L 781.734051 328.997201 
L 783.097382 329.862008 
L 784.460713 330.49013 
L 785.824044 330.389995 
L 787.187375 333.676259 
L 788.550706 333.676259 
L 789.914037 327.968537 
L 791.277368 330.51744 
L 792.640699 331.700859 
L 794.00403 330.990808 
L 795.367361 331.291214 
L 796.730692 333.676259 
L 798.094023 333.676259 
L 799.457354 329.679943 
L 800.820685 331.382246 
L 802.184016 330.371788 
L 803.547347 330.981704 
L 804.910678 330.171517 
L 806.274009 333.676259 
L 807.63734 333.676259 
L 809.000671 327.850195 
L 810.364002 330.034969 
L 811.727333 329.607117 
L 813.090663 329.598014 
L 814.453994 326.357266 
L 815.817325 333.676259 
L 817.180656 333.676259 
L 818.543987 325.346809 
L 819.907318 327.986744 
L 821.270649 328.59666 
L 822.63398 328.733208 
L 823.997311 329.051821 
L 825.360642 333.676259 
L 828.087304 333.676259 
L 829.450635 321.423319 
L 830.813966 329.552498 
L 832.177297 327.331311 
L 833.540628 326.275337 
L 834.903959 333.676259 
L 836.26729 333.676259 
L 837.630621 318.446565 
L 838.993952 325.893002 
L 840.357283 327.376828 
L 841.720614 325.137434 
L 843.083945 325.792867 
L 844.447276 333.676259 
L 845.810606 333.676259 
L 847.173937 314.859894 
L 848.537268 324.536622 
L 849.900599 325.201157 
L 851.26393 325.101022 
L 852.627261 324.545725 
L 853.990592 333.676259 
L 855.353923 333.676259 
L 856.717254 311.828521 
L 858.080585 323.444235 
L 859.443916 322.943557 
L 860.807247 321.432422 
L 862.170578 321.751035 
L 863.533909 333.676259 
L 864.89724 333.676259 
L 866.260571 310.635999 
L 867.623902 322.615841 
L 868.987233 324.636757 
L 870.350564 323.344099 
L 871.713895 321.851171 
L 873.077226 333.676259 
L 874.440557 333.676259 
L 875.803888 306.275554 
L 877.167219 323.435132 
L 878.530549 325.337705 
L 879.89388 322.561222 
L 881.257211 322.024132 
L 882.620542 333.676259 
L 883.983873 333.676259 
L 885.347204 310.708824 
L 886.710535 324.554828 
L 888.073866 320.667751 
L 889.437197 320.813403 
L 890.800528 322.688667 
L 892.163859 333.676259 
L 893.52719 333.676259 
L 894.890521 305.765774 
L 896.253852 324.509312 
L 897.617183 321.277667 
L 898.980514 323.325893 
L 900.343845 321.960409 
L 901.707176 333.676259 
L 903.070507 333.676259 
L 904.433838 308.196334 
L 905.797169 322.370054 
L 907.1605 320.458377 
L 908.523831 323.334996 
L 909.887162 320.868022 
L 911.250492 333.676259 
L 913.977154 333.676259 
L 915.340485 304.609664 
L 916.703816 320.512997 
L 918.067147 323.526164 
L 919.430478 319.548055 
L 920.793809 333.676259 
L 922.15714 333.676259 
L 923.520471 307.832205 
L 924.883802 320.276313 
L 926.247133 324.154286 
L 927.610464 320.249003 
L 928.973795 321.195738 
L 930.337126 333.676259 
L 931.700457 333.676259 
L 933.063788 313.530824 
L 934.427119 322.479293 
L 935.79045 326.175202 
L 937.153781 324.090564 
L 938.517112 323.917602 
L 939.880443 333.676259 
L 941.243774 333.676259 
L 942.607104 315.642772 
L 943.970435 325.465151 
L 945.333766 326.393679 
L 946.697097 323.298583 
L 948.060428 324.482002 
L 949.423759 333.676259 
L 950.78709 333.676259 
L 952.150421 316.644126 
L 953.513752 332.529252 
L 954.877083 327.586202 
L 956.240414 333.676259 
L 957.603745 320.822506 
L 958.967076 333.676259 
L 960.330407 333.676259 
L 961.693738 318.783384 
L 963.057069 325.565286 
L 964.4204 328.023156 
L 965.783731 328.077776 
L 967.147062 329.170163 
L 968.510393 333.676259 
L 969.873724 333.676259 
L 971.237055 321.532558 
L 972.600386 325.829279 
L 973.963717 327.768266 
L 975.327047 327.731853 
L 976.690378 326.985389 
L 978.053709 333.676259 
L 979.41704 333.676259 
L 980.780371 321.132016 
L 982.143702 327.995847 
L 983.507033 327.586202 
L 984.870364 327.786473 
L 986.233695 333.676259 
L 988.960357 333.676259 
L 990.323688 315.151198 
L 991.687019 325.528873 
L 993.05035 326.666776 
L 994.413681 325.219363 
L 995.777012 326.430092 
L 997.140343 333.676259 
L 998.503674 333.676259 
L 999.867005 320.012319 
L 1001.230336 326.967182 
L 1002.593667 328.378182 
L 1003.956998 333.676259 
L 1005.320329 321.978616 
L 1006.68366 333.676259 
L 1008.04699 333.676259 
L 1009.410321 319.247648 
L 1010.773652 325.893002 
L 1012.136983 327.668131 
L 1013.500314 327.294899 
L 1014.863645 327.97764 
L 1016.226976 333.676259 
L 1017.590307 333.676259 
L 1018.953638 319.129307 
L 1020.316969 328.396389 
L 1021.6803 327.950331 
L 1023.043631 333.676259 
L 1027.133624 333.676259 
L 1028.496955 317.081081 
L 1029.860286 326.02955 
L 1031.223617 327.067318 
L 1032.586948 325.665421 
L 1033.950279 327.231176 
L 1035.31361 333.676259 
L 1036.676941 333.676259 
L 1038.040272 319.821152 
L 1039.403603 327.486066 
L 1040.766933 327.740957 
L 1042.130264 324.64586 
L 1043.493595 328.378182 
L 1044.856926 333.676259 
L 1046.220257 333.676259 
L 1047.583588 319.830255 
L 1048.946919 327.513376 
L 1050.31025 328.014053 
L 1051.673581 326.229821 
L 1053.036912 325.21026 
L 1054.400243 333.676259 
L 1055.763574 333.676259 
L 1057.126905 318.683249 
L 1058.490236 323.307686 
L 1059.853567 324.573035 
L 1061.216898 321.987719 
L 1062.580229 333.676259 
L 1065.306891 333.676259 
L 1066.670222 300.413078 
L 1068.033553 319.529848 
L 1069.396884 311.072953 
L 1070.760215 307.031122 
L 1072.123546 333.676259 
L 1074.850207 333.676259 
L 1076.213538 220.404842 
L 1077.576869 310.654205 
L 1078.9402 308.378399 
L 1080.303531 312.402024 
L 1081.666862 290.499667 
L 1083.030193 333.676259 
L 1084.393524 333.676259 
L 1085.756855 187.669648 
L 1087.120186 289.680377 
L 1088.483517 279.848895 
L 1089.846848 271.36469 
L 1091.210179 278.183005 
L 1092.57351 333.676259 
L 1093.936841 333.676259 
L 1095.300172 119.104164 
L 1096.663503 353.2755 
L 1098.026834 50.8755 
L 1099.390165 277.46385 
L 1100.753496 273.158025 
L 1102.116827 333.676259 
L 1103.480158 333.676259 
L 1104.843488 189.499396 
L 1106.206819 300.795413 
L 1107.57015 288.378616 
L 1108.933481 290.308499 
L 1110.296812 293.685795 
L 1111.660143 333.676259 
L 1113.023474 333.676259 
L 1114.386805 253.476855 
L 1115.750136 314.213566 
L 1117.113467 314.268185 
L 1118.476798 316.025107 
L 1119.840129 314.523075 
L 1121.20346 333.676259 
L 1122.566791 333.676259 
L 1123.930122 307.905031 
L 1125.293453 318.146158 
L 1126.656784 319.347784 
L 1128.020115 324.809718 
L 1129.383446 324.336351 
L 1130.746777 333.676259 
L 1132.110108 333.676259 
L 1133.473439 316.707849 
L 1134.83677 329.543395 
L 1136.200101 327.085524 
L 1137.563431 330.735917 
L 1138.926762 327.686337 
L 1140.290093 333.676259 
L 1143.016755 333.676259 
L 1144.380086 324.063254 
L 1145.743417 331.100046 
L 1147.106748 324.290835 
L 1148.470079 318.455668 
L 1149.83341 333.676259 
L 1151.196741 333.676259 
L 1152.560072 312.019689 
L 1153.923403 331.263904 
L 1155.286734 329.943937 
L 1156.650065 330.217033 
L 1158.013396 328.897066 
L 1159.376727 333.676259 
L 1160.740058 333.676259 
L 1162.103389 328.951685 
L 1163.46672 330.298962 
L 1164.830051 328.487421 
L 1166.193382 327.304002 
L 1167.556713 328.687692 
L 1168.920044 333.676259 
L 1173.010036 333.676259 
L 1174.373367 184.274145 
L 1175.736698 333.676259 
L 1182.553353 333.676259 
L 1183.916684 323.225757 
L 1185.280015 333.676259 
L 1192.09667 333.676259 
L 1193.460001 323.134725 
L 1194.823332 333.676259 
L 1201.639987 333.676259 
L 1203.003317 322.679564 
L 1204.366648 333.676259 
L 1211.183303 333.676259 
L 1212.546634 323.298583 
L 1213.909965 333.676259 
L 1220.72662 333.676259 
L 1222.089951 322.479293 
L 1223.453282 333.676259 
L 1230.269937 333.676259 
L 1231.633268 316.043314 
L 1232.996599 333.676259 
L 1239.813253 333.676259 
L 1241.176584 311.573631 
L 1242.539915 333.676259 
L 1249.35657 333.676259 
L 1250.719901 304.700696 
L 1252.083232 333.676259 
L 1258.899887 333.676259 
L 1260.263218 293.949789 
L 1261.626549 333.676259 
L 1268.443203 333.676259 
L 1269.806534 277.354611 
L 1271.169865 333.676259 
L 1277.98652 333.676259 
L 1279.349851 268.296903 
L 1280.713182 333.676259 
L 1287.529837 333.676259 
L 1288.893168 272.284116 
L 1290.256499 333.676259 
L 1297.073154 333.676259 
L 1298.436485 250.572926 
L 1299.799815 333.676259 
L 1306.61647 333.676259 
L 1306.61647 333.676259 
" clip-path="url(#pfe1d874c6d)" style="fill: none; stroke: #0000ff; stroke-width: 1.5; stroke-linecap: square"/>
   </g>
   <g id="line2d_20">
    <path d="M 1066.670222 327.449301 
L 1068.033553 321.111162 
L 1069.396884 321.666739 
L 1070.760215 324.19706 
L 1072.123546 322.370943 
L 1073.486876 326.689077 
L 1074.850207 310.06086 
L 1076.213538 325.860968 
L 1077.576869 293.039912 
L 1078.9402 301.584722 
L 1080.303531 315.387893 
L 1081.666862 320.037458 
L 1083.030193 309.459845 
L 1084.393524 262.412698 
L 1085.756855 312.6045 
L 1087.120186 285.041248 
L 1088.483517 293.373402 
L 1089.846848 285.613596 
L 1091.210179 300.084151 
L 1092.57351 298.983143 
L 1093.936841 226.844882 
L 1095.300172 296.180989 
L 1096.663503 249.035765 
L 1098.026834 296.277242 
L 1099.390165 215.145872 
L 1100.753496 280.24121 
L 1102.116827 281.426761 
L 1103.480158 173.093138 
L 1104.843488 301.644076 
L 1106.206819 165.93275 
L 1107.57015 256.911842 
L 1108.933481 293.669299 
L 1110.296812 318.109142 
L 1111.660143 320.138979 
L 1113.023474 222.575677 
L 1114.386805 309.125122 
L 1115.750136 270.612387 
L 1117.113467 295.826409 
L 1118.476798 310.974802 
L 1119.840129 337.464513 
L 1121.20346 338.569814 
L 1122.566791 270.921129 
L 1123.930122 321.226453 
L 1125.293453 319.725801 
L 1126.656784 322.100057 
L 1128.020115 324.811231 
L 1129.383446 341.423114 
L 1130.746777 341.862205 
L 1132.110108 308.317707 
L 1133.473439 327.281443 
L 1134.83677 327.008345 
L 1136.200101 331.424566 
L 1137.563431 331.539856 
L 1138.926762 340.680639 
L 1140.290093 340.028234 
L 1141.653424 321.626329 
L 1143.016755 331.887302 
L 1144.380086 334.76886 
L 1145.743417 333.26594 
L 1147.106748 333.56667 
L 1148.470079 336.608299 
L 1149.83341 333.688874 
L 1151.196741 329.528358 
L 1152.560072 329.703982 
L 1153.923403 326.489327 
L 1155.286734 327.928522 
L 1156.650065 324.385354 
L 1158.013396 333.349601 
L 1159.376727 334.32626 
L 1160.740058 322.695173 
L 1162.103389 330.62027 
L 1163.46672 332.857712 
L 1164.830051 331.364768 
L 1166.193382 329.184254 
L 1167.556713 333.107696 
L 1168.920044 333.439341 
L 1170.283374 328.026536 
L 1171.646705 330.873059 
L 1173.010036 331.780658 
L 1174.373367 339.280982 
L 1175.736698 291.565968 
L 1177.100029 317.791487 
L 1178.46336 320.90431 
L 1179.826691 320.754648 
L 1181.190022 323.302513 
L 1182.553353 259.106797 
L 1183.916684 322.841323 
L 1185.280015 341.928006 
L 1186.643346 335.822183 
L 1188.006677 335.723152 
L 1189.370008 334.786143 
L 1190.733339 334.805727 
L 1192.09667 309.968525 
L 1193.460001 333.627488 
L 1194.823332 338.099018 
L 1196.186663 336.247771 
L 1197.549994 335.930065 
L 1198.913325 335.399845 
L 1200.276656 335.198094 
L 1201.639987 322.794899 
L 1203.003317 334.687647 
L 1204.366648 334.913439 
L 1208.456641 334.378279 
L 1209.819972 334.290303 
L 1211.183303 325.633558 
L 1212.546634 334.214891 
L 1213.909965 333.56627 
L 1215.273296 333.810963 
L 1219.363289 333.753639 
L 1220.72662 326.551785 
L 1222.089951 333.954875 
L 1223.453282 332.654093 
L 1224.816613 333.251066 
L 1228.906606 333.413488 
L 1230.269937 326.320542 
L 1231.633268 334.074817 
L 1232.996599 330.714014 
L 1234.35993 332.298548 
L 1238.449922 332.829618 
L 1239.813253 323.003038 
L 1241.176584 333.745862 
L 1242.539915 329.915999 
L 1243.903246 331.796704 
L 1246.629908 332.317865 
L 1247.993239 332.521749 
L 1249.35657 319.909162 
L 1250.719901 333.750222 
L 1252.083232 328.649311 
L 1253.446563 331.15701 
L 1256.173225 331.855913 
L 1257.536556 332.128976 
L 1258.899887 315.679712 
L 1260.263218 333.851031 
L 1261.626549 326.579777 
L 1262.98988 330.140158 
L 1265.716542 331.12128 
L 1267.079872 331.504492 
L 1268.443203 309.218354 
L 1269.806534 333.998083 
L 1271.169865 323.351967 
L 1272.533196 328.551458 
L 1275.259858 329.973416 
L 1276.623189 330.528777 
L 1277.98652 299.259797 
L 1279.349851 333.289092 
L 1280.713182 322.77178 
L 1282.076513 328.05053 
L 1284.803175 329.611487 
L 1286.166506 330.221127 
L 1287.529837 292.218053 
L 1288.893168 332.46279 
L 1290.256499 325.454531 
L 1291.61983 329.16472 
L 1294.346492 330.416527 
L 1295.709823 330.905426 
L 1297.073154 292.490073 
L 1298.436485 334.157769 
L 1299.799815 320.166972 
L 1301.163146 326.988137 
L 1302.526477 327.99123 
L 1305.253139 329.568643 
L 1306.61647 281.682672 
L 1306.61647 281.682672 
" clip-path="url(#pfe1d874c6d)" style="fill: none; stroke: #ffa500; stroke-width: 1.5; stroke-linecap: square"/>
   </g>
   <g id="line2d_21">
    <path d="M 1306.61647 281.682672 
L 1307.979801 330.904239 
L 1309.343132 330.377799 
L 1310.706463 330.564217 
L 1312.069794 330.468783 
L 1313.433125 330.508641 
L 1314.796456 330.490091 
L 1316.159787 292.768213 
L 1317.523118 329.271826 
L 1318.886449 329.041258 
L 1320.24978 329.122749 
L 1321.613111 329.080983 
L 1322.976442 329.098416 
L 1324.339773 329.0903 
" clip-path="url(#pfe1d874c6d)" style="fill: none; stroke: #ff0000; stroke-width: 1.5; stroke-linecap: square"/>
   </g>
   <g id="patch_3">
    <path d="M 46.0125 368.3955 
L 46.0125 35.7555 
" style="fill: none; stroke: #000000; stroke-width: 0.8; stroke-linejoin: miter; stroke-linecap: square"/>
   </g>
   <g id="patch_4">
    <path d="M 1385.2125 368.3955 
L 1385.2125 35.7555 
" style="fill: none; stroke: #000000; stroke-width: 0.8; stroke-linejoin: miter; stroke-linecap: square"/>
   </g>
   <g id="patch_5">
    <path d="M 46.0125 368.3955 
L 1385.2125 368.3955 
" style="fill: none; stroke: #000000; stroke-width: 0.8; stroke-linejoin: miter; stroke-linecap: square"/>
   </g>
   <g id="patch_6">
    <path d="M 46.0125 35.7555 
L 1385.2125 35.7555 
" style="fill: none; stroke: #000000; stroke-width: 0.8; stroke-linejoin: miter; stroke-linecap: square"/>
   </g>
   <g id="text_19">
    <!-- Daily Confirmed Cases Forecasting - Nevada -->
    <g transform="translate(582.2175 16.318125)scale(0.12 -0.12)">
     <defs>
      <path id="DejaVuSans-44" d="M 1259 4147 
L 1259 519 
L 2022 519 
Q 2988 519 3436 956 
Q 3884 1394 3884 2338 
Q 3884 3275 3436 3711 
Q 2988 4147 2022 4147 
L 1259 4147 
z
M 628 4666 
L 1925 4666 
Q 3281 4666 3915 4102 
Q 4550 3538 4550 2338 
Q 4550 1131 3912 565 
Q 3275 0 1925 0 
L 628 0 
L 628 4666 
z
" transform="scale(0.015625)"/>
      <path id="DejaVuSans-61" d="M 2194 1759 
Q 1497 1759 1228 1600 
Q 959 1441 959 1056 
Q 959 750 1161 570 
Q 1363 391 1709 391 
Q 2188 391 2477 730 
Q 2766 1069 2766 1631 
L 2766 1759 
L 2194 1759 
z
M 3341 1997 
L 3341 0 
L 2766 0 
L 2766 531 
Q 2569 213 2275 61 
Q 1981 -91 1556 -91 
Q 1019 -91 701 211 
Q 384 513 384 1019 
Q 384 1609 779 1909 
Q 1175 2209 1959 2209 
L 2766 2209 
L 2766 2266 
Q 2766 2663 2505 2880 
Q 2244 3097 1772 3097 
Q 1472 3097 1187 3025 
Q 903 2953 641 2809 
L 641 3341 
Q 956 3463 1253 3523 
Q 1550 3584 1831 3584 
Q 2591 3584 2966 3190 
Q 3341 2797 3341 1997 
z
" transform="scale(0.015625)"/>
      <path id="DejaVuSans-69" d="M 603 3500 
L 1178 3500 
L 1178 0 
L 603 0 
L 603 3500 
z
M 603 4863 
L 1178 4863 
L 1178 4134 
L 603 4134 
L 603 4863 
z
" transform="scale(0.015625)"/>
      <path id="DejaVuSans-6c" d="M 603 4863 
L 1178 4863 
L 1178 0 
L 603 0 
L 603 4863 
z
" transform="scale(0.015625)"/>
      <path id="DejaVuSans-79" d="M 2059 -325 
Q 1816 -950 1584 -1140 
Q 1353 -1331 966 -1331 
L 506 -1331 
L 506 -850 
L 844 -850 
Q 1081 -850 1212 -737 
Q 1344 -625 1503 -206 
L 1606 56 
L 191 3500 
L 800 3500 
L 1894 763 
L 2988 3500 
L 3597 3500 
L 2059 -325 
z
" transform="scale(0.015625)"/>
      <path id="DejaVuSans-20" transform="scale(0.015625)"/>
      <path id="DejaVuSans-43" d="M 4122 4306 
L 4122 3641 
Q 3803 3938 3442 4084 
Q 3081 4231 2675 4231 
Q 1875 4231 1450 3742 
Q 1025 3253 1025 2328 
Q 1025 1406 1450 917 
Q 1875 428 2675 428 
Q 3081 428 3442 575 
Q 3803 722 4122 1019 
L 4122 359 
Q 3791 134 3420 21 
Q 3050 -91 2638 -91 
Q 1578 -91 968 557 
Q 359 1206 359 2328 
Q 359 3453 968 4101 
Q 1578 4750 2638 4750 
Q 3056 4750 3426 4639 
Q 3797 4528 4122 4306 
z
" transform="scale(0.015625)"/>
      <path id="DejaVuSans-6f" d="M 1959 3097 
Q 1497 3097 1228 2736 
Q 959 2375 959 1747 
Q 959 1119 1226 758 
Q 1494 397 1959 397 
Q 2419 397 2687 759 
Q 2956 1122 2956 1747 
Q 2956 2369 2687 2733 
Q 2419 3097 1959 3097 
z
M 1959 3584 
Q 2709 3584 3137 3096 
Q 3566 2609 3566 1747 
Q 3566 888 3137 398 
Q 2709 -91 1959 -91 
Q 1206 -91 779 398 
Q 353 888 353 1747 
Q 353 2609 779 3096 
Q 1206 3584 1959 3584 
z
" transform="scale(0.015625)"/>
      <path id="DejaVuSans-6e" d="M 3513 2113 
L 3513 0 
L 2938 0 
L 2938 2094 
Q 2938 2591 2744 2837 
Q 2550 3084 2163 3084 
Q 1697 3084 1428 2787 
Q 1159 2491 1159 1978 
L 1159 0 
L 581 0 
L 581 3500 
L 1159 3500 
L 1159 2956 
Q 1366 3272 1645 3428 
Q 1925 3584 2291 3584 
Q 2894 3584 3203 3211 
Q 3513 2838 3513 2113 
z
" transform="scale(0.015625)"/>
      <path id="DejaVuSans-66" d="M 2375 4863 
L 2375 4384 
L 1825 4384 
Q 1516 4384 1395 4259 
Q 1275 4134 1275 3809 
L 1275 3500 
L 2222 3500 
L 2222 3053 
L 1275 3053 
L 1275 0 
L 697 0 
L 697 3053 
L 147 3053 
L 147 3500 
L 697 3500 
L 697 3744 
Q 697 4328 969 4595 
Q 1241 4863 1831 4863 
L 2375 4863 
z
" transform="scale(0.015625)"/>
      <path id="DejaVuSans-72" d="M 2631 2963 
Q 2534 3019 2420 3045 
Q 2306 3072 2169 3072 
Q 1681 3072 1420 2755 
Q 1159 2438 1159 1844 
L 1159 0 
L 581 0 
L 581 3500 
L 1159 3500 
L 1159 2956 
Q 1341 3275 1631 3429 
Q 1922 3584 2338 3584 
Q 2397 3584 2469 3576 
Q 2541 3569 2628 3553 
L 2631 2963 
z
" transform="scale(0.015625)"/>
      <path id="DejaVuSans-6d" d="M 3328 2828 
Q 3544 3216 3844 3400 
Q 4144 3584 4550 3584 
Q 5097 3584 5394 3201 
Q 5691 2819 5691 2113 
L 5691 0 
L 5113 0 
L 5113 2094 
Q 5113 2597 4934 2840 
Q 4756 3084 4391 3084 
Q 3944 3084 3684 2787 
Q 3425 2491 3425 1978 
L 3425 0 
L 2847 0 
L 2847 2094 
Q 2847 2600 2669 2842 
Q 2491 3084 2119 3084 
Q 1678 3084 1418 2786 
Q 1159 2488 1159 1978 
L 1159 0 
L 581 0 
L 581 3500 
L 1159 3500 
L 1159 2956 
Q 1356 3278 1631 3431 
Q 1906 3584 2284 3584 
Q 2666 3584 2933 3390 
Q 3200 3197 3328 2828 
z
" transform="scale(0.015625)"/>
      <path id="DejaVuSans-65" d="M 3597 1894 
L 3597 1613 
L 953 1613 
Q 991 1019 1311 708 
Q 1631 397 2203 397 
Q 2534 397 2845 478 
Q 3156 559 3463 722 
L 3463 178 
Q 3153 47 2828 -22 
Q 2503 -91 2169 -91 
Q 1331 -91 842 396 
Q 353 884 353 1716 
Q 353 2575 817 3079 
Q 1281 3584 2069 3584 
Q 2775 3584 3186 3129 
Q 3597 2675 3597 1894 
z
M 3022 2063 
Q 3016 2534 2758 2815 
Q 2500 3097 2075 3097 
Q 1594 3097 1305 2825 
Q 1016 2553 972 2059 
L 3022 2063 
z
" transform="scale(0.015625)"/>
      <path id="DejaVuSans-64" d="M 2906 2969 
L 2906 4863 
L 3481 4863 
L 3481 0 
L 2906 0 
L 2906 525 
Q 2725 213 2448 61 
Q 2172 -91 1784 -91 
Q 1150 -91 751 415 
Q 353 922 353 1747 
Q 353 2572 751 3078 
Q 1150 3584 1784 3584 
Q 2172 3584 2448 3432 
Q 2725 3281 2906 2969 
z
M 947 1747 
Q 947 1113 1208 752 
Q 1469 391 1925 391 
Q 2381 391 2643 752 
Q 2906 1113 2906 1747 
Q 2906 2381 2643 2742 
Q 2381 3103 1925 3103 
Q 1469 3103 1208 2742 
Q 947 2381 947 1747 
z
" transform="scale(0.015625)"/>
      <path id="DejaVuSans-73" d="M 2834 3397 
L 2834 2853 
Q 2591 2978 2328 3040 
Q 2066 3103 1784 3103 
Q 1356 3103 1142 2972 
Q 928 2841 928 2578 
Q 928 2378 1081 2264 
Q 1234 2150 1697 2047 
L 1894 2003 
Q 2506 1872 2764 1633 
Q 3022 1394 3022 966 
Q 3022 478 2636 193 
Q 2250 -91 1575 -91 
Q 1294 -91 989 -36 
Q 684 19 347 128 
L 347 722 
Q 666 556 975 473 
Q 1284 391 1588 391 
Q 1994 391 2212 530 
Q 2431 669 2431 922 
Q 2431 1156 2273 1281 
Q 2116 1406 1581 1522 
L 1381 1569 
Q 847 1681 609 1914 
Q 372 2147 372 2553 
Q 372 3047 722 3315 
Q 1072 3584 1716 3584 
Q 2034 3584 2315 3537 
Q 2597 3491 2834 3397 
z
" transform="scale(0.015625)"/>
      <path id="DejaVuSans-46" d="M 628 4666 
L 3309 4666 
L 3309 4134 
L 1259 4134 
L 1259 2759 
L 3109 2759 
L 3109 2228 
L 1259 2228 
L 1259 0 
L 628 0 
L 628 4666 
z
" transform="scale(0.015625)"/>
      <path id="DejaVuSans-63" d="M 3122 3366 
L 3122 2828 
Q 2878 2963 2633 3030 
Q 2388 3097 2138 3097 
Q 1578 3097 1268 2742 
Q 959 2388 959 1747 
Q 959 1106 1268 751 
Q 1578 397 2138 397 
Q 2388 397 2633 464 
Q 2878 531 3122 666 
L 3122 134 
Q 2881 22 2623 -34 
Q 2366 -91 2075 -91 
Q 1284 -91 818 406 
Q 353 903 353 1747 
Q 353 2603 823 3093 
Q 1294 3584 2113 3584 
Q 2378 3584 2631 3529 
Q 2884 3475 3122 3366 
z
" transform="scale(0.015625)"/>
      <path id="DejaVuSans-74" d="M 1172 4494 
L 1172 3500 
L 2356 3500 
L 2356 3053 
L 1172 3053 
L 1172 1153 
Q 1172 725 1289 603 
Q 1406 481 1766 481 
L 2356 481 
L 2356 0 
L 1766 0 
Q 1100 0 847 248 
Q 594 497 594 1153 
L 594 3053 
L 172 3053 
L 172 3500 
L 594 3500 
L 594 4494 
L 1172 4494 
z
" transform="scale(0.015625)"/>
      <path id="DejaVuSans-67" d="M 2906 1791 
Q 2906 2416 2648 2759 
Q 2391 3103 1925 3103 
Q 1463 3103 1205 2759 
Q 947 2416 947 1791 
Q 947 1169 1205 825 
Q 1463 481 1925 481 
Q 2391 481 2648 825 
Q 2906 1169 2906 1791 
z
M 3481 434 
Q 3481 -459 3084 -895 
Q 2688 -1331 1869 -1331 
Q 1566 -1331 1297 -1286 
Q 1028 -1241 775 -1147 
L 775 -588 
Q 1028 -725 1275 -790 
Q 1522 -856 1778 -856 
Q 2344 -856 2625 -561 
Q 2906 -266 2906 331 
L 2906 616 
Q 2728 306 2450 153 
Q 2172 0 1784 0 
Q 1141 0 747 490 
Q 353 981 353 1791 
Q 353 2603 747 3093 
Q 1141 3584 1784 3584 
Q 2172 3584 2450 3431 
Q 2728 3278 2906 2969 
L 2906 3500 
L 3481 3500 
L 3481 434 
z
" transform="scale(0.015625)"/>
      <path id="DejaVuSans-4e" d="M 628 4666 
L 1478 4666 
L 3547 763 
L 3547 4666 
L 4159 4666 
L 4159 0 
L 3309 0 
L 1241 3903 
L 1241 0 
L 628 0 
L 628 4666 
z
" transform="scale(0.015625)"/>
      <path id="DejaVuSans-76" d="M 191 3500 
L 800 3500 
L 1894 563 
L 2988 3500 
L 3597 3500 
L 2284 0 
L 1503 0 
L 191 3500 
z
" transform="scale(0.015625)"/>
     </defs>
     <use xlink:href="#DejaVuSans-44"/>
     <use xlink:href="#DejaVuSans-61" x="77.001953"/>
     <use xlink:href="#DejaVuSans-69" x="138.28125"/>
     <use xlink:href="#DejaVuSans-6c" x="166.064453"/>
     <use xlink:href="#DejaVuSans-79" x="193.847656"/>
     <use xlink:href="#DejaVuSans-20" x="253.027344"/>
     <use xlink:href="#DejaVuSans-43" x="284.814453"/>
     <use xlink:href="#DejaVuSans-6f" x="354.638672"/>
     <use xlink:href="#DejaVuSans-6e" x="415.820312"/>
     <use xlink:href="#DejaVuSans-66" x="479.199219"/>
     <use xlink:href="#DejaVuSans-69" x="514.404297"/>
     <use xlink:href="#DejaVuSans-72" x="542.1875"/>
     <use xlink:href="#DejaVuSans-6d" x="581.550781"/>
     <use xlink:href="#DejaVuSans-65" x="678.962891"/>
     <use xlink:href="#DejaVuSans-64" x="740.486328"/>
     <use xlink:href="#DejaVuSans-20" x="803.962891"/>
     <use xlink:href="#DejaVuSans-43" x="835.75"/>
     <use xlink:href="#DejaVuSans-61" x="905.574219"/>
     <use xlink:href="#DejaVuSans-73" x="966.853516"/>
     <use xlink:href="#DejaVuSans-65" x="1018.953125"/>
     <use xlink:href="#DejaVuSans-73" x="1080.476562"/>
     <use xlink:href="#DejaVuSans-20" x="1132.576172"/>
     <use xlink:href="#DejaVuSans-46" x="1164.363281"/>
     <use xlink:href="#DejaVuSans-6f" x="1218.257812"/>
     <use xlink:href="#DejaVuSans-72" x="1279.439453"/>
     <use xlink:href="#DejaVuSans-65" x="1318.302734"/>
     <use xlink:href="#DejaVuSans-63" x="1379.826172"/>
     <use xlink:href="#DejaVuSans-61" x="1434.806641"/>
     <use xlink:href="#DejaVuSans-73" x="1496.085938"/>
     <use xlink:href="#DejaVuSans-74" x="1548.185547"/>
     <use xlink:href="#DejaVuSans-69" x="1587.394531"/>
     <use xlink:href="#DejaVuSans-6e" x="1615.177734"/>
     <use xlink:href="#DejaVuSans-67" x="1678.556641"/>
     <use xlink:href="#DejaVuSans-20" x="1742.033203"/>
     <use xlink:href="#DejaVuSans-2d" x="1773.820312"/>
     <use xlink:href="#DejaVuSans-20" x="1809.904297"/>
     <use xlink:href="#DejaVuSans-4e" x="1841.691406"/>
     <use xlink:href="#DejaVuSans-65" x="1916.496094"/>
     <use xlink:href="#DejaVuSans-76" x="1978.019531"/>
     <use xlink:href="#DejaVuSans-61" x="2037.199219"/>
     <use xlink:href="#DejaVuSans-64" x="2098.478516"/>
     <use xlink:href="#DejaVuSans-61" x="2161.955078"/>
    </g>
    <!-- ARIMA (2, 1, 1)x(1, 0, 1, 7) (R2 = -0.321648) -->
    <g transform="translate(581.46375 29.7555)scale(0.12 -0.12)">
     <defs>
      <path id="DejaVuSans-41" d="M 2188 4044 
L 1331 1722 
L 3047 1722 
L 2188 4044 
z
M 1831 4666 
L 2547 4666 
L 4325 0 
L 3669 0 
L 3244 1197 
L 1141 1197 
L 716 0 
L 50 0 
L 1831 4666 
z
" transform="scale(0.015625)"/>
      <path id="DejaVuSans-52" d="M 2841 2188 
Q 3044 2119 3236 1894 
Q 3428 1669 3622 1275 
L 4263 0 
L 3584 0 
L 2988 1197 
Q 2756 1666 2539 1819 
Q 2322 1972 1947 1972 
L 1259 1972 
L 1259 0 
L 628 0 
L 628 4666 
L 2053 4666 
Q 2853 4666 3247 4331 
Q 3641 3997 3641 3322 
Q 3641 2881 3436 2590 
Q 3231 2300 2841 2188 
z
M 1259 4147 
L 1259 2491 
L 2053 2491 
Q 2509 2491 2742 2702 
Q 2975 2913 2975 3322 
Q 2975 3731 2742 3939 
Q 2509 4147 2053 4147 
L 1259 4147 
z
" transform="scale(0.015625)"/>
      <path id="DejaVuSans-49" d="M 628 4666 
L 1259 4666 
L 1259 0 
L 628 0 
L 628 4666 
z
" transform="scale(0.015625)"/>
      <path id="DejaVuSans-4d" d="M 628 4666 
L 1569 4666 
L 2759 1491 
L 3956 4666 
L 4897 4666 
L 4897 0 
L 4281 0 
L 4281 4097 
L 3078 897 
L 2444 897 
L 1241 4097 
L 1241 0 
L 628 0 
L 628 4666 
z
" transform="scale(0.015625)"/>
      <path id="DejaVuSans-28" d="M 1984 4856 
Q 1566 4138 1362 3434 
Q 1159 2731 1159 2009 
Q 1159 1288 1364 580 
Q 1569 -128 1984 -844 
L 1484 -844 
Q 1016 -109 783 600 
Q 550 1309 550 2009 
Q 550 2706 781 3412 
Q 1013 4119 1484 4856 
L 1984 4856 
z
" transform="scale(0.015625)"/>
      <path id="DejaVuSans-2c" d="M 750 794 
L 1409 794 
L 1409 256 
L 897 -744 
L 494 -744 
L 750 256 
L 750 794 
z
" transform="scale(0.015625)"/>
      <path id="DejaVuSans-29" d="M 513 4856 
L 1013 4856 
Q 1481 4119 1714 3412 
Q 1947 2706 1947 2009 
Q 1947 1309 1714 600 
Q 1481 -109 1013 -844 
L 513 -844 
Q 928 -128 1133 580 
Q 1338 1288 1338 2009 
Q 1338 2731 1133 3434 
Q 928 4138 513 4856 
z
" transform="scale(0.015625)"/>
      <path id="DejaVuSans-78" d="M 3513 3500 
L 2247 1797 
L 3578 0 
L 2900 0 
L 1881 1375 
L 863 0 
L 184 0 
L 1544 1831 
L 300 3500 
L 978 3500 
L 1906 2253 
L 2834 3500 
L 3513 3500 
z
" transform="scale(0.015625)"/>
      <path id="DejaVuSans-3d" d="M 678 2906 
L 4684 2906 
L 4684 2381 
L 678 2381 
L 678 2906 
z
M 678 1631 
L 4684 1631 
L 4684 1100 
L 678 1100 
L 678 1631 
z
" transform="scale(0.015625)"/>
      <path id="DejaVuSans-2e" d="M 684 794 
L 1344 794 
L 1344 0 
L 684 0 
L 684 794 
z
" transform="scale(0.015625)"/>
      <path id="DejaVuSans-36" d="M 2113 2584 
Q 1688 2584 1439 2293 
Q 1191 2003 1191 1497 
Q 1191 994 1439 701 
Q 1688 409 2113 409 
Q 2538 409 2786 701 
Q 3034 994 3034 1497 
Q 3034 2003 2786 2293 
Q 2538 2584 2113 2584 
z
M 3366 4563 
L 3366 3988 
Q 3128 4100 2886 4159 
Q 2644 4219 2406 4219 
Q 1781 4219 1451 3797 
Q 1122 3375 1075 2522 
Q 1259 2794 1537 2939 
Q 1816 3084 2150 3084 
Q 2853 3084 3261 2657 
Q 3669 2231 3669 1497 
Q 3669 778 3244 343 
Q 2819 -91 2113 -91 
Q 1303 -91 875 529 
Q 447 1150 447 2328 
Q 447 3434 972 4092 
Q 1497 4750 2381 4750 
Q 2619 4750 2861 4703 
Q 3103 4656 3366 4563 
z
" transform="scale(0.015625)"/>
      <path id="DejaVuSans-38" d="M 2034 2216 
Q 1584 2216 1326 1975 
Q 1069 1734 1069 1313 
Q 1069 891 1326 650 
Q 1584 409 2034 409 
Q 2484 409 2743 651 
Q 3003 894 3003 1313 
Q 3003 1734 2745 1975 
Q 2488 2216 2034 2216 
z
M 1403 2484 
Q 997 2584 770 2862 
Q 544 3141 544 3541 
Q 544 4100 942 4425 
Q 1341 4750 2034 4750 
Q 2731 4750 3128 4425 
Q 3525 4100 3525 3541 
Q 3525 3141 3298 2862 
Q 3072 2584 2669 2484 
Q 3125 2378 3379 2068 
Q 3634 1759 3634 1313 
Q 3634 634 3220 271 
Q 2806 -91 2034 -91 
Q 1263 -91 848 271 
Q 434 634 434 1313 
Q 434 1759 690 2068 
Q 947 2378 1403 2484 
z
M 1172 3481 
Q 1172 3119 1398 2916 
Q 1625 2713 2034 2713 
Q 2441 2713 2670 2916 
Q 2900 3119 2900 3481 
Q 2900 3844 2670 4047 
Q 2441 4250 2034 4250 
Q 1625 4250 1398 4047 
Q 1172 3844 1172 3481 
z
" transform="scale(0.015625)"/>
     </defs>
     <use xlink:href="#DejaVuSans-41"/>
     <use xlink:href="#DejaVuSans-52" x="68.408203"/>
     <use xlink:href="#DejaVuSans-49" x="137.890625"/>
     <use xlink:href="#DejaVuSans-4d" x="167.382812"/>
     <use xlink:href="#DejaVuSans-41" x="253.662109"/>
     <use xlink:href="#DejaVuSans-20" x="322.070312"/>
     <use xlink:href="#DejaVuSans-28" x="353.857422"/>
     <use xlink:href="#DejaVuSans-32" x="392.871094"/>
     <use xlink:href="#DejaVuSans-2c" x="456.494141"/>
     <use xlink:href="#DejaVuSans-20" x="488.28125"/>
     <use xlink:href="#DejaVuSans-31" x="520.068359"/>
     <use xlink:href="#DejaVuSans-2c" x="583.691406"/>
     <use xlink:href="#DejaVuSans-20" x="615.478516"/>
     <use xlink:href="#DejaVuSans-31" x="647.265625"/>
     <use xlink:href="#DejaVuSans-29" x="710.888672"/>
     <use xlink:href="#DejaVuSans-78" x="749.902344"/>
     <use xlink:href="#DejaVuSans-28" x="809.082031"/>
     <use xlink:href="#DejaVuSans-31" x="848.095703"/>
     <use xlink:href="#DejaVuSans-2c" x="911.71875"/>
     <use xlink:href="#DejaVuSans-20" x="943.505859"/>
     <use xlink:href="#DejaVuSans-30" x="975.292969"/>
     <use xlink:href="#DejaVuSans-2c" x="1038.916016"/>
     <use xlink:href="#DejaVuSans-20" x="1070.703125"/>
     <use xlink:href="#DejaVuSans-31" x="1102.490234"/>
     <use xlink:href="#DejaVuSans-2c" x="1166.113281"/>
     <use xlink:href="#DejaVuSans-20" x="1197.900391"/>
     <use xlink:href="#DejaVuSans-37" x="1229.6875"/>
     <use xlink:href="#DejaVuSans-29" x="1293.310547"/>
     <use xlink:href="#DejaVuSans-20" x="1332.324219"/>
     <use xlink:href="#DejaVuSans-28" x="1364.111328"/>
     <use xlink:href="#DejaVuSans-52" x="1403.125"/>
     <use xlink:href="#DejaVuSans-32" x="1472.607422"/>
     <use xlink:href="#DejaVuSans-20" x="1536.230469"/>
     <use xlink:href="#DejaVuSans-3d" x="1568.017578"/>
     <use xlink:href="#DejaVuSans-20" x="1651.806641"/>
     <use xlink:href="#DejaVuSans-2d" x="1683.59375"/>
     <use xlink:href="#DejaVuSans-30" x="1719.677734"/>
     <use xlink:href="#DejaVuSans-2e" x="1783.300781"/>
     <use xlink:href="#DejaVuSans-33" x="1815.087891"/>
     <use xlink:href="#DejaVuSans-32" x="1878.710938"/>
     <use xlink:href="#DejaVuSans-31" x="1942.333984"/>
     <use xlink:href="#DejaVuSans-36" x="2005.957031"/>
     <use xlink:href="#DejaVuSans-34" x="2069.580078"/>
     <use xlink:href="#DejaVuSans-38" x="2133.203125"/>
     <use xlink:href="#DejaVuSans-29" x="2196.826172"/>
    </g>
   </g>
   <g id="legend_1">
    <g id="patch_7">
     <path d="M 1281.132812 87.789875 
L 1378.2125 87.789875 
Q 1380.2125 87.789875 1380.2125 85.789875 
L 1380.2125 42.7555 
Q 1380.2125 40.7555 1378.2125 40.7555 
L 1281.132812 40.7555 
Q 1279.132812 40.7555 1279.132812 42.7555 
L 1279.132812 85.789875 
Q 1279.132812 87.789875 1281.132812 87.789875 
z
" style="fill: #ffffff; opacity: 0.8; stroke: #cccccc; stroke-linejoin: miter"/>
    </g>
    <g id="line2d_22">
     <path d="M 1283.132812 48.853937 
L 1293.132812 48.853937 
L 1303.132812 48.853937 
" style="fill: none; stroke: #0000ff; stroke-width: 1.5; stroke-linecap: square"/>
    </g>
    <g id="text_20">
     <!-- Actual Value -->
     <g transform="translate(1311.132812 52.353937)scale(0.1 -0.1)">
      <defs>
       <path id="DejaVuSans-75" d="M 544 1381 
L 544 3500 
L 1119 3500 
L 1119 1403 
Q 1119 906 1312 657 
Q 1506 409 1894 409 
Q 2359 409 2629 706 
Q 2900 1003 2900 1516 
L 2900 3500 
L 3475 3500 
L 3475 0 
L 2900 0 
L 2900 538 
Q 2691 219 2414 64 
Q 2138 -91 1772 -91 
Q 1169 -91 856 284 
Q 544 659 544 1381 
z
M 1991 3584 
L 1991 3584 
z
" transform="scale(0.015625)"/>
       <path id="DejaVuSans-56" d="M 1831 0 
L 50 4666 
L 709 4666 
L 2188 738 
L 3669 4666 
L 4325 4666 
L 2547 0 
L 1831 0 
z
" transform="scale(0.015625)"/>
      </defs>
      <use xlink:href="#DejaVuSans-41"/>
      <use xlink:href="#DejaVuSans-63" x="66.658203"/>
      <use xlink:href="#DejaVuSans-74" x="121.638672"/>
      <use xlink:href="#DejaVuSans-75" x="160.847656"/>
      <use xlink:href="#DejaVuSans-61" x="224.226562"/>
      <use xlink:href="#DejaVuSans-6c" x="285.505859"/>
      <use xlink:href="#DejaVuSans-20" x="313.289062"/>
      <use xlink:href="#DejaVuSans-56" x="345.076172"/>
      <use xlink:href="#DejaVuSans-61" x="405.734375"/>
      <use xlink:href="#DejaVuSans-6c" x="467.013672"/>
      <use xlink:href="#DejaVuSans-75" x="494.796875"/>
      <use xlink:href="#DejaVuSans-65" x="558.175781"/>
     </g>
    </g>
    <g id="line2d_23">
     <path d="M 1283.132812 63.532062 
L 1293.132812 63.532062 
L 1303.132812 63.532062 
" style="fill: none; stroke: #ffa500; stroke-width: 1.5; stroke-linecap: square"/>
    </g>
    <g id="text_21">
     <!-- Check Value -->
     <g transform="translate(1311.132812 67.032062)scale(0.1 -0.1)">
      <defs>
       <path id="DejaVuSans-68" d="M 3513 2113 
L 3513 0 
L 2938 0 
L 2938 2094 
Q 2938 2591 2744 2837 
Q 2550 3084 2163 3084 
Q 1697 3084 1428 2787 
Q 1159 2491 1159 1978 
L 1159 0 
L 581 0 
L 581 4863 
L 1159 4863 
L 1159 2956 
Q 1366 3272 1645 3428 
Q 1925 3584 2291 3584 
Q 2894 3584 3203 3211 
Q 3513 2838 3513 2113 
z
" transform="scale(0.015625)"/>
       <path id="DejaVuSans-6b" d="M 581 4863 
L 1159 4863 
L 1159 1991 
L 2875 3500 
L 3609 3500 
L 1753 1863 
L 3688 0 
L 2938 0 
L 1159 1709 
L 1159 0 
L 581 0 
L 581 4863 
z
" transform="scale(0.015625)"/>
      </defs>
      <use xlink:href="#DejaVuSans-43"/>
      <use xlink:href="#DejaVuSans-68" x="69.824219"/>
      <use xlink:href="#DejaVuSans-65" x="133.203125"/>
      <use xlink:href="#DejaVuSans-63" x="194.726562"/>
      <use xlink:href="#DejaVuSans-6b" x="249.707031"/>
      <use xlink:href="#DejaVuSans-20" x="307.617188"/>
      <use xlink:href="#DejaVuSans-56" x="339.404297"/>
      <use xlink:href="#DejaVuSans-61" x="400.0625"/>
      <use xlink:href="#DejaVuSans-6c" x="461.341797"/>
      <use xlink:href="#DejaVuSans-75" x="489.125"/>
      <use xlink:href="#DejaVuSans-65" x="552.503906"/>
     </g>
    </g>
    <g id="line2d_24">
     <path d="M 1283.132812 78.210187 
L 1293.132812 78.210187 
L 1303.132812 78.210187 
" style="fill: none; stroke: #ff0000; stroke-width: 1.5; stroke-linecap: square"/>
    </g>
    <g id="text_22">
     <!-- Predict Value -->
     <g transform="translate(1311.132812 81.710187)scale(0.1 -0.1)">
      <defs>
       <path id="DejaVuSans-50" d="M 1259 4147 
L 1259 2394 
L 2053 2394 
Q 2494 2394 2734 2622 
Q 2975 2850 2975 3272 
Q 2975 3691 2734 3919 
Q 2494 4147 2053 4147 
L 1259 4147 
z
M 628 4666 
L 2053 4666 
Q 2838 4666 3239 4311 
Q 3641 3956 3641 3272 
Q 3641 2581 3239 2228 
Q 2838 1875 2053 1875 
L 1259 1875 
L 1259 0 
L 628 0 
L 628 4666 
z
" transform="scale(0.015625)"/>
      </defs>
      <use xlink:href="#DejaVuSans-50"/>
      <use xlink:href="#DejaVuSans-72" x="58.552734"/>
      <use xlink:href="#DejaVuSans-65" x="97.416016"/>
      <use xlink:href="#DejaVuSans-64" x="158.939453"/>
      <use xlink:href="#DejaVuSans-69" x="222.416016"/>
      <use xlink:href="#DejaVuSans-63" x="250.199219"/>
      <use xlink:href="#DejaVuSans-74" x="305.179688"/>
      <use xlink:href="#DejaVuSans-20" x="344.388672"/>
      <use xlink:href="#DejaVuSans-56" x="376.175781"/>
      <use xlink:href="#DejaVuSans-61" x="436.833984"/>
      <use xlink:href="#DejaVuSans-6c" x="498.113281"/>
      <use xlink:href="#DejaVuSans-75" x="525.896484"/>
      <use xlink:href="#DejaVuSans-65" x="589.275391"/>
     </g>
    </g>
   </g>
  </g>
 </g>
 <defs>
  <clipPath id="pfe1d874c6d">
   <rect x="46.0125" y="35.7555" width="1339.2" height="332.64"/>
  </clipPath>
 </defs>
</svg>
