<?xml version="1.0" encoding="utf-8" standalone="no"?>
<!DOCTYPE svg PUBLIC "-//W3C//DTD SVG 1.1//EN"
  "http://www.w3.org/Graphics/SVG/1.1/DTD/svg11.dtd">
<svg xmlns:xlink="http://www.w3.org/1999/xlink" width="1405.1375pt" height="392.273625pt" viewBox="0 0 1405.1375 392.273625" xmlns="http://www.w3.org/2000/svg" version="1.1">
 <metadata>
  <rdf:RDF xmlns:dc="http://purl.org/dc/elements/1.1/" xmlns:cc="http://creativecommons.org/ns#" xmlns:rdf="http://www.w3.org/1999/02/22-rdf-syntax-ns#">
   <cc:Work>
    <dc:type rdf:resource="http://purl.org/dc/dcmitype/StillImage"/>
    <dc:date>2022-07-07T17:53:56.524696</dc:date>
    <dc:format>image/svg+xml</dc:format>
    <dc:creator>
     <cc:Agent>
      <dc:title>Matplotlib v3.5.2, https://matplotlib.org/</dc:title>
     </cc:Agent>
    </dc:creator>
   </cc:Work>
  </rdf:RDF>
 </metadata>
 <defs>
  <style type="text/css">*{stroke-linejoin: round; stroke-linecap: butt}</style>
 </defs>
 <g id="figure_1">
  <g id="patch_1">
   <path d="M 0 392.273625 
L 1405.1375 392.273625 
L 1405.1375 0 
L 0 0 
z
" style="fill: #ffffff"/>
  </g>
  <g id="axes_1">
   <g id="patch_2">
    <path d="M 58.7375 368.3955 
L 1397.9375 368.3955 
L 1397.9375 35.7555 
L 58.7375 35.7555 
z
" style="fill: #ffffff"/>
   </g>
   <g id="matplotlib.axis_1">
    <g id="xtick_1">
     <g id="line2d_1">
      <defs>
       <path id="m3a8b8808fc" d="M 0 0 
L 0 3.5 
" style="stroke: #000000; stroke-width: 0.8"/>
      </defs>
      <g>
       <use xlink:href="#m3a8b8808fc" x="91.484215" y="368.3955" style="stroke: #000000; stroke-width: 0.8"/>
      </g>
     </g>
     <g id="text_1">
      <!-- 2020-01 -->
      <g transform="translate(70.592808 382.993937)scale(0.1 -0.1)">
       <defs>
        <path id="DejaVuSans-32" d="M 1228 531 
L 3431 531 
L 3431 0 
L 469 0 
L 469 531 
Q 828 903 1448 1529 
Q 2069 2156 2228 2338 
Q 2531 2678 2651 2914 
Q 2772 3150 2772 3378 
Q 2772 3750 2511 3984 
Q 2250 4219 1831 4219 
Q 1534 4219 1204 4116 
Q 875 4013 500 3803 
L 500 4441 
Q 881 4594 1212 4672 
Q 1544 4750 1819 4750 
Q 2544 4750 2975 4387 
Q 3406 4025 3406 3419 
Q 3406 3131 3298 2873 
Q 3191 2616 2906 2266 
Q 2828 2175 2409 1742 
Q 1991 1309 1228 531 
z
" transform="scale(0.015625)"/>
        <path id="DejaVuSans-30" d="M 2034 4250 
Q 1547 4250 1301 3770 
Q 1056 3291 1056 2328 
Q 1056 1369 1301 889 
Q 1547 409 2034 409 
Q 2525 409 2770 889 
Q 3016 1369 3016 2328 
Q 3016 3291 2770 3770 
Q 2525 4250 2034 4250 
z
M 2034 4750 
Q 2819 4750 3233 4129 
Q 3647 3509 3647 2328 
Q 3647 1150 3233 529 
Q 2819 -91 2034 -91 
Q 1250 -91 836 529 
Q 422 1150 422 2328 
Q 422 3509 836 4129 
Q 1250 4750 2034 4750 
z
" transform="scale(0.015625)"/>
        <path id="DejaVuSans-2d" d="M 313 2009 
L 1997 2009 
L 1997 1497 
L 313 1497 
L 313 2009 
z
" transform="scale(0.015625)"/>
        <path id="DejaVuSans-31" d="M 794 531 
L 1825 531 
L 1825 4091 
L 703 3866 
L 703 4441 
L 1819 4666 
L 2450 4666 
L 2450 531 
L 3481 531 
L 3481 0 
L 794 0 
L 794 531 
z
" transform="scale(0.015625)"/>
       </defs>
       <use xlink:href="#DejaVuSans-32"/>
       <use xlink:href="#DejaVuSans-30" x="63.623047"/>
       <use xlink:href="#DejaVuSans-32" x="127.246094"/>
       <use xlink:href="#DejaVuSans-30" x="190.869141"/>
       <use xlink:href="#DejaVuSans-2d" x="254.492188"/>
       <use xlink:href="#DejaVuSans-30" x="290.576172"/>
       <use xlink:href="#DejaVuSans-31" x="354.199219"/>
      </g>
     </g>
    </g>
    <g id="xtick_2">
     <g id="line2d_2">
      <g>
       <use xlink:href="#m3a8b8808fc" x="213.363603" y="368.3955" style="stroke: #000000; stroke-width: 0.8"/>
      </g>
     </g>
     <g id="text_2">
      <!-- 2020-04 -->
      <g transform="translate(192.472196 382.993937)scale(0.1 -0.1)">
       <defs>
        <path id="DejaVuSans-34" d="M 2419 4116 
L 825 1625 
L 2419 1625 
L 2419 4116 
z
M 2253 4666 
L 3047 4666 
L 3047 1625 
L 3713 1625 
L 3713 1100 
L 3047 1100 
L 3047 0 
L 2419 0 
L 2419 1100 
L 313 1100 
L 313 1709 
L 2253 4666 
z
" transform="scale(0.015625)"/>
       </defs>
       <use xlink:href="#DejaVuSans-32"/>
       <use xlink:href="#DejaVuSans-30" x="63.623047"/>
       <use xlink:href="#DejaVuSans-32" x="127.246094"/>
       <use xlink:href="#DejaVuSans-30" x="190.869141"/>
       <use xlink:href="#DejaVuSans-2d" x="254.492188"/>
       <use xlink:href="#DejaVuSans-30" x="290.576172"/>
       <use xlink:href="#DejaVuSans-34" x="354.199219"/>
      </g>
     </g>
    </g>
    <g id="xtick_3">
     <g id="line2d_3">
      <g>
       <use xlink:href="#m3a8b8808fc" x="335.242991" y="368.3955" style="stroke: #000000; stroke-width: 0.8"/>
      </g>
     </g>
     <g id="text_3">
      <!-- 2020-07 -->
      <g transform="translate(314.351584 382.993937)scale(0.1 -0.1)">
       <defs>
        <path id="DejaVuSans-37" d="M 525 4666 
L 3525 4666 
L 3525 4397 
L 1831 0 
L 1172 0 
L 2766 4134 
L 525 4134 
L 525 4666 
z
" transform="scale(0.015625)"/>
       </defs>
       <use xlink:href="#DejaVuSans-32"/>
       <use xlink:href="#DejaVuSans-30" x="63.623047"/>
       <use xlink:href="#DejaVuSans-32" x="127.246094"/>
       <use xlink:href="#DejaVuSans-30" x="190.869141"/>
       <use xlink:href="#DejaVuSans-2d" x="254.492188"/>
       <use xlink:href="#DejaVuSans-30" x="290.576172"/>
       <use xlink:href="#DejaVuSans-37" x="354.199219"/>
      </g>
     </g>
    </g>
    <g id="xtick_4">
     <g id="line2d_4">
      <g>
       <use xlink:href="#m3a8b8808fc" x="458.461712" y="368.3955" style="stroke: #000000; stroke-width: 0.8"/>
      </g>
     </g>
     <g id="text_4">
      <!-- 2020-10 -->
      <g transform="translate(437.570306 382.993937)scale(0.1 -0.1)">
       <use xlink:href="#DejaVuSans-32"/>
       <use xlink:href="#DejaVuSans-30" x="63.623047"/>
       <use xlink:href="#DejaVuSans-32" x="127.246094"/>
       <use xlink:href="#DejaVuSans-30" x="190.869141"/>
       <use xlink:href="#DejaVuSans-2d" x="254.492188"/>
       <use xlink:href="#DejaVuSans-31" x="290.576172"/>
       <use xlink:href="#DejaVuSans-30" x="354.199219"/>
      </g>
     </g>
    </g>
    <g id="xtick_5">
     <g id="line2d_5">
      <g>
       <use xlink:href="#m3a8b8808fc" x="581.680434" y="368.3955" style="stroke: #000000; stroke-width: 0.8"/>
      </g>
     </g>
     <g id="text_5">
      <!-- 2021-01 -->
      <g transform="translate(560.789028 382.993937)scale(0.1 -0.1)">
       <use xlink:href="#DejaVuSans-32"/>
       <use xlink:href="#DejaVuSans-30" x="63.623047"/>
       <use xlink:href="#DejaVuSans-32" x="127.246094"/>
       <use xlink:href="#DejaVuSans-31" x="190.869141"/>
       <use xlink:href="#DejaVuSans-2d" x="254.492188"/>
       <use xlink:href="#DejaVuSans-30" x="290.576172"/>
       <use xlink:href="#DejaVuSans-31" x="354.199219"/>
      </g>
     </g>
    </g>
    <g id="xtick_6">
     <g id="line2d_6">
      <g>
       <use xlink:href="#m3a8b8808fc" x="702.220488" y="368.3955" style="stroke: #000000; stroke-width: 0.8"/>
      </g>
     </g>
     <g id="text_6">
      <!-- 2021-04 -->
      <g transform="translate(681.329082 382.993937)scale(0.1 -0.1)">
       <use xlink:href="#DejaVuSans-32"/>
       <use xlink:href="#DejaVuSans-30" x="63.623047"/>
       <use xlink:href="#DejaVuSans-32" x="127.246094"/>
       <use xlink:href="#DejaVuSans-31" x="190.869141"/>
       <use xlink:href="#DejaVuSans-2d" x="254.492188"/>
       <use xlink:href="#DejaVuSans-30" x="290.576172"/>
       <use xlink:href="#DejaVuSans-34" x="354.199219"/>
      </g>
     </g>
    </g>
    <g id="xtick_7">
     <g id="line2d_7">
      <g>
       <use xlink:href="#m3a8b8808fc" x="824.099876" y="368.3955" style="stroke: #000000; stroke-width: 0.8"/>
      </g>
     </g>
     <g id="text_7">
      <!-- 2021-07 -->
      <g transform="translate(803.20847 382.993937)scale(0.1 -0.1)">
       <use xlink:href="#DejaVuSans-32"/>
       <use xlink:href="#DejaVuSans-30" x="63.623047"/>
       <use xlink:href="#DejaVuSans-32" x="127.246094"/>
       <use xlink:href="#DejaVuSans-31" x="190.869141"/>
       <use xlink:href="#DejaVuSans-2d" x="254.492188"/>
       <use xlink:href="#DejaVuSans-30" x="290.576172"/>
       <use xlink:href="#DejaVuSans-37" x="354.199219"/>
      </g>
     </g>
    </g>
    <g id="xtick_8">
     <g id="line2d_8">
      <g>
       <use xlink:href="#m3a8b8808fc" x="947.318598" y="368.3955" style="stroke: #000000; stroke-width: 0.8"/>
      </g>
     </g>
     <g id="text_8">
      <!-- 2021-10 -->
      <g transform="translate(926.427192 382.993937)scale(0.1 -0.1)">
       <use xlink:href="#DejaVuSans-32"/>
       <use xlink:href="#DejaVuSans-30" x="63.623047"/>
       <use xlink:href="#DejaVuSans-32" x="127.246094"/>
       <use xlink:href="#DejaVuSans-31" x="190.869141"/>
       <use xlink:href="#DejaVuSans-2d" x="254.492188"/>
       <use xlink:href="#DejaVuSans-31" x="290.576172"/>
       <use xlink:href="#DejaVuSans-30" x="354.199219"/>
      </g>
     </g>
    </g>
    <g id="xtick_9">
     <g id="line2d_9">
      <g>
       <use xlink:href="#m3a8b8808fc" x="1070.53732" y="368.3955" style="stroke: #000000; stroke-width: 0.8"/>
      </g>
     </g>
     <g id="text_9">
      <!-- 2022-01 -->
      <g transform="translate(1049.645914 382.993937)scale(0.1 -0.1)">
       <use xlink:href="#DejaVuSans-32"/>
       <use xlink:href="#DejaVuSans-30" x="63.623047"/>
       <use xlink:href="#DejaVuSans-32" x="127.246094"/>
       <use xlink:href="#DejaVuSans-32" x="190.869141"/>
       <use xlink:href="#DejaVuSans-2d" x="254.492188"/>
       <use xlink:href="#DejaVuSans-30" x="290.576172"/>
       <use xlink:href="#DejaVuSans-31" x="354.199219"/>
      </g>
     </g>
    </g>
    <g id="xtick_10">
     <g id="line2d_10">
      <g>
       <use xlink:href="#m3a8b8808fc" x="1191.077374" y="368.3955" style="stroke: #000000; stroke-width: 0.8"/>
      </g>
     </g>
     <g id="text_10">
      <!-- 2022-04 -->
      <g transform="translate(1170.185968 382.993937)scale(0.1 -0.1)">
       <use xlink:href="#DejaVuSans-32"/>
       <use xlink:href="#DejaVuSans-30" x="63.623047"/>
       <use xlink:href="#DejaVuSans-32" x="127.246094"/>
       <use xlink:href="#DejaVuSans-32" x="190.869141"/>
       <use xlink:href="#DejaVuSans-2d" x="254.492188"/>
       <use xlink:href="#DejaVuSans-30" x="290.576172"/>
       <use xlink:href="#DejaVuSans-34" x="354.199219"/>
      </g>
     </g>
    </g>
    <g id="xtick_11">
     <g id="line2d_11">
      <g>
       <use xlink:href="#m3a8b8808fc" x="1312.956762" y="368.3955" style="stroke: #000000; stroke-width: 0.8"/>
      </g>
     </g>
     <g id="text_11">
      <!-- 2022-07 -->
      <g transform="translate(1292.065356 382.993937)scale(0.1 -0.1)">
       <use xlink:href="#DejaVuSans-32"/>
       <use xlink:href="#DejaVuSans-30" x="63.623047"/>
       <use xlink:href="#DejaVuSans-32" x="127.246094"/>
       <use xlink:href="#DejaVuSans-32" x="190.869141"/>
       <use xlink:href="#DejaVuSans-2d" x="254.492188"/>
       <use xlink:href="#DejaVuSans-30" x="290.576172"/>
       <use xlink:href="#DejaVuSans-37" x="354.199219"/>
      </g>
     </g>
    </g>
   </g>
   <g id="matplotlib.axis_2">
    <g id="ytick_1">
     <g id="line2d_12">
      <defs>
       <path id="mc66afdc0fe" d="M 0 0 
L -3.5 0 
" style="stroke: #000000; stroke-width: 0.8"/>
      </defs>
      <g>
       <use xlink:href="#mc66afdc0fe" x="58.7375" y="353.2755" style="stroke: #000000; stroke-width: 0.8"/>
      </g>
     </g>
     <g id="text_12">
      <!-- 0 -->
      <g transform="translate(45.375 357.074719)scale(0.1 -0.1)">
       <use xlink:href="#DejaVuSans-30"/>
      </g>
     </g>
    </g>
    <g id="ytick_2">
     <g id="line2d_13">
      <g>
       <use xlink:href="#mc66afdc0fe" x="58.7375" y="301.971041" style="stroke: #000000; stroke-width: 0.8"/>
      </g>
     </g>
     <g id="text_13">
      <!-- 500000 -->
      <g transform="translate(13.5625 305.77026)scale(0.1 -0.1)">
       <defs>
        <path id="DejaVuSans-35" d="M 691 4666 
L 3169 4666 
L 3169 4134 
L 1269 4134 
L 1269 2991 
Q 1406 3038 1543 3061 
Q 1681 3084 1819 3084 
Q 2600 3084 3056 2656 
Q 3513 2228 3513 1497 
Q 3513 744 3044 326 
Q 2575 -91 1722 -91 
Q 1428 -91 1123 -41 
Q 819 9 494 109 
L 494 744 
Q 775 591 1075 516 
Q 1375 441 1709 441 
Q 2250 441 2565 725 
Q 2881 1009 2881 1497 
Q 2881 1984 2565 2268 
Q 2250 2553 1709 2553 
Q 1456 2553 1204 2497 
Q 953 2441 691 2322 
L 691 4666 
z
" transform="scale(0.015625)"/>
       </defs>
       <use xlink:href="#DejaVuSans-35"/>
       <use xlink:href="#DejaVuSans-30" x="63.623047"/>
       <use xlink:href="#DejaVuSans-30" x="127.246094"/>
       <use xlink:href="#DejaVuSans-30" x="190.869141"/>
       <use xlink:href="#DejaVuSans-30" x="254.492188"/>
       <use xlink:href="#DejaVuSans-30" x="318.115234"/>
      </g>
     </g>
    </g>
    <g id="ytick_3">
     <g id="line2d_14">
      <g>
       <use xlink:href="#mc66afdc0fe" x="58.7375" y="250.666583" style="stroke: #000000; stroke-width: 0.8"/>
      </g>
     </g>
     <g id="text_14">
      <!-- 1000000 -->
      <g transform="translate(7.2 254.465802)scale(0.1 -0.1)">
       <use xlink:href="#DejaVuSans-31"/>
       <use xlink:href="#DejaVuSans-30" x="63.623047"/>
       <use xlink:href="#DejaVuSans-30" x="127.246094"/>
       <use xlink:href="#DejaVuSans-30" x="190.869141"/>
       <use xlink:href="#DejaVuSans-30" x="254.492188"/>
       <use xlink:href="#DejaVuSans-30" x="318.115234"/>
       <use xlink:href="#DejaVuSans-30" x="381.738281"/>
      </g>
     </g>
    </g>
    <g id="ytick_4">
     <g id="line2d_15">
      <g>
       <use xlink:href="#mc66afdc0fe" x="58.7375" y="199.362124" style="stroke: #000000; stroke-width: 0.8"/>
      </g>
     </g>
     <g id="text_15">
      <!-- 1500000 -->
      <g transform="translate(7.2 203.161343)scale(0.1 -0.1)">
       <use xlink:href="#DejaVuSans-31"/>
       <use xlink:href="#DejaVuSans-35" x="63.623047"/>
       <use xlink:href="#DejaVuSans-30" x="127.246094"/>
       <use xlink:href="#DejaVuSans-30" x="190.869141"/>
       <use xlink:href="#DejaVuSans-30" x="254.492188"/>
       <use xlink:href="#DejaVuSans-30" x="318.115234"/>
       <use xlink:href="#DejaVuSans-30" x="381.738281"/>
      </g>
     </g>
    </g>
    <g id="ytick_5">
     <g id="line2d_16">
      <g>
       <use xlink:href="#mc66afdc0fe" x="58.7375" y="148.057666" style="stroke: #000000; stroke-width: 0.8"/>
      </g>
     </g>
     <g id="text_16">
      <!-- 2000000 -->
      <g transform="translate(7.2 151.856885)scale(0.1 -0.1)">
       <use xlink:href="#DejaVuSans-32"/>
       <use xlink:href="#DejaVuSans-30" x="63.623047"/>
       <use xlink:href="#DejaVuSans-30" x="127.246094"/>
       <use xlink:href="#DejaVuSans-30" x="190.869141"/>
       <use xlink:href="#DejaVuSans-30" x="254.492188"/>
       <use xlink:href="#DejaVuSans-30" x="318.115234"/>
       <use xlink:href="#DejaVuSans-30" x="381.738281"/>
      </g>
     </g>
    </g>
    <g id="ytick_6">
     <g id="line2d_17">
      <g>
       <use xlink:href="#mc66afdc0fe" x="58.7375" y="96.753207" style="stroke: #000000; stroke-width: 0.8"/>
      </g>
     </g>
     <g id="text_17">
      <!-- 2500000 -->
      <g transform="translate(7.2 100.552426)scale(0.1 -0.1)">
       <use xlink:href="#DejaVuSans-32"/>
       <use xlink:href="#DejaVuSans-35" x="63.623047"/>
       <use xlink:href="#DejaVuSans-30" x="127.246094"/>
       <use xlink:href="#DejaVuSans-30" x="190.869141"/>
       <use xlink:href="#DejaVuSans-30" x="254.492188"/>
       <use xlink:href="#DejaVuSans-30" x="318.115234"/>
       <use xlink:href="#DejaVuSans-30" x="381.738281"/>
      </g>
     </g>
    </g>
    <g id="ytick_7">
     <g id="line2d_18">
      <g>
       <use xlink:href="#mc66afdc0fe" x="58.7375" y="45.448749" style="stroke: #000000; stroke-width: 0.8"/>
      </g>
     </g>
     <g id="text_18">
      <!-- 3000000 -->
      <g transform="translate(7.2 49.247968)scale(0.1 -0.1)">
       <defs>
        <path id="DejaVuSans-33" d="M 2597 2516 
Q 3050 2419 3304 2112 
Q 3559 1806 3559 1356 
Q 3559 666 3084 287 
Q 2609 -91 1734 -91 
Q 1441 -91 1130 -33 
Q 819 25 488 141 
L 488 750 
Q 750 597 1062 519 
Q 1375 441 1716 441 
Q 2309 441 2620 675 
Q 2931 909 2931 1356 
Q 2931 1769 2642 2001 
Q 2353 2234 1838 2234 
L 1294 2234 
L 1294 2753 
L 1863 2753 
Q 2328 2753 2575 2939 
Q 2822 3125 2822 3475 
Q 2822 3834 2567 4026 
Q 2313 4219 1838 4219 
Q 1578 4219 1281 4162 
Q 984 4106 628 3988 
L 628 4550 
Q 988 4650 1302 4700 
Q 1616 4750 1894 4750 
Q 2613 4750 3031 4423 
Q 3450 4097 3450 3541 
Q 3450 3153 3228 2886 
Q 3006 2619 2597 2516 
z
" transform="scale(0.015625)"/>
       </defs>
       <use xlink:href="#DejaVuSans-33"/>
       <use xlink:href="#DejaVuSans-30" x="63.623047"/>
       <use xlink:href="#DejaVuSans-30" x="127.246094"/>
       <use xlink:href="#DejaVuSans-30" x="190.869141"/>
       <use xlink:href="#DejaVuSans-30" x="254.492188"/>
       <use xlink:href="#DejaVuSans-30" x="318.115234"/>
       <use xlink:href="#DejaVuSans-30" x="381.738281"/>
      </g>
     </g>
    </g>
   </g>
   <g id="line2d_19">
    <path d="M 119.610227 353.2755 
L 206.666933 353.176688 
L 222.73894 352.895847 
L 252.204287 352.134489 
L 280.330299 351.03842 
L 284.348301 350.825609 
L 289.705637 350.530814 
L 295.062973 350.181533 
L 299.080974 349.842821 
L 304.43831 349.410838 
L 307.116978 349.191152 
L 312.474314 348.618492 
L 317.831649 348.123096 
L 323.188985 347.6159 
L 328.546321 346.995116 
L 344.618328 345.045341 
L 375.423009 340.379817 
L 383.459012 339.415498 
L 386.13768 339.092177 
L 390.155682 338.732123 
L 395.513018 338.087328 
L 399.531019 337.725939 
L 404.888355 336.972072 
L 408.906357 336.55076 
L 412.924359 335.967223 
L 416.94236 335.536573 
L 420.960362 335.023734 
L 423.63903 334.734582 
L 428.996366 334.328866 
L 433.014368 333.888058 
L 437.032369 333.53416 
L 442.389705 332.93164 
L 446.407707 332.608935 
L 451.765043 331.956035 
L 457.122378 331.662779 
L 461.14038 331.021062 
L 462.479714 330.958471 
L 465.158382 330.572456 
L 469.176384 329.939051 
L 471.855052 329.524511 
L 474.53372 329.215659 
L 477.212387 328.758228 
L 481.230389 328.030833 
L 483.909057 327.751532 
L 486.587725 327.316265 
L 490.605727 326.587023 
L 493.284395 326.198751 
L 495.963063 325.671547 
L 499.981064 324.884434 
L 502.659732 324.50632 
L 506.677734 323.665747 
L 509.356402 323.176303 
L 512.03507 322.755298 
L 514.713738 322.138414 
L 516.053072 321.955872 
L 518.731739 321.237405 
L 520.071073 321.03506 
L 524.089075 319.91139 
L 529.446411 318.471171 
L 532.125079 317.720895 
L 533.464413 317.720895 
L 534.803747 316.899202 
L 541.500416 315.146642 
L 548.197086 312.297398 
L 549.53642 311.818214 
L 556.23309 308.47696 
L 560.251091 306.909198 
L 561.590425 306.315503 
L 562.929759 305.449073 
L 566.947761 303.649005 
L 569.626429 302.534262 
L 572.305097 302.534262 
L 573.644431 300.541699 
L 576.323099 299.845395 
L 577.662432 299.4798 
L 579.001766 298.602391 
L 580.3411 297.913372 
L 581.680434 297.913372 
L 583.019768 295.974884 
L 584.359102 295.30926 
L 587.03777 294.23474 
L 588.377104 293.521402 
L 593.73444 289.330854 
L 597.752441 287.495694 
L 600.431109 285.570032 
L 603.109777 284.051728 
L 604.449111 284.051728 
L 605.788445 283.040004 
L 608.467113 281.644318 
L 611.145781 280.144483 
L 612.485115 279.518979 
L 616.503117 278.062138 
L 620.521118 276.049259 
L 623.199786 275.159126 
L 624.53912 274.858893 
L 625.878454 273.619479 
L 628.557122 272.486472 
L 632.575124 271.262347 
L 635.253792 270.583179 
L 639.271793 269.267117 
L 641.950461 268.689634 
L 643.289795 268.485647 
L 651.325799 266.594565 
L 652.665133 266.439215 
L 656.683135 265.452015 
L 658.022468 265.180819 
L 659.361802 265.180819 
L 660.701136 264.80917 
L 663.379804 264.461941 
L 667.397806 263.782465 
L 668.73714 263.782465 
L 670.076474 263.502343 
L 672.755142 263.209087 
L 675.43381 262.792597 
L 678.112477 262.70107 
L 679.451811 262.341631 
L 682.130479 262.024364 
L 686.148481 261.413533 
L 687.487815 261.413533 
L 688.827149 261.122226 
L 691.505817 260.797982 
L 694.184485 260.360253 
L 696.863153 260.360253 
L 698.202486 259.815912 
L 700.881154 259.477405 
L 702.220488 259.269417 
L 706.23849 259.269417 
L 707.577824 258.612617 
L 710.256492 258.381747 
L 712.93516 257.910157 
L 715.613828 257.910157 
L 716.953162 257.329903 
L 719.631829 256.94789 
L 722.310497 256.444183 
L 724.989165 256.444183 
L 726.328499 255.862083 
L 729.007167 255.537531 
L 731.685835 255.085744 
L 734.364503 255.085744 
L 735.703837 254.501796 
L 738.382505 254.202897 
L 741.061172 253.770297 
L 743.73984 253.770297 
L 745.079174 253.301683 
L 747.757842 253.050393 
L 750.43651 252.667662 
L 753.115178 252.667662 
L 754.454512 252.282571 
L 757.13318 252.057652 
L 759.811847 251.760599 
L 762.490515 251.760599 
L 763.829849 251.491969 
L 767.847851 251.206921 
L 770.526519 251.10226 
L 771.865853 251.10226 
L 773.205187 250.853742 
L 805.349201 249.651473 
L 824.099876 249.231597 
L 828.117878 249.193221 
L 829.457212 249.193221 
L 832.13588 248.997957 
L 836.153882 248.877596 
L 837.493216 248.877596 
L 838.83255 248.686436 
L 842.850551 248.42427 
L 845.529219 248.319301 
L 846.868553 248.319301 
L 848.207887 248.016605 
L 850.886555 247.780091 
L 853.565223 247.390383 
L 856.243891 247.390383 
L 857.583225 246.83178 
L 860.261892 246.397129 
L 862.94056 245.733557 
L 865.619228 245.733557 
L 866.958562 244.84876 
L 868.297896 244.624252 
L 870.976564 243.829648 
L 872.315898 243.367292 
L 874.994566 243.367292 
L 876.3339 241.745969 
L 877.673234 241.439681 
L 880.351901 240.325041 
L 881.691235 239.644949 
L 884.369903 239.644949 
L 885.709237 238.10602 
L 887.048571 237.739193 
L 888.387905 237.199881 
L 891.066573 235.799167 
L 893.745241 235.799167 
L 895.084575 234.062613 
L 896.423909 233.588252 
L 897.763243 232.95926 
L 900.44191 231.243125 
L 903.120578 231.243125 
L 904.459912 229.292838 
L 905.799246 228.743777 
L 908.477914 227.189355 
L 909.817248 226.307944 
L 913.83525 226.307944 
L 915.174584 223.723431 
L 916.513918 223.235833 
L 919.192586 221.987391 
L 921.871253 221.987391 
L 923.210587 219.536064 
L 924.549921 219.047645 
L 928.567923 216.755157 
L 931.246591 216.755157 
L 932.585925 215.131473 
L 933.925259 214.681944 
L 937.943261 212.830263 
L 940.621928 212.830263 
L 941.961262 211.446274 
L 943.300596 211.090324 
L 947.318598 209.60075 
L 949.997266 209.60075 
L 951.3366 208.504374 
L 954.015268 207.857835 
L 956.693936 207.051431 
L 959.372604 207.051431 
L 960.711937 206.077775 
L 963.390605 205.525021 
L 966.069273 204.812607 
L 968.747941 204.812607 
L 970.087275 204.10122 
L 971.426609 203.960235 
L 975.444611 203.116585 
L 978.123279 203.116585 
L 979.462613 202.527096 
L 982.14128 202.167965 
L 984.819948 201.669389 
L 987.498616 201.669389 
L 988.83795 201.161474 
L 991.516618 200.854571 
L 994.195286 200.423819 
L 996.873954 200.423819 
L 998.213288 199.949253 
L 1002.231289 199.600485 
L 1003.570623 199.177326 
L 1006.249291 199.177326 
L 1007.588625 198.687368 
L 1010.267293 198.327211 
L 1012.945961 197.835406 
L 1015.624629 197.835406 
L 1016.963963 197.261617 
L 1020.981964 196.891507 
L 1024.999966 196.891507 
L 1026.3393 196.052987 
L 1027.678634 195.872908 
L 1030.357302 195.173218 
L 1031.696636 194.791513 
L 1034.375304 194.791513 
L 1035.714638 193.91236 
L 1037.053972 193.69647 
L 1039.73264 192.932342 
L 1041.071973 192.562334 
L 1043.750641 192.562334 
L 1045.089975 191.643676 
L 1046.429309 191.445436 
L 1050.447311 190.22439 
L 1053.125979 190.22439 
L 1054.465313 189.142789 
L 1055.804647 188.845839 
L 1057.143981 188.344184 
L 1063.84065 188.344184 
L 1065.179984 185.043563 
L 1066.519318 184.081399 
L 1069.197986 180.208426 
L 1071.876654 180.208426 
L 1073.215988 175.498574 
L 1074.555322 174.444165 
L 1075.894656 172.312977 
L 1077.23399 169.820402 
L 1078.573324 166.898715 
L 1081.251991 166.898715 
L 1082.591325 159.595012 
L 1083.930659 157.778322 
L 1085.269993 155.167438 
L 1086.609327 150.567172 
L 1087.948661 146.89798 
L 1091.966663 146.89798 
L 1093.305997 134.677155 
L 1094.645331 132.894428 
L 1095.984665 129.859256 
L 1097.323999 126.227414 
L 1100.002667 126.227414 
L 1101.342 118.282713 
L 1102.681334 116.947053 
L 1104.020668 114.865528 
L 1105.360002 111.915214 
L 1106.699336 109.593072 
L 1109.378004 109.593072 
L 1110.717338 104.777327 
L 1112.056672 103.878781 
L 1113.396006 102.6131 
L 1114.73534 101.077455 
L 1116.074674 99.806643 
L 1118.753342 99.806643 
L 1120.092676 97.337155 
L 1121.432009 96.860228 
L 1122.771343 95.781501 
L 1125.450011 94.112669 
L 1128.128679 94.112669 
L 1129.468013 92.61068 
L 1130.807347 92.314346 
L 1133.486015 91.11772 
L 1134.825349 90.617912 
L 1137.504017 90.617912 
L 1138.843351 89.603315 
L 1140.182685 89.427238 
L 1142.861352 88.696663 
L 1144.200686 88.195213 
L 1146.879354 88.195213 
L 1148.218688 87.567965 
L 1150.897356 87.211502 
L 1153.576024 86.696097 
L 1156.254692 86.696097 
L 1157.594026 86.262061 
L 1160.272694 85.982247 
L 1162.951361 85.609571 
L 1165.630029 85.609571 
L 1166.969363 85.288405 
L 1169.648031 85.221812 
L 1172.326699 84.761919 
L 1175.005367 84.761919 
L 1176.344701 84.504576 
L 1179.023369 84.256159 
L 1181.702036 83.998406 
L 1184.380704 83.998406 
L 1185.720038 83.763329 
L 1189.73804 83.479513 
L 1191.077374 83.362128 
L 1193.756042 83.362128 
L 1195.095376 83.151677 
L 1200.452712 83.002894 
L 1205.810047 83.002894 
L 1207.149381 82.465839 
L 1215.185385 82.465839 
L 1216.524719 81.603001 
L 1224.560722 81.603001 
L 1225.900056 80.412224 
L 1233.93606 80.412224 
L 1235.275394 78.968414 
L 1243.311397 78.968414 
L 1244.650731 77.072304 
L 1252.686735 77.072304 
L 1254.026069 74.610408 
L 1262.062072 74.610408 
L 1263.401406 71.620692 
L 1271.43741 71.620692 
L 1272.776744 68.768677 
L 1280.812748 68.768677 
L 1282.152081 66.020298 
L 1290.188085 66.020298 
L 1291.527419 63.510073 
L 1299.563423 63.510073 
L 1300.902757 61.550448 
L 1308.93876 61.550448 
L 1310.278094 59.073366 
L 1318.314098 59.073366 
L 1319.653432 56.460738 
L 1319.653432 56.460738 
" clip-path="url(#pf773dabd18)" style="fill: none; stroke: #0000ff; stroke-width: 1.5; stroke-linecap: square"/>
   </g>
   <g id="line2d_20">
    <path d="M 1079.912658 165.301044 
L 1081.251991 163.733671 
L 1082.591325 158.488456 
L 1083.930659 154.955319 
L 1085.269993 152.405176 
L 1086.609327 147.957612 
L 1087.948661 145.147397 
L 1089.287995 144.639746 
L 1090.627329 141.520034 
L 1091.966663 143.492083 
L 1093.305997 134.642648 
L 1094.645331 128.059458 
L 1095.984665 125.698975 
L 1097.323999 124.439492 
L 1098.663333 124.156835 
L 1100.002667 122.686402 
L 1101.342 113.133548 
L 1102.681334 112.546047 
L 1104.020668 111.434686 
L 1105.360002 108.481205 
L 1106.699336 108.383028 
L 1108.03867 108.564342 
L 1110.717338 101.295556 
L 1112.056672 101.241981 
L 1113.396006 100.107472 
L 1114.73534 98.735794 
L 1116.074674 99.595331 
L 1117.414008 99.878243 
L 1118.753342 96.288987 
L 1120.092676 95.334858 
L 1121.432009 95.67898 
L 1122.771343 94.577099 
L 1124.110677 93.684027 
L 1125.450011 94.470362 
L 1126.789345 94.655232 
L 1128.128679 91.86252 
L 1129.468013 91.6496 
L 1130.807347 91.727869 
L 1132.146681 91.074948 
L 1133.486015 90.564224 
L 1134.825349 91.124046 
L 1136.164683 91.227286 
L 1137.504017 89.21013 
L 1140.182685 89.14202 
L 1142.861352 88.438286 
L 1144.200686 88.681187 
L 1145.54002 88.675113 
L 1146.879354 87.254003 
L 1148.218688 87.359789 
L 1149.558022 87.310986 
L 1152.23669 86.76659 
L 1153.576024 87.034311 
L 1154.915358 87.073426 
L 1156.254692 86.100563 
L 1157.594026 86.181919 
L 1158.93336 86.117039 
L 1161.612027 85.669778 
L 1162.951361 85.84343 
L 1164.290695 85.869873 
L 1165.630029 85.20593 
L 1166.969363 85.251246 
L 1169.648031 85.120959 
L 1170.987365 84.898099 
L 1173.666033 84.92202 
L 1175.005367 84.463237 
L 1177.684035 84.420688 
L 1179.023369 84.148333 
L 1180.362703 83.997744 
L 1183.04137 84.08883 
L 1184.380704 83.761094 
L 1187.059372 83.64289 
L 1189.73804 83.37892 
L 1192.416708 83.414229 
L 1193.756042 83.162337 
L 1196.43471 83.028106 
L 1199.113378 82.893825 
L 1201.792045 83.065047 
L 1203.131379 82.856204 
L 1205.810047 82.983814 
L 1207.149381 82.560546 
L 1208.488715 82.370464 
L 1211.167383 82.470321 
L 1212.506717 82.36671 
L 1213.846051 82.421369 
L 1215.185385 82.253026 
L 1216.524719 81.713063 
L 1217.864053 81.467216 
L 1220.542721 81.543981 
L 1223.221388 81.536503 
L 1224.560722 81.156812 
L 1225.900056 80.52201 
L 1227.23939 80.232572 
L 1232.596726 80.322779 
L 1235.275394 79.064148 
L 1236.614728 78.764868 
L 1241.972063 78.866494 
L 1244.650731 77.204292 
L 1245.990065 76.812235 
L 1251.347401 76.941713 
L 1254.026069 74.778285 
L 1255.365403 74.275044 
L 1260.722739 74.441814 
L 1263.401406 71.798001 
L 1264.74074 71.22526 
L 1270.098076 71.421815 
L 1271.43741 69.684369 
L 1272.776744 68.831612 
L 1274.116078 68.447168 
L 1279.473414 68.606959 
L 1280.812748 66.727938 
L 1282.152081 66.064451 
L 1283.491415 65.765678 
L 1288.848751 65.892215 
L 1290.188085 63.973697 
L 1291.527419 63.526794 
L 1292.866753 63.326513 
L 1298.224089 63.417732 
L 1299.563423 61.55857 
L 1303.581424 61.490555 
L 1307.599426 61.514625 
L 1308.93876 59.87128 
L 1310.278094 59.203749 
L 1311.617428 58.89674 
L 1316.974764 58.984507 
L 1318.314098 57.286095 
L 1319.653432 56.567059 
L 1319.653432 56.567059 
" clip-path="url(#pf773dabd18)" style="fill: none; stroke: #ffa500; stroke-width: 1.5; stroke-linecap: square"/>
   </g>
   <g id="line2d_21">
    <path d="M 1319.653432 56.567059 
L 1320.992766 56.325217 
L 1322.332099 56.203832 
L 1323.671433 56.040787 
L 1325.010767 55.892115 
L 1326.350101 55.738486 
L 1327.689435 53.794288 
L 1329.028769 53.678692 
L 1330.368103 53.442445 
L 1331.707437 53.247952 
L 1333.046771 53.039021 
L 1334.386105 52.835053 
L 1335.725439 52.62938 
L 1337.064773 50.8755 
" clip-path="url(#pf773dabd18)" style="fill: none; stroke: #ff0000; stroke-width: 1.5; stroke-linecap: square"/>
   </g>
   <g id="patch_3">
    <path d="M 58.7375 368.3955 
L 58.7375 35.7555 
" style="fill: none; stroke: #000000; stroke-width: 0.8; stroke-linejoin: miter; stroke-linecap: square"/>
   </g>
   <g id="patch_4">
    <path d="M 1397.9375 368.3955 
L 1397.9375 35.7555 
" style="fill: none; stroke: #000000; stroke-width: 0.8; stroke-linejoin: miter; stroke-linecap: square"/>
   </g>
   <g id="patch_5">
    <path d="M 58.7375 368.3955 
L 1397.9375 368.3955 
" style="fill: none; stroke: #000000; stroke-width: 0.8; stroke-linejoin: miter; stroke-linecap: square"/>
   </g>
   <g id="patch_6">
    <path d="M 58.7375 35.7555 
L 1397.9375 35.7555 
" style="fill: none; stroke: #000000; stroke-width: 0.8; stroke-linejoin: miter; stroke-linecap: square"/>
   </g>
   <g id="text_19">
    <!-- Accumulative Confirmed Cases Forecasting - North Carolina -->
    <g transform="translate(548.995625 16.318125)scale(0.12 -0.12)">
     <defs>
      <path id="DejaVuSans-41" d="M 2188 4044 
L 1331 1722 
L 3047 1722 
L 2188 4044 
z
M 1831 4666 
L 2547 4666 
L 4325 0 
L 3669 0 
L 3244 1197 
L 1141 1197 
L 716 0 
L 50 0 
L 1831 4666 
z
" transform="scale(0.015625)"/>
      <path id="DejaVuSans-63" d="M 3122 3366 
L 3122 2828 
Q 2878 2963 2633 3030 
Q 2388 3097 2138 3097 
Q 1578 3097 1268 2742 
Q 959 2388 959 1747 
Q 959 1106 1268 751 
Q 1578 397 2138 397 
Q 2388 397 2633 464 
Q 2878 531 3122 666 
L 3122 134 
Q 2881 22 2623 -34 
Q 2366 -91 2075 -91 
Q 1284 -91 818 406 
Q 353 903 353 1747 
Q 353 2603 823 3093 
Q 1294 3584 2113 3584 
Q 2378 3584 2631 3529 
Q 2884 3475 3122 3366 
z
" transform="scale(0.015625)"/>
      <path id="DejaVuSans-75" d="M 544 1381 
L 544 3500 
L 1119 3500 
L 1119 1403 
Q 1119 906 1312 657 
Q 1506 409 1894 409 
Q 2359 409 2629 706 
Q 2900 1003 2900 1516 
L 2900 3500 
L 3475 3500 
L 3475 0 
L 2900 0 
L 2900 538 
Q 2691 219 2414 64 
Q 2138 -91 1772 -91 
Q 1169 -91 856 284 
Q 544 659 544 1381 
z
M 1991 3584 
L 1991 3584 
z
" transform="scale(0.015625)"/>
      <path id="DejaVuSans-6d" d="M 3328 2828 
Q 3544 3216 3844 3400 
Q 4144 3584 4550 3584 
Q 5097 3584 5394 3201 
Q 5691 2819 5691 2113 
L 5691 0 
L 5113 0 
L 5113 2094 
Q 5113 2597 4934 2840 
Q 4756 3084 4391 3084 
Q 3944 3084 3684 2787 
Q 3425 2491 3425 1978 
L 3425 0 
L 2847 0 
L 2847 2094 
Q 2847 2600 2669 2842 
Q 2491 3084 2119 3084 
Q 1678 3084 1418 2786 
Q 1159 2488 1159 1978 
L 1159 0 
L 581 0 
L 581 3500 
L 1159 3500 
L 1159 2956 
Q 1356 3278 1631 3431 
Q 1906 3584 2284 3584 
Q 2666 3584 2933 3390 
Q 3200 3197 3328 2828 
z
" transform="scale(0.015625)"/>
      <path id="DejaVuSans-6c" d="M 603 4863 
L 1178 4863 
L 1178 0 
L 603 0 
L 603 4863 
z
" transform="scale(0.015625)"/>
      <path id="DejaVuSans-61" d="M 2194 1759 
Q 1497 1759 1228 1600 
Q 959 1441 959 1056 
Q 959 750 1161 570 
Q 1363 391 1709 391 
Q 2188 391 2477 730 
Q 2766 1069 2766 1631 
L 2766 1759 
L 2194 1759 
z
M 3341 1997 
L 3341 0 
L 2766 0 
L 2766 531 
Q 2569 213 2275 61 
Q 1981 -91 1556 -91 
Q 1019 -91 701 211 
Q 384 513 384 1019 
Q 384 1609 779 1909 
Q 1175 2209 1959 2209 
L 2766 2209 
L 2766 2266 
Q 2766 2663 2505 2880 
Q 2244 3097 1772 3097 
Q 1472 3097 1187 3025 
Q 903 2953 641 2809 
L 641 3341 
Q 956 3463 1253 3523 
Q 1550 3584 1831 3584 
Q 2591 3584 2966 3190 
Q 3341 2797 3341 1997 
z
" transform="scale(0.015625)"/>
      <path id="DejaVuSans-74" d="M 1172 4494 
L 1172 3500 
L 2356 3500 
L 2356 3053 
L 1172 3053 
L 1172 1153 
Q 1172 725 1289 603 
Q 1406 481 1766 481 
L 2356 481 
L 2356 0 
L 1766 0 
Q 1100 0 847 248 
Q 594 497 594 1153 
L 594 3053 
L 172 3053 
L 172 3500 
L 594 3500 
L 594 4494 
L 1172 4494 
z
" transform="scale(0.015625)"/>
      <path id="DejaVuSans-69" d="M 603 3500 
L 1178 3500 
L 1178 0 
L 603 0 
L 603 3500 
z
M 603 4863 
L 1178 4863 
L 1178 4134 
L 603 4134 
L 603 4863 
z
" transform="scale(0.015625)"/>
      <path id="DejaVuSans-76" d="M 191 3500 
L 800 3500 
L 1894 563 
L 2988 3500 
L 3597 3500 
L 2284 0 
L 1503 0 
L 191 3500 
z
" transform="scale(0.015625)"/>
      <path id="DejaVuSans-65" d="M 3597 1894 
L 3597 1613 
L 953 1613 
Q 991 1019 1311 708 
Q 1631 397 2203 397 
Q 2534 397 2845 478 
Q 3156 559 3463 722 
L 3463 178 
Q 3153 47 2828 -22 
Q 2503 -91 2169 -91 
Q 1331 -91 842 396 
Q 353 884 353 1716 
Q 353 2575 817 3079 
Q 1281 3584 2069 3584 
Q 2775 3584 3186 3129 
Q 3597 2675 3597 1894 
z
M 3022 2063 
Q 3016 2534 2758 2815 
Q 2500 3097 2075 3097 
Q 1594 3097 1305 2825 
Q 1016 2553 972 2059 
L 3022 2063 
z
" transform="scale(0.015625)"/>
      <path id="DejaVuSans-20" transform="scale(0.015625)"/>
      <path id="DejaVuSans-43" d="M 4122 4306 
L 4122 3641 
Q 3803 3938 3442 4084 
Q 3081 4231 2675 4231 
Q 1875 4231 1450 3742 
Q 1025 3253 1025 2328 
Q 1025 1406 1450 917 
Q 1875 428 2675 428 
Q 3081 428 3442 575 
Q 3803 722 4122 1019 
L 4122 359 
Q 3791 134 3420 21 
Q 3050 -91 2638 -91 
Q 1578 -91 968 557 
Q 359 1206 359 2328 
Q 359 3453 968 4101 
Q 1578 4750 2638 4750 
Q 3056 4750 3426 4639 
Q 3797 4528 4122 4306 
z
" transform="scale(0.015625)"/>
      <path id="DejaVuSans-6f" d="M 1959 3097 
Q 1497 3097 1228 2736 
Q 959 2375 959 1747 
Q 959 1119 1226 758 
Q 1494 397 1959 397 
Q 2419 397 2687 759 
Q 2956 1122 2956 1747 
Q 2956 2369 2687 2733 
Q 2419 3097 1959 3097 
z
M 1959 3584 
Q 2709 3584 3137 3096 
Q 3566 2609 3566 1747 
Q 3566 888 3137 398 
Q 2709 -91 1959 -91 
Q 1206 -91 779 398 
Q 353 888 353 1747 
Q 353 2609 779 3096 
Q 1206 3584 1959 3584 
z
" transform="scale(0.015625)"/>
      <path id="DejaVuSans-6e" d="M 3513 2113 
L 3513 0 
L 2938 0 
L 2938 2094 
Q 2938 2591 2744 2837 
Q 2550 3084 2163 3084 
Q 1697 3084 1428 2787 
Q 1159 2491 1159 1978 
L 1159 0 
L 581 0 
L 581 3500 
L 1159 3500 
L 1159 2956 
Q 1366 3272 1645 3428 
Q 1925 3584 2291 3584 
Q 2894 3584 3203 3211 
Q 3513 2838 3513 2113 
z
" transform="scale(0.015625)"/>
      <path id="DejaVuSans-66" d="M 2375 4863 
L 2375 4384 
L 1825 4384 
Q 1516 4384 1395 4259 
Q 1275 4134 1275 3809 
L 1275 3500 
L 2222 3500 
L 2222 3053 
L 1275 3053 
L 1275 0 
L 697 0 
L 697 3053 
L 147 3053 
L 147 3500 
L 697 3500 
L 697 3744 
Q 697 4328 969 4595 
Q 1241 4863 1831 4863 
L 2375 4863 
z
" transform="scale(0.015625)"/>
      <path id="DejaVuSans-72" d="M 2631 2963 
Q 2534 3019 2420 3045 
Q 2306 3072 2169 3072 
Q 1681 3072 1420 2755 
Q 1159 2438 1159 1844 
L 1159 0 
L 581 0 
L 581 3500 
L 1159 3500 
L 1159 2956 
Q 1341 3275 1631 3429 
Q 1922 3584 2338 3584 
Q 2397 3584 2469 3576 
Q 2541 3569 2628 3553 
L 2631 2963 
z
" transform="scale(0.015625)"/>
      <path id="DejaVuSans-64" d="M 2906 2969 
L 2906 4863 
L 3481 4863 
L 3481 0 
L 2906 0 
L 2906 525 
Q 2725 213 2448 61 
Q 2172 -91 1784 -91 
Q 1150 -91 751 415 
Q 353 922 353 1747 
Q 353 2572 751 3078 
Q 1150 3584 1784 3584 
Q 2172 3584 2448 3432 
Q 2725 3281 2906 2969 
z
M 947 1747 
Q 947 1113 1208 752 
Q 1469 391 1925 391 
Q 2381 391 2643 752 
Q 2906 1113 2906 1747 
Q 2906 2381 2643 2742 
Q 2381 3103 1925 3103 
Q 1469 3103 1208 2742 
Q 947 2381 947 1747 
z
" transform="scale(0.015625)"/>
      <path id="DejaVuSans-73" d="M 2834 3397 
L 2834 2853 
Q 2591 2978 2328 3040 
Q 2066 3103 1784 3103 
Q 1356 3103 1142 2972 
Q 928 2841 928 2578 
Q 928 2378 1081 2264 
Q 1234 2150 1697 2047 
L 1894 2003 
Q 2506 1872 2764 1633 
Q 3022 1394 3022 966 
Q 3022 478 2636 193 
Q 2250 -91 1575 -91 
Q 1294 -91 989 -36 
Q 684 19 347 128 
L 347 722 
Q 666 556 975 473 
Q 1284 391 1588 391 
Q 1994 391 2212 530 
Q 2431 669 2431 922 
Q 2431 1156 2273 1281 
Q 2116 1406 1581 1522 
L 1381 1569 
Q 847 1681 609 1914 
Q 372 2147 372 2553 
Q 372 3047 722 3315 
Q 1072 3584 1716 3584 
Q 2034 3584 2315 3537 
Q 2597 3491 2834 3397 
z
" transform="scale(0.015625)"/>
      <path id="DejaVuSans-46" d="M 628 4666 
L 3309 4666 
L 3309 4134 
L 1259 4134 
L 1259 2759 
L 3109 2759 
L 3109 2228 
L 1259 2228 
L 1259 0 
L 628 0 
L 628 4666 
z
" transform="scale(0.015625)"/>
      <path id="DejaVuSans-67" d="M 2906 1791 
Q 2906 2416 2648 2759 
Q 2391 3103 1925 3103 
Q 1463 3103 1205 2759 
Q 947 2416 947 1791 
Q 947 1169 1205 825 
Q 1463 481 1925 481 
Q 2391 481 2648 825 
Q 2906 1169 2906 1791 
z
M 3481 434 
Q 3481 -459 3084 -895 
Q 2688 -1331 1869 -1331 
Q 1566 -1331 1297 -1286 
Q 1028 -1241 775 -1147 
L 775 -588 
Q 1028 -725 1275 -790 
Q 1522 -856 1778 -856 
Q 2344 -856 2625 -561 
Q 2906 -266 2906 331 
L 2906 616 
Q 2728 306 2450 153 
Q 2172 0 1784 0 
Q 1141 0 747 490 
Q 353 981 353 1791 
Q 353 2603 747 3093 
Q 1141 3584 1784 3584 
Q 2172 3584 2450 3431 
Q 2728 3278 2906 2969 
L 2906 3500 
L 3481 3500 
L 3481 434 
z
" transform="scale(0.015625)"/>
      <path id="DejaVuSans-4e" d="M 628 4666 
L 1478 4666 
L 3547 763 
L 3547 4666 
L 4159 4666 
L 4159 0 
L 3309 0 
L 1241 3903 
L 1241 0 
L 628 0 
L 628 4666 
z
" transform="scale(0.015625)"/>
      <path id="DejaVuSans-68" d="M 3513 2113 
L 3513 0 
L 2938 0 
L 2938 2094 
Q 2938 2591 2744 2837 
Q 2550 3084 2163 3084 
Q 1697 3084 1428 2787 
Q 1159 2491 1159 1978 
L 1159 0 
L 581 0 
L 581 4863 
L 1159 4863 
L 1159 2956 
Q 1366 3272 1645 3428 
Q 1925 3584 2291 3584 
Q 2894 3584 3203 3211 
Q 3513 2838 3513 2113 
z
" transform="scale(0.015625)"/>
     </defs>
     <use xlink:href="#DejaVuSans-41"/>
     <use xlink:href="#DejaVuSans-63" x="66.658203"/>
     <use xlink:href="#DejaVuSans-63" x="121.638672"/>
     <use xlink:href="#DejaVuSans-75" x="176.619141"/>
     <use xlink:href="#DejaVuSans-6d" x="239.998047"/>
     <use xlink:href="#DejaVuSans-75" x="337.410156"/>
     <use xlink:href="#DejaVuSans-6c" x="400.789062"/>
     <use xlink:href="#DejaVuSans-61" x="428.572266"/>
     <use xlink:href="#DejaVuSans-74" x="489.851562"/>
     <use xlink:href="#DejaVuSans-69" x="529.060547"/>
     <use xlink:href="#DejaVuSans-76" x="556.84375"/>
     <use xlink:href="#DejaVuSans-65" x="616.023438"/>
     <use xlink:href="#DejaVuSans-20" x="677.546875"/>
     <use xlink:href="#DejaVuSans-43" x="709.333984"/>
     <use xlink:href="#DejaVuSans-6f" x="779.158203"/>
     <use xlink:href="#DejaVuSans-6e" x="840.339844"/>
     <use xlink:href="#DejaVuSans-66" x="903.71875"/>
     <use xlink:href="#DejaVuSans-69" x="938.923828"/>
     <use xlink:href="#DejaVuSans-72" x="966.707031"/>
     <use xlink:href="#DejaVuSans-6d" x="1006.070312"/>
     <use xlink:href="#DejaVuSans-65" x="1103.482422"/>
     <use xlink:href="#DejaVuSans-64" x="1165.005859"/>
     <use xlink:href="#DejaVuSans-20" x="1228.482422"/>
     <use xlink:href="#DejaVuSans-43" x="1260.269531"/>
     <use xlink:href="#DejaVuSans-61" x="1330.09375"/>
     <use xlink:href="#DejaVuSans-73" x="1391.373047"/>
     <use xlink:href="#DejaVuSans-65" x="1443.472656"/>
     <use xlink:href="#DejaVuSans-73" x="1504.996094"/>
     <use xlink:href="#DejaVuSans-20" x="1557.095703"/>
     <use xlink:href="#DejaVuSans-46" x="1588.882812"/>
     <use xlink:href="#DejaVuSans-6f" x="1642.777344"/>
     <use xlink:href="#DejaVuSans-72" x="1703.958984"/>
     <use xlink:href="#DejaVuSans-65" x="1742.822266"/>
     <use xlink:href="#DejaVuSans-63" x="1804.345703"/>
     <use xlink:href="#DejaVuSans-61" x="1859.326172"/>
     <use xlink:href="#DejaVuSans-73" x="1920.605469"/>
     <use xlink:href="#DejaVuSans-74" x="1972.705078"/>
     <use xlink:href="#DejaVuSans-69" x="2011.914062"/>
     <use xlink:href="#DejaVuSans-6e" x="2039.697266"/>
     <use xlink:href="#DejaVuSans-67" x="2103.076172"/>
     <use xlink:href="#DejaVuSans-20" x="2166.552734"/>
     <use xlink:href="#DejaVuSans-2d" x="2198.339844"/>
     <use xlink:href="#DejaVuSans-20" x="2234.423828"/>
     <use xlink:href="#DejaVuSans-4e" x="2266.210938"/>
     <use xlink:href="#DejaVuSans-6f" x="2341.015625"/>
     <use xlink:href="#DejaVuSans-72" x="2402.197266"/>
     <use xlink:href="#DejaVuSans-74" x="2443.310547"/>
     <use xlink:href="#DejaVuSans-68" x="2482.519531"/>
     <use xlink:href="#DejaVuSans-20" x="2545.898438"/>
     <use xlink:href="#DejaVuSans-43" x="2577.685547"/>
     <use xlink:href="#DejaVuSans-61" x="2647.509766"/>
     <use xlink:href="#DejaVuSans-72" x="2708.789062"/>
     <use xlink:href="#DejaVuSans-6f" x="2747.652344"/>
     <use xlink:href="#DejaVuSans-6c" x="2808.833984"/>
     <use xlink:href="#DejaVuSans-69" x="2836.617188"/>
     <use xlink:href="#DejaVuSans-6e" x="2864.400391"/>
     <use xlink:href="#DejaVuSans-61" x="2927.779297"/>
    </g>
    <!-- ARIMA (1, 2, 1)x(1, 0, 1, 7) (R2 = 0.996261) -->
    <g transform="translate(596.353438 29.7555)scale(0.12 -0.12)">
     <defs>
      <path id="DejaVuSans-52" d="M 2841 2188 
Q 3044 2119 3236 1894 
Q 3428 1669 3622 1275 
L 4263 0 
L 3584 0 
L 2988 1197 
Q 2756 1666 2539 1819 
Q 2322 1972 1947 1972 
L 1259 1972 
L 1259 0 
L 628 0 
L 628 4666 
L 2053 4666 
Q 2853 4666 3247 4331 
Q 3641 3997 3641 3322 
Q 3641 2881 3436 2590 
Q 3231 2300 2841 2188 
z
M 1259 4147 
L 1259 2491 
L 2053 2491 
Q 2509 2491 2742 2702 
Q 2975 2913 2975 3322 
Q 2975 3731 2742 3939 
Q 2509 4147 2053 4147 
L 1259 4147 
z
" transform="scale(0.015625)"/>
      <path id="DejaVuSans-49" d="M 628 4666 
L 1259 4666 
L 1259 0 
L 628 0 
L 628 4666 
z
" transform="scale(0.015625)"/>
      <path id="DejaVuSans-4d" d="M 628 4666 
L 1569 4666 
L 2759 1491 
L 3956 4666 
L 4897 4666 
L 4897 0 
L 4281 0 
L 4281 4097 
L 3078 897 
L 2444 897 
L 1241 4097 
L 1241 0 
L 628 0 
L 628 4666 
z
" transform="scale(0.015625)"/>
      <path id="DejaVuSans-28" d="M 1984 4856 
Q 1566 4138 1362 3434 
Q 1159 2731 1159 2009 
Q 1159 1288 1364 580 
Q 1569 -128 1984 -844 
L 1484 -844 
Q 1016 -109 783 600 
Q 550 1309 550 2009 
Q 550 2706 781 3412 
Q 1013 4119 1484 4856 
L 1984 4856 
z
" transform="scale(0.015625)"/>
      <path id="DejaVuSans-2c" d="M 750 794 
L 1409 794 
L 1409 256 
L 897 -744 
L 494 -744 
L 750 256 
L 750 794 
z
" transform="scale(0.015625)"/>
      <path id="DejaVuSans-29" d="M 513 4856 
L 1013 4856 
Q 1481 4119 1714 3412 
Q 1947 2706 1947 2009 
Q 1947 1309 1714 600 
Q 1481 -109 1013 -844 
L 513 -844 
Q 928 -128 1133 580 
Q 1338 1288 1338 2009 
Q 1338 2731 1133 3434 
Q 928 4138 513 4856 
z
" transform="scale(0.015625)"/>
      <path id="DejaVuSans-78" d="M 3513 3500 
L 2247 1797 
L 3578 0 
L 2900 0 
L 1881 1375 
L 863 0 
L 184 0 
L 1544 1831 
L 300 3500 
L 978 3500 
L 1906 2253 
L 2834 3500 
L 3513 3500 
z
" transform="scale(0.015625)"/>
      <path id="DejaVuSans-3d" d="M 678 2906 
L 4684 2906 
L 4684 2381 
L 678 2381 
L 678 2906 
z
M 678 1631 
L 4684 1631 
L 4684 1100 
L 678 1100 
L 678 1631 
z
" transform="scale(0.015625)"/>
      <path id="DejaVuSans-2e" d="M 684 794 
L 1344 794 
L 1344 0 
L 684 0 
L 684 794 
z
" transform="scale(0.015625)"/>
      <path id="DejaVuSans-39" d="M 703 97 
L 703 672 
Q 941 559 1184 500 
Q 1428 441 1663 441 
Q 2288 441 2617 861 
Q 2947 1281 2994 2138 
Q 2813 1869 2534 1725 
Q 2256 1581 1919 1581 
Q 1219 1581 811 2004 
Q 403 2428 403 3163 
Q 403 3881 828 4315 
Q 1253 4750 1959 4750 
Q 2769 4750 3195 4129 
Q 3622 3509 3622 2328 
Q 3622 1225 3098 567 
Q 2575 -91 1691 -91 
Q 1453 -91 1209 -44 
Q 966 3 703 97 
z
M 1959 2075 
Q 2384 2075 2632 2365 
Q 2881 2656 2881 3163 
Q 2881 3666 2632 3958 
Q 2384 4250 1959 4250 
Q 1534 4250 1286 3958 
Q 1038 3666 1038 3163 
Q 1038 2656 1286 2365 
Q 1534 2075 1959 2075 
z
" transform="scale(0.015625)"/>
      <path id="DejaVuSans-36" d="M 2113 2584 
Q 1688 2584 1439 2293 
Q 1191 2003 1191 1497 
Q 1191 994 1439 701 
Q 1688 409 2113 409 
Q 2538 409 2786 701 
Q 3034 994 3034 1497 
Q 3034 2003 2786 2293 
Q 2538 2584 2113 2584 
z
M 3366 4563 
L 3366 3988 
Q 3128 4100 2886 4159 
Q 2644 4219 2406 4219 
Q 1781 4219 1451 3797 
Q 1122 3375 1075 2522 
Q 1259 2794 1537 2939 
Q 1816 3084 2150 3084 
Q 2853 3084 3261 2657 
Q 3669 2231 3669 1497 
Q 3669 778 3244 343 
Q 2819 -91 2113 -91 
Q 1303 -91 875 529 
Q 447 1150 447 2328 
Q 447 3434 972 4092 
Q 1497 4750 2381 4750 
Q 2619 4750 2861 4703 
Q 3103 4656 3366 4563 
z
" transform="scale(0.015625)"/>
     </defs>
     <use xlink:href="#DejaVuSans-41"/>
     <use xlink:href="#DejaVuSans-52" x="68.408203"/>
     <use xlink:href="#DejaVuSans-49" x="137.890625"/>
     <use xlink:href="#DejaVuSans-4d" x="167.382812"/>
     <use xlink:href="#DejaVuSans-41" x="253.662109"/>
     <use xlink:href="#DejaVuSans-20" x="322.070312"/>
     <use xlink:href="#DejaVuSans-28" x="353.857422"/>
     <use xlink:href="#DejaVuSans-31" x="392.871094"/>
     <use xlink:href="#DejaVuSans-2c" x="456.494141"/>
     <use xlink:href="#DejaVuSans-20" x="488.28125"/>
     <use xlink:href="#DejaVuSans-32" x="520.068359"/>
     <use xlink:href="#DejaVuSans-2c" x="583.691406"/>
     <use xlink:href="#DejaVuSans-20" x="615.478516"/>
     <use xlink:href="#DejaVuSans-31" x="647.265625"/>
     <use xlink:href="#DejaVuSans-29" x="710.888672"/>
     <use xlink:href="#DejaVuSans-78" x="749.902344"/>
     <use xlink:href="#DejaVuSans-28" x="809.082031"/>
     <use xlink:href="#DejaVuSans-31" x="848.095703"/>
     <use xlink:href="#DejaVuSans-2c" x="911.71875"/>
     <use xlink:href="#DejaVuSans-20" x="943.505859"/>
     <use xlink:href="#DejaVuSans-30" x="975.292969"/>
     <use xlink:href="#DejaVuSans-2c" x="1038.916016"/>
     <use xlink:href="#DejaVuSans-20" x="1070.703125"/>
     <use xlink:href="#DejaVuSans-31" x="1102.490234"/>
     <use xlink:href="#DejaVuSans-2c" x="1166.113281"/>
     <use xlink:href="#DejaVuSans-20" x="1197.900391"/>
     <use xlink:href="#DejaVuSans-37" x="1229.6875"/>
     <use xlink:href="#DejaVuSans-29" x="1293.310547"/>
     <use xlink:href="#DejaVuSans-20" x="1332.324219"/>
     <use xlink:href="#DejaVuSans-28" x="1364.111328"/>
     <use xlink:href="#DejaVuSans-52" x="1403.125"/>
     <use xlink:href="#DejaVuSans-32" x="1472.607422"/>
     <use xlink:href="#DejaVuSans-20" x="1536.230469"/>
     <use xlink:href="#DejaVuSans-3d" x="1568.017578"/>
     <use xlink:href="#DejaVuSans-20" x="1651.806641"/>
     <use xlink:href="#DejaVuSans-30" x="1683.59375"/>
     <use xlink:href="#DejaVuSans-2e" x="1747.216797"/>
     <use xlink:href="#DejaVuSans-39" x="1779.003906"/>
     <use xlink:href="#DejaVuSans-39" x="1842.626953"/>
     <use xlink:href="#DejaVuSans-36" x="1906.25"/>
     <use xlink:href="#DejaVuSans-32" x="1969.873047"/>
     <use xlink:href="#DejaVuSans-36" x="2033.496094"/>
     <use xlink:href="#DejaVuSans-31" x="2097.119141"/>
     <use xlink:href="#DejaVuSans-29" x="2160.742188"/>
    </g>
   </g>
   <g id="legend_1">
    <g id="patch_7">
     <path d="M 65.7375 87.789875 
L 162.817188 87.789875 
Q 164.817188 87.789875 164.817188 85.789875 
L 164.817188 42.7555 
Q 164.817188 40.7555 162.817188 40.7555 
L 65.7375 40.7555 
Q 63.7375 40.7555 63.7375 42.7555 
L 63.7375 85.789875 
Q 63.7375 87.789875 65.7375 87.789875 
z
" style="fill: #ffffff; opacity: 0.8; stroke: #cccccc; stroke-linejoin: miter"/>
    </g>
    <g id="line2d_22">
     <path d="M 67.7375 48.853937 
L 77.7375 48.853937 
L 87.7375 48.853937 
" style="fill: none; stroke: #0000ff; stroke-width: 1.5; stroke-linecap: square"/>
    </g>
    <g id="text_20">
     <!-- Actual Value -->
     <g transform="translate(95.7375 52.353937)scale(0.1 -0.1)">
      <defs>
       <path id="DejaVuSans-56" d="M 1831 0 
L 50 4666 
L 709 4666 
L 2188 738 
L 3669 4666 
L 4325 4666 
L 2547 0 
L 1831 0 
z
" transform="scale(0.015625)"/>
      </defs>
      <use xlink:href="#DejaVuSans-41"/>
      <use xlink:href="#DejaVuSans-63" x="66.658203"/>
      <use xlink:href="#DejaVuSans-74" x="121.638672"/>
      <use xlink:href="#DejaVuSans-75" x="160.847656"/>
      <use xlink:href="#DejaVuSans-61" x="224.226562"/>
      <use xlink:href="#DejaVuSans-6c" x="285.505859"/>
      <use xlink:href="#DejaVuSans-20" x="313.289062"/>
      <use xlink:href="#DejaVuSans-56" x="345.076172"/>
      <use xlink:href="#DejaVuSans-61" x="405.734375"/>
      <use xlink:href="#DejaVuSans-6c" x="467.013672"/>
      <use xlink:href="#DejaVuSans-75" x="494.796875"/>
      <use xlink:href="#DejaVuSans-65" x="558.175781"/>
     </g>
    </g>
    <g id="line2d_23">
     <path d="M 67.7375 63.532062 
L 77.7375 63.532062 
L 87.7375 63.532062 
" style="fill: none; stroke: #ffa500; stroke-width: 1.5; stroke-linecap: square"/>
    </g>
    <g id="text_21">
     <!-- Check Value -->
     <g transform="translate(95.7375 67.032062)scale(0.1 -0.1)">
      <defs>
       <path id="DejaVuSans-6b" d="M 581 4863 
L 1159 4863 
L 1159 1991 
L 2875 3500 
L 3609 3500 
L 1753 1863 
L 3688 0 
L 2938 0 
L 1159 1709 
L 1159 0 
L 581 0 
L 581 4863 
z
" transform="scale(0.015625)"/>
      </defs>
      <use xlink:href="#DejaVuSans-43"/>
      <use xlink:href="#DejaVuSans-68" x="69.824219"/>
      <use xlink:href="#DejaVuSans-65" x="133.203125"/>
      <use xlink:href="#DejaVuSans-63" x="194.726562"/>
      <use xlink:href="#DejaVuSans-6b" x="249.707031"/>
      <use xlink:href="#DejaVuSans-20" x="307.617188"/>
      <use xlink:href="#DejaVuSans-56" x="339.404297"/>
      <use xlink:href="#DejaVuSans-61" x="400.0625"/>
      <use xlink:href="#DejaVuSans-6c" x="461.341797"/>
      <use xlink:href="#DejaVuSans-75" x="489.125"/>
      <use xlink:href="#DejaVuSans-65" x="552.503906"/>
     </g>
    </g>
    <g id="line2d_24">
     <path d="M 67.7375 78.210187 
L 77.7375 78.210187 
L 87.7375 78.210187 
" style="fill: none; stroke: #ff0000; stroke-width: 1.5; stroke-linecap: square"/>
    </g>
    <g id="text_22">
     <!-- Predict Value -->
     <g transform="translate(95.7375 81.710187)scale(0.1 -0.1)">
      <defs>
       <path id="DejaVuSans-50" d="M 1259 4147 
L 1259 2394 
L 2053 2394 
Q 2494 2394 2734 2622 
Q 2975 2850 2975 3272 
Q 2975 3691 2734 3919 
Q 2494 4147 2053 4147 
L 1259 4147 
z
M 628 4666 
L 2053 4666 
Q 2838 4666 3239 4311 
Q 3641 3956 3641 3272 
Q 3641 2581 3239 2228 
Q 2838 1875 2053 1875 
L 1259 1875 
L 1259 0 
L 628 0 
L 628 4666 
z
" transform="scale(0.015625)"/>
      </defs>
      <use xlink:href="#DejaVuSans-50"/>
      <use xlink:href="#DejaVuSans-72" x="58.552734"/>
      <use xlink:href="#DejaVuSans-65" x="97.416016"/>
      <use xlink:href="#DejaVuSans-64" x="158.939453"/>
      <use xlink:href="#DejaVuSans-69" x="222.416016"/>
      <use xlink:href="#DejaVuSans-63" x="250.199219"/>
      <use xlink:href="#DejaVuSans-74" x="305.179688"/>
      <use xlink:href="#DejaVuSans-20" x="344.388672"/>
      <use xlink:href="#DejaVuSans-56" x="376.175781"/>
      <use xlink:href="#DejaVuSans-61" x="436.833984"/>
      <use xlink:href="#DejaVuSans-6c" x="498.113281"/>
      <use xlink:href="#DejaVuSans-75" x="525.896484"/>
      <use xlink:href="#DejaVuSans-65" x="589.275391"/>
     </g>
    </g>
   </g>
  </g>
 </g>
 <defs>
  <clipPath id="pf773dabd18">
   <rect x="58.7375" y="35.7555" width="1339.2" height="332.64"/>
  </clipPath>
 </defs>
</svg>
