<?xml version="1.0" encoding="utf-8" standalone="no"?>
<!DOCTYPE svg PUBLIC "-//W3C//DTD SVG 1.1//EN"
  "http://www.w3.org/Graphics/SVG/1.1/DTD/svg11.dtd">
<svg xmlns:xlink="http://www.w3.org/1999/xlink" width="1392.4125pt" height="392.273625pt" viewBox="0 0 1392.4125 392.273625" xmlns="http://www.w3.org/2000/svg" version="1.1">
 <metadata>
  <rdf:RDF xmlns:dc="http://purl.org/dc/elements/1.1/" xmlns:cc="http://creativecommons.org/ns#" xmlns:rdf="http://www.w3.org/1999/02/22-rdf-syntax-ns#">
   <cc:Work>
    <dc:type rdf:resource="http://purl.org/dc/dcmitype/StillImage"/>
    <dc:date>2022-06-27T17:36:27.184286</dc:date>
    <dc:format>image/svg+xml</dc:format>
    <dc:creator>
     <cc:Agent>
      <dc:title>Matplotlib v3.5.2, https://matplotlib.org/</dc:title>
     </cc:Agent>
    </dc:creator>
   </cc:Work>
  </rdf:RDF>
 </metadata>
 <defs>
  <style type="text/css">*{stroke-linejoin: round; stroke-linecap: butt}</style>
 </defs>
 <g id="figure_1">
  <g id="patch_1">
   <path d="M 0 392.273625 
L 1392.4125 392.273625 
L 1392.4125 0 
L 0 0 
z
" style="fill: #ffffff"/>
  </g>
  <g id="axes_1">
   <g id="patch_2">
    <path d="M 46.0125 368.3955 
L 1385.2125 368.3955 
L 1385.2125 35.7555 
L 46.0125 35.7555 
z
" style="fill: #ffffff"/>
   </g>
   <g id="matplotlib.axis_1">
    <g id="xtick_1">
     <g id="line2d_1">
      <defs>
       <path id="m3af4e07832" d="M 0 0 
L 0 3.5 
" style="stroke: #000000; stroke-width: 0.8"/>
      </defs>
      <g>
       <use xlink:href="#m3af4e07832" x="77.058947" y="368.3955" style="stroke: #000000; stroke-width: 0.8"/>
      </g>
     </g>
     <g id="text_1">
      <!-- 2020-01 -->
      <g transform="translate(56.16754 382.993937)scale(0.1 -0.1)">
       <defs>
        <path id="DejaVuSans-32" d="M 1228 531 
L 3431 531 
L 3431 0 
L 469 0 
L 469 531 
Q 828 903 1448 1529 
Q 2069 2156 2228 2338 
Q 2531 2678 2651 2914 
Q 2772 3150 2772 3378 
Q 2772 3750 2511 3984 
Q 2250 4219 1831 4219 
Q 1534 4219 1204 4116 
Q 875 4013 500 3803 
L 500 4441 
Q 881 4594 1212 4672 
Q 1544 4750 1819 4750 
Q 2544 4750 2975 4387 
Q 3406 4025 3406 3419 
Q 3406 3131 3298 2873 
Q 3191 2616 2906 2266 
Q 2828 2175 2409 1742 
Q 1991 1309 1228 531 
z
" transform="scale(0.015625)"/>
        <path id="DejaVuSans-30" d="M 2034 4250 
Q 1547 4250 1301 3770 
Q 1056 3291 1056 2328 
Q 1056 1369 1301 889 
Q 1547 409 2034 409 
Q 2525 409 2770 889 
Q 3016 1369 3016 2328 
Q 3016 3291 2770 3770 
Q 2525 4250 2034 4250 
z
M 2034 4750 
Q 2819 4750 3233 4129 
Q 3647 3509 3647 2328 
Q 3647 1150 3233 529 
Q 2819 -91 2034 -91 
Q 1250 -91 836 529 
Q 422 1150 422 2328 
Q 422 3509 836 4129 
Q 1250 4750 2034 4750 
z
" transform="scale(0.015625)"/>
        <path id="DejaVuSans-2d" d="M 313 2009 
L 1997 2009 
L 1997 1497 
L 313 1497 
L 313 2009 
z
" transform="scale(0.015625)"/>
        <path id="DejaVuSans-31" d="M 794 531 
L 1825 531 
L 1825 4091 
L 703 3866 
L 703 4441 
L 1819 4666 
L 2450 4666 
L 2450 531 
L 3481 531 
L 3481 0 
L 794 0 
L 794 531 
z
" transform="scale(0.015625)"/>
       </defs>
       <use xlink:href="#DejaVuSans-32"/>
       <use xlink:href="#DejaVuSans-30" x="63.623047"/>
       <use xlink:href="#DejaVuSans-32" x="127.246094"/>
       <use xlink:href="#DejaVuSans-30" x="190.869141"/>
       <use xlink:href="#DejaVuSans-2d" x="254.492188"/>
       <use xlink:href="#DejaVuSans-30" x="290.576172"/>
       <use xlink:href="#DejaVuSans-31" x="354.199219"/>
      </g>
     </g>
    </g>
    <g id="xtick_2">
     <g id="line2d_2">
      <g>
       <use xlink:href="#m3af4e07832" x="200.431289" y="368.3955" style="stroke: #000000; stroke-width: 0.8"/>
      </g>
     </g>
     <g id="text_2">
      <!-- 2020-04 -->
      <g transform="translate(179.539883 382.993937)scale(0.1 -0.1)">
       <defs>
        <path id="DejaVuSans-34" d="M 2419 4116 
L 825 1625 
L 2419 1625 
L 2419 4116 
z
M 2253 4666 
L 3047 4666 
L 3047 1625 
L 3713 1625 
L 3713 1100 
L 3047 1100 
L 3047 0 
L 2419 0 
L 2419 1100 
L 313 1100 
L 313 1709 
L 2253 4666 
z
" transform="scale(0.015625)"/>
       </defs>
       <use xlink:href="#DejaVuSans-32"/>
       <use xlink:href="#DejaVuSans-30" x="63.623047"/>
       <use xlink:href="#DejaVuSans-32" x="127.246094"/>
       <use xlink:href="#DejaVuSans-30" x="190.869141"/>
       <use xlink:href="#DejaVuSans-2d" x="254.492188"/>
       <use xlink:href="#DejaVuSans-30" x="290.576172"/>
       <use xlink:href="#DejaVuSans-34" x="354.199219"/>
      </g>
     </g>
    </g>
    <g id="xtick_3">
     <g id="line2d_3">
      <g>
       <use xlink:href="#m3af4e07832" x="323.803632" y="368.3955" style="stroke: #000000; stroke-width: 0.8"/>
      </g>
     </g>
     <g id="text_3">
      <!-- 2020-07 -->
      <g transform="translate(302.912226 382.993937)scale(0.1 -0.1)">
       <defs>
        <path id="DejaVuSans-37" d="M 525 4666 
L 3525 4666 
L 3525 4397 
L 1831 0 
L 1172 0 
L 2766 4134 
L 525 4134 
L 525 4666 
z
" transform="scale(0.015625)"/>
       </defs>
       <use xlink:href="#DejaVuSans-32"/>
       <use xlink:href="#DejaVuSans-30" x="63.623047"/>
       <use xlink:href="#DejaVuSans-32" x="127.246094"/>
       <use xlink:href="#DejaVuSans-30" x="190.869141"/>
       <use xlink:href="#DejaVuSans-2d" x="254.492188"/>
       <use xlink:href="#DejaVuSans-30" x="290.576172"/>
       <use xlink:href="#DejaVuSans-37" x="354.199219"/>
      </g>
     </g>
    </g>
    <g id="xtick_4">
     <g id="line2d_4">
      <g>
       <use xlink:href="#m3af4e07832" x="448.531714" y="368.3955" style="stroke: #000000; stroke-width: 0.8"/>
      </g>
     </g>
     <g id="text_4">
      <!-- 2020-10 -->
      <g transform="translate(427.640308 382.993937)scale(0.1 -0.1)">
       <use xlink:href="#DejaVuSans-32"/>
       <use xlink:href="#DejaVuSans-30" x="63.623047"/>
       <use xlink:href="#DejaVuSans-32" x="127.246094"/>
       <use xlink:href="#DejaVuSans-30" x="190.869141"/>
       <use xlink:href="#DejaVuSans-2d" x="254.492188"/>
       <use xlink:href="#DejaVuSans-31" x="290.576172"/>
       <use xlink:href="#DejaVuSans-30" x="354.199219"/>
      </g>
     </g>
    </g>
    <g id="xtick_5">
     <g id="line2d_5">
      <g>
       <use xlink:href="#m3af4e07832" x="573.259797" y="368.3955" style="stroke: #000000; stroke-width: 0.8"/>
      </g>
     </g>
     <g id="text_5">
      <!-- 2021-01 -->
      <g transform="translate(552.368391 382.993937)scale(0.1 -0.1)">
       <use xlink:href="#DejaVuSans-32"/>
       <use xlink:href="#DejaVuSans-30" x="63.623047"/>
       <use xlink:href="#DejaVuSans-32" x="127.246094"/>
       <use xlink:href="#DejaVuSans-31" x="190.869141"/>
       <use xlink:href="#DejaVuSans-2d" x="254.492188"/>
       <use xlink:href="#DejaVuSans-30" x="290.576172"/>
       <use xlink:href="#DejaVuSans-31" x="354.199219"/>
      </g>
     </g>
    </g>
    <g id="xtick_6">
     <g id="line2d_6">
      <g>
       <use xlink:href="#m3af4e07832" x="695.2764" y="368.3955" style="stroke: #000000; stroke-width: 0.8"/>
      </g>
     </g>
     <g id="text_6">
      <!-- 2021-04 -->
      <g transform="translate(674.384993 382.993937)scale(0.1 -0.1)">
       <use xlink:href="#DejaVuSans-32"/>
       <use xlink:href="#DejaVuSans-30" x="63.623047"/>
       <use xlink:href="#DejaVuSans-32" x="127.246094"/>
       <use xlink:href="#DejaVuSans-31" x="190.869141"/>
       <use xlink:href="#DejaVuSans-2d" x="254.492188"/>
       <use xlink:href="#DejaVuSans-30" x="290.576172"/>
       <use xlink:href="#DejaVuSans-34" x="354.199219"/>
      </g>
     </g>
    </g>
    <g id="xtick_7">
     <g id="line2d_7">
      <g>
       <use xlink:href="#m3af4e07832" x="818.648742" y="368.3955" style="stroke: #000000; stroke-width: 0.8"/>
      </g>
     </g>
     <g id="text_7">
      <!-- 2021-07 -->
      <g transform="translate(797.757336 382.993937)scale(0.1 -0.1)">
       <use xlink:href="#DejaVuSans-32"/>
       <use xlink:href="#DejaVuSans-30" x="63.623047"/>
       <use xlink:href="#DejaVuSans-32" x="127.246094"/>
       <use xlink:href="#DejaVuSans-31" x="190.869141"/>
       <use xlink:href="#DejaVuSans-2d" x="254.492188"/>
       <use xlink:href="#DejaVuSans-30" x="290.576172"/>
       <use xlink:href="#DejaVuSans-37" x="354.199219"/>
      </g>
     </g>
    </g>
    <g id="xtick_8">
     <g id="line2d_8">
      <g>
       <use xlink:href="#m3af4e07832" x="943.376825" y="368.3955" style="stroke: #000000; stroke-width: 0.8"/>
      </g>
     </g>
     <g id="text_8">
      <!-- 2021-10 -->
      <g transform="translate(922.485419 382.993937)scale(0.1 -0.1)">
       <use xlink:href="#DejaVuSans-32"/>
       <use xlink:href="#DejaVuSans-30" x="63.623047"/>
       <use xlink:href="#DejaVuSans-32" x="127.246094"/>
       <use xlink:href="#DejaVuSans-31" x="190.869141"/>
       <use xlink:href="#DejaVuSans-2d" x="254.492188"/>
       <use xlink:href="#DejaVuSans-31" x="290.576172"/>
       <use xlink:href="#DejaVuSans-30" x="354.199219"/>
      </g>
     </g>
    </g>
    <g id="xtick_9">
     <g id="line2d_9">
      <g>
       <use xlink:href="#m3af4e07832" x="1068.104907" y="368.3955" style="stroke: #000000; stroke-width: 0.8"/>
      </g>
     </g>
     <g id="text_9">
      <!-- 2022-01 -->
      <g transform="translate(1047.213501 382.993937)scale(0.1 -0.1)">
       <use xlink:href="#DejaVuSans-32"/>
       <use xlink:href="#DejaVuSans-30" x="63.623047"/>
       <use xlink:href="#DejaVuSans-32" x="127.246094"/>
       <use xlink:href="#DejaVuSans-32" x="190.869141"/>
       <use xlink:href="#DejaVuSans-2d" x="254.492188"/>
       <use xlink:href="#DejaVuSans-30" x="290.576172"/>
       <use xlink:href="#DejaVuSans-31" x="354.199219"/>
      </g>
     </g>
    </g>
    <g id="xtick_10">
     <g id="line2d_10">
      <g>
       <use xlink:href="#m3af4e07832" x="1190.12151" y="368.3955" style="stroke: #000000; stroke-width: 0.8"/>
      </g>
     </g>
     <g id="text_10">
      <!-- 2022-04 -->
      <g transform="translate(1169.230104 382.993937)scale(0.1 -0.1)">
       <use xlink:href="#DejaVuSans-32"/>
       <use xlink:href="#DejaVuSans-30" x="63.623047"/>
       <use xlink:href="#DejaVuSans-32" x="127.246094"/>
       <use xlink:href="#DejaVuSans-32" x="190.869141"/>
       <use xlink:href="#DejaVuSans-2d" x="254.492188"/>
       <use xlink:href="#DejaVuSans-30" x="290.576172"/>
       <use xlink:href="#DejaVuSans-34" x="354.199219"/>
      </g>
     </g>
    </g>
    <g id="xtick_11">
     <g id="line2d_11">
      <g>
       <use xlink:href="#m3af4e07832" x="1313.493853" y="368.3955" style="stroke: #000000; stroke-width: 0.8"/>
      </g>
     </g>
     <g id="text_11">
      <!-- 2022-07 -->
      <g transform="translate(1292.602446 382.993937)scale(0.1 -0.1)">
       <use xlink:href="#DejaVuSans-32"/>
       <use xlink:href="#DejaVuSans-30" x="63.623047"/>
       <use xlink:href="#DejaVuSans-32" x="127.246094"/>
       <use xlink:href="#DejaVuSans-32" x="190.869141"/>
       <use xlink:href="#DejaVuSans-2d" x="254.492188"/>
       <use xlink:href="#DejaVuSans-30" x="290.576172"/>
       <use xlink:href="#DejaVuSans-37" x="354.199219"/>
      </g>
     </g>
    </g>
   </g>
   <g id="matplotlib.axis_2">
    <g id="ytick_1">
     <g id="line2d_12">
      <defs>
       <path id="m6a66d6a7e3" d="M 0 0 
L -3.5 0 
" style="stroke: #000000; stroke-width: 0.8"/>
      </defs>
      <g>
       <use xlink:href="#m6a66d6a7e3" x="46.0125" y="335.994214" style="stroke: #000000; stroke-width: 0.8"/>
      </g>
     </g>
     <g id="text_12">
      <!-- 0 -->
      <g transform="translate(32.65 339.793432)scale(0.1 -0.1)">
       <use xlink:href="#DejaVuSans-30"/>
      </g>
     </g>
    </g>
    <g id="ytick_2">
     <g id="line2d_13">
      <g>
       <use xlink:href="#m6a66d6a7e3" x="46.0125" y="291.936621" style="stroke: #000000; stroke-width: 0.8"/>
      </g>
     </g>
     <g id="text_13">
      <!-- 10000 -->
      <g transform="translate(7.2 295.735839)scale(0.1 -0.1)">
       <use xlink:href="#DejaVuSans-31"/>
       <use xlink:href="#DejaVuSans-30" x="63.623047"/>
       <use xlink:href="#DejaVuSans-30" x="127.246094"/>
       <use xlink:href="#DejaVuSans-30" x="190.869141"/>
       <use xlink:href="#DejaVuSans-30" x="254.492188"/>
      </g>
     </g>
    </g>
    <g id="ytick_3">
     <g id="line2d_14">
      <g>
       <use xlink:href="#m6a66d6a7e3" x="46.0125" y="247.879027" style="stroke: #000000; stroke-width: 0.8"/>
      </g>
     </g>
     <g id="text_14">
      <!-- 20000 -->
      <g transform="translate(7.2 251.678246)scale(0.1 -0.1)">
       <use xlink:href="#DejaVuSans-32"/>
       <use xlink:href="#DejaVuSans-30" x="63.623047"/>
       <use xlink:href="#DejaVuSans-30" x="127.246094"/>
       <use xlink:href="#DejaVuSans-30" x="190.869141"/>
       <use xlink:href="#DejaVuSans-30" x="254.492188"/>
      </g>
     </g>
    </g>
    <g id="ytick_4">
     <g id="line2d_15">
      <g>
       <use xlink:href="#m6a66d6a7e3" x="46.0125" y="203.821434" style="stroke: #000000; stroke-width: 0.8"/>
      </g>
     </g>
     <g id="text_15">
      <!-- 30000 -->
      <g transform="translate(7.2 207.620653)scale(0.1 -0.1)">
       <defs>
        <path id="DejaVuSans-33" d="M 2597 2516 
Q 3050 2419 3304 2112 
Q 3559 1806 3559 1356 
Q 3559 666 3084 287 
Q 2609 -91 1734 -91 
Q 1441 -91 1130 -33 
Q 819 25 488 141 
L 488 750 
Q 750 597 1062 519 
Q 1375 441 1716 441 
Q 2309 441 2620 675 
Q 2931 909 2931 1356 
Q 2931 1769 2642 2001 
Q 2353 2234 1838 2234 
L 1294 2234 
L 1294 2753 
L 1863 2753 
Q 2328 2753 2575 2939 
Q 2822 3125 2822 3475 
Q 2822 3834 2567 4026 
Q 2313 4219 1838 4219 
Q 1578 4219 1281 4162 
Q 984 4106 628 3988 
L 628 4550 
Q 988 4650 1302 4700 
Q 1616 4750 1894 4750 
Q 2613 4750 3031 4423 
Q 3450 4097 3450 3541 
Q 3450 3153 3228 2886 
Q 3006 2619 2597 2516 
z
" transform="scale(0.015625)"/>
       </defs>
       <use xlink:href="#DejaVuSans-33"/>
       <use xlink:href="#DejaVuSans-30" x="63.623047"/>
       <use xlink:href="#DejaVuSans-30" x="127.246094"/>
       <use xlink:href="#DejaVuSans-30" x="190.869141"/>
       <use xlink:href="#DejaVuSans-30" x="254.492188"/>
      </g>
     </g>
    </g>
    <g id="ytick_5">
     <g id="line2d_16">
      <g>
       <use xlink:href="#m6a66d6a7e3" x="46.0125" y="159.763841" style="stroke: #000000; stroke-width: 0.8"/>
      </g>
     </g>
     <g id="text_16">
      <!-- 40000 -->
      <g transform="translate(7.2 163.56306)scale(0.1 -0.1)">
       <use xlink:href="#DejaVuSans-34"/>
       <use xlink:href="#DejaVuSans-30" x="63.623047"/>
       <use xlink:href="#DejaVuSans-30" x="127.246094"/>
       <use xlink:href="#DejaVuSans-30" x="190.869141"/>
       <use xlink:href="#DejaVuSans-30" x="254.492188"/>
      </g>
     </g>
    </g>
    <g id="ytick_6">
     <g id="line2d_17">
      <g>
       <use xlink:href="#m6a66d6a7e3" x="46.0125" y="115.706248" style="stroke: #000000; stroke-width: 0.8"/>
      </g>
     </g>
     <g id="text_17">
      <!-- 50000 -->
      <g transform="translate(7.2 119.505467)scale(0.1 -0.1)">
       <defs>
        <path id="DejaVuSans-35" d="M 691 4666 
L 3169 4666 
L 3169 4134 
L 1269 4134 
L 1269 2991 
Q 1406 3038 1543 3061 
Q 1681 3084 1819 3084 
Q 2600 3084 3056 2656 
Q 3513 2228 3513 1497 
Q 3513 744 3044 326 
Q 2575 -91 1722 -91 
Q 1428 -91 1123 -41 
Q 819 9 494 109 
L 494 744 
Q 775 591 1075 516 
Q 1375 441 1709 441 
Q 2250 441 2565 725 
Q 2881 1009 2881 1497 
Q 2881 1984 2565 2268 
Q 2250 2553 1709 2553 
Q 1456 2553 1204 2497 
Q 953 2441 691 2322 
L 691 4666 
z
" transform="scale(0.015625)"/>
       </defs>
       <use xlink:href="#DejaVuSans-35"/>
       <use xlink:href="#DejaVuSans-30" x="63.623047"/>
       <use xlink:href="#DejaVuSans-30" x="127.246094"/>
       <use xlink:href="#DejaVuSans-30" x="190.869141"/>
       <use xlink:href="#DejaVuSans-30" x="254.492188"/>
      </g>
     </g>
    </g>
    <g id="ytick_7">
     <g id="line2d_18">
      <g>
       <use xlink:href="#m6a66d6a7e3" x="46.0125" y="71.648655" style="stroke: #000000; stroke-width: 0.8"/>
      </g>
     </g>
     <g id="text_18">
      <!-- 60000 -->
      <g transform="translate(7.2 75.447874)scale(0.1 -0.1)">
       <defs>
        <path id="DejaVuSans-36" d="M 2113 2584 
Q 1688 2584 1439 2293 
Q 1191 2003 1191 1497 
Q 1191 994 1439 701 
Q 1688 409 2113 409 
Q 2538 409 2786 701 
Q 3034 994 3034 1497 
Q 3034 2003 2786 2293 
Q 2538 2584 2113 2584 
z
M 3366 4563 
L 3366 3988 
Q 3128 4100 2886 4159 
Q 2644 4219 2406 4219 
Q 1781 4219 1451 3797 
Q 1122 3375 1075 2522 
Q 1259 2794 1537 2939 
Q 1816 3084 2150 3084 
Q 2853 3084 3261 2657 
Q 3669 2231 3669 1497 
Q 3669 778 3244 343 
Q 2819 -91 2113 -91 
Q 1303 -91 875 529 
Q 447 1150 447 2328 
Q 447 3434 972 4092 
Q 1497 4750 2381 4750 
Q 2619 4750 2861 4703 
Q 3103 4656 3366 4563 
z
" transform="scale(0.015625)"/>
       </defs>
       <use xlink:href="#DejaVuSans-36"/>
       <use xlink:href="#DejaVuSans-30" x="63.623047"/>
       <use xlink:href="#DejaVuSans-30" x="127.246094"/>
       <use xlink:href="#DejaVuSans-30" x="190.869141"/>
       <use xlink:href="#DejaVuSans-30" x="254.492188"/>
      </g>
     </g>
    </g>
   </g>
   <g id="line2d_19">
    <path d="M 106.885227 335.994214 
L 165.182048 335.932533 
L 166.537789 335.80036 
L 169.249269 335.972185 
L 177.383709 335.694622 
L 180.095189 334.901585 
L 182.806669 334.769412 
L 184.162409 334.289185 
L 185.518149 334.575559 
L 186.873889 334.734166 
L 188.229629 333.315512 
L 189.585369 332.830878 
L 190.941109 332.698706 
L 192.296849 331.874829 
L 193.652589 331.848394 
L 195.008329 333.09963 
L 196.364069 333.690001 
L 197.719809 330.539884 
L 199.075549 330.425334 
L 200.431289 330.094902 
L 201.787029 330.359247 
L 203.142769 329.447255 
L 204.498509 330.870316 
L 205.854249 331.672164 
L 207.209989 327.486692 
L 208.565729 327.076957 
L 209.921469 327.786284 
L 211.277209 327.23997 
L 212.632949 326.918349 
L 213.98869 330.262321 
L 215.34443 331.88364 
L 216.70017 327.081363 
L 218.05591 323.310033 
L 219.41165 324.517211 
L 220.76739 325.455637 
L 222.12313 322.785747 
L 223.47887 329.434038 
L 224.83461 331.178719 
L 226.19035 324.13391 
L 227.54609 326.323572 
L 228.90183 324.0502 
L 230.25757 325.389551 
L 231.61331 325.931459 
L 232.96905 329.394386 
L 234.32479 332.262535 
L 235.68053 326.601135 
L 237.03627 326.702467 
L 238.39201 326.341195 
L 239.74775 326.958001 
L 241.10349 326.8038 
L 242.45923 331.451876 
L 243.81497 332.738357 
L 245.17071 327.702575 
L 246.52645 328.337004 
L 249.23793 328.570509 
L 250.59367 329.575022 
L 251.94941 332.945428 
L 253.30515 334.253939 
L 254.66089 330.218263 
L 256.01663 329.592645 
L 257.37237 330.191829 
L 258.72811 330.196234 
L 260.08385 331.112632 
L 261.439591 333.126064 
L 262.795331 334.355271 
L 264.151071 330.178611 
L 265.506811 331.249211 
L 268.218291 331.685381 
L 269.574031 332.103928 
L 270.929771 334.23191 
L 273.641251 335.046975 
L 274.996991 332.099522 
L 276.352731 332.866124 
L 277.708471 333.126064 
L 279.064211 333.628321 
L 280.419951 334.738572 
L 281.775691 335.245235 
L 283.131431 333.729653 
L 284.487171 333.993999 
L 285.842911 333.927912 
L 287.198651 334.311214 
L 288.554391 334.496255 
L 289.910131 335.324538 
L 291.265871 335.315727 
L 292.621611 334.386111 
L 293.977351 334.447792 
L 295.333091 334.822282 
L 296.688831 334.941237 
L 298.044571 334.835499 
L 299.400311 335.531609 
L 300.756051 335.62413 
L 302.111791 334.941237 
L 303.467531 335.069004 
L 304.823271 334.853122 
L 306.179011 334.84431 
L 308.890491 335.566855 
L 310.246232 335.628536 
L 311.601972 334.980889 
L 312.957712 335.130685 
L 315.669192 335.051381 
L 317.024932 335.077816 
L 319.736412 335.672593 
L 321.092152 335.077816 
L 323.803632 334.994106 
L 325.159372 334.963266 
L 326.515112 335.513986 
L 327.870852 335.699028 
L 329.226592 335.487551 
L 330.582332 334.892774 
L 336.005292 334.910397 
L 337.361032 335.439088 
L 338.716772 335.544826 
L 340.072512 334.663674 
L 341.428252 334.950049 
L 342.783992 334.593182 
L 344.139732 334.910397 
L 345.495472 334.914803 
L 346.851212 335.399436 
L 348.206952 335.580072 
L 349.562692 334.703326 
L 354.985652 334.751789 
L 356.341392 335.183554 
L 357.697133 335.36419 
L 359.052873 334.297996 
L 361.764353 334.447792 
L 364.475833 334.438981 
L 365.831573 335.324538 
L 367.187313 335.461117 
L 368.543053 334.315619 
L 369.898793 334.566748 
L 372.610273 334.311214 
L 373.966013 334.562342 
L 375.321753 335.192365 
L 376.677493 335.544826 
L 378.033233 334.320025 
L 379.388973 334.641645 
L 380.744713 334.615211 
L 382.100453 334.368488 
L 383.456193 334.403734 
L 384.811933 335.2188 
L 386.167673 335.461117 
L 387.523413 334.311214 
L 388.879153 334.245127 
L 390.234893 334.483038 
L 391.590633 334.403734 
L 392.946373 334.672486 
L 394.302113 335.267263 
L 395.657853 335.50958 
L 397.013593 334.174635 
L 402.436553 334.337648 
L 403.792293 335.099844 
L 405.148034 335.302509 
L 406.503774 334.011622 
L 407.859514 334.214287 
L 409.215254 334.214287 
L 410.570994 337.227826 
L 411.926734 335.060193 
L 413.282474 334.064491 
L 414.638214 334.381706 
L 415.993954 334.985295 
L 417.349694 335.240829 
L 418.705434 335.196771 
L 420.061174 334.218693 
L 421.416914 334.055679 
L 422.772654 333.553423 
L 424.128394 334.734166 
L 425.484134 334.875151 
L 426.839874 334.615211 
L 428.195614 334.646051 
L 429.551354 334.104143 
L 430.907094 333.993999 
L 432.262834 333.355164 
L 433.618574 334.412546 
L 436.330054 335.232017 
L 437.685794 333.601886 
L 439.041534 333.875043 
L 440.397274 333.844203 
L 441.753014 333.487337 
L 443.108754 333.386004 
L 444.464494 334.099737 
L 445.820234 333.738465 
L 447.175974 333.65035 
L 448.531714 332.672271 
L 449.887454 332.641431 
L 451.243194 333.033543 
L 452.598935 333.156905 
L 453.954675 333.725248 
L 455.310415 333.813363 
L 456.666155 333.637132 
L 458.021895 334.038056 
L 459.377635 332.623808 
L 460.733375 333.178933 
L 462.089115 333.513771 
L 463.444855 332.645837 
L 464.800595 332.6943 
L 466.156335 333.438873 
L 467.512075 333.408033 
L 468.867815 332.614996 
L 470.223555 333.42125 
L 471.579295 332.778009 
L 472.935035 332.346245 
L 474.290775 331.694192 
L 475.646515 332.901371 
L 477.002255 331.372572 
L 478.357995 331.280051 
L 479.713735 330.694085 
L 481.069475 331.249211 
L 482.425215 330.654433 
L 483.780955 330.442957 
L 485.136695 330.791012 
L 486.492435 330.064062 
L 487.848175 329.024302 
L 489.203915 329.693978 
L 491.915395 332.284564 
L 493.271135 331.429847 
L 494.626875 328.442742 
L 495.982615 327.79069 
L 497.338355 326.684844 
L 498.694095 325.852156 
L 501.405576 330.143365 
L 502.761316 326.504208 
L 504.117056 324.274894 
L 505.472796 324.327763 
L 506.828536 323.191077 
L 508.184276 322.569865 
L 509.540016 326.596729 
L 510.895756 326.46015 
L 513.607236 323.199889 
L 514.962976 324.177967 
L 516.318716 325.424797 
L 517.674456 321.869349 
L 519.030196 324.120692 
L 520.385936 328.182802 
L 523.097416 321.036661 
L 524.453156 335.994214 
L 525.808896 315.472187 
L 527.164636 321.820886 
L 528.520376 325.001844 
L 529.876116 330.848287 
L 532.587596 313.846462 
L 533.943336 306.58577 
L 535.299076 311.802189 
L 536.654816 311.238252 
L 538.010556 314.727613 
L 539.366296 325.063525 
L 540.722036 317.833674 
L 542.077776 309.713859 
L 543.433516 312.339692 
L 544.789256 311.079645 
L 546.144996 312.692153 
L 547.500736 314.613064 
L 548.856477 319.899975 
L 550.212217 318.683985 
L 551.567957 309.771134 
L 552.923697 313.37064 
L 554.279437 310.973906 
L 555.635177 316.855595 
L 556.990917 317.221273 
L 558.346657 319.062881 
L 559.702397 319.252328 
L 561.058137 314.784888 
L 562.413877 309.837221 
L 563.769617 335.994214 
L 565.125357 302.171199 
L 566.481097 322.186564 
L 567.836837 317.498836 
L 569.192577 317.732341 
L 570.548317 305.863226 
L 571.904057 304.008401 
L 573.259797 335.994214 
L 574.615537 296.329163 
L 575.971277 320.657765 
L 577.327017 314.379558 
L 578.682757 315.577925 
L 580.038497 305.810357 
L 581.394237 302.739542 
L 582.749977 300.219448 
L 584.105717 303.329914 
L 585.461457 311.075239 
L 586.817197 317.265331 
L 588.172937 311.819812 
L 589.528677 309.92093 
L 590.884417 309.757917 
L 592.240157 311.652393 
L 593.595897 310.445215 
L 594.951637 316.547192 
L 596.307378 321.450802 
L 597.663118 322.402446 
L 599.018858 316.106616 
L 600.374598 313.348611 
L 601.730338 312.767051 
L 603.086078 315.547085 
L 604.441818 318.617899 
L 605.797558 319.908786 
L 607.153298 325.001844 
L 608.509038 321.367093 
L 609.864778 315.591142 
L 611.220518 322.257056 
L 612.576258 317.895354 
L 613.931998 324.252865 
L 615.287738 325.429203 
L 616.643478 326.129718 
L 617.999218 325.178074 
L 619.354958 323.640464 
L 620.710698 321.512483 
L 622.066438 320.049771 
L 623.422178 322.305519 
L 624.777918 329.962729 
L 626.133658 328.975839 
L 627.489398 326.962407 
L 628.845138 325.200103 
L 630.200878 325.349899 
L 631.556618 326.817017 
L 632.912358 327.702575 
L 634.268098 329.063954 
L 635.623838 330.592753 
L 636.979578 330.002381 
L 638.335318 327.006465 
L 639.691058 327.984543 
L 641.046798 327.314868 
L 642.402538 329.297459 
L 643.758278 330.434145 
L 645.114019 330.544289 
L 646.469759 326.733308 
L 647.825499 326.706873 
L 649.181239 327.23997 
L 650.536979 328.504423 
L 651.892719 329.526559 
L 653.248459 329.848179 
L 654.604199 334.66808 
L 655.959939 327.627677 
L 657.315679 329.090389 
L 658.671419 327.627677 
L 660.027159 328.407496 
L 661.382899 329.716007 
L 662.738639 331.641323 
L 664.094379 330.42974 
L 665.450119 328.69387 
L 666.805859 328.024195 
L 669.517339 328.253294 
L 670.873079 328.539669 
L 672.228819 330.901156 
L 673.584559 330.698491 
L 674.940299 328.455959 
L 679.007519 325.526129 
L 681.718999 330.680868 
L 683.074739 327.971326 
L 685.786219 325.376334 
L 687.141959 323.834318 
L 688.497699 324.671412 
L 689.853439 327.292839 
L 691.209179 329.385575 
L 692.56492 326.962407 
L 693.92066 324.984221 
L 695.2764 323.838724 
L 696.63214 325.244161 
L 697.98788 325.186886 
L 699.34362 335.994214 
L 700.69936 322.829805 
L 702.0551 328.05063 
L 703.41084 324.759527 
L 704.76658 325.451232 
L 706.12232 325.808098 
L 707.47806 325.860967 
L 708.8338 327.222347 
L 710.18954 329.24459 
L 711.54528 328.95381 
L 712.90102 326.10769 
L 714.25676 326.640787 
L 715.6125 326.231051 
L 716.96824 327.323679 
L 718.32398 329.79531 
L 719.67972 330.191829 
L 721.03546 330.760172 
L 722.3912 328.962622 
L 723.74694 328.821637 
L 725.10268 328.852478 
L 726.45842 329.108012 
L 729.1699 332.11274 
L 730.52564 331.742656 
L 731.88138 328.887724 
L 733.23712 329.848179 
L 734.59286 330.112525 
L 735.9486 330.240292 
L 737.30434 332.059871 
L 738.66008 333.513771 
L 740.015821 332.231695 
L 742.727301 330.879127 
L 745.438781 332.491635 
L 746.794521 332.214072 
L 748.150261 333.905884 
L 749.506001 333.549017 
L 750.861741 332.645837 
L 752.217481 332.817661 
L 753.573221 334.104143 
L 754.928961 330.914373 
L 756.284701 333.575452 
L 757.640441 334.676892 
L 758.996181 334.064491 
L 761.707661 333.328729 
L 763.063401 334.020433 
L 764.419141 334.007216 
L 767.130621 334.9897 
L 768.486361 334.9897 
L 769.842101 334.104143 
L 771.197841 334.914803 
L 772.553581 334.729761 
L 775.265061 335.280481 
L 776.620801 335.994214 
L 777.976541 335.174742 
L 779.332281 335.403842 
L 780.688021 334.857528 
L 782.043761 335.113062 
L 783.399501 335.038164 
L 784.755241 335.36419 
L 786.110981 335.500769 
L 791.533942 335.417059 
L 792.889682 335.439088 
L 794.245422 335.822389 
L 796.956902 335.646159 
L 798.312642 335.694622 
L 799.668382 335.522797 
L 801.024122 335.659376 
L 802.379862 335.593289 
L 803.735602 335.813577 
L 810.514302 335.729868 
L 815.937262 335.716651 
L 817.293002 335.584478 
L 820.004482 335.602101 
L 821.360222 335.994214 
L 824.071702 335.994214 
L 825.427442 334.716543 
L 826.783182 335.593289 
L 828.138922 335.50958 
L 829.494662 335.108656 
L 830.850402 335.994214 
L 832.206142 335.994214 
L 833.561882 334.531501 
L 836.273363 334.980889 
L 838.984843 334.544719 
L 840.340583 335.994214 
L 841.696323 335.994214 
L 843.052063 332.623808 
L 844.407803 334.00281 
L 845.763543 333.68119 
L 847.119283 333.606292 
L 848.475023 333.24502 
L 849.830763 335.994214 
L 851.186503 335.994214 
L 852.542243 330.390088 
L 853.897983 332.328622 
L 855.253723 333.086412 
L 856.609463 332.007001 
L 857.965203 331.892452 
L 859.320943 335.994214 
L 860.676683 335.994214 
L 862.032423 326.72009 
L 863.388163 331.143473 
L 864.743903 331.44747 
L 866.099643 330.835069 
L 867.455383 330.680868 
L 868.811123 335.994214 
L 870.166863 335.994214 
L 871.522603 324.31014 
L 872.878343 330.116931 
L 874.234083 329.64992 
L 876.945563 330.275538 
L 878.301303 335.994214 
L 879.657043 335.994214 
L 881.012783 322.3672 
L 882.368523 329.526559 
L 883.724264 329.03752 
L 885.080004 329.050737 
L 886.435744 329.240185 
L 887.791484 335.994214 
L 889.147224 335.994214 
L 890.502964 320.935328 
L 891.858704 328.944999 
L 893.214444 329.407603 
L 894.570184 327.662923 
L 895.925924 328.698276 
L 897.281664 335.994214 
L 898.637404 335.994214 
L 899.993144 317.053854 
L 901.348884 328.173991 
L 902.704624 327.019682 
L 904.060364 328.209237 
L 905.416104 327.574808 
L 906.771844 335.994214 
L 909.483324 335.994214 
L 910.839064 310.956283 
L 912.194804 329.495719 
L 913.550544 325.389551 
L 914.906284 327.742226 
L 916.262024 335.994214 
L 917.617764 335.994214 
L 918.973504 313.590928 
L 920.329244 328.755551 
L 921.684984 323.318844 
L 923.040724 326.530643 
L 924.396464 326.39847 
L 925.752204 335.994214 
L 927.107944 335.994214 
L 928.463684 315.771778 
L 929.819424 329.905454 
L 931.175165 327.27081 
L 932.530905 327.165072 
L 933.886645 327.535156 
L 935.242385 335.994214 
L 936.598125 335.994214 
L 937.953865 316.815943 
L 939.309605 329.425226 
L 940.665345 328.742334 
L 942.021085 328.804014 
L 943.376825 328.733522 
L 944.732565 335.994214 
L 946.088305 335.994214 
L 947.444045 321.230514 
L 948.799785 330.090496 
L 950.155525 328.729116 
L 951.511265 328.407496 
L 952.867005 327.958109 
L 954.222745 335.994214 
L 956.934225 335.994214 
L 958.289965 316.410613 
L 959.645705 327.433823 
L 962.357185 328.729116 
L 963.712925 335.994214 
L 965.068665 335.994214 
L 966.424405 322.816587 
L 967.780145 326.984436 
L 969.135885 329.517747 
L 970.491625 329.90986 
L 971.847365 329.58824 
L 973.203105 335.994214 
L 974.558845 335.994214 
L 975.914585 321.049878 
L 977.270325 329.526559 
L 978.626065 329.671949 
L 979.981806 335.324538 
L 981.337546 323.556755 
L 982.693286 335.994214 
L 984.049026 335.994214 
L 985.404766 321.419962 
L 986.760506 330.425334 
L 988.116246 329.539776 
L 989.471986 328.266512 
L 990.827726 328.209237 
L 992.183466 335.994214 
L 993.539206 335.994214 
L 994.894946 316.934899 
L 996.250686 329.21375 
L 997.606426 327.411794 
L 998.962166 335.994214 
L 1000.317906 318.424045 
L 1001.673646 335.994214 
L 1003.029386 335.994214 
L 1004.385126 310.238145 
L 1005.740866 326.376441 
L 1007.096606 322.825399 
L 1008.452346 320.177538 
L 1009.808086 323.464234 
L 1011.163826 335.994214 
L 1012.519566 335.994214 
L 1013.875306 304.532686 
L 1015.231046 322.287896 
L 1016.586786 320.917705 
L 1017.942526 335.994214 
L 1019.298266 312.652501 
L 1020.654006 335.994214 
L 1022.009746 335.994214 
L 1023.365486 310.484867 
L 1024.721226 320.124669 
L 1026.076966 312.630472 
L 1027.432707 310.973906 
L 1028.788447 310.595011 
L 1030.144187 335.994214 
L 1031.499927 335.994214 
L 1032.855667 284.803696 
L 1034.211407 316.141862 
L 1035.567147 309.912118 
L 1036.922887 309.409862 
L 1038.278627 311.031181 
L 1039.634367 335.994214 
L 1040.990107 335.994214 
L 1042.345847 284.570191 
L 1043.701587 315.353231 
L 1045.057327 310.603823 
L 1046.413067 306.515278 
L 1047.768807 304.845495 
L 1049.124547 335.994214 
L 1050.480287 335.994214 
L 1051.836027 273.379562 
L 1053.191767 307.590283 
L 1054.547507 298.095872 
L 1057.258987 287.544078 
L 1058.614727 335.994214 
L 1059.970467 335.994214 
L 1061.326207 275.234387 
L 1062.681947 290.394605 
L 1065.393427 238.688614 
L 1066.749167 235.97026 
L 1068.104907 335.994214 
L 1069.460647 335.994214 
L 1070.816387 190.207638 
L 1072.172127 252.967679 
L 1073.527867 200.274798 
L 1074.883608 215.227945 
L 1076.239348 207.509055 
L 1077.595088 335.994214 
L 1078.950828 335.994214 
L 1080.306568 50.8755 
L 1081.662308 243.62747 
L 1083.018048 228.951885 
L 1084.373788 240.349585 
L 1085.729528 271.361725 
L 1087.085268 335.994214 
L 1089.796748 335.994214 
L 1091.152488 67.26933 
L 1092.508228 264.968968 
L 1093.863968 263.805847 
L 1095.219708 264.982185 
L 1096.575448 335.619724 
L 1097.931188 335.994214 
L 1099.286928 216.893322 
L 1100.642668 297.968105 
L 1101.998408 296.540639 
L 1103.354148 293.271566 
L 1104.709888 300.091681 
L 1106.065628 335.994214 
L 1107.421368 335.994214 
L 1108.777108 278.089319 
L 1110.132848 322.565459 
L 1111.488588 311.207412 
L 1112.844328 312.044506 
L 1114.200068 315.031611 
L 1115.555808 335.994214 
L 1116.911548 335.994214 
L 1118.267288 304.863118 
L 1119.623028 326.618758 
L 1120.978768 321.719553 
L 1122.334509 323.160237 
L 1123.690249 323.451017 
L 1125.045989 335.994214 
L 1126.401729 335.994214 
L 1127.757469 317.60898 
L 1129.113209 328.574915 
L 1130.468949 327.627677 
L 1131.824689 324.261677 
L 1133.180429 326.60554 
L 1134.536169 335.994214 
L 1137.247649 335.994214 
L 1138.603389 316.696988 
L 1139.959129 331.429847 
L 1141.314869 328.856884 
L 1142.670609 330.037627 
L 1144.026349 335.994214 
L 1145.382089 335.994214 
L 1146.737829 328.513234 
L 1148.093569 330.257915 
L 1149.449309 331.513556 
L 1150.805049 331.703004 
L 1152.160789 330.786606 
L 1153.516529 335.994214 
L 1154.872269 335.994214 
L 1156.228009 327.834747 
L 1157.583749 333.227397 
L 1158.939489 332.526881 
L 1160.295229 332.086305 
L 1161.650969 332.681083 
L 1163.006709 335.994214 
L 1164.362449 335.994214 
L 1165.718189 327.09458 
L 1167.073929 333.654755 
L 1168.429669 332.416737 
L 1169.785409 331.504745 
L 1171.14115 332.108334 
L 1172.49689 335.994214 
L 1173.85263 335.994214 
L 1175.20837 328.138745 
L 1176.56411 332.407926 
L 1177.91985 330.63681 
L 1179.27559 330.561912 
L 1180.63133 330.733737 
L 1181.98707 335.994214 
L 1183.34281 335.994214 
L 1184.69855 324.433501 
L 1186.05429 331.813148 
L 1187.41003 329.760064 
L 1188.76577 328.962622 
L 1190.12151 328.944999 
L 1191.47725 335.994214 
L 1192.83299 335.994214 
L 1194.18873 322.353983 
L 1195.54447 330.658839 
L 1196.90021 329.420821 
L 1198.25595 327.288433 
L 1199.61169 328.222454 
L 1200.96743 335.994214 
L 1202.32317 335.994214 
L 1203.67891 317.194839 
L 1205.03465 327.261999 
L 1206.39039 326.134124 
L 1207.74613 321.653467 
L 1209.10187 323.979708 
L 1210.45761 335.994214 
L 1213.16909 335.994214 
L 1214.52483 306.030645 
L 1215.88057 327.244376 
L 1217.23631 324.530428 
L 1218.592051 325.098771 
L 1219.947791 335.994214 
L 1221.303531 335.994214 
L 1222.659271 310.665503 
L 1224.015011 324.468747 
L 1226.726491 319.499051 
L 1228.082231 320.208378 
L 1229.437971 335.994214 
L 1230.793711 335.994214 
L 1232.149451 306.250932 
L 1233.505191 322.922326 
L 1234.860931 320.662171 
L 1236.216671 313.921359 
L 1237.572411 316.088993 
L 1238.928151 335.994214 
L 1240.283891 335.994214 
L 1241.639631 295.077927 
L 1242.995371 320.107046 
L 1244.351111 315.789401 
L 1245.706851 307.255446 
L 1247.062591 311.859464 
L 1248.418331 335.994214 
L 1249.774071 335.994214 
L 1251.129811 284.173673 
L 1252.485551 317.595763 
L 1253.841291 314.930278 
L 1255.197031 311.158948 
L 1256.552771 315.608765 
L 1257.908511 335.994214 
L 1259.264251 335.994214 
L 1260.619991 299.148848 
L 1261.975731 322.177752 
L 1263.331471 319.653252 
L 1264.687211 318.547407 
L 1266.042952 320.058582 
L 1267.398692 335.994214 
L 1270.110172 335.994214 
L 1271.465912 301.809927 
L 1272.821652 326.310355 
L 1274.177392 322.353983 
L 1275.533132 321.071907 
L 1276.888872 335.994214 
L 1278.244612 335.994214 
L 1279.600352 311.687639 
L 1280.956092 325.464449 
L 1282.311832 326.636381 
L 1285.023312 325.548158 
L 1286.379052 335.994214 
L 1287.734792 335.994214 
L 1289.090532 316.934899 
L 1290.446272 327.70698 
L 1291.802012 328.544075 
L 1293.157752 327.777472 
L 1294.513492 328.121122 
L 1295.869232 335.994214 
L 1298.580712 335.994214 
L 1299.936452 316.657336 
L 1301.292192 327.640894 
L 1302.647932 327.914051 
L 1304.003672 327.508721 
L 1305.359412 335.994214 
L 1306.715152 335.994214 
L 1306.715152 335.994214 
" clip-path="url(#p1e70321216)" style="fill: none; stroke: #0000ff; stroke-width: 1.5; stroke-linecap: square"/>
   </g>
   <g id="line2d_20">
    <path d="M 1066.749167 306.455576 
L 1068.104907 293.317844 
L 1069.460647 255.760721 
L 1070.816387 284.315487 
L 1072.172127 266.922723 
L 1073.527867 246.733816 
L 1074.883608 236.050534 
L 1076.239348 274.163176 
L 1077.595088 267.096344 
L 1078.950828 204.462 
L 1080.306568 255.756618 
L 1081.662308 213.343425 
L 1083.018048 194.230794 
L 1084.373788 197.064963 
L 1085.729528 269.472494 
L 1087.085268 280.657256 
L 1088.441008 163.400478 
L 1089.796748 247.750959 
L 1091.152488 266.706255 
L 1092.508228 257.373115 
L 1093.863968 242.139296 
L 1095.219708 303.755175 
L 1096.575448 307.484655 
L 1097.931188 249.586484 
L 1099.286928 203.326267 
L 1100.642668 256.089632 
L 1101.998408 266.161315 
L 1103.354148 285.99731 
L 1104.709888 339.077642 
L 1106.065628 341.936253 
L 1107.421368 271.904542 
L 1108.777108 271.964828 
L 1110.132848 298.763198 
L 1111.488588 306.373353 
L 1112.844328 316.87486 
L 1114.200068 352.82509 
L 1115.555808 353.2755 
L 1116.911548 297.764321 
L 1118.267288 309.604058 
L 1119.623028 318.746023 
L 1120.978768 322.672511 
L 1122.334509 327.449976 
L 1123.690249 351.574966 
L 1125.045989 351.581193 
L 1126.401729 313.310964 
L 1127.757469 324.719324 
L 1129.113209 327.366122 
L 1131.824689 331.474757 
L 1133.180429 346.636753 
L 1134.536169 345.884924 
L 1135.891909 320.858291 
L 1137.247649 329.034514 
L 1138.603389 332.368492 
L 1139.959129 331.444003 
L 1141.314869 331.158104 
L 1142.670609 342.0667 
L 1144.026349 342.040009 
L 1145.382089 329.997061 
L 1146.737829 327.304339 
L 1148.093569 332.225301 
L 1149.449309 331.508832 
L 1150.805049 332.85544 
L 1152.160789 339.969746 
L 1153.516529 339.864182 
L 1154.872269 331.283923 
L 1156.228009 330.507592 
L 1157.583749 332.788687 
L 1158.939489 332.489916 
L 1160.295229 333.083467 
L 1161.650969 338.116549 
L 1163.006709 338.100603 
L 1164.362449 331.269614 
L 1165.718189 332.75512 
L 1167.073929 333.224059 
L 1168.429669 332.68206 
L 1169.785409 333.174973 
L 1171.14115 336.55364 
L 1172.49689 336.324266 
L 1173.85263 330.02088 
L 1175.20837 333.149594 
L 1176.56411 333.048726 
L 1177.91985 332.356781 
L 1179.27559 332.434171 
L 1180.63133 335.108475 
L 1181.98707 334.750863 
L 1183.34281 329.108059 
L 1184.69855 332.565303 
L 1186.05429 331.433679 
L 1187.41003 330.629481 
L 1188.76577 330.812331 
L 1190.12151 333.78516 
L 1191.47725 333.313771 
L 1192.83299 326.791658 
L 1194.18873 331.573377 
L 1195.54447 330.128348 
L 1196.90021 329.08963 
L 1198.25595 329.279092 
L 1199.61169 333.00877 
L 1200.96743 332.574341 
L 1202.32317 325.026181 
L 1203.67891 330.87681 
L 1205.03465 329.13125 
L 1206.39039 326.918364 
L 1207.74613 327.065369 
L 1209.10187 330.848307 
L 1210.45761 329.791292 
L 1211.81335 320.081182 
L 1213.16909 326.70209 
L 1214.52483 329.387643 
L 1215.88057 325.562281 
L 1217.23631 323.720785 
L 1218.592051 330.525883 
L 1219.947791 330.598396 
L 1221.303531 326.380166 
L 1222.659271 320.713195 
L 1224.015011 325.347022 
L 1225.370751 322.50914 
L 1226.726491 323.824808 
L 1228.082231 329.798954 
L 1229.437971 328.797159 
L 1230.793711 318.303312 
L 1232.149451 321.668892 
L 1233.505191 322.617095 
L 1234.860931 319.71583 
L 1236.216671 320.873488 
L 1237.572411 328.604789 
L 1238.928151 327.084451 
L 1240.283891 312.260931 
L 1241.639631 321.365692 
L 1242.995371 319.68328 
L 1244.351111 314.53927 
L 1245.706851 315.915247 
L 1247.062591 325.645515 
L 1248.418331 324.039172 
L 1249.774071 303.723343 
L 1251.129811 318.913815 
L 1252.485551 315.340349 
L 1253.841291 308.43399 
L 1255.197031 311.113046 
L 1256.552771 324.903397 
L 1257.908511 325.294394 
L 1259.264251 298.913864 
L 1260.619991 318.290502 
L 1261.975731 317.153427 
L 1263.331471 313.818981 
L 1264.687211 316.917251 
L 1266.042952 331.029072 
L 1267.398692 331.61742 
L 1268.754432 306.330791 
L 1270.110172 322.170485 
L 1271.465912 326.007912 
L 1272.821652 323.452708 
L 1274.177392 322.146885 
L 1275.533132 334.81275 
L 1276.888872 334.647213 
L 1278.244612 322.157399 
L 1279.600352 318.877912 
L 1280.956092 324.755773 
L 1282.311832 322.340193 
L 1283.667572 323.919641 
L 1285.023312 335.091341 
L 1286.379052 335.500923 
L 1287.734792 321.405344 
L 1290.446272 327.707951 
L 1291.802012 326.448552 
L 1293.157752 327.014834 
L 1294.513492 335.835398 
L 1295.869232 336.055296 
L 1297.224972 322.815933 
L 1299.936452 331.879437 
L 1301.292192 330.76914 
L 1302.647932 328.823688 
L 1304.003672 335.382536 
L 1305.359412 335.156792 
L 1306.715152 328.770604 
L 1306.715152 328.770604 
" clip-path="url(#p1e70321216)" style="fill: none; stroke: #ffa500; stroke-width: 1.5; stroke-linecap: square"/>
   </g>
   <g id="line2d_21">
    <path d="M 1306.715152 328.770604 
L 1308.070892 324.775994 
L 1309.426632 329.642229 
L 1310.782372 329.273372 
L 1312.138112 329.195801 
L 1313.493853 335.384635 
L 1314.849593 335.382983 
L 1316.205333 329.865028 
L 1317.561073 326.480828 
L 1318.916813 330.449411 
L 1320.272553 330.16649 
L 1321.628293 330.100494 
L 1322.984033 335.174512 
L 1324.339773 335.173945 
" clip-path="url(#p1e70321216)" style="fill: none; stroke: #ff0000; stroke-width: 1.5; stroke-linecap: square"/>
   </g>
   <g id="patch_3">
    <path d="M 46.0125 368.3955 
L 46.0125 35.7555 
" style="fill: none; stroke: #000000; stroke-width: 0.8; stroke-linejoin: miter; stroke-linecap: square"/>
   </g>
   <g id="patch_4">
    <path d="M 1385.2125 368.3955 
L 1385.2125 35.7555 
" style="fill: none; stroke: #000000; stroke-width: 0.8; stroke-linejoin: miter; stroke-linecap: square"/>
   </g>
   <g id="patch_5">
    <path d="M 46.0125 368.3955 
L 1385.2125 368.3955 
" style="fill: none; stroke: #000000; stroke-width: 0.8; stroke-linejoin: miter; stroke-linecap: square"/>
   </g>
   <g id="patch_6">
    <path d="M 46.0125 35.7555 
L 1385.2125 35.7555 
" style="fill: none; stroke: #000000; stroke-width: 0.8; stroke-linejoin: miter; stroke-linecap: square"/>
   </g>
   <g id="text_19">
    <!-- Daily Confirmed Cases Forecasting - Massachusetts -->
    <g transform="translate(560.77875 16.318125)scale(0.12 -0.12)">
     <defs>
      <path id="DejaVuSans-44" d="M 1259 4147 
L 1259 519 
L 2022 519 
Q 2988 519 3436 956 
Q 3884 1394 3884 2338 
Q 3884 3275 3436 3711 
Q 2988 4147 2022 4147 
L 1259 4147 
z
M 628 4666 
L 1925 4666 
Q 3281 4666 3915 4102 
Q 4550 3538 4550 2338 
Q 4550 1131 3912 565 
Q 3275 0 1925 0 
L 628 0 
L 628 4666 
z
" transform="scale(0.015625)"/>
      <path id="DejaVuSans-61" d="M 2194 1759 
Q 1497 1759 1228 1600 
Q 959 1441 959 1056 
Q 959 750 1161 570 
Q 1363 391 1709 391 
Q 2188 391 2477 730 
Q 2766 1069 2766 1631 
L 2766 1759 
L 2194 1759 
z
M 3341 1997 
L 3341 0 
L 2766 0 
L 2766 531 
Q 2569 213 2275 61 
Q 1981 -91 1556 -91 
Q 1019 -91 701 211 
Q 384 513 384 1019 
Q 384 1609 779 1909 
Q 1175 2209 1959 2209 
L 2766 2209 
L 2766 2266 
Q 2766 2663 2505 2880 
Q 2244 3097 1772 3097 
Q 1472 3097 1187 3025 
Q 903 2953 641 2809 
L 641 3341 
Q 956 3463 1253 3523 
Q 1550 3584 1831 3584 
Q 2591 3584 2966 3190 
Q 3341 2797 3341 1997 
z
" transform="scale(0.015625)"/>
      <path id="DejaVuSans-69" d="M 603 3500 
L 1178 3500 
L 1178 0 
L 603 0 
L 603 3500 
z
M 603 4863 
L 1178 4863 
L 1178 4134 
L 603 4134 
L 603 4863 
z
" transform="scale(0.015625)"/>
      <path id="DejaVuSans-6c" d="M 603 4863 
L 1178 4863 
L 1178 0 
L 603 0 
L 603 4863 
z
" transform="scale(0.015625)"/>
      <path id="DejaVuSans-79" d="M 2059 -325 
Q 1816 -950 1584 -1140 
Q 1353 -1331 966 -1331 
L 506 -1331 
L 506 -850 
L 844 -850 
Q 1081 -850 1212 -737 
Q 1344 -625 1503 -206 
L 1606 56 
L 191 3500 
L 800 3500 
L 1894 763 
L 2988 3500 
L 3597 3500 
L 2059 -325 
z
" transform="scale(0.015625)"/>
      <path id="DejaVuSans-20" transform="scale(0.015625)"/>
      <path id="DejaVuSans-43" d="M 4122 4306 
L 4122 3641 
Q 3803 3938 3442 4084 
Q 3081 4231 2675 4231 
Q 1875 4231 1450 3742 
Q 1025 3253 1025 2328 
Q 1025 1406 1450 917 
Q 1875 428 2675 428 
Q 3081 428 3442 575 
Q 3803 722 4122 1019 
L 4122 359 
Q 3791 134 3420 21 
Q 3050 -91 2638 -91 
Q 1578 -91 968 557 
Q 359 1206 359 2328 
Q 359 3453 968 4101 
Q 1578 4750 2638 4750 
Q 3056 4750 3426 4639 
Q 3797 4528 4122 4306 
z
" transform="scale(0.015625)"/>
      <path id="DejaVuSans-6f" d="M 1959 3097 
Q 1497 3097 1228 2736 
Q 959 2375 959 1747 
Q 959 1119 1226 758 
Q 1494 397 1959 397 
Q 2419 397 2687 759 
Q 2956 1122 2956 1747 
Q 2956 2369 2687 2733 
Q 2419 3097 1959 3097 
z
M 1959 3584 
Q 2709 3584 3137 3096 
Q 3566 2609 3566 1747 
Q 3566 888 3137 398 
Q 2709 -91 1959 -91 
Q 1206 -91 779 398 
Q 353 888 353 1747 
Q 353 2609 779 3096 
Q 1206 3584 1959 3584 
z
" transform="scale(0.015625)"/>
      <path id="DejaVuSans-6e" d="M 3513 2113 
L 3513 0 
L 2938 0 
L 2938 2094 
Q 2938 2591 2744 2837 
Q 2550 3084 2163 3084 
Q 1697 3084 1428 2787 
Q 1159 2491 1159 1978 
L 1159 0 
L 581 0 
L 581 3500 
L 1159 3500 
L 1159 2956 
Q 1366 3272 1645 3428 
Q 1925 3584 2291 3584 
Q 2894 3584 3203 3211 
Q 3513 2838 3513 2113 
z
" transform="scale(0.015625)"/>
      <path id="DejaVuSans-66" d="M 2375 4863 
L 2375 4384 
L 1825 4384 
Q 1516 4384 1395 4259 
Q 1275 4134 1275 3809 
L 1275 3500 
L 2222 3500 
L 2222 3053 
L 1275 3053 
L 1275 0 
L 697 0 
L 697 3053 
L 147 3053 
L 147 3500 
L 697 3500 
L 697 3744 
Q 697 4328 969 4595 
Q 1241 4863 1831 4863 
L 2375 4863 
z
" transform="scale(0.015625)"/>
      <path id="DejaVuSans-72" d="M 2631 2963 
Q 2534 3019 2420 3045 
Q 2306 3072 2169 3072 
Q 1681 3072 1420 2755 
Q 1159 2438 1159 1844 
L 1159 0 
L 581 0 
L 581 3500 
L 1159 3500 
L 1159 2956 
Q 1341 3275 1631 3429 
Q 1922 3584 2338 3584 
Q 2397 3584 2469 3576 
Q 2541 3569 2628 3553 
L 2631 2963 
z
" transform="scale(0.015625)"/>
      <path id="DejaVuSans-6d" d="M 3328 2828 
Q 3544 3216 3844 3400 
Q 4144 3584 4550 3584 
Q 5097 3584 5394 3201 
Q 5691 2819 5691 2113 
L 5691 0 
L 5113 0 
L 5113 2094 
Q 5113 2597 4934 2840 
Q 4756 3084 4391 3084 
Q 3944 3084 3684 2787 
Q 3425 2491 3425 1978 
L 3425 0 
L 2847 0 
L 2847 2094 
Q 2847 2600 2669 2842 
Q 2491 3084 2119 3084 
Q 1678 3084 1418 2786 
Q 1159 2488 1159 1978 
L 1159 0 
L 581 0 
L 581 3500 
L 1159 3500 
L 1159 2956 
Q 1356 3278 1631 3431 
Q 1906 3584 2284 3584 
Q 2666 3584 2933 3390 
Q 3200 3197 3328 2828 
z
" transform="scale(0.015625)"/>
      <path id="DejaVuSans-65" d="M 3597 1894 
L 3597 1613 
L 953 1613 
Q 991 1019 1311 708 
Q 1631 397 2203 397 
Q 2534 397 2845 478 
Q 3156 559 3463 722 
L 3463 178 
Q 3153 47 2828 -22 
Q 2503 -91 2169 -91 
Q 1331 -91 842 396 
Q 353 884 353 1716 
Q 353 2575 817 3079 
Q 1281 3584 2069 3584 
Q 2775 3584 3186 3129 
Q 3597 2675 3597 1894 
z
M 3022 2063 
Q 3016 2534 2758 2815 
Q 2500 3097 2075 3097 
Q 1594 3097 1305 2825 
Q 1016 2553 972 2059 
L 3022 2063 
z
" transform="scale(0.015625)"/>
      <path id="DejaVuSans-64" d="M 2906 2969 
L 2906 4863 
L 3481 4863 
L 3481 0 
L 2906 0 
L 2906 525 
Q 2725 213 2448 61 
Q 2172 -91 1784 -91 
Q 1150 -91 751 415 
Q 353 922 353 1747 
Q 353 2572 751 3078 
Q 1150 3584 1784 3584 
Q 2172 3584 2448 3432 
Q 2725 3281 2906 2969 
z
M 947 1747 
Q 947 1113 1208 752 
Q 1469 391 1925 391 
Q 2381 391 2643 752 
Q 2906 1113 2906 1747 
Q 2906 2381 2643 2742 
Q 2381 3103 1925 3103 
Q 1469 3103 1208 2742 
Q 947 2381 947 1747 
z
" transform="scale(0.015625)"/>
      <path id="DejaVuSans-73" d="M 2834 3397 
L 2834 2853 
Q 2591 2978 2328 3040 
Q 2066 3103 1784 3103 
Q 1356 3103 1142 2972 
Q 928 2841 928 2578 
Q 928 2378 1081 2264 
Q 1234 2150 1697 2047 
L 1894 2003 
Q 2506 1872 2764 1633 
Q 3022 1394 3022 966 
Q 3022 478 2636 193 
Q 2250 -91 1575 -91 
Q 1294 -91 989 -36 
Q 684 19 347 128 
L 347 722 
Q 666 556 975 473 
Q 1284 391 1588 391 
Q 1994 391 2212 530 
Q 2431 669 2431 922 
Q 2431 1156 2273 1281 
Q 2116 1406 1581 1522 
L 1381 1569 
Q 847 1681 609 1914 
Q 372 2147 372 2553 
Q 372 3047 722 3315 
Q 1072 3584 1716 3584 
Q 2034 3584 2315 3537 
Q 2597 3491 2834 3397 
z
" transform="scale(0.015625)"/>
      <path id="DejaVuSans-46" d="M 628 4666 
L 3309 4666 
L 3309 4134 
L 1259 4134 
L 1259 2759 
L 3109 2759 
L 3109 2228 
L 1259 2228 
L 1259 0 
L 628 0 
L 628 4666 
z
" transform="scale(0.015625)"/>
      <path id="DejaVuSans-63" d="M 3122 3366 
L 3122 2828 
Q 2878 2963 2633 3030 
Q 2388 3097 2138 3097 
Q 1578 3097 1268 2742 
Q 959 2388 959 1747 
Q 959 1106 1268 751 
Q 1578 397 2138 397 
Q 2388 397 2633 464 
Q 2878 531 3122 666 
L 3122 134 
Q 2881 22 2623 -34 
Q 2366 -91 2075 -91 
Q 1284 -91 818 406 
Q 353 903 353 1747 
Q 353 2603 823 3093 
Q 1294 3584 2113 3584 
Q 2378 3584 2631 3529 
Q 2884 3475 3122 3366 
z
" transform="scale(0.015625)"/>
      <path id="DejaVuSans-74" d="M 1172 4494 
L 1172 3500 
L 2356 3500 
L 2356 3053 
L 1172 3053 
L 1172 1153 
Q 1172 725 1289 603 
Q 1406 481 1766 481 
L 2356 481 
L 2356 0 
L 1766 0 
Q 1100 0 847 248 
Q 594 497 594 1153 
L 594 3053 
L 172 3053 
L 172 3500 
L 594 3500 
L 594 4494 
L 1172 4494 
z
" transform="scale(0.015625)"/>
      <path id="DejaVuSans-67" d="M 2906 1791 
Q 2906 2416 2648 2759 
Q 2391 3103 1925 3103 
Q 1463 3103 1205 2759 
Q 947 2416 947 1791 
Q 947 1169 1205 825 
Q 1463 481 1925 481 
Q 2391 481 2648 825 
Q 2906 1169 2906 1791 
z
M 3481 434 
Q 3481 -459 3084 -895 
Q 2688 -1331 1869 -1331 
Q 1566 -1331 1297 -1286 
Q 1028 -1241 775 -1147 
L 775 -588 
Q 1028 -725 1275 -790 
Q 1522 -856 1778 -856 
Q 2344 -856 2625 -561 
Q 2906 -266 2906 331 
L 2906 616 
Q 2728 306 2450 153 
Q 2172 0 1784 0 
Q 1141 0 747 490 
Q 353 981 353 1791 
Q 353 2603 747 3093 
Q 1141 3584 1784 3584 
Q 2172 3584 2450 3431 
Q 2728 3278 2906 2969 
L 2906 3500 
L 3481 3500 
L 3481 434 
z
" transform="scale(0.015625)"/>
      <path id="DejaVuSans-4d" d="M 628 4666 
L 1569 4666 
L 2759 1491 
L 3956 4666 
L 4897 4666 
L 4897 0 
L 4281 0 
L 4281 4097 
L 3078 897 
L 2444 897 
L 1241 4097 
L 1241 0 
L 628 0 
L 628 4666 
z
" transform="scale(0.015625)"/>
      <path id="DejaVuSans-68" d="M 3513 2113 
L 3513 0 
L 2938 0 
L 2938 2094 
Q 2938 2591 2744 2837 
Q 2550 3084 2163 3084 
Q 1697 3084 1428 2787 
Q 1159 2491 1159 1978 
L 1159 0 
L 581 0 
L 581 4863 
L 1159 4863 
L 1159 2956 
Q 1366 3272 1645 3428 
Q 1925 3584 2291 3584 
Q 2894 3584 3203 3211 
Q 3513 2838 3513 2113 
z
" transform="scale(0.015625)"/>
      <path id="DejaVuSans-75" d="M 544 1381 
L 544 3500 
L 1119 3500 
L 1119 1403 
Q 1119 906 1312 657 
Q 1506 409 1894 409 
Q 2359 409 2629 706 
Q 2900 1003 2900 1516 
L 2900 3500 
L 3475 3500 
L 3475 0 
L 2900 0 
L 2900 538 
Q 2691 219 2414 64 
Q 2138 -91 1772 -91 
Q 1169 -91 856 284 
Q 544 659 544 1381 
z
M 1991 3584 
L 1991 3584 
z
" transform="scale(0.015625)"/>
     </defs>
     <use xlink:href="#DejaVuSans-44"/>
     <use xlink:href="#DejaVuSans-61" x="77.001953"/>
     <use xlink:href="#DejaVuSans-69" x="138.28125"/>
     <use xlink:href="#DejaVuSans-6c" x="166.064453"/>
     <use xlink:href="#DejaVuSans-79" x="193.847656"/>
     <use xlink:href="#DejaVuSans-20" x="253.027344"/>
     <use xlink:href="#DejaVuSans-43" x="284.814453"/>
     <use xlink:href="#DejaVuSans-6f" x="354.638672"/>
     <use xlink:href="#DejaVuSans-6e" x="415.820312"/>
     <use xlink:href="#DejaVuSans-66" x="479.199219"/>
     <use xlink:href="#DejaVuSans-69" x="514.404297"/>
     <use xlink:href="#DejaVuSans-72" x="542.1875"/>
     <use xlink:href="#DejaVuSans-6d" x="581.550781"/>
     <use xlink:href="#DejaVuSans-65" x="678.962891"/>
     <use xlink:href="#DejaVuSans-64" x="740.486328"/>
     <use xlink:href="#DejaVuSans-20" x="803.962891"/>
     <use xlink:href="#DejaVuSans-43" x="835.75"/>
     <use xlink:href="#DejaVuSans-61" x="905.574219"/>
     <use xlink:href="#DejaVuSans-73" x="966.853516"/>
     <use xlink:href="#DejaVuSans-65" x="1018.953125"/>
     <use xlink:href="#DejaVuSans-73" x="1080.476562"/>
     <use xlink:href="#DejaVuSans-20" x="1132.576172"/>
     <use xlink:href="#DejaVuSans-46" x="1164.363281"/>
     <use xlink:href="#DejaVuSans-6f" x="1218.257812"/>
     <use xlink:href="#DejaVuSans-72" x="1279.439453"/>
     <use xlink:href="#DejaVuSans-65" x="1318.302734"/>
     <use xlink:href="#DejaVuSans-63" x="1379.826172"/>
     <use xlink:href="#DejaVuSans-61" x="1434.806641"/>
     <use xlink:href="#DejaVuSans-73" x="1496.085938"/>
     <use xlink:href="#DejaVuSans-74" x="1548.185547"/>
     <use xlink:href="#DejaVuSans-69" x="1587.394531"/>
     <use xlink:href="#DejaVuSans-6e" x="1615.177734"/>
     <use xlink:href="#DejaVuSans-67" x="1678.556641"/>
     <use xlink:href="#DejaVuSans-20" x="1742.033203"/>
     <use xlink:href="#DejaVuSans-2d" x="1773.820312"/>
     <use xlink:href="#DejaVuSans-20" x="1809.904297"/>
     <use xlink:href="#DejaVuSans-4d" x="1841.691406"/>
     <use xlink:href="#DejaVuSans-61" x="1927.970703"/>
     <use xlink:href="#DejaVuSans-73" x="1989.25"/>
     <use xlink:href="#DejaVuSans-73" x="2041.349609"/>
     <use xlink:href="#DejaVuSans-61" x="2093.449219"/>
     <use xlink:href="#DejaVuSans-63" x="2154.728516"/>
     <use xlink:href="#DejaVuSans-68" x="2209.708984"/>
     <use xlink:href="#DejaVuSans-75" x="2273.087891"/>
     <use xlink:href="#DejaVuSans-73" x="2336.466797"/>
     <use xlink:href="#DejaVuSans-65" x="2388.566406"/>
     <use xlink:href="#DejaVuSans-74" x="2450.089844"/>
     <use xlink:href="#DejaVuSans-74" x="2489.298828"/>
     <use xlink:href="#DejaVuSans-73" x="2528.507812"/>
    </g>
    <!-- ARIMA (2, 1, 1)x(1, 0, 1, 7) (R2 = 0.200312) -->
    <g transform="translate(583.628438 29.7555)scale(0.12 -0.12)">
     <defs>
      <path id="DejaVuSans-41" d="M 2188 4044 
L 1331 1722 
L 3047 1722 
L 2188 4044 
z
M 1831 4666 
L 2547 4666 
L 4325 0 
L 3669 0 
L 3244 1197 
L 1141 1197 
L 716 0 
L 50 0 
L 1831 4666 
z
" transform="scale(0.015625)"/>
      <path id="DejaVuSans-52" d="M 2841 2188 
Q 3044 2119 3236 1894 
Q 3428 1669 3622 1275 
L 4263 0 
L 3584 0 
L 2988 1197 
Q 2756 1666 2539 1819 
Q 2322 1972 1947 1972 
L 1259 1972 
L 1259 0 
L 628 0 
L 628 4666 
L 2053 4666 
Q 2853 4666 3247 4331 
Q 3641 3997 3641 3322 
Q 3641 2881 3436 2590 
Q 3231 2300 2841 2188 
z
M 1259 4147 
L 1259 2491 
L 2053 2491 
Q 2509 2491 2742 2702 
Q 2975 2913 2975 3322 
Q 2975 3731 2742 3939 
Q 2509 4147 2053 4147 
L 1259 4147 
z
" transform="scale(0.015625)"/>
      <path id="DejaVuSans-49" d="M 628 4666 
L 1259 4666 
L 1259 0 
L 628 0 
L 628 4666 
z
" transform="scale(0.015625)"/>
      <path id="DejaVuSans-28" d="M 1984 4856 
Q 1566 4138 1362 3434 
Q 1159 2731 1159 2009 
Q 1159 1288 1364 580 
Q 1569 -128 1984 -844 
L 1484 -844 
Q 1016 -109 783 600 
Q 550 1309 550 2009 
Q 550 2706 781 3412 
Q 1013 4119 1484 4856 
L 1984 4856 
z
" transform="scale(0.015625)"/>
      <path id="DejaVuSans-2c" d="M 750 794 
L 1409 794 
L 1409 256 
L 897 -744 
L 494 -744 
L 750 256 
L 750 794 
z
" transform="scale(0.015625)"/>
      <path id="DejaVuSans-29" d="M 513 4856 
L 1013 4856 
Q 1481 4119 1714 3412 
Q 1947 2706 1947 2009 
Q 1947 1309 1714 600 
Q 1481 -109 1013 -844 
L 513 -844 
Q 928 -128 1133 580 
Q 1338 1288 1338 2009 
Q 1338 2731 1133 3434 
Q 928 4138 513 4856 
z
" transform="scale(0.015625)"/>
      <path id="DejaVuSans-78" d="M 3513 3500 
L 2247 1797 
L 3578 0 
L 2900 0 
L 1881 1375 
L 863 0 
L 184 0 
L 1544 1831 
L 300 3500 
L 978 3500 
L 1906 2253 
L 2834 3500 
L 3513 3500 
z
" transform="scale(0.015625)"/>
      <path id="DejaVuSans-3d" d="M 678 2906 
L 4684 2906 
L 4684 2381 
L 678 2381 
L 678 2906 
z
M 678 1631 
L 4684 1631 
L 4684 1100 
L 678 1100 
L 678 1631 
z
" transform="scale(0.015625)"/>
      <path id="DejaVuSans-2e" d="M 684 794 
L 1344 794 
L 1344 0 
L 684 0 
L 684 794 
z
" transform="scale(0.015625)"/>
     </defs>
     <use xlink:href="#DejaVuSans-41"/>
     <use xlink:href="#DejaVuSans-52" x="68.408203"/>
     <use xlink:href="#DejaVuSans-49" x="137.890625"/>
     <use xlink:href="#DejaVuSans-4d" x="167.382812"/>
     <use xlink:href="#DejaVuSans-41" x="253.662109"/>
     <use xlink:href="#DejaVuSans-20" x="322.070312"/>
     <use xlink:href="#DejaVuSans-28" x="353.857422"/>
     <use xlink:href="#DejaVuSans-32" x="392.871094"/>
     <use xlink:href="#DejaVuSans-2c" x="456.494141"/>
     <use xlink:href="#DejaVuSans-20" x="488.28125"/>
     <use xlink:href="#DejaVuSans-31" x="520.068359"/>
     <use xlink:href="#DejaVuSans-2c" x="583.691406"/>
     <use xlink:href="#DejaVuSans-20" x="615.478516"/>
     <use xlink:href="#DejaVuSans-31" x="647.265625"/>
     <use xlink:href="#DejaVuSans-29" x="710.888672"/>
     <use xlink:href="#DejaVuSans-78" x="749.902344"/>
     <use xlink:href="#DejaVuSans-28" x="809.082031"/>
     <use xlink:href="#DejaVuSans-31" x="848.095703"/>
     <use xlink:href="#DejaVuSans-2c" x="911.71875"/>
     <use xlink:href="#DejaVuSans-20" x="943.505859"/>
     <use xlink:href="#DejaVuSans-30" x="975.292969"/>
     <use xlink:href="#DejaVuSans-2c" x="1038.916016"/>
     <use xlink:href="#DejaVuSans-20" x="1070.703125"/>
     <use xlink:href="#DejaVuSans-31" x="1102.490234"/>
     <use xlink:href="#DejaVuSans-2c" x="1166.113281"/>
     <use xlink:href="#DejaVuSans-20" x="1197.900391"/>
     <use xlink:href="#DejaVuSans-37" x="1229.6875"/>
     <use xlink:href="#DejaVuSans-29" x="1293.310547"/>
     <use xlink:href="#DejaVuSans-20" x="1332.324219"/>
     <use xlink:href="#DejaVuSans-28" x="1364.111328"/>
     <use xlink:href="#DejaVuSans-52" x="1403.125"/>
     <use xlink:href="#DejaVuSans-32" x="1472.607422"/>
     <use xlink:href="#DejaVuSans-20" x="1536.230469"/>
     <use xlink:href="#DejaVuSans-3d" x="1568.017578"/>
     <use xlink:href="#DejaVuSans-20" x="1651.806641"/>
     <use xlink:href="#DejaVuSans-30" x="1683.59375"/>
     <use xlink:href="#DejaVuSans-2e" x="1747.216797"/>
     <use xlink:href="#DejaVuSans-32" x="1779.003906"/>
     <use xlink:href="#DejaVuSans-30" x="1842.626953"/>
     <use xlink:href="#DejaVuSans-30" x="1906.25"/>
     <use xlink:href="#DejaVuSans-33" x="1969.873047"/>
     <use xlink:href="#DejaVuSans-31" x="2033.496094"/>
     <use xlink:href="#DejaVuSans-32" x="2097.119141"/>
     <use xlink:href="#DejaVuSans-29" x="2160.742188"/>
    </g>
   </g>
   <g id="legend_1">
    <g id="patch_7">
     <path d="M 1281.132812 87.789875 
L 1378.2125 87.789875 
Q 1380.2125 87.789875 1380.2125 85.789875 
L 1380.2125 42.7555 
Q 1380.2125 40.7555 1378.2125 40.7555 
L 1281.132812 40.7555 
Q 1279.132812 40.7555 1279.132812 42.7555 
L 1279.132812 85.789875 
Q 1279.132812 87.789875 1281.132812 87.789875 
z
" style="fill: #ffffff; opacity: 0.8; stroke: #cccccc; stroke-linejoin: miter"/>
    </g>
    <g id="line2d_22">
     <path d="M 1283.132812 48.853937 
L 1293.132812 48.853937 
L 1303.132812 48.853937 
" style="fill: none; stroke: #0000ff; stroke-width: 1.5; stroke-linecap: square"/>
    </g>
    <g id="text_20">
     <!-- Actual Value -->
     <g transform="translate(1311.132812 52.353937)scale(0.1 -0.1)">
      <defs>
       <path id="DejaVuSans-56" d="M 1831 0 
L 50 4666 
L 709 4666 
L 2188 738 
L 3669 4666 
L 4325 4666 
L 2547 0 
L 1831 0 
z
" transform="scale(0.015625)"/>
      </defs>
      <use xlink:href="#DejaVuSans-41"/>
      <use xlink:href="#DejaVuSans-63" x="66.658203"/>
      <use xlink:href="#DejaVuSans-74" x="121.638672"/>
      <use xlink:href="#DejaVuSans-75" x="160.847656"/>
      <use xlink:href="#DejaVuSans-61" x="224.226562"/>
      <use xlink:href="#DejaVuSans-6c" x="285.505859"/>
      <use xlink:href="#DejaVuSans-20" x="313.289062"/>
      <use xlink:href="#DejaVuSans-56" x="345.076172"/>
      <use xlink:href="#DejaVuSans-61" x="405.734375"/>
      <use xlink:href="#DejaVuSans-6c" x="467.013672"/>
      <use xlink:href="#DejaVuSans-75" x="494.796875"/>
      <use xlink:href="#DejaVuSans-65" x="558.175781"/>
     </g>
    </g>
    <g id="line2d_23">
     <path d="M 1283.132812 63.532062 
L 1293.132812 63.532062 
L 1303.132812 63.532062 
" style="fill: none; stroke: #ffa500; stroke-width: 1.5; stroke-linecap: square"/>
    </g>
    <g id="text_21">
     <!-- Check Value -->
     <g transform="translate(1311.132812 67.032062)scale(0.1 -0.1)">
      <defs>
       <path id="DejaVuSans-6b" d="M 581 4863 
L 1159 4863 
L 1159 1991 
L 2875 3500 
L 3609 3500 
L 1753 1863 
L 3688 0 
L 2938 0 
L 1159 1709 
L 1159 0 
L 581 0 
L 581 4863 
z
" transform="scale(0.015625)"/>
      </defs>
      <use xlink:href="#DejaVuSans-43"/>
      <use xlink:href="#DejaVuSans-68" x="69.824219"/>
      <use xlink:href="#DejaVuSans-65" x="133.203125"/>
      <use xlink:href="#DejaVuSans-63" x="194.726562"/>
      <use xlink:href="#DejaVuSans-6b" x="249.707031"/>
      <use xlink:href="#DejaVuSans-20" x="307.617188"/>
      <use xlink:href="#DejaVuSans-56" x="339.404297"/>
      <use xlink:href="#DejaVuSans-61" x="400.0625"/>
      <use xlink:href="#DejaVuSans-6c" x="461.341797"/>
      <use xlink:href="#DejaVuSans-75" x="489.125"/>
      <use xlink:href="#DejaVuSans-65" x="552.503906"/>
     </g>
    </g>
    <g id="line2d_24">
     <path d="M 1283.132812 78.210187 
L 1293.132812 78.210187 
L 1303.132812 78.210187 
" style="fill: none; stroke: #ff0000; stroke-width: 1.5; stroke-linecap: square"/>
    </g>
    <g id="text_22">
     <!-- Predict Value -->
     <g transform="translate(1311.132812 81.710187)scale(0.1 -0.1)">
      <defs>
       <path id="DejaVuSans-50" d="M 1259 4147 
L 1259 2394 
L 2053 2394 
Q 2494 2394 2734 2622 
Q 2975 2850 2975 3272 
Q 2975 3691 2734 3919 
Q 2494 4147 2053 4147 
L 1259 4147 
z
M 628 4666 
L 2053 4666 
Q 2838 4666 3239 4311 
Q 3641 3956 3641 3272 
Q 3641 2581 3239 2228 
Q 2838 1875 2053 1875 
L 1259 1875 
L 1259 0 
L 628 0 
L 628 4666 
z
" transform="scale(0.015625)"/>
      </defs>
      <use xlink:href="#DejaVuSans-50"/>
      <use xlink:href="#DejaVuSans-72" x="58.552734"/>
      <use xlink:href="#DejaVuSans-65" x="97.416016"/>
      <use xlink:href="#DejaVuSans-64" x="158.939453"/>
      <use xlink:href="#DejaVuSans-69" x="222.416016"/>
      <use xlink:href="#DejaVuSans-63" x="250.199219"/>
      <use xlink:href="#DejaVuSans-74" x="305.179688"/>
      <use xlink:href="#DejaVuSans-20" x="344.388672"/>
      <use xlink:href="#DejaVuSans-56" x="376.175781"/>
      <use xlink:href="#DejaVuSans-61" x="436.833984"/>
      <use xlink:href="#DejaVuSans-6c" x="498.113281"/>
      <use xlink:href="#DejaVuSans-75" x="525.896484"/>
      <use xlink:href="#DejaVuSans-65" x="589.275391"/>
     </g>
    </g>
   </g>
  </g>
 </g>
 <defs>
  <clipPath id="p1e70321216">
   <rect x="46.0125" y="35.7555" width="1339.2" height="332.64"/>
  </clipPath>
 </defs>
</svg>
