<?xml version="1.0" encoding="utf-8" standalone="no"?>
<!DOCTYPE svg PUBLIC "-//W3C//DTD SVG 1.1//EN"
  "http://www.w3.org/Graphics/SVG/1.1/DTD/svg11.dtd">
<svg xmlns:xlink="http://www.w3.org/1999/xlink" width="1394.429688pt" height="392.273625pt" viewBox="0 0 1394.429688 392.273625" xmlns="http://www.w3.org/2000/svg" version="1.1">
 <metadata>
  <rdf:RDF xmlns:dc="http://purl.org/dc/elements/1.1/" xmlns:cc="http://creativecommons.org/ns#" xmlns:rdf="http://www.w3.org/1999/02/22-rdf-syntax-ns#">
   <cc:Work>
    <dc:type rdf:resource="http://purl.org/dc/dcmitype/StillImage"/>
    <dc:date>2022-07-06T17:38:57.066681</dc:date>
    <dc:format>image/svg+xml</dc:format>
    <dc:creator>
     <cc:Agent>
      <dc:title>Matplotlib v3.5.2, https://matplotlib.org/</dc:title>
     </cc:Agent>
    </dc:creator>
   </cc:Work>
  </rdf:RDF>
 </metadata>
 <defs>
  <style type="text/css">*{stroke-linejoin: round; stroke-linecap: butt}</style>
 </defs>
 <g id="figure_1">
  <g id="patch_1">
   <path d="M 0 392.273625 
L 1394.429688 392.273625 
L 1394.429688 0 
L 0 0 
z
" style="fill: #ffffff"/>
  </g>
  <g id="axes_1">
   <g id="patch_2">
    <path d="M 48.029688 368.3955 
L 1387.229688 368.3955 
L 1387.229688 35.7555 
L 48.029688 35.7555 
z
" style="fill: #ffffff"/>
   </g>
   <g id="matplotlib.axis_1">
    <g id="xtick_1">
     <g id="line2d_1">
      <defs>
       <path id="m1e07aadd78" d="M 0 0 
L 0 3.5 
" style="stroke: #000000; stroke-width: 0.8"/>
      </defs>
      <g>
       <use xlink:href="#m1e07aadd78" x="79.372095" y="368.3955" style="stroke: #000000; stroke-width: 0.8"/>
      </g>
     </g>
     <g id="text_1">
      <!-- 2020-01 -->
      <g transform="translate(58.480689 382.993937)scale(0.1 -0.1)">
       <defs>
        <path id="DejaVuSans-32" d="M 1228 531 
L 3431 531 
L 3431 0 
L 469 0 
L 469 531 
Q 828 903 1448 1529 
Q 2069 2156 2228 2338 
Q 2531 2678 2651 2914 
Q 2772 3150 2772 3378 
Q 2772 3750 2511 3984 
Q 2250 4219 1831 4219 
Q 1534 4219 1204 4116 
Q 875 4013 500 3803 
L 500 4441 
Q 881 4594 1212 4672 
Q 1544 4750 1819 4750 
Q 2544 4750 2975 4387 
Q 3406 4025 3406 3419 
Q 3406 3131 3298 2873 
Q 3191 2616 2906 2266 
Q 2828 2175 2409 1742 
Q 1991 1309 1228 531 
z
" transform="scale(0.015625)"/>
        <path id="DejaVuSans-30" d="M 2034 4250 
Q 1547 4250 1301 3770 
Q 1056 3291 1056 2328 
Q 1056 1369 1301 889 
Q 1547 409 2034 409 
Q 2525 409 2770 889 
Q 3016 1369 3016 2328 
Q 3016 3291 2770 3770 
Q 2525 4250 2034 4250 
z
M 2034 4750 
Q 2819 4750 3233 4129 
Q 3647 3509 3647 2328 
Q 3647 1150 3233 529 
Q 2819 -91 2034 -91 
Q 1250 -91 836 529 
Q 422 1150 422 2328 
Q 422 3509 836 4129 
Q 1250 4750 2034 4750 
z
" transform="scale(0.015625)"/>
        <path id="DejaVuSans-2d" d="M 313 2009 
L 1997 2009 
L 1997 1497 
L 313 1497 
L 313 2009 
z
" transform="scale(0.015625)"/>
        <path id="DejaVuSans-31" d="M 794 531 
L 1825 531 
L 1825 4091 
L 703 3866 
L 703 4441 
L 1819 4666 
L 2450 4666 
L 2450 531 
L 3481 531 
L 3481 0 
L 794 0 
L 794 531 
z
" transform="scale(0.015625)"/>
       </defs>
       <use xlink:href="#DejaVuSans-32"/>
       <use xlink:href="#DejaVuSans-30" x="63.623047"/>
       <use xlink:href="#DejaVuSans-32" x="127.246094"/>
       <use xlink:href="#DejaVuSans-30" x="190.869141"/>
       <use xlink:href="#DejaVuSans-2d" x="254.492188"/>
       <use xlink:href="#DejaVuSans-30" x="290.576172"/>
       <use xlink:href="#DejaVuSans-31" x="354.199219"/>
      </g>
     </g>
    </g>
    <g id="xtick_2">
     <g id="line2d_2">
      <g>
       <use xlink:href="#m1e07aadd78" x="201.520236" y="368.3955" style="stroke: #000000; stroke-width: 0.8"/>
      </g>
     </g>
     <g id="text_2">
      <!-- 2020-04 -->
      <g transform="translate(180.62883 382.993937)scale(0.1 -0.1)">
       <defs>
        <path id="DejaVuSans-34" d="M 2419 4116 
L 825 1625 
L 2419 1625 
L 2419 4116 
z
M 2253 4666 
L 3047 4666 
L 3047 1625 
L 3713 1625 
L 3713 1100 
L 3047 1100 
L 3047 0 
L 2419 0 
L 2419 1100 
L 313 1100 
L 313 1709 
L 2253 4666 
z
" transform="scale(0.015625)"/>
       </defs>
       <use xlink:href="#DejaVuSans-32"/>
       <use xlink:href="#DejaVuSans-30" x="63.623047"/>
       <use xlink:href="#DejaVuSans-32" x="127.246094"/>
       <use xlink:href="#DejaVuSans-30" x="190.869141"/>
       <use xlink:href="#DejaVuSans-2d" x="254.492188"/>
       <use xlink:href="#DejaVuSans-30" x="290.576172"/>
       <use xlink:href="#DejaVuSans-34" x="354.199219"/>
      </g>
     </g>
    </g>
    <g id="xtick_3">
     <g id="line2d_3">
      <g>
       <use xlink:href="#m1e07aadd78" x="323.668376" y="368.3955" style="stroke: #000000; stroke-width: 0.8"/>
      </g>
     </g>
     <g id="text_3">
      <!-- 2020-07 -->
      <g transform="translate(302.77697 382.993937)scale(0.1 -0.1)">
       <defs>
        <path id="DejaVuSans-37" d="M 525 4666 
L 3525 4666 
L 3525 4397 
L 1831 0 
L 1172 0 
L 2766 4134 
L 525 4134 
L 525 4666 
z
" transform="scale(0.015625)"/>
       </defs>
       <use xlink:href="#DejaVuSans-32"/>
       <use xlink:href="#DejaVuSans-30" x="63.623047"/>
       <use xlink:href="#DejaVuSans-32" x="127.246094"/>
       <use xlink:href="#DejaVuSans-30" x="190.869141"/>
       <use xlink:href="#DejaVuSans-2d" x="254.492188"/>
       <use xlink:href="#DejaVuSans-30" x="290.576172"/>
       <use xlink:href="#DejaVuSans-37" x="354.199219"/>
      </g>
     </g>
    </g>
    <g id="xtick_4">
     <g id="line2d_4">
      <g>
       <use xlink:href="#m1e07aadd78" x="447.158804" y="368.3955" style="stroke: #000000; stroke-width: 0.8"/>
      </g>
     </g>
     <g id="text_4">
      <!-- 2020-10 -->
      <g transform="translate(426.267398 382.993937)scale(0.1 -0.1)">
       <use xlink:href="#DejaVuSans-32"/>
       <use xlink:href="#DejaVuSans-30" x="63.623047"/>
       <use xlink:href="#DejaVuSans-32" x="127.246094"/>
       <use xlink:href="#DejaVuSans-30" x="190.869141"/>
       <use xlink:href="#DejaVuSans-2d" x="254.492188"/>
       <use xlink:href="#DejaVuSans-31" x="290.576172"/>
       <use xlink:href="#DejaVuSans-30" x="354.199219"/>
      </g>
     </g>
    </g>
    <g id="xtick_5">
     <g id="line2d_5">
      <g>
       <use xlink:href="#m1e07aadd78" x="570.649232" y="368.3955" style="stroke: #000000; stroke-width: 0.8"/>
      </g>
     </g>
     <g id="text_5">
      <!-- 2021-01 -->
      <g transform="translate(549.757826 382.993937)scale(0.1 -0.1)">
       <use xlink:href="#DejaVuSans-32"/>
       <use xlink:href="#DejaVuSans-30" x="63.623047"/>
       <use xlink:href="#DejaVuSans-32" x="127.246094"/>
       <use xlink:href="#DejaVuSans-31" x="190.869141"/>
       <use xlink:href="#DejaVuSans-2d" x="254.492188"/>
       <use xlink:href="#DejaVuSans-30" x="290.576172"/>
       <use xlink:href="#DejaVuSans-31" x="354.199219"/>
      </g>
     </g>
    </g>
    <g id="xtick_6">
     <g id="line2d_6">
      <g>
       <use xlink:href="#m1e07aadd78" x="691.455086" y="368.3955" style="stroke: #000000; stroke-width: 0.8"/>
      </g>
     </g>
     <g id="text_6">
      <!-- 2021-04 -->
      <g transform="translate(670.56368 382.993937)scale(0.1 -0.1)">
       <use xlink:href="#DejaVuSans-32"/>
       <use xlink:href="#DejaVuSans-30" x="63.623047"/>
       <use xlink:href="#DejaVuSans-32" x="127.246094"/>
       <use xlink:href="#DejaVuSans-31" x="190.869141"/>
       <use xlink:href="#DejaVuSans-2d" x="254.492188"/>
       <use xlink:href="#DejaVuSans-30" x="290.576172"/>
       <use xlink:href="#DejaVuSans-34" x="354.199219"/>
      </g>
     </g>
    </g>
    <g id="xtick_7">
     <g id="line2d_7">
      <g>
       <use xlink:href="#m1e07aadd78" x="813.603227" y="368.3955" style="stroke: #000000; stroke-width: 0.8"/>
      </g>
     </g>
     <g id="text_7">
      <!-- 2021-07 -->
      <g transform="translate(792.71182 382.993937)scale(0.1 -0.1)">
       <use xlink:href="#DejaVuSans-32"/>
       <use xlink:href="#DejaVuSans-30" x="63.623047"/>
       <use xlink:href="#DejaVuSans-32" x="127.246094"/>
       <use xlink:href="#DejaVuSans-31" x="190.869141"/>
       <use xlink:href="#DejaVuSans-2d" x="254.492188"/>
       <use xlink:href="#DejaVuSans-30" x="290.576172"/>
       <use xlink:href="#DejaVuSans-37" x="354.199219"/>
      </g>
     </g>
    </g>
    <g id="xtick_8">
     <g id="line2d_8">
      <g>
       <use xlink:href="#m1e07aadd78" x="937.093655" y="368.3955" style="stroke: #000000; stroke-width: 0.8"/>
      </g>
     </g>
     <g id="text_8">
      <!-- 2021-10 -->
      <g transform="translate(916.202248 382.993937)scale(0.1 -0.1)">
       <use xlink:href="#DejaVuSans-32"/>
       <use xlink:href="#DejaVuSans-30" x="63.623047"/>
       <use xlink:href="#DejaVuSans-32" x="127.246094"/>
       <use xlink:href="#DejaVuSans-31" x="190.869141"/>
       <use xlink:href="#DejaVuSans-2d" x="254.492188"/>
       <use xlink:href="#DejaVuSans-31" x="290.576172"/>
       <use xlink:href="#DejaVuSans-30" x="354.199219"/>
      </g>
     </g>
    </g>
    <g id="xtick_9">
     <g id="line2d_9">
      <g>
       <use xlink:href="#m1e07aadd78" x="1060.584083" y="368.3955" style="stroke: #000000; stroke-width: 0.8"/>
      </g>
     </g>
     <g id="text_9">
      <!-- 2022-01 -->
      <g transform="translate(1039.692676 382.993937)scale(0.1 -0.1)">
       <use xlink:href="#DejaVuSans-32"/>
       <use xlink:href="#DejaVuSans-30" x="63.623047"/>
       <use xlink:href="#DejaVuSans-32" x="127.246094"/>
       <use xlink:href="#DejaVuSans-32" x="190.869141"/>
       <use xlink:href="#DejaVuSans-2d" x="254.492188"/>
       <use xlink:href="#DejaVuSans-30" x="290.576172"/>
       <use xlink:href="#DejaVuSans-31" x="354.199219"/>
      </g>
     </g>
    </g>
    <g id="xtick_10">
     <g id="line2d_10">
      <g>
       <use xlink:href="#m1e07aadd78" x="1181.389936" y="368.3955" style="stroke: #000000; stroke-width: 0.8"/>
      </g>
     </g>
     <g id="text_10">
      <!-- 2022-04 -->
      <g transform="translate(1160.49853 382.993937)scale(0.1 -0.1)">
       <use xlink:href="#DejaVuSans-32"/>
       <use xlink:href="#DejaVuSans-30" x="63.623047"/>
       <use xlink:href="#DejaVuSans-32" x="127.246094"/>
       <use xlink:href="#DejaVuSans-32" x="190.869141"/>
       <use xlink:href="#DejaVuSans-2d" x="254.492188"/>
       <use xlink:href="#DejaVuSans-30" x="290.576172"/>
       <use xlink:href="#DejaVuSans-34" x="354.199219"/>
      </g>
     </g>
    </g>
    <g id="xtick_11">
     <g id="line2d_11">
      <g>
       <use xlink:href="#m1e07aadd78" x="1303.538077" y="368.3955" style="stroke: #000000; stroke-width: 0.8"/>
      </g>
     </g>
     <g id="text_11">
      <!-- 2022-07 -->
      <g transform="translate(1282.646671 382.993937)scale(0.1 -0.1)">
       <use xlink:href="#DejaVuSans-32"/>
       <use xlink:href="#DejaVuSans-30" x="63.623047"/>
       <use xlink:href="#DejaVuSans-32" x="127.246094"/>
       <use xlink:href="#DejaVuSans-32" x="190.869141"/>
       <use xlink:href="#DejaVuSans-2d" x="254.492188"/>
       <use xlink:href="#DejaVuSans-30" x="290.576172"/>
       <use xlink:href="#DejaVuSans-37" x="354.199219"/>
      </g>
     </g>
    </g>
   </g>
   <g id="matplotlib.axis_2">
    <g id="ytick_1">
     <g id="line2d_12">
      <defs>
       <path id="mff2c0f8c85" d="M 0 0 
L -3.5 0 
" style="stroke: #000000; stroke-width: 0.8"/>
      </defs>
      <g>
       <use xlink:href="#mff2c0f8c85" x="48.029688" y="360.353867" style="stroke: #000000; stroke-width: 0.8"/>
      </g>
     </g>
     <g id="text_12">
      <!-- −5000 -->
      <g transform="translate(7.2 364.153086)scale(0.1 -0.1)">
       <defs>
        <path id="DejaVuSans-2212" d="M 678 2272 
L 4684 2272 
L 4684 1741 
L 678 1741 
L 678 2272 
z
" transform="scale(0.015625)"/>
        <path id="DejaVuSans-35" d="M 691 4666 
L 3169 4666 
L 3169 4134 
L 1269 4134 
L 1269 2991 
Q 1406 3038 1543 3061 
Q 1681 3084 1819 3084 
Q 2600 3084 3056 2656 
Q 3513 2228 3513 1497 
Q 3513 744 3044 326 
Q 2575 -91 1722 -91 
Q 1428 -91 1123 -41 
Q 819 9 494 109 
L 494 744 
Q 775 591 1075 516 
Q 1375 441 1709 441 
Q 2250 441 2565 725 
Q 2881 1009 2881 1497 
Q 2881 1984 2565 2268 
Q 2250 2553 1709 2553 
Q 1456 2553 1204 2497 
Q 953 2441 691 2322 
L 691 4666 
z
" transform="scale(0.015625)"/>
       </defs>
       <use xlink:href="#DejaVuSans-2212"/>
       <use xlink:href="#DejaVuSans-35" x="83.789062"/>
       <use xlink:href="#DejaVuSans-30" x="147.412109"/>
       <use xlink:href="#DejaVuSans-30" x="211.035156"/>
       <use xlink:href="#DejaVuSans-30" x="274.658203"/>
      </g>
     </g>
    </g>
    <g id="ytick_2">
     <g id="line2d_13">
      <g>
       <use xlink:href="#mff2c0f8c85" x="48.029688" y="320.317856" style="stroke: #000000; stroke-width: 0.8"/>
      </g>
     </g>
     <g id="text_13">
      <!-- 0 -->
      <g transform="translate(34.667188 324.117074)scale(0.1 -0.1)">
       <use xlink:href="#DejaVuSans-30"/>
      </g>
     </g>
    </g>
    <g id="ytick_3">
     <g id="line2d_14">
      <g>
       <use xlink:href="#mff2c0f8c85" x="48.029688" y="280.281844" style="stroke: #000000; stroke-width: 0.8"/>
      </g>
     </g>
     <g id="text_14">
      <!-- 5000 -->
      <g transform="translate(15.579688 284.081063)scale(0.1 -0.1)">
       <use xlink:href="#DejaVuSans-35"/>
       <use xlink:href="#DejaVuSans-30" x="63.623047"/>
       <use xlink:href="#DejaVuSans-30" x="127.246094"/>
       <use xlink:href="#DejaVuSans-30" x="190.869141"/>
      </g>
     </g>
    </g>
    <g id="ytick_4">
     <g id="line2d_15">
      <g>
       <use xlink:href="#mff2c0f8c85" x="48.029688" y="240.245833" style="stroke: #000000; stroke-width: 0.8"/>
      </g>
     </g>
     <g id="text_15">
      <!-- 10000 -->
      <g transform="translate(9.217188 244.045052)scale(0.1 -0.1)">
       <use xlink:href="#DejaVuSans-31"/>
       <use xlink:href="#DejaVuSans-30" x="63.623047"/>
       <use xlink:href="#DejaVuSans-30" x="127.246094"/>
       <use xlink:href="#DejaVuSans-30" x="190.869141"/>
       <use xlink:href="#DejaVuSans-30" x="254.492188"/>
      </g>
     </g>
    </g>
    <g id="ytick_5">
     <g id="line2d_16">
      <g>
       <use xlink:href="#mff2c0f8c85" x="48.029688" y="200.209822" style="stroke: #000000; stroke-width: 0.8"/>
      </g>
     </g>
     <g id="text_16">
      <!-- 15000 -->
      <g transform="translate(9.217188 204.009041)scale(0.1 -0.1)">
       <use xlink:href="#DejaVuSans-31"/>
       <use xlink:href="#DejaVuSans-35" x="63.623047"/>
       <use xlink:href="#DejaVuSans-30" x="127.246094"/>
       <use xlink:href="#DejaVuSans-30" x="190.869141"/>
       <use xlink:href="#DejaVuSans-30" x="254.492188"/>
      </g>
     </g>
    </g>
    <g id="ytick_6">
     <g id="line2d_17">
      <g>
       <use xlink:href="#mff2c0f8c85" x="48.029688" y="160.173811" style="stroke: #000000; stroke-width: 0.8"/>
      </g>
     </g>
     <g id="text_17">
      <!-- 20000 -->
      <g transform="translate(9.217188 163.973029)scale(0.1 -0.1)">
       <use xlink:href="#DejaVuSans-32"/>
       <use xlink:href="#DejaVuSans-30" x="63.623047"/>
       <use xlink:href="#DejaVuSans-30" x="127.246094"/>
       <use xlink:href="#DejaVuSans-30" x="190.869141"/>
       <use xlink:href="#DejaVuSans-30" x="254.492188"/>
      </g>
     </g>
    </g>
    <g id="ytick_7">
     <g id="line2d_18">
      <g>
       <use xlink:href="#mff2c0f8c85" x="48.029688" y="120.137799" style="stroke: #000000; stroke-width: 0.8"/>
      </g>
     </g>
     <g id="text_18">
      <!-- 25000 -->
      <g transform="translate(9.217188 123.937018)scale(0.1 -0.1)">
       <use xlink:href="#DejaVuSans-32"/>
       <use xlink:href="#DejaVuSans-35" x="63.623047"/>
       <use xlink:href="#DejaVuSans-30" x="127.246094"/>
       <use xlink:href="#DejaVuSans-30" x="190.869141"/>
       <use xlink:href="#DejaVuSans-30" x="254.492188"/>
      </g>
     </g>
    </g>
    <g id="ytick_8">
     <g id="line2d_19">
      <g>
       <use xlink:href="#mff2c0f8c85" x="48.029688" y="80.101788" style="stroke: #000000; stroke-width: 0.8"/>
      </g>
     </g>
     <g id="text_19">
      <!-- 30000 -->
      <g transform="translate(9.217188 83.901007)scale(0.1 -0.1)">
       <defs>
        <path id="DejaVuSans-33" d="M 2597 2516 
Q 3050 2419 3304 2112 
Q 3559 1806 3559 1356 
Q 3559 666 3084 287 
Q 2609 -91 1734 -91 
Q 1441 -91 1130 -33 
Q 819 25 488 141 
L 488 750 
Q 750 597 1062 519 
Q 1375 441 1716 441 
Q 2309 441 2620 675 
Q 2931 909 2931 1356 
Q 2931 1769 2642 2001 
Q 2353 2234 1838 2234 
L 1294 2234 
L 1294 2753 
L 1863 2753 
Q 2328 2753 2575 2939 
Q 2822 3125 2822 3475 
Q 2822 3834 2567 4026 
Q 2313 4219 1838 4219 
Q 1578 4219 1281 4162 
Q 984 4106 628 3988 
L 628 4550 
Q 988 4650 1302 4700 
Q 1616 4750 1894 4750 
Q 2613 4750 3031 4423 
Q 3450 4097 3450 3541 
Q 3450 3153 3228 2886 
Q 3006 2619 2597 2516 
z
" transform="scale(0.015625)"/>
       </defs>
       <use xlink:href="#DejaVuSans-33"/>
       <use xlink:href="#DejaVuSans-30" x="63.623047"/>
       <use xlink:href="#DejaVuSans-30" x="127.246094"/>
       <use xlink:href="#DejaVuSans-30" x="190.869141"/>
       <use xlink:href="#DejaVuSans-30" x="254.492188"/>
      </g>
     </g>
    </g>
    <g id="ytick_9">
     <g id="line2d_20">
      <g>
       <use xlink:href="#mff2c0f8c85" x="48.029688" y="40.065777" style="stroke: #000000; stroke-width: 0.8"/>
      </g>
     </g>
     <g id="text_20">
      <!-- 35000 -->
      <g transform="translate(9.217188 43.864996)scale(0.1 -0.1)">
       <use xlink:href="#DejaVuSans-33"/>
       <use xlink:href="#DejaVuSans-35" x="63.623047"/>
       <use xlink:href="#DejaVuSans-30" x="127.246094"/>
       <use xlink:href="#DejaVuSans-30" x="190.869141"/>
       <use xlink:href="#DejaVuSans-30" x="254.492188"/>
      </g>
     </g>
    </g>
   </g>
   <g id="line2d_21">
    <path d="M 108.902415 320.317856 
L 174.674491 320.269812 
L 176.016778 320.165719 
L 178.701352 320.317856 
L 180.04364 320.061625 
L 182.728214 319.973546 
L 184.070501 319.909488 
L 185.412789 319.477099 
L 186.755076 319.613222 
L 188.097363 319.437063 
L 189.43965 318.804494 
L 192.124225 317.803594 
L 193.466512 316.034002 
L 194.808799 315.913894 
L 196.151087 316.314254 
L 197.493374 315.617628 
L 198.835661 314.528648 
L 200.177949 313.848036 
L 201.520236 312.414747 
L 202.862523 311.245695 
L 204.20481 309.107772 
L 205.547098 306.633547 
L 206.889385 309.003679 
L 208.231672 308.315059 
L 209.573959 308.058829 
L 210.916247 305.896884 
L 212.258534 304.111278 
L 213.600821 305.560582 
L 214.943108 306.42536 
L 216.285396 310.86135 
L 217.627683 310.020593 
L 218.96997 311.453883 
L 220.312257 310.477004 
L 221.654545 310.77327 
L 222.996832 305.728733 
L 224.339119 305.776776 
L 225.681406 310.17273 
L 227.023694 313.15141 
L 228.365981 310.356896 
L 229.708268 309.564183 
L 231.050555 305.472503 
L 232.392843 307.178037 
L 233.73513 307.946728 
L 235.077417 309.71632 
L 236.419705 313.023294 
L 237.761992 308.275023 
L 239.104279 310.925407 
L 240.446566 307.658469 
L 241.788854 306.761662 
L 243.131141 309.51614 
L 244.473428 311.9183 
L 245.815715 312.670977 
L 247.158003 313.279525 
L 248.50029 312.566884 
L 249.842577 311.493919 
L 251.184864 308.939621 
L 252.527152 311.565984 
L 253.869439 308.987664 
L 255.211726 315.577592 
L 256.554013 314.00818 
L 257.896301 314.224375 
L 259.238588 312.983258 
L 261.923162 311.501926 
L 263.26545 314.720821 
L 264.607737 314.088252 
L 265.950024 315.793786 
L 268.634599 312.526848 
L 269.976886 312.574891 
L 271.319173 314.200353 
L 272.661461 314.656764 
L 274.003748 315.825815 
L 275.346035 316.570485 
L 276.688322 314.736836 
L 278.03061 314.832922 
L 279.372897 314.592706 
L 280.715184 314.528648 
L 283.399759 317.259104 
L 284.742046 315.95393 
L 287.42662 315.961938 
L 288.768908 316.538456 
L 290.111195 314.424555 
L 291.453482 316.882766 
L 292.795769 317.539356 
L 294.138057 316.282226 
L 295.480344 316.882766 
L 296.822631 315.95393 
L 298.164919 315.209261 
L 299.507206 316.754651 
L 300.849493 317.5874 
L 303.534068 317.723522 
L 304.876355 317.371205 
L 307.560929 316.234182 
L 308.903217 316.474398 
L 311.587791 316.714615 
L 312.930078 315.633642 
L 314.272366 316.330269 
L 315.614653 315.729729 
L 316.95694 315.385419 
L 318.299227 315.425455 
L 319.641515 316.418348 
L 320.983802 315.849837 
L 322.326089 315.465491 
L 323.668376 315.217268 
L 325.010664 313.767964 
L 326.352951 314.136295 
L 329.037526 315.84183 
L 330.379813 316.194146 
L 331.7221 313.888072 
L 333.064387 313.103366 
L 334.406675 314.328468 
L 335.748962 312.983258 
L 337.091249 313.695899 
L 338.433536 315.033102 
L 339.775824 317.090953 
L 341.118111 312.999273 
L 342.460398 312.40674 
L 343.802685 313.671878 
L 345.144973 312.014387 
L 346.48726 313.984159 
L 349.171834 314.392526 
L 350.514122 312.078444 
L 351.856409 314.088252 
L 353.198696 313.103366 
L 354.540983 310.781278 
L 355.883271 311.485911 
L 357.225558 313.767964 
L 358.567845 314.168324 
L 359.910133 311.590005 
L 361.25242 314.032202 
L 362.594707 313.00728 
L 363.936994 312.254603 
L 365.279282 313.167424 
L 366.621569 315.033102 
L 367.963856 315.6977 
L 369.306143 313.615827 
L 370.648431 314.528648 
L 371.990718 313.832022 
L 373.333005 314.184339 
L 374.675292 313.75195 
L 376.01758 314.088252 
L 377.359867 315.35339 
L 378.702154 313.767964 
L 380.044441 313.20746 
L 381.386729 312.070437 
L 382.729016 313.567784 
L 384.071303 313.535755 
L 385.41359 314.840929 
L 386.755878 316.786679 
L 388.098165 315.09716 
L 389.440452 315.433462 
L 390.78274 314.104267 
L 392.125027 314.40854 
L 393.467314 313.912094 
L 394.809601 315.513534 
L 396.151889 316.922802 
L 397.494176 315.561577 
L 398.836463 316.250197 
L 400.17875 315.201253 
L 401.521038 313.503726 
L 402.863325 313.655863 
L 404.205612 314.800893 
L 405.547899 316.106067 
L 406.890187 313.655863 
L 408.232474 313.095359 
L 409.574761 311.654063 
L 410.917048 312.991266 
L 412.259336 312.574891 
L 413.601623 315.081145 
L 414.94391 315.529549 
L 416.286197 316.402334 
L 417.628485 312.326668 
L 418.970772 315.545563 
L 420.313059 312.11848 
L 421.655347 312.638949 
L 422.997634 315.09716 
L 424.339921 314.776872 
L 425.682208 311.581998 
L 427.024496 314.192346 
L 428.366783 312.751049 
L 429.70907 313.808 
L 431.051357 313.031302 
L 432.393645 314.880965 
L 433.735932 315.721721 
L 435.078219 313.46369 
L 436.420506 313.992166 
L 437.762794 312.919201 
L 439.105081 312.222574 
L 440.447368 312.927208 
L 441.789655 313.039309 
L 443.131943 314.921001 
L 444.47423 309.067736 
L 445.816517 313.247496 
L 447.158804 312.022394 
L 448.501092 311.149609 
L 449.843379 310.685191 
L 451.185666 312.470797 
L 452.527954 314.000173 
L 453.870241 312.558877 
L 455.212528 309.364003 
L 456.554815 309.97255 
L 457.897103 308.907592 
L 459.23939 306.377316 
L 460.581677 310.941422 
L 461.923964 311.51794 
L 463.266252 309.804399 
L 464.608539 310.012586 
L 465.950826 307.714519 
L 467.293113 307.097965 
L 468.635401 305.128193 
L 469.977688 310.060629 
L 471.319975 310.452982 
L 472.662262 307.994771 
L 474.00455 308.178937 
L 475.346837 303.73494 
L 476.689124 302.950234 
L 478.031411 303.006284 
L 479.373699 306.305252 
L 480.715986 306.969849 
L 482.058273 301.364808 
L 483.400561 302.10147 
L 484.742848 301.068541 
L 487.427422 299.274928 
L 488.76971 303.64686 
L 490.111997 304.583703 
L 491.454284 296.66458 
L 492.796571 298.20997 
L 494.138859 296.840739 
L 495.481146 291.62805 
L 496.823433 288.33709 
L 498.16572 294.894988 
L 499.508008 294.086261 
L 500.850295 284.253417 
L 502.192582 281.939335 
L 503.534869 276.598531 
L 504.877157 273.379636 
L 506.219444 275.565602 
L 507.561731 276.446394 
L 508.904018 283.861064 
L 510.246306 271.714138 
L 511.588593 269.263934 
L 512.93088 264.683814 
L 514.273168 262.738064 
L 515.615455 264.795915 
L 516.957742 264.980081 
L 518.300029 279.208879 
L 520.984604 262.297668 
L 522.326891 252.56091 
L 523.669178 261.248725 
L 525.011466 257.205087 
L 526.353753 276.694618 
L 527.69604 284.926022 
L 529.038327 273.19547 
L 530.380615 248.229014 
L 531.722902 233.583841 
L 533.065189 220.740288 
L 534.407476 220.315907 
L 535.749764 254.226408 
L 537.092051 263.386648 
L 538.434338 237.787622 
L 539.776625 254.939049 
L 541.118913 222.421801 
L 542.4612 217.881717 
L 545.145775 242.08749 
L 546.488062 255.587633 
L 547.830349 240.429999 
L 549.172636 238.396169 
L 550.514924 242.407778 
L 551.857211 245.410479 
L 553.199498 238.147946 
L 554.541785 268.551293 
L 555.884073 258.08588 
L 557.22636 253.313587 
L 558.568647 241.126625 
L 559.910934 250.01462 
L 561.253222 263.995195 
L 562.595509 262.009409 
L 563.937796 279.609239 
L 565.280083 290.811315 
L 566.622371 247.764596 
L 567.964658 244.257441 
L 569.306945 253.1054 
L 570.649232 252.280658 
L 571.99152 257.100994 
L 573.333807 281.46691 
L 574.676094 291.251711 
L 576.018381 250.382951 
L 577.360669 240.814344 
L 578.702956 244.513672 
L 580.045243 235.729771 
L 581.387531 242.824152 
L 582.729818 261.761186 
L 584.072105 278.392145 
L 585.414392 259.407068 
L 586.75668 254.786912 
L 588.098967 268.022818 
L 589.441254 266.21319 
L 590.783541 265.076167 
L 592.125829 273.996191 
L 593.468116 288.457198 
L 594.810403 275.221293 
L 596.15269 274.981076 
L 597.494978 273.73996 
L 598.837265 277.247115 
L 600.179552 273.371629 
L 601.521839 289.722336 
L 602.864127 289.986573 
L 604.206414 279.393045 
L 605.548701 275.669696 
L 608.233276 252.873191 
L 609.575563 276.302265 
L 610.91785 288.633356 
L 612.260138 293.437678 
L 613.602425 290.266826 
L 614.944712 295.159226 
L 616.286999 293.397642 
L 617.629287 279.817427 
L 618.971574 287.176045 
L 620.313861 285.262324 
L 621.656148 301.396837 
L 622.998436 284.525662 
L 624.340723 295.607629 
L 625.68301 287.720535 
L 627.025297 292.356705 
L 628.367585 289.410055 
L 629.709872 300.532059 
L 631.052159 305.208265 
L 632.394446 301.004484 
L 633.736734 292.260619 
L 635.079021 293.950139 
L 636.421308 297.921711 
L 637.763595 297.617437 
L 639.105883 304.93602 
L 640.44817 308.283031 
L 641.790457 297.080955 
L 643.132745 298.169934 
L 644.475032 300.668181 
L 645.817319 292.949238 
L 647.159606 292.420763 
L 648.501894 305.784783 
L 649.844181 306.465396 
L 651.186468 299.691303 
L 652.528755 299.419058 
L 653.871043 294.17434 
L 655.21333 298.89859 
L 656.555617 297.329178 
L 657.897904 307.890678 
L 659.240192 308.77147 
L 660.582479 295.703716 
L 661.924766 299.234892 
L 663.267053 297.625444 
L 664.609341 295.247305 
L 665.951628 297.297149 
L 667.293915 304.920006 
L 668.636202 308.979657 
L 669.97849 294.911003 
L 671.320777 293.950139 
L 672.663064 294.806909 
L 674.005352 291.764172 
L 675.347639 287.432276 
L 676.689926 301.268721 
L 678.032213 307.346188 
L 679.374501 291.852252 
L 680.716788 280.86637 
L 682.059075 290.114689 
L 683.401362 279.601232 
L 686.085937 295.751759 
L 687.428224 296.768674 
L 688.770511 276.398351 
L 690.112799 284.15733 
L 691.455086 288.857558 
L 692.797373 280.417967 
L 694.13966 276.334294 
L 695.481948 294.230391 
L 696.824235 298.81051 
L 698.166522 279.673297 
L 699.508809 283.468711 
L 700.851097 283.821028 
L 702.193384 278.127907 
L 703.535671 281.971364 
L 706.220246 300.019598 
L 707.562533 263.010309 
L 708.90482 272.474822 
L 710.247108 280.129707 
L 711.589395 274.804918 
L 712.931682 278.872577 
L 714.273969 296.416357 
L 715.616257 302.854147 
L 716.958544 278.904606 
L 718.300831 283.981172 
L 719.643118 283.788999 
L 720.985406 287.288146 
L 722.327693 287.728542 
L 723.66998 297.072947 
L 725.012267 305.176236 
L 726.354555 289.257918 
L 727.696842 293.333584 
L 729.039129 289.874473 
L 730.381416 284.565698 
L 731.723704 295.495529 
L 733.065991 300.492023 
L 734.408278 306.945828 
L 735.750566 293.806009 
L 737.092853 297.841639 
L 738.43514 300.548073 
L 739.777427 295.679694 
L 741.119715 299.539166 
L 742.462002 309.844435 
L 743.804289 312.238588 
L 745.146576 298.95464 
L 746.488864 303.022299 
L 747.831151 303.286536 
L 749.173438 305.360402 
L 750.515725 304.407545 
L 751.858013 311.750149 
L 753.2003 313.799993 
L 754.542587 304.583703 
L 755.884874 310.108673 
L 757.227162 308.899585 
L 758.569449 303.927113 
L 759.911736 309.235888 
L 761.254023 312.630941 
L 762.596311 315.241289 
L 763.938598 310.380918 
L 765.280885 311.349789 
L 766.623173 312.166524 
L 767.96546 311.782178 
L 769.307747 313.575791 
L 770.650034 316.186139 
L 771.992322 316.946823 
L 773.334609 316.234182 
L 774.676896 314.088252 
L 776.019183 315.225275 
L 777.361471 313.711914 
L 778.703758 314.985059 
L 780.046045 317.155011 
L 781.388332 318.372105 
L 782.73062 315.033102 
L 784.072907 316.730629 
L 785.415194 315.545563 
L 786.757481 316.618528 
L 788.099769 317.347184 
L 789.442056 318.700401 
L 790.784343 318.876559 
L 792.12663 316.554471 
L 793.468918 318.059825 
L 794.811205 317.651457 
L 796.153492 317.875659 
L 797.49578 318.284026 
L 798.838067 319.260905 
L 800.180354 319.381013 
L 801.522641 318.195947 
L 806.89179 318.684386 
L 808.234078 319.212862 
L 809.576365 319.581193 
L 810.918652 318.708408 
L 814.945514 318.884566 
L 816.287801 318.44417 
L 817.630088 319.124782 
L 820.314663 319.469092 
L 821.65695 318.676379 
L 822.999237 318.24399 
L 824.341525 318.356091 
L 825.683812 318.131889 
L 828.368387 319.220869 
L 829.710674 317.483306 
L 831.052961 317.755551 
L 832.395248 316.866751 
L 835.079823 316.762658 
L 837.764397 318.340077 
L 839.106685 315.481505 
L 840.448972 315.761757 
L 841.791259 315.617628 
L 843.133546 315.09716 
L 844.475834 314.977052 
L 845.818121 315.537556 
L 847.160408 316.834723 
L 848.502695 311.734135 
L 849.844983 313.743943 
L 851.18727 311.670077 
L 852.529557 311.894279 
L 853.871844 310.805299 
L 855.214132 312.350689 
L 856.556419 313.191446 
L 857.898706 307.722526 
L 859.240994 308.779477 
L 860.583281 305.512539 
L 861.925568 306.33728 
L 863.267855 306.673583 
L 864.610143 310.132694 
L 865.95243 311.421854 
L 867.294717 303.222479 
L 868.637004 305.240294 
L 869.979292 301.468901 
L 871.321579 303.823019 
L 872.663866 302.109478 
L 874.006153 303.270522 
L 875.348441 310.036608 
L 876.690728 299.523151 
L 878.033015 302.509838 
L 879.375302 288.617342 
L 880.71759 300.307857 
L 882.059877 297.905696 
L 883.402164 302.84614 
L 884.744451 305.728733 
L 886.086739 295.655673 
L 887.429026 290.779286 
L 888.771313 294.358506 
L 890.1136 288.59332 
L 891.455888 289.458098 
L 892.798175 299.627245 
L 894.140462 299.95554 
L 895.48275 291.700115 
L 896.825037 288.865565 
L 898.167324 290.515049 
L 899.509611 287.776586 
L 900.851899 283.020307 
L 902.194186 295.439478 
L 903.536473 300.387929 
L 904.87876 301.749154 
L 906.221048 280.033621 
L 907.563335 285.630655 
L 908.905622 278.784498 
L 910.247909 277.094978 
L 911.590197 290.098674 
L 912.932484 295.271327 
L 914.274771 282.491832 
L 915.617058 288.120895 
L 916.959346 270.184762 
L 918.301633 274.492637 
L 919.64392 277.839648 
L 920.986207 284.133309 
L 922.328495 299.923511 
L 923.670782 281.322781 
L 925.013069 283.55679 
L 926.355357 275.469516 
L 927.697644 279.497139 
L 929.039931 277.327187 
L 931.724506 295.767773 
L 933.066793 277.607439 
L 934.40908 281.402853 
L 935.751367 280.305866 
L 937.093655 276.638567 
L 938.435942 288.024809 
L 939.778229 273.892097 
L 941.120516 288.53727 
L 942.462804 281.779191 
L 943.805091 280.858363 
L 945.147378 270.04864 
L 946.489665 276.038027 
L 947.831953 277.255122 
L 950.516527 298.258013 
L 951.858814 283.10038 
L 953.201102 282.083465 
L 954.543389 274.732853 
L 957.227964 282.15553 
L 958.570251 290.731243 
L 959.912538 296.840739 
L 961.254825 289.386033 
L 962.597113 284.781892 
L 963.9394 285.50254 
L 966.623974 280.882384 
L 967.966262 296.552479 
L 969.308549 300.307857 
L 970.650836 290.28284 
L 971.993123 284.093273 
L 973.335411 284.974065 
L 974.677698 282.708027 
L 976.019985 284.629755 
L 977.362272 296.048026 
L 978.70456 300.09967 
L 980.046847 290.643164 
L 981.389134 287.480319 
L 982.731421 279.705326 
L 984.073709 277.599432 
L 985.415996 281.242709 
L 986.758283 288.99368 
L 988.100571 295.86386 
L 989.442858 288.016802 
L 990.785145 277.951748 
L 992.127432 275.189264 
L 993.46972 268.487235 
L 994.812007 275.149228 
L 996.154294 283.084365 
L 997.496581 295.967954 
L 998.838869 274.052241 
L 1000.181156 272.082469 
L 1001.523443 267.174054 
L 1002.86573 259.43109 
L 1004.208018 268.879588 
L 1005.550305 276.942841 
L 1006.892592 275.445494 
L 1008.234879 278.792505 
L 1009.577167 259.711342 
L 1010.919454 272.675002 
L 1012.261741 271.297763 
L 1014.946316 287.015901 
L 1016.288603 278.264029 
L 1017.63089 274.148327 
L 1018.973178 259.415075 
L 1020.315465 247.108005 
L 1021.657752 239.228918 
L 1023.000039 246.139134 
L 1024.342327 271.545987 
L 1025.684614 288.553284 
L 1027.026901 256.964871 
L 1028.369188 250.47103 
L 1029.711476 264.92403 
L 1031.053763 227.210108 
L 1032.39605 231.822256 
L 1033.738337 253.129422 
L 1035.080625 277.118999 
L 1036.422912 260.736264 
L 1037.765199 261.857272 
L 1039.107486 258.750477 
L 1040.449774 251.223707 
L 1041.792061 249.606253 
L 1043.134348 262.417776 
L 1044.476635 286.24721 
L 1045.818923 243.392664 
L 1047.16121 241.543 
L 1048.503497 235.857886 
L 1049.845785 213.934167 
L 1051.188072 241.39887 
L 1052.530359 265.556599 
L 1053.872646 231.606062 
L 1056.557221 186.357362 
L 1057.899508 167.164098 
L 1059.241795 151.710198 
L 1060.584083 134.638843 
L 1061.92637 179.303017 
L 1063.268657 129.786478 
L 1064.610944 144.423644 
L 1065.953232 101.721234 
L 1067.295519 87.900803 
L 1068.637806 99.423167 
L 1069.980093 50.8755 
L 1071.322381 122.676083 
L 1072.664668 81.246818 
L 1074.006955 112.146612 
L 1075.349242 80.574213 
L 1076.69153 110.336984 
L 1078.033817 113.72403 
L 1079.376104 140.932504 
L 1080.718392 53.950266 
L 1082.060679 194.252463 
L 1083.402966 188.495285 
L 1084.745253 194.820975 
L 1086.087541 181.360868 
L 1087.429828 169.302021 
L 1088.772115 181.384889 
L 1090.114402 221.56503 
L 1091.45669 245.602651 
L 1092.798977 228.002821 
L 1094.141264 223.59886 
L 1095.483551 186.637614 
L 1096.825839 200.642211 
L 1098.168126 222.894226 
L 1099.510413 261.544991 
L 1100.8527 281.130608 
L 1102.194988 274.796911 
L 1103.537275 261.825243 
L 1104.879562 262.297668 
L 1106.221849 263.538784 
L 1107.564137 252.785112 
L 1108.906424 297.945732 
L 1110.248711 257.421282 
L 1111.590999 353.2755 
L 1112.933286 279.841448 
L 1114.275573 283.252516 
L 1115.61786 287.344197 
L 1116.960148 281.739155 
L 1118.302435 301.04452 
L 1119.644722 304.351494 
L 1120.987009 300.451987 
L 1122.329297 299.675288 
L 1123.671584 290.547078 
L 1125.013871 297.080955 
L 1126.356158 286.071052 
L 1127.698446 309.163823 
L 1129.040733 320.317856 
L 1130.38302 299.49913 
L 1131.725307 296.12009 
L 1133.067595 305.408445 
L 1134.409882 306.449381 
L 1135.752169 301.348793 
L 1137.094456 313.783979 
L 1138.436744 313.279525 
L 1139.779031 311.854243 
L 1142.463606 309.9165 
L 1143.805893 311.181638 
L 1145.14818 312.791085 
L 1146.490467 315.865851 
L 1147.832755 314.088252 
L 1149.175042 309.788385 
L 1150.517329 313.583798 
L 1151.859616 311.445875 
L 1153.201904 313.255503 
L 1154.544191 313.727928 
L 1155.886478 317.38722 
L 1157.228765 317.315155 
L 1158.571053 312.20656 
L 1159.91334 312.102466 
L 1161.255627 314.15231 
L 1162.597914 313.303546 
L 1163.940202 314.784879 
L 1165.282489 317.419248 
L 1166.624776 317.371205 
L 1167.967063 315.95393 
L 1169.309351 315.721721 
L 1170.651638 312.646956 
L 1171.993925 314.504627 
L 1173.336213 315.033102 
L 1174.6785 317.090953 
L 1176.020787 318.083846 
L 1177.363074 315.569585 
L 1178.705362 315.833822 
L 1180.047649 313.335575 
L 1181.389936 313.743943 
L 1182.732223 315.089152 
L 1184.074511 320.317856 
L 1185.416798 313.40764 
L 1186.759085 313.936115 
L 1188.101372 313.439669 
L 1189.44366 311.005479 
L 1190.785947 310.885371 
L 1192.128234 311.854243 
L 1193.470521 316.170125 
L 1194.812809 316.418348 
L 1196.155096 310.156716 
L 1197.497383 310.452982 
L 1198.83967 306.48141 
L 1200.181958 307.818613 
L 1201.524245 309.620233 
L 1202.866532 314.456584 
L 1204.20882 311.509933 
L 1205.551107 307.42626 
L 1206.893394 310.57309 
L 1208.235681 305.552575 
L 1209.577969 307.434267 
L 1210.920256 304.327473 
L 1212.262543 310.813306 
L 1213.60483 311.734135 
L 1214.947118 308.002779 
L 1216.289405 302.918205 
L 1217.631692 299.787389 
L 1218.973979 302.317665 
L 1220.316267 300.676188 
L 1221.658554 308.723427 
L 1223.000841 308.579297 
L 1224.343128 303.230486 
L 1225.685416 299.379022 
L 1227.027703 314.256403 
L 1229.712277 320.317856 
L 1231.054565 320.317856 
L 1232.396852 314.320461 
L 1233.739139 320.317856 
L 1235.081426 159.46117 
L 1236.423714 316.490413 
L 1237.766001 320.317856 
L 1240.450576 320.317856 
L 1241.792863 306.601518 
L 1243.13515 320.317856 
L 1244.477437 115.301449 
L 1245.819725 320.317856 
L 1249.846586 320.317856 
L 1251.188874 301.380822 
L 1252.531161 320.317856 
L 1253.873448 101.729241 
L 1255.215735 320.317856 
L 1261.927172 320.317856 
L 1263.269459 121.242793 
L 1264.611746 320.317856 
L 1268.638608 320.317856 
L 1269.980895 301.725132 
L 1271.323183 320.317856 
L 1272.66547 158.236068 
L 1274.007757 320.317856 
L 1278.034619 320.317856 
L 1279.376906 307.418253 
L 1280.719193 320.317856 
L 1282.061481 320.317856 
L 1283.403768 170.82339 
L 1284.746055 320.317856 
L 1290.115204 320.317856 
L 1291.457491 221.621081 
L 1292.799779 320.317856 
L 1296.82664 320.317856 
L 1298.168928 309.099765 
L 1299.511215 320.317856 
L 1300.853502 320.317856 
L 1302.19579 180.199823 
L 1303.538077 320.317856 
L 1307.564939 320.317856 
L 1308.907226 310.236788 
L 1308.907226 310.236788 
" clip-path="url(#pccb038a8a9)" style="fill: none; stroke: #0000ff; stroke-width: 1.5; stroke-linecap: square"/>
   </g>
   <g id="line2d_22">
    <path d="M 1069.980093 109.644374 
L 1071.322381 72.876441 
L 1072.664668 82.148281 
L 1074.006955 60.458951 
L 1075.349242 59.768875 
L 1076.69153 71.828196 
L 1078.033817 61.139737 
L 1079.376104 123.198571 
L 1080.718392 102.25276 
L 1082.060679 109.196919 
L 1083.402966 123.295665 
L 1084.745253 156.54017 
L 1086.087541 176.219476 
L 1087.429828 184.846366 
L 1088.772115 147.857331 
L 1090.114402 223.313822 
L 1091.45669 245.230527 
L 1092.798977 240.838761 
L 1094.141264 230.750547 
L 1095.483551 216.683433 
L 1096.825839 213.276651 
L 1098.168126 225.635525 
L 1099.510413 262.834271 
L 1100.8527 263.999208 
L 1102.194988 264.478509 
L 1103.537275 245.543954 
L 1104.879562 252.339509 
L 1106.221849 272.048235 
L 1107.564137 294.962185 
L 1108.906424 308.572756 
L 1110.248711 298.742098 
L 1111.590999 284.809652 
L 1112.933286 295.712232 
L 1114.275573 290.658519 
L 1115.61786 286.780191 
L 1116.960148 315.947384 
L 1118.302435 296.295814 
L 1119.644722 343.399884 
L 1120.987009 300.009935 
L 1122.329297 289.335487 
L 1123.671584 295.192737 
L 1125.013871 291.390744 
L 1126.356158 309.479765 
L 1127.698446 305.380778 
L 1129.040733 318.356564 
L 1130.38302 308.440633 
L 1131.725307 296.72406 
L 1133.067595 300.509763 
L 1134.409882 296.95553 
L 1135.752169 315.239625 
L 1137.094456 321.153086 
L 1138.436744 311.390423 
L 1139.779031 305.011078 
L 1141.121318 310.016004 
L 1142.463606 312.916721 
L 1143.805893 307.859278 
L 1145.14818 319.189391 
L 1146.490467 321.158727 
L 1147.832755 316.245955 
L 1149.175042 312.361114 
L 1150.517329 311.758428 
L 1151.859616 313.437909 
L 1153.201904 312.857068 
L 1154.544191 317.505092 
L 1155.886478 317.03776 
L 1157.228765 313.945068 
L 1158.571053 315.390941 
L 1159.91334 313.523464 
L 1161.255627 314.179275 
L 1162.597914 314.575836 
L 1163.940202 317.423153 
L 1165.282489 317.345934 
L 1166.624776 313.803943 
L 1167.967063 314.436076 
L 1169.309351 315.925594 
L 1170.651638 315.571407 
L 1171.993925 315.437661 
L 1173.336213 317.575657 
L 1174.6785 317.346784 
L 1176.020787 315.675182 
L 1177.363074 315.834078 
L 1178.705362 314.334982 
L 1180.047649 315.189442 
L 1181.389936 315.264966 
L 1182.732223 316.635034 
L 1184.074511 317.623555 
L 1186.759085 314.817164 
L 1188.101372 312.747479 
L 1189.44366 312.72663 
L 1190.785947 313.003494 
L 1192.128234 315.728285 
L 1193.470521 312.064092 
L 1196.155096 313.049388 
L 1197.497383 310.142967 
L 1198.83967 309.365318 
L 1200.181958 309.138721 
L 1201.524245 312.16855 
L 1202.866532 311.813938 
L 1204.20882 308.910925 
L 1205.551107 308.616072 
L 1206.893394 305.99245 
L 1208.235681 307.216648 
L 1209.577969 308.134849 
L 1210.920256 311.180932 
L 1212.262543 308.41531 
L 1213.60483 305.940608 
L 1214.947118 308.638968 
L 1216.289405 304.897981 
L 1217.631692 304.010037 
L 1218.973979 301.624133 
L 1220.316267 305.65818 
L 1221.658554 305.878114 
L 1223.000841 304.214346 
L 1224.343128 302.272472 
L 1225.685416 299.030992 
L 1227.027703 301.938288 
L 1228.36999 306.396434 
L 1229.712277 316.119208 
L 1231.054565 319.18899 
L 1232.396852 315.320634 
L 1233.739139 312.043411 
L 1235.081426 302.269501 
L 1236.423714 268.885862 
L 1237.766001 290.050493 
L 1239.108288 303.793687 
L 1240.450576 307.51068 
L 1241.792863 312.282108 
L 1243.13515 226.217612 
L 1244.477437 300.192128 
L 1245.819725 277.923499 
L 1247.162012 295.732127 
L 1248.504299 305.91684 
L 1249.846586 303.591313 
L 1251.188874 313.550592 
L 1252.531161 181.832906 
L 1253.873448 305.188256 
L 1255.215735 287.89965 
L 1256.558023 300.990544 
L 1257.90031 308.753339 
L 1259.242597 301.174479 
L 1260.584884 317.522157 
L 1261.927172 171.545 
L 1263.269459 315.324571 
L 1264.611746 304.131928 
L 1265.954033 310.602905 
L 1267.296321 314.475631 
L 1268.638608 313.61014 
L 1269.980895 316.295241 
L 1271.323183 168.651304 
L 1272.66547 314.202884 
L 1274.007757 311.988749 
L 1275.350044 315.300536 
L 1276.692332 317.292531 
L 1278.034619 307.786159 
L 1279.376906 318.941565 
L 1280.719193 194.923885 
L 1282.061481 334.521446 
L 1283.403768 344.672163 
L 1284.746055 294.121955 
L 1286.088342 304.481267 
L 1287.43063 301.096161 
L 1288.772917 315.700699 
L 1290.115204 287.773646 
L 1291.457491 232.780957 
L 1292.799779 306.891764 
L 1294.142066 333.933052 
L 1296.82664 322.77474 
L 1298.168928 322.269624 
L 1299.511215 258.243997 
L 1300.853502 306.250203 
L 1302.19579 326.503004 
L 1303.538077 291.377701 
L 1304.880364 302.819999 
L 1306.222651 303.122638 
L 1307.564939 314.725552 
L 1308.907226 301.61437 
L 1308.907226 301.61437 
" clip-path="url(#pccb038a8a9)" style="fill: none; stroke: #ffa500; stroke-width: 1.5; stroke-linecap: square"/>
   </g>
   <g id="line2d_23">
    <path d="M 1308.907226 301.61437 
L 1310.249513 235.70392 
L 1311.5918 316.073495 
L 1312.934088 315.924055 
L 1314.276375 315.965005 
L 1315.618662 314.225018 
L 1316.960949 310.603811 
L 1318.303237 301.867557 
L 1319.645524 250.166801 
L 1320.987811 313.702462 
L 1322.330098 313.623134 
L 1323.672386 313.644882 
L 1325.014673 312.269184 
L 1326.35696 309.399229 
" clip-path="url(#pccb038a8a9)" style="fill: none; stroke: #ff0000; stroke-width: 1.5; stroke-linecap: square"/>
   </g>
   <g id="patch_3">
    <path d="M 48.029688 368.3955 
L 48.029688 35.7555 
" style="fill: none; stroke: #000000; stroke-width: 0.8; stroke-linejoin: miter; stroke-linecap: square"/>
   </g>
   <g id="patch_4">
    <path d="M 1387.229688 368.3955 
L 1387.229688 35.7555 
" style="fill: none; stroke: #000000; stroke-width: 0.8; stroke-linejoin: miter; stroke-linecap: square"/>
   </g>
   <g id="patch_5">
    <path d="M 48.029687 368.3955 
L 1387.229687 368.3955 
" style="fill: none; stroke: #000000; stroke-width: 0.8; stroke-linejoin: miter; stroke-linecap: square"/>
   </g>
   <g id="patch_6">
    <path d="M 48.029687 35.7555 
L 1387.229687 35.7555 
" style="fill: none; stroke: #000000; stroke-width: 0.8; stroke-linejoin: miter; stroke-linecap: square"/>
   </g>
   <g id="text_21">
    <!-- Daily Confirmed Cases Forecasting - Pennsylvania -->
    <g transform="translate(567.714063 16.318125)scale(0.12 -0.12)">
     <defs>
      <path id="DejaVuSans-44" d="M 1259 4147 
L 1259 519 
L 2022 519 
Q 2988 519 3436 956 
Q 3884 1394 3884 2338 
Q 3884 3275 3436 3711 
Q 2988 4147 2022 4147 
L 1259 4147 
z
M 628 4666 
L 1925 4666 
Q 3281 4666 3915 4102 
Q 4550 3538 4550 2338 
Q 4550 1131 3912 565 
Q 3275 0 1925 0 
L 628 0 
L 628 4666 
z
" transform="scale(0.015625)"/>
      <path id="DejaVuSans-61" d="M 2194 1759 
Q 1497 1759 1228 1600 
Q 959 1441 959 1056 
Q 959 750 1161 570 
Q 1363 391 1709 391 
Q 2188 391 2477 730 
Q 2766 1069 2766 1631 
L 2766 1759 
L 2194 1759 
z
M 3341 1997 
L 3341 0 
L 2766 0 
L 2766 531 
Q 2569 213 2275 61 
Q 1981 -91 1556 -91 
Q 1019 -91 701 211 
Q 384 513 384 1019 
Q 384 1609 779 1909 
Q 1175 2209 1959 2209 
L 2766 2209 
L 2766 2266 
Q 2766 2663 2505 2880 
Q 2244 3097 1772 3097 
Q 1472 3097 1187 3025 
Q 903 2953 641 2809 
L 641 3341 
Q 956 3463 1253 3523 
Q 1550 3584 1831 3584 
Q 2591 3584 2966 3190 
Q 3341 2797 3341 1997 
z
" transform="scale(0.015625)"/>
      <path id="DejaVuSans-69" d="M 603 3500 
L 1178 3500 
L 1178 0 
L 603 0 
L 603 3500 
z
M 603 4863 
L 1178 4863 
L 1178 4134 
L 603 4134 
L 603 4863 
z
" transform="scale(0.015625)"/>
      <path id="DejaVuSans-6c" d="M 603 4863 
L 1178 4863 
L 1178 0 
L 603 0 
L 603 4863 
z
" transform="scale(0.015625)"/>
      <path id="DejaVuSans-79" d="M 2059 -325 
Q 1816 -950 1584 -1140 
Q 1353 -1331 966 -1331 
L 506 -1331 
L 506 -850 
L 844 -850 
Q 1081 -850 1212 -737 
Q 1344 -625 1503 -206 
L 1606 56 
L 191 3500 
L 800 3500 
L 1894 763 
L 2988 3500 
L 3597 3500 
L 2059 -325 
z
" transform="scale(0.015625)"/>
      <path id="DejaVuSans-20" transform="scale(0.015625)"/>
      <path id="DejaVuSans-43" d="M 4122 4306 
L 4122 3641 
Q 3803 3938 3442 4084 
Q 3081 4231 2675 4231 
Q 1875 4231 1450 3742 
Q 1025 3253 1025 2328 
Q 1025 1406 1450 917 
Q 1875 428 2675 428 
Q 3081 428 3442 575 
Q 3803 722 4122 1019 
L 4122 359 
Q 3791 134 3420 21 
Q 3050 -91 2638 -91 
Q 1578 -91 968 557 
Q 359 1206 359 2328 
Q 359 3453 968 4101 
Q 1578 4750 2638 4750 
Q 3056 4750 3426 4639 
Q 3797 4528 4122 4306 
z
" transform="scale(0.015625)"/>
      <path id="DejaVuSans-6f" d="M 1959 3097 
Q 1497 3097 1228 2736 
Q 959 2375 959 1747 
Q 959 1119 1226 758 
Q 1494 397 1959 397 
Q 2419 397 2687 759 
Q 2956 1122 2956 1747 
Q 2956 2369 2687 2733 
Q 2419 3097 1959 3097 
z
M 1959 3584 
Q 2709 3584 3137 3096 
Q 3566 2609 3566 1747 
Q 3566 888 3137 398 
Q 2709 -91 1959 -91 
Q 1206 -91 779 398 
Q 353 888 353 1747 
Q 353 2609 779 3096 
Q 1206 3584 1959 3584 
z
" transform="scale(0.015625)"/>
      <path id="DejaVuSans-6e" d="M 3513 2113 
L 3513 0 
L 2938 0 
L 2938 2094 
Q 2938 2591 2744 2837 
Q 2550 3084 2163 3084 
Q 1697 3084 1428 2787 
Q 1159 2491 1159 1978 
L 1159 0 
L 581 0 
L 581 3500 
L 1159 3500 
L 1159 2956 
Q 1366 3272 1645 3428 
Q 1925 3584 2291 3584 
Q 2894 3584 3203 3211 
Q 3513 2838 3513 2113 
z
" transform="scale(0.015625)"/>
      <path id="DejaVuSans-66" d="M 2375 4863 
L 2375 4384 
L 1825 4384 
Q 1516 4384 1395 4259 
Q 1275 4134 1275 3809 
L 1275 3500 
L 2222 3500 
L 2222 3053 
L 1275 3053 
L 1275 0 
L 697 0 
L 697 3053 
L 147 3053 
L 147 3500 
L 697 3500 
L 697 3744 
Q 697 4328 969 4595 
Q 1241 4863 1831 4863 
L 2375 4863 
z
" transform="scale(0.015625)"/>
      <path id="DejaVuSans-72" d="M 2631 2963 
Q 2534 3019 2420 3045 
Q 2306 3072 2169 3072 
Q 1681 3072 1420 2755 
Q 1159 2438 1159 1844 
L 1159 0 
L 581 0 
L 581 3500 
L 1159 3500 
L 1159 2956 
Q 1341 3275 1631 3429 
Q 1922 3584 2338 3584 
Q 2397 3584 2469 3576 
Q 2541 3569 2628 3553 
L 2631 2963 
z
" transform="scale(0.015625)"/>
      <path id="DejaVuSans-6d" d="M 3328 2828 
Q 3544 3216 3844 3400 
Q 4144 3584 4550 3584 
Q 5097 3584 5394 3201 
Q 5691 2819 5691 2113 
L 5691 0 
L 5113 0 
L 5113 2094 
Q 5113 2597 4934 2840 
Q 4756 3084 4391 3084 
Q 3944 3084 3684 2787 
Q 3425 2491 3425 1978 
L 3425 0 
L 2847 0 
L 2847 2094 
Q 2847 2600 2669 2842 
Q 2491 3084 2119 3084 
Q 1678 3084 1418 2786 
Q 1159 2488 1159 1978 
L 1159 0 
L 581 0 
L 581 3500 
L 1159 3500 
L 1159 2956 
Q 1356 3278 1631 3431 
Q 1906 3584 2284 3584 
Q 2666 3584 2933 3390 
Q 3200 3197 3328 2828 
z
" transform="scale(0.015625)"/>
      <path id="DejaVuSans-65" d="M 3597 1894 
L 3597 1613 
L 953 1613 
Q 991 1019 1311 708 
Q 1631 397 2203 397 
Q 2534 397 2845 478 
Q 3156 559 3463 722 
L 3463 178 
Q 3153 47 2828 -22 
Q 2503 -91 2169 -91 
Q 1331 -91 842 396 
Q 353 884 353 1716 
Q 353 2575 817 3079 
Q 1281 3584 2069 3584 
Q 2775 3584 3186 3129 
Q 3597 2675 3597 1894 
z
M 3022 2063 
Q 3016 2534 2758 2815 
Q 2500 3097 2075 3097 
Q 1594 3097 1305 2825 
Q 1016 2553 972 2059 
L 3022 2063 
z
" transform="scale(0.015625)"/>
      <path id="DejaVuSans-64" d="M 2906 2969 
L 2906 4863 
L 3481 4863 
L 3481 0 
L 2906 0 
L 2906 525 
Q 2725 213 2448 61 
Q 2172 -91 1784 -91 
Q 1150 -91 751 415 
Q 353 922 353 1747 
Q 353 2572 751 3078 
Q 1150 3584 1784 3584 
Q 2172 3584 2448 3432 
Q 2725 3281 2906 2969 
z
M 947 1747 
Q 947 1113 1208 752 
Q 1469 391 1925 391 
Q 2381 391 2643 752 
Q 2906 1113 2906 1747 
Q 2906 2381 2643 2742 
Q 2381 3103 1925 3103 
Q 1469 3103 1208 2742 
Q 947 2381 947 1747 
z
" transform="scale(0.015625)"/>
      <path id="DejaVuSans-73" d="M 2834 3397 
L 2834 2853 
Q 2591 2978 2328 3040 
Q 2066 3103 1784 3103 
Q 1356 3103 1142 2972 
Q 928 2841 928 2578 
Q 928 2378 1081 2264 
Q 1234 2150 1697 2047 
L 1894 2003 
Q 2506 1872 2764 1633 
Q 3022 1394 3022 966 
Q 3022 478 2636 193 
Q 2250 -91 1575 -91 
Q 1294 -91 989 -36 
Q 684 19 347 128 
L 347 722 
Q 666 556 975 473 
Q 1284 391 1588 391 
Q 1994 391 2212 530 
Q 2431 669 2431 922 
Q 2431 1156 2273 1281 
Q 2116 1406 1581 1522 
L 1381 1569 
Q 847 1681 609 1914 
Q 372 2147 372 2553 
Q 372 3047 722 3315 
Q 1072 3584 1716 3584 
Q 2034 3584 2315 3537 
Q 2597 3491 2834 3397 
z
" transform="scale(0.015625)"/>
      <path id="DejaVuSans-46" d="M 628 4666 
L 3309 4666 
L 3309 4134 
L 1259 4134 
L 1259 2759 
L 3109 2759 
L 3109 2228 
L 1259 2228 
L 1259 0 
L 628 0 
L 628 4666 
z
" transform="scale(0.015625)"/>
      <path id="DejaVuSans-63" d="M 3122 3366 
L 3122 2828 
Q 2878 2963 2633 3030 
Q 2388 3097 2138 3097 
Q 1578 3097 1268 2742 
Q 959 2388 959 1747 
Q 959 1106 1268 751 
Q 1578 397 2138 397 
Q 2388 397 2633 464 
Q 2878 531 3122 666 
L 3122 134 
Q 2881 22 2623 -34 
Q 2366 -91 2075 -91 
Q 1284 -91 818 406 
Q 353 903 353 1747 
Q 353 2603 823 3093 
Q 1294 3584 2113 3584 
Q 2378 3584 2631 3529 
Q 2884 3475 3122 3366 
z
" transform="scale(0.015625)"/>
      <path id="DejaVuSans-74" d="M 1172 4494 
L 1172 3500 
L 2356 3500 
L 2356 3053 
L 1172 3053 
L 1172 1153 
Q 1172 725 1289 603 
Q 1406 481 1766 481 
L 2356 481 
L 2356 0 
L 1766 0 
Q 1100 0 847 248 
Q 594 497 594 1153 
L 594 3053 
L 172 3053 
L 172 3500 
L 594 3500 
L 594 4494 
L 1172 4494 
z
" transform="scale(0.015625)"/>
      <path id="DejaVuSans-67" d="M 2906 1791 
Q 2906 2416 2648 2759 
Q 2391 3103 1925 3103 
Q 1463 3103 1205 2759 
Q 947 2416 947 1791 
Q 947 1169 1205 825 
Q 1463 481 1925 481 
Q 2391 481 2648 825 
Q 2906 1169 2906 1791 
z
M 3481 434 
Q 3481 -459 3084 -895 
Q 2688 -1331 1869 -1331 
Q 1566 -1331 1297 -1286 
Q 1028 -1241 775 -1147 
L 775 -588 
Q 1028 -725 1275 -790 
Q 1522 -856 1778 -856 
Q 2344 -856 2625 -561 
Q 2906 -266 2906 331 
L 2906 616 
Q 2728 306 2450 153 
Q 2172 0 1784 0 
Q 1141 0 747 490 
Q 353 981 353 1791 
Q 353 2603 747 3093 
Q 1141 3584 1784 3584 
Q 2172 3584 2450 3431 
Q 2728 3278 2906 2969 
L 2906 3500 
L 3481 3500 
L 3481 434 
z
" transform="scale(0.015625)"/>
      <path id="DejaVuSans-50" d="M 1259 4147 
L 1259 2394 
L 2053 2394 
Q 2494 2394 2734 2622 
Q 2975 2850 2975 3272 
Q 2975 3691 2734 3919 
Q 2494 4147 2053 4147 
L 1259 4147 
z
M 628 4666 
L 2053 4666 
Q 2838 4666 3239 4311 
Q 3641 3956 3641 3272 
Q 3641 2581 3239 2228 
Q 2838 1875 2053 1875 
L 1259 1875 
L 1259 0 
L 628 0 
L 628 4666 
z
" transform="scale(0.015625)"/>
      <path id="DejaVuSans-76" d="M 191 3500 
L 800 3500 
L 1894 563 
L 2988 3500 
L 3597 3500 
L 2284 0 
L 1503 0 
L 191 3500 
z
" transform="scale(0.015625)"/>
     </defs>
     <use xlink:href="#DejaVuSans-44"/>
     <use xlink:href="#DejaVuSans-61" x="77.001953"/>
     <use xlink:href="#DejaVuSans-69" x="138.28125"/>
     <use xlink:href="#DejaVuSans-6c" x="166.064453"/>
     <use xlink:href="#DejaVuSans-79" x="193.847656"/>
     <use xlink:href="#DejaVuSans-20" x="253.027344"/>
     <use xlink:href="#DejaVuSans-43" x="284.814453"/>
     <use xlink:href="#DejaVuSans-6f" x="354.638672"/>
     <use xlink:href="#DejaVuSans-6e" x="415.820312"/>
     <use xlink:href="#DejaVuSans-66" x="479.199219"/>
     <use xlink:href="#DejaVuSans-69" x="514.404297"/>
     <use xlink:href="#DejaVuSans-72" x="542.1875"/>
     <use xlink:href="#DejaVuSans-6d" x="581.550781"/>
     <use xlink:href="#DejaVuSans-65" x="678.962891"/>
     <use xlink:href="#DejaVuSans-64" x="740.486328"/>
     <use xlink:href="#DejaVuSans-20" x="803.962891"/>
     <use xlink:href="#DejaVuSans-43" x="835.75"/>
     <use xlink:href="#DejaVuSans-61" x="905.574219"/>
     <use xlink:href="#DejaVuSans-73" x="966.853516"/>
     <use xlink:href="#DejaVuSans-65" x="1018.953125"/>
     <use xlink:href="#DejaVuSans-73" x="1080.476562"/>
     <use xlink:href="#DejaVuSans-20" x="1132.576172"/>
     <use xlink:href="#DejaVuSans-46" x="1164.363281"/>
     <use xlink:href="#DejaVuSans-6f" x="1218.257812"/>
     <use xlink:href="#DejaVuSans-72" x="1279.439453"/>
     <use xlink:href="#DejaVuSans-65" x="1318.302734"/>
     <use xlink:href="#DejaVuSans-63" x="1379.826172"/>
     <use xlink:href="#DejaVuSans-61" x="1434.806641"/>
     <use xlink:href="#DejaVuSans-73" x="1496.085938"/>
     <use xlink:href="#DejaVuSans-74" x="1548.185547"/>
     <use xlink:href="#DejaVuSans-69" x="1587.394531"/>
     <use xlink:href="#DejaVuSans-6e" x="1615.177734"/>
     <use xlink:href="#DejaVuSans-67" x="1678.556641"/>
     <use xlink:href="#DejaVuSans-20" x="1742.033203"/>
     <use xlink:href="#DejaVuSans-2d" x="1773.820312"/>
     <use xlink:href="#DejaVuSans-20" x="1809.904297"/>
     <use xlink:href="#DejaVuSans-50" x="1841.691406"/>
     <use xlink:href="#DejaVuSans-65" x="1898.369141"/>
     <use xlink:href="#DejaVuSans-6e" x="1959.892578"/>
     <use xlink:href="#DejaVuSans-6e" x="2023.271484"/>
     <use xlink:href="#DejaVuSans-73" x="2086.650391"/>
     <use xlink:href="#DejaVuSans-79" x="2138.75"/>
     <use xlink:href="#DejaVuSans-6c" x="2197.929688"/>
     <use xlink:href="#DejaVuSans-76" x="2225.712891"/>
     <use xlink:href="#DejaVuSans-61" x="2284.892578"/>
     <use xlink:href="#DejaVuSans-6e" x="2346.171875"/>
     <use xlink:href="#DejaVuSans-69" x="2409.550781"/>
     <use xlink:href="#DejaVuSans-61" x="2437.333984"/>
    </g>
    <!-- ARIMA (1, 1, 1)x(1, 0, 1, 7) (R2 = 0.477929) -->
    <g transform="translate(585.645625 29.7555)scale(0.12 -0.12)">
     <defs>
      <path id="DejaVuSans-41" d="M 2188 4044 
L 1331 1722 
L 3047 1722 
L 2188 4044 
z
M 1831 4666 
L 2547 4666 
L 4325 0 
L 3669 0 
L 3244 1197 
L 1141 1197 
L 716 0 
L 50 0 
L 1831 4666 
z
" transform="scale(0.015625)"/>
      <path id="DejaVuSans-52" d="M 2841 2188 
Q 3044 2119 3236 1894 
Q 3428 1669 3622 1275 
L 4263 0 
L 3584 0 
L 2988 1197 
Q 2756 1666 2539 1819 
Q 2322 1972 1947 1972 
L 1259 1972 
L 1259 0 
L 628 0 
L 628 4666 
L 2053 4666 
Q 2853 4666 3247 4331 
Q 3641 3997 3641 3322 
Q 3641 2881 3436 2590 
Q 3231 2300 2841 2188 
z
M 1259 4147 
L 1259 2491 
L 2053 2491 
Q 2509 2491 2742 2702 
Q 2975 2913 2975 3322 
Q 2975 3731 2742 3939 
Q 2509 4147 2053 4147 
L 1259 4147 
z
" transform="scale(0.015625)"/>
      <path id="DejaVuSans-49" d="M 628 4666 
L 1259 4666 
L 1259 0 
L 628 0 
L 628 4666 
z
" transform="scale(0.015625)"/>
      <path id="DejaVuSans-4d" d="M 628 4666 
L 1569 4666 
L 2759 1491 
L 3956 4666 
L 4897 4666 
L 4897 0 
L 4281 0 
L 4281 4097 
L 3078 897 
L 2444 897 
L 1241 4097 
L 1241 0 
L 628 0 
L 628 4666 
z
" transform="scale(0.015625)"/>
      <path id="DejaVuSans-28" d="M 1984 4856 
Q 1566 4138 1362 3434 
Q 1159 2731 1159 2009 
Q 1159 1288 1364 580 
Q 1569 -128 1984 -844 
L 1484 -844 
Q 1016 -109 783 600 
Q 550 1309 550 2009 
Q 550 2706 781 3412 
Q 1013 4119 1484 4856 
L 1984 4856 
z
" transform="scale(0.015625)"/>
      <path id="DejaVuSans-2c" d="M 750 794 
L 1409 794 
L 1409 256 
L 897 -744 
L 494 -744 
L 750 256 
L 750 794 
z
" transform="scale(0.015625)"/>
      <path id="DejaVuSans-29" d="M 513 4856 
L 1013 4856 
Q 1481 4119 1714 3412 
Q 1947 2706 1947 2009 
Q 1947 1309 1714 600 
Q 1481 -109 1013 -844 
L 513 -844 
Q 928 -128 1133 580 
Q 1338 1288 1338 2009 
Q 1338 2731 1133 3434 
Q 928 4138 513 4856 
z
" transform="scale(0.015625)"/>
      <path id="DejaVuSans-78" d="M 3513 3500 
L 2247 1797 
L 3578 0 
L 2900 0 
L 1881 1375 
L 863 0 
L 184 0 
L 1544 1831 
L 300 3500 
L 978 3500 
L 1906 2253 
L 2834 3500 
L 3513 3500 
z
" transform="scale(0.015625)"/>
      <path id="DejaVuSans-3d" d="M 678 2906 
L 4684 2906 
L 4684 2381 
L 678 2381 
L 678 2906 
z
M 678 1631 
L 4684 1631 
L 4684 1100 
L 678 1100 
L 678 1631 
z
" transform="scale(0.015625)"/>
      <path id="DejaVuSans-2e" d="M 684 794 
L 1344 794 
L 1344 0 
L 684 0 
L 684 794 
z
" transform="scale(0.015625)"/>
      <path id="DejaVuSans-39" d="M 703 97 
L 703 672 
Q 941 559 1184 500 
Q 1428 441 1663 441 
Q 2288 441 2617 861 
Q 2947 1281 2994 2138 
Q 2813 1869 2534 1725 
Q 2256 1581 1919 1581 
Q 1219 1581 811 2004 
Q 403 2428 403 3163 
Q 403 3881 828 4315 
Q 1253 4750 1959 4750 
Q 2769 4750 3195 4129 
Q 3622 3509 3622 2328 
Q 3622 1225 3098 567 
Q 2575 -91 1691 -91 
Q 1453 -91 1209 -44 
Q 966 3 703 97 
z
M 1959 2075 
Q 2384 2075 2632 2365 
Q 2881 2656 2881 3163 
Q 2881 3666 2632 3958 
Q 2384 4250 1959 4250 
Q 1534 4250 1286 3958 
Q 1038 3666 1038 3163 
Q 1038 2656 1286 2365 
Q 1534 2075 1959 2075 
z
" transform="scale(0.015625)"/>
     </defs>
     <use xlink:href="#DejaVuSans-41"/>
     <use xlink:href="#DejaVuSans-52" x="68.408203"/>
     <use xlink:href="#DejaVuSans-49" x="137.890625"/>
     <use xlink:href="#DejaVuSans-4d" x="167.382812"/>
     <use xlink:href="#DejaVuSans-41" x="253.662109"/>
     <use xlink:href="#DejaVuSans-20" x="322.070312"/>
     <use xlink:href="#DejaVuSans-28" x="353.857422"/>
     <use xlink:href="#DejaVuSans-31" x="392.871094"/>
     <use xlink:href="#DejaVuSans-2c" x="456.494141"/>
     <use xlink:href="#DejaVuSans-20" x="488.28125"/>
     <use xlink:href="#DejaVuSans-31" x="520.068359"/>
     <use xlink:href="#DejaVuSans-2c" x="583.691406"/>
     <use xlink:href="#DejaVuSans-20" x="615.478516"/>
     <use xlink:href="#DejaVuSans-31" x="647.265625"/>
     <use xlink:href="#DejaVuSans-29" x="710.888672"/>
     <use xlink:href="#DejaVuSans-78" x="749.902344"/>
     <use xlink:href="#DejaVuSans-28" x="809.082031"/>
     <use xlink:href="#DejaVuSans-31" x="848.095703"/>
     <use xlink:href="#DejaVuSans-2c" x="911.71875"/>
     <use xlink:href="#DejaVuSans-20" x="943.505859"/>
     <use xlink:href="#DejaVuSans-30" x="975.292969"/>
     <use xlink:href="#DejaVuSans-2c" x="1038.916016"/>
     <use xlink:href="#DejaVuSans-20" x="1070.703125"/>
     <use xlink:href="#DejaVuSans-31" x="1102.490234"/>
     <use xlink:href="#DejaVuSans-2c" x="1166.113281"/>
     <use xlink:href="#DejaVuSans-20" x="1197.900391"/>
     <use xlink:href="#DejaVuSans-37" x="1229.6875"/>
     <use xlink:href="#DejaVuSans-29" x="1293.310547"/>
     <use xlink:href="#DejaVuSans-20" x="1332.324219"/>
     <use xlink:href="#DejaVuSans-28" x="1364.111328"/>
     <use xlink:href="#DejaVuSans-52" x="1403.125"/>
     <use xlink:href="#DejaVuSans-32" x="1472.607422"/>
     <use xlink:href="#DejaVuSans-20" x="1536.230469"/>
     <use xlink:href="#DejaVuSans-3d" x="1568.017578"/>
     <use xlink:href="#DejaVuSans-20" x="1651.806641"/>
     <use xlink:href="#DejaVuSans-30" x="1683.59375"/>
     <use xlink:href="#DejaVuSans-2e" x="1747.216797"/>
     <use xlink:href="#DejaVuSans-34" x="1779.003906"/>
     <use xlink:href="#DejaVuSans-37" x="1842.626953"/>
     <use xlink:href="#DejaVuSans-37" x="1906.25"/>
     <use xlink:href="#DejaVuSans-39" x="1969.873047"/>
     <use xlink:href="#DejaVuSans-32" x="2033.496094"/>
     <use xlink:href="#DejaVuSans-39" x="2097.119141"/>
     <use xlink:href="#DejaVuSans-29" x="2160.742188"/>
    </g>
   </g>
   <g id="legend_1">
    <g id="patch_7">
     <path d="M 1283.15 87.789875 
L 1380.229688 87.789875 
Q 1382.229688 87.789875 1382.229688 85.789875 
L 1382.229688 42.7555 
Q 1382.229688 40.7555 1380.229688 40.7555 
L 1283.15 40.7555 
Q 1281.15 40.7555 1281.15 42.7555 
L 1281.15 85.789875 
Q 1281.15 87.789875 1283.15 87.789875 
z
" style="fill: #ffffff; opacity: 0.8; stroke: #cccccc; stroke-linejoin: miter"/>
    </g>
    <g id="line2d_24">
     <path d="M 1285.15 48.853937 
L 1295.15 48.853937 
L 1305.15 48.853937 
" style="fill: none; stroke: #0000ff; stroke-width: 1.5; stroke-linecap: square"/>
    </g>
    <g id="text_22">
     <!-- Actual Value -->
     <g transform="translate(1313.15 52.353937)scale(0.1 -0.1)">
      <defs>
       <path id="DejaVuSans-75" d="M 544 1381 
L 544 3500 
L 1119 3500 
L 1119 1403 
Q 1119 906 1312 657 
Q 1506 409 1894 409 
Q 2359 409 2629 706 
Q 2900 1003 2900 1516 
L 2900 3500 
L 3475 3500 
L 3475 0 
L 2900 0 
L 2900 538 
Q 2691 219 2414 64 
Q 2138 -91 1772 -91 
Q 1169 -91 856 284 
Q 544 659 544 1381 
z
M 1991 3584 
L 1991 3584 
z
" transform="scale(0.015625)"/>
       <path id="DejaVuSans-56" d="M 1831 0 
L 50 4666 
L 709 4666 
L 2188 738 
L 3669 4666 
L 4325 4666 
L 2547 0 
L 1831 0 
z
" transform="scale(0.015625)"/>
      </defs>
      <use xlink:href="#DejaVuSans-41"/>
      <use xlink:href="#DejaVuSans-63" x="66.658203"/>
      <use xlink:href="#DejaVuSans-74" x="121.638672"/>
      <use xlink:href="#DejaVuSans-75" x="160.847656"/>
      <use xlink:href="#DejaVuSans-61" x="224.226562"/>
      <use xlink:href="#DejaVuSans-6c" x="285.505859"/>
      <use xlink:href="#DejaVuSans-20" x="313.289062"/>
      <use xlink:href="#DejaVuSans-56" x="345.076172"/>
      <use xlink:href="#DejaVuSans-61" x="405.734375"/>
      <use xlink:href="#DejaVuSans-6c" x="467.013672"/>
      <use xlink:href="#DejaVuSans-75" x="494.796875"/>
      <use xlink:href="#DejaVuSans-65" x="558.175781"/>
     </g>
    </g>
    <g id="line2d_25">
     <path d="M 1285.15 63.532062 
L 1295.15 63.532062 
L 1305.15 63.532062 
" style="fill: none; stroke: #ffa500; stroke-width: 1.5; stroke-linecap: square"/>
    </g>
    <g id="text_23">
     <!-- Check Value -->
     <g transform="translate(1313.15 67.032062)scale(0.1 -0.1)">
      <defs>
       <path id="DejaVuSans-68" d="M 3513 2113 
L 3513 0 
L 2938 0 
L 2938 2094 
Q 2938 2591 2744 2837 
Q 2550 3084 2163 3084 
Q 1697 3084 1428 2787 
Q 1159 2491 1159 1978 
L 1159 0 
L 581 0 
L 581 4863 
L 1159 4863 
L 1159 2956 
Q 1366 3272 1645 3428 
Q 1925 3584 2291 3584 
Q 2894 3584 3203 3211 
Q 3513 2838 3513 2113 
z
" transform="scale(0.015625)"/>
       <path id="DejaVuSans-6b" d="M 581 4863 
L 1159 4863 
L 1159 1991 
L 2875 3500 
L 3609 3500 
L 1753 1863 
L 3688 0 
L 2938 0 
L 1159 1709 
L 1159 0 
L 581 0 
L 581 4863 
z
" transform="scale(0.015625)"/>
      </defs>
      <use xlink:href="#DejaVuSans-43"/>
      <use xlink:href="#DejaVuSans-68" x="69.824219"/>
      <use xlink:href="#DejaVuSans-65" x="133.203125"/>
      <use xlink:href="#DejaVuSans-63" x="194.726562"/>
      <use xlink:href="#DejaVuSans-6b" x="249.707031"/>
      <use xlink:href="#DejaVuSans-20" x="307.617188"/>
      <use xlink:href="#DejaVuSans-56" x="339.404297"/>
      <use xlink:href="#DejaVuSans-61" x="400.0625"/>
      <use xlink:href="#DejaVuSans-6c" x="461.341797"/>
      <use xlink:href="#DejaVuSans-75" x="489.125"/>
      <use xlink:href="#DejaVuSans-65" x="552.503906"/>
     </g>
    </g>
    <g id="line2d_26">
     <path d="M 1285.15 78.210187 
L 1295.15 78.210187 
L 1305.15 78.210187 
" style="fill: none; stroke: #ff0000; stroke-width: 1.5; stroke-linecap: square"/>
    </g>
    <g id="text_24">
     <!-- Predict Value -->
     <g transform="translate(1313.15 81.710187)scale(0.1 -0.1)">
      <use xlink:href="#DejaVuSans-50"/>
      <use xlink:href="#DejaVuSans-72" x="58.552734"/>
      <use xlink:href="#DejaVuSans-65" x="97.416016"/>
      <use xlink:href="#DejaVuSans-64" x="158.939453"/>
      <use xlink:href="#DejaVuSans-69" x="222.416016"/>
      <use xlink:href="#DejaVuSans-63" x="250.199219"/>
      <use xlink:href="#DejaVuSans-74" x="305.179688"/>
      <use xlink:href="#DejaVuSans-20" x="344.388672"/>
      <use xlink:href="#DejaVuSans-56" x="376.175781"/>
      <use xlink:href="#DejaVuSans-61" x="436.833984"/>
      <use xlink:href="#DejaVuSans-6c" x="498.113281"/>
      <use xlink:href="#DejaVuSans-75" x="525.896484"/>
      <use xlink:href="#DejaVuSans-65" x="589.275391"/>
     </g>
    </g>
   </g>
  </g>
 </g>
 <defs>
  <clipPath id="pccb038a8a9">
   <rect x="48.029688" y="35.7555" width="1339.2" height="332.64"/>
  </clipPath>
 </defs>
</svg>
