<?xml version="1.0" encoding="utf-8" standalone="no"?>
<!DOCTYPE svg PUBLIC "-//W3C//DTD SVG 1.1//EN"
  "http://www.w3.org/Graphics/SVG/1.1/DTD/svg11.dtd">
<svg xmlns:xlink="http://www.w3.org/1999/xlink" width="1392.4125pt" height="392.273625pt" viewBox="0 0 1392.4125 392.273625" xmlns="http://www.w3.org/2000/svg" version="1.1">
 <metadata>
  <rdf:RDF xmlns:dc="http://purl.org/dc/elements/1.1/" xmlns:cc="http://creativecommons.org/ns#" xmlns:rdf="http://www.w3.org/1999/02/22-rdf-syntax-ns#">
   <cc:Work>
    <dc:type rdf:resource="http://purl.org/dc/dcmitype/StillImage"/>
    <dc:date>2022-07-10T17:16:10.837822</dc:date>
    <dc:format>image/svg+xml</dc:format>
    <dc:creator>
     <cc:Agent>
      <dc:title>Matplotlib v3.5.2, https://matplotlib.org/</dc:title>
     </cc:Agent>
    </dc:creator>
   </cc:Work>
  </rdf:RDF>
 </metadata>
 <defs>
  <style type="text/css">*{stroke-linejoin: round; stroke-linecap: butt}</style>
 </defs>
 <g id="figure_1">
  <g id="patch_1">
   <path d="M 0 392.273625 
L 1392.4125 392.273625 
L 1392.4125 0 
L 0 0 
z
" style="fill: #ffffff"/>
  </g>
  <g id="axes_1">
   <g id="patch_2">
    <path d="M 46.0125 368.3955 
L 1385.2125 368.3955 
L 1385.2125 35.7555 
L 46.0125 35.7555 
z
" style="fill: #ffffff"/>
   </g>
   <g id="matplotlib.axis_1">
    <g id="xtick_1">
     <g id="line2d_1">
      <defs>
       <path id="m7a56b97851" d="M 0 0 
L 0 3.5 
" style="stroke: #000000; stroke-width: 0.8"/>
      </defs>
      <g>
       <use xlink:href="#m7a56b97851" x="77.484569" y="368.3955" style="stroke: #000000; stroke-width: 0.8"/>
      </g>
     </g>
     <g id="text_1">
      <!-- 2020-01 -->
      <g transform="translate(56.593162 382.993937)scale(0.1 -0.1)">
       <defs>
        <path id="DejaVuSans-32" d="M 1228 531 
L 3431 531 
L 3431 0 
L 469 0 
L 469 531 
Q 828 903 1448 1529 
Q 2069 2156 2228 2338 
Q 2531 2678 2651 2914 
Q 2772 3150 2772 3378 
Q 2772 3750 2511 3984 
Q 2250 4219 1831 4219 
Q 1534 4219 1204 4116 
Q 875 4013 500 3803 
L 500 4441 
Q 881 4594 1212 4672 
Q 1544 4750 1819 4750 
Q 2544 4750 2975 4387 
Q 3406 4025 3406 3419 
Q 3406 3131 3298 2873 
Q 3191 2616 2906 2266 
Q 2828 2175 2409 1742 
Q 1991 1309 1228 531 
z
" transform="scale(0.015625)"/>
        <path id="DejaVuSans-30" d="M 2034 4250 
Q 1547 4250 1301 3770 
Q 1056 3291 1056 2328 
Q 1056 1369 1301 889 
Q 1547 409 2034 409 
Q 2525 409 2770 889 
Q 3016 1369 3016 2328 
Q 3016 3291 2770 3770 
Q 2525 4250 2034 4250 
z
M 2034 4750 
Q 2819 4750 3233 4129 
Q 3647 3509 3647 2328 
Q 3647 1150 3233 529 
Q 2819 -91 2034 -91 
Q 1250 -91 836 529 
Q 422 1150 422 2328 
Q 422 3509 836 4129 
Q 1250 4750 2034 4750 
z
" transform="scale(0.015625)"/>
        <path id="DejaVuSans-2d" d="M 313 2009 
L 1997 2009 
L 1997 1497 
L 313 1497 
L 313 2009 
z
" transform="scale(0.015625)"/>
        <path id="DejaVuSans-31" d="M 794 531 
L 1825 531 
L 1825 4091 
L 703 3866 
L 703 4441 
L 1819 4666 
L 2450 4666 
L 2450 531 
L 3481 531 
L 3481 0 
L 794 0 
L 794 531 
z
" transform="scale(0.015625)"/>
       </defs>
       <use xlink:href="#DejaVuSans-32"/>
       <use xlink:href="#DejaVuSans-30" x="63.623047"/>
       <use xlink:href="#DejaVuSans-32" x="127.246094"/>
       <use xlink:href="#DejaVuSans-30" x="190.869141"/>
       <use xlink:href="#DejaVuSans-2d" x="254.492188"/>
       <use xlink:href="#DejaVuSans-30" x="290.576172"/>
       <use xlink:href="#DejaVuSans-31" x="354.199219"/>
      </g>
     </g>
    </g>
    <g id="xtick_2">
     <g id="line2d_2">
      <g>
       <use xlink:href="#m7a56b97851" x="199.096384" y="368.3955" style="stroke: #000000; stroke-width: 0.8"/>
      </g>
     </g>
     <g id="text_2">
      <!-- 2020-04 -->
      <g transform="translate(178.204978 382.993937)scale(0.1 -0.1)">
       <defs>
        <path id="DejaVuSans-34" d="M 2419 4116 
L 825 1625 
L 2419 1625 
L 2419 4116 
z
M 2253 4666 
L 3047 4666 
L 3047 1625 
L 3713 1625 
L 3713 1100 
L 3047 1100 
L 3047 0 
L 2419 0 
L 2419 1100 
L 313 1100 
L 313 1709 
L 2253 4666 
z
" transform="scale(0.015625)"/>
       </defs>
       <use xlink:href="#DejaVuSans-32"/>
       <use xlink:href="#DejaVuSans-30" x="63.623047"/>
       <use xlink:href="#DejaVuSans-32" x="127.246094"/>
       <use xlink:href="#DejaVuSans-30" x="190.869141"/>
       <use xlink:href="#DejaVuSans-2d" x="254.492188"/>
       <use xlink:href="#DejaVuSans-30" x="290.576172"/>
       <use xlink:href="#DejaVuSans-34" x="354.199219"/>
      </g>
     </g>
    </g>
    <g id="xtick_3">
     <g id="line2d_3">
      <g>
       <use xlink:href="#m7a56b97851" x="320.708199" y="368.3955" style="stroke: #000000; stroke-width: 0.8"/>
      </g>
     </g>
     <g id="text_3">
      <!-- 2020-07 -->
      <g transform="translate(299.816793 382.993937)scale(0.1 -0.1)">
       <defs>
        <path id="DejaVuSans-37" d="M 525 4666 
L 3525 4666 
L 3525 4397 
L 1831 0 
L 1172 0 
L 2766 4134 
L 525 4134 
L 525 4666 
z
" transform="scale(0.015625)"/>
       </defs>
       <use xlink:href="#DejaVuSans-32"/>
       <use xlink:href="#DejaVuSans-30" x="63.623047"/>
       <use xlink:href="#DejaVuSans-32" x="127.246094"/>
       <use xlink:href="#DejaVuSans-30" x="190.869141"/>
       <use xlink:href="#DejaVuSans-2d" x="254.492188"/>
       <use xlink:href="#DejaVuSans-30" x="290.576172"/>
       <use xlink:href="#DejaVuSans-37" x="354.199219"/>
      </g>
     </g>
    </g>
    <g id="xtick_4">
     <g id="line2d_4">
      <g>
       <use xlink:href="#m7a56b97851" x="443.656408" y="368.3955" style="stroke: #000000; stroke-width: 0.8"/>
      </g>
     </g>
     <g id="text_4">
      <!-- 2020-10 -->
      <g transform="translate(422.765002 382.993937)scale(0.1 -0.1)">
       <use xlink:href="#DejaVuSans-32"/>
       <use xlink:href="#DejaVuSans-30" x="63.623047"/>
       <use xlink:href="#DejaVuSans-32" x="127.246094"/>
       <use xlink:href="#DejaVuSans-30" x="190.869141"/>
       <use xlink:href="#DejaVuSans-2d" x="254.492188"/>
       <use xlink:href="#DejaVuSans-31" x="290.576172"/>
       <use xlink:href="#DejaVuSans-30" x="354.199219"/>
      </g>
     </g>
    </g>
    <g id="xtick_5">
     <g id="line2d_5">
      <g>
       <use xlink:href="#m7a56b97851" x="566.604617" y="368.3955" style="stroke: #000000; stroke-width: 0.8"/>
      </g>
     </g>
     <g id="text_5">
      <!-- 2021-01 -->
      <g transform="translate(545.71321 382.993937)scale(0.1 -0.1)">
       <use xlink:href="#DejaVuSans-32"/>
       <use xlink:href="#DejaVuSans-30" x="63.623047"/>
       <use xlink:href="#DejaVuSans-32" x="127.246094"/>
       <use xlink:href="#DejaVuSans-31" x="190.869141"/>
       <use xlink:href="#DejaVuSans-2d" x="254.492188"/>
       <use xlink:href="#DejaVuSans-30" x="290.576172"/>
       <use xlink:href="#DejaVuSans-31" x="354.199219"/>
      </g>
     </g>
    </g>
    <g id="xtick_6">
     <g id="line2d_6">
      <g>
       <use xlink:href="#m7a56b97851" x="686.880038" y="368.3955" style="stroke: #000000; stroke-width: 0.8"/>
      </g>
     </g>
     <g id="text_6">
      <!-- 2021-04 -->
      <g transform="translate(665.988632 382.993937)scale(0.1 -0.1)">
       <use xlink:href="#DejaVuSans-32"/>
       <use xlink:href="#DejaVuSans-30" x="63.623047"/>
       <use xlink:href="#DejaVuSans-32" x="127.246094"/>
       <use xlink:href="#DejaVuSans-31" x="190.869141"/>
       <use xlink:href="#DejaVuSans-2d" x="254.492188"/>
       <use xlink:href="#DejaVuSans-30" x="290.576172"/>
       <use xlink:href="#DejaVuSans-34" x="354.199219"/>
      </g>
     </g>
    </g>
    <g id="xtick_7">
     <g id="line2d_7">
      <g>
       <use xlink:href="#m7a56b97851" x="808.491853" y="368.3955" style="stroke: #000000; stroke-width: 0.8"/>
      </g>
     </g>
     <g id="text_7">
      <!-- 2021-07 -->
      <g transform="translate(787.600447 382.993937)scale(0.1 -0.1)">
       <use xlink:href="#DejaVuSans-32"/>
       <use xlink:href="#DejaVuSans-30" x="63.623047"/>
       <use xlink:href="#DejaVuSans-32" x="127.246094"/>
       <use xlink:href="#DejaVuSans-31" x="190.869141"/>
       <use xlink:href="#DejaVuSans-2d" x="254.492188"/>
       <use xlink:href="#DejaVuSans-30" x="290.576172"/>
       <use xlink:href="#DejaVuSans-37" x="354.199219"/>
      </g>
     </g>
    </g>
    <g id="xtick_8">
     <g id="line2d_8">
      <g>
       <use xlink:href="#m7a56b97851" x="931.440062" y="368.3955" style="stroke: #000000; stroke-width: 0.8"/>
      </g>
     </g>
     <g id="text_8">
      <!-- 2021-10 -->
      <g transform="translate(910.548656 382.993937)scale(0.1 -0.1)">
       <use xlink:href="#DejaVuSans-32"/>
       <use xlink:href="#DejaVuSans-30" x="63.623047"/>
       <use xlink:href="#DejaVuSans-32" x="127.246094"/>
       <use xlink:href="#DejaVuSans-31" x="190.869141"/>
       <use xlink:href="#DejaVuSans-2d" x="254.492188"/>
       <use xlink:href="#DejaVuSans-31" x="290.576172"/>
       <use xlink:href="#DejaVuSans-30" x="354.199219"/>
      </g>
     </g>
    </g>
    <g id="xtick_9">
     <g id="line2d_9">
      <g>
       <use xlink:href="#m7a56b97851" x="1054.388271" y="368.3955" style="stroke: #000000; stroke-width: 0.8"/>
      </g>
     </g>
     <g id="text_9">
      <!-- 2022-01 -->
      <g transform="translate(1033.496865 382.993937)scale(0.1 -0.1)">
       <use xlink:href="#DejaVuSans-32"/>
       <use xlink:href="#DejaVuSans-30" x="63.623047"/>
       <use xlink:href="#DejaVuSans-32" x="127.246094"/>
       <use xlink:href="#DejaVuSans-32" x="190.869141"/>
       <use xlink:href="#DejaVuSans-2d" x="254.492188"/>
       <use xlink:href="#DejaVuSans-30" x="290.576172"/>
       <use xlink:href="#DejaVuSans-31" x="354.199219"/>
      </g>
     </g>
    </g>
    <g id="xtick_10">
     <g id="line2d_10">
      <g>
       <use xlink:href="#m7a56b97851" x="1174.663692" y="368.3955" style="stroke: #000000; stroke-width: 0.8"/>
      </g>
     </g>
     <g id="text_10">
      <!-- 2022-04 -->
      <g transform="translate(1153.772286 382.993937)scale(0.1 -0.1)">
       <use xlink:href="#DejaVuSans-32"/>
       <use xlink:href="#DejaVuSans-30" x="63.623047"/>
       <use xlink:href="#DejaVuSans-32" x="127.246094"/>
       <use xlink:href="#DejaVuSans-32" x="190.869141"/>
       <use xlink:href="#DejaVuSans-2d" x="254.492188"/>
       <use xlink:href="#DejaVuSans-30" x="290.576172"/>
       <use xlink:href="#DejaVuSans-34" x="354.199219"/>
      </g>
     </g>
    </g>
    <g id="xtick_11">
     <g id="line2d_11">
      <g>
       <use xlink:href="#m7a56b97851" x="1296.275508" y="368.3955" style="stroke: #000000; stroke-width: 0.8"/>
      </g>
     </g>
     <g id="text_11">
      <!-- 2022-07 -->
      <g transform="translate(1275.384101 382.993937)scale(0.1 -0.1)">
       <use xlink:href="#DejaVuSans-32"/>
       <use xlink:href="#DejaVuSans-30" x="63.623047"/>
       <use xlink:href="#DejaVuSans-32" x="127.246094"/>
       <use xlink:href="#DejaVuSans-32" x="190.869141"/>
       <use xlink:href="#DejaVuSans-2d" x="254.492188"/>
       <use xlink:href="#DejaVuSans-30" x="290.576172"/>
       <use xlink:href="#DejaVuSans-37" x="354.199219"/>
      </g>
     </g>
    </g>
   </g>
   <g id="matplotlib.axis_2">
    <g id="ytick_1">
     <g id="line2d_12">
      <defs>
       <path id="mef388f4877" d="M 0 0 
L -3.5 0 
" style="stroke: #000000; stroke-width: 0.8"/>
      </defs>
      <g>
       <use xlink:href="#mef388f4877" x="46.0125" y="347.876087" style="stroke: #000000; stroke-width: 0.8"/>
      </g>
     </g>
     <g id="text_12">
      <!-- 0 -->
      <g transform="translate(32.65 351.675306)scale(0.1 -0.1)">
       <use xlink:href="#DejaVuSans-30"/>
      </g>
     </g>
    </g>
    <g id="ytick_2">
     <g id="line2d_13">
      <g>
       <use xlink:href="#mef388f4877" x="46.0125" y="293.546049" style="stroke: #000000; stroke-width: 0.8"/>
      </g>
     </g>
     <g id="text_13">
      <!-- 10000 -->
      <g transform="translate(7.2 297.345268)scale(0.1 -0.1)">
       <use xlink:href="#DejaVuSans-31"/>
       <use xlink:href="#DejaVuSans-30" x="63.623047"/>
       <use xlink:href="#DejaVuSans-30" x="127.246094"/>
       <use xlink:href="#DejaVuSans-30" x="190.869141"/>
       <use xlink:href="#DejaVuSans-30" x="254.492188"/>
      </g>
     </g>
    </g>
    <g id="ytick_3">
     <g id="line2d_14">
      <g>
       <use xlink:href="#mef388f4877" x="46.0125" y="239.216011" style="stroke: #000000; stroke-width: 0.8"/>
      </g>
     </g>
     <g id="text_14">
      <!-- 20000 -->
      <g transform="translate(7.2 243.015229)scale(0.1 -0.1)">
       <use xlink:href="#DejaVuSans-32"/>
       <use xlink:href="#DejaVuSans-30" x="63.623047"/>
       <use xlink:href="#DejaVuSans-30" x="127.246094"/>
       <use xlink:href="#DejaVuSans-30" x="190.869141"/>
       <use xlink:href="#DejaVuSans-30" x="254.492188"/>
      </g>
     </g>
    </g>
    <g id="ytick_4">
     <g id="line2d_15">
      <g>
       <use xlink:href="#mef388f4877" x="46.0125" y="184.885972" style="stroke: #000000; stroke-width: 0.8"/>
      </g>
     </g>
     <g id="text_15">
      <!-- 30000 -->
      <g transform="translate(7.2 188.685191)scale(0.1 -0.1)">
       <defs>
        <path id="DejaVuSans-33" d="M 2597 2516 
Q 3050 2419 3304 2112 
Q 3559 1806 3559 1356 
Q 3559 666 3084 287 
Q 2609 -91 1734 -91 
Q 1441 -91 1130 -33 
Q 819 25 488 141 
L 488 750 
Q 750 597 1062 519 
Q 1375 441 1716 441 
Q 2309 441 2620 675 
Q 2931 909 2931 1356 
Q 2931 1769 2642 2001 
Q 2353 2234 1838 2234 
L 1294 2234 
L 1294 2753 
L 1863 2753 
Q 2328 2753 2575 2939 
Q 2822 3125 2822 3475 
Q 2822 3834 2567 4026 
Q 2313 4219 1838 4219 
Q 1578 4219 1281 4162 
Q 984 4106 628 3988 
L 628 4550 
Q 988 4650 1302 4700 
Q 1616 4750 1894 4750 
Q 2613 4750 3031 4423 
Q 3450 4097 3450 3541 
Q 3450 3153 3228 2886 
Q 3006 2619 2597 2516 
z
" transform="scale(0.015625)"/>
       </defs>
       <use xlink:href="#DejaVuSans-33"/>
       <use xlink:href="#DejaVuSans-30" x="63.623047"/>
       <use xlink:href="#DejaVuSans-30" x="127.246094"/>
       <use xlink:href="#DejaVuSans-30" x="190.869141"/>
       <use xlink:href="#DejaVuSans-30" x="254.492188"/>
      </g>
     </g>
    </g>
    <g id="ytick_5">
     <g id="line2d_16">
      <g>
       <use xlink:href="#mef388f4877" x="46.0125" y="130.555934" style="stroke: #000000; stroke-width: 0.8"/>
      </g>
     </g>
     <g id="text_16">
      <!-- 40000 -->
      <g transform="translate(7.2 134.355153)scale(0.1 -0.1)">
       <use xlink:href="#DejaVuSans-34"/>
       <use xlink:href="#DejaVuSans-30" x="63.623047"/>
       <use xlink:href="#DejaVuSans-30" x="127.246094"/>
       <use xlink:href="#DejaVuSans-30" x="190.869141"/>
       <use xlink:href="#DejaVuSans-30" x="254.492188"/>
      </g>
     </g>
    </g>
    <g id="ytick_6">
     <g id="line2d_17">
      <g>
       <use xlink:href="#mef388f4877" x="46.0125" y="76.225896" style="stroke: #000000; stroke-width: 0.8"/>
      </g>
     </g>
     <g id="text_17">
      <!-- 50000 -->
      <g transform="translate(7.2 80.025115)scale(0.1 -0.1)">
       <defs>
        <path id="DejaVuSans-35" d="M 691 4666 
L 3169 4666 
L 3169 4134 
L 1269 4134 
L 1269 2991 
Q 1406 3038 1543 3061 
Q 1681 3084 1819 3084 
Q 2600 3084 3056 2656 
Q 3513 2228 3513 1497 
Q 3513 744 3044 326 
Q 2575 -91 1722 -91 
Q 1428 -91 1123 -41 
Q 819 9 494 109 
L 494 744 
Q 775 591 1075 516 
Q 1375 441 1709 441 
Q 2250 441 2565 725 
Q 2881 1009 2881 1497 
Q 2881 1984 2565 2268 
Q 2250 2553 1709 2553 
Q 1456 2553 1204 2497 
Q 953 2441 691 2322 
L 691 4666 
z
" transform="scale(0.015625)"/>
       </defs>
       <use xlink:href="#DejaVuSans-35"/>
       <use xlink:href="#DejaVuSans-30" x="63.623047"/>
       <use xlink:href="#DejaVuSans-30" x="127.246094"/>
       <use xlink:href="#DejaVuSans-30" x="190.869141"/>
       <use xlink:href="#DejaVuSans-30" x="254.492188"/>
      </g>
     </g>
    </g>
   </g>
   <g id="line2d_18">
    <path d="M 106.885227 347.876087 
L 181.723267 347.778293 
L 185.732448 347.615303 
L 187.068842 347.425148 
L 188.405235 347.381684 
L 189.741629 347.468612 
L 192.414416 347.023105 
L 193.75081 347.289323 
L 195.087203 347.082868 
L 196.423597 346.583032 
L 197.75999 347.158931 
L 199.096384 347.202395 
L 200.432777 346.881847 
L 201.769171 346.936177 
L 203.105565 346.517836 
L 204.441958 346.517836 
L 207.114745 347.251292 
L 208.451139 347.055703 
L 209.787532 346.28965 
L 211.123926 347.365385 
L 212.46032 346.349413 
L 213.796713 347.066569 
L 215.133107 346.990507 
L 216.4695 347.311055 
L 217.805894 347.033971 
L 219.142287 346.392877 
L 220.478681 346.387444 
L 221.815075 346.718857 
L 223.151468 346.740589 
L 224.487862 347.142632 
L 225.824255 346.854682 
L 227.160649 346.697125 
L 228.497042 346.251619 
L 231.16983 346.566733 
L 232.506223 346.528702 
L 233.842617 346.838383 
L 236.515404 346.496104 
L 237.851797 345.452967 
L 239.188191 346.170124 
L 240.524585 345.730051 
L 241.860978 346.376578 
L 243.197372 346.333114 
L 244.533765 345.806113 
L 245.870159 345.692019 
L 247.206552 346.583032 
L 248.542946 344.719512 
L 249.87934 345.518163 
L 251.215733 347.012239 
L 255.224914 345.268245 
L 256.561308 345.387771 
L 257.897701 345.18675 
L 259.234095 345.175884 
L 260.570488 346.360279 
L 261.906882 346.447207 
L 263.243275 345.876742 
L 264.579669 346.083196 
L 265.916063 345.474699 
L 267.252456 346.376578 
L 268.58885 345.545328 
L 271.261637 346.800352 
L 272.59803 346.305949 
L 273.934424 345.409503 
L 275.270818 344.839038 
L 276.607211 344.64345 
L 277.943605 343.605746 
L 279.279998 344.19251 
L 280.616392 346.827517 
L 281.952785 341.709628 
L 283.289179 341.943247 
L 284.625573 344.996595 
L 285.961966 339.438632 
L 287.29836 342.377887 
L 288.634753 339.520127 
L 289.971147 344.132747 
L 291.30754 344.518491 
L 292.643934 339.422333 
L 293.980328 340.188387 
L 295.316721 338.248804 
L 296.653115 339.069188 
L 297.989508 342.193165 
L 299.325902 341.693329 
L 300.662295 335.157425 
L 301.998689 338.357464 
L 303.335083 334.250113 
L 304.671476 329.050729 
L 306.00787 330.398114 
L 307.344263 334.489166 
L 308.680657 336.966615 
L 310.01705 327.344766 
L 311.353444 338.031484 
L 312.689838 331.082672 
L 314.026231 329.5234 
L 315.362625 329.050729 
L 316.699018 327.252405 
L 318.035412 344.48046 
L 319.371805 322.43333 
L 320.708199 321.379327 
L 322.044593 329.729854 
L 323.380986 323.824179 
L 324.71738 333.234142 
L 326.053773 328.664986 
L 327.390167 329.664658 
L 328.72656 328.105386 
L 330.062954 328.751914 
L 331.399348 325.834391 
L 332.735741 324.943378 
L 334.072135 331.370621 
L 335.408528 334.092556 
L 336.744922 340.503501 
L 338.081315 324.660862 
L 339.417709 330.180794 
L 340.754103 330.169928 
L 342.090496 326.633042 
L 343.42689 332.978791 
L 344.763283 335.059631 
L 346.099677 339.406034 
L 347.436071 328.860574 
L 348.772464 337.412122 
L 350.108858 335.190023 
L 351.445251 329.637493 
L 352.781645 327.556653 
L 354.118038 337.15677 
L 355.454432 338.026051 
L 356.790826 336.428748 
L 358.127219 335.168291 
L 359.463613 334.157752 
L 360.800006 330.425279 
L 362.1364 331.62054 
L 363.472793 339.916736 
L 364.809187 342.280093 
L 366.145581 342.399619 
L 367.481974 338.650847 
L 368.818368 339.981932 
L 370.154761 340.286181 
L 371.491155 342.149701 
L 374.163942 344.616285 
L 375.500336 341.28042 
L 376.836729 344.040386 
L 378.173123 340.536099 
L 379.509516 342.839692 
L 380.84591 342.807094 
L 382.182303 343.078745 
L 383.518697 345.333441 
L 384.855091 342.904889 
L 386.191484 344.415264 
L 387.527878 343.948025 
L 388.864271 344.513058 
L 390.200665 342.464815 
L 391.537058 346.746022 
L 392.873452 346.186423 
L 394.209846 343.209137 
L 395.546239 346.865548 
L 396.882633 344.181644 
L 398.219026 345.056358 
L 399.55542 344.458728 
L 400.891813 345.844144 
L 402.228207 346.930744 
L 403.564601 345.121554 
L 404.900994 345.056358 
L 406.237388 341.943247 
L 407.573781 343.92086 
L 408.910175 343.334096 
L 410.246568 346.517836 
L 411.582962 346.805785 
L 412.919356 347.436014 
L 414.255749 345.181317 
L 415.592143 345.371472 
L 416.928536 345.045492 
L 418.26493 344.58912 
L 419.601323 345.789814 
L 420.937717 346.718857 
L 422.274111 345.246513 
L 423.610504 344.08385 
L 424.946898 338.352031 
L 426.283291 340.910976 
L 427.619685 344.567388 
L 428.956078 345.322575 
L 430.292472 346.626496 
L 431.628866 344.64345 
L 432.965259 345.496431 
L 434.301653 344.790141 
L 438.310833 345.643122 
L 439.647227 346.392877 
L 440.983621 344.214242 
L 442.320014 346.121227 
L 443.656408 344.045819 
L 444.992801 344.882502 
L 446.329195 344.420697 
L 447.665589 345.947371 
L 449.001982 346.159258 
L 450.338376 343.181972 
L 451.674769 344.594553 
L 453.011163 343.187405 
L 454.347556 344.165345 
L 455.68395 343.018982 
L 457.020344 344.632584 
L 458.356737 345.29541 
L 462.365918 341.829154 
L 463.702311 343.86653 
L 465.038705 342.589774 
L 466.375099 344.127314 
L 467.711492 343.8122 
L 469.047886 342.225763 
L 470.384279 342.578908 
L 471.720673 342.475681 
L 473.057066 342.573475 
L 474.39346 343.040714 
L 475.729854 340.318779 
L 477.066247 343.524251 
L 478.402641 341.584669 
L 479.739034 342.209464 
L 482.411821 339.373436 
L 483.748215 337.547947 
L 485.084609 339.57989 
L 486.421002 344.257706 
L 487.757396 338.754074 
L 489.093789 343.448189 
L 490.430183 336.276624 
L 491.766576 337.031811 
L 493.10297 333.641617 
L 494.439364 337.66204 
L 495.775757 345.51273 
L 497.112151 329.219152 
L 498.448544 336.847089 
L 499.784938 340.275315 
L 501.121331 331.495581 
L 502.457725 328.990966 
L 503.794119 334.929239 
L 505.130512 339.856973 
L 506.466906 331.664004 
L 507.803299 330.457877 
L 509.139693 325.475812 
L 510.476086 323.585127 
L 511.81248 328.110819 
L 513.148874 324.345747 
L 514.485267 333.42973 
L 515.821661 323.188518 
L 517.158054 326.241866 
L 518.494448 329.001832 
L 519.830841 324.438109 
L 521.167235 325.405183 
L 522.503629 330.376382 
L 523.840022 343.410158 
L 525.176416 291.796622 
L 526.512809 327.013352 
L 527.849203 318.30968 
L 529.185596 317.016625 
L 530.52199 310.937094 
L 531.858384 318.668258 
L 533.194777 339.36257 
L 534.531171 280.974078 
L 535.867564 323.731818 
L 537.203958 321.102244 
L 538.540352 309.937421 
L 539.876745 303.993715 
L 541.213139 316.076716 
L 542.549532 283.734044 
L 543.885926 325.416049 
L 545.222319 321.596648 
L 546.558713 316.272304 
L 547.895107 306.395103 
L 549.2315 317.668586 
L 550.567894 318.722589 
L 551.904287 305.781173 
L 553.240681 315.984355 
L 554.577074 314.96295 
L 555.913468 309.595142 
L 557.249862 311.931334 
L 558.586255 314.702166 
L 559.922649 340.834914 
L 561.259042 293.07881 
L 562.595436 332.669109 
L 566.604617 293.220069 
L 567.94101 299.614714 
L 569.277404 254.243699 
L 570.613797 319.852653 
L 571.950191 315.647508 
L 573.286584 308.725861 
L 574.622978 294.01872 
L 575.959372 284.538128 
L 577.295765 287.602343 
L 578.632159 287.021011 
L 579.968552 299.006218 
L 581.304946 301.375007 
L 582.641339 317.293709 
L 583.977733 308.155396 
L 585.314127 298.185834 
L 586.65052 300.527459 
L 587.986914 309.948287 
L 589.323307 318.537866 
L 590.659701 313.012501 
L 591.996094 321.553184 
L 593.332488 296.816717 
L 594.668882 303.874189 
L 596.005275 308.128231 
L 597.341669 308.666098 
L 598.678062 318.967074 
L 600.014456 322.080185 
L 601.350849 315.72357 
L 602.687243 322.498526 
L 604.023637 320.558944 
L 605.36003 320.06454 
L 606.696424 320.575243 
L 608.032817 327.55122 
L 609.369211 331.913922 
L 610.705604 335.40191 
L 612.041998 323.878509 
L 613.378392 327.089414 
L 614.714785 329.018131 
L 616.051179 339.487529 
L 617.387572 335.651828 
L 618.723966 324.074097 
L 620.060359 337.135038 
L 621.396753 337.765267 
L 622.733147 334.69562 
L 624.06954 338.145577 
L 625.405934 337.298029 
L 626.742327 340.606728 
L 628.078721 341.725927 
L 629.415115 340.731687 
L 630.751508 341.666164 
L 632.087902 337.455586 
L 633.424295 336.754728 
L 634.760689 338.074948 
L 637.433476 341.443411 
L 638.76987 340.758852 
L 640.106263 342.774496 
L 641.442657 339.069188 
L 642.77905 341.470576 
L 644.115444 342.035608 
L 645.451837 342.231196 
L 646.788231 343.263467 
L 648.124625 340.90011 
L 649.461018 341.606401 
L 650.797412 335.51057 
L 652.133805 338.449825 
L 653.470199 340.623027 
L 654.806592 343.622045 
L 656.142986 344.817306 
L 657.47938 343.366694 
L 658.815773 336.874254 
L 661.48856 346.45264 
L 662.824954 344.350068 
L 664.161347 344.409831 
L 665.497741 345.175884 
L 666.834135 345.4584 
L 668.170528 346.333114 
L 669.506922 345.577926 
L 670.843315 343.882829 
L 672.179709 345.224781 
L 673.516102 345.246513 
L 674.852496 345.121554 
L 676.18889 344.58912 
L 677.525283 347.126333 
L 678.861677 344.773842 
L 680.19807 343.660076 
L 681.534464 344.866203 
L 682.870857 344.594553 
L 684.207251 344.692347 
L 685.543645 343.893695 
L 686.880038 345.806113 
L 688.216432 342.769063 
L 690.889219 345.355173 
L 692.225612 344.572821 
L 693.562006 344.779275 
L 694.8984 343.801334 
L 696.234793 344.235974 
L 697.571187 340.802316 
L 698.90758 343.426457 
L 700.243974 344.942265 
L 701.580367 344.208809 
L 702.916761 344.561955 
L 704.253155 345.599658 
L 705.589548 345.376905 
L 706.925942 343.285199 
L 708.262335 345.268245 
L 709.598729 344.013221 
L 710.935122 344.116448 
L 712.271516 344.062118 
L 713.60791 344.350068 
L 714.944303 344.360934 
L 716.280697 343.008116 
L 717.61709 343.915427 
L 718.953484 344.284872 
L 720.289878 343.801334 
L 722.962665 344.599986 
L 724.299058 343.089611 
L 725.635452 343.290632 
L 726.971845 342.041041 
L 728.308239 345.941938 
L 729.644633 344.333769 
L 732.31742 343.844798 
L 733.653813 344.610852 
L 734.990207 343.421024 
L 736.3266 342.774496 
L 737.662994 345.442101 
L 738.999388 344.388099 
L 740.335781 344.165345 
L 741.672175 345.328008 
L 743.008568 344.920533 
L 744.344962 343.236302 
L 745.681355 345.300843 
L 747.017749 345.257379 
L 748.354143 345.333441 
L 749.690536 344.513058 
L 751.02693 344.942265 
L 752.363323 344.670615 
L 753.699717 344.773842 
L 755.03611 344.3718 
L 756.372504 346.132093 
L 757.708898 345.431235 
L 759.045291 345.159585 
L 760.381685 344.312037 
L 761.718078 343.725272 
L 763.054472 343.491653 
L 764.390865 344.849904 
L 765.727259 347.876087 
L 767.063653 342.530011 
L 768.400046 347.854355 
L 769.73644 342.904889 
L 771.072833 346.12666 
L 772.409227 345.996268 
L 773.74562 346.371145 
L 775.082014 345.121554 
L 776.418408 345.844144 
L 777.754801 345.626823 
L 779.091195 345.523596 
L 780.427588 345.865876 
L 781.763982 345.583359 
L 783.100375 344.779275 
L 784.436769 345.985402 
L 787.109556 345.577926 
L 788.44595 345.507297 
L 789.782343 346.07233 
L 791.118737 345.898474 
L 792.45513 344.393532 
L 793.791524 345.784381 
L 795.127918 345.789814 
L 796.464311 345.583359 
L 797.800705 345.213915 
L 799.137098 344.475027 
L 800.473492 344.686914 
L 801.809885 345.29541 
L 804.482673 345.632256 
L 805.819066 344.909667 
L 807.15546 343.698107 
L 808.491853 345.311709 
L 809.828247 345.018327 
L 811.164641 344.3718 
L 812.501034 345.474699 
L 813.837428 347.604437 
L 815.173821 342.986384 
L 816.510215 345.849577 
L 817.846608 344.48046 
L 819.183002 342.872291 
L 820.519396 343.491653 
L 821.855789 343.513385 
L 823.192183 347.213261 
L 824.528576 346.001701 
L 825.86497 337.308895 
L 827.201363 342.367021 
L 828.537757 341.079399 
L 829.874151 347.876087 
L 831.210544 336.292923 
L 832.546938 342.258361 
L 833.883331 341.606401 
L 835.219725 342.209464 
L 836.556118 341.497741 
L 837.892512 339.840674 
L 839.228906 339.574457 
L 840.565299 339.683117 
L 841.901693 340.047129 
L 843.238086 339.862406 
L 844.57448 340.481769 
L 845.910873 338.319433 
L 847.247267 337.200235 
L 848.583661 336.651501 
L 849.920054 335.34758 
L 851.256448 337.846762 
L 852.592841 337.151337 
L 853.929235 335.45624 
L 855.265628 335.439941 
L 856.602022 332.522418 
L 857.938416 333.462328 
L 859.274809 333.53839 
L 860.611203 335.972376 
L 861.947596 333.848071 
L 863.28399 337.173069 
L 864.620383 331.740066 
L 865.956777 330.35465 
L 867.293171 329.30608 
L 868.629564 331.294559 
L 869.965958 334.836878 
L 871.302351 333.418864 
L 872.638745 334.826012 
L 873.975138 328.610655 
L 875.311532 330.984878 
L 876.647926 330.51764 
L 877.984319 329.909143 
L 879.320713 333.576421 
L 880.657106 333.777442 
L 881.9935 347.876087 
L 883.329893 310.632846 
L 884.666287 327.735942 
L 886.002681 326.725403 
L 887.339074 336.521109 
L 888.675468 330.235124 
L 890.011861 343.410158 
L 891.348255 322.123649 
L 892.684648 329.023564 
L 894.021042 327.219806 
L 896.693829 331.191332 
L 898.030223 334.956404 
L 899.366616 337.107873 
L 902.039404 334.402238 
L 903.375797 331.642272 
L 904.712191 329.648359 
L 906.048584 332.853831 
L 907.384978 335.499704 
L 908.721371 333.70138 
L 910.057765 334.663022 
L 911.394159 332.364861 
L 912.730552 332.500686 
L 914.066946 332.978791 
L 915.403339 334.527197 
L 916.739733 336.901419 
L 918.076126 337.368658 
L 919.41252 336.434181 
L 920.748914 331.506447 
L 922.085307 331.587942 
L 923.421701 332.033448 
L 924.758094 333.86437 
L 926.094488 337.232833 
L 927.430881 341.774824 
L 928.767275 329.46907 
L 930.103669 332.967925 
L 931.440062 328.089087 
L 934.112849 335.624663 
L 935.449243 336.39615 
L 936.785636 335.630096 
L 938.12203 336.787326 
L 939.458424 334.13602 
L 940.794817 333.196111 
L 942.131211 335.065064 
L 943.467604 336.021273 
L 944.803998 338.314 
L 947.476785 335.276951 
L 948.813179 334.91294 
L 950.149572 334.842311 
L 951.485966 334.391372 
L 952.822359 347.876087 
L 954.158753 347.876087 
L 955.495146 317.125285 
L 956.83154 337.058976 
L 958.167934 334.320742 
L 959.504327 331.175033 
L 960.840721 330.794723 
L 962.177114 339.813509 
L 963.513508 347.017672 
L 964.849901 345.431235 
L 966.186295 313.653596 
L 967.522689 332.690841 
L 968.859082 327.82287 
L 970.195476 332.430057 
L 971.531869 332.446356 
L 972.868263 336.521109 
L 974.204656 341.818288 
L 975.54105 329.322379 
L 976.877444 328.578057 
L 978.213837 327.160043 
L 979.550231 328.360737 
L 980.886624 330.322052 
L 982.223018 333.440596 
L 983.559411 330.935981 
L 984.895805 332.696274 
L 986.232199 325.204162 
L 987.568592 321.265234 
L 990.241379 331.109837 
L 991.577773 332.804934 
L 992.914167 330.273155 
L 994.25056 329.083327 
L 995.586954 325.144399 
L 996.923347 320.330758 
L 998.259741 320.151469 
L 999.596134 328.159716 
L 1000.932528 330.224258 
L 1002.268922 331.267394 
L 1003.605315 325.796359 
L 1004.941709 329.680957 
L 1006.278102 329.827648 
L 1007.614496 328.018458 
L 1008.950889 335.521436 
L 1010.287283 337.221967 
L 1011.623677 331.734633 
L 1012.96007 330.691496 
L 1014.296464 326.078876 
L 1015.632857 319.428879 
L 1016.969251 315.044445 
L 1018.305644 327.122012 
L 1019.642038 331.457549 
L 1020.978432 331.495581 
L 1022.314825 328.827976 
L 1023.651219 327.974994 
L 1024.987612 326.55698 
L 1026.324006 327.371931 
L 1027.660399 330.322052 
L 1028.996793 334.885775 
L 1030.333187 336.097335 
L 1031.66958 330.224258 
L 1033.005974 332.060613 
L 1034.342367 327.850035 
L 1035.678761 329.039863 
L 1037.015154 332.962492 
L 1038.351548 336.053871 
L 1039.687942 334.864043 
L 1042.360729 330.370949 
L 1043.697122 327.187208 
L 1045.033516 328.887739 
L 1046.369909 346.007134 
L 1047.706303 306.362505 
L 1049.042697 347.876087 
L 1050.37909 337.140471 
L 1051.715484 329.344111 
L 1053.051877 275.030372 
L 1054.388271 303.216796 
L 1055.724664 344.067551 
L 1057.061058 270.770897 
L 1058.397452 308.693263 
L 1059.733845 305.77574 
L 1061.070239 289.857039 
L 1062.406632 266.989526 
L 1063.743026 258.209792 
L 1065.079419 261.762976 
L 1066.415813 272.156313 
L 1067.752207 270.944753 
L 1069.0886 245.827976 
L 1070.424994 246.968907 
L 1071.761387 237.819729 
L 1073.097781 347.876087 
L 1074.434174 326.149505 
L 1075.770568 50.8755 
L 1077.106962 218.375008 
L 1078.443355 236.515808 
L 1079.779749 251.581527 
L 1081.116142 249.897296 
L 1082.452536 197.485108 
L 1083.788929 223.340773 
L 1085.125323 267.739281 
L 1086.461717 271.966158 
L 1087.79811 248.83786 
L 1089.134504 270.222163 
L 1090.470897 263.066897 
L 1091.807291 263.63193 
L 1093.143685 274.677227 
L 1094.480078 281.272893 
L 1095.816472 306.764547 
L 1097.152865 302.619165 
L 1098.489259 305.531255 
L 1099.825652 298.560711 
L 1101.162046 303.091837 
L 1103.834833 323.883942 
L 1105.171227 327.285003 
L 1106.50762 318.527 
L 1107.844014 347.876087 
L 1109.180407 292.676768 
L 1110.516801 324.601099 
L 1111.853195 323.987169 
L 1113.189588 333.288472 
L 1114.525982 347.876087 
L 1115.862375 326.595011 
L 1117.198769 332.766903 
L 1118.535162 331.283693 
L 1119.871556 347.876087 
L 1121.20795 321.895463 
L 1122.544343 347.865221 
L 1123.880737 333.000523 
L 1125.21713 341.160894 
L 1126.553524 338.091247 
L 1127.889917 338.243371 
L 1129.226311 338.976827 
L 1130.562705 347.876087 
L 1134.571885 347.876087 
L 1135.908279 326.801465 
L 1137.244672 347.876087 
L 1143.92664 347.876087 
L 1145.263034 312.295345 
L 1146.599427 347.876087 
L 1153.281395 347.876087 
L 1154.617789 319.879818 
L 1155.954182 347.876087 
L 1162.63615 347.876087 
L 1163.972544 323.068992 
L 1165.308937 347.876087 
L 1171.990905 347.876087 
L 1173.327299 292.769129 
L 1174.663692 347.876087 
L 1181.34566 347.876087 
L 1182.682054 310.714341 
L 1184.018448 347.876087 
L 1189.364022 347.876087 
L 1190.700415 332.788635 
L 1192.036809 347.876087 
L 1198.718777 347.876087 
L 1200.05517 334.961837 
L 1201.391564 347.876087 
L 1208.073532 347.876087 
L 1209.409925 335.108528 
L 1210.746319 347.876087 
L 1217.428287 347.876087 
L 1218.76468 326.627609 
L 1220.101074 347.876087 
L 1226.783042 347.876087 
L 1228.119435 318.048896 
L 1229.455829 347.876087 
L 1236.137797 347.876087 
L 1237.47419 308.736727 
L 1238.810584 347.876087 
L 1245.492552 347.876087 
L 1246.828945 285.407409 
L 1248.165339 347.876087 
L 1254.847307 347.876087 
L 1256.1837 277.018851 
L 1257.520094 347.876087 
L 1264.202062 347.876087 
L 1265.538455 268.13589 
L 1266.874849 347.876087 
L 1273.556817 347.876087 
L 1274.893211 259.133403 
L 1276.229604 347.876087 
L 1282.911572 347.876087 
L 1284.247966 264.354519 
L 1285.584359 347.876087 
L 1292.266327 347.876087 
L 1293.602721 258.155462 
L 1294.939114 347.876087 
L 1301.621082 347.876087 
L 1302.957476 238.140276 
L 1304.293869 347.876087 
L 1306.966656 347.876087 
L 1306.966656 347.876087 
" clip-path="url(#p312414f1df)" style="fill: none; stroke: #0000ff; stroke-width: 1.5; stroke-linecap: square"/>
   </g>
   <g id="line2d_19">
    <path d="M 1067.752207 277.238657 
L 1069.0886 264.383063 
L 1070.424994 244.364414 
L 1071.761387 245.463569 
L 1073.097781 279.004794 
L 1074.434174 276.551639 
L 1075.770568 236.085322 
L 1077.106962 223.206709 
L 1078.443355 222.858166 
L 1079.779749 216.761602 
L 1081.116142 255.120328 
L 1082.452536 243.006879 
L 1083.788929 157.108002 
L 1085.125323 232.970318 
L 1086.461717 240.971244 
L 1087.79811 244.654148 
L 1089.134504 242.071137 
L 1091.807291 262.204789 
L 1093.143685 225.675868 
L 1094.480078 271.313759 
L 1095.816472 272.642286 
L 1097.152865 286.271722 
L 1098.489259 283.4657 
L 1099.825652 290.429764 
L 1101.162046 300.864011 
L 1102.49844 280.704796 
L 1103.834833 318.001295 
L 1105.171227 314.818227 
L 1106.50762 320.756089 
L 1107.844014 320.514184 
L 1109.180407 317.711853 
L 1110.516801 326.720614 
L 1111.853195 314.549015 
L 1113.189588 336.988928 
L 1114.525982 333.795065 
L 1115.862375 343.197123 
L 1117.198769 322.18141 
L 1118.535162 334.891733 
L 1119.871556 342.328608 
L 1121.20795 332.960358 
L 1122.544343 351.636972 
L 1123.880737 338.244862 
L 1125.21713 347.460637 
L 1126.553524 333.238969 
L 1127.889917 345.476612 
L 1129.226311 339.937037 
L 1131.899098 351.803352 
L 1133.235492 347.314601 
L 1134.571885 351.997611 
L 1135.908279 338.772204 
L 1137.244672 347.989031 
L 1138.581066 347.77206 
L 1139.91746 350.252908 
L 1141.253853 353.2755 
L 1143.92664 346.616165 
L 1145.263034 339.769138 
L 1146.599427 346.092376 
L 1147.935821 346.372714 
L 1149.272215 348.253103 
L 1150.608608 350.401038 
L 1151.945002 348.412561 
L 1153.281395 337.09154 
L 1154.617789 343.240314 
L 1155.954182 347.107987 
L 1157.290576 347.204992 
L 1158.62697 348.324199 
L 1159.963363 349.625118 
L 1161.299757 348.339992 
L 1162.63615 333.750151 
L 1163.972544 345.092275 
L 1165.308937 347.491895 
L 1166.645331 347.530781 
L 1169.318118 349.019762 
L 1170.654512 348.202738 
L 1171.990905 332.43058 
L 1173.327299 338.754031 
L 1174.663692 341.916739 
L 1178.672873 345.928206 
L 1180.009267 346.014051 
L 1181.34566 321.904236 
L 1182.682054 343.625599 
L 1184.018448 345.279528 
L 1185.354841 345.844032 
L 1188.027628 347.186857 
L 1189.364022 347.120904 
L 1190.700415 318.60924 
L 1192.036809 350.291003 
L 1193.373203 350.187595 
L 1194.709596 349.656704 
L 1196.04599 349.407193 
L 1197.382383 349.280984 
L 1198.718777 344.809669 
L 1200.05517 330.737108 
L 1201.391564 350.348816 
L 1202.727958 350.069021 
L 1204.064351 349.569127 
L 1206.737138 349.103889 
L 1208.073532 342.780702 
L 1209.409925 337.050285 
L 1210.746319 349.376839 
L 1212.082713 349.212771 
L 1213.419106 348.90793 
L 1216.091893 348.628228 
L 1217.428287 341.263415 
L 1218.76468 338.86009 
L 1220.101074 347.096906 
L 1221.437468 347.380513 
L 1225.446648 347.726011 
L 1226.783042 337.584733 
L 1228.119435 339.409493 
L 1229.455829 345.210678 
L 1230.792223 345.877506 
L 1233.46501 346.696397 
L 1234.801403 346.995162 
L 1236.137797 332.863672 
L 1237.47419 339.286592 
L 1238.810584 343.663832 
L 1240.146978 344.652702 
L 1241.483371 345.375529 
L 1242.819765 345.951819 
L 1244.156158 346.405232 
L 1245.492552 327.318797 
L 1246.828945 335.760717 
L 1248.165339 340.018629 
L 1249.501733 341.810278 
L 1250.838126 343.171938 
L 1252.17452 344.237694 
L 1253.510913 345.068198 
L 1254.847307 316.876644 
L 1256.1837 335.76649 
L 1257.520094 339.451058 
L 1258.856488 341.360183 
L 1260.192881 342.823201 
L 1261.529275 343.963856 
L 1262.865668 344.850905 
L 1264.202062 308.570183 
L 1265.538455 335.833424 
L 1266.874849 339.143846 
L 1268.211243 341.115691 
L 1269.547636 342.63379 
L 1270.88403 343.814835 
L 1272.220423 344.732241 
L 1273.556817 301.004222 
L 1274.893211 335.647845 
L 1276.229604 338.774507 
L 1277.565998 340.825365 
L 1278.902391 342.408776 
L 1280.238785 343.639009 
L 1281.575178 344.593951 
L 1282.911572 293.808071 
L 1284.247966 338.473333 
L 1285.584359 340.823868 
L 1286.920753 342.411966 
L 1288.257146 343.639093 
L 1289.59354 344.59215 
L 1290.929933 345.33179 
L 1292.266327 291.320164 
L 1293.602721 338.302209 
L 1294.939114 340.602334 
L 1296.275508 342.238635 
L 1297.611901 343.504734 
L 1298.948295 344.487435 
L 1300.284688 345.249824 
L 1301.621082 287.685053 
L 1302.957476 334.616369 
L 1304.293869 337.688558 
L 1305.630263 339.978316 
L 1306.966656 341.752108 
L 1306.966656 341.752108 
" clip-path="url(#p312414f1df)" style="fill: none; stroke: #ffa500; stroke-width: 1.5; stroke-linecap: square"/>
   </g>
   <g id="line2d_20">
    <path d="M 1306.966656 341.752108 
L 1308.30305 341.752671 
L 1309.639443 341.753487 
L 1310.975837 276.027492 
L 1312.312231 341.693485 
L 1313.648624 341.752534 
L 1314.985018 341.753567 
L 1316.321411 340.122965 
L 1317.657805 340.123469 
L 1318.994198 340.124198 
L 1320.330592 281.363214 
L 1321.666986 340.070554 
L 1323.003379 340.123346 
L 1324.339773 340.124269 
" clip-path="url(#p312414f1df)" style="fill: none; stroke: #ff0000; stroke-width: 1.5; stroke-linecap: square"/>
   </g>
   <g id="patch_3">
    <path d="M 46.0125 368.3955 
L 46.0125 35.7555 
" style="fill: none; stroke: #000000; stroke-width: 0.8; stroke-linejoin: miter; stroke-linecap: square"/>
   </g>
   <g id="patch_4">
    <path d="M 1385.2125 368.3955 
L 1385.2125 35.7555 
" style="fill: none; stroke: #000000; stroke-width: 0.8; stroke-linejoin: miter; stroke-linecap: square"/>
   </g>
   <g id="patch_5">
    <path d="M 46.0125 368.3955 
L 1385.2125 368.3955 
" style="fill: none; stroke: #000000; stroke-width: 0.8; stroke-linejoin: miter; stroke-linecap: square"/>
   </g>
   <g id="patch_6">
    <path d="M 46.0125 35.7555 
L 1385.2125 35.7555 
" style="fill: none; stroke: #000000; stroke-width: 0.8; stroke-linejoin: miter; stroke-linecap: square"/>
   </g>
   <g id="text_18">
    <!-- Daily Confirmed Cases Forecasting - Arizona -->
    <g transform="translate(582.574688 16.318125)scale(0.12 -0.12)">
     <defs>
      <path id="DejaVuSans-44" d="M 1259 4147 
L 1259 519 
L 2022 519 
Q 2988 519 3436 956 
Q 3884 1394 3884 2338 
Q 3884 3275 3436 3711 
Q 2988 4147 2022 4147 
L 1259 4147 
z
M 628 4666 
L 1925 4666 
Q 3281 4666 3915 4102 
Q 4550 3538 4550 2338 
Q 4550 1131 3912 565 
Q 3275 0 1925 0 
L 628 0 
L 628 4666 
z
" transform="scale(0.015625)"/>
      <path id="DejaVuSans-61" d="M 2194 1759 
Q 1497 1759 1228 1600 
Q 959 1441 959 1056 
Q 959 750 1161 570 
Q 1363 391 1709 391 
Q 2188 391 2477 730 
Q 2766 1069 2766 1631 
L 2766 1759 
L 2194 1759 
z
M 3341 1997 
L 3341 0 
L 2766 0 
L 2766 531 
Q 2569 213 2275 61 
Q 1981 -91 1556 -91 
Q 1019 -91 701 211 
Q 384 513 384 1019 
Q 384 1609 779 1909 
Q 1175 2209 1959 2209 
L 2766 2209 
L 2766 2266 
Q 2766 2663 2505 2880 
Q 2244 3097 1772 3097 
Q 1472 3097 1187 3025 
Q 903 2953 641 2809 
L 641 3341 
Q 956 3463 1253 3523 
Q 1550 3584 1831 3584 
Q 2591 3584 2966 3190 
Q 3341 2797 3341 1997 
z
" transform="scale(0.015625)"/>
      <path id="DejaVuSans-69" d="M 603 3500 
L 1178 3500 
L 1178 0 
L 603 0 
L 603 3500 
z
M 603 4863 
L 1178 4863 
L 1178 4134 
L 603 4134 
L 603 4863 
z
" transform="scale(0.015625)"/>
      <path id="DejaVuSans-6c" d="M 603 4863 
L 1178 4863 
L 1178 0 
L 603 0 
L 603 4863 
z
" transform="scale(0.015625)"/>
      <path id="DejaVuSans-79" d="M 2059 -325 
Q 1816 -950 1584 -1140 
Q 1353 -1331 966 -1331 
L 506 -1331 
L 506 -850 
L 844 -850 
Q 1081 -850 1212 -737 
Q 1344 -625 1503 -206 
L 1606 56 
L 191 3500 
L 800 3500 
L 1894 763 
L 2988 3500 
L 3597 3500 
L 2059 -325 
z
" transform="scale(0.015625)"/>
      <path id="DejaVuSans-20" transform="scale(0.015625)"/>
      <path id="DejaVuSans-43" d="M 4122 4306 
L 4122 3641 
Q 3803 3938 3442 4084 
Q 3081 4231 2675 4231 
Q 1875 4231 1450 3742 
Q 1025 3253 1025 2328 
Q 1025 1406 1450 917 
Q 1875 428 2675 428 
Q 3081 428 3442 575 
Q 3803 722 4122 1019 
L 4122 359 
Q 3791 134 3420 21 
Q 3050 -91 2638 -91 
Q 1578 -91 968 557 
Q 359 1206 359 2328 
Q 359 3453 968 4101 
Q 1578 4750 2638 4750 
Q 3056 4750 3426 4639 
Q 3797 4528 4122 4306 
z
" transform="scale(0.015625)"/>
      <path id="DejaVuSans-6f" d="M 1959 3097 
Q 1497 3097 1228 2736 
Q 959 2375 959 1747 
Q 959 1119 1226 758 
Q 1494 397 1959 397 
Q 2419 397 2687 759 
Q 2956 1122 2956 1747 
Q 2956 2369 2687 2733 
Q 2419 3097 1959 3097 
z
M 1959 3584 
Q 2709 3584 3137 3096 
Q 3566 2609 3566 1747 
Q 3566 888 3137 398 
Q 2709 -91 1959 -91 
Q 1206 -91 779 398 
Q 353 888 353 1747 
Q 353 2609 779 3096 
Q 1206 3584 1959 3584 
z
" transform="scale(0.015625)"/>
      <path id="DejaVuSans-6e" d="M 3513 2113 
L 3513 0 
L 2938 0 
L 2938 2094 
Q 2938 2591 2744 2837 
Q 2550 3084 2163 3084 
Q 1697 3084 1428 2787 
Q 1159 2491 1159 1978 
L 1159 0 
L 581 0 
L 581 3500 
L 1159 3500 
L 1159 2956 
Q 1366 3272 1645 3428 
Q 1925 3584 2291 3584 
Q 2894 3584 3203 3211 
Q 3513 2838 3513 2113 
z
" transform="scale(0.015625)"/>
      <path id="DejaVuSans-66" d="M 2375 4863 
L 2375 4384 
L 1825 4384 
Q 1516 4384 1395 4259 
Q 1275 4134 1275 3809 
L 1275 3500 
L 2222 3500 
L 2222 3053 
L 1275 3053 
L 1275 0 
L 697 0 
L 697 3053 
L 147 3053 
L 147 3500 
L 697 3500 
L 697 3744 
Q 697 4328 969 4595 
Q 1241 4863 1831 4863 
L 2375 4863 
z
" transform="scale(0.015625)"/>
      <path id="DejaVuSans-72" d="M 2631 2963 
Q 2534 3019 2420 3045 
Q 2306 3072 2169 3072 
Q 1681 3072 1420 2755 
Q 1159 2438 1159 1844 
L 1159 0 
L 581 0 
L 581 3500 
L 1159 3500 
L 1159 2956 
Q 1341 3275 1631 3429 
Q 1922 3584 2338 3584 
Q 2397 3584 2469 3576 
Q 2541 3569 2628 3553 
L 2631 2963 
z
" transform="scale(0.015625)"/>
      <path id="DejaVuSans-6d" d="M 3328 2828 
Q 3544 3216 3844 3400 
Q 4144 3584 4550 3584 
Q 5097 3584 5394 3201 
Q 5691 2819 5691 2113 
L 5691 0 
L 5113 0 
L 5113 2094 
Q 5113 2597 4934 2840 
Q 4756 3084 4391 3084 
Q 3944 3084 3684 2787 
Q 3425 2491 3425 1978 
L 3425 0 
L 2847 0 
L 2847 2094 
Q 2847 2600 2669 2842 
Q 2491 3084 2119 3084 
Q 1678 3084 1418 2786 
Q 1159 2488 1159 1978 
L 1159 0 
L 581 0 
L 581 3500 
L 1159 3500 
L 1159 2956 
Q 1356 3278 1631 3431 
Q 1906 3584 2284 3584 
Q 2666 3584 2933 3390 
Q 3200 3197 3328 2828 
z
" transform="scale(0.015625)"/>
      <path id="DejaVuSans-65" d="M 3597 1894 
L 3597 1613 
L 953 1613 
Q 991 1019 1311 708 
Q 1631 397 2203 397 
Q 2534 397 2845 478 
Q 3156 559 3463 722 
L 3463 178 
Q 3153 47 2828 -22 
Q 2503 -91 2169 -91 
Q 1331 -91 842 396 
Q 353 884 353 1716 
Q 353 2575 817 3079 
Q 1281 3584 2069 3584 
Q 2775 3584 3186 3129 
Q 3597 2675 3597 1894 
z
M 3022 2063 
Q 3016 2534 2758 2815 
Q 2500 3097 2075 3097 
Q 1594 3097 1305 2825 
Q 1016 2553 972 2059 
L 3022 2063 
z
" transform="scale(0.015625)"/>
      <path id="DejaVuSans-64" d="M 2906 2969 
L 2906 4863 
L 3481 4863 
L 3481 0 
L 2906 0 
L 2906 525 
Q 2725 213 2448 61 
Q 2172 -91 1784 -91 
Q 1150 -91 751 415 
Q 353 922 353 1747 
Q 353 2572 751 3078 
Q 1150 3584 1784 3584 
Q 2172 3584 2448 3432 
Q 2725 3281 2906 2969 
z
M 947 1747 
Q 947 1113 1208 752 
Q 1469 391 1925 391 
Q 2381 391 2643 752 
Q 2906 1113 2906 1747 
Q 2906 2381 2643 2742 
Q 2381 3103 1925 3103 
Q 1469 3103 1208 2742 
Q 947 2381 947 1747 
z
" transform="scale(0.015625)"/>
      <path id="DejaVuSans-73" d="M 2834 3397 
L 2834 2853 
Q 2591 2978 2328 3040 
Q 2066 3103 1784 3103 
Q 1356 3103 1142 2972 
Q 928 2841 928 2578 
Q 928 2378 1081 2264 
Q 1234 2150 1697 2047 
L 1894 2003 
Q 2506 1872 2764 1633 
Q 3022 1394 3022 966 
Q 3022 478 2636 193 
Q 2250 -91 1575 -91 
Q 1294 -91 989 -36 
Q 684 19 347 128 
L 347 722 
Q 666 556 975 473 
Q 1284 391 1588 391 
Q 1994 391 2212 530 
Q 2431 669 2431 922 
Q 2431 1156 2273 1281 
Q 2116 1406 1581 1522 
L 1381 1569 
Q 847 1681 609 1914 
Q 372 2147 372 2553 
Q 372 3047 722 3315 
Q 1072 3584 1716 3584 
Q 2034 3584 2315 3537 
Q 2597 3491 2834 3397 
z
" transform="scale(0.015625)"/>
      <path id="DejaVuSans-46" d="M 628 4666 
L 3309 4666 
L 3309 4134 
L 1259 4134 
L 1259 2759 
L 3109 2759 
L 3109 2228 
L 1259 2228 
L 1259 0 
L 628 0 
L 628 4666 
z
" transform="scale(0.015625)"/>
      <path id="DejaVuSans-63" d="M 3122 3366 
L 3122 2828 
Q 2878 2963 2633 3030 
Q 2388 3097 2138 3097 
Q 1578 3097 1268 2742 
Q 959 2388 959 1747 
Q 959 1106 1268 751 
Q 1578 397 2138 397 
Q 2388 397 2633 464 
Q 2878 531 3122 666 
L 3122 134 
Q 2881 22 2623 -34 
Q 2366 -91 2075 -91 
Q 1284 -91 818 406 
Q 353 903 353 1747 
Q 353 2603 823 3093 
Q 1294 3584 2113 3584 
Q 2378 3584 2631 3529 
Q 2884 3475 3122 3366 
z
" transform="scale(0.015625)"/>
      <path id="DejaVuSans-74" d="M 1172 4494 
L 1172 3500 
L 2356 3500 
L 2356 3053 
L 1172 3053 
L 1172 1153 
Q 1172 725 1289 603 
Q 1406 481 1766 481 
L 2356 481 
L 2356 0 
L 1766 0 
Q 1100 0 847 248 
Q 594 497 594 1153 
L 594 3053 
L 172 3053 
L 172 3500 
L 594 3500 
L 594 4494 
L 1172 4494 
z
" transform="scale(0.015625)"/>
      <path id="DejaVuSans-67" d="M 2906 1791 
Q 2906 2416 2648 2759 
Q 2391 3103 1925 3103 
Q 1463 3103 1205 2759 
Q 947 2416 947 1791 
Q 947 1169 1205 825 
Q 1463 481 1925 481 
Q 2391 481 2648 825 
Q 2906 1169 2906 1791 
z
M 3481 434 
Q 3481 -459 3084 -895 
Q 2688 -1331 1869 -1331 
Q 1566 -1331 1297 -1286 
Q 1028 -1241 775 -1147 
L 775 -588 
Q 1028 -725 1275 -790 
Q 1522 -856 1778 -856 
Q 2344 -856 2625 -561 
Q 2906 -266 2906 331 
L 2906 616 
Q 2728 306 2450 153 
Q 2172 0 1784 0 
Q 1141 0 747 490 
Q 353 981 353 1791 
Q 353 2603 747 3093 
Q 1141 3584 1784 3584 
Q 2172 3584 2450 3431 
Q 2728 3278 2906 2969 
L 2906 3500 
L 3481 3500 
L 3481 434 
z
" transform="scale(0.015625)"/>
      <path id="DejaVuSans-41" d="M 2188 4044 
L 1331 1722 
L 3047 1722 
L 2188 4044 
z
M 1831 4666 
L 2547 4666 
L 4325 0 
L 3669 0 
L 3244 1197 
L 1141 1197 
L 716 0 
L 50 0 
L 1831 4666 
z
" transform="scale(0.015625)"/>
      <path id="DejaVuSans-7a" d="M 353 3500 
L 3084 3500 
L 3084 2975 
L 922 459 
L 3084 459 
L 3084 0 
L 275 0 
L 275 525 
L 2438 3041 
L 353 3041 
L 353 3500 
z
" transform="scale(0.015625)"/>
     </defs>
     <use xlink:href="#DejaVuSans-44"/>
     <use xlink:href="#DejaVuSans-61" x="77.001953"/>
     <use xlink:href="#DejaVuSans-69" x="138.28125"/>
     <use xlink:href="#DejaVuSans-6c" x="166.064453"/>
     <use xlink:href="#DejaVuSans-79" x="193.847656"/>
     <use xlink:href="#DejaVuSans-20" x="253.027344"/>
     <use xlink:href="#DejaVuSans-43" x="284.814453"/>
     <use xlink:href="#DejaVuSans-6f" x="354.638672"/>
     <use xlink:href="#DejaVuSans-6e" x="415.820312"/>
     <use xlink:href="#DejaVuSans-66" x="479.199219"/>
     <use xlink:href="#DejaVuSans-69" x="514.404297"/>
     <use xlink:href="#DejaVuSans-72" x="542.1875"/>
     <use xlink:href="#DejaVuSans-6d" x="581.550781"/>
     <use xlink:href="#DejaVuSans-65" x="678.962891"/>
     <use xlink:href="#DejaVuSans-64" x="740.486328"/>
     <use xlink:href="#DejaVuSans-20" x="803.962891"/>
     <use xlink:href="#DejaVuSans-43" x="835.75"/>
     <use xlink:href="#DejaVuSans-61" x="905.574219"/>
     <use xlink:href="#DejaVuSans-73" x="966.853516"/>
     <use xlink:href="#DejaVuSans-65" x="1018.953125"/>
     <use xlink:href="#DejaVuSans-73" x="1080.476562"/>
     <use xlink:href="#DejaVuSans-20" x="1132.576172"/>
     <use xlink:href="#DejaVuSans-46" x="1164.363281"/>
     <use xlink:href="#DejaVuSans-6f" x="1218.257812"/>
     <use xlink:href="#DejaVuSans-72" x="1279.439453"/>
     <use xlink:href="#DejaVuSans-65" x="1318.302734"/>
     <use xlink:href="#DejaVuSans-63" x="1379.826172"/>
     <use xlink:href="#DejaVuSans-61" x="1434.806641"/>
     <use xlink:href="#DejaVuSans-73" x="1496.085938"/>
     <use xlink:href="#DejaVuSans-74" x="1548.185547"/>
     <use xlink:href="#DejaVuSans-69" x="1587.394531"/>
     <use xlink:href="#DejaVuSans-6e" x="1615.177734"/>
     <use xlink:href="#DejaVuSans-67" x="1678.556641"/>
     <use xlink:href="#DejaVuSans-20" x="1742.033203"/>
     <use xlink:href="#DejaVuSans-2d" x="1773.820312"/>
     <use xlink:href="#DejaVuSans-20" x="1809.904297"/>
     <use xlink:href="#DejaVuSans-41" x="1841.691406"/>
     <use xlink:href="#DejaVuSans-72" x="1910.099609"/>
     <use xlink:href="#DejaVuSans-69" x="1951.212891"/>
     <use xlink:href="#DejaVuSans-7a" x="1978.996094"/>
     <use xlink:href="#DejaVuSans-6f" x="2031.486328"/>
     <use xlink:href="#DejaVuSans-6e" x="2092.667969"/>
     <use xlink:href="#DejaVuSans-61" x="2156.046875"/>
    </g>
    <!-- ARIMA (0, 1, 1)x(1, 0, 1, 7) (R2 = 0.552584) -->
    <g transform="translate(583.628438 29.7555)scale(0.12 -0.12)">
     <defs>
      <path id="DejaVuSans-52" d="M 2841 2188 
Q 3044 2119 3236 1894 
Q 3428 1669 3622 1275 
L 4263 0 
L 3584 0 
L 2988 1197 
Q 2756 1666 2539 1819 
Q 2322 1972 1947 1972 
L 1259 1972 
L 1259 0 
L 628 0 
L 628 4666 
L 2053 4666 
Q 2853 4666 3247 4331 
Q 3641 3997 3641 3322 
Q 3641 2881 3436 2590 
Q 3231 2300 2841 2188 
z
M 1259 4147 
L 1259 2491 
L 2053 2491 
Q 2509 2491 2742 2702 
Q 2975 2913 2975 3322 
Q 2975 3731 2742 3939 
Q 2509 4147 2053 4147 
L 1259 4147 
z
" transform="scale(0.015625)"/>
      <path id="DejaVuSans-49" d="M 628 4666 
L 1259 4666 
L 1259 0 
L 628 0 
L 628 4666 
z
" transform="scale(0.015625)"/>
      <path id="DejaVuSans-4d" d="M 628 4666 
L 1569 4666 
L 2759 1491 
L 3956 4666 
L 4897 4666 
L 4897 0 
L 4281 0 
L 4281 4097 
L 3078 897 
L 2444 897 
L 1241 4097 
L 1241 0 
L 628 0 
L 628 4666 
z
" transform="scale(0.015625)"/>
      <path id="DejaVuSans-28" d="M 1984 4856 
Q 1566 4138 1362 3434 
Q 1159 2731 1159 2009 
Q 1159 1288 1364 580 
Q 1569 -128 1984 -844 
L 1484 -844 
Q 1016 -109 783 600 
Q 550 1309 550 2009 
Q 550 2706 781 3412 
Q 1013 4119 1484 4856 
L 1984 4856 
z
" transform="scale(0.015625)"/>
      <path id="DejaVuSans-2c" d="M 750 794 
L 1409 794 
L 1409 256 
L 897 -744 
L 494 -744 
L 750 256 
L 750 794 
z
" transform="scale(0.015625)"/>
      <path id="DejaVuSans-29" d="M 513 4856 
L 1013 4856 
Q 1481 4119 1714 3412 
Q 1947 2706 1947 2009 
Q 1947 1309 1714 600 
Q 1481 -109 1013 -844 
L 513 -844 
Q 928 -128 1133 580 
Q 1338 1288 1338 2009 
Q 1338 2731 1133 3434 
Q 928 4138 513 4856 
z
" transform="scale(0.015625)"/>
      <path id="DejaVuSans-78" d="M 3513 3500 
L 2247 1797 
L 3578 0 
L 2900 0 
L 1881 1375 
L 863 0 
L 184 0 
L 1544 1831 
L 300 3500 
L 978 3500 
L 1906 2253 
L 2834 3500 
L 3513 3500 
z
" transform="scale(0.015625)"/>
      <path id="DejaVuSans-3d" d="M 678 2906 
L 4684 2906 
L 4684 2381 
L 678 2381 
L 678 2906 
z
M 678 1631 
L 4684 1631 
L 4684 1100 
L 678 1100 
L 678 1631 
z
" transform="scale(0.015625)"/>
      <path id="DejaVuSans-2e" d="M 684 794 
L 1344 794 
L 1344 0 
L 684 0 
L 684 794 
z
" transform="scale(0.015625)"/>
      <path id="DejaVuSans-38" d="M 2034 2216 
Q 1584 2216 1326 1975 
Q 1069 1734 1069 1313 
Q 1069 891 1326 650 
Q 1584 409 2034 409 
Q 2484 409 2743 651 
Q 3003 894 3003 1313 
Q 3003 1734 2745 1975 
Q 2488 2216 2034 2216 
z
M 1403 2484 
Q 997 2584 770 2862 
Q 544 3141 544 3541 
Q 544 4100 942 4425 
Q 1341 4750 2034 4750 
Q 2731 4750 3128 4425 
Q 3525 4100 3525 3541 
Q 3525 3141 3298 2862 
Q 3072 2584 2669 2484 
Q 3125 2378 3379 2068 
Q 3634 1759 3634 1313 
Q 3634 634 3220 271 
Q 2806 -91 2034 -91 
Q 1263 -91 848 271 
Q 434 634 434 1313 
Q 434 1759 690 2068 
Q 947 2378 1403 2484 
z
M 1172 3481 
Q 1172 3119 1398 2916 
Q 1625 2713 2034 2713 
Q 2441 2713 2670 2916 
Q 2900 3119 2900 3481 
Q 2900 3844 2670 4047 
Q 2441 4250 2034 4250 
Q 1625 4250 1398 4047 
Q 1172 3844 1172 3481 
z
" transform="scale(0.015625)"/>
     </defs>
     <use xlink:href="#DejaVuSans-41"/>
     <use xlink:href="#DejaVuSans-52" x="68.408203"/>
     <use xlink:href="#DejaVuSans-49" x="137.890625"/>
     <use xlink:href="#DejaVuSans-4d" x="167.382812"/>
     <use xlink:href="#DejaVuSans-41" x="253.662109"/>
     <use xlink:href="#DejaVuSans-20" x="322.070312"/>
     <use xlink:href="#DejaVuSans-28" x="353.857422"/>
     <use xlink:href="#DejaVuSans-30" x="392.871094"/>
     <use xlink:href="#DejaVuSans-2c" x="456.494141"/>
     <use xlink:href="#DejaVuSans-20" x="488.28125"/>
     <use xlink:href="#DejaVuSans-31" x="520.068359"/>
     <use xlink:href="#DejaVuSans-2c" x="583.691406"/>
     <use xlink:href="#DejaVuSans-20" x="615.478516"/>
     <use xlink:href="#DejaVuSans-31" x="647.265625"/>
     <use xlink:href="#DejaVuSans-29" x="710.888672"/>
     <use xlink:href="#DejaVuSans-78" x="749.902344"/>
     <use xlink:href="#DejaVuSans-28" x="809.082031"/>
     <use xlink:href="#DejaVuSans-31" x="848.095703"/>
     <use xlink:href="#DejaVuSans-2c" x="911.71875"/>
     <use xlink:href="#DejaVuSans-20" x="943.505859"/>
     <use xlink:href="#DejaVuSans-30" x="975.292969"/>
     <use xlink:href="#DejaVuSans-2c" x="1038.916016"/>
     <use xlink:href="#DejaVuSans-20" x="1070.703125"/>
     <use xlink:href="#DejaVuSans-31" x="1102.490234"/>
     <use xlink:href="#DejaVuSans-2c" x="1166.113281"/>
     <use xlink:href="#DejaVuSans-20" x="1197.900391"/>
     <use xlink:href="#DejaVuSans-37" x="1229.6875"/>
     <use xlink:href="#DejaVuSans-29" x="1293.310547"/>
     <use xlink:href="#DejaVuSans-20" x="1332.324219"/>
     <use xlink:href="#DejaVuSans-28" x="1364.111328"/>
     <use xlink:href="#DejaVuSans-52" x="1403.125"/>
     <use xlink:href="#DejaVuSans-32" x="1472.607422"/>
     <use xlink:href="#DejaVuSans-20" x="1536.230469"/>
     <use xlink:href="#DejaVuSans-3d" x="1568.017578"/>
     <use xlink:href="#DejaVuSans-20" x="1651.806641"/>
     <use xlink:href="#DejaVuSans-30" x="1683.59375"/>
     <use xlink:href="#DejaVuSans-2e" x="1747.216797"/>
     <use xlink:href="#DejaVuSans-35" x="1779.003906"/>
     <use xlink:href="#DejaVuSans-35" x="1842.626953"/>
     <use xlink:href="#DejaVuSans-32" x="1906.25"/>
     <use xlink:href="#DejaVuSans-35" x="1969.873047"/>
     <use xlink:href="#DejaVuSans-38" x="2033.496094"/>
     <use xlink:href="#DejaVuSans-34" x="2097.119141"/>
     <use xlink:href="#DejaVuSans-29" x="2160.742188"/>
    </g>
   </g>
   <g id="legend_1">
    <g id="patch_7">
     <path d="M 1281.132812 87.789875 
L 1378.2125 87.789875 
Q 1380.2125 87.789875 1380.2125 85.789875 
L 1380.2125 42.7555 
Q 1380.2125 40.7555 1378.2125 40.7555 
L 1281.132812 40.7555 
Q 1279.132812 40.7555 1279.132812 42.7555 
L 1279.132812 85.789875 
Q 1279.132812 87.789875 1281.132812 87.789875 
z
" style="fill: #ffffff; opacity: 0.8; stroke: #cccccc; stroke-linejoin: miter"/>
    </g>
    <g id="line2d_21">
     <path d="M 1283.132812 48.853937 
L 1293.132812 48.853937 
L 1303.132812 48.853937 
" style="fill: none; stroke: #0000ff; stroke-width: 1.5; stroke-linecap: square"/>
    </g>
    <g id="text_19">
     <!-- Actual Value -->
     <g transform="translate(1311.132812 52.353937)scale(0.1 -0.1)">
      <defs>
       <path id="DejaVuSans-75" d="M 544 1381 
L 544 3500 
L 1119 3500 
L 1119 1403 
Q 1119 906 1312 657 
Q 1506 409 1894 409 
Q 2359 409 2629 706 
Q 2900 1003 2900 1516 
L 2900 3500 
L 3475 3500 
L 3475 0 
L 2900 0 
L 2900 538 
Q 2691 219 2414 64 
Q 2138 -91 1772 -91 
Q 1169 -91 856 284 
Q 544 659 544 1381 
z
M 1991 3584 
L 1991 3584 
z
" transform="scale(0.015625)"/>
       <path id="DejaVuSans-56" d="M 1831 0 
L 50 4666 
L 709 4666 
L 2188 738 
L 3669 4666 
L 4325 4666 
L 2547 0 
L 1831 0 
z
" transform="scale(0.015625)"/>
      </defs>
      <use xlink:href="#DejaVuSans-41"/>
      <use xlink:href="#DejaVuSans-63" x="66.658203"/>
      <use xlink:href="#DejaVuSans-74" x="121.638672"/>
      <use xlink:href="#DejaVuSans-75" x="160.847656"/>
      <use xlink:href="#DejaVuSans-61" x="224.226562"/>
      <use xlink:href="#DejaVuSans-6c" x="285.505859"/>
      <use xlink:href="#DejaVuSans-20" x="313.289062"/>
      <use xlink:href="#DejaVuSans-56" x="345.076172"/>
      <use xlink:href="#DejaVuSans-61" x="405.734375"/>
      <use xlink:href="#DejaVuSans-6c" x="467.013672"/>
      <use xlink:href="#DejaVuSans-75" x="494.796875"/>
      <use xlink:href="#DejaVuSans-65" x="558.175781"/>
     </g>
    </g>
    <g id="line2d_22">
     <path d="M 1283.132812 63.532062 
L 1293.132812 63.532062 
L 1303.132812 63.532062 
" style="fill: none; stroke: #ffa500; stroke-width: 1.5; stroke-linecap: square"/>
    </g>
    <g id="text_20">
     <!-- Check Value -->
     <g transform="translate(1311.132812 67.032062)scale(0.1 -0.1)">
      <defs>
       <path id="DejaVuSans-68" d="M 3513 2113 
L 3513 0 
L 2938 0 
L 2938 2094 
Q 2938 2591 2744 2837 
Q 2550 3084 2163 3084 
Q 1697 3084 1428 2787 
Q 1159 2491 1159 1978 
L 1159 0 
L 581 0 
L 581 4863 
L 1159 4863 
L 1159 2956 
Q 1366 3272 1645 3428 
Q 1925 3584 2291 3584 
Q 2894 3584 3203 3211 
Q 3513 2838 3513 2113 
z
" transform="scale(0.015625)"/>
       <path id="DejaVuSans-6b" d="M 581 4863 
L 1159 4863 
L 1159 1991 
L 2875 3500 
L 3609 3500 
L 1753 1863 
L 3688 0 
L 2938 0 
L 1159 1709 
L 1159 0 
L 581 0 
L 581 4863 
z
" transform="scale(0.015625)"/>
      </defs>
      <use xlink:href="#DejaVuSans-43"/>
      <use xlink:href="#DejaVuSans-68" x="69.824219"/>
      <use xlink:href="#DejaVuSans-65" x="133.203125"/>
      <use xlink:href="#DejaVuSans-63" x="194.726562"/>
      <use xlink:href="#DejaVuSans-6b" x="249.707031"/>
      <use xlink:href="#DejaVuSans-20" x="307.617188"/>
      <use xlink:href="#DejaVuSans-56" x="339.404297"/>
      <use xlink:href="#DejaVuSans-61" x="400.0625"/>
      <use xlink:href="#DejaVuSans-6c" x="461.341797"/>
      <use xlink:href="#DejaVuSans-75" x="489.125"/>
      <use xlink:href="#DejaVuSans-65" x="552.503906"/>
     </g>
    </g>
    <g id="line2d_23">
     <path d="M 1283.132812 78.210187 
L 1293.132812 78.210187 
L 1303.132812 78.210187 
" style="fill: none; stroke: #ff0000; stroke-width: 1.5; stroke-linecap: square"/>
    </g>
    <g id="text_21">
     <!-- Predict Value -->
     <g transform="translate(1311.132812 81.710187)scale(0.1 -0.1)">
      <defs>
       <path id="DejaVuSans-50" d="M 1259 4147 
L 1259 2394 
L 2053 2394 
Q 2494 2394 2734 2622 
Q 2975 2850 2975 3272 
Q 2975 3691 2734 3919 
Q 2494 4147 2053 4147 
L 1259 4147 
z
M 628 4666 
L 2053 4666 
Q 2838 4666 3239 4311 
Q 3641 3956 3641 3272 
Q 3641 2581 3239 2228 
Q 2838 1875 2053 1875 
L 1259 1875 
L 1259 0 
L 628 0 
L 628 4666 
z
" transform="scale(0.015625)"/>
      </defs>
      <use xlink:href="#DejaVuSans-50"/>
      <use xlink:href="#DejaVuSans-72" x="58.552734"/>
      <use xlink:href="#DejaVuSans-65" x="97.416016"/>
      <use xlink:href="#DejaVuSans-64" x="158.939453"/>
      <use xlink:href="#DejaVuSans-69" x="222.416016"/>
      <use xlink:href="#DejaVuSans-63" x="250.199219"/>
      <use xlink:href="#DejaVuSans-74" x="305.179688"/>
      <use xlink:href="#DejaVuSans-20" x="344.388672"/>
      <use xlink:href="#DejaVuSans-56" x="376.175781"/>
      <use xlink:href="#DejaVuSans-61" x="436.833984"/>
      <use xlink:href="#DejaVuSans-6c" x="498.113281"/>
      <use xlink:href="#DejaVuSans-75" x="525.896484"/>
      <use xlink:href="#DejaVuSans-65" x="589.275391"/>
     </g>
    </g>
   </g>
  </g>
 </g>
 <defs>
  <clipPath id="p312414f1df">
   <rect x="46.0125" y="35.7555" width="1339.2" height="332.64"/>
  </clipPath>
 </defs>
</svg>
