<?xml version="1.0" encoding="utf-8" standalone="no"?>
<!DOCTYPE svg PUBLIC "-//W3C//DTD SVG 1.1//EN"
  "http://www.w3.org/Graphics/SVG/1.1/DTD/svg11.dtd">
<svg xmlns:xlink="http://www.w3.org/1999/xlink" width="1398.775pt" height="392.273625pt" viewBox="0 0 1398.775 392.273625" xmlns="http://www.w3.org/2000/svg" version="1.1">
 <metadata>
  <rdf:RDF xmlns:dc="http://purl.org/dc/elements/1.1/" xmlns:cc="http://creativecommons.org/ns#" xmlns:rdf="http://www.w3.org/1999/02/22-rdf-syntax-ns#">
   <cc:Work>
    <dc:type rdf:resource="http://purl.org/dc/dcmitype/StillImage"/>
    <dc:date>2022-07-12T17:30:41.283824</dc:date>
    <dc:format>image/svg+xml</dc:format>
    <dc:creator>
     <cc:Agent>
      <dc:title>Matplotlib v3.5.2, https://matplotlib.org/</dc:title>
     </cc:Agent>
    </dc:creator>
   </cc:Work>
  </rdf:RDF>
 </metadata>
 <defs>
  <style type="text/css">*{stroke-linejoin: round; stroke-linecap: butt}</style>
 </defs>
 <g id="figure_1">
  <g id="patch_1">
   <path d="M 0 392.273625 
L 1398.775 392.273625 
L 1398.775 0 
L 0 0 
z
" style="fill: #ffffff"/>
  </g>
  <g id="axes_1">
   <g id="patch_2">
    <path d="M 52.375 368.3955 
L 1391.575 368.3955 
L 1391.575 35.7555 
L 52.375 35.7555 
z
" style="fill: #ffffff"/>
   </g>
   <g id="matplotlib.axis_1">
    <g id="xtick_1">
     <g id="line2d_1">
      <defs>
       <path id="mce23594634" d="M 0 0 
L 0 3.5 
" style="stroke: #000000; stroke-width: 0.8"/>
      </defs>
      <g>
       <use xlink:href="#mce23594634" x="83.911473" y="368.3955" style="stroke: #000000; stroke-width: 0.8"/>
      </g>
     </g>
     <g id="text_1">
      <!-- 2020-01 -->
      <g transform="translate(63.020067 382.993937)scale(0.1 -0.1)">
       <defs>
        <path id="DejaVuSans-32" d="M 1228 531 
L 3431 531 
L 3431 0 
L 469 0 
L 469 531 
Q 828 903 1448 1529 
Q 2069 2156 2228 2338 
Q 2531 2678 2651 2914 
Q 2772 3150 2772 3378 
Q 2772 3750 2511 3984 
Q 2250 4219 1831 4219 
Q 1534 4219 1204 4116 
Q 875 4013 500 3803 
L 500 4441 
Q 881 4594 1212 4672 
Q 1544 4750 1819 4750 
Q 2544 4750 2975 4387 
Q 3406 4025 3406 3419 
Q 3406 3131 3298 2873 
Q 3191 2616 2906 2266 
Q 2828 2175 2409 1742 
Q 1991 1309 1228 531 
z
" transform="scale(0.015625)"/>
        <path id="DejaVuSans-30" d="M 2034 4250 
Q 1547 4250 1301 3770 
Q 1056 3291 1056 2328 
Q 1056 1369 1301 889 
Q 1547 409 2034 409 
Q 2525 409 2770 889 
Q 3016 1369 3016 2328 
Q 3016 3291 2770 3770 
Q 2525 4250 2034 4250 
z
M 2034 4750 
Q 2819 4750 3233 4129 
Q 3647 3509 3647 2328 
Q 3647 1150 3233 529 
Q 2819 -91 2034 -91 
Q 1250 -91 836 529 
Q 422 1150 422 2328 
Q 422 3509 836 4129 
Q 1250 4750 2034 4750 
z
" transform="scale(0.015625)"/>
        <path id="DejaVuSans-2d" d="M 313 2009 
L 1997 2009 
L 1997 1497 
L 313 1497 
L 313 2009 
z
" transform="scale(0.015625)"/>
        <path id="DejaVuSans-31" d="M 794 531 
L 1825 531 
L 1825 4091 
L 703 3866 
L 703 4441 
L 1819 4666 
L 2450 4666 
L 2450 531 
L 3481 531 
L 3481 0 
L 794 0 
L 794 531 
z
" transform="scale(0.015625)"/>
       </defs>
       <use xlink:href="#DejaVuSans-32"/>
       <use xlink:href="#DejaVuSans-30" x="63.623047"/>
       <use xlink:href="#DejaVuSans-32" x="127.246094"/>
       <use xlink:href="#DejaVuSans-30" x="190.869141"/>
       <use xlink:href="#DejaVuSans-2d" x="254.492188"/>
       <use xlink:href="#DejaVuSans-30" x="290.576172"/>
       <use xlink:href="#DejaVuSans-31" x="354.199219"/>
      </g>
     </g>
    </g>
    <g id="xtick_2">
     <g id="line2d_2">
      <g>
       <use xlink:href="#mce23594634" x="205.256888" y="368.3955" style="stroke: #000000; stroke-width: 0.8"/>
      </g>
     </g>
     <g id="text_2">
      <!-- 2020-04 -->
      <g transform="translate(184.365482 382.993937)scale(0.1 -0.1)">
       <defs>
        <path id="DejaVuSans-34" d="M 2419 4116 
L 825 1625 
L 2419 1625 
L 2419 4116 
z
M 2253 4666 
L 3047 4666 
L 3047 1625 
L 3713 1625 
L 3713 1100 
L 3047 1100 
L 3047 0 
L 2419 0 
L 2419 1100 
L 313 1100 
L 313 1709 
L 2253 4666 
z
" transform="scale(0.015625)"/>
       </defs>
       <use xlink:href="#DejaVuSans-32"/>
       <use xlink:href="#DejaVuSans-30" x="63.623047"/>
       <use xlink:href="#DejaVuSans-32" x="127.246094"/>
       <use xlink:href="#DejaVuSans-30" x="190.869141"/>
       <use xlink:href="#DejaVuSans-2d" x="254.492188"/>
       <use xlink:href="#DejaVuSans-30" x="290.576172"/>
       <use xlink:href="#DejaVuSans-34" x="354.199219"/>
      </g>
     </g>
    </g>
    <g id="xtick_3">
     <g id="line2d_3">
      <g>
       <use xlink:href="#mce23594634" x="326.602303" y="368.3955" style="stroke: #000000; stroke-width: 0.8"/>
      </g>
     </g>
     <g id="text_3">
      <!-- 2020-07 -->
      <g transform="translate(305.710896 382.993937)scale(0.1 -0.1)">
       <defs>
        <path id="DejaVuSans-37" d="M 525 4666 
L 3525 4666 
L 3525 4397 
L 1831 0 
L 1172 0 
L 2766 4134 
L 525 4134 
L 525 4666 
z
" transform="scale(0.015625)"/>
       </defs>
       <use xlink:href="#DejaVuSans-32"/>
       <use xlink:href="#DejaVuSans-30" x="63.623047"/>
       <use xlink:href="#DejaVuSans-32" x="127.246094"/>
       <use xlink:href="#DejaVuSans-30" x="190.869141"/>
       <use xlink:href="#DejaVuSans-2d" x="254.492188"/>
       <use xlink:href="#DejaVuSans-30" x="290.576172"/>
       <use xlink:href="#DejaVuSans-37" x="354.199219"/>
      </g>
     </g>
    </g>
    <g id="xtick_4">
     <g id="line2d_4">
      <g>
       <use xlink:href="#mce23594634" x="449.281183" y="368.3955" style="stroke: #000000; stroke-width: 0.8"/>
      </g>
     </g>
     <g id="text_4">
      <!-- 2020-10 -->
      <g transform="translate(428.389777 382.993937)scale(0.1 -0.1)">
       <use xlink:href="#DejaVuSans-32"/>
       <use xlink:href="#DejaVuSans-30" x="63.623047"/>
       <use xlink:href="#DejaVuSans-32" x="127.246094"/>
       <use xlink:href="#DejaVuSans-30" x="190.869141"/>
       <use xlink:href="#DejaVuSans-2d" x="254.492188"/>
       <use xlink:href="#DejaVuSans-31" x="290.576172"/>
       <use xlink:href="#DejaVuSans-30" x="354.199219"/>
      </g>
     </g>
    </g>
    <g id="xtick_5">
     <g id="line2d_5">
      <g>
       <use xlink:href="#mce23594634" x="571.960064" y="368.3955" style="stroke: #000000; stroke-width: 0.8"/>
      </g>
     </g>
     <g id="text_5">
      <!-- 2021-01 -->
      <g transform="translate(551.068658 382.993937)scale(0.1 -0.1)">
       <use xlink:href="#DejaVuSans-32"/>
       <use xlink:href="#DejaVuSans-30" x="63.623047"/>
       <use xlink:href="#DejaVuSans-32" x="127.246094"/>
       <use xlink:href="#DejaVuSans-31" x="190.869141"/>
       <use xlink:href="#DejaVuSans-2d" x="254.492188"/>
       <use xlink:href="#DejaVuSans-30" x="290.576172"/>
       <use xlink:href="#DejaVuSans-31" x="354.199219"/>
      </g>
     </g>
    </g>
    <g id="xtick_6">
     <g id="line2d_6">
      <g>
       <use xlink:href="#mce23594634" x="691.972013" y="368.3955" style="stroke: #000000; stroke-width: 0.8"/>
      </g>
     </g>
     <g id="text_6">
      <!-- 2021-04 -->
      <g transform="translate(671.080607 382.993937)scale(0.1 -0.1)">
       <use xlink:href="#DejaVuSans-32"/>
       <use xlink:href="#DejaVuSans-30" x="63.623047"/>
       <use xlink:href="#DejaVuSans-32" x="127.246094"/>
       <use xlink:href="#DejaVuSans-31" x="190.869141"/>
       <use xlink:href="#DejaVuSans-2d" x="254.492188"/>
       <use xlink:href="#DejaVuSans-30" x="290.576172"/>
       <use xlink:href="#DejaVuSans-34" x="354.199219"/>
      </g>
     </g>
    </g>
    <g id="xtick_7">
     <g id="line2d_7">
      <g>
       <use xlink:href="#mce23594634" x="813.317428" y="368.3955" style="stroke: #000000; stroke-width: 0.8"/>
      </g>
     </g>
     <g id="text_7">
      <!-- 2021-07 -->
      <g transform="translate(792.426021 382.993937)scale(0.1 -0.1)">
       <use xlink:href="#DejaVuSans-32"/>
       <use xlink:href="#DejaVuSans-30" x="63.623047"/>
       <use xlink:href="#DejaVuSans-32" x="127.246094"/>
       <use xlink:href="#DejaVuSans-31" x="190.869141"/>
       <use xlink:href="#DejaVuSans-2d" x="254.492188"/>
       <use xlink:href="#DejaVuSans-30" x="290.576172"/>
       <use xlink:href="#DejaVuSans-37" x="354.199219"/>
      </g>
     </g>
    </g>
    <g id="xtick_8">
     <g id="line2d_8">
      <g>
       <use xlink:href="#mce23594634" x="935.996308" y="368.3955" style="stroke: #000000; stroke-width: 0.8"/>
      </g>
     </g>
     <g id="text_8">
      <!-- 2021-10 -->
      <g transform="translate(915.104902 382.993937)scale(0.1 -0.1)">
       <use xlink:href="#DejaVuSans-32"/>
       <use xlink:href="#DejaVuSans-30" x="63.623047"/>
       <use xlink:href="#DejaVuSans-32" x="127.246094"/>
       <use xlink:href="#DejaVuSans-31" x="190.869141"/>
       <use xlink:href="#DejaVuSans-2d" x="254.492188"/>
       <use xlink:href="#DejaVuSans-31" x="290.576172"/>
       <use xlink:href="#DejaVuSans-30" x="354.199219"/>
      </g>
     </g>
    </g>
    <g id="xtick_9">
     <g id="line2d_9">
      <g>
       <use xlink:href="#mce23594634" x="1058.675189" y="368.3955" style="stroke: #000000; stroke-width: 0.8"/>
      </g>
     </g>
     <g id="text_9">
      <!-- 2022-01 -->
      <g transform="translate(1037.783783 382.993937)scale(0.1 -0.1)">
       <use xlink:href="#DejaVuSans-32"/>
       <use xlink:href="#DejaVuSans-30" x="63.623047"/>
       <use xlink:href="#DejaVuSans-32" x="127.246094"/>
       <use xlink:href="#DejaVuSans-32" x="190.869141"/>
       <use xlink:href="#DejaVuSans-2d" x="254.492188"/>
       <use xlink:href="#DejaVuSans-30" x="290.576172"/>
       <use xlink:href="#DejaVuSans-31" x="354.199219"/>
      </g>
     </g>
    </g>
    <g id="xtick_10">
     <g id="line2d_10">
      <g>
       <use xlink:href="#mce23594634" x="1178.687138" y="368.3955" style="stroke: #000000; stroke-width: 0.8"/>
      </g>
     </g>
     <g id="text_10">
      <!-- 2022-04 -->
      <g transform="translate(1157.795732 382.993937)scale(0.1 -0.1)">
       <use xlink:href="#DejaVuSans-32"/>
       <use xlink:href="#DejaVuSans-30" x="63.623047"/>
       <use xlink:href="#DejaVuSans-32" x="127.246094"/>
       <use xlink:href="#DejaVuSans-32" x="190.869141"/>
       <use xlink:href="#DejaVuSans-2d" x="254.492188"/>
       <use xlink:href="#DejaVuSans-30" x="290.576172"/>
       <use xlink:href="#DejaVuSans-34" x="354.199219"/>
      </g>
     </g>
    </g>
    <g id="xtick_11">
     <g id="line2d_11">
      <g>
       <use xlink:href="#mce23594634" x="1300.032553" y="368.3955" style="stroke: #000000; stroke-width: 0.8"/>
      </g>
     </g>
     <g id="text_11">
      <!-- 2022-07 -->
      <g transform="translate(1279.141146 382.993937)scale(0.1 -0.1)">
       <use xlink:href="#DejaVuSans-32"/>
       <use xlink:href="#DejaVuSans-30" x="63.623047"/>
       <use xlink:href="#DejaVuSans-32" x="127.246094"/>
       <use xlink:href="#DejaVuSans-32" x="190.869141"/>
       <use xlink:href="#DejaVuSans-2d" x="254.492188"/>
       <use xlink:href="#DejaVuSans-30" x="290.576172"/>
       <use xlink:href="#DejaVuSans-37" x="354.199219"/>
      </g>
     </g>
    </g>
   </g>
   <g id="matplotlib.axis_2">
    <g id="ytick_1">
     <g id="line2d_12">
      <defs>
       <path id="m8cee1da8f5" d="M 0 0 
L -3.5 0 
" style="stroke: #000000; stroke-width: 0.8"/>
      </defs>
      <g>
       <use xlink:href="#m8cee1da8f5" x="52.375" y="351.208674" style="stroke: #000000; stroke-width: 0.8"/>
      </g>
     </g>
     <g id="text_12">
      <!-- 0 -->
      <g transform="translate(39.0125 355.007892)scale(0.1 -0.1)">
       <use xlink:href="#DejaVuSans-30"/>
      </g>
     </g>
    </g>
    <g id="ytick_2">
     <g id="line2d_13">
      <g>
       <use xlink:href="#m8cee1da8f5" x="52.375" y="290.490533" style="stroke: #000000; stroke-width: 0.8"/>
      </g>
     </g>
     <g id="text_13">
      <!-- 20000 -->
      <g transform="translate(13.5625 294.289752)scale(0.1 -0.1)">
       <use xlink:href="#DejaVuSans-32"/>
       <use xlink:href="#DejaVuSans-30" x="63.623047"/>
       <use xlink:href="#DejaVuSans-30" x="127.246094"/>
       <use xlink:href="#DejaVuSans-30" x="190.869141"/>
       <use xlink:href="#DejaVuSans-30" x="254.492188"/>
      </g>
     </g>
    </g>
    <g id="ytick_3">
     <g id="line2d_14">
      <g>
       <use xlink:href="#m8cee1da8f5" x="52.375" y="229.772393" style="stroke: #000000; stroke-width: 0.8"/>
      </g>
     </g>
     <g id="text_14">
      <!-- 40000 -->
      <g transform="translate(13.5625 233.571612)scale(0.1 -0.1)">
       <use xlink:href="#DejaVuSans-34"/>
       <use xlink:href="#DejaVuSans-30" x="63.623047"/>
       <use xlink:href="#DejaVuSans-30" x="127.246094"/>
       <use xlink:href="#DejaVuSans-30" x="190.869141"/>
       <use xlink:href="#DejaVuSans-30" x="254.492188"/>
      </g>
     </g>
    </g>
    <g id="ytick_4">
     <g id="line2d_15">
      <g>
       <use xlink:href="#m8cee1da8f5" x="52.375" y="169.054252" style="stroke: #000000; stroke-width: 0.8"/>
      </g>
     </g>
     <g id="text_15">
      <!-- 60000 -->
      <g transform="translate(13.5625 172.853471)scale(0.1 -0.1)">
       <defs>
        <path id="DejaVuSans-36" d="M 2113 2584 
Q 1688 2584 1439 2293 
Q 1191 2003 1191 1497 
Q 1191 994 1439 701 
Q 1688 409 2113 409 
Q 2538 409 2786 701 
Q 3034 994 3034 1497 
Q 3034 2003 2786 2293 
Q 2538 2584 2113 2584 
z
M 3366 4563 
L 3366 3988 
Q 3128 4100 2886 4159 
Q 2644 4219 2406 4219 
Q 1781 4219 1451 3797 
Q 1122 3375 1075 2522 
Q 1259 2794 1537 2939 
Q 1816 3084 2150 3084 
Q 2853 3084 3261 2657 
Q 3669 2231 3669 1497 
Q 3669 778 3244 343 
Q 2819 -91 2113 -91 
Q 1303 -91 875 529 
Q 447 1150 447 2328 
Q 447 3434 972 4092 
Q 1497 4750 2381 4750 
Q 2619 4750 2861 4703 
Q 3103 4656 3366 4563 
z
" transform="scale(0.015625)"/>
       </defs>
       <use xlink:href="#DejaVuSans-36"/>
       <use xlink:href="#DejaVuSans-30" x="63.623047"/>
       <use xlink:href="#DejaVuSans-30" x="127.246094"/>
       <use xlink:href="#DejaVuSans-30" x="190.869141"/>
       <use xlink:href="#DejaVuSans-30" x="254.492188"/>
      </g>
     </g>
    </g>
    <g id="ytick_5">
     <g id="line2d_16">
      <g>
       <use xlink:href="#m8cee1da8f5" x="52.375" y="108.336112" style="stroke: #000000; stroke-width: 0.8"/>
      </g>
     </g>
     <g id="text_16">
      <!-- 80000 -->
      <g transform="translate(13.5625 112.135331)scale(0.1 -0.1)">
       <defs>
        <path id="DejaVuSans-38" d="M 2034 2216 
Q 1584 2216 1326 1975 
Q 1069 1734 1069 1313 
Q 1069 891 1326 650 
Q 1584 409 2034 409 
Q 2484 409 2743 651 
Q 3003 894 3003 1313 
Q 3003 1734 2745 1975 
Q 2488 2216 2034 2216 
z
M 1403 2484 
Q 997 2584 770 2862 
Q 544 3141 544 3541 
Q 544 4100 942 4425 
Q 1341 4750 2034 4750 
Q 2731 4750 3128 4425 
Q 3525 4100 3525 3541 
Q 3525 3141 3298 2862 
Q 3072 2584 2669 2484 
Q 3125 2378 3379 2068 
Q 3634 1759 3634 1313 
Q 3634 634 3220 271 
Q 2806 -91 2034 -91 
Q 1263 -91 848 271 
Q 434 634 434 1313 
Q 434 1759 690 2068 
Q 947 2378 1403 2484 
z
M 1172 3481 
Q 1172 3119 1398 2916 
Q 1625 2713 2034 2713 
Q 2441 2713 2670 2916 
Q 2900 3119 2900 3481 
Q 2900 3844 2670 4047 
Q 2441 4250 2034 4250 
Q 1625 4250 1398 4047 
Q 1172 3844 1172 3481 
z
" transform="scale(0.015625)"/>
       </defs>
       <use xlink:href="#DejaVuSans-38"/>
       <use xlink:href="#DejaVuSans-30" x="63.623047"/>
       <use xlink:href="#DejaVuSans-30" x="127.246094"/>
       <use xlink:href="#DejaVuSans-30" x="190.869141"/>
       <use xlink:href="#DejaVuSans-30" x="254.492188"/>
      </g>
     </g>
    </g>
    <g id="ytick_6">
     <g id="line2d_17">
      <g>
       <use xlink:href="#m8cee1da8f5" x="52.375" y="47.617972" style="stroke: #000000; stroke-width: 0.8"/>
      </g>
     </g>
     <g id="text_17">
      <!-- 100000 -->
      <g transform="translate(7.2 51.417191)scale(0.1 -0.1)">
       <use xlink:href="#DejaVuSans-31"/>
       <use xlink:href="#DejaVuSans-30" x="63.623047"/>
       <use xlink:href="#DejaVuSans-30" x="127.246094"/>
       <use xlink:href="#DejaVuSans-30" x="190.869141"/>
       <use xlink:href="#DejaVuSans-30" x="254.492188"/>
       <use xlink:href="#DejaVuSans-30" x="318.115234"/>
      </g>
     </g>
    </g>
   </g>
   <g id="line2d_18">
    <path d="M 113.247727 351.208674 
L 185.254896 351.166171 
L 189.255295 350.732036 
L 190.588761 350.741144 
L 191.922227 349.672505 
L 193.255693 350.228076 
L 194.589159 349.727151 
L 197.256091 349.496422 
L 199.923023 348.045258 
L 201.25649 348.588686 
L 202.589956 348.020971 
L 203.923422 347.723452 
L 205.256888 345.847262 
L 206.590354 346.615346 
L 207.92382 345.164183 
L 209.257286 346.61231 
L 211.924218 346.496946 
L 213.257684 345.671179 
L 214.591151 346.861255 
L 217.258083 348.227413 
L 218.591549 347.501831 
L 219.925015 349.135149 
L 221.258481 346.840003 
L 222.591947 346.897686 
L 225.258879 348.713158 
L 226.592345 347.386467 
L 227.925812 348.761732 
L 229.259278 349.214083 
L 230.592744 349.277837 
L 231.92621 349.010677 
L 233.259676 347.091984 
L 234.593142 346.833932 
L 235.926608 346.700352 
L 237.260074 349.815192 
L 238.59354 348.928707 
L 239.927006 349.708935 
L 241.260472 347.772027 
L 242.593939 347.526118 
L 243.927405 347.872212 
L 245.260871 348.033115 
L 246.594337 348.476357 
L 247.927803 349.317303 
L 249.261269 350.294866 
L 251.928201 348.707086 
L 253.261667 349.162472 
L 254.595133 348.907456 
L 255.9286 349.672505 
L 257.262066 349.963952 
L 258.595532 349.554104 
L 259.928998 349.28998 
L 261.262464 349.520709 
L 262.59593 347.116271 
L 263.929396 349.256585 
L 265.262862 349.675541 
L 266.596328 349.241406 
L 267.929794 348.500644 
L 269.26326 349.35677 
L 270.596727 348.606901 
L 271.930193 349.186759 
L 273.263659 349.523745 
L 274.597125 349.681612 
L 277.264057 350.522559 
L 278.597523 350.136998 
L 279.930989 349.332483 
L 281.264455 349.617858 
L 282.597921 349.031928 
L 283.931388 350.018598 
L 285.264854 349.733223 
L 286.59832 350.549882 
L 289.265252 349.9427 
L 290.598718 350.231111 
L 291.932184 348.65244 
L 293.26565 350.926334 
L 294.599116 351.041699 
L 295.932582 350.798826 
L 298.599515 351.163135 
L 299.932981 350.398086 
L 302.599913 350.710785 
L 303.933379 350.546846 
L 305.266845 351.11456 
L 306.600311 350.650067 
L 310.600709 350.300937 
L 311.934176 349.848587 
L 313.267642 350.704713 
L 314.601108 350.46184 
L 315.934574 350.480056 
L 317.26804 350.121819 
L 318.601506 349.89109 
L 319.934972 350.176465 
L 321.268438 350.146106 
L 322.601904 350.398086 
L 323.93537 350.367727 
L 325.268837 349.675541 
L 326.602303 350.112711 
L 327.935769 349.420524 
L 330.602701 349.976095 
L 333.269633 350.218968 
L 334.603099 349.286944 
L 335.936565 349.232298 
L 337.270031 349.654289 
L 338.603497 349.320339 
L 339.936964 349.129077 
L 341.27043 349.976095 
L 342.603896 349.927521 
L 343.937362 349.186759 
L 345.270828 348.024007 
L 346.604294 348.397424 
L 347.93776 348.9196 
L 349.271226 348.946923 
L 350.604692 349.599643 
L 351.938158 349.608751 
L 353.271625 349.192831 
L 355.938557 349.080503 
L 358.605489 349.538925 
L 359.938955 348.054366 
L 361.272421 349.654289 
L 363.939353 348.124192 
L 365.272819 348.758697 
L 367.939752 348.907456 
L 369.273218 349.915377 
L 371.94015 348.776912 
L 373.273616 349.028892 
L 375.940548 348.737445 
L 377.274014 349.019785 
L 378.60748 349.584463 
L 379.940946 349.447847 
L 381.274413 348.455106 
L 382.607879 349.763582 
L 383.941345 347.66577 
L 385.274811 348.573506 
L 386.608277 347.996684 
L 387.941743 349.760546 
L 389.275209 349.721079 
L 390.608675 349.226226 
L 391.942141 349.116934 
L 393.275607 349.608751 
L 394.609073 351.208674 
L 395.94254 346.87947 
L 397.276006 348.889241 
L 398.609472 348.543147 
L 399.942938 348.321526 
L 401.276404 348.649404 
L 402.60987 348.588686 
L 403.943336 348.801199 
L 405.276802 351.208674 
L 406.610268 346.988763 
L 407.943734 349.693756 
L 409.277201 348.795127 
L 410.610667 349.241406 
L 411.944133 348.858882 
L 413.277599 348.011863 
L 414.611065 348.488501 
L 415.944531 351.208674 
L 417.277997 347.529154 
L 418.611463 349.693756 
L 419.944929 348.263844 
L 421.278395 348.2517 
L 422.611861 346.943224 
L 423.945328 348.758697 
L 425.278794 351.208674 
L 426.61226 347.477544 
L 427.945726 349.116934 
L 429.279192 348.883169 
L 430.612658 348.233485 
L 433.27959 349.426596 
L 434.613056 351.208674 
L 435.946522 346.42712 
L 437.279989 349.098718 
L 439.946921 347.935966 
L 442.613853 348.18491 
L 443.947319 351.208674 
L 445.280785 347.173953 
L 446.614251 347.81453 
L 447.947717 347.583801 
L 449.281183 348.178838 
L 450.61465 348.221341 
L 451.948116 347.337892 
L 453.281582 351.208674 
L 454.615048 346.791429 
L 455.948514 347.714345 
L 457.28198 347.520047 
L 458.615446 346.955368 
L 459.948912 347.192169 
L 461.282378 346.238894 
L 462.615844 351.208674 
L 463.94931 345.309906 
L 465.282777 346.758034 
L 466.616243 346.372474 
L 467.949709 343.746414 
L 470.616641 345.179362 
L 471.950107 351.208674 
L 473.283573 342.046306 
L 474.617039 345.528492 
L 475.950505 345.50724 
L 477.283971 344.517534 
L 478.617438 344.997208 
L 479.950904 340.613358 
L 481.28437 351.208674 
L 482.617836 338.891999 
L 483.951302 343.087622 
L 485.284768 340.309767 
L 486.618234 338.734132 
L 487.9517 341.053565 
L 489.285166 339.010399 
L 490.618632 351.208674 
L 491.952098 330.200197 
L 493.285565 340.774261 
L 494.619031 337.85979 
L 495.952497 332.680533 
L 497.285963 338.318212 
L 498.619429 331.28098 
L 499.952895 351.208674 
L 501.286361 323.172072 
L 502.619827 330.127335 
L 503.953293 331.110969 
L 505.286759 329.013157 
L 506.620226 323.342083 
L 507.953692 328.651884 
L 509.287158 351.208674 
L 510.620624 311.250065 
L 511.95409 327.267511 
L 513.287556 332.331404 
L 514.621022 326.973028 
L 515.954488 320.424576 
L 517.287954 327.407163 
L 518.62142 351.208674 
L 519.954886 314.950836 
L 521.288353 330.619152 
L 522.621819 336.979377 
L 523.955285 351.208674 
L 525.288751 298.48104 
L 527.955683 351.208674 
L 529.289149 318.451237 
L 530.622615 331.441883 
L 531.956081 328.642777 
L 533.289547 327.051961 
L 534.623014 322.59525 
L 535.95648 332.058172 
L 537.289946 351.208674 
L 538.623412 321.383923 
L 539.956878 330.940958 
L 541.290344 334.990858 
L 542.62381 332.076388 
L 543.957276 334.128661 
L 545.290742 336.596853 
L 546.624208 351.208674 
L 547.957674 328.072026 
L 549.291141 334.842099 
L 550.624607 337.109921 
L 551.958073 337.42262 
L 553.291539 337.48941 
L 554.625005 338.515546 
L 555.958471 351.208674 
L 557.291937 335.85002 
L 558.625403 340.540496 
L 559.958869 339.611509 
L 561.292335 351.208674 
L 562.625802 351.208674 
L 563.959268 327.294834 
L 565.292734 351.208674 
L 566.6262 340.431204 
L 567.959666 339.177374 
L 569.293132 336.690966 
L 570.626598 351.208674 
L 571.960064 351.208674 
L 573.29353 322.367557 
L 574.626996 351.208674 
L 575.960463 334.541544 
L 577.293929 342.006839 
L 578.627395 336.466309 
L 579.960861 338.309105 
L 581.294327 339.344349 
L 582.627793 342.410615 
L 583.961259 351.208674 
L 585.294725 335.637506 
L 586.628191 343.716055 
L 587.961657 341.712356 
L 589.295123 341.20536 
L 590.62859 342.097917 
L 591.962056 344.496283 
L 593.295522 351.208674 
L 594.628988 341.059636 
L 595.962454 346.518197 
L 597.29592 341.505915 
L 598.629386 343.579439 
L 599.962852 343.503542 
L 601.296318 345.665107 
L 602.629784 351.208674 
L 603.963251 341.047493 
L 605.296717 344.909166 
L 606.630183 344.939526 
L 607.963649 344.362703 
L 609.297115 344.714868 
L 610.630581 346.621418 
L 611.964047 351.208674 
L 613.297513 343.400321 
L 614.630979 346.858219 
L 615.964445 345.996021 
L 617.297911 345.485989 
L 618.631378 345.883693 
L 619.964844 347.608088 
L 621.29831 351.208674 
L 622.631776 344.748263 
L 623.965242 348.421711 
L 625.298708 347.447185 
L 626.632174 346.633562 
L 627.96564 346.548556 
L 629.299106 348.342777 
L 630.632572 351.208674 
L 631.966039 346.800537 
L 633.299505 347.796314 
L 634.632971 347.444149 
L 635.966437 347.562549 
L 637.299903 346.736783 
L 638.633369 348.710122 
L 639.966835 351.208674 
L 641.300301 346.172104 
L 642.633767 345.792615 
L 643.967233 346.47873 
L 645.300699 346.357294 
L 646.634166 347.392538 
L 647.967632 346.882506 
L 649.301098 351.208674 
L 650.634564 345.546707 
L 651.96803 346.223714 
L 653.301496 346.032452 
L 654.634962 345.662071 
L 655.968428 345.771364 
L 657.301894 346.071919 
L 658.63536 351.208674 
L 659.968827 344.277698 
L 661.302293 346.548556 
L 662.635759 343.066371 
L 663.969225 343.409428 
L 665.302691 342.270963 
L 666.636157 345.127752 
L 667.969623 351.208674 
L 669.303089 339.587221 
L 670.636555 343.382105 
L 671.970021 339.717765 
L 673.303488 341.73968 
L 674.636954 337.799072 
L 675.97042 341.326796 
L 677.303886 351.208674 
L 678.637352 333.697562 
L 679.970818 337.425656 
L 682.63775 333.469869 
L 683.971216 332.805005 
L 685.304682 335.285341 
L 686.638148 351.208674 
L 687.971615 323.162965 
L 689.305081 332.064244 
L 690.638547 329.632482 
L 691.972013 329.659806 
L 693.305479 332.534809 
L 694.638945 322.999026 
L 695.972411 351.208674 
L 697.305877 317.564752 
L 698.639343 332.540881 
L 699.972809 322.765261 
L 701.306276 325.285064 
L 702.639742 324.389471 
L 703.973208 328.320971 
L 705.306674 351.208674 
L 706.64014 319.170747 
L 707.973606 320.008657 
L 709.307072 322.825979 
L 710.640538 329.377466 
L 711.974004 321.304989 
L 713.30747 332.762503 
L 714.640936 351.208674 
L 715.974403 323.36637 
L 717.307869 331.168651 
L 718.641335 333.075201 
L 719.974801 334.47779 
L 721.308267 334.086158 
L 722.641733 335.409813 
L 723.975199 351.208674 
L 725.308665 329.714452 
L 726.642131 337.292076 
L 727.975597 336.202185 
L 729.309064 338.466972 
L 730.64253 339.480965 
L 731.975996 339.95153 
L 733.309462 351.208674 
L 734.642928 334.338138 
L 735.976394 341.736644 
L 737.30986 341.958265 
L 738.643326 338.721988 
L 741.310258 343.385141 
L 742.643724 351.208674 
L 743.977191 342.140419 
L 745.310657 343.108874 
L 746.644123 342.814391 
L 747.977589 344.013574 
L 749.311055 344.827197 
L 750.644521 346.682136 
L 751.977987 351.208674 
L 753.311453 343.388177 
L 754.644919 346.548556 
L 755.978385 345.288655 
L 757.311852 346.4423 
L 758.645318 347.386467 
L 759.978784 347.54737 
L 761.31225 351.208674 
L 762.645716 346.536413 
L 763.979182 348.254736 
L 765.312648 348.005792 
L 766.646114 349.277837 
L 767.97958 348.980318 
L 769.313046 349.481242 
L 770.646512 351.208674 
L 771.979979 351.208674 
L 773.313445 348.221341 
L 774.646911 349.699828 
L 777.313843 349.526781 
L 778.647309 349.906269 
L 779.980775 351.208674 
L 781.314241 349.806085 
L 782.647707 350.109675 
L 783.981173 350.279686 
L 785.31464 350.109675 
L 786.648106 350.20986 
L 787.981572 350.510415 
L 789.315038 351.208674 
L 790.648504 350.027706 
L 791.98197 350.540774 
L 793.315436 350.537738 
L 795.982368 350.735072 
L 797.315834 351.208674 
L 798.649301 351.208674 
L 799.982767 350.121819 
L 801.316233 350.801862 
L 802.649699 350.492199 
L 803.983165 350.67739 
L 805.316631 351.005268 
L 806.650097 351.208674 
L 807.983563 351.208674 
L 809.317029 350.140034 
L 810.650495 350.480056 
L 811.983961 350.273614 
L 814.650894 350.801862 
L 815.98436 351.208674 
L 818.651292 351.208674 
L 819.984758 349.590535 
L 821.318224 351.208674 
L 822.65169 351.208674 
L 823.985156 348.667619 
L 825.318622 351.208674 
L 827.985555 351.208674 
L 829.319021 348.952995 
L 830.652487 351.208674 
L 831.985953 351.208674 
L 833.319419 348.342777 
L 834.652885 351.208674 
L 837.319817 351.208674 
L 838.653283 347.571657 
L 839.986749 351.208674 
L 841.320216 351.208674 
L 842.653682 345.956554 
L 843.987148 351.208674 
L 846.65408 351.208674 
L 847.987546 344.927382 
L 849.321012 351.208674 
L 850.654478 351.208674 
L 851.987944 343.08155 
L 853.32141 351.208674 
L 855.988343 351.208674 
L 857.321809 342.158635 
L 858.655275 351.208674 
L 859.988741 351.208674 
L 861.322207 337.504589 
L 862.655673 351.208674 
L 863.989139 351.208674 
L 865.322605 341.85808 
L 866.656071 351.208674 
L 867.989537 341.12339 
L 869.323004 351.208674 
L 870.65647 340.197439 
L 871.989936 351.208674 
L 873.323402 351.208674 
L 874.656868 339.398995 
L 875.990334 351.208674 
L 877.3238 341.168929 
L 878.657266 351.208674 
L 879.990732 336.496668 
L 881.324198 351.208674 
L 882.657665 351.208674 
L 883.991131 338.199812 
L 885.324597 351.208674 
L 886.658063 335.437137 
L 887.991529 351.208674 
L 889.324995 337.377081 
L 890.658461 351.208674 
L 891.991927 351.208674 
L 893.325393 334.104373 
L 894.658859 351.208674 
L 895.992326 335.033361 
L 897.325792 351.208674 
L 898.659258 335.142654 
L 899.992724 351.208674 
L 902.659656 351.208674 
L 903.993122 330.236628 
L 906.660054 351.208674 
L 907.99352 329.890534 
L 909.326986 351.208674 
L 910.660453 351.208674 
L 911.993919 329.96036 
L 913.327385 351.208674 
L 914.660851 327.659143 
L 915.994317 351.208674 
L 917.327783 330.910599 
L 918.661249 351.208674 
L 919.994715 351.208674 
L 921.328181 326.305128 
L 922.661647 351.208674 
L 923.995114 327.777543 
L 925.32858 351.208674 
L 926.662046 329.693201 
L 927.995512 351.208674 
L 929.328978 351.208674 
L 930.662444 324.7386 
L 931.99591 351.208674 
L 933.329376 324.814498 
L 934.662842 351.208674 
L 935.996308 322.807763 
L 937.329774 351.208674 
L 938.663241 351.208674 
L 939.996707 321.399103 
L 941.330173 351.208674 
L 942.663639 321.851453 
L 943.997105 351.208674 
L 945.330571 320.479223 
L 946.664037 351.208674 
L 947.997503 351.208674 
L 949.330969 321.396067 
L 950.664435 351.208674 
L 951.997902 318.190149 
L 953.331368 351.208674 
L 954.664834 320.882998 
L 955.9983 351.208674 
L 957.331766 351.208674 
L 958.665232 322.850266 
L 959.998698 351.208674 
L 961.332164 324.526087 
L 962.66563 351.208674 
L 963.999096 323.345119 
L 965.332562 351.208674 
L 966.666029 351.208674 
L 967.999495 325.184879 
L 969.332961 351.208674 
L 970.666427 321.499287 
L 971.999893 351.208674 
L 973.333359 321.693586 
L 974.666825 351.208674 
L 976.000291 351.208674 
L 977.333757 319.589702 
L 978.667223 351.208674 
L 980.00069 314.844579 
L 981.334156 351.208674 
L 982.667622 314.29508 
L 984.001088 351.208674 
L 985.334554 351.208674 
L 986.66802 320.640126 
L 988.001486 351.208674 
L 989.334952 322.777404 
L 990.668418 351.208674 
L 992.001884 297.233283 
L 993.33535 351.208674 
L 994.668817 351.208674 
L 996.002283 280.875816 
L 997.335749 351.208674 
L 998.669215 296.85683 
L 1000.002681 351.208674 
L 1001.336147 289.030262 
L 1002.669613 351.208674 
L 1004.003079 351.208674 
L 1005.336545 294.218627 
L 1006.670011 351.208674 
L 1008.003478 290.372133 
L 1009.336944 351.208674 
L 1013.337342 351.208674 
L 1014.670808 266.740633 
L 1016.004274 351.208674 
L 1017.33774 290.794124 
L 1018.671206 351.208674 
L 1020.004672 283.289362 
L 1021.338139 351.208674 
L 1022.671605 351.208674 
L 1024.005071 297.102739 
L 1025.338537 351.208674 
L 1026.672003 294.610259 
L 1028.005469 351.208674 
L 1029.338935 309.349588 
L 1030.672401 351.208674 
L 1032.005867 351.208674 
L 1033.339333 297.415437 
L 1034.672799 351.208674 
L 1036.006266 307.546259 
L 1037.339732 351.208674 
L 1038.673198 307.303386 
L 1040.006664 351.208674 
L 1041.34013 351.208674 
L 1042.673596 304.999133 
L 1044.007062 351.208674 
L 1045.340528 301.978405 
L 1046.673994 351.208674 
L 1050.674393 351.208674 
L 1052.007859 243.531123 
L 1053.341325 351.208674 
L 1054.674791 262.320352 
L 1056.008257 351.208674 
L 1060.008655 351.208674 
L 1061.342121 152.183717 
L 1062.675587 351.208674 
L 1064.009054 251.460913 
L 1065.34252 351.208674 
L 1066.675986 208.763916 
L 1068.009452 351.208674 
L 1069.342918 351.208674 
L 1070.676384 201.565781 
L 1072.00985 351.208674 
L 1073.343316 242.647675 
L 1074.676782 351.208674 
L 1076.010248 219.608176 
L 1077.343715 351.208674 
L 1081.344113 351.208674 
L 1082.677579 50.8755 
L 1084.011045 351.208674 
L 1085.344511 226.120197 
L 1086.677977 351.090273 
L 1088.011443 351.208674 
L 1089.344909 217.197666 
L 1090.678375 351.208674 
L 1092.011842 244.10491 
L 1093.345308 351.208674 
L 1094.678774 255.474382 
L 1096.01224 351.208674 
L 1097.345706 351.208674 
L 1098.679172 280.517579 
L 1100.012638 351.208674 
L 1101.346104 276.692336 
L 1102.67957 351.208674 
L 1104.013036 314.656353 
L 1105.346503 351.208674 
L 1106.679969 351.208674 
L 1108.013435 317.500998 
L 1109.346901 351.208674 
L 1110.680367 318.669822 
L 1112.013833 351.208674 
L 1113.347299 326.973028 
L 1114.680765 351.208674 
L 1116.014231 351.208674 
L 1117.347697 332.240327 
L 1118.681163 351.208674 
L 1120.01463 332.070316 
L 1121.348096 351.208674 
L 1122.681562 333.694526 
L 1124.015028 351.24814 
L 1128.015426 351.208674 
L 1129.348892 329.028337 
L 1130.682358 351.208674 
L 1132.015824 328.478838 
L 1133.349291 351.208674 
L 1134.682757 351.208674 
L 1136.016223 343.788917 
L 1137.349689 351.208674 
L 1138.683155 341.736644 
L 1140.016621 351.208674 
L 1141.350087 344.2018 
L 1142.683553 351.208674 
L 1144.017019 351.208674 
L 1145.350485 345.558851 
L 1146.683952 351.208674 
L 1148.017418 344.635935 
L 1149.350884 351.208674 
L 1150.68435 345.334193 
L 1152.017816 351.208674 
L 1153.351282 351.208674 
L 1154.684748 346.509089 
L 1156.018214 351.208674 
L 1157.35168 344.851484 
L 1158.685146 351.208674 
L 1160.018612 342.073629 
L 1161.352079 351.208674 
L 1162.685545 351.208674 
L 1164.019011 345.999057 
L 1165.352477 351.208674 
L 1166.685943 345.009351 
L 1168.019409 351.208674 
L 1169.352875 345.467773 
L 1170.686341 351.208674 
L 1172.019807 351.208674 
L 1173.353273 346.81268 
L 1174.68674 351.208674 
L 1176.020206 345.182398 
L 1177.353672 351.208674 
L 1178.687138 345.182398 
L 1180.020604 351.208674 
L 1184.021002 351.208674 
L 1185.354468 339.796699 
L 1186.687934 351.208674 
L 1193.355265 351.208674 
L 1194.688731 327.756292 
L 1196.022197 351.208674 
L 1202.689528 351.208674 
L 1204.022994 319.410583 
L 1205.35646 351.208674 
L 1212.02379 351.208674 
L 1213.357256 307.242668 
L 1214.690722 351.208674 
L 1221.358053 351.208674 
L 1222.691519 293.693415 
L 1224.024985 351.208674 
L 1230.692316 351.208674 
L 1232.025782 267.09887 
L 1233.359248 351.208674 
L 1240.026578 351.208674 
L 1241.360044 262.356783 
L 1242.69351 351.208674 
L 1249.360841 351.208674 
L 1250.694307 272.37224 
L 1252.027773 351.208674 
L 1258.695104 351.208674 
L 1260.02857 291.90223 
L 1261.362036 351.208674 
L 1268.029366 351.208674 
L 1269.362832 295.187081 
L 1270.696298 351.208674 
L 1277.363629 351.208674 
L 1278.697095 303.915314 
L 1280.030561 351.208674 
L 1286.697892 351.208674 
L 1288.031358 318.782151 
L 1289.364824 351.208674 
L 1294.698688 351.208674 
L 1296.032154 307.6343 
L 1297.36562 351.208674 
L 1304.032951 351.208674 
L 1305.366417 311.43222 
L 1306.699883 351.208674 
L 1313.367213 351.208674 
L 1313.367213 351.208674 
" clip-path="url(#p9eab6b0059)" style="fill: none; stroke: #0000ff; stroke-width: 1.5; stroke-linecap: square"/>
   </g>
   <g id="line2d_19">
    <path d="M 1073.343316 334.927913 
L 1074.676782 253.493725 
L 1076.010248 334.114562 
L 1077.343715 334.904319 
L 1078.677181 215.998935 
L 1080.010647 341.904353 
L 1081.344113 261.502404 
L 1082.677579 332.60314 
L 1084.011045 236.991707 
L 1085.344511 332.960456 
L 1086.677977 333.798063 
L 1088.011443 303.923136 
L 1089.344909 330.595679 
L 1090.678375 138.750522 
L 1092.011842 336.415441 
L 1093.345308 240.696432 
L 1094.678774 337.713809 
L 1096.01224 338.405115 
L 1097.345706 254.350455 
L 1098.679172 340.205582 
L 1100.012638 229.918472 
L 1101.346104 342.874909 
L 1102.67957 263.693244 
L 1104.013036 345.597064 
L 1105.346503 345.873716 
L 1106.679969 283.915957 
L 1108.013435 347.671841 
L 1109.346901 276.734955 
L 1110.680367 349.772658 
L 1112.013833 308.496583 
L 1113.347299 350.688166 
L 1114.680765 350.716673 
L 1116.014231 315.478358 
L 1117.347697 351.513815 
L 1118.681163 314.627478 
L 1120.01463 352.305586 
L 1121.348096 327.769537 
L 1122.681562 352.527503 
L 1124.015028 352.469539 
L 1125.348494 332.502967 
L 1126.68196 353.2755 
L 1128.015426 332.761192 
L 1129.348892 353.007552 
L 1130.682358 336.61207 
L 1132.015824 352.571002 
L 1133.349291 352.485742 
L 1134.682757 347.322443 
L 1136.016223 352.26349 
L 1137.349689 334.271561 
L 1138.683155 352.559648 
L 1140.016621 335.292059 
L 1141.350087 352.914589 
L 1142.683553 352.830053 
L 1144.017019 347.195374 
L 1145.350485 352.679536 
L 1146.683952 342.584213 
L 1148.017418 352.706372 
L 1149.350884 344.211419 
L 1150.68435 352.690517 
L 1152.017816 352.620588 
L 1153.351282 347.892875 
L 1154.684748 352.491425 
L 1156.018214 346.095455 
L 1157.35168 352.374689 
L 1158.685146 346.79481 
L 1160.018612 352.103074 
L 1161.352079 352.061376 
L 1162.685545 348.133984 
L 1164.019011 351.923346 
L 1165.352477 346.623368 
L 1166.685943 351.815759 
L 1168.019409 345.137061 
L 1169.352875 351.803087 
L 1170.686341 351.775528 
L 1172.019807 347.767696 
L 1173.353273 351.705217 
L 1174.68674 346.780038 
L 1176.020206 351.608465 
L 1177.353672 346.595639 
L 1178.687138 351.524726 
L 1180.020604 351.5101 
L 1181.35407 347.956677 
L 1182.687536 351.646418 
L 1184.021002 346.916611 
L 1185.354468 351.29725 
L 1186.687934 346.559957 
L 1188.0214 351.507937 
L 1189.354867 351.494105 
L 1190.688333 350.573425 
L 1192.021799 351.510267 
L 1193.355265 343.750461 
L 1194.688731 350.757393 
L 1196.022197 349.564697 
L 1197.355663 350.854197 
L 1198.689129 350.870572 
L 1200.022595 350.653521 
L 1201.356061 350.911841 
L 1202.689528 335.502773 
L 1204.022994 350.182087 
L 1205.35646 349.918375 
L 1206.689926 350.289129 
L 1210.690324 350.413537 
L 1212.02379 328.277613 
L 1213.357256 349.478447 
L 1214.690722 349.478611 
L 1217.357655 349.710866 
L 1220.024587 349.846775 
L 1221.358053 319.034942 
L 1222.691519 348.738903 
L 1229.358849 349.26009 
L 1230.692316 308.481318 
L 1232.025782 347.438224 
L 1238.693112 348.232618 
L 1240.026578 289.701851 
L 1241.360044 347.106757 
L 1248.027375 347.970774 
L 1249.360841 282.171562 
L 1250.694307 347.667633 
L 1257.361637 348.413468 
L 1258.695104 286.465405 
L 1260.02857 348.793793 
L 1266.6959 349.302423 
L 1268.029366 299.495449 
L 1269.362832 349.191444 
L 1276.030163 349.616316 
L 1277.363629 304.800251 
L 1278.697095 349.649 
L 1285.364425 349.977501 
L 1286.697892 311.428844 
L 1288.031358 350.374108 
L 1294.698688 350.549886 
L 1296.032154 320.090616 
L 1297.36562 350.004833 
L 1302.699485 350.212358 
L 1304.032951 325.29287 
L 1305.366417 342.316911 
L 1306.699883 350.028823 
L 1312.033747 350.232211 
L 1313.367213 321.086874 
L 1313.367213 321.086874 
" clip-path="url(#p9eab6b0059)" style="fill: none; stroke: #ffa500; stroke-width: 1.5; stroke-linecap: square"/>
   </g>
   <g id="line2d_20">
    <path d="M 1313.367213 321.086874 
L 1314.70068 348.405392 
L 1316.034146 350.277324 
L 1317.367612 350.277324 
L 1318.701078 350.277324 
L 1320.034544 350.277324 
L 1321.36801 350.277324 
L 1322.701476 325.535183 
L 1324.034942 348.191266 
L 1325.368408 349.743717 
L 1326.701874 349.743717 
L 1328.035341 349.743717 
L 1329.368807 349.743717 
L 1330.702273 349.743717 
" clip-path="url(#p9eab6b0059)" style="fill: none; stroke: #ff0000; stroke-width: 1.5; stroke-linecap: square"/>
   </g>
   <g id="patch_3">
    <path d="M 52.375 368.3955 
L 52.375 35.7555 
" style="fill: none; stroke: #000000; stroke-width: 0.8; stroke-linejoin: miter; stroke-linecap: square"/>
   </g>
   <g id="patch_4">
    <path d="M 1391.575 368.3955 
L 1391.575 35.7555 
" style="fill: none; stroke: #000000; stroke-width: 0.8; stroke-linejoin: miter; stroke-linecap: square"/>
   </g>
   <g id="patch_5">
    <path d="M 52.375 368.3955 
L 1391.575 368.3955 
" style="fill: none; stroke: #000000; stroke-width: 0.8; stroke-linejoin: miter; stroke-linecap: square"/>
   </g>
   <g id="patch_6">
    <path d="M 52.375 35.7555 
L 1391.575 35.7555 
" style="fill: none; stroke: #000000; stroke-width: 0.8; stroke-linejoin: miter; stroke-linecap: square"/>
   </g>
   <g id="text_18">
    <!-- Daily Confirmed Cases Forecasting - Michigan -->
    <g transform="translate(584.574063 16.318125)scale(0.12 -0.12)">
     <defs>
      <path id="DejaVuSans-44" d="M 1259 4147 
L 1259 519 
L 2022 519 
Q 2988 519 3436 956 
Q 3884 1394 3884 2338 
Q 3884 3275 3436 3711 
Q 2988 4147 2022 4147 
L 1259 4147 
z
M 628 4666 
L 1925 4666 
Q 3281 4666 3915 4102 
Q 4550 3538 4550 2338 
Q 4550 1131 3912 565 
Q 3275 0 1925 0 
L 628 0 
L 628 4666 
z
" transform="scale(0.015625)"/>
      <path id="DejaVuSans-61" d="M 2194 1759 
Q 1497 1759 1228 1600 
Q 959 1441 959 1056 
Q 959 750 1161 570 
Q 1363 391 1709 391 
Q 2188 391 2477 730 
Q 2766 1069 2766 1631 
L 2766 1759 
L 2194 1759 
z
M 3341 1997 
L 3341 0 
L 2766 0 
L 2766 531 
Q 2569 213 2275 61 
Q 1981 -91 1556 -91 
Q 1019 -91 701 211 
Q 384 513 384 1019 
Q 384 1609 779 1909 
Q 1175 2209 1959 2209 
L 2766 2209 
L 2766 2266 
Q 2766 2663 2505 2880 
Q 2244 3097 1772 3097 
Q 1472 3097 1187 3025 
Q 903 2953 641 2809 
L 641 3341 
Q 956 3463 1253 3523 
Q 1550 3584 1831 3584 
Q 2591 3584 2966 3190 
Q 3341 2797 3341 1997 
z
" transform="scale(0.015625)"/>
      <path id="DejaVuSans-69" d="M 603 3500 
L 1178 3500 
L 1178 0 
L 603 0 
L 603 3500 
z
M 603 4863 
L 1178 4863 
L 1178 4134 
L 603 4134 
L 603 4863 
z
" transform="scale(0.015625)"/>
      <path id="DejaVuSans-6c" d="M 603 4863 
L 1178 4863 
L 1178 0 
L 603 0 
L 603 4863 
z
" transform="scale(0.015625)"/>
      <path id="DejaVuSans-79" d="M 2059 -325 
Q 1816 -950 1584 -1140 
Q 1353 -1331 966 -1331 
L 506 -1331 
L 506 -850 
L 844 -850 
Q 1081 -850 1212 -737 
Q 1344 -625 1503 -206 
L 1606 56 
L 191 3500 
L 800 3500 
L 1894 763 
L 2988 3500 
L 3597 3500 
L 2059 -325 
z
" transform="scale(0.015625)"/>
      <path id="DejaVuSans-20" transform="scale(0.015625)"/>
      <path id="DejaVuSans-43" d="M 4122 4306 
L 4122 3641 
Q 3803 3938 3442 4084 
Q 3081 4231 2675 4231 
Q 1875 4231 1450 3742 
Q 1025 3253 1025 2328 
Q 1025 1406 1450 917 
Q 1875 428 2675 428 
Q 3081 428 3442 575 
Q 3803 722 4122 1019 
L 4122 359 
Q 3791 134 3420 21 
Q 3050 -91 2638 -91 
Q 1578 -91 968 557 
Q 359 1206 359 2328 
Q 359 3453 968 4101 
Q 1578 4750 2638 4750 
Q 3056 4750 3426 4639 
Q 3797 4528 4122 4306 
z
" transform="scale(0.015625)"/>
      <path id="DejaVuSans-6f" d="M 1959 3097 
Q 1497 3097 1228 2736 
Q 959 2375 959 1747 
Q 959 1119 1226 758 
Q 1494 397 1959 397 
Q 2419 397 2687 759 
Q 2956 1122 2956 1747 
Q 2956 2369 2687 2733 
Q 2419 3097 1959 3097 
z
M 1959 3584 
Q 2709 3584 3137 3096 
Q 3566 2609 3566 1747 
Q 3566 888 3137 398 
Q 2709 -91 1959 -91 
Q 1206 -91 779 398 
Q 353 888 353 1747 
Q 353 2609 779 3096 
Q 1206 3584 1959 3584 
z
" transform="scale(0.015625)"/>
      <path id="DejaVuSans-6e" d="M 3513 2113 
L 3513 0 
L 2938 0 
L 2938 2094 
Q 2938 2591 2744 2837 
Q 2550 3084 2163 3084 
Q 1697 3084 1428 2787 
Q 1159 2491 1159 1978 
L 1159 0 
L 581 0 
L 581 3500 
L 1159 3500 
L 1159 2956 
Q 1366 3272 1645 3428 
Q 1925 3584 2291 3584 
Q 2894 3584 3203 3211 
Q 3513 2838 3513 2113 
z
" transform="scale(0.015625)"/>
      <path id="DejaVuSans-66" d="M 2375 4863 
L 2375 4384 
L 1825 4384 
Q 1516 4384 1395 4259 
Q 1275 4134 1275 3809 
L 1275 3500 
L 2222 3500 
L 2222 3053 
L 1275 3053 
L 1275 0 
L 697 0 
L 697 3053 
L 147 3053 
L 147 3500 
L 697 3500 
L 697 3744 
Q 697 4328 969 4595 
Q 1241 4863 1831 4863 
L 2375 4863 
z
" transform="scale(0.015625)"/>
      <path id="DejaVuSans-72" d="M 2631 2963 
Q 2534 3019 2420 3045 
Q 2306 3072 2169 3072 
Q 1681 3072 1420 2755 
Q 1159 2438 1159 1844 
L 1159 0 
L 581 0 
L 581 3500 
L 1159 3500 
L 1159 2956 
Q 1341 3275 1631 3429 
Q 1922 3584 2338 3584 
Q 2397 3584 2469 3576 
Q 2541 3569 2628 3553 
L 2631 2963 
z
" transform="scale(0.015625)"/>
      <path id="DejaVuSans-6d" d="M 3328 2828 
Q 3544 3216 3844 3400 
Q 4144 3584 4550 3584 
Q 5097 3584 5394 3201 
Q 5691 2819 5691 2113 
L 5691 0 
L 5113 0 
L 5113 2094 
Q 5113 2597 4934 2840 
Q 4756 3084 4391 3084 
Q 3944 3084 3684 2787 
Q 3425 2491 3425 1978 
L 3425 0 
L 2847 0 
L 2847 2094 
Q 2847 2600 2669 2842 
Q 2491 3084 2119 3084 
Q 1678 3084 1418 2786 
Q 1159 2488 1159 1978 
L 1159 0 
L 581 0 
L 581 3500 
L 1159 3500 
L 1159 2956 
Q 1356 3278 1631 3431 
Q 1906 3584 2284 3584 
Q 2666 3584 2933 3390 
Q 3200 3197 3328 2828 
z
" transform="scale(0.015625)"/>
      <path id="DejaVuSans-65" d="M 3597 1894 
L 3597 1613 
L 953 1613 
Q 991 1019 1311 708 
Q 1631 397 2203 397 
Q 2534 397 2845 478 
Q 3156 559 3463 722 
L 3463 178 
Q 3153 47 2828 -22 
Q 2503 -91 2169 -91 
Q 1331 -91 842 396 
Q 353 884 353 1716 
Q 353 2575 817 3079 
Q 1281 3584 2069 3584 
Q 2775 3584 3186 3129 
Q 3597 2675 3597 1894 
z
M 3022 2063 
Q 3016 2534 2758 2815 
Q 2500 3097 2075 3097 
Q 1594 3097 1305 2825 
Q 1016 2553 972 2059 
L 3022 2063 
z
" transform="scale(0.015625)"/>
      <path id="DejaVuSans-64" d="M 2906 2969 
L 2906 4863 
L 3481 4863 
L 3481 0 
L 2906 0 
L 2906 525 
Q 2725 213 2448 61 
Q 2172 -91 1784 -91 
Q 1150 -91 751 415 
Q 353 922 353 1747 
Q 353 2572 751 3078 
Q 1150 3584 1784 3584 
Q 2172 3584 2448 3432 
Q 2725 3281 2906 2969 
z
M 947 1747 
Q 947 1113 1208 752 
Q 1469 391 1925 391 
Q 2381 391 2643 752 
Q 2906 1113 2906 1747 
Q 2906 2381 2643 2742 
Q 2381 3103 1925 3103 
Q 1469 3103 1208 2742 
Q 947 2381 947 1747 
z
" transform="scale(0.015625)"/>
      <path id="DejaVuSans-73" d="M 2834 3397 
L 2834 2853 
Q 2591 2978 2328 3040 
Q 2066 3103 1784 3103 
Q 1356 3103 1142 2972 
Q 928 2841 928 2578 
Q 928 2378 1081 2264 
Q 1234 2150 1697 2047 
L 1894 2003 
Q 2506 1872 2764 1633 
Q 3022 1394 3022 966 
Q 3022 478 2636 193 
Q 2250 -91 1575 -91 
Q 1294 -91 989 -36 
Q 684 19 347 128 
L 347 722 
Q 666 556 975 473 
Q 1284 391 1588 391 
Q 1994 391 2212 530 
Q 2431 669 2431 922 
Q 2431 1156 2273 1281 
Q 2116 1406 1581 1522 
L 1381 1569 
Q 847 1681 609 1914 
Q 372 2147 372 2553 
Q 372 3047 722 3315 
Q 1072 3584 1716 3584 
Q 2034 3584 2315 3537 
Q 2597 3491 2834 3397 
z
" transform="scale(0.015625)"/>
      <path id="DejaVuSans-46" d="M 628 4666 
L 3309 4666 
L 3309 4134 
L 1259 4134 
L 1259 2759 
L 3109 2759 
L 3109 2228 
L 1259 2228 
L 1259 0 
L 628 0 
L 628 4666 
z
" transform="scale(0.015625)"/>
      <path id="DejaVuSans-63" d="M 3122 3366 
L 3122 2828 
Q 2878 2963 2633 3030 
Q 2388 3097 2138 3097 
Q 1578 3097 1268 2742 
Q 959 2388 959 1747 
Q 959 1106 1268 751 
Q 1578 397 2138 397 
Q 2388 397 2633 464 
Q 2878 531 3122 666 
L 3122 134 
Q 2881 22 2623 -34 
Q 2366 -91 2075 -91 
Q 1284 -91 818 406 
Q 353 903 353 1747 
Q 353 2603 823 3093 
Q 1294 3584 2113 3584 
Q 2378 3584 2631 3529 
Q 2884 3475 3122 3366 
z
" transform="scale(0.015625)"/>
      <path id="DejaVuSans-74" d="M 1172 4494 
L 1172 3500 
L 2356 3500 
L 2356 3053 
L 1172 3053 
L 1172 1153 
Q 1172 725 1289 603 
Q 1406 481 1766 481 
L 2356 481 
L 2356 0 
L 1766 0 
Q 1100 0 847 248 
Q 594 497 594 1153 
L 594 3053 
L 172 3053 
L 172 3500 
L 594 3500 
L 594 4494 
L 1172 4494 
z
" transform="scale(0.015625)"/>
      <path id="DejaVuSans-67" d="M 2906 1791 
Q 2906 2416 2648 2759 
Q 2391 3103 1925 3103 
Q 1463 3103 1205 2759 
Q 947 2416 947 1791 
Q 947 1169 1205 825 
Q 1463 481 1925 481 
Q 2391 481 2648 825 
Q 2906 1169 2906 1791 
z
M 3481 434 
Q 3481 -459 3084 -895 
Q 2688 -1331 1869 -1331 
Q 1566 -1331 1297 -1286 
Q 1028 -1241 775 -1147 
L 775 -588 
Q 1028 -725 1275 -790 
Q 1522 -856 1778 -856 
Q 2344 -856 2625 -561 
Q 2906 -266 2906 331 
L 2906 616 
Q 2728 306 2450 153 
Q 2172 0 1784 0 
Q 1141 0 747 490 
Q 353 981 353 1791 
Q 353 2603 747 3093 
Q 1141 3584 1784 3584 
Q 2172 3584 2450 3431 
Q 2728 3278 2906 2969 
L 2906 3500 
L 3481 3500 
L 3481 434 
z
" transform="scale(0.015625)"/>
      <path id="DejaVuSans-4d" d="M 628 4666 
L 1569 4666 
L 2759 1491 
L 3956 4666 
L 4897 4666 
L 4897 0 
L 4281 0 
L 4281 4097 
L 3078 897 
L 2444 897 
L 1241 4097 
L 1241 0 
L 628 0 
L 628 4666 
z
" transform="scale(0.015625)"/>
      <path id="DejaVuSans-68" d="M 3513 2113 
L 3513 0 
L 2938 0 
L 2938 2094 
Q 2938 2591 2744 2837 
Q 2550 3084 2163 3084 
Q 1697 3084 1428 2787 
Q 1159 2491 1159 1978 
L 1159 0 
L 581 0 
L 581 4863 
L 1159 4863 
L 1159 2956 
Q 1366 3272 1645 3428 
Q 1925 3584 2291 3584 
Q 2894 3584 3203 3211 
Q 3513 2838 3513 2113 
z
" transform="scale(0.015625)"/>
     </defs>
     <use xlink:href="#DejaVuSans-44"/>
     <use xlink:href="#DejaVuSans-61" x="77.001953"/>
     <use xlink:href="#DejaVuSans-69" x="138.28125"/>
     <use xlink:href="#DejaVuSans-6c" x="166.064453"/>
     <use xlink:href="#DejaVuSans-79" x="193.847656"/>
     <use xlink:href="#DejaVuSans-20" x="253.027344"/>
     <use xlink:href="#DejaVuSans-43" x="284.814453"/>
     <use xlink:href="#DejaVuSans-6f" x="354.638672"/>
     <use xlink:href="#DejaVuSans-6e" x="415.820312"/>
     <use xlink:href="#DejaVuSans-66" x="479.199219"/>
     <use xlink:href="#DejaVuSans-69" x="514.404297"/>
     <use xlink:href="#DejaVuSans-72" x="542.1875"/>
     <use xlink:href="#DejaVuSans-6d" x="581.550781"/>
     <use xlink:href="#DejaVuSans-65" x="678.962891"/>
     <use xlink:href="#DejaVuSans-64" x="740.486328"/>
     <use xlink:href="#DejaVuSans-20" x="803.962891"/>
     <use xlink:href="#DejaVuSans-43" x="835.75"/>
     <use xlink:href="#DejaVuSans-61" x="905.574219"/>
     <use xlink:href="#DejaVuSans-73" x="966.853516"/>
     <use xlink:href="#DejaVuSans-65" x="1018.953125"/>
     <use xlink:href="#DejaVuSans-73" x="1080.476562"/>
     <use xlink:href="#DejaVuSans-20" x="1132.576172"/>
     <use xlink:href="#DejaVuSans-46" x="1164.363281"/>
     <use xlink:href="#DejaVuSans-6f" x="1218.257812"/>
     <use xlink:href="#DejaVuSans-72" x="1279.439453"/>
     <use xlink:href="#DejaVuSans-65" x="1318.302734"/>
     <use xlink:href="#DejaVuSans-63" x="1379.826172"/>
     <use xlink:href="#DejaVuSans-61" x="1434.806641"/>
     <use xlink:href="#DejaVuSans-73" x="1496.085938"/>
     <use xlink:href="#DejaVuSans-74" x="1548.185547"/>
     <use xlink:href="#DejaVuSans-69" x="1587.394531"/>
     <use xlink:href="#DejaVuSans-6e" x="1615.177734"/>
     <use xlink:href="#DejaVuSans-67" x="1678.556641"/>
     <use xlink:href="#DejaVuSans-20" x="1742.033203"/>
     <use xlink:href="#DejaVuSans-2d" x="1773.820312"/>
     <use xlink:href="#DejaVuSans-20" x="1809.904297"/>
     <use xlink:href="#DejaVuSans-4d" x="1841.691406"/>
     <use xlink:href="#DejaVuSans-69" x="1927.970703"/>
     <use xlink:href="#DejaVuSans-63" x="1955.753906"/>
     <use xlink:href="#DejaVuSans-68" x="2010.734375"/>
     <use xlink:href="#DejaVuSans-69" x="2074.113281"/>
     <use xlink:href="#DejaVuSans-67" x="2101.896484"/>
     <use xlink:href="#DejaVuSans-61" x="2165.373047"/>
     <use xlink:href="#DejaVuSans-6e" x="2226.652344"/>
    </g>
    <!-- ARIMA (0, 1, 1)x(1, 0, 1, 7) (R2 = -0.810830) -->
    <g transform="translate(587.82625 29.7555)scale(0.12 -0.12)">
     <defs>
      <path id="DejaVuSans-41" d="M 2188 4044 
L 1331 1722 
L 3047 1722 
L 2188 4044 
z
M 1831 4666 
L 2547 4666 
L 4325 0 
L 3669 0 
L 3244 1197 
L 1141 1197 
L 716 0 
L 50 0 
L 1831 4666 
z
" transform="scale(0.015625)"/>
      <path id="DejaVuSans-52" d="M 2841 2188 
Q 3044 2119 3236 1894 
Q 3428 1669 3622 1275 
L 4263 0 
L 3584 0 
L 2988 1197 
Q 2756 1666 2539 1819 
Q 2322 1972 1947 1972 
L 1259 1972 
L 1259 0 
L 628 0 
L 628 4666 
L 2053 4666 
Q 2853 4666 3247 4331 
Q 3641 3997 3641 3322 
Q 3641 2881 3436 2590 
Q 3231 2300 2841 2188 
z
M 1259 4147 
L 1259 2491 
L 2053 2491 
Q 2509 2491 2742 2702 
Q 2975 2913 2975 3322 
Q 2975 3731 2742 3939 
Q 2509 4147 2053 4147 
L 1259 4147 
z
" transform="scale(0.015625)"/>
      <path id="DejaVuSans-49" d="M 628 4666 
L 1259 4666 
L 1259 0 
L 628 0 
L 628 4666 
z
" transform="scale(0.015625)"/>
      <path id="DejaVuSans-28" d="M 1984 4856 
Q 1566 4138 1362 3434 
Q 1159 2731 1159 2009 
Q 1159 1288 1364 580 
Q 1569 -128 1984 -844 
L 1484 -844 
Q 1016 -109 783 600 
Q 550 1309 550 2009 
Q 550 2706 781 3412 
Q 1013 4119 1484 4856 
L 1984 4856 
z
" transform="scale(0.015625)"/>
      <path id="DejaVuSans-2c" d="M 750 794 
L 1409 794 
L 1409 256 
L 897 -744 
L 494 -744 
L 750 256 
L 750 794 
z
" transform="scale(0.015625)"/>
      <path id="DejaVuSans-29" d="M 513 4856 
L 1013 4856 
Q 1481 4119 1714 3412 
Q 1947 2706 1947 2009 
Q 1947 1309 1714 600 
Q 1481 -109 1013 -844 
L 513 -844 
Q 928 -128 1133 580 
Q 1338 1288 1338 2009 
Q 1338 2731 1133 3434 
Q 928 4138 513 4856 
z
" transform="scale(0.015625)"/>
      <path id="DejaVuSans-78" d="M 3513 3500 
L 2247 1797 
L 3578 0 
L 2900 0 
L 1881 1375 
L 863 0 
L 184 0 
L 1544 1831 
L 300 3500 
L 978 3500 
L 1906 2253 
L 2834 3500 
L 3513 3500 
z
" transform="scale(0.015625)"/>
      <path id="DejaVuSans-3d" d="M 678 2906 
L 4684 2906 
L 4684 2381 
L 678 2381 
L 678 2906 
z
M 678 1631 
L 4684 1631 
L 4684 1100 
L 678 1100 
L 678 1631 
z
" transform="scale(0.015625)"/>
      <path id="DejaVuSans-2e" d="M 684 794 
L 1344 794 
L 1344 0 
L 684 0 
L 684 794 
z
" transform="scale(0.015625)"/>
      <path id="DejaVuSans-33" d="M 2597 2516 
Q 3050 2419 3304 2112 
Q 3559 1806 3559 1356 
Q 3559 666 3084 287 
Q 2609 -91 1734 -91 
Q 1441 -91 1130 -33 
Q 819 25 488 141 
L 488 750 
Q 750 597 1062 519 
Q 1375 441 1716 441 
Q 2309 441 2620 675 
Q 2931 909 2931 1356 
Q 2931 1769 2642 2001 
Q 2353 2234 1838 2234 
L 1294 2234 
L 1294 2753 
L 1863 2753 
Q 2328 2753 2575 2939 
Q 2822 3125 2822 3475 
Q 2822 3834 2567 4026 
Q 2313 4219 1838 4219 
Q 1578 4219 1281 4162 
Q 984 4106 628 3988 
L 628 4550 
Q 988 4650 1302 4700 
Q 1616 4750 1894 4750 
Q 2613 4750 3031 4423 
Q 3450 4097 3450 3541 
Q 3450 3153 3228 2886 
Q 3006 2619 2597 2516 
z
" transform="scale(0.015625)"/>
     </defs>
     <use xlink:href="#DejaVuSans-41"/>
     <use xlink:href="#DejaVuSans-52" x="68.408203"/>
     <use xlink:href="#DejaVuSans-49" x="137.890625"/>
     <use xlink:href="#DejaVuSans-4d" x="167.382812"/>
     <use xlink:href="#DejaVuSans-41" x="253.662109"/>
     <use xlink:href="#DejaVuSans-20" x="322.070312"/>
     <use xlink:href="#DejaVuSans-28" x="353.857422"/>
     <use xlink:href="#DejaVuSans-30" x="392.871094"/>
     <use xlink:href="#DejaVuSans-2c" x="456.494141"/>
     <use xlink:href="#DejaVuSans-20" x="488.28125"/>
     <use xlink:href="#DejaVuSans-31" x="520.068359"/>
     <use xlink:href="#DejaVuSans-2c" x="583.691406"/>
     <use xlink:href="#DejaVuSans-20" x="615.478516"/>
     <use xlink:href="#DejaVuSans-31" x="647.265625"/>
     <use xlink:href="#DejaVuSans-29" x="710.888672"/>
     <use xlink:href="#DejaVuSans-78" x="749.902344"/>
     <use xlink:href="#DejaVuSans-28" x="809.082031"/>
     <use xlink:href="#DejaVuSans-31" x="848.095703"/>
     <use xlink:href="#DejaVuSans-2c" x="911.71875"/>
     <use xlink:href="#DejaVuSans-20" x="943.505859"/>
     <use xlink:href="#DejaVuSans-30" x="975.292969"/>
     <use xlink:href="#DejaVuSans-2c" x="1038.916016"/>
     <use xlink:href="#DejaVuSans-20" x="1070.703125"/>
     <use xlink:href="#DejaVuSans-31" x="1102.490234"/>
     <use xlink:href="#DejaVuSans-2c" x="1166.113281"/>
     <use xlink:href="#DejaVuSans-20" x="1197.900391"/>
     <use xlink:href="#DejaVuSans-37" x="1229.6875"/>
     <use xlink:href="#DejaVuSans-29" x="1293.310547"/>
     <use xlink:href="#DejaVuSans-20" x="1332.324219"/>
     <use xlink:href="#DejaVuSans-28" x="1364.111328"/>
     <use xlink:href="#DejaVuSans-52" x="1403.125"/>
     <use xlink:href="#DejaVuSans-32" x="1472.607422"/>
     <use xlink:href="#DejaVuSans-20" x="1536.230469"/>
     <use xlink:href="#DejaVuSans-3d" x="1568.017578"/>
     <use xlink:href="#DejaVuSans-20" x="1651.806641"/>
     <use xlink:href="#DejaVuSans-2d" x="1683.59375"/>
     <use xlink:href="#DejaVuSans-30" x="1719.677734"/>
     <use xlink:href="#DejaVuSans-2e" x="1783.300781"/>
     <use xlink:href="#DejaVuSans-38" x="1815.087891"/>
     <use xlink:href="#DejaVuSans-31" x="1878.710938"/>
     <use xlink:href="#DejaVuSans-30" x="1942.333984"/>
     <use xlink:href="#DejaVuSans-38" x="2005.957031"/>
     <use xlink:href="#DejaVuSans-33" x="2069.580078"/>
     <use xlink:href="#DejaVuSans-30" x="2133.203125"/>
     <use xlink:href="#DejaVuSans-29" x="2196.826172"/>
    </g>
   </g>
   <g id="legend_1">
    <g id="patch_7">
     <path d="M 1287.495312 87.789875 
L 1384.575 87.789875 
Q 1386.575 87.789875 1386.575 85.789875 
L 1386.575 42.7555 
Q 1386.575 40.7555 1384.575 40.7555 
L 1287.495312 40.7555 
Q 1285.495312 40.7555 1285.495312 42.7555 
L 1285.495312 85.789875 
Q 1285.495312 87.789875 1287.495312 87.789875 
z
" style="fill: #ffffff; opacity: 0.8; stroke: #cccccc; stroke-linejoin: miter"/>
    </g>
    <g id="line2d_21">
     <path d="M 1289.495312 48.853937 
L 1299.495312 48.853937 
L 1309.495312 48.853937 
" style="fill: none; stroke: #0000ff; stroke-width: 1.5; stroke-linecap: square"/>
    </g>
    <g id="text_19">
     <!-- Actual Value -->
     <g transform="translate(1317.495312 52.353937)scale(0.1 -0.1)">
      <defs>
       <path id="DejaVuSans-75" d="M 544 1381 
L 544 3500 
L 1119 3500 
L 1119 1403 
Q 1119 906 1312 657 
Q 1506 409 1894 409 
Q 2359 409 2629 706 
Q 2900 1003 2900 1516 
L 2900 3500 
L 3475 3500 
L 3475 0 
L 2900 0 
L 2900 538 
Q 2691 219 2414 64 
Q 2138 -91 1772 -91 
Q 1169 -91 856 284 
Q 544 659 544 1381 
z
M 1991 3584 
L 1991 3584 
z
" transform="scale(0.015625)"/>
       <path id="DejaVuSans-56" d="M 1831 0 
L 50 4666 
L 709 4666 
L 2188 738 
L 3669 4666 
L 4325 4666 
L 2547 0 
L 1831 0 
z
" transform="scale(0.015625)"/>
      </defs>
      <use xlink:href="#DejaVuSans-41"/>
      <use xlink:href="#DejaVuSans-63" x="66.658203"/>
      <use xlink:href="#DejaVuSans-74" x="121.638672"/>
      <use xlink:href="#DejaVuSans-75" x="160.847656"/>
      <use xlink:href="#DejaVuSans-61" x="224.226562"/>
      <use xlink:href="#DejaVuSans-6c" x="285.505859"/>
      <use xlink:href="#DejaVuSans-20" x="313.289062"/>
      <use xlink:href="#DejaVuSans-56" x="345.076172"/>
      <use xlink:href="#DejaVuSans-61" x="405.734375"/>
      <use xlink:href="#DejaVuSans-6c" x="467.013672"/>
      <use xlink:href="#DejaVuSans-75" x="494.796875"/>
      <use xlink:href="#DejaVuSans-65" x="558.175781"/>
     </g>
    </g>
    <g id="line2d_22">
     <path d="M 1289.495312 63.532062 
L 1299.495312 63.532062 
L 1309.495312 63.532062 
" style="fill: none; stroke: #ffa500; stroke-width: 1.5; stroke-linecap: square"/>
    </g>
    <g id="text_20">
     <!-- Check Value -->
     <g transform="translate(1317.495312 67.032062)scale(0.1 -0.1)">
      <defs>
       <path id="DejaVuSans-6b" d="M 581 4863 
L 1159 4863 
L 1159 1991 
L 2875 3500 
L 3609 3500 
L 1753 1863 
L 3688 0 
L 2938 0 
L 1159 1709 
L 1159 0 
L 581 0 
L 581 4863 
z
" transform="scale(0.015625)"/>
      </defs>
      <use xlink:href="#DejaVuSans-43"/>
      <use xlink:href="#DejaVuSans-68" x="69.824219"/>
      <use xlink:href="#DejaVuSans-65" x="133.203125"/>
      <use xlink:href="#DejaVuSans-63" x="194.726562"/>
      <use xlink:href="#DejaVuSans-6b" x="249.707031"/>
      <use xlink:href="#DejaVuSans-20" x="307.617188"/>
      <use xlink:href="#DejaVuSans-56" x="339.404297"/>
      <use xlink:href="#DejaVuSans-61" x="400.0625"/>
      <use xlink:href="#DejaVuSans-6c" x="461.341797"/>
      <use xlink:href="#DejaVuSans-75" x="489.125"/>
      <use xlink:href="#DejaVuSans-65" x="552.503906"/>
     </g>
    </g>
    <g id="line2d_23">
     <path d="M 1289.495312 78.210187 
L 1299.495312 78.210187 
L 1309.495312 78.210187 
" style="fill: none; stroke: #ff0000; stroke-width: 1.5; stroke-linecap: square"/>
    </g>
    <g id="text_21">
     <!-- Predict Value -->
     <g transform="translate(1317.495312 81.710187)scale(0.1 -0.1)">
      <defs>
       <path id="DejaVuSans-50" d="M 1259 4147 
L 1259 2394 
L 2053 2394 
Q 2494 2394 2734 2622 
Q 2975 2850 2975 3272 
Q 2975 3691 2734 3919 
Q 2494 4147 2053 4147 
L 1259 4147 
z
M 628 4666 
L 2053 4666 
Q 2838 4666 3239 4311 
Q 3641 3956 3641 3272 
Q 3641 2581 3239 2228 
Q 2838 1875 2053 1875 
L 1259 1875 
L 1259 0 
L 628 0 
L 628 4666 
z
" transform="scale(0.015625)"/>
      </defs>
      <use xlink:href="#DejaVuSans-50"/>
      <use xlink:href="#DejaVuSans-72" x="58.552734"/>
      <use xlink:href="#DejaVuSans-65" x="97.416016"/>
      <use xlink:href="#DejaVuSans-64" x="158.939453"/>
      <use xlink:href="#DejaVuSans-69" x="222.416016"/>
      <use xlink:href="#DejaVuSans-63" x="250.199219"/>
      <use xlink:href="#DejaVuSans-74" x="305.179688"/>
      <use xlink:href="#DejaVuSans-20" x="344.388672"/>
      <use xlink:href="#DejaVuSans-56" x="376.175781"/>
      <use xlink:href="#DejaVuSans-61" x="436.833984"/>
      <use xlink:href="#DejaVuSans-6c" x="498.113281"/>
      <use xlink:href="#DejaVuSans-75" x="525.896484"/>
      <use xlink:href="#DejaVuSans-65" x="589.275391"/>
     </g>
    </g>
   </g>
  </g>
 </g>
 <defs>
  <clipPath id="p9eab6b0059">
   <rect x="52.375" y="35.7555" width="1339.2" height="332.64"/>
  </clipPath>
 </defs>
</svg>
