<?xml version="1.0" encoding="utf-8" standalone="no"?>
<!DOCTYPE svg PUBLIC "-//W3C//DTD SVG 1.1//EN"
  "http://www.w3.org/Graphics/SVG/1.1/DTD/svg11.dtd">
<svg xmlns:xlink="http://www.w3.org/1999/xlink" width="1400.792188pt" height="392.273625pt" viewBox="0 0 1400.792188 392.273625" xmlns="http://www.w3.org/2000/svg" version="1.1">
 <metadata>
  <rdf:RDF xmlns:dc="http://purl.org/dc/elements/1.1/" xmlns:cc="http://creativecommons.org/ns#" xmlns:rdf="http://www.w3.org/1999/02/22-rdf-syntax-ns#">
   <cc:Work>
    <dc:type rdf:resource="http://purl.org/dc/dcmitype/StillImage"/>
    <dc:date>2022-06-29T17:51:01.868763</dc:date>
    <dc:format>image/svg+xml</dc:format>
    <dc:creator>
     <cc:Agent>
      <dc:title>Matplotlib v3.5.2, https://matplotlib.org/</dc:title>
     </cc:Agent>
    </dc:creator>
   </cc:Work>
  </rdf:RDF>
 </metadata>
 <defs>
  <style type="text/css">*{stroke-linejoin: round; stroke-linecap: butt}</style>
 </defs>
 <g id="figure_1">
  <g id="patch_1">
   <path d="M 0 392.273625 
L 1400.792188 392.273625 
L 1400.792188 0 
L 0 0 
z
" style="fill: #ffffff"/>
  </g>
  <g id="axes_1">
   <g id="patch_2">
    <path d="M 54.392188 368.3955 
L 1393.592188 368.3955 
L 1393.592188 35.7555 
L 54.392188 35.7555 
z
" style="fill: #ffffff"/>
   </g>
   <g id="matplotlib.axis_1">
    <g id="xtick_1">
     <g id="line2d_1">
      <defs>
       <path id="m89b90bbbc4" d="M 0 0 
L 0 3.5 
" style="stroke: #000000; stroke-width: 0.8"/>
      </defs>
      <g>
       <use xlink:href="#m89b90bbbc4" x="85.504915" y="368.3955" style="stroke: #000000; stroke-width: 0.8"/>
      </g>
     </g>
     <g id="text_1">
      <!-- 2020-01 -->
      <g transform="translate(64.613509 382.993937)scale(0.1 -0.1)">
       <defs>
        <path id="DejaVuSans-32" d="M 1228 531 
L 3431 531 
L 3431 0 
L 469 0 
L 469 531 
Q 828 903 1448 1529 
Q 2069 2156 2228 2338 
Q 2531 2678 2651 2914 
Q 2772 3150 2772 3378 
Q 2772 3750 2511 3984 
Q 2250 4219 1831 4219 
Q 1534 4219 1204 4116 
Q 875 4013 500 3803 
L 500 4441 
Q 881 4594 1212 4672 
Q 1544 4750 1819 4750 
Q 2544 4750 2975 4387 
Q 3406 4025 3406 3419 
Q 3406 3131 3298 2873 
Q 3191 2616 2906 2266 
Q 2828 2175 2409 1742 
Q 1991 1309 1228 531 
z
" transform="scale(0.015625)"/>
        <path id="DejaVuSans-30" d="M 2034 4250 
Q 1547 4250 1301 3770 
Q 1056 3291 1056 2328 
Q 1056 1369 1301 889 
Q 1547 409 2034 409 
Q 2525 409 2770 889 
Q 3016 1369 3016 2328 
Q 3016 3291 2770 3770 
Q 2525 4250 2034 4250 
z
M 2034 4750 
Q 2819 4750 3233 4129 
Q 3647 3509 3647 2328 
Q 3647 1150 3233 529 
Q 2819 -91 2034 -91 
Q 1250 -91 836 529 
Q 422 1150 422 2328 
Q 422 3509 836 4129 
Q 1250 4750 2034 4750 
z
" transform="scale(0.015625)"/>
        <path id="DejaVuSans-2d" d="M 313 2009 
L 1997 2009 
L 1997 1497 
L 313 1497 
L 313 2009 
z
" transform="scale(0.015625)"/>
        <path id="DejaVuSans-31" d="M 794 531 
L 1825 531 
L 1825 4091 
L 703 3866 
L 703 4441 
L 1819 4666 
L 2450 4666 
L 2450 531 
L 3481 531 
L 3481 0 
L 794 0 
L 794 531 
z
" transform="scale(0.015625)"/>
       </defs>
       <use xlink:href="#DejaVuSans-32"/>
       <use xlink:href="#DejaVuSans-30" x="63.623047"/>
       <use xlink:href="#DejaVuSans-32" x="127.246094"/>
       <use xlink:href="#DejaVuSans-30" x="190.869141"/>
       <use xlink:href="#DejaVuSans-2d" x="254.492188"/>
       <use xlink:href="#DejaVuSans-30" x="290.576172"/>
       <use xlink:href="#DejaVuSans-31" x="354.199219"/>
      </g>
     </g>
    </g>
    <g id="xtick_2">
     <g id="line2d_2">
      <g>
       <use xlink:href="#m89b90bbbc4" x="208.603097" y="368.3955" style="stroke: #000000; stroke-width: 0.8"/>
      </g>
     </g>
     <g id="text_2">
      <!-- 2020-04 -->
      <g transform="translate(187.71169 382.993937)scale(0.1 -0.1)">
       <defs>
        <path id="DejaVuSans-34" d="M 2419 4116 
L 825 1625 
L 2419 1625 
L 2419 4116 
z
M 2253 4666 
L 3047 4666 
L 3047 1625 
L 3713 1625 
L 3713 1100 
L 3047 1100 
L 3047 0 
L 2419 0 
L 2419 1100 
L 313 1100 
L 313 1709 
L 2253 4666 
z
" transform="scale(0.015625)"/>
       </defs>
       <use xlink:href="#DejaVuSans-32"/>
       <use xlink:href="#DejaVuSans-30" x="63.623047"/>
       <use xlink:href="#DejaVuSans-32" x="127.246094"/>
       <use xlink:href="#DejaVuSans-30" x="190.869141"/>
       <use xlink:href="#DejaVuSans-2d" x="254.492188"/>
       <use xlink:href="#DejaVuSans-30" x="290.576172"/>
       <use xlink:href="#DejaVuSans-34" x="354.199219"/>
      </g>
     </g>
    </g>
    <g id="xtick_3">
     <g id="line2d_3">
      <g>
       <use xlink:href="#m89b90bbbc4" x="331.701278" y="368.3955" style="stroke: #000000; stroke-width: 0.8"/>
      </g>
     </g>
     <g id="text_3">
      <!-- 2020-07 -->
      <g transform="translate(310.809872 382.993937)scale(0.1 -0.1)">
       <defs>
        <path id="DejaVuSans-37" d="M 525 4666 
L 3525 4666 
L 3525 4397 
L 1831 0 
L 1172 0 
L 2766 4134 
L 525 4134 
L 525 4666 
z
" transform="scale(0.015625)"/>
       </defs>
       <use xlink:href="#DejaVuSans-32"/>
       <use xlink:href="#DejaVuSans-30" x="63.623047"/>
       <use xlink:href="#DejaVuSans-32" x="127.246094"/>
       <use xlink:href="#DejaVuSans-30" x="190.869141"/>
       <use xlink:href="#DejaVuSans-2d" x="254.492188"/>
       <use xlink:href="#DejaVuSans-30" x="290.576172"/>
       <use xlink:href="#DejaVuSans-37" x="354.199219"/>
      </g>
     </g>
    </g>
    <g id="xtick_4">
     <g id="line2d_4">
      <g>
       <use xlink:href="#m89b90bbbc4" x="456.152188" y="368.3955" style="stroke: #000000; stroke-width: 0.8"/>
      </g>
     </g>
     <g id="text_4">
      <!-- 2020-10 -->
      <g transform="translate(435.260781 382.993937)scale(0.1 -0.1)">
       <use xlink:href="#DejaVuSans-32"/>
       <use xlink:href="#DejaVuSans-30" x="63.623047"/>
       <use xlink:href="#DejaVuSans-32" x="127.246094"/>
       <use xlink:href="#DejaVuSans-30" x="190.869141"/>
       <use xlink:href="#DejaVuSans-2d" x="254.492188"/>
       <use xlink:href="#DejaVuSans-31" x="290.576172"/>
       <use xlink:href="#DejaVuSans-30" x="354.199219"/>
      </g>
     </g>
    </g>
    <g id="xtick_5">
     <g id="line2d_5">
      <g>
       <use xlink:href="#m89b90bbbc4" x="580.603097" y="368.3955" style="stroke: #000000; stroke-width: 0.8"/>
      </g>
     </g>
     <g id="text_5">
      <!-- 2021-01 -->
      <g transform="translate(559.71169 382.993937)scale(0.1 -0.1)">
       <use xlink:href="#DejaVuSans-32"/>
       <use xlink:href="#DejaVuSans-30" x="63.623047"/>
       <use xlink:href="#DejaVuSans-32" x="127.246094"/>
       <use xlink:href="#DejaVuSans-31" x="190.869141"/>
       <use xlink:href="#DejaVuSans-2d" x="254.492188"/>
       <use xlink:href="#DejaVuSans-30" x="290.576172"/>
       <use xlink:href="#DejaVuSans-31" x="354.199219"/>
      </g>
     </g>
    </g>
    <g id="xtick_6">
     <g id="line2d_6">
      <g>
       <use xlink:href="#m89b90bbbc4" x="702.348551" y="368.3955" style="stroke: #000000; stroke-width: 0.8"/>
      </g>
     </g>
     <g id="text_6">
      <!-- 2021-04 -->
      <g transform="translate(681.457145 382.993937)scale(0.1 -0.1)">
       <use xlink:href="#DejaVuSans-32"/>
       <use xlink:href="#DejaVuSans-30" x="63.623047"/>
       <use xlink:href="#DejaVuSans-32" x="127.246094"/>
       <use xlink:href="#DejaVuSans-31" x="190.869141"/>
       <use xlink:href="#DejaVuSans-2d" x="254.492188"/>
       <use xlink:href="#DejaVuSans-30" x="290.576172"/>
       <use xlink:href="#DejaVuSans-34" x="354.199219"/>
      </g>
     </g>
    </g>
    <g id="xtick_7">
     <g id="line2d_7">
      <g>
       <use xlink:href="#m89b90bbbc4" x="825.446733" y="368.3955" style="stroke: #000000; stroke-width: 0.8"/>
      </g>
     </g>
     <g id="text_7">
      <!-- 2021-07 -->
      <g transform="translate(804.555327 382.993937)scale(0.1 -0.1)">
       <use xlink:href="#DejaVuSans-32"/>
       <use xlink:href="#DejaVuSans-30" x="63.623047"/>
       <use xlink:href="#DejaVuSans-32" x="127.246094"/>
       <use xlink:href="#DejaVuSans-31" x="190.869141"/>
       <use xlink:href="#DejaVuSans-2d" x="254.492188"/>
       <use xlink:href="#DejaVuSans-30" x="290.576172"/>
       <use xlink:href="#DejaVuSans-37" x="354.199219"/>
      </g>
     </g>
    </g>
    <g id="xtick_8">
     <g id="line2d_8">
      <g>
       <use xlink:href="#m89b90bbbc4" x="949.897642" y="368.3955" style="stroke: #000000; stroke-width: 0.8"/>
      </g>
     </g>
     <g id="text_8">
      <!-- 2021-10 -->
      <g transform="translate(929.006236 382.993937)scale(0.1 -0.1)">
       <use xlink:href="#DejaVuSans-32"/>
       <use xlink:href="#DejaVuSans-30" x="63.623047"/>
       <use xlink:href="#DejaVuSans-32" x="127.246094"/>
       <use xlink:href="#DejaVuSans-31" x="190.869141"/>
       <use xlink:href="#DejaVuSans-2d" x="254.492188"/>
       <use xlink:href="#DejaVuSans-31" x="290.576172"/>
       <use xlink:href="#DejaVuSans-30" x="354.199219"/>
      </g>
     </g>
    </g>
    <g id="xtick_9">
     <g id="line2d_9">
      <g>
       <use xlink:href="#m89b90bbbc4" x="1074.348551" y="368.3955" style="stroke: #000000; stroke-width: 0.8"/>
      </g>
     </g>
     <g id="text_9">
      <!-- 2022-01 -->
      <g transform="translate(1053.457145 382.993937)scale(0.1 -0.1)">
       <use xlink:href="#DejaVuSans-32"/>
       <use xlink:href="#DejaVuSans-30" x="63.623047"/>
       <use xlink:href="#DejaVuSans-32" x="127.246094"/>
       <use xlink:href="#DejaVuSans-32" x="190.869141"/>
       <use xlink:href="#DejaVuSans-2d" x="254.492188"/>
       <use xlink:href="#DejaVuSans-30" x="290.576172"/>
       <use xlink:href="#DejaVuSans-31" x="354.199219"/>
      </g>
     </g>
    </g>
    <g id="xtick_10">
     <g id="line2d_10">
      <g>
       <use xlink:href="#m89b90bbbc4" x="1196.094006" y="368.3955" style="stroke: #000000; stroke-width: 0.8"/>
      </g>
     </g>
     <g id="text_10">
      <!-- 2022-04 -->
      <g transform="translate(1175.202599 382.993937)scale(0.1 -0.1)">
       <use xlink:href="#DejaVuSans-32"/>
       <use xlink:href="#DejaVuSans-30" x="63.623047"/>
       <use xlink:href="#DejaVuSans-32" x="127.246094"/>
       <use xlink:href="#DejaVuSans-32" x="190.869141"/>
       <use xlink:href="#DejaVuSans-2d" x="254.492188"/>
       <use xlink:href="#DejaVuSans-30" x="290.576172"/>
       <use xlink:href="#DejaVuSans-34" x="354.199219"/>
      </g>
     </g>
    </g>
    <g id="xtick_11">
     <g id="line2d_11">
      <g>
       <use xlink:href="#m89b90bbbc4" x="1319.192188" y="368.3955" style="stroke: #000000; stroke-width: 0.8"/>
      </g>
     </g>
     <g id="text_11">
      <!-- 2022-07 -->
      <g transform="translate(1298.300781 382.993937)scale(0.1 -0.1)">
       <use xlink:href="#DejaVuSans-32"/>
       <use xlink:href="#DejaVuSans-30" x="63.623047"/>
       <use xlink:href="#DejaVuSans-32" x="127.246094"/>
       <use xlink:href="#DejaVuSans-32" x="190.869141"/>
       <use xlink:href="#DejaVuSans-2d" x="254.492188"/>
       <use xlink:href="#DejaVuSans-30" x="290.576172"/>
       <use xlink:href="#DejaVuSans-37" x="354.199219"/>
      </g>
     </g>
    </g>
   </g>
   <g id="matplotlib.axis_2">
    <g id="ytick_1">
     <g id="line2d_12">
      <defs>
       <path id="m2a64f4a919" d="M 0 0 
L -3.5 0 
" style="stroke: #000000; stroke-width: 0.8"/>
      </defs>
      <g>
       <use xlink:href="#m2a64f4a919" x="54.392188" y="366.412721" style="stroke: #000000; stroke-width: 0.8"/>
      </g>
     </g>
     <g id="text_12">
      <!-- −10000 -->
      <g transform="translate(7.2 370.211939)scale(0.1 -0.1)">
       <defs>
        <path id="DejaVuSans-2212" d="M 678 2272 
L 4684 2272 
L 4684 1741 
L 678 1741 
L 678 2272 
z
" transform="scale(0.015625)"/>
       </defs>
       <use xlink:href="#DejaVuSans-2212"/>
       <use xlink:href="#DejaVuSans-31" x="83.789062"/>
       <use xlink:href="#DejaVuSans-30" x="147.412109"/>
       <use xlink:href="#DejaVuSans-30" x="211.035156"/>
       <use xlink:href="#DejaVuSans-30" x="274.658203"/>
       <use xlink:href="#DejaVuSans-30" x="338.28125"/>
      </g>
     </g>
    </g>
    <g id="ytick_2">
     <g id="line2d_13">
      <g>
       <use xlink:href="#m2a64f4a919" x="54.392188" y="322.854297" style="stroke: #000000; stroke-width: 0.8"/>
      </g>
     </g>
     <g id="text_13">
      <!-- −5000 -->
      <g transform="translate(13.5625 326.653516)scale(0.1 -0.1)">
       <defs>
        <path id="DejaVuSans-35" d="M 691 4666 
L 3169 4666 
L 3169 4134 
L 1269 4134 
L 1269 2991 
Q 1406 3038 1543 3061 
Q 1681 3084 1819 3084 
Q 2600 3084 3056 2656 
Q 3513 2228 3513 1497 
Q 3513 744 3044 326 
Q 2575 -91 1722 -91 
Q 1428 -91 1123 -41 
Q 819 9 494 109 
L 494 744 
Q 775 591 1075 516 
Q 1375 441 1709 441 
Q 2250 441 2565 725 
Q 2881 1009 2881 1497 
Q 2881 1984 2565 2268 
Q 2250 2553 1709 2553 
Q 1456 2553 1204 2497 
Q 953 2441 691 2322 
L 691 4666 
z
" transform="scale(0.015625)"/>
       </defs>
       <use xlink:href="#DejaVuSans-2212"/>
       <use xlink:href="#DejaVuSans-35" x="83.789062"/>
       <use xlink:href="#DejaVuSans-30" x="147.412109"/>
       <use xlink:href="#DejaVuSans-30" x="211.035156"/>
       <use xlink:href="#DejaVuSans-30" x="274.658203"/>
      </g>
     </g>
    </g>
    <g id="ytick_3">
     <g id="line2d_14">
      <g>
       <use xlink:href="#m2a64f4a919" x="54.392188" y="279.295873" style="stroke: #000000; stroke-width: 0.8"/>
      </g>
     </g>
     <g id="text_14">
      <!-- 0 -->
      <g transform="translate(41.029688 283.095092)scale(0.1 -0.1)">
       <use xlink:href="#DejaVuSans-30"/>
      </g>
     </g>
    </g>
    <g id="ytick_4">
     <g id="line2d_15">
      <g>
       <use xlink:href="#m2a64f4a919" x="54.392188" y="235.73745" style="stroke: #000000; stroke-width: 0.8"/>
      </g>
     </g>
     <g id="text_15">
      <!-- 5000 -->
      <g transform="translate(21.942188 239.536669)scale(0.1 -0.1)">
       <use xlink:href="#DejaVuSans-35"/>
       <use xlink:href="#DejaVuSans-30" x="63.623047"/>
       <use xlink:href="#DejaVuSans-30" x="127.246094"/>
       <use xlink:href="#DejaVuSans-30" x="190.869141"/>
      </g>
     </g>
    </g>
    <g id="ytick_5">
     <g id="line2d_16">
      <g>
       <use xlink:href="#m2a64f4a919" x="54.392188" y="192.179026" style="stroke: #000000; stroke-width: 0.8"/>
      </g>
     </g>
     <g id="text_16">
      <!-- 10000 -->
      <g transform="translate(15.579688 195.978245)scale(0.1 -0.1)">
       <use xlink:href="#DejaVuSans-31"/>
       <use xlink:href="#DejaVuSans-30" x="63.623047"/>
       <use xlink:href="#DejaVuSans-30" x="127.246094"/>
       <use xlink:href="#DejaVuSans-30" x="190.869141"/>
       <use xlink:href="#DejaVuSans-30" x="254.492188"/>
      </g>
     </g>
    </g>
    <g id="ytick_6">
     <g id="line2d_17">
      <g>
       <use xlink:href="#m2a64f4a919" x="54.392188" y="148.620603" style="stroke: #000000; stroke-width: 0.8"/>
      </g>
     </g>
     <g id="text_17">
      <!-- 15000 -->
      <g transform="translate(15.579688 152.419821)scale(0.1 -0.1)">
       <use xlink:href="#DejaVuSans-31"/>
       <use xlink:href="#DejaVuSans-35" x="63.623047"/>
       <use xlink:href="#DejaVuSans-30" x="127.246094"/>
       <use xlink:href="#DejaVuSans-30" x="190.869141"/>
       <use xlink:href="#DejaVuSans-30" x="254.492188"/>
      </g>
     </g>
    </g>
    <g id="ytick_7">
     <g id="line2d_18">
      <g>
       <use xlink:href="#m2a64f4a919" x="54.392188" y="105.062179" style="stroke: #000000; stroke-width: 0.8"/>
      </g>
     </g>
     <g id="text_18">
      <!-- 20000 -->
      <g transform="translate(15.579688 108.861398)scale(0.1 -0.1)">
       <use xlink:href="#DejaVuSans-32"/>
       <use xlink:href="#DejaVuSans-30" x="63.623047"/>
       <use xlink:href="#DejaVuSans-30" x="127.246094"/>
       <use xlink:href="#DejaVuSans-30" x="190.869141"/>
       <use xlink:href="#DejaVuSans-30" x="254.492188"/>
      </g>
     </g>
    </g>
    <g id="ytick_8">
     <g id="line2d_19">
      <g>
       <use xlink:href="#m2a64f4a919" x="54.392188" y="61.503755" style="stroke: #000000; stroke-width: 0.8"/>
      </g>
     </g>
     <g id="text_19">
      <!-- 25000 -->
      <g transform="translate(15.579688 65.302974)scale(0.1 -0.1)">
       <use xlink:href="#DejaVuSans-32"/>
       <use xlink:href="#DejaVuSans-35" x="63.623047"/>
       <use xlink:href="#DejaVuSans-30" x="127.246094"/>
       <use xlink:href="#DejaVuSans-30" x="190.869141"/>
       <use xlink:href="#DejaVuSans-30" x="254.492188"/>
      </g>
     </g>
    </g>
   </g>
   <g id="line2d_20">
    <path d="M 115.264915 279.295873 
L 188.312188 279.217468 
L 191.017642 279.095505 
L 192.370369 278.903848 
L 193.723097 279.165198 
L 195.075824 278.886424 
L 196.428551 278.337588 
L 197.781278 278.65992 
L 199.134006 278.442128 
L 200.486733 277.457708 
L 203.192188 278.050102 
L 204.544915 278.511822 
L 205.897642 276.264207 
L 207.250369 277.039547 
L 208.603097 277.117952 
L 209.955824 277.414149 
L 211.308551 278.102373 
L 212.661278 276.22936 
L 214.014006 278.520533 
L 215.366733 275.558561 
L 216.71946 276.717215 
L 218.072188 277.710347 
L 219.424915 277.318321 
L 220.777642 275.837335 
L 222.130369 277.492555 
L 223.483097 278.355011 
L 224.835824 277.597095 
L 226.188551 277.788752 
L 227.541278 278.093661 
L 228.894006 276.630098 
L 230.246733 277.379303 
L 231.59946 277.658077 
L 232.952188 278.111084 
L 234.304915 277.875869 
L 235.657642 277.300898 
L 237.010369 277.51869 
L 238.363097 276.935007 
L 239.715824 277.248627 
L 241.068551 277.867157 
L 243.774006 277.83231 
L 245.126733 278.067526 
L 246.47946 277.509978 
L 247.832188 277.300898 
L 249.184915 276.542981 
L 250.537642 277.440285 
L 251.890369 277.814887 
L 253.243097 276.856602 
L 254.595824 277.483843 
L 255.948551 277.074394 
L 258.654006 278.111084 
L 260.006733 277.936851 
L 261.35946 278.433417 
L 264.064915 278.180778 
L 265.417642 277.597095 
L 266.770369 277.858445 
L 268.123097 277.457708 
L 270.828551 278.363723 
L 272.181278 278.032679 
L 273.534006 278.154643 
L 274.886733 277.649365 
L 276.23946 277.971697 
L 277.592188 277.431573 
L 278.944915 278.032679 
L 280.297642 277.318321 
L 281.650369 278.172066 
L 283.003097 277.745193 
L 284.355824 277.88458 
L 285.708551 277.483843 
L 287.061278 277.910715 
L 289.766733 277.902004 
L 291.11946 277.335744 
L 292.472188 276.90016 
L 293.824915 277.083105 
L 295.177642 276.882737 
L 296.530369 277.875869 
L 297.883097 276.813043 
L 299.235824 278.485687 
L 300.588551 277.553536 
L 301.941278 277.492555 
L 303.294006 277.588383 
L 304.646733 277.509978 
L 305.99946 278.851577 
L 307.352188 277.318321 
L 308.704915 278.956118 
L 310.057642 276.246784 
L 311.410369 276.987277 
L 312.763097 277.379303 
L 314.115824 276.569116 
L 315.468551 276.630098 
L 316.821278 275.715371 
L 318.174006 275.541137 
L 319.526733 277.62323 
L 320.87946 275.253652 
L 322.232188 276.264207 
L 323.584915 275.027148 
L 324.937642 274.687392 
L 327.643097 277.501266 
L 328.995824 274.460888 
L 330.348551 274.783221 
L 331.701278 276.142243 
L 333.054006 274.443465 
L 334.406733 274.434753 
L 335.75946 275.323345 
L 337.112188 277.0047 
L 338.464915 275.288498 
L 339.817642 272.561741 
L 341.170369 272.683705 
L 342.523097 272.387507 
L 343.875824 273.284811 
L 345.228551 274.513158 
L 346.581278 276.752061 
L 347.934006 275.236228 
L 349.286733 270.749711 
L 350.63946 272.134869 
L 351.992188 272.012905 
L 353.344915 271.429222 
L 354.697642 271.15916 
L 357.403097 273.702972 
L 358.755824 269.55621 
L 360.108551 268.075223 
L 361.461278 265.818897 
L 362.814006 265.313619 
L 364.166733 267.343442 
L 365.51946 269.077067 
L 366.872188 267.979395 
L 368.224915 264.416316 
L 369.577642 263.858768 
L 370.930369 260.853237 
L 372.283097 266.428715 
L 374.988551 274.426042 
L 376.341278 269.983082 
L 377.694006 268.475961 
L 379.046733 269.277436 
L 380.39946 269.791425 
L 381.752188 269.669462 
L 383.104915 277.989121 
L 384.457642 267.596081 
L 385.810369 270.427378 
L 387.163097 269.538786 
L 388.515824 265.583682 
L 389.868551 266.24577 
L 391.221278 267.23019 
L 392.574006 268.963815 
L 393.926733 269.077067 
L 395.27946 269.922101 
L 396.632188 271.699284 
L 397.984915 268.258169 
L 399.337642 269.530075 
L 400.690369 267.979395 
L 402.043097 267.726756 
L 403.395824 272.230697 
L 404.748551 271.838671 
L 406.101278 271.917076 
L 407.454006 266.916569 
L 408.806733 265.906014 
L 410.15946 266.24577 
L 411.512188 266.123806 
L 412.864915 268.275592 
L 415.570369 269.233878 
L 416.923097 265.966996 
L 418.275824 265.966996 
L 419.628551 265.078404 
L 420.981278 262.36907 
L 422.334006 267.787738 
L 423.686733 271.05462 
L 425.03946 272.065175 
L 426.392188 266.376445 
L 427.744915 267.822585 
L 429.097642 265.209079 
L 430.450369 261.428208 
L 433.155824 267.474117 
L 434.508551 266.1935 
L 435.861278 267.700621 
L 437.214006 264.111407 
L 438.566733 262.464898 
L 439.91946 266.437427 
L 441.272188 267.12565 
L 442.624915 266.167364 
L 443.977642 268.101358 
L 445.330369 264.991287 
L 446.683097 266.899146 
L 448.035824 261.916062 
L 449.388551 261.227839 
L 450.741278 265.966996 
L 452.094006 268.031665 
L 453.446733 275.279787 
L 454.79946 276.760773 
L 456.152188 277.170222 
L 457.504915 243.072688 
L 458.857642 264.895459 
L 460.210369 266.533255 
L 461.563097 267.543811 
L 462.915824 269.512651 
L 464.268551 268.388844 
L 466.974006 260.92293 
L 468.326733 238.350955 
L 469.67946 276.856602 
L 471.032188 276.978565 
L 472.384915 276.299054 
L 473.737642 239.439916 
L 475.090369 262.229683 
L 476.443097 258.474947 
L 477.795824 259.790411 
L 480.501278 265.975707 
L 481.854006 265.557547 
L 483.206733 265.932149 
L 484.55946 261.158146 
L 485.912188 260.469923 
L 487.264915 255.791748 
L 488.617642 261.69827 
L 489.970369 263.013735 
L 491.323097 262.978888 
L 492.675824 257.856417 
L 494.028551 273.02346 
L 495.381278 230.736943 
L 496.734006 254.005853 
L 498.086733 256.793592 
L 499.43946 252.577136 
L 500.792188 257.568932 
L 502.144915 252.664253 
L 503.497642 243.534408 
L 504.850369 239.195989 
L 506.203097 238.655864 
L 507.555824 244.283612 
L 508.908551 248.195159 
L 510.261278 237.270706 
L 511.614006 241.138694 
L 512.966733 231.285779 
L 514.31946 237.070338 
L 515.672188 196.238671 
L 517.024915 271.899653 
L 518.377642 238.446784 
L 519.730369 227.417791 
L 521.083097 236.05107 
L 522.435824 236.277574 
L 523.788551 235.293154 
L 525.141278 235.693891 
L 526.494006 241.53072 
L 527.846733 244.47527 
L 529.19946 240.85992 
L 530.552188 235.824567 
L 531.904915 240.223967 
L 533.257642 249.33639 
L 534.610369 256.087945 
L 535.963097 249.824244 
L 537.315824 241.042866 
L 538.668551 246.18276 
L 540.021278 248.735283 
L 541.374006 236.112052 
L 542.726733 237.261995 
L 544.07946 232.967134 
L 545.432188 244.884719 
L 546.784915 249.371236 
L 548.137642 244.78889 
L 549.490369 247.202027 
L 550.843097 235.937819 
L 552.195824 257.873841 
L 553.548551 211.344733 
L 554.901278 251.531734 
L 556.254006 247.498224 
L 558.95946 245.51196 
L 560.312188 240.80765 
L 561.664915 240.406913 
L 563.017642 250.155288 
L 564.370369 256.044387 
L 565.723097 245.651347 
L 567.075824 252.429038 
L 568.428551 246.113066 
L 569.781278 247.811845 
L 571.134006 262.917906 
L 572.486733 260.478634 
L 573.83946 263.658399 
L 575.192188 258.204885 
L 576.544915 240.110715 
L 577.897642 241.983728 
L 579.250369 232.810324 
L 580.603097 242.157961 
L 581.955824 249.954919 
L 583.308551 251.261672 
L 584.661278 258.300713 
L 586.014006 242.576122 
L 587.366733 245.903986 
L 588.71946 228.132149 
L 590.072188 232.723207 
L 591.424915 241.53072 
L 592.777642 253.674809 
L 594.130369 256.183774 
L 595.483097 251.026456 
L 596.835824 254.35432 
L 598.188551 248.108042 
L 599.541278 243.246922 
L 600.894006 254.650517 
L 602.246733 260.156302 
L 603.59946 264.686378 
L 604.952188 258.701451 
L 606.304915 257.272734 
L 607.657642 253.169531 
L 609.010369 256.776168 
L 610.363097 259.624889 
L 611.715824 259.537772 
L 613.068551 264.163677 
L 614.421278 260.14759 
L 615.774006 260.304401 
L 617.126733 256.070522 
L 618.47946 257.699607 
L 619.832188 265.810185 
L 621.184915 268.867987 
L 622.537642 264.947729 
L 623.890369 263.771651 
L 625.243097 265.113251 
L 626.595824 260.104032 
L 627.948551 260.208572 
L 629.301278 268.894122 
L 630.654006 272.282967 
L 633.35946 269.686885 
L 634.712188 266.759759 
L 636.064915 267.238902 
L 637.417642 269.86983 
L 640.123097 274.4696 
L 641.475824 273.598432 
L 642.828551 272.500759 
L 644.181278 270.976214 
L 645.534006 269.965659 
L 648.23946 272.404931 
L 649.592188 274.26052 
L 650.944915 271.10689 
L 652.297642 268.667618 
L 653.650369 271.551186 
L 655.003097 270.984926 
L 656.355824 273.145424 
L 657.708551 273.74653 
L 659.061278 276.717215 
L 660.414006 274.338925 
L 661.766733 273.633278 
L 663.11946 273.241252 
L 664.472188 272.727263 
L 665.824915 273.85107 
L 667.177642 273.824935 
L 668.530369 276.02028 
L 671.235824 273.441621 
L 672.588551 278.990964 
L 673.941278 275.1404 
L 675.294006 271.978058 
L 676.646733 272.76211 
L 677.99946 274.966166 
L 679.352188 275.811199 
L 680.704915 273.467756 
L 682.057642 272.587876 
L 683.410369 273.067019 
L 684.763097 273.702972 
L 686.115824 273.668125 
L 687.468551 275.758929 
L 688.821278 276.603963 
L 690.174006 274.861626 
L 691.526733 271.951923 
L 692.87946 268.545654 
L 695.584915 274.103709 
L 696.937642 275.584696 
L 698.290369 276.360036 
L 699.643097 274.391195 
L 700.995824 273.197694 
L 702.348551 273.197694 
L 703.701278 272.753398 
L 705.054006 274.41733 
L 706.406733 274.617699 
L 707.75946 276.447152 
L 709.112188 274.277943 
L 710.464915 272.544318 
L 711.817642 272.396219 
L 713.170369 272.518183 
L 714.523097 273.459045 
L 715.875824 275.114265 
L 717.228551 276.368747 
L 718.581278 273.511315 
L 719.934006 272.100022 
L 721.286733 272.718551 
L 722.63946 271.917076 
L 723.992188 353.2755 
L 725.344915 275.994145 
L 726.697642 275.941875 
L 728.050369 273.572296 
L 729.403097 273.040884 
L 730.755824 272.24812 
L 732.108551 271.995482 
L 733.461278 272.457201 
L 734.814006 275.950586 
L 736.166733 276.821755 
L 737.51946 274.321501 
L 738.872188 272.300391 
L 740.224915 272.343949 
L 741.577642 273.511315 
L 742.930369 270.148604 
L 744.283097 272.439777 
L 745.635824 276.185802 
L 746.988551 274.513158 
L 748.341278 274.034016 
L 749.694006 273.676837 
L 752.39946 274.643834 
L 753.752188 276.342612 
L 755.104915 277.144087 
L 756.457642 275.724083 
L 757.810369 274.608987 
L 759.163097 273.729107 
L 760.515824 275.19267 
L 761.868551 275.29721 
L 763.221278 276.752061 
L 764.574006 277.579671 
L 765.926733 275.567272 
L 767.27946 275.375615 
L 768.632188 274.36506 
L 769.984915 274.347636 
L 771.337642 274.608987 
L 772.690369 276.908872 
L 774.043097 277.501266 
L 775.395824 275.210093 
L 776.748551 275.384327 
L 778.101278 273.293523 
L 779.454006 273.946899 
L 780.806733 275.166535 
L 782.15946 277.170222 
L 783.512188 277.814887 
L 784.864915 277.719058 
L 786.217642 275.044571 
L 787.570369 273.929476 
L 788.923097 273.293523 
L 790.275824 274.879049 
L 791.628551 282.710854 
L 792.981278 272.753398 
L 794.334006 272.988614 
L 795.686733 273.859782 
L 797.03946 273.415486 
L 798.392188 273.676837 
L 799.744915 274.460888 
L 801.097642 275.776353 
L 802.450369 276.595251 
L 805.155824 271.786401 
L 806.508551 272.666281 
L 807.861278 271.289835 
L 809.214006 273.929476 
L 810.566733 275.009724 
L 811.91946 275.549849 
L 813.272188 272.457201 
L 814.624915 271.969347 
L 815.977642 268.510808 
L 817.330369 271.533762 
L 818.683097 272.422354 
L 821.388551 275.445309 
L 822.741278 271.167872 
L 824.094006 267.752891 
L 825.446733 268.092647 
L 826.79946 269.077067 
L 828.152188 277.300898 
L 829.504915 268.336574 
L 832.210369 272.622723 
L 833.563097 264.843188 
L 834.915824 264.790918 
L 836.268551 260.635445 
L 838.974006 269.756579 
L 840.326733 277.440285 
L 841.67946 259.37225 
L 843.032188 259.651024 
L 844.384915 254.781193 
L 845.737642 258.962801 
L 847.090369 258.431388 
L 848.443097 267.404424 
L 849.795824 270.261856 
L 851.148551 260.861948 
L 852.501278 253.770637 
L 853.854006 250.738971 
L 855.206733 254.981561 
L 856.55946 251.087438 
L 857.912188 265.958284 
L 859.264915 269.381976 
L 860.617642 257.159482 
L 861.970369 254.598247 
L 863.323097 252.472596 
L 864.675824 244.823737 
L 866.028551 255.382299 
L 867.381278 262.52588 
L 868.734006 268.83314 
L 870.086733 256.06181 
L 871.43946 241.312928 
L 872.792188 244.030974 
L 874.144915 251.71468 
L 875.497642 256.087945 
L 876.850369 263.318644 
L 878.203097 268.67633 
L 879.555824 257.934822 
L 880.908551 243.543119 
L 882.261278 247.646323 
L 883.614006 254.484995 
L 884.966733 250.93934 
L 886.31946 264.825765 
L 887.672188 267.569946 
L 889.024915 260.417653 
L 890.377642 252.402903 
L 891.730369 250.137865 
L 893.083097 255.443281 
L 894.435824 257.673472 
L 895.788551 264.198524 
L 897.141278 266.698777 
L 898.494006 259.21544 
L 899.846733 255.826595 
L 901.19946 254.014564 
L 902.552188 255.042543 
L 903.904915 257.952246 
L 905.257642 269.111914 
L 906.610369 260.452499 
L 907.963097 267.082091 
L 909.315824 252.437749 
L 910.668551 252.254804 
L 912.021278 255.425857 
L 913.374006 257.255311 
L 914.726733 266.263193 
L 916.07946 269.164184 
L 917.432188 269.582345 
L 918.784915 256.976537 
L 920.137642 257.359851 
L 921.490369 251.784373 
L 922.843097 255.399722 
L 924.195824 264.773495 
L 925.548551 267.169208 
L 926.901278 259.982068 
L 928.254006 256.540953 
L 929.606733 255.905 
L 930.95946 257.098501 
L 932.312188 260.112744 
L 933.664915 267.221478 
L 935.017642 270.218298 
L 936.370369 261.811522 
L 937.723097 260.905507 
L 939.075824 260.792255 
L 940.428551 262.133854 
L 941.781278 260.992624 
L 943.134006 269.538786 
L 944.486733 272.413642 
L 945.83946 265.365889 
L 947.192188 261.733117 
L 948.544915 261.80281 
L 949.897642 263.771651 
L 951.250369 264.555703 
L 952.603097 270.401243 
L 953.955824 272.70984 
L 955.308551 268.78087 
L 956.661278 262.290665 
L 958.014006 266.210923 
L 959.366733 265.670798 
L 960.71946 268.319151 
L 962.072188 272.561741 
L 963.424915 272.86665 
L 964.777642 270.601612 
L 966.130369 267.535099 
L 967.483097 266.463562 
L 968.835824 266.994975 
L 970.188551 270.418667 
L 971.541278 273.206406 
L 972.894006 275.697948 
L 974.246733 270.453513 
L 975.59946 269.007374 
L 976.952188 268.197187 
L 978.304915 270.113758 
L 979.657642 269.260013 
L 981.010369 274.452177 
L 982.363097 274.809356 
L 983.715824 270.444802 
L 985.068551 268.432403 
L 986.421278 268.920257 
L 987.774006 270.113758 
L 989.126733 269.86983 
L 990.47946 272.875362 
L 991.832188 275.288498 
L 993.184915 268.928969 
L 994.537642 267.979395 
L 997.243097 269.312283 
L 998.595824 266.550679 
L 999.948551 272.831803 
L 1001.301278 273.476468 
L 1002.654006 266.472273 
L 1004.006733 264.668955 
L 1005.35946 278.433417 
L 1006.712188 251.157132 
L 1008.064915 264.886747 
L 1009.417642 270.897809 
L 1010.770369 272.884073 
L 1012.123097 265.365889 
L 1013.475824 264.947729 
L 1014.828551 182.700713 
L 1016.181278 264.425028 
L 1017.534006 265.5227 
L 1018.886733 271.82996 
L 1021.592188 262.438763 
L 1022.944915 261.759252 
L 1024.297642 278.485687 
L 1025.650369 279.295873 
L 1027.003097 273.206406 
L 1028.355824 277.448996 
L 1029.708551 230.545286 
L 1031.061278 255.878865 
L 1032.414006 252.106705 
L 1033.766733 234.099653 
L 1035.11946 275.175246 
L 1036.472188 237.715002 
L 1037.824915 266.29804 
L 1039.177642 251.444617 
L 1040.530369 257.751877 
L 1041.883097 245.877851 
L 1043.235824 250.643142 
L 1044.588551 247.707305 
L 1045.941278 259.328692 
L 1047.294006 263.893615 
L 1048.646733 265.688222 
L 1049.99946 273.128001 
L 1051.352188 233.280755 
L 1052.704915 243.377597 
L 1054.057642 251.653698 
L 1055.410369 249.658722 
L 1056.763097 263.841345 
L 1058.115824 265.313619 
L 1059.468551 254.929291 
L 1060.821278 246.783866 
L 1062.174006 231.791057 
L 1063.526733 276.84789 
L 1064.87946 279.295873 
L 1066.232188 259.799123 
L 1067.584915 219.899607 
L 1068.937642 234.953398 
L 1070.290369 199.836597 
L 1071.643097 202.302004 
L 1072.995824 274.67868 
L 1074.348551 279.295873 
L 1075.701278 227.713988 
L 1077.054006 261.402073 
L 1078.406733 50.8755 
L 1079.75946 170.748282 
L 1081.112188 168.988521 
L 1082.464915 168.439685 
L 1083.817642 160.302972 
L 1085.170369 212.442405 
L 1086.523097 216.040331 
L 1087.875824 169.075638 
L 1089.228551 164.650102 
L 1090.581278 144.918137 
L 1091.934006 192.771421 
L 1093.286733 103.276284 
L 1094.63946 279.034523 
L 1095.992188 279.287162 
L 1097.344915 68.7693 
L 1098.697642 152.575707 
L 1100.050369 140.353214 
L 1101.403097 146.852131 
L 1102.755824 187.056556 
L 1104.108551 219.65568 
L 1105.461278 217.190273 
L 1106.814006 196.639409 
L 1108.166733 188.886009 
L 1109.51946 195.724682 
L 1110.872188 198.024567 
L 1112.224915 203.390964 
L 1113.577642 251.793085 
L 1114.930369 244.754043 
L 1116.283097 234.517814 
L 1117.635824 195.515601 
L 1118.988551 239.457339 
L 1120.341278 255.12966 
L 1121.694006 255.95727 
L 1123.046733 261.994468 
L 1125.752188 251.374924 
L 1127.104915 239.195989 
L 1128.457642 222.365014 
L 1129.810369 273.276099 
L 1131.163097 277.579671 
L 1132.515824 279.295873 
L 1133.868551 217.808803 
L 1135.221278 263.170545 
L 1136.574006 261.820234 
L 1137.926733 262.839501 
L 1139.27946 270.653882 
L 1140.632188 277.248627 
L 1141.984915 279.295873 
L 1143.337642 278.642497 
L 1144.690369 250.181423 
L 1146.043097 268.16234 
L 1147.395824 267.988107 
L 1148.748551 269.338418 
L 1150.101278 278.738326 
L 1151.454006 279.295873 
L 1152.806733 265.78405 
L 1154.15946 272.744686 
L 1155.512188 273.067019 
L 1156.864915 272.239409 
L 1158.217642 273.7988 
L 1159.570369 278.598939 
L 1160.923097 279.295873 
L 1162.275824 270.340261 
L 1163.628551 272.570453 
L 1164.981278 275.86347 
L 1166.334006 274.103709 
L 1167.686733 275.994145 
L 1169.03946 279.295873 
L 1170.392188 279.295873 
L 1171.744915 270.453513 
L 1173.097642 274.41733 
L 1174.450369 276.238072 
L 1175.803097 278.886424 
L 1177.155824 279.295873 
L 1179.861278 279.295873 
L 1181.214006 265.853744 
L 1182.566733 292.738003 
L 1183.91946 255.913712 
L 1185.272188 272.979902 
L 1186.624915 274.086286 
L 1187.977642 279.295873 
L 1189.330369 279.295873 
L 1190.683097 272.230697 
L 1192.035824 274.948743 
L 1193.388551 273.790089 
L 1194.741278 274.225673 
L 1196.094006 278.625074 
L 1197.446733 279.295873 
L 1198.79946 279.295873 
L 1200.152188 277.88458 
L 1201.504915 278.738326 
L 1202.857642 277.544825 
L 1204.210369 245.520672 
L 1205.563097 278.468263 
L 1206.915824 279.295873 
L 1208.268551 279.295873 
L 1209.621278 277.239916 
L 1210.974006 278.084949 
L 1212.326733 278.433417 
L 1213.67946 263.222815 
L 1215.032188 277.814887 
L 1216.384915 279.295873 
L 1217.737642 279.295873 
L 1219.090369 276.403594 
L 1220.443097 277.6755 
L 1221.795824 277.579671 
L 1223.148551 258.753721 
L 1224.501278 277.483843 
L 1225.854006 279.295873 
L 1227.206733 279.295873 
L 1228.55946 274.704816 
L 1229.912188 277.178934 
L 1231.264915 276.752061 
L 1232.617642 251.836643 
L 1233.970369 277.222492 
L 1235.323097 279.295873 
L 1236.675824 279.295873 
L 1238.028551 276.307765 
L 1239.381278 276.255495 
L 1240.734006 277.448996 
L 1242.086733 274.478312 
L 1243.43946 248.526203 
L 1244.792188 279.295873 
L 1246.144915 279.295873 
L 1247.497642 271.856095 
L 1248.850369 276.055127 
L 1250.203097 275.34948 
L 1251.555824 275.602119 
L 1252.908551 244.89343 
L 1254.261278 279.295873 
L 1255.614006 279.295873 
L 1256.966733 270.958791 
L 1258.31946 274.034016 
L 1259.672188 265.592393 
L 1261.024915 275.114265 
L 1262.377642 233.298178 
L 1263.730369 279.295873 
L 1265.083097 279.295873 
L 1266.435824 271.464069 
L 1267.788551 275.1404 
L 1269.141278 275.183958 
L 1270.494006 275.497579 
L 1271.846733 220.439731 
L 1273.19946 279.295873 
L 1275.904915 279.295873 
L 1277.257642 267.622216 
L 1278.610369 275.706659 
L 1279.963097 271.394375 
L 1281.315824 218.645124 
L 1282.668551 279.295873 
L 1284.021278 279.295873 
L 1285.374006 273.380639 
L 1286.726733 270.157316 
L 1288.07946 273.720395 
L 1289.432188 275.122976 
L 1290.784915 208.940308 
L 1292.137642 279.295873 
L 1293.490369 279.295873 
L 1294.843097 271.516339 
L 1296.195824 274.643834 
L 1297.548551 274.722239 
L 1298.901278 274.530582 
L 1300.254006 205.708273 
L 1301.606733 279.295873 
L 1304.312188 279.295873 
L 1305.664915 266.733624 
L 1307.017642 275.288498 
L 1308.370369 274.487023 
L 1309.723097 199.340031 
L 1311.075824 279.295873 
L 1312.428551 279.295873 
L 1313.781278 267.787738 
L 1315.134006 272.86665 
L 1315.134006 272.86665 
" clip-path="url(#pf42e9ee08c)" style="fill: none; stroke: #0000ff; stroke-width: 1.5; stroke-linecap: square"/>
   </g>
   <g id="line2d_21">
    <path d="M 1075.701278 233.004059 
L 1077.054006 242.583725 
L 1078.406733 191.17659 
L 1079.75946 186.433858 
L 1081.112188 213.608222 
L 1082.464915 206.604799 
L 1083.817642 180.139745 
L 1085.170369 191.006277 
L 1086.523097 130.731768 
L 1087.875824 169.30772 
L 1089.228551 167.476371 
L 1090.581278 176.576434 
L 1091.934006 177.731128 
L 1093.286733 172.356478 
L 1094.63946 195.770007 
L 1095.992188 167.751958 
L 1097.344915 161.564627 
L 1098.697642 153.175617 
L 1100.050369 171.890283 
L 1101.403097 137.884377 
L 1102.755824 206.86745 
L 1104.108551 210.811617 
L 1105.461278 125.68662 
L 1106.814006 171.272576 
L 1108.166733 167.745262 
L 1109.51946 184.485873 
L 1110.872188 186.809624 
L 1112.224915 226.816189 
L 1113.577642 231.430693 
L 1114.930369 189.067862 
L 1116.283097 209.487901 
L 1117.635824 205.975261 
L 1118.988551 218.120142 
L 1120.341278 226.712954 
L 1121.694006 263.994586 
L 1123.046733 261.334333 
L 1124.39946 237.247586 
L 1125.752188 232.783976 
L 1127.104915 247.56624 
L 1128.457642 250.368716 
L 1129.810369 255.670549 
L 1131.163097 275.835278 
L 1132.515824 273.756603 
L 1133.868551 251.229896 
L 1135.221278 246.448372 
L 1136.574006 250.034752 
L 1137.926733 271.986578 
L 1139.27946 273.53458 
L 1140.632188 281.90069 
L 1141.984915 260.662545 
L 1143.337642 273.157477 
L 1144.690369 265.261392 
L 1146.043097 266.436316 
L 1147.395824 277.889119 
L 1148.748551 279.16811 
L 1150.101278 283.14213 
L 1151.454006 272.991593 
L 1152.806733 266.630637 
L 1154.15946 271.918188 
L 1155.512188 272.358364 
L 1156.864915 277.722445 
L 1158.217642 281.253005 
L 1159.570369 282.730204 
L 1160.923097 273.602656 
L 1162.275824 272.976538 
L 1163.628551 274.838029 
L 1164.981278 274.867986 
L 1166.334006 277.611905 
L 1167.686733 280.728836 
L 1169.03946 281.558495 
L 1170.392188 274.519536 
L 1171.744915 274.455466 
L 1173.097642 276.35537 
L 1174.450369 275.701442 
L 1175.803097 278.18681 
L 1177.155824 280.965638 
L 1178.508551 281.139014 
L 1179.861278 275.044787 
L 1181.214006 274.880305 
L 1182.566733 279.679711 
L 1183.91946 275.750296 
L 1185.272188 276.193758 
L 1187.977642 277.599817 
L 1189.330369 271.097551 
L 1190.683097 280.550086 
L 1192.035824 268.427464 
L 1193.388551 275.110951 
L 1194.741278 275.724679 
L 1196.094006 278.434593 
L 1197.446733 278.693786 
L 1198.79946 273.532245 
L 1200.152188 279.322078 
L 1201.504915 273.928434 
L 1202.857642 277.269059 
L 1204.210369 273.015405 
L 1205.563097 275.219121 
L 1206.915824 276.032188 
L 1208.268551 273.856948 
L 1209.621278 276.974099 
L 1210.974006 274.457732 
L 1212.326733 266.216507 
L 1213.67946 276.892105 
L 1215.032188 277.850677 
L 1216.384915 278.142753 
L 1217.737642 276.467247 
L 1219.090369 277.824504 
L 1220.443097 276.695931 
L 1221.795824 268.036252 
L 1223.148551 275.911729 
L 1224.501278 277.02759 
L 1225.854006 277.464588 
L 1227.206733 276.050682 
L 1228.55946 276.808745 
L 1229.912188 276.359385 
L 1231.264915 266.532081 
L 1232.617642 273.983299 
L 1233.970369 275.534652 
L 1235.323097 276.249006 
L 1236.675824 274.584414 
L 1238.028551 276.145661 
L 1239.381278 275.800114 
L 1240.734006 263.798248 
L 1242.086733 278.423686 
L 1243.43946 273.851198 
L 1244.792188 274.881513 
L 1246.144915 273.771084 
L 1247.497642 273.941623 
L 1248.850369 274.557325 
L 1250.203097 268.293148 
L 1251.555824 267.030902 
L 1252.908551 273.100894 
L 1254.261278 274.272034 
L 1255.614006 271.994035 
L 1256.966733 273.36881 
L 1258.31946 273.366464 
L 1259.672188 269.128671 
L 1261.024915 259.330324 
L 1262.377642 269.895077 
L 1263.730369 271.67147 
L 1265.083097 269.029906 
L 1266.435824 271.164294 
L 1267.788551 269.177028 
L 1269.141278 272.106497 
L 1270.494006 254.608523 
L 1271.846733 269.643076 
L 1273.19946 271.466896 
L 1274.552188 268.644713 
L 1275.904915 272.568729 
L 1277.257642 270.431489 
L 1278.610369 272.324978 
L 1279.963097 246.601345 
L 1281.315824 269.562861 
L 1282.668551 271.401754 
L 1284.021278 270.98234 
L 1285.374006 268.576435 
L 1286.726733 270.908932 
L 1288.07946 270.468671 
L 1289.432188 243.242041 
L 1290.784915 268.574893 
L 1292.137642 270.600404 
L 1293.490369 269.515289 
L 1294.843097 267.599312 
L 1296.195824 270.965586 
L 1297.548551 271.689317 
L 1298.901278 238.716421 
L 1300.254006 268.962556 
L 1301.606733 270.914811 
L 1302.95946 268.815086 
L 1304.312188 270.769565 
L 1305.664915 270.936179 
L 1307.017642 271.703785 
L 1308.370369 235.48083 
L 1309.723097 268.235951 
L 1311.075824 270.325474 
L 1312.428551 270.38401 
L 1313.781278 265.891565 
L 1315.134006 270.339663 
L 1315.134006 270.339663 
" clip-path="url(#pf42e9ee08c)" style="fill: none; stroke: #ffa500; stroke-width: 1.5; stroke-linecap: square"/>
   </g>
   <g id="line2d_22">
    <path d="M 1315.134006 270.339663 
L 1316.486733 270.06078 
L 1317.83946 229.863928 
L 1319.192188 272.847499 
L 1320.544915 272.847501 
L 1321.897642 268.464918 
L 1323.250369 268.300456 
L 1324.603097 268.888355 
L 1325.955824 268.675872 
L 1327.308551 238.049581 
L 1328.661278 270.799094 
L 1330.014006 270.799096 
L 1331.366733 267.459972 
L 1332.71946 267.334667 
" clip-path="url(#pf42e9ee08c)" style="fill: none; stroke: #ff0000; stroke-width: 1.5; stroke-linecap: square"/>
   </g>
   <g id="patch_3">
    <path d="M 54.392188 368.3955 
L 54.392188 35.7555 
" style="fill: none; stroke: #000000; stroke-width: 0.8; stroke-linejoin: miter; stroke-linecap: square"/>
   </g>
   <g id="patch_4">
    <path d="M 1393.592188 368.3955 
L 1393.592188 35.7555 
" style="fill: none; stroke: #000000; stroke-width: 0.8; stroke-linejoin: miter; stroke-linecap: square"/>
   </g>
   <g id="patch_5">
    <path d="M 54.392188 368.3955 
L 1393.592188 368.3955 
" style="fill: none; stroke: #000000; stroke-width: 0.8; stroke-linejoin: miter; stroke-linecap: square"/>
   </g>
   <g id="patch_6">
    <path d="M 54.392188 35.7555 
L 1393.592188 35.7555 
" style="fill: none; stroke: #000000; stroke-width: 0.8; stroke-linejoin: miter; stroke-linecap: square"/>
   </g>
   <g id="text_20">
    <!-- Daily Confirmed Cases Forecasting - Missouri -->
    <g transform="translate(588.789688 16.318125)scale(0.12 -0.12)">
     <defs>
      <path id="DejaVuSans-44" d="M 1259 4147 
L 1259 519 
L 2022 519 
Q 2988 519 3436 956 
Q 3884 1394 3884 2338 
Q 3884 3275 3436 3711 
Q 2988 4147 2022 4147 
L 1259 4147 
z
M 628 4666 
L 1925 4666 
Q 3281 4666 3915 4102 
Q 4550 3538 4550 2338 
Q 4550 1131 3912 565 
Q 3275 0 1925 0 
L 628 0 
L 628 4666 
z
" transform="scale(0.015625)"/>
      <path id="DejaVuSans-61" d="M 2194 1759 
Q 1497 1759 1228 1600 
Q 959 1441 959 1056 
Q 959 750 1161 570 
Q 1363 391 1709 391 
Q 2188 391 2477 730 
Q 2766 1069 2766 1631 
L 2766 1759 
L 2194 1759 
z
M 3341 1997 
L 3341 0 
L 2766 0 
L 2766 531 
Q 2569 213 2275 61 
Q 1981 -91 1556 -91 
Q 1019 -91 701 211 
Q 384 513 384 1019 
Q 384 1609 779 1909 
Q 1175 2209 1959 2209 
L 2766 2209 
L 2766 2266 
Q 2766 2663 2505 2880 
Q 2244 3097 1772 3097 
Q 1472 3097 1187 3025 
Q 903 2953 641 2809 
L 641 3341 
Q 956 3463 1253 3523 
Q 1550 3584 1831 3584 
Q 2591 3584 2966 3190 
Q 3341 2797 3341 1997 
z
" transform="scale(0.015625)"/>
      <path id="DejaVuSans-69" d="M 603 3500 
L 1178 3500 
L 1178 0 
L 603 0 
L 603 3500 
z
M 603 4863 
L 1178 4863 
L 1178 4134 
L 603 4134 
L 603 4863 
z
" transform="scale(0.015625)"/>
      <path id="DejaVuSans-6c" d="M 603 4863 
L 1178 4863 
L 1178 0 
L 603 0 
L 603 4863 
z
" transform="scale(0.015625)"/>
      <path id="DejaVuSans-79" d="M 2059 -325 
Q 1816 -950 1584 -1140 
Q 1353 -1331 966 -1331 
L 506 -1331 
L 506 -850 
L 844 -850 
Q 1081 -850 1212 -737 
Q 1344 -625 1503 -206 
L 1606 56 
L 191 3500 
L 800 3500 
L 1894 763 
L 2988 3500 
L 3597 3500 
L 2059 -325 
z
" transform="scale(0.015625)"/>
      <path id="DejaVuSans-20" transform="scale(0.015625)"/>
      <path id="DejaVuSans-43" d="M 4122 4306 
L 4122 3641 
Q 3803 3938 3442 4084 
Q 3081 4231 2675 4231 
Q 1875 4231 1450 3742 
Q 1025 3253 1025 2328 
Q 1025 1406 1450 917 
Q 1875 428 2675 428 
Q 3081 428 3442 575 
Q 3803 722 4122 1019 
L 4122 359 
Q 3791 134 3420 21 
Q 3050 -91 2638 -91 
Q 1578 -91 968 557 
Q 359 1206 359 2328 
Q 359 3453 968 4101 
Q 1578 4750 2638 4750 
Q 3056 4750 3426 4639 
Q 3797 4528 4122 4306 
z
" transform="scale(0.015625)"/>
      <path id="DejaVuSans-6f" d="M 1959 3097 
Q 1497 3097 1228 2736 
Q 959 2375 959 1747 
Q 959 1119 1226 758 
Q 1494 397 1959 397 
Q 2419 397 2687 759 
Q 2956 1122 2956 1747 
Q 2956 2369 2687 2733 
Q 2419 3097 1959 3097 
z
M 1959 3584 
Q 2709 3584 3137 3096 
Q 3566 2609 3566 1747 
Q 3566 888 3137 398 
Q 2709 -91 1959 -91 
Q 1206 -91 779 398 
Q 353 888 353 1747 
Q 353 2609 779 3096 
Q 1206 3584 1959 3584 
z
" transform="scale(0.015625)"/>
      <path id="DejaVuSans-6e" d="M 3513 2113 
L 3513 0 
L 2938 0 
L 2938 2094 
Q 2938 2591 2744 2837 
Q 2550 3084 2163 3084 
Q 1697 3084 1428 2787 
Q 1159 2491 1159 1978 
L 1159 0 
L 581 0 
L 581 3500 
L 1159 3500 
L 1159 2956 
Q 1366 3272 1645 3428 
Q 1925 3584 2291 3584 
Q 2894 3584 3203 3211 
Q 3513 2838 3513 2113 
z
" transform="scale(0.015625)"/>
      <path id="DejaVuSans-66" d="M 2375 4863 
L 2375 4384 
L 1825 4384 
Q 1516 4384 1395 4259 
Q 1275 4134 1275 3809 
L 1275 3500 
L 2222 3500 
L 2222 3053 
L 1275 3053 
L 1275 0 
L 697 0 
L 697 3053 
L 147 3053 
L 147 3500 
L 697 3500 
L 697 3744 
Q 697 4328 969 4595 
Q 1241 4863 1831 4863 
L 2375 4863 
z
" transform="scale(0.015625)"/>
      <path id="DejaVuSans-72" d="M 2631 2963 
Q 2534 3019 2420 3045 
Q 2306 3072 2169 3072 
Q 1681 3072 1420 2755 
Q 1159 2438 1159 1844 
L 1159 0 
L 581 0 
L 581 3500 
L 1159 3500 
L 1159 2956 
Q 1341 3275 1631 3429 
Q 1922 3584 2338 3584 
Q 2397 3584 2469 3576 
Q 2541 3569 2628 3553 
L 2631 2963 
z
" transform="scale(0.015625)"/>
      <path id="DejaVuSans-6d" d="M 3328 2828 
Q 3544 3216 3844 3400 
Q 4144 3584 4550 3584 
Q 5097 3584 5394 3201 
Q 5691 2819 5691 2113 
L 5691 0 
L 5113 0 
L 5113 2094 
Q 5113 2597 4934 2840 
Q 4756 3084 4391 3084 
Q 3944 3084 3684 2787 
Q 3425 2491 3425 1978 
L 3425 0 
L 2847 0 
L 2847 2094 
Q 2847 2600 2669 2842 
Q 2491 3084 2119 3084 
Q 1678 3084 1418 2786 
Q 1159 2488 1159 1978 
L 1159 0 
L 581 0 
L 581 3500 
L 1159 3500 
L 1159 2956 
Q 1356 3278 1631 3431 
Q 1906 3584 2284 3584 
Q 2666 3584 2933 3390 
Q 3200 3197 3328 2828 
z
" transform="scale(0.015625)"/>
      <path id="DejaVuSans-65" d="M 3597 1894 
L 3597 1613 
L 953 1613 
Q 991 1019 1311 708 
Q 1631 397 2203 397 
Q 2534 397 2845 478 
Q 3156 559 3463 722 
L 3463 178 
Q 3153 47 2828 -22 
Q 2503 -91 2169 -91 
Q 1331 -91 842 396 
Q 353 884 353 1716 
Q 353 2575 817 3079 
Q 1281 3584 2069 3584 
Q 2775 3584 3186 3129 
Q 3597 2675 3597 1894 
z
M 3022 2063 
Q 3016 2534 2758 2815 
Q 2500 3097 2075 3097 
Q 1594 3097 1305 2825 
Q 1016 2553 972 2059 
L 3022 2063 
z
" transform="scale(0.015625)"/>
      <path id="DejaVuSans-64" d="M 2906 2969 
L 2906 4863 
L 3481 4863 
L 3481 0 
L 2906 0 
L 2906 525 
Q 2725 213 2448 61 
Q 2172 -91 1784 -91 
Q 1150 -91 751 415 
Q 353 922 353 1747 
Q 353 2572 751 3078 
Q 1150 3584 1784 3584 
Q 2172 3584 2448 3432 
Q 2725 3281 2906 2969 
z
M 947 1747 
Q 947 1113 1208 752 
Q 1469 391 1925 391 
Q 2381 391 2643 752 
Q 2906 1113 2906 1747 
Q 2906 2381 2643 2742 
Q 2381 3103 1925 3103 
Q 1469 3103 1208 2742 
Q 947 2381 947 1747 
z
" transform="scale(0.015625)"/>
      <path id="DejaVuSans-73" d="M 2834 3397 
L 2834 2853 
Q 2591 2978 2328 3040 
Q 2066 3103 1784 3103 
Q 1356 3103 1142 2972 
Q 928 2841 928 2578 
Q 928 2378 1081 2264 
Q 1234 2150 1697 2047 
L 1894 2003 
Q 2506 1872 2764 1633 
Q 3022 1394 3022 966 
Q 3022 478 2636 193 
Q 2250 -91 1575 -91 
Q 1294 -91 989 -36 
Q 684 19 347 128 
L 347 722 
Q 666 556 975 473 
Q 1284 391 1588 391 
Q 1994 391 2212 530 
Q 2431 669 2431 922 
Q 2431 1156 2273 1281 
Q 2116 1406 1581 1522 
L 1381 1569 
Q 847 1681 609 1914 
Q 372 2147 372 2553 
Q 372 3047 722 3315 
Q 1072 3584 1716 3584 
Q 2034 3584 2315 3537 
Q 2597 3491 2834 3397 
z
" transform="scale(0.015625)"/>
      <path id="DejaVuSans-46" d="M 628 4666 
L 3309 4666 
L 3309 4134 
L 1259 4134 
L 1259 2759 
L 3109 2759 
L 3109 2228 
L 1259 2228 
L 1259 0 
L 628 0 
L 628 4666 
z
" transform="scale(0.015625)"/>
      <path id="DejaVuSans-63" d="M 3122 3366 
L 3122 2828 
Q 2878 2963 2633 3030 
Q 2388 3097 2138 3097 
Q 1578 3097 1268 2742 
Q 959 2388 959 1747 
Q 959 1106 1268 751 
Q 1578 397 2138 397 
Q 2388 397 2633 464 
Q 2878 531 3122 666 
L 3122 134 
Q 2881 22 2623 -34 
Q 2366 -91 2075 -91 
Q 1284 -91 818 406 
Q 353 903 353 1747 
Q 353 2603 823 3093 
Q 1294 3584 2113 3584 
Q 2378 3584 2631 3529 
Q 2884 3475 3122 3366 
z
" transform="scale(0.015625)"/>
      <path id="DejaVuSans-74" d="M 1172 4494 
L 1172 3500 
L 2356 3500 
L 2356 3053 
L 1172 3053 
L 1172 1153 
Q 1172 725 1289 603 
Q 1406 481 1766 481 
L 2356 481 
L 2356 0 
L 1766 0 
Q 1100 0 847 248 
Q 594 497 594 1153 
L 594 3053 
L 172 3053 
L 172 3500 
L 594 3500 
L 594 4494 
L 1172 4494 
z
" transform="scale(0.015625)"/>
      <path id="DejaVuSans-67" d="M 2906 1791 
Q 2906 2416 2648 2759 
Q 2391 3103 1925 3103 
Q 1463 3103 1205 2759 
Q 947 2416 947 1791 
Q 947 1169 1205 825 
Q 1463 481 1925 481 
Q 2391 481 2648 825 
Q 2906 1169 2906 1791 
z
M 3481 434 
Q 3481 -459 3084 -895 
Q 2688 -1331 1869 -1331 
Q 1566 -1331 1297 -1286 
Q 1028 -1241 775 -1147 
L 775 -588 
Q 1028 -725 1275 -790 
Q 1522 -856 1778 -856 
Q 2344 -856 2625 -561 
Q 2906 -266 2906 331 
L 2906 616 
Q 2728 306 2450 153 
Q 2172 0 1784 0 
Q 1141 0 747 490 
Q 353 981 353 1791 
Q 353 2603 747 3093 
Q 1141 3584 1784 3584 
Q 2172 3584 2450 3431 
Q 2728 3278 2906 2969 
L 2906 3500 
L 3481 3500 
L 3481 434 
z
" transform="scale(0.015625)"/>
      <path id="DejaVuSans-4d" d="M 628 4666 
L 1569 4666 
L 2759 1491 
L 3956 4666 
L 4897 4666 
L 4897 0 
L 4281 0 
L 4281 4097 
L 3078 897 
L 2444 897 
L 1241 4097 
L 1241 0 
L 628 0 
L 628 4666 
z
" transform="scale(0.015625)"/>
      <path id="DejaVuSans-75" d="M 544 1381 
L 544 3500 
L 1119 3500 
L 1119 1403 
Q 1119 906 1312 657 
Q 1506 409 1894 409 
Q 2359 409 2629 706 
Q 2900 1003 2900 1516 
L 2900 3500 
L 3475 3500 
L 3475 0 
L 2900 0 
L 2900 538 
Q 2691 219 2414 64 
Q 2138 -91 1772 -91 
Q 1169 -91 856 284 
Q 544 659 544 1381 
z
M 1991 3584 
L 1991 3584 
z
" transform="scale(0.015625)"/>
     </defs>
     <use xlink:href="#DejaVuSans-44"/>
     <use xlink:href="#DejaVuSans-61" x="77.001953"/>
     <use xlink:href="#DejaVuSans-69" x="138.28125"/>
     <use xlink:href="#DejaVuSans-6c" x="166.064453"/>
     <use xlink:href="#DejaVuSans-79" x="193.847656"/>
     <use xlink:href="#DejaVuSans-20" x="253.027344"/>
     <use xlink:href="#DejaVuSans-43" x="284.814453"/>
     <use xlink:href="#DejaVuSans-6f" x="354.638672"/>
     <use xlink:href="#DejaVuSans-6e" x="415.820312"/>
     <use xlink:href="#DejaVuSans-66" x="479.199219"/>
     <use xlink:href="#DejaVuSans-69" x="514.404297"/>
     <use xlink:href="#DejaVuSans-72" x="542.1875"/>
     <use xlink:href="#DejaVuSans-6d" x="581.550781"/>
     <use xlink:href="#DejaVuSans-65" x="678.962891"/>
     <use xlink:href="#DejaVuSans-64" x="740.486328"/>
     <use xlink:href="#DejaVuSans-20" x="803.962891"/>
     <use xlink:href="#DejaVuSans-43" x="835.75"/>
     <use xlink:href="#DejaVuSans-61" x="905.574219"/>
     <use xlink:href="#DejaVuSans-73" x="966.853516"/>
     <use xlink:href="#DejaVuSans-65" x="1018.953125"/>
     <use xlink:href="#DejaVuSans-73" x="1080.476562"/>
     <use xlink:href="#DejaVuSans-20" x="1132.576172"/>
     <use xlink:href="#DejaVuSans-46" x="1164.363281"/>
     <use xlink:href="#DejaVuSans-6f" x="1218.257812"/>
     <use xlink:href="#DejaVuSans-72" x="1279.439453"/>
     <use xlink:href="#DejaVuSans-65" x="1318.302734"/>
     <use xlink:href="#DejaVuSans-63" x="1379.826172"/>
     <use xlink:href="#DejaVuSans-61" x="1434.806641"/>
     <use xlink:href="#DejaVuSans-73" x="1496.085938"/>
     <use xlink:href="#DejaVuSans-74" x="1548.185547"/>
     <use xlink:href="#DejaVuSans-69" x="1587.394531"/>
     <use xlink:href="#DejaVuSans-6e" x="1615.177734"/>
     <use xlink:href="#DejaVuSans-67" x="1678.556641"/>
     <use xlink:href="#DejaVuSans-20" x="1742.033203"/>
     <use xlink:href="#DejaVuSans-2d" x="1773.820312"/>
     <use xlink:href="#DejaVuSans-20" x="1809.904297"/>
     <use xlink:href="#DejaVuSans-4d" x="1841.691406"/>
     <use xlink:href="#DejaVuSans-69" x="1927.970703"/>
     <use xlink:href="#DejaVuSans-73" x="1955.753906"/>
     <use xlink:href="#DejaVuSans-73" x="2007.853516"/>
     <use xlink:href="#DejaVuSans-6f" x="2059.953125"/>
     <use xlink:href="#DejaVuSans-75" x="2121.134766"/>
     <use xlink:href="#DejaVuSans-72" x="2184.513672"/>
     <use xlink:href="#DejaVuSans-69" x="2225.626953"/>
    </g>
    <!-- ARIMA (0, 1, 1)x(1, 0, 1, 7) (R2 = 0.606746) -->
    <g transform="translate(592.008125 29.7555)scale(0.12 -0.12)">
     <defs>
      <path id="DejaVuSans-41" d="M 2188 4044 
L 1331 1722 
L 3047 1722 
L 2188 4044 
z
M 1831 4666 
L 2547 4666 
L 4325 0 
L 3669 0 
L 3244 1197 
L 1141 1197 
L 716 0 
L 50 0 
L 1831 4666 
z
" transform="scale(0.015625)"/>
      <path id="DejaVuSans-52" d="M 2841 2188 
Q 3044 2119 3236 1894 
Q 3428 1669 3622 1275 
L 4263 0 
L 3584 0 
L 2988 1197 
Q 2756 1666 2539 1819 
Q 2322 1972 1947 1972 
L 1259 1972 
L 1259 0 
L 628 0 
L 628 4666 
L 2053 4666 
Q 2853 4666 3247 4331 
Q 3641 3997 3641 3322 
Q 3641 2881 3436 2590 
Q 3231 2300 2841 2188 
z
M 1259 4147 
L 1259 2491 
L 2053 2491 
Q 2509 2491 2742 2702 
Q 2975 2913 2975 3322 
Q 2975 3731 2742 3939 
Q 2509 4147 2053 4147 
L 1259 4147 
z
" transform="scale(0.015625)"/>
      <path id="DejaVuSans-49" d="M 628 4666 
L 1259 4666 
L 1259 0 
L 628 0 
L 628 4666 
z
" transform="scale(0.015625)"/>
      <path id="DejaVuSans-28" d="M 1984 4856 
Q 1566 4138 1362 3434 
Q 1159 2731 1159 2009 
Q 1159 1288 1364 580 
Q 1569 -128 1984 -844 
L 1484 -844 
Q 1016 -109 783 600 
Q 550 1309 550 2009 
Q 550 2706 781 3412 
Q 1013 4119 1484 4856 
L 1984 4856 
z
" transform="scale(0.015625)"/>
      <path id="DejaVuSans-2c" d="M 750 794 
L 1409 794 
L 1409 256 
L 897 -744 
L 494 -744 
L 750 256 
L 750 794 
z
" transform="scale(0.015625)"/>
      <path id="DejaVuSans-29" d="M 513 4856 
L 1013 4856 
Q 1481 4119 1714 3412 
Q 1947 2706 1947 2009 
Q 1947 1309 1714 600 
Q 1481 -109 1013 -844 
L 513 -844 
Q 928 -128 1133 580 
Q 1338 1288 1338 2009 
Q 1338 2731 1133 3434 
Q 928 4138 513 4856 
z
" transform="scale(0.015625)"/>
      <path id="DejaVuSans-78" d="M 3513 3500 
L 2247 1797 
L 3578 0 
L 2900 0 
L 1881 1375 
L 863 0 
L 184 0 
L 1544 1831 
L 300 3500 
L 978 3500 
L 1906 2253 
L 2834 3500 
L 3513 3500 
z
" transform="scale(0.015625)"/>
      <path id="DejaVuSans-3d" d="M 678 2906 
L 4684 2906 
L 4684 2381 
L 678 2381 
L 678 2906 
z
M 678 1631 
L 4684 1631 
L 4684 1100 
L 678 1100 
L 678 1631 
z
" transform="scale(0.015625)"/>
      <path id="DejaVuSans-2e" d="M 684 794 
L 1344 794 
L 1344 0 
L 684 0 
L 684 794 
z
" transform="scale(0.015625)"/>
      <path id="DejaVuSans-36" d="M 2113 2584 
Q 1688 2584 1439 2293 
Q 1191 2003 1191 1497 
Q 1191 994 1439 701 
Q 1688 409 2113 409 
Q 2538 409 2786 701 
Q 3034 994 3034 1497 
Q 3034 2003 2786 2293 
Q 2538 2584 2113 2584 
z
M 3366 4563 
L 3366 3988 
Q 3128 4100 2886 4159 
Q 2644 4219 2406 4219 
Q 1781 4219 1451 3797 
Q 1122 3375 1075 2522 
Q 1259 2794 1537 2939 
Q 1816 3084 2150 3084 
Q 2853 3084 3261 2657 
Q 3669 2231 3669 1497 
Q 3669 778 3244 343 
Q 2819 -91 2113 -91 
Q 1303 -91 875 529 
Q 447 1150 447 2328 
Q 447 3434 972 4092 
Q 1497 4750 2381 4750 
Q 2619 4750 2861 4703 
Q 3103 4656 3366 4563 
z
" transform="scale(0.015625)"/>
     </defs>
     <use xlink:href="#DejaVuSans-41"/>
     <use xlink:href="#DejaVuSans-52" x="68.408203"/>
     <use xlink:href="#DejaVuSans-49" x="137.890625"/>
     <use xlink:href="#DejaVuSans-4d" x="167.382812"/>
     <use xlink:href="#DejaVuSans-41" x="253.662109"/>
     <use xlink:href="#DejaVuSans-20" x="322.070312"/>
     <use xlink:href="#DejaVuSans-28" x="353.857422"/>
     <use xlink:href="#DejaVuSans-30" x="392.871094"/>
     <use xlink:href="#DejaVuSans-2c" x="456.494141"/>
     <use xlink:href="#DejaVuSans-20" x="488.28125"/>
     <use xlink:href="#DejaVuSans-31" x="520.068359"/>
     <use xlink:href="#DejaVuSans-2c" x="583.691406"/>
     <use xlink:href="#DejaVuSans-20" x="615.478516"/>
     <use xlink:href="#DejaVuSans-31" x="647.265625"/>
     <use xlink:href="#DejaVuSans-29" x="710.888672"/>
     <use xlink:href="#DejaVuSans-78" x="749.902344"/>
     <use xlink:href="#DejaVuSans-28" x="809.082031"/>
     <use xlink:href="#DejaVuSans-31" x="848.095703"/>
     <use xlink:href="#DejaVuSans-2c" x="911.71875"/>
     <use xlink:href="#DejaVuSans-20" x="943.505859"/>
     <use xlink:href="#DejaVuSans-30" x="975.292969"/>
     <use xlink:href="#DejaVuSans-2c" x="1038.916016"/>
     <use xlink:href="#DejaVuSans-20" x="1070.703125"/>
     <use xlink:href="#DejaVuSans-31" x="1102.490234"/>
     <use xlink:href="#DejaVuSans-2c" x="1166.113281"/>
     <use xlink:href="#DejaVuSans-20" x="1197.900391"/>
     <use xlink:href="#DejaVuSans-37" x="1229.6875"/>
     <use xlink:href="#DejaVuSans-29" x="1293.310547"/>
     <use xlink:href="#DejaVuSans-20" x="1332.324219"/>
     <use xlink:href="#DejaVuSans-28" x="1364.111328"/>
     <use xlink:href="#DejaVuSans-52" x="1403.125"/>
     <use xlink:href="#DejaVuSans-32" x="1472.607422"/>
     <use xlink:href="#DejaVuSans-20" x="1536.230469"/>
     <use xlink:href="#DejaVuSans-3d" x="1568.017578"/>
     <use xlink:href="#DejaVuSans-20" x="1651.806641"/>
     <use xlink:href="#DejaVuSans-30" x="1683.59375"/>
     <use xlink:href="#DejaVuSans-2e" x="1747.216797"/>
     <use xlink:href="#DejaVuSans-36" x="1779.003906"/>
     <use xlink:href="#DejaVuSans-30" x="1842.626953"/>
     <use xlink:href="#DejaVuSans-36" x="1906.25"/>
     <use xlink:href="#DejaVuSans-37" x="1969.873047"/>
     <use xlink:href="#DejaVuSans-34" x="2033.496094"/>
     <use xlink:href="#DejaVuSans-36" x="2097.119141"/>
     <use xlink:href="#DejaVuSans-29" x="2160.742188"/>
    </g>
   </g>
   <g id="legend_1">
    <g id="patch_7">
     <path d="M 1289.5125 87.789875 
L 1386.592188 87.789875 
Q 1388.592188 87.789875 1388.592188 85.789875 
L 1388.592188 42.7555 
Q 1388.592188 40.7555 1386.592188 40.7555 
L 1289.5125 40.7555 
Q 1287.5125 40.7555 1287.5125 42.7555 
L 1287.5125 85.789875 
Q 1287.5125 87.789875 1289.5125 87.789875 
z
" style="fill: #ffffff; opacity: 0.8; stroke: #cccccc; stroke-linejoin: miter"/>
    </g>
    <g id="line2d_23">
     <path d="M 1291.5125 48.853937 
L 1301.5125 48.853937 
L 1311.5125 48.853937 
" style="fill: none; stroke: #0000ff; stroke-width: 1.5; stroke-linecap: square"/>
    </g>
    <g id="text_21">
     <!-- Actual Value -->
     <g transform="translate(1319.5125 52.353937)scale(0.1 -0.1)">
      <defs>
       <path id="DejaVuSans-56" d="M 1831 0 
L 50 4666 
L 709 4666 
L 2188 738 
L 3669 4666 
L 4325 4666 
L 2547 0 
L 1831 0 
z
" transform="scale(0.015625)"/>
      </defs>
      <use xlink:href="#DejaVuSans-41"/>
      <use xlink:href="#DejaVuSans-63" x="66.658203"/>
      <use xlink:href="#DejaVuSans-74" x="121.638672"/>
      <use xlink:href="#DejaVuSans-75" x="160.847656"/>
      <use xlink:href="#DejaVuSans-61" x="224.226562"/>
      <use xlink:href="#DejaVuSans-6c" x="285.505859"/>
      <use xlink:href="#DejaVuSans-20" x="313.289062"/>
      <use xlink:href="#DejaVuSans-56" x="345.076172"/>
      <use xlink:href="#DejaVuSans-61" x="405.734375"/>
      <use xlink:href="#DejaVuSans-6c" x="467.013672"/>
      <use xlink:href="#DejaVuSans-75" x="494.796875"/>
      <use xlink:href="#DejaVuSans-65" x="558.175781"/>
     </g>
    </g>
    <g id="line2d_24">
     <path d="M 1291.5125 63.532062 
L 1301.5125 63.532062 
L 1311.5125 63.532062 
" style="fill: none; stroke: #ffa500; stroke-width: 1.5; stroke-linecap: square"/>
    </g>
    <g id="text_22">
     <!-- Check Value -->
     <g transform="translate(1319.5125 67.032062)scale(0.1 -0.1)">
      <defs>
       <path id="DejaVuSans-68" d="M 3513 2113 
L 3513 0 
L 2938 0 
L 2938 2094 
Q 2938 2591 2744 2837 
Q 2550 3084 2163 3084 
Q 1697 3084 1428 2787 
Q 1159 2491 1159 1978 
L 1159 0 
L 581 0 
L 581 4863 
L 1159 4863 
L 1159 2956 
Q 1366 3272 1645 3428 
Q 1925 3584 2291 3584 
Q 2894 3584 3203 3211 
Q 3513 2838 3513 2113 
z
" transform="scale(0.015625)"/>
       <path id="DejaVuSans-6b" d="M 581 4863 
L 1159 4863 
L 1159 1991 
L 2875 3500 
L 3609 3500 
L 1753 1863 
L 3688 0 
L 2938 0 
L 1159 1709 
L 1159 0 
L 581 0 
L 581 4863 
z
" transform="scale(0.015625)"/>
      </defs>
      <use xlink:href="#DejaVuSans-43"/>
      <use xlink:href="#DejaVuSans-68" x="69.824219"/>
      <use xlink:href="#DejaVuSans-65" x="133.203125"/>
      <use xlink:href="#DejaVuSans-63" x="194.726562"/>
      <use xlink:href="#DejaVuSans-6b" x="249.707031"/>
      <use xlink:href="#DejaVuSans-20" x="307.617188"/>
      <use xlink:href="#DejaVuSans-56" x="339.404297"/>
      <use xlink:href="#DejaVuSans-61" x="400.0625"/>
      <use xlink:href="#DejaVuSans-6c" x="461.341797"/>
      <use xlink:href="#DejaVuSans-75" x="489.125"/>
      <use xlink:href="#DejaVuSans-65" x="552.503906"/>
     </g>
    </g>
    <g id="line2d_25">
     <path d="M 1291.5125 78.210187 
L 1301.5125 78.210187 
L 1311.5125 78.210187 
" style="fill: none; stroke: #ff0000; stroke-width: 1.5; stroke-linecap: square"/>
    </g>
    <g id="text_23">
     <!-- Predict Value -->
     <g transform="translate(1319.5125 81.710187)scale(0.1 -0.1)">
      <defs>
       <path id="DejaVuSans-50" d="M 1259 4147 
L 1259 2394 
L 2053 2394 
Q 2494 2394 2734 2622 
Q 2975 2850 2975 3272 
Q 2975 3691 2734 3919 
Q 2494 4147 2053 4147 
L 1259 4147 
z
M 628 4666 
L 2053 4666 
Q 2838 4666 3239 4311 
Q 3641 3956 3641 3272 
Q 3641 2581 3239 2228 
Q 2838 1875 2053 1875 
L 1259 1875 
L 1259 0 
L 628 0 
L 628 4666 
z
" transform="scale(0.015625)"/>
      </defs>
      <use xlink:href="#DejaVuSans-50"/>
      <use xlink:href="#DejaVuSans-72" x="58.552734"/>
      <use xlink:href="#DejaVuSans-65" x="97.416016"/>
      <use xlink:href="#DejaVuSans-64" x="158.939453"/>
      <use xlink:href="#DejaVuSans-69" x="222.416016"/>
      <use xlink:href="#DejaVuSans-63" x="250.199219"/>
      <use xlink:href="#DejaVuSans-74" x="305.179688"/>
      <use xlink:href="#DejaVuSans-20" x="344.388672"/>
      <use xlink:href="#DejaVuSans-56" x="376.175781"/>
      <use xlink:href="#DejaVuSans-61" x="436.833984"/>
      <use xlink:href="#DejaVuSans-6c" x="498.113281"/>
      <use xlink:href="#DejaVuSans-75" x="525.896484"/>
      <use xlink:href="#DejaVuSans-65" x="589.275391"/>
     </g>
    </g>
   </g>
  </g>
 </g>
 <defs>
  <clipPath id="pf42e9ee08c">
   <rect x="54.392188" y="35.7555" width="1339.2" height="332.64"/>
  </clipPath>
 </defs>
</svg>
