<?xml version="1.0" encoding="utf-8" standalone="no"?>
<!DOCTYPE svg PUBLIC "-//W3C//DTD SVG 1.1//EN"
  "http://www.w3.org/Graphics/SVG/1.1/DTD/svg11.dtd">
<svg xmlns:xlink="http://www.w3.org/1999/xlink" width="1392.4125pt" height="392.273625pt" viewBox="0 0 1392.4125 392.273625" xmlns="http://www.w3.org/2000/svg" version="1.1">
 <metadata>
  <rdf:RDF xmlns:dc="http://purl.org/dc/elements/1.1/" xmlns:cc="http://creativecommons.org/ns#" xmlns:rdf="http://www.w3.org/1999/02/22-rdf-syntax-ns#">
   <cc:Work>
    <dc:type rdf:resource="http://purl.org/dc/dcmitype/StillImage"/>
    <dc:date>2022-07-27T17:32:08.523037</dc:date>
    <dc:format>image/svg+xml</dc:format>
    <dc:creator>
     <cc:Agent>
      <dc:title>Matplotlib v3.5.2, https://matplotlib.org/</dc:title>
     </cc:Agent>
    </dc:creator>
   </cc:Work>
  </rdf:RDF>
 </metadata>
 <defs>
  <style type="text/css">*{stroke-linejoin: round; stroke-linecap: butt}</style>
 </defs>
 <g id="figure_1">
  <g id="patch_1">
   <path d="M 0 392.273625 
L 1392.4125 392.273625 
L 1392.4125 0 
L 0 0 
z
" style="fill: #ffffff"/>
  </g>
  <g id="axes_1">
   <g id="patch_2">
    <path d="M 46.0125 368.3955 
L 1385.2125 368.3955 
L 1385.2125 35.7555 
L 46.0125 35.7555 
z
" style="fill: #ffffff"/>
   </g>
   <g id="matplotlib.axis_1">
    <g id="xtick_1">
     <g id="line2d_1">
      <defs>
       <path id="m8011d1b592" d="M 0 0 
L 0 3.5 
" style="stroke: #000000; stroke-width: 0.8"/>
      </defs>
      <g>
       <use xlink:href="#m8011d1b592" x="78.023158" y="368.3955" style="stroke: #000000; stroke-width: 0.8"/>
      </g>
     </g>
     <g id="text_1">
      <!-- 2020-01 -->
      <g transform="translate(57.131752 382.993937)scale(0.1 -0.1)">
       <defs>
        <path id="DejaVuSans-32" d="M 1228 531 
L 3431 531 
L 3431 0 
L 469 0 
L 469 531 
Q 828 903 1448 1529 
Q 2069 2156 2228 2338 
Q 2531 2678 2651 2914 
Q 2772 3150 2772 3378 
Q 2772 3750 2511 3984 
Q 2250 4219 1831 4219 
Q 1534 4219 1204 4116 
Q 875 4013 500 3803 
L 500 4441 
Q 881 4594 1212 4672 
Q 1544 4750 1819 4750 
Q 2544 4750 2975 4387 
Q 3406 4025 3406 3419 
Q 3406 3131 3298 2873 
Q 3191 2616 2906 2266 
Q 2828 2175 2409 1742 
Q 1991 1309 1228 531 
z
" transform="scale(0.015625)"/>
        <path id="DejaVuSans-30" d="M 2034 4250 
Q 1547 4250 1301 3770 
Q 1056 3291 1056 2328 
Q 1056 1369 1301 889 
Q 1547 409 2034 409 
Q 2525 409 2770 889 
Q 3016 1369 3016 2328 
Q 3016 3291 2770 3770 
Q 2525 4250 2034 4250 
z
M 2034 4750 
Q 2819 4750 3233 4129 
Q 3647 3509 3647 2328 
Q 3647 1150 3233 529 
Q 2819 -91 2034 -91 
Q 1250 -91 836 529 
Q 422 1150 422 2328 
Q 422 3509 836 4129 
Q 1250 4750 2034 4750 
z
" transform="scale(0.015625)"/>
        <path id="DejaVuSans-2d" d="M 313 2009 
L 1997 2009 
L 1997 1497 
L 313 1497 
L 313 2009 
z
" transform="scale(0.015625)"/>
        <path id="DejaVuSans-31" d="M 794 531 
L 1825 531 
L 1825 4091 
L 703 3866 
L 703 4441 
L 1819 4666 
L 2450 4666 
L 2450 531 
L 3481 531 
L 3481 0 
L 794 0 
L 794 531 
z
" transform="scale(0.015625)"/>
       </defs>
       <use xlink:href="#DejaVuSans-32"/>
       <use xlink:href="#DejaVuSans-30" x="63.623047"/>
       <use xlink:href="#DejaVuSans-32" x="127.246094"/>
       <use xlink:href="#DejaVuSans-30" x="190.869141"/>
       <use xlink:href="#DejaVuSans-2d" x="254.492188"/>
       <use xlink:href="#DejaVuSans-30" x="290.576172"/>
       <use xlink:href="#DejaVuSans-31" x="354.199219"/>
      </g>
     </g>
    </g>
    <g id="xtick_2">
     <g id="line2d_2">
      <g>
       <use xlink:href="#m8011d1b592" x="197.407171" y="368.3955" style="stroke: #000000; stroke-width: 0.8"/>
      </g>
     </g>
     <g id="text_2">
      <!-- 2020-04 -->
      <g transform="translate(176.515765 382.993937)scale(0.1 -0.1)">
       <defs>
        <path id="DejaVuSans-34" d="M 2419 4116 
L 825 1625 
L 2419 1625 
L 2419 4116 
z
M 2253 4666 
L 3047 4666 
L 3047 1625 
L 3713 1625 
L 3713 1100 
L 3047 1100 
L 3047 0 
L 2419 0 
L 2419 1100 
L 313 1100 
L 313 1709 
L 2253 4666 
z
" transform="scale(0.015625)"/>
       </defs>
       <use xlink:href="#DejaVuSans-32"/>
       <use xlink:href="#DejaVuSans-30" x="63.623047"/>
       <use xlink:href="#DejaVuSans-32" x="127.246094"/>
       <use xlink:href="#DejaVuSans-30" x="190.869141"/>
       <use xlink:href="#DejaVuSans-2d" x="254.492188"/>
       <use xlink:href="#DejaVuSans-30" x="290.576172"/>
       <use xlink:href="#DejaVuSans-34" x="354.199219"/>
      </g>
     </g>
    </g>
    <g id="xtick_3">
     <g id="line2d_3">
      <g>
       <use xlink:href="#m8011d1b592" x="316.791183" y="368.3955" style="stroke: #000000; stroke-width: 0.8"/>
      </g>
     </g>
     <g id="text_3">
      <!-- 2020-07 -->
      <g transform="translate(295.899777 382.993937)scale(0.1 -0.1)">
       <defs>
        <path id="DejaVuSans-37" d="M 525 4666 
L 3525 4666 
L 3525 4397 
L 1831 0 
L 1172 0 
L 2766 4134 
L 525 4134 
L 525 4666 
z
" transform="scale(0.015625)"/>
       </defs>
       <use xlink:href="#DejaVuSans-32"/>
       <use xlink:href="#DejaVuSans-30" x="63.623047"/>
       <use xlink:href="#DejaVuSans-32" x="127.246094"/>
       <use xlink:href="#DejaVuSans-30" x="190.869141"/>
       <use xlink:href="#DejaVuSans-2d" x="254.492188"/>
       <use xlink:href="#DejaVuSans-30" x="290.576172"/>
       <use xlink:href="#DejaVuSans-37" x="354.199219"/>
      </g>
     </g>
    </g>
    <g id="xtick_4">
     <g id="line2d_4">
      <g>
       <use xlink:href="#m8011d1b592" x="437.487108" y="368.3955" style="stroke: #000000; stroke-width: 0.8"/>
      </g>
     </g>
     <g id="text_4">
      <!-- 2020-10 -->
      <g transform="translate(416.595702 382.993937)scale(0.1 -0.1)">
       <use xlink:href="#DejaVuSans-32"/>
       <use xlink:href="#DejaVuSans-30" x="63.623047"/>
       <use xlink:href="#DejaVuSans-32" x="127.246094"/>
       <use xlink:href="#DejaVuSans-30" x="190.869141"/>
       <use xlink:href="#DejaVuSans-2d" x="254.492188"/>
       <use xlink:href="#DejaVuSans-31" x="290.576172"/>
       <use xlink:href="#DejaVuSans-30" x="354.199219"/>
      </g>
     </g>
    </g>
    <g id="xtick_5">
     <g id="line2d_5">
      <g>
       <use xlink:href="#m8011d1b592" x="558.183033" y="368.3955" style="stroke: #000000; stroke-width: 0.8"/>
      </g>
     </g>
     <g id="text_5">
      <!-- 2021-01 -->
      <g transform="translate(537.291627 382.993937)scale(0.1 -0.1)">
       <use xlink:href="#DejaVuSans-32"/>
       <use xlink:href="#DejaVuSans-30" x="63.623047"/>
       <use xlink:href="#DejaVuSans-32" x="127.246094"/>
       <use xlink:href="#DejaVuSans-31" x="190.869141"/>
       <use xlink:href="#DejaVuSans-2d" x="254.492188"/>
       <use xlink:href="#DejaVuSans-30" x="290.576172"/>
       <use xlink:href="#DejaVuSans-31" x="354.199219"/>
      </g>
     </g>
    </g>
    <g id="xtick_6">
     <g id="line2d_6">
      <g>
       <use xlink:href="#m8011d1b592" x="676.255133" y="368.3955" style="stroke: #000000; stroke-width: 0.8"/>
      </g>
     </g>
     <g id="text_6">
      <!-- 2021-04 -->
      <g transform="translate(655.363727 382.993937)scale(0.1 -0.1)">
       <use xlink:href="#DejaVuSans-32"/>
       <use xlink:href="#DejaVuSans-30" x="63.623047"/>
       <use xlink:href="#DejaVuSans-32" x="127.246094"/>
       <use xlink:href="#DejaVuSans-31" x="190.869141"/>
       <use xlink:href="#DejaVuSans-2d" x="254.492188"/>
       <use xlink:href="#DejaVuSans-30" x="290.576172"/>
       <use xlink:href="#DejaVuSans-34" x="354.199219"/>
      </g>
     </g>
    </g>
    <g id="xtick_7">
     <g id="line2d_7">
      <g>
       <use xlink:href="#m8011d1b592" x="795.639146" y="368.3955" style="stroke: #000000; stroke-width: 0.8"/>
      </g>
     </g>
     <g id="text_7">
      <!-- 2021-07 -->
      <g transform="translate(774.74774 382.993937)scale(0.1 -0.1)">
       <use xlink:href="#DejaVuSans-32"/>
       <use xlink:href="#DejaVuSans-30" x="63.623047"/>
       <use xlink:href="#DejaVuSans-32" x="127.246094"/>
       <use xlink:href="#DejaVuSans-31" x="190.869141"/>
       <use xlink:href="#DejaVuSans-2d" x="254.492188"/>
       <use xlink:href="#DejaVuSans-30" x="290.576172"/>
       <use xlink:href="#DejaVuSans-37" x="354.199219"/>
      </g>
     </g>
    </g>
    <g id="xtick_8">
     <g id="line2d_8">
      <g>
       <use xlink:href="#m8011d1b592" x="916.335071" y="368.3955" style="stroke: #000000; stroke-width: 0.8"/>
      </g>
     </g>
     <g id="text_8">
      <!-- 2021-10 -->
      <g transform="translate(895.443664 382.993937)scale(0.1 -0.1)">
       <use xlink:href="#DejaVuSans-32"/>
       <use xlink:href="#DejaVuSans-30" x="63.623047"/>
       <use xlink:href="#DejaVuSans-32" x="127.246094"/>
       <use xlink:href="#DejaVuSans-31" x="190.869141"/>
       <use xlink:href="#DejaVuSans-2d" x="254.492188"/>
       <use xlink:href="#DejaVuSans-31" x="290.576172"/>
       <use xlink:href="#DejaVuSans-30" x="354.199219"/>
      </g>
     </g>
    </g>
    <g id="xtick_9">
     <g id="line2d_9">
      <g>
       <use xlink:href="#m8011d1b592" x="1037.030995" y="368.3955" style="stroke: #000000; stroke-width: 0.8"/>
      </g>
     </g>
     <g id="text_9">
      <!-- 2022-01 -->
      <g transform="translate(1016.139589 382.993937)scale(0.1 -0.1)">
       <use xlink:href="#DejaVuSans-32"/>
       <use xlink:href="#DejaVuSans-30" x="63.623047"/>
       <use xlink:href="#DejaVuSans-32" x="127.246094"/>
       <use xlink:href="#DejaVuSans-32" x="190.869141"/>
       <use xlink:href="#DejaVuSans-2d" x="254.492188"/>
       <use xlink:href="#DejaVuSans-30" x="290.576172"/>
       <use xlink:href="#DejaVuSans-31" x="354.199219"/>
      </g>
     </g>
    </g>
    <g id="xtick_10">
     <g id="line2d_10">
      <g>
       <use xlink:href="#m8011d1b592" x="1155.103096" y="368.3955" style="stroke: #000000; stroke-width: 0.8"/>
      </g>
     </g>
     <g id="text_10">
      <!-- 2022-04 -->
      <g transform="translate(1134.211689 382.993937)scale(0.1 -0.1)">
       <use xlink:href="#DejaVuSans-32"/>
       <use xlink:href="#DejaVuSans-30" x="63.623047"/>
       <use xlink:href="#DejaVuSans-32" x="127.246094"/>
       <use xlink:href="#DejaVuSans-32" x="190.869141"/>
       <use xlink:href="#DejaVuSans-2d" x="254.492188"/>
       <use xlink:href="#DejaVuSans-30" x="290.576172"/>
       <use xlink:href="#DejaVuSans-34" x="354.199219"/>
      </g>
     </g>
    </g>
    <g id="xtick_11">
     <g id="line2d_11">
      <g>
       <use xlink:href="#m8011d1b592" x="1274.487108" y="368.3955" style="stroke: #000000; stroke-width: 0.8"/>
      </g>
     </g>
     <g id="text_11">
      <!-- 2022-07 -->
      <g transform="translate(1253.595702 382.993937)scale(0.1 -0.1)">
       <use xlink:href="#DejaVuSans-32"/>
       <use xlink:href="#DejaVuSans-30" x="63.623047"/>
       <use xlink:href="#DejaVuSans-32" x="127.246094"/>
       <use xlink:href="#DejaVuSans-32" x="190.869141"/>
       <use xlink:href="#DejaVuSans-2d" x="254.492188"/>
       <use xlink:href="#DejaVuSans-30" x="290.576172"/>
       <use xlink:href="#DejaVuSans-37" x="354.199219"/>
      </g>
     </g>
    </g>
   </g>
   <g id="matplotlib.axis_2">
    <g id="ytick_1">
     <g id="line2d_12">
      <defs>
       <path id="mf61b225730" d="M 0 0 
L -3.5 0 
" style="stroke: #000000; stroke-width: 0.8"/>
      </defs>
      <g>
       <use xlink:href="#mf61b225730" x="46.0125" y="345.871443" style="stroke: #000000; stroke-width: 0.8"/>
      </g>
     </g>
     <g id="text_12">
      <!-- 0 -->
      <g transform="translate(32.65 349.670662)scale(0.1 -0.1)">
       <use xlink:href="#DejaVuSans-30"/>
      </g>
     </g>
    </g>
    <g id="ytick_2">
     <g id="line2d_13">
      <g>
       <use xlink:href="#mf61b225730" x="46.0125" y="308.394509" style="stroke: #000000; stroke-width: 0.8"/>
      </g>
     </g>
     <g id="text_13">
      <!-- 5000 -->
      <g transform="translate(13.5625 312.193728)scale(0.1 -0.1)">
       <defs>
        <path id="DejaVuSans-35" d="M 691 4666 
L 3169 4666 
L 3169 4134 
L 1269 4134 
L 1269 2991 
Q 1406 3038 1543 3061 
Q 1681 3084 1819 3084 
Q 2600 3084 3056 2656 
Q 3513 2228 3513 1497 
Q 3513 744 3044 326 
Q 2575 -91 1722 -91 
Q 1428 -91 1123 -41 
Q 819 9 494 109 
L 494 744 
Q 775 591 1075 516 
Q 1375 441 1709 441 
Q 2250 441 2565 725 
Q 2881 1009 2881 1497 
Q 2881 1984 2565 2268 
Q 2250 2553 1709 2553 
Q 1456 2553 1204 2497 
Q 953 2441 691 2322 
L 691 4666 
z
" transform="scale(0.015625)"/>
       </defs>
       <use xlink:href="#DejaVuSans-35"/>
       <use xlink:href="#DejaVuSans-30" x="63.623047"/>
       <use xlink:href="#DejaVuSans-30" x="127.246094"/>
       <use xlink:href="#DejaVuSans-30" x="190.869141"/>
      </g>
     </g>
    </g>
    <g id="ytick_3">
     <g id="line2d_14">
      <g>
       <use xlink:href="#mf61b225730" x="46.0125" y="270.917574" style="stroke: #000000; stroke-width: 0.8"/>
      </g>
     </g>
     <g id="text_14">
      <!-- 10000 -->
      <g transform="translate(7.2 274.716793)scale(0.1 -0.1)">
       <use xlink:href="#DejaVuSans-31"/>
       <use xlink:href="#DejaVuSans-30" x="63.623047"/>
       <use xlink:href="#DejaVuSans-30" x="127.246094"/>
       <use xlink:href="#DejaVuSans-30" x="190.869141"/>
       <use xlink:href="#DejaVuSans-30" x="254.492188"/>
      </g>
     </g>
    </g>
    <g id="ytick_4">
     <g id="line2d_15">
      <g>
       <use xlink:href="#mf61b225730" x="46.0125" y="233.440639" style="stroke: #000000; stroke-width: 0.8"/>
      </g>
     </g>
     <g id="text_15">
      <!-- 15000 -->
      <g transform="translate(7.2 237.239858)scale(0.1 -0.1)">
       <use xlink:href="#DejaVuSans-31"/>
       <use xlink:href="#DejaVuSans-35" x="63.623047"/>
       <use xlink:href="#DejaVuSans-30" x="127.246094"/>
       <use xlink:href="#DejaVuSans-30" x="190.869141"/>
       <use xlink:href="#DejaVuSans-30" x="254.492188"/>
      </g>
     </g>
    </g>
    <g id="ytick_5">
     <g id="line2d_16">
      <g>
       <use xlink:href="#mf61b225730" x="46.0125" y="195.963705" style="stroke: #000000; stroke-width: 0.8"/>
      </g>
     </g>
     <g id="text_16">
      <!-- 20000 -->
      <g transform="translate(7.2 199.762924)scale(0.1 -0.1)">
       <use xlink:href="#DejaVuSans-32"/>
       <use xlink:href="#DejaVuSans-30" x="63.623047"/>
       <use xlink:href="#DejaVuSans-30" x="127.246094"/>
       <use xlink:href="#DejaVuSans-30" x="190.869141"/>
       <use xlink:href="#DejaVuSans-30" x="254.492188"/>
      </g>
     </g>
    </g>
    <g id="ytick_6">
     <g id="line2d_17">
      <g>
       <use xlink:href="#mf61b225730" x="46.0125" y="158.48677" style="stroke: #000000; stroke-width: 0.8"/>
      </g>
     </g>
     <g id="text_17">
      <!-- 25000 -->
      <g transform="translate(7.2 162.285989)scale(0.1 -0.1)">
       <use xlink:href="#DejaVuSans-32"/>
       <use xlink:href="#DejaVuSans-35" x="63.623047"/>
       <use xlink:href="#DejaVuSans-30" x="127.246094"/>
       <use xlink:href="#DejaVuSans-30" x="190.869141"/>
       <use xlink:href="#DejaVuSans-30" x="254.492188"/>
      </g>
     </g>
    </g>
    <g id="ytick_7">
     <g id="line2d_18">
      <g>
       <use xlink:href="#mf61b225730" x="46.0125" y="121.009836" style="stroke: #000000; stroke-width: 0.8"/>
      </g>
     </g>
     <g id="text_18">
      <!-- 30000 -->
      <g transform="translate(7.2 124.809054)scale(0.1 -0.1)">
       <defs>
        <path id="DejaVuSans-33" d="M 2597 2516 
Q 3050 2419 3304 2112 
Q 3559 1806 3559 1356 
Q 3559 666 3084 287 
Q 2609 -91 1734 -91 
Q 1441 -91 1130 -33 
Q 819 25 488 141 
L 488 750 
Q 750 597 1062 519 
Q 1375 441 1716 441 
Q 2309 441 2620 675 
Q 2931 909 2931 1356 
Q 2931 1769 2642 2001 
Q 2353 2234 1838 2234 
L 1294 2234 
L 1294 2753 
L 1863 2753 
Q 2328 2753 2575 2939 
Q 2822 3125 2822 3475 
Q 2822 3834 2567 4026 
Q 2313 4219 1838 4219 
Q 1578 4219 1281 4162 
Q 984 4106 628 3988 
L 628 4550 
Q 988 4650 1302 4700 
Q 1616 4750 1894 4750 
Q 2613 4750 3031 4423 
Q 3450 4097 3450 3541 
Q 3450 3153 3228 2886 
Q 3006 2619 2597 2516 
z
" transform="scale(0.015625)"/>
       </defs>
       <use xlink:href="#DejaVuSans-33"/>
       <use xlink:href="#DejaVuSans-30" x="63.623047"/>
       <use xlink:href="#DejaVuSans-30" x="127.246094"/>
       <use xlink:href="#DejaVuSans-30" x="190.869141"/>
       <use xlink:href="#DejaVuSans-30" x="254.492188"/>
      </g>
     </g>
    </g>
    <g id="ytick_8">
     <g id="line2d_19">
      <g>
       <use xlink:href="#mf61b225730" x="46.0125" y="83.532901" style="stroke: #000000; stroke-width: 0.8"/>
      </g>
     </g>
     <g id="text_19">
      <!-- 35000 -->
      <g transform="translate(7.2 87.33212)scale(0.1 -0.1)">
       <use xlink:href="#DejaVuSans-33"/>
       <use xlink:href="#DejaVuSans-35" x="63.623047"/>
       <use xlink:href="#DejaVuSans-30" x="127.246094"/>
       <use xlink:href="#DejaVuSans-30" x="190.869141"/>
       <use xlink:href="#DejaVuSans-30" x="254.492188"/>
      </g>
     </g>
    </g>
    <g id="ytick_9">
     <g id="line2d_20">
      <g>
       <use xlink:href="#mf61b225730" x="46.0125" y="46.055966" style="stroke: #000000; stroke-width: 0.8"/>
      </g>
     </g>
     <g id="text_20">
      <!-- 40000 -->
      <g transform="translate(7.2 49.855185)scale(0.1 -0.1)">
       <use xlink:href="#DejaVuSans-34"/>
       <use xlink:href="#DejaVuSans-30" x="63.623047"/>
       <use xlink:href="#DejaVuSans-30" x="127.246094"/>
       <use xlink:href="#DejaVuSans-30" x="190.869141"/>
       <use xlink:href="#DejaVuSans-30" x="254.492188"/>
      </g>
     </g>
    </g>
   </g>
   <g id="line2d_21">
    <path d="M 106.885227 345.871443 
L 179.0404 345.856453 
L 180.352312 345.706545 
L 181.664224 345.766508 
L 182.976136 345.69905 
L 185.599961 345.721536 
L 186.911873 345.579123 
L 188.223785 345.609105 
L 192.159522 345.279308 
L 194.783346 345.564133 
L 196.095259 344.754631 
L 197.407171 345.841462 
L 198.719083 344.83708 
L 200.030995 345.871443 
L 201.342908 344.769622 
L 202.65482 345.586619 
L 203.966732 345.871443 
L 205.278644 344.417338 
L 206.590556 345.871443 
L 207.902469 344.432329 
L 209.214381 343.233067 
L 210.526293 345.871443 
L 211.838205 343.847689 
L 213.150118 345.459197 
L 214.46203 345.646582 
L 215.773942 344.657191 
L 217.085854 344.184981 
L 218.397766 345.219345 
L 219.709679 344.484797 
L 221.021591 343.975111 
L 222.333503 345.196859 
L 223.645415 344.717154 
L 224.957328 344.567246 
L 226.26924 345.114409 
L 227.581152 343.622827 
L 228.893064 344.852071 
L 230.204976 344.597228 
L 231.516889 345.339271 
L 232.828801 344.229954 
L 234.140713 344.657191 
L 236.764538 344.567246 
L 238.07645 345.89393 
L 239.388362 343.990101 
L 240.700274 345.009474 
L 242.012187 341.546605 
L 243.324099 345.03196 
L 244.636011 344.409843 
L 245.947923 344.679677 
L 247.259835 344.732145 
L 248.571748 345.871443 
L 249.88366 344.095037 
L 251.195572 344.552255 
L 252.507484 345.871443 
L 253.819397 343.08316 
L 255.131309 344.229954 
L 256.443221 344.042569 
L 257.755133 345.871443 
L 259.067045 344.020083 
L 260.378958 344.867062 
L 261.69087 345.136896 
L 264.314694 344.822089 
L 265.626607 344.784612 
L 266.938519 345.871443 
L 268.250431 345.871443 
L 269.562343 343.023196 
L 270.874255 344.927025 
L 272.186168 345.061942 
L 273.49808 343.780231 
L 274.809992 344.072551 
L 276.121904 345.871443 
L 277.433817 343.308021 
L 278.745729 344.829585 
L 281.369553 343.660304 
L 282.681466 343.832698 
L 283.993378 343.547874 
L 285.30529 345.871443 
L 286.617202 344.454815 
L 287.929114 344.140009 
L 289.241027 344.552255 
L 290.552939 345.406729 
L 291.864851 344.214963 
L 293.176763 343.780231 
L 294.488676 345.871443 
L 295.800588 344.357375 
L 297.1125 345.871443 
L 298.424412 343.263049 
L 299.736324 344.357375 
L 301.048237 343.945129 
L 302.360149 344.552255 
L 303.672061 344.971997 
L 304.983973 345.204354 
L 306.295886 343.607837 
L 307.607798 344.207468 
L 308.91971 343.967615 
L 310.231622 344.05756 
L 311.543534 343.562864 
L 312.855447 345.384243 
L 314.167359 345.009474 
L 315.479271 343.795221 
L 316.791183 344.237449 
L 318.103096 344.095037 
L 319.415008 343.645314 
L 320.72692 345.871443 
L 322.038832 345.871443 
L 323.350745 340.055023 
L 324.662657 343.120636 
L 325.974569 342.873289 
L 327.286481 343.427947 
L 328.598393 342.670913 
L 329.910306 342.506015 
L 331.222218 343.86268 
L 332.53413 343.892661 
L 333.846042 341.599073 
L 335.157955 342.468538 
L 336.469867 342.828316 
L 337.781779 341.958851 
L 339.093691 341.531614 
L 340.405603 338.54845 
L 341.717516 343.975111 
L 343.029428 341.029423 
L 344.34134 342.273658 
L 345.653252 341.321744 
L 346.965165 339.987565 
L 348.277077 339.635282 
L 349.588989 343.48791 
L 350.900901 342.093768 
L 352.212813 341.936365 
L 353.524726 341.254285 
L 354.836638 340.931983 
L 356.14855 340.137472 
L 357.460462 341.584082 
L 358.772375 342.408575 
L 360.084287 343.450433 
L 361.396199 340.707122 
L 362.708111 341.793953 
L 364.020024 342.02631 
L 365.331936 341.808944 
L 366.643848 340.010051 
L 367.95576 342.843307 
L 369.267672 343.832698 
L 370.579585 341.83143 
L 371.891497 337.236758 
L 373.203409 340.317362 
L 374.515321 341.284267 
L 375.827234 341.134359 
L 377.139146 345.871443 
L 378.451058 340.167454 
L 379.76297 341.314248 
L 381.074882 341.171836 
L 382.386795 340.624673 
L 383.698707 341.081891 
L 385.010619 339.867639 
L 386.322531 345.871443 
L 387.634444 339.635282 
L 388.946356 340.849534 
L 390.258268 340.909497 
L 391.57018 340.264894 
L 394.194005 339.725226 
L 395.505917 342.468538 
L 396.817829 343.135627 
L 398.129741 339.957583 
L 399.441654 339.830162 
L 400.753566 339.170568 
L 402.065478 339.935097 
L 403.37739 339.972574 
L 404.689303 343.547874 
L 406.001215 343.697781 
L 407.313127 343.96012 
L 408.625039 340.939479 
L 411.248864 338.885743 
L 412.560776 340.542223 
L 415.1846 343.345498 
L 416.496513 340.489756 
L 417.808425 340.144968 
L 419.120337 341.329239 
L 420.432249 340.18994 
L 421.744161 338.540955 
L 423.056074 342.603455 
L 424.367986 343.060673 
L 425.679898 339.770198 
L 426.99181 339.99506 
L 428.303723 341.05191 
L 429.615635 339.065632 
L 430.927547 338.600918 
L 432.239459 342.461042 
L 433.551371 342.51351 
L 434.863284 338.998174 
L 436.175196 338.495983 
L 437.487108 339.21554 
L 438.79902 338.383552 
L 440.110933 336.322321 
L 441.422845 341.254285 
L 442.734757 341.816439 
L 444.046669 338.106223 
L 445.358582 327.934983 
L 446.670494 339.365448 
L 447.982406 338.368561 
L 449.294318 338.458506 
L 450.60623 339.522851 
L 451.918143 341.089387 
L 453.230055 340.167454 
L 454.541967 335.962542 
L 455.853879 337.011896 
L 457.165792 336.044991 
L 458.477704 336.194899 
L 459.789616 339.80018 
L 461.101528 341.074396 
L 462.41344 336.149927 
L 463.725353 334.988142 
L 465.037265 336.104954 
L 466.349177 335.010628 
L 467.661089 332.889433 
L 468.973002 334.913188 
L 470.284914 338.945706 
L 471.596826 332.597113 
L 472.908738 331.95251 
L 474.22065 332.297298 
L 475.532563 331.352879 
L 476.844475 331.053063 
L 478.156387 335.205508 
L 479.468299 338.166186 
L 480.780212 333.061827 
L 482.092124 333.653963 
L 483.404036 328.871906 
L 484.715948 329.171721 
L 486.027861 329.711389 
L 487.339773 337.049373 
L 488.651685 332.911919 
L 489.963597 330.288534 
L 491.275509 325.64889 
L 492.587422 328.36222 
L 493.899334 322.156039 
L 495.211246 321.189134 
L 496.523158 335.010628 
L 497.835071 334.545914 
L 499.146983 324.052372 
L 500.458895 325.296606 
L 501.770807 318.610721 
L 503.082719 317.269047 
L 504.394632 318.123521 
L 505.706544 329.441555 
L 507.018456 329.891279 
L 508.330368 326.338465 
L 509.642281 321.129171 
L 510.954193 345.871443 
L 512.266105 303.77735 
L 513.578017 327.680139 
L 514.889929 325.311597 
L 516.201842 330.011205 
L 517.513754 314.967963 
L 518.825666 318.880555 
L 520.137578 317.126635 
L 521.449491 318.948014 
L 522.761403 316.849305 
L 524.073315 326.630785 
L 525.385227 331.180485 
L 526.697139 322.815633 
L 528.009052 319.877442 
L 529.320964 313.536344 
L 530.632876 318.363373 
L 531.944788 319.337774 
L 533.256701 327.552718 
L 534.568613 332.484682 
L 535.880525 323.924951 
L 537.192437 324.322206 
L 538.50435 320.926796 
L 539.816262 322.118562 
L 541.128174 320.582008 
L 542.440086 332.702049 
L 543.751998 331.060559 
L 545.063911 323.032999 
L 546.375823 323.864987 
L 547.687735 345.871443 
L 548.999647 345.871443 
L 550.31156 306.273314 
L 551.623472 334.628363 
L 552.935384 334.973151 
L 554.247296 323.572667 
L 555.559208 317.613835 
L 556.871121 345.871443 
L 558.183033 345.871443 
L 559.494945 280.594119 
L 560.806857 324.472114 
L 562.11877 328.504632 
L 563.430682 333.181753 
L 564.742594 303.110261 
L 566.054506 309.226497 
L 567.366418 310.365796 
L 568.678331 314.158461 
L 569.990243 321.68383 
L 571.302155 330.266048 
L 572.614067 323.220384 
L 573.92598 311.744947 
L 575.237892 315.417686 
L 576.549804 316.45205 
L 577.861716 322.973036 
L 579.173629 328.257284 
L 580.485541 330.933137 
L 581.797453 329.089272 
L 583.109365 320.282192 
L 584.421277 318.041072 
L 585.73319 325.296606 
L 587.045102 317.471422 
L 588.357014 334.096191 
L 589.668926 333.211735 
L 590.980839 325.693862 
L 592.292751 327.770084 
L 593.604663 323.879978 
L 594.916575 326.375942 
L 596.228487 326.03865 
L 597.5404 332.63459 
L 598.852312 333.751403 
L 600.164224 327.650158 
L 601.476136 326.52585 
L 602.788049 327.185444 
L 604.099961 328.961851 
L 605.411873 330.925642 
L 606.723785 334.351034 
L 608.035697 338.35357 
L 609.34761 328.422183 
L 610.659522 331.547759 
L 611.971434 331.847575 
L 613.283346 335.205508 
L 614.595259 340.144968 
L 615.907171 333.069323 
L 617.219083 340.452279 
L 618.530995 336.569668 
L 619.842908 338.301103 
L 621.15482 338.698358 
L 622.466732 331.195476 
L 623.778644 335.895083 
L 625.090556 338.53346 
L 626.402469 341.906384 
L 627.714381 334.725803 
L 629.026293 336.172413 
L 630.338205 335.0556 
L 631.650118 337.056868 
L 632.96203 338.218653 
L 634.273942 340.812057 
L 635.585854 342.093768 
L 636.897766 337.813903 
L 638.209679 337.08685 
L 639.521591 337.873866 
L 640.833503 339.088118 
L 642.145415 339.582814 
L 643.457328 341.936365 
L 644.76924 343.39047 
L 646.081152 339.297989 
L 647.393064 338.323589 
L 648.704976 336.824511 
L 650.016889 338.675872 
L 651.328801 340.782076 
L 652.640713 342.535996 
L 653.952625 342.910766 
L 655.264538 339.860143 
L 656.57645 338.675872 
L 657.888362 340.047528 
L 659.200274 340.452279 
L 660.512187 341.074396 
L 661.824099 343.502901 
L 663.136011 343.675295 
L 664.447923 339.290494 
L 665.759835 340.66215 
L 667.071748 340.474765 
L 668.38366 341.0669 
L 669.695572 341.291762 
L 671.007484 343.188095 
L 672.319397 343.555369 
L 673.631309 340.324857 
L 674.943221 339.852648 
L 676.255133 338.6309 
L 677.567045 340.737103 
L 678.878958 341.531614 
L 680.19087 343.660304 
L 681.502782 345.046951 
L 682.814694 343.397966 
L 684.126607 338.233644 
L 685.438519 341.171836 
L 686.750431 340.377325 
L 688.062343 342.12375 
L 689.374255 343.135627 
L 690.686168 343.870175 
L 691.99808 339.905115 
L 693.309992 340.070014 
L 694.621904 339.717731 
L 697.245729 341.434174 
L 698.557641 343.810212 
L 699.869553 344.140009 
L 701.181466 341.34423 
L 702.493378 340.025042 
L 703.80529 341.194322 
L 705.117202 341.389202 
L 706.429114 342.258667 
L 707.741027 343.442938 
L 709.052939 344.289917 
L 710.364851 340.519737 
L 711.676763 340.339848 
L 712.988676 339.950088 
L 715.6125 341.044414 
L 716.924412 343.113141 
L 718.236324 343.547874 
L 719.548237 340.085005 
L 722.172061 340.976956 
L 723.483973 341.126864 
L 724.795886 341.808944 
L 726.107798 344.409843 
L 727.41971 344.709658 
L 728.731622 340.197436 
L 730.043534 340.797067 
L 731.355447 340.834543 
L 732.667359 341.726494 
L 733.979271 342.243676 
L 735.291183 343.720267 
L 736.603096 343.742754 
L 737.915008 341.081891 
L 739.22692 341.494137 
L 741.850745 341.816439 
L 743.162657 342.685904 
L 744.474569 344.259935 
L 745.786481 343.900157 
L 747.098393 341.576587 
L 748.410306 342.603455 
L 752.346042 343.00071 
L 753.657955 344.342385 
L 754.969867 345.151886 
L 756.281779 344.844575 
L 757.593691 342.783344 
L 758.905603 342.753362 
L 760.217516 342.056292 
L 761.529428 343.150618 
L 762.84134 345.32428 
L 764.153252 345.609105 
L 765.465165 341.381707 
L 766.777077 343.420452 
L 769.400901 344.147504 
L 770.712813 343.825203 
L 772.024726 345.249326 
L 773.336638 344.904539 
L 774.64855 343.86268 
L 775.960462 344.207468 
L 777.272375 344.132514 
L 778.584287 344.499788 
L 779.896199 344.574742 
L 781.208111 345.249326 
L 782.520024 345.1294 
L 783.831936 344.514778 
L 785.143848 344.672182 
L 786.45576 344.627209 
L 787.767672 344.454815 
L 789.079585 344.679677 
L 790.391497 345.346766 
L 791.703409 345.354262 
L 793.015321 344.319898 
L 794.327234 343.817707 
L 795.639146 344.649695 
L 796.951058 344.672182 
L 798.26297 344.477301 
L 799.574882 345.301794 
L 800.886795 345.316785 
L 802.198707 345.219345 
L 803.510619 343.39047 
L 804.822531 343.615332 
L 807.446356 343.158113 
L 808.758268 344.357375 
L 810.07018 344.6422 
L 811.382092 342.633436 
L 812.694005 341.104377 
L 814.005917 341.868907 
L 815.317829 342.153732 
L 816.629741 342.048796 
L 817.941654 344.222458 
L 819.253566 344.072551 
L 820.565478 338.458506 
L 823.189303 339.140586 
L 824.501215 338.818284 
L 825.813127 338.900734 
L 827.125039 342.093768 
L 828.436951 340.085005 
L 829.748864 336.637127 
L 831.060776 334.261089 
L 833.6846 333.893815 
L 834.996513 334.171144 
L 836.308425 339.103109 
L 837.620337 337.986296 
L 838.932249 332.709544 
L 840.244161 326.923105 
L 841.556074 329.703894 
L 842.867986 326.563327 
L 844.179898 327.942478 
L 845.49181 335.063096 
L 846.803723 336.119945 
L 848.115635 327.545222 
L 849.427547 323.984914 
L 850.739459 325.798797 
L 852.051371 316.534499 
L 853.363284 327.905001 
L 854.675196 328.781961 
L 855.987108 330.236066 
L 857.29902 321.721307 
L 858.610933 319.36026 
L 859.922845 309.691211 
L 861.234757 316.961736 
L 862.546669 320.484568 
L 863.858582 326.158576 
L 865.170494 326.503364 
L 866.482406 311.197784 
L 867.794318 309.563789 
L 869.10623 305.89105 
L 870.418143 309.983531 
L 874.353879 326.278502 
L 875.665792 311.887359 
L 876.977704 308.91169 
L 878.289616 305.156502 
L 880.91344 310.478226 
L 882.225353 320.596999 
L 883.537265 326.848151 
L 884.849177 328.27977 
L 886.161089 312.471999 
L 887.473002 306.565634 
L 888.784914 306.985376 
L 890.096826 312.734338 
L 891.408738 322.583276 
L 892.72065 327.770084 
L 894.032563 315.897391 
L 895.344475 305.478803 
L 896.656387 309.323937 
L 897.968299 307.435099 
L 899.280212 317.381478 
L 900.592124 325.776311 
L 901.904036 330.445937 
L 903.215948 320.72442 
L 904.527861 312.831778 
L 905.839773 315.215311 
L 907.151685 316.407077 
L 908.463597 322.193516 
L 909.775509 334.186135 
L 911.087422 332.971883 
L 912.399334 311.879864 
L 913.711246 316.849305 
L 915.023158 327.260398 
L 916.335071 314.915495 
L 917.646983 327.162958 
L 918.958895 336.876979 
L 920.270807 336.704585 
L 921.582719 326.698244 
L 922.894632 325.821283 
L 924.206544 326.308484 
L 925.518456 329.92126 
L 926.830368 327.934983 
L 928.142281 335.175526 
L 929.454193 340.474765 
L 930.766105 328.324743 
L 932.078017 328.137358 
L 933.389929 328.75198 
L 934.701842 330.925642 
L 936.013754 332.821975 
L 937.325666 339.732722 
L 938.637578 340.804562 
L 939.949491 332.866947 
L 941.261403 331.787611 
L 942.573315 332.53715 
L 943.885227 333.736412 
L 945.197139 336.389779 
L 946.509052 339.905115 
L 947.820964 341.92887 
L 949.132876 334.883206 
L 950.444788 333.331661 
L 951.756701 333.271698 
L 953.068613 333.78888 
L 954.380525 338.840771 
L 955.692437 340.572205 
L 957.00435 341.73399 
L 958.316262 336.614641 
L 959.628174 333.773889 
L 960.940086 335.422874 
L 962.251998 335.460351 
L 963.563911 337.206776 
L 964.875823 341.531614 
L 966.187735 341.239294 
L 967.499647 332.507169 
L 968.81156 331.667685 
L 970.123472 333.549027 
L 971.435384 336.314825 
L 972.747296 334.238603 
L 974.059208 340.332353 
L 975.371121 340.519737 
L 976.683033 332.784498 
L 977.994945 329.801334 
L 979.306857 332.184867 
L 980.61877 337.806407 
L 981.930682 330.580854 
L 983.242594 338.24114 
L 984.554506 339.785189 
L 985.866418 329.936251 
L 987.178331 329.906269 
L 988.490243 330.483414 
L 989.802155 340.099996 
L 991.114067 340.234912 
L 992.42598 338.053755 
L 993.737892 338.878247 
L 995.049804 327.005555 
L 996.361716 321.144162 
L 997.673629 324.959314 
L 998.985541 324.876865 
L 1000.297453 328.324743 
L 1001.609365 336.921951 
L 1002.921277 335.797643 
L 1004.23319 325.469 
L 1005.545102 323.317824 
L 1006.857014 325.469 
L 1008.168926 325.169185 
L 1009.480839 328.602072 
L 1010.792751 338.458506 
L 1012.104663 337.776426 
L 1013.416575 326.870638 
L 1014.728487 324.157308 
L 1016.0404 327.147967 
L 1017.352312 327.290379 
L 1018.664224 326.62329 
L 1019.976136 334.396006 
L 1021.288049 336.787034 
L 1022.599961 326.803179 
L 1023.911873 324.179794 
L 1025.223785 345.871443 
L 1029.159522 345.871443 
L 1030.471434 271.382288 
L 1031.783346 313.993563 
L 1033.095259 304.549375 
L 1034.407171 345.871443 
L 1038.342908 345.871443 
L 1039.65482 174.137138 
L 1040.966732 296.281964 
L 1042.278644 273.188676 
L 1043.590556 274.32048 
L 1044.902469 263.684526 
L 1046.214381 345.871443 
L 1047.526293 345.871443 
L 1048.838205 220.915848 
L 1050.150118 275.159963 
L 1051.46203 263.647049 
L 1052.773942 278.030696 
L 1054.085854 245.890477 
L 1055.397766 345.871443 
L 1058.021591 345.871443 
L 1059.333503 50.8755 
L 1060.645415 253.183489 
L 1061.957328 245.800533 
L 1063.26924 226.964625 
L 1064.581152 345.871443 
L 1065.893064 345.871443 
L 1067.204976 130.251648 
L 1068.516889 233.095852 
L 1069.828801 251.774356 
L 1071.140713 251.954245 
L 1072.452625 228.148896 
L 1073.764538 345.871443 
L 1075.07645 345.871443 
L 1076.388362 198.429687 
L 1077.700274 281.868334 
L 1079.012187 290.607956 
L 1080.324099 278.705281 
L 1081.636011 283.269972 
L 1082.947923 345.871443 
L 1084.259835 345.871443 
L 1085.571748 253.768129 
L 1086.88366 296.289459 
L 1088.195572 285.780926 
L 1089.507484 293.890935 
L 1090.819397 310.950436 
L 1092.131309 345.871443 
L 1093.443221 345.871443 
L 1094.755133 287.272508 
L 1096.067045 315.710006 
L 1097.378958 307.442595 
L 1098.69087 309.631248 
L 1100.002782 313.296492 
L 1101.314694 345.871443 
L 1102.626607 345.871443 
L 1103.938519 301.783578 
L 1105.250431 321.413996 
L 1106.562343 325.888742 
L 1107.874255 345.871443 
L 1109.186168 312.719347 
L 1110.49808 345.871443 
L 1111.809992 345.871443 
L 1113.121904 325.851265 
L 1114.433817 325.206662 
L 1115.745729 328.579586 
L 1117.057641 329.066786 
L 1118.369553 330.58835 
L 1119.681466 345.871443 
L 1124.929114 345.871443 
L 1126.241027 330.813211 
L 1127.552939 345.871443 
L 1134.1125 345.871443 
L 1135.424412 274.425415 
L 1136.736324 345.871443 
L 1139.360149 345.871443 
L 1140.672061 281.118796 
L 1141.983973 345.871443 
L 1148.543534 345.871443 
L 1149.855447 304.421954 
L 1151.167359 345.871443 
L 1153.791183 345.871443 
L 1155.103096 325.049259 
L 1156.415008 342.213695 
L 1157.72692 345.871443 
L 1159.038832 340.75959 
L 1160.350745 345.871443 
L 1161.662657 339.425411 
L 1162.974569 340.842039 
L 1165.598393 342.236181 
L 1166.910306 345.871443 
L 1168.222218 341.958851 
L 1169.53413 344.102532 
L 1170.846042 340.062519 
L 1172.157955 341.591578 
L 1173.469867 341.973842 
L 1174.781779 341.748981 
L 1176.093691 345.871443 
L 1177.405603 341.336734 
L 1178.717516 343.967615 
L 1180.029428 341.801448 
L 1181.34134 341.546605 
L 1182.653252 342.580969 
L 1183.965165 341.958851 
L 1185.277077 345.871443 
L 1186.588989 340.317362 
L 1187.900901 344.184981 
L 1189.212813 341.254285 
L 1190.524726 341.921375 
L 1191.836638 345.871443 
L 1193.14855 338.840771 
L 1194.460462 345.871443 
L 1195.772375 338.308598 
L 1197.084287 343.480415 
L 1198.396199 341.036919 
L 1199.708111 339.41042 
L 1201.020024 342.446052 
L 1202.331936 340.159959 
L 1203.643848 345.871443 
L 1204.95576 339.035651 
L 1206.267672 342.880784 
L 1207.579585 339.170568 
L 1208.891497 339.297989 
L 1210.203409 333.796375 
L 1211.515321 340.512242 
L 1212.827234 345.871443 
L 1214.139146 331.277925 
L 1215.451058 341.359221 
L 1216.76297 335.805139 
L 1218.074882 334.051218 
L 1219.386795 335.947551 
L 1220.698707 332.889433 
L 1222.010619 345.871443 
L 1223.322531 334.261089 
L 1224.634444 341.14935 
L 1225.946356 336.869484 
L 1227.258268 335.280462 
L 1228.57018 336.704585 
L 1229.882092 345.871443 
L 1232.505917 345.871443 
L 1233.817829 325.836274 
L 1235.129741 333.459083 
L 1237.753566 332.334775 
L 1239.065478 332.642086 
L 1240.37739 345.871443 
L 1241.689303 324.854379 
L 1243.001215 337.364179 
L 1244.313127 329.748866 
L 1245.625039 325.513973 
L 1246.936951 327.620176 
L 1248.248864 327.627672 
L 1249.560776 345.871443 
L 1250.872688 326.188557 
L 1252.1846 340.737103 
L 1253.496513 333.001864 
L 1254.808425 330.610836 
L 1256.120337 331.967501 
L 1257.432249 345.871443 
L 1258.744161 345.871443 
L 1260.056074 316.84181 
L 1261.367986 337.926333 
L 1262.679898 336.906961 
L 1263.99181 330.873174 
L 1265.303723 324.119831 
L 1266.615635 331.585236 
L 1267.927547 345.871443 
L 1269.239459 335.160536 
L 1270.551371 345.871443 
L 1271.863284 323.692594 
L 1273.175196 331.85507 
L 1274.487108 334.418492 
L 1275.79902 345.871443 
L 1278.422845 345.871443 
L 1279.734757 317.006708 
L 1281.046669 333.1068 
L 1282.358582 330.828202 
L 1283.670494 329.808829 
L 1284.982406 345.871443 
L 1286.294318 345.871443 
L 1287.60623 307.674952 
L 1288.918143 337.064364 
L 1290.230055 331.705162 
L 1291.541967 332.477187 
L 1292.853879 330.865679 
L 1294.165792 345.871443 
L 1295.477704 345.871443 
L 1296.789616 301.318864 
L 1298.101528 338.361066 
L 1299.41344 322.568285 
L 1300.725353 316.45205 
L 1302.037265 317.786229 
L 1303.349177 345.871443 
L 1304.661089 345.871443 
L 1305.973002 290.285654 
L 1307.284914 333.863834 
L 1307.284914 333.863834 
" clip-path="url(#p7f42fa4a1d)" style="fill: none; stroke: #0000ff; stroke-width: 1.5; stroke-linecap: square"/>
   </g>
   <g id="line2d_22">
    <path d="M 1067.204976 167.418568 
L 1068.516889 234.829645 
L 1069.828801 242.852026 
L 1071.140713 220.058633 
L 1072.452625 299.028599 
L 1073.764538 296.888695 
L 1075.07645 200.230952 
L 1076.388362 217.096126 
L 1077.700274 251.329263 
L 1079.012187 260.110285 
L 1080.324099 249.397443 
L 1081.636011 327.228813 
L 1082.947923 332.019711 
L 1084.259835 239.84473 
L 1085.571748 282.007594 
L 1086.88366 297.818838 
L 1088.195572 296.021669 
L 1089.507484 292.840243 
L 1090.819397 340.794807 
L 1092.131309 341.556281 
L 1093.443221 273.915872 
L 1094.755133 305.643886 
L 1096.067045 306.543132 
L 1097.378958 310.115556 
L 1098.69087 317.954556 
L 1100.002782 348.554401 
L 1101.314694 347.712904 
L 1102.626607 300.973066 
L 1103.938519 321.841054 
L 1105.250431 318.292155 
L 1106.562343 319.279319 
L 1107.874255 322.484458 
L 1109.186168 350.176443 
L 1110.49808 350.097704 
L 1111.809992 318.181129 
L 1113.121904 330.325504 
L 1114.433817 332.429414 
L 1115.745729 341.042255 
L 1117.057641 328.771509 
L 1118.369553 347.590497 
L 1119.681466 347.606817 
L 1120.993378 327.924187 
L 1122.30529 331.502297 
L 1123.617202 334.676266 
L 1124.929114 339.256783 
L 1126.241027 339.653353 
L 1127.552939 351.878171 
L 1128.864851 353.2755 
L 1130.176763 346.119269 
L 1131.488676 347.111542 
L 1132.800588 346.906556 
L 1134.1125 340.849561 
L 1135.424412 350.45772 
L 1136.736324 345.211956 
L 1138.048237 343.3446 
L 1139.360149 336.305562 
L 1140.672061 342.585495 
L 1141.983973 335.116888 
L 1143.295886 301.611673 
L 1144.607798 328.43117 
L 1145.91971 337.412914 
L 1147.231622 341.022313 
L 1148.543534 316.793313 
L 1149.855447 345.978764 
L 1151.167359 344.271217 
L 1152.479271 334.022636 
L 1153.791183 342.457186 
L 1155.103096 346.070758 
L 1156.415008 344.187242 
L 1157.72692 317.469327 
L 1159.038832 340.888555 
L 1160.350745 344.272309 
L 1161.662657 342.96725 
L 1162.974569 338.332332 
L 1164.286481 344.732678 
L 1165.598393 346.2513 
L 1166.910306 335.628359 
L 1168.222218 345.875084 
L 1169.53413 343.794074 
L 1170.846042 343.594845 
L 1172.157955 342.125103 
L 1174.781779 345.928164 
L 1176.093691 340.74358 
L 1177.405603 344.822005 
L 1178.717516 342.186436 
L 1180.029428 342.734595 
L 1181.34134 342.486666 
L 1182.653252 342.917169 
L 1183.965165 345.37291 
L 1185.277077 341.695544 
L 1186.588989 344.266381 
L 1187.900901 342.275956 
L 1190.524726 342.554406 
L 1191.836638 342.24827 
L 1193.14855 345.273114 
L 1194.460462 341.357314 
L 1195.772375 344.244693 
L 1197.084287 341.684811 
L 1198.396199 342.033203 
L 1199.708111 343.651995 
L 1201.020024 340.349404 
L 1202.331936 343.898289 
L 1203.643848 339.233411 
L 1204.95576 342.487272 
L 1206.267672 340.90171 
L 1207.579585 340.615666 
L 1208.891497 342.228041 
L 1210.203409 340.633914 
L 1211.515321 342.890807 
L 1212.827234 338.241231 
L 1214.139146 341.054299 
L 1215.451058 338.308883 
L 1216.76297 338.51146 
L 1218.074882 335.971632 
L 1219.386795 337.858849 
L 1220.698707 341.324356 
L 1222.010619 332.482566 
L 1223.322531 338.228338 
L 1224.634444 334.969278 
L 1225.946356 335.036733 
L 1227.258268 335.578764 
L 1228.57018 335.117745 
L 1229.882092 341.297889 
L 1231.194005 335.183083 
L 1232.505917 339.988218 
L 1233.817829 340.481873 
L 1235.129741 338.096745 
L 1236.441654 338.503263 
L 1237.753566 340.278276 
L 1239.065478 341.797435 
L 1240.37739 338.011049 
L 1241.689303 331.767126 
L 1243.001215 331.657579 
L 1244.313127 332.431487 
L 1245.625039 331.479986 
L 1246.936951 332.892708 
L 1248.248864 338.5406 
L 1249.560776 327.049266 
L 1250.872688 331.15565 
L 1252.1846 327.806983 
L 1253.496513 327.625615 
L 1254.808425 328.900482 
L 1256.120337 330.371896 
L 1257.432249 339.768392 
L 1258.744161 330.205375 
L 1260.056074 339.525418 
L 1261.367986 334.810935 
L 1262.679898 332.484282 
L 1263.99181 332.408177 
L 1265.303723 339.207408 
L 1266.615635 341.773854 
L 1267.927547 324.05268 
L 1269.239459 334.519471 
L 1270.551371 333.494534 
L 1271.863284 333.433649 
L 1273.175196 330.402463 
L 1274.487108 335.301701 
L 1275.79902 341.047265 
L 1277.110933 333.017739 
L 1278.422845 341.623825 
L 1279.734757 335.65642 
L 1281.046669 335.021087 
L 1282.358582 335.58052 
L 1283.670494 339.4005 
L 1284.982406 340.996129 
L 1286.294318 338.452281 
L 1287.60623 330.897028 
L 1288.918143 330.718222 
L 1290.230055 330.983105 
L 1291.541967 328.183177 
L 1292.853879 338.783425 
L 1294.165792 339.369526 
L 1295.477704 322.722953 
L 1296.789616 334.760263 
L 1298.101528 330.950472 
L 1299.41344 332.132252 
L 1300.725353 329.229814 
L 1302.037265 337.828323 
L 1303.349177 334.928607 
L 1304.661089 309.740991 
L 1305.973002 331.233241 
L 1307.284914 322.429844 
L 1307.284914 322.429844 
" clip-path="url(#p7f42fa4a1d)" style="fill: none; stroke: #ffa500; stroke-width: 1.5; stroke-linecap: square"/>
   </g>
   <g id="line2d_23">
    <path d="M 1307.284914 322.429844 
L 1308.596826 320.484465 
L 1309.908738 318.872958 
L 1311.22065 334.694574 
L 1312.532563 334.745725 
L 1313.844475 303.246037 
L 1315.156387 327.805527 
L 1316.468299 320.682511 
L 1317.780212 319.061537 
L 1319.092124 318.471083 
L 1320.404036 329.877754 
L 1321.715948 329.918278 
L 1323.027861 306.666034 
L 1324.339773 324.809409 
" clip-path="url(#p7f42fa4a1d)" style="fill: none; stroke: #ff0000; stroke-width: 1.5; stroke-linecap: square"/>
   </g>
   <g id="patch_3">
    <path d="M 46.0125 368.3955 
L 46.0125 35.7555 
" style="fill: none; stroke: #000000; stroke-width: 0.8; stroke-linejoin: miter; stroke-linecap: square"/>
   </g>
   <g id="patch_4">
    <path d="M 1385.2125 368.3955 
L 1385.2125 35.7555 
" style="fill: none; stroke: #000000; stroke-width: 0.8; stroke-linejoin: miter; stroke-linecap: square"/>
   </g>
   <g id="patch_5">
    <path d="M 46.0125 368.3955 
L 1385.2125 368.3955 
" style="fill: none; stroke: #000000; stroke-width: 0.8; stroke-linejoin: miter; stroke-linecap: square"/>
   </g>
   <g id="patch_6">
    <path d="M 46.0125 35.7555 
L 1385.2125 35.7555 
" style="fill: none; stroke: #000000; stroke-width: 0.8; stroke-linejoin: miter; stroke-linecap: square"/>
   </g>
   <g id="text_21">
    <!-- Daily Confirmed Cases Forecasting - Kentucky -->
    <g transform="translate(577.72125 16.318125)scale(0.12 -0.12)">
     <defs>
      <path id="DejaVuSans-44" d="M 1259 4147 
L 1259 519 
L 2022 519 
Q 2988 519 3436 956 
Q 3884 1394 3884 2338 
Q 3884 3275 3436 3711 
Q 2988 4147 2022 4147 
L 1259 4147 
z
M 628 4666 
L 1925 4666 
Q 3281 4666 3915 4102 
Q 4550 3538 4550 2338 
Q 4550 1131 3912 565 
Q 3275 0 1925 0 
L 628 0 
L 628 4666 
z
" transform="scale(0.015625)"/>
      <path id="DejaVuSans-61" d="M 2194 1759 
Q 1497 1759 1228 1600 
Q 959 1441 959 1056 
Q 959 750 1161 570 
Q 1363 391 1709 391 
Q 2188 391 2477 730 
Q 2766 1069 2766 1631 
L 2766 1759 
L 2194 1759 
z
M 3341 1997 
L 3341 0 
L 2766 0 
L 2766 531 
Q 2569 213 2275 61 
Q 1981 -91 1556 -91 
Q 1019 -91 701 211 
Q 384 513 384 1019 
Q 384 1609 779 1909 
Q 1175 2209 1959 2209 
L 2766 2209 
L 2766 2266 
Q 2766 2663 2505 2880 
Q 2244 3097 1772 3097 
Q 1472 3097 1187 3025 
Q 903 2953 641 2809 
L 641 3341 
Q 956 3463 1253 3523 
Q 1550 3584 1831 3584 
Q 2591 3584 2966 3190 
Q 3341 2797 3341 1997 
z
" transform="scale(0.015625)"/>
      <path id="DejaVuSans-69" d="M 603 3500 
L 1178 3500 
L 1178 0 
L 603 0 
L 603 3500 
z
M 603 4863 
L 1178 4863 
L 1178 4134 
L 603 4134 
L 603 4863 
z
" transform="scale(0.015625)"/>
      <path id="DejaVuSans-6c" d="M 603 4863 
L 1178 4863 
L 1178 0 
L 603 0 
L 603 4863 
z
" transform="scale(0.015625)"/>
      <path id="DejaVuSans-79" d="M 2059 -325 
Q 1816 -950 1584 -1140 
Q 1353 -1331 966 -1331 
L 506 -1331 
L 506 -850 
L 844 -850 
Q 1081 -850 1212 -737 
Q 1344 -625 1503 -206 
L 1606 56 
L 191 3500 
L 800 3500 
L 1894 763 
L 2988 3500 
L 3597 3500 
L 2059 -325 
z
" transform="scale(0.015625)"/>
      <path id="DejaVuSans-20" transform="scale(0.015625)"/>
      <path id="DejaVuSans-43" d="M 4122 4306 
L 4122 3641 
Q 3803 3938 3442 4084 
Q 3081 4231 2675 4231 
Q 1875 4231 1450 3742 
Q 1025 3253 1025 2328 
Q 1025 1406 1450 917 
Q 1875 428 2675 428 
Q 3081 428 3442 575 
Q 3803 722 4122 1019 
L 4122 359 
Q 3791 134 3420 21 
Q 3050 -91 2638 -91 
Q 1578 -91 968 557 
Q 359 1206 359 2328 
Q 359 3453 968 4101 
Q 1578 4750 2638 4750 
Q 3056 4750 3426 4639 
Q 3797 4528 4122 4306 
z
" transform="scale(0.015625)"/>
      <path id="DejaVuSans-6f" d="M 1959 3097 
Q 1497 3097 1228 2736 
Q 959 2375 959 1747 
Q 959 1119 1226 758 
Q 1494 397 1959 397 
Q 2419 397 2687 759 
Q 2956 1122 2956 1747 
Q 2956 2369 2687 2733 
Q 2419 3097 1959 3097 
z
M 1959 3584 
Q 2709 3584 3137 3096 
Q 3566 2609 3566 1747 
Q 3566 888 3137 398 
Q 2709 -91 1959 -91 
Q 1206 -91 779 398 
Q 353 888 353 1747 
Q 353 2609 779 3096 
Q 1206 3584 1959 3584 
z
" transform="scale(0.015625)"/>
      <path id="DejaVuSans-6e" d="M 3513 2113 
L 3513 0 
L 2938 0 
L 2938 2094 
Q 2938 2591 2744 2837 
Q 2550 3084 2163 3084 
Q 1697 3084 1428 2787 
Q 1159 2491 1159 1978 
L 1159 0 
L 581 0 
L 581 3500 
L 1159 3500 
L 1159 2956 
Q 1366 3272 1645 3428 
Q 1925 3584 2291 3584 
Q 2894 3584 3203 3211 
Q 3513 2838 3513 2113 
z
" transform="scale(0.015625)"/>
      <path id="DejaVuSans-66" d="M 2375 4863 
L 2375 4384 
L 1825 4384 
Q 1516 4384 1395 4259 
Q 1275 4134 1275 3809 
L 1275 3500 
L 2222 3500 
L 2222 3053 
L 1275 3053 
L 1275 0 
L 697 0 
L 697 3053 
L 147 3053 
L 147 3500 
L 697 3500 
L 697 3744 
Q 697 4328 969 4595 
Q 1241 4863 1831 4863 
L 2375 4863 
z
" transform="scale(0.015625)"/>
      <path id="DejaVuSans-72" d="M 2631 2963 
Q 2534 3019 2420 3045 
Q 2306 3072 2169 3072 
Q 1681 3072 1420 2755 
Q 1159 2438 1159 1844 
L 1159 0 
L 581 0 
L 581 3500 
L 1159 3500 
L 1159 2956 
Q 1341 3275 1631 3429 
Q 1922 3584 2338 3584 
Q 2397 3584 2469 3576 
Q 2541 3569 2628 3553 
L 2631 2963 
z
" transform="scale(0.015625)"/>
      <path id="DejaVuSans-6d" d="M 3328 2828 
Q 3544 3216 3844 3400 
Q 4144 3584 4550 3584 
Q 5097 3584 5394 3201 
Q 5691 2819 5691 2113 
L 5691 0 
L 5113 0 
L 5113 2094 
Q 5113 2597 4934 2840 
Q 4756 3084 4391 3084 
Q 3944 3084 3684 2787 
Q 3425 2491 3425 1978 
L 3425 0 
L 2847 0 
L 2847 2094 
Q 2847 2600 2669 2842 
Q 2491 3084 2119 3084 
Q 1678 3084 1418 2786 
Q 1159 2488 1159 1978 
L 1159 0 
L 581 0 
L 581 3500 
L 1159 3500 
L 1159 2956 
Q 1356 3278 1631 3431 
Q 1906 3584 2284 3584 
Q 2666 3584 2933 3390 
Q 3200 3197 3328 2828 
z
" transform="scale(0.015625)"/>
      <path id="DejaVuSans-65" d="M 3597 1894 
L 3597 1613 
L 953 1613 
Q 991 1019 1311 708 
Q 1631 397 2203 397 
Q 2534 397 2845 478 
Q 3156 559 3463 722 
L 3463 178 
Q 3153 47 2828 -22 
Q 2503 -91 2169 -91 
Q 1331 -91 842 396 
Q 353 884 353 1716 
Q 353 2575 817 3079 
Q 1281 3584 2069 3584 
Q 2775 3584 3186 3129 
Q 3597 2675 3597 1894 
z
M 3022 2063 
Q 3016 2534 2758 2815 
Q 2500 3097 2075 3097 
Q 1594 3097 1305 2825 
Q 1016 2553 972 2059 
L 3022 2063 
z
" transform="scale(0.015625)"/>
      <path id="DejaVuSans-64" d="M 2906 2969 
L 2906 4863 
L 3481 4863 
L 3481 0 
L 2906 0 
L 2906 525 
Q 2725 213 2448 61 
Q 2172 -91 1784 -91 
Q 1150 -91 751 415 
Q 353 922 353 1747 
Q 353 2572 751 3078 
Q 1150 3584 1784 3584 
Q 2172 3584 2448 3432 
Q 2725 3281 2906 2969 
z
M 947 1747 
Q 947 1113 1208 752 
Q 1469 391 1925 391 
Q 2381 391 2643 752 
Q 2906 1113 2906 1747 
Q 2906 2381 2643 2742 
Q 2381 3103 1925 3103 
Q 1469 3103 1208 2742 
Q 947 2381 947 1747 
z
" transform="scale(0.015625)"/>
      <path id="DejaVuSans-73" d="M 2834 3397 
L 2834 2853 
Q 2591 2978 2328 3040 
Q 2066 3103 1784 3103 
Q 1356 3103 1142 2972 
Q 928 2841 928 2578 
Q 928 2378 1081 2264 
Q 1234 2150 1697 2047 
L 1894 2003 
Q 2506 1872 2764 1633 
Q 3022 1394 3022 966 
Q 3022 478 2636 193 
Q 2250 -91 1575 -91 
Q 1294 -91 989 -36 
Q 684 19 347 128 
L 347 722 
Q 666 556 975 473 
Q 1284 391 1588 391 
Q 1994 391 2212 530 
Q 2431 669 2431 922 
Q 2431 1156 2273 1281 
Q 2116 1406 1581 1522 
L 1381 1569 
Q 847 1681 609 1914 
Q 372 2147 372 2553 
Q 372 3047 722 3315 
Q 1072 3584 1716 3584 
Q 2034 3584 2315 3537 
Q 2597 3491 2834 3397 
z
" transform="scale(0.015625)"/>
      <path id="DejaVuSans-46" d="M 628 4666 
L 3309 4666 
L 3309 4134 
L 1259 4134 
L 1259 2759 
L 3109 2759 
L 3109 2228 
L 1259 2228 
L 1259 0 
L 628 0 
L 628 4666 
z
" transform="scale(0.015625)"/>
      <path id="DejaVuSans-63" d="M 3122 3366 
L 3122 2828 
Q 2878 2963 2633 3030 
Q 2388 3097 2138 3097 
Q 1578 3097 1268 2742 
Q 959 2388 959 1747 
Q 959 1106 1268 751 
Q 1578 397 2138 397 
Q 2388 397 2633 464 
Q 2878 531 3122 666 
L 3122 134 
Q 2881 22 2623 -34 
Q 2366 -91 2075 -91 
Q 1284 -91 818 406 
Q 353 903 353 1747 
Q 353 2603 823 3093 
Q 1294 3584 2113 3584 
Q 2378 3584 2631 3529 
Q 2884 3475 3122 3366 
z
" transform="scale(0.015625)"/>
      <path id="DejaVuSans-74" d="M 1172 4494 
L 1172 3500 
L 2356 3500 
L 2356 3053 
L 1172 3053 
L 1172 1153 
Q 1172 725 1289 603 
Q 1406 481 1766 481 
L 2356 481 
L 2356 0 
L 1766 0 
Q 1100 0 847 248 
Q 594 497 594 1153 
L 594 3053 
L 172 3053 
L 172 3500 
L 594 3500 
L 594 4494 
L 1172 4494 
z
" transform="scale(0.015625)"/>
      <path id="DejaVuSans-67" d="M 2906 1791 
Q 2906 2416 2648 2759 
Q 2391 3103 1925 3103 
Q 1463 3103 1205 2759 
Q 947 2416 947 1791 
Q 947 1169 1205 825 
Q 1463 481 1925 481 
Q 2391 481 2648 825 
Q 2906 1169 2906 1791 
z
M 3481 434 
Q 3481 -459 3084 -895 
Q 2688 -1331 1869 -1331 
Q 1566 -1331 1297 -1286 
Q 1028 -1241 775 -1147 
L 775 -588 
Q 1028 -725 1275 -790 
Q 1522 -856 1778 -856 
Q 2344 -856 2625 -561 
Q 2906 -266 2906 331 
L 2906 616 
Q 2728 306 2450 153 
Q 2172 0 1784 0 
Q 1141 0 747 490 
Q 353 981 353 1791 
Q 353 2603 747 3093 
Q 1141 3584 1784 3584 
Q 2172 3584 2450 3431 
Q 2728 3278 2906 2969 
L 2906 3500 
L 3481 3500 
L 3481 434 
z
" transform="scale(0.015625)"/>
      <path id="DejaVuSans-4b" d="M 628 4666 
L 1259 4666 
L 1259 2694 
L 3353 4666 
L 4166 4666 
L 1850 2491 
L 4331 0 
L 3500 0 
L 1259 2247 
L 1259 0 
L 628 0 
L 628 4666 
z
" transform="scale(0.015625)"/>
      <path id="DejaVuSans-75" d="M 544 1381 
L 544 3500 
L 1119 3500 
L 1119 1403 
Q 1119 906 1312 657 
Q 1506 409 1894 409 
Q 2359 409 2629 706 
Q 2900 1003 2900 1516 
L 2900 3500 
L 3475 3500 
L 3475 0 
L 2900 0 
L 2900 538 
Q 2691 219 2414 64 
Q 2138 -91 1772 -91 
Q 1169 -91 856 284 
Q 544 659 544 1381 
z
M 1991 3584 
L 1991 3584 
z
" transform="scale(0.015625)"/>
      <path id="DejaVuSans-6b" d="M 581 4863 
L 1159 4863 
L 1159 1991 
L 2875 3500 
L 3609 3500 
L 1753 1863 
L 3688 0 
L 2938 0 
L 1159 1709 
L 1159 0 
L 581 0 
L 581 4863 
z
" transform="scale(0.015625)"/>
     </defs>
     <use xlink:href="#DejaVuSans-44"/>
     <use xlink:href="#DejaVuSans-61" x="77.001953"/>
     <use xlink:href="#DejaVuSans-69" x="138.28125"/>
     <use xlink:href="#DejaVuSans-6c" x="166.064453"/>
     <use xlink:href="#DejaVuSans-79" x="193.847656"/>
     <use xlink:href="#DejaVuSans-20" x="253.027344"/>
     <use xlink:href="#DejaVuSans-43" x="284.814453"/>
     <use xlink:href="#DejaVuSans-6f" x="354.638672"/>
     <use xlink:href="#DejaVuSans-6e" x="415.820312"/>
     <use xlink:href="#DejaVuSans-66" x="479.199219"/>
     <use xlink:href="#DejaVuSans-69" x="514.404297"/>
     <use xlink:href="#DejaVuSans-72" x="542.1875"/>
     <use xlink:href="#DejaVuSans-6d" x="581.550781"/>
     <use xlink:href="#DejaVuSans-65" x="678.962891"/>
     <use xlink:href="#DejaVuSans-64" x="740.486328"/>
     <use xlink:href="#DejaVuSans-20" x="803.962891"/>
     <use xlink:href="#DejaVuSans-43" x="835.75"/>
     <use xlink:href="#DejaVuSans-61" x="905.574219"/>
     <use xlink:href="#DejaVuSans-73" x="966.853516"/>
     <use xlink:href="#DejaVuSans-65" x="1018.953125"/>
     <use xlink:href="#DejaVuSans-73" x="1080.476562"/>
     <use xlink:href="#DejaVuSans-20" x="1132.576172"/>
     <use xlink:href="#DejaVuSans-46" x="1164.363281"/>
     <use xlink:href="#DejaVuSans-6f" x="1218.257812"/>
     <use xlink:href="#DejaVuSans-72" x="1279.439453"/>
     <use xlink:href="#DejaVuSans-65" x="1318.302734"/>
     <use xlink:href="#DejaVuSans-63" x="1379.826172"/>
     <use xlink:href="#DejaVuSans-61" x="1434.806641"/>
     <use xlink:href="#DejaVuSans-73" x="1496.085938"/>
     <use xlink:href="#DejaVuSans-74" x="1548.185547"/>
     <use xlink:href="#DejaVuSans-69" x="1587.394531"/>
     <use xlink:href="#DejaVuSans-6e" x="1615.177734"/>
     <use xlink:href="#DejaVuSans-67" x="1678.556641"/>
     <use xlink:href="#DejaVuSans-20" x="1742.033203"/>
     <use xlink:href="#DejaVuSans-2d" x="1773.820312"/>
     <use xlink:href="#DejaVuSans-20" x="1809.904297"/>
     <use xlink:href="#DejaVuSans-4b" x="1841.691406"/>
     <use xlink:href="#DejaVuSans-65" x="1902.267578"/>
     <use xlink:href="#DejaVuSans-6e" x="1963.791016"/>
     <use xlink:href="#DejaVuSans-74" x="2027.169922"/>
     <use xlink:href="#DejaVuSans-75" x="2066.378906"/>
     <use xlink:href="#DejaVuSans-63" x="2129.757812"/>
     <use xlink:href="#DejaVuSans-6b" x="2184.738281"/>
     <use xlink:href="#DejaVuSans-79" x="2239.023438"/>
    </g>
    <!-- ARIMA (3, 1, 1)x(1, 0, 1, 7) (R2 = 0.370974) -->
    <g transform="translate(583.628438 29.7555)scale(0.12 -0.12)">
     <defs>
      <path id="DejaVuSans-41" d="M 2188 4044 
L 1331 1722 
L 3047 1722 
L 2188 4044 
z
M 1831 4666 
L 2547 4666 
L 4325 0 
L 3669 0 
L 3244 1197 
L 1141 1197 
L 716 0 
L 50 0 
L 1831 4666 
z
" transform="scale(0.015625)"/>
      <path id="DejaVuSans-52" d="M 2841 2188 
Q 3044 2119 3236 1894 
Q 3428 1669 3622 1275 
L 4263 0 
L 3584 0 
L 2988 1197 
Q 2756 1666 2539 1819 
Q 2322 1972 1947 1972 
L 1259 1972 
L 1259 0 
L 628 0 
L 628 4666 
L 2053 4666 
Q 2853 4666 3247 4331 
Q 3641 3997 3641 3322 
Q 3641 2881 3436 2590 
Q 3231 2300 2841 2188 
z
M 1259 4147 
L 1259 2491 
L 2053 2491 
Q 2509 2491 2742 2702 
Q 2975 2913 2975 3322 
Q 2975 3731 2742 3939 
Q 2509 4147 2053 4147 
L 1259 4147 
z
" transform="scale(0.015625)"/>
      <path id="DejaVuSans-49" d="M 628 4666 
L 1259 4666 
L 1259 0 
L 628 0 
L 628 4666 
z
" transform="scale(0.015625)"/>
      <path id="DejaVuSans-4d" d="M 628 4666 
L 1569 4666 
L 2759 1491 
L 3956 4666 
L 4897 4666 
L 4897 0 
L 4281 0 
L 4281 4097 
L 3078 897 
L 2444 897 
L 1241 4097 
L 1241 0 
L 628 0 
L 628 4666 
z
" transform="scale(0.015625)"/>
      <path id="DejaVuSans-28" d="M 1984 4856 
Q 1566 4138 1362 3434 
Q 1159 2731 1159 2009 
Q 1159 1288 1364 580 
Q 1569 -128 1984 -844 
L 1484 -844 
Q 1016 -109 783 600 
Q 550 1309 550 2009 
Q 550 2706 781 3412 
Q 1013 4119 1484 4856 
L 1984 4856 
z
" transform="scale(0.015625)"/>
      <path id="DejaVuSans-2c" d="M 750 794 
L 1409 794 
L 1409 256 
L 897 -744 
L 494 -744 
L 750 256 
L 750 794 
z
" transform="scale(0.015625)"/>
      <path id="DejaVuSans-29" d="M 513 4856 
L 1013 4856 
Q 1481 4119 1714 3412 
Q 1947 2706 1947 2009 
Q 1947 1309 1714 600 
Q 1481 -109 1013 -844 
L 513 -844 
Q 928 -128 1133 580 
Q 1338 1288 1338 2009 
Q 1338 2731 1133 3434 
Q 928 4138 513 4856 
z
" transform="scale(0.015625)"/>
      <path id="DejaVuSans-78" d="M 3513 3500 
L 2247 1797 
L 3578 0 
L 2900 0 
L 1881 1375 
L 863 0 
L 184 0 
L 1544 1831 
L 300 3500 
L 978 3500 
L 1906 2253 
L 2834 3500 
L 3513 3500 
z
" transform="scale(0.015625)"/>
      <path id="DejaVuSans-3d" d="M 678 2906 
L 4684 2906 
L 4684 2381 
L 678 2381 
L 678 2906 
z
M 678 1631 
L 4684 1631 
L 4684 1100 
L 678 1100 
L 678 1631 
z
" transform="scale(0.015625)"/>
      <path id="DejaVuSans-2e" d="M 684 794 
L 1344 794 
L 1344 0 
L 684 0 
L 684 794 
z
" transform="scale(0.015625)"/>
      <path id="DejaVuSans-39" d="M 703 97 
L 703 672 
Q 941 559 1184 500 
Q 1428 441 1663 441 
Q 2288 441 2617 861 
Q 2947 1281 2994 2138 
Q 2813 1869 2534 1725 
Q 2256 1581 1919 1581 
Q 1219 1581 811 2004 
Q 403 2428 403 3163 
Q 403 3881 828 4315 
Q 1253 4750 1959 4750 
Q 2769 4750 3195 4129 
Q 3622 3509 3622 2328 
Q 3622 1225 3098 567 
Q 2575 -91 1691 -91 
Q 1453 -91 1209 -44 
Q 966 3 703 97 
z
M 1959 2075 
Q 2384 2075 2632 2365 
Q 2881 2656 2881 3163 
Q 2881 3666 2632 3958 
Q 2384 4250 1959 4250 
Q 1534 4250 1286 3958 
Q 1038 3666 1038 3163 
Q 1038 2656 1286 2365 
Q 1534 2075 1959 2075 
z
" transform="scale(0.015625)"/>
     </defs>
     <use xlink:href="#DejaVuSans-41"/>
     <use xlink:href="#DejaVuSans-52" x="68.408203"/>
     <use xlink:href="#DejaVuSans-49" x="137.890625"/>
     <use xlink:href="#DejaVuSans-4d" x="167.382812"/>
     <use xlink:href="#DejaVuSans-41" x="253.662109"/>
     <use xlink:href="#DejaVuSans-20" x="322.070312"/>
     <use xlink:href="#DejaVuSans-28" x="353.857422"/>
     <use xlink:href="#DejaVuSans-33" x="392.871094"/>
     <use xlink:href="#DejaVuSans-2c" x="456.494141"/>
     <use xlink:href="#DejaVuSans-20" x="488.28125"/>
     <use xlink:href="#DejaVuSans-31" x="520.068359"/>
     <use xlink:href="#DejaVuSans-2c" x="583.691406"/>
     <use xlink:href="#DejaVuSans-20" x="615.478516"/>
     <use xlink:href="#DejaVuSans-31" x="647.265625"/>
     <use xlink:href="#DejaVuSans-29" x="710.888672"/>
     <use xlink:href="#DejaVuSans-78" x="749.902344"/>
     <use xlink:href="#DejaVuSans-28" x="809.082031"/>
     <use xlink:href="#DejaVuSans-31" x="848.095703"/>
     <use xlink:href="#DejaVuSans-2c" x="911.71875"/>
     <use xlink:href="#DejaVuSans-20" x="943.505859"/>
     <use xlink:href="#DejaVuSans-30" x="975.292969"/>
     <use xlink:href="#DejaVuSans-2c" x="1038.916016"/>
     <use xlink:href="#DejaVuSans-20" x="1070.703125"/>
     <use xlink:href="#DejaVuSans-31" x="1102.490234"/>
     <use xlink:href="#DejaVuSans-2c" x="1166.113281"/>
     <use xlink:href="#DejaVuSans-20" x="1197.900391"/>
     <use xlink:href="#DejaVuSans-37" x="1229.6875"/>
     <use xlink:href="#DejaVuSans-29" x="1293.310547"/>
     <use xlink:href="#DejaVuSans-20" x="1332.324219"/>
     <use xlink:href="#DejaVuSans-28" x="1364.111328"/>
     <use xlink:href="#DejaVuSans-52" x="1403.125"/>
     <use xlink:href="#DejaVuSans-32" x="1472.607422"/>
     <use xlink:href="#DejaVuSans-20" x="1536.230469"/>
     <use xlink:href="#DejaVuSans-3d" x="1568.017578"/>
     <use xlink:href="#DejaVuSans-20" x="1651.806641"/>
     <use xlink:href="#DejaVuSans-30" x="1683.59375"/>
     <use xlink:href="#DejaVuSans-2e" x="1747.216797"/>
     <use xlink:href="#DejaVuSans-33" x="1779.003906"/>
     <use xlink:href="#DejaVuSans-37" x="1842.626953"/>
     <use xlink:href="#DejaVuSans-30" x="1906.25"/>
     <use xlink:href="#DejaVuSans-39" x="1969.873047"/>
     <use xlink:href="#DejaVuSans-37" x="2033.496094"/>
     <use xlink:href="#DejaVuSans-34" x="2097.119141"/>
     <use xlink:href="#DejaVuSans-29" x="2160.742188"/>
    </g>
   </g>
   <g id="legend_1">
    <g id="patch_7">
     <path d="M 1281.132812 87.789875 
L 1378.2125 87.789875 
Q 1380.2125 87.789875 1380.2125 85.789875 
L 1380.2125 42.7555 
Q 1380.2125 40.7555 1378.2125 40.7555 
L 1281.132812 40.7555 
Q 1279.132812 40.7555 1279.132812 42.7555 
L 1279.132812 85.789875 
Q 1279.132812 87.789875 1281.132812 87.789875 
z
" style="fill: #ffffff; opacity: 0.8; stroke: #cccccc; stroke-linejoin: miter"/>
    </g>
    <g id="line2d_24">
     <path d="M 1283.132812 48.853937 
L 1293.132812 48.853937 
L 1303.132812 48.853937 
" style="fill: none; stroke: #0000ff; stroke-width: 1.5; stroke-linecap: square"/>
    </g>
    <g id="text_22">
     <!-- Actual Value -->
     <g transform="translate(1311.132812 52.353937)scale(0.1 -0.1)">
      <defs>
       <path id="DejaVuSans-56" d="M 1831 0 
L 50 4666 
L 709 4666 
L 2188 738 
L 3669 4666 
L 4325 4666 
L 2547 0 
L 1831 0 
z
" transform="scale(0.015625)"/>
      </defs>
      <use xlink:href="#DejaVuSans-41"/>
      <use xlink:href="#DejaVuSans-63" x="66.658203"/>
      <use xlink:href="#DejaVuSans-74" x="121.638672"/>
      <use xlink:href="#DejaVuSans-75" x="160.847656"/>
      <use xlink:href="#DejaVuSans-61" x="224.226562"/>
      <use xlink:href="#DejaVuSans-6c" x="285.505859"/>
      <use xlink:href="#DejaVuSans-20" x="313.289062"/>
      <use xlink:href="#DejaVuSans-56" x="345.076172"/>
      <use xlink:href="#DejaVuSans-61" x="405.734375"/>
      <use xlink:href="#DejaVuSans-6c" x="467.013672"/>
      <use xlink:href="#DejaVuSans-75" x="494.796875"/>
      <use xlink:href="#DejaVuSans-65" x="558.175781"/>
     </g>
    </g>
    <g id="line2d_25">
     <path d="M 1283.132812 63.532062 
L 1293.132812 63.532062 
L 1303.132812 63.532062 
" style="fill: none; stroke: #ffa500; stroke-width: 1.5; stroke-linecap: square"/>
    </g>
    <g id="text_23">
     <!-- Check Value -->
     <g transform="translate(1311.132812 67.032062)scale(0.1 -0.1)">
      <defs>
       <path id="DejaVuSans-68" d="M 3513 2113 
L 3513 0 
L 2938 0 
L 2938 2094 
Q 2938 2591 2744 2837 
Q 2550 3084 2163 3084 
Q 1697 3084 1428 2787 
Q 1159 2491 1159 1978 
L 1159 0 
L 581 0 
L 581 4863 
L 1159 4863 
L 1159 2956 
Q 1366 3272 1645 3428 
Q 1925 3584 2291 3584 
Q 2894 3584 3203 3211 
Q 3513 2838 3513 2113 
z
" transform="scale(0.015625)"/>
      </defs>
      <use xlink:href="#DejaVuSans-43"/>
      <use xlink:href="#DejaVuSans-68" x="69.824219"/>
      <use xlink:href="#DejaVuSans-65" x="133.203125"/>
      <use xlink:href="#DejaVuSans-63" x="194.726562"/>
      <use xlink:href="#DejaVuSans-6b" x="249.707031"/>
      <use xlink:href="#DejaVuSans-20" x="307.617188"/>
      <use xlink:href="#DejaVuSans-56" x="339.404297"/>
      <use xlink:href="#DejaVuSans-61" x="400.0625"/>
      <use xlink:href="#DejaVuSans-6c" x="461.341797"/>
      <use xlink:href="#DejaVuSans-75" x="489.125"/>
      <use xlink:href="#DejaVuSans-65" x="552.503906"/>
     </g>
    </g>
    <g id="line2d_26">
     <path d="M 1283.132812 78.210187 
L 1293.132812 78.210187 
L 1303.132812 78.210187 
" style="fill: none; stroke: #ff0000; stroke-width: 1.5; stroke-linecap: square"/>
    </g>
    <g id="text_24">
     <!-- Predict Value -->
     <g transform="translate(1311.132812 81.710187)scale(0.1 -0.1)">
      <defs>
       <path id="DejaVuSans-50" d="M 1259 4147 
L 1259 2394 
L 2053 2394 
Q 2494 2394 2734 2622 
Q 2975 2850 2975 3272 
Q 2975 3691 2734 3919 
Q 2494 4147 2053 4147 
L 1259 4147 
z
M 628 4666 
L 2053 4666 
Q 2838 4666 3239 4311 
Q 3641 3956 3641 3272 
Q 3641 2581 3239 2228 
Q 2838 1875 2053 1875 
L 1259 1875 
L 1259 0 
L 628 0 
L 628 4666 
z
" transform="scale(0.015625)"/>
      </defs>
      <use xlink:href="#DejaVuSans-50"/>
      <use xlink:href="#DejaVuSans-72" x="58.552734"/>
      <use xlink:href="#DejaVuSans-65" x="97.416016"/>
      <use xlink:href="#DejaVuSans-64" x="158.939453"/>
      <use xlink:href="#DejaVuSans-69" x="222.416016"/>
      <use xlink:href="#DejaVuSans-63" x="250.199219"/>
      <use xlink:href="#DejaVuSans-74" x="305.179688"/>
      <use xlink:href="#DejaVuSans-20" x="344.388672"/>
      <use xlink:href="#DejaVuSans-56" x="376.175781"/>
      <use xlink:href="#DejaVuSans-61" x="436.833984"/>
      <use xlink:href="#DejaVuSans-6c" x="498.113281"/>
      <use xlink:href="#DejaVuSans-75" x="525.896484"/>
      <use xlink:href="#DejaVuSans-65" x="589.275391"/>
     </g>
    </g>
   </g>
  </g>
 </g>
 <defs>
  <clipPath id="p7f42fa4a1d">
   <rect x="46.0125" y="35.7555" width="1339.2" height="332.64"/>
  </clipPath>
 </defs>
</svg>
