<?xml version="1.0" encoding="utf-8" standalone="no"?>
<!DOCTYPE svg PUBLIC "-//W3C//DTD SVG 1.1//EN"
  "http://www.w3.org/Graphics/SVG/1.1/DTD/svg11.dtd">
<svg xmlns:xlink="http://www.w3.org/1999/xlink" width="1386.05pt" height="392.273625pt" viewBox="0 0 1386.05 392.273625" xmlns="http://www.w3.org/2000/svg" version="1.1">
 <metadata>
  <rdf:RDF xmlns:dc="http://purl.org/dc/elements/1.1/" xmlns:cc="http://creativecommons.org/ns#" xmlns:rdf="http://www.w3.org/1999/02/22-rdf-syntax-ns#">
   <cc:Work>
    <dc:type rdf:resource="http://purl.org/dc/dcmitype/StillImage"/>
    <dc:date>2022-07-26T17:39:00.431579</dc:date>
    <dc:format>image/svg+xml</dc:format>
    <dc:creator>
     <cc:Agent>
      <dc:title>Matplotlib v3.5.2, https://matplotlib.org/</dc:title>
     </cc:Agent>
    </dc:creator>
   </cc:Work>
  </rdf:RDF>
 </metadata>
 <defs>
  <style type="text/css">*{stroke-linejoin: round; stroke-linecap: butt}</style>
 </defs>
 <g id="figure_1">
  <g id="patch_1">
   <path d="M 0 392.273625 
L 1386.05 392.273625 
L 1386.05 0 
L 0 0 
z
" style="fill: #ffffff"/>
  </g>
  <g id="axes_1">
   <g id="patch_2">
    <path d="M 39.65 368.3955 
L 1378.85 368.3955 
L 1378.85 35.7555 
L 39.65 35.7555 
z
" style="fill: #ffffff"/>
   </g>
   <g id="matplotlib.axis_1">
    <g id="xtick_1">
     <g id="line2d_1">
      <defs>
       <path id="m81cd6de093" d="M 0 0 
L 0 3.5 
" style="stroke: #000000; stroke-width: 0.8"/>
      </defs>
      <g>
       <use xlink:href="#m81cd6de093" x="71.629523" y="368.3955" style="stroke: #000000; stroke-width: 0.8"/>
      </g>
     </g>
     <g id="text_1">
      <!-- 2020-01 -->
      <g transform="translate(50.738117 382.993937)scale(0.1 -0.1)">
       <defs>
        <path id="DejaVuSans-32" d="M 1228 531 
L 3431 531 
L 3431 0 
L 469 0 
L 469 531 
Q 828 903 1448 1529 
Q 2069 2156 2228 2338 
Q 2531 2678 2651 2914 
Q 2772 3150 2772 3378 
Q 2772 3750 2511 3984 
Q 2250 4219 1831 4219 
Q 1534 4219 1204 4116 
Q 875 4013 500 3803 
L 500 4441 
Q 881 4594 1212 4672 
Q 1544 4750 1819 4750 
Q 2544 4750 2975 4387 
Q 3406 4025 3406 3419 
Q 3406 3131 3298 2873 
Q 3191 2616 2906 2266 
Q 2828 2175 2409 1742 
Q 1991 1309 1228 531 
z
" transform="scale(0.015625)"/>
        <path id="DejaVuSans-30" d="M 2034 4250 
Q 1547 4250 1301 3770 
Q 1056 3291 1056 2328 
Q 1056 1369 1301 889 
Q 1547 409 2034 409 
Q 2525 409 2770 889 
Q 3016 1369 3016 2328 
Q 3016 3291 2770 3770 
Q 2525 4250 2034 4250 
z
M 2034 4750 
Q 2819 4750 3233 4129 
Q 3647 3509 3647 2328 
Q 3647 1150 3233 529 
Q 2819 -91 2034 -91 
Q 1250 -91 836 529 
Q 422 1150 422 2328 
Q 422 3509 836 4129 
Q 1250 4750 2034 4750 
z
" transform="scale(0.015625)"/>
        <path id="DejaVuSans-2d" d="M 313 2009 
L 1997 2009 
L 1997 1497 
L 313 1497 
L 313 2009 
z
" transform="scale(0.015625)"/>
        <path id="DejaVuSans-31" d="M 794 531 
L 1825 531 
L 1825 4091 
L 703 3866 
L 703 4441 
L 1819 4666 
L 2450 4666 
L 2450 531 
L 3481 531 
L 3481 0 
L 794 0 
L 794 531 
z
" transform="scale(0.015625)"/>
       </defs>
       <use xlink:href="#DejaVuSans-32"/>
       <use xlink:href="#DejaVuSans-30" x="63.623047"/>
       <use xlink:href="#DejaVuSans-32" x="127.246094"/>
       <use xlink:href="#DejaVuSans-30" x="190.869141"/>
       <use xlink:href="#DejaVuSans-2d" x="254.492188"/>
       <use xlink:href="#DejaVuSans-30" x="290.576172"/>
       <use xlink:href="#DejaVuSans-31" x="354.199219"/>
      </g>
     </g>
    </g>
    <g id="xtick_2">
     <g id="line2d_2">
      <g>
       <use xlink:href="#m81cd6de093" x="191.142321" y="368.3955" style="stroke: #000000; stroke-width: 0.8"/>
      </g>
     </g>
     <g id="text_2">
      <!-- 2020-04 -->
      <g transform="translate(170.250915 382.993937)scale(0.1 -0.1)">
       <defs>
        <path id="DejaVuSans-34" d="M 2419 4116 
L 825 1625 
L 2419 1625 
L 2419 4116 
z
M 2253 4666 
L 3047 4666 
L 3047 1625 
L 3713 1625 
L 3713 1100 
L 3047 1100 
L 3047 0 
L 2419 0 
L 2419 1100 
L 313 1100 
L 313 1709 
L 2253 4666 
z
" transform="scale(0.015625)"/>
       </defs>
       <use xlink:href="#DejaVuSans-32"/>
       <use xlink:href="#DejaVuSans-30" x="63.623047"/>
       <use xlink:href="#DejaVuSans-32" x="127.246094"/>
       <use xlink:href="#DejaVuSans-30" x="190.869141"/>
       <use xlink:href="#DejaVuSans-2d" x="254.492188"/>
       <use xlink:href="#DejaVuSans-30" x="290.576172"/>
       <use xlink:href="#DejaVuSans-34" x="354.199219"/>
      </g>
     </g>
    </g>
    <g id="xtick_3">
     <g id="line2d_3">
      <g>
       <use xlink:href="#m81cd6de093" x="310.655119" y="368.3955" style="stroke: #000000; stroke-width: 0.8"/>
      </g>
     </g>
     <g id="text_3">
      <!-- 2020-07 -->
      <g transform="translate(289.763713 382.993937)scale(0.1 -0.1)">
       <defs>
        <path id="DejaVuSans-37" d="M 525 4666 
L 3525 4666 
L 3525 4397 
L 1831 0 
L 1172 0 
L 2766 4134 
L 525 4134 
L 525 4666 
z
" transform="scale(0.015625)"/>
       </defs>
       <use xlink:href="#DejaVuSans-32"/>
       <use xlink:href="#DejaVuSans-30" x="63.623047"/>
       <use xlink:href="#DejaVuSans-32" x="127.246094"/>
       <use xlink:href="#DejaVuSans-30" x="190.869141"/>
       <use xlink:href="#DejaVuSans-2d" x="254.492188"/>
       <use xlink:href="#DejaVuSans-30" x="290.576172"/>
       <use xlink:href="#DejaVuSans-37" x="354.199219"/>
      </g>
     </g>
    </g>
    <g id="xtick_4">
     <g id="line2d_4">
      <g>
       <use xlink:href="#m81cd6de093" x="431.481244" y="368.3955" style="stroke: #000000; stroke-width: 0.8"/>
      </g>
     </g>
     <g id="text_4">
      <!-- 2020-10 -->
      <g transform="translate(410.589838 382.993937)scale(0.1 -0.1)">
       <use xlink:href="#DejaVuSans-32"/>
       <use xlink:href="#DejaVuSans-30" x="63.623047"/>
       <use xlink:href="#DejaVuSans-32" x="127.246094"/>
       <use xlink:href="#DejaVuSans-30" x="190.869141"/>
       <use xlink:href="#DejaVuSans-2d" x="254.492188"/>
       <use xlink:href="#DejaVuSans-31" x="290.576172"/>
       <use xlink:href="#DejaVuSans-30" x="354.199219"/>
      </g>
     </g>
    </g>
    <g id="xtick_5">
     <g id="line2d_5">
      <g>
       <use xlink:href="#m81cd6de093" x="552.30737" y="368.3955" style="stroke: #000000; stroke-width: 0.8"/>
      </g>
     </g>
     <g id="text_5">
      <!-- 2021-01 -->
      <g transform="translate(531.415964 382.993937)scale(0.1 -0.1)">
       <use xlink:href="#DejaVuSans-32"/>
       <use xlink:href="#DejaVuSans-30" x="63.623047"/>
       <use xlink:href="#DejaVuSans-32" x="127.246094"/>
       <use xlink:href="#DejaVuSans-31" x="190.869141"/>
       <use xlink:href="#DejaVuSans-2d" x="254.492188"/>
       <use xlink:href="#DejaVuSans-30" x="290.576172"/>
       <use xlink:href="#DejaVuSans-31" x="354.199219"/>
      </g>
     </g>
    </g>
    <g id="xtick_6">
     <g id="line2d_6">
      <g>
       <use xlink:href="#m81cd6de093" x="670.50684" y="368.3955" style="stroke: #000000; stroke-width: 0.8"/>
      </g>
     </g>
     <g id="text_6">
      <!-- 2021-04 -->
      <g transform="translate(649.615434 382.993937)scale(0.1 -0.1)">
       <use xlink:href="#DejaVuSans-32"/>
       <use xlink:href="#DejaVuSans-30" x="63.623047"/>
       <use xlink:href="#DejaVuSans-32" x="127.246094"/>
       <use xlink:href="#DejaVuSans-31" x="190.869141"/>
       <use xlink:href="#DejaVuSans-2d" x="254.492188"/>
       <use xlink:href="#DejaVuSans-30" x="290.576172"/>
       <use xlink:href="#DejaVuSans-34" x="354.199219"/>
      </g>
     </g>
    </g>
    <g id="xtick_7">
     <g id="line2d_7">
      <g>
       <use xlink:href="#m81cd6de093" x="790.019638" y="368.3955" style="stroke: #000000; stroke-width: 0.8"/>
      </g>
     </g>
     <g id="text_7">
      <!-- 2021-07 -->
      <g transform="translate(769.128232 382.993937)scale(0.1 -0.1)">
       <use xlink:href="#DejaVuSans-32"/>
       <use xlink:href="#DejaVuSans-30" x="63.623047"/>
       <use xlink:href="#DejaVuSans-32" x="127.246094"/>
       <use xlink:href="#DejaVuSans-31" x="190.869141"/>
       <use xlink:href="#DejaVuSans-2d" x="254.492188"/>
       <use xlink:href="#DejaVuSans-30" x="290.576172"/>
       <use xlink:href="#DejaVuSans-37" x="354.199219"/>
      </g>
     </g>
    </g>
    <g id="xtick_8">
     <g id="line2d_8">
      <g>
       <use xlink:href="#m81cd6de093" x="910.845763" y="368.3955" style="stroke: #000000; stroke-width: 0.8"/>
      </g>
     </g>
     <g id="text_8">
      <!-- 2021-10 -->
      <g transform="translate(889.954357 382.993937)scale(0.1 -0.1)">
       <use xlink:href="#DejaVuSans-32"/>
       <use xlink:href="#DejaVuSans-30" x="63.623047"/>
       <use xlink:href="#DejaVuSans-32" x="127.246094"/>
       <use xlink:href="#DejaVuSans-31" x="190.869141"/>
       <use xlink:href="#DejaVuSans-2d" x="254.492188"/>
       <use xlink:href="#DejaVuSans-31" x="290.576172"/>
       <use xlink:href="#DejaVuSans-30" x="354.199219"/>
      </g>
     </g>
    </g>
    <g id="xtick_9">
     <g id="line2d_9">
      <g>
       <use xlink:href="#m81cd6de093" x="1031.671889" y="368.3955" style="stroke: #000000; stroke-width: 0.8"/>
      </g>
     </g>
     <g id="text_9">
      <!-- 2022-01 -->
      <g transform="translate(1010.780483 382.993937)scale(0.1 -0.1)">
       <use xlink:href="#DejaVuSans-32"/>
       <use xlink:href="#DejaVuSans-30" x="63.623047"/>
       <use xlink:href="#DejaVuSans-32" x="127.246094"/>
       <use xlink:href="#DejaVuSans-32" x="190.869141"/>
       <use xlink:href="#DejaVuSans-2d" x="254.492188"/>
       <use xlink:href="#DejaVuSans-30" x="290.576172"/>
       <use xlink:href="#DejaVuSans-31" x="354.199219"/>
      </g>
     </g>
    </g>
    <g id="xtick_10">
     <g id="line2d_10">
      <g>
       <use xlink:href="#m81cd6de093" x="1149.871359" y="368.3955" style="stroke: #000000; stroke-width: 0.8"/>
      </g>
     </g>
     <g id="text_10">
      <!-- 2022-04 -->
      <g transform="translate(1128.979953 382.993937)scale(0.1 -0.1)">
       <use xlink:href="#DejaVuSans-32"/>
       <use xlink:href="#DejaVuSans-30" x="63.623047"/>
       <use xlink:href="#DejaVuSans-32" x="127.246094"/>
       <use xlink:href="#DejaVuSans-32" x="190.869141"/>
       <use xlink:href="#DejaVuSans-2d" x="254.492188"/>
       <use xlink:href="#DejaVuSans-30" x="290.576172"/>
       <use xlink:href="#DejaVuSans-34" x="354.199219"/>
      </g>
     </g>
    </g>
    <g id="xtick_11">
     <g id="line2d_11">
      <g>
       <use xlink:href="#m81cd6de093" x="1269.384157" y="368.3955" style="stroke: #000000; stroke-width: 0.8"/>
      </g>
     </g>
     <g id="text_11">
      <!-- 2022-07 -->
      <g transform="translate(1248.492751 382.993937)scale(0.1 -0.1)">
       <use xlink:href="#DejaVuSans-32"/>
       <use xlink:href="#DejaVuSans-30" x="63.623047"/>
       <use xlink:href="#DejaVuSans-32" x="127.246094"/>
       <use xlink:href="#DejaVuSans-32" x="190.869141"/>
       <use xlink:href="#DejaVuSans-2d" x="254.492188"/>
       <use xlink:href="#DejaVuSans-30" x="290.576172"/>
       <use xlink:href="#DejaVuSans-37" x="354.199219"/>
      </g>
     </g>
    </g>
   </g>
   <g id="matplotlib.axis_2">
    <g id="ytick_1">
     <g id="line2d_12">
      <defs>
       <path id="m555d587384" d="M 0 0 
L -3.5 0 
" style="stroke: #000000; stroke-width: 0.8"/>
      </defs>
      <g>
       <use xlink:href="#m555d587384" x="39.65" y="344.741728" style="stroke: #000000; stroke-width: 0.8"/>
      </g>
     </g>
     <g id="text_12">
      <!-- 0 -->
      <g transform="translate(26.2875 348.540947)scale(0.1 -0.1)">
       <use xlink:href="#DejaVuSans-30"/>
      </g>
     </g>
    </g>
    <g id="ytick_2">
     <g id="line2d_13">
      <g>
       <use xlink:href="#m555d587384" x="39.65" y="277.556948" style="stroke: #000000; stroke-width: 0.8"/>
      </g>
     </g>
     <g id="text_13">
      <!-- 2000 -->
      <g transform="translate(7.2 281.356167)scale(0.1 -0.1)">
       <use xlink:href="#DejaVuSans-32"/>
       <use xlink:href="#DejaVuSans-30" x="63.623047"/>
       <use xlink:href="#DejaVuSans-30" x="127.246094"/>
       <use xlink:href="#DejaVuSans-30" x="190.869141"/>
      </g>
     </g>
    </g>
    <g id="ytick_3">
     <g id="line2d_14">
      <g>
       <use xlink:href="#m555d587384" x="39.65" y="210.372168" style="stroke: #000000; stroke-width: 0.8"/>
      </g>
     </g>
     <g id="text_14">
      <!-- 4000 -->
      <g transform="translate(7.2 214.171387)scale(0.1 -0.1)">
       <use xlink:href="#DejaVuSans-34"/>
       <use xlink:href="#DejaVuSans-30" x="63.623047"/>
       <use xlink:href="#DejaVuSans-30" x="127.246094"/>
       <use xlink:href="#DejaVuSans-30" x="190.869141"/>
      </g>
     </g>
    </g>
    <g id="ytick_4">
     <g id="line2d_15">
      <g>
       <use xlink:href="#m555d587384" x="39.65" y="143.187388" style="stroke: #000000; stroke-width: 0.8"/>
      </g>
     </g>
     <g id="text_15">
      <!-- 6000 -->
      <g transform="translate(7.2 146.986607)scale(0.1 -0.1)">
       <defs>
        <path id="DejaVuSans-36" d="M 2113 2584 
Q 1688 2584 1439 2293 
Q 1191 2003 1191 1497 
Q 1191 994 1439 701 
Q 1688 409 2113 409 
Q 2538 409 2786 701 
Q 3034 994 3034 1497 
Q 3034 2003 2786 2293 
Q 2538 2584 2113 2584 
z
M 3366 4563 
L 3366 3988 
Q 3128 4100 2886 4159 
Q 2644 4219 2406 4219 
Q 1781 4219 1451 3797 
Q 1122 3375 1075 2522 
Q 1259 2794 1537 2939 
Q 1816 3084 2150 3084 
Q 2853 3084 3261 2657 
Q 3669 2231 3669 1497 
Q 3669 778 3244 343 
Q 2819 -91 2113 -91 
Q 1303 -91 875 529 
Q 447 1150 447 2328 
Q 447 3434 972 4092 
Q 1497 4750 2381 4750 
Q 2619 4750 2861 4703 
Q 3103 4656 3366 4563 
z
" transform="scale(0.015625)"/>
       </defs>
       <use xlink:href="#DejaVuSans-36"/>
       <use xlink:href="#DejaVuSans-30" x="63.623047"/>
       <use xlink:href="#DejaVuSans-30" x="127.246094"/>
       <use xlink:href="#DejaVuSans-30" x="190.869141"/>
      </g>
     </g>
    </g>
    <g id="ytick_5">
     <g id="line2d_16">
      <g>
       <use xlink:href="#m555d587384" x="39.65" y="76.002608" style="stroke: #000000; stroke-width: 0.8"/>
      </g>
     </g>
     <g id="text_16">
      <!-- 8000 -->
      <g transform="translate(7.2 79.801827)scale(0.1 -0.1)">
       <defs>
        <path id="DejaVuSans-38" d="M 2034 2216 
Q 1584 2216 1326 1975 
Q 1069 1734 1069 1313 
Q 1069 891 1326 650 
Q 1584 409 2034 409 
Q 2484 409 2743 651 
Q 3003 894 3003 1313 
Q 3003 1734 2745 1975 
Q 2488 2216 2034 2216 
z
M 1403 2484 
Q 997 2584 770 2862 
Q 544 3141 544 3541 
Q 544 4100 942 4425 
Q 1341 4750 2034 4750 
Q 2731 4750 3128 4425 
Q 3525 4100 3525 3541 
Q 3525 3141 3298 2862 
Q 3072 2584 2669 2484 
Q 3125 2378 3379 2068 
Q 3634 1759 3634 1313 
Q 3634 634 3220 271 
Q 2806 -91 2034 -91 
Q 1263 -91 848 271 
Q 434 634 434 1313 
Q 434 1759 690 2068 
Q 947 2378 1403 2484 
z
M 1172 3481 
Q 1172 3119 1398 2916 
Q 1625 2713 2034 2713 
Q 2441 2713 2670 2916 
Q 2900 3119 2900 3481 
Q 2900 3844 2670 4047 
Q 2441 4250 2034 4250 
Q 1625 4250 1398 4047 
Q 1172 3844 1172 3481 
z
" transform="scale(0.015625)"/>
       </defs>
       <use xlink:href="#DejaVuSans-38"/>
       <use xlink:href="#DejaVuSans-30" x="63.623047"/>
       <use xlink:href="#DejaVuSans-30" x="127.246094"/>
       <use xlink:href="#DejaVuSans-30" x="190.869141"/>
      </g>
     </g>
    </g>
   </g>
   <g id="line2d_17">
    <path d="M 100.522727 344.741728 
L 162.249117 344.741728 
L 163.562445 344.472989 
L 164.875772 344.775321 
L 167.502427 344.741728 
L 176.695719 344.741728 
L 178.009047 344.506582 
L 179.322374 344.506582 
L 180.635702 344.674544 
L 181.949029 344.372212 
L 183.262357 344.573766 
L 184.575684 344.33862 
L 185.889011 344.405805 
L 187.202339 344.002696 
L 188.515666 344.372212 
L 189.828994 344.506582 
L 192.455649 343.532402 
L 193.768976 344.002696 
L 196.395631 343.801141 
L 197.708959 343.129294 
L 199.022286 343.666772 
L 200.335613 342.289484 
L 201.648941 342.927739 
L 202.962268 341.752006 
L 204.275596 341.718413 
L 205.588923 341.24812 
L 206.902251 340.105979 
L 208.215578 340.710642 
L 209.528906 338.695098 
L 210.842233 339.938017 
L 212.15556 341.382489 
L 213.468888 340.341125 
L 214.782215 341.617636 
L 216.095543 343.062109 
L 217.40887 342.390261 
L 218.722198 341.281712 
L 220.035525 341.449674 
L 221.348853 341.919968 
L 222.66218 341.147343 
L 223.975508 342.558223 
L 225.288835 343.666772 
L 226.602162 342.423853 
L 227.91549 342.726185 
L 229.228817 342.188707 
L 230.542145 342.188707 
L 231.855472 342.625408 
L 233.1688 343.297256 
L 234.482127 343.49881 
L 235.795455 342.961332 
L 237.108782 342.759777 
L 238.422109 340.509087 
L 239.735437 336.713147 
L 241.048764 336.410816 
L 242.362092 340.576272 
L 243.675419 341.483267 
L 244.988747 343.095701 
L 246.302074 342.423853 
L 247.615402 342.726185 
L 248.928729 341.550451 
L 250.242056 342.323076 
L 251.555384 343.801141 
L 252.868711 343.398033 
L 254.182039 342.79337 
L 255.495366 341.651229 
L 256.808694 344.741728 
L 258.122021 338.728691 
L 259.435349 341.11375 
L 260.748676 341.416082 
L 262.062004 343.969103 
L 263.375331 342.491038 
L 264.688658 342.826962 
L 266.001986 341.95356 
L 267.315313 342.289484 
L 268.628641 341.584044 
L 269.941968 343.63318 
L 271.255296 343.36444 
L 272.568623 343.63318 
L 273.881951 341.550451 
L 275.195278 341.886375 
L 276.508605 343.733957 
L 277.821933 341.718413 
L 279.13526 342.356669 
L 280.448588 343.63318 
L 281.761915 342.994924 
L 283.075243 342.020745 
L 284.38857 342.692593 
L 287.015225 341.684821 
L 288.328553 342.558223 
L 289.64188 343.733957 
L 290.955207 343.465218 
L 292.268535 341.919968 
L 293.581862 342.759777 
L 294.89519 343.095701 
L 296.208517 342.491038 
L 297.521845 342.323076 
L 298.835172 343.767549 
L 300.1485 343.834734 
L 301.461827 342.524631 
L 304.088482 342.860555 
L 305.401809 341.684821 
L 306.715137 342.894147 
L 308.028464 343.565995 
L 310.655119 342.659 
L 311.968447 342.491038 
L 313.281774 341.886375 
L 314.595102 343.062109 
L 315.908429 343.565995 
L 317.221756 343.330848 
L 318.535084 342.79337 
L 319.848411 342.08793 
L 321.161739 341.584044 
L 322.475066 342.558223 
L 323.788394 342.961332 
L 325.101721 343.230071 
L 326.415049 343.901919 
L 327.728376 343.129294 
L 329.041703 342.054337 
L 330.355031 343.330848 
L 331.668358 341.550451 
L 332.981686 342.289484 
L 334.295013 343.263663 
L 335.608341 343.49881 
L 336.921668 342.188707 
L 338.234996 342.79337 
L 339.548323 342.524631 
L 340.86165 342.826962 
L 342.174978 341.214527 
L 343.488305 341.718413 
L 344.801633 343.095701 
L 346.11496 343.129294 
L 347.428288 339.736462 
L 348.741615 343.263663 
L 350.054943 342.08793 
L 351.36827 341.281712 
L 352.681598 341.785598 
L 353.994925 342.558223 
L 355.308252 342.759777 
L 356.62158 341.752006 
L 357.934907 341.214527 
L 359.248235 341.449674 
L 360.561562 341.180935 
L 361.87489 340.441902 
L 363.188217 342.79337 
L 364.501545 343.062109 
L 365.814872 341.315305 
L 367.128199 341.987152 
L 368.441527 340.475495 
L 369.754854 341.584044 
L 371.068182 339.501316 
L 372.381509 341.852783 
L 373.694837 342.020745 
L 375.008164 340.54268 
L 376.321492 340.54268 
L 377.634819 338.258397 
L 378.948147 336.310039 
L 380.261474 340.005201 
L 381.574801 339.736462 
L 382.888129 342.054337 
L 384.201456 342.524631 
L 385.514784 323.813669 
L 386.828111 333.891386 
L 388.141439 330.464963 
L 389.454766 331.97662 
L 390.768094 338.459951 
L 392.081421 336.679555 
L 393.394748 336.209261 
L 394.708076 333.52187 
L 396.021403 336.041299 
L 397.334731 334.899158 
L 398.648058 337.351403 
L 399.961386 338.325582 
L 401.274713 341.281712 
L 402.588041 339.098207 
L 403.901368 335.90693 
L 405.214695 335.235082 
L 406.528023 333.992164 
L 407.84135 337.989658 
L 409.154678 339.266169 
L 410.468005 338.258397 
L 413.09466 331.472734 
L 414.407988 331.674289 
L 415.721315 332.346136 
L 417.034643 336.276446 
L 418.34797 338.930245 
L 419.661297 333.992164 
L 420.974625 329.793115 
L 422.287952 329.188452 
L 423.60128 329.390006 
L 424.914607 325.291735 
L 426.227935 331.036033 
L 427.541262 338.124028 
L 428.85459 336.041299 
L 430.167917 331.573512 
L 431.481244 319.648213 
L 432.794572 331.775066 
L 434.107899 329.154859 
L 435.421227 330.229816 
L 436.734554 338.695098 
L 438.047882 335.403044 
L 439.361209 310.141567 
L 440.674537 326.7698 
L 441.987864 318.741218 
L 443.301192 320.152099 
L 444.614519 324.015224 
L 445.927846 332.614876 
L 447.241174 330.834479 
L 448.554501 315.314795 
L 449.867829 317.968594 
L 451.181156 318.102963 
L 452.494484 317.666262 
L 453.807811 322.637936 
L 455.121139 325.694843 
L 456.434466 323.880854 
L 457.747793 325.022995 
L 459.061121 312.056333 
L 460.374448 304.934746 
L 461.687776 313.198474 
L 463.001103 309.06661 
L 464.314431 326.669023 
L 465.627758 311.518855 
L 466.941086 302.079393 
L 468.254413 311.149338 
L 469.567741 292.371192 
L 470.881068 296.603833 
L 472.194395 299.996665 
L 473.507723 327.072131 
L 474.82105 311.014969 
L 476.134378 313.265659 
L 477.447705 299.056078 
L 478.761033 294.756252 
L 480.07436 299.828703 
L 481.387688 296.771795 
L 482.701015 314.273431 
L 484.014342 310.376713 
L 485.32767 298.988893 
L 486.640997 276.8851 
L 487.954325 290.624388 
L 489.267652 282.427845 
L 490.58098 304.464453 
L 491.894307 314.609355 
L 493.207635 310.947784 
L 494.520962 298.149083 
L 495.834289 308.764279 
L 497.147617 300.131034 
L 498.460944 306.312034 
L 499.774272 316.154604 
L 501.087599 318.438887 
L 502.400927 310.779822 
L 503.714254 301.642692 
L 505.027582 344.741728 
L 506.340909 272.921198 
L 507.654237 317.229561 
L 508.967564 317.834224 
L 510.280891 325.79562 
L 511.594219 329.692338 
L 512.907546 301.373953 
L 514.220874 306.278442 
L 515.534201 309.469719 
L 516.847529 314.307023 
L 518.160856 321.663756 
L 519.474184 327.643202 
L 520.787511 326.669023 
L 522.100838 311.653224 
L 523.414166 321.092686 
L 524.727493 312.99692 
L 526.040821 320.051322 
L 527.354148 323.54493 
L 528.667476 334.126533 
L 529.980803 333.152354 
L 531.294131 314.374208 
L 532.607458 324.787849 
L 533.920786 325.426104 
L 535.234113 325.79562 
L 536.54744 331.607104 
L 537.860768 333.085169 
L 540.487423 326.904169 
L 541.80075 327.743979 
L 543.114078 344.741728 
L 544.427405 330.733702 
L 545.740733 330.397778 
L 547.05406 335.77256 
L 548.367387 327.911941 
L 549.680715 325.862805 
L 550.994042 329.826707 
L 552.30737 344.741728 
L 553.620697 322.402789 
L 554.934025 321.126278 
L 556.247352 341.012973 
L 557.56068 330.196224 
L 558.874007 324.317555 
L 560.187335 329.692338 
L 561.500662 329.692338 
L 562.813989 333.958571 
L 564.127317 330.733702 
L 565.440644 338.661506 
L 566.753972 336.545185 
L 568.067299 329.557968 
L 569.380627 334.092941 
L 570.693954 330.464963 
L 572.007282 333.286723 
L 573.320609 335.806153 
L 574.633936 340.878604 
L 575.947264 340.475495 
L 577.260591 335.436636 
L 578.573919 333.421093 
L 579.887246 334.126533 
L 581.200574 336.444408 
L 582.513901 338.527136 
L 583.827229 343.666772 
L 585.140556 338.02325 
L 586.453883 337.082663 
L 587.767211 338.459951 
L 589.080538 339.366946 
L 590.393866 340.878604 
L 591.707193 338.695098 
L 593.020521 342.558223 
L 594.333848 340.845011 
L 595.647176 337.754511 
L 596.960503 338.896653 
L 598.273831 340.341125 
L 599.587158 338.426359 
L 600.900485 341.483267 
L 602.213813 342.927739 
L 603.52714 340.643457 
L 604.840468 338.86306 
L 606.153795 335.369452 
L 608.78045 340.139571 
L 610.093778 341.046566 
L 611.407105 342.692593 
L 612.720432 337.45218 
L 614.03376 341.651229 
L 615.347087 338.493544 
L 616.660415 339.803647 
L 617.973742 339.803647 
L 619.28707 340.072386 
L 620.600397 343.733957 
L 621.913725 337.620142 
L 623.227052 335.940522 
L 624.54038 339.501316 
L 625.853707 339.938017 
L 627.167034 338.493544 
L 628.480362 340.240348 
L 629.793689 343.297256 
L 631.107017 338.627913 
L 632.420344 338.661506 
L 633.733672 336.948294 
L 635.046999 339.232576 
L 636.360327 339.736462 
L 637.673654 337.653734 
L 638.986981 344.506582 
L 640.300309 339.467723 
L 641.613636 337.720919 
L 642.926964 337.989658 
L 644.240291 338.560729 
L 645.553619 339.837239 
L 646.866946 340.374718 
L 648.180274 343.868326 
L 649.493601 339.971609 
L 650.806929 338.86306 
L 652.120256 336.780332 
L 653.433583 334.160126 
L 654.746911 337.855288 
L 656.060238 339.904424 
L 657.373566 341.214527 
L 658.686893 340.441902 
L 660.000221 335.671783 
L 661.313548 336.209261 
L 662.626876 337.720919 
L 663.940203 336.410816 
L 665.25353 339.266169 
L 666.566858 341.651229 
L 667.880185 339.400538 
L 669.193513 335.873337 
L 671.820168 338.124028 
L 673.133495 338.86306 
L 674.446823 344.741728 
L 675.76015 339.501316 
L 677.073477 339.266169 
L 678.386805 334.831973 
L 679.700132 337.284218 
L 681.01346 335.671783 
L 682.326787 336.74674 
L 683.640115 344.741728 
L 684.953442 338.459951 
L 686.26677 335.940522 
L 687.580097 337.183441 
L 690.206752 336.578778 
L 691.520079 338.02325 
L 692.833407 344.741728 
L 694.146734 340.273941 
L 695.460062 338.99743 
L 696.773389 339.467723 
L 698.086717 340.240348 
L 699.400044 338.056843 
L 700.713372 340.173163 
L 702.026699 344.741728 
L 703.340026 341.584044 
L 704.653354 339.770055 
L 705.966681 339.031022 
L 707.280009 340.240348 
L 708.593336 340.441902 
L 709.906664 344.741728 
L 711.219991 344.741728 
L 712.533319 341.886375 
L 713.846646 337.049071 
L 715.159974 341.416082 
L 716.473301 341.919968 
L 717.786628 342.188707 
L 719.099956 344.741728 
L 720.413283 344.741728 
L 721.726611 342.155114 
L 723.039938 340.54268 
L 724.353266 341.95356 
L 725.666593 342.020745 
L 726.979921 343.230071 
L 728.293248 344.741728 
L 729.606575 344.741728 
L 730.919903 343.330848 
L 732.23323 341.449674 
L 733.546558 343.465218 
L 734.859885 342.894147 
L 736.173213 343.599587 
L 737.48654 344.741728 
L 738.799868 344.741728 
L 740.113195 343.700364 
L 741.426523 342.020745 
L 742.73985 343.129294 
L 744.053177 343.599587 
L 745.366505 342.826962 
L 746.679832 344.741728 
L 747.99316 344.741728 
L 749.306487 343.767549 
L 750.619815 344.741728 
L 751.933142 343.532402 
L 753.24647 344.237843 
L 754.559797 344.103473 
L 755.873124 344.741728 
L 757.186452 344.741728 
L 758.499779 344.33862 
L 759.813107 343.767549 
L 761.126434 344.33862 
L 762.439762 344.036288 
L 763.753089 344.472989 
L 765.066417 344.741728 
L 766.379744 344.170658 
L 767.693071 344.876098 
L 769.006399 344.036288 
L 770.319726 344.573766 
L 771.633054 344.372212 
L 772.946381 344.741728 
L 775.573036 344.741728 
L 778.199691 343.565995 
L 779.513019 343.901919 
L 780.826346 344.372212 
L 782.139673 344.271435 
L 783.453001 344.741728 
L 784.766328 344.741728 
L 786.079656 344.103473 
L 787.392983 344.372212 
L 788.706311 344.069881 
L 790.019638 343.935511 
L 791.332966 344.002696 
L 792.646293 344.741728 
L 796.586275 344.741728 
L 797.899603 342.726185 
L 799.21293 344.741728 
L 805.779568 344.741728 
L 807.092895 341.449674 
L 808.406222 344.271435 
L 809.71955 344.741728 
L 814.97286 344.741728 
L 816.286187 338.15762 
L 817.599515 344.741728 
L 824.166152 344.741728 
L 825.479479 335.839745 
L 826.792807 344.741728 
L 833.359444 344.741728 
L 834.672771 332.178175 
L 835.986099 344.741728 
L 842.552736 344.741728 
L 843.866064 315.885865 
L 845.179391 339.602093 
L 846.492718 340.105979 
L 847.806046 344.741728 
L 849.119373 344.741728 
L 850.432701 338.762283 
L 851.746028 331.472734 
L 853.059356 332.11099 
L 854.372683 334.831973 
L 855.686011 334.529642 
L 856.999338 344.741728 
L 858.312665 344.741728 
L 859.625993 333.689832 
L 860.93932 318.371702 
L 862.252648 329.457191 
L 863.565975 328.919713 
L 864.879303 329.994669 
L 866.19263 344.741728 
L 867.505958 344.741728 
L 868.819285 329.188452 
L 870.132613 310.477491 
L 871.44594 325.325327 
L 872.759267 326.7698 
L 874.072595 328.516604 
L 875.385922 344.741728 
L 878.012577 344.741728 
L 879.325905 329.524376 
L 880.639232 303.423089 
L 881.95256 323.948039 
L 883.265887 324.082409 
L 884.579214 344.741728 
L 885.892542 344.741728 
L 887.205869 327.004946 
L 888.519197 311.418077 
L 889.832524 325.661251 
L 891.145852 326.198729 
L 892.459179 326.467468 
L 893.772507 344.741728 
L 895.085834 344.741728 
L 896.399162 329.759522 
L 897.712489 319.916952 
L 899.025816 324.451925 
L 900.339144 325.09018 
L 901.652471 328.953305 
L 902.965799 344.741728 
L 904.279126 344.741728 
L 905.592454 331.875843 
L 906.905781 317.464708 
L 908.219109 326.232321 
L 909.532436 328.88612 
L 910.845763 329.423599 
L 912.159091 344.741728 
L 913.472418 344.741728 
L 916.099073 319.379474 
L 917.412401 331.27118 
L 918.725728 328.818936 
L 920.039056 332.950799 
L 921.352383 344.741728 
L 923.979038 344.741728 
L 925.292365 330.330593 
L 926.605693 308.193208 
L 927.91902 333.286723 
L 929.232348 334.059348 
L 930.545675 344.741728 
L 934.485658 344.741728 
L 935.798985 292.404785 
L 937.112312 330.733702 
L 938.42564 333.421093 
L 939.738967 344.741728 
L 941.052295 344.741728 
L 942.365622 334.831973 
L 943.67895 320.622392 
L 944.992277 329.524376 
L 946.305605 334.260903 
L 947.618932 331.439142 
L 948.932259 344.741728 
L 950.245587 344.741728 
L 951.558914 331.203995 
L 952.872242 320.622392 
L 954.185569 327.273686 
L 955.498897 329.927484 
L 956.812224 330.263408 
L 958.125552 344.741728 
L 959.438879 344.741728 
L 960.752207 331.27118 
L 962.065534 315.482757 
L 963.378861 326.097952 
L 964.692189 344.741728 
L 966.005516 327.240093 
L 967.318844 344.741728 
L 968.632171 344.741728 
L 969.945499 319.715398 
L 971.258826 314.374208 
L 972.572154 328.550196 
L 973.885481 328.415827 
L 975.198808 330.800887 
L 976.512136 344.741728 
L 977.825463 344.741728 
L 979.138791 330.800887 
L 980.452118 313.467213 
L 981.765446 325.560474 
L 983.078773 344.741728 
L 987.018756 344.741728 
L 988.332083 325.426104 
L 989.64541 299.694333 
L 990.958738 313.299251 
L 992.272065 324.082409 
L 993.585393 327.542425 
L 994.89872 344.741728 
L 996.212048 344.741728 
L 997.525375 328.214272 
L 998.838703 310.275936 
L 1000.15203 323.6793 
L 1001.465357 331.842251 
L 1002.778685 329.692338 
L 1004.092012 344.741728 
L 1005.40534 344.741728 
L 1006.718667 333.488278 
L 1008.031995 320.655985 
L 1009.345322 329.826707 
L 1010.65865 327.508832 
L 1011.971977 331.371957 
L 1013.285305 344.741728 
L 1014.598632 344.741728 
L 1017.225287 319.144327 
L 1018.538614 329.087675 
L 1019.851942 330.364185 
L 1021.165269 344.741728 
L 1023.791924 344.741728 
L 1025.105252 327.643202 
L 1026.418579 302.247355 
L 1027.731906 313.030512 
L 1029.045234 317.565485 
L 1030.358561 344.741728 
L 1032.985216 344.741728 
L 1034.298544 318.573257 
L 1035.611871 242.385716 
L 1036.925199 269.024481 
L 1038.238526 271.409541 
L 1039.551853 279.438122 
L 1040.865181 344.741728 
L 1042.178508 344.741728 
L 1043.491836 288.205736 
L 1044.805163 206.677005 
L 1046.118491 253.773536 
L 1047.431818 257.938992 
L 1048.745146 256.024226 
L 1050.058473 344.741728 
L 1053.998455 344.741728 
L 1055.311783 50.8755 
L 1056.62511 257.804623 
L 1057.938438 271.409541 
L 1059.251765 344.741728 
L 1060.565093 344.741728 
L 1061.87842 281.352888 
L 1063.191748 249.708857 
L 1064.505075 294.084404 
L 1065.818402 299.123263 
L 1067.13173 306.278442 
L 1068.445057 344.741728 
L 1069.758385 344.741728 
L 1071.071712 310.141567 
L 1072.38504 285.753491 
L 1073.698367 318.90918 
L 1075.011695 320.118506 
L 1076.325022 325.627658 
L 1077.63835 344.741728 
L 1078.951677 344.741728 
L 1080.265004 324.787849 
L 1081.578332 326.433876 
L 1082.891659 322.335604 
L 1084.204987 344.741728 
L 1085.518314 321.932496 
L 1086.831642 344.741728 
L 1088.144969 344.741728 
L 1089.458297 335.235082 
L 1090.771624 330.196224 
L 1092.084951 336.310039 
L 1093.398279 331.573512 
L 1094.711606 315.281202 
L 1096.024934 344.741728 
L 1098.651589 344.741728 
L 1099.964916 339.534908 
L 1101.278244 330.464963 
L 1102.591571 340.945788 
L 1103.904898 340.273941 
L 1105.218226 344.741728 
L 1106.531553 344.741728 
L 1107.844881 341.550451 
L 1109.158208 338.896653 
L 1110.471536 342.188707 
L 1111.784863 341.752006 
L 1113.098191 342.894147 
L 1114.411518 344.741728 
L 1115.724846 344.741728 
L 1117.038173 342.222299 
L 1118.3515 342.020745 
L 1119.664828 342.356669 
L 1120.978155 343.095701 
L 1122.291483 343.062109 
L 1123.60481 344.741728 
L 1124.918138 344.741728 
L 1126.231465 343.196478 
L 1127.544793 342.491038 
L 1128.85812 343.565995 
L 1130.171447 343.162886 
L 1131.484775 343.129294 
L 1132.798102 344.741728 
L 1136.738085 344.741728 
L 1138.051412 341.046566 
L 1139.36474 344.741728 
L 1145.931377 344.741728 
L 1147.244704 339.5685 
L 1148.558032 344.741728 
L 1155.124669 344.741728 
L 1156.437996 340.139571 
L 1157.751324 344.741728 
L 1164.317961 344.741728 
L 1165.631289 340.576272 
L 1166.944616 344.741728 
L 1173.511253 344.741728 
L 1174.824581 339.198984 
L 1176.137908 344.741728 
L 1182.704545 344.741728 
L 1184.017873 335.436636 
L 1185.3312 344.741728 
L 1191.897838 344.741728 
L 1193.211165 332.211767 
L 1194.524492 344.741728 
L 1201.09113 344.741728 
L 1202.404457 329.625153 
L 1203.717785 344.741728 
L 1210.284422 344.741728 
L 1211.597749 328.785343 
L 1212.911077 344.741728 
L 1219.477714 344.741728 
L 1220.791041 324.787849 
L 1222.104369 344.741728 
L 1228.671006 344.741728 
L 1229.984334 322.805898 
L 1231.297661 344.741728 
L 1237.864298 344.741728 
L 1239.177626 312.190702 
L 1240.490953 344.741728 
L 1247.05759 344.741728 
L 1248.370918 312.089925 
L 1249.684245 344.741728 
L 1256.250883 344.741728 
L 1257.56421 312.123518 
L 1258.877538 344.741728 
L 1265.444175 344.741728 
L 1266.757502 302.616871 
L 1268.07083 344.741728 
L 1274.637467 344.741728 
L 1275.950794 305.035523 
L 1277.264122 344.741728 
L 1283.830759 344.741728 
L 1285.144086 292.035268 
L 1286.457414 344.741728 
L 1293.024051 344.741728 
L 1294.337379 293.88285 
L 1295.650706 344.741728 
L 1300.904016 344.741728 
L 1300.904016 344.741728 
" clip-path="url(#p7bdb598466)" style="fill: none; stroke: #0000ff; stroke-width: 1.5; stroke-linecap: square"/>
   </g>
   <g id="line2d_18">
    <path d="M 1061.87842 275.795885 
L 1063.191748 189.433856 
L 1064.505075 270.303268 
L 1065.818402 280.268534 
L 1067.13173 327.354977 
L 1068.445057 329.613425 
L 1069.758385 304.795953 
L 1071.071712 284.393863 
L 1072.38504 256.246413 
L 1073.698367 300.450225 
L 1075.011695 308.47635 
L 1076.325022 345.371729 
L 1077.63835 345.289895 
L 1078.951677 320.453072 
L 1080.265004 302.423704 
L 1081.578332 301.624126 
L 1082.891659 323.170835 
L 1084.204987 330.534161 
L 1085.518314 353.2755 
L 1086.831642 352.167008 
L 1088.144969 332.146905 
L 1089.458297 323.551604 
L 1090.771624 321.099203 
L 1092.084951 339.887299 
L 1093.398279 333.859727 
L 1094.711606 350.949379 
L 1096.024934 350.143038 
L 1097.338261 336.646365 
L 1098.651589 331.481329 
L 1099.964916 332.781766 
L 1101.278244 339.578667 
L 1102.591571 332.019637 
L 1103.904898 352.487931 
L 1105.218226 351.48174 
L 1106.531553 344.053282 
L 1107.844881 338.881657 
L 1109.158208 336.117516 
L 1110.471536 343.888154 
L 1111.784863 339.433849 
L 1113.098191 351.243707 
L 1114.411518 350.399134 
L 1115.724846 345.289099 
L 1117.038173 341.561156 
L 1118.3515 341.255472 
L 1119.664828 344.834885 
L 1120.978155 342.834544 
L 1122.291483 349.272292 
L 1123.60481 348.683795 
L 1124.918138 345.126471 
L 1126.231465 343.106175 
L 1127.544793 342.946414 
L 1128.85812 345.022822 
L 1130.171447 343.861729 
L 1131.484775 347.584887 
L 1132.798102 347.215576 
L 1134.11143 344.841157 
L 1135.424757 343.696675 
L 1138.051412 344.627132 
L 1139.36474 344.160372 
L 1140.678067 346.706324 
L 1141.991395 346.451133 
L 1143.304722 345.177611 
L 1144.618049 344.541463 
L 1145.931377 343.542345 
L 1147.244704 344.663748 
L 1148.558032 344.427204 
L 1149.871359 345.733287 
L 1151.184687 345.604489 
L 1152.498014 344.953908 
L 1153.811342 344.629543 
L 1155.124669 342.467111 
L 1156.437996 344.655447 
L 1157.751324 344.540321 
L 1159.064651 345.214466 
L 1160.377979 345.15306 
L 1161.691306 344.823832 
L 1163.004634 344.66116 
L 1164.317961 342.087054 
L 1165.631289 344.636026 
L 1166.944616 344.585055 
L 1168.257944 344.937269 
L 1169.571271 344.91187 
L 1172.197926 344.669787 
L 1173.511253 342.02528 
L 1174.824581 344.394284 
L 1176.137908 344.406279 
L 1177.451236 344.619815 
L 1181.391218 344.558604 
L 1182.704545 341.453242 
L 1184.017873 343.843001 
L 1190.58451 344.28847 
L 1191.897838 339.773332 
L 1193.211165 343.386718 
L 1198.464475 343.974122 
L 1199.777802 344.063372 
L 1201.09113 337.807678 
L 1202.404457 343.099672 
L 1206.34444 343.676533 
L 1208.971094 343.921475 
L 1210.284422 335.951825 
L 1211.597749 343.102794 
L 1215.537732 343.670542 
L 1218.164387 343.923678 
L 1219.477714 334.798323 
L 1220.791041 342.732529 
L 1224.731024 343.422511 
L 1227.357679 343.739349 
L 1228.671006 332.769658 
L 1229.984334 342.576797 
L 1233.924316 343.317813 
L 1236.550971 343.661851 
L 1237.864298 331.112489 
L 1239.177626 341.34504 
L 1241.804281 342.171458 
L 1244.430936 342.795151 
L 1245.744263 343.047633 
L 1247.05759 326.374086 
L 1248.370918 341.412639 
L 1250.997573 342.221999 
L 1253.624228 342.833741 
L 1254.937555 343.08139 
L 1256.250883 324.218224 
L 1257.56421 341.72622 
L 1260.190865 342.45908 
L 1264.130847 343.237803 
L 1265.444175 323.245883 
L 1266.757502 340.753656 
L 1269.384157 341.722601 
L 1272.010812 342.455909 
L 1273.324139 342.752775 
L 1274.637467 319.220384 
L 1275.950794 341.168643 
L 1278.577449 342.036695 
L 1281.204104 342.693748 
L 1282.517432 342.959744 
L 1283.830759 318.327315 
L 1285.144086 339.776042 
L 1287.770741 340.982337 
L 1290.397396 341.895533 
L 1291.710724 342.265226 
L 1293.024051 313.02198 
L 1294.337379 340.100851 
L 1296.964034 341.228222 
L 1299.590688 342.0817 
L 1300.904016 342.427218 
L 1300.904016 342.427218 
" clip-path="url(#p7bdb598466)" style="fill: none; stroke: #ffa500; stroke-width: 1.5; stroke-linecap: square"/>
   </g>
   <g id="line2d_19">
    <path d="M 1300.904016 342.427218 
L 1302.217343 311.044659 
L 1303.530671 342.427225 
L 1304.843998 342.427222 
L 1306.157326 342.427236 
L 1307.470653 342.427236 
L 1308.783981 342.42723 
L 1310.097308 341.688126 
L 1311.410635 315.594117 
L 1312.723963 341.688131 
L 1314.03729 341.688129 
L 1315.350618 341.688141 
L 1316.663945 341.688141 
L 1317.977273 341.688136 
" clip-path="url(#p7bdb598466)" style="fill: none; stroke: #ff0000; stroke-width: 1.5; stroke-linecap: square"/>
   </g>
   <g id="patch_3">
    <path d="M 39.65 368.3955 
L 39.65 35.7555 
" style="fill: none; stroke: #000000; stroke-width: 0.8; stroke-linejoin: miter; stroke-linecap: square"/>
   </g>
   <g id="patch_4">
    <path d="M 1378.85 368.3955 
L 1378.85 35.7555 
" style="fill: none; stroke: #000000; stroke-width: 0.8; stroke-linejoin: miter; stroke-linecap: square"/>
   </g>
   <g id="patch_5">
    <path d="M 39.65 368.3955 
L 1378.85 368.3955 
" style="fill: none; stroke: #000000; stroke-width: 0.8; stroke-linejoin: miter; stroke-linecap: square"/>
   </g>
   <g id="patch_6">
    <path d="M 39.65 35.7555 
L 1378.85 35.7555 
" style="fill: none; stroke: #000000; stroke-width: 0.8; stroke-linejoin: miter; stroke-linecap: square"/>
   </g>
   <g id="text_17">
    <!-- Daily Confirmed Cases Forecasting - South Dakota -->
    <g transform="translate(558.15125 16.318125)scale(0.12 -0.12)">
     <defs>
      <path id="DejaVuSans-44" d="M 1259 4147 
L 1259 519 
L 2022 519 
Q 2988 519 3436 956 
Q 3884 1394 3884 2338 
Q 3884 3275 3436 3711 
Q 2988 4147 2022 4147 
L 1259 4147 
z
M 628 4666 
L 1925 4666 
Q 3281 4666 3915 4102 
Q 4550 3538 4550 2338 
Q 4550 1131 3912 565 
Q 3275 0 1925 0 
L 628 0 
L 628 4666 
z
" transform="scale(0.015625)"/>
      <path id="DejaVuSans-61" d="M 2194 1759 
Q 1497 1759 1228 1600 
Q 959 1441 959 1056 
Q 959 750 1161 570 
Q 1363 391 1709 391 
Q 2188 391 2477 730 
Q 2766 1069 2766 1631 
L 2766 1759 
L 2194 1759 
z
M 3341 1997 
L 3341 0 
L 2766 0 
L 2766 531 
Q 2569 213 2275 61 
Q 1981 -91 1556 -91 
Q 1019 -91 701 211 
Q 384 513 384 1019 
Q 384 1609 779 1909 
Q 1175 2209 1959 2209 
L 2766 2209 
L 2766 2266 
Q 2766 2663 2505 2880 
Q 2244 3097 1772 3097 
Q 1472 3097 1187 3025 
Q 903 2953 641 2809 
L 641 3341 
Q 956 3463 1253 3523 
Q 1550 3584 1831 3584 
Q 2591 3584 2966 3190 
Q 3341 2797 3341 1997 
z
" transform="scale(0.015625)"/>
      <path id="DejaVuSans-69" d="M 603 3500 
L 1178 3500 
L 1178 0 
L 603 0 
L 603 3500 
z
M 603 4863 
L 1178 4863 
L 1178 4134 
L 603 4134 
L 603 4863 
z
" transform="scale(0.015625)"/>
      <path id="DejaVuSans-6c" d="M 603 4863 
L 1178 4863 
L 1178 0 
L 603 0 
L 603 4863 
z
" transform="scale(0.015625)"/>
      <path id="DejaVuSans-79" d="M 2059 -325 
Q 1816 -950 1584 -1140 
Q 1353 -1331 966 -1331 
L 506 -1331 
L 506 -850 
L 844 -850 
Q 1081 -850 1212 -737 
Q 1344 -625 1503 -206 
L 1606 56 
L 191 3500 
L 800 3500 
L 1894 763 
L 2988 3500 
L 3597 3500 
L 2059 -325 
z
" transform="scale(0.015625)"/>
      <path id="DejaVuSans-20" transform="scale(0.015625)"/>
      <path id="DejaVuSans-43" d="M 4122 4306 
L 4122 3641 
Q 3803 3938 3442 4084 
Q 3081 4231 2675 4231 
Q 1875 4231 1450 3742 
Q 1025 3253 1025 2328 
Q 1025 1406 1450 917 
Q 1875 428 2675 428 
Q 3081 428 3442 575 
Q 3803 722 4122 1019 
L 4122 359 
Q 3791 134 3420 21 
Q 3050 -91 2638 -91 
Q 1578 -91 968 557 
Q 359 1206 359 2328 
Q 359 3453 968 4101 
Q 1578 4750 2638 4750 
Q 3056 4750 3426 4639 
Q 3797 4528 4122 4306 
z
" transform="scale(0.015625)"/>
      <path id="DejaVuSans-6f" d="M 1959 3097 
Q 1497 3097 1228 2736 
Q 959 2375 959 1747 
Q 959 1119 1226 758 
Q 1494 397 1959 397 
Q 2419 397 2687 759 
Q 2956 1122 2956 1747 
Q 2956 2369 2687 2733 
Q 2419 3097 1959 3097 
z
M 1959 3584 
Q 2709 3584 3137 3096 
Q 3566 2609 3566 1747 
Q 3566 888 3137 398 
Q 2709 -91 1959 -91 
Q 1206 -91 779 398 
Q 353 888 353 1747 
Q 353 2609 779 3096 
Q 1206 3584 1959 3584 
z
" transform="scale(0.015625)"/>
      <path id="DejaVuSans-6e" d="M 3513 2113 
L 3513 0 
L 2938 0 
L 2938 2094 
Q 2938 2591 2744 2837 
Q 2550 3084 2163 3084 
Q 1697 3084 1428 2787 
Q 1159 2491 1159 1978 
L 1159 0 
L 581 0 
L 581 3500 
L 1159 3500 
L 1159 2956 
Q 1366 3272 1645 3428 
Q 1925 3584 2291 3584 
Q 2894 3584 3203 3211 
Q 3513 2838 3513 2113 
z
" transform="scale(0.015625)"/>
      <path id="DejaVuSans-66" d="M 2375 4863 
L 2375 4384 
L 1825 4384 
Q 1516 4384 1395 4259 
Q 1275 4134 1275 3809 
L 1275 3500 
L 2222 3500 
L 2222 3053 
L 1275 3053 
L 1275 0 
L 697 0 
L 697 3053 
L 147 3053 
L 147 3500 
L 697 3500 
L 697 3744 
Q 697 4328 969 4595 
Q 1241 4863 1831 4863 
L 2375 4863 
z
" transform="scale(0.015625)"/>
      <path id="DejaVuSans-72" d="M 2631 2963 
Q 2534 3019 2420 3045 
Q 2306 3072 2169 3072 
Q 1681 3072 1420 2755 
Q 1159 2438 1159 1844 
L 1159 0 
L 581 0 
L 581 3500 
L 1159 3500 
L 1159 2956 
Q 1341 3275 1631 3429 
Q 1922 3584 2338 3584 
Q 2397 3584 2469 3576 
Q 2541 3569 2628 3553 
L 2631 2963 
z
" transform="scale(0.015625)"/>
      <path id="DejaVuSans-6d" d="M 3328 2828 
Q 3544 3216 3844 3400 
Q 4144 3584 4550 3584 
Q 5097 3584 5394 3201 
Q 5691 2819 5691 2113 
L 5691 0 
L 5113 0 
L 5113 2094 
Q 5113 2597 4934 2840 
Q 4756 3084 4391 3084 
Q 3944 3084 3684 2787 
Q 3425 2491 3425 1978 
L 3425 0 
L 2847 0 
L 2847 2094 
Q 2847 2600 2669 2842 
Q 2491 3084 2119 3084 
Q 1678 3084 1418 2786 
Q 1159 2488 1159 1978 
L 1159 0 
L 581 0 
L 581 3500 
L 1159 3500 
L 1159 2956 
Q 1356 3278 1631 3431 
Q 1906 3584 2284 3584 
Q 2666 3584 2933 3390 
Q 3200 3197 3328 2828 
z
" transform="scale(0.015625)"/>
      <path id="DejaVuSans-65" d="M 3597 1894 
L 3597 1613 
L 953 1613 
Q 991 1019 1311 708 
Q 1631 397 2203 397 
Q 2534 397 2845 478 
Q 3156 559 3463 722 
L 3463 178 
Q 3153 47 2828 -22 
Q 2503 -91 2169 -91 
Q 1331 -91 842 396 
Q 353 884 353 1716 
Q 353 2575 817 3079 
Q 1281 3584 2069 3584 
Q 2775 3584 3186 3129 
Q 3597 2675 3597 1894 
z
M 3022 2063 
Q 3016 2534 2758 2815 
Q 2500 3097 2075 3097 
Q 1594 3097 1305 2825 
Q 1016 2553 972 2059 
L 3022 2063 
z
" transform="scale(0.015625)"/>
      <path id="DejaVuSans-64" d="M 2906 2969 
L 2906 4863 
L 3481 4863 
L 3481 0 
L 2906 0 
L 2906 525 
Q 2725 213 2448 61 
Q 2172 -91 1784 -91 
Q 1150 -91 751 415 
Q 353 922 353 1747 
Q 353 2572 751 3078 
Q 1150 3584 1784 3584 
Q 2172 3584 2448 3432 
Q 2725 3281 2906 2969 
z
M 947 1747 
Q 947 1113 1208 752 
Q 1469 391 1925 391 
Q 2381 391 2643 752 
Q 2906 1113 2906 1747 
Q 2906 2381 2643 2742 
Q 2381 3103 1925 3103 
Q 1469 3103 1208 2742 
Q 947 2381 947 1747 
z
" transform="scale(0.015625)"/>
      <path id="DejaVuSans-73" d="M 2834 3397 
L 2834 2853 
Q 2591 2978 2328 3040 
Q 2066 3103 1784 3103 
Q 1356 3103 1142 2972 
Q 928 2841 928 2578 
Q 928 2378 1081 2264 
Q 1234 2150 1697 2047 
L 1894 2003 
Q 2506 1872 2764 1633 
Q 3022 1394 3022 966 
Q 3022 478 2636 193 
Q 2250 -91 1575 -91 
Q 1294 -91 989 -36 
Q 684 19 347 128 
L 347 722 
Q 666 556 975 473 
Q 1284 391 1588 391 
Q 1994 391 2212 530 
Q 2431 669 2431 922 
Q 2431 1156 2273 1281 
Q 2116 1406 1581 1522 
L 1381 1569 
Q 847 1681 609 1914 
Q 372 2147 372 2553 
Q 372 3047 722 3315 
Q 1072 3584 1716 3584 
Q 2034 3584 2315 3537 
Q 2597 3491 2834 3397 
z
" transform="scale(0.015625)"/>
      <path id="DejaVuSans-46" d="M 628 4666 
L 3309 4666 
L 3309 4134 
L 1259 4134 
L 1259 2759 
L 3109 2759 
L 3109 2228 
L 1259 2228 
L 1259 0 
L 628 0 
L 628 4666 
z
" transform="scale(0.015625)"/>
      <path id="DejaVuSans-63" d="M 3122 3366 
L 3122 2828 
Q 2878 2963 2633 3030 
Q 2388 3097 2138 3097 
Q 1578 3097 1268 2742 
Q 959 2388 959 1747 
Q 959 1106 1268 751 
Q 1578 397 2138 397 
Q 2388 397 2633 464 
Q 2878 531 3122 666 
L 3122 134 
Q 2881 22 2623 -34 
Q 2366 -91 2075 -91 
Q 1284 -91 818 406 
Q 353 903 353 1747 
Q 353 2603 823 3093 
Q 1294 3584 2113 3584 
Q 2378 3584 2631 3529 
Q 2884 3475 3122 3366 
z
" transform="scale(0.015625)"/>
      <path id="DejaVuSans-74" d="M 1172 4494 
L 1172 3500 
L 2356 3500 
L 2356 3053 
L 1172 3053 
L 1172 1153 
Q 1172 725 1289 603 
Q 1406 481 1766 481 
L 2356 481 
L 2356 0 
L 1766 0 
Q 1100 0 847 248 
Q 594 497 594 1153 
L 594 3053 
L 172 3053 
L 172 3500 
L 594 3500 
L 594 4494 
L 1172 4494 
z
" transform="scale(0.015625)"/>
      <path id="DejaVuSans-67" d="M 2906 1791 
Q 2906 2416 2648 2759 
Q 2391 3103 1925 3103 
Q 1463 3103 1205 2759 
Q 947 2416 947 1791 
Q 947 1169 1205 825 
Q 1463 481 1925 481 
Q 2391 481 2648 825 
Q 2906 1169 2906 1791 
z
M 3481 434 
Q 3481 -459 3084 -895 
Q 2688 -1331 1869 -1331 
Q 1566 -1331 1297 -1286 
Q 1028 -1241 775 -1147 
L 775 -588 
Q 1028 -725 1275 -790 
Q 1522 -856 1778 -856 
Q 2344 -856 2625 -561 
Q 2906 -266 2906 331 
L 2906 616 
Q 2728 306 2450 153 
Q 2172 0 1784 0 
Q 1141 0 747 490 
Q 353 981 353 1791 
Q 353 2603 747 3093 
Q 1141 3584 1784 3584 
Q 2172 3584 2450 3431 
Q 2728 3278 2906 2969 
L 2906 3500 
L 3481 3500 
L 3481 434 
z
" transform="scale(0.015625)"/>
      <path id="DejaVuSans-53" d="M 3425 4513 
L 3425 3897 
Q 3066 4069 2747 4153 
Q 2428 4238 2131 4238 
Q 1616 4238 1336 4038 
Q 1056 3838 1056 3469 
Q 1056 3159 1242 3001 
Q 1428 2844 1947 2747 
L 2328 2669 
Q 3034 2534 3370 2195 
Q 3706 1856 3706 1288 
Q 3706 609 3251 259 
Q 2797 -91 1919 -91 
Q 1588 -91 1214 -16 
Q 841 59 441 206 
L 441 856 
Q 825 641 1194 531 
Q 1563 422 1919 422 
Q 2459 422 2753 634 
Q 3047 847 3047 1241 
Q 3047 1584 2836 1778 
Q 2625 1972 2144 2069 
L 1759 2144 
Q 1053 2284 737 2584 
Q 422 2884 422 3419 
Q 422 4038 858 4394 
Q 1294 4750 2059 4750 
Q 2388 4750 2728 4690 
Q 3069 4631 3425 4513 
z
" transform="scale(0.015625)"/>
      <path id="DejaVuSans-75" d="M 544 1381 
L 544 3500 
L 1119 3500 
L 1119 1403 
Q 1119 906 1312 657 
Q 1506 409 1894 409 
Q 2359 409 2629 706 
Q 2900 1003 2900 1516 
L 2900 3500 
L 3475 3500 
L 3475 0 
L 2900 0 
L 2900 538 
Q 2691 219 2414 64 
Q 2138 -91 1772 -91 
Q 1169 -91 856 284 
Q 544 659 544 1381 
z
M 1991 3584 
L 1991 3584 
z
" transform="scale(0.015625)"/>
      <path id="DejaVuSans-68" d="M 3513 2113 
L 3513 0 
L 2938 0 
L 2938 2094 
Q 2938 2591 2744 2837 
Q 2550 3084 2163 3084 
Q 1697 3084 1428 2787 
Q 1159 2491 1159 1978 
L 1159 0 
L 581 0 
L 581 4863 
L 1159 4863 
L 1159 2956 
Q 1366 3272 1645 3428 
Q 1925 3584 2291 3584 
Q 2894 3584 3203 3211 
Q 3513 2838 3513 2113 
z
" transform="scale(0.015625)"/>
      <path id="DejaVuSans-6b" d="M 581 4863 
L 1159 4863 
L 1159 1991 
L 2875 3500 
L 3609 3500 
L 1753 1863 
L 3688 0 
L 2938 0 
L 1159 1709 
L 1159 0 
L 581 0 
L 581 4863 
z
" transform="scale(0.015625)"/>
     </defs>
     <use xlink:href="#DejaVuSans-44"/>
     <use xlink:href="#DejaVuSans-61" x="77.001953"/>
     <use xlink:href="#DejaVuSans-69" x="138.28125"/>
     <use xlink:href="#DejaVuSans-6c" x="166.064453"/>
     <use xlink:href="#DejaVuSans-79" x="193.847656"/>
     <use xlink:href="#DejaVuSans-20" x="253.027344"/>
     <use xlink:href="#DejaVuSans-43" x="284.814453"/>
     <use xlink:href="#DejaVuSans-6f" x="354.638672"/>
     <use xlink:href="#DejaVuSans-6e" x="415.820312"/>
     <use xlink:href="#DejaVuSans-66" x="479.199219"/>
     <use xlink:href="#DejaVuSans-69" x="514.404297"/>
     <use xlink:href="#DejaVuSans-72" x="542.1875"/>
     <use xlink:href="#DejaVuSans-6d" x="581.550781"/>
     <use xlink:href="#DejaVuSans-65" x="678.962891"/>
     <use xlink:href="#DejaVuSans-64" x="740.486328"/>
     <use xlink:href="#DejaVuSans-20" x="803.962891"/>
     <use xlink:href="#DejaVuSans-43" x="835.75"/>
     <use xlink:href="#DejaVuSans-61" x="905.574219"/>
     <use xlink:href="#DejaVuSans-73" x="966.853516"/>
     <use xlink:href="#DejaVuSans-65" x="1018.953125"/>
     <use xlink:href="#DejaVuSans-73" x="1080.476562"/>
     <use xlink:href="#DejaVuSans-20" x="1132.576172"/>
     <use xlink:href="#DejaVuSans-46" x="1164.363281"/>
     <use xlink:href="#DejaVuSans-6f" x="1218.257812"/>
     <use xlink:href="#DejaVuSans-72" x="1279.439453"/>
     <use xlink:href="#DejaVuSans-65" x="1318.302734"/>
     <use xlink:href="#DejaVuSans-63" x="1379.826172"/>
     <use xlink:href="#DejaVuSans-61" x="1434.806641"/>
     <use xlink:href="#DejaVuSans-73" x="1496.085938"/>
     <use xlink:href="#DejaVuSans-74" x="1548.185547"/>
     <use xlink:href="#DejaVuSans-69" x="1587.394531"/>
     <use xlink:href="#DejaVuSans-6e" x="1615.177734"/>
     <use xlink:href="#DejaVuSans-67" x="1678.556641"/>
     <use xlink:href="#DejaVuSans-20" x="1742.033203"/>
     <use xlink:href="#DejaVuSans-2d" x="1773.820312"/>
     <use xlink:href="#DejaVuSans-20" x="1809.904297"/>
     <use xlink:href="#DejaVuSans-53" x="1841.691406"/>
     <use xlink:href="#DejaVuSans-6f" x="1905.167969"/>
     <use xlink:href="#DejaVuSans-75" x="1966.349609"/>
     <use xlink:href="#DejaVuSans-74" x="2029.728516"/>
     <use xlink:href="#DejaVuSans-68" x="2068.9375"/>
     <use xlink:href="#DejaVuSans-20" x="2132.316406"/>
     <use xlink:href="#DejaVuSans-44" x="2164.103516"/>
     <use xlink:href="#DejaVuSans-61" x="2241.105469"/>
     <use xlink:href="#DejaVuSans-6b" x="2302.384766"/>
     <use xlink:href="#DejaVuSans-6f" x="2356.669922"/>
     <use xlink:href="#DejaVuSans-74" x="2417.851562"/>
     <use xlink:href="#DejaVuSans-61" x="2457.060547"/>
    </g>
    <!-- ARIMA (0, 1, 1)x(1, 0, 1, 7) (R2 = 0.162116) -->
    <g transform="translate(577.265938 29.7555)scale(0.12 -0.12)">
     <defs>
      <path id="DejaVuSans-41" d="M 2188 4044 
L 1331 1722 
L 3047 1722 
L 2188 4044 
z
M 1831 4666 
L 2547 4666 
L 4325 0 
L 3669 0 
L 3244 1197 
L 1141 1197 
L 716 0 
L 50 0 
L 1831 4666 
z
" transform="scale(0.015625)"/>
      <path id="DejaVuSans-52" d="M 2841 2188 
Q 3044 2119 3236 1894 
Q 3428 1669 3622 1275 
L 4263 0 
L 3584 0 
L 2988 1197 
Q 2756 1666 2539 1819 
Q 2322 1972 1947 1972 
L 1259 1972 
L 1259 0 
L 628 0 
L 628 4666 
L 2053 4666 
Q 2853 4666 3247 4331 
Q 3641 3997 3641 3322 
Q 3641 2881 3436 2590 
Q 3231 2300 2841 2188 
z
M 1259 4147 
L 1259 2491 
L 2053 2491 
Q 2509 2491 2742 2702 
Q 2975 2913 2975 3322 
Q 2975 3731 2742 3939 
Q 2509 4147 2053 4147 
L 1259 4147 
z
" transform="scale(0.015625)"/>
      <path id="DejaVuSans-49" d="M 628 4666 
L 1259 4666 
L 1259 0 
L 628 0 
L 628 4666 
z
" transform="scale(0.015625)"/>
      <path id="DejaVuSans-4d" d="M 628 4666 
L 1569 4666 
L 2759 1491 
L 3956 4666 
L 4897 4666 
L 4897 0 
L 4281 0 
L 4281 4097 
L 3078 897 
L 2444 897 
L 1241 4097 
L 1241 0 
L 628 0 
L 628 4666 
z
" transform="scale(0.015625)"/>
      <path id="DejaVuSans-28" d="M 1984 4856 
Q 1566 4138 1362 3434 
Q 1159 2731 1159 2009 
Q 1159 1288 1364 580 
Q 1569 -128 1984 -844 
L 1484 -844 
Q 1016 -109 783 600 
Q 550 1309 550 2009 
Q 550 2706 781 3412 
Q 1013 4119 1484 4856 
L 1984 4856 
z
" transform="scale(0.015625)"/>
      <path id="DejaVuSans-2c" d="M 750 794 
L 1409 794 
L 1409 256 
L 897 -744 
L 494 -744 
L 750 256 
L 750 794 
z
" transform="scale(0.015625)"/>
      <path id="DejaVuSans-29" d="M 513 4856 
L 1013 4856 
Q 1481 4119 1714 3412 
Q 1947 2706 1947 2009 
Q 1947 1309 1714 600 
Q 1481 -109 1013 -844 
L 513 -844 
Q 928 -128 1133 580 
Q 1338 1288 1338 2009 
Q 1338 2731 1133 3434 
Q 928 4138 513 4856 
z
" transform="scale(0.015625)"/>
      <path id="DejaVuSans-78" d="M 3513 3500 
L 2247 1797 
L 3578 0 
L 2900 0 
L 1881 1375 
L 863 0 
L 184 0 
L 1544 1831 
L 300 3500 
L 978 3500 
L 1906 2253 
L 2834 3500 
L 3513 3500 
z
" transform="scale(0.015625)"/>
      <path id="DejaVuSans-3d" d="M 678 2906 
L 4684 2906 
L 4684 2381 
L 678 2381 
L 678 2906 
z
M 678 1631 
L 4684 1631 
L 4684 1100 
L 678 1100 
L 678 1631 
z
" transform="scale(0.015625)"/>
      <path id="DejaVuSans-2e" d="M 684 794 
L 1344 794 
L 1344 0 
L 684 0 
L 684 794 
z
" transform="scale(0.015625)"/>
     </defs>
     <use xlink:href="#DejaVuSans-41"/>
     <use xlink:href="#DejaVuSans-52" x="68.408203"/>
     <use xlink:href="#DejaVuSans-49" x="137.890625"/>
     <use xlink:href="#DejaVuSans-4d" x="167.382812"/>
     <use xlink:href="#DejaVuSans-41" x="253.662109"/>
     <use xlink:href="#DejaVuSans-20" x="322.070312"/>
     <use xlink:href="#DejaVuSans-28" x="353.857422"/>
     <use xlink:href="#DejaVuSans-30" x="392.871094"/>
     <use xlink:href="#DejaVuSans-2c" x="456.494141"/>
     <use xlink:href="#DejaVuSans-20" x="488.28125"/>
     <use xlink:href="#DejaVuSans-31" x="520.068359"/>
     <use xlink:href="#DejaVuSans-2c" x="583.691406"/>
     <use xlink:href="#DejaVuSans-20" x="615.478516"/>
     <use xlink:href="#DejaVuSans-31" x="647.265625"/>
     <use xlink:href="#DejaVuSans-29" x="710.888672"/>
     <use xlink:href="#DejaVuSans-78" x="749.902344"/>
     <use xlink:href="#DejaVuSans-28" x="809.082031"/>
     <use xlink:href="#DejaVuSans-31" x="848.095703"/>
     <use xlink:href="#DejaVuSans-2c" x="911.71875"/>
     <use xlink:href="#DejaVuSans-20" x="943.505859"/>
     <use xlink:href="#DejaVuSans-30" x="975.292969"/>
     <use xlink:href="#DejaVuSans-2c" x="1038.916016"/>
     <use xlink:href="#DejaVuSans-20" x="1070.703125"/>
     <use xlink:href="#DejaVuSans-31" x="1102.490234"/>
     <use xlink:href="#DejaVuSans-2c" x="1166.113281"/>
     <use xlink:href="#DejaVuSans-20" x="1197.900391"/>
     <use xlink:href="#DejaVuSans-37" x="1229.6875"/>
     <use xlink:href="#DejaVuSans-29" x="1293.310547"/>
     <use xlink:href="#DejaVuSans-20" x="1332.324219"/>
     <use xlink:href="#DejaVuSans-28" x="1364.111328"/>
     <use xlink:href="#DejaVuSans-52" x="1403.125"/>
     <use xlink:href="#DejaVuSans-32" x="1472.607422"/>
     <use xlink:href="#DejaVuSans-20" x="1536.230469"/>
     <use xlink:href="#DejaVuSans-3d" x="1568.017578"/>
     <use xlink:href="#DejaVuSans-20" x="1651.806641"/>
     <use xlink:href="#DejaVuSans-30" x="1683.59375"/>
     <use xlink:href="#DejaVuSans-2e" x="1747.216797"/>
     <use xlink:href="#DejaVuSans-31" x="1779.003906"/>
     <use xlink:href="#DejaVuSans-36" x="1842.626953"/>
     <use xlink:href="#DejaVuSans-32" x="1906.25"/>
     <use xlink:href="#DejaVuSans-31" x="1969.873047"/>
     <use xlink:href="#DejaVuSans-31" x="2033.496094"/>
     <use xlink:href="#DejaVuSans-36" x="2097.119141"/>
     <use xlink:href="#DejaVuSans-29" x="2160.742188"/>
    </g>
   </g>
   <g id="legend_1">
    <g id="patch_7">
     <path d="M 1274.770313 87.789875 
L 1371.85 87.789875 
Q 1373.85 87.789875 1373.85 85.789875 
L 1373.85 42.7555 
Q 1373.85 40.7555 1371.85 40.7555 
L 1274.770313 40.7555 
Q 1272.770313 40.7555 1272.770313 42.7555 
L 1272.770313 85.789875 
Q 1272.770313 87.789875 1274.770313 87.789875 
z
" style="fill: #ffffff; opacity: 0.8; stroke: #cccccc; stroke-linejoin: miter"/>
    </g>
    <g id="line2d_20">
     <path d="M 1276.770313 48.853937 
L 1286.770313 48.853937 
L 1296.770313 48.853937 
" style="fill: none; stroke: #0000ff; stroke-width: 1.5; stroke-linecap: square"/>
    </g>
    <g id="text_18">
     <!-- Actual Value -->
     <g transform="translate(1304.770313 52.353937)scale(0.1 -0.1)">
      <defs>
       <path id="DejaVuSans-56" d="M 1831 0 
L 50 4666 
L 709 4666 
L 2188 738 
L 3669 4666 
L 4325 4666 
L 2547 0 
L 1831 0 
z
" transform="scale(0.015625)"/>
      </defs>
      <use xlink:href="#DejaVuSans-41"/>
      <use xlink:href="#DejaVuSans-63" x="66.658203"/>
      <use xlink:href="#DejaVuSans-74" x="121.638672"/>
      <use xlink:href="#DejaVuSans-75" x="160.847656"/>
      <use xlink:href="#DejaVuSans-61" x="224.226562"/>
      <use xlink:href="#DejaVuSans-6c" x="285.505859"/>
      <use xlink:href="#DejaVuSans-20" x="313.289062"/>
      <use xlink:href="#DejaVuSans-56" x="345.076172"/>
      <use xlink:href="#DejaVuSans-61" x="405.734375"/>
      <use xlink:href="#DejaVuSans-6c" x="467.013672"/>
      <use xlink:href="#DejaVuSans-75" x="494.796875"/>
      <use xlink:href="#DejaVuSans-65" x="558.175781"/>
     </g>
    </g>
    <g id="line2d_21">
     <path d="M 1276.770313 63.532062 
L 1286.770313 63.532062 
L 1296.770313 63.532062 
" style="fill: none; stroke: #ffa500; stroke-width: 1.5; stroke-linecap: square"/>
    </g>
    <g id="text_19">
     <!-- Check Value -->
     <g transform="translate(1304.770313 67.032062)scale(0.1 -0.1)">
      <use xlink:href="#DejaVuSans-43"/>
      <use xlink:href="#DejaVuSans-68" x="69.824219"/>
      <use xlink:href="#DejaVuSans-65" x="133.203125"/>
      <use xlink:href="#DejaVuSans-63" x="194.726562"/>
      <use xlink:href="#DejaVuSans-6b" x="249.707031"/>
      <use xlink:href="#DejaVuSans-20" x="307.617188"/>
      <use xlink:href="#DejaVuSans-56" x="339.404297"/>
      <use xlink:href="#DejaVuSans-61" x="400.0625"/>
      <use xlink:href="#DejaVuSans-6c" x="461.341797"/>
      <use xlink:href="#DejaVuSans-75" x="489.125"/>
      <use xlink:href="#DejaVuSans-65" x="552.503906"/>
     </g>
    </g>
    <g id="line2d_22">
     <path d="M 1276.770313 78.210187 
L 1286.770313 78.210187 
L 1296.770313 78.210187 
" style="fill: none; stroke: #ff0000; stroke-width: 1.5; stroke-linecap: square"/>
    </g>
    <g id="text_20">
     <!-- Predict Value -->
     <g transform="translate(1304.770313 81.710187)scale(0.1 -0.1)">
      <defs>
       <path id="DejaVuSans-50" d="M 1259 4147 
L 1259 2394 
L 2053 2394 
Q 2494 2394 2734 2622 
Q 2975 2850 2975 3272 
Q 2975 3691 2734 3919 
Q 2494 4147 2053 4147 
L 1259 4147 
z
M 628 4666 
L 2053 4666 
Q 2838 4666 3239 4311 
Q 3641 3956 3641 3272 
Q 3641 2581 3239 2228 
Q 2838 1875 2053 1875 
L 1259 1875 
L 1259 0 
L 628 0 
L 628 4666 
z
" transform="scale(0.015625)"/>
      </defs>
      <use xlink:href="#DejaVuSans-50"/>
      <use xlink:href="#DejaVuSans-72" x="58.552734"/>
      <use xlink:href="#DejaVuSans-65" x="97.416016"/>
      <use xlink:href="#DejaVuSans-64" x="158.939453"/>
      <use xlink:href="#DejaVuSans-69" x="222.416016"/>
      <use xlink:href="#DejaVuSans-63" x="250.199219"/>
      <use xlink:href="#DejaVuSans-74" x="305.179688"/>
      <use xlink:href="#DejaVuSans-20" x="344.388672"/>
      <use xlink:href="#DejaVuSans-56" x="376.175781"/>
      <use xlink:href="#DejaVuSans-61" x="436.833984"/>
      <use xlink:href="#DejaVuSans-6c" x="498.113281"/>
      <use xlink:href="#DejaVuSans-75" x="525.896484"/>
      <use xlink:href="#DejaVuSans-65" x="589.275391"/>
     </g>
    </g>
   </g>
  </g>
 </g>
 <defs>
  <clipPath id="p7bdb598466">
   <rect x="39.65" y="35.7555" width="1339.2" height="332.64"/>
  </clipPath>
 </defs>
</svg>
