<?xml version="1.0" encoding="utf-8" standalone="no"?>
<!DOCTYPE svg PUBLIC "-//W3C//DTD SVG 1.1//EN"
  "http://www.w3.org/Graphics/SVG/1.1/DTD/svg11.dtd">
<svg xmlns:xlink="http://www.w3.org/1999/xlink" width="1392.4125pt" height="392.273625pt" viewBox="0 0 1392.4125 392.273625" xmlns="http://www.w3.org/2000/svg" version="1.1">
 <metadata>
  <rdf:RDF xmlns:dc="http://purl.org/dc/elements/1.1/" xmlns:cc="http://creativecommons.org/ns#" xmlns:rdf="http://www.w3.org/1999/02/22-rdf-syntax-ns#">
   <cc:Work>
    <dc:type rdf:resource="http://purl.org/dc/dcmitype/StillImage"/>
    <dc:date>2022-06-18T17:25:48.918374</dc:date>
    <dc:format>image/svg+xml</dc:format>
    <dc:creator>
     <cc:Agent>
      <dc:title>Matplotlib v3.5.2, https://matplotlib.org/</dc:title>
     </cc:Agent>
    </dc:creator>
   </cc:Work>
  </rdf:RDF>
 </metadata>
 <defs>
  <style type="text/css">*{stroke-linejoin: round; stroke-linecap: butt}</style>
 </defs>
 <g id="figure_1">
  <g id="patch_1">
   <path d="M 0 392.273625 
L 1392.4125 392.273625 
L 1392.4125 0 
L 0 0 
z
" style="fill: #ffffff"/>
  </g>
  <g id="axes_1">
   <g id="patch_2">
    <path d="M 46.0125 368.3955 
L 1385.2125 368.3955 
L 1385.2125 35.7555 
L 46.0125 35.7555 
z
" style="fill: #ffffff"/>
   </g>
   <g id="matplotlib.axis_1">
    <g id="xtick_1">
     <g id="line2d_1">
      <defs>
       <path id="mdd4bc3224c" d="M 0 0 
L 0 3.5 
" style="stroke: #000000; stroke-width: 0.8"/>
      </defs>
      <g>
       <use xlink:href="#mdd4bc3224c" x="76.756993" y="368.3955" style="stroke: #000000; stroke-width: 0.8"/>
      </g>
     </g>
     <g id="text_1">
      <!-- 2020-01 -->
      <g transform="translate(55.865587 382.993937)scale(0.1 -0.1)">
       <defs>
        <path id="DejaVuSans-32" d="M 1228 531 
L 3431 531 
L 3431 0 
L 469 0 
L 469 531 
Q 828 903 1448 1529 
Q 2069 2156 2228 2338 
Q 2531 2678 2651 2914 
Q 2772 3150 2772 3378 
Q 2772 3750 2511 3984 
Q 2250 4219 1831 4219 
Q 1534 4219 1204 4116 
Q 875 4013 500 3803 
L 500 4441 
Q 881 4594 1212 4672 
Q 1544 4750 1819 4750 
Q 2544 4750 2975 4387 
Q 3406 4025 3406 3419 
Q 3406 3131 3298 2873 
Q 3191 2616 2906 2266 
Q 2828 2175 2409 1742 
Q 1991 1309 1228 531 
z
" transform="scale(0.015625)"/>
        <path id="DejaVuSans-30" d="M 2034 4250 
Q 1547 4250 1301 3770 
Q 1056 3291 1056 2328 
Q 1056 1369 1301 889 
Q 1547 409 2034 409 
Q 2525 409 2770 889 
Q 3016 1369 3016 2328 
Q 3016 3291 2770 3770 
Q 2525 4250 2034 4250 
z
M 2034 4750 
Q 2819 4750 3233 4129 
Q 3647 3509 3647 2328 
Q 3647 1150 3233 529 
Q 2819 -91 2034 -91 
Q 1250 -91 836 529 
Q 422 1150 422 2328 
Q 422 3509 836 4129 
Q 1250 4750 2034 4750 
z
" transform="scale(0.015625)"/>
        <path id="DejaVuSans-2d" d="M 313 2009 
L 1997 2009 
L 1997 1497 
L 313 1497 
L 313 2009 
z
" transform="scale(0.015625)"/>
        <path id="DejaVuSans-31" d="M 794 531 
L 1825 531 
L 1825 4091 
L 703 3866 
L 703 4441 
L 1819 4666 
L 2450 4666 
L 2450 531 
L 3481 531 
L 3481 0 
L 794 0 
L 794 531 
z
" transform="scale(0.015625)"/>
       </defs>
       <use xlink:href="#DejaVuSans-32"/>
       <use xlink:href="#DejaVuSans-30" x="63.623047"/>
       <use xlink:href="#DejaVuSans-32" x="127.246094"/>
       <use xlink:href="#DejaVuSans-30" x="190.869141"/>
       <use xlink:href="#DejaVuSans-2d" x="254.492188"/>
       <use xlink:href="#DejaVuSans-30" x="290.576172"/>
       <use xlink:href="#DejaVuSans-31" x="354.199219"/>
      </g>
     </g>
    </g>
    <g id="xtick_2">
     <g id="line2d_2">
      <g>
       <use xlink:href="#mdd4bc3224c" x="201.378325" y="368.3955" style="stroke: #000000; stroke-width: 0.8"/>
      </g>
     </g>
     <g id="text_2">
      <!-- 2020-04 -->
      <g transform="translate(180.486918 382.993937)scale(0.1 -0.1)">
       <defs>
        <path id="DejaVuSans-34" d="M 2419 4116 
L 825 1625 
L 2419 1625 
L 2419 4116 
z
M 2253 4666 
L 3047 4666 
L 3047 1625 
L 3713 1625 
L 3713 1100 
L 3047 1100 
L 3047 0 
L 2419 0 
L 2419 1100 
L 313 1100 
L 313 1709 
L 2253 4666 
z
" transform="scale(0.015625)"/>
       </defs>
       <use xlink:href="#DejaVuSans-32"/>
       <use xlink:href="#DejaVuSans-30" x="63.623047"/>
       <use xlink:href="#DejaVuSans-32" x="127.246094"/>
       <use xlink:href="#DejaVuSans-30" x="190.869141"/>
       <use xlink:href="#DejaVuSans-2d" x="254.492188"/>
       <use xlink:href="#DejaVuSans-30" x="290.576172"/>
       <use xlink:href="#DejaVuSans-34" x="354.199219"/>
      </g>
     </g>
    </g>
    <g id="xtick_3">
     <g id="line2d_3">
      <g>
       <use xlink:href="#mdd4bc3224c" x="325.999656" y="368.3955" style="stroke: #000000; stroke-width: 0.8"/>
      </g>
     </g>
     <g id="text_3">
      <!-- 2020-07 -->
      <g transform="translate(305.10825 382.993937)scale(0.1 -0.1)">
       <defs>
        <path id="DejaVuSans-37" d="M 525 4666 
L 3525 4666 
L 3525 4397 
L 1831 0 
L 1172 0 
L 2766 4134 
L 525 4134 
L 525 4666 
z
" transform="scale(0.015625)"/>
       </defs>
       <use xlink:href="#DejaVuSans-32"/>
       <use xlink:href="#DejaVuSans-30" x="63.623047"/>
       <use xlink:href="#DejaVuSans-32" x="127.246094"/>
       <use xlink:href="#DejaVuSans-30" x="190.869141"/>
       <use xlink:href="#DejaVuSans-2d" x="254.492188"/>
       <use xlink:href="#DejaVuSans-30" x="290.576172"/>
       <use xlink:href="#DejaVuSans-37" x="354.199219"/>
      </g>
     </g>
    </g>
    <g id="xtick_4">
     <g id="line2d_4">
      <g>
       <use xlink:href="#mdd4bc3224c" x="451.990453" y="368.3955" style="stroke: #000000; stroke-width: 0.8"/>
      </g>
     </g>
     <g id="text_4">
      <!-- 2020-10 -->
      <g transform="translate(431.099047 382.993937)scale(0.1 -0.1)">
       <use xlink:href="#DejaVuSans-32"/>
       <use xlink:href="#DejaVuSans-30" x="63.623047"/>
       <use xlink:href="#DejaVuSans-32" x="127.246094"/>
       <use xlink:href="#DejaVuSans-30" x="190.869141"/>
       <use xlink:href="#DejaVuSans-2d" x="254.492188"/>
       <use xlink:href="#DejaVuSans-31" x="290.576172"/>
       <use xlink:href="#DejaVuSans-30" x="354.199219"/>
      </g>
     </g>
    </g>
    <g id="xtick_5">
     <g id="line2d_5">
      <g>
       <use xlink:href="#mdd4bc3224c" x="577.981249" y="368.3955" style="stroke: #000000; stroke-width: 0.8"/>
      </g>
     </g>
     <g id="text_5">
      <!-- 2021-01 -->
      <g transform="translate(557.089843 382.993937)scale(0.1 -0.1)">
       <use xlink:href="#DejaVuSans-32"/>
       <use xlink:href="#DejaVuSans-30" x="63.623047"/>
       <use xlink:href="#DejaVuSans-32" x="127.246094"/>
       <use xlink:href="#DejaVuSans-31" x="190.869141"/>
       <use xlink:href="#DejaVuSans-2d" x="254.492188"/>
       <use xlink:href="#DejaVuSans-30" x="290.576172"/>
       <use xlink:href="#DejaVuSans-31" x="354.199219"/>
      </g>
     </g>
    </g>
    <g id="xtick_6">
     <g id="line2d_6">
      <g>
       <use xlink:href="#mdd4bc3224c" x="701.233116" y="368.3955" style="stroke: #000000; stroke-width: 0.8"/>
      </g>
     </g>
     <g id="text_6">
      <!-- 2021-04 -->
      <g transform="translate(680.341709 382.993937)scale(0.1 -0.1)">
       <use xlink:href="#DejaVuSans-32"/>
       <use xlink:href="#DejaVuSans-30" x="63.623047"/>
       <use xlink:href="#DejaVuSans-32" x="127.246094"/>
       <use xlink:href="#DejaVuSans-31" x="190.869141"/>
       <use xlink:href="#DejaVuSans-2d" x="254.492188"/>
       <use xlink:href="#DejaVuSans-30" x="290.576172"/>
       <use xlink:href="#DejaVuSans-34" x="354.199219"/>
      </g>
     </g>
    </g>
    <g id="xtick_7">
     <g id="line2d_7">
      <g>
       <use xlink:href="#mdd4bc3224c" x="825.854447" y="368.3955" style="stroke: #000000; stroke-width: 0.8"/>
      </g>
     </g>
     <g id="text_7">
      <!-- 2021-07 -->
      <g transform="translate(804.963041 382.993937)scale(0.1 -0.1)">
       <use xlink:href="#DejaVuSans-32"/>
       <use xlink:href="#DejaVuSans-30" x="63.623047"/>
       <use xlink:href="#DejaVuSans-32" x="127.246094"/>
       <use xlink:href="#DejaVuSans-31" x="190.869141"/>
       <use xlink:href="#DejaVuSans-2d" x="254.492188"/>
       <use xlink:href="#DejaVuSans-30" x="290.576172"/>
       <use xlink:href="#DejaVuSans-37" x="354.199219"/>
      </g>
     </g>
    </g>
    <g id="xtick_8">
     <g id="line2d_8">
      <g>
       <use xlink:href="#mdd4bc3224c" x="951.845244" y="368.3955" style="stroke: #000000; stroke-width: 0.8"/>
      </g>
     </g>
     <g id="text_8">
      <!-- 2021-10 -->
      <g transform="translate(930.953837 382.993937)scale(0.1 -0.1)">
       <use xlink:href="#DejaVuSans-32"/>
       <use xlink:href="#DejaVuSans-30" x="63.623047"/>
       <use xlink:href="#DejaVuSans-32" x="127.246094"/>
       <use xlink:href="#DejaVuSans-31" x="190.869141"/>
       <use xlink:href="#DejaVuSans-2d" x="254.492188"/>
       <use xlink:href="#DejaVuSans-31" x="290.576172"/>
       <use xlink:href="#DejaVuSans-30" x="354.199219"/>
      </g>
     </g>
    </g>
    <g id="xtick_9">
     <g id="line2d_9">
      <g>
       <use xlink:href="#mdd4bc3224c" x="1077.83604" y="368.3955" style="stroke: #000000; stroke-width: 0.8"/>
      </g>
     </g>
     <g id="text_9">
      <!-- 2022-01 -->
      <g transform="translate(1056.944634 382.993937)scale(0.1 -0.1)">
       <use xlink:href="#DejaVuSans-32"/>
       <use xlink:href="#DejaVuSans-30" x="63.623047"/>
       <use xlink:href="#DejaVuSans-32" x="127.246094"/>
       <use xlink:href="#DejaVuSans-32" x="190.869141"/>
       <use xlink:href="#DejaVuSans-2d" x="254.492188"/>
       <use xlink:href="#DejaVuSans-30" x="290.576172"/>
       <use xlink:href="#DejaVuSans-31" x="354.199219"/>
      </g>
     </g>
    </g>
    <g id="xtick_10">
     <g id="line2d_10">
      <g>
       <use xlink:href="#mdd4bc3224c" x="1201.087906" y="368.3955" style="stroke: #000000; stroke-width: 0.8"/>
      </g>
     </g>
     <g id="text_10">
      <!-- 2022-04 -->
      <g transform="translate(1180.1965 382.993937)scale(0.1 -0.1)">
       <use xlink:href="#DejaVuSans-32"/>
       <use xlink:href="#DejaVuSans-30" x="63.623047"/>
       <use xlink:href="#DejaVuSans-32" x="127.246094"/>
       <use xlink:href="#DejaVuSans-32" x="190.869141"/>
       <use xlink:href="#DejaVuSans-2d" x="254.492188"/>
       <use xlink:href="#DejaVuSans-30" x="290.576172"/>
       <use xlink:href="#DejaVuSans-34" x="354.199219"/>
      </g>
     </g>
    </g>
    <g id="xtick_11">
     <g id="line2d_11">
      <g>
       <use xlink:href="#mdd4bc3224c" x="1325.709238" y="368.3955" style="stroke: #000000; stroke-width: 0.8"/>
      </g>
     </g>
     <g id="text_11">
      <!-- 2022-07 -->
      <g transform="translate(1304.817832 382.993937)scale(0.1 -0.1)">
       <use xlink:href="#DejaVuSans-32"/>
       <use xlink:href="#DejaVuSans-30" x="63.623047"/>
       <use xlink:href="#DejaVuSans-32" x="127.246094"/>
       <use xlink:href="#DejaVuSans-32" x="190.869141"/>
       <use xlink:href="#DejaVuSans-2d" x="254.492188"/>
       <use xlink:href="#DejaVuSans-30" x="290.576172"/>
       <use xlink:href="#DejaVuSans-37" x="354.199219"/>
      </g>
     </g>
    </g>
   </g>
   <g id="matplotlib.axis_2">
    <g id="ytick_1">
     <g id="line2d_12">
      <defs>
       <path id="m945e4eaa95" d="M 0 0 
L -3.5 0 
" style="stroke: #000000; stroke-width: 0.8"/>
      </defs>
      <g>
       <use xlink:href="#m945e4eaa95" x="46.0125" y="345.678304" style="stroke: #000000; stroke-width: 0.8"/>
      </g>
     </g>
     <g id="text_12">
      <!-- 0 -->
      <g transform="translate(32.65 349.477522)scale(0.1 -0.1)">
       <use xlink:href="#DejaVuSans-30"/>
      </g>
     </g>
    </g>
    <g id="ytick_2">
     <g id="line2d_13">
      <g>
       <use xlink:href="#m945e4eaa95" x="46.0125" y="281.286979" style="stroke: #000000; stroke-width: 0.8"/>
      </g>
     </g>
     <g id="text_13">
      <!-- 10000 -->
      <g transform="translate(7.2 285.086197)scale(0.1 -0.1)">
       <use xlink:href="#DejaVuSans-31"/>
       <use xlink:href="#DejaVuSans-30" x="63.623047"/>
       <use xlink:href="#DejaVuSans-30" x="127.246094"/>
       <use xlink:href="#DejaVuSans-30" x="190.869141"/>
       <use xlink:href="#DejaVuSans-30" x="254.492188"/>
      </g>
     </g>
    </g>
    <g id="ytick_3">
     <g id="line2d_14">
      <g>
       <use xlink:href="#m945e4eaa95" x="46.0125" y="216.895653" style="stroke: #000000; stroke-width: 0.8"/>
      </g>
     </g>
     <g id="text_14">
      <!-- 20000 -->
      <g transform="translate(7.2 220.694872)scale(0.1 -0.1)">
       <use xlink:href="#DejaVuSans-32"/>
       <use xlink:href="#DejaVuSans-30" x="63.623047"/>
       <use xlink:href="#DejaVuSans-30" x="127.246094"/>
       <use xlink:href="#DejaVuSans-30" x="190.869141"/>
       <use xlink:href="#DejaVuSans-30" x="254.492188"/>
      </g>
     </g>
    </g>
    <g id="ytick_4">
     <g id="line2d_15">
      <g>
       <use xlink:href="#m945e4eaa95" x="46.0125" y="152.504328" style="stroke: #000000; stroke-width: 0.8"/>
      </g>
     </g>
     <g id="text_15">
      <!-- 30000 -->
      <g transform="translate(7.2 156.303547)scale(0.1 -0.1)">
       <defs>
        <path id="DejaVuSans-33" d="M 2597 2516 
Q 3050 2419 3304 2112 
Q 3559 1806 3559 1356 
Q 3559 666 3084 287 
Q 2609 -91 1734 -91 
Q 1441 -91 1130 -33 
Q 819 25 488 141 
L 488 750 
Q 750 597 1062 519 
Q 1375 441 1716 441 
Q 2309 441 2620 675 
Q 2931 909 2931 1356 
Q 2931 1769 2642 2001 
Q 2353 2234 1838 2234 
L 1294 2234 
L 1294 2753 
L 1863 2753 
Q 2328 2753 2575 2939 
Q 2822 3125 2822 3475 
Q 2822 3834 2567 4026 
Q 2313 4219 1838 4219 
Q 1578 4219 1281 4162 
Q 984 4106 628 3988 
L 628 4550 
Q 988 4650 1302 4700 
Q 1616 4750 1894 4750 
Q 2613 4750 3031 4423 
Q 3450 4097 3450 3541 
Q 3450 3153 3228 2886 
Q 3006 2619 2597 2516 
z
" transform="scale(0.015625)"/>
       </defs>
       <use xlink:href="#DejaVuSans-33"/>
       <use xlink:href="#DejaVuSans-30" x="63.623047"/>
       <use xlink:href="#DejaVuSans-30" x="127.246094"/>
       <use xlink:href="#DejaVuSans-30" x="190.869141"/>
       <use xlink:href="#DejaVuSans-30" x="254.492188"/>
      </g>
     </g>
    </g>
    <g id="ytick_5">
     <g id="line2d_16">
      <g>
       <use xlink:href="#m945e4eaa95" x="46.0125" y="88.113003" style="stroke: #000000; stroke-width: 0.8"/>
      </g>
     </g>
     <g id="text_16">
      <!-- 40000 -->
      <g transform="translate(7.2 91.912222)scale(0.1 -0.1)">
       <use xlink:href="#DejaVuSans-34"/>
       <use xlink:href="#DejaVuSans-30" x="63.623047"/>
       <use xlink:href="#DejaVuSans-30" x="127.246094"/>
       <use xlink:href="#DejaVuSans-30" x="190.869141"/>
       <use xlink:href="#DejaVuSans-30" x="254.492188"/>
      </g>
     </g>
    </g>
   </g>
   <g id="line2d_17">
    <path d="M 106.885227 345.678304 
L 175.358486 345.613912 
L 176.727951 345.369225 
L 178.097417 345.613912 
L 179.466882 345.498008 
L 180.836347 345.156734 
L 182.205812 345.285517 
L 183.575277 344.809021 
L 184.944743 344.744629 
L 186.314208 344.22306 
L 187.683673 345.201808 
L 189.053138 343.521194 
L 190.422603 344.287451 
L 191.792068 343.057577 
L 193.161534 342.400785 
L 194.530999 342.845085 
L 195.900464 342.001559 
L 197.269929 344.229499 
L 198.639394 342.555324 
L 200.00886 337.874075 
L 201.378325 338.035053 
L 202.74779 328.131668 
L 204.117255 338.286179 
L 205.48672 331.518651 
L 206.856185 342.368589 
L 208.225651 333.720835 
L 209.595116 336.554053 
L 210.964581 340.874711 
L 212.334046 337.610071 
L 213.703511 339.432345 
L 215.072977 340.778124 
L 217.811907 342.967429 
L 219.181372 342.445859 
L 220.550837 342.890159 
L 221.920302 341.937168 
L 223.289768 341.904972 
L 226.028698 343.437485 
L 227.398163 341.84702 
L 228.767628 343.546951 
L 231.506559 342.581081 
L 232.876024 343.096211 
L 234.245489 343.282946 
L 235.614954 343.99769 
L 236.984419 343.77876 
L 238.353885 344.274573 
L 239.72335 343.270068 
L 241.092815 343.482559 
L 242.46228 341.10652 
L 243.831745 342.915916 
L 245.201211 344.390477 
L 246.570676 343.534072 
L 247.940141 343.598464 
L 249.309606 343.083333 
L 250.679071 344.049203 
L 252.048536 344.37116 
L 253.418002 342.059511 
L 254.787467 344.499942 
L 257.526397 344.165107 
L 258.895862 341.737555 
L 260.265327 340.353141 
L 261.634793 343.437485 
L 263.004258 343.875347 
L 264.373723 343.649977 
L 265.743188 343.894664 
L 267.112653 343.559829 
L 268.482119 343.888225 
L 269.851584 338.028614 
L 271.221049 342.967429 
L 272.590514 345.678304 
L 273.959979 344.107155 
L 275.329444 341.557259 
L 276.69891 344.100716 
L 278.068375 342.825768 
L 279.43784 343.714368 
L 280.807305 345.678304 
L 282.17677 340.687976 
L 283.546236 343.495438 
L 284.915701 342.941672 
L 287.654631 343.186359 
L 289.024096 342.915916 
L 290.393561 342.928794 
L 291.763027 342.478055 
L 293.132492 343.55339 
L 294.501957 344.171547 
L 295.871422 342.059511 
L 297.240887 342.986746 
L 298.610353 342.832207 
L 299.979818 342.310637 
L 301.349283 337.384701 
L 302.718748 343.514755 
L 304.088213 342.117463 
L 305.457678 342.239807 
L 306.827144 339.702789 
L 308.196609 345.678304 
L 309.566074 346.44456 
L 310.935539 340.076258 
L 312.305004 343.147725 
L 313.67447 342.709864 
L 315.043935 336.94684 
L 316.4134 339.998989 
L 317.782865 339.638397 
L 319.15233 336.959718 
L 320.521795 345.678304 
L 321.891261 336.232096 
L 323.260726 340.237237 
L 324.630191 339.149023 
L 325.999656 332.265591 
L 327.369121 336.772983 
L 328.738587 334.551483 
L 330.108052 345.678304 
L 331.477517 333.205704 
L 332.846982 338.588819 
L 334.216447 333.212143 
L 336.955378 333.810982 
L 338.324843 328.666116 
L 339.694308 331.724703 
L 341.063773 337.185088 
L 342.433238 334.699583 
L 343.802703 331.415625 
L 345.172169 332.226956 
L 346.541634 330.997081 
L 347.911099 331.647434 
L 349.280564 345.678304 
L 350.650029 325.613967 
L 352.019495 325.163227 
L 353.38896 334.789731 
L 354.758425 327.835467 
L 356.12789 330.894055 
L 357.497355 332.259151 
L 358.86682 345.678304 
L 360.236286 320.952035 
L 361.605751 330.591416 
L 362.975216 338.460036 
L 364.344681 334.506409 
L 365.714146 334.680265 
L 367.083612 334.094304 
L 368.453077 345.678304 
L 369.822542 323.353831 
L 371.192007 338.601697 
L 372.561472 322.40084 
L 373.930937 336.135509 
L 375.300403 337.288114 
L 376.669868 336.019605 
L 378.039333 345.678304 
L 379.408798 328.595285 
L 380.778263 342.059511 
L 382.147729 338.183153 
L 383.517194 338.086566 
L 384.886659 338.369888 
L 386.256124 337.32031 
L 387.625589 345.678304 
L 388.995054 338.073688 
L 390.36452 342.027315 
L 391.733985 341.557259 
L 394.472915 339.76718 
L 395.84238 339.889523 
L 397.211846 345.678304 
L 398.581311 337.803245 
L 399.950776 341.666724 
L 401.320241 342.136781 
L 402.689706 335.729844 
L 404.059171 341.319011 
L 405.428637 341.776189 
L 406.798102 345.678304 
L 408.167567 335.221152 
L 409.537032 343.579146 
L 410.906497 341.241741 
L 412.275963 338.331253 
L 413.645428 340.443289 
L 415.014893 340.385337 
L 416.384358 345.678304 
L 417.753823 336.695714 
L 419.123288 343.688612 
L 420.492754 344.029886 
L 421.862219 335.562426 
L 423.231684 342.690546 
L 424.601149 340.816759 
L 425.970614 345.678304 
L 427.34008 337.429775 
L 428.709545 342.51025 
L 430.07901 343.289385 
L 431.448475 341.737555 
L 432.81794 342.600398 
L 434.187405 339.374393 
L 435.556871 345.678304 
L 436.926336 339.651276 
L 438.295801 344.113594 
L 439.665266 340.836076 
L 441.034731 341.711798 
L 442.404196 341.962924 
L 443.773662 341.132276 
L 445.143127 345.678304 
L 446.512592 339.734984 
L 447.882057 344.132912 
L 449.251522 342.246246 
L 450.620988 341.750433 
L 451.990453 342.130342 
L 453.359918 340.417532 
L 454.729383 345.678304 
L 456.098848 339.928158 
L 457.468313 344.274573 
L 458.837779 342.252685 
L 460.207244 331.795534 
L 461.576709 342.304198 
L 464.315639 345.678304 
L 465.685105 338.073688 
L 467.05457 345.291956 
L 468.424035 341.286815 
L 469.7935 340.011867 
L 471.162965 340.894028 
L 472.53243 340.694415 
L 473.901896 345.678304 
L 475.271361 338.318375 
L 476.640826 344.384038 
L 478.010291 341.17735 
L 479.379756 336.901766 
L 480.749222 340.707293 
L 482.118687 341.17735 
L 483.488152 345.678304 
L 484.857617 339.419467 
L 486.227082 344.216621 
L 487.596547 339.741423 
L 488.966013 338.608136 
L 490.335478 343.141285 
L 491.704943 342.890159 
L 493.074408 345.678304 
L 494.443873 338.781993 
L 495.813339 343.907542 
L 497.182804 338.253984 
L 498.552269 339.136145 
L 499.921734 341.293254 
L 501.291199 340.076258 
L 502.660664 345.678304 
L 504.03013 337.526362 
L 505.399595 343.160603 
L 506.76906 337.114257 
L 508.138525 345.678304 
L 509.50799 321.022865 
L 510.877456 323.463296 
L 512.246921 345.678304 
L 513.616386 329.37442 
L 514.985851 342.175416 
L 516.355316 328.756263 
L 517.724781 331.325477 
L 519.094247 332.465204 
L 520.463712 315.137498 
L 521.833177 345.678304 
L 523.202642 323.250805 
L 524.572107 339.445223 
L 525.941573 324.796197 
L 527.311038 337.725975 
L 528.680503 345.678304 
L 530.049968 313.71445 
L 531.419433 345.678304 
L 532.788898 335.098809 
L 534.158364 344.59009 
L 535.527829 311.383484 
L 536.897294 322.529622 
L 538.266759 328.015763 
L 539.636224 325.723432 
L 541.005689 345.678304 
L 542.375155 320.269487 
L 543.74462 339.155462 
L 545.114085 330.056968 
L 546.48355 317.655199 
L 547.853015 330.127799 
L 549.222481 327.249506 
L 550.591946 345.678304 
L 551.961411 317.20446 
L 553.330876 339.045997 
L 554.700341 328.724068 
L 556.069806 324.628779 
L 557.439272 321.364139 
L 558.808737 325.633284 
L 560.178202 345.678304 
L 561.547667 321.782683 
L 562.917132 338.492232 
L 564.286598 321.859952 
L 565.656063 326.528324 
L 567.025528 329.161929 
L 568.394993 345.678304 
L 569.764458 345.678304 
L 571.133923 324.92498 
L 572.503389 340.417532 
L 573.872854 320.269487 
L 575.242319 302.252794 
L 576.611784 319.625573 
L 577.981249 345.678304 
L 579.350715 345.678304 
L 580.72018 308.4408 
L 582.089645 338.447158 
L 583.45911 316.914699 
L 584.828575 301.402828 
L 586.19804 316.509033 
L 587.567506 323.933353 
L 588.936971 345.678304 
L 590.306436 310.919866 
L 591.675901 336.631322 
L 593.045366 315.382185 
L 594.414832 327.030576 
L 595.784297 311.467193 
L 597.153762 321.821318 
L 598.523227 345.678304 
L 599.892692 319.104004 
L 601.262157 339.425906 
L 602.631623 331.911438 
L 604.001088 329.625546 
L 605.370553 321.621705 
L 608.109483 345.678304 
L 609.478949 322.452353 
L 610.848414 332.284908 
L 612.217879 328.807776 
L 613.587344 320.861887 
L 614.956809 329.625546 
L 616.326274 330.436877 
L 617.69574 345.678304 
L 619.065205 324.10721 
L 620.43467 339.464541 
L 621.804135 328.917242 
L 623.1736 332.536034 
L 624.543065 327.906298 
L 625.912531 340.102015 
L 627.281996 345.678304 
L 628.651461 333.115556 
L 630.020926 338.099445 
L 631.390391 336.888888 
L 632.759857 343.534072 
L 634.129322 328.11235 
L 635.498787 338.144519 
L 636.868252 345.678304 
L 638.237717 337.268797 
L 639.607182 342.43942 
L 640.976648 345.678304 
L 642.346113 341.660285 
L 643.715578 340.346702 
L 645.085043 342.838646 
L 646.454508 345.678304 
L 647.823974 333.514782 
L 649.193439 342.66479 
L 650.562904 336.637762 
L 651.932369 340.031184 
L 653.301834 340.758806 
L 654.671299 339.863767 
L 656.040765 345.678304 
L 657.41023 335.968092 
L 658.779695 343.076894 
L 660.14916 340.739489 
L 661.518625 342.458737 
L 662.888091 340.810319 
L 664.257556 342.342833 
L 665.627021 345.678304 
L 666.996486 340.913346 
L 668.365951 342.432981 
L 669.735416 341.576576 
L 671.104882 341.892094 
L 672.474347 342.967429 
L 673.843812 342.156098 
L 675.213277 345.678304 
L 676.582742 339.812254 
L 677.952208 344.570773 
L 679.321673 339.290684 
L 680.691138 342.81289 
L 682.060603 342.194733 
L 683.430068 344.429112 
L 684.799533 345.678304 
L 686.168999 345.678304 
L 687.538464 337.120697 
L 688.907929 341.138715 
L 690.277394 342.780694 
L 691.646859 343.10909 
L 693.016325 342.787133 
L 694.38579 345.678304 
L 695.755255 345.678304 
L 697.12472 340.295189 
L 698.494185 342.400785 
L 701.233116 342.226929 
L 702.602581 345.678304 
L 705.341511 345.678304 
L 706.710976 337.513484 
L 708.080442 344.274573 
L 709.449907 341.170911 
L 710.819372 342.787133 
L 712.188837 340.95198 
L 713.558302 345.678304 
L 714.927767 345.678304 
L 716.297233 339.310002 
L 717.666698 342.767816 
L 719.036163 343.141285 
L 720.405628 340.50768 
L 721.775093 342.593959 
L 723.144558 345.678304 
L 724.514024 345.678304 
L 725.883489 336.689275 
L 727.252954 343.360216 
L 728.622419 341.389841 
L 729.991884 341.666724 
L 731.36135 342.194733 
L 732.730815 345.678304 
L 734.10028 345.678304 
L 735.469745 339.941037 
L 736.83921 342.767816 
L 738.208675 342.832207 
L 740.947606 341.267498 
L 742.317071 345.678304 
L 743.686536 345.678304 
L 745.056001 340.791002 
L 746.425467 339.258488 
L 747.794932 342.677668 
L 749.164397 343.057577 
L 750.533862 342.053072 
L 751.903327 345.678304 
L 753.272792 345.678304 
L 754.642258 338.627454 
L 756.011723 341.499307 
L 757.381188 342.58752 
L 758.750653 343.006064 
L 760.120118 342.967429 
L 761.489584 345.678304 
L 762.859049 345.678304 
L 764.228514 338.511549 
L 765.597979 342.497372 
L 766.967444 341.718237 
L 768.336909 342.973868 
L 769.706375 343.488999 
L 771.07584 345.678304 
L 772.445305 345.678304 
L 773.81477 341.898533 
L 775.184235 338.962288 
L 776.553701 342.980307 
L 777.923166 342.671229 
L 779.292631 343.398851 
L 780.662096 345.678304 
L 783.401026 345.678304 
L 784.770492 339.380832 
L 787.509422 343.662855 
L 788.878887 343.334459 
L 790.248352 345.678304 
L 791.617818 345.678304 
L 792.987283 340.552754 
L 794.356748 345.021512 
L 795.726213 340.694415 
L 797.095678 342.632594 
L 799.834609 345.678304 
L 801.204074 345.678304 
L 802.573539 342.111024 
L 803.943004 342.078829 
L 805.312469 343.585586 
L 806.681935 343.521194 
L 808.0514 343.579146 
L 809.420865 345.678304 
L 810.79033 345.678304 
L 812.159795 341.261059 
L 813.52926 343.585586 
L 814.898726 342.574642 
L 816.268191 343.32802 
L 817.637656 344.326086 
L 819.007121 345.678304 
L 820.376586 345.678304 
L 821.746051 339.612641 
L 823.115517 343.018942 
L 824.484982 341.872776 
L 825.854447 342.020876 
L 827.223912 342.297759 
L 828.593377 345.678304 
L 831.332308 345.678304 
L 832.701773 332.690573 
L 834.071238 337.783927 
L 835.440703 340.617145 
L 836.810168 339.438784 
L 838.179634 345.678304 
L 839.549099 345.678304 
L 840.918564 330.26946 
L 842.288029 339.54181 
L 843.657494 333.212143 
L 845.02696 336.019605 
L 846.396425 335.343496 
L 847.76589 345.678304 
L 849.135355 345.678304 
L 850.50482 320.005482 
L 851.874285 335.620379 
L 853.243751 310.984258 
L 854.613216 327.429802 
L 855.982681 325.543136 
L 857.352146 345.678304 
L 858.721611 345.678304 
L 860.091077 296.79241 
L 861.460542 301.776298 
L 862.830007 315.42082 
L 864.199472 317.255973 
L 865.568937 311.467193 
L 866.938402 345.678304 
L 868.307868 345.678304 
L 869.677333 274.15242 
L 871.046798 315.073107 
L 872.416263 314.905689 
L 875.155194 306.296569 
L 876.524659 345.678304 
L 877.894124 345.678304 
L 879.263589 239.155735 
L 880.633054 306.476865 
L 882.002519 310.861914 
L 883.371985 311.63461 
L 884.74145 297.075731 
L 886.110915 345.678304 
L 887.48038 345.678304 
L 888.849845 259.587102 
L 890.219311 321.911466 
L 891.588776 303.141394 
L 892.958241 309.941118 
L 894.327706 307.545761 
L 895.697171 345.678304 
L 897.066636 345.678304 
L 898.436102 275.56259 
L 899.805567 321.119452 
L 901.175032 303.057686 
L 902.544497 312.639115 
L 903.913962 323.604957 
L 905.283427 345.678304 
L 909.391823 345.678304 
L 910.761288 265.961843 
L 912.130753 332.162564 
L 913.500219 328.775581 
L 914.869684 345.678304 
L 917.608614 345.678304 
L 918.978079 310.057023 
L 920.347544 325.935923 
L 921.71701 314.107237 
L 923.086475 331.686069 
L 924.45594 345.678304 
L 927.19487 345.678304 
L 928.564336 315.736337 
L 929.933801 316.245029 
L 931.303266 334.970026 
L 932.672731 331.647434 
L 934.042196 345.678304 
L 935.411661 345.678304 
L 936.781127 325.111714 
L 938.150592 337.513484 
L 939.520057 333.405317 
L 940.889522 335.91014 
L 942.258987 339.226293 
L 943.628453 345.678304 
L 944.997918 345.678304 
L 946.367383 325.987436 
L 947.736848 339.039558 
L 949.106313 338.930093 
L 950.475778 340.06338 
L 951.845244 336.837375 
L 953.214709 345.678304 
L 954.584174 345.678304 
L 955.953639 334.5708 
L 957.323104 339.110388 
L 958.69257 339.754302 
L 960.062035 339.425906 
L 961.4315 340.610706 
L 962.800965 345.678304 
L 964.17043 345.678304 
L 965.539895 336.251414 
L 966.909361 338.408523 
L 968.278826 342.130342 
L 969.648291 340.256554 
L 971.017756 342.078829 
L 972.387221 345.678304 
L 973.756687 345.678304 
L 975.126152 338.743358 
L 976.495617 341.937168 
L 977.865082 342.490933 
L 979.234547 339.734984 
L 980.604012 341.293254 
L 981.973478 345.678304 
L 983.342943 345.678304 
L 984.712408 340.024745 
L 986.081873 342.716303 
L 987.451338 340.720172 
L 988.820804 342.51669 
L 991.559734 345.678304 
L 992.929199 345.678304 
L 994.298664 335.83287 
L 995.668129 344.094277 
L 997.037595 342.81289 
L 998.40706 341.686041 
L 999.776525 342.21405 
L 1001.14599 345.678304 
L 1002.515455 345.678304 
L 1003.88492 340.462606 
L 1005.254386 342.626155 
L 1006.623851 342.490933 
L 1007.993316 345.678304 
L 1009.362781 341.003493 
L 1010.732246 345.678304 
L 1012.101712 345.678304 
L 1013.471177 339.612641 
L 1014.840642 342.651911 
L 1016.210107 341.653846 
L 1017.579572 342.729181 
L 1018.949037 342.581081 
L 1020.318503 345.678304 
L 1021.687968 345.678304 
L 1023.057433 341.10008 
L 1024.426898 341.344767 
L 1027.165829 345.678304 
L 1031.274224 345.678304 
L 1032.643689 337.603631 
L 1034.013154 341.885655 
L 1035.38262 339.606202 
L 1036.752085 342.632594 
L 1038.12155 342.593959 
L 1039.491015 345.678304 
L 1040.86048 345.678304 
L 1042.229946 340.320945 
L 1043.599411 342.072389 
L 1044.968876 340.964859 
L 1046.338341 342.748498 
L 1047.707806 342.027315 
L 1049.077271 345.678304 
L 1050.446737 345.678304 
L 1051.816202 338.138079 
L 1053.185667 345.678304 
L 1054.555132 336.431709 
L 1055.924597 339.078193 
L 1057.294063 338.588819 
L 1058.663528 345.678304 
L 1060.032993 345.678304 
L 1061.402458 326.773011 
L 1062.771923 334.545044 
L 1064.141388 331.480016 
L 1065.510854 327.423363 
L 1066.880319 345.678304 
L 1069.619249 345.678304 
L 1070.988714 267.352696 
L 1072.35818 317.906325 
L 1073.727645 285.292119 
L 1075.09711 265.401639 
L 1076.466575 345.678304 
L 1079.205505 345.678304 
L 1080.574971 145.028496 
L 1081.944436 285.858763 
L 1083.313901 278.692008 
L 1084.683366 255.034635 
L 1086.052831 250.366264 
L 1087.422297 345.678304 
L 1088.791762 345.678304 
L 1090.161227 158.821117 
L 1091.530692 265.227782 
L 1092.900157 345.678304 
L 1094.269622 345.678304 
L 1095.639088 50.8755 
L 1097.008553 339.889523 
L 1098.378018 345.678304 
L 1099.747483 345.678304 
L 1101.116948 158.138569 
L 1102.486413 271.621841 
L 1103.855879 263.057794 
L 1105.225344 281.660448 
L 1106.594809 345.678304 
L 1107.964274 345.678304 
L 1109.333739 240.314778 
L 1110.703205 293.759578 
L 1112.07267 296.013275 
L 1113.442135 302.993294 
L 1114.8116 303.933408 
L 1116.181065 345.678304 
L 1117.55053 345.678304 
L 1118.919996 288.782129 
L 1120.289461 318.511604 
L 1121.658926 318.183208 
L 1123.028391 315.556042 
L 1124.397856 305.717047 
L 1125.767322 345.678304 
L 1127.136787 345.678304 
L 1128.506252 304.50649 
L 1129.875717 330.939129 
L 1131.245182 331.89856 
L 1133.984113 329.103977 
L 1135.353578 345.678304 
L 1136.723043 345.678304 
L 1138.092508 328.78202 
L 1139.461973 336.830936 
L 1140.831439 337.848318 
L 1142.200904 335.266226 
L 1143.570369 338.904336 
L 1144.939834 345.678304 
L 1146.309299 345.678304 
L 1147.678764 334.081426 
L 1149.04823 336.824496 
L 1150.417695 340.314506 
L 1151.78716 340.327384 
L 1153.156625 341.943607 
L 1154.52609 345.678304 
L 1158.634486 345.678304 
L 1160.003951 337.481288 
L 1161.373416 342.239807 
L 1164.112347 345.678304 
L 1165.481812 345.678304 
L 1166.851277 342.690546 
L 1168.220742 343.817394 
L 1169.590207 343.340899 
L 1170.959673 344.802582 
L 1172.329138 344.841216 
L 1173.698603 345.678304 
L 1175.068068 345.678304 
L 1176.437533 342.555324 
L 1177.806998 344.319647 
L 1179.176464 344.596529 
L 1180.545929 344.648042 
L 1181.915394 344.512821 
L 1183.284859 345.678304 
L 1184.654324 345.678304 
L 1186.023789 344.300329 
L 1187.393255 344.828338 
L 1188.76272 344.751069 
L 1190.132185 344.976438 
L 1191.50165 344.673799 
L 1192.871115 345.678304 
L 1194.240581 345.678304 
L 1195.610046 344.557895 
L 1196.979511 345.176051 
L 1199.718441 344.809021 
L 1202.457372 345.678304 
L 1203.826837 345.678304 
L 1205.196302 344.345403 
L 1207.935232 344.454868 
L 1209.304698 344.944243 
L 1210.674163 345.03439 
L 1212.043628 345.678304 
L 1213.413093 345.678304 
L 1214.782558 344.557895 
L 1216.152023 344.596529 
L 1217.521489 344.165107 
L 1218.890954 342.800011 
L 1220.260419 345.678304 
L 1222.999349 345.678304 
L 1224.368815 342.690546 
L 1225.73828 344.416234 
L 1227.107745 344.132912 
L 1228.47721 344.551455 
L 1229.846675 344.416234 
L 1231.21614 345.678304 
L 1232.585606 345.678304 
L 1233.955071 342.130342 
L 1235.324536 344.177986 
L 1236.694001 343.843151 
L 1238.063466 343.913981 
L 1239.432932 343.611342 
L 1240.802397 345.678304 
L 1242.171862 345.678304 
L 1243.541327 342.613277 
L 1244.910792 342.851524 
L 1246.280257 343.418168 
L 1247.649723 342.832207 
L 1249.019188 342.748498 
L 1250.388653 345.678304 
L 1251.758118 345.678304 
L 1253.127583 340.327384 
L 1254.497049 342.407224 
L 1255.866514 341.750433 
L 1257.235979 340.739489 
L 1258.605444 341.62165 
L 1259.974909 345.678304 
L 1261.344374 345.678304 
L 1262.71384 338.273301 
L 1264.083305 340.906906 
L 1265.45277 338.711162 
L 1266.822235 338.170275 
L 1268.1917 339.599763 
L 1269.561166 345.678304 
L 1270.930631 345.678304 
L 1272.300096 337.461971 
L 1273.669561 339.548249 
L 1275.039026 337.230162 
L 1276.408491 339.065315 
L 1277.777957 338.955849 
L 1279.147422 345.678304 
L 1281.886352 345.678304 
L 1283.255817 331.834169 
L 1284.625282 334.248843 
L 1285.994748 338.35701 
L 1287.364213 335.195396 
L 1288.733678 345.678304 
L 1290.103143 345.678304 
L 1291.472608 332.903065 
L 1292.842074 335.7556 
L 1294.211539 337.371823 
L 1295.581004 336.302927 
L 1296.950469 335.053735 
L 1298.319934 345.678304 
L 1299.689399 345.678304 
L 1301.058865 333.386 
L 1302.42833 333.347365 
L 1303.797795 337.597192 
L 1305.16726 335.568866 
L 1306.536725 345.678304 
L 1306.536725 345.678304 
" clip-path="url(#pf1e5415431)" style="fill: none; stroke: #0000ff; stroke-width: 1.5; stroke-linecap: square"/>
   </g>
   <g id="line2d_18">
    <path d="M 1066.880319 337.777344 
L 1068.249784 338.011651 
L 1069.619249 319.303036 
L 1070.988714 338.795831 
L 1072.35818 339.49663 
L 1073.727645 349.749062 
L 1075.09711 323.519525 
L 1076.466575 334.40086 
L 1077.83604 315.592082 
L 1079.205505 235.137966 
L 1080.574971 308.327943 
L 1081.944436 297.814695 
L 1083.313901 310.334973 
L 1084.683366 268.295449 
L 1086.052831 297.900679 
L 1087.422297 305.701074 
L 1088.791762 179.753572 
L 1090.161227 228.054699 
L 1091.530692 267.379015 
L 1092.900157 268.282373 
L 1094.269622 225.503135 
L 1095.639088 300.016456 
L 1097.008553 342.287121 
L 1098.378018 295.347139 
L 1099.747483 168.249693 
L 1101.116948 301.008472 
L 1102.486413 311.521142 
L 1103.855879 225.204527 
L 1105.225344 284.15993 
L 1106.594809 282.788047 
L 1107.964274 249.960092 
L 1109.333739 253.231264 
L 1110.703205 292.913169 
L 1112.07267 301.893989 
L 1113.442135 247.416874 
L 1114.8116 353.2755 
L 1116.181065 338.955016 
L 1117.55053 280.109933 
L 1118.919996 312.577533 
L 1120.289461 312.598997 
L 1121.658926 317.921121 
L 1123.028391 327.714857 
L 1124.397856 344.626239 
L 1125.767322 347.199584 
L 1127.136787 314.396019 
L 1128.506252 320.980987 
L 1129.875717 326.644092 
L 1131.245182 326.784181 
L 1132.614647 312.314919 
L 1133.984113 340.358113 
L 1135.353578 341.919731 
L 1136.723043 319.393325 
L 1138.092508 339.715763 
L 1139.461973 338.612539 
L 1140.831439 337.085875 
L 1143.570369 347.165532 
L 1144.939834 346.902123 
L 1146.309299 336.66032 
L 1147.678764 341.663801 
L 1149.04823 342.250623 
L 1150.417695 340.986075 
L 1151.78716 341.327884 
L 1153.156625 343.135083 
L 1154.52609 343.657829 
L 1155.895556 338.082051 
L 1157.265021 338.856426 
L 1158.634486 340.987078 
L 1160.003951 341.12084 
L 1161.373416 346.228947 
L 1162.742881 350.714944 
L 1164.112347 345.168631 
L 1165.481812 346.603791 
L 1166.851277 347.041121 
L 1168.220742 341.278318 
L 1169.590207 344.592274 
L 1170.959673 342.998864 
L 1172.329138 342.89751 
L 1173.698603 345.757734 
L 1175.068068 343.835628 
L 1176.437533 344.512776 
L 1177.806998 344.939882 
L 1179.176464 345.607278 
L 1180.545929 344.840129 
L 1181.915394 345.645724 
L 1183.284859 345.627366 
L 1184.654324 343.487251 
L 1186.023789 344.261855 
L 1187.393255 344.68581 
L 1188.76272 344.715771 
L 1190.132185 345.038869 
L 1191.50165 345.661122 
L 1192.871115 345.485001 
L 1194.240581 344.908674 
L 1198.348976 345.301226 
L 1199.718441 344.863617 
L 1201.087906 345.582061 
L 1202.457372 345.544084 
L 1203.826837 344.610964 
L 1205.196302 345.317338 
L 1206.565767 345.265714 
L 1209.304698 345.290615 
L 1210.674163 345.193215 
L 1212.043628 344.97806 
L 1213.413093 344.404775 
L 1214.782558 344.337406 
L 1216.152023 344.600182 
L 1217.521489 345.139689 
L 1218.890954 345.253658 
L 1220.260419 345.621221 
L 1221.629884 345.514434 
L 1222.999349 343.342953 
L 1224.368815 344.688214 
L 1225.73828 344.517914 
L 1227.107745 343.996765 
L 1229.846675 344.808119 
L 1231.21614 344.639724 
L 1232.585606 343.769831 
L 1235.324536 344.444869 
L 1236.694001 345.254675 
L 1238.063466 344.025395 
L 1239.432932 345.121623 
L 1240.802397 344.9667 
L 1242.171862 342.495096 
L 1243.541327 343.479574 
L 1246.280257 344.394699 
L 1247.649723 344.091351 
L 1249.019188 344.654999 
L 1250.388653 344.733706 
L 1251.758118 342.466087 
L 1253.127583 342.336239 
L 1254.497049 343.614147 
L 1255.866514 344.135849 
L 1257.235979 342.185459 
L 1258.605444 344.624312 
L 1259.974909 343.90791 
L 1261.344374 339.613798 
L 1262.71384 341.102721 
L 1264.083305 341.969946 
L 1265.45277 342.659406 
L 1266.822235 341.396487 
L 1268.1917 344.149873 
L 1269.561166 342.665529 
L 1270.930631 337.19832 
L 1272.300096 338.479062 
L 1273.669561 339.105522 
L 1275.039026 340.315226 
L 1276.408491 339.606022 
L 1277.777957 343.308863 
L 1279.147422 342.044571 
L 1280.516887 337.82883 
L 1281.886352 337.697347 
L 1283.255817 338.74532 
L 1284.625282 340.553501 
L 1285.994748 345.762743 
L 1287.364213 342.655659 
L 1288.733678 341.46974 
L 1290.103143 342.830828 
L 1291.472608 331.712341 
L 1292.842074 336.240126 
L 1294.211539 341.427567 
L 1295.581004 330.924725 
L 1296.950469 341.707229 
L 1298.319934 342.8031 
L 1299.689399 332.304964 
L 1301.058865 335.14778 
L 1302.42833 338.64712 
L 1303.797795 339.092265 
L 1305.16726 337.749535 
L 1306.536725 340.468897 
L 1306.536725 340.468897 
" clip-path="url(#pf1e5415431)" style="fill: none; stroke: #ffa500; stroke-width: 1.5; stroke-linecap: square"/>
   </g>
   <g id="line2d_19">
    <path d="M 1306.536725 340.468897 
L 1307.906191 341.62907 
L 1309.275656 332.811667 
L 1310.645121 340.041831 
L 1312.014586 338.251983 
L 1313.384051 336.851027 
L 1314.753516 341.334792 
L 1316.122982 341.420221 
L 1317.492447 340.868261 
L 1318.861912 335.903585 
L 1320.231377 338.695209 
L 1321.600842 339.262505 
L 1322.970308 338.289092 
L 1324.339773 340.73928 
" clip-path="url(#pf1e5415431)" style="fill: none; stroke: #ff0000; stroke-width: 1.5; stroke-linecap: square"/>
   </g>
   <g id="patch_3">
    <path d="M 46.0125 368.3955 
L 46.0125 35.7555 
" style="fill: none; stroke: #000000; stroke-width: 0.8; stroke-linejoin: miter; stroke-linecap: square"/>
   </g>
   <g id="patch_4">
    <path d="M 1385.2125 368.3955 
L 1385.2125 35.7555 
" style="fill: none; stroke: #000000; stroke-width: 0.8; stroke-linejoin: miter; stroke-linecap: square"/>
   </g>
   <g id="patch_5">
    <path d="M 46.0125 368.3955 
L 1385.2125 368.3955 
" style="fill: none; stroke: #000000; stroke-width: 0.8; stroke-linejoin: miter; stroke-linecap: square"/>
   </g>
   <g id="patch_6">
    <path d="M 46.0125 35.7555 
L 1385.2125 35.7555 
" style="fill: none; stroke: #000000; stroke-width: 0.8; stroke-linejoin: miter; stroke-linecap: square"/>
   </g>
   <g id="text_17">
    <!-- Daily Confirmed Cases Forecasting - Louisiana -->
    <g transform="translate(576.784688 16.318125)scale(0.12 -0.12)">
     <defs>
      <path id="DejaVuSans-44" d="M 1259 4147 
L 1259 519 
L 2022 519 
Q 2988 519 3436 956 
Q 3884 1394 3884 2338 
Q 3884 3275 3436 3711 
Q 2988 4147 2022 4147 
L 1259 4147 
z
M 628 4666 
L 1925 4666 
Q 3281 4666 3915 4102 
Q 4550 3538 4550 2338 
Q 4550 1131 3912 565 
Q 3275 0 1925 0 
L 628 0 
L 628 4666 
z
" transform="scale(0.015625)"/>
      <path id="DejaVuSans-61" d="M 2194 1759 
Q 1497 1759 1228 1600 
Q 959 1441 959 1056 
Q 959 750 1161 570 
Q 1363 391 1709 391 
Q 2188 391 2477 730 
Q 2766 1069 2766 1631 
L 2766 1759 
L 2194 1759 
z
M 3341 1997 
L 3341 0 
L 2766 0 
L 2766 531 
Q 2569 213 2275 61 
Q 1981 -91 1556 -91 
Q 1019 -91 701 211 
Q 384 513 384 1019 
Q 384 1609 779 1909 
Q 1175 2209 1959 2209 
L 2766 2209 
L 2766 2266 
Q 2766 2663 2505 2880 
Q 2244 3097 1772 3097 
Q 1472 3097 1187 3025 
Q 903 2953 641 2809 
L 641 3341 
Q 956 3463 1253 3523 
Q 1550 3584 1831 3584 
Q 2591 3584 2966 3190 
Q 3341 2797 3341 1997 
z
" transform="scale(0.015625)"/>
      <path id="DejaVuSans-69" d="M 603 3500 
L 1178 3500 
L 1178 0 
L 603 0 
L 603 3500 
z
M 603 4863 
L 1178 4863 
L 1178 4134 
L 603 4134 
L 603 4863 
z
" transform="scale(0.015625)"/>
      <path id="DejaVuSans-6c" d="M 603 4863 
L 1178 4863 
L 1178 0 
L 603 0 
L 603 4863 
z
" transform="scale(0.015625)"/>
      <path id="DejaVuSans-79" d="M 2059 -325 
Q 1816 -950 1584 -1140 
Q 1353 -1331 966 -1331 
L 506 -1331 
L 506 -850 
L 844 -850 
Q 1081 -850 1212 -737 
Q 1344 -625 1503 -206 
L 1606 56 
L 191 3500 
L 800 3500 
L 1894 763 
L 2988 3500 
L 3597 3500 
L 2059 -325 
z
" transform="scale(0.015625)"/>
      <path id="DejaVuSans-20" transform="scale(0.015625)"/>
      <path id="DejaVuSans-43" d="M 4122 4306 
L 4122 3641 
Q 3803 3938 3442 4084 
Q 3081 4231 2675 4231 
Q 1875 4231 1450 3742 
Q 1025 3253 1025 2328 
Q 1025 1406 1450 917 
Q 1875 428 2675 428 
Q 3081 428 3442 575 
Q 3803 722 4122 1019 
L 4122 359 
Q 3791 134 3420 21 
Q 3050 -91 2638 -91 
Q 1578 -91 968 557 
Q 359 1206 359 2328 
Q 359 3453 968 4101 
Q 1578 4750 2638 4750 
Q 3056 4750 3426 4639 
Q 3797 4528 4122 4306 
z
" transform="scale(0.015625)"/>
      <path id="DejaVuSans-6f" d="M 1959 3097 
Q 1497 3097 1228 2736 
Q 959 2375 959 1747 
Q 959 1119 1226 758 
Q 1494 397 1959 397 
Q 2419 397 2687 759 
Q 2956 1122 2956 1747 
Q 2956 2369 2687 2733 
Q 2419 3097 1959 3097 
z
M 1959 3584 
Q 2709 3584 3137 3096 
Q 3566 2609 3566 1747 
Q 3566 888 3137 398 
Q 2709 -91 1959 -91 
Q 1206 -91 779 398 
Q 353 888 353 1747 
Q 353 2609 779 3096 
Q 1206 3584 1959 3584 
z
" transform="scale(0.015625)"/>
      <path id="DejaVuSans-6e" d="M 3513 2113 
L 3513 0 
L 2938 0 
L 2938 2094 
Q 2938 2591 2744 2837 
Q 2550 3084 2163 3084 
Q 1697 3084 1428 2787 
Q 1159 2491 1159 1978 
L 1159 0 
L 581 0 
L 581 3500 
L 1159 3500 
L 1159 2956 
Q 1366 3272 1645 3428 
Q 1925 3584 2291 3584 
Q 2894 3584 3203 3211 
Q 3513 2838 3513 2113 
z
" transform="scale(0.015625)"/>
      <path id="DejaVuSans-66" d="M 2375 4863 
L 2375 4384 
L 1825 4384 
Q 1516 4384 1395 4259 
Q 1275 4134 1275 3809 
L 1275 3500 
L 2222 3500 
L 2222 3053 
L 1275 3053 
L 1275 0 
L 697 0 
L 697 3053 
L 147 3053 
L 147 3500 
L 697 3500 
L 697 3744 
Q 697 4328 969 4595 
Q 1241 4863 1831 4863 
L 2375 4863 
z
" transform="scale(0.015625)"/>
      <path id="DejaVuSans-72" d="M 2631 2963 
Q 2534 3019 2420 3045 
Q 2306 3072 2169 3072 
Q 1681 3072 1420 2755 
Q 1159 2438 1159 1844 
L 1159 0 
L 581 0 
L 581 3500 
L 1159 3500 
L 1159 2956 
Q 1341 3275 1631 3429 
Q 1922 3584 2338 3584 
Q 2397 3584 2469 3576 
Q 2541 3569 2628 3553 
L 2631 2963 
z
" transform="scale(0.015625)"/>
      <path id="DejaVuSans-6d" d="M 3328 2828 
Q 3544 3216 3844 3400 
Q 4144 3584 4550 3584 
Q 5097 3584 5394 3201 
Q 5691 2819 5691 2113 
L 5691 0 
L 5113 0 
L 5113 2094 
Q 5113 2597 4934 2840 
Q 4756 3084 4391 3084 
Q 3944 3084 3684 2787 
Q 3425 2491 3425 1978 
L 3425 0 
L 2847 0 
L 2847 2094 
Q 2847 2600 2669 2842 
Q 2491 3084 2119 3084 
Q 1678 3084 1418 2786 
Q 1159 2488 1159 1978 
L 1159 0 
L 581 0 
L 581 3500 
L 1159 3500 
L 1159 2956 
Q 1356 3278 1631 3431 
Q 1906 3584 2284 3584 
Q 2666 3584 2933 3390 
Q 3200 3197 3328 2828 
z
" transform="scale(0.015625)"/>
      <path id="DejaVuSans-65" d="M 3597 1894 
L 3597 1613 
L 953 1613 
Q 991 1019 1311 708 
Q 1631 397 2203 397 
Q 2534 397 2845 478 
Q 3156 559 3463 722 
L 3463 178 
Q 3153 47 2828 -22 
Q 2503 -91 2169 -91 
Q 1331 -91 842 396 
Q 353 884 353 1716 
Q 353 2575 817 3079 
Q 1281 3584 2069 3584 
Q 2775 3584 3186 3129 
Q 3597 2675 3597 1894 
z
M 3022 2063 
Q 3016 2534 2758 2815 
Q 2500 3097 2075 3097 
Q 1594 3097 1305 2825 
Q 1016 2553 972 2059 
L 3022 2063 
z
" transform="scale(0.015625)"/>
      <path id="DejaVuSans-64" d="M 2906 2969 
L 2906 4863 
L 3481 4863 
L 3481 0 
L 2906 0 
L 2906 525 
Q 2725 213 2448 61 
Q 2172 -91 1784 -91 
Q 1150 -91 751 415 
Q 353 922 353 1747 
Q 353 2572 751 3078 
Q 1150 3584 1784 3584 
Q 2172 3584 2448 3432 
Q 2725 3281 2906 2969 
z
M 947 1747 
Q 947 1113 1208 752 
Q 1469 391 1925 391 
Q 2381 391 2643 752 
Q 2906 1113 2906 1747 
Q 2906 2381 2643 2742 
Q 2381 3103 1925 3103 
Q 1469 3103 1208 2742 
Q 947 2381 947 1747 
z
" transform="scale(0.015625)"/>
      <path id="DejaVuSans-73" d="M 2834 3397 
L 2834 2853 
Q 2591 2978 2328 3040 
Q 2066 3103 1784 3103 
Q 1356 3103 1142 2972 
Q 928 2841 928 2578 
Q 928 2378 1081 2264 
Q 1234 2150 1697 2047 
L 1894 2003 
Q 2506 1872 2764 1633 
Q 3022 1394 3022 966 
Q 3022 478 2636 193 
Q 2250 -91 1575 -91 
Q 1294 -91 989 -36 
Q 684 19 347 128 
L 347 722 
Q 666 556 975 473 
Q 1284 391 1588 391 
Q 1994 391 2212 530 
Q 2431 669 2431 922 
Q 2431 1156 2273 1281 
Q 2116 1406 1581 1522 
L 1381 1569 
Q 847 1681 609 1914 
Q 372 2147 372 2553 
Q 372 3047 722 3315 
Q 1072 3584 1716 3584 
Q 2034 3584 2315 3537 
Q 2597 3491 2834 3397 
z
" transform="scale(0.015625)"/>
      <path id="DejaVuSans-46" d="M 628 4666 
L 3309 4666 
L 3309 4134 
L 1259 4134 
L 1259 2759 
L 3109 2759 
L 3109 2228 
L 1259 2228 
L 1259 0 
L 628 0 
L 628 4666 
z
" transform="scale(0.015625)"/>
      <path id="DejaVuSans-63" d="M 3122 3366 
L 3122 2828 
Q 2878 2963 2633 3030 
Q 2388 3097 2138 3097 
Q 1578 3097 1268 2742 
Q 959 2388 959 1747 
Q 959 1106 1268 751 
Q 1578 397 2138 397 
Q 2388 397 2633 464 
Q 2878 531 3122 666 
L 3122 134 
Q 2881 22 2623 -34 
Q 2366 -91 2075 -91 
Q 1284 -91 818 406 
Q 353 903 353 1747 
Q 353 2603 823 3093 
Q 1294 3584 2113 3584 
Q 2378 3584 2631 3529 
Q 2884 3475 3122 3366 
z
" transform="scale(0.015625)"/>
      <path id="DejaVuSans-74" d="M 1172 4494 
L 1172 3500 
L 2356 3500 
L 2356 3053 
L 1172 3053 
L 1172 1153 
Q 1172 725 1289 603 
Q 1406 481 1766 481 
L 2356 481 
L 2356 0 
L 1766 0 
Q 1100 0 847 248 
Q 594 497 594 1153 
L 594 3053 
L 172 3053 
L 172 3500 
L 594 3500 
L 594 4494 
L 1172 4494 
z
" transform="scale(0.015625)"/>
      <path id="DejaVuSans-67" d="M 2906 1791 
Q 2906 2416 2648 2759 
Q 2391 3103 1925 3103 
Q 1463 3103 1205 2759 
Q 947 2416 947 1791 
Q 947 1169 1205 825 
Q 1463 481 1925 481 
Q 2391 481 2648 825 
Q 2906 1169 2906 1791 
z
M 3481 434 
Q 3481 -459 3084 -895 
Q 2688 -1331 1869 -1331 
Q 1566 -1331 1297 -1286 
Q 1028 -1241 775 -1147 
L 775 -588 
Q 1028 -725 1275 -790 
Q 1522 -856 1778 -856 
Q 2344 -856 2625 -561 
Q 2906 -266 2906 331 
L 2906 616 
Q 2728 306 2450 153 
Q 2172 0 1784 0 
Q 1141 0 747 490 
Q 353 981 353 1791 
Q 353 2603 747 3093 
Q 1141 3584 1784 3584 
Q 2172 3584 2450 3431 
Q 2728 3278 2906 2969 
L 2906 3500 
L 3481 3500 
L 3481 434 
z
" transform="scale(0.015625)"/>
      <path id="DejaVuSans-4c" d="M 628 4666 
L 1259 4666 
L 1259 531 
L 3531 531 
L 3531 0 
L 628 0 
L 628 4666 
z
" transform="scale(0.015625)"/>
      <path id="DejaVuSans-75" d="M 544 1381 
L 544 3500 
L 1119 3500 
L 1119 1403 
Q 1119 906 1312 657 
Q 1506 409 1894 409 
Q 2359 409 2629 706 
Q 2900 1003 2900 1516 
L 2900 3500 
L 3475 3500 
L 3475 0 
L 2900 0 
L 2900 538 
Q 2691 219 2414 64 
Q 2138 -91 1772 -91 
Q 1169 -91 856 284 
Q 544 659 544 1381 
z
M 1991 3584 
L 1991 3584 
z
" transform="scale(0.015625)"/>
     </defs>
     <use xlink:href="#DejaVuSans-44"/>
     <use xlink:href="#DejaVuSans-61" x="77.001953"/>
     <use xlink:href="#DejaVuSans-69" x="138.28125"/>
     <use xlink:href="#DejaVuSans-6c" x="166.064453"/>
     <use xlink:href="#DejaVuSans-79" x="193.847656"/>
     <use xlink:href="#DejaVuSans-20" x="253.027344"/>
     <use xlink:href="#DejaVuSans-43" x="284.814453"/>
     <use xlink:href="#DejaVuSans-6f" x="354.638672"/>
     <use xlink:href="#DejaVuSans-6e" x="415.820312"/>
     <use xlink:href="#DejaVuSans-66" x="479.199219"/>
     <use xlink:href="#DejaVuSans-69" x="514.404297"/>
     <use xlink:href="#DejaVuSans-72" x="542.1875"/>
     <use xlink:href="#DejaVuSans-6d" x="581.550781"/>
     <use xlink:href="#DejaVuSans-65" x="678.962891"/>
     <use xlink:href="#DejaVuSans-64" x="740.486328"/>
     <use xlink:href="#DejaVuSans-20" x="803.962891"/>
     <use xlink:href="#DejaVuSans-43" x="835.75"/>
     <use xlink:href="#DejaVuSans-61" x="905.574219"/>
     <use xlink:href="#DejaVuSans-73" x="966.853516"/>
     <use xlink:href="#DejaVuSans-65" x="1018.953125"/>
     <use xlink:href="#DejaVuSans-73" x="1080.476562"/>
     <use xlink:href="#DejaVuSans-20" x="1132.576172"/>
     <use xlink:href="#DejaVuSans-46" x="1164.363281"/>
     <use xlink:href="#DejaVuSans-6f" x="1218.257812"/>
     <use xlink:href="#DejaVuSans-72" x="1279.439453"/>
     <use xlink:href="#DejaVuSans-65" x="1318.302734"/>
     <use xlink:href="#DejaVuSans-63" x="1379.826172"/>
     <use xlink:href="#DejaVuSans-61" x="1434.806641"/>
     <use xlink:href="#DejaVuSans-73" x="1496.085938"/>
     <use xlink:href="#DejaVuSans-74" x="1548.185547"/>
     <use xlink:href="#DejaVuSans-69" x="1587.394531"/>
     <use xlink:href="#DejaVuSans-6e" x="1615.177734"/>
     <use xlink:href="#DejaVuSans-67" x="1678.556641"/>
     <use xlink:href="#DejaVuSans-20" x="1742.033203"/>
     <use xlink:href="#DejaVuSans-2d" x="1773.820312"/>
     <use xlink:href="#DejaVuSans-20" x="1809.904297"/>
     <use xlink:href="#DejaVuSans-4c" x="1841.691406"/>
     <use xlink:href="#DejaVuSans-6f" x="1895.654297"/>
     <use xlink:href="#DejaVuSans-75" x="1956.835938"/>
     <use xlink:href="#DejaVuSans-69" x="2020.214844"/>
     <use xlink:href="#DejaVuSans-73" x="2047.998047"/>
     <use xlink:href="#DejaVuSans-69" x="2100.097656"/>
     <use xlink:href="#DejaVuSans-61" x="2127.880859"/>
     <use xlink:href="#DejaVuSans-6e" x="2189.160156"/>
     <use xlink:href="#DejaVuSans-61" x="2252.539062"/>
    </g>
    <!-- ARIMA (4, 1, 1)x(1, 0, 1, 7) (R2 = -0.028236) -->
    <g transform="translate(581.46375 29.7555)scale(0.12 -0.12)">
     <defs>
      <path id="DejaVuSans-41" d="M 2188 4044 
L 1331 1722 
L 3047 1722 
L 2188 4044 
z
M 1831 4666 
L 2547 4666 
L 4325 0 
L 3669 0 
L 3244 1197 
L 1141 1197 
L 716 0 
L 50 0 
L 1831 4666 
z
" transform="scale(0.015625)"/>
      <path id="DejaVuSans-52" d="M 2841 2188 
Q 3044 2119 3236 1894 
Q 3428 1669 3622 1275 
L 4263 0 
L 3584 0 
L 2988 1197 
Q 2756 1666 2539 1819 
Q 2322 1972 1947 1972 
L 1259 1972 
L 1259 0 
L 628 0 
L 628 4666 
L 2053 4666 
Q 2853 4666 3247 4331 
Q 3641 3997 3641 3322 
Q 3641 2881 3436 2590 
Q 3231 2300 2841 2188 
z
M 1259 4147 
L 1259 2491 
L 2053 2491 
Q 2509 2491 2742 2702 
Q 2975 2913 2975 3322 
Q 2975 3731 2742 3939 
Q 2509 4147 2053 4147 
L 1259 4147 
z
" transform="scale(0.015625)"/>
      <path id="DejaVuSans-49" d="M 628 4666 
L 1259 4666 
L 1259 0 
L 628 0 
L 628 4666 
z
" transform="scale(0.015625)"/>
      <path id="DejaVuSans-4d" d="M 628 4666 
L 1569 4666 
L 2759 1491 
L 3956 4666 
L 4897 4666 
L 4897 0 
L 4281 0 
L 4281 4097 
L 3078 897 
L 2444 897 
L 1241 4097 
L 1241 0 
L 628 0 
L 628 4666 
z
" transform="scale(0.015625)"/>
      <path id="DejaVuSans-28" d="M 1984 4856 
Q 1566 4138 1362 3434 
Q 1159 2731 1159 2009 
Q 1159 1288 1364 580 
Q 1569 -128 1984 -844 
L 1484 -844 
Q 1016 -109 783 600 
Q 550 1309 550 2009 
Q 550 2706 781 3412 
Q 1013 4119 1484 4856 
L 1984 4856 
z
" transform="scale(0.015625)"/>
      <path id="DejaVuSans-2c" d="M 750 794 
L 1409 794 
L 1409 256 
L 897 -744 
L 494 -744 
L 750 256 
L 750 794 
z
" transform="scale(0.015625)"/>
      <path id="DejaVuSans-29" d="M 513 4856 
L 1013 4856 
Q 1481 4119 1714 3412 
Q 1947 2706 1947 2009 
Q 1947 1309 1714 600 
Q 1481 -109 1013 -844 
L 513 -844 
Q 928 -128 1133 580 
Q 1338 1288 1338 2009 
Q 1338 2731 1133 3434 
Q 928 4138 513 4856 
z
" transform="scale(0.015625)"/>
      <path id="DejaVuSans-78" d="M 3513 3500 
L 2247 1797 
L 3578 0 
L 2900 0 
L 1881 1375 
L 863 0 
L 184 0 
L 1544 1831 
L 300 3500 
L 978 3500 
L 1906 2253 
L 2834 3500 
L 3513 3500 
z
" transform="scale(0.015625)"/>
      <path id="DejaVuSans-3d" d="M 678 2906 
L 4684 2906 
L 4684 2381 
L 678 2381 
L 678 2906 
z
M 678 1631 
L 4684 1631 
L 4684 1100 
L 678 1100 
L 678 1631 
z
" transform="scale(0.015625)"/>
      <path id="DejaVuSans-2e" d="M 684 794 
L 1344 794 
L 1344 0 
L 684 0 
L 684 794 
z
" transform="scale(0.015625)"/>
      <path id="DejaVuSans-38" d="M 2034 2216 
Q 1584 2216 1326 1975 
Q 1069 1734 1069 1313 
Q 1069 891 1326 650 
Q 1584 409 2034 409 
Q 2484 409 2743 651 
Q 3003 894 3003 1313 
Q 3003 1734 2745 1975 
Q 2488 2216 2034 2216 
z
M 1403 2484 
Q 997 2584 770 2862 
Q 544 3141 544 3541 
Q 544 4100 942 4425 
Q 1341 4750 2034 4750 
Q 2731 4750 3128 4425 
Q 3525 4100 3525 3541 
Q 3525 3141 3298 2862 
Q 3072 2584 2669 2484 
Q 3125 2378 3379 2068 
Q 3634 1759 3634 1313 
Q 3634 634 3220 271 
Q 2806 -91 2034 -91 
Q 1263 -91 848 271 
Q 434 634 434 1313 
Q 434 1759 690 2068 
Q 947 2378 1403 2484 
z
M 1172 3481 
Q 1172 3119 1398 2916 
Q 1625 2713 2034 2713 
Q 2441 2713 2670 2916 
Q 2900 3119 2900 3481 
Q 2900 3844 2670 4047 
Q 2441 4250 2034 4250 
Q 1625 4250 1398 4047 
Q 1172 3844 1172 3481 
z
" transform="scale(0.015625)"/>
      <path id="DejaVuSans-36" d="M 2113 2584 
Q 1688 2584 1439 2293 
Q 1191 2003 1191 1497 
Q 1191 994 1439 701 
Q 1688 409 2113 409 
Q 2538 409 2786 701 
Q 3034 994 3034 1497 
Q 3034 2003 2786 2293 
Q 2538 2584 2113 2584 
z
M 3366 4563 
L 3366 3988 
Q 3128 4100 2886 4159 
Q 2644 4219 2406 4219 
Q 1781 4219 1451 3797 
Q 1122 3375 1075 2522 
Q 1259 2794 1537 2939 
Q 1816 3084 2150 3084 
Q 2853 3084 3261 2657 
Q 3669 2231 3669 1497 
Q 3669 778 3244 343 
Q 2819 -91 2113 -91 
Q 1303 -91 875 529 
Q 447 1150 447 2328 
Q 447 3434 972 4092 
Q 1497 4750 2381 4750 
Q 2619 4750 2861 4703 
Q 3103 4656 3366 4563 
z
" transform="scale(0.015625)"/>
     </defs>
     <use xlink:href="#DejaVuSans-41"/>
     <use xlink:href="#DejaVuSans-52" x="68.408203"/>
     <use xlink:href="#DejaVuSans-49" x="137.890625"/>
     <use xlink:href="#DejaVuSans-4d" x="167.382812"/>
     <use xlink:href="#DejaVuSans-41" x="253.662109"/>
     <use xlink:href="#DejaVuSans-20" x="322.070312"/>
     <use xlink:href="#DejaVuSans-28" x="353.857422"/>
     <use xlink:href="#DejaVuSans-34" x="392.871094"/>
     <use xlink:href="#DejaVuSans-2c" x="456.494141"/>
     <use xlink:href="#DejaVuSans-20" x="488.28125"/>
     <use xlink:href="#DejaVuSans-31" x="520.068359"/>
     <use xlink:href="#DejaVuSans-2c" x="583.691406"/>
     <use xlink:href="#DejaVuSans-20" x="615.478516"/>
     <use xlink:href="#DejaVuSans-31" x="647.265625"/>
     <use xlink:href="#DejaVuSans-29" x="710.888672"/>
     <use xlink:href="#DejaVuSans-78" x="749.902344"/>
     <use xlink:href="#DejaVuSans-28" x="809.082031"/>
     <use xlink:href="#DejaVuSans-31" x="848.095703"/>
     <use xlink:href="#DejaVuSans-2c" x="911.71875"/>
     <use xlink:href="#DejaVuSans-20" x="943.505859"/>
     <use xlink:href="#DejaVuSans-30" x="975.292969"/>
     <use xlink:href="#DejaVuSans-2c" x="1038.916016"/>
     <use xlink:href="#DejaVuSans-20" x="1070.703125"/>
     <use xlink:href="#DejaVuSans-31" x="1102.490234"/>
     <use xlink:href="#DejaVuSans-2c" x="1166.113281"/>
     <use xlink:href="#DejaVuSans-20" x="1197.900391"/>
     <use xlink:href="#DejaVuSans-37" x="1229.6875"/>
     <use xlink:href="#DejaVuSans-29" x="1293.310547"/>
     <use xlink:href="#DejaVuSans-20" x="1332.324219"/>
     <use xlink:href="#DejaVuSans-28" x="1364.111328"/>
     <use xlink:href="#DejaVuSans-52" x="1403.125"/>
     <use xlink:href="#DejaVuSans-32" x="1472.607422"/>
     <use xlink:href="#DejaVuSans-20" x="1536.230469"/>
     <use xlink:href="#DejaVuSans-3d" x="1568.017578"/>
     <use xlink:href="#DejaVuSans-20" x="1651.806641"/>
     <use xlink:href="#DejaVuSans-2d" x="1683.59375"/>
     <use xlink:href="#DejaVuSans-30" x="1719.677734"/>
     <use xlink:href="#DejaVuSans-2e" x="1783.300781"/>
     <use xlink:href="#DejaVuSans-30" x="1815.087891"/>
     <use xlink:href="#DejaVuSans-32" x="1878.710938"/>
     <use xlink:href="#DejaVuSans-38" x="1942.333984"/>
     <use xlink:href="#DejaVuSans-32" x="2005.957031"/>
     <use xlink:href="#DejaVuSans-33" x="2069.580078"/>
     <use xlink:href="#DejaVuSans-36" x="2133.203125"/>
     <use xlink:href="#DejaVuSans-29" x="2196.826172"/>
    </g>
   </g>
   <g id="legend_1">
    <g id="patch_7">
     <path d="M 1281.132812 87.789875 
L 1378.2125 87.789875 
Q 1380.2125 87.789875 1380.2125 85.789875 
L 1380.2125 42.7555 
Q 1380.2125 40.7555 1378.2125 40.7555 
L 1281.132812 40.7555 
Q 1279.132812 40.7555 1279.132812 42.7555 
L 1279.132812 85.789875 
Q 1279.132812 87.789875 1281.132812 87.789875 
z
" style="fill: #ffffff; opacity: 0.8; stroke: #cccccc; stroke-linejoin: miter"/>
    </g>
    <g id="line2d_20">
     <path d="M 1283.132812 48.853937 
L 1293.132812 48.853937 
L 1303.132812 48.853937 
" style="fill: none; stroke: #0000ff; stroke-width: 1.5; stroke-linecap: square"/>
    </g>
    <g id="text_18">
     <!-- Actual Value -->
     <g transform="translate(1311.132812 52.353937)scale(0.1 -0.1)">
      <defs>
       <path id="DejaVuSans-56" d="M 1831 0 
L 50 4666 
L 709 4666 
L 2188 738 
L 3669 4666 
L 4325 4666 
L 2547 0 
L 1831 0 
z
" transform="scale(0.015625)"/>
      </defs>
      <use xlink:href="#DejaVuSans-41"/>
      <use xlink:href="#DejaVuSans-63" x="66.658203"/>
      <use xlink:href="#DejaVuSans-74" x="121.638672"/>
      <use xlink:href="#DejaVuSans-75" x="160.847656"/>
      <use xlink:href="#DejaVuSans-61" x="224.226562"/>
      <use xlink:href="#DejaVuSans-6c" x="285.505859"/>
      <use xlink:href="#DejaVuSans-20" x="313.289062"/>
      <use xlink:href="#DejaVuSans-56" x="345.076172"/>
      <use xlink:href="#DejaVuSans-61" x="405.734375"/>
      <use xlink:href="#DejaVuSans-6c" x="467.013672"/>
      <use xlink:href="#DejaVuSans-75" x="494.796875"/>
      <use xlink:href="#DejaVuSans-65" x="558.175781"/>
     </g>
    </g>
    <g id="line2d_21">
     <path d="M 1283.132812 63.532062 
L 1293.132812 63.532062 
L 1303.132812 63.532062 
" style="fill: none; stroke: #ffa500; stroke-width: 1.5; stroke-linecap: square"/>
    </g>
    <g id="text_19">
     <!-- Check Value -->
     <g transform="translate(1311.132812 67.032062)scale(0.1 -0.1)">
      <defs>
       <path id="DejaVuSans-68" d="M 3513 2113 
L 3513 0 
L 2938 0 
L 2938 2094 
Q 2938 2591 2744 2837 
Q 2550 3084 2163 3084 
Q 1697 3084 1428 2787 
Q 1159 2491 1159 1978 
L 1159 0 
L 581 0 
L 581 4863 
L 1159 4863 
L 1159 2956 
Q 1366 3272 1645 3428 
Q 1925 3584 2291 3584 
Q 2894 3584 3203 3211 
Q 3513 2838 3513 2113 
z
" transform="scale(0.015625)"/>
       <path id="DejaVuSans-6b" d="M 581 4863 
L 1159 4863 
L 1159 1991 
L 2875 3500 
L 3609 3500 
L 1753 1863 
L 3688 0 
L 2938 0 
L 1159 1709 
L 1159 0 
L 581 0 
L 581 4863 
z
" transform="scale(0.015625)"/>
      </defs>
      <use xlink:href="#DejaVuSans-43"/>
      <use xlink:href="#DejaVuSans-68" x="69.824219"/>
      <use xlink:href="#DejaVuSans-65" x="133.203125"/>
      <use xlink:href="#DejaVuSans-63" x="194.726562"/>
      <use xlink:href="#DejaVuSans-6b" x="249.707031"/>
      <use xlink:href="#DejaVuSans-20" x="307.617188"/>
      <use xlink:href="#DejaVuSans-56" x="339.404297"/>
      <use xlink:href="#DejaVuSans-61" x="400.0625"/>
      <use xlink:href="#DejaVuSans-6c" x="461.341797"/>
      <use xlink:href="#DejaVuSans-75" x="489.125"/>
      <use xlink:href="#DejaVuSans-65" x="552.503906"/>
     </g>
    </g>
    <g id="line2d_22">
     <path d="M 1283.132812 78.210187 
L 1293.132812 78.210187 
L 1303.132812 78.210187 
" style="fill: none; stroke: #ff0000; stroke-width: 1.5; stroke-linecap: square"/>
    </g>
    <g id="text_20">
     <!-- Predict Value -->
     <g transform="translate(1311.132812 81.710187)scale(0.1 -0.1)">
      <defs>
       <path id="DejaVuSans-50" d="M 1259 4147 
L 1259 2394 
L 2053 2394 
Q 2494 2394 2734 2622 
Q 2975 2850 2975 3272 
Q 2975 3691 2734 3919 
Q 2494 4147 2053 4147 
L 1259 4147 
z
M 628 4666 
L 2053 4666 
Q 2838 4666 3239 4311 
Q 3641 3956 3641 3272 
Q 3641 2581 3239 2228 
Q 2838 1875 2053 1875 
L 1259 1875 
L 1259 0 
L 628 0 
L 628 4666 
z
" transform="scale(0.015625)"/>
      </defs>
      <use xlink:href="#DejaVuSans-50"/>
      <use xlink:href="#DejaVuSans-72" x="58.552734"/>
      <use xlink:href="#DejaVuSans-65" x="97.416016"/>
      <use xlink:href="#DejaVuSans-64" x="158.939453"/>
      <use xlink:href="#DejaVuSans-69" x="222.416016"/>
      <use xlink:href="#DejaVuSans-63" x="250.199219"/>
      <use xlink:href="#DejaVuSans-74" x="305.179688"/>
      <use xlink:href="#DejaVuSans-20" x="344.388672"/>
      <use xlink:href="#DejaVuSans-56" x="376.175781"/>
      <use xlink:href="#DejaVuSans-61" x="436.833984"/>
      <use xlink:href="#DejaVuSans-6c" x="498.113281"/>
      <use xlink:href="#DejaVuSans-75" x="525.896484"/>
      <use xlink:href="#DejaVuSans-65" x="589.275391"/>
     </g>
    </g>
   </g>
  </g>
 </g>
 <defs>
  <clipPath id="pf1e5415431">
   <rect x="46.0125" y="35.7555" width="1339.2" height="332.64"/>
  </clipPath>
 </defs>
</svg>
