<?xml version="1.0" encoding="utf-8" standalone="no"?>
<!DOCTYPE svg PUBLIC "-//W3C//DTD SVG 1.1//EN"
  "http://www.w3.org/Graphics/SVG/1.1/DTD/svg11.dtd">
<svg xmlns:xlink="http://www.w3.org/1999/xlink" width="1392.4125pt" height="392.273625pt" viewBox="0 0 1392.4125 392.273625" xmlns="http://www.w3.org/2000/svg" version="1.1">
 <metadata>
  <rdf:RDF xmlns:dc="http://purl.org/dc/elements/1.1/" xmlns:cc="http://creativecommons.org/ns#" xmlns:rdf="http://www.w3.org/1999/02/22-rdf-syntax-ns#">
   <cc:Work>
    <dc:type rdf:resource="http://purl.org/dc/dcmitype/StillImage"/>
    <dc:date>2022-06-23T17:41:51.144205</dc:date>
    <dc:format>image/svg+xml</dc:format>
    <dc:creator>
     <cc:Agent>
      <dc:title>Matplotlib v3.5.2, https://matplotlib.org/</dc:title>
     </cc:Agent>
    </dc:creator>
   </cc:Work>
  </rdf:RDF>
 </metadata>
 <defs>
  <style type="text/css">*{stroke-linejoin: round; stroke-linecap: butt}</style>
 </defs>
 <g id="figure_1">
  <g id="patch_1">
   <path d="M 0 392.273625 
L 1392.4125 392.273625 
L 1392.4125 0 
L 0 0 
z
" style="fill: #ffffff"/>
  </g>
  <g id="axes_1">
   <g id="patch_2">
    <path d="M 46.0125 368.3955 
L 1385.2125 368.3955 
L 1385.2125 35.7555 
L 46.0125 35.7555 
z
" style="fill: #ffffff"/>
   </g>
   <g id="matplotlib.axis_1">
    <g id="xtick_1">
     <g id="line2d_1">
      <defs>
       <path id="mf4171a3535" d="M 0 0 
L 0 3.5 
" style="stroke: #000000; stroke-width: 0.8"/>
      </defs>
      <g>
       <use xlink:href="#mf4171a3535" x="76.925496" y="368.3955" style="stroke: #000000; stroke-width: 0.8"/>
      </g>
     </g>
     <g id="text_1">
      <!-- 2020-01 -->
      <g transform="translate(56.034089 382.993937)scale(0.1 -0.1)">
       <defs>
        <path id="DejaVuSans-32" d="M 1228 531 
L 3431 531 
L 3431 0 
L 469 0 
L 469 531 
Q 828 903 1448 1529 
Q 2069 2156 2228 2338 
Q 2531 2678 2651 2914 
Q 2772 3150 2772 3378 
Q 2772 3750 2511 3984 
Q 2250 4219 1831 4219 
Q 1534 4219 1204 4116 
Q 875 4013 500 3803 
L 500 4441 
Q 881 4594 1212 4672 
Q 1544 4750 1819 4750 
Q 2544 4750 2975 4387 
Q 3406 4025 3406 3419 
Q 3406 3131 3298 2873 
Q 3191 2616 2906 2266 
Q 2828 2175 2409 1742 
Q 1991 1309 1228 531 
z
" transform="scale(0.015625)"/>
        <path id="DejaVuSans-30" d="M 2034 4250 
Q 1547 4250 1301 3770 
Q 1056 3291 1056 2328 
Q 1056 1369 1301 889 
Q 1547 409 2034 409 
Q 2525 409 2770 889 
Q 3016 1369 3016 2328 
Q 3016 3291 2770 3770 
Q 2525 4250 2034 4250 
z
M 2034 4750 
Q 2819 4750 3233 4129 
Q 3647 3509 3647 2328 
Q 3647 1150 3233 529 
Q 2819 -91 2034 -91 
Q 1250 -91 836 529 
Q 422 1150 422 2328 
Q 422 3509 836 4129 
Q 1250 4750 2034 4750 
z
" transform="scale(0.015625)"/>
        <path id="DejaVuSans-2d" d="M 313 2009 
L 1997 2009 
L 1997 1497 
L 313 1497 
L 313 2009 
z
" transform="scale(0.015625)"/>
        <path id="DejaVuSans-31" d="M 794 531 
L 1825 531 
L 1825 4091 
L 703 3866 
L 703 4441 
L 1819 4666 
L 2450 4666 
L 2450 531 
L 3481 531 
L 3481 0 
L 794 0 
L 794 531 
z
" transform="scale(0.015625)"/>
       </defs>
       <use xlink:href="#DejaVuSans-32"/>
       <use xlink:href="#DejaVuSans-30" x="63.623047"/>
       <use xlink:href="#DejaVuSans-32" x="127.246094"/>
       <use xlink:href="#DejaVuSans-30" x="190.869141"/>
       <use xlink:href="#DejaVuSans-2d" x="254.492188"/>
       <use xlink:href="#DejaVuSans-30" x="290.576172"/>
       <use xlink:href="#DejaVuSans-31" x="354.199219"/>
      </g>
     </g>
    </g>
    <g id="xtick_2">
     <g id="line2d_2">
      <g>
       <use xlink:href="#mf4171a3535" x="200.84984" y="368.3955" style="stroke: #000000; stroke-width: 0.8"/>
      </g>
     </g>
     <g id="text_2">
      <!-- 2020-04 -->
      <g transform="translate(179.958434 382.993937)scale(0.1 -0.1)">
       <defs>
        <path id="DejaVuSans-34" d="M 2419 4116 
L 825 1625 
L 2419 1625 
L 2419 4116 
z
M 2253 4666 
L 3047 4666 
L 3047 1625 
L 3713 1625 
L 3713 1100 
L 3047 1100 
L 3047 0 
L 2419 0 
L 2419 1100 
L 313 1100 
L 313 1709 
L 2253 4666 
z
" transform="scale(0.015625)"/>
       </defs>
       <use xlink:href="#DejaVuSans-32"/>
       <use xlink:href="#DejaVuSans-30" x="63.623047"/>
       <use xlink:href="#DejaVuSans-32" x="127.246094"/>
       <use xlink:href="#DejaVuSans-30" x="190.869141"/>
       <use xlink:href="#DejaVuSans-2d" x="254.492188"/>
       <use xlink:href="#DejaVuSans-30" x="290.576172"/>
       <use xlink:href="#DejaVuSans-34" x="354.199219"/>
      </g>
     </g>
    </g>
    <g id="xtick_3">
     <g id="line2d_3">
      <g>
       <use xlink:href="#mf4171a3535" x="324.774184" y="368.3955" style="stroke: #000000; stroke-width: 0.8"/>
      </g>
     </g>
     <g id="text_3">
      <!-- 2020-07 -->
      <g transform="translate(303.882778 382.993937)scale(0.1 -0.1)">
       <defs>
        <path id="DejaVuSans-37" d="M 525 4666 
L 3525 4666 
L 3525 4397 
L 1831 0 
L 1172 0 
L 2766 4134 
L 525 4134 
L 525 4666 
z
" transform="scale(0.015625)"/>
       </defs>
       <use xlink:href="#DejaVuSans-32"/>
       <use xlink:href="#DejaVuSans-30" x="63.623047"/>
       <use xlink:href="#DejaVuSans-32" x="127.246094"/>
       <use xlink:href="#DejaVuSans-30" x="190.869141"/>
       <use xlink:href="#DejaVuSans-2d" x="254.492188"/>
       <use xlink:href="#DejaVuSans-30" x="290.576172"/>
       <use xlink:href="#DejaVuSans-37" x="354.199219"/>
      </g>
     </g>
    </g>
    <g id="xtick_4">
     <g id="line2d_4">
      <g>
       <use xlink:href="#mf4171a3535" x="450.060334" y="368.3955" style="stroke: #000000; stroke-width: 0.8"/>
      </g>
     </g>
     <g id="text_4">
      <!-- 2020-10 -->
      <g transform="translate(429.168928 382.993937)scale(0.1 -0.1)">
       <use xlink:href="#DejaVuSans-32"/>
       <use xlink:href="#DejaVuSans-30" x="63.623047"/>
       <use xlink:href="#DejaVuSans-32" x="127.246094"/>
       <use xlink:href="#DejaVuSans-30" x="190.869141"/>
       <use xlink:href="#DejaVuSans-2d" x="254.492188"/>
       <use xlink:href="#DejaVuSans-31" x="290.576172"/>
       <use xlink:href="#DejaVuSans-30" x="354.199219"/>
      </g>
     </g>
    </g>
    <g id="xtick_5">
     <g id="line2d_5">
      <g>
       <use xlink:href="#mf4171a3535" x="575.346484" y="368.3955" style="stroke: #000000; stroke-width: 0.8"/>
      </g>
     </g>
     <g id="text_5">
      <!-- 2021-01 -->
      <g transform="translate(554.455078 382.993937)scale(0.1 -0.1)">
       <use xlink:href="#DejaVuSans-32"/>
       <use xlink:href="#DejaVuSans-30" x="63.623047"/>
       <use xlink:href="#DejaVuSans-32" x="127.246094"/>
       <use xlink:href="#DejaVuSans-31" x="190.869141"/>
       <use xlink:href="#DejaVuSans-2d" x="254.492188"/>
       <use xlink:href="#DejaVuSans-30" x="290.576172"/>
       <use xlink:href="#DejaVuSans-31" x="354.199219"/>
      </g>
     </g>
    </g>
    <g id="xtick_6">
     <g id="line2d_6">
      <g>
       <use xlink:href="#mf4171a3535" x="697.909022" y="368.3955" style="stroke: #000000; stroke-width: 0.8"/>
      </g>
     </g>
     <g id="text_6">
      <!-- 2021-04 -->
      <g transform="translate(677.017616 382.993937)scale(0.1 -0.1)">
       <use xlink:href="#DejaVuSans-32"/>
       <use xlink:href="#DejaVuSans-30" x="63.623047"/>
       <use xlink:href="#DejaVuSans-32" x="127.246094"/>
       <use xlink:href="#DejaVuSans-31" x="190.869141"/>
       <use xlink:href="#DejaVuSans-2d" x="254.492188"/>
       <use xlink:href="#DejaVuSans-30" x="290.576172"/>
       <use xlink:href="#DejaVuSans-34" x="354.199219"/>
      </g>
     </g>
    </g>
    <g id="xtick_7">
     <g id="line2d_7">
      <g>
       <use xlink:href="#mf4171a3535" x="821.833366" y="368.3955" style="stroke: #000000; stroke-width: 0.8"/>
      </g>
     </g>
     <g id="text_7">
      <!-- 2021-07 -->
      <g transform="translate(800.94196 382.993937)scale(0.1 -0.1)">
       <use xlink:href="#DejaVuSans-32"/>
       <use xlink:href="#DejaVuSans-30" x="63.623047"/>
       <use xlink:href="#DejaVuSans-32" x="127.246094"/>
       <use xlink:href="#DejaVuSans-31" x="190.869141"/>
       <use xlink:href="#DejaVuSans-2d" x="254.492188"/>
       <use xlink:href="#DejaVuSans-30" x="290.576172"/>
       <use xlink:href="#DejaVuSans-37" x="354.199219"/>
      </g>
     </g>
    </g>
    <g id="xtick_8">
     <g id="line2d_8">
      <g>
       <use xlink:href="#mf4171a3535" x="947.119516" y="368.3955" style="stroke: #000000; stroke-width: 0.8"/>
      </g>
     </g>
     <g id="text_8">
      <!-- 2021-10 -->
      <g transform="translate(926.22811 382.993937)scale(0.1 -0.1)">
       <use xlink:href="#DejaVuSans-32"/>
       <use xlink:href="#DejaVuSans-30" x="63.623047"/>
       <use xlink:href="#DejaVuSans-32" x="127.246094"/>
       <use xlink:href="#DejaVuSans-31" x="190.869141"/>
       <use xlink:href="#DejaVuSans-2d" x="254.492188"/>
       <use xlink:href="#DejaVuSans-31" x="290.576172"/>
       <use xlink:href="#DejaVuSans-30" x="354.199219"/>
      </g>
     </g>
    </g>
    <g id="xtick_9">
     <g id="line2d_9">
      <g>
       <use xlink:href="#mf4171a3535" x="1072.405667" y="368.3955" style="stroke: #000000; stroke-width: 0.8"/>
      </g>
     </g>
     <g id="text_9">
      <!-- 2022-01 -->
      <g transform="translate(1051.51426 382.993937)scale(0.1 -0.1)">
       <use xlink:href="#DejaVuSans-32"/>
       <use xlink:href="#DejaVuSans-30" x="63.623047"/>
       <use xlink:href="#DejaVuSans-32" x="127.246094"/>
       <use xlink:href="#DejaVuSans-32" x="190.869141"/>
       <use xlink:href="#DejaVuSans-2d" x="254.492188"/>
       <use xlink:href="#DejaVuSans-30" x="290.576172"/>
       <use xlink:href="#DejaVuSans-31" x="354.199219"/>
      </g>
     </g>
    </g>
    <g id="xtick_10">
     <g id="line2d_10">
      <g>
       <use xlink:href="#mf4171a3535" x="1194.968205" y="368.3955" style="stroke: #000000; stroke-width: 0.8"/>
      </g>
     </g>
     <g id="text_10">
      <!-- 2022-04 -->
      <g transform="translate(1174.076798 382.993937)scale(0.1 -0.1)">
       <use xlink:href="#DejaVuSans-32"/>
       <use xlink:href="#DejaVuSans-30" x="63.623047"/>
       <use xlink:href="#DejaVuSans-32" x="127.246094"/>
       <use xlink:href="#DejaVuSans-32" x="190.869141"/>
       <use xlink:href="#DejaVuSans-2d" x="254.492188"/>
       <use xlink:href="#DejaVuSans-30" x="290.576172"/>
       <use xlink:href="#DejaVuSans-34" x="354.199219"/>
      </g>
     </g>
    </g>
    <g id="xtick_11">
     <g id="line2d_11">
      <g>
       <use xlink:href="#mf4171a3535" x="1318.892549" y="368.3955" style="stroke: #000000; stroke-width: 0.8"/>
      </g>
     </g>
     <g id="text_11">
      <!-- 2022-07 -->
      <g transform="translate(1298.001143 382.993937)scale(0.1 -0.1)">
       <use xlink:href="#DejaVuSans-32"/>
       <use xlink:href="#DejaVuSans-30" x="63.623047"/>
       <use xlink:href="#DejaVuSans-32" x="127.246094"/>
       <use xlink:href="#DejaVuSans-32" x="190.869141"/>
       <use xlink:href="#DejaVuSans-2d" x="254.492188"/>
       <use xlink:href="#DejaVuSans-30" x="290.576172"/>
       <use xlink:href="#DejaVuSans-37" x="354.199219"/>
      </g>
     </g>
    </g>
   </g>
   <g id="matplotlib.axis_2">
    <g id="ytick_1">
     <g id="line2d_12">
      <defs>
       <path id="mc208539ac0" d="M 0 0 
L -3.5 0 
" style="stroke: #000000; stroke-width: 0.8"/>
      </defs>
      <g>
       <use xlink:href="#mc208539ac0" x="46.0125" y="331.48776" style="stroke: #000000; stroke-width: 0.8"/>
      </g>
     </g>
     <g id="text_12">
      <!-- 0 -->
      <g transform="translate(32.65 335.286979)scale(0.1 -0.1)">
       <use xlink:href="#DejaVuSans-30"/>
      </g>
     </g>
    </g>
    <g id="ytick_2">
     <g id="line2d_13">
      <g>
       <use xlink:href="#mc208539ac0" x="46.0125" y="288.258117" style="stroke: #000000; stroke-width: 0.8"/>
      </g>
     </g>
     <g id="text_13">
      <!-- 2500 -->
      <g transform="translate(13.5625 292.057335)scale(0.1 -0.1)">
       <defs>
        <path id="DejaVuSans-35" d="M 691 4666 
L 3169 4666 
L 3169 4134 
L 1269 4134 
L 1269 2991 
Q 1406 3038 1543 3061 
Q 1681 3084 1819 3084 
Q 2600 3084 3056 2656 
Q 3513 2228 3513 1497 
Q 3513 744 3044 326 
Q 2575 -91 1722 -91 
Q 1428 -91 1123 -41 
Q 819 9 494 109 
L 494 744 
Q 775 591 1075 516 
Q 1375 441 1709 441 
Q 2250 441 2565 725 
Q 2881 1009 2881 1497 
Q 2881 1984 2565 2268 
Q 2250 2553 1709 2553 
Q 1456 2553 1204 2497 
Q 953 2441 691 2322 
L 691 4666 
z
" transform="scale(0.015625)"/>
       </defs>
       <use xlink:href="#DejaVuSans-32"/>
       <use xlink:href="#DejaVuSans-35" x="63.623047"/>
       <use xlink:href="#DejaVuSans-30" x="127.246094"/>
       <use xlink:href="#DejaVuSans-30" x="190.869141"/>
      </g>
     </g>
    </g>
    <g id="ytick_3">
     <g id="line2d_14">
      <g>
       <use xlink:href="#mc208539ac0" x="46.0125" y="245.028473" style="stroke: #000000; stroke-width: 0.8"/>
      </g>
     </g>
     <g id="text_14">
      <!-- 5000 -->
      <g transform="translate(13.5625 248.827692)scale(0.1 -0.1)">
       <use xlink:href="#DejaVuSans-35"/>
       <use xlink:href="#DejaVuSans-30" x="63.623047"/>
       <use xlink:href="#DejaVuSans-30" x="127.246094"/>
       <use xlink:href="#DejaVuSans-30" x="190.869141"/>
      </g>
     </g>
    </g>
    <g id="ytick_4">
     <g id="line2d_15">
      <g>
       <use xlink:href="#mc208539ac0" x="46.0125" y="201.79883" style="stroke: #000000; stroke-width: 0.8"/>
      </g>
     </g>
     <g id="text_15">
      <!-- 7500 -->
      <g transform="translate(13.5625 205.598049)scale(0.1 -0.1)">
       <use xlink:href="#DejaVuSans-37"/>
       <use xlink:href="#DejaVuSans-35" x="63.623047"/>
       <use xlink:href="#DejaVuSans-30" x="127.246094"/>
       <use xlink:href="#DejaVuSans-30" x="190.869141"/>
      </g>
     </g>
    </g>
    <g id="ytick_5">
     <g id="line2d_16">
      <g>
       <use xlink:href="#mc208539ac0" x="46.0125" y="158.569187" style="stroke: #000000; stroke-width: 0.8"/>
      </g>
     </g>
     <g id="text_16">
      <!-- 10000 -->
      <g transform="translate(7.2 162.368406)scale(0.1 -0.1)">
       <use xlink:href="#DejaVuSans-31"/>
       <use xlink:href="#DejaVuSans-30" x="63.623047"/>
       <use xlink:href="#DejaVuSans-30" x="127.246094"/>
       <use xlink:href="#DejaVuSans-30" x="190.869141"/>
       <use xlink:href="#DejaVuSans-30" x="254.492188"/>
      </g>
     </g>
    </g>
    <g id="ytick_6">
     <g id="line2d_17">
      <g>
       <use xlink:href="#mc208539ac0" x="46.0125" y="115.339544" style="stroke: #000000; stroke-width: 0.8"/>
      </g>
     </g>
     <g id="text_17">
      <!-- 12500 -->
      <g transform="translate(7.2 119.138763)scale(0.1 -0.1)">
       <use xlink:href="#DejaVuSans-31"/>
       <use xlink:href="#DejaVuSans-32" x="63.623047"/>
       <use xlink:href="#DejaVuSans-35" x="127.246094"/>
       <use xlink:href="#DejaVuSans-30" x="190.869141"/>
       <use xlink:href="#DejaVuSans-30" x="254.492188"/>
      </g>
     </g>
    </g>
    <g id="ytick_7">
     <g id="line2d_18">
      <g>
       <use xlink:href="#mc208539ac0" x="46.0125" y="72.109901" style="stroke: #000000; stroke-width: 0.8"/>
      </g>
     </g>
     <g id="text_18">
      <!-- 15000 -->
      <g transform="translate(7.2 75.909119)scale(0.1 -0.1)">
       <use xlink:href="#DejaVuSans-31"/>
       <use xlink:href="#DejaVuSans-35" x="63.623047"/>
       <use xlink:href="#DejaVuSans-30" x="127.246094"/>
       <use xlink:href="#DejaVuSans-30" x="190.869141"/>
       <use xlink:href="#DejaVuSans-30" x="254.492188"/>
      </g>
     </g>
    </g>
   </g>
   <g id="line2d_19">
    <path d="M 106.885227 331.48776 
L 173.61372 331.522344 
L 174.975526 331.332133 
L 176.337332 331.349425 
L 177.699138 331.48776 
L 180.42275 331.453176 
L 181.784556 331.314841 
L 187.23178 331.193798 
L 188.593586 331.090047 
L 191.317198 331.349425 
L 192.679004 330.917129 
L 194.04081 330.830669 
L 195.402616 330.865253 
L 196.764422 330.536708 
L 198.126228 329.516488 
L 199.488034 330.104411 
L 202.211646 330.121703 
L 203.573452 330.346497 
L 204.935258 329.845033 
L 206.297064 329.481904 
L 207.65887 328.721063 
L 209.020676 328.945857 
L 210.382482 327.666259 
L 211.744288 326.697915 
L 213.106094 331.48776 
L 214.4679 320.732225 
L 217.191512 331.48776 
L 218.553318 321.354731 
L 219.915124 331.48776 
L 221.27693 326.680624 
L 222.638736 320.282636 
L 224.000541 326.058117 
L 225.362347 327.770011 
L 226.724153 324.847687 
L 228.085959 324.398098 
L 229.447765 325.591237 
L 230.809571 324.311639 
L 232.171377 323.827467 
L 233.533183 324.052261 
L 234.894989 326.127284 
L 236.256795 326.83625 
L 237.618601 327.700843 
L 238.980407 325.954366 
L 240.342213 325.020605 
L 241.704019 325.591237 
L 243.065825 325.833323 
L 244.427631 328.236891 
L 245.789437 328.461685 
L 247.151243 326.628748 
L 248.513049 326.784375 
L 249.874855 325.867906 
L 251.236661 327.182087 
L 252.598467 327.85647 
L 253.960273 326.559581 
L 255.322079 328.444393 
L 256.683885 328.651895 
L 258.045691 327.666259 
L 259.407497 328.357934 
L 260.769303 327.977513 
L 262.131109 327.770011 
L 263.492915 327.337714 
L 264.854721 329.395445 
L 266.216527 328.79023 
L 267.578333 324.484558 
L 268.940139 327.770011 
L 270.301945 328.634603 
L 271.663751 327.752719 
L 274.387363 331.48776 
L 275.749169 328.980441 
L 279.834587 329.049608 
L 281.196393 328.306058 
L 282.558199 329.602947 
L 283.920005 330.398373 
L 285.281811 329.395445 
L 286.643617 329.637531 
L 288.005423 329.654823 
L 289.367228 329.481904 
L 290.729034 331.48776 
L 292.09084 331.48776 
L 293.452646 328.012097 
L 294.814452 330.640459 
L 296.176258 330.363789 
L 297.538064 329.654823 
L 298.89987 330.017952 
L 300.261676 331.48776 
L 301.623482 331.48776 
L 302.985288 328.963149 
L 304.347094 330.260038 
L 305.7089 330.640459 
L 308.432512 330.311914 
L 309.794318 331.48776 
L 311.156124 331.48776 
L 312.51793 329.378153 
L 313.879736 330.208162 
L 315.241542 330.225454 
L 316.603348 330.899837 
L 317.965154 331.124631 
L 319.32696 331.48776 
L 320.688766 331.48776 
L 322.050572 329.706699 
L 323.412378 330.640459 
L 324.774184 330.796086 
L 326.13599 329.966076 
L 327.497796 330.623167 
L 328.859602 331.48776 
L 331.583214 331.48776 
L 332.94502 328.669187 
L 334.306826 330.623167 
L 335.668632 330.813377 
L 337.030438 330.294622 
L 338.392244 331.48776 
L 339.75405 331.48776 
L 341.115856 328.461685 
L 342.477662 329.741282 
L 343.839468 330.588583 
L 345.201274 330.260038 
L 346.56308 330.069828 
L 347.924886 331.48776 
L 349.286692 331.48776 
L 350.648498 329.568364 
L 352.010304 330.069828 
L 353.37211 330.173579 
L 354.733915 330.00066 
L 356.095721 330.173579 
L 357.457527 331.48776 
L 358.819333 331.48776 
L 360.181139 326.455829 
L 361.542945 327.85647 
L 362.904751 330.190871 
L 364.266557 328.893981 
L 366.990169 331.48776 
L 368.351975 331.48776 
L 369.713781 327.614384 
L 371.075587 328.997732 
L 372.437393 329.914201 
L 373.799199 329.239818 
L 375.161005 329.291694 
L 376.522811 331.48776 
L 377.884617 331.48776 
L 379.246423 328.098556 
L 380.608229 329.430029 
L 381.970035 330.173579 
L 383.331841 329.568364 
L 384.693647 329.845033 
L 386.055453 331.48776 
L 387.417259 331.48776 
L 388.779065 327.38959 
L 390.140871 329.412737 
L 391.502677 329.706699 
L 392.864483 330.173579 
L 394.226289 328.876689 
L 395.588095 331.48776 
L 396.949901 331.48776 
L 398.311707 326.64604 
L 399.673513 330.27733 
L 401.035319 330.069828 
L 402.397125 329.153359 
L 403.758931 329.862325 
L 405.120737 331.48776 
L 406.482543 331.48776 
L 407.844349 326.888126 
L 409.206155 330.571291 
L 410.567961 330.173579 
L 411.929767 330.363789 
L 413.291573 329.758574 
L 414.653379 331.48776 
L 417.376991 331.48776 
L 418.738797 325.452902 
L 420.100603 330.035244 
L 422.824214 329.360861 
L 424.18602 331.48776 
L 425.547826 331.48776 
L 426.909632 327.597092 
L 428.271438 329.412737 
L 429.633244 329.620239 
L 430.99505 329.239818 
L 432.356856 329.205235 
L 433.718662 331.48776 
L 435.080468 331.48776 
L 436.442274 326.0927 
L 437.80408 329.551072 
L 439.165886 329.187943 
L 440.527692 329.170651 
L 441.889498 333.735701 
L 443.251304 331.48776 
L 444.61311 331.48776 
L 445.974916 327.285839 
L 447.336722 329.205235 
L 448.698528 328.167723 
L 450.060334 328.617312 
L 451.42214 328.686479 
L 452.783946 331.48776 
L 454.145752 331.48776 
L 455.507558 325.556653 
L 456.869364 328.427101 
L 458.23117 328.375226 
L 459.592976 326.83625 
L 460.954782 327.182087 
L 462.316588 331.48776 
L 465.0402 331.48776 
L 466.402006 319.971383 
L 467.763812 327.960221 
L 469.125618 326.749791 
L 470.487424 327.11292 
L 471.84923 331.48776 
L 473.211036 331.48776 
L 474.572842 320.144301 
L 475.934648 326.265619 
L 477.296454 323.291419 
L 478.65826 323.343295 
L 480.020066 322.426827 
L 481.381872 331.48776 
L 482.743678 331.48776 
L 484.105484 315.821337 
L 485.46729 324.207888 
L 486.829095 322.859123 
L 488.190901 325.124356 
L 489.552707 321.769736 
L 490.914513 331.48776 
L 492.276319 331.48776 
L 493.638125 309.942106 
L 494.999931 324.173304 
L 496.361737 321.475774 
L 497.723543 320.628473 
L 499.085349 320.59389 
L 500.447155 331.48776 
L 501.808961 331.48776 
L 503.170767 303.319324 
L 504.532573 317.844484 
L 505.894379 314.576323 
L 507.256185 314.403405 
L 508.617991 318.259489 
L 509.979797 331.48776 
L 511.341603 331.48776 
L 512.703409 290.091054 
L 514.065215 321.026186 
L 515.427021 307.573121 
L 516.788827 313.504228 
L 518.150633 313.33131 
L 519.512439 331.48776 
L 520.874245 331.48776 
L 522.236051 287.013103 
L 523.597857 316.772389 
L 524.959663 316.046131 
L 526.321469 331.48776 
L 527.683275 303.180989 
L 529.045081 331.48776 
L 530.406887 331.48776 
L 531.768693 283.606607 
L 533.130499 311.031493 
L 534.492305 312.484009 
L 535.854111 301.797641 
L 537.215917 307.019782 
L 538.577723 331.48776 
L 539.939529 331.48776 
L 541.301335 267.836433 
L 542.663141 309.89023 
L 544.024947 310.184192 
L 545.386753 315.095079 
L 546.748559 304.322252 
L 548.110365 331.48776 
L 549.472171 331.48776 
L 550.833977 275.237348 
L 552.195782 311.325454 
L 553.557588 314.680075 
L 554.919394 312.795262 
L 557.643006 331.48776 
L 559.004812 331.48776 
L 560.366618 289.658757 
L 561.728424 314.956744 
L 563.09023 316.288217 
L 564.452036 331.48776 
L 568.537454 331.48776 
L 569.89926 270.343753 
L 571.261066 310.962325 
L 572.622872 311.429205 
L 573.984678 331.48776 
L 578.070096 331.48776 
L 579.431902 249.195811 
L 580.793708 311.705875 
L 582.155514 303.630578 
L 583.51732 311.982545 
L 584.879126 313.79819 
L 586.240932 331.48776 
L 587.602738 331.48776 
L 588.964544 279.733231 
L 590.32635 317.89636 
L 591.688156 312.605052 
L 593.049962 315.907796 
L 594.411768 313.210267 
L 595.773574 331.48776 
L 598.497186 331.48776 
L 599.858992 286.131218 
L 601.220798 317.481355 
L 602.582604 315.75217 
L 603.94441 315.077787 
L 605.306216 331.48776 
L 606.668022 331.48776 
L 608.029828 296.5755 
L 609.391634 320.386387 
L 610.75344 320.887851 
L 612.115246 318.605326 
L 613.477052 319.660129 
L 614.838858 331.48776 
L 616.200664 331.48776 
L 617.562469 305.23872 
L 618.924275 327.424173 
L 620.286081 322.617037 
L 621.647887 321.33744 
L 623.009693 321.112645 
L 624.371499 331.48776 
L 625.733305 331.48776 
L 627.095111 310.512737 
L 628.456917 325.781447 
L 629.818723 323.550797 
L 631.180529 323.049333 
L 632.542335 323.879343 
L 633.904141 331.48776 
L 635.265947 331.48776 
L 636.627753 314.783826 
L 637.989559 326.559581 
L 639.351365 325.124356 
L 640.713171 324.242472 
L 642.074977 326.542289 
L 643.436783 331.48776 
L 644.798589 331.48776 
L 646.160395 317.049059 
L 647.522201 326.611456 
L 648.884007 323.602673 
L 650.245813 323.412462 
L 651.607619 323.931218 
L 652.969425 331.48776 
L 654.331231 331.48776 
L 655.693037 314.783826 
L 657.054843 326.974585 
L 658.416649 323.94851 
L 659.778455 323.844759 
L 661.140261 324.674768 
L 662.502067 331.48776 
L 663.863873 331.48776 
L 665.225679 316.616763 
L 666.587485 326.36937 
L 667.949291 325.988949 
L 669.311097 322.409535 
L 670.672903 324.88227 
L 672.034709 331.48776 
L 673.396515 331.48776 
L 674.758321 314.45528 
L 676.120127 326.940001 
L 677.481933 323.983094 
L 678.843739 324.017677 
L 680.205545 324.173304 
L 681.567351 331.48776 
L 682.929156 331.48776 
L 684.290962 314.195903 
L 685.652768 326.352078 
L 687.014574 323.343295 
L 688.37638 323.135793 
L 689.738186 323.101209 
L 691.099992 331.48776 
L 692.461798 331.48776 
L 693.823604 320.351804 
L 695.18541 325.504777 
L 696.547216 321.735152 
L 697.909022 322.513286 
L 699.270828 324.449974 
L 700.632634 331.48776 
L 701.99444 331.48776 
L 703.356246 315.613835 
L 704.718052 324.986022 
L 706.079858 323.256836 
L 707.441664 322.686204 
L 708.80347 321.752444 
L 710.165276 331.48776 
L 712.888888 331.48776 
L 714.250694 302.489315 
L 715.6125 323.239544 
L 716.974306 323.032042 
L 718.336112 324.41539 
L 719.697918 331.48776 
L 721.059724 331.48776 
L 722.42153 317.360312 
L 723.783336 324.709352 
L 725.145142 326.490413 
L 726.506948 324.899562 
L 727.868754 326.36937 
L 729.23056 331.48776 
L 730.592366 331.48776 
L 731.954172 320.490139 
L 733.315978 326.991877 
L 734.677784 324.899562 
L 736.03959 326.36937 
L 737.401396 326.490413 
L 738.763202 331.48776 
L 740.125008 331.48776 
L 741.486814 323.135793 
L 742.84862 326.991877 
L 744.210426 326.853542 
L 745.572232 328.254183 
L 746.934038 328.150431 
L 748.295844 331.48776 
L 749.657649 331.48776 
L 751.019455 325.072481 
L 752.381261 328.911273 
L 753.743067 328.807522 
L 755.104873 331.850889 
L 756.466679 328.824814 
L 757.828485 331.48776 
L 759.190291 331.48776 
L 760.552097 326.940001 
L 761.913903 329.948785 
L 763.275709 331.48776 
L 764.637515 327.839178 
L 765.999321 326.127284 
L 767.361127 331.48776 
L 768.722933 331.48776 
L 770.084739 328.340642 
L 771.446545 330.415665 
L 772.808351 330.138995 
L 774.170157 329.568364 
L 776.893769 331.48776 
L 779.617381 331.48776 
L 780.979187 329.741282 
L 782.340993 330.605875 
L 783.702799 330.778794 
L 785.064605 330.519416 
L 786.426411 331.48776 
L 787.788217 331.48776 
L 789.150023 330.069828 
L 790.511829 330.93442 
L 791.873635 330.675043 
L 794.597247 331.038172 
L 795.959053 331.48776 
L 797.320859 331.48776 
L 798.682665 330.450248 
L 800.044471 330.917129 
L 802.768083 331.038172 
L 804.129889 331.072755 
L 805.491695 331.48776 
L 806.853501 331.48776 
L 808.215307 330.692334 
L 809.577113 331.245674 
L 810.938919 330.830669 
L 812.300725 331.141923 
L 816.386142 331.48776 
L 817.747948 330.571291 
L 819.109754 331.107339 
L 820.47156 331.072755 
L 821.833366 331.401301 
L 823.195172 331.055463 
L 824.556978 331.48776 
L 827.28059 331.48776 
L 828.642396 330.536708 
L 830.004202 330.796086 
L 832.727814 331.816305 
L 834.08962 331.48776 
L 835.451426 331.48776 
L 836.813232 329.931493 
L 838.175038 331.090047 
L 839.536844 330.951712 
L 840.89865 330.554 
L 842.260456 330.726918 
L 843.622262 331.48776 
L 844.984068 331.48776 
L 846.345874 329.205235 
L 847.70768 330.363789 
L 849.069486 329.741282 
L 850.431292 330.00066 
L 851.793098 329.896909 
L 853.154904 331.48776 
L 854.51671 331.48776 
L 855.878516 327.164796 
L 857.240322 329.672115 
L 859.963934 328.04668 
L 861.32574 328.271474 
L 862.687546 331.48776 
L 864.049352 331.48776 
L 865.411158 323.689132 
L 866.772964 328.115848 
L 868.13477 326.265619 
L 869.496576 327.337714 
L 870.858382 326.334786 
L 872.220188 331.48776 
L 874.9438 331.48776 
L 876.305606 319.141374 
L 877.667412 326.559581 
L 879.029218 325.193524 
L 880.391023 324.553725 
L 881.752829 331.48776 
L 883.114635 331.48776 
L 884.476441 319.487211 
L 885.838247 325.764155 
L 887.200053 324.484558 
L 888.561859 325.677696 
L 889.923665 325.349151 
L 891.285471 331.48776 
L 892.647277 331.48776 
L 894.009083 320.7841 
L 895.370889 327.406882 
L 896.732695 324.864978 
L 898.094501 325.349151 
L 899.456307 324.605601 
L 900.818113 331.48776 
L 902.179919 331.48776 
L 903.541725 320.697641 
L 904.903531 326.438538 
L 907.627143 324.242472 
L 908.988949 325.366442 
L 910.350755 331.48776 
L 913.074367 331.48776 
L 914.436173 315.821337 
L 915.797979 330.156287 
L 917.159785 318.881996 
L 918.521591 324.657476 
L 919.883397 331.48776 
L 921.245203 331.48776 
L 922.607009 314.852993 
L 923.968815 323.983094 
L 925.330621 324.432682 
L 926.692427 325.919782 
L 928.054233 323.291419 
L 929.416039 331.48776 
L 930.777845 331.48776 
L 932.139651 315.907796 
L 933.501457 325.677696 
L 934.863263 353.2755 
L 936.225069 299.203862 
L 937.586875 324.449974 
L 938.948681 331.48776 
L 940.310487 331.48776 
L 941.672293 318.501575 
L 943.034099 326.300203 
L 944.395905 326.075409 
L 945.75771 326.352078 
L 947.119516 325.297275 
L 948.481322 331.48776 
L 949.843128 331.48776 
L 951.204934 320.455555 
L 952.56674 327.233963 
L 953.928546 325.71228 
L 955.290352 327.441465 
L 956.652158 324.588309 
L 958.013964 331.48776 
L 960.737576 331.48776 
L 962.099382 315.631127 
L 963.461188 326.473121 
L 964.822994 326.075409 
L 966.1848 326.040825 
L 967.546606 331.48776 
L 968.908412 331.48776 
L 970.270218 320.299928 
L 971.632024 327.545216 
L 972.99383 327.545216 
L 974.355636 326.36937 
L 975.717442 328.13314 
L 977.079248 331.48776 
L 978.441054 331.48776 
L 979.80286 323.48163 
L 981.164666 328.288766 
L 982.526472 326.974585 
L 983.888278 326.92271 
L 985.250084 327.441465 
L 986.61189 331.48776 
L 987.973696 331.48776 
L 989.335502 321.838903 
L 990.697308 327.614384 
L 992.059114 326.282911 
L 993.42092 325.937074 
L 994.782726 326.818958 
L 996.144532 331.48776 
L 997.506338 331.48776 
L 998.868144 318.415116 
L 1000.22995 325.608528 
L 1001.591756 326.109992 
L 1002.953562 331.48776 
L 1004.315368 318.155738 
L 1005.677174 331.48776 
L 1007.03898 331.48776 
L 1008.400786 314.835701 
L 1009.762592 321.856195 
L 1011.124397 323.239544 
L 1012.486203 322.063698 
L 1013.848009 321.320148 
L 1015.209815 331.48776 
L 1016.571621 331.48776 
L 1017.933427 311.705875 
L 1019.295233 321.043478 
L 1020.657039 324.121429 
L 1022.018845 331.48776 
L 1026.104263 331.48776 
L 1027.466069 289.745216 
L 1028.827875 317.861776 
L 1030.189681 314.576323 
L 1031.551487 314.662783 
L 1032.913293 311.705875 
L 1034.275099 331.48776 
L 1035.636905 331.48776 
L 1036.998711 295.330486 
L 1038.360517 312.691511 
L 1039.722323 319.504503 
L 1041.084129 306.103313 
L 1042.445935 312.847138 
L 1043.807741 331.48776 
L 1045.169547 331.48776 
L 1046.531353 289.416671 
L 1047.893159 309.942106 
L 1049.254965 307.227284 
L 1050.616771 310.754823 
L 1051.978577 310.789407 
L 1053.340383 331.48776 
L 1054.702189 331.48776 
L 1056.063995 262.977421 
L 1057.425801 313.936525 
L 1058.787607 300.172206 
L 1060.149413 302.316397 
L 1061.511219 331.48776 
L 1065.596637 331.48776 
L 1066.958443 214.64668 
L 1068.320249 276.27486 
L 1069.682055 263.738263 
L 1071.043861 331.48776 
L 1075.129279 331.48776 
L 1076.491085 50.8755 
L 1077.85289 230.019141 
L 1079.214696 211.862691 
L 1080.576502 228.497458 
L 1081.938308 331.48776 
L 1083.300114 331.48776 
L 1084.66192 93.465344 
L 1086.023726 243.714292 
L 1087.385532 232.457293 
L 1088.747338 233.442929 
L 1090.109144 231.108528 
L 1091.47095 331.48776 
L 1092.832756 331.48776 
L 1094.194562 131.057842 
L 1095.556368 268.476232 
L 1096.918174 274.891511 
L 1098.27998 268.943112 
L 1099.641786 281.77367 
L 1101.003592 331.48776 
L 1102.365398 331.48776 
L 1103.727204 230.295811 
L 1105.08901 303.474951 
L 1106.450816 278.263423 
L 1107.812622 298.425729 
L 1109.174428 299.73991 
L 1110.536234 331.48776 
L 1111.89804 331.48776 
L 1113.259846 290.471474 
L 1114.621652 313.123807 
L 1115.983458 314.282362 
L 1117.345264 310.651072 
L 1118.70707 316.616763 
L 1120.068876 331.48776 
L 1121.430682 331.48776 
L 1122.792488 303.855372 
L 1124.154294 321.441191 
L 1125.5161 320.50743 
L 1126.877906 320.7841 
L 1128.239712 322.668913 
L 1129.601518 331.48776 
L 1130.963324 331.48776 
L 1132.32513 315.060495 
L 1133.686936 327.095628 
L 1136.410548 324.588309 
L 1137.772354 326.83625 
L 1139.13416 331.48776 
L 1140.495966 331.48776 
L 1141.857772 321.596817 
L 1143.219577 328.029388 
L 1144.581383 328.081264 
L 1145.943189 326.64604 
L 1147.304995 327.770011 
L 1148.666801 331.48776 
L 1150.028607 331.48776 
L 1151.390413 324.294347 
L 1152.752219 328.548144 
L 1154.114025 325.591237 
L 1155.475831 328.185015 
L 1156.837637 328.79023 
L 1158.199443 331.48776 
L 1159.561249 331.48776 
L 1160.923055 325.383734 
L 1162.284861 329.239818 
L 1163.646667 328.478977 
L 1165.008473 327.908345 
L 1166.370279 328.807522 
L 1167.732085 331.48776 
L 1169.093891 331.48776 
L 1170.455697 324.449974 
L 1171.817503 327.683551 
L 1173.179309 327.891054 
L 1174.541115 327.285839 
L 1175.902921 328.306058 
L 1177.264727 331.48776 
L 1178.626533 331.48776 
L 1179.988339 324.467266 
L 1181.350145 329.0669 
L 1182.711951 327.804594 
L 1184.073757 328.150431 
L 1185.435563 328.79023 
L 1186.797369 331.48776 
L 1188.159175 331.48776 
L 1189.520981 324.190596 
L 1190.882787 328.634603 
L 1192.244593 328.029388 
L 1193.606399 326.248327 
L 1194.968205 327.233963 
L 1196.330011 331.48776 
L 1197.691817 331.48776 
L 1199.053623 322.980166 
L 1200.415429 326.870834 
L 1201.777235 325.124356 
L 1203.139041 324.605601 
L 1204.500847 325.62582 
L 1205.862653 331.48776 
L 1207.224459 331.48776 
L 1208.586264 317.446772 
L 1209.94807 323.464338 
L 1211.309876 325.245399 
L 1212.671682 322.167449 
L 1214.033488 325.746863 
L 1215.395294 331.48776 
L 1216.7571 331.48776 
L 1218.118906 316.616763 
L 1219.480712 325.349151 
L 1220.842518 325.988949 
L 1222.204324 323.032042 
L 1223.56613 325.539361 
L 1224.927936 331.48776 
L 1226.289742 331.48776 
L 1227.651548 314.403405 
L 1229.013354 323.032042 
L 1230.37516 322.167449 
L 1231.736966 320.109718 
L 1233.098772 319.227833 
L 1234.460578 331.48776 
L 1235.822384 331.48776 
L 1237.18419 310.097732 
L 1238.545996 321.614109 
L 1239.907802 318.622618 
L 1241.269608 315.267998 
L 1242.631414 318.034695 
L 1243.99322 331.48776 
L 1245.355026 331.48776 
L 1246.716832 302.454731 
L 1248.078638 316.824265 
L 1249.440444 314.368821 
L 1250.80225 314.714658 
L 1252.164056 316.149882 
L 1253.525862 331.48776 
L 1254.887668 331.48776 
L 1256.249474 297.97614 
L 1257.61128 314.576323 
L 1258.973086 314.783826 
L 1260.334892 313.452353 
L 1261.696698 316.149882 
L 1263.058504 331.48776 
L 1264.42031 331.48776 
L 1265.782116 305.498098 
L 1267.143922 319.054914 
L 1268.505728 321.181813 
L 1269.867534 318.726369 
L 1271.22934 320.490139 
L 1272.591146 331.48776 
L 1275.314757 331.48776 
L 1276.676563 305.290596 
L 1278.038369 320.680349 
L 1279.400175 323.308711 
L 1280.761981 319.642838 
L 1282.123787 331.48776 
L 1283.485593 331.48776 
L 1284.847399 317.014475 
L 1286.209205 322.236616 
L 1287.571011 324.847687 
L 1288.932817 323.810175 
L 1290.294623 324.328931 
L 1291.656429 331.48776 
L 1293.018235 331.48776 
L 1294.380041 321.614109 
L 1295.741847 323.118501 
L 1297.103653 324.916854 
L 1298.465459 325.279983 
L 1299.827265 326.282911 
L 1301.189071 331.48776 
L 1302.550877 331.48776 
L 1303.912683 321.493066 
L 1305.274489 326.161868 
L 1306.636295 326.542289 
L 1306.636295 326.542289 
" clip-path="url(#p59ef1375bc)" style="fill: none; stroke: #0000ff; stroke-width: 1.5; stroke-linecap: square"/>
   </g>
   <g id="line2d_20">
    <path d="M 1066.958443 322.284401 
L 1068.320249 307.20257 
L 1069.682055 307.633307 
L 1071.043861 313.705576 
L 1072.405667 305.777936 
L 1073.767473 327.480041 
L 1075.129279 231.019411 
L 1076.491085 295.884478 
L 1077.85289 251.041442 
L 1079.214696 271.128576 
L 1080.576502 295.317633 
L 1081.938308 264.250939 
L 1083.300114 264.733466 
L 1084.66192 127.224148 
L 1086.023726 185.063573 
L 1087.385532 182.652476 
L 1088.747338 234.959933 
L 1090.109144 273.595342 
L 1091.47095 289.945775 
L 1092.832756 120.429759 
L 1094.194562 298.363153 
L 1095.556368 254.84773 
L 1096.918174 249.328604 
L 1098.27998 251.478862 
L 1099.641786 309.526754 
L 1101.003592 307.599785 
L 1102.365398 221.446188 
L 1103.727204 272.314419 
L 1105.08901 291.406819 
L 1106.450816 293.085892 
L 1107.812622 302.26668 
L 1109.174428 318.442158 
L 1110.536234 323.869139 
L 1111.89804 276.495602 
L 1113.259846 318.069465 
L 1114.621652 295.406653 
L 1115.983458 310.022285 
L 1117.345264 310.402584 
L 1118.70707 330.45932 
L 1120.068876 327.219049 
L 1121.430682 314.56746 
L 1122.792488 319.27878 
L 1124.154294 325.903209 
L 1125.5161 317.921115 
L 1126.877906 323.755665 
L 1128.239712 327.752579 
L 1129.601518 329.123178 
L 1130.963324 313.071217 
L 1132.32513 325.802604 
L 1133.686936 322.221338 
L 1135.048742 324.986076 
L 1136.410548 325.714638 
L 1137.772354 330.34013 
L 1139.13416 329.992829 
L 1140.495966 323.53524 
L 1141.857772 328.853061 
L 1143.219577 328.716406 
L 1144.581383 326.613783 
L 1147.304995 330.374997 
L 1148.666801 330.170582 
L 1150.028607 325.228937 
L 1151.390413 328.895909 
L 1154.114025 328.06021 
L 1155.475831 327.985757 
L 1156.837637 329.699519 
L 1158.199443 330.285228 
L 1159.561249 326.496978 
L 1160.923055 329.090926 
L 1162.284861 326.59555 
L 1163.646667 328.392002 
L 1166.370279 330.713315 
L 1167.732085 330.182886 
L 1169.093891 327.272299 
L 1170.455697 329.935014 
L 1171.817503 329.496747 
L 1173.179309 327.813364 
L 1174.541115 328.512936 
L 1175.902921 329.78059 
L 1177.264727 329.647879 
L 1178.626533 325.722493 
L 1179.988339 328.012522 
L 1181.350145 327.596303 
L 1182.711951 327.548661 
L 1184.073757 328.627665 
L 1185.435563 330.132327 
L 1186.797369 330.300633 
L 1188.159175 326.562708 
L 1189.520981 329.943935 
L 1190.882787 328.466688 
L 1192.244593 328.276778 
L 1194.968205 329.988715 
L 1196.330011 329.303789 
L 1197.691817 325.574914 
L 1199.053623 328.72814 
L 1200.415429 327.883988 
L 1201.777235 326.050713 
L 1203.139041 326.752275 
L 1204.500847 328.845556 
L 1205.862653 328.646088 
L 1207.224459 323.938758 
L 1208.586264 327.432692 
L 1209.94807 324.742647 
L 1211.309876 323.318708 
L 1212.671682 325.301477 
L 1214.033488 328.071076 
L 1215.395294 327.447728 
L 1216.7571 319.696642 
L 1218.118906 324.391027 
L 1219.480712 325.173106 
L 1220.842518 322.646331 
L 1222.204324 326.248773 
L 1223.56613 328.788031 
L 1224.927936 328.591678 
L 1226.289742 320.817806 
L 1227.651548 327.421866 
L 1229.013354 325.983572 
L 1230.37516 323.308543 
L 1231.736966 324.9551 
L 1233.098772 327.493774 
L 1234.460578 326.012974 
L 1235.822384 316.35022 
L 1237.18419 323.605198 
L 1238.545996 320.787042 
L 1239.907802 318.875082 
L 1241.269608 319.365384 
L 1242.631414 325.499382 
L 1243.99322 324.962187 
L 1245.355026 313.597925 
L 1246.716832 322.925093 
L 1249.440444 314.250422 
L 1250.80225 317.900342 
L 1252.164056 324.357272 
L 1253.525862 323.782663 
L 1254.887668 306.972706 
L 1256.249474 318.531928 
L 1257.61128 314.823855 
L 1258.973086 313.939764 
L 1260.334892 316.53417 
L 1261.696698 324.288862 
L 1263.058504 323.506225 
L 1264.42031 305.691121 
L 1265.782116 317.221722 
L 1267.143922 316.942466 
L 1268.505728 315.383535 
L 1269.867534 318.931591 
L 1271.22934 327.550042 
L 1272.591146 327.415112 
L 1273.952951 315.030118 
L 1276.676563 327.853283 
L 1278.038369 324.355442 
L 1279.400175 319.835004 
L 1280.761981 329.801093 
L 1282.123787 327.6535 
L 1283.485593 331.510258 
L 1284.847399 312.979264 
L 1286.209205 319.130228 
L 1287.571011 321.957487 
L 1288.932817 323.983028 
L 1290.294623 327.557584 
L 1291.656429 328.577286 
L 1293.018235 317.571328 
L 1294.380041 328.214649 
L 1295.741847 328.039981 
L 1297.103653 325.78061 
L 1298.465459 325.566853 
L 1299.827265 329.699122 
L 1301.189071 329.274073 
L 1302.550877 325.903102 
L 1303.912683 324.662528 
L 1306.636295 325.717126 
L 1306.636295 325.717126 
" clip-path="url(#p59ef1375bc)" style="fill: none; stroke: #ffa500; stroke-width: 1.5; stroke-linecap: square"/>
   </g>
   <g id="line2d_21">
    <path d="M 1306.636295 325.717126 
L 1307.998101 327.522775 
L 1309.359907 329.407007 
L 1310.721713 329.61496 
L 1312.083519 323.563408 
L 1313.445325 327.496738 
L 1314.807131 327.346702 
L 1316.168937 326.465135 
L 1317.530743 327.660206 
L 1318.892549 328.178216 
L 1320.254355 328.307512 
L 1321.616161 325.847656 
L 1322.977967 327.419953 
L 1324.339773 327.398959 
" clip-path="url(#p59ef1375bc)" style="fill: none; stroke: #ff0000; stroke-width: 1.5; stroke-linecap: square"/>
   </g>
   <g id="patch_3">
    <path d="M 46.0125 368.3955 
L 46.0125 35.7555 
" style="fill: none; stroke: #000000; stroke-width: 0.8; stroke-linejoin: miter; stroke-linecap: square"/>
   </g>
   <g id="patch_4">
    <path d="M 1385.2125 368.3955 
L 1385.2125 35.7555 
" style="fill: none; stroke: #000000; stroke-width: 0.8; stroke-linejoin: miter; stroke-linecap: square"/>
   </g>
   <g id="patch_5">
    <path d="M 46.0125 368.3955 
L 1385.2125 368.3955 
" style="fill: none; stroke: #000000; stroke-width: 0.8; stroke-linejoin: miter; stroke-linecap: square"/>
   </g>
   <g id="patch_6">
    <path d="M 46.0125 35.7555 
L 1385.2125 35.7555 
" style="fill: none; stroke: #000000; stroke-width: 0.8; stroke-linejoin: miter; stroke-linecap: square"/>
   </g>
   <g id="text_19">
    <!-- Daily Confirmed Cases Forecasting - Rhode Island -->
    <g transform="translate(566.210625 16.318125)scale(0.12 -0.12)">
     <defs>
      <path id="DejaVuSans-44" d="M 1259 4147 
L 1259 519 
L 2022 519 
Q 2988 519 3436 956 
Q 3884 1394 3884 2338 
Q 3884 3275 3436 3711 
Q 2988 4147 2022 4147 
L 1259 4147 
z
M 628 4666 
L 1925 4666 
Q 3281 4666 3915 4102 
Q 4550 3538 4550 2338 
Q 4550 1131 3912 565 
Q 3275 0 1925 0 
L 628 0 
L 628 4666 
z
" transform="scale(0.015625)"/>
      <path id="DejaVuSans-61" d="M 2194 1759 
Q 1497 1759 1228 1600 
Q 959 1441 959 1056 
Q 959 750 1161 570 
Q 1363 391 1709 391 
Q 2188 391 2477 730 
Q 2766 1069 2766 1631 
L 2766 1759 
L 2194 1759 
z
M 3341 1997 
L 3341 0 
L 2766 0 
L 2766 531 
Q 2569 213 2275 61 
Q 1981 -91 1556 -91 
Q 1019 -91 701 211 
Q 384 513 384 1019 
Q 384 1609 779 1909 
Q 1175 2209 1959 2209 
L 2766 2209 
L 2766 2266 
Q 2766 2663 2505 2880 
Q 2244 3097 1772 3097 
Q 1472 3097 1187 3025 
Q 903 2953 641 2809 
L 641 3341 
Q 956 3463 1253 3523 
Q 1550 3584 1831 3584 
Q 2591 3584 2966 3190 
Q 3341 2797 3341 1997 
z
" transform="scale(0.015625)"/>
      <path id="DejaVuSans-69" d="M 603 3500 
L 1178 3500 
L 1178 0 
L 603 0 
L 603 3500 
z
M 603 4863 
L 1178 4863 
L 1178 4134 
L 603 4134 
L 603 4863 
z
" transform="scale(0.015625)"/>
      <path id="DejaVuSans-6c" d="M 603 4863 
L 1178 4863 
L 1178 0 
L 603 0 
L 603 4863 
z
" transform="scale(0.015625)"/>
      <path id="DejaVuSans-79" d="M 2059 -325 
Q 1816 -950 1584 -1140 
Q 1353 -1331 966 -1331 
L 506 -1331 
L 506 -850 
L 844 -850 
Q 1081 -850 1212 -737 
Q 1344 -625 1503 -206 
L 1606 56 
L 191 3500 
L 800 3500 
L 1894 763 
L 2988 3500 
L 3597 3500 
L 2059 -325 
z
" transform="scale(0.015625)"/>
      <path id="DejaVuSans-20" transform="scale(0.015625)"/>
      <path id="DejaVuSans-43" d="M 4122 4306 
L 4122 3641 
Q 3803 3938 3442 4084 
Q 3081 4231 2675 4231 
Q 1875 4231 1450 3742 
Q 1025 3253 1025 2328 
Q 1025 1406 1450 917 
Q 1875 428 2675 428 
Q 3081 428 3442 575 
Q 3803 722 4122 1019 
L 4122 359 
Q 3791 134 3420 21 
Q 3050 -91 2638 -91 
Q 1578 -91 968 557 
Q 359 1206 359 2328 
Q 359 3453 968 4101 
Q 1578 4750 2638 4750 
Q 3056 4750 3426 4639 
Q 3797 4528 4122 4306 
z
" transform="scale(0.015625)"/>
      <path id="DejaVuSans-6f" d="M 1959 3097 
Q 1497 3097 1228 2736 
Q 959 2375 959 1747 
Q 959 1119 1226 758 
Q 1494 397 1959 397 
Q 2419 397 2687 759 
Q 2956 1122 2956 1747 
Q 2956 2369 2687 2733 
Q 2419 3097 1959 3097 
z
M 1959 3584 
Q 2709 3584 3137 3096 
Q 3566 2609 3566 1747 
Q 3566 888 3137 398 
Q 2709 -91 1959 -91 
Q 1206 -91 779 398 
Q 353 888 353 1747 
Q 353 2609 779 3096 
Q 1206 3584 1959 3584 
z
" transform="scale(0.015625)"/>
      <path id="DejaVuSans-6e" d="M 3513 2113 
L 3513 0 
L 2938 0 
L 2938 2094 
Q 2938 2591 2744 2837 
Q 2550 3084 2163 3084 
Q 1697 3084 1428 2787 
Q 1159 2491 1159 1978 
L 1159 0 
L 581 0 
L 581 3500 
L 1159 3500 
L 1159 2956 
Q 1366 3272 1645 3428 
Q 1925 3584 2291 3584 
Q 2894 3584 3203 3211 
Q 3513 2838 3513 2113 
z
" transform="scale(0.015625)"/>
      <path id="DejaVuSans-66" d="M 2375 4863 
L 2375 4384 
L 1825 4384 
Q 1516 4384 1395 4259 
Q 1275 4134 1275 3809 
L 1275 3500 
L 2222 3500 
L 2222 3053 
L 1275 3053 
L 1275 0 
L 697 0 
L 697 3053 
L 147 3053 
L 147 3500 
L 697 3500 
L 697 3744 
Q 697 4328 969 4595 
Q 1241 4863 1831 4863 
L 2375 4863 
z
" transform="scale(0.015625)"/>
      <path id="DejaVuSans-72" d="M 2631 2963 
Q 2534 3019 2420 3045 
Q 2306 3072 2169 3072 
Q 1681 3072 1420 2755 
Q 1159 2438 1159 1844 
L 1159 0 
L 581 0 
L 581 3500 
L 1159 3500 
L 1159 2956 
Q 1341 3275 1631 3429 
Q 1922 3584 2338 3584 
Q 2397 3584 2469 3576 
Q 2541 3569 2628 3553 
L 2631 2963 
z
" transform="scale(0.015625)"/>
      <path id="DejaVuSans-6d" d="M 3328 2828 
Q 3544 3216 3844 3400 
Q 4144 3584 4550 3584 
Q 5097 3584 5394 3201 
Q 5691 2819 5691 2113 
L 5691 0 
L 5113 0 
L 5113 2094 
Q 5113 2597 4934 2840 
Q 4756 3084 4391 3084 
Q 3944 3084 3684 2787 
Q 3425 2491 3425 1978 
L 3425 0 
L 2847 0 
L 2847 2094 
Q 2847 2600 2669 2842 
Q 2491 3084 2119 3084 
Q 1678 3084 1418 2786 
Q 1159 2488 1159 1978 
L 1159 0 
L 581 0 
L 581 3500 
L 1159 3500 
L 1159 2956 
Q 1356 3278 1631 3431 
Q 1906 3584 2284 3584 
Q 2666 3584 2933 3390 
Q 3200 3197 3328 2828 
z
" transform="scale(0.015625)"/>
      <path id="DejaVuSans-65" d="M 3597 1894 
L 3597 1613 
L 953 1613 
Q 991 1019 1311 708 
Q 1631 397 2203 397 
Q 2534 397 2845 478 
Q 3156 559 3463 722 
L 3463 178 
Q 3153 47 2828 -22 
Q 2503 -91 2169 -91 
Q 1331 -91 842 396 
Q 353 884 353 1716 
Q 353 2575 817 3079 
Q 1281 3584 2069 3584 
Q 2775 3584 3186 3129 
Q 3597 2675 3597 1894 
z
M 3022 2063 
Q 3016 2534 2758 2815 
Q 2500 3097 2075 3097 
Q 1594 3097 1305 2825 
Q 1016 2553 972 2059 
L 3022 2063 
z
" transform="scale(0.015625)"/>
      <path id="DejaVuSans-64" d="M 2906 2969 
L 2906 4863 
L 3481 4863 
L 3481 0 
L 2906 0 
L 2906 525 
Q 2725 213 2448 61 
Q 2172 -91 1784 -91 
Q 1150 -91 751 415 
Q 353 922 353 1747 
Q 353 2572 751 3078 
Q 1150 3584 1784 3584 
Q 2172 3584 2448 3432 
Q 2725 3281 2906 2969 
z
M 947 1747 
Q 947 1113 1208 752 
Q 1469 391 1925 391 
Q 2381 391 2643 752 
Q 2906 1113 2906 1747 
Q 2906 2381 2643 2742 
Q 2381 3103 1925 3103 
Q 1469 3103 1208 2742 
Q 947 2381 947 1747 
z
" transform="scale(0.015625)"/>
      <path id="DejaVuSans-73" d="M 2834 3397 
L 2834 2853 
Q 2591 2978 2328 3040 
Q 2066 3103 1784 3103 
Q 1356 3103 1142 2972 
Q 928 2841 928 2578 
Q 928 2378 1081 2264 
Q 1234 2150 1697 2047 
L 1894 2003 
Q 2506 1872 2764 1633 
Q 3022 1394 3022 966 
Q 3022 478 2636 193 
Q 2250 -91 1575 -91 
Q 1294 -91 989 -36 
Q 684 19 347 128 
L 347 722 
Q 666 556 975 473 
Q 1284 391 1588 391 
Q 1994 391 2212 530 
Q 2431 669 2431 922 
Q 2431 1156 2273 1281 
Q 2116 1406 1581 1522 
L 1381 1569 
Q 847 1681 609 1914 
Q 372 2147 372 2553 
Q 372 3047 722 3315 
Q 1072 3584 1716 3584 
Q 2034 3584 2315 3537 
Q 2597 3491 2834 3397 
z
" transform="scale(0.015625)"/>
      <path id="DejaVuSans-46" d="M 628 4666 
L 3309 4666 
L 3309 4134 
L 1259 4134 
L 1259 2759 
L 3109 2759 
L 3109 2228 
L 1259 2228 
L 1259 0 
L 628 0 
L 628 4666 
z
" transform="scale(0.015625)"/>
      <path id="DejaVuSans-63" d="M 3122 3366 
L 3122 2828 
Q 2878 2963 2633 3030 
Q 2388 3097 2138 3097 
Q 1578 3097 1268 2742 
Q 959 2388 959 1747 
Q 959 1106 1268 751 
Q 1578 397 2138 397 
Q 2388 397 2633 464 
Q 2878 531 3122 666 
L 3122 134 
Q 2881 22 2623 -34 
Q 2366 -91 2075 -91 
Q 1284 -91 818 406 
Q 353 903 353 1747 
Q 353 2603 823 3093 
Q 1294 3584 2113 3584 
Q 2378 3584 2631 3529 
Q 2884 3475 3122 3366 
z
" transform="scale(0.015625)"/>
      <path id="DejaVuSans-74" d="M 1172 4494 
L 1172 3500 
L 2356 3500 
L 2356 3053 
L 1172 3053 
L 1172 1153 
Q 1172 725 1289 603 
Q 1406 481 1766 481 
L 2356 481 
L 2356 0 
L 1766 0 
Q 1100 0 847 248 
Q 594 497 594 1153 
L 594 3053 
L 172 3053 
L 172 3500 
L 594 3500 
L 594 4494 
L 1172 4494 
z
" transform="scale(0.015625)"/>
      <path id="DejaVuSans-67" d="M 2906 1791 
Q 2906 2416 2648 2759 
Q 2391 3103 1925 3103 
Q 1463 3103 1205 2759 
Q 947 2416 947 1791 
Q 947 1169 1205 825 
Q 1463 481 1925 481 
Q 2391 481 2648 825 
Q 2906 1169 2906 1791 
z
M 3481 434 
Q 3481 -459 3084 -895 
Q 2688 -1331 1869 -1331 
Q 1566 -1331 1297 -1286 
Q 1028 -1241 775 -1147 
L 775 -588 
Q 1028 -725 1275 -790 
Q 1522 -856 1778 -856 
Q 2344 -856 2625 -561 
Q 2906 -266 2906 331 
L 2906 616 
Q 2728 306 2450 153 
Q 2172 0 1784 0 
Q 1141 0 747 490 
Q 353 981 353 1791 
Q 353 2603 747 3093 
Q 1141 3584 1784 3584 
Q 2172 3584 2450 3431 
Q 2728 3278 2906 2969 
L 2906 3500 
L 3481 3500 
L 3481 434 
z
" transform="scale(0.015625)"/>
      <path id="DejaVuSans-52" d="M 2841 2188 
Q 3044 2119 3236 1894 
Q 3428 1669 3622 1275 
L 4263 0 
L 3584 0 
L 2988 1197 
Q 2756 1666 2539 1819 
Q 2322 1972 1947 1972 
L 1259 1972 
L 1259 0 
L 628 0 
L 628 4666 
L 2053 4666 
Q 2853 4666 3247 4331 
Q 3641 3997 3641 3322 
Q 3641 2881 3436 2590 
Q 3231 2300 2841 2188 
z
M 1259 4147 
L 1259 2491 
L 2053 2491 
Q 2509 2491 2742 2702 
Q 2975 2913 2975 3322 
Q 2975 3731 2742 3939 
Q 2509 4147 2053 4147 
L 1259 4147 
z
" transform="scale(0.015625)"/>
      <path id="DejaVuSans-68" d="M 3513 2113 
L 3513 0 
L 2938 0 
L 2938 2094 
Q 2938 2591 2744 2837 
Q 2550 3084 2163 3084 
Q 1697 3084 1428 2787 
Q 1159 2491 1159 1978 
L 1159 0 
L 581 0 
L 581 4863 
L 1159 4863 
L 1159 2956 
Q 1366 3272 1645 3428 
Q 1925 3584 2291 3584 
Q 2894 3584 3203 3211 
Q 3513 2838 3513 2113 
z
" transform="scale(0.015625)"/>
      <path id="DejaVuSans-49" d="M 628 4666 
L 1259 4666 
L 1259 0 
L 628 0 
L 628 4666 
z
" transform="scale(0.015625)"/>
     </defs>
     <use xlink:href="#DejaVuSans-44"/>
     <use xlink:href="#DejaVuSans-61" x="77.001953"/>
     <use xlink:href="#DejaVuSans-69" x="138.28125"/>
     <use xlink:href="#DejaVuSans-6c" x="166.064453"/>
     <use xlink:href="#DejaVuSans-79" x="193.847656"/>
     <use xlink:href="#DejaVuSans-20" x="253.027344"/>
     <use xlink:href="#DejaVuSans-43" x="284.814453"/>
     <use xlink:href="#DejaVuSans-6f" x="354.638672"/>
     <use xlink:href="#DejaVuSans-6e" x="415.820312"/>
     <use xlink:href="#DejaVuSans-66" x="479.199219"/>
     <use xlink:href="#DejaVuSans-69" x="514.404297"/>
     <use xlink:href="#DejaVuSans-72" x="542.1875"/>
     <use xlink:href="#DejaVuSans-6d" x="581.550781"/>
     <use xlink:href="#DejaVuSans-65" x="678.962891"/>
     <use xlink:href="#DejaVuSans-64" x="740.486328"/>
     <use xlink:href="#DejaVuSans-20" x="803.962891"/>
     <use xlink:href="#DejaVuSans-43" x="835.75"/>
     <use xlink:href="#DejaVuSans-61" x="905.574219"/>
     <use xlink:href="#DejaVuSans-73" x="966.853516"/>
     <use xlink:href="#DejaVuSans-65" x="1018.953125"/>
     <use xlink:href="#DejaVuSans-73" x="1080.476562"/>
     <use xlink:href="#DejaVuSans-20" x="1132.576172"/>
     <use xlink:href="#DejaVuSans-46" x="1164.363281"/>
     <use xlink:href="#DejaVuSans-6f" x="1218.257812"/>
     <use xlink:href="#DejaVuSans-72" x="1279.439453"/>
     <use xlink:href="#DejaVuSans-65" x="1318.302734"/>
     <use xlink:href="#DejaVuSans-63" x="1379.826172"/>
     <use xlink:href="#DejaVuSans-61" x="1434.806641"/>
     <use xlink:href="#DejaVuSans-73" x="1496.085938"/>
     <use xlink:href="#DejaVuSans-74" x="1548.185547"/>
     <use xlink:href="#DejaVuSans-69" x="1587.394531"/>
     <use xlink:href="#DejaVuSans-6e" x="1615.177734"/>
     <use xlink:href="#DejaVuSans-67" x="1678.556641"/>
     <use xlink:href="#DejaVuSans-20" x="1742.033203"/>
     <use xlink:href="#DejaVuSans-2d" x="1773.820312"/>
     <use xlink:href="#DejaVuSans-20" x="1809.904297"/>
     <use xlink:href="#DejaVuSans-52" x="1841.691406"/>
     <use xlink:href="#DejaVuSans-68" x="1911.173828"/>
     <use xlink:href="#DejaVuSans-6f" x="1974.552734"/>
     <use xlink:href="#DejaVuSans-64" x="2035.734375"/>
     <use xlink:href="#DejaVuSans-65" x="2099.210938"/>
     <use xlink:href="#DejaVuSans-20" x="2160.734375"/>
     <use xlink:href="#DejaVuSans-49" x="2192.521484"/>
     <use xlink:href="#DejaVuSans-73" x="2222.013672"/>
     <use xlink:href="#DejaVuSans-6c" x="2274.113281"/>
     <use xlink:href="#DejaVuSans-61" x="2301.896484"/>
     <use xlink:href="#DejaVuSans-6e" x="2363.175781"/>
     <use xlink:href="#DejaVuSans-64" x="2426.554688"/>
    </g>
    <!-- ARIMA (4, 1, 1)x(1, 0, 1, 7) (R2 = 0.165073) -->
    <g transform="translate(583.628438 29.7555)scale(0.12 -0.12)">
     <defs>
      <path id="DejaVuSans-41" d="M 2188 4044 
L 1331 1722 
L 3047 1722 
L 2188 4044 
z
M 1831 4666 
L 2547 4666 
L 4325 0 
L 3669 0 
L 3244 1197 
L 1141 1197 
L 716 0 
L 50 0 
L 1831 4666 
z
" transform="scale(0.015625)"/>
      <path id="DejaVuSans-4d" d="M 628 4666 
L 1569 4666 
L 2759 1491 
L 3956 4666 
L 4897 4666 
L 4897 0 
L 4281 0 
L 4281 4097 
L 3078 897 
L 2444 897 
L 1241 4097 
L 1241 0 
L 628 0 
L 628 4666 
z
" transform="scale(0.015625)"/>
      <path id="DejaVuSans-28" d="M 1984 4856 
Q 1566 4138 1362 3434 
Q 1159 2731 1159 2009 
Q 1159 1288 1364 580 
Q 1569 -128 1984 -844 
L 1484 -844 
Q 1016 -109 783 600 
Q 550 1309 550 2009 
Q 550 2706 781 3412 
Q 1013 4119 1484 4856 
L 1984 4856 
z
" transform="scale(0.015625)"/>
      <path id="DejaVuSans-2c" d="M 750 794 
L 1409 794 
L 1409 256 
L 897 -744 
L 494 -744 
L 750 256 
L 750 794 
z
" transform="scale(0.015625)"/>
      <path id="DejaVuSans-29" d="M 513 4856 
L 1013 4856 
Q 1481 4119 1714 3412 
Q 1947 2706 1947 2009 
Q 1947 1309 1714 600 
Q 1481 -109 1013 -844 
L 513 -844 
Q 928 -128 1133 580 
Q 1338 1288 1338 2009 
Q 1338 2731 1133 3434 
Q 928 4138 513 4856 
z
" transform="scale(0.015625)"/>
      <path id="DejaVuSans-78" d="M 3513 3500 
L 2247 1797 
L 3578 0 
L 2900 0 
L 1881 1375 
L 863 0 
L 184 0 
L 1544 1831 
L 300 3500 
L 978 3500 
L 1906 2253 
L 2834 3500 
L 3513 3500 
z
" transform="scale(0.015625)"/>
      <path id="DejaVuSans-3d" d="M 678 2906 
L 4684 2906 
L 4684 2381 
L 678 2381 
L 678 2906 
z
M 678 1631 
L 4684 1631 
L 4684 1100 
L 678 1100 
L 678 1631 
z
" transform="scale(0.015625)"/>
      <path id="DejaVuSans-2e" d="M 684 794 
L 1344 794 
L 1344 0 
L 684 0 
L 684 794 
z
" transform="scale(0.015625)"/>
      <path id="DejaVuSans-36" d="M 2113 2584 
Q 1688 2584 1439 2293 
Q 1191 2003 1191 1497 
Q 1191 994 1439 701 
Q 1688 409 2113 409 
Q 2538 409 2786 701 
Q 3034 994 3034 1497 
Q 3034 2003 2786 2293 
Q 2538 2584 2113 2584 
z
M 3366 4563 
L 3366 3988 
Q 3128 4100 2886 4159 
Q 2644 4219 2406 4219 
Q 1781 4219 1451 3797 
Q 1122 3375 1075 2522 
Q 1259 2794 1537 2939 
Q 1816 3084 2150 3084 
Q 2853 3084 3261 2657 
Q 3669 2231 3669 1497 
Q 3669 778 3244 343 
Q 2819 -91 2113 -91 
Q 1303 -91 875 529 
Q 447 1150 447 2328 
Q 447 3434 972 4092 
Q 1497 4750 2381 4750 
Q 2619 4750 2861 4703 
Q 3103 4656 3366 4563 
z
" transform="scale(0.015625)"/>
      <path id="DejaVuSans-33" d="M 2597 2516 
Q 3050 2419 3304 2112 
Q 3559 1806 3559 1356 
Q 3559 666 3084 287 
Q 2609 -91 1734 -91 
Q 1441 -91 1130 -33 
Q 819 25 488 141 
L 488 750 
Q 750 597 1062 519 
Q 1375 441 1716 441 
Q 2309 441 2620 675 
Q 2931 909 2931 1356 
Q 2931 1769 2642 2001 
Q 2353 2234 1838 2234 
L 1294 2234 
L 1294 2753 
L 1863 2753 
Q 2328 2753 2575 2939 
Q 2822 3125 2822 3475 
Q 2822 3834 2567 4026 
Q 2313 4219 1838 4219 
Q 1578 4219 1281 4162 
Q 984 4106 628 3988 
L 628 4550 
Q 988 4650 1302 4700 
Q 1616 4750 1894 4750 
Q 2613 4750 3031 4423 
Q 3450 4097 3450 3541 
Q 3450 3153 3228 2886 
Q 3006 2619 2597 2516 
z
" transform="scale(0.015625)"/>
     </defs>
     <use xlink:href="#DejaVuSans-41"/>
     <use xlink:href="#DejaVuSans-52" x="68.408203"/>
     <use xlink:href="#DejaVuSans-49" x="137.890625"/>
     <use xlink:href="#DejaVuSans-4d" x="167.382812"/>
     <use xlink:href="#DejaVuSans-41" x="253.662109"/>
     <use xlink:href="#DejaVuSans-20" x="322.070312"/>
     <use xlink:href="#DejaVuSans-28" x="353.857422"/>
     <use xlink:href="#DejaVuSans-34" x="392.871094"/>
     <use xlink:href="#DejaVuSans-2c" x="456.494141"/>
     <use xlink:href="#DejaVuSans-20" x="488.28125"/>
     <use xlink:href="#DejaVuSans-31" x="520.068359"/>
     <use xlink:href="#DejaVuSans-2c" x="583.691406"/>
     <use xlink:href="#DejaVuSans-20" x="615.478516"/>
     <use xlink:href="#DejaVuSans-31" x="647.265625"/>
     <use xlink:href="#DejaVuSans-29" x="710.888672"/>
     <use xlink:href="#DejaVuSans-78" x="749.902344"/>
     <use xlink:href="#DejaVuSans-28" x="809.082031"/>
     <use xlink:href="#DejaVuSans-31" x="848.095703"/>
     <use xlink:href="#DejaVuSans-2c" x="911.71875"/>
     <use xlink:href="#DejaVuSans-20" x="943.505859"/>
     <use xlink:href="#DejaVuSans-30" x="975.292969"/>
     <use xlink:href="#DejaVuSans-2c" x="1038.916016"/>
     <use xlink:href="#DejaVuSans-20" x="1070.703125"/>
     <use xlink:href="#DejaVuSans-31" x="1102.490234"/>
     <use xlink:href="#DejaVuSans-2c" x="1166.113281"/>
     <use xlink:href="#DejaVuSans-20" x="1197.900391"/>
     <use xlink:href="#DejaVuSans-37" x="1229.6875"/>
     <use xlink:href="#DejaVuSans-29" x="1293.310547"/>
     <use xlink:href="#DejaVuSans-20" x="1332.324219"/>
     <use xlink:href="#DejaVuSans-28" x="1364.111328"/>
     <use xlink:href="#DejaVuSans-52" x="1403.125"/>
     <use xlink:href="#DejaVuSans-32" x="1472.607422"/>
     <use xlink:href="#DejaVuSans-20" x="1536.230469"/>
     <use xlink:href="#DejaVuSans-3d" x="1568.017578"/>
     <use xlink:href="#DejaVuSans-20" x="1651.806641"/>
     <use xlink:href="#DejaVuSans-30" x="1683.59375"/>
     <use xlink:href="#DejaVuSans-2e" x="1747.216797"/>
     <use xlink:href="#DejaVuSans-31" x="1779.003906"/>
     <use xlink:href="#DejaVuSans-36" x="1842.626953"/>
     <use xlink:href="#DejaVuSans-35" x="1906.25"/>
     <use xlink:href="#DejaVuSans-30" x="1969.873047"/>
     <use xlink:href="#DejaVuSans-37" x="2033.496094"/>
     <use xlink:href="#DejaVuSans-33" x="2097.119141"/>
     <use xlink:href="#DejaVuSans-29" x="2160.742188"/>
    </g>
   </g>
   <g id="legend_1">
    <g id="patch_7">
     <path d="M 1281.132812 87.789875 
L 1378.2125 87.789875 
Q 1380.2125 87.789875 1380.2125 85.789875 
L 1380.2125 42.7555 
Q 1380.2125 40.7555 1378.2125 40.7555 
L 1281.132812 40.7555 
Q 1279.132812 40.7555 1279.132812 42.7555 
L 1279.132812 85.789875 
Q 1279.132812 87.789875 1281.132812 87.789875 
z
" style="fill: #ffffff; opacity: 0.8; stroke: #cccccc; stroke-linejoin: miter"/>
    </g>
    <g id="line2d_22">
     <path d="M 1283.132812 48.853937 
L 1293.132812 48.853937 
L 1303.132812 48.853937 
" style="fill: none; stroke: #0000ff; stroke-width: 1.5; stroke-linecap: square"/>
    </g>
    <g id="text_20">
     <!-- Actual Value -->
     <g transform="translate(1311.132812 52.353937)scale(0.1 -0.1)">
      <defs>
       <path id="DejaVuSans-75" d="M 544 1381 
L 544 3500 
L 1119 3500 
L 1119 1403 
Q 1119 906 1312 657 
Q 1506 409 1894 409 
Q 2359 409 2629 706 
Q 2900 1003 2900 1516 
L 2900 3500 
L 3475 3500 
L 3475 0 
L 2900 0 
L 2900 538 
Q 2691 219 2414 64 
Q 2138 -91 1772 -91 
Q 1169 -91 856 284 
Q 544 659 544 1381 
z
M 1991 3584 
L 1991 3584 
z
" transform="scale(0.015625)"/>
       <path id="DejaVuSans-56" d="M 1831 0 
L 50 4666 
L 709 4666 
L 2188 738 
L 3669 4666 
L 4325 4666 
L 2547 0 
L 1831 0 
z
" transform="scale(0.015625)"/>
      </defs>
      <use xlink:href="#DejaVuSans-41"/>
      <use xlink:href="#DejaVuSans-63" x="66.658203"/>
      <use xlink:href="#DejaVuSans-74" x="121.638672"/>
      <use xlink:href="#DejaVuSans-75" x="160.847656"/>
      <use xlink:href="#DejaVuSans-61" x="224.226562"/>
      <use xlink:href="#DejaVuSans-6c" x="285.505859"/>
      <use xlink:href="#DejaVuSans-20" x="313.289062"/>
      <use xlink:href="#DejaVuSans-56" x="345.076172"/>
      <use xlink:href="#DejaVuSans-61" x="405.734375"/>
      <use xlink:href="#DejaVuSans-6c" x="467.013672"/>
      <use xlink:href="#DejaVuSans-75" x="494.796875"/>
      <use xlink:href="#DejaVuSans-65" x="558.175781"/>
     </g>
    </g>
    <g id="line2d_23">
     <path d="M 1283.132812 63.532062 
L 1293.132812 63.532062 
L 1303.132812 63.532062 
" style="fill: none; stroke: #ffa500; stroke-width: 1.5; stroke-linecap: square"/>
    </g>
    <g id="text_21">
     <!-- Check Value -->
     <g transform="translate(1311.132812 67.032062)scale(0.1 -0.1)">
      <defs>
       <path id="DejaVuSans-6b" d="M 581 4863 
L 1159 4863 
L 1159 1991 
L 2875 3500 
L 3609 3500 
L 1753 1863 
L 3688 0 
L 2938 0 
L 1159 1709 
L 1159 0 
L 581 0 
L 581 4863 
z
" transform="scale(0.015625)"/>
      </defs>
      <use xlink:href="#DejaVuSans-43"/>
      <use xlink:href="#DejaVuSans-68" x="69.824219"/>
      <use xlink:href="#DejaVuSans-65" x="133.203125"/>
      <use xlink:href="#DejaVuSans-63" x="194.726562"/>
      <use xlink:href="#DejaVuSans-6b" x="249.707031"/>
      <use xlink:href="#DejaVuSans-20" x="307.617188"/>
      <use xlink:href="#DejaVuSans-56" x="339.404297"/>
      <use xlink:href="#DejaVuSans-61" x="400.0625"/>
      <use xlink:href="#DejaVuSans-6c" x="461.341797"/>
      <use xlink:href="#DejaVuSans-75" x="489.125"/>
      <use xlink:href="#DejaVuSans-65" x="552.503906"/>
     </g>
    </g>
    <g id="line2d_24">
     <path d="M 1283.132812 78.210187 
L 1293.132812 78.210187 
L 1303.132812 78.210187 
" style="fill: none; stroke: #ff0000; stroke-width: 1.5; stroke-linecap: square"/>
    </g>
    <g id="text_22">
     <!-- Predict Value -->
     <g transform="translate(1311.132812 81.710187)scale(0.1 -0.1)">
      <defs>
       <path id="DejaVuSans-50" d="M 1259 4147 
L 1259 2394 
L 2053 2394 
Q 2494 2394 2734 2622 
Q 2975 2850 2975 3272 
Q 2975 3691 2734 3919 
Q 2494 4147 2053 4147 
L 1259 4147 
z
M 628 4666 
L 2053 4666 
Q 2838 4666 3239 4311 
Q 3641 3956 3641 3272 
Q 3641 2581 3239 2228 
Q 2838 1875 2053 1875 
L 1259 1875 
L 1259 0 
L 628 0 
L 628 4666 
z
" transform="scale(0.015625)"/>
      </defs>
      <use xlink:href="#DejaVuSans-50"/>
      <use xlink:href="#DejaVuSans-72" x="58.552734"/>
      <use xlink:href="#DejaVuSans-65" x="97.416016"/>
      <use xlink:href="#DejaVuSans-64" x="158.939453"/>
      <use xlink:href="#DejaVuSans-69" x="222.416016"/>
      <use xlink:href="#DejaVuSans-63" x="250.199219"/>
      <use xlink:href="#DejaVuSans-74" x="305.179688"/>
      <use xlink:href="#DejaVuSans-20" x="344.388672"/>
      <use xlink:href="#DejaVuSans-56" x="376.175781"/>
      <use xlink:href="#DejaVuSans-61" x="436.833984"/>
      <use xlink:href="#DejaVuSans-6c" x="498.113281"/>
      <use xlink:href="#DejaVuSans-75" x="525.896484"/>
      <use xlink:href="#DejaVuSans-65" x="589.275391"/>
     </g>
    </g>
   </g>
  </g>
 </g>
 <defs>
  <clipPath id="p59ef1375bc">
   <rect x="46.0125" y="35.7555" width="1339.2" height="332.64"/>
  </clipPath>
 </defs>
</svg>
