<?xml version="1.0" encoding="utf-8" standalone="no"?>
<!DOCTYPE svg PUBLIC "-//W3C//DTD SVG 1.1//EN"
  "http://www.w3.org/Graphics/SVG/1.1/DTD/svg11.dtd">
<svg xmlns:xlink="http://www.w3.org/1999/xlink" width="1392.4125pt" height="392.273625pt" viewBox="0 0 1392.4125 392.273625" xmlns="http://www.w3.org/2000/svg" version="1.1">
 <metadata>
  <rdf:RDF xmlns:dc="http://purl.org/dc/elements/1.1/" xmlns:cc="http://creativecommons.org/ns#" xmlns:rdf="http://www.w3.org/1999/02/22-rdf-syntax-ns#">
   <cc:Work>
    <dc:type rdf:resource="http://purl.org/dc/dcmitype/StillImage"/>
    <dc:date>2022-07-14T17:32:15.515786</dc:date>
    <dc:format>image/svg+xml</dc:format>
    <dc:creator>
     <cc:Agent>
      <dc:title>Matplotlib v3.5.2, https://matplotlib.org/</dc:title>
     </cc:Agent>
    </dc:creator>
   </cc:Work>
  </rdf:RDF>
 </metadata>
 <defs>
  <style type="text/css">*{stroke-linejoin: round; stroke-linecap: butt}</style>
 </defs>
 <g id="figure_1">
  <g id="patch_1">
   <path d="M 0 392.273625 
L 1392.4125 392.273625 
L 1392.4125 0 
L 0 0 
z
" style="fill: #ffffff"/>
  </g>
  <g id="axes_1">
   <g id="patch_2">
    <path d="M 46.0125 368.3955 
L 1385.2125 368.3955 
L 1385.2125 35.7555 
L 46.0125 35.7555 
z
" style="fill: #ffffff"/>
   </g>
   <g id="matplotlib.axis_1">
    <g id="xtick_1">
     <g id="line2d_1">
      <defs>
       <path id="m580732bde2" d="M 0 0 
L 0 3.5 
" style="stroke: #000000; stroke-width: 0.8"/>
      </defs>
      <g>
       <use xlink:href="#m580732bde2" x="77.613096" y="368.3955" style="stroke: #000000; stroke-width: 0.8"/>
      </g>
     </g>
     <g id="text_1">
      <!-- 2020-01 -->
      <g transform="translate(56.72169 382.993937)scale(0.1 -0.1)">
       <defs>
        <path id="DejaVuSans-32" d="M 1228 531 
L 3431 531 
L 3431 0 
L 469 0 
L 469 531 
Q 828 903 1448 1529 
Q 2069 2156 2228 2338 
Q 2531 2678 2651 2914 
Q 2772 3150 2772 3378 
Q 2772 3750 2511 3984 
Q 2250 4219 1831 4219 
Q 1534 4219 1204 4116 
Q 875 4013 500 3803 
L 500 4441 
Q 881 4594 1212 4672 
Q 1544 4750 1819 4750 
Q 2544 4750 2975 4387 
Q 3406 4025 3406 3419 
Q 3406 3131 3298 2873 
Q 3191 2616 2906 2266 
Q 2828 2175 2409 1742 
Q 1991 1309 1228 531 
z
" transform="scale(0.015625)"/>
        <path id="DejaVuSans-30" d="M 2034 4250 
Q 1547 4250 1301 3770 
Q 1056 3291 1056 2328 
Q 1056 1369 1301 889 
Q 1547 409 2034 409 
Q 2525 409 2770 889 
Q 3016 1369 3016 2328 
Q 3016 3291 2770 3770 
Q 2525 4250 2034 4250 
z
M 2034 4750 
Q 2819 4750 3233 4129 
Q 3647 3509 3647 2328 
Q 3647 1150 3233 529 
Q 2819 -91 2034 -91 
Q 1250 -91 836 529 
Q 422 1150 422 2328 
Q 422 3509 836 4129 
Q 1250 4750 2034 4750 
z
" transform="scale(0.015625)"/>
        <path id="DejaVuSans-2d" d="M 313 2009 
L 1997 2009 
L 1997 1497 
L 313 1497 
L 313 2009 
z
" transform="scale(0.015625)"/>
        <path id="DejaVuSans-31" d="M 794 531 
L 1825 531 
L 1825 4091 
L 703 3866 
L 703 4441 
L 1819 4666 
L 2450 4666 
L 2450 531 
L 3481 531 
L 3481 0 
L 794 0 
L 794 531 
z
" transform="scale(0.015625)"/>
       </defs>
       <use xlink:href="#DejaVuSans-32"/>
       <use xlink:href="#DejaVuSans-30" x="63.623047"/>
       <use xlink:href="#DejaVuSans-32" x="127.246094"/>
       <use xlink:href="#DejaVuSans-30" x="190.869141"/>
       <use xlink:href="#DejaVuSans-2d" x="254.492188"/>
       <use xlink:href="#DejaVuSans-30" x="290.576172"/>
       <use xlink:href="#DejaVuSans-31" x="354.199219"/>
      </g>
     </g>
    </g>
    <g id="xtick_2">
     <g id="line2d_2">
      <g>
       <use xlink:href="#m580732bde2" x="198.693275" y="368.3955" style="stroke: #000000; stroke-width: 0.8"/>
      </g>
     </g>
     <g id="text_2">
      <!-- 2020-04 -->
      <g transform="translate(177.801869 382.993937)scale(0.1 -0.1)">
       <defs>
        <path id="DejaVuSans-34" d="M 2419 4116 
L 825 1625 
L 2419 1625 
L 2419 4116 
z
M 2253 4666 
L 3047 4666 
L 3047 1625 
L 3713 1625 
L 3713 1100 
L 3047 1100 
L 3047 0 
L 2419 0 
L 2419 1100 
L 313 1100 
L 313 1709 
L 2253 4666 
z
" transform="scale(0.015625)"/>
       </defs>
       <use xlink:href="#DejaVuSans-32"/>
       <use xlink:href="#DejaVuSans-30" x="63.623047"/>
       <use xlink:href="#DejaVuSans-32" x="127.246094"/>
       <use xlink:href="#DejaVuSans-30" x="190.869141"/>
       <use xlink:href="#DejaVuSans-2d" x="254.492188"/>
       <use xlink:href="#DejaVuSans-30" x="290.576172"/>
       <use xlink:href="#DejaVuSans-34" x="354.199219"/>
      </g>
     </g>
    </g>
    <g id="xtick_3">
     <g id="line2d_3">
      <g>
       <use xlink:href="#m580732bde2" x="319.773454" y="368.3955" style="stroke: #000000; stroke-width: 0.8"/>
      </g>
     </g>
     <g id="text_3">
      <!-- 2020-07 -->
      <g transform="translate(298.882048 382.993937)scale(0.1 -0.1)">
       <defs>
        <path id="DejaVuSans-37" d="M 525 4666 
L 3525 4666 
L 3525 4397 
L 1831 0 
L 1172 0 
L 2766 4134 
L 525 4134 
L 525 4666 
z
" transform="scale(0.015625)"/>
       </defs>
       <use xlink:href="#DejaVuSans-32"/>
       <use xlink:href="#DejaVuSans-30" x="63.623047"/>
       <use xlink:href="#DejaVuSans-32" x="127.246094"/>
       <use xlink:href="#DejaVuSans-30" x="190.869141"/>
       <use xlink:href="#DejaVuSans-2d" x="254.492188"/>
       <use xlink:href="#DejaVuSans-30" x="290.576172"/>
       <use xlink:href="#DejaVuSans-37" x="354.199219"/>
      </g>
     </g>
    </g>
    <g id="xtick_4">
     <g id="line2d_4">
      <g>
       <use xlink:href="#m580732bde2" x="442.184184" y="368.3955" style="stroke: #000000; stroke-width: 0.8"/>
      </g>
     </g>
     <g id="text_4">
      <!-- 2020-10 -->
      <g transform="translate(421.292778 382.993937)scale(0.1 -0.1)">
       <use xlink:href="#DejaVuSans-32"/>
       <use xlink:href="#DejaVuSans-30" x="63.623047"/>
       <use xlink:href="#DejaVuSans-32" x="127.246094"/>
       <use xlink:href="#DejaVuSans-30" x="190.869141"/>
       <use xlink:href="#DejaVuSans-2d" x="254.492188"/>
       <use xlink:href="#DejaVuSans-31" x="290.576172"/>
       <use xlink:href="#DejaVuSans-30" x="354.199219"/>
      </g>
     </g>
    </g>
    <g id="xtick_5">
     <g id="line2d_5">
      <g>
       <use xlink:href="#m580732bde2" x="564.594914" y="368.3955" style="stroke: #000000; stroke-width: 0.8"/>
      </g>
     </g>
     <g id="text_5">
      <!-- 2021-01 -->
      <g transform="translate(543.703508 382.993937)scale(0.1 -0.1)">
       <use xlink:href="#DejaVuSans-32"/>
       <use xlink:href="#DejaVuSans-30" x="63.623047"/>
       <use xlink:href="#DejaVuSans-32" x="127.246094"/>
       <use xlink:href="#DejaVuSans-31" x="190.869141"/>
       <use xlink:href="#DejaVuSans-2d" x="254.492188"/>
       <use xlink:href="#DejaVuSans-30" x="290.576172"/>
       <use xlink:href="#DejaVuSans-31" x="354.199219"/>
      </g>
     </g>
    </g>
    <g id="xtick_6">
     <g id="line2d_6">
      <g>
       <use xlink:href="#m580732bde2" x="684.344542" y="368.3955" style="stroke: #000000; stroke-width: 0.8"/>
      </g>
     </g>
     <g id="text_6">
      <!-- 2021-04 -->
      <g transform="translate(663.453135 382.993937)scale(0.1 -0.1)">
       <use xlink:href="#DejaVuSans-32"/>
       <use xlink:href="#DejaVuSans-30" x="63.623047"/>
       <use xlink:href="#DejaVuSans-32" x="127.246094"/>
       <use xlink:href="#DejaVuSans-31" x="190.869141"/>
       <use xlink:href="#DejaVuSans-2d" x="254.492188"/>
       <use xlink:href="#DejaVuSans-30" x="290.576172"/>
       <use xlink:href="#DejaVuSans-34" x="354.199219"/>
      </g>
     </g>
    </g>
    <g id="xtick_7">
     <g id="line2d_7">
      <g>
       <use xlink:href="#m580732bde2" x="805.424721" y="368.3955" style="stroke: #000000; stroke-width: 0.8"/>
      </g>
     </g>
     <g id="text_7">
      <!-- 2021-07 -->
      <g transform="translate(784.533314 382.993937)scale(0.1 -0.1)">
       <use xlink:href="#DejaVuSans-32"/>
       <use xlink:href="#DejaVuSans-30" x="63.623047"/>
       <use xlink:href="#DejaVuSans-32" x="127.246094"/>
       <use xlink:href="#DejaVuSans-31" x="190.869141"/>
       <use xlink:href="#DejaVuSans-2d" x="254.492188"/>
       <use xlink:href="#DejaVuSans-30" x="290.576172"/>
       <use xlink:href="#DejaVuSans-37" x="354.199219"/>
      </g>
     </g>
    </g>
    <g id="xtick_8">
     <g id="line2d_8">
      <g>
       <use xlink:href="#m580732bde2" x="927.835451" y="368.3955" style="stroke: #000000; stroke-width: 0.8"/>
      </g>
     </g>
     <g id="text_8">
      <!-- 2021-10 -->
      <g transform="translate(906.944045 382.993937)scale(0.1 -0.1)">
       <use xlink:href="#DejaVuSans-32"/>
       <use xlink:href="#DejaVuSans-30" x="63.623047"/>
       <use xlink:href="#DejaVuSans-32" x="127.246094"/>
       <use xlink:href="#DejaVuSans-31" x="190.869141"/>
       <use xlink:href="#DejaVuSans-2d" x="254.492188"/>
       <use xlink:href="#DejaVuSans-31" x="290.576172"/>
       <use xlink:href="#DejaVuSans-30" x="354.199219"/>
      </g>
     </g>
    </g>
    <g id="xtick_9">
     <g id="line2d_9">
      <g>
       <use xlink:href="#m580732bde2" x="1050.246181" y="368.3955" style="stroke: #000000; stroke-width: 0.8"/>
      </g>
     </g>
     <g id="text_9">
      <!-- 2022-01 -->
      <g transform="translate(1029.354775 382.993937)scale(0.1 -0.1)">
       <use xlink:href="#DejaVuSans-32"/>
       <use xlink:href="#DejaVuSans-30" x="63.623047"/>
       <use xlink:href="#DejaVuSans-32" x="127.246094"/>
       <use xlink:href="#DejaVuSans-32" x="190.869141"/>
       <use xlink:href="#DejaVuSans-2d" x="254.492188"/>
       <use xlink:href="#DejaVuSans-30" x="290.576172"/>
       <use xlink:href="#DejaVuSans-31" x="354.199219"/>
      </g>
     </g>
    </g>
    <g id="xtick_10">
     <g id="line2d_10">
      <g>
       <use xlink:href="#m580732bde2" x="1169.995808" y="368.3955" style="stroke: #000000; stroke-width: 0.8"/>
      </g>
     </g>
     <g id="text_10">
      <!-- 2022-04 -->
      <g transform="translate(1149.104402 382.993937)scale(0.1 -0.1)">
       <use xlink:href="#DejaVuSans-32"/>
       <use xlink:href="#DejaVuSans-30" x="63.623047"/>
       <use xlink:href="#DejaVuSans-32" x="127.246094"/>
       <use xlink:href="#DejaVuSans-32" x="190.869141"/>
       <use xlink:href="#DejaVuSans-2d" x="254.492188"/>
       <use xlink:href="#DejaVuSans-30" x="290.576172"/>
       <use xlink:href="#DejaVuSans-34" x="354.199219"/>
      </g>
     </g>
    </g>
    <g id="xtick_11">
     <g id="line2d_11">
      <g>
       <use xlink:href="#m580732bde2" x="1291.075987" y="368.3955" style="stroke: #000000; stroke-width: 0.8"/>
      </g>
     </g>
     <g id="text_11">
      <!-- 2022-07 -->
      <g transform="translate(1270.184581 382.993937)scale(0.1 -0.1)">
       <use xlink:href="#DejaVuSans-32"/>
       <use xlink:href="#DejaVuSans-30" x="63.623047"/>
       <use xlink:href="#DejaVuSans-32" x="127.246094"/>
       <use xlink:href="#DejaVuSans-32" x="190.869141"/>
       <use xlink:href="#DejaVuSans-2d" x="254.492188"/>
       <use xlink:href="#DejaVuSans-30" x="290.576172"/>
       <use xlink:href="#DejaVuSans-37" x="354.199219"/>
      </g>
     </g>
    </g>
   </g>
   <g id="matplotlib.axis_2">
    <g id="ytick_1">
     <g id="line2d_12">
      <defs>
       <path id="m46431208d4" d="M 0 0 
L -3.5 0 
" style="stroke: #000000; stroke-width: 0.8"/>
      </defs>
      <g>
       <use xlink:href="#m46431208d4" x="46.0125" y="329.663357" style="stroke: #000000; stroke-width: 0.8"/>
      </g>
     </g>
     <g id="text_12">
      <!-- 0 -->
      <g transform="translate(32.65 333.462576)scale(0.1 -0.1)">
       <use xlink:href="#DejaVuSans-30"/>
      </g>
     </g>
    </g>
    <g id="ytick_2">
     <g id="line2d_13">
      <g>
       <use xlink:href="#m46431208d4" x="46.0125" y="269.924169" style="stroke: #000000; stroke-width: 0.8"/>
      </g>
     </g>
     <g id="text_13">
      <!-- 20000 -->
      <g transform="translate(7.2 273.723388)scale(0.1 -0.1)">
       <use xlink:href="#DejaVuSans-32"/>
       <use xlink:href="#DejaVuSans-30" x="63.623047"/>
       <use xlink:href="#DejaVuSans-30" x="127.246094"/>
       <use xlink:href="#DejaVuSans-30" x="190.869141"/>
       <use xlink:href="#DejaVuSans-30" x="254.492188"/>
      </g>
     </g>
    </g>
    <g id="ytick_3">
     <g id="line2d_14">
      <g>
       <use xlink:href="#m46431208d4" x="46.0125" y="210.184981" style="stroke: #000000; stroke-width: 0.8"/>
      </g>
     </g>
     <g id="text_14">
      <!-- 40000 -->
      <g transform="translate(7.2 213.984199)scale(0.1 -0.1)">
       <use xlink:href="#DejaVuSans-34"/>
       <use xlink:href="#DejaVuSans-30" x="63.623047"/>
       <use xlink:href="#DejaVuSans-30" x="127.246094"/>
       <use xlink:href="#DejaVuSans-30" x="190.869141"/>
       <use xlink:href="#DejaVuSans-30" x="254.492188"/>
      </g>
     </g>
    </g>
    <g id="ytick_4">
     <g id="line2d_15">
      <g>
       <use xlink:href="#m46431208d4" x="46.0125" y="150.445792" style="stroke: #000000; stroke-width: 0.8"/>
      </g>
     </g>
     <g id="text_15">
      <!-- 60000 -->
      <g transform="translate(7.2 154.245011)scale(0.1 -0.1)">
       <defs>
        <path id="DejaVuSans-36" d="M 2113 2584 
Q 1688 2584 1439 2293 
Q 1191 2003 1191 1497 
Q 1191 994 1439 701 
Q 1688 409 2113 409 
Q 2538 409 2786 701 
Q 3034 994 3034 1497 
Q 3034 2003 2786 2293 
Q 2538 2584 2113 2584 
z
M 3366 4563 
L 3366 3988 
Q 3128 4100 2886 4159 
Q 2644 4219 2406 4219 
Q 1781 4219 1451 3797 
Q 1122 3375 1075 2522 
Q 1259 2794 1537 2939 
Q 1816 3084 2150 3084 
Q 2853 3084 3261 2657 
Q 3669 2231 3669 1497 
Q 3669 778 3244 343 
Q 2819 -91 2113 -91 
Q 1303 -91 875 529 
Q 447 1150 447 2328 
Q 447 3434 972 4092 
Q 1497 4750 2381 4750 
Q 2619 4750 2861 4703 
Q 3103 4656 3366 4563 
z
" transform="scale(0.015625)"/>
       </defs>
       <use xlink:href="#DejaVuSans-36"/>
       <use xlink:href="#DejaVuSans-30" x="63.623047"/>
       <use xlink:href="#DejaVuSans-30" x="127.246094"/>
       <use xlink:href="#DejaVuSans-30" x="190.869141"/>
       <use xlink:href="#DejaVuSans-30" x="254.492188"/>
      </g>
     </g>
    </g>
    <g id="ytick_5">
     <g id="line2d_16">
      <g>
       <use xlink:href="#m46431208d4" x="46.0125" y="90.706604" style="stroke: #000000; stroke-width: 0.8"/>
      </g>
     </g>
     <g id="text_16">
      <!-- 80000 -->
      <g transform="translate(7.2 94.505823)scale(0.1 -0.1)">
       <defs>
        <path id="DejaVuSans-38" d="M 2034 2216 
Q 1584 2216 1326 1975 
Q 1069 1734 1069 1313 
Q 1069 891 1326 650 
Q 1584 409 2034 409 
Q 2484 409 2743 651 
Q 3003 894 3003 1313 
Q 3003 1734 2745 1975 
Q 2488 2216 2034 2216 
z
M 1403 2484 
Q 997 2584 770 2862 
Q 544 3141 544 3541 
Q 544 4100 942 4425 
Q 1341 4750 2034 4750 
Q 2731 4750 3128 4425 
Q 3525 4100 3525 3541 
Q 3525 3141 3298 2862 
Q 3072 2584 2669 2484 
Q 3125 2378 3379 2068 
Q 3634 1759 3634 1313 
Q 3634 634 3220 271 
Q 2806 -91 2034 -91 
Q 1263 -91 848 271 
Q 434 634 434 1313 
Q 434 1759 690 2068 
Q 947 2378 1403 2484 
z
M 1172 3481 
Q 1172 3119 1398 2916 
Q 1625 2713 2034 2713 
Q 2441 2713 2670 2916 
Q 2900 3119 2900 3481 
Q 2900 3844 2670 4047 
Q 2441 4250 2034 4250 
Q 1625 4250 1398 4047 
Q 1172 3844 1172 3481 
z
" transform="scale(0.015625)"/>
       </defs>
       <use xlink:href="#DejaVuSans-38"/>
       <use xlink:href="#DejaVuSans-30" x="63.623047"/>
       <use xlink:href="#DejaVuSans-30" x="127.246094"/>
       <use xlink:href="#DejaVuSans-30" x="190.869141"/>
       <use xlink:href="#DejaVuSans-30" x="254.492188"/>
      </g>
     </g>
    </g>
   </g>
   <g id="line2d_17">
    <path d="M 106.885227 329.663357 
L 157.446181 329.660371 
L 177.404452 329.612579 
L 180.065555 329.331805 
L 182.726658 329.176483 
L 184.057209 329.161548 
L 185.387761 328.779217 
L 186.718312 328.958435 
L 188.048864 328.910644 
L 189.379415 328.683635 
L 190.709966 327.653134 
L 192.040518 328.211695 
L 193.371069 328.268447 
L 194.701621 326.362767 
L 196.032172 328.289356 
L 197.362724 326.86159 
L 198.693275 326.718215 
L 200.023826 327.527682 
L 201.354378 326.052124 
L 202.684929 325.323305 
L 204.015481 326.96912 
L 205.346032 326.667437 
L 206.676583 325.807193 
L 208.007135 325.108244 
L 209.337686 325.648884 
L 210.668238 325.287462 
L 211.998789 325.801219 
L 213.329341 324.669161 
L 214.659892 326.159654 
L 215.990443 326.010306 
L 217.320995 325.645897 
L 218.651546 326.255237 
L 219.982098 324.155404 
L 221.312649 324.937988 
L 222.6432 326.087967 
L 223.973752 326.210432 
L 225.304303 325.045518 
L 226.634855 323.546065 
L 227.965406 324.197222 
L 229.295958 321.535841 
L 230.626509 323.33399 
L 231.95706 323.313082 
L 233.287612 323.749178 
L 234.618163 323.035295 
L 235.948715 322.924777 
L 237.279266 322.016741 
L 238.609817 320.293266 
L 239.940369 322.345307 
L 241.27092 320.720401 
L 242.601472 322.859064 
L 243.932023 323.354899 
L 245.262575 322.664912 
L 246.593126 321.780772 
L 247.923677 321.034032 
L 249.254229 322.718677 
L 250.58478 324.716953 
L 251.915332 325.881867 
L 253.245883 317.673702 
L 254.576434 324.666174 
L 255.906986 319.976648 
L 257.237537 322.399072 
L 259.89864 324.48397 
L 261.229192 322.811273 
L 262.559743 325.048505 
L 263.890294 322.530498 
L 265.220846 322.88296 
L 266.551397 321.431297 
L 267.881949 322.638029 
L 269.2125 322.172063 
L 270.543051 324.546696 
L 271.873603 326.144719 
L 273.204154 326.344846 
L 274.534706 325.10227 
L 275.865257 324.818509 
L 277.195808 325.296423 
L 278.52636 325.651871 
L 279.856911 326.754059 
L 281.187463 324.842405 
L 282.518014 326.730163 
L 283.848566 326.888472 
L 285.179117 326.210432 
L 286.509668 326.751072 
L 287.84022 327.073664 
L 289.170771 327.697938 
L 290.501323 327.282751 
L 291.831874 327.796508 
L 293.162425 327.375347 
L 294.492977 327.886117 
L 295.823528 327.653134 
L 297.15408 327.656121 
L 298.484631 328.250526 
L 299.815183 327.802482 
L 301.145734 328.032478 
L 302.476285 327.892091 
L 303.806837 327.596382 
L 305.137388 327.769625 
L 306.46794 327.697938 
L 307.798491 328.283382 
L 311.790145 326.993016 
L 314.451248 327.315607 
L 315.7818 327.733782 
L 317.112351 327.458981 
L 318.442902 327.500799 
L 319.773454 327.190155 
L 321.104005 327.06769 
L 323.765108 327.088598 
L 325.095659 327.75469 
L 326.426211 327.829364 
L 327.756762 324.558644 
L 329.087314 326.736137 
L 330.417865 326.622633 
L 331.748417 325.699662 
L 333.078968 326.093941 
L 334.409519 326.813798 
L 335.740071 327.025872 
L 337.070622 327.551577 
L 338.401174 326.117837 
L 339.731725 325.908749 
L 341.062276 325.400966 
L 342.392828 325.851997 
L 343.723379 326.780942 
L 345.053931 326.162641 
L 346.384482 326.849642 
L 347.715034 324.851366 
L 350.376136 324.884222 
L 351.706688 325.403953 
L 353.037239 325.060453 
L 354.367791 325.98641 
L 355.698342 326.455363 
L 357.028893 325.496549 
L 358.359445 324.370465 
L 359.689996 323.749178 
L 361.020548 324.767731 
L 363.681651 325.786284 
L 365.012202 325.26954 
L 366.342753 324.409296 
L 367.673305 323.829826 
L 369.003856 323.381782 
L 370.334408 323.121916 
L 371.664959 325.53538 
L 372.99551 325.723558 
L 374.326062 325.036557 
L 375.656613 324.749809 
L 376.987165 324.185274 
L 378.317716 322.805299 
L 379.648268 324.203196 
L 380.978819 325.000714 
L 382.30937 324.367478 
L 383.639922 324.469035 
L 384.970473 322.805299 
L 386.301025 324.191248 
L 387.631576 322.81426 
L 388.962127 322.626081 
L 390.292679 324.009043 
L 391.62323 324.848379 
L 392.953782 324.642279 
L 394.284333 323.223473 
L 395.614885 324.564618 
L 396.945436 322.387124 
L 398.275987 324.047874 
L 399.606539 323.713334 
L 400.93709 324.687083 
L 402.267642 325.206814 
L 403.598193 323.307108 
L 404.928744 325.601093 
L 406.259296 312.954306 
L 407.589847 321.287923 
L 408.920399 325.442784 
L 410.25095 325.57421 
L 411.581501 325.50551 
L 412.912053 325.669793 
L 414.242604 323.829826 
L 415.573156 322.75452 
L 416.903707 323.331004 
L 418.234259 325.302397 
L 419.56481 325.565249 
L 420.895361 325.290449 
L 422.225913 323.859695 
L 423.556464 323.522169 
L 424.887016 323.023347 
L 426.217567 322.124272 
L 427.548118 325.47564 
L 430.209221 325.084349 
L 431.539773 324.137483 
L 432.870324 322.924777 
L 434.200876 321.380519 
L 435.531427 322.37219 
L 436.861978 324.884222 
L 438.19253 324.558644 
L 439.523081 325.583171 
L 440.853633 322.876986 
L 442.184184 323.199577 
L 443.514735 322.327385 
L 444.845287 322.369203 
L 446.175838 325.323305 
L 447.50639 324.128522 
L 448.836941 324.833444 
L 450.167493 321.807654 
L 451.498044 320.421705 
L 452.828595 320.353005 
L 455.489698 321.517919 
L 456.82025 321.479089 
L 458.150801 321.141562 
L 459.481352 321.102732 
L 462.142455 314.411943 
L 463.473007 318.823682 
L 464.803558 316.983715 
L 466.13411 320.364953 
L 470.125764 314.904791 
L 471.456315 314.72856 
L 472.786867 311.2607 
L 474.117418 317.545263 
L 475.447969 315.538026 
L 476.778521 317.71552 
L 478.109072 311.413035 
L 479.439624 310.660322 
L 480.770175 304.307059 
L 482.100727 306.069365 
L 483.431278 308.814381 
L 484.761829 311.078496 
L 486.092381 310.20033 
L 487.422932 307.147657 
L 488.753484 299.987916 
L 490.084035 294.411262 
L 491.414586 292.511556 
L 492.745138 299.766881 
L 494.075689 298.082236 
L 495.406241 291.958969 
L 498.067344 291.722999 
L 499.397895 283.619378 
L 500.728446 296.723169 
L 502.058998 297.908992 
L 504.720101 292.024682 
L 506.050652 303.013706 
L 507.381203 286.017906 
L 508.711755 290.797042 
L 510.042306 294.145423 
L 511.372858 299.75792 
L 512.703409 304.805881 
L 514.033961 301.379839 
L 515.364512 295.677733 
L 516.695063 293.754131 
L 518.025615 307.040127 
L 519.356166 306.147026 
L 520.686718 308.222963 
L 522.017269 311.174079 
L 523.34782 292.200912 
L 524.678372 300.519594 
L 526.008923 296.929269 
L 527.339475 298.222623 
L 528.670026 300.13129 
L 530.000577 306.96844 
L 531.331129 303.703693 
L 532.66168 306.036508 
L 533.992232 305.003021 
L 535.322783 296.505121 
L 536.653335 301.5262 
L 537.983886 303.566293 
L 539.314437 308.109458 
L 540.644989 308.115432 
L 541.97554 307.682323 
L 543.306092 308.387246 
L 544.636643 303.29448 
L 545.967194 307.628558 
L 547.297746 307.07597 
L 548.628297 311.73264 
L 549.958849 315.627635 
L 551.2894 311.027718 
L 552.619952 309.465538 
L 553.950503 308.644124 
L 555.281054 312.512236 
L 556.611606 319.8273 
L 557.942157 318.411481 
L 559.272709 316.362427 
L 560.60326 312.804959 
L 561.933811 307.637519 
L 563.264363 305.740799 
L 564.594914 329.663357 
L 565.925466 293.930362 
L 567.256017 316.314636 
L 568.586569 314.55233 
L 569.91712 309.235542 
L 571.247671 307.055062 
L 572.578223 303.506554 
L 573.908774 301.953335 
L 575.239326 309.599951 
L 576.569877 315.591792 
L 577.900428 315.397639 
L 579.23098 309.823973 
L 580.561531 312.153801 
L 581.892083 309.794103 
L 583.222634 309.823973 
L 584.553186 313.704033 
L 585.883737 317.231632 
L 587.214288 319.5525 
L 588.54484 316.765667 
L 589.875391 315.260239 
L 591.205943 314.791287 
L 592.536494 308.629189 
L 595.197597 319.830287 
L 596.528148 320.869749 
L 597.8587 318.710177 
L 599.189251 318.459273 
L 600.519803 317.145011 
L 601.850354 317.249554 
L 603.180905 319.671978 
L 604.511457 322.41102 
L 605.842008 322.757507 
L 607.17256 322.781403 
L 608.503111 319.764574 
L 609.833662 319.722757 
L 611.164214 318.731086 
L 612.494765 320.517288 
L 613.825317 323.495286 
L 615.155868 324.460074 
L 616.48642 323.444508 
L 617.816971 321.225197 
L 619.147522 321.186367 
L 620.478074 321.903237 
L 623.139177 324.791627 
L 624.469728 325.421875 
L 625.800279 325.636936 
L 627.130831 324.301765 
L 628.461382 323.788008 
L 629.791934 323.038281 
L 632.453037 324.929027 
L 633.783588 325.941606 
L 635.114139 324.69007 
L 636.444691 323.623726 
L 637.775242 324.035926 
L 639.105794 322.37219 
L 640.436345 324.34657 
L 641.766896 325.932645 
L 643.097448 326.249263 
L 644.427999 324.952922 
L 645.758551 323.378795 
L 647.089102 324.466048 
L 648.419654 325.356162 
L 649.750205 322.001807 
L 651.080756 326.473285 
L 652.411308 326.132771 
L 653.741859 325.153049 
L 655.072411 324.639292 
L 656.402962 324.585526 
L 657.733513 324.397348 
L 659.064065 324.6602 
L 660.394616 325.23071 
L 661.725168 327.327555 
L 663.055719 323.6984 
L 664.38627 324.71994 
L 665.716822 322.718677 
L 667.047373 322.554394 
L 668.377925 323.802943 
L 669.708476 325.389019 
L 671.039028 326.019267 
L 672.369579 324.191248 
L 673.70013 321.32078 
L 675.030682 323.121916 
L 676.361233 320.696505 
L 677.691785 321.66428 
L 679.022336 322.942699 
L 680.352887 324.403322 
L 681.683439 322.482707 
L 683.01399 321.921159 
L 684.344542 319.131339 
L 685.675093 320.000544 
L 688.336196 322.348294 
L 689.666747 323.384769 
L 692.32785 318.342781 
L 693.658402 318.495116 
L 694.988953 317.703572 
L 696.319504 318.820695 
L 697.650056 320.875723 
L 698.980607 322.396085 
L 700.311159 320.125996 
L 701.64171 319.101469 
L 702.972262 318.967056 
L 704.302813 318.115772 
L 705.633364 320.123009 
L 706.963916 321.700124 
L 708.294467 323.811904 
L 709.625019 321.936093 
L 710.95557 321.404415 
L 712.286121 320.194696 
L 713.616673 319.600291 
L 714.947224 320.980266 
L 716.277776 323.584895 
L 717.608327 323.280225 
L 718.938879 322.028689 
L 720.26943 321.514932 
L 721.599981 319.525617 
L 722.930533 320.084179 
L 724.261084 321.261041 
L 725.591636 324.107613 
L 729.58329 322.464785 
L 730.913841 324.352544 
L 732.244393 319.743665 
L 733.574944 324.498905 
L 734.905496 324.463061 
L 736.236047 325.409927 
L 737.566598 324.997727 
L 738.89715 324.301765 
L 740.227701 323.934369 
L 741.558253 324.164365 
L 742.888804 325.144088 
L 745.549907 326.837694 
L 746.880458 325.197853 
L 748.21101 324.785653 
L 749.541561 325.057466 
L 750.872113 324.96487 
L 752.202664 326.353806 
L 753.533215 326.846655 
L 754.863767 326.876524 
L 756.194318 327.249894 
L 757.52487 326.261211 
L 758.855421 327.001977 
L 760.185972 326.730163 
L 762.847075 327.865208 
L 764.177627 328.107152 
L 765.508178 328.465587 
L 766.83873 328.235591 
L 768.169281 327.650147 
L 769.499832 327.793521 
L 770.830384 328.056373 
L 772.160935 328.641817 
L 773.491487 328.934539 
L 774.822038 328.573117 
L 776.152589 328.444678 
L 777.483141 328.57013 
L 778.813692 328.465587 
L 780.144244 328.862852 
L 781.474795 328.773244 
L 782.805346 329.170509 
L 784.135898 328.988305 
L 785.466449 328.611948 
L 786.797001 328.922592 
L 788.127552 329.358688 
L 789.458104 329.663357 
L 790.788655 329.558814 
L 792.119206 327.408203 
L 793.449758 329.089861 
L 794.780309 328.892722 
L 796.110861 328.919605 
L 797.441412 328.788178 
L 798.771963 329.663357 
L 800.102515 329.663357 
L 801.433066 327.545603 
L 802.763618 328.758309 
L 804.094169 328.892722 
L 805.424721 328.298317 
L 806.755272 328.597013 
L 808.085823 329.663357 
L 810.746926 329.663357 
L 812.077478 326.01628 
L 813.408029 328.283382 
L 814.73858 327.81443 
L 816.069132 327.742743 
L 817.399683 329.663357 
L 818.730235 329.663357 
L 820.060786 324.908118 
L 821.391338 327.933908 
L 822.721889 327.444047 
L 824.05244 327.094572 
L 825.382992 327.64716 
L 826.713543 329.663357 
L 828.044095 329.663357 
L 829.374646 321.249093 
L 830.705197 327.44106 
L 832.035749 326.789903 
L 833.3663 323.716321 
L 834.696852 325.272527 
L 836.027403 329.663357 
L 837.357955 329.663357 
L 838.688506 318.041098 
L 840.019057 324.648253 
L 841.349609 323.435547 
L 842.68016 324.65124 
L 844.010712 322.655951 
L 845.341263 329.663357 
L 846.671814 329.663357 
L 848.002366 312.909502 
L 849.332917 321.646358 
L 850.663469 322.57829 
L 851.99402 320.583001 
L 853.324572 320.577027 
L 854.655123 329.663357 
L 855.985674 329.663357 
L 857.316226 306.206765 
L 858.646777 320.833905 
L 859.977329 317.888763 
L 861.30788 320.33807 
L 862.638431 319.325491 
L 863.968983 329.663357 
L 865.299534 329.663357 
L 866.630086 302.41034 
L 867.960637 318.77589 
L 869.291189 318.229277 
L 870.62174 320.164827 
L 871.952291 315.006348 
L 873.282843 329.663357 
L 874.613394 329.663357 
L 875.943946 302.153461 
L 877.274497 320.738323 
L 878.605048 316.353466 
L 879.9356 317.590068 
L 881.266151 314.907778 
L 882.596703 329.663357 
L 883.927254 329.663357 
L 885.257806 299.617533 
L 886.588357 315.089982 
L 887.918908 314.193895 
L 889.24946 317.052415 
L 890.580011 311.795366 
L 891.910563 329.663357 
L 894.571665 329.663357 
L 895.902217 293.685431 
L 897.232768 317.799155 
L 898.56332 315.511144 
L 899.893871 313.823512 
L 901.224423 329.663357 
L 902.554974 329.663357 
L 903.885525 302.326705 
L 905.216077 315.744127 
L 906.546628 317.127089 
L 907.87718 316.688006 
L 909.207731 318.892382 
L 910.538282 329.663357 
L 911.868834 329.663357 
L 913.199385 304.534068 
L 914.529937 320.699492 
L 915.860488 319.029782 
L 917.191039 319.182117 
L 918.521591 319.800417 
L 919.852142 329.663357 
L 921.182694 329.663357 
L 922.513245 309.72839 
L 923.843797 322.563355 
L 925.174348 320.723388 
L 926.504899 319.695874 
L 927.835451 319.6212 
L 929.166002 329.663357 
L 930.496554 329.663357 
L 931.827105 308.369324 
L 933.157656 320.526249 
L 934.488208 320.893645 
L 935.818759 319.588343 
L 937.149311 321.470128 
L 938.479862 329.663357 
L 941.140965 329.663357 
L 942.471516 306.188843 
L 943.802068 320.944423 
L 945.132619 322.261672 
L 946.463171 322.458811 
L 947.793722 329.663357 
L 949.124273 329.663357 
L 950.454825 313.247029 
L 951.785376 323.46243 
L 953.115928 322.34232 
L 954.446479 323.262303 
L 955.777031 320.792088 
L 957.107582 329.663357 
L 958.438133 329.663357 
L 959.768685 314.310386 
L 961.099236 323.038281 
L 962.429788 323.662556 
L 963.760339 321.897263 
L 965.09089 321.753889 
L 966.421442 329.663357 
L 967.751993 329.663357 
L 969.082545 311.380179 
L 970.413096 322.527511 
L 971.743648 324.448126 
L 973.074199 316.923976 
L 974.40475 320.887671 
L 975.735302 329.663357 
L 977.065853 329.663357 
L 978.396405 307.697258 
L 979.726956 322.954647 
L 981.057507 314.594147 
L 982.388059 329.663357 
L 983.71861 305.902095 
L 985.049162 329.663357 
L 986.379713 329.663357 
L 987.710265 303.037601 
L 989.040816 320.687544 
L 990.371367 314.743495 
L 991.701919 312.825867 
L 993.03247 312.554054 
L 994.363022 329.663357 
L 995.693573 329.663357 
L 997.024124 295.668772 
L 998.354676 315.959188 
L 999.685227 314.543369 
L 1001.015779 329.663357 
L 1005.007433 329.663357 
L 1006.337984 272.14348 
L 1007.668536 312.595871 
L 1008.999087 311.368231 
L 1010.329639 295.235663 
L 1011.66019 307.099866 
L 1012.990741 329.663357 
L 1014.321293 329.663357 
L 1015.651844 272.588537 
L 1016.982396 308.557502 
L 1018.312947 309.770208 
L 1019.643499 301.884635 
L 1020.97405 307.168566 
L 1022.304601 329.660371 
L 1023.635153 329.663357 
L 1024.965704 271.381805 
L 1026.296256 307.565832 
L 1027.626807 300.456868 
L 1028.957358 294.229058 
L 1030.28791 297.5177 
L 1031.618461 329.663357 
L 1032.949013 329.663357 
L 1034.279564 235.696601 
L 1035.610115 298.960402 
L 1036.940667 280.166453 
L 1038.271218 273.108268 
L 1039.60177 329.615566 
L 1042.262873 329.663357 
L 1043.593424 162.516095 
L 1044.923975 267.522654 
L 1046.254527 266.617605 
L 1047.585078 238.907582 
L 1048.91563 329.663357 
L 1051.576732 329.663357 
L 1052.907284 63.262421 
L 1054.237835 256.691939 
L 1055.568387 233.226386 
L 1056.898938 197.983251 
L 1058.22949 201.47202 
L 1059.560041 329.663357 
L 1060.890592 329.663357 
L 1062.221144 97.155449 
L 1063.551695 245.726811 
L 1064.882247 226.454949 
L 1066.212798 219.032354 
L 1067.543349 241.144815 
L 1068.873901 329.639462 
L 1071.535004 329.663357 
L 1072.865555 50.8755 
L 1074.196107 250.544776 
L 1075.526658 260.210577 
L 1076.857209 208.183718 
L 1078.187761 329.663357 
L 1079.518312 329.663357 
L 1080.848864 136.780453 
L 1082.179415 289.037722 
L 1083.509966 282.582903 
L 1084.840518 286.585429 
L 1086.171069 283.571587 
L 1087.501621 329.663357 
L 1088.832172 329.663357 
L 1090.162724 258.60658 
L 1091.493275 303.781354 
L 1092.823826 301.373865 
L 1094.154378 329.663357 
L 1095.484929 274.509152 
L 1096.815481 329.663357 
L 1098.146032 329.663357 
L 1099.476583 288.013195 
L 1100.807135 312.240423 
L 1102.137686 315.511144 
L 1103.468238 313.482998 
L 1104.798789 329.663357 
L 1107.459892 329.663357 
L 1108.790443 287.066329 
L 1110.120995 320.998188 
L 1111.451546 319.743665 
L 1112.782098 322.082454 
L 1114.112649 320.155866 
L 1115.4432 329.663357 
L 1118.104303 329.663357 
L 1119.434855 311.018757 
L 1120.765406 321.508958 
L 1122.095958 323.758139 
L 1123.426509 323.471391 
L 1124.75706 329.663357 
L 1126.087612 329.663357 
L 1127.418163 316.272818 
L 1128.748715 324.164365 
L 1130.079266 324.75877 
L 1131.409817 326.168615 
L 1132.740369 325.693688 
L 1134.07092 329.663357 
L 1135.401472 329.663357 
L 1136.732023 321.885315 
L 1138.062575 326.512115 
L 1139.393126 324.782666 
L 1140.723677 325.47564 
L 1142.054229 324.227091 
L 1143.38478 329.663357 
L 1144.715332 329.663357 
L 1146.045883 322.724651 
L 1147.376434 324.955909 
L 1148.706986 326.583802 
L 1150.037537 326.228354 
L 1151.368089 325.508497 
L 1152.69864 329.663357 
L 1154.029192 329.663357 
L 1155.359743 322.34232 
L 1156.690294 325.353175 
L 1158.020846 326.347833 
L 1159.351397 324.504879 
L 1160.681949 325.750441 
L 1162.0125 329.666344 
L 1163.343051 329.666344 
L 1164.673603 322.163102 
L 1166.004154 324.92604 
L 1167.334706 325.705636 
L 1168.665257 324.908118 
L 1169.995808 325.43681 
L 1171.32636 329.663357 
L 1172.656911 329.663357 
L 1173.987463 320.756244 
L 1175.318014 324.292804 
L 1176.648566 323.109969 
L 1177.979117 325.191879 
L 1179.309668 322.75452 
L 1180.64022 329.663357 
L 1181.970771 329.663357 
L 1183.301323 316.326584 
L 1184.631874 324.400335 
L 1185.962425 323.50126 
L 1187.292977 319.6899 
L 1188.623528 322.425955 
L 1189.95408 329.663357 
L 1191.284631 329.663357 
L 1192.615183 312.488341 
L 1193.945734 322.279594 
L 1195.276285 317.924607 
L 1196.606837 318.94316 
L 1197.937388 318.286029 
L 1199.26794 329.663357 
L 1200.598491 329.663357 
L 1201.929042 305.319638 
L 1203.259594 322.160115 
L 1204.590145 319.409126 
L 1205.920697 315.935292 
L 1207.251248 311.873027 
L 1208.5818 329.663357 
L 1209.912351 329.663357 
L 1211.242902 302.825527 
L 1212.573454 317.590068 
L 1213.904005 312.494315 
L 1215.234557 317.261502 
L 1216.565108 306.639874 
L 1217.895659 329.663357 
L 1219.226211 329.663357 
L 1220.556762 286.59439 
L 1221.887314 313.692085 
L 1223.217865 311.263687 
L 1224.548417 312.673532 
L 1225.878968 304.531081 
L 1227.209519 329.663357 
L 1228.540071 329.663357 
L 1229.870622 279.339065 
L 1231.201174 313.739877 
L 1232.531725 312.44951 
L 1233.862276 307.108827 
L 1235.192828 315.64257 
L 1236.523379 329.663357 
L 1237.853931 329.663357 
L 1239.184482 286.555559 
L 1240.515034 317.75435 
L 1241.845585 310.531882 
L 1243.176136 310.657335 
L 1244.506688 312.781063 
L 1245.837239 329.663357 
L 1248.498342 329.663357 
L 1249.828893 281.746554 
L 1251.159445 316.699954 
L 1252.489996 310.549804 
L 1253.820548 312.279254 
L 1255.151099 329.663357 
L 1256.481651 329.663357 
L 1257.812202 288.449291 
L 1259.142753 315.143748 
L 1260.473305 315.024269 
L 1261.803856 316.837354 
L 1263.134408 311.302518 
L 1264.464959 329.663357 
L 1265.79551 329.663357 
L 1267.126062 303.787328 
L 1268.456613 318.076942 
L 1269.787165 312.527171 
L 1271.117716 313.730916 
L 1272.448268 319.211986 
L 1273.778819 329.663357 
L 1276.439922 329.663357 
L 1277.770473 289.566414 
L 1279.101025 315.896462 
L 1280.431576 319.229908 
L 1281.762127 313.031967 
L 1283.092679 329.663357 
L 1284.42323 329.663357 
L 1285.753782 300.080511 
L 1287.084333 316.995663 
L 1288.414885 315.788931 
L 1289.745436 315.134787 
L 1291.075987 316.036849 
L 1292.406539 329.663357 
L 1295.067642 329.663357 
L 1296.398193 297.219004 
L 1297.728744 313.288846 
L 1299.059296 312.350941 
L 1300.389847 313.524816 
L 1301.720399 329.663357 
L 1303.05095 329.663357 
L 1304.381501 293.993088 
L 1305.712053 311.517579 
L 1307.042604 314.358177 
L 1307.042604 314.358177 
" clip-path="url(#p4ce989c999)" style="fill: none; stroke: #0000ff; stroke-width: 1.5; stroke-linecap: square"/>
   </g>
   <g id="line2d_18">
    <path d="M 1067.543349 278.791147 
L 1068.873901 277.426357 
L 1070.204452 125.164506 
L 1071.535004 217.700687 
L 1072.865555 276.049004 
L 1075.526658 227.39652 
L 1076.857209 303.082468 
L 1078.187761 299.07929 
L 1079.518312 230.04169 
L 1080.848864 182.426693 
L 1082.179415 226.367212 
L 1083.509966 227.656612 
L 1084.840518 238.71314 
L 1086.171069 318.020937 
L 1087.501621 328.436841 
L 1088.832172 227.1372 
L 1091.493275 283.843395 
L 1092.823826 297.825528 
L 1094.154378 293.519931 
L 1095.484929 351.346648 
L 1096.815481 353.2755 
L 1098.146032 274.182285 
L 1099.476583 298.496685 
L 1100.807135 309.72906 
L 1102.137686 327.343101 
L 1103.468238 304.978823 
L 1104.798789 341.352365 
L 1106.129341 346.682165 
L 1107.459892 303.292935 
L 1108.790443 321.596421 
L 1110.120995 322.840001 
L 1111.451546 327.045178 
L 1112.782098 324.010615 
L 1114.112649 340.639595 
L 1115.4432 340.882536 
L 1116.773752 302.862085 
L 1118.104303 319.230551 
L 1119.434855 327.673184 
L 1120.765406 333.435902 
L 1122.095958 327.679379 
L 1123.426509 337.394045 
L 1124.75706 337.168627 
L 1126.087612 321.231091 
L 1127.418163 321.53782 
L 1128.748715 324.840151 
L 1130.079266 327.416227 
L 1131.409817 327.058986 
L 1132.740369 333.853328 
L 1134.07092 333.986524 
L 1135.401472 321.8262 
L 1136.732023 324.524276 
L 1138.062575 326.40535 
L 1139.393126 328.81487 
L 1140.723677 328.428358 
L 1142.054229 332.482508 
L 1143.38478 331.704949 
L 1144.715332 323.054281 
L 1146.045883 326.187203 
L 1147.376434 326.456229 
L 1148.706986 327.112729 
L 1150.037537 326.330491 
L 1151.368089 330.492001 
L 1152.69864 330.303162 
L 1154.029192 323.972052 
L 1155.359743 326.425472 
L 1156.690294 326.962381 
L 1158.020846 326.863441 
L 1159.351397 326.425286 
L 1160.681949 329.416023 
L 1162.0125 328.97361 
L 1163.343051 323.453169 
L 1164.673603 326.087261 
L 1166.004154 326.726206 
L 1167.334706 325.72679 
L 1168.665257 325.850205 
L 1169.995808 328.72185 
L 1171.32636 328.456618 
L 1172.656911 323.098496 
L 1173.987463 325.890373 
L 1175.318014 326.275744 
L 1176.648566 325.376484 
L 1177.979117 325.042268 
L 1179.309668 328.054446 
L 1180.64022 327.510849 
L 1181.970771 321.370081 
L 1183.301323 325.209854 
L 1184.631874 324.092006 
L 1185.962425 323.812741 
L 1187.292977 323.727038 
L 1188.623528 327.062013 
L 1189.95408 325.887111 
L 1191.284631 318.174217 
L 1192.615183 324.48674 
L 1193.945734 323.245237 
L 1195.276285 321.200529 
L 1196.606837 321.360622 
L 1197.937388 325.490314 
L 1199.26794 324.284714 
L 1200.598491 313.858964 
L 1201.929042 322.748322 
L 1203.259594 319.218473 
L 1204.590145 317.484649 
L 1205.920697 318.501656 
L 1207.251248 325.764606 
L 1208.5818 323.416843 
L 1209.912351 308.428346 
L 1211.242902 320.968922 
L 1212.573454 318.591541 
L 1213.904005 315.978243 
L 1215.234557 312.949278 
L 1216.565108 323.760213 
L 1217.895659 322.058214 
L 1219.226211 304.381598 
L 1220.556762 319.685862 
L 1221.887314 314.077668 
L 1223.217865 311.709345 
L 1224.548417 306.72231 
L 1225.878968 321.013953 
L 1227.209519 319.378462 
L 1228.540071 294.696096 
L 1229.870622 315.670205 
L 1231.201174 310.850759 
L 1232.531725 308.701903 
L 1233.862276 304.998814 
L 1235.192828 319.531217 
L 1236.523379 319.927068 
L 1237.853931 291.244291 
L 1239.184482 315.008262 
L 1240.515034 312.531885 
L 1241.845585 310.532968 
L 1243.176136 312.205264 
L 1244.506688 324.117046 
L 1245.837239 323.577107 
L 1247.167791 293.437129 
L 1248.498342 311.750057 
L 1249.828893 320.661163 
L 1251.159445 317.794243 
L 1252.489996 312.906497 
L 1253.820548 325.712041 
L 1255.151099 324.645037 
L 1256.481651 312.192385 
L 1257.812202 306.092881 
L 1259.142753 312.838986 
L 1260.473305 308.484826 
L 1261.803856 312.199193 
L 1263.134408 325.758533 
L 1264.464959 325.611347 
L 1265.79551 303.128764 
L 1267.126062 311.039755 
L 1268.456613 315.736094 
L 1269.787165 317.079112 
L 1271.117716 315.938629 
L 1272.448268 326.439812 
L 1273.778819 326.609675 
L 1275.10937 307.753128 
L 1276.439922 314.031531 
L 1277.770473 322.269325 
L 1279.101025 320.520061 
L 1280.431576 316.162493 
L 1281.762127 327.19475 
L 1283.092679 326.581647 
L 1285.753782 308.469704 
L 1287.084333 314.403901 
L 1289.745436 316.10508 
L 1291.075987 326.285915 
L 1292.406539 325.519436 
L 1293.73709 310.278803 
L 1295.067642 310.541943 
L 1296.398193 320.8553 
L 1297.728744 321.328996 
L 1299.059296 317.375877 
L 1300.389847 326.326906 
L 1301.720399 324.644689 
L 1303.05095 318.229399 
L 1304.381501 310.547766 
L 1305.712053 313.581285 
L 1307.042604 310.134725 
L 1307.042604 310.134725 
" clip-path="url(#p4ce989c999)" style="fill: none; stroke: #ffa500; stroke-width: 1.5; stroke-linecap: square"/>
   </g>
   <g id="line2d_19">
    <path d="M 1307.042604 310.134725 
L 1308.373156 312.778663 
L 1309.703707 323.494284 
L 1311.034259 323.131387 
L 1312.36481 305.853691 
L 1313.695361 307.881531 
L 1315.025913 312.435304 
L 1316.356464 310.592223 
L 1317.687016 311.8197 
L 1319.017567 320.711146 
L 1320.348118 320.561065 
L 1321.67867 306.240069 
L 1323.009221 307.908793 
L 1324.339773 311.679632 
" clip-path="url(#p4ce989c999)" style="fill: none; stroke: #ff0000; stroke-width: 1.5; stroke-linecap: square"/>
   </g>
   <g id="patch_3">
    <path d="M 46.0125 368.3955 
L 46.0125 35.7555 
" style="fill: none; stroke: #000000; stroke-width: 0.8; stroke-linejoin: miter; stroke-linecap: square"/>
   </g>
   <g id="patch_4">
    <path d="M 1385.2125 368.3955 
L 1385.2125 35.7555 
" style="fill: none; stroke: #000000; stroke-width: 0.8; stroke-linejoin: miter; stroke-linecap: square"/>
   </g>
   <g id="patch_5">
    <path d="M 46.0125 368.3955 
L 1385.2125 368.3955 
" style="fill: none; stroke: #000000; stroke-width: 0.8; stroke-linejoin: miter; stroke-linecap: square"/>
   </g>
   <g id="patch_6">
    <path d="M 46.0125 35.7555 
L 1385.2125 35.7555 
" style="fill: none; stroke: #000000; stroke-width: 0.8; stroke-linejoin: miter; stroke-linecap: square"/>
   </g>
   <g id="text_17">
    <!-- Daily Confirmed Cases Forecasting - Illinois -->
    <g transform="translate(586.075313 16.318125)scale(0.12 -0.12)">
     <defs>
      <path id="DejaVuSans-44" d="M 1259 4147 
L 1259 519 
L 2022 519 
Q 2988 519 3436 956 
Q 3884 1394 3884 2338 
Q 3884 3275 3436 3711 
Q 2988 4147 2022 4147 
L 1259 4147 
z
M 628 4666 
L 1925 4666 
Q 3281 4666 3915 4102 
Q 4550 3538 4550 2338 
Q 4550 1131 3912 565 
Q 3275 0 1925 0 
L 628 0 
L 628 4666 
z
" transform="scale(0.015625)"/>
      <path id="DejaVuSans-61" d="M 2194 1759 
Q 1497 1759 1228 1600 
Q 959 1441 959 1056 
Q 959 750 1161 570 
Q 1363 391 1709 391 
Q 2188 391 2477 730 
Q 2766 1069 2766 1631 
L 2766 1759 
L 2194 1759 
z
M 3341 1997 
L 3341 0 
L 2766 0 
L 2766 531 
Q 2569 213 2275 61 
Q 1981 -91 1556 -91 
Q 1019 -91 701 211 
Q 384 513 384 1019 
Q 384 1609 779 1909 
Q 1175 2209 1959 2209 
L 2766 2209 
L 2766 2266 
Q 2766 2663 2505 2880 
Q 2244 3097 1772 3097 
Q 1472 3097 1187 3025 
Q 903 2953 641 2809 
L 641 3341 
Q 956 3463 1253 3523 
Q 1550 3584 1831 3584 
Q 2591 3584 2966 3190 
Q 3341 2797 3341 1997 
z
" transform="scale(0.015625)"/>
      <path id="DejaVuSans-69" d="M 603 3500 
L 1178 3500 
L 1178 0 
L 603 0 
L 603 3500 
z
M 603 4863 
L 1178 4863 
L 1178 4134 
L 603 4134 
L 603 4863 
z
" transform="scale(0.015625)"/>
      <path id="DejaVuSans-6c" d="M 603 4863 
L 1178 4863 
L 1178 0 
L 603 0 
L 603 4863 
z
" transform="scale(0.015625)"/>
      <path id="DejaVuSans-79" d="M 2059 -325 
Q 1816 -950 1584 -1140 
Q 1353 -1331 966 -1331 
L 506 -1331 
L 506 -850 
L 844 -850 
Q 1081 -850 1212 -737 
Q 1344 -625 1503 -206 
L 1606 56 
L 191 3500 
L 800 3500 
L 1894 763 
L 2988 3500 
L 3597 3500 
L 2059 -325 
z
" transform="scale(0.015625)"/>
      <path id="DejaVuSans-20" transform="scale(0.015625)"/>
      <path id="DejaVuSans-43" d="M 4122 4306 
L 4122 3641 
Q 3803 3938 3442 4084 
Q 3081 4231 2675 4231 
Q 1875 4231 1450 3742 
Q 1025 3253 1025 2328 
Q 1025 1406 1450 917 
Q 1875 428 2675 428 
Q 3081 428 3442 575 
Q 3803 722 4122 1019 
L 4122 359 
Q 3791 134 3420 21 
Q 3050 -91 2638 -91 
Q 1578 -91 968 557 
Q 359 1206 359 2328 
Q 359 3453 968 4101 
Q 1578 4750 2638 4750 
Q 3056 4750 3426 4639 
Q 3797 4528 4122 4306 
z
" transform="scale(0.015625)"/>
      <path id="DejaVuSans-6f" d="M 1959 3097 
Q 1497 3097 1228 2736 
Q 959 2375 959 1747 
Q 959 1119 1226 758 
Q 1494 397 1959 397 
Q 2419 397 2687 759 
Q 2956 1122 2956 1747 
Q 2956 2369 2687 2733 
Q 2419 3097 1959 3097 
z
M 1959 3584 
Q 2709 3584 3137 3096 
Q 3566 2609 3566 1747 
Q 3566 888 3137 398 
Q 2709 -91 1959 -91 
Q 1206 -91 779 398 
Q 353 888 353 1747 
Q 353 2609 779 3096 
Q 1206 3584 1959 3584 
z
" transform="scale(0.015625)"/>
      <path id="DejaVuSans-6e" d="M 3513 2113 
L 3513 0 
L 2938 0 
L 2938 2094 
Q 2938 2591 2744 2837 
Q 2550 3084 2163 3084 
Q 1697 3084 1428 2787 
Q 1159 2491 1159 1978 
L 1159 0 
L 581 0 
L 581 3500 
L 1159 3500 
L 1159 2956 
Q 1366 3272 1645 3428 
Q 1925 3584 2291 3584 
Q 2894 3584 3203 3211 
Q 3513 2838 3513 2113 
z
" transform="scale(0.015625)"/>
      <path id="DejaVuSans-66" d="M 2375 4863 
L 2375 4384 
L 1825 4384 
Q 1516 4384 1395 4259 
Q 1275 4134 1275 3809 
L 1275 3500 
L 2222 3500 
L 2222 3053 
L 1275 3053 
L 1275 0 
L 697 0 
L 697 3053 
L 147 3053 
L 147 3500 
L 697 3500 
L 697 3744 
Q 697 4328 969 4595 
Q 1241 4863 1831 4863 
L 2375 4863 
z
" transform="scale(0.015625)"/>
      <path id="DejaVuSans-72" d="M 2631 2963 
Q 2534 3019 2420 3045 
Q 2306 3072 2169 3072 
Q 1681 3072 1420 2755 
Q 1159 2438 1159 1844 
L 1159 0 
L 581 0 
L 581 3500 
L 1159 3500 
L 1159 2956 
Q 1341 3275 1631 3429 
Q 1922 3584 2338 3584 
Q 2397 3584 2469 3576 
Q 2541 3569 2628 3553 
L 2631 2963 
z
" transform="scale(0.015625)"/>
      <path id="DejaVuSans-6d" d="M 3328 2828 
Q 3544 3216 3844 3400 
Q 4144 3584 4550 3584 
Q 5097 3584 5394 3201 
Q 5691 2819 5691 2113 
L 5691 0 
L 5113 0 
L 5113 2094 
Q 5113 2597 4934 2840 
Q 4756 3084 4391 3084 
Q 3944 3084 3684 2787 
Q 3425 2491 3425 1978 
L 3425 0 
L 2847 0 
L 2847 2094 
Q 2847 2600 2669 2842 
Q 2491 3084 2119 3084 
Q 1678 3084 1418 2786 
Q 1159 2488 1159 1978 
L 1159 0 
L 581 0 
L 581 3500 
L 1159 3500 
L 1159 2956 
Q 1356 3278 1631 3431 
Q 1906 3584 2284 3584 
Q 2666 3584 2933 3390 
Q 3200 3197 3328 2828 
z
" transform="scale(0.015625)"/>
      <path id="DejaVuSans-65" d="M 3597 1894 
L 3597 1613 
L 953 1613 
Q 991 1019 1311 708 
Q 1631 397 2203 397 
Q 2534 397 2845 478 
Q 3156 559 3463 722 
L 3463 178 
Q 3153 47 2828 -22 
Q 2503 -91 2169 -91 
Q 1331 -91 842 396 
Q 353 884 353 1716 
Q 353 2575 817 3079 
Q 1281 3584 2069 3584 
Q 2775 3584 3186 3129 
Q 3597 2675 3597 1894 
z
M 3022 2063 
Q 3016 2534 2758 2815 
Q 2500 3097 2075 3097 
Q 1594 3097 1305 2825 
Q 1016 2553 972 2059 
L 3022 2063 
z
" transform="scale(0.015625)"/>
      <path id="DejaVuSans-64" d="M 2906 2969 
L 2906 4863 
L 3481 4863 
L 3481 0 
L 2906 0 
L 2906 525 
Q 2725 213 2448 61 
Q 2172 -91 1784 -91 
Q 1150 -91 751 415 
Q 353 922 353 1747 
Q 353 2572 751 3078 
Q 1150 3584 1784 3584 
Q 2172 3584 2448 3432 
Q 2725 3281 2906 2969 
z
M 947 1747 
Q 947 1113 1208 752 
Q 1469 391 1925 391 
Q 2381 391 2643 752 
Q 2906 1113 2906 1747 
Q 2906 2381 2643 2742 
Q 2381 3103 1925 3103 
Q 1469 3103 1208 2742 
Q 947 2381 947 1747 
z
" transform="scale(0.015625)"/>
      <path id="DejaVuSans-73" d="M 2834 3397 
L 2834 2853 
Q 2591 2978 2328 3040 
Q 2066 3103 1784 3103 
Q 1356 3103 1142 2972 
Q 928 2841 928 2578 
Q 928 2378 1081 2264 
Q 1234 2150 1697 2047 
L 1894 2003 
Q 2506 1872 2764 1633 
Q 3022 1394 3022 966 
Q 3022 478 2636 193 
Q 2250 -91 1575 -91 
Q 1294 -91 989 -36 
Q 684 19 347 128 
L 347 722 
Q 666 556 975 473 
Q 1284 391 1588 391 
Q 1994 391 2212 530 
Q 2431 669 2431 922 
Q 2431 1156 2273 1281 
Q 2116 1406 1581 1522 
L 1381 1569 
Q 847 1681 609 1914 
Q 372 2147 372 2553 
Q 372 3047 722 3315 
Q 1072 3584 1716 3584 
Q 2034 3584 2315 3537 
Q 2597 3491 2834 3397 
z
" transform="scale(0.015625)"/>
      <path id="DejaVuSans-46" d="M 628 4666 
L 3309 4666 
L 3309 4134 
L 1259 4134 
L 1259 2759 
L 3109 2759 
L 3109 2228 
L 1259 2228 
L 1259 0 
L 628 0 
L 628 4666 
z
" transform="scale(0.015625)"/>
      <path id="DejaVuSans-63" d="M 3122 3366 
L 3122 2828 
Q 2878 2963 2633 3030 
Q 2388 3097 2138 3097 
Q 1578 3097 1268 2742 
Q 959 2388 959 1747 
Q 959 1106 1268 751 
Q 1578 397 2138 397 
Q 2388 397 2633 464 
Q 2878 531 3122 666 
L 3122 134 
Q 2881 22 2623 -34 
Q 2366 -91 2075 -91 
Q 1284 -91 818 406 
Q 353 903 353 1747 
Q 353 2603 823 3093 
Q 1294 3584 2113 3584 
Q 2378 3584 2631 3529 
Q 2884 3475 3122 3366 
z
" transform="scale(0.015625)"/>
      <path id="DejaVuSans-74" d="M 1172 4494 
L 1172 3500 
L 2356 3500 
L 2356 3053 
L 1172 3053 
L 1172 1153 
Q 1172 725 1289 603 
Q 1406 481 1766 481 
L 2356 481 
L 2356 0 
L 1766 0 
Q 1100 0 847 248 
Q 594 497 594 1153 
L 594 3053 
L 172 3053 
L 172 3500 
L 594 3500 
L 594 4494 
L 1172 4494 
z
" transform="scale(0.015625)"/>
      <path id="DejaVuSans-67" d="M 2906 1791 
Q 2906 2416 2648 2759 
Q 2391 3103 1925 3103 
Q 1463 3103 1205 2759 
Q 947 2416 947 1791 
Q 947 1169 1205 825 
Q 1463 481 1925 481 
Q 2391 481 2648 825 
Q 2906 1169 2906 1791 
z
M 3481 434 
Q 3481 -459 3084 -895 
Q 2688 -1331 1869 -1331 
Q 1566 -1331 1297 -1286 
Q 1028 -1241 775 -1147 
L 775 -588 
Q 1028 -725 1275 -790 
Q 1522 -856 1778 -856 
Q 2344 -856 2625 -561 
Q 2906 -266 2906 331 
L 2906 616 
Q 2728 306 2450 153 
Q 2172 0 1784 0 
Q 1141 0 747 490 
Q 353 981 353 1791 
Q 353 2603 747 3093 
Q 1141 3584 1784 3584 
Q 2172 3584 2450 3431 
Q 2728 3278 2906 2969 
L 2906 3500 
L 3481 3500 
L 3481 434 
z
" transform="scale(0.015625)"/>
      <path id="DejaVuSans-49" d="M 628 4666 
L 1259 4666 
L 1259 0 
L 628 0 
L 628 4666 
z
" transform="scale(0.015625)"/>
     </defs>
     <use xlink:href="#DejaVuSans-44"/>
     <use xlink:href="#DejaVuSans-61" x="77.001953"/>
     <use xlink:href="#DejaVuSans-69" x="138.28125"/>
     <use xlink:href="#DejaVuSans-6c" x="166.064453"/>
     <use xlink:href="#DejaVuSans-79" x="193.847656"/>
     <use xlink:href="#DejaVuSans-20" x="253.027344"/>
     <use xlink:href="#DejaVuSans-43" x="284.814453"/>
     <use xlink:href="#DejaVuSans-6f" x="354.638672"/>
     <use xlink:href="#DejaVuSans-6e" x="415.820312"/>
     <use xlink:href="#DejaVuSans-66" x="479.199219"/>
     <use xlink:href="#DejaVuSans-69" x="514.404297"/>
     <use xlink:href="#DejaVuSans-72" x="542.1875"/>
     <use xlink:href="#DejaVuSans-6d" x="581.550781"/>
     <use xlink:href="#DejaVuSans-65" x="678.962891"/>
     <use xlink:href="#DejaVuSans-64" x="740.486328"/>
     <use xlink:href="#DejaVuSans-20" x="803.962891"/>
     <use xlink:href="#DejaVuSans-43" x="835.75"/>
     <use xlink:href="#DejaVuSans-61" x="905.574219"/>
     <use xlink:href="#DejaVuSans-73" x="966.853516"/>
     <use xlink:href="#DejaVuSans-65" x="1018.953125"/>
     <use xlink:href="#DejaVuSans-73" x="1080.476562"/>
     <use xlink:href="#DejaVuSans-20" x="1132.576172"/>
     <use xlink:href="#DejaVuSans-46" x="1164.363281"/>
     <use xlink:href="#DejaVuSans-6f" x="1218.257812"/>
     <use xlink:href="#DejaVuSans-72" x="1279.439453"/>
     <use xlink:href="#DejaVuSans-65" x="1318.302734"/>
     <use xlink:href="#DejaVuSans-63" x="1379.826172"/>
     <use xlink:href="#DejaVuSans-61" x="1434.806641"/>
     <use xlink:href="#DejaVuSans-73" x="1496.085938"/>
     <use xlink:href="#DejaVuSans-74" x="1548.185547"/>
     <use xlink:href="#DejaVuSans-69" x="1587.394531"/>
     <use xlink:href="#DejaVuSans-6e" x="1615.177734"/>
     <use xlink:href="#DejaVuSans-67" x="1678.556641"/>
     <use xlink:href="#DejaVuSans-20" x="1742.033203"/>
     <use xlink:href="#DejaVuSans-2d" x="1773.820312"/>
     <use xlink:href="#DejaVuSans-20" x="1809.904297"/>
     <use xlink:href="#DejaVuSans-49" x="1841.691406"/>
     <use xlink:href="#DejaVuSans-6c" x="1871.183594"/>
     <use xlink:href="#DejaVuSans-6c" x="1898.966797"/>
     <use xlink:href="#DejaVuSans-69" x="1926.75"/>
     <use xlink:href="#DejaVuSans-6e" x="1954.533203"/>
     <use xlink:href="#DejaVuSans-6f" x="2017.912109"/>
     <use xlink:href="#DejaVuSans-69" x="2079.09375"/>
     <use xlink:href="#DejaVuSans-73" x="2106.876953"/>
    </g>
    <!-- ARIMA (2, 1, 1)x(1, 0, 1, 7) (R2 = -0.190259) -->
    <g transform="translate(581.46375 29.7555)scale(0.12 -0.12)">
     <defs>
      <path id="DejaVuSans-41" d="M 2188 4044 
L 1331 1722 
L 3047 1722 
L 2188 4044 
z
M 1831 4666 
L 2547 4666 
L 4325 0 
L 3669 0 
L 3244 1197 
L 1141 1197 
L 716 0 
L 50 0 
L 1831 4666 
z
" transform="scale(0.015625)"/>
      <path id="DejaVuSans-52" d="M 2841 2188 
Q 3044 2119 3236 1894 
Q 3428 1669 3622 1275 
L 4263 0 
L 3584 0 
L 2988 1197 
Q 2756 1666 2539 1819 
Q 2322 1972 1947 1972 
L 1259 1972 
L 1259 0 
L 628 0 
L 628 4666 
L 2053 4666 
Q 2853 4666 3247 4331 
Q 3641 3997 3641 3322 
Q 3641 2881 3436 2590 
Q 3231 2300 2841 2188 
z
M 1259 4147 
L 1259 2491 
L 2053 2491 
Q 2509 2491 2742 2702 
Q 2975 2913 2975 3322 
Q 2975 3731 2742 3939 
Q 2509 4147 2053 4147 
L 1259 4147 
z
" transform="scale(0.015625)"/>
      <path id="DejaVuSans-4d" d="M 628 4666 
L 1569 4666 
L 2759 1491 
L 3956 4666 
L 4897 4666 
L 4897 0 
L 4281 0 
L 4281 4097 
L 3078 897 
L 2444 897 
L 1241 4097 
L 1241 0 
L 628 0 
L 628 4666 
z
" transform="scale(0.015625)"/>
      <path id="DejaVuSans-28" d="M 1984 4856 
Q 1566 4138 1362 3434 
Q 1159 2731 1159 2009 
Q 1159 1288 1364 580 
Q 1569 -128 1984 -844 
L 1484 -844 
Q 1016 -109 783 600 
Q 550 1309 550 2009 
Q 550 2706 781 3412 
Q 1013 4119 1484 4856 
L 1984 4856 
z
" transform="scale(0.015625)"/>
      <path id="DejaVuSans-2c" d="M 750 794 
L 1409 794 
L 1409 256 
L 897 -744 
L 494 -744 
L 750 256 
L 750 794 
z
" transform="scale(0.015625)"/>
      <path id="DejaVuSans-29" d="M 513 4856 
L 1013 4856 
Q 1481 4119 1714 3412 
Q 1947 2706 1947 2009 
Q 1947 1309 1714 600 
Q 1481 -109 1013 -844 
L 513 -844 
Q 928 -128 1133 580 
Q 1338 1288 1338 2009 
Q 1338 2731 1133 3434 
Q 928 4138 513 4856 
z
" transform="scale(0.015625)"/>
      <path id="DejaVuSans-78" d="M 3513 3500 
L 2247 1797 
L 3578 0 
L 2900 0 
L 1881 1375 
L 863 0 
L 184 0 
L 1544 1831 
L 300 3500 
L 978 3500 
L 1906 2253 
L 2834 3500 
L 3513 3500 
z
" transform="scale(0.015625)"/>
      <path id="DejaVuSans-3d" d="M 678 2906 
L 4684 2906 
L 4684 2381 
L 678 2381 
L 678 2906 
z
M 678 1631 
L 4684 1631 
L 4684 1100 
L 678 1100 
L 678 1631 
z
" transform="scale(0.015625)"/>
      <path id="DejaVuSans-2e" d="M 684 794 
L 1344 794 
L 1344 0 
L 684 0 
L 684 794 
z
" transform="scale(0.015625)"/>
      <path id="DejaVuSans-39" d="M 703 97 
L 703 672 
Q 941 559 1184 500 
Q 1428 441 1663 441 
Q 2288 441 2617 861 
Q 2947 1281 2994 2138 
Q 2813 1869 2534 1725 
Q 2256 1581 1919 1581 
Q 1219 1581 811 2004 
Q 403 2428 403 3163 
Q 403 3881 828 4315 
Q 1253 4750 1959 4750 
Q 2769 4750 3195 4129 
Q 3622 3509 3622 2328 
Q 3622 1225 3098 567 
Q 2575 -91 1691 -91 
Q 1453 -91 1209 -44 
Q 966 3 703 97 
z
M 1959 2075 
Q 2384 2075 2632 2365 
Q 2881 2656 2881 3163 
Q 2881 3666 2632 3958 
Q 2384 4250 1959 4250 
Q 1534 4250 1286 3958 
Q 1038 3666 1038 3163 
Q 1038 2656 1286 2365 
Q 1534 2075 1959 2075 
z
" transform="scale(0.015625)"/>
      <path id="DejaVuSans-35" d="M 691 4666 
L 3169 4666 
L 3169 4134 
L 1269 4134 
L 1269 2991 
Q 1406 3038 1543 3061 
Q 1681 3084 1819 3084 
Q 2600 3084 3056 2656 
Q 3513 2228 3513 1497 
Q 3513 744 3044 326 
Q 2575 -91 1722 -91 
Q 1428 -91 1123 -41 
Q 819 9 494 109 
L 494 744 
Q 775 591 1075 516 
Q 1375 441 1709 441 
Q 2250 441 2565 725 
Q 2881 1009 2881 1497 
Q 2881 1984 2565 2268 
Q 2250 2553 1709 2553 
Q 1456 2553 1204 2497 
Q 953 2441 691 2322 
L 691 4666 
z
" transform="scale(0.015625)"/>
     </defs>
     <use xlink:href="#DejaVuSans-41"/>
     <use xlink:href="#DejaVuSans-52" x="68.408203"/>
     <use xlink:href="#DejaVuSans-49" x="137.890625"/>
     <use xlink:href="#DejaVuSans-4d" x="167.382812"/>
     <use xlink:href="#DejaVuSans-41" x="253.662109"/>
     <use xlink:href="#DejaVuSans-20" x="322.070312"/>
     <use xlink:href="#DejaVuSans-28" x="353.857422"/>
     <use xlink:href="#DejaVuSans-32" x="392.871094"/>
     <use xlink:href="#DejaVuSans-2c" x="456.494141"/>
     <use xlink:href="#DejaVuSans-20" x="488.28125"/>
     <use xlink:href="#DejaVuSans-31" x="520.068359"/>
     <use xlink:href="#DejaVuSans-2c" x="583.691406"/>
     <use xlink:href="#DejaVuSans-20" x="615.478516"/>
     <use xlink:href="#DejaVuSans-31" x="647.265625"/>
     <use xlink:href="#DejaVuSans-29" x="710.888672"/>
     <use xlink:href="#DejaVuSans-78" x="749.902344"/>
     <use xlink:href="#DejaVuSans-28" x="809.082031"/>
     <use xlink:href="#DejaVuSans-31" x="848.095703"/>
     <use xlink:href="#DejaVuSans-2c" x="911.71875"/>
     <use xlink:href="#DejaVuSans-20" x="943.505859"/>
     <use xlink:href="#DejaVuSans-30" x="975.292969"/>
     <use xlink:href="#DejaVuSans-2c" x="1038.916016"/>
     <use xlink:href="#DejaVuSans-20" x="1070.703125"/>
     <use xlink:href="#DejaVuSans-31" x="1102.490234"/>
     <use xlink:href="#DejaVuSans-2c" x="1166.113281"/>
     <use xlink:href="#DejaVuSans-20" x="1197.900391"/>
     <use xlink:href="#DejaVuSans-37" x="1229.6875"/>
     <use xlink:href="#DejaVuSans-29" x="1293.310547"/>
     <use xlink:href="#DejaVuSans-20" x="1332.324219"/>
     <use xlink:href="#DejaVuSans-28" x="1364.111328"/>
     <use xlink:href="#DejaVuSans-52" x="1403.125"/>
     <use xlink:href="#DejaVuSans-32" x="1472.607422"/>
     <use xlink:href="#DejaVuSans-20" x="1536.230469"/>
     <use xlink:href="#DejaVuSans-3d" x="1568.017578"/>
     <use xlink:href="#DejaVuSans-20" x="1651.806641"/>
     <use xlink:href="#DejaVuSans-2d" x="1683.59375"/>
     <use xlink:href="#DejaVuSans-30" x="1719.677734"/>
     <use xlink:href="#DejaVuSans-2e" x="1783.300781"/>
     <use xlink:href="#DejaVuSans-31" x="1815.087891"/>
     <use xlink:href="#DejaVuSans-39" x="1878.710938"/>
     <use xlink:href="#DejaVuSans-30" x="1942.333984"/>
     <use xlink:href="#DejaVuSans-32" x="2005.957031"/>
     <use xlink:href="#DejaVuSans-35" x="2069.580078"/>
     <use xlink:href="#DejaVuSans-39" x="2133.203125"/>
     <use xlink:href="#DejaVuSans-29" x="2196.826172"/>
    </g>
   </g>
   <g id="legend_1">
    <g id="patch_7">
     <path d="M 1281.132812 87.789875 
L 1378.2125 87.789875 
Q 1380.2125 87.789875 1380.2125 85.789875 
L 1380.2125 42.7555 
Q 1380.2125 40.7555 1378.2125 40.7555 
L 1281.132812 40.7555 
Q 1279.132812 40.7555 1279.132812 42.7555 
L 1279.132812 85.789875 
Q 1279.132812 87.789875 1281.132812 87.789875 
z
" style="fill: #ffffff; opacity: 0.8; stroke: #cccccc; stroke-linejoin: miter"/>
    </g>
    <g id="line2d_20">
     <path d="M 1283.132812 48.853937 
L 1293.132812 48.853937 
L 1303.132812 48.853937 
" style="fill: none; stroke: #0000ff; stroke-width: 1.5; stroke-linecap: square"/>
    </g>
    <g id="text_18">
     <!-- Actual Value -->
     <g transform="translate(1311.132812 52.353937)scale(0.1 -0.1)">
      <defs>
       <path id="DejaVuSans-75" d="M 544 1381 
L 544 3500 
L 1119 3500 
L 1119 1403 
Q 1119 906 1312 657 
Q 1506 409 1894 409 
Q 2359 409 2629 706 
Q 2900 1003 2900 1516 
L 2900 3500 
L 3475 3500 
L 3475 0 
L 2900 0 
L 2900 538 
Q 2691 219 2414 64 
Q 2138 -91 1772 -91 
Q 1169 -91 856 284 
Q 544 659 544 1381 
z
M 1991 3584 
L 1991 3584 
z
" transform="scale(0.015625)"/>
       <path id="DejaVuSans-56" d="M 1831 0 
L 50 4666 
L 709 4666 
L 2188 738 
L 3669 4666 
L 4325 4666 
L 2547 0 
L 1831 0 
z
" transform="scale(0.015625)"/>
      </defs>
      <use xlink:href="#DejaVuSans-41"/>
      <use xlink:href="#DejaVuSans-63" x="66.658203"/>
      <use xlink:href="#DejaVuSans-74" x="121.638672"/>
      <use xlink:href="#DejaVuSans-75" x="160.847656"/>
      <use xlink:href="#DejaVuSans-61" x="224.226562"/>
      <use xlink:href="#DejaVuSans-6c" x="285.505859"/>
      <use xlink:href="#DejaVuSans-20" x="313.289062"/>
      <use xlink:href="#DejaVuSans-56" x="345.076172"/>
      <use xlink:href="#DejaVuSans-61" x="405.734375"/>
      <use xlink:href="#DejaVuSans-6c" x="467.013672"/>
      <use xlink:href="#DejaVuSans-75" x="494.796875"/>
      <use xlink:href="#DejaVuSans-65" x="558.175781"/>
     </g>
    </g>
    <g id="line2d_21">
     <path d="M 1283.132812 63.532062 
L 1293.132812 63.532062 
L 1303.132812 63.532062 
" style="fill: none; stroke: #ffa500; stroke-width: 1.5; stroke-linecap: square"/>
    </g>
    <g id="text_19">
     <!-- Check Value -->
     <g transform="translate(1311.132812 67.032062)scale(0.1 -0.1)">
      <defs>
       <path id="DejaVuSans-68" d="M 3513 2113 
L 3513 0 
L 2938 0 
L 2938 2094 
Q 2938 2591 2744 2837 
Q 2550 3084 2163 3084 
Q 1697 3084 1428 2787 
Q 1159 2491 1159 1978 
L 1159 0 
L 581 0 
L 581 4863 
L 1159 4863 
L 1159 2956 
Q 1366 3272 1645 3428 
Q 1925 3584 2291 3584 
Q 2894 3584 3203 3211 
Q 3513 2838 3513 2113 
z
" transform="scale(0.015625)"/>
       <path id="DejaVuSans-6b" d="M 581 4863 
L 1159 4863 
L 1159 1991 
L 2875 3500 
L 3609 3500 
L 1753 1863 
L 3688 0 
L 2938 0 
L 1159 1709 
L 1159 0 
L 581 0 
L 581 4863 
z
" transform="scale(0.015625)"/>
      </defs>
      <use xlink:href="#DejaVuSans-43"/>
      <use xlink:href="#DejaVuSans-68" x="69.824219"/>
      <use xlink:href="#DejaVuSans-65" x="133.203125"/>
      <use xlink:href="#DejaVuSans-63" x="194.726562"/>
      <use xlink:href="#DejaVuSans-6b" x="249.707031"/>
      <use xlink:href="#DejaVuSans-20" x="307.617188"/>
      <use xlink:href="#DejaVuSans-56" x="339.404297"/>
      <use xlink:href="#DejaVuSans-61" x="400.0625"/>
      <use xlink:href="#DejaVuSans-6c" x="461.341797"/>
      <use xlink:href="#DejaVuSans-75" x="489.125"/>
      <use xlink:href="#DejaVuSans-65" x="552.503906"/>
     </g>
    </g>
    <g id="line2d_22">
     <path d="M 1283.132812 78.210187 
L 1293.132812 78.210187 
L 1303.132812 78.210187 
" style="fill: none; stroke: #ff0000; stroke-width: 1.5; stroke-linecap: square"/>
    </g>
    <g id="text_20">
     <!-- Predict Value -->
     <g transform="translate(1311.132812 81.710187)scale(0.1 -0.1)">
      <defs>
       <path id="DejaVuSans-50" d="M 1259 4147 
L 1259 2394 
L 2053 2394 
Q 2494 2394 2734 2622 
Q 2975 2850 2975 3272 
Q 2975 3691 2734 3919 
Q 2494 4147 2053 4147 
L 1259 4147 
z
M 628 4666 
L 2053 4666 
Q 2838 4666 3239 4311 
Q 3641 3956 3641 3272 
Q 3641 2581 3239 2228 
Q 2838 1875 2053 1875 
L 1259 1875 
L 1259 0 
L 628 0 
L 628 4666 
z
" transform="scale(0.015625)"/>
      </defs>
      <use xlink:href="#DejaVuSans-50"/>
      <use xlink:href="#DejaVuSans-72" x="58.552734"/>
      <use xlink:href="#DejaVuSans-65" x="97.416016"/>
      <use xlink:href="#DejaVuSans-64" x="158.939453"/>
      <use xlink:href="#DejaVuSans-69" x="222.416016"/>
      <use xlink:href="#DejaVuSans-63" x="250.199219"/>
      <use xlink:href="#DejaVuSans-74" x="305.179688"/>
      <use xlink:href="#DejaVuSans-20" x="344.388672"/>
      <use xlink:href="#DejaVuSans-56" x="376.175781"/>
      <use xlink:href="#DejaVuSans-61" x="436.833984"/>
      <use xlink:href="#DejaVuSans-6c" x="498.113281"/>
      <use xlink:href="#DejaVuSans-75" x="525.896484"/>
      <use xlink:href="#DejaVuSans-65" x="589.275391"/>
     </g>
    </g>
   </g>
  </g>
 </g>
 <defs>
  <clipPath id="p4ce989c999">
   <rect x="46.0125" y="35.7555" width="1339.2" height="332.64"/>
  </clipPath>
 </defs>
</svg>
