<?xml version="1.0" encoding="utf-8" standalone="no"?>
<!DOCTYPE svg PUBLIC "-//W3C//DTD SVG 1.1//EN"
  "http://www.w3.org/Graphics/SVG/1.1/DTD/svg11.dtd">
<svg xmlns:xlink="http://www.w3.org/1999/xlink" width="1398.775pt" height="392.273625pt" viewBox="0 0 1398.775 392.273625" xmlns="http://www.w3.org/2000/svg" version="1.1">
 <metadata>
  <rdf:RDF xmlns:dc="http://purl.org/dc/elements/1.1/" xmlns:cc="http://creativecommons.org/ns#" xmlns:rdf="http://www.w3.org/1999/02/22-rdf-syntax-ns#">
   <cc:Work>
    <dc:type rdf:resource="http://purl.org/dc/dcmitype/StillImage"/>
    <dc:date>2022-07-11T17:42:01.117714</dc:date>
    <dc:format>image/svg+xml</dc:format>
    <dc:creator>
     <cc:Agent>
      <dc:title>Matplotlib v3.5.2, https://matplotlib.org/</dc:title>
     </cc:Agent>
    </dc:creator>
   </cc:Work>
  </rdf:RDF>
 </metadata>
 <defs>
  <style type="text/css">*{stroke-linejoin: round; stroke-linecap: butt}</style>
 </defs>
 <g id="figure_1">
  <g id="patch_1">
   <path d="M 0 392.273625 
L 1398.775 392.273625 
L 1398.775 0 
L 0 0 
z
" style="fill: #ffffff"/>
  </g>
  <g id="axes_1">
   <g id="patch_2">
    <path d="M 52.375 368.3955 
L 1391.575 368.3955 
L 1391.575 35.7555 
L 52.375 35.7555 
z
" style="fill: #ffffff"/>
   </g>
   <g id="matplotlib.axis_1">
    <g id="xtick_1">
     <g id="line2d_1">
      <defs>
       <path id="mb7dd5597a8" d="M 0 0 
L 0 3.5 
" style="stroke: #000000; stroke-width: 0.8"/>
      </defs>
      <g>
       <use xlink:href="#mb7dd5597a8" x="83.879306" y="368.3955" style="stroke: #000000; stroke-width: 0.8"/>
      </g>
     </g>
     <g id="text_1">
      <!-- 2020-01 -->
      <g transform="translate(62.9879 382.993937)scale(0.1 -0.1)">
       <defs>
        <path id="DejaVuSans-32" d="M 1228 531 
L 3431 531 
L 3431 0 
L 469 0 
L 469 531 
Q 828 903 1448 1529 
Q 2069 2156 2228 2338 
Q 2531 2678 2651 2914 
Q 2772 3150 2772 3378 
Q 2772 3750 2511 3984 
Q 2250 4219 1831 4219 
Q 1534 4219 1204 4116 
Q 875 4013 500 3803 
L 500 4441 
Q 881 4594 1212 4672 
Q 1544 4750 1819 4750 
Q 2544 4750 2975 4387 
Q 3406 4025 3406 3419 
Q 3406 3131 3298 2873 
Q 3191 2616 2906 2266 
Q 2828 2175 2409 1742 
Q 1991 1309 1228 531 
z
" transform="scale(0.015625)"/>
        <path id="DejaVuSans-30" d="M 2034 4250 
Q 1547 4250 1301 3770 
Q 1056 3291 1056 2328 
Q 1056 1369 1301 889 
Q 1547 409 2034 409 
Q 2525 409 2770 889 
Q 3016 1369 3016 2328 
Q 3016 3291 2770 3770 
Q 2525 4250 2034 4250 
z
M 2034 4750 
Q 2819 4750 3233 4129 
Q 3647 3509 3647 2328 
Q 3647 1150 3233 529 
Q 2819 -91 2034 -91 
Q 1250 -91 836 529 
Q 422 1150 422 2328 
Q 422 3509 836 4129 
Q 1250 4750 2034 4750 
z
" transform="scale(0.015625)"/>
        <path id="DejaVuSans-2d" d="M 313 2009 
L 1997 2009 
L 1997 1497 
L 313 1497 
L 313 2009 
z
" transform="scale(0.015625)"/>
        <path id="DejaVuSans-31" d="M 794 531 
L 1825 531 
L 1825 4091 
L 703 3866 
L 703 4441 
L 1819 4666 
L 2450 4666 
L 2450 531 
L 3481 531 
L 3481 0 
L 794 0 
L 794 531 
z
" transform="scale(0.015625)"/>
       </defs>
       <use xlink:href="#DejaVuSans-32"/>
       <use xlink:href="#DejaVuSans-30" x="63.623047"/>
       <use xlink:href="#DejaVuSans-32" x="127.246094"/>
       <use xlink:href="#DejaVuSans-30" x="190.869141"/>
       <use xlink:href="#DejaVuSans-2d" x="254.492188"/>
       <use xlink:href="#DejaVuSans-30" x="290.576172"/>
       <use xlink:href="#DejaVuSans-31" x="354.199219"/>
      </g>
     </g>
    </g>
    <g id="xtick_2">
     <g id="line2d_2">
      <g>
       <use xlink:href="#mb7dd5597a8" x="205.357775" y="368.3955" style="stroke: #000000; stroke-width: 0.8"/>
      </g>
     </g>
     <g id="text_2">
      <!-- 2020-04 -->
      <g transform="translate(184.466369 382.993937)scale(0.1 -0.1)">
       <defs>
        <path id="DejaVuSans-34" d="M 2419 4116 
L 825 1625 
L 2419 1625 
L 2419 4116 
z
M 2253 4666 
L 3047 4666 
L 3047 1625 
L 3713 1625 
L 3713 1100 
L 3047 1100 
L 3047 0 
L 2419 0 
L 2419 1100 
L 313 1100 
L 313 1709 
L 2253 4666 
z
" transform="scale(0.015625)"/>
       </defs>
       <use xlink:href="#DejaVuSans-32"/>
       <use xlink:href="#DejaVuSans-30" x="63.623047"/>
       <use xlink:href="#DejaVuSans-32" x="127.246094"/>
       <use xlink:href="#DejaVuSans-30" x="190.869141"/>
       <use xlink:href="#DejaVuSans-2d" x="254.492188"/>
       <use xlink:href="#DejaVuSans-30" x="290.576172"/>
       <use xlink:href="#DejaVuSans-34" x="354.199219"/>
      </g>
     </g>
    </g>
    <g id="xtick_3">
     <g id="line2d_3">
      <g>
       <use xlink:href="#mb7dd5597a8" x="326.836244" y="368.3955" style="stroke: #000000; stroke-width: 0.8"/>
      </g>
     </g>
     <g id="text_3">
      <!-- 2020-07 -->
      <g transform="translate(305.944838 382.993937)scale(0.1 -0.1)">
       <defs>
        <path id="DejaVuSans-37" d="M 525 4666 
L 3525 4666 
L 3525 4397 
L 1831 0 
L 1172 0 
L 2766 4134 
L 525 4134 
L 525 4666 
z
" transform="scale(0.015625)"/>
       </defs>
       <use xlink:href="#DejaVuSans-32"/>
       <use xlink:href="#DejaVuSans-30" x="63.623047"/>
       <use xlink:href="#DejaVuSans-32" x="127.246094"/>
       <use xlink:href="#DejaVuSans-30" x="190.869141"/>
       <use xlink:href="#DejaVuSans-2d" x="254.492188"/>
       <use xlink:href="#DejaVuSans-30" x="290.576172"/>
       <use xlink:href="#DejaVuSans-37" x="354.199219"/>
      </g>
     </g>
    </g>
    <g id="xtick_4">
     <g id="line2d_4">
      <g>
       <use xlink:href="#mb7dd5597a8" x="449.649641" y="368.3955" style="stroke: #000000; stroke-width: 0.8"/>
      </g>
     </g>
     <g id="text_4">
      <!-- 2020-10 -->
      <g transform="translate(428.758235 382.993937)scale(0.1 -0.1)">
       <use xlink:href="#DejaVuSans-32"/>
       <use xlink:href="#DejaVuSans-30" x="63.623047"/>
       <use xlink:href="#DejaVuSans-32" x="127.246094"/>
       <use xlink:href="#DejaVuSans-30" x="190.869141"/>
       <use xlink:href="#DejaVuSans-2d" x="254.492188"/>
       <use xlink:href="#DejaVuSans-31" x="290.576172"/>
       <use xlink:href="#DejaVuSans-30" x="354.199219"/>
      </g>
     </g>
    </g>
    <g id="xtick_5">
     <g id="line2d_5">
      <g>
       <use xlink:href="#mb7dd5597a8" x="572.463038" y="368.3955" style="stroke: #000000; stroke-width: 0.8"/>
      </g>
     </g>
     <g id="text_5">
      <!-- 2021-01 -->
      <g transform="translate(551.571632 382.993937)scale(0.1 -0.1)">
       <use xlink:href="#DejaVuSans-32"/>
       <use xlink:href="#DejaVuSans-30" x="63.623047"/>
       <use xlink:href="#DejaVuSans-32" x="127.246094"/>
       <use xlink:href="#DejaVuSans-31" x="190.869141"/>
       <use xlink:href="#DejaVuSans-2d" x="254.492188"/>
       <use xlink:href="#DejaVuSans-30" x="290.576172"/>
       <use xlink:href="#DejaVuSans-31" x="354.199219"/>
      </g>
     </g>
    </g>
    <g id="xtick_6">
     <g id="line2d_6">
      <g>
       <use xlink:href="#mb7dd5597a8" x="692.606579" y="368.3955" style="stroke: #000000; stroke-width: 0.8"/>
      </g>
     </g>
     <g id="text_6">
      <!-- 2021-04 -->
      <g transform="translate(671.715173 382.993937)scale(0.1 -0.1)">
       <use xlink:href="#DejaVuSans-32"/>
       <use xlink:href="#DejaVuSans-30" x="63.623047"/>
       <use xlink:href="#DejaVuSans-32" x="127.246094"/>
       <use xlink:href="#DejaVuSans-31" x="190.869141"/>
       <use xlink:href="#DejaVuSans-2d" x="254.492188"/>
       <use xlink:href="#DejaVuSans-30" x="290.576172"/>
       <use xlink:href="#DejaVuSans-34" x="354.199219"/>
      </g>
     </g>
    </g>
    <g id="xtick_7">
     <g id="line2d_7">
      <g>
       <use xlink:href="#mb7dd5597a8" x="814.085048" y="368.3955" style="stroke: #000000; stroke-width: 0.8"/>
      </g>
     </g>
     <g id="text_7">
      <!-- 2021-07 -->
      <g transform="translate(793.193642 382.993937)scale(0.1 -0.1)">
       <use xlink:href="#DejaVuSans-32"/>
       <use xlink:href="#DejaVuSans-30" x="63.623047"/>
       <use xlink:href="#DejaVuSans-32" x="127.246094"/>
       <use xlink:href="#DejaVuSans-31" x="190.869141"/>
       <use xlink:href="#DejaVuSans-2d" x="254.492188"/>
       <use xlink:href="#DejaVuSans-30" x="290.576172"/>
       <use xlink:href="#DejaVuSans-37" x="354.199219"/>
      </g>
     </g>
    </g>
    <g id="xtick_8">
     <g id="line2d_8">
      <g>
       <use xlink:href="#mb7dd5597a8" x="936.898445" y="368.3955" style="stroke: #000000; stroke-width: 0.8"/>
      </g>
     </g>
     <g id="text_8">
      <!-- 2021-10 -->
      <g transform="translate(916.007039 382.993937)scale(0.1 -0.1)">
       <use xlink:href="#DejaVuSans-32"/>
       <use xlink:href="#DejaVuSans-30" x="63.623047"/>
       <use xlink:href="#DejaVuSans-32" x="127.246094"/>
       <use xlink:href="#DejaVuSans-31" x="190.869141"/>
       <use xlink:href="#DejaVuSans-2d" x="254.492188"/>
       <use xlink:href="#DejaVuSans-31" x="290.576172"/>
       <use xlink:href="#DejaVuSans-30" x="354.199219"/>
      </g>
     </g>
    </g>
    <g id="xtick_9">
     <g id="line2d_9">
      <g>
       <use xlink:href="#mb7dd5597a8" x="1059.711842" y="368.3955" style="stroke: #000000; stroke-width: 0.8"/>
      </g>
     </g>
     <g id="text_9">
      <!-- 2022-01 -->
      <g transform="translate(1038.820436 382.993937)scale(0.1 -0.1)">
       <use xlink:href="#DejaVuSans-32"/>
       <use xlink:href="#DejaVuSans-30" x="63.623047"/>
       <use xlink:href="#DejaVuSans-32" x="127.246094"/>
       <use xlink:href="#DejaVuSans-32" x="190.869141"/>
       <use xlink:href="#DejaVuSans-2d" x="254.492188"/>
       <use xlink:href="#DejaVuSans-30" x="290.576172"/>
       <use xlink:href="#DejaVuSans-31" x="354.199219"/>
      </g>
     </g>
    </g>
    <g id="xtick_10">
     <g id="line2d_10">
      <g>
       <use xlink:href="#mb7dd5597a8" x="1179.855383" y="368.3955" style="stroke: #000000; stroke-width: 0.8"/>
      </g>
     </g>
     <g id="text_10">
      <!-- 2022-04 -->
      <g transform="translate(1158.963977 382.993937)scale(0.1 -0.1)">
       <use xlink:href="#DejaVuSans-32"/>
       <use xlink:href="#DejaVuSans-30" x="63.623047"/>
       <use xlink:href="#DejaVuSans-32" x="127.246094"/>
       <use xlink:href="#DejaVuSans-32" x="190.869141"/>
       <use xlink:href="#DejaVuSans-2d" x="254.492188"/>
       <use xlink:href="#DejaVuSans-30" x="290.576172"/>
       <use xlink:href="#DejaVuSans-34" x="354.199219"/>
      </g>
     </g>
    </g>
    <g id="xtick_11">
     <g id="line2d_11">
      <g>
       <use xlink:href="#mb7dd5597a8" x="1301.333852" y="368.3955" style="stroke: #000000; stroke-width: 0.8"/>
      </g>
     </g>
     <g id="text_11">
      <!-- 2022-07 -->
      <g transform="translate(1280.442445 382.993937)scale(0.1 -0.1)">
       <use xlink:href="#DejaVuSans-32"/>
       <use xlink:href="#DejaVuSans-30" x="63.623047"/>
       <use xlink:href="#DejaVuSans-32" x="127.246094"/>
       <use xlink:href="#DejaVuSans-32" x="190.869141"/>
       <use xlink:href="#DejaVuSans-2d" x="254.492188"/>
       <use xlink:href="#DejaVuSans-30" x="290.576172"/>
       <use xlink:href="#DejaVuSans-37" x="354.199219"/>
      </g>
     </g>
    </g>
   </g>
   <g id="matplotlib.axis_2">
    <g id="ytick_1">
     <g id="line2d_12">
      <defs>
       <path id="mdca2e66773" d="M 0 0 
L -3.5 0 
" style="stroke: #000000; stroke-width: 0.8"/>
      </defs>
      <g>
       <use xlink:href="#mdca2e66773" x="52.375" y="338.2891" style="stroke: #000000; stroke-width: 0.8"/>
      </g>
     </g>
     <g id="text_12">
      <!-- 0 -->
      <g transform="translate(39.0125 342.088319)scale(0.1 -0.1)">
       <use xlink:href="#DejaVuSans-30"/>
      </g>
     </g>
    </g>
    <g id="ytick_2">
     <g id="line2d_13">
      <g>
       <use xlink:href="#mdca2e66773" x="52.375" y="280.182901" style="stroke: #000000; stroke-width: 0.8"/>
      </g>
     </g>
     <g id="text_13">
      <!-- 20000 -->
      <g transform="translate(13.5625 283.98212)scale(0.1 -0.1)">
       <use xlink:href="#DejaVuSans-32"/>
       <use xlink:href="#DejaVuSans-30" x="63.623047"/>
       <use xlink:href="#DejaVuSans-30" x="127.246094"/>
       <use xlink:href="#DejaVuSans-30" x="190.869141"/>
       <use xlink:href="#DejaVuSans-30" x="254.492188"/>
      </g>
     </g>
    </g>
    <g id="ytick_3">
     <g id="line2d_14">
      <g>
       <use xlink:href="#mdca2e66773" x="52.375" y="222.076701" style="stroke: #000000; stroke-width: 0.8"/>
      </g>
     </g>
     <g id="text_14">
      <!-- 40000 -->
      <g transform="translate(13.5625 225.87592)scale(0.1 -0.1)">
       <use xlink:href="#DejaVuSans-34"/>
       <use xlink:href="#DejaVuSans-30" x="63.623047"/>
       <use xlink:href="#DejaVuSans-30" x="127.246094"/>
       <use xlink:href="#DejaVuSans-30" x="190.869141"/>
       <use xlink:href="#DejaVuSans-30" x="254.492188"/>
      </g>
     </g>
    </g>
    <g id="ytick_4">
     <g id="line2d_15">
      <g>
       <use xlink:href="#mdca2e66773" x="52.375" y="163.970502" style="stroke: #000000; stroke-width: 0.8"/>
      </g>
     </g>
     <g id="text_15">
      <!-- 60000 -->
      <g transform="translate(13.5625 167.76972)scale(0.1 -0.1)">
       <defs>
        <path id="DejaVuSans-36" d="M 2113 2584 
Q 1688 2584 1439 2293 
Q 1191 2003 1191 1497 
Q 1191 994 1439 701 
Q 1688 409 2113 409 
Q 2538 409 2786 701 
Q 3034 994 3034 1497 
Q 3034 2003 2786 2293 
Q 2538 2584 2113 2584 
z
M 3366 4563 
L 3366 3988 
Q 3128 4100 2886 4159 
Q 2644 4219 2406 4219 
Q 1781 4219 1451 3797 
Q 1122 3375 1075 2522 
Q 1259 2794 1537 2939 
Q 1816 3084 2150 3084 
Q 2853 3084 3261 2657 
Q 3669 2231 3669 1497 
Q 3669 778 3244 343 
Q 2819 -91 2113 -91 
Q 1303 -91 875 529 
Q 447 1150 447 2328 
Q 447 3434 972 4092 
Q 1497 4750 2381 4750 
Q 2619 4750 2861 4703 
Q 3103 4656 3366 4563 
z
" transform="scale(0.015625)"/>
       </defs>
       <use xlink:href="#DejaVuSans-36"/>
       <use xlink:href="#DejaVuSans-30" x="63.623047"/>
       <use xlink:href="#DejaVuSans-30" x="127.246094"/>
       <use xlink:href="#DejaVuSans-30" x="190.869141"/>
       <use xlink:href="#DejaVuSans-30" x="254.492188"/>
      </g>
     </g>
    </g>
    <g id="ytick_5">
     <g id="line2d_16">
      <g>
       <use xlink:href="#mdca2e66773" x="52.375" y="105.864302" style="stroke: #000000; stroke-width: 0.8"/>
      </g>
     </g>
     <g id="text_16">
      <!-- 80000 -->
      <g transform="translate(13.5625 109.663521)scale(0.1 -0.1)">
       <defs>
        <path id="DejaVuSans-38" d="M 2034 2216 
Q 1584 2216 1326 1975 
Q 1069 1734 1069 1313 
Q 1069 891 1326 650 
Q 1584 409 2034 409 
Q 2484 409 2743 651 
Q 3003 894 3003 1313 
Q 3003 1734 2745 1975 
Q 2488 2216 2034 2216 
z
M 1403 2484 
Q 997 2584 770 2862 
Q 544 3141 544 3541 
Q 544 4100 942 4425 
Q 1341 4750 2034 4750 
Q 2731 4750 3128 4425 
Q 3525 4100 3525 3541 
Q 3525 3141 3298 2862 
Q 3072 2584 2669 2484 
Q 3125 2378 3379 2068 
Q 3634 1759 3634 1313 
Q 3634 634 3220 271 
Q 2806 -91 2034 -91 
Q 1263 -91 848 271 
Q 434 634 434 1313 
Q 434 1759 690 2068 
Q 947 2378 1403 2484 
z
M 1172 3481 
Q 1172 3119 1398 2916 
Q 1625 2713 2034 2713 
Q 2441 2713 2670 2916 
Q 2900 3119 2900 3481 
Q 2900 3844 2670 4047 
Q 2441 4250 2034 4250 
Q 1625 4250 1398 4047 
Q 1172 3844 1172 3481 
z
" transform="scale(0.015625)"/>
       </defs>
       <use xlink:href="#DejaVuSans-38"/>
       <use xlink:href="#DejaVuSans-30" x="63.623047"/>
       <use xlink:href="#DejaVuSans-30" x="127.246094"/>
       <use xlink:href="#DejaVuSans-30" x="190.869141"/>
       <use xlink:href="#DejaVuSans-30" x="254.492188"/>
      </g>
     </g>
    </g>
    <g id="ytick_6">
     <g id="line2d_17">
      <g>
       <use xlink:href="#mdca2e66773" x="52.375" y="47.758102" style="stroke: #000000; stroke-width: 0.8"/>
      </g>
     </g>
     <g id="text_17">
      <!-- 100000 -->
      <g transform="translate(7.2 51.557321)scale(0.1 -0.1)">
       <use xlink:href="#DejaVuSans-31"/>
       <use xlink:href="#DejaVuSans-30" x="63.623047"/>
       <use xlink:href="#DejaVuSans-30" x="127.246094"/>
       <use xlink:href="#DejaVuSans-30" x="190.869141"/>
       <use xlink:href="#DejaVuSans-30" x="254.492188"/>
       <use xlink:href="#DejaVuSans-30" x="318.115234"/>
      </g>
     </g>
    </g>
   </g>
   <g id="line2d_18">
    <path d="M 113.247727 338.2891 
L 185.333852 338.248426 
L 189.338636 337.832967 
L 190.673565 337.841683 
L 192.008493 336.819013 
L 193.343421 337.350685 
L 194.678349 336.871309 
L 197.348206 336.650506 
L 200.018062 335.261767 
L 201.35299 335.781818 
L 202.687919 335.238525 
L 204.022847 334.953804 
L 205.357775 333.158323 
L 206.692703 333.893366 
L 208.027632 332.504628 
L 209.36256 333.890461 
L 212.032416 333.780059 
L 213.367344 332.989815 
L 214.702273 334.128696 
L 217.372129 335.436086 
L 218.707057 334.741717 
L 220.041986 336.304774 
L 221.376914 334.108359 
L 222.711842 334.16356 
L 225.381699 335.900936 
L 226.716627 334.631315 
L 228.051555 335.947421 
L 229.386483 336.380312 
L 230.721411 336.441323 
L 232.05634 336.185656 
L 233.391268 334.3495 
L 234.726196 334.102549 
L 236.061124 333.974715 
L 237.396053 336.955563 
L 238.730981 336.107213 
L 240.065909 336.853877 
L 241.400837 335.000289 
L 242.735766 334.764959 
L 244.070694 335.096165 
L 245.405622 335.250146 
L 246.74055 335.674321 
L 248.075478 336.479092 
L 249.410407 337.414602 
L 252.080263 335.895125 
L 253.415191 336.330921 
L 254.75012 336.086875 
L 256.085048 336.819013 
L 257.419976 337.097923 
L 258.754904 336.705706 
L 260.089833 336.452944 
L 261.424761 336.673748 
L 262.759689 334.372742 
L 264.094617 336.420986 
L 265.429545 336.821919 
L 266.764474 336.406459 
L 268.099402 335.697564 
L 269.43433 336.516861 
L 270.769258 335.79925 
L 272.104187 336.354164 
L 273.439115 336.676653 
L 274.774043 336.827729 
L 277.4439 337.6325 
L 278.778828 337.263526 
L 280.113756 336.493619 
L 281.448684 336.766718 
L 282.783612 336.205993 
L 284.118541 337.150219 
L 285.453469 336.87712 
L 286.788397 337.658648 
L 289.458254 337.077586 
L 290.793182 337.353591 
L 292.12811 335.842829 
L 293.463038 338.018907 
L 294.797967 338.129308 
L 296.132895 337.896883 
L 298.802751 338.245521 
L 300.137679 337.513383 
L 302.807536 337.81263 
L 304.142464 337.655743 
L 305.477392 338.199036 
L 306.812321 337.754523 
L 310.817105 337.420413 
L 312.152033 336.987521 
L 313.486962 337.806819 
L 314.82189 337.574394 
L 316.156818 337.591826 
L 317.491746 337.248999 
L 318.826675 337.028196 
L 320.161603 337.301295 
L 321.496531 337.272242 
L 322.831459 337.513383 
L 324.166388 337.484329 
L 325.501316 336.821919 
L 326.836244 337.240283 
L 328.171172 336.577873 
L 330.841029 337.109544 
L 333.510885 337.341969 
L 334.845813 336.450039 
L 336.180742 336.397744 
L 337.51567 336.801582 
L 338.850598 336.481998 
L 340.185526 336.298963 
L 341.520455 337.109544 
L 342.855383 337.06306 
L 344.190311 336.354164 
L 345.525239 335.24143 
L 346.860167 335.598783 
L 348.195096 336.098497 
L 349.530024 336.124644 
L 350.864952 336.749286 
L 352.19988 336.758002 
L 353.534809 336.359975 
L 356.204665 336.252478 
L 358.874522 336.69118 
L 360.20945 335.270483 
L 361.544378 336.801582 
L 364.214234 335.337305 
L 365.549163 335.944515 
L 368.219019 336.086875 
L 369.553947 337.051438 
L 372.223804 335.961947 
L 373.558732 336.203088 
L 376.228589 335.924178 
L 377.563517 336.194372 
L 378.898445 336.73476 
L 380.233373 336.604021 
L 381.568301 335.653984 
L 382.90323 336.906173 
L 384.238158 334.898604 
L 385.573086 335.767291 
L 386.908014 335.215282 
L 388.242943 336.903267 
L 389.577871 336.865498 
L 390.912799 336.391933 
L 392.247727 336.287342 
L 393.582656 336.758002 
L 394.917584 338.2891 
L 396.252512 334.146128 
L 397.58744 336.069444 
L 398.922368 335.738238 
L 400.257297 335.526151 
L 401.592225 335.839924 
L 402.927153 335.781818 
L 404.262081 335.98519 
L 405.59701 338.2891 
L 406.931938 334.250719 
L 408.266866 336.839351 
L 409.601794 335.979379 
L 410.936722 336.406459 
L 412.271651 336.04039 
L 413.606579 335.229809 
L 414.941507 335.685943 
L 416.276435 338.2891 
L 417.611364 334.767865 
L 418.946292 336.839351 
L 420.28122 335.47095 
L 421.616148 335.459328 
L 422.951077 334.20714 
L 424.286005 335.944515 
L 425.620933 338.2891 
L 426.955861 334.718474 
L 428.290789 336.287342 
L 429.625718 336.063633 
L 430.960646 335.441897 
L 433.630502 336.583683 
L 434.965431 338.2891 
L 436.300359 333.713237 
L 437.635287 336.26991 
L 440.305144 335.157176 
L 442.975 335.395412 
L 444.309928 338.2891 
L 445.644856 334.427943 
L 446.979785 335.040964 
L 448.314713 334.82016 
L 449.649641 335.389601 
L 450.984569 335.430275 
L 452.319498 334.58483 
L 453.654426 338.2891 
L 454.989354 334.061874 
L 456.324282 334.945089 
L 457.659211 334.759149 
L 458.994139 334.218761 
L 460.329067 334.445375 
L 461.663995 333.533108 
L 462.998923 338.2891 
L 464.333852 332.644083 
L 465.66878 334.029916 
L 467.003708 333.660942 
L 468.338636 331.147848 
L 471.008493 332.519155 
L 472.343421 338.2891 
L 473.678349 329.520875 
L 475.013278 332.853265 
L 476.348206 332.832928 
L 477.683134 331.885797 
L 479.018062 332.344836 
L 480.35299 328.149569 
L 481.687919 338.2891 
L 483.022847 326.502258 
L 484.357775 330.517396 
L 485.692703 327.859038 
L 487.027632 326.351182 
L 488.36256 328.570838 
L 489.697488 326.615565 
L 491.032416 338.2891 
L 492.367344 318.184355 
L 493.702273 328.30355 
L 495.037201 325.514452 
L 496.372129 320.557994 
L 497.707057 325.953154 
L 499.041986 319.218646 
L 500.376914 338.2891 
L 501.711842 311.458563 
L 503.04677 318.114628 
L 504.381699 319.055948 
L 505.716627 317.048379 
L 507.051555 311.62126 
L 508.386483 316.702647 
L 509.721411 338.2891 
L 511.05634 300.04941 
L 512.391268 315.377826 
L 513.726196 320.223883 
L 515.061124 315.096011 
L 516.396053 308.829257 
L 517.730981 315.51147 
L 519.065909 338.2891 
L 520.400837 303.590983 
L 521.735766 318.585288 
L 523.070694 324.671912 
L 524.405622 338.2891 
L 525.74055 287.829677 
L 528.410407 338.2891 
L 529.745335 306.940806 
L 531.080263 319.372627 
L 532.415191 316.693931 
L 533.75012 315.171549 
L 535.085048 310.906554 
L 536.419976 319.962405 
L 537.754904 338.2891 
L 539.089833 309.747335 
L 540.424761 318.893251 
L 541.759689 322.768934 
L 543.094617 319.979837 
L 544.429545 321.943826 
L 545.764474 324.305843 
L 547.099402 338.2891 
L 548.43433 316.147733 
L 549.769258 322.626574 
L 551.104187 324.796841 
L 552.439115 325.096088 
L 553.774043 325.160005 
L 555.108971 326.141999 
L 556.4439 338.2891 
L 557.778828 323.591137 
L 559.113756 328.079841 
L 560.448684 327.190816 
L 561.783612 338.2891 
L 563.118541 338.2891 
L 564.453469 315.403974 
L 565.788397 338.2891 
L 567.123325 327.97525 
L 568.458254 326.775357 
L 569.793182 324.395908 
L 571.12811 338.2891 
L 572.463038 338.2891 
L 573.797967 310.688656 
L 575.132895 338.2891 
L 576.467823 322.338949 
L 577.802751 329.483106 
L 579.137679 324.180915 
L 580.472608 325.944438 
L 581.807536 326.935149 
L 583.142464 329.869512 
L 584.477392 338.2891 
L 585.812321 323.387765 
L 587.147249 331.118795 
L 588.482177 329.201291 
L 589.817105 328.716104 
L 591.152033 329.570265 
L 592.486962 331.86546 
L 593.82189 338.2891 
L 595.156818 328.576649 
L 596.491746 333.800396 
L 597.826675 329.00373 
L 599.161603 330.988056 
L 600.496531 330.915424 
L 601.831459 332.984004 
L 603.166388 338.2891 
L 604.501316 328.565028 
L 605.836244 332.260582 
L 607.171172 332.289635 
L 608.5061 331.737626 
L 609.841029 332.074642 
L 611.175957 333.899177 
L 612.510885 338.2891 
L 613.845813 330.816643 
L 615.180742 334.125791 
L 616.51567 333.300683 
L 617.850598 332.812591 
L 619.185526 333.193187 
L 620.520455 334.843403 
L 621.855383 338.2891 
L 623.190311 332.106601 
L 624.525239 335.622026 
L 625.860167 334.689421 
L 627.195096 333.910798 
L 628.530024 333.82945 
L 629.864952 335.546488 
L 631.19988 338.2891 
L 632.534809 334.07059 
L 633.869737 335.023532 
L 635.204665 334.686516 
L 636.539593 334.799823 
L 637.874522 334.009579 
L 639.20945 335.89803 
L 640.544378 338.2891 
L 641.879306 333.469191 
L 643.214234 333.106027 
L 644.549163 333.762627 
L 645.884091 333.646415 
L 647.219019 334.637126 
L 648.553947 334.149034 
L 649.888876 338.2891 
L 651.223804 332.870697 
L 652.558732 333.518581 
L 653.89366 333.335547 
L 655.228589 332.981099 
L 656.563517 333.08569 
L 657.898445 333.373316 
L 659.233373 338.2891 
L 660.568301 331.656278 
L 661.90323 333.82945 
L 663.238158 330.497059 
L 664.573086 330.825359 
L 665.908014 329.735868 
L 667.242943 332.469764 
L 668.577871 338.2891 
L 669.912799 327.167574 
L 671.247727 330.799211 
L 672.582656 327.292502 
L 673.917584 329.227439 
L 675.252512 325.456346 
L 676.58744 328.832316 
L 677.922368 338.2891 
L 679.257297 321.531272 
L 680.592225 325.098993 
L 683.262081 321.313374 
L 684.59701 320.677111 
L 685.931938 323.05075 
L 687.266866 338.2891 
L 688.601794 311.449847 
L 689.936722 319.968216 
L 691.271651 317.641062 
L 692.606579 317.66721 
L 693.941507 320.418539 
L 695.276435 311.29296 
L 696.611364 338.2891 
L 697.946292 306.092455 
L 699.28122 320.424349 
L 700.616148 311.069251 
L 701.951077 313.480658 
L 703.286005 312.623592 
L 704.620933 316.385968 
L 705.955861 338.2891 
L 707.290789 307.629364 
L 708.625718 308.43123 
L 709.960646 311.127357 
L 711.295574 317.397016 
L 712.630502 309.671797 
L 713.965431 320.636437 
L 715.300359 338.2891 
L 716.635287 311.644503 
L 717.970215 319.111149 
L 719.305144 320.935684 
L 720.640072 322.277937 
L 721.975 321.903152 
L 723.309928 323.169867 
L 724.644856 338.2891 
L 725.979785 317.719506 
L 727.314713 324.971159 
L 728.649641 323.928153 
L 729.984569 326.095514 
L 731.319498 327.065888 
L 732.654426 327.516211 
L 733.989354 338.2891 
L 735.324282 322.144293 
L 736.659211 329.224533 
L 737.994139 329.436621 
L 739.329067 326.33956 
L 741.998923 330.802117 
L 743.333852 338.2891 
L 744.66878 329.610939 
L 746.003708 330.537733 
L 747.338636 330.255918 
L 748.673565 331.403516 
L 750.008493 332.182139 
L 751.343421 333.957283 
L 752.678349 338.2891 
L 754.013278 330.805022 
L 755.348206 333.82945 
L 756.683134 332.623746 
L 758.018062 333.727764 
L 759.35299 334.631315 
L 760.687919 334.785297 
L 762.022847 338.2891 
L 763.357775 333.817828 
L 764.692703 335.462234 
L 766.027632 335.223998 
L 767.36256 336.441323 
L 768.697488 336.156603 
L 770.032416 336.635979 
L 771.367344 338.2891 
L 772.702273 338.2891 
L 774.037201 335.430275 
L 775.372129 336.845161 
L 778.041986 336.679559 
L 779.376914 337.042722 
L 780.711842 338.2891 
L 782.04677 336.946847 
L 783.381699 337.237378 
L 784.716627 337.400075 
L 786.051555 337.237378 
L 787.386483 337.333253 
L 788.721411 337.620879 
L 790.05634 338.2891 
L 791.391268 337.158935 
L 792.726196 337.649932 
L 794.061124 337.647027 
L 796.730981 337.835872 
L 798.065909 338.2891 
L 799.400837 338.2891 
L 800.735766 337.248999 
L 802.070694 337.899789 
L 803.405622 337.603447 
L 804.74055 337.780671 
L 806.075478 338.094445 
L 807.410407 338.2891 
L 808.745335 338.2891 
L 810.080263 337.266431 
L 811.415191 337.591826 
L 812.75012 337.394265 
L 815.419976 337.899789 
L 816.754904 338.2891 
L 819.424761 338.2891 
L 820.759689 336.74057 
L 822.094617 338.2891 
L 823.429545 338.2891 
L 824.764474 335.857356 
L 826.099402 338.2891 
L 828.769258 338.2891 
L 830.104187 336.130455 
L 831.439115 338.2891 
L 832.774043 338.2891 
L 834.108971 335.546488 
L 835.4439 338.2891 
L 838.113756 338.2891 
L 839.448684 334.808539 
L 840.783612 338.2891 
L 842.118541 338.2891 
L 843.453469 333.262914 
L 844.788397 338.2891 
L 847.458254 338.2891 
L 848.793182 332.278014 
L 850.12811 338.2891 
L 851.463038 338.2891 
L 852.797967 330.511586 
L 854.132895 338.2891 
L 856.802751 338.2891 
L 858.137679 329.628371 
L 859.472608 338.2891 
L 860.807536 338.2891 
L 862.142464 325.174531 
L 863.477392 338.2891 
L 864.812321 338.2891 
L 866.147249 329.340746 
L 867.482177 338.2891 
L 868.817105 328.637661 
L 870.152033 338.2891 
L 871.486962 327.751541 
L 872.82189 338.2891 
L 874.156818 338.2891 
L 875.491746 326.987445 
L 876.826675 338.2891 
L 878.161603 328.68124 
L 879.496531 338.2891 
L 880.831459 324.209968 
L 882.166388 338.2891 
L 883.501316 338.2891 
L 884.836244 325.839847 
L 886.171172 338.2891 
L 887.5061 323.196015 
L 888.841029 338.2891 
L 890.175957 325.052508 
L 891.510885 338.2891 
L 892.845813 338.2891 
L 894.180742 321.920584 
L 895.51567 338.2891 
L 896.850598 322.809609 
L 898.185526 338.2891 
L 899.520455 322.9142 
L 900.855383 338.2891 
L 903.525239 338.2891 
L 904.860167 318.219219 
L 907.530024 338.2891 
L 908.864952 317.888014 
L 910.19988 338.2891 
L 911.534809 338.2891 
L 912.869737 317.954836 
L 914.204665 338.2891 
L 915.539593 315.752611 
L 916.874522 338.2891 
L 918.20945 318.864198 
L 919.544378 338.2891 
L 920.879306 338.2891 
L 922.214234 314.456843 
L 923.549163 338.2891 
L 924.884091 315.865918 
L 926.219019 338.2891 
L 927.553947 317.699169 
L 928.888876 338.2891 
L 930.223804 338.2891 
L 931.558732 312.957703 
L 932.89366 338.2891 
L 934.228589 313.030335 
L 935.563517 338.2891 
L 936.898445 311.109925 
L 938.233373 338.2891 
L 939.568301 338.2891 
L 940.90323 309.761862 
L 942.238158 338.2891 
L 943.573086 310.194753 
L 944.908014 338.2891 
L 946.242943 308.881553 
L 947.577871 338.2891 
L 948.912799 338.2891 
L 950.247727 309.758956 
L 951.582656 338.2891 
L 952.917584 306.690949 
L 954.252512 338.2891 
L 955.58744 309.267959 
L 956.922368 338.2891 
L 958.257297 338.2891 
L 959.592225 311.1506 
L 960.927153 338.2891 
L 962.262081 312.754331 
L 963.59701 338.2891 
L 964.931938 311.624165 
L 966.266866 338.2891 
L 967.601794 338.2891 
L 968.936722 313.384783 
L 970.271651 338.2891 
L 971.606579 309.857737 
L 972.941507 338.2891 
L 974.276435 310.043677 
L 975.611364 338.2891 
L 976.946292 338.2891 
L 978.28122 308.030297 
L 979.616148 338.2891 
L 980.951077 303.489297 
L 982.286005 338.2891 
L 983.620933 302.963436 
L 984.955861 338.2891 
L 986.290789 338.2891 
L 987.625718 309.035534 
L 988.960646 338.2891 
L 990.295574 311.080872 
L 991.630502 338.2891 
L 992.965431 286.635594 
L 994.300359 338.2891 
L 995.635287 338.2891 
L 996.970215 270.981784 
L 998.305144 338.2891 
L 999.640072 286.275336 
L 1000.975 338.2891 
L 1002.309928 278.785447 
L 1003.644856 338.2891 
L 1004.979785 338.2891 
L 1006.314713 283.750621 
L 1007.649641 338.2891 
L 1008.984569 280.069594 
L 1010.319498 338.2891 
L 1014.324282 338.2891 
L 1015.659211 257.454661 
L 1016.994139 338.2891 
L 1018.329067 280.473432 
L 1019.663995 338.2891 
L 1020.998923 273.291505 
L 1022.333852 338.2891 
L 1023.66878 338.2891 
L 1025.003708 286.510666 
L 1026.338636 338.2891 
L 1027.673565 284.125406 
L 1029.008493 338.2891 
L 1030.343421 298.230686 
L 1031.678349 338.2891 
L 1033.013278 338.2891 
L 1034.348206 286.809913 
L 1035.683134 338.2891 
L 1037.018062 296.504932 
L 1038.35299 338.2891 
L 1039.687919 296.272507 
L 1041.022847 338.2891 
L 1042.357775 338.2891 
L 1043.692703 294.067377 
L 1045.027632 338.2891 
L 1046.36256 291.176594 
L 1047.697488 338.2891 
L 1051.702273 338.2891 
L 1053.037201 235.243566 
L 1054.372129 338.2891 
L 1055.707057 253.224529 
L 1057.041986 338.2891 
L 1061.04677 338.2891 
L 1062.381699 147.825694 
L 1063.716627 338.2891 
L 1065.051555 242.832236 
L 1066.386483 338.2891 
L 1067.721411 201.971956 
L 1069.05634 338.2891 
L 1070.391268 338.2891 
L 1071.726196 195.083466 
L 1073.061124 338.2891 
L 1074.396053 234.398121 
L 1075.730981 338.2891 
L 1077.065909 212.349723 
L 1078.400837 338.2891 
L 1082.405622 338.2891 
L 1083.74055 50.8755 
L 1085.075478 338.2891 
L 1086.410407 218.581613 
L 1087.745335 338.175793 
L 1089.080263 338.2891 
L 1090.415191 210.042907 
L 1091.75012 338.2891 
L 1093.085048 235.79267 
L 1094.419976 338.2891 
L 1095.754904 246.673055 
L 1097.089833 338.2891 
L 1098.424761 338.2891 
L 1099.759689 270.638957 
L 1101.094617 338.2891 
L 1102.429545 266.978267 
L 1103.764474 338.2891 
L 1105.099402 303.309168 
L 1106.43433 338.2891 
L 1107.769258 338.2891 
L 1109.104187 306.031444 
L 1110.439115 338.2891 
L 1111.774043 307.149988 
L 1113.108971 338.2891 
L 1114.4439 315.096011 
L 1115.778828 338.2891 
L 1117.113756 338.2891 
L 1118.448684 320.136724 
L 1119.783612 338.2891 
L 1121.118541 319.974026 
L 1122.453469 338.2891 
L 1123.788397 321.528367 
L 1125.123325 338.326869 
L 1129.12811 338.2891 
L 1130.463038 317.062906 
L 1131.797967 338.2891 
L 1133.132895 316.537045 
L 1134.467823 338.2891 
L 1135.802751 338.2891 
L 1137.137679 331.188523 
L 1138.472608 338.2891 
L 1139.807536 329.224533 
L 1141.142464 338.2891 
L 1142.477392 331.583645 
L 1143.812321 338.2891 
L 1145.147249 338.2891 
L 1146.482177 332.882318 
L 1147.817105 338.2891 
L 1149.152033 331.999104 
L 1150.486962 338.2891 
L 1151.82189 332.667326 
L 1153.156818 338.2891 
L 1154.491746 338.2891 
L 1155.826675 333.79168 
L 1157.161603 338.2891 
L 1158.496531 332.205381 
L 1159.831459 338.2891 
L 1161.166388 329.547023 
L 1162.501316 338.2891 
L 1163.836244 338.2891 
L 1165.171172 333.303588 
L 1166.5061 338.2891 
L 1167.841029 332.356457 
L 1169.175957 338.2891 
L 1170.510885 332.795159 
L 1171.845813 338.2891 
L 1173.180742 338.2891 
L 1174.51567 334.082211 
L 1175.850598 338.2891 
L 1177.185526 332.52206 
L 1178.520455 338.2891 
L 1179.855383 332.52206 
L 1181.190311 338.2891 
L 1185.195096 338.2891 
L 1186.530024 327.36804 
L 1187.864952 338.2891 
L 1194.539593 338.2891 
L 1195.874522 315.845581 
L 1197.20945 338.2891 
L 1203.884091 338.2891 
L 1205.219019 307.858884 
L 1206.553947 338.2891 
L 1213.228589 338.2891 
L 1214.563517 296.214401 
L 1215.898445 338.2891 
L 1222.573086 338.2891 
L 1223.908014 283.248003 
L 1225.242943 338.2891 
L 1231.917584 338.2891 
L 1233.252512 257.797487 
L 1234.58744 338.2891 
L 1241.262081 338.2891 
L 1242.59701 253.259393 
L 1243.931938 338.2891 
L 1250.606579 338.2891 
L 1251.941507 262.844011 
L 1253.276435 338.2891 
L 1259.951077 338.2891 
L 1261.286005 281.53387 
L 1262.620933 338.2891 
L 1269.295574 338.2891 
L 1270.630502 284.677415 
L 1271.965431 338.2891 
L 1278.640072 338.2891 
L 1279.975 293.030181 
L 1281.309928 338.2891 
L 1287.984569 338.2891 
L 1289.319498 307.257484 
L 1290.654426 338.2891 
L 1295.994139 338.2891 
L 1297.329067 296.589186 
L 1298.663995 338.2891 
L 1305.338636 338.2891 
L 1306.673565 300.223729 
L 1308.008493 338.2891 
L 1313.348206 338.2891 
L 1313.348206 338.2891 
" clip-path="url(#p0213a20a60)" style="fill: none; stroke: #0000ff; stroke-width: 1.5; stroke-linecap: square"/>
   </g>
   <g id="line2d_19">
    <path d="M 1074.396053 310.734016 
L 1075.730981 237.233257 
L 1077.065909 317.60292 
L 1078.400837 313.164106 
L 1079.735766 203.513042 
L 1081.070694 304.380234 
L 1082.405622 236.17756 
L 1083.74055 328.840373 
L 1085.075478 258.906218 
L 1086.410407 346.200183 
L 1087.745335 303.532018 
L 1089.080263 274.106415 
L 1090.415191 313.088228 
L 1091.75012 139.652104 
L 1093.085048 314.63933 
L 1094.419976 210.958173 
L 1095.754904 308.816071 
L 1097.089833 327.983541 
L 1098.424761 250.904685 
L 1099.759689 330.473122 
L 1101.094617 223.36572 
L 1102.429545 331.214668 
L 1103.764474 258.571902 
L 1105.099402 333.919364 
L 1106.43433 342.663441 
L 1107.769258 282.119394 
L 1109.104187 348.21804 
L 1110.439115 275.722714 
L 1111.774043 343.742853 
L 1113.108971 306.750866 
L 1114.4439 346.546894 
L 1115.778828 353.2755 
L 1117.113756 315.238911 
L 1118.448684 351.543771 
L 1119.783612 311.103189 
L 1121.118541 346.828186 
L 1122.453469 323.820627 
L 1123.788397 347.059642 
L 1125.123325 349.64243 
L 1126.458254 327.166759 
L 1127.793182 346.770611 
L 1129.12811 324.130422 
L 1130.463038 344.657601 
L 1131.797967 330.864329 
L 1133.132895 346.294465 
L 1134.467823 344.906774 
L 1135.802751 337.370408 
L 1137.137679 341.887235 
L 1138.472608 323.336494 
L 1139.807536 340.287734 
L 1141.142464 323.285352 
L 1142.477392 339.257581 
L 1143.812321 340.987991 
L 1145.147249 334.895198 
L 1146.482177 342.142098 
L 1147.817105 331.156836 
L 1149.152033 340.745809 
L 1150.486962 331.762468 
L 1151.82189 339.980667 
L 1153.156818 340.533549 
L 1154.491746 335.547555 
L 1155.826675 340.452474 
L 1157.161603 333.562439 
L 1158.496531 339.763955 
L 1159.831459 333.881118 
L 1161.166388 339.504071 
L 1162.501316 339.325998 
L 1163.836244 335.305666 
L 1165.171172 338.450185 
L 1166.5061 333.159717 
L 1167.841029 338.407195 
L 1169.175957 331.762692 
L 1170.510885 338.118993 
L 1171.845813 338.031049 
L 1173.180742 334.261253 
L 1174.51567 338.310132 
L 1175.850598 333.535381 
L 1177.185526 338.34667 
L 1178.520455 333.359057 
L 1179.855383 338.288297 
L 1181.190311 338.078174 
L 1182.525239 334.694757 
L 1183.860167 337.786696 
L 1185.195096 333.40729 
L 1186.530024 338.364384 
L 1187.864952 334.322406 
L 1189.19988 338.48636 
L 1190.534809 337.30658 
L 1191.869737 336.462972 
L 1193.204665 338.471528 
L 1194.539593 331.271254 
L 1195.874522 339.244417 
L 1197.20945 337.587935 
L 1198.544378 338.658778 
L 1199.879306 335.680787 
L 1201.214234 335.80928 
L 1202.549163 336.752529 
L 1203.884091 322.896737 
L 1205.219019 338.093656 
L 1206.553947 337.445305 
L 1207.888876 337.771488 
L 1209.223804 334.721249 
L 1210.558732 335.227018 
L 1211.89366 335.905636 
L 1213.228589 315.813441 
L 1214.563517 337.780027 
L 1215.898445 337.342176 
L 1217.233373 337.401519 
L 1218.568301 333.39159 
L 1221.238158 334.93005 
L 1222.573086 306.85818 
L 1223.908014 337.357917 
L 1225.242943 336.979357 
L 1226.577871 336.981808 
L 1227.912799 332.11055 
L 1229.247727 333.143777 
L 1230.582656 334.027285 
L 1231.917584 296.717639 
L 1233.252512 337.578655 
L 1234.58744 336.883106 
L 1235.922368 336.726924 
L 1237.257297 328.800192 
L 1238.592225 330.398247 
L 1239.927153 331.734285 
L 1241.262081 278.416402 
L 1242.59701 335.370018 
L 1243.931938 335.279289 
L 1245.266866 335.499429 
L 1246.601794 330.066662 
L 1247.936722 331.453005 
L 1249.271651 332.6078 
L 1250.606579 271.675339 
L 1251.941507 335.076331 
L 1254.611364 335.726815 
L 1255.946292 333.544707 
L 1257.28122 334.344868 
L 1258.616148 335.010757 
L 1259.951077 276.450851 
L 1261.286005 335.89957 
L 1263.955861 336.697389 
L 1265.290789 337.42072 
L 1267.960646 337.689085 
L 1269.295574 289.446218 
L 1270.630502 338.151649 
L 1273.300359 338.061129 
L 1274.635287 337.083541 
L 1277.305144 337.456031 
L 1278.640072 294.243533 
L 1279.975 337.813703 
L 1282.644856 337.912465 
L 1283.979785 337.608389 
L 1286.649641 337.818708 
L 1287.984569 300.515153 
L 1289.319498 337.629832 
L 1291.989354 337.993875 
L 1293.324282 339.268768 
L 1295.994139 338.966094 
L 1297.329067 313.050899 
L 1298.663995 338.317873 
L 1299.998923 338.447282 
L 1301.333852 330.643138 
L 1302.66878 337.333022 
L 1304.003708 337.494322 
L 1305.338636 315.514479 
L 1306.673565 329.938074 
L 1308.008493 337.773394 
L 1309.343421 337.872584 
L 1310.678349 334.948107 
L 1312.013278 337.178542 
L 1313.348206 337.365905 
L 1313.348206 337.365905 
" clip-path="url(#p0213a20a60)" style="fill: none; stroke: #ffa500; stroke-width: 1.5; stroke-linecap: square"/>
   </g>
   <g id="line2d_20">
    <path d="M 1313.348206 337.365905 
L 1314.683134 310.55793 
L 1316.018062 335.04462 
L 1317.35299 337.817229 
L 1318.687919 337.725832 
L 1320.022847 337.697418 
L 1321.357775 337.701879 
L 1322.692703 337.234691 
L 1324.027632 314.679967 
L 1325.36256 335.174717 
L 1326.697488 337.465278 
L 1328.032416 337.418636 
L 1329.367344 337.404809 
L 1330.702273 337.407122 
" clip-path="url(#p0213a20a60)" style="fill: none; stroke: #ff0000; stroke-width: 1.5; stroke-linecap: square"/>
   </g>
   <g id="patch_3">
    <path d="M 52.375 368.3955 
L 52.375 35.7555 
" style="fill: none; stroke: #000000; stroke-width: 0.8; stroke-linejoin: miter; stroke-linecap: square"/>
   </g>
   <g id="patch_4">
    <path d="M 1391.575 368.3955 
L 1391.575 35.7555 
" style="fill: none; stroke: #000000; stroke-width: 0.8; stroke-linejoin: miter; stroke-linecap: square"/>
   </g>
   <g id="patch_5">
    <path d="M 52.375 368.3955 
L 1391.575 368.3955 
" style="fill: none; stroke: #000000; stroke-width: 0.8; stroke-linejoin: miter; stroke-linecap: square"/>
   </g>
   <g id="patch_6">
    <path d="M 52.375 35.7555 
L 1391.575 35.7555 
" style="fill: none; stroke: #000000; stroke-width: 0.8; stroke-linejoin: miter; stroke-linecap: square"/>
   </g>
   <g id="text_18">
    <!-- Daily Confirmed Cases Forecasting - Michigan -->
    <g transform="translate(584.574063 16.318125)scale(0.12 -0.12)">
     <defs>
      <path id="DejaVuSans-44" d="M 1259 4147 
L 1259 519 
L 2022 519 
Q 2988 519 3436 956 
Q 3884 1394 3884 2338 
Q 3884 3275 3436 3711 
Q 2988 4147 2022 4147 
L 1259 4147 
z
M 628 4666 
L 1925 4666 
Q 3281 4666 3915 4102 
Q 4550 3538 4550 2338 
Q 4550 1131 3912 565 
Q 3275 0 1925 0 
L 628 0 
L 628 4666 
z
" transform="scale(0.015625)"/>
      <path id="DejaVuSans-61" d="M 2194 1759 
Q 1497 1759 1228 1600 
Q 959 1441 959 1056 
Q 959 750 1161 570 
Q 1363 391 1709 391 
Q 2188 391 2477 730 
Q 2766 1069 2766 1631 
L 2766 1759 
L 2194 1759 
z
M 3341 1997 
L 3341 0 
L 2766 0 
L 2766 531 
Q 2569 213 2275 61 
Q 1981 -91 1556 -91 
Q 1019 -91 701 211 
Q 384 513 384 1019 
Q 384 1609 779 1909 
Q 1175 2209 1959 2209 
L 2766 2209 
L 2766 2266 
Q 2766 2663 2505 2880 
Q 2244 3097 1772 3097 
Q 1472 3097 1187 3025 
Q 903 2953 641 2809 
L 641 3341 
Q 956 3463 1253 3523 
Q 1550 3584 1831 3584 
Q 2591 3584 2966 3190 
Q 3341 2797 3341 1997 
z
" transform="scale(0.015625)"/>
      <path id="DejaVuSans-69" d="M 603 3500 
L 1178 3500 
L 1178 0 
L 603 0 
L 603 3500 
z
M 603 4863 
L 1178 4863 
L 1178 4134 
L 603 4134 
L 603 4863 
z
" transform="scale(0.015625)"/>
      <path id="DejaVuSans-6c" d="M 603 4863 
L 1178 4863 
L 1178 0 
L 603 0 
L 603 4863 
z
" transform="scale(0.015625)"/>
      <path id="DejaVuSans-79" d="M 2059 -325 
Q 1816 -950 1584 -1140 
Q 1353 -1331 966 -1331 
L 506 -1331 
L 506 -850 
L 844 -850 
Q 1081 -850 1212 -737 
Q 1344 -625 1503 -206 
L 1606 56 
L 191 3500 
L 800 3500 
L 1894 763 
L 2988 3500 
L 3597 3500 
L 2059 -325 
z
" transform="scale(0.015625)"/>
      <path id="DejaVuSans-20" transform="scale(0.015625)"/>
      <path id="DejaVuSans-43" d="M 4122 4306 
L 4122 3641 
Q 3803 3938 3442 4084 
Q 3081 4231 2675 4231 
Q 1875 4231 1450 3742 
Q 1025 3253 1025 2328 
Q 1025 1406 1450 917 
Q 1875 428 2675 428 
Q 3081 428 3442 575 
Q 3803 722 4122 1019 
L 4122 359 
Q 3791 134 3420 21 
Q 3050 -91 2638 -91 
Q 1578 -91 968 557 
Q 359 1206 359 2328 
Q 359 3453 968 4101 
Q 1578 4750 2638 4750 
Q 3056 4750 3426 4639 
Q 3797 4528 4122 4306 
z
" transform="scale(0.015625)"/>
      <path id="DejaVuSans-6f" d="M 1959 3097 
Q 1497 3097 1228 2736 
Q 959 2375 959 1747 
Q 959 1119 1226 758 
Q 1494 397 1959 397 
Q 2419 397 2687 759 
Q 2956 1122 2956 1747 
Q 2956 2369 2687 2733 
Q 2419 3097 1959 3097 
z
M 1959 3584 
Q 2709 3584 3137 3096 
Q 3566 2609 3566 1747 
Q 3566 888 3137 398 
Q 2709 -91 1959 -91 
Q 1206 -91 779 398 
Q 353 888 353 1747 
Q 353 2609 779 3096 
Q 1206 3584 1959 3584 
z
" transform="scale(0.015625)"/>
      <path id="DejaVuSans-6e" d="M 3513 2113 
L 3513 0 
L 2938 0 
L 2938 2094 
Q 2938 2591 2744 2837 
Q 2550 3084 2163 3084 
Q 1697 3084 1428 2787 
Q 1159 2491 1159 1978 
L 1159 0 
L 581 0 
L 581 3500 
L 1159 3500 
L 1159 2956 
Q 1366 3272 1645 3428 
Q 1925 3584 2291 3584 
Q 2894 3584 3203 3211 
Q 3513 2838 3513 2113 
z
" transform="scale(0.015625)"/>
      <path id="DejaVuSans-66" d="M 2375 4863 
L 2375 4384 
L 1825 4384 
Q 1516 4384 1395 4259 
Q 1275 4134 1275 3809 
L 1275 3500 
L 2222 3500 
L 2222 3053 
L 1275 3053 
L 1275 0 
L 697 0 
L 697 3053 
L 147 3053 
L 147 3500 
L 697 3500 
L 697 3744 
Q 697 4328 969 4595 
Q 1241 4863 1831 4863 
L 2375 4863 
z
" transform="scale(0.015625)"/>
      <path id="DejaVuSans-72" d="M 2631 2963 
Q 2534 3019 2420 3045 
Q 2306 3072 2169 3072 
Q 1681 3072 1420 2755 
Q 1159 2438 1159 1844 
L 1159 0 
L 581 0 
L 581 3500 
L 1159 3500 
L 1159 2956 
Q 1341 3275 1631 3429 
Q 1922 3584 2338 3584 
Q 2397 3584 2469 3576 
Q 2541 3569 2628 3553 
L 2631 2963 
z
" transform="scale(0.015625)"/>
      <path id="DejaVuSans-6d" d="M 3328 2828 
Q 3544 3216 3844 3400 
Q 4144 3584 4550 3584 
Q 5097 3584 5394 3201 
Q 5691 2819 5691 2113 
L 5691 0 
L 5113 0 
L 5113 2094 
Q 5113 2597 4934 2840 
Q 4756 3084 4391 3084 
Q 3944 3084 3684 2787 
Q 3425 2491 3425 1978 
L 3425 0 
L 2847 0 
L 2847 2094 
Q 2847 2600 2669 2842 
Q 2491 3084 2119 3084 
Q 1678 3084 1418 2786 
Q 1159 2488 1159 1978 
L 1159 0 
L 581 0 
L 581 3500 
L 1159 3500 
L 1159 2956 
Q 1356 3278 1631 3431 
Q 1906 3584 2284 3584 
Q 2666 3584 2933 3390 
Q 3200 3197 3328 2828 
z
" transform="scale(0.015625)"/>
      <path id="DejaVuSans-65" d="M 3597 1894 
L 3597 1613 
L 953 1613 
Q 991 1019 1311 708 
Q 1631 397 2203 397 
Q 2534 397 2845 478 
Q 3156 559 3463 722 
L 3463 178 
Q 3153 47 2828 -22 
Q 2503 -91 2169 -91 
Q 1331 -91 842 396 
Q 353 884 353 1716 
Q 353 2575 817 3079 
Q 1281 3584 2069 3584 
Q 2775 3584 3186 3129 
Q 3597 2675 3597 1894 
z
M 3022 2063 
Q 3016 2534 2758 2815 
Q 2500 3097 2075 3097 
Q 1594 3097 1305 2825 
Q 1016 2553 972 2059 
L 3022 2063 
z
" transform="scale(0.015625)"/>
      <path id="DejaVuSans-64" d="M 2906 2969 
L 2906 4863 
L 3481 4863 
L 3481 0 
L 2906 0 
L 2906 525 
Q 2725 213 2448 61 
Q 2172 -91 1784 -91 
Q 1150 -91 751 415 
Q 353 922 353 1747 
Q 353 2572 751 3078 
Q 1150 3584 1784 3584 
Q 2172 3584 2448 3432 
Q 2725 3281 2906 2969 
z
M 947 1747 
Q 947 1113 1208 752 
Q 1469 391 1925 391 
Q 2381 391 2643 752 
Q 2906 1113 2906 1747 
Q 2906 2381 2643 2742 
Q 2381 3103 1925 3103 
Q 1469 3103 1208 2742 
Q 947 2381 947 1747 
z
" transform="scale(0.015625)"/>
      <path id="DejaVuSans-73" d="M 2834 3397 
L 2834 2853 
Q 2591 2978 2328 3040 
Q 2066 3103 1784 3103 
Q 1356 3103 1142 2972 
Q 928 2841 928 2578 
Q 928 2378 1081 2264 
Q 1234 2150 1697 2047 
L 1894 2003 
Q 2506 1872 2764 1633 
Q 3022 1394 3022 966 
Q 3022 478 2636 193 
Q 2250 -91 1575 -91 
Q 1294 -91 989 -36 
Q 684 19 347 128 
L 347 722 
Q 666 556 975 473 
Q 1284 391 1588 391 
Q 1994 391 2212 530 
Q 2431 669 2431 922 
Q 2431 1156 2273 1281 
Q 2116 1406 1581 1522 
L 1381 1569 
Q 847 1681 609 1914 
Q 372 2147 372 2553 
Q 372 3047 722 3315 
Q 1072 3584 1716 3584 
Q 2034 3584 2315 3537 
Q 2597 3491 2834 3397 
z
" transform="scale(0.015625)"/>
      <path id="DejaVuSans-46" d="M 628 4666 
L 3309 4666 
L 3309 4134 
L 1259 4134 
L 1259 2759 
L 3109 2759 
L 3109 2228 
L 1259 2228 
L 1259 0 
L 628 0 
L 628 4666 
z
" transform="scale(0.015625)"/>
      <path id="DejaVuSans-63" d="M 3122 3366 
L 3122 2828 
Q 2878 2963 2633 3030 
Q 2388 3097 2138 3097 
Q 1578 3097 1268 2742 
Q 959 2388 959 1747 
Q 959 1106 1268 751 
Q 1578 397 2138 397 
Q 2388 397 2633 464 
Q 2878 531 3122 666 
L 3122 134 
Q 2881 22 2623 -34 
Q 2366 -91 2075 -91 
Q 1284 -91 818 406 
Q 353 903 353 1747 
Q 353 2603 823 3093 
Q 1294 3584 2113 3584 
Q 2378 3584 2631 3529 
Q 2884 3475 3122 3366 
z
" transform="scale(0.015625)"/>
      <path id="DejaVuSans-74" d="M 1172 4494 
L 1172 3500 
L 2356 3500 
L 2356 3053 
L 1172 3053 
L 1172 1153 
Q 1172 725 1289 603 
Q 1406 481 1766 481 
L 2356 481 
L 2356 0 
L 1766 0 
Q 1100 0 847 248 
Q 594 497 594 1153 
L 594 3053 
L 172 3053 
L 172 3500 
L 594 3500 
L 594 4494 
L 1172 4494 
z
" transform="scale(0.015625)"/>
      <path id="DejaVuSans-67" d="M 2906 1791 
Q 2906 2416 2648 2759 
Q 2391 3103 1925 3103 
Q 1463 3103 1205 2759 
Q 947 2416 947 1791 
Q 947 1169 1205 825 
Q 1463 481 1925 481 
Q 2391 481 2648 825 
Q 2906 1169 2906 1791 
z
M 3481 434 
Q 3481 -459 3084 -895 
Q 2688 -1331 1869 -1331 
Q 1566 -1331 1297 -1286 
Q 1028 -1241 775 -1147 
L 775 -588 
Q 1028 -725 1275 -790 
Q 1522 -856 1778 -856 
Q 2344 -856 2625 -561 
Q 2906 -266 2906 331 
L 2906 616 
Q 2728 306 2450 153 
Q 2172 0 1784 0 
Q 1141 0 747 490 
Q 353 981 353 1791 
Q 353 2603 747 3093 
Q 1141 3584 1784 3584 
Q 2172 3584 2450 3431 
Q 2728 3278 2906 2969 
L 2906 3500 
L 3481 3500 
L 3481 434 
z
" transform="scale(0.015625)"/>
      <path id="DejaVuSans-4d" d="M 628 4666 
L 1569 4666 
L 2759 1491 
L 3956 4666 
L 4897 4666 
L 4897 0 
L 4281 0 
L 4281 4097 
L 3078 897 
L 2444 897 
L 1241 4097 
L 1241 0 
L 628 0 
L 628 4666 
z
" transform="scale(0.015625)"/>
      <path id="DejaVuSans-68" d="M 3513 2113 
L 3513 0 
L 2938 0 
L 2938 2094 
Q 2938 2591 2744 2837 
Q 2550 3084 2163 3084 
Q 1697 3084 1428 2787 
Q 1159 2491 1159 1978 
L 1159 0 
L 581 0 
L 581 4863 
L 1159 4863 
L 1159 2956 
Q 1366 3272 1645 3428 
Q 1925 3584 2291 3584 
Q 2894 3584 3203 3211 
Q 3513 2838 3513 2113 
z
" transform="scale(0.015625)"/>
     </defs>
     <use xlink:href="#DejaVuSans-44"/>
     <use xlink:href="#DejaVuSans-61" x="77.001953"/>
     <use xlink:href="#DejaVuSans-69" x="138.28125"/>
     <use xlink:href="#DejaVuSans-6c" x="166.064453"/>
     <use xlink:href="#DejaVuSans-79" x="193.847656"/>
     <use xlink:href="#DejaVuSans-20" x="253.027344"/>
     <use xlink:href="#DejaVuSans-43" x="284.814453"/>
     <use xlink:href="#DejaVuSans-6f" x="354.638672"/>
     <use xlink:href="#DejaVuSans-6e" x="415.820312"/>
     <use xlink:href="#DejaVuSans-66" x="479.199219"/>
     <use xlink:href="#DejaVuSans-69" x="514.404297"/>
     <use xlink:href="#DejaVuSans-72" x="542.1875"/>
     <use xlink:href="#DejaVuSans-6d" x="581.550781"/>
     <use xlink:href="#DejaVuSans-65" x="678.962891"/>
     <use xlink:href="#DejaVuSans-64" x="740.486328"/>
     <use xlink:href="#DejaVuSans-20" x="803.962891"/>
     <use xlink:href="#DejaVuSans-43" x="835.75"/>
     <use xlink:href="#DejaVuSans-61" x="905.574219"/>
     <use xlink:href="#DejaVuSans-73" x="966.853516"/>
     <use xlink:href="#DejaVuSans-65" x="1018.953125"/>
     <use xlink:href="#DejaVuSans-73" x="1080.476562"/>
     <use xlink:href="#DejaVuSans-20" x="1132.576172"/>
     <use xlink:href="#DejaVuSans-46" x="1164.363281"/>
     <use xlink:href="#DejaVuSans-6f" x="1218.257812"/>
     <use xlink:href="#DejaVuSans-72" x="1279.439453"/>
     <use xlink:href="#DejaVuSans-65" x="1318.302734"/>
     <use xlink:href="#DejaVuSans-63" x="1379.826172"/>
     <use xlink:href="#DejaVuSans-61" x="1434.806641"/>
     <use xlink:href="#DejaVuSans-73" x="1496.085938"/>
     <use xlink:href="#DejaVuSans-74" x="1548.185547"/>
     <use xlink:href="#DejaVuSans-69" x="1587.394531"/>
     <use xlink:href="#DejaVuSans-6e" x="1615.177734"/>
     <use xlink:href="#DejaVuSans-67" x="1678.556641"/>
     <use xlink:href="#DejaVuSans-20" x="1742.033203"/>
     <use xlink:href="#DejaVuSans-2d" x="1773.820312"/>
     <use xlink:href="#DejaVuSans-20" x="1809.904297"/>
     <use xlink:href="#DejaVuSans-4d" x="1841.691406"/>
     <use xlink:href="#DejaVuSans-69" x="1927.970703"/>
     <use xlink:href="#DejaVuSans-63" x="1955.753906"/>
     <use xlink:href="#DejaVuSans-68" x="2010.734375"/>
     <use xlink:href="#DejaVuSans-69" x="2074.113281"/>
     <use xlink:href="#DejaVuSans-67" x="2101.896484"/>
     <use xlink:href="#DejaVuSans-61" x="2165.373047"/>
     <use xlink:href="#DejaVuSans-6e" x="2226.652344"/>
    </g>
    <!-- ARIMA (3, 1, 1)x(1, 0, 1, 7) (R2 = -0.863128) -->
    <g transform="translate(587.82625 29.7555)scale(0.12 -0.12)">
     <defs>
      <path id="DejaVuSans-41" d="M 2188 4044 
L 1331 1722 
L 3047 1722 
L 2188 4044 
z
M 1831 4666 
L 2547 4666 
L 4325 0 
L 3669 0 
L 3244 1197 
L 1141 1197 
L 716 0 
L 50 0 
L 1831 4666 
z
" transform="scale(0.015625)"/>
      <path id="DejaVuSans-52" d="M 2841 2188 
Q 3044 2119 3236 1894 
Q 3428 1669 3622 1275 
L 4263 0 
L 3584 0 
L 2988 1197 
Q 2756 1666 2539 1819 
Q 2322 1972 1947 1972 
L 1259 1972 
L 1259 0 
L 628 0 
L 628 4666 
L 2053 4666 
Q 2853 4666 3247 4331 
Q 3641 3997 3641 3322 
Q 3641 2881 3436 2590 
Q 3231 2300 2841 2188 
z
M 1259 4147 
L 1259 2491 
L 2053 2491 
Q 2509 2491 2742 2702 
Q 2975 2913 2975 3322 
Q 2975 3731 2742 3939 
Q 2509 4147 2053 4147 
L 1259 4147 
z
" transform="scale(0.015625)"/>
      <path id="DejaVuSans-49" d="M 628 4666 
L 1259 4666 
L 1259 0 
L 628 0 
L 628 4666 
z
" transform="scale(0.015625)"/>
      <path id="DejaVuSans-28" d="M 1984 4856 
Q 1566 4138 1362 3434 
Q 1159 2731 1159 2009 
Q 1159 1288 1364 580 
Q 1569 -128 1984 -844 
L 1484 -844 
Q 1016 -109 783 600 
Q 550 1309 550 2009 
Q 550 2706 781 3412 
Q 1013 4119 1484 4856 
L 1984 4856 
z
" transform="scale(0.015625)"/>
      <path id="DejaVuSans-33" d="M 2597 2516 
Q 3050 2419 3304 2112 
Q 3559 1806 3559 1356 
Q 3559 666 3084 287 
Q 2609 -91 1734 -91 
Q 1441 -91 1130 -33 
Q 819 25 488 141 
L 488 750 
Q 750 597 1062 519 
Q 1375 441 1716 441 
Q 2309 441 2620 675 
Q 2931 909 2931 1356 
Q 2931 1769 2642 2001 
Q 2353 2234 1838 2234 
L 1294 2234 
L 1294 2753 
L 1863 2753 
Q 2328 2753 2575 2939 
Q 2822 3125 2822 3475 
Q 2822 3834 2567 4026 
Q 2313 4219 1838 4219 
Q 1578 4219 1281 4162 
Q 984 4106 628 3988 
L 628 4550 
Q 988 4650 1302 4700 
Q 1616 4750 1894 4750 
Q 2613 4750 3031 4423 
Q 3450 4097 3450 3541 
Q 3450 3153 3228 2886 
Q 3006 2619 2597 2516 
z
" transform="scale(0.015625)"/>
      <path id="DejaVuSans-2c" d="M 750 794 
L 1409 794 
L 1409 256 
L 897 -744 
L 494 -744 
L 750 256 
L 750 794 
z
" transform="scale(0.015625)"/>
      <path id="DejaVuSans-29" d="M 513 4856 
L 1013 4856 
Q 1481 4119 1714 3412 
Q 1947 2706 1947 2009 
Q 1947 1309 1714 600 
Q 1481 -109 1013 -844 
L 513 -844 
Q 928 -128 1133 580 
Q 1338 1288 1338 2009 
Q 1338 2731 1133 3434 
Q 928 4138 513 4856 
z
" transform="scale(0.015625)"/>
      <path id="DejaVuSans-78" d="M 3513 3500 
L 2247 1797 
L 3578 0 
L 2900 0 
L 1881 1375 
L 863 0 
L 184 0 
L 1544 1831 
L 300 3500 
L 978 3500 
L 1906 2253 
L 2834 3500 
L 3513 3500 
z
" transform="scale(0.015625)"/>
      <path id="DejaVuSans-3d" d="M 678 2906 
L 4684 2906 
L 4684 2381 
L 678 2381 
L 678 2906 
z
M 678 1631 
L 4684 1631 
L 4684 1100 
L 678 1100 
L 678 1631 
z
" transform="scale(0.015625)"/>
      <path id="DejaVuSans-2e" d="M 684 794 
L 1344 794 
L 1344 0 
L 684 0 
L 684 794 
z
" transform="scale(0.015625)"/>
     </defs>
     <use xlink:href="#DejaVuSans-41"/>
     <use xlink:href="#DejaVuSans-52" x="68.408203"/>
     <use xlink:href="#DejaVuSans-49" x="137.890625"/>
     <use xlink:href="#DejaVuSans-4d" x="167.382812"/>
     <use xlink:href="#DejaVuSans-41" x="253.662109"/>
     <use xlink:href="#DejaVuSans-20" x="322.070312"/>
     <use xlink:href="#DejaVuSans-28" x="353.857422"/>
     <use xlink:href="#DejaVuSans-33" x="392.871094"/>
     <use xlink:href="#DejaVuSans-2c" x="456.494141"/>
     <use xlink:href="#DejaVuSans-20" x="488.28125"/>
     <use xlink:href="#DejaVuSans-31" x="520.068359"/>
     <use xlink:href="#DejaVuSans-2c" x="583.691406"/>
     <use xlink:href="#DejaVuSans-20" x="615.478516"/>
     <use xlink:href="#DejaVuSans-31" x="647.265625"/>
     <use xlink:href="#DejaVuSans-29" x="710.888672"/>
     <use xlink:href="#DejaVuSans-78" x="749.902344"/>
     <use xlink:href="#DejaVuSans-28" x="809.082031"/>
     <use xlink:href="#DejaVuSans-31" x="848.095703"/>
     <use xlink:href="#DejaVuSans-2c" x="911.71875"/>
     <use xlink:href="#DejaVuSans-20" x="943.505859"/>
     <use xlink:href="#DejaVuSans-30" x="975.292969"/>
     <use xlink:href="#DejaVuSans-2c" x="1038.916016"/>
     <use xlink:href="#DejaVuSans-20" x="1070.703125"/>
     <use xlink:href="#DejaVuSans-31" x="1102.490234"/>
     <use xlink:href="#DejaVuSans-2c" x="1166.113281"/>
     <use xlink:href="#DejaVuSans-20" x="1197.900391"/>
     <use xlink:href="#DejaVuSans-37" x="1229.6875"/>
     <use xlink:href="#DejaVuSans-29" x="1293.310547"/>
     <use xlink:href="#DejaVuSans-20" x="1332.324219"/>
     <use xlink:href="#DejaVuSans-28" x="1364.111328"/>
     <use xlink:href="#DejaVuSans-52" x="1403.125"/>
     <use xlink:href="#DejaVuSans-32" x="1472.607422"/>
     <use xlink:href="#DejaVuSans-20" x="1536.230469"/>
     <use xlink:href="#DejaVuSans-3d" x="1568.017578"/>
     <use xlink:href="#DejaVuSans-20" x="1651.806641"/>
     <use xlink:href="#DejaVuSans-2d" x="1683.59375"/>
     <use xlink:href="#DejaVuSans-30" x="1719.677734"/>
     <use xlink:href="#DejaVuSans-2e" x="1783.300781"/>
     <use xlink:href="#DejaVuSans-38" x="1815.087891"/>
     <use xlink:href="#DejaVuSans-36" x="1878.710938"/>
     <use xlink:href="#DejaVuSans-33" x="1942.333984"/>
     <use xlink:href="#DejaVuSans-31" x="2005.957031"/>
     <use xlink:href="#DejaVuSans-32" x="2069.580078"/>
     <use xlink:href="#DejaVuSans-38" x="2133.203125"/>
     <use xlink:href="#DejaVuSans-29" x="2196.826172"/>
    </g>
   </g>
   <g id="legend_1">
    <g id="patch_7">
     <path d="M 1287.495312 87.789875 
L 1384.575 87.789875 
Q 1386.575 87.789875 1386.575 85.789875 
L 1386.575 42.7555 
Q 1386.575 40.7555 1384.575 40.7555 
L 1287.495312 40.7555 
Q 1285.495312 40.7555 1285.495312 42.7555 
L 1285.495312 85.789875 
Q 1285.495312 87.789875 1287.495312 87.789875 
z
" style="fill: #ffffff; opacity: 0.8; stroke: #cccccc; stroke-linejoin: miter"/>
    </g>
    <g id="line2d_21">
     <path d="M 1289.495312 48.853937 
L 1299.495312 48.853937 
L 1309.495312 48.853937 
" style="fill: none; stroke: #0000ff; stroke-width: 1.5; stroke-linecap: square"/>
    </g>
    <g id="text_19">
     <!-- Actual Value -->
     <g transform="translate(1317.495312 52.353937)scale(0.1 -0.1)">
      <defs>
       <path id="DejaVuSans-75" d="M 544 1381 
L 544 3500 
L 1119 3500 
L 1119 1403 
Q 1119 906 1312 657 
Q 1506 409 1894 409 
Q 2359 409 2629 706 
Q 2900 1003 2900 1516 
L 2900 3500 
L 3475 3500 
L 3475 0 
L 2900 0 
L 2900 538 
Q 2691 219 2414 64 
Q 2138 -91 1772 -91 
Q 1169 -91 856 284 
Q 544 659 544 1381 
z
M 1991 3584 
L 1991 3584 
z
" transform="scale(0.015625)"/>
       <path id="DejaVuSans-56" d="M 1831 0 
L 50 4666 
L 709 4666 
L 2188 738 
L 3669 4666 
L 4325 4666 
L 2547 0 
L 1831 0 
z
" transform="scale(0.015625)"/>
      </defs>
      <use xlink:href="#DejaVuSans-41"/>
      <use xlink:href="#DejaVuSans-63" x="66.658203"/>
      <use xlink:href="#DejaVuSans-74" x="121.638672"/>
      <use xlink:href="#DejaVuSans-75" x="160.847656"/>
      <use xlink:href="#DejaVuSans-61" x="224.226562"/>
      <use xlink:href="#DejaVuSans-6c" x="285.505859"/>
      <use xlink:href="#DejaVuSans-20" x="313.289062"/>
      <use xlink:href="#DejaVuSans-56" x="345.076172"/>
      <use xlink:href="#DejaVuSans-61" x="405.734375"/>
      <use xlink:href="#DejaVuSans-6c" x="467.013672"/>
      <use xlink:href="#DejaVuSans-75" x="494.796875"/>
      <use xlink:href="#DejaVuSans-65" x="558.175781"/>
     </g>
    </g>
    <g id="line2d_22">
     <path d="M 1289.495312 63.532062 
L 1299.495312 63.532062 
L 1309.495312 63.532062 
" style="fill: none; stroke: #ffa500; stroke-width: 1.5; stroke-linecap: square"/>
    </g>
    <g id="text_20">
     <!-- Check Value -->
     <g transform="translate(1317.495312 67.032062)scale(0.1 -0.1)">
      <defs>
       <path id="DejaVuSans-6b" d="M 581 4863 
L 1159 4863 
L 1159 1991 
L 2875 3500 
L 3609 3500 
L 1753 1863 
L 3688 0 
L 2938 0 
L 1159 1709 
L 1159 0 
L 581 0 
L 581 4863 
z
" transform="scale(0.015625)"/>
      </defs>
      <use xlink:href="#DejaVuSans-43"/>
      <use xlink:href="#DejaVuSans-68" x="69.824219"/>
      <use xlink:href="#DejaVuSans-65" x="133.203125"/>
      <use xlink:href="#DejaVuSans-63" x="194.726562"/>
      <use xlink:href="#DejaVuSans-6b" x="249.707031"/>
      <use xlink:href="#DejaVuSans-20" x="307.617188"/>
      <use xlink:href="#DejaVuSans-56" x="339.404297"/>
      <use xlink:href="#DejaVuSans-61" x="400.0625"/>
      <use xlink:href="#DejaVuSans-6c" x="461.341797"/>
      <use xlink:href="#DejaVuSans-75" x="489.125"/>
      <use xlink:href="#DejaVuSans-65" x="552.503906"/>
     </g>
    </g>
    <g id="line2d_23">
     <path d="M 1289.495312 78.210187 
L 1299.495312 78.210187 
L 1309.495312 78.210187 
" style="fill: none; stroke: #ff0000; stroke-width: 1.5; stroke-linecap: square"/>
    </g>
    <g id="text_21">
     <!-- Predict Value -->
     <g transform="translate(1317.495312 81.710187)scale(0.1 -0.1)">
      <defs>
       <path id="DejaVuSans-50" d="M 1259 4147 
L 1259 2394 
L 2053 2394 
Q 2494 2394 2734 2622 
Q 2975 2850 2975 3272 
Q 2975 3691 2734 3919 
Q 2494 4147 2053 4147 
L 1259 4147 
z
M 628 4666 
L 2053 4666 
Q 2838 4666 3239 4311 
Q 3641 3956 3641 3272 
Q 3641 2581 3239 2228 
Q 2838 1875 2053 1875 
L 1259 1875 
L 1259 0 
L 628 0 
L 628 4666 
z
" transform="scale(0.015625)"/>
      </defs>
      <use xlink:href="#DejaVuSans-50"/>
      <use xlink:href="#DejaVuSans-72" x="58.552734"/>
      <use xlink:href="#DejaVuSans-65" x="97.416016"/>
      <use xlink:href="#DejaVuSans-64" x="158.939453"/>
      <use xlink:href="#DejaVuSans-69" x="222.416016"/>
      <use xlink:href="#DejaVuSans-63" x="250.199219"/>
      <use xlink:href="#DejaVuSans-74" x="305.179688"/>
      <use xlink:href="#DejaVuSans-20" x="344.388672"/>
      <use xlink:href="#DejaVuSans-56" x="376.175781"/>
      <use xlink:href="#DejaVuSans-61" x="436.833984"/>
      <use xlink:href="#DejaVuSans-6c" x="498.113281"/>
      <use xlink:href="#DejaVuSans-75" x="525.896484"/>
      <use xlink:href="#DejaVuSans-65" x="589.275391"/>
     </g>
    </g>
   </g>
  </g>
 </g>
 <defs>
  <clipPath id="p0213a20a60">
   <rect x="52.375" y="35.7555" width="1339.2" height="332.64"/>
  </clipPath>
 </defs>
</svg>
