<?xml version="1.0" encoding="utf-8" standalone="no"?>
<!DOCTYPE svg PUBLIC "-//W3C//DTD SVG 1.1//EN"
  "http://www.w3.org/Graphics/SVG/1.1/DTD/svg11.dtd">
<svg xmlns:xlink="http://www.w3.org/1999/xlink" width="1398.775pt" height="392.273625pt" viewBox="0 0 1398.775 392.273625" xmlns="http://www.w3.org/2000/svg" version="1.1">
 <metadata>
  <rdf:RDF xmlns:dc="http://purl.org/dc/elements/1.1/" xmlns:cc="http://creativecommons.org/ns#" xmlns:rdf="http://www.w3.org/1999/02/22-rdf-syntax-ns#">
   <cc:Work>
    <dc:type rdf:resource="http://purl.org/dc/dcmitype/StillImage"/>
    <dc:date>2022-07-07T17:44:04.453474</dc:date>
    <dc:format>image/svg+xml</dc:format>
    <dc:creator>
     <cc:Agent>
      <dc:title>Matplotlib v3.5.2, https://matplotlib.org/</dc:title>
     </cc:Agent>
    </dc:creator>
   </cc:Work>
  </rdf:RDF>
 </metadata>
 <defs>
  <style type="text/css">*{stroke-linejoin: round; stroke-linecap: butt}</style>
 </defs>
 <g id="figure_1">
  <g id="patch_1">
   <path d="M 0 392.273625 
L 1398.775 392.273625 
L 1398.775 0 
L 0 0 
z
" style="fill: #ffffff"/>
  </g>
  <g id="axes_1">
   <g id="patch_2">
    <path d="M 52.375 368.3955 
L 1391.575 368.3955 
L 1391.575 35.7555 
L 52.375 35.7555 
z
" style="fill: #ffffff"/>
   </g>
   <g id="matplotlib.axis_1">
    <g id="xtick_1">
     <g id="line2d_1">
      <defs>
       <path id="m1b16c9c54b" d="M 0 0 
L 0 3.5 
" style="stroke: #000000; stroke-width: 0.8"/>
      </defs>
      <g>
       <use xlink:href="#m1b16c9c54b" x="83.74993" y="368.3955" style="stroke: #000000; stroke-width: 0.8"/>
      </g>
     </g>
     <g id="text_1">
      <!-- 2020-01 -->
      <g transform="translate(62.858524 382.993937)scale(0.1 -0.1)">
       <defs>
        <path id="DejaVuSans-32" d="M 1228 531 
L 3431 531 
L 3431 0 
L 469 0 
L 469 531 
Q 828 903 1448 1529 
Q 2069 2156 2228 2338 
Q 2531 2678 2651 2914 
Q 2772 3150 2772 3378 
Q 2772 3750 2511 3984 
Q 2250 4219 1831 4219 
Q 1534 4219 1204 4116 
Q 875 4013 500 3803 
L 500 4441 
Q 881 4594 1212 4672 
Q 1544 4750 1819 4750 
Q 2544 4750 2975 4387 
Q 3406 4025 3406 3419 
Q 3406 3131 3298 2873 
Q 3191 2616 2906 2266 
Q 2828 2175 2409 1742 
Q 1991 1309 1228 531 
z
" transform="scale(0.015625)"/>
        <path id="DejaVuSans-30" d="M 2034 4250 
Q 1547 4250 1301 3770 
Q 1056 3291 1056 2328 
Q 1056 1369 1301 889 
Q 1547 409 2034 409 
Q 2525 409 2770 889 
Q 3016 1369 3016 2328 
Q 3016 3291 2770 3770 
Q 2525 4250 2034 4250 
z
M 2034 4750 
Q 2819 4750 3233 4129 
Q 3647 3509 3647 2328 
Q 3647 1150 3233 529 
Q 2819 -91 2034 -91 
Q 1250 -91 836 529 
Q 422 1150 422 2328 
Q 422 3509 836 4129 
Q 1250 4750 2034 4750 
z
" transform="scale(0.015625)"/>
        <path id="DejaVuSans-2d" d="M 313 2009 
L 1997 2009 
L 1997 1497 
L 313 1497 
L 313 2009 
z
" transform="scale(0.015625)"/>
        <path id="DejaVuSans-31" d="M 794 531 
L 1825 531 
L 1825 4091 
L 703 3866 
L 703 4441 
L 1819 4666 
L 2450 4666 
L 2450 531 
L 3481 531 
L 3481 0 
L 794 0 
L 794 531 
z
" transform="scale(0.015625)"/>
       </defs>
       <use xlink:href="#DejaVuSans-32"/>
       <use xlink:href="#DejaVuSans-30" x="63.623047"/>
       <use xlink:href="#DejaVuSans-32" x="127.246094"/>
       <use xlink:href="#DejaVuSans-30" x="190.869141"/>
       <use xlink:href="#DejaVuSans-2d" x="254.492188"/>
       <use xlink:href="#DejaVuSans-30" x="290.576172"/>
       <use xlink:href="#DejaVuSans-31" x="354.199219"/>
      </g>
     </g>
    </g>
    <g id="xtick_2">
     <g id="line2d_2">
      <g>
       <use xlink:href="#m1b16c9c54b" x="205.763546" y="368.3955" style="stroke: #000000; stroke-width: 0.8"/>
      </g>
     </g>
     <g id="text_2">
      <!-- 2020-04 -->
      <g transform="translate(184.87214 382.993937)scale(0.1 -0.1)">
       <defs>
        <path id="DejaVuSans-34" d="M 2419 4116 
L 825 1625 
L 2419 1625 
L 2419 4116 
z
M 2253 4666 
L 3047 4666 
L 3047 1625 
L 3713 1625 
L 3713 1100 
L 3047 1100 
L 3047 0 
L 2419 0 
L 2419 1100 
L 313 1100 
L 313 1709 
L 2253 4666 
z
" transform="scale(0.015625)"/>
       </defs>
       <use xlink:href="#DejaVuSans-32"/>
       <use xlink:href="#DejaVuSans-30" x="63.623047"/>
       <use xlink:href="#DejaVuSans-32" x="127.246094"/>
       <use xlink:href="#DejaVuSans-30" x="190.869141"/>
       <use xlink:href="#DejaVuSans-2d" x="254.492188"/>
       <use xlink:href="#DejaVuSans-30" x="290.576172"/>
       <use xlink:href="#DejaVuSans-34" x="354.199219"/>
      </g>
     </g>
    </g>
    <g id="xtick_3">
     <g id="line2d_3">
      <g>
       <use xlink:href="#m1b16c9c54b" x="327.777163" y="368.3955" style="stroke: #000000; stroke-width: 0.8"/>
      </g>
     </g>
     <g id="text_3">
      <!-- 2020-07 -->
      <g transform="translate(306.885756 382.993937)scale(0.1 -0.1)">
       <defs>
        <path id="DejaVuSans-37" d="M 525 4666 
L 3525 4666 
L 3525 4397 
L 1831 0 
L 1172 0 
L 2766 4134 
L 525 4134 
L 525 4666 
z
" transform="scale(0.015625)"/>
       </defs>
       <use xlink:href="#DejaVuSans-32"/>
       <use xlink:href="#DejaVuSans-30" x="63.623047"/>
       <use xlink:href="#DejaVuSans-32" x="127.246094"/>
       <use xlink:href="#DejaVuSans-30" x="190.869141"/>
       <use xlink:href="#DejaVuSans-2d" x="254.492188"/>
       <use xlink:href="#DejaVuSans-30" x="290.576172"/>
       <use xlink:href="#DejaVuSans-37" x="354.199219"/>
      </g>
     </g>
    </g>
    <g id="xtick_4">
     <g id="line2d_4">
      <g>
       <use xlink:href="#m1b16c9c54b" x="451.131588" y="368.3955" style="stroke: #000000; stroke-width: 0.8"/>
      </g>
     </g>
     <g id="text_4">
      <!-- 2020-10 -->
      <g transform="translate(430.240182 382.993937)scale(0.1 -0.1)">
       <use xlink:href="#DejaVuSans-32"/>
       <use xlink:href="#DejaVuSans-30" x="63.623047"/>
       <use xlink:href="#DejaVuSans-32" x="127.246094"/>
       <use xlink:href="#DejaVuSans-30" x="190.869141"/>
       <use xlink:href="#DejaVuSans-2d" x="254.492188"/>
       <use xlink:href="#DejaVuSans-31" x="290.576172"/>
       <use xlink:href="#DejaVuSans-30" x="354.199219"/>
      </g>
     </g>
    </g>
    <g id="xtick_5">
     <g id="line2d_5">
      <g>
       <use xlink:href="#m1b16c9c54b" x="574.486013" y="368.3955" style="stroke: #000000; stroke-width: 0.8"/>
      </g>
     </g>
     <g id="text_5">
      <!-- 2021-01 -->
      <g transform="translate(553.594607 382.993937)scale(0.1 -0.1)">
       <use xlink:href="#DejaVuSans-32"/>
       <use xlink:href="#DejaVuSans-30" x="63.623047"/>
       <use xlink:href="#DejaVuSans-32" x="127.246094"/>
       <use xlink:href="#DejaVuSans-31" x="190.869141"/>
       <use xlink:href="#DejaVuSans-2d" x="254.492188"/>
       <use xlink:href="#DejaVuSans-30" x="290.576172"/>
       <use xlink:href="#DejaVuSans-31" x="354.199219"/>
      </g>
     </g>
    </g>
    <g id="xtick_6">
     <g id="line2d_6">
      <g>
       <use xlink:href="#m1b16c9c54b" x="695.158821" y="368.3955" style="stroke: #000000; stroke-width: 0.8"/>
      </g>
     </g>
     <g id="text_6">
      <!-- 2021-04 -->
      <g transform="translate(674.267414 382.993937)scale(0.1 -0.1)">
       <use xlink:href="#DejaVuSans-32"/>
       <use xlink:href="#DejaVuSans-30" x="63.623047"/>
       <use xlink:href="#DejaVuSans-32" x="127.246094"/>
       <use xlink:href="#DejaVuSans-31" x="190.869141"/>
       <use xlink:href="#DejaVuSans-2d" x="254.492188"/>
       <use xlink:href="#DejaVuSans-30" x="290.576172"/>
       <use xlink:href="#DejaVuSans-34" x="354.199219"/>
      </g>
     </g>
    </g>
    <g id="xtick_7">
     <g id="line2d_7">
      <g>
       <use xlink:href="#m1b16c9c54b" x="817.172437" y="368.3955" style="stroke: #000000; stroke-width: 0.8"/>
      </g>
     </g>
     <g id="text_7">
      <!-- 2021-07 -->
      <g transform="translate(796.281031 382.993937)scale(0.1 -0.1)">
       <use xlink:href="#DejaVuSans-32"/>
       <use xlink:href="#DejaVuSans-30" x="63.623047"/>
       <use xlink:href="#DejaVuSans-32" x="127.246094"/>
       <use xlink:href="#DejaVuSans-31" x="190.869141"/>
       <use xlink:href="#DejaVuSans-2d" x="254.492188"/>
       <use xlink:href="#DejaVuSans-30" x="290.576172"/>
       <use xlink:href="#DejaVuSans-37" x="354.199219"/>
      </g>
     </g>
    </g>
    <g id="xtick_8">
     <g id="line2d_8">
      <g>
       <use xlink:href="#m1b16c9c54b" x="940.526862" y="368.3955" style="stroke: #000000; stroke-width: 0.8"/>
      </g>
     </g>
     <g id="text_8">
      <!-- 2021-10 -->
      <g transform="translate(919.635456 382.993937)scale(0.1 -0.1)">
       <use xlink:href="#DejaVuSans-32"/>
       <use xlink:href="#DejaVuSans-30" x="63.623047"/>
       <use xlink:href="#DejaVuSans-32" x="127.246094"/>
       <use xlink:href="#DejaVuSans-31" x="190.869141"/>
       <use xlink:href="#DejaVuSans-2d" x="254.492188"/>
       <use xlink:href="#DejaVuSans-31" x="290.576172"/>
       <use xlink:href="#DejaVuSans-30" x="354.199219"/>
      </g>
     </g>
    </g>
    <g id="xtick_9">
     <g id="line2d_9">
      <g>
       <use xlink:href="#m1b16c9c54b" x="1063.881288" y="368.3955" style="stroke: #000000; stroke-width: 0.8"/>
      </g>
     </g>
     <g id="text_9">
      <!-- 2022-01 -->
      <g transform="translate(1042.989881 382.993937)scale(0.1 -0.1)">
       <use xlink:href="#DejaVuSans-32"/>
       <use xlink:href="#DejaVuSans-30" x="63.623047"/>
       <use xlink:href="#DejaVuSans-32" x="127.246094"/>
       <use xlink:href="#DejaVuSans-32" x="190.869141"/>
       <use xlink:href="#DejaVuSans-2d" x="254.492188"/>
       <use xlink:href="#DejaVuSans-30" x="290.576172"/>
       <use xlink:href="#DejaVuSans-31" x="354.199219"/>
      </g>
     </g>
    </g>
    <g id="xtick_10">
     <g id="line2d_10">
      <g>
       <use xlink:href="#m1b16c9c54b" x="1184.554095" y="368.3955" style="stroke: #000000; stroke-width: 0.8"/>
      </g>
     </g>
     <g id="text_10">
      <!-- 2022-04 -->
      <g transform="translate(1163.662689 382.993937)scale(0.1 -0.1)">
       <use xlink:href="#DejaVuSans-32"/>
       <use xlink:href="#DejaVuSans-30" x="63.623047"/>
       <use xlink:href="#DejaVuSans-32" x="127.246094"/>
       <use xlink:href="#DejaVuSans-32" x="190.869141"/>
       <use xlink:href="#DejaVuSans-2d" x="254.492188"/>
       <use xlink:href="#DejaVuSans-30" x="290.576172"/>
       <use xlink:href="#DejaVuSans-34" x="354.199219"/>
      </g>
     </g>
    </g>
    <g id="xtick_11">
     <g id="line2d_11">
      <g>
       <use xlink:href="#m1b16c9c54b" x="1306.567711" y="368.3955" style="stroke: #000000; stroke-width: 0.8"/>
      </g>
     </g>
     <g id="text_11">
      <!-- 2022-07 -->
      <g transform="translate(1285.676305 382.993937)scale(0.1 -0.1)">
       <use xlink:href="#DejaVuSans-32"/>
       <use xlink:href="#DejaVuSans-30" x="63.623047"/>
       <use xlink:href="#DejaVuSans-32" x="127.246094"/>
       <use xlink:href="#DejaVuSans-32" x="190.869141"/>
       <use xlink:href="#DejaVuSans-2d" x="254.492188"/>
       <use xlink:href="#DejaVuSans-30" x="290.576172"/>
       <use xlink:href="#DejaVuSans-37" x="354.199219"/>
      </g>
     </g>
    </g>
   </g>
   <g id="matplotlib.axis_2">
    <g id="ytick_1">
     <g id="line2d_12">
      <defs>
       <path id="mdc4f603f18" d="M 0 0 
L -3.5 0 
" style="stroke: #000000; stroke-width: 0.8"/>
      </defs>
      <g>
       <use xlink:href="#mdc4f603f18" x="52.375" y="333.018553" style="stroke: #000000; stroke-width: 0.8"/>
      </g>
     </g>
     <g id="text_12">
      <!-- 0 -->
      <g transform="translate(39.0125 336.817771)scale(0.1 -0.1)">
       <use xlink:href="#DejaVuSans-30"/>
      </g>
     </g>
    </g>
    <g id="ytick_2">
     <g id="line2d_13">
      <g>
       <use xlink:href="#mdc4f603f18" x="52.375" y="275.977896" style="stroke: #000000; stroke-width: 0.8"/>
      </g>
     </g>
     <g id="text_13">
      <!-- 20000 -->
      <g transform="translate(13.5625 279.777115)scale(0.1 -0.1)">
       <use xlink:href="#DejaVuSans-32"/>
       <use xlink:href="#DejaVuSans-30" x="63.623047"/>
       <use xlink:href="#DejaVuSans-30" x="127.246094"/>
       <use xlink:href="#DejaVuSans-30" x="190.869141"/>
       <use xlink:href="#DejaVuSans-30" x="254.492188"/>
      </g>
     </g>
    </g>
    <g id="ytick_3">
     <g id="line2d_14">
      <g>
       <use xlink:href="#mdc4f603f18" x="52.375" y="218.937239" style="stroke: #000000; stroke-width: 0.8"/>
      </g>
     </g>
     <g id="text_14">
      <!-- 40000 -->
      <g transform="translate(13.5625 222.736458)scale(0.1 -0.1)">
       <use xlink:href="#DejaVuSans-34"/>
       <use xlink:href="#DejaVuSans-30" x="63.623047"/>
       <use xlink:href="#DejaVuSans-30" x="127.246094"/>
       <use xlink:href="#DejaVuSans-30" x="190.869141"/>
       <use xlink:href="#DejaVuSans-30" x="254.492188"/>
      </g>
     </g>
    </g>
    <g id="ytick_4">
     <g id="line2d_15">
      <g>
       <use xlink:href="#mdc4f603f18" x="52.375" y="161.896582" style="stroke: #000000; stroke-width: 0.8"/>
      </g>
     </g>
     <g id="text_15">
      <!-- 60000 -->
      <g transform="translate(13.5625 165.695801)scale(0.1 -0.1)">
       <defs>
        <path id="DejaVuSans-36" d="M 2113 2584 
Q 1688 2584 1439 2293 
Q 1191 2003 1191 1497 
Q 1191 994 1439 701 
Q 1688 409 2113 409 
Q 2538 409 2786 701 
Q 3034 994 3034 1497 
Q 3034 2003 2786 2293 
Q 2538 2584 2113 2584 
z
M 3366 4563 
L 3366 3988 
Q 3128 4100 2886 4159 
Q 2644 4219 2406 4219 
Q 1781 4219 1451 3797 
Q 1122 3375 1075 2522 
Q 1259 2794 1537 2939 
Q 1816 3084 2150 3084 
Q 2853 3084 3261 2657 
Q 3669 2231 3669 1497 
Q 3669 778 3244 343 
Q 2819 -91 2113 -91 
Q 1303 -91 875 529 
Q 447 1150 447 2328 
Q 447 3434 972 4092 
Q 1497 4750 2381 4750 
Q 2619 4750 2861 4703 
Q 3103 4656 3366 4563 
z
" transform="scale(0.015625)"/>
       </defs>
       <use xlink:href="#DejaVuSans-36"/>
       <use xlink:href="#DejaVuSans-30" x="63.623047"/>
       <use xlink:href="#DejaVuSans-30" x="127.246094"/>
       <use xlink:href="#DejaVuSans-30" x="190.869141"/>
       <use xlink:href="#DejaVuSans-30" x="254.492188"/>
      </g>
     </g>
    </g>
    <g id="ytick_5">
     <g id="line2d_16">
      <g>
       <use xlink:href="#mdc4f603f18" x="52.375" y="104.855926" style="stroke: #000000; stroke-width: 0.8"/>
      </g>
     </g>
     <g id="text_16">
      <!-- 80000 -->
      <g transform="translate(13.5625 108.655144)scale(0.1 -0.1)">
       <defs>
        <path id="DejaVuSans-38" d="M 2034 2216 
Q 1584 2216 1326 1975 
Q 1069 1734 1069 1313 
Q 1069 891 1326 650 
Q 1584 409 2034 409 
Q 2484 409 2743 651 
Q 3003 894 3003 1313 
Q 3003 1734 2745 1975 
Q 2488 2216 2034 2216 
z
M 1403 2484 
Q 997 2584 770 2862 
Q 544 3141 544 3541 
Q 544 4100 942 4425 
Q 1341 4750 2034 4750 
Q 2731 4750 3128 4425 
Q 3525 4100 3525 3541 
Q 3525 3141 3298 2862 
Q 3072 2584 2669 2484 
Q 3125 2378 3379 2068 
Q 3634 1759 3634 1313 
Q 3634 634 3220 271 
Q 2806 -91 2034 -91 
Q 1263 -91 848 271 
Q 434 634 434 1313 
Q 434 1759 690 2068 
Q 947 2378 1403 2484 
z
M 1172 3481 
Q 1172 3119 1398 2916 
Q 1625 2713 2034 2713 
Q 2441 2713 2670 2916 
Q 2900 3119 2900 3481 
Q 2900 3844 2670 4047 
Q 2441 4250 2034 4250 
Q 1625 4250 1398 4047 
Q 1172 3844 1172 3481 
z
" transform="scale(0.015625)"/>
       </defs>
       <use xlink:href="#DejaVuSans-38"/>
       <use xlink:href="#DejaVuSans-30" x="63.623047"/>
       <use xlink:href="#DejaVuSans-30" x="127.246094"/>
       <use xlink:href="#DejaVuSans-30" x="190.869141"/>
       <use xlink:href="#DejaVuSans-30" x="254.492188"/>
      </g>
     </g>
    </g>
    <g id="ytick_6">
     <g id="line2d_17">
      <g>
       <use xlink:href="#mdc4f603f18" x="52.375" y="47.815269" style="stroke: #000000; stroke-width: 0.8"/>
      </g>
     </g>
     <g id="text_17">
      <!-- 100000 -->
      <g transform="translate(7.2 51.614488)scale(0.1 -0.1)">
       <use xlink:href="#DejaVuSans-31"/>
       <use xlink:href="#DejaVuSans-30" x="63.623047"/>
       <use xlink:href="#DejaVuSans-30" x="127.246094"/>
       <use xlink:href="#DejaVuSans-30" x="190.869141"/>
       <use xlink:href="#DejaVuSans-30" x="254.492188"/>
       <use xlink:href="#DejaVuSans-30" x="318.115234"/>
      </g>
     </g>
    </g>
   </g>
   <g id="line2d_18">
    <path d="M 113.247727 333.018553 
L 185.651412 332.978624 
L 189.673839 332.570783 
L 191.014648 332.57934 
L 192.355457 331.575424 
L 193.696266 332.097346 
L 195.037074 331.626761 
L 197.718692 331.410006 
L 200.40031 330.046734 
L 201.741119 330.557248 
L 203.081928 330.023918 
L 204.422737 329.744419 
L 205.763546 327.981863 
L 207.104355 328.703427 
L 208.445164 327.340155 
L 209.785973 328.700575 
L 212.467591 328.592198 
L 213.8084 327.816445 
L 215.149209 328.934442 
L 217.830827 330.217856 
L 219.171636 329.536221 
L 220.512445 331.070614 
L 221.853254 328.914477 
L 223.194063 328.968666 
L 225.875681 330.674182 
L 227.21649 329.427843 
L 228.557299 330.719814 
L 229.898108 331.144767 
L 231.238917 331.20466 
L 232.579726 330.953681 
L 233.920535 329.151196 
L 235.261344 328.908773 
L 236.602153 328.783284 
L 237.942962 331.70947 
L 239.283771 330.876676 
L 240.624579 331.609648 
L 241.965388 329.790051 
L 243.306197 329.559037 
L 244.647006 329.884169 
L 245.987815 330.035326 
L 247.328624 330.451723 
L 250.010242 332.160091 
L 252.69186 330.668478 
L 254.032669 331.096282 
L 255.373478 330.856712 
L 256.714287 331.575424 
L 258.055096 331.849219 
L 259.395905 331.464195 
L 260.736714 331.216068 
L 262.077523 331.432822 
L 263.418332 329.174012 
L 264.759141 331.184695 
L 266.09995 331.578276 
L 267.440759 331.170435 
L 268.781568 330.474539 
L 270.122377 331.278813 
L 271.463186 330.57436 
L 272.803995 331.119099 
L 274.144804 331.435674 
L 275.485613 331.58398 
L 278.167231 332.373993 
L 279.50804 332.011785 
L 280.848849 331.255996 
L 282.189658 331.524087 
L 283.530467 330.973645 
L 284.871276 331.900556 
L 286.212085 331.632465 
L 287.552893 332.399661 
L 290.234511 331.829255 
L 291.57532 332.100198 
L 292.916129 330.617141 
L 294.256938 332.753314 
L 295.597747 332.861691 
L 296.938556 332.633528 
L 299.620174 332.975772 
L 300.960983 332.25706 
L 303.642601 332.550819 
L 304.98341 332.396809 
L 306.324219 332.93014 
L 307.665028 332.493779 
L 311.687455 332.165795 
L 313.028264 331.740842 
L 314.369073 332.545115 
L 315.709882 332.316953 
L 317.050691 332.334065 
L 318.3915 331.997525 
L 319.732309 331.78077 
L 321.073118 332.048861 
L 322.413927 332.020341 
L 323.754736 332.25706 
L 325.095545 332.22854 
L 326.436354 331.578276 
L 327.777163 331.988969 
L 329.117972 331.338705 
L 331.79959 331.860627 
L 334.481207 332.08879 
L 335.822016 331.213216 
L 337.162825 331.161879 
L 338.503634 331.558312 
L 339.844443 331.244588 
L 341.185252 331.06491 
L 342.526061 331.860627 
L 343.86687 331.814995 
L 345.207679 331.119099 
L 346.548488 330.02677 
L 347.889297 330.37757 
L 349.230106 330.86812 
L 350.570915 330.893788 
L 351.911724 331.506975 
L 353.252533 331.515531 
L 354.593342 331.124803 
L 357.27496 331.019278 
L 359.956578 331.449935 
L 361.297387 330.05529 
L 362.638196 331.558312 
L 365.319814 330.120887 
L 366.660623 330.716962 
L 369.342241 330.856712 
L 370.68305 331.803587 
L 373.364668 330.734074 
L 374.705477 330.970793 
L 377.387095 330.696998 
L 378.727903 330.962237 
L 380.068712 331.492715 
L 381.409521 331.364374 
L 382.75033 330.431759 
L 384.091139 331.660985 
L 385.431948 329.69023 
L 386.772757 330.542988 
L 388.113566 330.001102 
L 389.454375 331.658133 
L 390.795184 331.621057 
L 392.135993 331.156175 
L 393.476802 331.053502 
L 394.817611 331.515531 
L 396.15842 333.018553 
L 397.499229 328.951554 
L 398.840038 330.8396 
L 400.180847 330.514468 
L 401.521656 330.306269 
L 402.862465 330.614289 
L 404.203274 330.557248 
L 405.544083 330.756891 
L 406.884892 333.018553 
L 408.225701 329.054227 
L 409.56651 331.595388 
L 410.907319 330.751186 
L 412.248128 331.170435 
L 413.588937 330.811079 
L 414.929746 330.015362 
L 416.270555 330.463131 
L 417.611364 333.018553 
L 418.952173 329.561889 
L 420.292982 331.595388 
L 421.633791 330.252081 
L 422.9746 330.240673 
L 424.315408 329.011446 
L 425.656217 330.716962 
L 426.997026 333.018553 
L 428.337835 329.513404 
L 429.678644 331.053502 
L 431.019453 330.833895 
L 432.360262 330.22356 
L 435.04188 331.344409 
L 436.382689 333.018553 
L 437.723498 328.526601 
L 439.064307 331.03639 
L 441.745925 329.944061 
L 444.427543 330.177928 
L 445.768352 333.018553 
L 447.109161 329.228201 
L 448.44997 329.82998 
L 449.790779 329.613225 
L 451.131588 330.172224 
L 452.472397 330.212152 
L 453.813206 329.382211 
L 455.154015 333.018553 
L 456.494824 328.868845 
L 457.835633 329.735863 
L 459.176442 329.553333 
L 460.517251 329.022855 
L 461.85806 329.245313 
L 463.198869 328.349775 
L 464.539678 333.018553 
L 465.880487 327.477053 
L 467.221296 328.837472 
L 468.562105 328.475264 
L 469.902913 326.008256 
L 472.584531 327.354415 
L 473.92534 333.018553 
L 475.266149 324.411117 
L 476.606958 327.682399 
L 477.947767 327.662435 
L 479.288576 326.732672 
L 480.629385 327.183293 
L 481.970194 323.064958 
L 483.311003 333.018553 
L 484.651812 321.447855 
L 485.992621 325.389365 
L 487.33343 322.779755 
L 488.674239 321.29955 
L 490.015048 323.478503 
L 491.355857 321.559085 
L 492.696666 333.018553 
L 494.037475 313.282485 
L 495.378284 323.216116 
L 496.719093 320.478164 
L 498.059902 315.612596 
L 499.400711 320.908821 
L 500.74152 314.297809 
L 502.082329 333.018553 
L 503.423138 306.680029 
L 504.763947 313.214037 
L 506.104756 314.138095 
L 507.445565 312.167341 
L 508.786374 306.839743 
L 510.127183 311.827949 
L 511.467992 333.018553 
L 512.808801 295.480096 
L 514.14961 310.527422 
L 515.490419 315.284612 
L 516.831227 310.250774 
L 518.172036 304.09894 
L 519.512845 310.658615 
L 520.853654 333.018553 
L 522.194463 298.956724 
L 523.535272 313.676066 
L 524.876081 319.651075 
L 526.21689 333.018553 
L 527.557699 283.484446 
L 530.239317 333.018553 
L 531.580126 302.245118 
L 532.920935 314.448967 
L 534.261744 311.819393 
L 535.602553 310.324927 
L 536.943362 306.138143 
L 538.284171 315.027929 
L 539.62498 333.018553 
L 540.965789 305.000182 
L 542.306598 313.978381 
L 543.647407 317.782993 
L 544.988216 315.045042 
L 546.329025 316.973016 
L 547.669834 319.291719 
L 549.010643 333.018553 
L 550.351452 311.28321 
L 551.692261 317.643244 
L 553.03307 319.773712 
L 554.373879 320.067471 
L 555.714688 320.130216 
L 557.055497 321.094203 
L 558.396306 333.018553 
L 559.737115 318.590118 
L 561.077924 322.996509 
L 562.418732 322.123787 
L 563.759541 333.018553 
L 565.10035 333.018553 
L 566.441159 310.55309 
L 567.781968 333.018553 
L 569.122777 322.893836 
L 570.463586 321.715946 
L 571.804395 319.380132 
L 573.145204 333.018553 
L 574.486013 333.018553 
L 575.826822 305.924241 
L 577.167631 333.018553 
L 578.50844 317.360892 
L 579.849249 324.374041 
L 581.190058 319.169081 
L 582.530867 320.900265 
L 583.871676 321.872808 
L 585.212485 324.753361 
L 586.553294 333.018553 
L 587.894103 318.390476 
L 589.234912 325.979736 
L 590.575721 324.097394 
L 591.91653 323.621104 
L 593.257339 324.459602 
L 594.598148 326.712708 
L 595.938957 333.018553 
L 597.279766 323.484207 
L 598.620575 328.612162 
L 599.961384 323.903456 
L 601.302193 325.851394 
L 602.643002 325.780093 
L 603.983811 327.810741 
L 605.32462 333.018553 
L 606.665429 323.472799 
L 608.006237 327.100584 
L 609.347046 327.129105 
L 610.687855 326.587219 
L 612.028664 326.918054 
L 613.369473 328.709131 
L 614.710282 333.018553 
L 616.051091 325.683124 
L 617.3919 328.93159 
L 618.732709 328.121612 
L 620.073518 327.642471 
L 621.414327 328.016087 
L 622.755136 329.636042 
L 624.095945 333.018553 
L 625.436754 326.949427 
L 626.777563 330.400386 
L 628.118372 329.484884 
L 629.459181 328.720539 
L 630.79999 328.640682 
L 632.140799 330.326234 
L 633.481608 333.018553 
L 634.822417 328.877401 
L 636.163226 329.812868 
L 637.504035 329.482032 
L 638.844844 329.593261 
L 640.185653 328.817508 
L 641.526462 330.67133 
L 642.867271 333.018553 
L 644.20808 328.28703 
L 645.548889 327.930526 
L 646.889698 328.575085 
L 648.230507 328.461004 
L 649.571316 329.433547 
L 650.912125 328.954406 
L 652.252934 333.018553 
L 653.593742 327.699511 
L 654.934551 328.335515 
L 656.27536 328.155837 
L 657.616169 327.807889 
L 658.956978 327.910562 
L 660.297787 328.192913 
L 661.638596 333.018553 
L 662.979405 326.507362 
L 664.320214 328.640682 
L 665.661023 325.369401 
L 667.001832 325.69168 
L 668.342641 324.622168 
L 669.68345 327.305931 
L 671.024259 333.018553 
L 672.365068 322.100971 
L 673.705877 325.666012 
L 675.046686 322.223608 
L 676.387495 324.123062 
L 677.728304 320.421124 
L 679.069113 323.735186 
L 680.409922 333.018553 
L 681.750731 316.568027 
L 683.09154 320.070324 
L 685.773158 316.354125 
L 687.113967 315.72953 
L 688.454776 318.05964 
L 689.795585 333.018553 
L 691.136394 306.671473 
L 692.477203 315.033634 
L 693.818012 312.749155 
L 695.158821 312.774824 
L 696.49963 315.475699 
L 697.840439 306.517463 
L 699.181247 333.018553 
L 700.522056 301.412325 
L 701.862865 315.481403 
L 703.203674 306.297857 
L 704.544483 308.665044 
L 705.885292 307.823695 
L 707.226101 311.517077 
L 708.56691 333.018553 
L 709.907719 302.92105 
L 711.248528 303.708211 
L 712.589337 306.354898 
L 713.930146 312.509584 
L 715.270955 304.926029 
L 716.611764 315.689601 
L 717.952573 333.018553 
L 719.293382 306.862559 
L 720.634191 314.192284 
L 721.975 315.98336 
L 723.315809 317.301 
L 724.656618 316.933087 
L 725.997427 318.176574 
L 727.338236 333.018553 
L 728.679045 312.82616 
L 730.019854 319.944834 
L 731.360663 318.920954 
L 732.701472 321.048571 
L 734.042281 322.00115 
L 735.38309 322.443215 
L 736.723899 333.018553 
L 738.064708 317.169806 
L 739.405517 324.12021 
L 740.746326 324.328409 
L 742.087135 321.288142 
L 744.768753 325.668864 
L 746.109561 333.018553 
L 747.45037 324.499531 
L 748.791179 325.409329 
L 750.131988 325.132682 
L 751.472797 326.259235 
L 752.813606 327.02358 
L 754.154415 328.766172 
L 755.495224 333.018553 
L 756.836033 325.671716 
L 758.176842 328.640682 
L 759.517651 327.457089 
L 760.85846 328.540861 
L 762.199269 329.427843 
L 763.540078 329.579001 
L 764.880887 333.018553 
L 766.221696 328.629274 
L 767.562505 330.243525 
L 768.903314 330.009658 
L 770.244123 331.20466 
L 771.584932 330.92516 
L 772.925741 331.395746 
L 774.26655 333.018553 
L 775.607359 333.018553 
L 776.948168 330.212152 
L 778.288977 331.601092 
L 780.970595 331.438526 
L 782.311404 331.795031 
L 783.652213 333.018553 
L 784.993022 331.700913 
L 786.333831 331.986117 
L 787.67464 332.145831 
L 789.015449 331.986117 
L 790.356258 332.080234 
L 791.697066 332.362585 
L 793.037875 333.018553 
L 794.378684 331.909112 
L 795.719493 332.391105 
L 797.060302 332.388253 
L 799.74192 332.573635 
L 801.082729 333.018553 
L 802.423538 333.018553 
L 803.764347 331.997525 
L 805.105156 332.63638 
L 806.445965 332.345473 
L 807.786774 332.519447 
L 809.127583 332.827466 
L 810.468392 333.018553 
L 811.809201 333.018553 
L 813.15001 332.014637 
L 814.490819 332.334065 
L 815.831628 332.140126 
L 818.513246 332.63638 
L 819.854055 333.018553 
L 822.535673 333.018553 
L 823.876482 331.498419 
L 825.217291 333.018553 
L 826.5581 333.018553 
L 827.898909 330.631401 
L 829.239718 333.018553 
L 831.921336 333.018553 
L 833.262145 330.899492 
L 834.602954 333.018553 
L 835.943763 333.018553 
L 837.284571 330.326234 
L 838.62538 333.018553 
L 841.306998 333.018553 
L 842.647807 329.601817 
L 843.988616 333.018553 
L 845.329425 333.018553 
L 846.670234 328.084536 
L 848.011043 333.018553 
L 850.692661 333.018553 
L 852.03347 327.117697 
L 853.374279 333.018553 
L 854.715088 333.018553 
L 856.055897 325.383661 
L 857.396706 333.018553 
L 860.078324 333.018553 
L 861.419133 324.516643 
L 862.759942 333.018553 
L 864.100751 333.018553 
L 865.44156 320.144476 
L 866.782369 333.018553 
L 868.123178 333.018553 
L 869.463987 324.234291 
L 870.804796 333.018553 
L 872.145605 323.5441 
L 873.486414 333.018553 
L 874.827223 322.674229 
L 876.168032 333.018553 
L 877.508841 333.018553 
L 878.84965 321.924145 
L 880.190459 333.018553 
L 881.531268 323.58688 
L 882.872076 333.018553 
L 884.212885 319.197601 
L 885.553694 333.018553 
L 886.894503 333.018553 
L 888.235312 320.797592 
L 889.576121 333.018553 
L 890.91693 318.202242 
L 892.257739 333.018553 
L 893.598548 320.024691 
L 894.939357 333.018553 
L 896.280166 333.018553 
L 897.620975 316.9502 
L 898.961784 333.018553 
L 900.302593 317.822922 
L 901.643402 333.018553 
L 902.984211 317.925595 
L 904.32502 333.018553 
L 907.006638 333.018553 
L 908.347447 313.31671 
L 911.029065 333.018553 
L 912.369874 312.991578 
L 913.710683 333.018553 
L 915.051492 333.018553 
L 916.392301 313.057175 
L 917.73311 333.018553 
L 919.073919 310.895334 
L 920.414728 333.018553 
L 921.755537 313.949861 
L 923.096346 333.018553 
L 924.437155 333.018553 
L 925.777964 309.623327 
L 927.118773 333.018553 
L 928.459581 311.006563 
L 929.80039 333.018553 
L 931.141199 312.806196 
L 932.482008 333.018553 
L 933.822817 333.018553 
L 935.163626 308.151678 
L 936.504435 333.018553 
L 937.845244 308.222979 
L 939.186053 333.018553 
L 940.526862 306.337785 
L 941.867671 333.018553 
L 943.20848 333.018553 
L 944.549289 305.014442 
L 945.890098 333.018553 
L 947.230907 305.439395 
L 948.571716 333.018553 
L 949.912525 304.150276 
L 951.253334 333.018553 
L 952.594143 333.018553 
L 953.934952 305.01159 
L 955.275761 333.018553 
L 956.61657 301.999843 
L 957.957379 333.018553 
L 959.298188 304.529597 
L 960.638997 333.018553 
L 961.979806 333.018553 
L 963.320615 306.377714 
L 964.661424 333.018553 
L 966.002233 307.952036 
L 967.343042 333.018553 
L 968.683851 306.842595 
L 970.02466 333.018553 
L 971.365469 333.018553 
L 972.706278 308.570927 
L 974.047087 333.018553 
L 975.387895 305.108559 
L 976.728704 333.018553 
L 978.069513 305.291089 
L 979.410322 333.018553 
L 980.751131 333.018553 
L 982.09194 303.314631 
L 983.432749 333.018553 
L 984.773558 298.856903 
L 986.114367 333.018553 
L 987.455176 298.340685 
L 988.795985 333.018553 
L 990.136794 333.018553 
L 991.477603 304.301434 
L 992.818412 333.018553 
L 994.159221 306.309265 
L 995.50003 333.018553 
L 996.840839 282.312261 
L 998.181648 333.018553 
L 999.522457 333.018553 
L 1000.863266 266.945508 
L 1002.204075 333.018553 
L 1003.544884 281.958609 
L 1004.885693 333.018553 
L 1006.226502 274.606068 
L 1007.567311 333.018553 
L 1008.90812 333.018553 
L 1010.248929 279.480192 
L 1011.589738 333.018553 
L 1012.930547 275.866667 
L 1014.271356 333.018553 
L 1018.293783 333.018553 
L 1019.634592 253.666443 
L 1020.9754 333.018553 
L 1022.316209 276.263099 
L 1023.657018 333.018553 
L 1024.997827 269.212874 
L 1026.338636 333.018553 
L 1027.679445 333.018553 
L 1029.020254 282.189623 
L 1030.361063 333.018553 
L 1031.701872 279.848104 
L 1033.042681 333.018553 
L 1034.38349 293.694724 
L 1035.724299 333.018553 
L 1037.065108 333.018553 
L 1038.405917 282.483383 
L 1039.746726 333.018553 
L 1041.087535 292.000616 
L 1042.428344 333.018553 
L 1043.769153 291.772454 
L 1045.109962 333.018553 
L 1046.450771 333.018553 
L 1047.79158 289.607761 
L 1049.132389 333.018553 
L 1050.473198 286.769988 
L 1051.814007 333.018553 
L 1055.836434 333.018553 
L 1057.177243 231.862652 
L 1058.518052 333.018553 
L 1059.858861 249.513883 
L 1061.19967 333.018553 
L 1065.222097 333.018553 
L 1066.562905 146.047836 
L 1067.903714 333.018553 
L 1069.244523 239.312162 
L 1070.585332 333.018553 
L 1071.926141 199.201172 
L 1073.26695 333.018553 
L 1074.607759 333.018553 
L 1075.948568 192.439002 
L 1077.289377 333.018553 
L 1078.630186 231.03271 
L 1079.970995 333.018553 
L 1081.311804 209.388633 
L 1082.652613 333.018553 
L 1086.67504 333.018553 
L 1088.015849 50.8755 
L 1089.356658 333.018553 
L 1090.697467 215.506244 
L 1092.038276 332.907323 
L 1093.379085 333.018553 
L 1094.719894 207.124119 
L 1096.060703 333.018553 
L 1097.401512 232.401686 
L 1098.742321 333.018553 
L 1100.08313 243.082549 
L 1101.423939 333.018553 
L 1102.764748 333.018553 
L 1104.105557 266.608968 
L 1105.446366 333.018553 
L 1106.787175 263.015407 
L 1108.127984 333.018553 
L 1109.468793 298.680077 
L 1110.809602 333.018553 
L 1112.15041 333.018553 
L 1113.491219 301.352432 
L 1114.832028 333.018553 
L 1116.172837 302.450465 
L 1117.513646 333.018553 
L 1118.854455 310.250774 
L 1120.195264 333.018553 
L 1121.536073 333.018553 
L 1122.876882 315.199051 
L 1124.217691 333.018553 
L 1125.5585 315.039338 
L 1126.899309 333.018553 
L 1128.240118 316.565175 
L 1129.580927 333.055629 
L 1133.603354 333.018553 
L 1134.944163 312.181601 
L 1136.284972 333.018553 
L 1137.625781 311.665383 
L 1138.96659 333.018553 
L 1140.307399 333.018553 
L 1141.648208 326.048184 
L 1142.989017 333.018553 
L 1144.329826 324.12021 
L 1145.670635 333.018553 
L 1147.011444 326.436061 
L 1148.352253 333.018553 
L 1149.693062 333.018553 
L 1151.033871 327.710919 
L 1152.37468 333.018553 
L 1153.715489 326.843902 
L 1155.056298 333.018553 
L 1156.397107 327.499869 
L 1157.737915 333.018553 
L 1159.078724 333.018553 
L 1160.419533 328.603606 
L 1161.760342 333.018553 
L 1163.101151 327.046396 
L 1164.44196 333.018553 
L 1165.782769 324.436786 
L 1167.123578 333.018553 
L 1168.464387 333.018553 
L 1169.805196 328.124464 
L 1171.146005 333.018553 
L 1172.486814 327.194702 
L 1173.827623 333.018553 
L 1175.168432 327.625359 
L 1176.509241 333.018553 
L 1177.85005 333.018553 
L 1179.190859 328.888809 
L 1180.531668 333.018553 
L 1181.872477 327.357267 
L 1183.213286 333.018553 
L 1184.554095 327.357267 
L 1185.894904 333.018553 
L 1189.917331 333.018553 
L 1191.25814 322.297761 
L 1192.598949 333.018553 
L 1199.302994 333.018553 
L 1200.643803 310.986599 
L 1201.984612 333.018553 
L 1208.688656 333.018553 
L 1210.029465 303.146361 
L 1211.370274 333.018553 
L 1218.074319 333.018553 
L 1219.415128 291.715413 
L 1220.755937 333.018553 
L 1227.459982 333.018553 
L 1228.800791 278.98679 
L 1230.1416 333.018553 
L 1236.845645 333.018553 
L 1238.186454 254.002983 
L 1239.527263 333.018553 
L 1246.231308 333.018553 
L 1247.572117 249.548108 
L 1248.912926 333.018553 
L 1255.61697 333.018553 
L 1256.957779 258.956964 
L 1258.298588 333.018553 
L 1265.002633 333.018553 
L 1266.343442 277.304091 
L 1267.684251 333.018553 
L 1274.388296 333.018553 
L 1275.729105 280.389991 
L 1277.069914 333.018553 
L 1283.773959 333.018553 
L 1285.114768 288.589585 
L 1286.455577 333.018553 
L 1293.159622 333.018553 
L 1294.500431 302.55599 
L 1295.841239 333.018553 
L 1301.204475 333.018553 
L 1302.545284 292.083325 
L 1303.886093 333.018553 
L 1310.590138 333.018553 
L 1311.930947 295.651218 
L 1313.271756 333.018553 
L 1313.271756 333.018553 
" clip-path="url(#p6c7e6353a6)" style="fill: none; stroke: #0000ff; stroke-width: 1.5; stroke-linecap: square"/>
   </g>
   <g id="line2d_19">
    <path d="M 1073.26695 309.286317 
L 1074.607759 180.515652 
L 1075.948568 314.037898 
L 1077.289377 235.675809 
L 1078.630186 317.079001 
L 1079.970995 243.579953 
L 1081.311804 318.537171 
L 1082.652613 314.053423 
L 1083.993422 180.528948 
L 1085.334231 315.783955 
L 1086.67504 242.9317 
L 1088.015849 336.108034 
L 1089.356658 215.371343 
L 1090.697467 315.713769 
L 1092.038276 315.219193 
L 1093.379085 250.462305 
L 1094.719894 319.530822 
L 1096.060703 127.064327 
L 1097.401512 314.693937 
L 1098.742321 219.117788 
L 1100.08313 326.993514 
L 1101.423939 329.718385 
L 1102.764748 233.776024 
L 1104.105557 329.943326 
L 1105.446366 191.081147 
L 1106.787175 332.630712 
L 1108.127984 242.897664 
L 1109.468793 339.378578 
L 1110.809602 346.219051 
L 1112.15041 264.021996 
L 1113.491219 342.959961 
L 1114.832028 242.229109 
L 1116.172837 345.112575 
L 1117.513646 286.996344 
L 1118.854455 349.990698 
L 1120.195264 353.2755 
L 1121.536073 295.48678 
L 1122.876882 348.809081 
L 1124.217691 284.363178 
L 1125.5585 349.014987 
L 1126.899309 309.390018 
L 1128.240118 350.684521 
L 1129.580927 352.075111 
L 1130.921736 313.755125 
L 1132.262545 347.866806 
L 1133.603354 308.468698 
L 1134.944163 348.500972 
L 1136.284972 319.602584 
L 1137.625781 347.632519 
L 1138.96659 347.117245 
L 1140.307399 327.801449 
L 1141.648208 344.233366 
L 1142.989017 313.138785 
L 1144.329826 342.888343 
L 1145.670635 319.060235 
L 1147.011444 343.058902 
L 1148.352253 344.231401 
L 1149.693062 330.78432 
L 1151.033871 341.96487 
L 1152.37468 322.034019 
L 1153.715489 340.775699 
L 1155.056298 325.762185 
L 1156.397107 340.568122 
L 1157.737915 341.001257 
L 1159.078724 331.463052 
L 1160.419533 339.40074 
L 1161.760342 326.390286 
L 1163.101151 338.525662 
L 1164.44196 328.211673 
L 1165.782769 338.163927 
L 1167.123578 337.873188 
L 1168.464387 330.864165 
L 1169.805196 336.918714 
L 1171.146005 327.376408 
L 1172.486814 336.292455 
L 1173.827623 326.849919 
L 1175.168432 335.977831 
L 1176.509241 336.162474 
L 1177.85005 330.17206 
L 1179.190859 335.541175 
L 1180.531668 327.939087 
L 1181.872477 335.197718 
L 1183.213286 327.795178 
L 1184.554095 334.957135 
L 1185.894904 334.967797 
L 1187.235713 329.900137 
L 1188.576522 334.530172 
L 1189.917331 328.39087 
L 1191.25814 334.818981 
L 1192.598949 327.657806 
L 1193.939758 333.950987 
L 1195.280567 334.619669 
L 1196.621376 332.066648 
L 1197.962185 334.28549 
L 1199.302994 325.803769 
L 1200.643803 334.495637 
L 1201.984612 329.594432 
L 1203.325421 332.770649 
L 1204.666229 333.174426 
L 1206.007038 331.987372 
L 1207.347847 333.138309 
L 1208.688656 317.898095 
L 1210.029465 333.459416 
L 1211.370274 330.158843 
L 1212.711083 331.842978 
L 1214.051892 332.152126 
L 1215.392701 331.668218 
L 1216.73351 332.323034 
L 1218.074319 309.827895 
L 1219.415128 332.799844 
L 1220.755937 329.878842 
L 1222.096746 330.886753 
L 1223.437555 331.200558 
L 1224.778364 331.108104 
L 1226.119173 331.560359 
L 1227.459982 299.764247 
L 1228.800791 332.2033 
L 1230.1416 329.340447 
L 1231.482409 330.05704 
L 1232.823218 330.409923 
L 1234.164027 330.542857 
L 1235.504836 330.925225 
L 1236.845645 288.156955 
L 1238.186454 331.878327 
L 1239.527263 327.61165 
L 1240.868072 328.334796 
L 1242.208881 328.841281 
L 1244.890499 329.661976 
L 1246.231308 268.981774 
L 1247.572117 330.656253 
L 1248.912926 328.193934 
L 1250.253734 328.773907 
L 1252.935352 329.584526 
L 1254.276161 329.971302 
L 1255.61697 258.144261 
L 1256.957779 330.604952 
L 1258.298588 330.589362 
L 1260.980206 331.112765 
L 1263.661824 331.493476 
L 1265.002633 258.800504 
L 1266.343442 331.554223 
L 1267.684251 333.688463 
L 1273.047487 333.489969 
L 1274.388296 269.5096 
L 1275.729105 333.246847 
L 1277.069914 334.538615 
L 1282.43315 334.03404 
L 1283.773959 275.93818 
L 1285.114768 333.652226 
L 1286.455577 335.171721 
L 1291.818813 334.441279 
L 1293.159622 283.363769 
L 1294.500431 333.880294 
L 1295.841239 336.185227 
L 1299.863666 335.326938 
L 1301.204475 335.097664 
L 1302.545284 295.0681 
L 1303.886093 329.874796 
L 1305.226902 334.917829 
L 1309.249329 334.409295 
L 1310.590138 313.60007 
L 1311.930947 314.532527 
L 1313.271756 332.022219 
L 1313.271756 332.022219 
" clip-path="url(#p6c7e6353a6)" style="fill: none; stroke: #ffa500; stroke-width: 1.5; stroke-linecap: square"/>
   </g>
   <g id="line2d_20">
    <path d="M 1313.271756 332.022219 
L 1314.612565 334.461696 
L 1315.953374 334.183422 
L 1317.294183 334.22186 
L 1318.634992 334.223027 
L 1319.975801 305.198647 
L 1321.31661 324.474947 
L 1322.657419 333.736304 
L 1323.998228 334.973261 
L 1325.339037 334.838308 
L 1326.679846 334.862991 
L 1328.020655 334.868736 
L 1329.361464 305.950565 
L 1330.702273 325.160668 
" clip-path="url(#p6c7e6353a6)" style="fill: none; stroke: #ff0000; stroke-width: 1.5; stroke-linecap: square"/>
   </g>
   <g id="patch_3">
    <path d="M 52.375 368.3955 
L 52.375 35.7555 
" style="fill: none; stroke: #000000; stroke-width: 0.8; stroke-linejoin: miter; stroke-linecap: square"/>
   </g>
   <g id="patch_4">
    <path d="M 1391.575 368.3955 
L 1391.575 35.7555 
" style="fill: none; stroke: #000000; stroke-width: 0.8; stroke-linejoin: miter; stroke-linecap: square"/>
   </g>
   <g id="patch_5">
    <path d="M 52.375 368.3955 
L 1391.575 368.3955 
" style="fill: none; stroke: #000000; stroke-width: 0.8; stroke-linejoin: miter; stroke-linecap: square"/>
   </g>
   <g id="patch_6">
    <path d="M 52.375 35.7555 
L 1391.575 35.7555 
" style="fill: none; stroke: #000000; stroke-width: 0.8; stroke-linejoin: miter; stroke-linecap: square"/>
   </g>
   <g id="text_18">
    <!-- Daily Confirmed Cases Forecasting - Michigan -->
    <g transform="translate(584.574063 16.318125)scale(0.12 -0.12)">
     <defs>
      <path id="DejaVuSans-44" d="M 1259 4147 
L 1259 519 
L 2022 519 
Q 2988 519 3436 956 
Q 3884 1394 3884 2338 
Q 3884 3275 3436 3711 
Q 2988 4147 2022 4147 
L 1259 4147 
z
M 628 4666 
L 1925 4666 
Q 3281 4666 3915 4102 
Q 4550 3538 4550 2338 
Q 4550 1131 3912 565 
Q 3275 0 1925 0 
L 628 0 
L 628 4666 
z
" transform="scale(0.015625)"/>
      <path id="DejaVuSans-61" d="M 2194 1759 
Q 1497 1759 1228 1600 
Q 959 1441 959 1056 
Q 959 750 1161 570 
Q 1363 391 1709 391 
Q 2188 391 2477 730 
Q 2766 1069 2766 1631 
L 2766 1759 
L 2194 1759 
z
M 3341 1997 
L 3341 0 
L 2766 0 
L 2766 531 
Q 2569 213 2275 61 
Q 1981 -91 1556 -91 
Q 1019 -91 701 211 
Q 384 513 384 1019 
Q 384 1609 779 1909 
Q 1175 2209 1959 2209 
L 2766 2209 
L 2766 2266 
Q 2766 2663 2505 2880 
Q 2244 3097 1772 3097 
Q 1472 3097 1187 3025 
Q 903 2953 641 2809 
L 641 3341 
Q 956 3463 1253 3523 
Q 1550 3584 1831 3584 
Q 2591 3584 2966 3190 
Q 3341 2797 3341 1997 
z
" transform="scale(0.015625)"/>
      <path id="DejaVuSans-69" d="M 603 3500 
L 1178 3500 
L 1178 0 
L 603 0 
L 603 3500 
z
M 603 4863 
L 1178 4863 
L 1178 4134 
L 603 4134 
L 603 4863 
z
" transform="scale(0.015625)"/>
      <path id="DejaVuSans-6c" d="M 603 4863 
L 1178 4863 
L 1178 0 
L 603 0 
L 603 4863 
z
" transform="scale(0.015625)"/>
      <path id="DejaVuSans-79" d="M 2059 -325 
Q 1816 -950 1584 -1140 
Q 1353 -1331 966 -1331 
L 506 -1331 
L 506 -850 
L 844 -850 
Q 1081 -850 1212 -737 
Q 1344 -625 1503 -206 
L 1606 56 
L 191 3500 
L 800 3500 
L 1894 763 
L 2988 3500 
L 3597 3500 
L 2059 -325 
z
" transform="scale(0.015625)"/>
      <path id="DejaVuSans-20" transform="scale(0.015625)"/>
      <path id="DejaVuSans-43" d="M 4122 4306 
L 4122 3641 
Q 3803 3938 3442 4084 
Q 3081 4231 2675 4231 
Q 1875 4231 1450 3742 
Q 1025 3253 1025 2328 
Q 1025 1406 1450 917 
Q 1875 428 2675 428 
Q 3081 428 3442 575 
Q 3803 722 4122 1019 
L 4122 359 
Q 3791 134 3420 21 
Q 3050 -91 2638 -91 
Q 1578 -91 968 557 
Q 359 1206 359 2328 
Q 359 3453 968 4101 
Q 1578 4750 2638 4750 
Q 3056 4750 3426 4639 
Q 3797 4528 4122 4306 
z
" transform="scale(0.015625)"/>
      <path id="DejaVuSans-6f" d="M 1959 3097 
Q 1497 3097 1228 2736 
Q 959 2375 959 1747 
Q 959 1119 1226 758 
Q 1494 397 1959 397 
Q 2419 397 2687 759 
Q 2956 1122 2956 1747 
Q 2956 2369 2687 2733 
Q 2419 3097 1959 3097 
z
M 1959 3584 
Q 2709 3584 3137 3096 
Q 3566 2609 3566 1747 
Q 3566 888 3137 398 
Q 2709 -91 1959 -91 
Q 1206 -91 779 398 
Q 353 888 353 1747 
Q 353 2609 779 3096 
Q 1206 3584 1959 3584 
z
" transform="scale(0.015625)"/>
      <path id="DejaVuSans-6e" d="M 3513 2113 
L 3513 0 
L 2938 0 
L 2938 2094 
Q 2938 2591 2744 2837 
Q 2550 3084 2163 3084 
Q 1697 3084 1428 2787 
Q 1159 2491 1159 1978 
L 1159 0 
L 581 0 
L 581 3500 
L 1159 3500 
L 1159 2956 
Q 1366 3272 1645 3428 
Q 1925 3584 2291 3584 
Q 2894 3584 3203 3211 
Q 3513 2838 3513 2113 
z
" transform="scale(0.015625)"/>
      <path id="DejaVuSans-66" d="M 2375 4863 
L 2375 4384 
L 1825 4384 
Q 1516 4384 1395 4259 
Q 1275 4134 1275 3809 
L 1275 3500 
L 2222 3500 
L 2222 3053 
L 1275 3053 
L 1275 0 
L 697 0 
L 697 3053 
L 147 3053 
L 147 3500 
L 697 3500 
L 697 3744 
Q 697 4328 969 4595 
Q 1241 4863 1831 4863 
L 2375 4863 
z
" transform="scale(0.015625)"/>
      <path id="DejaVuSans-72" d="M 2631 2963 
Q 2534 3019 2420 3045 
Q 2306 3072 2169 3072 
Q 1681 3072 1420 2755 
Q 1159 2438 1159 1844 
L 1159 0 
L 581 0 
L 581 3500 
L 1159 3500 
L 1159 2956 
Q 1341 3275 1631 3429 
Q 1922 3584 2338 3584 
Q 2397 3584 2469 3576 
Q 2541 3569 2628 3553 
L 2631 2963 
z
" transform="scale(0.015625)"/>
      <path id="DejaVuSans-6d" d="M 3328 2828 
Q 3544 3216 3844 3400 
Q 4144 3584 4550 3584 
Q 5097 3584 5394 3201 
Q 5691 2819 5691 2113 
L 5691 0 
L 5113 0 
L 5113 2094 
Q 5113 2597 4934 2840 
Q 4756 3084 4391 3084 
Q 3944 3084 3684 2787 
Q 3425 2491 3425 1978 
L 3425 0 
L 2847 0 
L 2847 2094 
Q 2847 2600 2669 2842 
Q 2491 3084 2119 3084 
Q 1678 3084 1418 2786 
Q 1159 2488 1159 1978 
L 1159 0 
L 581 0 
L 581 3500 
L 1159 3500 
L 1159 2956 
Q 1356 3278 1631 3431 
Q 1906 3584 2284 3584 
Q 2666 3584 2933 3390 
Q 3200 3197 3328 2828 
z
" transform="scale(0.015625)"/>
      <path id="DejaVuSans-65" d="M 3597 1894 
L 3597 1613 
L 953 1613 
Q 991 1019 1311 708 
Q 1631 397 2203 397 
Q 2534 397 2845 478 
Q 3156 559 3463 722 
L 3463 178 
Q 3153 47 2828 -22 
Q 2503 -91 2169 -91 
Q 1331 -91 842 396 
Q 353 884 353 1716 
Q 353 2575 817 3079 
Q 1281 3584 2069 3584 
Q 2775 3584 3186 3129 
Q 3597 2675 3597 1894 
z
M 3022 2063 
Q 3016 2534 2758 2815 
Q 2500 3097 2075 3097 
Q 1594 3097 1305 2825 
Q 1016 2553 972 2059 
L 3022 2063 
z
" transform="scale(0.015625)"/>
      <path id="DejaVuSans-64" d="M 2906 2969 
L 2906 4863 
L 3481 4863 
L 3481 0 
L 2906 0 
L 2906 525 
Q 2725 213 2448 61 
Q 2172 -91 1784 -91 
Q 1150 -91 751 415 
Q 353 922 353 1747 
Q 353 2572 751 3078 
Q 1150 3584 1784 3584 
Q 2172 3584 2448 3432 
Q 2725 3281 2906 2969 
z
M 947 1747 
Q 947 1113 1208 752 
Q 1469 391 1925 391 
Q 2381 391 2643 752 
Q 2906 1113 2906 1747 
Q 2906 2381 2643 2742 
Q 2381 3103 1925 3103 
Q 1469 3103 1208 2742 
Q 947 2381 947 1747 
z
" transform="scale(0.015625)"/>
      <path id="DejaVuSans-73" d="M 2834 3397 
L 2834 2853 
Q 2591 2978 2328 3040 
Q 2066 3103 1784 3103 
Q 1356 3103 1142 2972 
Q 928 2841 928 2578 
Q 928 2378 1081 2264 
Q 1234 2150 1697 2047 
L 1894 2003 
Q 2506 1872 2764 1633 
Q 3022 1394 3022 966 
Q 3022 478 2636 193 
Q 2250 -91 1575 -91 
Q 1294 -91 989 -36 
Q 684 19 347 128 
L 347 722 
Q 666 556 975 473 
Q 1284 391 1588 391 
Q 1994 391 2212 530 
Q 2431 669 2431 922 
Q 2431 1156 2273 1281 
Q 2116 1406 1581 1522 
L 1381 1569 
Q 847 1681 609 1914 
Q 372 2147 372 2553 
Q 372 3047 722 3315 
Q 1072 3584 1716 3584 
Q 2034 3584 2315 3537 
Q 2597 3491 2834 3397 
z
" transform="scale(0.015625)"/>
      <path id="DejaVuSans-46" d="M 628 4666 
L 3309 4666 
L 3309 4134 
L 1259 4134 
L 1259 2759 
L 3109 2759 
L 3109 2228 
L 1259 2228 
L 1259 0 
L 628 0 
L 628 4666 
z
" transform="scale(0.015625)"/>
      <path id="DejaVuSans-63" d="M 3122 3366 
L 3122 2828 
Q 2878 2963 2633 3030 
Q 2388 3097 2138 3097 
Q 1578 3097 1268 2742 
Q 959 2388 959 1747 
Q 959 1106 1268 751 
Q 1578 397 2138 397 
Q 2388 397 2633 464 
Q 2878 531 3122 666 
L 3122 134 
Q 2881 22 2623 -34 
Q 2366 -91 2075 -91 
Q 1284 -91 818 406 
Q 353 903 353 1747 
Q 353 2603 823 3093 
Q 1294 3584 2113 3584 
Q 2378 3584 2631 3529 
Q 2884 3475 3122 3366 
z
" transform="scale(0.015625)"/>
      <path id="DejaVuSans-74" d="M 1172 4494 
L 1172 3500 
L 2356 3500 
L 2356 3053 
L 1172 3053 
L 1172 1153 
Q 1172 725 1289 603 
Q 1406 481 1766 481 
L 2356 481 
L 2356 0 
L 1766 0 
Q 1100 0 847 248 
Q 594 497 594 1153 
L 594 3053 
L 172 3053 
L 172 3500 
L 594 3500 
L 594 4494 
L 1172 4494 
z
" transform="scale(0.015625)"/>
      <path id="DejaVuSans-67" d="M 2906 1791 
Q 2906 2416 2648 2759 
Q 2391 3103 1925 3103 
Q 1463 3103 1205 2759 
Q 947 2416 947 1791 
Q 947 1169 1205 825 
Q 1463 481 1925 481 
Q 2391 481 2648 825 
Q 2906 1169 2906 1791 
z
M 3481 434 
Q 3481 -459 3084 -895 
Q 2688 -1331 1869 -1331 
Q 1566 -1331 1297 -1286 
Q 1028 -1241 775 -1147 
L 775 -588 
Q 1028 -725 1275 -790 
Q 1522 -856 1778 -856 
Q 2344 -856 2625 -561 
Q 2906 -266 2906 331 
L 2906 616 
Q 2728 306 2450 153 
Q 2172 0 1784 0 
Q 1141 0 747 490 
Q 353 981 353 1791 
Q 353 2603 747 3093 
Q 1141 3584 1784 3584 
Q 2172 3584 2450 3431 
Q 2728 3278 2906 2969 
L 2906 3500 
L 3481 3500 
L 3481 434 
z
" transform="scale(0.015625)"/>
      <path id="DejaVuSans-4d" d="M 628 4666 
L 1569 4666 
L 2759 1491 
L 3956 4666 
L 4897 4666 
L 4897 0 
L 4281 0 
L 4281 4097 
L 3078 897 
L 2444 897 
L 1241 4097 
L 1241 0 
L 628 0 
L 628 4666 
z
" transform="scale(0.015625)"/>
      <path id="DejaVuSans-68" d="M 3513 2113 
L 3513 0 
L 2938 0 
L 2938 2094 
Q 2938 2591 2744 2837 
Q 2550 3084 2163 3084 
Q 1697 3084 1428 2787 
Q 1159 2491 1159 1978 
L 1159 0 
L 581 0 
L 581 4863 
L 1159 4863 
L 1159 2956 
Q 1366 3272 1645 3428 
Q 1925 3584 2291 3584 
Q 2894 3584 3203 3211 
Q 3513 2838 3513 2113 
z
" transform="scale(0.015625)"/>
     </defs>
     <use xlink:href="#DejaVuSans-44"/>
     <use xlink:href="#DejaVuSans-61" x="77.001953"/>
     <use xlink:href="#DejaVuSans-69" x="138.28125"/>
     <use xlink:href="#DejaVuSans-6c" x="166.064453"/>
     <use xlink:href="#DejaVuSans-79" x="193.847656"/>
     <use xlink:href="#DejaVuSans-20" x="253.027344"/>
     <use xlink:href="#DejaVuSans-43" x="284.814453"/>
     <use xlink:href="#DejaVuSans-6f" x="354.638672"/>
     <use xlink:href="#DejaVuSans-6e" x="415.820312"/>
     <use xlink:href="#DejaVuSans-66" x="479.199219"/>
     <use xlink:href="#DejaVuSans-69" x="514.404297"/>
     <use xlink:href="#DejaVuSans-72" x="542.1875"/>
     <use xlink:href="#DejaVuSans-6d" x="581.550781"/>
     <use xlink:href="#DejaVuSans-65" x="678.962891"/>
     <use xlink:href="#DejaVuSans-64" x="740.486328"/>
     <use xlink:href="#DejaVuSans-20" x="803.962891"/>
     <use xlink:href="#DejaVuSans-43" x="835.75"/>
     <use xlink:href="#DejaVuSans-61" x="905.574219"/>
     <use xlink:href="#DejaVuSans-73" x="966.853516"/>
     <use xlink:href="#DejaVuSans-65" x="1018.953125"/>
     <use xlink:href="#DejaVuSans-73" x="1080.476562"/>
     <use xlink:href="#DejaVuSans-20" x="1132.576172"/>
     <use xlink:href="#DejaVuSans-46" x="1164.363281"/>
     <use xlink:href="#DejaVuSans-6f" x="1218.257812"/>
     <use xlink:href="#DejaVuSans-72" x="1279.439453"/>
     <use xlink:href="#DejaVuSans-65" x="1318.302734"/>
     <use xlink:href="#DejaVuSans-63" x="1379.826172"/>
     <use xlink:href="#DejaVuSans-61" x="1434.806641"/>
     <use xlink:href="#DejaVuSans-73" x="1496.085938"/>
     <use xlink:href="#DejaVuSans-74" x="1548.185547"/>
     <use xlink:href="#DejaVuSans-69" x="1587.394531"/>
     <use xlink:href="#DejaVuSans-6e" x="1615.177734"/>
     <use xlink:href="#DejaVuSans-67" x="1678.556641"/>
     <use xlink:href="#DejaVuSans-20" x="1742.033203"/>
     <use xlink:href="#DejaVuSans-2d" x="1773.820312"/>
     <use xlink:href="#DejaVuSans-20" x="1809.904297"/>
     <use xlink:href="#DejaVuSans-4d" x="1841.691406"/>
     <use xlink:href="#DejaVuSans-69" x="1927.970703"/>
     <use xlink:href="#DejaVuSans-63" x="1955.753906"/>
     <use xlink:href="#DejaVuSans-68" x="2010.734375"/>
     <use xlink:href="#DejaVuSans-69" x="2074.113281"/>
     <use xlink:href="#DejaVuSans-67" x="2101.896484"/>
     <use xlink:href="#DejaVuSans-61" x="2165.373047"/>
     <use xlink:href="#DejaVuSans-6e" x="2226.652344"/>
    </g>
    <!-- ARIMA (1, 1, 1)x(1, 0, 1, 7) (R2 = -1.265560) -->
    <g transform="translate(587.82625 29.7555)scale(0.12 -0.12)">
     <defs>
      <path id="DejaVuSans-41" d="M 2188 4044 
L 1331 1722 
L 3047 1722 
L 2188 4044 
z
M 1831 4666 
L 2547 4666 
L 4325 0 
L 3669 0 
L 3244 1197 
L 1141 1197 
L 716 0 
L 50 0 
L 1831 4666 
z
" transform="scale(0.015625)"/>
      <path id="DejaVuSans-52" d="M 2841 2188 
Q 3044 2119 3236 1894 
Q 3428 1669 3622 1275 
L 4263 0 
L 3584 0 
L 2988 1197 
Q 2756 1666 2539 1819 
Q 2322 1972 1947 1972 
L 1259 1972 
L 1259 0 
L 628 0 
L 628 4666 
L 2053 4666 
Q 2853 4666 3247 4331 
Q 3641 3997 3641 3322 
Q 3641 2881 3436 2590 
Q 3231 2300 2841 2188 
z
M 1259 4147 
L 1259 2491 
L 2053 2491 
Q 2509 2491 2742 2702 
Q 2975 2913 2975 3322 
Q 2975 3731 2742 3939 
Q 2509 4147 2053 4147 
L 1259 4147 
z
" transform="scale(0.015625)"/>
      <path id="DejaVuSans-49" d="M 628 4666 
L 1259 4666 
L 1259 0 
L 628 0 
L 628 4666 
z
" transform="scale(0.015625)"/>
      <path id="DejaVuSans-28" d="M 1984 4856 
Q 1566 4138 1362 3434 
Q 1159 2731 1159 2009 
Q 1159 1288 1364 580 
Q 1569 -128 1984 -844 
L 1484 -844 
Q 1016 -109 783 600 
Q 550 1309 550 2009 
Q 550 2706 781 3412 
Q 1013 4119 1484 4856 
L 1984 4856 
z
" transform="scale(0.015625)"/>
      <path id="DejaVuSans-2c" d="M 750 794 
L 1409 794 
L 1409 256 
L 897 -744 
L 494 -744 
L 750 256 
L 750 794 
z
" transform="scale(0.015625)"/>
      <path id="DejaVuSans-29" d="M 513 4856 
L 1013 4856 
Q 1481 4119 1714 3412 
Q 1947 2706 1947 2009 
Q 1947 1309 1714 600 
Q 1481 -109 1013 -844 
L 513 -844 
Q 928 -128 1133 580 
Q 1338 1288 1338 2009 
Q 1338 2731 1133 3434 
Q 928 4138 513 4856 
z
" transform="scale(0.015625)"/>
      <path id="DejaVuSans-78" d="M 3513 3500 
L 2247 1797 
L 3578 0 
L 2900 0 
L 1881 1375 
L 863 0 
L 184 0 
L 1544 1831 
L 300 3500 
L 978 3500 
L 1906 2253 
L 2834 3500 
L 3513 3500 
z
" transform="scale(0.015625)"/>
      <path id="DejaVuSans-3d" d="M 678 2906 
L 4684 2906 
L 4684 2381 
L 678 2381 
L 678 2906 
z
M 678 1631 
L 4684 1631 
L 4684 1100 
L 678 1100 
L 678 1631 
z
" transform="scale(0.015625)"/>
      <path id="DejaVuSans-2e" d="M 684 794 
L 1344 794 
L 1344 0 
L 684 0 
L 684 794 
z
" transform="scale(0.015625)"/>
      <path id="DejaVuSans-35" d="M 691 4666 
L 3169 4666 
L 3169 4134 
L 1269 4134 
L 1269 2991 
Q 1406 3038 1543 3061 
Q 1681 3084 1819 3084 
Q 2600 3084 3056 2656 
Q 3513 2228 3513 1497 
Q 3513 744 3044 326 
Q 2575 -91 1722 -91 
Q 1428 -91 1123 -41 
Q 819 9 494 109 
L 494 744 
Q 775 591 1075 516 
Q 1375 441 1709 441 
Q 2250 441 2565 725 
Q 2881 1009 2881 1497 
Q 2881 1984 2565 2268 
Q 2250 2553 1709 2553 
Q 1456 2553 1204 2497 
Q 953 2441 691 2322 
L 691 4666 
z
" transform="scale(0.015625)"/>
     </defs>
     <use xlink:href="#DejaVuSans-41"/>
     <use xlink:href="#DejaVuSans-52" x="68.408203"/>
     <use xlink:href="#DejaVuSans-49" x="137.890625"/>
     <use xlink:href="#DejaVuSans-4d" x="167.382812"/>
     <use xlink:href="#DejaVuSans-41" x="253.662109"/>
     <use xlink:href="#DejaVuSans-20" x="322.070312"/>
     <use xlink:href="#DejaVuSans-28" x="353.857422"/>
     <use xlink:href="#DejaVuSans-31" x="392.871094"/>
     <use xlink:href="#DejaVuSans-2c" x="456.494141"/>
     <use xlink:href="#DejaVuSans-20" x="488.28125"/>
     <use xlink:href="#DejaVuSans-31" x="520.068359"/>
     <use xlink:href="#DejaVuSans-2c" x="583.691406"/>
     <use xlink:href="#DejaVuSans-20" x="615.478516"/>
     <use xlink:href="#DejaVuSans-31" x="647.265625"/>
     <use xlink:href="#DejaVuSans-29" x="710.888672"/>
     <use xlink:href="#DejaVuSans-78" x="749.902344"/>
     <use xlink:href="#DejaVuSans-28" x="809.082031"/>
     <use xlink:href="#DejaVuSans-31" x="848.095703"/>
     <use xlink:href="#DejaVuSans-2c" x="911.71875"/>
     <use xlink:href="#DejaVuSans-20" x="943.505859"/>
     <use xlink:href="#DejaVuSans-30" x="975.292969"/>
     <use xlink:href="#DejaVuSans-2c" x="1038.916016"/>
     <use xlink:href="#DejaVuSans-20" x="1070.703125"/>
     <use xlink:href="#DejaVuSans-31" x="1102.490234"/>
     <use xlink:href="#DejaVuSans-2c" x="1166.113281"/>
     <use xlink:href="#DejaVuSans-20" x="1197.900391"/>
     <use xlink:href="#DejaVuSans-37" x="1229.6875"/>
     <use xlink:href="#DejaVuSans-29" x="1293.310547"/>
     <use xlink:href="#DejaVuSans-20" x="1332.324219"/>
     <use xlink:href="#DejaVuSans-28" x="1364.111328"/>
     <use xlink:href="#DejaVuSans-52" x="1403.125"/>
     <use xlink:href="#DejaVuSans-32" x="1472.607422"/>
     <use xlink:href="#DejaVuSans-20" x="1536.230469"/>
     <use xlink:href="#DejaVuSans-3d" x="1568.017578"/>
     <use xlink:href="#DejaVuSans-20" x="1651.806641"/>
     <use xlink:href="#DejaVuSans-2d" x="1683.59375"/>
     <use xlink:href="#DejaVuSans-31" x="1719.677734"/>
     <use xlink:href="#DejaVuSans-2e" x="1783.300781"/>
     <use xlink:href="#DejaVuSans-32" x="1815.087891"/>
     <use xlink:href="#DejaVuSans-36" x="1878.710938"/>
     <use xlink:href="#DejaVuSans-35" x="1942.333984"/>
     <use xlink:href="#DejaVuSans-35" x="2005.957031"/>
     <use xlink:href="#DejaVuSans-36" x="2069.580078"/>
     <use xlink:href="#DejaVuSans-30" x="2133.203125"/>
     <use xlink:href="#DejaVuSans-29" x="2196.826172"/>
    </g>
   </g>
   <g id="legend_1">
    <g id="patch_7">
     <path d="M 1287.495312 87.789875 
L 1384.575 87.789875 
Q 1386.575 87.789875 1386.575 85.789875 
L 1386.575 42.7555 
Q 1386.575 40.7555 1384.575 40.7555 
L 1287.495312 40.7555 
Q 1285.495312 40.7555 1285.495312 42.7555 
L 1285.495312 85.789875 
Q 1285.495312 87.789875 1287.495312 87.789875 
z
" style="fill: #ffffff; opacity: 0.8; stroke: #cccccc; stroke-linejoin: miter"/>
    </g>
    <g id="line2d_21">
     <path d="M 1289.495312 48.853937 
L 1299.495312 48.853937 
L 1309.495312 48.853937 
" style="fill: none; stroke: #0000ff; stroke-width: 1.5; stroke-linecap: square"/>
    </g>
    <g id="text_19">
     <!-- Actual Value -->
     <g transform="translate(1317.495312 52.353937)scale(0.1 -0.1)">
      <defs>
       <path id="DejaVuSans-75" d="M 544 1381 
L 544 3500 
L 1119 3500 
L 1119 1403 
Q 1119 906 1312 657 
Q 1506 409 1894 409 
Q 2359 409 2629 706 
Q 2900 1003 2900 1516 
L 2900 3500 
L 3475 3500 
L 3475 0 
L 2900 0 
L 2900 538 
Q 2691 219 2414 64 
Q 2138 -91 1772 -91 
Q 1169 -91 856 284 
Q 544 659 544 1381 
z
M 1991 3584 
L 1991 3584 
z
" transform="scale(0.015625)"/>
       <path id="DejaVuSans-56" d="M 1831 0 
L 50 4666 
L 709 4666 
L 2188 738 
L 3669 4666 
L 4325 4666 
L 2547 0 
L 1831 0 
z
" transform="scale(0.015625)"/>
      </defs>
      <use xlink:href="#DejaVuSans-41"/>
      <use xlink:href="#DejaVuSans-63" x="66.658203"/>
      <use xlink:href="#DejaVuSans-74" x="121.638672"/>
      <use xlink:href="#DejaVuSans-75" x="160.847656"/>
      <use xlink:href="#DejaVuSans-61" x="224.226562"/>
      <use xlink:href="#DejaVuSans-6c" x="285.505859"/>
      <use xlink:href="#DejaVuSans-20" x="313.289062"/>
      <use xlink:href="#DejaVuSans-56" x="345.076172"/>
      <use xlink:href="#DejaVuSans-61" x="405.734375"/>
      <use xlink:href="#DejaVuSans-6c" x="467.013672"/>
      <use xlink:href="#DejaVuSans-75" x="494.796875"/>
      <use xlink:href="#DejaVuSans-65" x="558.175781"/>
     </g>
    </g>
    <g id="line2d_22">
     <path d="M 1289.495312 63.532062 
L 1299.495312 63.532062 
L 1309.495312 63.532062 
" style="fill: none; stroke: #ffa500; stroke-width: 1.5; stroke-linecap: square"/>
    </g>
    <g id="text_20">
     <!-- Check Value -->
     <g transform="translate(1317.495312 67.032062)scale(0.1 -0.1)">
      <defs>
       <path id="DejaVuSans-6b" d="M 581 4863 
L 1159 4863 
L 1159 1991 
L 2875 3500 
L 3609 3500 
L 1753 1863 
L 3688 0 
L 2938 0 
L 1159 1709 
L 1159 0 
L 581 0 
L 581 4863 
z
" transform="scale(0.015625)"/>
      </defs>
      <use xlink:href="#DejaVuSans-43"/>
      <use xlink:href="#DejaVuSans-68" x="69.824219"/>
      <use xlink:href="#DejaVuSans-65" x="133.203125"/>
      <use xlink:href="#DejaVuSans-63" x="194.726562"/>
      <use xlink:href="#DejaVuSans-6b" x="249.707031"/>
      <use xlink:href="#DejaVuSans-20" x="307.617188"/>
      <use xlink:href="#DejaVuSans-56" x="339.404297"/>
      <use xlink:href="#DejaVuSans-61" x="400.0625"/>
      <use xlink:href="#DejaVuSans-6c" x="461.341797"/>
      <use xlink:href="#DejaVuSans-75" x="489.125"/>
      <use xlink:href="#DejaVuSans-65" x="552.503906"/>
     </g>
    </g>
    <g id="line2d_23">
     <path d="M 1289.495312 78.210187 
L 1299.495312 78.210187 
L 1309.495312 78.210187 
" style="fill: none; stroke: #ff0000; stroke-width: 1.5; stroke-linecap: square"/>
    </g>
    <g id="text_21">
     <!-- Predict Value -->
     <g transform="translate(1317.495312 81.710187)scale(0.1 -0.1)">
      <defs>
       <path id="DejaVuSans-50" d="M 1259 4147 
L 1259 2394 
L 2053 2394 
Q 2494 2394 2734 2622 
Q 2975 2850 2975 3272 
Q 2975 3691 2734 3919 
Q 2494 4147 2053 4147 
L 1259 4147 
z
M 628 4666 
L 2053 4666 
Q 2838 4666 3239 4311 
Q 3641 3956 3641 3272 
Q 3641 2581 3239 2228 
Q 2838 1875 2053 1875 
L 1259 1875 
L 1259 0 
L 628 0 
L 628 4666 
z
" transform="scale(0.015625)"/>
      </defs>
      <use xlink:href="#DejaVuSans-50"/>
      <use xlink:href="#DejaVuSans-72" x="58.552734"/>
      <use xlink:href="#DejaVuSans-65" x="97.416016"/>
      <use xlink:href="#DejaVuSans-64" x="158.939453"/>
      <use xlink:href="#DejaVuSans-69" x="222.416016"/>
      <use xlink:href="#DejaVuSans-63" x="250.199219"/>
      <use xlink:href="#DejaVuSans-74" x="305.179688"/>
      <use xlink:href="#DejaVuSans-20" x="344.388672"/>
      <use xlink:href="#DejaVuSans-56" x="376.175781"/>
      <use xlink:href="#DejaVuSans-61" x="436.833984"/>
      <use xlink:href="#DejaVuSans-6c" x="498.113281"/>
      <use xlink:href="#DejaVuSans-75" x="525.896484"/>
      <use xlink:href="#DejaVuSans-65" x="589.275391"/>
     </g>
    </g>
   </g>
  </g>
 </g>
 <defs>
  <clipPath id="p6c7e6353a6">
   <rect x="52.375" y="35.7555" width="1339.2" height="332.64"/>
  </clipPath>
 </defs>
</svg>
