<?xml version="1.0" encoding="utf-8" standalone="no"?>
<!DOCTYPE svg PUBLIC "-//W3C//DTD SVG 1.1//EN"
  "http://www.w3.org/Graphics/SVG/1.1/DTD/svg11.dtd">
<svg xmlns:xlink="http://www.w3.org/1999/xlink" width="1386.05pt" height="392.273625pt" viewBox="0 0 1386.05 392.273625" xmlns="http://www.w3.org/2000/svg" version="1.1">
 <metadata>
  <rdf:RDF xmlns:dc="http://purl.org/dc/elements/1.1/" xmlns:cc="http://creativecommons.org/ns#" xmlns:rdf="http://www.w3.org/1999/02/22-rdf-syntax-ns#">
   <cc:Work>
    <dc:type rdf:resource="http://purl.org/dc/dcmitype/StillImage"/>
    <dc:date>2022-06-20T17:43:52.254275</dc:date>
    <dc:format>image/svg+xml</dc:format>
    <dc:creator>
     <cc:Agent>
      <dc:title>Matplotlib v3.5.2, https://matplotlib.org/</dc:title>
     </cc:Agent>
    </dc:creator>
   </cc:Work>
  </rdf:RDF>
 </metadata>
 <defs>
  <style type="text/css">*{stroke-linejoin: round; stroke-linecap: butt}</style>
 </defs>
 <g id="figure_1">
  <g id="patch_1">
   <path d="M 0 392.273625 
L 1386.05 392.273625 
L 1386.05 0 
L 0 0 
z
" style="fill: #ffffff"/>
  </g>
  <g id="axes_1">
   <g id="patch_2">
    <path d="M 39.65 368.3955 
L 1378.85 368.3955 
L 1378.85 35.7555 
L 39.65 35.7555 
z
" style="fill: #ffffff"/>
   </g>
   <g id="matplotlib.axis_1">
    <g id="xtick_1">
     <g id="line2d_1">
      <defs>
       <path id="mf5df135222" d="M 0 0 
L 0 3.5 
" style="stroke: #000000; stroke-width: 0.8"/>
      </defs>
      <g>
       <use xlink:href="#mf5df135222" x="70.462121" y="368.3955" style="stroke: #000000; stroke-width: 0.8"/>
      </g>
     </g>
     <g id="text_1">
      <!-- 2020-01 -->
      <g transform="translate(49.570715 382.993937)scale(0.1 -0.1)">
       <defs>
        <path id="DejaVuSans-32" d="M 1228 531 
L 3431 531 
L 3431 0 
L 469 0 
L 469 531 
Q 828 903 1448 1529 
Q 2069 2156 2228 2338 
Q 2531 2678 2651 2914 
Q 2772 3150 2772 3378 
Q 2772 3750 2511 3984 
Q 2250 4219 1831 4219 
Q 1534 4219 1204 4116 
Q 875 4013 500 3803 
L 500 4441 
Q 881 4594 1212 4672 
Q 1544 4750 1819 4750 
Q 2544 4750 2975 4387 
Q 3406 4025 3406 3419 
Q 3406 3131 3298 2873 
Q 3191 2616 2906 2266 
Q 2828 2175 2409 1742 
Q 1991 1309 1228 531 
z
" transform="scale(0.015625)"/>
        <path id="DejaVuSans-30" d="M 2034 4250 
Q 1547 4250 1301 3770 
Q 1056 3291 1056 2328 
Q 1056 1369 1301 889 
Q 1547 409 2034 409 
Q 2525 409 2770 889 
Q 3016 1369 3016 2328 
Q 3016 3291 2770 3770 
Q 2525 4250 2034 4250 
z
M 2034 4750 
Q 2819 4750 3233 4129 
Q 3647 3509 3647 2328 
Q 3647 1150 3233 529 
Q 2819 -91 2034 -91 
Q 1250 -91 836 529 
Q 422 1150 422 2328 
Q 422 3509 836 4129 
Q 1250 4750 2034 4750 
z
" transform="scale(0.015625)"/>
        <path id="DejaVuSans-2d" d="M 313 2009 
L 1997 2009 
L 1997 1497 
L 313 1497 
L 313 2009 
z
" transform="scale(0.015625)"/>
        <path id="DejaVuSans-31" d="M 794 531 
L 1825 531 
L 1825 4091 
L 703 3866 
L 703 4441 
L 1819 4666 
L 2450 4666 
L 2450 531 
L 3481 531 
L 3481 0 
L 794 0 
L 794 531 
z
" transform="scale(0.015625)"/>
       </defs>
       <use xlink:href="#DejaVuSans-32"/>
       <use xlink:href="#DejaVuSans-30" x="63.623047"/>
       <use xlink:href="#DejaVuSans-32" x="127.246094"/>
       <use xlink:href="#DejaVuSans-30" x="190.869141"/>
       <use xlink:href="#DejaVuSans-2d" x="254.492188"/>
       <use xlink:href="#DejaVuSans-30" x="290.576172"/>
       <use xlink:href="#DejaVuSans-31" x="354.199219"/>
      </g>
     </g>
    </g>
    <g id="xtick_2">
     <g id="line2d_2">
      <g>
       <use xlink:href="#mf5df135222" x="194.803719" y="368.3955" style="stroke: #000000; stroke-width: 0.8"/>
      </g>
     </g>
     <g id="text_2">
      <!-- 2020-04 -->
      <g transform="translate(173.912313 382.993937)scale(0.1 -0.1)">
       <defs>
        <path id="DejaVuSans-34" d="M 2419 4116 
L 825 1625 
L 2419 1625 
L 2419 4116 
z
M 2253 4666 
L 3047 4666 
L 3047 1625 
L 3713 1625 
L 3713 1100 
L 3047 1100 
L 3047 0 
L 2419 0 
L 2419 1100 
L 313 1100 
L 313 1709 
L 2253 4666 
z
" transform="scale(0.015625)"/>
       </defs>
       <use xlink:href="#DejaVuSans-32"/>
       <use xlink:href="#DejaVuSans-30" x="63.623047"/>
       <use xlink:href="#DejaVuSans-32" x="127.246094"/>
       <use xlink:href="#DejaVuSans-30" x="190.869141"/>
       <use xlink:href="#DejaVuSans-2d" x="254.492188"/>
       <use xlink:href="#DejaVuSans-30" x="290.576172"/>
       <use xlink:href="#DejaVuSans-34" x="354.199219"/>
      </g>
     </g>
    </g>
    <g id="xtick_3">
     <g id="line2d_3">
      <g>
       <use xlink:href="#mf5df135222" x="319.145317" y="368.3955" style="stroke: #000000; stroke-width: 0.8"/>
      </g>
     </g>
     <g id="text_3">
      <!-- 2020-07 -->
      <g transform="translate(298.253911 382.993937)scale(0.1 -0.1)">
       <defs>
        <path id="DejaVuSans-37" d="M 525 4666 
L 3525 4666 
L 3525 4397 
L 1831 0 
L 1172 0 
L 2766 4134 
L 525 4134 
L 525 4666 
z
" transform="scale(0.015625)"/>
       </defs>
       <use xlink:href="#DejaVuSans-32"/>
       <use xlink:href="#DejaVuSans-30" x="63.623047"/>
       <use xlink:href="#DejaVuSans-32" x="127.246094"/>
       <use xlink:href="#DejaVuSans-30" x="190.869141"/>
       <use xlink:href="#DejaVuSans-2d" x="254.492188"/>
       <use xlink:href="#DejaVuSans-30" x="290.576172"/>
       <use xlink:href="#DejaVuSans-37" x="354.199219"/>
      </g>
     </g>
    </g>
    <g id="xtick_4">
     <g id="line2d_4">
      <g>
       <use xlink:href="#mf5df135222" x="444.853306" y="368.3955" style="stroke: #000000; stroke-width: 0.8"/>
      </g>
     </g>
     <g id="text_4">
      <!-- 2020-10 -->
      <g transform="translate(423.9619 382.993937)scale(0.1 -0.1)">
       <use xlink:href="#DejaVuSans-32"/>
       <use xlink:href="#DejaVuSans-30" x="63.623047"/>
       <use xlink:href="#DejaVuSans-32" x="127.246094"/>
       <use xlink:href="#DejaVuSans-30" x="190.869141"/>
       <use xlink:href="#DejaVuSans-2d" x="254.492188"/>
       <use xlink:href="#DejaVuSans-31" x="290.576172"/>
       <use xlink:href="#DejaVuSans-30" x="354.199219"/>
      </g>
     </g>
    </g>
    <g id="xtick_5">
     <g id="line2d_5">
      <g>
       <use xlink:href="#mf5df135222" x="570.561295" y="368.3955" style="stroke: #000000; stroke-width: 0.8"/>
      </g>
     </g>
     <g id="text_5">
      <!-- 2021-01 -->
      <g transform="translate(549.669889 382.993937)scale(0.1 -0.1)">
       <use xlink:href="#DejaVuSans-32"/>
       <use xlink:href="#DejaVuSans-30" x="63.623047"/>
       <use xlink:href="#DejaVuSans-32" x="127.246094"/>
       <use xlink:href="#DejaVuSans-31" x="190.869141"/>
       <use xlink:href="#DejaVuSans-2d" x="254.492188"/>
       <use xlink:href="#DejaVuSans-30" x="290.576172"/>
       <use xlink:href="#DejaVuSans-31" x="354.199219"/>
      </g>
     </g>
    </g>
    <g id="xtick_6">
     <g id="line2d_6">
      <g>
       <use xlink:href="#mf5df135222" x="693.536501" y="368.3955" style="stroke: #000000; stroke-width: 0.8"/>
      </g>
     </g>
     <g id="text_6">
      <!-- 2021-04 -->
      <g transform="translate(672.645095 382.993937)scale(0.1 -0.1)">
       <use xlink:href="#DejaVuSans-32"/>
       <use xlink:href="#DejaVuSans-30" x="63.623047"/>
       <use xlink:href="#DejaVuSans-32" x="127.246094"/>
       <use xlink:href="#DejaVuSans-31" x="190.869141"/>
       <use xlink:href="#DejaVuSans-2d" x="254.492188"/>
       <use xlink:href="#DejaVuSans-30" x="290.576172"/>
       <use xlink:href="#DejaVuSans-34" x="354.199219"/>
      </g>
     </g>
    </g>
    <g id="xtick_7">
     <g id="line2d_7">
      <g>
       <use xlink:href="#mf5df135222" x="817.878099" y="368.3955" style="stroke: #000000; stroke-width: 0.8"/>
      </g>
     </g>
     <g id="text_7">
      <!-- 2021-07 -->
      <g transform="translate(796.986693 382.993937)scale(0.1 -0.1)">
       <use xlink:href="#DejaVuSans-32"/>
       <use xlink:href="#DejaVuSans-30" x="63.623047"/>
       <use xlink:href="#DejaVuSans-32" x="127.246094"/>
       <use xlink:href="#DejaVuSans-31" x="190.869141"/>
       <use xlink:href="#DejaVuSans-2d" x="254.492188"/>
       <use xlink:href="#DejaVuSans-30" x="290.576172"/>
       <use xlink:href="#DejaVuSans-37" x="354.199219"/>
      </g>
     </g>
    </g>
    <g id="xtick_8">
     <g id="line2d_8">
      <g>
       <use xlink:href="#mf5df135222" x="943.586088" y="368.3955" style="stroke: #000000; stroke-width: 0.8"/>
      </g>
     </g>
     <g id="text_8">
      <!-- 2021-10 -->
      <g transform="translate(922.694682 382.993937)scale(0.1 -0.1)">
       <use xlink:href="#DejaVuSans-32"/>
       <use xlink:href="#DejaVuSans-30" x="63.623047"/>
       <use xlink:href="#DejaVuSans-32" x="127.246094"/>
       <use xlink:href="#DejaVuSans-31" x="190.869141"/>
       <use xlink:href="#DejaVuSans-2d" x="254.492188"/>
       <use xlink:href="#DejaVuSans-31" x="290.576172"/>
       <use xlink:href="#DejaVuSans-30" x="354.199219"/>
      </g>
     </g>
    </g>
    <g id="xtick_9">
     <g id="line2d_9">
      <g>
       <use xlink:href="#mf5df135222" x="1069.294077" y="368.3955" style="stroke: #000000; stroke-width: 0.8"/>
      </g>
     </g>
     <g id="text_9">
      <!-- 2022-01 -->
      <g transform="translate(1048.402671 382.993937)scale(0.1 -0.1)">
       <use xlink:href="#DejaVuSans-32"/>
       <use xlink:href="#DejaVuSans-30" x="63.623047"/>
       <use xlink:href="#DejaVuSans-32" x="127.246094"/>
       <use xlink:href="#DejaVuSans-32" x="190.869141"/>
       <use xlink:href="#DejaVuSans-2d" x="254.492188"/>
       <use xlink:href="#DejaVuSans-30" x="290.576172"/>
       <use xlink:href="#DejaVuSans-31" x="354.199219"/>
      </g>
     </g>
    </g>
    <g id="xtick_10">
     <g id="line2d_10">
      <g>
       <use xlink:href="#mf5df135222" x="1192.269284" y="368.3955" style="stroke: #000000; stroke-width: 0.8"/>
      </g>
     </g>
     <g id="text_10">
      <!-- 2022-04 -->
      <g transform="translate(1171.377877 382.993937)scale(0.1 -0.1)">
       <use xlink:href="#DejaVuSans-32"/>
       <use xlink:href="#DejaVuSans-30" x="63.623047"/>
       <use xlink:href="#DejaVuSans-32" x="127.246094"/>
       <use xlink:href="#DejaVuSans-32" x="190.869141"/>
       <use xlink:href="#DejaVuSans-2d" x="254.492188"/>
       <use xlink:href="#DejaVuSans-30" x="290.576172"/>
       <use xlink:href="#DejaVuSans-34" x="354.199219"/>
      </g>
     </g>
    </g>
    <g id="xtick_11">
     <g id="line2d_11">
      <g>
       <use xlink:href="#mf5df135222" x="1316.610882" y="368.3955" style="stroke: #000000; stroke-width: 0.8"/>
      </g>
     </g>
     <g id="text_11">
      <!-- 2022-07 -->
      <g transform="translate(1295.719475 382.993937)scale(0.1 -0.1)">
       <use xlink:href="#DejaVuSans-32"/>
       <use xlink:href="#DejaVuSans-30" x="63.623047"/>
       <use xlink:href="#DejaVuSans-32" x="127.246094"/>
       <use xlink:href="#DejaVuSans-32" x="190.869141"/>
       <use xlink:href="#DejaVuSans-2d" x="254.492188"/>
       <use xlink:href="#DejaVuSans-30" x="290.576172"/>
       <use xlink:href="#DejaVuSans-37" x="354.199219"/>
      </g>
     </g>
    </g>
   </g>
   <g id="matplotlib.axis_2">
    <g id="ytick_1">
     <g id="line2d_12">
      <defs>
       <path id="mc7c13e5893" d="M 0 0 
L -3.5 0 
" style="stroke: #000000; stroke-width: 0.8"/>
      </defs>
      <g>
       <use xlink:href="#mc7c13e5893" x="39.65" y="353.218604" style="stroke: #000000; stroke-width: 0.8"/>
      </g>
     </g>
     <g id="text_12">
      <!-- 0 -->
      <g transform="translate(26.2875 357.017823)scale(0.1 -0.1)">
       <use xlink:href="#DejaVuSans-30"/>
      </g>
     </g>
    </g>
    <g id="ytick_2">
     <g id="line2d_13">
      <g>
       <use xlink:href="#mc7c13e5893" x="39.65" y="296.323026" style="stroke: #000000; stroke-width: 0.8"/>
      </g>
     </g>
     <g id="text_13">
      <!-- 1000 -->
      <g transform="translate(7.2 300.122245)scale(0.1 -0.1)">
       <use xlink:href="#DejaVuSans-31"/>
       <use xlink:href="#DejaVuSans-30" x="63.623047"/>
       <use xlink:href="#DejaVuSans-30" x="127.246094"/>
       <use xlink:href="#DejaVuSans-30" x="190.869141"/>
      </g>
     </g>
    </g>
    <g id="ytick_3">
     <g id="line2d_14">
      <g>
       <use xlink:href="#mc7c13e5893" x="39.65" y="239.427447" style="stroke: #000000; stroke-width: 0.8"/>
      </g>
     </g>
     <g id="text_14">
      <!-- 2000 -->
      <g transform="translate(7.2 243.226666)scale(0.1 -0.1)">
       <use xlink:href="#DejaVuSans-32"/>
       <use xlink:href="#DejaVuSans-30" x="63.623047"/>
       <use xlink:href="#DejaVuSans-30" x="127.246094"/>
       <use xlink:href="#DejaVuSans-30" x="190.869141"/>
      </g>
     </g>
    </g>
    <g id="ytick_4">
     <g id="line2d_15">
      <g>
       <use xlink:href="#mc7c13e5893" x="39.65" y="182.531869" style="stroke: #000000; stroke-width: 0.8"/>
      </g>
     </g>
     <g id="text_15">
      <!-- 3000 -->
      <g transform="translate(7.2 186.331088)scale(0.1 -0.1)">
       <defs>
        <path id="DejaVuSans-33" d="M 2597 2516 
Q 3050 2419 3304 2112 
Q 3559 1806 3559 1356 
Q 3559 666 3084 287 
Q 2609 -91 1734 -91 
Q 1441 -91 1130 -33 
Q 819 25 488 141 
L 488 750 
Q 750 597 1062 519 
Q 1375 441 1716 441 
Q 2309 441 2620 675 
Q 2931 909 2931 1356 
Q 2931 1769 2642 2001 
Q 2353 2234 1838 2234 
L 1294 2234 
L 1294 2753 
L 1863 2753 
Q 2328 2753 2575 2939 
Q 2822 3125 2822 3475 
Q 2822 3834 2567 4026 
Q 2313 4219 1838 4219 
Q 1578 4219 1281 4162 
Q 984 4106 628 3988 
L 628 4550 
Q 988 4650 1302 4700 
Q 1616 4750 1894 4750 
Q 2613 4750 3031 4423 
Q 3450 4097 3450 3541 
Q 3450 3153 3228 2886 
Q 3006 2619 2597 2516 
z
" transform="scale(0.015625)"/>
       </defs>
       <use xlink:href="#DejaVuSans-33"/>
       <use xlink:href="#DejaVuSans-30" x="63.623047"/>
       <use xlink:href="#DejaVuSans-30" x="127.246094"/>
       <use xlink:href="#DejaVuSans-30" x="190.869141"/>
      </g>
     </g>
    </g>
    <g id="ytick_5">
     <g id="line2d_16">
      <g>
       <use xlink:href="#mc7c13e5893" x="39.65" y="125.63629" style="stroke: #000000; stroke-width: 0.8"/>
      </g>
     </g>
     <g id="text_16">
      <!-- 4000 -->
      <g transform="translate(7.2 129.435509)scale(0.1 -0.1)">
       <use xlink:href="#DejaVuSans-34"/>
       <use xlink:href="#DejaVuSans-30" x="63.623047"/>
       <use xlink:href="#DejaVuSans-30" x="127.246094"/>
       <use xlink:href="#DejaVuSans-30" x="190.869141"/>
      </g>
     </g>
    </g>
    <g id="ytick_6">
     <g id="line2d_17">
      <g>
       <use xlink:href="#mc7c13e5893" x="39.65" y="68.740712" style="stroke: #000000; stroke-width: 0.8"/>
      </g>
     </g>
     <g id="text_17">
      <!-- 5000 -->
      <g transform="translate(7.2 72.53993)scale(0.1 -0.1)">
       <defs>
        <path id="DejaVuSans-35" d="M 691 4666 
L 3169 4666 
L 3169 4134 
L 1269 4134 
L 1269 2991 
Q 1406 3038 1543 3061 
Q 1681 3084 1819 3084 
Q 2600 3084 3056 2656 
Q 3513 2228 3513 1497 
Q 3513 744 3044 326 
Q 2575 -91 1722 -91 
Q 1428 -91 1123 -41 
Q 819 9 494 109 
L 494 744 
Q 775 591 1075 516 
Q 1375 441 1709 441 
Q 2250 441 2565 725 
Q 2881 1009 2881 1497 
Q 2881 1984 2565 2268 
Q 2250 2553 1709 2553 
Q 1456 2553 1204 2497 
Q 953 2441 691 2322 
L 691 4666 
z
" transform="scale(0.015625)"/>
       </defs>
       <use xlink:href="#DejaVuSans-35"/>
       <use xlink:href="#DejaVuSans-30" x="63.623047"/>
       <use xlink:href="#DejaVuSans-30" x="127.246094"/>
       <use xlink:href="#DejaVuSans-30" x="190.869141"/>
      </g>
     </g>
    </g>
   </g>
   <g id="line2d_18">
    <path d="M 100.522727 353.218604 
L 168.842287 353.218604 
L 170.208678 353.047918 
L 171.575069 353.218604 
L 172.94146 352.820335 
L 174.307851 353.218604 
L 175.674242 353.161709 
L 177.040634 352.706544 
L 178.407025 352.820335 
L 179.773416 352.080693 
L 181.139807 353.047918 
L 182.506198 351.910006 
L 183.87259 352.080693 
L 185.238981 351.511737 
L 186.605372 351.34105 
L 187.971763 351.739319 
L 189.338154 351.682424 
L 192.070937 352.023797 
L 193.437328 351.113468 
L 196.17011 352.25138 
L 197.536501 350.31693 
L 198.902893 349.122123 
L 201.635675 351.454841 
L 203.002066 351.397946 
L 204.368457 351.511737 
L 205.734848 351.910006 
L 207.10124 350.31693 
L 208.467631 351.397946 
L 209.834022 352.308275 
L 211.200413 352.023797 
L 212.566804 352.991022 
L 213.933196 352.820335 
L 215.299587 352.365171 
L 216.665978 352.934127 
L 218.032369 351.853111 
L 219.39876 352.649649 
L 220.765152 353.047918 
L 222.131543 353.104813 
L 223.497934 352.934127 
L 224.864325 353.104813 
L 226.230716 353.104813 
L 227.597107 352.308275 
L 228.963499 352.76344 
L 230.32989 352.991022 
L 231.696281 352.820335 
L 233.062672 353.218604 
L 234.429063 352.991022 
L 235.795455 352.478962 
L 237.161846 352.820335 
L 238.528237 352.592753 
L 239.894628 352.934127 
L 241.261019 352.934127 
L 242.62741 353.161709 
L 243.993802 352.76344 
L 245.360193 353.047918 
L 246.726584 353.104813 
L 248.092975 352.877231 
L 249.459366 353.2755 
L 252.192149 353.104813 
L 253.55854 353.047918 
L 254.924931 353.161709 
L 256.291322 353.161709 
L 257.657713 352.877231 
L 259.024105 353.218604 
L 260.390496 352.991022 
L 261.756887 353.218604 
L 263.123278 352.877231 
L 264.489669 353.104813 
L 267.222452 353.104813 
L 268.588843 352.877231 
L 275.420799 353.104813 
L 276.78719 352.991022 
L 278.153581 353.104813 
L 279.519972 352.934127 
L 280.886364 353.104813 
L 282.252755 351.170364 
L 283.619146 353.161709 
L 284.985537 352.137588 
L 286.351928 352.25138 
L 287.71832 352.535857 
L 289.084711 352.706544 
L 290.451102 352.592753 
L 291.817493 352.365171 
L 293.183884 352.706544 
L 297.283058 353.161709 
L 298.649449 353.047918 
L 300.01584 353.2755 
L 302.748623 352.706544 
L 304.115014 353.047918 
L 305.481405 352.535857 
L 306.847796 352.991022 
L 308.214187 353.161709 
L 309.580579 352.080693 
L 310.94697 352.820335 
L 312.313361 352.820335 
L 313.679752 353.104813 
L 315.046143 353.104813 
L 316.412534 352.877231 
L 317.778926 353.218604 
L 319.145317 353.104813 
L 320.511708 352.25138 
L 323.24449 353.104813 
L 324.610882 352.592753 
L 325.977273 353.104813 
L 327.343664 353.047918 
L 328.710055 353.104813 
L 330.076446 352.308275 
L 331.442837 352.934127 
L 332.809229 352.877231 
L 334.17562 352.478962 
L 335.542011 352.934127 
L 336.908402 352.991022 
L 338.274793 352.478962 
L 339.641185 352.820335 
L 341.007576 352.706544 
L 342.373967 352.991022 
L 343.740358 352.535857 
L 345.106749 352.649649 
L 346.47314 352.877231 
L 347.839532 353.218604 
L 349.205923 352.592753 
L 350.572314 352.76344 
L 351.938705 352.592753 
L 353.305096 352.991022 
L 354.671488 353.104813 
L 356.037879 353.047918 
L 357.40427 353.161709 
L 358.770661 353.161709 
L 360.137052 352.820335 
L 361.503444 352.820335 
L 362.869835 352.934127 
L 364.236226 353.161709 
L 365.602617 352.991022 
L 366.969008 352.934127 
L 368.335399 352.706544 
L 369.701791 353.047918 
L 371.068182 352.877231 
L 373.800964 353.047918 
L 375.167355 352.649649 
L 376.533747 352.877231 
L 377.900138 352.877231 
L 379.266529 352.25138 
L 380.63292 352.76344 
L 381.999311 352.877231 
L 383.365702 352.535857 
L 384.732094 353.047918 
L 388.831267 352.991022 
L 390.197658 352.535857 
L 391.56405 352.991022 
L 392.930441 352.706544 
L 394.296832 352.877231 
L 395.663223 352.934127 
L 397.029614 352.706544 
L 398.396006 353.047918 
L 399.762397 352.308275 
L 401.128788 352.592753 
L 402.495179 352.76344 
L 403.86157 352.592753 
L 405.227961 353.104813 
L 406.594353 353.218604 
L 407.960744 352.934127 
L 409.327135 352.934127 
L 410.693526 353.161709 
L 412.059917 353.047918 
L 414.7927 353.104813 
L 417.525482 352.820335 
L 418.891873 352.706544 
L 420.258264 352.820335 
L 421.624656 352.535857 
L 424.357438 353.218604 
L 425.723829 353.047918 
L 427.09022 353.161709 
L 428.456612 352.991022 
L 429.823003 352.934127 
L 435.288567 353.104813 
L 436.654959 352.820335 
L 438.02135 352.76344 
L 439.387741 353.047918 
L 444.853306 353.047918 
L 446.219697 352.478962 
L 448.952479 352.820335 
L 450.318871 351.397946 
L 451.685262 352.991022 
L 453.051653 352.877231 
L 454.418044 352.592753 
L 455.784435 352.76344 
L 457.150826 352.592753 
L 458.517218 352.592753 
L 459.883609 352.76344 
L 461.25 352.649649 
L 462.616391 353.047918 
L 463.982782 352.422066 
L 466.715565 352.592753 
L 468.081956 352.592753 
L 469.448347 352.706544 
L 470.814738 352.649649 
L 472.181129 352.365171 
L 473.547521 352.308275 
L 474.913912 351.568633 
L 476.280303 351.682424 
L 477.646694 351.511737 
L 479.013085 352.649649 
L 480.379477 351.511737 
L 481.745868 352.820335 
L 483.112259 352.023797 
L 484.47865 352.422066 
L 485.845041 351.853111 
L 487.211433 352.25138 
L 488.577824 351.910006 
L 489.944215 352.194484 
L 491.310606 351.511737 
L 492.676997 351.170364 
L 494.043388 351.910006 
L 495.40978 352.023797 
L 496.776171 350.658303 
L 498.142562 351.910006 
L 500.875344 349.065227 
L 502.241736 346.618717 
L 503.608127 347.984211 
L 504.974518 347.529047 
L 506.340909 350.601408 
L 507.7073 346.448031 
L 509.073691 347.756629 
L 510.440083 349.975556 
L 511.806474 344.741163 
L 513.172865 344.741163 
L 514.539256 348.268689 
L 515.905647 348.496271 
L 517.272039 348.38248 
L 518.63843 350.487617 
L 520.004821 349.520392 
L 521.371212 353.218604 
L 522.737603 343.091191 
L 524.103994 351.625528 
L 525.470386 349.406601 
L 526.836777 349.122123 
L 528.203168 349.406601 
L 529.569559 340.587786 
L 530.93595 342.920505 
L 532.302342 346.334239 
L 533.668733 345.765284 
L 535.035124 346.334239 
L 536.401515 349.520392 
L 537.767906 347.529047 
L 539.134298 347.244569 
L 540.500689 345.93597 
L 541.86708 345.93597 
L 543.233471 348.38248 
L 544.599862 345.992866 
L 545.966253 347.301464 
L 547.332645 349.463496 
L 548.699036 348.325585 
L 550.065427 345.253223 
L 551.431818 347.87042 
L 552.798209 347.529047 
L 554.164601 347.529047 
L 555.530992 348.041107 
L 556.897383 349.008332 
L 558.263774 349.122123 
L 559.630165 347.472151 
L 560.996556 353.218604 
L 562.362948 342.692922 
L 563.729339 349.634183 
L 565.09573 348.041107 
L 567.828512 349.008332 
L 569.194904 345.480806 
L 570.561295 353.218604 
L 571.927686 337.458529 
L 573.294077 347.301464 
L 574.660468 348.666958 
L 576.02686 343.830834 
L 577.393251 346.391135 
L 578.759642 339.279188 
L 580.126033 340.929159 
L 581.492424 343.48946 
L 582.858815 343.148087 
L 584.225207 346.903195 
L 585.591598 343.603252 
L 586.957989 346.334239 
L 588.32438 341.555011 
L 589.690771 344.058416 
L 591.057163 342.920505 
L 592.423554 345.139432 
L 593.789945 343.944625 
L 595.156336 347.472151 
L 596.522727 344.684268 
L 597.889118 347.016986 
L 599.25551 343.034296 
L 600.621901 344.741163 
L 601.988292 346.106657 
L 603.354683 345.708388 
L 604.721074 346.391135 
L 606.087466 347.87042 
L 607.453857 345.025641 
L 608.820248 345.537701 
L 610.186639 343.375669 
L 611.55303 345.594597 
L 612.919421 346.504926 
L 614.285813 346.789404 
L 615.652204 345.651492 
L 617.018595 343.318774 
L 618.384986 347.016986 
L 619.751377 344.456685 
L 621.117769 345.594597 
L 622.48416 344.91185 
L 623.850551 349.861765 
L 625.216942 352.25138 
L 626.583333 345.992866 
L 627.949725 343.773938 
L 629.316116 344.91185 
L 630.682507 346.618717 
L 632.048898 342.692922 
L 633.415289 350.089348 
L 634.78168 348.723854 
L 636.148072 344.513581 
L 637.514463 347.415255 
L 638.880854 347.073882 
L 640.247245 345.594597 
L 641.613636 346.675613 
L 642.980028 348.496271 
L 645.71281 349.122123 
L 647.079201 346.220448 
L 648.445592 345.537701 
L 649.811983 347.529047 
L 651.178375 348.325585 
L 652.544766 348.211794 
L 653.911157 346.675613 
L 655.277548 341.896384 
L 656.643939 345.651492 
L 658.010331 344.968746 
L 659.376722 346.448031 
L 660.743113 346.618717 
L 662.109504 348.268689 
L 663.475895 348.38248 
L 664.842287 345.879075 
L 666.208678 346.220448 
L 667.575069 348.951436 
L 668.94146 342.294653 
L 670.307851 347.415255 
L 671.674242 350.089348 
L 673.040634 349.861765 
L 674.407025 345.196328 
L 675.773416 344.91185 
L 677.139807 344.001521 
L 678.506198 342.692922 
L 679.87259 347.585942 
L 681.238981 347.87042 
L 682.605372 347.813524 
L 685.338154 337.117156 
L 686.704545 346.106657 
L 688.070937 342.010175 
L 689.437328 342.863609 
L 690.803719 347.130778 
L 692.17011 343.773938 
L 693.536501 339.108501 
L 694.902893 340.01883 
L 696.269284 344.684268 
L 697.635675 339.336083 
L 699.002066 346.504926 
L 700.368457 347.187673 
L 701.734848 349.29281 
L 703.10124 340.303308 
L 704.467631 344.91185 
L 705.834022 344.684268 
L 707.200413 339.734352 
L 708.566804 348.154898 
L 709.933196 347.699733 
L 711.299587 347.529047 
L 712.665978 343.204983 
L 714.032369 345.310119 
L 715.39876 349.463496 
L 716.765152 344.854954 
L 718.131543 347.756629 
L 719.497934 353.218604 
L 720.864325 346.049762 
L 722.230716 348.268689 
L 723.597107 348.041107 
L 724.963499 349.634183 
L 726.32989 347.699733 
L 727.696281 350.885886 
L 729.062672 349.918661 
L 730.429063 350.487617 
L 731.795455 347.472151 
L 733.161846 345.93597 
L 734.528237 348.666958 
L 735.894628 347.87042 
L 737.261019 351.397946 
L 738.62741 351.34105 
L 739.993802 350.032452 
L 741.360193 350.430721 
L 742.726584 347.699733 
L 744.092975 350.260034 
L 745.459366 350.885886 
L 746.825758 350.089348 
L 748.192149 349.520392 
L 749.55854 350.658303 
L 750.924931 349.065227 
L 752.291322 349.349705 
L 753.657713 350.089348 
L 755.024105 351.170364 
L 756.390496 351.568633 
L 757.756887 351.34105 
L 759.123278 350.772095 
L 760.489669 351.056572 
L 761.856061 350.999677 
L 763.222452 352.137588 
L 764.588843 351.966902 
L 765.955234 352.023797 
L 767.321625 352.706544 
L 768.688017 351.739319 
L 770.054408 352.080693 
L 771.420799 352.76344 
L 772.78719 352.649649 
L 774.153581 352.706544 
L 775.519972 352.592753 
L 776.886364 352.991022 
L 778.252755 352.76344 
L 779.619146 352.76344 
L 780.985537 352.535857 
L 782.351928 353.218604 
L 783.71832 353.218604 
L 785.084711 351.511737 
L 786.451102 352.478962 
L 787.817493 352.934127 
L 789.183884 352.422066 
L 791.916667 353.218604 
L 793.283058 353.218604 
L 794.649449 352.592753 
L 796.01584 352.76344 
L 798.748623 352.706544 
L 800.115014 353.047918 
L 801.481405 353.218604 
L 802.847796 353.218604 
L 804.214187 352.76344 
L 805.580579 353.047918 
L 806.94697 352.76344 
L 808.313361 352.877231 
L 809.679752 352.820335 
L 811.046143 353.218604 
L 812.412534 353.218604 
L 813.778926 352.649649 
L 815.145317 352.991022 
L 816.511708 352.991022 
L 817.878099 353.104813 
L 819.24449 352.820335 
L 820.610882 353.218604 
L 823.343664 353.218604 
L 824.710055 352.422066 
L 826.076446 352.820335 
L 827.442837 352.934127 
L 828.809229 352.535857 
L 830.17562 353.218604 
L 831.542011 353.218604 
L 832.908402 351.397946 
L 834.274793 352.76344 
L 835.641185 352.137588 
L 837.007576 352.478962 
L 838.373967 352.023797 
L 839.740358 353.218604 
L 841.106749 353.218604 
L 842.47314 351.568633 
L 843.839532 352.592753 
L 845.205923 352.137588 
L 846.572314 351.056572 
L 847.938705 351.568633 
L 849.305096 353.218604 
L 850.671488 353.218604 
L 852.037879 349.122123 
L 853.40427 352.535857 
L 854.770661 350.715199 
L 856.137052 351.739319 
L 857.503444 349.861765 
L 858.869835 353.218604 
L 860.236226 353.218604 
L 861.602617 344.741163 
L 862.969008 350.999677 
L 864.335399 350.260034 
L 865.701791 348.098002 
L 867.068182 347.472151 
L 868.434573 353.218604 
L 869.800964 353.218604 
L 871.167355 338.937814 
L 872.533747 347.984211 
L 873.900138 347.87042 
L 876.63292 344.285999 
L 877.999311 353.218604 
L 880.732094 353.218604 
L 882.098485 332.906883 
L 883.464876 347.699733 
L 884.831267 343.603252 
L 886.197658 346.675613 
L 887.56405 344.91185 
L 888.930441 346.049762 
L 890.296832 348.553167 
L 891.663223 347.244569 
L 893.029614 346.504926 
L 894.396006 344.741163 
L 895.762397 345.025641 
L 897.128788 342.579131 
L 898.495179 345.42391 
L 899.86157 349.122123 
L 901.227961 344.342894 
L 902.594353 341.896384 
L 903.960744 345.082537 
L 906.693526 342.920505 
L 908.059917 346.960091 
L 909.426309 345.765284 
L 910.7927 341.839489 
L 912.159091 346.903195 
L 913.525482 344.570476 
L 914.891873 344.854954 
L 916.258264 341.896384 
L 917.624656 342.9774 
L 918.991047 344.684268 
L 920.357438 346.8463 
L 921.723829 341.384324 
L 923.09022 333.987899 
L 924.456612 339.905039 
L 925.823003 341.555011 
L 927.189394 337.686111 
L 928.555785 345.822179 
L 929.922176 344.854954 
L 931.288567 343.660147 
L 932.654959 336.775782 
L 934.02135 339.449874 
L 935.387741 342.9774 
L 936.754132 339.50677 
L 938.120523 341.839489 
L 939.486915 347.642838 
L 940.853306 347.016986 
L 942.219697 340.473995 
L 943.586088 342.408444 
L 944.952479 340.189517 
L 946.318871 345.253223 
L 947.685262 342.408444 
L 949.051653 347.87042 
L 950.418044 345.992866 
L 951.784435 336.661991 
L 953.150826 337.230947 
L 954.517218 338.710232 
L 955.883609 341.099846 
L 957.25 340.701577 
L 958.616391 345.651492 
L 959.982782 334.61375 
L 961.349174 344.627372 
L 962.715565 340.303308 
L 964.081956 333.931003 
L 965.448347 339.051605 
L 966.814738 341.782593 
L 968.181129 345.708388 
L 969.547521 346.561822 
L 970.913912 334.898228 
L 972.280303 340.132621 
L 973.646694 338.824023 
L 975.013085 337.856798 
L 976.379477 345.310119 
L 977.745868 348.098002 
L 979.112259 344.058416 
L 980.47865 334.670646 
L 983.211433 345.537701 
L 984.577824 337.970589 
L 985.944215 344.741163 
L 987.310606 343.375669 
L 988.676997 341.042951 
L 990.043388 323.234635 
L 992.776171 338.198172 
L 994.142562 330.175895 
L 995.508953 339.905039 
L 996.875344 343.603252 
L 998.241736 342.180862 
L 999.608127 318.455406 
L 1000.974518 324.258755 
L 1002.340909 327.046638 
L 1003.7073 335.524079 
L 1005.073691 340.53089 
L 1006.440083 342.46534 
L 1007.806474 339.392979 
L 1009.172865 323.120843 
L 1010.539256 326.819056 
L 1011.905647 327.786281 
L 1013.272039 325.908727 
L 1014.63843 339.961935 
L 1016.004821 342.067071 
L 1017.371212 335.296497 
L 1018.737603 353.218604 
L 1022.836777 353.218604 
L 1024.203168 257.577137 
L 1025.569559 341.099846 
L 1026.93595 324.998397 
L 1028.302342 317.715763 
L 1029.668733 325.055293 
L 1031.035124 321.015707 
L 1032.401515 313.733073 
L 1033.767906 339.449874 
L 1035.134298 336.149931 
L 1036.500689 330.232791 
L 1037.86708 325.567353 
L 1039.233471 311.343459 
L 1040.599862 338.425754 
L 1041.966253 322.950157 
L 1043.332645 339.848143 
L 1044.699036 339.961935 
L 1046.065427 333.646525 
L 1047.431818 314.984776 
L 1048.798209 326.136309 
L 1050.164601 328.298341 
L 1051.530992 327.729385 
L 1052.897383 339.563666 
L 1054.263774 339.563666 
L 1055.630165 316.179583 
L 1056.996556 328.241445 
L 1058.362948 353.218604 
L 1061.09573 353.218604 
L 1062.462121 269.582104 
L 1063.828512 330.005208 
L 1065.194904 300.13503 
L 1066.561295 275.214766 
L 1067.927686 353.218604 
L 1070.660468 353.218604 
L 1072.02686 195.105792 
L 1073.393251 254.732358 
L 1074.759642 307.417664 
L 1076.126033 229.186243 
L 1077.492424 247.392828 
L 1078.858815 204.209084 
L 1080.225207 338.880919 
L 1081.591598 353.218604 
L 1082.957989 353.218604 
L 1084.32438 50.8755 
L 1085.690771 239.029178 
L 1087.057163 221.391549 
L 1088.423554 251.204832 
L 1089.789945 207.338341 
L 1091.156336 353.218604 
L 1092.522727 266.168369 
L 1093.889118 279.595726 
L 1095.25551 353.218604 
L 1096.621901 186.912828 
L 1097.988292 263.380486 
L 1099.354683 289.780034 
L 1100.721074 322.381201 
L 1102.087466 328.127654 
L 1103.453857 323.120843 
L 1104.820248 266.054578 
L 1106.186639 301.272941 
L 1107.55303 325.73804 
L 1108.919421 318.455406 
L 1110.285813 335.467184 
L 1111.652204 332.451718 
L 1113.018595 311.571041 
L 1114.384986 318.796779 
L 1115.751377 323.860486 
L 1117.117769 353.218604 
L 1118.48416 353.218604 
L 1119.850551 308.384889 
L 1121.216942 341.782593 
L 1122.583333 325.510458 
L 1123.949725 329.834522 
L 1125.316116 330.915538 
L 1126.682507 353.218604 
L 1128.048898 353.218604 
L 1129.415289 315.553731 
L 1130.78168 344.001521 
L 1132.148072 331.712076 
L 1133.514463 339.222292 
L 1134.880854 338.311963 
L 1136.247245 353.218604 
L 1138.980028 353.218604 
L 1140.346419 316.805434 
L 1141.71281 338.141276 
L 1143.079201 341.270533 
L 1144.445592 340.189517 
L 1145.811983 353.218604 
L 1147.178375 353.218604 
L 1148.544766 333.817212 
L 1149.911157 353.218604 
L 1151.277548 353.218604 
L 1152.643939 322.381201 
L 1154.010331 341.782593 
L 1155.376722 353.218604 
L 1156.743113 353.218604 
L 1158.109504 336.149931 
L 1159.475895 350.544512 
L 1160.842287 342.010175 
L 1162.208678 346.903195 
L 1163.575069 342.636027 
L 1164.94146 353.218604 
L 1166.307851 353.218604 
L 1167.674242 338.539545 
L 1169.040634 348.496271 
L 1170.407025 339.222292 
L 1171.773416 343.318774 
L 1173.139807 344.172207 
L 1174.506198 353.218604 
L 1175.87259 353.218604 
L 1177.238981 332.508614 
L 1178.605372 348.666958 
L 1179.971763 340.758473 
L 1181.338154 345.025641 
L 1182.704545 343.318774 
L 1184.070937 353.218604 
L 1185.437328 353.218604 
L 1186.803719 335.694766 
L 1188.17011 348.154898 
L 1189.536501 340.758473 
L 1190.902893 343.318774 
L 1192.269284 344.058416 
L 1193.635675 353.218604 
L 1195.002066 353.218604 
L 1196.368457 332.736196 
L 1197.734848 344.741163 
L 1199.10124 340.701577 
L 1200.467631 341.099846 
L 1201.834022 339.051605 
L 1203.200413 353.218604 
L 1204.566804 353.218604 
L 1205.933196 323.120843 
L 1207.299587 343.944625 
L 1208.665978 335.580975 
L 1210.032369 333.532734 
L 1211.39876 337.629216 
L 1212.765152 353.218604 
L 1214.131543 353.218604 
L 1215.497934 311.172772 
L 1216.864325 344.627372 
L 1218.230716 333.646525 
L 1219.597107 333.532734 
L 1220.963499 333.817212 
L 1222.32989 353.218604 
L 1223.696281 353.218604 
L 1225.062672 307.303873 
L 1226.429063 353.218604 
L 1227.795455 312.196892 
L 1229.161846 330.858642 
L 1230.528237 331.200016 
L 1231.894628 353.218604 
L 1233.261019 353.218604 
L 1234.62741 314.472715 
L 1235.993802 335.751662 
L 1237.360193 323.80359 
L 1238.726584 333.191361 
L 1240.092975 330.460373 
L 1241.459366 353.218604 
L 1242.825758 353.218604 
L 1244.192149 305.54011 
L 1245.55854 338.880919 
L 1246.924931 337.970589 
L 1248.291322 319.024362 
L 1249.657713 329.72073 
L 1251.024105 353.218604 
L 1252.390496 353.218604 
L 1253.756887 308.783158 
L 1255.123278 341.156742 
L 1256.489669 331.029329 
L 1257.856061 353.218604 
L 1266.054408 353.218604 
L 1267.420799 261.844305 
L 1268.78719 353.218604 
L 1274.252755 353.218604 
L 1275.619146 284.033581 
L 1276.985537 353.218604 
L 1283.817493 353.218604 
L 1285.183884 296.721295 
L 1286.550275 353.218604 
L 1293.382231 353.218604 
L 1294.748623 310.774503 
L 1296.115014 353.218604 
L 1300.214187 353.218604 
L 1300.214187 353.218604 
" clip-path="url(#pc4e3afe602)" style="fill: none; stroke: #0000ff; stroke-width: 1.5; stroke-linecap: square"/>
   </g>
   <g id="line2d_19">
    <path d="M 1061.09573 339.404771 
L 1062.462121 329.243795 
L 1063.828512 326.33736 
L 1065.194904 324.471517 
L 1066.561295 320.426937 
L 1067.927686 325.209049 
L 1069.294077 329.246304 
L 1070.660468 321.380306 
L 1072.02686 311.13659 
L 1073.393251 299.374681 
L 1074.759642 296.957942 
L 1076.126033 297.125045 
L 1077.492424 289.909946 
L 1078.858815 277.48603 
L 1080.225207 266.805588 
L 1081.591598 286.215438 
L 1082.957989 303.438984 
L 1084.32438 256.855639 
L 1085.690771 255.36641 
L 1087.057163 244.678475 
L 1088.423554 263.593183 
L 1089.789945 259.961806 
L 1091.156336 272.566726 
L 1092.522727 230.296652 
L 1093.889118 263.878928 
L 1095.25551 274.334214 
L 1096.621901 266.404166 
L 1097.988292 257.715314 
L 1099.354683 281.225299 
L 1100.721074 275.700833 
L 1102.087466 290.610763 
L 1103.453857 301.621222 
L 1104.820248 274.607759 
L 1106.186639 288.043859 
L 1107.55303 298.132968 
L 1108.919421 302.913229 
L 1110.285813 309.933864 
L 1111.652204 311.55601 
L 1113.018595 303.103951 
L 1114.384986 312.994746 
L 1117.117769 320.285303 
L 1118.48416 327.086035 
L 1119.850551 323.665015 
L 1121.216942 323.725373 
L 1122.583333 326.076345 
L 1123.949725 326.280862 
L 1125.316116 330.604886 
L 1126.682507 334.095971 
L 1128.048898 330.616656 
L 1129.415289 332.983205 
L 1130.78168 332.752276 
L 1132.148072 332.89924 
L 1133.514463 334.005782 
L 1134.880854 337.118754 
L 1136.247245 339.425052 
L 1137.613636 337.233926 
L 1138.980028 342.740297 
L 1140.346419 337.583835 
L 1141.71281 338.626994 
L 1143.079201 338.863556 
L 1145.811983 342.529933 
L 1147.178375 344.639084 
L 1148.544766 337.785938 
L 1149.911157 343.056764 
L 1151.277548 344.81942 
L 1152.643939 341.441085 
L 1155.376722 344.48806 
L 1156.743113 343.09077 
L 1158.109504 345.377976 
L 1159.475895 345.722474 
L 1160.842287 341.031067 
L 1162.208678 344.487852 
L 1164.94146 346.655853 
L 1166.307851 345.685432 
L 1167.674242 346.130389 
L 1169.040634 345.388746 
L 1170.407025 345.701563 
L 1171.773416 344.439076 
L 1174.506198 346.735341 
L 1178.605372 344.568796 
L 1179.971763 344.40181 
L 1181.338154 344.728488 
L 1182.704545 345.566261 
L 1184.070937 346.6759 
L 1185.437328 345.088481 
L 1186.803719 345.731396 
L 1188.17011 345.173409 
L 1189.536501 345.051128 
L 1190.902893 344.540667 
L 1193.635675 346.749701 
L 1195.002066 345.687979 
L 1196.368457 345.204872 
L 1197.734848 344.272093 
L 1200.467631 343.7357 
L 1201.834022 344.120999 
L 1203.200413 345.440208 
L 1204.566804 344.10205 
L 1205.933196 342.475296 
L 1207.299587 342.264856 
L 1208.665978 341.312432 
L 1210.032369 339.893255 
L 1211.39876 341.313171 
L 1212.765152 343.039533 
L 1214.131543 340.828766 
L 1215.497934 339.118019 
L 1216.864325 338.857484 
L 1218.230716 337.826334 
L 1219.597107 337.789151 
L 1220.963499 339.059973 
L 1222.32989 341.113063 
L 1223.696281 337.750334 
L 1225.062672 337.453619 
L 1226.429063 338.41586 
L 1227.795455 334.635527 
L 1229.161846 334.047702 
L 1230.528237 335.977019 
L 1231.894628 338.477156 
L 1233.261019 335.171411 
L 1234.62741 337.746731 
L 1235.993802 332.160681 
L 1237.360193 333.435941 
L 1238.726584 333.451381 
L 1240.092975 335.64301 
L 1241.459366 338.19158 
L 1244.192149 333.61593 
L 1245.55854 333.491924 
L 1246.924931 335.062092 
L 1248.291322 332.365343 
L 1249.657713 334.668116 
L 1251.024105 337.358053 
L 1252.390496 333.889234 
L 1253.756887 334.4177 
L 1255.123278 335.391852 
L 1256.489669 332.108482 
L 1257.856061 336.646284 
L 1259.222452 341.826193 
L 1260.588843 343.478163 
L 1261.955234 339.731423 
L 1263.321625 345.450384 
L 1264.688017 345.225967 
L 1266.054408 349.699268 
L 1267.420799 336.76272 
L 1270.153581 340.872341 
L 1271.519972 343.350995 
L 1272.886364 344.279745 
L 1274.252755 345.756175 
L 1275.619146 324.172053 
L 1276.985537 340.602017 
L 1278.351928 342.480935 
L 1279.71832 344.037964 
L 1282.451102 346.495892 
L 1283.817493 338.21557 
L 1285.183884 343.115454 
L 1286.550275 342.950266 
L 1287.916667 344.432643 
L 1289.283058 345.706662 
L 1290.649449 346.808195 
L 1292.01584 347.728805 
L 1293.382231 342.22151 
L 1296.115014 345.334654 
L 1297.481405 346.478756 
L 1298.847796 347.456076 
L 1300.214187 348.290043 
L 1300.214187 348.290043 
" clip-path="url(#pc4e3afe602)" style="fill: none; stroke: #ffa500; stroke-width: 1.5; stroke-linecap: square"/>
   </g>
   <g id="line2d_20">
    <path d="M 1300.214187 348.290043 
L 1301.580579 348.291236 
L 1302.94697 343.469106 
L 1304.313361 348.320818 
L 1305.679752 348.291796 
L 1307.046143 348.291679 
L 1308.412534 348.291679 
L 1309.778926 347.634297 
L 1311.145317 347.634297 
L 1312.511708 347.634297 
L 1313.878099 347.634297 
L 1315.24449 347.634297 
L 1316.610882 347.634297 
L 1317.977273 347.634297 
" clip-path="url(#pc4e3afe602)" style="fill: none; stroke: #ff0000; stroke-width: 1.5; stroke-linecap: square"/>
   </g>
   <g id="patch_3">
    <path d="M 39.65 368.3955 
L 39.65 35.7555 
" style="fill: none; stroke: #000000; stroke-width: 0.8; stroke-linejoin: miter; stroke-linecap: square"/>
   </g>
   <g id="patch_4">
    <path d="M 1378.85 368.3955 
L 1378.85 35.7555 
" style="fill: none; stroke: #000000; stroke-width: 0.8; stroke-linejoin: miter; stroke-linecap: square"/>
   </g>
   <g id="patch_5">
    <path d="M 39.65 368.3955 
L 1378.85 368.3955 
" style="fill: none; stroke: #000000; stroke-width: 0.8; stroke-linejoin: miter; stroke-linecap: square"/>
   </g>
   <g id="patch_6">
    <path d="M 39.65 35.7555 
L 1378.85 35.7555 
" style="fill: none; stroke: #000000; stroke-width: 0.8; stroke-linejoin: miter; stroke-linecap: square"/>
   </g>
   <g id="text_18">
    <!-- Daily Confirmed Cases Forecasting - Vermont -->
    <g transform="translate(573.386562 16.318125)scale(0.12 -0.12)">
     <defs>
      <path id="DejaVuSans-44" d="M 1259 4147 
L 1259 519 
L 2022 519 
Q 2988 519 3436 956 
Q 3884 1394 3884 2338 
Q 3884 3275 3436 3711 
Q 2988 4147 2022 4147 
L 1259 4147 
z
M 628 4666 
L 1925 4666 
Q 3281 4666 3915 4102 
Q 4550 3538 4550 2338 
Q 4550 1131 3912 565 
Q 3275 0 1925 0 
L 628 0 
L 628 4666 
z
" transform="scale(0.015625)"/>
      <path id="DejaVuSans-61" d="M 2194 1759 
Q 1497 1759 1228 1600 
Q 959 1441 959 1056 
Q 959 750 1161 570 
Q 1363 391 1709 391 
Q 2188 391 2477 730 
Q 2766 1069 2766 1631 
L 2766 1759 
L 2194 1759 
z
M 3341 1997 
L 3341 0 
L 2766 0 
L 2766 531 
Q 2569 213 2275 61 
Q 1981 -91 1556 -91 
Q 1019 -91 701 211 
Q 384 513 384 1019 
Q 384 1609 779 1909 
Q 1175 2209 1959 2209 
L 2766 2209 
L 2766 2266 
Q 2766 2663 2505 2880 
Q 2244 3097 1772 3097 
Q 1472 3097 1187 3025 
Q 903 2953 641 2809 
L 641 3341 
Q 956 3463 1253 3523 
Q 1550 3584 1831 3584 
Q 2591 3584 2966 3190 
Q 3341 2797 3341 1997 
z
" transform="scale(0.015625)"/>
      <path id="DejaVuSans-69" d="M 603 3500 
L 1178 3500 
L 1178 0 
L 603 0 
L 603 3500 
z
M 603 4863 
L 1178 4863 
L 1178 4134 
L 603 4134 
L 603 4863 
z
" transform="scale(0.015625)"/>
      <path id="DejaVuSans-6c" d="M 603 4863 
L 1178 4863 
L 1178 0 
L 603 0 
L 603 4863 
z
" transform="scale(0.015625)"/>
      <path id="DejaVuSans-79" d="M 2059 -325 
Q 1816 -950 1584 -1140 
Q 1353 -1331 966 -1331 
L 506 -1331 
L 506 -850 
L 844 -850 
Q 1081 -850 1212 -737 
Q 1344 -625 1503 -206 
L 1606 56 
L 191 3500 
L 800 3500 
L 1894 763 
L 2988 3500 
L 3597 3500 
L 2059 -325 
z
" transform="scale(0.015625)"/>
      <path id="DejaVuSans-20" transform="scale(0.015625)"/>
      <path id="DejaVuSans-43" d="M 4122 4306 
L 4122 3641 
Q 3803 3938 3442 4084 
Q 3081 4231 2675 4231 
Q 1875 4231 1450 3742 
Q 1025 3253 1025 2328 
Q 1025 1406 1450 917 
Q 1875 428 2675 428 
Q 3081 428 3442 575 
Q 3803 722 4122 1019 
L 4122 359 
Q 3791 134 3420 21 
Q 3050 -91 2638 -91 
Q 1578 -91 968 557 
Q 359 1206 359 2328 
Q 359 3453 968 4101 
Q 1578 4750 2638 4750 
Q 3056 4750 3426 4639 
Q 3797 4528 4122 4306 
z
" transform="scale(0.015625)"/>
      <path id="DejaVuSans-6f" d="M 1959 3097 
Q 1497 3097 1228 2736 
Q 959 2375 959 1747 
Q 959 1119 1226 758 
Q 1494 397 1959 397 
Q 2419 397 2687 759 
Q 2956 1122 2956 1747 
Q 2956 2369 2687 2733 
Q 2419 3097 1959 3097 
z
M 1959 3584 
Q 2709 3584 3137 3096 
Q 3566 2609 3566 1747 
Q 3566 888 3137 398 
Q 2709 -91 1959 -91 
Q 1206 -91 779 398 
Q 353 888 353 1747 
Q 353 2609 779 3096 
Q 1206 3584 1959 3584 
z
" transform="scale(0.015625)"/>
      <path id="DejaVuSans-6e" d="M 3513 2113 
L 3513 0 
L 2938 0 
L 2938 2094 
Q 2938 2591 2744 2837 
Q 2550 3084 2163 3084 
Q 1697 3084 1428 2787 
Q 1159 2491 1159 1978 
L 1159 0 
L 581 0 
L 581 3500 
L 1159 3500 
L 1159 2956 
Q 1366 3272 1645 3428 
Q 1925 3584 2291 3584 
Q 2894 3584 3203 3211 
Q 3513 2838 3513 2113 
z
" transform="scale(0.015625)"/>
      <path id="DejaVuSans-66" d="M 2375 4863 
L 2375 4384 
L 1825 4384 
Q 1516 4384 1395 4259 
Q 1275 4134 1275 3809 
L 1275 3500 
L 2222 3500 
L 2222 3053 
L 1275 3053 
L 1275 0 
L 697 0 
L 697 3053 
L 147 3053 
L 147 3500 
L 697 3500 
L 697 3744 
Q 697 4328 969 4595 
Q 1241 4863 1831 4863 
L 2375 4863 
z
" transform="scale(0.015625)"/>
      <path id="DejaVuSans-72" d="M 2631 2963 
Q 2534 3019 2420 3045 
Q 2306 3072 2169 3072 
Q 1681 3072 1420 2755 
Q 1159 2438 1159 1844 
L 1159 0 
L 581 0 
L 581 3500 
L 1159 3500 
L 1159 2956 
Q 1341 3275 1631 3429 
Q 1922 3584 2338 3584 
Q 2397 3584 2469 3576 
Q 2541 3569 2628 3553 
L 2631 2963 
z
" transform="scale(0.015625)"/>
      <path id="DejaVuSans-6d" d="M 3328 2828 
Q 3544 3216 3844 3400 
Q 4144 3584 4550 3584 
Q 5097 3584 5394 3201 
Q 5691 2819 5691 2113 
L 5691 0 
L 5113 0 
L 5113 2094 
Q 5113 2597 4934 2840 
Q 4756 3084 4391 3084 
Q 3944 3084 3684 2787 
Q 3425 2491 3425 1978 
L 3425 0 
L 2847 0 
L 2847 2094 
Q 2847 2600 2669 2842 
Q 2491 3084 2119 3084 
Q 1678 3084 1418 2786 
Q 1159 2488 1159 1978 
L 1159 0 
L 581 0 
L 581 3500 
L 1159 3500 
L 1159 2956 
Q 1356 3278 1631 3431 
Q 1906 3584 2284 3584 
Q 2666 3584 2933 3390 
Q 3200 3197 3328 2828 
z
" transform="scale(0.015625)"/>
      <path id="DejaVuSans-65" d="M 3597 1894 
L 3597 1613 
L 953 1613 
Q 991 1019 1311 708 
Q 1631 397 2203 397 
Q 2534 397 2845 478 
Q 3156 559 3463 722 
L 3463 178 
Q 3153 47 2828 -22 
Q 2503 -91 2169 -91 
Q 1331 -91 842 396 
Q 353 884 353 1716 
Q 353 2575 817 3079 
Q 1281 3584 2069 3584 
Q 2775 3584 3186 3129 
Q 3597 2675 3597 1894 
z
M 3022 2063 
Q 3016 2534 2758 2815 
Q 2500 3097 2075 3097 
Q 1594 3097 1305 2825 
Q 1016 2553 972 2059 
L 3022 2063 
z
" transform="scale(0.015625)"/>
      <path id="DejaVuSans-64" d="M 2906 2969 
L 2906 4863 
L 3481 4863 
L 3481 0 
L 2906 0 
L 2906 525 
Q 2725 213 2448 61 
Q 2172 -91 1784 -91 
Q 1150 -91 751 415 
Q 353 922 353 1747 
Q 353 2572 751 3078 
Q 1150 3584 1784 3584 
Q 2172 3584 2448 3432 
Q 2725 3281 2906 2969 
z
M 947 1747 
Q 947 1113 1208 752 
Q 1469 391 1925 391 
Q 2381 391 2643 752 
Q 2906 1113 2906 1747 
Q 2906 2381 2643 2742 
Q 2381 3103 1925 3103 
Q 1469 3103 1208 2742 
Q 947 2381 947 1747 
z
" transform="scale(0.015625)"/>
      <path id="DejaVuSans-73" d="M 2834 3397 
L 2834 2853 
Q 2591 2978 2328 3040 
Q 2066 3103 1784 3103 
Q 1356 3103 1142 2972 
Q 928 2841 928 2578 
Q 928 2378 1081 2264 
Q 1234 2150 1697 2047 
L 1894 2003 
Q 2506 1872 2764 1633 
Q 3022 1394 3022 966 
Q 3022 478 2636 193 
Q 2250 -91 1575 -91 
Q 1294 -91 989 -36 
Q 684 19 347 128 
L 347 722 
Q 666 556 975 473 
Q 1284 391 1588 391 
Q 1994 391 2212 530 
Q 2431 669 2431 922 
Q 2431 1156 2273 1281 
Q 2116 1406 1581 1522 
L 1381 1569 
Q 847 1681 609 1914 
Q 372 2147 372 2553 
Q 372 3047 722 3315 
Q 1072 3584 1716 3584 
Q 2034 3584 2315 3537 
Q 2597 3491 2834 3397 
z
" transform="scale(0.015625)"/>
      <path id="DejaVuSans-46" d="M 628 4666 
L 3309 4666 
L 3309 4134 
L 1259 4134 
L 1259 2759 
L 3109 2759 
L 3109 2228 
L 1259 2228 
L 1259 0 
L 628 0 
L 628 4666 
z
" transform="scale(0.015625)"/>
      <path id="DejaVuSans-63" d="M 3122 3366 
L 3122 2828 
Q 2878 2963 2633 3030 
Q 2388 3097 2138 3097 
Q 1578 3097 1268 2742 
Q 959 2388 959 1747 
Q 959 1106 1268 751 
Q 1578 397 2138 397 
Q 2388 397 2633 464 
Q 2878 531 3122 666 
L 3122 134 
Q 2881 22 2623 -34 
Q 2366 -91 2075 -91 
Q 1284 -91 818 406 
Q 353 903 353 1747 
Q 353 2603 823 3093 
Q 1294 3584 2113 3584 
Q 2378 3584 2631 3529 
Q 2884 3475 3122 3366 
z
" transform="scale(0.015625)"/>
      <path id="DejaVuSans-74" d="M 1172 4494 
L 1172 3500 
L 2356 3500 
L 2356 3053 
L 1172 3053 
L 1172 1153 
Q 1172 725 1289 603 
Q 1406 481 1766 481 
L 2356 481 
L 2356 0 
L 1766 0 
Q 1100 0 847 248 
Q 594 497 594 1153 
L 594 3053 
L 172 3053 
L 172 3500 
L 594 3500 
L 594 4494 
L 1172 4494 
z
" transform="scale(0.015625)"/>
      <path id="DejaVuSans-67" d="M 2906 1791 
Q 2906 2416 2648 2759 
Q 2391 3103 1925 3103 
Q 1463 3103 1205 2759 
Q 947 2416 947 1791 
Q 947 1169 1205 825 
Q 1463 481 1925 481 
Q 2391 481 2648 825 
Q 2906 1169 2906 1791 
z
M 3481 434 
Q 3481 -459 3084 -895 
Q 2688 -1331 1869 -1331 
Q 1566 -1331 1297 -1286 
Q 1028 -1241 775 -1147 
L 775 -588 
Q 1028 -725 1275 -790 
Q 1522 -856 1778 -856 
Q 2344 -856 2625 -561 
Q 2906 -266 2906 331 
L 2906 616 
Q 2728 306 2450 153 
Q 2172 0 1784 0 
Q 1141 0 747 490 
Q 353 981 353 1791 
Q 353 2603 747 3093 
Q 1141 3584 1784 3584 
Q 2172 3584 2450 3431 
Q 2728 3278 2906 2969 
L 2906 3500 
L 3481 3500 
L 3481 434 
z
" transform="scale(0.015625)"/>
      <path id="DejaVuSans-56" d="M 1831 0 
L 50 4666 
L 709 4666 
L 2188 738 
L 3669 4666 
L 4325 4666 
L 2547 0 
L 1831 0 
z
" transform="scale(0.015625)"/>
     </defs>
     <use xlink:href="#DejaVuSans-44"/>
     <use xlink:href="#DejaVuSans-61" x="77.001953"/>
     <use xlink:href="#DejaVuSans-69" x="138.28125"/>
     <use xlink:href="#DejaVuSans-6c" x="166.064453"/>
     <use xlink:href="#DejaVuSans-79" x="193.847656"/>
     <use xlink:href="#DejaVuSans-20" x="253.027344"/>
     <use xlink:href="#DejaVuSans-43" x="284.814453"/>
     <use xlink:href="#DejaVuSans-6f" x="354.638672"/>
     <use xlink:href="#DejaVuSans-6e" x="415.820312"/>
     <use xlink:href="#DejaVuSans-66" x="479.199219"/>
     <use xlink:href="#DejaVuSans-69" x="514.404297"/>
     <use xlink:href="#DejaVuSans-72" x="542.1875"/>
     <use xlink:href="#DejaVuSans-6d" x="581.550781"/>
     <use xlink:href="#DejaVuSans-65" x="678.962891"/>
     <use xlink:href="#DejaVuSans-64" x="740.486328"/>
     <use xlink:href="#DejaVuSans-20" x="803.962891"/>
     <use xlink:href="#DejaVuSans-43" x="835.75"/>
     <use xlink:href="#DejaVuSans-61" x="905.574219"/>
     <use xlink:href="#DejaVuSans-73" x="966.853516"/>
     <use xlink:href="#DejaVuSans-65" x="1018.953125"/>
     <use xlink:href="#DejaVuSans-73" x="1080.476562"/>
     <use xlink:href="#DejaVuSans-20" x="1132.576172"/>
     <use xlink:href="#DejaVuSans-46" x="1164.363281"/>
     <use xlink:href="#DejaVuSans-6f" x="1218.257812"/>
     <use xlink:href="#DejaVuSans-72" x="1279.439453"/>
     <use xlink:href="#DejaVuSans-65" x="1318.302734"/>
     <use xlink:href="#DejaVuSans-63" x="1379.826172"/>
     <use xlink:href="#DejaVuSans-61" x="1434.806641"/>
     <use xlink:href="#DejaVuSans-73" x="1496.085938"/>
     <use xlink:href="#DejaVuSans-74" x="1548.185547"/>
     <use xlink:href="#DejaVuSans-69" x="1587.394531"/>
     <use xlink:href="#DejaVuSans-6e" x="1615.177734"/>
     <use xlink:href="#DejaVuSans-67" x="1678.556641"/>
     <use xlink:href="#DejaVuSans-20" x="1742.033203"/>
     <use xlink:href="#DejaVuSans-2d" x="1773.820312"/>
     <use xlink:href="#DejaVuSans-20" x="1809.904297"/>
     <use xlink:href="#DejaVuSans-56" x="1841.691406"/>
     <use xlink:href="#DejaVuSans-65" x="1902.349609"/>
     <use xlink:href="#DejaVuSans-72" x="1963.873047"/>
     <use xlink:href="#DejaVuSans-6d" x="2003.236328"/>
     <use xlink:href="#DejaVuSans-6f" x="2100.648438"/>
     <use xlink:href="#DejaVuSans-6e" x="2161.830078"/>
     <use xlink:href="#DejaVuSans-74" x="2225.208984"/>
    </g>
    <!-- ARIMA (0, 1, 1)x(0, 0, 1, 7) (R2 = 0.463032) -->
    <g transform="translate(577.265938 29.7555)scale(0.12 -0.12)">
     <defs>
      <path id="DejaVuSans-41" d="M 2188 4044 
L 1331 1722 
L 3047 1722 
L 2188 4044 
z
M 1831 4666 
L 2547 4666 
L 4325 0 
L 3669 0 
L 3244 1197 
L 1141 1197 
L 716 0 
L 50 0 
L 1831 4666 
z
" transform="scale(0.015625)"/>
      <path id="DejaVuSans-52" d="M 2841 2188 
Q 3044 2119 3236 1894 
Q 3428 1669 3622 1275 
L 4263 0 
L 3584 0 
L 2988 1197 
Q 2756 1666 2539 1819 
Q 2322 1972 1947 1972 
L 1259 1972 
L 1259 0 
L 628 0 
L 628 4666 
L 2053 4666 
Q 2853 4666 3247 4331 
Q 3641 3997 3641 3322 
Q 3641 2881 3436 2590 
Q 3231 2300 2841 2188 
z
M 1259 4147 
L 1259 2491 
L 2053 2491 
Q 2509 2491 2742 2702 
Q 2975 2913 2975 3322 
Q 2975 3731 2742 3939 
Q 2509 4147 2053 4147 
L 1259 4147 
z
" transform="scale(0.015625)"/>
      <path id="DejaVuSans-49" d="M 628 4666 
L 1259 4666 
L 1259 0 
L 628 0 
L 628 4666 
z
" transform="scale(0.015625)"/>
      <path id="DejaVuSans-4d" d="M 628 4666 
L 1569 4666 
L 2759 1491 
L 3956 4666 
L 4897 4666 
L 4897 0 
L 4281 0 
L 4281 4097 
L 3078 897 
L 2444 897 
L 1241 4097 
L 1241 0 
L 628 0 
L 628 4666 
z
" transform="scale(0.015625)"/>
      <path id="DejaVuSans-28" d="M 1984 4856 
Q 1566 4138 1362 3434 
Q 1159 2731 1159 2009 
Q 1159 1288 1364 580 
Q 1569 -128 1984 -844 
L 1484 -844 
Q 1016 -109 783 600 
Q 550 1309 550 2009 
Q 550 2706 781 3412 
Q 1013 4119 1484 4856 
L 1984 4856 
z
" transform="scale(0.015625)"/>
      <path id="DejaVuSans-2c" d="M 750 794 
L 1409 794 
L 1409 256 
L 897 -744 
L 494 -744 
L 750 256 
L 750 794 
z
" transform="scale(0.015625)"/>
      <path id="DejaVuSans-29" d="M 513 4856 
L 1013 4856 
Q 1481 4119 1714 3412 
Q 1947 2706 1947 2009 
Q 1947 1309 1714 600 
Q 1481 -109 1013 -844 
L 513 -844 
Q 928 -128 1133 580 
Q 1338 1288 1338 2009 
Q 1338 2731 1133 3434 
Q 928 4138 513 4856 
z
" transform="scale(0.015625)"/>
      <path id="DejaVuSans-78" d="M 3513 3500 
L 2247 1797 
L 3578 0 
L 2900 0 
L 1881 1375 
L 863 0 
L 184 0 
L 1544 1831 
L 300 3500 
L 978 3500 
L 1906 2253 
L 2834 3500 
L 3513 3500 
z
" transform="scale(0.015625)"/>
      <path id="DejaVuSans-3d" d="M 678 2906 
L 4684 2906 
L 4684 2381 
L 678 2381 
L 678 2906 
z
M 678 1631 
L 4684 1631 
L 4684 1100 
L 678 1100 
L 678 1631 
z
" transform="scale(0.015625)"/>
      <path id="DejaVuSans-2e" d="M 684 794 
L 1344 794 
L 1344 0 
L 684 0 
L 684 794 
z
" transform="scale(0.015625)"/>
      <path id="DejaVuSans-36" d="M 2113 2584 
Q 1688 2584 1439 2293 
Q 1191 2003 1191 1497 
Q 1191 994 1439 701 
Q 1688 409 2113 409 
Q 2538 409 2786 701 
Q 3034 994 3034 1497 
Q 3034 2003 2786 2293 
Q 2538 2584 2113 2584 
z
M 3366 4563 
L 3366 3988 
Q 3128 4100 2886 4159 
Q 2644 4219 2406 4219 
Q 1781 4219 1451 3797 
Q 1122 3375 1075 2522 
Q 1259 2794 1537 2939 
Q 1816 3084 2150 3084 
Q 2853 3084 3261 2657 
Q 3669 2231 3669 1497 
Q 3669 778 3244 343 
Q 2819 -91 2113 -91 
Q 1303 -91 875 529 
Q 447 1150 447 2328 
Q 447 3434 972 4092 
Q 1497 4750 2381 4750 
Q 2619 4750 2861 4703 
Q 3103 4656 3366 4563 
z
" transform="scale(0.015625)"/>
     </defs>
     <use xlink:href="#DejaVuSans-41"/>
     <use xlink:href="#DejaVuSans-52" x="68.408203"/>
     <use xlink:href="#DejaVuSans-49" x="137.890625"/>
     <use xlink:href="#DejaVuSans-4d" x="167.382812"/>
     <use xlink:href="#DejaVuSans-41" x="253.662109"/>
     <use xlink:href="#DejaVuSans-20" x="322.070312"/>
     <use xlink:href="#DejaVuSans-28" x="353.857422"/>
     <use xlink:href="#DejaVuSans-30" x="392.871094"/>
     <use xlink:href="#DejaVuSans-2c" x="456.494141"/>
     <use xlink:href="#DejaVuSans-20" x="488.28125"/>
     <use xlink:href="#DejaVuSans-31" x="520.068359"/>
     <use xlink:href="#DejaVuSans-2c" x="583.691406"/>
     <use xlink:href="#DejaVuSans-20" x="615.478516"/>
     <use xlink:href="#DejaVuSans-31" x="647.265625"/>
     <use xlink:href="#DejaVuSans-29" x="710.888672"/>
     <use xlink:href="#DejaVuSans-78" x="749.902344"/>
     <use xlink:href="#DejaVuSans-28" x="809.082031"/>
     <use xlink:href="#DejaVuSans-30" x="848.095703"/>
     <use xlink:href="#DejaVuSans-2c" x="911.71875"/>
     <use xlink:href="#DejaVuSans-20" x="943.505859"/>
     <use xlink:href="#DejaVuSans-30" x="975.292969"/>
     <use xlink:href="#DejaVuSans-2c" x="1038.916016"/>
     <use xlink:href="#DejaVuSans-20" x="1070.703125"/>
     <use xlink:href="#DejaVuSans-31" x="1102.490234"/>
     <use xlink:href="#DejaVuSans-2c" x="1166.113281"/>
     <use xlink:href="#DejaVuSans-20" x="1197.900391"/>
     <use xlink:href="#DejaVuSans-37" x="1229.6875"/>
     <use xlink:href="#DejaVuSans-29" x="1293.310547"/>
     <use xlink:href="#DejaVuSans-20" x="1332.324219"/>
     <use xlink:href="#DejaVuSans-28" x="1364.111328"/>
     <use xlink:href="#DejaVuSans-52" x="1403.125"/>
     <use xlink:href="#DejaVuSans-32" x="1472.607422"/>
     <use xlink:href="#DejaVuSans-20" x="1536.230469"/>
     <use xlink:href="#DejaVuSans-3d" x="1568.017578"/>
     <use xlink:href="#DejaVuSans-20" x="1651.806641"/>
     <use xlink:href="#DejaVuSans-30" x="1683.59375"/>
     <use xlink:href="#DejaVuSans-2e" x="1747.216797"/>
     <use xlink:href="#DejaVuSans-34" x="1779.003906"/>
     <use xlink:href="#DejaVuSans-36" x="1842.626953"/>
     <use xlink:href="#DejaVuSans-33" x="1906.25"/>
     <use xlink:href="#DejaVuSans-30" x="1969.873047"/>
     <use xlink:href="#DejaVuSans-33" x="2033.496094"/>
     <use xlink:href="#DejaVuSans-32" x="2097.119141"/>
     <use xlink:href="#DejaVuSans-29" x="2160.742188"/>
    </g>
   </g>
   <g id="legend_1">
    <g id="patch_7">
     <path d="M 1274.770313 87.789875 
L 1371.85 87.789875 
Q 1373.85 87.789875 1373.85 85.789875 
L 1373.85 42.7555 
Q 1373.85 40.7555 1371.85 40.7555 
L 1274.770313 40.7555 
Q 1272.770313 40.7555 1272.770313 42.7555 
L 1272.770313 85.789875 
Q 1272.770313 87.789875 1274.770313 87.789875 
z
" style="fill: #ffffff; opacity: 0.8; stroke: #cccccc; stroke-linejoin: miter"/>
    </g>
    <g id="line2d_21">
     <path d="M 1276.770313 48.853937 
L 1286.770313 48.853937 
L 1296.770313 48.853937 
" style="fill: none; stroke: #0000ff; stroke-width: 1.5; stroke-linecap: square"/>
    </g>
    <g id="text_19">
     <!-- Actual Value -->
     <g transform="translate(1304.770313 52.353937)scale(0.1 -0.1)">
      <defs>
       <path id="DejaVuSans-75" d="M 544 1381 
L 544 3500 
L 1119 3500 
L 1119 1403 
Q 1119 906 1312 657 
Q 1506 409 1894 409 
Q 2359 409 2629 706 
Q 2900 1003 2900 1516 
L 2900 3500 
L 3475 3500 
L 3475 0 
L 2900 0 
L 2900 538 
Q 2691 219 2414 64 
Q 2138 -91 1772 -91 
Q 1169 -91 856 284 
Q 544 659 544 1381 
z
M 1991 3584 
L 1991 3584 
z
" transform="scale(0.015625)"/>
      </defs>
      <use xlink:href="#DejaVuSans-41"/>
      <use xlink:href="#DejaVuSans-63" x="66.658203"/>
      <use xlink:href="#DejaVuSans-74" x="121.638672"/>
      <use xlink:href="#DejaVuSans-75" x="160.847656"/>
      <use xlink:href="#DejaVuSans-61" x="224.226562"/>
      <use xlink:href="#DejaVuSans-6c" x="285.505859"/>
      <use xlink:href="#DejaVuSans-20" x="313.289062"/>
      <use xlink:href="#DejaVuSans-56" x="345.076172"/>
      <use xlink:href="#DejaVuSans-61" x="405.734375"/>
      <use xlink:href="#DejaVuSans-6c" x="467.013672"/>
      <use xlink:href="#DejaVuSans-75" x="494.796875"/>
      <use xlink:href="#DejaVuSans-65" x="558.175781"/>
     </g>
    </g>
    <g id="line2d_22">
     <path d="M 1276.770313 63.532062 
L 1286.770313 63.532062 
L 1296.770313 63.532062 
" style="fill: none; stroke: #ffa500; stroke-width: 1.5; stroke-linecap: square"/>
    </g>
    <g id="text_20">
     <!-- Check Value -->
     <g transform="translate(1304.770313 67.032062)scale(0.1 -0.1)">
      <defs>
       <path id="DejaVuSans-68" d="M 3513 2113 
L 3513 0 
L 2938 0 
L 2938 2094 
Q 2938 2591 2744 2837 
Q 2550 3084 2163 3084 
Q 1697 3084 1428 2787 
Q 1159 2491 1159 1978 
L 1159 0 
L 581 0 
L 581 4863 
L 1159 4863 
L 1159 2956 
Q 1366 3272 1645 3428 
Q 1925 3584 2291 3584 
Q 2894 3584 3203 3211 
Q 3513 2838 3513 2113 
z
" transform="scale(0.015625)"/>
       <path id="DejaVuSans-6b" d="M 581 4863 
L 1159 4863 
L 1159 1991 
L 2875 3500 
L 3609 3500 
L 1753 1863 
L 3688 0 
L 2938 0 
L 1159 1709 
L 1159 0 
L 581 0 
L 581 4863 
z
" transform="scale(0.015625)"/>
      </defs>
      <use xlink:href="#DejaVuSans-43"/>
      <use xlink:href="#DejaVuSans-68" x="69.824219"/>
      <use xlink:href="#DejaVuSans-65" x="133.203125"/>
      <use xlink:href="#DejaVuSans-63" x="194.726562"/>
      <use xlink:href="#DejaVuSans-6b" x="249.707031"/>
      <use xlink:href="#DejaVuSans-20" x="307.617188"/>
      <use xlink:href="#DejaVuSans-56" x="339.404297"/>
      <use xlink:href="#DejaVuSans-61" x="400.0625"/>
      <use xlink:href="#DejaVuSans-6c" x="461.341797"/>
      <use xlink:href="#DejaVuSans-75" x="489.125"/>
      <use xlink:href="#DejaVuSans-65" x="552.503906"/>
     </g>
    </g>
    <g id="line2d_23">
     <path d="M 1276.770313 78.210187 
L 1286.770313 78.210187 
L 1296.770313 78.210187 
" style="fill: none; stroke: #ff0000; stroke-width: 1.5; stroke-linecap: square"/>
    </g>
    <g id="text_21">
     <!-- Predict Value -->
     <g transform="translate(1304.770313 81.710187)scale(0.1 -0.1)">
      <defs>
       <path id="DejaVuSans-50" d="M 1259 4147 
L 1259 2394 
L 2053 2394 
Q 2494 2394 2734 2622 
Q 2975 2850 2975 3272 
Q 2975 3691 2734 3919 
Q 2494 4147 2053 4147 
L 1259 4147 
z
M 628 4666 
L 2053 4666 
Q 2838 4666 3239 4311 
Q 3641 3956 3641 3272 
Q 3641 2581 3239 2228 
Q 2838 1875 2053 1875 
L 1259 1875 
L 1259 0 
L 628 0 
L 628 4666 
z
" transform="scale(0.015625)"/>
      </defs>
      <use xlink:href="#DejaVuSans-50"/>
      <use xlink:href="#DejaVuSans-72" x="58.552734"/>
      <use xlink:href="#DejaVuSans-65" x="97.416016"/>
      <use xlink:href="#DejaVuSans-64" x="158.939453"/>
      <use xlink:href="#DejaVuSans-69" x="222.416016"/>
      <use xlink:href="#DejaVuSans-63" x="250.199219"/>
      <use xlink:href="#DejaVuSans-74" x="305.179688"/>
      <use xlink:href="#DejaVuSans-20" x="344.388672"/>
      <use xlink:href="#DejaVuSans-56" x="376.175781"/>
      <use xlink:href="#DejaVuSans-61" x="436.833984"/>
      <use xlink:href="#DejaVuSans-6c" x="498.113281"/>
      <use xlink:href="#DejaVuSans-75" x="525.896484"/>
      <use xlink:href="#DejaVuSans-65" x="589.275391"/>
     </g>
    </g>
   </g>
  </g>
 </g>
 <defs>
  <clipPath id="pc4e3afe602">
   <rect x="39.65" y="35.7555" width="1339.2" height="332.64"/>
  </clipPath>
 </defs>
</svg>
