<?xml version="1.0" encoding="utf-8" standalone="no"?>
<!DOCTYPE svg PUBLIC "-//W3C//DTD SVG 1.1//EN"
  "http://www.w3.org/Graphics/SVG/1.1/DTD/svg11.dtd">
<svg xmlns:xlink="http://www.w3.org/1999/xlink" width="1392.4125pt" height="392.273625pt" viewBox="0 0 1392.4125 392.273625" xmlns="http://www.w3.org/2000/svg" version="1.1">
 <metadata>
  <rdf:RDF xmlns:dc="http://purl.org/dc/elements/1.1/" xmlns:cc="http://creativecommons.org/ns#" xmlns:rdf="http://www.w3.org/1999/02/22-rdf-syntax-ns#">
   <cc:Work>
    <dc:type rdf:resource="http://purl.org/dc/dcmitype/StillImage"/>
    <dc:date>2022-06-24T17:28:23.316210</dc:date>
    <dc:format>image/svg+xml</dc:format>
    <dc:creator>
     <cc:Agent>
      <dc:title>Matplotlib v3.5.2, https://matplotlib.org/</dc:title>
     </cc:Agent>
    </dc:creator>
   </cc:Work>
  </rdf:RDF>
 </metadata>
 <defs>
  <style type="text/css">*{stroke-linejoin: round; stroke-linecap: butt}</style>
 </defs>
 <g id="figure_1">
  <g id="patch_1">
   <path d="M 0 392.273625 
L 1392.4125 392.273625 
L 1392.4125 0 
L 0 0 
z
" style="fill: #ffffff"/>
  </g>
  <g id="axes_1">
   <g id="patch_2">
    <path d="M 46.0125 368.3955 
L 1385.2125 368.3955 
L 1385.2125 35.7555 
L 46.0125 35.7555 
z
" style="fill: #ffffff"/>
   </g>
   <g id="matplotlib.axis_1">
    <g id="xtick_1">
     <g id="line2d_1">
      <defs>
       <path id="m0b86907225" d="M 0 0 
L 0 3.5 
" style="stroke: #000000; stroke-width: 0.8"/>
      </defs>
      <g>
       <use xlink:href="#m0b86907225" x="76.95897" y="368.3955" style="stroke: #000000; stroke-width: 0.8"/>
      </g>
     </g>
     <g id="text_1">
      <!-- 2020-01 -->
      <g transform="translate(56.067564 382.993937)scale(0.1 -0.1)">
       <defs>
        <path id="DejaVuSans-32" d="M 1228 531 
L 3431 531 
L 3431 0 
L 469 0 
L 469 531 
Q 828 903 1448 1529 
Q 2069 2156 2228 2338 
Q 2531 2678 2651 2914 
Q 2772 3150 2772 3378 
Q 2772 3750 2511 3984 
Q 2250 4219 1831 4219 
Q 1534 4219 1204 4116 
Q 875 4013 500 3803 
L 500 4441 
Q 881 4594 1212 4672 
Q 1544 4750 1819 4750 
Q 2544 4750 2975 4387 
Q 3406 4025 3406 3419 
Q 3406 3131 3298 2873 
Q 3191 2616 2906 2266 
Q 2828 2175 2409 1742 
Q 1991 1309 1228 531 
z
" transform="scale(0.015625)"/>
        <path id="DejaVuSans-30" d="M 2034 4250 
Q 1547 4250 1301 3770 
Q 1056 3291 1056 2328 
Q 1056 1369 1301 889 
Q 1547 409 2034 409 
Q 2525 409 2770 889 
Q 3016 1369 3016 2328 
Q 3016 3291 2770 3770 
Q 2525 4250 2034 4250 
z
M 2034 4750 
Q 2819 4750 3233 4129 
Q 3647 3509 3647 2328 
Q 3647 1150 3233 529 
Q 2819 -91 2034 -91 
Q 1250 -91 836 529 
Q 422 1150 422 2328 
Q 422 3509 836 4129 
Q 1250 4750 2034 4750 
z
" transform="scale(0.015625)"/>
        <path id="DejaVuSans-2d" d="M 313 2009 
L 1997 2009 
L 1997 1497 
L 313 1497 
L 313 2009 
z
" transform="scale(0.015625)"/>
        <path id="DejaVuSans-31" d="M 794 531 
L 1825 531 
L 1825 4091 
L 703 3866 
L 703 4441 
L 1819 4666 
L 2450 4666 
L 2450 531 
L 3481 531 
L 3481 0 
L 794 0 
L 794 531 
z
" transform="scale(0.015625)"/>
       </defs>
       <use xlink:href="#DejaVuSans-32"/>
       <use xlink:href="#DejaVuSans-30" x="63.623047"/>
       <use xlink:href="#DejaVuSans-32" x="127.246094"/>
       <use xlink:href="#DejaVuSans-30" x="190.869141"/>
       <use xlink:href="#DejaVuSans-2d" x="254.492188"/>
       <use xlink:href="#DejaVuSans-30" x="290.576172"/>
       <use xlink:href="#DejaVuSans-31" x="354.199219"/>
      </g>
     </g>
    </g>
    <g id="xtick_2">
     <g id="line2d_2">
      <g>
       <use xlink:href="#m0b86907225" x="200.744851" y="368.3955" style="stroke: #000000; stroke-width: 0.8"/>
      </g>
     </g>
     <g id="text_2">
      <!-- 2020-04 -->
      <g transform="translate(179.853445 382.993937)scale(0.1 -0.1)">
       <defs>
        <path id="DejaVuSans-34" d="M 2419 4116 
L 825 1625 
L 2419 1625 
L 2419 4116 
z
M 2253 4666 
L 3047 4666 
L 3047 1625 
L 3713 1625 
L 3713 1100 
L 3047 1100 
L 3047 0 
L 2419 0 
L 2419 1100 
L 313 1100 
L 313 1709 
L 2253 4666 
z
" transform="scale(0.015625)"/>
       </defs>
       <use xlink:href="#DejaVuSans-32"/>
       <use xlink:href="#DejaVuSans-30" x="63.623047"/>
       <use xlink:href="#DejaVuSans-32" x="127.246094"/>
       <use xlink:href="#DejaVuSans-30" x="190.869141"/>
       <use xlink:href="#DejaVuSans-2d" x="254.492188"/>
       <use xlink:href="#DejaVuSans-30" x="290.576172"/>
       <use xlink:href="#DejaVuSans-34" x="354.199219"/>
      </g>
     </g>
    </g>
    <g id="xtick_3">
     <g id="line2d_3">
      <g>
       <use xlink:href="#m0b86907225" x="324.530733" y="368.3955" style="stroke: #000000; stroke-width: 0.8"/>
      </g>
     </g>
     <g id="text_3">
      <!-- 2020-07 -->
      <g transform="translate(303.639326 382.993937)scale(0.1 -0.1)">
       <defs>
        <path id="DejaVuSans-37" d="M 525 4666 
L 3525 4666 
L 3525 4397 
L 1831 0 
L 1172 0 
L 2766 4134 
L 525 4134 
L 525 4666 
z
" transform="scale(0.015625)"/>
       </defs>
       <use xlink:href="#DejaVuSans-32"/>
       <use xlink:href="#DejaVuSans-30" x="63.623047"/>
       <use xlink:href="#DejaVuSans-32" x="127.246094"/>
       <use xlink:href="#DejaVuSans-30" x="190.869141"/>
       <use xlink:href="#DejaVuSans-2d" x="254.492188"/>
       <use xlink:href="#DejaVuSans-30" x="290.576172"/>
       <use xlink:href="#DejaVuSans-37" x="354.199219"/>
      </g>
     </g>
    </g>
    <g id="xtick_4">
     <g id="line2d_4">
      <g>
       <use xlink:href="#m0b86907225" x="449.676898" y="368.3955" style="stroke: #000000; stroke-width: 0.8"/>
      </g>
     </g>
     <g id="text_4">
      <!-- 2020-10 -->
      <g transform="translate(428.785492 382.993937)scale(0.1 -0.1)">
       <use xlink:href="#DejaVuSans-32"/>
       <use xlink:href="#DejaVuSans-30" x="63.623047"/>
       <use xlink:href="#DejaVuSans-32" x="127.246094"/>
       <use xlink:href="#DejaVuSans-30" x="190.869141"/>
       <use xlink:href="#DejaVuSans-2d" x="254.492188"/>
       <use xlink:href="#DejaVuSans-31" x="290.576172"/>
       <use xlink:href="#DejaVuSans-30" x="354.199219"/>
      </g>
     </g>
    </g>
    <g id="xtick_5">
     <g id="line2d_5">
      <g>
       <use xlink:href="#m0b86907225" x="574.823064" y="368.3955" style="stroke: #000000; stroke-width: 0.8"/>
      </g>
     </g>
     <g id="text_5">
      <!-- 2021-01 -->
      <g transform="translate(553.931657 382.993937)scale(0.1 -0.1)">
       <use xlink:href="#DejaVuSans-32"/>
       <use xlink:href="#DejaVuSans-30" x="63.623047"/>
       <use xlink:href="#DejaVuSans-32" x="127.246094"/>
       <use xlink:href="#DejaVuSans-31" x="190.869141"/>
       <use xlink:href="#DejaVuSans-2d" x="254.492188"/>
       <use xlink:href="#DejaVuSans-30" x="290.576172"/>
       <use xlink:href="#DejaVuSans-31" x="354.199219"/>
      </g>
     </g>
    </g>
    <g id="xtick_6">
     <g id="line2d_6">
      <g>
       <use xlink:href="#m0b86907225" x="697.24866" y="368.3955" style="stroke: #000000; stroke-width: 0.8"/>
      </g>
     </g>
     <g id="text_6">
      <!-- 2021-04 -->
      <g transform="translate(676.357254 382.993937)scale(0.1 -0.1)">
       <use xlink:href="#DejaVuSans-32"/>
       <use xlink:href="#DejaVuSans-30" x="63.623047"/>
       <use xlink:href="#DejaVuSans-32" x="127.246094"/>
       <use xlink:href="#DejaVuSans-31" x="190.869141"/>
       <use xlink:href="#DejaVuSans-2d" x="254.492188"/>
       <use xlink:href="#DejaVuSans-30" x="290.576172"/>
       <use xlink:href="#DejaVuSans-34" x="354.199219"/>
      </g>
     </g>
    </g>
    <g id="xtick_7">
     <g id="line2d_7">
      <g>
       <use xlink:href="#m0b86907225" x="821.034542" y="368.3955" style="stroke: #000000; stroke-width: 0.8"/>
      </g>
     </g>
     <g id="text_7">
      <!-- 2021-07 -->
      <g transform="translate(800.143135 382.993937)scale(0.1 -0.1)">
       <use xlink:href="#DejaVuSans-32"/>
       <use xlink:href="#DejaVuSans-30" x="63.623047"/>
       <use xlink:href="#DejaVuSans-32" x="127.246094"/>
       <use xlink:href="#DejaVuSans-31" x="190.869141"/>
       <use xlink:href="#DejaVuSans-2d" x="254.492188"/>
       <use xlink:href="#DejaVuSans-30" x="290.576172"/>
       <use xlink:href="#DejaVuSans-37" x="354.199219"/>
      </g>
     </g>
    </g>
    <g id="xtick_8">
     <g id="line2d_8">
      <g>
       <use xlink:href="#m0b86907225" x="946.180707" y="368.3955" style="stroke: #000000; stroke-width: 0.8"/>
      </g>
     </g>
     <g id="text_8">
      <!-- 2021-10 -->
      <g transform="translate(925.289301 382.993937)scale(0.1 -0.1)">
       <use xlink:href="#DejaVuSans-32"/>
       <use xlink:href="#DejaVuSans-30" x="63.623047"/>
       <use xlink:href="#DejaVuSans-32" x="127.246094"/>
       <use xlink:href="#DejaVuSans-31" x="190.869141"/>
       <use xlink:href="#DejaVuSans-2d" x="254.492188"/>
       <use xlink:href="#DejaVuSans-31" x="290.576172"/>
       <use xlink:href="#DejaVuSans-30" x="354.199219"/>
      </g>
     </g>
    </g>
    <g id="xtick_9">
     <g id="line2d_9">
      <g>
       <use xlink:href="#m0b86907225" x="1071.326873" y="368.3955" style="stroke: #000000; stroke-width: 0.8"/>
      </g>
     </g>
     <g id="text_9">
      <!-- 2022-01 -->
      <g transform="translate(1050.435467 382.993937)scale(0.1 -0.1)">
       <use xlink:href="#DejaVuSans-32"/>
       <use xlink:href="#DejaVuSans-30" x="63.623047"/>
       <use xlink:href="#DejaVuSans-32" x="127.246094"/>
       <use xlink:href="#DejaVuSans-32" x="190.869141"/>
       <use xlink:href="#DejaVuSans-2d" x="254.492188"/>
       <use xlink:href="#DejaVuSans-30" x="290.576172"/>
       <use xlink:href="#DejaVuSans-31" x="354.199219"/>
      </g>
     </g>
    </g>
    <g id="xtick_10">
     <g id="line2d_10">
      <g>
       <use xlink:href="#m0b86907225" x="1193.75247" y="368.3955" style="stroke: #000000; stroke-width: 0.8"/>
      </g>
     </g>
     <g id="text_10">
      <!-- 2022-04 -->
      <g transform="translate(1172.861063 382.993937)scale(0.1 -0.1)">
       <use xlink:href="#DejaVuSans-32"/>
       <use xlink:href="#DejaVuSans-30" x="63.623047"/>
       <use xlink:href="#DejaVuSans-32" x="127.246094"/>
       <use xlink:href="#DejaVuSans-32" x="190.869141"/>
       <use xlink:href="#DejaVuSans-2d" x="254.492188"/>
       <use xlink:href="#DejaVuSans-30" x="290.576172"/>
       <use xlink:href="#DejaVuSans-34" x="354.199219"/>
      </g>
     </g>
    </g>
    <g id="xtick_11">
     <g id="line2d_11">
      <g>
       <use xlink:href="#m0b86907225" x="1317.538351" y="368.3955" style="stroke: #000000; stroke-width: 0.8"/>
      </g>
     </g>
     <g id="text_11">
      <!-- 2022-07 -->
      <g transform="translate(1296.646944 382.993937)scale(0.1 -0.1)">
       <use xlink:href="#DejaVuSans-32"/>
       <use xlink:href="#DejaVuSans-30" x="63.623047"/>
       <use xlink:href="#DejaVuSans-32" x="127.246094"/>
       <use xlink:href="#DejaVuSans-32" x="190.869141"/>
       <use xlink:href="#DejaVuSans-2d" x="254.492188"/>
       <use xlink:href="#DejaVuSans-30" x="290.576172"/>
       <use xlink:href="#DejaVuSans-37" x="354.199219"/>
      </g>
     </g>
    </g>
   </g>
   <g id="matplotlib.axis_2">
    <g id="ytick_1">
     <g id="line2d_12">
      <defs>
       <path id="m172bf2df86" d="M 0 0 
L -3.5 0 
" style="stroke: #000000; stroke-width: 0.8"/>
      </defs>
      <g>
       <use xlink:href="#m172bf2df86" x="46.0125" y="350.999615" style="stroke: #000000; stroke-width: 0.8"/>
      </g>
     </g>
     <g id="text_12">
      <!-- 0 -->
      <g transform="translate(32.65 354.798834)scale(0.1 -0.1)">
       <use xlink:href="#DejaVuSans-30"/>
      </g>
     </g>
    </g>
    <g id="ytick_2">
     <g id="line2d_13">
      <g>
       <use xlink:href="#m172bf2df86" x="46.0125" y="309.017168" style="stroke: #000000; stroke-width: 0.8"/>
      </g>
     </g>
     <g id="text_13">
      <!-- 2500 -->
      <g transform="translate(13.5625 312.816387)scale(0.1 -0.1)">
       <defs>
        <path id="DejaVuSans-35" d="M 691 4666 
L 3169 4666 
L 3169 4134 
L 1269 4134 
L 1269 2991 
Q 1406 3038 1543 3061 
Q 1681 3084 1819 3084 
Q 2600 3084 3056 2656 
Q 3513 2228 3513 1497 
Q 3513 744 3044 326 
Q 2575 -91 1722 -91 
Q 1428 -91 1123 -41 
Q 819 9 494 109 
L 494 744 
Q 775 591 1075 516 
Q 1375 441 1709 441 
Q 2250 441 2565 725 
Q 2881 1009 2881 1497 
Q 2881 1984 2565 2268 
Q 2250 2553 1709 2553 
Q 1456 2553 1204 2497 
Q 953 2441 691 2322 
L 691 4666 
z
" transform="scale(0.015625)"/>
       </defs>
       <use xlink:href="#DejaVuSans-32"/>
       <use xlink:href="#DejaVuSans-35" x="63.623047"/>
       <use xlink:href="#DejaVuSans-30" x="127.246094"/>
       <use xlink:href="#DejaVuSans-30" x="190.869141"/>
      </g>
     </g>
    </g>
    <g id="ytick_3">
     <g id="line2d_14">
      <g>
       <use xlink:href="#m172bf2df86" x="46.0125" y="267.034721" style="stroke: #000000; stroke-width: 0.8"/>
      </g>
     </g>
     <g id="text_14">
      <!-- 5000 -->
      <g transform="translate(13.5625 270.83394)scale(0.1 -0.1)">
       <use xlink:href="#DejaVuSans-35"/>
       <use xlink:href="#DejaVuSans-30" x="63.623047"/>
       <use xlink:href="#DejaVuSans-30" x="127.246094"/>
       <use xlink:href="#DejaVuSans-30" x="190.869141"/>
      </g>
     </g>
    </g>
    <g id="ytick_4">
     <g id="line2d_15">
      <g>
       <use xlink:href="#m172bf2df86" x="46.0125" y="225.052275" style="stroke: #000000; stroke-width: 0.8"/>
      </g>
     </g>
     <g id="text_15">
      <!-- 7500 -->
      <g transform="translate(13.5625 228.851494)scale(0.1 -0.1)">
       <use xlink:href="#DejaVuSans-37"/>
       <use xlink:href="#DejaVuSans-35" x="63.623047"/>
       <use xlink:href="#DejaVuSans-30" x="127.246094"/>
       <use xlink:href="#DejaVuSans-30" x="190.869141"/>
      </g>
     </g>
    </g>
    <g id="ytick_5">
     <g id="line2d_16">
      <g>
       <use xlink:href="#m172bf2df86" x="46.0125" y="183.069828" style="stroke: #000000; stroke-width: 0.8"/>
      </g>
     </g>
     <g id="text_16">
      <!-- 10000 -->
      <g transform="translate(7.2 186.869047)scale(0.1 -0.1)">
       <use xlink:href="#DejaVuSans-31"/>
       <use xlink:href="#DejaVuSans-30" x="63.623047"/>
       <use xlink:href="#DejaVuSans-30" x="127.246094"/>
       <use xlink:href="#DejaVuSans-30" x="190.869141"/>
       <use xlink:href="#DejaVuSans-30" x="254.492188"/>
      </g>
     </g>
    </g>
    <g id="ytick_6">
     <g id="line2d_17">
      <g>
       <use xlink:href="#m172bf2df86" x="46.0125" y="141.087381" style="stroke: #000000; stroke-width: 0.8"/>
      </g>
     </g>
     <g id="text_17">
      <!-- 12500 -->
      <g transform="translate(7.2 144.8866)scale(0.1 -0.1)">
       <use xlink:href="#DejaVuSans-31"/>
       <use xlink:href="#DejaVuSans-32" x="63.623047"/>
       <use xlink:href="#DejaVuSans-35" x="127.246094"/>
       <use xlink:href="#DejaVuSans-30" x="190.869141"/>
       <use xlink:href="#DejaVuSans-30" x="254.492188"/>
      </g>
     </g>
    </g>
    <g id="ytick_7">
     <g id="line2d_18">
      <g>
       <use xlink:href="#m172bf2df86" x="46.0125" y="99.104935" style="stroke: #000000; stroke-width: 0.8"/>
      </g>
     </g>
     <g id="text_18">
      <!-- 15000 -->
      <g transform="translate(7.2 102.904154)scale(0.1 -0.1)">
       <use xlink:href="#DejaVuSans-31"/>
       <use xlink:href="#DejaVuSans-35" x="63.623047"/>
       <use xlink:href="#DejaVuSans-30" x="127.246094"/>
       <use xlink:href="#DejaVuSans-30" x="190.869141"/>
       <use xlink:href="#DejaVuSans-30" x="254.492188"/>
      </g>
     </g>
    </g>
    <g id="ytick_8">
     <g id="line2d_19">
      <g>
       <use xlink:href="#m172bf2df86" x="46.0125" y="57.122488" style="stroke: #000000; stroke-width: 0.8"/>
      </g>
     </g>
     <g id="text_19">
      <!-- 17500 -->
      <g transform="translate(7.2 60.921707)scale(0.1 -0.1)">
       <use xlink:href="#DejaVuSans-31"/>
       <use xlink:href="#DejaVuSans-37" x="63.623047"/>
       <use xlink:href="#DejaVuSans-35" x="127.246094"/>
       <use xlink:href="#DejaVuSans-30" x="190.869141"/>
       <use xlink:href="#DejaVuSans-30" x="254.492188"/>
      </g>
     </g>
    </g>
   </g>
   <g id="line2d_20">
    <path d="M 106.885227 350.999615 
L 174.899448 350.898857 
L 176.259732 350.848478 
L 177.620017 351.049994 
L 178.980301 350.697341 
L 180.340585 350.697341 
L 181.70087 350.57979 
L 183.061154 350.630169 
L 184.421439 350.29431 
L 188.502292 350.227138 
L 191.222861 349.723348 
L 192.583145 348.346324 
L 195.303714 347.30516 
L 196.663998 346.902128 
L 198.024283 348.077637 
L 200.744851 345.525104 
L 202.105136 345.206037 
L 203.46542 343.829013 
L 204.825705 344.836592 
L 206.185989 342.737469 
L 207.546273 343.81222 
L 208.906558 345.525104 
L 210.266842 331.553346 
L 211.627127 339.983421 
L 212.987411 337.850713 
L 214.347696 338.807912 
L 215.70798 342.082543 
L 217.068264 339.059807 
L 218.428549 341.998578 
L 219.788833 341.595547 
L 221.149118 338.371295 
L 222.509402 337.766748 
L 223.869686 338.337709 
L 225.229971 342.250473 
L 226.590255 336.943892 
L 227.95054 342.451989 
L 229.310824 341.226101 
L 230.671108 334.844769 
L 232.031393 336.238587 
L 233.391677 331.687689 
L 234.751962 337.313337 
L 236.112246 335.785176 
L 237.47253 340.48721 
L 238.832815 338.639983 
L 240.193099 336.003485 
L 241.553384 321.947762 
L 242.913668 334.189843 
L 244.273953 334.391359 
L 245.634237 335.113457 
L 246.994521 339.093393 
L 248.354806 333.434159 
L 249.71509 330.663318 
L 251.075375 332.342616 
L 252.435659 333.38378 
L 253.795943 333.316608 
L 255.156228 337.800334 
L 256.516512 339.446046 
L 257.876797 338.388088 
L 259.237081 332.678475 
L 260.597365 332.812819 
L 261.95765 334.50891 
L 263.317934 336.960685 
L 264.678219 334.911941 
L 266.038503 321.040941 
L 267.398787 337.95147 
L 268.759072 330.713697 
L 270.119356 336.003485 
L 271.479641 333.014335 
L 272.839925 337.262958 
L 274.200209 336.910306 
L 275.560494 342.015371 
L 276.920778 338.639983 
L 278.281063 329.403844 
L 279.641347 329.521395 
L 282.361916 338.186572 
L 283.7222 341.78027 
L 285.082485 336.759169 
L 286.442769 337.447681 
L 287.803054 336.288966 
L 289.163338 335.684418 
L 290.523622 339.043014 
L 291.883907 342.754262 
L 293.244191 343.761841 
L 295.96476 341.578754 
L 297.325044 338.707154 
L 298.685329 344.013736 
L 300.045613 339.378874 
L 301.405898 344.349595 
L 302.766182 345.441139 
L 304.126466 344.668662 
L 305.486751 341.595547 
L 306.847035 346.63344 
L 308.20732 345.642655 
L 309.567604 344.14808 
L 312.288173 346.0121 
L 313.648457 344.215251 
L 315.008742 345.457932 
L 316.369026 343.610704 
L 317.729311 345.323588 
L 320.449879 345.508311 
L 321.810164 342.989364 
L 323.170448 345.877756 
L 324.530733 344.970936 
L 325.891017 342.519161 
L 327.251301 341.964992 
L 328.611586 344.618283 
L 329.97187 346.112858 
L 331.332155 346.431925 
L 332.692439 342.737469 
L 334.052723 343.19088 
L 335.413008 341.158929 
L 336.773292 343.224466 
L 339.493861 340.218523 
L 340.854146 343.98015 
L 342.21443 338.690362 
L 343.574714 338.304123 
L 344.934999 340.117765 
L 346.295283 339.126979 
L 347.655568 336.977478 
L 349.015852 335.46611 
L 350.376136 341.696305 
L 351.736421 336.557653 
L 353.096705 340.470417 
L 354.45699 339.849077 
L 355.817274 335.382145 
L 357.177558 329.370258 
L 358.537843 339.345288 
L 359.898127 332.057135 
L 361.258412 340.117765 
L 362.618696 338.220158 
L 363.97898 336.020278 
L 365.339265 331.368623 
L 366.699549 333.88757 
L 368.059834 335.734797 
L 369.420118 336.389723 
L 370.780402 339.0766 
L 372.140687 341.394031 
L 373.500971 341.27648 
L 374.861256 337.548439 
L 376.22154 337.985056 
L 377.581825 335.516489 
L 380.302393 341.175722 
L 381.662678 341.914613 
L 383.022962 337.968263 
L 384.383247 338.992635 
L 385.743531 337.262958 
L 387.103815 342.284059 
L 388.4641 342.552747 
L 389.824384 342.267266 
L 391.184669 344.047322 
L 392.544953 341.259687 
L 393.905237 339.748319 
L 396.625806 341.27648 
L 397.986091 341.477996 
L 399.346375 344.668662 
L 400.706659 343.610704 
L 402.066944 341.310066 
L 404.787513 340.420038 
L 406.147797 342.653504 
L 407.508082 343.308431 
L 408.868366 340.688726 
L 410.22865 343.342017 
L 411.588935 339.362081 
L 412.949219 337.246165 
L 414.309504 337.968263 
L 415.669788 342.40161 
L 417.030072 338.169779 
L 418.390357 345.021314 
L 419.750641 345.357174 
L 421.110926 342.552747 
L 422.47121 340.151351 
L 423.831494 337.414095 
L 425.191779 341.310066 
L 426.552063 341.998578 
L 427.912348 340.940621 
L 429.272632 340.20173 
L 430.632916 340.403245 
L 431.993201 341.881027 
L 433.353485 339.546803 
L 434.71377 344.080908 
L 436.074054 344.080908 
L 437.434338 345.22283 
L 438.794623 344.534318 
L 440.154907 342.552747 
L 442.875476 340.705519 
L 444.235761 343.761841 
L 445.596045 342.989364 
L 446.956329 343.761841 
L 448.316614 344.047322 
L 449.676898 337.817127 
L 451.037183 339.043014 
L 453.757751 343.090122 
L 455.118036 342.586333 
L 456.47832 344.064115 
L 457.838605 343.274845 
L 459.198889 338.220158 
L 460.559173 338.673569 
L 461.919458 340.31928 
L 463.279742 341.561961 
L 464.640027 342.535954 
L 466.000311 342.905399 
L 467.360595 341.343652 
L 468.72088 340.420038 
L 470.081164 337.884299 
L 471.441449 337.598818 
L 472.801733 342.099336 
L 474.162018 342.653504 
L 475.522302 341.091757 
L 476.882586 342.737469 
L 478.242871 338.522432 
L 479.603155 339.043014 
L 480.96344 337.632404 
L 482.323724 337.699576 
L 483.684008 341.511582 
L 485.044293 335.936313 
L 486.404577 339.513217 
L 487.764862 334.844769 
L 489.125146 335.432524 
L 490.48543 334.760804 
L 491.845715 336.490481 
L 493.205999 336.725583 
L 494.566284 338.052228 
L 495.926568 334.206636 
L 497.286852 330.881626 
L 498.647137 325.121635 
L 500.007421 327.321515 
L 501.367706 332.846405 
L 502.72799 327.909269 
L 504.088275 328.530609 
L 505.448559 322.216449 
L 506.808843 326.196385 
L 508.169128 319.613538 
L 509.529412 312.023111 
L 510.889697 320.100534 
L 512.249981 322.014934 
L 513.610265 314.911504 
L 514.97055 317.111384 
L 516.330834 302.132047 
L 517.691119 311.485736 
L 519.051403 302.551871 
L 520.411687 314.592437 
L 521.771972 323.156856 
L 523.132256 323.005719 
L 524.492541 305.708951 
L 525.852825 312.056697 
L 527.213109 311.065912 
L 528.573394 324.298779 
L 529.933678 317.430451 
L 531.293963 318.706717 
L 532.654247 304.567029 
L 534.014531 313.719202 
L 535.374816 316.674766 
L 536.7351 287.32064 
L 539.455669 306.615772 
L 540.815954 312.342178 
L 542.176238 306.800495 
L 543.536522 305.792916 
L 544.896807 297.228497 
L 546.257091 307.069183 
L 547.617376 291.586056 
L 548.97766 306.699737 
L 550.337944 312.140662 
L 551.698229 310.679673 
L 553.058513 310.612501 
L 554.418798 313.769581 
L 555.779082 307.858453 
L 557.139366 314.038269 
L 558.499651 316.506837 
L 559.859935 312.963518 
L 561.22022 311.972732 
L 562.580504 309.604922 
L 563.940788 302.870938 
L 565.301073 310.159091 
L 566.661357 312.711623 
L 568.021642 321.477558 
L 569.381926 317.665552 
L 570.742211 319.462401 
L 572.102495 306.867667 
L 573.462779 301.074089 
L 574.823064 291.26699 
L 576.183348 301.426742 
L 577.543633 314.928297 
L 578.903917 309.302649 
L 580.264201 318.152549 
L 581.624486 298.168904 
L 582.98477 301.124468 
L 584.345055 288.328218 
L 585.705339 287.891601 
L 587.065623 295.414855 
L 588.425908 300.419163 
L 589.786192 306.246327 
L 591.146477 308.748481 
L 592.506761 301.493914 
L 593.867045 301.896945 
L 595.22733 295.717129 
L 596.587614 310.461364 
L 597.947899 321.292836 
L 600.668467 314.60923 
L 602.028752 314.626023 
L 603.389036 310.763638 
L 604.749321 310.83081 
L 606.109605 314.978676 
L 607.46989 322.686653 
L 608.830174 326.11242 
L 610.190458 318.438029 
L 611.550743 314.222992 
L 612.911027 319.428815 
L 614.271312 315.784739 
L 615.631596 321.662281 
L 616.99188 331.469381 
L 618.352165 335.801969 
L 619.712449 335.180629 
L 621.072734 324.903326 
L 622.433018 325.020877 
L 623.793302 325.810147 
L 625.153587 324.70181 
L 626.513871 335.835555 
L 627.874156 334.609668 
L 629.23444 331.905998 
L 630.594724 330.864833 
L 631.955009 332.325823 
L 633.315293 331.536553 
L 634.675578 336.775962 
L 636.035862 338.875084 
L 637.396147 342.334438 
L 640.116715 334.441738 
L 641.477 334.072292 
L 642.837284 338.186572 
L 644.197569 340.621554 
L 645.557853 340.739105 
L 646.918137 339.882663 
L 648.278422 336.524067 
L 649.638706 334.609668 
L 650.998991 334.710426 
L 652.359275 336.960685 
L 653.719559 337.111822 
L 655.079844 340.873449 
L 656.440128 343.140501 
L 657.800413 337.800334 
L 659.160697 337.414095 
L 660.520981 335.667625 
L 661.881266 335.348559 
L 663.24155 339.093393 
L 664.601835 338.975842 
L 665.962119 340.403245 
L 667.322404 335.885934 
L 668.682688 335.482903 
L 670.042972 334.374566 
L 671.403257 332.510545 
L 674.123826 340.638347 
L 675.48411 339.949835 
L 676.844394 335.600453 
L 678.204679 332.30903 
L 679.564963 331.654103 
L 680.925248 332.225065 
L 682.285532 334.089085 
L 683.645816 339.546803 
L 685.006101 338.875084 
L 686.366385 331.301451 
L 687.72667 327.791718 
L 689.086954 328.144371 
L 690.447238 328.060406 
L 691.807523 328.580988 
L 693.167807 333.686054 
L 694.528092 335.835555 
L 695.888376 328.060406 
L 697.24866 324.399537 
L 698.608945 326.532245 
L 699.969229 329.588567 
L 701.329514 322.972133 
L 702.689798 336.574446 
L 704.050083 336.440102 
L 705.410367 326.297143 
L 706.770651 329.219122 
L 708.130936 320.100534 
L 709.49122 324.399537 
L 710.851505 326.095627 
L 712.211789 334.458531 
L 713.572073 332.796026 
L 714.932358 324.936912 
L 716.292642 326.750554 
L 717.652927 324.735396 
L 719.013211 325.810147 
L 720.373495 331.368623 
L 721.73378 340.403245 
L 724.454349 330.764076 
L 725.814633 330.797662 
L 727.174917 331.469381 
L 728.535202 330.915212 
L 729.895486 335.785176 
L 731.255771 341.645926 
L 732.616055 339.630768 
L 733.97634 334.17305 
L 735.336624 334.777597 
L 736.696908 335.180629 
L 738.057193 335.231008 
L 739.417477 340.100972 
L 740.777762 342.267266 
L 742.138046 342.586333 
L 743.49833 339.597182 
L 744.858615 341.293273 
L 746.218899 338.102607 
L 747.579184 339.983421 
L 748.939468 343.711462 
L 750.299752 346.364753 
L 751.660037 344.299216 
L 753.020321 343.090122 
L 754.380606 343.039743 
L 755.74089 342.40161 
L 757.101174 344.651869 
L 758.461459 344.803006 
L 759.821743 347.439503 
L 761.182028 347.439503 
L 762.542312 345.340381 
L 763.902596 345.642655 
L 765.262881 343.560325 
L 766.623165 342.250473 
L 767.98345 346.902128 
L 769.343734 347.170816 
L 770.704019 348.312738 
L 772.064303 347.674605 
L 773.424587 347.355538 
L 774.784872 346.834956 
L 776.145156 347.892914 
L 777.505441 346.818163 
L 778.865725 349.034836 
L 780.226009 349.303524 
L 781.586294 349.908071 
L 782.946578 348.749356 
L 784.306863 348.564633 
L 785.667147 348.782942 
L 787.027431 349.253145 
L 788.387716 349.589005 
L 789.748 349.689763 
L 791.108285 348.8837 
L 793.828853 349.102008 
L 795.189138 349.555419 
L 796.549422 349.622591 
L 797.909707 349.992036 
L 803.350844 349.555419 
L 806.071413 350.29431 
L 807.431698 350.327896 
L 811.512551 349.891278 
L 815.593404 349.891278 
L 816.953688 350.378275 
L 818.313973 350.395068 
L 819.674257 349.95845 
L 823.75511 349.387489 
L 825.115395 349.975243 
L 826.475679 350.361482 
L 829.196248 350.076001 
L 831.916817 348.564633 
L 833.277101 348.866907 
L 834.637386 349.67297 
L 835.99767 349.67297 
L 837.357955 349.018043 
L 838.718239 349.253145 
L 840.078523 348.010465 
L 842.799092 347.9265 
L 844.159377 348.21198 
L 845.519661 348.665391 
L 846.879945 348.396703 
L 848.24023 346.902128 
L 849.600514 345.911342 
L 850.960799 346.163237 
L 852.321083 345.676241 
L 853.681367 345.860963 
L 855.041652 346.700612 
L 856.401936 345.810584 
L 857.762221 344.013736 
L 859.122505 342.519161 
L 860.482789 342.166508 
L 861.843074 341.142136 
L 863.203358 341.813856 
L 864.563643 343.493153 
L 865.923927 344.819799 
L 867.284212 339.328495 
L 868.644496 338.757533 
L 870.00478 336.053864 
L 871.365065 336.020278 
L 872.725349 336.675204 
L 874.085634 341.158929 
L 875.445918 340.436831 
L 876.806202 336.121036 
L 878.166487 333.417366 
L 879.526771 335.046285 
L 880.887056 333.937949 
L 882.24734 336.406516 
L 883.607624 338.136193 
L 884.967909 336.70879 
L 886.328193 334.00512 
L 887.688478 333.199057 
L 889.048762 330.747283 
L 890.409046 332.006756 
L 891.769331 334.374566 
L 893.129615 335.46611 
L 894.4899 336.775962 
L 895.850184 331.01597 
L 897.210469 330.109149 
L 898.570753 327.942855 
L 899.931037 328.02682 
L 901.291322 333.081507 
L 902.651606 335.180629 
L 904.011891 332.896784 
L 905.372175 327.926062 
L 906.732459 329.638946 
L 908.092744 327.707753 
L 909.453028 330.948798 
L 910.813313 337.481267 
L 912.173597 333.753226 
L 913.533881 337.649197 
L 914.894166 339.227737 
L 916.25445 335.768383 
L 917.614735 324.920119 
L 918.975019 327.892476 
L 920.335303 331.687689 
L 921.695588 332.476959 
L 923.055872 332.628096 
L 924.416157 331.032763 
L 925.776441 328.664953 
L 927.136725 325.390322 
L 929.857294 333.602089 
L 931.217579 331.872412 
L 932.577863 334.643254 
L 933.938148 331.771654 
L 935.298432 327.40548 
L 936.658716 328.110785 
L 938.019001 324.685017 
L 939.379285 332.292237 
L 940.73957 334.878355 
L 942.099854 334.67684 
L 943.460138 332.107514 
L 944.820423 326.162799 
L 946.180707 325.306357 
L 947.540992 329.387051 
L 948.901276 332.661682 
L 950.26156 332.896784 
L 951.621845 340.100972 
L 952.982129 332.913577 
L 954.342414 327.523031 
L 955.702698 331.251072 
L 958.423267 328.614574 
L 959.783551 337.414095 
L 961.143836 344.097701 
L 962.50412 332.30903 
L 963.864405 332.1411 
L 965.224689 333.064714 
L 966.584973 335.281387 
L 967.945258 336.37293 
L 970.665827 341.881027 
L 972.026111 338.959049 
L 973.386395 333.047921 
L 974.74668 336.507274 
L 976.106964 335.718004 
L 978.827533 342.40161 
L 980.187817 340.974207 
L 981.548102 338.723947 
L 982.908386 335.398938 
L 984.268671 335.701211 
L 985.628955 336.37293 
L 986.989239 340.31928 
L 988.349524 343.47636 
L 989.709808 342.905399 
L 991.070093 339.311702 
L 992.430377 337.565232 
L 993.790662 336.423309 
L 995.150946 337.716369 
L 996.51123 338.791119 
L 997.871515 341.679512 
L 999.231799 343.47636 
L 1000.592084 336.826341 
L 1001.952368 334.458531 
L 1003.312652 335.734797 
L 1004.672937 334.492117 
L 1006.033221 337.246165 
L 1007.393506 338.959049 
L 1008.75379 339.210944 
L 1010.114074 337.716369 
L 1011.474359 332.879991 
L 1012.834643 332.829612 
L 1014.194928 333.921156 
L 1015.555212 334.105878 
L 1016.915496 337.027857 
L 1018.275781 338.572811 
L 1019.636065 335.801969 
L 1020.99635 350.999615 
L 1022.356634 350.999615 
L 1023.716918 303.928896 
L 1025.077203 336.927099 
L 1026.437487 338.203365 
L 1027.797772 330.109149 
L 1029.158056 331.822033 
L 1030.518341 320.30205 
L 1031.878625 322.451551 
L 1033.238909 319.663917 
L 1034.599194 334.257015 
L 1035.959478 334.559289 
L 1037.319763 331.032763 
L 1038.680047 330.73049 
L 1040.040331 325.474287 
L 1041.400616 321.695867 
L 1042.7609 330.176321 
L 1044.121185 328.144371 
L 1045.481469 326.649796 
L 1046.841753 322.182863 
L 1048.202038 314.206199 
L 1049.562322 298.185697 
L 1050.922607 291.670021 
L 1052.282891 294.726343 
L 1053.643175 309.487372 
L 1055.00346 331.116728 
L 1056.363744 242.886418 
L 1057.724029 273.432846 
L 1060.444598 172.490252 
L 1061.804882 184.278923 
L 1063.165166 246.983905 
L 1064.525451 253.869026 
L 1065.885735 228.74673 
L 1067.24602 150.995239 
L 1068.606304 91.615266 
L 1069.966588 130.894043 
L 1071.326873 100.633096 
L 1072.687157 161.541229 
L 1074.047442 100.465166 
L 1075.407726 94.957069 
L 1076.76801 162.699945 
L 1078.128295 120.633533 
L 1079.488579 136.234211 
L 1080.848864 119.844263 
L 1082.209148 50.8755 
L 1083.569432 180.517295 
L 1084.929717 177.813626 
L 1086.290001 154.756866 
L 1087.650286 162.464843 
L 1089.01057 174.858062 
L 1090.370854 177.057942 
L 1091.731139 213.062088 
L 1093.091423 237.008876 
L 1094.451708 293.366112 
L 1095.811992 277.899779 
L 1097.172277 195.966836 
L 1098.532561 266.833206 
L 1099.892845 265.892799 
L 1101.25313 287.421398 
L 1102.613414 304.18079 
L 1103.973699 307.757695 
L 1105.333983 298.941381 
L 1106.694267 293.248561 
L 1108.054552 297.715494 
L 1109.414836 308.563758 
L 1110.775121 317.329693 
L 1112.135405 332.107514 
L 1113.495689 324.433123 
L 1114.855974 326.246764 
L 1116.216258 314.525265 
L 1117.576543 322.569102 
L 1118.936827 322.602688 
L 1120.297111 331.435795 
L 1121.657396 337.649197 
L 1124.377965 337.66599 
L 1125.738249 332.544131 
L 1127.098534 335.247801 
L 1128.458818 335.197422 
L 1129.819102 338.942256 
L 1131.179387 343.862599 
L 1132.539671 343.560325 
L 1133.899956 342.922192 
L 1135.26024 338.388088 
L 1136.620524 336.658411 
L 1137.980809 336.473688 
L 1139.341093 332.712061 
L 1140.701378 350.999615 
L 1142.061662 338.371295 
L 1143.421946 345.273209 
L 1144.782231 339.899456 
L 1146.142515 339.714733 
L 1147.5028 335.096664 
L 1148.863084 344.60149 
L 1150.223368 344.467146 
L 1151.583653 345.038107 
L 1152.943937 344.198459 
L 1154.304222 343.090122 
L 1155.664506 344.316009 
L 1157.024791 344.584697 
L 1158.385075 346.818163 
L 1159.745359 347.254781 
L 1161.105644 346.062479 
L 1162.465928 346.34796 
L 1163.826213 344.567904 
L 1165.186497 345.189244 
L 1166.546781 344.786213 
L 1167.907066 347.573847 
L 1169.26735 348.54784 
L 1170.627635 346.667026 
L 1171.987919 345.424346 
L 1173.348203 344.685455 
L 1174.708488 343.778634 
L 1176.068772 344.987729 
L 1177.429057 347.573847 
L 1178.789341 348.060844 
L 1180.149625 347.943293 
L 1181.50991 346.868542 
L 1182.870194 344.920557 
L 1184.230479 344.43356 
L 1185.590763 344.26563 
L 1186.951047 347.221195 
L 1188.311332 347.439503 
L 1189.671616 346.34796 
L 1191.031901 346.18003 
L 1192.392185 343.929771 
L 1193.75247 343.64429 
L 1195.112754 350.999615 
L 1196.473038 350.999615 
L 1197.833323 333.55171 
L 1199.193607 345.961721 
L 1200.553892 342.149715 
L 1201.914176 342.754262 
L 1203.27446 340.184937 
L 1204.634745 350.999615 
L 1205.995029 350.999615 
L 1207.355314 323.91254 
L 1208.715598 342.619919 
L 1210.075882 343.342017 
L 1211.436167 337.985056 
L 1212.796451 337.800334 
L 1214.156736 350.999615 
L 1215.51702 350.999615 
L 1216.877304 336.490481 
L 1218.237589 319.529573 
L 1219.597873 340.31928 
L 1220.958158 333.467745 
L 1222.318442 333.954742 
L 1223.678727 350.999615 
L 1225.039011 350.999615 
L 1226.399295 334.122671 
L 1227.75958 315.717567 
L 1229.119864 338.807912 
L 1230.480149 327.623789 
L 1231.840433 327.674167 
L 1233.200717 350.999615 
L 1234.561002 350.999615 
L 1235.921286 330.142735 
L 1237.281571 313.500893 
L 1238.641855 328.664953 
L 1240.002139 325.390322 
L 1241.362424 318.874647 
L 1242.722708 350.999615 
L 1244.082993 350.999615 
L 1245.443277 320.016569 
L 1246.803561 282.148402 
L 1248.163846 325.138428 
L 1249.52413 313.887132 
L 1250.884415 309.571336 
L 1252.244699 350.999615 
L 1253.604983 350.999615 
L 1254.965268 307.186734 
L 1256.325552 255.346808 
L 1257.685837 317.548001 
L 1259.046121 304.483064 
L 1260.406406 300.351991 
L 1261.76669 350.999615 
L 1263.126974 350.999615 
L 1264.487259 314.323749 
L 1265.847543 251.350079 
L 1267.207828 317.699138 
L 1268.568112 306.918046 
L 1269.928396 306.044811 
L 1271.288681 350.999615 
L 1274.00925 350.999615 
L 1275.369534 313.98789 
L 1276.729818 219.796072 
L 1278.090103 351.453025 
L 1279.450387 309.201891 
L 1280.810672 350.999615 
L 1282.170956 350.999615 
L 1283.53124 311.233841 
L 1284.891525 276.203688 
L 1286.251809 328.177957 
L 1287.612094 321.511144 
L 1288.972378 324.953705 
L 1290.332663 350.999615 
L 1291.692947 350.999615 
L 1293.053231 319.294471 
L 1294.413516 293.46687 
L 1295.7738 331.788447 
L 1297.134085 323.576681 
L 1298.494369 318.841061 
L 1299.854653 350.999615 
L 1302.575222 350.999615 
L 1303.935507 327.69096 
L 1305.295791 283.710149 
L 1306.656075 324.164435 
L 1306.656075 324.164435 
" clip-path="url(#pe09222ed63)" style="fill: none; stroke: #0000ff; stroke-width: 1.5; stroke-linecap: square"/>
   </g>
   <g id="line2d_21">
    <path d="M 1067.24602 178.605609 
L 1068.606304 124.934689 
L 1071.326873 134.126596 
L 1072.687157 151.807614 
L 1074.047442 108.472109 
L 1075.407726 88.319723 
L 1076.76801 101.08046 
L 1078.128295 110.724383 
L 1079.488579 117.221381 
L 1080.848864 143.780389 
L 1082.209148 89.606143 
L 1083.569432 118.714896 
L 1084.929717 152.593148 
L 1086.290001 129.811704 
L 1087.650286 148.928742 
L 1089.01057 153.915227 
L 1090.370854 165.977798 
L 1091.731139 210.108133 
L 1093.091423 213.272498 
L 1094.451708 249.80001 
L 1095.811992 249.261214 
L 1097.172277 229.359392 
L 1098.532561 242.793019 
L 1099.892845 262.412814 
L 1101.25313 293.780325 
L 1102.613414 305.000585 
L 1103.973699 302.104118 
L 1105.333983 273.490242 
L 1106.694267 301.881642 
L 1108.054552 296.976912 
L 1109.414836 312.893595 
L 1110.775121 331.440991 
L 1112.135405 336.660617 
L 1113.495689 326.221956 
L 1114.855974 307.33299 
L 1116.216258 324.122975 
L 1117.576543 323.883753 
L 1118.936827 332.028285 
L 1120.297111 345.729798 
L 1121.657396 343.413796 
L 1123.01768 338.049633 
L 1124.377965 322.979048 
L 1125.738249 337.981911 
L 1127.098534 337.022416 
L 1128.458818 343.810689 
L 1129.819102 351.987882 
L 1131.179387 349.12678 
L 1132.539671 344.795556 
L 1133.899956 333.095511 
L 1135.26024 343.014341 
L 1136.620524 340.224245 
L 1137.980809 344.262054 
L 1140.701378 349.296149 
L 1143.421946 335.976661 
L 1144.782231 342.269217 
L 1146.142515 341.156999 
L 1147.5028 341.24342 
L 1148.863084 352.016651 
L 1150.223368 346.02564 
L 1151.583653 346.276263 
L 1152.943937 338.878147 
L 1154.304222 343.71083 
L 1155.664506 343.030027 
L 1157.024791 347.781316 
L 1158.385075 353.2755 
L 1159.745359 348.983229 
L 1161.105644 347.887352 
L 1162.465928 342.742293 
L 1163.826213 345.726766 
L 1165.186497 344.905418 
L 1166.546781 347.958349 
L 1167.907066 351.741562 
L 1169.26735 349.025564 
L 1170.627635 348.160079 
L 1171.987919 343.603112 
L 1173.348203 345.632258 
L 1174.708488 344.300767 
L 1177.429057 350.203649 
L 1178.789341 347.989281 
L 1180.149625 347.851126 
L 1181.50991 345.098935 
L 1182.870194 345.801972 
L 1184.230479 345.127596 
L 1186.951047 349.035161 
L 1188.311332 347.473976 
L 1189.671616 346.629781 
L 1191.031901 344.497145 
L 1192.392185 344.63379 
L 1193.75247 344.111101 
L 1195.112754 349.498493 
L 1196.473038 351.505008 
L 1197.833323 342.28511 
L 1199.193607 343.774252 
L 1200.553892 341.261337 
L 1201.914176 342.163285 
L 1203.27446 342.826538 
L 1204.634745 348.068441 
L 1205.995029 346.423279 
L 1207.355314 338.079714 
L 1208.715598 339.214289 
L 1210.075882 340.154644 
L 1211.436167 338.692981 
L 1212.796451 341.708453 
L 1214.156736 346.988877 
L 1215.51702 340.901598 
L 1216.877304 344.43958 
L 1218.237589 332.222094 
L 1219.597873 334.193407 
L 1220.958158 333.524488 
L 1222.318442 338.888814 
L 1223.678727 345.179328 
L 1225.039011 339.514915 
L 1226.399295 336.865218 
L 1227.75958 331.202202 
L 1229.119864 332.066032 
L 1230.480149 329.870141 
L 1231.840433 335.973652 
L 1233.200717 343.430157 
L 1234.561002 337.784997 
L 1235.921286 330.032636 
L 1237.281571 330.163147 
L 1238.641855 325.21083 
L 1240.002139 325.238335 
L 1241.362424 332.05762 
L 1242.722708 341.223383 
L 1244.082993 335.211324 
L 1245.443277 321.665671 
L 1246.803561 311.57254 
L 1248.163846 314.470327 
L 1249.52413 312.713483 
L 1252.244699 337.264286 
L 1253.604983 329.955711 
L 1254.965268 306.681058 
L 1256.325552 297.585243 
L 1257.685837 302.218445 
L 1259.046121 301.363283 
L 1260.406406 318.859938 
L 1261.76669 334.094251 
L 1263.126974 323.377183 
L 1264.487259 299.451768 
L 1265.847543 300.404388 
L 1267.207828 302.549864 
L 1268.568112 302.440513 
L 1269.928396 327.058092 
L 1271.288681 338.396472 
L 1274.00925 309.981541 
L 1275.369534 341.927165 
L 1276.729818 278.147247 
L 1278.090103 311.052152 
L 1279.450387 335.056966 
L 1280.810672 342.606115 
L 1282.170956 333.371267 
L 1283.53124 297.343949 
L 1284.891525 286.045822 
L 1286.251809 330.991718 
L 1287.612094 316.115528 
L 1288.972378 345.722464 
L 1290.332663 348.235525 
L 1291.692947 332.14204 
L 1293.053231 301.673641 
L 1294.413516 308.46331 
L 1295.7738 334.293955 
L 1297.134085 323.241414 
L 1298.494369 343.493871 
L 1299.854653 347.045846 
L 1301.214938 330.563625 
L 1302.575222 318.574992 
L 1303.935507 338.29324 
L 1305.295791 320.434952 
L 1306.656075 317.233637 
L 1306.656075 317.233637 
" clip-path="url(#pe09222ed63)" style="fill: none; stroke: #ffa500; stroke-width: 1.5; stroke-linecap: square"/>
   </g>
   <g id="line2d_22">
    <path d="M 1306.656075 317.233637 
L 1308.01636 338.882738 
L 1309.376644 338.894992 
L 1310.736929 326.967362 
L 1312.097213 307.746524 
L 1313.457497 308.022366 
L 1314.817782 322.090494 
L 1316.178066 317.32998 
L 1317.538351 336.209217 
L 1318.898635 336.219903 
L 1320.25892 325.818337 
L 1321.619204 309.056682 
L 1322.979488 309.297231 
L 1324.339773 321.565432 
" clip-path="url(#pe09222ed63)" style="fill: none; stroke: #ff0000; stroke-width: 1.5; stroke-linecap: square"/>
   </g>
   <g id="patch_3">
    <path d="M 46.0125 368.3955 
L 46.0125 35.7555 
" style="fill: none; stroke: #000000; stroke-width: 0.8; stroke-linejoin: miter; stroke-linecap: square"/>
   </g>
   <g id="patch_4">
    <path d="M 1385.2125 368.3955 
L 1385.2125 35.7555 
" style="fill: none; stroke: #000000; stroke-width: 0.8; stroke-linejoin: miter; stroke-linecap: square"/>
   </g>
   <g id="patch_5">
    <path d="M 46.0125 368.3955 
L 1385.2125 368.3955 
" style="fill: none; stroke: #000000; stroke-width: 0.8; stroke-linejoin: miter; stroke-linecap: square"/>
   </g>
   <g id="patch_6">
    <path d="M 46.0125 35.7555 
L 1385.2125 35.7555 
" style="fill: none; stroke: #000000; stroke-width: 0.8; stroke-linejoin: miter; stroke-linecap: square"/>
   </g>
   <g id="text_20">
    <!-- Daily Confirmed Cases Forecasting - Maryland -->
    <g transform="translate(577.285313 16.318125)scale(0.12 -0.12)">
     <defs>
      <path id="DejaVuSans-44" d="M 1259 4147 
L 1259 519 
L 2022 519 
Q 2988 519 3436 956 
Q 3884 1394 3884 2338 
Q 3884 3275 3436 3711 
Q 2988 4147 2022 4147 
L 1259 4147 
z
M 628 4666 
L 1925 4666 
Q 3281 4666 3915 4102 
Q 4550 3538 4550 2338 
Q 4550 1131 3912 565 
Q 3275 0 1925 0 
L 628 0 
L 628 4666 
z
" transform="scale(0.015625)"/>
      <path id="DejaVuSans-61" d="M 2194 1759 
Q 1497 1759 1228 1600 
Q 959 1441 959 1056 
Q 959 750 1161 570 
Q 1363 391 1709 391 
Q 2188 391 2477 730 
Q 2766 1069 2766 1631 
L 2766 1759 
L 2194 1759 
z
M 3341 1997 
L 3341 0 
L 2766 0 
L 2766 531 
Q 2569 213 2275 61 
Q 1981 -91 1556 -91 
Q 1019 -91 701 211 
Q 384 513 384 1019 
Q 384 1609 779 1909 
Q 1175 2209 1959 2209 
L 2766 2209 
L 2766 2266 
Q 2766 2663 2505 2880 
Q 2244 3097 1772 3097 
Q 1472 3097 1187 3025 
Q 903 2953 641 2809 
L 641 3341 
Q 956 3463 1253 3523 
Q 1550 3584 1831 3584 
Q 2591 3584 2966 3190 
Q 3341 2797 3341 1997 
z
" transform="scale(0.015625)"/>
      <path id="DejaVuSans-69" d="M 603 3500 
L 1178 3500 
L 1178 0 
L 603 0 
L 603 3500 
z
M 603 4863 
L 1178 4863 
L 1178 4134 
L 603 4134 
L 603 4863 
z
" transform="scale(0.015625)"/>
      <path id="DejaVuSans-6c" d="M 603 4863 
L 1178 4863 
L 1178 0 
L 603 0 
L 603 4863 
z
" transform="scale(0.015625)"/>
      <path id="DejaVuSans-79" d="M 2059 -325 
Q 1816 -950 1584 -1140 
Q 1353 -1331 966 -1331 
L 506 -1331 
L 506 -850 
L 844 -850 
Q 1081 -850 1212 -737 
Q 1344 -625 1503 -206 
L 1606 56 
L 191 3500 
L 800 3500 
L 1894 763 
L 2988 3500 
L 3597 3500 
L 2059 -325 
z
" transform="scale(0.015625)"/>
      <path id="DejaVuSans-20" transform="scale(0.015625)"/>
      <path id="DejaVuSans-43" d="M 4122 4306 
L 4122 3641 
Q 3803 3938 3442 4084 
Q 3081 4231 2675 4231 
Q 1875 4231 1450 3742 
Q 1025 3253 1025 2328 
Q 1025 1406 1450 917 
Q 1875 428 2675 428 
Q 3081 428 3442 575 
Q 3803 722 4122 1019 
L 4122 359 
Q 3791 134 3420 21 
Q 3050 -91 2638 -91 
Q 1578 -91 968 557 
Q 359 1206 359 2328 
Q 359 3453 968 4101 
Q 1578 4750 2638 4750 
Q 3056 4750 3426 4639 
Q 3797 4528 4122 4306 
z
" transform="scale(0.015625)"/>
      <path id="DejaVuSans-6f" d="M 1959 3097 
Q 1497 3097 1228 2736 
Q 959 2375 959 1747 
Q 959 1119 1226 758 
Q 1494 397 1959 397 
Q 2419 397 2687 759 
Q 2956 1122 2956 1747 
Q 2956 2369 2687 2733 
Q 2419 3097 1959 3097 
z
M 1959 3584 
Q 2709 3584 3137 3096 
Q 3566 2609 3566 1747 
Q 3566 888 3137 398 
Q 2709 -91 1959 -91 
Q 1206 -91 779 398 
Q 353 888 353 1747 
Q 353 2609 779 3096 
Q 1206 3584 1959 3584 
z
" transform="scale(0.015625)"/>
      <path id="DejaVuSans-6e" d="M 3513 2113 
L 3513 0 
L 2938 0 
L 2938 2094 
Q 2938 2591 2744 2837 
Q 2550 3084 2163 3084 
Q 1697 3084 1428 2787 
Q 1159 2491 1159 1978 
L 1159 0 
L 581 0 
L 581 3500 
L 1159 3500 
L 1159 2956 
Q 1366 3272 1645 3428 
Q 1925 3584 2291 3584 
Q 2894 3584 3203 3211 
Q 3513 2838 3513 2113 
z
" transform="scale(0.015625)"/>
      <path id="DejaVuSans-66" d="M 2375 4863 
L 2375 4384 
L 1825 4384 
Q 1516 4384 1395 4259 
Q 1275 4134 1275 3809 
L 1275 3500 
L 2222 3500 
L 2222 3053 
L 1275 3053 
L 1275 0 
L 697 0 
L 697 3053 
L 147 3053 
L 147 3500 
L 697 3500 
L 697 3744 
Q 697 4328 969 4595 
Q 1241 4863 1831 4863 
L 2375 4863 
z
" transform="scale(0.015625)"/>
      <path id="DejaVuSans-72" d="M 2631 2963 
Q 2534 3019 2420 3045 
Q 2306 3072 2169 3072 
Q 1681 3072 1420 2755 
Q 1159 2438 1159 1844 
L 1159 0 
L 581 0 
L 581 3500 
L 1159 3500 
L 1159 2956 
Q 1341 3275 1631 3429 
Q 1922 3584 2338 3584 
Q 2397 3584 2469 3576 
Q 2541 3569 2628 3553 
L 2631 2963 
z
" transform="scale(0.015625)"/>
      <path id="DejaVuSans-6d" d="M 3328 2828 
Q 3544 3216 3844 3400 
Q 4144 3584 4550 3584 
Q 5097 3584 5394 3201 
Q 5691 2819 5691 2113 
L 5691 0 
L 5113 0 
L 5113 2094 
Q 5113 2597 4934 2840 
Q 4756 3084 4391 3084 
Q 3944 3084 3684 2787 
Q 3425 2491 3425 1978 
L 3425 0 
L 2847 0 
L 2847 2094 
Q 2847 2600 2669 2842 
Q 2491 3084 2119 3084 
Q 1678 3084 1418 2786 
Q 1159 2488 1159 1978 
L 1159 0 
L 581 0 
L 581 3500 
L 1159 3500 
L 1159 2956 
Q 1356 3278 1631 3431 
Q 1906 3584 2284 3584 
Q 2666 3584 2933 3390 
Q 3200 3197 3328 2828 
z
" transform="scale(0.015625)"/>
      <path id="DejaVuSans-65" d="M 3597 1894 
L 3597 1613 
L 953 1613 
Q 991 1019 1311 708 
Q 1631 397 2203 397 
Q 2534 397 2845 478 
Q 3156 559 3463 722 
L 3463 178 
Q 3153 47 2828 -22 
Q 2503 -91 2169 -91 
Q 1331 -91 842 396 
Q 353 884 353 1716 
Q 353 2575 817 3079 
Q 1281 3584 2069 3584 
Q 2775 3584 3186 3129 
Q 3597 2675 3597 1894 
z
M 3022 2063 
Q 3016 2534 2758 2815 
Q 2500 3097 2075 3097 
Q 1594 3097 1305 2825 
Q 1016 2553 972 2059 
L 3022 2063 
z
" transform="scale(0.015625)"/>
      <path id="DejaVuSans-64" d="M 2906 2969 
L 2906 4863 
L 3481 4863 
L 3481 0 
L 2906 0 
L 2906 525 
Q 2725 213 2448 61 
Q 2172 -91 1784 -91 
Q 1150 -91 751 415 
Q 353 922 353 1747 
Q 353 2572 751 3078 
Q 1150 3584 1784 3584 
Q 2172 3584 2448 3432 
Q 2725 3281 2906 2969 
z
M 947 1747 
Q 947 1113 1208 752 
Q 1469 391 1925 391 
Q 2381 391 2643 752 
Q 2906 1113 2906 1747 
Q 2906 2381 2643 2742 
Q 2381 3103 1925 3103 
Q 1469 3103 1208 2742 
Q 947 2381 947 1747 
z
" transform="scale(0.015625)"/>
      <path id="DejaVuSans-73" d="M 2834 3397 
L 2834 2853 
Q 2591 2978 2328 3040 
Q 2066 3103 1784 3103 
Q 1356 3103 1142 2972 
Q 928 2841 928 2578 
Q 928 2378 1081 2264 
Q 1234 2150 1697 2047 
L 1894 2003 
Q 2506 1872 2764 1633 
Q 3022 1394 3022 966 
Q 3022 478 2636 193 
Q 2250 -91 1575 -91 
Q 1294 -91 989 -36 
Q 684 19 347 128 
L 347 722 
Q 666 556 975 473 
Q 1284 391 1588 391 
Q 1994 391 2212 530 
Q 2431 669 2431 922 
Q 2431 1156 2273 1281 
Q 2116 1406 1581 1522 
L 1381 1569 
Q 847 1681 609 1914 
Q 372 2147 372 2553 
Q 372 3047 722 3315 
Q 1072 3584 1716 3584 
Q 2034 3584 2315 3537 
Q 2597 3491 2834 3397 
z
" transform="scale(0.015625)"/>
      <path id="DejaVuSans-46" d="M 628 4666 
L 3309 4666 
L 3309 4134 
L 1259 4134 
L 1259 2759 
L 3109 2759 
L 3109 2228 
L 1259 2228 
L 1259 0 
L 628 0 
L 628 4666 
z
" transform="scale(0.015625)"/>
      <path id="DejaVuSans-63" d="M 3122 3366 
L 3122 2828 
Q 2878 2963 2633 3030 
Q 2388 3097 2138 3097 
Q 1578 3097 1268 2742 
Q 959 2388 959 1747 
Q 959 1106 1268 751 
Q 1578 397 2138 397 
Q 2388 397 2633 464 
Q 2878 531 3122 666 
L 3122 134 
Q 2881 22 2623 -34 
Q 2366 -91 2075 -91 
Q 1284 -91 818 406 
Q 353 903 353 1747 
Q 353 2603 823 3093 
Q 1294 3584 2113 3584 
Q 2378 3584 2631 3529 
Q 2884 3475 3122 3366 
z
" transform="scale(0.015625)"/>
      <path id="DejaVuSans-74" d="M 1172 4494 
L 1172 3500 
L 2356 3500 
L 2356 3053 
L 1172 3053 
L 1172 1153 
Q 1172 725 1289 603 
Q 1406 481 1766 481 
L 2356 481 
L 2356 0 
L 1766 0 
Q 1100 0 847 248 
Q 594 497 594 1153 
L 594 3053 
L 172 3053 
L 172 3500 
L 594 3500 
L 594 4494 
L 1172 4494 
z
" transform="scale(0.015625)"/>
      <path id="DejaVuSans-67" d="M 2906 1791 
Q 2906 2416 2648 2759 
Q 2391 3103 1925 3103 
Q 1463 3103 1205 2759 
Q 947 2416 947 1791 
Q 947 1169 1205 825 
Q 1463 481 1925 481 
Q 2391 481 2648 825 
Q 2906 1169 2906 1791 
z
M 3481 434 
Q 3481 -459 3084 -895 
Q 2688 -1331 1869 -1331 
Q 1566 -1331 1297 -1286 
Q 1028 -1241 775 -1147 
L 775 -588 
Q 1028 -725 1275 -790 
Q 1522 -856 1778 -856 
Q 2344 -856 2625 -561 
Q 2906 -266 2906 331 
L 2906 616 
Q 2728 306 2450 153 
Q 2172 0 1784 0 
Q 1141 0 747 490 
Q 353 981 353 1791 
Q 353 2603 747 3093 
Q 1141 3584 1784 3584 
Q 2172 3584 2450 3431 
Q 2728 3278 2906 2969 
L 2906 3500 
L 3481 3500 
L 3481 434 
z
" transform="scale(0.015625)"/>
      <path id="DejaVuSans-4d" d="M 628 4666 
L 1569 4666 
L 2759 1491 
L 3956 4666 
L 4897 4666 
L 4897 0 
L 4281 0 
L 4281 4097 
L 3078 897 
L 2444 897 
L 1241 4097 
L 1241 0 
L 628 0 
L 628 4666 
z
" transform="scale(0.015625)"/>
     </defs>
     <use xlink:href="#DejaVuSans-44"/>
     <use xlink:href="#DejaVuSans-61" x="77.001953"/>
     <use xlink:href="#DejaVuSans-69" x="138.28125"/>
     <use xlink:href="#DejaVuSans-6c" x="166.064453"/>
     <use xlink:href="#DejaVuSans-79" x="193.847656"/>
     <use xlink:href="#DejaVuSans-20" x="253.027344"/>
     <use xlink:href="#DejaVuSans-43" x="284.814453"/>
     <use xlink:href="#DejaVuSans-6f" x="354.638672"/>
     <use xlink:href="#DejaVuSans-6e" x="415.820312"/>
     <use xlink:href="#DejaVuSans-66" x="479.199219"/>
     <use xlink:href="#DejaVuSans-69" x="514.404297"/>
     <use xlink:href="#DejaVuSans-72" x="542.1875"/>
     <use xlink:href="#DejaVuSans-6d" x="581.550781"/>
     <use xlink:href="#DejaVuSans-65" x="678.962891"/>
     <use xlink:href="#DejaVuSans-64" x="740.486328"/>
     <use xlink:href="#DejaVuSans-20" x="803.962891"/>
     <use xlink:href="#DejaVuSans-43" x="835.75"/>
     <use xlink:href="#DejaVuSans-61" x="905.574219"/>
     <use xlink:href="#DejaVuSans-73" x="966.853516"/>
     <use xlink:href="#DejaVuSans-65" x="1018.953125"/>
     <use xlink:href="#DejaVuSans-73" x="1080.476562"/>
     <use xlink:href="#DejaVuSans-20" x="1132.576172"/>
     <use xlink:href="#DejaVuSans-46" x="1164.363281"/>
     <use xlink:href="#DejaVuSans-6f" x="1218.257812"/>
     <use xlink:href="#DejaVuSans-72" x="1279.439453"/>
     <use xlink:href="#DejaVuSans-65" x="1318.302734"/>
     <use xlink:href="#DejaVuSans-63" x="1379.826172"/>
     <use xlink:href="#DejaVuSans-61" x="1434.806641"/>
     <use xlink:href="#DejaVuSans-73" x="1496.085938"/>
     <use xlink:href="#DejaVuSans-74" x="1548.185547"/>
     <use xlink:href="#DejaVuSans-69" x="1587.394531"/>
     <use xlink:href="#DejaVuSans-6e" x="1615.177734"/>
     <use xlink:href="#DejaVuSans-67" x="1678.556641"/>
     <use xlink:href="#DejaVuSans-20" x="1742.033203"/>
     <use xlink:href="#DejaVuSans-2d" x="1773.820312"/>
     <use xlink:href="#DejaVuSans-20" x="1809.904297"/>
     <use xlink:href="#DejaVuSans-4d" x="1841.691406"/>
     <use xlink:href="#DejaVuSans-61" x="1927.970703"/>
     <use xlink:href="#DejaVuSans-72" x="1989.25"/>
     <use xlink:href="#DejaVuSans-79" x="2030.363281"/>
     <use xlink:href="#DejaVuSans-6c" x="2089.542969"/>
     <use xlink:href="#DejaVuSans-61" x="2117.326172"/>
     <use xlink:href="#DejaVuSans-6e" x="2178.605469"/>
     <use xlink:href="#DejaVuSans-64" x="2241.984375"/>
    </g>
    <!-- ARIMA (0, 1, 1)x(1, 0, 1, 7) (R2 = 0.934078) -->
    <g transform="translate(583.628438 29.7555)scale(0.12 -0.12)">
     <defs>
      <path id="DejaVuSans-41" d="M 2188 4044 
L 1331 1722 
L 3047 1722 
L 2188 4044 
z
M 1831 4666 
L 2547 4666 
L 4325 0 
L 3669 0 
L 3244 1197 
L 1141 1197 
L 716 0 
L 50 0 
L 1831 4666 
z
" transform="scale(0.015625)"/>
      <path id="DejaVuSans-52" d="M 2841 2188 
Q 3044 2119 3236 1894 
Q 3428 1669 3622 1275 
L 4263 0 
L 3584 0 
L 2988 1197 
Q 2756 1666 2539 1819 
Q 2322 1972 1947 1972 
L 1259 1972 
L 1259 0 
L 628 0 
L 628 4666 
L 2053 4666 
Q 2853 4666 3247 4331 
Q 3641 3997 3641 3322 
Q 3641 2881 3436 2590 
Q 3231 2300 2841 2188 
z
M 1259 4147 
L 1259 2491 
L 2053 2491 
Q 2509 2491 2742 2702 
Q 2975 2913 2975 3322 
Q 2975 3731 2742 3939 
Q 2509 4147 2053 4147 
L 1259 4147 
z
" transform="scale(0.015625)"/>
      <path id="DejaVuSans-49" d="M 628 4666 
L 1259 4666 
L 1259 0 
L 628 0 
L 628 4666 
z
" transform="scale(0.015625)"/>
      <path id="DejaVuSans-28" d="M 1984 4856 
Q 1566 4138 1362 3434 
Q 1159 2731 1159 2009 
Q 1159 1288 1364 580 
Q 1569 -128 1984 -844 
L 1484 -844 
Q 1016 -109 783 600 
Q 550 1309 550 2009 
Q 550 2706 781 3412 
Q 1013 4119 1484 4856 
L 1984 4856 
z
" transform="scale(0.015625)"/>
      <path id="DejaVuSans-2c" d="M 750 794 
L 1409 794 
L 1409 256 
L 897 -744 
L 494 -744 
L 750 256 
L 750 794 
z
" transform="scale(0.015625)"/>
      <path id="DejaVuSans-29" d="M 513 4856 
L 1013 4856 
Q 1481 4119 1714 3412 
Q 1947 2706 1947 2009 
Q 1947 1309 1714 600 
Q 1481 -109 1013 -844 
L 513 -844 
Q 928 -128 1133 580 
Q 1338 1288 1338 2009 
Q 1338 2731 1133 3434 
Q 928 4138 513 4856 
z
" transform="scale(0.015625)"/>
      <path id="DejaVuSans-78" d="M 3513 3500 
L 2247 1797 
L 3578 0 
L 2900 0 
L 1881 1375 
L 863 0 
L 184 0 
L 1544 1831 
L 300 3500 
L 978 3500 
L 1906 2253 
L 2834 3500 
L 3513 3500 
z
" transform="scale(0.015625)"/>
      <path id="DejaVuSans-3d" d="M 678 2906 
L 4684 2906 
L 4684 2381 
L 678 2381 
L 678 2906 
z
M 678 1631 
L 4684 1631 
L 4684 1100 
L 678 1100 
L 678 1631 
z
" transform="scale(0.015625)"/>
      <path id="DejaVuSans-2e" d="M 684 794 
L 1344 794 
L 1344 0 
L 684 0 
L 684 794 
z
" transform="scale(0.015625)"/>
      <path id="DejaVuSans-39" d="M 703 97 
L 703 672 
Q 941 559 1184 500 
Q 1428 441 1663 441 
Q 2288 441 2617 861 
Q 2947 1281 2994 2138 
Q 2813 1869 2534 1725 
Q 2256 1581 1919 1581 
Q 1219 1581 811 2004 
Q 403 2428 403 3163 
Q 403 3881 828 4315 
Q 1253 4750 1959 4750 
Q 2769 4750 3195 4129 
Q 3622 3509 3622 2328 
Q 3622 1225 3098 567 
Q 2575 -91 1691 -91 
Q 1453 -91 1209 -44 
Q 966 3 703 97 
z
M 1959 2075 
Q 2384 2075 2632 2365 
Q 2881 2656 2881 3163 
Q 2881 3666 2632 3958 
Q 2384 4250 1959 4250 
Q 1534 4250 1286 3958 
Q 1038 3666 1038 3163 
Q 1038 2656 1286 2365 
Q 1534 2075 1959 2075 
z
" transform="scale(0.015625)"/>
      <path id="DejaVuSans-33" d="M 2597 2516 
Q 3050 2419 3304 2112 
Q 3559 1806 3559 1356 
Q 3559 666 3084 287 
Q 2609 -91 1734 -91 
Q 1441 -91 1130 -33 
Q 819 25 488 141 
L 488 750 
Q 750 597 1062 519 
Q 1375 441 1716 441 
Q 2309 441 2620 675 
Q 2931 909 2931 1356 
Q 2931 1769 2642 2001 
Q 2353 2234 1838 2234 
L 1294 2234 
L 1294 2753 
L 1863 2753 
Q 2328 2753 2575 2939 
Q 2822 3125 2822 3475 
Q 2822 3834 2567 4026 
Q 2313 4219 1838 4219 
Q 1578 4219 1281 4162 
Q 984 4106 628 3988 
L 628 4550 
Q 988 4650 1302 4700 
Q 1616 4750 1894 4750 
Q 2613 4750 3031 4423 
Q 3450 4097 3450 3541 
Q 3450 3153 3228 2886 
Q 3006 2619 2597 2516 
z
" transform="scale(0.015625)"/>
      <path id="DejaVuSans-38" d="M 2034 2216 
Q 1584 2216 1326 1975 
Q 1069 1734 1069 1313 
Q 1069 891 1326 650 
Q 1584 409 2034 409 
Q 2484 409 2743 651 
Q 3003 894 3003 1313 
Q 3003 1734 2745 1975 
Q 2488 2216 2034 2216 
z
M 1403 2484 
Q 997 2584 770 2862 
Q 544 3141 544 3541 
Q 544 4100 942 4425 
Q 1341 4750 2034 4750 
Q 2731 4750 3128 4425 
Q 3525 4100 3525 3541 
Q 3525 3141 3298 2862 
Q 3072 2584 2669 2484 
Q 3125 2378 3379 2068 
Q 3634 1759 3634 1313 
Q 3634 634 3220 271 
Q 2806 -91 2034 -91 
Q 1263 -91 848 271 
Q 434 634 434 1313 
Q 434 1759 690 2068 
Q 947 2378 1403 2484 
z
M 1172 3481 
Q 1172 3119 1398 2916 
Q 1625 2713 2034 2713 
Q 2441 2713 2670 2916 
Q 2900 3119 2900 3481 
Q 2900 3844 2670 4047 
Q 2441 4250 2034 4250 
Q 1625 4250 1398 4047 
Q 1172 3844 1172 3481 
z
" transform="scale(0.015625)"/>
     </defs>
     <use xlink:href="#DejaVuSans-41"/>
     <use xlink:href="#DejaVuSans-52" x="68.408203"/>
     <use xlink:href="#DejaVuSans-49" x="137.890625"/>
     <use xlink:href="#DejaVuSans-4d" x="167.382812"/>
     <use xlink:href="#DejaVuSans-41" x="253.662109"/>
     <use xlink:href="#DejaVuSans-20" x="322.070312"/>
     <use xlink:href="#DejaVuSans-28" x="353.857422"/>
     <use xlink:href="#DejaVuSans-30" x="392.871094"/>
     <use xlink:href="#DejaVuSans-2c" x="456.494141"/>
     <use xlink:href="#DejaVuSans-20" x="488.28125"/>
     <use xlink:href="#DejaVuSans-31" x="520.068359"/>
     <use xlink:href="#DejaVuSans-2c" x="583.691406"/>
     <use xlink:href="#DejaVuSans-20" x="615.478516"/>
     <use xlink:href="#DejaVuSans-31" x="647.265625"/>
     <use xlink:href="#DejaVuSans-29" x="710.888672"/>
     <use xlink:href="#DejaVuSans-78" x="749.902344"/>
     <use xlink:href="#DejaVuSans-28" x="809.082031"/>
     <use xlink:href="#DejaVuSans-31" x="848.095703"/>
     <use xlink:href="#DejaVuSans-2c" x="911.71875"/>
     <use xlink:href="#DejaVuSans-20" x="943.505859"/>
     <use xlink:href="#DejaVuSans-30" x="975.292969"/>
     <use xlink:href="#DejaVuSans-2c" x="1038.916016"/>
     <use xlink:href="#DejaVuSans-20" x="1070.703125"/>
     <use xlink:href="#DejaVuSans-31" x="1102.490234"/>
     <use xlink:href="#DejaVuSans-2c" x="1166.113281"/>
     <use xlink:href="#DejaVuSans-20" x="1197.900391"/>
     <use xlink:href="#DejaVuSans-37" x="1229.6875"/>
     <use xlink:href="#DejaVuSans-29" x="1293.310547"/>
     <use xlink:href="#DejaVuSans-20" x="1332.324219"/>
     <use xlink:href="#DejaVuSans-28" x="1364.111328"/>
     <use xlink:href="#DejaVuSans-52" x="1403.125"/>
     <use xlink:href="#DejaVuSans-32" x="1472.607422"/>
     <use xlink:href="#DejaVuSans-20" x="1536.230469"/>
     <use xlink:href="#DejaVuSans-3d" x="1568.017578"/>
     <use xlink:href="#DejaVuSans-20" x="1651.806641"/>
     <use xlink:href="#DejaVuSans-30" x="1683.59375"/>
     <use xlink:href="#DejaVuSans-2e" x="1747.216797"/>
     <use xlink:href="#DejaVuSans-39" x="1779.003906"/>
     <use xlink:href="#DejaVuSans-33" x="1842.626953"/>
     <use xlink:href="#DejaVuSans-34" x="1906.25"/>
     <use xlink:href="#DejaVuSans-30" x="1969.873047"/>
     <use xlink:href="#DejaVuSans-37" x="2033.496094"/>
     <use xlink:href="#DejaVuSans-38" x="2097.119141"/>
     <use xlink:href="#DejaVuSans-29" x="2160.742188"/>
    </g>
   </g>
   <g id="legend_1">
    <g id="patch_7">
     <path d="M 1281.132812 87.789875 
L 1378.2125 87.789875 
Q 1380.2125 87.789875 1380.2125 85.789875 
L 1380.2125 42.7555 
Q 1380.2125 40.7555 1378.2125 40.7555 
L 1281.132812 40.7555 
Q 1279.132812 40.7555 1279.132812 42.7555 
L 1279.132812 85.789875 
Q 1279.132812 87.789875 1281.132812 87.789875 
z
" style="fill: #ffffff; opacity: 0.8; stroke: #cccccc; stroke-linejoin: miter"/>
    </g>
    <g id="line2d_23">
     <path d="M 1283.132812 48.853937 
L 1293.132812 48.853937 
L 1303.132812 48.853937 
" style="fill: none; stroke: #0000ff; stroke-width: 1.5; stroke-linecap: square"/>
    </g>
    <g id="text_21">
     <!-- Actual Value -->
     <g transform="translate(1311.132812 52.353937)scale(0.1 -0.1)">
      <defs>
       <path id="DejaVuSans-75" d="M 544 1381 
L 544 3500 
L 1119 3500 
L 1119 1403 
Q 1119 906 1312 657 
Q 1506 409 1894 409 
Q 2359 409 2629 706 
Q 2900 1003 2900 1516 
L 2900 3500 
L 3475 3500 
L 3475 0 
L 2900 0 
L 2900 538 
Q 2691 219 2414 64 
Q 2138 -91 1772 -91 
Q 1169 -91 856 284 
Q 544 659 544 1381 
z
M 1991 3584 
L 1991 3584 
z
" transform="scale(0.015625)"/>
       <path id="DejaVuSans-56" d="M 1831 0 
L 50 4666 
L 709 4666 
L 2188 738 
L 3669 4666 
L 4325 4666 
L 2547 0 
L 1831 0 
z
" transform="scale(0.015625)"/>
      </defs>
      <use xlink:href="#DejaVuSans-41"/>
      <use xlink:href="#DejaVuSans-63" x="66.658203"/>
      <use xlink:href="#DejaVuSans-74" x="121.638672"/>
      <use xlink:href="#DejaVuSans-75" x="160.847656"/>
      <use xlink:href="#DejaVuSans-61" x="224.226562"/>
      <use xlink:href="#DejaVuSans-6c" x="285.505859"/>
      <use xlink:href="#DejaVuSans-20" x="313.289062"/>
      <use xlink:href="#DejaVuSans-56" x="345.076172"/>
      <use xlink:href="#DejaVuSans-61" x="405.734375"/>
      <use xlink:href="#DejaVuSans-6c" x="467.013672"/>
      <use xlink:href="#DejaVuSans-75" x="494.796875"/>
      <use xlink:href="#DejaVuSans-65" x="558.175781"/>
     </g>
    </g>
    <g id="line2d_24">
     <path d="M 1283.132812 63.532062 
L 1293.132812 63.532062 
L 1303.132812 63.532062 
" style="fill: none; stroke: #ffa500; stroke-width: 1.5; stroke-linecap: square"/>
    </g>
    <g id="text_22">
     <!-- Check Value -->
     <g transform="translate(1311.132812 67.032062)scale(0.1 -0.1)">
      <defs>
       <path id="DejaVuSans-68" d="M 3513 2113 
L 3513 0 
L 2938 0 
L 2938 2094 
Q 2938 2591 2744 2837 
Q 2550 3084 2163 3084 
Q 1697 3084 1428 2787 
Q 1159 2491 1159 1978 
L 1159 0 
L 581 0 
L 581 4863 
L 1159 4863 
L 1159 2956 
Q 1366 3272 1645 3428 
Q 1925 3584 2291 3584 
Q 2894 3584 3203 3211 
Q 3513 2838 3513 2113 
z
" transform="scale(0.015625)"/>
       <path id="DejaVuSans-6b" d="M 581 4863 
L 1159 4863 
L 1159 1991 
L 2875 3500 
L 3609 3500 
L 1753 1863 
L 3688 0 
L 2938 0 
L 1159 1709 
L 1159 0 
L 581 0 
L 581 4863 
z
" transform="scale(0.015625)"/>
      </defs>
      <use xlink:href="#DejaVuSans-43"/>
      <use xlink:href="#DejaVuSans-68" x="69.824219"/>
      <use xlink:href="#DejaVuSans-65" x="133.203125"/>
      <use xlink:href="#DejaVuSans-63" x="194.726562"/>
      <use xlink:href="#DejaVuSans-6b" x="249.707031"/>
      <use xlink:href="#DejaVuSans-20" x="307.617188"/>
      <use xlink:href="#DejaVuSans-56" x="339.404297"/>
      <use xlink:href="#DejaVuSans-61" x="400.0625"/>
      <use xlink:href="#DejaVuSans-6c" x="461.341797"/>
      <use xlink:href="#DejaVuSans-75" x="489.125"/>
      <use xlink:href="#DejaVuSans-65" x="552.503906"/>
     </g>
    </g>
    <g id="line2d_25">
     <path d="M 1283.132812 78.210187 
L 1293.132812 78.210187 
L 1303.132812 78.210187 
" style="fill: none; stroke: #ff0000; stroke-width: 1.5; stroke-linecap: square"/>
    </g>
    <g id="text_23">
     <!-- Predict Value -->
     <g transform="translate(1311.132812 81.710187)scale(0.1 -0.1)">
      <defs>
       <path id="DejaVuSans-50" d="M 1259 4147 
L 1259 2394 
L 2053 2394 
Q 2494 2394 2734 2622 
Q 2975 2850 2975 3272 
Q 2975 3691 2734 3919 
Q 2494 4147 2053 4147 
L 1259 4147 
z
M 628 4666 
L 2053 4666 
Q 2838 4666 3239 4311 
Q 3641 3956 3641 3272 
Q 3641 2581 3239 2228 
Q 2838 1875 2053 1875 
L 1259 1875 
L 1259 0 
L 628 0 
L 628 4666 
z
" transform="scale(0.015625)"/>
      </defs>
      <use xlink:href="#DejaVuSans-50"/>
      <use xlink:href="#DejaVuSans-72" x="58.552734"/>
      <use xlink:href="#DejaVuSans-65" x="97.416016"/>
      <use xlink:href="#DejaVuSans-64" x="158.939453"/>
      <use xlink:href="#DejaVuSans-69" x="222.416016"/>
      <use xlink:href="#DejaVuSans-63" x="250.199219"/>
      <use xlink:href="#DejaVuSans-74" x="305.179688"/>
      <use xlink:href="#DejaVuSans-20" x="344.388672"/>
      <use xlink:href="#DejaVuSans-56" x="376.175781"/>
      <use xlink:href="#DejaVuSans-61" x="436.833984"/>
      <use xlink:href="#DejaVuSans-6c" x="498.113281"/>
      <use xlink:href="#DejaVuSans-75" x="525.896484"/>
      <use xlink:href="#DejaVuSans-65" x="589.275391"/>
     </g>
    </g>
   </g>
  </g>
 </g>
 <defs>
  <clipPath id="pe09222ed63">
   <rect x="46.0125" y="35.7555" width="1339.2" height="332.64"/>
  </clipPath>
 </defs>
</svg>
