<?xml version="1.0" encoding="utf-8" standalone="no"?>
<!DOCTYPE svg PUBLIC "-//W3C//DTD SVG 1.1//EN"
  "http://www.w3.org/Graphics/SVG/1.1/DTD/svg11.dtd">
<svg xmlns:xlink="http://www.w3.org/1999/xlink" width="1392.4125pt" height="392.273625pt" viewBox="0 0 1392.4125 392.273625" xmlns="http://www.w3.org/2000/svg" version="1.1">
 <metadata>
  <rdf:RDF xmlns:dc="http://purl.org/dc/elements/1.1/" xmlns:cc="http://creativecommons.org/ns#" xmlns:rdf="http://www.w3.org/1999/02/22-rdf-syntax-ns#">
   <cc:Work>
    <dc:type rdf:resource="http://purl.org/dc/dcmitype/StillImage"/>
    <dc:date>2022-07-29T17:21:34.145903</dc:date>
    <dc:format>image/svg+xml</dc:format>
    <dc:creator>
     <cc:Agent>
      <dc:title>Matplotlib v3.5.2, https://matplotlib.org/</dc:title>
     </cc:Agent>
    </dc:creator>
   </cc:Work>
  </rdf:RDF>
 </metadata>
 <defs>
  <style type="text/css">*{stroke-linejoin: round; stroke-linecap: butt}</style>
 </defs>
 <g id="figure_1">
  <g id="patch_1">
   <path d="M 0 392.273625 
L 1392.4125 392.273625 
L 1392.4125 0 
L 0 0 
z
" style="fill: #ffffff"/>
  </g>
  <g id="axes_1">
   <g id="patch_2">
    <path d="M 46.0125 368.3955 
L 1385.2125 368.3955 
L 1385.2125 35.7555 
L 46.0125 35.7555 
z
" style="fill: #ffffff"/>
   </g>
   <g id="matplotlib.axis_1">
    <g id="xtick_1">
     <g id="line2d_1">
      <defs>
       <path id="m3454b16bc6" d="M 0 0 
L 0 3.5 
" style="stroke: #000000; stroke-width: 0.8"/>
      </defs>
      <g>
       <use xlink:href="#m3454b16bc6" x="78.085227" y="368.3955" style="stroke: #000000; stroke-width: 0.8"/>
      </g>
     </g>
     <g id="text_1">
      <!-- 2020-01 -->
      <g transform="translate(57.193821 382.993937)scale(0.1 -0.1)">
       <defs>
        <path id="DejaVuSans-32" d="M 1228 531 
L 3431 531 
L 3431 0 
L 469 0 
L 469 531 
Q 828 903 1448 1529 
Q 2069 2156 2228 2338 
Q 2531 2678 2651 2914 
Q 2772 3150 2772 3378 
Q 2772 3750 2511 3984 
Q 2250 4219 1831 4219 
Q 1534 4219 1204 4116 
Q 875 4013 500 3803 
L 500 4441 
Q 881 4594 1212 4672 
Q 1544 4750 1819 4750 
Q 2544 4750 2975 4387 
Q 3406 4025 3406 3419 
Q 3406 3131 3298 2873 
Q 3191 2616 2906 2266 
Q 2828 2175 2409 1742 
Q 1991 1309 1228 531 
z
" transform="scale(0.015625)"/>
        <path id="DejaVuSans-30" d="M 2034 4250 
Q 1547 4250 1301 3770 
Q 1056 3291 1056 2328 
Q 1056 1369 1301 889 
Q 1547 409 2034 409 
Q 2525 409 2770 889 
Q 3016 1369 3016 2328 
Q 3016 3291 2770 3770 
Q 2525 4250 2034 4250 
z
M 2034 4750 
Q 2819 4750 3233 4129 
Q 3647 3509 3647 2328 
Q 3647 1150 3233 529 
Q 2819 -91 2034 -91 
Q 1250 -91 836 529 
Q 422 1150 422 2328 
Q 422 3509 836 4129 
Q 1250 4750 2034 4750 
z
" transform="scale(0.015625)"/>
        <path id="DejaVuSans-2d" d="M 313 2009 
L 1997 2009 
L 1997 1497 
L 313 1497 
L 313 2009 
z
" transform="scale(0.015625)"/>
        <path id="DejaVuSans-31" d="M 794 531 
L 1825 531 
L 1825 4091 
L 703 3866 
L 703 4441 
L 1819 4666 
L 2450 4666 
L 2450 531 
L 3481 531 
L 3481 0 
L 794 0 
L 794 531 
z
" transform="scale(0.015625)"/>
       </defs>
       <use xlink:href="#DejaVuSans-32"/>
       <use xlink:href="#DejaVuSans-30" x="63.623047"/>
       <use xlink:href="#DejaVuSans-32" x="127.246094"/>
       <use xlink:href="#DejaVuSans-30" x="190.869141"/>
       <use xlink:href="#DejaVuSans-2d" x="254.492188"/>
       <use xlink:href="#DejaVuSans-30" x="290.576172"/>
       <use xlink:href="#DejaVuSans-31" x="354.199219"/>
      </g>
     </g>
    </g>
    <g id="xtick_2">
     <g id="line2d_2">
      <g>
       <use xlink:href="#m3454b16bc6" x="197.2125" y="368.3955" style="stroke: #000000; stroke-width: 0.8"/>
      </g>
     </g>
     <g id="text_2">
      <!-- 2020-04 -->
      <g transform="translate(176.321094 382.993937)scale(0.1 -0.1)">
       <defs>
        <path id="DejaVuSans-34" d="M 2419 4116 
L 825 1625 
L 2419 1625 
L 2419 4116 
z
M 2253 4666 
L 3047 4666 
L 3047 1625 
L 3713 1625 
L 3713 1100 
L 3047 1100 
L 3047 0 
L 2419 0 
L 2419 1100 
L 313 1100 
L 313 1709 
L 2253 4666 
z
" transform="scale(0.015625)"/>
       </defs>
       <use xlink:href="#DejaVuSans-32"/>
       <use xlink:href="#DejaVuSans-30" x="63.623047"/>
       <use xlink:href="#DejaVuSans-32" x="127.246094"/>
       <use xlink:href="#DejaVuSans-30" x="190.869141"/>
       <use xlink:href="#DejaVuSans-2d" x="254.492188"/>
       <use xlink:href="#DejaVuSans-30" x="290.576172"/>
       <use xlink:href="#DejaVuSans-34" x="354.199219"/>
      </g>
     </g>
    </g>
    <g id="xtick_3">
     <g id="line2d_3">
      <g>
       <use xlink:href="#m3454b16bc6" x="316.339773" y="368.3955" style="stroke: #000000; stroke-width: 0.8"/>
      </g>
     </g>
     <g id="text_3">
      <!-- 2020-07 -->
      <g transform="translate(295.448366 382.993937)scale(0.1 -0.1)">
       <defs>
        <path id="DejaVuSans-37" d="M 525 4666 
L 3525 4666 
L 3525 4397 
L 1831 0 
L 1172 0 
L 2766 4134 
L 525 4134 
L 525 4666 
z
" transform="scale(0.015625)"/>
       </defs>
       <use xlink:href="#DejaVuSans-32"/>
       <use xlink:href="#DejaVuSans-30" x="63.623047"/>
       <use xlink:href="#DejaVuSans-32" x="127.246094"/>
       <use xlink:href="#DejaVuSans-30" x="190.869141"/>
       <use xlink:href="#DejaVuSans-2d" x="254.492188"/>
       <use xlink:href="#DejaVuSans-30" x="290.576172"/>
       <use xlink:href="#DejaVuSans-37" x="354.199219"/>
      </g>
     </g>
    </g>
    <g id="xtick_4">
     <g id="line2d_4">
      <g>
       <use xlink:href="#m3454b16bc6" x="436.776136" y="368.3955" style="stroke: #000000; stroke-width: 0.8"/>
      </g>
     </g>
     <g id="text_4">
      <!-- 2020-10 -->
      <g transform="translate(415.88473 382.993937)scale(0.1 -0.1)">
       <use xlink:href="#DejaVuSans-32"/>
       <use xlink:href="#DejaVuSans-30" x="63.623047"/>
       <use xlink:href="#DejaVuSans-32" x="127.246094"/>
       <use xlink:href="#DejaVuSans-30" x="190.869141"/>
       <use xlink:href="#DejaVuSans-2d" x="254.492188"/>
       <use xlink:href="#DejaVuSans-31" x="290.576172"/>
       <use xlink:href="#DejaVuSans-30" x="354.199219"/>
      </g>
     </g>
    </g>
    <g id="xtick_5">
     <g id="line2d_5">
      <g>
       <use xlink:href="#m3454b16bc6" x="557.2125" y="368.3955" style="stroke: #000000; stroke-width: 0.8"/>
      </g>
     </g>
     <g id="text_5">
      <!-- 2021-01 -->
      <g transform="translate(536.321094 382.993937)scale(0.1 -0.1)">
       <use xlink:href="#DejaVuSans-32"/>
       <use xlink:href="#DejaVuSans-30" x="63.623047"/>
       <use xlink:href="#DejaVuSans-32" x="127.246094"/>
       <use xlink:href="#DejaVuSans-31" x="190.869141"/>
       <use xlink:href="#DejaVuSans-2d" x="254.492188"/>
       <use xlink:href="#DejaVuSans-30" x="290.576172"/>
       <use xlink:href="#DejaVuSans-31" x="354.199219"/>
      </g>
     </g>
    </g>
    <g id="xtick_6">
     <g id="line2d_6">
      <g>
       <use xlink:href="#m3454b16bc6" x="675.030682" y="368.3955" style="stroke: #000000; stroke-width: 0.8"/>
      </g>
     </g>
     <g id="text_6">
      <!-- 2021-04 -->
      <g transform="translate(654.139276 382.993937)scale(0.1 -0.1)">
       <use xlink:href="#DejaVuSans-32"/>
       <use xlink:href="#DejaVuSans-30" x="63.623047"/>
       <use xlink:href="#DejaVuSans-32" x="127.246094"/>
       <use xlink:href="#DejaVuSans-31" x="190.869141"/>
       <use xlink:href="#DejaVuSans-2d" x="254.492188"/>
       <use xlink:href="#DejaVuSans-30" x="290.576172"/>
       <use xlink:href="#DejaVuSans-34" x="354.199219"/>
      </g>
     </g>
    </g>
    <g id="xtick_7">
     <g id="line2d_7">
      <g>
       <use xlink:href="#m3454b16bc6" x="794.157955" y="368.3955" style="stroke: #000000; stroke-width: 0.8"/>
      </g>
     </g>
     <g id="text_7">
      <!-- 2021-07 -->
      <g transform="translate(773.266548 382.993937)scale(0.1 -0.1)">
       <use xlink:href="#DejaVuSans-32"/>
       <use xlink:href="#DejaVuSans-30" x="63.623047"/>
       <use xlink:href="#DejaVuSans-32" x="127.246094"/>
       <use xlink:href="#DejaVuSans-31" x="190.869141"/>
       <use xlink:href="#DejaVuSans-2d" x="254.492188"/>
       <use xlink:href="#DejaVuSans-30" x="290.576172"/>
       <use xlink:href="#DejaVuSans-37" x="354.199219"/>
      </g>
     </g>
    </g>
    <g id="xtick_8">
     <g id="line2d_8">
      <g>
       <use xlink:href="#m3454b16bc6" x="914.594318" y="368.3955" style="stroke: #000000; stroke-width: 0.8"/>
      </g>
     </g>
     <g id="text_8">
      <!-- 2021-10 -->
      <g transform="translate(893.702912 382.993937)scale(0.1 -0.1)">
       <use xlink:href="#DejaVuSans-32"/>
       <use xlink:href="#DejaVuSans-30" x="63.623047"/>
       <use xlink:href="#DejaVuSans-32" x="127.246094"/>
       <use xlink:href="#DejaVuSans-31" x="190.869141"/>
       <use xlink:href="#DejaVuSans-2d" x="254.492188"/>
       <use xlink:href="#DejaVuSans-31" x="290.576172"/>
       <use xlink:href="#DejaVuSans-30" x="354.199219"/>
      </g>
     </g>
    </g>
    <g id="xtick_9">
     <g id="line2d_9">
      <g>
       <use xlink:href="#m3454b16bc6" x="1035.030682" y="368.3955" style="stroke: #000000; stroke-width: 0.8"/>
      </g>
     </g>
     <g id="text_9">
      <!-- 2022-01 -->
      <g transform="translate(1014.139276 382.993937)scale(0.1 -0.1)">
       <use xlink:href="#DejaVuSans-32"/>
       <use xlink:href="#DejaVuSans-30" x="63.623047"/>
       <use xlink:href="#DejaVuSans-32" x="127.246094"/>
       <use xlink:href="#DejaVuSans-32" x="190.869141"/>
       <use xlink:href="#DejaVuSans-2d" x="254.492188"/>
       <use xlink:href="#DejaVuSans-30" x="290.576172"/>
       <use xlink:href="#DejaVuSans-31" x="354.199219"/>
      </g>
     </g>
    </g>
    <g id="xtick_10">
     <g id="line2d_10">
      <g>
       <use xlink:href="#m3454b16bc6" x="1152.848864" y="368.3955" style="stroke: #000000; stroke-width: 0.8"/>
      </g>
     </g>
     <g id="text_10">
      <!-- 2022-04 -->
      <g transform="translate(1131.957457 382.993937)scale(0.1 -0.1)">
       <use xlink:href="#DejaVuSans-32"/>
       <use xlink:href="#DejaVuSans-30" x="63.623047"/>
       <use xlink:href="#DejaVuSans-32" x="127.246094"/>
       <use xlink:href="#DejaVuSans-32" x="190.869141"/>
       <use xlink:href="#DejaVuSans-2d" x="254.492188"/>
       <use xlink:href="#DejaVuSans-30" x="290.576172"/>
       <use xlink:href="#DejaVuSans-34" x="354.199219"/>
      </g>
     </g>
    </g>
    <g id="xtick_11">
     <g id="line2d_11">
      <g>
       <use xlink:href="#m3454b16bc6" x="1271.976136" y="368.3955" style="stroke: #000000; stroke-width: 0.8"/>
      </g>
     </g>
     <g id="text_11">
      <!-- 2022-07 -->
      <g transform="translate(1251.08473 382.993937)scale(0.1 -0.1)">
       <use xlink:href="#DejaVuSans-32"/>
       <use xlink:href="#DejaVuSans-30" x="63.623047"/>
       <use xlink:href="#DejaVuSans-32" x="127.246094"/>
       <use xlink:href="#DejaVuSans-32" x="190.869141"/>
       <use xlink:href="#DejaVuSans-2d" x="254.492188"/>
       <use xlink:href="#DejaVuSans-30" x="290.576172"/>
       <use xlink:href="#DejaVuSans-37" x="354.199219"/>
      </g>
     </g>
    </g>
   </g>
   <g id="matplotlib.axis_2">
    <g id="ytick_1">
     <g id="line2d_12">
      <defs>
       <path id="mbba931e9c5" d="M 0 0 
L -3.5 0 
" style="stroke: #000000; stroke-width: 0.8"/>
      </defs>
      <g>
       <use xlink:href="#mbba931e9c5" x="46.0125" y="338.334108" style="stroke: #000000; stroke-width: 0.8"/>
      </g>
     </g>
     <g id="text_12">
      <!-- 0 -->
      <g transform="translate(32.65 342.133327)scale(0.1 -0.1)">
       <use xlink:href="#DejaVuSans-30"/>
      </g>
     </g>
    </g>
    <g id="ytick_2">
     <g id="line2d_13">
      <g>
       <use xlink:href="#mbba931e9c5" x="46.0125" y="292.567732" style="stroke: #000000; stroke-width: 0.8"/>
      </g>
     </g>
     <g id="text_13">
      <!-- 5000 -->
      <g transform="translate(13.5625 296.366951)scale(0.1 -0.1)">
       <defs>
        <path id="DejaVuSans-35" d="M 691 4666 
L 3169 4666 
L 3169 4134 
L 1269 4134 
L 1269 2991 
Q 1406 3038 1543 3061 
Q 1681 3084 1819 3084 
Q 2600 3084 3056 2656 
Q 3513 2228 3513 1497 
Q 3513 744 3044 326 
Q 2575 -91 1722 -91 
Q 1428 -91 1123 -41 
Q 819 9 494 109 
L 494 744 
Q 775 591 1075 516 
Q 1375 441 1709 441 
Q 2250 441 2565 725 
Q 2881 1009 2881 1497 
Q 2881 1984 2565 2268 
Q 2250 2553 1709 2553 
Q 1456 2553 1204 2497 
Q 953 2441 691 2322 
L 691 4666 
z
" transform="scale(0.015625)"/>
       </defs>
       <use xlink:href="#DejaVuSans-35"/>
       <use xlink:href="#DejaVuSans-30" x="63.623047"/>
       <use xlink:href="#DejaVuSans-30" x="127.246094"/>
       <use xlink:href="#DejaVuSans-30" x="190.869141"/>
      </g>
     </g>
    </g>
    <g id="ytick_3">
     <g id="line2d_14">
      <g>
       <use xlink:href="#mbba931e9c5" x="46.0125" y="246.801356" style="stroke: #000000; stroke-width: 0.8"/>
      </g>
     </g>
     <g id="text_14">
      <!-- 10000 -->
      <g transform="translate(7.2 250.600575)scale(0.1 -0.1)">
       <use xlink:href="#DejaVuSans-31"/>
       <use xlink:href="#DejaVuSans-30" x="63.623047"/>
       <use xlink:href="#DejaVuSans-30" x="127.246094"/>
       <use xlink:href="#DejaVuSans-30" x="190.869141"/>
       <use xlink:href="#DejaVuSans-30" x="254.492188"/>
      </g>
     </g>
    </g>
    <g id="ytick_4">
     <g id="line2d_15">
      <g>
       <use xlink:href="#mbba931e9c5" x="46.0125" y="201.03498" style="stroke: #000000; stroke-width: 0.8"/>
      </g>
     </g>
     <g id="text_15">
      <!-- 15000 -->
      <g transform="translate(7.2 204.834199)scale(0.1 -0.1)">
       <use xlink:href="#DejaVuSans-31"/>
       <use xlink:href="#DejaVuSans-35" x="63.623047"/>
       <use xlink:href="#DejaVuSans-30" x="127.246094"/>
       <use xlink:href="#DejaVuSans-30" x="190.869141"/>
       <use xlink:href="#DejaVuSans-30" x="254.492188"/>
      </g>
     </g>
    </g>
    <g id="ytick_5">
     <g id="line2d_16">
      <g>
       <use xlink:href="#mbba931e9c5" x="46.0125" y="155.268604" style="stroke: #000000; stroke-width: 0.8"/>
      </g>
     </g>
     <g id="text_16">
      <!-- 20000 -->
      <g transform="translate(7.2 159.067823)scale(0.1 -0.1)">
       <use xlink:href="#DejaVuSans-32"/>
       <use xlink:href="#DejaVuSans-30" x="63.623047"/>
       <use xlink:href="#DejaVuSans-30" x="127.246094"/>
       <use xlink:href="#DejaVuSans-30" x="190.869141"/>
       <use xlink:href="#DejaVuSans-30" x="254.492188"/>
      </g>
     </g>
    </g>
    <g id="ytick_6">
     <g id="line2d_17">
      <g>
       <use xlink:href="#mbba931e9c5" x="46.0125" y="109.502228" style="stroke: #000000; stroke-width: 0.8"/>
      </g>
     </g>
     <g id="text_17">
      <!-- 25000 -->
      <g transform="translate(7.2 113.301447)scale(0.1 -0.1)">
       <use xlink:href="#DejaVuSans-32"/>
       <use xlink:href="#DejaVuSans-35" x="63.623047"/>
       <use xlink:href="#DejaVuSans-30" x="127.246094"/>
       <use xlink:href="#DejaVuSans-30" x="190.869141"/>
       <use xlink:href="#DejaVuSans-30" x="254.492188"/>
      </g>
     </g>
    </g>
    <g id="ytick_7">
     <g id="line2d_18">
      <g>
       <use xlink:href="#mbba931e9c5" x="46.0125" y="63.735852" style="stroke: #000000; stroke-width: 0.8"/>
      </g>
     </g>
     <g id="text_18">
      <!-- 30000 -->
      <g transform="translate(7.2 67.53507)scale(0.1 -0.1)">
       <defs>
        <path id="DejaVuSans-33" d="M 2597 2516 
Q 3050 2419 3304 2112 
Q 3559 1806 3559 1356 
Q 3559 666 3084 287 
Q 2609 -91 1734 -91 
Q 1441 -91 1130 -33 
Q 819 25 488 141 
L 488 750 
Q 750 597 1062 519 
Q 1375 441 1716 441 
Q 2309 441 2620 675 
Q 2931 909 2931 1356 
Q 2931 1769 2642 2001 
Q 2353 2234 1838 2234 
L 1294 2234 
L 1294 2753 
L 1863 2753 
Q 2328 2753 2575 2939 
Q 2822 3125 2822 3475 
Q 2822 3834 2567 4026 
Q 2313 4219 1838 4219 
Q 1578 4219 1281 4162 
Q 984 4106 628 3988 
L 628 4550 
Q 988 4650 1302 4700 
Q 1616 4750 1894 4750 
Q 2613 4750 3031 4423 
Q 3450 4097 3450 3541 
Q 3450 3153 3228 2886 
Q 3006 2619 2597 2516 
z
" transform="scale(0.015625)"/>
       </defs>
       <use xlink:href="#DejaVuSans-33"/>
       <use xlink:href="#DejaVuSans-30" x="63.623047"/>
       <use xlink:href="#DejaVuSans-30" x="127.246094"/>
       <use xlink:href="#DejaVuSans-30" x="190.869141"/>
       <use xlink:href="#DejaVuSans-30" x="254.492188"/>
      </g>
     </g>
    </g>
   </g>
   <g id="line2d_19">
    <path d="M 106.885227 338.334108 
L 174.957955 338.324955 
L 177.576136 338.08697 
L 178.885227 338.077817 
L 180.194318 337.757452 
L 182.8125 338.334108 
L 184.121591 337.116723 
L 185.430682 337.52862 
L 186.739773 336.475993 
L 188.048864 335.981716 
L 189.357955 337.08011 
L 190.667045 335.780344 
L 191.976136 336.201395 
L 193.285227 334.041222 
L 194.594318 333.043515 
L 195.903409 333.235734 
L 197.2125 334.407353 
L 198.521591 335.890184 
L 199.830682 328.357038 
L 201.139773 335.020623 
L 202.448864 334.681951 
L 203.757955 327.066426 
L 205.067045 330.324992 
L 206.376136 338.334108 
L 207.685227 320.000098 
L 208.994318 331.432539 
L 210.303409 329.437125 
L 211.6125 333.528639 
L 212.921591 326.0138 
L 214.230682 332.768917 
L 215.539773 331.322699 
L 216.848864 328.000061 
L 219.467045 331.551531 
L 220.776136 334.562959 
L 222.085227 321.373089 
L 223.394318 333.345573 
L 224.703409 319.029851 
L 226.0125 332.558392 
L 227.321591 330.68197 
L 228.630682 332.411939 
L 231.248864 331.670524 
L 232.557955 335.450827 
L 233.867045 334.169368 
L 235.176136 329.794102 
L 236.485227 328.595023 
L 239.103409 338.334108 
L 240.4125 332.054961 
L 241.721591 332.402786 
L 243.030682 334.910783 
L 244.339773 331.112174 
L 245.648864 332.595005 
L 246.957955 333.089282 
L 248.267045 333.116741 
L 249.576136 336.402767 
L 250.885227 333.135048 
L 252.194318 333.556099 
L 253.503409 332.759764 
L 254.8125 332.649924 
L 256.121591 332.677384 
L 257.430682 331.780363 
L 258.739773 331.954275 
L 260.048864 335.45998 
L 261.357955 332.961136 
L 262.667045 336.585833 
L 263.976136 334.379893 
L 265.285227 334.837557 
L 266.594318 334.251747 
L 267.903409 334.627032 
L 269.2125 334.3982 
L 270.521591 338.471407 
L 271.830682 335.853571 
L 273.139773 336.475993 
L 274.448864 335.954257 
L 275.757955 336.695672 
L 277.067045 333.400493 
L 278.376136 336.146475 
L 279.685227 337.308941 
L 280.994318 336.979423 
L 282.303409 336.311234 
L 283.6125 335.057236 
L 284.921591 336.961117 
L 287.539773 337.537773 
L 288.848864 336.796358 
L 290.157955 337.290635 
L 291.467045 336.247161 
L 292.776136 335.542359 
L 294.085227 337.4737 
L 295.394318 336.988577 
L 298.0125 337.601846 
L 299.321591 338.233422 
L 300.630682 337.263175 
L 301.939773 336.887891 
L 303.248864 337.967977 
L 304.557955 338.08697 
L 305.867045 337.263175 
L 307.176136 338.205962 
L 308.485227 337.592693 
L 309.794318 337.739145 
L 311.103409 336.988577 
L 313.721591 337.794065 
L 315.030682 336.94281 
L 316.339773 337.803218 
L 317.648864 337.656766 
L 318.957955 337.684226 
L 320.267045 338.334108 
L 321.576136 338.334108 
L 322.885227 335.96341 
L 324.194318 337.812372 
L 326.8125 337.409627 
L 328.121591 337.620153 
L 329.430682 338.334108 
L 330.739773 338.334108 
L 332.048864 336.292928 
L 333.357955 338.151043 
L 334.667045 337.363861 
L 335.976136 337.290635 
L 337.285227 337.02519 
L 338.594318 338.334108 
L 339.903409 338.334108 
L 341.2125 336.851278 
L 342.521591 337.958824 
L 343.830682 337.171642 
L 345.139773 338.251729 
L 346.448864 333.354727 
L 347.757955 338.334108 
L 349.067045 338.334108 
L 350.376136 336.43938 
L 351.685227 337.4737 
L 352.994318 334.096142 
L 354.303409 337.144182 
L 355.6125 337.05265 
L 356.921591 338.334108 
L 358.230682 338.334108 
L 359.539773 336.027483 
L 360.848864 337.894751 
L 362.157955 337.281482 
L 363.467045 338.151043 
L 364.776136 337.647613 
L 366.085227 338.334108 
L 367.394318 338.334108 
L 368.703409 336.073249 
L 370.0125 337.263175 
L 371.321591 338.132736 
L 372.630682 337.638459 
L 373.939773 337.281482 
L 375.248864 338.334108 
L 376.557955 338.334108 
L 377.867045 334.947396 
L 379.176136 338.443948 
L 381.794318 337.254022 
L 383.103409 337.537773 
L 384.4125 338.334108 
L 385.721591 338.334108 
L 387.030682 333.830697 
L 388.339773 338.068663 
L 389.648864 336.686519 
L 390.957955 337.144182 
L 392.267045 337.006883 
L 393.576136 338.334108 
L 394.885227 338.334108 
L 396.194318 334.819251 
L 397.503409 337.171642 
L 398.8125 337.400474 
L 400.121591 337.409627 
L 401.430682 336.906197 
L 402.739773 338.334108 
L 405.357955 338.334108 
L 406.667045 334.517192 
L 407.976136 337.519467 
L 409.285227 336.302081 
L 410.594318 336.201395 
L 411.903409 338.334108 
L 413.2125 338.334108 
L 414.521591 333.125895 
L 415.830682 337.089263 
L 417.139773 337.098416 
L 418.448864 336.320388 
L 419.757955 337.043496 
L 421.067045 338.334108 
L 422.376136 338.334108 
L 423.685227 333.78493 
L 424.994318 337.089263 
L 426.303409 336.915351 
L 427.6125 336.897044 
L 428.921591 337.281482 
L 430.230682 338.334108 
L 431.539773 338.334108 
L 432.848864 333.208274 
L 434.157955 336.668212 
L 435.467045 336.311234 
L 436.776136 336.576679 
L 438.085227 333.25404 
L 439.394318 338.334108 
L 440.703409 338.334108 
L 442.0125 330.800963 
L 443.321591 337.226562 
L 444.630682 337.208255 
L 445.939773 334.819251 
L 447.248864 335.679658 
L 448.557955 338.334108 
L 449.867045 338.334108 
L 451.176136 326.077873 
L 452.485227 335.40506 
L 453.794318 336.832971 
L 455.103409 336.805511 
L 456.4125 330.993182 
L 457.721591 338.334108 
L 459.030682 338.334108 
L 460.339773 327.432557 
L 461.648864 334.361587 
L 462.957955 334.526346 
L 464.267045 333.739164 
L 465.576136 332.119034 
L 466.885227 338.334108 
L 468.194318 338.334108 
L 469.503409 319.597354 
L 470.8125 333.409646 
L 472.121591 333.849003 
L 473.430682 326.260938 
L 474.739773 331.368466 
L 476.048864 338.334108 
L 477.357955 338.334108 
L 478.667045 314.068776 
L 479.976136 329.318132 
L 481.285227 333.482872 
L 482.594318 322.892533 
L 483.903409 328.58587 
L 485.2125 338.334108 
L 486.521591 338.334108 
L 487.830682 308.064227 
L 489.139773 324.411977 
L 490.448864 321.968052 
L 491.757955 327.734616 
L 493.067045 313.199214 
L 494.376136 338.334108 
L 495.685227 338.334108 
L 496.994318 295.872064 
L 498.303409 322.755234 
L 500.921591 316.796452 
L 502.230682 319.22207 
L 503.539773 338.334108 
L 504.848864 338.334108 
L 506.157955 290.087195 
L 507.467045 333.39134 
L 508.776136 321.199177 
L 510.085227 338.334108 
L 511.394318 306.947528 
L 512.703409 338.334108 
L 514.0125 338.334108 
L 515.321591 295.185569 
L 516.630682 324.97948 
L 517.939773 313.876557 
L 519.248864 294.846898 
L 520.557955 324.256371 
L 521.867045 338.334108 
L 523.176136 338.334108 
L 524.485227 263.927134 
L 525.794318 316.238102 
L 527.103409 317.373108 
L 528.4125 316.082496 
L 529.721591 303.716421 
L 531.030682 338.334108 
L 532.339773 338.334108 
L 533.648864 272.146775 
L 534.957955 324.878794 
L 536.267045 317.107663 
L 537.576136 317.089356 
L 538.885227 313.803331 
L 540.194318 338.334108 
L 541.503409 338.334108 
L 542.8125 296.274809 
L 544.121591 323.844474 
L 545.430682 322.361643 
L 546.739773 319.679733 
L 548.048864 338.334108 
L 550.667045 338.334108 
L 551.976136 260.92486 
L 553.285227 331.313546 
L 554.594318 322.810153 
L 555.903409 319.61566 
L 557.2125 338.334108 
L 558.521591 297.949858 
L 559.830682 338.334108 
L 561.139773 296.997917 
L 562.448864 316.98867 
L 563.757955 315.579066 
L 565.067045 308.091687 
L 566.376136 308.71411 
L 567.685227 338.334108 
L 568.994318 338.334108 
L 570.303409 270.92939 
L 571.6125 304.567676 
L 572.921591 306.0322 
L 574.230682 329.473738 
L 575.539773 321.144257 
L 576.848864 338.334108 
L 578.157955 338.334108 
L 579.467045 276.979704 
L 580.776136 319.16715 
L 582.085227 320.805586 
L 583.394318 323.121365 
L 584.703409 319.853646 
L 586.0125 338.334108 
L 587.321591 338.334108 
L 588.630682 285.089506 
L 589.939773 326.736909 
L 591.248864 316.000117 
L 592.557955 325.281538 
L 593.867045 326.819288 
L 595.176136 338.334108 
L 596.485227 338.334108 
L 597.794318 302.352583 
L 599.103409 314.828497 
L 600.4125 333.92223 
L 603.030682 325.235771 
L 604.339773 338.334108 
L 605.648864 338.334108 
L 606.957955 298.361755 
L 608.267045 330.379912 
L 609.576136 330.206 
L 610.885227 329.153373 
L 612.194318 330.663664 
L 613.503409 338.334108 
L 614.8125 338.334108 
L 616.121591 311.743844 
L 617.430682 333.025209 
L 618.739773 333.446259 
L 620.048864 333.327267 
L 621.357955 327.368485 
L 622.667045 338.334108 
L 623.976136 338.334108 
L 625.285227 317.894845 
L 626.594318 325.913114 
L 627.903409 324.668268 
L 629.2125 329.409665 
L 630.521591 331.130481 
L 631.830682 338.334108 
L 633.139773 338.334108 
L 634.448864 313.803331 
L 635.757955 333.739164 
L 637.067045 333.81239 
L 638.376136 330.297533 
L 639.685227 330.73689 
L 640.994318 338.334108 
L 642.303409 338.334108 
L 643.6125 319.423442 
L 644.921591 331.478305 
L 646.230682 333.647631 
L 647.539773 331.606451 
L 648.848864 327.487477 
L 650.157955 338.334108 
L 651.467045 338.334108 
L 652.776136 315.222088 
L 654.085227 330.526364 
L 655.394318 334.919937 
L 656.703409 327.752922 
L 658.0125 327.286105 
L 659.321591 338.334108 
L 660.630682 338.334108 
L 661.939773 311.093961 
L 663.248864 330.114467 
L 664.557955 324.997786 
L 665.867045 324.714035 
L 667.176136 322.77354 
L 668.485227 338.334108 
L 669.794318 338.334108 
L 671.103409 308.778183 
L 672.4125 323.533262 
L 673.721591 333.135048 
L 675.030682 321.455469 
L 676.339773 324.714035 
L 677.648864 338.334108 
L 678.957955 338.334108 
L 680.267045 313.629418 
L 681.576136 328.503491 
L 684.194318 329.070994 
L 685.503409 321.79414 
L 686.8125 338.334108 
L 688.121591 338.334108 
L 689.430682 311.011582 
L 690.739773 328.100747 
L 692.048864 323.606488 
L 693.357955 331.908509 
L 694.667045 328.61333 
L 695.976136 338.334108 
L 697.285227 338.334108 
L 698.594318 316.924597 
L 699.903409 331.578991 
L 701.2125 330.498905 
L 702.521591 331.588144 
L 703.830682 328.869622 
L 705.139773 338.334108 
L 706.448864 338.334108 
L 707.757955 318.498961 
L 709.067045 334.608725 
L 710.376136 332.649924 
L 711.685227 333.885616 
L 712.994318 331.139634 
L 714.303409 338.334108 
L 715.6125 338.334108 
L 716.921591 326.325011 
L 718.230682 334.517192 
L 719.539773 332.759764 
L 720.848864 331.82613 
L 722.157955 334.34328 
L 723.467045 338.334108 
L 724.776136 338.334108 
L 726.085227 330.76435 
L 727.394318 334.590419 
L 728.703409 336.622446 
L 730.0125 334.022916 
L 731.321591 334.993163 
L 732.630682 338.334108 
L 733.939773 338.334108 
L 735.248864 332.27464 
L 736.557955 337.592693 
L 737.867045 336.247161 
L 739.176136 336.448534 
L 740.485227 336.768898 
L 741.794318 338.334108 
L 743.103409 338.334108 
L 744.4125 334.800944 
L 745.721591 336.677365 
L 747.030682 337.52862 
L 748.339773 336.897044 
L 749.648864 336.46684 
L 750.957955 338.334108 
L 753.576136 338.334108 
L 754.885227 336.302081 
L 756.194318 337.281482 
L 757.503409 337.693379 
L 758.8125 337.02519 
L 760.121591 338.334108 
L 761.430682 338.334108 
L 762.739773 336.530913 
L 764.048864 337.729992 
L 765.357955 337.345555 
L 766.667045 337.812372 
L 769.285227 338.334108 
L 770.594318 338.334108 
L 771.903409 337.281482 
L 773.2125 337.821525 
L 774.521591 337.97713 
L 775.830682 338.013744 
L 777.139773 337.693379 
L 778.448864 338.334108 
L 779.757955 338.334108 
L 781.067045 337.492007 
L 782.376136 337.922211 
L 783.685227 337.986284 
L 784.994318 336.933657 
L 786.303409 337.171642 
L 787.6125 338.334108 
L 788.921591 338.334108 
L 790.230682 337.043496 
L 791.539773 337.967977 
L 792.848864 337.867291 
L 794.157955 338.013744 
L 795.467045 337.519467 
L 796.776136 338.334108 
L 799.394318 338.334108 
L 800.703409 336.732285 
L 802.0125 337.492007 
L 803.321591 337.830678 
L 804.630682 336.768898 
L 805.939773 338.334108 
L 807.248864 338.334108 
L 808.557955 337.693379 
L 809.867045 336.448534 
L 811.176136 337.043496 
L 812.485227 336.961117 
L 813.794318 337.061803 
L 815.103409 338.334108 
L 816.4125 338.334108 
L 817.721591 334.590419 
L 819.030682 336.338694 
L 820.339773 336.247161 
L 821.648864 335.633892 
L 822.957955 336.393614 
L 824.267045 338.334108 
L 825.576136 338.334108 
L 826.885227 332.942829 
L 829.503409 334.755178 
L 830.8125 335.231148 
L 832.121591 333.83985 
L 833.430682 338.334108 
L 834.739773 338.334108 
L 836.048864 326.938281 
L 837.357955 332.988595 
L 838.667045 333.418799 
L 839.976136 332.439399 
L 841.285227 331.643064 
L 842.594318 338.334108 
L 843.903409 338.334108 
L 845.2125 326.553843 
L 846.521591 335.816958 
L 847.830682 329.968015 
L 849.139773 331.542378 
L 850.448864 333.373033 
L 851.757955 338.334108 
L 853.067045 338.334108 
L 854.376136 323.86278 
L 855.685227 330.270073 
L 856.994318 332.906216 
L 858.303409 333.446259 
L 859.6125 334.389047 
L 860.921591 338.334108 
L 862.230682 338.334108 
L 863.539773 324.109919 
L 864.848864 328.53095 
L 866.157955 332.375326 
L 867.467045 331.121327 
L 868.776136 331.121327 
L 870.085227 338.334108 
L 871.394318 338.334108 
L 872.703409 325.876501 
L 874.0125 329.153373 
L 875.321591 331.816976 
L 877.939773 332.24718 
L 879.248864 338.334108 
L 881.867045 338.334108 
L 883.176136 323.579029 
L 884.485227 329.775796 
L 885.794318 332.604158 
L 887.103409 332.613311 
L 888.4125 338.334108 
L 889.721591 338.334108 
L 891.030682 325.995493 
L 892.339773 328.723169 
L 893.648864 334.663645 
L 894.957955 328.576717 
L 896.267045 324.201451 
L 897.576136 338.334108 
L 898.885227 338.334108 
L 900.194318 325.098472 
L 901.503409 334.727718 
L 904.121591 332.924523 
L 905.430682 334.032069 
L 906.739773 338.334108 
L 908.048864 338.334108 
L 909.357955 325.116779 
L 910.667045 333.272347 
L 911.976136 334.215134 
L 913.285227 336.823818 
L 914.594318 331.734597 
L 915.903409 338.334108 
L 917.2125 338.334108 
L 918.521591 328.292965 
L 919.830682 334.572112 
L 921.139773 334.883323 
L 922.448864 333.318113 
L 923.757955 333.675091 
L 925.067045 338.334108 
L 927.685227 338.334108 
L 928.994318 324.851334 
L 930.303409 336.137322 
L 931.6125 330.022934 
L 932.921591 333.81239 
L 934.230682 338.334108 
L 935.539773 338.334108 
L 936.848864 327.835302 
L 938.157955 331.844436 
L 939.467045 334.819251 
L 940.776136 334.581265 
L 942.085227 334.187675 
L 943.394318 338.334108 
L 944.703409 338.334108 
L 946.0125 330.105314 
L 947.321591 336.009176 
L 948.630682 335.249454 
L 949.939773 334.279207 
L 951.248864 334.45312 
L 952.557955 338.334108 
L 953.867045 338.334108 
L 955.176136 330.718583 
L 956.485227 334.562959 
L 957.794318 334.755178 
L 959.103409 334.389047 
L 960.4125 335.40506 
L 961.721591 338.334108 
L 963.030682 338.334108 
L 964.339773 329.720876 
L 965.648864 335.505746 
L 966.957955 333.455413 
L 968.267045 333.39134 
L 969.576136 334.141908 
L 970.885227 338.334108 
L 972.194318 338.334108 
L 973.503409 318.389122 
L 974.8125 333.354727 
L 976.121591 330.663664 
L 977.430682 331.496612 
L 978.739773 330.462292 
L 980.048864 338.334108 
L 981.357955 338.334108 
L 982.667045 319.478361 
L 983.976136 331.432539 
L 985.285227 330.636204 
L 986.594318 338.334108 
L 987.903409 320.942885 
L 989.2125 338.334108 
L 990.521591 338.334108 
L 991.830682 317.171736 
L 993.139773 330.032088 
L 994.448864 328.329578 
L 995.757955 323.441729 
L 997.067045 330.434832 
L 998.376136 338.334108 
L 999.685227 338.334108 
L 1000.994318 288.165007 
L 1002.303409 320.768973 
L 1003.6125 331.112174 
L 1004.921591 313.812484 
L 1006.230682 308.311366 
L 1007.539773 338.334108 
L 1008.848864 338.334108 
L 1010.157955 266.087307 
L 1011.467045 310.883436 
L 1012.776136 322.563015 
L 1014.085227 319.249529 
L 1015.394318 325.125932 
L 1016.703409 338.334108 
L 1018.0125 338.334108 
L 1019.321591 281.501422 
L 1020.630682 283.414457 
L 1021.939773 307.524184 
L 1023.248864 307.06652 
L 1024.557955 338.334108 
L 1027.176136 338.334108 
L 1028.485227 204.202013 
L 1029.794318 285.675316 
L 1031.103409 269.501479 
L 1032.4125 267.817276 
L 1033.721591 338.334108 
L 1036.339773 338.334108 
L 1037.648864 121.602858 
L 1038.957955 241.291084 
L 1040.267045 243.652629 
L 1041.576136 257.574761 
L 1042.885227 246.105707 
L 1044.194318 338.334108 
L 1045.503409 338.334108 
L 1046.8125 50.8755 
L 1048.121591 276.540347 
L 1049.430682 271.35044 
L 1050.739773 250.426053 
L 1052.048864 257.940892 
L 1053.357955 338.334108 
L 1054.667045 338.334108 
L 1055.976136 193.309616 
L 1057.285227 299.304543 
L 1058.594318 294.901817 
L 1059.903409 294.352621 
L 1061.2125 297.656953 
L 1062.521591 338.334108 
L 1063.830682 338.334108 
L 1065.139773 227.973069 
L 1066.448864 303.331984 
L 1067.757955 312.750704 
L 1069.067045 310.544765 
L 1070.376136 313.766718 
L 1071.685227 338.334108 
L 1072.994318 338.334108 
L 1074.303409 307.853702 
L 1075.6125 326.984047 
L 1076.921591 321.986359 
L 1078.230682 315.95435 
L 1080.848864 338.334108 
L 1082.157955 338.334108 
L 1083.467045 318.764406 
L 1084.776136 326.04126 
L 1086.085227 328.741476 
L 1087.394318 328.942848 
L 1088.703409 327.450864 
L 1090.0125 338.334108 
L 1091.321591 338.334108 
L 1092.630682 324.384517 
L 1093.939773 326.581303 
L 1095.248864 321.601921 
L 1096.557955 333.354727 
L 1097.867045 326.773522 
L 1099.176136 338.334108 
L 1100.485227 338.334108 
L 1101.794318 326.51723 
L 1103.103409 335.240301 
L 1104.4125 333.39134 
L 1105.721591 334.141908 
L 1107.030682 334.462273 
L 1108.339773 338.334108 
L 1109.648864 338.334108 
L 1110.957955 329.070994 
L 1112.267045 336.778051 
L 1113.576136 336.01833 
L 1114.885227 332.942829 
L 1116.194318 334.379893 
L 1117.503409 338.334108 
L 1118.8125 338.334108 
L 1120.121591 313.537886 
L 1121.430682 327.432557 
L 1122.739773 335.313527 
L 1124.048864 335.670505 
L 1125.357955 335.194535 
L 1126.667045 338.334108 
L 1127.976136 338.334108 
L 1129.285227 330.929109 
L 1130.594318 335.542359 
L 1131.903409 335.43252 
L 1133.2125 334.636185 
L 1134.521591 335.258608 
L 1135.830682 338.334108 
L 1137.139773 338.334108 
L 1138.448864 332.814683 
L 1139.757955 334.114448 
L 1141.067045 334.709411 
L 1142.376136 334.31582 
L 1143.685227 334.407353 
L 1144.994318 338.334108 
L 1146.303409 338.334108 
L 1147.6125 329.052687 
L 1148.921591 334.993163 
L 1150.230682 334.141908 
L 1151.539773 338.334108 
L 1152.848864 326.956587 
L 1154.157955 338.334108 
L 1155.467045 338.334108 
L 1156.776136 326.727755 
L 1158.085227 334.379893 
L 1159.394318 333.958843 
L 1160.703409 331.478305 
L 1162.0125 332.009195 
L 1163.321591 338.334108 
L 1164.630682 338.334108 
L 1165.939773 321.528695 
L 1167.248864 332.558392 
L 1168.557955 332.009195 
L 1169.867045 334.608725 
L 1171.176136 327.414251 
L 1172.485227 338.334108 
L 1173.794318 338.334108 
L 1175.103409 320.393689 
L 1176.4125 327.707156 
L 1177.721591 329.0893 
L 1179.030682 330.306686 
L 1180.339773 327.807842 
L 1181.648864 338.334108 
L 1182.957955 338.334108 
L 1184.267045 319.789573 
L 1185.576136 328.375345 
L 1186.885227 328.750629 
L 1188.194318 326.837595 
L 1189.503409 328.686556 
L 1190.8125 338.334108 
L 1192.121591 338.334108 
L 1193.430682 319.212916 
L 1194.739773 322.526402 
L 1196.048864 328.704863 
L 1197.357955 325.336457 
L 1198.667045 323.661408 
L 1199.976136 338.334108 
L 1201.285227 338.334108 
L 1202.594318 296.320575 
L 1203.903409 320.512681 
L 1205.2125 316.439474 
L 1206.521591 320.366229 
L 1207.830682 316.402861 
L 1209.139773 338.334108 
L 1210.448864 338.334108 
L 1211.757955 242.471857 
L 1213.067045 322.251804 
L 1214.376136 320.714053 
L 1215.685227 321.153411 
L 1216.994318 318.892552 
L 1218.303409 338.334108 
L 1219.6125 338.334108 
L 1220.921591 306.645469 
L 1222.230682 328.924541 
L 1223.539773 323.30443 
L 1224.848864 323.86278 
L 1226.157955 327.917681 
L 1227.467045 338.334108 
L 1230.085227 338.334108 
L 1231.394318 313.373127 
L 1232.703409 329.217446 
L 1234.0125 332.3021 
L 1235.321591 328.421111 
L 1236.630682 338.334108 
L 1237.939773 338.334108 
L 1239.248864 322.370796 
L 1240.557955 332.366173 
L 1241.867045 332.320406 
L 1244.485227 331.963429 
L 1245.794318 338.334108 
L 1247.103409 338.334108 
L 1248.4125 323.533262 
L 1249.721591 331.514918 
L 1251.030682 330.892495 
L 1252.339773 333.803237 
L 1253.648864 330.608744 
L 1254.957955 338.334108 
L 1256.267045 338.334108 
L 1257.576136 325.071012 
L 1258.885227 333.034362 
L 1260.194318 331.679677 
L 1261.503409 332.201414 
L 1262.8125 331.194554 
L 1264.121591 332.320406 
L 1265.430682 334.288361 
L 1266.739773 332.796377 
L 1268.048864 330.68197 
L 1269.357955 332.402786 
L 1270.667045 331.881049 
L 1271.976136 311.679771 
L 1273.285227 332.000042 
L 1274.594318 335.212841 
L 1275.903409 335.157922 
L 1277.2125 335.670505 
L 1278.521591 329.0893 
L 1279.830682 330.791809 
L 1281.139773 328.439418 
L 1282.448864 330.984028 
L 1283.757955 333.92223 
L 1285.067045 334.599572 
L 1286.376136 329.107607 
L 1287.685227 330.059547 
L 1288.994318 330.819269 
L 1290.303409 330.599591 
L 1291.6125 330.73689 
L 1292.921591 337.006883 
L 1294.230682 333.080128 
L 1295.539773 328.265505 
L 1296.848864 330.517211 
L 1298.157955 331.139634 
L 1299.467045 327.084733 
L 1302.085227 334.123602 
L 1303.394318 334.141908 
L 1304.703409 330.206 
L 1306.0125 324.659115 
L 1307.321591 328.732323 
L 1307.321591 328.732323 
" clip-path="url(#pf2d524e6b0)" style="fill: none; stroke: #0000ff; stroke-width: 1.5; stroke-linecap: square"/>
   </g>
   <g id="line2d_20">
    <path d="M 1067.757955 310.548709 
L 1069.067045 310.280236 
L 1070.376136 343.139375 
L 1071.685227 342.825398 
L 1072.994318 256.973071 
L 1074.303409 319.193869 
L 1075.6125 325.495913 
L 1076.921591 333.387286 
L 1078.230682 334.882909 
L 1079.539773 353.2755 
L 1080.848864 348.341945 
L 1082.157955 322.304932 
L 1083.467045 334.787878 
L 1084.776136 329.000026 
L 1086.085227 324.083648 
L 1087.394318 331.37331 
L 1088.703409 340.414442 
L 1090.0125 341.294475 
L 1091.321591 324.97502 
L 1092.630682 330.477822 
L 1093.939773 331.670748 
L 1095.248864 331.089557 
L 1096.557955 329.651138 
L 1097.867045 336.099032 
L 1099.176136 337.049486 
L 1100.485227 325.58829 
L 1101.794318 328.064767 
L 1103.103409 324.957161 
L 1104.4125 334.855616 
L 1105.721591 330.921535 
L 1107.030682 341.742489 
L 1108.339773 341.117341 
L 1109.648864 332.400342 
L 1110.957955 338.14393 
L 1112.267045 336.241711 
L 1113.576136 336.303269 
L 1114.885227 336.142373 
L 1116.194318 339.17789 
L 1117.503409 338.556997 
L 1118.8125 331.086731 
L 1120.121591 335.615659 
L 1121.430682 334.711659 
L 1122.739773 329.148189 
L 1124.048864 329.666774 
L 1125.357955 333.36948 
L 1126.667045 335.144928 
L 1127.976136 317.063724 
L 1129.285227 329.82154 
L 1130.594318 336.613059 
L 1131.903409 339.29082 
L 1133.2125 339.344964 
L 1134.521591 341.256598 
L 1135.830682 340.113809 
L 1137.139773 333.423678 
L 1138.448864 336.64002 
L 1139.757955 336.221756 
L 1141.067045 335.533531 
L 1142.376136 335.520872 
L 1143.685227 337.672284 
L 1144.994318 337.572556 
L 1146.303409 333.168837 
L 1148.921591 334.851104 
L 1150.230682 333.695253 
L 1151.539773 334.468007 
L 1152.848864 336.697498 
L 1154.157955 337.976334 
L 1155.467045 329.177035 
L 1156.776136 334.168807 
L 1158.085227 333.542539 
L 1159.394318 336.473933 
L 1160.703409 327.359085 
L 1162.0125 336.767833 
L 1163.321591 335.891133 
L 1164.630682 328.066149 
L 1165.939773 333.672875 
L 1167.248864 333.92242 
L 1168.557955 330.53047 
L 1169.867045 331.21451 
L 1171.176136 335.445014 
L 1172.485227 336.704169 
L 1173.794318 322.873873 
L 1175.103409 331.987376 
L 1176.4125 331.467514 
L 1177.721591 332.923287 
L 1179.030682 326.410731 
L 1180.339773 334.73108 
L 1181.648864 334.594055 
L 1182.957955 321.228354 
L 1184.267045 327.5101 
L 1185.576136 329.38405 
L 1186.885227 329.930478 
L 1188.194318 327.925511 
L 1189.503409 336.112577 
L 1190.8125 335.75241 
L 1192.121591 321.680921 
L 1193.430682 328.592066 
L 1194.739773 328.974269 
L 1196.048864 327.066734 
L 1197.357955 327.250893 
L 1198.667045 334.635728 
L 1199.976136 334.705283 
L 1201.285227 319.441801 
L 1202.594318 320.992905 
L 1203.903409 326.806395 
L 1205.2125 318.839934 
L 1206.521591 318.348894 
L 1207.830682 327.484813 
L 1209.139773 329.270929 
L 1210.448864 296.660548 
L 1211.757955 313.29432 
L 1213.067045 313.313038 
L 1214.376136 306.052296 
L 1215.685227 307.116485 
L 1216.994318 325.805686 
L 1218.303409 330.128502 
L 1219.6125 257.790039 
L 1220.921591 325.760553 
L 1222.230682 325.107442 
L 1223.539773 334.554933 
L 1224.848864 331.2953 
L 1226.157955 346.173405 
L 1227.467045 343.022102 
L 1228.776136 317.276494 
L 1230.085227 335.3873 
L 1231.394318 328.356702 
L 1232.703409 333.531241 
L 1234.0125 331.801619 
L 1235.321591 340.64624 
L 1236.630682 339.926935 
L 1237.939773 339.350061 
L 1239.248864 318.425186 
L 1240.557955 331.888307 
L 1241.867045 330.86172 
L 1243.176136 331.164991 
L 1244.485227 338.674208 
L 1245.794318 339.183267 
L 1247.103409 326.708499 
L 1248.4125 334.031742 
L 1249.721591 333.804685 
L 1251.030682 332.936831 
L 1252.339773 332.524136 
L 1253.648864 336.881203 
L 1254.957955 337.336784 
L 1256.267045 325.470084 
L 1257.576136 332.078156 
L 1258.885227 331.849156 
L 1260.194318 334.037509 
L 1261.503409 331.631551 
L 1262.8125 337.626507 
L 1264.121591 336.902442 
L 1265.430682 326.393211 
L 1266.739773 332.183816 
L 1268.048864 330.578687 
L 1269.357955 332.507509 
L 1270.667045 331.260211 
L 1271.976136 331.110107 
L 1273.285227 332.826434 
L 1274.594318 328.019911 
L 1275.903409 327.635673 
L 1277.2125 329.888394 
L 1278.521591 330.904059 
L 1279.830682 316.63874 
L 1281.139773 333.0316 
L 1283.757955 337.267816 
L 1285.067045 336.825963 
L 1286.376136 331.072772 
L 1287.685227 331.839622 
L 1288.994318 328.45503 
L 1291.6125 332.901106 
L 1292.921591 334.330222 
L 1294.230682 329.870976 
L 1295.539773 331.321053 
L 1296.848864 331.540212 
L 1299.467045 330.783783 
L 1300.776136 335.721147 
L 1302.085227 331.82966 
L 1303.394318 328.405598 
L 1304.703409 329.975159 
L 1306.0125 330.58111 
L 1307.321591 327.698401 
L 1307.321591 327.698401 
" clip-path="url(#pf2d524e6b0)" style="fill: none; stroke: #ffa500; stroke-width: 1.5; stroke-linecap: square"/>
   </g>
   <g id="line2d_21">
    <path d="M 1307.321591 327.698401 
L 1308.630682 329.518155 
L 1309.939773 331.997396 
L 1311.248864 332.025768 
L 1312.557955 329.040721 
L 1313.867045 324.808086 
L 1315.176136 328.008265 
L 1316.485227 327.214791 
L 1317.794318 328.680747 
L 1319.103409 330.662979 
L 1320.4125 330.72336 
L 1321.721591 328.420866 
L 1323.030682 325.140883 
L 1324.339773 327.684685 
" clip-path="url(#pf2d524e6b0)" style="fill: none; stroke: #ff0000; stroke-width: 1.5; stroke-linecap: square"/>
   </g>
   <g id="patch_3">
    <path d="M 46.0125 368.3955 
L 46.0125 35.7555 
" style="fill: none; stroke: #000000; stroke-width: 0.8; stroke-linejoin: miter; stroke-linecap: square"/>
   </g>
   <g id="patch_4">
    <path d="M 1385.2125 368.3955 
L 1385.2125 35.7555 
" style="fill: none; stroke: #000000; stroke-width: 0.8; stroke-linejoin: miter; stroke-linecap: square"/>
   </g>
   <g id="patch_5">
    <path d="M 46.0125 368.3955 
L 1385.2125 368.3955 
" style="fill: none; stroke: #000000; stroke-width: 0.8; stroke-linejoin: miter; stroke-linecap: square"/>
   </g>
   <g id="patch_6">
    <path d="M 46.0125 35.7555 
L 1385.2125 35.7555 
" style="fill: none; stroke: #000000; stroke-width: 0.8; stroke-linejoin: miter; stroke-linecap: square"/>
   </g>
   <g id="text_19">
    <!-- Daily Confirmed Cases Forecasting - Connecticut -->
    <g transform="translate(569.1825 16.318125)scale(0.12 -0.12)">
     <defs>
      <path id="DejaVuSans-44" d="M 1259 4147 
L 1259 519 
L 2022 519 
Q 2988 519 3436 956 
Q 3884 1394 3884 2338 
Q 3884 3275 3436 3711 
Q 2988 4147 2022 4147 
L 1259 4147 
z
M 628 4666 
L 1925 4666 
Q 3281 4666 3915 4102 
Q 4550 3538 4550 2338 
Q 4550 1131 3912 565 
Q 3275 0 1925 0 
L 628 0 
L 628 4666 
z
" transform="scale(0.015625)"/>
      <path id="DejaVuSans-61" d="M 2194 1759 
Q 1497 1759 1228 1600 
Q 959 1441 959 1056 
Q 959 750 1161 570 
Q 1363 391 1709 391 
Q 2188 391 2477 730 
Q 2766 1069 2766 1631 
L 2766 1759 
L 2194 1759 
z
M 3341 1997 
L 3341 0 
L 2766 0 
L 2766 531 
Q 2569 213 2275 61 
Q 1981 -91 1556 -91 
Q 1019 -91 701 211 
Q 384 513 384 1019 
Q 384 1609 779 1909 
Q 1175 2209 1959 2209 
L 2766 2209 
L 2766 2266 
Q 2766 2663 2505 2880 
Q 2244 3097 1772 3097 
Q 1472 3097 1187 3025 
Q 903 2953 641 2809 
L 641 3341 
Q 956 3463 1253 3523 
Q 1550 3584 1831 3584 
Q 2591 3584 2966 3190 
Q 3341 2797 3341 1997 
z
" transform="scale(0.015625)"/>
      <path id="DejaVuSans-69" d="M 603 3500 
L 1178 3500 
L 1178 0 
L 603 0 
L 603 3500 
z
M 603 4863 
L 1178 4863 
L 1178 4134 
L 603 4134 
L 603 4863 
z
" transform="scale(0.015625)"/>
      <path id="DejaVuSans-6c" d="M 603 4863 
L 1178 4863 
L 1178 0 
L 603 0 
L 603 4863 
z
" transform="scale(0.015625)"/>
      <path id="DejaVuSans-79" d="M 2059 -325 
Q 1816 -950 1584 -1140 
Q 1353 -1331 966 -1331 
L 506 -1331 
L 506 -850 
L 844 -850 
Q 1081 -850 1212 -737 
Q 1344 -625 1503 -206 
L 1606 56 
L 191 3500 
L 800 3500 
L 1894 763 
L 2988 3500 
L 3597 3500 
L 2059 -325 
z
" transform="scale(0.015625)"/>
      <path id="DejaVuSans-20" transform="scale(0.015625)"/>
      <path id="DejaVuSans-43" d="M 4122 4306 
L 4122 3641 
Q 3803 3938 3442 4084 
Q 3081 4231 2675 4231 
Q 1875 4231 1450 3742 
Q 1025 3253 1025 2328 
Q 1025 1406 1450 917 
Q 1875 428 2675 428 
Q 3081 428 3442 575 
Q 3803 722 4122 1019 
L 4122 359 
Q 3791 134 3420 21 
Q 3050 -91 2638 -91 
Q 1578 -91 968 557 
Q 359 1206 359 2328 
Q 359 3453 968 4101 
Q 1578 4750 2638 4750 
Q 3056 4750 3426 4639 
Q 3797 4528 4122 4306 
z
" transform="scale(0.015625)"/>
      <path id="DejaVuSans-6f" d="M 1959 3097 
Q 1497 3097 1228 2736 
Q 959 2375 959 1747 
Q 959 1119 1226 758 
Q 1494 397 1959 397 
Q 2419 397 2687 759 
Q 2956 1122 2956 1747 
Q 2956 2369 2687 2733 
Q 2419 3097 1959 3097 
z
M 1959 3584 
Q 2709 3584 3137 3096 
Q 3566 2609 3566 1747 
Q 3566 888 3137 398 
Q 2709 -91 1959 -91 
Q 1206 -91 779 398 
Q 353 888 353 1747 
Q 353 2609 779 3096 
Q 1206 3584 1959 3584 
z
" transform="scale(0.015625)"/>
      <path id="DejaVuSans-6e" d="M 3513 2113 
L 3513 0 
L 2938 0 
L 2938 2094 
Q 2938 2591 2744 2837 
Q 2550 3084 2163 3084 
Q 1697 3084 1428 2787 
Q 1159 2491 1159 1978 
L 1159 0 
L 581 0 
L 581 3500 
L 1159 3500 
L 1159 2956 
Q 1366 3272 1645 3428 
Q 1925 3584 2291 3584 
Q 2894 3584 3203 3211 
Q 3513 2838 3513 2113 
z
" transform="scale(0.015625)"/>
      <path id="DejaVuSans-66" d="M 2375 4863 
L 2375 4384 
L 1825 4384 
Q 1516 4384 1395 4259 
Q 1275 4134 1275 3809 
L 1275 3500 
L 2222 3500 
L 2222 3053 
L 1275 3053 
L 1275 0 
L 697 0 
L 697 3053 
L 147 3053 
L 147 3500 
L 697 3500 
L 697 3744 
Q 697 4328 969 4595 
Q 1241 4863 1831 4863 
L 2375 4863 
z
" transform="scale(0.015625)"/>
      <path id="DejaVuSans-72" d="M 2631 2963 
Q 2534 3019 2420 3045 
Q 2306 3072 2169 3072 
Q 1681 3072 1420 2755 
Q 1159 2438 1159 1844 
L 1159 0 
L 581 0 
L 581 3500 
L 1159 3500 
L 1159 2956 
Q 1341 3275 1631 3429 
Q 1922 3584 2338 3584 
Q 2397 3584 2469 3576 
Q 2541 3569 2628 3553 
L 2631 2963 
z
" transform="scale(0.015625)"/>
      <path id="DejaVuSans-6d" d="M 3328 2828 
Q 3544 3216 3844 3400 
Q 4144 3584 4550 3584 
Q 5097 3584 5394 3201 
Q 5691 2819 5691 2113 
L 5691 0 
L 5113 0 
L 5113 2094 
Q 5113 2597 4934 2840 
Q 4756 3084 4391 3084 
Q 3944 3084 3684 2787 
Q 3425 2491 3425 1978 
L 3425 0 
L 2847 0 
L 2847 2094 
Q 2847 2600 2669 2842 
Q 2491 3084 2119 3084 
Q 1678 3084 1418 2786 
Q 1159 2488 1159 1978 
L 1159 0 
L 581 0 
L 581 3500 
L 1159 3500 
L 1159 2956 
Q 1356 3278 1631 3431 
Q 1906 3584 2284 3584 
Q 2666 3584 2933 3390 
Q 3200 3197 3328 2828 
z
" transform="scale(0.015625)"/>
      <path id="DejaVuSans-65" d="M 3597 1894 
L 3597 1613 
L 953 1613 
Q 991 1019 1311 708 
Q 1631 397 2203 397 
Q 2534 397 2845 478 
Q 3156 559 3463 722 
L 3463 178 
Q 3153 47 2828 -22 
Q 2503 -91 2169 -91 
Q 1331 -91 842 396 
Q 353 884 353 1716 
Q 353 2575 817 3079 
Q 1281 3584 2069 3584 
Q 2775 3584 3186 3129 
Q 3597 2675 3597 1894 
z
M 3022 2063 
Q 3016 2534 2758 2815 
Q 2500 3097 2075 3097 
Q 1594 3097 1305 2825 
Q 1016 2553 972 2059 
L 3022 2063 
z
" transform="scale(0.015625)"/>
      <path id="DejaVuSans-64" d="M 2906 2969 
L 2906 4863 
L 3481 4863 
L 3481 0 
L 2906 0 
L 2906 525 
Q 2725 213 2448 61 
Q 2172 -91 1784 -91 
Q 1150 -91 751 415 
Q 353 922 353 1747 
Q 353 2572 751 3078 
Q 1150 3584 1784 3584 
Q 2172 3584 2448 3432 
Q 2725 3281 2906 2969 
z
M 947 1747 
Q 947 1113 1208 752 
Q 1469 391 1925 391 
Q 2381 391 2643 752 
Q 2906 1113 2906 1747 
Q 2906 2381 2643 2742 
Q 2381 3103 1925 3103 
Q 1469 3103 1208 2742 
Q 947 2381 947 1747 
z
" transform="scale(0.015625)"/>
      <path id="DejaVuSans-73" d="M 2834 3397 
L 2834 2853 
Q 2591 2978 2328 3040 
Q 2066 3103 1784 3103 
Q 1356 3103 1142 2972 
Q 928 2841 928 2578 
Q 928 2378 1081 2264 
Q 1234 2150 1697 2047 
L 1894 2003 
Q 2506 1872 2764 1633 
Q 3022 1394 3022 966 
Q 3022 478 2636 193 
Q 2250 -91 1575 -91 
Q 1294 -91 989 -36 
Q 684 19 347 128 
L 347 722 
Q 666 556 975 473 
Q 1284 391 1588 391 
Q 1994 391 2212 530 
Q 2431 669 2431 922 
Q 2431 1156 2273 1281 
Q 2116 1406 1581 1522 
L 1381 1569 
Q 847 1681 609 1914 
Q 372 2147 372 2553 
Q 372 3047 722 3315 
Q 1072 3584 1716 3584 
Q 2034 3584 2315 3537 
Q 2597 3491 2834 3397 
z
" transform="scale(0.015625)"/>
      <path id="DejaVuSans-46" d="M 628 4666 
L 3309 4666 
L 3309 4134 
L 1259 4134 
L 1259 2759 
L 3109 2759 
L 3109 2228 
L 1259 2228 
L 1259 0 
L 628 0 
L 628 4666 
z
" transform="scale(0.015625)"/>
      <path id="DejaVuSans-63" d="M 3122 3366 
L 3122 2828 
Q 2878 2963 2633 3030 
Q 2388 3097 2138 3097 
Q 1578 3097 1268 2742 
Q 959 2388 959 1747 
Q 959 1106 1268 751 
Q 1578 397 2138 397 
Q 2388 397 2633 464 
Q 2878 531 3122 666 
L 3122 134 
Q 2881 22 2623 -34 
Q 2366 -91 2075 -91 
Q 1284 -91 818 406 
Q 353 903 353 1747 
Q 353 2603 823 3093 
Q 1294 3584 2113 3584 
Q 2378 3584 2631 3529 
Q 2884 3475 3122 3366 
z
" transform="scale(0.015625)"/>
      <path id="DejaVuSans-74" d="M 1172 4494 
L 1172 3500 
L 2356 3500 
L 2356 3053 
L 1172 3053 
L 1172 1153 
Q 1172 725 1289 603 
Q 1406 481 1766 481 
L 2356 481 
L 2356 0 
L 1766 0 
Q 1100 0 847 248 
Q 594 497 594 1153 
L 594 3053 
L 172 3053 
L 172 3500 
L 594 3500 
L 594 4494 
L 1172 4494 
z
" transform="scale(0.015625)"/>
      <path id="DejaVuSans-67" d="M 2906 1791 
Q 2906 2416 2648 2759 
Q 2391 3103 1925 3103 
Q 1463 3103 1205 2759 
Q 947 2416 947 1791 
Q 947 1169 1205 825 
Q 1463 481 1925 481 
Q 2391 481 2648 825 
Q 2906 1169 2906 1791 
z
M 3481 434 
Q 3481 -459 3084 -895 
Q 2688 -1331 1869 -1331 
Q 1566 -1331 1297 -1286 
Q 1028 -1241 775 -1147 
L 775 -588 
Q 1028 -725 1275 -790 
Q 1522 -856 1778 -856 
Q 2344 -856 2625 -561 
Q 2906 -266 2906 331 
L 2906 616 
Q 2728 306 2450 153 
Q 2172 0 1784 0 
Q 1141 0 747 490 
Q 353 981 353 1791 
Q 353 2603 747 3093 
Q 1141 3584 1784 3584 
Q 2172 3584 2450 3431 
Q 2728 3278 2906 2969 
L 2906 3500 
L 3481 3500 
L 3481 434 
z
" transform="scale(0.015625)"/>
      <path id="DejaVuSans-75" d="M 544 1381 
L 544 3500 
L 1119 3500 
L 1119 1403 
Q 1119 906 1312 657 
Q 1506 409 1894 409 
Q 2359 409 2629 706 
Q 2900 1003 2900 1516 
L 2900 3500 
L 3475 3500 
L 3475 0 
L 2900 0 
L 2900 538 
Q 2691 219 2414 64 
Q 2138 -91 1772 -91 
Q 1169 -91 856 284 
Q 544 659 544 1381 
z
M 1991 3584 
L 1991 3584 
z
" transform="scale(0.015625)"/>
     </defs>
     <use xlink:href="#DejaVuSans-44"/>
     <use xlink:href="#DejaVuSans-61" x="77.001953"/>
     <use xlink:href="#DejaVuSans-69" x="138.28125"/>
     <use xlink:href="#DejaVuSans-6c" x="166.064453"/>
     <use xlink:href="#DejaVuSans-79" x="193.847656"/>
     <use xlink:href="#DejaVuSans-20" x="253.027344"/>
     <use xlink:href="#DejaVuSans-43" x="284.814453"/>
     <use xlink:href="#DejaVuSans-6f" x="354.638672"/>
     <use xlink:href="#DejaVuSans-6e" x="415.820312"/>
     <use xlink:href="#DejaVuSans-66" x="479.199219"/>
     <use xlink:href="#DejaVuSans-69" x="514.404297"/>
     <use xlink:href="#DejaVuSans-72" x="542.1875"/>
     <use xlink:href="#DejaVuSans-6d" x="581.550781"/>
     <use xlink:href="#DejaVuSans-65" x="678.962891"/>
     <use xlink:href="#DejaVuSans-64" x="740.486328"/>
     <use xlink:href="#DejaVuSans-20" x="803.962891"/>
     <use xlink:href="#DejaVuSans-43" x="835.75"/>
     <use xlink:href="#DejaVuSans-61" x="905.574219"/>
     <use xlink:href="#DejaVuSans-73" x="966.853516"/>
     <use xlink:href="#DejaVuSans-65" x="1018.953125"/>
     <use xlink:href="#DejaVuSans-73" x="1080.476562"/>
     <use xlink:href="#DejaVuSans-20" x="1132.576172"/>
     <use xlink:href="#DejaVuSans-46" x="1164.363281"/>
     <use xlink:href="#DejaVuSans-6f" x="1218.257812"/>
     <use xlink:href="#DejaVuSans-72" x="1279.439453"/>
     <use xlink:href="#DejaVuSans-65" x="1318.302734"/>
     <use xlink:href="#DejaVuSans-63" x="1379.826172"/>
     <use xlink:href="#DejaVuSans-61" x="1434.806641"/>
     <use xlink:href="#DejaVuSans-73" x="1496.085938"/>
     <use xlink:href="#DejaVuSans-74" x="1548.185547"/>
     <use xlink:href="#DejaVuSans-69" x="1587.394531"/>
     <use xlink:href="#DejaVuSans-6e" x="1615.177734"/>
     <use xlink:href="#DejaVuSans-67" x="1678.556641"/>
     <use xlink:href="#DejaVuSans-20" x="1742.033203"/>
     <use xlink:href="#DejaVuSans-2d" x="1773.820312"/>
     <use xlink:href="#DejaVuSans-20" x="1809.904297"/>
     <use xlink:href="#DejaVuSans-43" x="1841.691406"/>
     <use xlink:href="#DejaVuSans-6f" x="1911.515625"/>
     <use xlink:href="#DejaVuSans-6e" x="1972.697266"/>
     <use xlink:href="#DejaVuSans-6e" x="2036.076172"/>
     <use xlink:href="#DejaVuSans-65" x="2099.455078"/>
     <use xlink:href="#DejaVuSans-63" x="2160.978516"/>
     <use xlink:href="#DejaVuSans-74" x="2215.958984"/>
     <use xlink:href="#DejaVuSans-69" x="2255.167969"/>
     <use xlink:href="#DejaVuSans-63" x="2282.951172"/>
     <use xlink:href="#DejaVuSans-75" x="2337.931641"/>
     <use xlink:href="#DejaVuSans-74" x="2401.310547"/>
    </g>
    <!-- ARIMA (4, 1, 1)x(1, 0, 0, 7) (R2 = -0.811340) -->
    <g transform="translate(581.46375 29.7555)scale(0.12 -0.12)">
     <defs>
      <path id="DejaVuSans-41" d="M 2188 4044 
L 1331 1722 
L 3047 1722 
L 2188 4044 
z
M 1831 4666 
L 2547 4666 
L 4325 0 
L 3669 0 
L 3244 1197 
L 1141 1197 
L 716 0 
L 50 0 
L 1831 4666 
z
" transform="scale(0.015625)"/>
      <path id="DejaVuSans-52" d="M 2841 2188 
Q 3044 2119 3236 1894 
Q 3428 1669 3622 1275 
L 4263 0 
L 3584 0 
L 2988 1197 
Q 2756 1666 2539 1819 
Q 2322 1972 1947 1972 
L 1259 1972 
L 1259 0 
L 628 0 
L 628 4666 
L 2053 4666 
Q 2853 4666 3247 4331 
Q 3641 3997 3641 3322 
Q 3641 2881 3436 2590 
Q 3231 2300 2841 2188 
z
M 1259 4147 
L 1259 2491 
L 2053 2491 
Q 2509 2491 2742 2702 
Q 2975 2913 2975 3322 
Q 2975 3731 2742 3939 
Q 2509 4147 2053 4147 
L 1259 4147 
z
" transform="scale(0.015625)"/>
      <path id="DejaVuSans-49" d="M 628 4666 
L 1259 4666 
L 1259 0 
L 628 0 
L 628 4666 
z
" transform="scale(0.015625)"/>
      <path id="DejaVuSans-4d" d="M 628 4666 
L 1569 4666 
L 2759 1491 
L 3956 4666 
L 4897 4666 
L 4897 0 
L 4281 0 
L 4281 4097 
L 3078 897 
L 2444 897 
L 1241 4097 
L 1241 0 
L 628 0 
L 628 4666 
z
" transform="scale(0.015625)"/>
      <path id="DejaVuSans-28" d="M 1984 4856 
Q 1566 4138 1362 3434 
Q 1159 2731 1159 2009 
Q 1159 1288 1364 580 
Q 1569 -128 1984 -844 
L 1484 -844 
Q 1016 -109 783 600 
Q 550 1309 550 2009 
Q 550 2706 781 3412 
Q 1013 4119 1484 4856 
L 1984 4856 
z
" transform="scale(0.015625)"/>
      <path id="DejaVuSans-2c" d="M 750 794 
L 1409 794 
L 1409 256 
L 897 -744 
L 494 -744 
L 750 256 
L 750 794 
z
" transform="scale(0.015625)"/>
      <path id="DejaVuSans-29" d="M 513 4856 
L 1013 4856 
Q 1481 4119 1714 3412 
Q 1947 2706 1947 2009 
Q 1947 1309 1714 600 
Q 1481 -109 1013 -844 
L 513 -844 
Q 928 -128 1133 580 
Q 1338 1288 1338 2009 
Q 1338 2731 1133 3434 
Q 928 4138 513 4856 
z
" transform="scale(0.015625)"/>
      <path id="DejaVuSans-78" d="M 3513 3500 
L 2247 1797 
L 3578 0 
L 2900 0 
L 1881 1375 
L 863 0 
L 184 0 
L 1544 1831 
L 300 3500 
L 978 3500 
L 1906 2253 
L 2834 3500 
L 3513 3500 
z
" transform="scale(0.015625)"/>
      <path id="DejaVuSans-3d" d="M 678 2906 
L 4684 2906 
L 4684 2381 
L 678 2381 
L 678 2906 
z
M 678 1631 
L 4684 1631 
L 4684 1100 
L 678 1100 
L 678 1631 
z
" transform="scale(0.015625)"/>
      <path id="DejaVuSans-2e" d="M 684 794 
L 1344 794 
L 1344 0 
L 684 0 
L 684 794 
z
" transform="scale(0.015625)"/>
      <path id="DejaVuSans-38" d="M 2034 2216 
Q 1584 2216 1326 1975 
Q 1069 1734 1069 1313 
Q 1069 891 1326 650 
Q 1584 409 2034 409 
Q 2484 409 2743 651 
Q 3003 894 3003 1313 
Q 3003 1734 2745 1975 
Q 2488 2216 2034 2216 
z
M 1403 2484 
Q 997 2584 770 2862 
Q 544 3141 544 3541 
Q 544 4100 942 4425 
Q 1341 4750 2034 4750 
Q 2731 4750 3128 4425 
Q 3525 4100 3525 3541 
Q 3525 3141 3298 2862 
Q 3072 2584 2669 2484 
Q 3125 2378 3379 2068 
Q 3634 1759 3634 1313 
Q 3634 634 3220 271 
Q 2806 -91 2034 -91 
Q 1263 -91 848 271 
Q 434 634 434 1313 
Q 434 1759 690 2068 
Q 947 2378 1403 2484 
z
M 1172 3481 
Q 1172 3119 1398 2916 
Q 1625 2713 2034 2713 
Q 2441 2713 2670 2916 
Q 2900 3119 2900 3481 
Q 2900 3844 2670 4047 
Q 2441 4250 2034 4250 
Q 1625 4250 1398 4047 
Q 1172 3844 1172 3481 
z
" transform="scale(0.015625)"/>
     </defs>
     <use xlink:href="#DejaVuSans-41"/>
     <use xlink:href="#DejaVuSans-52" x="68.408203"/>
     <use xlink:href="#DejaVuSans-49" x="137.890625"/>
     <use xlink:href="#DejaVuSans-4d" x="167.382812"/>
     <use xlink:href="#DejaVuSans-41" x="253.662109"/>
     <use xlink:href="#DejaVuSans-20" x="322.070312"/>
     <use xlink:href="#DejaVuSans-28" x="353.857422"/>
     <use xlink:href="#DejaVuSans-34" x="392.871094"/>
     <use xlink:href="#DejaVuSans-2c" x="456.494141"/>
     <use xlink:href="#DejaVuSans-20" x="488.28125"/>
     <use xlink:href="#DejaVuSans-31" x="520.068359"/>
     <use xlink:href="#DejaVuSans-2c" x="583.691406"/>
     <use xlink:href="#DejaVuSans-20" x="615.478516"/>
     <use xlink:href="#DejaVuSans-31" x="647.265625"/>
     <use xlink:href="#DejaVuSans-29" x="710.888672"/>
     <use xlink:href="#DejaVuSans-78" x="749.902344"/>
     <use xlink:href="#DejaVuSans-28" x="809.082031"/>
     <use xlink:href="#DejaVuSans-31" x="848.095703"/>
     <use xlink:href="#DejaVuSans-2c" x="911.71875"/>
     <use xlink:href="#DejaVuSans-20" x="943.505859"/>
     <use xlink:href="#DejaVuSans-30" x="975.292969"/>
     <use xlink:href="#DejaVuSans-2c" x="1038.916016"/>
     <use xlink:href="#DejaVuSans-20" x="1070.703125"/>
     <use xlink:href="#DejaVuSans-30" x="1102.490234"/>
     <use xlink:href="#DejaVuSans-2c" x="1166.113281"/>
     <use xlink:href="#DejaVuSans-20" x="1197.900391"/>
     <use xlink:href="#DejaVuSans-37" x="1229.6875"/>
     <use xlink:href="#DejaVuSans-29" x="1293.310547"/>
     <use xlink:href="#DejaVuSans-20" x="1332.324219"/>
     <use xlink:href="#DejaVuSans-28" x="1364.111328"/>
     <use xlink:href="#DejaVuSans-52" x="1403.125"/>
     <use xlink:href="#DejaVuSans-32" x="1472.607422"/>
     <use xlink:href="#DejaVuSans-20" x="1536.230469"/>
     <use xlink:href="#DejaVuSans-3d" x="1568.017578"/>
     <use xlink:href="#DejaVuSans-20" x="1651.806641"/>
     <use xlink:href="#DejaVuSans-2d" x="1683.59375"/>
     <use xlink:href="#DejaVuSans-30" x="1719.677734"/>
     <use xlink:href="#DejaVuSans-2e" x="1783.300781"/>
     <use xlink:href="#DejaVuSans-38" x="1815.087891"/>
     <use xlink:href="#DejaVuSans-31" x="1878.710938"/>
     <use xlink:href="#DejaVuSans-31" x="1942.333984"/>
     <use xlink:href="#DejaVuSans-33" x="2005.957031"/>
     <use xlink:href="#DejaVuSans-34" x="2069.580078"/>
     <use xlink:href="#DejaVuSans-30" x="2133.203125"/>
     <use xlink:href="#DejaVuSans-29" x="2196.826172"/>
    </g>
   </g>
   <g id="legend_1">
    <g id="patch_7">
     <path d="M 1281.132812 87.789875 
L 1378.2125 87.789875 
Q 1380.2125 87.789875 1380.2125 85.789875 
L 1380.2125 42.7555 
Q 1380.2125 40.7555 1378.2125 40.7555 
L 1281.132812 40.7555 
Q 1279.132812 40.7555 1279.132812 42.7555 
L 1279.132812 85.789875 
Q 1279.132812 87.789875 1281.132812 87.789875 
z
" style="fill: #ffffff; opacity: 0.8; stroke: #cccccc; stroke-linejoin: miter"/>
    </g>
    <g id="line2d_22">
     <path d="M 1283.132812 48.853937 
L 1293.132812 48.853937 
L 1303.132812 48.853937 
" style="fill: none; stroke: #0000ff; stroke-width: 1.5; stroke-linecap: square"/>
    </g>
    <g id="text_20">
     <!-- Actual Value -->
     <g transform="translate(1311.132812 52.353937)scale(0.1 -0.1)">
      <defs>
       <path id="DejaVuSans-56" d="M 1831 0 
L 50 4666 
L 709 4666 
L 2188 738 
L 3669 4666 
L 4325 4666 
L 2547 0 
L 1831 0 
z
" transform="scale(0.015625)"/>
      </defs>
      <use xlink:href="#DejaVuSans-41"/>
      <use xlink:href="#DejaVuSans-63" x="66.658203"/>
      <use xlink:href="#DejaVuSans-74" x="121.638672"/>
      <use xlink:href="#DejaVuSans-75" x="160.847656"/>
      <use xlink:href="#DejaVuSans-61" x="224.226562"/>
      <use xlink:href="#DejaVuSans-6c" x="285.505859"/>
      <use xlink:href="#DejaVuSans-20" x="313.289062"/>
      <use xlink:href="#DejaVuSans-56" x="345.076172"/>
      <use xlink:href="#DejaVuSans-61" x="405.734375"/>
      <use xlink:href="#DejaVuSans-6c" x="467.013672"/>
      <use xlink:href="#DejaVuSans-75" x="494.796875"/>
      <use xlink:href="#DejaVuSans-65" x="558.175781"/>
     </g>
    </g>
    <g id="line2d_23">
     <path d="M 1283.132812 63.532062 
L 1293.132812 63.532062 
L 1303.132812 63.532062 
" style="fill: none; stroke: #ffa500; stroke-width: 1.5; stroke-linecap: square"/>
    </g>
    <g id="text_21">
     <!-- Check Value -->
     <g transform="translate(1311.132812 67.032062)scale(0.1 -0.1)">
      <defs>
       <path id="DejaVuSans-68" d="M 3513 2113 
L 3513 0 
L 2938 0 
L 2938 2094 
Q 2938 2591 2744 2837 
Q 2550 3084 2163 3084 
Q 1697 3084 1428 2787 
Q 1159 2491 1159 1978 
L 1159 0 
L 581 0 
L 581 4863 
L 1159 4863 
L 1159 2956 
Q 1366 3272 1645 3428 
Q 1925 3584 2291 3584 
Q 2894 3584 3203 3211 
Q 3513 2838 3513 2113 
z
" transform="scale(0.015625)"/>
       <path id="DejaVuSans-6b" d="M 581 4863 
L 1159 4863 
L 1159 1991 
L 2875 3500 
L 3609 3500 
L 1753 1863 
L 3688 0 
L 2938 0 
L 1159 1709 
L 1159 0 
L 581 0 
L 581 4863 
z
" transform="scale(0.015625)"/>
      </defs>
      <use xlink:href="#DejaVuSans-43"/>
      <use xlink:href="#DejaVuSans-68" x="69.824219"/>
      <use xlink:href="#DejaVuSans-65" x="133.203125"/>
      <use xlink:href="#DejaVuSans-63" x="194.726562"/>
      <use xlink:href="#DejaVuSans-6b" x="249.707031"/>
      <use xlink:href="#DejaVuSans-20" x="307.617188"/>
      <use xlink:href="#DejaVuSans-56" x="339.404297"/>
      <use xlink:href="#DejaVuSans-61" x="400.0625"/>
      <use xlink:href="#DejaVuSans-6c" x="461.341797"/>
      <use xlink:href="#DejaVuSans-75" x="489.125"/>
      <use xlink:href="#DejaVuSans-65" x="552.503906"/>
     </g>
    </g>
    <g id="line2d_24">
     <path d="M 1283.132812 78.210187 
L 1293.132812 78.210187 
L 1303.132812 78.210187 
" style="fill: none; stroke: #ff0000; stroke-width: 1.5; stroke-linecap: square"/>
    </g>
    <g id="text_22">
     <!-- Predict Value -->
     <g transform="translate(1311.132812 81.710187)scale(0.1 -0.1)">
      <defs>
       <path id="DejaVuSans-50" d="M 1259 4147 
L 1259 2394 
L 2053 2394 
Q 2494 2394 2734 2622 
Q 2975 2850 2975 3272 
Q 2975 3691 2734 3919 
Q 2494 4147 2053 4147 
L 1259 4147 
z
M 628 4666 
L 2053 4666 
Q 2838 4666 3239 4311 
Q 3641 3956 3641 3272 
Q 3641 2581 3239 2228 
Q 2838 1875 2053 1875 
L 1259 1875 
L 1259 0 
L 628 0 
L 628 4666 
z
" transform="scale(0.015625)"/>
      </defs>
      <use xlink:href="#DejaVuSans-50"/>
      <use xlink:href="#DejaVuSans-72" x="58.552734"/>
      <use xlink:href="#DejaVuSans-65" x="97.416016"/>
      <use xlink:href="#DejaVuSans-64" x="158.939453"/>
      <use xlink:href="#DejaVuSans-69" x="222.416016"/>
      <use xlink:href="#DejaVuSans-63" x="250.199219"/>
      <use xlink:href="#DejaVuSans-74" x="305.179688"/>
      <use xlink:href="#DejaVuSans-20" x="344.388672"/>
      <use xlink:href="#DejaVuSans-56" x="376.175781"/>
      <use xlink:href="#DejaVuSans-61" x="436.833984"/>
      <use xlink:href="#DejaVuSans-6c" x="498.113281"/>
      <use xlink:href="#DejaVuSans-75" x="525.896484"/>
      <use xlink:href="#DejaVuSans-65" x="589.275391"/>
     </g>
    </g>
   </g>
  </g>
 </g>
 <defs>
  <clipPath id="pf2d524e6b0">
   <rect x="46.0125" y="35.7555" width="1339.2" height="332.64"/>
  </clipPath>
 </defs>
</svg>
