<?xml version="1.0" encoding="utf-8" standalone="no"?>
<!DOCTYPE svg PUBLIC "-//W3C//DTD SVG 1.1//EN"
  "http://www.w3.org/Graphics/SVG/1.1/DTD/svg11.dtd">
<svg xmlns:xlink="http://www.w3.org/1999/xlink" width="1398.775pt" height="392.273625pt" viewBox="0 0 1398.775 392.273625" xmlns="http://www.w3.org/2000/svg" version="1.1">
 <metadata>
  <rdf:RDF xmlns:dc="http://purl.org/dc/elements/1.1/" xmlns:cc="http://creativecommons.org/ns#" xmlns:rdf="http://www.w3.org/1999/02/22-rdf-syntax-ns#">
   <cc:Work>
    <dc:type rdf:resource="http://purl.org/dc/dcmitype/StillImage"/>
    <dc:date>2022-07-04T17:30:15.514433</dc:date>
    <dc:format>image/svg+xml</dc:format>
    <dc:creator>
     <cc:Agent>
      <dc:title>Matplotlib v3.5.2, https://matplotlib.org/</dc:title>
     </cc:Agent>
    </dc:creator>
   </cc:Work>
  </rdf:RDF>
 </metadata>
 <defs>
  <style type="text/css">*{stroke-linejoin: round; stroke-linecap: butt}</style>
 </defs>
 <g id="figure_1">
  <g id="patch_1">
   <path d="M 0 392.273625 
L 1398.775 392.273625 
L 1398.775 0 
L 0 0 
z
" style="fill: #ffffff"/>
  </g>
  <g id="axes_1">
   <g id="patch_2">
    <path d="M 52.375 368.3955 
L 1391.575 368.3955 
L 1391.575 35.7555 
L 52.375 35.7555 
z
" style="fill: #ffffff"/>
   </g>
   <g id="matplotlib.axis_1">
    <g id="xtick_1">
     <g id="line2d_1">
      <defs>
       <path id="mb3da9da93d" d="M 0 0 
L 0 3.5 
" style="stroke: #000000; stroke-width: 0.8"/>
      </defs>
      <g>
       <use xlink:href="#mb3da9da93d" x="85.028582" y="368.3955" style="stroke: #000000; stroke-width: 0.8"/>
      </g>
     </g>
     <g id="text_1">
      <!-- 2020-01 -->
      <g transform="translate(64.137176 382.993937)scale(0.1 -0.1)">
       <defs>
        <path id="DejaVuSans-32" d="M 1228 531 
L 3431 531 
L 3431 0 
L 469 0 
L 469 531 
Q 828 903 1448 1529 
Q 2069 2156 2228 2338 
Q 2531 2678 2651 2914 
Q 2772 3150 2772 3378 
Q 2772 3750 2511 3984 
Q 2250 4219 1831 4219 
Q 1534 4219 1204 4116 
Q 875 4013 500 3803 
L 500 4441 
Q 881 4594 1212 4672 
Q 1544 4750 1819 4750 
Q 2544 4750 2975 4387 
Q 3406 4025 3406 3419 
Q 3406 3131 3298 2873 
Q 3191 2616 2906 2266 
Q 2828 2175 2409 1742 
Q 1991 1309 1228 531 
z
" transform="scale(0.015625)"/>
        <path id="DejaVuSans-30" d="M 2034 4250 
Q 1547 4250 1301 3770 
Q 1056 3291 1056 2328 
Q 1056 1369 1301 889 
Q 1547 409 2034 409 
Q 2525 409 2770 889 
Q 3016 1369 3016 2328 
Q 3016 3291 2770 3770 
Q 2525 4250 2034 4250 
z
M 2034 4750 
Q 2819 4750 3233 4129 
Q 3647 3509 3647 2328 
Q 3647 1150 3233 529 
Q 2819 -91 2034 -91 
Q 1250 -91 836 529 
Q 422 1150 422 2328 
Q 422 3509 836 4129 
Q 1250 4750 2034 4750 
z
" transform="scale(0.015625)"/>
        <path id="DejaVuSans-2d" d="M 313 2009 
L 1997 2009 
L 1997 1497 
L 313 1497 
L 313 2009 
z
" transform="scale(0.015625)"/>
        <path id="DejaVuSans-31" d="M 794 531 
L 1825 531 
L 1825 4091 
L 703 3866 
L 703 4441 
L 1819 4666 
L 2450 4666 
L 2450 531 
L 3481 531 
L 3481 0 
L 794 0 
L 794 531 
z
" transform="scale(0.015625)"/>
       </defs>
       <use xlink:href="#DejaVuSans-32"/>
       <use xlink:href="#DejaVuSans-30" x="63.623047"/>
       <use xlink:href="#DejaVuSans-32" x="127.246094"/>
       <use xlink:href="#DejaVuSans-30" x="190.869141"/>
       <use xlink:href="#DejaVuSans-2d" x="254.492188"/>
       <use xlink:href="#DejaVuSans-30" x="290.576172"/>
       <use xlink:href="#DejaVuSans-31" x="354.199219"/>
      </g>
     </g>
    </g>
    <g id="xtick_2">
     <g id="line2d_2">
      <g>
       <use xlink:href="#mb3da9da93d" x="207.311544" y="368.3955" style="stroke: #000000; stroke-width: 0.8"/>
      </g>
     </g>
     <g id="text_2">
      <!-- 2020-04 -->
      <g transform="translate(186.420138 382.993937)scale(0.1 -0.1)">
       <defs>
        <path id="DejaVuSans-34" d="M 2419 4116 
L 825 1625 
L 2419 1625 
L 2419 4116 
z
M 2253 4666 
L 3047 4666 
L 3047 1625 
L 3713 1625 
L 3713 1100 
L 3047 1100 
L 3047 0 
L 2419 0 
L 2419 1100 
L 313 1100 
L 313 1709 
L 2253 4666 
z
" transform="scale(0.015625)"/>
       </defs>
       <use xlink:href="#DejaVuSans-32"/>
       <use xlink:href="#DejaVuSans-30" x="63.623047"/>
       <use xlink:href="#DejaVuSans-32" x="127.246094"/>
       <use xlink:href="#DejaVuSans-30" x="190.869141"/>
       <use xlink:href="#DejaVuSans-2d" x="254.492188"/>
       <use xlink:href="#DejaVuSans-30" x="290.576172"/>
       <use xlink:href="#DejaVuSans-34" x="354.199219"/>
      </g>
     </g>
    </g>
    <g id="xtick_3">
     <g id="line2d_3">
      <g>
       <use xlink:href="#mb3da9da93d" x="329.594506" y="368.3955" style="stroke: #000000; stroke-width: 0.8"/>
      </g>
     </g>
     <g id="text_3">
      <!-- 2020-07 -->
      <g transform="translate(308.7031 382.993937)scale(0.1 -0.1)">
       <defs>
        <path id="DejaVuSans-37" d="M 525 4666 
L 3525 4666 
L 3525 4397 
L 1831 0 
L 1172 0 
L 2766 4134 
L 525 4134 
L 525 4666 
z
" transform="scale(0.015625)"/>
       </defs>
       <use xlink:href="#DejaVuSans-32"/>
       <use xlink:href="#DejaVuSans-30" x="63.623047"/>
       <use xlink:href="#DejaVuSans-32" x="127.246094"/>
       <use xlink:href="#DejaVuSans-30" x="190.869141"/>
       <use xlink:href="#DejaVuSans-2d" x="254.492188"/>
       <use xlink:href="#DejaVuSans-30" x="290.576172"/>
       <use xlink:href="#DejaVuSans-37" x="354.199219"/>
      </g>
     </g>
    </g>
    <g id="xtick_4">
     <g id="line2d_4">
      <g>
       <use xlink:href="#mb3da9da93d" x="453.221237" y="368.3955" style="stroke: #000000; stroke-width: 0.8"/>
      </g>
     </g>
     <g id="text_4">
      <!-- 2020-10 -->
      <g transform="translate(432.329831 382.993937)scale(0.1 -0.1)">
       <use xlink:href="#DejaVuSans-32"/>
       <use xlink:href="#DejaVuSans-30" x="63.623047"/>
       <use xlink:href="#DejaVuSans-32" x="127.246094"/>
       <use xlink:href="#DejaVuSans-30" x="190.869141"/>
       <use xlink:href="#DejaVuSans-2d" x="254.492188"/>
       <use xlink:href="#DejaVuSans-31" x="290.576172"/>
       <use xlink:href="#DejaVuSans-30" x="354.199219"/>
      </g>
     </g>
    </g>
    <g id="xtick_5">
     <g id="line2d_5">
      <g>
       <use xlink:href="#mb3da9da93d" x="576.847968" y="368.3955" style="stroke: #000000; stroke-width: 0.8"/>
      </g>
     </g>
     <g id="text_5">
      <!-- 2021-01 -->
      <g transform="translate(555.956562 382.993937)scale(0.1 -0.1)">
       <use xlink:href="#DejaVuSans-32"/>
       <use xlink:href="#DejaVuSans-30" x="63.623047"/>
       <use xlink:href="#DejaVuSans-32" x="127.246094"/>
       <use xlink:href="#DejaVuSans-31" x="190.869141"/>
       <use xlink:href="#DejaVuSans-2d" x="254.492188"/>
       <use xlink:href="#DejaVuSans-30" x="290.576172"/>
       <use xlink:href="#DejaVuSans-31" x="354.199219"/>
      </g>
     </g>
    </g>
    <g id="xtick_6">
     <g id="line2d_6">
      <g>
       <use xlink:href="#mb3da9da93d" x="697.787161" y="368.3955" style="stroke: #000000; stroke-width: 0.8"/>
      </g>
     </g>
     <g id="text_6">
      <!-- 2021-04 -->
      <g transform="translate(676.895755 382.993937)scale(0.1 -0.1)">
       <use xlink:href="#DejaVuSans-32"/>
       <use xlink:href="#DejaVuSans-30" x="63.623047"/>
       <use xlink:href="#DejaVuSans-32" x="127.246094"/>
       <use xlink:href="#DejaVuSans-31" x="190.869141"/>
       <use xlink:href="#DejaVuSans-2d" x="254.492188"/>
       <use xlink:href="#DejaVuSans-30" x="290.576172"/>
       <use xlink:href="#DejaVuSans-34" x="354.199219"/>
      </g>
     </g>
    </g>
    <g id="xtick_7">
     <g id="line2d_7">
      <g>
       <use xlink:href="#mb3da9da93d" x="820.070123" y="368.3955" style="stroke: #000000; stroke-width: 0.8"/>
      </g>
     </g>
     <g id="text_7">
      <!-- 2021-07 -->
      <g transform="translate(799.178717 382.993937)scale(0.1 -0.1)">
       <use xlink:href="#DejaVuSans-32"/>
       <use xlink:href="#DejaVuSans-30" x="63.623047"/>
       <use xlink:href="#DejaVuSans-32" x="127.246094"/>
       <use xlink:href="#DejaVuSans-31" x="190.869141"/>
       <use xlink:href="#DejaVuSans-2d" x="254.492188"/>
       <use xlink:href="#DejaVuSans-30" x="290.576172"/>
       <use xlink:href="#DejaVuSans-37" x="354.199219"/>
      </g>
     </g>
    </g>
    <g id="xtick_8">
     <g id="line2d_8">
      <g>
       <use xlink:href="#mb3da9da93d" x="943.696854" y="368.3955" style="stroke: #000000; stroke-width: 0.8"/>
      </g>
     </g>
     <g id="text_8">
      <!-- 2021-10 -->
      <g transform="translate(922.805448 382.993937)scale(0.1 -0.1)">
       <use xlink:href="#DejaVuSans-32"/>
       <use xlink:href="#DejaVuSans-30" x="63.623047"/>
       <use xlink:href="#DejaVuSans-32" x="127.246094"/>
       <use xlink:href="#DejaVuSans-31" x="190.869141"/>
       <use xlink:href="#DejaVuSans-2d" x="254.492188"/>
       <use xlink:href="#DejaVuSans-31" x="290.576172"/>
       <use xlink:href="#DejaVuSans-30" x="354.199219"/>
      </g>
     </g>
    </g>
    <g id="xtick_9">
     <g id="line2d_9">
      <g>
       <use xlink:href="#mb3da9da93d" x="1067.323585" y="368.3955" style="stroke: #000000; stroke-width: 0.8"/>
      </g>
     </g>
     <g id="text_9">
      <!-- 2022-01 -->
      <g transform="translate(1046.432179 382.993937)scale(0.1 -0.1)">
       <use xlink:href="#DejaVuSans-32"/>
       <use xlink:href="#DejaVuSans-30" x="63.623047"/>
       <use xlink:href="#DejaVuSans-32" x="127.246094"/>
       <use xlink:href="#DejaVuSans-32" x="190.869141"/>
       <use xlink:href="#DejaVuSans-2d" x="254.492188"/>
       <use xlink:href="#DejaVuSans-30" x="290.576172"/>
       <use xlink:href="#DejaVuSans-31" x="354.199219"/>
      </g>
     </g>
    </g>
    <g id="xtick_10">
     <g id="line2d_10">
      <g>
       <use xlink:href="#mb3da9da93d" x="1188.262778" y="368.3955" style="stroke: #000000; stroke-width: 0.8"/>
      </g>
     </g>
     <g id="text_10">
      <!-- 2022-04 -->
      <g transform="translate(1167.371372 382.993937)scale(0.1 -0.1)">
       <use xlink:href="#DejaVuSans-32"/>
       <use xlink:href="#DejaVuSans-30" x="63.623047"/>
       <use xlink:href="#DejaVuSans-32" x="127.246094"/>
       <use xlink:href="#DejaVuSans-32" x="190.869141"/>
       <use xlink:href="#DejaVuSans-2d" x="254.492188"/>
       <use xlink:href="#DejaVuSans-30" x="290.576172"/>
       <use xlink:href="#DejaVuSans-34" x="354.199219"/>
      </g>
     </g>
    </g>
    <g id="xtick_11">
     <g id="line2d_11">
      <g>
       <use xlink:href="#mb3da9da93d" x="1310.545741" y="368.3955" style="stroke: #000000; stroke-width: 0.8"/>
      </g>
     </g>
     <g id="text_11">
      <!-- 2022-07 -->
      <g transform="translate(1289.654334 382.993937)scale(0.1 -0.1)">
       <use xlink:href="#DejaVuSans-32"/>
       <use xlink:href="#DejaVuSans-30" x="63.623047"/>
       <use xlink:href="#DejaVuSans-32" x="127.246094"/>
       <use xlink:href="#DejaVuSans-32" x="190.869141"/>
       <use xlink:href="#DejaVuSans-2d" x="254.492188"/>
       <use xlink:href="#DejaVuSans-30" x="290.576172"/>
       <use xlink:href="#DejaVuSans-37" x="354.199219"/>
      </g>
     </g>
    </g>
   </g>
   <g id="matplotlib.axis_2">
    <g id="ytick_1">
     <g id="line2d_12">
      <defs>
       <path id="m7d16a0271a" d="M 0 0 
L -3.5 0 
" style="stroke: #000000; stroke-width: 0.8"/>
      </defs>
      <g>
       <use xlink:href="#m7d16a0271a" x="52.375" y="353.2755" style="stroke: #000000; stroke-width: 0.8"/>
      </g>
     </g>
     <g id="text_12">
      <!-- 0 -->
      <g transform="translate(39.0125 357.074719)scale(0.1 -0.1)">
       <use xlink:href="#DejaVuSans-30"/>
      </g>
     </g>
    </g>
    <g id="ytick_2">
     <g id="line2d_13">
      <g>
       <use xlink:href="#m7d16a0271a" x="52.375" y="297.869006" style="stroke: #000000; stroke-width: 0.8"/>
      </g>
     </g>
     <g id="text_13">
      <!-- 50000 -->
      <g transform="translate(13.5625 301.668224)scale(0.1 -0.1)">
       <defs>
        <path id="DejaVuSans-35" d="M 691 4666 
L 3169 4666 
L 3169 4134 
L 1269 4134 
L 1269 2991 
Q 1406 3038 1543 3061 
Q 1681 3084 1819 3084 
Q 2600 3084 3056 2656 
Q 3513 2228 3513 1497 
Q 3513 744 3044 326 
Q 2575 -91 1722 -91 
Q 1428 -91 1123 -41 
Q 819 9 494 109 
L 494 744 
Q 775 591 1075 516 
Q 1375 441 1709 441 
Q 2250 441 2565 725 
Q 2881 1009 2881 1497 
Q 2881 1984 2565 2268 
Q 2250 2553 1709 2553 
Q 1456 2553 1204 2497 
Q 953 2441 691 2322 
L 691 4666 
z
" transform="scale(0.015625)"/>
       </defs>
       <use xlink:href="#DejaVuSans-35"/>
       <use xlink:href="#DejaVuSans-30" x="63.623047"/>
       <use xlink:href="#DejaVuSans-30" x="127.246094"/>
       <use xlink:href="#DejaVuSans-30" x="190.869141"/>
       <use xlink:href="#DejaVuSans-30" x="254.492188"/>
      </g>
     </g>
    </g>
    <g id="ytick_3">
     <g id="line2d_14">
      <g>
       <use xlink:href="#m7d16a0271a" x="52.375" y="242.462511" style="stroke: #000000; stroke-width: 0.8"/>
      </g>
     </g>
     <g id="text_14">
      <!-- 100000 -->
      <g transform="translate(7.2 246.26173)scale(0.1 -0.1)">
       <use xlink:href="#DejaVuSans-31"/>
       <use xlink:href="#DejaVuSans-30" x="63.623047"/>
       <use xlink:href="#DejaVuSans-30" x="127.246094"/>
       <use xlink:href="#DejaVuSans-30" x="190.869141"/>
       <use xlink:href="#DejaVuSans-30" x="254.492188"/>
       <use xlink:href="#DejaVuSans-30" x="318.115234"/>
      </g>
     </g>
    </g>
    <g id="ytick_4">
     <g id="line2d_15">
      <g>
       <use xlink:href="#m7d16a0271a" x="52.375" y="187.056017" style="stroke: #000000; stroke-width: 0.8"/>
      </g>
     </g>
     <g id="text_15">
      <!-- 150000 -->
      <g transform="translate(7.2 190.855236)scale(0.1 -0.1)">
       <use xlink:href="#DejaVuSans-31"/>
       <use xlink:href="#DejaVuSans-35" x="63.623047"/>
       <use xlink:href="#DejaVuSans-30" x="127.246094"/>
       <use xlink:href="#DejaVuSans-30" x="190.869141"/>
       <use xlink:href="#DejaVuSans-30" x="254.492188"/>
       <use xlink:href="#DejaVuSans-30" x="318.115234"/>
      </g>
     </g>
    </g>
    <g id="ytick_5">
     <g id="line2d_16">
      <g>
       <use xlink:href="#m7d16a0271a" x="52.375" y="131.649523" style="stroke: #000000; stroke-width: 0.8"/>
      </g>
     </g>
     <g id="text_16">
      <!-- 200000 -->
      <g transform="translate(7.2 135.448741)scale(0.1 -0.1)">
       <use xlink:href="#DejaVuSans-32"/>
       <use xlink:href="#DejaVuSans-30" x="63.623047"/>
       <use xlink:href="#DejaVuSans-30" x="127.246094"/>
       <use xlink:href="#DejaVuSans-30" x="190.869141"/>
       <use xlink:href="#DejaVuSans-30" x="254.492188"/>
       <use xlink:href="#DejaVuSans-30" x="318.115234"/>
      </g>
     </g>
    </g>
    <g id="ytick_6">
     <g id="line2d_17">
      <g>
       <use xlink:href="#m7d16a0271a" x="52.375" y="76.243028" style="stroke: #000000; stroke-width: 0.8"/>
      </g>
     </g>
     <g id="text_17">
      <!-- 250000 -->
      <g transform="translate(7.2 80.042247)scale(0.1 -0.1)">
       <use xlink:href="#DejaVuSans-32"/>
       <use xlink:href="#DejaVuSans-35" x="63.623047"/>
       <use xlink:href="#DejaVuSans-30" x="127.246094"/>
       <use xlink:href="#DejaVuSans-30" x="190.869141"/>
       <use xlink:href="#DejaVuSans-30" x="254.492188"/>
       <use xlink:href="#DejaVuSans-30" x="318.115234"/>
      </g>
     </g>
    </g>
   </g>
   <g id="line2d_18">
    <path d="M 113.247727 353.2755 
L 193.873856 353.176876 
L 208.655313 352.858843 
L 212.68662 352.754679 
L 243.593302 352.123045 
L 254.343453 351.885905 
L 258.374759 351.715253 
L 271.812447 351.346246 
L 278.531291 350.998293 
L 285.250135 350.808803 
L 291.96898 350.596042 
L 330.938275 349.587644 
L 336.31335 349.482371 
L 400.814253 348.470649 
L 429.033399 347.886664 
L 441.127318 347.573064 
L 461.28385 347.066648 
L 490.846764 346.110332 
L 500.253146 345.230477 
L 502.940683 344.853713 
L 504.284452 344.750657 
L 512.347065 343.53393 
L 515.034603 343.17268 
L 517.72214 342.727212 
L 528.472291 340.792417 
L 531.159828 340.76693 
L 536.534904 339.74745 
L 539.222441 339.04268 
L 544.597517 337.707383 
L 549.972592 335.966511 
L 551.316361 335.630748 
L 554.003898 334.703243 
L 558.035205 332.955722 
L 559.378974 332.511362 
L 560.722742 332.280871 
L 562.066511 331.905215 
L 563.41028 331.397692 
L 566.097818 329.754335 
L 567.441586 329.398625 
L 568.785355 329.398625 
L 570.129124 329.029618 
L 571.472893 328.543149 
L 574.16043 327.235556 
L 576.847968 325.68085 
L 580.879275 324.500691 
L 583.566812 323.256261 
L 584.910581 322.663412 
L 586.25435 321.796854 
L 587.598119 321.118679 
L 590.285656 320.462666 
L 592.973194 318.757254 
L 595.660731 316.949894 
L 598.348269 316.087769 
L 601.035807 315.308754 
L 605.067113 313.079196 
L 606.410882 312.720162 
L 607.754651 312.720162 
L 609.09842 312.22372 
L 610.442188 311.487922 
L 611.785957 310.978182 
L 614.473495 310.265655 
L 615.817264 309.872269 
L 618.504801 309.45672 
L 619.84857 308.99463 
L 625.223645 307.770146 
L 627.911183 307.377868 
L 634.630027 306.26309 
L 640.005102 305.762215 
L 642.69264 305.372153 
L 650.755253 304.387026 
L 658.817866 303.308815 
L 661.505403 302.904348 
L 665.53671 302.37577 
L 668.224247 302.012303 
L 678.974398 300.271431 
L 683.005704 299.571093 
L 689.724548 298.486234 
L 697.787161 296.995799 
L 699.13093 296.551439 
L 705.849774 294.902542 
L 707.193543 294.549049 
L 708.537312 294.063688 
L 711.224849 293.480811 
L 712.568618 293.152805 
L 717.943694 290.638458 
L 720.631231 289.796279 
L 721.975 289.508166 
L 728.693844 287.217661 
L 731.381382 286.782166 
L 732.725151 286.311211 
L 736.756457 285.443545 
L 738.100226 284.996969 
L 740.787763 284.469499 
L 743.475301 283.620672 
L 747.506607 282.631112 
L 754.225452 281.1983 
L 755.56922 280.861428 
L 762.288064 279.788758 
L 764.975602 279.357696 
L 769.006908 278.944363 
L 770.350677 278.876768 
L 774.381984 278.420218 
L 778.41329 278.158699 
L 781.100828 278.054535 
L 786.475903 277.664473 
L 791.850978 277.425117 
L 809.319973 276.948622 
L 820.070123 276.753591 
L 837.539118 276.454396 
L 853.664344 275.81168 
L 855.008113 275.621082 
L 857.69565 275.417186 
L 860.383188 275.193344 
L 863.070725 275.193344 
L 864.414494 274.910771 
L 871.133338 274.25919 
L 872.477107 274.260298 
L 873.820876 273.860264 
L 879.195951 272.911704 
L 881.883489 272.911704 
L 883.227258 272.496156 
L 888.602333 271.650653 
L 891.289871 271.650653 
L 895.321177 270.494873 
L 896.664946 270.203435 
L 898.008715 269.743561 
L 900.696252 269.743561 
L 904.727559 268.045906 
L 906.071328 267.309 
L 907.415096 266.764908 
L 911.446403 266.762692 
L 914.13394 265.2645 
L 916.821478 264.056638 
L 919.509016 264.056638 
L 923.540322 261.736214 
L 924.884091 260.943902 
L 926.22786 260.293429 
L 928.915397 260.292321 
L 932.946704 258.11817 
L 935.634241 256.655439 
L 938.321779 256.655439 
L 939.665548 255.541768 
L 943.696854 252.7382 
L 945.040623 251.917076 
L 947.728161 251.917076 
L 950.415698 249.990038 
L 951.759467 249.236509 
L 953.103236 248.725661 
L 954.447005 248.060784 
L 958.478311 248.069649 
L 961.165849 246.185828 
L 963.853387 244.983507 
L 966.540924 244.984615 
L 967.884693 244.006136 
L 970.572231 242.67638 
L 973.259768 241.39095 
L 975.947306 241.39095 
L 977.291075 240.413579 
L 982.66615 237.742986 
L 985.353688 237.742986 
L 986.697456 236.787778 
L 992.072532 233.850126 
L 994.760069 233.850126 
L 997.447607 231.833329 
L 998.791376 230.996691 
L 1000.135144 230.996691 
L 1001.478913 230.112404 
L 1004.166451 230.113512 
L 1010.885295 224.884247 
L 1013.572833 224.882031 
L 1016.26037 222.581553 
L 1017.604139 221.974298 
L 1021.635446 221.974298 
L 1022.979214 221.687292 
L 1027.010521 218.690909 
L 1029.698058 216.844765 
L 1032.385596 216.844765 
L 1033.729365 215.758797 
L 1035.073134 214.345932 
L 1036.416902 212.728062 
L 1037.760671 210.346691 
L 1039.10444 209.221939 
L 1041.791978 209.221939 
L 1045.823284 204.597713 
L 1048.510822 202.126583 
L 1051.198359 202.125475 
L 1053.885897 198.778923 
L 1056.573435 196.164845 
L 1060.604741 196.153763 
L 1063.292279 193.108622 
L 1065.979816 190.672953 
L 1070.011123 190.672953 
L 1072.69866 187.562432 
L 1076.729967 183.31497 
L 1079.417505 183.31497 
L 1080.761273 181.343607 
L 1082.105042 179.817713 
L 1084.79258 176.530999 
L 1086.136349 175.025051 
L 1088.823886 175.025051 
L 1090.167655 174.428877 
L 1092.855193 171.183164 
L 1094.198961 169.668351 
L 1095.54273 168.330838 
L 1098.230268 168.32973 
L 1102.261574 163.204629 
L 1103.605343 161.62222 
L 1104.949112 160.21157 
L 1107.63665 160.21157 
L 1108.980418 158.511699 
L 1114.355494 152.692909 
L 1117.043031 152.692909 
L 1118.3868 151.151501 
L 1122.418107 147.414887 
L 1123.761875 145.282845 
L 1126.449413 145.282845 
L 1127.793182 133.128876 
L 1130.480719 124.995203 
L 1133.168257 116.390574 
L 1134.512026 111.296501 
L 1135.855795 110.820005 
L 1137.199564 107.928894 
L 1138.543332 106.245645 
L 1141.23087 103.665919 
L 1142.574639 102.70517 
L 1145.262176 102.671926 
L 1146.605945 101.362117 
L 1149.293483 99.20902 
L 1150.637252 98.103107 
L 1151.98102 97.607773 
L 1154.668558 97.607773 
L 1156.012327 96.981679 
L 1157.356096 96.777783 
L 1161.387402 95.864684 
L 1164.07494 95.864684 
L 1166.762477 95.133318 
L 1169.450015 94.486171 
L 1170.793784 94.309978 
L 1173.481321 94.309978 
L 1177.512628 93.515449 
L 1180.200166 93.043386 
L 1182.887703 93.043386 
L 1184.231472 92.540295 
L 1186.91901 91.989554 
L 1189.606547 91.470949 
L 1192.294085 91.470949 
L 1193.637854 90.971183 
L 1199.012929 89.854188 
L 1201.700467 89.854188 
L 1203.044235 89.353313 
L 1204.388004 88.682894 
L 1205.731773 88.2884 
L 1208.419311 87.229028 
L 1212.450617 87.229028 
L 1213.794386 86.426742 
L 1217.825692 85.071499 
L 1220.51323 85.071499 
L 1223.200768 83.858097 
L 1225.888305 82.823104 
L 1227.232074 81.695027 
L 1228.575843 81.695027 
L 1229.919612 80.818497 
L 1231.26338 79.490957 
L 1232.607149 78.349583 
L 1233.950918 77.575 
L 1236.638456 75.479527 
L 1237.982225 75.479527 
L 1239.325993 74.986409 
L 1242.013531 73.30316 
L 1243.3573 72.193922 
L 1244.701069 71.337337 
L 1246.044837 70.863058 
L 1247.388606 70.863058 
L 1251.419913 68.532661 
L 1252.763682 67.65613 
L 1254.10745 67.082119 
L 1255.451219 66.205588 
L 1256.794988 66.205588 
L 1258.138757 65.566197 
L 1259.482526 64.6398 
L 1263.513832 62.837981 
L 1264.857601 62.311619 
L 1267.545138 62.311619 
L 1268.888907 61.945936 
L 1270.232676 61.350871 
L 1274.263983 60.323634 
L 1276.95152 60.323634 
L 1278.295289 59.706406 
L 1283.670364 58.396596 
L 1286.357902 58.396596 
L 1287.701671 57.875775 
L 1289.045439 57.479065 
L 1293.076746 56.621372 
L 1297.108052 56.621372 
L 1298.451821 56.345448 
L 1299.79559 55.868952 
L 1302.483128 55.363645 
L 1305.170665 55.363645 
L 1307.858203 54.435032 
L 1311.889509 53.71364 
L 1313.233278 53.71364 
L 1313.233278 53.71364 
" clip-path="url(#p74a5868a8c)" style="fill: none; stroke: #0000ff; stroke-width: 1.5; stroke-linecap: square"/>
   </g>
   <g id="line2d_19">
    <path d="M 1074.042429 184.874415 
L 1076.729967 182.691112 
L 1078.073736 182.879947 
L 1079.417505 182.012547 
L 1080.761273 179.839168 
L 1082.105042 178.419732 
L 1083.448811 176.596405 
L 1084.79258 175.358766 
L 1086.136349 174.284351 
L 1087.480117 174.514486 
L 1088.823886 173.576858 
L 1090.167655 173.337736 
L 1091.511424 171.487125 
L 1092.855193 169.881424 
L 1094.198961 168.589767 
L 1095.54273 167.822349 
L 1096.886499 167.977083 
L 1098.230268 167.102302 
L 1099.574037 165.093641 
L 1102.261574 161.682721 
L 1103.605343 160.345864 
L 1104.949112 159.616041 
L 1106.292881 159.802962 
L 1107.63665 158.87967 
L 1108.980418 156.99034 
L 1113.011725 152.663538 
L 1114.355494 152.25241 
L 1115.699262 152.389959 
L 1117.043031 151.383413 
L 1118.3868 149.739683 
L 1122.418107 146.398885 
L 1123.761875 144.720584 
L 1125.105644 144.899441 
L 1126.449413 143.901718 
L 1127.793182 128.231592 
L 1129.136951 124.638145 
L 1131.824488 116.587601 
L 1133.168257 113.050277 
L 1134.512026 107.375012 
L 1135.855795 105.40502 
L 1137.199564 104.514265 
L 1138.543332 103.391367 
L 1139.887101 102.693949 
L 1141.23087 101.707579 
L 1142.574639 101.781393 
L 1143.918408 102.694314 
L 1145.262176 100.186172 
L 1146.605945 100.392988 
L 1147.949714 99.427583 
L 1149.293483 98.211965 
L 1150.637252 97.146991 
L 1151.98102 97.514113 
L 1153.324789 98.075198 
L 1154.668558 95.693295 
L 1156.012327 96.460434 
L 1157.356096 96.386076 
L 1158.699865 96.096553 
L 1160.043633 95.991221 
L 1162.731171 96.585437 
L 1164.07494 94.432268 
L 1165.418709 95.236837 
L 1168.106246 94.548691 
L 1169.450015 94.313086 
L 1170.793784 94.715449 
L 1172.137553 94.939308 
L 1173.481321 93.104971 
L 1174.82509 93.809606 
L 1178.856397 93.137465 
L 1181.543934 93.57486 
L 1182.887703 92.022398 
L 1184.231472 92.283976 
L 1185.575241 91.935762 
L 1188.262778 91.545438 
L 1190.950316 91.882516 
L 1192.294085 90.546113 
L 1193.637854 90.699183 
L 1196.325391 90.137843 
L 1197.66916 89.931947 
L 1200.356698 90.175377 
L 1201.700467 89.014104 
L 1203.044235 89.072976 
L 1204.388004 88.289177 
L 1205.731773 87.888927 
L 1207.075542 87.336446 
L 1208.419311 87.176694 
L 1209.763079 87.355829 
L 1211.106848 86.377622 
L 1212.450617 87.00151 
L 1213.794386 86.061168 
L 1216.481924 85.039256 
L 1217.825692 85.061703 
L 1219.169461 85.197809 
L 1220.51323 84.38777 
L 1223.200768 83.419302 
L 1224.544536 82.851531 
L 1225.888305 82.409231 
L 1227.232074 81.393669 
L 1228.575843 81.601751 
L 1229.919612 79.748786 
L 1231.26338 78.482633 
L 1232.607149 77.377716 
L 1233.950918 76.643378 
L 1235.294687 75.567292 
L 1236.638456 74.916579 
L 1237.982225 75.068211 
L 1239.325993 73.894951 
L 1242.013531 72.565524 
L 1243.3573 71.278113 
L 1244.701069 70.4255 
L 1246.044837 70.607833 
L 1247.388606 70.595211 
L 1248.732375 69.101261 
L 1250.076144 68.651981 
L 1252.763682 66.845362 
L 1255.451219 65.940183 
L 1256.794988 65.843224 
L 1258.138757 64.640815 
L 1259.482526 63.784734 
L 1263.513832 62.201929 
L 1264.857601 62.234349 
L 1266.20137 62.018989 
L 1267.545138 61.687618 
L 1268.888907 61.507667 
L 1270.232676 60.902678 
L 1271.576445 60.679895 
L 1272.920214 60.302253 
L 1274.263983 60.462953 
L 1275.607751 60.219605 
L 1276.95152 59.851698 
L 1278.295289 59.237324 
L 1280.982827 58.648278 
L 1282.326595 58.299642 
L 1283.670364 58.549187 
L 1285.014133 58.336919 
L 1289.045439 57.140556 
L 1291.732977 56.696886 
L 1293.076746 56.744732 
L 1294.420515 56.571153 
L 1295.764284 56.172899 
L 1297.108052 56.402083 
L 1298.451821 56.173594 
L 1299.79559 55.616462 
L 1301.139359 55.335225 
L 1302.483128 55.499441 
L 1303.826896 55.345641 
L 1305.170665 55.011204 
L 1306.514434 54.469394 
L 1307.858203 54.071964 
L 1310.545741 53.683855 
L 1311.889509 53.812758 
L 1313.233278 53.690596 
L 1313.233278 53.690596 
" clip-path="url(#p74a5868a8c)" style="fill: none; stroke: #ffa500; stroke-width: 1.5; stroke-linecap: square"/>
   </g>
   <g id="line2d_20">
    <path d="M 1313.233278 53.690596 
L 1314.577047 53.315879 
L 1315.920816 52.979113 
L 1317.264585 52.683324 
L 1318.608353 52.431584 
L 1319.952122 52.182605 
L 1321.295891 52.252821 
L 1322.63966 52.246289 
L 1323.983429 51.901881 
L 1325.327197 51.593935 
L 1326.670966 51.325358 
L 1328.014735 51.099103 
L 1329.358504 50.8755 
L 1330.702273 50.958569 
" clip-path="url(#p74a5868a8c)" style="fill: none; stroke: #ff0000; stroke-width: 1.5; stroke-linecap: square"/>
   </g>
   <g id="patch_3">
    <path d="M 52.375 368.3955 
L 52.375 35.7555 
" style="fill: none; stroke: #000000; stroke-width: 0.8; stroke-linejoin: miter; stroke-linecap: square"/>
   </g>
   <g id="patch_4">
    <path d="M 1391.575 368.3955 
L 1391.575 35.7555 
" style="fill: none; stroke: #000000; stroke-width: 0.8; stroke-linejoin: miter; stroke-linecap: square"/>
   </g>
   <g id="patch_5">
    <path d="M 52.375 368.3955 
L 1391.575 368.3955 
" style="fill: none; stroke: #000000; stroke-width: 0.8; stroke-linejoin: miter; stroke-linecap: square"/>
   </g>
   <g id="patch_6">
    <path d="M 52.375 35.7555 
L 1391.575 35.7555 
" style="fill: none; stroke: #000000; stroke-width: 0.8; stroke-linejoin: miter; stroke-linecap: square"/>
   </g>
   <g id="text_18">
    <!-- Accumulative Confirmed Cases Forecasting - Maine -->
    <g transform="translate(567.98875 16.318125)scale(0.12 -0.12)">
     <defs>
      <path id="DejaVuSans-41" d="M 2188 4044 
L 1331 1722 
L 3047 1722 
L 2188 4044 
z
M 1831 4666 
L 2547 4666 
L 4325 0 
L 3669 0 
L 3244 1197 
L 1141 1197 
L 716 0 
L 50 0 
L 1831 4666 
z
" transform="scale(0.015625)"/>
      <path id="DejaVuSans-63" d="M 3122 3366 
L 3122 2828 
Q 2878 2963 2633 3030 
Q 2388 3097 2138 3097 
Q 1578 3097 1268 2742 
Q 959 2388 959 1747 
Q 959 1106 1268 751 
Q 1578 397 2138 397 
Q 2388 397 2633 464 
Q 2878 531 3122 666 
L 3122 134 
Q 2881 22 2623 -34 
Q 2366 -91 2075 -91 
Q 1284 -91 818 406 
Q 353 903 353 1747 
Q 353 2603 823 3093 
Q 1294 3584 2113 3584 
Q 2378 3584 2631 3529 
Q 2884 3475 3122 3366 
z
" transform="scale(0.015625)"/>
      <path id="DejaVuSans-75" d="M 544 1381 
L 544 3500 
L 1119 3500 
L 1119 1403 
Q 1119 906 1312 657 
Q 1506 409 1894 409 
Q 2359 409 2629 706 
Q 2900 1003 2900 1516 
L 2900 3500 
L 3475 3500 
L 3475 0 
L 2900 0 
L 2900 538 
Q 2691 219 2414 64 
Q 2138 -91 1772 -91 
Q 1169 -91 856 284 
Q 544 659 544 1381 
z
M 1991 3584 
L 1991 3584 
z
" transform="scale(0.015625)"/>
      <path id="DejaVuSans-6d" d="M 3328 2828 
Q 3544 3216 3844 3400 
Q 4144 3584 4550 3584 
Q 5097 3584 5394 3201 
Q 5691 2819 5691 2113 
L 5691 0 
L 5113 0 
L 5113 2094 
Q 5113 2597 4934 2840 
Q 4756 3084 4391 3084 
Q 3944 3084 3684 2787 
Q 3425 2491 3425 1978 
L 3425 0 
L 2847 0 
L 2847 2094 
Q 2847 2600 2669 2842 
Q 2491 3084 2119 3084 
Q 1678 3084 1418 2786 
Q 1159 2488 1159 1978 
L 1159 0 
L 581 0 
L 581 3500 
L 1159 3500 
L 1159 2956 
Q 1356 3278 1631 3431 
Q 1906 3584 2284 3584 
Q 2666 3584 2933 3390 
Q 3200 3197 3328 2828 
z
" transform="scale(0.015625)"/>
      <path id="DejaVuSans-6c" d="M 603 4863 
L 1178 4863 
L 1178 0 
L 603 0 
L 603 4863 
z
" transform="scale(0.015625)"/>
      <path id="DejaVuSans-61" d="M 2194 1759 
Q 1497 1759 1228 1600 
Q 959 1441 959 1056 
Q 959 750 1161 570 
Q 1363 391 1709 391 
Q 2188 391 2477 730 
Q 2766 1069 2766 1631 
L 2766 1759 
L 2194 1759 
z
M 3341 1997 
L 3341 0 
L 2766 0 
L 2766 531 
Q 2569 213 2275 61 
Q 1981 -91 1556 -91 
Q 1019 -91 701 211 
Q 384 513 384 1019 
Q 384 1609 779 1909 
Q 1175 2209 1959 2209 
L 2766 2209 
L 2766 2266 
Q 2766 2663 2505 2880 
Q 2244 3097 1772 3097 
Q 1472 3097 1187 3025 
Q 903 2953 641 2809 
L 641 3341 
Q 956 3463 1253 3523 
Q 1550 3584 1831 3584 
Q 2591 3584 2966 3190 
Q 3341 2797 3341 1997 
z
" transform="scale(0.015625)"/>
      <path id="DejaVuSans-74" d="M 1172 4494 
L 1172 3500 
L 2356 3500 
L 2356 3053 
L 1172 3053 
L 1172 1153 
Q 1172 725 1289 603 
Q 1406 481 1766 481 
L 2356 481 
L 2356 0 
L 1766 0 
Q 1100 0 847 248 
Q 594 497 594 1153 
L 594 3053 
L 172 3053 
L 172 3500 
L 594 3500 
L 594 4494 
L 1172 4494 
z
" transform="scale(0.015625)"/>
      <path id="DejaVuSans-69" d="M 603 3500 
L 1178 3500 
L 1178 0 
L 603 0 
L 603 3500 
z
M 603 4863 
L 1178 4863 
L 1178 4134 
L 603 4134 
L 603 4863 
z
" transform="scale(0.015625)"/>
      <path id="DejaVuSans-76" d="M 191 3500 
L 800 3500 
L 1894 563 
L 2988 3500 
L 3597 3500 
L 2284 0 
L 1503 0 
L 191 3500 
z
" transform="scale(0.015625)"/>
      <path id="DejaVuSans-65" d="M 3597 1894 
L 3597 1613 
L 953 1613 
Q 991 1019 1311 708 
Q 1631 397 2203 397 
Q 2534 397 2845 478 
Q 3156 559 3463 722 
L 3463 178 
Q 3153 47 2828 -22 
Q 2503 -91 2169 -91 
Q 1331 -91 842 396 
Q 353 884 353 1716 
Q 353 2575 817 3079 
Q 1281 3584 2069 3584 
Q 2775 3584 3186 3129 
Q 3597 2675 3597 1894 
z
M 3022 2063 
Q 3016 2534 2758 2815 
Q 2500 3097 2075 3097 
Q 1594 3097 1305 2825 
Q 1016 2553 972 2059 
L 3022 2063 
z
" transform="scale(0.015625)"/>
      <path id="DejaVuSans-20" transform="scale(0.015625)"/>
      <path id="DejaVuSans-43" d="M 4122 4306 
L 4122 3641 
Q 3803 3938 3442 4084 
Q 3081 4231 2675 4231 
Q 1875 4231 1450 3742 
Q 1025 3253 1025 2328 
Q 1025 1406 1450 917 
Q 1875 428 2675 428 
Q 3081 428 3442 575 
Q 3803 722 4122 1019 
L 4122 359 
Q 3791 134 3420 21 
Q 3050 -91 2638 -91 
Q 1578 -91 968 557 
Q 359 1206 359 2328 
Q 359 3453 968 4101 
Q 1578 4750 2638 4750 
Q 3056 4750 3426 4639 
Q 3797 4528 4122 4306 
z
" transform="scale(0.015625)"/>
      <path id="DejaVuSans-6f" d="M 1959 3097 
Q 1497 3097 1228 2736 
Q 959 2375 959 1747 
Q 959 1119 1226 758 
Q 1494 397 1959 397 
Q 2419 397 2687 759 
Q 2956 1122 2956 1747 
Q 2956 2369 2687 2733 
Q 2419 3097 1959 3097 
z
M 1959 3584 
Q 2709 3584 3137 3096 
Q 3566 2609 3566 1747 
Q 3566 888 3137 398 
Q 2709 -91 1959 -91 
Q 1206 -91 779 398 
Q 353 888 353 1747 
Q 353 2609 779 3096 
Q 1206 3584 1959 3584 
z
" transform="scale(0.015625)"/>
      <path id="DejaVuSans-6e" d="M 3513 2113 
L 3513 0 
L 2938 0 
L 2938 2094 
Q 2938 2591 2744 2837 
Q 2550 3084 2163 3084 
Q 1697 3084 1428 2787 
Q 1159 2491 1159 1978 
L 1159 0 
L 581 0 
L 581 3500 
L 1159 3500 
L 1159 2956 
Q 1366 3272 1645 3428 
Q 1925 3584 2291 3584 
Q 2894 3584 3203 3211 
Q 3513 2838 3513 2113 
z
" transform="scale(0.015625)"/>
      <path id="DejaVuSans-66" d="M 2375 4863 
L 2375 4384 
L 1825 4384 
Q 1516 4384 1395 4259 
Q 1275 4134 1275 3809 
L 1275 3500 
L 2222 3500 
L 2222 3053 
L 1275 3053 
L 1275 0 
L 697 0 
L 697 3053 
L 147 3053 
L 147 3500 
L 697 3500 
L 697 3744 
Q 697 4328 969 4595 
Q 1241 4863 1831 4863 
L 2375 4863 
z
" transform="scale(0.015625)"/>
      <path id="DejaVuSans-72" d="M 2631 2963 
Q 2534 3019 2420 3045 
Q 2306 3072 2169 3072 
Q 1681 3072 1420 2755 
Q 1159 2438 1159 1844 
L 1159 0 
L 581 0 
L 581 3500 
L 1159 3500 
L 1159 2956 
Q 1341 3275 1631 3429 
Q 1922 3584 2338 3584 
Q 2397 3584 2469 3576 
Q 2541 3569 2628 3553 
L 2631 2963 
z
" transform="scale(0.015625)"/>
      <path id="DejaVuSans-64" d="M 2906 2969 
L 2906 4863 
L 3481 4863 
L 3481 0 
L 2906 0 
L 2906 525 
Q 2725 213 2448 61 
Q 2172 -91 1784 -91 
Q 1150 -91 751 415 
Q 353 922 353 1747 
Q 353 2572 751 3078 
Q 1150 3584 1784 3584 
Q 2172 3584 2448 3432 
Q 2725 3281 2906 2969 
z
M 947 1747 
Q 947 1113 1208 752 
Q 1469 391 1925 391 
Q 2381 391 2643 752 
Q 2906 1113 2906 1747 
Q 2906 2381 2643 2742 
Q 2381 3103 1925 3103 
Q 1469 3103 1208 2742 
Q 947 2381 947 1747 
z
" transform="scale(0.015625)"/>
      <path id="DejaVuSans-73" d="M 2834 3397 
L 2834 2853 
Q 2591 2978 2328 3040 
Q 2066 3103 1784 3103 
Q 1356 3103 1142 2972 
Q 928 2841 928 2578 
Q 928 2378 1081 2264 
Q 1234 2150 1697 2047 
L 1894 2003 
Q 2506 1872 2764 1633 
Q 3022 1394 3022 966 
Q 3022 478 2636 193 
Q 2250 -91 1575 -91 
Q 1294 -91 989 -36 
Q 684 19 347 128 
L 347 722 
Q 666 556 975 473 
Q 1284 391 1588 391 
Q 1994 391 2212 530 
Q 2431 669 2431 922 
Q 2431 1156 2273 1281 
Q 2116 1406 1581 1522 
L 1381 1569 
Q 847 1681 609 1914 
Q 372 2147 372 2553 
Q 372 3047 722 3315 
Q 1072 3584 1716 3584 
Q 2034 3584 2315 3537 
Q 2597 3491 2834 3397 
z
" transform="scale(0.015625)"/>
      <path id="DejaVuSans-46" d="M 628 4666 
L 3309 4666 
L 3309 4134 
L 1259 4134 
L 1259 2759 
L 3109 2759 
L 3109 2228 
L 1259 2228 
L 1259 0 
L 628 0 
L 628 4666 
z
" transform="scale(0.015625)"/>
      <path id="DejaVuSans-67" d="M 2906 1791 
Q 2906 2416 2648 2759 
Q 2391 3103 1925 3103 
Q 1463 3103 1205 2759 
Q 947 2416 947 1791 
Q 947 1169 1205 825 
Q 1463 481 1925 481 
Q 2391 481 2648 825 
Q 2906 1169 2906 1791 
z
M 3481 434 
Q 3481 -459 3084 -895 
Q 2688 -1331 1869 -1331 
Q 1566 -1331 1297 -1286 
Q 1028 -1241 775 -1147 
L 775 -588 
Q 1028 -725 1275 -790 
Q 1522 -856 1778 -856 
Q 2344 -856 2625 -561 
Q 2906 -266 2906 331 
L 2906 616 
Q 2728 306 2450 153 
Q 2172 0 1784 0 
Q 1141 0 747 490 
Q 353 981 353 1791 
Q 353 2603 747 3093 
Q 1141 3584 1784 3584 
Q 2172 3584 2450 3431 
Q 2728 3278 2906 2969 
L 2906 3500 
L 3481 3500 
L 3481 434 
z
" transform="scale(0.015625)"/>
      <path id="DejaVuSans-4d" d="M 628 4666 
L 1569 4666 
L 2759 1491 
L 3956 4666 
L 4897 4666 
L 4897 0 
L 4281 0 
L 4281 4097 
L 3078 897 
L 2444 897 
L 1241 4097 
L 1241 0 
L 628 0 
L 628 4666 
z
" transform="scale(0.015625)"/>
     </defs>
     <use xlink:href="#DejaVuSans-41"/>
     <use xlink:href="#DejaVuSans-63" x="66.658203"/>
     <use xlink:href="#DejaVuSans-63" x="121.638672"/>
     <use xlink:href="#DejaVuSans-75" x="176.619141"/>
     <use xlink:href="#DejaVuSans-6d" x="239.998047"/>
     <use xlink:href="#DejaVuSans-75" x="337.410156"/>
     <use xlink:href="#DejaVuSans-6c" x="400.789062"/>
     <use xlink:href="#DejaVuSans-61" x="428.572266"/>
     <use xlink:href="#DejaVuSans-74" x="489.851562"/>
     <use xlink:href="#DejaVuSans-69" x="529.060547"/>
     <use xlink:href="#DejaVuSans-76" x="556.84375"/>
     <use xlink:href="#DejaVuSans-65" x="616.023438"/>
     <use xlink:href="#DejaVuSans-20" x="677.546875"/>
     <use xlink:href="#DejaVuSans-43" x="709.333984"/>
     <use xlink:href="#DejaVuSans-6f" x="779.158203"/>
     <use xlink:href="#DejaVuSans-6e" x="840.339844"/>
     <use xlink:href="#DejaVuSans-66" x="903.71875"/>
     <use xlink:href="#DejaVuSans-69" x="938.923828"/>
     <use xlink:href="#DejaVuSans-72" x="966.707031"/>
     <use xlink:href="#DejaVuSans-6d" x="1006.070312"/>
     <use xlink:href="#DejaVuSans-65" x="1103.482422"/>
     <use xlink:href="#DejaVuSans-64" x="1165.005859"/>
     <use xlink:href="#DejaVuSans-20" x="1228.482422"/>
     <use xlink:href="#DejaVuSans-43" x="1260.269531"/>
     <use xlink:href="#DejaVuSans-61" x="1330.09375"/>
     <use xlink:href="#DejaVuSans-73" x="1391.373047"/>
     <use xlink:href="#DejaVuSans-65" x="1443.472656"/>
     <use xlink:href="#DejaVuSans-73" x="1504.996094"/>
     <use xlink:href="#DejaVuSans-20" x="1557.095703"/>
     <use xlink:href="#DejaVuSans-46" x="1588.882812"/>
     <use xlink:href="#DejaVuSans-6f" x="1642.777344"/>
     <use xlink:href="#DejaVuSans-72" x="1703.958984"/>
     <use xlink:href="#DejaVuSans-65" x="1742.822266"/>
     <use xlink:href="#DejaVuSans-63" x="1804.345703"/>
     <use xlink:href="#DejaVuSans-61" x="1859.326172"/>
     <use xlink:href="#DejaVuSans-73" x="1920.605469"/>
     <use xlink:href="#DejaVuSans-74" x="1972.705078"/>
     <use xlink:href="#DejaVuSans-69" x="2011.914062"/>
     <use xlink:href="#DejaVuSans-6e" x="2039.697266"/>
     <use xlink:href="#DejaVuSans-67" x="2103.076172"/>
     <use xlink:href="#DejaVuSans-20" x="2166.552734"/>
     <use xlink:href="#DejaVuSans-2d" x="2198.339844"/>
     <use xlink:href="#DejaVuSans-20" x="2234.423828"/>
     <use xlink:href="#DejaVuSans-4d" x="2266.210938"/>
     <use xlink:href="#DejaVuSans-61" x="2352.490234"/>
     <use xlink:href="#DejaVuSans-69" x="2413.769531"/>
     <use xlink:href="#DejaVuSans-6e" x="2441.552734"/>
     <use xlink:href="#DejaVuSans-65" x="2504.931641"/>
    </g>
    <!-- ARIMA (0, 2, 1)x(1, 0, 1, 7) (R2 = 0.999028) -->
    <g transform="translate(589.990937 29.7555)scale(0.12 -0.12)">
     <defs>
      <path id="DejaVuSans-52" d="M 2841 2188 
Q 3044 2119 3236 1894 
Q 3428 1669 3622 1275 
L 4263 0 
L 3584 0 
L 2988 1197 
Q 2756 1666 2539 1819 
Q 2322 1972 1947 1972 
L 1259 1972 
L 1259 0 
L 628 0 
L 628 4666 
L 2053 4666 
Q 2853 4666 3247 4331 
Q 3641 3997 3641 3322 
Q 3641 2881 3436 2590 
Q 3231 2300 2841 2188 
z
M 1259 4147 
L 1259 2491 
L 2053 2491 
Q 2509 2491 2742 2702 
Q 2975 2913 2975 3322 
Q 2975 3731 2742 3939 
Q 2509 4147 2053 4147 
L 1259 4147 
z
" transform="scale(0.015625)"/>
      <path id="DejaVuSans-49" d="M 628 4666 
L 1259 4666 
L 1259 0 
L 628 0 
L 628 4666 
z
" transform="scale(0.015625)"/>
      <path id="DejaVuSans-28" d="M 1984 4856 
Q 1566 4138 1362 3434 
Q 1159 2731 1159 2009 
Q 1159 1288 1364 580 
Q 1569 -128 1984 -844 
L 1484 -844 
Q 1016 -109 783 600 
Q 550 1309 550 2009 
Q 550 2706 781 3412 
Q 1013 4119 1484 4856 
L 1984 4856 
z
" transform="scale(0.015625)"/>
      <path id="DejaVuSans-2c" d="M 750 794 
L 1409 794 
L 1409 256 
L 897 -744 
L 494 -744 
L 750 256 
L 750 794 
z
" transform="scale(0.015625)"/>
      <path id="DejaVuSans-29" d="M 513 4856 
L 1013 4856 
Q 1481 4119 1714 3412 
Q 1947 2706 1947 2009 
Q 1947 1309 1714 600 
Q 1481 -109 1013 -844 
L 513 -844 
Q 928 -128 1133 580 
Q 1338 1288 1338 2009 
Q 1338 2731 1133 3434 
Q 928 4138 513 4856 
z
" transform="scale(0.015625)"/>
      <path id="DejaVuSans-78" d="M 3513 3500 
L 2247 1797 
L 3578 0 
L 2900 0 
L 1881 1375 
L 863 0 
L 184 0 
L 1544 1831 
L 300 3500 
L 978 3500 
L 1906 2253 
L 2834 3500 
L 3513 3500 
z
" transform="scale(0.015625)"/>
      <path id="DejaVuSans-3d" d="M 678 2906 
L 4684 2906 
L 4684 2381 
L 678 2381 
L 678 2906 
z
M 678 1631 
L 4684 1631 
L 4684 1100 
L 678 1100 
L 678 1631 
z
" transform="scale(0.015625)"/>
      <path id="DejaVuSans-2e" d="M 684 794 
L 1344 794 
L 1344 0 
L 684 0 
L 684 794 
z
" transform="scale(0.015625)"/>
      <path id="DejaVuSans-39" d="M 703 97 
L 703 672 
Q 941 559 1184 500 
Q 1428 441 1663 441 
Q 2288 441 2617 861 
Q 2947 1281 2994 2138 
Q 2813 1869 2534 1725 
Q 2256 1581 1919 1581 
Q 1219 1581 811 2004 
Q 403 2428 403 3163 
Q 403 3881 828 4315 
Q 1253 4750 1959 4750 
Q 2769 4750 3195 4129 
Q 3622 3509 3622 2328 
Q 3622 1225 3098 567 
Q 2575 -91 1691 -91 
Q 1453 -91 1209 -44 
Q 966 3 703 97 
z
M 1959 2075 
Q 2384 2075 2632 2365 
Q 2881 2656 2881 3163 
Q 2881 3666 2632 3958 
Q 2384 4250 1959 4250 
Q 1534 4250 1286 3958 
Q 1038 3666 1038 3163 
Q 1038 2656 1286 2365 
Q 1534 2075 1959 2075 
z
" transform="scale(0.015625)"/>
      <path id="DejaVuSans-38" d="M 2034 2216 
Q 1584 2216 1326 1975 
Q 1069 1734 1069 1313 
Q 1069 891 1326 650 
Q 1584 409 2034 409 
Q 2484 409 2743 651 
Q 3003 894 3003 1313 
Q 3003 1734 2745 1975 
Q 2488 2216 2034 2216 
z
M 1403 2484 
Q 997 2584 770 2862 
Q 544 3141 544 3541 
Q 544 4100 942 4425 
Q 1341 4750 2034 4750 
Q 2731 4750 3128 4425 
Q 3525 4100 3525 3541 
Q 3525 3141 3298 2862 
Q 3072 2584 2669 2484 
Q 3125 2378 3379 2068 
Q 3634 1759 3634 1313 
Q 3634 634 3220 271 
Q 2806 -91 2034 -91 
Q 1263 -91 848 271 
Q 434 634 434 1313 
Q 434 1759 690 2068 
Q 947 2378 1403 2484 
z
M 1172 3481 
Q 1172 3119 1398 2916 
Q 1625 2713 2034 2713 
Q 2441 2713 2670 2916 
Q 2900 3119 2900 3481 
Q 2900 3844 2670 4047 
Q 2441 4250 2034 4250 
Q 1625 4250 1398 4047 
Q 1172 3844 1172 3481 
z
" transform="scale(0.015625)"/>
     </defs>
     <use xlink:href="#DejaVuSans-41"/>
     <use xlink:href="#DejaVuSans-52" x="68.408203"/>
     <use xlink:href="#DejaVuSans-49" x="137.890625"/>
     <use xlink:href="#DejaVuSans-4d" x="167.382812"/>
     <use xlink:href="#DejaVuSans-41" x="253.662109"/>
     <use xlink:href="#DejaVuSans-20" x="322.070312"/>
     <use xlink:href="#DejaVuSans-28" x="353.857422"/>
     <use xlink:href="#DejaVuSans-30" x="392.871094"/>
     <use xlink:href="#DejaVuSans-2c" x="456.494141"/>
     <use xlink:href="#DejaVuSans-20" x="488.28125"/>
     <use xlink:href="#DejaVuSans-32" x="520.068359"/>
     <use xlink:href="#DejaVuSans-2c" x="583.691406"/>
     <use xlink:href="#DejaVuSans-20" x="615.478516"/>
     <use xlink:href="#DejaVuSans-31" x="647.265625"/>
     <use xlink:href="#DejaVuSans-29" x="710.888672"/>
     <use xlink:href="#DejaVuSans-78" x="749.902344"/>
     <use xlink:href="#DejaVuSans-28" x="809.082031"/>
     <use xlink:href="#DejaVuSans-31" x="848.095703"/>
     <use xlink:href="#DejaVuSans-2c" x="911.71875"/>
     <use xlink:href="#DejaVuSans-20" x="943.505859"/>
     <use xlink:href="#DejaVuSans-30" x="975.292969"/>
     <use xlink:href="#DejaVuSans-2c" x="1038.916016"/>
     <use xlink:href="#DejaVuSans-20" x="1070.703125"/>
     <use xlink:href="#DejaVuSans-31" x="1102.490234"/>
     <use xlink:href="#DejaVuSans-2c" x="1166.113281"/>
     <use xlink:href="#DejaVuSans-20" x="1197.900391"/>
     <use xlink:href="#DejaVuSans-37" x="1229.6875"/>
     <use xlink:href="#DejaVuSans-29" x="1293.310547"/>
     <use xlink:href="#DejaVuSans-20" x="1332.324219"/>
     <use xlink:href="#DejaVuSans-28" x="1364.111328"/>
     <use xlink:href="#DejaVuSans-52" x="1403.125"/>
     <use xlink:href="#DejaVuSans-32" x="1472.607422"/>
     <use xlink:href="#DejaVuSans-20" x="1536.230469"/>
     <use xlink:href="#DejaVuSans-3d" x="1568.017578"/>
     <use xlink:href="#DejaVuSans-20" x="1651.806641"/>
     <use xlink:href="#DejaVuSans-30" x="1683.59375"/>
     <use xlink:href="#DejaVuSans-2e" x="1747.216797"/>
     <use xlink:href="#DejaVuSans-39" x="1779.003906"/>
     <use xlink:href="#DejaVuSans-39" x="1842.626953"/>
     <use xlink:href="#DejaVuSans-39" x="1906.25"/>
     <use xlink:href="#DejaVuSans-30" x="1969.873047"/>
     <use xlink:href="#DejaVuSans-32" x="2033.496094"/>
     <use xlink:href="#DejaVuSans-38" x="2097.119141"/>
     <use xlink:href="#DejaVuSans-29" x="2160.742188"/>
    </g>
   </g>
   <g id="legend_1">
    <g id="patch_7">
     <path d="M 59.375 87.789875 
L 156.454688 87.789875 
Q 158.454688 87.789875 158.454688 85.789875 
L 158.454688 42.7555 
Q 158.454688 40.7555 156.454688 40.7555 
L 59.375 40.7555 
Q 57.375 40.7555 57.375 42.7555 
L 57.375 85.789875 
Q 57.375 87.789875 59.375 87.789875 
z
" style="fill: #ffffff; opacity: 0.8; stroke: #cccccc; stroke-linejoin: miter"/>
    </g>
    <g id="line2d_21">
     <path d="M 61.375 48.853937 
L 71.375 48.853937 
L 81.375 48.853937 
" style="fill: none; stroke: #0000ff; stroke-width: 1.5; stroke-linecap: square"/>
    </g>
    <g id="text_19">
     <!-- Actual Value -->
     <g transform="translate(89.375 52.353937)scale(0.1 -0.1)">
      <defs>
       <path id="DejaVuSans-56" d="M 1831 0 
L 50 4666 
L 709 4666 
L 2188 738 
L 3669 4666 
L 4325 4666 
L 2547 0 
L 1831 0 
z
" transform="scale(0.015625)"/>
      </defs>
      <use xlink:href="#DejaVuSans-41"/>
      <use xlink:href="#DejaVuSans-63" x="66.658203"/>
      <use xlink:href="#DejaVuSans-74" x="121.638672"/>
      <use xlink:href="#DejaVuSans-75" x="160.847656"/>
      <use xlink:href="#DejaVuSans-61" x="224.226562"/>
      <use xlink:href="#DejaVuSans-6c" x="285.505859"/>
      <use xlink:href="#DejaVuSans-20" x="313.289062"/>
      <use xlink:href="#DejaVuSans-56" x="345.076172"/>
      <use xlink:href="#DejaVuSans-61" x="405.734375"/>
      <use xlink:href="#DejaVuSans-6c" x="467.013672"/>
      <use xlink:href="#DejaVuSans-75" x="494.796875"/>
      <use xlink:href="#DejaVuSans-65" x="558.175781"/>
     </g>
    </g>
    <g id="line2d_22">
     <path d="M 61.375 63.532062 
L 71.375 63.532062 
L 81.375 63.532062 
" style="fill: none; stroke: #ffa500; stroke-width: 1.5; stroke-linecap: square"/>
    </g>
    <g id="text_20">
     <!-- Check Value -->
     <g transform="translate(89.375 67.032062)scale(0.1 -0.1)">
      <defs>
       <path id="DejaVuSans-68" d="M 3513 2113 
L 3513 0 
L 2938 0 
L 2938 2094 
Q 2938 2591 2744 2837 
Q 2550 3084 2163 3084 
Q 1697 3084 1428 2787 
Q 1159 2491 1159 1978 
L 1159 0 
L 581 0 
L 581 4863 
L 1159 4863 
L 1159 2956 
Q 1366 3272 1645 3428 
Q 1925 3584 2291 3584 
Q 2894 3584 3203 3211 
Q 3513 2838 3513 2113 
z
" transform="scale(0.015625)"/>
       <path id="DejaVuSans-6b" d="M 581 4863 
L 1159 4863 
L 1159 1991 
L 2875 3500 
L 3609 3500 
L 1753 1863 
L 3688 0 
L 2938 0 
L 1159 1709 
L 1159 0 
L 581 0 
L 581 4863 
z
" transform="scale(0.015625)"/>
      </defs>
      <use xlink:href="#DejaVuSans-43"/>
      <use xlink:href="#DejaVuSans-68" x="69.824219"/>
      <use xlink:href="#DejaVuSans-65" x="133.203125"/>
      <use xlink:href="#DejaVuSans-63" x="194.726562"/>
      <use xlink:href="#DejaVuSans-6b" x="249.707031"/>
      <use xlink:href="#DejaVuSans-20" x="307.617188"/>
      <use xlink:href="#DejaVuSans-56" x="339.404297"/>
      <use xlink:href="#DejaVuSans-61" x="400.0625"/>
      <use xlink:href="#DejaVuSans-6c" x="461.341797"/>
      <use xlink:href="#DejaVuSans-75" x="489.125"/>
      <use xlink:href="#DejaVuSans-65" x="552.503906"/>
     </g>
    </g>
    <g id="line2d_23">
     <path d="M 61.375 78.210187 
L 71.375 78.210187 
L 81.375 78.210187 
" style="fill: none; stroke: #ff0000; stroke-width: 1.5; stroke-linecap: square"/>
    </g>
    <g id="text_21">
     <!-- Predict Value -->
     <g transform="translate(89.375 81.710187)scale(0.1 -0.1)">
      <defs>
       <path id="DejaVuSans-50" d="M 1259 4147 
L 1259 2394 
L 2053 2394 
Q 2494 2394 2734 2622 
Q 2975 2850 2975 3272 
Q 2975 3691 2734 3919 
Q 2494 4147 2053 4147 
L 1259 4147 
z
M 628 4666 
L 2053 4666 
Q 2838 4666 3239 4311 
Q 3641 3956 3641 3272 
Q 3641 2581 3239 2228 
Q 2838 1875 2053 1875 
L 1259 1875 
L 1259 0 
L 628 0 
L 628 4666 
z
" transform="scale(0.015625)"/>
      </defs>
      <use xlink:href="#DejaVuSans-50"/>
      <use xlink:href="#DejaVuSans-72" x="58.552734"/>
      <use xlink:href="#DejaVuSans-65" x="97.416016"/>
      <use xlink:href="#DejaVuSans-64" x="158.939453"/>
      <use xlink:href="#DejaVuSans-69" x="222.416016"/>
      <use xlink:href="#DejaVuSans-63" x="250.199219"/>
      <use xlink:href="#DejaVuSans-74" x="305.179688"/>
      <use xlink:href="#DejaVuSans-20" x="344.388672"/>
      <use xlink:href="#DejaVuSans-56" x="376.175781"/>
      <use xlink:href="#DejaVuSans-61" x="436.833984"/>
      <use xlink:href="#DejaVuSans-6c" x="498.113281"/>
      <use xlink:href="#DejaVuSans-75" x="525.896484"/>
      <use xlink:href="#DejaVuSans-65" x="589.275391"/>
     </g>
    </g>
   </g>
  </g>
 </g>
 <defs>
  <clipPath id="p74a5868a8c">
   <rect x="52.375" y="35.7555" width="1339.2" height="332.64"/>
  </clipPath>
 </defs>
</svg>
