<?xml version="1.0" encoding="utf-8" standalone="no"?>
<!DOCTYPE svg PUBLIC "-//W3C//DTD SVG 1.1//EN"
  "http://www.w3.org/Graphics/SVG/1.1/DTD/svg11.dtd">
<svg xmlns:xlink="http://www.w3.org/1999/xlink" width="1398.775pt" height="392.273625pt" viewBox="0 0 1398.775 392.273625" xmlns="http://www.w3.org/2000/svg" version="1.1">
 <metadata>
  <rdf:RDF xmlns:dc="http://purl.org/dc/elements/1.1/" xmlns:cc="http://creativecommons.org/ns#" xmlns:rdf="http://www.w3.org/1999/02/22-rdf-syntax-ns#">
   <cc:Work>
    <dc:type rdf:resource="http://purl.org/dc/dcmitype/StillImage"/>
    <dc:date>2022-07-16T17:28:56.047879</dc:date>
    <dc:format>image/svg+xml</dc:format>
    <dc:creator>
     <cc:Agent>
      <dc:title>Matplotlib v3.5.2, https://matplotlib.org/</dc:title>
     </cc:Agent>
    </dc:creator>
   </cc:Work>
  </rdf:RDF>
 </metadata>
 <defs>
  <style type="text/css">*{stroke-linejoin: round; stroke-linecap: butt}</style>
 </defs>
 <g id="figure_1">
  <g id="patch_1">
   <path d="M 0 392.273625 
L 1398.775 392.273625 
L 1398.775 0 
L 0 0 
z
" style="fill: #ffffff"/>
  </g>
  <g id="axes_1">
   <g id="patch_2">
    <path d="M 52.375 368.3955 
L 1391.575 368.3955 
L 1391.575 35.7555 
L 52.375 35.7555 
z
" style="fill: #ffffff"/>
   </g>
   <g id="matplotlib.axis_1">
    <g id="xtick_1">
     <g id="line2d_1">
      <defs>
       <path id="m3ae54cb9f7" d="M 0 0 
L 0 3.5 
" style="stroke: #000000; stroke-width: 0.8"/>
      </defs>
      <g>
       <use xlink:href="#m3ae54cb9f7" x="84.039439" y="368.3955" style="stroke: #000000; stroke-width: 0.8"/>
      </g>
     </g>
     <g id="text_1">
      <!-- 2020-01 -->
      <g transform="translate(63.148033 382.993937)scale(0.1 -0.1)">
       <defs>
        <path id="DejaVuSans-32" d="M 1228 531 
L 3431 531 
L 3431 0 
L 469 0 
L 469 531 
Q 828 903 1448 1529 
Q 2069 2156 2228 2338 
Q 2531 2678 2651 2914 
Q 2772 3150 2772 3378 
Q 2772 3750 2511 3984 
Q 2250 4219 1831 4219 
Q 1534 4219 1204 4116 
Q 875 4013 500 3803 
L 500 4441 
Q 881 4594 1212 4672 
Q 1544 4750 1819 4750 
Q 2544 4750 2975 4387 
Q 3406 4025 3406 3419 
Q 3406 3131 3298 2873 
Q 3191 2616 2906 2266 
Q 2828 2175 2409 1742 
Q 1991 1309 1228 531 
z
" transform="scale(0.015625)"/>
        <path id="DejaVuSans-30" d="M 2034 4250 
Q 1547 4250 1301 3770 
Q 1056 3291 1056 2328 
Q 1056 1369 1301 889 
Q 1547 409 2034 409 
Q 2525 409 2770 889 
Q 3016 1369 3016 2328 
Q 3016 3291 2770 3770 
Q 2525 4250 2034 4250 
z
M 2034 4750 
Q 2819 4750 3233 4129 
Q 3647 3509 3647 2328 
Q 3647 1150 3233 529 
Q 2819 -91 2034 -91 
Q 1250 -91 836 529 
Q 422 1150 422 2328 
Q 422 3509 836 4129 
Q 1250 4750 2034 4750 
z
" transform="scale(0.015625)"/>
        <path id="DejaVuSans-2d" d="M 313 2009 
L 1997 2009 
L 1997 1497 
L 313 1497 
L 313 2009 
z
" transform="scale(0.015625)"/>
        <path id="DejaVuSans-31" d="M 794 531 
L 1825 531 
L 1825 4091 
L 703 3866 
L 703 4441 
L 1819 4666 
L 2450 4666 
L 2450 531 
L 3481 531 
L 3481 0 
L 794 0 
L 794 531 
z
" transform="scale(0.015625)"/>
       </defs>
       <use xlink:href="#DejaVuSans-32"/>
       <use xlink:href="#DejaVuSans-30" x="63.623047"/>
       <use xlink:href="#DejaVuSans-32" x="127.246094"/>
       <use xlink:href="#DejaVuSans-30" x="190.869141"/>
       <use xlink:href="#DejaVuSans-2d" x="254.492188"/>
       <use xlink:href="#DejaVuSans-30" x="290.576172"/>
       <use xlink:href="#DejaVuSans-31" x="354.199219"/>
      </g>
     </g>
    </g>
    <g id="xtick_2">
     <g id="line2d_2">
      <g>
       <use xlink:href="#m3ae54cb9f7" x="204.855539" y="368.3955" style="stroke: #000000; stroke-width: 0.8"/>
      </g>
     </g>
     <g id="text_2">
      <!-- 2020-04 -->
      <g transform="translate(183.964133 382.993937)scale(0.1 -0.1)">
       <defs>
        <path id="DejaVuSans-34" d="M 2419 4116 
L 825 1625 
L 2419 1625 
L 2419 4116 
z
M 2253 4666 
L 3047 4666 
L 3047 1625 
L 3713 1625 
L 3713 1100 
L 3047 1100 
L 3047 0 
L 2419 0 
L 2419 1100 
L 313 1100 
L 313 1709 
L 2253 4666 
z
" transform="scale(0.015625)"/>
       </defs>
       <use xlink:href="#DejaVuSans-32"/>
       <use xlink:href="#DejaVuSans-30" x="63.623047"/>
       <use xlink:href="#DejaVuSans-32" x="127.246094"/>
       <use xlink:href="#DejaVuSans-30" x="190.869141"/>
       <use xlink:href="#DejaVuSans-2d" x="254.492188"/>
       <use xlink:href="#DejaVuSans-30" x="290.576172"/>
       <use xlink:href="#DejaVuSans-34" x="354.199219"/>
      </g>
     </g>
    </g>
    <g id="xtick_3">
     <g id="line2d_3">
      <g>
       <use xlink:href="#m3ae54cb9f7" x="325.671639" y="368.3955" style="stroke: #000000; stroke-width: 0.8"/>
      </g>
     </g>
     <g id="text_3">
      <!-- 2020-07 -->
      <g transform="translate(304.780233 382.993937)scale(0.1 -0.1)">
       <defs>
        <path id="DejaVuSans-37" d="M 525 4666 
L 3525 4666 
L 3525 4397 
L 1831 0 
L 1172 0 
L 2766 4134 
L 525 4134 
L 525 4666 
z
" transform="scale(0.015625)"/>
       </defs>
       <use xlink:href="#DejaVuSans-32"/>
       <use xlink:href="#DejaVuSans-30" x="63.623047"/>
       <use xlink:href="#DejaVuSans-32" x="127.246094"/>
       <use xlink:href="#DejaVuSans-30" x="190.869141"/>
       <use xlink:href="#DejaVuSans-2d" x="254.492188"/>
       <use xlink:href="#DejaVuSans-30" x="290.576172"/>
       <use xlink:href="#DejaVuSans-37" x="354.199219"/>
      </g>
     </g>
    </g>
    <g id="xtick_4">
     <g id="line2d_4">
      <g>
       <use xlink:href="#m3ae54cb9f7" x="447.815389" y="368.3955" style="stroke: #000000; stroke-width: 0.8"/>
      </g>
     </g>
     <g id="text_4">
      <!-- 2020-10 -->
      <g transform="translate(426.923982 382.993937)scale(0.1 -0.1)">
       <use xlink:href="#DejaVuSans-32"/>
       <use xlink:href="#DejaVuSans-30" x="63.623047"/>
       <use xlink:href="#DejaVuSans-32" x="127.246094"/>
       <use xlink:href="#DejaVuSans-30" x="190.869141"/>
       <use xlink:href="#DejaVuSans-2d" x="254.492188"/>
       <use xlink:href="#DejaVuSans-31" x="290.576172"/>
       <use xlink:href="#DejaVuSans-30" x="354.199219"/>
      </g>
     </g>
    </g>
    <g id="xtick_5">
     <g id="line2d_5">
      <g>
       <use xlink:href="#m3ae54cb9f7" x="569.959138" y="368.3955" style="stroke: #000000; stroke-width: 0.8"/>
      </g>
     </g>
     <g id="text_5">
      <!-- 2021-01 -->
      <g transform="translate(549.067732 382.993937)scale(0.1 -0.1)">
       <use xlink:href="#DejaVuSans-32"/>
       <use xlink:href="#DejaVuSans-30" x="63.623047"/>
       <use xlink:href="#DejaVuSans-32" x="127.246094"/>
       <use xlink:href="#DejaVuSans-31" x="190.869141"/>
       <use xlink:href="#DejaVuSans-2d" x="254.492188"/>
       <use xlink:href="#DejaVuSans-30" x="290.576172"/>
       <use xlink:href="#DejaVuSans-31" x="354.199219"/>
      </g>
     </g>
    </g>
    <g id="xtick_6">
     <g id="line2d_6">
      <g>
       <use xlink:href="#m3ae54cb9f7" x="689.447588" y="368.3955" style="stroke: #000000; stroke-width: 0.8"/>
      </g>
     </g>
     <g id="text_6">
      <!-- 2021-04 -->
      <g transform="translate(668.556182 382.993937)scale(0.1 -0.1)">
       <use xlink:href="#DejaVuSans-32"/>
       <use xlink:href="#DejaVuSans-30" x="63.623047"/>
       <use xlink:href="#DejaVuSans-32" x="127.246094"/>
       <use xlink:href="#DejaVuSans-31" x="190.869141"/>
       <use xlink:href="#DejaVuSans-2d" x="254.492188"/>
       <use xlink:href="#DejaVuSans-30" x="290.576172"/>
       <use xlink:href="#DejaVuSans-34" x="354.199219"/>
      </g>
     </g>
    </g>
    <g id="xtick_7">
     <g id="line2d_7">
      <g>
       <use xlink:href="#m3ae54cb9f7" x="810.263688" y="368.3955" style="stroke: #000000; stroke-width: 0.8"/>
      </g>
     </g>
     <g id="text_7">
      <!-- 2021-07 -->
      <g transform="translate(789.372282 382.993937)scale(0.1 -0.1)">
       <use xlink:href="#DejaVuSans-32"/>
       <use xlink:href="#DejaVuSans-30" x="63.623047"/>
       <use xlink:href="#DejaVuSans-32" x="127.246094"/>
       <use xlink:href="#DejaVuSans-31" x="190.869141"/>
       <use xlink:href="#DejaVuSans-2d" x="254.492188"/>
       <use xlink:href="#DejaVuSans-30" x="290.576172"/>
       <use xlink:href="#DejaVuSans-37" x="354.199219"/>
      </g>
     </g>
    </g>
    <g id="xtick_8">
     <g id="line2d_8">
      <g>
       <use xlink:href="#m3ae54cb9f7" x="932.407438" y="368.3955" style="stroke: #000000; stroke-width: 0.8"/>
      </g>
     </g>
     <g id="text_8">
      <!-- 2021-10 -->
      <g transform="translate(911.516032 382.993937)scale(0.1 -0.1)">
       <use xlink:href="#DejaVuSans-32"/>
       <use xlink:href="#DejaVuSans-30" x="63.623047"/>
       <use xlink:href="#DejaVuSans-32" x="127.246094"/>
       <use xlink:href="#DejaVuSans-31" x="190.869141"/>
       <use xlink:href="#DejaVuSans-2d" x="254.492188"/>
       <use xlink:href="#DejaVuSans-31" x="290.576172"/>
       <use xlink:href="#DejaVuSans-30" x="354.199219"/>
      </g>
     </g>
    </g>
    <g id="xtick_9">
     <g id="line2d_9">
      <g>
       <use xlink:href="#m3ae54cb9f7" x="1054.551187" y="368.3955" style="stroke: #000000; stroke-width: 0.8"/>
      </g>
     </g>
     <g id="text_9">
      <!-- 2022-01 -->
      <g transform="translate(1033.659781 382.993937)scale(0.1 -0.1)">
       <use xlink:href="#DejaVuSans-32"/>
       <use xlink:href="#DejaVuSans-30" x="63.623047"/>
       <use xlink:href="#DejaVuSans-32" x="127.246094"/>
       <use xlink:href="#DejaVuSans-32" x="190.869141"/>
       <use xlink:href="#DejaVuSans-2d" x="254.492188"/>
       <use xlink:href="#DejaVuSans-30" x="290.576172"/>
       <use xlink:href="#DejaVuSans-31" x="354.199219"/>
      </g>
     </g>
    </g>
    <g id="xtick_10">
     <g id="line2d_10">
      <g>
       <use xlink:href="#m3ae54cb9f7" x="1174.039638" y="368.3955" style="stroke: #000000; stroke-width: 0.8"/>
      </g>
     </g>
     <g id="text_10">
      <!-- 2022-04 -->
      <g transform="translate(1153.148231 382.993937)scale(0.1 -0.1)">
       <use xlink:href="#DejaVuSans-32"/>
       <use xlink:href="#DejaVuSans-30" x="63.623047"/>
       <use xlink:href="#DejaVuSans-32" x="127.246094"/>
       <use xlink:href="#DejaVuSans-32" x="190.869141"/>
       <use xlink:href="#DejaVuSans-2d" x="254.492188"/>
       <use xlink:href="#DejaVuSans-30" x="290.576172"/>
       <use xlink:href="#DejaVuSans-34" x="354.199219"/>
      </g>
     </g>
    </g>
    <g id="xtick_11">
     <g id="line2d_11">
      <g>
       <use xlink:href="#m3ae54cb9f7" x="1294.855738" y="368.3955" style="stroke: #000000; stroke-width: 0.8"/>
      </g>
     </g>
     <g id="text_11">
      <!-- 2022-07 -->
      <g transform="translate(1273.964331 382.993937)scale(0.1 -0.1)">
       <use xlink:href="#DejaVuSans-32"/>
       <use xlink:href="#DejaVuSans-30" x="63.623047"/>
       <use xlink:href="#DejaVuSans-32" x="127.246094"/>
       <use xlink:href="#DejaVuSans-32" x="190.869141"/>
       <use xlink:href="#DejaVuSans-2d" x="254.492188"/>
       <use xlink:href="#DejaVuSans-30" x="290.576172"/>
       <use xlink:href="#DejaVuSans-37" x="354.199219"/>
      </g>
     </g>
    </g>
   </g>
   <g id="matplotlib.axis_2">
    <g id="ytick_1">
     <g id="line2d_12">
      <defs>
       <path id="m8b7d65f2a0" d="M 0 0 
L -3.5 0 
" style="stroke: #000000; stroke-width: 0.8"/>
      </defs>
      <g>
       <use xlink:href="#m8b7d65f2a0" x="52.375" y="341.397683" style="stroke: #000000; stroke-width: 0.8"/>
      </g>
     </g>
     <g id="text_12">
      <!-- 0 -->
      <g transform="translate(39.0125 345.196902)scale(0.1 -0.1)">
       <use xlink:href="#DejaVuSans-30"/>
      </g>
     </g>
    </g>
    <g id="ytick_2">
     <g id="line2d_13">
      <g>
       <use xlink:href="#m8b7d65f2a0" x="52.375" y="282.663024" style="stroke: #000000; stroke-width: 0.8"/>
      </g>
     </g>
     <g id="text_13">
      <!-- 20000 -->
      <g transform="translate(13.5625 286.462243)scale(0.1 -0.1)">
       <use xlink:href="#DejaVuSans-32"/>
       <use xlink:href="#DejaVuSans-30" x="63.623047"/>
       <use xlink:href="#DejaVuSans-30" x="127.246094"/>
       <use xlink:href="#DejaVuSans-30" x="190.869141"/>
       <use xlink:href="#DejaVuSans-30" x="254.492188"/>
      </g>
     </g>
    </g>
    <g id="ytick_3">
     <g id="line2d_14">
      <g>
       <use xlink:href="#m8b7d65f2a0" x="52.375" y="223.928364" style="stroke: #000000; stroke-width: 0.8"/>
      </g>
     </g>
     <g id="text_14">
      <!-- 40000 -->
      <g transform="translate(13.5625 227.727583)scale(0.1 -0.1)">
       <use xlink:href="#DejaVuSans-34"/>
       <use xlink:href="#DejaVuSans-30" x="63.623047"/>
       <use xlink:href="#DejaVuSans-30" x="127.246094"/>
       <use xlink:href="#DejaVuSans-30" x="190.869141"/>
       <use xlink:href="#DejaVuSans-30" x="254.492188"/>
      </g>
     </g>
    </g>
    <g id="ytick_4">
     <g id="line2d_15">
      <g>
       <use xlink:href="#m8b7d65f2a0" x="52.375" y="165.193705" style="stroke: #000000; stroke-width: 0.8"/>
      </g>
     </g>
     <g id="text_15">
      <!-- 60000 -->
      <g transform="translate(13.5625 168.992923)scale(0.1 -0.1)">
       <defs>
        <path id="DejaVuSans-36" d="M 2113 2584 
Q 1688 2584 1439 2293 
Q 1191 2003 1191 1497 
Q 1191 994 1439 701 
Q 1688 409 2113 409 
Q 2538 409 2786 701 
Q 3034 994 3034 1497 
Q 3034 2003 2786 2293 
Q 2538 2584 2113 2584 
z
M 3366 4563 
L 3366 3988 
Q 3128 4100 2886 4159 
Q 2644 4219 2406 4219 
Q 1781 4219 1451 3797 
Q 1122 3375 1075 2522 
Q 1259 2794 1537 2939 
Q 1816 3084 2150 3084 
Q 2853 3084 3261 2657 
Q 3669 2231 3669 1497 
Q 3669 778 3244 343 
Q 2819 -91 2113 -91 
Q 1303 -91 875 529 
Q 447 1150 447 2328 
Q 447 3434 972 4092 
Q 1497 4750 2381 4750 
Q 2619 4750 2861 4703 
Q 3103 4656 3366 4563 
z
" transform="scale(0.015625)"/>
       </defs>
       <use xlink:href="#DejaVuSans-36"/>
       <use xlink:href="#DejaVuSans-30" x="63.623047"/>
       <use xlink:href="#DejaVuSans-30" x="127.246094"/>
       <use xlink:href="#DejaVuSans-30" x="190.869141"/>
       <use xlink:href="#DejaVuSans-30" x="254.492188"/>
      </g>
     </g>
    </g>
    <g id="ytick_5">
     <g id="line2d_16">
      <g>
       <use xlink:href="#m8b7d65f2a0" x="52.375" y="106.459045" style="stroke: #000000; stroke-width: 0.8"/>
      </g>
     </g>
     <g id="text_16">
      <!-- 80000 -->
      <g transform="translate(13.5625 110.258264)scale(0.1 -0.1)">
       <defs>
        <path id="DejaVuSans-38" d="M 2034 2216 
Q 1584 2216 1326 1975 
Q 1069 1734 1069 1313 
Q 1069 891 1326 650 
Q 1584 409 2034 409 
Q 2484 409 2743 651 
Q 3003 894 3003 1313 
Q 3003 1734 2745 1975 
Q 2488 2216 2034 2216 
z
M 1403 2484 
Q 997 2584 770 2862 
Q 544 3141 544 3541 
Q 544 4100 942 4425 
Q 1341 4750 2034 4750 
Q 2731 4750 3128 4425 
Q 3525 4100 3525 3541 
Q 3525 3141 3298 2862 
Q 3072 2584 2669 2484 
Q 3125 2378 3379 2068 
Q 3634 1759 3634 1313 
Q 3634 634 3220 271 
Q 2806 -91 2034 -91 
Q 1263 -91 848 271 
Q 434 634 434 1313 
Q 434 1759 690 2068 
Q 947 2378 1403 2484 
z
M 1172 3481 
Q 1172 3119 1398 2916 
Q 1625 2713 2034 2713 
Q 2441 2713 2670 2916 
Q 2900 3119 2900 3481 
Q 2900 3844 2670 4047 
Q 2441 4250 2034 4250 
Q 1625 4250 1398 4047 
Q 1172 3844 1172 3481 
z
" transform="scale(0.015625)"/>
       </defs>
       <use xlink:href="#DejaVuSans-38"/>
       <use xlink:href="#DejaVuSans-30" x="63.623047"/>
       <use xlink:href="#DejaVuSans-30" x="127.246094"/>
       <use xlink:href="#DejaVuSans-30" x="190.869141"/>
       <use xlink:href="#DejaVuSans-30" x="254.492188"/>
      </g>
     </g>
    </g>
    <g id="ytick_6">
     <g id="line2d_17">
      <g>
       <use xlink:href="#m8b7d65f2a0" x="52.375" y="47.724386" style="stroke: #000000; stroke-width: 0.8"/>
      </g>
     </g>
     <g id="text_17">
      <!-- 100000 -->
      <g transform="translate(7.2 51.523604)scale(0.1 -0.1)">
       <use xlink:href="#DejaVuSans-31"/>
       <use xlink:href="#DejaVuSans-30" x="63.623047"/>
       <use xlink:href="#DejaVuSans-30" x="127.246094"/>
       <use xlink:href="#DejaVuSans-30" x="190.869141"/>
       <use xlink:href="#DejaVuSans-30" x="254.492188"/>
       <use xlink:href="#DejaVuSans-30" x="318.115234"/>
      </g>
     </g>
    </g>
   </g>
   <g id="line2d_18">
    <path d="M 113.247727 341.397683 
L 184.940798 341.356569 
L 188.923746 340.936616 
L 190.251395 340.945426 
L 191.579045 339.911696 
L 192.906694 340.449119 
L 194.234344 339.964558 
L 196.889643 339.741366 
L 199.544942 338.337608 
L 200.872591 338.863283 
L 202.20024 338.314114 
L 203.52789 338.026314 
L 204.855539 336.211413 
L 206.183189 336.954406 
L 207.510838 335.550648 
L 208.838488 336.95147 
L 211.493787 336.839874 
L 212.821436 336.041082 
L 214.149085 337.192282 
L 216.804384 338.513812 
L 218.132034 337.811932 
L 219.459683 339.391895 
L 220.787333 337.171725 
L 222.114982 337.227523 
L 224.770281 338.983689 
L 226.097931 337.700337 
L 227.42558 339.030677 
L 228.753229 339.46825 
L 230.080879 339.529921 
L 231.408528 339.271489 
L 232.736178 337.415473 
L 234.063827 337.165851 
L 235.391477 337.036635 
L 236.719126 340.049723 
L 238.046776 339.192197 
L 239.374425 339.946937 
L 240.702074 338.073302 
L 242.029724 337.835426 
L 243.357373 338.170214 
L 244.685023 338.325861 
L 246.012672 338.754624 
L 247.340322 339.568099 
L 248.667971 340.513727 
L 251.32327 338.977815 
L 252.65092 339.418325 
L 253.978569 339.17164 
L 255.306218 339.911696 
L 256.633868 340.193623 
L 257.961517 339.797164 
L 259.289167 339.541668 
L 260.616816 339.76486 
L 261.944466 337.438967 
L 263.272115 339.509364 
L 264.599765 339.914633 
L 265.927414 339.49468 
L 267.255063 338.778118 
L 268.582713 339.606276 
L 269.910362 338.880903 
L 271.238012 339.441819 
L 272.565661 339.767797 
L 273.893311 339.920507 
L 276.54861 340.733982 
L 277.876259 340.361017 
L 279.203908 339.582782 
L 280.531558 339.858835 
L 281.859207 339.292046 
L 283.186857 340.246484 
L 284.514506 339.970431 
L 285.842156 340.760412 
L 288.497455 340.173066 
L 289.825104 340.452055 
L 291.152754 338.924954 
L 292.480403 341.124567 
L 293.808052 341.236163 
L 295.135702 341.001224 
L 297.791001 341.353632 
L 299.11865 340.613576 
L 301.773949 340.916059 
L 303.101599 340.757476 
L 304.429248 341.306645 
L 305.756897 340.857324 
L 309.739846 340.5196 
L 311.067495 340.082027 
L 312.395145 340.910186 
L 313.722794 340.675247 
L 315.050444 340.692867 
L 316.378093 340.346333 
L 317.705743 340.123141 
L 319.033392 340.399194 
L 320.361041 340.369827 
L 321.688691 340.613576 
L 323.01634 340.584208 
L 324.34399 339.914633 
L 325.671639 340.337523 
L 326.999289 339.667948 
L 329.654588 340.20537 
L 332.309886 340.440308 
L 333.637536 339.538731 
L 334.965185 339.48587 
L 336.292835 339.894076 
L 337.620484 339.571035 
L 338.948134 339.386021 
L 340.275783 340.20537 
L 341.603433 340.158382 
L 342.931082 339.441819 
L 344.258732 338.31705 
L 345.586381 338.678269 
L 346.91403 339.183387 
L 348.24168 339.209817 
L 349.569329 339.841215 
L 350.896979 339.850025 
L 352.224628 339.447693 
L 354.879927 339.339034 
L 357.535226 339.78248 
L 358.862875 338.346418 
L 360.190525 339.894076 
L 362.845824 338.413963 
L 364.173473 339.02774 
L 366.828772 339.17164 
L 368.156422 340.146635 
L 370.811721 339.04536 
L 372.13937 339.289109 
L 374.794669 339.007183 
L 376.122318 339.280299 
L 377.449968 339.826531 
L 378.777617 339.694378 
L 380.105267 338.734067 
L 381.432916 339.999798 
L 382.760566 337.970516 
L 384.088215 338.848599 
L 385.415864 338.29062 
L 386.743514 339.996862 
L 388.071163 339.958684 
L 389.398813 339.479997 
L 390.726462 339.374274 
L 392.054112 339.850025 
L 393.381761 341.397683 
L 394.709411 337.209902 
L 396.03706 339.154019 
L 397.36471 338.819232 
L 398.692359 338.60485 
L 400.020008 338.922017 
L 401.347658 338.863283 
L 402.675307 339.068854 
L 404.002957 341.397683 
L 405.330606 337.315625 
L 406.658256 339.932254 
L 407.985905 339.062981 
L 409.313555 339.49468 
L 410.641204 339.124652 
L 411.968853 338.305304 
L 413.296503 338.766371 
L 414.624152 341.397683 
L 415.951802 337.838363 
L 417.279451 339.932254 
L 418.607101 338.549052 
L 419.93475 338.537305 
L 421.2624 337.271574 
L 422.590049 339.02774 
L 423.917699 341.397683 
L 425.245348 337.788439 
L 426.572997 339.374274 
L 427.900647 339.148146 
L 429.228296 338.519685 
L 431.883595 339.673821 
L 433.211245 341.397683 
L 434.538894 336.772329 
L 435.866544 339.356654 
L 438.521842 338.231885 
L 441.177141 338.472697 
L 442.504791 341.397683 
L 443.83244 337.494765 
L 445.16009 338.114416 
L 446.487739 337.891224 
L 447.815389 338.466824 
L 449.143038 338.507938 
L 450.470688 337.653349 
L 451.798337 341.397683 
L 453.125986 337.124737 
L 454.453636 338.017504 
L 455.781285 337.829553 
L 457.108935 337.28332 
L 458.436584 337.512386 
L 459.764234 336.590251 
L 461.091883 341.397683 
L 462.419533 335.691611 
L 463.747182 337.092433 
L 465.074831 336.719468 
L 466.402481 334.179194 
L 469.05778 335.565332 
L 470.385429 341.397683 
L 471.713079 332.534623 
L 473.040728 335.903056 
L 474.368378 335.882499 
L 475.696027 334.925124 
L 477.023677 335.389128 
L 478.351326 331.148485 
L 479.678975 341.397683 
L 481.006625 329.483358 
L 482.334274 333.541923 
L 483.661924 330.854812 
L 484.989573 329.330648 
L 486.317223 331.574312 
L 487.644872 329.59789 
L 488.972522 341.397683 
L 490.300171 321.075491 
L 491.62782 331.304132 
L 492.95547 328.484868 
L 494.283119 323.474802 
L 495.610769 328.928315 
L 496.938418 322.120968 
L 498.266068 341.397683 
L 499.593717 314.276954 
L 500.921367 321.00501 
L 502.249016 321.956511 
L 503.576666 319.927229 
L 504.904315 314.441411 
L 506.231964 319.577757 
L 507.559614 341.397683 
L 508.887263 302.744404 
L 510.214913 318.238607 
L 511.542562 323.137078 
L 512.870212 317.953744 
L 514.197861 311.619211 
L 515.525511 318.373697 
L 516.85316 341.397683 
L 518.180809 306.324281 
L 519.508459 321.48076 
L 520.836108 327.633216 
L 522.163758 341.397683 
L 523.491407 290.392505 
L 526.146706 341.397683 
L 527.474356 309.710335 
L 528.802005 322.276615 
L 530.129655 319.568947 
L 531.457304 318.030099 
L 532.784953 313.718975 
L 534.112603 322.872772 
L 535.440252 341.397683 
L 536.767902 312.547219 
L 538.095551 321.792054 
L 539.423201 325.709656 
L 540.75085 322.890392 
L 542.0785 324.875624 
L 543.406149 327.263188 
L 544.733798 341.397683 
L 546.061448 319.016841 
L 547.389097 325.565756 
L 548.716747 327.759495 
L 550.044396 328.061979 
L 551.372046 328.126587 
L 552.699695 329.119203 
L 554.027345 341.397683 
L 555.354994 326.540751 
L 556.682644 331.078004 
L 558.010293 330.179363 
L 559.337942 341.397683 
L 560.665592 341.397683 
L 561.993241 318.265038 
L 563.320891 341.397683 
L 564.64854 330.972281 
L 565.97619 329.759411 
L 567.303839 327.354226 
L 568.631489 341.397683 
L 569.959138 341.397683 
L 571.286787 313.49872 
L 572.614437 341.397683 
L 573.942086 325.275019 
L 575.269736 332.496446 
L 576.597385 327.136908 
L 577.925035 328.919505 
L 579.252684 329.920931 
L 580.580334 332.887031 
L 581.907983 341.397683 
L 583.235632 326.33518 
L 584.563282 334.149826 
L 585.890931 332.211583 
L 587.218581 331.721148 
L 588.54623 332.584548 
L 589.87388 334.904567 
L 591.201529 341.397683 
L 592.529179 331.580185 
L 593.856828 336.860431 
L 595.184478 332.011885 
L 596.512127 334.017673 
L 597.839776 333.944255 
L 599.167426 336.035209 
L 600.495075 341.397683 
L 601.822725 331.568438 
L 603.150374 335.303962 
L 604.478024 335.33333 
L 605.805673 334.77535 
L 607.133323 335.116012 
L 608.460972 336.96028 
L 609.788621 341.397683 
L 611.116271 333.844406 
L 612.44392 337.189345 
L 613.77157 336.355313 
L 615.099219 335.861942 
L 616.426869 336.246654 
L 617.754518 337.914718 
L 619.082168 341.397683 
L 620.409817 335.148316 
L 621.737467 338.701762 
L 623.065116 337.759071 
L 624.392765 336.972027 
L 625.720415 336.889798 
L 627.048064 338.625407 
L 628.375714 341.397683 
L 629.703363 337.133547 
L 631.031013 338.096795 
L 632.358662 337.756134 
L 633.686312 337.870667 
L 635.013961 337.071876 
L 636.34161 338.980752 
L 637.66926 341.397683 
L 638.996909 336.525643 
L 640.324559 336.158552 
L 641.652208 336.822253 
L 642.979858 336.704784 
L 644.307507 337.70621 
L 645.635157 337.212839 
L 646.962806 341.397683 
L 648.290456 335.920676 
L 649.618105 336.575568 
L 650.945754 336.390554 
L 652.273404 336.032272 
L 653.601053 336.137995 
L 654.928703 336.428731 
L 656.256352 341.397683 
L 657.584002 334.693122 
L 658.911651 336.889798 
L 660.239301 333.521366 
L 661.56695 333.853216 
L 662.894599 332.751941 
L 664.222249 335.515407 
L 665.549898 341.397683 
L 666.877548 330.15587 
L 668.205197 333.826786 
L 669.532847 330.282149 
L 670.860496 332.238013 
L 672.188146 328.426134 
L 673.515795 331.838618 
L 674.843445 341.397683 
L 676.171094 324.458608 
L 677.498743 328.064916 
L 680.154042 324.238353 
L 681.481692 323.595208 
L 682.809341 325.994519 
L 684.136991 341.397683 
L 685.46464 314.268144 
L 686.79229 322.878645 
L 688.119939 320.526322 
L 689.447588 320.552753 
L 690.775238 323.333839 
L 692.102887 314.109561 
L 693.430537 341.397683 
L 694.758186 308.852808 
L 696.085836 323.339712 
L 697.413485 313.883432 
L 698.741135 316.32092 
L 700.068784 315.454584 
L 701.396434 319.257653 
L 702.724083 341.397683 
L 704.051732 310.40634 
L 705.379382 311.216879 
L 706.707031 313.942167 
L 708.034681 320.279637 
L 709.36233 312.470864 
L 710.68998 323.554094 
L 712.017629 341.397683 
L 713.345279 314.464905 
L 714.672928 322.012309 
L 716.000577 323.856577 
L 717.328227 325.213348 
L 718.655876 324.834509 
L 719.983526 326.114925 
L 721.311175 341.397683 
L 722.638825 320.605614 
L 723.966474 327.935699 
L 725.294124 326.881412 
L 726.621773 329.072215 
L 727.949423 330.053084 
L 729.277072 330.508277 
L 730.604721 341.397683 
L 731.932371 325.078258 
L 733.26002 332.235076 
L 734.58767 332.449458 
L 735.915319 329.318901 
L 738.570618 333.829722 
L 739.898268 341.397683 
L 741.225917 332.625662 
L 742.553566 333.56248 
L 743.881216 333.277617 
L 745.208865 334.437626 
L 746.536515 335.224671 
L 747.864164 337.019014 
L 749.191814 341.397683 
L 750.519463 333.832659 
L 751.847113 336.889798 
L 753.174762 335.671054 
L 754.502412 336.787013 
L 755.830061 337.700337 
L 757.15771 337.855983 
L 758.48536 341.397683 
L 759.813009 336.878051 
L 761.140659 338.540242 
L 762.468308 338.29943 
L 763.795958 339.529921 
L 765.123607 339.242121 
L 766.451257 339.726682 
L 767.778906 341.397683 
L 769.106555 341.397683 
L 770.434205 338.507938 
L 771.761854 339.938127 
L 774.417153 339.770733 
L 775.744803 340.137825 
L 777.072452 341.397683 
L 778.400102 340.040913 
L 779.727751 340.334586 
L 781.055401 340.499043 
L 782.38305 340.334586 
L 783.710699 340.431498 
L 785.038349 340.722235 
L 786.365998 341.397683 
L 787.693648 340.255294 
L 789.021297 340.751602 
L 790.348947 340.748665 
L 793.004246 340.939553 
L 794.331895 341.397683 
L 795.659544 341.397683 
L 796.987194 340.346333 
L 798.314843 341.004161 
L 799.642493 340.704614 
L 800.970142 340.883755 
L 802.297792 341.200922 
L 803.625441 341.397683 
L 804.953091 341.397683 
L 806.28074 340.363953 
L 807.60839 340.692867 
L 808.936039 340.49317 
L 811.591338 341.004161 
L 812.918987 341.397683 
L 815.574286 341.397683 
L 816.901936 339.832405 
L 818.229585 341.397683 
L 819.557235 341.397683 
L 820.884884 338.939638 
L 822.212533 341.397683 
L 824.867832 341.397683 
L 826.195482 339.215691 
L 827.523131 341.397683 
L 828.850781 341.397683 
L 830.17843 338.625407 
L 831.50608 341.397683 
L 834.161379 341.397683 
L 835.489028 337.879477 
L 836.816677 341.397683 
L 838.144327 341.397683 
L 839.471976 336.317135 
L 840.799626 341.397683 
L 843.454925 341.397683 
L 844.782574 335.321583 
L 846.110224 341.397683 
L 847.437873 341.397683 
L 848.765522 333.536049 
L 850.093172 341.397683 
L 852.748471 341.397683 
L 854.07612 332.643282 
L 855.40377 341.397683 
L 856.731419 341.397683 
L 858.059069 328.141271 
L 859.386718 341.397683 
L 860.714368 341.397683 
L 862.042017 332.352546 
L 863.369666 341.397683 
L 864.697316 331.641856 
L 866.024965 341.397683 
L 867.352615 330.746153 
L 868.680264 341.397683 
L 870.007914 341.397683 
L 871.335563 329.973792 
L 872.663213 341.397683 
L 873.990862 331.685907 
L 875.318511 341.397683 
L 876.646161 327.166275 
L 877.97381 341.397683 
L 879.30146 341.397683 
L 880.629109 328.813783 
L 881.956759 341.397683 
L 883.284408 326.141356 
L 884.612058 341.397683 
L 885.939707 328.017928 
L 887.267356 341.397683 
L 888.595006 341.397683 
L 889.922655 324.85213 
L 891.250305 341.397683 
L 892.577954 325.75077 
L 893.905604 341.397683 
L 895.233253 325.856492 
L 896.560903 341.397683 
L 899.216202 341.397683 
L 900.543851 321.110732 
L 903.19915 341.397683 
L 904.526799 320.775944 
L 905.854449 341.397683 
L 907.182098 341.397683 
L 908.509748 320.843489 
L 909.837397 341.397683 
L 911.165047 318.617446 
L 912.492696 341.397683 
L 913.820345 321.762687 
L 915.147995 341.397683 
L 916.475644 341.397683 
L 917.803294 317.307663 
L 919.130943 341.397683 
L 920.458593 318.731978 
L 921.786242 341.397683 
L 923.113892 320.585057 
L 924.441541 341.397683 
L 925.769191 341.397683 
L 927.09684 315.792309 
L 928.424489 341.397683 
L 929.752139 315.865727 
L 931.079788 341.397683 
L 932.407438 313.924546 
L 933.735087 341.397683 
L 935.062737 341.397683 
L 936.390386 312.561902 
L 937.718036 341.397683 
L 939.045685 312.999475 
L 940.373334 341.397683 
L 941.700984 311.672072 
L 943.028633 341.397683 
L 944.356283 341.397683 
L 945.683932 312.558966 
L 947.011582 341.397683 
L 948.339231 309.457775 
L 949.666881 341.397683 
L 950.99453 312.062658 
L 952.32218 341.397683 
L 953.649829 341.397683 
L 954.977478 313.965661 
L 956.305128 341.397683 
L 957.632777 315.586737 
L 958.960427 341.397683 
L 960.288076 314.444348 
L 961.615726 341.397683 
L 962.943375 341.397683 
L 964.271025 316.224008 
L 965.598674 341.397683 
L 966.926323 312.658814 
L 968.253973 341.397683 
L 969.581622 312.846765 
L 970.909272 341.397683 
L 972.236921 341.397683 
L 973.564571 310.811609 
L 974.89222 341.397683 
L 976.21987 306.221496 
L 977.547519 341.397683 
L 978.875169 305.689947 
L 980.202818 341.397683 
L 981.530467 341.397683 
L 982.858117 311.827719 
L 984.185766 341.397683 
L 985.513416 313.895179 
L 986.841065 341.397683 
L 988.168715 289.185508 
L 989.496364 341.397683 
L 990.824014 341.397683 
L 992.151663 273.36239 
L 993.479312 341.397683 
L 994.806962 288.821353 
L 996.134611 341.397683 
L 997.462261 281.250455 
L 998.78991 341.397683 
L 1000.11756 341.397683 
L 1001.445209 286.269332 
L 1002.772859 341.397683 
L 1004.100508 282.548491 
L 1005.428158 341.397683 
L 1009.411106 341.397683 
L 1010.738755 259.688962 
L 1012.066405 341.397683 
L 1013.394054 282.956697 
L 1014.721704 341.397683 
L 1016.049353 275.697093 
L 1017.377003 341.397683 
L 1018.704652 341.397683 
L 1020.032301 289.059228 
L 1021.359951 341.397683 
L 1022.6876 286.64817 
L 1024.01525 341.397683 
L 1025.342899 300.906009 
L 1026.670549 341.397683 
L 1027.998198 341.397683 
L 1029.325848 289.361712 
L 1030.653497 341.397683 
L 1031.981147 299.16159 
L 1033.308796 341.397683 
L 1034.636445 298.926651 
L 1035.964095 341.397683 
L 1037.291744 341.397683 
L 1038.619394 296.697671 
L 1039.947043 341.397683 
L 1041.274693 293.775621 
L 1042.602342 341.397683 
L 1046.58529 341.397683 
L 1047.91294 237.237638 
L 1049.240589 341.397683 
L 1050.568239 255.413078 
L 1051.895888 341.397683 
L 1055.878837 341.397683 
L 1057.206486 148.874279 
L 1058.534136 341.397683 
L 1059.861785 244.908385 
L 1061.189434 341.397683 
L 1062.517084 203.606172 
L 1063.844733 341.397683 
L 1065.172383 341.397683 
L 1066.500032 196.643178 
L 1067.827682 341.397683 
L 1069.155331 236.383049 
L 1070.482981 341.397683 
L 1071.81063 214.096182 
L 1073.138279 341.397683 
L 1077.121228 341.397683 
L 1078.448877 50.8755 
L 1079.776527 341.397683 
L 1081.104176 220.395474 
L 1082.431826 341.283151 
L 1083.759475 341.397683 
L 1085.087125 211.764416 
L 1086.414774 341.397683 
L 1087.742423 237.792681 
L 1089.070073 341.397683 
L 1090.397722 248.790746 
L 1091.725372 341.397683 
L 1093.053021 341.397683 
L 1094.380671 273.015856 
L 1095.70832 341.397683 
L 1097.03597 269.315572 
L 1098.363619 341.397683 
L 1099.691268 306.039418 
L 1101.018918 341.397683 
L 1102.346567 341.397683 
L 1103.674217 308.791137 
L 1105.001866 341.397683 
L 1106.329516 309.921779 
L 1107.657165 341.397683 
L 1108.984815 317.953744 
L 1110.312464 341.397683 
L 1111.640114 341.397683 
L 1112.967763 323.048976 
L 1114.295412 341.397683 
L 1115.623062 322.884519 
L 1116.950711 341.397683 
L 1118.278361 324.455671 
L 1119.60601 341.435861 
L 1123.588959 341.397683 
L 1124.916608 319.941912 
L 1126.244257 341.397683 
L 1127.571907 319.410364 
L 1128.899556 341.397683 
L 1130.227206 341.397683 
L 1131.554855 334.220308 
L 1132.882505 341.397683 
L 1134.210154 332.235076 
L 1135.537804 341.397683 
L 1136.865453 334.619704 
L 1138.193103 341.397683 
L 1139.520752 341.397683 
L 1140.848401 335.932423 
L 1142.176051 341.397683 
L 1143.5037 335.039656 
L 1144.83135 341.397683 
L 1146.158999 335.715105 
L 1147.486649 341.397683 
L 1148.814298 341.397683 
L 1150.141948 336.851621 
L 1151.469597 341.397683 
L 1152.797246 335.248165 
L 1154.124896 341.397683 
L 1155.452545 332.561054 
L 1156.780195 341.397683 
L 1158.107844 341.397683 
L 1159.435494 336.35825 
L 1160.763143 341.397683 
L 1162.090793 335.400875 
L 1163.418442 341.397683 
L 1164.746092 335.844321 
L 1166.073741 341.397683 
L 1167.40139 341.397683 
L 1168.72904 337.145294 
L 1170.056689 341.397683 
L 1171.384339 335.568268 
L 1172.711988 341.397683 
L 1174.039638 335.568268 
L 1175.367287 341.397683 
L 1179.350235 341.397683 
L 1180.677885 330.358504 
L 1182.005534 341.397683 
L 1188.643782 341.397683 
L 1189.971431 318.711421 
L 1191.29908 341.397683 
L 1197.937328 341.397683 
L 1199.264977 310.638342 
L 1200.592627 341.397683 
L 1207.230874 341.397683 
L 1208.558523 298.867916 
L 1209.886173 341.397683 
L 1216.52442 341.397683 
L 1217.852069 285.761277 
L 1219.179719 341.397683 
L 1225.817966 341.397683 
L 1227.145616 260.035496 
L 1228.473265 341.397683 
L 1235.111512 341.397683 
L 1236.439162 255.448319 
L 1237.766811 341.397683 
L 1244.405058 341.397683 
L 1245.732708 265.136601 
L 1247.060357 341.397683 
L 1253.698605 341.397683 
L 1255.026254 284.028605 
L 1256.353904 341.397683 
L 1262.992151 341.397683 
L 1264.3198 287.20615 
L 1265.64745 341.397683 
L 1272.285697 341.397683 
L 1273.613346 295.649257 
L 1274.940996 341.397683 
L 1281.579243 341.397683 
L 1282.906893 310.030438 
L 1284.234542 341.397683 
L 1289.54514 341.397683 
L 1290.872789 299.246755 
L 1292.200439 341.397683 
L 1298.838686 341.397683 
L 1300.166335 302.920608 
L 1301.493985 341.397683 
L 1308.132232 341.397683 
L 1309.459882 292.410041 
L 1310.787531 341.397683 
L 1313.44283 341.397683 
L 1313.44283 341.397683 
" clip-path="url(#p07d8d232ab)" style="fill: none; stroke: #0000ff; stroke-width: 1.5; stroke-linecap: square"/>
   </g>
   <g id="line2d_19">
    <path d="M 1074.465929 203.30659 
L 1075.793578 339.03844 
L 1077.121228 258.552563 
L 1078.448877 316.850224 
L 1079.776527 225.239269 
L 1081.104176 319.110056 
L 1082.431826 321.578648 
L 1083.759475 284.252205 
L 1085.087125 315.97539 
L 1086.414774 134.06834 
L 1087.742423 330.12594 
L 1089.070073 234.586778 
L 1090.397722 332.950504 
L 1091.725372 333.990196 
L 1093.053021 251.285281 
L 1094.380671 337.275053 
L 1095.70832 220.817522 
L 1097.03597 343.111241 
L 1098.363619 260.814139 
L 1099.691268 347.937319 
L 1101.018918 347.306784 
L 1102.346567 282.092623 
L 1103.674217 349.68458 
L 1105.001866 271.253788 
L 1106.329516 353.10449 
L 1107.657165 305.707281 
L 1108.984815 353.2755 
L 1110.312464 352.05124 
L 1111.640114 312.014253 
L 1112.967763 352.211729 
L 1114.295412 308.527182 
L 1115.623062 352.715775 
L 1116.950711 323.642051 
L 1118.278361 351.69137 
L 1119.60601 350.638866 
L 1120.93366 326.940464 
L 1122.261309 351.324652 
L 1123.588959 326.272686 
L 1124.916608 349.677363 
L 1126.244257 330.465635 
L 1127.571907 347.71582 
L 1128.899556 347.06883 
L 1130.227206 339.056505 
L 1131.554855 346.046309 
L 1132.882505 326.038635 
L 1134.210154 346.333551 
L 1135.537804 327.860135 
L 1136.865453 346.657347 
L 1138.193103 346.138856 
L 1139.520752 339.330644 
L 1140.848401 345.373606 
L 1142.176051 333.600263 
L 1143.5037 345.217095 
L 1144.83135 335.272656 
L 1146.158999 344.971427 
L 1147.486649 344.640531 
L 1148.814298 339.289168 
L 1150.141948 344.142446 
L 1151.469597 336.70474 
L 1152.797246 343.805056 
L 1154.124896 337.365636 
L 1155.452545 343.141277 
L 1156.780195 343.010671 
L 1158.107844 338.761113 
L 1159.435494 342.693435 
L 1160.763143 336.903555 
L 1162.090793 342.508468 
L 1163.418442 335.590061 
L 1164.746092 342.534716 
L 1166.073741 342.470487 
L 1167.40139 338.313872 
L 1168.72904 342.346042 
L 1170.056689 337.165442 
L 1171.384339 342.188552 
L 1172.711988 336.890251 
L 1174.039638 342.078148 
L 1175.367287 342.063679 
L 1176.694937 338.391204 
L 1178.022586 342.437043 
L 1179.350235 337.525013 
L 1180.677885 341.664571 
L 1182.005534 336.792294 
L 1183.333184 342.25504 
L 1184.660833 342.221403 
L 1185.988483 340.992298 
L 1187.316132 342.295028 
L 1188.643782 334.651817 
L 1189.971431 340.584724 
L 1191.29908 339.126096 
L 1192.62673 341.038937 
L 1193.954379 341.137444 
L 1195.282029 340.832335 
L 1196.609678 341.346218 
L 1197.937328 326.561746 
L 1199.264977 339.740845 
L 1200.592627 339.454 
L 1201.920276 340.251112 
L 1203.247926 340.43522 
L 1204.575575 340.47058 
L 1205.903224 340.759593 
L 1207.230874 319.267573 
L 1208.558523 338.731622 
L 1209.886173 338.908339 
L 1211.213822 339.410821 
L 1215.196771 340.155106 
L 1216.52442 310.098476 
L 1217.852069 337.765006 
L 1223.162667 339.297706 
L 1224.490317 339.599224 
L 1225.817966 299.63571 
L 1227.145616 335.61123 
L 1229.800915 336.914913 
L 1232.456213 337.94416 
L 1233.783863 338.383444 
L 1235.111512 281.272783 
L 1236.439162 336.024244 
L 1239.094461 337.241703 
L 1241.74976 338.206843 
L 1243.077409 338.614542 
L 1244.405058 273.318218 
L 1245.732708 338.147087 
L 1248.388007 338.927878 
L 1252.370955 339.808562 
L 1253.698605 276.985945 
L 1255.026254 340.86546 
L 1261.664501 341.337947 
L 1262.992151 289.493036 
L 1264.3198 341.215049 
L 1270.958047 341.534602 
L 1272.285697 295.050668 
L 1273.613346 341.703838 
L 1280.251594 341.80961 
L 1281.579243 301.658524 
L 1282.906893 342.79352 
L 1289.54514 342.422727 
L 1290.872789 307.543971 
L 1292.200439 341.528962 
L 1297.511036 341.682626 
L 1298.838686 318.750849 
L 1301.493985 341.33351 
L 1306.804583 341.559249 
L 1308.132232 313.118735 
L 1309.459882 336.163296 
L 1310.787531 340.039063 
L 1313.44283 340.430855 
L 1313.44283 340.430855 
" clip-path="url(#p07d8d232ab)" style="fill: none; stroke: #ffa500; stroke-width: 1.5; stroke-linecap: square"/>
   </g>
   <g id="line2d_20">
    <path d="M 1313.44283 340.430855 
L 1314.770479 340.490393 
L 1316.098129 340.549931 
L 1317.425778 304.592253 
L 1318.753428 339.6049 
L 1320.081077 340.728545 
L 1321.408727 340.788083 
L 1322.736376 340.320973 
L 1324.064025 340.412942 
L 1325.391675 340.504911 
L 1326.719324 309.176009 
L 1328.046974 339.760539 
L 1329.374623 340.78082 
L 1330.702273 340.872789 
" clip-path="url(#p07d8d232ab)" style="fill: none; stroke: #ff0000; stroke-width: 1.5; stroke-linecap: square"/>
   </g>
   <g id="patch_3">
    <path d="M 52.375 368.3955 
L 52.375 35.7555 
" style="fill: none; stroke: #000000; stroke-width: 0.8; stroke-linejoin: miter; stroke-linecap: square"/>
   </g>
   <g id="patch_4">
    <path d="M 1391.575 368.3955 
L 1391.575 35.7555 
" style="fill: none; stroke: #000000; stroke-width: 0.8; stroke-linejoin: miter; stroke-linecap: square"/>
   </g>
   <g id="patch_5">
    <path d="M 52.375 368.3955 
L 1391.575 368.3955 
" style="fill: none; stroke: #000000; stroke-width: 0.8; stroke-linejoin: miter; stroke-linecap: square"/>
   </g>
   <g id="patch_6">
    <path d="M 52.375 35.7555 
L 1391.575 35.7555 
" style="fill: none; stroke: #000000; stroke-width: 0.8; stroke-linejoin: miter; stroke-linecap: square"/>
   </g>
   <g id="text_18">
    <!-- Daily Confirmed Cases Forecasting - Michigan -->
    <g transform="translate(584.574063 16.318125)scale(0.12 -0.12)">
     <defs>
      <path id="DejaVuSans-44" d="M 1259 4147 
L 1259 519 
L 2022 519 
Q 2988 519 3436 956 
Q 3884 1394 3884 2338 
Q 3884 3275 3436 3711 
Q 2988 4147 2022 4147 
L 1259 4147 
z
M 628 4666 
L 1925 4666 
Q 3281 4666 3915 4102 
Q 4550 3538 4550 2338 
Q 4550 1131 3912 565 
Q 3275 0 1925 0 
L 628 0 
L 628 4666 
z
" transform="scale(0.015625)"/>
      <path id="DejaVuSans-61" d="M 2194 1759 
Q 1497 1759 1228 1600 
Q 959 1441 959 1056 
Q 959 750 1161 570 
Q 1363 391 1709 391 
Q 2188 391 2477 730 
Q 2766 1069 2766 1631 
L 2766 1759 
L 2194 1759 
z
M 3341 1997 
L 3341 0 
L 2766 0 
L 2766 531 
Q 2569 213 2275 61 
Q 1981 -91 1556 -91 
Q 1019 -91 701 211 
Q 384 513 384 1019 
Q 384 1609 779 1909 
Q 1175 2209 1959 2209 
L 2766 2209 
L 2766 2266 
Q 2766 2663 2505 2880 
Q 2244 3097 1772 3097 
Q 1472 3097 1187 3025 
Q 903 2953 641 2809 
L 641 3341 
Q 956 3463 1253 3523 
Q 1550 3584 1831 3584 
Q 2591 3584 2966 3190 
Q 3341 2797 3341 1997 
z
" transform="scale(0.015625)"/>
      <path id="DejaVuSans-69" d="M 603 3500 
L 1178 3500 
L 1178 0 
L 603 0 
L 603 3500 
z
M 603 4863 
L 1178 4863 
L 1178 4134 
L 603 4134 
L 603 4863 
z
" transform="scale(0.015625)"/>
      <path id="DejaVuSans-6c" d="M 603 4863 
L 1178 4863 
L 1178 0 
L 603 0 
L 603 4863 
z
" transform="scale(0.015625)"/>
      <path id="DejaVuSans-79" d="M 2059 -325 
Q 1816 -950 1584 -1140 
Q 1353 -1331 966 -1331 
L 506 -1331 
L 506 -850 
L 844 -850 
Q 1081 -850 1212 -737 
Q 1344 -625 1503 -206 
L 1606 56 
L 191 3500 
L 800 3500 
L 1894 763 
L 2988 3500 
L 3597 3500 
L 2059 -325 
z
" transform="scale(0.015625)"/>
      <path id="DejaVuSans-20" transform="scale(0.015625)"/>
      <path id="DejaVuSans-43" d="M 4122 4306 
L 4122 3641 
Q 3803 3938 3442 4084 
Q 3081 4231 2675 4231 
Q 1875 4231 1450 3742 
Q 1025 3253 1025 2328 
Q 1025 1406 1450 917 
Q 1875 428 2675 428 
Q 3081 428 3442 575 
Q 3803 722 4122 1019 
L 4122 359 
Q 3791 134 3420 21 
Q 3050 -91 2638 -91 
Q 1578 -91 968 557 
Q 359 1206 359 2328 
Q 359 3453 968 4101 
Q 1578 4750 2638 4750 
Q 3056 4750 3426 4639 
Q 3797 4528 4122 4306 
z
" transform="scale(0.015625)"/>
      <path id="DejaVuSans-6f" d="M 1959 3097 
Q 1497 3097 1228 2736 
Q 959 2375 959 1747 
Q 959 1119 1226 758 
Q 1494 397 1959 397 
Q 2419 397 2687 759 
Q 2956 1122 2956 1747 
Q 2956 2369 2687 2733 
Q 2419 3097 1959 3097 
z
M 1959 3584 
Q 2709 3584 3137 3096 
Q 3566 2609 3566 1747 
Q 3566 888 3137 398 
Q 2709 -91 1959 -91 
Q 1206 -91 779 398 
Q 353 888 353 1747 
Q 353 2609 779 3096 
Q 1206 3584 1959 3584 
z
" transform="scale(0.015625)"/>
      <path id="DejaVuSans-6e" d="M 3513 2113 
L 3513 0 
L 2938 0 
L 2938 2094 
Q 2938 2591 2744 2837 
Q 2550 3084 2163 3084 
Q 1697 3084 1428 2787 
Q 1159 2491 1159 1978 
L 1159 0 
L 581 0 
L 581 3500 
L 1159 3500 
L 1159 2956 
Q 1366 3272 1645 3428 
Q 1925 3584 2291 3584 
Q 2894 3584 3203 3211 
Q 3513 2838 3513 2113 
z
" transform="scale(0.015625)"/>
      <path id="DejaVuSans-66" d="M 2375 4863 
L 2375 4384 
L 1825 4384 
Q 1516 4384 1395 4259 
Q 1275 4134 1275 3809 
L 1275 3500 
L 2222 3500 
L 2222 3053 
L 1275 3053 
L 1275 0 
L 697 0 
L 697 3053 
L 147 3053 
L 147 3500 
L 697 3500 
L 697 3744 
Q 697 4328 969 4595 
Q 1241 4863 1831 4863 
L 2375 4863 
z
" transform="scale(0.015625)"/>
      <path id="DejaVuSans-72" d="M 2631 2963 
Q 2534 3019 2420 3045 
Q 2306 3072 2169 3072 
Q 1681 3072 1420 2755 
Q 1159 2438 1159 1844 
L 1159 0 
L 581 0 
L 581 3500 
L 1159 3500 
L 1159 2956 
Q 1341 3275 1631 3429 
Q 1922 3584 2338 3584 
Q 2397 3584 2469 3576 
Q 2541 3569 2628 3553 
L 2631 2963 
z
" transform="scale(0.015625)"/>
      <path id="DejaVuSans-6d" d="M 3328 2828 
Q 3544 3216 3844 3400 
Q 4144 3584 4550 3584 
Q 5097 3584 5394 3201 
Q 5691 2819 5691 2113 
L 5691 0 
L 5113 0 
L 5113 2094 
Q 5113 2597 4934 2840 
Q 4756 3084 4391 3084 
Q 3944 3084 3684 2787 
Q 3425 2491 3425 1978 
L 3425 0 
L 2847 0 
L 2847 2094 
Q 2847 2600 2669 2842 
Q 2491 3084 2119 3084 
Q 1678 3084 1418 2786 
Q 1159 2488 1159 1978 
L 1159 0 
L 581 0 
L 581 3500 
L 1159 3500 
L 1159 2956 
Q 1356 3278 1631 3431 
Q 1906 3584 2284 3584 
Q 2666 3584 2933 3390 
Q 3200 3197 3328 2828 
z
" transform="scale(0.015625)"/>
      <path id="DejaVuSans-65" d="M 3597 1894 
L 3597 1613 
L 953 1613 
Q 991 1019 1311 708 
Q 1631 397 2203 397 
Q 2534 397 2845 478 
Q 3156 559 3463 722 
L 3463 178 
Q 3153 47 2828 -22 
Q 2503 -91 2169 -91 
Q 1331 -91 842 396 
Q 353 884 353 1716 
Q 353 2575 817 3079 
Q 1281 3584 2069 3584 
Q 2775 3584 3186 3129 
Q 3597 2675 3597 1894 
z
M 3022 2063 
Q 3016 2534 2758 2815 
Q 2500 3097 2075 3097 
Q 1594 3097 1305 2825 
Q 1016 2553 972 2059 
L 3022 2063 
z
" transform="scale(0.015625)"/>
      <path id="DejaVuSans-64" d="M 2906 2969 
L 2906 4863 
L 3481 4863 
L 3481 0 
L 2906 0 
L 2906 525 
Q 2725 213 2448 61 
Q 2172 -91 1784 -91 
Q 1150 -91 751 415 
Q 353 922 353 1747 
Q 353 2572 751 3078 
Q 1150 3584 1784 3584 
Q 2172 3584 2448 3432 
Q 2725 3281 2906 2969 
z
M 947 1747 
Q 947 1113 1208 752 
Q 1469 391 1925 391 
Q 2381 391 2643 752 
Q 2906 1113 2906 1747 
Q 2906 2381 2643 2742 
Q 2381 3103 1925 3103 
Q 1469 3103 1208 2742 
Q 947 2381 947 1747 
z
" transform="scale(0.015625)"/>
      <path id="DejaVuSans-73" d="M 2834 3397 
L 2834 2853 
Q 2591 2978 2328 3040 
Q 2066 3103 1784 3103 
Q 1356 3103 1142 2972 
Q 928 2841 928 2578 
Q 928 2378 1081 2264 
Q 1234 2150 1697 2047 
L 1894 2003 
Q 2506 1872 2764 1633 
Q 3022 1394 3022 966 
Q 3022 478 2636 193 
Q 2250 -91 1575 -91 
Q 1294 -91 989 -36 
Q 684 19 347 128 
L 347 722 
Q 666 556 975 473 
Q 1284 391 1588 391 
Q 1994 391 2212 530 
Q 2431 669 2431 922 
Q 2431 1156 2273 1281 
Q 2116 1406 1581 1522 
L 1381 1569 
Q 847 1681 609 1914 
Q 372 2147 372 2553 
Q 372 3047 722 3315 
Q 1072 3584 1716 3584 
Q 2034 3584 2315 3537 
Q 2597 3491 2834 3397 
z
" transform="scale(0.015625)"/>
      <path id="DejaVuSans-46" d="M 628 4666 
L 3309 4666 
L 3309 4134 
L 1259 4134 
L 1259 2759 
L 3109 2759 
L 3109 2228 
L 1259 2228 
L 1259 0 
L 628 0 
L 628 4666 
z
" transform="scale(0.015625)"/>
      <path id="DejaVuSans-63" d="M 3122 3366 
L 3122 2828 
Q 2878 2963 2633 3030 
Q 2388 3097 2138 3097 
Q 1578 3097 1268 2742 
Q 959 2388 959 1747 
Q 959 1106 1268 751 
Q 1578 397 2138 397 
Q 2388 397 2633 464 
Q 2878 531 3122 666 
L 3122 134 
Q 2881 22 2623 -34 
Q 2366 -91 2075 -91 
Q 1284 -91 818 406 
Q 353 903 353 1747 
Q 353 2603 823 3093 
Q 1294 3584 2113 3584 
Q 2378 3584 2631 3529 
Q 2884 3475 3122 3366 
z
" transform="scale(0.015625)"/>
      <path id="DejaVuSans-74" d="M 1172 4494 
L 1172 3500 
L 2356 3500 
L 2356 3053 
L 1172 3053 
L 1172 1153 
Q 1172 725 1289 603 
Q 1406 481 1766 481 
L 2356 481 
L 2356 0 
L 1766 0 
Q 1100 0 847 248 
Q 594 497 594 1153 
L 594 3053 
L 172 3053 
L 172 3500 
L 594 3500 
L 594 4494 
L 1172 4494 
z
" transform="scale(0.015625)"/>
      <path id="DejaVuSans-67" d="M 2906 1791 
Q 2906 2416 2648 2759 
Q 2391 3103 1925 3103 
Q 1463 3103 1205 2759 
Q 947 2416 947 1791 
Q 947 1169 1205 825 
Q 1463 481 1925 481 
Q 2391 481 2648 825 
Q 2906 1169 2906 1791 
z
M 3481 434 
Q 3481 -459 3084 -895 
Q 2688 -1331 1869 -1331 
Q 1566 -1331 1297 -1286 
Q 1028 -1241 775 -1147 
L 775 -588 
Q 1028 -725 1275 -790 
Q 1522 -856 1778 -856 
Q 2344 -856 2625 -561 
Q 2906 -266 2906 331 
L 2906 616 
Q 2728 306 2450 153 
Q 2172 0 1784 0 
Q 1141 0 747 490 
Q 353 981 353 1791 
Q 353 2603 747 3093 
Q 1141 3584 1784 3584 
Q 2172 3584 2450 3431 
Q 2728 3278 2906 2969 
L 2906 3500 
L 3481 3500 
L 3481 434 
z
" transform="scale(0.015625)"/>
      <path id="DejaVuSans-4d" d="M 628 4666 
L 1569 4666 
L 2759 1491 
L 3956 4666 
L 4897 4666 
L 4897 0 
L 4281 0 
L 4281 4097 
L 3078 897 
L 2444 897 
L 1241 4097 
L 1241 0 
L 628 0 
L 628 4666 
z
" transform="scale(0.015625)"/>
      <path id="DejaVuSans-68" d="M 3513 2113 
L 3513 0 
L 2938 0 
L 2938 2094 
Q 2938 2591 2744 2837 
Q 2550 3084 2163 3084 
Q 1697 3084 1428 2787 
Q 1159 2491 1159 1978 
L 1159 0 
L 581 0 
L 581 4863 
L 1159 4863 
L 1159 2956 
Q 1366 3272 1645 3428 
Q 1925 3584 2291 3584 
Q 2894 3584 3203 3211 
Q 3513 2838 3513 2113 
z
" transform="scale(0.015625)"/>
     </defs>
     <use xlink:href="#DejaVuSans-44"/>
     <use xlink:href="#DejaVuSans-61" x="77.001953"/>
     <use xlink:href="#DejaVuSans-69" x="138.28125"/>
     <use xlink:href="#DejaVuSans-6c" x="166.064453"/>
     <use xlink:href="#DejaVuSans-79" x="193.847656"/>
     <use xlink:href="#DejaVuSans-20" x="253.027344"/>
     <use xlink:href="#DejaVuSans-43" x="284.814453"/>
     <use xlink:href="#DejaVuSans-6f" x="354.638672"/>
     <use xlink:href="#DejaVuSans-6e" x="415.820312"/>
     <use xlink:href="#DejaVuSans-66" x="479.199219"/>
     <use xlink:href="#DejaVuSans-69" x="514.404297"/>
     <use xlink:href="#DejaVuSans-72" x="542.1875"/>
     <use xlink:href="#DejaVuSans-6d" x="581.550781"/>
     <use xlink:href="#DejaVuSans-65" x="678.962891"/>
     <use xlink:href="#DejaVuSans-64" x="740.486328"/>
     <use xlink:href="#DejaVuSans-20" x="803.962891"/>
     <use xlink:href="#DejaVuSans-43" x="835.75"/>
     <use xlink:href="#DejaVuSans-61" x="905.574219"/>
     <use xlink:href="#DejaVuSans-73" x="966.853516"/>
     <use xlink:href="#DejaVuSans-65" x="1018.953125"/>
     <use xlink:href="#DejaVuSans-73" x="1080.476562"/>
     <use xlink:href="#DejaVuSans-20" x="1132.576172"/>
     <use xlink:href="#DejaVuSans-46" x="1164.363281"/>
     <use xlink:href="#DejaVuSans-6f" x="1218.257812"/>
     <use xlink:href="#DejaVuSans-72" x="1279.439453"/>
     <use xlink:href="#DejaVuSans-65" x="1318.302734"/>
     <use xlink:href="#DejaVuSans-63" x="1379.826172"/>
     <use xlink:href="#DejaVuSans-61" x="1434.806641"/>
     <use xlink:href="#DejaVuSans-73" x="1496.085938"/>
     <use xlink:href="#DejaVuSans-74" x="1548.185547"/>
     <use xlink:href="#DejaVuSans-69" x="1587.394531"/>
     <use xlink:href="#DejaVuSans-6e" x="1615.177734"/>
     <use xlink:href="#DejaVuSans-67" x="1678.556641"/>
     <use xlink:href="#DejaVuSans-20" x="1742.033203"/>
     <use xlink:href="#DejaVuSans-2d" x="1773.820312"/>
     <use xlink:href="#DejaVuSans-20" x="1809.904297"/>
     <use xlink:href="#DejaVuSans-4d" x="1841.691406"/>
     <use xlink:href="#DejaVuSans-69" x="1927.970703"/>
     <use xlink:href="#DejaVuSans-63" x="1955.753906"/>
     <use xlink:href="#DejaVuSans-68" x="2010.734375"/>
     <use xlink:href="#DejaVuSans-69" x="2074.113281"/>
     <use xlink:href="#DejaVuSans-67" x="2101.896484"/>
     <use xlink:href="#DejaVuSans-61" x="2165.373047"/>
     <use xlink:href="#DejaVuSans-6e" x="2226.652344"/>
    </g>
    <!-- ARIMA (0, 1, 1)x(1, 0, 1, 7) (R2 = -0.902787) -->
    <g transform="translate(587.82625 29.7555)scale(0.12 -0.12)">
     <defs>
      <path id="DejaVuSans-41" d="M 2188 4044 
L 1331 1722 
L 3047 1722 
L 2188 4044 
z
M 1831 4666 
L 2547 4666 
L 4325 0 
L 3669 0 
L 3244 1197 
L 1141 1197 
L 716 0 
L 50 0 
L 1831 4666 
z
" transform="scale(0.015625)"/>
      <path id="DejaVuSans-52" d="M 2841 2188 
Q 3044 2119 3236 1894 
Q 3428 1669 3622 1275 
L 4263 0 
L 3584 0 
L 2988 1197 
Q 2756 1666 2539 1819 
Q 2322 1972 1947 1972 
L 1259 1972 
L 1259 0 
L 628 0 
L 628 4666 
L 2053 4666 
Q 2853 4666 3247 4331 
Q 3641 3997 3641 3322 
Q 3641 2881 3436 2590 
Q 3231 2300 2841 2188 
z
M 1259 4147 
L 1259 2491 
L 2053 2491 
Q 2509 2491 2742 2702 
Q 2975 2913 2975 3322 
Q 2975 3731 2742 3939 
Q 2509 4147 2053 4147 
L 1259 4147 
z
" transform="scale(0.015625)"/>
      <path id="DejaVuSans-49" d="M 628 4666 
L 1259 4666 
L 1259 0 
L 628 0 
L 628 4666 
z
" transform="scale(0.015625)"/>
      <path id="DejaVuSans-28" d="M 1984 4856 
Q 1566 4138 1362 3434 
Q 1159 2731 1159 2009 
Q 1159 1288 1364 580 
Q 1569 -128 1984 -844 
L 1484 -844 
Q 1016 -109 783 600 
Q 550 1309 550 2009 
Q 550 2706 781 3412 
Q 1013 4119 1484 4856 
L 1984 4856 
z
" transform="scale(0.015625)"/>
      <path id="DejaVuSans-2c" d="M 750 794 
L 1409 794 
L 1409 256 
L 897 -744 
L 494 -744 
L 750 256 
L 750 794 
z
" transform="scale(0.015625)"/>
      <path id="DejaVuSans-29" d="M 513 4856 
L 1013 4856 
Q 1481 4119 1714 3412 
Q 1947 2706 1947 2009 
Q 1947 1309 1714 600 
Q 1481 -109 1013 -844 
L 513 -844 
Q 928 -128 1133 580 
Q 1338 1288 1338 2009 
Q 1338 2731 1133 3434 
Q 928 4138 513 4856 
z
" transform="scale(0.015625)"/>
      <path id="DejaVuSans-78" d="M 3513 3500 
L 2247 1797 
L 3578 0 
L 2900 0 
L 1881 1375 
L 863 0 
L 184 0 
L 1544 1831 
L 300 3500 
L 978 3500 
L 1906 2253 
L 2834 3500 
L 3513 3500 
z
" transform="scale(0.015625)"/>
      <path id="DejaVuSans-3d" d="M 678 2906 
L 4684 2906 
L 4684 2381 
L 678 2381 
L 678 2906 
z
M 678 1631 
L 4684 1631 
L 4684 1100 
L 678 1100 
L 678 1631 
z
" transform="scale(0.015625)"/>
      <path id="DejaVuSans-2e" d="M 684 794 
L 1344 794 
L 1344 0 
L 684 0 
L 684 794 
z
" transform="scale(0.015625)"/>
      <path id="DejaVuSans-39" d="M 703 97 
L 703 672 
Q 941 559 1184 500 
Q 1428 441 1663 441 
Q 2288 441 2617 861 
Q 2947 1281 2994 2138 
Q 2813 1869 2534 1725 
Q 2256 1581 1919 1581 
Q 1219 1581 811 2004 
Q 403 2428 403 3163 
Q 403 3881 828 4315 
Q 1253 4750 1959 4750 
Q 2769 4750 3195 4129 
Q 3622 3509 3622 2328 
Q 3622 1225 3098 567 
Q 2575 -91 1691 -91 
Q 1453 -91 1209 -44 
Q 966 3 703 97 
z
M 1959 2075 
Q 2384 2075 2632 2365 
Q 2881 2656 2881 3163 
Q 2881 3666 2632 3958 
Q 2384 4250 1959 4250 
Q 1534 4250 1286 3958 
Q 1038 3666 1038 3163 
Q 1038 2656 1286 2365 
Q 1534 2075 1959 2075 
z
" transform="scale(0.015625)"/>
     </defs>
     <use xlink:href="#DejaVuSans-41"/>
     <use xlink:href="#DejaVuSans-52" x="68.408203"/>
     <use xlink:href="#DejaVuSans-49" x="137.890625"/>
     <use xlink:href="#DejaVuSans-4d" x="167.382812"/>
     <use xlink:href="#DejaVuSans-41" x="253.662109"/>
     <use xlink:href="#DejaVuSans-20" x="322.070312"/>
     <use xlink:href="#DejaVuSans-28" x="353.857422"/>
     <use xlink:href="#DejaVuSans-30" x="392.871094"/>
     <use xlink:href="#DejaVuSans-2c" x="456.494141"/>
     <use xlink:href="#DejaVuSans-20" x="488.28125"/>
     <use xlink:href="#DejaVuSans-31" x="520.068359"/>
     <use xlink:href="#DejaVuSans-2c" x="583.691406"/>
     <use xlink:href="#DejaVuSans-20" x="615.478516"/>
     <use xlink:href="#DejaVuSans-31" x="647.265625"/>
     <use xlink:href="#DejaVuSans-29" x="710.888672"/>
     <use xlink:href="#DejaVuSans-78" x="749.902344"/>
     <use xlink:href="#DejaVuSans-28" x="809.082031"/>
     <use xlink:href="#DejaVuSans-31" x="848.095703"/>
     <use xlink:href="#DejaVuSans-2c" x="911.71875"/>
     <use xlink:href="#DejaVuSans-20" x="943.505859"/>
     <use xlink:href="#DejaVuSans-30" x="975.292969"/>
     <use xlink:href="#DejaVuSans-2c" x="1038.916016"/>
     <use xlink:href="#DejaVuSans-20" x="1070.703125"/>
     <use xlink:href="#DejaVuSans-31" x="1102.490234"/>
     <use xlink:href="#DejaVuSans-2c" x="1166.113281"/>
     <use xlink:href="#DejaVuSans-20" x="1197.900391"/>
     <use xlink:href="#DejaVuSans-37" x="1229.6875"/>
     <use xlink:href="#DejaVuSans-29" x="1293.310547"/>
     <use xlink:href="#DejaVuSans-20" x="1332.324219"/>
     <use xlink:href="#DejaVuSans-28" x="1364.111328"/>
     <use xlink:href="#DejaVuSans-52" x="1403.125"/>
     <use xlink:href="#DejaVuSans-32" x="1472.607422"/>
     <use xlink:href="#DejaVuSans-20" x="1536.230469"/>
     <use xlink:href="#DejaVuSans-3d" x="1568.017578"/>
     <use xlink:href="#DejaVuSans-20" x="1651.806641"/>
     <use xlink:href="#DejaVuSans-2d" x="1683.59375"/>
     <use xlink:href="#DejaVuSans-30" x="1719.677734"/>
     <use xlink:href="#DejaVuSans-2e" x="1783.300781"/>
     <use xlink:href="#DejaVuSans-39" x="1815.087891"/>
     <use xlink:href="#DejaVuSans-30" x="1878.710938"/>
     <use xlink:href="#DejaVuSans-32" x="1942.333984"/>
     <use xlink:href="#DejaVuSans-37" x="2005.957031"/>
     <use xlink:href="#DejaVuSans-38" x="2069.580078"/>
     <use xlink:href="#DejaVuSans-37" x="2133.203125"/>
     <use xlink:href="#DejaVuSans-29" x="2196.826172"/>
    </g>
   </g>
   <g id="legend_1">
    <g id="patch_7">
     <path d="M 1287.495312 87.789875 
L 1384.575 87.789875 
Q 1386.575 87.789875 1386.575 85.789875 
L 1386.575 42.7555 
Q 1386.575 40.7555 1384.575 40.7555 
L 1287.495312 40.7555 
Q 1285.495312 40.7555 1285.495312 42.7555 
L 1285.495312 85.789875 
Q 1285.495312 87.789875 1287.495312 87.789875 
z
" style="fill: #ffffff; opacity: 0.8; stroke: #cccccc; stroke-linejoin: miter"/>
    </g>
    <g id="line2d_21">
     <path d="M 1289.495312 48.853937 
L 1299.495312 48.853937 
L 1309.495312 48.853937 
" style="fill: none; stroke: #0000ff; stroke-width: 1.5; stroke-linecap: square"/>
    </g>
    <g id="text_19">
     <!-- Actual Value -->
     <g transform="translate(1317.495312 52.353937)scale(0.1 -0.1)">
      <defs>
       <path id="DejaVuSans-75" d="M 544 1381 
L 544 3500 
L 1119 3500 
L 1119 1403 
Q 1119 906 1312 657 
Q 1506 409 1894 409 
Q 2359 409 2629 706 
Q 2900 1003 2900 1516 
L 2900 3500 
L 3475 3500 
L 3475 0 
L 2900 0 
L 2900 538 
Q 2691 219 2414 64 
Q 2138 -91 1772 -91 
Q 1169 -91 856 284 
Q 544 659 544 1381 
z
M 1991 3584 
L 1991 3584 
z
" transform="scale(0.015625)"/>
       <path id="DejaVuSans-56" d="M 1831 0 
L 50 4666 
L 709 4666 
L 2188 738 
L 3669 4666 
L 4325 4666 
L 2547 0 
L 1831 0 
z
" transform="scale(0.015625)"/>
      </defs>
      <use xlink:href="#DejaVuSans-41"/>
      <use xlink:href="#DejaVuSans-63" x="66.658203"/>
      <use xlink:href="#DejaVuSans-74" x="121.638672"/>
      <use xlink:href="#DejaVuSans-75" x="160.847656"/>
      <use xlink:href="#DejaVuSans-61" x="224.226562"/>
      <use xlink:href="#DejaVuSans-6c" x="285.505859"/>
      <use xlink:href="#DejaVuSans-20" x="313.289062"/>
      <use xlink:href="#DejaVuSans-56" x="345.076172"/>
      <use xlink:href="#DejaVuSans-61" x="405.734375"/>
      <use xlink:href="#DejaVuSans-6c" x="467.013672"/>
      <use xlink:href="#DejaVuSans-75" x="494.796875"/>
      <use xlink:href="#DejaVuSans-65" x="558.175781"/>
     </g>
    </g>
    <g id="line2d_22">
     <path d="M 1289.495312 63.532062 
L 1299.495312 63.532062 
L 1309.495312 63.532062 
" style="fill: none; stroke: #ffa500; stroke-width: 1.5; stroke-linecap: square"/>
    </g>
    <g id="text_20">
     <!-- Check Value -->
     <g transform="translate(1317.495312 67.032062)scale(0.1 -0.1)">
      <defs>
       <path id="DejaVuSans-6b" d="M 581 4863 
L 1159 4863 
L 1159 1991 
L 2875 3500 
L 3609 3500 
L 1753 1863 
L 3688 0 
L 2938 0 
L 1159 1709 
L 1159 0 
L 581 0 
L 581 4863 
z
" transform="scale(0.015625)"/>
      </defs>
      <use xlink:href="#DejaVuSans-43"/>
      <use xlink:href="#DejaVuSans-68" x="69.824219"/>
      <use xlink:href="#DejaVuSans-65" x="133.203125"/>
      <use xlink:href="#DejaVuSans-63" x="194.726562"/>
      <use xlink:href="#DejaVuSans-6b" x="249.707031"/>
      <use xlink:href="#DejaVuSans-20" x="307.617188"/>
      <use xlink:href="#DejaVuSans-56" x="339.404297"/>
      <use xlink:href="#DejaVuSans-61" x="400.0625"/>
      <use xlink:href="#DejaVuSans-6c" x="461.341797"/>
      <use xlink:href="#DejaVuSans-75" x="489.125"/>
      <use xlink:href="#DejaVuSans-65" x="552.503906"/>
     </g>
    </g>
    <g id="line2d_23">
     <path d="M 1289.495312 78.210187 
L 1299.495312 78.210187 
L 1309.495312 78.210187 
" style="fill: none; stroke: #ff0000; stroke-width: 1.5; stroke-linecap: square"/>
    </g>
    <g id="text_21">
     <!-- Predict Value -->
     <g transform="translate(1317.495312 81.710187)scale(0.1 -0.1)">
      <defs>
       <path id="DejaVuSans-50" d="M 1259 4147 
L 1259 2394 
L 2053 2394 
Q 2494 2394 2734 2622 
Q 2975 2850 2975 3272 
Q 2975 3691 2734 3919 
Q 2494 4147 2053 4147 
L 1259 4147 
z
M 628 4666 
L 2053 4666 
Q 2838 4666 3239 4311 
Q 3641 3956 3641 3272 
Q 3641 2581 3239 2228 
Q 2838 1875 2053 1875 
L 1259 1875 
L 1259 0 
L 628 0 
L 628 4666 
z
" transform="scale(0.015625)"/>
      </defs>
      <use xlink:href="#DejaVuSans-50"/>
      <use xlink:href="#DejaVuSans-72" x="58.552734"/>
      <use xlink:href="#DejaVuSans-65" x="97.416016"/>
      <use xlink:href="#DejaVuSans-64" x="158.939453"/>
      <use xlink:href="#DejaVuSans-69" x="222.416016"/>
      <use xlink:href="#DejaVuSans-63" x="250.199219"/>
      <use xlink:href="#DejaVuSans-74" x="305.179688"/>
      <use xlink:href="#DejaVuSans-20" x="344.388672"/>
      <use xlink:href="#DejaVuSans-56" x="376.175781"/>
      <use xlink:href="#DejaVuSans-61" x="436.833984"/>
      <use xlink:href="#DejaVuSans-6c" x="498.113281"/>
      <use xlink:href="#DejaVuSans-75" x="525.896484"/>
      <use xlink:href="#DejaVuSans-65" x="589.275391"/>
     </g>
    </g>
   </g>
  </g>
 </g>
 <defs>
  <clipPath id="p07d8d232ab">
   <rect x="52.375" y="35.7555" width="1339.2" height="332.64"/>
  </clipPath>
 </defs>
</svg>
