<?xml version="1.0" encoding="utf-8" standalone="no"?>
<!DOCTYPE svg PUBLIC "-//W3C//DTD SVG 1.1//EN"
  "http://www.w3.org/Graphics/SVG/1.1/DTD/svg11.dtd">
<svg xmlns:xlink="http://www.w3.org/1999/xlink" width="1386.05pt" height="392.273625pt" viewBox="0 0 1386.05 392.273625" xmlns="http://www.w3.org/2000/svg" version="1.1">
 <metadata>
  <rdf:RDF xmlns:dc="http://purl.org/dc/elements/1.1/" xmlns:cc="http://creativecommons.org/ns#" xmlns:rdf="http://www.w3.org/1999/02/22-rdf-syntax-ns#">
   <cc:Work>
    <dc:type rdf:resource="http://purl.org/dc/dcmitype/StillImage"/>
    <dc:date>2022-07-20T17:54:43.312696</dc:date>
    <dc:format>image/svg+xml</dc:format>
    <dc:creator>
     <cc:Agent>
      <dc:title>Matplotlib v3.5.2, https://matplotlib.org/</dc:title>
     </cc:Agent>
    </dc:creator>
   </cc:Work>
  </rdf:RDF>
 </metadata>
 <defs>
  <style type="text/css">*{stroke-linejoin: round; stroke-linecap: butt}</style>
 </defs>
 <g id="figure_1">
  <g id="patch_1">
   <path d="M 0 392.273625 
L 1386.05 392.273625 
L 1386.05 0 
L 0 0 
z
" style="fill: #ffffff"/>
  </g>
  <g id="axes_1">
   <g id="patch_2">
    <path d="M 39.65 368.3955 
L 1378.85 368.3955 
L 1378.85 35.7555 
L 39.65 35.7555 
z
" style="fill: #ffffff"/>
   </g>
   <g id="matplotlib.axis_1">
    <g id="xtick_1">
     <g id="line2d_1">
      <defs>
       <path id="m85e860fbd1" d="M 0 0 
L 0 3.5 
" style="stroke: #000000; stroke-width: 0.8"/>
      </defs>
      <g>
       <use xlink:href="#m85e860fbd1" x="71.441294" y="368.3955" style="stroke: #000000; stroke-width: 0.8"/>
      </g>
     </g>
     <g id="text_1">
      <!-- 2020-01 -->
      <g transform="translate(50.549888 382.993937)scale(0.1 -0.1)">
       <defs>
        <path id="DejaVuSans-32" d="M 1228 531 
L 3431 531 
L 3431 0 
L 469 0 
L 469 531 
Q 828 903 1448 1529 
Q 2069 2156 2228 2338 
Q 2531 2678 2651 2914 
Q 2772 3150 2772 3378 
Q 2772 3750 2511 3984 
Q 2250 4219 1831 4219 
Q 1534 4219 1204 4116 
Q 875 4013 500 3803 
L 500 4441 
Q 881 4594 1212 4672 
Q 1544 4750 1819 4750 
Q 2544 4750 2975 4387 
Q 3406 4025 3406 3419 
Q 3406 3131 3298 2873 
Q 3191 2616 2906 2266 
Q 2828 2175 2409 1742 
Q 1991 1309 1228 531 
z
" transform="scale(0.015625)"/>
        <path id="DejaVuSans-30" d="M 2034 4250 
Q 1547 4250 1301 3770 
Q 1056 3291 1056 2328 
Q 1056 1369 1301 889 
Q 1547 409 2034 409 
Q 2525 409 2770 889 
Q 3016 1369 3016 2328 
Q 3016 3291 2770 3770 
Q 2525 4250 2034 4250 
z
M 2034 4750 
Q 2819 4750 3233 4129 
Q 3647 3509 3647 2328 
Q 3647 1150 3233 529 
Q 2819 -91 2034 -91 
Q 1250 -91 836 529 
Q 422 1150 422 2328 
Q 422 3509 836 4129 
Q 1250 4750 2034 4750 
z
" transform="scale(0.015625)"/>
        <path id="DejaVuSans-2d" d="M 313 2009 
L 1997 2009 
L 1997 1497 
L 313 1497 
L 313 2009 
z
" transform="scale(0.015625)"/>
        <path id="DejaVuSans-31" d="M 794 531 
L 1825 531 
L 1825 4091 
L 703 3866 
L 703 4441 
L 1819 4666 
L 2450 4666 
L 2450 531 
L 3481 531 
L 3481 0 
L 794 0 
L 794 531 
z
" transform="scale(0.015625)"/>
       </defs>
       <use xlink:href="#DejaVuSans-32"/>
       <use xlink:href="#DejaVuSans-30" x="63.623047"/>
       <use xlink:href="#DejaVuSans-32" x="127.246094"/>
       <use xlink:href="#DejaVuSans-30" x="190.869141"/>
       <use xlink:href="#DejaVuSans-2d" x="254.492188"/>
       <use xlink:href="#DejaVuSans-30" x="290.576172"/>
       <use xlink:href="#DejaVuSans-31" x="354.199219"/>
      </g>
     </g>
    </g>
    <g id="xtick_2">
     <g id="line2d_2">
      <g>
       <use xlink:href="#m85e860fbd1" x="191.732677" y="368.3955" style="stroke: #000000; stroke-width: 0.8"/>
      </g>
     </g>
     <g id="text_2">
      <!-- 2020-04 -->
      <g transform="translate(170.841271 382.993937)scale(0.1 -0.1)">
       <defs>
        <path id="DejaVuSans-34" d="M 2419 4116 
L 825 1625 
L 2419 1625 
L 2419 4116 
z
M 2253 4666 
L 3047 4666 
L 3047 1625 
L 3713 1625 
L 3713 1100 
L 3047 1100 
L 3047 0 
L 2419 0 
L 2419 1100 
L 313 1100 
L 313 1709 
L 2253 4666 
z
" transform="scale(0.015625)"/>
       </defs>
       <use xlink:href="#DejaVuSans-32"/>
       <use xlink:href="#DejaVuSans-30" x="63.623047"/>
       <use xlink:href="#DejaVuSans-32" x="127.246094"/>
       <use xlink:href="#DejaVuSans-30" x="190.869141"/>
       <use xlink:href="#DejaVuSans-2d" x="254.492188"/>
       <use xlink:href="#DejaVuSans-30" x="290.576172"/>
       <use xlink:href="#DejaVuSans-34" x="354.199219"/>
      </g>
     </g>
    </g>
    <g id="xtick_3">
     <g id="line2d_3">
      <g>
       <use xlink:href="#m85e860fbd1" x="312.02406" y="368.3955" style="stroke: #000000; stroke-width: 0.8"/>
      </g>
     </g>
     <g id="text_3">
      <!-- 2020-07 -->
      <g transform="translate(291.132654 382.993937)scale(0.1 -0.1)">
       <defs>
        <path id="DejaVuSans-37" d="M 525 4666 
L 3525 4666 
L 3525 4397 
L 1831 0 
L 1172 0 
L 2766 4134 
L 525 4134 
L 525 4666 
z
" transform="scale(0.015625)"/>
       </defs>
       <use xlink:href="#DejaVuSans-32"/>
       <use xlink:href="#DejaVuSans-30" x="63.623047"/>
       <use xlink:href="#DejaVuSans-32" x="127.246094"/>
       <use xlink:href="#DejaVuSans-30" x="190.869141"/>
       <use xlink:href="#DejaVuSans-2d" x="254.492188"/>
       <use xlink:href="#DejaVuSans-30" x="290.576172"/>
       <use xlink:href="#DejaVuSans-37" x="354.199219"/>
      </g>
     </g>
    </g>
    <g id="xtick_4">
     <g id="line2d_4">
      <g>
       <use xlink:href="#m85e860fbd1" x="433.637326" y="368.3955" style="stroke: #000000; stroke-width: 0.8"/>
      </g>
     </g>
     <g id="text_4">
      <!-- 2020-10 -->
      <g transform="translate(412.74592 382.993937)scale(0.1 -0.1)">
       <use xlink:href="#DejaVuSans-32"/>
       <use xlink:href="#DejaVuSans-30" x="63.623047"/>
       <use xlink:href="#DejaVuSans-32" x="127.246094"/>
       <use xlink:href="#DejaVuSans-30" x="190.869141"/>
       <use xlink:href="#DejaVuSans-2d" x="254.492188"/>
       <use xlink:href="#DejaVuSans-31" x="290.576172"/>
       <use xlink:href="#DejaVuSans-30" x="354.199219"/>
      </g>
     </g>
    </g>
    <g id="xtick_5">
     <g id="line2d_5">
      <g>
       <use xlink:href="#m85e860fbd1" x="555.250592" y="368.3955" style="stroke: #000000; stroke-width: 0.8"/>
      </g>
     </g>
     <g id="text_5">
      <!-- 2021-01 -->
      <g transform="translate(534.359186 382.993937)scale(0.1 -0.1)">
       <use xlink:href="#DejaVuSans-32"/>
       <use xlink:href="#DejaVuSans-30" x="63.623047"/>
       <use xlink:href="#DejaVuSans-32" x="127.246094"/>
       <use xlink:href="#DejaVuSans-31" x="190.869141"/>
       <use xlink:href="#DejaVuSans-2d" x="254.492188"/>
       <use xlink:href="#DejaVuSans-30" x="290.576172"/>
       <use xlink:href="#DejaVuSans-31" x="354.199219"/>
      </g>
     </g>
    </g>
    <g id="xtick_6">
     <g id="line2d_6">
      <g>
       <use xlink:href="#m85e860fbd1" x="674.220092" y="368.3955" style="stroke: #000000; stroke-width: 0.8"/>
      </g>
     </g>
     <g id="text_6">
      <!-- 2021-04 -->
      <g transform="translate(653.328686 382.993937)scale(0.1 -0.1)">
       <use xlink:href="#DejaVuSans-32"/>
       <use xlink:href="#DejaVuSans-30" x="63.623047"/>
       <use xlink:href="#DejaVuSans-32" x="127.246094"/>
       <use xlink:href="#DejaVuSans-31" x="190.869141"/>
       <use xlink:href="#DejaVuSans-2d" x="254.492188"/>
       <use xlink:href="#DejaVuSans-30" x="290.576172"/>
       <use xlink:href="#DejaVuSans-34" x="354.199219"/>
      </g>
     </g>
    </g>
    <g id="xtick_7">
     <g id="line2d_7">
      <g>
       <use xlink:href="#m85e860fbd1" x="794.511475" y="368.3955" style="stroke: #000000; stroke-width: 0.8"/>
      </g>
     </g>
     <g id="text_7">
      <!-- 2021-07 -->
      <g transform="translate(773.620068 382.993937)scale(0.1 -0.1)">
       <use xlink:href="#DejaVuSans-32"/>
       <use xlink:href="#DejaVuSans-30" x="63.623047"/>
       <use xlink:href="#DejaVuSans-32" x="127.246094"/>
       <use xlink:href="#DejaVuSans-31" x="190.869141"/>
       <use xlink:href="#DejaVuSans-2d" x="254.492188"/>
       <use xlink:href="#DejaVuSans-30" x="290.576172"/>
       <use xlink:href="#DejaVuSans-37" x="354.199219"/>
      </g>
     </g>
    </g>
    <g id="xtick_8">
     <g id="line2d_8">
      <g>
       <use xlink:href="#m85e860fbd1" x="916.124741" y="368.3955" style="stroke: #000000; stroke-width: 0.8"/>
      </g>
     </g>
     <g id="text_8">
      <!-- 2021-10 -->
      <g transform="translate(895.233335 382.993937)scale(0.1 -0.1)">
       <use xlink:href="#DejaVuSans-32"/>
       <use xlink:href="#DejaVuSans-30" x="63.623047"/>
       <use xlink:href="#DejaVuSans-32" x="127.246094"/>
       <use xlink:href="#DejaVuSans-31" x="190.869141"/>
       <use xlink:href="#DejaVuSans-2d" x="254.492188"/>
       <use xlink:href="#DejaVuSans-31" x="290.576172"/>
       <use xlink:href="#DejaVuSans-30" x="354.199219"/>
      </g>
     </g>
    </g>
    <g id="xtick_9">
     <g id="line2d_9">
      <g>
       <use xlink:href="#m85e860fbd1" x="1037.738007" y="368.3955" style="stroke: #000000; stroke-width: 0.8"/>
      </g>
     </g>
     <g id="text_9">
      <!-- 2022-01 -->
      <g transform="translate(1016.846601 382.993937)scale(0.1 -0.1)">
       <use xlink:href="#DejaVuSans-32"/>
       <use xlink:href="#DejaVuSans-30" x="63.623047"/>
       <use xlink:href="#DejaVuSans-32" x="127.246094"/>
       <use xlink:href="#DejaVuSans-32" x="190.869141"/>
       <use xlink:href="#DejaVuSans-2d" x="254.492188"/>
       <use xlink:href="#DejaVuSans-30" x="290.576172"/>
       <use xlink:href="#DejaVuSans-31" x="354.199219"/>
      </g>
     </g>
    </g>
    <g id="xtick_10">
     <g id="line2d_10">
      <g>
       <use xlink:href="#m85e860fbd1" x="1156.707507" y="368.3955" style="stroke: #000000; stroke-width: 0.8"/>
      </g>
     </g>
     <g id="text_10">
      <!-- 2022-04 -->
      <g transform="translate(1135.8161 382.993937)scale(0.1 -0.1)">
       <use xlink:href="#DejaVuSans-32"/>
       <use xlink:href="#DejaVuSans-30" x="63.623047"/>
       <use xlink:href="#DejaVuSans-32" x="127.246094"/>
       <use xlink:href="#DejaVuSans-32" x="190.869141"/>
       <use xlink:href="#DejaVuSans-2d" x="254.492188"/>
       <use xlink:href="#DejaVuSans-30" x="290.576172"/>
       <use xlink:href="#DejaVuSans-34" x="354.199219"/>
      </g>
     </g>
    </g>
    <g id="xtick_11">
     <g id="line2d_11">
      <g>
       <use xlink:href="#m85e860fbd1" x="1276.99889" y="368.3955" style="stroke: #000000; stroke-width: 0.8"/>
      </g>
     </g>
     <g id="text_11">
      <!-- 2022-07 -->
      <g transform="translate(1256.107483 382.993937)scale(0.1 -0.1)">
       <use xlink:href="#DejaVuSans-32"/>
       <use xlink:href="#DejaVuSans-30" x="63.623047"/>
       <use xlink:href="#DejaVuSans-32" x="127.246094"/>
       <use xlink:href="#DejaVuSans-32" x="190.869141"/>
       <use xlink:href="#DejaVuSans-2d" x="254.492188"/>
       <use xlink:href="#DejaVuSans-30" x="290.576172"/>
       <use xlink:href="#DejaVuSans-37" x="354.199219"/>
      </g>
     </g>
    </g>
   </g>
   <g id="matplotlib.axis_2">
    <g id="ytick_1">
     <g id="line2d_12">
      <defs>
       <path id="m558e1b696f" d="M 0 0 
L -3.5 0 
" style="stroke: #000000; stroke-width: 0.8"/>
      </defs>
      <g>
       <use xlink:href="#m558e1b696f" x="39.65" y="328.580646" style="stroke: #000000; stroke-width: 0.8"/>
      </g>
     </g>
     <g id="text_12">
      <!-- 0 -->
      <g transform="translate(26.2875 332.379865)scale(0.1 -0.1)">
       <use xlink:href="#DejaVuSans-30"/>
      </g>
     </g>
    </g>
    <g id="ytick_2">
     <g id="line2d_13">
      <g>
       <use xlink:href="#m558e1b696f" x="39.65" y="260.59897" style="stroke: #000000; stroke-width: 0.8"/>
      </g>
     </g>
     <g id="text_13">
      <!-- 1000 -->
      <g transform="translate(7.2 264.398189)scale(0.1 -0.1)">
       <use xlink:href="#DejaVuSans-31"/>
       <use xlink:href="#DejaVuSans-30" x="63.623047"/>
       <use xlink:href="#DejaVuSans-30" x="127.246094"/>
       <use xlink:href="#DejaVuSans-30" x="190.869141"/>
      </g>
     </g>
    </g>
    <g id="ytick_3">
     <g id="line2d_14">
      <g>
       <use xlink:href="#m558e1b696f" x="39.65" y="192.617294" style="stroke: #000000; stroke-width: 0.8"/>
      </g>
     </g>
     <g id="text_14">
      <!-- 2000 -->
      <g transform="translate(7.2 196.416513)scale(0.1 -0.1)">
       <use xlink:href="#DejaVuSans-32"/>
       <use xlink:href="#DejaVuSans-30" x="63.623047"/>
       <use xlink:href="#DejaVuSans-30" x="127.246094"/>
       <use xlink:href="#DejaVuSans-30" x="190.869141"/>
      </g>
     </g>
    </g>
    <g id="ytick_4">
     <g id="line2d_15">
      <g>
       <use xlink:href="#m558e1b696f" x="39.65" y="124.635618" style="stroke: #000000; stroke-width: 0.8"/>
      </g>
     </g>
     <g id="text_15">
      <!-- 3000 -->
      <g transform="translate(7.2 128.434837)scale(0.1 -0.1)">
       <defs>
        <path id="DejaVuSans-33" d="M 2597 2516 
Q 3050 2419 3304 2112 
Q 3559 1806 3559 1356 
Q 3559 666 3084 287 
Q 2609 -91 1734 -91 
Q 1441 -91 1130 -33 
Q 819 25 488 141 
L 488 750 
Q 750 597 1062 519 
Q 1375 441 1716 441 
Q 2309 441 2620 675 
Q 2931 909 2931 1356 
Q 2931 1769 2642 2001 
Q 2353 2234 1838 2234 
L 1294 2234 
L 1294 2753 
L 1863 2753 
Q 2328 2753 2575 2939 
Q 2822 3125 2822 3475 
Q 2822 3834 2567 4026 
Q 2313 4219 1838 4219 
Q 1578 4219 1281 4162 
Q 984 4106 628 3988 
L 628 4550 
Q 988 4650 1302 4700 
Q 1616 4750 1894 4750 
Q 2613 4750 3031 4423 
Q 3450 4097 3450 3541 
Q 3450 3153 3228 2886 
Q 3006 2619 2597 2516 
z
" transform="scale(0.015625)"/>
       </defs>
       <use xlink:href="#DejaVuSans-33"/>
       <use xlink:href="#DejaVuSans-30" x="63.623047"/>
       <use xlink:href="#DejaVuSans-30" x="127.246094"/>
       <use xlink:href="#DejaVuSans-30" x="190.869141"/>
      </g>
     </g>
    </g>
    <g id="ytick_5">
     <g id="line2d_16">
      <g>
       <use xlink:href="#m558e1b696f" x="39.65" y="56.653942" style="stroke: #000000; stroke-width: 0.8"/>
      </g>
     </g>
     <g id="text_16">
      <!-- 4000 -->
      <g transform="translate(7.2 60.453161)scale(0.1 -0.1)">
       <use xlink:href="#DejaVuSans-34"/>
       <use xlink:href="#DejaVuSans-30" x="63.623047"/>
       <use xlink:href="#DejaVuSans-30" x="127.246094"/>
       <use xlink:href="#DejaVuSans-30" x="190.869141"/>
      </g>
     </g>
    </g>
   </g>
   <g id="line2d_17">
    <path d="M 100.522727 328.580646 
L 170.582544 328.580646 
L 171.904427 327.968811 
L 174.548194 328.444683 
L 175.870077 328.376701 
L 177.19196 328.444683 
L 178.513844 328.376701 
L 179.835727 328.580646 
L 181.15761 328.376701 
L 182.479494 327.560921 
L 183.801377 327.968811 
L 185.12326 327.424958 
L 186.445144 327.764866 
L 187.767027 328.30872 
L 189.08891 328.036793 
L 191.732677 327.153031 
L 193.05456 327.221013 
L 194.376444 327.764866 
L 195.698327 326.881105 
L 197.02021 327.90083 
L 198.342094 327.696885 
L 199.663977 328.172756 
L 200.98586 328.240738 
L 202.307744 327.968811 
L 203.629627 327.968811 
L 204.95151 327.08505 
L 206.273394 327.968811 
L 207.595277 328.240738 
L 208.91716 328.104775 
L 210.239044 328.240738 
L 211.560927 327.968811 
L 212.88281 327.968811 
L 214.204694 328.30872 
L 216.84846 328.30872 
L 218.170344 320.014955 
L 219.492227 328.30872 
L 220.81411 328.172756 
L 222.135993 327.221013 
L 223.457877 327.356976 
L 224.77976 327.832848 
L 226.101643 327.356976 
L 227.423527 327.49294 
L 228.74541 327.968811 
L 230.067293 327.628903 
L 231.389177 328.104775 
L 232.71106 327.696885 
L 234.032943 328.104775 
L 235.354827 327.90083 
L 236.67671 328.036793 
L 237.998593 326.745141 
L 239.320477 328.30872 
L 240.64236 327.968811 
L 243.286127 327.968811 
L 245.929893 328.172756 
L 247.251777 327.696885 
L 248.57366 327.696885 
L 249.895543 327.560921 
L 251.217427 326.881105 
L 252.53931 327.696885 
L 256.50496 327.832848 
L 257.826843 327.628903 
L 259.148727 328.444683 
L 260.47061 327.90083 
L 261.792493 326.881105 
L 263.114377 328.240738 
L 265.758143 327.90083 
L 267.080027 327.49294 
L 268.40191 327.560921 
L 269.723793 328.104775 
L 271.045677 328.240738 
L 272.36756 328.104775 
L 273.689443 328.444683 
L 275.011327 328.376701 
L 276.33321 328.172756 
L 277.655093 327.764866 
L 278.976977 328.172756 
L 280.29886 328.036793 
L 281.620743 327.696885 
L 282.942627 327.90083 
L 284.26451 327.90083 
L 285.586393 326.609178 
L 286.908277 327.356976 
L 288.23016 327.017068 
L 289.552043 327.90083 
L 290.873927 327.288995 
L 292.19581 327.90083 
L 293.517693 326.881105 
L 294.839577 326.541196 
L 296.16146 326.609178 
L 297.483343 328.172756 
L 298.805227 327.356976 
L 300.12711 326.337251 
L 301.448993 326.949086 
L 302.770877 326.677159 
L 304.09276 325.589453 
L 305.414643 325.725416 
L 306.736527 326.949086 
L 308.05841 326.881105 
L 309.380293 326.337251 
L 310.702176 326.065324 
L 312.02406 326.745141 
L 313.345943 326.133306 
L 314.667826 326.405233 
L 315.98971 326.949086 
L 317.311593 326.677159 
L 318.633476 325.793398 
L 319.95536 326.269269 
L 322.599126 326.609178 
L 323.92101 327.153031 
L 325.242893 325.249544 
L 326.564776 327.017068 
L 327.88666 325.793398 
L 329.208543 325.385508 
L 330.530426 326.201288 
L 331.85231 325.793398 
L 333.174193 325.657434 
L 334.496076 325.929361 
L 335.81796 327.356976 
L 337.139843 324.433764 
L 338.461726 325.113581 
L 339.78361 325.181563 
L 341.105493 324.569728 
L 342.427376 324.637709 
L 343.74926 325.793398 
L 345.071143 326.609178 
L 346.393026 325.521471 
L 347.71491 323.889911 
L 349.036793 325.929361 
L 350.358676 324.637709 
L 351.68056 325.861379 
L 353.002443 325.657434 
L 354.324326 325.929361 
L 355.64621 325.861379 
L 356.968093 326.133306 
L 358.289976 325.929361 
L 359.61186 326.541196 
L 360.933743 325.385508 
L 362.255626 327.560921 
L 363.57751 326.201288 
L 364.899393 329.1245 
L 366.221276 326.473214 
L 367.54316 327.696885 
L 368.865043 326.337251 
L 370.186926 324.229819 
L 371.50881 325.589453 
L 372.830693 324.569728 
L 375.47446 326.609178 
L 376.796343 323.753947 
L 378.118226 326.813123 
L 379.44011 324.025874 
L 380.761993 327.288995 
L 382.083876 326.201288 
L 383.40576 326.881105 
L 384.727643 326.609178 
L 386.049526 325.317526 
L 387.37141 324.977618 
L 388.693293 323.821929 
L 390.015176 329.1245 
L 391.33706 326.269269 
L 392.658943 327.153031 
L 393.980826 326.949086 
L 395.30271 326.065324 
L 396.624593 326.541196 
L 397.946476 325.249544 
L 399.268359 328.580646 
L 400.590243 325.725416 
L 401.912126 328.580646 
L 403.234009 323.617984 
L 404.555893 325.385508 
L 405.877776 325.385508 
L 407.199659 324.161837 
L 408.521543 326.337251 
L 409.843426 325.249544 
L 412.487193 325.453489 
L 413.809076 320.014955 
L 415.130959 322.734222 
L 416.452843 322.122387 
L 417.774726 326.269269 
L 419.096609 322.394314 
L 420.418493 323.685966 
L 421.740376 323.685966 
L 423.062259 318.17945 
L 424.384143 319.335138 
L 425.706026 320.762754 
L 427.027909 325.521471 
L 428.349793 317.159725 
L 429.671676 320.354864 
L 430.993559 324.025874 
L 432.315443 319.946974 
L 433.637326 319.40312 
L 434.959209 319.675047 
L 436.281093 318.315413 
L 437.602976 319.131193 
L 438.924859 320.082937 
L 440.246743 318.99523 
L 441.568626 319.81101 
L 442.890509 315.460183 
L 444.212393 312.061099 
L 445.534276 320.422845 
L 448.178043 315.596146 
L 449.499926 317.567615 
L 450.821809 314.100549 
L 452.143693 315.120275 
L 453.465576 308.86596 
L 454.787459 318.315413 
L 456.109343 314.372476 
L 457.431226 309.137887 
L 458.753109 313.964586 
L 460.074993 306.690547 
L 461.396876 310.157612 
L 462.718759 299.620452 
L 464.040643 310.905411 
L 465.362526 312.536971 
L 466.684409 298.940636 
L 468.006293 306.214675 
L 469.328176 305.466877 
L 470.650059 304.039261 
L 471.971943 293.162193 
L 473.293826 310.225594 
L 474.615709 299.688434 
L 475.937593 298.396782 
L 477.259476 297.716966 
L 478.581359 299.824397 
L 479.903243 303.767335 
L 481.225126 260.870897 
L 482.547009 315.528165 
L 483.868893 280.109711 
L 485.190776 280.993473 
L 486.512659 244.827222 
L 487.834542 319.607065 
L 489.156426 253.460894 
L 490.478309 269.980442 
L 491.800192 291.870541 
L 493.122076 286.907879 
L 494.443959 281.061455 
L 495.765842 242.923735 
L 497.087726 272.699709 
L 499.731492 263.318237 
L 501.053376 309.477795 
L 503.697142 242.787771 
L 505.019026 292.686322 
L 506.340909 274.059342 
L 507.662792 328.580646 
L 508.984676 259.78319 
L 510.306559 318.043487 
L 511.628442 290.442926 
L 512.950326 273.107599 
L 514.272209 294.589808 
L 515.594092 280.85751 
L 516.915976 289.763109 
L 518.237859 283.780722 
L 519.559742 314.712385 
L 520.881626 303.019536 
L 522.203509 283.168887 
L 523.525392 295.269625 
L 524.847276 300.708159 
L 526.169159 305.60284 
L 527.491042 290.374945 
L 528.812926 320.286882 
L 530.134809 297.784947 
L 531.456692 300.368251 
L 532.778576 308.933942 
L 534.100459 311.857154 
L 535.422342 309.341832 
L 536.744226 276.506683 
L 538.066109 319.81101 
L 539.387992 316.751835 
L 540.709876 297.581002 
L 542.031759 310.837429 
L 543.353642 309.205869 
L 544.675526 328.580646 
L 545.997409 328.580646 
L 547.319292 295.813479 
L 548.641176 324.909636 
L 549.963059 294.317882 
L 551.284942 313.692659 
L 552.606826 314.304494 
L 553.928709 309.817704 
L 555.250592 328.580646 
L 556.572476 317.431652 
L 557.894359 308.05018 
L 559.216242 302.611646 
L 560.538126 307.370364 
L 561.860009 306.758528 
L 563.181892 309.68174 
L 564.503776 296.017424 
L 565.825659 323.685966 
L 567.147542 320.898717 
L 568.469426 290.306963 
L 569.791309 282.557052 
L 571.113192 313.828623 
L 572.435076 300.572196 
L 573.756959 314.440458 
L 575.078842 317.77156 
L 576.400725 308.526052 
L 577.722609 305.126968 
L 579.044492 314.032568 
L 580.366375 314.848348 
L 581.688259 308.186144 
L 583.010142 317.77156 
L 584.332025 328.580646 
L 585.653909 307.166418 
L 586.975792 317.431652 
L 588.297675 322.462296 
L 589.619559 313.896604 
L 590.941442 324.365783 
L 592.263325 310.905411 
L 593.585209 327.628903 
L 594.907092 314.440458 
L 596.228975 318.723303 
L 597.550859 323.753947 
L 598.872742 317.703578 
L 600.194625 316.343945 
L 602.838392 325.725416 
L 604.160275 327.968811 
L 605.482159 317.907523 
L 606.804042 325.453489 
L 608.125925 325.589453 
L 609.447809 321.44257 
L 610.769692 321.306607 
L 612.091575 328.580646 
L 613.413459 325.181563 
L 614.735342 328.580646 
L 616.057225 313.964586 
L 617.379109 321.850461 
L 618.700992 323.074131 
L 620.022875 318.247432 
L 621.344759 328.580646 
L 622.666642 320.966699 
L 623.988525 321.44257 
L 625.310409 325.589453 
L 626.632292 325.589453 
L 627.954175 314.032568 
L 629.276059 318.519358 
L 630.597942 328.580646 
L 631.919825 325.589453 
L 633.241709 323.346057 
L 634.563592 324.773673 
L 635.885475 322.530277 
L 637.207359 323.889911 
L 638.529242 323.210094 
L 639.851125 328.580646 
L 641.173009 328.580646 
L 642.494892 319.131193 
L 643.816775 323.889911 
L 645.138659 325.725416 
L 646.460542 321.918442 
L 649.104309 328.580646 
L 650.426192 328.580646 
L 651.748075 317.431652 
L 653.069959 326.881105 
L 654.391842 321.986424 
L 655.713725 326.541196 
L 657.035609 321.646515 
L 658.357492 328.580646 
L 659.679375 328.580646 
L 661.001259 318.451377 
L 662.323142 323.889911 
L 663.645025 322.598259 
L 664.966908 326.337251 
L 666.288792 320.014955 
L 667.610675 328.580646 
L 668.932558 328.580646 
L 670.254442 318.791285 
L 671.576325 325.453489 
L 672.898208 323.550002 
L 674.220092 323.210094 
L 675.541975 324.637709 
L 676.863858 328.580646 
L 678.185742 328.580646 
L 679.507625 323.006149 
L 680.829508 322.462296 
L 682.151392 323.074131 
L 683.473275 321.646515 
L 684.795158 323.753947 
L 686.117042 328.580646 
L 687.438925 328.580646 
L 688.760808 320.762754 
L 690.082692 323.006149 
L 691.404575 324.705691 
L 692.726458 323.414039 
L 694.048342 324.229819 
L 695.370225 328.580646 
L 696.692108 328.580646 
L 698.013992 321.03468 
L 699.335875 323.278076 
L 700.657758 324.365783 
L 701.979642 322.122387 
L 703.301525 322.938167 
L 704.623408 328.580646 
L 705.945292 328.580646 
L 707.267175 320.286882 
L 708.589058 324.161837 
L 709.910942 320.694772 
L 711.232825 323.821929 
L 712.554708 323.617984 
L 713.876592 328.580646 
L 715.198475 328.580646 
L 716.520358 318.519358 
L 717.842242 323.346057 
L 719.164125 323.753947 
L 720.486008 322.530277 
L 721.807892 322.054406 
L 723.129775 328.580646 
L 724.451658 328.580646 
L 725.773542 318.99523 
L 727.095425 323.753947 
L 728.417308 324.637709 
L 729.739192 321.578534 
L 731.061075 322.938167 
L 732.382958 328.580646 
L 733.704842 328.580646 
L 735.026725 318.859267 
L 737.670492 324.841654 
L 738.992375 314.032568 
L 740.314258 323.753947 
L 741.636142 328.580646 
L 742.958025 328.580646 
L 744.279908 319.335138 
L 745.601792 323.617984 
L 746.923675 322.394314 
L 748.245558 322.666241 
L 749.567442 322.054406 
L 750.889325 328.580646 
L 753.533092 328.580646 
L 754.854975 312.944861 
L 756.176858 323.617984 
L 757.498741 321.646515 
L 758.820625 323.210094 
L 760.142508 328.580646 
L 761.464391 328.580646 
L 762.786275 318.315413 
L 764.108158 323.821929 
L 765.430041 322.326332 
L 766.751925 323.753947 
L 768.073808 321.646515 
L 769.395691 328.580646 
L 770.717575 328.580646 
L 772.039458 320.422845 
L 773.361341 323.889911 
L 774.683225 324.773673 
L 776.005108 324.093856 
L 777.326991 324.161837 
L 778.648875 328.580646 
L 779.970758 328.580646 
L 781.292641 319.063212 
L 782.614525 323.550002 
L 785.258291 323.753947 
L 786.580175 321.510552 
L 787.902058 328.580646 
L 789.223941 328.580646 
L 790.545825 318.519358 
L 791.867708 322.054406 
L 793.189591 322.122387 
L 794.511475 324.297801 
L 795.833358 322.326332 
L 797.155241 328.580646 
L 799.799008 328.580646 
L 801.120891 315.188256 
L 802.442775 322.122387 
L 803.764658 319.878992 
L 805.086541 321.714497 
L 806.408425 328.580646 
L 807.730308 328.580646 
L 809.052191 316.887798 
L 810.374075 321.986424 
L 811.695958 322.054406 
L 813.017841 320.150919 
L 814.339725 323.957892 
L 815.661608 328.580646 
L 816.983491 328.580646 
L 818.305375 315.936055 
L 819.627258 319.675047 
L 820.949141 318.519358 
L 822.271025 318.17945 
L 823.592908 321.102662 
L 824.914791 328.580646 
L 826.236675 328.580646 
L 827.558558 314.984311 
L 828.880441 316.887798 
L 830.202325 328.580646 
L 831.524208 306.01073 
L 834.167975 328.580646 
L 835.489858 328.580646 
L 836.811741 305.466877 
L 838.133625 312.468989 
L 839.455508 311.653209 
L 840.777391 311.789172 
L 842.099275 311.381282 
L 843.421158 328.580646 
L 844.743041 328.580646 
L 846.064924 289.627146 
L 847.386808 308.186144 
L 848.708691 311.177337 
L 850.030574 303.087518 
L 851.352458 307.166418 
L 852.674341 328.580646 
L 853.996224 328.580646 
L 855.318108 282.89696 
L 856.639991 300.572196 
L 857.961874 295.405589 
L 859.283758 307.778254 
L 860.605641 293.162193 
L 861.927524 328.580646 
L 863.249408 328.580646 
L 864.571291 268.008973 
L 865.893174 294.113937 
L 867.215058 297.377057 
L 868.536941 296.833204 
L 869.858824 296.493295 
L 871.180708 328.580646 
L 872.502591 328.580646 
L 873.824474 240.952266 
L 875.146358 302.74761 
L 876.468241 269.368607 
L 877.790124 288.131549 
L 879.112008 287.519714 
L 880.433891 328.580646 
L 883.077658 328.580646 
L 884.399541 240.952266 
L 885.721424 274.059342 
L 887.043308 292.346413 
L 888.365191 273.311544 
L 889.687074 328.580646 
L 891.008958 328.580646 
L 892.330841 248.226305 
L 893.652724 285.208337 
L 894.974608 299.076599 
L 896.296491 277.866316 
L 897.618374 307.166418 
L 898.940258 328.580646 
L 900.262141 328.580646 
L 901.584024 223.820884 
L 902.905908 290.98678 
L 904.227791 291.734578 
L 905.549674 277.118518 
L 906.871558 293.570083 
L 908.193441 328.580646 
L 909.515324 328.580646 
L 910.837208 255.908235 
L 912.159091 294.929717 
L 913.480974 292.21045 
L 914.802858 285.276319 
L 916.124741 290.035036 
L 917.446624 328.580646 
L 918.768508 328.580646 
L 920.090391 273.515489 
L 921.412274 298.940636 
L 922.734158 283.168887 
L 924.056041 282.285125 
L 925.377924 291.938523 
L 926.699808 328.580646 
L 928.021691 328.580646 
L 929.343574 271.883929 
L 930.665458 295.745497 
L 931.987341 298.736691 
L 933.309224 287.451732 
L 934.631107 296.425314 
L 935.952991 328.580646 
L 937.274874 328.580646 
L 938.596757 258.695484 
L 939.918641 301.252013 
L 941.240524 298.668709 
L 942.562407 284.052649 
L 943.884291 293.774028 
L 945.206174 328.580646 
L 946.528057 328.580646 
L 947.849941 266.785303 
L 949.171824 305.398895 
L 950.493707 295.405589 
L 951.815591 295.201644 
L 953.137474 293.02623 
L 954.459357 328.580646 
L 955.781241 328.580646 
L 957.103124 281.2654 
L 958.425007 307.914217 
L 959.746891 296.153387 
L 961.068774 292.074486 
L 962.390657 302.883573 
L 963.712541 328.580646 
L 965.034424 328.580646 
L 966.356307 282.89696 
L 967.678191 308.390089 
L 969.000074 300.640178 
L 970.321957 328.580646 
L 971.643841 275.215031 
L 972.965724 328.580646 
L 974.287607 328.580646 
L 975.609491 286.432007 
L 976.931374 307.506327 
L 978.253257 311.925136 
L 979.575141 299.688434 
L 980.897024 312.604953 
L 982.218907 328.580646 
L 983.540791 328.580646 
L 984.862674 295.677515 
L 986.184557 311.653209 
L 987.506441 314.100549 
L 988.828324 328.580646 
L 992.793974 328.580646 
L 994.115857 290.510908 
L 995.437741 310.565502 
L 996.759624 315.936055 
L 998.081507 309.205869 
L 999.403391 311.449264 
L 1000.725274 328.580646 
L 1002.047157 328.580646 
L 1003.369041 302.271738 
L 1004.690924 317.091743 
L 1006.012807 316.14 
L 1007.334691 316.343945 
L 1008.656574 319.675047 
L 1009.978457 328.580646 
L 1011.300341 328.580646 
L 1012.622224 313.964586 
L 1013.944107 317.975505 
L 1015.265991 320.014955 
L 1016.587874 320.490827 
L 1017.909757 321.374589 
L 1019.231641 328.580646 
L 1020.553524 328.580646 
L 1021.875407 316.479908 
L 1023.19729 318.791285 
L 1024.519174 317.975505 
L 1025.841057 316.343945 
L 1027.16294 328.580646 
L 1029.806707 328.580646 
L 1031.12859 302.611646 
L 1032.450474 308.662015 
L 1033.772357 306.486602 
L 1035.09424 301.659903 
L 1036.416124 328.580646 
L 1039.05989 328.580646 
L 1040.381774 260.259062 
L 1041.703657 277.866316 
L 1043.02554 280.381638 
L 1044.347424 260.938879 
L 1045.669307 276.642646 
L 1046.99119 328.580646 
L 1048.313074 328.580646 
L 1049.634957 215.595101 
L 1050.95684 244.623277 
L 1052.278724 261.346769 
L 1054.92249 227.831803 
L 1056.244374 328.580646 
L 1058.88814 328.580646 
L 1060.210024 50.8755 
L 1061.531907 220.353818 
L 1062.85379 236.805384 
L 1064.175674 201.182986 
L 1065.497557 328.580646 
L 1066.81944 328.580646 
L 1068.141324 158.35453 
L 1069.463207 220.625745 
L 1070.78509 217.838496 
L 1072.106974 189.966009 
L 1073.428857 233.610245 
L 1074.75074 328.580646 
L 1076.072624 328.580646 
L 1077.394507 194.04491 
L 1078.71639 274.195306 
L 1080.038274 255.364381 
L 1081.360157 278.002279 
L 1082.68204 279.905766 
L 1084.003924 328.580646 
L 1085.325807 328.580646 
L 1086.64769 268.756772 
L 1087.969574 298.872654 
L 1089.291457 284.800447 
L 1090.61334 301.184031 
L 1091.935224 303.087518 
L 1093.257107 328.580646 
L 1094.57899 328.580646 
L 1095.900874 293.638065 
L 1097.222757 312.265044 
L 1098.54464 306.282657 
L 1099.866524 315.868073 
L 1101.188407 312.808898 
L 1102.51029 328.580646 
L 1105.154057 328.580646 
L 1106.47594 296.833204 
L 1107.797824 320.898717 
L 1109.119707 319.40312 
L 1110.44159 320.966699 
L 1111.763473 328.580646 
L 1113.085357 328.580646 
L 1114.40724 315.528165 
L 1115.729123 322.938167 
L 1117.051007 322.258351 
L 1118.37289 323.685966 
L 1119.694773 323.346057 
L 1121.016657 328.580646 
L 1122.33854 328.580646 
L 1123.660423 324.093856 
L 1124.982307 324.093856 
L 1126.30419 323.753947 
L 1127.626073 324.705691 
L 1128.947957 324.637709 
L 1130.26984 328.580646 
L 1132.913607 328.580646 
L 1134.23549 323.753947 
L 1135.557373 328.580646 
L 1136.879257 328.580646 
L 1138.20114 322.326332 
L 1139.523023 328.580646 
L 1142.16679 328.580646 
L 1143.488673 323.074131 
L 1144.810557 328.580646 
L 1146.13244 328.580646 
L 1147.454323 323.957892 
L 1148.776207 328.580646 
L 1151.419973 328.580646 
L 1152.741857 324.773673 
L 1154.06374 328.580646 
L 1155.385623 328.580646 
L 1156.707507 324.841654 
L 1158.02939 328.580646 
L 1160.673157 328.580646 
L 1161.99504 321.986424 
L 1163.316923 328.580646 
L 1164.638807 328.580646 
L 1165.96069 327.424958 
L 1167.282573 328.580646 
L 1169.92634 328.580646 
L 1171.248223 330.144225 
L 1172.570107 328.580646 
L 1179.179523 328.580646 
L 1180.501407 319.471102 
L 1181.82329 328.580646 
L 1188.432707 328.580646 
L 1189.75459 317.839542 
L 1191.076473 328.580646 
L 1197.68589 328.580646 
L 1199.007773 315.32422 
L 1200.329656 328.580646 
L 1206.939073 328.580646 
L 1208.260956 309.137887 
L 1209.58284 328.580646 
L 1216.192256 328.580646 
L 1217.51414 302.883573 
L 1218.836023 328.580646 
L 1225.44544 328.580646 
L 1226.767323 297.852929 
L 1228.089206 328.580646 
L 1234.698623 328.580646 
L 1236.020506 287.043842 
L 1237.34239 328.580646 
L 1243.951806 328.580646 
L 1245.27369 231.026941 
L 1246.595573 328.580646 
L 1253.20499 328.580646 
L 1254.526873 175.41793 
L 1255.848756 328.580646 
L 1262.458173 328.580646 
L 1263.780056 248.362269 
L 1265.10194 328.580646 
L 1271.711356 328.580646 
L 1273.03324 252.713096 
L 1274.355123 328.580646 
L 1280.96454 328.580646 
L 1282.286423 249.517957 
L 1283.608306 328.580646 
L 1290.217723 328.580646 
L 1291.539606 208.457025 
L 1292.861489 328.580646 
L 1299.470906 328.580646 
L 1300.792789 240.748321 
L 1300.792789 240.748321 
" clip-path="url(#p0c52982dec)" style="fill: none; stroke: #0000ff; stroke-width: 1.5; stroke-linecap: square"/>
   </g>
   <g id="line2d_18">
    <path d="M 1061.531907 248.307614 
L 1062.85379 218.291226 
L 1064.175674 289.487207 
L 1065.497557 264.218022 
L 1066.81944 245.873008 
L 1068.141324 131.612208 
L 1069.463207 202.891188 
L 1070.78509 216.009034 
L 1072.106974 214.432104 
L 1073.428857 280.607881 
L 1074.75074 289.156115 
L 1076.072624 198.557651 
L 1077.394507 193.652113 
L 1078.71639 218.860131 
L 1080.038274 216.427389 
L 1081.360157 242.244558 
L 1082.68204 322.883496 
L 1084.003924 338.950531 
L 1085.325807 240.749646 
L 1086.64769 277.198037 
L 1087.969574 278.315358 
L 1089.291457 290.065375 
L 1090.61334 296.355541 
L 1091.935224 349.286598 
L 1093.257107 353.2755 
L 1094.57899 288.977559 
L 1095.900874 310.925547 
L 1097.222757 302.602921 
L 1098.54464 312.936944 
L 1099.866524 315.138875 
L 1101.188407 346.279987 
L 1102.51029 347.249508 
L 1103.832174 308.025451 
L 1105.154057 320.391301 
L 1106.47594 318.804919 
L 1107.797824 324.409694 
L 1109.119707 320.910147 
L 1110.44159 341.083938 
L 1111.763473 338.582551 
L 1113.085357 326.949435 
L 1114.40724 314.055389 
L 1115.729123 321.915254 
L 1117.051007 323.893563 
L 1118.37289 325.366099 
L 1119.694773 334.04537 
L 1121.016657 335.373186 
L 1122.33854 324.034831 
L 1123.660423 322.858629 
L 1124.982307 325.371449 
L 1126.30419 326.879322 
L 1127.626073 326.656652 
L 1128.947957 332.234659 
L 1130.26984 332.168639 
L 1131.591723 325.95947 
L 1132.913607 324.987391 
L 1134.23549 326.059707 
L 1135.557373 326.734388 
L 1136.879257 326.636934 
L 1138.20114 331.739895 
L 1139.523023 331.087305 
L 1140.844907 328.830216 
L 1142.16679 325.953685 
L 1143.488673 328.322144 
L 1144.810557 328.174522 
L 1146.13244 324.640517 
L 1147.454323 329.437648 
L 1148.776207 329.20172 
L 1150.09809 328.621983 
L 1151.419973 324.875524 
L 1152.741857 328.488117 
L 1154.06374 328.550258 
L 1155.385623 325.108222 
L 1156.707507 328.968591 
L 1158.02939 328.951506 
L 1159.351273 328.731807 
L 1160.673157 325.540864 
L 1161.99504 328.901151 
L 1163.316923 328.356556 
L 1164.638807 324.967876 
L 1165.96069 328.074285 
L 1167.282573 328.176799 
L 1168.604457 328.511852 
L 1169.92634 324.150305 
L 1171.248223 328.291955 
L 1172.570107 329.184891 
L 1173.89199 328.216029 
L 1175.213873 329.435359 
L 1176.535757 329.998641 
L 1177.85764 329.759332 
L 1179.179523 328.878416 
L 1180.501407 330.00489 
L 1183.145173 326.918566 
L 1184.467057 327.562175 
L 1185.78894 327.079991 
L 1187.110823 327.590181 
L 1188.432707 322.96843 
L 1189.75459 328.60841 
L 1191.076473 327.821858 
L 1192.398357 327.168502 
L 1193.72024 327.577126 
L 1195.042123 327.318 
L 1196.364007 327.716328 
L 1197.68589 320.839955 
L 1199.007773 328.656253 
L 1200.329656 327.814117 
L 1201.65154 327.22712 
L 1202.973423 327.546102 
L 1204.295306 327.25104 
L 1205.61719 327.65705 
L 1206.939073 318.79668 
L 1208.260956 328.944606 
L 1209.58284 327.454666 
L 1210.904723 326.47963 
L 1212.226606 326.92216 
L 1213.54849 326.39073 
L 1214.870373 327.051931 
L 1216.192256 314.521784 
L 1217.51414 328.83427 
L 1218.836023 327.055596 
L 1220.157906 325.907494 
L 1221.47979 326.469434 
L 1222.801673 325.832023 
L 1224.123556 326.660264 
L 1225.44544 309.785946 
L 1226.767323 328.686541 
L 1228.089206 326.87615 
L 1229.41109 325.713412 
L 1230.732973 326.32081 
L 1232.054856 325.670701 
L 1233.37674 326.547147 
L 1234.698623 305.694241 
L 1236.020506 329.165102 
L 1237.34239 326.300045 
L 1238.664273 324.454373 
L 1239.986156 325.308761 
L 1241.30804 324.281929 
L 1242.629923 325.576463 
L 1243.951806 298.125524 
L 1245.27369 332.551927 
L 1246.595573 322.085305 
L 1247.917456 315.311848 
L 1249.23934 317.968411 
L 1250.561223 314.227028 
L 1251.883106 318.549379 
L 1253.20499 261.824647 
L 1254.526873 331.023219 
L 1255.848756 317.772206 
L 1257.17064 309.242429 
L 1258.492523 313.257919 
L 1259.814406 308.507042 
L 1261.13629 314.551853 
L 1262.458173 220.24496 
L 1263.780056 320.289473 
L 1265.10194 325.239681 
L 1266.423823 328.555914 
L 1267.745706 328.91778 
L 1269.06759 330.652136 
L 1270.389473 330.028346 
L 1271.711356 257.103593 
L 1273.03324 329.553275 
L 1274.355123 328.807722 
L 1275.677006 328.313112 
L 1276.99889 328.328289 
L 1278.320773 328.065565 
L 1279.642656 328.220673 
L 1280.96454 266.200406 
L 1282.286423 329.735735 
L 1283.608306 327.119183 
L 1284.93019 325.423063 
L 1286.252073 326.046191 
L 1287.573956 325.111767 
L 1288.89584 326.156358 
L 1290.217723 266.306992 
L 1291.539606 332.076376 
L 1292.861489 323.046325 
L 1294.183373 317.201435 
L 1295.505256 319.475727 
L 1296.827139 316.248222 
L 1298.149023 319.961911 
L 1299.470906 241.018621 
L 1300.792789 324.865756 
L 1300.792789 324.865756 
" clip-path="url(#p0c52982dec)" style="fill: none; stroke: #ffa500; stroke-width: 1.5; stroke-linecap: square"/>
   </g>
   <g id="line2d_19">
    <path d="M 1300.792789 324.865756 
L 1302.114673 325.433209 
L 1303.436556 325.336734 
L 1304.758439 325.556425 
L 1306.080323 325.170322 
L 1307.402206 325.217598 
L 1308.724089 254.091012 
L 1310.045973 323.327782 
L 1311.367856 323.646249 
L 1312.689739 323.578051 
L 1314.011623 323.689279 
L 1315.333506 323.491763 
L 1316.655389 323.515661 
L 1317.977273 264.268382 
" clip-path="url(#p0c52982dec)" style="fill: none; stroke: #ff0000; stroke-width: 1.5; stroke-linecap: square"/>
   </g>
   <g id="patch_3">
    <path d="M 39.65 368.3955 
L 39.65 35.7555 
" style="fill: none; stroke: #000000; stroke-width: 0.8; stroke-linejoin: miter; stroke-linecap: square"/>
   </g>
   <g id="patch_4">
    <path d="M 1378.85 368.3955 
L 1378.85 35.7555 
" style="fill: none; stroke: #000000; stroke-width: 0.8; stroke-linejoin: miter; stroke-linecap: square"/>
   </g>
   <g id="patch_5">
    <path d="M 39.65 368.3955 
L 1378.85 368.3955 
" style="fill: none; stroke: #000000; stroke-width: 0.8; stroke-linejoin: miter; stroke-linecap: square"/>
   </g>
   <g id="patch_6">
    <path d="M 39.65 35.7555 
L 1378.85 35.7555 
" style="fill: none; stroke: #000000; stroke-width: 0.8; stroke-linejoin: miter; stroke-linecap: square"/>
   </g>
   <g id="text_17">
    <!-- Daily Confirmed Cases Forecasting - Wyoming -->
    <g transform="translate(570.576875 16.318125)scale(0.12 -0.12)">
     <defs>
      <path id="DejaVuSans-44" d="M 1259 4147 
L 1259 519 
L 2022 519 
Q 2988 519 3436 956 
Q 3884 1394 3884 2338 
Q 3884 3275 3436 3711 
Q 2988 4147 2022 4147 
L 1259 4147 
z
M 628 4666 
L 1925 4666 
Q 3281 4666 3915 4102 
Q 4550 3538 4550 2338 
Q 4550 1131 3912 565 
Q 3275 0 1925 0 
L 628 0 
L 628 4666 
z
" transform="scale(0.015625)"/>
      <path id="DejaVuSans-61" d="M 2194 1759 
Q 1497 1759 1228 1600 
Q 959 1441 959 1056 
Q 959 750 1161 570 
Q 1363 391 1709 391 
Q 2188 391 2477 730 
Q 2766 1069 2766 1631 
L 2766 1759 
L 2194 1759 
z
M 3341 1997 
L 3341 0 
L 2766 0 
L 2766 531 
Q 2569 213 2275 61 
Q 1981 -91 1556 -91 
Q 1019 -91 701 211 
Q 384 513 384 1019 
Q 384 1609 779 1909 
Q 1175 2209 1959 2209 
L 2766 2209 
L 2766 2266 
Q 2766 2663 2505 2880 
Q 2244 3097 1772 3097 
Q 1472 3097 1187 3025 
Q 903 2953 641 2809 
L 641 3341 
Q 956 3463 1253 3523 
Q 1550 3584 1831 3584 
Q 2591 3584 2966 3190 
Q 3341 2797 3341 1997 
z
" transform="scale(0.015625)"/>
      <path id="DejaVuSans-69" d="M 603 3500 
L 1178 3500 
L 1178 0 
L 603 0 
L 603 3500 
z
M 603 4863 
L 1178 4863 
L 1178 4134 
L 603 4134 
L 603 4863 
z
" transform="scale(0.015625)"/>
      <path id="DejaVuSans-6c" d="M 603 4863 
L 1178 4863 
L 1178 0 
L 603 0 
L 603 4863 
z
" transform="scale(0.015625)"/>
      <path id="DejaVuSans-79" d="M 2059 -325 
Q 1816 -950 1584 -1140 
Q 1353 -1331 966 -1331 
L 506 -1331 
L 506 -850 
L 844 -850 
Q 1081 -850 1212 -737 
Q 1344 -625 1503 -206 
L 1606 56 
L 191 3500 
L 800 3500 
L 1894 763 
L 2988 3500 
L 3597 3500 
L 2059 -325 
z
" transform="scale(0.015625)"/>
      <path id="DejaVuSans-20" transform="scale(0.015625)"/>
      <path id="DejaVuSans-43" d="M 4122 4306 
L 4122 3641 
Q 3803 3938 3442 4084 
Q 3081 4231 2675 4231 
Q 1875 4231 1450 3742 
Q 1025 3253 1025 2328 
Q 1025 1406 1450 917 
Q 1875 428 2675 428 
Q 3081 428 3442 575 
Q 3803 722 4122 1019 
L 4122 359 
Q 3791 134 3420 21 
Q 3050 -91 2638 -91 
Q 1578 -91 968 557 
Q 359 1206 359 2328 
Q 359 3453 968 4101 
Q 1578 4750 2638 4750 
Q 3056 4750 3426 4639 
Q 3797 4528 4122 4306 
z
" transform="scale(0.015625)"/>
      <path id="DejaVuSans-6f" d="M 1959 3097 
Q 1497 3097 1228 2736 
Q 959 2375 959 1747 
Q 959 1119 1226 758 
Q 1494 397 1959 397 
Q 2419 397 2687 759 
Q 2956 1122 2956 1747 
Q 2956 2369 2687 2733 
Q 2419 3097 1959 3097 
z
M 1959 3584 
Q 2709 3584 3137 3096 
Q 3566 2609 3566 1747 
Q 3566 888 3137 398 
Q 2709 -91 1959 -91 
Q 1206 -91 779 398 
Q 353 888 353 1747 
Q 353 2609 779 3096 
Q 1206 3584 1959 3584 
z
" transform="scale(0.015625)"/>
      <path id="DejaVuSans-6e" d="M 3513 2113 
L 3513 0 
L 2938 0 
L 2938 2094 
Q 2938 2591 2744 2837 
Q 2550 3084 2163 3084 
Q 1697 3084 1428 2787 
Q 1159 2491 1159 1978 
L 1159 0 
L 581 0 
L 581 3500 
L 1159 3500 
L 1159 2956 
Q 1366 3272 1645 3428 
Q 1925 3584 2291 3584 
Q 2894 3584 3203 3211 
Q 3513 2838 3513 2113 
z
" transform="scale(0.015625)"/>
      <path id="DejaVuSans-66" d="M 2375 4863 
L 2375 4384 
L 1825 4384 
Q 1516 4384 1395 4259 
Q 1275 4134 1275 3809 
L 1275 3500 
L 2222 3500 
L 2222 3053 
L 1275 3053 
L 1275 0 
L 697 0 
L 697 3053 
L 147 3053 
L 147 3500 
L 697 3500 
L 697 3744 
Q 697 4328 969 4595 
Q 1241 4863 1831 4863 
L 2375 4863 
z
" transform="scale(0.015625)"/>
      <path id="DejaVuSans-72" d="M 2631 2963 
Q 2534 3019 2420 3045 
Q 2306 3072 2169 3072 
Q 1681 3072 1420 2755 
Q 1159 2438 1159 1844 
L 1159 0 
L 581 0 
L 581 3500 
L 1159 3500 
L 1159 2956 
Q 1341 3275 1631 3429 
Q 1922 3584 2338 3584 
Q 2397 3584 2469 3576 
Q 2541 3569 2628 3553 
L 2631 2963 
z
" transform="scale(0.015625)"/>
      <path id="DejaVuSans-6d" d="M 3328 2828 
Q 3544 3216 3844 3400 
Q 4144 3584 4550 3584 
Q 5097 3584 5394 3201 
Q 5691 2819 5691 2113 
L 5691 0 
L 5113 0 
L 5113 2094 
Q 5113 2597 4934 2840 
Q 4756 3084 4391 3084 
Q 3944 3084 3684 2787 
Q 3425 2491 3425 1978 
L 3425 0 
L 2847 0 
L 2847 2094 
Q 2847 2600 2669 2842 
Q 2491 3084 2119 3084 
Q 1678 3084 1418 2786 
Q 1159 2488 1159 1978 
L 1159 0 
L 581 0 
L 581 3500 
L 1159 3500 
L 1159 2956 
Q 1356 3278 1631 3431 
Q 1906 3584 2284 3584 
Q 2666 3584 2933 3390 
Q 3200 3197 3328 2828 
z
" transform="scale(0.015625)"/>
      <path id="DejaVuSans-65" d="M 3597 1894 
L 3597 1613 
L 953 1613 
Q 991 1019 1311 708 
Q 1631 397 2203 397 
Q 2534 397 2845 478 
Q 3156 559 3463 722 
L 3463 178 
Q 3153 47 2828 -22 
Q 2503 -91 2169 -91 
Q 1331 -91 842 396 
Q 353 884 353 1716 
Q 353 2575 817 3079 
Q 1281 3584 2069 3584 
Q 2775 3584 3186 3129 
Q 3597 2675 3597 1894 
z
M 3022 2063 
Q 3016 2534 2758 2815 
Q 2500 3097 2075 3097 
Q 1594 3097 1305 2825 
Q 1016 2553 972 2059 
L 3022 2063 
z
" transform="scale(0.015625)"/>
      <path id="DejaVuSans-64" d="M 2906 2969 
L 2906 4863 
L 3481 4863 
L 3481 0 
L 2906 0 
L 2906 525 
Q 2725 213 2448 61 
Q 2172 -91 1784 -91 
Q 1150 -91 751 415 
Q 353 922 353 1747 
Q 353 2572 751 3078 
Q 1150 3584 1784 3584 
Q 2172 3584 2448 3432 
Q 2725 3281 2906 2969 
z
M 947 1747 
Q 947 1113 1208 752 
Q 1469 391 1925 391 
Q 2381 391 2643 752 
Q 2906 1113 2906 1747 
Q 2906 2381 2643 2742 
Q 2381 3103 1925 3103 
Q 1469 3103 1208 2742 
Q 947 2381 947 1747 
z
" transform="scale(0.015625)"/>
      <path id="DejaVuSans-73" d="M 2834 3397 
L 2834 2853 
Q 2591 2978 2328 3040 
Q 2066 3103 1784 3103 
Q 1356 3103 1142 2972 
Q 928 2841 928 2578 
Q 928 2378 1081 2264 
Q 1234 2150 1697 2047 
L 1894 2003 
Q 2506 1872 2764 1633 
Q 3022 1394 3022 966 
Q 3022 478 2636 193 
Q 2250 -91 1575 -91 
Q 1294 -91 989 -36 
Q 684 19 347 128 
L 347 722 
Q 666 556 975 473 
Q 1284 391 1588 391 
Q 1994 391 2212 530 
Q 2431 669 2431 922 
Q 2431 1156 2273 1281 
Q 2116 1406 1581 1522 
L 1381 1569 
Q 847 1681 609 1914 
Q 372 2147 372 2553 
Q 372 3047 722 3315 
Q 1072 3584 1716 3584 
Q 2034 3584 2315 3537 
Q 2597 3491 2834 3397 
z
" transform="scale(0.015625)"/>
      <path id="DejaVuSans-46" d="M 628 4666 
L 3309 4666 
L 3309 4134 
L 1259 4134 
L 1259 2759 
L 3109 2759 
L 3109 2228 
L 1259 2228 
L 1259 0 
L 628 0 
L 628 4666 
z
" transform="scale(0.015625)"/>
      <path id="DejaVuSans-63" d="M 3122 3366 
L 3122 2828 
Q 2878 2963 2633 3030 
Q 2388 3097 2138 3097 
Q 1578 3097 1268 2742 
Q 959 2388 959 1747 
Q 959 1106 1268 751 
Q 1578 397 2138 397 
Q 2388 397 2633 464 
Q 2878 531 3122 666 
L 3122 134 
Q 2881 22 2623 -34 
Q 2366 -91 2075 -91 
Q 1284 -91 818 406 
Q 353 903 353 1747 
Q 353 2603 823 3093 
Q 1294 3584 2113 3584 
Q 2378 3584 2631 3529 
Q 2884 3475 3122 3366 
z
" transform="scale(0.015625)"/>
      <path id="DejaVuSans-74" d="M 1172 4494 
L 1172 3500 
L 2356 3500 
L 2356 3053 
L 1172 3053 
L 1172 1153 
Q 1172 725 1289 603 
Q 1406 481 1766 481 
L 2356 481 
L 2356 0 
L 1766 0 
Q 1100 0 847 248 
Q 594 497 594 1153 
L 594 3053 
L 172 3053 
L 172 3500 
L 594 3500 
L 594 4494 
L 1172 4494 
z
" transform="scale(0.015625)"/>
      <path id="DejaVuSans-67" d="M 2906 1791 
Q 2906 2416 2648 2759 
Q 2391 3103 1925 3103 
Q 1463 3103 1205 2759 
Q 947 2416 947 1791 
Q 947 1169 1205 825 
Q 1463 481 1925 481 
Q 2391 481 2648 825 
Q 2906 1169 2906 1791 
z
M 3481 434 
Q 3481 -459 3084 -895 
Q 2688 -1331 1869 -1331 
Q 1566 -1331 1297 -1286 
Q 1028 -1241 775 -1147 
L 775 -588 
Q 1028 -725 1275 -790 
Q 1522 -856 1778 -856 
Q 2344 -856 2625 -561 
Q 2906 -266 2906 331 
L 2906 616 
Q 2728 306 2450 153 
Q 2172 0 1784 0 
Q 1141 0 747 490 
Q 353 981 353 1791 
Q 353 2603 747 3093 
Q 1141 3584 1784 3584 
Q 2172 3584 2450 3431 
Q 2728 3278 2906 2969 
L 2906 3500 
L 3481 3500 
L 3481 434 
z
" transform="scale(0.015625)"/>
      <path id="DejaVuSans-57" d="M 213 4666 
L 850 4666 
L 1831 722 
L 2809 4666 
L 3519 4666 
L 4500 722 
L 5478 4666 
L 6119 4666 
L 4947 0 
L 4153 0 
L 3169 4050 
L 2175 0 
L 1381 0 
L 213 4666 
z
" transform="scale(0.015625)"/>
     </defs>
     <use xlink:href="#DejaVuSans-44"/>
     <use xlink:href="#DejaVuSans-61" x="77.001953"/>
     <use xlink:href="#DejaVuSans-69" x="138.28125"/>
     <use xlink:href="#DejaVuSans-6c" x="166.064453"/>
     <use xlink:href="#DejaVuSans-79" x="193.847656"/>
     <use xlink:href="#DejaVuSans-20" x="253.027344"/>
     <use xlink:href="#DejaVuSans-43" x="284.814453"/>
     <use xlink:href="#DejaVuSans-6f" x="354.638672"/>
     <use xlink:href="#DejaVuSans-6e" x="415.820312"/>
     <use xlink:href="#DejaVuSans-66" x="479.199219"/>
     <use xlink:href="#DejaVuSans-69" x="514.404297"/>
     <use xlink:href="#DejaVuSans-72" x="542.1875"/>
     <use xlink:href="#DejaVuSans-6d" x="581.550781"/>
     <use xlink:href="#DejaVuSans-65" x="678.962891"/>
     <use xlink:href="#DejaVuSans-64" x="740.486328"/>
     <use xlink:href="#DejaVuSans-20" x="803.962891"/>
     <use xlink:href="#DejaVuSans-43" x="835.75"/>
     <use xlink:href="#DejaVuSans-61" x="905.574219"/>
     <use xlink:href="#DejaVuSans-73" x="966.853516"/>
     <use xlink:href="#DejaVuSans-65" x="1018.953125"/>
     <use xlink:href="#DejaVuSans-73" x="1080.476562"/>
     <use xlink:href="#DejaVuSans-20" x="1132.576172"/>
     <use xlink:href="#DejaVuSans-46" x="1164.363281"/>
     <use xlink:href="#DejaVuSans-6f" x="1218.257812"/>
     <use xlink:href="#DejaVuSans-72" x="1279.439453"/>
     <use xlink:href="#DejaVuSans-65" x="1318.302734"/>
     <use xlink:href="#DejaVuSans-63" x="1379.826172"/>
     <use xlink:href="#DejaVuSans-61" x="1434.806641"/>
     <use xlink:href="#DejaVuSans-73" x="1496.085938"/>
     <use xlink:href="#DejaVuSans-74" x="1548.185547"/>
     <use xlink:href="#DejaVuSans-69" x="1587.394531"/>
     <use xlink:href="#DejaVuSans-6e" x="1615.177734"/>
     <use xlink:href="#DejaVuSans-67" x="1678.556641"/>
     <use xlink:href="#DejaVuSans-20" x="1742.033203"/>
     <use xlink:href="#DejaVuSans-2d" x="1773.820312"/>
     <use xlink:href="#DejaVuSans-20" x="1809.904297"/>
     <use xlink:href="#DejaVuSans-57" x="1841.691406"/>
     <use xlink:href="#DejaVuSans-79" x="1938.818359"/>
     <use xlink:href="#DejaVuSans-6f" x="1997.998047"/>
     <use xlink:href="#DejaVuSans-6d" x="2059.179688"/>
     <use xlink:href="#DejaVuSans-69" x="2156.591797"/>
     <use xlink:href="#DejaVuSans-6e" x="2184.375"/>
     <use xlink:href="#DejaVuSans-67" x="2247.753906"/>
    </g>
    <!-- ARIMA (4, 1, 1)x(1, 0, 1, 7) (R2 = 0.073215) -->
    <g transform="translate(577.265938 29.7555)scale(0.12 -0.12)">
     <defs>
      <path id="DejaVuSans-41" d="M 2188 4044 
L 1331 1722 
L 3047 1722 
L 2188 4044 
z
M 1831 4666 
L 2547 4666 
L 4325 0 
L 3669 0 
L 3244 1197 
L 1141 1197 
L 716 0 
L 50 0 
L 1831 4666 
z
" transform="scale(0.015625)"/>
      <path id="DejaVuSans-52" d="M 2841 2188 
Q 3044 2119 3236 1894 
Q 3428 1669 3622 1275 
L 4263 0 
L 3584 0 
L 2988 1197 
Q 2756 1666 2539 1819 
Q 2322 1972 1947 1972 
L 1259 1972 
L 1259 0 
L 628 0 
L 628 4666 
L 2053 4666 
Q 2853 4666 3247 4331 
Q 3641 3997 3641 3322 
Q 3641 2881 3436 2590 
Q 3231 2300 2841 2188 
z
M 1259 4147 
L 1259 2491 
L 2053 2491 
Q 2509 2491 2742 2702 
Q 2975 2913 2975 3322 
Q 2975 3731 2742 3939 
Q 2509 4147 2053 4147 
L 1259 4147 
z
" transform="scale(0.015625)"/>
      <path id="DejaVuSans-49" d="M 628 4666 
L 1259 4666 
L 1259 0 
L 628 0 
L 628 4666 
z
" transform="scale(0.015625)"/>
      <path id="DejaVuSans-4d" d="M 628 4666 
L 1569 4666 
L 2759 1491 
L 3956 4666 
L 4897 4666 
L 4897 0 
L 4281 0 
L 4281 4097 
L 3078 897 
L 2444 897 
L 1241 4097 
L 1241 0 
L 628 0 
L 628 4666 
z
" transform="scale(0.015625)"/>
      <path id="DejaVuSans-28" d="M 1984 4856 
Q 1566 4138 1362 3434 
Q 1159 2731 1159 2009 
Q 1159 1288 1364 580 
Q 1569 -128 1984 -844 
L 1484 -844 
Q 1016 -109 783 600 
Q 550 1309 550 2009 
Q 550 2706 781 3412 
Q 1013 4119 1484 4856 
L 1984 4856 
z
" transform="scale(0.015625)"/>
      <path id="DejaVuSans-2c" d="M 750 794 
L 1409 794 
L 1409 256 
L 897 -744 
L 494 -744 
L 750 256 
L 750 794 
z
" transform="scale(0.015625)"/>
      <path id="DejaVuSans-29" d="M 513 4856 
L 1013 4856 
Q 1481 4119 1714 3412 
Q 1947 2706 1947 2009 
Q 1947 1309 1714 600 
Q 1481 -109 1013 -844 
L 513 -844 
Q 928 -128 1133 580 
Q 1338 1288 1338 2009 
Q 1338 2731 1133 3434 
Q 928 4138 513 4856 
z
" transform="scale(0.015625)"/>
      <path id="DejaVuSans-78" d="M 3513 3500 
L 2247 1797 
L 3578 0 
L 2900 0 
L 1881 1375 
L 863 0 
L 184 0 
L 1544 1831 
L 300 3500 
L 978 3500 
L 1906 2253 
L 2834 3500 
L 3513 3500 
z
" transform="scale(0.015625)"/>
      <path id="DejaVuSans-3d" d="M 678 2906 
L 4684 2906 
L 4684 2381 
L 678 2381 
L 678 2906 
z
M 678 1631 
L 4684 1631 
L 4684 1100 
L 678 1100 
L 678 1631 
z
" transform="scale(0.015625)"/>
      <path id="DejaVuSans-2e" d="M 684 794 
L 1344 794 
L 1344 0 
L 684 0 
L 684 794 
z
" transform="scale(0.015625)"/>
      <path id="DejaVuSans-35" d="M 691 4666 
L 3169 4666 
L 3169 4134 
L 1269 4134 
L 1269 2991 
Q 1406 3038 1543 3061 
Q 1681 3084 1819 3084 
Q 2600 3084 3056 2656 
Q 3513 2228 3513 1497 
Q 3513 744 3044 326 
Q 2575 -91 1722 -91 
Q 1428 -91 1123 -41 
Q 819 9 494 109 
L 494 744 
Q 775 591 1075 516 
Q 1375 441 1709 441 
Q 2250 441 2565 725 
Q 2881 1009 2881 1497 
Q 2881 1984 2565 2268 
Q 2250 2553 1709 2553 
Q 1456 2553 1204 2497 
Q 953 2441 691 2322 
L 691 4666 
z
" transform="scale(0.015625)"/>
     </defs>
     <use xlink:href="#DejaVuSans-41"/>
     <use xlink:href="#DejaVuSans-52" x="68.408203"/>
     <use xlink:href="#DejaVuSans-49" x="137.890625"/>
     <use xlink:href="#DejaVuSans-4d" x="167.382812"/>
     <use xlink:href="#DejaVuSans-41" x="253.662109"/>
     <use xlink:href="#DejaVuSans-20" x="322.070312"/>
     <use xlink:href="#DejaVuSans-28" x="353.857422"/>
     <use xlink:href="#DejaVuSans-34" x="392.871094"/>
     <use xlink:href="#DejaVuSans-2c" x="456.494141"/>
     <use xlink:href="#DejaVuSans-20" x="488.28125"/>
     <use xlink:href="#DejaVuSans-31" x="520.068359"/>
     <use xlink:href="#DejaVuSans-2c" x="583.691406"/>
     <use xlink:href="#DejaVuSans-20" x="615.478516"/>
     <use xlink:href="#DejaVuSans-31" x="647.265625"/>
     <use xlink:href="#DejaVuSans-29" x="710.888672"/>
     <use xlink:href="#DejaVuSans-78" x="749.902344"/>
     <use xlink:href="#DejaVuSans-28" x="809.082031"/>
     <use xlink:href="#DejaVuSans-31" x="848.095703"/>
     <use xlink:href="#DejaVuSans-2c" x="911.71875"/>
     <use xlink:href="#DejaVuSans-20" x="943.505859"/>
     <use xlink:href="#DejaVuSans-30" x="975.292969"/>
     <use xlink:href="#DejaVuSans-2c" x="1038.916016"/>
     <use xlink:href="#DejaVuSans-20" x="1070.703125"/>
     <use xlink:href="#DejaVuSans-31" x="1102.490234"/>
     <use xlink:href="#DejaVuSans-2c" x="1166.113281"/>
     <use xlink:href="#DejaVuSans-20" x="1197.900391"/>
     <use xlink:href="#DejaVuSans-37" x="1229.6875"/>
     <use xlink:href="#DejaVuSans-29" x="1293.310547"/>
     <use xlink:href="#DejaVuSans-20" x="1332.324219"/>
     <use xlink:href="#DejaVuSans-28" x="1364.111328"/>
     <use xlink:href="#DejaVuSans-52" x="1403.125"/>
     <use xlink:href="#DejaVuSans-32" x="1472.607422"/>
     <use xlink:href="#DejaVuSans-20" x="1536.230469"/>
     <use xlink:href="#DejaVuSans-3d" x="1568.017578"/>
     <use xlink:href="#DejaVuSans-20" x="1651.806641"/>
     <use xlink:href="#DejaVuSans-30" x="1683.59375"/>
     <use xlink:href="#DejaVuSans-2e" x="1747.216797"/>
     <use xlink:href="#DejaVuSans-30" x="1779.003906"/>
     <use xlink:href="#DejaVuSans-37" x="1842.626953"/>
     <use xlink:href="#DejaVuSans-33" x="1906.25"/>
     <use xlink:href="#DejaVuSans-32" x="1969.873047"/>
     <use xlink:href="#DejaVuSans-31" x="2033.496094"/>
     <use xlink:href="#DejaVuSans-35" x="2097.119141"/>
     <use xlink:href="#DejaVuSans-29" x="2160.742188"/>
    </g>
   </g>
   <g id="legend_1">
    <g id="patch_7">
     <path d="M 1274.770313 87.789875 
L 1371.85 87.789875 
Q 1373.85 87.789875 1373.85 85.789875 
L 1373.85 42.7555 
Q 1373.85 40.7555 1371.85 40.7555 
L 1274.770313 40.7555 
Q 1272.770313 40.7555 1272.770313 42.7555 
L 1272.770313 85.789875 
Q 1272.770313 87.789875 1274.770313 87.789875 
z
" style="fill: #ffffff; opacity: 0.8; stroke: #cccccc; stroke-linejoin: miter"/>
    </g>
    <g id="line2d_20">
     <path d="M 1276.770313 48.853937 
L 1286.770313 48.853937 
L 1296.770313 48.853937 
" style="fill: none; stroke: #0000ff; stroke-width: 1.5; stroke-linecap: square"/>
    </g>
    <g id="text_18">
     <!-- Actual Value -->
     <g transform="translate(1304.770313 52.353937)scale(0.1 -0.1)">
      <defs>
       <path id="DejaVuSans-75" d="M 544 1381 
L 544 3500 
L 1119 3500 
L 1119 1403 
Q 1119 906 1312 657 
Q 1506 409 1894 409 
Q 2359 409 2629 706 
Q 2900 1003 2900 1516 
L 2900 3500 
L 3475 3500 
L 3475 0 
L 2900 0 
L 2900 538 
Q 2691 219 2414 64 
Q 2138 -91 1772 -91 
Q 1169 -91 856 284 
Q 544 659 544 1381 
z
M 1991 3584 
L 1991 3584 
z
" transform="scale(0.015625)"/>
       <path id="DejaVuSans-56" d="M 1831 0 
L 50 4666 
L 709 4666 
L 2188 738 
L 3669 4666 
L 4325 4666 
L 2547 0 
L 1831 0 
z
" transform="scale(0.015625)"/>
      </defs>
      <use xlink:href="#DejaVuSans-41"/>
      <use xlink:href="#DejaVuSans-63" x="66.658203"/>
      <use xlink:href="#DejaVuSans-74" x="121.638672"/>
      <use xlink:href="#DejaVuSans-75" x="160.847656"/>
      <use xlink:href="#DejaVuSans-61" x="224.226562"/>
      <use xlink:href="#DejaVuSans-6c" x="285.505859"/>
      <use xlink:href="#DejaVuSans-20" x="313.289062"/>
      <use xlink:href="#DejaVuSans-56" x="345.076172"/>
      <use xlink:href="#DejaVuSans-61" x="405.734375"/>
      <use xlink:href="#DejaVuSans-6c" x="467.013672"/>
      <use xlink:href="#DejaVuSans-75" x="494.796875"/>
      <use xlink:href="#DejaVuSans-65" x="558.175781"/>
     </g>
    </g>
    <g id="line2d_21">
     <path d="M 1276.770313 63.532062 
L 1286.770313 63.532062 
L 1296.770313 63.532062 
" style="fill: none; stroke: #ffa500; stroke-width: 1.5; stroke-linecap: square"/>
    </g>
    <g id="text_19">
     <!-- Check Value -->
     <g transform="translate(1304.770313 67.032062)scale(0.1 -0.1)">
      <defs>
       <path id="DejaVuSans-68" d="M 3513 2113 
L 3513 0 
L 2938 0 
L 2938 2094 
Q 2938 2591 2744 2837 
Q 2550 3084 2163 3084 
Q 1697 3084 1428 2787 
Q 1159 2491 1159 1978 
L 1159 0 
L 581 0 
L 581 4863 
L 1159 4863 
L 1159 2956 
Q 1366 3272 1645 3428 
Q 1925 3584 2291 3584 
Q 2894 3584 3203 3211 
Q 3513 2838 3513 2113 
z
" transform="scale(0.015625)"/>
       <path id="DejaVuSans-6b" d="M 581 4863 
L 1159 4863 
L 1159 1991 
L 2875 3500 
L 3609 3500 
L 1753 1863 
L 3688 0 
L 2938 0 
L 1159 1709 
L 1159 0 
L 581 0 
L 581 4863 
z
" transform="scale(0.015625)"/>
      </defs>
      <use xlink:href="#DejaVuSans-43"/>
      <use xlink:href="#DejaVuSans-68" x="69.824219"/>
      <use xlink:href="#DejaVuSans-65" x="133.203125"/>
      <use xlink:href="#DejaVuSans-63" x="194.726562"/>
      <use xlink:href="#DejaVuSans-6b" x="249.707031"/>
      <use xlink:href="#DejaVuSans-20" x="307.617188"/>
      <use xlink:href="#DejaVuSans-56" x="339.404297"/>
      <use xlink:href="#DejaVuSans-61" x="400.0625"/>
      <use xlink:href="#DejaVuSans-6c" x="461.341797"/>
      <use xlink:href="#DejaVuSans-75" x="489.125"/>
      <use xlink:href="#DejaVuSans-65" x="552.503906"/>
     </g>
    </g>
    <g id="line2d_22">
     <path d="M 1276.770313 78.210187 
L 1286.770313 78.210187 
L 1296.770313 78.210187 
" style="fill: none; stroke: #ff0000; stroke-width: 1.5; stroke-linecap: square"/>
    </g>
    <g id="text_20">
     <!-- Predict Value -->
     <g transform="translate(1304.770313 81.710187)scale(0.1 -0.1)">
      <defs>
       <path id="DejaVuSans-50" d="M 1259 4147 
L 1259 2394 
L 2053 2394 
Q 2494 2394 2734 2622 
Q 2975 2850 2975 3272 
Q 2975 3691 2734 3919 
Q 2494 4147 2053 4147 
L 1259 4147 
z
M 628 4666 
L 2053 4666 
Q 2838 4666 3239 4311 
Q 3641 3956 3641 3272 
Q 3641 2581 3239 2228 
Q 2838 1875 2053 1875 
L 1259 1875 
L 1259 0 
L 628 0 
L 628 4666 
z
" transform="scale(0.015625)"/>
      </defs>
      <use xlink:href="#DejaVuSans-50"/>
      <use xlink:href="#DejaVuSans-72" x="58.552734"/>
      <use xlink:href="#DejaVuSans-65" x="97.416016"/>
      <use xlink:href="#DejaVuSans-64" x="158.939453"/>
      <use xlink:href="#DejaVuSans-69" x="222.416016"/>
      <use xlink:href="#DejaVuSans-63" x="250.199219"/>
      <use xlink:href="#DejaVuSans-74" x="305.179688"/>
      <use xlink:href="#DejaVuSans-20" x="344.388672"/>
      <use xlink:href="#DejaVuSans-56" x="376.175781"/>
      <use xlink:href="#DejaVuSans-61" x="436.833984"/>
      <use xlink:href="#DejaVuSans-6c" x="498.113281"/>
      <use xlink:href="#DejaVuSans-75" x="525.896484"/>
      <use xlink:href="#DejaVuSans-65" x="589.275391"/>
     </g>
    </g>
   </g>
  </g>
 </g>
 <defs>
  <clipPath id="p0c52982dec">
   <rect x="39.65" y="35.7555" width="1339.2" height="332.64"/>
  </clipPath>
 </defs>
</svg>
