<?xml version="1.0" encoding="utf-8" standalone="no"?>
<!DOCTYPE svg PUBLIC "-//W3C//DTD SVG 1.1//EN"
  "http://www.w3.org/Graphics/SVG/1.1/DTD/svg11.dtd">
<svg xmlns:xlink="http://www.w3.org/1999/xlink" width="1392.4125pt" height="392.273625pt" viewBox="0 0 1392.4125 392.273625" xmlns="http://www.w3.org/2000/svg" version="1.1">
 <metadata>
  <rdf:RDF xmlns:dc="http://purl.org/dc/elements/1.1/" xmlns:cc="http://creativecommons.org/ns#" xmlns:rdf="http://www.w3.org/1999/02/22-rdf-syntax-ns#">
   <cc:Work>
    <dc:type rdf:resource="http://purl.org/dc/dcmitype/StillImage"/>
    <dc:date>2022-07-04T17:38:43.760339</dc:date>
    <dc:format>image/svg+xml</dc:format>
    <dc:creator>
     <cc:Agent>
      <dc:title>Matplotlib v3.5.2, https://matplotlib.org/</dc:title>
     </cc:Agent>
    </dc:creator>
   </cc:Work>
  </rdf:RDF>
 </metadata>
 <defs>
  <style type="text/css">*{stroke-linejoin: round; stroke-linecap: butt}</style>
 </defs>
 <g id="figure_1">
  <g id="patch_1">
   <path d="M 0 392.273625 
L 1392.4125 392.273625 
L 1392.4125 0 
L 0 0 
z
" style="fill: #ffffff"/>
  </g>
  <g id="axes_1">
   <g id="patch_2">
    <path d="M 46.0125 368.3955 
L 1385.2125 368.3955 
L 1385.2125 35.7555 
L 46.0125 35.7555 
z
" style="fill: #ffffff"/>
   </g>
   <g id="matplotlib.axis_1">
    <g id="xtick_1">
     <g id="line2d_1">
      <defs>
       <path id="m03941a4ee3" d="M 0 0 
L 0 3.5 
" style="stroke: #000000; stroke-width: 0.8"/>
      </defs>
      <g>
       <use xlink:href="#m03941a4ee3" x="77.289647" y="368.3955" style="stroke: #000000; stroke-width: 0.8"/>
      </g>
     </g>
     <g id="text_1">
      <!-- 2020-01 -->
      <g transform="translate(56.398241 382.993937)scale(0.1 -0.1)">
       <defs>
        <path id="DejaVuSans-32" d="M 1228 531 
L 3431 531 
L 3431 0 
L 469 0 
L 469 531 
Q 828 903 1448 1529 
Q 2069 2156 2228 2338 
Q 2531 2678 2651 2914 
Q 2772 3150 2772 3378 
Q 2772 3750 2511 3984 
Q 2250 4219 1831 4219 
Q 1534 4219 1204 4116 
Q 875 4013 500 3803 
L 500 4441 
Q 881 4594 1212 4672 
Q 1544 4750 1819 4750 
Q 2544 4750 2975 4387 
Q 3406 4025 3406 3419 
Q 3406 3131 3298 2873 
Q 3191 2616 2906 2266 
Q 2828 2175 2409 1742 
Q 1991 1309 1228 531 
z
" transform="scale(0.015625)"/>
        <path id="DejaVuSans-30" d="M 2034 4250 
Q 1547 4250 1301 3770 
Q 1056 3291 1056 2328 
Q 1056 1369 1301 889 
Q 1547 409 2034 409 
Q 2525 409 2770 889 
Q 3016 1369 3016 2328 
Q 3016 3291 2770 3770 
Q 2525 4250 2034 4250 
z
M 2034 4750 
Q 2819 4750 3233 4129 
Q 3647 3509 3647 2328 
Q 3647 1150 3233 529 
Q 2819 -91 2034 -91 
Q 1250 -91 836 529 
Q 422 1150 422 2328 
Q 422 3509 836 4129 
Q 1250 4750 2034 4750 
z
" transform="scale(0.015625)"/>
        <path id="DejaVuSans-2d" d="M 313 2009 
L 1997 2009 
L 1997 1497 
L 313 1497 
L 313 2009 
z
" transform="scale(0.015625)"/>
        <path id="DejaVuSans-31" d="M 794 531 
L 1825 531 
L 1825 4091 
L 703 3866 
L 703 4441 
L 1819 4666 
L 2450 4666 
L 2450 531 
L 3481 531 
L 3481 0 
L 794 0 
L 794 531 
z
" transform="scale(0.015625)"/>
       </defs>
       <use xlink:href="#DejaVuSans-32"/>
       <use xlink:href="#DejaVuSans-30" x="63.623047"/>
       <use xlink:href="#DejaVuSans-32" x="127.246094"/>
       <use xlink:href="#DejaVuSans-30" x="190.869141"/>
       <use xlink:href="#DejaVuSans-2d" x="254.492188"/>
       <use xlink:href="#DejaVuSans-30" x="290.576172"/>
       <use xlink:href="#DejaVuSans-31" x="354.199219"/>
      </g>
     </g>
    </g>
    <g id="xtick_2">
     <g id="line2d_2">
      <g>
       <use xlink:href="#m03941a4ee3" x="199.707729" y="368.3955" style="stroke: #000000; stroke-width: 0.8"/>
      </g>
     </g>
     <g id="text_2">
      <!-- 2020-04 -->
      <g transform="translate(178.816322 382.993937)scale(0.1 -0.1)">
       <defs>
        <path id="DejaVuSans-34" d="M 2419 4116 
L 825 1625 
L 2419 1625 
L 2419 4116 
z
M 2253 4666 
L 3047 4666 
L 3047 1625 
L 3713 1625 
L 3713 1100 
L 3047 1100 
L 3047 0 
L 2419 0 
L 2419 1100 
L 313 1100 
L 313 1709 
L 2253 4666 
z
" transform="scale(0.015625)"/>
       </defs>
       <use xlink:href="#DejaVuSans-32"/>
       <use xlink:href="#DejaVuSans-30" x="63.623047"/>
       <use xlink:href="#DejaVuSans-32" x="127.246094"/>
       <use xlink:href="#DejaVuSans-30" x="190.869141"/>
       <use xlink:href="#DejaVuSans-2d" x="254.492188"/>
       <use xlink:href="#DejaVuSans-30" x="290.576172"/>
       <use xlink:href="#DejaVuSans-34" x="354.199219"/>
      </g>
     </g>
    </g>
    <g id="xtick_3">
     <g id="line2d_3">
      <g>
       <use xlink:href="#m03941a4ee3" x="322.12581" y="368.3955" style="stroke: #000000; stroke-width: 0.8"/>
      </g>
     </g>
     <g id="text_3">
      <!-- 2020-07 -->
      <g transform="translate(301.234404 382.993937)scale(0.1 -0.1)">
       <defs>
        <path id="DejaVuSans-37" d="M 525 4666 
L 3525 4666 
L 3525 4397 
L 1831 0 
L 1172 0 
L 2766 4134 
L 525 4134 
L 525 4666 
z
" transform="scale(0.015625)"/>
       </defs>
       <use xlink:href="#DejaVuSans-32"/>
       <use xlink:href="#DejaVuSans-30" x="63.623047"/>
       <use xlink:href="#DejaVuSans-32" x="127.246094"/>
       <use xlink:href="#DejaVuSans-30" x="190.869141"/>
       <use xlink:href="#DejaVuSans-2d" x="254.492188"/>
       <use xlink:href="#DejaVuSans-30" x="290.576172"/>
       <use xlink:href="#DejaVuSans-37" x="354.199219"/>
      </g>
     </g>
    </g>
    <g id="xtick_4">
     <g id="line2d_4">
      <g>
       <use xlink:href="#m03941a4ee3" x="445.889145" y="368.3955" style="stroke: #000000; stroke-width: 0.8"/>
      </g>
     </g>
     <g id="text_4">
      <!-- 2020-10 -->
      <g transform="translate(424.997739 382.993937)scale(0.1 -0.1)">
       <use xlink:href="#DejaVuSans-32"/>
       <use xlink:href="#DejaVuSans-30" x="63.623047"/>
       <use xlink:href="#DejaVuSans-32" x="127.246094"/>
       <use xlink:href="#DejaVuSans-30" x="190.869141"/>
       <use xlink:href="#DejaVuSans-2d" x="254.492188"/>
       <use xlink:href="#DejaVuSans-31" x="290.576172"/>
       <use xlink:href="#DejaVuSans-30" x="354.199219"/>
      </g>
     </g>
    </g>
    <g id="xtick_5">
     <g id="line2d_5">
      <g>
       <use xlink:href="#m03941a4ee3" x="569.65248" y="368.3955" style="stroke: #000000; stroke-width: 0.8"/>
      </g>
     </g>
     <g id="text_5">
      <!-- 2021-01 -->
      <g transform="translate(548.761074 382.993937)scale(0.1 -0.1)">
       <use xlink:href="#DejaVuSans-32"/>
       <use xlink:href="#DejaVuSans-30" x="63.623047"/>
       <use xlink:href="#DejaVuSans-32" x="127.246094"/>
       <use xlink:href="#DejaVuSans-31" x="190.869141"/>
       <use xlink:href="#DejaVuSans-2d" x="254.492188"/>
       <use xlink:href="#DejaVuSans-30" x="290.576172"/>
       <use xlink:href="#DejaVuSans-31" x="354.199219"/>
      </g>
     </g>
    </g>
    <g id="xtick_6">
     <g id="line2d_6">
      <g>
       <use xlink:href="#m03941a4ee3" x="690.725308" y="368.3955" style="stroke: #000000; stroke-width: 0.8"/>
      </g>
     </g>
     <g id="text_6">
      <!-- 2021-04 -->
      <g transform="translate(669.833901 382.993937)scale(0.1 -0.1)">
       <use xlink:href="#DejaVuSans-32"/>
       <use xlink:href="#DejaVuSans-30" x="63.623047"/>
       <use xlink:href="#DejaVuSans-32" x="127.246094"/>
       <use xlink:href="#DejaVuSans-31" x="190.869141"/>
       <use xlink:href="#DejaVuSans-2d" x="254.492188"/>
       <use xlink:href="#DejaVuSans-30" x="290.576172"/>
       <use xlink:href="#DejaVuSans-34" x="354.199219"/>
      </g>
     </g>
    </g>
    <g id="xtick_7">
     <g id="line2d_7">
      <g>
       <use xlink:href="#m03941a4ee3" x="813.143389" y="368.3955" style="stroke: #000000; stroke-width: 0.8"/>
      </g>
     </g>
     <g id="text_7">
      <!-- 2021-07 -->
      <g transform="translate(792.251983 382.993937)scale(0.1 -0.1)">
       <use xlink:href="#DejaVuSans-32"/>
       <use xlink:href="#DejaVuSans-30" x="63.623047"/>
       <use xlink:href="#DejaVuSans-32" x="127.246094"/>
       <use xlink:href="#DejaVuSans-31" x="190.869141"/>
       <use xlink:href="#DejaVuSans-2d" x="254.492188"/>
       <use xlink:href="#DejaVuSans-30" x="290.576172"/>
       <use xlink:href="#DejaVuSans-37" x="354.199219"/>
      </g>
     </g>
    </g>
    <g id="xtick_8">
     <g id="line2d_8">
      <g>
       <use xlink:href="#m03941a4ee3" x="936.906724" y="368.3955" style="stroke: #000000; stroke-width: 0.8"/>
      </g>
     </g>
     <g id="text_8">
      <!-- 2021-10 -->
      <g transform="translate(916.015318 382.993937)scale(0.1 -0.1)">
       <use xlink:href="#DejaVuSans-32"/>
       <use xlink:href="#DejaVuSans-30" x="63.623047"/>
       <use xlink:href="#DejaVuSans-32" x="127.246094"/>
       <use xlink:href="#DejaVuSans-31" x="190.869141"/>
       <use xlink:href="#DejaVuSans-2d" x="254.492188"/>
       <use xlink:href="#DejaVuSans-31" x="290.576172"/>
       <use xlink:href="#DejaVuSans-30" x="354.199219"/>
      </g>
     </g>
    </g>
    <g id="xtick_9">
     <g id="line2d_9">
      <g>
       <use xlink:href="#m03941a4ee3" x="1060.670059" y="368.3955" style="stroke: #000000; stroke-width: 0.8"/>
      </g>
     </g>
     <g id="text_9">
      <!-- 2022-01 -->
      <g transform="translate(1039.778653 382.993937)scale(0.1 -0.1)">
       <use xlink:href="#DejaVuSans-32"/>
       <use xlink:href="#DejaVuSans-30" x="63.623047"/>
       <use xlink:href="#DejaVuSans-32" x="127.246094"/>
       <use xlink:href="#DejaVuSans-32" x="190.869141"/>
       <use xlink:href="#DejaVuSans-2d" x="254.492188"/>
       <use xlink:href="#DejaVuSans-30" x="290.576172"/>
       <use xlink:href="#DejaVuSans-31" x="354.199219"/>
      </g>
     </g>
    </g>
    <g id="xtick_10">
     <g id="line2d_10">
      <g>
       <use xlink:href="#m03941a4ee3" x="1181.742887" y="368.3955" style="stroke: #000000; stroke-width: 0.8"/>
      </g>
     </g>
     <g id="text_10">
      <!-- 2022-04 -->
      <g transform="translate(1160.85148 382.993937)scale(0.1 -0.1)">
       <use xlink:href="#DejaVuSans-32"/>
       <use xlink:href="#DejaVuSans-30" x="63.623047"/>
       <use xlink:href="#DejaVuSans-32" x="127.246094"/>
       <use xlink:href="#DejaVuSans-32" x="190.869141"/>
       <use xlink:href="#DejaVuSans-2d" x="254.492188"/>
       <use xlink:href="#DejaVuSans-30" x="290.576172"/>
       <use xlink:href="#DejaVuSans-34" x="354.199219"/>
      </g>
     </g>
    </g>
    <g id="xtick_11">
     <g id="line2d_11">
      <g>
       <use xlink:href="#m03941a4ee3" x="1304.160968" y="368.3955" style="stroke: #000000; stroke-width: 0.8"/>
      </g>
     </g>
     <g id="text_11">
      <!-- 2022-07 -->
      <g transform="translate(1283.269562 382.993937)scale(0.1 -0.1)">
       <use xlink:href="#DejaVuSans-32"/>
       <use xlink:href="#DejaVuSans-30" x="63.623047"/>
       <use xlink:href="#DejaVuSans-32" x="127.246094"/>
       <use xlink:href="#DejaVuSans-32" x="190.869141"/>
       <use xlink:href="#DejaVuSans-2d" x="254.492188"/>
       <use xlink:href="#DejaVuSans-30" x="290.576172"/>
       <use xlink:href="#DejaVuSans-37" x="354.199219"/>
      </g>
     </g>
    </g>
   </g>
   <g id="matplotlib.axis_2">
    <g id="ytick_1">
     <g id="line2d_12">
      <defs>
       <path id="mea9986113c" d="M 0 0 
L -3.5 0 
" style="stroke: #000000; stroke-width: 0.8"/>
      </defs>
      <g>
       <use xlink:href="#mea9986113c" x="46.0125" y="330.158018" style="stroke: #000000; stroke-width: 0.8"/>
      </g>
     </g>
     <g id="text_12">
      <!-- 0 -->
      <g transform="translate(32.65 333.957237)scale(0.1 -0.1)">
       <use xlink:href="#DejaVuSans-30"/>
      </g>
     </g>
    </g>
    <g id="ytick_2">
     <g id="line2d_13">
      <g>
       <use xlink:href="#mea9986113c" x="46.0125" y="279.844096" style="stroke: #000000; stroke-width: 0.8"/>
      </g>
     </g>
     <g id="text_13">
      <!-- 5000 -->
      <g transform="translate(13.5625 283.643315)scale(0.1 -0.1)">
       <defs>
        <path id="DejaVuSans-35" d="M 691 4666 
L 3169 4666 
L 3169 4134 
L 1269 4134 
L 1269 2991 
Q 1406 3038 1543 3061 
Q 1681 3084 1819 3084 
Q 2600 3084 3056 2656 
Q 3513 2228 3513 1497 
Q 3513 744 3044 326 
Q 2575 -91 1722 -91 
Q 1428 -91 1123 -41 
Q 819 9 494 109 
L 494 744 
Q 775 591 1075 516 
Q 1375 441 1709 441 
Q 2250 441 2565 725 
Q 2881 1009 2881 1497 
Q 2881 1984 2565 2268 
Q 2250 2553 1709 2553 
Q 1456 2553 1204 2497 
Q 953 2441 691 2322 
L 691 4666 
z
" transform="scale(0.015625)"/>
       </defs>
       <use xlink:href="#DejaVuSans-35"/>
       <use xlink:href="#DejaVuSans-30" x="63.623047"/>
       <use xlink:href="#DejaVuSans-30" x="127.246094"/>
       <use xlink:href="#DejaVuSans-30" x="190.869141"/>
      </g>
     </g>
    </g>
    <g id="ytick_3">
     <g id="line2d_14">
      <g>
       <use xlink:href="#mea9986113c" x="46.0125" y="229.530174" style="stroke: #000000; stroke-width: 0.8"/>
      </g>
     </g>
     <g id="text_14">
      <!-- 10000 -->
      <g transform="translate(7.2 233.329393)scale(0.1 -0.1)">
       <use xlink:href="#DejaVuSans-31"/>
       <use xlink:href="#DejaVuSans-30" x="63.623047"/>
       <use xlink:href="#DejaVuSans-30" x="127.246094"/>
       <use xlink:href="#DejaVuSans-30" x="190.869141"/>
       <use xlink:href="#DejaVuSans-30" x="254.492188"/>
      </g>
     </g>
    </g>
    <g id="ytick_4">
     <g id="line2d_15">
      <g>
       <use xlink:href="#mea9986113c" x="46.0125" y="179.216252" style="stroke: #000000; stroke-width: 0.8"/>
      </g>
     </g>
     <g id="text_15">
      <!-- 15000 -->
      <g transform="translate(7.2 183.015471)scale(0.1 -0.1)">
       <use xlink:href="#DejaVuSans-31"/>
       <use xlink:href="#DejaVuSans-35" x="63.623047"/>
       <use xlink:href="#DejaVuSans-30" x="127.246094"/>
       <use xlink:href="#DejaVuSans-30" x="190.869141"/>
       <use xlink:href="#DejaVuSans-30" x="254.492188"/>
      </g>
     </g>
    </g>
    <g id="ytick_5">
     <g id="line2d_16">
      <g>
       <use xlink:href="#mea9986113c" x="46.0125" y="128.90233" style="stroke: #000000; stroke-width: 0.8"/>
      </g>
     </g>
     <g id="text_16">
      <!-- 20000 -->
      <g transform="translate(7.2 132.701549)scale(0.1 -0.1)">
       <use xlink:href="#DejaVuSans-32"/>
       <use xlink:href="#DejaVuSans-30" x="63.623047"/>
       <use xlink:href="#DejaVuSans-30" x="127.246094"/>
       <use xlink:href="#DejaVuSans-30" x="190.869141"/>
       <use xlink:href="#DejaVuSans-30" x="254.492188"/>
      </g>
     </g>
    </g>
    <g id="ytick_6">
     <g id="line2d_17">
      <g>
       <use xlink:href="#mea9986113c" x="46.0125" y="78.588408" style="stroke: #000000; stroke-width: 0.8"/>
      </g>
     </g>
     <g id="text_17">
      <!-- 25000 -->
      <g transform="translate(7.2 82.387627)scale(0.1 -0.1)">
       <use xlink:href="#DejaVuSans-32"/>
       <use xlink:href="#DejaVuSans-35" x="63.623047"/>
       <use xlink:href="#DejaVuSans-30" x="127.246094"/>
       <use xlink:href="#DejaVuSans-30" x="190.869141"/>
       <use xlink:href="#DejaVuSans-30" x="254.492188"/>
      </g>
     </g>
    </g>
   </g>
   <g id="line2d_18">
    <path d="M 106.885227 330.158018 
L 180.874178 330.158018 
L 182.219431 329.886323 
L 183.564685 330.107704 
L 186.255192 330.017139 
L 188.945699 329.906449 
L 191.636207 329.312744 
L 197.017221 329.634753 
L 198.362475 329.282556 
L 199.707729 328.618412 
L 201.052982 328.547973 
L 202.398236 329.061175 
L 203.743489 328.437282 
L 205.088743 329.222179 
L 206.433997 329.403309 
L 207.77925 328.698914 
L 209.124504 329.634753 
L 210.469758 328.547973 
L 211.815011 329.071238 
L 213.160265 329.413372 
L 214.505519 329.131614 
L 215.850772 329.161803 
L 217.196026 329.000798 
L 218.54128 329.363058 
L 221.231787 329.071238 
L 222.57704 330.158018 
L 223.922294 329.131614 
L 226.612801 328.880045 
L 227.958055 329.282556 
L 229.303309 328.920296 
L 230.648562 329.111489 
L 231.993816 329.423435 
L 233.33907 329.554251 
L 234.684323 329.886323 
L 236.029577 328.859919 
L 237.37483 329.524063 
L 238.720084 328.698914 
L 240.065338 328.849856 
L 241.410591 329.121551 
L 242.755845 328.940421 
L 244.101099 329.433498 
L 245.446352 329.322807 
L 246.791606 329.403309 
L 248.13686 328.869982 
L 250.827367 329.493874 
L 252.172621 329.161803 
L 253.517874 329.916511 
L 254.863128 328.960547 
L 256.208381 328.890107 
L 257.553635 329.101426 
L 260.244142 328.648601 
L 261.589396 329.423435 
L 262.93465 329.272493 
L 264.279903 329.242305 
L 265.625157 329.725319 
L 266.970411 328.668726 
L 268.315664 328.457408 
L 269.660918 329.041049 
L 272.351425 329.624691 
L 273.696679 329.675005 
L 275.041932 329.242305 
L 276.387186 329.715256 
L 279.077693 329.352995 
L 280.422947 330.158018 
L 281.768201 328.598287 
L 283.113454 328.960547 
L 287.149215 329.15174 
L 288.494469 329.634753 
L 289.839723 329.242305 
L 291.184976 329.604565 
L 292.53023 328.568098 
L 293.875483 328.950484 
L 295.220737 328.71904 
L 296.565991 327.914017 
L 297.911244 327.903955 
L 299.256498 328.568098 
L 300.601752 328.28634 
L 303.292259 327.551757 
L 304.637513 325.619702 
L 305.982766 326.615918 
L 307.32802 326.827237 
L 308.673273 325.348007 
L 310.018527 327.964331 
L 311.363781 327.169371 
L 312.709034 325.337945 
L 315.399542 326.142967 
L 316.744795 327.149246 
L 318.090049 327.12912 
L 319.435303 327.863703 
L 320.780556 324.301478 
L 322.12581 326.51529 
L 323.471064 326.012151 
L 324.816317 324.74424 
L 326.161571 324.331666 
L 327.506824 327.31025 
L 328.852078 325.820958 
L 330.197332 321.524149 
L 331.542585 323.375702 
L 332.887839 324.090159 
L 334.233093 324.170662 
L 335.578346 323.244885 
L 336.9236 325.569389 
L 338.268854 325.015935 
L 339.614107 320.155611 
L 340.959361 319.350588 
L 342.304615 323.858715 
L 343.649868 323.114069 
L 344.995122 320.930445 
L 346.340375 328.054896 
L 347.685629 328.447345 
L 349.030883 321.20214 
L 350.376136 320.376992 
L 351.72139 323.40589 
L 353.066644 318.616005 
L 354.411897 320.447431 
L 355.757151 318.042426 
L 357.102405 316.07012 
L 358.447658 319.189583 
L 359.792912 321.624777 
L 361.138165 318.917888 
L 362.483419 322.641118 
L 363.828673 317.639914 
L 365.173926 325.187003 
L 366.51918 326.364349 
L 367.864434 321.493961 
L 369.209687 319.078893 
L 370.554941 321.735468 
L 371.900195 321.5644 
L 373.245448 321.856221 
L 374.590702 325.267505 
L 375.935956 326.163093 
L 377.281209 322.459988 
L 378.626463 323.415953 
L 379.971716 323.063755 
L 381.31697 322.168167 
L 382.662224 321.091449 
L 384.007477 324.683864 
L 385.352731 326.444851 
L 386.697985 324.110285 
L 388.043238 324.009657 
L 389.388492 322.651181 
L 390.733746 319.320399 
L 392.078999 321.574463 
L 393.424253 324.462482 
L 394.769507 326.565604 
L 396.11476 323.617208 
L 397.460014 323.456204 
L 398.805267 322.993316 
L 400.150521 323.013441 
L 401.495775 319.159395 
L 402.841028 322.449925 
L 404.186282 323.979469 
L 406.876789 322.912813 
L 408.222043 321.010947 
L 409.567297 319.964418 
L 410.91255 318.616005 
L 412.257804 325.931649 
L 413.603058 323.989531 
L 414.948311 321.775719 
L 416.293565 321.343019 
L 417.638818 322.399611 
L 418.984072 320.678875 
L 420.329326 319.924166 
L 421.674579 323.164383 
L 423.019833 321.413459 
L 424.365087 319.17952 
L 425.71034 320.397117 
L 427.055594 319.753099 
L 428.400848 317.589601 
L 429.746101 317.710354 
L 431.091355 320.065045 
L 432.436608 319.078893 
L 433.781862 318.444937 
L 435.127116 319.199646 
L 436.472369 319.260023 
L 437.817623 317.317905 
L 439.162877 320.195862 
L 440.50813 321.876347 
L 441.853384 321.493961 
L 443.198638 319.843664 
L 444.543891 320.29649 
L 445.889145 318.38456 
L 447.234399 318.183305 
L 448.579652 318.193368 
L 449.924906 330.158018 
L 451.270159 317.740542 
L 452.615413 316.43238 
L 453.960667 320.034857 
L 455.30592 317.961924 
L 456.651174 314.822335 
L 457.996428 314.73177 
L 459.341681 322.449925 
L 460.686935 322.137979 
L 462.032189 316.985833 
L 463.377442 318.867574 
L 464.722696 317.871358 
L 466.06795 315.3456 
L 468.758457 321.795844 
L 470.10371 322.369423 
L 471.448964 315.315411 
L 472.794218 317.005959 
L 474.139471 313.775805 
L 475.484725 316.341815 
L 476.829979 311.753186 
L 478.175232 319.582032 
L 479.520486 323.486392 
L 480.86574 319.994606 
L 482.210993 322.681369 
L 483.556247 319.68266 
L 484.901501 317.056273 
L 486.246754 317.40847 
L 487.592008 316.583322 
L 488.937261 319.24996 
L 490.282515 316.764452 
L 491.627769 317.619789 
L 492.973022 309.016108 
L 494.318276 311.260109 
L 495.66353 330.158018 
L 497.008783 284.805049 
L 498.354037 308.050081 
L 499.699291 313.031159 
L 501.044544 308.251337 
L 502.389798 306.440035 
L 503.735051 303.320572 
L 505.080305 301.509271 
L 506.425559 290.681715 
L 509.116066 314.55064 
L 510.46132 299.798598 
L 511.806573 300.825002 
L 513.151827 300.764625 
L 514.497081 293.298039 
L 515.842334 295.884175 
L 517.187588 294.49551 
L 518.532842 302.62624 
L 519.878095 292.603707 
L 521.223349 330.158018 
L 523.913856 267.195176 
L 525.25911 312.839966 
L 526.604363 308.019893 
L 527.949617 312.678962 
L 529.294871 301.388518 
L 530.640124 312.980845 
L 531.985378 281.584958 
L 533.330632 286.18365 
L 534.675885 297.544534 
L 536.021139 311.00854 
L 537.366393 307.043802 
L 538.711646 306.943175 
L 540.0569 305.403569 
L 541.402153 290.872908 
L 542.747407 290.04776 
L 544.092661 286.495597 
L 545.437914 308.945669 
L 546.783168 307.637507 
L 548.128422 297.514346 
L 549.473675 300.140732 
L 552.164183 288.699347 
L 553.509436 279.914536 
L 554.85469 303.874025 
L 556.199943 308.00983 
L 557.545197 293.227599 
L 558.890451 297.071583 
L 560.235704 330.158018 
L 561.580958 290.15845 
L 562.926212 303.541953 
L 564.271465 295.159654 
L 565.616719 317.931735 
L 566.961973 297.212462 
L 568.307226 290.742092 
L 569.65248 330.158018 
L 570.997734 278.495683 
L 572.342987 249.333734 
L 573.688241 302.827496 
L 575.033494 314.973277 
L 576.378748 296.709323 
L 577.724002 291.859061 
L 579.069255 277.388777 
L 580.414509 286.857857 
L 581.759763 264.770045 
L 583.105016 290.872908 
L 584.45027 307.808574 
L 585.795524 290.711903 
L 587.140777 298.47031 
L 588.486031 294.49551 
L 589.831285 293.609985 
L 591.176538 296.618758 
L 592.521792 311.491553 
L 593.867045 314.29907 
L 595.212299 309.992198 
L 596.557553 302.978438 
L 597.902806 300.352051 
L 599.24806 288.145893 
L 601.938567 312.206011 
L 603.283821 314.138065 
L 604.629075 302.887873 
L 605.974328 306.701668 
L 607.319582 301.972159 
L 608.664836 306.148215 
L 610.010089 301.076571 
L 611.355343 315.929241 
L 612.700596 316.955645 
L 614.04585 308.633722 
L 615.391104 302.022473 
L 616.736357 303.300447 
L 618.081611 309.398494 
L 619.426865 308.100395 
L 620.772118 319.521655 
L 622.117372 319.280148 
L 623.462626 313.333043 
L 624.807879 313.091536 
L 626.153133 315.677671 
L 627.498386 315.325474 
L 628.84364 317.307843 
L 630.188894 322.79206 
L 631.534147 324.965621 
L 632.879401 319.300274 
L 634.224655 323.748025 
L 635.569908 321.332956 
L 636.915162 320.306552 
L 638.260416 319.622283 
L 639.605669 325.015935 
L 640.950923 326.464976 
L 642.296177 321.956849 
L 643.64143 318.555628 
L 644.986684 321.393333 
L 646.331937 322.298984 
L 647.677191 322.97319 
L 649.022445 326.243595 
L 650.367698 328.960547 
L 651.712952 322.550553 
L 653.058206 321.091449 
L 654.403459 320.870068 
L 655.748713 320.195862 
L 657.093967 325.448635 
L 658.43922 328.316529 
L 659.784474 327.350501 
L 661.129728 321.785782 
L 662.474981 323.053692 
L 663.820235 325.841084 
L 665.165488 323.758087 
L 666.510742 325.116563 
L 667.855996 326.867488 
L 669.201249 327.712762 
L 670.546503 325.066249 
L 671.891757 324.402106 
L 673.23701 325.881335 
L 674.582264 330.107704 
L 675.927518 330.077516 
L 677.272771 320.346803 
L 678.618025 328.155524 
L 679.963279 325.025998 
L 681.308532 326.314035 
L 682.653786 325.388258 
L 683.999039 330.047328 
L 685.344293 330.027202 
L 686.689547 321.192077 
L 688.0348 328.849856 
L 689.380054 326.132904 
L 690.725308 325.891398 
L 692.070561 326.324097 
L 693.415815 330.137893 
L 694.761069 330.158018 
L 696.106322 321.212203 
L 697.451576 343.179261 
L 698.796829 312.407267 
L 700.142083 325.297693 
L 701.487337 325.9719 
L 702.83259 330.158018 
L 704.177844 330.158018 
L 705.523098 320.417243 
L 706.868351 329.061175 
L 708.213605 326.676295 
L 709.558859 326.51529 
L 710.904112 327.410878 
L 712.249366 330.158018 
L 713.59462 330.158018 
L 714.939873 322.238607 
L 716.285127 329.403309 
L 717.63038 327.763076 
L 718.975634 327.31025 
L 720.320888 327.098932 
L 721.666141 330.158018 
L 723.011395 330.158018 
L 724.356649 322.832311 
L 725.701902 329.000798 
L 727.047156 327.652385 
L 728.39241 327.249874 
L 729.737663 326.394537 
L 731.082917 330.158018 
L 732.428171 330.158018 
L 733.773424 324.452419 
L 735.118678 328.457408 
L 736.463931 327.893892 
L 737.809185 328.668726 
L 739.154439 327.803327 
L 740.499692 330.158018 
L 741.844946 330.158018 
L 743.1902 323.446141 
L 744.535453 329.302682 
L 745.880707 328.71904 
L 747.225961 328.618412 
L 748.571214 328.638538 
L 749.916468 330.158018 
L 751.261721 330.158018 
L 752.606975 325.820958 
L 753.952229 329.443561 
L 756.642736 328.427219 
L 757.98799 328.296403 
L 759.333243 330.158018 
L 760.678497 330.158018 
L 762.023751 325.549263 
L 763.369004 329.26243 
L 764.714258 328.960547 
L 767.404765 328.708977 
L 768.750019 330.158018 
L 771.440526 330.158018 
L 772.78578 325.468761 
L 774.131033 329.735381 
L 775.476287 329.000798 
L 776.821541 328.628475 
L 778.166794 330.158018 
L 779.512048 330.158018 
L 780.857302 326.756797 
L 782.202555 329.352995 
L 783.547809 328.910233 
L 784.893063 328.930359 
L 786.238316 328.366843 
L 787.58357 330.158018 
L 788.928823 330.158018 
L 790.274077 325.227254 
L 791.619331 329.705193 
L 792.964584 327.984457 
L 794.309838 328.054896 
L 795.655092 328.336654 
L 797.000345 330.158018 
L 798.345599 330.158018 
L 799.690853 325.619702 
L 801.036106 328.527847 
L 802.38136 327.49138 
L 803.726614 327.410878 
L 805.071867 327.903955 
L 806.417121 330.158018 
L 807.762374 330.158018 
L 809.107628 324.321603 
L 810.452882 329.302682 
L 811.798135 327.38069 
L 813.143389 326.847362 
L 814.488643 327.108995 
L 815.833896 330.158018 
L 818.524404 330.158018 
L 819.869657 319.68266 
L 821.214911 328.638538 
L 822.560164 325.569389 
L 823.905418 324.613424 
L 825.250672 330.158018 
L 826.595925 330.158018 
L 827.941179 317.971986 
L 829.286433 330.158018 
L 830.631686 317.488973 
L 831.97694 323.063755 
L 833.322194 322.61093 
L 834.667447 330.158018 
L 836.012701 330.158018 
L 837.357955 308.764539 
L 838.703208 325.478823 
L 840.048462 318.052489 
L 841.393715 314.248756 
L 842.738969 318.143054 
L 844.084223 330.158018 
L 845.429476 330.158018 
L 846.77473 293.237662 
L 848.119984 322.781997 
L 849.465237 315.325474 
L 850.810491 311.98463 
L 852.155745 312.27645 
L 853.500998 330.158018 
L 854.846252 330.158018 
L 856.191506 273.836614 
L 857.536759 320.638624 
L 858.882013 308.422404 
L 860.227266 306.590977 
L 861.57252 306.983426 
L 862.917774 330.158018 
L 864.263027 330.158018 
L 865.608281 266.480719 
L 866.953535 319.672597 
L 868.298788 308.029955 
L 869.644042 305.323066 
L 870.989296 301.841343 
L 872.334549 330.158018 
L 873.679803 330.158018 
L 875.025057 260.050599 
L 876.37031 321.483898 
L 877.715564 306.409847 
L 879.060817 304.980932 
L 880.406071 301.46902 
L 881.751325 330.158018 
L 883.096578 330.158018 
L 884.441832 267.587625 
L 885.787086 312.105383 
L 887.132339 304.658923 
L 888.477593 288.377337 
L 889.822847 296.568444 
L 891.1681 330.158018 
L 892.513354 330.158018 
L 893.858607 251.396605 
L 895.203861 312.860092 
L 896.549115 304.618671 
L 897.894368 297.212462 
L 899.239622 299.164642 
L 900.584876 330.158018 
L 903.275383 330.158018 
L 904.620637 228.795591 
L 905.96589 317.076399 
L 907.311144 305.383443 
L 908.656398 303.723084 
L 910.001651 330.158018 
L 911.346905 330.158018 
L 912.692158 253.177718 
L 914.037412 322.520365 
L 915.382666 310.374584 
L 916.727919 307.385937 
L 918.073173 308.784664 
L 919.418427 330.158018 
L 920.76368 330.158018 
L 922.108934 269.801437 
L 923.454188 325.287631 
L 924.799441 307.57713 
L 926.144695 306.399784 
L 927.489949 317.780793 
L 928.835202 330.158018 
L 930.180456 330.158018 
L 931.525709 276.362373 
L 932.870963 323.637334 
L 934.216217 315.063842 
L 935.56147 311.239984 
L 936.906724 315.546855 
L 938.251978 330.158018 
L 939.597231 330.158018 
L 940.942485 291.526989 
L 942.287739 323.295199 
L 944.978246 315.053779 
L 946.323499 325.680079 
L 947.668753 330.158018 
L 949.014007 330.158018 
L 950.35926 280.659182 
L 951.704514 324.170662 
L 953.049768 317.901547 
L 954.395021 318.27387 
L 955.740275 318.293995 
L 957.085529 330.158018 
L 958.430782 330.158018 
L 959.776036 294.223815 
L 961.12129 325.911523 
L 962.466543 321.151826 
L 963.811797 318.605942 
L 965.15705 319.602157 
L 966.502304 330.158018 
L 967.847558 330.158018 
L 969.192811 309.086548 
L 970.538065 325.670016 
L 971.883319 321.45371 
L 973.228572 323.15432 
L 974.573826 320.900257 
L 975.91908 330.158018 
L 977.264333 330.158018 
L 978.609587 316.331752 
L 979.954841 322.309046 
L 981.300094 323.808401 
L 982.645348 321.403396 
L 983.990601 324.361854 
L 985.335855 330.158018 
L 986.681109 330.158018 
L 988.026362 312.09532 
L 989.371616 327.49138 
L 990.71687 325.931649 
L 992.062123 330.158018 
L 993.407377 309.609812 
L 994.752631 330.158018 
L 996.097884 330.158018 
L 997.443138 302.173415 
L 998.788392 326.686358 
L 1000.133645 322.943002 
L 1001.478899 319.531718 
L 1002.824152 320.397117 
L 1004.169406 330.158018 
L 1005.51466 330.158018 
L 1006.859913 303.099191 
L 1008.205167 326.273783 
L 1009.550421 324.673801 
L 1010.895674 330.158018 
L 1014.931435 330.158018 
L 1016.276689 291.718182 
L 1017.621942 321.232328 
L 1018.967196 324.271289 
L 1020.31245 313.856308 
L 1021.657703 317.197152 
L 1023.002957 330.158018 
L 1024.348211 330.158018 
L 1025.693464 286.50566 
L 1027.038718 320.346803 
L 1028.383972 318.515377 
L 1029.729225 315.536793 
L 1031.074479 312.940594 
L 1032.419733 330.158018 
L 1033.764986 330.158018 
L 1035.11024 293.277913 
L 1036.455493 323.909029 
L 1037.800747 327.753013 
L 1039.146001 330.158018 
L 1040.491254 316.804703 
L 1041.836508 330.158018 
L 1043.181762 330.158018 
L 1044.527015 296.648946 
L 1045.872269 324.482608 
L 1047.217523 315.244972 
L 1048.562776 310.867661 
L 1049.90803 319.984543 
L 1051.253284 330.158018 
L 1052.598537 330.158018 
L 1053.943791 296.145807 
L 1055.289044 305.574636 
L 1056.634298 322.459988 
L 1057.979552 288.236458 
L 1059.324805 290.168513 
L 1060.670059 330.158018 
L 1062.015313 330.158018 
L 1063.360566 250.531205 
L 1064.70582 288.799974 
L 1066.051074 290.77228 
L 1067.396327 266.963732 
L 1068.741581 265.373812 
L 1070.086835 330.158018 
L 1071.432088 330.158018 
L 1072.777342 57.879198 
L 1074.122595 279.733406 
L 1075.467849 274.742265 
L 1076.813103 224.478656 
L 1078.158356 216.297613 
L 1079.50361 185.223735 
L 1080.848864 330.158018 
L 1082.194117 50.8755 
L 1083.539371 291.38611 
L 1084.884625 229.520111 
L 1086.229878 195.256331 
L 1087.575132 189.892866 
L 1088.920385 193.595971 
L 1090.265639 330.158018 
L 1091.610893 127.392913 
L 1092.956146 241.504888 
L 1094.3014 248.045698 
L 1095.646654 195.034949 
L 1096.991907 243.064619 
L 1098.337161 224.106333 
L 1099.682415 330.158018 
L 1101.027668 196.73556 
L 1102.372922 305.655138 
L 1103.718176 283.989963 
L 1105.063429 287.360996 
L 1106.408683 282.440295 
L 1107.753936 303.8539 
L 1109.09919 330.158018 
L 1110.444444 307.64757 
L 1111.789697 320.236113 
L 1113.134951 312.940594 
L 1114.480205 303.209882 
L 1115.825458 307.718009 
L 1117.170712 315.486479 
L 1118.515966 330.158018 
L 1119.861219 307.184681 
L 1121.206473 326.354286 
L 1122.551727 319.622283 
L 1123.89698 313.916684 
L 1125.242234 318.897762 
L 1126.587487 330.158018 
L 1129.277995 330.158018 
L 1130.623248 303.511765 
L 1131.968502 319.994606 
L 1133.313756 316.241187 
L 1134.659009 318.475126 
L 1136.004263 330.158018 
L 1137.349517 330.158018 
L 1138.69477 308.965794 
L 1140.040024 327.602071 
L 1141.385277 320.900257 
L 1142.730531 324.231038 
L 1144.075785 318.958139 
L 1145.421038 330.158018 
L 1150.802053 330.158018 
L 1152.147307 308.231211 
L 1153.49256 330.158018 
L 1160.218828 330.158018 
L 1161.564082 300.13067 
L 1162.909336 330.158018 
L 1169.635604 330.158018 
L 1170.980858 311.904127 
L 1172.326111 330.158018 
L 1179.052379 330.158018 
L 1180.397633 311.944378 
L 1181.742887 330.158018 
L 1185.778648 330.158018 
L 1187.123901 309.59975 
L 1188.469155 330.158018 
L 1191.159662 330.158018 
L 1192.504916 321.785782 
L 1193.85017 330.158018 
L 1195.195423 330.158018 
L 1196.540677 326.51529 
L 1197.88593 330.158018 
L 1200.576438 330.158018 
L 1201.921691 317.740542 
L 1203.266945 330.158018 
L 1204.612199 330.158018 
L 1205.957452 324.402106 
L 1207.302706 330.158018 
L 1208.64796 325.126626 
L 1209.993213 330.158018 
L 1211.338467 323.979469 
L 1212.68372 330.158018 
L 1214.028974 330.158018 
L 1215.374228 324.754303 
L 1216.719481 330.158018 
L 1218.064735 325.488886 
L 1219.409989 330.158018 
L 1220.755242 324.462482 
L 1222.100496 330.158018 
L 1223.44575 330.158018 
L 1224.791003 325.981963 
L 1226.136257 330.158018 
L 1227.481511 322.721621 
L 1228.826764 330.158018 
L 1230.172018 325.116563 
L 1231.517271 330.158018 
L 1232.862525 330.158018 
L 1234.207779 321.081387 
L 1235.553032 330.158018 
L 1236.898286 323.717836 
L 1238.24354 330.158018 
L 1239.588793 323.22476 
L 1240.934047 330.158018 
L 1244.969808 330.158018 
L 1246.315062 315.154407 
L 1247.660315 330.158018 
L 1249.005569 321.534212 
L 1250.350822 330.158018 
L 1251.696076 330.158018 
L 1253.04133 321.936723 
L 1254.386583 330.158018 
L 1255.731837 320.548059 
L 1257.077091 330.158018 
L 1261.112852 330.158018 
L 1262.458105 321.493961 
L 1263.803359 330.158018 
L 1265.148613 307.597256 
L 1266.493866 330.158018 
L 1267.83912 315.395914 
L 1269.184373 330.158018 
L 1270.529627 330.158018 
L 1271.874881 315.989618 
L 1273.220134 330.158018 
L 1274.565388 311.924253 
L 1275.910642 330.158018 
L 1277.255895 314.872649 
L 1278.601149 330.158018 
L 1279.946403 330.158018 
L 1281.291656 314.258819 
L 1282.63691 330.158018 
L 1283.982163 310.887786 
L 1285.327417 330.158018 
L 1289.363178 330.158018 
L 1290.708432 310.092826 
L 1292.053685 330.158018 
L 1293.398939 286.062897 
L 1294.744193 330.158018 
L 1296.089446 304.326851 
L 1297.4347 330.158018 
L 1301.470461 330.158018 
L 1302.815714 273.655484 
L 1304.160968 330.158018 
L 1306.851475 330.158018 
L 1306.851475 330.158018 
" clip-path="url(#p60b6b0d399)" style="fill: none; stroke: #0000ff; stroke-width: 1.5; stroke-linecap: square"/>
   </g>
   <g id="line2d_19">
    <path d="M 1067.396327 277.372841 
L 1068.741581 295.710543 
L 1070.086835 294.353403 
L 1071.432088 243.006256 
L 1072.777342 297.462995 
L 1074.122595 254.371361 
L 1075.467849 238.080551 
L 1076.813103 214.535981 
L 1078.158356 244.538448 
L 1079.50361 287.929484 
L 1080.848864 70.151676 
L 1082.194117 230.178091 
L 1083.539371 204.598488 
L 1084.884625 190.774458 
L 1086.229878 205.333626 
L 1087.575132 179.759692 
L 1088.920385 282.781732 
L 1090.265639 77.246632 
L 1091.610893 252.542108 
L 1092.956146 227.900146 
L 1094.3014 207.997083 
L 1095.646654 215.380762 
L 1096.991907 202.088802 
L 1098.337161 299.696529 
L 1099.682415 167.899461 
L 1101.027668 253.143618 
L 1102.372922 266.464381 
L 1103.718176 239.06788 
L 1105.063429 275.107116 
L 1106.408683 279.232024 
L 1107.753936 353.2755 
L 1109.09919 270.161683 
L 1110.444444 337.44554 
L 1111.789697 331.835255 
L 1113.134951 331.521148 
L 1114.480205 326.528272 
L 1115.825458 339.970289 
L 1117.170712 344.687833 
L 1118.515966 324.849588 
L 1119.861219 330.540464 
L 1122.551727 312.515178 
L 1123.89698 313.476765 
L 1125.242234 318.942343 
L 1126.587487 331.159672 
L 1127.932741 318.060855 
L 1129.277995 330.197694 
L 1130.623248 332.594877 
L 1131.968502 322.186344 
L 1133.313756 323.148121 
L 1134.659009 327.447932 
L 1136.004263 321.696083 
L 1137.349517 326.029259 
L 1138.69477 311.171516 
L 1140.040024 316.474303 
L 1141.385277 318.652966 
L 1142.730531 317.897123 
L 1144.075785 328.686748 
L 1145.421038 333.116916 
L 1146.766292 316.143669 
L 1148.111546 327.172188 
L 1149.456799 325.252868 
L 1150.802053 328.483791 
L 1152.147307 330.087508 
L 1153.49256 333.029574 
L 1154.837814 331.531771 
L 1156.183068 328.700788 
L 1157.528321 327.436026 
L 1158.873575 331.37974 
L 1160.218828 315.296539 
L 1161.564082 331.729184 
L 1162.909336 327.767437 
L 1164.254589 327.1645 
L 1165.599843 325.565812 
L 1166.945097 325.378148 
L 1168.29035 328.971885 
L 1169.635604 309.096664 
L 1170.980858 329.832031 
L 1172.326111 330.547271 
L 1173.671365 330.660475 
L 1175.016619 330.933589 
L 1176.361872 330.966014 
L 1177.707126 330.358524 
L 1179.052379 317.583323 
L 1180.397633 330.732918 
L 1181.742887 329.255072 
L 1183.08814 329.03131 
L 1184.433394 328.430853 
L 1185.778648 328.360465 
L 1187.123901 331.781146 
L 1188.469155 314.118207 
L 1189.814409 324.715619 
L 1192.504916 326.928052 
L 1193.85017 331.0527 
L 1195.195423 317.895048 
L 1196.540677 327.410419 
L 1197.88593 329.404014 
L 1199.231184 331.678819 
L 1200.576438 327.484124 
L 1201.921691 334.188613 
L 1203.266945 329.918419 
L 1204.612199 326.50896 
L 1205.957452 328.487023 
L 1207.302706 327.51467 
L 1208.64796 329.485776 
L 1209.993213 319.623715 
L 1211.338467 327.82723 
L 1212.68372 328.727272 
L 1214.028974 324.978949 
L 1215.374228 330.62791 
L 1216.719481 327.118838 
L 1218.064735 330.157258 
L 1219.409989 325.293689 
L 1220.755242 329.613876 
L 1222.100496 329.448835 
L 1223.44575 325.723767 
L 1224.791003 329.660817 
L 1226.136257 326.37496 
L 1227.481511 330.373161 
L 1228.826764 325.371628 
L 1230.172018 329.27177 
L 1231.517271 328.642215 
L 1232.862525 325.685192 
L 1234.207779 330.102136 
L 1235.553032 323.573385 
L 1236.898286 328.93142 
L 1238.24354 324.521505 
L 1239.588793 328.246214 
L 1240.934047 328.702873 
L 1242.279301 322.645171 
L 1243.624554 328.326979 
L 1244.969808 325.579789 
L 1246.315062 332.202808 
L 1247.660315 325.522612 
L 1249.005569 330.416796 
L 1250.350822 326.773684 
L 1251.696076 326.115963 
L 1253.04133 328.990826 
L 1254.386583 317.016045 
L 1255.731837 328.066896 
L 1257.077091 321.688989 
L 1258.422344 327.046319 
L 1259.767598 330.700161 
L 1261.112852 325.75765 
L 1262.458105 332.321483 
L 1263.803359 324.952276 
L 1265.148613 331.636316 
L 1266.493866 326.776293 
L 1267.83912 327.50505 
L 1269.184373 322.616262 
L 1270.529627 316.012463 
L 1271.874881 325.134362 
L 1273.220134 308.163024 
L 1274.565388 327.51618 
L 1275.910642 316.683163 
L 1277.255895 327.431142 
L 1278.601149 327.850435 
L 1279.946403 318.322411 
L 1281.291656 328.951986 
L 1282.63691 314.863761 
L 1283.982163 329.177165 
L 1285.327417 316.517387 
L 1286.672671 325.762708 
L 1288.017924 329.320156 
L 1289.363178 319.030267 
L 1290.708432 333.77607 
L 1292.053685 318.621085 
L 1293.398939 332.234432 
L 1294.744193 322.568453 
L 1296.089446 323.68432 
L 1297.4347 315.750452 
L 1298.779954 300.998011 
L 1300.125207 318.278677 
L 1301.470461 292.983102 
L 1302.815714 333.359372 
L 1304.160968 311.816465 
L 1305.506222 327.44061 
L 1306.851475 326.090336 
L 1306.851475 326.090336 
" clip-path="url(#p60b6b0d399)" style="fill: none; stroke: #ffa500; stroke-width: 1.5; stroke-linecap: square"/>
   </g>
   <g id="line2d_20">
    <path d="M 1306.851475 326.090336 
L 1308.196729 326.073497 
L 1309.541983 333.421495 
L 1310.887236 294.516644 
L 1312.23249 329.562201 
L 1313.577744 329.185805 
L 1314.922997 330.302857 
L 1316.268251 328.777274 
L 1317.613505 328.101783 
L 1318.958758 332.422068 
L 1320.304012 305.683887 
L 1321.649265 330.30377 
L 1322.994519 330.151816 
L 1324.339773 330.679239 
" clip-path="url(#p60b6b0d399)" style="fill: none; stroke: #ff0000; stroke-width: 1.5; stroke-linecap: square"/>
   </g>
   <g id="patch_3">
    <path d="M 46.0125 368.3955 
L 46.0125 35.7555 
" style="fill: none; stroke: #000000; stroke-width: 0.8; stroke-linejoin: miter; stroke-linecap: square"/>
   </g>
   <g id="patch_4">
    <path d="M 1385.2125 368.3955 
L 1385.2125 35.7555 
" style="fill: none; stroke: #000000; stroke-width: 0.8; stroke-linejoin: miter; stroke-linecap: square"/>
   </g>
   <g id="patch_5">
    <path d="M 46.0125 368.3955 
L 1385.2125 368.3955 
" style="fill: none; stroke: #000000; stroke-width: 0.8; stroke-linejoin: miter; stroke-linecap: square"/>
   </g>
   <g id="patch_6">
    <path d="M 46.0125 35.7555 
L 1385.2125 35.7555 
" style="fill: none; stroke: #000000; stroke-width: 0.8; stroke-linejoin: miter; stroke-linecap: square"/>
   </g>
   <g id="text_18">
    <!-- Daily Confirmed Cases Forecasting - Oklahoma -->
    <g transform="translate(574.575938 16.318125)scale(0.12 -0.12)">
     <defs>
      <path id="DejaVuSans-44" d="M 1259 4147 
L 1259 519 
L 2022 519 
Q 2988 519 3436 956 
Q 3884 1394 3884 2338 
Q 3884 3275 3436 3711 
Q 2988 4147 2022 4147 
L 1259 4147 
z
M 628 4666 
L 1925 4666 
Q 3281 4666 3915 4102 
Q 4550 3538 4550 2338 
Q 4550 1131 3912 565 
Q 3275 0 1925 0 
L 628 0 
L 628 4666 
z
" transform="scale(0.015625)"/>
      <path id="DejaVuSans-61" d="M 2194 1759 
Q 1497 1759 1228 1600 
Q 959 1441 959 1056 
Q 959 750 1161 570 
Q 1363 391 1709 391 
Q 2188 391 2477 730 
Q 2766 1069 2766 1631 
L 2766 1759 
L 2194 1759 
z
M 3341 1997 
L 3341 0 
L 2766 0 
L 2766 531 
Q 2569 213 2275 61 
Q 1981 -91 1556 -91 
Q 1019 -91 701 211 
Q 384 513 384 1019 
Q 384 1609 779 1909 
Q 1175 2209 1959 2209 
L 2766 2209 
L 2766 2266 
Q 2766 2663 2505 2880 
Q 2244 3097 1772 3097 
Q 1472 3097 1187 3025 
Q 903 2953 641 2809 
L 641 3341 
Q 956 3463 1253 3523 
Q 1550 3584 1831 3584 
Q 2591 3584 2966 3190 
Q 3341 2797 3341 1997 
z
" transform="scale(0.015625)"/>
      <path id="DejaVuSans-69" d="M 603 3500 
L 1178 3500 
L 1178 0 
L 603 0 
L 603 3500 
z
M 603 4863 
L 1178 4863 
L 1178 4134 
L 603 4134 
L 603 4863 
z
" transform="scale(0.015625)"/>
      <path id="DejaVuSans-6c" d="M 603 4863 
L 1178 4863 
L 1178 0 
L 603 0 
L 603 4863 
z
" transform="scale(0.015625)"/>
      <path id="DejaVuSans-79" d="M 2059 -325 
Q 1816 -950 1584 -1140 
Q 1353 -1331 966 -1331 
L 506 -1331 
L 506 -850 
L 844 -850 
Q 1081 -850 1212 -737 
Q 1344 -625 1503 -206 
L 1606 56 
L 191 3500 
L 800 3500 
L 1894 763 
L 2988 3500 
L 3597 3500 
L 2059 -325 
z
" transform="scale(0.015625)"/>
      <path id="DejaVuSans-20" transform="scale(0.015625)"/>
      <path id="DejaVuSans-43" d="M 4122 4306 
L 4122 3641 
Q 3803 3938 3442 4084 
Q 3081 4231 2675 4231 
Q 1875 4231 1450 3742 
Q 1025 3253 1025 2328 
Q 1025 1406 1450 917 
Q 1875 428 2675 428 
Q 3081 428 3442 575 
Q 3803 722 4122 1019 
L 4122 359 
Q 3791 134 3420 21 
Q 3050 -91 2638 -91 
Q 1578 -91 968 557 
Q 359 1206 359 2328 
Q 359 3453 968 4101 
Q 1578 4750 2638 4750 
Q 3056 4750 3426 4639 
Q 3797 4528 4122 4306 
z
" transform="scale(0.015625)"/>
      <path id="DejaVuSans-6f" d="M 1959 3097 
Q 1497 3097 1228 2736 
Q 959 2375 959 1747 
Q 959 1119 1226 758 
Q 1494 397 1959 397 
Q 2419 397 2687 759 
Q 2956 1122 2956 1747 
Q 2956 2369 2687 2733 
Q 2419 3097 1959 3097 
z
M 1959 3584 
Q 2709 3584 3137 3096 
Q 3566 2609 3566 1747 
Q 3566 888 3137 398 
Q 2709 -91 1959 -91 
Q 1206 -91 779 398 
Q 353 888 353 1747 
Q 353 2609 779 3096 
Q 1206 3584 1959 3584 
z
" transform="scale(0.015625)"/>
      <path id="DejaVuSans-6e" d="M 3513 2113 
L 3513 0 
L 2938 0 
L 2938 2094 
Q 2938 2591 2744 2837 
Q 2550 3084 2163 3084 
Q 1697 3084 1428 2787 
Q 1159 2491 1159 1978 
L 1159 0 
L 581 0 
L 581 3500 
L 1159 3500 
L 1159 2956 
Q 1366 3272 1645 3428 
Q 1925 3584 2291 3584 
Q 2894 3584 3203 3211 
Q 3513 2838 3513 2113 
z
" transform="scale(0.015625)"/>
      <path id="DejaVuSans-66" d="M 2375 4863 
L 2375 4384 
L 1825 4384 
Q 1516 4384 1395 4259 
Q 1275 4134 1275 3809 
L 1275 3500 
L 2222 3500 
L 2222 3053 
L 1275 3053 
L 1275 0 
L 697 0 
L 697 3053 
L 147 3053 
L 147 3500 
L 697 3500 
L 697 3744 
Q 697 4328 969 4595 
Q 1241 4863 1831 4863 
L 2375 4863 
z
" transform="scale(0.015625)"/>
      <path id="DejaVuSans-72" d="M 2631 2963 
Q 2534 3019 2420 3045 
Q 2306 3072 2169 3072 
Q 1681 3072 1420 2755 
Q 1159 2438 1159 1844 
L 1159 0 
L 581 0 
L 581 3500 
L 1159 3500 
L 1159 2956 
Q 1341 3275 1631 3429 
Q 1922 3584 2338 3584 
Q 2397 3584 2469 3576 
Q 2541 3569 2628 3553 
L 2631 2963 
z
" transform="scale(0.015625)"/>
      <path id="DejaVuSans-6d" d="M 3328 2828 
Q 3544 3216 3844 3400 
Q 4144 3584 4550 3584 
Q 5097 3584 5394 3201 
Q 5691 2819 5691 2113 
L 5691 0 
L 5113 0 
L 5113 2094 
Q 5113 2597 4934 2840 
Q 4756 3084 4391 3084 
Q 3944 3084 3684 2787 
Q 3425 2491 3425 1978 
L 3425 0 
L 2847 0 
L 2847 2094 
Q 2847 2600 2669 2842 
Q 2491 3084 2119 3084 
Q 1678 3084 1418 2786 
Q 1159 2488 1159 1978 
L 1159 0 
L 581 0 
L 581 3500 
L 1159 3500 
L 1159 2956 
Q 1356 3278 1631 3431 
Q 1906 3584 2284 3584 
Q 2666 3584 2933 3390 
Q 3200 3197 3328 2828 
z
" transform="scale(0.015625)"/>
      <path id="DejaVuSans-65" d="M 3597 1894 
L 3597 1613 
L 953 1613 
Q 991 1019 1311 708 
Q 1631 397 2203 397 
Q 2534 397 2845 478 
Q 3156 559 3463 722 
L 3463 178 
Q 3153 47 2828 -22 
Q 2503 -91 2169 -91 
Q 1331 -91 842 396 
Q 353 884 353 1716 
Q 353 2575 817 3079 
Q 1281 3584 2069 3584 
Q 2775 3584 3186 3129 
Q 3597 2675 3597 1894 
z
M 3022 2063 
Q 3016 2534 2758 2815 
Q 2500 3097 2075 3097 
Q 1594 3097 1305 2825 
Q 1016 2553 972 2059 
L 3022 2063 
z
" transform="scale(0.015625)"/>
      <path id="DejaVuSans-64" d="M 2906 2969 
L 2906 4863 
L 3481 4863 
L 3481 0 
L 2906 0 
L 2906 525 
Q 2725 213 2448 61 
Q 2172 -91 1784 -91 
Q 1150 -91 751 415 
Q 353 922 353 1747 
Q 353 2572 751 3078 
Q 1150 3584 1784 3584 
Q 2172 3584 2448 3432 
Q 2725 3281 2906 2969 
z
M 947 1747 
Q 947 1113 1208 752 
Q 1469 391 1925 391 
Q 2381 391 2643 752 
Q 2906 1113 2906 1747 
Q 2906 2381 2643 2742 
Q 2381 3103 1925 3103 
Q 1469 3103 1208 2742 
Q 947 2381 947 1747 
z
" transform="scale(0.015625)"/>
      <path id="DejaVuSans-73" d="M 2834 3397 
L 2834 2853 
Q 2591 2978 2328 3040 
Q 2066 3103 1784 3103 
Q 1356 3103 1142 2972 
Q 928 2841 928 2578 
Q 928 2378 1081 2264 
Q 1234 2150 1697 2047 
L 1894 2003 
Q 2506 1872 2764 1633 
Q 3022 1394 3022 966 
Q 3022 478 2636 193 
Q 2250 -91 1575 -91 
Q 1294 -91 989 -36 
Q 684 19 347 128 
L 347 722 
Q 666 556 975 473 
Q 1284 391 1588 391 
Q 1994 391 2212 530 
Q 2431 669 2431 922 
Q 2431 1156 2273 1281 
Q 2116 1406 1581 1522 
L 1381 1569 
Q 847 1681 609 1914 
Q 372 2147 372 2553 
Q 372 3047 722 3315 
Q 1072 3584 1716 3584 
Q 2034 3584 2315 3537 
Q 2597 3491 2834 3397 
z
" transform="scale(0.015625)"/>
      <path id="DejaVuSans-46" d="M 628 4666 
L 3309 4666 
L 3309 4134 
L 1259 4134 
L 1259 2759 
L 3109 2759 
L 3109 2228 
L 1259 2228 
L 1259 0 
L 628 0 
L 628 4666 
z
" transform="scale(0.015625)"/>
      <path id="DejaVuSans-63" d="M 3122 3366 
L 3122 2828 
Q 2878 2963 2633 3030 
Q 2388 3097 2138 3097 
Q 1578 3097 1268 2742 
Q 959 2388 959 1747 
Q 959 1106 1268 751 
Q 1578 397 2138 397 
Q 2388 397 2633 464 
Q 2878 531 3122 666 
L 3122 134 
Q 2881 22 2623 -34 
Q 2366 -91 2075 -91 
Q 1284 -91 818 406 
Q 353 903 353 1747 
Q 353 2603 823 3093 
Q 1294 3584 2113 3584 
Q 2378 3584 2631 3529 
Q 2884 3475 3122 3366 
z
" transform="scale(0.015625)"/>
      <path id="DejaVuSans-74" d="M 1172 4494 
L 1172 3500 
L 2356 3500 
L 2356 3053 
L 1172 3053 
L 1172 1153 
Q 1172 725 1289 603 
Q 1406 481 1766 481 
L 2356 481 
L 2356 0 
L 1766 0 
Q 1100 0 847 248 
Q 594 497 594 1153 
L 594 3053 
L 172 3053 
L 172 3500 
L 594 3500 
L 594 4494 
L 1172 4494 
z
" transform="scale(0.015625)"/>
      <path id="DejaVuSans-67" d="M 2906 1791 
Q 2906 2416 2648 2759 
Q 2391 3103 1925 3103 
Q 1463 3103 1205 2759 
Q 947 2416 947 1791 
Q 947 1169 1205 825 
Q 1463 481 1925 481 
Q 2391 481 2648 825 
Q 2906 1169 2906 1791 
z
M 3481 434 
Q 3481 -459 3084 -895 
Q 2688 -1331 1869 -1331 
Q 1566 -1331 1297 -1286 
Q 1028 -1241 775 -1147 
L 775 -588 
Q 1028 -725 1275 -790 
Q 1522 -856 1778 -856 
Q 2344 -856 2625 -561 
Q 2906 -266 2906 331 
L 2906 616 
Q 2728 306 2450 153 
Q 2172 0 1784 0 
Q 1141 0 747 490 
Q 353 981 353 1791 
Q 353 2603 747 3093 
Q 1141 3584 1784 3584 
Q 2172 3584 2450 3431 
Q 2728 3278 2906 2969 
L 2906 3500 
L 3481 3500 
L 3481 434 
z
" transform="scale(0.015625)"/>
      <path id="DejaVuSans-4f" d="M 2522 4238 
Q 1834 4238 1429 3725 
Q 1025 3213 1025 2328 
Q 1025 1447 1429 934 
Q 1834 422 2522 422 
Q 3209 422 3611 934 
Q 4013 1447 4013 2328 
Q 4013 3213 3611 3725 
Q 3209 4238 2522 4238 
z
M 2522 4750 
Q 3503 4750 4090 4092 
Q 4678 3434 4678 2328 
Q 4678 1225 4090 567 
Q 3503 -91 2522 -91 
Q 1538 -91 948 565 
Q 359 1222 359 2328 
Q 359 3434 948 4092 
Q 1538 4750 2522 4750 
z
" transform="scale(0.015625)"/>
      <path id="DejaVuSans-6b" d="M 581 4863 
L 1159 4863 
L 1159 1991 
L 2875 3500 
L 3609 3500 
L 1753 1863 
L 3688 0 
L 2938 0 
L 1159 1709 
L 1159 0 
L 581 0 
L 581 4863 
z
" transform="scale(0.015625)"/>
      <path id="DejaVuSans-68" d="M 3513 2113 
L 3513 0 
L 2938 0 
L 2938 2094 
Q 2938 2591 2744 2837 
Q 2550 3084 2163 3084 
Q 1697 3084 1428 2787 
Q 1159 2491 1159 1978 
L 1159 0 
L 581 0 
L 581 4863 
L 1159 4863 
L 1159 2956 
Q 1366 3272 1645 3428 
Q 1925 3584 2291 3584 
Q 2894 3584 3203 3211 
Q 3513 2838 3513 2113 
z
" transform="scale(0.015625)"/>
     </defs>
     <use xlink:href="#DejaVuSans-44"/>
     <use xlink:href="#DejaVuSans-61" x="77.001953"/>
     <use xlink:href="#DejaVuSans-69" x="138.28125"/>
     <use xlink:href="#DejaVuSans-6c" x="166.064453"/>
     <use xlink:href="#DejaVuSans-79" x="193.847656"/>
     <use xlink:href="#DejaVuSans-20" x="253.027344"/>
     <use xlink:href="#DejaVuSans-43" x="284.814453"/>
     <use xlink:href="#DejaVuSans-6f" x="354.638672"/>
     <use xlink:href="#DejaVuSans-6e" x="415.820312"/>
     <use xlink:href="#DejaVuSans-66" x="479.199219"/>
     <use xlink:href="#DejaVuSans-69" x="514.404297"/>
     <use xlink:href="#DejaVuSans-72" x="542.1875"/>
     <use xlink:href="#DejaVuSans-6d" x="581.550781"/>
     <use xlink:href="#DejaVuSans-65" x="678.962891"/>
     <use xlink:href="#DejaVuSans-64" x="740.486328"/>
     <use xlink:href="#DejaVuSans-20" x="803.962891"/>
     <use xlink:href="#DejaVuSans-43" x="835.75"/>
     <use xlink:href="#DejaVuSans-61" x="905.574219"/>
     <use xlink:href="#DejaVuSans-73" x="966.853516"/>
     <use xlink:href="#DejaVuSans-65" x="1018.953125"/>
     <use xlink:href="#DejaVuSans-73" x="1080.476562"/>
     <use xlink:href="#DejaVuSans-20" x="1132.576172"/>
     <use xlink:href="#DejaVuSans-46" x="1164.363281"/>
     <use xlink:href="#DejaVuSans-6f" x="1218.257812"/>
     <use xlink:href="#DejaVuSans-72" x="1279.439453"/>
     <use xlink:href="#DejaVuSans-65" x="1318.302734"/>
     <use xlink:href="#DejaVuSans-63" x="1379.826172"/>
     <use xlink:href="#DejaVuSans-61" x="1434.806641"/>
     <use xlink:href="#DejaVuSans-73" x="1496.085938"/>
     <use xlink:href="#DejaVuSans-74" x="1548.185547"/>
     <use xlink:href="#DejaVuSans-69" x="1587.394531"/>
     <use xlink:href="#DejaVuSans-6e" x="1615.177734"/>
     <use xlink:href="#DejaVuSans-67" x="1678.556641"/>
     <use xlink:href="#DejaVuSans-20" x="1742.033203"/>
     <use xlink:href="#DejaVuSans-2d" x="1773.820312"/>
     <use xlink:href="#DejaVuSans-20" x="1809.904297"/>
     <use xlink:href="#DejaVuSans-4f" x="1841.691406"/>
     <use xlink:href="#DejaVuSans-6b" x="1920.402344"/>
     <use xlink:href="#DejaVuSans-6c" x="1978.3125"/>
     <use xlink:href="#DejaVuSans-61" x="2006.095703"/>
     <use xlink:href="#DejaVuSans-68" x="2067.375"/>
     <use xlink:href="#DejaVuSans-6f" x="2130.753906"/>
     <use xlink:href="#DejaVuSans-6d" x="2191.935547"/>
     <use xlink:href="#DejaVuSans-61" x="2289.347656"/>
    </g>
    <!-- ARIMA (4, 1, 1)x(1, 0, 0, 7) (R2 = -0.019792) -->
    <g transform="translate(581.46375 29.7555)scale(0.12 -0.12)">
     <defs>
      <path id="DejaVuSans-41" d="M 2188 4044 
L 1331 1722 
L 3047 1722 
L 2188 4044 
z
M 1831 4666 
L 2547 4666 
L 4325 0 
L 3669 0 
L 3244 1197 
L 1141 1197 
L 716 0 
L 50 0 
L 1831 4666 
z
" transform="scale(0.015625)"/>
      <path id="DejaVuSans-52" d="M 2841 2188 
Q 3044 2119 3236 1894 
Q 3428 1669 3622 1275 
L 4263 0 
L 3584 0 
L 2988 1197 
Q 2756 1666 2539 1819 
Q 2322 1972 1947 1972 
L 1259 1972 
L 1259 0 
L 628 0 
L 628 4666 
L 2053 4666 
Q 2853 4666 3247 4331 
Q 3641 3997 3641 3322 
Q 3641 2881 3436 2590 
Q 3231 2300 2841 2188 
z
M 1259 4147 
L 1259 2491 
L 2053 2491 
Q 2509 2491 2742 2702 
Q 2975 2913 2975 3322 
Q 2975 3731 2742 3939 
Q 2509 4147 2053 4147 
L 1259 4147 
z
" transform="scale(0.015625)"/>
      <path id="DejaVuSans-49" d="M 628 4666 
L 1259 4666 
L 1259 0 
L 628 0 
L 628 4666 
z
" transform="scale(0.015625)"/>
      <path id="DejaVuSans-4d" d="M 628 4666 
L 1569 4666 
L 2759 1491 
L 3956 4666 
L 4897 4666 
L 4897 0 
L 4281 0 
L 4281 4097 
L 3078 897 
L 2444 897 
L 1241 4097 
L 1241 0 
L 628 0 
L 628 4666 
z
" transform="scale(0.015625)"/>
      <path id="DejaVuSans-28" d="M 1984 4856 
Q 1566 4138 1362 3434 
Q 1159 2731 1159 2009 
Q 1159 1288 1364 580 
Q 1569 -128 1984 -844 
L 1484 -844 
Q 1016 -109 783 600 
Q 550 1309 550 2009 
Q 550 2706 781 3412 
Q 1013 4119 1484 4856 
L 1984 4856 
z
" transform="scale(0.015625)"/>
      <path id="DejaVuSans-2c" d="M 750 794 
L 1409 794 
L 1409 256 
L 897 -744 
L 494 -744 
L 750 256 
L 750 794 
z
" transform="scale(0.015625)"/>
      <path id="DejaVuSans-29" d="M 513 4856 
L 1013 4856 
Q 1481 4119 1714 3412 
Q 1947 2706 1947 2009 
Q 1947 1309 1714 600 
Q 1481 -109 1013 -844 
L 513 -844 
Q 928 -128 1133 580 
Q 1338 1288 1338 2009 
Q 1338 2731 1133 3434 
Q 928 4138 513 4856 
z
" transform="scale(0.015625)"/>
      <path id="DejaVuSans-78" d="M 3513 3500 
L 2247 1797 
L 3578 0 
L 2900 0 
L 1881 1375 
L 863 0 
L 184 0 
L 1544 1831 
L 300 3500 
L 978 3500 
L 1906 2253 
L 2834 3500 
L 3513 3500 
z
" transform="scale(0.015625)"/>
      <path id="DejaVuSans-3d" d="M 678 2906 
L 4684 2906 
L 4684 2381 
L 678 2381 
L 678 2906 
z
M 678 1631 
L 4684 1631 
L 4684 1100 
L 678 1100 
L 678 1631 
z
" transform="scale(0.015625)"/>
      <path id="DejaVuSans-2e" d="M 684 794 
L 1344 794 
L 1344 0 
L 684 0 
L 684 794 
z
" transform="scale(0.015625)"/>
      <path id="DejaVuSans-39" d="M 703 97 
L 703 672 
Q 941 559 1184 500 
Q 1428 441 1663 441 
Q 2288 441 2617 861 
Q 2947 1281 2994 2138 
Q 2813 1869 2534 1725 
Q 2256 1581 1919 1581 
Q 1219 1581 811 2004 
Q 403 2428 403 3163 
Q 403 3881 828 4315 
Q 1253 4750 1959 4750 
Q 2769 4750 3195 4129 
Q 3622 3509 3622 2328 
Q 3622 1225 3098 567 
Q 2575 -91 1691 -91 
Q 1453 -91 1209 -44 
Q 966 3 703 97 
z
M 1959 2075 
Q 2384 2075 2632 2365 
Q 2881 2656 2881 3163 
Q 2881 3666 2632 3958 
Q 2384 4250 1959 4250 
Q 1534 4250 1286 3958 
Q 1038 3666 1038 3163 
Q 1038 2656 1286 2365 
Q 1534 2075 1959 2075 
z
" transform="scale(0.015625)"/>
     </defs>
     <use xlink:href="#DejaVuSans-41"/>
     <use xlink:href="#DejaVuSans-52" x="68.408203"/>
     <use xlink:href="#DejaVuSans-49" x="137.890625"/>
     <use xlink:href="#DejaVuSans-4d" x="167.382812"/>
     <use xlink:href="#DejaVuSans-41" x="253.662109"/>
     <use xlink:href="#DejaVuSans-20" x="322.070312"/>
     <use xlink:href="#DejaVuSans-28" x="353.857422"/>
     <use xlink:href="#DejaVuSans-34" x="392.871094"/>
     <use xlink:href="#DejaVuSans-2c" x="456.494141"/>
     <use xlink:href="#DejaVuSans-20" x="488.28125"/>
     <use xlink:href="#DejaVuSans-31" x="520.068359"/>
     <use xlink:href="#DejaVuSans-2c" x="583.691406"/>
     <use xlink:href="#DejaVuSans-20" x="615.478516"/>
     <use xlink:href="#DejaVuSans-31" x="647.265625"/>
     <use xlink:href="#DejaVuSans-29" x="710.888672"/>
     <use xlink:href="#DejaVuSans-78" x="749.902344"/>
     <use xlink:href="#DejaVuSans-28" x="809.082031"/>
     <use xlink:href="#DejaVuSans-31" x="848.095703"/>
     <use xlink:href="#DejaVuSans-2c" x="911.71875"/>
     <use xlink:href="#DejaVuSans-20" x="943.505859"/>
     <use xlink:href="#DejaVuSans-30" x="975.292969"/>
     <use xlink:href="#DejaVuSans-2c" x="1038.916016"/>
     <use xlink:href="#DejaVuSans-20" x="1070.703125"/>
     <use xlink:href="#DejaVuSans-30" x="1102.490234"/>
     <use xlink:href="#DejaVuSans-2c" x="1166.113281"/>
     <use xlink:href="#DejaVuSans-20" x="1197.900391"/>
     <use xlink:href="#DejaVuSans-37" x="1229.6875"/>
     <use xlink:href="#DejaVuSans-29" x="1293.310547"/>
     <use xlink:href="#DejaVuSans-20" x="1332.324219"/>
     <use xlink:href="#DejaVuSans-28" x="1364.111328"/>
     <use xlink:href="#DejaVuSans-52" x="1403.125"/>
     <use xlink:href="#DejaVuSans-32" x="1472.607422"/>
     <use xlink:href="#DejaVuSans-20" x="1536.230469"/>
     <use xlink:href="#DejaVuSans-3d" x="1568.017578"/>
     <use xlink:href="#DejaVuSans-20" x="1651.806641"/>
     <use xlink:href="#DejaVuSans-2d" x="1683.59375"/>
     <use xlink:href="#DejaVuSans-30" x="1719.677734"/>
     <use xlink:href="#DejaVuSans-2e" x="1783.300781"/>
     <use xlink:href="#DejaVuSans-30" x="1815.087891"/>
     <use xlink:href="#DejaVuSans-31" x="1878.710938"/>
     <use xlink:href="#DejaVuSans-39" x="1942.333984"/>
     <use xlink:href="#DejaVuSans-37" x="2005.957031"/>
     <use xlink:href="#DejaVuSans-39" x="2069.580078"/>
     <use xlink:href="#DejaVuSans-32" x="2133.203125"/>
     <use xlink:href="#DejaVuSans-29" x="2196.826172"/>
    </g>
   </g>
   <g id="legend_1">
    <g id="patch_7">
     <path d="M 1281.132812 87.789875 
L 1378.2125 87.789875 
Q 1380.2125 87.789875 1380.2125 85.789875 
L 1380.2125 42.7555 
Q 1380.2125 40.7555 1378.2125 40.7555 
L 1281.132812 40.7555 
Q 1279.132812 40.7555 1279.132812 42.7555 
L 1279.132812 85.789875 
Q 1279.132812 87.789875 1281.132812 87.789875 
z
" style="fill: #ffffff; opacity: 0.8; stroke: #cccccc; stroke-linejoin: miter"/>
    </g>
    <g id="line2d_21">
     <path d="M 1283.132812 48.853937 
L 1293.132812 48.853937 
L 1303.132812 48.853937 
" style="fill: none; stroke: #0000ff; stroke-width: 1.5; stroke-linecap: square"/>
    </g>
    <g id="text_19">
     <!-- Actual Value -->
     <g transform="translate(1311.132812 52.353937)scale(0.1 -0.1)">
      <defs>
       <path id="DejaVuSans-75" d="M 544 1381 
L 544 3500 
L 1119 3500 
L 1119 1403 
Q 1119 906 1312 657 
Q 1506 409 1894 409 
Q 2359 409 2629 706 
Q 2900 1003 2900 1516 
L 2900 3500 
L 3475 3500 
L 3475 0 
L 2900 0 
L 2900 538 
Q 2691 219 2414 64 
Q 2138 -91 1772 -91 
Q 1169 -91 856 284 
Q 544 659 544 1381 
z
M 1991 3584 
L 1991 3584 
z
" transform="scale(0.015625)"/>
       <path id="DejaVuSans-56" d="M 1831 0 
L 50 4666 
L 709 4666 
L 2188 738 
L 3669 4666 
L 4325 4666 
L 2547 0 
L 1831 0 
z
" transform="scale(0.015625)"/>
      </defs>
      <use xlink:href="#DejaVuSans-41"/>
      <use xlink:href="#DejaVuSans-63" x="66.658203"/>
      <use xlink:href="#DejaVuSans-74" x="121.638672"/>
      <use xlink:href="#DejaVuSans-75" x="160.847656"/>
      <use xlink:href="#DejaVuSans-61" x="224.226562"/>
      <use xlink:href="#DejaVuSans-6c" x="285.505859"/>
      <use xlink:href="#DejaVuSans-20" x="313.289062"/>
      <use xlink:href="#DejaVuSans-56" x="345.076172"/>
      <use xlink:href="#DejaVuSans-61" x="405.734375"/>
      <use xlink:href="#DejaVuSans-6c" x="467.013672"/>
      <use xlink:href="#DejaVuSans-75" x="494.796875"/>
      <use xlink:href="#DejaVuSans-65" x="558.175781"/>
     </g>
    </g>
    <g id="line2d_22">
     <path d="M 1283.132812 63.532062 
L 1293.132812 63.532062 
L 1303.132812 63.532062 
" style="fill: none; stroke: #ffa500; stroke-width: 1.5; stroke-linecap: square"/>
    </g>
    <g id="text_20">
     <!-- Check Value -->
     <g transform="translate(1311.132812 67.032062)scale(0.1 -0.1)">
      <use xlink:href="#DejaVuSans-43"/>
      <use xlink:href="#DejaVuSans-68" x="69.824219"/>
      <use xlink:href="#DejaVuSans-65" x="133.203125"/>
      <use xlink:href="#DejaVuSans-63" x="194.726562"/>
      <use xlink:href="#DejaVuSans-6b" x="249.707031"/>
      <use xlink:href="#DejaVuSans-20" x="307.617188"/>
      <use xlink:href="#DejaVuSans-56" x="339.404297"/>
      <use xlink:href="#DejaVuSans-61" x="400.0625"/>
      <use xlink:href="#DejaVuSans-6c" x="461.341797"/>
      <use xlink:href="#DejaVuSans-75" x="489.125"/>
      <use xlink:href="#DejaVuSans-65" x="552.503906"/>
     </g>
    </g>
    <g id="line2d_23">
     <path d="M 1283.132812 78.210187 
L 1293.132812 78.210187 
L 1303.132812 78.210187 
" style="fill: none; stroke: #ff0000; stroke-width: 1.5; stroke-linecap: square"/>
    </g>
    <g id="text_21">
     <!-- Predict Value -->
     <g transform="translate(1311.132812 81.710187)scale(0.1 -0.1)">
      <defs>
       <path id="DejaVuSans-50" d="M 1259 4147 
L 1259 2394 
L 2053 2394 
Q 2494 2394 2734 2622 
Q 2975 2850 2975 3272 
Q 2975 3691 2734 3919 
Q 2494 4147 2053 4147 
L 1259 4147 
z
M 628 4666 
L 2053 4666 
Q 2838 4666 3239 4311 
Q 3641 3956 3641 3272 
Q 3641 2581 3239 2228 
Q 2838 1875 2053 1875 
L 1259 1875 
L 1259 0 
L 628 0 
L 628 4666 
z
" transform="scale(0.015625)"/>
      </defs>
      <use xlink:href="#DejaVuSans-50"/>
      <use xlink:href="#DejaVuSans-72" x="58.552734"/>
      <use xlink:href="#DejaVuSans-65" x="97.416016"/>
      <use xlink:href="#DejaVuSans-64" x="158.939453"/>
      <use xlink:href="#DejaVuSans-69" x="222.416016"/>
      <use xlink:href="#DejaVuSans-63" x="250.199219"/>
      <use xlink:href="#DejaVuSans-74" x="305.179688"/>
      <use xlink:href="#DejaVuSans-20" x="344.388672"/>
      <use xlink:href="#DejaVuSans-56" x="376.175781"/>
      <use xlink:href="#DejaVuSans-61" x="436.833984"/>
      <use xlink:href="#DejaVuSans-6c" x="498.113281"/>
      <use xlink:href="#DejaVuSans-75" x="525.896484"/>
      <use xlink:href="#DejaVuSans-65" x="589.275391"/>
     </g>
    </g>
   </g>
  </g>
 </g>
 <defs>
  <clipPath id="p60b6b0d399">
   <rect x="46.0125" y="35.7555" width="1339.2" height="332.64"/>
  </clipPath>
 </defs>
</svg>
