<?xml version="1.0" encoding="utf-8" standalone="no"?>
<!DOCTYPE svg PUBLIC "-//W3C//DTD SVG 1.1//EN"
  "http://www.w3.org/Graphics/SVG/1.1/DTD/svg11.dtd">
<svg xmlns:xlink="http://www.w3.org/1999/xlink" width="1392.4125pt" height="392.273625pt" viewBox="0 0 1392.4125 392.273625" xmlns="http://www.w3.org/2000/svg" version="1.1">
 <metadata>
  <rdf:RDF xmlns:dc="http://purl.org/dc/elements/1.1/" xmlns:cc="http://creativecommons.org/ns#" xmlns:rdf="http://www.w3.org/1999/02/22-rdf-syntax-ns#">
   <cc:Work>
    <dc:type rdf:resource="http://purl.org/dc/dcmitype/StillImage"/>
    <dc:date>2022-06-22T17:38:22.817894</dc:date>
    <dc:format>image/svg+xml</dc:format>
    <dc:creator>
     <cc:Agent>
      <dc:title>Matplotlib v3.5.2, https://matplotlib.org/</dc:title>
     </cc:Agent>
    </dc:creator>
   </cc:Work>
  </rdf:RDF>
 </metadata>
 <defs>
  <style type="text/css">*{stroke-linejoin: round; stroke-linecap: butt}</style>
 </defs>
 <g id="figure_1">
  <g id="patch_1">
   <path d="M 0 392.273625 
L 1392.4125 392.273625 
L 1392.4125 0 
L 0 0 
z
" style="fill: #ffffff"/>
  </g>
  <g id="axes_1">
   <g id="patch_2">
    <path d="M 46.0125 368.3955 
L 1385.2125 368.3955 
L 1385.2125 35.7555 
L 46.0125 35.7555 
z
" style="fill: #ffffff"/>
   </g>
   <g id="matplotlib.axis_1">
    <g id="xtick_1">
     <g id="line2d_1">
      <defs>
       <path id="m5ba72b6d04" d="M 0 0 
L 0 3.5 
" style="stroke: #000000; stroke-width: 0.8"/>
      </defs>
      <g>
       <use xlink:href="#m5ba72b6d04" x="76.891946" y="368.3955" style="stroke: #000000; stroke-width: 0.8"/>
      </g>
     </g>
     <g id="text_1">
      <!-- 2020-01 -->
      <g transform="translate(56.00054 382.993937)scale(0.1 -0.1)">
       <defs>
        <path id="DejaVuSans-32" d="M 1228 531 
L 3431 531 
L 3431 0 
L 469 0 
L 469 531 
Q 828 903 1448 1529 
Q 2069 2156 2228 2338 
Q 2531 2678 2651 2914 
Q 2772 3150 2772 3378 
Q 2772 3750 2511 3984 
Q 2250 4219 1831 4219 
Q 1534 4219 1204 4116 
Q 875 4013 500 3803 
L 500 4441 
Q 881 4594 1212 4672 
Q 1544 4750 1819 4750 
Q 2544 4750 2975 4387 
Q 3406 4025 3406 3419 
Q 3406 3131 3298 2873 
Q 3191 2616 2906 2266 
Q 2828 2175 2409 1742 
Q 1991 1309 1228 531 
z
" transform="scale(0.015625)"/>
        <path id="DejaVuSans-30" d="M 2034 4250 
Q 1547 4250 1301 3770 
Q 1056 3291 1056 2328 
Q 1056 1369 1301 889 
Q 1547 409 2034 409 
Q 2525 409 2770 889 
Q 3016 1369 3016 2328 
Q 3016 3291 2770 3770 
Q 2525 4250 2034 4250 
z
M 2034 4750 
Q 2819 4750 3233 4129 
Q 3647 3509 3647 2328 
Q 3647 1150 3233 529 
Q 2819 -91 2034 -91 
Q 1250 -91 836 529 
Q 422 1150 422 2328 
Q 422 3509 836 4129 
Q 1250 4750 2034 4750 
z
" transform="scale(0.015625)"/>
        <path id="DejaVuSans-2d" d="M 313 2009 
L 1997 2009 
L 1997 1497 
L 313 1497 
L 313 2009 
z
" transform="scale(0.015625)"/>
        <path id="DejaVuSans-31" d="M 794 531 
L 1825 531 
L 1825 4091 
L 703 3866 
L 703 4441 
L 1819 4666 
L 2450 4666 
L 2450 531 
L 3481 531 
L 3481 0 
L 794 0 
L 794 531 
z
" transform="scale(0.015625)"/>
       </defs>
       <use xlink:href="#DejaVuSans-32"/>
       <use xlink:href="#DejaVuSans-30" x="63.623047"/>
       <use xlink:href="#DejaVuSans-32" x="127.246094"/>
       <use xlink:href="#DejaVuSans-30" x="190.869141"/>
       <use xlink:href="#DejaVuSans-2d" x="254.492188"/>
       <use xlink:href="#DejaVuSans-30" x="290.576172"/>
       <use xlink:href="#DejaVuSans-31" x="354.199219"/>
      </g>
     </g>
    </g>
    <g id="xtick_2">
     <g id="line2d_2">
      <g>
       <use xlink:href="#m5ba72b6d04" x="200.955063" y="368.3955" style="stroke: #000000; stroke-width: 0.8"/>
      </g>
     </g>
     <g id="text_2">
      <!-- 2020-04 -->
      <g transform="translate(180.063657 382.993937)scale(0.1 -0.1)">
       <defs>
        <path id="DejaVuSans-34" d="M 2419 4116 
L 825 1625 
L 2419 1625 
L 2419 4116 
z
M 2253 4666 
L 3047 4666 
L 3047 1625 
L 3713 1625 
L 3713 1100 
L 3047 1100 
L 3047 0 
L 2419 0 
L 2419 1100 
L 313 1100 
L 313 1709 
L 2253 4666 
z
" transform="scale(0.015625)"/>
       </defs>
       <use xlink:href="#DejaVuSans-32"/>
       <use xlink:href="#DejaVuSans-30" x="63.623047"/>
       <use xlink:href="#DejaVuSans-32" x="127.246094"/>
       <use xlink:href="#DejaVuSans-30" x="190.869141"/>
       <use xlink:href="#DejaVuSans-2d" x="254.492188"/>
       <use xlink:href="#DejaVuSans-30" x="290.576172"/>
       <use xlink:href="#DejaVuSans-34" x="354.199219"/>
      </g>
     </g>
    </g>
    <g id="xtick_3">
     <g id="line2d_3">
      <g>
       <use xlink:href="#m5ba72b6d04" x="325.018181" y="368.3955" style="stroke: #000000; stroke-width: 0.8"/>
      </g>
     </g>
     <g id="text_3">
      <!-- 2020-07 -->
      <g transform="translate(304.126774 382.993937)scale(0.1 -0.1)">
       <defs>
        <path id="DejaVuSans-37" d="M 525 4666 
L 3525 4666 
L 3525 4397 
L 1831 0 
L 1172 0 
L 2766 4134 
L 525 4134 
L 525 4666 
z
" transform="scale(0.015625)"/>
       </defs>
       <use xlink:href="#DejaVuSans-32"/>
       <use xlink:href="#DejaVuSans-30" x="63.623047"/>
       <use xlink:href="#DejaVuSans-32" x="127.246094"/>
       <use xlink:href="#DejaVuSans-30" x="190.869141"/>
       <use xlink:href="#DejaVuSans-2d" x="254.492188"/>
       <use xlink:href="#DejaVuSans-30" x="290.576172"/>
       <use xlink:href="#DejaVuSans-37" x="354.199219"/>
      </g>
     </g>
    </g>
    <g id="xtick_4">
     <g id="line2d_4">
      <g>
       <use xlink:href="#m5ba72b6d04" x="450.444629" y="368.3955" style="stroke: #000000; stroke-width: 0.8"/>
      </g>
     </g>
     <g id="text_4">
      <!-- 2020-10 -->
      <g transform="translate(429.553222 382.993937)scale(0.1 -0.1)">
       <use xlink:href="#DejaVuSans-32"/>
       <use xlink:href="#DejaVuSans-30" x="63.623047"/>
       <use xlink:href="#DejaVuSans-32" x="127.246094"/>
       <use xlink:href="#DejaVuSans-30" x="190.869141"/>
       <use xlink:href="#DejaVuSans-2d" x="254.492188"/>
       <use xlink:href="#DejaVuSans-31" x="290.576172"/>
       <use xlink:href="#DejaVuSans-30" x="354.199219"/>
      </g>
     </g>
    </g>
    <g id="xtick_5">
     <g id="line2d_5">
      <g>
       <use xlink:href="#m5ba72b6d04" x="575.871077" y="368.3955" style="stroke: #000000; stroke-width: 0.8"/>
      </g>
     </g>
     <g id="text_5">
      <!-- 2021-01 -->
      <g transform="translate(554.979671 382.993937)scale(0.1 -0.1)">
       <use xlink:href="#DejaVuSans-32"/>
       <use xlink:href="#DejaVuSans-30" x="63.623047"/>
       <use xlink:href="#DejaVuSans-32" x="127.246094"/>
       <use xlink:href="#DejaVuSans-31" x="190.869141"/>
       <use xlink:href="#DejaVuSans-2d" x="254.492188"/>
       <use xlink:href="#DejaVuSans-30" x="290.576172"/>
       <use xlink:href="#DejaVuSans-31" x="354.199219"/>
      </g>
     </g>
    </g>
    <g id="xtick_6">
     <g id="line2d_6">
      <g>
       <use xlink:href="#m5ba72b6d04" x="698.570863" y="368.3955" style="stroke: #000000; stroke-width: 0.8"/>
      </g>
     </g>
     <g id="text_6">
      <!-- 2021-04 -->
      <g transform="translate(677.679457 382.993937)scale(0.1 -0.1)">
       <use xlink:href="#DejaVuSans-32"/>
       <use xlink:href="#DejaVuSans-30" x="63.623047"/>
       <use xlink:href="#DejaVuSans-32" x="127.246094"/>
       <use xlink:href="#DejaVuSans-31" x="190.869141"/>
       <use xlink:href="#DejaVuSans-2d" x="254.492188"/>
       <use xlink:href="#DejaVuSans-30" x="290.576172"/>
       <use xlink:href="#DejaVuSans-34" x="354.199219"/>
      </g>
     </g>
    </g>
    <g id="xtick_7">
     <g id="line2d_7">
      <g>
       <use xlink:href="#m5ba72b6d04" x="822.63398" y="368.3955" style="stroke: #000000; stroke-width: 0.8"/>
      </g>
     </g>
     <g id="text_7">
      <!-- 2021-07 -->
      <g transform="translate(801.742574 382.993937)scale(0.1 -0.1)">
       <use xlink:href="#DejaVuSans-32"/>
       <use xlink:href="#DejaVuSans-30" x="63.623047"/>
       <use xlink:href="#DejaVuSans-32" x="127.246094"/>
       <use xlink:href="#DejaVuSans-31" x="190.869141"/>
       <use xlink:href="#DejaVuSans-2d" x="254.492188"/>
       <use xlink:href="#DejaVuSans-30" x="290.576172"/>
       <use xlink:href="#DejaVuSans-37" x="354.199219"/>
      </g>
     </g>
    </g>
    <g id="xtick_8">
     <g id="line2d_8">
      <g>
       <use xlink:href="#m5ba72b6d04" x="948.060428" y="368.3955" style="stroke: #000000; stroke-width: 0.8"/>
      </g>
     </g>
     <g id="text_8">
      <!-- 2021-10 -->
      <g transform="translate(927.169022 382.993937)scale(0.1 -0.1)">
       <use xlink:href="#DejaVuSans-32"/>
       <use xlink:href="#DejaVuSans-30" x="63.623047"/>
       <use xlink:href="#DejaVuSans-32" x="127.246094"/>
       <use xlink:href="#DejaVuSans-31" x="190.869141"/>
       <use xlink:href="#DejaVuSans-2d" x="254.492188"/>
       <use xlink:href="#DejaVuSans-31" x="290.576172"/>
       <use xlink:href="#DejaVuSans-30" x="354.199219"/>
      </g>
     </g>
    </g>
    <g id="xtick_9">
     <g id="line2d_9">
      <g>
       <use xlink:href="#m5ba72b6d04" x="1073.486876" y="368.3955" style="stroke: #000000; stroke-width: 0.8"/>
      </g>
     </g>
     <g id="text_9">
      <!-- 2022-01 -->
      <g transform="translate(1052.59547 382.993937)scale(0.1 -0.1)">
       <use xlink:href="#DejaVuSans-32"/>
       <use xlink:href="#DejaVuSans-30" x="63.623047"/>
       <use xlink:href="#DejaVuSans-32" x="127.246094"/>
       <use xlink:href="#DejaVuSans-32" x="190.869141"/>
       <use xlink:href="#DejaVuSans-2d" x="254.492188"/>
       <use xlink:href="#DejaVuSans-30" x="290.576172"/>
       <use xlink:href="#DejaVuSans-31" x="354.199219"/>
      </g>
     </g>
    </g>
    <g id="xtick_10">
     <g id="line2d_10">
      <g>
       <use xlink:href="#m5ba72b6d04" x="1196.186663" y="368.3955" style="stroke: #000000; stroke-width: 0.8"/>
      </g>
     </g>
     <g id="text_10">
      <!-- 2022-04 -->
      <g transform="translate(1175.295256 382.993937)scale(0.1 -0.1)">
       <use xlink:href="#DejaVuSans-32"/>
       <use xlink:href="#DejaVuSans-30" x="63.623047"/>
       <use xlink:href="#DejaVuSans-32" x="127.246094"/>
       <use xlink:href="#DejaVuSans-32" x="190.869141"/>
       <use xlink:href="#DejaVuSans-2d" x="254.492188"/>
       <use xlink:href="#DejaVuSans-30" x="290.576172"/>
       <use xlink:href="#DejaVuSans-34" x="354.199219"/>
      </g>
     </g>
    </g>
    <g id="xtick_11">
     <g id="line2d_11">
      <g>
       <use xlink:href="#m5ba72b6d04" x="1320.24978" y="368.3955" style="stroke: #000000; stroke-width: 0.8"/>
      </g>
     </g>
     <g id="text_11">
      <!-- 2022-07 -->
      <g transform="translate(1299.358374 382.993937)scale(0.1 -0.1)">
       <use xlink:href="#DejaVuSans-32"/>
       <use xlink:href="#DejaVuSans-30" x="63.623047"/>
       <use xlink:href="#DejaVuSans-32" x="127.246094"/>
       <use xlink:href="#DejaVuSans-32" x="190.869141"/>
       <use xlink:href="#DejaVuSans-2d" x="254.492188"/>
       <use xlink:href="#DejaVuSans-30" x="290.576172"/>
       <use xlink:href="#DejaVuSans-37" x="354.199219"/>
      </g>
     </g>
    </g>
   </g>
   <g id="matplotlib.axis_2">
    <g id="ytick_1">
     <g id="line2d_12">
      <defs>
       <path id="mb3353e7ba0" d="M 0 0 
L -3.5 0 
" style="stroke: #000000; stroke-width: 0.8"/>
      </defs>
      <g>
       <use xlink:href="#mb3353e7ba0" x="46.0125" y="333.961126" style="stroke: #000000; stroke-width: 0.8"/>
      </g>
     </g>
     <g id="text_12">
      <!-- 0 -->
      <g transform="translate(32.65 337.760344)scale(0.1 -0.1)">
       <use xlink:href="#DejaVuSans-30"/>
      </g>
     </g>
    </g>
    <g id="ytick_2">
     <g id="line2d_13">
      <g>
       <use xlink:href="#mb3353e7ba0" x="46.0125" y="273.301003" style="stroke: #000000; stroke-width: 0.8"/>
      </g>
     </g>
     <g id="text_13">
      <!-- 20000 -->
      <g transform="translate(7.2 277.100222)scale(0.1 -0.1)">
       <use xlink:href="#DejaVuSans-32"/>
       <use xlink:href="#DejaVuSans-30" x="63.623047"/>
       <use xlink:href="#DejaVuSans-30" x="127.246094"/>
       <use xlink:href="#DejaVuSans-30" x="190.869141"/>
       <use xlink:href="#DejaVuSans-30" x="254.492188"/>
      </g>
     </g>
    </g>
    <g id="ytick_3">
     <g id="line2d_14">
      <g>
       <use xlink:href="#mb3353e7ba0" x="46.0125" y="212.640881" style="stroke: #000000; stroke-width: 0.8"/>
      </g>
     </g>
     <g id="text_14">
      <!-- 40000 -->
      <g transform="translate(7.2 216.4401)scale(0.1 -0.1)">
       <use xlink:href="#DejaVuSans-34"/>
       <use xlink:href="#DejaVuSans-30" x="63.623047"/>
       <use xlink:href="#DejaVuSans-30" x="127.246094"/>
       <use xlink:href="#DejaVuSans-30" x="190.869141"/>
       <use xlink:href="#DejaVuSans-30" x="254.492188"/>
      </g>
     </g>
    </g>
    <g id="ytick_4">
     <g id="line2d_15">
      <g>
       <use xlink:href="#mb3353e7ba0" x="46.0125" y="151.980759" style="stroke: #000000; stroke-width: 0.8"/>
      </g>
     </g>
     <g id="text_15">
      <!-- 60000 -->
      <g transform="translate(7.2 155.779978)scale(0.1 -0.1)">
       <defs>
        <path id="DejaVuSans-36" d="M 2113 2584 
Q 1688 2584 1439 2293 
Q 1191 2003 1191 1497 
Q 1191 994 1439 701 
Q 1688 409 2113 409 
Q 2538 409 2786 701 
Q 3034 994 3034 1497 
Q 3034 2003 2786 2293 
Q 2538 2584 2113 2584 
z
M 3366 4563 
L 3366 3988 
Q 3128 4100 2886 4159 
Q 2644 4219 2406 4219 
Q 1781 4219 1451 3797 
Q 1122 3375 1075 2522 
Q 1259 2794 1537 2939 
Q 1816 3084 2150 3084 
Q 2853 3084 3261 2657 
Q 3669 2231 3669 1497 
Q 3669 778 3244 343 
Q 2819 -91 2113 -91 
Q 1303 -91 875 529 
Q 447 1150 447 2328 
Q 447 3434 972 4092 
Q 1497 4750 2381 4750 
Q 2619 4750 2861 4703 
Q 3103 4656 3366 4563 
z
" transform="scale(0.015625)"/>
       </defs>
       <use xlink:href="#DejaVuSans-36"/>
       <use xlink:href="#DejaVuSans-30" x="63.623047"/>
       <use xlink:href="#DejaVuSans-30" x="127.246094"/>
       <use xlink:href="#DejaVuSans-30" x="190.869141"/>
       <use xlink:href="#DejaVuSans-30" x="254.492188"/>
      </g>
     </g>
    </g>
    <g id="ytick_5">
     <g id="line2d_16">
      <g>
       <use xlink:href="#mb3353e7ba0" x="46.0125" y="91.320637" style="stroke: #000000; stroke-width: 0.8"/>
      </g>
     </g>
     <g id="text_16">
      <!-- 80000 -->
      <g transform="translate(7.2 95.119855)scale(0.1 -0.1)">
       <defs>
        <path id="DejaVuSans-38" d="M 2034 2216 
Q 1584 2216 1326 1975 
Q 1069 1734 1069 1313 
Q 1069 891 1326 650 
Q 1584 409 2034 409 
Q 2484 409 2743 651 
Q 3003 894 3003 1313 
Q 3003 1734 2745 1975 
Q 2488 2216 2034 2216 
z
M 1403 2484 
Q 997 2584 770 2862 
Q 544 3141 544 3541 
Q 544 4100 942 4425 
Q 1341 4750 2034 4750 
Q 2731 4750 3128 4425 
Q 3525 4100 3525 3541 
Q 3525 3141 3298 2862 
Q 3072 2584 2669 2484 
Q 3125 2378 3379 2068 
Q 3634 1759 3634 1313 
Q 3634 634 3220 271 
Q 2806 -91 2034 -91 
Q 1263 -91 848 271 
Q 434 634 434 1313 
Q 434 1759 690 2068 
Q 947 2378 1403 2484 
z
M 1172 3481 
Q 1172 3119 1398 2916 
Q 1625 2713 2034 2713 
Q 2441 2713 2670 2916 
Q 2900 3119 2900 3481 
Q 2900 3844 2670 4047 
Q 2441 4250 2034 4250 
Q 1625 4250 1398 4047 
Q 1172 3844 1172 3481 
z
" transform="scale(0.015625)"/>
       </defs>
       <use xlink:href="#DejaVuSans-38"/>
       <use xlink:href="#DejaVuSans-30" x="63.623047"/>
       <use xlink:href="#DejaVuSans-30" x="127.246094"/>
       <use xlink:href="#DejaVuSans-30" x="190.869141"/>
       <use xlink:href="#DejaVuSans-30" x="254.492188"/>
      </g>
     </g>
    </g>
   </g>
   <g id="line2d_17">
    <path d="M 106.885227 333.961126 
L 155.965142 333.961126 
L 179.141768 333.909565 
L 181.86843 333.624462 
L 184.595092 333.466746 
L 185.958423 333.451581 
L 187.321754 333.063356 
L 188.685085 333.245336 
L 190.048416 333.196808 
L 191.411747 332.9663 
L 192.775078 331.919913 
L 194.138409 332.487085 
L 195.50174 332.544712 
L 196.86507 330.609654 
L 198.228401 332.565943 
L 199.591732 331.116166 
L 200.955063 330.970582 
L 202.318394 331.792526 
L 203.681725 330.294221 
L 205.045056 329.554168 
L 206.408387 331.225354 
L 207.771718 330.919021 
L 209.135049 330.045515 
L 210.49838 329.335791 
L 211.861711 329.884765 
L 213.225042 329.517772 
L 214.588373 330.039449 
L 215.951704 328.889939 
L 217.315035 330.40341 
L 218.678366 330.251759 
L 220.041697 329.881732 
L 221.405028 330.500466 
L 222.768359 328.368262 
L 224.13169 329.16291 
L 225.495021 330.330617 
L 226.858352 330.454971 
L 228.221683 329.272098 
L 229.585013 327.749529 
L 230.948344 328.410724 
L 232.311675 325.708316 
L 233.675006 327.534186 
L 235.038337 327.512955 
L 236.401668 327.955774 
L 237.764999 327.230885 
L 239.12833 327.118664 
L 240.491661 326.19663 
L 241.854992 324.446585 
L 243.218323 326.530261 
L 244.581654 324.880305 
L 245.944985 327.051938 
L 247.308316 327.555417 
L 248.671647 326.854792 
L 250.034978 325.957023 
L 251.398309 325.198771 
L 252.76164 326.909386 
L 254.124971 328.938468 
L 255.488302 330.12134 
L 256.851633 321.786639 
L 258.214964 328.886906 
L 259.578295 324.125087 
L 260.941626 326.584855 
L 263.668287 328.701893 
L 265.031618 327.00341 
L 266.394949 329.275131 
L 267.75828 326.718307 
L 269.121611 327.076202 
L 270.484942 325.602161 
L 271.848273 326.827495 
L 273.211604 326.354346 
L 274.574935 328.765586 
L 275.938266 330.388244 
L 277.301597 330.591456 
L 278.664928 329.329725 
L 280.028259 329.04159 
L 281.39159 329.526871 
L 282.754921 329.887798 
L 284.118252 331.006978 
L 285.481583 329.065854 
L 286.844914 330.982714 
L 288.208245 331.143463 
L 289.571576 330.454971 
L 290.934907 331.003945 
L 292.298238 331.331509 
L 293.661569 331.965408 
L 295.024899 331.54382 
L 296.38823 332.065497 
L 297.751561 331.637843 
L 299.114892 332.156487 
L 300.478223 331.919913 
L 301.841554 331.922946 
L 303.204885 332.526514 
L 304.568216 332.071563 
L 305.931547 332.305104 
L 307.294878 332.162553 
L 308.658209 331.862285 
L 310.02154 332.0382 
L 311.384871 331.965408 
L 312.748202 332.559877 
L 316.838195 331.249618 
L 319.564857 331.577183 
L 320.928188 332.001804 
L 322.291519 331.722767 
L 323.65485 331.765229 
L 325.018181 331.449797 
L 326.381512 331.325443 
L 329.108173 331.346674 
L 330.471504 332.023035 
L 331.834835 332.09886 
L 333.198166 328.777718 
L 334.561497 330.98878 
L 335.924828 330.873525 
L 337.288159 329.936327 
L 338.65149 330.336683 
L 340.014821 331.067638 
L 341.378152 331.282981 
L 342.741483 331.81679 
L 344.104814 330.360947 
L 345.468145 330.148637 
L 346.831476 329.633026 
L 348.194807 330.09101 
L 349.558138 331.034275 
L 350.921469 330.406443 
L 352.2848 331.104034 
L 353.648131 329.074953 
L 356.374793 329.108316 
L 357.738124 329.636059 
L 359.101454 329.287263 
L 360.464785 330.227495 
L 361.828116 330.703677 
L 363.191447 329.730082 
L 364.554778 328.586639 
L 365.918109 327.955774 
L 367.28144 328.990029 
L 370.008102 330.024284 
L 371.371433 329.499574 
L 372.734764 328.626068 
L 374.098095 328.037665 
L 375.461426 327.582714 
L 376.824757 327.318842 
L 378.188088 329.769511 
L 379.551419 329.960591 
L 380.91475 329.262999 
L 382.278081 328.971831 
L 383.641412 328.398592 
L 385.004743 326.997344 
L 386.368074 328.416791 
L 387.731405 329.226603 
L 389.094736 328.583606 
L 390.458067 328.686728 
L 391.821397 326.997344 
L 393.184728 328.404658 
L 394.548059 327.006443 
L 395.91139 326.815363 
L 397.274721 328.219645 
L 398.638052 329.07192 
L 400.001383 328.862642 
L 401.364714 327.421964 
L 402.728045 328.783784 
L 404.091376 326.572723 
L 405.454707 328.259074 
L 406.818038 327.919377 
L 408.181369 328.908137 
L 409.5447 329.435881 
L 410.908031 327.506889 
L 412.271362 329.836237 
L 413.634693 316.994489 
L 414.998024 325.456577 
L 416.361355 329.675488 
L 417.724686 329.80894 
L 419.088017 329.739181 
L 420.451348 329.905997 
L 421.814679 328.037665 
L 423.17801 326.945783 
L 424.54134 327.531153 
L 425.904671 329.532937 
L 427.268002 329.799841 
L 428.631333 329.520805 
L 429.994664 328.067995 
L 431.357995 327.725265 
L 432.721326 327.218753 
L 434.084657 326.305818 
L 435.447988 329.708851 
L 438.17465 329.311527 
L 439.537981 328.350064 
L 440.901312 327.118664 
L 442.264643 325.5506 
L 443.627974 326.557558 
L 444.991305 329.108316 
L 446.354636 328.777718 
L 447.717967 329.818039 
L 449.081298 327.070136 
L 450.444629 327.3977 
L 451.80796 326.512063 
L 453.171291 326.554525 
L 454.534622 329.554168 
L 455.897953 328.340965 
L 457.261283 329.056755 
L 458.624614 325.98432 
L 459.987945 324.577005 
L 461.351276 324.507246 
L 464.077938 325.690118 
L 465.441269 325.650689 
L 466.8046 325.307959 
L 468.167931 325.26853 
L 470.894593 318.474596 
L 472.257924 322.954346 
L 473.621255 321.086015 
L 474.984586 324.519378 
L 479.074579 318.975042 
L 480.43791 318.796095 
L 481.801241 315.274775 
L 483.164572 321.65622 
L 484.527903 319.61804 
L 485.891234 321.829101 
L 487.254565 315.429458 
L 488.617896 314.665141 
L 489.981226 308.213937 
L 491.344557 310.00341 
L 492.707888 312.790743 
L 494.071219 315.089762 
L 495.43455 314.198058 
L 496.797881 311.098326 
L 498.161212 303.82821 
L 499.524543 298.165588 
L 500.887874 296.236596 
L 502.251205 303.603767 
L 503.614536 301.893152 
L 504.977867 295.675489 
L 507.704529 295.435882 
L 509.06786 287.207336 
L 510.431191 300.513134 
L 511.794522 301.717238 
L 514.521184 295.742216 
L 515.884515 306.900645 
L 517.247846 289.64284 
L 518.611177 294.49565 
L 519.974508 297.89565 
L 521.337838 303.594668 
L 522.701169 308.720449 
L 524.0645 305.241591 
L 525.427831 299.451582 
L 526.791162 297.498326 
L 528.154493 310.989137 
L 529.517824 310.082269 
L 530.881155 312.190208 
L 532.244486 315.186818 
L 533.607817 295.921163 
L 534.971148 304.368085 
L 536.334479 300.722412 
L 537.69781 302.035703 
L 539.061141 303.973794 
L 540.424472 310.916345 
L 541.787803 307.60127 
L 543.151134 309.970047 
L 544.514465 308.920627 
L 545.877796 300.291725 
L 547.241127 305.390208 
L 548.604458 307.461751 
L 549.967789 312.074954 
L 551.33112 312.08102 
L 552.694451 311.641234 
L 554.057781 312.357023 
L 555.421112 307.185748 
L 556.784443 311.58664 
L 558.147774 311.025533 
L 559.511105 315.75399 
L 560.874436 319.70903 
L 562.237767 315.038201 
L 563.601098 313.451938 
L 564.964429 312.617862 
L 566.32776 316.545605 
L 567.691091 323.973437 
L 569.054422 322.535792 
L 570.417753 320.455149 
L 571.781084 316.842839 
L 573.144415 311.595739 
L 574.507746 309.66978 
L 575.871077 333.961126 
L 577.234408 297.677274 
L 578.597739 320.406621 
L 579.96107 318.617148 
L 581.324401 313.218397 
L 582.687732 311.004302 
L 584.051063 307.401091 
L 585.414394 305.823928 
L 586.777724 313.588424 
L 588.141055 319.672634 
L 589.504386 319.475488 
L 590.867717 313.815899 
L 592.231048 316.181644 
L 593.594379 313.785569 
L 594.95771 313.815899 
L 596.321041 317.755774 
L 597.684372 321.337754 
L 599.047703 323.6944 
L 600.411034 320.864605 
L 601.774365 319.33597 
L 603.137696 318.859788 
L 604.501027 312.602697 
L 607.227689 323.97647 
L 608.59102 325.031956 
L 609.954351 322.839092 
L 611.317682 322.58432 
L 612.681013 321.249797 
L 614.044344 321.355952 
L 615.407675 323.81572 
L 616.771006 326.596987 
L 618.134337 326.948816 
L 619.497667 326.97308 
L 620.860998 323.909743 
L 622.224329 323.867281 
L 623.58766 322.860323 
L 624.950991 324.674061 
L 626.314322 327.697968 
L 627.677653 328.677629 
L 629.040984 327.646407 
L 630.404315 325.392883 
L 631.767646 325.353454 
L 633.130977 326.081376 
L 635.857639 329.014293 
L 637.22097 329.654257 
L 638.584301 329.872633 
L 639.947632 328.51688 
L 641.310963 327.995203 
L 642.674294 327.233918 
L 645.400956 329.153811 
L 646.764287 330.182 
L 648.127618 328.91117 
L 649.490949 327.828387 
L 650.854279 328.246942 
L 652.21761 326.557558 
L 653.580941 328.562375 
L 654.944272 330.172901 
L 656.307603 330.4944 
L 657.670934 329.178075 
L 659.034265 327.579681 
L 660.397596 328.683695 
L 661.760927 329.587531 
L 663.124258 326.181465 
L 664.487589 330.721875 
L 665.85092 330.376112 
L 667.214251 329.381286 
L 668.577582 328.859609 
L 669.940913 328.805015 
L 671.304244 328.613936 
L 672.667575 328.88084 
L 674.030906 329.460145 
L 675.394237 331.589315 
L 676.757568 327.904212 
L 678.120899 328.941501 
L 679.48423 326.909386 
L 680.847561 326.742571 
L 682.210892 328.010368 
L 683.574222 329.620894 
L 684.937553 330.260858 
L 686.300884 328.404658 
L 687.664215 325.48994 
L 689.027546 327.318842 
L 690.390877 324.856041 
L 691.754208 325.838735 
L 693.117539 327.136862 
L 694.48087 328.620002 
L 695.844201 326.669779 
L 697.207532 326.099574 
L 698.570863 323.266746 
L 699.934194 324.149351 
L 702.660856 326.533294 
L 704.024187 327.585747 
L 706.750849 322.466033 
L 708.11418 322.620716 
L 709.477511 321.816969 
L 710.840842 322.951313 
L 712.204173 325.038022 
L 713.567504 326.581822 
L 714.930835 324.276737 
L 716.294165 323.236416 
L 717.657496 323.099931 
L 719.020827 322.235524 
L 720.384158 324.273704 
L 721.747489 325.875131 
L 723.11082 328.019467 
L 724.474151 326.114739 
L 725.837482 325.574864 
L 727.200813 324.346496 
L 728.564144 323.742928 
L 729.927475 325.144177 
L 731.290806 327.788958 
L 732.654137 327.479592 
L 734.017468 326.208762 
L 735.380799 325.687085 
L 736.74413 323.667103 
L 738.107461 324.234275 
L 739.470792 325.429279 
L 740.834123 328.319734 
L 744.924116 326.651581 
L 746.287447 328.568441 
L 747.650778 323.888512 
L 749.014108 328.717058 
L 750.377439 328.680662 
L 751.74077 329.642125 
L 753.104101 329.22357 
L 754.467432 328.51688 
L 755.830763 328.14382 
L 757.194094 328.377361 
L 758.557425 329.372187 
L 761.284087 331.091902 
L 762.647418 329.426782 
L 764.010749 329.008227 
L 765.37408 329.28423 
L 766.737411 329.190207 
L 768.100742 330.600555 
L 769.464073 331.101001 
L 770.827404 331.131331 
L 772.190735 331.510457 
L 773.554066 330.506532 
L 774.917397 331.258717 
L 776.280728 330.982714 
L 779.00739 332.135256 
L 780.370721 332.380929 
L 781.734051 332.74489 
L 783.097382 332.511349 
L 784.460713 331.91688 
L 785.824044 332.062464 
L 787.187375 332.329368 
L 788.550706 332.923838 
L 789.914037 333.221072 
L 791.277368 332.854078 
L 792.640699 332.723659 
L 794.00403 332.851045 
L 795.367361 332.74489 
L 796.730692 333.14828 
L 798.094023 333.05729 
L 799.457354 333.46068 
L 800.820685 333.275666 
L 802.184016 332.893508 
L 803.547347 333.20894 
L 804.910678 333.651759 
L 806.274009 333.961126 
L 807.63734 333.85497 
L 809.000671 331.671206 
L 810.364002 333.378789 
L 811.727333 333.17861 
L 813.090663 333.205907 
L 814.453994 333.072455 
L 815.817325 333.961126 
L 817.180656 333.961126 
L 818.543987 331.810724 
L 819.907318 333.042125 
L 821.270649 333.17861 
L 822.63398 332.575042 
L 823.997311 332.878342 
L 825.360642 333.961126 
L 828.087304 333.961126 
L 829.450635 330.257825 
L 830.813966 332.559877 
L 832.177297 332.083695 
L 833.540628 332.010903 
L 834.903959 333.961126 
L 836.26729 333.961126 
L 837.630621 329.13258 
L 838.993952 332.205015 
L 840.357283 331.707602 
L 841.720614 331.35274 
L 843.083945 331.913847 
L 844.447276 333.961126 
L 845.810606 333.961126 
L 847.173937 325.417147 
L 848.537268 331.704569 
L 849.900599 331.043374 
L 851.26393 327.922411 
L 852.627261 329.502607 
L 853.990592 333.961126 
L 855.353923 333.961126 
L 856.717254 322.159699 
L 858.080585 328.868708 
L 859.443916 327.637308 
L 860.807247 328.871741 
L 862.170578 326.845693 
L 863.533909 333.961126 
L 864.89724 333.961126 
L 866.260571 316.948994 
L 867.623902 325.820537 
L 868.987233 326.766835 
L 870.350564 324.740787 
L 871.713895 324.734721 
L 873.077226 333.961126 
L 874.440557 333.961126 
L 875.803888 310.142929 
L 877.167219 324.99556 
L 878.530549 322.005016 
L 879.89388 324.492081 
L 881.257211 323.463892 
L 882.620542 333.961126 
L 883.983873 333.961126 
L 885.347204 306.287978 
L 886.710535 322.905818 
L 888.073866 322.350778 
L 889.437197 324.316166 
L 890.800528 319.078165 
L 892.163859 333.961126 
L 893.52719 333.961126 
L 894.890521 306.027139 
L 896.253852 324.898503 
L 897.617183 320.44605 
L 898.980514 321.701715 
L 900.343845 318.978075 
L 901.707176 333.961126 
L 903.070507 333.961126 
L 904.433838 303.452117 
L 905.797169 319.163089 
L 907.1605 318.253187 
L 908.523831 321.155774 
L 909.887162 315.817683 
L 911.250492 333.961126 
L 913.977154 333.961126 
L 915.340485 297.428567 
L 916.703816 321.914025 
L 918.067147 319.590743 
L 919.430478 317.877094 
L 920.793809 333.961126 
L 922.15714 333.961126 
L 923.520471 306.203054 
L 924.883802 319.827317 
L 926.247133 321.231599 
L 927.610464 320.785747 
L 928.973795 323.024106 
L 930.337126 333.961126 
L 931.700457 333.961126 
L 933.063788 308.444445 
L 934.427119 324.859074 
L 935.79045 323.163624 
L 937.153781 323.318307 
L 938.517112 323.946139 
L 939.880443 333.961126 
L 941.243774 333.961126 
L 942.607104 313.718843 
L 943.970435 326.75167 
L 945.333766 324.883338 
L 946.697097 323.839984 
L 948.060428 323.764159 
L 949.423759 333.961126 
L 950.78709 333.961126 
L 952.150421 312.338825 
L 953.513752 324.68316 
L 954.877083 325.05622 
L 956.240414 323.730796 
L 957.603745 325.64159 
L 958.967076 333.961126 
L 961.693738 333.961126 
L 963.057069 310.124731 
L 964.4204 325.107781 
L 965.783731 326.445337 
L 967.147062 326.645515 
L 968.510393 333.961126 
L 969.873724 333.961126 
L 971.237055 317.291724 
L 972.600386 327.664605 
L 973.963717 326.527228 
L 975.327047 327.461394 
L 976.690378 324.953098 
L 978.053709 333.961126 
L 979.41704 333.961126 
L 980.780371 318.371474 
L 982.143702 327.233918 
L 983.507033 327.867816 
L 984.870364 326.07531 
L 986.233695 325.929725 
L 987.597026 333.961126 
L 988.960357 333.961126 
L 990.323688 315.396095 
L 991.687019 326.715274 
L 993.05035 328.665497 
L 994.413681 321.025355 
L 995.777012 325.050154 
L 997.140343 333.961126 
L 998.503674 333.961126 
L 999.867005 311.656399 
L 1001.230336 327.148994 
L 1002.593667 318.65961 
L 1003.956998 333.961126 
L 1005.320329 309.833562 
L 1006.68366 333.961126 
L 1008.04699 333.961126 
L 1009.410321 306.924909 
L 1010.773652 324.846942 
L 1012.136983 318.81126 
L 1013.500314 316.86407 
L 1014.863645 316.588067 
L 1016.226976 333.961126 
L 1017.590307 333.961126 
L 1018.953638 299.442483 
L 1020.316969 320.045694 
L 1021.6803 318.608049 
L 1023.043631 333.961126 
L 1027.133624 333.961126 
L 1028.496955 275.554527 
L 1029.860286 316.630529 
L 1031.223617 315.383963 
L 1032.586948 299.002697 
L 1033.950279 311.049797 
L 1035.31361 333.961126 
L 1036.676941 333.961126 
L 1038.040272 276.006445 
L 1039.403603 312.529904 
L 1040.766933 313.761305 
L 1042.130264 305.754169 
L 1043.493595 311.119557 
L 1044.856926 333.958093 
L 1046.220257 333.961126 
L 1047.583588 274.78111 
L 1048.946919 311.522946 
L 1050.31025 304.304392 
L 1051.673581 297.980574 
L 1053.036912 301.319914 
L 1054.400243 333.961126 
L 1055.763574 333.961126 
L 1057.126905 238.545786 
L 1058.490236 302.784856 
L 1059.853567 283.701181 
L 1061.216898 276.534188 
L 1062.580229 333.912598 
L 1065.306891 333.961126 
L 1066.670222 164.237137 
L 1068.033553 270.862466 
L 1069.396884 269.943466 
L 1070.760215 241.806268 
L 1072.123546 333.961126 
L 1074.850207 333.961126 
L 1076.213538 63.453376 
L 1077.576869 259.864786 
L 1078.9402 236.03749 
L 1080.303531 200.251051 
L 1081.666862 203.793602 
L 1083.030193 333.961126 
L 1084.393524 333.961126 
L 1085.756855 97.868897 
L 1087.120186 248.730621 
L 1088.483517 229.161665 
L 1089.846848 221.624645 
L 1091.210179 244.077989 
L 1092.57351 333.936862 
L 1095.300172 333.961126 
L 1096.663503 50.8755 
L 1098.026834 253.62286 
L 1099.390165 263.437668 
L 1100.753496 210.608767 
L 1102.116827 333.961126 
L 1103.480158 333.961126 
L 1104.843488 138.104756 
L 1106.206819 292.70921 
L 1107.57015 286.154883 
L 1108.933481 290.219111 
L 1110.296812 287.158808 
L 1111.660143 333.961126 
L 1113.023474 333.961126 
L 1114.386805 261.808943 
L 1115.750136 307.680128 
L 1117.113467 305.235525 
L 1118.476798 333.961126 
L 1119.840129 277.956668 
L 1121.20346 333.961126 
L 1122.566791 333.961126 
L 1123.930122 291.668888 
L 1125.293453 316.269601 
L 1126.656784 319.590743 
L 1128.020115 317.531332 
L 1129.383446 333.961126 
L 1132.110108 333.961126 
L 1133.473439 290.707425 
L 1134.83677 325.162375 
L 1136.200101 323.888512 
L 1137.563431 326.263356 
L 1138.926762 324.307067 
L 1140.290093 333.961126 
L 1143.016755 333.961126 
L 1144.380086 315.029102 
L 1145.743417 325.681019 
L 1147.106748 327.964873 
L 1148.470079 327.673704 
L 1149.83341 333.961126 
L 1151.196741 333.961126 
L 1152.560072 320.364159 
L 1153.923403 328.377361 
L 1155.286734 328.98093 
L 1156.650065 330.412509 
L 1158.013396 329.930261 
L 1159.376727 333.961126 
L 1160.740058 333.961126 
L 1162.103389 326.063178 
L 1163.46672 330.761304 
L 1164.830051 329.005194 
L 1166.193382 329.708851 
L 1167.556713 328.441055 
L 1168.920044 333.961126 
L 1170.283374 333.961126 
L 1171.646705 326.915452 
L 1173.010036 329.181108 
L 1174.373367 330.834096 
L 1175.736698 330.473169 
L 1177.100029 329.742214 
L 1178.46336 333.961126 
L 1179.826691 333.961126 
L 1181.190022 326.527228 
L 1182.553353 329.584498 
L 1183.916684 330.594489 
L 1185.280015 328.723124 
L 1186.643346 329.987888 
L 1188.006677 333.964159 
L 1189.370008 333.964159 
L 1190.733339 326.345247 
L 1192.09667 329.150778 
L 1193.460001 329.942393 
L 1194.823332 329.13258 
L 1196.186663 329.669422 
L 1197.549994 333.961126 
L 1198.913325 333.961126 
L 1200.276656 324.916701 
L 1201.639987 328.507781 
L 1203.003317 327.30671 
L 1204.366648 329.420716 
L 1205.729979 326.945783 
L 1207.09331 333.961126 
L 1208.456641 333.961126 
L 1209.819972 320.418753 
L 1211.183303 328.616969 
L 1212.546634 327.704034 
L 1213.909965 323.833918 
L 1215.273296 326.612152 
L 1216.636627 333.961126 
L 1217.999958 333.961126 
L 1219.363289 316.521341 
L 1220.72662 326.463535 
L 1222.089951 322.041412 
L 1223.453282 323.075667 
L 1224.816613 322.408405 
L 1226.179944 333.961126 
L 1227.543275 333.961126 
L 1228.906606 309.242126 
L 1230.269937 326.342214 
L 1231.633268 323.548816 
L 1232.996599 320.02143 
L 1234.35993 315.896541 
L 1235.72326 333.961126 
L 1237.086591 333.961126 
L 1238.449922 306.709566 
L 1239.813253 321.701715 
L 1241.176584 316.527407 
L 1242.539915 321.368084 
L 1243.903246 310.582715 
L 1245.266577 333.961126 
L 1246.629908 333.961126 
L 1247.993239 290.228211 
L 1249.35657 317.743642 
L 1250.719901 315.277808 
L 1252.083232 316.709387 
L 1253.446563 308.441412 
L 1254.809894 333.961126 
L 1256.173225 333.961126 
L 1257.536556 282.861039 
L 1258.899887 317.79217 
L 1260.263218 316.481911 
L 1261.626549 311.058897 
L 1262.98988 319.724195 
L 1264.353211 333.961126 
L 1265.716542 333.961126 
L 1267.079872 290.188781 
L 1268.443203 321.86853 
L 1269.806534 314.534722 
L 1271.169865 314.662108 
L 1272.533196 316.818575 
L 1273.896527 333.961126 
L 1276.623189 333.961126 
L 1277.98652 285.305642 
L 1279.349851 320.797879 
L 1280.713182 314.55292 
L 1282.076513 316.30903 
L 1283.439844 333.961126 
L 1284.803175 333.961126 
L 1286.166506 292.111707 
L 1287.529837 319.217683 
L 1288.893168 319.096363 
L 1290.256499 320.937397 
L 1291.61983 315.317237 
L 1292.983161 333.961126 
L 1294.346492 333.961126 
L 1295.709823 307.686194 
L 1297.073154 322.196095 
L 1298.436485 316.56077 
L 1299.799815 317.783071 
L 1301.163146 323.348637 
L 1302.526477 333.961126 
L 1305.253139 333.961126 
L 1306.61647 293.246052 
L 1306.61647 293.246052 
" clip-path="url(#pb415ff462c)" style="fill: none; stroke: #0000ff; stroke-width: 1.5; stroke-linecap: square"/>
   </g>
   <g id="line2d_18">
    <path d="M 1066.670222 315.242001 
L 1068.033553 280.560485 
L 1069.396884 271.797559 
L 1070.760215 298.418626 
L 1072.123546 294.186511 
L 1073.486876 302.580931 
L 1074.850207 213.91444 
L 1076.213538 296.498472 
L 1077.576869 250.316232 
L 1078.9402 239.537107 
L 1080.303531 287.881779 
L 1081.666862 289.705037 
L 1083.030193 263.071558 
L 1084.393524 123.326596 
L 1085.756855 248.068278 
L 1087.120186 224.71897 
L 1088.483517 207.007283 
L 1089.846848 227.077354 
L 1091.210179 285.156093 
L 1092.57351 283.844573 
L 1093.936841 131.994352 
L 1095.300172 227.727256 
L 1096.663503 289.91984 
L 1098.026834 215.56521 
L 1099.390165 235.482612 
L 1100.753496 310.408113 
L 1102.116827 297.393687 
L 1104.843488 181.930318 
L 1106.206819 218.091129 
L 1107.57015 251.181121 
L 1108.933481 241.330274 
L 1110.296812 321.373306 
L 1111.660143 331.083183 
L 1113.023474 223.501777 
L 1114.386805 254.18508 
L 1115.750136 288.997014 
L 1117.113467 301.508755 
L 1118.476798 292.160602 
L 1119.840129 353.088716 
L 1121.20346 348.536245 
L 1122.566791 272.355368 
L 1123.930122 300.030963 
L 1126.656784 330.946195 
L 1128.020115 306.345833 
L 1129.383446 343.135479 
L 1130.746777 353.2755 
L 1132.110108 302.649275 
L 1133.473439 323.24002 
L 1134.83677 326.467436 
L 1136.200101 332.171364 
L 1137.563431 327.93623 
L 1138.926762 344.570066 
L 1140.290093 345.018995 
L 1141.653424 305.94063 
L 1143.016755 324.456843 
L 1144.380086 336.139762 
L 1145.743417 334.845959 
L 1147.106748 331.515053 
L 1148.470079 341.554158 
L 1149.83341 341.650452 
L 1151.196741 325.333838 
L 1152.560072 325.924636 
L 1153.923403 329.847045 
L 1155.286734 332.974527 
L 1156.650065 331.659088 
L 1158.013396 338.38532 
L 1159.376727 338.512156 
L 1160.740058 325.998389 
L 1162.103389 329.045942 
L 1163.46672 331.501441 
L 1164.830051 333.621686 
L 1166.193382 332.557358 
L 1167.556713 336.652379 
L 1168.920044 335.976522 
L 1170.283374 327.584772 
L 1171.646705 330.817025 
L 1173.010036 331.130215 
L 1174.373367 331.574304 
L 1175.736698 330.939108 
L 1177.100029 334.895211 
L 1178.46336 334.731684 
L 1179.826691 328.398355 
L 1181.190022 330.833366 
L 1182.553353 331.241815 
L 1183.916684 331.279552 
L 1185.280015 330.799424 
L 1186.643346 333.61724 
L 1188.006677 333.532026 
L 1189.370008 327.979845 
L 1190.733339 330.502402 
L 1192.09667 330.878682 
L 1193.460001 330.014872 
L 1194.823332 330.180228 
L 1196.186663 333.087139 
L 1197.549994 332.898524 
L 1198.913325 327.60778 
L 1200.276656 330.215199 
L 1201.639987 330.174254 
L 1203.003317 329.582389 
L 1204.366648 329.167919 
L 1205.729979 332.591524 
L 1207.09331 331.75284 
L 1208.456641 326.113034 
L 1209.819972 329.555965 
L 1211.183303 327.608023 
L 1212.546634 328.431866 
L 1213.909965 327.996982 
L 1215.273296 330.962276 
L 1216.636627 330.592617 
L 1217.999958 323.041349 
L 1219.363289 328.862655 
L 1220.72662 326.525191 
L 1222.089951 325.495764 
L 1223.453282 325.274888 
L 1224.816613 329.963943 
L 1226.179944 328.796491 
L 1227.543275 319.052832 
L 1228.906606 327.175877 
L 1230.269937 322.038717 
L 1231.633268 322.358179 
L 1232.996599 322.934754 
L 1234.35993 329.677394 
L 1235.72326 327.359362 
L 1237.086591 313.797871 
L 1238.449922 325.572073 
L 1239.813253 321.520594 
L 1241.176584 320.048341 
L 1242.539915 316.864126 
L 1243.903246 328.559287 
L 1245.266577 325.946212 
L 1246.629908 309.913439 
L 1247.993239 323.926198 
L 1249.35657 315.367978 
L 1250.719901 316.62804 
L 1252.083232 311.434404 
L 1253.446563 325.708522 
L 1254.809894 323.947495 
L 1256.173225 300.249902 
L 1257.536556 319.936307 
L 1258.899887 312.241461 
L 1260.263218 313.83773 
L 1261.626549 309.583131 
L 1262.98988 323.729124 
L 1264.353211 325.900716 
L 1265.716542 295.584308 
L 1267.079872 318.873206 
L 1268.443203 315.045176 
L 1269.806534 314.72817 
L 1271.169865 315.582376 
L 1272.533196 328.120354 
L 1273.896527 327.829411 
L 1275.259858 297.719278 
L 1276.623189 316.937303 
L 1277.98652 326.914243 
L 1279.349851 314.897165 
L 1280.713182 317.776808 
L 1282.076513 329.70887 
L 1283.439844 328.950051 
L 1284.803175 317.172483 
L 1286.166506 309.391907 
L 1287.529837 314.065071 
L 1288.893168 315.553182 
L 1290.256499 316.478925 
L 1291.61983 330.468519 
L 1292.983161 329.350123 
L 1294.346492 307.497087 
L 1295.709823 315.161609 
L 1297.073154 319.550405 
L 1298.436485 321.592208 
L 1299.799815 318.744511 
L 1301.163146 330.30341 
L 1302.526477 331.45915 
L 1303.889808 311.734327 
L 1305.253139 318.686632 
L 1306.61647 327.572637 
L 1306.61647 327.572637 
" clip-path="url(#pb415ff462c)" style="fill: none; stroke: #ffa500; stroke-width: 1.5; stroke-linecap: square"/>
   </g>
   <g id="line2d_19">
    <path d="M 1306.61647 327.572637 
L 1307.979801 318.775789 
L 1309.343132 322.793286 
L 1310.706463 331.759467 
L 1312.069794 331.929729 
L 1313.433125 323.745788 
L 1314.796456 310.276094 
L 1316.159787 324.549272 
L 1317.523118 321.013628 
L 1318.886449 323.337737 
L 1320.24978 330.973462 
L 1321.613111 331.04464 
L 1322.976442 324.330583 
L 1324.339773 313.245241 
" clip-path="url(#pb415ff462c)" style="fill: none; stroke: #ff0000; stroke-width: 1.5; stroke-linecap: square"/>
   </g>
   <g id="patch_3">
    <path d="M 46.0125 368.3955 
L 46.0125 35.7555 
" style="fill: none; stroke: #000000; stroke-width: 0.8; stroke-linejoin: miter; stroke-linecap: square"/>
   </g>
   <g id="patch_4">
    <path d="M 1385.2125 368.3955 
L 1385.2125 35.7555 
" style="fill: none; stroke: #000000; stroke-width: 0.8; stroke-linejoin: miter; stroke-linecap: square"/>
   </g>
   <g id="patch_5">
    <path d="M 46.0125 368.3955 
L 1385.2125 368.3955 
" style="fill: none; stroke: #000000; stroke-width: 0.8; stroke-linejoin: miter; stroke-linecap: square"/>
   </g>
   <g id="patch_6">
    <path d="M 46.0125 35.7555 
L 1385.2125 35.7555 
" style="fill: none; stroke: #000000; stroke-width: 0.8; stroke-linejoin: miter; stroke-linecap: square"/>
   </g>
   <g id="text_17">
    <!-- Daily Confirmed Cases Forecasting - Illinois -->
    <g transform="translate(586.075313 16.318125)scale(0.12 -0.12)">
     <defs>
      <path id="DejaVuSans-44" d="M 1259 4147 
L 1259 519 
L 2022 519 
Q 2988 519 3436 956 
Q 3884 1394 3884 2338 
Q 3884 3275 3436 3711 
Q 2988 4147 2022 4147 
L 1259 4147 
z
M 628 4666 
L 1925 4666 
Q 3281 4666 3915 4102 
Q 4550 3538 4550 2338 
Q 4550 1131 3912 565 
Q 3275 0 1925 0 
L 628 0 
L 628 4666 
z
" transform="scale(0.015625)"/>
      <path id="DejaVuSans-61" d="M 2194 1759 
Q 1497 1759 1228 1600 
Q 959 1441 959 1056 
Q 959 750 1161 570 
Q 1363 391 1709 391 
Q 2188 391 2477 730 
Q 2766 1069 2766 1631 
L 2766 1759 
L 2194 1759 
z
M 3341 1997 
L 3341 0 
L 2766 0 
L 2766 531 
Q 2569 213 2275 61 
Q 1981 -91 1556 -91 
Q 1019 -91 701 211 
Q 384 513 384 1019 
Q 384 1609 779 1909 
Q 1175 2209 1959 2209 
L 2766 2209 
L 2766 2266 
Q 2766 2663 2505 2880 
Q 2244 3097 1772 3097 
Q 1472 3097 1187 3025 
Q 903 2953 641 2809 
L 641 3341 
Q 956 3463 1253 3523 
Q 1550 3584 1831 3584 
Q 2591 3584 2966 3190 
Q 3341 2797 3341 1997 
z
" transform="scale(0.015625)"/>
      <path id="DejaVuSans-69" d="M 603 3500 
L 1178 3500 
L 1178 0 
L 603 0 
L 603 3500 
z
M 603 4863 
L 1178 4863 
L 1178 4134 
L 603 4134 
L 603 4863 
z
" transform="scale(0.015625)"/>
      <path id="DejaVuSans-6c" d="M 603 4863 
L 1178 4863 
L 1178 0 
L 603 0 
L 603 4863 
z
" transform="scale(0.015625)"/>
      <path id="DejaVuSans-79" d="M 2059 -325 
Q 1816 -950 1584 -1140 
Q 1353 -1331 966 -1331 
L 506 -1331 
L 506 -850 
L 844 -850 
Q 1081 -850 1212 -737 
Q 1344 -625 1503 -206 
L 1606 56 
L 191 3500 
L 800 3500 
L 1894 763 
L 2988 3500 
L 3597 3500 
L 2059 -325 
z
" transform="scale(0.015625)"/>
      <path id="DejaVuSans-20" transform="scale(0.015625)"/>
      <path id="DejaVuSans-43" d="M 4122 4306 
L 4122 3641 
Q 3803 3938 3442 4084 
Q 3081 4231 2675 4231 
Q 1875 4231 1450 3742 
Q 1025 3253 1025 2328 
Q 1025 1406 1450 917 
Q 1875 428 2675 428 
Q 3081 428 3442 575 
Q 3803 722 4122 1019 
L 4122 359 
Q 3791 134 3420 21 
Q 3050 -91 2638 -91 
Q 1578 -91 968 557 
Q 359 1206 359 2328 
Q 359 3453 968 4101 
Q 1578 4750 2638 4750 
Q 3056 4750 3426 4639 
Q 3797 4528 4122 4306 
z
" transform="scale(0.015625)"/>
      <path id="DejaVuSans-6f" d="M 1959 3097 
Q 1497 3097 1228 2736 
Q 959 2375 959 1747 
Q 959 1119 1226 758 
Q 1494 397 1959 397 
Q 2419 397 2687 759 
Q 2956 1122 2956 1747 
Q 2956 2369 2687 2733 
Q 2419 3097 1959 3097 
z
M 1959 3584 
Q 2709 3584 3137 3096 
Q 3566 2609 3566 1747 
Q 3566 888 3137 398 
Q 2709 -91 1959 -91 
Q 1206 -91 779 398 
Q 353 888 353 1747 
Q 353 2609 779 3096 
Q 1206 3584 1959 3584 
z
" transform="scale(0.015625)"/>
      <path id="DejaVuSans-6e" d="M 3513 2113 
L 3513 0 
L 2938 0 
L 2938 2094 
Q 2938 2591 2744 2837 
Q 2550 3084 2163 3084 
Q 1697 3084 1428 2787 
Q 1159 2491 1159 1978 
L 1159 0 
L 581 0 
L 581 3500 
L 1159 3500 
L 1159 2956 
Q 1366 3272 1645 3428 
Q 1925 3584 2291 3584 
Q 2894 3584 3203 3211 
Q 3513 2838 3513 2113 
z
" transform="scale(0.015625)"/>
      <path id="DejaVuSans-66" d="M 2375 4863 
L 2375 4384 
L 1825 4384 
Q 1516 4384 1395 4259 
Q 1275 4134 1275 3809 
L 1275 3500 
L 2222 3500 
L 2222 3053 
L 1275 3053 
L 1275 0 
L 697 0 
L 697 3053 
L 147 3053 
L 147 3500 
L 697 3500 
L 697 3744 
Q 697 4328 969 4595 
Q 1241 4863 1831 4863 
L 2375 4863 
z
" transform="scale(0.015625)"/>
      <path id="DejaVuSans-72" d="M 2631 2963 
Q 2534 3019 2420 3045 
Q 2306 3072 2169 3072 
Q 1681 3072 1420 2755 
Q 1159 2438 1159 1844 
L 1159 0 
L 581 0 
L 581 3500 
L 1159 3500 
L 1159 2956 
Q 1341 3275 1631 3429 
Q 1922 3584 2338 3584 
Q 2397 3584 2469 3576 
Q 2541 3569 2628 3553 
L 2631 2963 
z
" transform="scale(0.015625)"/>
      <path id="DejaVuSans-6d" d="M 3328 2828 
Q 3544 3216 3844 3400 
Q 4144 3584 4550 3584 
Q 5097 3584 5394 3201 
Q 5691 2819 5691 2113 
L 5691 0 
L 5113 0 
L 5113 2094 
Q 5113 2597 4934 2840 
Q 4756 3084 4391 3084 
Q 3944 3084 3684 2787 
Q 3425 2491 3425 1978 
L 3425 0 
L 2847 0 
L 2847 2094 
Q 2847 2600 2669 2842 
Q 2491 3084 2119 3084 
Q 1678 3084 1418 2786 
Q 1159 2488 1159 1978 
L 1159 0 
L 581 0 
L 581 3500 
L 1159 3500 
L 1159 2956 
Q 1356 3278 1631 3431 
Q 1906 3584 2284 3584 
Q 2666 3584 2933 3390 
Q 3200 3197 3328 2828 
z
" transform="scale(0.015625)"/>
      <path id="DejaVuSans-65" d="M 3597 1894 
L 3597 1613 
L 953 1613 
Q 991 1019 1311 708 
Q 1631 397 2203 397 
Q 2534 397 2845 478 
Q 3156 559 3463 722 
L 3463 178 
Q 3153 47 2828 -22 
Q 2503 -91 2169 -91 
Q 1331 -91 842 396 
Q 353 884 353 1716 
Q 353 2575 817 3079 
Q 1281 3584 2069 3584 
Q 2775 3584 3186 3129 
Q 3597 2675 3597 1894 
z
M 3022 2063 
Q 3016 2534 2758 2815 
Q 2500 3097 2075 3097 
Q 1594 3097 1305 2825 
Q 1016 2553 972 2059 
L 3022 2063 
z
" transform="scale(0.015625)"/>
      <path id="DejaVuSans-64" d="M 2906 2969 
L 2906 4863 
L 3481 4863 
L 3481 0 
L 2906 0 
L 2906 525 
Q 2725 213 2448 61 
Q 2172 -91 1784 -91 
Q 1150 -91 751 415 
Q 353 922 353 1747 
Q 353 2572 751 3078 
Q 1150 3584 1784 3584 
Q 2172 3584 2448 3432 
Q 2725 3281 2906 2969 
z
M 947 1747 
Q 947 1113 1208 752 
Q 1469 391 1925 391 
Q 2381 391 2643 752 
Q 2906 1113 2906 1747 
Q 2906 2381 2643 2742 
Q 2381 3103 1925 3103 
Q 1469 3103 1208 2742 
Q 947 2381 947 1747 
z
" transform="scale(0.015625)"/>
      <path id="DejaVuSans-73" d="M 2834 3397 
L 2834 2853 
Q 2591 2978 2328 3040 
Q 2066 3103 1784 3103 
Q 1356 3103 1142 2972 
Q 928 2841 928 2578 
Q 928 2378 1081 2264 
Q 1234 2150 1697 2047 
L 1894 2003 
Q 2506 1872 2764 1633 
Q 3022 1394 3022 966 
Q 3022 478 2636 193 
Q 2250 -91 1575 -91 
Q 1294 -91 989 -36 
Q 684 19 347 128 
L 347 722 
Q 666 556 975 473 
Q 1284 391 1588 391 
Q 1994 391 2212 530 
Q 2431 669 2431 922 
Q 2431 1156 2273 1281 
Q 2116 1406 1581 1522 
L 1381 1569 
Q 847 1681 609 1914 
Q 372 2147 372 2553 
Q 372 3047 722 3315 
Q 1072 3584 1716 3584 
Q 2034 3584 2315 3537 
Q 2597 3491 2834 3397 
z
" transform="scale(0.015625)"/>
      <path id="DejaVuSans-46" d="M 628 4666 
L 3309 4666 
L 3309 4134 
L 1259 4134 
L 1259 2759 
L 3109 2759 
L 3109 2228 
L 1259 2228 
L 1259 0 
L 628 0 
L 628 4666 
z
" transform="scale(0.015625)"/>
      <path id="DejaVuSans-63" d="M 3122 3366 
L 3122 2828 
Q 2878 2963 2633 3030 
Q 2388 3097 2138 3097 
Q 1578 3097 1268 2742 
Q 959 2388 959 1747 
Q 959 1106 1268 751 
Q 1578 397 2138 397 
Q 2388 397 2633 464 
Q 2878 531 3122 666 
L 3122 134 
Q 2881 22 2623 -34 
Q 2366 -91 2075 -91 
Q 1284 -91 818 406 
Q 353 903 353 1747 
Q 353 2603 823 3093 
Q 1294 3584 2113 3584 
Q 2378 3584 2631 3529 
Q 2884 3475 3122 3366 
z
" transform="scale(0.015625)"/>
      <path id="DejaVuSans-74" d="M 1172 4494 
L 1172 3500 
L 2356 3500 
L 2356 3053 
L 1172 3053 
L 1172 1153 
Q 1172 725 1289 603 
Q 1406 481 1766 481 
L 2356 481 
L 2356 0 
L 1766 0 
Q 1100 0 847 248 
Q 594 497 594 1153 
L 594 3053 
L 172 3053 
L 172 3500 
L 594 3500 
L 594 4494 
L 1172 4494 
z
" transform="scale(0.015625)"/>
      <path id="DejaVuSans-67" d="M 2906 1791 
Q 2906 2416 2648 2759 
Q 2391 3103 1925 3103 
Q 1463 3103 1205 2759 
Q 947 2416 947 1791 
Q 947 1169 1205 825 
Q 1463 481 1925 481 
Q 2391 481 2648 825 
Q 2906 1169 2906 1791 
z
M 3481 434 
Q 3481 -459 3084 -895 
Q 2688 -1331 1869 -1331 
Q 1566 -1331 1297 -1286 
Q 1028 -1241 775 -1147 
L 775 -588 
Q 1028 -725 1275 -790 
Q 1522 -856 1778 -856 
Q 2344 -856 2625 -561 
Q 2906 -266 2906 331 
L 2906 616 
Q 2728 306 2450 153 
Q 2172 0 1784 0 
Q 1141 0 747 490 
Q 353 981 353 1791 
Q 353 2603 747 3093 
Q 1141 3584 1784 3584 
Q 2172 3584 2450 3431 
Q 2728 3278 2906 2969 
L 2906 3500 
L 3481 3500 
L 3481 434 
z
" transform="scale(0.015625)"/>
      <path id="DejaVuSans-49" d="M 628 4666 
L 1259 4666 
L 1259 0 
L 628 0 
L 628 4666 
z
" transform="scale(0.015625)"/>
     </defs>
     <use xlink:href="#DejaVuSans-44"/>
     <use xlink:href="#DejaVuSans-61" x="77.001953"/>
     <use xlink:href="#DejaVuSans-69" x="138.28125"/>
     <use xlink:href="#DejaVuSans-6c" x="166.064453"/>
     <use xlink:href="#DejaVuSans-79" x="193.847656"/>
     <use xlink:href="#DejaVuSans-20" x="253.027344"/>
     <use xlink:href="#DejaVuSans-43" x="284.814453"/>
     <use xlink:href="#DejaVuSans-6f" x="354.638672"/>
     <use xlink:href="#DejaVuSans-6e" x="415.820312"/>
     <use xlink:href="#DejaVuSans-66" x="479.199219"/>
     <use xlink:href="#DejaVuSans-69" x="514.404297"/>
     <use xlink:href="#DejaVuSans-72" x="542.1875"/>
     <use xlink:href="#DejaVuSans-6d" x="581.550781"/>
     <use xlink:href="#DejaVuSans-65" x="678.962891"/>
     <use xlink:href="#DejaVuSans-64" x="740.486328"/>
     <use xlink:href="#DejaVuSans-20" x="803.962891"/>
     <use xlink:href="#DejaVuSans-43" x="835.75"/>
     <use xlink:href="#DejaVuSans-61" x="905.574219"/>
     <use xlink:href="#DejaVuSans-73" x="966.853516"/>
     <use xlink:href="#DejaVuSans-65" x="1018.953125"/>
     <use xlink:href="#DejaVuSans-73" x="1080.476562"/>
     <use xlink:href="#DejaVuSans-20" x="1132.576172"/>
     <use xlink:href="#DejaVuSans-46" x="1164.363281"/>
     <use xlink:href="#DejaVuSans-6f" x="1218.257812"/>
     <use xlink:href="#DejaVuSans-72" x="1279.439453"/>
     <use xlink:href="#DejaVuSans-65" x="1318.302734"/>
     <use xlink:href="#DejaVuSans-63" x="1379.826172"/>
     <use xlink:href="#DejaVuSans-61" x="1434.806641"/>
     <use xlink:href="#DejaVuSans-73" x="1496.085938"/>
     <use xlink:href="#DejaVuSans-74" x="1548.185547"/>
     <use xlink:href="#DejaVuSans-69" x="1587.394531"/>
     <use xlink:href="#DejaVuSans-6e" x="1615.177734"/>
     <use xlink:href="#DejaVuSans-67" x="1678.556641"/>
     <use xlink:href="#DejaVuSans-20" x="1742.033203"/>
     <use xlink:href="#DejaVuSans-2d" x="1773.820312"/>
     <use xlink:href="#DejaVuSans-20" x="1809.904297"/>
     <use xlink:href="#DejaVuSans-49" x="1841.691406"/>
     <use xlink:href="#DejaVuSans-6c" x="1871.183594"/>
     <use xlink:href="#DejaVuSans-6c" x="1898.966797"/>
     <use xlink:href="#DejaVuSans-69" x="1926.75"/>
     <use xlink:href="#DejaVuSans-6e" x="1954.533203"/>
     <use xlink:href="#DejaVuSans-6f" x="2017.912109"/>
     <use xlink:href="#DejaVuSans-69" x="2079.09375"/>
     <use xlink:href="#DejaVuSans-73" x="2106.876953"/>
    </g>
    <!-- ARIMA (1, 1, 1)x(1, 0, 1, 7) (R2 = -0.061978) -->
    <g transform="translate(581.46375 29.7555)scale(0.12 -0.12)">
     <defs>
      <path id="DejaVuSans-41" d="M 2188 4044 
L 1331 1722 
L 3047 1722 
L 2188 4044 
z
M 1831 4666 
L 2547 4666 
L 4325 0 
L 3669 0 
L 3244 1197 
L 1141 1197 
L 716 0 
L 50 0 
L 1831 4666 
z
" transform="scale(0.015625)"/>
      <path id="DejaVuSans-52" d="M 2841 2188 
Q 3044 2119 3236 1894 
Q 3428 1669 3622 1275 
L 4263 0 
L 3584 0 
L 2988 1197 
Q 2756 1666 2539 1819 
Q 2322 1972 1947 1972 
L 1259 1972 
L 1259 0 
L 628 0 
L 628 4666 
L 2053 4666 
Q 2853 4666 3247 4331 
Q 3641 3997 3641 3322 
Q 3641 2881 3436 2590 
Q 3231 2300 2841 2188 
z
M 1259 4147 
L 1259 2491 
L 2053 2491 
Q 2509 2491 2742 2702 
Q 2975 2913 2975 3322 
Q 2975 3731 2742 3939 
Q 2509 4147 2053 4147 
L 1259 4147 
z
" transform="scale(0.015625)"/>
      <path id="DejaVuSans-4d" d="M 628 4666 
L 1569 4666 
L 2759 1491 
L 3956 4666 
L 4897 4666 
L 4897 0 
L 4281 0 
L 4281 4097 
L 3078 897 
L 2444 897 
L 1241 4097 
L 1241 0 
L 628 0 
L 628 4666 
z
" transform="scale(0.015625)"/>
      <path id="DejaVuSans-28" d="M 1984 4856 
Q 1566 4138 1362 3434 
Q 1159 2731 1159 2009 
Q 1159 1288 1364 580 
Q 1569 -128 1984 -844 
L 1484 -844 
Q 1016 -109 783 600 
Q 550 1309 550 2009 
Q 550 2706 781 3412 
Q 1013 4119 1484 4856 
L 1984 4856 
z
" transform="scale(0.015625)"/>
      <path id="DejaVuSans-2c" d="M 750 794 
L 1409 794 
L 1409 256 
L 897 -744 
L 494 -744 
L 750 256 
L 750 794 
z
" transform="scale(0.015625)"/>
      <path id="DejaVuSans-29" d="M 513 4856 
L 1013 4856 
Q 1481 4119 1714 3412 
Q 1947 2706 1947 2009 
Q 1947 1309 1714 600 
Q 1481 -109 1013 -844 
L 513 -844 
Q 928 -128 1133 580 
Q 1338 1288 1338 2009 
Q 1338 2731 1133 3434 
Q 928 4138 513 4856 
z
" transform="scale(0.015625)"/>
      <path id="DejaVuSans-78" d="M 3513 3500 
L 2247 1797 
L 3578 0 
L 2900 0 
L 1881 1375 
L 863 0 
L 184 0 
L 1544 1831 
L 300 3500 
L 978 3500 
L 1906 2253 
L 2834 3500 
L 3513 3500 
z
" transform="scale(0.015625)"/>
      <path id="DejaVuSans-3d" d="M 678 2906 
L 4684 2906 
L 4684 2381 
L 678 2381 
L 678 2906 
z
M 678 1631 
L 4684 1631 
L 4684 1100 
L 678 1100 
L 678 1631 
z
" transform="scale(0.015625)"/>
      <path id="DejaVuSans-2e" d="M 684 794 
L 1344 794 
L 1344 0 
L 684 0 
L 684 794 
z
" transform="scale(0.015625)"/>
      <path id="DejaVuSans-39" d="M 703 97 
L 703 672 
Q 941 559 1184 500 
Q 1428 441 1663 441 
Q 2288 441 2617 861 
Q 2947 1281 2994 2138 
Q 2813 1869 2534 1725 
Q 2256 1581 1919 1581 
Q 1219 1581 811 2004 
Q 403 2428 403 3163 
Q 403 3881 828 4315 
Q 1253 4750 1959 4750 
Q 2769 4750 3195 4129 
Q 3622 3509 3622 2328 
Q 3622 1225 3098 567 
Q 2575 -91 1691 -91 
Q 1453 -91 1209 -44 
Q 966 3 703 97 
z
M 1959 2075 
Q 2384 2075 2632 2365 
Q 2881 2656 2881 3163 
Q 2881 3666 2632 3958 
Q 2384 4250 1959 4250 
Q 1534 4250 1286 3958 
Q 1038 3666 1038 3163 
Q 1038 2656 1286 2365 
Q 1534 2075 1959 2075 
z
" transform="scale(0.015625)"/>
     </defs>
     <use xlink:href="#DejaVuSans-41"/>
     <use xlink:href="#DejaVuSans-52" x="68.408203"/>
     <use xlink:href="#DejaVuSans-49" x="137.890625"/>
     <use xlink:href="#DejaVuSans-4d" x="167.382812"/>
     <use xlink:href="#DejaVuSans-41" x="253.662109"/>
     <use xlink:href="#DejaVuSans-20" x="322.070312"/>
     <use xlink:href="#DejaVuSans-28" x="353.857422"/>
     <use xlink:href="#DejaVuSans-31" x="392.871094"/>
     <use xlink:href="#DejaVuSans-2c" x="456.494141"/>
     <use xlink:href="#DejaVuSans-20" x="488.28125"/>
     <use xlink:href="#DejaVuSans-31" x="520.068359"/>
     <use xlink:href="#DejaVuSans-2c" x="583.691406"/>
     <use xlink:href="#DejaVuSans-20" x="615.478516"/>
     <use xlink:href="#DejaVuSans-31" x="647.265625"/>
     <use xlink:href="#DejaVuSans-29" x="710.888672"/>
     <use xlink:href="#DejaVuSans-78" x="749.902344"/>
     <use xlink:href="#DejaVuSans-28" x="809.082031"/>
     <use xlink:href="#DejaVuSans-31" x="848.095703"/>
     <use xlink:href="#DejaVuSans-2c" x="911.71875"/>
     <use xlink:href="#DejaVuSans-20" x="943.505859"/>
     <use xlink:href="#DejaVuSans-30" x="975.292969"/>
     <use xlink:href="#DejaVuSans-2c" x="1038.916016"/>
     <use xlink:href="#DejaVuSans-20" x="1070.703125"/>
     <use xlink:href="#DejaVuSans-31" x="1102.490234"/>
     <use xlink:href="#DejaVuSans-2c" x="1166.113281"/>
     <use xlink:href="#DejaVuSans-20" x="1197.900391"/>
     <use xlink:href="#DejaVuSans-37" x="1229.6875"/>
     <use xlink:href="#DejaVuSans-29" x="1293.310547"/>
     <use xlink:href="#DejaVuSans-20" x="1332.324219"/>
     <use xlink:href="#DejaVuSans-28" x="1364.111328"/>
     <use xlink:href="#DejaVuSans-52" x="1403.125"/>
     <use xlink:href="#DejaVuSans-32" x="1472.607422"/>
     <use xlink:href="#DejaVuSans-20" x="1536.230469"/>
     <use xlink:href="#DejaVuSans-3d" x="1568.017578"/>
     <use xlink:href="#DejaVuSans-20" x="1651.806641"/>
     <use xlink:href="#DejaVuSans-2d" x="1683.59375"/>
     <use xlink:href="#DejaVuSans-30" x="1719.677734"/>
     <use xlink:href="#DejaVuSans-2e" x="1783.300781"/>
     <use xlink:href="#DejaVuSans-30" x="1815.087891"/>
     <use xlink:href="#DejaVuSans-36" x="1878.710938"/>
     <use xlink:href="#DejaVuSans-31" x="1942.333984"/>
     <use xlink:href="#DejaVuSans-39" x="2005.957031"/>
     <use xlink:href="#DejaVuSans-37" x="2069.580078"/>
     <use xlink:href="#DejaVuSans-38" x="2133.203125"/>
     <use xlink:href="#DejaVuSans-29" x="2196.826172"/>
    </g>
   </g>
   <g id="legend_1">
    <g id="patch_7">
     <path d="M 1281.132812 87.789875 
L 1378.2125 87.789875 
Q 1380.2125 87.789875 1380.2125 85.789875 
L 1380.2125 42.7555 
Q 1380.2125 40.7555 1378.2125 40.7555 
L 1281.132812 40.7555 
Q 1279.132812 40.7555 1279.132812 42.7555 
L 1279.132812 85.789875 
Q 1279.132812 87.789875 1281.132812 87.789875 
z
" style="fill: #ffffff; opacity: 0.8; stroke: #cccccc; stroke-linejoin: miter"/>
    </g>
    <g id="line2d_20">
     <path d="M 1283.132812 48.853937 
L 1293.132812 48.853937 
L 1303.132812 48.853937 
" style="fill: none; stroke: #0000ff; stroke-width: 1.5; stroke-linecap: square"/>
    </g>
    <g id="text_18">
     <!-- Actual Value -->
     <g transform="translate(1311.132812 52.353937)scale(0.1 -0.1)">
      <defs>
       <path id="DejaVuSans-75" d="M 544 1381 
L 544 3500 
L 1119 3500 
L 1119 1403 
Q 1119 906 1312 657 
Q 1506 409 1894 409 
Q 2359 409 2629 706 
Q 2900 1003 2900 1516 
L 2900 3500 
L 3475 3500 
L 3475 0 
L 2900 0 
L 2900 538 
Q 2691 219 2414 64 
Q 2138 -91 1772 -91 
Q 1169 -91 856 284 
Q 544 659 544 1381 
z
M 1991 3584 
L 1991 3584 
z
" transform="scale(0.015625)"/>
       <path id="DejaVuSans-56" d="M 1831 0 
L 50 4666 
L 709 4666 
L 2188 738 
L 3669 4666 
L 4325 4666 
L 2547 0 
L 1831 0 
z
" transform="scale(0.015625)"/>
      </defs>
      <use xlink:href="#DejaVuSans-41"/>
      <use xlink:href="#DejaVuSans-63" x="66.658203"/>
      <use xlink:href="#DejaVuSans-74" x="121.638672"/>
      <use xlink:href="#DejaVuSans-75" x="160.847656"/>
      <use xlink:href="#DejaVuSans-61" x="224.226562"/>
      <use xlink:href="#DejaVuSans-6c" x="285.505859"/>
      <use xlink:href="#DejaVuSans-20" x="313.289062"/>
      <use xlink:href="#DejaVuSans-56" x="345.076172"/>
      <use xlink:href="#DejaVuSans-61" x="405.734375"/>
      <use xlink:href="#DejaVuSans-6c" x="467.013672"/>
      <use xlink:href="#DejaVuSans-75" x="494.796875"/>
      <use xlink:href="#DejaVuSans-65" x="558.175781"/>
     </g>
    </g>
    <g id="line2d_21">
     <path d="M 1283.132812 63.532062 
L 1293.132812 63.532062 
L 1303.132812 63.532062 
" style="fill: none; stroke: #ffa500; stroke-width: 1.5; stroke-linecap: square"/>
    </g>
    <g id="text_19">
     <!-- Check Value -->
     <g transform="translate(1311.132812 67.032062)scale(0.1 -0.1)">
      <defs>
       <path id="DejaVuSans-68" d="M 3513 2113 
L 3513 0 
L 2938 0 
L 2938 2094 
Q 2938 2591 2744 2837 
Q 2550 3084 2163 3084 
Q 1697 3084 1428 2787 
Q 1159 2491 1159 1978 
L 1159 0 
L 581 0 
L 581 4863 
L 1159 4863 
L 1159 2956 
Q 1366 3272 1645 3428 
Q 1925 3584 2291 3584 
Q 2894 3584 3203 3211 
Q 3513 2838 3513 2113 
z
" transform="scale(0.015625)"/>
       <path id="DejaVuSans-6b" d="M 581 4863 
L 1159 4863 
L 1159 1991 
L 2875 3500 
L 3609 3500 
L 1753 1863 
L 3688 0 
L 2938 0 
L 1159 1709 
L 1159 0 
L 581 0 
L 581 4863 
z
" transform="scale(0.015625)"/>
      </defs>
      <use xlink:href="#DejaVuSans-43"/>
      <use xlink:href="#DejaVuSans-68" x="69.824219"/>
      <use xlink:href="#DejaVuSans-65" x="133.203125"/>
      <use xlink:href="#DejaVuSans-63" x="194.726562"/>
      <use xlink:href="#DejaVuSans-6b" x="249.707031"/>
      <use xlink:href="#DejaVuSans-20" x="307.617188"/>
      <use xlink:href="#DejaVuSans-56" x="339.404297"/>
      <use xlink:href="#DejaVuSans-61" x="400.0625"/>
      <use xlink:href="#DejaVuSans-6c" x="461.341797"/>
      <use xlink:href="#DejaVuSans-75" x="489.125"/>
      <use xlink:href="#DejaVuSans-65" x="552.503906"/>
     </g>
    </g>
    <g id="line2d_22">
     <path d="M 1283.132812 78.210187 
L 1293.132812 78.210187 
L 1303.132812 78.210187 
" style="fill: none; stroke: #ff0000; stroke-width: 1.5; stroke-linecap: square"/>
    </g>
    <g id="text_20">
     <!-- Predict Value -->
     <g transform="translate(1311.132812 81.710187)scale(0.1 -0.1)">
      <defs>
       <path id="DejaVuSans-50" d="M 1259 4147 
L 1259 2394 
L 2053 2394 
Q 2494 2394 2734 2622 
Q 2975 2850 2975 3272 
Q 2975 3691 2734 3919 
Q 2494 4147 2053 4147 
L 1259 4147 
z
M 628 4666 
L 2053 4666 
Q 2838 4666 3239 4311 
Q 3641 3956 3641 3272 
Q 3641 2581 3239 2228 
Q 2838 1875 2053 1875 
L 1259 1875 
L 1259 0 
L 628 0 
L 628 4666 
z
" transform="scale(0.015625)"/>
      </defs>
      <use xlink:href="#DejaVuSans-50"/>
      <use xlink:href="#DejaVuSans-72" x="58.552734"/>
      <use xlink:href="#DejaVuSans-65" x="97.416016"/>
      <use xlink:href="#DejaVuSans-64" x="158.939453"/>
      <use xlink:href="#DejaVuSans-69" x="222.416016"/>
      <use xlink:href="#DejaVuSans-63" x="250.199219"/>
      <use xlink:href="#DejaVuSans-74" x="305.179688"/>
      <use xlink:href="#DejaVuSans-20" x="344.388672"/>
      <use xlink:href="#DejaVuSans-56" x="376.175781"/>
      <use xlink:href="#DejaVuSans-61" x="436.833984"/>
      <use xlink:href="#DejaVuSans-6c" x="498.113281"/>
      <use xlink:href="#DejaVuSans-75" x="525.896484"/>
      <use xlink:href="#DejaVuSans-65" x="589.275391"/>
     </g>
    </g>
   </g>
  </g>
 </g>
 <defs>
  <clipPath id="pb415ff462c">
   <rect x="46.0125" y="35.7555" width="1339.2" height="332.64"/>
  </clipPath>
 </defs>
</svg>
