<?xml version="1.0" encoding="utf-8" standalone="no"?>
<!DOCTYPE svg PUBLIC "-//W3C//DTD SVG 1.1//EN"
  "http://www.w3.org/Graphics/SVG/1.1/DTD/svg11.dtd">
<svg xmlns:xlink="http://www.w3.org/1999/xlink" width="1386.05pt" height="392.273625pt" viewBox="0 0 1386.05 392.273625" xmlns="http://www.w3.org/2000/svg" version="1.1">
 <metadata>
  <rdf:RDF xmlns:dc="http://purl.org/dc/elements/1.1/" xmlns:cc="http://creativecommons.org/ns#" xmlns:rdf="http://www.w3.org/1999/02/22-rdf-syntax-ns#">
   <cc:Work>
    <dc:type rdf:resource="http://purl.org/dc/dcmitype/StillImage"/>
    <dc:date>2022-06-18T17:39:49.549757</dc:date>
    <dc:format>image/svg+xml</dc:format>
    <dc:creator>
     <cc:Agent>
      <dc:title>Matplotlib v3.5.2, https://matplotlib.org/</dc:title>
     </cc:Agent>
    </dc:creator>
   </cc:Work>
  </rdf:RDF>
 </metadata>
 <defs>
  <style type="text/css">*{stroke-linejoin: round; stroke-linecap: butt}</style>
 </defs>
 <g id="figure_1">
  <g id="patch_1">
   <path d="M 0 392.273625 
L 1386.05 392.273625 
L 1386.05 0 
L 0 0 
z
" style="fill: #ffffff"/>
  </g>
  <g id="axes_1">
   <g id="patch_2">
    <path d="M 39.65 368.3955 
L 1378.85 368.3955 
L 1378.85 35.7555 
L 39.65 35.7555 
z
" style="fill: #ffffff"/>
   </g>
   <g id="matplotlib.axis_1">
    <g id="xtick_1">
     <g id="line2d_1">
      <defs>
       <path id="m1df585e1fd" d="M 0 0 
L 0 3.5 
" style="stroke: #000000; stroke-width: 0.8"/>
      </defs>
      <g>
       <use xlink:href="#m1df585e1fd" x="70.394493" y="368.3955" style="stroke: #000000; stroke-width: 0.8"/>
      </g>
     </g>
     <g id="text_1">
      <!-- 2020-01 -->
      <g transform="translate(49.503087 382.993937)scale(0.1 -0.1)">
       <defs>
        <path id="DejaVuSans-32" d="M 1228 531 
L 3431 531 
L 3431 0 
L 469 0 
L 469 531 
Q 828 903 1448 1529 
Q 2069 2156 2228 2338 
Q 2531 2678 2651 2914 
Q 2772 3150 2772 3378 
Q 2772 3750 2511 3984 
Q 2250 4219 1831 4219 
Q 1534 4219 1204 4116 
Q 875 4013 500 3803 
L 500 4441 
Q 881 4594 1212 4672 
Q 1544 4750 1819 4750 
Q 2544 4750 2975 4387 
Q 3406 4025 3406 3419 
Q 3406 3131 3298 2873 
Q 3191 2616 2906 2266 
Q 2828 2175 2409 1742 
Q 1991 1309 1228 531 
z
" transform="scale(0.015625)"/>
        <path id="DejaVuSans-30" d="M 2034 4250 
Q 1547 4250 1301 3770 
Q 1056 3291 1056 2328 
Q 1056 1369 1301 889 
Q 1547 409 2034 409 
Q 2525 409 2770 889 
Q 3016 1369 3016 2328 
Q 3016 3291 2770 3770 
Q 2525 4250 2034 4250 
z
M 2034 4750 
Q 2819 4750 3233 4129 
Q 3647 3509 3647 2328 
Q 3647 1150 3233 529 
Q 2819 -91 2034 -91 
Q 1250 -91 836 529 
Q 422 1150 422 2328 
Q 422 3509 836 4129 
Q 1250 4750 2034 4750 
z
" transform="scale(0.015625)"/>
        <path id="DejaVuSans-2d" d="M 313 2009 
L 1997 2009 
L 1997 1497 
L 313 1497 
L 313 2009 
z
" transform="scale(0.015625)"/>
        <path id="DejaVuSans-31" d="M 794 531 
L 1825 531 
L 1825 4091 
L 703 3866 
L 703 4441 
L 1819 4666 
L 2450 4666 
L 2450 531 
L 3481 531 
L 3481 0 
L 794 0 
L 794 531 
z
" transform="scale(0.015625)"/>
       </defs>
       <use xlink:href="#DejaVuSans-32"/>
       <use xlink:href="#DejaVuSans-30" x="63.623047"/>
       <use xlink:href="#DejaVuSans-32" x="127.246094"/>
       <use xlink:href="#DejaVuSans-30" x="190.869141"/>
       <use xlink:href="#DejaVuSans-2d" x="254.492188"/>
       <use xlink:href="#DejaVuSans-30" x="290.576172"/>
       <use xlink:href="#DejaVuSans-31" x="354.199219"/>
      </g>
     </g>
    </g>
    <g id="xtick_2">
     <g id="line2d_2">
      <g>
       <use xlink:href="#m1df585e1fd" x="195.015825" y="368.3955" style="stroke: #000000; stroke-width: 0.8"/>
      </g>
     </g>
     <g id="text_2">
      <!-- 2020-04 -->
      <g transform="translate(174.124418 382.993937)scale(0.1 -0.1)">
       <defs>
        <path id="DejaVuSans-34" d="M 2419 4116 
L 825 1625 
L 2419 1625 
L 2419 4116 
z
M 2253 4666 
L 3047 4666 
L 3047 1625 
L 3713 1625 
L 3713 1100 
L 3047 1100 
L 3047 0 
L 2419 0 
L 2419 1100 
L 313 1100 
L 313 1709 
L 2253 4666 
z
" transform="scale(0.015625)"/>
       </defs>
       <use xlink:href="#DejaVuSans-32"/>
       <use xlink:href="#DejaVuSans-30" x="63.623047"/>
       <use xlink:href="#DejaVuSans-32" x="127.246094"/>
       <use xlink:href="#DejaVuSans-30" x="190.869141"/>
       <use xlink:href="#DejaVuSans-2d" x="254.492188"/>
       <use xlink:href="#DejaVuSans-30" x="290.576172"/>
       <use xlink:href="#DejaVuSans-34" x="354.199219"/>
      </g>
     </g>
    </g>
    <g id="xtick_3">
     <g id="line2d_3">
      <g>
       <use xlink:href="#m1df585e1fd" x="319.637156" y="368.3955" style="stroke: #000000; stroke-width: 0.8"/>
      </g>
     </g>
     <g id="text_3">
      <!-- 2020-07 -->
      <g transform="translate(298.74575 382.993937)scale(0.1 -0.1)">
       <defs>
        <path id="DejaVuSans-37" d="M 525 4666 
L 3525 4666 
L 3525 4397 
L 1831 0 
L 1172 0 
L 2766 4134 
L 525 4134 
L 525 4666 
z
" transform="scale(0.015625)"/>
       </defs>
       <use xlink:href="#DejaVuSans-32"/>
       <use xlink:href="#DejaVuSans-30" x="63.623047"/>
       <use xlink:href="#DejaVuSans-32" x="127.246094"/>
       <use xlink:href="#DejaVuSans-30" x="190.869141"/>
       <use xlink:href="#DejaVuSans-2d" x="254.492188"/>
       <use xlink:href="#DejaVuSans-30" x="290.576172"/>
       <use xlink:href="#DejaVuSans-37" x="354.199219"/>
      </g>
     </g>
    </g>
    <g id="xtick_4">
     <g id="line2d_4">
      <g>
       <use xlink:href="#m1df585e1fd" x="445.627953" y="368.3955" style="stroke: #000000; stroke-width: 0.8"/>
      </g>
     </g>
     <g id="text_4">
      <!-- 2020-10 -->
      <g transform="translate(424.736547 382.993937)scale(0.1 -0.1)">
       <use xlink:href="#DejaVuSans-32"/>
       <use xlink:href="#DejaVuSans-30" x="63.623047"/>
       <use xlink:href="#DejaVuSans-32" x="127.246094"/>
       <use xlink:href="#DejaVuSans-30" x="190.869141"/>
       <use xlink:href="#DejaVuSans-2d" x="254.492188"/>
       <use xlink:href="#DejaVuSans-31" x="290.576172"/>
       <use xlink:href="#DejaVuSans-30" x="354.199219"/>
      </g>
     </g>
    </g>
    <g id="xtick_5">
     <g id="line2d_5">
      <g>
       <use xlink:href="#m1df585e1fd" x="571.618749" y="368.3955" style="stroke: #000000; stroke-width: 0.8"/>
      </g>
     </g>
     <g id="text_5">
      <!-- 2021-01 -->
      <g transform="translate(550.727343 382.993937)scale(0.1 -0.1)">
       <use xlink:href="#DejaVuSans-32"/>
       <use xlink:href="#DejaVuSans-30" x="63.623047"/>
       <use xlink:href="#DejaVuSans-32" x="127.246094"/>
       <use xlink:href="#DejaVuSans-31" x="190.869141"/>
       <use xlink:href="#DejaVuSans-2d" x="254.492188"/>
       <use xlink:href="#DejaVuSans-30" x="290.576172"/>
       <use xlink:href="#DejaVuSans-31" x="354.199219"/>
      </g>
     </g>
    </g>
    <g id="xtick_6">
     <g id="line2d_6">
      <g>
       <use xlink:href="#m1df585e1fd" x="694.870616" y="368.3955" style="stroke: #000000; stroke-width: 0.8"/>
      </g>
     </g>
     <g id="text_6">
      <!-- 2021-04 -->
      <g transform="translate(673.979209 382.993937)scale(0.1 -0.1)">
       <use xlink:href="#DejaVuSans-32"/>
       <use xlink:href="#DejaVuSans-30" x="63.623047"/>
       <use xlink:href="#DejaVuSans-32" x="127.246094"/>
       <use xlink:href="#DejaVuSans-31" x="190.869141"/>
       <use xlink:href="#DejaVuSans-2d" x="254.492188"/>
       <use xlink:href="#DejaVuSans-30" x="290.576172"/>
       <use xlink:href="#DejaVuSans-34" x="354.199219"/>
      </g>
     </g>
    </g>
    <g id="xtick_7">
     <g id="line2d_7">
      <g>
       <use xlink:href="#m1df585e1fd" x="819.491947" y="368.3955" style="stroke: #000000; stroke-width: 0.8"/>
      </g>
     </g>
     <g id="text_7">
      <!-- 2021-07 -->
      <g transform="translate(798.600541 382.993937)scale(0.1 -0.1)">
       <use xlink:href="#DejaVuSans-32"/>
       <use xlink:href="#DejaVuSans-30" x="63.623047"/>
       <use xlink:href="#DejaVuSans-32" x="127.246094"/>
       <use xlink:href="#DejaVuSans-31" x="190.869141"/>
       <use xlink:href="#DejaVuSans-2d" x="254.492188"/>
       <use xlink:href="#DejaVuSans-30" x="290.576172"/>
       <use xlink:href="#DejaVuSans-37" x="354.199219"/>
      </g>
     </g>
    </g>
    <g id="xtick_8">
     <g id="line2d_8">
      <g>
       <use xlink:href="#m1df585e1fd" x="945.482744" y="368.3955" style="stroke: #000000; stroke-width: 0.8"/>
      </g>
     </g>
     <g id="text_8">
      <!-- 2021-10 -->
      <g transform="translate(924.591337 382.993937)scale(0.1 -0.1)">
       <use xlink:href="#DejaVuSans-32"/>
       <use xlink:href="#DejaVuSans-30" x="63.623047"/>
       <use xlink:href="#DejaVuSans-32" x="127.246094"/>
       <use xlink:href="#DejaVuSans-31" x="190.869141"/>
       <use xlink:href="#DejaVuSans-2d" x="254.492188"/>
       <use xlink:href="#DejaVuSans-31" x="290.576172"/>
       <use xlink:href="#DejaVuSans-30" x="354.199219"/>
      </g>
     </g>
    </g>
    <g id="xtick_9">
     <g id="line2d_9">
      <g>
       <use xlink:href="#m1df585e1fd" x="1071.47354" y="368.3955" style="stroke: #000000; stroke-width: 0.8"/>
      </g>
     </g>
     <g id="text_9">
      <!-- 2022-01 -->
      <g transform="translate(1050.582134 382.993937)scale(0.1 -0.1)">
       <use xlink:href="#DejaVuSans-32"/>
       <use xlink:href="#DejaVuSans-30" x="63.623047"/>
       <use xlink:href="#DejaVuSans-32" x="127.246094"/>
       <use xlink:href="#DejaVuSans-32" x="190.869141"/>
       <use xlink:href="#DejaVuSans-2d" x="254.492188"/>
       <use xlink:href="#DejaVuSans-30" x="290.576172"/>
       <use xlink:href="#DejaVuSans-31" x="354.199219"/>
      </g>
     </g>
    </g>
    <g id="xtick_10">
     <g id="line2d_10">
      <g>
       <use xlink:href="#m1df585e1fd" x="1194.725406" y="368.3955" style="stroke: #000000; stroke-width: 0.8"/>
      </g>
     </g>
     <g id="text_10">
      <!-- 2022-04 -->
      <g transform="translate(1173.834 382.993937)scale(0.1 -0.1)">
       <use xlink:href="#DejaVuSans-32"/>
       <use xlink:href="#DejaVuSans-30" x="63.623047"/>
       <use xlink:href="#DejaVuSans-32" x="127.246094"/>
       <use xlink:href="#DejaVuSans-32" x="190.869141"/>
       <use xlink:href="#DejaVuSans-2d" x="254.492188"/>
       <use xlink:href="#DejaVuSans-30" x="290.576172"/>
       <use xlink:href="#DejaVuSans-34" x="354.199219"/>
      </g>
     </g>
    </g>
    <g id="xtick_11">
     <g id="line2d_11">
      <g>
       <use xlink:href="#m1df585e1fd" x="1319.346738" y="368.3955" style="stroke: #000000; stroke-width: 0.8"/>
      </g>
     </g>
     <g id="text_11">
      <!-- 2022-07 -->
      <g transform="translate(1298.455332 382.993937)scale(0.1 -0.1)">
       <use xlink:href="#DejaVuSans-32"/>
       <use xlink:href="#DejaVuSans-30" x="63.623047"/>
       <use xlink:href="#DejaVuSans-32" x="127.246094"/>
       <use xlink:href="#DejaVuSans-32" x="190.869141"/>
       <use xlink:href="#DejaVuSans-2d" x="254.492188"/>
       <use xlink:href="#DejaVuSans-30" x="290.576172"/>
       <use xlink:href="#DejaVuSans-37" x="354.199219"/>
      </g>
     </g>
    </g>
   </g>
   <g id="matplotlib.axis_2">
    <g id="ytick_1">
     <g id="line2d_12">
      <defs>
       <path id="mf6bead6868" d="M 0 0 
L -3.5 0 
" style="stroke: #000000; stroke-width: 0.8"/>
      </defs>
      <g>
       <use xlink:href="#mf6bead6868" x="39.65" y="346.636897" style="stroke: #000000; stroke-width: 0.8"/>
      </g>
     </g>
     <g id="text_12">
      <!-- 0 -->
      <g transform="translate(26.2875 350.436116)scale(0.1 -0.1)">
       <use xlink:href="#DejaVuSans-30"/>
      </g>
     </g>
    </g>
    <g id="ytick_2">
     <g id="line2d_13">
      <g>
       <use xlink:href="#mf6bead6868" x="39.65" y="279.018837" style="stroke: #000000; stroke-width: 0.8"/>
      </g>
     </g>
     <g id="text_13">
      <!-- 2000 -->
      <g transform="translate(7.2 282.818056)scale(0.1 -0.1)">
       <use xlink:href="#DejaVuSans-32"/>
       <use xlink:href="#DejaVuSans-30" x="63.623047"/>
       <use xlink:href="#DejaVuSans-30" x="127.246094"/>
       <use xlink:href="#DejaVuSans-30" x="190.869141"/>
      </g>
     </g>
    </g>
    <g id="ytick_3">
     <g id="line2d_14">
      <g>
       <use xlink:href="#mf6bead6868" x="39.65" y="211.400776" style="stroke: #000000; stroke-width: 0.8"/>
      </g>
     </g>
     <g id="text_14">
      <!-- 4000 -->
      <g transform="translate(7.2 215.199995)scale(0.1 -0.1)">
       <use xlink:href="#DejaVuSans-34"/>
       <use xlink:href="#DejaVuSans-30" x="63.623047"/>
       <use xlink:href="#DejaVuSans-30" x="127.246094"/>
       <use xlink:href="#DejaVuSans-30" x="190.869141"/>
      </g>
     </g>
    </g>
    <g id="ytick_4">
     <g id="line2d_15">
      <g>
       <use xlink:href="#mf6bead6868" x="39.65" y="143.782715" style="stroke: #000000; stroke-width: 0.8"/>
      </g>
     </g>
     <g id="text_15">
      <!-- 6000 -->
      <g transform="translate(7.2 147.581934)scale(0.1 -0.1)">
       <defs>
        <path id="DejaVuSans-36" d="M 2113 2584 
Q 1688 2584 1439 2293 
Q 1191 2003 1191 1497 
Q 1191 994 1439 701 
Q 1688 409 2113 409 
Q 2538 409 2786 701 
Q 3034 994 3034 1497 
Q 3034 2003 2786 2293 
Q 2538 2584 2113 2584 
z
M 3366 4563 
L 3366 3988 
Q 3128 4100 2886 4159 
Q 2644 4219 2406 4219 
Q 1781 4219 1451 3797 
Q 1122 3375 1075 2522 
Q 1259 2794 1537 2939 
Q 1816 3084 2150 3084 
Q 2853 3084 3261 2657 
Q 3669 2231 3669 1497 
Q 3669 778 3244 343 
Q 2819 -91 2113 -91 
Q 1303 -91 875 529 
Q 447 1150 447 2328 
Q 447 3434 972 4092 
Q 1497 4750 2381 4750 
Q 2619 4750 2861 4703 
Q 3103 4656 3366 4563 
z
" transform="scale(0.015625)"/>
       </defs>
       <use xlink:href="#DejaVuSans-36"/>
       <use xlink:href="#DejaVuSans-30" x="63.623047"/>
       <use xlink:href="#DejaVuSans-30" x="127.246094"/>
       <use xlink:href="#DejaVuSans-30" x="190.869141"/>
      </g>
     </g>
    </g>
    <g id="ytick_5">
     <g id="line2d_16">
      <g>
       <use xlink:href="#mf6bead6868" x="39.65" y="76.164655" style="stroke: #000000; stroke-width: 0.8"/>
      </g>
     </g>
     <g id="text_16">
      <!-- 8000 -->
      <g transform="translate(7.2 79.963873)scale(0.1 -0.1)">
       <defs>
        <path id="DejaVuSans-38" d="M 2034 2216 
Q 1584 2216 1326 1975 
Q 1069 1734 1069 1313 
Q 1069 891 1326 650 
Q 1584 409 2034 409 
Q 2484 409 2743 651 
Q 3003 894 3003 1313 
Q 3003 1734 2745 1975 
Q 2488 2216 2034 2216 
z
M 1403 2484 
Q 997 2584 770 2862 
Q 544 3141 544 3541 
Q 544 4100 942 4425 
Q 1341 4750 2034 4750 
Q 2731 4750 3128 4425 
Q 3525 4100 3525 3541 
Q 3525 3141 3298 2862 
Q 3072 2584 2669 2484 
Q 3125 2378 3379 2068 
Q 3634 1759 3634 1313 
Q 3634 634 3220 271 
Q 2806 -91 2034 -91 
Q 1263 -91 848 271 
Q 434 634 434 1313 
Q 434 1759 690 2068 
Q 947 2378 1403 2484 
z
M 1172 3481 
Q 1172 3119 1398 2916 
Q 1625 2713 2034 2713 
Q 2441 2713 2670 2916 
Q 2900 3119 2900 3481 
Q 2900 3844 2670 4047 
Q 2441 4250 2034 4250 
Q 1625 4250 1398 4047 
Q 1172 3844 1172 3481 
z
" transform="scale(0.015625)"/>
       </defs>
       <use xlink:href="#DejaVuSans-38"/>
       <use xlink:href="#DejaVuSans-30" x="63.623047"/>
       <use xlink:href="#DejaVuSans-30" x="127.246094"/>
       <use xlink:href="#DejaVuSans-30" x="190.869141"/>
      </g>
     </g>
    </g>
   </g>
   <g id="line2d_17">
    <path d="M 100.522727 346.636897 
L 164.887591 346.636897 
L 166.257056 346.366425 
L 167.626521 346.670706 
L 170.365451 346.636897 
L 179.951708 346.636897 
L 181.321173 346.400234 
L 182.690638 346.400234 
L 184.060103 346.569279 
L 185.429568 346.264998 
L 186.799034 346.467852 
L 188.168499 346.231189 
L 189.537964 346.298807 
L 190.907429 345.893099 
L 192.276894 346.264998 
L 193.64636 346.400234 
L 196.38529 345.419772 
L 197.754755 345.893099 
L 200.493685 345.690245 
L 201.863151 345.014064 
L 203.232616 345.555008 
L 204.602081 344.168838 
L 205.971546 344.81121 
L 207.341011 343.627894 
L 208.710477 343.594085 
L 210.079942 343.120758 
L 211.449407 341.971251 
L 212.818872 342.579814 
L 214.188337 340.551272 
L 215.557802 341.802206 
L 216.927268 343.255994 
L 218.296733 342.207914 
L 219.666198 343.492658 
L 221.035663 344.946446 
L 222.405128 344.270265 
L 223.774594 343.154567 
L 225.144059 343.323612 
L 226.513524 343.796939 
L 227.882989 343.019331 
L 229.252454 344.43931 
L 230.621919 345.555008 
L 231.991385 344.304074 
L 233.36085 344.608356 
L 234.730315 344.067411 
L 236.09978 344.067411 
L 237.469245 344.506929 
L 238.838711 345.183109 
L 240.208176 345.385963 
L 241.577641 344.845019 
L 242.947106 344.642165 
L 244.316571 342.37696 
L 245.686036 338.556539 
L 247.055502 338.252258 
L 248.424967 342.444578 
L 249.794432 343.357422 
L 251.163897 344.980255 
L 252.533362 344.304074 
L 253.902827 344.608356 
L 255.272293 343.42504 
L 256.641758 344.202647 
L 258.011223 345.690245 
L 259.380688 345.284536 
L 260.750153 344.675974 
L 262.119619 343.526467 
L 263.489084 346.636897 
L 264.858549 340.585081 
L 266.228014 342.985522 
L 267.597479 343.289803 
L 268.966944 345.85929 
L 270.33641 344.371692 
L 271.705875 344.709783 
L 273.07534 343.830748 
L 274.444805 344.168838 
L 275.81427 343.458849 
L 277.183736 345.521199 
L 278.553201 345.250727 
L 279.922666 345.521199 
L 281.292131 343.42504 
L 282.661596 343.76313 
L 284.031061 345.622627 
L 285.400527 343.594085 
L 286.769992 344.236456 
L 288.139457 345.521199 
L 289.508922 344.878828 
L 290.878387 343.898366 
L 292.247853 344.574547 
L 294.986783 343.560276 
L 296.356248 344.43931 
L 297.725713 345.622627 
L 299.095178 345.352154 
L 300.464644 343.796939 
L 301.834109 344.642165 
L 303.203574 344.980255 
L 304.573039 344.371692 
L 305.942504 344.202647 
L 307.31197 345.656436 
L 308.681435 345.724054 
L 310.0509 344.405501 
L 312.78983 344.743592 
L 314.159295 343.560276 
L 315.528761 344.777401 
L 316.898226 345.453581 
L 319.637156 344.540738 
L 321.006621 344.371692 
L 322.376087 343.76313 
L 323.745552 344.946446 
L 325.115017 345.453581 
L 326.484482 345.216918 
L 327.853947 344.675974 
L 329.223412 343.965984 
L 330.592878 343.458849 
L 331.962343 344.43931 
L 333.331808 344.845019 
L 334.701273 345.115491 
L 336.070738 345.791672 
L 337.440203 345.014064 
L 338.809669 343.932175 
L 340.179134 345.216918 
L 341.548599 343.42504 
L 342.918064 344.168838 
L 344.287529 345.1493 
L 345.656995 345.385963 
L 347.02646 344.067411 
L 348.395925 344.675974 
L 349.76539 344.405501 
L 351.134855 344.709783 
L 352.50432 343.086949 
L 353.873786 343.594085 
L 355.243251 344.980255 
L 356.612716 345.014064 
L 357.982181 341.599352 
L 359.351646 345.1493 
L 360.721112 343.965984 
L 362.090577 343.154567 
L 363.460042 343.661703 
L 364.829507 344.43931 
L 366.198972 344.642165 
L 367.568437 343.627894 
L 368.937903 343.086949 
L 370.307368 343.323612 
L 371.676833 343.05314 
L 373.046298 342.309342 
L 374.415763 344.675974 
L 375.785229 344.946446 
L 377.154694 343.188376 
L 378.524159 343.864557 
L 379.893624 342.343151 
L 381.263089 343.458849 
L 382.632554 341.362689 
L 384.00202 343.729321 
L 385.371485 343.898366 
L 386.74095 342.410769 
L 388.110415 342.410769 
L 389.47988 340.111755 
L 390.849346 338.150831 
L 392.218811 341.869824 
L 393.588276 341.599352 
L 394.957741 343.932175 
L 396.327206 344.405501 
L 397.696671 325.573872 
L 399.066137 335.716581 
L 400.435602 332.26806 
L 401.805067 333.789466 
L 403.174532 340.314609 
L 404.543997 338.52273 
L 405.913463 338.049404 
L 407.282928 335.344681 
L 408.652393 337.880359 
L 410.021858 336.730852 
L 411.391323 339.198911 
L 412.760788 340.179373 
L 414.130254 343.154567 
L 415.499719 340.95698 
L 416.869184 337.745122 
L 418.238649 337.068942 
L 419.608114 335.818008 
L 420.97758 339.841282 
L 422.347045 341.126026 
L 423.71651 340.111755 
L 426.45544 333.28233 
L 427.824905 333.485185 
L 429.194371 334.161365 
L 430.563836 338.117022 
L 431.933301 340.787935 
L 433.302766 335.818008 
L 434.672231 331.591879 
L 436.041696 330.983316 
L 437.411162 331.186171 
L 438.780627 327.061469 
L 440.150092 332.842813 
L 441.519557 339.976518 
L 442.889022 337.880359 
L 444.258488 333.383758 
L 445.627953 321.381552 
L 446.997418 333.586612 
L 448.366883 330.949507 
L 449.736348 332.031396 
L 451.105813 340.551272 
L 452.475279 337.237987 
L 453.844744 311.813596 
L 455.214209 328.549066 
L 456.583674 320.468708 
L 457.953139 321.888687 
L 459.322605 325.776726 
L 460.69207 334.431837 
L 462.061535 332.639959 
L 463.431 317.020187 
L 464.800465 319.6911 
L 466.16993 319.826336 
L 467.539396 319.386819 
L 468.908861 324.390555 
L 470.278326 327.467177 
L 471.647791 325.64149 
L 473.017256 326.790997 
L 474.386722 313.740711 
L 475.756187 306.573196 
L 477.125652 314.890218 
L 478.495117 310.731707 
L 479.864582 328.447639 
L 481.234047 313.199766 
L 482.603513 303.699429 
L 483.972978 312.827867 
L 485.342443 293.928619 
L 486.711908 298.188557 
L 488.081373 301.603269 
L 489.450839 328.853347 
L 490.820304 312.692631 
L 492.189769 314.957836 
L 493.559234 300.656616 
L 494.928699 296.32906 
L 496.298164 301.434224 
L 497.66763 298.357602 
L 499.037095 315.972107 
L 500.40656 312.050259 
L 501.776025 300.588998 
L 503.14549 278.342656 
L 504.514956 292.17055 
L 505.884421 283.921146 
L 507.253886 306.09987 
L 508.623351 316.310197 
L 509.992816 312.625013 
L 511.362281 299.743772 
L 512.731747 310.427426 
L 514.101212 301.738505 
L 515.470677 307.959367 
L 516.840142 317.865413 
L 518.209607 320.164427 
L 519.579073 312.455968 
L 520.948538 303.259912 
L 522.318003 346.636897 
L 523.687468 274.353191 
L 525.056933 318.947302 
L 526.426398 319.555864 
L 527.795864 327.568604 
L 529.165329 331.490452 
L 530.534794 302.989439 
L 531.904259 307.925558 
L 533.273724 311.137416 
L 534.643189 316.005916 
L 536.012655 323.410094 
L 537.38212 329.428101 
L 538.751585 328.447639 
L 540.12105 313.335003 
L 541.490515 322.83534 
L 542.859981 314.687364 
L 544.229446 321.78726 
L 545.598911 325.303399 
L 546.968376 335.953244 
L 548.337841 334.972782 
L 549.707306 316.073534 
L 551.076772 326.554333 
L 552.446237 327.196705 
L 553.815702 327.568604 
L 555.185167 333.417567 
L 556.554632 334.905164 
L 557.924098 331.929969 
L 559.293563 328.684302 
L 560.663028 329.529528 
L 562.032493 346.636897 
L 563.401958 332.538532 
L 564.771423 332.200441 
L 566.140889 337.609886 
L 567.510354 329.698573 
L 568.879819 327.636222 
L 570.249284 331.625688 
L 571.618749 346.636897 
L 572.988215 324.153892 
L 574.35768 322.869149 
L 575.727145 342.884095 
L 577.09661 331.997587 
L 578.466075 326.081007 
L 579.83554 331.490452 
L 581.205006 331.490452 
L 582.574471 335.784199 
L 583.943936 332.538532 
L 585.313401 340.517463 
L 586.682866 338.387494 
L 588.052332 331.355216 
L 589.421797 335.919435 
L 590.791262 332.26806 
L 592.160727 335.108018 
L 593.530192 337.643695 
L 594.899657 342.748859 
L 596.269123 342.343151 
L 597.638588 337.271796 
L 599.008053 335.243254 
L 600.377518 335.953244 
L 601.746983 338.286067 
L 603.116449 340.382227 
L 604.485914 345.555008 
L 605.855379 339.875091 
L 607.224844 338.928439 
L 608.594309 340.314609 
L 609.963774 341.227453 
L 611.33324 342.748859 
L 612.702705 340.551272 
L 614.07217 344.43931 
L 615.441635 342.71505 
L 616.8111 339.604619 
L 618.180565 340.754126 
L 619.550031 342.207914 
L 620.919496 340.2808 
L 622.288961 343.357422 
L 623.658426 344.81121 
L 625.027891 342.512196 
L 626.397357 340.720317 
L 627.766822 337.204178 
L 630.505752 342.00506 
L 631.875217 342.917904 
L 633.244682 344.574547 
L 634.614148 339.300338 
L 635.983613 343.526467 
L 637.353078 340.348418 
L 638.722543 341.66697 
L 640.092008 341.66697 
L 641.461474 341.937442 
L 642.830939 345.622627 
L 644.200404 339.469383 
L 645.569869 337.778931 
L 646.939334 341.362689 
L 648.308799 341.802206 
L 649.678265 340.348418 
L 651.04773 342.106487 
L 652.417195 345.183109 
L 653.78666 340.483654 
L 655.156125 340.517463 
L 656.525591 338.793202 
L 657.895056 341.092216 
L 659.264521 341.599352 
L 660.633986 339.503192 
L 662.003451 346.400234 
L 663.372916 341.32888 
L 664.742382 339.57081 
L 666.111847 339.841282 
L 667.481312 340.416036 
L 668.850777 341.700779 
L 670.220242 342.241724 
L 671.589708 345.757863 
L 672.959173 341.836015 
L 674.328638 340.720317 
L 675.698103 338.624157 
L 677.067568 335.987053 
L 678.437033 339.706046 
L 679.806499 341.768397 
L 681.175964 343.086949 
L 682.545429 342.309342 
L 683.914894 337.508459 
L 685.284359 338.049404 
L 686.653825 339.57081 
L 688.02329 338.252258 
L 689.392755 341.126026 
L 690.76222 343.526467 
L 692.131685 341.261262 
L 693.50115 337.711313 
L 696.240081 339.976518 
L 697.609546 340.720317 
L 698.979011 346.636897 
L 700.348476 341.362689 
L 701.717942 341.126026 
L 703.087407 336.663233 
L 704.456872 339.131293 
L 705.826337 337.508459 
L 707.195802 338.590348 
L 708.565267 346.636897 
L 709.934733 340.314609 
L 711.304198 337.778931 
L 712.673663 339.029866 
L 715.412593 338.421303 
L 716.782058 339.875091 
L 718.151524 346.636897 
L 719.520989 342.140296 
L 720.890454 340.855553 
L 722.259919 341.32888 
L 723.629384 342.106487 
L 724.99885 339.9089 
L 726.368315 342.038869 
L 727.73778 346.636897 
L 729.107245 343.458849 
L 730.47671 341.633161 
L 731.846175 340.889362 
L 733.215641 342.106487 
L 734.585106 342.309342 
L 735.954571 346.636897 
L 737.324036 346.636897 
L 738.693501 343.76313 
L 740.062967 338.89463 
L 741.432432 343.289803 
L 742.801897 343.796939 
L 744.171362 344.067411 
L 745.540827 346.636897 
L 746.910292 346.636897 
L 748.279758 344.033602 
L 749.649223 342.410769 
L 751.018688 343.830748 
L 752.388153 343.898366 
L 753.757618 345.115491 
L 755.127084 346.636897 
L 756.496549 346.636897 
L 757.866014 345.216918 
L 759.235479 343.323612 
L 760.604944 345.352154 
L 761.974409 344.777401 
L 763.343875 345.48739 
L 764.71334 346.636897 
L 766.082805 346.636897 
L 767.45227 345.588818 
L 768.821735 343.898366 
L 770.191201 345.014064 
L 771.560666 345.48739 
L 772.930131 344.709783 
L 774.299596 346.636897 
L 775.669061 346.636897 
L 777.038526 345.656436 
L 778.407992 346.636897 
L 779.777457 345.419772 
L 781.146922 346.129762 
L 782.516387 345.994526 
L 783.885852 346.636897 
L 785.255318 346.636897 
L 786.624783 346.231189 
L 787.994248 345.656436 
L 789.363713 346.231189 
L 790.733178 345.926908 
L 792.102643 346.366425 
L 793.472109 346.636897 
L 794.841574 346.062144 
L 796.211039 346.772134 
L 797.580504 345.926908 
L 798.949969 346.467852 
L 800.319435 346.264998 
L 801.6889 346.636897 
L 804.42783 346.636897 
L 807.16676 345.453581 
L 808.536226 345.791672 
L 809.905691 346.264998 
L 811.275156 346.163571 
L 812.644621 346.636897 
L 814.014086 346.636897 
L 815.383551 345.994526 
L 816.753017 346.264998 
L 818.122482 345.960717 
L 819.491947 345.825481 
L 820.861412 345.893099 
L 822.230877 346.636897 
L 826.339273 346.636897 
L 827.708738 344.608356 
L 829.078203 346.636897 
L 835.925529 346.636897 
L 837.294994 343.323612 
L 838.66446 346.163571 
L 840.033925 346.636897 
L 845.511785 346.636897 
L 846.881251 340.010328 
L 848.250716 346.636897 
L 855.098042 346.636897 
L 856.467507 337.677504 
L 857.836972 346.636897 
L 864.684298 346.636897 
L 866.053763 333.99232 
L 867.423228 346.636897 
L 874.270554 346.636897 
L 875.640019 317.59494 
L 877.009485 341.464116 
L 878.37895 341.971251 
L 879.748415 346.636897 
L 881.11788 346.636897 
L 882.487345 340.61889 
L 883.856811 333.28233 
L 885.226276 333.924702 
L 886.595741 336.663233 
L 887.965206 336.358952 
L 889.334671 346.636897 
L 890.704136 346.636897 
L 892.073602 335.513726 
L 893.443067 320.096809 
L 894.812532 331.253789 
L 896.181997 330.712844 
L 897.551462 331.794733 
L 898.920927 346.636897 
L 900.290393 346.636897 
L 901.659858 330.983316 
L 903.029323 312.151686 
L 904.398788 327.095278 
L 905.768253 328.549066 
L 907.137719 330.307136 
L 908.507184 346.636897 
L 911.246114 346.636897 
L 912.615579 331.321407 
L 913.985044 305.05179 
L 915.35451 325.709108 
L 916.723975 325.844344 
L 918.09344 346.636897 
L 919.462905 346.636897 
L 920.83237 328.785729 
L 922.201836 313.098339 
L 923.571301 327.433368 
L 924.940766 327.974313 
L 926.310231 328.244785 
L 927.679696 346.636897 
L 929.049161 346.636897 
L 930.418627 331.55807 
L 931.788092 321.652024 
L 933.157557 326.216243 
L 934.527022 326.858615 
L 935.896487 330.746653 
L 937.265953 346.636897 
L 938.635418 346.636897 
L 940.004883 333.688039 
L 941.374348 319.183965 
L 942.743813 328.008122 
L 944.113278 330.679035 
L 945.482744 331.21998 
L 946.852209 346.636897 
L 948.221674 346.636897 
L 950.960604 321.11108 
L 952.33007 333.079476 
L 953.699535 330.611417 
L 955.069 334.769928 
L 956.438465 346.636897 
L 959.177395 346.636897 
L 960.546861 332.132823 
L 961.916326 309.852672 
L 963.285791 335.108018 
L 964.655256 335.885626 
L 966.024721 346.636897 
L 970.133117 346.636897 
L 971.502582 293.962428 
L 972.872047 332.538532 
L 974.241512 335.243254 
L 975.610978 346.636897 
L 976.980443 346.636897 
L 978.349908 336.663233 
L 979.719373 322.362014 
L 981.088838 331.321407 
L 982.458304 336.08848 
L 983.827769 333.248521 
L 985.197234 346.636897 
L 986.566699 346.636897 
L 987.936164 333.011858 
L 989.305629 322.362014 
L 990.675095 329.056202 
L 992.04456 331.727115 
L 993.414025 332.065205 
L 994.78349 346.636897 
L 996.152955 346.636897 
L 997.52242 333.079476 
L 998.891886 317.189232 
L 1000.261351 327.872886 
L 1001.630816 346.636897 
L 1003.000281 329.022393 
L 1004.369746 346.636897 
L 1005.739212 346.636897 
L 1007.108677 321.44917 
L 1008.478142 316.073534 
L 1009.847607 330.340945 
L 1011.217072 330.205709 
L 1012.586537 332.60615 
L 1013.956003 346.636897 
L 1015.325468 346.636897 
L 1016.694933 332.60615 
L 1018.064398 315.16069 
L 1019.433863 327.331941 
L 1020.803329 346.636897 
L 1024.911724 346.636897 
L 1026.281189 327.196705 
L 1027.650654 301.298988 
L 1029.02012 314.991645 
L 1030.389585 325.844344 
L 1031.75905 329.326674 
L 1033.128515 346.636897 
L 1034.49798 346.636897 
L 1035.867446 330.002855 
L 1037.236911 311.948832 
L 1038.606376 325.438635 
L 1039.975841 333.65423 
L 1041.345306 331.490452 
L 1042.714771 346.636897 
L 1044.084237 346.636897 
L 1045.453702 335.310872 
L 1046.823167 322.395823 
L 1048.192632 331.625688 
L 1049.562097 329.292865 
L 1050.931563 333.180903 
L 1052.301028 346.636897 
L 1053.670493 346.636897 
L 1055.039958 334.262792 
L 1056.409423 320.874416 
L 1057.778888 330.881889 
L 1059.148354 332.166632 
L 1060.517819 346.636897 
L 1063.256749 346.636897 
L 1064.626214 329.428101 
L 1065.99568 303.868474 
L 1067.365145 314.721173 
L 1068.73461 319.285392 
L 1070.104075 346.636897 
L 1072.843005 346.636897 
L 1074.212471 320.299663 
L 1075.581936 243.620782 
L 1076.951401 270.431343 
L 1078.320866 272.831784 
L 1079.690331 280.912142 
L 1081.059797 346.636897 
L 1082.429262 346.636897 
L 1083.798727 289.736299 
L 1085.168192 207.681783 
L 1086.537657 255.082043 
L 1087.907122 259.274363 
L 1089.276588 257.347248 
L 1090.646053 346.636897 
L 1094.754448 346.636897 
L 1096.123913 50.8755 
L 1097.493379 259.139127 
L 1098.862844 272.831784 
L 1100.232309 346.636897 
L 1101.601774 346.636897 
L 1102.971239 282.839257 
L 1104.340705 250.991151 
L 1105.71017 295.65288 
L 1107.079635 300.724234 
L 1108.4491 307.925558 
L 1109.818565 346.636897 
L 1111.18803 346.636897 
L 1112.557496 311.813596 
L 1113.926961 287.26824 
L 1115.296426 320.637753 
L 1116.665891 321.854878 
L 1118.035356 327.399559 
L 1119.404822 346.636897 
L 1120.774287 346.636897 
L 1122.143752 326.554333 
L 1123.513217 328.210976 
L 1124.882682 324.086274 
L 1126.252147 346.636897 
L 1127.621613 323.680566 
L 1128.991078 346.636897 
L 1130.360543 346.636897 
L 1131.730008 337.068942 
L 1133.099473 331.997587 
L 1134.468939 338.150831 
L 1135.838404 333.383758 
L 1137.207869 316.986378 
L 1138.577334 346.636897 
L 1141.316264 346.636897 
L 1142.68573 341.396498 
L 1144.055195 332.26806 
L 1145.42466 342.816477 
L 1146.794125 342.140296 
L 1148.16359 346.636897 
L 1149.533056 346.636897 
L 1150.902521 343.42504 
L 1152.271986 340.754126 
L 1153.641451 344.067411 
L 1155.010916 343.627894 
L 1156.380381 344.777401 
L 1157.749847 346.636897 
L 1159.119312 346.636897 
L 1160.488777 344.10122 
L 1161.858242 343.898366 
L 1163.227707 344.236456 
L 1164.597173 344.980255 
L 1165.966638 344.946446 
L 1167.336103 346.636897 
L 1168.705568 346.636897 
L 1170.075033 345.081682 
L 1171.444498 344.371692 
L 1172.813964 345.453581 
L 1174.183429 345.047873 
L 1175.552894 345.014064 
L 1176.922359 346.636897 
L 1181.030755 346.636897 
L 1182.40022 342.917904 
L 1183.769685 346.636897 
L 1190.617011 346.636897 
L 1191.986476 341.430307 
L 1193.355941 346.636897 
L 1200.203267 346.636897 
L 1201.572732 342.00506 
L 1202.942198 346.636897 
L 1209.789523 346.636897 
L 1211.158989 342.444578 
L 1212.528454 346.636897 
L 1219.37578 346.636897 
L 1220.745245 341.058407 
L 1222.11471 346.636897 
L 1228.962036 346.636897 
L 1230.331501 337.271796 
L 1231.700966 346.636897 
L 1238.548292 346.636897 
L 1239.917757 334.026129 
L 1241.287223 346.636897 
L 1248.134549 346.636897 
L 1249.504014 331.422834 
L 1250.873479 346.636897 
L 1257.720805 346.636897 
L 1259.09027 330.577608 
L 1260.459735 346.636897 
L 1267.307061 346.636897 
L 1268.676526 326.554333 
L 1270.045991 346.636897 
L 1276.893317 346.636897 
L 1278.262782 324.559601 
L 1279.632248 346.636897 
L 1286.479574 346.636897 
L 1287.849039 313.875947 
L 1289.218504 346.636897 
L 1296.06583 346.636897 
L 1297.435295 313.77452 
L 1298.80476 346.636897 
L 1300.174225 346.636897 
L 1300.174225 346.636897 
" clip-path="url(#p7f6cf2be4a)" style="fill: none; stroke: #0000ff; stroke-width: 1.5; stroke-linecap: square"/>
   </g>
   <g id="line2d_18">
    <path d="M 1060.517819 344.077423 
L 1061.887284 344.412498 
L 1063.256749 336.545359 
L 1064.626214 326.655687 
L 1065.99568 330.116473 
L 1067.365145 329.674359 
L 1068.73461 333.258169 
L 1070.104075 339.16467 
L 1071.47354 340.142901 
L 1072.843005 331.642208 
L 1074.212471 317.84438 
L 1075.581936 314.672242 
L 1076.951401 311.066063 
L 1078.320866 316.921747 
L 1079.690331 314.279637 
L 1081.059797 318.515704 
L 1082.429262 309.44964 
L 1083.798727 277.191591 
L 1085.168192 279.585195 
L 1086.537657 278.204153 
L 1087.907122 283.622687 
L 1089.276588 301.390604 
L 1090.646053 307.314045 
L 1092.015518 288.638995 
L 1093.384983 256.244892 
L 1094.754448 288.360074 
L 1096.123913 259.467533 
L 1097.493379 262.771104 
L 1098.862844 302.072249 
L 1100.232309 307.906452 
L 1101.601774 301.096342 
L 1102.971239 278.764751 
L 1104.340705 194.458216 
L 1105.71017 272.729421 
L 1107.079635 282.266309 
L 1108.4491 327.222835 
L 1109.818565 329.764437 
L 1111.18803 306.465606 
L 1112.557496 287.445072 
L 1113.926961 260.900633 
L 1115.296426 302.704872 
L 1116.665891 310.350704 
L 1118.035356 345.209795 
L 1119.404822 345.396625 
L 1120.774287 322.1492 
L 1122.143752 305.356941 
L 1123.513217 305.365615 
L 1124.882682 325.137702 
L 1126.252147 332.216953 
L 1127.621613 353.2755 
L 1128.991078 352.406404 
L 1130.360543 333.812229 
L 1131.730008 326.085206 
L 1133.099473 324.105382 
L 1134.468939 341.504237 
L 1135.838404 335.521411 
L 1137.207869 351.20061 
L 1138.577334 350.603149 
L 1139.946799 338.250765 
L 1141.316264 333.725887 
L 1142.68573 335.245504 
L 1144.055195 341.152249 
L 1145.42466 333.883429 
L 1146.794125 353.095014 
L 1148.16359 352.249546 
L 1149.533056 345.613583 
L 1150.902521 340.914449 
L 1152.271986 338.348495 
L 1153.641451 345.475139 
L 1155.010916 341.292141 
L 1156.380381 352.170397 
L 1157.749847 351.445976 
L 1159.119312 346.887588 
L 1160.488777 343.502393 
L 1161.858242 343.302083 
L 1163.227707 346.470175 
L 1164.597173 344.66251 
L 1165.966638 350.467895 
L 1167.336103 349.966358 
L 1168.705568 346.792854 
L 1170.075033 345.000288 
L 1171.444498 344.896026 
L 1172.813964 346.716253 
L 1174.183429 345.68325 
L 1175.552894 348.991137 
L 1176.922359 348.682931 
L 1178.291824 346.572442 
L 1179.661289 345.580714 
L 1181.030755 346.040118 
L 1182.40022 346.378183 
L 1183.769685 345.995441 
L 1185.13915 348.270882 
L 1186.508615 348.056968 
L 1187.878081 346.95214 
L 1189.247546 346.412088 
L 1190.617011 345.460111 
L 1191.986476 346.446538 
L 1193.355941 346.263695 
L 1194.725406 347.405435 
L 1196.094872 347.304822 
L 1197.464337 346.759116 
L 1198.833802 346.494373 
L 1200.203267 344.425425 
L 1201.572732 346.461767 
L 1202.942198 346.381083 
L 1204.311663 346.959593 
L 1205.681128 346.917347 
L 1207.050593 346.652096 
L 1208.420058 346.526058 
L 1209.789523 344.077723 
L 1211.158989 346.459219 
L 1212.528454 346.430808 
L 1213.897919 346.72959 
L 1215.267384 346.717455 
L 1218.006315 346.53683 
L 1219.37578 344.034865 
L 1220.745245 346.226321 
L 1222.11471 346.254303 
L 1223.484175 346.439938 
L 1227.592571 346.427361 
L 1228.962036 343.488196 
L 1230.331501 345.673911 
L 1237.178827 346.156467 
L 1238.548292 341.865275 
L 1239.917757 345.209525 
L 1245.395618 345.829715 
L 1246.765083 345.927715 
L 1248.134549 339.978263 
L 1249.504014 344.908713 
L 1253.612409 345.514668 
L 1256.35134 345.779316 
L 1257.720805 338.208293 
L 1259.09027 344.896697 
L 1263.198666 345.500667 
L 1265.937596 345.77373 
L 1267.307061 337.125628 
L 1268.676526 344.504823 
L 1272.784922 345.240381 
L 1275.523852 345.579622 
L 1276.893317 335.184473 
L 1278.262782 344.328092 
L 1282.371178 345.122849 
L 1285.110108 345.49209 
L 1286.479574 333.612186 
L 1287.849039 343.058691 
L 1290.587969 343.935118 
L 1293.326899 344.595786 
L 1294.696365 344.862762 
L 1296.06583 329.039704 
L 1297.435295 343.096828 
L 1300.174225 343.963488 
L 1300.174225 343.963488 
" clip-path="url(#p7f6cf2be4a)" style="fill: none; stroke: #ffa500; stroke-width: 1.5; stroke-linecap: square"/>
   </g>
   <g id="line2d_19">
    <path d="M 1300.174225 343.963488 
L 1301.543691 343.963488 
L 1302.913156 343.96327 
L 1304.282621 343.963152 
L 1305.652086 325.869164 
L 1307.021551 343.963278 
L 1308.391016 343.963229 
L 1309.760482 343.142876 
L 1311.129947 343.142876 
L 1312.499412 343.142701 
L 1313.868877 343.142606 
L 1315.238342 328.565138 
L 1316.607808 343.142707 
L 1317.977273 343.142668 
" clip-path="url(#p7f6cf2be4a)" style="fill: none; stroke: #ff0000; stroke-width: 1.5; stroke-linecap: square"/>
   </g>
   <g id="patch_3">
    <path d="M 39.65 368.3955 
L 39.65 35.7555 
" style="fill: none; stroke: #000000; stroke-width: 0.8; stroke-linejoin: miter; stroke-linecap: square"/>
   </g>
   <g id="patch_4">
    <path d="M 1378.85 368.3955 
L 1378.85 35.7555 
" style="fill: none; stroke: #000000; stroke-width: 0.8; stroke-linejoin: miter; stroke-linecap: square"/>
   </g>
   <g id="patch_5">
    <path d="M 39.65 368.3955 
L 1378.85 368.3955 
" style="fill: none; stroke: #000000; stroke-width: 0.8; stroke-linejoin: miter; stroke-linecap: square"/>
   </g>
   <g id="patch_6">
    <path d="M 39.65 35.7555 
L 1378.85 35.7555 
" style="fill: none; stroke: #000000; stroke-width: 0.8; stroke-linejoin: miter; stroke-linecap: square"/>
   </g>
   <g id="text_17">
    <!-- Daily Confirmed Cases Forecasting - South Dakota -->
    <g transform="translate(558.15125 16.318125)scale(0.12 -0.12)">
     <defs>
      <path id="DejaVuSans-44" d="M 1259 4147 
L 1259 519 
L 2022 519 
Q 2988 519 3436 956 
Q 3884 1394 3884 2338 
Q 3884 3275 3436 3711 
Q 2988 4147 2022 4147 
L 1259 4147 
z
M 628 4666 
L 1925 4666 
Q 3281 4666 3915 4102 
Q 4550 3538 4550 2338 
Q 4550 1131 3912 565 
Q 3275 0 1925 0 
L 628 0 
L 628 4666 
z
" transform="scale(0.015625)"/>
      <path id="DejaVuSans-61" d="M 2194 1759 
Q 1497 1759 1228 1600 
Q 959 1441 959 1056 
Q 959 750 1161 570 
Q 1363 391 1709 391 
Q 2188 391 2477 730 
Q 2766 1069 2766 1631 
L 2766 1759 
L 2194 1759 
z
M 3341 1997 
L 3341 0 
L 2766 0 
L 2766 531 
Q 2569 213 2275 61 
Q 1981 -91 1556 -91 
Q 1019 -91 701 211 
Q 384 513 384 1019 
Q 384 1609 779 1909 
Q 1175 2209 1959 2209 
L 2766 2209 
L 2766 2266 
Q 2766 2663 2505 2880 
Q 2244 3097 1772 3097 
Q 1472 3097 1187 3025 
Q 903 2953 641 2809 
L 641 3341 
Q 956 3463 1253 3523 
Q 1550 3584 1831 3584 
Q 2591 3584 2966 3190 
Q 3341 2797 3341 1997 
z
" transform="scale(0.015625)"/>
      <path id="DejaVuSans-69" d="M 603 3500 
L 1178 3500 
L 1178 0 
L 603 0 
L 603 3500 
z
M 603 4863 
L 1178 4863 
L 1178 4134 
L 603 4134 
L 603 4863 
z
" transform="scale(0.015625)"/>
      <path id="DejaVuSans-6c" d="M 603 4863 
L 1178 4863 
L 1178 0 
L 603 0 
L 603 4863 
z
" transform="scale(0.015625)"/>
      <path id="DejaVuSans-79" d="M 2059 -325 
Q 1816 -950 1584 -1140 
Q 1353 -1331 966 -1331 
L 506 -1331 
L 506 -850 
L 844 -850 
Q 1081 -850 1212 -737 
Q 1344 -625 1503 -206 
L 1606 56 
L 191 3500 
L 800 3500 
L 1894 763 
L 2988 3500 
L 3597 3500 
L 2059 -325 
z
" transform="scale(0.015625)"/>
      <path id="DejaVuSans-20" transform="scale(0.015625)"/>
      <path id="DejaVuSans-43" d="M 4122 4306 
L 4122 3641 
Q 3803 3938 3442 4084 
Q 3081 4231 2675 4231 
Q 1875 4231 1450 3742 
Q 1025 3253 1025 2328 
Q 1025 1406 1450 917 
Q 1875 428 2675 428 
Q 3081 428 3442 575 
Q 3803 722 4122 1019 
L 4122 359 
Q 3791 134 3420 21 
Q 3050 -91 2638 -91 
Q 1578 -91 968 557 
Q 359 1206 359 2328 
Q 359 3453 968 4101 
Q 1578 4750 2638 4750 
Q 3056 4750 3426 4639 
Q 3797 4528 4122 4306 
z
" transform="scale(0.015625)"/>
      <path id="DejaVuSans-6f" d="M 1959 3097 
Q 1497 3097 1228 2736 
Q 959 2375 959 1747 
Q 959 1119 1226 758 
Q 1494 397 1959 397 
Q 2419 397 2687 759 
Q 2956 1122 2956 1747 
Q 2956 2369 2687 2733 
Q 2419 3097 1959 3097 
z
M 1959 3584 
Q 2709 3584 3137 3096 
Q 3566 2609 3566 1747 
Q 3566 888 3137 398 
Q 2709 -91 1959 -91 
Q 1206 -91 779 398 
Q 353 888 353 1747 
Q 353 2609 779 3096 
Q 1206 3584 1959 3584 
z
" transform="scale(0.015625)"/>
      <path id="DejaVuSans-6e" d="M 3513 2113 
L 3513 0 
L 2938 0 
L 2938 2094 
Q 2938 2591 2744 2837 
Q 2550 3084 2163 3084 
Q 1697 3084 1428 2787 
Q 1159 2491 1159 1978 
L 1159 0 
L 581 0 
L 581 3500 
L 1159 3500 
L 1159 2956 
Q 1366 3272 1645 3428 
Q 1925 3584 2291 3584 
Q 2894 3584 3203 3211 
Q 3513 2838 3513 2113 
z
" transform="scale(0.015625)"/>
      <path id="DejaVuSans-66" d="M 2375 4863 
L 2375 4384 
L 1825 4384 
Q 1516 4384 1395 4259 
Q 1275 4134 1275 3809 
L 1275 3500 
L 2222 3500 
L 2222 3053 
L 1275 3053 
L 1275 0 
L 697 0 
L 697 3053 
L 147 3053 
L 147 3500 
L 697 3500 
L 697 3744 
Q 697 4328 969 4595 
Q 1241 4863 1831 4863 
L 2375 4863 
z
" transform="scale(0.015625)"/>
      <path id="DejaVuSans-72" d="M 2631 2963 
Q 2534 3019 2420 3045 
Q 2306 3072 2169 3072 
Q 1681 3072 1420 2755 
Q 1159 2438 1159 1844 
L 1159 0 
L 581 0 
L 581 3500 
L 1159 3500 
L 1159 2956 
Q 1341 3275 1631 3429 
Q 1922 3584 2338 3584 
Q 2397 3584 2469 3576 
Q 2541 3569 2628 3553 
L 2631 2963 
z
" transform="scale(0.015625)"/>
      <path id="DejaVuSans-6d" d="M 3328 2828 
Q 3544 3216 3844 3400 
Q 4144 3584 4550 3584 
Q 5097 3584 5394 3201 
Q 5691 2819 5691 2113 
L 5691 0 
L 5113 0 
L 5113 2094 
Q 5113 2597 4934 2840 
Q 4756 3084 4391 3084 
Q 3944 3084 3684 2787 
Q 3425 2491 3425 1978 
L 3425 0 
L 2847 0 
L 2847 2094 
Q 2847 2600 2669 2842 
Q 2491 3084 2119 3084 
Q 1678 3084 1418 2786 
Q 1159 2488 1159 1978 
L 1159 0 
L 581 0 
L 581 3500 
L 1159 3500 
L 1159 2956 
Q 1356 3278 1631 3431 
Q 1906 3584 2284 3584 
Q 2666 3584 2933 3390 
Q 3200 3197 3328 2828 
z
" transform="scale(0.015625)"/>
      <path id="DejaVuSans-65" d="M 3597 1894 
L 3597 1613 
L 953 1613 
Q 991 1019 1311 708 
Q 1631 397 2203 397 
Q 2534 397 2845 478 
Q 3156 559 3463 722 
L 3463 178 
Q 3153 47 2828 -22 
Q 2503 -91 2169 -91 
Q 1331 -91 842 396 
Q 353 884 353 1716 
Q 353 2575 817 3079 
Q 1281 3584 2069 3584 
Q 2775 3584 3186 3129 
Q 3597 2675 3597 1894 
z
M 3022 2063 
Q 3016 2534 2758 2815 
Q 2500 3097 2075 3097 
Q 1594 3097 1305 2825 
Q 1016 2553 972 2059 
L 3022 2063 
z
" transform="scale(0.015625)"/>
      <path id="DejaVuSans-64" d="M 2906 2969 
L 2906 4863 
L 3481 4863 
L 3481 0 
L 2906 0 
L 2906 525 
Q 2725 213 2448 61 
Q 2172 -91 1784 -91 
Q 1150 -91 751 415 
Q 353 922 353 1747 
Q 353 2572 751 3078 
Q 1150 3584 1784 3584 
Q 2172 3584 2448 3432 
Q 2725 3281 2906 2969 
z
M 947 1747 
Q 947 1113 1208 752 
Q 1469 391 1925 391 
Q 2381 391 2643 752 
Q 2906 1113 2906 1747 
Q 2906 2381 2643 2742 
Q 2381 3103 1925 3103 
Q 1469 3103 1208 2742 
Q 947 2381 947 1747 
z
" transform="scale(0.015625)"/>
      <path id="DejaVuSans-73" d="M 2834 3397 
L 2834 2853 
Q 2591 2978 2328 3040 
Q 2066 3103 1784 3103 
Q 1356 3103 1142 2972 
Q 928 2841 928 2578 
Q 928 2378 1081 2264 
Q 1234 2150 1697 2047 
L 1894 2003 
Q 2506 1872 2764 1633 
Q 3022 1394 3022 966 
Q 3022 478 2636 193 
Q 2250 -91 1575 -91 
Q 1294 -91 989 -36 
Q 684 19 347 128 
L 347 722 
Q 666 556 975 473 
Q 1284 391 1588 391 
Q 1994 391 2212 530 
Q 2431 669 2431 922 
Q 2431 1156 2273 1281 
Q 2116 1406 1581 1522 
L 1381 1569 
Q 847 1681 609 1914 
Q 372 2147 372 2553 
Q 372 3047 722 3315 
Q 1072 3584 1716 3584 
Q 2034 3584 2315 3537 
Q 2597 3491 2834 3397 
z
" transform="scale(0.015625)"/>
      <path id="DejaVuSans-46" d="M 628 4666 
L 3309 4666 
L 3309 4134 
L 1259 4134 
L 1259 2759 
L 3109 2759 
L 3109 2228 
L 1259 2228 
L 1259 0 
L 628 0 
L 628 4666 
z
" transform="scale(0.015625)"/>
      <path id="DejaVuSans-63" d="M 3122 3366 
L 3122 2828 
Q 2878 2963 2633 3030 
Q 2388 3097 2138 3097 
Q 1578 3097 1268 2742 
Q 959 2388 959 1747 
Q 959 1106 1268 751 
Q 1578 397 2138 397 
Q 2388 397 2633 464 
Q 2878 531 3122 666 
L 3122 134 
Q 2881 22 2623 -34 
Q 2366 -91 2075 -91 
Q 1284 -91 818 406 
Q 353 903 353 1747 
Q 353 2603 823 3093 
Q 1294 3584 2113 3584 
Q 2378 3584 2631 3529 
Q 2884 3475 3122 3366 
z
" transform="scale(0.015625)"/>
      <path id="DejaVuSans-74" d="M 1172 4494 
L 1172 3500 
L 2356 3500 
L 2356 3053 
L 1172 3053 
L 1172 1153 
Q 1172 725 1289 603 
Q 1406 481 1766 481 
L 2356 481 
L 2356 0 
L 1766 0 
Q 1100 0 847 248 
Q 594 497 594 1153 
L 594 3053 
L 172 3053 
L 172 3500 
L 594 3500 
L 594 4494 
L 1172 4494 
z
" transform="scale(0.015625)"/>
      <path id="DejaVuSans-67" d="M 2906 1791 
Q 2906 2416 2648 2759 
Q 2391 3103 1925 3103 
Q 1463 3103 1205 2759 
Q 947 2416 947 1791 
Q 947 1169 1205 825 
Q 1463 481 1925 481 
Q 2391 481 2648 825 
Q 2906 1169 2906 1791 
z
M 3481 434 
Q 3481 -459 3084 -895 
Q 2688 -1331 1869 -1331 
Q 1566 -1331 1297 -1286 
Q 1028 -1241 775 -1147 
L 775 -588 
Q 1028 -725 1275 -790 
Q 1522 -856 1778 -856 
Q 2344 -856 2625 -561 
Q 2906 -266 2906 331 
L 2906 616 
Q 2728 306 2450 153 
Q 2172 0 1784 0 
Q 1141 0 747 490 
Q 353 981 353 1791 
Q 353 2603 747 3093 
Q 1141 3584 1784 3584 
Q 2172 3584 2450 3431 
Q 2728 3278 2906 2969 
L 2906 3500 
L 3481 3500 
L 3481 434 
z
" transform="scale(0.015625)"/>
      <path id="DejaVuSans-53" d="M 3425 4513 
L 3425 3897 
Q 3066 4069 2747 4153 
Q 2428 4238 2131 4238 
Q 1616 4238 1336 4038 
Q 1056 3838 1056 3469 
Q 1056 3159 1242 3001 
Q 1428 2844 1947 2747 
L 2328 2669 
Q 3034 2534 3370 2195 
Q 3706 1856 3706 1288 
Q 3706 609 3251 259 
Q 2797 -91 1919 -91 
Q 1588 -91 1214 -16 
Q 841 59 441 206 
L 441 856 
Q 825 641 1194 531 
Q 1563 422 1919 422 
Q 2459 422 2753 634 
Q 3047 847 3047 1241 
Q 3047 1584 2836 1778 
Q 2625 1972 2144 2069 
L 1759 2144 
Q 1053 2284 737 2584 
Q 422 2884 422 3419 
Q 422 4038 858 4394 
Q 1294 4750 2059 4750 
Q 2388 4750 2728 4690 
Q 3069 4631 3425 4513 
z
" transform="scale(0.015625)"/>
      <path id="DejaVuSans-75" d="M 544 1381 
L 544 3500 
L 1119 3500 
L 1119 1403 
Q 1119 906 1312 657 
Q 1506 409 1894 409 
Q 2359 409 2629 706 
Q 2900 1003 2900 1516 
L 2900 3500 
L 3475 3500 
L 3475 0 
L 2900 0 
L 2900 538 
Q 2691 219 2414 64 
Q 2138 -91 1772 -91 
Q 1169 -91 856 284 
Q 544 659 544 1381 
z
M 1991 3584 
L 1991 3584 
z
" transform="scale(0.015625)"/>
      <path id="DejaVuSans-68" d="M 3513 2113 
L 3513 0 
L 2938 0 
L 2938 2094 
Q 2938 2591 2744 2837 
Q 2550 3084 2163 3084 
Q 1697 3084 1428 2787 
Q 1159 2491 1159 1978 
L 1159 0 
L 581 0 
L 581 4863 
L 1159 4863 
L 1159 2956 
Q 1366 3272 1645 3428 
Q 1925 3584 2291 3584 
Q 2894 3584 3203 3211 
Q 3513 2838 3513 2113 
z
" transform="scale(0.015625)"/>
      <path id="DejaVuSans-6b" d="M 581 4863 
L 1159 4863 
L 1159 1991 
L 2875 3500 
L 3609 3500 
L 1753 1863 
L 3688 0 
L 2938 0 
L 1159 1709 
L 1159 0 
L 581 0 
L 581 4863 
z
" transform="scale(0.015625)"/>
     </defs>
     <use xlink:href="#DejaVuSans-44"/>
     <use xlink:href="#DejaVuSans-61" x="77.001953"/>
     <use xlink:href="#DejaVuSans-69" x="138.28125"/>
     <use xlink:href="#DejaVuSans-6c" x="166.064453"/>
     <use xlink:href="#DejaVuSans-79" x="193.847656"/>
     <use xlink:href="#DejaVuSans-20" x="253.027344"/>
     <use xlink:href="#DejaVuSans-43" x="284.814453"/>
     <use xlink:href="#DejaVuSans-6f" x="354.638672"/>
     <use xlink:href="#DejaVuSans-6e" x="415.820312"/>
     <use xlink:href="#DejaVuSans-66" x="479.199219"/>
     <use xlink:href="#DejaVuSans-69" x="514.404297"/>
     <use xlink:href="#DejaVuSans-72" x="542.1875"/>
     <use xlink:href="#DejaVuSans-6d" x="581.550781"/>
     <use xlink:href="#DejaVuSans-65" x="678.962891"/>
     <use xlink:href="#DejaVuSans-64" x="740.486328"/>
     <use xlink:href="#DejaVuSans-20" x="803.962891"/>
     <use xlink:href="#DejaVuSans-43" x="835.75"/>
     <use xlink:href="#DejaVuSans-61" x="905.574219"/>
     <use xlink:href="#DejaVuSans-73" x="966.853516"/>
     <use xlink:href="#DejaVuSans-65" x="1018.953125"/>
     <use xlink:href="#DejaVuSans-73" x="1080.476562"/>
     <use xlink:href="#DejaVuSans-20" x="1132.576172"/>
     <use xlink:href="#DejaVuSans-46" x="1164.363281"/>
     <use xlink:href="#DejaVuSans-6f" x="1218.257812"/>
     <use xlink:href="#DejaVuSans-72" x="1279.439453"/>
     <use xlink:href="#DejaVuSans-65" x="1318.302734"/>
     <use xlink:href="#DejaVuSans-63" x="1379.826172"/>
     <use xlink:href="#DejaVuSans-61" x="1434.806641"/>
     <use xlink:href="#DejaVuSans-73" x="1496.085938"/>
     <use xlink:href="#DejaVuSans-74" x="1548.185547"/>
     <use xlink:href="#DejaVuSans-69" x="1587.394531"/>
     <use xlink:href="#DejaVuSans-6e" x="1615.177734"/>
     <use xlink:href="#DejaVuSans-67" x="1678.556641"/>
     <use xlink:href="#DejaVuSans-20" x="1742.033203"/>
     <use xlink:href="#DejaVuSans-2d" x="1773.820312"/>
     <use xlink:href="#DejaVuSans-20" x="1809.904297"/>
     <use xlink:href="#DejaVuSans-53" x="1841.691406"/>
     <use xlink:href="#DejaVuSans-6f" x="1905.167969"/>
     <use xlink:href="#DejaVuSans-75" x="1966.349609"/>
     <use xlink:href="#DejaVuSans-74" x="2029.728516"/>
     <use xlink:href="#DejaVuSans-68" x="2068.9375"/>
     <use xlink:href="#DejaVuSans-20" x="2132.316406"/>
     <use xlink:href="#DejaVuSans-44" x="2164.103516"/>
     <use xlink:href="#DejaVuSans-61" x="2241.105469"/>
     <use xlink:href="#DejaVuSans-6b" x="2302.384766"/>
     <use xlink:href="#DejaVuSans-6f" x="2356.669922"/>
     <use xlink:href="#DejaVuSans-74" x="2417.851562"/>
     <use xlink:href="#DejaVuSans-61" x="2457.060547"/>
    </g>
    <!-- ARIMA (0, 1, 1)x(1, 0, 1, 7) (R2 = 0.430833) -->
    <g transform="translate(577.265938 29.7555)scale(0.12 -0.12)">
     <defs>
      <path id="DejaVuSans-41" d="M 2188 4044 
L 1331 1722 
L 3047 1722 
L 2188 4044 
z
M 1831 4666 
L 2547 4666 
L 4325 0 
L 3669 0 
L 3244 1197 
L 1141 1197 
L 716 0 
L 50 0 
L 1831 4666 
z
" transform="scale(0.015625)"/>
      <path id="DejaVuSans-52" d="M 2841 2188 
Q 3044 2119 3236 1894 
Q 3428 1669 3622 1275 
L 4263 0 
L 3584 0 
L 2988 1197 
Q 2756 1666 2539 1819 
Q 2322 1972 1947 1972 
L 1259 1972 
L 1259 0 
L 628 0 
L 628 4666 
L 2053 4666 
Q 2853 4666 3247 4331 
Q 3641 3997 3641 3322 
Q 3641 2881 3436 2590 
Q 3231 2300 2841 2188 
z
M 1259 4147 
L 1259 2491 
L 2053 2491 
Q 2509 2491 2742 2702 
Q 2975 2913 2975 3322 
Q 2975 3731 2742 3939 
Q 2509 4147 2053 4147 
L 1259 4147 
z
" transform="scale(0.015625)"/>
      <path id="DejaVuSans-49" d="M 628 4666 
L 1259 4666 
L 1259 0 
L 628 0 
L 628 4666 
z
" transform="scale(0.015625)"/>
      <path id="DejaVuSans-4d" d="M 628 4666 
L 1569 4666 
L 2759 1491 
L 3956 4666 
L 4897 4666 
L 4897 0 
L 4281 0 
L 4281 4097 
L 3078 897 
L 2444 897 
L 1241 4097 
L 1241 0 
L 628 0 
L 628 4666 
z
" transform="scale(0.015625)"/>
      <path id="DejaVuSans-28" d="M 1984 4856 
Q 1566 4138 1362 3434 
Q 1159 2731 1159 2009 
Q 1159 1288 1364 580 
Q 1569 -128 1984 -844 
L 1484 -844 
Q 1016 -109 783 600 
Q 550 1309 550 2009 
Q 550 2706 781 3412 
Q 1013 4119 1484 4856 
L 1984 4856 
z
" transform="scale(0.015625)"/>
      <path id="DejaVuSans-2c" d="M 750 794 
L 1409 794 
L 1409 256 
L 897 -744 
L 494 -744 
L 750 256 
L 750 794 
z
" transform="scale(0.015625)"/>
      <path id="DejaVuSans-29" d="M 513 4856 
L 1013 4856 
Q 1481 4119 1714 3412 
Q 1947 2706 1947 2009 
Q 1947 1309 1714 600 
Q 1481 -109 1013 -844 
L 513 -844 
Q 928 -128 1133 580 
Q 1338 1288 1338 2009 
Q 1338 2731 1133 3434 
Q 928 4138 513 4856 
z
" transform="scale(0.015625)"/>
      <path id="DejaVuSans-78" d="M 3513 3500 
L 2247 1797 
L 3578 0 
L 2900 0 
L 1881 1375 
L 863 0 
L 184 0 
L 1544 1831 
L 300 3500 
L 978 3500 
L 1906 2253 
L 2834 3500 
L 3513 3500 
z
" transform="scale(0.015625)"/>
      <path id="DejaVuSans-3d" d="M 678 2906 
L 4684 2906 
L 4684 2381 
L 678 2381 
L 678 2906 
z
M 678 1631 
L 4684 1631 
L 4684 1100 
L 678 1100 
L 678 1631 
z
" transform="scale(0.015625)"/>
      <path id="DejaVuSans-2e" d="M 684 794 
L 1344 794 
L 1344 0 
L 684 0 
L 684 794 
z
" transform="scale(0.015625)"/>
      <path id="DejaVuSans-33" d="M 2597 2516 
Q 3050 2419 3304 2112 
Q 3559 1806 3559 1356 
Q 3559 666 3084 287 
Q 2609 -91 1734 -91 
Q 1441 -91 1130 -33 
Q 819 25 488 141 
L 488 750 
Q 750 597 1062 519 
Q 1375 441 1716 441 
Q 2309 441 2620 675 
Q 2931 909 2931 1356 
Q 2931 1769 2642 2001 
Q 2353 2234 1838 2234 
L 1294 2234 
L 1294 2753 
L 1863 2753 
Q 2328 2753 2575 2939 
Q 2822 3125 2822 3475 
Q 2822 3834 2567 4026 
Q 2313 4219 1838 4219 
Q 1578 4219 1281 4162 
Q 984 4106 628 3988 
L 628 4550 
Q 988 4650 1302 4700 
Q 1616 4750 1894 4750 
Q 2613 4750 3031 4423 
Q 3450 4097 3450 3541 
Q 3450 3153 3228 2886 
Q 3006 2619 2597 2516 
z
" transform="scale(0.015625)"/>
     </defs>
     <use xlink:href="#DejaVuSans-41"/>
     <use xlink:href="#DejaVuSans-52" x="68.408203"/>
     <use xlink:href="#DejaVuSans-49" x="137.890625"/>
     <use xlink:href="#DejaVuSans-4d" x="167.382812"/>
     <use xlink:href="#DejaVuSans-41" x="253.662109"/>
     <use xlink:href="#DejaVuSans-20" x="322.070312"/>
     <use xlink:href="#DejaVuSans-28" x="353.857422"/>
     <use xlink:href="#DejaVuSans-30" x="392.871094"/>
     <use xlink:href="#DejaVuSans-2c" x="456.494141"/>
     <use xlink:href="#DejaVuSans-20" x="488.28125"/>
     <use xlink:href="#DejaVuSans-31" x="520.068359"/>
     <use xlink:href="#DejaVuSans-2c" x="583.691406"/>
     <use xlink:href="#DejaVuSans-20" x="615.478516"/>
     <use xlink:href="#DejaVuSans-31" x="647.265625"/>
     <use xlink:href="#DejaVuSans-29" x="710.888672"/>
     <use xlink:href="#DejaVuSans-78" x="749.902344"/>
     <use xlink:href="#DejaVuSans-28" x="809.082031"/>
     <use xlink:href="#DejaVuSans-31" x="848.095703"/>
     <use xlink:href="#DejaVuSans-2c" x="911.71875"/>
     <use xlink:href="#DejaVuSans-20" x="943.505859"/>
     <use xlink:href="#DejaVuSans-30" x="975.292969"/>
     <use xlink:href="#DejaVuSans-2c" x="1038.916016"/>
     <use xlink:href="#DejaVuSans-20" x="1070.703125"/>
     <use xlink:href="#DejaVuSans-31" x="1102.490234"/>
     <use xlink:href="#DejaVuSans-2c" x="1166.113281"/>
     <use xlink:href="#DejaVuSans-20" x="1197.900391"/>
     <use xlink:href="#DejaVuSans-37" x="1229.6875"/>
     <use xlink:href="#DejaVuSans-29" x="1293.310547"/>
     <use xlink:href="#DejaVuSans-20" x="1332.324219"/>
     <use xlink:href="#DejaVuSans-28" x="1364.111328"/>
     <use xlink:href="#DejaVuSans-52" x="1403.125"/>
     <use xlink:href="#DejaVuSans-32" x="1472.607422"/>
     <use xlink:href="#DejaVuSans-20" x="1536.230469"/>
     <use xlink:href="#DejaVuSans-3d" x="1568.017578"/>
     <use xlink:href="#DejaVuSans-20" x="1651.806641"/>
     <use xlink:href="#DejaVuSans-30" x="1683.59375"/>
     <use xlink:href="#DejaVuSans-2e" x="1747.216797"/>
     <use xlink:href="#DejaVuSans-34" x="1779.003906"/>
     <use xlink:href="#DejaVuSans-33" x="1842.626953"/>
     <use xlink:href="#DejaVuSans-30" x="1906.25"/>
     <use xlink:href="#DejaVuSans-38" x="1969.873047"/>
     <use xlink:href="#DejaVuSans-33" x="2033.496094"/>
     <use xlink:href="#DejaVuSans-33" x="2097.119141"/>
     <use xlink:href="#DejaVuSans-29" x="2160.742188"/>
    </g>
   </g>
   <g id="legend_1">
    <g id="patch_7">
     <path d="M 1274.770313 87.789875 
L 1371.85 87.789875 
Q 1373.85 87.789875 1373.85 85.789875 
L 1373.85 42.7555 
Q 1373.85 40.7555 1371.85 40.7555 
L 1274.770313 40.7555 
Q 1272.770313 40.7555 1272.770313 42.7555 
L 1272.770313 85.789875 
Q 1272.770313 87.789875 1274.770313 87.789875 
z
" style="fill: #ffffff; opacity: 0.8; stroke: #cccccc; stroke-linejoin: miter"/>
    </g>
    <g id="line2d_20">
     <path d="M 1276.770313 48.853937 
L 1286.770313 48.853937 
L 1296.770313 48.853937 
" style="fill: none; stroke: #0000ff; stroke-width: 1.5; stroke-linecap: square"/>
    </g>
    <g id="text_18">
     <!-- Actual Value -->
     <g transform="translate(1304.770313 52.353937)scale(0.1 -0.1)">
      <defs>
       <path id="DejaVuSans-56" d="M 1831 0 
L 50 4666 
L 709 4666 
L 2188 738 
L 3669 4666 
L 4325 4666 
L 2547 0 
L 1831 0 
z
" transform="scale(0.015625)"/>
      </defs>
      <use xlink:href="#DejaVuSans-41"/>
      <use xlink:href="#DejaVuSans-63" x="66.658203"/>
      <use xlink:href="#DejaVuSans-74" x="121.638672"/>
      <use xlink:href="#DejaVuSans-75" x="160.847656"/>
      <use xlink:href="#DejaVuSans-61" x="224.226562"/>
      <use xlink:href="#DejaVuSans-6c" x="285.505859"/>
      <use xlink:href="#DejaVuSans-20" x="313.289062"/>
      <use xlink:href="#DejaVuSans-56" x="345.076172"/>
      <use xlink:href="#DejaVuSans-61" x="405.734375"/>
      <use xlink:href="#DejaVuSans-6c" x="467.013672"/>
      <use xlink:href="#DejaVuSans-75" x="494.796875"/>
      <use xlink:href="#DejaVuSans-65" x="558.175781"/>
     </g>
    </g>
    <g id="line2d_21">
     <path d="M 1276.770313 63.532062 
L 1286.770313 63.532062 
L 1296.770313 63.532062 
" style="fill: none; stroke: #ffa500; stroke-width: 1.5; stroke-linecap: square"/>
    </g>
    <g id="text_19">
     <!-- Check Value -->
     <g transform="translate(1304.770313 67.032062)scale(0.1 -0.1)">
      <use xlink:href="#DejaVuSans-43"/>
      <use xlink:href="#DejaVuSans-68" x="69.824219"/>
      <use xlink:href="#DejaVuSans-65" x="133.203125"/>
      <use xlink:href="#DejaVuSans-63" x="194.726562"/>
      <use xlink:href="#DejaVuSans-6b" x="249.707031"/>
      <use xlink:href="#DejaVuSans-20" x="307.617188"/>
      <use xlink:href="#DejaVuSans-56" x="339.404297"/>
      <use xlink:href="#DejaVuSans-61" x="400.0625"/>
      <use xlink:href="#DejaVuSans-6c" x="461.341797"/>
      <use xlink:href="#DejaVuSans-75" x="489.125"/>
      <use xlink:href="#DejaVuSans-65" x="552.503906"/>
     </g>
    </g>
    <g id="line2d_22">
     <path d="M 1276.770313 78.210187 
L 1286.770313 78.210187 
L 1296.770313 78.210187 
" style="fill: none; stroke: #ff0000; stroke-width: 1.5; stroke-linecap: square"/>
    </g>
    <g id="text_20">
     <!-- Predict Value -->
     <g transform="translate(1304.770313 81.710187)scale(0.1 -0.1)">
      <defs>
       <path id="DejaVuSans-50" d="M 1259 4147 
L 1259 2394 
L 2053 2394 
Q 2494 2394 2734 2622 
Q 2975 2850 2975 3272 
Q 2975 3691 2734 3919 
Q 2494 4147 2053 4147 
L 1259 4147 
z
M 628 4666 
L 2053 4666 
Q 2838 4666 3239 4311 
Q 3641 3956 3641 3272 
Q 3641 2581 3239 2228 
Q 2838 1875 2053 1875 
L 1259 1875 
L 1259 0 
L 628 0 
L 628 4666 
z
" transform="scale(0.015625)"/>
      </defs>
      <use xlink:href="#DejaVuSans-50"/>
      <use xlink:href="#DejaVuSans-72" x="58.552734"/>
      <use xlink:href="#DejaVuSans-65" x="97.416016"/>
      <use xlink:href="#DejaVuSans-64" x="158.939453"/>
      <use xlink:href="#DejaVuSans-69" x="222.416016"/>
      <use xlink:href="#DejaVuSans-63" x="250.199219"/>
      <use xlink:href="#DejaVuSans-74" x="305.179688"/>
      <use xlink:href="#DejaVuSans-20" x="344.388672"/>
      <use xlink:href="#DejaVuSans-56" x="376.175781"/>
      <use xlink:href="#DejaVuSans-61" x="436.833984"/>
      <use xlink:href="#DejaVuSans-6c" x="498.113281"/>
      <use xlink:href="#DejaVuSans-75" x="525.896484"/>
      <use xlink:href="#DejaVuSans-65" x="589.275391"/>
     </g>
    </g>
   </g>
  </g>
 </g>
 <defs>
  <clipPath id="p7f6cf2be4a">
   <rect x="39.65" y="35.7555" width="1339.2" height="332.64"/>
  </clipPath>
 </defs>
</svg>
