<?xml version="1.0" encoding="utf-8" standalone="no"?>
<!DOCTYPE svg PUBLIC "-//W3C//DTD SVG 1.1//EN"
  "http://www.w3.org/Graphics/SVG/1.1/DTD/svg11.dtd">
<svg xmlns:xlink="http://www.w3.org/1999/xlink" width="1392.4125pt" height="392.273625pt" viewBox="0 0 1392.4125 392.273625" xmlns="http://www.w3.org/2000/svg" version="1.1">
 <metadata>
  <rdf:RDF xmlns:dc="http://purl.org/dc/elements/1.1/" xmlns:cc="http://creativecommons.org/ns#" xmlns:rdf="http://www.w3.org/1999/02/22-rdf-syntax-ns#">
   <cc:Work>
    <dc:type rdf:resource="http://purl.org/dc/dcmitype/StillImage"/>
    <dc:date>2022-07-22T17:28:42.942038</dc:date>
    <dc:format>image/svg+xml</dc:format>
    <dc:creator>
     <cc:Agent>
      <dc:title>Matplotlib v3.5.2, https://matplotlib.org/</dc:title>
     </cc:Agent>
    </dc:creator>
   </cc:Work>
  </rdf:RDF>
 </metadata>
 <defs>
  <style type="text/css">*{stroke-linejoin: round; stroke-linecap: butt}</style>
 </defs>
 <g id="figure_1">
  <g id="patch_1">
   <path d="M 0 392.273625 
L 1392.4125 392.273625 
L 1392.4125 0 
L 0 0 
z
" style="fill: #ffffff"/>
  </g>
  <g id="axes_1">
   <g id="patch_2">
    <path d="M 46.0125 368.3955 
L 1385.2125 368.3955 
L 1385.2125 35.7555 
L 46.0125 35.7555 
z
" style="fill: #ffffff"/>
   </g>
   <g id="matplotlib.axis_1">
    <g id="xtick_1">
     <g id="line2d_1">
      <defs>
       <path id="mbd9ce83018" d="M 0 0 
L 0 3.5 
" style="stroke: #000000; stroke-width: 0.8"/>
      </defs>
      <g>
       <use xlink:href="#mbd9ce83018" x="77.866809" y="368.3955" style="stroke: #000000; stroke-width: 0.8"/>
      </g>
     </g>
     <g id="text_1">
      <!-- 2020-01 -->
      <g transform="translate(56.975403 382.993937)scale(0.1 -0.1)">
       <defs>
        <path id="DejaVuSans-32" d="M 1228 531 
L 3431 531 
L 3431 0 
L 469 0 
L 469 531 
Q 828 903 1448 1529 
Q 2069 2156 2228 2338 
Q 2531 2678 2651 2914 
Q 2772 3150 2772 3378 
Q 2772 3750 2511 3984 
Q 2250 4219 1831 4219 
Q 1534 4219 1204 4116 
Q 875 4013 500 3803 
L 500 4441 
Q 881 4594 1212 4672 
Q 1544 4750 1819 4750 
Q 2544 4750 2975 4387 
Q 3406 4025 3406 3419 
Q 3406 3131 3298 2873 
Q 3191 2616 2906 2266 
Q 2828 2175 2409 1742 
Q 1991 1309 1228 531 
z
" transform="scale(0.015625)"/>
        <path id="DejaVuSans-30" d="M 2034 4250 
Q 1547 4250 1301 3770 
Q 1056 3291 1056 2328 
Q 1056 1369 1301 889 
Q 1547 409 2034 409 
Q 2525 409 2770 889 
Q 3016 1369 3016 2328 
Q 3016 3291 2770 3770 
Q 2525 4250 2034 4250 
z
M 2034 4750 
Q 2819 4750 3233 4129 
Q 3647 3509 3647 2328 
Q 3647 1150 3233 529 
Q 2819 -91 2034 -91 
Q 1250 -91 836 529 
Q 422 1150 422 2328 
Q 422 3509 836 4129 
Q 1250 4750 2034 4750 
z
" transform="scale(0.015625)"/>
        <path id="DejaVuSans-2d" d="M 313 2009 
L 1997 2009 
L 1997 1497 
L 313 1497 
L 313 2009 
z
" transform="scale(0.015625)"/>
        <path id="DejaVuSans-31" d="M 794 531 
L 1825 531 
L 1825 4091 
L 703 3866 
L 703 4441 
L 1819 4666 
L 2450 4666 
L 2450 531 
L 3481 531 
L 3481 0 
L 794 0 
L 794 531 
z
" transform="scale(0.015625)"/>
       </defs>
       <use xlink:href="#DejaVuSans-32"/>
       <use xlink:href="#DejaVuSans-30" x="63.623047"/>
       <use xlink:href="#DejaVuSans-32" x="127.246094"/>
       <use xlink:href="#DejaVuSans-30" x="190.869141"/>
       <use xlink:href="#DejaVuSans-2d" x="254.492188"/>
       <use xlink:href="#DejaVuSans-30" x="290.576172"/>
       <use xlink:href="#DejaVuSans-31" x="354.199219"/>
      </g>
     </g>
    </g>
    <g id="xtick_2">
     <g id="line2d_2">
      <g>
       <use xlink:href="#mbd9ce83018" x="197.897539" y="368.3955" style="stroke: #000000; stroke-width: 0.8"/>
      </g>
     </g>
     <g id="text_2">
      <!-- 2020-04 -->
      <g transform="translate(177.006133 382.993937)scale(0.1 -0.1)">
       <defs>
        <path id="DejaVuSans-34" d="M 2419 4116 
L 825 1625 
L 2419 1625 
L 2419 4116 
z
M 2253 4666 
L 3047 4666 
L 3047 1625 
L 3713 1625 
L 3713 1100 
L 3047 1100 
L 3047 0 
L 2419 0 
L 2419 1100 
L 313 1100 
L 313 1709 
L 2253 4666 
z
" transform="scale(0.015625)"/>
       </defs>
       <use xlink:href="#DejaVuSans-32"/>
       <use xlink:href="#DejaVuSans-30" x="63.623047"/>
       <use xlink:href="#DejaVuSans-32" x="127.246094"/>
       <use xlink:href="#DejaVuSans-30" x="190.869141"/>
       <use xlink:href="#DejaVuSans-2d" x="254.492188"/>
       <use xlink:href="#DejaVuSans-30" x="290.576172"/>
       <use xlink:href="#DejaVuSans-34" x="354.199219"/>
      </g>
     </g>
    </g>
    <g id="xtick_3">
     <g id="line2d_3">
      <g>
       <use xlink:href="#mbd9ce83018" x="317.928269" y="368.3955" style="stroke: #000000; stroke-width: 0.8"/>
      </g>
     </g>
     <g id="text_3">
      <!-- 2020-07 -->
      <g transform="translate(297.036862 382.993937)scale(0.1 -0.1)">
       <defs>
        <path id="DejaVuSans-37" d="M 525 4666 
L 3525 4666 
L 3525 4397 
L 1831 0 
L 1172 0 
L 2766 4134 
L 525 4134 
L 525 4666 
z
" transform="scale(0.015625)"/>
       </defs>
       <use xlink:href="#DejaVuSans-32"/>
       <use xlink:href="#DejaVuSans-30" x="63.623047"/>
       <use xlink:href="#DejaVuSans-32" x="127.246094"/>
       <use xlink:href="#DejaVuSans-30" x="190.869141"/>
       <use xlink:href="#DejaVuSans-2d" x="254.492188"/>
       <use xlink:href="#DejaVuSans-30" x="290.576172"/>
       <use xlink:href="#DejaVuSans-37" x="354.199219"/>
      </g>
     </g>
    </g>
    <g id="xtick_4">
     <g id="line2d_4">
      <g>
       <use xlink:href="#mbd9ce83018" x="439.278018" y="368.3955" style="stroke: #000000; stroke-width: 0.8"/>
      </g>
     </g>
     <g id="text_4">
      <!-- 2020-10 -->
      <g transform="translate(418.386611 382.993937)scale(0.1 -0.1)">
       <use xlink:href="#DejaVuSans-32"/>
       <use xlink:href="#DejaVuSans-30" x="63.623047"/>
       <use xlink:href="#DejaVuSans-32" x="127.246094"/>
       <use xlink:href="#DejaVuSans-30" x="190.869141"/>
       <use xlink:href="#DejaVuSans-2d" x="254.492188"/>
       <use xlink:href="#DejaVuSans-31" x="290.576172"/>
       <use xlink:href="#DejaVuSans-30" x="354.199219"/>
      </g>
     </g>
    </g>
    <g id="xtick_5">
     <g id="line2d_5">
      <g>
       <use xlink:href="#mbd9ce83018" x="560.627766" y="368.3955" style="stroke: #000000; stroke-width: 0.8"/>
      </g>
     </g>
     <g id="text_5">
      <!-- 2021-01 -->
      <g transform="translate(539.73636 382.993937)scale(0.1 -0.1)">
       <use xlink:href="#DejaVuSans-32"/>
       <use xlink:href="#DejaVuSans-30" x="63.623047"/>
       <use xlink:href="#DejaVuSans-32" x="127.246094"/>
       <use xlink:href="#DejaVuSans-31" x="190.869141"/>
       <use xlink:href="#DejaVuSans-2d" x="254.492188"/>
       <use xlink:href="#DejaVuSans-30" x="290.576172"/>
       <use xlink:href="#DejaVuSans-31" x="354.199219"/>
      </g>
     </g>
    </g>
    <g id="xtick_6">
     <g id="line2d_6">
      <g>
       <use xlink:href="#mbd9ce83018" x="679.339477" y="368.3955" style="stroke: #000000; stroke-width: 0.8"/>
      </g>
     </g>
     <g id="text_6">
      <!-- 2021-04 -->
      <g transform="translate(658.448071 382.993937)scale(0.1 -0.1)">
       <use xlink:href="#DejaVuSans-32"/>
       <use xlink:href="#DejaVuSans-30" x="63.623047"/>
       <use xlink:href="#DejaVuSans-32" x="127.246094"/>
       <use xlink:href="#DejaVuSans-31" x="190.869141"/>
       <use xlink:href="#DejaVuSans-2d" x="254.492188"/>
       <use xlink:href="#DejaVuSans-30" x="290.576172"/>
       <use xlink:href="#DejaVuSans-34" x="354.199219"/>
      </g>
     </g>
    </g>
    <g id="xtick_7">
     <g id="line2d_7">
      <g>
       <use xlink:href="#mbd9ce83018" x="799.370207" y="368.3955" style="stroke: #000000; stroke-width: 0.8"/>
      </g>
     </g>
     <g id="text_7">
      <!-- 2021-07 -->
      <g transform="translate(778.478801 382.993937)scale(0.1 -0.1)">
       <use xlink:href="#DejaVuSans-32"/>
       <use xlink:href="#DejaVuSans-30" x="63.623047"/>
       <use xlink:href="#DejaVuSans-32" x="127.246094"/>
       <use xlink:href="#DejaVuSans-31" x="190.869141"/>
       <use xlink:href="#DejaVuSans-2d" x="254.492188"/>
       <use xlink:href="#DejaVuSans-30" x="290.576172"/>
       <use xlink:href="#DejaVuSans-37" x="354.199219"/>
      </g>
     </g>
    </g>
    <g id="xtick_8">
     <g id="line2d_8">
      <g>
       <use xlink:href="#mbd9ce83018" x="920.719956" y="368.3955" style="stroke: #000000; stroke-width: 0.8"/>
      </g>
     </g>
     <g id="text_8">
      <!-- 2021-10 -->
      <g transform="translate(899.82855 382.993937)scale(0.1 -0.1)">
       <use xlink:href="#DejaVuSans-32"/>
       <use xlink:href="#DejaVuSans-30" x="63.623047"/>
       <use xlink:href="#DejaVuSans-32" x="127.246094"/>
       <use xlink:href="#DejaVuSans-31" x="190.869141"/>
       <use xlink:href="#DejaVuSans-2d" x="254.492188"/>
       <use xlink:href="#DejaVuSans-31" x="290.576172"/>
       <use xlink:href="#DejaVuSans-30" x="354.199219"/>
      </g>
     </g>
    </g>
    <g id="xtick_9">
     <g id="line2d_9">
      <g>
       <use xlink:href="#mbd9ce83018" x="1042.069705" y="368.3955" style="stroke: #000000; stroke-width: 0.8"/>
      </g>
     </g>
     <g id="text_9">
      <!-- 2022-01 -->
      <g transform="translate(1021.178299 382.993937)scale(0.1 -0.1)">
       <use xlink:href="#DejaVuSans-32"/>
       <use xlink:href="#DejaVuSans-30" x="63.623047"/>
       <use xlink:href="#DejaVuSans-32" x="127.246094"/>
       <use xlink:href="#DejaVuSans-32" x="190.869141"/>
       <use xlink:href="#DejaVuSans-2d" x="254.492188"/>
       <use xlink:href="#DejaVuSans-30" x="290.576172"/>
       <use xlink:href="#DejaVuSans-31" x="354.199219"/>
      </g>
     </g>
    </g>
    <g id="xtick_10">
     <g id="line2d_10">
      <g>
       <use xlink:href="#mbd9ce83018" x="1160.781416" y="368.3955" style="stroke: #000000; stroke-width: 0.8"/>
      </g>
     </g>
     <g id="text_10">
      <!-- 2022-04 -->
      <g transform="translate(1139.890009 382.993937)scale(0.1 -0.1)">
       <use xlink:href="#DejaVuSans-32"/>
       <use xlink:href="#DejaVuSans-30" x="63.623047"/>
       <use xlink:href="#DejaVuSans-32" x="127.246094"/>
       <use xlink:href="#DejaVuSans-32" x="190.869141"/>
       <use xlink:href="#DejaVuSans-2d" x="254.492188"/>
       <use xlink:href="#DejaVuSans-30" x="290.576172"/>
       <use xlink:href="#DejaVuSans-34" x="354.199219"/>
      </g>
     </g>
    </g>
    <g id="xtick_11">
     <g id="line2d_11">
      <g>
       <use xlink:href="#mbd9ce83018" x="1280.812145" y="368.3955" style="stroke: #000000; stroke-width: 0.8"/>
      </g>
     </g>
     <g id="text_11">
      <!-- 2022-07 -->
      <g transform="translate(1259.920739 382.993937)scale(0.1 -0.1)">
       <use xlink:href="#DejaVuSans-32"/>
       <use xlink:href="#DejaVuSans-30" x="63.623047"/>
       <use xlink:href="#DejaVuSans-32" x="127.246094"/>
       <use xlink:href="#DejaVuSans-32" x="190.869141"/>
       <use xlink:href="#DejaVuSans-2d" x="254.492188"/>
       <use xlink:href="#DejaVuSans-30" x="290.576172"/>
       <use xlink:href="#DejaVuSans-37" x="354.199219"/>
      </g>
     </g>
    </g>
   </g>
   <g id="matplotlib.axis_2">
    <g id="ytick_1">
     <g id="line2d_12">
      <defs>
       <path id="m1beb40fb33" d="M 0 0 
L -3.5 0 
" style="stroke: #000000; stroke-width: 0.8"/>
      </defs>
      <g>
       <use xlink:href="#m1beb40fb33" x="46.0125" y="336.444718" style="stroke: #000000; stroke-width: 0.8"/>
      </g>
     </g>
     <g id="text_12">
      <!-- 0 -->
      <g transform="translate(32.65 340.243937)scale(0.1 -0.1)">
       <use xlink:href="#DejaVuSans-30"/>
      </g>
     </g>
    </g>
    <g id="ytick_2">
     <g id="line2d_13">
      <g>
       <use xlink:href="#m1beb40fb33" x="46.0125" y="280.561424" style="stroke: #000000; stroke-width: 0.8"/>
      </g>
     </g>
     <g id="text_13">
      <!-- 10000 -->
      <g transform="translate(7.2 284.360643)scale(0.1 -0.1)">
       <use xlink:href="#DejaVuSans-31"/>
       <use xlink:href="#DejaVuSans-30" x="63.623047"/>
       <use xlink:href="#DejaVuSans-30" x="127.246094"/>
       <use xlink:href="#DejaVuSans-30" x="190.869141"/>
       <use xlink:href="#DejaVuSans-30" x="254.492188"/>
      </g>
     </g>
    </g>
    <g id="ytick_3">
     <g id="line2d_14">
      <g>
       <use xlink:href="#m1beb40fb33" x="46.0125" y="224.678131" style="stroke: #000000; stroke-width: 0.8"/>
      </g>
     </g>
     <g id="text_14">
      <!-- 20000 -->
      <g transform="translate(7.2 228.47735)scale(0.1 -0.1)">
       <use xlink:href="#DejaVuSans-32"/>
       <use xlink:href="#DejaVuSans-30" x="63.623047"/>
       <use xlink:href="#DejaVuSans-30" x="127.246094"/>
       <use xlink:href="#DejaVuSans-30" x="190.869141"/>
       <use xlink:href="#DejaVuSans-30" x="254.492188"/>
      </g>
     </g>
    </g>
    <g id="ytick_4">
     <g id="line2d_15">
      <g>
       <use xlink:href="#m1beb40fb33" x="46.0125" y="168.794838" style="stroke: #000000; stroke-width: 0.8"/>
      </g>
     </g>
     <g id="text_15">
      <!-- 30000 -->
      <g transform="translate(7.2 172.594056)scale(0.1 -0.1)">
       <defs>
        <path id="DejaVuSans-33" d="M 2597 2516 
Q 3050 2419 3304 2112 
Q 3559 1806 3559 1356 
Q 3559 666 3084 287 
Q 2609 -91 1734 -91 
Q 1441 -91 1130 -33 
Q 819 25 488 141 
L 488 750 
Q 750 597 1062 519 
Q 1375 441 1716 441 
Q 2309 441 2620 675 
Q 2931 909 2931 1356 
Q 2931 1769 2642 2001 
Q 2353 2234 1838 2234 
L 1294 2234 
L 1294 2753 
L 1863 2753 
Q 2328 2753 2575 2939 
Q 2822 3125 2822 3475 
Q 2822 3834 2567 4026 
Q 2313 4219 1838 4219 
Q 1578 4219 1281 4162 
Q 984 4106 628 3988 
L 628 4550 
Q 988 4650 1302 4700 
Q 1616 4750 1894 4750 
Q 2613 4750 3031 4423 
Q 3450 4097 3450 3541 
Q 3450 3153 3228 2886 
Q 3006 2619 2597 2516 
z
" transform="scale(0.015625)"/>
       </defs>
       <use xlink:href="#DejaVuSans-33"/>
       <use xlink:href="#DejaVuSans-30" x="63.623047"/>
       <use xlink:href="#DejaVuSans-30" x="127.246094"/>
       <use xlink:href="#DejaVuSans-30" x="190.869141"/>
       <use xlink:href="#DejaVuSans-30" x="254.492188"/>
      </g>
     </g>
    </g>
    <g id="ytick_5">
     <g id="line2d_16">
      <g>
       <use xlink:href="#m1beb40fb33" x="46.0125" y="112.911544" style="stroke: #000000; stroke-width: 0.8"/>
      </g>
     </g>
     <g id="text_16">
      <!-- 40000 -->
      <g transform="translate(7.2 116.710763)scale(0.1 -0.1)">
       <use xlink:href="#DejaVuSans-34"/>
       <use xlink:href="#DejaVuSans-30" x="63.623047"/>
       <use xlink:href="#DejaVuSans-30" x="127.246094"/>
       <use xlink:href="#DejaVuSans-30" x="190.869141"/>
       <use xlink:href="#DejaVuSans-30" x="254.492188"/>
      </g>
     </g>
    </g>
    <g id="ytick_6">
     <g id="line2d_17">
      <g>
       <use xlink:href="#m1beb40fb33" x="46.0125" y="57.028251" style="stroke: #000000; stroke-width: 0.8"/>
      </g>
     </g>
     <g id="text_17">
      <!-- 50000 -->
      <g transform="translate(7.2 60.827469)scale(0.1 -0.1)">
       <defs>
        <path id="DejaVuSans-35" d="M 691 4666 
L 3169 4666 
L 3169 4134 
L 1269 4134 
L 1269 2991 
Q 1406 3038 1543 3061 
Q 1681 3084 1819 3084 
Q 2600 3084 3056 2656 
Q 3513 2228 3513 1497 
Q 3513 744 3044 326 
Q 2575 -91 1722 -91 
Q 1428 -91 1123 -41 
Q 819 9 494 109 
L 494 744 
Q 775 591 1075 516 
Q 1375 441 1709 441 
Q 2250 441 2565 725 
Q 2881 1009 2881 1497 
Q 2881 1984 2565 2268 
Q 2250 2553 1709 2553 
Q 1456 2553 1204 2497 
Q 953 2441 691 2322 
L 691 4666 
z
" transform="scale(0.015625)"/>
       </defs>
       <use xlink:href="#DejaVuSans-35"/>
       <use xlink:href="#DejaVuSans-30" x="63.623047"/>
       <use xlink:href="#DejaVuSans-30" x="127.246094"/>
       <use xlink:href="#DejaVuSans-30" x="190.869141"/>
       <use xlink:href="#DejaVuSans-30" x="254.492188"/>
      </g>
     </g>
    </g>
   </g>
   <g id="line2d_18">
    <path d="M 106.885227 336.444718 
L 171.517159 336.360893 
L 174.155197 336.30501 
L 176.793235 336.30501 
L 179.431273 336.260303 
L 183.38833 335.824413 
L 186.026368 335.729412 
L 187.345387 335.388524 
L 188.664406 335.46676 
L 189.983425 334.527921 
L 191.302444 334.723512 
L 192.621463 334.639687 
L 193.940482 335.0644 
L 195.259501 334.662041 
L 199.216558 334.287623 
L 200.535577 333.957911 
L 201.854596 334.254093 
L 203.173615 334.293211 
L 204.492634 335.142637 
L 205.811653 335.069989 
L 207.130672 335.181755 
L 208.449691 333.387902 
L 209.76871 334.706747 
L 211.087729 334.321153 
L 212.406748 334.131149 
L 213.725767 334.270858 
L 215.044786 335.025282 
L 217.682824 334.237328 
L 219.001843 334.365859 
L 220.320862 334.248504 
L 221.639881 334.824102 
L 222.9589 334.309976 
L 224.277919 334.427331 
L 225.596938 334.108796 
L 226.915957 334.282034 
L 228.234976 330.979332 
L 230.873014 333.801438 
L 232.192033 333.99703 
L 234.830071 333.974676 
L 236.14909 333.505257 
L 237.468109 333.600258 
L 238.787128 334.03056 
L 240.106147 334.153503 
L 241.425166 334.863221 
L 242.744185 333.935558 
L 244.063204 333.846145 
L 245.382223 333.438197 
L 246.701242 333.890851 
L 248.020261 333.382313 
L 249.33928 334.611746 
L 250.658299 335.461172 
L 251.977318 334.891162 
L 255.934375 334.242916 
L 257.253394 334.203798 
L 258.572413 334.740277 
L 259.891432 334.969399 
L 262.52947 334.684394 
L 263.848489 334.242916 
L 265.167508 334.790572 
L 266.486527 333.779085 
L 267.805546 335.271169 
L 269.124565 335.913827 
L 270.443584 334.790572 
L 271.762603 335.315875 
L 274.400641 333.700848 
L 275.71966 333.72879 
L 277.038679 334.879986 
L 278.357698 335.33264 
L 279.676717 335.26558 
L 280.995736 334.924692 
L 282.314755 334.768219 
L 283.633775 335.019694 
L 284.952794 335.142637 
L 286.271813 335.589703 
L 287.590832 335.427642 
L 290.22887 335.595292 
L 291.547889 335.617645 
L 294.185927 335.354994 
L 295.504946 335.813237 
L 296.823965 335.50029 
L 298.142984 335.645587 
L 299.462003 335.16499 
L 300.781022 335.159402 
L 302.100041 334.846456 
L 303.41906 335.544997 
L 304.738079 335.377347 
L 306.057098 335.517055 
L 307.376117 335.394112 
L 310.014155 334.634099 
L 311.333174 334.673217 
L 312.652193 335.181755 
L 313.971212 334.852044 
L 315.290231 335.304699 
L 316.60925 335.304699 
L 317.928269 334.689982 
L 319.247288 334.639687 
L 320.566307 334.991752 
L 321.885326 335.025282 
L 323.204345 335.33264 
L 324.523364 335.371759 
L 325.842383 334.170268 
L 327.161402 333.918793 
L 328.480421 334.159091 
L 329.79944 332.722891 
L 331.118459 334.209386 
L 332.437478 334.645276 
L 333.756497 334.639687 
L 335.075516 333.92997 
L 336.394535 333.823791 
L 337.713554 333.253782 
L 339.032573 332.99113 
L 340.351592 333.9635 
L 341.670611 334.466449 
L 344.308649 333.689671 
L 345.627668 332.873775 
L 346.946687 333.007895 
L 348.265706 332.717302 
L 349.584725 331.923759 
L 350.903744 333.387902 
L 352.222763 335.16499 
L 353.541782 332.259059 
L 354.860801 333.751143 
L 356.17982 334.164679 
L 357.498839 333.063779 
L 358.817858 333.885263 
L 360.136877 333.874086 
L 361.455896 335.09793 
L 364.093934 333.12525 
L 365.412953 333.941146 
L 366.731972 333.890851 
L 368.050991 334.036148 
L 369.37001 334.567039 
L 372.008048 334.192621 
L 373.327067 334.684394 
L 374.646086 333.857321 
L 375.965105 334.662041 
L 377.284124 334.768219 
L 378.603143 334.555863 
L 379.922162 335.360582 
L 381.241181 334.986164 
L 382.5602 334.935869 
L 383.879219 334.606157 
L 385.198238 336.444718 
L 386.517257 332.795539 
L 387.836276 334.991752 
L 389.155295 335.338229 
L 390.474314 333.879675 
L 391.793333 335.36617 
L 393.112352 334.488803 
L 394.431371 334.041736 
L 395.75039 334.952634 
L 397.069409 335.422054 
L 398.388428 335.321464 
L 399.707447 334.483214 
L 401.026466 335.081165 
L 402.345485 334.947046 
L 403.664504 336.444718 
L 404.983523 332.538476 
L 406.302542 334.852044 
L 407.621561 335.254404 
L 408.94058 335.3997 
L 410.259599 335.103519 
L 412.897637 334.729101 
L 414.216656 334.131149 
L 415.535675 334.114385 
L 416.854694 334.354683 
L 418.173713 334.142326 
L 419.492732 333.164369 
L 420.811751 333.879675 
L 422.13077 333.063779 
L 423.449789 333.05819 
L 424.768808 333.644965 
L 426.087827 333.415843 
L 427.406846 332.78995 
L 428.725866 333.002307 
L 430.044885 333.382313 
L 431.363904 332.482592 
L 432.682923 333.181134 
L 434.001942 333.264958 
L 435.320961 334.147914 
L 436.63998 333.454962 
L 437.958999 333.589082 
L 439.278018 332.633477 
L 440.597037 332.644654 
L 441.916056 332.773185 
L 443.235075 333.533198 
L 444.554094 333.868498 
L 445.873113 332.78995 
L 447.192132 332.359649 
L 448.511151 331.62199 
L 449.83017 331.784051 
L 451.149189 330.727857 
L 452.468208 331.867876 
L 453.787227 333.22584 
L 455.106246 330.588149 
L 456.425265 332.577594 
L 457.744284 330.068434 
L 459.063303 329.11283 
L 460.382322 330.079611 
L 461.701341 331.230807 
L 464.339379 329.694016 
L 465.658398 329.364305 
L 466.977417 328.771942 
L 468.296436 328.900473 
L 469.615455 326.229252 
L 470.934474 327.00603 
L 472.253493 324.088922 
L 473.572512 328.436642 
L 474.891531 328.201932 
L 476.21055 326.352195 
L 477.529569 322.965667 
L 478.848588 320.104443 
L 480.167607 322.138595 
L 481.486626 323.943625 
L 482.805645 322.127418 
L 484.124664 320.08209 
L 485.443683 317.617636 
L 486.762702 317.092333 
L 488.081721 316.896742 
L 489.40074 319.584728 
L 490.719759 316.589384 
L 492.038778 314.706117 
L 493.357797 314.231109 
L 495.995835 300.461465 
L 497.314854 307.407759 
L 498.633873 313.068736 
L 499.952892 312.437255 
L 501.271911 312.241663 
L 502.59093 310.458986 
L 503.909949 302.316791 
L 505.228968 304.227999 
L 506.547987 302.283261 
L 507.867006 314.532878 
L 509.186025 315.829371 
L 510.505044 313.253151 
L 511.824063 313.02403 
L 513.143082 302.61856 
L 514.462101 312.582552 
L 515.78112 312.247252 
L 517.100139 316.947037 
L 518.419158 313.348153 
L 519.738177 311.828127 
L 521.057196 314.86259 
L 522.376215 302.707974 
L 523.695234 308.430423 
L 525.014253 307.80453 
L 526.333272 318.372061 
L 527.652291 313.884632 
L 528.97131 314.253462 
L 530.290329 315.449364 
L 531.609348 310.464575 
L 532.928367 310.302513 
L 534.247386 314.309345 
L 535.566405 322.144183 
L 536.885424 320.177091 
L 538.204443 323.714504 
L 539.523462 317.813228 
L 540.842481 315.779076 
L 542.1615 315.807018 
L 543.480519 322.524189 
L 544.799538 323.636267 
L 546.118557 324.452163 
L 547.437576 322.384481 
L 548.756595 319.970323 
L 550.075614 319.51208 
L 551.394633 321.58535 
L 552.713652 328.453407 
L 554.032671 328.626645 
L 555.35169 327.223974 
L 556.670709 326.721025 
L 557.989728 322.747723 
L 559.308747 318.349707 
L 560.627766 319.322077 
L 561.946785 325.206588 
L 563.265804 324.832169 
L 564.584823 324.234218 
L 565.903842 317.120275 
L 567.222861 322.15536 
L 568.54188 317.03645 
L 569.860899 318.634712 
L 571.179918 320.590627 
L 572.498938 324.144805 
L 573.817957 327.07309 
L 575.136976 328.000752 
L 576.455995 322.820371 
L 577.775014 323.015962 
L 579.094033 323.697739 
L 580.413052 325.128351 
L 581.732071 328.0734 
L 583.05109 329.794606 
L 584.370109 327.028383 
L 585.689128 328.783118 
L 587.008147 325.363061 
L 588.327166 326.396902 
L 589.646185 325.502769 
L 590.965204 329.073711 
L 593.603242 330.185789 
L 594.922261 327.078678 
L 596.24128 328.391935 
L 597.560299 326.821615 
L 598.879318 327.726924 
L 600.198337 329.928726 
L 601.517356 331.325808 
L 602.836375 331.214042 
L 604.155394 329.571073 
L 606.793432 325.810127 
L 609.43147 330.442852 
L 610.750489 331.158158 
L 612.069508 331.225218 
L 613.388527 332.247883 
L 614.707546 326.821615 
L 616.026565 324.759521 
L 617.345584 329.688428 
L 618.664603 331.677873 
L 619.983622 333.466138 
L 621.302641 332.711714 
L 622.62166 330.090787 
L 623.940679 329.509601 
L 625.259698 329.291656 
L 626.578717 330.202554 
L 627.897736 331.962878 
L 629.216755 332.644654 
L 630.535774 330.319909 
L 631.854793 329.917549 
L 633.173812 330.191377 
L 634.492831 327.944869 
L 635.81185 329.38107 
L 637.130869 331.744933 
L 638.449888 327.861044 
L 639.768907 332.108174 
L 643.725964 327.318976 
L 645.044983 330.252849 
L 647.683021 333.231428 
L 649.00204 331.761698 
L 650.321059 329.515189 
L 651.640078 331.107863 
L 652.959097 329.230185 
L 654.278116 329.504013 
L 655.597135 329.654898 
L 656.916154 334.086443 
L 658.235173 334.645276 
L 659.554192 332.946424 
L 660.873211 329.504013 
L 662.19223 326.486315 
L 663.511249 328.252227 
L 664.830268 331.962878 
L 666.149287 334.745866 
L 667.468306 328.788707 
L 668.787325 329.649309 
L 670.106344 328.771942 
L 671.425363 328.570762 
L 672.744382 329.207831 
L 674.063401 331.096687 
L 675.38242 331.934936 
L 676.701439 331.096687 
L 678.020458 326.592493 
L 679.339477 327.481038 
L 680.658496 327.251916 
L 681.977515 327.665452 
L 684.615553 331.599636 
L 685.934572 329.369893 
L 687.253591 325.748655 
L 688.57261 325.910717 
L 689.891629 325.625712 
L 691.210648 328.319287 
L 692.529667 329.543131 
L 693.848686 331.348161 
L 695.167705 325.804539 
L 696.486724 323.446264 
L 697.805743 328.0734 
L 699.124762 323.815094 
L 700.443781 328.34164 
L 701.7628 329.397835 
L 703.081819 332.102586 
L 704.400838 325.474827 
L 705.719857 328.10693 
L 707.038876 323.250672 
L 708.357895 325.961012 
L 709.676914 325.73189 
L 710.995933 327.687806 
L 712.314952 330.789329 
L 713.633971 325.189823 
L 714.95299 330.090787 
L 716.27201 320.858867 
L 717.591029 326.542198 
L 718.910048 326.173369 
L 720.229067 331.074333 
L 721.548086 331.102275 
L 722.867105 327.956046 
L 724.186124 327.441919 
L 725.505143 327.710159 
L 726.824162 328.60988 
L 728.143181 327.693394 
L 729.4622 331.264337 
L 730.781219 331.5214 
L 732.100238 329.269303 
L 733.419257 329.666074 
L 734.738276 326.128662 
L 736.057295 327.698982 
L 737.376314 331.012862 
L 738.695333 332.92407 
L 741.333371 332.365237 
L 742.65239 329.487248 
L 743.971409 331.124628 
L 745.290428 331.906994 
L 746.609447 331.744933 
L 747.928466 334.03056 
L 749.247485 333.890851 
L 750.566504 328.604292 
L 751.885523 331.800816 
L 753.204542 331.795228 
L 754.523561 331.962878 
L 755.84258 332.650242 
L 758.480618 334.852044 
L 759.799637 334.170268 
L 761.118656 333.22584 
L 762.437675 331.72258 
L 763.756694 332.158469 
L 765.075713 332.359649 
L 766.394732 334.354683 
L 767.713751 334.673217 
L 769.03277 333.09172 
L 770.351789 332.549652 
L 771.670808 333.114074 
L 772.989827 331.247572 
L 774.308846 333.069367 
L 775.627865 333.801438 
L 776.946884 335.120284 
L 778.265903 334.259681 
L 780.903941 333.410255 
L 783.541979 334.231739 
L 784.860998 334.924692 
L 786.180017 335.204109 
L 787.499036 334.304388 
L 788.818055 333.6282 
L 790.137074 333.136427 
L 791.456093 334.198209 
L 792.775112 333.253782 
L 794.094131 335.142637 
L 795.41315 335.16499 
L 798.051188 333.9635 
L 799.370207 333.482903 
L 802.008245 333.918793 
L 803.327264 334.980576 
L 804.646283 335.494702 
L 805.965302 335.23205 
L 807.284321 333.66173 
L 808.60334 333.980265 
L 809.922359 330.565795 
L 811.241378 333.712025 
L 812.560397 334.421743 
L 813.879416 334.639687 
L 815.198435 333.337607 
L 816.517454 333.52761 
L 817.836473 333.52761 
L 819.155492 333.047014 
L 823.112549 334.315564 
L 824.431568 333.399078 
L 825.750587 332.963189 
L 827.069606 332.203176 
L 828.388625 332.577594 
L 829.707644 336.444718 
L 831.026663 336.444718 
L 832.345682 326.396902 
L 833.664701 331.577283 
L 834.98372 331.437575 
L 836.302739 330.560207 
L 837.621758 329.878431 
L 838.940777 336.444718 
L 840.259796 336.444718 
L 841.578815 324.133628 
L 842.897834 330.906683 
L 844.216853 330.353439 
L 845.535872 329.492836 
L 846.854891 330.398145 
L 848.17391 336.444718 
L 849.492929 336.444718 
L 850.811948 320.965046 
L 852.130967 331.471105 
L 853.449986 329.682839 
L 854.769005 327.123385 
L 856.088024 329.202243 
L 857.407043 336.444718 
L 858.726062 336.444718 
L 860.045082 320.540333 
L 861.364101 329.794606 
L 862.68312 325.139528 
L 864.002139 326.966911 
L 865.321158 327.173679 
L 866.640177 336.444718 
L 867.959196 336.444718 
L 869.278215 312.269605 
L 870.597234 329.459306 
L 871.916253 326.832791 
L 873.235272 326.324253 
L 874.554291 324.820993 
L 875.87331 336.444718 
L 877.192329 336.444718 
L 878.511348 316.309967 
L 879.830367 324.440986 
L 881.149386 324.183923 
L 882.468405 324.172747 
L 883.787424 324.843346 
L 885.106443 336.444718 
L 886.425462 336.444718 
L 887.744481 308.1063 
L 889.0635 326.139839 
L 890.382519 327.838691 
L 891.701538 325.826892 
L 893.020557 324.211865 
L 894.339576 336.444718 
L 895.658595 336.444718 
L 896.977614 305.753613 
L 898.296633 325.379826 
L 899.615652 324.938348 
L 900.934671 324.22863 
L 902.25369 325.061291 
L 903.572709 336.444718 
L 904.891728 336.444718 
L 906.210747 309.492205 
L 907.529766 326.50308 
L 908.848785 327.469861 
L 910.167804 324.955113 
L 911.486823 325.391002 
L 912.805842 336.444718 
L 914.124861 336.444718 
L 915.44388 310.822228 
L 916.762899 325.843657 
L 918.081918 327.548098 
L 919.400937 323.004786 
L 920.719956 324.407456 
L 922.038975 336.444718 
L 923.357994 336.444718 
L 924.677013 307.731882 
L 925.996032 323.731269 
L 927.315051 326.145427 
L 928.63407 320.903574 
L 929.953089 320.177091 
L 931.272108 336.444718 
L 932.591127 336.444718 
L 933.910146 303.562988 
L 935.229165 325.268059 
L 936.548184 322.691839 
L 937.867203 318.679419 
L 939.186222 320.657687 
L 940.505241 336.30501 
L 941.82426 336.444718 
L 943.143279 306.809807 
L 944.462298 325.363061 
L 945.781317 323.8598 
L 947.100336 317.461163 
L 948.419355 320.540333 
L 949.738374 336.444718 
L 951.057393 336.444718 
L 952.376412 297.963482 
L 953.695431 322.742134 
L 955.01445 317.528223 
L 956.333469 315.080535 
L 957.652488 318.031173 
L 958.971507 336.444718 
L 960.290526 336.444718 
L 961.609545 295.124611 
L 962.928564 323.055081 
L 964.247583 321.093577 
L 965.566602 313.258739 
L 966.885621 317.958524 
L 968.20464 336.455895 
L 969.523659 336.444718 
L 970.842678 290.659536 
L 972.161697 322.948902 
L 973.480716 314.449054 
L 974.799735 314.583173 
L 976.118754 319.394725 
L 977.437773 336.444718 
L 978.756792 336.444718 
L 980.075811 294.699898 
L 981.39483 319.299723 
L 982.713849 314.571997 
L 984.032868 310.704873 
L 985.351887 315.678486 
L 986.670906 336.444718 
L 987.989925 336.444718 
L 989.308944 296.884934 
L 990.627963 321.607703 
L 991.946982 320.193856 
L 993.266001 319.372372 
L 994.58502 328.464584 
L 995.904039 336.444718 
L 997.223058 336.444718 
L 998.542077 308.748958 
L 999.861096 321.792118 
L 1001.180115 318.629124 
L 1002.499134 319.048249 
L 1003.818154 320.523568 
L 1005.137173 336.444718 
L 1006.456192 336.444718 
L 1007.775211 307.027752 
L 1009.09423 319.450608 
L 1010.413249 323.161259 
L 1011.732268 322.384481 
L 1013.051287 323.597149 
L 1014.370306 336.444718 
L 1015.689325 336.444718 
L 1017.008344 312.426078 
L 1018.327363 327.380448 
L 1019.646382 325.625712 
L 1020.965401 324.714815 
L 1022.28442 322.820371 
L 1023.603439 336.416776 
L 1024.922458 336.444718 
L 1026.241477 314.370817 
L 1027.560496 317.712638 
L 1028.879515 315.639368 
L 1030.198534 316.265261 
L 1031.517553 307.765412 
L 1032.836572 336.444718 
L 1034.155591 336.444718 
L 1035.47461 279.70641 
L 1036.793629 300.791177 
L 1038.112648 295.398439 
L 1039.431667 286.239167 
L 1040.750686 279.650527 
L 1042.069705 336.444718 
L 1043.388724 336.444718 
L 1044.707743 195.484698 
L 1046.026762 290.184528 
L 1047.345781 287.558013 
L 1048.6648 292.229856 
L 1049.983819 280.717898 
L 1051.302838 336.444718 
L 1052.621857 336.444718 
L 1053.940876 50.8755 
L 1055.259895 213.177349 
L 1056.578914 266.32795 
L 1057.897933 256.09013 
L 1059.216952 257.068088 
L 1060.535971 336.321775 
L 1061.85499 336.444718 
L 1063.174009 169.046312 
L 1064.493028 263.433195 
L 1065.812047 282.623518 
L 1067.131066 250.283856 
L 1068.450085 257.800159 
L 1069.769104 336.416776 
L 1071.088123 336.444718 
L 1072.407142 212.355865 
L 1073.726161 292.526038 
L 1075.04518 297.538769 
L 1076.364199 278.409918 
L 1077.683218 296.862581 
L 1079.002237 336.444718 
L 1080.321256 336.444718 
L 1081.640275 265.579113 
L 1082.959294 316.80174 
L 1084.278313 311.872834 
L 1085.597332 305.770378 
L 1086.916351 315.795841 
L 1088.23537 336.444718 
L 1089.554389 336.444718 
L 1090.873408 298.220545 
L 1092.192427 320.350329 
L 1093.511446 319.338842 
L 1094.830465 319.299723 
L 1096.149484 321.842413 
L 1097.468503 336.444718 
L 1098.787522 336.444718 
L 1100.106541 311.330766 
L 1101.42556 324.804228 
L 1102.744579 324.413045 
L 1104.063598 324.49687 
L 1105.382617 324.468928 
L 1106.701636 336.444718 
L 1108.020655 336.444718 
L 1109.339674 314.024341 
L 1110.658693 330.5155 
L 1111.977712 327.128973 
L 1113.296731 328.470172 
L 1114.61575 329.274891 
L 1115.934769 336.444718 
L 1117.253788 336.444718 
L 1118.572807 321.255639 
L 1119.891826 331.42081 
L 1121.210845 330.58256 
L 1122.529864 332.404356 
L 1123.848883 330.873153 
L 1125.167902 336.444718 
L 1126.486921 336.444718 
L 1127.80594 318.578829 
L 1129.124959 331.649931 
L 1130.443978 330.101964 
L 1131.762997 329.531954 
L 1133.082016 329.800194 
L 1134.401035 336.444718 
L 1135.720054 336.444718 
L 1137.039073 329.023416 
L 1138.358092 329.21342 
L 1139.677111 327.168091 
L 1140.99613 328.028694 
L 1142.315149 336.444718 
L 1144.953187 336.444718 
L 1146.272206 329.716369 
L 1147.591225 315.650544 
L 1148.910245 329.001063 
L 1150.229264 329.610191 
L 1151.548283 323.619502 
L 1152.867302 336.444718 
L 1154.186321 336.444718 
L 1155.50534 327.07309 
L 1156.824359 328.94518 
L 1158.143378 328.319287 
L 1159.462397 327.911339 
L 1160.781416 328.313699 
L 1162.100435 336.444718 
L 1163.419454 336.444718 
L 1164.738473 327.296623 
L 1166.057492 330.129906 
L 1167.376511 328.57635 
L 1168.69553 328.704882 
L 1170.014549 323.921272 
L 1171.333568 336.444718 
L 1172.652587 336.444718 
L 1173.971606 319.998265 
L 1175.290625 330.191377 
L 1176.609644 327.190444 
L 1177.928663 326.385725 
L 1179.247682 326.212487 
L 1180.566701 336.444718 
L 1181.88572 336.444718 
L 1183.204739 320.579451 
L 1184.523758 327.816337 
L 1185.842777 325.787774 
L 1187.161796 325.133939 
L 1188.480815 325.296001 
L 1189.799834 336.444718 
L 1191.118853 336.444718 
L 1192.437872 319.886498 
L 1193.756891 330.057257 
L 1195.07591 329.481659 
L 1196.394929 329.744311 
L 1197.713948 331.230807 
L 1199.032967 336.444718 
L 1200.351986 336.444718 
L 1201.671005 324.401868 
L 1202.990024 330.58256 
L 1204.309043 331.309043 
L 1205.628062 327.754866 
L 1206.947081 330.157847 
L 1208.2661 336.444718 
L 1209.585119 336.444718 
L 1210.904138 319.34443 
L 1212.223157 329.090476 
L 1213.542176 330.828447 
L 1214.861195 278.784336 
L 1216.180214 325.944247 
L 1217.499233 336.444718 
L 1218.818252 336.444718 
L 1220.137271 313.236386 
L 1221.45629 329.006651 
L 1222.775309 325.821304 
L 1224.094328 326.145427 
L 1225.413347 323.770387 
L 1226.732366 336.444718 
L 1228.051385 336.444718 
L 1229.370404 315.829371 
L 1230.689423 326.609258 
L 1232.008442 325.558652 
L 1233.327461 265.99265 
L 1234.64648 322.099476 
L 1235.965499 336.444718 
L 1238.603537 336.444718 
L 1239.922556 300.623527 
L 1241.241575 329.4146 
L 1242.560594 322.937726 
L 1243.879613 317.869111 
L 1245.198632 336.444718 
L 1246.517651 336.444718 
L 1247.83667 301.540013 
L 1249.155689 322.127418 
L 1250.474708 319.439432 
L 1251.793727 258.593702 
L 1253.112746 315.807018 
L 1254.431765 336.444718 
L 1255.750784 336.444718 
L 1257.069803 306.094501 
L 1258.388822 324.614225 
L 1259.707841 325.066879 
L 1261.02686 322.440365 
L 1262.345879 323.027139 
L 1263.664898 336.444718 
L 1264.983917 336.444718 
L 1266.302936 318.763244 
L 1267.621955 320.255328 
L 1268.940974 324.46334 
L 1270.259993 263.567315 
L 1271.579012 322.909784 
L 1272.898031 336.444718 
L 1274.21705 336.444718 
L 1275.536069 300.54529 
L 1276.855088 326.564552 
L 1278.174107 322.507424 
L 1279.493126 321.898297 
L 1280.812145 323.887742 
L 1282.131164 336.444718 
L 1283.450183 336.444718 
L 1284.769202 307.441289 
L 1286.088221 330.889918 
L 1287.40724 324.223042 
L 1288.726259 305.686553 
L 1291.364297 336.444718 
L 1292.683317 336.444718 
L 1294.002336 309.369262 
L 1295.321355 324.005097 
L 1296.640374 325.581006 
L 1297.959393 323.630679 
L 1299.278412 336.444718 
L 1300.597431 323.267437 
L 1301.91645 336.444718 
L 1303.235469 311.81695 
L 1304.554488 325.055703 
L 1305.873507 326.413667 
L 1307.192526 296.963171 
L 1307.192526 296.963171 
" clip-path="url(#p81e7c4a56b)" style="fill: none; stroke: #0000ff; stroke-width: 1.5; stroke-linecap: square"/>
   </g>
   <g id="line2d_19">
    <path d="M 1067.131066 272.515965 
L 1068.450085 329.387163 
L 1069.769104 327.251247 
L 1071.088123 182.856863 
L 1072.407142 276.698609 
L 1073.726161 299.323146 
L 1075.04518 280.563044 
L 1076.364199 286.59574 
L 1077.683218 351.292537 
L 1079.002237 342.764909 
L 1080.321256 237.533714 
L 1081.640275 314.12301 
L 1082.959294 316.782937 
L 1084.278313 302.551074 
L 1085.597332 317.564374 
L 1086.916351 353.2755 
L 1088.23537 346.378072 
L 1089.554389 278.523509 
L 1090.873408 331.247369 
L 1092.192427 320.122406 
L 1093.511446 317.706332 
L 1094.830465 325.566458 
L 1096.149484 344.733973 
L 1097.468503 341.386118 
L 1098.787522 302.867577 
L 1100.106541 329.20969 
L 1101.42556 323.926295 
L 1102.744579 324.82826 
L 1104.063598 327.383253 
L 1105.382617 339.843721 
L 1106.701636 338.508056 
L 1108.020655 314.505757 
L 1109.339674 327.300294 
L 1110.658693 327.804117 
L 1111.977712 326.684028 
L 1113.296731 328.864271 
L 1114.61575 338.764223 
L 1115.934769 338.105393 
L 1117.253788 319.115496 
L 1118.572807 332.760932 
L 1119.891826 329.403729 
L 1121.210845 331.205453 
L 1122.529864 331.94115 
L 1123.848883 338.144972 
L 1125.167902 337.731556 
L 1126.486921 324.065277 
L 1127.80594 330.717125 
L 1129.124959 330.740507 
L 1130.443978 330.641295 
L 1131.762997 329.720169 
L 1133.082016 334.557572 
L 1134.401035 335.267185 
L 1135.720054 321.665482 
L 1137.039073 334.661168 
L 1138.358092 330.317987 
L 1139.677111 331.205136 
L 1140.99613 329.36475 
L 1142.315149 337.402197 
L 1143.634168 335.010891 
L 1144.953187 329.672229 
L 1146.272206 331.620255 
L 1147.591225 323.948184 
L 1148.910245 328.938977 
L 1150.229264 330.662039 
L 1151.548283 329.78641 
L 1152.867302 333.537181 
L 1154.186321 327.171212 
L 1155.50534 319.603023 
L 1156.824359 331.466836 
L 1158.143378 329.467978 
L 1159.462397 328.372819 
L 1160.781416 335.897467 
L 1162.100435 336.084614 
L 1163.419454 328.909543 
L 1164.738473 327.710898 
L 1166.057492 330.504231 
L 1167.376511 328.821017 
L 1168.69553 329.184183 
L 1170.014549 333.381703 
L 1171.333568 335.586963 
L 1172.652587 327.31657 
L 1173.971606 326.392099 
L 1175.290625 328.580497 
L 1176.609644 326.271425 
L 1177.928663 324.205495 
L 1179.247682 333.640865 
L 1180.566701 334.783972 
L 1181.88572 323.681662 
L 1183.204739 329.161363 
L 1185.842777 325.952989 
L 1187.161796 324.87207 
L 1188.480815 333.014813 
L 1189.799834 334.295869 
L 1191.118853 322.524717 
L 1192.437872 327.541313 
L 1193.756891 327.731175 
L 1195.07591 327.069288 
L 1196.394929 328.214507 
L 1197.713948 337.788917 
L 1199.032967 337.357625 
L 1200.351986 324.982444 
L 1201.671005 332.057676 
L 1202.990024 330.681587 
L 1204.309043 331.050216 
L 1205.628062 330.282883 
L 1206.947081 335.965382 
L 1208.2661 335.552975 
L 1209.585119 325.776944 
L 1210.904138 328.398149 
L 1212.223157 330.281981 
L 1213.542176 327.096709 
L 1214.861195 309.003964 
L 1216.180214 328.867591 
L 1217.499233 320.658476 
L 1218.818252 316.477978 
L 1220.137271 320.1387 
L 1221.45629 329.843187 
L 1222.775309 293.493536 
L 1224.094328 337.751128 
L 1225.413347 333.123031 
L 1226.732366 343.022447 
L 1228.051385 320.127528 
L 1229.370404 331.748708 
L 1230.689423 326.413949 
L 1232.008442 319.731517 
L 1233.327461 302.075082 
L 1234.64648 328.31705 
L 1235.965499 318.71601 
L 1237.284518 312.236511 
L 1238.603537 328.800356 
L 1239.922556 317.133887 
L 1241.241575 292.946078 
L 1242.560594 332.676681 
L 1243.879613 334.920432 
L 1245.198632 342.402498 
L 1246.517651 334.59479 
L 1247.83667 302.737307 
L 1249.155689 330.976446 
L 1250.474708 305.559501 
L 1251.793727 296.66762 
L 1253.112746 323.291427 
L 1254.431765 318.284548 
L 1255.750784 304.324592 
L 1257.069803 311.818073 
L 1258.388822 324.027778 
L 1259.707841 282.410137 
L 1261.02686 336.103421 
L 1262.345879 339.621204 
L 1263.664898 347.989054 
L 1264.983917 317.837376 
L 1266.302936 333.249128 
L 1268.940974 317.356438 
L 1270.259993 301.655722 
L 1271.579012 330.848312 
L 1272.898031 319.652768 
L 1274.21705 314.024108 
L 1275.536069 309.700168 
L 1276.855088 326.240748 
L 1278.174107 279.64281 
L 1279.493126 338.012338 
L 1280.812145 334.911239 
L 1282.131164 346.209307 
L 1283.450183 313.627884 
L 1284.769202 330.196353 
L 1286.088221 326.655958 
L 1287.40724 315.930205 
L 1288.726259 322.051246 
L 1290.045278 332.549555 
L 1291.364297 332.73865 
L 1292.683317 310.021504 
L 1294.002336 327.667466 
L 1295.321355 322.758047 
L 1296.640374 311.32375 
L 1299.278412 340.556889 
L 1300.597431 333.976366 
L 1301.91645 318.377666 
L 1303.235469 325.003858 
L 1304.554488 326.365995 
L 1305.873507 320.665185 
L 1307.192526 321.832502 
L 1307.192526 321.832502 
" clip-path="url(#p81e7c4a56b)" style="fill: none; stroke: #ffa500; stroke-width: 1.5; stroke-linecap: square"/>
   </g>
   <g id="line2d_20">
    <path d="M 1307.192526 321.832502 
L 1308.511545 320.233838 
L 1309.830564 323.954648 
L 1311.149583 304.430556 
L 1312.468602 314.848048 
L 1313.787621 316.377218 
L 1315.10664 297.568494 
L 1316.425659 314.652578 
L 1317.744678 312.500253 
L 1319.063697 316.559132 
L 1320.382716 300.435543 
L 1321.701735 309.109098 
L 1323.020754 310.207843 
L 1324.339773 294.63968 
" clip-path="url(#p81e7c4a56b)" style="fill: none; stroke: #ff0000; stroke-width: 1.5; stroke-linecap: square"/>
   </g>
   <g id="patch_3">
    <path d="M 46.0125 368.3955 
L 46.0125 35.7555 
" style="fill: none; stroke: #000000; stroke-width: 0.8; stroke-linejoin: miter; stroke-linecap: square"/>
   </g>
   <g id="patch_4">
    <path d="M 1385.2125 368.3955 
L 1385.2125 35.7555 
" style="fill: none; stroke: #000000; stroke-width: 0.8; stroke-linejoin: miter; stroke-linecap: square"/>
   </g>
   <g id="patch_5">
    <path d="M 46.0125 368.3955 
L 1385.2125 368.3955 
" style="fill: none; stroke: #000000; stroke-width: 0.8; stroke-linejoin: miter; stroke-linecap: square"/>
   </g>
   <g id="patch_6">
    <path d="M 46.0125 35.7555 
L 1385.2125 35.7555 
" style="fill: none; stroke: #000000; stroke-width: 0.8; stroke-linejoin: miter; stroke-linecap: square"/>
   </g>
   <g id="text_18">
    <!-- Daily Confirmed Cases Forecasting - Colorado -->
    <g transform="translate(578.289375 16.318125)scale(0.12 -0.12)">
     <defs>
      <path id="DejaVuSans-44" d="M 1259 4147 
L 1259 519 
L 2022 519 
Q 2988 519 3436 956 
Q 3884 1394 3884 2338 
Q 3884 3275 3436 3711 
Q 2988 4147 2022 4147 
L 1259 4147 
z
M 628 4666 
L 1925 4666 
Q 3281 4666 3915 4102 
Q 4550 3538 4550 2338 
Q 4550 1131 3912 565 
Q 3275 0 1925 0 
L 628 0 
L 628 4666 
z
" transform="scale(0.015625)"/>
      <path id="DejaVuSans-61" d="M 2194 1759 
Q 1497 1759 1228 1600 
Q 959 1441 959 1056 
Q 959 750 1161 570 
Q 1363 391 1709 391 
Q 2188 391 2477 730 
Q 2766 1069 2766 1631 
L 2766 1759 
L 2194 1759 
z
M 3341 1997 
L 3341 0 
L 2766 0 
L 2766 531 
Q 2569 213 2275 61 
Q 1981 -91 1556 -91 
Q 1019 -91 701 211 
Q 384 513 384 1019 
Q 384 1609 779 1909 
Q 1175 2209 1959 2209 
L 2766 2209 
L 2766 2266 
Q 2766 2663 2505 2880 
Q 2244 3097 1772 3097 
Q 1472 3097 1187 3025 
Q 903 2953 641 2809 
L 641 3341 
Q 956 3463 1253 3523 
Q 1550 3584 1831 3584 
Q 2591 3584 2966 3190 
Q 3341 2797 3341 1997 
z
" transform="scale(0.015625)"/>
      <path id="DejaVuSans-69" d="M 603 3500 
L 1178 3500 
L 1178 0 
L 603 0 
L 603 3500 
z
M 603 4863 
L 1178 4863 
L 1178 4134 
L 603 4134 
L 603 4863 
z
" transform="scale(0.015625)"/>
      <path id="DejaVuSans-6c" d="M 603 4863 
L 1178 4863 
L 1178 0 
L 603 0 
L 603 4863 
z
" transform="scale(0.015625)"/>
      <path id="DejaVuSans-79" d="M 2059 -325 
Q 1816 -950 1584 -1140 
Q 1353 -1331 966 -1331 
L 506 -1331 
L 506 -850 
L 844 -850 
Q 1081 -850 1212 -737 
Q 1344 -625 1503 -206 
L 1606 56 
L 191 3500 
L 800 3500 
L 1894 763 
L 2988 3500 
L 3597 3500 
L 2059 -325 
z
" transform="scale(0.015625)"/>
      <path id="DejaVuSans-20" transform="scale(0.015625)"/>
      <path id="DejaVuSans-43" d="M 4122 4306 
L 4122 3641 
Q 3803 3938 3442 4084 
Q 3081 4231 2675 4231 
Q 1875 4231 1450 3742 
Q 1025 3253 1025 2328 
Q 1025 1406 1450 917 
Q 1875 428 2675 428 
Q 3081 428 3442 575 
Q 3803 722 4122 1019 
L 4122 359 
Q 3791 134 3420 21 
Q 3050 -91 2638 -91 
Q 1578 -91 968 557 
Q 359 1206 359 2328 
Q 359 3453 968 4101 
Q 1578 4750 2638 4750 
Q 3056 4750 3426 4639 
Q 3797 4528 4122 4306 
z
" transform="scale(0.015625)"/>
      <path id="DejaVuSans-6f" d="M 1959 3097 
Q 1497 3097 1228 2736 
Q 959 2375 959 1747 
Q 959 1119 1226 758 
Q 1494 397 1959 397 
Q 2419 397 2687 759 
Q 2956 1122 2956 1747 
Q 2956 2369 2687 2733 
Q 2419 3097 1959 3097 
z
M 1959 3584 
Q 2709 3584 3137 3096 
Q 3566 2609 3566 1747 
Q 3566 888 3137 398 
Q 2709 -91 1959 -91 
Q 1206 -91 779 398 
Q 353 888 353 1747 
Q 353 2609 779 3096 
Q 1206 3584 1959 3584 
z
" transform="scale(0.015625)"/>
      <path id="DejaVuSans-6e" d="M 3513 2113 
L 3513 0 
L 2938 0 
L 2938 2094 
Q 2938 2591 2744 2837 
Q 2550 3084 2163 3084 
Q 1697 3084 1428 2787 
Q 1159 2491 1159 1978 
L 1159 0 
L 581 0 
L 581 3500 
L 1159 3500 
L 1159 2956 
Q 1366 3272 1645 3428 
Q 1925 3584 2291 3584 
Q 2894 3584 3203 3211 
Q 3513 2838 3513 2113 
z
" transform="scale(0.015625)"/>
      <path id="DejaVuSans-66" d="M 2375 4863 
L 2375 4384 
L 1825 4384 
Q 1516 4384 1395 4259 
Q 1275 4134 1275 3809 
L 1275 3500 
L 2222 3500 
L 2222 3053 
L 1275 3053 
L 1275 0 
L 697 0 
L 697 3053 
L 147 3053 
L 147 3500 
L 697 3500 
L 697 3744 
Q 697 4328 969 4595 
Q 1241 4863 1831 4863 
L 2375 4863 
z
" transform="scale(0.015625)"/>
      <path id="DejaVuSans-72" d="M 2631 2963 
Q 2534 3019 2420 3045 
Q 2306 3072 2169 3072 
Q 1681 3072 1420 2755 
Q 1159 2438 1159 1844 
L 1159 0 
L 581 0 
L 581 3500 
L 1159 3500 
L 1159 2956 
Q 1341 3275 1631 3429 
Q 1922 3584 2338 3584 
Q 2397 3584 2469 3576 
Q 2541 3569 2628 3553 
L 2631 2963 
z
" transform="scale(0.015625)"/>
      <path id="DejaVuSans-6d" d="M 3328 2828 
Q 3544 3216 3844 3400 
Q 4144 3584 4550 3584 
Q 5097 3584 5394 3201 
Q 5691 2819 5691 2113 
L 5691 0 
L 5113 0 
L 5113 2094 
Q 5113 2597 4934 2840 
Q 4756 3084 4391 3084 
Q 3944 3084 3684 2787 
Q 3425 2491 3425 1978 
L 3425 0 
L 2847 0 
L 2847 2094 
Q 2847 2600 2669 2842 
Q 2491 3084 2119 3084 
Q 1678 3084 1418 2786 
Q 1159 2488 1159 1978 
L 1159 0 
L 581 0 
L 581 3500 
L 1159 3500 
L 1159 2956 
Q 1356 3278 1631 3431 
Q 1906 3584 2284 3584 
Q 2666 3584 2933 3390 
Q 3200 3197 3328 2828 
z
" transform="scale(0.015625)"/>
      <path id="DejaVuSans-65" d="M 3597 1894 
L 3597 1613 
L 953 1613 
Q 991 1019 1311 708 
Q 1631 397 2203 397 
Q 2534 397 2845 478 
Q 3156 559 3463 722 
L 3463 178 
Q 3153 47 2828 -22 
Q 2503 -91 2169 -91 
Q 1331 -91 842 396 
Q 353 884 353 1716 
Q 353 2575 817 3079 
Q 1281 3584 2069 3584 
Q 2775 3584 3186 3129 
Q 3597 2675 3597 1894 
z
M 3022 2063 
Q 3016 2534 2758 2815 
Q 2500 3097 2075 3097 
Q 1594 3097 1305 2825 
Q 1016 2553 972 2059 
L 3022 2063 
z
" transform="scale(0.015625)"/>
      <path id="DejaVuSans-64" d="M 2906 2969 
L 2906 4863 
L 3481 4863 
L 3481 0 
L 2906 0 
L 2906 525 
Q 2725 213 2448 61 
Q 2172 -91 1784 -91 
Q 1150 -91 751 415 
Q 353 922 353 1747 
Q 353 2572 751 3078 
Q 1150 3584 1784 3584 
Q 2172 3584 2448 3432 
Q 2725 3281 2906 2969 
z
M 947 1747 
Q 947 1113 1208 752 
Q 1469 391 1925 391 
Q 2381 391 2643 752 
Q 2906 1113 2906 1747 
Q 2906 2381 2643 2742 
Q 2381 3103 1925 3103 
Q 1469 3103 1208 2742 
Q 947 2381 947 1747 
z
" transform="scale(0.015625)"/>
      <path id="DejaVuSans-73" d="M 2834 3397 
L 2834 2853 
Q 2591 2978 2328 3040 
Q 2066 3103 1784 3103 
Q 1356 3103 1142 2972 
Q 928 2841 928 2578 
Q 928 2378 1081 2264 
Q 1234 2150 1697 2047 
L 1894 2003 
Q 2506 1872 2764 1633 
Q 3022 1394 3022 966 
Q 3022 478 2636 193 
Q 2250 -91 1575 -91 
Q 1294 -91 989 -36 
Q 684 19 347 128 
L 347 722 
Q 666 556 975 473 
Q 1284 391 1588 391 
Q 1994 391 2212 530 
Q 2431 669 2431 922 
Q 2431 1156 2273 1281 
Q 2116 1406 1581 1522 
L 1381 1569 
Q 847 1681 609 1914 
Q 372 2147 372 2553 
Q 372 3047 722 3315 
Q 1072 3584 1716 3584 
Q 2034 3584 2315 3537 
Q 2597 3491 2834 3397 
z
" transform="scale(0.015625)"/>
      <path id="DejaVuSans-46" d="M 628 4666 
L 3309 4666 
L 3309 4134 
L 1259 4134 
L 1259 2759 
L 3109 2759 
L 3109 2228 
L 1259 2228 
L 1259 0 
L 628 0 
L 628 4666 
z
" transform="scale(0.015625)"/>
      <path id="DejaVuSans-63" d="M 3122 3366 
L 3122 2828 
Q 2878 2963 2633 3030 
Q 2388 3097 2138 3097 
Q 1578 3097 1268 2742 
Q 959 2388 959 1747 
Q 959 1106 1268 751 
Q 1578 397 2138 397 
Q 2388 397 2633 464 
Q 2878 531 3122 666 
L 3122 134 
Q 2881 22 2623 -34 
Q 2366 -91 2075 -91 
Q 1284 -91 818 406 
Q 353 903 353 1747 
Q 353 2603 823 3093 
Q 1294 3584 2113 3584 
Q 2378 3584 2631 3529 
Q 2884 3475 3122 3366 
z
" transform="scale(0.015625)"/>
      <path id="DejaVuSans-74" d="M 1172 4494 
L 1172 3500 
L 2356 3500 
L 2356 3053 
L 1172 3053 
L 1172 1153 
Q 1172 725 1289 603 
Q 1406 481 1766 481 
L 2356 481 
L 2356 0 
L 1766 0 
Q 1100 0 847 248 
Q 594 497 594 1153 
L 594 3053 
L 172 3053 
L 172 3500 
L 594 3500 
L 594 4494 
L 1172 4494 
z
" transform="scale(0.015625)"/>
      <path id="DejaVuSans-67" d="M 2906 1791 
Q 2906 2416 2648 2759 
Q 2391 3103 1925 3103 
Q 1463 3103 1205 2759 
Q 947 2416 947 1791 
Q 947 1169 1205 825 
Q 1463 481 1925 481 
Q 2391 481 2648 825 
Q 2906 1169 2906 1791 
z
M 3481 434 
Q 3481 -459 3084 -895 
Q 2688 -1331 1869 -1331 
Q 1566 -1331 1297 -1286 
Q 1028 -1241 775 -1147 
L 775 -588 
Q 1028 -725 1275 -790 
Q 1522 -856 1778 -856 
Q 2344 -856 2625 -561 
Q 2906 -266 2906 331 
L 2906 616 
Q 2728 306 2450 153 
Q 2172 0 1784 0 
Q 1141 0 747 490 
Q 353 981 353 1791 
Q 353 2603 747 3093 
Q 1141 3584 1784 3584 
Q 2172 3584 2450 3431 
Q 2728 3278 2906 2969 
L 2906 3500 
L 3481 3500 
L 3481 434 
z
" transform="scale(0.015625)"/>
     </defs>
     <use xlink:href="#DejaVuSans-44"/>
     <use xlink:href="#DejaVuSans-61" x="77.001953"/>
     <use xlink:href="#DejaVuSans-69" x="138.28125"/>
     <use xlink:href="#DejaVuSans-6c" x="166.064453"/>
     <use xlink:href="#DejaVuSans-79" x="193.847656"/>
     <use xlink:href="#DejaVuSans-20" x="253.027344"/>
     <use xlink:href="#DejaVuSans-43" x="284.814453"/>
     <use xlink:href="#DejaVuSans-6f" x="354.638672"/>
     <use xlink:href="#DejaVuSans-6e" x="415.820312"/>
     <use xlink:href="#DejaVuSans-66" x="479.199219"/>
     <use xlink:href="#DejaVuSans-69" x="514.404297"/>
     <use xlink:href="#DejaVuSans-72" x="542.1875"/>
     <use xlink:href="#DejaVuSans-6d" x="581.550781"/>
     <use xlink:href="#DejaVuSans-65" x="678.962891"/>
     <use xlink:href="#DejaVuSans-64" x="740.486328"/>
     <use xlink:href="#DejaVuSans-20" x="803.962891"/>
     <use xlink:href="#DejaVuSans-43" x="835.75"/>
     <use xlink:href="#DejaVuSans-61" x="905.574219"/>
     <use xlink:href="#DejaVuSans-73" x="966.853516"/>
     <use xlink:href="#DejaVuSans-65" x="1018.953125"/>
     <use xlink:href="#DejaVuSans-73" x="1080.476562"/>
     <use xlink:href="#DejaVuSans-20" x="1132.576172"/>
     <use xlink:href="#DejaVuSans-46" x="1164.363281"/>
     <use xlink:href="#DejaVuSans-6f" x="1218.257812"/>
     <use xlink:href="#DejaVuSans-72" x="1279.439453"/>
     <use xlink:href="#DejaVuSans-65" x="1318.302734"/>
     <use xlink:href="#DejaVuSans-63" x="1379.826172"/>
     <use xlink:href="#DejaVuSans-61" x="1434.806641"/>
     <use xlink:href="#DejaVuSans-73" x="1496.085938"/>
     <use xlink:href="#DejaVuSans-74" x="1548.185547"/>
     <use xlink:href="#DejaVuSans-69" x="1587.394531"/>
     <use xlink:href="#DejaVuSans-6e" x="1615.177734"/>
     <use xlink:href="#DejaVuSans-67" x="1678.556641"/>
     <use xlink:href="#DejaVuSans-20" x="1742.033203"/>
     <use xlink:href="#DejaVuSans-2d" x="1773.820312"/>
     <use xlink:href="#DejaVuSans-20" x="1809.904297"/>
     <use xlink:href="#DejaVuSans-43" x="1841.691406"/>
     <use xlink:href="#DejaVuSans-6f" x="1911.515625"/>
     <use xlink:href="#DejaVuSans-6c" x="1972.697266"/>
     <use xlink:href="#DejaVuSans-6f" x="2000.480469"/>
     <use xlink:href="#DejaVuSans-72" x="2061.662109"/>
     <use xlink:href="#DejaVuSans-61" x="2102.775391"/>
     <use xlink:href="#DejaVuSans-64" x="2164.054688"/>
     <use xlink:href="#DejaVuSans-6f" x="2227.53125"/>
    </g>
    <!-- ARIMA (4, 1, 0)x(1, 0, 1, 7) (R2 = -0.420887) -->
    <g transform="translate(581.46375 29.7555)scale(0.12 -0.12)">
     <defs>
      <path id="DejaVuSans-41" d="M 2188 4044 
L 1331 1722 
L 3047 1722 
L 2188 4044 
z
M 1831 4666 
L 2547 4666 
L 4325 0 
L 3669 0 
L 3244 1197 
L 1141 1197 
L 716 0 
L 50 0 
L 1831 4666 
z
" transform="scale(0.015625)"/>
      <path id="DejaVuSans-52" d="M 2841 2188 
Q 3044 2119 3236 1894 
Q 3428 1669 3622 1275 
L 4263 0 
L 3584 0 
L 2988 1197 
Q 2756 1666 2539 1819 
Q 2322 1972 1947 1972 
L 1259 1972 
L 1259 0 
L 628 0 
L 628 4666 
L 2053 4666 
Q 2853 4666 3247 4331 
Q 3641 3997 3641 3322 
Q 3641 2881 3436 2590 
Q 3231 2300 2841 2188 
z
M 1259 4147 
L 1259 2491 
L 2053 2491 
Q 2509 2491 2742 2702 
Q 2975 2913 2975 3322 
Q 2975 3731 2742 3939 
Q 2509 4147 2053 4147 
L 1259 4147 
z
" transform="scale(0.015625)"/>
      <path id="DejaVuSans-49" d="M 628 4666 
L 1259 4666 
L 1259 0 
L 628 0 
L 628 4666 
z
" transform="scale(0.015625)"/>
      <path id="DejaVuSans-4d" d="M 628 4666 
L 1569 4666 
L 2759 1491 
L 3956 4666 
L 4897 4666 
L 4897 0 
L 4281 0 
L 4281 4097 
L 3078 897 
L 2444 897 
L 1241 4097 
L 1241 0 
L 628 0 
L 628 4666 
z
" transform="scale(0.015625)"/>
      <path id="DejaVuSans-28" d="M 1984 4856 
Q 1566 4138 1362 3434 
Q 1159 2731 1159 2009 
Q 1159 1288 1364 580 
Q 1569 -128 1984 -844 
L 1484 -844 
Q 1016 -109 783 600 
Q 550 1309 550 2009 
Q 550 2706 781 3412 
Q 1013 4119 1484 4856 
L 1984 4856 
z
" transform="scale(0.015625)"/>
      <path id="DejaVuSans-2c" d="M 750 794 
L 1409 794 
L 1409 256 
L 897 -744 
L 494 -744 
L 750 256 
L 750 794 
z
" transform="scale(0.015625)"/>
      <path id="DejaVuSans-29" d="M 513 4856 
L 1013 4856 
Q 1481 4119 1714 3412 
Q 1947 2706 1947 2009 
Q 1947 1309 1714 600 
Q 1481 -109 1013 -844 
L 513 -844 
Q 928 -128 1133 580 
Q 1338 1288 1338 2009 
Q 1338 2731 1133 3434 
Q 928 4138 513 4856 
z
" transform="scale(0.015625)"/>
      <path id="DejaVuSans-78" d="M 3513 3500 
L 2247 1797 
L 3578 0 
L 2900 0 
L 1881 1375 
L 863 0 
L 184 0 
L 1544 1831 
L 300 3500 
L 978 3500 
L 1906 2253 
L 2834 3500 
L 3513 3500 
z
" transform="scale(0.015625)"/>
      <path id="DejaVuSans-3d" d="M 678 2906 
L 4684 2906 
L 4684 2381 
L 678 2381 
L 678 2906 
z
M 678 1631 
L 4684 1631 
L 4684 1100 
L 678 1100 
L 678 1631 
z
" transform="scale(0.015625)"/>
      <path id="DejaVuSans-2e" d="M 684 794 
L 1344 794 
L 1344 0 
L 684 0 
L 684 794 
z
" transform="scale(0.015625)"/>
      <path id="DejaVuSans-38" d="M 2034 2216 
Q 1584 2216 1326 1975 
Q 1069 1734 1069 1313 
Q 1069 891 1326 650 
Q 1584 409 2034 409 
Q 2484 409 2743 651 
Q 3003 894 3003 1313 
Q 3003 1734 2745 1975 
Q 2488 2216 2034 2216 
z
M 1403 2484 
Q 997 2584 770 2862 
Q 544 3141 544 3541 
Q 544 4100 942 4425 
Q 1341 4750 2034 4750 
Q 2731 4750 3128 4425 
Q 3525 4100 3525 3541 
Q 3525 3141 3298 2862 
Q 3072 2584 2669 2484 
Q 3125 2378 3379 2068 
Q 3634 1759 3634 1313 
Q 3634 634 3220 271 
Q 2806 -91 2034 -91 
Q 1263 -91 848 271 
Q 434 634 434 1313 
Q 434 1759 690 2068 
Q 947 2378 1403 2484 
z
M 1172 3481 
Q 1172 3119 1398 2916 
Q 1625 2713 2034 2713 
Q 2441 2713 2670 2916 
Q 2900 3119 2900 3481 
Q 2900 3844 2670 4047 
Q 2441 4250 2034 4250 
Q 1625 4250 1398 4047 
Q 1172 3844 1172 3481 
z
" transform="scale(0.015625)"/>
     </defs>
     <use xlink:href="#DejaVuSans-41"/>
     <use xlink:href="#DejaVuSans-52" x="68.408203"/>
     <use xlink:href="#DejaVuSans-49" x="137.890625"/>
     <use xlink:href="#DejaVuSans-4d" x="167.382812"/>
     <use xlink:href="#DejaVuSans-41" x="253.662109"/>
     <use xlink:href="#DejaVuSans-20" x="322.070312"/>
     <use xlink:href="#DejaVuSans-28" x="353.857422"/>
     <use xlink:href="#DejaVuSans-34" x="392.871094"/>
     <use xlink:href="#DejaVuSans-2c" x="456.494141"/>
     <use xlink:href="#DejaVuSans-20" x="488.28125"/>
     <use xlink:href="#DejaVuSans-31" x="520.068359"/>
     <use xlink:href="#DejaVuSans-2c" x="583.691406"/>
     <use xlink:href="#DejaVuSans-20" x="615.478516"/>
     <use xlink:href="#DejaVuSans-30" x="647.265625"/>
     <use xlink:href="#DejaVuSans-29" x="710.888672"/>
     <use xlink:href="#DejaVuSans-78" x="749.902344"/>
     <use xlink:href="#DejaVuSans-28" x="809.082031"/>
     <use xlink:href="#DejaVuSans-31" x="848.095703"/>
     <use xlink:href="#DejaVuSans-2c" x="911.71875"/>
     <use xlink:href="#DejaVuSans-20" x="943.505859"/>
     <use xlink:href="#DejaVuSans-30" x="975.292969"/>
     <use xlink:href="#DejaVuSans-2c" x="1038.916016"/>
     <use xlink:href="#DejaVuSans-20" x="1070.703125"/>
     <use xlink:href="#DejaVuSans-31" x="1102.490234"/>
     <use xlink:href="#DejaVuSans-2c" x="1166.113281"/>
     <use xlink:href="#DejaVuSans-20" x="1197.900391"/>
     <use xlink:href="#DejaVuSans-37" x="1229.6875"/>
     <use xlink:href="#DejaVuSans-29" x="1293.310547"/>
     <use xlink:href="#DejaVuSans-20" x="1332.324219"/>
     <use xlink:href="#DejaVuSans-28" x="1364.111328"/>
     <use xlink:href="#DejaVuSans-52" x="1403.125"/>
     <use xlink:href="#DejaVuSans-32" x="1472.607422"/>
     <use xlink:href="#DejaVuSans-20" x="1536.230469"/>
     <use xlink:href="#DejaVuSans-3d" x="1568.017578"/>
     <use xlink:href="#DejaVuSans-20" x="1651.806641"/>
     <use xlink:href="#DejaVuSans-2d" x="1683.59375"/>
     <use xlink:href="#DejaVuSans-30" x="1719.677734"/>
     <use xlink:href="#DejaVuSans-2e" x="1783.300781"/>
     <use xlink:href="#DejaVuSans-34" x="1815.087891"/>
     <use xlink:href="#DejaVuSans-32" x="1878.710938"/>
     <use xlink:href="#DejaVuSans-30" x="1942.333984"/>
     <use xlink:href="#DejaVuSans-38" x="2005.957031"/>
     <use xlink:href="#DejaVuSans-38" x="2069.580078"/>
     <use xlink:href="#DejaVuSans-37" x="2133.203125"/>
     <use xlink:href="#DejaVuSans-29" x="2196.826172"/>
    </g>
   </g>
   <g id="legend_1">
    <g id="patch_7">
     <path d="M 1281.132812 87.789875 
L 1378.2125 87.789875 
Q 1380.2125 87.789875 1380.2125 85.789875 
L 1380.2125 42.7555 
Q 1380.2125 40.7555 1378.2125 40.7555 
L 1281.132812 40.7555 
Q 1279.132812 40.7555 1279.132812 42.7555 
L 1279.132812 85.789875 
Q 1279.132812 87.789875 1281.132812 87.789875 
z
" style="fill: #ffffff; opacity: 0.8; stroke: #cccccc; stroke-linejoin: miter"/>
    </g>
    <g id="line2d_21">
     <path d="M 1283.132812 48.853937 
L 1293.132812 48.853937 
L 1303.132812 48.853937 
" style="fill: none; stroke: #0000ff; stroke-width: 1.5; stroke-linecap: square"/>
    </g>
    <g id="text_19">
     <!-- Actual Value -->
     <g transform="translate(1311.132812 52.353937)scale(0.1 -0.1)">
      <defs>
       <path id="DejaVuSans-75" d="M 544 1381 
L 544 3500 
L 1119 3500 
L 1119 1403 
Q 1119 906 1312 657 
Q 1506 409 1894 409 
Q 2359 409 2629 706 
Q 2900 1003 2900 1516 
L 2900 3500 
L 3475 3500 
L 3475 0 
L 2900 0 
L 2900 538 
Q 2691 219 2414 64 
Q 2138 -91 1772 -91 
Q 1169 -91 856 284 
Q 544 659 544 1381 
z
M 1991 3584 
L 1991 3584 
z
" transform="scale(0.015625)"/>
       <path id="DejaVuSans-56" d="M 1831 0 
L 50 4666 
L 709 4666 
L 2188 738 
L 3669 4666 
L 4325 4666 
L 2547 0 
L 1831 0 
z
" transform="scale(0.015625)"/>
      </defs>
      <use xlink:href="#DejaVuSans-41"/>
      <use xlink:href="#DejaVuSans-63" x="66.658203"/>
      <use xlink:href="#DejaVuSans-74" x="121.638672"/>
      <use xlink:href="#DejaVuSans-75" x="160.847656"/>
      <use xlink:href="#DejaVuSans-61" x="224.226562"/>
      <use xlink:href="#DejaVuSans-6c" x="285.505859"/>
      <use xlink:href="#DejaVuSans-20" x="313.289062"/>
      <use xlink:href="#DejaVuSans-56" x="345.076172"/>
      <use xlink:href="#DejaVuSans-61" x="405.734375"/>
      <use xlink:href="#DejaVuSans-6c" x="467.013672"/>
      <use xlink:href="#DejaVuSans-75" x="494.796875"/>
      <use xlink:href="#DejaVuSans-65" x="558.175781"/>
     </g>
    </g>
    <g id="line2d_22">
     <path d="M 1283.132812 63.532062 
L 1293.132812 63.532062 
L 1303.132812 63.532062 
" style="fill: none; stroke: #ffa500; stroke-width: 1.5; stroke-linecap: square"/>
    </g>
    <g id="text_20">
     <!-- Check Value -->
     <g transform="translate(1311.132812 67.032062)scale(0.1 -0.1)">
      <defs>
       <path id="DejaVuSans-68" d="M 3513 2113 
L 3513 0 
L 2938 0 
L 2938 2094 
Q 2938 2591 2744 2837 
Q 2550 3084 2163 3084 
Q 1697 3084 1428 2787 
Q 1159 2491 1159 1978 
L 1159 0 
L 581 0 
L 581 4863 
L 1159 4863 
L 1159 2956 
Q 1366 3272 1645 3428 
Q 1925 3584 2291 3584 
Q 2894 3584 3203 3211 
Q 3513 2838 3513 2113 
z
" transform="scale(0.015625)"/>
       <path id="DejaVuSans-6b" d="M 581 4863 
L 1159 4863 
L 1159 1991 
L 2875 3500 
L 3609 3500 
L 1753 1863 
L 3688 0 
L 2938 0 
L 1159 1709 
L 1159 0 
L 581 0 
L 581 4863 
z
" transform="scale(0.015625)"/>
      </defs>
      <use xlink:href="#DejaVuSans-43"/>
      <use xlink:href="#DejaVuSans-68" x="69.824219"/>
      <use xlink:href="#DejaVuSans-65" x="133.203125"/>
      <use xlink:href="#DejaVuSans-63" x="194.726562"/>
      <use xlink:href="#DejaVuSans-6b" x="249.707031"/>
      <use xlink:href="#DejaVuSans-20" x="307.617188"/>
      <use xlink:href="#DejaVuSans-56" x="339.404297"/>
      <use xlink:href="#DejaVuSans-61" x="400.0625"/>
      <use xlink:href="#DejaVuSans-6c" x="461.341797"/>
      <use xlink:href="#DejaVuSans-75" x="489.125"/>
      <use xlink:href="#DejaVuSans-65" x="552.503906"/>
     </g>
    </g>
    <g id="line2d_23">
     <path d="M 1283.132812 78.210187 
L 1293.132812 78.210187 
L 1303.132812 78.210187 
" style="fill: none; stroke: #ff0000; stroke-width: 1.5; stroke-linecap: square"/>
    </g>
    <g id="text_21">
     <!-- Predict Value -->
     <g transform="translate(1311.132812 81.710187)scale(0.1 -0.1)">
      <defs>
       <path id="DejaVuSans-50" d="M 1259 4147 
L 1259 2394 
L 2053 2394 
Q 2494 2394 2734 2622 
Q 2975 2850 2975 3272 
Q 2975 3691 2734 3919 
Q 2494 4147 2053 4147 
L 1259 4147 
z
M 628 4666 
L 2053 4666 
Q 2838 4666 3239 4311 
Q 3641 3956 3641 3272 
Q 3641 2581 3239 2228 
Q 2838 1875 2053 1875 
L 1259 1875 
L 1259 0 
L 628 0 
L 628 4666 
z
" transform="scale(0.015625)"/>
      </defs>
      <use xlink:href="#DejaVuSans-50"/>
      <use xlink:href="#DejaVuSans-72" x="58.552734"/>
      <use xlink:href="#DejaVuSans-65" x="97.416016"/>
      <use xlink:href="#DejaVuSans-64" x="158.939453"/>
      <use xlink:href="#DejaVuSans-69" x="222.416016"/>
      <use xlink:href="#DejaVuSans-63" x="250.199219"/>
      <use xlink:href="#DejaVuSans-74" x="305.179688"/>
      <use xlink:href="#DejaVuSans-20" x="344.388672"/>
      <use xlink:href="#DejaVuSans-56" x="376.175781"/>
      <use xlink:href="#DejaVuSans-61" x="436.833984"/>
      <use xlink:href="#DejaVuSans-6c" x="498.113281"/>
      <use xlink:href="#DejaVuSans-75" x="525.896484"/>
      <use xlink:href="#DejaVuSans-65" x="589.275391"/>
     </g>
    </g>
   </g>
  </g>
 </g>
 <defs>
  <clipPath id="p81e7c4a56b">
   <rect x="46.0125" y="35.7555" width="1339.2" height="332.64"/>
  </clipPath>
 </defs>
</svg>
