<?xml version="1.0" encoding="utf-8" standalone="no"?>
<!DOCTYPE svg PUBLIC "-//W3C//DTD SVG 1.1//EN"
  "http://www.w3.org/Graphics/SVG/1.1/DTD/svg11.dtd">
<svg xmlns:xlink="http://www.w3.org/1999/xlink" width="1392.4125pt" height="392.273625pt" viewBox="0 0 1392.4125 392.273625" xmlns="http://www.w3.org/2000/svg" version="1.1">
 <metadata>
  <rdf:RDF xmlns:dc="http://purl.org/dc/elements/1.1/" xmlns:cc="http://creativecommons.org/ns#" xmlns:rdf="http://www.w3.org/1999/02/22-rdf-syntax-ns#">
   <cc:Work>
    <dc:type rdf:resource="http://purl.org/dc/dcmitype/StillImage"/>
    <dc:date>2022-07-09T17:33:47.424584</dc:date>
    <dc:format>image/svg+xml</dc:format>
    <dc:creator>
     <cc:Agent>
      <dc:title>Matplotlib v3.5.2, https://matplotlib.org/</dc:title>
     </cc:Agent>
    </dc:creator>
   </cc:Work>
  </rdf:RDF>
 </metadata>
 <defs>
  <style type="text/css">*{stroke-linejoin: round; stroke-linecap: butt}</style>
 </defs>
 <g id="figure_1">
  <g id="patch_1">
   <path d="M 0 392.273625 
L 1392.4125 392.273625 
L 1392.4125 0 
L 0 0 
z
" style="fill: #ffffff"/>
  </g>
  <g id="axes_1">
   <g id="patch_2">
    <path d="M 46.0125 368.3955 
L 1385.2125 368.3955 
L 1385.2125 35.7555 
L 46.0125 35.7555 
z
" style="fill: #ffffff"/>
   </g>
   <g id="matplotlib.axis_1">
    <g id="xtick_1">
     <g id="line2d_1">
      <defs>
       <path id="m8ec566651d" d="M 0 0 
L 0 3.5 
" style="stroke: #000000; stroke-width: 0.8"/>
      </defs>
      <g>
       <use xlink:href="#m8ec566651d" x="77.45226" y="368.3955" style="stroke: #000000; stroke-width: 0.8"/>
      </g>
     </g>
     <g id="text_1">
      <!-- 2020-01 -->
      <g transform="translate(56.560854 382.993937)scale(0.1 -0.1)">
       <defs>
        <path id="DejaVuSans-32" d="M 1228 531 
L 3431 531 
L 3431 0 
L 469 0 
L 469 531 
Q 828 903 1448 1529 
Q 2069 2156 2228 2338 
Q 2531 2678 2651 2914 
Q 2772 3150 2772 3378 
Q 2772 3750 2511 3984 
Q 2250 4219 1831 4219 
Q 1534 4219 1204 4116 
Q 875 4013 500 3803 
L 500 4441 
Q 881 4594 1212 4672 
Q 1544 4750 1819 4750 
Q 2544 4750 2975 4387 
Q 3406 4025 3406 3419 
Q 3406 3131 3298 2873 
Q 3191 2616 2906 2266 
Q 2828 2175 2409 1742 
Q 1991 1309 1228 531 
z
" transform="scale(0.015625)"/>
        <path id="DejaVuSans-30" d="M 2034 4250 
Q 1547 4250 1301 3770 
Q 1056 3291 1056 2328 
Q 1056 1369 1301 889 
Q 1547 409 2034 409 
Q 2525 409 2770 889 
Q 3016 1369 3016 2328 
Q 3016 3291 2770 3770 
Q 2525 4250 2034 4250 
z
M 2034 4750 
Q 2819 4750 3233 4129 
Q 3647 3509 3647 2328 
Q 3647 1150 3233 529 
Q 2819 -91 2034 -91 
Q 1250 -91 836 529 
Q 422 1150 422 2328 
Q 422 3509 836 4129 
Q 1250 4750 2034 4750 
z
" transform="scale(0.015625)"/>
        <path id="DejaVuSans-2d" d="M 313 2009 
L 1997 2009 
L 1997 1497 
L 313 1497 
L 313 2009 
z
" transform="scale(0.015625)"/>
        <path id="DejaVuSans-31" d="M 794 531 
L 1825 531 
L 1825 4091 
L 703 3866 
L 703 4441 
L 1819 4666 
L 2450 4666 
L 2450 531 
L 3481 531 
L 3481 0 
L 794 0 
L 794 531 
z
" transform="scale(0.015625)"/>
       </defs>
       <use xlink:href="#DejaVuSans-32"/>
       <use xlink:href="#DejaVuSans-30" x="63.623047"/>
       <use xlink:href="#DejaVuSans-32" x="127.246094"/>
       <use xlink:href="#DejaVuSans-30" x="190.869141"/>
       <use xlink:href="#DejaVuSans-2d" x="254.492188"/>
       <use xlink:href="#DejaVuSans-30" x="290.576172"/>
       <use xlink:href="#DejaVuSans-31" x="354.199219"/>
      </g>
     </g>
    </g>
    <g id="xtick_2">
     <g id="line2d_2">
      <g>
       <use xlink:href="#m8ec566651d" x="199.197715" y="368.3955" style="stroke: #000000; stroke-width: 0.8"/>
      </g>
     </g>
     <g id="text_2">
      <!-- 2020-04 -->
      <g transform="translate(178.306309 382.993937)scale(0.1 -0.1)">
       <defs>
        <path id="DejaVuSans-34" d="M 2419 4116 
L 825 1625 
L 2419 1625 
L 2419 4116 
z
M 2253 4666 
L 3047 4666 
L 3047 1625 
L 3713 1625 
L 3713 1100 
L 3047 1100 
L 3047 0 
L 2419 0 
L 2419 1100 
L 313 1100 
L 313 1709 
L 2253 4666 
z
" transform="scale(0.015625)"/>
       </defs>
       <use xlink:href="#DejaVuSans-32"/>
       <use xlink:href="#DejaVuSans-30" x="63.623047"/>
       <use xlink:href="#DejaVuSans-32" x="127.246094"/>
       <use xlink:href="#DejaVuSans-30" x="190.869141"/>
       <use xlink:href="#DejaVuSans-2d" x="254.492188"/>
       <use xlink:href="#DejaVuSans-30" x="290.576172"/>
       <use xlink:href="#DejaVuSans-34" x="354.199219"/>
      </g>
     </g>
    </g>
    <g id="xtick_3">
     <g id="line2d_3">
      <g>
       <use xlink:href="#m8ec566651d" x="320.943169" y="368.3955" style="stroke: #000000; stroke-width: 0.8"/>
      </g>
     </g>
     <g id="text_3">
      <!-- 2020-07 -->
      <g transform="translate(300.051763 382.993937)scale(0.1 -0.1)">
       <defs>
        <path id="DejaVuSans-37" d="M 525 4666 
L 3525 4666 
L 3525 4397 
L 1831 0 
L 1172 0 
L 2766 4134 
L 525 4134 
L 525 4666 
z
" transform="scale(0.015625)"/>
       </defs>
       <use xlink:href="#DejaVuSans-32"/>
       <use xlink:href="#DejaVuSans-30" x="63.623047"/>
       <use xlink:href="#DejaVuSans-32" x="127.246094"/>
       <use xlink:href="#DejaVuSans-30" x="190.869141"/>
       <use xlink:href="#DejaVuSans-2d" x="254.492188"/>
       <use xlink:href="#DejaVuSans-30" x="290.576172"/>
       <use xlink:href="#DejaVuSans-37" x="354.199219"/>
      </g>
     </g>
    </g>
    <g id="xtick_4">
     <g id="line2d_4">
      <g>
       <use xlink:href="#m8ec566651d" x="444.026486" y="368.3955" style="stroke: #000000; stroke-width: 0.8"/>
      </g>
     </g>
     <g id="text_4">
      <!-- 2020-10 -->
      <g transform="translate(423.13508 382.993937)scale(0.1 -0.1)">
       <use xlink:href="#DejaVuSans-32"/>
       <use xlink:href="#DejaVuSans-30" x="63.623047"/>
       <use xlink:href="#DejaVuSans-32" x="127.246094"/>
       <use xlink:href="#DejaVuSans-30" x="190.869141"/>
       <use xlink:href="#DejaVuSans-2d" x="254.492188"/>
       <use xlink:href="#DejaVuSans-31" x="290.576172"/>
       <use xlink:href="#DejaVuSans-30" x="354.199219"/>
      </g>
     </g>
    </g>
    <g id="xtick_5">
     <g id="line2d_5">
      <g>
       <use xlink:href="#m8ec566651d" x="567.109803" y="368.3955" style="stroke: #000000; stroke-width: 0.8"/>
      </g>
     </g>
     <g id="text_5">
      <!-- 2021-01 -->
      <g transform="translate(546.218396 382.993937)scale(0.1 -0.1)">
       <use xlink:href="#DejaVuSans-32"/>
       <use xlink:href="#DejaVuSans-30" x="63.623047"/>
       <use xlink:href="#DejaVuSans-32" x="127.246094"/>
       <use xlink:href="#DejaVuSans-31" x="190.869141"/>
       <use xlink:href="#DejaVuSans-2d" x="254.492188"/>
       <use xlink:href="#DejaVuSans-30" x="290.576172"/>
       <use xlink:href="#DejaVuSans-31" x="354.199219"/>
      </g>
     </g>
    </g>
    <g id="xtick_6">
     <g id="line2d_6">
      <g>
       <use xlink:href="#m8ec566651d" x="687.517395" y="368.3955" style="stroke: #000000; stroke-width: 0.8"/>
      </g>
     </g>
     <g id="text_6">
      <!-- 2021-04 -->
      <g transform="translate(666.625989 382.993937)scale(0.1 -0.1)">
       <use xlink:href="#DejaVuSans-32"/>
       <use xlink:href="#DejaVuSans-30" x="63.623047"/>
       <use xlink:href="#DejaVuSans-32" x="127.246094"/>
       <use xlink:href="#DejaVuSans-31" x="190.869141"/>
       <use xlink:href="#DejaVuSans-2d" x="254.492188"/>
       <use xlink:href="#DejaVuSans-30" x="290.576172"/>
       <use xlink:href="#DejaVuSans-34" x="354.199219"/>
      </g>
     </g>
    </g>
    <g id="xtick_7">
     <g id="line2d_7">
      <g>
       <use xlink:href="#m8ec566651d" x="809.26285" y="368.3955" style="stroke: #000000; stroke-width: 0.8"/>
      </g>
     </g>
     <g id="text_7">
      <!-- 2021-07 -->
      <g transform="translate(788.371443 382.993937)scale(0.1 -0.1)">
       <use xlink:href="#DejaVuSans-32"/>
       <use xlink:href="#DejaVuSans-30" x="63.623047"/>
       <use xlink:href="#DejaVuSans-32" x="127.246094"/>
       <use xlink:href="#DejaVuSans-31" x="190.869141"/>
       <use xlink:href="#DejaVuSans-2d" x="254.492188"/>
       <use xlink:href="#DejaVuSans-30" x="290.576172"/>
       <use xlink:href="#DejaVuSans-37" x="354.199219"/>
      </g>
     </g>
    </g>
    <g id="xtick_8">
     <g id="line2d_8">
      <g>
       <use xlink:href="#m8ec566651d" x="932.346166" y="368.3955" style="stroke: #000000; stroke-width: 0.8"/>
      </g>
     </g>
     <g id="text_8">
      <!-- 2021-10 -->
      <g transform="translate(911.45476 382.993937)scale(0.1 -0.1)">
       <use xlink:href="#DejaVuSans-32"/>
       <use xlink:href="#DejaVuSans-30" x="63.623047"/>
       <use xlink:href="#DejaVuSans-32" x="127.246094"/>
       <use xlink:href="#DejaVuSans-31" x="190.869141"/>
       <use xlink:href="#DejaVuSans-2d" x="254.492188"/>
       <use xlink:href="#DejaVuSans-31" x="290.576172"/>
       <use xlink:href="#DejaVuSans-30" x="354.199219"/>
      </g>
     </g>
    </g>
    <g id="xtick_9">
     <g id="line2d_9">
      <g>
       <use xlink:href="#m8ec566651d" x="1055.429483" y="368.3955" style="stroke: #000000; stroke-width: 0.8"/>
      </g>
     </g>
     <g id="text_9">
      <!-- 2022-01 -->
      <g transform="translate(1034.538077 382.993937)scale(0.1 -0.1)">
       <use xlink:href="#DejaVuSans-32"/>
       <use xlink:href="#DejaVuSans-30" x="63.623047"/>
       <use xlink:href="#DejaVuSans-32" x="127.246094"/>
       <use xlink:href="#DejaVuSans-32" x="190.869141"/>
       <use xlink:href="#DejaVuSans-2d" x="254.492188"/>
       <use xlink:href="#DejaVuSans-30" x="290.576172"/>
       <use xlink:href="#DejaVuSans-31" x="354.199219"/>
      </g>
     </g>
    </g>
    <g id="xtick_10">
     <g id="line2d_10">
      <g>
       <use xlink:href="#m8ec566651d" x="1175.837075" y="368.3955" style="stroke: #000000; stroke-width: 0.8"/>
      </g>
     </g>
     <g id="text_10">
      <!-- 2022-04 -->
      <g transform="translate(1154.945669 382.993937)scale(0.1 -0.1)">
       <use xlink:href="#DejaVuSans-32"/>
       <use xlink:href="#DejaVuSans-30" x="63.623047"/>
       <use xlink:href="#DejaVuSans-32" x="127.246094"/>
       <use xlink:href="#DejaVuSans-32" x="190.869141"/>
       <use xlink:href="#DejaVuSans-2d" x="254.492188"/>
       <use xlink:href="#DejaVuSans-30" x="290.576172"/>
       <use xlink:href="#DejaVuSans-34" x="354.199219"/>
      </g>
     </g>
    </g>
    <g id="xtick_11">
     <g id="line2d_11">
      <g>
       <use xlink:href="#m8ec566651d" x="1297.58253" y="368.3955" style="stroke: #000000; stroke-width: 0.8"/>
      </g>
     </g>
     <g id="text_11">
      <!-- 2022-07 -->
      <g transform="translate(1276.691124 382.993937)scale(0.1 -0.1)">
       <use xlink:href="#DejaVuSans-32"/>
       <use xlink:href="#DejaVuSans-30" x="63.623047"/>
       <use xlink:href="#DejaVuSans-32" x="127.246094"/>
       <use xlink:href="#DejaVuSans-32" x="190.869141"/>
       <use xlink:href="#DejaVuSans-2d" x="254.492188"/>
       <use xlink:href="#DejaVuSans-30" x="290.576172"/>
       <use xlink:href="#DejaVuSans-37" x="354.199219"/>
      </g>
     </g>
    </g>
   </g>
   <g id="matplotlib.axis_2">
    <g id="ytick_1">
     <g id="line2d_12">
      <defs>
       <path id="m59d4649cc9" d="M 0 0 
L -3.5 0 
" style="stroke: #000000; stroke-width: 0.8"/>
      </defs>
      <g>
       <use xlink:href="#m59d4649cc9" x="46.0125" y="330.594071" style="stroke: #000000; stroke-width: 0.8"/>
      </g>
     </g>
     <g id="text_12">
      <!-- 0 -->
      <g transform="translate(32.65 334.39329)scale(0.1 -0.1)">
       <use xlink:href="#DejaVuSans-30"/>
      </g>
     </g>
    </g>
    <g id="ytick_2">
     <g id="line2d_13">
      <g>
       <use xlink:href="#m59d4649cc9" x="46.0125" y="280.201592" style="stroke: #000000; stroke-width: 0.8"/>
      </g>
     </g>
     <g id="text_13">
      <!-- 5000 -->
      <g transform="translate(13.5625 284.000811)scale(0.1 -0.1)">
       <defs>
        <path id="DejaVuSans-35" d="M 691 4666 
L 3169 4666 
L 3169 4134 
L 1269 4134 
L 1269 2991 
Q 1406 3038 1543 3061 
Q 1681 3084 1819 3084 
Q 2600 3084 3056 2656 
Q 3513 2228 3513 1497 
Q 3513 744 3044 326 
Q 2575 -91 1722 -91 
Q 1428 -91 1123 -41 
Q 819 9 494 109 
L 494 744 
Q 775 591 1075 516 
Q 1375 441 1709 441 
Q 2250 441 2565 725 
Q 2881 1009 2881 1497 
Q 2881 1984 2565 2268 
Q 2250 2553 1709 2553 
Q 1456 2553 1204 2497 
Q 953 2441 691 2322 
L 691 4666 
z
" transform="scale(0.015625)"/>
       </defs>
       <use xlink:href="#DejaVuSans-35"/>
       <use xlink:href="#DejaVuSans-30" x="63.623047"/>
       <use xlink:href="#DejaVuSans-30" x="127.246094"/>
       <use xlink:href="#DejaVuSans-30" x="190.869141"/>
      </g>
     </g>
    </g>
    <g id="ytick_3">
     <g id="line2d_14">
      <g>
       <use xlink:href="#m59d4649cc9" x="46.0125" y="229.809113" style="stroke: #000000; stroke-width: 0.8"/>
      </g>
     </g>
     <g id="text_14">
      <!-- 10000 -->
      <g transform="translate(7.2 233.608332)scale(0.1 -0.1)">
       <use xlink:href="#DejaVuSans-31"/>
       <use xlink:href="#DejaVuSans-30" x="63.623047"/>
       <use xlink:href="#DejaVuSans-30" x="127.246094"/>
       <use xlink:href="#DejaVuSans-30" x="190.869141"/>
       <use xlink:href="#DejaVuSans-30" x="254.492188"/>
      </g>
     </g>
    </g>
    <g id="ytick_4">
     <g id="line2d_15">
      <g>
       <use xlink:href="#m59d4649cc9" x="46.0125" y="179.416635" style="stroke: #000000; stroke-width: 0.8"/>
      </g>
     </g>
     <g id="text_15">
      <!-- 15000 -->
      <g transform="translate(7.2 183.215853)scale(0.1 -0.1)">
       <use xlink:href="#DejaVuSans-31"/>
       <use xlink:href="#DejaVuSans-35" x="63.623047"/>
       <use xlink:href="#DejaVuSans-30" x="127.246094"/>
       <use xlink:href="#DejaVuSans-30" x="190.869141"/>
       <use xlink:href="#DejaVuSans-30" x="254.492188"/>
      </g>
     </g>
    </g>
    <g id="ytick_5">
     <g id="line2d_16">
      <g>
       <use xlink:href="#m59d4649cc9" x="46.0125" y="129.024156" style="stroke: #000000; stroke-width: 0.8"/>
      </g>
     </g>
     <g id="text_16">
      <!-- 20000 -->
      <g transform="translate(7.2 132.823375)scale(0.1 -0.1)">
       <use xlink:href="#DejaVuSans-32"/>
       <use xlink:href="#DejaVuSans-30" x="63.623047"/>
       <use xlink:href="#DejaVuSans-30" x="127.246094"/>
       <use xlink:href="#DejaVuSans-30" x="190.869141"/>
       <use xlink:href="#DejaVuSans-30" x="254.492188"/>
      </g>
     </g>
    </g>
    <g id="ytick_6">
     <g id="line2d_17">
      <g>
       <use xlink:href="#m59d4649cc9" x="46.0125" y="78.631677" style="stroke: #000000; stroke-width: 0.8"/>
      </g>
     </g>
     <g id="text_17">
      <!-- 25000 -->
      <g transform="translate(7.2 82.430896)scale(0.1 -0.1)">
       <use xlink:href="#DejaVuSans-32"/>
       <use xlink:href="#DejaVuSans-35" x="63.623047"/>
       <use xlink:href="#DejaVuSans-30" x="127.246094"/>
       <use xlink:href="#DejaVuSans-30" x="190.869141"/>
       <use xlink:href="#DejaVuSans-30" x="254.492188"/>
      </g>
     </g>
    </g>
   </g>
   <g id="line2d_18">
    <path d="M 106.885227 330.594071 
L 180.467645 330.594071 
L 181.805507 330.321951 
L 183.143369 330.543678 
L 185.819093 330.452972 
L 188.494818 330.342108 
L 191.170542 329.747477 
L 196.521991 330.069989 
L 197.859853 329.717242 
L 199.197715 329.052061 
L 200.535577 328.981512 
L 201.873439 329.495515 
L 203.211301 328.870648 
L 204.549163 329.656771 
L 205.887025 329.838184 
L 207.224888 329.132689 
L 208.56275 330.069989 
L 209.900612 328.981512 
L 211.238474 329.505593 
L 212.576336 329.848262 
L 213.914198 329.566064 
L 215.25206 329.5963 
L 216.589923 329.435044 
L 217.927785 329.79787 
L 220.603509 329.505593 
L 221.941371 330.594071 
L 223.279233 329.566064 
L 225.954958 329.314102 
L 227.29282 329.717242 
L 228.630682 329.354416 
L 229.968544 329.545907 
L 231.306406 329.858341 
L 232.644268 329.989361 
L 233.98213 330.321951 
L 235.319993 329.293945 
L 236.657855 329.959126 
L 237.995717 329.132689 
L 239.333579 329.283866 
L 240.671441 329.555986 
L 242.009303 329.374573 
L 243.347165 329.868419 
L 244.685027 329.757556 
L 246.02289 329.838184 
L 247.360752 329.304023 
L 250.036476 329.92889 
L 251.374338 329.5963 
L 252.7122 330.352187 
L 254.050062 329.39473 
L 255.387925 329.32418 
L 256.725787 329.535829 
L 259.401511 329.082296 
L 260.739373 329.858341 
L 262.077235 329.707163 
L 263.415097 329.676928 
L 264.75296 330.160696 
L 266.090822 329.102453 
L 267.428684 328.890805 
L 268.766546 329.475358 
L 271.44227 330.059911 
L 272.780132 330.110303 
L 274.117995 329.676928 
L 275.455857 330.150617 
L 278.131581 329.787791 
L 279.469443 330.594071 
L 280.807305 329.031904 
L 282.145167 329.39473 
L 286.158754 329.586221 
L 287.496616 330.069989 
L 288.834478 329.676928 
L 290.17234 330.039754 
L 291.510202 329.001668 
L 292.848064 329.384651 
L 294.185927 329.152846 
L 295.523789 328.346566 
L 296.861651 328.336488 
L 298.199513 329.001668 
L 299.537375 328.719471 
L 302.213099 327.98374 
L 303.550962 326.048669 
L 304.888824 327.04644 
L 306.226686 327.258089 
L 307.564548 325.77655 
L 308.90241 328.396959 
L 310.240272 327.600758 
L 311.578134 325.766471 
L 314.253859 326.572751 
L 315.591721 327.580601 
L 316.929583 327.560444 
L 318.267445 328.296174 
L 319.605307 324.728386 
L 320.943169 326.945655 
L 322.281031 326.441731 
L 323.618894 325.17184 
L 324.956756 324.758622 
L 326.294618 327.741857 
L 327.63248 326.250239 
L 328.970342 321.946721 
L 330.308204 323.801165 
L 331.646066 324.516738 
L 332.983929 324.597366 
L 334.321791 323.670144 
L 335.659653 325.998277 
L 336.997515 325.443959 
L 338.335377 320.576046 
L 339.673239 319.769766 
L 341.011101 324.284932 
L 342.348964 323.539124 
L 343.686826 321.35209 
L 345.024688 328.487665 
L 346.36255 328.880727 
L 347.700412 321.62421 
L 349.038274 320.797773 
L 350.376136 323.8314 
L 351.713999 319.034036 
L 353.051861 320.868322 
L 354.389723 318.459562 
L 355.727585 316.484177 
L 357.065447 319.60851 
L 358.403309 322.047506 
L 359.741171 319.336391 
L 361.079033 323.065435 
L 362.416896 318.056422 
L 363.754758 325.615294 
L 365.09262 326.794478 
L 366.430482 321.916486 
L 367.768344 319.497647 
L 369.106206 322.15837 
L 370.444068 321.987035 
L 371.781931 322.279312 
L 373.119793 325.695922 
L 374.457655 326.592908 
L 375.795517 322.884022 
L 377.133379 323.841479 
L 378.471241 323.488731 
L 379.809103 322.591745 
L 381.146966 321.513346 
L 382.484828 325.111369 
L 383.82269 326.875106 
L 385.160552 324.536895 
L 386.498414 324.43611 
L 387.836276 323.075513 
L 389.174138 319.739531 
L 390.512 321.997114 
L 391.849863 324.889642 
L 393.187725 326.996048 
L 394.525587 324.043049 
L 395.863449 323.881793 
L 397.201311 323.418182 
L 398.539173 323.438339 
L 399.877035 319.578275 
L 401.214898 322.873943 
L 402.55276 324.405874 
L 405.228484 323.337554 
L 406.566346 321.432718 
L 407.904208 320.384555 
L 409.24207 319.034036 
L 410.579933 326.361103 
L 411.917795 324.415953 
L 413.255657 322.198684 
L 414.593519 321.765309 
L 415.931381 322.823551 
L 417.269243 321.100128 
L 418.607105 320.344241 
L 419.944968 323.589516 
L 421.28283 321.835858 
L 422.620692 319.598432 
L 423.958554 320.81793 
L 425.296416 320.172906 
L 426.634278 318.00603 
L 427.97214 318.126972 
L 429.310002 320.48534 
L 430.647865 319.497647 
L 431.985727 318.862702 
L 433.323589 319.618589 
L 434.661451 319.67906 
L 435.999313 317.73391 
L 437.337175 320.61636 
L 438.675037 322.299469 
L 440.0129 321.916486 
L 441.350762 320.263613 
L 442.688624 320.717145 
L 444.026486 318.802231 
L 445.364348 318.600661 
L 446.70221 318.610739 
L 448.040072 330.594071 
L 449.377935 318.157207 
L 450.715797 316.847003 
L 452.053659 320.455104 
L 453.391521 318.378934 
L 454.729383 315.234443 
L 456.067245 315.143737 
L 457.405107 322.873943 
L 458.74297 322.56151 
L 460.080832 317.40132 
L 461.418694 319.285999 
L 462.756556 318.288228 
L 464.094418 315.758525 
L 466.770142 322.218841 
L 468.108004 322.793315 
L 469.445867 315.72829 
L 470.783729 317.421477 
L 472.121591 314.18628 
L 473.459453 316.756296 
L 474.797315 312.160502 
L 476.135177 320.001572 
L 477.473039 323.912028 
L 478.810902 320.41479 
L 480.148764 323.105748 
L 481.486626 320.102357 
L 482.824488 317.471869 
L 484.16235 317.824617 
L 485.500212 316.99818 
L 486.838074 319.668981 
L 488.175937 317.179593 
L 489.513799 318.036265 
L 490.851661 309.419151 
L 492.189523 311.666656 
L 493.527385 330.594071 
L 494.865247 285.170291 
L 496.203109 308.451616 
L 497.540972 313.440471 
L 498.878834 308.653186 
L 500.216696 306.839056 
L 501.554558 303.714723 
L 502.89242 301.900593 
L 504.230282 291.056132 
L 506.906006 314.962324 
L 508.243869 300.187249 
L 509.581731 301.215256 
L 510.919593 301.154785 
L 512.257455 293.676541 
L 513.595317 296.266714 
L 514.933179 294.875882 
L 516.271041 303.019306 
L 517.608904 292.981125 
L 518.946766 330.594071 
L 521.62249 267.532923 
L 522.960352 313.24898 
L 524.298214 308.42138 
L 525.636076 313.087724 
L 526.973939 301.779651 
L 528.311801 313.390079 
L 529.649663 281.945172 
L 530.987525 286.551044 
L 532.325387 297.929666 
L 533.663249 311.414693 
L 535.001111 307.443766 
L 536.338974 307.342981 
L 537.676836 305.800971 
L 539.014698 291.247623 
L 540.35256 290.421187 
L 541.690422 286.863478 
L 543.028284 309.348602 
L 544.366146 308.038397 
L 545.704008 297.899431 
L 547.041871 300.529918 
L 549.717595 289.070668 
L 551.055457 280.272142 
L 552.393319 304.26904 
L 553.731181 308.411302 
L 555.069043 293.605991 
L 556.406906 297.455977 
L 557.744768 330.594071 
L 559.08263 290.53205 
L 560.420492 303.93645 
L 561.758354 295.541063 
L 563.096216 318.348698 
L 564.434078 297.597076 
L 565.771941 291.116603 
L 567.109803 330.594071 
L 568.447665 278.851074 
L 569.785527 249.643593 
L 571.123389 303.220876 
L 572.461251 315.385621 
L 573.799113 297.093151 
L 575.136976 292.235316 
L 576.474838 277.742439 
L 577.8127 287.226304 
L 579.150562 265.104005 
L 580.488424 291.247623 
L 581.826286 308.209732 
L 583.164148 291.086368 
L 584.50201 298.856888 
L 585.839873 294.875882 
L 587.177735 293.988974 
L 588.515597 297.002445 
L 589.853459 311.898461 
L 591.191321 314.710362 
L 592.529183 310.396765 
L 593.867045 303.372054 
L 595.204908 300.741566 
L 596.54277 288.516351 
L 599.218494 312.614034 
L 600.556356 314.549106 
L 601.894218 303.281347 
L 603.23208 307.101097 
L 604.569943 302.364204 
L 605.907805 306.54678 
L 607.245667 301.467218 
L 608.583529 316.343078 
L 609.921391 317.371084 
L 611.259253 309.036168 
L 612.597115 302.414597 
L 613.934978 303.694566 
L 615.27284 309.802134 
L 616.610702 308.502008 
L 617.948564 319.941101 
L 619.286426 319.699217 
L 620.624288 313.742826 
L 621.96215 313.500942 
L 623.300012 316.091115 
L 624.637875 315.738368 
L 625.975737 317.723832 
L 627.313599 323.216612 
L 628.651461 325.393567 
L 629.989323 319.719374 
L 631.327185 324.174069 
L 632.665047 321.75523 
L 634.00291 320.727223 
L 635.340772 320.041886 
L 636.678634 325.443959 
L 638.016496 326.895263 
L 639.354358 322.380097 
L 640.69222 318.973565 
L 642.030082 321.815701 
L 643.367945 322.722766 
L 644.705807 323.398025 
L 646.043669 326.673536 
L 647.381531 329.39473 
L 648.719393 322.974728 
L 650.057255 321.513346 
L 651.395117 321.291619 
L 652.73298 320.61636 
L 654.070842 325.877335 
L 655.408704 328.749706 
L 656.746566 327.782171 
L 658.084428 322.208762 
L 659.42229 323.478653 
L 660.760152 326.270396 
L 662.098014 324.184148 
L 663.435877 325.544744 
L 664.773739 327.298403 
L 666.111601 328.144996 
L 667.449463 325.494352 
L 668.787325 324.829171 
L 670.125187 326.31071 
L 671.463049 330.543678 
L 672.800912 330.513443 
L 674.138774 320.767537 
L 675.476636 328.58845 
L 676.814498 325.454038 
L 678.15236 326.744085 
L 679.490222 325.816864 
L 680.828084 330.483207 
L 682.165947 330.46305 
L 683.503809 321.614131 
L 684.841671 329.283866 
L 686.179533 326.562673 
L 687.517395 326.320789 
L 688.855257 326.754164 
L 690.193119 330.573914 
L 691.530982 330.594071 
L 692.868844 321.634288 
L 694.206706 343.635644 
L 695.544568 312.815604 
L 696.88243 325.726157 
L 698.220292 326.401417 
L 699.558154 330.594071 
L 700.896016 330.594071 
L 702.233879 320.838087 
L 703.571741 329.495515 
L 704.909603 327.106911 
L 706.247465 326.945655 
L 707.585327 327.842641 
L 708.923189 330.594071 
L 710.261051 330.594071 
L 711.598914 322.662295 
L 712.936776 329.838184 
L 714.274638 328.195389 
L 715.6125 327.741857 
L 716.950362 327.530208 
L 718.288224 330.594071 
L 719.626086 330.594071 
L 720.963949 323.256926 
L 722.301811 329.435044 
L 723.639673 328.084525 
L 724.977535 327.681386 
L 726.315397 326.824713 
L 727.653259 330.594071 
L 728.991121 330.594071 
L 730.328984 324.879564 
L 731.666846 328.890805 
L 733.004708 328.326409 
L 734.34257 329.102453 
L 735.680432 328.235703 
L 737.018294 330.594071 
L 738.356156 330.594071 
L 739.694018 323.871714 
L 741.031881 329.737399 
L 742.369743 329.152846 
L 743.707605 329.052061 
L 745.045467 329.072218 
L 746.383329 330.594071 
L 747.721191 330.594071 
L 749.059053 326.250239 
L 750.396916 329.878498 
L 753.07264 328.86057 
L 754.410502 328.729549 
L 755.748364 330.594071 
L 757.086226 330.594071 
L 758.424088 325.97812 
L 759.761951 329.697085 
L 761.099813 329.39473 
L 763.775537 329.142767 
L 765.113399 330.594071 
L 767.789123 330.594071 
L 769.126986 325.897492 
L 770.464848 330.170774 
L 771.80271 329.435044 
L 773.140572 329.062139 
L 774.478434 330.594071 
L 775.816296 330.594071 
L 777.154158 327.187539 
L 778.49202 329.787791 
L 779.829883 329.344337 
L 781.167745 329.364494 
L 782.505607 328.800099 
L 783.843469 330.594071 
L 785.181331 330.594071 
L 786.519193 325.655608 
L 787.857055 330.140539 
L 789.194918 328.417116 
L 790.53278 328.487665 
L 791.870642 328.769863 
L 793.208504 330.594071 
L 794.546366 330.594071 
L 795.884228 326.048669 
L 797.22209 328.961355 
L 798.559953 327.923269 
L 799.897815 327.842641 
L 801.235677 328.336488 
L 802.573539 330.594071 
L 803.911401 330.594071 
L 805.249263 324.748543 
L 806.587125 329.737399 
L 807.924988 327.812406 
L 809.26285 327.278246 
L 810.600712 327.540287 
L 811.938574 330.594071 
L 814.614298 330.594071 
L 815.95216 320.102357 
L 817.290022 329.072218 
L 818.627885 325.998277 
L 819.965747 325.04082 
L 821.303609 330.594071 
L 822.641471 330.594071 
L 823.979333 318.389012 
L 825.317195 330.594071 
L 826.655057 317.905245 
L 827.99292 323.488731 
L 829.330782 323.035199 
L 830.668644 330.594071 
L 832.006506 330.594071 
L 833.344368 309.167189 
L 834.68223 325.90757 
L 836.020092 318.46964 
L 837.357955 314.659969 
L 838.695817 318.560347 
L 840.033679 330.594071 
L 841.371541 330.594071 
L 842.709403 293.61607 
L 844.047265 323.206533 
L 845.385127 315.738368 
L 846.72299 312.392308 
L 848.060852 312.684584 
L 849.398714 330.594071 
L 850.736576 330.594071 
L 852.074438 274.18473 
L 853.4123 321.059814 
L 854.750162 308.82452 
L 856.088024 306.990234 
L 857.425887 307.383295 
L 858.763749 330.594071 
L 860.101611 330.594071 
L 861.439473 266.81735 
L 862.777335 320.092278 
L 864.115197 308.431459 
L 865.453059 305.720343 
L 866.790922 302.233184 
L 868.128784 330.594071 
L 869.466646 330.594071 
L 870.804508 260.377191 
L 872.14237 321.906407 
L 873.480232 306.808821 
L 874.818094 305.377674 
L 876.155957 301.860279 
L 877.493819 330.594071 
L 878.831681 330.594071 
L 880.169543 267.925984 
L 881.507405 312.513249 
L 882.845267 305.055163 
L 884.183129 288.748157 
L 885.520992 296.952052 
L 886.858854 330.594071 
L 888.196716 330.594071 
L 889.534578 251.709685 
L 890.87244 313.269137 
L 892.210302 305.014849 
L 893.548164 297.597076 
L 894.886026 299.552304 
L 896.223889 330.594071 
L 898.899613 330.594071 
L 900.237475 229.073383 
L 901.575337 317.492026 
L 902.913199 305.780814 
L 904.251061 304.117863 
L 905.588924 330.594071 
L 906.926786 330.594071 
L 908.264648 253.493578 
L 909.60251 322.944493 
L 910.940372 310.779748 
L 912.278234 307.786435 
L 913.616096 309.187346 
L 914.953959 330.594071 
L 916.291821 330.594071 
L 917.629683 270.143253 
L 918.967545 325.716079 
L 920.305407 307.977926 
L 921.643269 306.798742 
L 922.981131 318.197521 
L 924.318994 330.594071 
L 925.656856 330.594071 
L 926.994718 276.714433 
L 928.33258 324.063206 
L 929.670442 315.476327 
L 931.008304 311.646499 
L 932.346166 315.960095 
L 933.684028 330.594071 
L 935.021891 330.594071 
L 936.359753 291.902726 
L 937.697615 323.720537 
L 940.373339 315.466249 
L 941.711201 326.10914 
L 943.049063 330.594071 
L 944.386926 330.594071 
L 945.724788 281.01795 
L 947.06265 324.597366 
L 948.400512 318.318463 
L 949.738374 318.691367 
L 951.076236 318.711524 
L 952.414098 330.594071 
L 953.751961 330.594071 
L 955.089823 294.603763 
L 956.427685 326.340946 
L 957.765547 321.573817 
L 959.103409 319.023958 
L 960.441271 320.021729 
L 961.779133 330.594071 
L 963.116996 330.594071 
L 964.454858 309.489701 
L 965.79272 326.099062 
L 967.130582 321.876172 
L 968.468444 323.579438 
L 969.806306 321.321855 
L 971.144168 330.594071 
L 972.48203 330.594071 
L 973.819893 316.746218 
L 975.157755 322.732844 
L 976.495617 324.23454 
L 977.833479 321.82578 
L 979.171341 324.788857 
L 980.509203 330.594071 
L 981.847065 330.594071 
L 983.184928 312.503171 
L 984.52279 327.923269 
L 985.860652 326.361103 
L 987.198514 330.594071 
L 988.536376 310.013783 
L 989.874238 330.594071 
L 991.2121 330.594071 
L 992.549963 302.565774 
L 993.887825 327.11699 
L 995.225687 323.367789 
L 996.563549 319.951179 
L 997.901411 320.81793 
L 999.239273 330.594071 
L 1000.577135 330.594071 
L 1001.914998 303.492996 
L 1003.25286 326.703771 
L 1004.590722 325.101291 
L 1005.928584 330.594071 
L 1009.94217 330.594071 
L 1011.280032 292.094217 
L 1012.617895 321.654445 
L 1013.955757 324.698151 
L 1015.293619 314.266908 
L 1016.631481 317.612968 
L 1017.969343 330.594071 
L 1019.307205 330.594071 
L 1020.645067 286.873556 
L 1021.98293 320.767537 
L 1023.320792 318.933251 
L 1024.658654 315.950017 
L 1025.996516 313.349765 
L 1027.334378 330.594071 
L 1028.67224 330.594071 
L 1030.010102 293.656384 
L 1031.347965 324.335325 
L 1032.685827 328.18531 
L 1034.023689 330.594071 
L 1035.361551 317.219907 
L 1036.699413 330.594071 
L 1038.037275 330.594071 
L 1039.375137 297.03268 
L 1040.713 324.909799 
L 1042.050862 315.65774 
L 1043.388724 311.273594 
L 1044.726586 320.404712 
L 1046.064448 330.594071 
L 1047.40231 330.594071 
L 1048.740172 296.528755 
L 1050.078034 305.972306 
L 1051.415897 322.884022 
L 1052.753759 288.607058 
L 1054.091621 290.542129 
L 1055.429483 330.594071 
L 1056.767345 330.594071 
L 1058.105207 250.842934 
L 1059.443069 289.171453 
L 1060.780932 291.146838 
L 1062.118794 267.301118 
L 1063.456656 265.708715 
L 1064.794518 330.594071 
L 1066.13238 330.594071 
L 1067.470242 57.890133 
L 1068.808104 280.090729 
L 1070.145967 275.091795 
L 1071.483829 224.749709 
L 1072.821691 216.555892 
L 1074.159553 185.433497 
L 1075.497415 330.594071 
L 1076.835277 50.8755 
L 1078.173139 291.761627 
L 1079.511001 229.799035 
L 1080.848864 195.481757 
L 1082.186726 190.109919 
L 1083.524588 193.818805 
L 1084.86245 330.594071 
L 1086.200312 127.512382 
L 1087.538174 241.802523 
L 1088.876036 248.353546 
L 1090.213899 195.26003 
L 1091.551761 243.36469 
L 1092.889623 224.376804 
L 1094.227485 330.594071 
L 1095.565347 196.963296 
L 1096.903209 306.052934 
L 1098.241071 284.353932 
L 1099.578934 287.730228 
L 1100.916796 282.801844 
L 1102.254658 304.248883 
L 1103.59252 330.594071 
L 1104.930382 308.048476 
L 1106.268244 320.656674 
L 1107.606106 313.349765 
L 1108.943969 303.603859 
L 1110.281831 308.119025 
L 1111.619693 315.899624 
L 1112.957555 330.594071 
L 1114.295417 307.584865 
L 1115.633279 326.784399 
L 1116.971141 320.041886 
L 1118.309003 314.327379 
L 1119.646866 319.316234 
L 1120.984728 330.594071 
L 1123.660452 330.594071 
L 1124.998314 303.906214 
L 1126.336176 320.41479 
L 1127.674038 316.655511 
L 1129.011901 318.892937 
L 1130.349763 330.594071 
L 1131.687625 330.594071 
L 1133.025487 309.368759 
L 1134.363349 328.034133 
L 1135.701211 321.321855 
L 1137.039073 324.657837 
L 1138.376936 319.376705 
L 1139.714798 330.594071 
L 1145.066246 330.594071 
L 1146.404108 308.633029 
L 1147.741971 330.594071 
L 1154.431281 330.594071 
L 1155.769143 300.51984 
L 1157.107005 330.594071 
L 1163.796316 330.594071 
L 1165.134178 312.31168 
L 1166.47204 330.594071 
L 1173.161351 330.594071 
L 1174.499213 312.351994 
L 1175.837075 330.594071 
L 1179.850662 330.594071 
L 1181.188524 310.003704 
L 1182.526386 330.594071 
L 1185.20211 330.594071 
L 1186.539973 322.208762 
L 1187.877835 330.594071 
L 1189.215697 330.594071 
L 1190.553559 326.945655 
L 1191.891421 330.594071 
L 1194.567145 330.594071 
L 1195.905007 318.157207 
L 1197.24287 330.594071 
L 1198.580732 330.594071 
L 1199.918594 324.829171 
L 1201.256456 330.594071 
L 1202.594318 325.554823 
L 1203.93218 330.594071 
L 1205.270042 324.405874 
L 1206.607905 330.594071 
L 1207.945767 330.594071 
L 1209.283629 325.181919 
L 1210.621491 330.594071 
L 1211.959353 325.917649 
L 1213.297215 330.594071 
L 1214.635077 324.889642 
L 1215.97294 330.594071 
L 1217.310802 330.594071 
L 1218.648664 326.411495 
L 1219.986526 330.594071 
L 1221.324388 323.146062 
L 1222.66225 330.594071 
L 1224.000112 325.544744 
L 1225.337975 330.594071 
L 1226.675837 330.594071 
L 1228.013699 321.503268 
L 1229.351561 330.594071 
L 1230.689423 324.143834 
L 1232.027285 330.594071 
L 1233.365147 323.649987 
L 1234.703009 330.594071 
L 1238.716596 330.594071 
L 1240.054458 315.567034 
L 1241.39232 330.594071 
L 1242.730182 321.9568 
L 1244.068044 330.594071 
L 1245.405907 330.594071 
L 1246.743769 322.35994 
L 1248.081631 330.594071 
L 1249.419493 320.969107 
L 1250.757355 330.594071 
L 1254.770942 330.594071 
L 1256.108804 321.916486 
L 1257.446666 330.594071 
L 1258.784528 307.998083 
L 1260.12239 330.594071 
L 1261.460252 315.808918 
L 1262.798114 330.594071 
L 1264.135977 330.594071 
L 1265.473839 316.403549 
L 1266.811701 330.594071 
L 1268.149563 312.331837 
L 1269.487425 330.594071 
L 1270.825287 315.284836 
L 1272.163149 330.594071 
L 1273.501011 330.594071 
L 1274.838874 314.670048 
L 1276.176736 330.594071 
L 1277.514598 311.293751 
L 1278.85246 330.594071 
L 1282.866046 330.594071 
L 1284.203909 310.49755 
L 1285.541771 330.594071 
L 1286.879633 286.430102 
L 1288.217495 330.594071 
L 1289.555357 304.722572 
L 1290.893219 330.594071 
L 1294.906806 330.594071 
L 1296.244668 274.003317 
L 1297.58253 330.594071 
L 1301.596116 330.594071 
L 1302.933979 299.31042 
L 1304.271841 300.408976 
L 1305.609703 305.750579 
L 1306.947565 330.594071 
L 1306.947565 330.594071 
" clip-path="url(#p410d17b267)" style="fill: none; stroke: #0000ff; stroke-width: 1.5; stroke-linecap: square"/>
   </g>
   <g id="line2d_19">
    <path d="M 1067.470242 296.475162 
L 1068.808104 255.450495 
L 1070.145967 240.191037 
L 1071.483829 216.159294 
L 1072.821691 243.414826 
L 1074.159553 287.13533 
L 1075.497415 72.185024 
L 1076.835277 231.005996 
L 1078.173139 205.249284 
L 1079.511001 190.060204 
L 1080.848864 205.306647 
L 1082.186726 179.639385 
L 1083.524588 283.29392 
L 1084.86245 78.423181 
L 1086.200312 252.458547 
L 1087.538174 227.039812 
L 1088.876036 207.954239 
L 1090.213899 215.831387 
L 1091.551761 202.914543 
L 1092.889623 299.440795 
L 1094.227485 168.136243 
L 1095.565347 252.943997 
L 1096.903209 266.610344 
L 1098.241071 239.083109 
L 1099.578934 275.167251 
L 1100.916796 278.946804 
L 1102.254658 353.2755 
L 1103.59252 270.153215 
L 1104.930382 338.016956 
L 1106.268244 331.812654 
L 1107.606106 331.79137 
L 1108.943969 326.674513 
L 1110.281831 340.773846 
L 1111.619693 345.271438 
L 1112.957555 325.366436 
L 1114.295417 330.910975 
L 1115.633279 322.414099 
L 1116.971141 313.123463 
L 1118.309003 313.999492 
L 1119.646866 319.293257 
L 1120.984728 331.50952 
L 1122.32259 318.37598 
L 1123.660452 330.568129 
L 1124.998314 332.763934 
L 1126.336176 322.728184 
L 1127.674038 323.774347 
L 1129.011901 328.141359 
L 1130.349763 322.05873 
L 1131.687625 326.351863 
L 1133.025487 311.48084 
L 1134.363349 317.07317 
L 1135.701211 319.153817 
L 1137.039073 318.341597 
L 1138.376936 328.798656 
L 1139.714798 333.491414 
L 1141.05266 316.621786 
L 1142.390522 327.713637 
L 1143.728384 325.598992 
L 1145.066246 328.801738 
L 1146.404108 330.292095 
L 1147.741971 333.624642 
L 1149.079833 332.102929 
L 1150.417695 329.230914 
L 1151.755557 327.71478 
L 1153.093419 331.779706 
L 1154.431281 315.801475 
L 1155.769143 332.102119 
L 1157.107005 328.283297 
L 1158.444868 327.715144 
L 1159.78273 326.057937 
L 1161.120592 325.668008 
L 1162.458454 329.317522 
L 1163.796316 309.585001 
L 1165.134178 330.2798 
L 1166.47204 330.944876 
L 1167.809903 331.049792 
L 1169.147765 331.318573 
L 1170.485627 331.381902 
L 1171.823489 330.798231 
L 1173.161351 318.076479 
L 1174.499213 331.148801 
L 1175.837075 329.714599 
L 1177.174938 329.502567 
L 1178.5128 328.875715 
L 1179.850662 328.728241 
L 1181.188524 332.074699 
L 1182.526386 314.720217 
L 1183.864248 325.399139 
L 1185.20211 326.299212 
L 1186.539973 327.033666 
L 1187.877835 331.333237 
L 1189.215697 318.492938 
L 1190.553559 328.002111 
L 1191.891421 329.718115 
L 1193.229283 331.967249 
L 1194.567145 327.844269 
L 1195.905007 334.644092 
L 1197.24287 330.440005 
L 1198.580732 327.029763 
L 1199.918594 328.942562 
L 1201.256456 327.907671 
L 1202.594318 329.882779 
L 1203.93218 320.12514 
L 1205.270042 328.288795 
L 1206.607905 329.147549 
L 1207.945767 325.353083 
L 1209.283629 330.999361 
L 1210.621491 327.564806 
L 1211.959353 330.601986 
L 1213.297215 325.756111 
L 1214.635077 330.033994 
L 1215.97294 329.880755 
L 1217.310802 326.163786 
L 1218.648664 330.087441 
L 1219.986526 326.801097 
L 1221.324388 330.777905 
L 1222.66225 325.839111 
L 1224.000112 329.725755 
L 1225.337975 329.094414 
L 1226.675837 326.097871 
L 1228.013699 330.481744 
L 1229.351561 324.040342 
L 1230.689423 329.403262 
L 1232.027285 325.000858 
L 1233.365147 328.616524 
L 1234.703009 329.118737 
L 1236.040872 323.099519 
L 1237.378734 328.796604 
L 1238.716596 325.951255 
L 1240.054458 332.50237 
L 1241.39232 325.985137 
L 1242.730182 330.958202 
L 1244.068044 327.310664 
L 1245.405907 326.502109 
L 1246.743769 329.341471 
L 1248.081631 317.484254 
L 1249.419493 328.553022 
L 1250.757355 322.169886 
L 1252.095217 327.428815 
L 1253.433079 331.024255 
L 1254.770942 326.125392 
L 1256.108804 332.694029 
L 1257.446666 325.463708 
L 1258.784528 332.044482 
L 1260.12239 327.323911 
L 1261.460252 327.968663 
L 1262.798114 323.202156 
L 1264.135977 316.458781 
L 1265.473839 325.519506 
L 1266.811701 308.555737 
L 1268.149563 327.91692 
L 1269.487425 317.161107 
L 1270.825287 327.763178 
L 1272.163149 328.242626 
L 1273.501011 318.761792 
L 1274.838874 329.342762 
L 1276.176736 315.312333 
L 1277.514598 329.592142 
L 1278.85246 317.030657 
L 1280.190322 326.231442 
L 1281.528184 329.655744 
L 1282.866046 319.315709 
L 1284.203909 334.045542 
L 1285.541771 319.204206 
L 1286.879633 332.635499 
L 1288.217495 323.234202 
L 1289.555357 324.159512 
L 1290.893219 316.439758 
L 1292.231081 301.431108 
L 1293.568944 318.751216 
L 1294.906806 293.172102 
L 1296.244668 333.371195 
L 1297.58253 312.291244 
L 1298.920392 328.231647 
L 1300.258254 326.553553 
L 1301.596116 325.687236 
L 1302.933979 336.809062 
L 1304.271841 294.98514 
L 1305.609703 319.898494 
L 1306.947565 317.846007 
L 1306.947565 317.846007 
" clip-path="url(#p410d17b267)" style="fill: none; stroke: #ffa500; stroke-width: 1.5; stroke-linecap: square"/>
   </g>
   <g id="line2d_20">
    <path d="M 1306.947565 317.846007 
L 1308.285427 315.173046 
L 1309.623289 321.769026 
L 1310.961151 306.439129 
L 1312.299013 302.239583 
L 1313.636876 303.350774 
L 1314.974738 321.060124 
L 1316.3126 314.397283 
L 1317.650462 312.920634 
L 1318.988324 316.100504 
L 1320.326186 305.240687 
L 1321.664048 302.800687 
L 1323.001911 303.991997 
L 1324.339773 316.017983 
" clip-path="url(#p410d17b267)" style="fill: none; stroke: #ff0000; stroke-width: 1.5; stroke-linecap: square"/>
   </g>
   <g id="patch_3">
    <path d="M 46.0125 368.3955 
L 46.0125 35.7555 
" style="fill: none; stroke: #000000; stroke-width: 0.8; stroke-linejoin: miter; stroke-linecap: square"/>
   </g>
   <g id="patch_4">
    <path d="M 1385.2125 368.3955 
L 1385.2125 35.7555 
" style="fill: none; stroke: #000000; stroke-width: 0.8; stroke-linejoin: miter; stroke-linecap: square"/>
   </g>
   <g id="patch_5">
    <path d="M 46.0125 368.3955 
L 1385.2125 368.3955 
" style="fill: none; stroke: #000000; stroke-width: 0.8; stroke-linejoin: miter; stroke-linecap: square"/>
   </g>
   <g id="patch_6">
    <path d="M 46.0125 35.7555 
L 1385.2125 35.7555 
" style="fill: none; stroke: #000000; stroke-width: 0.8; stroke-linejoin: miter; stroke-linecap: square"/>
   </g>
   <g id="text_18">
    <!-- Daily Confirmed Cases Forecasting - Oklahoma -->
    <g transform="translate(574.575938 16.318125)scale(0.12 -0.12)">
     <defs>
      <path id="DejaVuSans-44" d="M 1259 4147 
L 1259 519 
L 2022 519 
Q 2988 519 3436 956 
Q 3884 1394 3884 2338 
Q 3884 3275 3436 3711 
Q 2988 4147 2022 4147 
L 1259 4147 
z
M 628 4666 
L 1925 4666 
Q 3281 4666 3915 4102 
Q 4550 3538 4550 2338 
Q 4550 1131 3912 565 
Q 3275 0 1925 0 
L 628 0 
L 628 4666 
z
" transform="scale(0.015625)"/>
      <path id="DejaVuSans-61" d="M 2194 1759 
Q 1497 1759 1228 1600 
Q 959 1441 959 1056 
Q 959 750 1161 570 
Q 1363 391 1709 391 
Q 2188 391 2477 730 
Q 2766 1069 2766 1631 
L 2766 1759 
L 2194 1759 
z
M 3341 1997 
L 3341 0 
L 2766 0 
L 2766 531 
Q 2569 213 2275 61 
Q 1981 -91 1556 -91 
Q 1019 -91 701 211 
Q 384 513 384 1019 
Q 384 1609 779 1909 
Q 1175 2209 1959 2209 
L 2766 2209 
L 2766 2266 
Q 2766 2663 2505 2880 
Q 2244 3097 1772 3097 
Q 1472 3097 1187 3025 
Q 903 2953 641 2809 
L 641 3341 
Q 956 3463 1253 3523 
Q 1550 3584 1831 3584 
Q 2591 3584 2966 3190 
Q 3341 2797 3341 1997 
z
" transform="scale(0.015625)"/>
      <path id="DejaVuSans-69" d="M 603 3500 
L 1178 3500 
L 1178 0 
L 603 0 
L 603 3500 
z
M 603 4863 
L 1178 4863 
L 1178 4134 
L 603 4134 
L 603 4863 
z
" transform="scale(0.015625)"/>
      <path id="DejaVuSans-6c" d="M 603 4863 
L 1178 4863 
L 1178 0 
L 603 0 
L 603 4863 
z
" transform="scale(0.015625)"/>
      <path id="DejaVuSans-79" d="M 2059 -325 
Q 1816 -950 1584 -1140 
Q 1353 -1331 966 -1331 
L 506 -1331 
L 506 -850 
L 844 -850 
Q 1081 -850 1212 -737 
Q 1344 -625 1503 -206 
L 1606 56 
L 191 3500 
L 800 3500 
L 1894 763 
L 2988 3500 
L 3597 3500 
L 2059 -325 
z
" transform="scale(0.015625)"/>
      <path id="DejaVuSans-20" transform="scale(0.015625)"/>
      <path id="DejaVuSans-43" d="M 4122 4306 
L 4122 3641 
Q 3803 3938 3442 4084 
Q 3081 4231 2675 4231 
Q 1875 4231 1450 3742 
Q 1025 3253 1025 2328 
Q 1025 1406 1450 917 
Q 1875 428 2675 428 
Q 3081 428 3442 575 
Q 3803 722 4122 1019 
L 4122 359 
Q 3791 134 3420 21 
Q 3050 -91 2638 -91 
Q 1578 -91 968 557 
Q 359 1206 359 2328 
Q 359 3453 968 4101 
Q 1578 4750 2638 4750 
Q 3056 4750 3426 4639 
Q 3797 4528 4122 4306 
z
" transform="scale(0.015625)"/>
      <path id="DejaVuSans-6f" d="M 1959 3097 
Q 1497 3097 1228 2736 
Q 959 2375 959 1747 
Q 959 1119 1226 758 
Q 1494 397 1959 397 
Q 2419 397 2687 759 
Q 2956 1122 2956 1747 
Q 2956 2369 2687 2733 
Q 2419 3097 1959 3097 
z
M 1959 3584 
Q 2709 3584 3137 3096 
Q 3566 2609 3566 1747 
Q 3566 888 3137 398 
Q 2709 -91 1959 -91 
Q 1206 -91 779 398 
Q 353 888 353 1747 
Q 353 2609 779 3096 
Q 1206 3584 1959 3584 
z
" transform="scale(0.015625)"/>
      <path id="DejaVuSans-6e" d="M 3513 2113 
L 3513 0 
L 2938 0 
L 2938 2094 
Q 2938 2591 2744 2837 
Q 2550 3084 2163 3084 
Q 1697 3084 1428 2787 
Q 1159 2491 1159 1978 
L 1159 0 
L 581 0 
L 581 3500 
L 1159 3500 
L 1159 2956 
Q 1366 3272 1645 3428 
Q 1925 3584 2291 3584 
Q 2894 3584 3203 3211 
Q 3513 2838 3513 2113 
z
" transform="scale(0.015625)"/>
      <path id="DejaVuSans-66" d="M 2375 4863 
L 2375 4384 
L 1825 4384 
Q 1516 4384 1395 4259 
Q 1275 4134 1275 3809 
L 1275 3500 
L 2222 3500 
L 2222 3053 
L 1275 3053 
L 1275 0 
L 697 0 
L 697 3053 
L 147 3053 
L 147 3500 
L 697 3500 
L 697 3744 
Q 697 4328 969 4595 
Q 1241 4863 1831 4863 
L 2375 4863 
z
" transform="scale(0.015625)"/>
      <path id="DejaVuSans-72" d="M 2631 2963 
Q 2534 3019 2420 3045 
Q 2306 3072 2169 3072 
Q 1681 3072 1420 2755 
Q 1159 2438 1159 1844 
L 1159 0 
L 581 0 
L 581 3500 
L 1159 3500 
L 1159 2956 
Q 1341 3275 1631 3429 
Q 1922 3584 2338 3584 
Q 2397 3584 2469 3576 
Q 2541 3569 2628 3553 
L 2631 2963 
z
" transform="scale(0.015625)"/>
      <path id="DejaVuSans-6d" d="M 3328 2828 
Q 3544 3216 3844 3400 
Q 4144 3584 4550 3584 
Q 5097 3584 5394 3201 
Q 5691 2819 5691 2113 
L 5691 0 
L 5113 0 
L 5113 2094 
Q 5113 2597 4934 2840 
Q 4756 3084 4391 3084 
Q 3944 3084 3684 2787 
Q 3425 2491 3425 1978 
L 3425 0 
L 2847 0 
L 2847 2094 
Q 2847 2600 2669 2842 
Q 2491 3084 2119 3084 
Q 1678 3084 1418 2786 
Q 1159 2488 1159 1978 
L 1159 0 
L 581 0 
L 581 3500 
L 1159 3500 
L 1159 2956 
Q 1356 3278 1631 3431 
Q 1906 3584 2284 3584 
Q 2666 3584 2933 3390 
Q 3200 3197 3328 2828 
z
" transform="scale(0.015625)"/>
      <path id="DejaVuSans-65" d="M 3597 1894 
L 3597 1613 
L 953 1613 
Q 991 1019 1311 708 
Q 1631 397 2203 397 
Q 2534 397 2845 478 
Q 3156 559 3463 722 
L 3463 178 
Q 3153 47 2828 -22 
Q 2503 -91 2169 -91 
Q 1331 -91 842 396 
Q 353 884 353 1716 
Q 353 2575 817 3079 
Q 1281 3584 2069 3584 
Q 2775 3584 3186 3129 
Q 3597 2675 3597 1894 
z
M 3022 2063 
Q 3016 2534 2758 2815 
Q 2500 3097 2075 3097 
Q 1594 3097 1305 2825 
Q 1016 2553 972 2059 
L 3022 2063 
z
" transform="scale(0.015625)"/>
      <path id="DejaVuSans-64" d="M 2906 2969 
L 2906 4863 
L 3481 4863 
L 3481 0 
L 2906 0 
L 2906 525 
Q 2725 213 2448 61 
Q 2172 -91 1784 -91 
Q 1150 -91 751 415 
Q 353 922 353 1747 
Q 353 2572 751 3078 
Q 1150 3584 1784 3584 
Q 2172 3584 2448 3432 
Q 2725 3281 2906 2969 
z
M 947 1747 
Q 947 1113 1208 752 
Q 1469 391 1925 391 
Q 2381 391 2643 752 
Q 2906 1113 2906 1747 
Q 2906 2381 2643 2742 
Q 2381 3103 1925 3103 
Q 1469 3103 1208 2742 
Q 947 2381 947 1747 
z
" transform="scale(0.015625)"/>
      <path id="DejaVuSans-73" d="M 2834 3397 
L 2834 2853 
Q 2591 2978 2328 3040 
Q 2066 3103 1784 3103 
Q 1356 3103 1142 2972 
Q 928 2841 928 2578 
Q 928 2378 1081 2264 
Q 1234 2150 1697 2047 
L 1894 2003 
Q 2506 1872 2764 1633 
Q 3022 1394 3022 966 
Q 3022 478 2636 193 
Q 2250 -91 1575 -91 
Q 1294 -91 989 -36 
Q 684 19 347 128 
L 347 722 
Q 666 556 975 473 
Q 1284 391 1588 391 
Q 1994 391 2212 530 
Q 2431 669 2431 922 
Q 2431 1156 2273 1281 
Q 2116 1406 1581 1522 
L 1381 1569 
Q 847 1681 609 1914 
Q 372 2147 372 2553 
Q 372 3047 722 3315 
Q 1072 3584 1716 3584 
Q 2034 3584 2315 3537 
Q 2597 3491 2834 3397 
z
" transform="scale(0.015625)"/>
      <path id="DejaVuSans-46" d="M 628 4666 
L 3309 4666 
L 3309 4134 
L 1259 4134 
L 1259 2759 
L 3109 2759 
L 3109 2228 
L 1259 2228 
L 1259 0 
L 628 0 
L 628 4666 
z
" transform="scale(0.015625)"/>
      <path id="DejaVuSans-63" d="M 3122 3366 
L 3122 2828 
Q 2878 2963 2633 3030 
Q 2388 3097 2138 3097 
Q 1578 3097 1268 2742 
Q 959 2388 959 1747 
Q 959 1106 1268 751 
Q 1578 397 2138 397 
Q 2388 397 2633 464 
Q 2878 531 3122 666 
L 3122 134 
Q 2881 22 2623 -34 
Q 2366 -91 2075 -91 
Q 1284 -91 818 406 
Q 353 903 353 1747 
Q 353 2603 823 3093 
Q 1294 3584 2113 3584 
Q 2378 3584 2631 3529 
Q 2884 3475 3122 3366 
z
" transform="scale(0.015625)"/>
      <path id="DejaVuSans-74" d="M 1172 4494 
L 1172 3500 
L 2356 3500 
L 2356 3053 
L 1172 3053 
L 1172 1153 
Q 1172 725 1289 603 
Q 1406 481 1766 481 
L 2356 481 
L 2356 0 
L 1766 0 
Q 1100 0 847 248 
Q 594 497 594 1153 
L 594 3053 
L 172 3053 
L 172 3500 
L 594 3500 
L 594 4494 
L 1172 4494 
z
" transform="scale(0.015625)"/>
      <path id="DejaVuSans-67" d="M 2906 1791 
Q 2906 2416 2648 2759 
Q 2391 3103 1925 3103 
Q 1463 3103 1205 2759 
Q 947 2416 947 1791 
Q 947 1169 1205 825 
Q 1463 481 1925 481 
Q 2391 481 2648 825 
Q 2906 1169 2906 1791 
z
M 3481 434 
Q 3481 -459 3084 -895 
Q 2688 -1331 1869 -1331 
Q 1566 -1331 1297 -1286 
Q 1028 -1241 775 -1147 
L 775 -588 
Q 1028 -725 1275 -790 
Q 1522 -856 1778 -856 
Q 2344 -856 2625 -561 
Q 2906 -266 2906 331 
L 2906 616 
Q 2728 306 2450 153 
Q 2172 0 1784 0 
Q 1141 0 747 490 
Q 353 981 353 1791 
Q 353 2603 747 3093 
Q 1141 3584 1784 3584 
Q 2172 3584 2450 3431 
Q 2728 3278 2906 2969 
L 2906 3500 
L 3481 3500 
L 3481 434 
z
" transform="scale(0.015625)"/>
      <path id="DejaVuSans-4f" d="M 2522 4238 
Q 1834 4238 1429 3725 
Q 1025 3213 1025 2328 
Q 1025 1447 1429 934 
Q 1834 422 2522 422 
Q 3209 422 3611 934 
Q 4013 1447 4013 2328 
Q 4013 3213 3611 3725 
Q 3209 4238 2522 4238 
z
M 2522 4750 
Q 3503 4750 4090 4092 
Q 4678 3434 4678 2328 
Q 4678 1225 4090 567 
Q 3503 -91 2522 -91 
Q 1538 -91 948 565 
Q 359 1222 359 2328 
Q 359 3434 948 4092 
Q 1538 4750 2522 4750 
z
" transform="scale(0.015625)"/>
      <path id="DejaVuSans-6b" d="M 581 4863 
L 1159 4863 
L 1159 1991 
L 2875 3500 
L 3609 3500 
L 1753 1863 
L 3688 0 
L 2938 0 
L 1159 1709 
L 1159 0 
L 581 0 
L 581 4863 
z
" transform="scale(0.015625)"/>
      <path id="DejaVuSans-68" d="M 3513 2113 
L 3513 0 
L 2938 0 
L 2938 2094 
Q 2938 2591 2744 2837 
Q 2550 3084 2163 3084 
Q 1697 3084 1428 2787 
Q 1159 2491 1159 1978 
L 1159 0 
L 581 0 
L 581 4863 
L 1159 4863 
L 1159 2956 
Q 1366 3272 1645 3428 
Q 1925 3584 2291 3584 
Q 2894 3584 3203 3211 
Q 3513 2838 3513 2113 
z
" transform="scale(0.015625)"/>
     </defs>
     <use xlink:href="#DejaVuSans-44"/>
     <use xlink:href="#DejaVuSans-61" x="77.001953"/>
     <use xlink:href="#DejaVuSans-69" x="138.28125"/>
     <use xlink:href="#DejaVuSans-6c" x="166.064453"/>
     <use xlink:href="#DejaVuSans-79" x="193.847656"/>
     <use xlink:href="#DejaVuSans-20" x="253.027344"/>
     <use xlink:href="#DejaVuSans-43" x="284.814453"/>
     <use xlink:href="#DejaVuSans-6f" x="354.638672"/>
     <use xlink:href="#DejaVuSans-6e" x="415.820312"/>
     <use xlink:href="#DejaVuSans-66" x="479.199219"/>
     <use xlink:href="#DejaVuSans-69" x="514.404297"/>
     <use xlink:href="#DejaVuSans-72" x="542.1875"/>
     <use xlink:href="#DejaVuSans-6d" x="581.550781"/>
     <use xlink:href="#DejaVuSans-65" x="678.962891"/>
     <use xlink:href="#DejaVuSans-64" x="740.486328"/>
     <use xlink:href="#DejaVuSans-20" x="803.962891"/>
     <use xlink:href="#DejaVuSans-43" x="835.75"/>
     <use xlink:href="#DejaVuSans-61" x="905.574219"/>
     <use xlink:href="#DejaVuSans-73" x="966.853516"/>
     <use xlink:href="#DejaVuSans-65" x="1018.953125"/>
     <use xlink:href="#DejaVuSans-73" x="1080.476562"/>
     <use xlink:href="#DejaVuSans-20" x="1132.576172"/>
     <use xlink:href="#DejaVuSans-46" x="1164.363281"/>
     <use xlink:href="#DejaVuSans-6f" x="1218.257812"/>
     <use xlink:href="#DejaVuSans-72" x="1279.439453"/>
     <use xlink:href="#DejaVuSans-65" x="1318.302734"/>
     <use xlink:href="#DejaVuSans-63" x="1379.826172"/>
     <use xlink:href="#DejaVuSans-61" x="1434.806641"/>
     <use xlink:href="#DejaVuSans-73" x="1496.085938"/>
     <use xlink:href="#DejaVuSans-74" x="1548.185547"/>
     <use xlink:href="#DejaVuSans-69" x="1587.394531"/>
     <use xlink:href="#DejaVuSans-6e" x="1615.177734"/>
     <use xlink:href="#DejaVuSans-67" x="1678.556641"/>
     <use xlink:href="#DejaVuSans-20" x="1742.033203"/>
     <use xlink:href="#DejaVuSans-2d" x="1773.820312"/>
     <use xlink:href="#DejaVuSans-20" x="1809.904297"/>
     <use xlink:href="#DejaVuSans-4f" x="1841.691406"/>
     <use xlink:href="#DejaVuSans-6b" x="1920.402344"/>
     <use xlink:href="#DejaVuSans-6c" x="1978.3125"/>
     <use xlink:href="#DejaVuSans-61" x="2006.095703"/>
     <use xlink:href="#DejaVuSans-68" x="2067.375"/>
     <use xlink:href="#DejaVuSans-6f" x="2130.753906"/>
     <use xlink:href="#DejaVuSans-6d" x="2191.935547"/>
     <use xlink:href="#DejaVuSans-61" x="2289.347656"/>
    </g>
    <!-- ARIMA (4, 1, 1)x(1, 0, 0, 7) (R2 = 0.001491) -->
    <g transform="translate(583.628438 29.7555)scale(0.12 -0.12)">
     <defs>
      <path id="DejaVuSans-41" d="M 2188 4044 
L 1331 1722 
L 3047 1722 
L 2188 4044 
z
M 1831 4666 
L 2547 4666 
L 4325 0 
L 3669 0 
L 3244 1197 
L 1141 1197 
L 716 0 
L 50 0 
L 1831 4666 
z
" transform="scale(0.015625)"/>
      <path id="DejaVuSans-52" d="M 2841 2188 
Q 3044 2119 3236 1894 
Q 3428 1669 3622 1275 
L 4263 0 
L 3584 0 
L 2988 1197 
Q 2756 1666 2539 1819 
Q 2322 1972 1947 1972 
L 1259 1972 
L 1259 0 
L 628 0 
L 628 4666 
L 2053 4666 
Q 2853 4666 3247 4331 
Q 3641 3997 3641 3322 
Q 3641 2881 3436 2590 
Q 3231 2300 2841 2188 
z
M 1259 4147 
L 1259 2491 
L 2053 2491 
Q 2509 2491 2742 2702 
Q 2975 2913 2975 3322 
Q 2975 3731 2742 3939 
Q 2509 4147 2053 4147 
L 1259 4147 
z
" transform="scale(0.015625)"/>
      <path id="DejaVuSans-49" d="M 628 4666 
L 1259 4666 
L 1259 0 
L 628 0 
L 628 4666 
z
" transform="scale(0.015625)"/>
      <path id="DejaVuSans-4d" d="M 628 4666 
L 1569 4666 
L 2759 1491 
L 3956 4666 
L 4897 4666 
L 4897 0 
L 4281 0 
L 4281 4097 
L 3078 897 
L 2444 897 
L 1241 4097 
L 1241 0 
L 628 0 
L 628 4666 
z
" transform="scale(0.015625)"/>
      <path id="DejaVuSans-28" d="M 1984 4856 
Q 1566 4138 1362 3434 
Q 1159 2731 1159 2009 
Q 1159 1288 1364 580 
Q 1569 -128 1984 -844 
L 1484 -844 
Q 1016 -109 783 600 
Q 550 1309 550 2009 
Q 550 2706 781 3412 
Q 1013 4119 1484 4856 
L 1984 4856 
z
" transform="scale(0.015625)"/>
      <path id="DejaVuSans-2c" d="M 750 794 
L 1409 794 
L 1409 256 
L 897 -744 
L 494 -744 
L 750 256 
L 750 794 
z
" transform="scale(0.015625)"/>
      <path id="DejaVuSans-29" d="M 513 4856 
L 1013 4856 
Q 1481 4119 1714 3412 
Q 1947 2706 1947 2009 
Q 1947 1309 1714 600 
Q 1481 -109 1013 -844 
L 513 -844 
Q 928 -128 1133 580 
Q 1338 1288 1338 2009 
Q 1338 2731 1133 3434 
Q 928 4138 513 4856 
z
" transform="scale(0.015625)"/>
      <path id="DejaVuSans-78" d="M 3513 3500 
L 2247 1797 
L 3578 0 
L 2900 0 
L 1881 1375 
L 863 0 
L 184 0 
L 1544 1831 
L 300 3500 
L 978 3500 
L 1906 2253 
L 2834 3500 
L 3513 3500 
z
" transform="scale(0.015625)"/>
      <path id="DejaVuSans-3d" d="M 678 2906 
L 4684 2906 
L 4684 2381 
L 678 2381 
L 678 2906 
z
M 678 1631 
L 4684 1631 
L 4684 1100 
L 678 1100 
L 678 1631 
z
" transform="scale(0.015625)"/>
      <path id="DejaVuSans-2e" d="M 684 794 
L 1344 794 
L 1344 0 
L 684 0 
L 684 794 
z
" transform="scale(0.015625)"/>
      <path id="DejaVuSans-39" d="M 703 97 
L 703 672 
Q 941 559 1184 500 
Q 1428 441 1663 441 
Q 2288 441 2617 861 
Q 2947 1281 2994 2138 
Q 2813 1869 2534 1725 
Q 2256 1581 1919 1581 
Q 1219 1581 811 2004 
Q 403 2428 403 3163 
Q 403 3881 828 4315 
Q 1253 4750 1959 4750 
Q 2769 4750 3195 4129 
Q 3622 3509 3622 2328 
Q 3622 1225 3098 567 
Q 2575 -91 1691 -91 
Q 1453 -91 1209 -44 
Q 966 3 703 97 
z
M 1959 2075 
Q 2384 2075 2632 2365 
Q 2881 2656 2881 3163 
Q 2881 3666 2632 3958 
Q 2384 4250 1959 4250 
Q 1534 4250 1286 3958 
Q 1038 3666 1038 3163 
Q 1038 2656 1286 2365 
Q 1534 2075 1959 2075 
z
" transform="scale(0.015625)"/>
     </defs>
     <use xlink:href="#DejaVuSans-41"/>
     <use xlink:href="#DejaVuSans-52" x="68.408203"/>
     <use xlink:href="#DejaVuSans-49" x="137.890625"/>
     <use xlink:href="#DejaVuSans-4d" x="167.382812"/>
     <use xlink:href="#DejaVuSans-41" x="253.662109"/>
     <use xlink:href="#DejaVuSans-20" x="322.070312"/>
     <use xlink:href="#DejaVuSans-28" x="353.857422"/>
     <use xlink:href="#DejaVuSans-34" x="392.871094"/>
     <use xlink:href="#DejaVuSans-2c" x="456.494141"/>
     <use xlink:href="#DejaVuSans-20" x="488.28125"/>
     <use xlink:href="#DejaVuSans-31" x="520.068359"/>
     <use xlink:href="#DejaVuSans-2c" x="583.691406"/>
     <use xlink:href="#DejaVuSans-20" x="615.478516"/>
     <use xlink:href="#DejaVuSans-31" x="647.265625"/>
     <use xlink:href="#DejaVuSans-29" x="710.888672"/>
     <use xlink:href="#DejaVuSans-78" x="749.902344"/>
     <use xlink:href="#DejaVuSans-28" x="809.082031"/>
     <use xlink:href="#DejaVuSans-31" x="848.095703"/>
     <use xlink:href="#DejaVuSans-2c" x="911.71875"/>
     <use xlink:href="#DejaVuSans-20" x="943.505859"/>
     <use xlink:href="#DejaVuSans-30" x="975.292969"/>
     <use xlink:href="#DejaVuSans-2c" x="1038.916016"/>
     <use xlink:href="#DejaVuSans-20" x="1070.703125"/>
     <use xlink:href="#DejaVuSans-30" x="1102.490234"/>
     <use xlink:href="#DejaVuSans-2c" x="1166.113281"/>
     <use xlink:href="#DejaVuSans-20" x="1197.900391"/>
     <use xlink:href="#DejaVuSans-37" x="1229.6875"/>
     <use xlink:href="#DejaVuSans-29" x="1293.310547"/>
     <use xlink:href="#DejaVuSans-20" x="1332.324219"/>
     <use xlink:href="#DejaVuSans-28" x="1364.111328"/>
     <use xlink:href="#DejaVuSans-52" x="1403.125"/>
     <use xlink:href="#DejaVuSans-32" x="1472.607422"/>
     <use xlink:href="#DejaVuSans-20" x="1536.230469"/>
     <use xlink:href="#DejaVuSans-3d" x="1568.017578"/>
     <use xlink:href="#DejaVuSans-20" x="1651.806641"/>
     <use xlink:href="#DejaVuSans-30" x="1683.59375"/>
     <use xlink:href="#DejaVuSans-2e" x="1747.216797"/>
     <use xlink:href="#DejaVuSans-30" x="1779.003906"/>
     <use xlink:href="#DejaVuSans-30" x="1842.626953"/>
     <use xlink:href="#DejaVuSans-31" x="1906.25"/>
     <use xlink:href="#DejaVuSans-34" x="1969.873047"/>
     <use xlink:href="#DejaVuSans-39" x="2033.496094"/>
     <use xlink:href="#DejaVuSans-31" x="2097.119141"/>
     <use xlink:href="#DejaVuSans-29" x="2160.742188"/>
    </g>
   </g>
   <g id="legend_1">
    <g id="patch_7">
     <path d="M 1281.132812 87.789875 
L 1378.2125 87.789875 
Q 1380.2125 87.789875 1380.2125 85.789875 
L 1380.2125 42.7555 
Q 1380.2125 40.7555 1378.2125 40.7555 
L 1281.132812 40.7555 
Q 1279.132812 40.7555 1279.132812 42.7555 
L 1279.132812 85.789875 
Q 1279.132812 87.789875 1281.132812 87.789875 
z
" style="fill: #ffffff; opacity: 0.8; stroke: #cccccc; stroke-linejoin: miter"/>
    </g>
    <g id="line2d_21">
     <path d="M 1283.132812 48.853937 
L 1293.132812 48.853937 
L 1303.132812 48.853937 
" style="fill: none; stroke: #0000ff; stroke-width: 1.5; stroke-linecap: square"/>
    </g>
    <g id="text_19">
     <!-- Actual Value -->
     <g transform="translate(1311.132812 52.353937)scale(0.1 -0.1)">
      <defs>
       <path id="DejaVuSans-75" d="M 544 1381 
L 544 3500 
L 1119 3500 
L 1119 1403 
Q 1119 906 1312 657 
Q 1506 409 1894 409 
Q 2359 409 2629 706 
Q 2900 1003 2900 1516 
L 2900 3500 
L 3475 3500 
L 3475 0 
L 2900 0 
L 2900 538 
Q 2691 219 2414 64 
Q 2138 -91 1772 -91 
Q 1169 -91 856 284 
Q 544 659 544 1381 
z
M 1991 3584 
L 1991 3584 
z
" transform="scale(0.015625)"/>
       <path id="DejaVuSans-56" d="M 1831 0 
L 50 4666 
L 709 4666 
L 2188 738 
L 3669 4666 
L 4325 4666 
L 2547 0 
L 1831 0 
z
" transform="scale(0.015625)"/>
      </defs>
      <use xlink:href="#DejaVuSans-41"/>
      <use xlink:href="#DejaVuSans-63" x="66.658203"/>
      <use xlink:href="#DejaVuSans-74" x="121.638672"/>
      <use xlink:href="#DejaVuSans-75" x="160.847656"/>
      <use xlink:href="#DejaVuSans-61" x="224.226562"/>
      <use xlink:href="#DejaVuSans-6c" x="285.505859"/>
      <use xlink:href="#DejaVuSans-20" x="313.289062"/>
      <use xlink:href="#DejaVuSans-56" x="345.076172"/>
      <use xlink:href="#DejaVuSans-61" x="405.734375"/>
      <use xlink:href="#DejaVuSans-6c" x="467.013672"/>
      <use xlink:href="#DejaVuSans-75" x="494.796875"/>
      <use xlink:href="#DejaVuSans-65" x="558.175781"/>
     </g>
    </g>
    <g id="line2d_22">
     <path d="M 1283.132812 63.532062 
L 1293.132812 63.532062 
L 1303.132812 63.532062 
" style="fill: none; stroke: #ffa500; stroke-width: 1.5; stroke-linecap: square"/>
    </g>
    <g id="text_20">
     <!-- Check Value -->
     <g transform="translate(1311.132812 67.032062)scale(0.1 -0.1)">
      <use xlink:href="#DejaVuSans-43"/>
      <use xlink:href="#DejaVuSans-68" x="69.824219"/>
      <use xlink:href="#DejaVuSans-65" x="133.203125"/>
      <use xlink:href="#DejaVuSans-63" x="194.726562"/>
      <use xlink:href="#DejaVuSans-6b" x="249.707031"/>
      <use xlink:href="#DejaVuSans-20" x="307.617188"/>
      <use xlink:href="#DejaVuSans-56" x="339.404297"/>
      <use xlink:href="#DejaVuSans-61" x="400.0625"/>
      <use xlink:href="#DejaVuSans-6c" x="461.341797"/>
      <use xlink:href="#DejaVuSans-75" x="489.125"/>
      <use xlink:href="#DejaVuSans-65" x="552.503906"/>
     </g>
    </g>
    <g id="line2d_23">
     <path d="M 1283.132812 78.210187 
L 1293.132812 78.210187 
L 1303.132812 78.210187 
" style="fill: none; stroke: #ff0000; stroke-width: 1.5; stroke-linecap: square"/>
    </g>
    <g id="text_21">
     <!-- Predict Value -->
     <g transform="translate(1311.132812 81.710187)scale(0.1 -0.1)">
      <defs>
       <path id="DejaVuSans-50" d="M 1259 4147 
L 1259 2394 
L 2053 2394 
Q 2494 2394 2734 2622 
Q 2975 2850 2975 3272 
Q 2975 3691 2734 3919 
Q 2494 4147 2053 4147 
L 1259 4147 
z
M 628 4666 
L 2053 4666 
Q 2838 4666 3239 4311 
Q 3641 3956 3641 3272 
Q 3641 2581 3239 2228 
Q 2838 1875 2053 1875 
L 1259 1875 
L 1259 0 
L 628 0 
L 628 4666 
z
" transform="scale(0.015625)"/>
      </defs>
      <use xlink:href="#DejaVuSans-50"/>
      <use xlink:href="#DejaVuSans-72" x="58.552734"/>
      <use xlink:href="#DejaVuSans-65" x="97.416016"/>
      <use xlink:href="#DejaVuSans-64" x="158.939453"/>
      <use xlink:href="#DejaVuSans-69" x="222.416016"/>
      <use xlink:href="#DejaVuSans-63" x="250.199219"/>
      <use xlink:href="#DejaVuSans-74" x="305.179688"/>
      <use xlink:href="#DejaVuSans-20" x="344.388672"/>
      <use xlink:href="#DejaVuSans-56" x="376.175781"/>
      <use xlink:href="#DejaVuSans-61" x="436.833984"/>
      <use xlink:href="#DejaVuSans-6c" x="498.113281"/>
      <use xlink:href="#DejaVuSans-75" x="525.896484"/>
      <use xlink:href="#DejaVuSans-65" x="589.275391"/>
     </g>
    </g>
   </g>
  </g>
 </g>
 <defs>
  <clipPath id="p410d17b267">
   <rect x="46.0125" y="35.7555" width="1339.2" height="332.64"/>
  </clipPath>
 </defs>
</svg>
