<?xml version="1.0" encoding="utf-8" standalone="no"?>
<!DOCTYPE svg PUBLIC "-//W3C//DTD SVG 1.1//EN"
  "http://www.w3.org/Graphics/SVG/1.1/DTD/svg11.dtd">
<svg xmlns:xlink="http://www.w3.org/1999/xlink" width="1392.4125pt" height="392.273625pt" viewBox="0 0 1392.4125 392.273625" xmlns="http://www.w3.org/2000/svg" version="1.1">
 <metadata>
  <rdf:RDF xmlns:dc="http://purl.org/dc/elements/1.1/" xmlns:cc="http://creativecommons.org/ns#" xmlns:rdf="http://www.w3.org/1999/02/22-rdf-syntax-ns#">
   <cc:Work>
    <dc:type rdf:resource="http://purl.org/dc/dcmitype/StillImage"/>
    <dc:date>2022-07-12T17:38:42.446022</dc:date>
    <dc:format>image/svg+xml</dc:format>
    <dc:creator>
     <cc:Agent>
      <dc:title>Matplotlib v3.5.2, https://matplotlib.org/</dc:title>
     </cc:Agent>
    </dc:creator>
   </cc:Work>
  </rdf:RDF>
 </metadata>
 <defs>
  <style type="text/css">*{stroke-linejoin: round; stroke-linecap: butt}</style>
 </defs>
 <g id="figure_1">
  <g id="patch_1">
   <path d="M 0 392.273625 
L 1392.4125 392.273625 
L 1392.4125 0 
L 0 0 
z
" style="fill: #ffffff"/>
  </g>
  <g id="axes_1">
   <g id="patch_2">
    <path d="M 46.0125 368.3955 
L 1385.2125 368.3955 
L 1385.2125 35.7555 
L 46.0125 35.7555 
z
" style="fill: #ffffff"/>
   </g>
   <g id="matplotlib.axis_1">
    <g id="xtick_1">
     <g id="line2d_1">
      <defs>
       <path id="m68bed49e5c" d="M 0 0 
L 0 3.5 
" style="stroke: #000000; stroke-width: 0.8"/>
      </defs>
      <g>
       <use xlink:href="#m68bed49e5c" x="77.548973" y="368.3955" style="stroke: #000000; stroke-width: 0.8"/>
      </g>
     </g>
     <g id="text_1">
      <!-- 2020-01 -->
      <g transform="translate(56.657567 382.993937)scale(0.1 -0.1)">
       <defs>
        <path id="DejaVuSans-32" d="M 1228 531 
L 3431 531 
L 3431 0 
L 469 0 
L 469 531 
Q 828 903 1448 1529 
Q 2069 2156 2228 2338 
Q 2531 2678 2651 2914 
Q 2772 3150 2772 3378 
Q 2772 3750 2511 3984 
Q 2250 4219 1831 4219 
Q 1534 4219 1204 4116 
Q 875 4013 500 3803 
L 500 4441 
Q 881 4594 1212 4672 
Q 1544 4750 1819 4750 
Q 2544 4750 2975 4387 
Q 3406 4025 3406 3419 
Q 3406 3131 3298 2873 
Q 3191 2616 2906 2266 
Q 2828 2175 2409 1742 
Q 1991 1309 1228 531 
z
" transform="scale(0.015625)"/>
        <path id="DejaVuSans-30" d="M 2034 4250 
Q 1547 4250 1301 3770 
Q 1056 3291 1056 2328 
Q 1056 1369 1301 889 
Q 1547 409 2034 409 
Q 2525 409 2770 889 
Q 3016 1369 3016 2328 
Q 3016 3291 2770 3770 
Q 2525 4250 2034 4250 
z
M 2034 4750 
Q 2819 4750 3233 4129 
Q 3647 3509 3647 2328 
Q 3647 1150 3233 529 
Q 2819 -91 2034 -91 
Q 1250 -91 836 529 
Q 422 1150 422 2328 
Q 422 3509 836 4129 
Q 1250 4750 2034 4750 
z
" transform="scale(0.015625)"/>
        <path id="DejaVuSans-2d" d="M 313 2009 
L 1997 2009 
L 1997 1497 
L 313 1497 
L 313 2009 
z
" transform="scale(0.015625)"/>
        <path id="DejaVuSans-31" d="M 794 531 
L 1825 531 
L 1825 4091 
L 703 3866 
L 703 4441 
L 1819 4666 
L 2450 4666 
L 2450 531 
L 3481 531 
L 3481 0 
L 794 0 
L 794 531 
z
" transform="scale(0.015625)"/>
       </defs>
       <use xlink:href="#DejaVuSans-32"/>
       <use xlink:href="#DejaVuSans-30" x="63.623047"/>
       <use xlink:href="#DejaVuSans-32" x="127.246094"/>
       <use xlink:href="#DejaVuSans-30" x="190.869141"/>
       <use xlink:href="#DejaVuSans-2d" x="254.492188"/>
       <use xlink:href="#DejaVuSans-30" x="290.576172"/>
       <use xlink:href="#DejaVuSans-31" x="354.199219"/>
      </g>
     </g>
    </g>
    <g id="xtick_2">
     <g id="line2d_2">
      <g>
       <use xlink:href="#m68bed49e5c" x="198.894388" y="368.3955" style="stroke: #000000; stroke-width: 0.8"/>
      </g>
     </g>
     <g id="text_2">
      <!-- 2020-04 -->
      <g transform="translate(178.002982 382.993937)scale(0.1 -0.1)">
       <defs>
        <path id="DejaVuSans-34" d="M 2419 4116 
L 825 1625 
L 2419 1625 
L 2419 4116 
z
M 2253 4666 
L 3047 4666 
L 3047 1625 
L 3713 1625 
L 3713 1100 
L 3047 1100 
L 3047 0 
L 2419 0 
L 2419 1100 
L 313 1100 
L 313 1709 
L 2253 4666 
z
" transform="scale(0.015625)"/>
       </defs>
       <use xlink:href="#DejaVuSans-32"/>
       <use xlink:href="#DejaVuSans-30" x="63.623047"/>
       <use xlink:href="#DejaVuSans-32" x="127.246094"/>
       <use xlink:href="#DejaVuSans-30" x="190.869141"/>
       <use xlink:href="#DejaVuSans-2d" x="254.492188"/>
       <use xlink:href="#DejaVuSans-30" x="290.576172"/>
       <use xlink:href="#DejaVuSans-34" x="354.199219"/>
      </g>
     </g>
    </g>
    <g id="xtick_3">
     <g id="line2d_3">
      <g>
       <use xlink:href="#m68bed49e5c" x="320.239803" y="368.3955" style="stroke: #000000; stroke-width: 0.8"/>
      </g>
     </g>
     <g id="text_3">
      <!-- 2020-07 -->
      <g transform="translate(299.348396 382.993937)scale(0.1 -0.1)">
       <defs>
        <path id="DejaVuSans-37" d="M 525 4666 
L 3525 4666 
L 3525 4397 
L 1831 0 
L 1172 0 
L 2766 4134 
L 525 4134 
L 525 4666 
z
" transform="scale(0.015625)"/>
       </defs>
       <use xlink:href="#DejaVuSans-32"/>
       <use xlink:href="#DejaVuSans-30" x="63.623047"/>
       <use xlink:href="#DejaVuSans-32" x="127.246094"/>
       <use xlink:href="#DejaVuSans-30" x="190.869141"/>
       <use xlink:href="#DejaVuSans-2d" x="254.492188"/>
       <use xlink:href="#DejaVuSans-30" x="290.576172"/>
       <use xlink:href="#DejaVuSans-37" x="354.199219"/>
      </g>
     </g>
    </g>
    <g id="xtick_4">
     <g id="line2d_4">
      <g>
       <use xlink:href="#m68bed49e5c" x="442.918683" y="368.3955" style="stroke: #000000; stroke-width: 0.8"/>
      </g>
     </g>
     <g id="text_4">
      <!-- 2020-10 -->
      <g transform="translate(422.027277 382.993937)scale(0.1 -0.1)">
       <use xlink:href="#DejaVuSans-32"/>
       <use xlink:href="#DejaVuSans-30" x="63.623047"/>
       <use xlink:href="#DejaVuSans-32" x="127.246094"/>
       <use xlink:href="#DejaVuSans-30" x="190.869141"/>
       <use xlink:href="#DejaVuSans-2d" x="254.492188"/>
       <use xlink:href="#DejaVuSans-31" x="290.576172"/>
       <use xlink:href="#DejaVuSans-30" x="354.199219"/>
      </g>
     </g>
    </g>
    <g id="xtick_5">
     <g id="line2d_5">
      <g>
       <use xlink:href="#m68bed49e5c" x="565.597564" y="368.3955" style="stroke: #000000; stroke-width: 0.8"/>
      </g>
     </g>
     <g id="text_5">
      <!-- 2021-01 -->
      <g transform="translate(544.706158 382.993937)scale(0.1 -0.1)">
       <use xlink:href="#DejaVuSans-32"/>
       <use xlink:href="#DejaVuSans-30" x="63.623047"/>
       <use xlink:href="#DejaVuSans-32" x="127.246094"/>
       <use xlink:href="#DejaVuSans-31" x="190.869141"/>
       <use xlink:href="#DejaVuSans-2d" x="254.492188"/>
       <use xlink:href="#DejaVuSans-30" x="290.576172"/>
       <use xlink:href="#DejaVuSans-31" x="354.199219"/>
      </g>
     </g>
    </g>
    <g id="xtick_6">
     <g id="line2d_6">
      <g>
       <use xlink:href="#m68bed49e5c" x="685.609513" y="368.3955" style="stroke: #000000; stroke-width: 0.8"/>
      </g>
     </g>
     <g id="text_6">
      <!-- 2021-04 -->
      <g transform="translate(664.718107 382.993937)scale(0.1 -0.1)">
       <use xlink:href="#DejaVuSans-32"/>
       <use xlink:href="#DejaVuSans-30" x="63.623047"/>
       <use xlink:href="#DejaVuSans-32" x="127.246094"/>
       <use xlink:href="#DejaVuSans-31" x="190.869141"/>
       <use xlink:href="#DejaVuSans-2d" x="254.492188"/>
       <use xlink:href="#DejaVuSans-30" x="290.576172"/>
       <use xlink:href="#DejaVuSans-34" x="354.199219"/>
      </g>
     </g>
    </g>
    <g id="xtick_7">
     <g id="line2d_7">
      <g>
       <use xlink:href="#m68bed49e5c" x="806.954928" y="368.3955" style="stroke: #000000; stroke-width: 0.8"/>
      </g>
     </g>
     <g id="text_7">
      <!-- 2021-07 -->
      <g transform="translate(786.063521 382.993937)scale(0.1 -0.1)">
       <use xlink:href="#DejaVuSans-32"/>
       <use xlink:href="#DejaVuSans-30" x="63.623047"/>
       <use xlink:href="#DejaVuSans-32" x="127.246094"/>
       <use xlink:href="#DejaVuSans-31" x="190.869141"/>
       <use xlink:href="#DejaVuSans-2d" x="254.492188"/>
       <use xlink:href="#DejaVuSans-30" x="290.576172"/>
       <use xlink:href="#DejaVuSans-37" x="354.199219"/>
      </g>
     </g>
    </g>
    <g id="xtick_8">
     <g id="line2d_8">
      <g>
       <use xlink:href="#m68bed49e5c" x="929.633808" y="368.3955" style="stroke: #000000; stroke-width: 0.8"/>
      </g>
     </g>
     <g id="text_8">
      <!-- 2021-10 -->
      <g transform="translate(908.742402 382.993937)scale(0.1 -0.1)">
       <use xlink:href="#DejaVuSans-32"/>
       <use xlink:href="#DejaVuSans-30" x="63.623047"/>
       <use xlink:href="#DejaVuSans-32" x="127.246094"/>
       <use xlink:href="#DejaVuSans-31" x="190.869141"/>
       <use xlink:href="#DejaVuSans-2d" x="254.492188"/>
       <use xlink:href="#DejaVuSans-31" x="290.576172"/>
       <use xlink:href="#DejaVuSans-30" x="354.199219"/>
      </g>
     </g>
    </g>
    <g id="xtick_9">
     <g id="line2d_9">
      <g>
       <use xlink:href="#m68bed49e5c" x="1052.312689" y="368.3955" style="stroke: #000000; stroke-width: 0.8"/>
      </g>
     </g>
     <g id="text_9">
      <!-- 2022-01 -->
      <g transform="translate(1031.421283 382.993937)scale(0.1 -0.1)">
       <use xlink:href="#DejaVuSans-32"/>
       <use xlink:href="#DejaVuSans-30" x="63.623047"/>
       <use xlink:href="#DejaVuSans-32" x="127.246094"/>
       <use xlink:href="#DejaVuSans-32" x="190.869141"/>
       <use xlink:href="#DejaVuSans-2d" x="254.492188"/>
       <use xlink:href="#DejaVuSans-30" x="290.576172"/>
       <use xlink:href="#DejaVuSans-31" x="354.199219"/>
      </g>
     </g>
    </g>
    <g id="xtick_10">
     <g id="line2d_10">
      <g>
       <use xlink:href="#m68bed49e5c" x="1172.324638" y="368.3955" style="stroke: #000000; stroke-width: 0.8"/>
      </g>
     </g>
     <g id="text_10">
      <!-- 2022-04 -->
      <g transform="translate(1151.433232 382.993937)scale(0.1 -0.1)">
       <use xlink:href="#DejaVuSans-32"/>
       <use xlink:href="#DejaVuSans-30" x="63.623047"/>
       <use xlink:href="#DejaVuSans-32" x="127.246094"/>
       <use xlink:href="#DejaVuSans-32" x="190.869141"/>
       <use xlink:href="#DejaVuSans-2d" x="254.492188"/>
       <use xlink:href="#DejaVuSans-30" x="290.576172"/>
       <use xlink:href="#DejaVuSans-34" x="354.199219"/>
      </g>
     </g>
    </g>
    <g id="xtick_11">
     <g id="line2d_11">
      <g>
       <use xlink:href="#m68bed49e5c" x="1293.670053" y="368.3955" style="stroke: #000000; stroke-width: 0.8"/>
      </g>
     </g>
     <g id="text_11">
      <!-- 2022-07 -->
      <g transform="translate(1272.778646 382.993937)scale(0.1 -0.1)">
       <use xlink:href="#DejaVuSans-32"/>
       <use xlink:href="#DejaVuSans-30" x="63.623047"/>
       <use xlink:href="#DejaVuSans-32" x="127.246094"/>
       <use xlink:href="#DejaVuSans-32" x="190.869141"/>
       <use xlink:href="#DejaVuSans-2d" x="254.492188"/>
       <use xlink:href="#DejaVuSans-30" x="290.576172"/>
       <use xlink:href="#DejaVuSans-37" x="354.199219"/>
      </g>
     </g>
    </g>
   </g>
   <g id="matplotlib.axis_2">
    <g id="ytick_1">
     <g id="line2d_12">
      <defs>
       <path id="mcf5b896daf" d="M 0 0 
L -3.5 0 
" style="stroke: #000000; stroke-width: 0.8"/>
      </defs>
      <g>
       <use xlink:href="#mcf5b896daf" x="46.0125" y="330.382189" style="stroke: #000000; stroke-width: 0.8"/>
      </g>
     </g>
     <g id="text_12">
      <!-- 0 -->
      <g transform="translate(32.65 334.181407)scale(0.1 -0.1)">
       <use xlink:href="#DejaVuSans-30"/>
      </g>
     </g>
    </g>
    <g id="ytick_2">
     <g id="line2d_13">
      <g>
       <use xlink:href="#mcf5b896daf" x="46.0125" y="280.027881" style="stroke: #000000; stroke-width: 0.8"/>
      </g>
     </g>
     <g id="text_13">
      <!-- 5000 -->
      <g transform="translate(13.5625 283.8271)scale(0.1 -0.1)">
       <defs>
        <path id="DejaVuSans-35" d="M 691 4666 
L 3169 4666 
L 3169 4134 
L 1269 4134 
L 1269 2991 
Q 1406 3038 1543 3061 
Q 1681 3084 1819 3084 
Q 2600 3084 3056 2656 
Q 3513 2228 3513 1497 
Q 3513 744 3044 326 
Q 2575 -91 1722 -91 
Q 1428 -91 1123 -41 
Q 819 9 494 109 
L 494 744 
Q 775 591 1075 516 
Q 1375 441 1709 441 
Q 2250 441 2565 725 
Q 2881 1009 2881 1497 
Q 2881 1984 2565 2268 
Q 2250 2553 1709 2553 
Q 1456 2553 1204 2497 
Q 953 2441 691 2322 
L 691 4666 
z
" transform="scale(0.015625)"/>
       </defs>
       <use xlink:href="#DejaVuSans-35"/>
       <use xlink:href="#DejaVuSans-30" x="63.623047"/>
       <use xlink:href="#DejaVuSans-30" x="127.246094"/>
       <use xlink:href="#DejaVuSans-30" x="190.869141"/>
      </g>
     </g>
    </g>
    <g id="ytick_3">
     <g id="line2d_14">
      <g>
       <use xlink:href="#mcf5b896daf" x="46.0125" y="229.673574" style="stroke: #000000; stroke-width: 0.8"/>
      </g>
     </g>
     <g id="text_14">
      <!-- 10000 -->
      <g transform="translate(7.2 233.472793)scale(0.1 -0.1)">
       <use xlink:href="#DejaVuSans-31"/>
       <use xlink:href="#DejaVuSans-30" x="63.623047"/>
       <use xlink:href="#DejaVuSans-30" x="127.246094"/>
       <use xlink:href="#DejaVuSans-30" x="190.869141"/>
       <use xlink:href="#DejaVuSans-30" x="254.492188"/>
      </g>
     </g>
    </g>
    <g id="ytick_4">
     <g id="line2d_15">
      <g>
       <use xlink:href="#mcf5b896daf" x="46.0125" y="179.319267" style="stroke: #000000; stroke-width: 0.8"/>
      </g>
     </g>
     <g id="text_15">
      <!-- 15000 -->
      <g transform="translate(7.2 183.118486)scale(0.1 -0.1)">
       <use xlink:href="#DejaVuSans-31"/>
       <use xlink:href="#DejaVuSans-35" x="63.623047"/>
       <use xlink:href="#DejaVuSans-30" x="127.246094"/>
       <use xlink:href="#DejaVuSans-30" x="190.869141"/>
       <use xlink:href="#DejaVuSans-30" x="254.492188"/>
      </g>
     </g>
    </g>
    <g id="ytick_5">
     <g id="line2d_16">
      <g>
       <use xlink:href="#mcf5b896daf" x="46.0125" y="128.96496" style="stroke: #000000; stroke-width: 0.8"/>
      </g>
     </g>
     <g id="text_16">
      <!-- 20000 -->
      <g transform="translate(7.2 132.764178)scale(0.1 -0.1)">
       <use xlink:href="#DejaVuSans-32"/>
       <use xlink:href="#DejaVuSans-30" x="63.623047"/>
       <use xlink:href="#DejaVuSans-30" x="127.246094"/>
       <use xlink:href="#DejaVuSans-30" x="190.869141"/>
       <use xlink:href="#DejaVuSans-30" x="254.492188"/>
      </g>
     </g>
    </g>
    <g id="ytick_6">
     <g id="line2d_17">
      <g>
       <use xlink:href="#mcf5b896daf" x="46.0125" y="78.610652" style="stroke: #000000; stroke-width: 0.8"/>
      </g>
     </g>
     <g id="text_17">
      <!-- 25000 -->
      <g transform="translate(7.2 82.409871)scale(0.1 -0.1)">
       <use xlink:href="#DejaVuSans-32"/>
       <use xlink:href="#DejaVuSans-35" x="63.623047"/>
       <use xlink:href="#DejaVuSans-30" x="127.246094"/>
       <use xlink:href="#DejaVuSans-30" x="190.869141"/>
       <use xlink:href="#DejaVuSans-30" x="254.492188"/>
      </g>
     </g>
    </g>
   </g>
   <g id="line2d_18">
    <path d="M 106.885227 330.382189 
L 180.225863 330.382189 
L 181.559329 330.110275 
L 182.892795 330.331834 
L 185.559727 330.241196 
L 188.226659 330.130417 
L 190.893591 329.536236 
L 196.227456 329.858504 
L 197.560922 329.506024 
L 198.894388 328.841347 
L 200.227854 328.770851 
L 201.56132 329.284465 
L 202.894786 328.660071 
L 204.228252 329.445598 
L 205.561718 329.626874 
L 206.895184 328.921914 
L 208.228651 329.858504 
L 209.562117 328.770851 
L 210.895583 329.294535 
L 212.229049 329.636945 
L 213.562515 329.354961 
L 214.895981 329.385173 
L 216.229447 329.224039 
L 217.562913 329.58659 
L 220.229845 329.294535 
L 221.563312 330.382189 
L 222.896778 329.354961 
L 225.56371 329.103189 
L 226.897176 329.506024 
L 228.230642 329.143473 
L 229.564108 329.334819 
L 230.897574 329.647016 
L 232.23104 329.777937 
L 233.564506 330.110275 
L 234.897972 329.083047 
L 236.231439 329.747724 
L 237.564905 328.921914 
L 238.898371 329.072977 
L 240.231837 329.34489 
L 241.565303 329.163614 
L 242.898769 329.657086 
L 244.232235 329.546307 
L 245.565701 329.626874 
L 246.899167 329.093118 
L 249.5661 329.717512 
L 250.899566 329.385173 
L 252.233032 330.140488 
L 253.566498 329.183756 
L 254.899964 329.11326 
L 256.23343 329.324748 
L 258.900362 328.871559 
L 260.233828 329.647016 
L 261.567294 329.495953 
L 262.90076 329.46574 
L 264.234227 329.949141 
L 265.567693 328.891701 
L 266.901159 328.680213 
L 268.234625 329.264323 
L 270.901557 329.848433 
L 272.235023 329.898787 
L 273.568489 329.46574 
L 274.901955 329.939071 
L 277.568888 329.57652 
L 278.902354 330.382189 
L 280.23582 328.821205 
L 281.569286 329.183756 
L 285.569684 329.375102 
L 286.90315 329.858504 
L 288.236616 329.46574 
L 289.570082 329.828291 
L 290.903548 328.790992 
L 292.237015 329.173685 
L 293.570481 328.942055 
L 294.903947 328.136386 
L 296.237413 328.126316 
L 297.570879 328.790992 
L 298.904345 328.509008 
L 301.571277 327.773835 
L 302.904743 325.84023 
L 304.238209 326.837245 
L 305.571676 327.048733 
L 306.905142 325.568317 
L 308.238608 328.186741 
L 309.572074 327.391143 
L 310.90554 325.558246 
L 313.572472 326.363915 
L 314.905938 327.371001 
L 316.239404 327.350859 
L 317.57287 328.086032 
L 318.906337 324.520947 
L 320.239803 326.736537 
L 321.573269 326.232994 
L 322.906735 324.964065 
L 324.240201 324.55116 
L 325.573667 327.532135 
L 326.907133 326.041647 
L 328.240599 321.741389 
L 329.574065 323.594428 
L 330.907531 324.309459 
L 332.240997 324.390026 
L 333.574464 323.463507 
L 334.90793 325.789876 
L 336.241396 325.235978 
L 337.574862 320.371752 
L 338.908328 319.566083 
L 340.241794 324.077829 
L 341.57526 323.332586 
L 342.908726 321.147209 
L 344.242192 328.277378 
L 345.575658 328.670142 
L 346.909125 321.419122 
L 348.242591 320.593311 
L 349.576057 323.62464 
L 350.909523 318.83091 
L 352.242989 320.663807 
L 353.576455 318.256871 
L 354.909921 316.282982 
L 356.243387 319.40495 
L 357.576853 321.842098 
L 358.910319 319.133036 
L 360.243785 322.859255 
L 361.577252 317.854037 
L 362.910718 325.407183 
L 364.244184 326.585474 
L 365.57765 321.711177 
L 366.911116 319.29417 
L 368.244582 321.952877 
L 369.578048 321.781673 
L 370.911514 322.073728 
L 372.24498 325.48775 
L 373.578446 326.384057 
L 374.911913 322.67798 
L 376.245379 323.634711 
L 377.578845 323.282231 
L 378.912311 322.385925 
L 380.245777 321.308342 
L 381.579243 324.90364 
L 382.912709 326.666041 
L 384.246175 324.329601 
L 385.579641 324.228892 
L 386.913107 322.869326 
L 388.246573 319.535871 
L 389.58004 321.791744 
L 390.913506 324.682081 
L 392.246972 326.786891 
L 393.580438 323.836129 
L 394.913904 323.674995 
L 396.24737 323.211735 
L 397.580836 323.231877 
L 398.914302 319.374737 
L 400.247768 322.667909 
L 401.581234 324.19868 
L 404.248167 323.131168 
L 405.581633 321.227775 
L 406.915099 320.180406 
L 408.248565 318.83091 
L 409.582031 326.152427 
L 410.915497 324.20875 
L 412.248963 321.993161 
L 413.582429 321.560114 
L 414.915895 322.617554 
L 416.249361 320.895437 
L 417.582828 320.140122 
L 418.916294 323.38294 
L 420.24976 321.63061 
L 421.583226 319.394879 
L 422.916692 320.613453 
L 424.250158 319.968918 
L 425.583624 317.803683 
L 426.91709 317.924533 
L 428.250556 320.281114 
L 429.584022 319.29417 
L 430.917489 318.659706 
L 432.250955 319.41502 
L 433.584421 319.475446 
L 434.917887 317.531769 
L 436.251353 320.412036 
L 437.584819 322.09387 
L 438.918285 321.711177 
L 440.251751 320.059556 
L 441.585217 320.512744 
L 442.918683 318.599281 
L 444.25215 318.397863 
L 445.585616 318.407934 
L 446.919082 330.382189 
L 448.252548 317.954745 
L 449.586014 316.645534 
L 450.91948 320.250902 
L 452.252946 318.176304 
L 453.586412 315.034196 
L 454.919878 314.943558 
L 456.253344 322.667909 
L 457.58681 322.355712 
L 458.920277 317.199431 
L 460.253743 319.082682 
L 461.587209 318.085667 
L 462.920675 315.55788 
L 465.587607 322.013303 
L 466.921073 322.587342 
L 468.254539 315.527668 
L 469.588005 317.219573 
L 470.921471 313.986826 
L 472.254938 316.554896 
L 473.588404 311.962583 
L 474.92187 319.797713 
L 476.255336 323.705207 
L 477.588802 320.210618 
L 478.922268 322.899538 
L 480.255734 319.898422 
L 481.5892 317.269927 
L 482.922666 317.622407 
L 484.256132 316.796596 
L 485.589598 319.465375 
L 486.923065 316.977872 
L 488.256531 317.833895 
L 489.589997 309.223309 
L 490.923463 311.469111 
L 492.256929 330.382189 
L 493.590395 284.992816 
L 494.923861 308.256506 
L 496.257327 313.241582 
L 497.590793 308.457923 
L 498.924259 306.645168 
L 500.257726 303.523201 
L 501.591192 301.710446 
L 502.924658 290.874199 
L 505.59159 314.762282 
L 506.925056 299.9984 
L 508.258522 301.025627 
L 509.591988 300.965202 
L 510.925454 293.492623 
L 512.25892 296.080834 
L 513.592386 294.691056 
L 514.925853 302.828312 
L 516.259319 292.797734 
L 517.592785 330.382189 
L 520.259717 267.368808 
L 521.593183 313.050236 
L 522.926649 308.226293 
L 524.260115 312.889102 
L 525.593581 301.589596 
L 526.927047 313.191228 
L 528.260514 281.77014 
L 529.59398 286.372524 
L 530.927446 297.742527 
L 532.260912 311.217339 
L 533.594378 307.24942 
L 534.927844 307.148711 
L 536.26131 305.607869 
L 537.594776 291.065545 
L 538.928242 290.239735 
L 540.261708 286.684721 
L 541.595174 309.152813 
L 542.928641 307.843601 
L 544.262107 297.712314 
L 545.595573 300.340809 
L 548.262505 288.890239 
L 549.595971 280.098377 
L 550.929437 304.077098 
L 552.262903 308.216222 
L 553.596369 293.422127 
L 554.929835 297.269196 
L 556.263302 330.382189 
L 557.596768 290.350514 
L 558.930234 303.74476 
L 560.2637 295.355732 
L 561.597166 318.146092 
L 562.930632 297.410188 
L 564.264098 290.934624 
L 565.597564 330.382189 
L 566.93103 278.678386 
L 568.264496 249.493029 
L 569.597963 303.029729 
L 570.931429 315.185259 
L 572.264895 296.906645 
L 573.598361 292.05249 
L 574.931827 277.570591 
L 576.265293 287.047272 
L 577.598759 264.941731 
L 578.932225 291.065545 
L 580.265691 308.014805 
L 581.599157 290.904412 
L 582.932623 298.669046 
L 584.26609 294.691056 
L 585.599556 293.80482 
L 586.933022 296.816007 
L 588.266488 311.700741 
L 589.599954 314.510511 
L 590.93342 310.200182 
L 592.266886 303.180792 
L 593.600352 300.552297 
L 594.933818 288.336342 
L 597.600751 312.415772 
L 598.934217 314.349377 
L 600.267683 303.090154 
L 601.601149 306.90701 
L 602.934615 302.173706 
L 604.268081 306.353113 
L 605.601547 301.277399 
L 606.935013 316.14199 
L 608.268479 317.169218 
L 609.601945 308.840616 
L 610.935411 302.22406 
L 612.268878 303.503059 
L 613.602344 309.606001 
L 614.93581 308.30686 
L 616.269276 319.737288 
L 617.602742 319.495587 
L 618.936208 313.543708 
L 620.269674 313.302008 
L 621.60314 315.890219 
L 622.936606 315.537739 
L 624.270072 317.521698 
L 625.603539 323.010318 
L 626.937005 325.185624 
L 628.270471 319.515729 
L 629.603937 323.96705 
L 630.937403 321.550043 
L 632.270869 320.522815 
L 633.604335 319.837997 
L 634.937801 325.235978 
L 636.271267 326.686182 
L 637.604733 322.174436 
L 638.938199 318.770485 
L 640.271666 321.610468 
L 641.605132 322.516846 
L 642.938598 323.191593 
L 644.272064 326.464623 
L 645.60553 329.183756 
L 646.938996 322.768617 
L 648.272462 321.308342 
L 649.605928 321.086783 
L 650.939394 320.412036 
L 652.27286 325.669025 
L 653.606327 328.539221 
L 654.939793 327.572418 
L 656.273259 322.003232 
L 657.606725 323.27216 
L 658.940191 326.061789 
L 660.273657 323.977121 
L 661.607123 325.336687 
L 662.940589 327.089017 
L 664.274055 327.934969 
L 665.607521 325.286333 
L 666.940988 324.621656 
L 668.274454 326.102072 
L 669.60792 330.331834 
L 670.941386 330.301622 
L 672.274852 320.563099 
L 673.608318 328.378087 
L 674.941784 325.246049 
L 676.27525 326.535119 
L 677.608716 325.6086 
L 678.942182 330.271409 
L 680.275648 330.251267 
L 681.609115 321.409051 
L 682.942581 329.072977 
L 684.276047 326.353844 
L 685.609513 326.112143 
L 686.942979 326.54519 
L 688.276445 330.362047 
L 689.609911 330.382189 
L 690.943377 321.429193 
L 692.276843 343.413883 
L 693.610309 312.617189 
L 694.943776 325.517962 
L 696.277242 326.19271 
L 697.610708 330.382189 
L 698.944174 330.382189 
L 700.27764 320.633595 
L 701.611106 329.284465 
L 702.944572 326.89767 
L 704.278038 326.736537 
L 705.611504 327.632843 
L 706.94497 330.382189 
L 708.278436 330.382189 
L 709.611903 322.456421 
L 710.945369 329.626874 
L 712.278835 327.985323 
L 713.612301 327.532135 
L 714.945767 327.320647 
L 716.279233 330.382189 
L 717.612699 330.382189 
L 718.946165 323.050601 
L 720.279631 329.224039 
L 721.613097 327.874544 
L 722.946564 327.47171 
L 724.28003 326.615686 
L 725.613496 330.382189 
L 726.946962 330.382189 
L 728.280428 324.67201 
L 729.613894 328.680213 
L 730.94736 328.116245 
L 732.280826 328.891701 
L 733.614292 328.025607 
L 734.947758 330.382189 
L 736.281224 330.382189 
L 737.614691 323.664924 
L 738.948157 329.526165 
L 740.281623 328.942055 
L 741.615089 328.841347 
L 742.948555 328.861488 
L 744.282021 330.382189 
L 745.615487 330.382189 
L 746.948953 326.041647 
L 748.282419 329.667157 
L 750.949352 328.65 
L 752.282818 328.519079 
L 753.616284 330.382189 
L 754.94975 330.382189 
L 756.283216 325.769734 
L 757.616682 329.485882 
L 758.950148 329.183756 
L 761.61708 328.931984 
L 762.950546 330.382189 
L 765.617479 330.382189 
L 766.950945 325.689167 
L 768.284411 329.959212 
L 769.617877 329.224039 
L 770.951343 328.851418 
L 772.284809 330.382189 
L 773.618275 330.382189 
L 774.951741 326.978237 
L 776.285207 329.57652 
L 777.618673 329.133402 
L 778.95214 329.153543 
L 780.285606 328.589575 
L 781.619072 330.382189 
L 782.952538 330.382189 
L 784.286004 325.447466 
L 785.61947 329.929 
L 786.952936 328.206882 
L 788.286402 328.277378 
L 789.619868 328.559363 
L 790.953334 330.382189 
L 792.286801 330.382189 
L 793.620267 325.84023 
L 794.953733 328.750709 
L 796.287199 327.71341 
L 797.620665 327.632843 
L 798.954131 328.126316 
L 800.287597 330.382189 
L 801.621063 330.382189 
L 802.954529 324.541089 
L 804.287995 329.526165 
L 805.621461 327.602631 
L 806.954928 327.068875 
L 808.288394 327.330718 
L 809.62186 330.382189 
L 812.288792 330.382189 
L 813.622258 319.898422 
L 814.955724 328.861488 
L 816.28919 325.789876 
L 817.622656 324.833144 
L 818.956122 330.382189 
L 820.289589 330.382189 
L 821.623055 318.186375 
L 822.956521 330.382189 
L 824.289987 317.702974 
L 825.623453 323.282231 
L 826.956919 322.829042 
L 828.290385 330.382189 
L 829.623851 330.382189 
L 830.957317 308.971537 
L 832.290783 325.699238 
L 833.624249 318.266942 
L 834.957716 314.460157 
L 836.291182 318.35758 
L 837.624648 330.382189 
L 838.958114 330.382189 
L 840.29158 293.432198 
L 841.625046 323.000247 
L 842.958512 315.537739 
L 844.291978 312.194213 
L 845.625444 312.486268 
L 846.95891 330.382189 
L 848.292377 330.382189 
L 849.625843 274.015577 
L 850.959309 320.855154 
L 852.292775 308.629128 
L 853.626241 306.796231 
L 854.959707 307.188995 
L 856.293173 330.382189 
L 857.626639 330.382189 
L 858.960105 266.653777 
L 860.293571 319.888351 
L 861.627037 308.236364 
L 862.960504 305.527302 
L 864.29397 302.042784 
L 865.627436 330.382189 
L 866.960902 330.382189 
L 868.294368 260.218497 
L 869.627834 321.701106 
L 870.9613 306.614956 
L 872.294766 305.184893 
L 873.628232 301.670163 
L 874.961698 330.382189 
L 876.295165 330.382189 
L 877.628631 267.761572 
L 878.962097 312.315063 
L 880.295563 304.862626 
L 881.629029 288.567972 
L 882.962495 296.765653 
L 884.295961 330.382189 
L 885.629427 330.382189 
L 886.962893 251.557556 
L 888.296359 313.070378 
L 889.629826 304.822342 
L 890.963292 297.410188 
L 892.296758 299.363935 
L 893.630224 330.382189 
L 896.297156 330.382189 
L 897.630622 228.938401 
L 898.964088 317.290069 
L 900.297554 305.587728 
L 901.63102 303.926036 
L 902.964486 330.382189 
L 904.297953 330.382189 
L 905.631419 253.340098 
L 906.964885 322.738405 
L 908.298351 310.582875 
L 909.631817 307.591829 
L 910.965283 308.991679 
L 912.298749 330.382189 
L 913.632215 330.382189 
L 914.965681 269.977162 
L 916.299147 325.507892 
L 917.632614 307.783175 
L 918.96608 306.604885 
L 920.299546 317.995029 
L 921.633012 330.382189 
L 922.966478 330.382189 
L 924.299944 276.543363 
L 925.63341 323.85627 
L 926.966876 315.275896 
L 928.300342 311.448969 
L 929.633808 315.759298 
L 930.967274 330.382189 
L 932.300741 330.382189 
L 933.634207 291.720151 
L 934.967673 323.513861 
L 937.634605 315.265825 
L 938.968071 325.900655 
L 940.301537 330.382189 
L 941.635003 330.382189 
L 942.968469 280.843621 
L 944.301935 324.390026 
L 945.635402 318.115879 
L 946.968868 318.488501 
L 948.302334 318.508643 
L 949.6358 330.382189 
L 950.969266 330.382189 
L 952.302732 294.419142 
L 953.636198 326.132285 
L 954.969664 321.368768 
L 956.30313 318.82084 
L 957.636596 319.817855 
L 958.970062 330.382189 
L 960.303529 330.382189 
L 961.636995 309.293805 
L 962.970461 325.890584 
L 964.303927 321.670893 
L 965.637393 323.372869 
L 966.970859 321.116996 
L 968.304325 330.382189 
L 969.637791 330.382189 
L 970.971257 316.544825 
L 972.304723 322.526917 
L 973.63819 324.027475 
L 974.971656 321.620539 
L 976.305122 324.581372 
L 977.638588 330.382189 
L 978.972054 330.382189 
L 980.30552 312.304992 
L 981.638986 327.71341 
L 982.972452 326.152427 
L 984.305918 330.382189 
L 985.639384 309.817489 
L 986.97285 330.382189 
L 988.306317 330.382189 
L 989.639783 302.375123 
L 990.973249 326.907741 
L 992.306715 323.161381 
L 993.640181 319.747359 
L 994.973647 320.613453 
L 996.307113 330.382189 
L 997.640579 330.382189 
L 998.974045 303.301642 
L 1000.307511 326.494836 
L 1001.640978 324.893569 
L 1002.974444 330.382189 
L 1006.974842 330.382189 
L 1008.308308 291.911498 
L 1009.641774 321.449334 
L 1010.97524 324.490735 
L 1012.308706 314.067393 
L 1013.642172 317.410919 
L 1014.975639 330.382189 
L 1016.309105 330.382189 
L 1017.642571 286.694792 
L 1018.976037 320.563099 
L 1020.309503 318.730202 
L 1021.642969 315.749227 
L 1022.976435 313.150945 
L 1024.309901 330.382189 
L 1025.643367 330.382189 
L 1026.976833 293.472481 
L 1028.310299 324.128184 
L 1029.643766 327.975253 
L 1030.977232 330.382189 
L 1032.310698 317.018155 
L 1033.644164 330.382189 
L 1034.97763 330.382189 
L 1036.311096 296.84622 
L 1037.644562 324.702223 
L 1038.978028 315.457172 
L 1040.311494 311.076347 
L 1041.64496 320.200548 
L 1042.978427 330.382189 
L 1044.311893 330.382189 
L 1045.645359 296.342677 
L 1046.978825 305.779074 
L 1048.312291 322.67798 
L 1049.645757 288.42698 
L 1050.979223 290.360585 
L 1052.312689 330.382189 
L 1053.646155 330.382189 
L 1054.979621 250.691462 
L 1056.313087 288.990948 
L 1057.646554 290.964837 
L 1058.98002 267.137179 
L 1060.313486 265.545983 
L 1061.646952 330.382189 
L 1062.980418 330.382189 
L 1064.313884 57.88482 
L 1065.64735 279.917102 
L 1066.980816 274.921955 
L 1068.314282 224.618002 
L 1069.647748 216.430391 
L 1070.981215 185.331571 
L 1072.314681 330.382189 
L 1073.648147 50.8755 
L 1074.981613 291.579159 
L 1076.315079 229.663503 
L 1077.648545 195.37222 
L 1078.982011 190.004451 
L 1080.315477 193.710528 
L 1081.648943 330.382189 
L 1082.982409 127.45433 
L 1084.315875 241.657899 
L 1085.649342 248.203959 
L 1086.982808 195.150661 
L 1088.316274 243.218883 
L 1089.64974 224.24538 
L 1090.983206 330.382189 
L 1092.316672 196.852637 
L 1093.650138 305.859641 
L 1094.983604 284.177076 
L 1096.31707 287.550815 
L 1097.650536 282.626164 
L 1098.984003 304.056957 
L 1100.317469 330.382189 
L 1101.650935 307.853671 
L 1102.984401 320.452319 
L 1104.317867 313.150945 
L 1105.651333 303.412422 
L 1106.984799 307.924167 
L 1108.318265 315.698873 
L 1109.651731 330.382189 
L 1110.985197 307.390412 
L 1112.318663 326.575403 
L 1113.65213 319.837997 
L 1114.985596 314.127818 
L 1116.319062 319.112895 
L 1117.652528 330.382189 
L 1120.31946 330.382189 
L 1121.652926 303.714547 
L 1122.986392 320.210618 
L 1124.319858 316.454187 
L 1125.653324 318.689918 
L 1126.986791 330.382189 
L 1128.320257 330.382189 
L 1129.653723 309.172954 
L 1130.987189 327.82419 
L 1132.320655 321.116996 
L 1133.654121 324.450451 
L 1134.987587 319.17332 
L 1136.321053 330.382189 
L 1141.654918 330.382189 
L 1142.988384 308.437781 
L 1144.32185 330.382189 
L 1150.98918 330.382189 
L 1152.322646 300.330738 
L 1153.656112 330.382189 
L 1160.323443 330.382189 
L 1161.656909 312.113646 
L 1162.990375 330.382189 
L 1169.657706 330.382189 
L 1170.991172 312.153929 
L 1172.324638 330.382189 
L 1176.325036 330.382189 
L 1177.658502 309.807419 
L 1178.991968 330.382189 
L 1181.6589 330.382189 
L 1182.992367 322.003232 
L 1184.325833 330.382189 
L 1185.659299 330.382189 
L 1186.992765 326.736537 
L 1188.326231 330.382189 
L 1190.993163 330.382189 
L 1192.326629 317.954745 
L 1193.660095 330.382189 
L 1194.993561 330.382189 
L 1196.327028 324.621656 
L 1197.660494 330.382189 
L 1198.99396 325.346758 
L 1200.327426 330.382189 
L 1201.660892 324.19868 
L 1202.994358 330.382189 
L 1204.327824 330.382189 
L 1205.66129 324.974136 
L 1206.994756 330.382189 
L 1208.328222 325.709309 
L 1209.661688 330.382189 
L 1210.995155 324.682081 
L 1212.328621 330.382189 
L 1213.662087 330.382189 
L 1214.995553 326.202781 
L 1216.329019 330.382189 
L 1217.662485 322.939822 
L 1218.995951 330.382189 
L 1220.329417 325.336687 
L 1221.662883 330.382189 
L 1222.996349 330.382189 
L 1224.329816 321.298271 
L 1225.663282 330.382189 
L 1226.996748 323.936837 
L 1228.330214 330.382189 
L 1229.66368 323.443365 
L 1230.997146 330.382189 
L 1234.997544 330.382189 
L 1236.33101 315.366534 
L 1237.664477 330.382189 
L 1238.997943 321.75146 
L 1240.331409 330.382189 
L 1241.664875 330.382189 
L 1242.998341 322.154295 
L 1244.331807 330.382189 
L 1245.665273 320.764516 
L 1246.998739 330.382189 
L 1250.999137 330.382189 
L 1252.332604 321.711177 
L 1253.66607 330.382189 
L 1254.999536 307.803317 
L 1256.333002 330.382189 
L 1257.666468 315.608235 
L 1258.999934 330.382189 
L 1260.3334 330.382189 
L 1261.666866 316.202416 
L 1263.000332 330.382189 
L 1264.333798 312.133788 
L 1265.667265 330.382189 
L 1267.000731 315.08455 
L 1268.334197 330.382189 
L 1269.667663 330.382189 
L 1271.001129 314.470227 
L 1272.334595 330.382189 
L 1273.668061 311.096489 
L 1275.001527 330.382189 
L 1279.001925 330.382189 
L 1280.335392 310.300891 
L 1281.668858 330.382189 
L 1283.002324 286.251674 
L 1284.33579 330.382189 
L 1285.669256 304.530287 
L 1287.002722 330.382189 
L 1291.00312 330.382189 
L 1292.336586 273.834302 
L 1293.670053 330.382189 
L 1297.670451 330.382189 
L 1299.003917 299.122235 
L 1300.337383 300.219958 
L 1301.670849 305.557515 
L 1303.004315 330.382189 
L 1307.004713 330.382189 
L 1307.004713 330.382189 
" clip-path="url(#pd369de697f)" style="fill: none; stroke: #0000ff; stroke-width: 1.5; stroke-linecap: square"/>
   </g>
   <g id="line2d_19">
    <path d="M 1066.980816 239.594621 
L 1068.314282 216.698987 
L 1069.647748 243.963886 
L 1070.981215 286.349004 
L 1072.314681 71.357632 
L 1073.648147 230.985516 
L 1074.981613 205.751665 
L 1076.315079 190.229032 
L 1077.648545 205.014763 
L 1078.982011 179.312856 
L 1080.315477 283.091728 
L 1081.648943 78.432964 
L 1082.982409 252.92102 
L 1084.315875 227.134234 
L 1085.649342 207.560294 
L 1086.982808 215.391315 
L 1088.316274 202.960309 
L 1089.64974 299.788136 
L 1090.983206 168.123959 
L 1092.316672 252.968155 
L 1093.650138 266.692487 
L 1094.983604 239.142579 
L 1096.31707 275.235594 
L 1097.650536 278.882673 
L 1098.984003 353.2755 
L 1100.317469 269.875319 
L 1101.650935 337.92177 
L 1102.984401 331.771437 
L 1104.317867 331.559416 
L 1105.651333 326.233833 
L 1106.984799 340.335421 
L 1108.318265 345.11706 
L 1109.651731 325.176596 
L 1110.985197 330.677187 
L 1113.65213 312.914593 
L 1114.985596 313.844809 
L 1116.319062 319.148096 
L 1117.652528 331.37155 
L 1118.985994 318.202367 
L 1120.31946 330.417517 
L 1121.652926 332.476287 
L 1122.986392 322.344476 
L 1124.319858 323.446245 
L 1125.653324 327.978583 
L 1126.986791 321.994286 
L 1128.320257 326.195958 
L 1129.653723 311.196392 
L 1130.987189 316.828641 
L 1132.320655 318.985397 
L 1133.654121 318.248454 
L 1134.987587 328.635455 
L 1136.321053 333.225414 
L 1137.654519 316.386174 
L 1138.987985 327.570188 
L 1140.321452 325.484789 
L 1141.654918 328.63257 
L 1142.988384 329.960591 
L 1144.32185 333.292356 
L 1145.655316 331.893193 
L 1146.988782 329.107837 
L 1148.322248 327.570192 
L 1149.655714 331.538738 
L 1150.98918 315.55603 
L 1152.322646 331.828183 
L 1153.656112 328.007077 
L 1154.989579 327.505165 
L 1156.323045 325.940938 
L 1157.656511 325.548163 
L 1158.989977 329.108157 
L 1160.323443 309.325519 
L 1161.656909 330.069231 
L 1162.990375 330.752721 
L 1164.323841 330.84983 
L 1165.657307 331.11078 
L 1166.990773 331.176352 
L 1168.32424 330.591494 
L 1169.657706 317.840939 
L 1170.991172 330.912205 
L 1172.324638 329.481525 
L 1173.658104 329.295138 
L 1174.99157 328.705517 
L 1176.325036 328.557473 
L 1177.658502 331.784467 
L 1178.991968 314.382419 
L 1180.325434 325.223386 
L 1181.6589 326.265612 
L 1182.992367 326.908549 
L 1184.325833 331.02134 
L 1185.659299 318.185969 
L 1186.992765 327.873681 
L 1188.326231 329.610918 
L 1189.659697 331.769226 
L 1190.993163 327.572285 
L 1192.326629 334.361139 
L 1193.660095 330.202422 
L 1194.993561 326.817792 
L 1196.327028 328.760951 
L 1197.660494 327.722309 
L 1198.99396 329.652208 
L 1200.327426 319.889279 
L 1201.660892 328.09987 
L 1202.994358 328.978362 
L 1204.327824 325.16374 
L 1205.66129 330.773928 
L 1206.994756 327.333848 
L 1208.328222 330.3871 
L 1209.661688 325.543547 
L 1210.995155 329.828331 
L 1212.328621 329.674431 
L 1213.662087 325.955146 
L 1214.995553 329.884842 
L 1216.329019 326.593169 
L 1217.662485 330.551073 
L 1218.995951 325.605587 
L 1220.329417 329.513882 
L 1221.662883 328.905576 
L 1222.996349 325.906763 
L 1224.329816 330.254571 
L 1225.663282 323.797414 
L 1226.996748 329.183727 
L 1228.330214 324.813751 
L 1229.66368 328.427117 
L 1230.997146 328.903502 
L 1232.330612 322.884425 
L 1233.664078 328.629554 
L 1234.997544 325.783623 
L 1236.33101 332.254066 
L 1237.664477 325.684368 
L 1238.997943 330.700051 
L 1240.331409 327.14596 
L 1241.664875 326.35329 
L 1242.998341 329.124014 
L 1244.331807 317.232769 
L 1245.665273 328.336619 
L 1246.998739 321.997002 
L 1248.332205 327.286729 
L 1249.665671 330.847308 
L 1250.999137 325.910026 
L 1252.332604 332.44208 
L 1253.66607 325.200983 
L 1254.999536 331.771802 
L 1256.333002 327.062553 
L 1257.666468 327.717496 
L 1258.999934 323.01428 
L 1260.3334 316.316965 
L 1261.666866 325.354768 
L 1263.000332 308.346265 
L 1264.333798 327.685663 
L 1265.667265 316.965254 
L 1267.000731 327.580707 
L 1268.334197 328.038219 
L 1269.667663 318.558184 
L 1271.001129 329.142687 
L 1272.334595 315.08484 
L 1273.668061 329.354661 
L 1275.001527 316.810862 
L 1276.334993 326.102291 
L 1277.668459 329.548062 
L 1279.001925 319.136329 
L 1280.335392 333.747365 
L 1281.668858 318.878416 
L 1283.002324 332.302708 
L 1284.33579 322.944043 
L 1285.669256 323.899519 
L 1287.002722 316.287301 
L 1288.336188 301.350257 
L 1289.669654 318.731276 
L 1291.00312 293.09315 
L 1292.336586 333.053757 
L 1293.670053 311.853972 
L 1295.003519 328.024544 
L 1296.336985 326.60629 
L 1297.670451 325.663104 
L 1299.003917 336.399661 
L 1300.337383 294.340484 
L 1301.670849 319.574825 
L 1303.004315 317.883837 
L 1304.337781 314.104655 
L 1305.671247 322.182984 
L 1307.004713 310.145306 
L 1307.004713 310.145306 
" clip-path="url(#pd369de697f)" style="fill: none; stroke: #ffa500; stroke-width: 1.5; stroke-linecap: square"/>
   </g>
   <g id="line2d_20">
    <path d="M 1307.004713 310.145306 
L 1308.33818 309.811521 
L 1309.671646 313.547553 
L 1311.005112 330.671355 
L 1312.338578 330.843435 
L 1313.672044 330.936923 
L 1315.00551 330.731777 
L 1316.338976 316.801476 
L 1317.672442 316.595703 
L 1319.005908 319.214626 
L 1320.339374 331.009437 
L 1321.672841 331.092956 
L 1323.006307 331.167313 
L 1324.339773 331.03579 
" clip-path="url(#pd369de697f)" style="fill: none; stroke: #ff0000; stroke-width: 1.5; stroke-linecap: square"/>
   </g>
   <g id="patch_3">
    <path d="M 46.0125 368.3955 
L 46.0125 35.7555 
" style="fill: none; stroke: #000000; stroke-width: 0.8; stroke-linejoin: miter; stroke-linecap: square"/>
   </g>
   <g id="patch_4">
    <path d="M 1385.2125 368.3955 
L 1385.2125 35.7555 
" style="fill: none; stroke: #000000; stroke-width: 0.8; stroke-linejoin: miter; stroke-linecap: square"/>
   </g>
   <g id="patch_5">
    <path d="M 46.0125 368.3955 
L 1385.2125 368.3955 
" style="fill: none; stroke: #000000; stroke-width: 0.8; stroke-linejoin: miter; stroke-linecap: square"/>
   </g>
   <g id="patch_6">
    <path d="M 46.0125 35.7555 
L 1385.2125 35.7555 
" style="fill: none; stroke: #000000; stroke-width: 0.8; stroke-linejoin: miter; stroke-linecap: square"/>
   </g>
   <g id="text_18">
    <!-- Daily Confirmed Cases Forecasting - Oklahoma -->
    <g transform="translate(574.575938 16.318125)scale(0.12 -0.12)">
     <defs>
      <path id="DejaVuSans-44" d="M 1259 4147 
L 1259 519 
L 2022 519 
Q 2988 519 3436 956 
Q 3884 1394 3884 2338 
Q 3884 3275 3436 3711 
Q 2988 4147 2022 4147 
L 1259 4147 
z
M 628 4666 
L 1925 4666 
Q 3281 4666 3915 4102 
Q 4550 3538 4550 2338 
Q 4550 1131 3912 565 
Q 3275 0 1925 0 
L 628 0 
L 628 4666 
z
" transform="scale(0.015625)"/>
      <path id="DejaVuSans-61" d="M 2194 1759 
Q 1497 1759 1228 1600 
Q 959 1441 959 1056 
Q 959 750 1161 570 
Q 1363 391 1709 391 
Q 2188 391 2477 730 
Q 2766 1069 2766 1631 
L 2766 1759 
L 2194 1759 
z
M 3341 1997 
L 3341 0 
L 2766 0 
L 2766 531 
Q 2569 213 2275 61 
Q 1981 -91 1556 -91 
Q 1019 -91 701 211 
Q 384 513 384 1019 
Q 384 1609 779 1909 
Q 1175 2209 1959 2209 
L 2766 2209 
L 2766 2266 
Q 2766 2663 2505 2880 
Q 2244 3097 1772 3097 
Q 1472 3097 1187 3025 
Q 903 2953 641 2809 
L 641 3341 
Q 956 3463 1253 3523 
Q 1550 3584 1831 3584 
Q 2591 3584 2966 3190 
Q 3341 2797 3341 1997 
z
" transform="scale(0.015625)"/>
      <path id="DejaVuSans-69" d="M 603 3500 
L 1178 3500 
L 1178 0 
L 603 0 
L 603 3500 
z
M 603 4863 
L 1178 4863 
L 1178 4134 
L 603 4134 
L 603 4863 
z
" transform="scale(0.015625)"/>
      <path id="DejaVuSans-6c" d="M 603 4863 
L 1178 4863 
L 1178 0 
L 603 0 
L 603 4863 
z
" transform="scale(0.015625)"/>
      <path id="DejaVuSans-79" d="M 2059 -325 
Q 1816 -950 1584 -1140 
Q 1353 -1331 966 -1331 
L 506 -1331 
L 506 -850 
L 844 -850 
Q 1081 -850 1212 -737 
Q 1344 -625 1503 -206 
L 1606 56 
L 191 3500 
L 800 3500 
L 1894 763 
L 2988 3500 
L 3597 3500 
L 2059 -325 
z
" transform="scale(0.015625)"/>
      <path id="DejaVuSans-20" transform="scale(0.015625)"/>
      <path id="DejaVuSans-43" d="M 4122 4306 
L 4122 3641 
Q 3803 3938 3442 4084 
Q 3081 4231 2675 4231 
Q 1875 4231 1450 3742 
Q 1025 3253 1025 2328 
Q 1025 1406 1450 917 
Q 1875 428 2675 428 
Q 3081 428 3442 575 
Q 3803 722 4122 1019 
L 4122 359 
Q 3791 134 3420 21 
Q 3050 -91 2638 -91 
Q 1578 -91 968 557 
Q 359 1206 359 2328 
Q 359 3453 968 4101 
Q 1578 4750 2638 4750 
Q 3056 4750 3426 4639 
Q 3797 4528 4122 4306 
z
" transform="scale(0.015625)"/>
      <path id="DejaVuSans-6f" d="M 1959 3097 
Q 1497 3097 1228 2736 
Q 959 2375 959 1747 
Q 959 1119 1226 758 
Q 1494 397 1959 397 
Q 2419 397 2687 759 
Q 2956 1122 2956 1747 
Q 2956 2369 2687 2733 
Q 2419 3097 1959 3097 
z
M 1959 3584 
Q 2709 3584 3137 3096 
Q 3566 2609 3566 1747 
Q 3566 888 3137 398 
Q 2709 -91 1959 -91 
Q 1206 -91 779 398 
Q 353 888 353 1747 
Q 353 2609 779 3096 
Q 1206 3584 1959 3584 
z
" transform="scale(0.015625)"/>
      <path id="DejaVuSans-6e" d="M 3513 2113 
L 3513 0 
L 2938 0 
L 2938 2094 
Q 2938 2591 2744 2837 
Q 2550 3084 2163 3084 
Q 1697 3084 1428 2787 
Q 1159 2491 1159 1978 
L 1159 0 
L 581 0 
L 581 3500 
L 1159 3500 
L 1159 2956 
Q 1366 3272 1645 3428 
Q 1925 3584 2291 3584 
Q 2894 3584 3203 3211 
Q 3513 2838 3513 2113 
z
" transform="scale(0.015625)"/>
      <path id="DejaVuSans-66" d="M 2375 4863 
L 2375 4384 
L 1825 4384 
Q 1516 4384 1395 4259 
Q 1275 4134 1275 3809 
L 1275 3500 
L 2222 3500 
L 2222 3053 
L 1275 3053 
L 1275 0 
L 697 0 
L 697 3053 
L 147 3053 
L 147 3500 
L 697 3500 
L 697 3744 
Q 697 4328 969 4595 
Q 1241 4863 1831 4863 
L 2375 4863 
z
" transform="scale(0.015625)"/>
      <path id="DejaVuSans-72" d="M 2631 2963 
Q 2534 3019 2420 3045 
Q 2306 3072 2169 3072 
Q 1681 3072 1420 2755 
Q 1159 2438 1159 1844 
L 1159 0 
L 581 0 
L 581 3500 
L 1159 3500 
L 1159 2956 
Q 1341 3275 1631 3429 
Q 1922 3584 2338 3584 
Q 2397 3584 2469 3576 
Q 2541 3569 2628 3553 
L 2631 2963 
z
" transform="scale(0.015625)"/>
      <path id="DejaVuSans-6d" d="M 3328 2828 
Q 3544 3216 3844 3400 
Q 4144 3584 4550 3584 
Q 5097 3584 5394 3201 
Q 5691 2819 5691 2113 
L 5691 0 
L 5113 0 
L 5113 2094 
Q 5113 2597 4934 2840 
Q 4756 3084 4391 3084 
Q 3944 3084 3684 2787 
Q 3425 2491 3425 1978 
L 3425 0 
L 2847 0 
L 2847 2094 
Q 2847 2600 2669 2842 
Q 2491 3084 2119 3084 
Q 1678 3084 1418 2786 
Q 1159 2488 1159 1978 
L 1159 0 
L 581 0 
L 581 3500 
L 1159 3500 
L 1159 2956 
Q 1356 3278 1631 3431 
Q 1906 3584 2284 3584 
Q 2666 3584 2933 3390 
Q 3200 3197 3328 2828 
z
" transform="scale(0.015625)"/>
      <path id="DejaVuSans-65" d="M 3597 1894 
L 3597 1613 
L 953 1613 
Q 991 1019 1311 708 
Q 1631 397 2203 397 
Q 2534 397 2845 478 
Q 3156 559 3463 722 
L 3463 178 
Q 3153 47 2828 -22 
Q 2503 -91 2169 -91 
Q 1331 -91 842 396 
Q 353 884 353 1716 
Q 353 2575 817 3079 
Q 1281 3584 2069 3584 
Q 2775 3584 3186 3129 
Q 3597 2675 3597 1894 
z
M 3022 2063 
Q 3016 2534 2758 2815 
Q 2500 3097 2075 3097 
Q 1594 3097 1305 2825 
Q 1016 2553 972 2059 
L 3022 2063 
z
" transform="scale(0.015625)"/>
      <path id="DejaVuSans-64" d="M 2906 2969 
L 2906 4863 
L 3481 4863 
L 3481 0 
L 2906 0 
L 2906 525 
Q 2725 213 2448 61 
Q 2172 -91 1784 -91 
Q 1150 -91 751 415 
Q 353 922 353 1747 
Q 353 2572 751 3078 
Q 1150 3584 1784 3584 
Q 2172 3584 2448 3432 
Q 2725 3281 2906 2969 
z
M 947 1747 
Q 947 1113 1208 752 
Q 1469 391 1925 391 
Q 2381 391 2643 752 
Q 2906 1113 2906 1747 
Q 2906 2381 2643 2742 
Q 2381 3103 1925 3103 
Q 1469 3103 1208 2742 
Q 947 2381 947 1747 
z
" transform="scale(0.015625)"/>
      <path id="DejaVuSans-73" d="M 2834 3397 
L 2834 2853 
Q 2591 2978 2328 3040 
Q 2066 3103 1784 3103 
Q 1356 3103 1142 2972 
Q 928 2841 928 2578 
Q 928 2378 1081 2264 
Q 1234 2150 1697 2047 
L 1894 2003 
Q 2506 1872 2764 1633 
Q 3022 1394 3022 966 
Q 3022 478 2636 193 
Q 2250 -91 1575 -91 
Q 1294 -91 989 -36 
Q 684 19 347 128 
L 347 722 
Q 666 556 975 473 
Q 1284 391 1588 391 
Q 1994 391 2212 530 
Q 2431 669 2431 922 
Q 2431 1156 2273 1281 
Q 2116 1406 1581 1522 
L 1381 1569 
Q 847 1681 609 1914 
Q 372 2147 372 2553 
Q 372 3047 722 3315 
Q 1072 3584 1716 3584 
Q 2034 3584 2315 3537 
Q 2597 3491 2834 3397 
z
" transform="scale(0.015625)"/>
      <path id="DejaVuSans-46" d="M 628 4666 
L 3309 4666 
L 3309 4134 
L 1259 4134 
L 1259 2759 
L 3109 2759 
L 3109 2228 
L 1259 2228 
L 1259 0 
L 628 0 
L 628 4666 
z
" transform="scale(0.015625)"/>
      <path id="DejaVuSans-63" d="M 3122 3366 
L 3122 2828 
Q 2878 2963 2633 3030 
Q 2388 3097 2138 3097 
Q 1578 3097 1268 2742 
Q 959 2388 959 1747 
Q 959 1106 1268 751 
Q 1578 397 2138 397 
Q 2388 397 2633 464 
Q 2878 531 3122 666 
L 3122 134 
Q 2881 22 2623 -34 
Q 2366 -91 2075 -91 
Q 1284 -91 818 406 
Q 353 903 353 1747 
Q 353 2603 823 3093 
Q 1294 3584 2113 3584 
Q 2378 3584 2631 3529 
Q 2884 3475 3122 3366 
z
" transform="scale(0.015625)"/>
      <path id="DejaVuSans-74" d="M 1172 4494 
L 1172 3500 
L 2356 3500 
L 2356 3053 
L 1172 3053 
L 1172 1153 
Q 1172 725 1289 603 
Q 1406 481 1766 481 
L 2356 481 
L 2356 0 
L 1766 0 
Q 1100 0 847 248 
Q 594 497 594 1153 
L 594 3053 
L 172 3053 
L 172 3500 
L 594 3500 
L 594 4494 
L 1172 4494 
z
" transform="scale(0.015625)"/>
      <path id="DejaVuSans-67" d="M 2906 1791 
Q 2906 2416 2648 2759 
Q 2391 3103 1925 3103 
Q 1463 3103 1205 2759 
Q 947 2416 947 1791 
Q 947 1169 1205 825 
Q 1463 481 1925 481 
Q 2391 481 2648 825 
Q 2906 1169 2906 1791 
z
M 3481 434 
Q 3481 -459 3084 -895 
Q 2688 -1331 1869 -1331 
Q 1566 -1331 1297 -1286 
Q 1028 -1241 775 -1147 
L 775 -588 
Q 1028 -725 1275 -790 
Q 1522 -856 1778 -856 
Q 2344 -856 2625 -561 
Q 2906 -266 2906 331 
L 2906 616 
Q 2728 306 2450 153 
Q 2172 0 1784 0 
Q 1141 0 747 490 
Q 353 981 353 1791 
Q 353 2603 747 3093 
Q 1141 3584 1784 3584 
Q 2172 3584 2450 3431 
Q 2728 3278 2906 2969 
L 2906 3500 
L 3481 3500 
L 3481 434 
z
" transform="scale(0.015625)"/>
      <path id="DejaVuSans-4f" d="M 2522 4238 
Q 1834 4238 1429 3725 
Q 1025 3213 1025 2328 
Q 1025 1447 1429 934 
Q 1834 422 2522 422 
Q 3209 422 3611 934 
Q 4013 1447 4013 2328 
Q 4013 3213 3611 3725 
Q 3209 4238 2522 4238 
z
M 2522 4750 
Q 3503 4750 4090 4092 
Q 4678 3434 4678 2328 
Q 4678 1225 4090 567 
Q 3503 -91 2522 -91 
Q 1538 -91 948 565 
Q 359 1222 359 2328 
Q 359 3434 948 4092 
Q 1538 4750 2522 4750 
z
" transform="scale(0.015625)"/>
      <path id="DejaVuSans-6b" d="M 581 4863 
L 1159 4863 
L 1159 1991 
L 2875 3500 
L 3609 3500 
L 1753 1863 
L 3688 0 
L 2938 0 
L 1159 1709 
L 1159 0 
L 581 0 
L 581 4863 
z
" transform="scale(0.015625)"/>
      <path id="DejaVuSans-68" d="M 3513 2113 
L 3513 0 
L 2938 0 
L 2938 2094 
Q 2938 2591 2744 2837 
Q 2550 3084 2163 3084 
Q 1697 3084 1428 2787 
Q 1159 2491 1159 1978 
L 1159 0 
L 581 0 
L 581 4863 
L 1159 4863 
L 1159 2956 
Q 1366 3272 1645 3428 
Q 1925 3584 2291 3584 
Q 2894 3584 3203 3211 
Q 3513 2838 3513 2113 
z
" transform="scale(0.015625)"/>
     </defs>
     <use xlink:href="#DejaVuSans-44"/>
     <use xlink:href="#DejaVuSans-61" x="77.001953"/>
     <use xlink:href="#DejaVuSans-69" x="138.28125"/>
     <use xlink:href="#DejaVuSans-6c" x="166.064453"/>
     <use xlink:href="#DejaVuSans-79" x="193.847656"/>
     <use xlink:href="#DejaVuSans-20" x="253.027344"/>
     <use xlink:href="#DejaVuSans-43" x="284.814453"/>
     <use xlink:href="#DejaVuSans-6f" x="354.638672"/>
     <use xlink:href="#DejaVuSans-6e" x="415.820312"/>
     <use xlink:href="#DejaVuSans-66" x="479.199219"/>
     <use xlink:href="#DejaVuSans-69" x="514.404297"/>
     <use xlink:href="#DejaVuSans-72" x="542.1875"/>
     <use xlink:href="#DejaVuSans-6d" x="581.550781"/>
     <use xlink:href="#DejaVuSans-65" x="678.962891"/>
     <use xlink:href="#DejaVuSans-64" x="740.486328"/>
     <use xlink:href="#DejaVuSans-20" x="803.962891"/>
     <use xlink:href="#DejaVuSans-43" x="835.75"/>
     <use xlink:href="#DejaVuSans-61" x="905.574219"/>
     <use xlink:href="#DejaVuSans-73" x="966.853516"/>
     <use xlink:href="#DejaVuSans-65" x="1018.953125"/>
     <use xlink:href="#DejaVuSans-73" x="1080.476562"/>
     <use xlink:href="#DejaVuSans-20" x="1132.576172"/>
     <use xlink:href="#DejaVuSans-46" x="1164.363281"/>
     <use xlink:href="#DejaVuSans-6f" x="1218.257812"/>
     <use xlink:href="#DejaVuSans-72" x="1279.439453"/>
     <use xlink:href="#DejaVuSans-65" x="1318.302734"/>
     <use xlink:href="#DejaVuSans-63" x="1379.826172"/>
     <use xlink:href="#DejaVuSans-61" x="1434.806641"/>
     <use xlink:href="#DejaVuSans-73" x="1496.085938"/>
     <use xlink:href="#DejaVuSans-74" x="1548.185547"/>
     <use xlink:href="#DejaVuSans-69" x="1587.394531"/>
     <use xlink:href="#DejaVuSans-6e" x="1615.177734"/>
     <use xlink:href="#DejaVuSans-67" x="1678.556641"/>
     <use xlink:href="#DejaVuSans-20" x="1742.033203"/>
     <use xlink:href="#DejaVuSans-2d" x="1773.820312"/>
     <use xlink:href="#DejaVuSans-20" x="1809.904297"/>
     <use xlink:href="#DejaVuSans-4f" x="1841.691406"/>
     <use xlink:href="#DejaVuSans-6b" x="1920.402344"/>
     <use xlink:href="#DejaVuSans-6c" x="1978.3125"/>
     <use xlink:href="#DejaVuSans-61" x="2006.095703"/>
     <use xlink:href="#DejaVuSans-68" x="2067.375"/>
     <use xlink:href="#DejaVuSans-6f" x="2130.753906"/>
     <use xlink:href="#DejaVuSans-6d" x="2191.935547"/>
     <use xlink:href="#DejaVuSans-61" x="2289.347656"/>
    </g>
    <!-- ARIMA (4, 1, 1)x(1, 0, 0, 7) (R2 = -0.027703) -->
    <g transform="translate(581.46375 29.7555)scale(0.12 -0.12)">
     <defs>
      <path id="DejaVuSans-41" d="M 2188 4044 
L 1331 1722 
L 3047 1722 
L 2188 4044 
z
M 1831 4666 
L 2547 4666 
L 4325 0 
L 3669 0 
L 3244 1197 
L 1141 1197 
L 716 0 
L 50 0 
L 1831 4666 
z
" transform="scale(0.015625)"/>
      <path id="DejaVuSans-52" d="M 2841 2188 
Q 3044 2119 3236 1894 
Q 3428 1669 3622 1275 
L 4263 0 
L 3584 0 
L 2988 1197 
Q 2756 1666 2539 1819 
Q 2322 1972 1947 1972 
L 1259 1972 
L 1259 0 
L 628 0 
L 628 4666 
L 2053 4666 
Q 2853 4666 3247 4331 
Q 3641 3997 3641 3322 
Q 3641 2881 3436 2590 
Q 3231 2300 2841 2188 
z
M 1259 4147 
L 1259 2491 
L 2053 2491 
Q 2509 2491 2742 2702 
Q 2975 2913 2975 3322 
Q 2975 3731 2742 3939 
Q 2509 4147 2053 4147 
L 1259 4147 
z
" transform="scale(0.015625)"/>
      <path id="DejaVuSans-49" d="M 628 4666 
L 1259 4666 
L 1259 0 
L 628 0 
L 628 4666 
z
" transform="scale(0.015625)"/>
      <path id="DejaVuSans-4d" d="M 628 4666 
L 1569 4666 
L 2759 1491 
L 3956 4666 
L 4897 4666 
L 4897 0 
L 4281 0 
L 4281 4097 
L 3078 897 
L 2444 897 
L 1241 4097 
L 1241 0 
L 628 0 
L 628 4666 
z
" transform="scale(0.015625)"/>
      <path id="DejaVuSans-28" d="M 1984 4856 
Q 1566 4138 1362 3434 
Q 1159 2731 1159 2009 
Q 1159 1288 1364 580 
Q 1569 -128 1984 -844 
L 1484 -844 
Q 1016 -109 783 600 
Q 550 1309 550 2009 
Q 550 2706 781 3412 
Q 1013 4119 1484 4856 
L 1984 4856 
z
" transform="scale(0.015625)"/>
      <path id="DejaVuSans-2c" d="M 750 794 
L 1409 794 
L 1409 256 
L 897 -744 
L 494 -744 
L 750 256 
L 750 794 
z
" transform="scale(0.015625)"/>
      <path id="DejaVuSans-29" d="M 513 4856 
L 1013 4856 
Q 1481 4119 1714 3412 
Q 1947 2706 1947 2009 
Q 1947 1309 1714 600 
Q 1481 -109 1013 -844 
L 513 -844 
Q 928 -128 1133 580 
Q 1338 1288 1338 2009 
Q 1338 2731 1133 3434 
Q 928 4138 513 4856 
z
" transform="scale(0.015625)"/>
      <path id="DejaVuSans-78" d="M 3513 3500 
L 2247 1797 
L 3578 0 
L 2900 0 
L 1881 1375 
L 863 0 
L 184 0 
L 1544 1831 
L 300 3500 
L 978 3500 
L 1906 2253 
L 2834 3500 
L 3513 3500 
z
" transform="scale(0.015625)"/>
      <path id="DejaVuSans-3d" d="M 678 2906 
L 4684 2906 
L 4684 2381 
L 678 2381 
L 678 2906 
z
M 678 1631 
L 4684 1631 
L 4684 1100 
L 678 1100 
L 678 1631 
z
" transform="scale(0.015625)"/>
      <path id="DejaVuSans-2e" d="M 684 794 
L 1344 794 
L 1344 0 
L 684 0 
L 684 794 
z
" transform="scale(0.015625)"/>
      <path id="DejaVuSans-33" d="M 2597 2516 
Q 3050 2419 3304 2112 
Q 3559 1806 3559 1356 
Q 3559 666 3084 287 
Q 2609 -91 1734 -91 
Q 1441 -91 1130 -33 
Q 819 25 488 141 
L 488 750 
Q 750 597 1062 519 
Q 1375 441 1716 441 
Q 2309 441 2620 675 
Q 2931 909 2931 1356 
Q 2931 1769 2642 2001 
Q 2353 2234 1838 2234 
L 1294 2234 
L 1294 2753 
L 1863 2753 
Q 2328 2753 2575 2939 
Q 2822 3125 2822 3475 
Q 2822 3834 2567 4026 
Q 2313 4219 1838 4219 
Q 1578 4219 1281 4162 
Q 984 4106 628 3988 
L 628 4550 
Q 988 4650 1302 4700 
Q 1616 4750 1894 4750 
Q 2613 4750 3031 4423 
Q 3450 4097 3450 3541 
Q 3450 3153 3228 2886 
Q 3006 2619 2597 2516 
z
" transform="scale(0.015625)"/>
     </defs>
     <use xlink:href="#DejaVuSans-41"/>
     <use xlink:href="#DejaVuSans-52" x="68.408203"/>
     <use xlink:href="#DejaVuSans-49" x="137.890625"/>
     <use xlink:href="#DejaVuSans-4d" x="167.382812"/>
     <use xlink:href="#DejaVuSans-41" x="253.662109"/>
     <use xlink:href="#DejaVuSans-20" x="322.070312"/>
     <use xlink:href="#DejaVuSans-28" x="353.857422"/>
     <use xlink:href="#DejaVuSans-34" x="392.871094"/>
     <use xlink:href="#DejaVuSans-2c" x="456.494141"/>
     <use xlink:href="#DejaVuSans-20" x="488.28125"/>
     <use xlink:href="#DejaVuSans-31" x="520.068359"/>
     <use xlink:href="#DejaVuSans-2c" x="583.691406"/>
     <use xlink:href="#DejaVuSans-20" x="615.478516"/>
     <use xlink:href="#DejaVuSans-31" x="647.265625"/>
     <use xlink:href="#DejaVuSans-29" x="710.888672"/>
     <use xlink:href="#DejaVuSans-78" x="749.902344"/>
     <use xlink:href="#DejaVuSans-28" x="809.082031"/>
     <use xlink:href="#DejaVuSans-31" x="848.095703"/>
     <use xlink:href="#DejaVuSans-2c" x="911.71875"/>
     <use xlink:href="#DejaVuSans-20" x="943.505859"/>
     <use xlink:href="#DejaVuSans-30" x="975.292969"/>
     <use xlink:href="#DejaVuSans-2c" x="1038.916016"/>
     <use xlink:href="#DejaVuSans-20" x="1070.703125"/>
     <use xlink:href="#DejaVuSans-30" x="1102.490234"/>
     <use xlink:href="#DejaVuSans-2c" x="1166.113281"/>
     <use xlink:href="#DejaVuSans-20" x="1197.900391"/>
     <use xlink:href="#DejaVuSans-37" x="1229.6875"/>
     <use xlink:href="#DejaVuSans-29" x="1293.310547"/>
     <use xlink:href="#DejaVuSans-20" x="1332.324219"/>
     <use xlink:href="#DejaVuSans-28" x="1364.111328"/>
     <use xlink:href="#DejaVuSans-52" x="1403.125"/>
     <use xlink:href="#DejaVuSans-32" x="1472.607422"/>
     <use xlink:href="#DejaVuSans-20" x="1536.230469"/>
     <use xlink:href="#DejaVuSans-3d" x="1568.017578"/>
     <use xlink:href="#DejaVuSans-20" x="1651.806641"/>
     <use xlink:href="#DejaVuSans-2d" x="1683.59375"/>
     <use xlink:href="#DejaVuSans-30" x="1719.677734"/>
     <use xlink:href="#DejaVuSans-2e" x="1783.300781"/>
     <use xlink:href="#DejaVuSans-30" x="1815.087891"/>
     <use xlink:href="#DejaVuSans-32" x="1878.710938"/>
     <use xlink:href="#DejaVuSans-37" x="1942.333984"/>
     <use xlink:href="#DejaVuSans-37" x="2005.957031"/>
     <use xlink:href="#DejaVuSans-30" x="2069.580078"/>
     <use xlink:href="#DejaVuSans-33" x="2133.203125"/>
     <use xlink:href="#DejaVuSans-29" x="2196.826172"/>
    </g>
   </g>
   <g id="legend_1">
    <g id="patch_7">
     <path d="M 1281.132812 87.789875 
L 1378.2125 87.789875 
Q 1380.2125 87.789875 1380.2125 85.789875 
L 1380.2125 42.7555 
Q 1380.2125 40.7555 1378.2125 40.7555 
L 1281.132812 40.7555 
Q 1279.132812 40.7555 1279.132812 42.7555 
L 1279.132812 85.789875 
Q 1279.132812 87.789875 1281.132812 87.789875 
z
" style="fill: #ffffff; opacity: 0.8; stroke: #cccccc; stroke-linejoin: miter"/>
    </g>
    <g id="line2d_21">
     <path d="M 1283.132812 48.853937 
L 1293.132812 48.853937 
L 1303.132812 48.853937 
" style="fill: none; stroke: #0000ff; stroke-width: 1.5; stroke-linecap: square"/>
    </g>
    <g id="text_19">
     <!-- Actual Value -->
     <g transform="translate(1311.132812 52.353937)scale(0.1 -0.1)">
      <defs>
       <path id="DejaVuSans-75" d="M 544 1381 
L 544 3500 
L 1119 3500 
L 1119 1403 
Q 1119 906 1312 657 
Q 1506 409 1894 409 
Q 2359 409 2629 706 
Q 2900 1003 2900 1516 
L 2900 3500 
L 3475 3500 
L 3475 0 
L 2900 0 
L 2900 538 
Q 2691 219 2414 64 
Q 2138 -91 1772 -91 
Q 1169 -91 856 284 
Q 544 659 544 1381 
z
M 1991 3584 
L 1991 3584 
z
" transform="scale(0.015625)"/>
       <path id="DejaVuSans-56" d="M 1831 0 
L 50 4666 
L 709 4666 
L 2188 738 
L 3669 4666 
L 4325 4666 
L 2547 0 
L 1831 0 
z
" transform="scale(0.015625)"/>
      </defs>
      <use xlink:href="#DejaVuSans-41"/>
      <use xlink:href="#DejaVuSans-63" x="66.658203"/>
      <use xlink:href="#DejaVuSans-74" x="121.638672"/>
      <use xlink:href="#DejaVuSans-75" x="160.847656"/>
      <use xlink:href="#DejaVuSans-61" x="224.226562"/>
      <use xlink:href="#DejaVuSans-6c" x="285.505859"/>
      <use xlink:href="#DejaVuSans-20" x="313.289062"/>
      <use xlink:href="#DejaVuSans-56" x="345.076172"/>
      <use xlink:href="#DejaVuSans-61" x="405.734375"/>
      <use xlink:href="#DejaVuSans-6c" x="467.013672"/>
      <use xlink:href="#DejaVuSans-75" x="494.796875"/>
      <use xlink:href="#DejaVuSans-65" x="558.175781"/>
     </g>
    </g>
    <g id="line2d_22">
     <path d="M 1283.132812 63.532062 
L 1293.132812 63.532062 
L 1303.132812 63.532062 
" style="fill: none; stroke: #ffa500; stroke-width: 1.5; stroke-linecap: square"/>
    </g>
    <g id="text_20">
     <!-- Check Value -->
     <g transform="translate(1311.132812 67.032062)scale(0.1 -0.1)">
      <use xlink:href="#DejaVuSans-43"/>
      <use xlink:href="#DejaVuSans-68" x="69.824219"/>
      <use xlink:href="#DejaVuSans-65" x="133.203125"/>
      <use xlink:href="#DejaVuSans-63" x="194.726562"/>
      <use xlink:href="#DejaVuSans-6b" x="249.707031"/>
      <use xlink:href="#DejaVuSans-20" x="307.617188"/>
      <use xlink:href="#DejaVuSans-56" x="339.404297"/>
      <use xlink:href="#DejaVuSans-61" x="400.0625"/>
      <use xlink:href="#DejaVuSans-6c" x="461.341797"/>
      <use xlink:href="#DejaVuSans-75" x="489.125"/>
      <use xlink:href="#DejaVuSans-65" x="552.503906"/>
     </g>
    </g>
    <g id="line2d_23">
     <path d="M 1283.132812 78.210187 
L 1293.132812 78.210187 
L 1303.132812 78.210187 
" style="fill: none; stroke: #ff0000; stroke-width: 1.5; stroke-linecap: square"/>
    </g>
    <g id="text_21">
     <!-- Predict Value -->
     <g transform="translate(1311.132812 81.710187)scale(0.1 -0.1)">
      <defs>
       <path id="DejaVuSans-50" d="M 1259 4147 
L 1259 2394 
L 2053 2394 
Q 2494 2394 2734 2622 
Q 2975 2850 2975 3272 
Q 2975 3691 2734 3919 
Q 2494 4147 2053 4147 
L 1259 4147 
z
M 628 4666 
L 2053 4666 
Q 2838 4666 3239 4311 
Q 3641 3956 3641 3272 
Q 3641 2581 3239 2228 
Q 2838 1875 2053 1875 
L 1259 1875 
L 1259 0 
L 628 0 
L 628 4666 
z
" transform="scale(0.015625)"/>
      </defs>
      <use xlink:href="#DejaVuSans-50"/>
      <use xlink:href="#DejaVuSans-72" x="58.552734"/>
      <use xlink:href="#DejaVuSans-65" x="97.416016"/>
      <use xlink:href="#DejaVuSans-64" x="158.939453"/>
      <use xlink:href="#DejaVuSans-69" x="222.416016"/>
      <use xlink:href="#DejaVuSans-63" x="250.199219"/>
      <use xlink:href="#DejaVuSans-74" x="305.179688"/>
      <use xlink:href="#DejaVuSans-20" x="344.388672"/>
      <use xlink:href="#DejaVuSans-56" x="376.175781"/>
      <use xlink:href="#DejaVuSans-61" x="436.833984"/>
      <use xlink:href="#DejaVuSans-6c" x="498.113281"/>
      <use xlink:href="#DejaVuSans-75" x="525.896484"/>
      <use xlink:href="#DejaVuSans-65" x="589.275391"/>
     </g>
    </g>
   </g>
  </g>
 </g>
 <defs>
  <clipPath id="pd369de697f">
   <rect x="46.0125" y="35.7555" width="1339.2" height="332.64"/>
  </clipPath>
 </defs>
</svg>
