<?xml version="1.0" encoding="utf-8" standalone="no"?>
<!DOCTYPE svg PUBLIC "-//W3C//DTD SVG 1.1//EN"
  "http://www.w3.org/Graphics/SVG/1.1/DTD/svg11.dtd">
<svg xmlns:xlink="http://www.w3.org/1999/xlink" width="1386.05pt" height="392.273625pt" viewBox="0 0 1386.05 392.273625" xmlns="http://www.w3.org/2000/svg" version="1.1">
 <metadata>
  <rdf:RDF xmlns:dc="http://purl.org/dc/elements/1.1/" xmlns:cc="http://creativecommons.org/ns#" xmlns:rdf="http://www.w3.org/1999/02/22-rdf-syntax-ns#">
   <cc:Work>
    <dc:type rdf:resource="http://purl.org/dc/dcmitype/StillImage"/>
    <dc:date>2022-07-23T17:21:37.906292</dc:date>
    <dc:format>image/svg+xml</dc:format>
    <dc:creator>
     <cc:Agent>
      <dc:title>Matplotlib v3.5.2, https://matplotlib.org/</dc:title>
     </cc:Agent>
    </dc:creator>
   </cc:Work>
  </rdf:RDF>
 </metadata>
 <defs>
  <style type="text/css">*{stroke-linejoin: round; stroke-linecap: butt}</style>
 </defs>
 <g id="figure_1">
  <g id="patch_1">
   <path d="M 0 392.273625 
L 1386.05 392.273625 
L 1386.05 0 
L 0 0 
z
" style="fill: #ffffff"/>
  </g>
  <g id="axes_1">
   <g id="patch_2">
    <path d="M 39.65 368.3955 
L 1378.85 368.3955 
L 1378.85 35.7555 
L 39.65 35.7555 
z
" style="fill: #ffffff"/>
   </g>
   <g id="matplotlib.axis_1">
    <g id="xtick_1">
     <g id="line2d_1">
      <defs>
       <path id="m134defa9e0" d="M 0 0 
L 0 3.5 
" style="stroke: #000000; stroke-width: 0.8"/>
      </defs>
      <g>
       <use xlink:href="#m134defa9e0" x="71.535714" y="368.3955" style="stroke: #000000; stroke-width: 0.8"/>
      </g>
     </g>
     <g id="text_1">
      <!-- 2020-01 -->
      <g transform="translate(50.644308 382.993937)scale(0.1 -0.1)">
       <defs>
        <path id="DejaVuSans-32" d="M 1228 531 
L 3431 531 
L 3431 0 
L 469 0 
L 469 531 
Q 828 903 1448 1529 
Q 2069 2156 2228 2338 
Q 2531 2678 2651 2914 
Q 2772 3150 2772 3378 
Q 2772 3750 2511 3984 
Q 2250 4219 1831 4219 
Q 1534 4219 1204 4116 
Q 875 4013 500 3803 
L 500 4441 
Q 881 4594 1212 4672 
Q 1544 4750 1819 4750 
Q 2544 4750 2975 4387 
Q 3406 4025 3406 3419 
Q 3406 3131 3298 2873 
Q 3191 2616 2906 2266 
Q 2828 2175 2409 1742 
Q 1991 1309 1228 531 
z
" transform="scale(0.015625)"/>
        <path id="DejaVuSans-30" d="M 2034 4250 
Q 1547 4250 1301 3770 
Q 1056 3291 1056 2328 
Q 1056 1369 1301 889 
Q 1547 409 2034 409 
Q 2525 409 2770 889 
Q 3016 1369 3016 2328 
Q 3016 3291 2770 3770 
Q 2525 4250 2034 4250 
z
M 2034 4750 
Q 2819 4750 3233 4129 
Q 3647 3509 3647 2328 
Q 3647 1150 3233 529 
Q 2819 -91 2034 -91 
Q 1250 -91 836 529 
Q 422 1150 422 2328 
Q 422 3509 836 4129 
Q 1250 4750 2034 4750 
z
" transform="scale(0.015625)"/>
        <path id="DejaVuSans-2d" d="M 313 2009 
L 1997 2009 
L 1997 1497 
L 313 1497 
L 313 2009 
z
" transform="scale(0.015625)"/>
        <path id="DejaVuSans-31" d="M 794 531 
L 1825 531 
L 1825 4091 
L 703 3866 
L 703 4441 
L 1819 4666 
L 2450 4666 
L 2450 531 
L 3481 531 
L 3481 0 
L 794 0 
L 794 531 
z
" transform="scale(0.015625)"/>
       </defs>
       <use xlink:href="#DejaVuSans-32"/>
       <use xlink:href="#DejaVuSans-30" x="63.623047"/>
       <use xlink:href="#DejaVuSans-32" x="127.246094"/>
       <use xlink:href="#DejaVuSans-30" x="190.869141"/>
       <use xlink:href="#DejaVuSans-2d" x="254.492188"/>
       <use xlink:href="#DejaVuSans-30" x="290.576172"/>
       <use xlink:href="#DejaVuSans-31" x="354.199219"/>
      </g>
     </g>
    </g>
    <g id="xtick_2">
     <g id="line2d_2">
      <g>
       <use xlink:href="#m134defa9e0" x="191.436541" y="368.3955" style="stroke: #000000; stroke-width: 0.8"/>
      </g>
     </g>
     <g id="text_2">
      <!-- 2020-04 -->
      <g transform="translate(170.545134 382.993937)scale(0.1 -0.1)">
       <defs>
        <path id="DejaVuSans-34" d="M 2419 4116 
L 825 1625 
L 2419 1625 
L 2419 4116 
z
M 2253 4666 
L 3047 4666 
L 3047 1625 
L 3713 1625 
L 3713 1100 
L 3047 1100 
L 3047 0 
L 2419 0 
L 2419 1100 
L 313 1100 
L 313 1709 
L 2253 4666 
z
" transform="scale(0.015625)"/>
       </defs>
       <use xlink:href="#DejaVuSans-32"/>
       <use xlink:href="#DejaVuSans-30" x="63.623047"/>
       <use xlink:href="#DejaVuSans-32" x="127.246094"/>
       <use xlink:href="#DejaVuSans-30" x="190.869141"/>
       <use xlink:href="#DejaVuSans-2d" x="254.492188"/>
       <use xlink:href="#DejaVuSans-30" x="290.576172"/>
       <use xlink:href="#DejaVuSans-34" x="354.199219"/>
      </g>
     </g>
    </g>
    <g id="xtick_3">
     <g id="line2d_3">
      <g>
       <use xlink:href="#m134defa9e0" x="311.337367" y="368.3955" style="stroke: #000000; stroke-width: 0.8"/>
      </g>
     </g>
     <g id="text_3">
      <!-- 2020-07 -->
      <g transform="translate(290.445961 382.993937)scale(0.1 -0.1)">
       <defs>
        <path id="DejaVuSans-37" d="M 525 4666 
L 3525 4666 
L 3525 4397 
L 1831 0 
L 1172 0 
L 2766 4134 
L 525 4134 
L 525 4666 
z
" transform="scale(0.015625)"/>
       </defs>
       <use xlink:href="#DejaVuSans-32"/>
       <use xlink:href="#DejaVuSans-30" x="63.623047"/>
       <use xlink:href="#DejaVuSans-32" x="127.246094"/>
       <use xlink:href="#DejaVuSans-30" x="190.869141"/>
       <use xlink:href="#DejaVuSans-2d" x="254.492188"/>
       <use xlink:href="#DejaVuSans-30" x="290.576172"/>
       <use xlink:href="#DejaVuSans-37" x="354.199219"/>
      </g>
     </g>
    </g>
    <g id="xtick_4">
     <g id="line2d_4">
      <g>
       <use xlink:href="#m134defa9e0" x="432.555785" y="368.3955" style="stroke: #000000; stroke-width: 0.8"/>
      </g>
     </g>
     <g id="text_4">
      <!-- 2020-10 -->
      <g transform="translate(411.664379 382.993937)scale(0.1 -0.1)">
       <use xlink:href="#DejaVuSans-32"/>
       <use xlink:href="#DejaVuSans-30" x="63.623047"/>
       <use xlink:href="#DejaVuSans-32" x="127.246094"/>
       <use xlink:href="#DejaVuSans-30" x="190.869141"/>
       <use xlink:href="#DejaVuSans-2d" x="254.492188"/>
       <use xlink:href="#DejaVuSans-31" x="290.576172"/>
       <use xlink:href="#DejaVuSans-30" x="354.199219"/>
      </g>
     </g>
    </g>
    <g id="xtick_5">
     <g id="line2d_5">
      <g>
       <use xlink:href="#m134defa9e0" x="553.774203" y="368.3955" style="stroke: #000000; stroke-width: 0.8"/>
      </g>
     </g>
     <g id="text_5">
      <!-- 2021-01 -->
      <g transform="translate(532.882797 382.993937)scale(0.1 -0.1)">
       <use xlink:href="#DejaVuSans-32"/>
       <use xlink:href="#DejaVuSans-30" x="63.623047"/>
       <use xlink:href="#DejaVuSans-32" x="127.246094"/>
       <use xlink:href="#DejaVuSans-31" x="190.869141"/>
       <use xlink:href="#DejaVuSans-2d" x="254.492188"/>
       <use xlink:href="#DejaVuSans-30" x="290.576172"/>
       <use xlink:href="#DejaVuSans-31" x="354.199219"/>
      </g>
     </g>
    </g>
    <g id="xtick_6">
     <g id="line2d_6">
      <g>
       <use xlink:href="#m134defa9e0" x="672.357438" y="368.3955" style="stroke: #000000; stroke-width: 0.8"/>
      </g>
     </g>
     <g id="text_6">
      <!-- 2021-04 -->
      <g transform="translate(651.466032 382.993937)scale(0.1 -0.1)">
       <use xlink:href="#DejaVuSans-32"/>
       <use xlink:href="#DejaVuSans-30" x="63.623047"/>
       <use xlink:href="#DejaVuSans-32" x="127.246094"/>
       <use xlink:href="#DejaVuSans-31" x="190.869141"/>
       <use xlink:href="#DejaVuSans-2d" x="254.492188"/>
       <use xlink:href="#DejaVuSans-30" x="290.576172"/>
       <use xlink:href="#DejaVuSans-34" x="354.199219"/>
      </g>
     </g>
    </g>
    <g id="xtick_7">
     <g id="line2d_7">
      <g>
       <use xlink:href="#m134defa9e0" x="792.258264" y="368.3955" style="stroke: #000000; stroke-width: 0.8"/>
      </g>
     </g>
     <g id="text_7">
      <!-- 2021-07 -->
      <g transform="translate(771.366858 382.993937)scale(0.1 -0.1)">
       <use xlink:href="#DejaVuSans-32"/>
       <use xlink:href="#DejaVuSans-30" x="63.623047"/>
       <use xlink:href="#DejaVuSans-32" x="127.246094"/>
       <use xlink:href="#DejaVuSans-31" x="190.869141"/>
       <use xlink:href="#DejaVuSans-2d" x="254.492188"/>
       <use xlink:href="#DejaVuSans-30" x="290.576172"/>
       <use xlink:href="#DejaVuSans-37" x="354.199219"/>
      </g>
     </g>
    </g>
    <g id="xtick_8">
     <g id="line2d_8">
      <g>
       <use xlink:href="#m134defa9e0" x="913.476682" y="368.3955" style="stroke: #000000; stroke-width: 0.8"/>
      </g>
     </g>
     <g id="text_8">
      <!-- 2021-10 -->
      <g transform="translate(892.585276 382.993937)scale(0.1 -0.1)">
       <use xlink:href="#DejaVuSans-32"/>
       <use xlink:href="#DejaVuSans-30" x="63.623047"/>
       <use xlink:href="#DejaVuSans-32" x="127.246094"/>
       <use xlink:href="#DejaVuSans-31" x="190.869141"/>
       <use xlink:href="#DejaVuSans-2d" x="254.492188"/>
       <use xlink:href="#DejaVuSans-31" x="290.576172"/>
       <use xlink:href="#DejaVuSans-30" x="354.199219"/>
      </g>
     </g>
    </g>
    <g id="xtick_9">
     <g id="line2d_9">
      <g>
       <use xlink:href="#m134defa9e0" x="1034.6951" y="368.3955" style="stroke: #000000; stroke-width: 0.8"/>
      </g>
     </g>
     <g id="text_9">
      <!-- 2022-01 -->
      <g transform="translate(1013.803694 382.993937)scale(0.1 -0.1)">
       <use xlink:href="#DejaVuSans-32"/>
       <use xlink:href="#DejaVuSans-30" x="63.623047"/>
       <use xlink:href="#DejaVuSans-32" x="127.246094"/>
       <use xlink:href="#DejaVuSans-32" x="190.869141"/>
       <use xlink:href="#DejaVuSans-2d" x="254.492188"/>
       <use xlink:href="#DejaVuSans-30" x="290.576172"/>
       <use xlink:href="#DejaVuSans-31" x="354.199219"/>
      </g>
     </g>
    </g>
    <g id="xtick_10">
     <g id="line2d_10">
      <g>
       <use xlink:href="#m134defa9e0" x="1153.278335" y="368.3955" style="stroke: #000000; stroke-width: 0.8"/>
      </g>
     </g>
     <g id="text_10">
      <!-- 2022-04 -->
      <g transform="translate(1132.386929 382.993937)scale(0.1 -0.1)">
       <use xlink:href="#DejaVuSans-32"/>
       <use xlink:href="#DejaVuSans-30" x="63.623047"/>
       <use xlink:href="#DejaVuSans-32" x="127.246094"/>
       <use xlink:href="#DejaVuSans-32" x="190.869141"/>
       <use xlink:href="#DejaVuSans-2d" x="254.492188"/>
       <use xlink:href="#DejaVuSans-30" x="290.576172"/>
       <use xlink:href="#DejaVuSans-34" x="354.199219"/>
      </g>
     </g>
    </g>
    <g id="xtick_11">
     <g id="line2d_11">
      <g>
       <use xlink:href="#m134defa9e0" x="1273.179162" y="368.3955" style="stroke: #000000; stroke-width: 0.8"/>
      </g>
     </g>
     <g id="text_11">
      <!-- 2022-07 -->
      <g transform="translate(1252.287755 382.993937)scale(0.1 -0.1)">
       <use xlink:href="#DejaVuSans-32"/>
       <use xlink:href="#DejaVuSans-30" x="63.623047"/>
       <use xlink:href="#DejaVuSans-32" x="127.246094"/>
       <use xlink:href="#DejaVuSans-32" x="190.869141"/>
       <use xlink:href="#DejaVuSans-2d" x="254.492188"/>
       <use xlink:href="#DejaVuSans-30" x="290.576172"/>
       <use xlink:href="#DejaVuSans-37" x="354.199219"/>
      </g>
     </g>
    </g>
   </g>
   <g id="matplotlib.axis_2">
    <g id="ytick_1">
     <g id="line2d_12">
      <defs>
       <path id="m5138f31c17" d="M 0 0 
L -3.5 0 
" style="stroke: #000000; stroke-width: 0.8"/>
      </defs>
      <g>
       <use xlink:href="#m5138f31c17" x="39.65" y="341.20777" style="stroke: #000000; stroke-width: 0.8"/>
      </g>
     </g>
     <g id="text_12">
      <!-- 0 -->
      <g transform="translate(26.2875 345.006988)scale(0.1 -0.1)">
       <use xlink:href="#DejaVuSans-30"/>
      </g>
     </g>
    </g>
    <g id="ytick_2">
     <g id="line2d_13">
      <g>
       <use xlink:href="#m5138f31c17" x="39.65" y="278.098919" style="stroke: #000000; stroke-width: 0.8"/>
      </g>
     </g>
     <g id="text_13">
      <!-- 2000 -->
      <g transform="translate(7.2 281.898137)scale(0.1 -0.1)">
       <use xlink:href="#DejaVuSans-32"/>
       <use xlink:href="#DejaVuSans-30" x="63.623047"/>
       <use xlink:href="#DejaVuSans-30" x="127.246094"/>
       <use xlink:href="#DejaVuSans-30" x="190.869141"/>
      </g>
     </g>
    </g>
    <g id="ytick_3">
     <g id="line2d_14">
      <g>
       <use xlink:href="#m5138f31c17" x="39.65" y="214.990067" style="stroke: #000000; stroke-width: 0.8"/>
      </g>
     </g>
     <g id="text_14">
      <!-- 4000 -->
      <g transform="translate(7.2 218.789286)scale(0.1 -0.1)">
       <use xlink:href="#DejaVuSans-34"/>
       <use xlink:href="#DejaVuSans-30" x="63.623047"/>
       <use xlink:href="#DejaVuSans-30" x="127.246094"/>
       <use xlink:href="#DejaVuSans-30" x="190.869141"/>
      </g>
     </g>
    </g>
    <g id="ytick_4">
     <g id="line2d_15">
      <g>
       <use xlink:href="#m5138f31c17" x="39.65" y="151.881216" style="stroke: #000000; stroke-width: 0.8"/>
      </g>
     </g>
     <g id="text_15">
      <!-- 6000 -->
      <g transform="translate(7.2 155.680435)scale(0.1 -0.1)">
       <defs>
        <path id="DejaVuSans-36" d="M 2113 2584 
Q 1688 2584 1439 2293 
Q 1191 2003 1191 1497 
Q 1191 994 1439 701 
Q 1688 409 2113 409 
Q 2538 409 2786 701 
Q 3034 994 3034 1497 
Q 3034 2003 2786 2293 
Q 2538 2584 2113 2584 
z
M 3366 4563 
L 3366 3988 
Q 3128 4100 2886 4159 
Q 2644 4219 2406 4219 
Q 1781 4219 1451 3797 
Q 1122 3375 1075 2522 
Q 1259 2794 1537 2939 
Q 1816 3084 2150 3084 
Q 2853 3084 3261 2657 
Q 3669 2231 3669 1497 
Q 3669 778 3244 343 
Q 2819 -91 2113 -91 
Q 1303 -91 875 529 
Q 447 1150 447 2328 
Q 447 3434 972 4092 
Q 1497 4750 2381 4750 
Q 2619 4750 2861 4703 
Q 3103 4656 3366 4563 
z
" transform="scale(0.015625)"/>
       </defs>
       <use xlink:href="#DejaVuSans-36"/>
       <use xlink:href="#DejaVuSans-30" x="63.623047"/>
       <use xlink:href="#DejaVuSans-30" x="127.246094"/>
       <use xlink:href="#DejaVuSans-30" x="190.869141"/>
      </g>
     </g>
    </g>
    <g id="ytick_5">
     <g id="line2d_16">
      <g>
       <use xlink:href="#m5138f31c17" x="39.65" y="88.772365" style="stroke: #000000; stroke-width: 0.8"/>
      </g>
     </g>
     <g id="text_16">
      <!-- 8000 -->
      <g transform="translate(7.2 92.571584)scale(0.1 -0.1)">
       <defs>
        <path id="DejaVuSans-38" d="M 2034 2216 
Q 1584 2216 1326 1975 
Q 1069 1734 1069 1313 
Q 1069 891 1326 650 
Q 1584 409 2034 409 
Q 2484 409 2743 651 
Q 3003 894 3003 1313 
Q 3003 1734 2745 1975 
Q 2488 2216 2034 2216 
z
M 1403 2484 
Q 997 2584 770 2862 
Q 544 3141 544 3541 
Q 544 4100 942 4425 
Q 1341 4750 2034 4750 
Q 2731 4750 3128 4425 
Q 3525 4100 3525 3541 
Q 3525 3141 3298 2862 
Q 3072 2584 2669 2484 
Q 3125 2378 3379 2068 
Q 3634 1759 3634 1313 
Q 3634 634 3220 271 
Q 2806 -91 2034 -91 
Q 1263 -91 848 271 
Q 434 634 434 1313 
Q 434 1759 690 2068 
Q 947 2378 1403 2484 
z
M 1172 3481 
Q 1172 3119 1398 2916 
Q 1625 2713 2034 2713 
Q 2441 2713 2670 2916 
Q 2900 3119 2900 3481 
Q 2900 3844 2670 4047 
Q 2441 4250 2034 4250 
Q 1625 4250 1398 4047 
Q 1172 3844 1172 3481 
z
" transform="scale(0.015625)"/>
       </defs>
       <use xlink:href="#DejaVuSans-38"/>
       <use xlink:href="#DejaVuSans-30" x="63.623047"/>
       <use xlink:href="#DejaVuSans-30" x="127.246094"/>
       <use xlink:href="#DejaVuSans-30" x="190.869141"/>
      </g>
     </g>
    </g>
   </g>
   <g id="line2d_17">
    <path d="M 100.522727 341.20777 
L 169.037485 341.20777 
L 170.355077 340.513572 
L 171.672668 341.20777 
L 172.99026 340.92378 
L 174.307851 340.92378 
L 175.625443 340.229583 
L 176.943034 340.3558 
L 178.260626 341.081552 
L 179.578217 340.63979 
L 180.895809 340.545127 
L 182.2134 339.756266 
L 184.848583 339.945593 
L 186.166175 340.166474 
L 187.483766 340.008702 
L 188.801358 339.346059 
L 190.118949 338.241654 
L 191.436541 338.336317 
L 192.754132 339.093623 
L 195.389315 336.632378 
L 196.706907 338.052327 
L 198.024498 338.210099 
L 199.34209 337.610565 
L 200.659681 333.981806 
L 201.977273 338.588752 
L 203.294864 336.884813 
L 207.247639 338.683416 
L 208.56523 337.957664 
L 209.882822 336.821705 
L 211.200413 336.379943 
L 212.518005 337.231912 
L 213.835596 335.212429 
L 215.153188 337.200358 
L 216.470779 336.979477 
L 217.788371 335.811963 
L 219.105962 337.799892 
L 220.423554 336.316834 
L 221.741145 335.938181 
L 223.058737 335.811963 
L 224.376328 336.727041 
L 225.69392 339.598494 
L 227.011511 337.989218 
L 228.329103 337.673674 
L 229.646694 334.360459 
L 230.964286 330.637037 
L 232.281877 336.821705 
L 233.599469 334.29735 
L 234.91706 336.348388 
L 236.234652 336.411497 
L 237.552243 336.821705 
L 240.187426 333.476935 
L 241.505018 334.802221 
L 242.822609 335.843517 
L 244.140201 337.515902 
L 245.457792 338.178545 
L 246.775384 338.083882 
L 248.092975 336.411497 
L 249.410567 336.947922 
L 250.728158 335.811963 
L 252.04575 338.651861 
L 253.363341 336.569269 
L 254.680933 336.032844 
L 255.998524 337.515902 
L 257.316116 333.729371 
L 258.633707 337.894555 
L 259.951299 338.904297 
L 261.26889 336.663932 
L 262.586482 337.579011 
L 263.904073 337.768337 
L 265.221665 338.935851 
L 266.539256 338.494089 
L 267.856848 339.756266 
L 269.174439 335.559528 
L 270.492031 338.557198 
L 273.127214 340.292691 
L 274.444805 337.105694 
L 277.079988 338.71497 
L 279.715171 339.219841 
L 281.032763 339.409167 
L 282.350354 338.525644 
L 283.667946 339.219841 
L 284.985537 339.56694 
L 286.303129 339.156732 
L 287.62072 339.472276 
L 288.938312 339.377613 
L 290.255903 340.198028 
L 291.573495 340.608236 
L 292.891086 340.292691 
L 294.208678 339.440722 
L 295.526269 339.661603 
L 296.843861 340.198028 
L 299.479044 340.008702 
L 303.431818 340.229583 
L 304.74941 340.387355 
L 306.067001 340.229583 
L 307.384593 340.198028 
L 308.702184 339.819375 
L 310.019776 340.103365 
L 311.337367 340.008702 
L 312.654959 340.418909 
L 313.97255 339.787821 
L 315.290142 340.829117 
L 316.607733 340.103365 
L 317.925325 340.166474 
L 320.560508 338.904297 
L 321.878099 340.040256 
L 323.195691 339.188286 
L 324.513282 339.377613 
L 325.830874 339.756266 
L 327.148465 339.346059 
L 328.466057 339.945593 
L 329.783648 338.683416 
L 331.10124 339.630048 
L 332.418831 339.977147 
L 333.736423 338.71497 
L 335.054014 339.093623 
L 339.006789 337.989218 
L 340.32438 339.882484 
L 341.641972 338.746525 
L 342.959563 339.062069 
L 344.277155 339.219841 
L 345.594746 338.746525 
L 346.912338 338.462535 
L 348.229929 339.503831 
L 349.547521 339.377613 
L 352.182704 338.71497 
L 353.500295 339.030514 
L 354.817887 339.977147 
L 356.135478 338.525644 
L 357.45307 339.787821 
L 358.770661 338.841188 
L 361.405844 339.188286 
L 362.723436 338.052327 
L 364.041027 339.503831 
L 365.358619 338.399426 
L 366.67621 339.219841 
L 367.993802 339.156732 
L 369.311393 338.241654 
L 370.628985 339.914038 
L 371.946576 339.28295 
L 373.264168 339.535385 
L 374.581759 339.56694 
L 375.899351 340.292691 
L 377.216942 339.472276 
L 379.852125 339.156732 
L 382.487308 339.661603 
L 383.8049 339.787821 
L 385.122491 341.20777 
L 386.440083 337.736783 
L 387.757674 339.409167 
L 389.075266 338.872742 
L 390.392857 340.134919 
L 391.710449 340.166474 
L 393.02804 339.409167 
L 394.345632 340.324246 
L 395.663223 339.377613 
L 396.980815 339.598494 
L 398.298406 339.56694 
L 399.615998 339.914038 
L 400.933589 340.07181 
L 402.251181 339.724712 
L 403.568772 340.418909 
L 404.886364 340.418909 
L 406.203955 338.651861 
L 407.521547 341.20777 
L 408.839138 338.083882 
L 410.15673 340.261137 
L 411.474321 339.156732 
L 414.109504 339.724712 
L 415.427096 339.251395 
L 416.744687 339.630048 
L 418.062279 339.535385 
L 419.37987 340.482018 
L 420.697462 339.850929 
L 422.015053 340.292691 
L 423.332645 339.440722 
L 424.650236 339.409167 
L 425.967828 339.56694 
L 427.285419 340.103365 
L 428.603011 340.766008 
L 429.920602 340.07181 
L 431.238194 340.387355 
L 432.555785 340.198028 
L 433.873377 339.156732 
L 435.190968 339.630048 
L 436.50856 339.756266 
L 437.826151 340.324246 
L 439.143743 337.894555 
L 440.461334 341.20777 
L 441.778926 337.64212 
L 443.096517 338.746525 
L 444.414109 338.841188 
L 445.7317 339.125178 
L 447.049292 340.008702 
L 448.366883 339.756266 
L 449.684475 339.188286 
L 451.002066 340.134919 
L 452.319658 338.399426 
L 453.637249 338.71497 
L 454.954841 340.07181 
L 456.272432 340.418909 
L 457.590024 339.630048 
L 458.907615 339.535385 
L 460.225207 339.977147 
L 461.542798 338.935851 
L 462.86039 338.14699 
L 464.177981 339.28295 
L 465.495573 339.787821 
L 466.813164 338.241654 
L 468.130756 339.093623 
L 469.448347 338.020773 
L 470.765939 338.99896 
L 472.08353 337.35813 
L 473.401122 337.957664 
L 474.718713 339.030514 
L 476.036305 338.494089 
L 477.353896 338.778079 
L 478.671488 338.651861 
L 479.989079 337.736783 
L 481.306671 338.083882 
L 482.624262 337.736783 
L 483.941854 338.494089 
L 485.259445 338.494089 
L 486.577037 334.707558 
L 487.894628 337.168803 
L 489.21222 336.190616 
L 490.529811 336.537715 
L 491.847403 336.064398 
L 493.164994 338.462535 
L 494.482586 333.476935 
L 495.800177 336.285279 
L 497.117769 334.486677 
L 498.43536 337.105694 
L 499.752952 336.379943 
L 501.070543 335.212429 
L 502.388135 336.821705 
L 503.705726 337.452793 
L 505.023318 337.831446 
L 506.340909 334.265796 
L 507.658501 334.86533 
L 508.976092 329.501078 
L 510.293684 336.79015 
L 511.611275 337.926109 
L 512.928867 337.011031 
L 514.246458 336.253725 
L 515.56405 331.047245 
L 516.881641 331.236571 
L 518.199233 328.838435 
L 519.516824 332.877401 
L 520.834416 335.43331 
L 522.152007 332.688075 
L 523.469599 332.845847 
L 524.78719 333.50849 
L 526.104782 333.035173 
L 527.422373 332.183204 
L 528.739965 333.918697 
L 530.057556 336.032844 
L 531.375148 331.709888 
L 534.010331 334.013361 
L 535.327922 332.561857 
L 536.645514 333.697816 
L 537.963105 333.035173 
L 539.280697 336.821705 
L 540.598288 336.159062 
L 541.91588 330.921027 
L 543.233471 334.58134 
L 544.551063 341.20777 
L 545.868654 332.561857 
L 547.186246 325.682992 
L 548.503837 336.79015 
L 549.821429 335.117766 
L 551.13902 334.171133 
L 552.456612 334.108024 
L 553.774203 332.719629 
L 555.091795 333.098282 
L 556.409386 333.161391 
L 557.726978 336.79015 
L 559.044569 332.94051 
L 560.362161 331.236571 
L 561.679752 332.751184 
L 562.997344 329.94284 
L 564.314935 330.163721 
L 565.632527 330.668592 
L 566.950118 334.833776 
L 568.26771 327.639367 
L 569.585301 335.622636 
L 570.902893 334.265796 
L 572.220484 331.110354 
L 573.538076 328.680663 
L 574.855667 331.29968 
L 576.173259 335.464864 
L 577.49085 334.07647 
L 578.808442 336.663932 
L 580.126033 334.612895 
L 581.443625 331.962323 
L 582.761216 335.780408 
L 584.078808 334.139578 
L 585.396399 334.770667 
L 586.713991 335.054657 
L 588.031582 336.001289 
L 589.349174 332.782738 
L 590.666765 332.309422 
L 593.301948 334.58134 
L 594.61954 336.916368 
L 595.937131 341.20777 
L 597.254723 335.180874 
L 598.572314 335.969735 
L 599.889906 332.719629 
L 601.207497 333.540044 
L 602.525089 336.22217 
L 603.84268 338.020773 
L 605.160272 336.632378 
L 606.477863 339.093623 
L 607.795455 335.370201 
L 609.113046 336.884813 
L 610.430638 337.231912 
L 611.748229 337.35813 
L 613.065821 338.588752 
L 614.383412 337.105694 
L 615.701004 339.661603 
L 617.018595 337.389684 
L 618.336187 336.159062 
L 619.653778 338.304763 
L 620.97137 338.210099 
L 622.288961 337.831446 
L 623.606553 338.399426 
L 624.924144 338.083882 
L 626.241736 335.559528 
L 627.559327 336.095953 
L 628.876919 335.086211 
L 630.19451 337.421239 
L 631.512102 338.494089 
L 632.829693 338.588752 
L 634.147285 339.598494 
L 635.464876 335.023102 
L 636.782468 337.799892 
L 638.100059 336.443051 
L 639.417651 336.600824 
L 640.735242 336.159062 
L 642.052834 330.763255 
L 643.370425 338.178545 
L 644.688017 337.35813 
L 646.005608 336.348388 
L 647.3232 336.474606 
L 648.640791 338.71497 
L 649.958383 337.673674 
L 651.275974 337.831446 
L 652.593566 338.651861 
L 653.911157 338.651861 
L 655.228749 336.727041 
L 656.54634 336.758596 
L 657.863932 339.503831 
L 659.181523 336.348388 
L 660.499115 337.894555 
L 661.816706 337.831446 
L 663.134298 338.872742 
L 664.451889 336.285279 
L 665.769481 334.07647 
L 667.087072 337.295021 
L 668.404664 338.904297 
L 669.722255 336.001289 
L 671.039847 338.052327 
L 672.357438 336.695487 
L 673.67503 336.443051 
L 674.992621 337.263466 
L 676.310213 337.894555 
L 677.627804 338.841188 
L 678.945396 337.35813 
L 680.262987 338.241654 
L 681.580579 335.843517 
L 682.89817 336.916368 
L 684.215762 337.168803 
L 685.533353 339.062069 
L 686.850945 338.904297 
L 688.168536 337.64212 
L 689.486128 335.117766 
L 690.803719 337.863001 
L 692.121311 336.979477 
L 693.438902 337.105694 
L 694.756494 338.588752 
L 696.074085 338.746525 
L 697.391677 337.137249 
L 698.709268 338.935851 
L 700.02686 338.083882 
L 701.344451 338.020773 
L 702.662043 338.746525 
L 703.979634 337.926109 
L 705.297226 339.472276 
L 706.614817 338.273208 
L 707.932409 339.251395 
L 709.25 338.651861 
L 710.567591 338.588752 
L 711.885183 341.20777 
L 713.202774 337.957664 
L 714.520366 337.957664 
L 715.837957 338.588752 
L 717.155549 339.472276 
L 718.47314 339.977147 
L 719.790732 339.440722 
L 721.108323 340.324246 
L 722.425915 340.702899 
L 723.743506 340.734453 
L 725.061098 338.462535 
L 726.378689 339.503831 
L 727.696281 339.062069 
L 729.013872 340.576681 
L 730.331464 337.863001 
L 731.649055 340.734453 
L 732.966647 339.787821 
L 734.284238 340.387355 
L 735.60183 340.63979 
L 736.919421 340.324246 
L 738.237013 340.3558 
L 739.554604 340.008702 
L 740.872196 340.545127 
L 742.189787 340.766008 
L 743.507379 339.914038 
L 744.82497 340.608236 
L 746.142562 340.513572 
L 747.460153 339.503831 
L 748.777745 341.20777 
L 751.412928 341.20777 
L 752.730519 337.989218 
L 754.048111 340.860671 
L 755.365702 340.261137 
L 756.683294 340.3558 
L 758.000885 341.20777 
L 759.318477 341.20777 
L 760.636068 339.882484 
L 761.95366 340.92378 
L 763.271251 340.955334 
L 764.588843 340.450463 
L 765.906434 340.986889 
L 767.224026 340.545127 
L 768.541617 341.20777 
L 769.859209 340.545127 
L 771.1768 340.797562 
L 773.811983 340.92378 
L 775.129575 340.860671 
L 776.447166 341.20777 
L 777.764758 341.20777 
L 779.082349 340.608236 
L 781.717532 340.92378 
L 783.035124 340.797562 
L 786.987898 341.20777 
L 788.30549 340.324246 
L 789.623081 340.766008 
L 790.940673 340.955334 
L 792.258264 340.986889 
L 793.575856 340.702899 
L 794.893447 341.20777 
L 797.52863 341.20777 
L 798.846222 339.977147 
L 800.163813 341.018443 
L 801.481405 340.860671 
L 802.798996 340.545127 
L 804.116588 341.20777 
L 805.434179 341.20777 
L 806.751771 338.967405 
L 808.069362 340.892225 
L 809.386954 340.008702 
L 810.704545 339.914038 
L 812.022137 340.040256 
L 813.339728 341.20777 
L 814.65732 341.20777 
L 815.974911 336.758596 
L 817.292503 340.134919 
L 818.610094 340.229583 
L 819.927686 338.935851 
L 821.245277 339.850929 
L 822.562869 341.20777 
L 823.88046 341.20777 
L 825.198052 335.307092 
L 826.515643 339.062069 
L 827.833235 339.945593 
L 829.150826 339.28295 
L 830.468418 339.030514 
L 831.786009 341.20777 
L 833.103601 341.20777 
L 834.421192 331.110354 
L 835.738784 338.620307 
L 837.056375 339.377613 
L 838.373967 337.515902 
L 839.691558 337.168803 
L 841.00915 341.20777 
L 842.326741 341.20777 
L 843.644333 325.872319 
L 844.961924 341.20777 
L 846.279516 332.877401 
L 847.597107 336.411497 
L 848.914699 335.023102 
L 850.23229 341.20777 
L 851.549882 341.20777 
L 852.867473 323.032421 
L 854.185065 339.125178 
L 855.502656 335.496419 
L 856.820248 336.853259 
L 858.137839 335.527973 
L 859.455431 341.20777 
L 860.773022 341.20777 
L 862.090614 323.663509 
L 863.408205 337.011031 
L 864.725797 337.263466 
L 866.043388 334.58134 
L 867.36098 335.212429 
L 868.678571 341.20777 
L 869.996163 341.20777 
L 871.313754 319.214335 
L 872.631346 335.591082 
L 873.948937 336.821705 
L 875.266529 336.537715 
L 876.58412 334.896885 
L 877.901712 341.20777 
L 880.536895 341.20777 
L 881.854486 320.665839 
L 883.172078 337.263466 
L 884.489669 336.001289 
L 885.807261 337.831446 
L 887.124852 341.20777 
L 888.442444 341.20777 
L 889.760035 315.806457 
L 891.077627 329.37486 
L 893.71281 334.612895 
L 895.030401 334.833776 
L 896.347993 341.20777 
L 897.665584 341.20777 
L 898.983176 318.741019 
L 900.300767 336.50616 
L 901.618359 336.884813 
L 902.93595 335.875072 
L 904.253542 335.307092 
L 905.571133 341.20777 
L 906.888725 341.20777 
L 908.206316 323.31641 
L 909.523908 337.231912 
L 910.841499 338.115436 
L 912.159091 336.253725 
L 913.476682 335.591082 
L 914.794274 341.20777 
L 916.111865 341.20777 
L 917.429457 326.692734 
L 918.747048 338.935851 
L 920.06464 337.579011 
L 921.382231 337.421239 
L 922.699823 335.906626 
L 924.017414 327.45004 
L 925.335006 341.20777 
L 927.970189 341.20777 
L 929.28778 339.693157 
L 930.605372 337.989218 
L 931.922963 337.295021 
L 933.240555 341.20777 
L 934.558146 341.20777 
L 935.875738 330.826364 
L 937.193329 339.945593 
L 938.510921 339.472276 
L 939.828512 338.872742 
L 941.146104 337.610565 
L 942.463695 341.20777 
L 943.781287 341.20777 
L 945.098878 332.025432 
L 946.41647 339.945593 
L 947.734061 338.967405 
L 949.051653 337.484347 
L 950.369244 337.042586 
L 951.686836 341.20777 
L 953.004427 341.20777 
L 954.322019 333.950252 
L 955.63961 338.967405 
L 956.957202 339.28295 
L 958.274793 337.863001 
L 959.592385 338.336317 
L 960.909976 341.20777 
L 962.227568 341.20777 
L 963.545159 333.287609 
L 964.862751 339.819375 
L 966.180342 339.156732 
L 967.497934 341.20777 
L 968.815525 334.518231 
L 970.133117 341.20777 
L 971.450708 341.20777 
L 972.7683 333.256054 
L 974.085891 338.557198 
L 975.403483 338.494089 
L 976.721074 338.178545 
L 978.038666 336.821705 
L 979.356257 341.20777 
L 980.673849 341.20777 
L 981.99144 331.141908 
L 983.309032 338.494089 
L 984.626623 338.778079 
L 985.944215 341.20777 
L 989.896989 341.20777 
L 991.214581 330.258384 
L 992.532172 339.472276 
L 993.849764 336.947922 
L 995.167355 337.231912 
L 996.484947 333.098282 
L 997.802538 341.20777 
L 999.12013 341.20777 
L 1000.437721 323.284856 
L 1001.755313 336.916368 
L 1003.072904 337.168803 
L 1004.390496 334.959993 
L 1005.708087 333.571599 
L 1007.025679 341.20777 
L 1009.660862 341.20777 
L 1010.978453 314.765161 
L 1012.296045 330.889473 
L 1013.613636 325.178122 
L 1014.931228 314.575835 
L 1016.248819 341.20777 
L 1018.884002 341.20777 
L 1020.201594 186.023105 
L 1021.519185 293.118825 
L 1022.836777 281.128143 
L 1024.154368 341.20777 
L 1026.789551 341.20777 
L 1028.107143 50.907054 
L 1029.424734 282.264103 
L 1030.742326 296.652921 
L 1032.059917 270.494302 
L 1033.377509 341.20777 
L 1036.012692 341.20777 
L 1037.330283 50.8755 
L 1038.647875 277.909592 
L 1039.965466 299.366601 
L 1041.283058 341.20777 
L 1042.600649 300.407897 
L 1043.918241 280.370837 
L 1045.235832 341.20777 
L 1046.553424 144.371263 
L 1047.871015 299.934581 
L 1049.188607 302.837588 
L 1050.506198 293.087271 
L 1051.82379 292.487737 
L 1053.141381 341.20777 
L 1055.776564 341.20777 
L 1057.094156 220.164993 
L 1058.411747 326.061645 
L 1059.729339 341.20777 
L 1061.04693 309.243137 
L 1062.364522 341.20777 
L 1063.682113 341.20777 
L 1064.999705 298.609295 
L 1066.317296 335.243983 
L 1067.634888 329.564187 
L 1068.952479 329.501078 
L 1070.270071 330.542374 
L 1071.587662 341.20777 
L 1074.222845 341.20777 
L 1075.540437 305.48816 
L 1076.858028 336.663932 
L 1078.17562 335.180874 
L 1079.493211 333.035173 
L 1080.810803 341.20777 
L 1082.128394 341.20777 
L 1083.445986 321.423145 
L 1084.763577 338.462535 
L 1086.081169 321.423145 
L 1087.39876 349.285703 
L 1088.716352 335.14932 
L 1090.033943 341.20777 
L 1091.351535 341.20777 
L 1092.669126 326.219418 
L 1093.986718 339.819375 
L 1095.304309 337.421239 
L 1096.621901 337.168803 
L 1097.939492 337.736783 
L 1099.257084 341.20777 
L 1101.892267 341.20777 
L 1103.209858 329.564187 
L 1104.52745 339.693157 
L 1105.845041 334.518231 
L 1107.162633 341.20777 
L 1109.797816 341.20777 
L 1111.115407 333.697816 
L 1113.75059 341.20777 
L 1120.338548 341.20777 
L 1121.656139 328.333564 
L 1122.973731 341.20777 
L 1124.291322 336.884813 
L 1125.608914 341.20777 
L 1130.87928 341.20777 
L 1132.196871 330.100612 
L 1133.514463 337.863001 
L 1134.832054 338.967405 
L 1136.149646 341.20777 
L 1137.467237 341.20777 
L 1138.784829 337.042586 
L 1140.10242 338.967405 
L 1141.420012 337.831446 
L 1142.737603 336.443051 
L 1144.055195 337.768337 
L 1145.372786 341.20777 
L 1146.690378 341.20777 
L 1148.007969 335.401755 
L 1150.643152 341.20777 
L 1151.960744 332.120095 
L 1153.278335 341.20777 
L 1158.548701 341.20777 
L 1159.866293 318.583247 
L 1161.183884 341.20777 
L 1166.45425 341.20777 
L 1167.771842 299.051057 
L 1169.089433 334.234242 
L 1170.407025 341.20777 
L 1171.724616 321.896461 
L 1173.042208 341.20777 
L 1176.994982 341.20777 
L 1178.312574 312.745678 
L 1179.630165 335.811963 
L 1180.947757 341.20777 
L 1182.265348 325.115013 
L 1183.58294 341.20777 
L 1186.218123 341.20777 
L 1187.535714 322.653767 
L 1188.853306 341.20777 
L 1203.346812 341.20777 
L 1204.664404 307.69697 
L 1205.981995 341.20777 
L 1207.299587 311.609719 
L 1209.93477 325.051904 
L 1211.252361 341.20777 
L 1212.569953 341.20777 
L 1213.887544 320.413403 
L 1215.205136 331.205017 
L 1216.522727 329.94284 
L 1217.840319 329.09087 
L 1219.15791 331.552115 
L 1220.475502 341.20777 
L 1221.793093 341.20777 
L 1223.110685 321.991125 
L 1224.428276 326.976724 
L 1225.745868 323.127084 
L 1227.063459 327.702476 
L 1228.381051 341.20777 
L 1231.016234 341.20777 
L 1232.333825 329.627296 
L 1233.651417 320.224077 
L 1234.969008 335.14932 
L 1236.2866 332.120095 
L 1237.604191 334.202687 
L 1238.921783 341.20777 
L 1240.239374 341.20777 
L 1241.556966 320.792056 
L 1242.874557 330.921027 
L 1244.192149 332.561857 
L 1245.50974 331.709888 
L 1246.827332 333.445381 
L 1248.144923 341.20777 
L 1249.462515 341.20777 
L 1250.780106 327.16605 
L 1252.097698 335.14932 
L 1253.415289 334.108024 
L 1254.732881 333.571599 
L 1256.050472 341.20777 
L 1258.685655 341.20777 
L 1260.003247 332.94051 
L 1261.320838 314.039409 
L 1262.63843 333.571599 
L 1263.956021 341.20777 
L 1265.273613 323.88439 
L 1266.591204 341.20777 
L 1269.226387 341.20777 
L 1270.543979 317.857495 
L 1271.86157 333.476935 
L 1273.179162 333.666262 
L 1274.496753 341.20777 
L 1277.131936 341.20777 
L 1278.449528 332.94051 
L 1279.767119 341.20777 
L 1281.084711 316.910862 
L 1282.402302 334.644449 
L 1283.719894 341.20777 
L 1285.037485 341.20777 
L 1286.355077 332.782738 
L 1287.672668 325.209676 
L 1288.99026 333.824034 
L 1290.307851 334.739112 
L 1291.625443 333.79248 
L 1292.943034 341.20777 
L 1295.578217 341.20777 
L 1296.895809 315.838012 
L 1298.2134 335.212429 
L 1299.530992 333.981806 
L 1300.848583 334.360459 
L 1300.848583 334.360459 
" clip-path="url(#p039039ec75)" style="fill: none; stroke: #0000ff; stroke-width: 1.5; stroke-linecap: square"/>
   </g>
   <g id="line2d_18">
    <path d="M 1061.04693 353.2755 
L 1062.364522 330.707356 
L 1063.682113 338.126263 
L 1064.999705 285.116038 
L 1066.317296 324.326115 
L 1067.634888 341.662714 
L 1068.952479 320.089131 
L 1070.270071 335.661596 
L 1071.587662 349.040305 
L 1072.905254 321.707042 
L 1074.222845 335.299637 
L 1075.540437 342.035292 
L 1076.858028 336.372737 
L 1078.17562 339.797013 
L 1079.493211 344.936457 
L 1080.810803 337.516039 
L 1082.128394 338.892275 
L 1083.445986 323.27208 
L 1084.763577 334.438107 
L 1086.081169 339.419751 
L 1087.39876 331.499006 
L 1088.716352 337.142747 
L 1090.033943 338.963516 
L 1091.351535 327.027332 
L 1092.669126 339.877852 
L 1093.986718 329.863288 
L 1095.304309 343.937056 
L 1096.621901 338.282486 
L 1099.257084 341.084781 
L 1100.574675 333.263775 
L 1101.892267 337.541929 
L 1103.209858 339.643796 
L 1104.52745 338.143357 
L 1105.845041 340.589687 
L 1107.162633 341.459714 
L 1108.480224 339.52004 
L 1109.797816 339.468565 
L 1111.115407 334.270692 
L 1112.432999 339.045865 
L 1113.75059 336.773627 
L 1115.068182 339.076381 
L 1116.385773 338.911454 
L 1117.703365 340.163524 
L 1119.020956 337.04515 
L 1120.338548 339.224353 
L 1121.656139 343.407031 
L 1122.973731 341.664544 
L 1124.291322 342.812603 
L 1125.608914 341.249191 
L 1126.926505 339.091499 
L 1128.244097 339.079827 
L 1129.561688 331.867209 
L 1130.87928 338.304939 
L 1132.196871 339.322109 
L 1133.514463 340.529496 
L 1134.832054 341.922578 
L 1136.149646 341.363731 
L 1137.467237 339.002529 
L 1138.784829 339.78459 
L 1140.10242 333.677895 
L 1141.420012 337.615334 
L 1142.737603 338.897369 
L 1144.055195 339.337289 
L 1145.372786 339.52189 
L 1146.690378 337.848509 
L 1148.007969 338.89195 
L 1150.643152 337.186366 
L 1151.960744 339.08331 
L 1153.278335 339.089431 
L 1154.595927 339.773067 
L 1155.913518 336.509145 
L 1157.23111 336.946759 
L 1158.548701 339.671677 
L 1159.866293 339.092107 
L 1161.183884 340.479429 
L 1162.501476 342.037542 
L 1165.136659 335.854973 
L 1166.45425 338.261857 
L 1167.771842 333.838883 
L 1169.089433 339.451175 
L 1170.407025 340.513942 
L 1171.724616 338.208912 
L 1173.042208 329.407249 
L 1174.359799 333.635865 
L 1175.677391 310.362856 
L 1178.312574 337.818799 
L 1179.630165 326.610826 
L 1180.947757 338.946206 
L 1182.265348 344.450898 
L 1183.58294 336.294395 
L 1184.900531 337.97686 
L 1186.218123 323.391367 
L 1187.535714 333.855732 
L 1188.853306 337.143993 
L 1190.170897 329.877374 
L 1191.488489 337.39466 
L 1192.80608 339.089739 
L 1194.123672 340.224055 
L 1195.441263 331.661213 
L 1196.758855 341.588412 
L 1198.076446 342.532499 
L 1199.394038 342.165026 
L 1200.711629 343.253863 
L 1202.029221 344.668052 
L 1203.346812 343.734658 
L 1204.664404 348.595203 
L 1205.981995 343.093483 
L 1207.299587 347.513848 
L 1208.617178 342.017916 
L 1209.93477 335.491815 
L 1211.252361 331.376976 
L 1212.569953 307.056372 
L 1213.887544 323.186455 
L 1215.205136 310.290661 
L 1216.522727 316.01204 
L 1217.840319 323.268831 
L 1219.15791 332.764486 
L 1220.475502 333.605657 
L 1221.793093 325.418643 
L 1223.110685 333.731409 
L 1224.428276 334.050493 
L 1225.745868 334.953705 
L 1227.063459 335.031122 
L 1228.381051 336.150035 
L 1229.698642 334.708616 
L 1231.016234 322.800348 
L 1232.333825 327.190692 
L 1233.651417 329.926375 
L 1234.969008 330.804619 
L 1236.2866 339.457842 
L 1237.604191 338.859316 
L 1238.921783 336.638389 
L 1240.239374 332.119027 
L 1241.556966 328.865719 
L 1242.874557 334.156033 
L 1244.192149 334.556732 
L 1245.50974 334.438312 
L 1246.827332 336.55277 
L 1248.144923 336.870682 
L 1249.462515 325.366474 
L 1250.780106 331.19046 
L 1253.415289 333.313822 
L 1254.732881 334.749389 
L 1256.050472 337.924772 
L 1257.368064 338.820321 
L 1258.685655 331.07505 
L 1260.003247 336.253028 
L 1261.320838 340.850459 
L 1262.63843 337.753914 
L 1263.956021 340.540187 
L 1265.273613 340.660789 
L 1266.591204 333.775207 
L 1267.908796 331.148282 
L 1269.226387 320.214868 
L 1270.543979 330.95288 
L 1271.86157 336.404832 
L 1273.179162 329.844475 
L 1274.496753 337.097913 
L 1275.814345 336.990606 
L 1277.131936 336.391161 
L 1278.449528 326.251444 
L 1279.767119 334.197097 
L 1281.084711 339.721846 
L 1282.402302 340.268516 
L 1285.037485 340.345327 
L 1286.355077 333.220717 
L 1287.672668 339.16317 
L 1288.99026 326.644874 
L 1290.307851 333.604576 
L 1291.625443 336.367686 
L 1292.943034 333.994969 
L 1294.260626 330.845375 
L 1295.578217 328.364898 
L 1296.895809 336.628008 
L 1298.2134 335.858334 
L 1299.530992 336.887275 
L 1300.848583 339.687917 
L 1300.848583 339.687917 
" clip-path="url(#p039039ec75)" style="fill: none; stroke: #ffa500; stroke-width: 1.5; stroke-linecap: square"/>
   </g>
   <g id="line2d_19">
    <path d="M 1300.848583 339.687917 
L 1302.166175 336.488154 
L 1303.483766 337.484741 
L 1304.801358 323.823264 
L 1306.118949 334.727863 
L 1307.436541 334.158668 
L 1308.754132 333.969444 
L 1310.071724 336.823996 
L 1311.389315 335.114064 
L 1312.706907 335.761986 
L 1314.024498 328.431076 
L 1315.34209 334.255156 
L 1316.659681 333.921389 
L 1317.977273 333.816467 
" clip-path="url(#p039039ec75)" style="fill: none; stroke: #ff0000; stroke-width: 1.5; stroke-linecap: square"/>
   </g>
   <g id="patch_3">
    <path d="M 39.65 368.3955 
L 39.65 35.7555 
" style="fill: none; stroke: #000000; stroke-width: 0.8; stroke-linejoin: miter; stroke-linecap: square"/>
   </g>
   <g id="patch_4">
    <path d="M 1378.85 368.3955 
L 1378.85 35.7555 
" style="fill: none; stroke: #000000; stroke-width: 0.8; stroke-linejoin: miter; stroke-linecap: square"/>
   </g>
   <g id="patch_5">
    <path d="M 39.65 368.3955 
L 1378.85 368.3955 
" style="fill: none; stroke: #000000; stroke-width: 0.8; stroke-linejoin: miter; stroke-linecap: square"/>
   </g>
   <g id="patch_6">
    <path d="M 39.65 35.7555 
L 1378.85 35.7555 
" style="fill: none; stroke: #000000; stroke-width: 0.8; stroke-linejoin: miter; stroke-linecap: square"/>
   </g>
   <g id="text_17">
    <!-- Daily Confirmed Cases Forecasting - District of Columbia -->
    <g transform="translate(539.275625 16.318125)scale(0.12 -0.12)">
     <defs>
      <path id="DejaVuSans-44" d="M 1259 4147 
L 1259 519 
L 2022 519 
Q 2988 519 3436 956 
Q 3884 1394 3884 2338 
Q 3884 3275 3436 3711 
Q 2988 4147 2022 4147 
L 1259 4147 
z
M 628 4666 
L 1925 4666 
Q 3281 4666 3915 4102 
Q 4550 3538 4550 2338 
Q 4550 1131 3912 565 
Q 3275 0 1925 0 
L 628 0 
L 628 4666 
z
" transform="scale(0.015625)"/>
      <path id="DejaVuSans-61" d="M 2194 1759 
Q 1497 1759 1228 1600 
Q 959 1441 959 1056 
Q 959 750 1161 570 
Q 1363 391 1709 391 
Q 2188 391 2477 730 
Q 2766 1069 2766 1631 
L 2766 1759 
L 2194 1759 
z
M 3341 1997 
L 3341 0 
L 2766 0 
L 2766 531 
Q 2569 213 2275 61 
Q 1981 -91 1556 -91 
Q 1019 -91 701 211 
Q 384 513 384 1019 
Q 384 1609 779 1909 
Q 1175 2209 1959 2209 
L 2766 2209 
L 2766 2266 
Q 2766 2663 2505 2880 
Q 2244 3097 1772 3097 
Q 1472 3097 1187 3025 
Q 903 2953 641 2809 
L 641 3341 
Q 956 3463 1253 3523 
Q 1550 3584 1831 3584 
Q 2591 3584 2966 3190 
Q 3341 2797 3341 1997 
z
" transform="scale(0.015625)"/>
      <path id="DejaVuSans-69" d="M 603 3500 
L 1178 3500 
L 1178 0 
L 603 0 
L 603 3500 
z
M 603 4863 
L 1178 4863 
L 1178 4134 
L 603 4134 
L 603 4863 
z
" transform="scale(0.015625)"/>
      <path id="DejaVuSans-6c" d="M 603 4863 
L 1178 4863 
L 1178 0 
L 603 0 
L 603 4863 
z
" transform="scale(0.015625)"/>
      <path id="DejaVuSans-79" d="M 2059 -325 
Q 1816 -950 1584 -1140 
Q 1353 -1331 966 -1331 
L 506 -1331 
L 506 -850 
L 844 -850 
Q 1081 -850 1212 -737 
Q 1344 -625 1503 -206 
L 1606 56 
L 191 3500 
L 800 3500 
L 1894 763 
L 2988 3500 
L 3597 3500 
L 2059 -325 
z
" transform="scale(0.015625)"/>
      <path id="DejaVuSans-20" transform="scale(0.015625)"/>
      <path id="DejaVuSans-43" d="M 4122 4306 
L 4122 3641 
Q 3803 3938 3442 4084 
Q 3081 4231 2675 4231 
Q 1875 4231 1450 3742 
Q 1025 3253 1025 2328 
Q 1025 1406 1450 917 
Q 1875 428 2675 428 
Q 3081 428 3442 575 
Q 3803 722 4122 1019 
L 4122 359 
Q 3791 134 3420 21 
Q 3050 -91 2638 -91 
Q 1578 -91 968 557 
Q 359 1206 359 2328 
Q 359 3453 968 4101 
Q 1578 4750 2638 4750 
Q 3056 4750 3426 4639 
Q 3797 4528 4122 4306 
z
" transform="scale(0.015625)"/>
      <path id="DejaVuSans-6f" d="M 1959 3097 
Q 1497 3097 1228 2736 
Q 959 2375 959 1747 
Q 959 1119 1226 758 
Q 1494 397 1959 397 
Q 2419 397 2687 759 
Q 2956 1122 2956 1747 
Q 2956 2369 2687 2733 
Q 2419 3097 1959 3097 
z
M 1959 3584 
Q 2709 3584 3137 3096 
Q 3566 2609 3566 1747 
Q 3566 888 3137 398 
Q 2709 -91 1959 -91 
Q 1206 -91 779 398 
Q 353 888 353 1747 
Q 353 2609 779 3096 
Q 1206 3584 1959 3584 
z
" transform="scale(0.015625)"/>
      <path id="DejaVuSans-6e" d="M 3513 2113 
L 3513 0 
L 2938 0 
L 2938 2094 
Q 2938 2591 2744 2837 
Q 2550 3084 2163 3084 
Q 1697 3084 1428 2787 
Q 1159 2491 1159 1978 
L 1159 0 
L 581 0 
L 581 3500 
L 1159 3500 
L 1159 2956 
Q 1366 3272 1645 3428 
Q 1925 3584 2291 3584 
Q 2894 3584 3203 3211 
Q 3513 2838 3513 2113 
z
" transform="scale(0.015625)"/>
      <path id="DejaVuSans-66" d="M 2375 4863 
L 2375 4384 
L 1825 4384 
Q 1516 4384 1395 4259 
Q 1275 4134 1275 3809 
L 1275 3500 
L 2222 3500 
L 2222 3053 
L 1275 3053 
L 1275 0 
L 697 0 
L 697 3053 
L 147 3053 
L 147 3500 
L 697 3500 
L 697 3744 
Q 697 4328 969 4595 
Q 1241 4863 1831 4863 
L 2375 4863 
z
" transform="scale(0.015625)"/>
      <path id="DejaVuSans-72" d="M 2631 2963 
Q 2534 3019 2420 3045 
Q 2306 3072 2169 3072 
Q 1681 3072 1420 2755 
Q 1159 2438 1159 1844 
L 1159 0 
L 581 0 
L 581 3500 
L 1159 3500 
L 1159 2956 
Q 1341 3275 1631 3429 
Q 1922 3584 2338 3584 
Q 2397 3584 2469 3576 
Q 2541 3569 2628 3553 
L 2631 2963 
z
" transform="scale(0.015625)"/>
      <path id="DejaVuSans-6d" d="M 3328 2828 
Q 3544 3216 3844 3400 
Q 4144 3584 4550 3584 
Q 5097 3584 5394 3201 
Q 5691 2819 5691 2113 
L 5691 0 
L 5113 0 
L 5113 2094 
Q 5113 2597 4934 2840 
Q 4756 3084 4391 3084 
Q 3944 3084 3684 2787 
Q 3425 2491 3425 1978 
L 3425 0 
L 2847 0 
L 2847 2094 
Q 2847 2600 2669 2842 
Q 2491 3084 2119 3084 
Q 1678 3084 1418 2786 
Q 1159 2488 1159 1978 
L 1159 0 
L 581 0 
L 581 3500 
L 1159 3500 
L 1159 2956 
Q 1356 3278 1631 3431 
Q 1906 3584 2284 3584 
Q 2666 3584 2933 3390 
Q 3200 3197 3328 2828 
z
" transform="scale(0.015625)"/>
      <path id="DejaVuSans-65" d="M 3597 1894 
L 3597 1613 
L 953 1613 
Q 991 1019 1311 708 
Q 1631 397 2203 397 
Q 2534 397 2845 478 
Q 3156 559 3463 722 
L 3463 178 
Q 3153 47 2828 -22 
Q 2503 -91 2169 -91 
Q 1331 -91 842 396 
Q 353 884 353 1716 
Q 353 2575 817 3079 
Q 1281 3584 2069 3584 
Q 2775 3584 3186 3129 
Q 3597 2675 3597 1894 
z
M 3022 2063 
Q 3016 2534 2758 2815 
Q 2500 3097 2075 3097 
Q 1594 3097 1305 2825 
Q 1016 2553 972 2059 
L 3022 2063 
z
" transform="scale(0.015625)"/>
      <path id="DejaVuSans-64" d="M 2906 2969 
L 2906 4863 
L 3481 4863 
L 3481 0 
L 2906 0 
L 2906 525 
Q 2725 213 2448 61 
Q 2172 -91 1784 -91 
Q 1150 -91 751 415 
Q 353 922 353 1747 
Q 353 2572 751 3078 
Q 1150 3584 1784 3584 
Q 2172 3584 2448 3432 
Q 2725 3281 2906 2969 
z
M 947 1747 
Q 947 1113 1208 752 
Q 1469 391 1925 391 
Q 2381 391 2643 752 
Q 2906 1113 2906 1747 
Q 2906 2381 2643 2742 
Q 2381 3103 1925 3103 
Q 1469 3103 1208 2742 
Q 947 2381 947 1747 
z
" transform="scale(0.015625)"/>
      <path id="DejaVuSans-73" d="M 2834 3397 
L 2834 2853 
Q 2591 2978 2328 3040 
Q 2066 3103 1784 3103 
Q 1356 3103 1142 2972 
Q 928 2841 928 2578 
Q 928 2378 1081 2264 
Q 1234 2150 1697 2047 
L 1894 2003 
Q 2506 1872 2764 1633 
Q 3022 1394 3022 966 
Q 3022 478 2636 193 
Q 2250 -91 1575 -91 
Q 1294 -91 989 -36 
Q 684 19 347 128 
L 347 722 
Q 666 556 975 473 
Q 1284 391 1588 391 
Q 1994 391 2212 530 
Q 2431 669 2431 922 
Q 2431 1156 2273 1281 
Q 2116 1406 1581 1522 
L 1381 1569 
Q 847 1681 609 1914 
Q 372 2147 372 2553 
Q 372 3047 722 3315 
Q 1072 3584 1716 3584 
Q 2034 3584 2315 3537 
Q 2597 3491 2834 3397 
z
" transform="scale(0.015625)"/>
      <path id="DejaVuSans-46" d="M 628 4666 
L 3309 4666 
L 3309 4134 
L 1259 4134 
L 1259 2759 
L 3109 2759 
L 3109 2228 
L 1259 2228 
L 1259 0 
L 628 0 
L 628 4666 
z
" transform="scale(0.015625)"/>
      <path id="DejaVuSans-63" d="M 3122 3366 
L 3122 2828 
Q 2878 2963 2633 3030 
Q 2388 3097 2138 3097 
Q 1578 3097 1268 2742 
Q 959 2388 959 1747 
Q 959 1106 1268 751 
Q 1578 397 2138 397 
Q 2388 397 2633 464 
Q 2878 531 3122 666 
L 3122 134 
Q 2881 22 2623 -34 
Q 2366 -91 2075 -91 
Q 1284 -91 818 406 
Q 353 903 353 1747 
Q 353 2603 823 3093 
Q 1294 3584 2113 3584 
Q 2378 3584 2631 3529 
Q 2884 3475 3122 3366 
z
" transform="scale(0.015625)"/>
      <path id="DejaVuSans-74" d="M 1172 4494 
L 1172 3500 
L 2356 3500 
L 2356 3053 
L 1172 3053 
L 1172 1153 
Q 1172 725 1289 603 
Q 1406 481 1766 481 
L 2356 481 
L 2356 0 
L 1766 0 
Q 1100 0 847 248 
Q 594 497 594 1153 
L 594 3053 
L 172 3053 
L 172 3500 
L 594 3500 
L 594 4494 
L 1172 4494 
z
" transform="scale(0.015625)"/>
      <path id="DejaVuSans-67" d="M 2906 1791 
Q 2906 2416 2648 2759 
Q 2391 3103 1925 3103 
Q 1463 3103 1205 2759 
Q 947 2416 947 1791 
Q 947 1169 1205 825 
Q 1463 481 1925 481 
Q 2391 481 2648 825 
Q 2906 1169 2906 1791 
z
M 3481 434 
Q 3481 -459 3084 -895 
Q 2688 -1331 1869 -1331 
Q 1566 -1331 1297 -1286 
Q 1028 -1241 775 -1147 
L 775 -588 
Q 1028 -725 1275 -790 
Q 1522 -856 1778 -856 
Q 2344 -856 2625 -561 
Q 2906 -266 2906 331 
L 2906 616 
Q 2728 306 2450 153 
Q 2172 0 1784 0 
Q 1141 0 747 490 
Q 353 981 353 1791 
Q 353 2603 747 3093 
Q 1141 3584 1784 3584 
Q 2172 3584 2450 3431 
Q 2728 3278 2906 2969 
L 2906 3500 
L 3481 3500 
L 3481 434 
z
" transform="scale(0.015625)"/>
      <path id="DejaVuSans-75" d="M 544 1381 
L 544 3500 
L 1119 3500 
L 1119 1403 
Q 1119 906 1312 657 
Q 1506 409 1894 409 
Q 2359 409 2629 706 
Q 2900 1003 2900 1516 
L 2900 3500 
L 3475 3500 
L 3475 0 
L 2900 0 
L 2900 538 
Q 2691 219 2414 64 
Q 2138 -91 1772 -91 
Q 1169 -91 856 284 
Q 544 659 544 1381 
z
M 1991 3584 
L 1991 3584 
z
" transform="scale(0.015625)"/>
      <path id="DejaVuSans-62" d="M 3116 1747 
Q 3116 2381 2855 2742 
Q 2594 3103 2138 3103 
Q 1681 3103 1420 2742 
Q 1159 2381 1159 1747 
Q 1159 1113 1420 752 
Q 1681 391 2138 391 
Q 2594 391 2855 752 
Q 3116 1113 3116 1747 
z
M 1159 2969 
Q 1341 3281 1617 3432 
Q 1894 3584 2278 3584 
Q 2916 3584 3314 3078 
Q 3713 2572 3713 1747 
Q 3713 922 3314 415 
Q 2916 -91 2278 -91 
Q 1894 -91 1617 61 
Q 1341 213 1159 525 
L 1159 0 
L 581 0 
L 581 4863 
L 1159 4863 
L 1159 2969 
z
" transform="scale(0.015625)"/>
     </defs>
     <use xlink:href="#DejaVuSans-44"/>
     <use xlink:href="#DejaVuSans-61" x="77.001953"/>
     <use xlink:href="#DejaVuSans-69" x="138.28125"/>
     <use xlink:href="#DejaVuSans-6c" x="166.064453"/>
     <use xlink:href="#DejaVuSans-79" x="193.847656"/>
     <use xlink:href="#DejaVuSans-20" x="253.027344"/>
     <use xlink:href="#DejaVuSans-43" x="284.814453"/>
     <use xlink:href="#DejaVuSans-6f" x="354.638672"/>
     <use xlink:href="#DejaVuSans-6e" x="415.820312"/>
     <use xlink:href="#DejaVuSans-66" x="479.199219"/>
     <use xlink:href="#DejaVuSans-69" x="514.404297"/>
     <use xlink:href="#DejaVuSans-72" x="542.1875"/>
     <use xlink:href="#DejaVuSans-6d" x="581.550781"/>
     <use xlink:href="#DejaVuSans-65" x="678.962891"/>
     <use xlink:href="#DejaVuSans-64" x="740.486328"/>
     <use xlink:href="#DejaVuSans-20" x="803.962891"/>
     <use xlink:href="#DejaVuSans-43" x="835.75"/>
     <use xlink:href="#DejaVuSans-61" x="905.574219"/>
     <use xlink:href="#DejaVuSans-73" x="966.853516"/>
     <use xlink:href="#DejaVuSans-65" x="1018.953125"/>
     <use xlink:href="#DejaVuSans-73" x="1080.476562"/>
     <use xlink:href="#DejaVuSans-20" x="1132.576172"/>
     <use xlink:href="#DejaVuSans-46" x="1164.363281"/>
     <use xlink:href="#DejaVuSans-6f" x="1218.257812"/>
     <use xlink:href="#DejaVuSans-72" x="1279.439453"/>
     <use xlink:href="#DejaVuSans-65" x="1318.302734"/>
     <use xlink:href="#DejaVuSans-63" x="1379.826172"/>
     <use xlink:href="#DejaVuSans-61" x="1434.806641"/>
     <use xlink:href="#DejaVuSans-73" x="1496.085938"/>
     <use xlink:href="#DejaVuSans-74" x="1548.185547"/>
     <use xlink:href="#DejaVuSans-69" x="1587.394531"/>
     <use xlink:href="#DejaVuSans-6e" x="1615.177734"/>
     <use xlink:href="#DejaVuSans-67" x="1678.556641"/>
     <use xlink:href="#DejaVuSans-20" x="1742.033203"/>
     <use xlink:href="#DejaVuSans-2d" x="1773.820312"/>
     <use xlink:href="#DejaVuSans-20" x="1809.904297"/>
     <use xlink:href="#DejaVuSans-44" x="1841.691406"/>
     <use xlink:href="#DejaVuSans-69" x="1918.693359"/>
     <use xlink:href="#DejaVuSans-73" x="1946.476562"/>
     <use xlink:href="#DejaVuSans-74" x="1998.576172"/>
     <use xlink:href="#DejaVuSans-72" x="2037.785156"/>
     <use xlink:href="#DejaVuSans-69" x="2078.898438"/>
     <use xlink:href="#DejaVuSans-63" x="2106.681641"/>
     <use xlink:href="#DejaVuSans-74" x="2161.662109"/>
     <use xlink:href="#DejaVuSans-20" x="2200.871094"/>
     <use xlink:href="#DejaVuSans-6f" x="2232.658203"/>
     <use xlink:href="#DejaVuSans-66" x="2293.839844"/>
     <use xlink:href="#DejaVuSans-20" x="2329.044922"/>
     <use xlink:href="#DejaVuSans-43" x="2360.832031"/>
     <use xlink:href="#DejaVuSans-6f" x="2430.65625"/>
     <use xlink:href="#DejaVuSans-6c" x="2491.837891"/>
     <use xlink:href="#DejaVuSans-75" x="2519.621094"/>
     <use xlink:href="#DejaVuSans-6d" x="2583"/>
     <use xlink:href="#DejaVuSans-62" x="2680.412109"/>
     <use xlink:href="#DejaVuSans-69" x="2743.888672"/>
     <use xlink:href="#DejaVuSans-61" x="2771.671875"/>
    </g>
    <!-- ARIMA (4, 1, 1)x(1, 0, 0, 7) (R2 = -0.594425) -->
    <g transform="translate(575.10125 29.7555)scale(0.12 -0.12)">
     <defs>
      <path id="DejaVuSans-41" d="M 2188 4044 
L 1331 1722 
L 3047 1722 
L 2188 4044 
z
M 1831 4666 
L 2547 4666 
L 4325 0 
L 3669 0 
L 3244 1197 
L 1141 1197 
L 716 0 
L 50 0 
L 1831 4666 
z
" transform="scale(0.015625)"/>
      <path id="DejaVuSans-52" d="M 2841 2188 
Q 3044 2119 3236 1894 
Q 3428 1669 3622 1275 
L 4263 0 
L 3584 0 
L 2988 1197 
Q 2756 1666 2539 1819 
Q 2322 1972 1947 1972 
L 1259 1972 
L 1259 0 
L 628 0 
L 628 4666 
L 2053 4666 
Q 2853 4666 3247 4331 
Q 3641 3997 3641 3322 
Q 3641 2881 3436 2590 
Q 3231 2300 2841 2188 
z
M 1259 4147 
L 1259 2491 
L 2053 2491 
Q 2509 2491 2742 2702 
Q 2975 2913 2975 3322 
Q 2975 3731 2742 3939 
Q 2509 4147 2053 4147 
L 1259 4147 
z
" transform="scale(0.015625)"/>
      <path id="DejaVuSans-49" d="M 628 4666 
L 1259 4666 
L 1259 0 
L 628 0 
L 628 4666 
z
" transform="scale(0.015625)"/>
      <path id="DejaVuSans-4d" d="M 628 4666 
L 1569 4666 
L 2759 1491 
L 3956 4666 
L 4897 4666 
L 4897 0 
L 4281 0 
L 4281 4097 
L 3078 897 
L 2444 897 
L 1241 4097 
L 1241 0 
L 628 0 
L 628 4666 
z
" transform="scale(0.015625)"/>
      <path id="DejaVuSans-28" d="M 1984 4856 
Q 1566 4138 1362 3434 
Q 1159 2731 1159 2009 
Q 1159 1288 1364 580 
Q 1569 -128 1984 -844 
L 1484 -844 
Q 1016 -109 783 600 
Q 550 1309 550 2009 
Q 550 2706 781 3412 
Q 1013 4119 1484 4856 
L 1984 4856 
z
" transform="scale(0.015625)"/>
      <path id="DejaVuSans-2c" d="M 750 794 
L 1409 794 
L 1409 256 
L 897 -744 
L 494 -744 
L 750 256 
L 750 794 
z
" transform="scale(0.015625)"/>
      <path id="DejaVuSans-29" d="M 513 4856 
L 1013 4856 
Q 1481 4119 1714 3412 
Q 1947 2706 1947 2009 
Q 1947 1309 1714 600 
Q 1481 -109 1013 -844 
L 513 -844 
Q 928 -128 1133 580 
Q 1338 1288 1338 2009 
Q 1338 2731 1133 3434 
Q 928 4138 513 4856 
z
" transform="scale(0.015625)"/>
      <path id="DejaVuSans-78" d="M 3513 3500 
L 2247 1797 
L 3578 0 
L 2900 0 
L 1881 1375 
L 863 0 
L 184 0 
L 1544 1831 
L 300 3500 
L 978 3500 
L 1906 2253 
L 2834 3500 
L 3513 3500 
z
" transform="scale(0.015625)"/>
      <path id="DejaVuSans-3d" d="M 678 2906 
L 4684 2906 
L 4684 2381 
L 678 2381 
L 678 2906 
z
M 678 1631 
L 4684 1631 
L 4684 1100 
L 678 1100 
L 678 1631 
z
" transform="scale(0.015625)"/>
      <path id="DejaVuSans-2e" d="M 684 794 
L 1344 794 
L 1344 0 
L 684 0 
L 684 794 
z
" transform="scale(0.015625)"/>
      <path id="DejaVuSans-35" d="M 691 4666 
L 3169 4666 
L 3169 4134 
L 1269 4134 
L 1269 2991 
Q 1406 3038 1543 3061 
Q 1681 3084 1819 3084 
Q 2600 3084 3056 2656 
Q 3513 2228 3513 1497 
Q 3513 744 3044 326 
Q 2575 -91 1722 -91 
Q 1428 -91 1123 -41 
Q 819 9 494 109 
L 494 744 
Q 775 591 1075 516 
Q 1375 441 1709 441 
Q 2250 441 2565 725 
Q 2881 1009 2881 1497 
Q 2881 1984 2565 2268 
Q 2250 2553 1709 2553 
Q 1456 2553 1204 2497 
Q 953 2441 691 2322 
L 691 4666 
z
" transform="scale(0.015625)"/>
      <path id="DejaVuSans-39" d="M 703 97 
L 703 672 
Q 941 559 1184 500 
Q 1428 441 1663 441 
Q 2288 441 2617 861 
Q 2947 1281 2994 2138 
Q 2813 1869 2534 1725 
Q 2256 1581 1919 1581 
Q 1219 1581 811 2004 
Q 403 2428 403 3163 
Q 403 3881 828 4315 
Q 1253 4750 1959 4750 
Q 2769 4750 3195 4129 
Q 3622 3509 3622 2328 
Q 3622 1225 3098 567 
Q 2575 -91 1691 -91 
Q 1453 -91 1209 -44 
Q 966 3 703 97 
z
M 1959 2075 
Q 2384 2075 2632 2365 
Q 2881 2656 2881 3163 
Q 2881 3666 2632 3958 
Q 2384 4250 1959 4250 
Q 1534 4250 1286 3958 
Q 1038 3666 1038 3163 
Q 1038 2656 1286 2365 
Q 1534 2075 1959 2075 
z
" transform="scale(0.015625)"/>
     </defs>
     <use xlink:href="#DejaVuSans-41"/>
     <use xlink:href="#DejaVuSans-52" x="68.408203"/>
     <use xlink:href="#DejaVuSans-49" x="137.890625"/>
     <use xlink:href="#DejaVuSans-4d" x="167.382812"/>
     <use xlink:href="#DejaVuSans-41" x="253.662109"/>
     <use xlink:href="#DejaVuSans-20" x="322.070312"/>
     <use xlink:href="#DejaVuSans-28" x="353.857422"/>
     <use xlink:href="#DejaVuSans-34" x="392.871094"/>
     <use xlink:href="#DejaVuSans-2c" x="456.494141"/>
     <use xlink:href="#DejaVuSans-20" x="488.28125"/>
     <use xlink:href="#DejaVuSans-31" x="520.068359"/>
     <use xlink:href="#DejaVuSans-2c" x="583.691406"/>
     <use xlink:href="#DejaVuSans-20" x="615.478516"/>
     <use xlink:href="#DejaVuSans-31" x="647.265625"/>
     <use xlink:href="#DejaVuSans-29" x="710.888672"/>
     <use xlink:href="#DejaVuSans-78" x="749.902344"/>
     <use xlink:href="#DejaVuSans-28" x="809.082031"/>
     <use xlink:href="#DejaVuSans-31" x="848.095703"/>
     <use xlink:href="#DejaVuSans-2c" x="911.71875"/>
     <use xlink:href="#DejaVuSans-20" x="943.505859"/>
     <use xlink:href="#DejaVuSans-30" x="975.292969"/>
     <use xlink:href="#DejaVuSans-2c" x="1038.916016"/>
     <use xlink:href="#DejaVuSans-20" x="1070.703125"/>
     <use xlink:href="#DejaVuSans-30" x="1102.490234"/>
     <use xlink:href="#DejaVuSans-2c" x="1166.113281"/>
     <use xlink:href="#DejaVuSans-20" x="1197.900391"/>
     <use xlink:href="#DejaVuSans-37" x="1229.6875"/>
     <use xlink:href="#DejaVuSans-29" x="1293.310547"/>
     <use xlink:href="#DejaVuSans-20" x="1332.324219"/>
     <use xlink:href="#DejaVuSans-28" x="1364.111328"/>
     <use xlink:href="#DejaVuSans-52" x="1403.125"/>
     <use xlink:href="#DejaVuSans-32" x="1472.607422"/>
     <use xlink:href="#DejaVuSans-20" x="1536.230469"/>
     <use xlink:href="#DejaVuSans-3d" x="1568.017578"/>
     <use xlink:href="#DejaVuSans-20" x="1651.806641"/>
     <use xlink:href="#DejaVuSans-2d" x="1683.59375"/>
     <use xlink:href="#DejaVuSans-30" x="1719.677734"/>
     <use xlink:href="#DejaVuSans-2e" x="1783.300781"/>
     <use xlink:href="#DejaVuSans-35" x="1815.087891"/>
     <use xlink:href="#DejaVuSans-39" x="1878.710938"/>
     <use xlink:href="#DejaVuSans-34" x="1942.333984"/>
     <use xlink:href="#DejaVuSans-34" x="2005.957031"/>
     <use xlink:href="#DejaVuSans-32" x="2069.580078"/>
     <use xlink:href="#DejaVuSans-35" x="2133.203125"/>
     <use xlink:href="#DejaVuSans-29" x="2196.826172"/>
    </g>
   </g>
   <g id="legend_1">
    <g id="patch_7">
     <path d="M 1274.770313 87.789875 
L 1371.85 87.789875 
Q 1373.85 87.789875 1373.85 85.789875 
L 1373.85 42.7555 
Q 1373.85 40.7555 1371.85 40.7555 
L 1274.770313 40.7555 
Q 1272.770313 40.7555 1272.770313 42.7555 
L 1272.770313 85.789875 
Q 1272.770313 87.789875 1274.770313 87.789875 
z
" style="fill: #ffffff; opacity: 0.8; stroke: #cccccc; stroke-linejoin: miter"/>
    </g>
    <g id="line2d_20">
     <path d="M 1276.770313 48.853937 
L 1286.770313 48.853937 
L 1296.770313 48.853937 
" style="fill: none; stroke: #0000ff; stroke-width: 1.5; stroke-linecap: square"/>
    </g>
    <g id="text_18">
     <!-- Actual Value -->
     <g transform="translate(1304.770313 52.353937)scale(0.1 -0.1)">
      <defs>
       <path id="DejaVuSans-56" d="M 1831 0 
L 50 4666 
L 709 4666 
L 2188 738 
L 3669 4666 
L 4325 4666 
L 2547 0 
L 1831 0 
z
" transform="scale(0.015625)"/>
      </defs>
      <use xlink:href="#DejaVuSans-41"/>
      <use xlink:href="#DejaVuSans-63" x="66.658203"/>
      <use xlink:href="#DejaVuSans-74" x="121.638672"/>
      <use xlink:href="#DejaVuSans-75" x="160.847656"/>
      <use xlink:href="#DejaVuSans-61" x="224.226562"/>
      <use xlink:href="#DejaVuSans-6c" x="285.505859"/>
      <use xlink:href="#DejaVuSans-20" x="313.289062"/>
      <use xlink:href="#DejaVuSans-56" x="345.076172"/>
      <use xlink:href="#DejaVuSans-61" x="405.734375"/>
      <use xlink:href="#DejaVuSans-6c" x="467.013672"/>
      <use xlink:href="#DejaVuSans-75" x="494.796875"/>
      <use xlink:href="#DejaVuSans-65" x="558.175781"/>
     </g>
    </g>
    <g id="line2d_21">
     <path d="M 1276.770313 63.532062 
L 1286.770313 63.532062 
L 1296.770313 63.532062 
" style="fill: none; stroke: #ffa500; stroke-width: 1.5; stroke-linecap: square"/>
    </g>
    <g id="text_19">
     <!-- Check Value -->
     <g transform="translate(1304.770313 67.032062)scale(0.1 -0.1)">
      <defs>
       <path id="DejaVuSans-68" d="M 3513 2113 
L 3513 0 
L 2938 0 
L 2938 2094 
Q 2938 2591 2744 2837 
Q 2550 3084 2163 3084 
Q 1697 3084 1428 2787 
Q 1159 2491 1159 1978 
L 1159 0 
L 581 0 
L 581 4863 
L 1159 4863 
L 1159 2956 
Q 1366 3272 1645 3428 
Q 1925 3584 2291 3584 
Q 2894 3584 3203 3211 
Q 3513 2838 3513 2113 
z
" transform="scale(0.015625)"/>
       <path id="DejaVuSans-6b" d="M 581 4863 
L 1159 4863 
L 1159 1991 
L 2875 3500 
L 3609 3500 
L 1753 1863 
L 3688 0 
L 2938 0 
L 1159 1709 
L 1159 0 
L 581 0 
L 581 4863 
z
" transform="scale(0.015625)"/>
      </defs>
      <use xlink:href="#DejaVuSans-43"/>
      <use xlink:href="#DejaVuSans-68" x="69.824219"/>
      <use xlink:href="#DejaVuSans-65" x="133.203125"/>
      <use xlink:href="#DejaVuSans-63" x="194.726562"/>
      <use xlink:href="#DejaVuSans-6b" x="249.707031"/>
      <use xlink:href="#DejaVuSans-20" x="307.617188"/>
      <use xlink:href="#DejaVuSans-56" x="339.404297"/>
      <use xlink:href="#DejaVuSans-61" x="400.0625"/>
      <use xlink:href="#DejaVuSans-6c" x="461.341797"/>
      <use xlink:href="#DejaVuSans-75" x="489.125"/>
      <use xlink:href="#DejaVuSans-65" x="552.503906"/>
     </g>
    </g>
    <g id="line2d_22">
     <path d="M 1276.770313 78.210187 
L 1286.770313 78.210187 
L 1296.770313 78.210187 
" style="fill: none; stroke: #ff0000; stroke-width: 1.5; stroke-linecap: square"/>
    </g>
    <g id="text_20">
     <!-- Predict Value -->
     <g transform="translate(1304.770313 81.710187)scale(0.1 -0.1)">
      <defs>
       <path id="DejaVuSans-50" d="M 1259 4147 
L 1259 2394 
L 2053 2394 
Q 2494 2394 2734 2622 
Q 2975 2850 2975 3272 
Q 2975 3691 2734 3919 
Q 2494 4147 2053 4147 
L 1259 4147 
z
M 628 4666 
L 2053 4666 
Q 2838 4666 3239 4311 
Q 3641 3956 3641 3272 
Q 3641 2581 3239 2228 
Q 2838 1875 2053 1875 
L 1259 1875 
L 1259 0 
L 628 0 
L 628 4666 
z
" transform="scale(0.015625)"/>
      </defs>
      <use xlink:href="#DejaVuSans-50"/>
      <use xlink:href="#DejaVuSans-72" x="58.552734"/>
      <use xlink:href="#DejaVuSans-65" x="97.416016"/>
      <use xlink:href="#DejaVuSans-64" x="158.939453"/>
      <use xlink:href="#DejaVuSans-69" x="222.416016"/>
      <use xlink:href="#DejaVuSans-63" x="250.199219"/>
      <use xlink:href="#DejaVuSans-74" x="305.179688"/>
      <use xlink:href="#DejaVuSans-20" x="344.388672"/>
      <use xlink:href="#DejaVuSans-56" x="376.175781"/>
      <use xlink:href="#DejaVuSans-61" x="436.833984"/>
      <use xlink:href="#DejaVuSans-6c" x="498.113281"/>
      <use xlink:href="#DejaVuSans-75" x="525.896484"/>
      <use xlink:href="#DejaVuSans-65" x="589.275391"/>
     </g>
    </g>
   </g>
  </g>
 </g>
 <defs>
  <clipPath id="p039039ec75">
   <rect x="39.65" y="35.7555" width="1339.2" height="332.64"/>
  </clipPath>
 </defs>
</svg>
