<?xml version="1.0" encoding="utf-8" standalone="no"?>
<!DOCTYPE svg PUBLIC "-//W3C//DTD SVG 1.1//EN"
  "http://www.w3.org/Graphics/SVG/1.1/DTD/svg11.dtd">
<svg xmlns:xlink="http://www.w3.org/1999/xlink" width="1392.4125pt" height="392.273625pt" viewBox="0 0 1392.4125 392.273625" xmlns="http://www.w3.org/2000/svg" version="1.1">
 <metadata>
  <rdf:RDF xmlns:dc="http://purl.org/dc/elements/1.1/" xmlns:cc="http://creativecommons.org/ns#" xmlns:rdf="http://www.w3.org/1999/02/22-rdf-syntax-ns#">
   <cc:Work>
    <dc:type rdf:resource="http://purl.org/dc/dcmitype/StillImage"/>
    <dc:date>2022-07-28T17:48:05.523601</dc:date>
    <dc:format>image/svg+xml</dc:format>
    <dc:creator>
     <cc:Agent>
      <dc:title>Matplotlib v3.5.2, https://matplotlib.org/</dc:title>
     </cc:Agent>
    </dc:creator>
   </cc:Work>
  </rdf:RDF>
 </metadata>
 <defs>
  <style type="text/css">*{stroke-linejoin: round; stroke-linecap: butt}</style>
 </defs>
 <g id="figure_1">
  <g id="patch_1">
   <path d="M 0 392.273625 
L 1392.4125 392.273625 
L 1392.4125 0 
L 0 0 
z
" style="fill: #ffffff"/>
  </g>
  <g id="axes_1">
   <g id="patch_2">
    <path d="M 46.0125 368.3955 
L 1385.2125 368.3955 
L 1385.2125 35.7555 
L 46.0125 35.7555 
z
" style="fill: #ffffff"/>
   </g>
   <g id="matplotlib.axis_1">
    <g id="xtick_1">
     <g id="line2d_1">
      <defs>
       <path id="m4540bad340" d="M 0 0 
L 0 3.5 
" style="stroke: #000000; stroke-width: 0.8"/>
      </defs>
      <g>
       <use xlink:href="#m4540bad340" x="78.054226" y="368.3955" style="stroke: #000000; stroke-width: 0.8"/>
      </g>
     </g>
     <g id="text_1">
      <!-- 2020-01 -->
      <g transform="translate(57.16282 382.993937)scale(0.1 -0.1)">
       <defs>
        <path id="DejaVuSans-32" d="M 1228 531 
L 3431 531 
L 3431 0 
L 469 0 
L 469 531 
Q 828 903 1448 1529 
Q 2069 2156 2228 2338 
Q 2531 2678 2651 2914 
Q 2772 3150 2772 3378 
Q 2772 3750 2511 3984 
Q 2250 4219 1831 4219 
Q 1534 4219 1204 4116 
Q 875 4013 500 3803 
L 500 4441 
Q 881 4594 1212 4672 
Q 1544 4750 1819 4750 
Q 2544 4750 2975 4387 
Q 3406 4025 3406 3419 
Q 3406 3131 3298 2873 
Q 3191 2616 2906 2266 
Q 2828 2175 2409 1742 
Q 1991 1309 1228 531 
z
" transform="scale(0.015625)"/>
        <path id="DejaVuSans-30" d="M 2034 4250 
Q 1547 4250 1301 3770 
Q 1056 3291 1056 2328 
Q 1056 1369 1301 889 
Q 1547 409 2034 409 
Q 2525 409 2770 889 
Q 3016 1369 3016 2328 
Q 3016 3291 2770 3770 
Q 2525 4250 2034 4250 
z
M 2034 4750 
Q 2819 4750 3233 4129 
Q 3647 3509 3647 2328 
Q 3647 1150 3233 529 
Q 2819 -91 2034 -91 
Q 1250 -91 836 529 
Q 422 1150 422 2328 
Q 422 3509 836 4129 
Q 1250 4750 2034 4750 
z
" transform="scale(0.015625)"/>
        <path id="DejaVuSans-2d" d="M 313 2009 
L 1997 2009 
L 1997 1497 
L 313 1497 
L 313 2009 
z
" transform="scale(0.015625)"/>
        <path id="DejaVuSans-31" d="M 794 531 
L 1825 531 
L 1825 4091 
L 703 3866 
L 703 4441 
L 1819 4666 
L 2450 4666 
L 2450 531 
L 3481 531 
L 3481 0 
L 794 0 
L 794 531 
z
" transform="scale(0.015625)"/>
       </defs>
       <use xlink:href="#DejaVuSans-32"/>
       <use xlink:href="#DejaVuSans-30" x="63.623047"/>
       <use xlink:href="#DejaVuSans-32" x="127.246094"/>
       <use xlink:href="#DejaVuSans-30" x="190.869141"/>
       <use xlink:href="#DejaVuSans-2d" x="254.492188"/>
       <use xlink:href="#DejaVuSans-30" x="290.576172"/>
       <use xlink:href="#DejaVuSans-31" x="354.199219"/>
      </g>
     </g>
    </g>
    <g id="xtick_2">
     <g id="line2d_2">
      <g>
       <use xlink:href="#m4540bad340" x="197.309731" y="368.3955" style="stroke: #000000; stroke-width: 0.8"/>
      </g>
     </g>
     <g id="text_2">
      <!-- 2020-04 -->
      <g transform="translate(176.418324 382.993937)scale(0.1 -0.1)">
       <defs>
        <path id="DejaVuSans-34" d="M 2419 4116 
L 825 1625 
L 2419 1625 
L 2419 4116 
z
M 2253 4666 
L 3047 4666 
L 3047 1625 
L 3713 1625 
L 3713 1100 
L 3047 1100 
L 3047 0 
L 2419 0 
L 2419 1100 
L 313 1100 
L 313 1709 
L 2253 4666 
z
" transform="scale(0.015625)"/>
       </defs>
       <use xlink:href="#DejaVuSans-32"/>
       <use xlink:href="#DejaVuSans-30" x="63.623047"/>
       <use xlink:href="#DejaVuSans-32" x="127.246094"/>
       <use xlink:href="#DejaVuSans-30" x="190.869141"/>
       <use xlink:href="#DejaVuSans-2d" x="254.492188"/>
       <use xlink:href="#DejaVuSans-30" x="290.576172"/>
       <use xlink:href="#DejaVuSans-34" x="354.199219"/>
      </g>
     </g>
    </g>
    <g id="xtick_3">
     <g id="line2d_3">
      <g>
       <use xlink:href="#m4540bad340" x="316.565235" y="368.3955" style="stroke: #000000; stroke-width: 0.8"/>
      </g>
     </g>
     <g id="text_3">
      <!-- 2020-07 -->
      <g transform="translate(295.673829 382.993937)scale(0.1 -0.1)">
       <defs>
        <path id="DejaVuSans-37" d="M 525 4666 
L 3525 4666 
L 3525 4397 
L 1831 0 
L 1172 0 
L 2766 4134 
L 525 4134 
L 525 4666 
z
" transform="scale(0.015625)"/>
       </defs>
       <use xlink:href="#DejaVuSans-32"/>
       <use xlink:href="#DejaVuSans-30" x="63.623047"/>
       <use xlink:href="#DejaVuSans-32" x="127.246094"/>
       <use xlink:href="#DejaVuSans-30" x="190.869141"/>
       <use xlink:href="#DejaVuSans-2d" x="254.492188"/>
       <use xlink:href="#DejaVuSans-30" x="290.576172"/>
       <use xlink:href="#DejaVuSans-37" x="354.199219"/>
      </g>
     </g>
    </g>
    <g id="xtick_4">
     <g id="line2d_4">
      <g>
       <use xlink:href="#m4540bad340" x="437.13124" y="368.3955" style="stroke: #000000; stroke-width: 0.8"/>
      </g>
     </g>
     <g id="text_4">
      <!-- 2020-10 -->
      <g transform="translate(416.239833 382.993937)scale(0.1 -0.1)">
       <use xlink:href="#DejaVuSans-32"/>
       <use xlink:href="#DejaVuSans-30" x="63.623047"/>
       <use xlink:href="#DejaVuSans-32" x="127.246094"/>
       <use xlink:href="#DejaVuSans-30" x="190.869141"/>
       <use xlink:href="#DejaVuSans-2d" x="254.492188"/>
       <use xlink:href="#DejaVuSans-31" x="290.576172"/>
       <use xlink:href="#DejaVuSans-30" x="354.199219"/>
      </g>
     </g>
    </g>
    <g id="xtick_5">
     <g id="line2d_5">
      <g>
       <use xlink:href="#m4540bad340" x="557.697244" y="368.3955" style="stroke: #000000; stroke-width: 0.8"/>
      </g>
     </g>
     <g id="text_5">
      <!-- 2021-01 -->
      <g transform="translate(536.805838 382.993937)scale(0.1 -0.1)">
       <use xlink:href="#DejaVuSans-32"/>
       <use xlink:href="#DejaVuSans-30" x="63.623047"/>
       <use xlink:href="#DejaVuSans-32" x="127.246094"/>
       <use xlink:href="#DejaVuSans-31" x="190.869141"/>
       <use xlink:href="#DejaVuSans-2d" x="254.492188"/>
       <use xlink:href="#DejaVuSans-30" x="290.576172"/>
       <use xlink:href="#DejaVuSans-31" x="354.199219"/>
      </g>
     </g>
    </g>
    <g id="xtick_6">
     <g id="line2d_6">
      <g>
       <use xlink:href="#m4540bad340" x="675.642249" y="368.3955" style="stroke: #000000; stroke-width: 0.8"/>
      </g>
     </g>
     <g id="text_6">
      <!-- 2021-04 -->
      <g transform="translate(654.750842 382.993937)scale(0.1 -0.1)">
       <use xlink:href="#DejaVuSans-32"/>
       <use xlink:href="#DejaVuSans-30" x="63.623047"/>
       <use xlink:href="#DejaVuSans-32" x="127.246094"/>
       <use xlink:href="#DejaVuSans-31" x="190.869141"/>
       <use xlink:href="#DejaVuSans-2d" x="254.492188"/>
       <use xlink:href="#DejaVuSans-30" x="290.576172"/>
       <use xlink:href="#DejaVuSans-34" x="354.199219"/>
      </g>
     </g>
    </g>
    <g id="xtick_7">
     <g id="line2d_7">
      <g>
       <use xlink:href="#m4540bad340" x="794.897753" y="368.3955" style="stroke: #000000; stroke-width: 0.8"/>
      </g>
     </g>
     <g id="text_7">
      <!-- 2021-07 -->
      <g transform="translate(774.006347 382.993937)scale(0.1 -0.1)">
       <use xlink:href="#DejaVuSans-32"/>
       <use xlink:href="#DejaVuSans-30" x="63.623047"/>
       <use xlink:href="#DejaVuSans-32" x="127.246094"/>
       <use xlink:href="#DejaVuSans-31" x="190.869141"/>
       <use xlink:href="#DejaVuSans-2d" x="254.492188"/>
       <use xlink:href="#DejaVuSans-30" x="290.576172"/>
       <use xlink:href="#DejaVuSans-37" x="354.199219"/>
      </g>
     </g>
    </g>
    <g id="xtick_8">
     <g id="line2d_8">
      <g>
       <use xlink:href="#m4540bad340" x="915.463757" y="368.3955" style="stroke: #000000; stroke-width: 0.8"/>
      </g>
     </g>
     <g id="text_8">
      <!-- 2021-10 -->
      <g transform="translate(894.572351 382.993937)scale(0.1 -0.1)">
       <use xlink:href="#DejaVuSans-32"/>
       <use xlink:href="#DejaVuSans-30" x="63.623047"/>
       <use xlink:href="#DejaVuSans-32" x="127.246094"/>
       <use xlink:href="#DejaVuSans-31" x="190.869141"/>
       <use xlink:href="#DejaVuSans-2d" x="254.492188"/>
       <use xlink:href="#DejaVuSans-31" x="290.576172"/>
       <use xlink:href="#DejaVuSans-30" x="354.199219"/>
      </g>
     </g>
    </g>
    <g id="xtick_9">
     <g id="line2d_9">
      <g>
       <use xlink:href="#m4540bad340" x="1036.029762" y="368.3955" style="stroke: #000000; stroke-width: 0.8"/>
      </g>
     </g>
     <g id="text_9">
      <!-- 2022-01 -->
      <g transform="translate(1015.138356 382.993937)scale(0.1 -0.1)">
       <use xlink:href="#DejaVuSans-32"/>
       <use xlink:href="#DejaVuSans-30" x="63.623047"/>
       <use xlink:href="#DejaVuSans-32" x="127.246094"/>
       <use xlink:href="#DejaVuSans-32" x="190.869141"/>
       <use xlink:href="#DejaVuSans-2d" x="254.492188"/>
       <use xlink:href="#DejaVuSans-30" x="290.576172"/>
       <use xlink:href="#DejaVuSans-31" x="354.199219"/>
      </g>
     </g>
    </g>
    <g id="xtick_10">
     <g id="line2d_10">
      <g>
       <use xlink:href="#m4540bad340" x="1153.974766" y="368.3955" style="stroke: #000000; stroke-width: 0.8"/>
      </g>
     </g>
     <g id="text_10">
      <!-- 2022-04 -->
      <g transform="translate(1133.08336 382.993937)scale(0.1 -0.1)">
       <use xlink:href="#DejaVuSans-32"/>
       <use xlink:href="#DejaVuSans-30" x="63.623047"/>
       <use xlink:href="#DejaVuSans-32" x="127.246094"/>
       <use xlink:href="#DejaVuSans-32" x="190.869141"/>
       <use xlink:href="#DejaVuSans-2d" x="254.492188"/>
       <use xlink:href="#DejaVuSans-30" x="290.576172"/>
       <use xlink:href="#DejaVuSans-34" x="354.199219"/>
      </g>
     </g>
    </g>
    <g id="xtick_11">
     <g id="line2d_11">
      <g>
       <use xlink:href="#m4540bad340" x="1273.230271" y="368.3955" style="stroke: #000000; stroke-width: 0.8"/>
      </g>
     </g>
     <g id="text_11">
      <!-- 2022-07 -->
      <g transform="translate(1252.338865 382.993937)scale(0.1 -0.1)">
       <use xlink:href="#DejaVuSans-32"/>
       <use xlink:href="#DejaVuSans-30" x="63.623047"/>
       <use xlink:href="#DejaVuSans-32" x="127.246094"/>
       <use xlink:href="#DejaVuSans-32" x="190.869141"/>
       <use xlink:href="#DejaVuSans-2d" x="254.492188"/>
       <use xlink:href="#DejaVuSans-30" x="290.576172"/>
       <use xlink:href="#DejaVuSans-37" x="354.199219"/>
      </g>
     </g>
    </g>
   </g>
   <g id="matplotlib.axis_2">
    <g id="ytick_1">
     <g id="line2d_12">
      <defs>
       <path id="m453cd6d248" d="M 0 0 
L -3.5 0 
" style="stroke: #000000; stroke-width: 0.8"/>
      </defs>
      <g>
       <use xlink:href="#m453cd6d248" x="46.0125" y="340.916303" style="stroke: #000000; stroke-width: 0.8"/>
      </g>
     </g>
     <g id="text_12">
      <!-- 0 -->
      <g transform="translate(32.65 344.715522)scale(0.1 -0.1)">
       <use xlink:href="#DejaVuSans-30"/>
      </g>
     </g>
    </g>
    <g id="ytick_2">
     <g id="line2d_13">
      <g>
       <use xlink:href="#m453cd6d248" x="46.0125" y="290.65188" style="stroke: #000000; stroke-width: 0.8"/>
      </g>
     </g>
     <g id="text_13">
      <!-- 10000 -->
      <g transform="translate(7.2 294.451099)scale(0.1 -0.1)">
       <use xlink:href="#DejaVuSans-31"/>
       <use xlink:href="#DejaVuSans-30" x="63.623047"/>
       <use xlink:href="#DejaVuSans-30" x="127.246094"/>
       <use xlink:href="#DejaVuSans-30" x="190.869141"/>
       <use xlink:href="#DejaVuSans-30" x="254.492188"/>
      </g>
     </g>
    </g>
    <g id="ytick_3">
     <g id="line2d_14">
      <g>
       <use xlink:href="#m453cd6d248" x="46.0125" y="240.387456" style="stroke: #000000; stroke-width: 0.8"/>
      </g>
     </g>
     <g id="text_14">
      <!-- 20000 -->
      <g transform="translate(7.2 244.186675)scale(0.1 -0.1)">
       <use xlink:href="#DejaVuSans-32"/>
       <use xlink:href="#DejaVuSans-30" x="63.623047"/>
       <use xlink:href="#DejaVuSans-30" x="127.246094"/>
       <use xlink:href="#DejaVuSans-30" x="190.869141"/>
       <use xlink:href="#DejaVuSans-30" x="254.492188"/>
      </g>
     </g>
    </g>
    <g id="ytick_4">
     <g id="line2d_15">
      <g>
       <use xlink:href="#m453cd6d248" x="46.0125" y="190.123033" style="stroke: #000000; stroke-width: 0.8"/>
      </g>
     </g>
     <g id="text_15">
      <!-- 30000 -->
      <g transform="translate(7.2 193.922251)scale(0.1 -0.1)">
       <defs>
        <path id="DejaVuSans-33" d="M 2597 2516 
Q 3050 2419 3304 2112 
Q 3559 1806 3559 1356 
Q 3559 666 3084 287 
Q 2609 -91 1734 -91 
Q 1441 -91 1130 -33 
Q 819 25 488 141 
L 488 750 
Q 750 597 1062 519 
Q 1375 441 1716 441 
Q 2309 441 2620 675 
Q 2931 909 2931 1356 
Q 2931 1769 2642 2001 
Q 2353 2234 1838 2234 
L 1294 2234 
L 1294 2753 
L 1863 2753 
Q 2328 2753 2575 2939 
Q 2822 3125 2822 3475 
Q 2822 3834 2567 4026 
Q 2313 4219 1838 4219 
Q 1578 4219 1281 4162 
Q 984 4106 628 3988 
L 628 4550 
Q 988 4650 1302 4700 
Q 1616 4750 1894 4750 
Q 2613 4750 3031 4423 
Q 3450 4097 3450 3541 
Q 3450 3153 3228 2886 
Q 3006 2619 2597 2516 
z
" transform="scale(0.015625)"/>
       </defs>
       <use xlink:href="#DejaVuSans-33"/>
       <use xlink:href="#DejaVuSans-30" x="63.623047"/>
       <use xlink:href="#DejaVuSans-30" x="127.246094"/>
       <use xlink:href="#DejaVuSans-30" x="190.869141"/>
       <use xlink:href="#DejaVuSans-30" x="254.492188"/>
      </g>
     </g>
    </g>
    <g id="ytick_5">
     <g id="line2d_16">
      <g>
       <use xlink:href="#m453cd6d248" x="46.0125" y="139.858609" style="stroke: #000000; stroke-width: 0.8"/>
      </g>
     </g>
     <g id="text_16">
      <!-- 40000 -->
      <g transform="translate(7.2 143.657828)scale(0.1 -0.1)">
       <use xlink:href="#DejaVuSans-34"/>
       <use xlink:href="#DejaVuSans-30" x="63.623047"/>
       <use xlink:href="#DejaVuSans-30" x="127.246094"/>
       <use xlink:href="#DejaVuSans-30" x="190.869141"/>
       <use xlink:href="#DejaVuSans-30" x="254.492188"/>
      </g>
     </g>
    </g>
    <g id="ytick_6">
     <g id="line2d_17">
      <g>
       <use xlink:href="#m453cd6d248" x="46.0125" y="89.594185" style="stroke: #000000; stroke-width: 0.8"/>
      </g>
     </g>
     <g id="text_17">
      <!-- 50000 -->
      <g transform="translate(7.2 93.393404)scale(0.1 -0.1)">
       <defs>
        <path id="DejaVuSans-35" d="M 691 4666 
L 3169 4666 
L 3169 4134 
L 1269 4134 
L 1269 2991 
Q 1406 3038 1543 3061 
Q 1681 3084 1819 3084 
Q 2600 3084 3056 2656 
Q 3513 2228 3513 1497 
Q 3513 744 3044 326 
Q 2575 -91 1722 -91 
Q 1428 -91 1123 -41 
Q 819 9 494 109 
L 494 744 
Q 775 591 1075 516 
Q 1375 441 1709 441 
Q 2250 441 2565 725 
Q 2881 1009 2881 1497 
Q 2881 1984 2565 2268 
Q 2250 2553 1709 2553 
Q 1456 2553 1204 2497 
Q 953 2441 691 2322 
L 691 4666 
z
" transform="scale(0.015625)"/>
       </defs>
       <use xlink:href="#DejaVuSans-35"/>
       <use xlink:href="#DejaVuSans-30" x="63.623047"/>
       <use xlink:href="#DejaVuSans-30" x="127.246094"/>
       <use xlink:href="#DejaVuSans-30" x="190.869141"/>
       <use xlink:href="#DejaVuSans-30" x="254.492188"/>
      </g>
     </g>
    </g>
    <g id="ytick_7">
     <g id="line2d_18">
      <g>
       <use xlink:href="#m453cd6d248" x="46.0125" y="39.329762" style="stroke: #000000; stroke-width: 0.8"/>
      </g>
     </g>
     <g id="text_18">
      <!-- 60000 -->
      <g transform="translate(7.2 43.128981)scale(0.1 -0.1)">
       <defs>
        <path id="DejaVuSans-36" d="M 2113 2584 
Q 1688 2584 1439 2293 
Q 1191 2003 1191 1497 
Q 1191 994 1439 701 
Q 1688 409 2113 409 
Q 2538 409 2786 701 
Q 3034 994 3034 1497 
Q 3034 2003 2786 2293 
Q 2538 2584 2113 2584 
z
M 3366 4563 
L 3366 3988 
Q 3128 4100 2886 4159 
Q 2644 4219 2406 4219 
Q 1781 4219 1451 3797 
Q 1122 3375 1075 2522 
Q 1259 2794 1537 2939 
Q 1816 3084 2150 3084 
Q 2853 3084 3261 2657 
Q 3669 2231 3669 1497 
Q 3669 778 3244 343 
Q 2819 -91 2113 -91 
Q 1303 -91 875 529 
Q 447 1150 447 2328 
Q 447 3434 972 4092 
Q 1497 4750 2381 4750 
Q 2619 4750 2861 4703 
Q 3103 4656 3366 4563 
z
" transform="scale(0.015625)"/>
       </defs>
       <use xlink:href="#DejaVuSans-36"/>
       <use xlink:href="#DejaVuSans-30" x="63.623047"/>
       <use xlink:href="#DejaVuSans-30" x="127.246094"/>
       <use xlink:href="#DejaVuSans-30" x="190.869141"/>
       <use xlink:href="#DejaVuSans-30" x="254.492188"/>
      </g>
     </g>
    </g>
   </g>
   <g id="line2d_19">
    <path d="M 106.885227 340.916303 
L 178.96273 340.855986 
L 184.20473 340.599638 
L 185.51523 340.745404 
L 186.82573 340.720272 
L 188.13623 340.39858 
L 189.44673 340.564453 
L 190.75723 340.207575 
L 192.06773 340.247787 
L 193.378231 340.162337 
L 194.688731 340.262866 
L 195.999231 339.765248 
L 198.620231 339.795407 
L 201.241231 338.930859 
L 202.551731 339.745142 
L 203.862231 339.72001 
L 205.172731 338.619219 
L 206.483231 339.358106 
L 210.414731 338.061284 
L 211.725231 339.926094 
L 213.035731 338.538796 
L 214.346231 338.729801 
L 215.656731 339.317895 
L 216.967231 338.961017 
L 218.277731 337.890385 
L 219.588231 338.091443 
L 220.898732 338.458373 
L 222.209232 338.664457 
L 223.519732 337.69938 
L 224.830232 337.719486 
L 226.140732 337.236948 
L 227.451232 337.920544 
L 228.761732 337.03589 
L 230.072232 337.880332 
L 231.382732 338.061284 
L 232.693232 336.890123 
L 234.003732 337.78483 
L 235.314232 336.467902 
L 236.624732 335.613407 
L 237.935232 336.714198 
L 239.245732 336.221606 
L 240.556232 336.789594 
L 243.177232 337.257053 
L 244.487732 337.975835 
L 245.798232 337.03589 
L 247.108733 336.623722 
L 248.419233 336.467902 
L 249.729733 335.945152 
L 251.040233 337.247001 
L 252.350733 336.161289 
L 253.661233 335.553089 
L 254.971733 336.598589 
L 256.282233 335.83457 
L 257.592733 337.372662 
L 258.903233 337.136419 
L 260.213733 335.864729 
L 261.524233 337.081128 
L 262.834733 334.738806 
L 264.145233 336.829806 
L 265.455733 336.900176 
L 266.766233 338.428215 
L 268.076733 333.462089 
L 269.387233 332.798599 
L 270.697733 336.35732 
L 272.008233 335.125842 
L 273.318733 335.226371 
L 274.629234 335.497799 
L 275.939734 335.909967 
L 277.250234 336.940388 
L 278.560734 336.689065 
L 279.871234 337.568693 
L 281.181734 336.136157 
L 282.492234 337.518428 
L 283.802734 336.568431 
L 285.113234 334.462351 
L 286.423734 338.051231 
L 287.734234 338.468426 
L 289.044734 338.709695 
L 290.355234 338.553876 
L 292.976234 337.608904 
L 294.286734 337.71446 
L 295.597234 339.006255 
L 296.907734 338.679537 
L 299.528734 338.589061 
L 302.149735 337.649116 
L 304.770735 338.548849 
L 306.081235 338.257315 
L 307.391735 338.302553 
L 308.702235 338.74488 
L 310.012735 337.779803 
L 311.323235 337.513402 
L 312.633735 338.458373 
L 313.944235 338.639325 
L 315.254735 337.910491 
L 316.565235 338.825303 
L 319.186235 337.608904 
L 320.496735 337.317371 
L 321.807235 337.704407 
L 323.117735 339.136943 
L 324.428235 337.709433 
L 327.049235 337.835094 
L 328.359736 336.176368 
L 329.670236 336.638801 
L 330.980736 336.452823 
L 332.291236 336.030602 
L 333.601736 336.890123 
L 334.912236 335.46764 
L 336.222736 336.3724 
L 337.533236 335.879808 
L 338.843736 336.191448 
L 340.154236 335.603354 
L 341.464736 336.166315 
L 342.775236 335.909967 
L 344.085736 335.779279 
L 345.396236 336.673986 
L 346.706736 335.251503 
L 348.017236 334.658383 
L 349.327736 336.100972 
L 350.638236 333.351508 
L 351.948736 336.281924 
L 353.259236 335.894888 
L 354.569737 336.337214 
L 355.880237 335.970284 
L 357.190737 336.327162 
L 358.501237 335.985364 
L 359.811737 334.261294 
L 361.122237 335.161027 
L 362.432737 336.905202 
L 363.743237 336.804674 
L 365.053737 330.788022 
L 366.364237 334.346743 
L 367.674737 336.407585 
L 368.985237 337.583772 
L 370.295737 335.909967 
L 371.606237 337.015784 
L 372.916737 335.38219 
L 374.227237 334.80415 
L 375.537737 336.332188 
L 376.848237 336.206527 
L 378.158737 337.226895 
L 379.469237 336.588537 
L 380.779737 337.211815 
L 383.400738 336.000443 
L 384.711238 334.809176 
L 386.021738 336.452823 
L 387.332238 337.583772 
L 388.642738 335.874782 
L 389.953238 336.784568 
L 391.263738 335.281662 
L 392.574238 335.774253 
L 393.884738 334.799123 
L 395.195238 336.201501 
L 396.505738 336.658907 
L 397.816238 335.784306 
L 399.126738 336.377426 
L 400.437238 335.291714 
L 401.747738 335.38219 
L 403.058238 335.945152 
L 404.368738 334.889599 
L 405.679238 337.674248 
L 406.989738 336.714198 
L 408.300239 336.482981 
L 409.610739 334.703621 
L 410.921239 335.31182 
L 412.231739 334.743832 
L 413.542239 336.161289 
L 414.852739 337.111287 
L 416.163239 336.176368 
L 417.473739 336.66896 
L 418.784239 335.38219 
L 420.094739 334.673462 
L 421.405239 336.126104 
L 422.715739 336.613669 
L 424.026239 337.764724 
L 425.336739 336.533246 
L 426.647239 338.000967 
L 427.957739 336.382452 
L 430.578739 336.015522 
L 431.889239 337.216842 
L 433.199739 338.659431 
L 434.51024 336.276897 
L 435.82074 337.12134 
L 437.13124 338.654404 
L 438.44174 336.06076 
L 439.75224 335.306794 
L 441.06274 335.553089 
L 442.37324 337.463138 
L 443.68374 337.774777 
L 444.99424 338.357844 
L 446.30474 331.647544 
L 447.61524 335.316847 
L 448.92574 334.603092 
L 450.23624 336.839859 
L 451.54674 336.623722 
L 452.85724 334.708647 
L 454.16774 336.870017 
L 455.47824 334.226109 
L 456.78874 334.970022 
L 458.09924 335.316847 
L 460.72024 337.448058 
L 462.030741 336.261818 
L 463.341241 335.799385 
L 464.651741 334.221082 
L 465.962241 334.985102 
L 469.893741 336.3724 
L 472.514741 334.155739 
L 473.825241 333.733517 
L 475.135741 333.597803 
L 476.446241 333.120291 
L 477.756741 334.87452 
L 479.067241 335.759174 
L 480.377741 334.57796 
L 481.688241 335.10071 
L 484.309241 333.034842 
L 485.619741 330.345695 
L 486.930241 334.371876 
L 488.240742 334.371876 
L 489.551242 333.703359 
L 490.861742 332.904154 
L 492.172242 333.271085 
L 493.482742 334.708647 
L 494.793242 333.190662 
L 496.103742 335.080604 
L 497.414242 327.460517 
L 498.724742 330.235113 
L 500.035242 330.506541 
L 501.345742 331.094635 
L 502.656242 328.129034 
L 503.966742 329.114217 
L 505.277242 330.275325 
L 506.587742 324.620577 
L 507.898242 328.129034 
L 509.208742 327.254433 
L 510.519242 327.847553 
L 511.829742 333.155476 
L 513.140242 324.967402 
L 514.450742 329.229825 
L 515.761243 331.401248 
L 517.071743 329.71739 
L 518.382243 328.767392 
L 519.692743 330.747811 
L 522.313743 321.851008 
L 523.624243 321.413707 
L 524.934743 321.730373 
L 526.245243 321.514236 
L 527.555743 318.81001 
L 530.176743 323.851532 
L 531.487243 319.920854 
L 532.797743 324.359202 
L 534.108243 324.63063 
L 535.418743 325.032746 
L 536.729243 321.157359 
L 538.039743 321.549421 
L 539.350243 324.354176 
L 541.971244 321.433813 
L 543.281744 320.599423 
L 544.592244 322.866349 
L 545.902744 317.533294 
L 547.213244 316.879856 
L 548.523744 320.418472 
L 549.834244 332.954419 
L 551.144744 320.81556 
L 552.455244 327.85258 
L 553.765744 320.197308 
L 555.076244 320.569265 
L 556.386744 314.582772 
L 557.697244 314.869279 
L 559.007744 320.865825 
L 560.318244 315.733827 
L 561.628744 321.961589 
L 562.939244 318.915565 
L 564.249744 313.838858 
L 565.560244 313.87907 
L 566.870744 314.587798 
L 568.181244 311.772991 
L 570.802245 318.14652 
L 573.423245 317.804722 
L 574.733745 314.306318 
L 576.044245 316.814512 
L 577.354745 306.952632 
L 578.665245 291.084154 
L 581.286245 318.166625 
L 582.596745 318.221916 
L 583.907245 320.74519 
L 585.217745 320.071647 
L 586.528245 316.26663 
L 587.838745 321.856034 
L 589.149245 309.893101 
L 590.459745 317.256839 
L 591.770245 314.643089 
L 593.080745 315.175892 
L 594.391245 319.614241 
L 595.701746 319.257363 
L 597.012246 328.058664 
L 598.322746 326.535652 
L 599.633246 327.143851 
L 600.943746 326.043061 
L 602.254246 325.540416 
L 603.564746 315.437267 
L 604.875246 317.246786 
L 606.185746 326.093325 
L 607.496246 332.371351 
L 608.806746 324.374282 
L 610.117246 324.816609 
L 611.427746 322.323493 
L 612.738246 324.876926 
L 614.048746 324.756291 
L 615.359246 327.973214 
L 616.669746 333.180609 
L 617.980246 332.019501 
L 619.290746 329.435909 
L 620.601246 329.33538 
L 621.911747 330.69252 
L 623.222247 331.456539 
L 624.532747 329.340407 
L 625.843247 335.110763 
L 627.153747 332.024527 
L 629.774747 330.682467 
L 631.085247 332.587488 
L 632.395747 332.497013 
L 633.706247 332.1904 
L 635.016747 335.266582 
L 636.327247 333.954681 
L 637.637747 333.130344 
L 638.948247 334.381928 
L 640.258747 332.612621 
L 641.569247 333.492248 
L 642.879747 335.070551 
L 644.190247 336.432717 
L 645.500747 333.190662 
L 646.811247 334.653356 
L 648.121747 334.633251 
L 649.432248 332.929287 
L 650.742748 334.140659 
L 652.053248 335.020287 
L 653.363748 335.236424 
L 654.674248 334.502563 
L 655.984748 334.246214 
L 657.295248 330.45125 
L 658.605748 332.71315 
L 659.916248 333.059974 
L 661.226748 335.090657 
L 662.537248 335.573195 
L 665.158248 333.527433 
L 666.468748 333.08008 
L 667.779248 331.873734 
L 669.089748 331.305746 
L 670.400248 333.919496 
L 671.710748 335.17108 
L 673.021248 333.718438 
L 674.331748 335.713936 
L 675.642249 331.743046 
L 676.952749 333.185635 
L 678.263249 333.165529 
L 680.884249 335.774253 
L 682.194749 333.708385 
L 683.505249 333.125318 
L 684.815749 331.225323 
L 686.126249 333.165529 
L 687.436749 332.371351 
L 688.747249 334.748859 
L 690.057749 334.331664 
L 691.368249 330.62215 
L 692.678749 334.376902 
L 693.989249 333.803888 
L 695.299749 332.904154 
L 696.610249 332.833784 
L 699.231249 336.000443 
L 700.541749 334.703621 
L 701.852249 334.57796 
L 703.16275 334.014998 
L 704.47325 334.180871 
L 705.78375 335.864729 
L 707.09425 336.472928 
L 708.40475 337.302291 
L 709.71525 335.432455 
L 712.33625 334.949916 
L 713.64675 334.638277 
L 714.95725 336.075839 
L 716.26775 337.091181 
L 717.57825 337.845147 
L 718.88875 337.040916 
L 720.19925 336.684039 
L 721.50975 336.613669 
L 722.82025 336.201501 
L 724.13075 337.000705 
L 725.44125 338.207051 
L 726.75175 339.227419 
L 728.06225 337.900438 
L 729.372751 338.096469 
L 730.683251 338.005993 
L 731.993751 338.438267 
L 733.304251 337.47319 
L 734.614751 339.5089 
L 735.925251 339.549111 
L 739.856751 337.945676 
L 741.167251 338.925832 
L 742.477751 338.498585 
L 743.788251 339.730063 
L 745.098751 340.534294 
L 746.409251 337.62901 
L 747.719751 339.292763 
L 750.340751 338.885621 
L 755.582751 340.619743 
L 756.893252 339.981385 
L 758.203752 339.619481 
L 759.514252 339.614455 
L 760.824752 339.478741 
L 762.135252 340.137205 
L 763.445752 340.463924 
L 764.756252 340.001491 
L 767.377252 339.835618 
L 768.687752 340.388527 
L 769.998252 340.207575 
L 771.308752 340.549373 
L 772.619252 340.574505 
L 773.929752 340.227681 
L 775.240252 339.523979 
L 776.550752 340.081914 
L 777.861252 340.343289 
L 780.482252 340.644876 
L 781.792752 340.333236 
L 783.103253 340.192496 
L 784.413753 339.770275 
L 785.724253 339.639587 
L 787.034753 339.051493 
L 788.345253 339.418424 
L 789.655753 342.082438 
L 790.966253 340.46895 
L 792.276753 340.17239 
L 793.587253 339.534032 
L 796.208253 340.011544 
L 797.518753 340.112073 
L 798.829253 340.071861 
L 800.139753 340.303078 
L 801.450253 340.252813 
L 802.760753 339.544085 
L 804.071253 339.453609 
L 805.381753 339.624508 
L 806.692253 339.478741 
L 809.313253 339.996465 
L 810.623754 339.177154 
L 811.934254 338.845409 
L 813.244754 338.704669 
L 814.555254 338.679537 
L 815.865754 340.916303 
L 817.176254 340.916303 
L 818.486754 335.960231 
L 819.797254 337.292239 
L 821.107754 337.508376 
L 822.418254 337.568693 
L 823.728754 337.146472 
L 825.039254 340.916303 
L 826.349754 340.916303 
L 827.660254 331.451513 
L 828.970754 336.719224 
L 830.281254 335.452561 
L 831.591754 335.38219 
L 832.902254 334.995154 
L 834.212754 340.916303 
L 835.523254 340.916303 
L 836.833755 323.047301 
L 838.144255 333.864205 
L 839.454755 332.285902 
L 840.765255 332.069765 
L 842.075755 331.642517 
L 843.386255 340.916303 
L 844.696755 340.916303 
L 846.007255 317.518214 
L 847.317755 332.074791 
L 848.628255 330.275325 
L 849.938755 329.048873 
L 851.249255 329.506279 
L 852.559755 340.916303 
L 853.870255 340.916303 
L 855.180755 311.255267 
L 856.491255 329.636967 
L 857.801755 328.088823 
L 859.112255 327.023217 
L 860.422755 326.882476 
L 861.733255 340.916303 
L 863.043756 340.916303 
L 864.354256 305.324065 
L 865.664756 325.701262 
L 866.975256 323.554972 
L 869.596256 323.223226 
L 870.906756 340.916303 
L 872.217256 340.916303 
L 873.527756 299.216938 
L 874.838256 323.389099 
L 876.148756 323.791214 
L 877.459256 319.528791 
L 878.769756 320.458683 
L 880.080256 340.916303 
L 881.390756 340.916303 
L 882.701256 296.970118 
L 884.011756 330.828234 
L 885.322256 318.402868 
L 886.632756 321.051803 
L 887.943256 318.402868 
L 889.253756 340.916303 
L 890.564257 340.916303 
L 891.874757 294.411659 
L 893.185257 322.524551 
L 894.495757 320.478789 
L 895.806257 319.900748 
L 897.116757 319.744928 
L 898.427257 340.916303 
L 899.737757 340.916303 
L 901.048257 295.964829 
L 902.358757 324.153118 
L 903.669257 322.132488 
L 904.979757 321.981695 
L 906.290257 325.545443 
L 907.600757 341.780852 
L 908.911257 340.916303 
L 910.221757 300.770108 
L 911.532257 327.641469 
L 912.842757 325.077984 
L 914.153257 325.173486 
L 915.463757 328.088823 
L 916.774258 340.916303 
L 918.084758 340.916303 
L 919.395258 301.901058 
L 920.705758 333.738544 
L 922.016258 321.217676 
L 923.326758 326.409991 
L 924.637258 326.661313 
L 925.947758 340.916303 
L 928.568758 340.916303 
L 929.879258 303.419043 
L 931.189758 329.058926 
L 932.500258 327.832474 
L 933.810758 329.068979 
L 935.121258 340.916303 
L 936.431758 340.916303 
L 937.742258 316.065572 
L 939.052758 332.788546 
L 940.363258 331.758126 
L 941.673758 331.974263 
L 942.984258 332.597541 
L 944.294759 340.916303 
L 945.605259 340.916303 
L 946.915759 321.086988 
L 948.226259 334.386955 
L 949.536759 332.718176 
L 950.847259 333.401772 
L 952.157759 332.642779 
L 953.468259 340.916303 
L 954.778759 340.916303 
L 956.089259 324.690948 
L 957.399759 334.658383 
L 958.710259 333.703359 
L 960.020759 333.406799 
L 961.331259 334.035104 
L 962.641759 340.916303 
L 963.952259 340.916303 
L 965.262759 323.89677 
L 966.573259 333.638015 
L 967.883759 333.844099 
L 969.194259 332.934313 
L 970.50476 333.547539 
L 971.81526 340.916303 
L 973.12576 340.916303 
L 974.43626 324.711053 
L 975.74676 334.834308 
L 977.05726 328.189351 
L 978.36776 331.391195 
L 979.67826 332.059712 
L 980.98876 340.916303 
L 982.29926 340.916303 
L 983.60976 320.257625 
L 984.92026 332.944366 
L 986.23076 333.200714 
L 987.54126 331.96421 
L 988.85176 334.547801 
L 990.16226 340.916303 
L 991.47276 340.916303 
L 992.78326 323.474548 
L 994.09376 331.330878 
L 995.40426 328.787498 
L 996.71476 328.490938 
L 998.025261 327.857606 
L 999.335761 340.916303 
L 1000.646261 340.916303 
L 1001.956761 308.465592 
L 1003.267261 329.64702 
L 1004.577761 326.590943 
L 1005.888261 325.46502 
L 1007.198761 326.600996 
L 1008.509261 340.916303 
L 1009.819761 340.916303 
L 1011.130261 307.616123 
L 1012.440761 328.772419 
L 1013.751261 325.158407 
L 1015.061761 322.378784 
L 1016.372261 323.539892 
L 1017.682761 340.916303 
L 1018.993261 340.916303 
L 1020.303761 289.103736 
L 1021.614261 318.613979 
L 1022.924761 310.89839 
L 1024.235262 308.380142 
L 1025.545762 296.904774 
L 1026.856262 340.916303 
L 1028.166762 340.916303 
L 1029.477262 247.861776 
L 1030.787762 303.524599 
L 1032.098262 280.036034 
L 1033.408762 273.059332 
L 1034.719262 252.360442 
L 1036.029762 340.916303 
L 1037.340262 340.916303 
L 1038.650762 138.622104 
L 1039.961262 253.481339 
L 1041.271762 286.99263 
L 1042.582262 261.297457 
L 1043.892762 248.88717 
L 1045.203262 340.916303 
L 1046.513762 340.916303 
L 1047.824262 50.8755 
L 1049.134762 257.070218 
L 1050.445263 241.211793 
L 1051.755763 245.705432 
L 1053.066263 254.365992 
L 1054.376763 340.916303 
L 1055.687263 340.916303 
L 1056.997763 111.016883 
L 1058.308263 289.405322 
L 1062.239763 255.331069 
L 1063.550263 340.916303 
L 1064.860763 340.916303 
L 1066.171263 192.229112 
L 1067.481763 287.138397 
L 1068.792263 284.992106 
L 1070.102763 281.890791 
L 1071.413263 286.927286 
L 1072.723763 340.916303 
L 1074.034263 340.916303 
L 1075.344763 240.151213 
L 1076.655263 310.481195 
L 1077.965764 307.349721 
L 1079.276264 305.032531 
L 1080.586764 308.244428 
L 1081.897264 340.916303 
L 1083.207764 340.916303 
L 1084.518264 279.463019 
L 1085.828764 317.347315 
L 1087.139264 317.10102 
L 1088.449764 317.15631 
L 1089.760264 319.428262 
L 1091.070764 340.916303 
L 1092.381264 340.916303 
L 1093.691764 300.458469 
L 1095.002264 325.872162 
L 1096.312764 325.686183 
L 1097.623264 325.384597 
L 1098.933764 326.611049 
L 1100.244264 340.916303 
L 1101.554764 340.916303 
L 1102.865264 311.220082 
L 1104.175765 330.416065 
L 1105.486265 330.898604 
L 1106.796765 329.978765 
L 1108.107265 332.577436 
L 1109.417765 340.916303 
L 1110.728265 340.916303 
L 1112.038765 323.665553 
L 1113.349265 333.396746 
L 1114.659765 332.813678 
L 1115.970265 332.652832 
L 1117.280765 335.402296 
L 1118.591265 340.916303 
L 1119.901765 340.916303 
L 1121.212265 328.913159 
L 1122.522765 335.452561 
L 1123.833265 340.916303 
L 1125.143765 327.475597 
L 1126.454265 334.522669 
L 1127.764765 340.916303 
L 1129.075265 340.916303 
L 1130.385765 332.466854 
L 1131.696266 334.412087 
L 1134.317266 335.090657 
L 1135.627766 335.176106 
L 1136.938266 340.916303 
L 1138.248766 340.916303 
L 1139.559266 331.999395 
L 1140.869766 340.916303 
L 1142.180266 333.120291 
L 1143.490766 335.663671 
L 1144.801266 335.879808 
L 1146.111766 340.916303 
L 1147.422266 340.916303 
L 1148.732766 334.180871 
L 1150.043266 336.558378 
L 1151.353766 336.905202 
L 1152.664266 336.875044 
L 1153.974766 336.598589 
L 1155.285266 340.916303 
L 1156.595766 340.916303 
L 1157.906267 332.507065 
L 1159.216767 335.754147 
L 1160.527267 335.708909 
L 1161.837767 335.517904 
L 1163.148267 334.457325 
L 1164.458767 340.916303 
L 1165.769267 340.916303 
L 1167.079767 329.003635 
L 1168.390267 334.869493 
L 1169.700767 334.799123 
L 1171.011267 335.417376 
L 1172.321767 333.185635 
L 1173.632267 340.916303 
L 1174.942767 340.916303 
L 1176.253267 327.747025 
L 1177.563767 336.020549 
L 1178.874267 334.849388 
L 1180.184767 333.401772 
L 1181.495267 332.346219 
L 1182.805767 340.916303 
L 1184.116267 340.916303 
L 1185.426768 324.318991 
L 1186.737268 334.246214 
L 1189.358268 330.767916 
L 1190.668768 331.557068 
L 1191.979268 340.916303 
L 1193.289768 340.916303 
L 1194.600268 319.845457 
L 1195.910768 333.703359 
L 1197.221268 324.897032 
L 1198.531768 328.204431 
L 1199.842268 327.460517 
L 1201.152768 340.916303 
L 1202.463268 340.916303 
L 1203.773768 310.642041 
L 1205.084268 328.430621 
L 1206.394768 327.023217 
L 1207.705268 325.113169 
L 1209.015768 324.354176 
L 1210.326268 340.916303 
L 1211.636769 340.916303 
L 1212.947269 302.891267 
L 1214.257769 322.579842 
L 1215.568269 324.801529 
L 1216.878769 321.634871 
L 1218.189269 321.57958 
L 1219.499769 340.916303 
L 1220.810269 340.916303 
L 1222.120769 297.598423 
L 1223.431269 324.711053 
L 1224.741769 323.384073 
L 1227.362769 322.680371 
L 1228.673269 340.916303 
L 1231.294269 340.916303 
L 1232.604769 290.938387 
L 1233.915269 325.98777 
L 1235.225769 326.249145 
L 1236.536269 320.529053 
L 1237.846769 340.916303 
L 1239.15727 340.916303 
L 1240.46777 300.297623 
L 1241.77827 327.711839 
L 1244.39927 324.33407 
L 1245.70977 325.088036 
L 1247.02027 340.916303 
L 1248.33077 340.916303 
L 1249.64127 306.505279 
L 1250.95177 327.053375 
L 1252.26227 327.324803 
L 1253.57277 328.21951 
L 1254.88327 326.123484 
L 1256.19377 340.916303 
L 1257.50427 340.916303 
L 1258.81477 309.777493 
L 1260.12527 328.214484 
L 1261.43577 327.887765 
L 1262.74627 325.409729 
L 1264.05677 325.937505 
L 1265.367271 340.916303 
L 1266.677771 340.916303 
L 1267.988271 307.646282 
L 1269.298771 325.485125 
L 1270.609271 324.540154 
L 1271.919771 324.258674 
L 1273.230271 323.861585 
L 1274.540771 340.916303 
L 1275.851271 340.916303 
L 1277.161771 307.329616 
L 1278.472271 329.762628 
L 1281.093271 324.907085 
L 1282.403771 323.112645 
L 1283.714271 340.916303 
L 1285.024771 340.916303 
L 1286.335271 301.328043 
L 1287.645771 324.409467 
L 1288.956271 324.12296 
L 1290.266771 324.48989 
L 1291.577272 323.449416 
L 1292.887772 340.916303 
L 1294.198272 340.916303 
L 1295.508772 303.856344 
L 1296.819272 324.736186 
L 1298.129772 325.304174 
L 1299.440272 321.800743 
L 1300.750772 322.579842 
L 1302.061272 340.916303 
L 1303.371772 340.916303 
L 1304.682272 300.744976 
L 1305.992772 327.008137 
L 1307.303272 323.017142 
L 1307.303272 323.017142 
" clip-path="url(#p2534b8a817)" style="fill: none; stroke: #0000ff; stroke-width: 1.5; stroke-linecap: square"/>
   </g>
   <g id="line2d_20">
    <path d="M 1067.481763 291.244151 
L 1068.792263 285.64911 
L 1070.102763 273.328905 
L 1071.413263 346.934757 
L 1072.723763 346.471579 
L 1074.034263 220.175021 
L 1075.344763 302.421384 
L 1076.655263 300.843992 
L 1077.965764 301.216081 
L 1079.276264 306.537005 
L 1080.586764 353.2755 
L 1081.897264 352.390911 
L 1083.207764 265.036419 
L 1084.518264 325.169929 
L 1085.828764 320.804489 
L 1087.139264 320.278594 
L 1088.449764 321.712753 
L 1089.760264 348.967039 
L 1091.070764 348.033145 
L 1092.381264 294.517198 
L 1093.691764 326.647108 
L 1095.002264 325.783213 
L 1096.312764 326.645099 
L 1097.623264 328.33844 
L 1098.933764 346.469504 
L 1100.244264 345.818454 
L 1101.554764 310.513763 
L 1102.865264 331.743864 
L 1104.175765 331.038865 
L 1105.486265 330.964227 
L 1106.796765 331.797486 
L 1108.107265 344.090497 
L 1109.417765 343.7041 
L 1110.728265 318.09019 
L 1112.038765 334.693344 
L 1113.349265 334.762568 
L 1114.659765 334.457626 
L 1115.970265 336.287399 
L 1117.280765 343.068635 
L 1118.591265 342.725613 
L 1119.901765 327.724165 
L 1121.212265 335.947658 
L 1122.522765 335.251875 
L 1123.833265 335.829312 
L 1125.143765 337.364059 
L 1126.454265 342.348 
L 1127.764765 341.212586 
L 1129.075265 330.66603 
L 1130.385765 336.433365 
L 1131.696266 340.927829 
L 1133.006766 329.011137 
L 1134.317266 335.336678 
L 1135.627766 340.191445 
L 1136.938266 341.037766 
L 1138.248766 333.743397 
L 1139.559266 335.2332 
L 1140.869766 336.068585 
L 1142.180266 335.913062 
L 1143.490766 336.57921 
L 1144.801266 341.036006 
L 1146.111766 340.973438 
L 1147.422266 333.311348 
L 1148.732766 341.024496 
L 1150.043266 333.925855 
L 1151.353766 336.450604 
L 1152.664266 336.20486 
L 1153.974766 340.939005 
L 1155.285266 340.988105 
L 1156.595766 335.204094 
L 1157.906267 336.973657 
L 1159.216767 337.128935 
L 1161.837767 336.225814 
L 1163.148267 339.640063 
L 1164.458767 339.652221 
L 1165.769267 332.420552 
L 1167.079767 335.055337 
L 1168.390267 335.103906 
L 1169.700767 334.503139 
L 1171.011267 333.705098 
L 1172.321767 339.204338 
L 1173.632267 339.458171 
L 1174.942767 329.340244 
L 1176.253267 334.403028 
L 1177.563767 334.624021 
L 1178.874267 334.973054 
L 1180.184767 333.102007 
L 1181.495267 339.658592 
L 1182.805767 339.579117 
L 1184.116267 328.386676 
L 1185.426768 335.256588 
L 1186.737268 334.253448 
L 1188.047768 332.360947 
L 1189.358268 331.238668 
L 1190.668768 338.4688 
L 1191.979268 338.560113 
L 1193.289768 324.66512 
L 1194.600268 332.989295 
L 1195.910768 331.708205 
L 1197.221268 329.022042 
L 1198.531768 329.708063 
L 1199.842268 336.818195 
L 1201.152768 337.191764 
L 1202.463268 319.380292 
L 1203.773768 330.898719 
L 1205.084268 323.410005 
L 1206.394768 325.524024 
L 1207.705268 324.721503 
L 1209.015768 336.739703 
L 1210.326268 337.032683 
L 1211.636769 311.427563 
L 1212.947269 326.340789 
L 1214.257769 325.071458 
L 1215.568269 322.35694 
L 1216.878769 321.341186 
L 1218.189269 335.67665 
L 1219.499769 336.118715 
L 1220.810269 304.080088 
L 1222.120769 320.916681 
L 1223.431269 323.563843 
L 1224.741769 320.03513 
L 1226.052269 320.747856 
L 1227.362769 337.518353 
L 1228.673269 338.117119 
L 1229.983769 301.491554 
L 1231.294269 328.807166 
L 1232.604769 324.563161 
L 1233.915269 328.253737 
L 1235.225769 323.09091 
L 1236.536269 338.792274 
L 1237.846769 339.276086 
L 1239.15727 339.091492 
L 1240.46777 292.845732 
L 1241.77827 326.093927 
L 1243.08877 322.345252 
L 1244.39927 321.984174 
L 1245.70977 339.609727 
L 1247.02027 339.469723 
L 1248.33077 305.231667 
L 1249.64127 328.951359 
L 1252.26227 326.061412 
L 1253.57277 326.681749 
L 1254.88327 340.202887 
L 1256.19377 340.525402 
L 1257.50427 311.008949 
L 1258.81477 328.545522 
L 1260.12527 328.782083 
L 1261.43577 329.314067 
L 1262.74627 327.119963 
L 1264.05677 339.567542 
L 1265.367271 339.282876 
L 1266.677771 312.732867 
L 1267.988271 328.244253 
L 1269.298771 327.81624 
L 1270.609271 324.768178 
L 1271.919771 324.920913 
L 1273.230271 337.393158 
L 1274.540771 337.732804 
L 1275.851271 309.494759 
L 1277.161771 324.97236 
L 1278.472271 324.900496 
L 1279.782771 324.594931 
L 1281.093271 324.827817 
L 1282.403771 339.478397 
L 1283.714271 339.542448 
L 1285.024771 310.729014 
L 1286.335271 329.235436 
L 1287.645771 326.688685 
L 1288.956271 323.358383 
L 1290.266771 321.532946 
L 1291.577272 336.874949 
L 1292.887772 337.457708 
L 1294.198272 304.115813 
L 1295.508772 324.25994 
L 1296.819272 324.349404 
L 1298.129772 324.64075 
L 1299.440272 323.517897 
L 1300.750772 338.472875 
L 1302.061272 338.374884 
L 1303.371772 306.842153 
L 1304.682272 324.463527 
L 1305.992772 325.384298 
L 1307.303272 321.449836 
L 1307.303272 321.449836 
" clip-path="url(#p2534b8a817)" style="fill: none; stroke: #ffa500; stroke-width: 1.5; stroke-linecap: square"/>
   </g>
   <g id="line2d_21">
    <path d="M 1307.303272 321.449836 
L 1308.613772 322.452061 
L 1309.924272 337.931656 
L 1311.234772 337.922207 
L 1312.545272 303.558195 
L 1313.855772 326.039916 
L 1315.166272 322.620226 
L 1316.476772 321.279159 
L 1317.787272 322.137431 
L 1319.097773 335.389719 
L 1320.408273 335.381618 
L 1321.718773 305.96187 
L 1323.029273 325.20895 
L 1324.339773 322.281279 
" clip-path="url(#p2534b8a817)" style="fill: none; stroke: #ff0000; stroke-width: 1.5; stroke-linecap: square"/>
   </g>
   <g id="patch_3">
    <path d="M 46.0125 368.3955 
L 46.0125 35.7555 
" style="fill: none; stroke: #000000; stroke-width: 0.8; stroke-linejoin: miter; stroke-linecap: square"/>
   </g>
   <g id="patch_4">
    <path d="M 1385.2125 368.3955 
L 1385.2125 35.7555 
" style="fill: none; stroke: #000000; stroke-width: 0.8; stroke-linejoin: miter; stroke-linecap: square"/>
   </g>
   <g id="patch_5">
    <path d="M 46.0125 368.3955 
L 1385.2125 368.3955 
" style="fill: none; stroke: #000000; stroke-width: 0.8; stroke-linejoin: miter; stroke-linecap: square"/>
   </g>
   <g id="patch_6">
    <path d="M 46.0125 35.7555 
L 1385.2125 35.7555 
" style="fill: none; stroke: #000000; stroke-width: 0.8; stroke-linejoin: miter; stroke-linecap: square"/>
   </g>
   <g id="text_19">
    <!-- Daily Confirmed Cases Forecasting - Virginia -->
    <g transform="translate(582.492188 16.318125)scale(0.12 -0.12)">
     <defs>
      <path id="DejaVuSans-44" d="M 1259 4147 
L 1259 519 
L 2022 519 
Q 2988 519 3436 956 
Q 3884 1394 3884 2338 
Q 3884 3275 3436 3711 
Q 2988 4147 2022 4147 
L 1259 4147 
z
M 628 4666 
L 1925 4666 
Q 3281 4666 3915 4102 
Q 4550 3538 4550 2338 
Q 4550 1131 3912 565 
Q 3275 0 1925 0 
L 628 0 
L 628 4666 
z
" transform="scale(0.015625)"/>
      <path id="DejaVuSans-61" d="M 2194 1759 
Q 1497 1759 1228 1600 
Q 959 1441 959 1056 
Q 959 750 1161 570 
Q 1363 391 1709 391 
Q 2188 391 2477 730 
Q 2766 1069 2766 1631 
L 2766 1759 
L 2194 1759 
z
M 3341 1997 
L 3341 0 
L 2766 0 
L 2766 531 
Q 2569 213 2275 61 
Q 1981 -91 1556 -91 
Q 1019 -91 701 211 
Q 384 513 384 1019 
Q 384 1609 779 1909 
Q 1175 2209 1959 2209 
L 2766 2209 
L 2766 2266 
Q 2766 2663 2505 2880 
Q 2244 3097 1772 3097 
Q 1472 3097 1187 3025 
Q 903 2953 641 2809 
L 641 3341 
Q 956 3463 1253 3523 
Q 1550 3584 1831 3584 
Q 2591 3584 2966 3190 
Q 3341 2797 3341 1997 
z
" transform="scale(0.015625)"/>
      <path id="DejaVuSans-69" d="M 603 3500 
L 1178 3500 
L 1178 0 
L 603 0 
L 603 3500 
z
M 603 4863 
L 1178 4863 
L 1178 4134 
L 603 4134 
L 603 4863 
z
" transform="scale(0.015625)"/>
      <path id="DejaVuSans-6c" d="M 603 4863 
L 1178 4863 
L 1178 0 
L 603 0 
L 603 4863 
z
" transform="scale(0.015625)"/>
      <path id="DejaVuSans-79" d="M 2059 -325 
Q 1816 -950 1584 -1140 
Q 1353 -1331 966 -1331 
L 506 -1331 
L 506 -850 
L 844 -850 
Q 1081 -850 1212 -737 
Q 1344 -625 1503 -206 
L 1606 56 
L 191 3500 
L 800 3500 
L 1894 763 
L 2988 3500 
L 3597 3500 
L 2059 -325 
z
" transform="scale(0.015625)"/>
      <path id="DejaVuSans-20" transform="scale(0.015625)"/>
      <path id="DejaVuSans-43" d="M 4122 4306 
L 4122 3641 
Q 3803 3938 3442 4084 
Q 3081 4231 2675 4231 
Q 1875 4231 1450 3742 
Q 1025 3253 1025 2328 
Q 1025 1406 1450 917 
Q 1875 428 2675 428 
Q 3081 428 3442 575 
Q 3803 722 4122 1019 
L 4122 359 
Q 3791 134 3420 21 
Q 3050 -91 2638 -91 
Q 1578 -91 968 557 
Q 359 1206 359 2328 
Q 359 3453 968 4101 
Q 1578 4750 2638 4750 
Q 3056 4750 3426 4639 
Q 3797 4528 4122 4306 
z
" transform="scale(0.015625)"/>
      <path id="DejaVuSans-6f" d="M 1959 3097 
Q 1497 3097 1228 2736 
Q 959 2375 959 1747 
Q 959 1119 1226 758 
Q 1494 397 1959 397 
Q 2419 397 2687 759 
Q 2956 1122 2956 1747 
Q 2956 2369 2687 2733 
Q 2419 3097 1959 3097 
z
M 1959 3584 
Q 2709 3584 3137 3096 
Q 3566 2609 3566 1747 
Q 3566 888 3137 398 
Q 2709 -91 1959 -91 
Q 1206 -91 779 398 
Q 353 888 353 1747 
Q 353 2609 779 3096 
Q 1206 3584 1959 3584 
z
" transform="scale(0.015625)"/>
      <path id="DejaVuSans-6e" d="M 3513 2113 
L 3513 0 
L 2938 0 
L 2938 2094 
Q 2938 2591 2744 2837 
Q 2550 3084 2163 3084 
Q 1697 3084 1428 2787 
Q 1159 2491 1159 1978 
L 1159 0 
L 581 0 
L 581 3500 
L 1159 3500 
L 1159 2956 
Q 1366 3272 1645 3428 
Q 1925 3584 2291 3584 
Q 2894 3584 3203 3211 
Q 3513 2838 3513 2113 
z
" transform="scale(0.015625)"/>
      <path id="DejaVuSans-66" d="M 2375 4863 
L 2375 4384 
L 1825 4384 
Q 1516 4384 1395 4259 
Q 1275 4134 1275 3809 
L 1275 3500 
L 2222 3500 
L 2222 3053 
L 1275 3053 
L 1275 0 
L 697 0 
L 697 3053 
L 147 3053 
L 147 3500 
L 697 3500 
L 697 3744 
Q 697 4328 969 4595 
Q 1241 4863 1831 4863 
L 2375 4863 
z
" transform="scale(0.015625)"/>
      <path id="DejaVuSans-72" d="M 2631 2963 
Q 2534 3019 2420 3045 
Q 2306 3072 2169 3072 
Q 1681 3072 1420 2755 
Q 1159 2438 1159 1844 
L 1159 0 
L 581 0 
L 581 3500 
L 1159 3500 
L 1159 2956 
Q 1341 3275 1631 3429 
Q 1922 3584 2338 3584 
Q 2397 3584 2469 3576 
Q 2541 3569 2628 3553 
L 2631 2963 
z
" transform="scale(0.015625)"/>
      <path id="DejaVuSans-6d" d="M 3328 2828 
Q 3544 3216 3844 3400 
Q 4144 3584 4550 3584 
Q 5097 3584 5394 3201 
Q 5691 2819 5691 2113 
L 5691 0 
L 5113 0 
L 5113 2094 
Q 5113 2597 4934 2840 
Q 4756 3084 4391 3084 
Q 3944 3084 3684 2787 
Q 3425 2491 3425 1978 
L 3425 0 
L 2847 0 
L 2847 2094 
Q 2847 2600 2669 2842 
Q 2491 3084 2119 3084 
Q 1678 3084 1418 2786 
Q 1159 2488 1159 1978 
L 1159 0 
L 581 0 
L 581 3500 
L 1159 3500 
L 1159 2956 
Q 1356 3278 1631 3431 
Q 1906 3584 2284 3584 
Q 2666 3584 2933 3390 
Q 3200 3197 3328 2828 
z
" transform="scale(0.015625)"/>
      <path id="DejaVuSans-65" d="M 3597 1894 
L 3597 1613 
L 953 1613 
Q 991 1019 1311 708 
Q 1631 397 2203 397 
Q 2534 397 2845 478 
Q 3156 559 3463 722 
L 3463 178 
Q 3153 47 2828 -22 
Q 2503 -91 2169 -91 
Q 1331 -91 842 396 
Q 353 884 353 1716 
Q 353 2575 817 3079 
Q 1281 3584 2069 3584 
Q 2775 3584 3186 3129 
Q 3597 2675 3597 1894 
z
M 3022 2063 
Q 3016 2534 2758 2815 
Q 2500 3097 2075 3097 
Q 1594 3097 1305 2825 
Q 1016 2553 972 2059 
L 3022 2063 
z
" transform="scale(0.015625)"/>
      <path id="DejaVuSans-64" d="M 2906 2969 
L 2906 4863 
L 3481 4863 
L 3481 0 
L 2906 0 
L 2906 525 
Q 2725 213 2448 61 
Q 2172 -91 1784 -91 
Q 1150 -91 751 415 
Q 353 922 353 1747 
Q 353 2572 751 3078 
Q 1150 3584 1784 3584 
Q 2172 3584 2448 3432 
Q 2725 3281 2906 2969 
z
M 947 1747 
Q 947 1113 1208 752 
Q 1469 391 1925 391 
Q 2381 391 2643 752 
Q 2906 1113 2906 1747 
Q 2906 2381 2643 2742 
Q 2381 3103 1925 3103 
Q 1469 3103 1208 2742 
Q 947 2381 947 1747 
z
" transform="scale(0.015625)"/>
      <path id="DejaVuSans-73" d="M 2834 3397 
L 2834 2853 
Q 2591 2978 2328 3040 
Q 2066 3103 1784 3103 
Q 1356 3103 1142 2972 
Q 928 2841 928 2578 
Q 928 2378 1081 2264 
Q 1234 2150 1697 2047 
L 1894 2003 
Q 2506 1872 2764 1633 
Q 3022 1394 3022 966 
Q 3022 478 2636 193 
Q 2250 -91 1575 -91 
Q 1294 -91 989 -36 
Q 684 19 347 128 
L 347 722 
Q 666 556 975 473 
Q 1284 391 1588 391 
Q 1994 391 2212 530 
Q 2431 669 2431 922 
Q 2431 1156 2273 1281 
Q 2116 1406 1581 1522 
L 1381 1569 
Q 847 1681 609 1914 
Q 372 2147 372 2553 
Q 372 3047 722 3315 
Q 1072 3584 1716 3584 
Q 2034 3584 2315 3537 
Q 2597 3491 2834 3397 
z
" transform="scale(0.015625)"/>
      <path id="DejaVuSans-46" d="M 628 4666 
L 3309 4666 
L 3309 4134 
L 1259 4134 
L 1259 2759 
L 3109 2759 
L 3109 2228 
L 1259 2228 
L 1259 0 
L 628 0 
L 628 4666 
z
" transform="scale(0.015625)"/>
      <path id="DejaVuSans-63" d="M 3122 3366 
L 3122 2828 
Q 2878 2963 2633 3030 
Q 2388 3097 2138 3097 
Q 1578 3097 1268 2742 
Q 959 2388 959 1747 
Q 959 1106 1268 751 
Q 1578 397 2138 397 
Q 2388 397 2633 464 
Q 2878 531 3122 666 
L 3122 134 
Q 2881 22 2623 -34 
Q 2366 -91 2075 -91 
Q 1284 -91 818 406 
Q 353 903 353 1747 
Q 353 2603 823 3093 
Q 1294 3584 2113 3584 
Q 2378 3584 2631 3529 
Q 2884 3475 3122 3366 
z
" transform="scale(0.015625)"/>
      <path id="DejaVuSans-74" d="M 1172 4494 
L 1172 3500 
L 2356 3500 
L 2356 3053 
L 1172 3053 
L 1172 1153 
Q 1172 725 1289 603 
Q 1406 481 1766 481 
L 2356 481 
L 2356 0 
L 1766 0 
Q 1100 0 847 248 
Q 594 497 594 1153 
L 594 3053 
L 172 3053 
L 172 3500 
L 594 3500 
L 594 4494 
L 1172 4494 
z
" transform="scale(0.015625)"/>
      <path id="DejaVuSans-67" d="M 2906 1791 
Q 2906 2416 2648 2759 
Q 2391 3103 1925 3103 
Q 1463 3103 1205 2759 
Q 947 2416 947 1791 
Q 947 1169 1205 825 
Q 1463 481 1925 481 
Q 2391 481 2648 825 
Q 2906 1169 2906 1791 
z
M 3481 434 
Q 3481 -459 3084 -895 
Q 2688 -1331 1869 -1331 
Q 1566 -1331 1297 -1286 
Q 1028 -1241 775 -1147 
L 775 -588 
Q 1028 -725 1275 -790 
Q 1522 -856 1778 -856 
Q 2344 -856 2625 -561 
Q 2906 -266 2906 331 
L 2906 616 
Q 2728 306 2450 153 
Q 2172 0 1784 0 
Q 1141 0 747 490 
Q 353 981 353 1791 
Q 353 2603 747 3093 
Q 1141 3584 1784 3584 
Q 2172 3584 2450 3431 
Q 2728 3278 2906 2969 
L 2906 3500 
L 3481 3500 
L 3481 434 
z
" transform="scale(0.015625)"/>
      <path id="DejaVuSans-56" d="M 1831 0 
L 50 4666 
L 709 4666 
L 2188 738 
L 3669 4666 
L 4325 4666 
L 2547 0 
L 1831 0 
z
" transform="scale(0.015625)"/>
     </defs>
     <use xlink:href="#DejaVuSans-44"/>
     <use xlink:href="#DejaVuSans-61" x="77.001953"/>
     <use xlink:href="#DejaVuSans-69" x="138.28125"/>
     <use xlink:href="#DejaVuSans-6c" x="166.064453"/>
     <use xlink:href="#DejaVuSans-79" x="193.847656"/>
     <use xlink:href="#DejaVuSans-20" x="253.027344"/>
     <use xlink:href="#DejaVuSans-43" x="284.814453"/>
     <use xlink:href="#DejaVuSans-6f" x="354.638672"/>
     <use xlink:href="#DejaVuSans-6e" x="415.820312"/>
     <use xlink:href="#DejaVuSans-66" x="479.199219"/>
     <use xlink:href="#DejaVuSans-69" x="514.404297"/>
     <use xlink:href="#DejaVuSans-72" x="542.1875"/>
     <use xlink:href="#DejaVuSans-6d" x="581.550781"/>
     <use xlink:href="#DejaVuSans-65" x="678.962891"/>
     <use xlink:href="#DejaVuSans-64" x="740.486328"/>
     <use xlink:href="#DejaVuSans-20" x="803.962891"/>
     <use xlink:href="#DejaVuSans-43" x="835.75"/>
     <use xlink:href="#DejaVuSans-61" x="905.574219"/>
     <use xlink:href="#DejaVuSans-73" x="966.853516"/>
     <use xlink:href="#DejaVuSans-65" x="1018.953125"/>
     <use xlink:href="#DejaVuSans-73" x="1080.476562"/>
     <use xlink:href="#DejaVuSans-20" x="1132.576172"/>
     <use xlink:href="#DejaVuSans-46" x="1164.363281"/>
     <use xlink:href="#DejaVuSans-6f" x="1218.257812"/>
     <use xlink:href="#DejaVuSans-72" x="1279.439453"/>
     <use xlink:href="#DejaVuSans-65" x="1318.302734"/>
     <use xlink:href="#DejaVuSans-63" x="1379.826172"/>
     <use xlink:href="#DejaVuSans-61" x="1434.806641"/>
     <use xlink:href="#DejaVuSans-73" x="1496.085938"/>
     <use xlink:href="#DejaVuSans-74" x="1548.185547"/>
     <use xlink:href="#DejaVuSans-69" x="1587.394531"/>
     <use xlink:href="#DejaVuSans-6e" x="1615.177734"/>
     <use xlink:href="#DejaVuSans-67" x="1678.556641"/>
     <use xlink:href="#DejaVuSans-20" x="1742.033203"/>
     <use xlink:href="#DejaVuSans-2d" x="1773.820312"/>
     <use xlink:href="#DejaVuSans-20" x="1809.904297"/>
     <use xlink:href="#DejaVuSans-56" x="1841.691406"/>
     <use xlink:href="#DejaVuSans-69" x="1907.849609"/>
     <use xlink:href="#DejaVuSans-72" x="1935.632812"/>
     <use xlink:href="#DejaVuSans-67" x="1974.996094"/>
     <use xlink:href="#DejaVuSans-69" x="2038.472656"/>
     <use xlink:href="#DejaVuSans-6e" x="2066.255859"/>
     <use xlink:href="#DejaVuSans-69" x="2129.634766"/>
     <use xlink:href="#DejaVuSans-61" x="2157.417969"/>
    </g>
    <!-- ARIMA (2, 1, 1)x(1, 0, 0, 7) (R2 = -0.545922) -->
    <g transform="translate(581.46375 29.7555)scale(0.12 -0.12)">
     <defs>
      <path id="DejaVuSans-41" d="M 2188 4044 
L 1331 1722 
L 3047 1722 
L 2188 4044 
z
M 1831 4666 
L 2547 4666 
L 4325 0 
L 3669 0 
L 3244 1197 
L 1141 1197 
L 716 0 
L 50 0 
L 1831 4666 
z
" transform="scale(0.015625)"/>
      <path id="DejaVuSans-52" d="M 2841 2188 
Q 3044 2119 3236 1894 
Q 3428 1669 3622 1275 
L 4263 0 
L 3584 0 
L 2988 1197 
Q 2756 1666 2539 1819 
Q 2322 1972 1947 1972 
L 1259 1972 
L 1259 0 
L 628 0 
L 628 4666 
L 2053 4666 
Q 2853 4666 3247 4331 
Q 3641 3997 3641 3322 
Q 3641 2881 3436 2590 
Q 3231 2300 2841 2188 
z
M 1259 4147 
L 1259 2491 
L 2053 2491 
Q 2509 2491 2742 2702 
Q 2975 2913 2975 3322 
Q 2975 3731 2742 3939 
Q 2509 4147 2053 4147 
L 1259 4147 
z
" transform="scale(0.015625)"/>
      <path id="DejaVuSans-49" d="M 628 4666 
L 1259 4666 
L 1259 0 
L 628 0 
L 628 4666 
z
" transform="scale(0.015625)"/>
      <path id="DejaVuSans-4d" d="M 628 4666 
L 1569 4666 
L 2759 1491 
L 3956 4666 
L 4897 4666 
L 4897 0 
L 4281 0 
L 4281 4097 
L 3078 897 
L 2444 897 
L 1241 4097 
L 1241 0 
L 628 0 
L 628 4666 
z
" transform="scale(0.015625)"/>
      <path id="DejaVuSans-28" d="M 1984 4856 
Q 1566 4138 1362 3434 
Q 1159 2731 1159 2009 
Q 1159 1288 1364 580 
Q 1569 -128 1984 -844 
L 1484 -844 
Q 1016 -109 783 600 
Q 550 1309 550 2009 
Q 550 2706 781 3412 
Q 1013 4119 1484 4856 
L 1984 4856 
z
" transform="scale(0.015625)"/>
      <path id="DejaVuSans-2c" d="M 750 794 
L 1409 794 
L 1409 256 
L 897 -744 
L 494 -744 
L 750 256 
L 750 794 
z
" transform="scale(0.015625)"/>
      <path id="DejaVuSans-29" d="M 513 4856 
L 1013 4856 
Q 1481 4119 1714 3412 
Q 1947 2706 1947 2009 
Q 1947 1309 1714 600 
Q 1481 -109 1013 -844 
L 513 -844 
Q 928 -128 1133 580 
Q 1338 1288 1338 2009 
Q 1338 2731 1133 3434 
Q 928 4138 513 4856 
z
" transform="scale(0.015625)"/>
      <path id="DejaVuSans-78" d="M 3513 3500 
L 2247 1797 
L 3578 0 
L 2900 0 
L 1881 1375 
L 863 0 
L 184 0 
L 1544 1831 
L 300 3500 
L 978 3500 
L 1906 2253 
L 2834 3500 
L 3513 3500 
z
" transform="scale(0.015625)"/>
      <path id="DejaVuSans-3d" d="M 678 2906 
L 4684 2906 
L 4684 2381 
L 678 2381 
L 678 2906 
z
M 678 1631 
L 4684 1631 
L 4684 1100 
L 678 1100 
L 678 1631 
z
" transform="scale(0.015625)"/>
      <path id="DejaVuSans-2e" d="M 684 794 
L 1344 794 
L 1344 0 
L 684 0 
L 684 794 
z
" transform="scale(0.015625)"/>
      <path id="DejaVuSans-39" d="M 703 97 
L 703 672 
Q 941 559 1184 500 
Q 1428 441 1663 441 
Q 2288 441 2617 861 
Q 2947 1281 2994 2138 
Q 2813 1869 2534 1725 
Q 2256 1581 1919 1581 
Q 1219 1581 811 2004 
Q 403 2428 403 3163 
Q 403 3881 828 4315 
Q 1253 4750 1959 4750 
Q 2769 4750 3195 4129 
Q 3622 3509 3622 2328 
Q 3622 1225 3098 567 
Q 2575 -91 1691 -91 
Q 1453 -91 1209 -44 
Q 966 3 703 97 
z
M 1959 2075 
Q 2384 2075 2632 2365 
Q 2881 2656 2881 3163 
Q 2881 3666 2632 3958 
Q 2384 4250 1959 4250 
Q 1534 4250 1286 3958 
Q 1038 3666 1038 3163 
Q 1038 2656 1286 2365 
Q 1534 2075 1959 2075 
z
" transform="scale(0.015625)"/>
     </defs>
     <use xlink:href="#DejaVuSans-41"/>
     <use xlink:href="#DejaVuSans-52" x="68.408203"/>
     <use xlink:href="#DejaVuSans-49" x="137.890625"/>
     <use xlink:href="#DejaVuSans-4d" x="167.382812"/>
     <use xlink:href="#DejaVuSans-41" x="253.662109"/>
     <use xlink:href="#DejaVuSans-20" x="322.070312"/>
     <use xlink:href="#DejaVuSans-28" x="353.857422"/>
     <use xlink:href="#DejaVuSans-32" x="392.871094"/>
     <use xlink:href="#DejaVuSans-2c" x="456.494141"/>
     <use xlink:href="#DejaVuSans-20" x="488.28125"/>
     <use xlink:href="#DejaVuSans-31" x="520.068359"/>
     <use xlink:href="#DejaVuSans-2c" x="583.691406"/>
     <use xlink:href="#DejaVuSans-20" x="615.478516"/>
     <use xlink:href="#DejaVuSans-31" x="647.265625"/>
     <use xlink:href="#DejaVuSans-29" x="710.888672"/>
     <use xlink:href="#DejaVuSans-78" x="749.902344"/>
     <use xlink:href="#DejaVuSans-28" x="809.082031"/>
     <use xlink:href="#DejaVuSans-31" x="848.095703"/>
     <use xlink:href="#DejaVuSans-2c" x="911.71875"/>
     <use xlink:href="#DejaVuSans-20" x="943.505859"/>
     <use xlink:href="#DejaVuSans-30" x="975.292969"/>
     <use xlink:href="#DejaVuSans-2c" x="1038.916016"/>
     <use xlink:href="#DejaVuSans-20" x="1070.703125"/>
     <use xlink:href="#DejaVuSans-30" x="1102.490234"/>
     <use xlink:href="#DejaVuSans-2c" x="1166.113281"/>
     <use xlink:href="#DejaVuSans-20" x="1197.900391"/>
     <use xlink:href="#DejaVuSans-37" x="1229.6875"/>
     <use xlink:href="#DejaVuSans-29" x="1293.310547"/>
     <use xlink:href="#DejaVuSans-20" x="1332.324219"/>
     <use xlink:href="#DejaVuSans-28" x="1364.111328"/>
     <use xlink:href="#DejaVuSans-52" x="1403.125"/>
     <use xlink:href="#DejaVuSans-32" x="1472.607422"/>
     <use xlink:href="#DejaVuSans-20" x="1536.230469"/>
     <use xlink:href="#DejaVuSans-3d" x="1568.017578"/>
     <use xlink:href="#DejaVuSans-20" x="1651.806641"/>
     <use xlink:href="#DejaVuSans-2d" x="1683.59375"/>
     <use xlink:href="#DejaVuSans-30" x="1719.677734"/>
     <use xlink:href="#DejaVuSans-2e" x="1783.300781"/>
     <use xlink:href="#DejaVuSans-35" x="1815.087891"/>
     <use xlink:href="#DejaVuSans-34" x="1878.710938"/>
     <use xlink:href="#DejaVuSans-35" x="1942.333984"/>
     <use xlink:href="#DejaVuSans-39" x="2005.957031"/>
     <use xlink:href="#DejaVuSans-32" x="2069.580078"/>
     <use xlink:href="#DejaVuSans-32" x="2133.203125"/>
     <use xlink:href="#DejaVuSans-29" x="2196.826172"/>
    </g>
   </g>
   <g id="legend_1">
    <g id="patch_7">
     <path d="M 1281.132812 87.789875 
L 1378.2125 87.789875 
Q 1380.2125 87.789875 1380.2125 85.789875 
L 1380.2125 42.7555 
Q 1380.2125 40.7555 1378.2125 40.7555 
L 1281.132812 40.7555 
Q 1279.132812 40.7555 1279.132812 42.7555 
L 1279.132812 85.789875 
Q 1279.132812 87.789875 1281.132812 87.789875 
z
" style="fill: #ffffff; opacity: 0.8; stroke: #cccccc; stroke-linejoin: miter"/>
    </g>
    <g id="line2d_22">
     <path d="M 1283.132812 48.853937 
L 1293.132812 48.853937 
L 1303.132812 48.853937 
" style="fill: none; stroke: #0000ff; stroke-width: 1.5; stroke-linecap: square"/>
    </g>
    <g id="text_20">
     <!-- Actual Value -->
     <g transform="translate(1311.132812 52.353937)scale(0.1 -0.1)">
      <defs>
       <path id="DejaVuSans-75" d="M 544 1381 
L 544 3500 
L 1119 3500 
L 1119 1403 
Q 1119 906 1312 657 
Q 1506 409 1894 409 
Q 2359 409 2629 706 
Q 2900 1003 2900 1516 
L 2900 3500 
L 3475 3500 
L 3475 0 
L 2900 0 
L 2900 538 
Q 2691 219 2414 64 
Q 2138 -91 1772 -91 
Q 1169 -91 856 284 
Q 544 659 544 1381 
z
M 1991 3584 
L 1991 3584 
z
" transform="scale(0.015625)"/>
      </defs>
      <use xlink:href="#DejaVuSans-41"/>
      <use xlink:href="#DejaVuSans-63" x="66.658203"/>
      <use xlink:href="#DejaVuSans-74" x="121.638672"/>
      <use xlink:href="#DejaVuSans-75" x="160.847656"/>
      <use xlink:href="#DejaVuSans-61" x="224.226562"/>
      <use xlink:href="#DejaVuSans-6c" x="285.505859"/>
      <use xlink:href="#DejaVuSans-20" x="313.289062"/>
      <use xlink:href="#DejaVuSans-56" x="345.076172"/>
      <use xlink:href="#DejaVuSans-61" x="405.734375"/>
      <use xlink:href="#DejaVuSans-6c" x="467.013672"/>
      <use xlink:href="#DejaVuSans-75" x="494.796875"/>
      <use xlink:href="#DejaVuSans-65" x="558.175781"/>
     </g>
    </g>
    <g id="line2d_23">
     <path d="M 1283.132812 63.532062 
L 1293.132812 63.532062 
L 1303.132812 63.532062 
" style="fill: none; stroke: #ffa500; stroke-width: 1.5; stroke-linecap: square"/>
    </g>
    <g id="text_21">
     <!-- Check Value -->
     <g transform="translate(1311.132812 67.032062)scale(0.1 -0.1)">
      <defs>
       <path id="DejaVuSans-68" d="M 3513 2113 
L 3513 0 
L 2938 0 
L 2938 2094 
Q 2938 2591 2744 2837 
Q 2550 3084 2163 3084 
Q 1697 3084 1428 2787 
Q 1159 2491 1159 1978 
L 1159 0 
L 581 0 
L 581 4863 
L 1159 4863 
L 1159 2956 
Q 1366 3272 1645 3428 
Q 1925 3584 2291 3584 
Q 2894 3584 3203 3211 
Q 3513 2838 3513 2113 
z
" transform="scale(0.015625)"/>
       <path id="DejaVuSans-6b" d="M 581 4863 
L 1159 4863 
L 1159 1991 
L 2875 3500 
L 3609 3500 
L 1753 1863 
L 3688 0 
L 2938 0 
L 1159 1709 
L 1159 0 
L 581 0 
L 581 4863 
z
" transform="scale(0.015625)"/>
      </defs>
      <use xlink:href="#DejaVuSans-43"/>
      <use xlink:href="#DejaVuSans-68" x="69.824219"/>
      <use xlink:href="#DejaVuSans-65" x="133.203125"/>
      <use xlink:href="#DejaVuSans-63" x="194.726562"/>
      <use xlink:href="#DejaVuSans-6b" x="249.707031"/>
      <use xlink:href="#DejaVuSans-20" x="307.617188"/>
      <use xlink:href="#DejaVuSans-56" x="339.404297"/>
      <use xlink:href="#DejaVuSans-61" x="400.0625"/>
      <use xlink:href="#DejaVuSans-6c" x="461.341797"/>
      <use xlink:href="#DejaVuSans-75" x="489.125"/>
      <use xlink:href="#DejaVuSans-65" x="552.503906"/>
     </g>
    </g>
    <g id="line2d_24">
     <path d="M 1283.132812 78.210187 
L 1293.132812 78.210187 
L 1303.132812 78.210187 
" style="fill: none; stroke: #ff0000; stroke-width: 1.5; stroke-linecap: square"/>
    </g>
    <g id="text_22">
     <!-- Predict Value -->
     <g transform="translate(1311.132812 81.710187)scale(0.1 -0.1)">
      <defs>
       <path id="DejaVuSans-50" d="M 1259 4147 
L 1259 2394 
L 2053 2394 
Q 2494 2394 2734 2622 
Q 2975 2850 2975 3272 
Q 2975 3691 2734 3919 
Q 2494 4147 2053 4147 
L 1259 4147 
z
M 628 4666 
L 2053 4666 
Q 2838 4666 3239 4311 
Q 3641 3956 3641 3272 
Q 3641 2581 3239 2228 
Q 2838 1875 2053 1875 
L 1259 1875 
L 1259 0 
L 628 0 
L 628 4666 
z
" transform="scale(0.015625)"/>
      </defs>
      <use xlink:href="#DejaVuSans-50"/>
      <use xlink:href="#DejaVuSans-72" x="58.552734"/>
      <use xlink:href="#DejaVuSans-65" x="97.416016"/>
      <use xlink:href="#DejaVuSans-64" x="158.939453"/>
      <use xlink:href="#DejaVuSans-69" x="222.416016"/>
      <use xlink:href="#DejaVuSans-63" x="250.199219"/>
      <use xlink:href="#DejaVuSans-74" x="305.179688"/>
      <use xlink:href="#DejaVuSans-20" x="344.388672"/>
      <use xlink:href="#DejaVuSans-56" x="376.175781"/>
      <use xlink:href="#DejaVuSans-61" x="436.833984"/>
      <use xlink:href="#DejaVuSans-6c" x="498.113281"/>
      <use xlink:href="#DejaVuSans-75" x="525.896484"/>
      <use xlink:href="#DejaVuSans-65" x="589.275391"/>
     </g>
    </g>
   </g>
  </g>
 </g>
 <defs>
  <clipPath id="p2534b8a817">
   <rect x="46.0125" y="35.7555" width="1339.2" height="332.64"/>
  </clipPath>
 </defs>
</svg>
