<?xml version="1.0" encoding="utf-8" standalone="no"?>
<!DOCTYPE svg PUBLIC "-//W3C//DTD SVG 1.1//EN"
  "http://www.w3.org/Graphics/SVG/1.1/DTD/svg11.dtd">
<svg xmlns:xlink="http://www.w3.org/1999/xlink" width="1398.775pt" height="392.273625pt" viewBox="0 0 1398.775 392.273625" xmlns="http://www.w3.org/2000/svg" version="1.1">
 <metadata>
  <rdf:RDF xmlns:dc="http://purl.org/dc/elements/1.1/" xmlns:cc="http://creativecommons.org/ns#" xmlns:rdf="http://www.w3.org/1999/02/22-rdf-syntax-ns#">
   <cc:Work>
    <dc:type rdf:resource="http://purl.org/dc/dcmitype/StillImage"/>
    <dc:date>2022-06-28T17:43:22.018749</dc:date>
    <dc:format>image/svg+xml</dc:format>
    <dc:creator>
     <cc:Agent>
      <dc:title>Matplotlib v3.5.2, https://matplotlib.org/</dc:title>
     </cc:Agent>
    </dc:creator>
   </cc:Work>
  </rdf:RDF>
 </metadata>
 <defs>
  <style type="text/css">*{stroke-linejoin: round; stroke-linecap: butt}</style>
 </defs>
 <g id="figure_1">
  <g id="patch_1">
   <path d="M 0 392.273625 
L 1398.775 392.273625 
L 1398.775 0 
L 0 0 
z
" style="fill: #ffffff"/>
  </g>
  <g id="axes_1">
   <g id="patch_2">
    <path d="M 52.375 368.3955 
L 1391.575 368.3955 
L 1391.575 35.7555 
L 52.375 35.7555 
z
" style="fill: #ffffff"/>
   </g>
   <g id="matplotlib.axis_1">
    <g id="xtick_1">
     <g id="line2d_1">
      <defs>
       <path id="m0eae996711" d="M 0 0 
L 0 3.5 
" style="stroke: #000000; stroke-width: 0.8"/>
      </defs>
      <g>
       <use xlink:href="#m0eae996711" x="83.454624" y="368.3955" style="stroke: #000000; stroke-width: 0.8"/>
      </g>
     </g>
     <g id="text_1">
      <!-- 2020-01 -->
      <g transform="translate(62.563218 382.993937)scale(0.1 -0.1)">
       <defs>
        <path id="DejaVuSans-32" d="M 1228 531 
L 3431 531 
L 3431 0 
L 469 0 
L 469 531 
Q 828 903 1448 1529 
Q 2069 2156 2228 2338 
Q 2531 2678 2651 2914 
Q 2772 3150 2772 3378 
Q 2772 3750 2511 3984 
Q 2250 4219 1831 4219 
Q 1534 4219 1204 4116 
Q 875 4013 500 3803 
L 500 4441 
Q 881 4594 1212 4672 
Q 1544 4750 1819 4750 
Q 2544 4750 2975 4387 
Q 3406 4025 3406 3419 
Q 3406 3131 3298 2873 
Q 3191 2616 2906 2266 
Q 2828 2175 2409 1742 
Q 1991 1309 1228 531 
z
" transform="scale(0.015625)"/>
        <path id="DejaVuSans-30" d="M 2034 4250 
Q 1547 4250 1301 3770 
Q 1056 3291 1056 2328 
Q 1056 1369 1301 889 
Q 1547 409 2034 409 
Q 2525 409 2770 889 
Q 3016 1369 3016 2328 
Q 3016 3291 2770 3770 
Q 2525 4250 2034 4250 
z
M 2034 4750 
Q 2819 4750 3233 4129 
Q 3647 3509 3647 2328 
Q 3647 1150 3233 529 
Q 2819 -91 2034 -91 
Q 1250 -91 836 529 
Q 422 1150 422 2328 
Q 422 3509 836 4129 
Q 1250 4750 2034 4750 
z
" transform="scale(0.015625)"/>
        <path id="DejaVuSans-2d" d="M 313 2009 
L 1997 2009 
L 1997 1497 
L 313 1497 
L 313 2009 
z
" transform="scale(0.015625)"/>
        <path id="DejaVuSans-31" d="M 794 531 
L 1825 531 
L 1825 4091 
L 703 3866 
L 703 4441 
L 1819 4666 
L 2450 4666 
L 2450 531 
L 3481 531 
L 3481 0 
L 794 0 
L 794 531 
z
" transform="scale(0.015625)"/>
       </defs>
       <use xlink:href="#DejaVuSans-32"/>
       <use xlink:href="#DejaVuSans-30" x="63.623047"/>
       <use xlink:href="#DejaVuSans-32" x="127.246094"/>
       <use xlink:href="#DejaVuSans-30" x="190.869141"/>
       <use xlink:href="#DejaVuSans-2d" x="254.492188"/>
       <use xlink:href="#DejaVuSans-30" x="290.576172"/>
       <use xlink:href="#DejaVuSans-31" x="354.199219"/>
      </g>
     </g>
    </g>
    <g id="xtick_2">
     <g id="line2d_2">
      <g>
       <use xlink:href="#m0eae996711" x="206.689734" y="368.3955" style="stroke: #000000; stroke-width: 0.8"/>
      </g>
     </g>
     <g id="text_2">
      <!-- 2020-04 -->
      <g transform="translate(185.798327 382.993937)scale(0.1 -0.1)">
       <defs>
        <path id="DejaVuSans-34" d="M 2419 4116 
L 825 1625 
L 2419 1625 
L 2419 4116 
z
M 2253 4666 
L 3047 4666 
L 3047 1625 
L 3713 1625 
L 3713 1100 
L 3047 1100 
L 3047 0 
L 2419 0 
L 2419 1100 
L 313 1100 
L 313 1709 
L 2253 4666 
z
" transform="scale(0.015625)"/>
       </defs>
       <use xlink:href="#DejaVuSans-32"/>
       <use xlink:href="#DejaVuSans-30" x="63.623047"/>
       <use xlink:href="#DejaVuSans-32" x="127.246094"/>
       <use xlink:href="#DejaVuSans-30" x="190.869141"/>
       <use xlink:href="#DejaVuSans-2d" x="254.492188"/>
       <use xlink:href="#DejaVuSans-30" x="290.576172"/>
       <use xlink:href="#DejaVuSans-34" x="354.199219"/>
      </g>
     </g>
    </g>
    <g id="xtick_3">
     <g id="line2d_3">
      <g>
       <use xlink:href="#m0eae996711" x="329.924843" y="368.3955" style="stroke: #000000; stroke-width: 0.8"/>
      </g>
     </g>
     <g id="text_3">
      <!-- 2020-07 -->
      <g transform="translate(309.033437 382.993937)scale(0.1 -0.1)">
       <defs>
        <path id="DejaVuSans-37" d="M 525 4666 
L 3525 4666 
L 3525 4397 
L 1831 0 
L 1172 0 
L 2766 4134 
L 525 4134 
L 525 4666 
z
" transform="scale(0.015625)"/>
       </defs>
       <use xlink:href="#DejaVuSans-32"/>
       <use xlink:href="#DejaVuSans-30" x="63.623047"/>
       <use xlink:href="#DejaVuSans-32" x="127.246094"/>
       <use xlink:href="#DejaVuSans-30" x="190.869141"/>
       <use xlink:href="#DejaVuSans-2d" x="254.492188"/>
       <use xlink:href="#DejaVuSans-30" x="290.576172"/>
       <use xlink:href="#DejaVuSans-37" x="354.199219"/>
      </g>
     </g>
    </g>
    <g id="xtick_4">
     <g id="line2d_4">
      <g>
       <use xlink:href="#m0eae996711" x="454.514185" y="368.3955" style="stroke: #000000; stroke-width: 0.8"/>
      </g>
     </g>
     <g id="text_4">
      <!-- 2020-10 -->
      <g transform="translate(433.622779 382.993937)scale(0.1 -0.1)">
       <use xlink:href="#DejaVuSans-32"/>
       <use xlink:href="#DejaVuSans-30" x="63.623047"/>
       <use xlink:href="#DejaVuSans-32" x="127.246094"/>
       <use xlink:href="#DejaVuSans-30" x="190.869141"/>
       <use xlink:href="#DejaVuSans-2d" x="254.492188"/>
       <use xlink:href="#DejaVuSans-31" x="290.576172"/>
       <use xlink:href="#DejaVuSans-30" x="354.199219"/>
      </g>
     </g>
    </g>
    <g id="xtick_5">
     <g id="line2d_5">
      <g>
       <use xlink:href="#m0eae996711" x="579.103527" y="368.3955" style="stroke: #000000; stroke-width: 0.8"/>
      </g>
     </g>
     <g id="text_5">
      <!-- 2021-01 -->
      <g transform="translate(558.21212 382.993937)scale(0.1 -0.1)">
       <use xlink:href="#DejaVuSans-32"/>
       <use xlink:href="#DejaVuSans-30" x="63.623047"/>
       <use xlink:href="#DejaVuSans-32" x="127.246094"/>
       <use xlink:href="#DejaVuSans-31" x="190.869141"/>
       <use xlink:href="#DejaVuSans-2d" x="254.492188"/>
       <use xlink:href="#DejaVuSans-30" x="290.576172"/>
       <use xlink:href="#DejaVuSans-31" x="354.199219"/>
      </g>
     </g>
    </g>
    <g id="xtick_6">
     <g id="line2d_6">
      <g>
       <use xlink:href="#m0eae996711" x="700.984404" y="368.3955" style="stroke: #000000; stroke-width: 0.8"/>
      </g>
     </g>
     <g id="text_6">
      <!-- 2021-04 -->
      <g transform="translate(680.092998 382.993937)scale(0.1 -0.1)">
       <use xlink:href="#DejaVuSans-32"/>
       <use xlink:href="#DejaVuSans-30" x="63.623047"/>
       <use xlink:href="#DejaVuSans-32" x="127.246094"/>
       <use xlink:href="#DejaVuSans-31" x="190.869141"/>
       <use xlink:href="#DejaVuSans-2d" x="254.492188"/>
       <use xlink:href="#DejaVuSans-30" x="290.576172"/>
       <use xlink:href="#DejaVuSans-34" x="354.199219"/>
      </g>
     </g>
    </g>
    <g id="xtick_7">
     <g id="line2d_7">
      <g>
       <use xlink:href="#m0eae996711" x="824.219514" y="368.3955" style="stroke: #000000; stroke-width: 0.8"/>
      </g>
     </g>
     <g id="text_7">
      <!-- 2021-07 -->
      <g transform="translate(803.328108 382.993937)scale(0.1 -0.1)">
       <use xlink:href="#DejaVuSans-32"/>
       <use xlink:href="#DejaVuSans-30" x="63.623047"/>
       <use xlink:href="#DejaVuSans-32" x="127.246094"/>
       <use xlink:href="#DejaVuSans-31" x="190.869141"/>
       <use xlink:href="#DejaVuSans-2d" x="254.492188"/>
       <use xlink:href="#DejaVuSans-30" x="290.576172"/>
       <use xlink:href="#DejaVuSans-37" x="354.199219"/>
      </g>
     </g>
    </g>
    <g id="xtick_8">
     <g id="line2d_8">
      <g>
       <use xlink:href="#m0eae996711" x="948.808856" y="368.3955" style="stroke: #000000; stroke-width: 0.8"/>
      </g>
     </g>
     <g id="text_8">
      <!-- 2021-10 -->
      <g transform="translate(927.91745 382.993937)scale(0.1 -0.1)">
       <use xlink:href="#DejaVuSans-32"/>
       <use xlink:href="#DejaVuSans-30" x="63.623047"/>
       <use xlink:href="#DejaVuSans-32" x="127.246094"/>
       <use xlink:href="#DejaVuSans-31" x="190.869141"/>
       <use xlink:href="#DejaVuSans-2d" x="254.492188"/>
       <use xlink:href="#DejaVuSans-31" x="290.576172"/>
       <use xlink:href="#DejaVuSans-30" x="354.199219"/>
      </g>
     </g>
    </g>
    <g id="xtick_9">
     <g id="line2d_9">
      <g>
       <use xlink:href="#m0eae996711" x="1073.398197" y="368.3955" style="stroke: #000000; stroke-width: 0.8"/>
      </g>
     </g>
     <g id="text_9">
      <!-- 2022-01 -->
      <g transform="translate(1052.506791 382.993937)scale(0.1 -0.1)">
       <use xlink:href="#DejaVuSans-32"/>
       <use xlink:href="#DejaVuSans-30" x="63.623047"/>
       <use xlink:href="#DejaVuSans-32" x="127.246094"/>
       <use xlink:href="#DejaVuSans-32" x="190.869141"/>
       <use xlink:href="#DejaVuSans-2d" x="254.492188"/>
       <use xlink:href="#DejaVuSans-30" x="290.576172"/>
       <use xlink:href="#DejaVuSans-31" x="354.199219"/>
      </g>
     </g>
    </g>
    <g id="xtick_10">
     <g id="line2d_10">
      <g>
       <use xlink:href="#m0eae996711" x="1195.279075" y="368.3955" style="stroke: #000000; stroke-width: 0.8"/>
      </g>
     </g>
     <g id="text_10">
      <!-- 2022-04 -->
      <g transform="translate(1174.387669 382.993937)scale(0.1 -0.1)">
       <use xlink:href="#DejaVuSans-32"/>
       <use xlink:href="#DejaVuSans-30" x="63.623047"/>
       <use xlink:href="#DejaVuSans-32" x="127.246094"/>
       <use xlink:href="#DejaVuSans-32" x="190.869141"/>
       <use xlink:href="#DejaVuSans-2d" x="254.492188"/>
       <use xlink:href="#DejaVuSans-30" x="290.576172"/>
       <use xlink:href="#DejaVuSans-34" x="354.199219"/>
      </g>
     </g>
    </g>
    <g id="xtick_11">
     <g id="line2d_11">
      <g>
       <use xlink:href="#m0eae996711" x="1318.514185" y="368.3955" style="stroke: #000000; stroke-width: 0.8"/>
      </g>
     </g>
     <g id="text_11">
      <!-- 2022-07 -->
      <g transform="translate(1297.622779 382.993937)scale(0.1 -0.1)">
       <use xlink:href="#DejaVuSans-32"/>
       <use xlink:href="#DejaVuSans-30" x="63.623047"/>
       <use xlink:href="#DejaVuSans-32" x="127.246094"/>
       <use xlink:href="#DejaVuSans-32" x="190.869141"/>
       <use xlink:href="#DejaVuSans-2d" x="254.492188"/>
       <use xlink:href="#DejaVuSans-30" x="290.576172"/>
       <use xlink:href="#DejaVuSans-37" x="354.199219"/>
      </g>
     </g>
    </g>
   </g>
   <g id="matplotlib.axis_2">
    <g id="ytick_1">
     <g id="line2d_12">
      <defs>
       <path id="m336abeadab" d="M 0 0 
L -3.5 0 
" style="stroke: #000000; stroke-width: 0.8"/>
      </defs>
      <g>
       <use xlink:href="#m336abeadab" x="52.375" y="327.761608" style="stroke: #000000; stroke-width: 0.8"/>
      </g>
     </g>
     <g id="text_12">
      <!-- 0 -->
      <g transform="translate(39.0125 331.560827)scale(0.1 -0.1)">
       <use xlink:href="#DejaVuSans-30"/>
      </g>
     </g>
    </g>
    <g id="ytick_2">
     <g id="line2d_13">
      <g>
       <use xlink:href="#m336abeadab" x="52.375" y="271.458196" style="stroke: #000000; stroke-width: 0.8"/>
      </g>
     </g>
     <g id="text_13">
      <!-- 20000 -->
      <g transform="translate(13.5625 275.257414)scale(0.1 -0.1)">
       <use xlink:href="#DejaVuSans-32"/>
       <use xlink:href="#DejaVuSans-30" x="63.623047"/>
       <use xlink:href="#DejaVuSans-30" x="127.246094"/>
       <use xlink:href="#DejaVuSans-30" x="190.869141"/>
       <use xlink:href="#DejaVuSans-30" x="254.492188"/>
      </g>
     </g>
    </g>
    <g id="ytick_3">
     <g id="line2d_14">
      <g>
       <use xlink:href="#m336abeadab" x="52.375" y="215.154783" style="stroke: #000000; stroke-width: 0.8"/>
      </g>
     </g>
     <g id="text_14">
      <!-- 40000 -->
      <g transform="translate(13.5625 218.954002)scale(0.1 -0.1)">
       <use xlink:href="#DejaVuSans-34"/>
       <use xlink:href="#DejaVuSans-30" x="63.623047"/>
       <use xlink:href="#DejaVuSans-30" x="127.246094"/>
       <use xlink:href="#DejaVuSans-30" x="190.869141"/>
       <use xlink:href="#DejaVuSans-30" x="254.492188"/>
      </g>
     </g>
    </g>
    <g id="ytick_4">
     <g id="line2d_15">
      <g>
       <use xlink:href="#m336abeadab" x="52.375" y="158.85137" style="stroke: #000000; stroke-width: 0.8"/>
      </g>
     </g>
     <g id="text_15">
      <!-- 60000 -->
      <g transform="translate(13.5625 162.650589)scale(0.1 -0.1)">
       <defs>
        <path id="DejaVuSans-36" d="M 2113 2584 
Q 1688 2584 1439 2293 
Q 1191 2003 1191 1497 
Q 1191 994 1439 701 
Q 1688 409 2113 409 
Q 2538 409 2786 701 
Q 3034 994 3034 1497 
Q 3034 2003 2786 2293 
Q 2538 2584 2113 2584 
z
M 3366 4563 
L 3366 3988 
Q 3128 4100 2886 4159 
Q 2644 4219 2406 4219 
Q 1781 4219 1451 3797 
Q 1122 3375 1075 2522 
Q 1259 2794 1537 2939 
Q 1816 3084 2150 3084 
Q 2853 3084 3261 2657 
Q 3669 2231 3669 1497 
Q 3669 778 3244 343 
Q 2819 -91 2113 -91 
Q 1303 -91 875 529 
Q 447 1150 447 2328 
Q 447 3434 972 4092 
Q 1497 4750 2381 4750 
Q 2619 4750 2861 4703 
Q 3103 4656 3366 4563 
z
" transform="scale(0.015625)"/>
       </defs>
       <use xlink:href="#DejaVuSans-36"/>
       <use xlink:href="#DejaVuSans-30" x="63.623047"/>
       <use xlink:href="#DejaVuSans-30" x="127.246094"/>
       <use xlink:href="#DejaVuSans-30" x="190.869141"/>
       <use xlink:href="#DejaVuSans-30" x="254.492188"/>
      </g>
     </g>
    </g>
    <g id="ytick_5">
     <g id="line2d_16">
      <g>
       <use xlink:href="#m336abeadab" x="52.375" y="102.547957" style="stroke: #000000; stroke-width: 0.8"/>
      </g>
     </g>
     <g id="text_16">
      <!-- 80000 -->
      <g transform="translate(13.5625 106.347176)scale(0.1 -0.1)">
       <defs>
        <path id="DejaVuSans-38" d="M 2034 2216 
Q 1584 2216 1326 1975 
Q 1069 1734 1069 1313 
Q 1069 891 1326 650 
Q 1584 409 2034 409 
Q 2484 409 2743 651 
Q 3003 894 3003 1313 
Q 3003 1734 2745 1975 
Q 2488 2216 2034 2216 
z
M 1403 2484 
Q 997 2584 770 2862 
Q 544 3141 544 3541 
Q 544 4100 942 4425 
Q 1341 4750 2034 4750 
Q 2731 4750 3128 4425 
Q 3525 4100 3525 3541 
Q 3525 3141 3298 2862 
Q 3072 2584 2669 2484 
Q 3125 2378 3379 2068 
Q 3634 1759 3634 1313 
Q 3634 634 3220 271 
Q 2806 -91 2034 -91 
Q 1263 -91 848 271 
Q 434 634 434 1313 
Q 434 1759 690 2068 
Q 947 2378 1403 2484 
z
M 1172 3481 
Q 1172 3119 1398 2916 
Q 1625 2713 2034 2713 
Q 2441 2713 2670 2916 
Q 2900 3119 2900 3481 
Q 2900 3844 2670 4047 
Q 2441 4250 2034 4250 
Q 1625 4250 1398 4047 
Q 1172 3844 1172 3481 
z
" transform="scale(0.015625)"/>
       </defs>
       <use xlink:href="#DejaVuSans-38"/>
       <use xlink:href="#DejaVuSans-30" x="63.623047"/>
       <use xlink:href="#DejaVuSans-30" x="127.246094"/>
       <use xlink:href="#DejaVuSans-30" x="190.869141"/>
       <use xlink:href="#DejaVuSans-30" x="254.492188"/>
      </g>
     </g>
    </g>
    <g id="ytick_6">
     <g id="line2d_17">
      <g>
       <use xlink:href="#m336abeadab" x="52.375" y="46.244544" style="stroke: #000000; stroke-width: 0.8"/>
      </g>
     </g>
     <g id="text_17">
      <!-- 100000 -->
      <g transform="translate(7.2 50.043763)scale(0.1 -0.1)">
       <use xlink:href="#DejaVuSans-31"/>
       <use xlink:href="#DejaVuSans-30" x="63.623047"/>
       <use xlink:href="#DejaVuSans-30" x="127.246094"/>
       <use xlink:href="#DejaVuSans-30" x="190.869141"/>
       <use xlink:href="#DejaVuSans-30" x="254.492188"/>
       <use xlink:href="#DejaVuSans-30" x="318.115234"/>
      </g>
     </g>
    </g>
   </g>
   <g id="line2d_18">
    <path d="M 113.247727 327.761608 
L 186.376254 327.688414 
L 189.084718 327.454755 
L 191.793182 327.330887 
L 193.147414 327.589883 
L 199.918574 326.708735 
L 201.272806 326.30335 
L 202.627038 326.812896 
L 203.98127 326.689028 
L 205.335502 325.97116 
L 206.689734 328.566747 
L 208.043966 326.261123 
L 209.398197 326.373729 
L 210.752429 326.196374 
L 212.106661 326.959285 
L 213.460893 325.689643 
L 214.815125 326.044354 
L 216.169357 325.537624 
L 217.523589 326.111918 
L 218.877821 325.106903 
L 220.232053 326.317426 
L 221.586285 327.159162 
L 222.940517 325.88952 
L 224.294749 325.751577 
L 227.003213 325.920487 
L 228.357445 326.137255 
L 229.711677 326.734071 
L 231.065909 326.984621 
L 232.420141 325.196988 
L 233.774373 325.805065 
L 236.482837 325.427832 
L 237.837069 325.608003 
L 239.191301 326.111918 
L 240.545533 326.759408 
L 241.899765 323.840076 
L 243.253997 325.81351 
L 244.608229 323.764066 
L 245.962461 324.476304 
L 247.316693 324.011801 
L 248.670925 325.97116 
L 250.025157 326.669322 
L 251.379389 325.135054 
L 252.733621 325.363083 
L 254.087853 324.093441 
L 255.442085 325.340562 
L 256.796317 323.935792 
L 258.150549 323.386833 
L 259.504781 326.655246 
L 260.859013 325.182912 
L 262.213245 322.933591 
L 263.567476 325.47569 
L 264.921708 325.833217 
L 266.27594 324.24546 
L 267.630172 323.108131 
L 268.984404 326.193558 
L 270.338636 324.310209 
L 271.692868 324.580466 
L 273.0471 324.693072 
L 274.401332 325.320856 
L 275.755564 325.425017 
L 277.109796 326.939579 
L 278.464028 326.019018 
L 279.81826 325.669937 
L 281.172492 324.555129 
L 282.526724 325.295519 
L 283.880956 324.360882 
L 285.235188 324.56639 
L 287.943652 326.261123 
L 289.297884 324.15819 
L 290.652116 322.798463 
L 292.006348 324.718409 
L 293.36058 305.220537 
L 294.714812 318.826257 
L 296.069044 324.709963 
L 297.423276 326.708735 
L 298.777508 323.795033 
L 300.13174 316.695173 
L 301.485972 318.927603 
L 302.840204 323.122207 
L 304.194436 320.523805 
L 305.548668 324.270797 
L 306.9029 324.217309 
L 308.257132 316.112432 
L 309.611364 316.205333 
L 310.965596 316.548784 
L 312.319828 319.563832 
L 313.67406 316.658575 
L 315.028292 316.951353 
L 316.382524 320.478762 
L 317.736755 317.382074 
L 319.090987 309.966915 
L 320.445219 311.185884 
L 321.799451 315.028592 
L 323.153683 302.38566 
L 324.507915 313.364826 
L 325.862147 313.148058 
L 327.216379 304.094469 
L 328.570611 307.013801 
L 329.924843 307.90058 
L 331.279075 312.151487 
L 332.633307 308.818325 
L 333.987539 316.284158 
L 335.341771 306.932161 
L 338.050235 305.057257 
L 339.404467 297.67588 
L 340.758699 299.142584 
L 342.112931 298.810394 
L 343.467163 306.33816 
L 344.821395 309.834602 
L 346.175627 297.946136 
L 347.529859 302.368769 
L 348.884091 300.341846 
L 350.238323 304.502669 
L 351.592555 310.439864 
L 352.946787 298.610516 
L 354.301019 311.551856 
L 355.655251 300.350292 
L 357.009483 299.975874 
L 358.363715 301.825441 
L 359.717947 301.791659 
L 361.072179 303.494838 
L 362.426411 312.362625 
L 363.780643 315.327 
L 365.134875 297.982733 
L 366.489107 299.50011 
L 367.843339 307.951253 
L 369.197571 303.097898 
L 370.551803 303.579293 
L 371.906034 314.524676 
L 373.260266 314.834345 
L 374.614498 314.037652 
L 375.96873 277.964055 
L 377.322962 301.504512 
L 378.677194 300.339031 
L 380.031426 305.023475 
L 381.385658 285.092067 
L 382.73989 293.900736 
L 384.094122 292.000496 
L 385.448354 294.210405 
L 386.802586 302.185783 
L 388.156818 308.601557 
L 389.51105 283.794273 
L 392.219514 319.639841 
L 393.573746 305.780756 
L 394.927978 302.318096 
L 396.28221 305.690671 
L 397.636442 314.400809 
L 398.990674 311.906567 
L 400.344906 316.529078 
L 401.699138 319.141556 
L 403.05337 318.249147 
L 404.407602 307.500825 
L 405.761834 313.975718 
L 407.116066 304.958726 
L 408.470298 311.923458 
L 409.82453 316.526262 
L 411.178762 323.665535 
L 412.532994 314.845606 
L 413.887226 317.359553 
L 415.241458 317.286359 
L 416.59569 315.287587 
L 417.949922 317.72834 
L 419.304154 316.909126 
L 420.658386 323.147544 
L 422.012618 322.601401 
L 423.36685 315.521247 
L 424.721082 317.638255 
L 426.075313 313.651973 
L 427.429545 319.462485 
L 430.138009 300.07722 
L 431.492241 315.58318 
L 432.846473 317.351107 
L 434.200705 316.385504 
L 435.554937 317.201903 
L 436.909169 312.562502 
L 438.263401 314.434591 
L 439.617633 301.051269 
L 440.971865 317.995782 
L 442.326097 317.367998 
L 445.034561 311.397022 
L 446.388793 319.479376 
L 447.743025 323.322084 
L 449.097257 324.434077 
L 450.451489 304.705361 
L 451.805721 314.713293 
L 453.159953 318.308265 
L 454.514185 316.520632 
L 455.868417 316.565675 
L 457.222649 316.886604 
L 458.576881 325.289889 
L 459.931113 317.905696 
L 461.285345 312.410483 
L 462.639577 318.454654 
L 463.993809 319.881946 
L 465.348041 318.981091 
L 466.702273 317.731155 
L 468.056505 323.679611 
L 469.410737 314.552828 
L 470.764969 315.279142 
L 472.119201 314.741444 
L 473.473433 316.475589 
L 474.827665 310.251247 
L 476.181897 322.077779 
L 477.536129 308.790174 
L 478.890361 313.249404 
L 480.244592 311.855894 
L 481.598824 315.473389 
L 482.953056 313.415499 
L 484.307288 307.278427 
L 485.66152 318.184398 
L 487.015752 320.580108 
L 488.369984 312.075478 
L 489.724216 309.516488 
L 491.078448 288.779941 
L 492.43268 307.633138 
L 493.786912 311.335088 
L 495.141144 310.800205 
L 496.495376 317.911326 
L 497.849608 309.952839 
L 499.20384 312.489308 
L 500.558072 306.526776 
L 501.912304 302.098513 
L 503.266536 308.548069 
L 504.620768 316.39958 
L 505.975 299.201702 
L 507.329232 300.392519 
L 508.683464 306.239629 
L 510.037696 298.314924 
L 511.391928 302.940249 
L 512.74616 299.542338 
L 514.100392 316.616348 
L 515.454624 302.554571 
L 516.808856 311.107059 
L 518.163088 294.449694 
L 519.51732 292.225709 
L 520.871552 286.927558 
L 522.225784 289.424615 
L 523.580016 292.81971 
L 524.934248 304.207076 
L 526.28848 272.27178 
L 528.996944 292.023017 
L 530.351176 311.85871 
L 531.705408 284.213734 
L 533.059639 278.21742 
L 534.413871 295.375885 
L 535.768103 294.427173 
L 537.122335 279.219621 
L 538.476567 290.716778 
L 539.830799 287.178109 
L 541.185031 288.425229 
L 542.539263 282.41484 
L 543.893495 295.761564 
L 545.247727 288.551912 
L 546.601959 290.992665 
L 547.956191 288.1972 
L 549.310423 283.709818 
L 550.664655 282.41484 
L 552.018887 288.633552 
L 553.373119 288.180309 
L 554.727351 266.441562 
L 556.081583 265.262005 
L 557.435815 277.330642 
L 558.790047 273.510455 
L 560.144279 275.101026 
L 561.498511 298.193871 
L 562.852743 277.378499 
L 564.206975 259.496536 
L 565.561207 262.049895 
L 568.269671 283.284728 
L 569.623903 284.576891 
L 570.978135 289.92853 
L 572.332367 300.628994 
L 573.686599 283.859022 
L 575.040831 254.344773 
L 576.395063 274.236769 
L 577.749295 125.804082 
L 579.103527 281.84336 
L 580.457759 314.352951 
L 581.811991 282.451437 
L 583.166223 276.576176 
L 584.520455 238.717761 
L 585.874687 260.169361 
L 587.228918 258.570344 
L 588.58315 261.548795 
L 589.937382 262.196284 
L 591.291614 283.127078 
L 592.645846 286.001367 
L 594.000078 254.420783 
L 595.35431 254.336328 
L 596.708542 259.282583 
L 598.062774 251.177706 
L 599.417006 258.347946 
L 600.771238 281.58718 
L 602.12547 295.133781 
L 603.479702 301.085051 
L 604.833934 239.77345 
L 606.188166 264.814393 
L 607.542398 264.009254 
L 608.89663 278.011913 
L 610.250862 295.20416 
L 611.605094 309.972545 
L 612.959326 253.795815 
L 614.313558 272.547667 
L 615.66779 276.469199 
L 617.022022 274.059413 
L 618.376254 273.952437 
L 619.730486 295.415298 
L 621.084718 238.208215 
L 622.43895 262.880371 
L 623.793182 278.158302 
L 625.147414 284.737356 
L 626.501646 286.96134 
L 627.855878 288.639182 
L 629.21011 308.170836 
L 630.564342 306.690056 
L 631.918574 290.238199 
L 633.272806 291.454353 
L 634.627038 294.28923 
L 635.98127 292.566345 
L 637.335502 296.000853 
L 638.689734 308.24403 
L 640.043966 316.81341 
L 641.398197 318.336417 
L 642.752429 317.159676 
L 644.106661 318.947309 
L 645.460893 319.493452 
L 646.815125 309.502412 
L 648.169357 315.138383 
L 649.523589 309.843047 
L 650.877821 294.517258 
L 652.232053 306.599971 
L 653.586285 307.033507 
L 654.940517 305.350035 
L 656.294749 296.532921 
L 657.648981 317.021732 
L 659.003213 317.004841 
L 660.357445 305.952482 
L 661.711677 305.741344 
L 663.065909 305.161419 
L 664.420141 308.469244 
L 665.774373 312.081108 
L 667.128605 319.44841 
L 668.482837 320.456241 
L 669.837069 312.804607 
L 671.191301 314.071434 
L 672.545533 314.375472 
L 673.899765 309.448923 
L 675.253997 313.950381 
L 676.608229 320.36334 
L 677.962461 320.039595 
L 679.316693 313.494324 
L 680.670925 313.471802 
L 682.025157 314.977919 
L 683.379389 317.700189 
L 684.733621 317.080851 
L 686.087853 322.18194 
L 687.442085 320.633596 
L 688.796317 314.825899 
L 690.150549 315.532507 
L 691.504781 318.657347 
L 692.859013 312.052956 
L 694.213245 315.884404 
L 695.567476 320.962971 
L 696.921708 317.657961 
L 698.27594 318.924788 
L 699.630172 315.101786 
L 700.984404 318.367384 
L 702.338636 317.857838 
L 703.692868 323.116577 
L 705.0471 322.936406 
L 706.401332 325.06186 
L 707.755564 311.515259 
L 709.109796 314.969473 
L 710.464028 314.533122 
L 711.81826 318.184398 
L 713.172492 318.758693 
L 714.526724 322.773126 
L 715.880956 323.088425 
L 717.235188 307.275612 
L 718.58942 318.128095 
L 719.943652 318.539109 
L 721.297884 317.981706 
L 724.006348 322.401524 
L 725.36058 324.386219 
L 726.714812 310.71012 
L 728.069044 314.09114 
L 729.423276 318.356123 
L 730.777508 317.987336 
L 733.485972 323.800663 
L 734.840204 322.362111 
L 736.194436 311.974132 
L 737.548668 315.743645 
L 738.9029 317.705819 
L 741.611364 317.947924 
L 742.965596 324.08218 
L 744.319828 323.423431 
L 745.67406 316.070205 
L 747.028292 320.712421 
L 748.382524 321.117806 
L 749.736755 319.524419 
L 753.799451 325.641785 
L 755.153683 316.596642 
L 756.507915 321.100915 
L 757.862147 320.870071 
L 759.216379 320.405568 
L 760.570611 322.179125 
L 761.924843 325.931748 
L 763.279075 326.354023 
L 764.633307 316.284158 
L 765.987539 322.08904 
L 767.341771 322.404339 
L 768.696003 323.322084 
L 770.050235 323.952683 
L 771.404467 325.599557 
L 772.758699 325.827586 
L 774.112931 316.602272 
L 775.467163 321.621721 
L 776.821395 324.132854 
L 778.175627 322.041182 
L 779.529859 324.718409 
L 780.884091 326.680583 
L 782.238323 327.356224 
L 783.592555 327.313996 
L 784.946787 322.145343 
L 786.301019 322.519761 
L 787.655251 319.986107 
L 789.009483 322.190386 
L 790.363715 325.968345 
L 791.717947 326.339947 
L 793.072179 322.716823 
L 794.426411 309.482705 
L 795.780643 320.794061 
L 797.134875 323.643014 
L 798.489107 324.755006 
L 799.843339 326.860754 
L 801.197571 326.703104 
L 802.551803 324.08218 
L 803.906034 323.727469 
L 805.260266 322.787202 
L 806.614498 325.132239 
L 807.96873 322.120007 
L 809.322962 326.280829 
L 810.677194 327.519504 
L 812.031426 322.714008 
L 813.385658 325.850108 
L 814.73989 321.455626 
L 816.094122 323.037752 
L 817.448354 322.567619 
L 818.802586 326.866384 
L 820.156818 327.246432 
L 821.51105 321.219152 
L 822.865282 323.229184 
L 824.219514 321.438735 
L 825.573746 322.381817 
L 826.927978 323.713393 
L 828.28221 326.582052 
L 829.636442 326.787559 
L 830.990674 324.940807 
L 832.344906 322.564803 
L 833.699138 316.379874 
L 835.05337 321.013644 
L 836.407602 321.230413 
L 837.761834 326.072506 
L 839.116066 326.249862 
L 840.470298 317.480605 
L 841.82453 318.961385 
L 843.178762 314.020761 
L 845.887226 317.522833 
L 847.241458 321.720252 
L 848.59569 324.785973 
L 849.949922 315.270696 
L 851.304154 313.119906 
L 852.658386 303.565217 
L 854.012618 306.546483 
L 855.36685 309.170222 
L 856.721082 321.123436 
L 858.075313 323.25452 
L 859.429545 303.432904 
L 860.783777 291.16439 
L 862.138009 304.508299 
L 863.492241 282.079834 
L 864.846473 291.457168 
L 866.200705 320.996753 
L 867.554937 315.439607 
L 868.909169 286.769909 
L 870.263401 273.327469 
L 871.617633 289.1065 
L 872.971865 273.955252 
L 874.326097 271.232982 
L 875.680329 311.484292 
L 877.034561 320.867256 
L 878.388793 278.259648 
L 879.743025 276.615588 
L 881.097257 285.010427 
L 882.451489 289.162804 
L 883.805721 252.818951 
L 885.159953 313.201546 
L 886.514185 311.335088 
L 887.868417 259.521872 
L 889.222649 255.884672 
L 890.576881 287.645427 
L 891.931113 279.123905 
L 893.285345 244.336842 
L 894.639577 315.25662 
L 895.993809 311.571562 
L 897.348041 268.451593 
L 898.702273 259.15027 
L 900.056505 279.109829 
L 901.410737 278.814237 
L 902.764969 280.489263 
L 904.119201 317.455269 
L 905.473433 299.860452 
L 906.827665 246.828268 
L 908.181897 266.295173 
L 909.536129 264.791872 
L 910.890361 251.743556 
L 913.598824 306.363496 
L 914.953056 315.847806 
L 916.307288 307.692257 
L 917.66152 227.057324 
L 919.015752 243.390944 
L 920.369984 261.340472 
L 921.724216 290.297318 
L 923.078448 315.259436 
L 924.43268 299.077835 
L 925.786912 260.163731 
L 927.141144 256.580019 
L 928.495376 273.645583 
L 929.849608 275.32061 
L 931.20384 285.601613 
L 932.558072 320.661748 
L 933.912304 312.829943 
L 935.266536 288.968557 
L 936.620768 273.83983 
L 937.975 292.543824 
L 939.329232 288.757419 
L 940.683464 292.740886 
L 942.037696 312.94255 
L 943.391928 311.112689 
L 944.74616 284.928787 
L 946.100392 292.065245 
L 947.454624 296.760949 
L 948.808856 297.039651 
L 950.163088 305.549912 
L 951.51732 319.642656 
L 952.871552 319.3724 
L 954.225784 298.906109 
L 955.580016 290.00454 
L 956.934248 302.740372 
L 958.28848 302.495452 
L 959.642712 311.062016 
L 960.996944 322.725268 
L 962.351176 320.245103 
L 963.705408 299.987135 
L 965.059639 300.789459 
L 966.413871 309.885275 
L 967.768103 308.508656 
L 969.122335 311.180253 
L 970.476567 325.774098 
L 971.830799 321.357095 
L 973.185031 307.306579 
L 974.539263 311.264709 
L 975.893495 314.566904 
L 977.247727 312.323213 
L 978.601959 315.875958 
L 979.956191 323.229184 
L 981.310423 322.440936 
L 982.664655 310.093598 
L 984.018887 313.812438 
L 985.373119 314.907539 
L 986.727351 312.545611 
L 988.081583 315.546583 
L 989.435815 325.709349 
L 990.790047 324.338361 
L 992.144279 313.950381 
L 993.498511 314.122107 
L 994.852743 318.342048 
L 996.206975 317.846577 
L 997.561207 319.324542 
L 998.915439 324.366513 
L 1000.269671 323.257335 
L 1001.623903 314.068618 
L 1002.978135 315.186241 
L 1004.332367 316.743031 
L 1005.686599 319.434334 
L 1007.040831 316.692358 
L 1008.395063 326.033094 
L 1009.749295 323.865412 
L 1011.103527 315.487464 
L 1012.457759 313.905339 
L 1013.811991 314.282571 
L 1015.166223 315.177796 
L 1017.874687 324.926732 
L 1019.228918 322.114376 
L 1020.58315 317.438378 
L 1021.937382 315.33826 
L 1023.291614 314.927246 
L 1024.645846 325.920487 
L 1026.000078 326.185113 
L 1027.35431 326.748147 
L 1028.708542 318.972646 
L 1030.062774 309.629094 
L 1031.417006 317.570691 
L 1032.771238 313.491508 
L 1034.12547 314.558458 
L 1035.479702 304.829228 
L 1036.833934 313.035451 
L 1038.188166 316.855637 
L 1039.542398 313.812438 
L 1040.89663 316.926017 
L 1042.250862 316.216594 
L 1043.605094 313.637897 
L 1044.959326 314.519046 
L 1046.313558 320.470317 
L 1047.66779 315.83373 
L 1049.022022 314.696402 
L 1050.376254 313.837774 
L 1051.730486 311.616605 
L 1053.084718 310.895921 
L 1054.43895 305.062888 
L 1055.793182 306.858966 
L 1057.147414 297.887018 
L 1059.855878 299.269266 
L 1061.21011 292.63954 
L 1062.564342 288.993894 
L 1063.918574 284.588152 
L 1065.272806 292.40588 
L 1066.627038 278.971886 
L 1067.98127 286.111159 
L 1069.335502 287.544081 
L 1070.689734 283.844946 
L 1072.043966 283.388889 
L 1073.398197 180.795625 
L 1074.752429 172.195279 
L 1076.106661 156.388096 
L 1077.460893 177.000775 
L 1078.815125 189.973081 
L 1080.169357 201.17183 
L 1081.523589 175.002004 
L 1082.877821 175.877522 
L 1084.232053 207.297642 
L 1085.586285 194.781393 
L 1086.940517 168.256855 
L 1088.294749 114.323816 
L 1089.648981 118.056732 
L 1091.003213 164.836423 
L 1092.357445 131.358413 
L 1093.711677 186.577986 
L 1095.065909 135.575539 
L 1096.420141 175.874707 
L 1097.774373 169.97974 
L 1099.128605 197.095463 
L 1100.482837 50.8755 
L 1101.837069 157.739378 
L 1103.191301 167.555878 
L 1104.545533 209.566669 
L 1105.899765 197.346013 
L 1107.253997 236.730251 
L 1108.608229 218.944002 
L 1109.962461 213.088448 
L 1111.316693 219.214259 
L 1112.670925 261.971071 
L 1114.025157 232.451191 
L 1115.379389 210.377438 
L 1116.733621 246.273679 
L 1118.087853 242.644924 
L 1119.442085 265.366166 
L 1120.796317 275.711918 
L 1122.150549 280.1993 
L 1123.504781 272.865781 
L 1124.859013 285.007612 
L 1126.213245 284.371383 
L 1127.567476 279.205545 
L 1130.27594 295.730597 
L 1131.630172 305.589324 
L 1132.984404 305.527391 
L 1134.338636 294.691799 
L 1135.692868 304.18737 
L 1137.0471 300.347477 
L 1138.401332 294.787515 
L 1139.755564 304.747588 
L 1141.109796 323.088425 
L 1142.464028 313.998239 
L 1143.81826 308.832401 
L 1145.172492 312.128966 
L 1146.526724 309.584052 
L 1147.880956 308.418571 
L 1149.235188 314.642913 
L 1150.58942 325.109718 
L 1151.943652 316.579751 
L 1153.297884 313.136797 
L 1154.652116 316.247561 
L 1156.006348 315.811209 
L 1157.36058 316.337646 
L 1158.714812 316.450253 
L 1160.069044 326.190743 
L 1161.423276 317.404596 
L 1162.777508 313.657604 
L 1164.13174 312.93129 
L 1165.485972 311.050756 
L 1166.840204 304.446365 
L 1168.194436 318.662977 
L 1169.548668 324.549499 
L 1170.9029 323.617677 
L 1172.257132 318.373014 
L 1173.611364 319.332988 
L 1174.965596 313.680125 
L 1177.67406 323.476919 
L 1179.028292 321.520375 
L 1180.382524 323.800663 
L 1181.736755 312.618806 
L 1183.090987 292.631094 
L 1184.445219 310.169607 
L 1185.799451 315.411455 
L 1187.153683 313.378902 
L 1188.507915 326.750962 
L 1189.862147 326.266753 
L 1191.216379 312.489308 
L 1192.570611 320.380231 
L 1193.924843 316.672651 
L 1195.279075 319.918543 
L 1196.633307 316.219409 
L 1197.987539 325.146315 
L 1199.341771 353.2755 
L 1200.696003 318.685498 
L 1202.050235 319.848164 
L 1203.404467 316.06739 
L 1204.758699 270.836043 
L 1206.112931 320.647672 
L 1207.467163 325.520733 
L 1208.821395 321.782186 
L 1210.175627 319.318912 
L 1211.529859 317.187828 
L 1212.884091 318.04927 
L 1214.238323 325.836032 
L 1215.592555 327.761608 
L 1216.946787 327.761608 
L 1218.301019 309.600943 
L 1219.655251 316.675466 
L 1221.009483 318.803735 
L 1222.363715 318.722096 
L 1223.717947 315.890034 
L 1225.072179 321.388062 
L 1226.426411 324.923916 
L 1227.780643 323.088425 
L 1229.134875 319.152817 
L 1230.489107 319.428703 
L 1231.843339 318.79529 
L 1233.197571 318.806551 
L 1234.551803 320.732127 
L 1235.906034 323.924531 
L 1237.260266 319.569462 
L 1238.614498 319.749633 
L 1239.96873 318.88256 
L 1241.322962 314.127737 
L 1242.677194 318.479991 
L 1244.031426 320.436534 
L 1245.385658 323.482549 
L 1246.73989 320.726497 
L 1248.094122 318.496882 
L 1249.448354 317.711449 
L 1250.802586 315.084895 
L 1252.156818 311.073277 
L 1253.51105 319.932619 
L 1254.865282 322.452197 
L 1256.219514 321.252934 
L 1257.573746 317.807165 
L 1258.927978 313.953196 
L 1260.28221 313.404238 
L 1261.636442 313.528106 
L 1262.990674 316.49248 
L 1264.344906 317.213164 
L 1265.699138 316.157475 
L 1267.05337 314.043282 
L 1268.407602 313.412684 
L 1269.761834 311.208405 
L 1271.116066 311.219666 
L 1272.470298 327.761608 
L 1275.178762 327.761608 
L 1276.532994 274.566144 
L 1277.887226 310.870585 
L 1279.241458 307.191157 
L 1280.59569 305.200831 
L 1283.304154 312.269724 
L 1284.658386 311.354794 
L 1286.012618 309.600943 
L 1287.36685 306.264965 
L 1288.721082 304.159218 
L 1290.075313 307.82457 
L 1291.429545 308.905596 
L 1292.783777 312.880616 
L 1294.138009 306.067904 
L 1295.492241 305.76668 
L 1296.846473 307.531792 
L 1298.200705 303.922743 
L 1299.554937 309.426402 
L 1300.909169 313.401423 
L 1302.263401 317.987336 
L 1303.617633 319.496267 
L 1304.971865 277.037864 
L 1306.326097 302.318096 
L 1307.680329 294.652387 
L 1309.034561 295.2858 
L 1310.388793 302.436333 
L 1311.743025 302.501082 
L 1313.097257 298.725938 
L 1313.097257 298.725938 
" clip-path="url(#p02387dad5c)" style="fill: none; stroke: #0000ff; stroke-width: 1.5; stroke-linecap: square"/>
   </g>
   <g id="line2d_19">
    <path d="M 1073.398197 239.893353 
L 1074.752429 213.488004 
L 1076.106661 193.044247 
L 1077.460893 191.782995 
L 1078.815125 191.746033 
L 1080.169357 196.23502 
L 1081.523589 170.158573 
L 1082.877821 175.725245 
L 1084.232053 184.927153 
L 1085.586285 189.125496 
L 1086.940517 180.750456 
L 1088.294749 152.618703 
L 1089.648981 138.410126 
L 1091.003213 142.463466 
L 1092.357445 141.346467 
L 1093.711677 157.137148 
L 1095.065909 141.682861 
L 1096.420141 152.432287 
L 1097.774373 158.916443 
L 1099.128605 178.342418 
L 1100.482837 103.630133 
L 1101.837069 149.915477 
L 1103.191301 143.704384 
L 1104.545533 176.091171 
L 1105.899765 174.978966 
L 1107.253997 205.281734 
L 1108.608229 188.111241 
L 1111.316693 218.485952 
L 1112.670925 234.293066 
L 1114.025157 231.128725 
L 1115.379389 222.983535 
L 1116.733621 236.077406 
L 1118.087853 223.168123 
L 1120.796317 270.148217 
L 1122.150549 265.903496 
L 1123.504781 265.711524 
L 1124.859013 280.182858 
L 1126.213245 280.598974 
L 1127.567476 272.058205 
L 1128.921708 284.149162 
L 1130.27594 299.069607 
L 1131.630172 295.440943 
L 1132.984404 299.501275 
L 1134.338636 301.068185 
L 1135.692868 302.104947 
L 1137.0471 296.816659 
L 1138.401332 300.996504 
L 1139.755564 312.335199 
L 1141.109796 312.873252 
L 1142.464028 311.045198 
L 1143.81826 314.629766 
L 1145.172492 312.6125 
L 1146.526724 307.484545 
L 1147.880956 313.312405 
L 1149.235188 323.518997 
L 1151.943652 316.374974 
L 1153.297884 319.172679 
L 1154.652116 317.008762 
L 1156.006348 313.629625 
L 1157.36058 319.693299 
L 1158.714812 326.661833 
L 1160.069044 322.240144 
L 1161.423276 318.268633 
L 1162.777508 320.000306 
L 1165.485972 312.305249 
L 1166.840204 312.726681 
L 1168.194436 323.929552 
L 1169.548668 319.296461 
L 1170.9029 319.263477 
L 1172.257132 320.946093 
L 1173.611364 319.297501 
L 1174.965596 314.270171 
L 1177.67406 328.651029 
L 1179.028292 321.68615 
L 1180.382524 321.024443 
L 1181.736755 319.054333 
L 1183.090987 306.164223 
L 1184.445219 308.947576 
L 1185.799451 316.033808 
L 1187.153683 318.943303 
L 1188.507915 320.366854 
L 1189.862147 319.254123 
L 1191.216379 314.198645 
L 1192.570611 318.871417 
L 1193.924843 317.285018 
L 1195.279075 321.37477 
L 1196.633307 324.181927 
L 1197.987539 323.249417 
L 1199.341771 332.564409 
L 1200.696003 323.937095 
L 1202.050235 323.333247 
L 1203.404467 320.801166 
L 1204.758699 300.197155 
L 1206.112931 318.812259 
L 1207.467163 323.57041 
L 1208.821395 313.895065 
L 1210.175627 316.634926 
L 1211.529859 316.297447 
L 1212.884091 310.76616 
L 1214.238323 325.749799 
L 1215.592555 330.035767 
L 1216.946787 330.151854 
L 1218.301019 314.501462 
L 1219.655251 317.001141 
L 1221.009483 317.890556 
L 1222.363715 314.638431 
L 1223.717947 321.529577 
L 1225.072179 324.752447 
L 1226.426411 323.327251 
L 1227.780643 319.462004 
L 1229.134875 319.540439 
L 1230.489107 319.505049 
L 1231.843339 316.195568 
L 1233.197571 322.979808 
L 1234.551803 324.783154 
L 1235.906034 323.167399 
L 1237.260266 318.27966 
L 1238.614498 319.437304 
L 1239.96873 319.012212 
L 1241.322962 314.598197 
L 1242.677194 321.138743 
L 1244.031426 323.26875 
L 1245.385658 321.743168 
L 1246.73989 318.817361 
L 1248.094122 318.766126 
L 1249.448354 317.567484 
L 1250.802586 315.502003 
L 1252.156818 317.220058 
L 1253.51105 321.275822 
L 1254.865282 320.040403 
L 1256.219514 318.342323 
L 1257.573746 317.885018 
L 1258.927978 315.183254 
L 1260.28221 313.354672 
L 1261.636442 317.504133 
L 1262.990674 319.224871 
L 1265.699138 314.724249 
L 1268.407602 312.962683 
L 1269.761834 311.239709 
L 1271.116066 314.679861 
L 1272.470298 322.375121 
L 1273.82453 322.63254 
L 1275.178762 322.551427 
L 1276.532994 299.637426 
L 1277.887226 307.59838 
L 1279.241458 306.348118 
L 1280.59569 310.625815 
L 1281.949922 311.158267 
L 1283.304154 310.957665 
L 1284.658386 302.086601 
L 1286.012618 310.260491 
L 1287.36685 306.652691 
L 1288.721082 304.928148 
L 1290.075313 310.569312 
L 1291.429545 311.049643 
L 1292.783777 311.216465 
L 1294.138009 301.82726 
L 1295.492241 307.084415 
L 1296.846473 305.852265 
L 1298.200705 304.819702 
L 1299.554937 310.248301 
L 1300.909169 312.973877 
L 1302.263401 313.411291 
L 1303.617633 310.576336 
L 1304.971865 297.275981 
L 1306.326097 300.758978 
L 1307.680329 298.680469 
L 1309.034561 300.5454 
L 1310.388793 303.613354 
L 1311.743025 302.075024 
L 1313.097257 290.708598 
L 1313.097257 290.708598 
" clip-path="url(#p02387dad5c)" style="fill: none; stroke: #ffa500; stroke-width: 1.5; stroke-linecap: square"/>
   </g>
   <g id="line2d_20">
    <path d="M 1313.097257 290.708598 
L 1314.451489 296.482543 
L 1315.805721 294.392417 
L 1317.159953 295.029255 
L 1318.514185 298.227843 
L 1319.868417 299.621452 
L 1321.222649 298.390513 
L 1322.576881 289.893267 
L 1323.931113 294.795945 
L 1325.285345 292.917375 
L 1326.639577 293.476347 
L 1327.993809 296.304983 
L 1329.348041 297.53759 
L 1330.702273 296.448766 
" clip-path="url(#p02387dad5c)" style="fill: none; stroke: #ff0000; stroke-width: 1.5; stroke-linecap: square"/>
   </g>
   <g id="patch_3">
    <path d="M 52.375 368.3955 
L 52.375 35.7555 
" style="fill: none; stroke: #000000; stroke-width: 0.8; stroke-linejoin: miter; stroke-linecap: square"/>
   </g>
   <g id="patch_4">
    <path d="M 1391.575 368.3955 
L 1391.575 35.7555 
" style="fill: none; stroke: #000000; stroke-width: 0.8; stroke-linejoin: miter; stroke-linecap: square"/>
   </g>
   <g id="patch_5">
    <path d="M 52.375 368.3955 
L 1391.575 368.3955 
" style="fill: none; stroke: #000000; stroke-width: 0.8; stroke-linejoin: miter; stroke-linecap: square"/>
   </g>
   <g id="patch_6">
    <path d="M 52.375 35.7555 
L 1391.575 35.7555 
" style="fill: none; stroke: #000000; stroke-width: 0.8; stroke-linejoin: miter; stroke-linecap: square"/>
   </g>
   <g id="text_18">
    <!-- Daily Confirmed Cases Forecasting - Texas -->
    <g transform="translate(594.889375 16.318125)scale(0.12 -0.12)">
     <defs>
      <path id="DejaVuSans-44" d="M 1259 4147 
L 1259 519 
L 2022 519 
Q 2988 519 3436 956 
Q 3884 1394 3884 2338 
Q 3884 3275 3436 3711 
Q 2988 4147 2022 4147 
L 1259 4147 
z
M 628 4666 
L 1925 4666 
Q 3281 4666 3915 4102 
Q 4550 3538 4550 2338 
Q 4550 1131 3912 565 
Q 3275 0 1925 0 
L 628 0 
L 628 4666 
z
" transform="scale(0.015625)"/>
      <path id="DejaVuSans-61" d="M 2194 1759 
Q 1497 1759 1228 1600 
Q 959 1441 959 1056 
Q 959 750 1161 570 
Q 1363 391 1709 391 
Q 2188 391 2477 730 
Q 2766 1069 2766 1631 
L 2766 1759 
L 2194 1759 
z
M 3341 1997 
L 3341 0 
L 2766 0 
L 2766 531 
Q 2569 213 2275 61 
Q 1981 -91 1556 -91 
Q 1019 -91 701 211 
Q 384 513 384 1019 
Q 384 1609 779 1909 
Q 1175 2209 1959 2209 
L 2766 2209 
L 2766 2266 
Q 2766 2663 2505 2880 
Q 2244 3097 1772 3097 
Q 1472 3097 1187 3025 
Q 903 2953 641 2809 
L 641 3341 
Q 956 3463 1253 3523 
Q 1550 3584 1831 3584 
Q 2591 3584 2966 3190 
Q 3341 2797 3341 1997 
z
" transform="scale(0.015625)"/>
      <path id="DejaVuSans-69" d="M 603 3500 
L 1178 3500 
L 1178 0 
L 603 0 
L 603 3500 
z
M 603 4863 
L 1178 4863 
L 1178 4134 
L 603 4134 
L 603 4863 
z
" transform="scale(0.015625)"/>
      <path id="DejaVuSans-6c" d="M 603 4863 
L 1178 4863 
L 1178 0 
L 603 0 
L 603 4863 
z
" transform="scale(0.015625)"/>
      <path id="DejaVuSans-79" d="M 2059 -325 
Q 1816 -950 1584 -1140 
Q 1353 -1331 966 -1331 
L 506 -1331 
L 506 -850 
L 844 -850 
Q 1081 -850 1212 -737 
Q 1344 -625 1503 -206 
L 1606 56 
L 191 3500 
L 800 3500 
L 1894 763 
L 2988 3500 
L 3597 3500 
L 2059 -325 
z
" transform="scale(0.015625)"/>
      <path id="DejaVuSans-20" transform="scale(0.015625)"/>
      <path id="DejaVuSans-43" d="M 4122 4306 
L 4122 3641 
Q 3803 3938 3442 4084 
Q 3081 4231 2675 4231 
Q 1875 4231 1450 3742 
Q 1025 3253 1025 2328 
Q 1025 1406 1450 917 
Q 1875 428 2675 428 
Q 3081 428 3442 575 
Q 3803 722 4122 1019 
L 4122 359 
Q 3791 134 3420 21 
Q 3050 -91 2638 -91 
Q 1578 -91 968 557 
Q 359 1206 359 2328 
Q 359 3453 968 4101 
Q 1578 4750 2638 4750 
Q 3056 4750 3426 4639 
Q 3797 4528 4122 4306 
z
" transform="scale(0.015625)"/>
      <path id="DejaVuSans-6f" d="M 1959 3097 
Q 1497 3097 1228 2736 
Q 959 2375 959 1747 
Q 959 1119 1226 758 
Q 1494 397 1959 397 
Q 2419 397 2687 759 
Q 2956 1122 2956 1747 
Q 2956 2369 2687 2733 
Q 2419 3097 1959 3097 
z
M 1959 3584 
Q 2709 3584 3137 3096 
Q 3566 2609 3566 1747 
Q 3566 888 3137 398 
Q 2709 -91 1959 -91 
Q 1206 -91 779 398 
Q 353 888 353 1747 
Q 353 2609 779 3096 
Q 1206 3584 1959 3584 
z
" transform="scale(0.015625)"/>
      <path id="DejaVuSans-6e" d="M 3513 2113 
L 3513 0 
L 2938 0 
L 2938 2094 
Q 2938 2591 2744 2837 
Q 2550 3084 2163 3084 
Q 1697 3084 1428 2787 
Q 1159 2491 1159 1978 
L 1159 0 
L 581 0 
L 581 3500 
L 1159 3500 
L 1159 2956 
Q 1366 3272 1645 3428 
Q 1925 3584 2291 3584 
Q 2894 3584 3203 3211 
Q 3513 2838 3513 2113 
z
" transform="scale(0.015625)"/>
      <path id="DejaVuSans-66" d="M 2375 4863 
L 2375 4384 
L 1825 4384 
Q 1516 4384 1395 4259 
Q 1275 4134 1275 3809 
L 1275 3500 
L 2222 3500 
L 2222 3053 
L 1275 3053 
L 1275 0 
L 697 0 
L 697 3053 
L 147 3053 
L 147 3500 
L 697 3500 
L 697 3744 
Q 697 4328 969 4595 
Q 1241 4863 1831 4863 
L 2375 4863 
z
" transform="scale(0.015625)"/>
      <path id="DejaVuSans-72" d="M 2631 2963 
Q 2534 3019 2420 3045 
Q 2306 3072 2169 3072 
Q 1681 3072 1420 2755 
Q 1159 2438 1159 1844 
L 1159 0 
L 581 0 
L 581 3500 
L 1159 3500 
L 1159 2956 
Q 1341 3275 1631 3429 
Q 1922 3584 2338 3584 
Q 2397 3584 2469 3576 
Q 2541 3569 2628 3553 
L 2631 2963 
z
" transform="scale(0.015625)"/>
      <path id="DejaVuSans-6d" d="M 3328 2828 
Q 3544 3216 3844 3400 
Q 4144 3584 4550 3584 
Q 5097 3584 5394 3201 
Q 5691 2819 5691 2113 
L 5691 0 
L 5113 0 
L 5113 2094 
Q 5113 2597 4934 2840 
Q 4756 3084 4391 3084 
Q 3944 3084 3684 2787 
Q 3425 2491 3425 1978 
L 3425 0 
L 2847 0 
L 2847 2094 
Q 2847 2600 2669 2842 
Q 2491 3084 2119 3084 
Q 1678 3084 1418 2786 
Q 1159 2488 1159 1978 
L 1159 0 
L 581 0 
L 581 3500 
L 1159 3500 
L 1159 2956 
Q 1356 3278 1631 3431 
Q 1906 3584 2284 3584 
Q 2666 3584 2933 3390 
Q 3200 3197 3328 2828 
z
" transform="scale(0.015625)"/>
      <path id="DejaVuSans-65" d="M 3597 1894 
L 3597 1613 
L 953 1613 
Q 991 1019 1311 708 
Q 1631 397 2203 397 
Q 2534 397 2845 478 
Q 3156 559 3463 722 
L 3463 178 
Q 3153 47 2828 -22 
Q 2503 -91 2169 -91 
Q 1331 -91 842 396 
Q 353 884 353 1716 
Q 353 2575 817 3079 
Q 1281 3584 2069 3584 
Q 2775 3584 3186 3129 
Q 3597 2675 3597 1894 
z
M 3022 2063 
Q 3016 2534 2758 2815 
Q 2500 3097 2075 3097 
Q 1594 3097 1305 2825 
Q 1016 2553 972 2059 
L 3022 2063 
z
" transform="scale(0.015625)"/>
      <path id="DejaVuSans-64" d="M 2906 2969 
L 2906 4863 
L 3481 4863 
L 3481 0 
L 2906 0 
L 2906 525 
Q 2725 213 2448 61 
Q 2172 -91 1784 -91 
Q 1150 -91 751 415 
Q 353 922 353 1747 
Q 353 2572 751 3078 
Q 1150 3584 1784 3584 
Q 2172 3584 2448 3432 
Q 2725 3281 2906 2969 
z
M 947 1747 
Q 947 1113 1208 752 
Q 1469 391 1925 391 
Q 2381 391 2643 752 
Q 2906 1113 2906 1747 
Q 2906 2381 2643 2742 
Q 2381 3103 1925 3103 
Q 1469 3103 1208 2742 
Q 947 2381 947 1747 
z
" transform="scale(0.015625)"/>
      <path id="DejaVuSans-73" d="M 2834 3397 
L 2834 2853 
Q 2591 2978 2328 3040 
Q 2066 3103 1784 3103 
Q 1356 3103 1142 2972 
Q 928 2841 928 2578 
Q 928 2378 1081 2264 
Q 1234 2150 1697 2047 
L 1894 2003 
Q 2506 1872 2764 1633 
Q 3022 1394 3022 966 
Q 3022 478 2636 193 
Q 2250 -91 1575 -91 
Q 1294 -91 989 -36 
Q 684 19 347 128 
L 347 722 
Q 666 556 975 473 
Q 1284 391 1588 391 
Q 1994 391 2212 530 
Q 2431 669 2431 922 
Q 2431 1156 2273 1281 
Q 2116 1406 1581 1522 
L 1381 1569 
Q 847 1681 609 1914 
Q 372 2147 372 2553 
Q 372 3047 722 3315 
Q 1072 3584 1716 3584 
Q 2034 3584 2315 3537 
Q 2597 3491 2834 3397 
z
" transform="scale(0.015625)"/>
      <path id="DejaVuSans-46" d="M 628 4666 
L 3309 4666 
L 3309 4134 
L 1259 4134 
L 1259 2759 
L 3109 2759 
L 3109 2228 
L 1259 2228 
L 1259 0 
L 628 0 
L 628 4666 
z
" transform="scale(0.015625)"/>
      <path id="DejaVuSans-63" d="M 3122 3366 
L 3122 2828 
Q 2878 2963 2633 3030 
Q 2388 3097 2138 3097 
Q 1578 3097 1268 2742 
Q 959 2388 959 1747 
Q 959 1106 1268 751 
Q 1578 397 2138 397 
Q 2388 397 2633 464 
Q 2878 531 3122 666 
L 3122 134 
Q 2881 22 2623 -34 
Q 2366 -91 2075 -91 
Q 1284 -91 818 406 
Q 353 903 353 1747 
Q 353 2603 823 3093 
Q 1294 3584 2113 3584 
Q 2378 3584 2631 3529 
Q 2884 3475 3122 3366 
z
" transform="scale(0.015625)"/>
      <path id="DejaVuSans-74" d="M 1172 4494 
L 1172 3500 
L 2356 3500 
L 2356 3053 
L 1172 3053 
L 1172 1153 
Q 1172 725 1289 603 
Q 1406 481 1766 481 
L 2356 481 
L 2356 0 
L 1766 0 
Q 1100 0 847 248 
Q 594 497 594 1153 
L 594 3053 
L 172 3053 
L 172 3500 
L 594 3500 
L 594 4494 
L 1172 4494 
z
" transform="scale(0.015625)"/>
      <path id="DejaVuSans-67" d="M 2906 1791 
Q 2906 2416 2648 2759 
Q 2391 3103 1925 3103 
Q 1463 3103 1205 2759 
Q 947 2416 947 1791 
Q 947 1169 1205 825 
Q 1463 481 1925 481 
Q 2391 481 2648 825 
Q 2906 1169 2906 1791 
z
M 3481 434 
Q 3481 -459 3084 -895 
Q 2688 -1331 1869 -1331 
Q 1566 -1331 1297 -1286 
Q 1028 -1241 775 -1147 
L 775 -588 
Q 1028 -725 1275 -790 
Q 1522 -856 1778 -856 
Q 2344 -856 2625 -561 
Q 2906 -266 2906 331 
L 2906 616 
Q 2728 306 2450 153 
Q 2172 0 1784 0 
Q 1141 0 747 490 
Q 353 981 353 1791 
Q 353 2603 747 3093 
Q 1141 3584 1784 3584 
Q 2172 3584 2450 3431 
Q 2728 3278 2906 2969 
L 2906 3500 
L 3481 3500 
L 3481 434 
z
" transform="scale(0.015625)"/>
      <path id="DejaVuSans-54" d="M -19 4666 
L 3928 4666 
L 3928 4134 
L 2272 4134 
L 2272 0 
L 1638 0 
L 1638 4134 
L -19 4134 
L -19 4666 
z
" transform="scale(0.015625)"/>
      <path id="DejaVuSans-78" d="M 3513 3500 
L 2247 1797 
L 3578 0 
L 2900 0 
L 1881 1375 
L 863 0 
L 184 0 
L 1544 1831 
L 300 3500 
L 978 3500 
L 1906 2253 
L 2834 3500 
L 3513 3500 
z
" transform="scale(0.015625)"/>
     </defs>
     <use xlink:href="#DejaVuSans-44"/>
     <use xlink:href="#DejaVuSans-61" x="77.001953"/>
     <use xlink:href="#DejaVuSans-69" x="138.28125"/>
     <use xlink:href="#DejaVuSans-6c" x="166.064453"/>
     <use xlink:href="#DejaVuSans-79" x="193.847656"/>
     <use xlink:href="#DejaVuSans-20" x="253.027344"/>
     <use xlink:href="#DejaVuSans-43" x="284.814453"/>
     <use xlink:href="#DejaVuSans-6f" x="354.638672"/>
     <use xlink:href="#DejaVuSans-6e" x="415.820312"/>
     <use xlink:href="#DejaVuSans-66" x="479.199219"/>
     <use xlink:href="#DejaVuSans-69" x="514.404297"/>
     <use xlink:href="#DejaVuSans-72" x="542.1875"/>
     <use xlink:href="#DejaVuSans-6d" x="581.550781"/>
     <use xlink:href="#DejaVuSans-65" x="678.962891"/>
     <use xlink:href="#DejaVuSans-64" x="740.486328"/>
     <use xlink:href="#DejaVuSans-20" x="803.962891"/>
     <use xlink:href="#DejaVuSans-43" x="835.75"/>
     <use xlink:href="#DejaVuSans-61" x="905.574219"/>
     <use xlink:href="#DejaVuSans-73" x="966.853516"/>
     <use xlink:href="#DejaVuSans-65" x="1018.953125"/>
     <use xlink:href="#DejaVuSans-73" x="1080.476562"/>
     <use xlink:href="#DejaVuSans-20" x="1132.576172"/>
     <use xlink:href="#DejaVuSans-46" x="1164.363281"/>
     <use xlink:href="#DejaVuSans-6f" x="1218.257812"/>
     <use xlink:href="#DejaVuSans-72" x="1279.439453"/>
     <use xlink:href="#DejaVuSans-65" x="1318.302734"/>
     <use xlink:href="#DejaVuSans-63" x="1379.826172"/>
     <use xlink:href="#DejaVuSans-61" x="1434.806641"/>
     <use xlink:href="#DejaVuSans-73" x="1496.085938"/>
     <use xlink:href="#DejaVuSans-74" x="1548.185547"/>
     <use xlink:href="#DejaVuSans-69" x="1587.394531"/>
     <use xlink:href="#DejaVuSans-6e" x="1615.177734"/>
     <use xlink:href="#DejaVuSans-67" x="1678.556641"/>
     <use xlink:href="#DejaVuSans-20" x="1742.033203"/>
     <use xlink:href="#DejaVuSans-2d" x="1773.820312"/>
     <use xlink:href="#DejaVuSans-20" x="1809.904297"/>
     <use xlink:href="#DejaVuSans-54" x="1841.691406"/>
     <use xlink:href="#DejaVuSans-65" x="1885.775391"/>
     <use xlink:href="#DejaVuSans-78" x="1945.548828"/>
     <use xlink:href="#DejaVuSans-61" x="2004.728516"/>
     <use xlink:href="#DejaVuSans-73" x="2066.007812"/>
    </g>
    <!-- ARIMA (1, 1, 1)x(1, 0, 1, 7) (R2 = 0.951819) -->
    <g transform="translate(589.990937 29.7555)scale(0.12 -0.12)">
     <defs>
      <path id="DejaVuSans-41" d="M 2188 4044 
L 1331 1722 
L 3047 1722 
L 2188 4044 
z
M 1831 4666 
L 2547 4666 
L 4325 0 
L 3669 0 
L 3244 1197 
L 1141 1197 
L 716 0 
L 50 0 
L 1831 4666 
z
" transform="scale(0.015625)"/>
      <path id="DejaVuSans-52" d="M 2841 2188 
Q 3044 2119 3236 1894 
Q 3428 1669 3622 1275 
L 4263 0 
L 3584 0 
L 2988 1197 
Q 2756 1666 2539 1819 
Q 2322 1972 1947 1972 
L 1259 1972 
L 1259 0 
L 628 0 
L 628 4666 
L 2053 4666 
Q 2853 4666 3247 4331 
Q 3641 3997 3641 3322 
Q 3641 2881 3436 2590 
Q 3231 2300 2841 2188 
z
M 1259 4147 
L 1259 2491 
L 2053 2491 
Q 2509 2491 2742 2702 
Q 2975 2913 2975 3322 
Q 2975 3731 2742 3939 
Q 2509 4147 2053 4147 
L 1259 4147 
z
" transform="scale(0.015625)"/>
      <path id="DejaVuSans-49" d="M 628 4666 
L 1259 4666 
L 1259 0 
L 628 0 
L 628 4666 
z
" transform="scale(0.015625)"/>
      <path id="DejaVuSans-4d" d="M 628 4666 
L 1569 4666 
L 2759 1491 
L 3956 4666 
L 4897 4666 
L 4897 0 
L 4281 0 
L 4281 4097 
L 3078 897 
L 2444 897 
L 1241 4097 
L 1241 0 
L 628 0 
L 628 4666 
z
" transform="scale(0.015625)"/>
      <path id="DejaVuSans-28" d="M 1984 4856 
Q 1566 4138 1362 3434 
Q 1159 2731 1159 2009 
Q 1159 1288 1364 580 
Q 1569 -128 1984 -844 
L 1484 -844 
Q 1016 -109 783 600 
Q 550 1309 550 2009 
Q 550 2706 781 3412 
Q 1013 4119 1484 4856 
L 1984 4856 
z
" transform="scale(0.015625)"/>
      <path id="DejaVuSans-2c" d="M 750 794 
L 1409 794 
L 1409 256 
L 897 -744 
L 494 -744 
L 750 256 
L 750 794 
z
" transform="scale(0.015625)"/>
      <path id="DejaVuSans-29" d="M 513 4856 
L 1013 4856 
Q 1481 4119 1714 3412 
Q 1947 2706 1947 2009 
Q 1947 1309 1714 600 
Q 1481 -109 1013 -844 
L 513 -844 
Q 928 -128 1133 580 
Q 1338 1288 1338 2009 
Q 1338 2731 1133 3434 
Q 928 4138 513 4856 
z
" transform="scale(0.015625)"/>
      <path id="DejaVuSans-3d" d="M 678 2906 
L 4684 2906 
L 4684 2381 
L 678 2381 
L 678 2906 
z
M 678 1631 
L 4684 1631 
L 4684 1100 
L 678 1100 
L 678 1631 
z
" transform="scale(0.015625)"/>
      <path id="DejaVuSans-2e" d="M 684 794 
L 1344 794 
L 1344 0 
L 684 0 
L 684 794 
z
" transform="scale(0.015625)"/>
      <path id="DejaVuSans-39" d="M 703 97 
L 703 672 
Q 941 559 1184 500 
Q 1428 441 1663 441 
Q 2288 441 2617 861 
Q 2947 1281 2994 2138 
Q 2813 1869 2534 1725 
Q 2256 1581 1919 1581 
Q 1219 1581 811 2004 
Q 403 2428 403 3163 
Q 403 3881 828 4315 
Q 1253 4750 1959 4750 
Q 2769 4750 3195 4129 
Q 3622 3509 3622 2328 
Q 3622 1225 3098 567 
Q 2575 -91 1691 -91 
Q 1453 -91 1209 -44 
Q 966 3 703 97 
z
M 1959 2075 
Q 2384 2075 2632 2365 
Q 2881 2656 2881 3163 
Q 2881 3666 2632 3958 
Q 2384 4250 1959 4250 
Q 1534 4250 1286 3958 
Q 1038 3666 1038 3163 
Q 1038 2656 1286 2365 
Q 1534 2075 1959 2075 
z
" transform="scale(0.015625)"/>
      <path id="DejaVuSans-35" d="M 691 4666 
L 3169 4666 
L 3169 4134 
L 1269 4134 
L 1269 2991 
Q 1406 3038 1543 3061 
Q 1681 3084 1819 3084 
Q 2600 3084 3056 2656 
Q 3513 2228 3513 1497 
Q 3513 744 3044 326 
Q 2575 -91 1722 -91 
Q 1428 -91 1123 -41 
Q 819 9 494 109 
L 494 744 
Q 775 591 1075 516 
Q 1375 441 1709 441 
Q 2250 441 2565 725 
Q 2881 1009 2881 1497 
Q 2881 1984 2565 2268 
Q 2250 2553 1709 2553 
Q 1456 2553 1204 2497 
Q 953 2441 691 2322 
L 691 4666 
z
" transform="scale(0.015625)"/>
     </defs>
     <use xlink:href="#DejaVuSans-41"/>
     <use xlink:href="#DejaVuSans-52" x="68.408203"/>
     <use xlink:href="#DejaVuSans-49" x="137.890625"/>
     <use xlink:href="#DejaVuSans-4d" x="167.382812"/>
     <use xlink:href="#DejaVuSans-41" x="253.662109"/>
     <use xlink:href="#DejaVuSans-20" x="322.070312"/>
     <use xlink:href="#DejaVuSans-28" x="353.857422"/>
     <use xlink:href="#DejaVuSans-31" x="392.871094"/>
     <use xlink:href="#DejaVuSans-2c" x="456.494141"/>
     <use xlink:href="#DejaVuSans-20" x="488.28125"/>
     <use xlink:href="#DejaVuSans-31" x="520.068359"/>
     <use xlink:href="#DejaVuSans-2c" x="583.691406"/>
     <use xlink:href="#DejaVuSans-20" x="615.478516"/>
     <use xlink:href="#DejaVuSans-31" x="647.265625"/>
     <use xlink:href="#DejaVuSans-29" x="710.888672"/>
     <use xlink:href="#DejaVuSans-78" x="749.902344"/>
     <use xlink:href="#DejaVuSans-28" x="809.082031"/>
     <use xlink:href="#DejaVuSans-31" x="848.095703"/>
     <use xlink:href="#DejaVuSans-2c" x="911.71875"/>
     <use xlink:href="#DejaVuSans-20" x="943.505859"/>
     <use xlink:href="#DejaVuSans-30" x="975.292969"/>
     <use xlink:href="#DejaVuSans-2c" x="1038.916016"/>
     <use xlink:href="#DejaVuSans-20" x="1070.703125"/>
     <use xlink:href="#DejaVuSans-31" x="1102.490234"/>
     <use xlink:href="#DejaVuSans-2c" x="1166.113281"/>
     <use xlink:href="#DejaVuSans-20" x="1197.900391"/>
     <use xlink:href="#DejaVuSans-37" x="1229.6875"/>
     <use xlink:href="#DejaVuSans-29" x="1293.310547"/>
     <use xlink:href="#DejaVuSans-20" x="1332.324219"/>
     <use xlink:href="#DejaVuSans-28" x="1364.111328"/>
     <use xlink:href="#DejaVuSans-52" x="1403.125"/>
     <use xlink:href="#DejaVuSans-32" x="1472.607422"/>
     <use xlink:href="#DejaVuSans-20" x="1536.230469"/>
     <use xlink:href="#DejaVuSans-3d" x="1568.017578"/>
     <use xlink:href="#DejaVuSans-20" x="1651.806641"/>
     <use xlink:href="#DejaVuSans-30" x="1683.59375"/>
     <use xlink:href="#DejaVuSans-2e" x="1747.216797"/>
     <use xlink:href="#DejaVuSans-39" x="1779.003906"/>
     <use xlink:href="#DejaVuSans-35" x="1842.626953"/>
     <use xlink:href="#DejaVuSans-31" x="1906.25"/>
     <use xlink:href="#DejaVuSans-38" x="1969.873047"/>
     <use xlink:href="#DejaVuSans-31" x="2033.496094"/>
     <use xlink:href="#DejaVuSans-39" x="2097.119141"/>
     <use xlink:href="#DejaVuSans-29" x="2160.742188"/>
    </g>
   </g>
   <g id="legend_1">
    <g id="patch_7">
     <path d="M 1287.495312 87.789875 
L 1384.575 87.789875 
Q 1386.575 87.789875 1386.575 85.789875 
L 1386.575 42.7555 
Q 1386.575 40.7555 1384.575 40.7555 
L 1287.495312 40.7555 
Q 1285.495312 40.7555 1285.495312 42.7555 
L 1285.495312 85.789875 
Q 1285.495312 87.789875 1287.495312 87.789875 
z
" style="fill: #ffffff; opacity: 0.8; stroke: #cccccc; stroke-linejoin: miter"/>
    </g>
    <g id="line2d_21">
     <path d="M 1289.495312 48.853937 
L 1299.495312 48.853937 
L 1309.495312 48.853937 
" style="fill: none; stroke: #0000ff; stroke-width: 1.5; stroke-linecap: square"/>
    </g>
    <g id="text_19">
     <!-- Actual Value -->
     <g transform="translate(1317.495312 52.353937)scale(0.1 -0.1)">
      <defs>
       <path id="DejaVuSans-75" d="M 544 1381 
L 544 3500 
L 1119 3500 
L 1119 1403 
Q 1119 906 1312 657 
Q 1506 409 1894 409 
Q 2359 409 2629 706 
Q 2900 1003 2900 1516 
L 2900 3500 
L 3475 3500 
L 3475 0 
L 2900 0 
L 2900 538 
Q 2691 219 2414 64 
Q 2138 -91 1772 -91 
Q 1169 -91 856 284 
Q 544 659 544 1381 
z
M 1991 3584 
L 1991 3584 
z
" transform="scale(0.015625)"/>
       <path id="DejaVuSans-56" d="M 1831 0 
L 50 4666 
L 709 4666 
L 2188 738 
L 3669 4666 
L 4325 4666 
L 2547 0 
L 1831 0 
z
" transform="scale(0.015625)"/>
      </defs>
      <use xlink:href="#DejaVuSans-41"/>
      <use xlink:href="#DejaVuSans-63" x="66.658203"/>
      <use xlink:href="#DejaVuSans-74" x="121.638672"/>
      <use xlink:href="#DejaVuSans-75" x="160.847656"/>
      <use xlink:href="#DejaVuSans-61" x="224.226562"/>
      <use xlink:href="#DejaVuSans-6c" x="285.505859"/>
      <use xlink:href="#DejaVuSans-20" x="313.289062"/>
      <use xlink:href="#DejaVuSans-56" x="345.076172"/>
      <use xlink:href="#DejaVuSans-61" x="405.734375"/>
      <use xlink:href="#DejaVuSans-6c" x="467.013672"/>
      <use xlink:href="#DejaVuSans-75" x="494.796875"/>
      <use xlink:href="#DejaVuSans-65" x="558.175781"/>
     </g>
    </g>
    <g id="line2d_22">
     <path d="M 1289.495312 63.532062 
L 1299.495312 63.532062 
L 1309.495312 63.532062 
" style="fill: none; stroke: #ffa500; stroke-width: 1.5; stroke-linecap: square"/>
    </g>
    <g id="text_20">
     <!-- Check Value -->
     <g transform="translate(1317.495312 67.032062)scale(0.1 -0.1)">
      <defs>
       <path id="DejaVuSans-68" d="M 3513 2113 
L 3513 0 
L 2938 0 
L 2938 2094 
Q 2938 2591 2744 2837 
Q 2550 3084 2163 3084 
Q 1697 3084 1428 2787 
Q 1159 2491 1159 1978 
L 1159 0 
L 581 0 
L 581 4863 
L 1159 4863 
L 1159 2956 
Q 1366 3272 1645 3428 
Q 1925 3584 2291 3584 
Q 2894 3584 3203 3211 
Q 3513 2838 3513 2113 
z
" transform="scale(0.015625)"/>
       <path id="DejaVuSans-6b" d="M 581 4863 
L 1159 4863 
L 1159 1991 
L 2875 3500 
L 3609 3500 
L 1753 1863 
L 3688 0 
L 2938 0 
L 1159 1709 
L 1159 0 
L 581 0 
L 581 4863 
z
" transform="scale(0.015625)"/>
      </defs>
      <use xlink:href="#DejaVuSans-43"/>
      <use xlink:href="#DejaVuSans-68" x="69.824219"/>
      <use xlink:href="#DejaVuSans-65" x="133.203125"/>
      <use xlink:href="#DejaVuSans-63" x="194.726562"/>
      <use xlink:href="#DejaVuSans-6b" x="249.707031"/>
      <use xlink:href="#DejaVuSans-20" x="307.617188"/>
      <use xlink:href="#DejaVuSans-56" x="339.404297"/>
      <use xlink:href="#DejaVuSans-61" x="400.0625"/>
      <use xlink:href="#DejaVuSans-6c" x="461.341797"/>
      <use xlink:href="#DejaVuSans-75" x="489.125"/>
      <use xlink:href="#DejaVuSans-65" x="552.503906"/>
     </g>
    </g>
    <g id="line2d_23">
     <path d="M 1289.495312 78.210187 
L 1299.495312 78.210187 
L 1309.495312 78.210187 
" style="fill: none; stroke: #ff0000; stroke-width: 1.5; stroke-linecap: square"/>
    </g>
    <g id="text_21">
     <!-- Predict Value -->
     <g transform="translate(1317.495312 81.710187)scale(0.1 -0.1)">
      <defs>
       <path id="DejaVuSans-50" d="M 1259 4147 
L 1259 2394 
L 2053 2394 
Q 2494 2394 2734 2622 
Q 2975 2850 2975 3272 
Q 2975 3691 2734 3919 
Q 2494 4147 2053 4147 
L 1259 4147 
z
M 628 4666 
L 2053 4666 
Q 2838 4666 3239 4311 
Q 3641 3956 3641 3272 
Q 3641 2581 3239 2228 
Q 2838 1875 2053 1875 
L 1259 1875 
L 1259 0 
L 628 0 
L 628 4666 
z
" transform="scale(0.015625)"/>
      </defs>
      <use xlink:href="#DejaVuSans-50"/>
      <use xlink:href="#DejaVuSans-72" x="58.552734"/>
      <use xlink:href="#DejaVuSans-65" x="97.416016"/>
      <use xlink:href="#DejaVuSans-64" x="158.939453"/>
      <use xlink:href="#DejaVuSans-69" x="222.416016"/>
      <use xlink:href="#DejaVuSans-63" x="250.199219"/>
      <use xlink:href="#DejaVuSans-74" x="305.179688"/>
      <use xlink:href="#DejaVuSans-20" x="344.388672"/>
      <use xlink:href="#DejaVuSans-56" x="376.175781"/>
      <use xlink:href="#DejaVuSans-61" x="436.833984"/>
      <use xlink:href="#DejaVuSans-6c" x="498.113281"/>
      <use xlink:href="#DejaVuSans-75" x="525.896484"/>
      <use xlink:href="#DejaVuSans-65" x="589.275391"/>
     </g>
    </g>
   </g>
  </g>
 </g>
 <defs>
  <clipPath id="p02387dad5c">
   <rect x="52.375" y="35.7555" width="1339.2" height="332.64"/>
  </clipPath>
 </defs>
</svg>
