<?xml version="1.0" encoding="utf-8" standalone="no"?>
<!DOCTYPE svg PUBLIC "-//W3C//DTD SVG 1.1//EN"
  "http://www.w3.org/Graphics/SVG/1.1/DTD/svg11.dtd">
<svg xmlns:xlink="http://www.w3.org/1999/xlink" width="1392.4125pt" height="392.273625pt" viewBox="0 0 1392.4125 392.273625" xmlns="http://www.w3.org/2000/svg" version="1.1">
 <metadata>
  <rdf:RDF xmlns:dc="http://purl.org/dc/elements/1.1/" xmlns:cc="http://creativecommons.org/ns#" xmlns:rdf="http://www.w3.org/1999/02/22-rdf-syntax-ns#">
   <cc:Work>
    <dc:type rdf:resource="http://purl.org/dc/dcmitype/StillImage"/>
    <dc:date>2022-07-30T17:29:50.557951</dc:date>
    <dc:format>image/svg+xml</dc:format>
    <dc:creator>
     <cc:Agent>
      <dc:title>Matplotlib v3.5.2, https://matplotlib.org/</dc:title>
     </cc:Agent>
    </dc:creator>
   </cc:Work>
  </rdf:RDF>
 </metadata>
 <defs>
  <style type="text/css">*{stroke-linejoin: round; stroke-linecap: butt}</style>
 </defs>
 <g id="figure_1">
  <g id="patch_1">
   <path d="M 0 392.273625 
L 1392.4125 392.273625 
L 1392.4125 0 
L 0 0 
z
" style="fill: #ffffff"/>
  </g>
  <g id="axes_1">
   <g id="patch_2">
    <path d="M 46.0125 368.3955 
L 1385.2125 368.3955 
L 1385.2125 35.7555 
L 46.0125 35.7555 
z
" style="fill: #ffffff"/>
   </g>
   <g id="matplotlib.axis_1">
    <g id="xtick_1">
     <g id="line2d_1">
      <defs>
       <path id="md1815fb806" d="M 0 0 
L 0 3.5 
" style="stroke: #000000; stroke-width: 0.8"/>
      </defs>
      <g>
       <use xlink:href="#md1815fb806" x="78.116162" y="368.3955" style="stroke: #000000; stroke-width: 0.8"/>
      </g>
     </g>
     <g id="text_1">
      <!-- 2020-01 -->
      <g transform="translate(57.224756 382.993937)scale(0.1 -0.1)">
       <defs>
        <path id="DejaVuSans-32" d="M 1228 531 
L 3431 531 
L 3431 0 
L 469 0 
L 469 531 
Q 828 903 1448 1529 
Q 2069 2156 2228 2338 
Q 2531 2678 2651 2914 
Q 2772 3150 2772 3378 
Q 2772 3750 2511 3984 
Q 2250 4219 1831 4219 
Q 1534 4219 1204 4116 
Q 875 4013 500 3803 
L 500 4441 
Q 881 4594 1212 4672 
Q 1544 4750 1819 4750 
Q 2544 4750 2975 4387 
Q 3406 4025 3406 3419 
Q 3406 3131 3298 2873 
Q 3191 2616 2906 2266 
Q 2828 2175 2409 1742 
Q 1991 1309 1228 531 
z
" transform="scale(0.015625)"/>
        <path id="DejaVuSans-30" d="M 2034 4250 
Q 1547 4250 1301 3770 
Q 1056 3291 1056 2328 
Q 1056 1369 1301 889 
Q 1547 409 2034 409 
Q 2525 409 2770 889 
Q 3016 1369 3016 2328 
Q 3016 3291 2770 3770 
Q 2525 4250 2034 4250 
z
M 2034 4750 
Q 2819 4750 3233 4129 
Q 3647 3509 3647 2328 
Q 3647 1150 3233 529 
Q 2819 -91 2034 -91 
Q 1250 -91 836 529 
Q 422 1150 422 2328 
Q 422 3509 836 4129 
Q 1250 4750 2034 4750 
z
" transform="scale(0.015625)"/>
        <path id="DejaVuSans-2d" d="M 313 2009 
L 1997 2009 
L 1997 1497 
L 313 1497 
L 313 2009 
z
" transform="scale(0.015625)"/>
        <path id="DejaVuSans-31" d="M 794 531 
L 1825 531 
L 1825 4091 
L 703 3866 
L 703 4441 
L 1819 4666 
L 2450 4666 
L 2450 531 
L 3481 531 
L 3481 0 
L 794 0 
L 794 531 
z
" transform="scale(0.015625)"/>
       </defs>
       <use xlink:href="#DejaVuSans-32"/>
       <use xlink:href="#DejaVuSans-30" x="63.623047"/>
       <use xlink:href="#DejaVuSans-32" x="127.246094"/>
       <use xlink:href="#DejaVuSans-30" x="190.869141"/>
       <use xlink:href="#DejaVuSans-2d" x="254.492188"/>
       <use xlink:href="#DejaVuSans-30" x="290.576172"/>
       <use xlink:href="#DejaVuSans-31" x="354.199219"/>
      </g>
     </g>
    </g>
    <g id="xtick_2">
     <g id="line2d_2">
      <g>
       <use xlink:href="#md1815fb806" x="197.115478" y="368.3955" style="stroke: #000000; stroke-width: 0.8"/>
      </g>
     </g>
     <g id="text_2">
      <!-- 2020-04 -->
      <g transform="translate(176.224072 382.993937)scale(0.1 -0.1)">
       <defs>
        <path id="DejaVuSans-34" d="M 2419 4116 
L 825 1625 
L 2419 1625 
L 2419 4116 
z
M 2253 4666 
L 3047 4666 
L 3047 1625 
L 3713 1625 
L 3713 1100 
L 3047 1100 
L 3047 0 
L 2419 0 
L 2419 1100 
L 313 1100 
L 313 1709 
L 2253 4666 
z
" transform="scale(0.015625)"/>
       </defs>
       <use xlink:href="#DejaVuSans-32"/>
       <use xlink:href="#DejaVuSans-30" x="63.623047"/>
       <use xlink:href="#DejaVuSans-32" x="127.246094"/>
       <use xlink:href="#DejaVuSans-30" x="190.869141"/>
       <use xlink:href="#DejaVuSans-2d" x="254.492188"/>
       <use xlink:href="#DejaVuSans-30" x="290.576172"/>
       <use xlink:href="#DejaVuSans-34" x="354.199219"/>
      </g>
     </g>
    </g>
    <g id="xtick_3">
     <g id="line2d_3">
      <g>
       <use xlink:href="#md1815fb806" x="316.114795" y="368.3955" style="stroke: #000000; stroke-width: 0.8"/>
      </g>
     </g>
     <g id="text_3">
      <!-- 2020-07 -->
      <g transform="translate(295.223388 382.993937)scale(0.1 -0.1)">
       <defs>
        <path id="DejaVuSans-37" d="M 525 4666 
L 3525 4666 
L 3525 4397 
L 1831 0 
L 1172 0 
L 2766 4134 
L 525 4134 
L 525 4666 
z
" transform="scale(0.015625)"/>
       </defs>
       <use xlink:href="#DejaVuSans-32"/>
       <use xlink:href="#DejaVuSans-30" x="63.623047"/>
       <use xlink:href="#DejaVuSans-32" x="127.246094"/>
       <use xlink:href="#DejaVuSans-30" x="190.869141"/>
       <use xlink:href="#DejaVuSans-2d" x="254.492188"/>
       <use xlink:href="#DejaVuSans-30" x="290.576172"/>
       <use xlink:href="#DejaVuSans-37" x="354.199219"/>
      </g>
     </g>
    </g>
    <g id="xtick_4">
     <g id="line2d_4">
      <g>
       <use xlink:href="#md1815fb806" x="436.421796" y="368.3955" style="stroke: #000000; stroke-width: 0.8"/>
      </g>
     </g>
     <g id="text_4">
      <!-- 2020-10 -->
      <g transform="translate(415.53039 382.993937)scale(0.1 -0.1)">
       <use xlink:href="#DejaVuSans-32"/>
       <use xlink:href="#DejaVuSans-30" x="63.623047"/>
       <use xlink:href="#DejaVuSans-32" x="127.246094"/>
       <use xlink:href="#DejaVuSans-30" x="190.869141"/>
       <use xlink:href="#DejaVuSans-2d" x="254.492188"/>
       <use xlink:href="#DejaVuSans-31" x="290.576172"/>
       <use xlink:href="#DejaVuSans-30" x="354.199219"/>
      </g>
     </g>
    </g>
    <g id="xtick_5">
     <g id="line2d_5">
      <g>
       <use xlink:href="#md1815fb806" x="556.728797" y="368.3955" style="stroke: #000000; stroke-width: 0.8"/>
      </g>
     </g>
     <g id="text_5">
      <!-- 2021-01 -->
      <g transform="translate(535.837391 382.993937)scale(0.1 -0.1)">
       <use xlink:href="#DejaVuSans-32"/>
       <use xlink:href="#DejaVuSans-30" x="63.623047"/>
       <use xlink:href="#DejaVuSans-32" x="127.246094"/>
       <use xlink:href="#DejaVuSans-31" x="190.869141"/>
       <use xlink:href="#DejaVuSans-2d" x="254.492188"/>
       <use xlink:href="#DejaVuSans-30" x="290.576172"/>
       <use xlink:href="#DejaVuSans-31" x="354.199219"/>
      </g>
     </g>
    </g>
    <g id="xtick_6">
     <g id="line2d_6">
      <g>
       <use xlink:href="#md1815fb806" x="674.420429" y="368.3955" style="stroke: #000000; stroke-width: 0.8"/>
      </g>
     </g>
     <g id="text_6">
      <!-- 2021-04 -->
      <g transform="translate(653.529023 382.993937)scale(0.1 -0.1)">
       <use xlink:href="#DejaVuSans-32"/>
       <use xlink:href="#DejaVuSans-30" x="63.623047"/>
       <use xlink:href="#DejaVuSans-32" x="127.246094"/>
       <use xlink:href="#DejaVuSans-31" x="190.869141"/>
       <use xlink:href="#DejaVuSans-2d" x="254.492188"/>
       <use xlink:href="#DejaVuSans-30" x="290.576172"/>
       <use xlink:href="#DejaVuSans-34" x="354.199219"/>
      </g>
     </g>
    </g>
    <g id="xtick_7">
     <g id="line2d_7">
      <g>
       <use xlink:href="#md1815fb806" x="793.419745" y="368.3955" style="stroke: #000000; stroke-width: 0.8"/>
      </g>
     </g>
     <g id="text_7">
      <!-- 2021-07 -->
      <g transform="translate(772.528339 382.993937)scale(0.1 -0.1)">
       <use xlink:href="#DejaVuSans-32"/>
       <use xlink:href="#DejaVuSans-30" x="63.623047"/>
       <use xlink:href="#DejaVuSans-32" x="127.246094"/>
       <use xlink:href="#DejaVuSans-31" x="190.869141"/>
       <use xlink:href="#DejaVuSans-2d" x="254.492188"/>
       <use xlink:href="#DejaVuSans-30" x="290.576172"/>
       <use xlink:href="#DejaVuSans-37" x="354.199219"/>
      </g>
     </g>
    </g>
    <g id="xtick_8">
     <g id="line2d_8">
      <g>
       <use xlink:href="#md1815fb806" x="913.726747" y="368.3955" style="stroke: #000000; stroke-width: 0.8"/>
      </g>
     </g>
     <g id="text_8">
      <!-- 2021-10 -->
      <g transform="translate(892.83534 382.993937)scale(0.1 -0.1)">
       <use xlink:href="#DejaVuSans-32"/>
       <use xlink:href="#DejaVuSans-30" x="63.623047"/>
       <use xlink:href="#DejaVuSans-32" x="127.246094"/>
       <use xlink:href="#DejaVuSans-31" x="190.869141"/>
       <use xlink:href="#DejaVuSans-2d" x="254.492188"/>
       <use xlink:href="#DejaVuSans-31" x="290.576172"/>
       <use xlink:href="#DejaVuSans-30" x="354.199219"/>
      </g>
     </g>
    </g>
    <g id="xtick_9">
     <g id="line2d_9">
      <g>
       <use xlink:href="#md1815fb806" x="1034.033748" y="368.3955" style="stroke: #000000; stroke-width: 0.8"/>
      </g>
     </g>
     <g id="text_9">
      <!-- 2022-01 -->
      <g transform="translate(1013.142342 382.993937)scale(0.1 -0.1)">
       <use xlink:href="#DejaVuSans-32"/>
       <use xlink:href="#DejaVuSans-30" x="63.623047"/>
       <use xlink:href="#DejaVuSans-32" x="127.246094"/>
       <use xlink:href="#DejaVuSans-32" x="190.869141"/>
       <use xlink:href="#DejaVuSans-2d" x="254.492188"/>
       <use xlink:href="#DejaVuSans-30" x="290.576172"/>
       <use xlink:href="#DejaVuSans-31" x="354.199219"/>
      </g>
     </g>
    </g>
    <g id="xtick_10">
     <g id="line2d_10">
      <g>
       <use xlink:href="#md1815fb806" x="1151.72538" y="368.3955" style="stroke: #000000; stroke-width: 0.8"/>
      </g>
     </g>
     <g id="text_10">
      <!-- 2022-04 -->
      <g transform="translate(1130.833973 382.993937)scale(0.1 -0.1)">
       <use xlink:href="#DejaVuSans-32"/>
       <use xlink:href="#DejaVuSans-30" x="63.623047"/>
       <use xlink:href="#DejaVuSans-32" x="127.246094"/>
       <use xlink:href="#DejaVuSans-32" x="190.869141"/>
       <use xlink:href="#DejaVuSans-2d" x="254.492188"/>
       <use xlink:href="#DejaVuSans-30" x="290.576172"/>
       <use xlink:href="#DejaVuSans-34" x="354.199219"/>
      </g>
     </g>
    </g>
    <g id="xtick_11">
     <g id="line2d_11">
      <g>
       <use xlink:href="#md1815fb806" x="1270.724696" y="368.3955" style="stroke: #000000; stroke-width: 0.8"/>
      </g>
     </g>
     <g id="text_11">
      <!-- 2022-07 -->
      <g transform="translate(1249.83329 382.993937)scale(0.1 -0.1)">
       <use xlink:href="#DejaVuSans-32"/>
       <use xlink:href="#DejaVuSans-30" x="63.623047"/>
       <use xlink:href="#DejaVuSans-32" x="127.246094"/>
       <use xlink:href="#DejaVuSans-32" x="190.869141"/>
       <use xlink:href="#DejaVuSans-2d" x="254.492188"/>
       <use xlink:href="#DejaVuSans-30" x="290.576172"/>
       <use xlink:href="#DejaVuSans-37" x="354.199219"/>
      </g>
     </g>
    </g>
   </g>
   <g id="matplotlib.axis_2">
    <g id="ytick_1">
     <g id="line2d_12">
      <defs>
       <path id="m1b7b46b918" d="M 0 0 
L -3.5 0 
" style="stroke: #000000; stroke-width: 0.8"/>
      </defs>
      <g>
       <use xlink:href="#m1b7b46b918" x="46.0125" y="332.966255" style="stroke: #000000; stroke-width: 0.8"/>
      </g>
     </g>
     <g id="text_12">
      <!-- 0 -->
      <g transform="translate(32.65 336.765474)scale(0.1 -0.1)">
       <use xlink:href="#DejaVuSans-30"/>
      </g>
     </g>
    </g>
    <g id="ytick_2">
     <g id="line2d_13">
      <g>
       <use xlink:href="#m1b7b46b918" x="46.0125" y="262.224266" style="stroke: #000000; stroke-width: 0.8"/>
      </g>
     </g>
     <g id="text_13">
      <!-- 5000 -->
      <g transform="translate(13.5625 266.023485)scale(0.1 -0.1)">
       <defs>
        <path id="DejaVuSans-35" d="M 691 4666 
L 3169 4666 
L 3169 4134 
L 1269 4134 
L 1269 2991 
Q 1406 3038 1543 3061 
Q 1681 3084 1819 3084 
Q 2600 3084 3056 2656 
Q 3513 2228 3513 1497 
Q 3513 744 3044 326 
Q 2575 -91 1722 -91 
Q 1428 -91 1123 -41 
Q 819 9 494 109 
L 494 744 
Q 775 591 1075 516 
Q 1375 441 1709 441 
Q 2250 441 2565 725 
Q 2881 1009 2881 1497 
Q 2881 1984 2565 2268 
Q 2250 2553 1709 2553 
Q 1456 2553 1204 2497 
Q 953 2441 691 2322 
L 691 4666 
z
" transform="scale(0.015625)"/>
       </defs>
       <use xlink:href="#DejaVuSans-35"/>
       <use xlink:href="#DejaVuSans-30" x="63.623047"/>
       <use xlink:href="#DejaVuSans-30" x="127.246094"/>
       <use xlink:href="#DejaVuSans-30" x="190.869141"/>
      </g>
     </g>
    </g>
    <g id="ytick_3">
     <g id="line2d_14">
      <g>
       <use xlink:href="#m1b7b46b918" x="46.0125" y="191.482277" style="stroke: #000000; stroke-width: 0.8"/>
      </g>
     </g>
     <g id="text_14">
      <!-- 10000 -->
      <g transform="translate(7.2 195.281496)scale(0.1 -0.1)">
       <use xlink:href="#DejaVuSans-31"/>
       <use xlink:href="#DejaVuSans-30" x="63.623047"/>
       <use xlink:href="#DejaVuSans-30" x="127.246094"/>
       <use xlink:href="#DejaVuSans-30" x="190.869141"/>
       <use xlink:href="#DejaVuSans-30" x="254.492188"/>
      </g>
     </g>
    </g>
    <g id="ytick_4">
     <g id="line2d_15">
      <g>
       <use xlink:href="#m1b7b46b918" x="46.0125" y="120.740288" style="stroke: #000000; stroke-width: 0.8"/>
      </g>
     </g>
     <g id="text_15">
      <!-- 15000 -->
      <g transform="translate(7.2 124.539507)scale(0.1 -0.1)">
       <use xlink:href="#DejaVuSans-31"/>
       <use xlink:href="#DejaVuSans-35" x="63.623047"/>
       <use xlink:href="#DejaVuSans-30" x="127.246094"/>
       <use xlink:href="#DejaVuSans-30" x="190.869141"/>
       <use xlink:href="#DejaVuSans-30" x="254.492188"/>
      </g>
     </g>
    </g>
    <g id="ytick_5">
     <g id="line2d_16">
      <g>
       <use xlink:href="#m1b7b46b918" x="46.0125" y="49.998299" style="stroke: #000000; stroke-width: 0.8"/>
      </g>
     </g>
     <g id="text_16">
      <!-- 20000 -->
      <g transform="translate(7.2 53.797518)scale(0.1 -0.1)">
       <use xlink:href="#DejaVuSans-32"/>
       <use xlink:href="#DejaVuSans-30" x="63.623047"/>
       <use xlink:href="#DejaVuSans-30" x="127.246094"/>
       <use xlink:href="#DejaVuSans-30" x="190.869141"/>
       <use xlink:href="#DejaVuSans-30" x="254.492188"/>
      </g>
     </g>
    </g>
   </g>
   <g id="line2d_17">
    <path d="M 106.885227 332.966255 
L 180.115576 332.966255 
L 181.423261 332.838919 
L 186.654 332.853068 
L 193.192424 332.584248 
L 195.807793 332.046609 
L 198.423163 332.541803 
L 199.730848 332.966255 
L 201.038533 331.042073 
L 202.346217 332.640842 
L 204.961587 332.117351 
L 206.269272 332.30128 
L 207.576957 332.074906 
L 208.884641 332.372022 
L 210.192326 332.074906 
L 211.500011 331.424079 
L 212.807696 332.881364 
L 214.115381 332.683287 
L 215.423065 332.244686 
L 216.73075 331.990015 
L 218.038435 332.612545 
L 219.34612 332.258835 
L 220.653805 331.622157 
L 221.961489 332.414467 
L 223.269174 332.315428 
L 224.576859 333.617081 
L 225.884544 333.27752 
L 227.192229 332.315428 
L 228.499913 338.668059 
L 229.807598 332.782326 
L 231.115283 332.909661 
L 233.730653 332.881364 
L 235.038337 332.258835 
L 236.346022 332.838919 
L 241.576761 332.909661 
L 242.884446 332.966255 
L 245.499816 332.73988 
L 246.8075 332.895513 
L 254.653609 332.768177 
L 258.576664 332.287132 
L 259.884348 332.796474 
L 261.192033 332.980403 
L 263.807403 332.853068 
L 265.115088 332.853068 
L 266.422772 332.966255 
L 267.730457 332.824771 
L 269.038142 332.952106 
L 270.345827 332.711584 
L 271.653512 332.683287 
L 275.576566 332.994552 
L 276.884251 332.881364 
L 278.191936 332.952106 
L 280.807305 332.838919 
L 282.11499 332.853068 
L 283.422675 332.541803 
L 284.73036 332.92381 
L 288.653414 332.754029 
L 289.961099 332.952106 
L 291.268784 332.230538 
L 292.576468 332.725732 
L 296.499523 332.937958 
L 299.114892 332.824771 
L 300.422577 332.92381 
L 301.730262 332.513506 
L 303.037947 332.937958 
L 305.653316 332.824771 
L 306.961001 332.584248 
L 308.268686 332.937958 
L 309.576371 332.909661 
L 310.884056 332.697435 
L 312.19174 332.65499 
L 313.499425 332.768177 
L 314.80711 332.188093 
L 316.114795 332.456912 
L 317.422479 332.428616 
L 318.730164 332.626693 
L 321.345534 332.555951 
L 322.653219 329.782865 
L 323.960903 331.890977 
L 325.268588 332.626693 
L 326.576273 332.060757 
L 327.883958 331.325041 
L 329.191643 331.777789 
L 330.499327 330.872292 
L 331.807012 329.74042 
L 333.114697 331.650454 
L 334.422382 330.999627 
L 335.730067 331.890977 
L 337.037751 330.80155 
L 338.345436 330.292208 
L 339.653121 328.297284 
L 340.960806 329.853607 
L 342.268491 329.514046 
L 343.576175 331.905125 
L 344.88386 329.514046 
L 346.191545 329.853607 
L 347.49923 329.457452 
L 348.806915 330.221466 
L 351.422284 330.575176 
L 352.729969 331.339189 
L 354.037654 329.853607 
L 355.345339 331.876828 
L 356.653023 325.24123 
L 357.960708 328.834923 
L 359.268393 329.033 
L 360.576078 328.721735 
L 361.883763 329.132039 
L 363.191447 330.985479 
L 364.499132 327.222005 
L 365.806817 328.113354 
L 368.422187 327.519122 
L 369.729871 328.919813 
L 371.037556 324.986558 
L 372.345241 331.409931 
L 373.652926 326.585327 
L 374.960611 328.169948 
L 376.268295 330.391246 
L 377.57598 326.288211 
L 378.883665 323.798093 
L 380.19135 331.820235 
L 381.499035 331.211853 
L 382.806719 326.769257 
L 384.114404 329.174484 
L 385.422089 330.207317 
L 386.729774 326.670218 
L 388.037459 331.975867 
L 389.345143 332.711584 
L 390.652828 326.47214 
L 391.960513 329.330117 
L 393.268198 329.287671 
L 394.575882 329.528194 
L 395.883567 329.471601 
L 397.191252 331.438228 
L 398.498937 327.901128 
L 399.806622 331.169408 
L 401.114306 332.513506 
L 402.421991 330.957182 
L 403.729676 332.598396 
L 405.037361 326.981483 
L 406.345046 331.608009 
L 407.65273 332.952106 
L 408.960415 326.47214 
L 410.2681 331.424079 
L 411.575785 329.556491 
L 412.88347 330.546879 
L 414.191154 330.023388 
L 415.498839 329.726272 
L 416.806524 332.315428 
L 418.114209 327.561567 
L 419.421894 326.189172 
L 420.729578 323.147267 
L 422.037263 329.259375 
L 423.344948 329.542343 
L 424.652633 331.721196 
L 425.960318 332.400319 
L 427.268002 322.821854 
L 428.575687 322.892596 
L 429.883372 328.778329 
L 431.191057 325.425159 
L 432.498742 323.628312 
L 433.806426 326.684366 
L 435.114111 330.150724 
L 436.421796 330.476137 
L 437.729481 328.311432 
L 439.037166 328.735884 
L 440.34485 329.712123 
L 441.652535 327.830386 
L 442.96022 329.598936 
L 444.267905 332.640842 
L 445.57559 327.986019 
L 446.883274 328.495361 
L 448.190959 329.683826 
L 449.498644 329.881904 
L 450.806329 329.74042 
L 452.114014 331.056221 
L 453.421698 326.03354 
L 454.729383 328.467064 
L 456.037068 329.754568 
L 457.344753 331.282595 
L 458.652438 327.052224 
L 459.960122 326.924889 
L 461.267807 326.641921 
L 462.575492 331.098666 
L 463.883177 331.735344 
L 465.190861 316.667301 
L 466.498546 331.325041 
L 467.806231 323.55757 
L 471.729285 332.032461 
L 473.03697 322.32666 
L 474.344655 324.845074 
L 475.65234 328.933961 
L 476.960025 327.26445 
L 478.267709 320.742039 
L 479.575394 328.085058 
L 480.883079 332.159796 
L 482.190764 328.806626 
L 483.498449 321.605091 
L 484.806133 324.675294 
L 486.113818 324.335732 
L 487.421503 326.160875 
L 488.729188 329.075445 
L 490.036873 329.231078 
L 491.344557 314.120589 
L 492.652242 323.529273 
L 493.959927 323.727351 
L 495.267612 322.963338 
L 496.575297 325.368565 
L 497.882981 324.915816 
L 499.190666 328.368025 
L 500.498351 325.59494 
L 501.806036 320.176103 
L 503.113721 317.417166 
L 504.421405 318.464147 
L 505.72909 322.482292 
L 507.036775 328.042612 
L 508.34446 330.461988 
L 509.652145 325.877907 
L 510.959829 312.422781 
L 512.267514 320.190252 
L 513.575199 331.254299 
L 514.882884 321.039155 
L 516.190569 322.001246 
L 517.498253 327.476676 
L 518.805938 327.349341 
L 520.113623 326.005243 
L 521.421308 319.737503 
L 522.728993 316.85123 
L 524.036677 319.511128 
L 525.344362 323.147267 
L 526.652047 323.82639 
L 527.959732 325.948649 
L 529.267417 311.121129 
L 530.575101 322.76526 
L 531.882786 322.949189 
L 533.190471 325.128042 
L 534.498156 326.82585 
L 535.80584 329.188633 
L 537.113525 317.898211 
L 538.42121 313.427317 
L 539.728895 317.700134 
L 541.03658 315.676913 
L 542.344264 327.080521 
L 543.651949 317.926508 
L 544.959634 324.816778 
L 546.267319 328.438767 
L 547.575004 324.250842 
L 548.882688 318.549037 
L 550.190373 321.873911 
L 551.498058 326.868295 
L 552.805743 302.801871 
L 554.113428 331.579712 
L 555.421112 327.26445 
L 556.728797 322.171027 
L 558.036482 320.543962 
L 559.344167 329.613084 
L 560.651852 323.967874 
L 561.959536 325.693978 
L 563.267221 328.820774 
L 564.574906 328.919813 
L 565.882591 302.27838 
L 567.190276 325.000707 
L 568.49796 326.047688 
L 569.805645 328.028464 
L 571.11333 319.397941 
L 572.421015 329.966794 
L 573.7287 330.461988 
L 575.036384 316.865378 
L 576.344069 324.915816 
L 577.651754 320.826929 
L 578.959439 325.071449 
L 580.267124 326.82585 
L 581.574808 330.985479 
L 582.882493 329.924349 
L 584.190178 325.128042 
L 585.497863 321.774872 
L 586.805548 319.454535 
L 588.113232 324.929965 
L 589.420917 326.274063 
L 590.728602 330.490285 
L 593.343972 326.924889 
L 594.651656 326.769257 
L 595.959341 329.881904 
L 597.267026 324.279139 
L 598.574711 328.891516 
L 599.882396 331.042073 
L 601.19008 328.410471 
L 602.497765 331.834383 
L 605.113135 326.11843 
L 606.42082 328.410471 
L 607.728504 329.556491 
L 609.036189 331.664602 
L 610.343874 330.957182 
L 611.651559 328.891516 
L 612.959243 327.462528 
L 614.266928 328.778329 
L 615.574613 329.74042 
L 616.882298 326.175024 
L 618.189983 331.395783 
L 619.497667 331.86268 
L 620.805352 331.296744 
L 622.113037 329.980943 
L 623.420722 329.443304 
L 624.728407 330.518582 
L 626.036091 329.867756 
L 627.343776 332.357874 
L 628.651461 331.551415 
L 629.959146 329.556491 
L 631.266831 330.36295 
L 632.574515 329.38671 
L 633.8822 328.905665 
L 635.189885 330.829847 
L 636.49757 332.541803 
L 637.805255 331.523118 
L 639.112939 330.150724 
L 640.420624 329.273523 
L 641.728309 332.966255 
L 643.035994 332.966255 
L 644.343679 324.335732 
L 645.651363 331.353337 
L 646.959048 327.929425 
L 648.266733 330.702511 
L 649.574418 329.641381 
L 650.882103 330.235614 
L 652.189787 329.910201 
L 653.497472 332.018312 
L 654.805157 331.990015 
L 656.112842 328.268987 
L 657.420527 329.910201 
L 658.728211 328.353877 
L 660.035896 328.792477 
L 661.343581 329.754568 
L 662.651266 330.914737 
L 663.958951 331.86268 
L 665.266635 329.287671 
L 666.57432 327.321044 
L 667.882005 329.174484 
L 669.18969 324.547958 
L 670.497375 326.641921 
L 671.805059 330.561027 
L 673.112744 327.80209 
L 674.420429 325.750572 
L 675.728114 321.760724 
L 677.035799 323.982022 
L 678.343483 326.939037 
L 679.651168 330.292208 
L 680.958853 329.980943 
L 682.266538 326.656069 
L 683.574222 317.671837 
L 684.881907 312.592562 
L 686.189592 318.860302 
L 687.497277 317.37472 
L 688.804962 317.700134 
L 690.112646 318.987638 
L 691.420331 326.316508 
L 692.728016 317.403017 
L 694.035701 309.833624 
L 695.343386 316.978565 
L 696.65107 313.894215 
L 697.958755 317.530353 
L 699.26644 325.113894 
L 700.574125 325.651533 
L 701.88181 316.384333 
L 703.189494 317.884063 
L 704.497179 318.690521 
L 705.804864 322.439847 
L 707.112549 321.166491 
L 708.420234 328.382174 
L 709.727918 328.580251 
L 711.035603 322.128582 
L 712.343288 325.623236 
L 713.650973 324.165951 
L 714.958658 326.330656 
L 716.266342 326.457992 
L 717.574027 330.164872 
L 718.881712 330.971331 
L 720.189397 325.580791 
L 721.497082 325.609088 
L 722.804766 327.547418 
L 724.112451 329.117891 
L 725.420136 330.377098 
L 726.727821 332.966255 
L 728.035506 330.914737 
L 729.34319 328.32558 
L 730.650875 329.754568 
L 731.95856 329.726272 
L 733.266245 328.608548 
L 734.57393 331.59386 
L 735.881614 332.598396 
L 737.189299 332.103203 
L 738.496984 330.207317 
L 739.804669 329.174484 
L 741.112354 330.80155 
L 742.420038 329.613084 
L 743.727723 331.791938 
L 745.035408 332.810622 
L 746.343093 331.226002 
L 747.650778 331.013776 
L 748.958462 331.126963 
L 750.266147 331.636305 
L 751.573832 332.966255 
L 752.881517 330.44784 
L 754.189201 332.768177 
L 755.496886 332.5701 
L 756.804571 331.919273 
L 758.112256 331.890977 
L 759.419941 332.188093 
L 760.727625 332.060757 
L 762.03531 332.060757 
L 763.342995 332.824771 
L 764.65068 332.966255 
L 765.958365 332.287132 
L 767.266049 331.084518 
L 768.573734 332.38617 
L 769.881419 332.131499 
L 771.189104 332.598396 
L 772.496789 332.810622 
L 773.804473 332.485209 
L 775.112158 331.721196 
L 776.419843 331.735344 
L 777.727528 332.343725 
L 780.342897 332.555951 
L 781.650582 332.966255 
L 782.958267 332.683287 
L 784.265952 331.990015 
L 785.573637 332.428616 
L 788.189006 332.21639 
L 789.496691 332.796474 
L 790.804376 332.895513 
L 792.112061 332.513506 
L 794.72743 331.990015 
L 796.035115 332.173944 
L 797.3428 331.975867 
L 798.650485 332.966255 
L 799.958169 331.395783 
L 801.265854 332.65499 
L 802.573539 331.876828 
L 803.881224 331.395783 
L 805.188909 331.749493 
L 806.496593 330.999627 
L 807.804278 331.59386 
L 809.111963 332.541803 
L 810.419648 331.183557 
L 811.727333 330.36295 
L 813.035017 330.150724 
L 814.342702 330.348801 
L 815.650387 329.613084 
L 816.958072 330.306356 
L 818.265757 331.749493 
L 819.573441 330.419543 
L 820.881126 322.029543 
L 822.188811 327.773793 
L 823.496496 327.207857 
L 824.80418 328.806626 
L 826.111865 331.254299 
L 827.41955 331.664602 
L 828.727235 327.080521 
L 830.03492 326.104282 
L 831.342604 330.518582 
L 832.650289 314.37526 
L 833.957974 322.439847 
L 835.265659 329.712123 
L 836.573344 329.712123 
L 837.881028 316.794636 
L 839.188713 330.00924 
L 840.496398 314.134737 
L 841.804083 321.421162 
L 843.111768 321.095749 
L 844.419452 326.557031 
L 845.727137 327.604012 
L 847.034822 315.719358 
L 848.342507 314.361112 
L 849.650192 318.803709 
L 850.957876 320.416626 
L 852.265561 322.298363 
L 853.573246 326.641921 
L 854.880931 327.53327 
L 856.188616 325.071449 
L 857.4963 314.389408 
L 858.803985 306.25408 
L 860.11167 320.883523 
L 861.419355 321.590943 
L 862.72704 328.042612 
L 865.342409 316.242849 
L 866.650094 318.973489 
L 869.265464 323.232157 
L 870.573148 323.133118 
L 871.880833 328.141651 
L 873.188518 327.377638 
L 874.496203 323.82639 
L 875.803888 331.791938 
L 877.111572 310.003405 
L 878.419257 323.925429 
L 879.726942 325.877907 
L 881.034627 331.24015 
L 882.342312 329.047149 
L 883.649996 328.000167 
L 884.957681 323.090673 
L 886.265366 326.344805 
L 887.573051 326.47214 
L 888.880736 328.184096 
L 890.18842 331.579712 
L 891.496105 329.613084 
L 892.80379 325.722275 
L 895.41916 328.24069 
L 896.726844 329.556491 
L 898.034529 329.231078 
L 899.342214 331.820235 
L 900.649899 328.750032 
L 901.957583 330.122427 
L 903.265268 329.415007 
L 904.572953 328.452916 
L 907.188323 330.957182 
L 908.496007 331.848531 
L 909.803692 330.660066 
L 911.111377 330.334653 
L 912.419062 330.787402 
L 913.726747 330.787402 
L 915.034431 330.193169 
L 916.342116 331.409931 
L 917.649801 331.848531 
L 918.957486 332.824771 
L 920.265171 322.68037 
L 921.572855 330.914737 
L 922.88054 331.254299 
L 924.188225 332.38617 
L 925.49591 329.259375 
L 926.803595 332.626693 
L 928.111279 330.872292 
L 929.418964 331.905125 
L 930.726649 329.74042 
L 932.034334 331.438228 
L 933.342019 331.084518 
L 934.649703 332.414467 
L 935.957388 331.777789 
L 937.265073 331.763641 
L 938.572758 331.226002 
L 939.880443 330.928885 
L 941.188127 331.296744 
L 942.495812 330.999627 
L 943.803497 331.94757 
L 945.111182 332.499358 
L 946.418867 331.990015 
L 947.726551 331.169408 
L 949.034236 330.829847 
L 952.957291 331.933422 
L 954.264975 332.527654 
L 955.57266 331.24015 
L 956.880345 331.296744 
L 959.495715 331.070369 
L 960.803399 330.278059 
L 962.111084 331.735344 
L 963.418769 331.466525 
L 964.726454 331.890977 
L 966.034139 330.815698 
L 967.341823 332.513506 
L 968.649508 327.391786 
L 969.957193 332.499358 
L 971.264878 331.650454 
L 972.572562 332.018312 
L 973.880247 332.838919 
L 975.187932 330.815698 
L 976.495617 331.070369 
L 977.803302 330.263911 
L 979.110986 329.782865 
L 980.418671 331.438228 
L 981.726356 332.272983 
L 983.034041 332.867216 
L 984.341726 331.608009 
L 985.64941 331.027924 
L 989.572465 332.414467 
L 990.88015 332.074906 
L 992.187834 332.754029 
L 993.495519 330.744956 
L 994.803204 330.36295 
L 996.110889 330.674214 
L 998.726258 330.900589 
L 1000.033943 331.94757 
L 1001.341628 332.782326 
L 1002.649313 330.744956 
L 1003.956998 330.631769 
L 1005.264682 330.730808 
L 1006.572367 332.966255 
L 1007.880052 331.070369 
L 1009.187737 332.966255 
L 1010.495422 330.377098 
L 1011.803106 331.070369 
L 1013.110791 326.302359 
L 1014.418476 317.983102 
L 1015.726161 308.135817 
L 1017.033846 294.100606 
L 1018.34153 298.529055 
L 1019.649215 320.954265 
L 1020.9569 288.172427 
L 1022.264585 252.150607 
L 1023.57227 332.966255 
L 1024.879954 88.8498 
L 1026.187639 239.303862 
L 1027.495324 313.696137 
L 1028.803009 308.687604 
L 1031.418378 130.205566 
L 1032.726063 123.909529 
L 1034.033748 332.966255 
L 1035.341433 50.8755 
L 1037.956802 306.282377 
L 1039.264487 223.132243 
L 1040.572172 126.965583 
L 1041.879857 151.880912 
L 1043.187541 239.346307 
L 1044.495226 212.153086 
L 1045.802911 235.625278 
L 1047.110596 305.433473 
L 1048.418281 197.396307 
L 1051.03365 146.080069 
L 1052.341335 208.814064 
L 1053.64902 255.588667 
L 1054.956705 250.311315 
L 1056.264389 325.920353 
L 1057.572074 272.057402 
L 1058.879759 271.364131 
L 1060.187444 263.271247 
L 1061.495129 249.985902 
L 1062.802813 280.419105 
L 1064.110498 301.429476 
L 1065.418183 328.764181 
L 1066.725868 277.334755 
L 1068.033553 308.531972 
L 1069.341237 284.805109 
L 1070.648922 314.02155 
L 1071.956607 310.116592 
L 1074.571977 330.985479 
L 1075.879661 310.852309 
L 1077.187346 307.414248 
L 1078.495031 311.276761 
L 1079.802716 322.425698 
L 1081.110401 308.447081 
L 1082.418085 329.259375 
L 1083.72577 332.188093 
L 1085.033455 326.302359 
L 1086.34114 317.841618 
L 1087.648825 322.694518 
L 1088.956509 324.944113 
L 1090.264194 323.345344 
L 1091.571879 330.235614 
L 1092.879564 334.395243 
L 1094.187249 321.61924 
L 1095.494933 325.227081 
L 1096.802618 327.632309 
L 1098.110303 325.000707 
L 1099.417988 326.061837 
L 1100.725673 330.405395 
L 1102.033357 332.471061 
L 1103.341042 330.645918 
L 1104.648727 327.53327 
L 1105.956412 329.528194 
L 1107.264097 327.349341 
L 1108.571781 329.938498 
L 1109.879466 330.71666 
L 1111.187151 332.598396 
L 1112.494836 330.334653 
L 1113.802521 328.509509 
L 1115.110205 329.669678 
L 1116.41789 328.495361 
L 1117.725575 330.306356 
L 1119.03326 330.900589 
L 1120.340944 332.640842 
L 1121.648629 330.391246 
L 1122.956314 329.188633 
L 1124.263999 329.995091 
L 1125.571684 330.433692 
L 1126.879368 328.792477 
L 1128.187053 332.414467 
L 1129.494738 331.452376 
L 1130.802423 330.065833 
L 1132.110108 326.670218 
L 1133.417792 329.372562 
L 1134.725477 329.839459 
L 1136.033162 328.905665 
L 1137.340847 331.141111 
L 1138.648532 332.428616 
L 1139.956216 329.415007 
L 1141.263901 329.485749 
L 1142.571586 328.523658 
L 1143.879271 324.279139 
L 1145.186956 329.344265 
L 1146.49464 330.575176 
L 1147.802325 332.428616 
L 1149.11001 327.236154 
L 1150.417695 325.962798 
L 1151.72538 324.463068 
L 1153.033064 326.854147 
L 1154.340749 324.816778 
L 1155.648434 328.1558 
L 1156.956119 332.046609 
L 1159.571488 317.20494 
L 1160.879173 320.954265 
L 1162.186858 322.920892 
L 1163.494543 314.884602 
L 1164.802228 323.500977 
L 1166.109912 331.310892 
L 1167.417597 314.431854 
L 1168.725282 308.46123 
L 1170.032967 332.966255 
L 1171.340652 332.966255 
L 1172.648336 265.676475 
L 1173.956021 316.780488 
L 1175.263706 327.88698 
L 1176.571391 300.014636 
L 1177.879076 278.240252 
L 1179.18676 266.69516 
L 1180.494445 269.553136 
L 1181.80213 275.820876 
L 1183.109815 301.57096 
L 1184.4175 323.331196 
L 1185.725184 291.737824 
L 1187.032869 269.638026 
L 1188.340554 259.408735 
L 1189.648239 259.691703 
L 1190.955923 259.380438 
L 1192.263608 295.855007 
L 1193.571293 320.402478 
L 1194.878978 272.977048 
L 1196.186663 254.032344 
L 1197.494347 239.332158 
L 1198.802032 253.834266 
L 1200.109717 332.5701 
L 1201.417402 216.864503 
L 1202.725087 324.26499 
L 1204.032771 263.483473 
L 1205.340456 242.798516 
L 1207.955826 271.81688 
L 1209.263511 223.910405 
L 1210.571195 284.196728 
L 1211.87888 326.627773 
L 1213.186565 277.3772 
L 1214.49425 235.398904 
L 1215.801935 233.658651 
L 1217.109619 262.181821 
L 1218.417304 271.802731 
L 1219.724989 295.473001 
L 1221.032674 323.048228 
L 1222.340359 237.492867 
L 1223.648043 254.951989 
L 1224.955728 259.295548 
L 1226.263413 257.640185 
L 1227.571098 274.73145 
L 1228.878783 298.727132 
L 1230.186467 319.58187 
L 1231.494152 301.287992 
L 1232.801837 287.549898 
L 1234.109522 233.121012 
L 1235.417207 259.606812 
L 1236.724891 271.54806 
L 1239.340261 324.717739 
L 1240.647946 279.287234 
L 1241.955631 238.723777 
L 1243.263315 278.87693 
L 1244.571 291.978346 
L 1245.878685 278.735446 
L 1247.18637 301.500218 
L 1248.494055 327.44838 
L 1249.801739 270.246407 
L 1251.109424 280.419105 
L 1252.417109 279.075008 
L 1253.724794 292.233018 
L 1255.032479 244.949072 
L 1256.340163 305.376879 
L 1257.647848 324.194248 
L 1258.955533 307.102984 
L 1260.263218 250.608431 
L 1261.570902 269.935143 
L 1262.878587 272.991197 
L 1264.186272 281.154822 
L 1265.493957 312.861382 
L 1266.801642 321.562646 
L 1268.109326 283.715682 
L 1269.417011 263.483473 
L 1270.724696 281.777352 
L 1272.032381 282.796036 
L 1273.340066 309.819476 
L 1274.64775 328.368025 
L 1275.955435 330.71666 
L 1277.26312 329.160336 
L 1278.570805 332.966255 
L 1279.87849 144.948197 
L 1281.186174 297.609409 
L 1282.493859 285.894535 
L 1283.801544 309.989257 
L 1285.109229 327.717199 
L 1286.416914 299.222326 
L 1287.724598 292.133979 
L 1289.032283 268.477858 
L 1290.339968 324.463068 
L 1291.647653 277.179122 
L 1292.955338 313.073608 
L 1294.263022 325.637385 
L 1295.570707 283.461011 
L 1296.878392 282.739443 
L 1298.186077 288.257318 
L 1299.493762 290.648397 
L 1300.801446 289.502377 
L 1302.109131 311.998329 
L 1303.416816 327.703051 
L 1304.724501 298.090454 
L 1306.032186 293.902529 
L 1307.33987 276.995193 
L 1307.33987 276.995193 
" clip-path="url(#p41a6529f30)" style="fill: none; stroke: #0000ff; stroke-width: 1.5; stroke-linecap: square"/>
   </g>
   <g id="line2d_18">
    <path d="M 1068.033553 271.719255 
L 1069.341237 287.494132 
L 1070.648922 296.914652 
L 1071.956607 316.382733 
L 1073.264292 353.0855 
L 1074.571977 314.57334 
L 1075.879661 311.731612 
L 1077.187346 300.406203 
L 1078.495031 317.263949 
L 1079.802716 316.846045 
L 1081.110401 330.788166 
L 1082.418085 353.2755 
L 1083.72577 322.436566 
L 1085.033455 319.338595 
L 1086.34114 312.222109 
L 1087.648825 326.815738 
L 1088.956509 323.076737 
L 1090.264194 337.845197 
L 1091.571879 350.35411 
L 1092.879564 331.037867 
L 1094.187249 325.165158 
L 1095.494933 321.859254 
L 1096.802618 328.836352 
L 1098.110303 326.064765 
L 1099.417988 336.716466 
L 1100.725673 344.967709 
L 1102.033357 329.93628 
L 1103.341042 327.412382 
L 1104.648727 325.515355 
L 1105.956412 330.102923 
L 1107.264097 328.877854 
L 1108.571781 336.590857 
L 1109.879466 341.529499 
L 1111.187151 332.16118 
L 1112.494836 329.451571 
L 1113.802521 328.514387 
L 1115.110205 330.160452 
L 1116.41789 329.923581 
L 1117.725575 334.523379 
L 1119.03326 337.959735 
L 1120.340944 331.798621 
L 1121.648629 329.696772 
L 1122.956314 329.426415 
L 1124.263999 330.046706 
L 1125.571684 330.472415 
L 1128.187053 336.027999 
L 1129.494738 331.380192 
L 1130.802423 330.008608 
L 1132.110108 329.567718 
L 1133.417792 329.999424 
L 1134.725477 329.262512 
L 1136.033162 331.69652 
L 1137.340847 333.085916 
L 1138.648532 330.330508 
L 1139.956216 328.644681 
L 1141.263901 329.600405 
L 1142.571586 329.853945 
L 1143.879271 329.269003 
L 1145.186956 331.209558 
L 1146.49464 331.37613 
L 1147.802325 328.940024 
L 1149.11001 327.826589 
L 1150.417695 328.466096 
L 1151.72538 327.168553 
L 1153.033064 327.862502 
L 1154.340749 328.360414 
L 1155.648434 329.461044 
L 1156.956119 326.514396 
L 1158.263804 325.529084 
L 1160.879173 324.951614 
L 1162.186858 323.536048 
L 1163.494543 323.607663 
L 1164.802228 324.980105 
L 1166.109912 320.834104 
L 1167.417597 317.835923 
L 1168.725282 319.109368 
L 1170.032967 320.14742 
L 1171.340652 317.265243 
L 1172.648336 318.239237 
L 1173.956021 324.458778 
L 1175.263706 310.419181 
L 1176.571391 304.748434 
L 1177.879076 309.383016 
L 1179.18676 307.167796 
L 1180.494445 282.630223 
L 1181.80213 288.662797 
L 1183.109815 286.998826 
L 1184.4175 277.919666 
L 1185.725184 274.938379 
L 1187.032869 283.045666 
L 1188.340554 285.193869 
L 1189.648239 272.953615 
L 1190.955923 281.920087 
L 1192.263608 286.079191 
L 1193.571293 271.978431 
L 1194.878978 264.923925 
L 1196.186663 269.160495 
L 1197.494347 268.816183 
L 1198.802032 259.951052 
L 1200.109717 276.975887 
L 1201.417402 279.337379 
L 1202.725087 276.118306 
L 1204.032771 256.555842 
L 1205.340456 257.616706 
L 1206.648141 257.502393 
L 1207.955826 274.146288 
L 1209.263511 251.189828 
L 1210.571195 289.989266 
L 1211.87888 257.53154 
L 1213.186565 251.552977 
L 1214.49425 257.051604 
L 1215.801935 267.542166 
L 1217.109619 262.124225 
L 1218.417304 260.872421 
L 1219.724989 291.764456 
L 1221.032674 267.736317 
L 1222.340359 255.1228 
L 1223.648043 261.617479 
L 1224.955728 266.931436 
L 1226.263413 265.272948 
L 1227.571098 273.14107 
L 1228.878783 299.84824 
L 1230.186467 264.543052 
L 1231.494152 265.330385 
L 1232.801837 271.668915 
L 1234.109522 280.87352 
L 1235.417207 288.376019 
L 1236.724891 291.715213 
L 1238.032576 306.941186 
L 1239.340261 276.772527 
L 1240.647946 272.147153 
L 1241.955631 260.966344 
L 1243.263315 273.911215 
L 1244.571 274.682421 
L 1245.878685 289.284125 
L 1247.18637 312.360582 
L 1248.494055 288.31453 
L 1249.801739 274.168755 
L 1251.109424 278.854523 
L 1252.417109 285.271788 
L 1253.724794 286.568465 
L 1255.032479 296.559478 
L 1256.340163 317.293279 
L 1257.647848 279.960243 
L 1258.955533 276.277942 
L 1260.263218 276.128126 
L 1261.570902 291.175081 
L 1262.878587 274.355241 
L 1264.186272 295.839071 
L 1265.493957 307.912547 
L 1266.801642 287.918027 
L 1268.109326 273.523215 
L 1269.417011 281.399692 
L 1270.724696 286.751004 
L 1272.032381 278.854661 
L 1273.340066 302.3264 
L 1274.64775 314.811448 
L 1275.955435 298.548831 
L 1277.26312 290.129364 
L 1278.570805 304.011967 
L 1279.87849 299.816289 
L 1281.186174 312.600857 
L 1282.493859 301.761664 
L 1283.801544 305.28962 
L 1285.109229 286.647576 
L 1286.416914 285.735519 
L 1287.724598 248.780685 
L 1289.032283 292.31935 
L 1290.339968 294.438792 
L 1291.647653 311.793607 
L 1292.955338 326.657385 
L 1294.263022 309.003485 
L 1295.570707 299.620077 
L 1296.878392 266.19805 
L 1298.186077 302.495818 
L 1299.493762 286.087933 
L 1300.801446 308.495642 
L 1302.109131 316.322291 
L 1303.416816 298.383432 
L 1304.724501 293.676932 
L 1306.032186 278.705175 
L 1307.33987 302.217272 
L 1307.33987 302.217272 
" clip-path="url(#p41a6529f30)" style="fill: none; stroke: #ffa500; stroke-width: 1.5; stroke-linecap: square"/>
   </g>
   <g id="line2d_19">
    <path d="M 1307.33987 302.217272 
L 1308.647555 294.577459 
L 1309.95524 310.645823 
L 1311.262925 319.489432 
L 1312.57061 300.487841 
L 1313.878294 297.048228 
L 1315.185979 282.606194 
L 1316.493664 302.693123 
L 1317.801349 296.291179 
L 1319.109034 310.3092 
L 1320.416718 317.814078 
L 1321.724403 301.669498 
L 1323.032088 298.70675 
L 1324.339773 286.520334 
" clip-path="url(#p41a6529f30)" style="fill: none; stroke: #ff0000; stroke-width: 1.5; stroke-linecap: square"/>
   </g>
   <g id="patch_3">
    <path d="M 46.0125 368.3955 
L 46.0125 35.7555 
" style="fill: none; stroke: #000000; stroke-width: 0.8; stroke-linejoin: miter; stroke-linecap: square"/>
   </g>
   <g id="patch_4">
    <path d="M 1385.2125 368.3955 
L 1385.2125 35.7555 
" style="fill: none; stroke: #000000; stroke-width: 0.8; stroke-linejoin: miter; stroke-linecap: square"/>
   </g>
   <g id="patch_5">
    <path d="M 46.0125 368.3955 
L 1385.2125 368.3955 
" style="fill: none; stroke: #000000; stroke-width: 0.8; stroke-linejoin: miter; stroke-linecap: square"/>
   </g>
   <g id="patch_6">
    <path d="M 46.0125 35.7555 
L 1385.2125 35.7555 
" style="fill: none; stroke: #000000; stroke-width: 0.8; stroke-linejoin: miter; stroke-linecap: square"/>
   </g>
   <g id="text_17">
    <!-- Daily Confirmed Cases Forecasting - Puerto Rico -->
    <g transform="translate(570.901875 16.318125)scale(0.12 -0.12)">
     <defs>
      <path id="DejaVuSans-44" d="M 1259 4147 
L 1259 519 
L 2022 519 
Q 2988 519 3436 956 
Q 3884 1394 3884 2338 
Q 3884 3275 3436 3711 
Q 2988 4147 2022 4147 
L 1259 4147 
z
M 628 4666 
L 1925 4666 
Q 3281 4666 3915 4102 
Q 4550 3538 4550 2338 
Q 4550 1131 3912 565 
Q 3275 0 1925 0 
L 628 0 
L 628 4666 
z
" transform="scale(0.015625)"/>
      <path id="DejaVuSans-61" d="M 2194 1759 
Q 1497 1759 1228 1600 
Q 959 1441 959 1056 
Q 959 750 1161 570 
Q 1363 391 1709 391 
Q 2188 391 2477 730 
Q 2766 1069 2766 1631 
L 2766 1759 
L 2194 1759 
z
M 3341 1997 
L 3341 0 
L 2766 0 
L 2766 531 
Q 2569 213 2275 61 
Q 1981 -91 1556 -91 
Q 1019 -91 701 211 
Q 384 513 384 1019 
Q 384 1609 779 1909 
Q 1175 2209 1959 2209 
L 2766 2209 
L 2766 2266 
Q 2766 2663 2505 2880 
Q 2244 3097 1772 3097 
Q 1472 3097 1187 3025 
Q 903 2953 641 2809 
L 641 3341 
Q 956 3463 1253 3523 
Q 1550 3584 1831 3584 
Q 2591 3584 2966 3190 
Q 3341 2797 3341 1997 
z
" transform="scale(0.015625)"/>
      <path id="DejaVuSans-69" d="M 603 3500 
L 1178 3500 
L 1178 0 
L 603 0 
L 603 3500 
z
M 603 4863 
L 1178 4863 
L 1178 4134 
L 603 4134 
L 603 4863 
z
" transform="scale(0.015625)"/>
      <path id="DejaVuSans-6c" d="M 603 4863 
L 1178 4863 
L 1178 0 
L 603 0 
L 603 4863 
z
" transform="scale(0.015625)"/>
      <path id="DejaVuSans-79" d="M 2059 -325 
Q 1816 -950 1584 -1140 
Q 1353 -1331 966 -1331 
L 506 -1331 
L 506 -850 
L 844 -850 
Q 1081 -850 1212 -737 
Q 1344 -625 1503 -206 
L 1606 56 
L 191 3500 
L 800 3500 
L 1894 763 
L 2988 3500 
L 3597 3500 
L 2059 -325 
z
" transform="scale(0.015625)"/>
      <path id="DejaVuSans-20" transform="scale(0.015625)"/>
      <path id="DejaVuSans-43" d="M 4122 4306 
L 4122 3641 
Q 3803 3938 3442 4084 
Q 3081 4231 2675 4231 
Q 1875 4231 1450 3742 
Q 1025 3253 1025 2328 
Q 1025 1406 1450 917 
Q 1875 428 2675 428 
Q 3081 428 3442 575 
Q 3803 722 4122 1019 
L 4122 359 
Q 3791 134 3420 21 
Q 3050 -91 2638 -91 
Q 1578 -91 968 557 
Q 359 1206 359 2328 
Q 359 3453 968 4101 
Q 1578 4750 2638 4750 
Q 3056 4750 3426 4639 
Q 3797 4528 4122 4306 
z
" transform="scale(0.015625)"/>
      <path id="DejaVuSans-6f" d="M 1959 3097 
Q 1497 3097 1228 2736 
Q 959 2375 959 1747 
Q 959 1119 1226 758 
Q 1494 397 1959 397 
Q 2419 397 2687 759 
Q 2956 1122 2956 1747 
Q 2956 2369 2687 2733 
Q 2419 3097 1959 3097 
z
M 1959 3584 
Q 2709 3584 3137 3096 
Q 3566 2609 3566 1747 
Q 3566 888 3137 398 
Q 2709 -91 1959 -91 
Q 1206 -91 779 398 
Q 353 888 353 1747 
Q 353 2609 779 3096 
Q 1206 3584 1959 3584 
z
" transform="scale(0.015625)"/>
      <path id="DejaVuSans-6e" d="M 3513 2113 
L 3513 0 
L 2938 0 
L 2938 2094 
Q 2938 2591 2744 2837 
Q 2550 3084 2163 3084 
Q 1697 3084 1428 2787 
Q 1159 2491 1159 1978 
L 1159 0 
L 581 0 
L 581 3500 
L 1159 3500 
L 1159 2956 
Q 1366 3272 1645 3428 
Q 1925 3584 2291 3584 
Q 2894 3584 3203 3211 
Q 3513 2838 3513 2113 
z
" transform="scale(0.015625)"/>
      <path id="DejaVuSans-66" d="M 2375 4863 
L 2375 4384 
L 1825 4384 
Q 1516 4384 1395 4259 
Q 1275 4134 1275 3809 
L 1275 3500 
L 2222 3500 
L 2222 3053 
L 1275 3053 
L 1275 0 
L 697 0 
L 697 3053 
L 147 3053 
L 147 3500 
L 697 3500 
L 697 3744 
Q 697 4328 969 4595 
Q 1241 4863 1831 4863 
L 2375 4863 
z
" transform="scale(0.015625)"/>
      <path id="DejaVuSans-72" d="M 2631 2963 
Q 2534 3019 2420 3045 
Q 2306 3072 2169 3072 
Q 1681 3072 1420 2755 
Q 1159 2438 1159 1844 
L 1159 0 
L 581 0 
L 581 3500 
L 1159 3500 
L 1159 2956 
Q 1341 3275 1631 3429 
Q 1922 3584 2338 3584 
Q 2397 3584 2469 3576 
Q 2541 3569 2628 3553 
L 2631 2963 
z
" transform="scale(0.015625)"/>
      <path id="DejaVuSans-6d" d="M 3328 2828 
Q 3544 3216 3844 3400 
Q 4144 3584 4550 3584 
Q 5097 3584 5394 3201 
Q 5691 2819 5691 2113 
L 5691 0 
L 5113 0 
L 5113 2094 
Q 5113 2597 4934 2840 
Q 4756 3084 4391 3084 
Q 3944 3084 3684 2787 
Q 3425 2491 3425 1978 
L 3425 0 
L 2847 0 
L 2847 2094 
Q 2847 2600 2669 2842 
Q 2491 3084 2119 3084 
Q 1678 3084 1418 2786 
Q 1159 2488 1159 1978 
L 1159 0 
L 581 0 
L 581 3500 
L 1159 3500 
L 1159 2956 
Q 1356 3278 1631 3431 
Q 1906 3584 2284 3584 
Q 2666 3584 2933 3390 
Q 3200 3197 3328 2828 
z
" transform="scale(0.015625)"/>
      <path id="DejaVuSans-65" d="M 3597 1894 
L 3597 1613 
L 953 1613 
Q 991 1019 1311 708 
Q 1631 397 2203 397 
Q 2534 397 2845 478 
Q 3156 559 3463 722 
L 3463 178 
Q 3153 47 2828 -22 
Q 2503 -91 2169 -91 
Q 1331 -91 842 396 
Q 353 884 353 1716 
Q 353 2575 817 3079 
Q 1281 3584 2069 3584 
Q 2775 3584 3186 3129 
Q 3597 2675 3597 1894 
z
M 3022 2063 
Q 3016 2534 2758 2815 
Q 2500 3097 2075 3097 
Q 1594 3097 1305 2825 
Q 1016 2553 972 2059 
L 3022 2063 
z
" transform="scale(0.015625)"/>
      <path id="DejaVuSans-64" d="M 2906 2969 
L 2906 4863 
L 3481 4863 
L 3481 0 
L 2906 0 
L 2906 525 
Q 2725 213 2448 61 
Q 2172 -91 1784 -91 
Q 1150 -91 751 415 
Q 353 922 353 1747 
Q 353 2572 751 3078 
Q 1150 3584 1784 3584 
Q 2172 3584 2448 3432 
Q 2725 3281 2906 2969 
z
M 947 1747 
Q 947 1113 1208 752 
Q 1469 391 1925 391 
Q 2381 391 2643 752 
Q 2906 1113 2906 1747 
Q 2906 2381 2643 2742 
Q 2381 3103 1925 3103 
Q 1469 3103 1208 2742 
Q 947 2381 947 1747 
z
" transform="scale(0.015625)"/>
      <path id="DejaVuSans-73" d="M 2834 3397 
L 2834 2853 
Q 2591 2978 2328 3040 
Q 2066 3103 1784 3103 
Q 1356 3103 1142 2972 
Q 928 2841 928 2578 
Q 928 2378 1081 2264 
Q 1234 2150 1697 2047 
L 1894 2003 
Q 2506 1872 2764 1633 
Q 3022 1394 3022 966 
Q 3022 478 2636 193 
Q 2250 -91 1575 -91 
Q 1294 -91 989 -36 
Q 684 19 347 128 
L 347 722 
Q 666 556 975 473 
Q 1284 391 1588 391 
Q 1994 391 2212 530 
Q 2431 669 2431 922 
Q 2431 1156 2273 1281 
Q 2116 1406 1581 1522 
L 1381 1569 
Q 847 1681 609 1914 
Q 372 2147 372 2553 
Q 372 3047 722 3315 
Q 1072 3584 1716 3584 
Q 2034 3584 2315 3537 
Q 2597 3491 2834 3397 
z
" transform="scale(0.015625)"/>
      <path id="DejaVuSans-46" d="M 628 4666 
L 3309 4666 
L 3309 4134 
L 1259 4134 
L 1259 2759 
L 3109 2759 
L 3109 2228 
L 1259 2228 
L 1259 0 
L 628 0 
L 628 4666 
z
" transform="scale(0.015625)"/>
      <path id="DejaVuSans-63" d="M 3122 3366 
L 3122 2828 
Q 2878 2963 2633 3030 
Q 2388 3097 2138 3097 
Q 1578 3097 1268 2742 
Q 959 2388 959 1747 
Q 959 1106 1268 751 
Q 1578 397 2138 397 
Q 2388 397 2633 464 
Q 2878 531 3122 666 
L 3122 134 
Q 2881 22 2623 -34 
Q 2366 -91 2075 -91 
Q 1284 -91 818 406 
Q 353 903 353 1747 
Q 353 2603 823 3093 
Q 1294 3584 2113 3584 
Q 2378 3584 2631 3529 
Q 2884 3475 3122 3366 
z
" transform="scale(0.015625)"/>
      <path id="DejaVuSans-74" d="M 1172 4494 
L 1172 3500 
L 2356 3500 
L 2356 3053 
L 1172 3053 
L 1172 1153 
Q 1172 725 1289 603 
Q 1406 481 1766 481 
L 2356 481 
L 2356 0 
L 1766 0 
Q 1100 0 847 248 
Q 594 497 594 1153 
L 594 3053 
L 172 3053 
L 172 3500 
L 594 3500 
L 594 4494 
L 1172 4494 
z
" transform="scale(0.015625)"/>
      <path id="DejaVuSans-67" d="M 2906 1791 
Q 2906 2416 2648 2759 
Q 2391 3103 1925 3103 
Q 1463 3103 1205 2759 
Q 947 2416 947 1791 
Q 947 1169 1205 825 
Q 1463 481 1925 481 
Q 2391 481 2648 825 
Q 2906 1169 2906 1791 
z
M 3481 434 
Q 3481 -459 3084 -895 
Q 2688 -1331 1869 -1331 
Q 1566 -1331 1297 -1286 
Q 1028 -1241 775 -1147 
L 775 -588 
Q 1028 -725 1275 -790 
Q 1522 -856 1778 -856 
Q 2344 -856 2625 -561 
Q 2906 -266 2906 331 
L 2906 616 
Q 2728 306 2450 153 
Q 2172 0 1784 0 
Q 1141 0 747 490 
Q 353 981 353 1791 
Q 353 2603 747 3093 
Q 1141 3584 1784 3584 
Q 2172 3584 2450 3431 
Q 2728 3278 2906 2969 
L 2906 3500 
L 3481 3500 
L 3481 434 
z
" transform="scale(0.015625)"/>
      <path id="DejaVuSans-50" d="M 1259 4147 
L 1259 2394 
L 2053 2394 
Q 2494 2394 2734 2622 
Q 2975 2850 2975 3272 
Q 2975 3691 2734 3919 
Q 2494 4147 2053 4147 
L 1259 4147 
z
M 628 4666 
L 2053 4666 
Q 2838 4666 3239 4311 
Q 3641 3956 3641 3272 
Q 3641 2581 3239 2228 
Q 2838 1875 2053 1875 
L 1259 1875 
L 1259 0 
L 628 0 
L 628 4666 
z
" transform="scale(0.015625)"/>
      <path id="DejaVuSans-75" d="M 544 1381 
L 544 3500 
L 1119 3500 
L 1119 1403 
Q 1119 906 1312 657 
Q 1506 409 1894 409 
Q 2359 409 2629 706 
Q 2900 1003 2900 1516 
L 2900 3500 
L 3475 3500 
L 3475 0 
L 2900 0 
L 2900 538 
Q 2691 219 2414 64 
Q 2138 -91 1772 -91 
Q 1169 -91 856 284 
Q 544 659 544 1381 
z
M 1991 3584 
L 1991 3584 
z
" transform="scale(0.015625)"/>
      <path id="DejaVuSans-52" d="M 2841 2188 
Q 3044 2119 3236 1894 
Q 3428 1669 3622 1275 
L 4263 0 
L 3584 0 
L 2988 1197 
Q 2756 1666 2539 1819 
Q 2322 1972 1947 1972 
L 1259 1972 
L 1259 0 
L 628 0 
L 628 4666 
L 2053 4666 
Q 2853 4666 3247 4331 
Q 3641 3997 3641 3322 
Q 3641 2881 3436 2590 
Q 3231 2300 2841 2188 
z
M 1259 4147 
L 1259 2491 
L 2053 2491 
Q 2509 2491 2742 2702 
Q 2975 2913 2975 3322 
Q 2975 3731 2742 3939 
Q 2509 4147 2053 4147 
L 1259 4147 
z
" transform="scale(0.015625)"/>
     </defs>
     <use xlink:href="#DejaVuSans-44"/>
     <use xlink:href="#DejaVuSans-61" x="77.001953"/>
     <use xlink:href="#DejaVuSans-69" x="138.28125"/>
     <use xlink:href="#DejaVuSans-6c" x="166.064453"/>
     <use xlink:href="#DejaVuSans-79" x="193.847656"/>
     <use xlink:href="#DejaVuSans-20" x="253.027344"/>
     <use xlink:href="#DejaVuSans-43" x="284.814453"/>
     <use xlink:href="#DejaVuSans-6f" x="354.638672"/>
     <use xlink:href="#DejaVuSans-6e" x="415.820312"/>
     <use xlink:href="#DejaVuSans-66" x="479.199219"/>
     <use xlink:href="#DejaVuSans-69" x="514.404297"/>
     <use xlink:href="#DejaVuSans-72" x="542.1875"/>
     <use xlink:href="#DejaVuSans-6d" x="581.550781"/>
     <use xlink:href="#DejaVuSans-65" x="678.962891"/>
     <use xlink:href="#DejaVuSans-64" x="740.486328"/>
     <use xlink:href="#DejaVuSans-20" x="803.962891"/>
     <use xlink:href="#DejaVuSans-43" x="835.75"/>
     <use xlink:href="#DejaVuSans-61" x="905.574219"/>
     <use xlink:href="#DejaVuSans-73" x="966.853516"/>
     <use xlink:href="#DejaVuSans-65" x="1018.953125"/>
     <use xlink:href="#DejaVuSans-73" x="1080.476562"/>
     <use xlink:href="#DejaVuSans-20" x="1132.576172"/>
     <use xlink:href="#DejaVuSans-46" x="1164.363281"/>
     <use xlink:href="#DejaVuSans-6f" x="1218.257812"/>
     <use xlink:href="#DejaVuSans-72" x="1279.439453"/>
     <use xlink:href="#DejaVuSans-65" x="1318.302734"/>
     <use xlink:href="#DejaVuSans-63" x="1379.826172"/>
     <use xlink:href="#DejaVuSans-61" x="1434.806641"/>
     <use xlink:href="#DejaVuSans-73" x="1496.085938"/>
     <use xlink:href="#DejaVuSans-74" x="1548.185547"/>
     <use xlink:href="#DejaVuSans-69" x="1587.394531"/>
     <use xlink:href="#DejaVuSans-6e" x="1615.177734"/>
     <use xlink:href="#DejaVuSans-67" x="1678.556641"/>
     <use xlink:href="#DejaVuSans-20" x="1742.033203"/>
     <use xlink:href="#DejaVuSans-2d" x="1773.820312"/>
     <use xlink:href="#DejaVuSans-20" x="1809.904297"/>
     <use xlink:href="#DejaVuSans-50" x="1841.691406"/>
     <use xlink:href="#DejaVuSans-75" x="1900.244141"/>
     <use xlink:href="#DejaVuSans-65" x="1963.623047"/>
     <use xlink:href="#DejaVuSans-72" x="2025.146484"/>
     <use xlink:href="#DejaVuSans-74" x="2066.259766"/>
     <use xlink:href="#DejaVuSans-6f" x="2105.46875"/>
     <use xlink:href="#DejaVuSans-20" x="2166.650391"/>
     <use xlink:href="#DejaVuSans-52" x="2198.4375"/>
     <use xlink:href="#DejaVuSans-69" x="2267.919922"/>
     <use xlink:href="#DejaVuSans-63" x="2295.703125"/>
     <use xlink:href="#DejaVuSans-6f" x="2350.683594"/>
    </g>
    <!-- ARIMA (4, 1, 1)x(1, 0, 1, 7) (R2 = 0.445420) -->
    <g transform="translate(583.628438 29.7555)scale(0.12 -0.12)">
     <defs>
      <path id="DejaVuSans-41" d="M 2188 4044 
L 1331 1722 
L 3047 1722 
L 2188 4044 
z
M 1831 4666 
L 2547 4666 
L 4325 0 
L 3669 0 
L 3244 1197 
L 1141 1197 
L 716 0 
L 50 0 
L 1831 4666 
z
" transform="scale(0.015625)"/>
      <path id="DejaVuSans-49" d="M 628 4666 
L 1259 4666 
L 1259 0 
L 628 0 
L 628 4666 
z
" transform="scale(0.015625)"/>
      <path id="DejaVuSans-4d" d="M 628 4666 
L 1569 4666 
L 2759 1491 
L 3956 4666 
L 4897 4666 
L 4897 0 
L 4281 0 
L 4281 4097 
L 3078 897 
L 2444 897 
L 1241 4097 
L 1241 0 
L 628 0 
L 628 4666 
z
" transform="scale(0.015625)"/>
      <path id="DejaVuSans-28" d="M 1984 4856 
Q 1566 4138 1362 3434 
Q 1159 2731 1159 2009 
Q 1159 1288 1364 580 
Q 1569 -128 1984 -844 
L 1484 -844 
Q 1016 -109 783 600 
Q 550 1309 550 2009 
Q 550 2706 781 3412 
Q 1013 4119 1484 4856 
L 1984 4856 
z
" transform="scale(0.015625)"/>
      <path id="DejaVuSans-2c" d="M 750 794 
L 1409 794 
L 1409 256 
L 897 -744 
L 494 -744 
L 750 256 
L 750 794 
z
" transform="scale(0.015625)"/>
      <path id="DejaVuSans-29" d="M 513 4856 
L 1013 4856 
Q 1481 4119 1714 3412 
Q 1947 2706 1947 2009 
Q 1947 1309 1714 600 
Q 1481 -109 1013 -844 
L 513 -844 
Q 928 -128 1133 580 
Q 1338 1288 1338 2009 
Q 1338 2731 1133 3434 
Q 928 4138 513 4856 
z
" transform="scale(0.015625)"/>
      <path id="DejaVuSans-78" d="M 3513 3500 
L 2247 1797 
L 3578 0 
L 2900 0 
L 1881 1375 
L 863 0 
L 184 0 
L 1544 1831 
L 300 3500 
L 978 3500 
L 1906 2253 
L 2834 3500 
L 3513 3500 
z
" transform="scale(0.015625)"/>
      <path id="DejaVuSans-3d" d="M 678 2906 
L 4684 2906 
L 4684 2381 
L 678 2381 
L 678 2906 
z
M 678 1631 
L 4684 1631 
L 4684 1100 
L 678 1100 
L 678 1631 
z
" transform="scale(0.015625)"/>
      <path id="DejaVuSans-2e" d="M 684 794 
L 1344 794 
L 1344 0 
L 684 0 
L 684 794 
z
" transform="scale(0.015625)"/>
     </defs>
     <use xlink:href="#DejaVuSans-41"/>
     <use xlink:href="#DejaVuSans-52" x="68.408203"/>
     <use xlink:href="#DejaVuSans-49" x="137.890625"/>
     <use xlink:href="#DejaVuSans-4d" x="167.382812"/>
     <use xlink:href="#DejaVuSans-41" x="253.662109"/>
     <use xlink:href="#DejaVuSans-20" x="322.070312"/>
     <use xlink:href="#DejaVuSans-28" x="353.857422"/>
     <use xlink:href="#DejaVuSans-34" x="392.871094"/>
     <use xlink:href="#DejaVuSans-2c" x="456.494141"/>
     <use xlink:href="#DejaVuSans-20" x="488.28125"/>
     <use xlink:href="#DejaVuSans-31" x="520.068359"/>
     <use xlink:href="#DejaVuSans-2c" x="583.691406"/>
     <use xlink:href="#DejaVuSans-20" x="615.478516"/>
     <use xlink:href="#DejaVuSans-31" x="647.265625"/>
     <use xlink:href="#DejaVuSans-29" x="710.888672"/>
     <use xlink:href="#DejaVuSans-78" x="749.902344"/>
     <use xlink:href="#DejaVuSans-28" x="809.082031"/>
     <use xlink:href="#DejaVuSans-31" x="848.095703"/>
     <use xlink:href="#DejaVuSans-2c" x="911.71875"/>
     <use xlink:href="#DejaVuSans-20" x="943.505859"/>
     <use xlink:href="#DejaVuSans-30" x="975.292969"/>
     <use xlink:href="#DejaVuSans-2c" x="1038.916016"/>
     <use xlink:href="#DejaVuSans-20" x="1070.703125"/>
     <use xlink:href="#DejaVuSans-31" x="1102.490234"/>
     <use xlink:href="#DejaVuSans-2c" x="1166.113281"/>
     <use xlink:href="#DejaVuSans-20" x="1197.900391"/>
     <use xlink:href="#DejaVuSans-37" x="1229.6875"/>
     <use xlink:href="#DejaVuSans-29" x="1293.310547"/>
     <use xlink:href="#DejaVuSans-20" x="1332.324219"/>
     <use xlink:href="#DejaVuSans-28" x="1364.111328"/>
     <use xlink:href="#DejaVuSans-52" x="1403.125"/>
     <use xlink:href="#DejaVuSans-32" x="1472.607422"/>
     <use xlink:href="#DejaVuSans-20" x="1536.230469"/>
     <use xlink:href="#DejaVuSans-3d" x="1568.017578"/>
     <use xlink:href="#DejaVuSans-20" x="1651.806641"/>
     <use xlink:href="#DejaVuSans-30" x="1683.59375"/>
     <use xlink:href="#DejaVuSans-2e" x="1747.216797"/>
     <use xlink:href="#DejaVuSans-34" x="1779.003906"/>
     <use xlink:href="#DejaVuSans-34" x="1842.626953"/>
     <use xlink:href="#DejaVuSans-35" x="1906.25"/>
     <use xlink:href="#DejaVuSans-34" x="1969.873047"/>
     <use xlink:href="#DejaVuSans-32" x="2033.496094"/>
     <use xlink:href="#DejaVuSans-30" x="2097.119141"/>
     <use xlink:href="#DejaVuSans-29" x="2160.742188"/>
    </g>
   </g>
   <g id="legend_1">
    <g id="patch_7">
     <path d="M 1281.132812 87.789875 
L 1378.2125 87.789875 
Q 1380.2125 87.789875 1380.2125 85.789875 
L 1380.2125 42.7555 
Q 1380.2125 40.7555 1378.2125 40.7555 
L 1281.132812 40.7555 
Q 1279.132812 40.7555 1279.132812 42.7555 
L 1279.132812 85.789875 
Q 1279.132812 87.789875 1281.132812 87.789875 
z
" style="fill: #ffffff; opacity: 0.8; stroke: #cccccc; stroke-linejoin: miter"/>
    </g>
    <g id="line2d_20">
     <path d="M 1283.132812 48.853937 
L 1293.132812 48.853937 
L 1303.132812 48.853937 
" style="fill: none; stroke: #0000ff; stroke-width: 1.5; stroke-linecap: square"/>
    </g>
    <g id="text_18">
     <!-- Actual Value -->
     <g transform="translate(1311.132812 52.353937)scale(0.1 -0.1)">
      <defs>
       <path id="DejaVuSans-56" d="M 1831 0 
L 50 4666 
L 709 4666 
L 2188 738 
L 3669 4666 
L 4325 4666 
L 2547 0 
L 1831 0 
z
" transform="scale(0.015625)"/>
      </defs>
      <use xlink:href="#DejaVuSans-41"/>
      <use xlink:href="#DejaVuSans-63" x="66.658203"/>
      <use xlink:href="#DejaVuSans-74" x="121.638672"/>
      <use xlink:href="#DejaVuSans-75" x="160.847656"/>
      <use xlink:href="#DejaVuSans-61" x="224.226562"/>
      <use xlink:href="#DejaVuSans-6c" x="285.505859"/>
      <use xlink:href="#DejaVuSans-20" x="313.289062"/>
      <use xlink:href="#DejaVuSans-56" x="345.076172"/>
      <use xlink:href="#DejaVuSans-61" x="405.734375"/>
      <use xlink:href="#DejaVuSans-6c" x="467.013672"/>
      <use xlink:href="#DejaVuSans-75" x="494.796875"/>
      <use xlink:href="#DejaVuSans-65" x="558.175781"/>
     </g>
    </g>
    <g id="line2d_21">
     <path d="M 1283.132812 63.532062 
L 1293.132812 63.532062 
L 1303.132812 63.532062 
" style="fill: none; stroke: #ffa500; stroke-width: 1.5; stroke-linecap: square"/>
    </g>
    <g id="text_19">
     <!-- Check Value -->
     <g transform="translate(1311.132812 67.032062)scale(0.1 -0.1)">
      <defs>
       <path id="DejaVuSans-68" d="M 3513 2113 
L 3513 0 
L 2938 0 
L 2938 2094 
Q 2938 2591 2744 2837 
Q 2550 3084 2163 3084 
Q 1697 3084 1428 2787 
Q 1159 2491 1159 1978 
L 1159 0 
L 581 0 
L 581 4863 
L 1159 4863 
L 1159 2956 
Q 1366 3272 1645 3428 
Q 1925 3584 2291 3584 
Q 2894 3584 3203 3211 
Q 3513 2838 3513 2113 
z
" transform="scale(0.015625)"/>
       <path id="DejaVuSans-6b" d="M 581 4863 
L 1159 4863 
L 1159 1991 
L 2875 3500 
L 3609 3500 
L 1753 1863 
L 3688 0 
L 2938 0 
L 1159 1709 
L 1159 0 
L 581 0 
L 581 4863 
z
" transform="scale(0.015625)"/>
      </defs>
      <use xlink:href="#DejaVuSans-43"/>
      <use xlink:href="#DejaVuSans-68" x="69.824219"/>
      <use xlink:href="#DejaVuSans-65" x="133.203125"/>
      <use xlink:href="#DejaVuSans-63" x="194.726562"/>
      <use xlink:href="#DejaVuSans-6b" x="249.707031"/>
      <use xlink:href="#DejaVuSans-20" x="307.617188"/>
      <use xlink:href="#DejaVuSans-56" x="339.404297"/>
      <use xlink:href="#DejaVuSans-61" x="400.0625"/>
      <use xlink:href="#DejaVuSans-6c" x="461.341797"/>
      <use xlink:href="#DejaVuSans-75" x="489.125"/>
      <use xlink:href="#DejaVuSans-65" x="552.503906"/>
     </g>
    </g>
    <g id="line2d_22">
     <path d="M 1283.132812 78.210187 
L 1293.132812 78.210187 
L 1303.132812 78.210187 
" style="fill: none; stroke: #ff0000; stroke-width: 1.5; stroke-linecap: square"/>
    </g>
    <g id="text_20">
     <!-- Predict Value -->
     <g transform="translate(1311.132812 81.710187)scale(0.1 -0.1)">
      <use xlink:href="#DejaVuSans-50"/>
      <use xlink:href="#DejaVuSans-72" x="58.552734"/>
      <use xlink:href="#DejaVuSans-65" x="97.416016"/>
      <use xlink:href="#DejaVuSans-64" x="158.939453"/>
      <use xlink:href="#DejaVuSans-69" x="222.416016"/>
      <use xlink:href="#DejaVuSans-63" x="250.199219"/>
      <use xlink:href="#DejaVuSans-74" x="305.179688"/>
      <use xlink:href="#DejaVuSans-20" x="344.388672"/>
      <use xlink:href="#DejaVuSans-56" x="376.175781"/>
      <use xlink:href="#DejaVuSans-61" x="436.833984"/>
      <use xlink:href="#DejaVuSans-6c" x="498.113281"/>
      <use xlink:href="#DejaVuSans-75" x="525.896484"/>
      <use xlink:href="#DejaVuSans-65" x="589.275391"/>
     </g>
    </g>
   </g>
  </g>
 </g>
 <defs>
  <clipPath id="p41a6529f30">
   <rect x="46.0125" y="35.7555" width="1339.2" height="332.64"/>
  </clipPath>
 </defs>
</svg>
