<?xml version="1.0" encoding="utf-8" standalone="no"?>
<!DOCTYPE svg PUBLIC "-//W3C//DTD SVG 1.1//EN"
  "http://www.w3.org/Graphics/SVG/1.1/DTD/svg11.dtd">
<svg xmlns:xlink="http://www.w3.org/1999/xlink" width="1394.429688pt" height="392.273625pt" viewBox="0 0 1394.429688 392.273625" xmlns="http://www.w3.org/2000/svg" version="1.1">
 <metadata>
  <rdf:RDF xmlns:dc="http://purl.org/dc/elements/1.1/" xmlns:cc="http://creativecommons.org/ns#" xmlns:rdf="http://www.w3.org/1999/02/22-rdf-syntax-ns#">
   <cc:Work>
    <dc:type rdf:resource="http://purl.org/dc/dcmitype/StillImage"/>
    <dc:date>2022-07-24T17:38:05.133948</dc:date>
    <dc:format>image/svg+xml</dc:format>
    <dc:creator>
     <cc:Agent>
      <dc:title>Matplotlib v3.5.2, https://matplotlib.org/</dc:title>
     </cc:Agent>
    </dc:creator>
   </cc:Work>
  </rdf:RDF>
 </metadata>
 <defs>
  <style type="text/css">*{stroke-linejoin: round; stroke-linecap: butt}</style>
 </defs>
 <g id="figure_1">
  <g id="patch_1">
   <path d="M 0 392.273625 
L 1394.429688 392.273625 
L 1394.429688 0 
L 0 0 
z
" style="fill: #ffffff"/>
  </g>
  <g id="axes_1">
   <g id="patch_2">
    <path d="M 48.029688 368.3955 
L 1387.229688 368.3955 
L 1387.229688 35.7555 
L 48.029688 35.7555 
z
" style="fill: #ffffff"/>
   </g>
   <g id="matplotlib.axis_1">
    <g id="xtick_1">
     <g id="line2d_1">
      <defs>
       <path id="mc6860430f9" d="M 0 0 
L 0 3.5 
" style="stroke: #000000; stroke-width: 0.8"/>
      </defs>
      <g>
       <use xlink:href="#mc6860430f9" x="79.946739" y="368.3955" style="stroke: #000000; stroke-width: 0.8"/>
      </g>
     </g>
     <g id="text_1">
      <!-- 2020-01 -->
      <g transform="translate(59.055333 382.993937)scale(0.1 -0.1)">
       <defs>
        <path id="DejaVuSans-32" d="M 1228 531 
L 3431 531 
L 3431 0 
L 469 0 
L 469 531 
Q 828 903 1448 1529 
Q 2069 2156 2228 2338 
Q 2531 2678 2651 2914 
Q 2772 3150 2772 3378 
Q 2772 3750 2511 3984 
Q 2250 4219 1831 4219 
Q 1534 4219 1204 4116 
Q 875 4013 500 3803 
L 500 4441 
Q 881 4594 1212 4672 
Q 1544 4750 1819 4750 
Q 2544 4750 2975 4387 
Q 3406 4025 3406 3419 
Q 3406 3131 3298 2873 
Q 3191 2616 2906 2266 
Q 2828 2175 2409 1742 
Q 1991 1309 1228 531 
z
" transform="scale(0.015625)"/>
        <path id="DejaVuSans-30" d="M 2034 4250 
Q 1547 4250 1301 3770 
Q 1056 3291 1056 2328 
Q 1056 1369 1301 889 
Q 1547 409 2034 409 
Q 2525 409 2770 889 
Q 3016 1369 3016 2328 
Q 3016 3291 2770 3770 
Q 2525 4250 2034 4250 
z
M 2034 4750 
Q 2819 4750 3233 4129 
Q 3647 3509 3647 2328 
Q 3647 1150 3233 529 
Q 2819 -91 2034 -91 
Q 1250 -91 836 529 
Q 422 1150 422 2328 
Q 422 3509 836 4129 
Q 1250 4750 2034 4750 
z
" transform="scale(0.015625)"/>
        <path id="DejaVuSans-2d" d="M 313 2009 
L 1997 2009 
L 1997 1497 
L 313 1497 
L 313 2009 
z
" transform="scale(0.015625)"/>
        <path id="DejaVuSans-31" d="M 794 531 
L 1825 531 
L 1825 4091 
L 703 3866 
L 703 4441 
L 1819 4666 
L 2450 4666 
L 2450 531 
L 3481 531 
L 3481 0 
L 794 0 
L 794 531 
z
" transform="scale(0.015625)"/>
       </defs>
       <use xlink:href="#DejaVuSans-32"/>
       <use xlink:href="#DejaVuSans-30" x="63.623047"/>
       <use xlink:href="#DejaVuSans-32" x="127.246094"/>
       <use xlink:href="#DejaVuSans-30" x="190.869141"/>
       <use xlink:href="#DejaVuSans-2d" x="254.492188"/>
       <use xlink:href="#DejaVuSans-30" x="290.576172"/>
       <use xlink:href="#DejaVuSans-31" x="354.199219"/>
      </g>
     </g>
    </g>
    <g id="xtick_2">
     <g id="line2d_2">
      <g>
       <use xlink:href="#mc6860430f9" x="199.717943" y="368.3955" style="stroke: #000000; stroke-width: 0.8"/>
      </g>
     </g>
     <g id="text_2">
      <!-- 2020-04 -->
      <g transform="translate(178.826537 382.993937)scale(0.1 -0.1)">
       <defs>
        <path id="DejaVuSans-34" d="M 2419 4116 
L 825 1625 
L 2419 1625 
L 2419 4116 
z
M 2253 4666 
L 3047 4666 
L 3047 1625 
L 3713 1625 
L 3713 1100 
L 3047 1100 
L 3047 0 
L 2419 0 
L 2419 1100 
L 313 1100 
L 313 1709 
L 2253 4666 
z
" transform="scale(0.015625)"/>
       </defs>
       <use xlink:href="#DejaVuSans-32"/>
       <use xlink:href="#DejaVuSans-30" x="63.623047"/>
       <use xlink:href="#DejaVuSans-32" x="127.246094"/>
       <use xlink:href="#DejaVuSans-30" x="190.869141"/>
       <use xlink:href="#DejaVuSans-2d" x="254.492188"/>
       <use xlink:href="#DejaVuSans-30" x="290.576172"/>
       <use xlink:href="#DejaVuSans-34" x="354.199219"/>
      </g>
     </g>
    </g>
    <g id="xtick_3">
     <g id="line2d_3">
      <g>
       <use xlink:href="#mc6860430f9" x="319.489147" y="368.3955" style="stroke: #000000; stroke-width: 0.8"/>
      </g>
     </g>
     <g id="text_3">
      <!-- 2020-07 -->
      <g transform="translate(298.597741 382.993937)scale(0.1 -0.1)">
       <defs>
        <path id="DejaVuSans-37" d="M 525 4666 
L 3525 4666 
L 3525 4397 
L 1831 0 
L 1172 0 
L 2766 4134 
L 525 4134 
L 525 4666 
z
" transform="scale(0.015625)"/>
       </defs>
       <use xlink:href="#DejaVuSans-32"/>
       <use xlink:href="#DejaVuSans-30" x="63.623047"/>
       <use xlink:href="#DejaVuSans-32" x="127.246094"/>
       <use xlink:href="#DejaVuSans-30" x="190.869141"/>
       <use xlink:href="#DejaVuSans-2d" x="254.492188"/>
       <use xlink:href="#DejaVuSans-30" x="290.576172"/>
       <use xlink:href="#DejaVuSans-37" x="354.199219"/>
      </g>
     </g>
    </g>
    <g id="xtick_4">
     <g id="line2d_4">
      <g>
       <use xlink:href="#mc6860430f9" x="440.576518" y="368.3955" style="stroke: #000000; stroke-width: 0.8"/>
      </g>
     </g>
     <g id="text_4">
      <!-- 2020-10 -->
      <g transform="translate(419.685112 382.993937)scale(0.1 -0.1)">
       <use xlink:href="#DejaVuSans-32"/>
       <use xlink:href="#DejaVuSans-30" x="63.623047"/>
       <use xlink:href="#DejaVuSans-32" x="127.246094"/>
       <use xlink:href="#DejaVuSans-30" x="190.869141"/>
       <use xlink:href="#DejaVuSans-2d" x="254.492188"/>
       <use xlink:href="#DejaVuSans-31" x="290.576172"/>
       <use xlink:href="#DejaVuSans-30" x="354.199219"/>
      </g>
     </g>
    </g>
    <g id="xtick_5">
     <g id="line2d_5">
      <g>
       <use xlink:href="#mc6860430f9" x="561.663889" y="368.3955" style="stroke: #000000; stroke-width: 0.8"/>
      </g>
     </g>
     <g id="text_5">
      <!-- 2021-01 -->
      <g transform="translate(540.772483 382.993937)scale(0.1 -0.1)">
       <use xlink:href="#DejaVuSans-32"/>
       <use xlink:href="#DejaVuSans-30" x="63.623047"/>
       <use xlink:href="#DejaVuSans-32" x="127.246094"/>
       <use xlink:href="#DejaVuSans-31" x="190.869141"/>
       <use xlink:href="#DejaVuSans-2d" x="254.492188"/>
       <use xlink:href="#DejaVuSans-30" x="290.576172"/>
       <use xlink:href="#DejaVuSans-31" x="354.199219"/>
      </g>
     </g>
    </g>
    <g id="xtick_6">
     <g id="line2d_6">
      <g>
       <use xlink:href="#mc6860430f9" x="680.118926" y="368.3955" style="stroke: #000000; stroke-width: 0.8"/>
      </g>
     </g>
     <g id="text_6">
      <!-- 2021-04 -->
      <g transform="translate(659.22752 382.993937)scale(0.1 -0.1)">
       <use xlink:href="#DejaVuSans-32"/>
       <use xlink:href="#DejaVuSans-30" x="63.623047"/>
       <use xlink:href="#DejaVuSans-32" x="127.246094"/>
       <use xlink:href="#DejaVuSans-31" x="190.869141"/>
       <use xlink:href="#DejaVuSans-2d" x="254.492188"/>
       <use xlink:href="#DejaVuSans-30" x="290.576172"/>
       <use xlink:href="#DejaVuSans-34" x="354.199219"/>
      </g>
     </g>
    </g>
    <g id="xtick_7">
     <g id="line2d_7">
      <g>
       <use xlink:href="#mc6860430f9" x="799.89013" y="368.3955" style="stroke: #000000; stroke-width: 0.8"/>
      </g>
     </g>
     <g id="text_7">
      <!-- 2021-07 -->
      <g transform="translate(778.998724 382.993937)scale(0.1 -0.1)">
       <use xlink:href="#DejaVuSans-32"/>
       <use xlink:href="#DejaVuSans-30" x="63.623047"/>
       <use xlink:href="#DejaVuSans-32" x="127.246094"/>
       <use xlink:href="#DejaVuSans-31" x="190.869141"/>
       <use xlink:href="#DejaVuSans-2d" x="254.492188"/>
       <use xlink:href="#DejaVuSans-30" x="290.576172"/>
       <use xlink:href="#DejaVuSans-37" x="354.199219"/>
      </g>
     </g>
    </g>
    <g id="xtick_8">
     <g id="line2d_8">
      <g>
       <use xlink:href="#mc6860430f9" x="920.977501" y="368.3955" style="stroke: #000000; stroke-width: 0.8"/>
      </g>
     </g>
     <g id="text_8">
      <!-- 2021-10 -->
      <g transform="translate(900.086095 382.993937)scale(0.1 -0.1)">
       <use xlink:href="#DejaVuSans-32"/>
       <use xlink:href="#DejaVuSans-30" x="63.623047"/>
       <use xlink:href="#DejaVuSans-32" x="127.246094"/>
       <use xlink:href="#DejaVuSans-31" x="190.869141"/>
       <use xlink:href="#DejaVuSans-2d" x="254.492188"/>
       <use xlink:href="#DejaVuSans-31" x="290.576172"/>
       <use xlink:href="#DejaVuSans-30" x="354.199219"/>
      </g>
     </g>
    </g>
    <g id="xtick_9">
     <g id="line2d_9">
      <g>
       <use xlink:href="#mc6860430f9" x="1042.064872" y="368.3955" style="stroke: #000000; stroke-width: 0.8"/>
      </g>
     </g>
     <g id="text_9">
      <!-- 2022-01 -->
      <g transform="translate(1021.173466 382.993937)scale(0.1 -0.1)">
       <use xlink:href="#DejaVuSans-32"/>
       <use xlink:href="#DejaVuSans-30" x="63.623047"/>
       <use xlink:href="#DejaVuSans-32" x="127.246094"/>
       <use xlink:href="#DejaVuSans-32" x="190.869141"/>
       <use xlink:href="#DejaVuSans-2d" x="254.492188"/>
       <use xlink:href="#DejaVuSans-30" x="290.576172"/>
       <use xlink:href="#DejaVuSans-31" x="354.199219"/>
      </g>
     </g>
    </g>
    <g id="xtick_10">
     <g id="line2d_10">
      <g>
       <use xlink:href="#mc6860430f9" x="1160.519909" y="368.3955" style="stroke: #000000; stroke-width: 0.8"/>
      </g>
     </g>
     <g id="text_10">
      <!-- 2022-04 -->
      <g transform="translate(1139.628502 382.993937)scale(0.1 -0.1)">
       <use xlink:href="#DejaVuSans-32"/>
       <use xlink:href="#DejaVuSans-30" x="63.623047"/>
       <use xlink:href="#DejaVuSans-32" x="127.246094"/>
       <use xlink:href="#DejaVuSans-32" x="190.869141"/>
       <use xlink:href="#DejaVuSans-2d" x="254.492188"/>
       <use xlink:href="#DejaVuSans-30" x="290.576172"/>
       <use xlink:href="#DejaVuSans-34" x="354.199219"/>
      </g>
     </g>
    </g>
    <g id="xtick_11">
     <g id="line2d_11">
      <g>
       <use xlink:href="#mc6860430f9" x="1280.291113" y="368.3955" style="stroke: #000000; stroke-width: 0.8"/>
      </g>
     </g>
     <g id="text_11">
      <!-- 2022-07 -->
      <g transform="translate(1259.399706 382.993937)scale(0.1 -0.1)">
       <use xlink:href="#DejaVuSans-32"/>
       <use xlink:href="#DejaVuSans-30" x="63.623047"/>
       <use xlink:href="#DejaVuSans-32" x="127.246094"/>
       <use xlink:href="#DejaVuSans-32" x="190.869141"/>
       <use xlink:href="#DejaVuSans-2d" x="254.492188"/>
       <use xlink:href="#DejaVuSans-30" x="290.576172"/>
       <use xlink:href="#DejaVuSans-37" x="354.199219"/>
      </g>
     </g>
    </g>
   </g>
   <g id="matplotlib.axis_2">
    <g id="ytick_1">
     <g id="line2d_12">
      <defs>
       <path id="m2340672603" d="M 0 0 
L -3.5 0 
" style="stroke: #000000; stroke-width: 0.8"/>
      </defs>
      <g>
       <use xlink:href="#m2340672603" x="48.029688" y="322.59593" style="stroke: #000000; stroke-width: 0.8"/>
      </g>
     </g>
     <g id="text_12">
      <!-- −5000 -->
      <g transform="translate(7.2 326.395149)scale(0.1 -0.1)">
       <defs>
        <path id="DejaVuSans-2212" d="M 678 2272 
L 4684 2272 
L 4684 1741 
L 678 1741 
L 678 2272 
z
" transform="scale(0.015625)"/>
        <path id="DejaVuSans-35" d="M 691 4666 
L 3169 4666 
L 3169 4134 
L 1269 4134 
L 1269 2991 
Q 1406 3038 1543 3061 
Q 1681 3084 1819 3084 
Q 2600 3084 3056 2656 
Q 3513 2228 3513 1497 
Q 3513 744 3044 326 
Q 2575 -91 1722 -91 
Q 1428 -91 1123 -41 
Q 819 9 494 109 
L 494 744 
Q 775 591 1075 516 
Q 1375 441 1709 441 
Q 2250 441 2565 725 
Q 2881 1009 2881 1497 
Q 2881 1984 2565 2268 
Q 2250 2553 1709 2553 
Q 1456 2553 1204 2497 
Q 953 2441 691 2322 
L 691 4666 
z
" transform="scale(0.015625)"/>
       </defs>
       <use xlink:href="#DejaVuSans-2212"/>
       <use xlink:href="#DejaVuSans-35" x="83.789062"/>
       <use xlink:href="#DejaVuSans-30" x="147.412109"/>
       <use xlink:href="#DejaVuSans-30" x="211.035156"/>
       <use xlink:href="#DejaVuSans-30" x="274.658203"/>
      </g>
     </g>
    </g>
    <g id="ytick_2">
     <g id="line2d_13">
      <g>
       <use xlink:href="#m2340672603" x="48.029688" y="272.416719" style="stroke: #000000; stroke-width: 0.8"/>
      </g>
     </g>
     <g id="text_13">
      <!-- 0 -->
      <g transform="translate(34.667188 276.215937)scale(0.1 -0.1)">
       <use xlink:href="#DejaVuSans-30"/>
      </g>
     </g>
    </g>
    <g id="ytick_3">
     <g id="line2d_14">
      <g>
       <use xlink:href="#m2340672603" x="48.029688" y="222.237507" style="stroke: #000000; stroke-width: 0.8"/>
      </g>
     </g>
     <g id="text_14">
      <!-- 5000 -->
      <g transform="translate(15.579688 226.036726)scale(0.1 -0.1)">
       <use xlink:href="#DejaVuSans-35"/>
       <use xlink:href="#DejaVuSans-30" x="63.623047"/>
       <use xlink:href="#DejaVuSans-30" x="127.246094"/>
       <use xlink:href="#DejaVuSans-30" x="190.869141"/>
      </g>
     </g>
    </g>
    <g id="ytick_4">
     <g id="line2d_15">
      <g>
       <use xlink:href="#m2340672603" x="48.029688" y="172.058296" style="stroke: #000000; stroke-width: 0.8"/>
      </g>
     </g>
     <g id="text_15">
      <!-- 10000 -->
      <g transform="translate(9.217188 175.857514)scale(0.1 -0.1)">
       <use xlink:href="#DejaVuSans-31"/>
       <use xlink:href="#DejaVuSans-30" x="63.623047"/>
       <use xlink:href="#DejaVuSans-30" x="127.246094"/>
       <use xlink:href="#DejaVuSans-30" x="190.869141"/>
       <use xlink:href="#DejaVuSans-30" x="254.492188"/>
      </g>
     </g>
    </g>
    <g id="ytick_5">
     <g id="line2d_16">
      <g>
       <use xlink:href="#m2340672603" x="48.029688" y="121.879084" style="stroke: #000000; stroke-width: 0.8"/>
      </g>
     </g>
     <g id="text_16">
      <!-- 15000 -->
      <g transform="translate(9.217188 125.678303)scale(0.1 -0.1)">
       <use xlink:href="#DejaVuSans-31"/>
       <use xlink:href="#DejaVuSans-35" x="63.623047"/>
       <use xlink:href="#DejaVuSans-30" x="127.246094"/>
       <use xlink:href="#DejaVuSans-30" x="190.869141"/>
       <use xlink:href="#DejaVuSans-30" x="254.492188"/>
      </g>
     </g>
    </g>
    <g id="ytick_6">
     <g id="line2d_17">
      <g>
       <use xlink:href="#m2340672603" x="48.029688" y="71.699873" style="stroke: #000000; stroke-width: 0.8"/>
      </g>
     </g>
     <g id="text_17">
      <!-- 20000 -->
      <g transform="translate(9.217188 75.499092)scale(0.1 -0.1)">
       <use xlink:href="#DejaVuSans-32"/>
       <use xlink:href="#DejaVuSans-30" x="63.623047"/>
       <use xlink:href="#DejaVuSans-30" x="127.246094"/>
       <use xlink:href="#DejaVuSans-30" x="190.869141"/>
       <use xlink:href="#DejaVuSans-30" x="254.492188"/>
      </g>
     </g>
    </g>
   </g>
   <g id="line2d_18">
    <path d="M 108.902415 272.416719 
L 177.343103 272.416719 
L 178.65927 272.216002 
L 181.291604 272.155787 
L 182.607771 271.874783 
L 186.556272 271.523529 
L 187.872439 270.198797 
L 189.188606 270.831056 
L 190.504773 270.971557 
L 193.137108 270.198797 
L 194.453275 270.479801 
L 195.769442 270.319228 
L 197.085609 270.439658 
L 198.401776 267.659729 
L 199.717943 270.068332 
L 201.03411 269.707041 
L 202.350277 269.887686 
L 203.666444 270.399514 
L 204.982611 269.285536 
L 206.298778 270.128547 
L 207.614945 269.345751 
L 208.931113 270.359371 
L 210.24728 269.616719 
L 211.563447 270.459729 
L 212.879614 269.486253 
L 214.195781 270.158654 
L 215.511948 270.248977 
L 216.828115 270.590195 
L 218.144282 269.777292 
L 220.776616 269.205249 
L 222.092783 270.680518 
L 223.40895 269.63679 
L 224.725117 269.907758 
L 226.041285 269.526396 
L 227.357452 267.408833 
L 228.673619 267.880518 
L 229.989786 267.719944 
L 231.305953 269.39593 
L 233.938287 269.436073 
L 235.254454 269.676934 
L 236.570621 266.71636 
L 237.886788 262.360805 
L 239.202955 264.699156 
L 240.519122 270.038224 
L 241.835289 268.703457 
L 243.151457 269.305608 
L 244.467624 270.519944 
L 245.783791 269.817435 
L 247.099958 268.482668 
L 248.416125 270.459729 
L 249.732292 269.967973 
L 251.048459 269.937866 
L 252.364626 266.876934 
L 253.680793 265.431772 
L 254.99696 269.205249 
L 257.629294 270.479801 
L 258.945461 269.8074 
L 260.261629 267.689837 
L 261.577796 268.994496 
L 262.893963 269.064747 
L 264.21013 269.817435 
L 265.526297 268.572991 
L 266.842464 268.552919 
L 268.158631 268.221737 
L 269.474798 269.094855 
L 270.790965 266.455428 
L 272.107132 268.86403 
L 273.423299 270.269048 
L 274.739466 266.435357 
L 276.055633 270.108475 
L 277.371801 267.840375 
L 278.687968 266.324962 
L 280.004135 266.365106 
L 281.320302 265.953636 
L 282.636469 268.874066 
L 283.952636 270.138582 
L 285.268803 267.298439 
L 287.901137 268.14145 
L 289.217304 267.529263 
L 290.533471 266.545751 
L 291.849638 268.131414 
L 293.165805 266.274783 
L 294.481973 266.95722 
L 295.79814 267.027471 
L 297.114307 266.365106 
L 298.430474 265.331414 
L 299.746641 266.284819 
L 301.062808 268.352203 
L 302.378975 261.437507 
L 305.011309 268.362238 
L 306.327476 266.495572 
L 307.643643 266.144317 
L 308.95981 262.25041 
L 310.275977 263.996647 
L 311.592145 261.718511 
L 312.908312 262.651844 
L 314.224479 269.777292 
L 315.540646 265.853278 
L 316.856813 254.613134 
L 318.17298 255.92783 
L 319.489147 258.185894 
L 320.805314 253.208116 
L 322.121481 258.96869 
L 323.437648 257.83464 
L 324.753815 259.008833 
L 326.069982 263.565106 
L 327.386149 250.909909 
L 328.702316 255.967973 
L 331.334651 252.706324 
L 332.650818 260.63464 
L 333.966985 249.183744 
L 335.283152 254.191629 
L 336.599319 251.311342 
L 337.915486 253.147901 
L 339.231653 242.851127 
L 340.54782 251.140733 
L 341.863987 251.241091 
L 343.180154 256.670482 
L 344.496321 260.453995 
L 345.812488 240.934281 
L 347.128656 252.555787 
L 348.444823 247.206683 
L 349.76099 253.950769 
L 351.077157 241.576575 
L 352.393324 249.334281 
L 353.709491 253.388762 
L 355.025658 247.457579 
L 356.341825 260.644676 
L 357.657992 236.779443 
L 358.974159 254.924246 
L 360.290326 250.839658 
L 361.606493 261.668332 
L 362.92266 254.472633 
L 364.238828 255.014568 
L 365.554995 258.978726 
L 366.871162 245.079084 
L 368.187329 254.603099 
L 369.503496 251.381593 
L 370.819663 256.690554 
L 372.13583 263.444676 
L 373.451997 254.38231 
L 374.768164 259.952203 
L 376.084331 247.317077 
L 377.400498 258.677651 
L 378.716665 253.147901 
L 381.349 263.996647 
L 382.665167 254.803815 
L 383.981334 259.028905 
L 385.297501 248.069765 
L 386.613668 267.147901 
L 387.929835 248.099873 
L 389.246002 264.287686 
L 390.562169 265.953636 
L 391.878336 255.385894 
L 393.194503 259.279801 
L 394.51067 249.083385 
L 395.826837 261.146468 
L 397.143004 257.112059 
L 398.459172 257.764389 
L 399.775339 260.002382 
L 401.091506 255.526396 
L 402.407673 260.564389 
L 403.72384 255.847543 
L 405.040007 261.276934 
L 406.356174 246.825321 
L 407.672341 264.167256 
L 408.988508 264.598797 
L 410.304675 264.237507 
L 411.620842 261.026038 
L 412.937009 252.405249 
L 414.253176 262.370841 
L 415.569344 259.159371 
L 416.885511 258.466898 
L 418.201678 256.399514 
L 419.517845 253.448977 
L 420.834012 261.838941 
L 422.150179 254.201665 
L 423.466346 257.352919 
L 424.782513 251.10059 
L 426.09868 262.160088 
L 427.414847 265.752919 
L 428.731014 256.008116 
L 430.047181 263.243959 
L 431.363348 258.426754 
L 432.679516 258.998797 
L 433.995683 251.200948 
L 435.31185 258.808116 
L 436.628017 265.692704 
L 437.944184 260.51421 
L 439.260351 258.125679 
L 440.576518 260.955787 
L 441.892685 260.413851 
L 443.208852 258.888403 
L 444.525019 254.332131 
L 445.841186 250.32783 
L 447.157353 252.415285 
L 448.47352 254.02102 
L 449.789688 252.435357 
L 451.105855 258.306324 
L 452.422022 253.639658 
L 453.738189 243.011701 
L 455.054356 260.142884 
L 456.370523 257.011701 
L 457.68669 249.364389 
L 459.002857 258.256145 
L 460.319024 255.295572 
L 461.635191 245.711342 
L 462.951358 246.142884 
L 464.267525 250.608833 
L 466.899859 255.124962 
L 468.216027 240.643242 
L 469.532194 245.932131 
L 470.848361 236.518511 
L 472.164528 241.586611 
L 473.480695 257.463314 
L 474.796862 247.979443 
L 476.113029 245.701306 
L 477.429196 248.752203 
L 478.745363 248.501306 
L 480.06153 270.931414 
L 481.377697 247.628188 
L 482.693864 253.499156 
L 484.010031 242.319228 
L 485.326199 246.012418 
L 486.642366 258.346468 
L 487.958533 236.578726 
L 489.2747 230.707758 
L 490.590867 218.734998 
L 491.907034 248.601665 
L 493.223201 242.259013 
L 494.539368 233.216719 
L 495.855535 240.91421 
L 497.171702 228.901306 
L 498.487869 223.732848 
L 499.804036 207.956504 
L 501.120203 225.950769 
L 502.436371 237.271199 
L 503.752538 232.122812 
L 505.068705 242.459729 
L 506.384872 232.132848 
L 507.701039 238.174425 
L 509.017206 217.139299 
L 510.333373 250.267615 
L 511.64954 251.853278 
L 512.965707 250.357937 
L 514.281874 219.859013 
L 515.598041 218.39378 
L 516.914208 225.880518 
L 518.230375 217.560805 
L 519.546543 212.833923 
L 520.86271 205.848977 
L 522.178877 247.4074 
L 523.495044 224.375142 
L 524.811211 218.644676 
L 526.127378 241.697005 
L 527.443545 232.002382 
L 528.759712 201.06188 
L 530.075879 191.507758 
L 531.392046 214.429622 
L 532.708213 183.569407 
L 534.02438 211.980876 
L 535.340547 183.24826 
L 536.656715 160.155787 
L 537.972882 193.103457 
L 539.289049 154.124246 
L 540.605216 179.133565 
L 541.921383 170.683385 
L 543.23755 189.570841 
L 544.553717 201.553636 
L 545.869884 172.369407 
L 547.186051 214.078367 
L 548.502218 203.189478 
L 549.818385 211.398797 
L 551.134552 205.798797 
L 552.450719 206.00955 
L 553.766887 223.411701 
L 555.083054 238.525679 
L 556.399221 236.889837 
L 557.715388 191.447543 
L 559.031555 205.297005 
L 560.347722 180.398081 
L 561.663889 205.487686 
L 562.980056 200.228905 
L 564.296223 237.241091 
L 565.61239 231.86188 
L 566.928557 188.155787 
L 568.244724 198.663314 
L 569.560891 198.86403 
L 570.877059 211.689837 
L 572.193226 200.158654 
L 573.509393 218.544317 
L 574.82556 234.551486 
L 576.141727 224.907041 
L 577.457894 231.179443 
L 578.774061 210.646109 
L 580.090228 244.808116 
L 581.406395 203.069048 
L 582.722562 246.584461 
L 584.038729 256.208833 
L 585.354896 224.415285 
L 586.671063 241.325679 
L 587.98723 225.398797 
L 589.303398 246.032489 
L 590.619565 227.546468 
L 591.935732 256.419586 
L 593.251899 254.221737 
L 594.568066 241.014568 
L 595.884233 245.119228 
L 597.2004 232.795213 
L 598.516567 254.7436 
L 599.832734 237.160805 
L 601.148901 250.659013 
L 602.465068 255.476217 
L 603.781235 259.249694 
L 605.097402 238.866898 
L 606.41357 243.372991 
L 607.729737 250.438224 
L 609.045904 235.735715 
L 610.362071 258.868332 
L 611.678238 260.002382 
L 612.994405 245.460446 
L 614.310572 250.980159 
L 615.626739 248.180159 
L 616.942906 253.137866 
L 618.259073 255.656862 
L 619.57524 259.841808 
L 620.891407 264.618869 
L 622.207574 260.132848 
L 623.523742 263.093421 
L 624.839909 257.563672 
L 626.156076 262.441091 
L 627.472243 258.717794 
L 628.78841 263.6755 
L 630.104577 261.818869 
L 631.420744 253.930697 
L 632.736911 253.228188 
L 634.053078 255.576575 
L 635.369245 261.146468 
L 636.685412 257.95507 
L 638.001579 264.016719 
L 639.317746 266.736432 
L 640.633914 256.921378 
L 641.950081 259.390195 
L 643.266248 256.389478 
L 644.582415 260.142884 
L 645.898582 260.022453 
L 647.214749 264.879801 
L 648.530916 261.557937 
L 651.16325 256.389478 
L 653.795584 261.317077 
L 655.111751 257.5436 
L 656.427918 265.783027 
L 657.744086 263.374425 
L 659.060253 253.047543 
L 660.37642 261.688403 
L 661.692587 258.226038 
L 663.008754 252.927113 
L 664.324921 264.889837 
L 665.641088 264.819586 
L 666.957255 259.701306 
L 668.273422 260.664747 
L 669.589589 256.279084 
L 670.905756 260.955787 
L 672.221923 262.431056 
L 673.53809 264.237507 
L 674.854258 264.247543 
L 676.170425 260.46403 
L 677.486592 260.46403 
L 678.802759 253.699873 
L 680.118926 259.871916 
L 681.435093 261.76869 
L 682.75126 263.454711 
L 684.067427 266.866898 
L 685.383594 263.484819 
L 686.699761 259.008833 
L 688.015928 256.590195 
L 689.332095 260.935715 
L 690.648262 258.978726 
L 691.96443 263.655428 
L 693.280597 265.873349 
L 694.596764 260.032489 
L 695.912931 261.096289 
L 697.229098 254.402382 
L 698.545265 258.587328 
L 699.861432 230.266181 
L 701.177599 265.351486 
L 702.493766 266.796647 
L 706.442267 258.577292 
L 707.758434 253.920661 
L 709.074602 262.912776 
L 711.706936 266.866898 
L 713.023103 261.447543 
L 714.33927 260.835357 
L 715.655437 260.46403 
L 716.971604 262.12998 
L 718.287771 261.678367 
L 719.603938 266.314927 
L 720.920105 267.408833 
L 722.236272 265.82317 
L 723.552439 263.876217 
L 724.868606 260.323529 
L 726.184773 264.528547 
L 727.500941 262.089837 
L 728.817108 266.806683 
L 730.133275 268.643242 
L 731.449442 266.144317 
L 732.765609 263.946468 
L 734.081776 263.414568 
L 735.397943 265.311342 
L 736.71411 264.357937 
L 738.030277 268.38231 
L 739.346444 269.666898 
L 740.662611 265.873349 
L 741.978778 266.706324 
L 743.294945 266.094138 
L 744.611113 266.95722 
L 745.92728 267.238224 
L 747.243447 269.315643 
L 748.559614 269.897722 
L 749.875781 267.90059 
L 751.191948 268.201665 
L 752.508115 267.428905 
L 753.824282 268.482668 
L 755.140449 269.235357 
L 756.456616 270.52998 
L 757.772783 270.610267 
L 759.08895 270.540016 
L 760.405117 268.201665 
L 761.721285 268.783744 
L 763.037452 269.235357 
L 764.353619 269.466181 
L 765.669786 270.770841 
L 766.985953 271.403099 
L 768.30212 269.8074 
L 769.618287 269.697005 
L 770.934454 270.259013 
L 772.250621 270.04826 
L 773.566788 269.51636 
L 774.882955 270.931414 
L 776.199122 271.563672 
L 777.515289 270.269048 
L 778.831457 269.335715 
L 780.147624 269.737149 
L 781.463791 270.720661 
L 782.779958 270.590195 
L 785.412292 271.573708 
L 788.044626 270.058296 
L 791.993127 270.248977 
L 793.309294 271.122095 
L 794.625461 271.453278 
L 795.941629 271.312776 
L 797.257796 268.281952 
L 798.573963 269.39593 
L 799.89013 269.375858 
L 801.206297 269.225321 
L 802.522464 269.737149 
L 803.838631 270.630339 
L 805.154798 270.499873 
L 806.470965 268.121378 
L 807.787132 267.388762 
L 809.103299 266.816719 
L 810.419466 266.756504 
L 811.735633 268.322095 
L 813.051801 270.108475 
L 814.367968 266.565823 
L 815.684135 264.32783 
L 817.000302 265.291271 
L 818.316469 264.478367 
L 819.632636 264.548618 
L 822.26497 267.629622 
L 823.581137 262.651844 
L 824.897304 259.570841 
L 826.213471 257.904891 
L 827.529638 256.951486 
L 828.845805 256.800948 
L 830.161973 259.701306 
L 831.47814 263.745751 
L 832.794307 250.960088 
L 834.110474 249.665464 
L 835.426641 245.681235 
L 836.742808 249.26403 
L 838.058975 241.385894 
L 839.375142 252.033923 
L 840.691309 255.466181 
L 843.323643 234.822453 
L 844.63981 239.890554 
L 847.272145 226.974425 
L 848.588312 246.433923 
L 849.904479 250.749335 
L 851.220646 235.896289 
L 852.536813 231.390195 
L 853.85298 216.216002 
L 855.169147 226.322095 
L 856.485314 216.84826 
L 857.801481 223.662597 
L 859.117648 244.55722 
L 860.433815 235.284102 
L 861.749982 218.233206 
L 863.066149 207.123529 
L 864.382316 200.911342 
L 865.698484 208.418152 
L 867.014651 174.095572 
L 868.330818 231.771557 
L 869.646985 220.802382 
L 870.963152 226.512776 
L 872.279319 206.501306 
L 873.595486 197.529263 
L 874.911653 193.755787 
L 876.22782 210.435357 
L 877.543987 208.117077 
L 878.860154 173.533565 
L 880.176321 177.959371 
L 881.492488 239.529263 
L 882.808656 206.681952 
L 884.124823 224.334998 
L 885.44099 181.532131 
L 886.757157 158.248977 
L 888.073324 141.589478 
L 889.389491 218.835357 
L 890.705658 227.546468 
L 892.021825 220.591629 
L 893.337992 121.196647 
L 894.654159 159.132131 
L 895.970326 237.873349 
L 897.286493 216.205966 
L 898.60266 198.532848 
L 899.918828 227.014568 
L 901.234995 209.000231 
L 902.551162 204.624604 
L 903.867329 232.51421 
L 905.183496 255.707041 
L 906.499663 226.131414 
L 907.81583 225.218152 
L 909.131997 231.50059 
L 910.448164 216.627471 
L 911.764331 233.497722 
L 913.080498 253.659729 
L 914.396665 251.10059 
L 915.712832 238.95722 
L 917.029 236.478367 
L 918.345167 231.018869 
L 919.661334 239.288403 
L 920.977501 237.813134 
L 922.293668 255.967973 
L 923.609835 260.704891 
L 924.926002 241.195213 
L 926.242169 241.446109 
L 927.558336 247.838941 
L 928.874503 247.166539 
L 930.19067 248.66188 
L 931.506837 258.456862 
L 932.823004 264.428188 
L 934.139172 246.263314 
L 935.455339 249.856145 
L 936.771506 251.512059 
L 938.087673 251.793063 
L 939.40384 254.593063 
L 940.720007 263.966539 
L 942.036174 266.616002 
L 943.352341 256.359371 
L 944.668508 253.418869 
L 945.984675 255.998081 
L 947.300842 255.405966 
L 948.617009 259.008833 
L 949.933176 264.468332 
L 951.249344 266.515643 
L 952.565511 262.109909 
L 953.881678 259.962238 
L 955.197845 258.155787 
L 956.514012 261.52783 
L 957.830179 261.166539 
L 959.146346 266.053995 
L 960.462513 268.02102 
L 961.77868 259.701306 
L 963.094847 261.216719 
L 964.411014 259.691271 
L 965.727181 262.862597 
L 967.043348 261.297005 
L 968.359516 265.813134 
L 969.675683 266.917077 
L 970.99185 260.905608 
L 972.308017 252.987328 
L 973.624184 257.623887 
L 974.940351 260.433923 
L 976.256518 260.504174 
L 977.572685 265.000231 
L 978.888852 265.271199 
L 980.205019 259.20955 
L 981.521186 255.988045 
L 982.837353 254.312059 
L 984.15352 256.299156 
L 985.469688 256.790912 
L 986.785855 263.976575 
L 988.102022 266.585894 
L 989.418189 257.42317 
L 990.734356 255.897722 
L 992.050523 256.831056 
L 993.36669 264.398081 
L 994.682857 267.198081 
L 995.999024 265.401665 
L 997.315191 265.351486 
L 998.631358 250.719228 
L 999.947525 251.030339 
L 1001.263692 248.059729 
L 1002.579859 250.80955 
L 1003.896027 249.765823 
L 1005.212194 261.929263 
L 1006.528361 262.932848 
L 1007.844528 252.23464 
L 1009.160695 250.789478 
L 1010.476862 247.076217 
L 1011.793029 251.331414 
L 1013.109196 253.940733 
L 1014.425363 262.611701 
L 1015.74153 262.30059 
L 1017.057697 254.372274 
L 1018.373864 250.919944 
L 1019.690031 249.805966 
L 1021.006199 248.079801 
L 1022.322366 248.90274 
L 1023.638533 253.12783 
L 1024.9547 258.115643 
L 1026.270867 243.653995 
L 1027.587034 236.257579 
L 1028.903201 213.446109 
L 1030.219368 220.471199 
L 1031.535535 225.709909 
L 1032.851702 233.337149 
L 1034.167869 258.175858 
L 1036.800203 157.68697 
L 1038.116371 145.202382 
L 1039.432538 125.682668 
L 1042.064872 195.200948 
L 1043.381039 196.776575 
L 1044.697206 180.177292 
L 1046.013373 120.745034 
L 1047.32954 97.311342 
L 1048.645707 77.400231 
L 1049.961874 139.391629 
L 1051.278041 156.302023 
L 1052.594208 180.528547 
L 1053.910375 133.751486 
L 1055.226543 102.70059 
L 1056.54271 102.018152 
L 1057.858877 60.921378 
L 1059.175044 70.405249 
L 1060.491211 123.153636 
L 1061.807378 156.663314 
L 1063.123545 162.002382 
L 1064.439712 109.665464 
L 1065.755879 50.8755 
L 1067.072046 56.144317 
L 1068.388213 91.239658 
L 1069.70438 100.843959 
L 1071.020547 182.555787 
L 1072.336715 109.063314 
L 1073.652882 112.59593 
L 1074.969049 127.519228 
L 1076.285216 93.64826 
L 1077.601383 143.68697 
L 1078.91755 174.216002 
L 1080.233717 219.327113 
L 1081.549884 175.540733 
L 1082.866051 149.297005 
L 1084.182218 159.71421 
L 1085.498385 54.548618 
L 1086.814552 196.194496 
L 1088.130719 233.929263 
L 1089.446887 242.720661 
L 1090.763054 207.454711 
L 1092.079221 210.284819 
L 1093.395388 210.59593 
L 1094.711555 215.553636 
L 1096.027722 222.317794 
L 1097.343889 249.123529 
L 1098.660056 259.129263 
L 1099.976223 220.200231 
L 1101.29239 232.855428 
L 1102.608557 233.708475 
L 1103.924724 236.618869 
L 1105.240891 244.577292 
L 1106.557059 259.319944 
L 1107.873226 263.936432 
L 1109.189393 257.513493 
L 1110.50556 245.731414 
L 1111.821727 249.926396 
L 1113.137894 252.605966 
L 1114.454061 255.717077 
L 1115.770228 265.762955 
L 1117.086395 271.633923 
L 1118.402562 253.539299 
L 1119.718729 255.596647 
L 1122.351063 264.548618 
L 1123.66723 264.899873 
L 1124.983398 269.03464 
L 1126.299565 269.626754 
L 1127.615732 266.405249 
L 1128.931899 265.381593 
L 1130.248066 266.084102 
L 1131.564233 268.061163 
L 1132.8804 267.699873 
L 1134.196567 271.021737 
L 1135.512734 270.680518 
L 1136.828901 268.7436 
L 1138.145068 268.482668 
L 1139.461235 268.783744 
L 1140.777402 269.325679 
L 1142.09357 269.084819 
L 1143.409737 270.770841 
L 1144.725904 270.851127 
L 1146.042071 269.456145 
L 1147.358238 269.024604 
L 1148.674405 269.225321 
L 1149.990572 269.917794 
L 1151.306739 270.269048 
L 1152.622906 271.021737 
L 1153.939073 271.633923 
L 1155.25524 269.2755 
L 1156.571407 269.8074 
L 1157.887574 269.285536 
L 1159.203742 269.606683 
L 1160.519909 269.767256 
L 1163.152243 271.513493 
L 1164.46841 269.978009 
L 1165.784577 269.205249 
L 1167.100744 268.583027 
L 1168.416911 267.659729 
L 1169.733078 269.51636 
L 1171.049245 270.720661 
L 1172.365412 271.122095 
L 1173.681579 269.405966 
L 1174.997746 269.2755 
L 1176.313914 267.669765 
L 1177.630081 268.14145 
L 1180.262415 270.319228 
L 1181.578582 270.690554 
L 1182.894749 268.251844 
L 1184.210916 267.479084 
L 1185.527083 267.448977 
L 1186.84325 267.840375 
L 1188.159417 267.509192 
L 1189.475584 269.596647 
L 1190.791751 269.907758 
L 1192.107918 267.438941 
L 1193.424086 266.35507 
L 1194.740253 265.502023 
L 1197.372587 266.555787 
L 1198.688754 269.114927 
L 1200.004921 270.359371 
L 1201.321088 266.06403 
L 1202.637255 264.819586 
L 1203.953422 263.203815 
L 1205.269589 264.097005 
L 1206.585756 263.083385 
L 1207.901923 266.816719 
L 1209.21809 268.352203 
L 1210.534258 263.424604 
L 1211.850425 260.564389 
L 1213.166592 261.297005 
L 1214.482759 260.805249 
L 1215.798926 260.062597 
L 1217.115093 266.95722 
L 1218.43126 265.060446 
L 1219.747427 261.377292 
L 1221.063594 255.496289 
L 1222.379761 260.39378 
L 1223.695928 255.737149 
L 1225.012095 256.238941 
L 1226.328262 262.370841 
L 1227.64443 265.160805 
L 1228.960597 260.534281 
L 1230.276764 250.970124 
L 1231.592931 255.074783 
L 1232.909098 254.231772 
L 1234.225265 254.572991 
L 1235.541432 261.276934 
L 1236.857599 262.501306 
L 1238.173766 264.578726 
L 1239.489933 255.777292 
L 1240.8061 248.912776 
L 1242.122267 252.204532 
L 1243.438434 249.896289 
L 1244.754602 260.022453 
L 1246.070769 261.507758 
L 1247.386936 254.432489 
L 1248.703103 248.00955 
L 1250.01927 251.391629 
L 1251.335437 249.816002 
L 1252.651604 251.120661 
L 1253.967771 260.584461 
L 1255.283938 261.869048 
L 1256.600105 255.004532 
L 1257.916272 244.888403 
L 1259.232439 250.056862 
L 1260.548606 250.699156 
L 1261.864773 251.05041 
L 1263.180941 259.380159 
L 1264.497108 260.443959 
L 1265.813275 250.990195 
L 1267.129442 244.978726 
L 1268.445609 245.881952 
L 1269.761776 245.350052 
L 1271.077943 245.891987 
L 1272.39411 256.871199 
L 1273.710277 258.517077 
L 1275.026444 250.538582 
L 1276.342611 241.666898 
L 1277.658778 240.843959 
L 1278.974945 243.83464 
L 1280.291113 247.216719 
L 1281.60728 256.560088 
L 1282.923447 256.198797 
L 1284.239614 260.183027 
L 1285.555781 248.551486 
L 1286.871948 237.923529 
L 1288.188115 238.244676 
L 1289.504282 241.094855 
L 1290.820449 253.12783 
L 1292.136616 258.015285 
L 1293.452783 238.706324 
L 1294.76895 236.789478 
L 1296.085117 236.15722 
L 1297.401285 243.001665 
L 1298.717452 239.067615 
L 1300.033619 255.51636 
L 1301.349786 353.2755 
L 1302.665953 243.372991 
L 1303.98212 213.606683 
L 1305.298287 235.274066 
L 1306.614454 234.812418 
L 1307.930621 238.074066 
L 1309.246788 272.416719 
L 1309.246788 272.416719 
" clip-path="url(#pd2698cc8c5)" style="fill: none; stroke: #0000ff; stroke-width: 1.5; stroke-linecap: square"/>
   </g>
   <g id="line2d_19">
    <path d="M 1069.70438 125.780729 
L 1071.020547 138.42862 
L 1072.336715 80.969089 
L 1073.652882 80.325878 
L 1074.969049 90.804096 
L 1076.285216 110.225725 
L 1077.601383 133.141435 
L 1078.91755 180.580654 
L 1080.233717 168.208468 
L 1081.549884 149.892614 
L 1082.866051 144.953363 
L 1084.182218 143.452616 
L 1085.498385 127.908671 
L 1086.814552 196.717434 
L 1088.130719 232.23471 
L 1090.763054 168.835714 
L 1092.079221 196.309728 
L 1093.395388 164.978075 
L 1094.711555 246.999643 
L 1096.027722 242.047758 
L 1097.343889 266.567092 
L 1098.660056 239.167918 
L 1099.976223 235.205573 
L 1101.29239 236.501074 
L 1102.608557 217.334355 
L 1103.924724 254.206882 
L 1105.240891 259.548339 
L 1106.557059 271.99982 
L 1107.873226 245.502079 
L 1109.189393 259.331972 
L 1110.50556 250.449616 
L 1111.821727 244.084845 
L 1113.137894 262.233355 
L 1114.454061 272.200505 
L 1115.770228 275.734255 
L 1117.086395 262.169128 
L 1118.402562 257.843314 
L 1119.718729 259.701438 
L 1121.034896 257.35676 
L 1122.351063 268.035182 
L 1123.66723 272.762819 
L 1124.983398 276.103896 
L 1126.299565 262.684595 
L 1127.615732 267.135106 
L 1128.931899 267.971711 
L 1130.248066 266.494363 
L 1131.564233 269.749555 
L 1132.8804 274.581325 
L 1134.196567 276.230333 
L 1135.512734 268.021398 
L 1136.828901 269.361728 
L 1138.145068 269.850409 
L 1139.461235 269.623405 
L 1140.777402 270.302647 
L 1142.09357 273.63804 
L 1143.409737 273.87775 
L 1144.725904 269.627159 
L 1146.042071 269.926596 
L 1147.358238 270.038826 
L 1148.674405 269.881887 
L 1149.990572 270.212573 
L 1151.306739 272.559075 
L 1152.622906 272.4061 
L 1153.939073 270.30048 
L 1155.25524 269.733982 
L 1156.571407 270.38487 
L 1157.887574 270.11433 
L 1159.203742 270.340316 
L 1160.519909 271.336522 
L 1161.836076 271.649015 
L 1163.152243 269.984527 
L 1164.46841 269.992836 
L 1165.784577 269.518872 
L 1167.100744 269.442162 
L 1168.416911 269.064273 
L 1169.733078 270.642097 
L 1171.049245 271.08277 
L 1172.365412 269.608256 
L 1173.681579 268.900665 
L 1174.997746 268.969489 
L 1176.313914 268.271625 
L 1177.630081 269.297753 
L 1178.946248 270.090093 
L 1180.262415 270.589693 
L 1181.578582 269.189575 
L 1182.894749 268.473663 
L 1184.210916 267.59525 
L 1185.527083 267.982734 
L 1186.84325 268.769345 
L 1188.159417 268.759089 
L 1189.475584 269.47577 
L 1190.791751 268.182233 
L 1193.424086 266.606675 
L 1194.740253 266.640409 
L 1196.05642 266.97117 
L 1197.372587 267.890229 
L 1198.688754 268.615083 
L 1200.004921 267.537689 
L 1201.321088 265.774124 
L 1202.637255 265.128977 
L 1203.953422 265.010646 
L 1205.269589 265.735848 
L 1206.585756 265.839503 
L 1207.901923 267.116453 
L 1211.850425 261.218556 
L 1213.166592 262.568994 
L 1214.482759 262.060435 
L 1215.798926 263.12594 
L 1217.115093 265.639619 
L 1218.43126 261.897285 
L 1219.747427 260.159946 
L 1221.063594 257.689787 
L 1222.379761 260.846979 
L 1223.695928 257.834525 
L 1225.012095 261.030877 
L 1226.328262 260.984067 
L 1227.64443 260.66447 
L 1228.960597 256.582781 
L 1230.276764 254.95119 
L 1231.592931 255.027846 
L 1232.909098 255.829695 
L 1234.225265 259.160553 
L 1235.541432 260.077223 
L 1236.857599 257.732338 
L 1238.173766 256.039626 
L 1239.489933 256.447458 
L 1240.8061 252.076203 
L 1242.122267 254.338513 
L 1244.754602 260.56803 
L 1246.070769 258.450483 
L 1247.386936 250.747282 
L 1248.703103 248.308951 
L 1250.01927 252.063804 
L 1251.335437 250.600893 
L 1252.651604 255.63321 
L 1253.967771 257.926984 
L 1255.283938 256.449141 
L 1256.600105 250.191745 
L 1257.916272 248.416724 
L 1259.232439 251.130643 
L 1260.548606 251.751511 
L 1261.864773 256.636576 
L 1263.180941 257.543335 
L 1264.497108 254.770517 
L 1265.813275 247.070268 
L 1267.129442 248.902065 
L 1269.761776 248.622788 
L 1271.077943 252.728627 
L 1272.39411 255.526517 
L 1273.710277 250.921113 
L 1275.026444 245.006793 
L 1276.342611 244.248113 
L 1277.658778 244.110038 
L 1278.974945 246.065755 
L 1280.291113 252.922799 
L 1281.60728 254.417575 
L 1282.923447 248.555219 
L 1284.239614 248.541743 
L 1285.555781 246.762765 
L 1286.871948 243.79629 
L 1288.188115 244.549259 
L 1289.504282 252.155657 
L 1290.820449 254.167427 
L 1292.136616 253.117601 
L 1293.452783 237.419419 
L 1294.76895 235.961535 
L 1296.085117 238.370625 
L 1297.401285 243.951369 
L 1298.717452 245.011963 
L 1300.033619 251.491184 
L 1301.349786 292.002972 
L 1302.665953 243.457449 
L 1303.98212 231.896211 
L 1306.614454 259.156878 
L 1307.930621 255.11132 
L 1309.246788 290.861248 
L 1309.246788 290.861248 
" clip-path="url(#pd2698cc8c5)" style="fill: none; stroke: #ffa500; stroke-width: 1.5; stroke-linecap: square"/>
   </g>
   <g id="line2d_20">
    <path d="M 1309.246788 290.861248 
L 1310.562955 245.125374 
L 1311.879122 231.881225 
L 1313.195289 238.418959 
L 1314.511457 244.337049 
L 1315.827624 246.065514 
L 1317.143791 260.270672 
L 1318.459958 280.350347 
L 1319.776125 246.236855 
L 1321.092292 237.130705 
L 1322.408459 242.922105 
L 1323.724626 245.545046 
L 1325.040793 246.300329 
L 1326.35696 257.698243 
" clip-path="url(#pd2698cc8c5)" style="fill: none; stroke: #ff0000; stroke-width: 1.5; stroke-linecap: square"/>
   </g>
   <g id="patch_3">
    <path d="M 48.029688 368.3955 
L 48.029688 35.7555 
" style="fill: none; stroke: #000000; stroke-width: 0.8; stroke-linejoin: miter; stroke-linecap: square"/>
   </g>
   <g id="patch_4">
    <path d="M 1387.229688 368.3955 
L 1387.229688 35.7555 
" style="fill: none; stroke: #000000; stroke-width: 0.8; stroke-linejoin: miter; stroke-linecap: square"/>
   </g>
   <g id="patch_5">
    <path d="M 48.029687 368.3955 
L 1387.229687 368.3955 
" style="fill: none; stroke: #000000; stroke-width: 0.8; stroke-linejoin: miter; stroke-linecap: square"/>
   </g>
   <g id="patch_6">
    <path d="M 48.029687 35.7555 
L 1387.229687 35.7555 
" style="fill: none; stroke: #000000; stroke-width: 0.8; stroke-linejoin: miter; stroke-linecap: square"/>
   </g>
   <g id="text_18">
    <!-- Daily Confirmed Cases Forecasting - Tennessee -->
    <g transform="translate(575.860938 16.318125)scale(0.12 -0.12)">
     <defs>
      <path id="DejaVuSans-44" d="M 1259 4147 
L 1259 519 
L 2022 519 
Q 2988 519 3436 956 
Q 3884 1394 3884 2338 
Q 3884 3275 3436 3711 
Q 2988 4147 2022 4147 
L 1259 4147 
z
M 628 4666 
L 1925 4666 
Q 3281 4666 3915 4102 
Q 4550 3538 4550 2338 
Q 4550 1131 3912 565 
Q 3275 0 1925 0 
L 628 0 
L 628 4666 
z
" transform="scale(0.015625)"/>
      <path id="DejaVuSans-61" d="M 2194 1759 
Q 1497 1759 1228 1600 
Q 959 1441 959 1056 
Q 959 750 1161 570 
Q 1363 391 1709 391 
Q 2188 391 2477 730 
Q 2766 1069 2766 1631 
L 2766 1759 
L 2194 1759 
z
M 3341 1997 
L 3341 0 
L 2766 0 
L 2766 531 
Q 2569 213 2275 61 
Q 1981 -91 1556 -91 
Q 1019 -91 701 211 
Q 384 513 384 1019 
Q 384 1609 779 1909 
Q 1175 2209 1959 2209 
L 2766 2209 
L 2766 2266 
Q 2766 2663 2505 2880 
Q 2244 3097 1772 3097 
Q 1472 3097 1187 3025 
Q 903 2953 641 2809 
L 641 3341 
Q 956 3463 1253 3523 
Q 1550 3584 1831 3584 
Q 2591 3584 2966 3190 
Q 3341 2797 3341 1997 
z
" transform="scale(0.015625)"/>
      <path id="DejaVuSans-69" d="M 603 3500 
L 1178 3500 
L 1178 0 
L 603 0 
L 603 3500 
z
M 603 4863 
L 1178 4863 
L 1178 4134 
L 603 4134 
L 603 4863 
z
" transform="scale(0.015625)"/>
      <path id="DejaVuSans-6c" d="M 603 4863 
L 1178 4863 
L 1178 0 
L 603 0 
L 603 4863 
z
" transform="scale(0.015625)"/>
      <path id="DejaVuSans-79" d="M 2059 -325 
Q 1816 -950 1584 -1140 
Q 1353 -1331 966 -1331 
L 506 -1331 
L 506 -850 
L 844 -850 
Q 1081 -850 1212 -737 
Q 1344 -625 1503 -206 
L 1606 56 
L 191 3500 
L 800 3500 
L 1894 763 
L 2988 3500 
L 3597 3500 
L 2059 -325 
z
" transform="scale(0.015625)"/>
      <path id="DejaVuSans-20" transform="scale(0.015625)"/>
      <path id="DejaVuSans-43" d="M 4122 4306 
L 4122 3641 
Q 3803 3938 3442 4084 
Q 3081 4231 2675 4231 
Q 1875 4231 1450 3742 
Q 1025 3253 1025 2328 
Q 1025 1406 1450 917 
Q 1875 428 2675 428 
Q 3081 428 3442 575 
Q 3803 722 4122 1019 
L 4122 359 
Q 3791 134 3420 21 
Q 3050 -91 2638 -91 
Q 1578 -91 968 557 
Q 359 1206 359 2328 
Q 359 3453 968 4101 
Q 1578 4750 2638 4750 
Q 3056 4750 3426 4639 
Q 3797 4528 4122 4306 
z
" transform="scale(0.015625)"/>
      <path id="DejaVuSans-6f" d="M 1959 3097 
Q 1497 3097 1228 2736 
Q 959 2375 959 1747 
Q 959 1119 1226 758 
Q 1494 397 1959 397 
Q 2419 397 2687 759 
Q 2956 1122 2956 1747 
Q 2956 2369 2687 2733 
Q 2419 3097 1959 3097 
z
M 1959 3584 
Q 2709 3584 3137 3096 
Q 3566 2609 3566 1747 
Q 3566 888 3137 398 
Q 2709 -91 1959 -91 
Q 1206 -91 779 398 
Q 353 888 353 1747 
Q 353 2609 779 3096 
Q 1206 3584 1959 3584 
z
" transform="scale(0.015625)"/>
      <path id="DejaVuSans-6e" d="M 3513 2113 
L 3513 0 
L 2938 0 
L 2938 2094 
Q 2938 2591 2744 2837 
Q 2550 3084 2163 3084 
Q 1697 3084 1428 2787 
Q 1159 2491 1159 1978 
L 1159 0 
L 581 0 
L 581 3500 
L 1159 3500 
L 1159 2956 
Q 1366 3272 1645 3428 
Q 1925 3584 2291 3584 
Q 2894 3584 3203 3211 
Q 3513 2838 3513 2113 
z
" transform="scale(0.015625)"/>
      <path id="DejaVuSans-66" d="M 2375 4863 
L 2375 4384 
L 1825 4384 
Q 1516 4384 1395 4259 
Q 1275 4134 1275 3809 
L 1275 3500 
L 2222 3500 
L 2222 3053 
L 1275 3053 
L 1275 0 
L 697 0 
L 697 3053 
L 147 3053 
L 147 3500 
L 697 3500 
L 697 3744 
Q 697 4328 969 4595 
Q 1241 4863 1831 4863 
L 2375 4863 
z
" transform="scale(0.015625)"/>
      <path id="DejaVuSans-72" d="M 2631 2963 
Q 2534 3019 2420 3045 
Q 2306 3072 2169 3072 
Q 1681 3072 1420 2755 
Q 1159 2438 1159 1844 
L 1159 0 
L 581 0 
L 581 3500 
L 1159 3500 
L 1159 2956 
Q 1341 3275 1631 3429 
Q 1922 3584 2338 3584 
Q 2397 3584 2469 3576 
Q 2541 3569 2628 3553 
L 2631 2963 
z
" transform="scale(0.015625)"/>
      <path id="DejaVuSans-6d" d="M 3328 2828 
Q 3544 3216 3844 3400 
Q 4144 3584 4550 3584 
Q 5097 3584 5394 3201 
Q 5691 2819 5691 2113 
L 5691 0 
L 5113 0 
L 5113 2094 
Q 5113 2597 4934 2840 
Q 4756 3084 4391 3084 
Q 3944 3084 3684 2787 
Q 3425 2491 3425 1978 
L 3425 0 
L 2847 0 
L 2847 2094 
Q 2847 2600 2669 2842 
Q 2491 3084 2119 3084 
Q 1678 3084 1418 2786 
Q 1159 2488 1159 1978 
L 1159 0 
L 581 0 
L 581 3500 
L 1159 3500 
L 1159 2956 
Q 1356 3278 1631 3431 
Q 1906 3584 2284 3584 
Q 2666 3584 2933 3390 
Q 3200 3197 3328 2828 
z
" transform="scale(0.015625)"/>
      <path id="DejaVuSans-65" d="M 3597 1894 
L 3597 1613 
L 953 1613 
Q 991 1019 1311 708 
Q 1631 397 2203 397 
Q 2534 397 2845 478 
Q 3156 559 3463 722 
L 3463 178 
Q 3153 47 2828 -22 
Q 2503 -91 2169 -91 
Q 1331 -91 842 396 
Q 353 884 353 1716 
Q 353 2575 817 3079 
Q 1281 3584 2069 3584 
Q 2775 3584 3186 3129 
Q 3597 2675 3597 1894 
z
M 3022 2063 
Q 3016 2534 2758 2815 
Q 2500 3097 2075 3097 
Q 1594 3097 1305 2825 
Q 1016 2553 972 2059 
L 3022 2063 
z
" transform="scale(0.015625)"/>
      <path id="DejaVuSans-64" d="M 2906 2969 
L 2906 4863 
L 3481 4863 
L 3481 0 
L 2906 0 
L 2906 525 
Q 2725 213 2448 61 
Q 2172 -91 1784 -91 
Q 1150 -91 751 415 
Q 353 922 353 1747 
Q 353 2572 751 3078 
Q 1150 3584 1784 3584 
Q 2172 3584 2448 3432 
Q 2725 3281 2906 2969 
z
M 947 1747 
Q 947 1113 1208 752 
Q 1469 391 1925 391 
Q 2381 391 2643 752 
Q 2906 1113 2906 1747 
Q 2906 2381 2643 2742 
Q 2381 3103 1925 3103 
Q 1469 3103 1208 2742 
Q 947 2381 947 1747 
z
" transform="scale(0.015625)"/>
      <path id="DejaVuSans-73" d="M 2834 3397 
L 2834 2853 
Q 2591 2978 2328 3040 
Q 2066 3103 1784 3103 
Q 1356 3103 1142 2972 
Q 928 2841 928 2578 
Q 928 2378 1081 2264 
Q 1234 2150 1697 2047 
L 1894 2003 
Q 2506 1872 2764 1633 
Q 3022 1394 3022 966 
Q 3022 478 2636 193 
Q 2250 -91 1575 -91 
Q 1294 -91 989 -36 
Q 684 19 347 128 
L 347 722 
Q 666 556 975 473 
Q 1284 391 1588 391 
Q 1994 391 2212 530 
Q 2431 669 2431 922 
Q 2431 1156 2273 1281 
Q 2116 1406 1581 1522 
L 1381 1569 
Q 847 1681 609 1914 
Q 372 2147 372 2553 
Q 372 3047 722 3315 
Q 1072 3584 1716 3584 
Q 2034 3584 2315 3537 
Q 2597 3491 2834 3397 
z
" transform="scale(0.015625)"/>
      <path id="DejaVuSans-46" d="M 628 4666 
L 3309 4666 
L 3309 4134 
L 1259 4134 
L 1259 2759 
L 3109 2759 
L 3109 2228 
L 1259 2228 
L 1259 0 
L 628 0 
L 628 4666 
z
" transform="scale(0.015625)"/>
      <path id="DejaVuSans-63" d="M 3122 3366 
L 3122 2828 
Q 2878 2963 2633 3030 
Q 2388 3097 2138 3097 
Q 1578 3097 1268 2742 
Q 959 2388 959 1747 
Q 959 1106 1268 751 
Q 1578 397 2138 397 
Q 2388 397 2633 464 
Q 2878 531 3122 666 
L 3122 134 
Q 2881 22 2623 -34 
Q 2366 -91 2075 -91 
Q 1284 -91 818 406 
Q 353 903 353 1747 
Q 353 2603 823 3093 
Q 1294 3584 2113 3584 
Q 2378 3584 2631 3529 
Q 2884 3475 3122 3366 
z
" transform="scale(0.015625)"/>
      <path id="DejaVuSans-74" d="M 1172 4494 
L 1172 3500 
L 2356 3500 
L 2356 3053 
L 1172 3053 
L 1172 1153 
Q 1172 725 1289 603 
Q 1406 481 1766 481 
L 2356 481 
L 2356 0 
L 1766 0 
Q 1100 0 847 248 
Q 594 497 594 1153 
L 594 3053 
L 172 3053 
L 172 3500 
L 594 3500 
L 594 4494 
L 1172 4494 
z
" transform="scale(0.015625)"/>
      <path id="DejaVuSans-67" d="M 2906 1791 
Q 2906 2416 2648 2759 
Q 2391 3103 1925 3103 
Q 1463 3103 1205 2759 
Q 947 2416 947 1791 
Q 947 1169 1205 825 
Q 1463 481 1925 481 
Q 2391 481 2648 825 
Q 2906 1169 2906 1791 
z
M 3481 434 
Q 3481 -459 3084 -895 
Q 2688 -1331 1869 -1331 
Q 1566 -1331 1297 -1286 
Q 1028 -1241 775 -1147 
L 775 -588 
Q 1028 -725 1275 -790 
Q 1522 -856 1778 -856 
Q 2344 -856 2625 -561 
Q 2906 -266 2906 331 
L 2906 616 
Q 2728 306 2450 153 
Q 2172 0 1784 0 
Q 1141 0 747 490 
Q 353 981 353 1791 
Q 353 2603 747 3093 
Q 1141 3584 1784 3584 
Q 2172 3584 2450 3431 
Q 2728 3278 2906 2969 
L 2906 3500 
L 3481 3500 
L 3481 434 
z
" transform="scale(0.015625)"/>
      <path id="DejaVuSans-54" d="M -19 4666 
L 3928 4666 
L 3928 4134 
L 2272 4134 
L 2272 0 
L 1638 0 
L 1638 4134 
L -19 4134 
L -19 4666 
z
" transform="scale(0.015625)"/>
     </defs>
     <use xlink:href="#DejaVuSans-44"/>
     <use xlink:href="#DejaVuSans-61" x="77.001953"/>
     <use xlink:href="#DejaVuSans-69" x="138.28125"/>
     <use xlink:href="#DejaVuSans-6c" x="166.064453"/>
     <use xlink:href="#DejaVuSans-79" x="193.847656"/>
     <use xlink:href="#DejaVuSans-20" x="253.027344"/>
     <use xlink:href="#DejaVuSans-43" x="284.814453"/>
     <use xlink:href="#DejaVuSans-6f" x="354.638672"/>
     <use xlink:href="#DejaVuSans-6e" x="415.820312"/>
     <use xlink:href="#DejaVuSans-66" x="479.199219"/>
     <use xlink:href="#DejaVuSans-69" x="514.404297"/>
     <use xlink:href="#DejaVuSans-72" x="542.1875"/>
     <use xlink:href="#DejaVuSans-6d" x="581.550781"/>
     <use xlink:href="#DejaVuSans-65" x="678.962891"/>
     <use xlink:href="#DejaVuSans-64" x="740.486328"/>
     <use xlink:href="#DejaVuSans-20" x="803.962891"/>
     <use xlink:href="#DejaVuSans-43" x="835.75"/>
     <use xlink:href="#DejaVuSans-61" x="905.574219"/>
     <use xlink:href="#DejaVuSans-73" x="966.853516"/>
     <use xlink:href="#DejaVuSans-65" x="1018.953125"/>
     <use xlink:href="#DejaVuSans-73" x="1080.476562"/>
     <use xlink:href="#DejaVuSans-20" x="1132.576172"/>
     <use xlink:href="#DejaVuSans-46" x="1164.363281"/>
     <use xlink:href="#DejaVuSans-6f" x="1218.257812"/>
     <use xlink:href="#DejaVuSans-72" x="1279.439453"/>
     <use xlink:href="#DejaVuSans-65" x="1318.302734"/>
     <use xlink:href="#DejaVuSans-63" x="1379.826172"/>
     <use xlink:href="#DejaVuSans-61" x="1434.806641"/>
     <use xlink:href="#DejaVuSans-73" x="1496.085938"/>
     <use xlink:href="#DejaVuSans-74" x="1548.185547"/>
     <use xlink:href="#DejaVuSans-69" x="1587.394531"/>
     <use xlink:href="#DejaVuSans-6e" x="1615.177734"/>
     <use xlink:href="#DejaVuSans-67" x="1678.556641"/>
     <use xlink:href="#DejaVuSans-20" x="1742.033203"/>
     <use xlink:href="#DejaVuSans-2d" x="1773.820312"/>
     <use xlink:href="#DejaVuSans-20" x="1809.904297"/>
     <use xlink:href="#DejaVuSans-54" x="1841.691406"/>
     <use xlink:href="#DejaVuSans-65" x="1885.775391"/>
     <use xlink:href="#DejaVuSans-6e" x="1947.298828"/>
     <use xlink:href="#DejaVuSans-6e" x="2010.677734"/>
     <use xlink:href="#DejaVuSans-65" x="2074.056641"/>
     <use xlink:href="#DejaVuSans-73" x="2135.580078"/>
     <use xlink:href="#DejaVuSans-73" x="2187.679688"/>
     <use xlink:href="#DejaVuSans-65" x="2239.779297"/>
     <use xlink:href="#DejaVuSans-65" x="2301.302734"/>
    </g>
    <!-- ARIMA (4, 1, 1)x(1, 0, 1, 7) (R2 = 0.866211) -->
    <g transform="translate(585.645625 29.7555)scale(0.12 -0.12)">
     <defs>
      <path id="DejaVuSans-41" d="M 2188 4044 
L 1331 1722 
L 3047 1722 
L 2188 4044 
z
M 1831 4666 
L 2547 4666 
L 4325 0 
L 3669 0 
L 3244 1197 
L 1141 1197 
L 716 0 
L 50 0 
L 1831 4666 
z
" transform="scale(0.015625)"/>
      <path id="DejaVuSans-52" d="M 2841 2188 
Q 3044 2119 3236 1894 
Q 3428 1669 3622 1275 
L 4263 0 
L 3584 0 
L 2988 1197 
Q 2756 1666 2539 1819 
Q 2322 1972 1947 1972 
L 1259 1972 
L 1259 0 
L 628 0 
L 628 4666 
L 2053 4666 
Q 2853 4666 3247 4331 
Q 3641 3997 3641 3322 
Q 3641 2881 3436 2590 
Q 3231 2300 2841 2188 
z
M 1259 4147 
L 1259 2491 
L 2053 2491 
Q 2509 2491 2742 2702 
Q 2975 2913 2975 3322 
Q 2975 3731 2742 3939 
Q 2509 4147 2053 4147 
L 1259 4147 
z
" transform="scale(0.015625)"/>
      <path id="DejaVuSans-49" d="M 628 4666 
L 1259 4666 
L 1259 0 
L 628 0 
L 628 4666 
z
" transform="scale(0.015625)"/>
      <path id="DejaVuSans-4d" d="M 628 4666 
L 1569 4666 
L 2759 1491 
L 3956 4666 
L 4897 4666 
L 4897 0 
L 4281 0 
L 4281 4097 
L 3078 897 
L 2444 897 
L 1241 4097 
L 1241 0 
L 628 0 
L 628 4666 
z
" transform="scale(0.015625)"/>
      <path id="DejaVuSans-28" d="M 1984 4856 
Q 1566 4138 1362 3434 
Q 1159 2731 1159 2009 
Q 1159 1288 1364 580 
Q 1569 -128 1984 -844 
L 1484 -844 
Q 1016 -109 783 600 
Q 550 1309 550 2009 
Q 550 2706 781 3412 
Q 1013 4119 1484 4856 
L 1984 4856 
z
" transform="scale(0.015625)"/>
      <path id="DejaVuSans-2c" d="M 750 794 
L 1409 794 
L 1409 256 
L 897 -744 
L 494 -744 
L 750 256 
L 750 794 
z
" transform="scale(0.015625)"/>
      <path id="DejaVuSans-29" d="M 513 4856 
L 1013 4856 
Q 1481 4119 1714 3412 
Q 1947 2706 1947 2009 
Q 1947 1309 1714 600 
Q 1481 -109 1013 -844 
L 513 -844 
Q 928 -128 1133 580 
Q 1338 1288 1338 2009 
Q 1338 2731 1133 3434 
Q 928 4138 513 4856 
z
" transform="scale(0.015625)"/>
      <path id="DejaVuSans-78" d="M 3513 3500 
L 2247 1797 
L 3578 0 
L 2900 0 
L 1881 1375 
L 863 0 
L 184 0 
L 1544 1831 
L 300 3500 
L 978 3500 
L 1906 2253 
L 2834 3500 
L 3513 3500 
z
" transform="scale(0.015625)"/>
      <path id="DejaVuSans-3d" d="M 678 2906 
L 4684 2906 
L 4684 2381 
L 678 2381 
L 678 2906 
z
M 678 1631 
L 4684 1631 
L 4684 1100 
L 678 1100 
L 678 1631 
z
" transform="scale(0.015625)"/>
      <path id="DejaVuSans-2e" d="M 684 794 
L 1344 794 
L 1344 0 
L 684 0 
L 684 794 
z
" transform="scale(0.015625)"/>
      <path id="DejaVuSans-38" d="M 2034 2216 
Q 1584 2216 1326 1975 
Q 1069 1734 1069 1313 
Q 1069 891 1326 650 
Q 1584 409 2034 409 
Q 2484 409 2743 651 
Q 3003 894 3003 1313 
Q 3003 1734 2745 1975 
Q 2488 2216 2034 2216 
z
M 1403 2484 
Q 997 2584 770 2862 
Q 544 3141 544 3541 
Q 544 4100 942 4425 
Q 1341 4750 2034 4750 
Q 2731 4750 3128 4425 
Q 3525 4100 3525 3541 
Q 3525 3141 3298 2862 
Q 3072 2584 2669 2484 
Q 3125 2378 3379 2068 
Q 3634 1759 3634 1313 
Q 3634 634 3220 271 
Q 2806 -91 2034 -91 
Q 1263 -91 848 271 
Q 434 634 434 1313 
Q 434 1759 690 2068 
Q 947 2378 1403 2484 
z
M 1172 3481 
Q 1172 3119 1398 2916 
Q 1625 2713 2034 2713 
Q 2441 2713 2670 2916 
Q 2900 3119 2900 3481 
Q 2900 3844 2670 4047 
Q 2441 4250 2034 4250 
Q 1625 4250 1398 4047 
Q 1172 3844 1172 3481 
z
" transform="scale(0.015625)"/>
      <path id="DejaVuSans-36" d="M 2113 2584 
Q 1688 2584 1439 2293 
Q 1191 2003 1191 1497 
Q 1191 994 1439 701 
Q 1688 409 2113 409 
Q 2538 409 2786 701 
Q 3034 994 3034 1497 
Q 3034 2003 2786 2293 
Q 2538 2584 2113 2584 
z
M 3366 4563 
L 3366 3988 
Q 3128 4100 2886 4159 
Q 2644 4219 2406 4219 
Q 1781 4219 1451 3797 
Q 1122 3375 1075 2522 
Q 1259 2794 1537 2939 
Q 1816 3084 2150 3084 
Q 2853 3084 3261 2657 
Q 3669 2231 3669 1497 
Q 3669 778 3244 343 
Q 2819 -91 2113 -91 
Q 1303 -91 875 529 
Q 447 1150 447 2328 
Q 447 3434 972 4092 
Q 1497 4750 2381 4750 
Q 2619 4750 2861 4703 
Q 3103 4656 3366 4563 
z
" transform="scale(0.015625)"/>
     </defs>
     <use xlink:href="#DejaVuSans-41"/>
     <use xlink:href="#DejaVuSans-52" x="68.408203"/>
     <use xlink:href="#DejaVuSans-49" x="137.890625"/>
     <use xlink:href="#DejaVuSans-4d" x="167.382812"/>
     <use xlink:href="#DejaVuSans-41" x="253.662109"/>
     <use xlink:href="#DejaVuSans-20" x="322.070312"/>
     <use xlink:href="#DejaVuSans-28" x="353.857422"/>
     <use xlink:href="#DejaVuSans-34" x="392.871094"/>
     <use xlink:href="#DejaVuSans-2c" x="456.494141"/>
     <use xlink:href="#DejaVuSans-20" x="488.28125"/>
     <use xlink:href="#DejaVuSans-31" x="520.068359"/>
     <use xlink:href="#DejaVuSans-2c" x="583.691406"/>
     <use xlink:href="#DejaVuSans-20" x="615.478516"/>
     <use xlink:href="#DejaVuSans-31" x="647.265625"/>
     <use xlink:href="#DejaVuSans-29" x="710.888672"/>
     <use xlink:href="#DejaVuSans-78" x="749.902344"/>
     <use xlink:href="#DejaVuSans-28" x="809.082031"/>
     <use xlink:href="#DejaVuSans-31" x="848.095703"/>
     <use xlink:href="#DejaVuSans-2c" x="911.71875"/>
     <use xlink:href="#DejaVuSans-20" x="943.505859"/>
     <use xlink:href="#DejaVuSans-30" x="975.292969"/>
     <use xlink:href="#DejaVuSans-2c" x="1038.916016"/>
     <use xlink:href="#DejaVuSans-20" x="1070.703125"/>
     <use xlink:href="#DejaVuSans-31" x="1102.490234"/>
     <use xlink:href="#DejaVuSans-2c" x="1166.113281"/>
     <use xlink:href="#DejaVuSans-20" x="1197.900391"/>
     <use xlink:href="#DejaVuSans-37" x="1229.6875"/>
     <use xlink:href="#DejaVuSans-29" x="1293.310547"/>
     <use xlink:href="#DejaVuSans-20" x="1332.324219"/>
     <use xlink:href="#DejaVuSans-28" x="1364.111328"/>
     <use xlink:href="#DejaVuSans-52" x="1403.125"/>
     <use xlink:href="#DejaVuSans-32" x="1472.607422"/>
     <use xlink:href="#DejaVuSans-20" x="1536.230469"/>
     <use xlink:href="#DejaVuSans-3d" x="1568.017578"/>
     <use xlink:href="#DejaVuSans-20" x="1651.806641"/>
     <use xlink:href="#DejaVuSans-30" x="1683.59375"/>
     <use xlink:href="#DejaVuSans-2e" x="1747.216797"/>
     <use xlink:href="#DejaVuSans-38" x="1779.003906"/>
     <use xlink:href="#DejaVuSans-36" x="1842.626953"/>
     <use xlink:href="#DejaVuSans-36" x="1906.25"/>
     <use xlink:href="#DejaVuSans-32" x="1969.873047"/>
     <use xlink:href="#DejaVuSans-31" x="2033.496094"/>
     <use xlink:href="#DejaVuSans-31" x="2097.119141"/>
     <use xlink:href="#DejaVuSans-29" x="2160.742188"/>
    </g>
   </g>
   <g id="legend_1">
    <g id="patch_7">
     <path d="M 1283.15 87.789875 
L 1380.229688 87.789875 
Q 1382.229688 87.789875 1382.229688 85.789875 
L 1382.229688 42.7555 
Q 1382.229688 40.7555 1380.229688 40.7555 
L 1283.15 40.7555 
Q 1281.15 40.7555 1281.15 42.7555 
L 1281.15 85.789875 
Q 1281.15 87.789875 1283.15 87.789875 
z
" style="fill: #ffffff; opacity: 0.8; stroke: #cccccc; stroke-linejoin: miter"/>
    </g>
    <g id="line2d_21">
     <path d="M 1285.15 48.853937 
L 1295.15 48.853937 
L 1305.15 48.853937 
" style="fill: none; stroke: #0000ff; stroke-width: 1.5; stroke-linecap: square"/>
    </g>
    <g id="text_19">
     <!-- Actual Value -->
     <g transform="translate(1313.15 52.353937)scale(0.1 -0.1)">
      <defs>
       <path id="DejaVuSans-75" d="M 544 1381 
L 544 3500 
L 1119 3500 
L 1119 1403 
Q 1119 906 1312 657 
Q 1506 409 1894 409 
Q 2359 409 2629 706 
Q 2900 1003 2900 1516 
L 2900 3500 
L 3475 3500 
L 3475 0 
L 2900 0 
L 2900 538 
Q 2691 219 2414 64 
Q 2138 -91 1772 -91 
Q 1169 -91 856 284 
Q 544 659 544 1381 
z
M 1991 3584 
L 1991 3584 
z
" transform="scale(0.015625)"/>
       <path id="DejaVuSans-56" d="M 1831 0 
L 50 4666 
L 709 4666 
L 2188 738 
L 3669 4666 
L 4325 4666 
L 2547 0 
L 1831 0 
z
" transform="scale(0.015625)"/>
      </defs>
      <use xlink:href="#DejaVuSans-41"/>
      <use xlink:href="#DejaVuSans-63" x="66.658203"/>
      <use xlink:href="#DejaVuSans-74" x="121.638672"/>
      <use xlink:href="#DejaVuSans-75" x="160.847656"/>
      <use xlink:href="#DejaVuSans-61" x="224.226562"/>
      <use xlink:href="#DejaVuSans-6c" x="285.505859"/>
      <use xlink:href="#DejaVuSans-20" x="313.289062"/>
      <use xlink:href="#DejaVuSans-56" x="345.076172"/>
      <use xlink:href="#DejaVuSans-61" x="405.734375"/>
      <use xlink:href="#DejaVuSans-6c" x="467.013672"/>
      <use xlink:href="#DejaVuSans-75" x="494.796875"/>
      <use xlink:href="#DejaVuSans-65" x="558.175781"/>
     </g>
    </g>
    <g id="line2d_22">
     <path d="M 1285.15 63.532062 
L 1295.15 63.532062 
L 1305.15 63.532062 
" style="fill: none; stroke: #ffa500; stroke-width: 1.5; stroke-linecap: square"/>
    </g>
    <g id="text_20">
     <!-- Check Value -->
     <g transform="translate(1313.15 67.032062)scale(0.1 -0.1)">
      <defs>
       <path id="DejaVuSans-68" d="M 3513 2113 
L 3513 0 
L 2938 0 
L 2938 2094 
Q 2938 2591 2744 2837 
Q 2550 3084 2163 3084 
Q 1697 3084 1428 2787 
Q 1159 2491 1159 1978 
L 1159 0 
L 581 0 
L 581 4863 
L 1159 4863 
L 1159 2956 
Q 1366 3272 1645 3428 
Q 1925 3584 2291 3584 
Q 2894 3584 3203 3211 
Q 3513 2838 3513 2113 
z
" transform="scale(0.015625)"/>
       <path id="DejaVuSans-6b" d="M 581 4863 
L 1159 4863 
L 1159 1991 
L 2875 3500 
L 3609 3500 
L 1753 1863 
L 3688 0 
L 2938 0 
L 1159 1709 
L 1159 0 
L 581 0 
L 581 4863 
z
" transform="scale(0.015625)"/>
      </defs>
      <use xlink:href="#DejaVuSans-43"/>
      <use xlink:href="#DejaVuSans-68" x="69.824219"/>
      <use xlink:href="#DejaVuSans-65" x="133.203125"/>
      <use xlink:href="#DejaVuSans-63" x="194.726562"/>
      <use xlink:href="#DejaVuSans-6b" x="249.707031"/>
      <use xlink:href="#DejaVuSans-20" x="307.617188"/>
      <use xlink:href="#DejaVuSans-56" x="339.404297"/>
      <use xlink:href="#DejaVuSans-61" x="400.0625"/>
      <use xlink:href="#DejaVuSans-6c" x="461.341797"/>
      <use xlink:href="#DejaVuSans-75" x="489.125"/>
      <use xlink:href="#DejaVuSans-65" x="552.503906"/>
     </g>
    </g>
    <g id="line2d_23">
     <path d="M 1285.15 78.210187 
L 1295.15 78.210187 
L 1305.15 78.210187 
" style="fill: none; stroke: #ff0000; stroke-width: 1.5; stroke-linecap: square"/>
    </g>
    <g id="text_21">
     <!-- Predict Value -->
     <g transform="translate(1313.15 81.710187)scale(0.1 -0.1)">
      <defs>
       <path id="DejaVuSans-50" d="M 1259 4147 
L 1259 2394 
L 2053 2394 
Q 2494 2394 2734 2622 
Q 2975 2850 2975 3272 
Q 2975 3691 2734 3919 
Q 2494 4147 2053 4147 
L 1259 4147 
z
M 628 4666 
L 2053 4666 
Q 2838 4666 3239 4311 
Q 3641 3956 3641 3272 
Q 3641 2581 3239 2228 
Q 2838 1875 2053 1875 
L 1259 1875 
L 1259 0 
L 628 0 
L 628 4666 
z
" transform="scale(0.015625)"/>
      </defs>
      <use xlink:href="#DejaVuSans-50"/>
      <use xlink:href="#DejaVuSans-72" x="58.552734"/>
      <use xlink:href="#DejaVuSans-65" x="97.416016"/>
      <use xlink:href="#DejaVuSans-64" x="158.939453"/>
      <use xlink:href="#DejaVuSans-69" x="222.416016"/>
      <use xlink:href="#DejaVuSans-63" x="250.199219"/>
      <use xlink:href="#DejaVuSans-74" x="305.179688"/>
      <use xlink:href="#DejaVuSans-20" x="344.388672"/>
      <use xlink:href="#DejaVuSans-56" x="376.175781"/>
      <use xlink:href="#DejaVuSans-61" x="436.833984"/>
      <use xlink:href="#DejaVuSans-6c" x="498.113281"/>
      <use xlink:href="#DejaVuSans-75" x="525.896484"/>
      <use xlink:href="#DejaVuSans-65" x="589.275391"/>
     </g>
    </g>
   </g>
  </g>
 </g>
 <defs>
  <clipPath id="pd2698cc8c5">
   <rect x="48.029688" y="35.7555" width="1339.2" height="332.64"/>
  </clipPath>
 </defs>
</svg>
