<?xml version="1.0" encoding="utf-8" standalone="no"?>
<!DOCTYPE svg PUBLIC "-//W3C//DTD SVG 1.1//EN"
  "http://www.w3.org/Graphics/SVG/1.1/DTD/svg11.dtd">
<svg xmlns:xlink="http://www.w3.org/1999/xlink" width="1386.05pt" height="392.273625pt" viewBox="0 0 1386.05 392.273625" xmlns="http://www.w3.org/2000/svg" version="1.1">
 <metadata>
  <rdf:RDF xmlns:dc="http://purl.org/dc/elements/1.1/" xmlns:cc="http://creativecommons.org/ns#" xmlns:rdf="http://www.w3.org/1999/02/22-rdf-syntax-ns#">
   <cc:Work>
    <dc:type rdf:resource="http://purl.org/dc/dcmitype/StillImage"/>
    <dc:date>2022-07-25T17:48:20.368433</dc:date>
    <dc:format>image/svg+xml</dc:format>
    <dc:creator>
     <cc:Agent>
      <dc:title>Matplotlib v3.5.2, https://matplotlib.org/</dc:title>
     </cc:Agent>
    </dc:creator>
   </cc:Work>
  </rdf:RDF>
 </metadata>
 <defs>
  <style type="text/css">*{stroke-linejoin: round; stroke-linecap: butt}</style>
 </defs>
 <g id="figure_1">
  <g id="patch_1">
   <path d="M 0 392.273625 
L 1386.05 392.273625 
L 1386.05 0 
L 0 0 
z
" style="fill: #ffffff"/>
  </g>
  <g id="axes_1">
   <g id="patch_2">
    <path d="M 39.65 368.3955 
L 1378.85 368.3955 
L 1378.85 35.7555 
L 39.65 35.7555 
z
" style="fill: #ffffff"/>
   </g>
   <g id="matplotlib.axis_1">
    <g id="xtick_1">
     <g id="line2d_1">
      <defs>
       <path id="mcef4cd7f29" d="M 0 0 
L 0 3.5 
" style="stroke: #000000; stroke-width: 0.8"/>
      </defs>
      <g>
       <use xlink:href="#mcef4cd7f29" x="71.598321" y="368.3955" style="stroke: #000000; stroke-width: 0.8"/>
      </g>
     </g>
     <g id="text_1">
      <!-- 2020-01 -->
      <g transform="translate(50.706915 382.993937)scale(0.1 -0.1)">
       <defs>
        <path id="DejaVuSans-32" d="M 1228 531 
L 3431 531 
L 3431 0 
L 469 0 
L 469 531 
Q 828 903 1448 1529 
Q 2069 2156 2228 2338 
Q 2531 2678 2651 2914 
Q 2772 3150 2772 3378 
Q 2772 3750 2511 3984 
Q 2250 4219 1831 4219 
Q 1534 4219 1204 4116 
Q 875 4013 500 3803 
L 500 4441 
Q 881 4594 1212 4672 
Q 1544 4750 1819 4750 
Q 2544 4750 2975 4387 
Q 3406 4025 3406 3419 
Q 3406 3131 3298 2873 
Q 3191 2616 2906 2266 
Q 2828 2175 2409 1742 
Q 1991 1309 1228 531 
z
" transform="scale(0.015625)"/>
        <path id="DejaVuSans-30" d="M 2034 4250 
Q 1547 4250 1301 3770 
Q 1056 3291 1056 2328 
Q 1056 1369 1301 889 
Q 1547 409 2034 409 
Q 2525 409 2770 889 
Q 3016 1369 3016 2328 
Q 3016 3291 2770 3770 
Q 2525 4250 2034 4250 
z
M 2034 4750 
Q 2819 4750 3233 4129 
Q 3647 3509 3647 2328 
Q 3647 1150 3233 529 
Q 2819 -91 2034 -91 
Q 1250 -91 836 529 
Q 422 1150 422 2328 
Q 422 3509 836 4129 
Q 1250 4750 2034 4750 
z
" transform="scale(0.015625)"/>
        <path id="DejaVuSans-2d" d="M 313 2009 
L 1997 2009 
L 1997 1497 
L 313 1497 
L 313 2009 
z
" transform="scale(0.015625)"/>
        <path id="DejaVuSans-31" d="M 794 531 
L 1825 531 
L 1825 4091 
L 703 3866 
L 703 4441 
L 1819 4666 
L 2450 4666 
L 2450 531 
L 3481 531 
L 3481 0 
L 794 0 
L 794 531 
z
" transform="scale(0.015625)"/>
       </defs>
       <use xlink:href="#DejaVuSans-32"/>
       <use xlink:href="#DejaVuSans-30" x="63.623047"/>
       <use xlink:href="#DejaVuSans-32" x="127.246094"/>
       <use xlink:href="#DejaVuSans-30" x="190.869141"/>
       <use xlink:href="#DejaVuSans-2d" x="254.492188"/>
       <use xlink:href="#DejaVuSans-30" x="290.576172"/>
       <use xlink:href="#DejaVuSans-31" x="354.199219"/>
      </g>
     </g>
    </g>
    <g id="xtick_2">
     <g id="line2d_2">
      <g>
       <use xlink:href="#mcef4cd7f29" x="191.240183" y="368.3955" style="stroke: #000000; stroke-width: 0.8"/>
      </g>
     </g>
     <g id="text_2">
      <!-- 2020-04 -->
      <g transform="translate(170.348776 382.993937)scale(0.1 -0.1)">
       <defs>
        <path id="DejaVuSans-34" d="M 2419 4116 
L 825 1625 
L 2419 1625 
L 2419 4116 
z
M 2253 4666 
L 3047 4666 
L 3047 1625 
L 3713 1625 
L 3713 1100 
L 3047 1100 
L 3047 0 
L 2419 0 
L 2419 1100 
L 313 1100 
L 313 1709 
L 2253 4666 
z
" transform="scale(0.015625)"/>
       </defs>
       <use xlink:href="#DejaVuSans-32"/>
       <use xlink:href="#DejaVuSans-30" x="63.623047"/>
       <use xlink:href="#DejaVuSans-32" x="127.246094"/>
       <use xlink:href="#DejaVuSans-30" x="190.869141"/>
       <use xlink:href="#DejaVuSans-2d" x="254.492188"/>
       <use xlink:href="#DejaVuSans-30" x="290.576172"/>
       <use xlink:href="#DejaVuSans-34" x="354.199219"/>
      </g>
     </g>
    </g>
    <g id="xtick_3">
     <g id="line2d_3">
      <g>
       <use xlink:href="#mcef4cd7f29" x="310.882044" y="368.3955" style="stroke: #000000; stroke-width: 0.8"/>
      </g>
     </g>
     <g id="text_3">
      <!-- 2020-07 -->
      <g transform="translate(289.990638 382.993937)scale(0.1 -0.1)">
       <defs>
        <path id="DejaVuSans-37" d="M 525 4666 
L 3525 4666 
L 3525 4397 
L 1831 0 
L 1172 0 
L 2766 4134 
L 525 4134 
L 525 4666 
z
" transform="scale(0.015625)"/>
       </defs>
       <use xlink:href="#DejaVuSans-32"/>
       <use xlink:href="#DejaVuSans-30" x="63.623047"/>
       <use xlink:href="#DejaVuSans-32" x="127.246094"/>
       <use xlink:href="#DejaVuSans-30" x="190.869141"/>
       <use xlink:href="#DejaVuSans-2d" x="254.492188"/>
       <use xlink:href="#DejaVuSans-30" x="290.576172"/>
       <use xlink:href="#DejaVuSans-37" x="354.199219"/>
      </g>
     </g>
    </g>
    <g id="xtick_4">
     <g id="line2d_4">
      <g>
       <use xlink:href="#mcef4cd7f29" x="431.838651" y="368.3955" style="stroke: #000000; stroke-width: 0.8"/>
      </g>
     </g>
     <g id="text_4">
      <!-- 2020-10 -->
      <g transform="translate(410.947245 382.993937)scale(0.1 -0.1)">
       <use xlink:href="#DejaVuSans-32"/>
       <use xlink:href="#DejaVuSans-30" x="63.623047"/>
       <use xlink:href="#DejaVuSans-32" x="127.246094"/>
       <use xlink:href="#DejaVuSans-30" x="190.869141"/>
       <use xlink:href="#DejaVuSans-2d" x="254.492188"/>
       <use xlink:href="#DejaVuSans-31" x="290.576172"/>
       <use xlink:href="#DejaVuSans-30" x="354.199219"/>
      </g>
     </g>
    </g>
    <g id="xtick_5">
     <g id="line2d_5">
      <g>
       <use xlink:href="#mcef4cd7f29" x="552.795258" y="368.3955" style="stroke: #000000; stroke-width: 0.8"/>
      </g>
     </g>
     <g id="text_5">
      <!-- 2021-01 -->
      <g transform="translate(531.903852 382.993937)scale(0.1 -0.1)">
       <use xlink:href="#DejaVuSans-32"/>
       <use xlink:href="#DejaVuSans-30" x="63.623047"/>
       <use xlink:href="#DejaVuSans-32" x="127.246094"/>
       <use xlink:href="#DejaVuSans-31" x="190.869141"/>
       <use xlink:href="#DejaVuSans-2d" x="254.492188"/>
       <use xlink:href="#DejaVuSans-30" x="290.576172"/>
       <use xlink:href="#DejaVuSans-31" x="354.199219"/>
      </g>
     </g>
    </g>
    <g id="xtick_6">
     <g id="line2d_6">
      <g>
       <use xlink:href="#mcef4cd7f29" x="671.122374" y="368.3955" style="stroke: #000000; stroke-width: 0.8"/>
      </g>
     </g>
     <g id="text_6">
      <!-- 2021-04 -->
      <g transform="translate(650.230968 382.993937)scale(0.1 -0.1)">
       <use xlink:href="#DejaVuSans-32"/>
       <use xlink:href="#DejaVuSans-30" x="63.623047"/>
       <use xlink:href="#DejaVuSans-32" x="127.246094"/>
       <use xlink:href="#DejaVuSans-31" x="190.869141"/>
       <use xlink:href="#DejaVuSans-2d" x="254.492188"/>
       <use xlink:href="#DejaVuSans-30" x="290.576172"/>
       <use xlink:href="#DejaVuSans-34" x="354.199219"/>
      </g>
     </g>
    </g>
    <g id="xtick_7">
     <g id="line2d_7">
      <g>
       <use xlink:href="#mcef4cd7f29" x="790.764235" y="368.3955" style="stroke: #000000; stroke-width: 0.8"/>
      </g>
     </g>
     <g id="text_7">
      <!-- 2021-07 -->
      <g transform="translate(769.872829 382.993937)scale(0.1 -0.1)">
       <use xlink:href="#DejaVuSans-32"/>
       <use xlink:href="#DejaVuSans-30" x="63.623047"/>
       <use xlink:href="#DejaVuSans-32" x="127.246094"/>
       <use xlink:href="#DejaVuSans-31" x="190.869141"/>
       <use xlink:href="#DejaVuSans-2d" x="254.492188"/>
       <use xlink:href="#DejaVuSans-30" x="290.576172"/>
       <use xlink:href="#DejaVuSans-37" x="354.199219"/>
      </g>
     </g>
    </g>
    <g id="xtick_8">
     <g id="line2d_8">
      <g>
       <use xlink:href="#mcef4cd7f29" x="911.720842" y="368.3955" style="stroke: #000000; stroke-width: 0.8"/>
      </g>
     </g>
     <g id="text_8">
      <!-- 2021-10 -->
      <g transform="translate(890.829436 382.993937)scale(0.1 -0.1)">
       <use xlink:href="#DejaVuSans-32"/>
       <use xlink:href="#DejaVuSans-30" x="63.623047"/>
       <use xlink:href="#DejaVuSans-32" x="127.246094"/>
       <use xlink:href="#DejaVuSans-31" x="190.869141"/>
       <use xlink:href="#DejaVuSans-2d" x="254.492188"/>
       <use xlink:href="#DejaVuSans-31" x="290.576172"/>
       <use xlink:href="#DejaVuSans-30" x="354.199219"/>
      </g>
     </g>
    </g>
    <g id="xtick_9">
     <g id="line2d_9">
      <g>
       <use xlink:href="#mcef4cd7f29" x="1032.677449" y="368.3955" style="stroke: #000000; stroke-width: 0.8"/>
      </g>
     </g>
     <g id="text_9">
      <!-- 2022-01 -->
      <g transform="translate(1011.786043 382.993937)scale(0.1 -0.1)">
       <use xlink:href="#DejaVuSans-32"/>
       <use xlink:href="#DejaVuSans-30" x="63.623047"/>
       <use xlink:href="#DejaVuSans-32" x="127.246094"/>
       <use xlink:href="#DejaVuSans-32" x="190.869141"/>
       <use xlink:href="#DejaVuSans-2d" x="254.492188"/>
       <use xlink:href="#DejaVuSans-30" x="290.576172"/>
       <use xlink:href="#DejaVuSans-31" x="354.199219"/>
      </g>
     </g>
    </g>
    <g id="xtick_10">
     <g id="line2d_10">
      <g>
       <use xlink:href="#mcef4cd7f29" x="1151.004565" y="368.3955" style="stroke: #000000; stroke-width: 0.8"/>
      </g>
     </g>
     <g id="text_10">
      <!-- 2022-04 -->
      <g transform="translate(1130.113159 382.993937)scale(0.1 -0.1)">
       <use xlink:href="#DejaVuSans-32"/>
       <use xlink:href="#DejaVuSans-30" x="63.623047"/>
       <use xlink:href="#DejaVuSans-32" x="127.246094"/>
       <use xlink:href="#DejaVuSans-32" x="190.869141"/>
       <use xlink:href="#DejaVuSans-2d" x="254.492188"/>
       <use xlink:href="#DejaVuSans-30" x="290.576172"/>
       <use xlink:href="#DejaVuSans-34" x="354.199219"/>
      </g>
     </g>
    </g>
    <g id="xtick_11">
     <g id="line2d_11">
      <g>
       <use xlink:href="#mcef4cd7f29" x="1270.646426" y="368.3955" style="stroke: #000000; stroke-width: 0.8"/>
      </g>
     </g>
     <g id="text_11">
      <!-- 2022-07 -->
      <g transform="translate(1249.75502 382.993937)scale(0.1 -0.1)">
       <use xlink:href="#DejaVuSans-32"/>
       <use xlink:href="#DejaVuSans-30" x="63.623047"/>
       <use xlink:href="#DejaVuSans-32" x="127.246094"/>
       <use xlink:href="#DejaVuSans-32" x="190.869141"/>
       <use xlink:href="#DejaVuSans-2d" x="254.492188"/>
       <use xlink:href="#DejaVuSans-30" x="290.576172"/>
       <use xlink:href="#DejaVuSans-37" x="354.199219"/>
      </g>
     </g>
    </g>
   </g>
   <g id="matplotlib.axis_2">
    <g id="ytick_1">
     <g id="line2d_12">
      <defs>
       <path id="m19615d6784" d="M 0 0 
L -3.5 0 
" style="stroke: #000000; stroke-width: 0.8"/>
      </defs>
      <g>
       <use xlink:href="#m19615d6784" x="39.65" y="330.72261" style="stroke: #000000; stroke-width: 0.8"/>
      </g>
     </g>
     <g id="text_12">
      <!-- 0 -->
      <g transform="translate(26.2875 334.521829)scale(0.1 -0.1)">
       <use xlink:href="#DejaVuSans-30"/>
      </g>
     </g>
    </g>
    <g id="ytick_2">
     <g id="line2d_13">
      <g>
       <use xlink:href="#m19615d6784" x="39.65" y="262.216586" style="stroke: #000000; stroke-width: 0.8"/>
      </g>
     </g>
     <g id="text_13">
      <!-- 1000 -->
      <g transform="translate(7.2 266.015804)scale(0.1 -0.1)">
       <use xlink:href="#DejaVuSans-31"/>
       <use xlink:href="#DejaVuSans-30" x="63.623047"/>
       <use xlink:href="#DejaVuSans-30" x="127.246094"/>
       <use xlink:href="#DejaVuSans-30" x="190.869141"/>
      </g>
     </g>
    </g>
    <g id="ytick_3">
     <g id="line2d_14">
      <g>
       <use xlink:href="#m19615d6784" x="39.65" y="193.710561" style="stroke: #000000; stroke-width: 0.8"/>
      </g>
     </g>
     <g id="text_14">
      <!-- 2000 -->
      <g transform="translate(7.2 197.50978)scale(0.1 -0.1)">
       <use xlink:href="#DejaVuSans-32"/>
       <use xlink:href="#DejaVuSans-30" x="63.623047"/>
       <use xlink:href="#DejaVuSans-30" x="127.246094"/>
       <use xlink:href="#DejaVuSans-30" x="190.869141"/>
      </g>
     </g>
    </g>
    <g id="ytick_4">
     <g id="line2d_15">
      <g>
       <use xlink:href="#m19615d6784" x="39.65" y="125.204537" style="stroke: #000000; stroke-width: 0.8"/>
      </g>
     </g>
     <g id="text_15">
      <!-- 3000 -->
      <g transform="translate(7.2 129.003755)scale(0.1 -0.1)">
       <defs>
        <path id="DejaVuSans-33" d="M 2597 2516 
Q 3050 2419 3304 2112 
Q 3559 1806 3559 1356 
Q 3559 666 3084 287 
Q 2609 -91 1734 -91 
Q 1441 -91 1130 -33 
Q 819 25 488 141 
L 488 750 
Q 750 597 1062 519 
Q 1375 441 1716 441 
Q 2309 441 2620 675 
Q 2931 909 2931 1356 
Q 2931 1769 2642 2001 
Q 2353 2234 1838 2234 
L 1294 2234 
L 1294 2753 
L 1863 2753 
Q 2328 2753 2575 2939 
Q 2822 3125 2822 3475 
Q 2822 3834 2567 4026 
Q 2313 4219 1838 4219 
Q 1578 4219 1281 4162 
Q 984 4106 628 3988 
L 628 4550 
Q 988 4650 1302 4700 
Q 1616 4750 1894 4750 
Q 2613 4750 3031 4423 
Q 3450 4097 3450 3541 
Q 3450 3153 3228 2886 
Q 3006 2619 2597 2516 
z
" transform="scale(0.015625)"/>
       </defs>
       <use xlink:href="#DejaVuSans-33"/>
       <use xlink:href="#DejaVuSans-30" x="63.623047"/>
       <use xlink:href="#DejaVuSans-30" x="127.246094"/>
       <use xlink:href="#DejaVuSans-30" x="190.869141"/>
      </g>
     </g>
    </g>
    <g id="ytick_5">
     <g id="line2d_16">
      <g>
       <use xlink:href="#m19615d6784" x="39.65" y="56.698512" style="stroke: #000000; stroke-width: 0.8"/>
      </g>
     </g>
     <g id="text_16">
      <!-- 4000 -->
      <g transform="translate(7.2 60.497731)scale(0.1 -0.1)">
       <use xlink:href="#DejaVuSans-34"/>
       <use xlink:href="#DejaVuSans-30" x="63.623047"/>
       <use xlink:href="#DejaVuSans-30" x="127.246094"/>
       <use xlink:href="#DejaVuSans-30" x="190.869141"/>
      </g>
     </g>
    </g>
   </g>
   <g id="line2d_17">
    <path d="M 100.522727 330.72261 
L 170.204251 330.72261 
L 171.518997 330.106056 
L 174.148488 330.585598 
L 175.463234 330.517092 
L 176.77798 330.585598 
L 178.092725 330.517092 
L 179.407471 330.72261 
L 180.722217 330.517092 
L 182.036962 329.69502 
L 183.351708 330.106056 
L 184.666454 329.558008 
L 185.9812 329.900538 
L 187.295945 330.448586 
L 188.610691 330.174562 
L 191.240183 329.283984 
L 192.554928 329.35249 
L 193.869674 329.900538 
L 195.18442 329.009959 
L 196.499166 330.03755 
L 197.813911 329.832032 
L 199.128657 330.311574 
L 200.443403 330.38008 
L 201.758148 330.106056 
L 203.072894 330.106056 
L 204.38764 329.215478 
L 205.702386 330.106056 
L 207.017131 330.38008 
L 208.331877 330.243068 
L 209.646623 330.38008 
L 210.961369 330.106056 
L 212.276114 330.106056 
L 213.59086 330.448586 
L 216.220351 330.448586 
L 217.535097 322.090851 
L 218.849843 330.448586 
L 220.164589 330.311574 
L 221.479334 329.35249 
L 222.79408 329.489502 
L 224.108826 329.969044 
L 225.423572 329.489502 
L 226.738317 329.626514 
L 228.053063 330.106056 
L 229.367809 329.763526 
L 230.682554 330.243068 
L 231.9973 329.832032 
L 233.312046 330.243068 
L 234.626792 330.03755 
L 235.941537 330.174562 
L 237.256283 328.872947 
L 238.571029 330.448586 
L 239.885775 330.106056 
L 242.515266 330.106056 
L 245.144758 330.311574 
L 246.459503 329.832032 
L 247.774249 329.832032 
L 249.088995 329.69502 
L 250.40374 329.009959 
L 251.718486 329.832032 
L 255.662723 329.969044 
L 256.977469 329.763526 
L 258.292215 330.585598 
L 259.606961 330.03755 
L 260.921706 329.009959 
L 262.236452 330.38008 
L 264.865943 330.03755 
L 266.180689 329.626514 
L 267.495435 329.69502 
L 268.810181 330.243068 
L 270.124926 330.38008 
L 271.439672 330.243068 
L 272.754418 330.585598 
L 274.069164 330.517092 
L 275.383909 330.311574 
L 276.698655 329.900538 
L 278.013401 330.311574 
L 279.328146 330.174562 
L 280.642892 329.832032 
L 281.957638 330.03755 
L 283.272384 330.03755 
L 284.587129 328.735935 
L 285.901875 329.489502 
L 287.216621 329.146971 
L 288.531367 330.03755 
L 289.846112 329.420996 
L 291.160858 330.03755 
L 292.475604 329.009959 
L 293.790349 328.667429 
L 295.105095 328.735935 
L 296.419841 330.311574 
L 297.734587 329.489502 
L 299.049332 328.461911 
L 300.364078 329.078465 
L 301.678824 328.804441 
L 302.99357 327.708345 
L 304.308315 327.845357 
L 305.623061 329.078465 
L 306.937807 329.009959 
L 308.252553 328.461911 
L 309.567298 328.187887 
L 310.882044 328.872947 
L 312.19679 328.256393 
L 313.511535 328.530417 
L 314.826281 329.078465 
L 316.141027 328.804441 
L 317.455773 327.913863 
L 318.770518 328.393405 
L 321.40001 328.735935 
L 322.714756 329.283984 
L 324.029501 327.365815 
L 325.344247 329.146971 
L 326.658993 327.913863 
L 327.973738 327.502827 
L 329.288484 328.324899 
L 330.60323 327.913863 
L 331.917976 327.776851 
L 333.232721 328.050875 
L 334.547467 329.489502 
L 335.862213 326.543743 
L 337.176959 327.228803 
L 338.491704 327.297309 
L 339.80645 326.680755 
L 341.121196 326.749261 
L 342.435941 327.913863 
L 343.750687 328.735935 
L 345.065433 327.639839 
L 346.380179 325.995694 
L 347.694924 328.050875 
L 349.00967 326.749261 
L 350.324416 327.982369 
L 351.639162 327.776851 
L 352.953907 328.050875 
L 354.268653 327.982369 
L 355.583399 328.256393 
L 356.898145 328.050875 
L 358.21289 328.667429 
L 359.527636 327.502827 
L 360.842382 329.69502 
L 362.157127 328.324899 
L 363.471873 331.270658 
L 364.786619 328.598923 
L 366.101365 329.832032 
L 367.41611 328.461911 
L 368.730856 326.338224 
L 370.045602 327.708345 
L 371.360348 326.680755 
L 373.989839 328.735935 
L 375.304585 325.858682 
L 376.61933 328.941453 
L 377.934076 326.132706 
L 379.248822 329.420996 
L 380.563568 328.324899 
L 381.878313 329.009959 
L 383.193059 328.735935 
L 384.507805 327.434321 
L 385.822551 327.091791 
L 387.137296 325.927188 
L 388.452042 331.270658 
L 389.766788 328.393405 
L 391.081533 329.283984 
L 392.396279 329.078465 
L 393.711025 328.187887 
L 395.025771 328.667429 
L 396.340516 327.365815 
L 397.655262 330.72261 
L 398.970008 327.845357 
L 400.284754 330.72261 
L 401.599499 325.72167 
L 402.914245 327.502827 
L 404.228991 327.502827 
L 405.543737 326.269718 
L 406.858482 328.461911 
L 408.173228 327.365815 
L 410.802719 327.571333 
L 412.117465 322.090851 
L 413.432211 324.831092 
L 414.746957 324.214538 
L 416.061702 328.393405 
L 417.376448 324.488562 
L 418.691194 325.790176 
L 420.00594 325.790176 
L 421.320685 320.241188 
L 422.635431 321.405791 
L 423.950177 322.844417 
L 425.264922 327.639839 
L 426.579668 319.213598 
L 427.894414 322.433381 
L 429.20916 326.132706 
L 430.523905 322.022345 
L 431.838651 321.474297 
L 433.153397 321.748321 
L 434.468143 320.3782 
L 435.782888 321.200273 
L 437.097634 322.159357 
L 438.41238 321.063261 
L 439.727125 321.885333 
L 441.041871 317.500947 
L 442.356617 314.075646 
L 443.671363 322.501887 
L 446.300854 317.637959 
L 447.6156 319.624634 
L 448.930346 316.130827 
L 450.245091 317.158417 
L 451.559837 310.855863 
L 452.874583 320.3782 
L 454.189328 316.404851 
L 455.504074 311.129887 
L 456.81882 315.993815 
L 458.133566 308.66367 
L 459.448311 312.157477 
L 460.763057 301.539044 
L 462.077803 312.911044 
L 463.392549 314.555188 
L 464.707294 300.853983 
L 466.02204 308.184128 
L 467.336786 307.430562 
L 468.651532 305.991935 
L 469.966277 295.030971 
L 471.281023 312.225983 
L 472.595769 301.60755 
L 473.910514 300.305935 
L 475.22526 299.620875 
L 476.540006 301.744562 
L 477.854752 305.717911 
L 479.169497 262.49061 
L 480.484243 317.569453 
L 481.798989 281.877815 
L 483.113735 282.768393 
L 484.42848 246.323188 
L 485.743226 321.679815 
L 487.057972 255.023453 
L 488.372717 271.670417 
L 489.687463 293.729357 
L 491.002209 288.728417 
L 492.316955 282.836899 
L 493.6317 244.405019 
L 494.946446 274.410658 
L 497.575938 264.956827 
L 498.890683 311.472417 
L 501.520175 244.268007 
L 502.83492 294.551429 
L 504.149666 275.780778 
L 505.464412 330.72261 
L 506.779158 261.394513 
L 508.093903 320.104176 
L 509.408649 292.29073 
L 510.723395 274.821694 
L 512.038141 296.469598 
L 513.352886 282.631381 
L 514.667632 291.60567 
L 515.982378 285.57714 
L 517.297124 316.747381 
L 518.611869 304.964345 
L 519.926615 284.960586 
L 521.241361 297.154658 
L 522.556106 302.63514 
L 523.870852 307.567574 
L 525.185598 292.222224 
L 526.500344 322.364875 
L 527.815089 299.689381 
L 529.129835 302.29261 
L 530.444581 310.924369 
L 531.759327 313.870128 
L 533.074072 311.335405 
L 534.388818 278.246995 
L 535.703564 321.885333 
L 537.018309 318.802562 
L 538.333055 299.483863 
L 539.647801 312.842538 
L 540.962547 311.198393 
L 542.277292 330.72261 
L 543.592038 330.72261 
L 544.906784 297.702706 
L 546.22153 327.023285 
L 547.536275 296.195574 
L 548.851021 315.719791 
L 550.165767 316.336345 
L 551.480512 311.814947 
L 552.795258 330.72261 
L 554.110004 319.487622 
L 555.42475 310.033791 
L 556.739495 304.553309 
L 558.054241 309.34873 
L 559.368987 308.732176 
L 560.683733 311.677935 
L 561.998478 297.908224 
L 563.313224 325.790176 
L 564.62797 322.981429 
L 565.942715 292.153718 
L 567.257461 284.344031 
L 568.572207 315.856803 
L 569.886953 302.498128 
L 571.201698 316.473357 
L 572.516444 319.830152 
L 573.83119 310.513333 
L 575.145936 307.088032 
L 576.460681 316.062321 
L 577.775427 316.884393 
L 579.090173 310.170803 
L 580.404919 319.830152 
L 581.719664 330.72261 
L 583.03441 309.143212 
L 584.349156 319.487622 
L 585.663901 324.557068 
L 586.978647 315.925309 
L 588.293393 326.475237 
L 589.608139 312.911044 
L 590.922884 329.763526 
L 592.23763 316.473357 
L 593.552376 320.789236 
L 594.867122 325.858682 
L 596.181867 319.761646 
L 597.496613 318.391526 
L 600.126104 327.845357 
L 601.44085 330.106056 
L 602.755596 319.967164 
L 604.070342 327.571333 
L 605.385087 327.708345 
L 606.699833 323.529477 
L 608.014579 323.392465 
L 609.329325 330.72261 
L 610.64407 327.297309 
L 611.958816 330.72261 
L 613.273562 315.993815 
L 614.588307 323.940514 
L 615.903053 325.173622 
L 617.217799 320.309694 
L 618.532545 330.72261 
L 619.84729 323.049935 
L 621.162036 323.529477 
L 622.476782 327.708345 
L 623.791528 327.708345 
L 625.106273 316.062321 
L 626.421019 320.583718 
L 627.735765 330.72261 
L 629.050511 327.708345 
L 630.365256 325.447646 
L 631.680002 326.886273 
L 632.994748 324.625574 
L 634.309493 325.995694 
L 635.624239 325.310634 
L 636.938985 330.72261 
L 638.253731 330.72261 
L 639.568476 321.200273 
L 640.883222 325.995694 
L 642.197968 327.845357 
L 643.512714 324.00902 
L 646.142205 330.72261 
L 647.456951 330.72261 
L 648.771696 319.487622 
L 650.086442 329.009959 
L 651.401188 324.077526 
L 652.715934 328.667429 
L 654.030679 323.734996 
L 655.345425 330.72261 
L 656.660171 330.72261 
L 657.974917 320.515212 
L 659.289662 325.995694 
L 660.604408 324.69408 
L 661.919154 328.461911 
L 663.233899 322.090851 
L 664.548645 330.72261 
L 665.863391 330.72261 
L 667.178137 320.857743 
L 668.492882 327.571333 
L 669.807628 325.653164 
L 671.122374 325.310634 
L 672.43712 326.749261 
L 673.751865 330.72261 
L 675.066611 330.72261 
L 676.381357 325.105116 
L 677.696102 324.557068 
L 679.010848 325.173622 
L 680.325594 323.734996 
L 681.64034 325.858682 
L 682.955085 330.72261 
L 684.269831 330.72261 
L 685.584577 322.844417 
L 686.899323 325.105116 
L 688.214068 326.817767 
L 689.528814 325.516152 
L 690.84356 326.338224 
L 692.158306 330.72261 
L 693.473051 330.72261 
L 694.787797 323.118441 
L 696.102543 325.37914 
L 697.417288 326.475237 
L 698.732034 324.214538 
L 700.04678 325.03661 
L 701.361526 330.72261 
L 702.676271 330.72261 
L 703.991017 322.364875 
L 705.305763 326.269718 
L 706.620509 322.775911 
L 707.935254 325.927188 
L 709.25 325.72167 
L 710.564746 330.72261 
L 711.879491 330.72261 
L 713.194237 320.583718 
L 714.508983 325.447646 
L 715.823729 325.858682 
L 717.138474 324.625574 
L 718.45322 324.146032 
L 719.767966 330.72261 
L 721.082712 330.72261 
L 722.397457 321.063261 
L 723.712203 325.858682 
L 725.026949 326.749261 
L 726.341694 323.66649 
L 727.65644 325.03661 
L 728.971186 330.72261 
L 730.285932 330.72261 
L 731.600677 320.926249 
L 734.230169 326.954779 
L 735.544915 316.062321 
L 736.85966 325.858682 
L 738.174406 330.72261 
L 739.489152 330.72261 
L 740.803898 321.405791 
L 742.118643 325.72167 
L 743.433389 324.488562 
L 744.748135 324.762586 
L 746.06288 324.146032 
L 747.377626 330.72261 
L 750.007118 330.72261 
L 751.321863 314.966224 
L 752.636609 325.72167 
L 753.951355 323.734996 
L 755.266101 325.310634 
L 756.580846 330.72261 
L 757.895592 330.72261 
L 759.210338 320.3782 
L 760.525083 325.927188 
L 761.839829 324.420056 
L 763.154575 325.858682 
L 764.469321 323.734996 
L 765.784066 330.72261 
L 767.098812 330.72261 
L 768.413558 322.501887 
L 769.728304 325.995694 
L 771.043049 326.886273 
L 772.357795 326.201212 
L 773.672541 326.269718 
L 774.987286 330.72261 
L 776.302032 330.72261 
L 777.616778 321.131767 
L 778.931524 325.653164 
L 781.561015 325.858682 
L 782.875761 323.597983 
L 784.190507 330.72261 
L 785.505252 330.72261 
L 786.819998 320.583718 
L 788.134744 324.146032 
L 789.449489 324.214538 
L 790.764235 326.40673 
L 792.078981 324.420056 
L 793.393727 330.72261 
L 796.023218 330.72261 
L 797.337964 317.226923 
L 798.65271 324.214538 
L 799.967455 321.953839 
L 801.282201 323.803502 
L 802.596947 330.72261 
L 803.911693 330.72261 
L 805.226438 318.939574 
L 806.541184 324.077526 
L 807.85593 324.146032 
L 809.170675 322.227863 
L 810.485421 326.0642 
L 811.800167 330.72261 
L 813.114913 330.72261 
L 814.429658 317.980489 
L 815.744404 321.748321 
L 817.05915 320.583718 
L 818.373896 320.241188 
L 819.688641 323.186947 
L 821.003387 330.72261 
L 822.318133 330.72261 
L 823.632878 317.021405 
L 824.947624 318.939574 
L 826.26237 330.72261 
L 827.577116 307.97861 
L 830.206607 330.72261 
L 831.521353 330.72261 
L 832.836099 307.430562 
L 834.150844 314.486682 
L 835.46559 313.66461 
L 836.780336 313.801622 
L 838.095081 313.390586 
L 839.409827 330.72261 
L 840.724573 330.72261 
L 842.039319 291.468658 
L 843.354064 310.170803 
L 844.66881 313.185068 
L 845.983556 305.032851 
L 847.298302 309.143212 
L 848.613047 330.72261 
L 849.927793 330.72261 
L 851.242539 284.686562 
L 852.557285 302.498128 
L 853.87203 297.29167 
L 855.186776 309.759767 
L 856.501522 295.030971 
L 857.816267 330.72261 
L 859.131013 330.72261 
L 860.445759 269.683742 
L 861.760505 295.990056 
L 863.07525 299.278345 
L 864.389996 298.730297 
L 865.704742 298.387766 
L 867.019488 330.72261 
L 868.334233 330.72261 
L 869.648979 242.418344 
L 870.963725 304.690321 
L 872.27847 271.053863 
L 873.593216 289.961525 
L 874.907962 289.344971 
L 876.222708 330.72261 
L 878.852199 330.72261 
L 880.166945 242.418344 
L 881.481691 275.780778 
L 882.796436 294.208899 
L 884.111182 275.027212 
L 885.425928 330.72261 
L 886.740673 330.72261 
L 888.055419 249.748489 
L 889.370165 287.015766 
L 890.684911 300.990995 
L 891.999656 279.617116 
L 893.314402 309.143212 
L 894.629148 330.72261 
L 895.943894 330.72261 
L 897.258639 225.154826 
L 898.573385 292.838778 
L 899.888131 293.592345 
L 901.202876 278.86355 
L 902.517622 295.442007 
L 903.832368 330.72261 
L 905.147114 330.72261 
L 906.461859 257.48967 
L 907.776605 296.812128 
L 909.091351 294.071887 
L 910.406097 287.084272 
L 911.720842 291.879694 
L 913.035588 330.72261 
L 914.350334 330.72261 
L 915.66508 275.23273 
L 916.979825 300.853983 
L 918.294571 284.960586 
L 919.609317 284.070007 
L 920.924062 293.797863 
L 922.238808 330.72261 
L 923.553554 330.72261 
L 924.8683 273.588586 
L 926.183045 297.6342 
L 927.497791 300.648465 
L 928.812537 289.276465 
L 930.127283 298.31926 
L 931.442028 330.72261 
L 932.756774 330.72261 
L 934.07152 260.298417 
L 935.386265 303.183188 
L 936.701011 300.579959 
L 938.015757 285.851164 
L 939.330503 295.647526 
L 940.645248 330.72261 
L 941.959994 330.72261 
L 943.27474 268.450634 
L 944.589486 307.362056 
L 945.904231 297.29167 
L 947.218977 297.086152 
L 948.533723 294.893959 
L 949.848468 330.72261 
L 951.163214 330.72261 
L 952.47796 283.042417 
L 953.792706 309.896779 
L 955.107451 298.045236 
L 956.422197 293.934875 
L 957.736943 304.827333 
L 959.051689 330.72261 
L 960.366434 330.72261 
L 961.68118 284.686562 
L 962.995926 310.376321 
L 964.310672 302.566634 
L 965.625417 330.72261 
L 966.940163 276.945381 
L 968.254909 330.72261 
L 969.569654 330.72261 
L 970.8844 288.248875 
L 972.199146 309.485742 
L 973.513892 313.938634 
L 974.828637 301.60755 
L 976.143383 314.623694 
L 977.458129 330.72261 
L 978.772875 330.72261 
L 980.08762 297.565694 
L 981.402366 313.66461 
L 982.717112 316.130827 
L 984.031857 330.72261 
L 987.976095 330.72261 
L 989.29084 292.359236 
L 990.605586 312.568514 
L 991.920332 317.980489 
L 993.235078 311.198393 
L 994.549823 313.459092 
L 995.864569 330.72261 
L 997.179315 330.72261 
L 998.49406 304.210779 
L 999.808806 319.145092 
L 1001.123552 318.186008 
L 1002.438298 318.391526 
L 1003.753043 321.748321 
L 1005.067789 330.72261 
L 1006.382535 330.72261 
L 1007.697281 315.993815 
L 1009.012026 320.03567 
L 1010.326772 322.090851 
L 1011.641518 322.570393 
L 1012.956263 323.460971 
L 1014.271009 330.72261 
L 1015.585755 330.72261 
L 1016.900501 318.528538 
L 1018.215246 320.857743 
L 1019.529992 320.03567 
L 1020.844738 318.391526 
L 1022.159484 330.72261 
L 1024.788975 330.72261 
L 1026.103721 304.553309 
L 1027.418467 310.650345 
L 1028.733212 308.458152 
L 1030.047958 303.594224 
L 1031.362704 330.72261 
L 1033.992195 330.72261 
L 1035.306941 261.874055 
L 1036.621687 279.617116 
L 1037.936432 282.151839 
L 1039.251178 262.559116 
L 1040.565924 278.384007 
L 1041.88067 330.72261 
L 1043.195415 330.72261 
L 1044.510161 216.865597 
L 1045.824907 246.11767 
L 1047.139652 262.970152 
L 1049.769144 229.196682 
L 1051.08389 330.72261 
L 1053.713381 330.72261 
L 1055.028127 50.8755 
L 1056.342873 221.661019 
L 1057.657618 238.239477 
L 1058.972364 202.34232 
L 1060.28711 330.72261 
L 1061.601855 330.72261 
L 1062.916601 159.183525 
L 1064.231347 221.935043 
L 1065.546093 219.126296 
L 1066.860838 191.038826 
L 1068.175584 235.019694 
L 1069.49033 330.72261 
L 1070.805076 330.72261 
L 1072.119821 195.149188 
L 1073.434567 275.91779 
L 1074.749313 256.941622 
L 1076.064059 279.754128 
L 1077.378804 281.672297 
L 1078.69355 330.72261 
L 1080.008296 330.72261 
L 1081.323041 270.437308 
L 1082.637787 300.785477 
L 1083.952533 286.60473 
L 1085.267279 303.114682 
L 1086.582024 305.032851 
L 1087.89677 330.72261 
L 1089.211516 330.72261 
L 1090.526262 295.510513 
L 1091.841007 314.281164 
L 1093.155753 308.252634 
L 1094.470499 317.911983 
L 1095.785244 314.829212 
L 1097.09999 330.72261 
L 1099.729482 330.72261 
L 1101.044227 298.730297 
L 1102.358973 322.981429 
L 1103.673719 321.474297 
L 1104.988465 323.049935 
L 1106.30321 330.72261 
L 1107.617956 330.72261 
L 1108.932702 317.569453 
L 1110.247447 325.03661 
L 1111.562193 324.35155 
L 1112.876939 325.790176 
L 1114.191685 325.447646 
L 1115.50643 330.72261 
L 1116.821176 330.72261 
L 1118.135922 326.201212 
L 1119.450668 326.201212 
L 1120.765413 325.858682 
L 1122.080159 326.817767 
L 1123.394905 326.749261 
L 1124.709651 330.72261 
L 1127.339142 330.72261 
L 1128.653888 325.858682 
L 1129.968633 330.72261 
L 1131.283379 330.72261 
L 1132.598125 324.420056 
L 1133.912871 330.72261 
L 1136.542362 330.72261 
L 1137.857108 325.173622 
L 1139.171854 330.72261 
L 1140.486599 330.72261 
L 1141.801345 326.0642 
L 1143.116091 330.72261 
L 1145.745582 330.72261 
L 1147.060328 326.886273 
L 1148.375074 330.72261 
L 1149.689819 330.72261 
L 1151.004565 326.954779 
L 1152.319311 330.72261 
L 1154.948802 330.72261 
L 1156.263548 324.077526 
L 1157.578294 330.72261 
L 1158.893039 330.72261 
L 1160.207785 329.558008 
L 1161.522531 330.72261 
L 1164.152022 330.72261 
L 1165.466768 332.298249 
L 1166.781514 330.72261 
L 1173.355242 330.72261 
L 1174.669988 321.542803 
L 1175.984734 330.72261 
L 1182.558463 330.72261 
L 1183.873208 319.898658 
L 1185.187954 330.72261 
L 1191.761683 330.72261 
L 1193.076428 317.363935 
L 1194.391174 330.72261 
L 1200.964903 330.72261 
L 1202.279649 311.129887 
L 1203.594394 330.72261 
L 1210.168123 330.72261 
L 1211.482869 304.827333 
L 1212.797614 330.72261 
L 1219.371343 330.72261 
L 1220.686089 299.757887 
L 1222.000834 330.72261 
L 1228.574563 330.72261 
L 1229.889309 288.865429 
L 1231.204055 330.72261 
L 1237.777783 330.72261 
L 1239.092529 232.416465 
L 1240.407275 330.72261 
L 1246.981003 330.72261 
L 1248.295749 176.378537 
L 1249.610495 330.72261 
L 1256.184223 330.72261 
L 1257.498969 249.885501 
L 1258.813715 330.72261 
L 1265.387444 330.72261 
L 1266.702189 254.269887 
L 1268.016935 330.72261 
L 1274.590664 330.72261 
L 1275.905409 251.050104 
L 1277.220155 330.72261 
L 1283.793884 330.72261 
L 1285.108629 209.672465 
L 1286.423375 330.72261 
L 1292.997104 330.72261 
L 1294.31185 242.212826 
L 1295.626595 330.72261 
L 1300.885578 330.72261 
L 1300.885578 330.72261 
" clip-path="url(#p5f9e214218)" style="fill: none; stroke: #0000ff; stroke-width: 1.5; stroke-linecap: square"/>
   </g>
   <g id="line2d_18">
    <path d="M 1061.601855 255.339881 
L 1062.916601 134.092307 
L 1064.231347 207.964666 
L 1065.546093 214.370613 
L 1066.860838 212.827189 
L 1068.175584 290.659726 
L 1069.49033 287.683466 
L 1070.805076 197.755406 
L 1072.119821 199.506831 
L 1073.434567 221.53028 
L 1074.749313 216.429619 
L 1076.064059 244.050116 
L 1077.378804 329.050774 
L 1078.69355 340.231587 
L 1080.008296 240.447743 
L 1081.323041 275.478675 
L 1082.637787 275.776142 
L 1083.952533 291.586963 
L 1085.267279 299.63397 
L 1086.582024 349.956205 
L 1087.89677 353.2755 
L 1089.211516 289.291102 
L 1090.526262 310.796343 
L 1091.841007 302.114618 
L 1093.155753 315.517131 
L 1094.470499 319.064354 
L 1095.785244 348.356292 
L 1097.09999 348.954833 
L 1098.414736 309.395676 
L 1099.729482 321.380459 
L 1101.044227 320.270368 
L 1102.358973 327.803005 
L 1103.673719 324.143353 
L 1104.988465 341.490208 
L 1106.30321 341.460192 
L 1107.617956 329.422368 
L 1108.932702 315.625169 
L 1110.247447 323.621474 
L 1111.562193 326.273231 
L 1112.876939 328.628742 
L 1114.191685 337.3032 
L 1115.50643 337.096755 
L 1116.821176 325.924367 
L 1118.135922 324.7921 
L 1119.450668 327.395323 
L 1120.765413 329.400401 
L 1122.080159 329.392619 
L 1123.394905 334.358649 
L 1124.709651 334.003816 
L 1126.024396 328.030521 
L 1127.339142 327.154036 
L 1128.653888 328.261917 
L 1129.968633 329.191713 
L 1131.283379 329.151923 
L 1132.598125 333.85506 
L 1133.912871 333.2993 
L 1135.227616 330.731712 
L 1136.542362 327.679689 
L 1137.857108 330.59031 
L 1139.171854 330.496831 
L 1140.486599 326.826293 
L 1141.801345 331.56211 
L 1143.116091 331.506839 
L 1144.430836 330.831534 
L 1145.745582 326.92957 
L 1147.060328 330.68878 
L 1148.375074 330.779932 
L 1149.689819 327.28525 
L 1151.004565 331.124388 
L 1152.319311 331.089029 
L 1153.634057 330.874971 
L 1154.948802 327.639568 
L 1156.263548 331.044416 
L 1157.578294 330.462184 
L 1158.893039 326.961894 
L 1160.207785 330.131781 
L 1161.522531 330.586256 
L 1162.837277 330.870104 
L 1164.152022 326.326356 
L 1165.466768 330.344733 
L 1166.781514 331.376923 
L 1168.09626 330.607035 
L 1169.411005 331.724796 
L 1172.040497 331.726998 
L 1173.355242 331.018217 
L 1174.669988 331.974065 
L 1177.29948 328.697386 
L 1178.614225 329.478755 
L 1181.243717 330.099345 
L 1182.558463 325.16969 
L 1183.873208 330.782347 
L 1186.5027 329.088775 
L 1187.817446 329.554565 
L 1190.446937 330.060314 
L 1191.761683 322.906156 
L 1193.076428 330.782209 
L 1194.391174 329.834127 
L 1195.70592 329.10078 
L 1198.335411 329.781904 
L 1199.650157 330.001255 
L 1200.964903 320.842308 
L 1202.279649 331.064125 
L 1203.594394 329.400942 
L 1204.90914 328.169076 
L 1206.223886 328.75763 
L 1208.853377 329.552386 
L 1210.168123 316.553833 
L 1211.482869 330.973696 
L 1212.797614 328.966515 
L 1214.11236 327.491802 
L 1215.427106 328.228524 
L 1216.741852 328.795932 
L 1218.056597 329.234318 
L 1219.371343 311.763864 
L 1220.686089 330.823294 
L 1222.000834 328.769191 
L 1223.31558 327.263908 
L 1224.630326 328.05073 
L 1225.945072 328.658169 
L 1227.259817 329.127529 
L 1228.574563 307.622143 
L 1229.889309 331.273394 
L 1231.204055 328.061965 
L 1232.5188 325.706179 
L 1233.833546 326.846553 
L 1235.148292 327.727573 
L 1236.463038 328.408345 
L 1237.777783 300.022653 
L 1239.092529 334.559239 
L 1240.407275 322.973056 
L 1241.72202 314.457662 
L 1243.036766 318.154521 
L 1244.351512 321.011088 
L 1245.666258 323.218394 
L 1246.981003 263.624703 
L 1248.295749 333.238888 
L 1249.610495 318.301306 
L 1250.925241 307.345403 
L 1252.239986 312.658736 
L 1253.554732 316.764409 
L 1254.869478 319.936919 
L 1256.184223 221.467285 
L 1257.498969 322.772308 
L 1258.813715 327.680169 
L 1260.128461 331.345916 
L 1264.072698 331.010194 
L 1265.387444 257.845567 
L 1266.702189 331.146502 
L 1268.016935 330.532399 
L 1269.331681 330.079013 
L 1273.275918 330.425671 
L 1274.590664 267.932328 
L 1275.905409 331.832105 
L 1277.220155 328.937972 
L 1278.534901 326.809515 
L 1279.849647 327.698908 
L 1281.164392 328.386153 
L 1282.479138 328.917198 
L 1283.793884 268.137431 
L 1285.108629 334.146082 
L 1286.423375 324.125873 
L 1287.738121 316.760504 
L 1289.052867 319.933898 
L 1290.367612 322.386023 
L 1291.682358 324.280814 
L 1292.997104 242.736349 
L 1294.31185 327.289987 
L 1296.941341 327.202052 
L 1298.256087 328.002226 
L 1299.570833 328.620532 
L 1300.885578 329.098305 
L 1300.885578 329.098305 
" clip-path="url(#p5f9e214218)" style="fill: none; stroke: #ffa500; stroke-width: 1.5; stroke-linecap: square"/>
   </g>
   <g id="line2d_19">
    <path d="M 1300.885578 329.098305 
L 1302.200324 257.638769 
L 1303.51507 329.681559 
L 1304.829815 329.580992 
L 1306.144561 329.597799 
L 1307.459307 329.607608 
L 1308.774053 329.602152 
L 1310.088798 328.730024 
L 1311.403544 269.189311 
L 1312.71829 329.04375 
L 1314.033036 328.989707 
L 1315.347781 328.998781 
L 1316.662527 329.00404 
L 1317.977273 329.001105 
" clip-path="url(#p5f9e214218)" style="fill: none; stroke: #ff0000; stroke-width: 1.5; stroke-linecap: square"/>
   </g>
   <g id="patch_3">
    <path d="M 39.65 368.3955 
L 39.65 35.7555 
" style="fill: none; stroke: #000000; stroke-width: 0.8; stroke-linejoin: miter; stroke-linecap: square"/>
   </g>
   <g id="patch_4">
    <path d="M 1378.85 368.3955 
L 1378.85 35.7555 
" style="fill: none; stroke: #000000; stroke-width: 0.8; stroke-linejoin: miter; stroke-linecap: square"/>
   </g>
   <g id="patch_5">
    <path d="M 39.65 368.3955 
L 1378.85 368.3955 
" style="fill: none; stroke: #000000; stroke-width: 0.8; stroke-linejoin: miter; stroke-linecap: square"/>
   </g>
   <g id="patch_6">
    <path d="M 39.65 35.7555 
L 1378.85 35.7555 
" style="fill: none; stroke: #000000; stroke-width: 0.8; stroke-linejoin: miter; stroke-linecap: square"/>
   </g>
   <g id="text_17">
    <!-- Daily Confirmed Cases Forecasting - Wyoming -->
    <g transform="translate(570.576875 16.318125)scale(0.12 -0.12)">
     <defs>
      <path id="DejaVuSans-44" d="M 1259 4147 
L 1259 519 
L 2022 519 
Q 2988 519 3436 956 
Q 3884 1394 3884 2338 
Q 3884 3275 3436 3711 
Q 2988 4147 2022 4147 
L 1259 4147 
z
M 628 4666 
L 1925 4666 
Q 3281 4666 3915 4102 
Q 4550 3538 4550 2338 
Q 4550 1131 3912 565 
Q 3275 0 1925 0 
L 628 0 
L 628 4666 
z
" transform="scale(0.015625)"/>
      <path id="DejaVuSans-61" d="M 2194 1759 
Q 1497 1759 1228 1600 
Q 959 1441 959 1056 
Q 959 750 1161 570 
Q 1363 391 1709 391 
Q 2188 391 2477 730 
Q 2766 1069 2766 1631 
L 2766 1759 
L 2194 1759 
z
M 3341 1997 
L 3341 0 
L 2766 0 
L 2766 531 
Q 2569 213 2275 61 
Q 1981 -91 1556 -91 
Q 1019 -91 701 211 
Q 384 513 384 1019 
Q 384 1609 779 1909 
Q 1175 2209 1959 2209 
L 2766 2209 
L 2766 2266 
Q 2766 2663 2505 2880 
Q 2244 3097 1772 3097 
Q 1472 3097 1187 3025 
Q 903 2953 641 2809 
L 641 3341 
Q 956 3463 1253 3523 
Q 1550 3584 1831 3584 
Q 2591 3584 2966 3190 
Q 3341 2797 3341 1997 
z
" transform="scale(0.015625)"/>
      <path id="DejaVuSans-69" d="M 603 3500 
L 1178 3500 
L 1178 0 
L 603 0 
L 603 3500 
z
M 603 4863 
L 1178 4863 
L 1178 4134 
L 603 4134 
L 603 4863 
z
" transform="scale(0.015625)"/>
      <path id="DejaVuSans-6c" d="M 603 4863 
L 1178 4863 
L 1178 0 
L 603 0 
L 603 4863 
z
" transform="scale(0.015625)"/>
      <path id="DejaVuSans-79" d="M 2059 -325 
Q 1816 -950 1584 -1140 
Q 1353 -1331 966 -1331 
L 506 -1331 
L 506 -850 
L 844 -850 
Q 1081 -850 1212 -737 
Q 1344 -625 1503 -206 
L 1606 56 
L 191 3500 
L 800 3500 
L 1894 763 
L 2988 3500 
L 3597 3500 
L 2059 -325 
z
" transform="scale(0.015625)"/>
      <path id="DejaVuSans-20" transform="scale(0.015625)"/>
      <path id="DejaVuSans-43" d="M 4122 4306 
L 4122 3641 
Q 3803 3938 3442 4084 
Q 3081 4231 2675 4231 
Q 1875 4231 1450 3742 
Q 1025 3253 1025 2328 
Q 1025 1406 1450 917 
Q 1875 428 2675 428 
Q 3081 428 3442 575 
Q 3803 722 4122 1019 
L 4122 359 
Q 3791 134 3420 21 
Q 3050 -91 2638 -91 
Q 1578 -91 968 557 
Q 359 1206 359 2328 
Q 359 3453 968 4101 
Q 1578 4750 2638 4750 
Q 3056 4750 3426 4639 
Q 3797 4528 4122 4306 
z
" transform="scale(0.015625)"/>
      <path id="DejaVuSans-6f" d="M 1959 3097 
Q 1497 3097 1228 2736 
Q 959 2375 959 1747 
Q 959 1119 1226 758 
Q 1494 397 1959 397 
Q 2419 397 2687 759 
Q 2956 1122 2956 1747 
Q 2956 2369 2687 2733 
Q 2419 3097 1959 3097 
z
M 1959 3584 
Q 2709 3584 3137 3096 
Q 3566 2609 3566 1747 
Q 3566 888 3137 398 
Q 2709 -91 1959 -91 
Q 1206 -91 779 398 
Q 353 888 353 1747 
Q 353 2609 779 3096 
Q 1206 3584 1959 3584 
z
" transform="scale(0.015625)"/>
      <path id="DejaVuSans-6e" d="M 3513 2113 
L 3513 0 
L 2938 0 
L 2938 2094 
Q 2938 2591 2744 2837 
Q 2550 3084 2163 3084 
Q 1697 3084 1428 2787 
Q 1159 2491 1159 1978 
L 1159 0 
L 581 0 
L 581 3500 
L 1159 3500 
L 1159 2956 
Q 1366 3272 1645 3428 
Q 1925 3584 2291 3584 
Q 2894 3584 3203 3211 
Q 3513 2838 3513 2113 
z
" transform="scale(0.015625)"/>
      <path id="DejaVuSans-66" d="M 2375 4863 
L 2375 4384 
L 1825 4384 
Q 1516 4384 1395 4259 
Q 1275 4134 1275 3809 
L 1275 3500 
L 2222 3500 
L 2222 3053 
L 1275 3053 
L 1275 0 
L 697 0 
L 697 3053 
L 147 3053 
L 147 3500 
L 697 3500 
L 697 3744 
Q 697 4328 969 4595 
Q 1241 4863 1831 4863 
L 2375 4863 
z
" transform="scale(0.015625)"/>
      <path id="DejaVuSans-72" d="M 2631 2963 
Q 2534 3019 2420 3045 
Q 2306 3072 2169 3072 
Q 1681 3072 1420 2755 
Q 1159 2438 1159 1844 
L 1159 0 
L 581 0 
L 581 3500 
L 1159 3500 
L 1159 2956 
Q 1341 3275 1631 3429 
Q 1922 3584 2338 3584 
Q 2397 3584 2469 3576 
Q 2541 3569 2628 3553 
L 2631 2963 
z
" transform="scale(0.015625)"/>
      <path id="DejaVuSans-6d" d="M 3328 2828 
Q 3544 3216 3844 3400 
Q 4144 3584 4550 3584 
Q 5097 3584 5394 3201 
Q 5691 2819 5691 2113 
L 5691 0 
L 5113 0 
L 5113 2094 
Q 5113 2597 4934 2840 
Q 4756 3084 4391 3084 
Q 3944 3084 3684 2787 
Q 3425 2491 3425 1978 
L 3425 0 
L 2847 0 
L 2847 2094 
Q 2847 2600 2669 2842 
Q 2491 3084 2119 3084 
Q 1678 3084 1418 2786 
Q 1159 2488 1159 1978 
L 1159 0 
L 581 0 
L 581 3500 
L 1159 3500 
L 1159 2956 
Q 1356 3278 1631 3431 
Q 1906 3584 2284 3584 
Q 2666 3584 2933 3390 
Q 3200 3197 3328 2828 
z
" transform="scale(0.015625)"/>
      <path id="DejaVuSans-65" d="M 3597 1894 
L 3597 1613 
L 953 1613 
Q 991 1019 1311 708 
Q 1631 397 2203 397 
Q 2534 397 2845 478 
Q 3156 559 3463 722 
L 3463 178 
Q 3153 47 2828 -22 
Q 2503 -91 2169 -91 
Q 1331 -91 842 396 
Q 353 884 353 1716 
Q 353 2575 817 3079 
Q 1281 3584 2069 3584 
Q 2775 3584 3186 3129 
Q 3597 2675 3597 1894 
z
M 3022 2063 
Q 3016 2534 2758 2815 
Q 2500 3097 2075 3097 
Q 1594 3097 1305 2825 
Q 1016 2553 972 2059 
L 3022 2063 
z
" transform="scale(0.015625)"/>
      <path id="DejaVuSans-64" d="M 2906 2969 
L 2906 4863 
L 3481 4863 
L 3481 0 
L 2906 0 
L 2906 525 
Q 2725 213 2448 61 
Q 2172 -91 1784 -91 
Q 1150 -91 751 415 
Q 353 922 353 1747 
Q 353 2572 751 3078 
Q 1150 3584 1784 3584 
Q 2172 3584 2448 3432 
Q 2725 3281 2906 2969 
z
M 947 1747 
Q 947 1113 1208 752 
Q 1469 391 1925 391 
Q 2381 391 2643 752 
Q 2906 1113 2906 1747 
Q 2906 2381 2643 2742 
Q 2381 3103 1925 3103 
Q 1469 3103 1208 2742 
Q 947 2381 947 1747 
z
" transform="scale(0.015625)"/>
      <path id="DejaVuSans-73" d="M 2834 3397 
L 2834 2853 
Q 2591 2978 2328 3040 
Q 2066 3103 1784 3103 
Q 1356 3103 1142 2972 
Q 928 2841 928 2578 
Q 928 2378 1081 2264 
Q 1234 2150 1697 2047 
L 1894 2003 
Q 2506 1872 2764 1633 
Q 3022 1394 3022 966 
Q 3022 478 2636 193 
Q 2250 -91 1575 -91 
Q 1294 -91 989 -36 
Q 684 19 347 128 
L 347 722 
Q 666 556 975 473 
Q 1284 391 1588 391 
Q 1994 391 2212 530 
Q 2431 669 2431 922 
Q 2431 1156 2273 1281 
Q 2116 1406 1581 1522 
L 1381 1569 
Q 847 1681 609 1914 
Q 372 2147 372 2553 
Q 372 3047 722 3315 
Q 1072 3584 1716 3584 
Q 2034 3584 2315 3537 
Q 2597 3491 2834 3397 
z
" transform="scale(0.015625)"/>
      <path id="DejaVuSans-46" d="M 628 4666 
L 3309 4666 
L 3309 4134 
L 1259 4134 
L 1259 2759 
L 3109 2759 
L 3109 2228 
L 1259 2228 
L 1259 0 
L 628 0 
L 628 4666 
z
" transform="scale(0.015625)"/>
      <path id="DejaVuSans-63" d="M 3122 3366 
L 3122 2828 
Q 2878 2963 2633 3030 
Q 2388 3097 2138 3097 
Q 1578 3097 1268 2742 
Q 959 2388 959 1747 
Q 959 1106 1268 751 
Q 1578 397 2138 397 
Q 2388 397 2633 464 
Q 2878 531 3122 666 
L 3122 134 
Q 2881 22 2623 -34 
Q 2366 -91 2075 -91 
Q 1284 -91 818 406 
Q 353 903 353 1747 
Q 353 2603 823 3093 
Q 1294 3584 2113 3584 
Q 2378 3584 2631 3529 
Q 2884 3475 3122 3366 
z
" transform="scale(0.015625)"/>
      <path id="DejaVuSans-74" d="M 1172 4494 
L 1172 3500 
L 2356 3500 
L 2356 3053 
L 1172 3053 
L 1172 1153 
Q 1172 725 1289 603 
Q 1406 481 1766 481 
L 2356 481 
L 2356 0 
L 1766 0 
Q 1100 0 847 248 
Q 594 497 594 1153 
L 594 3053 
L 172 3053 
L 172 3500 
L 594 3500 
L 594 4494 
L 1172 4494 
z
" transform="scale(0.015625)"/>
      <path id="DejaVuSans-67" d="M 2906 1791 
Q 2906 2416 2648 2759 
Q 2391 3103 1925 3103 
Q 1463 3103 1205 2759 
Q 947 2416 947 1791 
Q 947 1169 1205 825 
Q 1463 481 1925 481 
Q 2391 481 2648 825 
Q 2906 1169 2906 1791 
z
M 3481 434 
Q 3481 -459 3084 -895 
Q 2688 -1331 1869 -1331 
Q 1566 -1331 1297 -1286 
Q 1028 -1241 775 -1147 
L 775 -588 
Q 1028 -725 1275 -790 
Q 1522 -856 1778 -856 
Q 2344 -856 2625 -561 
Q 2906 -266 2906 331 
L 2906 616 
Q 2728 306 2450 153 
Q 2172 0 1784 0 
Q 1141 0 747 490 
Q 353 981 353 1791 
Q 353 2603 747 3093 
Q 1141 3584 1784 3584 
Q 2172 3584 2450 3431 
Q 2728 3278 2906 2969 
L 2906 3500 
L 3481 3500 
L 3481 434 
z
" transform="scale(0.015625)"/>
      <path id="DejaVuSans-57" d="M 213 4666 
L 850 4666 
L 1831 722 
L 2809 4666 
L 3519 4666 
L 4500 722 
L 5478 4666 
L 6119 4666 
L 4947 0 
L 4153 0 
L 3169 4050 
L 2175 0 
L 1381 0 
L 213 4666 
z
" transform="scale(0.015625)"/>
     </defs>
     <use xlink:href="#DejaVuSans-44"/>
     <use xlink:href="#DejaVuSans-61" x="77.001953"/>
     <use xlink:href="#DejaVuSans-69" x="138.28125"/>
     <use xlink:href="#DejaVuSans-6c" x="166.064453"/>
     <use xlink:href="#DejaVuSans-79" x="193.847656"/>
     <use xlink:href="#DejaVuSans-20" x="253.027344"/>
     <use xlink:href="#DejaVuSans-43" x="284.814453"/>
     <use xlink:href="#DejaVuSans-6f" x="354.638672"/>
     <use xlink:href="#DejaVuSans-6e" x="415.820312"/>
     <use xlink:href="#DejaVuSans-66" x="479.199219"/>
     <use xlink:href="#DejaVuSans-69" x="514.404297"/>
     <use xlink:href="#DejaVuSans-72" x="542.1875"/>
     <use xlink:href="#DejaVuSans-6d" x="581.550781"/>
     <use xlink:href="#DejaVuSans-65" x="678.962891"/>
     <use xlink:href="#DejaVuSans-64" x="740.486328"/>
     <use xlink:href="#DejaVuSans-20" x="803.962891"/>
     <use xlink:href="#DejaVuSans-43" x="835.75"/>
     <use xlink:href="#DejaVuSans-61" x="905.574219"/>
     <use xlink:href="#DejaVuSans-73" x="966.853516"/>
     <use xlink:href="#DejaVuSans-65" x="1018.953125"/>
     <use xlink:href="#DejaVuSans-73" x="1080.476562"/>
     <use xlink:href="#DejaVuSans-20" x="1132.576172"/>
     <use xlink:href="#DejaVuSans-46" x="1164.363281"/>
     <use xlink:href="#DejaVuSans-6f" x="1218.257812"/>
     <use xlink:href="#DejaVuSans-72" x="1279.439453"/>
     <use xlink:href="#DejaVuSans-65" x="1318.302734"/>
     <use xlink:href="#DejaVuSans-63" x="1379.826172"/>
     <use xlink:href="#DejaVuSans-61" x="1434.806641"/>
     <use xlink:href="#DejaVuSans-73" x="1496.085938"/>
     <use xlink:href="#DejaVuSans-74" x="1548.185547"/>
     <use xlink:href="#DejaVuSans-69" x="1587.394531"/>
     <use xlink:href="#DejaVuSans-6e" x="1615.177734"/>
     <use xlink:href="#DejaVuSans-67" x="1678.556641"/>
     <use xlink:href="#DejaVuSans-20" x="1742.033203"/>
     <use xlink:href="#DejaVuSans-2d" x="1773.820312"/>
     <use xlink:href="#DejaVuSans-20" x="1809.904297"/>
     <use xlink:href="#DejaVuSans-57" x="1841.691406"/>
     <use xlink:href="#DejaVuSans-79" x="1938.818359"/>
     <use xlink:href="#DejaVuSans-6f" x="1997.998047"/>
     <use xlink:href="#DejaVuSans-6d" x="2059.179688"/>
     <use xlink:href="#DejaVuSans-69" x="2156.591797"/>
     <use xlink:href="#DejaVuSans-6e" x="2184.375"/>
     <use xlink:href="#DejaVuSans-67" x="2247.753906"/>
    </g>
    <!-- ARIMA (2, 1, 1)x(1, 0, 1, 7) (R2 = -0.001574) -->
    <g transform="translate(575.10125 29.7555)scale(0.12 -0.12)">
     <defs>
      <path id="DejaVuSans-41" d="M 2188 4044 
L 1331 1722 
L 3047 1722 
L 2188 4044 
z
M 1831 4666 
L 2547 4666 
L 4325 0 
L 3669 0 
L 3244 1197 
L 1141 1197 
L 716 0 
L 50 0 
L 1831 4666 
z
" transform="scale(0.015625)"/>
      <path id="DejaVuSans-52" d="M 2841 2188 
Q 3044 2119 3236 1894 
Q 3428 1669 3622 1275 
L 4263 0 
L 3584 0 
L 2988 1197 
Q 2756 1666 2539 1819 
Q 2322 1972 1947 1972 
L 1259 1972 
L 1259 0 
L 628 0 
L 628 4666 
L 2053 4666 
Q 2853 4666 3247 4331 
Q 3641 3997 3641 3322 
Q 3641 2881 3436 2590 
Q 3231 2300 2841 2188 
z
M 1259 4147 
L 1259 2491 
L 2053 2491 
Q 2509 2491 2742 2702 
Q 2975 2913 2975 3322 
Q 2975 3731 2742 3939 
Q 2509 4147 2053 4147 
L 1259 4147 
z
" transform="scale(0.015625)"/>
      <path id="DejaVuSans-49" d="M 628 4666 
L 1259 4666 
L 1259 0 
L 628 0 
L 628 4666 
z
" transform="scale(0.015625)"/>
      <path id="DejaVuSans-4d" d="M 628 4666 
L 1569 4666 
L 2759 1491 
L 3956 4666 
L 4897 4666 
L 4897 0 
L 4281 0 
L 4281 4097 
L 3078 897 
L 2444 897 
L 1241 4097 
L 1241 0 
L 628 0 
L 628 4666 
z
" transform="scale(0.015625)"/>
      <path id="DejaVuSans-28" d="M 1984 4856 
Q 1566 4138 1362 3434 
Q 1159 2731 1159 2009 
Q 1159 1288 1364 580 
Q 1569 -128 1984 -844 
L 1484 -844 
Q 1016 -109 783 600 
Q 550 1309 550 2009 
Q 550 2706 781 3412 
Q 1013 4119 1484 4856 
L 1984 4856 
z
" transform="scale(0.015625)"/>
      <path id="DejaVuSans-2c" d="M 750 794 
L 1409 794 
L 1409 256 
L 897 -744 
L 494 -744 
L 750 256 
L 750 794 
z
" transform="scale(0.015625)"/>
      <path id="DejaVuSans-29" d="M 513 4856 
L 1013 4856 
Q 1481 4119 1714 3412 
Q 1947 2706 1947 2009 
Q 1947 1309 1714 600 
Q 1481 -109 1013 -844 
L 513 -844 
Q 928 -128 1133 580 
Q 1338 1288 1338 2009 
Q 1338 2731 1133 3434 
Q 928 4138 513 4856 
z
" transform="scale(0.015625)"/>
      <path id="DejaVuSans-78" d="M 3513 3500 
L 2247 1797 
L 3578 0 
L 2900 0 
L 1881 1375 
L 863 0 
L 184 0 
L 1544 1831 
L 300 3500 
L 978 3500 
L 1906 2253 
L 2834 3500 
L 3513 3500 
z
" transform="scale(0.015625)"/>
      <path id="DejaVuSans-3d" d="M 678 2906 
L 4684 2906 
L 4684 2381 
L 678 2381 
L 678 2906 
z
M 678 1631 
L 4684 1631 
L 4684 1100 
L 678 1100 
L 678 1631 
z
" transform="scale(0.015625)"/>
      <path id="DejaVuSans-2e" d="M 684 794 
L 1344 794 
L 1344 0 
L 684 0 
L 684 794 
z
" transform="scale(0.015625)"/>
      <path id="DejaVuSans-35" d="M 691 4666 
L 3169 4666 
L 3169 4134 
L 1269 4134 
L 1269 2991 
Q 1406 3038 1543 3061 
Q 1681 3084 1819 3084 
Q 2600 3084 3056 2656 
Q 3513 2228 3513 1497 
Q 3513 744 3044 326 
Q 2575 -91 1722 -91 
Q 1428 -91 1123 -41 
Q 819 9 494 109 
L 494 744 
Q 775 591 1075 516 
Q 1375 441 1709 441 
Q 2250 441 2565 725 
Q 2881 1009 2881 1497 
Q 2881 1984 2565 2268 
Q 2250 2553 1709 2553 
Q 1456 2553 1204 2497 
Q 953 2441 691 2322 
L 691 4666 
z
" transform="scale(0.015625)"/>
     </defs>
     <use xlink:href="#DejaVuSans-41"/>
     <use xlink:href="#DejaVuSans-52" x="68.408203"/>
     <use xlink:href="#DejaVuSans-49" x="137.890625"/>
     <use xlink:href="#DejaVuSans-4d" x="167.382812"/>
     <use xlink:href="#DejaVuSans-41" x="253.662109"/>
     <use xlink:href="#DejaVuSans-20" x="322.070312"/>
     <use xlink:href="#DejaVuSans-28" x="353.857422"/>
     <use xlink:href="#DejaVuSans-32" x="392.871094"/>
     <use xlink:href="#DejaVuSans-2c" x="456.494141"/>
     <use xlink:href="#DejaVuSans-20" x="488.28125"/>
     <use xlink:href="#DejaVuSans-31" x="520.068359"/>
     <use xlink:href="#DejaVuSans-2c" x="583.691406"/>
     <use xlink:href="#DejaVuSans-20" x="615.478516"/>
     <use xlink:href="#DejaVuSans-31" x="647.265625"/>
     <use xlink:href="#DejaVuSans-29" x="710.888672"/>
     <use xlink:href="#DejaVuSans-78" x="749.902344"/>
     <use xlink:href="#DejaVuSans-28" x="809.082031"/>
     <use xlink:href="#DejaVuSans-31" x="848.095703"/>
     <use xlink:href="#DejaVuSans-2c" x="911.71875"/>
     <use xlink:href="#DejaVuSans-20" x="943.505859"/>
     <use xlink:href="#DejaVuSans-30" x="975.292969"/>
     <use xlink:href="#DejaVuSans-2c" x="1038.916016"/>
     <use xlink:href="#DejaVuSans-20" x="1070.703125"/>
     <use xlink:href="#DejaVuSans-31" x="1102.490234"/>
     <use xlink:href="#DejaVuSans-2c" x="1166.113281"/>
     <use xlink:href="#DejaVuSans-20" x="1197.900391"/>
     <use xlink:href="#DejaVuSans-37" x="1229.6875"/>
     <use xlink:href="#DejaVuSans-29" x="1293.310547"/>
     <use xlink:href="#DejaVuSans-20" x="1332.324219"/>
     <use xlink:href="#DejaVuSans-28" x="1364.111328"/>
     <use xlink:href="#DejaVuSans-52" x="1403.125"/>
     <use xlink:href="#DejaVuSans-32" x="1472.607422"/>
     <use xlink:href="#DejaVuSans-20" x="1536.230469"/>
     <use xlink:href="#DejaVuSans-3d" x="1568.017578"/>
     <use xlink:href="#DejaVuSans-20" x="1651.806641"/>
     <use xlink:href="#DejaVuSans-2d" x="1683.59375"/>
     <use xlink:href="#DejaVuSans-30" x="1719.677734"/>
     <use xlink:href="#DejaVuSans-2e" x="1783.300781"/>
     <use xlink:href="#DejaVuSans-30" x="1815.087891"/>
     <use xlink:href="#DejaVuSans-30" x="1878.710938"/>
     <use xlink:href="#DejaVuSans-31" x="1942.333984"/>
     <use xlink:href="#DejaVuSans-35" x="2005.957031"/>
     <use xlink:href="#DejaVuSans-37" x="2069.580078"/>
     <use xlink:href="#DejaVuSans-34" x="2133.203125"/>
     <use xlink:href="#DejaVuSans-29" x="2196.826172"/>
    </g>
   </g>
   <g id="legend_1">
    <g id="patch_7">
     <path d="M 1274.770313 87.789875 
L 1371.85 87.789875 
Q 1373.85 87.789875 1373.85 85.789875 
L 1373.85 42.7555 
Q 1373.85 40.7555 1371.85 40.7555 
L 1274.770313 40.7555 
Q 1272.770313 40.7555 1272.770313 42.7555 
L 1272.770313 85.789875 
Q 1272.770313 87.789875 1274.770313 87.789875 
z
" style="fill: #ffffff; opacity: 0.8; stroke: #cccccc; stroke-linejoin: miter"/>
    </g>
    <g id="line2d_20">
     <path d="M 1276.770313 48.853937 
L 1286.770313 48.853937 
L 1296.770313 48.853937 
" style="fill: none; stroke: #0000ff; stroke-width: 1.5; stroke-linecap: square"/>
    </g>
    <g id="text_18">
     <!-- Actual Value -->
     <g transform="translate(1304.770313 52.353937)scale(0.1 -0.1)">
      <defs>
       <path id="DejaVuSans-75" d="M 544 1381 
L 544 3500 
L 1119 3500 
L 1119 1403 
Q 1119 906 1312 657 
Q 1506 409 1894 409 
Q 2359 409 2629 706 
Q 2900 1003 2900 1516 
L 2900 3500 
L 3475 3500 
L 3475 0 
L 2900 0 
L 2900 538 
Q 2691 219 2414 64 
Q 2138 -91 1772 -91 
Q 1169 -91 856 284 
Q 544 659 544 1381 
z
M 1991 3584 
L 1991 3584 
z
" transform="scale(0.015625)"/>
       <path id="DejaVuSans-56" d="M 1831 0 
L 50 4666 
L 709 4666 
L 2188 738 
L 3669 4666 
L 4325 4666 
L 2547 0 
L 1831 0 
z
" transform="scale(0.015625)"/>
      </defs>
      <use xlink:href="#DejaVuSans-41"/>
      <use xlink:href="#DejaVuSans-63" x="66.658203"/>
      <use xlink:href="#DejaVuSans-74" x="121.638672"/>
      <use xlink:href="#DejaVuSans-75" x="160.847656"/>
      <use xlink:href="#DejaVuSans-61" x="224.226562"/>
      <use xlink:href="#DejaVuSans-6c" x="285.505859"/>
      <use xlink:href="#DejaVuSans-20" x="313.289062"/>
      <use xlink:href="#DejaVuSans-56" x="345.076172"/>
      <use xlink:href="#DejaVuSans-61" x="405.734375"/>
      <use xlink:href="#DejaVuSans-6c" x="467.013672"/>
      <use xlink:href="#DejaVuSans-75" x="494.796875"/>
      <use xlink:href="#DejaVuSans-65" x="558.175781"/>
     </g>
    </g>
    <g id="line2d_21">
     <path d="M 1276.770313 63.532062 
L 1286.770313 63.532062 
L 1296.770313 63.532062 
" style="fill: none; stroke: #ffa500; stroke-width: 1.5; stroke-linecap: square"/>
    </g>
    <g id="text_19">
     <!-- Check Value -->
     <g transform="translate(1304.770313 67.032062)scale(0.1 -0.1)">
      <defs>
       <path id="DejaVuSans-68" d="M 3513 2113 
L 3513 0 
L 2938 0 
L 2938 2094 
Q 2938 2591 2744 2837 
Q 2550 3084 2163 3084 
Q 1697 3084 1428 2787 
Q 1159 2491 1159 1978 
L 1159 0 
L 581 0 
L 581 4863 
L 1159 4863 
L 1159 2956 
Q 1366 3272 1645 3428 
Q 1925 3584 2291 3584 
Q 2894 3584 3203 3211 
Q 3513 2838 3513 2113 
z
" transform="scale(0.015625)"/>
       <path id="DejaVuSans-6b" d="M 581 4863 
L 1159 4863 
L 1159 1991 
L 2875 3500 
L 3609 3500 
L 1753 1863 
L 3688 0 
L 2938 0 
L 1159 1709 
L 1159 0 
L 581 0 
L 581 4863 
z
" transform="scale(0.015625)"/>
      </defs>
      <use xlink:href="#DejaVuSans-43"/>
      <use xlink:href="#DejaVuSans-68" x="69.824219"/>
      <use xlink:href="#DejaVuSans-65" x="133.203125"/>
      <use xlink:href="#DejaVuSans-63" x="194.726562"/>
      <use xlink:href="#DejaVuSans-6b" x="249.707031"/>
      <use xlink:href="#DejaVuSans-20" x="307.617188"/>
      <use xlink:href="#DejaVuSans-56" x="339.404297"/>
      <use xlink:href="#DejaVuSans-61" x="400.0625"/>
      <use xlink:href="#DejaVuSans-6c" x="461.341797"/>
      <use xlink:href="#DejaVuSans-75" x="489.125"/>
      <use xlink:href="#DejaVuSans-65" x="552.503906"/>
     </g>
    </g>
    <g id="line2d_22">
     <path d="M 1276.770313 78.210187 
L 1286.770313 78.210187 
L 1296.770313 78.210187 
" style="fill: none; stroke: #ff0000; stroke-width: 1.5; stroke-linecap: square"/>
    </g>
    <g id="text_20">
     <!-- Predict Value -->
     <g transform="translate(1304.770313 81.710187)scale(0.1 -0.1)">
      <defs>
       <path id="DejaVuSans-50" d="M 1259 4147 
L 1259 2394 
L 2053 2394 
Q 2494 2394 2734 2622 
Q 2975 2850 2975 3272 
Q 2975 3691 2734 3919 
Q 2494 4147 2053 4147 
L 1259 4147 
z
M 628 4666 
L 2053 4666 
Q 2838 4666 3239 4311 
Q 3641 3956 3641 3272 
Q 3641 2581 3239 2228 
Q 2838 1875 2053 1875 
L 1259 1875 
L 1259 0 
L 628 0 
L 628 4666 
z
" transform="scale(0.015625)"/>
      </defs>
      <use xlink:href="#DejaVuSans-50"/>
      <use xlink:href="#DejaVuSans-72" x="58.552734"/>
      <use xlink:href="#DejaVuSans-65" x="97.416016"/>
      <use xlink:href="#DejaVuSans-64" x="158.939453"/>
      <use xlink:href="#DejaVuSans-69" x="222.416016"/>
      <use xlink:href="#DejaVuSans-63" x="250.199219"/>
      <use xlink:href="#DejaVuSans-74" x="305.179688"/>
      <use xlink:href="#DejaVuSans-20" x="344.388672"/>
      <use xlink:href="#DejaVuSans-56" x="376.175781"/>
      <use xlink:href="#DejaVuSans-61" x="436.833984"/>
      <use xlink:href="#DejaVuSans-6c" x="498.113281"/>
      <use xlink:href="#DejaVuSans-75" x="525.896484"/>
      <use xlink:href="#DejaVuSans-65" x="589.275391"/>
     </g>
    </g>
   </g>
  </g>
 </g>
 <defs>
  <clipPath id="p5f9e214218">
   <rect x="39.65" y="35.7555" width="1339.2" height="332.64"/>
  </clipPath>
 </defs>
</svg>
