<?xml version="1.0" encoding="utf-8" standalone="no"?>
<!DOCTYPE svg PUBLIC "-//W3C//DTD SVG 1.1//EN"
  "http://www.w3.org/Graphics/SVG/1.1/DTD/svg11.dtd">
<svg xmlns:xlink="http://www.w3.org/1999/xlink" width="1392.4125pt" height="392.273625pt" viewBox="0 0 1392.4125 392.273625" xmlns="http://www.w3.org/2000/svg" version="1.1">
 <metadata>
  <rdf:RDF xmlns:dc="http://purl.org/dc/elements/1.1/" xmlns:cc="http://creativecommons.org/ns#" xmlns:rdf="http://www.w3.org/1999/02/22-rdf-syntax-ns#">
   <cc:Work>
    <dc:type rdf:resource="http://purl.org/dc/dcmitype/StillImage"/>
    <dc:date>2022-07-19T17:45:50.428827</dc:date>
    <dc:format>image/svg+xml</dc:format>
    <dc:creator>
     <cc:Agent>
      <dc:title>Matplotlib v3.5.2, https://matplotlib.org/</dc:title>
     </cc:Agent>
    </dc:creator>
   </cc:Work>
  </rdf:RDF>
 </metadata>
 <defs>
  <style type="text/css">*{stroke-linejoin: round; stroke-linecap: butt}</style>
 </defs>
 <g id="figure_1">
  <g id="patch_1">
   <path d="M 0 392.273625 
L 1392.4125 392.273625 
L 1392.4125 0 
L 0 0 
z
" style="fill: #ffffff"/>
  </g>
  <g id="axes_1">
   <g id="patch_2">
    <path d="M 46.0125 368.3955 
L 1385.2125 368.3955 
L 1385.2125 35.7555 
L 46.0125 35.7555 
z
" style="fill: #ffffff"/>
   </g>
   <g id="matplotlib.axis_1">
    <g id="xtick_1">
     <g id="line2d_1">
      <defs>
       <path id="ma5eee1d1d4" d="M 0 0 
L 0 3.5 
" style="stroke: #000000; stroke-width: 0.8"/>
      </defs>
      <g>
       <use xlink:href="#ma5eee1d1d4" x="77.772184" y="368.3955" style="stroke: #000000; stroke-width: 0.8"/>
      </g>
     </g>
     <g id="text_1">
      <!-- 2020-01 -->
      <g transform="translate(56.880778 382.993937)scale(0.1 -0.1)">
       <defs>
        <path id="DejaVuSans-32" d="M 1228 531 
L 3431 531 
L 3431 0 
L 469 0 
L 469 531 
Q 828 903 1448 1529 
Q 2069 2156 2228 2338 
Q 2531 2678 2651 2914 
Q 2772 3150 2772 3378 
Q 2772 3750 2511 3984 
Q 2250 4219 1831 4219 
Q 1534 4219 1204 4116 
Q 875 4013 500 3803 
L 500 4441 
Q 881 4594 1212 4672 
Q 1544 4750 1819 4750 
Q 2544 4750 2975 4387 
Q 3406 4025 3406 3419 
Q 3406 3131 3298 2873 
Q 3191 2616 2906 2266 
Q 2828 2175 2409 1742 
Q 1991 1309 1228 531 
z
" transform="scale(0.015625)"/>
        <path id="DejaVuSans-30" d="M 2034 4250 
Q 1547 4250 1301 3770 
Q 1056 3291 1056 2328 
Q 1056 1369 1301 889 
Q 1547 409 2034 409 
Q 2525 409 2770 889 
Q 3016 1369 3016 2328 
Q 3016 3291 2770 3770 
Q 2525 4250 2034 4250 
z
M 2034 4750 
Q 2819 4750 3233 4129 
Q 3647 3509 3647 2328 
Q 3647 1150 3233 529 
Q 2819 -91 2034 -91 
Q 1250 -91 836 529 
Q 422 1150 422 2328 
Q 422 3509 836 4129 
Q 1250 4750 2034 4750 
z
" transform="scale(0.015625)"/>
        <path id="DejaVuSans-2d" d="M 313 2009 
L 1997 2009 
L 1997 1497 
L 313 1497 
L 313 2009 
z
" transform="scale(0.015625)"/>
        <path id="DejaVuSans-31" d="M 794 531 
L 1825 531 
L 1825 4091 
L 703 3866 
L 703 4441 
L 1819 4666 
L 2450 4666 
L 2450 531 
L 3481 531 
L 3481 0 
L 794 0 
L 794 531 
z
" transform="scale(0.015625)"/>
       </defs>
       <use xlink:href="#DejaVuSans-32"/>
       <use xlink:href="#DejaVuSans-30" x="63.623047"/>
       <use xlink:href="#DejaVuSans-32" x="127.246094"/>
       <use xlink:href="#DejaVuSans-30" x="190.869141"/>
       <use xlink:href="#DejaVuSans-2d" x="254.492188"/>
       <use xlink:href="#DejaVuSans-30" x="290.576172"/>
       <use xlink:href="#DejaVuSans-31" x="354.199219"/>
      </g>
     </g>
    </g>
    <g id="xtick_2">
     <g id="line2d_2">
      <g>
       <use xlink:href="#ma5eee1d1d4" x="198.194318" y="368.3955" style="stroke: #000000; stroke-width: 0.8"/>
      </g>
     </g>
     <g id="text_2">
      <!-- 2020-04 -->
      <g transform="translate(177.302912 382.993937)scale(0.1 -0.1)">
       <defs>
        <path id="DejaVuSans-34" d="M 2419 4116 
L 825 1625 
L 2419 1625 
L 2419 4116 
z
M 2253 4666 
L 3047 4666 
L 3047 1625 
L 3713 1625 
L 3713 1100 
L 3047 1100 
L 3047 0 
L 2419 0 
L 2419 1100 
L 313 1100 
L 313 1709 
L 2253 4666 
z
" transform="scale(0.015625)"/>
       </defs>
       <use xlink:href="#DejaVuSans-32"/>
       <use xlink:href="#DejaVuSans-30" x="63.623047"/>
       <use xlink:href="#DejaVuSans-32" x="127.246094"/>
       <use xlink:href="#DejaVuSans-30" x="190.869141"/>
       <use xlink:href="#DejaVuSans-2d" x="254.492188"/>
       <use xlink:href="#DejaVuSans-30" x="290.576172"/>
       <use xlink:href="#DejaVuSans-34" x="354.199219"/>
      </g>
     </g>
    </g>
    <g id="xtick_3">
     <g id="line2d_3">
      <g>
       <use xlink:href="#ma5eee1d1d4" x="318.616453" y="368.3955" style="stroke: #000000; stroke-width: 0.8"/>
      </g>
     </g>
     <g id="text_3">
      <!-- 2020-07 -->
      <g transform="translate(297.725046 382.993937)scale(0.1 -0.1)">
       <defs>
        <path id="DejaVuSans-37" d="M 525 4666 
L 3525 4666 
L 3525 4397 
L 1831 0 
L 1172 0 
L 2766 4134 
L 525 4134 
L 525 4666 
z
" transform="scale(0.015625)"/>
       </defs>
       <use xlink:href="#DejaVuSans-32"/>
       <use xlink:href="#DejaVuSans-30" x="63.623047"/>
       <use xlink:href="#DejaVuSans-32" x="127.246094"/>
       <use xlink:href="#DejaVuSans-30" x="190.869141"/>
       <use xlink:href="#DejaVuSans-2d" x="254.492188"/>
       <use xlink:href="#DejaVuSans-30" x="290.576172"/>
       <use xlink:href="#DejaVuSans-37" x="354.199219"/>
      </g>
     </g>
    </g>
    <g id="xtick_4">
     <g id="line2d_4">
      <g>
       <use xlink:href="#ma5eee1d1d4" x="440.361907" y="368.3955" style="stroke: #000000; stroke-width: 0.8"/>
      </g>
     </g>
     <g id="text_4">
      <!-- 2020-10 -->
      <g transform="translate(419.470501 382.993937)scale(0.1 -0.1)">
       <use xlink:href="#DejaVuSans-32"/>
       <use xlink:href="#DejaVuSans-30" x="63.623047"/>
       <use xlink:href="#DejaVuSans-32" x="127.246094"/>
       <use xlink:href="#DejaVuSans-30" x="190.869141"/>
       <use xlink:href="#DejaVuSans-2d" x="254.492188"/>
       <use xlink:href="#DejaVuSans-31" x="290.576172"/>
       <use xlink:href="#DejaVuSans-30" x="354.199219"/>
      </g>
     </g>
    </g>
    <g id="xtick_5">
     <g id="line2d_5">
      <g>
       <use xlink:href="#ma5eee1d1d4" x="562.107362" y="368.3955" style="stroke: #000000; stroke-width: 0.8"/>
      </g>
     </g>
     <g id="text_5">
      <!-- 2021-01 -->
      <g transform="translate(541.215955 382.993937)scale(0.1 -0.1)">
       <use xlink:href="#DejaVuSans-32"/>
       <use xlink:href="#DejaVuSans-30" x="63.623047"/>
       <use xlink:href="#DejaVuSans-32" x="127.246094"/>
       <use xlink:href="#DejaVuSans-31" x="190.869141"/>
       <use xlink:href="#DejaVuSans-2d" x="254.492188"/>
       <use xlink:href="#DejaVuSans-30" x="290.576172"/>
       <use xlink:href="#DejaVuSans-31" x="354.199219"/>
      </g>
     </g>
    </g>
    <g id="xtick_6">
     <g id="line2d_6">
      <g>
       <use xlink:href="#ma5eee1d1d4" x="681.206176" y="368.3955" style="stroke: #000000; stroke-width: 0.8"/>
      </g>
     </g>
     <g id="text_6">
      <!-- 2021-04 -->
      <g transform="translate(660.31477 382.993937)scale(0.1 -0.1)">
       <use xlink:href="#DejaVuSans-32"/>
       <use xlink:href="#DejaVuSans-30" x="63.623047"/>
       <use xlink:href="#DejaVuSans-32" x="127.246094"/>
       <use xlink:href="#DejaVuSans-31" x="190.869141"/>
       <use xlink:href="#DejaVuSans-2d" x="254.492188"/>
       <use xlink:href="#DejaVuSans-30" x="290.576172"/>
       <use xlink:href="#DejaVuSans-34" x="354.199219"/>
      </g>
     </g>
    </g>
    <g id="xtick_7">
     <g id="line2d_7">
      <g>
       <use xlink:href="#ma5eee1d1d4" x="801.62831" y="368.3955" style="stroke: #000000; stroke-width: 0.8"/>
      </g>
     </g>
     <g id="text_7">
      <!-- 2021-07 -->
      <g transform="translate(780.736904 382.993937)scale(0.1 -0.1)">
       <use xlink:href="#DejaVuSans-32"/>
       <use xlink:href="#DejaVuSans-30" x="63.623047"/>
       <use xlink:href="#DejaVuSans-32" x="127.246094"/>
       <use xlink:href="#DejaVuSans-31" x="190.869141"/>
       <use xlink:href="#DejaVuSans-2d" x="254.492188"/>
       <use xlink:href="#DejaVuSans-30" x="290.576172"/>
       <use xlink:href="#DejaVuSans-37" x="354.199219"/>
      </g>
     </g>
    </g>
    <g id="xtick_8">
     <g id="line2d_8">
      <g>
       <use xlink:href="#ma5eee1d1d4" x="923.373765" y="368.3955" style="stroke: #000000; stroke-width: 0.8"/>
      </g>
     </g>
     <g id="text_8">
      <!-- 2021-10 -->
      <g transform="translate(902.482359 382.993937)scale(0.1 -0.1)">
       <use xlink:href="#DejaVuSans-32"/>
       <use xlink:href="#DejaVuSans-30" x="63.623047"/>
       <use xlink:href="#DejaVuSans-32" x="127.246094"/>
       <use xlink:href="#DejaVuSans-31" x="190.869141"/>
       <use xlink:href="#DejaVuSans-2d" x="254.492188"/>
       <use xlink:href="#DejaVuSans-31" x="290.576172"/>
       <use xlink:href="#DejaVuSans-30" x="354.199219"/>
      </g>
     </g>
    </g>
    <g id="xtick_9">
     <g id="line2d_9">
      <g>
       <use xlink:href="#ma5eee1d1d4" x="1045.119219" y="368.3955" style="stroke: #000000; stroke-width: 0.8"/>
      </g>
     </g>
     <g id="text_9">
      <!-- 2022-01 -->
      <g transform="translate(1024.227813 382.993937)scale(0.1 -0.1)">
       <use xlink:href="#DejaVuSans-32"/>
       <use xlink:href="#DejaVuSans-30" x="63.623047"/>
       <use xlink:href="#DejaVuSans-32" x="127.246094"/>
       <use xlink:href="#DejaVuSans-32" x="190.869141"/>
       <use xlink:href="#DejaVuSans-2d" x="254.492188"/>
       <use xlink:href="#DejaVuSans-30" x="290.576172"/>
       <use xlink:href="#DejaVuSans-31" x="354.199219"/>
      </g>
     </g>
    </g>
    <g id="xtick_10">
     <g id="line2d_10">
      <g>
       <use xlink:href="#ma5eee1d1d4" x="1164.218034" y="368.3955" style="stroke: #000000; stroke-width: 0.8"/>
      </g>
     </g>
     <g id="text_10">
      <!-- 2022-04 -->
      <g transform="translate(1143.326627 382.993937)scale(0.1 -0.1)">
       <use xlink:href="#DejaVuSans-32"/>
       <use xlink:href="#DejaVuSans-30" x="63.623047"/>
       <use xlink:href="#DejaVuSans-32" x="127.246094"/>
       <use xlink:href="#DejaVuSans-32" x="190.869141"/>
       <use xlink:href="#DejaVuSans-2d" x="254.492188"/>
       <use xlink:href="#DejaVuSans-30" x="290.576172"/>
       <use xlink:href="#DejaVuSans-34" x="354.199219"/>
      </g>
     </g>
    </g>
    <g id="xtick_11">
     <g id="line2d_11">
      <g>
       <use xlink:href="#ma5eee1d1d4" x="1284.640168" y="368.3955" style="stroke: #000000; stroke-width: 0.8"/>
      </g>
     </g>
     <g id="text_11">
      <!-- 2022-07 -->
      <g transform="translate(1263.748762 382.993937)scale(0.1 -0.1)">
       <use xlink:href="#DejaVuSans-32"/>
       <use xlink:href="#DejaVuSans-30" x="63.623047"/>
       <use xlink:href="#DejaVuSans-32" x="127.246094"/>
       <use xlink:href="#DejaVuSans-32" x="190.869141"/>
       <use xlink:href="#DejaVuSans-2d" x="254.492188"/>
       <use xlink:href="#DejaVuSans-30" x="290.576172"/>
       <use xlink:href="#DejaVuSans-37" x="354.199219"/>
      </g>
     </g>
    </g>
   </g>
   <g id="matplotlib.axis_2">
    <g id="ytick_1">
     <g id="line2d_12">
      <defs>
       <path id="m16534e93a8" d="M 0 0 
L -3.5 0 
" style="stroke: #000000; stroke-width: 0.8"/>
      </defs>
      <g>
       <use xlink:href="#m16534e93a8" x="46.0125" y="331.48776" style="stroke: #000000; stroke-width: 0.8"/>
      </g>
     </g>
     <g id="text_12">
      <!-- 0 -->
      <g transform="translate(32.65 335.286979)scale(0.1 -0.1)">
       <use xlink:href="#DejaVuSans-30"/>
      </g>
     </g>
    </g>
    <g id="ytick_2">
     <g id="line2d_13">
      <g>
       <use xlink:href="#m16534e93a8" x="46.0125" y="288.258117" style="stroke: #000000; stroke-width: 0.8"/>
      </g>
     </g>
     <g id="text_13">
      <!-- 2500 -->
      <g transform="translate(13.5625 292.057335)scale(0.1 -0.1)">
       <defs>
        <path id="DejaVuSans-35" d="M 691 4666 
L 3169 4666 
L 3169 4134 
L 1269 4134 
L 1269 2991 
Q 1406 3038 1543 3061 
Q 1681 3084 1819 3084 
Q 2600 3084 3056 2656 
Q 3513 2228 3513 1497 
Q 3513 744 3044 326 
Q 2575 -91 1722 -91 
Q 1428 -91 1123 -41 
Q 819 9 494 109 
L 494 744 
Q 775 591 1075 516 
Q 1375 441 1709 441 
Q 2250 441 2565 725 
Q 2881 1009 2881 1497 
Q 2881 1984 2565 2268 
Q 2250 2553 1709 2553 
Q 1456 2553 1204 2497 
Q 953 2441 691 2322 
L 691 4666 
z
" transform="scale(0.015625)"/>
       </defs>
       <use xlink:href="#DejaVuSans-32"/>
       <use xlink:href="#DejaVuSans-35" x="63.623047"/>
       <use xlink:href="#DejaVuSans-30" x="127.246094"/>
       <use xlink:href="#DejaVuSans-30" x="190.869141"/>
      </g>
     </g>
    </g>
    <g id="ytick_3">
     <g id="line2d_14">
      <g>
       <use xlink:href="#m16534e93a8" x="46.0125" y="245.028473" style="stroke: #000000; stroke-width: 0.8"/>
      </g>
     </g>
     <g id="text_14">
      <!-- 5000 -->
      <g transform="translate(13.5625 248.827692)scale(0.1 -0.1)">
       <use xlink:href="#DejaVuSans-35"/>
       <use xlink:href="#DejaVuSans-30" x="63.623047"/>
       <use xlink:href="#DejaVuSans-30" x="127.246094"/>
       <use xlink:href="#DejaVuSans-30" x="190.869141"/>
      </g>
     </g>
    </g>
    <g id="ytick_4">
     <g id="line2d_15">
      <g>
       <use xlink:href="#m16534e93a8" x="46.0125" y="201.79883" style="stroke: #000000; stroke-width: 0.8"/>
      </g>
     </g>
     <g id="text_15">
      <!-- 7500 -->
      <g transform="translate(13.5625 205.598049)scale(0.1 -0.1)">
       <use xlink:href="#DejaVuSans-37"/>
       <use xlink:href="#DejaVuSans-35" x="63.623047"/>
       <use xlink:href="#DejaVuSans-30" x="127.246094"/>
       <use xlink:href="#DejaVuSans-30" x="190.869141"/>
      </g>
     </g>
    </g>
    <g id="ytick_5">
     <g id="line2d_16">
      <g>
       <use xlink:href="#m16534e93a8" x="46.0125" y="158.569187" style="stroke: #000000; stroke-width: 0.8"/>
      </g>
     </g>
     <g id="text_16">
      <!-- 10000 -->
      <g transform="translate(7.2 162.368406)scale(0.1 -0.1)">
       <use xlink:href="#DejaVuSans-31"/>
       <use xlink:href="#DejaVuSans-30" x="63.623047"/>
       <use xlink:href="#DejaVuSans-30" x="127.246094"/>
       <use xlink:href="#DejaVuSans-30" x="190.869141"/>
       <use xlink:href="#DejaVuSans-30" x="254.492188"/>
      </g>
     </g>
    </g>
    <g id="ytick_6">
     <g id="line2d_17">
      <g>
       <use xlink:href="#m16534e93a8" x="46.0125" y="115.339544" style="stroke: #000000; stroke-width: 0.8"/>
      </g>
     </g>
     <g id="text_17">
      <!-- 12500 -->
      <g transform="translate(7.2 119.138763)scale(0.1 -0.1)">
       <use xlink:href="#DejaVuSans-31"/>
       <use xlink:href="#DejaVuSans-32" x="63.623047"/>
       <use xlink:href="#DejaVuSans-35" x="127.246094"/>
       <use xlink:href="#DejaVuSans-30" x="190.869141"/>
       <use xlink:href="#DejaVuSans-30" x="254.492188"/>
      </g>
     </g>
    </g>
    <g id="ytick_7">
     <g id="line2d_18">
      <g>
       <use xlink:href="#m16534e93a8" x="46.0125" y="72.109901" style="stroke: #000000; stroke-width: 0.8"/>
      </g>
     </g>
     <g id="text_18">
      <!-- 15000 -->
      <g transform="translate(7.2 75.909119)scale(0.1 -0.1)">
       <use xlink:href="#DejaVuSans-31"/>
       <use xlink:href="#DejaVuSans-35" x="63.623047"/>
       <use xlink:href="#DejaVuSans-30" x="127.246094"/>
       <use xlink:href="#DejaVuSans-30" x="190.869141"/>
       <use xlink:href="#DejaVuSans-30" x="254.492188"/>
      </g>
     </g>
    </g>
   </g>
   <g id="line2d_19">
    <path d="M 106.885227 331.48776 
L 171.727915 331.522344 
L 173.051235 331.332133 
L 174.374555 331.349425 
L 175.697875 331.48776 
L 178.344516 331.453176 
L 179.667836 331.314841 
L 184.961117 331.193798 
L 186.284437 331.090047 
L 188.931077 331.349425 
L 190.254397 330.917129 
L 191.577717 330.830669 
L 192.901038 330.865253 
L 194.224358 330.536708 
L 195.547678 329.516488 
L 196.870998 330.104411 
L 199.517638 330.121703 
L 200.840958 330.346497 
L 202.164279 329.845033 
L 203.487599 329.481904 
L 204.810919 328.721063 
L 206.134239 328.945857 
L 207.457559 327.666259 
L 208.780879 326.697915 
L 210.1042 331.48776 
L 211.42752 320.732225 
L 214.07416 331.48776 
L 215.39748 321.354731 
L 216.7208 331.48776 
L 218.044121 326.680624 
L 219.367441 320.282636 
L 220.690761 326.058117 
L 222.014081 327.770011 
L 223.337401 324.847687 
L 224.660721 324.398098 
L 225.984042 325.591237 
L 227.307362 324.311639 
L 228.630682 323.827467 
L 229.954002 324.052261 
L 231.277322 326.127284 
L 232.600642 326.83625 
L 233.923962 327.700843 
L 235.247283 325.954366 
L 236.570603 325.020605 
L 237.893923 325.591237 
L 239.217243 325.833323 
L 240.540563 328.236891 
L 241.863883 328.461685 
L 243.187204 326.628748 
L 244.510524 326.784375 
L 245.833844 325.867906 
L 247.157164 327.182087 
L 248.480484 327.85647 
L 249.803804 326.559581 
L 251.127125 328.444393 
L 252.450445 328.651895 
L 253.773765 327.666259 
L 255.097085 328.357934 
L 256.420405 327.977513 
L 257.743725 327.770011 
L 259.067045 327.337714 
L 260.390366 329.395445 
L 261.713686 328.79023 
L 263.037006 324.484558 
L 264.360326 327.770011 
L 265.683646 328.634603 
L 267.006966 327.752719 
L 269.653607 331.48776 
L 270.976927 328.980441 
L 274.946887 329.049608 
L 276.270208 328.306058 
L 277.593528 329.602947 
L 278.916848 330.398373 
L 280.240168 329.395445 
L 281.563488 329.637531 
L 282.886808 329.654823 
L 284.210128 329.481904 
L 285.533449 331.48776 
L 286.856769 331.48776 
L 288.180089 328.012097 
L 289.503409 330.640459 
L 290.826729 330.363789 
L 292.150049 329.654823 
L 293.47337 330.017952 
L 294.79669 331.48776 
L 296.12001 331.48776 
L 297.44333 328.963149 
L 298.76665 330.260038 
L 300.08997 330.640459 
L 302.736611 330.311914 
L 304.059931 331.48776 
L 305.383251 331.48776 
L 306.706571 329.378153 
L 308.029891 330.208162 
L 309.353211 330.225454 
L 310.676532 330.899837 
L 311.999852 331.124631 
L 313.323172 331.48776 
L 314.646492 331.48776 
L 315.969812 329.706699 
L 317.293132 330.640459 
L 318.616453 330.796086 
L 319.939773 329.966076 
L 321.263093 330.623167 
L 322.586413 331.48776 
L 325.233053 331.48776 
L 326.556374 328.669187 
L 327.879694 330.623167 
L 329.203014 330.813377 
L 330.526334 330.294622 
L 331.849654 331.48776 
L 333.172974 331.48776 
L 334.496294 328.461685 
L 335.819615 329.741282 
L 337.142935 330.588583 
L 338.466255 330.260038 
L 339.789575 330.069828 
L 341.112895 331.48776 
L 342.436215 331.48776 
L 343.759536 329.568364 
L 345.082856 330.069828 
L 346.406176 330.173579 
L 347.729496 330.00066 
L 349.052816 330.173579 
L 350.376136 331.48776 
L 351.699457 331.48776 
L 353.022777 326.455829 
L 354.346097 327.85647 
L 355.669417 330.190871 
L 356.992737 328.893981 
L 359.639377 331.48776 
L 360.962698 331.48776 
L 362.286018 327.614384 
L 363.609338 328.997732 
L 364.932658 329.914201 
L 366.255978 329.239818 
L 367.579298 329.291694 
L 368.902619 331.48776 
L 370.225939 331.48776 
L 371.549259 328.098556 
L 372.872579 329.430029 
L 374.195899 330.173579 
L 375.519219 329.568364 
L 376.84254 329.845033 
L 378.16586 331.48776 
L 379.48918 331.48776 
L 380.8125 327.38959 
L 382.13582 329.412737 
L 383.45914 329.706699 
L 384.78246 330.173579 
L 386.105781 328.876689 
L 387.429101 331.48776 
L 388.752421 331.48776 
L 390.075741 326.64604 
L 391.399061 330.27733 
L 392.722381 330.069828 
L 394.045702 329.153359 
L 395.369022 329.862325 
L 396.692342 331.48776 
L 398.015662 331.48776 
L 399.338982 326.888126 
L 400.662302 330.571291 
L 401.985623 330.173579 
L 403.308943 330.363789 
L 404.632263 329.758574 
L 405.955583 331.48776 
L 408.602223 331.48776 
L 409.925543 325.452902 
L 411.248864 330.035244 
L 413.895504 329.360861 
L 415.218824 331.48776 
L 416.542144 331.48776 
L 417.865464 327.597092 
L 419.188785 329.412737 
L 420.512105 329.620239 
L 421.835425 329.239818 
L 423.158745 329.205235 
L 424.482065 331.48776 
L 425.805385 331.48776 
L 427.128706 326.0927 
L 428.452026 329.551072 
L 429.775346 329.187943 
L 431.098666 329.170651 
L 432.421986 333.735701 
L 433.745306 331.48776 
L 435.068626 331.48776 
L 436.391947 327.285839 
L 437.715267 329.205235 
L 439.038587 328.167723 
L 440.361907 328.617312 
L 441.685227 328.686479 
L 443.008547 331.48776 
L 444.331868 331.48776 
L 445.655188 325.556653 
L 446.978508 328.427101 
L 448.301828 328.375226 
L 449.625148 326.83625 
L 450.948468 327.182087 
L 452.271789 331.48776 
L 454.918429 331.48776 
L 456.241749 319.971383 
L 457.565069 327.960221 
L 458.888389 326.749791 
L 460.211709 327.11292 
L 461.53503 331.48776 
L 462.85835 331.48776 
L 464.18167 320.144301 
L 465.50499 326.265619 
L 466.82831 323.291419 
L 468.15163 323.343295 
L 469.474951 322.426827 
L 470.798271 331.48776 
L 472.121591 331.48776 
L 473.444911 315.821337 
L 474.768231 324.207888 
L 476.091551 322.859123 
L 477.414872 325.124356 
L 478.738192 321.769736 
L 480.061512 331.48776 
L 481.384832 331.48776 
L 482.708152 309.942106 
L 484.031472 324.173304 
L 485.354792 321.475774 
L 486.678113 320.628473 
L 488.001433 320.59389 
L 489.324753 331.48776 
L 490.648073 331.48776 
L 491.971393 303.319324 
L 493.294713 317.844484 
L 494.618034 314.576323 
L 495.941354 314.403405 
L 497.264674 318.259489 
L 498.587994 331.48776 
L 499.911314 331.48776 
L 501.234634 290.091054 
L 502.557955 321.026186 
L 503.881275 307.573121 
L 505.204595 313.504228 
L 506.527915 313.33131 
L 507.851235 331.48776 
L 509.174555 331.48776 
L 510.497875 287.013103 
L 511.821196 316.772389 
L 513.144516 316.046131 
L 514.467836 331.48776 
L 515.791156 303.180989 
L 517.114476 331.48776 
L 518.437796 331.48776 
L 519.761117 283.606607 
L 521.084437 311.031493 
L 522.407757 312.484009 
L 523.731077 301.797641 
L 525.054397 307.019782 
L 526.377717 331.48776 
L 527.701038 331.48776 
L 529.024358 267.836433 
L 530.347678 309.89023 
L 531.670998 310.184192 
L 532.994318 315.095079 
L 534.317638 304.322252 
L 535.640958 331.48776 
L 536.964279 331.48776 
L 538.287599 275.237348 
L 539.610919 311.325454 
L 540.934239 314.680075 
L 542.257559 312.795262 
L 544.9042 331.48776 
L 546.22752 331.48776 
L 547.55084 289.658757 
L 548.87416 314.956744 
L 550.19748 316.288217 
L 551.5208 331.48776 
L 555.490761 331.48776 
L 556.814081 270.343753 
L 558.137401 310.962325 
L 559.460721 311.429205 
L 560.784042 331.48776 
L 564.754002 331.48776 
L 566.077322 249.195811 
L 567.400642 311.705875 
L 568.723962 303.630578 
L 570.047283 311.982545 
L 571.370603 313.79819 
L 572.693923 331.48776 
L 574.017243 331.48776 
L 575.340563 279.733231 
L 576.663883 317.89636 
L 577.987204 312.605052 
L 579.310524 315.907796 
L 580.633844 313.210267 
L 581.957164 331.48776 
L 584.603804 331.48776 
L 585.927125 286.131218 
L 587.250445 317.481355 
L 588.573765 315.75217 
L 589.897085 315.077787 
L 591.220405 331.48776 
L 592.543725 331.48776 
L 593.867045 296.5755 
L 595.190366 320.386387 
L 596.513686 320.887851 
L 597.837006 318.605326 
L 599.160326 319.660129 
L 600.483646 331.48776 
L 601.806966 331.48776 
L 603.130287 305.23872 
L 604.453607 327.424173 
L 605.776927 322.617037 
L 607.100247 321.33744 
L 608.423567 321.112645 
L 609.746887 331.48776 
L 611.070208 331.48776 
L 612.393528 310.512737 
L 613.716848 325.781447 
L 615.040168 323.550797 
L 616.363488 323.049333 
L 617.686808 323.879343 
L 619.010128 331.48776 
L 620.333449 331.48776 
L 621.656769 314.783826 
L 622.980089 326.559581 
L 624.303409 325.124356 
L 625.626729 324.242472 
L 626.950049 326.542289 
L 628.27337 331.48776 
L 629.59669 331.48776 
L 630.92001 317.049059 
L 632.24333 326.611456 
L 633.56665 323.602673 
L 634.88997 323.412462 
L 636.213291 323.931218 
L 637.536611 331.48776 
L 638.859931 331.48776 
L 640.183251 314.783826 
L 641.506571 326.974585 
L 642.829891 323.94851 
L 644.153211 323.844759 
L 645.476532 324.674768 
L 646.799852 331.48776 
L 648.123172 331.48776 
L 649.446492 316.616763 
L 650.769812 326.36937 
L 652.093132 325.988949 
L 653.416453 322.409535 
L 654.739773 324.88227 
L 656.063093 331.48776 
L 657.386413 331.48776 
L 658.709733 314.45528 
L 660.033053 326.940001 
L 661.356374 323.983094 
L 662.679694 324.017677 
L 664.003014 324.173304 
L 665.326334 331.48776 
L 666.649654 331.48776 
L 667.972974 314.195903 
L 669.296294 326.352078 
L 670.619615 323.343295 
L 671.942935 323.135793 
L 673.266255 323.101209 
L 674.589575 331.48776 
L 675.912895 331.48776 
L 677.236215 320.351804 
L 678.559536 325.504777 
L 679.882856 321.735152 
L 681.206176 322.513286 
L 682.529496 324.449974 
L 683.852816 331.48776 
L 685.176136 331.48776 
L 686.499457 315.613835 
L 687.822777 324.986022 
L 689.146097 323.256836 
L 690.469417 322.686204 
L 691.792737 321.752444 
L 693.116057 331.48776 
L 695.762698 331.48776 
L 697.086018 302.489315 
L 698.409338 323.239544 
L 699.732658 323.032042 
L 701.055978 324.41539 
L 702.379298 331.48776 
L 703.702619 331.48776 
L 705.025939 317.360312 
L 706.349259 324.709352 
L 707.672579 326.490413 
L 708.995899 324.899562 
L 710.319219 326.36937 
L 711.64254 331.48776 
L 712.96586 331.48776 
L 714.28918 320.490139 
L 715.6125 326.991877 
L 716.93582 324.899562 
L 718.25914 326.36937 
L 719.58246 326.490413 
L 720.905781 331.48776 
L 722.229101 331.48776 
L 723.552421 323.135793 
L 724.875741 326.991877 
L 726.199061 326.853542 
L 727.522381 328.254183 
L 728.845702 328.150431 
L 730.169022 331.48776 
L 731.492342 331.48776 
L 732.815662 325.072481 
L 734.138982 328.911273 
L 735.462302 328.807522 
L 736.785623 331.850889 
L 738.108943 328.824814 
L 739.432263 331.48776 
L 740.755583 331.48776 
L 742.078903 326.940001 
L 743.402223 329.948785 
L 744.725543 331.48776 
L 746.048864 327.839178 
L 747.372184 326.127284 
L 748.695504 331.48776 
L 750.018824 331.48776 
L 751.342144 328.340642 
L 752.665464 330.415665 
L 753.988785 330.138995 
L 755.312105 329.568364 
L 757.958745 331.48776 
L 760.605385 331.48776 
L 761.928706 329.741282 
L 763.252026 330.605875 
L 764.575346 330.778794 
L 765.898666 330.519416 
L 767.221986 331.48776 
L 768.545306 331.48776 
L 769.868626 330.069828 
L 771.191947 330.93442 
L 772.515267 330.675043 
L 775.161907 331.038172 
L 776.485227 331.48776 
L 777.808547 331.48776 
L 779.131868 330.450248 
L 780.455188 330.917129 
L 783.101828 331.038172 
L 784.425148 331.072755 
L 785.748468 331.48776 
L 787.071789 331.48776 
L 788.395109 330.692334 
L 789.718429 331.245674 
L 791.041749 330.830669 
L 792.365069 331.141923 
L 796.33503 331.48776 
L 797.65835 330.571291 
L 798.98167 331.107339 
L 800.30499 331.072755 
L 801.62831 331.401301 
L 802.95163 331.055463 
L 804.274951 331.48776 
L 806.921591 331.48776 
L 808.244911 330.536708 
L 809.568231 330.796086 
L 812.214872 331.816305 
L 813.538192 331.48776 
L 814.861512 331.48776 
L 816.184832 329.931493 
L 817.508152 331.090047 
L 818.831472 330.951712 
L 820.154792 330.554 
L 821.478113 330.726918 
L 822.801433 331.48776 
L 824.124753 331.48776 
L 825.448073 329.205235 
L 826.771393 330.363789 
L 828.094713 329.741282 
L 829.418034 330.00066 
L 830.741354 329.896909 
L 832.064674 331.48776 
L 833.387994 331.48776 
L 834.711314 327.164796 
L 836.034634 329.672115 
L 838.681275 328.04668 
L 840.004595 328.271474 
L 841.327915 331.48776 
L 842.651235 331.48776 
L 843.974555 323.689132 
L 845.297875 328.115848 
L 846.621196 326.265619 
L 847.944516 327.337714 
L 849.267836 326.334786 
L 850.591156 331.48776 
L 853.237796 331.48776 
L 854.561117 319.141374 
L 855.884437 326.559581 
L 857.207757 325.193524 
L 858.531077 324.553725 
L 859.854397 331.48776 
L 861.177717 331.48776 
L 862.501038 319.487211 
L 863.824358 325.764155 
L 865.147678 324.484558 
L 866.470998 325.677696 
L 867.794318 325.349151 
L 869.117638 331.48776 
L 870.440958 331.48776 
L 871.764279 320.7841 
L 873.087599 327.406882 
L 874.410919 324.864978 
L 875.734239 325.349151 
L 877.057559 324.605601 
L 878.380879 331.48776 
L 879.7042 331.48776 
L 881.02752 320.697641 
L 882.35084 326.438538 
L 884.99748 324.242472 
L 886.3208 325.366442 
L 887.644121 331.48776 
L 890.290761 331.48776 
L 891.614081 315.821337 
L 892.937401 330.156287 
L 894.260721 318.881996 
L 895.584042 324.657476 
L 896.907362 331.48776 
L 898.230682 331.48776 
L 899.554002 314.852993 
L 900.877322 323.983094 
L 902.200642 324.432682 
L 903.523962 325.919782 
L 904.847283 323.291419 
L 906.170603 331.48776 
L 907.493923 331.48776 
L 908.817243 315.907796 
L 910.140563 325.677696 
L 911.463883 353.2755 
L 912.787204 299.203862 
L 914.110524 324.449974 
L 915.433844 331.48776 
L 916.757164 331.48776 
L 918.080484 318.501575 
L 919.403804 326.300203 
L 920.727125 326.075409 
L 922.050445 326.352078 
L 923.373765 325.297275 
L 924.697085 331.48776 
L 926.020405 331.48776 
L 927.343725 320.455555 
L 928.667045 327.233963 
L 929.990366 325.71228 
L 931.313686 327.441465 
L 932.637006 324.588309 
L 933.960326 331.48776 
L 936.606966 331.48776 
L 937.930287 315.631127 
L 939.253607 326.473121 
L 940.576927 326.075409 
L 941.900247 326.040825 
L 943.223567 331.48776 
L 944.546887 331.48776 
L 945.870208 320.299928 
L 947.193528 327.545216 
L 948.516848 327.545216 
L 949.840168 326.36937 
L 951.163488 328.13314 
L 952.486808 331.48776 
L 953.810128 331.48776 
L 955.133449 323.48163 
L 956.456769 328.288766 
L 957.780089 326.974585 
L 959.103409 326.92271 
L 960.426729 327.441465 
L 961.750049 331.48776 
L 963.07337 331.48776 
L 964.39669 321.838903 
L 965.72001 327.614384 
L 967.04333 326.282911 
L 968.36665 325.937074 
L 969.68997 326.818958 
L 971.013291 331.48776 
L 972.336611 331.48776 
L 973.659931 318.415116 
L 974.983251 325.608528 
L 976.306571 326.109992 
L 977.629891 331.48776 
L 978.953211 318.155738 
L 980.276532 331.48776 
L 981.599852 331.48776 
L 982.923172 314.835701 
L 984.246492 321.856195 
L 985.569812 323.239544 
L 986.893132 322.063698 
L 988.216453 321.320148 
L 989.539773 331.48776 
L 990.863093 331.48776 
L 992.186413 311.705875 
L 993.509733 321.043478 
L 994.833053 324.121429 
L 996.156374 331.48776 
L 1000.126334 331.48776 
L 1001.449654 289.745216 
L 1002.772974 317.861776 
L 1004.096294 314.576323 
L 1005.419615 314.662783 
L 1006.742935 311.705875 
L 1008.066255 331.48776 
L 1009.389575 331.48776 
L 1010.712895 295.330486 
L 1012.036215 312.691511 
L 1013.359536 319.504503 
L 1014.682856 306.103313 
L 1016.006176 312.847138 
L 1017.329496 331.48776 
L 1018.652816 331.48776 
L 1019.976136 289.416671 
L 1021.299457 309.942106 
L 1022.622777 307.227284 
L 1023.946097 310.754823 
L 1025.269417 310.789407 
L 1026.592737 331.48776 
L 1027.916057 331.48776 
L 1029.239377 262.977421 
L 1030.562698 313.936525 
L 1031.886018 300.172206 
L 1033.209338 302.316397 
L 1034.532658 331.48776 
L 1038.502619 331.48776 
L 1039.825939 214.64668 
L 1041.149259 276.27486 
L 1042.472579 263.738263 
L 1043.795899 331.48776 
L 1047.76586 331.48776 
L 1049.08918 50.8755 
L 1050.4125 230.019141 
L 1051.73582 211.862691 
L 1053.05914 228.497458 
L 1054.38246 331.48776 
L 1055.705781 331.48776 
L 1057.029101 93.465344 
L 1058.352421 243.714292 
L 1059.675741 232.457293 
L 1060.999061 233.442929 
L 1062.322381 231.108528 
L 1063.645702 331.48776 
L 1064.969022 331.48776 
L 1066.292342 131.057842 
L 1067.615662 268.476232 
L 1068.938982 274.891511 
L 1070.262302 268.943112 
L 1071.585623 281.77367 
L 1072.908943 331.48776 
L 1074.232263 331.48776 
L 1075.555583 230.295811 
L 1076.878903 303.474951 
L 1078.202223 278.263423 
L 1079.525543 298.425729 
L 1080.848864 299.73991 
L 1082.172184 331.48776 
L 1083.495504 331.48776 
L 1084.818824 290.471474 
L 1086.142144 313.123807 
L 1087.465464 314.282362 
L 1088.788785 310.651072 
L 1090.112105 316.616763 
L 1091.435425 331.48776 
L 1092.758745 331.48776 
L 1094.082065 303.855372 
L 1095.405385 321.441191 
L 1096.728706 320.50743 
L 1098.052026 320.7841 
L 1099.375346 322.668913 
L 1100.698666 331.48776 
L 1102.021986 331.48776 
L 1103.345306 315.060495 
L 1104.668626 327.095628 
L 1107.315267 324.588309 
L 1108.638587 326.83625 
L 1109.961907 331.48776 
L 1111.285227 331.48776 
L 1112.608547 321.596817 
L 1113.931868 328.029388 
L 1115.255188 328.081264 
L 1116.578508 326.64604 
L 1117.901828 327.770011 
L 1119.225148 331.48776 
L 1120.548468 331.48776 
L 1121.871789 324.294347 
L 1123.195109 328.548144 
L 1124.518429 325.591237 
L 1125.841749 328.185015 
L 1127.165069 328.79023 
L 1128.488389 331.48776 
L 1129.811709 331.48776 
L 1131.13503 325.383734 
L 1132.45835 329.239818 
L 1133.78167 328.478977 
L 1135.10499 327.908345 
L 1136.42831 328.807522 
L 1137.75163 331.48776 
L 1139.074951 331.48776 
L 1140.398271 324.449974 
L 1141.721591 327.683551 
L 1143.044911 327.891054 
L 1144.368231 327.285839 
L 1145.691551 328.306058 
L 1147.014872 331.48776 
L 1148.338192 331.48776 
L 1149.661512 324.467266 
L 1150.984832 329.0669 
L 1152.308152 327.804594 
L 1153.631472 328.150431 
L 1154.954792 328.79023 
L 1156.278113 331.48776 
L 1157.601433 331.48776 
L 1158.924753 324.190596 
L 1160.248073 328.634603 
L 1161.571393 328.029388 
L 1162.894713 326.248327 
L 1164.218034 327.233963 
L 1165.541354 331.48776 
L 1166.864674 331.48776 
L 1168.187994 322.980166 
L 1169.511314 326.870834 
L 1170.834634 325.124356 
L 1172.157955 324.605601 
L 1173.481275 325.62582 
L 1174.804595 331.48776 
L 1176.127915 331.48776 
L 1177.451235 317.446772 
L 1178.774555 323.464338 
L 1180.097875 325.245399 
L 1181.421196 322.167449 
L 1182.744516 325.746863 
L 1184.067836 331.48776 
L 1185.391156 331.48776 
L 1186.714476 316.616763 
L 1188.037796 325.349151 
L 1189.361117 325.988949 
L 1190.684437 323.032042 
L 1192.007757 325.539361 
L 1193.331077 331.48776 
L 1194.654397 331.48776 
L 1195.977717 314.403405 
L 1197.301038 323.032042 
L 1198.624358 322.167449 
L 1199.947678 320.109718 
L 1201.270998 319.227833 
L 1202.594318 331.48776 
L 1203.917638 331.48776 
L 1205.240958 310.097732 
L 1206.564279 321.614109 
L 1207.887599 318.622618 
L 1209.210919 315.267998 
L 1210.534239 318.034695 
L 1211.857559 331.48776 
L 1213.180879 331.48776 
L 1214.5042 302.454731 
L 1215.82752 316.824265 
L 1217.15084 314.368821 
L 1218.47416 314.714658 
L 1219.79748 316.149882 
L 1221.1208 331.48776 
L 1222.444121 331.48776 
L 1223.767441 297.97614 
L 1225.090761 314.576323 
L 1226.414081 314.783826 
L 1227.737401 313.452353 
L 1229.060721 316.149882 
L 1230.384042 331.48776 
L 1231.707362 331.48776 
L 1233.030682 305.498098 
L 1234.354002 319.054914 
L 1235.677322 321.181813 
L 1237.000642 318.726369 
L 1238.323962 320.490139 
L 1239.647283 331.48776 
L 1242.293923 331.48776 
L 1243.617243 305.290596 
L 1244.940563 320.680349 
L 1246.263883 323.308711 
L 1247.587204 319.642838 
L 1248.910524 331.48776 
L 1250.233844 331.48776 
L 1251.557164 317.014475 
L 1252.880484 322.236616 
L 1254.203804 324.847687 
L 1255.527125 323.810175 
L 1256.850445 324.328931 
L 1258.173765 331.48776 
L 1259.497085 331.48776 
L 1260.820405 321.614109 
L 1262.143725 323.118501 
L 1263.467045 324.916854 
L 1264.790366 325.279983 
L 1266.113686 326.282911 
L 1267.437006 331.48776 
L 1268.760326 331.48776 
L 1270.083646 321.493066 
L 1271.406966 326.161868 
L 1272.730287 326.542289 
L 1274.053607 324.916854 
L 1275.376927 326.749791 
L 1276.700247 331.48776 
L 1278.023567 331.48776 
L 1279.346887 321.458483 
L 1280.670208 325.677696 
L 1281.993528 325.487485 
L 1283.316848 324.605601 
L 1284.640168 326.594164 
L 1285.963488 331.48776 
L 1288.610128 331.48776 
L 1289.933449 320.680349 
L 1291.256769 326.663332 
L 1292.580089 327.199379 
L 1293.903409 324.571017 
L 1295.226729 331.48776 
L 1297.87337 331.48776 
L 1299.19669 314.45528 
L 1300.52001 324.830395 
L 1301.84333 325.487485 
L 1303.16665 325.487485 
L 1304.48997 331.48776 
L 1305.813291 331.48776 
L 1307.136611 320.403679 
L 1307.136611 320.403679 
" clip-path="url(#pd1a118c66f)" style="fill: none; stroke: #0000ff; stroke-width: 1.5; stroke-linecap: square"/>
   </g>
   <g id="line2d_20">
    <path d="M 1067.615662 254.854153 
L 1068.938982 249.346427 
L 1070.262302 251.464835 
L 1071.585623 309.544383 
L 1072.908943 307.600058 
L 1074.232263 221.437654 
L 1075.555583 272.226318 
L 1076.878903 291.377686 
L 1078.202223 293.062835 
L 1079.525543 302.259184 
L 1080.848864 318.441209 
L 1082.172184 323.872959 
L 1083.495504 276.469264 
L 1084.818824 318.090999 
L 1086.142144 295.381452 
L 1087.465464 310.012589 
L 1088.788785 310.383663 
L 1090.112105 330.456959 
L 1091.435425 327.215177 
L 1092.758745 314.567855 
L 1094.082065 319.256988 
L 1095.405385 325.914855 
L 1096.728706 317.920058 
L 1098.052026 323.760413 
L 1099.375346 327.753478 
L 1100.698666 329.126527 
L 1102.021986 313.057342 
L 1103.345306 325.806075 
L 1104.668626 322.210838 
L 1105.991947 324.986107 
L 1107.315267 325.709467 
L 1108.638587 330.341885 
L 1109.961907 329.993277 
L 1111.285227 323.536686 
L 1112.608547 328.850446 
L 1113.931868 328.72046 
L 1115.255188 326.612866 
L 1117.901828 330.375846 
L 1119.225148 330.172233 
L 1120.548468 325.225499 
L 1121.871789 328.895173 
L 1124.518429 328.061034 
L 1125.841749 327.985382 
L 1127.165069 329.701955 
L 1128.488389 330.286667 
L 1129.811709 326.496368 
L 1131.13503 329.09008 
L 1132.45835 326.593373 
L 1133.78167 328.391849 
L 1136.42831 330.714201 
L 1137.75163 330.183862 
L 1139.074951 327.270733 
L 1140.398271 329.934779 
L 1141.721591 329.498673 
L 1143.044911 327.814393 
L 1144.368231 328.513591 
L 1145.691551 329.782681 
L 1147.014872 329.649989 
L 1148.338192 325.720509 
L 1149.661512 328.010374 
L 1150.984832 327.594261 
L 1152.308152 327.548309 
L 1153.631472 328.627167 
L 1154.954792 330.133508 
L 1156.278113 330.301592 
L 1157.601433 326.561005 
L 1158.924753 329.944279 
L 1160.248073 328.466976 
L 1161.571393 328.277954 
L 1164.218034 329.990887 
L 1165.541354 329.306156 
L 1166.864674 325.573555 
L 1168.187994 328.726846 
L 1169.511314 327.883883 
L 1170.834634 326.050625 
L 1172.157955 326.752618 
L 1173.481275 328.849177 
L 1174.804595 328.64971 
L 1176.127915 323.937487 
L 1177.451235 327.431729 
L 1178.774555 324.741842 
L 1180.097875 323.321036 
L 1181.421196 325.303315 
L 1182.744516 328.075066 
L 1184.067836 327.451444 
L 1185.391156 319.691094 
L 1186.714476 324.386832 
L 1188.037796 325.172917 
L 1189.361117 322.645425 
L 1190.684437 326.248328 
L 1192.007757 328.790282 
L 1193.331077 328.594398 
L 1194.654397 320.814567 
L 1195.977717 327.421754 
L 1197.301038 325.984171 
L 1198.624358 323.311729 
L 1199.947678 324.957588 
L 1201.270998 327.500107 
L 1202.594318 326.019293 
L 1203.917638 316.347368 
L 1205.240958 323.601815 
L 1206.564279 320.785088 
L 1207.887599 318.875636 
L 1209.210919 319.363562 
L 1210.534239 325.506208 
L 1211.857559 324.969673 
L 1213.180879 313.593479 
L 1214.5042 322.923439 
L 1217.15084 314.253053 
L 1218.47416 317.904171 
L 1219.79748 324.366296 
L 1221.1208 323.790225 
L 1222.444121 306.963764 
L 1223.767441 318.525165 
L 1225.090761 314.820225 
L 1226.414081 313.943325 
L 1227.737401 316.534293 
L 1229.060721 324.296219 
L 1230.384042 323.51334 
L 1231.707362 305.682671 
L 1233.030682 317.215161 
L 1234.354002 316.938727 
L 1235.677322 315.379635 
L 1237.000642 318.927241 
L 1238.323962 327.551417 
L 1239.647283 327.417168 
L 1240.970603 315.025003 
L 1243.617243 327.849979 
L 1244.940563 324.353287 
L 1246.263883 319.838667 
L 1247.587204 329.805512 
L 1248.910524 327.65744 
L 1250.233844 331.523095 
L 1251.557164 312.96551 
L 1252.880484 319.124795 
L 1254.203804 321.958421 
L 1255.527125 323.979378 
L 1256.850445 327.557018 
L 1258.173765 328.578608 
L 1259.497085 317.554455 
L 1260.820405 328.220317 
L 1262.143725 328.042533 
L 1263.467045 325.780439 
L 1264.790366 325.567658 
L 1266.113686 329.70281 
L 1267.437006 329.276265 
L 1268.760326 325.908601 
L 1270.083646 324.654787 
L 1272.730287 325.716799 
L 1275.376927 329.365088 
L 1276.700247 329.154987 
L 1278.023567 323.461978 
L 1279.346887 328.269366 
L 1280.670208 327.572075 
L 1281.993528 325.501063 
L 1283.316848 326.756174 
L 1284.640168 329.07442 
L 1285.963488 328.869361 
L 1287.286808 323.781439 
L 1289.933449 327.459632 
L 1291.256769 326.669338 
L 1292.580089 326.065533 
L 1293.903409 330.966146 
L 1295.226729 329.710375 
L 1296.550049 331.223243 
L 1297.87337 323.723889 
L 1299.19669 328.472707 
L 1300.52001 327.141462 
L 1301.84333 323.765835 
L 1303.16665 328.742254 
L 1304.48997 328.096623 
L 1305.813291 328.159572 
L 1307.136611 319.587135 
L 1307.136611 319.587135 
" clip-path="url(#pd1a118c66f)" style="fill: none; stroke: #ffa500; stroke-width: 1.5; stroke-linecap: square"/>
   </g>
   <g id="line2d_21">
    <path d="M 1307.136611 319.587135 
L 1308.459931 323.979561 
L 1309.783251 323.621141 
L 1311.106571 326.089763 
L 1312.429891 327.852484 
L 1313.753211 328.217311 
L 1315.076532 320.34138 
L 1316.399852 322.605074 
L 1317.723172 324.057325 
L 1319.046492 323.623615 
L 1320.369812 325.188648 
L 1321.693132 325.552479 
L 1323.016453 325.789859 
L 1324.339773 322.54124 
" clip-path="url(#pd1a118c66f)" style="fill: none; stroke: #ff0000; stroke-width: 1.5; stroke-linecap: square"/>
   </g>
   <g id="patch_3">
    <path d="M 46.0125 368.3955 
L 46.0125 35.7555 
" style="fill: none; stroke: #000000; stroke-width: 0.8; stroke-linejoin: miter; stroke-linecap: square"/>
   </g>
   <g id="patch_4">
    <path d="M 1385.2125 368.3955 
L 1385.2125 35.7555 
" style="fill: none; stroke: #000000; stroke-width: 0.8; stroke-linejoin: miter; stroke-linecap: square"/>
   </g>
   <g id="patch_5">
    <path d="M 46.0125 368.3955 
L 1385.2125 368.3955 
" style="fill: none; stroke: #000000; stroke-width: 0.8; stroke-linejoin: miter; stroke-linecap: square"/>
   </g>
   <g id="patch_6">
    <path d="M 46.0125 35.7555 
L 1385.2125 35.7555 
" style="fill: none; stroke: #000000; stroke-width: 0.8; stroke-linejoin: miter; stroke-linecap: square"/>
   </g>
   <g id="text_19">
    <!-- Daily Confirmed Cases Forecasting - Rhode Island -->
    <g transform="translate(566.210625 16.318125)scale(0.12 -0.12)">
     <defs>
      <path id="DejaVuSans-44" d="M 1259 4147 
L 1259 519 
L 2022 519 
Q 2988 519 3436 956 
Q 3884 1394 3884 2338 
Q 3884 3275 3436 3711 
Q 2988 4147 2022 4147 
L 1259 4147 
z
M 628 4666 
L 1925 4666 
Q 3281 4666 3915 4102 
Q 4550 3538 4550 2338 
Q 4550 1131 3912 565 
Q 3275 0 1925 0 
L 628 0 
L 628 4666 
z
" transform="scale(0.015625)"/>
      <path id="DejaVuSans-61" d="M 2194 1759 
Q 1497 1759 1228 1600 
Q 959 1441 959 1056 
Q 959 750 1161 570 
Q 1363 391 1709 391 
Q 2188 391 2477 730 
Q 2766 1069 2766 1631 
L 2766 1759 
L 2194 1759 
z
M 3341 1997 
L 3341 0 
L 2766 0 
L 2766 531 
Q 2569 213 2275 61 
Q 1981 -91 1556 -91 
Q 1019 -91 701 211 
Q 384 513 384 1019 
Q 384 1609 779 1909 
Q 1175 2209 1959 2209 
L 2766 2209 
L 2766 2266 
Q 2766 2663 2505 2880 
Q 2244 3097 1772 3097 
Q 1472 3097 1187 3025 
Q 903 2953 641 2809 
L 641 3341 
Q 956 3463 1253 3523 
Q 1550 3584 1831 3584 
Q 2591 3584 2966 3190 
Q 3341 2797 3341 1997 
z
" transform="scale(0.015625)"/>
      <path id="DejaVuSans-69" d="M 603 3500 
L 1178 3500 
L 1178 0 
L 603 0 
L 603 3500 
z
M 603 4863 
L 1178 4863 
L 1178 4134 
L 603 4134 
L 603 4863 
z
" transform="scale(0.015625)"/>
      <path id="DejaVuSans-6c" d="M 603 4863 
L 1178 4863 
L 1178 0 
L 603 0 
L 603 4863 
z
" transform="scale(0.015625)"/>
      <path id="DejaVuSans-79" d="M 2059 -325 
Q 1816 -950 1584 -1140 
Q 1353 -1331 966 -1331 
L 506 -1331 
L 506 -850 
L 844 -850 
Q 1081 -850 1212 -737 
Q 1344 -625 1503 -206 
L 1606 56 
L 191 3500 
L 800 3500 
L 1894 763 
L 2988 3500 
L 3597 3500 
L 2059 -325 
z
" transform="scale(0.015625)"/>
      <path id="DejaVuSans-20" transform="scale(0.015625)"/>
      <path id="DejaVuSans-43" d="M 4122 4306 
L 4122 3641 
Q 3803 3938 3442 4084 
Q 3081 4231 2675 4231 
Q 1875 4231 1450 3742 
Q 1025 3253 1025 2328 
Q 1025 1406 1450 917 
Q 1875 428 2675 428 
Q 3081 428 3442 575 
Q 3803 722 4122 1019 
L 4122 359 
Q 3791 134 3420 21 
Q 3050 -91 2638 -91 
Q 1578 -91 968 557 
Q 359 1206 359 2328 
Q 359 3453 968 4101 
Q 1578 4750 2638 4750 
Q 3056 4750 3426 4639 
Q 3797 4528 4122 4306 
z
" transform="scale(0.015625)"/>
      <path id="DejaVuSans-6f" d="M 1959 3097 
Q 1497 3097 1228 2736 
Q 959 2375 959 1747 
Q 959 1119 1226 758 
Q 1494 397 1959 397 
Q 2419 397 2687 759 
Q 2956 1122 2956 1747 
Q 2956 2369 2687 2733 
Q 2419 3097 1959 3097 
z
M 1959 3584 
Q 2709 3584 3137 3096 
Q 3566 2609 3566 1747 
Q 3566 888 3137 398 
Q 2709 -91 1959 -91 
Q 1206 -91 779 398 
Q 353 888 353 1747 
Q 353 2609 779 3096 
Q 1206 3584 1959 3584 
z
" transform="scale(0.015625)"/>
      <path id="DejaVuSans-6e" d="M 3513 2113 
L 3513 0 
L 2938 0 
L 2938 2094 
Q 2938 2591 2744 2837 
Q 2550 3084 2163 3084 
Q 1697 3084 1428 2787 
Q 1159 2491 1159 1978 
L 1159 0 
L 581 0 
L 581 3500 
L 1159 3500 
L 1159 2956 
Q 1366 3272 1645 3428 
Q 1925 3584 2291 3584 
Q 2894 3584 3203 3211 
Q 3513 2838 3513 2113 
z
" transform="scale(0.015625)"/>
      <path id="DejaVuSans-66" d="M 2375 4863 
L 2375 4384 
L 1825 4384 
Q 1516 4384 1395 4259 
Q 1275 4134 1275 3809 
L 1275 3500 
L 2222 3500 
L 2222 3053 
L 1275 3053 
L 1275 0 
L 697 0 
L 697 3053 
L 147 3053 
L 147 3500 
L 697 3500 
L 697 3744 
Q 697 4328 969 4595 
Q 1241 4863 1831 4863 
L 2375 4863 
z
" transform="scale(0.015625)"/>
      <path id="DejaVuSans-72" d="M 2631 2963 
Q 2534 3019 2420 3045 
Q 2306 3072 2169 3072 
Q 1681 3072 1420 2755 
Q 1159 2438 1159 1844 
L 1159 0 
L 581 0 
L 581 3500 
L 1159 3500 
L 1159 2956 
Q 1341 3275 1631 3429 
Q 1922 3584 2338 3584 
Q 2397 3584 2469 3576 
Q 2541 3569 2628 3553 
L 2631 2963 
z
" transform="scale(0.015625)"/>
      <path id="DejaVuSans-6d" d="M 3328 2828 
Q 3544 3216 3844 3400 
Q 4144 3584 4550 3584 
Q 5097 3584 5394 3201 
Q 5691 2819 5691 2113 
L 5691 0 
L 5113 0 
L 5113 2094 
Q 5113 2597 4934 2840 
Q 4756 3084 4391 3084 
Q 3944 3084 3684 2787 
Q 3425 2491 3425 1978 
L 3425 0 
L 2847 0 
L 2847 2094 
Q 2847 2600 2669 2842 
Q 2491 3084 2119 3084 
Q 1678 3084 1418 2786 
Q 1159 2488 1159 1978 
L 1159 0 
L 581 0 
L 581 3500 
L 1159 3500 
L 1159 2956 
Q 1356 3278 1631 3431 
Q 1906 3584 2284 3584 
Q 2666 3584 2933 3390 
Q 3200 3197 3328 2828 
z
" transform="scale(0.015625)"/>
      <path id="DejaVuSans-65" d="M 3597 1894 
L 3597 1613 
L 953 1613 
Q 991 1019 1311 708 
Q 1631 397 2203 397 
Q 2534 397 2845 478 
Q 3156 559 3463 722 
L 3463 178 
Q 3153 47 2828 -22 
Q 2503 -91 2169 -91 
Q 1331 -91 842 396 
Q 353 884 353 1716 
Q 353 2575 817 3079 
Q 1281 3584 2069 3584 
Q 2775 3584 3186 3129 
Q 3597 2675 3597 1894 
z
M 3022 2063 
Q 3016 2534 2758 2815 
Q 2500 3097 2075 3097 
Q 1594 3097 1305 2825 
Q 1016 2553 972 2059 
L 3022 2063 
z
" transform="scale(0.015625)"/>
      <path id="DejaVuSans-64" d="M 2906 2969 
L 2906 4863 
L 3481 4863 
L 3481 0 
L 2906 0 
L 2906 525 
Q 2725 213 2448 61 
Q 2172 -91 1784 -91 
Q 1150 -91 751 415 
Q 353 922 353 1747 
Q 353 2572 751 3078 
Q 1150 3584 1784 3584 
Q 2172 3584 2448 3432 
Q 2725 3281 2906 2969 
z
M 947 1747 
Q 947 1113 1208 752 
Q 1469 391 1925 391 
Q 2381 391 2643 752 
Q 2906 1113 2906 1747 
Q 2906 2381 2643 2742 
Q 2381 3103 1925 3103 
Q 1469 3103 1208 2742 
Q 947 2381 947 1747 
z
" transform="scale(0.015625)"/>
      <path id="DejaVuSans-73" d="M 2834 3397 
L 2834 2853 
Q 2591 2978 2328 3040 
Q 2066 3103 1784 3103 
Q 1356 3103 1142 2972 
Q 928 2841 928 2578 
Q 928 2378 1081 2264 
Q 1234 2150 1697 2047 
L 1894 2003 
Q 2506 1872 2764 1633 
Q 3022 1394 3022 966 
Q 3022 478 2636 193 
Q 2250 -91 1575 -91 
Q 1294 -91 989 -36 
Q 684 19 347 128 
L 347 722 
Q 666 556 975 473 
Q 1284 391 1588 391 
Q 1994 391 2212 530 
Q 2431 669 2431 922 
Q 2431 1156 2273 1281 
Q 2116 1406 1581 1522 
L 1381 1569 
Q 847 1681 609 1914 
Q 372 2147 372 2553 
Q 372 3047 722 3315 
Q 1072 3584 1716 3584 
Q 2034 3584 2315 3537 
Q 2597 3491 2834 3397 
z
" transform="scale(0.015625)"/>
      <path id="DejaVuSans-46" d="M 628 4666 
L 3309 4666 
L 3309 4134 
L 1259 4134 
L 1259 2759 
L 3109 2759 
L 3109 2228 
L 1259 2228 
L 1259 0 
L 628 0 
L 628 4666 
z
" transform="scale(0.015625)"/>
      <path id="DejaVuSans-63" d="M 3122 3366 
L 3122 2828 
Q 2878 2963 2633 3030 
Q 2388 3097 2138 3097 
Q 1578 3097 1268 2742 
Q 959 2388 959 1747 
Q 959 1106 1268 751 
Q 1578 397 2138 397 
Q 2388 397 2633 464 
Q 2878 531 3122 666 
L 3122 134 
Q 2881 22 2623 -34 
Q 2366 -91 2075 -91 
Q 1284 -91 818 406 
Q 353 903 353 1747 
Q 353 2603 823 3093 
Q 1294 3584 2113 3584 
Q 2378 3584 2631 3529 
Q 2884 3475 3122 3366 
z
" transform="scale(0.015625)"/>
      <path id="DejaVuSans-74" d="M 1172 4494 
L 1172 3500 
L 2356 3500 
L 2356 3053 
L 1172 3053 
L 1172 1153 
Q 1172 725 1289 603 
Q 1406 481 1766 481 
L 2356 481 
L 2356 0 
L 1766 0 
Q 1100 0 847 248 
Q 594 497 594 1153 
L 594 3053 
L 172 3053 
L 172 3500 
L 594 3500 
L 594 4494 
L 1172 4494 
z
" transform="scale(0.015625)"/>
      <path id="DejaVuSans-67" d="M 2906 1791 
Q 2906 2416 2648 2759 
Q 2391 3103 1925 3103 
Q 1463 3103 1205 2759 
Q 947 2416 947 1791 
Q 947 1169 1205 825 
Q 1463 481 1925 481 
Q 2391 481 2648 825 
Q 2906 1169 2906 1791 
z
M 3481 434 
Q 3481 -459 3084 -895 
Q 2688 -1331 1869 -1331 
Q 1566 -1331 1297 -1286 
Q 1028 -1241 775 -1147 
L 775 -588 
Q 1028 -725 1275 -790 
Q 1522 -856 1778 -856 
Q 2344 -856 2625 -561 
Q 2906 -266 2906 331 
L 2906 616 
Q 2728 306 2450 153 
Q 2172 0 1784 0 
Q 1141 0 747 490 
Q 353 981 353 1791 
Q 353 2603 747 3093 
Q 1141 3584 1784 3584 
Q 2172 3584 2450 3431 
Q 2728 3278 2906 2969 
L 2906 3500 
L 3481 3500 
L 3481 434 
z
" transform="scale(0.015625)"/>
      <path id="DejaVuSans-52" d="M 2841 2188 
Q 3044 2119 3236 1894 
Q 3428 1669 3622 1275 
L 4263 0 
L 3584 0 
L 2988 1197 
Q 2756 1666 2539 1819 
Q 2322 1972 1947 1972 
L 1259 1972 
L 1259 0 
L 628 0 
L 628 4666 
L 2053 4666 
Q 2853 4666 3247 4331 
Q 3641 3997 3641 3322 
Q 3641 2881 3436 2590 
Q 3231 2300 2841 2188 
z
M 1259 4147 
L 1259 2491 
L 2053 2491 
Q 2509 2491 2742 2702 
Q 2975 2913 2975 3322 
Q 2975 3731 2742 3939 
Q 2509 4147 2053 4147 
L 1259 4147 
z
" transform="scale(0.015625)"/>
      <path id="DejaVuSans-68" d="M 3513 2113 
L 3513 0 
L 2938 0 
L 2938 2094 
Q 2938 2591 2744 2837 
Q 2550 3084 2163 3084 
Q 1697 3084 1428 2787 
Q 1159 2491 1159 1978 
L 1159 0 
L 581 0 
L 581 4863 
L 1159 4863 
L 1159 2956 
Q 1366 3272 1645 3428 
Q 1925 3584 2291 3584 
Q 2894 3584 3203 3211 
Q 3513 2838 3513 2113 
z
" transform="scale(0.015625)"/>
      <path id="DejaVuSans-49" d="M 628 4666 
L 1259 4666 
L 1259 0 
L 628 0 
L 628 4666 
z
" transform="scale(0.015625)"/>
     </defs>
     <use xlink:href="#DejaVuSans-44"/>
     <use xlink:href="#DejaVuSans-61" x="77.001953"/>
     <use xlink:href="#DejaVuSans-69" x="138.28125"/>
     <use xlink:href="#DejaVuSans-6c" x="166.064453"/>
     <use xlink:href="#DejaVuSans-79" x="193.847656"/>
     <use xlink:href="#DejaVuSans-20" x="253.027344"/>
     <use xlink:href="#DejaVuSans-43" x="284.814453"/>
     <use xlink:href="#DejaVuSans-6f" x="354.638672"/>
     <use xlink:href="#DejaVuSans-6e" x="415.820312"/>
     <use xlink:href="#DejaVuSans-66" x="479.199219"/>
     <use xlink:href="#DejaVuSans-69" x="514.404297"/>
     <use xlink:href="#DejaVuSans-72" x="542.1875"/>
     <use xlink:href="#DejaVuSans-6d" x="581.550781"/>
     <use xlink:href="#DejaVuSans-65" x="678.962891"/>
     <use xlink:href="#DejaVuSans-64" x="740.486328"/>
     <use xlink:href="#DejaVuSans-20" x="803.962891"/>
     <use xlink:href="#DejaVuSans-43" x="835.75"/>
     <use xlink:href="#DejaVuSans-61" x="905.574219"/>
     <use xlink:href="#DejaVuSans-73" x="966.853516"/>
     <use xlink:href="#DejaVuSans-65" x="1018.953125"/>
     <use xlink:href="#DejaVuSans-73" x="1080.476562"/>
     <use xlink:href="#DejaVuSans-20" x="1132.576172"/>
     <use xlink:href="#DejaVuSans-46" x="1164.363281"/>
     <use xlink:href="#DejaVuSans-6f" x="1218.257812"/>
     <use xlink:href="#DejaVuSans-72" x="1279.439453"/>
     <use xlink:href="#DejaVuSans-65" x="1318.302734"/>
     <use xlink:href="#DejaVuSans-63" x="1379.826172"/>
     <use xlink:href="#DejaVuSans-61" x="1434.806641"/>
     <use xlink:href="#DejaVuSans-73" x="1496.085938"/>
     <use xlink:href="#DejaVuSans-74" x="1548.185547"/>
     <use xlink:href="#DejaVuSans-69" x="1587.394531"/>
     <use xlink:href="#DejaVuSans-6e" x="1615.177734"/>
     <use xlink:href="#DejaVuSans-67" x="1678.556641"/>
     <use xlink:href="#DejaVuSans-20" x="1742.033203"/>
     <use xlink:href="#DejaVuSans-2d" x="1773.820312"/>
     <use xlink:href="#DejaVuSans-20" x="1809.904297"/>
     <use xlink:href="#DejaVuSans-52" x="1841.691406"/>
     <use xlink:href="#DejaVuSans-68" x="1911.173828"/>
     <use xlink:href="#DejaVuSans-6f" x="1974.552734"/>
     <use xlink:href="#DejaVuSans-64" x="2035.734375"/>
     <use xlink:href="#DejaVuSans-65" x="2099.210938"/>
     <use xlink:href="#DejaVuSans-20" x="2160.734375"/>
     <use xlink:href="#DejaVuSans-49" x="2192.521484"/>
     <use xlink:href="#DejaVuSans-73" x="2222.013672"/>
     <use xlink:href="#DejaVuSans-6c" x="2274.113281"/>
     <use xlink:href="#DejaVuSans-61" x="2301.896484"/>
     <use xlink:href="#DejaVuSans-6e" x="2363.175781"/>
     <use xlink:href="#DejaVuSans-64" x="2426.554688"/>
    </g>
    <!-- ARIMA (4, 1, 1)x(1, 0, 1, 7) (R2 = 0.065196) -->
    <g transform="translate(583.628438 29.7555)scale(0.12 -0.12)">
     <defs>
      <path id="DejaVuSans-41" d="M 2188 4044 
L 1331 1722 
L 3047 1722 
L 2188 4044 
z
M 1831 4666 
L 2547 4666 
L 4325 0 
L 3669 0 
L 3244 1197 
L 1141 1197 
L 716 0 
L 50 0 
L 1831 4666 
z
" transform="scale(0.015625)"/>
      <path id="DejaVuSans-4d" d="M 628 4666 
L 1569 4666 
L 2759 1491 
L 3956 4666 
L 4897 4666 
L 4897 0 
L 4281 0 
L 4281 4097 
L 3078 897 
L 2444 897 
L 1241 4097 
L 1241 0 
L 628 0 
L 628 4666 
z
" transform="scale(0.015625)"/>
      <path id="DejaVuSans-28" d="M 1984 4856 
Q 1566 4138 1362 3434 
Q 1159 2731 1159 2009 
Q 1159 1288 1364 580 
Q 1569 -128 1984 -844 
L 1484 -844 
Q 1016 -109 783 600 
Q 550 1309 550 2009 
Q 550 2706 781 3412 
Q 1013 4119 1484 4856 
L 1984 4856 
z
" transform="scale(0.015625)"/>
      <path id="DejaVuSans-2c" d="M 750 794 
L 1409 794 
L 1409 256 
L 897 -744 
L 494 -744 
L 750 256 
L 750 794 
z
" transform="scale(0.015625)"/>
      <path id="DejaVuSans-29" d="M 513 4856 
L 1013 4856 
Q 1481 4119 1714 3412 
Q 1947 2706 1947 2009 
Q 1947 1309 1714 600 
Q 1481 -109 1013 -844 
L 513 -844 
Q 928 -128 1133 580 
Q 1338 1288 1338 2009 
Q 1338 2731 1133 3434 
Q 928 4138 513 4856 
z
" transform="scale(0.015625)"/>
      <path id="DejaVuSans-78" d="M 3513 3500 
L 2247 1797 
L 3578 0 
L 2900 0 
L 1881 1375 
L 863 0 
L 184 0 
L 1544 1831 
L 300 3500 
L 978 3500 
L 1906 2253 
L 2834 3500 
L 3513 3500 
z
" transform="scale(0.015625)"/>
      <path id="DejaVuSans-3d" d="M 678 2906 
L 4684 2906 
L 4684 2381 
L 678 2381 
L 678 2906 
z
M 678 1631 
L 4684 1631 
L 4684 1100 
L 678 1100 
L 678 1631 
z
" transform="scale(0.015625)"/>
      <path id="DejaVuSans-2e" d="M 684 794 
L 1344 794 
L 1344 0 
L 684 0 
L 684 794 
z
" transform="scale(0.015625)"/>
      <path id="DejaVuSans-36" d="M 2113 2584 
Q 1688 2584 1439 2293 
Q 1191 2003 1191 1497 
Q 1191 994 1439 701 
Q 1688 409 2113 409 
Q 2538 409 2786 701 
Q 3034 994 3034 1497 
Q 3034 2003 2786 2293 
Q 2538 2584 2113 2584 
z
M 3366 4563 
L 3366 3988 
Q 3128 4100 2886 4159 
Q 2644 4219 2406 4219 
Q 1781 4219 1451 3797 
Q 1122 3375 1075 2522 
Q 1259 2794 1537 2939 
Q 1816 3084 2150 3084 
Q 2853 3084 3261 2657 
Q 3669 2231 3669 1497 
Q 3669 778 3244 343 
Q 2819 -91 2113 -91 
Q 1303 -91 875 529 
Q 447 1150 447 2328 
Q 447 3434 972 4092 
Q 1497 4750 2381 4750 
Q 2619 4750 2861 4703 
Q 3103 4656 3366 4563 
z
" transform="scale(0.015625)"/>
      <path id="DejaVuSans-39" d="M 703 97 
L 703 672 
Q 941 559 1184 500 
Q 1428 441 1663 441 
Q 2288 441 2617 861 
Q 2947 1281 2994 2138 
Q 2813 1869 2534 1725 
Q 2256 1581 1919 1581 
Q 1219 1581 811 2004 
Q 403 2428 403 3163 
Q 403 3881 828 4315 
Q 1253 4750 1959 4750 
Q 2769 4750 3195 4129 
Q 3622 3509 3622 2328 
Q 3622 1225 3098 567 
Q 2575 -91 1691 -91 
Q 1453 -91 1209 -44 
Q 966 3 703 97 
z
M 1959 2075 
Q 2384 2075 2632 2365 
Q 2881 2656 2881 3163 
Q 2881 3666 2632 3958 
Q 2384 4250 1959 4250 
Q 1534 4250 1286 3958 
Q 1038 3666 1038 3163 
Q 1038 2656 1286 2365 
Q 1534 2075 1959 2075 
z
" transform="scale(0.015625)"/>
     </defs>
     <use xlink:href="#DejaVuSans-41"/>
     <use xlink:href="#DejaVuSans-52" x="68.408203"/>
     <use xlink:href="#DejaVuSans-49" x="137.890625"/>
     <use xlink:href="#DejaVuSans-4d" x="167.382812"/>
     <use xlink:href="#DejaVuSans-41" x="253.662109"/>
     <use xlink:href="#DejaVuSans-20" x="322.070312"/>
     <use xlink:href="#DejaVuSans-28" x="353.857422"/>
     <use xlink:href="#DejaVuSans-34" x="392.871094"/>
     <use xlink:href="#DejaVuSans-2c" x="456.494141"/>
     <use xlink:href="#DejaVuSans-20" x="488.28125"/>
     <use xlink:href="#DejaVuSans-31" x="520.068359"/>
     <use xlink:href="#DejaVuSans-2c" x="583.691406"/>
     <use xlink:href="#DejaVuSans-20" x="615.478516"/>
     <use xlink:href="#DejaVuSans-31" x="647.265625"/>
     <use xlink:href="#DejaVuSans-29" x="710.888672"/>
     <use xlink:href="#DejaVuSans-78" x="749.902344"/>
     <use xlink:href="#DejaVuSans-28" x="809.082031"/>
     <use xlink:href="#DejaVuSans-31" x="848.095703"/>
     <use xlink:href="#DejaVuSans-2c" x="911.71875"/>
     <use xlink:href="#DejaVuSans-20" x="943.505859"/>
     <use xlink:href="#DejaVuSans-30" x="975.292969"/>
     <use xlink:href="#DejaVuSans-2c" x="1038.916016"/>
     <use xlink:href="#DejaVuSans-20" x="1070.703125"/>
     <use xlink:href="#DejaVuSans-31" x="1102.490234"/>
     <use xlink:href="#DejaVuSans-2c" x="1166.113281"/>
     <use xlink:href="#DejaVuSans-20" x="1197.900391"/>
     <use xlink:href="#DejaVuSans-37" x="1229.6875"/>
     <use xlink:href="#DejaVuSans-29" x="1293.310547"/>
     <use xlink:href="#DejaVuSans-20" x="1332.324219"/>
     <use xlink:href="#DejaVuSans-28" x="1364.111328"/>
     <use xlink:href="#DejaVuSans-52" x="1403.125"/>
     <use xlink:href="#DejaVuSans-32" x="1472.607422"/>
     <use xlink:href="#DejaVuSans-20" x="1536.230469"/>
     <use xlink:href="#DejaVuSans-3d" x="1568.017578"/>
     <use xlink:href="#DejaVuSans-20" x="1651.806641"/>
     <use xlink:href="#DejaVuSans-30" x="1683.59375"/>
     <use xlink:href="#DejaVuSans-2e" x="1747.216797"/>
     <use xlink:href="#DejaVuSans-30" x="1779.003906"/>
     <use xlink:href="#DejaVuSans-36" x="1842.626953"/>
     <use xlink:href="#DejaVuSans-35" x="1906.25"/>
     <use xlink:href="#DejaVuSans-31" x="1969.873047"/>
     <use xlink:href="#DejaVuSans-39" x="2033.496094"/>
     <use xlink:href="#DejaVuSans-36" x="2097.119141"/>
     <use xlink:href="#DejaVuSans-29" x="2160.742188"/>
    </g>
   </g>
   <g id="legend_1">
    <g id="patch_7">
     <path d="M 1281.132812 87.789875 
L 1378.2125 87.789875 
Q 1380.2125 87.789875 1380.2125 85.789875 
L 1380.2125 42.7555 
Q 1380.2125 40.7555 1378.2125 40.7555 
L 1281.132812 40.7555 
Q 1279.132812 40.7555 1279.132812 42.7555 
L 1279.132812 85.789875 
Q 1279.132812 87.789875 1281.132812 87.789875 
z
" style="fill: #ffffff; opacity: 0.8; stroke: #cccccc; stroke-linejoin: miter"/>
    </g>
    <g id="line2d_22">
     <path d="M 1283.132812 48.853937 
L 1293.132812 48.853937 
L 1303.132812 48.853937 
" style="fill: none; stroke: #0000ff; stroke-width: 1.5; stroke-linecap: square"/>
    </g>
    <g id="text_20">
     <!-- Actual Value -->
     <g transform="translate(1311.132812 52.353937)scale(0.1 -0.1)">
      <defs>
       <path id="DejaVuSans-75" d="M 544 1381 
L 544 3500 
L 1119 3500 
L 1119 1403 
Q 1119 906 1312 657 
Q 1506 409 1894 409 
Q 2359 409 2629 706 
Q 2900 1003 2900 1516 
L 2900 3500 
L 3475 3500 
L 3475 0 
L 2900 0 
L 2900 538 
Q 2691 219 2414 64 
Q 2138 -91 1772 -91 
Q 1169 -91 856 284 
Q 544 659 544 1381 
z
M 1991 3584 
L 1991 3584 
z
" transform="scale(0.015625)"/>
       <path id="DejaVuSans-56" d="M 1831 0 
L 50 4666 
L 709 4666 
L 2188 738 
L 3669 4666 
L 4325 4666 
L 2547 0 
L 1831 0 
z
" transform="scale(0.015625)"/>
      </defs>
      <use xlink:href="#DejaVuSans-41"/>
      <use xlink:href="#DejaVuSans-63" x="66.658203"/>
      <use xlink:href="#DejaVuSans-74" x="121.638672"/>
      <use xlink:href="#DejaVuSans-75" x="160.847656"/>
      <use xlink:href="#DejaVuSans-61" x="224.226562"/>
      <use xlink:href="#DejaVuSans-6c" x="285.505859"/>
      <use xlink:href="#DejaVuSans-20" x="313.289062"/>
      <use xlink:href="#DejaVuSans-56" x="345.076172"/>
      <use xlink:href="#DejaVuSans-61" x="405.734375"/>
      <use xlink:href="#DejaVuSans-6c" x="467.013672"/>
      <use xlink:href="#DejaVuSans-75" x="494.796875"/>
      <use xlink:href="#DejaVuSans-65" x="558.175781"/>
     </g>
    </g>
    <g id="line2d_23">
     <path d="M 1283.132812 63.532062 
L 1293.132812 63.532062 
L 1303.132812 63.532062 
" style="fill: none; stroke: #ffa500; stroke-width: 1.5; stroke-linecap: square"/>
    </g>
    <g id="text_21">
     <!-- Check Value -->
     <g transform="translate(1311.132812 67.032062)scale(0.1 -0.1)">
      <defs>
       <path id="DejaVuSans-6b" d="M 581 4863 
L 1159 4863 
L 1159 1991 
L 2875 3500 
L 3609 3500 
L 1753 1863 
L 3688 0 
L 2938 0 
L 1159 1709 
L 1159 0 
L 581 0 
L 581 4863 
z
" transform="scale(0.015625)"/>
      </defs>
      <use xlink:href="#DejaVuSans-43"/>
      <use xlink:href="#DejaVuSans-68" x="69.824219"/>
      <use xlink:href="#DejaVuSans-65" x="133.203125"/>
      <use xlink:href="#DejaVuSans-63" x="194.726562"/>
      <use xlink:href="#DejaVuSans-6b" x="249.707031"/>
      <use xlink:href="#DejaVuSans-20" x="307.617188"/>
      <use xlink:href="#DejaVuSans-56" x="339.404297"/>
      <use xlink:href="#DejaVuSans-61" x="400.0625"/>
      <use xlink:href="#DejaVuSans-6c" x="461.341797"/>
      <use xlink:href="#DejaVuSans-75" x="489.125"/>
      <use xlink:href="#DejaVuSans-65" x="552.503906"/>
     </g>
    </g>
    <g id="line2d_24">
     <path d="M 1283.132812 78.210187 
L 1293.132812 78.210187 
L 1303.132812 78.210187 
" style="fill: none; stroke: #ff0000; stroke-width: 1.5; stroke-linecap: square"/>
    </g>
    <g id="text_22">
     <!-- Predict Value -->
     <g transform="translate(1311.132812 81.710187)scale(0.1 -0.1)">
      <defs>
       <path id="DejaVuSans-50" d="M 1259 4147 
L 1259 2394 
L 2053 2394 
Q 2494 2394 2734 2622 
Q 2975 2850 2975 3272 
Q 2975 3691 2734 3919 
Q 2494 4147 2053 4147 
L 1259 4147 
z
M 628 4666 
L 2053 4666 
Q 2838 4666 3239 4311 
Q 3641 3956 3641 3272 
Q 3641 2581 3239 2228 
Q 2838 1875 2053 1875 
L 1259 1875 
L 1259 0 
L 628 0 
L 628 4666 
z
" transform="scale(0.015625)"/>
      </defs>
      <use xlink:href="#DejaVuSans-50"/>
      <use xlink:href="#DejaVuSans-72" x="58.552734"/>
      <use xlink:href="#DejaVuSans-65" x="97.416016"/>
      <use xlink:href="#DejaVuSans-64" x="158.939453"/>
      <use xlink:href="#DejaVuSans-69" x="222.416016"/>
      <use xlink:href="#DejaVuSans-63" x="250.199219"/>
      <use xlink:href="#DejaVuSans-74" x="305.179688"/>
      <use xlink:href="#DejaVuSans-20" x="344.388672"/>
      <use xlink:href="#DejaVuSans-56" x="376.175781"/>
      <use xlink:href="#DejaVuSans-61" x="436.833984"/>
      <use xlink:href="#DejaVuSans-6c" x="498.113281"/>
      <use xlink:href="#DejaVuSans-75" x="525.896484"/>
      <use xlink:href="#DejaVuSans-65" x="589.275391"/>
     </g>
    </g>
   </g>
  </g>
 </g>
 <defs>
  <clipPath id="pd1a118c66f">
   <rect x="46.0125" y="35.7555" width="1339.2" height="332.64"/>
  </clipPath>
 </defs>
</svg>
