<?xml version="1.0" encoding="utf-8" standalone="no"?>
<!DOCTYPE svg PUBLIC "-//W3C//DTD SVG 1.1//EN"
  "http://www.w3.org/Graphics/SVG/1.1/DTD/svg11.dtd">
<svg xmlns:xlink="http://www.w3.org/1999/xlink" width="1392.4125pt" height="392.273625pt" viewBox="0 0 1392.4125 392.273625" xmlns="http://www.w3.org/2000/svg" version="1.1">
 <metadata>
  <rdf:RDF xmlns:dc="http://purl.org/dc/elements/1.1/" xmlns:cc="http://creativecommons.org/ns#" xmlns:rdf="http://www.w3.org/1999/02/22-rdf-syntax-ns#">
   <cc:Work>
    <dc:type rdf:resource="http://purl.org/dc/dcmitype/StillImage"/>
    <dc:date>2022-07-26T17:36:23.092635</dc:date>
    <dc:format>image/svg+xml</dc:format>
    <dc:creator>
     <cc:Agent>
      <dc:title>Matplotlib v3.5.2, https://matplotlib.org/</dc:title>
     </cc:Agent>
    </dc:creator>
   </cc:Work>
  </rdf:RDF>
 </metadata>
 <defs>
  <style type="text/css">*{stroke-linejoin: round; stroke-linecap: butt}</style>
 </defs>
 <g id="figure_1">
  <g id="patch_1">
   <path d="M 0 392.273625 
L 1392.4125 392.273625 
L 1392.4125 0 
L 0 0 
z
" style="fill: #ffffff"/>
  </g>
  <g id="axes_1">
   <g id="patch_2">
    <path d="M 46.0125 368.3955 
L 1385.2125 368.3955 
L 1385.2125 35.7555 
L 46.0125 35.7555 
z
" style="fill: #ffffff"/>
   </g>
   <g id="matplotlib.axis_1">
    <g id="xtick_1">
     <g id="line2d_1">
      <defs>
       <path id="m10d5b90e9d" d="M 0 0 
L 0 3.5 
" style="stroke: #000000; stroke-width: 0.8"/>
      </defs>
      <g>
       <use xlink:href="#m10d5b90e9d" x="77.992023" y="368.3955" style="stroke: #000000; stroke-width: 0.8"/>
      </g>
     </g>
     <g id="text_1">
      <!-- 2020-01 -->
      <g transform="translate(57.100617 382.993937)scale(0.1 -0.1)">
       <defs>
        <path id="DejaVuSans-32" d="M 1228 531 
L 3431 531 
L 3431 0 
L 469 0 
L 469 531 
Q 828 903 1448 1529 
Q 2069 2156 2228 2338 
Q 2531 2678 2651 2914 
Q 2772 3150 2772 3378 
Q 2772 3750 2511 3984 
Q 2250 4219 1831 4219 
Q 1534 4219 1204 4116 
Q 875 4013 500 3803 
L 500 4441 
Q 881 4594 1212 4672 
Q 1544 4750 1819 4750 
Q 2544 4750 2975 4387 
Q 3406 4025 3406 3419 
Q 3406 3131 3298 2873 
Q 3191 2616 2906 2266 
Q 2828 2175 2409 1742 
Q 1991 1309 1228 531 
z
" transform="scale(0.015625)"/>
        <path id="DejaVuSans-30" d="M 2034 4250 
Q 1547 4250 1301 3770 
Q 1056 3291 1056 2328 
Q 1056 1369 1301 889 
Q 1547 409 2034 409 
Q 2525 409 2770 889 
Q 3016 1369 3016 2328 
Q 3016 3291 2770 3770 
Q 2525 4250 2034 4250 
z
M 2034 4750 
Q 2819 4750 3233 4129 
Q 3647 3509 3647 2328 
Q 3647 1150 3233 529 
Q 2819 -91 2034 -91 
Q 1250 -91 836 529 
Q 422 1150 422 2328 
Q 422 3509 836 4129 
Q 1250 4750 2034 4750 
z
" transform="scale(0.015625)"/>
        <path id="DejaVuSans-2d" d="M 313 2009 
L 1997 2009 
L 1997 1497 
L 313 1497 
L 313 2009 
z
" transform="scale(0.015625)"/>
        <path id="DejaVuSans-31" d="M 794 531 
L 1825 531 
L 1825 4091 
L 703 3866 
L 703 4441 
L 1819 4666 
L 2450 4666 
L 2450 531 
L 3481 531 
L 3481 0 
L 794 0 
L 794 531 
z
" transform="scale(0.015625)"/>
       </defs>
       <use xlink:href="#DejaVuSans-32"/>
       <use xlink:href="#DejaVuSans-30" x="63.623047"/>
       <use xlink:href="#DejaVuSans-32" x="127.246094"/>
       <use xlink:href="#DejaVuSans-30" x="190.869141"/>
       <use xlink:href="#DejaVuSans-2d" x="254.492188"/>
       <use xlink:href="#DejaVuSans-30" x="290.576172"/>
       <use xlink:href="#DejaVuSans-31" x="354.199219"/>
      </g>
     </g>
    </g>
    <g id="xtick_2">
     <g id="line2d_2">
      <g>
       <use xlink:href="#m10d5b90e9d" x="197.504821" y="368.3955" style="stroke: #000000; stroke-width: 0.8"/>
      </g>
     </g>
     <g id="text_2">
      <!-- 2020-04 -->
      <g transform="translate(176.613415 382.993937)scale(0.1 -0.1)">
       <defs>
        <path id="DejaVuSans-34" d="M 2419 4116 
L 825 1625 
L 2419 1625 
L 2419 4116 
z
M 2253 4666 
L 3047 4666 
L 3047 1625 
L 3713 1625 
L 3713 1100 
L 3047 1100 
L 3047 0 
L 2419 0 
L 2419 1100 
L 313 1100 
L 313 1709 
L 2253 4666 
z
" transform="scale(0.015625)"/>
       </defs>
       <use xlink:href="#DejaVuSans-32"/>
       <use xlink:href="#DejaVuSans-30" x="63.623047"/>
       <use xlink:href="#DejaVuSans-32" x="127.246094"/>
       <use xlink:href="#DejaVuSans-30" x="190.869141"/>
       <use xlink:href="#DejaVuSans-2d" x="254.492188"/>
       <use xlink:href="#DejaVuSans-30" x="290.576172"/>
       <use xlink:href="#DejaVuSans-34" x="354.199219"/>
      </g>
     </g>
    </g>
    <g id="xtick_3">
     <g id="line2d_3">
      <g>
       <use xlink:href="#m10d5b90e9d" x="317.017619" y="368.3955" style="stroke: #000000; stroke-width: 0.8"/>
      </g>
     </g>
     <g id="text_3">
      <!-- 2020-07 -->
      <g transform="translate(296.126213 382.993937)scale(0.1 -0.1)">
       <defs>
        <path id="DejaVuSans-37" d="M 525 4666 
L 3525 4666 
L 3525 4397 
L 1831 0 
L 1172 0 
L 2766 4134 
L 525 4134 
L 525 4666 
z
" transform="scale(0.015625)"/>
       </defs>
       <use xlink:href="#DejaVuSans-32"/>
       <use xlink:href="#DejaVuSans-30" x="63.623047"/>
       <use xlink:href="#DejaVuSans-32" x="127.246094"/>
       <use xlink:href="#DejaVuSans-30" x="190.869141"/>
       <use xlink:href="#DejaVuSans-2d" x="254.492188"/>
       <use xlink:href="#DejaVuSans-30" x="290.576172"/>
       <use xlink:href="#DejaVuSans-37" x="354.199219"/>
      </g>
     </g>
    </g>
    <g id="xtick_4">
     <g id="line2d_4">
      <g>
       <use xlink:href="#m10d5b90e9d" x="437.843744" y="368.3955" style="stroke: #000000; stroke-width: 0.8"/>
      </g>
     </g>
     <g id="text_4">
      <!-- 2020-10 -->
      <g transform="translate(416.952338 382.993937)scale(0.1 -0.1)">
       <use xlink:href="#DejaVuSans-32"/>
       <use xlink:href="#DejaVuSans-30" x="63.623047"/>
       <use xlink:href="#DejaVuSans-32" x="127.246094"/>
       <use xlink:href="#DejaVuSans-30" x="190.869141"/>
       <use xlink:href="#DejaVuSans-2d" x="254.492188"/>
       <use xlink:href="#DejaVuSans-31" x="290.576172"/>
       <use xlink:href="#DejaVuSans-30" x="354.199219"/>
      </g>
     </g>
    </g>
    <g id="xtick_5">
     <g id="line2d_5">
      <g>
       <use xlink:href="#m10d5b90e9d" x="558.66987" y="368.3955" style="stroke: #000000; stroke-width: 0.8"/>
      </g>
     </g>
     <g id="text_5">
      <!-- 2021-01 -->
      <g transform="translate(537.778464 382.993937)scale(0.1 -0.1)">
       <use xlink:href="#DejaVuSans-32"/>
       <use xlink:href="#DejaVuSans-30" x="63.623047"/>
       <use xlink:href="#DejaVuSans-32" x="127.246094"/>
       <use xlink:href="#DejaVuSans-31" x="190.869141"/>
       <use xlink:href="#DejaVuSans-2d" x="254.492188"/>
       <use xlink:href="#DejaVuSans-30" x="290.576172"/>
       <use xlink:href="#DejaVuSans-31" x="354.199219"/>
      </g>
     </g>
    </g>
    <g id="xtick_6">
     <g id="line2d_6">
      <g>
       <use xlink:href="#m10d5b90e9d" x="676.86934" y="368.3955" style="stroke: #000000; stroke-width: 0.8"/>
      </g>
     </g>
     <g id="text_6">
      <!-- 2021-04 -->
      <g transform="translate(655.977934 382.993937)scale(0.1 -0.1)">
       <use xlink:href="#DejaVuSans-32"/>
       <use xlink:href="#DejaVuSans-30" x="63.623047"/>
       <use xlink:href="#DejaVuSans-32" x="127.246094"/>
       <use xlink:href="#DejaVuSans-31" x="190.869141"/>
       <use xlink:href="#DejaVuSans-2d" x="254.492188"/>
       <use xlink:href="#DejaVuSans-30" x="290.576172"/>
       <use xlink:href="#DejaVuSans-34" x="354.199219"/>
      </g>
     </g>
    </g>
    <g id="xtick_7">
     <g id="line2d_7">
      <g>
       <use xlink:href="#m10d5b90e9d" x="796.382138" y="368.3955" style="stroke: #000000; stroke-width: 0.8"/>
      </g>
     </g>
     <g id="text_7">
      <!-- 2021-07 -->
      <g transform="translate(775.490732 382.993937)scale(0.1 -0.1)">
       <use xlink:href="#DejaVuSans-32"/>
       <use xlink:href="#DejaVuSans-30" x="63.623047"/>
       <use xlink:href="#DejaVuSans-32" x="127.246094"/>
       <use xlink:href="#DejaVuSans-31" x="190.869141"/>
       <use xlink:href="#DejaVuSans-2d" x="254.492188"/>
       <use xlink:href="#DejaVuSans-30" x="290.576172"/>
       <use xlink:href="#DejaVuSans-37" x="354.199219"/>
      </g>
     </g>
    </g>
    <g id="xtick_8">
     <g id="line2d_8">
      <g>
       <use xlink:href="#m10d5b90e9d" x="917.208263" y="368.3955" style="stroke: #000000; stroke-width: 0.8"/>
      </g>
     </g>
     <g id="text_8">
      <!-- 2021-10 -->
      <g transform="translate(896.316857 382.993937)scale(0.1 -0.1)">
       <use xlink:href="#DejaVuSans-32"/>
       <use xlink:href="#DejaVuSans-30" x="63.623047"/>
       <use xlink:href="#DejaVuSans-32" x="127.246094"/>
       <use xlink:href="#DejaVuSans-31" x="190.869141"/>
       <use xlink:href="#DejaVuSans-2d" x="254.492188"/>
       <use xlink:href="#DejaVuSans-31" x="290.576172"/>
       <use xlink:href="#DejaVuSans-30" x="354.199219"/>
      </g>
     </g>
    </g>
    <g id="xtick_9">
     <g id="line2d_9">
      <g>
       <use xlink:href="#m10d5b90e9d" x="1038.034389" y="368.3955" style="stroke: #000000; stroke-width: 0.8"/>
      </g>
     </g>
     <g id="text_9">
      <!-- 2022-01 -->
      <g transform="translate(1017.142983 382.993937)scale(0.1 -0.1)">
       <use xlink:href="#DejaVuSans-32"/>
       <use xlink:href="#DejaVuSans-30" x="63.623047"/>
       <use xlink:href="#DejaVuSans-32" x="127.246094"/>
       <use xlink:href="#DejaVuSans-32" x="190.869141"/>
       <use xlink:href="#DejaVuSans-2d" x="254.492188"/>
       <use xlink:href="#DejaVuSans-30" x="290.576172"/>
       <use xlink:href="#DejaVuSans-31" x="354.199219"/>
      </g>
     </g>
    </g>
    <g id="xtick_10">
     <g id="line2d_10">
      <g>
       <use xlink:href="#m10d5b90e9d" x="1156.233859" y="368.3955" style="stroke: #000000; stroke-width: 0.8"/>
      </g>
     </g>
     <g id="text_10">
      <!-- 2022-04 -->
      <g transform="translate(1135.342453 382.993937)scale(0.1 -0.1)">
       <use xlink:href="#DejaVuSans-32"/>
       <use xlink:href="#DejaVuSans-30" x="63.623047"/>
       <use xlink:href="#DejaVuSans-32" x="127.246094"/>
       <use xlink:href="#DejaVuSans-32" x="190.869141"/>
       <use xlink:href="#DejaVuSans-2d" x="254.492188"/>
       <use xlink:href="#DejaVuSans-30" x="290.576172"/>
       <use xlink:href="#DejaVuSans-34" x="354.199219"/>
      </g>
     </g>
    </g>
    <g id="xtick_11">
     <g id="line2d_11">
      <g>
       <use xlink:href="#m10d5b90e9d" x="1275.746657" y="368.3955" style="stroke: #000000; stroke-width: 0.8"/>
      </g>
     </g>
     <g id="text_11">
      <!-- 2022-07 -->
      <g transform="translate(1254.855251 382.993937)scale(0.1 -0.1)">
       <use xlink:href="#DejaVuSans-32"/>
       <use xlink:href="#DejaVuSans-30" x="63.623047"/>
       <use xlink:href="#DejaVuSans-32" x="127.246094"/>
       <use xlink:href="#DejaVuSans-32" x="190.869141"/>
       <use xlink:href="#DejaVuSans-2d" x="254.492188"/>
       <use xlink:href="#DejaVuSans-30" x="290.576172"/>
       <use xlink:href="#DejaVuSans-37" x="354.199219"/>
      </g>
     </g>
    </g>
   </g>
   <g id="matplotlib.axis_2">
    <g id="ytick_1">
     <g id="line2d_12">
      <defs>
       <path id="m61a90d5a8d" d="M 0 0 
L -3.5 0 
" style="stroke: #000000; stroke-width: 0.8"/>
      </defs>
      <g>
       <use xlink:href="#m61a90d5a8d" x="46.0125" y="331.69352" style="stroke: #000000; stroke-width: 0.8"/>
      </g>
     </g>
     <g id="text_12">
      <!-- 0 -->
      <g transform="translate(32.65 335.492739)scale(0.1 -0.1)">
       <use xlink:href="#DejaVuSans-30"/>
      </g>
     </g>
    </g>
    <g id="ytick_2">
     <g id="line2d_13">
      <g>
       <use xlink:href="#m61a90d5a8d" x="46.0125" y="281.102971" style="stroke: #000000; stroke-width: 0.8"/>
      </g>
     </g>
     <g id="text_13">
      <!-- 5000 -->
      <g transform="translate(13.5625 284.90219)scale(0.1 -0.1)">
       <defs>
        <path id="DejaVuSans-35" d="M 691 4666 
L 3169 4666 
L 3169 4134 
L 1269 4134 
L 1269 2991 
Q 1406 3038 1543 3061 
Q 1681 3084 1819 3084 
Q 2600 3084 3056 2656 
Q 3513 2228 3513 1497 
Q 3513 744 3044 326 
Q 2575 -91 1722 -91 
Q 1428 -91 1123 -41 
Q 819 9 494 109 
L 494 744 
Q 775 591 1075 516 
Q 1375 441 1709 441 
Q 2250 441 2565 725 
Q 2881 1009 2881 1497 
Q 2881 1984 2565 2268 
Q 2250 2553 1709 2553 
Q 1456 2553 1204 2497 
Q 953 2441 691 2322 
L 691 4666 
z
" transform="scale(0.015625)"/>
       </defs>
       <use xlink:href="#DejaVuSans-35"/>
       <use xlink:href="#DejaVuSans-30" x="63.623047"/>
       <use xlink:href="#DejaVuSans-30" x="127.246094"/>
       <use xlink:href="#DejaVuSans-30" x="190.869141"/>
      </g>
     </g>
    </g>
    <g id="ytick_3">
     <g id="line2d_14">
      <g>
       <use xlink:href="#m61a90d5a8d" x="46.0125" y="230.512422" style="stroke: #000000; stroke-width: 0.8"/>
      </g>
     </g>
     <g id="text_14">
      <!-- 10000 -->
      <g transform="translate(7.2 234.311641)scale(0.1 -0.1)">
       <use xlink:href="#DejaVuSans-31"/>
       <use xlink:href="#DejaVuSans-30" x="63.623047"/>
       <use xlink:href="#DejaVuSans-30" x="127.246094"/>
       <use xlink:href="#DejaVuSans-30" x="190.869141"/>
       <use xlink:href="#DejaVuSans-30" x="254.492188"/>
      </g>
     </g>
    </g>
    <g id="ytick_4">
     <g id="line2d_15">
      <g>
       <use xlink:href="#m61a90d5a8d" x="46.0125" y="179.921873" style="stroke: #000000; stroke-width: 0.8"/>
      </g>
     </g>
     <g id="text_15">
      <!-- 15000 -->
      <g transform="translate(7.2 183.721091)scale(0.1 -0.1)">
       <use xlink:href="#DejaVuSans-31"/>
       <use xlink:href="#DejaVuSans-35" x="63.623047"/>
       <use xlink:href="#DejaVuSans-30" x="127.246094"/>
       <use xlink:href="#DejaVuSans-30" x="190.869141"/>
       <use xlink:href="#DejaVuSans-30" x="254.492188"/>
      </g>
     </g>
    </g>
    <g id="ytick_5">
     <g id="line2d_16">
      <g>
       <use xlink:href="#m61a90d5a8d" x="46.0125" y="129.331324" style="stroke: #000000; stroke-width: 0.8"/>
      </g>
     </g>
     <g id="text_16">
      <!-- 20000 -->
      <g transform="translate(7.2 133.130542)scale(0.1 -0.1)">
       <use xlink:href="#DejaVuSans-32"/>
       <use xlink:href="#DejaVuSans-30" x="63.623047"/>
       <use xlink:href="#DejaVuSans-30" x="127.246094"/>
       <use xlink:href="#DejaVuSans-30" x="190.869141"/>
       <use xlink:href="#DejaVuSans-30" x="254.492188"/>
      </g>
     </g>
    </g>
    <g id="ytick_6">
     <g id="line2d_17">
      <g>
       <use xlink:href="#m61a90d5a8d" x="46.0125" y="78.740774" style="stroke: #000000; stroke-width: 0.8"/>
      </g>
     </g>
     <g id="text_17">
      <!-- 25000 -->
      <g transform="translate(7.2 82.539993)scale(0.1 -0.1)">
       <use xlink:href="#DejaVuSans-32"/>
       <use xlink:href="#DejaVuSans-35" x="63.623047"/>
       <use xlink:href="#DejaVuSans-30" x="127.246094"/>
       <use xlink:href="#DejaVuSans-30" x="190.869141"/>
       <use xlink:href="#DejaVuSans-30" x="254.492188"/>
      </g>
     </g>
    </g>
   </g>
   <g id="line2d_18">
    <path d="M 106.885227 331.69352 
L 179.118237 331.69352 
L 180.431564 331.420331 
L 181.744892 331.64293 
L 183.058219 331.653048 
L 186.998202 331.440567 
L 189.624857 330.843599 
L 194.878166 331.167378 
L 196.191494 330.813245 
L 197.504821 330.145449 
L 198.818149 330.074623 
L 200.131476 330.590646 
L 201.444804 329.963323 
L 202.758131 330.752536 
L 204.071459 330.934662 
L 205.384786 330.226394 
L 206.698113 331.167378 
L 208.011441 330.074623 
L 209.324768 330.600764 
L 210.638096 330.94478 
L 211.951423 330.661473 
L 213.264751 330.691827 
L 214.578078 330.529938 
L 215.891406 330.894189 
L 218.51806 330.600764 
L 219.831388 331.69352 
L 221.144715 330.661473 
L 223.77137 330.40852 
L 225.084698 330.813245 
L 226.398025 330.448993 
L 227.711353 330.641237 
L 229.02468 330.954898 
L 230.338008 331.086434 
L 231.651335 331.420331 
L 232.964662 330.388284 
L 234.27799 331.056079 
L 235.591317 330.226394 
L 236.904645 330.378166 
L 238.217972 330.651355 
L 239.5313 330.469229 
L 240.844627 330.965016 
L 242.157955 330.853717 
L 243.471282 330.934662 
L 244.784609 330.398402 
L 247.411264 331.025725 
L 248.724592 330.691827 
L 250.037919 331.450686 
L 251.351247 330.489465 
L 252.664574 330.418638 
L 253.977902 330.631119 
L 256.604556 330.175804 
L 257.917884 330.954898 
L 259.231211 330.803126 
L 260.544539 330.772772 
L 261.857866 331.258441 
L 263.171194 330.19604 
L 264.484521 329.98356 
L 265.797849 330.57041 
L 268.424504 331.15726 
L 269.737831 331.207851 
L 271.051158 330.772772 
L 272.364486 331.248323 
L 274.991141 330.884071 
L 276.304468 331.69352 
L 277.617796 330.125213 
L 278.931123 330.489465 
L 282.871105 330.681709 
L 284.184433 331.167378 
L 285.49776 330.772772 
L 286.811088 331.137024 
L 288.124415 330.094859 
L 289.437743 330.479347 
L 290.75107 330.24663 
L 292.064398 329.437182 
L 293.377725 329.427064 
L 294.691053 330.094859 
L 296.00438 329.811552 
L 298.631035 329.07293 
L 299.944362 327.130253 
L 301.25769 328.131945 
L 302.571017 328.344426 
L 303.884345 326.857064 
L 305.197672 329.487772 
L 306.511 328.688442 
L 307.824327 326.846946 
L 310.450982 327.656394 
L 311.764309 328.668205 
L 313.077637 328.647969 
L 314.390964 329.386591 
L 315.704292 325.80478 
L 317.017619 328.030764 
L 318.330947 327.524859 
L 319.644274 326.249977 
L 320.957602 325.835135 
L 322.270929 328.830095 
L 323.584256 327.332615 
L 324.897584 323.012182 
L 326.210911 324.873914 
L 327.524239 325.5923 
L 328.837566 325.673245 
L 330.150894 324.742379 
L 331.464221 327.079662 
L 332.777549 326.523166 
L 334.090876 321.636119 
L 335.404203 320.82667 
L 336.717531 325.359583 
L 338.030858 324.610843 
L 339.344186 322.415213 
L 340.657513 329.578835 
L 341.970841 329.973441 
L 343.284168 322.688402 
L 344.597496 321.858717 
L 345.910823 324.904268 
L 347.22415 320.088048 
L 348.537478 321.929544 
L 349.850805 319.511316 
L 351.164133 317.528166 
L 352.47746 320.66478 
L 353.790788 323.113363 
L 355.104115 320.391591 
L 356.417443 324.135292 
L 357.73077 319.106592 
L 359.044098 326.695174 
L 360.357425 327.878993 
L 361.670752 322.981828 
L 362.98408 320.553481 
L 364.297407 323.224662 
L 365.610735 323.052654 
L 366.924062 323.34608 
L 368.23739 326.776119 
L 369.550717 327.676631 
L 370.864045 323.953166 
L 372.177372 324.914387 
L 373.490699 324.560253 
L 374.804027 323.659741 
L 376.117354 322.577103 
L 377.430682 326.189268 
L 378.744009 327.959938 
L 380.057337 325.612536 
L 381.370664 325.511355 
L 382.683992 324.14541 
L 383.997319 320.796316 
L 385.310647 323.062772 
L 386.623974 325.96667 
L 387.937301 328.081355 
L 389.250629 325.116749 
L 390.563956 324.954859 
L 391.877284 324.489426 
L 393.190611 324.509662 
L 394.503939 320.634426 
L 395.817266 323.943048 
L 397.130594 325.481001 
L 399.757248 324.408481 
L 401.070576 322.496158 
L 402.383903 321.443875 
L 403.697231 320.088048 
L 405.010558 327.443914 
L 406.323886 325.491119 
L 407.637213 323.265135 
L 408.950541 322.830056 
L 410.263868 323.892457 
L 411.577195 322.162261 
L 412.890523 321.403402 
L 414.20385 324.661434 
L 415.517178 322.900883 
L 416.830505 320.654662 
L 418.143833 321.878954 
L 419.45716 321.231395 
L 420.770488 319.056001 
L 422.083815 319.177418 
L 423.397143 321.545056 
L 424.71047 320.553481 
L 426.023797 319.91604 
L 427.337125 320.674899 
L 428.650452 320.735607 
L 429.96378 318.782812 
L 431.277107 321.676591 
L 432.590435 323.366316 
L 433.903762 322.981828 
L 435.21709 321.322458 
L 436.530417 321.777773 
L 437.843744 319.855332 
L 439.157072 319.652969 
L 440.470399 319.663088 
L 441.783727 331.69352 
L 443.097054 319.207773 
L 444.410382 317.892418 
L 445.723709 321.514702 
L 447.037037 319.430371 
L 448.350364 316.273521 
L 449.663692 316.182458 
L 450.977019 323.943048 
L 452.290346 323.629387 
L 453.603674 318.448914 
L 454.917001 320.341001 
L 456.230329 319.339308 
L 457.543656 316.799662 
L 460.170311 323.285371 
L 461.483639 323.862103 
L 462.796966 316.769308 
L 464.110293 318.469151 
L 465.423621 315.221237 
L 466.736948 317.801355 
L 468.050276 313.187497 
L 469.363603 321.059387 
L 470.676931 324.985213 
L 471.990258 321.474229 
L 473.303586 324.175765 
L 474.616913 321.160568 
L 475.930241 318.519741 
L 477.243568 318.873875 
L 478.556895 318.04419 
L 479.870223 320.725489 
L 481.18355 318.226316 
L 482.496878 319.086355 
L 483.810205 310.435371 
L 485.123533 312.69171 
L 486.43686 331.69352 
L 487.750188 286.091199 
L 489.063515 309.464033 
L 490.376842 314.472497 
L 491.69017 309.666395 
L 493.003497 307.845135 
L 494.316825 304.708521 
L 495.630152 302.887261 
L 496.94348 292.000175 
L 499.570135 316.000332 
L 500.883462 301.167183 
L 502.196789 302.19923 
L 503.510117 302.138521 
L 504.823444 294.630884 
L 506.136772 297.231238 
L 507.450099 295.834939 
L 508.763427 304.010372 
L 510.076754 293.932734 
L 511.390082 331.69352 
L 514.016737 268.384507 
L 515.330064 314.280253 
L 516.643391 309.433679 
L 517.956719 314.118363 
L 519.270046 302.765844 
L 520.583374 314.421907 
L 521.896701 282.853404 
L 523.210029 287.47738 
L 524.523356 298.900726 
L 525.836684 312.438757 
L 527.150011 308.452222 
L 528.463338 308.351041 
L 529.776666 306.80297 
L 531.089993 292.192419 
L 532.403321 291.362734 
L 533.716648 287.791042 
L 535.029976 310.364545 
L 536.343303 309.04919 
L 537.656631 298.870372 
L 538.969958 301.511199 
L 541.596613 290.006908 
L 542.90994 281.173798 
L 544.223268 305.265017 
L 545.536595 309.42356 
L 546.849923 294.560057 
L 548.16325 298.425175 
L 549.476578 331.69352 
L 550.789905 291.474034 
L 552.103233 304.93112 
L 553.41656 296.502734 
L 554.729887 319.400017 
L 556.043215 298.566829 
L 557.356542 292.060884 
L 558.66987 331.69352 
L 559.983197 279.747144 
L 561.296525 250.424862 
L 562.609852 304.212734 
L 563.92318 316.425292 
L 565.236507 298.060923 
L 566.549835 293.183994 
L 567.863162 278.634152 
L 569.176489 288.155294 
L 570.489817 265.946042 
L 571.803144 292.192419 
L 573.116472 309.221198 
L 574.429799 292.03053 
L 575.743127 299.831592 
L 577.056454 295.834939 
L 578.369782 294.944545 
L 579.683109 297.96986 
L 580.996436 312.924426 
L 582.309764 315.747379 
L 583.623091 311.416828 
L 584.936419 304.364506 
L 586.249746 301.723679 
L 587.563074 289.450412 
L 590.189729 313.642812 
L 591.503056 315.585489 
L 592.816383 304.273443 
L 594.129711 308.108206 
L 595.443038 303.352695 
L 596.756366 307.55171 
L 598.069693 302.452183 
L 599.383021 317.386513 
L 600.696348 318.41856 
L 602.009676 310.050883 
L 603.323003 303.403285 
L 604.636331 304.688285 
L 605.949658 310.81986 
L 607.262985 309.514623 
L 608.576313 320.998678 
L 609.88964 320.755843 
L 611.202968 314.776041 
L 612.516295 314.533206 
L 613.829623 317.13356 
L 615.14295 316.779426 
L 616.456278 318.772694 
L 617.769605 324.287064 
L 619.082932 326.472575 
L 620.39626 320.77608 
L 621.709587 325.248284 
L 623.022915 322.819938 
L 624.336242 321.787891 
L 625.64957 321.099859 
L 626.962897 326.523166 
L 628.276225 327.980174 
L 629.589552 323.447261 
L 630.90288 320.02734 
L 632.216207 322.880646 
L 633.529534 323.791276 
L 634.842862 324.46919 
L 636.156189 327.757575 
L 637.469517 330.489465 
L 638.782844 324.044229 
L 640.096172 322.577103 
L 641.409499 322.354505 
L 642.722827 321.676591 
L 644.036154 326.958245 
L 645.349481 329.841906 
L 646.662809 328.870568 
L 647.976136 323.275253 
L 649.289464 324.550135 
L 650.602791 327.352851 
L 651.916119 325.258402 
L 653.229446 326.624347 
L 654.542774 328.384898 
L 655.856101 329.234819 
L 657.169429 326.573757 
L 658.482756 325.905961 
L 659.796083 327.393323 
L 661.109411 331.64293 
L 662.422738 331.612575 
L 663.736066 321.828363 
L 665.049393 329.680016 
L 666.362721 326.533284 
L 667.676048 327.828402 
L 668.989376 326.897536 
L 670.302703 331.582221 
L 671.61603 331.561985 
L 672.929358 322.678284 
L 674.242685 330.378166 
L 675.556013 327.646276 
L 676.86934 327.403442 
L 678.182668 327.83852 
L 679.495995 331.673284 
L 680.809323 331.69352 
L 682.12265 322.698521 
L 683.435977 344.786354 
L 684.749305 313.845174 
L 686.062632 326.806473 
L 687.37596 327.484386 
L 688.689287 331.69352 
L 690.002615 331.69352 
L 691.315942 321.89919 
L 692.62927 330.590646 
L 693.942597 328.192654 
L 695.255925 328.030764 
L 696.569252 328.931276 
L 697.882579 331.69352 
L 699.195907 331.69352 
L 700.509234 323.730568 
L 701.822562 330.934662 
L 703.135889 329.28541 
L 704.449217 328.830095 
L 705.762544 328.617615 
L 707.075872 331.69352 
L 708.389199 331.69352 
L 709.702526 324.327536 
L 711.015854 330.529938 
L 712.329181 329.174111 
L 713.642509 328.769386 
L 714.955836 327.909347 
L 716.269164 331.69352 
L 717.582491 331.69352 
L 718.895819 325.956552 
L 720.209146 329.98356 
L 721.522474 329.416945 
L 722.835801 330.19604 
L 724.149128 329.325882 
L 725.462456 331.69352 
L 726.775783 331.69352 
L 728.089111 324.944741 
L 729.402438 330.833481 
L 730.715766 330.24663 
L 732.029093 330.145449 
L 733.342421 330.165686 
L 734.655748 331.69352 
L 735.969075 331.69352 
L 737.282403 327.332615 
L 738.59573 330.975134 
L 741.222385 329.953205 
L 742.535713 329.82167 
L 743.84904 331.69352 
L 745.162368 331.69352 
L 746.475695 327.059426 
L 747.789023 330.793008 
L 749.10235 330.489465 
L 751.729005 330.236512 
L 753.042332 331.69352 
L 755.668987 331.69352 
L 756.982315 326.978481 
L 758.295642 331.26856 
L 759.60897 330.529938 
L 760.922297 330.155567 
L 762.235624 331.69352 
L 763.548952 331.69352 
L 764.862279 328.273599 
L 766.175607 330.884071 
L 767.488934 330.438875 
L 768.802262 330.459111 
L 770.115589 329.892497 
L 771.428917 331.69352 
L 772.742244 331.69352 
L 774.055571 326.735646 
L 775.368899 331.238205 
L 776.682226 329.508008 
L 777.995554 329.578835 
L 779.308881 329.862142 
L 780.622209 331.69352 
L 781.935536 331.69352 
L 783.248864 327.130253 
L 784.562191 330.054386 
L 785.875519 329.012221 
L 787.188846 328.931276 
L 788.502173 329.427064 
L 789.815501 331.69352 
L 791.128828 331.69352 
L 792.442156 325.825016 
L 793.755483 330.833481 
L 795.068811 328.900922 
L 796.382138 328.364662 
L 797.695466 328.627733 
L 799.008793 331.69352 
L 801.635448 331.69352 
L 802.948775 321.160568 
L 804.262103 330.165686 
L 805.57543 327.079662 
L 806.888758 326.118442 
L 808.202085 331.69352 
L 809.515413 331.69352 
L 810.82874 319.440489 
L 812.142068 331.69352 
L 813.455395 318.95482 
L 814.768722 324.560253 
L 816.08205 324.104938 
L 817.395377 331.69352 
L 818.708705 331.69352 
L 820.022032 310.182419 
L 821.33536 326.988599 
L 822.648687 319.521434 
L 823.962015 315.696789 
L 825.275342 319.612497 
L 826.588669 331.69352 
L 827.901997 331.69352 
L 829.215324 294.570175 
L 830.528652 324.276946 
L 831.841979 316.779426 
L 833.155307 313.420214 
L 834.468634 313.713639 
L 835.781962 331.69352 
L 837.095289 331.69352 
L 838.408617 275.062459 
L 839.721944 322.121788 
L 841.035271 309.838403 
L 842.348599 307.996907 
L 843.661926 308.391513 
L 844.975254 331.69352 
L 846.288581 331.69352 
L 847.601909 267.666121 
L 848.915236 321.15045 
L 850.228564 309.443797 
L 851.541891 306.722025 
L 852.855218 303.221159 
L 854.168546 331.69352 
L 855.481873 331.69352 
L 856.795201 261.200649 
L 858.108528 322.971709 
L 859.421856 307.814781 
L 860.735183 306.378009 
L 862.048511 302.846789 
L 863.361838 331.69352 
L 864.675165 331.69352 
L 865.988493 268.779113 
L 867.30182 313.541631 
L 868.615148 306.05423 
L 869.928475 289.683128 
L 871.241803 297.91927 
L 872.55513 331.69352 
L 873.868458 331.69352 
L 875.181785 252.499075 
L 876.495113 314.300489 
L 877.80844 306.013757 
L 879.121767 298.566829 
L 880.435095 300.529742 
L 881.748422 331.69352 
L 884.375077 331.69352 
L 885.688405 229.7738 
L 887.001732 318.539977 
L 888.31506 306.782734 
L 889.628387 305.113246 
L 890.941714 331.69352 
L 892.255042 331.69352 
L 893.568369 254.28998 
L 894.881697 324.013875 
L 896.195024 311.801316 
L 897.508352 308.796238 
L 898.821679 310.202655 
L 900.135007 331.69352 
L 901.448334 331.69352 
L 902.761662 271.005097 
L 904.074989 326.796355 
L 905.388316 308.988482 
L 906.701644 307.804663 
L 908.014971 319.248245 
L 909.328299 331.69352 
L 910.641626 331.69352 
L 911.954954 277.602105 
L 913.268281 325.136985 
L 914.581609 316.516355 
L 915.894936 312.671474 
L 917.208263 317.002025 
L 918.521591 331.69352 
L 919.834918 331.69352 
L 921.148246 292.850097 
L 922.461573 324.792969 
L 925.088228 316.506237 
L 926.401556 327.190961 
L 927.714883 331.69352 
L 929.028211 331.69352 
L 930.341538 281.922538 
L 931.654865 325.673245 
L 932.968193 319.369662 
L 934.28152 319.744032 
L 935.594848 319.764269 
L 936.908175 331.69352 
L 938.221503 331.69352 
L 939.53483 295.56175 
L 940.848158 327.423678 
L 942.161485 322.637812 
L 943.474812 320.07793 
L 944.78814 321.079623 
L 946.101467 331.69352 
L 947.414795 331.69352 
L 948.728122 310.506198 
L 950.04145 327.180843 
L 951.354777 322.941355 
L 952.668105 324.651316 
L 953.981432 322.384859 
L 955.294759 331.69352 
L 956.608087 331.69352 
L 957.921414 317.791237 
L 959.234742 323.801394 
L 960.548069 325.308993 
L 961.861397 322.890765 
L 963.174724 325.865489 
L 964.488052 331.69352 
L 965.801379 331.69352 
L 967.114707 313.531513 
L 968.428034 329.012221 
L 969.741361 327.443914 
L 971.054689 331.69352 
L 972.368016 311.03234 
L 973.681344 331.69352 
L 974.994671 331.69352 
L 976.307999 303.555057 
L 977.621326 328.202772 
L 980.247981 321.008796 
L 981.561308 321.878954 
L 982.874636 331.69352 
L 984.187963 331.69352 
L 985.501291 304.485923 
L 986.814618 327.78793 
L 988.127946 326.17915 
L 989.441273 331.69352 
L 993.381256 331.69352 
L 994.694583 293.042341 
L 996.00791 322.718757 
L 997.321238 325.774426 
L 998.634565 315.302182 
L 999.947893 318.661395 
L 1001.26122 331.69352 
L 1002.574548 331.69352 
L 1003.887875 287.80116 
L 1005.201203 321.828363 
L 1006.51453 319.986867 
L 1007.827857 316.991907 
L 1009.141185 314.381434 
L 1010.454512 331.69352 
L 1011.76784 331.69352 
L 1013.081167 294.610648 
L 1014.394495 325.410174 
L 1015.707822 329.275292 
L 1017.02115 331.69352 
L 1018.334477 318.266788 
L 1019.647805 331.69352 
L 1020.961132 331.69352 
L 1022.274459 298.000214 
L 1023.587787 325.986906 
L 1024.901114 316.698481 
L 1026.214442 312.297104 
L 1027.527769 321.464111 
L 1028.841097 331.69352 
L 1030.154424 331.69352 
L 1031.467752 297.494309 
L 1032.781079 306.974978 
L 1034.094406 323.953166 
L 1035.407734 289.541475 
L 1036.721061 291.484152 
L 1038.034389 331.69352 
L 1039.347716 331.69352 
L 1040.661044 251.628917 
L 1041.974371 290.108089 
L 1043.287699 292.091238 
L 1044.601026 268.15179 
L 1045.914353 266.553129 
L 1047.227681 331.69352 
L 1048.541008 331.69352 
L 1049.854336 57.917704 
L 1051.167663 280.991672 
L 1052.480991 275.973089 
L 1053.794318 225.433131 
L 1055.107646 217.207107 
L 1056.420973 185.962384 
L 1057.734301 331.69352 
L 1059.047628 50.8755 
L 1060.360955 292.708443 
L 1061.674283 230.502304 
L 1062.98761 196.05014 
L 1064.300938 190.657187 
L 1065.614265 194.380652 
L 1066.927593 331.69352 
L 1068.24092 127.813607 
L 1069.554248 242.552973 
L 1070.867575 249.129744 
L 1072.180902 195.827541 
L 1073.49423 244.12128 
L 1074.807557 225.058761 
L 1076.120885 331.69352 
L 1077.434212 197.537502 
L 1078.74754 307.055923 
L 1080.060867 285.271632 
L 1081.374195 288.661199 
L 1082.687522 283.713443 
L 1084.00085 305.244781 
L 1085.314177 331.69352 
L 1086.627504 309.059308 
L 1087.940832 321.717064 
L 1089.254159 314.381434 
L 1090.567487 304.597222 
L 1091.880814 309.130135 
L 1093.194142 316.941316 
L 1094.507469 331.69352 
L 1095.820797 308.593875 
L 1097.134124 327.868875 
L 1098.447451 321.099859 
L 1099.760779 315.362891 
L 1101.074106 320.371355 
L 1102.387434 331.69352 
L 1105.014089 331.69352 
L 1106.327416 304.900765 
L 1107.640744 321.474229 
L 1108.954071 317.700174 
L 1110.267398 319.946395 
L 1111.580726 331.69352 
L 1112.894053 331.69352 
L 1114.207381 310.384781 
L 1115.520708 329.12352 
L 1116.834036 322.384859 
L 1118.147363 325.733953 
L 1119.460691 320.432064 
L 1120.774018 331.69352 
L 1126.027328 331.69352 
L 1127.340655 309.646159 
L 1128.653983 331.69352 
L 1135.22062 331.69352 
L 1136.533947 301.50108 
L 1137.847275 331.69352 
L 1144.413912 331.69352 
L 1145.72724 313.339269 
L 1147.040567 331.69352 
L 1153.607204 331.69352 
L 1154.920532 313.379741 
L 1156.233859 331.69352 
L 1160.173842 331.69352 
L 1161.487169 311.022222 
L 1162.800496 331.69352 
L 1165.427151 331.69352 
L 1166.740479 323.275253 
L 1168.053806 331.69352 
L 1169.367134 331.69352 
L 1170.680461 328.030764 
L 1171.993789 331.69352 
L 1174.620444 331.69352 
L 1175.933771 319.207773 
L 1177.247098 331.69352 
L 1178.560426 331.69352 
L 1179.873753 325.905961 
L 1181.187081 331.69352 
L 1182.500408 326.634465 
L 1183.813736 331.69352 
L 1185.127063 325.481001 
L 1186.440391 331.69352 
L 1187.753718 331.69352 
L 1189.067045 326.260095 
L 1190.380373 331.69352 
L 1191.6937 326.998717 
L 1193.007028 331.69352 
L 1194.320355 325.96667 
L 1195.633683 331.69352 
L 1196.94701 331.69352 
L 1198.260338 327.494505 
L 1199.573665 331.69352 
L 1200.886992 324.216237 
L 1202.20032 331.69352 
L 1203.513647 326.624347 
L 1204.826975 331.69352 
L 1206.140302 331.69352 
L 1207.45363 322.566985 
L 1208.766957 331.69352 
L 1210.080285 325.21793 
L 1211.393612 331.69352 
L 1212.70694 324.722142 
L 1214.020267 331.69352 
L 1217.960249 331.69352 
L 1219.273577 316.607418 
L 1220.586904 331.69352 
L 1221.900232 323.0223 
L 1223.213559 331.69352 
L 1224.526887 331.69352 
L 1225.840214 323.427024 
L 1227.153541 331.69352 
L 1228.466869 322.030725 
L 1229.780196 331.69352 
L 1233.720179 331.69352 
L 1235.033506 322.981828 
L 1236.346834 331.69352 
L 1237.660161 309.008718 
L 1238.973489 331.69352 
L 1240.286816 316.850253 
L 1241.600143 331.69352 
L 1242.913471 331.69352 
L 1244.226798 317.447222 
L 1245.540126 331.69352 
L 1246.853453 313.359505 
L 1248.166781 331.69352 
L 1249.480108 316.324111 
L 1250.793436 331.69352 
L 1252.106763 331.69352 
L 1253.42009 315.706907 
L 1254.733418 331.69352 
L 1256.046745 312.31734 
L 1257.360073 331.69352 
L 1261.300055 331.69352 
L 1262.613383 311.518009 
L 1263.92671 331.69352 
L 1265.240038 287.355963 
L 1266.553365 331.69352 
L 1267.866692 305.720332 
L 1269.18002 331.69352 
L 1273.120002 331.69352 
L 1274.43333 274.880333 
L 1275.746657 331.69352 
L 1279.686639 331.69352 
L 1280.999967 300.286907 
L 1282.313294 301.389781 
L 1283.626622 306.752379 
L 1284.939949 331.69352 
L 1288.879932 331.69352 
L 1290.193259 252.276476 
L 1291.506586 331.69352 
L 1292.819914 289.733719 
L 1294.133241 331.69352 
L 1296.759896 331.69352 
L 1298.073224 294.044033 
L 1299.386551 295.956356 
L 1300.699879 331.69352 
L 1302.013206 287.275018 
L 1303.326534 331.69352 
L 1305.953188 331.69352 
L 1307.266516 289.622419 
L 1307.266516 289.622419 
" clip-path="url(#p2ca229ada4)" style="fill: none; stroke: #0000ff; stroke-width: 1.5; stroke-linecap: square"/>
   </g>
   <g id="line2d_19">
    <path d="M 1068.24092 253.295996 
L 1069.554248 228.097795 
L 1070.867575 207.643958 
L 1072.180902 215.270455 
L 1073.49423 203.03668 
L 1074.807557 301.061371 
L 1076.120885 168.126249 
L 1077.434212 253.591367 
L 1078.74754 265.911228 
L 1080.060867 239.627509 
L 1081.374195 275.340694 
L 1082.687522 279.348524 
L 1084.00085 353.2755 
L 1085.314177 271.23815 
L 1086.627504 337.958141 
L 1087.940832 333.324282 
L 1089.254159 332.782235 
L 1090.567487 328.456325 
L 1091.880814 340.964353 
L 1093.194142 347.30678 
L 1094.507469 326.981036 
L 1095.820797 332.555536 
L 1098.447451 314.337496 
L 1099.760779 315.26627 
L 1101.074106 320.54687 
L 1102.387434 332.369654 
L 1103.700761 319.405839 
L 1105.014089 331.48158 
L 1106.327416 334.040463 
L 1107.640744 323.752187 
L 1108.954071 324.895175 
L 1110.267398 329.130066 
L 1111.580726 323.849821 
L 1112.894053 327.321561 
L 1114.207381 312.632674 
L 1115.520708 317.89241 
L 1116.834036 320.054358 
L 1118.147363 319.448151 
L 1119.460691 330.239209 
L 1120.774018 333.989584 
L 1122.087346 317.705622 
L 1123.400673 328.609149 
L 1124.714 326.798531 
L 1126.027328 329.887602 
L 1127.340655 331.519367 
L 1128.653983 334.34221 
L 1129.96731 333.256751 
L 1131.280638 330.444672 
L 1132.593965 329.285765 
L 1133.907293 332.57711 
L 1135.22062 316.849672 
L 1136.533947 333.373167 
L 1137.847275 329.361028 
L 1139.160602 328.738763 
L 1140.47393 327.191159 
L 1141.787257 327.041286 
L 1143.100585 330.212089 
L 1144.413912 310.508777 
L 1145.72724 331.294382 
L 1147.040567 332.015301 
L 1148.353895 332.142273 
L 1149.667222 332.393961 
L 1150.980549 332.420421 
L 1152.293877 331.92499 
L 1153.607204 319.175609 
L 1154.920532 332.320853 
L 1156.233859 330.804336 
L 1157.547187 330.570306 
L 1158.860514 329.983294 
L 1160.173842 329.926608 
L 1161.487169 333.312325 
L 1162.800496 315.711324 
L 1164.113824 326.244392 
L 1166.740479 328.663687 
L 1168.053806 332.096428 
L 1169.367134 319.088529 
L 1170.680461 329.095582 
L 1173.307116 333.039083 
L 1174.620444 328.833045 
L 1175.933771 335.576692 
L 1177.247098 331.653015 
L 1178.560426 328.18268 
L 1179.873753 330.135109 
L 1181.187081 329.140618 
L 1182.500408 330.933702 
L 1183.813736 321.149111 
L 1185.127063 329.372836 
L 1186.440391 330.206524 
L 1187.753718 326.514343 
L 1189.067045 332.019219 
L 1190.380373 328.550799 
L 1191.6937 331.712357 
L 1193.007028 326.858766 
L 1194.320355 331.1735 
L 1195.633683 330.959812 
L 1196.94701 327.255832 
L 1198.260338 331.170882 
L 1199.573665 327.903666 
L 1200.886992 331.892278 
L 1202.20032 326.906526 
L 1203.513647 330.814974 
L 1204.826975 330.190631 
L 1206.140302 327.257635 
L 1207.45363 331.587863 
L 1208.766957 325.098006 
L 1210.080285 330.451825 
L 1211.393612 326.08802 
L 1212.70694 329.852844 
L 1214.020267 330.124371 
L 1215.333594 324.132324 
L 1216.646922 329.792964 
L 1217.960249 327.091056 
L 1219.273577 333.684987 
L 1220.586904 326.999502 
L 1221.900232 331.906949 
L 1223.213559 328.50561 
L 1224.526887 327.833894 
L 1225.840214 330.417688 
L 1227.153541 318.533891 
L 1228.466869 329.512623 
L 1229.780196 323.227035 
L 1231.093524 328.599019 
L 1232.406851 332.002524 
L 1233.720179 327.140863 
L 1235.033506 333.776657 
L 1236.346834 326.419947 
L 1237.660161 333.373119 
L 1238.973489 328.454169 
L 1240.286816 329.221763 
L 1241.600143 324.286561 
L 1242.913471 317.749551 
L 1244.226798 326.520593 
L 1245.540126 309.739304 
L 1246.853453 328.736577 
L 1248.166781 318.086789 
L 1249.480108 328.977202 
L 1250.793436 329.186449 
L 1252.106763 319.768313 
L 1253.42009 330.438072 
L 1254.733418 316.425732 
L 1256.046745 330.642203 
L 1257.360073 318.052436 
L 1258.6734 327.269291 
L 1259.986728 330.684281 
L 1261.300055 320.500526 
L 1262.613383 335.08569 
L 1263.92671 319.980957 
L 1265.240038 334.121018 
L 1266.553365 324.382016 
L 1267.866692 325.581599 
L 1269.18002 317.466354 
L 1270.493347 302.8774 
L 1271.806675 319.324969 
L 1273.120002 294.423772 
L 1274.43333 334.328972 
L 1275.746657 312.962625 
L 1277.059985 328.603979 
L 1278.373312 327.861318 
L 1279.686639 327.450618 
L 1280.999967 337.868565 
L 1282.313294 295.711547 
L 1283.626622 320.788053 
L 1284.939949 319.019167 
L 1286.253277 315.84623 
L 1287.566604 323.491356 
L 1288.879932 310.533643 
L 1290.193259 317.134261 
L 1291.506586 303.359966 
L 1292.819914 326.202329 
L 1294.133241 314.589003 
L 1295.446569 315.15084 
L 1296.759896 324.992917 
L 1298.073224 273.742183 
L 1299.386551 321.445925 
L 1300.699879 297.684577 
L 1302.013206 325.532768 
L 1303.326534 323.145326 
L 1304.639861 330.680708 
L 1305.953188 301.847095 
L 1307.266516 304.272036 
L 1307.266516 304.272036 
" clip-path="url(#p2ca229ada4)" style="fill: none; stroke: #ffa500; stroke-width: 1.5; stroke-linecap: square"/>
   </g>
   <g id="line2d_20">
    <path d="M 1307.266516 304.272036 
L 1308.579843 327.984142 
L 1309.893171 297.493943 
L 1311.206498 325.928464 
L 1312.519826 325.056169 
L 1313.833153 327.138877 
L 1315.146481 298.078857 
L 1316.459808 307.869632 
L 1317.773135 323.708276 
L 1319.086463 302.927298 
L 1320.39979 322.741806 
L 1321.713118 322.068292 
L 1323.026445 323.402922 
L 1324.339773 303.418252 
" clip-path="url(#p2ca229ada4)" style="fill: none; stroke: #ff0000; stroke-width: 1.5; stroke-linecap: square"/>
   </g>
   <g id="patch_3">
    <path d="M 46.0125 368.3955 
L 46.0125 35.7555 
" style="fill: none; stroke: #000000; stroke-width: 0.8; stroke-linejoin: miter; stroke-linecap: square"/>
   </g>
   <g id="patch_4">
    <path d="M 1385.2125 368.3955 
L 1385.2125 35.7555 
" style="fill: none; stroke: #000000; stroke-width: 0.8; stroke-linejoin: miter; stroke-linecap: square"/>
   </g>
   <g id="patch_5">
    <path d="M 46.0125 368.3955 
L 1385.2125 368.3955 
" style="fill: none; stroke: #000000; stroke-width: 0.8; stroke-linejoin: miter; stroke-linecap: square"/>
   </g>
   <g id="patch_6">
    <path d="M 46.0125 35.7555 
L 1385.2125 35.7555 
" style="fill: none; stroke: #000000; stroke-width: 0.8; stroke-linejoin: miter; stroke-linecap: square"/>
   </g>
   <g id="text_18">
    <!-- Daily Confirmed Cases Forecasting - Oklahoma -->
    <g transform="translate(574.575938 16.318125)scale(0.12 -0.12)">
     <defs>
      <path id="DejaVuSans-44" d="M 1259 4147 
L 1259 519 
L 2022 519 
Q 2988 519 3436 956 
Q 3884 1394 3884 2338 
Q 3884 3275 3436 3711 
Q 2988 4147 2022 4147 
L 1259 4147 
z
M 628 4666 
L 1925 4666 
Q 3281 4666 3915 4102 
Q 4550 3538 4550 2338 
Q 4550 1131 3912 565 
Q 3275 0 1925 0 
L 628 0 
L 628 4666 
z
" transform="scale(0.015625)"/>
      <path id="DejaVuSans-61" d="M 2194 1759 
Q 1497 1759 1228 1600 
Q 959 1441 959 1056 
Q 959 750 1161 570 
Q 1363 391 1709 391 
Q 2188 391 2477 730 
Q 2766 1069 2766 1631 
L 2766 1759 
L 2194 1759 
z
M 3341 1997 
L 3341 0 
L 2766 0 
L 2766 531 
Q 2569 213 2275 61 
Q 1981 -91 1556 -91 
Q 1019 -91 701 211 
Q 384 513 384 1019 
Q 384 1609 779 1909 
Q 1175 2209 1959 2209 
L 2766 2209 
L 2766 2266 
Q 2766 2663 2505 2880 
Q 2244 3097 1772 3097 
Q 1472 3097 1187 3025 
Q 903 2953 641 2809 
L 641 3341 
Q 956 3463 1253 3523 
Q 1550 3584 1831 3584 
Q 2591 3584 2966 3190 
Q 3341 2797 3341 1997 
z
" transform="scale(0.015625)"/>
      <path id="DejaVuSans-69" d="M 603 3500 
L 1178 3500 
L 1178 0 
L 603 0 
L 603 3500 
z
M 603 4863 
L 1178 4863 
L 1178 4134 
L 603 4134 
L 603 4863 
z
" transform="scale(0.015625)"/>
      <path id="DejaVuSans-6c" d="M 603 4863 
L 1178 4863 
L 1178 0 
L 603 0 
L 603 4863 
z
" transform="scale(0.015625)"/>
      <path id="DejaVuSans-79" d="M 2059 -325 
Q 1816 -950 1584 -1140 
Q 1353 -1331 966 -1331 
L 506 -1331 
L 506 -850 
L 844 -850 
Q 1081 -850 1212 -737 
Q 1344 -625 1503 -206 
L 1606 56 
L 191 3500 
L 800 3500 
L 1894 763 
L 2988 3500 
L 3597 3500 
L 2059 -325 
z
" transform="scale(0.015625)"/>
      <path id="DejaVuSans-20" transform="scale(0.015625)"/>
      <path id="DejaVuSans-43" d="M 4122 4306 
L 4122 3641 
Q 3803 3938 3442 4084 
Q 3081 4231 2675 4231 
Q 1875 4231 1450 3742 
Q 1025 3253 1025 2328 
Q 1025 1406 1450 917 
Q 1875 428 2675 428 
Q 3081 428 3442 575 
Q 3803 722 4122 1019 
L 4122 359 
Q 3791 134 3420 21 
Q 3050 -91 2638 -91 
Q 1578 -91 968 557 
Q 359 1206 359 2328 
Q 359 3453 968 4101 
Q 1578 4750 2638 4750 
Q 3056 4750 3426 4639 
Q 3797 4528 4122 4306 
z
" transform="scale(0.015625)"/>
      <path id="DejaVuSans-6f" d="M 1959 3097 
Q 1497 3097 1228 2736 
Q 959 2375 959 1747 
Q 959 1119 1226 758 
Q 1494 397 1959 397 
Q 2419 397 2687 759 
Q 2956 1122 2956 1747 
Q 2956 2369 2687 2733 
Q 2419 3097 1959 3097 
z
M 1959 3584 
Q 2709 3584 3137 3096 
Q 3566 2609 3566 1747 
Q 3566 888 3137 398 
Q 2709 -91 1959 -91 
Q 1206 -91 779 398 
Q 353 888 353 1747 
Q 353 2609 779 3096 
Q 1206 3584 1959 3584 
z
" transform="scale(0.015625)"/>
      <path id="DejaVuSans-6e" d="M 3513 2113 
L 3513 0 
L 2938 0 
L 2938 2094 
Q 2938 2591 2744 2837 
Q 2550 3084 2163 3084 
Q 1697 3084 1428 2787 
Q 1159 2491 1159 1978 
L 1159 0 
L 581 0 
L 581 3500 
L 1159 3500 
L 1159 2956 
Q 1366 3272 1645 3428 
Q 1925 3584 2291 3584 
Q 2894 3584 3203 3211 
Q 3513 2838 3513 2113 
z
" transform="scale(0.015625)"/>
      <path id="DejaVuSans-66" d="M 2375 4863 
L 2375 4384 
L 1825 4384 
Q 1516 4384 1395 4259 
Q 1275 4134 1275 3809 
L 1275 3500 
L 2222 3500 
L 2222 3053 
L 1275 3053 
L 1275 0 
L 697 0 
L 697 3053 
L 147 3053 
L 147 3500 
L 697 3500 
L 697 3744 
Q 697 4328 969 4595 
Q 1241 4863 1831 4863 
L 2375 4863 
z
" transform="scale(0.015625)"/>
      <path id="DejaVuSans-72" d="M 2631 2963 
Q 2534 3019 2420 3045 
Q 2306 3072 2169 3072 
Q 1681 3072 1420 2755 
Q 1159 2438 1159 1844 
L 1159 0 
L 581 0 
L 581 3500 
L 1159 3500 
L 1159 2956 
Q 1341 3275 1631 3429 
Q 1922 3584 2338 3584 
Q 2397 3584 2469 3576 
Q 2541 3569 2628 3553 
L 2631 2963 
z
" transform="scale(0.015625)"/>
      <path id="DejaVuSans-6d" d="M 3328 2828 
Q 3544 3216 3844 3400 
Q 4144 3584 4550 3584 
Q 5097 3584 5394 3201 
Q 5691 2819 5691 2113 
L 5691 0 
L 5113 0 
L 5113 2094 
Q 5113 2597 4934 2840 
Q 4756 3084 4391 3084 
Q 3944 3084 3684 2787 
Q 3425 2491 3425 1978 
L 3425 0 
L 2847 0 
L 2847 2094 
Q 2847 2600 2669 2842 
Q 2491 3084 2119 3084 
Q 1678 3084 1418 2786 
Q 1159 2488 1159 1978 
L 1159 0 
L 581 0 
L 581 3500 
L 1159 3500 
L 1159 2956 
Q 1356 3278 1631 3431 
Q 1906 3584 2284 3584 
Q 2666 3584 2933 3390 
Q 3200 3197 3328 2828 
z
" transform="scale(0.015625)"/>
      <path id="DejaVuSans-65" d="M 3597 1894 
L 3597 1613 
L 953 1613 
Q 991 1019 1311 708 
Q 1631 397 2203 397 
Q 2534 397 2845 478 
Q 3156 559 3463 722 
L 3463 178 
Q 3153 47 2828 -22 
Q 2503 -91 2169 -91 
Q 1331 -91 842 396 
Q 353 884 353 1716 
Q 353 2575 817 3079 
Q 1281 3584 2069 3584 
Q 2775 3584 3186 3129 
Q 3597 2675 3597 1894 
z
M 3022 2063 
Q 3016 2534 2758 2815 
Q 2500 3097 2075 3097 
Q 1594 3097 1305 2825 
Q 1016 2553 972 2059 
L 3022 2063 
z
" transform="scale(0.015625)"/>
      <path id="DejaVuSans-64" d="M 2906 2969 
L 2906 4863 
L 3481 4863 
L 3481 0 
L 2906 0 
L 2906 525 
Q 2725 213 2448 61 
Q 2172 -91 1784 -91 
Q 1150 -91 751 415 
Q 353 922 353 1747 
Q 353 2572 751 3078 
Q 1150 3584 1784 3584 
Q 2172 3584 2448 3432 
Q 2725 3281 2906 2969 
z
M 947 1747 
Q 947 1113 1208 752 
Q 1469 391 1925 391 
Q 2381 391 2643 752 
Q 2906 1113 2906 1747 
Q 2906 2381 2643 2742 
Q 2381 3103 1925 3103 
Q 1469 3103 1208 2742 
Q 947 2381 947 1747 
z
" transform="scale(0.015625)"/>
      <path id="DejaVuSans-73" d="M 2834 3397 
L 2834 2853 
Q 2591 2978 2328 3040 
Q 2066 3103 1784 3103 
Q 1356 3103 1142 2972 
Q 928 2841 928 2578 
Q 928 2378 1081 2264 
Q 1234 2150 1697 2047 
L 1894 2003 
Q 2506 1872 2764 1633 
Q 3022 1394 3022 966 
Q 3022 478 2636 193 
Q 2250 -91 1575 -91 
Q 1294 -91 989 -36 
Q 684 19 347 128 
L 347 722 
Q 666 556 975 473 
Q 1284 391 1588 391 
Q 1994 391 2212 530 
Q 2431 669 2431 922 
Q 2431 1156 2273 1281 
Q 2116 1406 1581 1522 
L 1381 1569 
Q 847 1681 609 1914 
Q 372 2147 372 2553 
Q 372 3047 722 3315 
Q 1072 3584 1716 3584 
Q 2034 3584 2315 3537 
Q 2597 3491 2834 3397 
z
" transform="scale(0.015625)"/>
      <path id="DejaVuSans-46" d="M 628 4666 
L 3309 4666 
L 3309 4134 
L 1259 4134 
L 1259 2759 
L 3109 2759 
L 3109 2228 
L 1259 2228 
L 1259 0 
L 628 0 
L 628 4666 
z
" transform="scale(0.015625)"/>
      <path id="DejaVuSans-63" d="M 3122 3366 
L 3122 2828 
Q 2878 2963 2633 3030 
Q 2388 3097 2138 3097 
Q 1578 3097 1268 2742 
Q 959 2388 959 1747 
Q 959 1106 1268 751 
Q 1578 397 2138 397 
Q 2388 397 2633 464 
Q 2878 531 3122 666 
L 3122 134 
Q 2881 22 2623 -34 
Q 2366 -91 2075 -91 
Q 1284 -91 818 406 
Q 353 903 353 1747 
Q 353 2603 823 3093 
Q 1294 3584 2113 3584 
Q 2378 3584 2631 3529 
Q 2884 3475 3122 3366 
z
" transform="scale(0.015625)"/>
      <path id="DejaVuSans-74" d="M 1172 4494 
L 1172 3500 
L 2356 3500 
L 2356 3053 
L 1172 3053 
L 1172 1153 
Q 1172 725 1289 603 
Q 1406 481 1766 481 
L 2356 481 
L 2356 0 
L 1766 0 
Q 1100 0 847 248 
Q 594 497 594 1153 
L 594 3053 
L 172 3053 
L 172 3500 
L 594 3500 
L 594 4494 
L 1172 4494 
z
" transform="scale(0.015625)"/>
      <path id="DejaVuSans-67" d="M 2906 1791 
Q 2906 2416 2648 2759 
Q 2391 3103 1925 3103 
Q 1463 3103 1205 2759 
Q 947 2416 947 1791 
Q 947 1169 1205 825 
Q 1463 481 1925 481 
Q 2391 481 2648 825 
Q 2906 1169 2906 1791 
z
M 3481 434 
Q 3481 -459 3084 -895 
Q 2688 -1331 1869 -1331 
Q 1566 -1331 1297 -1286 
Q 1028 -1241 775 -1147 
L 775 -588 
Q 1028 -725 1275 -790 
Q 1522 -856 1778 -856 
Q 2344 -856 2625 -561 
Q 2906 -266 2906 331 
L 2906 616 
Q 2728 306 2450 153 
Q 2172 0 1784 0 
Q 1141 0 747 490 
Q 353 981 353 1791 
Q 353 2603 747 3093 
Q 1141 3584 1784 3584 
Q 2172 3584 2450 3431 
Q 2728 3278 2906 2969 
L 2906 3500 
L 3481 3500 
L 3481 434 
z
" transform="scale(0.015625)"/>
      <path id="DejaVuSans-4f" d="M 2522 4238 
Q 1834 4238 1429 3725 
Q 1025 3213 1025 2328 
Q 1025 1447 1429 934 
Q 1834 422 2522 422 
Q 3209 422 3611 934 
Q 4013 1447 4013 2328 
Q 4013 3213 3611 3725 
Q 3209 4238 2522 4238 
z
M 2522 4750 
Q 3503 4750 4090 4092 
Q 4678 3434 4678 2328 
Q 4678 1225 4090 567 
Q 3503 -91 2522 -91 
Q 1538 -91 948 565 
Q 359 1222 359 2328 
Q 359 3434 948 4092 
Q 1538 4750 2522 4750 
z
" transform="scale(0.015625)"/>
      <path id="DejaVuSans-6b" d="M 581 4863 
L 1159 4863 
L 1159 1991 
L 2875 3500 
L 3609 3500 
L 1753 1863 
L 3688 0 
L 2938 0 
L 1159 1709 
L 1159 0 
L 581 0 
L 581 4863 
z
" transform="scale(0.015625)"/>
      <path id="DejaVuSans-68" d="M 3513 2113 
L 3513 0 
L 2938 0 
L 2938 2094 
Q 2938 2591 2744 2837 
Q 2550 3084 2163 3084 
Q 1697 3084 1428 2787 
Q 1159 2491 1159 1978 
L 1159 0 
L 581 0 
L 581 4863 
L 1159 4863 
L 1159 2956 
Q 1366 3272 1645 3428 
Q 1925 3584 2291 3584 
Q 2894 3584 3203 3211 
Q 3513 2838 3513 2113 
z
" transform="scale(0.015625)"/>
     </defs>
     <use xlink:href="#DejaVuSans-44"/>
     <use xlink:href="#DejaVuSans-61" x="77.001953"/>
     <use xlink:href="#DejaVuSans-69" x="138.28125"/>
     <use xlink:href="#DejaVuSans-6c" x="166.064453"/>
     <use xlink:href="#DejaVuSans-79" x="193.847656"/>
     <use xlink:href="#DejaVuSans-20" x="253.027344"/>
     <use xlink:href="#DejaVuSans-43" x="284.814453"/>
     <use xlink:href="#DejaVuSans-6f" x="354.638672"/>
     <use xlink:href="#DejaVuSans-6e" x="415.820312"/>
     <use xlink:href="#DejaVuSans-66" x="479.199219"/>
     <use xlink:href="#DejaVuSans-69" x="514.404297"/>
     <use xlink:href="#DejaVuSans-72" x="542.1875"/>
     <use xlink:href="#DejaVuSans-6d" x="581.550781"/>
     <use xlink:href="#DejaVuSans-65" x="678.962891"/>
     <use xlink:href="#DejaVuSans-64" x="740.486328"/>
     <use xlink:href="#DejaVuSans-20" x="803.962891"/>
     <use xlink:href="#DejaVuSans-43" x="835.75"/>
     <use xlink:href="#DejaVuSans-61" x="905.574219"/>
     <use xlink:href="#DejaVuSans-73" x="966.853516"/>
     <use xlink:href="#DejaVuSans-65" x="1018.953125"/>
     <use xlink:href="#DejaVuSans-73" x="1080.476562"/>
     <use xlink:href="#DejaVuSans-20" x="1132.576172"/>
     <use xlink:href="#DejaVuSans-46" x="1164.363281"/>
     <use xlink:href="#DejaVuSans-6f" x="1218.257812"/>
     <use xlink:href="#DejaVuSans-72" x="1279.439453"/>
     <use xlink:href="#DejaVuSans-65" x="1318.302734"/>
     <use xlink:href="#DejaVuSans-63" x="1379.826172"/>
     <use xlink:href="#DejaVuSans-61" x="1434.806641"/>
     <use xlink:href="#DejaVuSans-73" x="1496.085938"/>
     <use xlink:href="#DejaVuSans-74" x="1548.185547"/>
     <use xlink:href="#DejaVuSans-69" x="1587.394531"/>
     <use xlink:href="#DejaVuSans-6e" x="1615.177734"/>
     <use xlink:href="#DejaVuSans-67" x="1678.556641"/>
     <use xlink:href="#DejaVuSans-20" x="1742.033203"/>
     <use xlink:href="#DejaVuSans-2d" x="1773.820312"/>
     <use xlink:href="#DejaVuSans-20" x="1809.904297"/>
     <use xlink:href="#DejaVuSans-4f" x="1841.691406"/>
     <use xlink:href="#DejaVuSans-6b" x="1920.402344"/>
     <use xlink:href="#DejaVuSans-6c" x="1978.3125"/>
     <use xlink:href="#DejaVuSans-61" x="2006.095703"/>
     <use xlink:href="#DejaVuSans-68" x="2067.375"/>
     <use xlink:href="#DejaVuSans-6f" x="2130.753906"/>
     <use xlink:href="#DejaVuSans-6d" x="2191.935547"/>
     <use xlink:href="#DejaVuSans-61" x="2289.347656"/>
    </g>
    <!-- ARIMA (4, 1, 1)x(1, 0, 0, 7) (R2 = 0.171981) -->
    <g transform="translate(583.628438 29.7555)scale(0.12 -0.12)">
     <defs>
      <path id="DejaVuSans-41" d="M 2188 4044 
L 1331 1722 
L 3047 1722 
L 2188 4044 
z
M 1831 4666 
L 2547 4666 
L 4325 0 
L 3669 0 
L 3244 1197 
L 1141 1197 
L 716 0 
L 50 0 
L 1831 4666 
z
" transform="scale(0.015625)"/>
      <path id="DejaVuSans-52" d="M 2841 2188 
Q 3044 2119 3236 1894 
Q 3428 1669 3622 1275 
L 4263 0 
L 3584 0 
L 2988 1197 
Q 2756 1666 2539 1819 
Q 2322 1972 1947 1972 
L 1259 1972 
L 1259 0 
L 628 0 
L 628 4666 
L 2053 4666 
Q 2853 4666 3247 4331 
Q 3641 3997 3641 3322 
Q 3641 2881 3436 2590 
Q 3231 2300 2841 2188 
z
M 1259 4147 
L 1259 2491 
L 2053 2491 
Q 2509 2491 2742 2702 
Q 2975 2913 2975 3322 
Q 2975 3731 2742 3939 
Q 2509 4147 2053 4147 
L 1259 4147 
z
" transform="scale(0.015625)"/>
      <path id="DejaVuSans-49" d="M 628 4666 
L 1259 4666 
L 1259 0 
L 628 0 
L 628 4666 
z
" transform="scale(0.015625)"/>
      <path id="DejaVuSans-4d" d="M 628 4666 
L 1569 4666 
L 2759 1491 
L 3956 4666 
L 4897 4666 
L 4897 0 
L 4281 0 
L 4281 4097 
L 3078 897 
L 2444 897 
L 1241 4097 
L 1241 0 
L 628 0 
L 628 4666 
z
" transform="scale(0.015625)"/>
      <path id="DejaVuSans-28" d="M 1984 4856 
Q 1566 4138 1362 3434 
Q 1159 2731 1159 2009 
Q 1159 1288 1364 580 
Q 1569 -128 1984 -844 
L 1484 -844 
Q 1016 -109 783 600 
Q 550 1309 550 2009 
Q 550 2706 781 3412 
Q 1013 4119 1484 4856 
L 1984 4856 
z
" transform="scale(0.015625)"/>
      <path id="DejaVuSans-2c" d="M 750 794 
L 1409 794 
L 1409 256 
L 897 -744 
L 494 -744 
L 750 256 
L 750 794 
z
" transform="scale(0.015625)"/>
      <path id="DejaVuSans-29" d="M 513 4856 
L 1013 4856 
Q 1481 4119 1714 3412 
Q 1947 2706 1947 2009 
Q 1947 1309 1714 600 
Q 1481 -109 1013 -844 
L 513 -844 
Q 928 -128 1133 580 
Q 1338 1288 1338 2009 
Q 1338 2731 1133 3434 
Q 928 4138 513 4856 
z
" transform="scale(0.015625)"/>
      <path id="DejaVuSans-78" d="M 3513 3500 
L 2247 1797 
L 3578 0 
L 2900 0 
L 1881 1375 
L 863 0 
L 184 0 
L 1544 1831 
L 300 3500 
L 978 3500 
L 1906 2253 
L 2834 3500 
L 3513 3500 
z
" transform="scale(0.015625)"/>
      <path id="DejaVuSans-3d" d="M 678 2906 
L 4684 2906 
L 4684 2381 
L 678 2381 
L 678 2906 
z
M 678 1631 
L 4684 1631 
L 4684 1100 
L 678 1100 
L 678 1631 
z
" transform="scale(0.015625)"/>
      <path id="DejaVuSans-2e" d="M 684 794 
L 1344 794 
L 1344 0 
L 684 0 
L 684 794 
z
" transform="scale(0.015625)"/>
      <path id="DejaVuSans-39" d="M 703 97 
L 703 672 
Q 941 559 1184 500 
Q 1428 441 1663 441 
Q 2288 441 2617 861 
Q 2947 1281 2994 2138 
Q 2813 1869 2534 1725 
Q 2256 1581 1919 1581 
Q 1219 1581 811 2004 
Q 403 2428 403 3163 
Q 403 3881 828 4315 
Q 1253 4750 1959 4750 
Q 2769 4750 3195 4129 
Q 3622 3509 3622 2328 
Q 3622 1225 3098 567 
Q 2575 -91 1691 -91 
Q 1453 -91 1209 -44 
Q 966 3 703 97 
z
M 1959 2075 
Q 2384 2075 2632 2365 
Q 2881 2656 2881 3163 
Q 2881 3666 2632 3958 
Q 2384 4250 1959 4250 
Q 1534 4250 1286 3958 
Q 1038 3666 1038 3163 
Q 1038 2656 1286 2365 
Q 1534 2075 1959 2075 
z
" transform="scale(0.015625)"/>
      <path id="DejaVuSans-38" d="M 2034 2216 
Q 1584 2216 1326 1975 
Q 1069 1734 1069 1313 
Q 1069 891 1326 650 
Q 1584 409 2034 409 
Q 2484 409 2743 651 
Q 3003 894 3003 1313 
Q 3003 1734 2745 1975 
Q 2488 2216 2034 2216 
z
M 1403 2484 
Q 997 2584 770 2862 
Q 544 3141 544 3541 
Q 544 4100 942 4425 
Q 1341 4750 2034 4750 
Q 2731 4750 3128 4425 
Q 3525 4100 3525 3541 
Q 3525 3141 3298 2862 
Q 3072 2584 2669 2484 
Q 3125 2378 3379 2068 
Q 3634 1759 3634 1313 
Q 3634 634 3220 271 
Q 2806 -91 2034 -91 
Q 1263 -91 848 271 
Q 434 634 434 1313 
Q 434 1759 690 2068 
Q 947 2378 1403 2484 
z
M 1172 3481 
Q 1172 3119 1398 2916 
Q 1625 2713 2034 2713 
Q 2441 2713 2670 2916 
Q 2900 3119 2900 3481 
Q 2900 3844 2670 4047 
Q 2441 4250 2034 4250 
Q 1625 4250 1398 4047 
Q 1172 3844 1172 3481 
z
" transform="scale(0.015625)"/>
     </defs>
     <use xlink:href="#DejaVuSans-41"/>
     <use xlink:href="#DejaVuSans-52" x="68.408203"/>
     <use xlink:href="#DejaVuSans-49" x="137.890625"/>
     <use xlink:href="#DejaVuSans-4d" x="167.382812"/>
     <use xlink:href="#DejaVuSans-41" x="253.662109"/>
     <use xlink:href="#DejaVuSans-20" x="322.070312"/>
     <use xlink:href="#DejaVuSans-28" x="353.857422"/>
     <use xlink:href="#DejaVuSans-34" x="392.871094"/>
     <use xlink:href="#DejaVuSans-2c" x="456.494141"/>
     <use xlink:href="#DejaVuSans-20" x="488.28125"/>
     <use xlink:href="#DejaVuSans-31" x="520.068359"/>
     <use xlink:href="#DejaVuSans-2c" x="583.691406"/>
     <use xlink:href="#DejaVuSans-20" x="615.478516"/>
     <use xlink:href="#DejaVuSans-31" x="647.265625"/>
     <use xlink:href="#DejaVuSans-29" x="710.888672"/>
     <use xlink:href="#DejaVuSans-78" x="749.902344"/>
     <use xlink:href="#DejaVuSans-28" x="809.082031"/>
     <use xlink:href="#DejaVuSans-31" x="848.095703"/>
     <use xlink:href="#DejaVuSans-2c" x="911.71875"/>
     <use xlink:href="#DejaVuSans-20" x="943.505859"/>
     <use xlink:href="#DejaVuSans-30" x="975.292969"/>
     <use xlink:href="#DejaVuSans-2c" x="1038.916016"/>
     <use xlink:href="#DejaVuSans-20" x="1070.703125"/>
     <use xlink:href="#DejaVuSans-30" x="1102.490234"/>
     <use xlink:href="#DejaVuSans-2c" x="1166.113281"/>
     <use xlink:href="#DejaVuSans-20" x="1197.900391"/>
     <use xlink:href="#DejaVuSans-37" x="1229.6875"/>
     <use xlink:href="#DejaVuSans-29" x="1293.310547"/>
     <use xlink:href="#DejaVuSans-20" x="1332.324219"/>
     <use xlink:href="#DejaVuSans-28" x="1364.111328"/>
     <use xlink:href="#DejaVuSans-52" x="1403.125"/>
     <use xlink:href="#DejaVuSans-32" x="1472.607422"/>
     <use xlink:href="#DejaVuSans-20" x="1536.230469"/>
     <use xlink:href="#DejaVuSans-3d" x="1568.017578"/>
     <use xlink:href="#DejaVuSans-20" x="1651.806641"/>
     <use xlink:href="#DejaVuSans-30" x="1683.59375"/>
     <use xlink:href="#DejaVuSans-2e" x="1747.216797"/>
     <use xlink:href="#DejaVuSans-31" x="1779.003906"/>
     <use xlink:href="#DejaVuSans-37" x="1842.626953"/>
     <use xlink:href="#DejaVuSans-31" x="1906.25"/>
     <use xlink:href="#DejaVuSans-39" x="1969.873047"/>
     <use xlink:href="#DejaVuSans-38" x="2033.496094"/>
     <use xlink:href="#DejaVuSans-31" x="2097.119141"/>
     <use xlink:href="#DejaVuSans-29" x="2160.742188"/>
    </g>
   </g>
   <g id="legend_1">
    <g id="patch_7">
     <path d="M 1281.132812 87.789875 
L 1378.2125 87.789875 
Q 1380.2125 87.789875 1380.2125 85.789875 
L 1380.2125 42.7555 
Q 1380.2125 40.7555 1378.2125 40.7555 
L 1281.132812 40.7555 
Q 1279.132812 40.7555 1279.132812 42.7555 
L 1279.132812 85.789875 
Q 1279.132812 87.789875 1281.132812 87.789875 
z
" style="fill: #ffffff; opacity: 0.8; stroke: #cccccc; stroke-linejoin: miter"/>
    </g>
    <g id="line2d_21">
     <path d="M 1283.132812 48.853937 
L 1293.132812 48.853937 
L 1303.132812 48.853937 
" style="fill: none; stroke: #0000ff; stroke-width: 1.5; stroke-linecap: square"/>
    </g>
    <g id="text_19">
     <!-- Actual Value -->
     <g transform="translate(1311.132812 52.353937)scale(0.1 -0.1)">
      <defs>
       <path id="DejaVuSans-75" d="M 544 1381 
L 544 3500 
L 1119 3500 
L 1119 1403 
Q 1119 906 1312 657 
Q 1506 409 1894 409 
Q 2359 409 2629 706 
Q 2900 1003 2900 1516 
L 2900 3500 
L 3475 3500 
L 3475 0 
L 2900 0 
L 2900 538 
Q 2691 219 2414 64 
Q 2138 -91 1772 -91 
Q 1169 -91 856 284 
Q 544 659 544 1381 
z
M 1991 3584 
L 1991 3584 
z
" transform="scale(0.015625)"/>
       <path id="DejaVuSans-56" d="M 1831 0 
L 50 4666 
L 709 4666 
L 2188 738 
L 3669 4666 
L 4325 4666 
L 2547 0 
L 1831 0 
z
" transform="scale(0.015625)"/>
      </defs>
      <use xlink:href="#DejaVuSans-41"/>
      <use xlink:href="#DejaVuSans-63" x="66.658203"/>
      <use xlink:href="#DejaVuSans-74" x="121.638672"/>
      <use xlink:href="#DejaVuSans-75" x="160.847656"/>
      <use xlink:href="#DejaVuSans-61" x="224.226562"/>
      <use xlink:href="#DejaVuSans-6c" x="285.505859"/>
      <use xlink:href="#DejaVuSans-20" x="313.289062"/>
      <use xlink:href="#DejaVuSans-56" x="345.076172"/>
      <use xlink:href="#DejaVuSans-61" x="405.734375"/>
      <use xlink:href="#DejaVuSans-6c" x="467.013672"/>
      <use xlink:href="#DejaVuSans-75" x="494.796875"/>
      <use xlink:href="#DejaVuSans-65" x="558.175781"/>
     </g>
    </g>
    <g id="line2d_22">
     <path d="M 1283.132812 63.532062 
L 1293.132812 63.532062 
L 1303.132812 63.532062 
" style="fill: none; stroke: #ffa500; stroke-width: 1.5; stroke-linecap: square"/>
    </g>
    <g id="text_20">
     <!-- Check Value -->
     <g transform="translate(1311.132812 67.032062)scale(0.1 -0.1)">
      <use xlink:href="#DejaVuSans-43"/>
      <use xlink:href="#DejaVuSans-68" x="69.824219"/>
      <use xlink:href="#DejaVuSans-65" x="133.203125"/>
      <use xlink:href="#DejaVuSans-63" x="194.726562"/>
      <use xlink:href="#DejaVuSans-6b" x="249.707031"/>
      <use xlink:href="#DejaVuSans-20" x="307.617188"/>
      <use xlink:href="#DejaVuSans-56" x="339.404297"/>
      <use xlink:href="#DejaVuSans-61" x="400.0625"/>
      <use xlink:href="#DejaVuSans-6c" x="461.341797"/>
      <use xlink:href="#DejaVuSans-75" x="489.125"/>
      <use xlink:href="#DejaVuSans-65" x="552.503906"/>
     </g>
    </g>
    <g id="line2d_23">
     <path d="M 1283.132812 78.210187 
L 1293.132812 78.210187 
L 1303.132812 78.210187 
" style="fill: none; stroke: #ff0000; stroke-width: 1.5; stroke-linecap: square"/>
    </g>
    <g id="text_21">
     <!-- Predict Value -->
     <g transform="translate(1311.132812 81.710187)scale(0.1 -0.1)">
      <defs>
       <path id="DejaVuSans-50" d="M 1259 4147 
L 1259 2394 
L 2053 2394 
Q 2494 2394 2734 2622 
Q 2975 2850 2975 3272 
Q 2975 3691 2734 3919 
Q 2494 4147 2053 4147 
L 1259 4147 
z
M 628 4666 
L 2053 4666 
Q 2838 4666 3239 4311 
Q 3641 3956 3641 3272 
Q 3641 2581 3239 2228 
Q 2838 1875 2053 1875 
L 1259 1875 
L 1259 0 
L 628 0 
L 628 4666 
z
" transform="scale(0.015625)"/>
      </defs>
      <use xlink:href="#DejaVuSans-50"/>
      <use xlink:href="#DejaVuSans-72" x="58.552734"/>
      <use xlink:href="#DejaVuSans-65" x="97.416016"/>
      <use xlink:href="#DejaVuSans-64" x="158.939453"/>
      <use xlink:href="#DejaVuSans-69" x="222.416016"/>
      <use xlink:href="#DejaVuSans-63" x="250.199219"/>
      <use xlink:href="#DejaVuSans-74" x="305.179688"/>
      <use xlink:href="#DejaVuSans-20" x="344.388672"/>
      <use xlink:href="#DejaVuSans-56" x="376.175781"/>
      <use xlink:href="#DejaVuSans-61" x="436.833984"/>
      <use xlink:href="#DejaVuSans-6c" x="498.113281"/>
      <use xlink:href="#DejaVuSans-75" x="525.896484"/>
      <use xlink:href="#DejaVuSans-65" x="589.275391"/>
     </g>
    </g>
   </g>
  </g>
 </g>
 <defs>
  <clipPath id="p2ca229ada4">
   <rect x="46.0125" y="35.7555" width="1339.2" height="332.64"/>
  </clipPath>
 </defs>
</svg>
