<?xml version="1.0" encoding="utf-8" standalone="no"?>
<!DOCTYPE svg PUBLIC "-//W3C//DTD SVG 1.1//EN"
  "http://www.w3.org/Graphics/SVG/1.1/DTD/svg11.dtd">
<svg xmlns:xlink="http://www.w3.org/1999/xlink" width="1398.775pt" height="392.273625pt" viewBox="0 0 1398.775 392.273625" xmlns="http://www.w3.org/2000/svg" version="1.1">
 <metadata>
  <rdf:RDF xmlns:dc="http://purl.org/dc/elements/1.1/" xmlns:cc="http://creativecommons.org/ns#" xmlns:rdf="http://www.w3.org/1999/02/22-rdf-syntax-ns#">
   <cc:Work>
    <dc:type rdf:resource="http://purl.org/dc/dcmitype/StillImage"/>
    <dc:date>2022-06-30T17:33:11.798582</dc:date>
    <dc:format>image/svg+xml</dc:format>
    <dc:creator>
     <cc:Agent>
      <dc:title>Matplotlib v3.5.2, https://matplotlib.org/</dc:title>
     </cc:Agent>
    </dc:creator>
   </cc:Work>
  </rdf:RDF>
 </metadata>
 <defs>
  <style type="text/css">*{stroke-linejoin: round; stroke-linecap: butt}</style>
 </defs>
 <g id="figure_1">
  <g id="patch_1">
   <path d="M 0 392.273625 
L 1398.775 392.273625 
L 1398.775 0 
L 0 0 
z
" style="fill: #ffffff"/>
  </g>
  <g id="axes_1">
   <g id="patch_2">
    <path d="M 52.375 368.3955 
L 1391.575 368.3955 
L 1391.575 35.7555 
L 52.375 35.7555 
z
" style="fill: #ffffff"/>
   </g>
   <g id="matplotlib.axis_1">
    <g id="xtick_1">
     <g id="line2d_1">
      <defs>
       <path id="m4c91b286db" d="M 0 0 
L 0 3.5 
" style="stroke: #000000; stroke-width: 0.8"/>
      </defs>
      <g>
       <use xlink:href="#m4c91b286db" x="84.903442" y="368.3955" style="stroke: #000000; stroke-width: 0.8"/>
      </g>
     </g>
     <g id="text_1">
      <!-- 2020-01 -->
      <g transform="translate(64.012036 382.993937)scale(0.1 -0.1)">
       <defs>
        <path id="DejaVuSans-32" d="M 1228 531 
L 3431 531 
L 3431 0 
L 469 0 
L 469 531 
Q 828 903 1448 1529 
Q 2069 2156 2228 2338 
Q 2531 2678 2651 2914 
Q 2772 3150 2772 3378 
Q 2772 3750 2511 3984 
Q 2250 4219 1831 4219 
Q 1534 4219 1204 4116 
Q 875 4013 500 3803 
L 500 4441 
Q 881 4594 1212 4672 
Q 1544 4750 1819 4750 
Q 2544 4750 2975 4387 
Q 3406 4025 3406 3419 
Q 3406 3131 3298 2873 
Q 3191 2616 2906 2266 
Q 2828 2175 2409 1742 
Q 1991 1309 1228 531 
z
" transform="scale(0.015625)"/>
        <path id="DejaVuSans-30" d="M 2034 4250 
Q 1547 4250 1301 3770 
Q 1056 3291 1056 2328 
Q 1056 1369 1301 889 
Q 1547 409 2034 409 
Q 2525 409 2770 889 
Q 3016 1369 3016 2328 
Q 3016 3291 2770 3770 
Q 2525 4250 2034 4250 
z
M 2034 4750 
Q 2819 4750 3233 4129 
Q 3647 3509 3647 2328 
Q 3647 1150 3233 529 
Q 2819 -91 2034 -91 
Q 1250 -91 836 529 
Q 422 1150 422 2328 
Q 422 3509 836 4129 
Q 1250 4750 2034 4750 
z
" transform="scale(0.015625)"/>
        <path id="DejaVuSans-2d" d="M 313 2009 
L 1997 2009 
L 1997 1497 
L 313 1497 
L 313 2009 
z
" transform="scale(0.015625)"/>
        <path id="DejaVuSans-31" d="M 794 531 
L 1825 531 
L 1825 4091 
L 703 3866 
L 703 4441 
L 1819 4666 
L 2450 4666 
L 2450 531 
L 3481 531 
L 3481 0 
L 794 0 
L 794 531 
z
" transform="scale(0.015625)"/>
       </defs>
       <use xlink:href="#DejaVuSans-32"/>
       <use xlink:href="#DejaVuSans-30" x="63.623047"/>
       <use xlink:href="#DejaVuSans-32" x="127.246094"/>
       <use xlink:href="#DejaVuSans-30" x="190.869141"/>
       <use xlink:href="#DejaVuSans-2d" x="254.492188"/>
       <use xlink:href="#DejaVuSans-30" x="290.576172"/>
       <use xlink:href="#DejaVuSans-31" x="354.199219"/>
      </g>
     </g>
    </g>
    <g id="xtick_2">
     <g id="line2d_2">
      <g>
       <use xlink:href="#m4c91b286db" x="207.728679" y="368.3955" style="stroke: #000000; stroke-width: 0.8"/>
      </g>
     </g>
     <g id="text_2">
      <!-- 2020-04 -->
      <g transform="translate(186.837272 382.993937)scale(0.1 -0.1)">
       <defs>
        <path id="DejaVuSans-34" d="M 2419 4116 
L 825 1625 
L 2419 1625 
L 2419 4116 
z
M 2253 4666 
L 3047 4666 
L 3047 1625 
L 3713 1625 
L 3713 1100 
L 3047 1100 
L 3047 0 
L 2419 0 
L 2419 1100 
L 313 1100 
L 313 1709 
L 2253 4666 
z
" transform="scale(0.015625)"/>
       </defs>
       <use xlink:href="#DejaVuSans-32"/>
       <use xlink:href="#DejaVuSans-30" x="63.623047"/>
       <use xlink:href="#DejaVuSans-32" x="127.246094"/>
       <use xlink:href="#DejaVuSans-30" x="190.869141"/>
       <use xlink:href="#DejaVuSans-2d" x="254.492188"/>
       <use xlink:href="#DejaVuSans-30" x="290.576172"/>
       <use xlink:href="#DejaVuSans-34" x="354.199219"/>
      </g>
     </g>
    </g>
    <g id="xtick_3">
     <g id="line2d_3">
      <g>
       <use xlink:href="#m4c91b286db" x="330.553916" y="368.3955" style="stroke: #000000; stroke-width: 0.8"/>
      </g>
     </g>
     <g id="text_3">
      <!-- 2020-07 -->
      <g transform="translate(309.662509 382.993937)scale(0.1 -0.1)">
       <defs>
        <path id="DejaVuSans-37" d="M 525 4666 
L 3525 4666 
L 3525 4397 
L 1831 0 
L 1172 0 
L 2766 4134 
L 525 4134 
L 525 4666 
z
" transform="scale(0.015625)"/>
       </defs>
       <use xlink:href="#DejaVuSans-32"/>
       <use xlink:href="#DejaVuSans-30" x="63.623047"/>
       <use xlink:href="#DejaVuSans-32" x="127.246094"/>
       <use xlink:href="#DejaVuSans-30" x="190.869141"/>
       <use xlink:href="#DejaVuSans-2d" x="254.492188"/>
       <use xlink:href="#DejaVuSans-30" x="290.576172"/>
       <use xlink:href="#DejaVuSans-37" x="354.199219"/>
      </g>
     </g>
    </g>
    <g id="xtick_4">
     <g id="line2d_4">
      <g>
       <use xlink:href="#m4c91b286db" x="454.72888" y="368.3955" style="stroke: #000000; stroke-width: 0.8"/>
      </g>
     </g>
     <g id="text_4">
      <!-- 2020-10 -->
      <g transform="translate(433.837474 382.993937)scale(0.1 -0.1)">
       <use xlink:href="#DejaVuSans-32"/>
       <use xlink:href="#DejaVuSans-30" x="63.623047"/>
       <use xlink:href="#DejaVuSans-32" x="127.246094"/>
       <use xlink:href="#DejaVuSans-30" x="190.869141"/>
       <use xlink:href="#DejaVuSans-2d" x="254.492188"/>
       <use xlink:href="#DejaVuSans-31" x="290.576172"/>
       <use xlink:href="#DejaVuSans-30" x="354.199219"/>
      </g>
     </g>
    </g>
    <g id="xtick_5">
     <g id="line2d_5">
      <g>
       <use xlink:href="#m4c91b286db" x="578.903845" y="368.3955" style="stroke: #000000; stroke-width: 0.8"/>
      </g>
     </g>
     <g id="text_5">
      <!-- 2021-01 -->
      <g transform="translate(558.012439 382.993937)scale(0.1 -0.1)">
       <use xlink:href="#DejaVuSans-32"/>
       <use xlink:href="#DejaVuSans-30" x="63.623047"/>
       <use xlink:href="#DejaVuSans-32" x="127.246094"/>
       <use xlink:href="#DejaVuSans-31" x="190.869141"/>
       <use xlink:href="#DejaVuSans-2d" x="254.492188"/>
       <use xlink:href="#DejaVuSans-30" x="290.576172"/>
       <use xlink:href="#DejaVuSans-31" x="354.199219"/>
      </g>
     </g>
    </g>
    <g id="xtick_6">
     <g id="line2d_6">
      <g>
       <use xlink:href="#m4c91b286db" x="700.379354" y="368.3955" style="stroke: #000000; stroke-width: 0.8"/>
      </g>
     </g>
     <g id="text_6">
      <!-- 2021-04 -->
      <g transform="translate(679.487948 382.993937)scale(0.1 -0.1)">
       <use xlink:href="#DejaVuSans-32"/>
       <use xlink:href="#DejaVuSans-30" x="63.623047"/>
       <use xlink:href="#DejaVuSans-32" x="127.246094"/>
       <use xlink:href="#DejaVuSans-31" x="190.869141"/>
       <use xlink:href="#DejaVuSans-2d" x="254.492188"/>
       <use xlink:href="#DejaVuSans-30" x="290.576172"/>
       <use xlink:href="#DejaVuSans-34" x="354.199219"/>
      </g>
     </g>
    </g>
    <g id="xtick_7">
     <g id="line2d_7">
      <g>
       <use xlink:href="#m4c91b286db" x="823.204591" y="368.3955" style="stroke: #000000; stroke-width: 0.8"/>
      </g>
     </g>
     <g id="text_7">
      <!-- 2021-07 -->
      <g transform="translate(802.313185 382.993937)scale(0.1 -0.1)">
       <use xlink:href="#DejaVuSans-32"/>
       <use xlink:href="#DejaVuSans-30" x="63.623047"/>
       <use xlink:href="#DejaVuSans-32" x="127.246094"/>
       <use xlink:href="#DejaVuSans-31" x="190.869141"/>
       <use xlink:href="#DejaVuSans-2d" x="254.492188"/>
       <use xlink:href="#DejaVuSans-30" x="290.576172"/>
       <use xlink:href="#DejaVuSans-37" x="354.199219"/>
      </g>
     </g>
    </g>
    <g id="xtick_8">
     <g id="line2d_8">
      <g>
       <use xlink:href="#m4c91b286db" x="947.379556" y="368.3955" style="stroke: #000000; stroke-width: 0.8"/>
      </g>
     </g>
     <g id="text_8">
      <!-- 2021-10 -->
      <g transform="translate(926.488149 382.993937)scale(0.1 -0.1)">
       <use xlink:href="#DejaVuSans-32"/>
       <use xlink:href="#DejaVuSans-30" x="63.623047"/>
       <use xlink:href="#DejaVuSans-32" x="127.246094"/>
       <use xlink:href="#DejaVuSans-31" x="190.869141"/>
       <use xlink:href="#DejaVuSans-2d" x="254.492188"/>
       <use xlink:href="#DejaVuSans-31" x="290.576172"/>
       <use xlink:href="#DejaVuSans-30" x="354.199219"/>
      </g>
     </g>
    </g>
    <g id="xtick_9">
     <g id="line2d_9">
      <g>
       <use xlink:href="#m4c91b286db" x="1071.55452" y="368.3955" style="stroke: #000000; stroke-width: 0.8"/>
      </g>
     </g>
     <g id="text_9">
      <!-- 2022-01 -->
      <g transform="translate(1050.663114 382.993937)scale(0.1 -0.1)">
       <use xlink:href="#DejaVuSans-32"/>
       <use xlink:href="#DejaVuSans-30" x="63.623047"/>
       <use xlink:href="#DejaVuSans-32" x="127.246094"/>
       <use xlink:href="#DejaVuSans-32" x="190.869141"/>
       <use xlink:href="#DejaVuSans-2d" x="254.492188"/>
       <use xlink:href="#DejaVuSans-30" x="290.576172"/>
       <use xlink:href="#DejaVuSans-31" x="354.199219"/>
      </g>
     </g>
    </g>
    <g id="xtick_10">
     <g id="line2d_10">
      <g>
       <use xlink:href="#m4c91b286db" x="1193.030029" y="368.3955" style="stroke: #000000; stroke-width: 0.8"/>
      </g>
     </g>
     <g id="text_10">
      <!-- 2022-04 -->
      <g transform="translate(1172.138623 382.993937)scale(0.1 -0.1)">
       <use xlink:href="#DejaVuSans-32"/>
       <use xlink:href="#DejaVuSans-30" x="63.623047"/>
       <use xlink:href="#DejaVuSans-32" x="127.246094"/>
       <use xlink:href="#DejaVuSans-32" x="190.869141"/>
       <use xlink:href="#DejaVuSans-2d" x="254.492188"/>
       <use xlink:href="#DejaVuSans-30" x="290.576172"/>
       <use xlink:href="#DejaVuSans-34" x="354.199219"/>
      </g>
     </g>
    </g>
    <g id="xtick_11">
     <g id="line2d_11">
      <g>
       <use xlink:href="#m4c91b286db" x="1315.855266" y="368.3955" style="stroke: #000000; stroke-width: 0.8"/>
      </g>
     </g>
     <g id="text_11">
      <!-- 2022-07 -->
      <g transform="translate(1294.96386 382.993937)scale(0.1 -0.1)">
       <use xlink:href="#DejaVuSans-32"/>
       <use xlink:href="#DejaVuSans-30" x="63.623047"/>
       <use xlink:href="#DejaVuSans-32" x="127.246094"/>
       <use xlink:href="#DejaVuSans-32" x="190.869141"/>
       <use xlink:href="#DejaVuSans-2d" x="254.492188"/>
       <use xlink:href="#DejaVuSans-30" x="290.576172"/>
       <use xlink:href="#DejaVuSans-37" x="354.199219"/>
      </g>
     </g>
    </g>
   </g>
   <g id="matplotlib.axis_2">
    <g id="ytick_1">
     <g id="line2d_12">
      <defs>
       <path id="mc8abea9e24" d="M 0 0 
L -3.5 0 
" style="stroke: #000000; stroke-width: 0.8"/>
      </defs>
      <g>
       <use xlink:href="#mc8abea9e24" x="52.375" y="353.2755" style="stroke: #000000; stroke-width: 0.8"/>
      </g>
     </g>
     <g id="text_12">
      <!-- 0 -->
      <g transform="translate(39.0125 357.074719)scale(0.1 -0.1)">
       <use xlink:href="#DejaVuSans-30"/>
      </g>
     </g>
    </g>
    <g id="ytick_2">
     <g id="line2d_13">
      <g>
       <use xlink:href="#mc8abea9e24" x="52.375" y="279.400332" style="stroke: #000000; stroke-width: 0.8"/>
      </g>
     </g>
     <g id="text_13">
      <!-- 200000 -->
      <g transform="translate(7.2 283.199551)scale(0.1 -0.1)">
       <use xlink:href="#DejaVuSans-32"/>
       <use xlink:href="#DejaVuSans-30" x="63.623047"/>
       <use xlink:href="#DejaVuSans-30" x="127.246094"/>
       <use xlink:href="#DejaVuSans-30" x="190.869141"/>
       <use xlink:href="#DejaVuSans-30" x="254.492188"/>
       <use xlink:href="#DejaVuSans-30" x="318.115234"/>
      </g>
     </g>
    </g>
    <g id="ytick_3">
     <g id="line2d_14">
      <g>
       <use xlink:href="#mc8abea9e24" x="52.375" y="205.525164" style="stroke: #000000; stroke-width: 0.8"/>
      </g>
     </g>
     <g id="text_14">
      <!-- 400000 -->
      <g transform="translate(7.2 209.324383)scale(0.1 -0.1)">
       <use xlink:href="#DejaVuSans-34"/>
       <use xlink:href="#DejaVuSans-30" x="63.623047"/>
       <use xlink:href="#DejaVuSans-30" x="127.246094"/>
       <use xlink:href="#DejaVuSans-30" x="190.869141"/>
       <use xlink:href="#DejaVuSans-30" x="254.492188"/>
       <use xlink:href="#DejaVuSans-30" x="318.115234"/>
      </g>
     </g>
    </g>
    <g id="ytick_4">
     <g id="line2d_15">
      <g>
       <use xlink:href="#mc8abea9e24" x="52.375" y="131.649996" style="stroke: #000000; stroke-width: 0.8"/>
      </g>
     </g>
     <g id="text_15">
      <!-- 600000 -->
      <g transform="translate(7.2 135.449214)scale(0.1 -0.1)">
       <defs>
        <path id="DejaVuSans-36" d="M 2113 2584 
Q 1688 2584 1439 2293 
Q 1191 2003 1191 1497 
Q 1191 994 1439 701 
Q 1688 409 2113 409 
Q 2538 409 2786 701 
Q 3034 994 3034 1497 
Q 3034 2003 2786 2293 
Q 2538 2584 2113 2584 
z
M 3366 4563 
L 3366 3988 
Q 3128 4100 2886 4159 
Q 2644 4219 2406 4219 
Q 1781 4219 1451 3797 
Q 1122 3375 1075 2522 
Q 1259 2794 1537 2939 
Q 1816 3084 2150 3084 
Q 2853 3084 3261 2657 
Q 3669 2231 3669 1497 
Q 3669 778 3244 343 
Q 2819 -91 2113 -91 
Q 1303 -91 875 529 
Q 447 1150 447 2328 
Q 447 3434 972 4092 
Q 1497 4750 2381 4750 
Q 2619 4750 2861 4703 
Q 3103 4656 3366 4563 
z
" transform="scale(0.015625)"/>
       </defs>
       <use xlink:href="#DejaVuSans-36"/>
       <use xlink:href="#DejaVuSans-30" x="63.623047"/>
       <use xlink:href="#DejaVuSans-30" x="127.246094"/>
       <use xlink:href="#DejaVuSans-30" x="190.869141"/>
       <use xlink:href="#DejaVuSans-30" x="254.492188"/>
       <use xlink:href="#DejaVuSans-30" x="318.115234"/>
      </g>
     </g>
    </g>
    <g id="ytick_5">
     <g id="line2d_16">
      <g>
       <use xlink:href="#mc8abea9e24" x="52.375" y="57.774828" style="stroke: #000000; stroke-width: 0.8"/>
      </g>
     </g>
     <g id="text_16">
      <!-- 800000 -->
      <g transform="translate(7.2 61.574046)scale(0.1 -0.1)">
       <defs>
        <path id="DejaVuSans-38" d="M 2034 2216 
Q 1584 2216 1326 1975 
Q 1069 1734 1069 1313 
Q 1069 891 1326 650 
Q 1584 409 2034 409 
Q 2484 409 2743 651 
Q 3003 894 3003 1313 
Q 3003 1734 2745 1975 
Q 2488 2216 2034 2216 
z
M 1403 2484 
Q 997 2584 770 2862 
Q 544 3141 544 3541 
Q 544 4100 942 4425 
Q 1341 4750 2034 4750 
Q 2731 4750 3128 4425 
Q 3525 4100 3525 3541 
Q 3525 3141 3298 2862 
Q 3072 2584 2669 2484 
Q 3125 2378 3379 2068 
Q 3634 1759 3634 1313 
Q 3634 634 3220 271 
Q 2806 -91 2034 -91 
Q 1263 -91 848 271 
Q 434 634 434 1313 
Q 434 1759 690 2068 
Q 947 2378 1403 2484 
z
M 1172 3481 
Q 1172 3119 1398 2916 
Q 1625 2713 2034 2713 
Q 2441 2713 2670 2916 
Q 2900 3119 2900 3481 
Q 2900 3844 2670 4047 
Q 2441 4250 2034 4250 
Q 1625 4250 1398 4047 
Q 1172 3844 1172 3481 
z
" transform="scale(0.015625)"/>
       </defs>
       <use xlink:href="#DejaVuSans-38"/>
       <use xlink:href="#DejaVuSans-30" x="63.623047"/>
       <use xlink:href="#DejaVuSans-30" x="127.246094"/>
       <use xlink:href="#DejaVuSans-30" x="190.869141"/>
       <use xlink:href="#DejaVuSans-30" x="254.492188"/>
       <use xlink:href="#DejaVuSans-30" x="318.115234"/>
      </g>
     </g>
    </g>
   </g>
   <g id="line2d_17">
    <path d="M 113.247727 353.2755 
L 202.329767 353.177246 
L 232.02378 352.571839 
L 237.422692 352.270428 
L 244.171331 351.926539 
L 245.521059 351.857466 
L 246.870787 351.645444 
L 254.969154 351.061831 
L 259.018338 350.753032 
L 265.766977 350.429459 
L 273.865345 350.13322 
L 304.909086 349.222339 
L 310.307997 349.060552 
L 315.706909 348.80716 
L 318.406365 348.684897 
L 321.10582 348.49947 
L 326.504732 348.160753 
L 345.400922 346.264377 
L 346.75065 346.019112 
L 349.450106 345.759071 
L 365.64684 343.743756 
L 368.346296 343.454535 
L 373.745208 342.981365 
L 376.444663 342.644125 
L 381.843575 342.029853 
L 383.193303 341.956347 
L 391.29167 340.7592 
L 392.641398 340.7592 
L 393.991126 340.495465 
L 396.690582 340.198487 
L 398.040309 340.018601 
L 399.390037 339.651441 
L 404.788949 338.93042 
L 406.138677 338.552548 
L 411.537588 337.85923 
L 412.887316 337.547846 
L 414.237044 337.414501 
L 415.586772 337.088343 
L 416.9365 336.88851 
L 418.286228 336.530216 
L 422.335411 336.168597 
L 425.034867 335.771887 
L 430.433778 335.27914 
L 431.783506 334.950026 
L 433.133234 334.830348 
L 437.182418 334.043208 
L 438.532146 333.909863 
L 439.881874 333.01856 
L 441.231601 332.897035 
L 442.581329 332.521749 
L 443.931057 332.388774 
L 445.280785 331.979875 
L 446.630513 331.829169 
L 447.980241 331.827692 
L 449.329969 331.287295 
L 450.679697 331.149148 
L 452.029425 330.801196 
L 453.379152 330.69851 
L 454.72888 330.26634 
L 457.428336 330.164023 
L 458.778064 329.736655 
L 460.127792 329.643203 
L 461.47752 329.20734 
L 462.827248 329.164861 
L 464.176975 328.572013 
L 466.876431 328.416875 
L 468.226159 327.830676 
L 469.575887 327.703241 
L 470.925615 327.266639 
L 472.275343 327.164322 
L 473.625071 326.611366 
L 476.324526 326.491319 
L 477.674254 325.942427 
L 479.023982 325.713044 
L 480.37371 325.232486 
L 481.723438 325.08843 
L 483.073166 324.563177 
L 484.422894 324.382183 
L 485.772621 324.355588 
L 487.122349 323.687018 
L 488.472077 323.558844 
L 489.821805 322.558574 
L 491.171533 322.419689 
L 492.521261 321.409446 
L 493.870989 321.21183 
L 495.220717 321.197055 
L 496.570444 319.968142 
L 497.920172 319.803031 
L 499.2699 318.817905 
L 500.619628 318.642082 
L 501.969356 316.888655 
L 503.319084 316.556956 
L 504.668812 316.478648 
L 506.01854 314.689761 
L 508.717995 314.320385 
L 510.067723 312.333882 
L 511.417451 312.233412 
L 512.767179 309.92038 
L 515.466635 309.899695 
L 516.816363 307.256811 
L 518.166091 307.040726 
L 519.515818 305.035754 
L 520.865546 304.875445 
L 522.215274 302.758552 
L 524.91473 302.687632 
L 526.264458 299.851933 
L 527.614186 299.732256 
L 528.963914 297.81815 
L 530.313641 297.687022 
L 531.663369 295.908846 
L 534.362825 295.875972 
L 535.712553 294.287286 
L 537.062281 294.173519 
L 538.412009 292.480669 
L 539.761737 292.37355 
L 541.111464 290.14843 
L 543.81092 290.070122 
L 545.160648 288.044835 
L 546.510376 287.886372 
L 547.860104 285.926834 
L 549.209832 285.831535 
L 550.55956 283.801076 
L 553.259015 283.748624 
L 554.608743 282.079784 
L 555.958471 281.979683 
L 557.308199 280.349997 
L 558.657927 280.251374 
L 560.007655 278.15886 
L 562.70711 278.133373 
L 564.056838 276.614499 
L 565.406566 276.512182 
L 566.756294 274.741764 
L 570.805478 274.691159 
L 572.155206 274.691159 
L 573.504933 272.457913 
L 574.854661 272.319766 
L 576.204389 270.089844 
L 577.554117 270.087628 
L 578.903845 268.279164 
L 581.603301 268.275101 
L 582.953029 266.816066 
L 584.302757 266.878122 
L 585.652484 264.921907 
L 587.002212 264.879798 
L 588.35194 262.932449 
L 591.051396 262.932449 
L 592.401124 261.03792 
L 593.750852 261.004307 
L 595.10058 259.415621 
L 596.450307 259.302592 
L 597.800035 257.845774 
L 600.499491 257.845774 
L 601.849219 256.563671 
L 603.198947 256.497922 
L 604.548675 255.198088 
L 605.898403 255.129015 
L 607.24813 253.947381 
L 609.947586 253.947381 
L 611.297314 252.988851 
L 612.647042 252.961148 
L 613.99677 251.790965 
L 615.346498 251.762523 
L 616.696226 250.974645 
L 619.395681 250.974645 
L 620.745409 250.216685 
L 622.095137 250.162387 
L 623.444865 249.36195 
L 624.794593 249.346805 
L 626.144321 248.400095 
L 628.843776 248.400095 
L 630.193504 247.878536 
L 631.543232 247.877428 
L 632.89296 247.185957 
L 634.242688 247.162686 
L 635.592416 246.719804 
L 638.291872 246.719804 
L 639.641599 246.220039 
L 640.991327 246.214498 
L 642.341055 245.752778 
L 643.690783 245.741328 
L 645.040511 244.968963 
L 647.739967 244.968963 
L 649.089695 244.649453 
L 650.439422 244.64539 
L 651.78915 244.239815 
L 653.138878 244.230211 
L 654.488606 243.941359 
L 657.188062 243.941359 
L 658.53779 243.702373 
L 659.887518 243.698679 
L 661.237246 243.406872 
L 662.586973 243.395791 
L 663.936701 243.205563 
L 669.335613 242.903783 
L 670.685341 242.634138 
L 672.035069 242.624534 
L 673.384796 242.464595 
L 676.084252 242.464595 
L 677.43398 242.302439 
L 678.783708 242.299853 
L 680.133436 242.070101 
L 681.483164 242.061975 
L 682.832892 241.901666 
L 685.532347 241.901666 
L 686.882075 241.761673 
L 688.231803 241.750961 
L 689.581531 241.540416 
L 690.931259 241.521209 
L 692.280987 241.359053 
L 694.980442 241.359053 
L 696.33017 241.200221 
L 697.679898 241.190987 
L 699.029626 241.007407 
L 700.379354 240.999281 
L 701.729082 240.826782 
L 704.428538 240.826782 
L 705.778265 240.695654 
L 707.127993 240.692329 
L 708.477721 240.49656 
L 709.827449 240.488434 
L 711.177177 240.330341 
L 713.876633 240.330341 
L 715.226361 240.149716 
L 716.576088 240.149347 
L 717.925816 239.919226 
L 719.275544 239.918487 
L 720.625272 239.726781 
L 723.324728 239.726781 
L 724.674456 239.575706 
L 726.024184 239.575706 
L 727.373912 239.36036 
L 728.723639 239.358144 
L 730.073367 239.181582 
L 732.772823 239.181582 
L 734.122551 239.001327 
L 735.472279 239.001327 
L 736.822007 238.764926 
L 738.171735 238.763818 
L 739.521462 238.547364 
L 742.220918 238.547364 
L 743.570646 238.359721 
L 744.920374 238.359721 
L 746.270102 238.177249 
L 747.61983 238.176141 
L 748.969558 238.011769 
L 751.669013 238.011769 
L 753.018741 237.882118 
L 754.368469 237.882118 
L 755.718197 237.734368 
L 757.067925 237.720331 
L 758.417653 237.589942 
L 761.117108 237.589942 
L 762.466836 237.45512 
L 763.816564 237.454381 
L 765.166292 237.270062 
L 766.51602 237.25972 
L 767.865748 237.113447 
L 773.264659 237.011869 
L 774.614387 236.881848 
L 782.712754 236.798739 
L 784.062482 236.638799 
L 789.461394 236.530941 
L 796.210033 236.225467 
L 801.608945 236.139403 
L 802.958673 236.021572 
L 808.357584 235.958039 
L 828.603502 235.244775 
L 829.95323 235.240711 
L 831.302958 234.860624 
L 832.652686 234.853236 
L 834.002414 234.553303 
L 836.70187 234.553303 
L 838.051597 234.308776 
L 840.751053 234.259649 
L 843.450509 233.462167 
L 846.149965 233.459212 
L 847.499693 233.160387 
L 850.199148 233.148567 
L 852.898604 232.05189 
L 855.59806 232.05189 
L 856.947788 231.498565 
L 859.647243 231.422473 
L 862.346699 229.959376 
L 869.095339 229.857797 
L 870.445067 228.311221 
L 871.794794 227.506351 
L 874.49425 227.506351 
L 875.843978 226.504603 
L 877.193706 226.504603 
L 878.543434 225.504703 
L 879.893162 225.504703 
L 881.24289 224.418738 
L 883.942345 224.418738 
L 885.292073 223.493082 
L 889.341257 223.436568 
L 890.690985 221.406847 
L 894.740168 221.342945 
L 896.089896 220.353388 
L 897.439624 219.074239 
L 898.789352 219.060572 
L 900.13908 217.837199 
L 902.838536 217.808388 
L 904.188263 216.64707 
L 905.537991 216.637467 
L 906.887719 215.083872 
L 908.237447 215.074268 
L 909.587175 213.621882 
L 914.986086 213.608215 
L 916.335814 211.510899 
L 917.685542 211.497971 
L 919.03527 209.950656 
L 921.734726 209.950656 
L 923.084454 208.897935 
L 924.434182 208.893871 
L 925.783909 207.515361 
L 927.133637 207.507604 
L 928.483365 206.322277 
L 931.182821 206.322277 
L 932.532549 205.416937 
L 933.882277 205.40918 
L 935.232005 204.487218 
L 936.581733 204.474659 
L 937.93146 203.556391 
L 940.630916 203.556391 
L 941.980644 202.826873 
L 943.330372 202.824657 
L 944.6801 201.922272 
L 946.029828 201.894569 
L 947.379556 201.032815 
L 950.079011 201.032815 
L 951.428739 200.360551 
L 952.778467 200.354641 
L 954.128195 199.495842 
L 955.477923 199.490301 
L 956.827651 198.72754 
L 959.527106 198.72754 
L 960.876834 198.080024 
L 962.226562 198.062664 
L 963.57629 197.310245 
L 964.926018 197.302119 
L 966.275746 196.630224 
L 968.975202 196.630224 
L 970.324929 196.08207 
L 971.674657 196.030358 
L 973.024385 195.273137 
L 974.374113 195.239894 
L 975.723841 194.565044 
L 978.423297 194.565044 
L 979.773025 194.015043 
L 981.122752 194.012088 
L 982.47248 193.106009 
L 983.822208 193.09973 
L 985.171936 192.407889 
L 987.871392 192.407889 
L 989.22112 191.934349 
L 990.570848 191.932133 
L 991.920575 191.098452 
L 993.270303 191.094388 
L 994.620031 190.33015 
L 997.319487 190.33015 
L 998.669215 189.621687 
L 1000.018943 189.614299 
L 1001.368671 188.586327 
L 1002.718399 188.570074 
L 1004.068126 187.55429 
L 1006.767582 187.55429 
L 1008.11731 186.817755 
L 1009.467038 186.810367 
L 1010.816766 185.689312 
L 1012.166494 185.632059 
L 1013.516222 184.609626 
L 1016.215677 184.609626 
L 1017.565405 183.700592 
L 1018.915133 183.700592 
L 1020.264861 182.933029 
L 1021.614589 182.602807 
L 1025.663772 182.602807 
L 1027.0135 181.100186 
L 1028.363228 181.100186 
L 1029.712956 179.467545 
L 1031.062684 179.418418 
L 1032.412412 177.755488 
L 1035.111868 177.709686 
L 1036.461595 176.486682 
L 1037.811323 176.478925 
L 1039.161051 174.845176 
L 1040.510779 174.83077 
L 1041.860507 173.42825 
L 1044.559963 173.42825 
L 1045.909691 172.244031 
L 1047.259418 172.225562 
L 1048.609146 170.721464 
L 1049.958874 170.663472 
L 1051.308602 169.099535 
L 1054.008058 169.099535 
L 1055.357786 168.134725 
L 1056.707514 168.125121 
L 1058.057241 166.238719 
L 1063.456153 166.231331 
L 1064.805881 163.810442 
L 1066.155609 163.797514 
L 1067.505337 161.08334 
L 1072.904248 161.056745 
L 1074.253976 155.654254 
L 1075.603704 155.640587 
L 1076.953432 150.053778 
L 1078.30316 150.037525 
L 1079.652888 144.137854 
L 1082.352343 144.137854 
L 1083.702071 139.154974 
L 1085.051799 139.132073 
L 1086.401527 138.345302 
L 1087.751255 138.282878 
L 1089.100983 123.637495 
L 1094.499894 123.599449 
L 1095.849622 109.266189 
L 1097.19935 109.144295 
L 1098.549078 101.719841 
L 1101.248534 101.712823 
L 1102.598261 96.570372 
L 1103.947989 96.458821 
L 1105.297717 90.898237 
L 1106.647445 90.877921 
L 1107.997173 86.176136 
L 1110.696629 86.176136 
L 1112.046357 83.316059 
L 1113.396084 83.306086 
L 1114.745812 80.070353 
L 1116.09554 79.843187 
L 1117.445268 78.095301 
L 1120.144724 78.095301 
L 1121.494452 76.641807 
L 1122.84418 76.63996 
L 1124.193907 76.369207 
L 1130.942547 76.24916 
L 1132.292275 72.94731 
L 1133.642003 72.013158 
L 1134.99173 72.011311 
L 1136.341458 71.490491 
L 1139.040914 71.490491 
L 1140.390642 71.135152 
L 1141.74037 71.131827 
L 1143.090098 70.718865 
L 1144.439826 70.718865 
L 1145.789554 70.267488 
L 1148.489009 70.267488 
L 1149.838737 70.088341 
L 1151.188465 70.086494 
L 1152.538193 69.693847 
L 1153.887921 69.69237 
L 1155.237649 69.505096 
L 1157.937104 69.505096 
L 1161.986288 69.181523 
L 1163.336016 69.181154 
L 1164.685744 69.068494 
L 1170.084655 69.036358 
L 1172.784111 68.938843 
L 1175.483567 68.876418 
L 1179.53275 68.836157 
L 1182.232206 68.740119 
L 1198.428941 68.497439 
L 1201.128396 68.493006 
L 1202.478124 68.245894 
L 1210.576492 68.245894 
L 1211.92622 67.871347 
L 1220.024587 67.870977 
L 1221.374315 67.356068 
L 1224.07377 67.356068 
L 1226.773226 67.101568 
L 1229.472682 67.0469 
L 1230.82241 66.462178 
L 1237.571049 66.368357 
L 1238.920777 66.325509 
L 1240.270505 65.631821 
L 1247.019144 65.55573 
L 1248.368872 65.505864 
L 1249.7186 64.574298 
L 1255.117512 64.508549 
L 1256.467239 63.870268 
L 1260.516423 63.832591 
L 1264.565607 63.830006 
L 1265.915335 62.766942 
L 1274.013702 62.701193 
L 1275.36343 61.520668 
L 1283.461797 61.517344 
L 1284.811525 59.794205 
L 1292.909892 59.794205 
L 1294.25962 58.34145 
L 1302.357987 58.324089 
L 1303.707715 56.812973 
L 1311.806082 56.780468 
L 1313.15581 54.957229 
L 1313.15581 54.957229 
" clip-path="url(#pe14f9d9b49)" style="fill: none; stroke: #0000ff; stroke-width: 1.5; stroke-linecap: square"/>
   </g>
   <g id="line2d_18">
    <path d="M 1074.253976 155.713006 
L 1075.603704 154.065966 
L 1076.953432 150.378235 
L 1078.30316 149.306975 
L 1079.652888 142.477937 
L 1081.002615 142.532101 
L 1082.352343 138.613145 
L 1083.702071 137.363818 
L 1085.051799 132.60515 
L 1086.401527 136.508933 
L 1087.751255 134.561471 
L 1089.100983 123.621015 
L 1090.450711 123.358743 
L 1091.800438 121.280136 
L 1093.150166 121.705512 
L 1094.499894 116.304918 
L 1095.849622 108.219445 
L 1097.19935 101.140442 
L 1098.549078 102.494435 
L 1099.898806 100.018298 
L 1101.248534 94.058037 
L 1102.598261 94.078693 
L 1103.947989 88.342404 
L 1105.297717 90.027712 
L 1106.647445 84.808965 
L 1107.997173 83.640241 
L 1109.346901 85.280123 
L 1110.696629 83.894259 
L 1112.046357 83.483055 
L 1113.396084 79.441386 
L 1114.745812 80.049144 
L 1116.09554 76.525162 
L 1117.445268 77.778907 
L 1118.794996 78.191448 
L 1120.144724 76.669535 
L 1121.494452 76.914912 
L 1122.84418 75.092733 
L 1124.193907 76.393683 
L 1125.543635 75.01091 
L 1126.893363 76.485491 
L 1128.243091 76.78797 
L 1129.592819 76.47309 
L 1130.942547 76.935615 
L 1132.292275 73.700024 
L 1133.642003 72.483943 
L 1134.99173 71.892917 
L 1136.341458 71.613379 
L 1137.691186 69.9485 
L 1139.040914 70.447484 
L 1140.390642 69.290765 
L 1141.74037 70.166357 
L 1143.090098 70.604326 
L 1144.439826 70.378798 
L 1145.789554 70.473479 
L 1147.139281 71.089108 
L 1149.838737 69.897009 
L 1151.188465 69.732954 
L 1152.538193 69.70625 
L 1153.887921 69.427583 
L 1156.587377 69.692815 
L 1157.937104 69.420183 
L 1164.685744 69.090256 
L 1166.035472 69.121488 
L 1170.084655 68.915565 
L 1174.133839 68.909617 
L 1178.183023 68.851364 
L 1182.232206 68.694192 
L 1187.631118 68.652279 
L 1193.030029 68.489284 
L 1201.128396 68.457038 
L 1202.478124 68.283225 
L 1210.576492 68.106109 
L 1211.92622 67.897999 
L 1220.024587 67.646809 
L 1221.374315 67.383668 
L 1224.07377 67.347552 
L 1226.773226 66.942933 
L 1228.122954 67.026262 
L 1230.82241 66.384273 
L 1234.871593 66.314684 
L 1236.221321 66.192427 
L 1237.571049 66.26852 
L 1240.270505 65.691386 
L 1245.669416 65.359614 
L 1247.019144 65.446945 
L 1249.7186 64.62657 
L 1253.767784 64.424051 
L 1255.117512 64.215988 
L 1257.816967 63.261329 
L 1259.166695 63.732652 
L 1260.516423 63.711182 
L 1261.866151 63.491422 
L 1263.215879 63.723364 
L 1264.565607 63.746973 
L 1265.915335 62.92346 
L 1267.265062 62.684596 
L 1269.964518 62.60518 
L 1271.314246 62.303813 
L 1272.663974 62.542788 
L 1275.36343 61.572137 
L 1276.713158 61.456199 
L 1278.062886 61.497306 
L 1279.412613 61.424754 
L 1280.762341 61.189452 
L 1282.112069 61.387083 
L 1283.461797 60.818385 
L 1284.811525 59.904067 
L 1286.161253 59.775672 
L 1287.510981 59.762706 
L 1288.860709 59.624264 
L 1290.210436 59.22725 
L 1291.560164 59.557838 
L 1292.909892 58.753067 
L 1294.25962 58.360822 
L 1298.308804 58.257715 
L 1299.658532 58.068621 
L 1301.008259 58.211737 
L 1302.357987 57.390744 
L 1303.707715 56.865596 
L 1307.756899 56.70694 
L 1309.106627 56.466643 
L 1310.456355 56.669625 
L 1313.15581 55.039963 
L 1313.15581 55.039963 
" clip-path="url(#pe14f9d9b49)" style="fill: none; stroke: #ffa500; stroke-width: 1.5; stroke-linecap: square"/>
   </g>
   <g id="line2d_19">
    <path d="M 1313.15581 55.039963 
L 1314.505538 55.020089 
L 1315.855266 54.993669 
L 1317.204994 54.832248 
L 1318.554722 54.357578 
L 1319.90445 54.225838 
L 1321.254178 53.10344 
L 1322.603905 53.063925 
L 1323.953633 52.877224 
L 1325.303361 52.565323 
L 1326.653089 52.322543 
L 1328.002817 51.98534 
L 1329.352545 51.806121 
L 1330.702273 50.8755 
" clip-path="url(#pe14f9d9b49)" style="fill: none; stroke: #ff0000; stroke-width: 1.5; stroke-linecap: square"/>
   </g>
   <g id="patch_3">
    <path d="M 52.375 368.3955 
L 52.375 35.7555 
" style="fill: none; stroke: #000000; stroke-width: 0.8; stroke-linejoin: miter; stroke-linecap: square"/>
   </g>
   <g id="patch_4">
    <path d="M 1391.575 368.3955 
L 1391.575 35.7555 
" style="fill: none; stroke: #000000; stroke-width: 0.8; stroke-linejoin: miter; stroke-linecap: square"/>
   </g>
   <g id="patch_5">
    <path d="M 52.375 368.3955 
L 1391.575 368.3955 
" style="fill: none; stroke: #000000; stroke-width: 0.8; stroke-linejoin: miter; stroke-linecap: square"/>
   </g>
   <g id="patch_6">
    <path d="M 52.375 35.7555 
L 1391.575 35.7555 
" style="fill: none; stroke: #000000; stroke-width: 0.8; stroke-linejoin: miter; stroke-linecap: square"/>
   </g>
   <g id="text_17">
    <!-- Accumulative Confirmed Cases Forecasting - Kansas -->
    <g transform="translate(564.766562 16.318125)scale(0.12 -0.12)">
     <defs>
      <path id="DejaVuSans-41" d="M 2188 4044 
L 1331 1722 
L 3047 1722 
L 2188 4044 
z
M 1831 4666 
L 2547 4666 
L 4325 0 
L 3669 0 
L 3244 1197 
L 1141 1197 
L 716 0 
L 50 0 
L 1831 4666 
z
" transform="scale(0.015625)"/>
      <path id="DejaVuSans-63" d="M 3122 3366 
L 3122 2828 
Q 2878 2963 2633 3030 
Q 2388 3097 2138 3097 
Q 1578 3097 1268 2742 
Q 959 2388 959 1747 
Q 959 1106 1268 751 
Q 1578 397 2138 397 
Q 2388 397 2633 464 
Q 2878 531 3122 666 
L 3122 134 
Q 2881 22 2623 -34 
Q 2366 -91 2075 -91 
Q 1284 -91 818 406 
Q 353 903 353 1747 
Q 353 2603 823 3093 
Q 1294 3584 2113 3584 
Q 2378 3584 2631 3529 
Q 2884 3475 3122 3366 
z
" transform="scale(0.015625)"/>
      <path id="DejaVuSans-75" d="M 544 1381 
L 544 3500 
L 1119 3500 
L 1119 1403 
Q 1119 906 1312 657 
Q 1506 409 1894 409 
Q 2359 409 2629 706 
Q 2900 1003 2900 1516 
L 2900 3500 
L 3475 3500 
L 3475 0 
L 2900 0 
L 2900 538 
Q 2691 219 2414 64 
Q 2138 -91 1772 -91 
Q 1169 -91 856 284 
Q 544 659 544 1381 
z
M 1991 3584 
L 1991 3584 
z
" transform="scale(0.015625)"/>
      <path id="DejaVuSans-6d" d="M 3328 2828 
Q 3544 3216 3844 3400 
Q 4144 3584 4550 3584 
Q 5097 3584 5394 3201 
Q 5691 2819 5691 2113 
L 5691 0 
L 5113 0 
L 5113 2094 
Q 5113 2597 4934 2840 
Q 4756 3084 4391 3084 
Q 3944 3084 3684 2787 
Q 3425 2491 3425 1978 
L 3425 0 
L 2847 0 
L 2847 2094 
Q 2847 2600 2669 2842 
Q 2491 3084 2119 3084 
Q 1678 3084 1418 2786 
Q 1159 2488 1159 1978 
L 1159 0 
L 581 0 
L 581 3500 
L 1159 3500 
L 1159 2956 
Q 1356 3278 1631 3431 
Q 1906 3584 2284 3584 
Q 2666 3584 2933 3390 
Q 3200 3197 3328 2828 
z
" transform="scale(0.015625)"/>
      <path id="DejaVuSans-6c" d="M 603 4863 
L 1178 4863 
L 1178 0 
L 603 0 
L 603 4863 
z
" transform="scale(0.015625)"/>
      <path id="DejaVuSans-61" d="M 2194 1759 
Q 1497 1759 1228 1600 
Q 959 1441 959 1056 
Q 959 750 1161 570 
Q 1363 391 1709 391 
Q 2188 391 2477 730 
Q 2766 1069 2766 1631 
L 2766 1759 
L 2194 1759 
z
M 3341 1997 
L 3341 0 
L 2766 0 
L 2766 531 
Q 2569 213 2275 61 
Q 1981 -91 1556 -91 
Q 1019 -91 701 211 
Q 384 513 384 1019 
Q 384 1609 779 1909 
Q 1175 2209 1959 2209 
L 2766 2209 
L 2766 2266 
Q 2766 2663 2505 2880 
Q 2244 3097 1772 3097 
Q 1472 3097 1187 3025 
Q 903 2953 641 2809 
L 641 3341 
Q 956 3463 1253 3523 
Q 1550 3584 1831 3584 
Q 2591 3584 2966 3190 
Q 3341 2797 3341 1997 
z
" transform="scale(0.015625)"/>
      <path id="DejaVuSans-74" d="M 1172 4494 
L 1172 3500 
L 2356 3500 
L 2356 3053 
L 1172 3053 
L 1172 1153 
Q 1172 725 1289 603 
Q 1406 481 1766 481 
L 2356 481 
L 2356 0 
L 1766 0 
Q 1100 0 847 248 
Q 594 497 594 1153 
L 594 3053 
L 172 3053 
L 172 3500 
L 594 3500 
L 594 4494 
L 1172 4494 
z
" transform="scale(0.015625)"/>
      <path id="DejaVuSans-69" d="M 603 3500 
L 1178 3500 
L 1178 0 
L 603 0 
L 603 3500 
z
M 603 4863 
L 1178 4863 
L 1178 4134 
L 603 4134 
L 603 4863 
z
" transform="scale(0.015625)"/>
      <path id="DejaVuSans-76" d="M 191 3500 
L 800 3500 
L 1894 563 
L 2988 3500 
L 3597 3500 
L 2284 0 
L 1503 0 
L 191 3500 
z
" transform="scale(0.015625)"/>
      <path id="DejaVuSans-65" d="M 3597 1894 
L 3597 1613 
L 953 1613 
Q 991 1019 1311 708 
Q 1631 397 2203 397 
Q 2534 397 2845 478 
Q 3156 559 3463 722 
L 3463 178 
Q 3153 47 2828 -22 
Q 2503 -91 2169 -91 
Q 1331 -91 842 396 
Q 353 884 353 1716 
Q 353 2575 817 3079 
Q 1281 3584 2069 3584 
Q 2775 3584 3186 3129 
Q 3597 2675 3597 1894 
z
M 3022 2063 
Q 3016 2534 2758 2815 
Q 2500 3097 2075 3097 
Q 1594 3097 1305 2825 
Q 1016 2553 972 2059 
L 3022 2063 
z
" transform="scale(0.015625)"/>
      <path id="DejaVuSans-20" transform="scale(0.015625)"/>
      <path id="DejaVuSans-43" d="M 4122 4306 
L 4122 3641 
Q 3803 3938 3442 4084 
Q 3081 4231 2675 4231 
Q 1875 4231 1450 3742 
Q 1025 3253 1025 2328 
Q 1025 1406 1450 917 
Q 1875 428 2675 428 
Q 3081 428 3442 575 
Q 3803 722 4122 1019 
L 4122 359 
Q 3791 134 3420 21 
Q 3050 -91 2638 -91 
Q 1578 -91 968 557 
Q 359 1206 359 2328 
Q 359 3453 968 4101 
Q 1578 4750 2638 4750 
Q 3056 4750 3426 4639 
Q 3797 4528 4122 4306 
z
" transform="scale(0.015625)"/>
      <path id="DejaVuSans-6f" d="M 1959 3097 
Q 1497 3097 1228 2736 
Q 959 2375 959 1747 
Q 959 1119 1226 758 
Q 1494 397 1959 397 
Q 2419 397 2687 759 
Q 2956 1122 2956 1747 
Q 2956 2369 2687 2733 
Q 2419 3097 1959 3097 
z
M 1959 3584 
Q 2709 3584 3137 3096 
Q 3566 2609 3566 1747 
Q 3566 888 3137 398 
Q 2709 -91 1959 -91 
Q 1206 -91 779 398 
Q 353 888 353 1747 
Q 353 2609 779 3096 
Q 1206 3584 1959 3584 
z
" transform="scale(0.015625)"/>
      <path id="DejaVuSans-6e" d="M 3513 2113 
L 3513 0 
L 2938 0 
L 2938 2094 
Q 2938 2591 2744 2837 
Q 2550 3084 2163 3084 
Q 1697 3084 1428 2787 
Q 1159 2491 1159 1978 
L 1159 0 
L 581 0 
L 581 3500 
L 1159 3500 
L 1159 2956 
Q 1366 3272 1645 3428 
Q 1925 3584 2291 3584 
Q 2894 3584 3203 3211 
Q 3513 2838 3513 2113 
z
" transform="scale(0.015625)"/>
      <path id="DejaVuSans-66" d="M 2375 4863 
L 2375 4384 
L 1825 4384 
Q 1516 4384 1395 4259 
Q 1275 4134 1275 3809 
L 1275 3500 
L 2222 3500 
L 2222 3053 
L 1275 3053 
L 1275 0 
L 697 0 
L 697 3053 
L 147 3053 
L 147 3500 
L 697 3500 
L 697 3744 
Q 697 4328 969 4595 
Q 1241 4863 1831 4863 
L 2375 4863 
z
" transform="scale(0.015625)"/>
      <path id="DejaVuSans-72" d="M 2631 2963 
Q 2534 3019 2420 3045 
Q 2306 3072 2169 3072 
Q 1681 3072 1420 2755 
Q 1159 2438 1159 1844 
L 1159 0 
L 581 0 
L 581 3500 
L 1159 3500 
L 1159 2956 
Q 1341 3275 1631 3429 
Q 1922 3584 2338 3584 
Q 2397 3584 2469 3576 
Q 2541 3569 2628 3553 
L 2631 2963 
z
" transform="scale(0.015625)"/>
      <path id="DejaVuSans-64" d="M 2906 2969 
L 2906 4863 
L 3481 4863 
L 3481 0 
L 2906 0 
L 2906 525 
Q 2725 213 2448 61 
Q 2172 -91 1784 -91 
Q 1150 -91 751 415 
Q 353 922 353 1747 
Q 353 2572 751 3078 
Q 1150 3584 1784 3584 
Q 2172 3584 2448 3432 
Q 2725 3281 2906 2969 
z
M 947 1747 
Q 947 1113 1208 752 
Q 1469 391 1925 391 
Q 2381 391 2643 752 
Q 2906 1113 2906 1747 
Q 2906 2381 2643 2742 
Q 2381 3103 1925 3103 
Q 1469 3103 1208 2742 
Q 947 2381 947 1747 
z
" transform="scale(0.015625)"/>
      <path id="DejaVuSans-73" d="M 2834 3397 
L 2834 2853 
Q 2591 2978 2328 3040 
Q 2066 3103 1784 3103 
Q 1356 3103 1142 2972 
Q 928 2841 928 2578 
Q 928 2378 1081 2264 
Q 1234 2150 1697 2047 
L 1894 2003 
Q 2506 1872 2764 1633 
Q 3022 1394 3022 966 
Q 3022 478 2636 193 
Q 2250 -91 1575 -91 
Q 1294 -91 989 -36 
Q 684 19 347 128 
L 347 722 
Q 666 556 975 473 
Q 1284 391 1588 391 
Q 1994 391 2212 530 
Q 2431 669 2431 922 
Q 2431 1156 2273 1281 
Q 2116 1406 1581 1522 
L 1381 1569 
Q 847 1681 609 1914 
Q 372 2147 372 2553 
Q 372 3047 722 3315 
Q 1072 3584 1716 3584 
Q 2034 3584 2315 3537 
Q 2597 3491 2834 3397 
z
" transform="scale(0.015625)"/>
      <path id="DejaVuSans-46" d="M 628 4666 
L 3309 4666 
L 3309 4134 
L 1259 4134 
L 1259 2759 
L 3109 2759 
L 3109 2228 
L 1259 2228 
L 1259 0 
L 628 0 
L 628 4666 
z
" transform="scale(0.015625)"/>
      <path id="DejaVuSans-67" d="M 2906 1791 
Q 2906 2416 2648 2759 
Q 2391 3103 1925 3103 
Q 1463 3103 1205 2759 
Q 947 2416 947 1791 
Q 947 1169 1205 825 
Q 1463 481 1925 481 
Q 2391 481 2648 825 
Q 2906 1169 2906 1791 
z
M 3481 434 
Q 3481 -459 3084 -895 
Q 2688 -1331 1869 -1331 
Q 1566 -1331 1297 -1286 
Q 1028 -1241 775 -1147 
L 775 -588 
Q 1028 -725 1275 -790 
Q 1522 -856 1778 -856 
Q 2344 -856 2625 -561 
Q 2906 -266 2906 331 
L 2906 616 
Q 2728 306 2450 153 
Q 2172 0 1784 0 
Q 1141 0 747 490 
Q 353 981 353 1791 
Q 353 2603 747 3093 
Q 1141 3584 1784 3584 
Q 2172 3584 2450 3431 
Q 2728 3278 2906 2969 
L 2906 3500 
L 3481 3500 
L 3481 434 
z
" transform="scale(0.015625)"/>
      <path id="DejaVuSans-4b" d="M 628 4666 
L 1259 4666 
L 1259 2694 
L 3353 4666 
L 4166 4666 
L 1850 2491 
L 4331 0 
L 3500 0 
L 1259 2247 
L 1259 0 
L 628 0 
L 628 4666 
z
" transform="scale(0.015625)"/>
     </defs>
     <use xlink:href="#DejaVuSans-41"/>
     <use xlink:href="#DejaVuSans-63" x="66.658203"/>
     <use xlink:href="#DejaVuSans-63" x="121.638672"/>
     <use xlink:href="#DejaVuSans-75" x="176.619141"/>
     <use xlink:href="#DejaVuSans-6d" x="239.998047"/>
     <use xlink:href="#DejaVuSans-75" x="337.410156"/>
     <use xlink:href="#DejaVuSans-6c" x="400.789062"/>
     <use xlink:href="#DejaVuSans-61" x="428.572266"/>
     <use xlink:href="#DejaVuSans-74" x="489.851562"/>
     <use xlink:href="#DejaVuSans-69" x="529.060547"/>
     <use xlink:href="#DejaVuSans-76" x="556.84375"/>
     <use xlink:href="#DejaVuSans-65" x="616.023438"/>
     <use xlink:href="#DejaVuSans-20" x="677.546875"/>
     <use xlink:href="#DejaVuSans-43" x="709.333984"/>
     <use xlink:href="#DejaVuSans-6f" x="779.158203"/>
     <use xlink:href="#DejaVuSans-6e" x="840.339844"/>
     <use xlink:href="#DejaVuSans-66" x="903.71875"/>
     <use xlink:href="#DejaVuSans-69" x="938.923828"/>
     <use xlink:href="#DejaVuSans-72" x="966.707031"/>
     <use xlink:href="#DejaVuSans-6d" x="1006.070312"/>
     <use xlink:href="#DejaVuSans-65" x="1103.482422"/>
     <use xlink:href="#DejaVuSans-64" x="1165.005859"/>
     <use xlink:href="#DejaVuSans-20" x="1228.482422"/>
     <use xlink:href="#DejaVuSans-43" x="1260.269531"/>
     <use xlink:href="#DejaVuSans-61" x="1330.09375"/>
     <use xlink:href="#DejaVuSans-73" x="1391.373047"/>
     <use xlink:href="#DejaVuSans-65" x="1443.472656"/>
     <use xlink:href="#DejaVuSans-73" x="1504.996094"/>
     <use xlink:href="#DejaVuSans-20" x="1557.095703"/>
     <use xlink:href="#DejaVuSans-46" x="1588.882812"/>
     <use xlink:href="#DejaVuSans-6f" x="1642.777344"/>
     <use xlink:href="#DejaVuSans-72" x="1703.958984"/>
     <use xlink:href="#DejaVuSans-65" x="1742.822266"/>
     <use xlink:href="#DejaVuSans-63" x="1804.345703"/>
     <use xlink:href="#DejaVuSans-61" x="1859.326172"/>
     <use xlink:href="#DejaVuSans-73" x="1920.605469"/>
     <use xlink:href="#DejaVuSans-74" x="1972.705078"/>
     <use xlink:href="#DejaVuSans-69" x="2011.914062"/>
     <use xlink:href="#DejaVuSans-6e" x="2039.697266"/>
     <use xlink:href="#DejaVuSans-67" x="2103.076172"/>
     <use xlink:href="#DejaVuSans-20" x="2166.552734"/>
     <use xlink:href="#DejaVuSans-2d" x="2198.339844"/>
     <use xlink:href="#DejaVuSans-20" x="2234.423828"/>
     <use xlink:href="#DejaVuSans-4b" x="2266.210938"/>
     <use xlink:href="#DejaVuSans-61" x="2330.037109"/>
     <use xlink:href="#DejaVuSans-6e" x="2391.316406"/>
     <use xlink:href="#DejaVuSans-73" x="2454.695312"/>
     <use xlink:href="#DejaVuSans-61" x="2506.794922"/>
     <use xlink:href="#DejaVuSans-73" x="2568.074219"/>
    </g>
    <!-- ARIMA (4, 2, 1)x(1, 0, 1, 7) (R2 = 0.994680) -->
    <g transform="translate(589.990937 29.7555)scale(0.12 -0.12)">
     <defs>
      <path id="DejaVuSans-52" d="M 2841 2188 
Q 3044 2119 3236 1894 
Q 3428 1669 3622 1275 
L 4263 0 
L 3584 0 
L 2988 1197 
Q 2756 1666 2539 1819 
Q 2322 1972 1947 1972 
L 1259 1972 
L 1259 0 
L 628 0 
L 628 4666 
L 2053 4666 
Q 2853 4666 3247 4331 
Q 3641 3997 3641 3322 
Q 3641 2881 3436 2590 
Q 3231 2300 2841 2188 
z
M 1259 4147 
L 1259 2491 
L 2053 2491 
Q 2509 2491 2742 2702 
Q 2975 2913 2975 3322 
Q 2975 3731 2742 3939 
Q 2509 4147 2053 4147 
L 1259 4147 
z
" transform="scale(0.015625)"/>
      <path id="DejaVuSans-49" d="M 628 4666 
L 1259 4666 
L 1259 0 
L 628 0 
L 628 4666 
z
" transform="scale(0.015625)"/>
      <path id="DejaVuSans-4d" d="M 628 4666 
L 1569 4666 
L 2759 1491 
L 3956 4666 
L 4897 4666 
L 4897 0 
L 4281 0 
L 4281 4097 
L 3078 897 
L 2444 897 
L 1241 4097 
L 1241 0 
L 628 0 
L 628 4666 
z
" transform="scale(0.015625)"/>
      <path id="DejaVuSans-28" d="M 1984 4856 
Q 1566 4138 1362 3434 
Q 1159 2731 1159 2009 
Q 1159 1288 1364 580 
Q 1569 -128 1984 -844 
L 1484 -844 
Q 1016 -109 783 600 
Q 550 1309 550 2009 
Q 550 2706 781 3412 
Q 1013 4119 1484 4856 
L 1984 4856 
z
" transform="scale(0.015625)"/>
      <path id="DejaVuSans-2c" d="M 750 794 
L 1409 794 
L 1409 256 
L 897 -744 
L 494 -744 
L 750 256 
L 750 794 
z
" transform="scale(0.015625)"/>
      <path id="DejaVuSans-29" d="M 513 4856 
L 1013 4856 
Q 1481 4119 1714 3412 
Q 1947 2706 1947 2009 
Q 1947 1309 1714 600 
Q 1481 -109 1013 -844 
L 513 -844 
Q 928 -128 1133 580 
Q 1338 1288 1338 2009 
Q 1338 2731 1133 3434 
Q 928 4138 513 4856 
z
" transform="scale(0.015625)"/>
      <path id="DejaVuSans-78" d="M 3513 3500 
L 2247 1797 
L 3578 0 
L 2900 0 
L 1881 1375 
L 863 0 
L 184 0 
L 1544 1831 
L 300 3500 
L 978 3500 
L 1906 2253 
L 2834 3500 
L 3513 3500 
z
" transform="scale(0.015625)"/>
      <path id="DejaVuSans-3d" d="M 678 2906 
L 4684 2906 
L 4684 2381 
L 678 2381 
L 678 2906 
z
M 678 1631 
L 4684 1631 
L 4684 1100 
L 678 1100 
L 678 1631 
z
" transform="scale(0.015625)"/>
      <path id="DejaVuSans-2e" d="M 684 794 
L 1344 794 
L 1344 0 
L 684 0 
L 684 794 
z
" transform="scale(0.015625)"/>
      <path id="DejaVuSans-39" d="M 703 97 
L 703 672 
Q 941 559 1184 500 
Q 1428 441 1663 441 
Q 2288 441 2617 861 
Q 2947 1281 2994 2138 
Q 2813 1869 2534 1725 
Q 2256 1581 1919 1581 
Q 1219 1581 811 2004 
Q 403 2428 403 3163 
Q 403 3881 828 4315 
Q 1253 4750 1959 4750 
Q 2769 4750 3195 4129 
Q 3622 3509 3622 2328 
Q 3622 1225 3098 567 
Q 2575 -91 1691 -91 
Q 1453 -91 1209 -44 
Q 966 3 703 97 
z
M 1959 2075 
Q 2384 2075 2632 2365 
Q 2881 2656 2881 3163 
Q 2881 3666 2632 3958 
Q 2384 4250 1959 4250 
Q 1534 4250 1286 3958 
Q 1038 3666 1038 3163 
Q 1038 2656 1286 2365 
Q 1534 2075 1959 2075 
z
" transform="scale(0.015625)"/>
     </defs>
     <use xlink:href="#DejaVuSans-41"/>
     <use xlink:href="#DejaVuSans-52" x="68.408203"/>
     <use xlink:href="#DejaVuSans-49" x="137.890625"/>
     <use xlink:href="#DejaVuSans-4d" x="167.382812"/>
     <use xlink:href="#DejaVuSans-41" x="253.662109"/>
     <use xlink:href="#DejaVuSans-20" x="322.070312"/>
     <use xlink:href="#DejaVuSans-28" x="353.857422"/>
     <use xlink:href="#DejaVuSans-34" x="392.871094"/>
     <use xlink:href="#DejaVuSans-2c" x="456.494141"/>
     <use xlink:href="#DejaVuSans-20" x="488.28125"/>
     <use xlink:href="#DejaVuSans-32" x="520.068359"/>
     <use xlink:href="#DejaVuSans-2c" x="583.691406"/>
     <use xlink:href="#DejaVuSans-20" x="615.478516"/>
     <use xlink:href="#DejaVuSans-31" x="647.265625"/>
     <use xlink:href="#DejaVuSans-29" x="710.888672"/>
     <use xlink:href="#DejaVuSans-78" x="749.902344"/>
     <use xlink:href="#DejaVuSans-28" x="809.082031"/>
     <use xlink:href="#DejaVuSans-31" x="848.095703"/>
     <use xlink:href="#DejaVuSans-2c" x="911.71875"/>
     <use xlink:href="#DejaVuSans-20" x="943.505859"/>
     <use xlink:href="#DejaVuSans-30" x="975.292969"/>
     <use xlink:href="#DejaVuSans-2c" x="1038.916016"/>
     <use xlink:href="#DejaVuSans-20" x="1070.703125"/>
     <use xlink:href="#DejaVuSans-31" x="1102.490234"/>
     <use xlink:href="#DejaVuSans-2c" x="1166.113281"/>
     <use xlink:href="#DejaVuSans-20" x="1197.900391"/>
     <use xlink:href="#DejaVuSans-37" x="1229.6875"/>
     <use xlink:href="#DejaVuSans-29" x="1293.310547"/>
     <use xlink:href="#DejaVuSans-20" x="1332.324219"/>
     <use xlink:href="#DejaVuSans-28" x="1364.111328"/>
     <use xlink:href="#DejaVuSans-52" x="1403.125"/>
     <use xlink:href="#DejaVuSans-32" x="1472.607422"/>
     <use xlink:href="#DejaVuSans-20" x="1536.230469"/>
     <use xlink:href="#DejaVuSans-3d" x="1568.017578"/>
     <use xlink:href="#DejaVuSans-20" x="1651.806641"/>
     <use xlink:href="#DejaVuSans-30" x="1683.59375"/>
     <use xlink:href="#DejaVuSans-2e" x="1747.216797"/>
     <use xlink:href="#DejaVuSans-39" x="1779.003906"/>
     <use xlink:href="#DejaVuSans-39" x="1842.626953"/>
     <use xlink:href="#DejaVuSans-34" x="1906.25"/>
     <use xlink:href="#DejaVuSans-36" x="1969.873047"/>
     <use xlink:href="#DejaVuSans-38" x="2033.496094"/>
     <use xlink:href="#DejaVuSans-30" x="2097.119141"/>
     <use xlink:href="#DejaVuSans-29" x="2160.742188"/>
    </g>
   </g>
   <g id="legend_1">
    <g id="patch_7">
     <path d="M 59.375 87.789875 
L 156.454688 87.789875 
Q 158.454688 87.789875 158.454688 85.789875 
L 158.454688 42.7555 
Q 158.454688 40.7555 156.454688 40.7555 
L 59.375 40.7555 
Q 57.375 40.7555 57.375 42.7555 
L 57.375 85.789875 
Q 57.375 87.789875 59.375 87.789875 
z
" style="fill: #ffffff; opacity: 0.8; stroke: #cccccc; stroke-linejoin: miter"/>
    </g>
    <g id="line2d_20">
     <path d="M 61.375 48.853937 
L 71.375 48.853937 
L 81.375 48.853937 
" style="fill: none; stroke: #0000ff; stroke-width: 1.5; stroke-linecap: square"/>
    </g>
    <g id="text_18">
     <!-- Actual Value -->
     <g transform="translate(89.375 52.353937)scale(0.1 -0.1)">
      <defs>
       <path id="DejaVuSans-56" d="M 1831 0 
L 50 4666 
L 709 4666 
L 2188 738 
L 3669 4666 
L 4325 4666 
L 2547 0 
L 1831 0 
z
" transform="scale(0.015625)"/>
      </defs>
      <use xlink:href="#DejaVuSans-41"/>
      <use xlink:href="#DejaVuSans-63" x="66.658203"/>
      <use xlink:href="#DejaVuSans-74" x="121.638672"/>
      <use xlink:href="#DejaVuSans-75" x="160.847656"/>
      <use xlink:href="#DejaVuSans-61" x="224.226562"/>
      <use xlink:href="#DejaVuSans-6c" x="285.505859"/>
      <use xlink:href="#DejaVuSans-20" x="313.289062"/>
      <use xlink:href="#DejaVuSans-56" x="345.076172"/>
      <use xlink:href="#DejaVuSans-61" x="405.734375"/>
      <use xlink:href="#DejaVuSans-6c" x="467.013672"/>
      <use xlink:href="#DejaVuSans-75" x="494.796875"/>
      <use xlink:href="#DejaVuSans-65" x="558.175781"/>
     </g>
    </g>
    <g id="line2d_21">
     <path d="M 61.375 63.532062 
L 71.375 63.532062 
L 81.375 63.532062 
" style="fill: none; stroke: #ffa500; stroke-width: 1.5; stroke-linecap: square"/>
    </g>
    <g id="text_19">
     <!-- Check Value -->
     <g transform="translate(89.375 67.032062)scale(0.1 -0.1)">
      <defs>
       <path id="DejaVuSans-68" d="M 3513 2113 
L 3513 0 
L 2938 0 
L 2938 2094 
Q 2938 2591 2744 2837 
Q 2550 3084 2163 3084 
Q 1697 3084 1428 2787 
Q 1159 2491 1159 1978 
L 1159 0 
L 581 0 
L 581 4863 
L 1159 4863 
L 1159 2956 
Q 1366 3272 1645 3428 
Q 1925 3584 2291 3584 
Q 2894 3584 3203 3211 
Q 3513 2838 3513 2113 
z
" transform="scale(0.015625)"/>
       <path id="DejaVuSans-6b" d="M 581 4863 
L 1159 4863 
L 1159 1991 
L 2875 3500 
L 3609 3500 
L 1753 1863 
L 3688 0 
L 2938 0 
L 1159 1709 
L 1159 0 
L 581 0 
L 581 4863 
z
" transform="scale(0.015625)"/>
      </defs>
      <use xlink:href="#DejaVuSans-43"/>
      <use xlink:href="#DejaVuSans-68" x="69.824219"/>
      <use xlink:href="#DejaVuSans-65" x="133.203125"/>
      <use xlink:href="#DejaVuSans-63" x="194.726562"/>
      <use xlink:href="#DejaVuSans-6b" x="249.707031"/>
      <use xlink:href="#DejaVuSans-20" x="307.617188"/>
      <use xlink:href="#DejaVuSans-56" x="339.404297"/>
      <use xlink:href="#DejaVuSans-61" x="400.0625"/>
      <use xlink:href="#DejaVuSans-6c" x="461.341797"/>
      <use xlink:href="#DejaVuSans-75" x="489.125"/>
      <use xlink:href="#DejaVuSans-65" x="552.503906"/>
     </g>
    </g>
    <g id="line2d_22">
     <path d="M 61.375 78.210187 
L 71.375 78.210187 
L 81.375 78.210187 
" style="fill: none; stroke: #ff0000; stroke-width: 1.5; stroke-linecap: square"/>
    </g>
    <g id="text_20">
     <!-- Predict Value -->
     <g transform="translate(89.375 81.710187)scale(0.1 -0.1)">
      <defs>
       <path id="DejaVuSans-50" d="M 1259 4147 
L 1259 2394 
L 2053 2394 
Q 2494 2394 2734 2622 
Q 2975 2850 2975 3272 
Q 2975 3691 2734 3919 
Q 2494 4147 2053 4147 
L 1259 4147 
z
M 628 4666 
L 2053 4666 
Q 2838 4666 3239 4311 
Q 3641 3956 3641 3272 
Q 3641 2581 3239 2228 
Q 2838 1875 2053 1875 
L 1259 1875 
L 1259 0 
L 628 0 
L 628 4666 
z
" transform="scale(0.015625)"/>
      </defs>
      <use xlink:href="#DejaVuSans-50"/>
      <use xlink:href="#DejaVuSans-72" x="58.552734"/>
      <use xlink:href="#DejaVuSans-65" x="97.416016"/>
      <use xlink:href="#DejaVuSans-64" x="158.939453"/>
      <use xlink:href="#DejaVuSans-69" x="222.416016"/>
      <use xlink:href="#DejaVuSans-63" x="250.199219"/>
      <use xlink:href="#DejaVuSans-74" x="305.179688"/>
      <use xlink:href="#DejaVuSans-20" x="344.388672"/>
      <use xlink:href="#DejaVuSans-56" x="376.175781"/>
      <use xlink:href="#DejaVuSans-61" x="436.833984"/>
      <use xlink:href="#DejaVuSans-6c" x="498.113281"/>
      <use xlink:href="#DejaVuSans-75" x="525.896484"/>
      <use xlink:href="#DejaVuSans-65" x="589.275391"/>
     </g>
    </g>
   </g>
  </g>
 </g>
 <defs>
  <clipPath id="pe14f9d9b49">
   <rect x="52.375" y="35.7555" width="1339.2" height="332.64"/>
  </clipPath>
 </defs>
</svg>
