<?xml version="1.0" encoding="utf-8" standalone="no"?>
<!DOCTYPE svg PUBLIC "-//W3C//DTD SVG 1.1//EN"
  "http://www.w3.org/Graphics/SVG/1.1/DTD/svg11.dtd">
<svg xmlns:xlink="http://www.w3.org/1999/xlink" width="1398.775pt" height="392.273625pt" viewBox="0 0 1398.775 392.273625" xmlns="http://www.w3.org/2000/svg" version="1.1">
 <metadata>
  <rdf:RDF xmlns:dc="http://purl.org/dc/elements/1.1/" xmlns:cc="http://creativecommons.org/ns#" xmlns:rdf="http://www.w3.org/1999/02/22-rdf-syntax-ns#">
   <cc:Work>
    <dc:type rdf:resource="http://purl.org/dc/dcmitype/StillImage"/>
    <dc:date>2022-07-07T17:52:25.823848</dc:date>
    <dc:format>image/svg+xml</dc:format>
    <dc:creator>
     <cc:Agent>
      <dc:title>Matplotlib v3.5.2, https://matplotlib.org/</dc:title>
     </cc:Agent>
    </dc:creator>
   </cc:Work>
  </rdf:RDF>
 </metadata>
 <defs>
  <style type="text/css">*{stroke-linejoin: round; stroke-linecap: butt}</style>
 </defs>
 <g id="figure_1">
  <g id="patch_1">
   <path d="M 0 392.273625 
L 1398.775 392.273625 
L 1398.775 0 
L 0 0 
z
" style="fill: #ffffff"/>
  </g>
  <g id="axes_1">
   <g id="patch_2">
    <path d="M 52.375 368.3955 
L 1391.575 368.3955 
L 1391.575 35.7555 
L 52.375 35.7555 
z
" style="fill: #ffffff"/>
   </g>
   <g id="matplotlib.axis_1">
    <g id="xtick_1">
     <g id="line2d_1">
      <defs>
       <path id="m519214d833" d="M 0 0 
L 0 3.5 
" style="stroke: #000000; stroke-width: 0.8"/>
      </defs>
      <g>
       <use xlink:href="#m519214d833" x="83.74993" y="368.3955" style="stroke: #000000; stroke-width: 0.8"/>
      </g>
     </g>
     <g id="text_1">
      <!-- 2020-01 -->
      <g transform="translate(62.858524 382.993937)scale(0.1 -0.1)">
       <defs>
        <path id="DejaVuSans-32" d="M 1228 531 
L 3431 531 
L 3431 0 
L 469 0 
L 469 531 
Q 828 903 1448 1529 
Q 2069 2156 2228 2338 
Q 2531 2678 2651 2914 
Q 2772 3150 2772 3378 
Q 2772 3750 2511 3984 
Q 2250 4219 1831 4219 
Q 1534 4219 1204 4116 
Q 875 4013 500 3803 
L 500 4441 
Q 881 4594 1212 4672 
Q 1544 4750 1819 4750 
Q 2544 4750 2975 4387 
Q 3406 4025 3406 3419 
Q 3406 3131 3298 2873 
Q 3191 2616 2906 2266 
Q 2828 2175 2409 1742 
Q 1991 1309 1228 531 
z
" transform="scale(0.015625)"/>
        <path id="DejaVuSans-30" d="M 2034 4250 
Q 1547 4250 1301 3770 
Q 1056 3291 1056 2328 
Q 1056 1369 1301 889 
Q 1547 409 2034 409 
Q 2525 409 2770 889 
Q 3016 1369 3016 2328 
Q 3016 3291 2770 3770 
Q 2525 4250 2034 4250 
z
M 2034 4750 
Q 2819 4750 3233 4129 
Q 3647 3509 3647 2328 
Q 3647 1150 3233 529 
Q 2819 -91 2034 -91 
Q 1250 -91 836 529 
Q 422 1150 422 2328 
Q 422 3509 836 4129 
Q 1250 4750 2034 4750 
z
" transform="scale(0.015625)"/>
        <path id="DejaVuSans-2d" d="M 313 2009 
L 1997 2009 
L 1997 1497 
L 313 1497 
L 313 2009 
z
" transform="scale(0.015625)"/>
        <path id="DejaVuSans-31" d="M 794 531 
L 1825 531 
L 1825 4091 
L 703 3866 
L 703 4441 
L 1819 4666 
L 2450 4666 
L 2450 531 
L 3481 531 
L 3481 0 
L 794 0 
L 794 531 
z
" transform="scale(0.015625)"/>
       </defs>
       <use xlink:href="#DejaVuSans-32"/>
       <use xlink:href="#DejaVuSans-30" x="63.623047"/>
       <use xlink:href="#DejaVuSans-32" x="127.246094"/>
       <use xlink:href="#DejaVuSans-30" x="190.869141"/>
       <use xlink:href="#DejaVuSans-2d" x="254.492188"/>
       <use xlink:href="#DejaVuSans-30" x="290.576172"/>
       <use xlink:href="#DejaVuSans-31" x="354.199219"/>
      </g>
     </g>
    </g>
    <g id="xtick_2">
     <g id="line2d_2">
      <g>
       <use xlink:href="#m519214d833" x="205.763546" y="368.3955" style="stroke: #000000; stroke-width: 0.8"/>
      </g>
     </g>
     <g id="text_2">
      <!-- 2020-04 -->
      <g transform="translate(184.87214 382.993937)scale(0.1 -0.1)">
       <defs>
        <path id="DejaVuSans-34" d="M 2419 4116 
L 825 1625 
L 2419 1625 
L 2419 4116 
z
M 2253 4666 
L 3047 4666 
L 3047 1625 
L 3713 1625 
L 3713 1100 
L 3047 1100 
L 3047 0 
L 2419 0 
L 2419 1100 
L 313 1100 
L 313 1709 
L 2253 4666 
z
" transform="scale(0.015625)"/>
       </defs>
       <use xlink:href="#DejaVuSans-32"/>
       <use xlink:href="#DejaVuSans-30" x="63.623047"/>
       <use xlink:href="#DejaVuSans-32" x="127.246094"/>
       <use xlink:href="#DejaVuSans-30" x="190.869141"/>
       <use xlink:href="#DejaVuSans-2d" x="254.492188"/>
       <use xlink:href="#DejaVuSans-30" x="290.576172"/>
       <use xlink:href="#DejaVuSans-34" x="354.199219"/>
      </g>
     </g>
    </g>
    <g id="xtick_3">
     <g id="line2d_3">
      <g>
       <use xlink:href="#m519214d833" x="327.777163" y="368.3955" style="stroke: #000000; stroke-width: 0.8"/>
      </g>
     </g>
     <g id="text_3">
      <!-- 2020-07 -->
      <g transform="translate(306.885756 382.993937)scale(0.1 -0.1)">
       <defs>
        <path id="DejaVuSans-37" d="M 525 4666 
L 3525 4666 
L 3525 4397 
L 1831 0 
L 1172 0 
L 2766 4134 
L 525 4134 
L 525 4666 
z
" transform="scale(0.015625)"/>
       </defs>
       <use xlink:href="#DejaVuSans-32"/>
       <use xlink:href="#DejaVuSans-30" x="63.623047"/>
       <use xlink:href="#DejaVuSans-32" x="127.246094"/>
       <use xlink:href="#DejaVuSans-30" x="190.869141"/>
       <use xlink:href="#DejaVuSans-2d" x="254.492188"/>
       <use xlink:href="#DejaVuSans-30" x="290.576172"/>
       <use xlink:href="#DejaVuSans-37" x="354.199219"/>
      </g>
     </g>
    </g>
    <g id="xtick_4">
     <g id="line2d_4">
      <g>
       <use xlink:href="#m519214d833" x="451.131588" y="368.3955" style="stroke: #000000; stroke-width: 0.8"/>
      </g>
     </g>
     <g id="text_4">
      <!-- 2020-10 -->
      <g transform="translate(430.240182 382.993937)scale(0.1 -0.1)">
       <use xlink:href="#DejaVuSans-32"/>
       <use xlink:href="#DejaVuSans-30" x="63.623047"/>
       <use xlink:href="#DejaVuSans-32" x="127.246094"/>
       <use xlink:href="#DejaVuSans-30" x="190.869141"/>
       <use xlink:href="#DejaVuSans-2d" x="254.492188"/>
       <use xlink:href="#DejaVuSans-31" x="290.576172"/>
       <use xlink:href="#DejaVuSans-30" x="354.199219"/>
      </g>
     </g>
    </g>
    <g id="xtick_5">
     <g id="line2d_5">
      <g>
       <use xlink:href="#m519214d833" x="574.486013" y="368.3955" style="stroke: #000000; stroke-width: 0.8"/>
      </g>
     </g>
     <g id="text_5">
      <!-- 2021-01 -->
      <g transform="translate(553.594607 382.993937)scale(0.1 -0.1)">
       <use xlink:href="#DejaVuSans-32"/>
       <use xlink:href="#DejaVuSans-30" x="63.623047"/>
       <use xlink:href="#DejaVuSans-32" x="127.246094"/>
       <use xlink:href="#DejaVuSans-31" x="190.869141"/>
       <use xlink:href="#DejaVuSans-2d" x="254.492188"/>
       <use xlink:href="#DejaVuSans-30" x="290.576172"/>
       <use xlink:href="#DejaVuSans-31" x="354.199219"/>
      </g>
     </g>
    </g>
    <g id="xtick_6">
     <g id="line2d_6">
      <g>
       <use xlink:href="#m519214d833" x="695.158821" y="368.3955" style="stroke: #000000; stroke-width: 0.8"/>
      </g>
     </g>
     <g id="text_6">
      <!-- 2021-04 -->
      <g transform="translate(674.267414 382.993937)scale(0.1 -0.1)">
       <use xlink:href="#DejaVuSans-32"/>
       <use xlink:href="#DejaVuSans-30" x="63.623047"/>
       <use xlink:href="#DejaVuSans-32" x="127.246094"/>
       <use xlink:href="#DejaVuSans-31" x="190.869141"/>
       <use xlink:href="#DejaVuSans-2d" x="254.492188"/>
       <use xlink:href="#DejaVuSans-30" x="290.576172"/>
       <use xlink:href="#DejaVuSans-34" x="354.199219"/>
      </g>
     </g>
    </g>
    <g id="xtick_7">
     <g id="line2d_7">
      <g>
       <use xlink:href="#m519214d833" x="817.172437" y="368.3955" style="stroke: #000000; stroke-width: 0.8"/>
      </g>
     </g>
     <g id="text_7">
      <!-- 2021-07 -->
      <g transform="translate(796.281031 382.993937)scale(0.1 -0.1)">
       <use xlink:href="#DejaVuSans-32"/>
       <use xlink:href="#DejaVuSans-30" x="63.623047"/>
       <use xlink:href="#DejaVuSans-32" x="127.246094"/>
       <use xlink:href="#DejaVuSans-31" x="190.869141"/>
       <use xlink:href="#DejaVuSans-2d" x="254.492188"/>
       <use xlink:href="#DejaVuSans-30" x="290.576172"/>
       <use xlink:href="#DejaVuSans-37" x="354.199219"/>
      </g>
     </g>
    </g>
    <g id="xtick_8">
     <g id="line2d_8">
      <g>
       <use xlink:href="#m519214d833" x="940.526862" y="368.3955" style="stroke: #000000; stroke-width: 0.8"/>
      </g>
     </g>
     <g id="text_8">
      <!-- 2021-10 -->
      <g transform="translate(919.635456 382.993937)scale(0.1 -0.1)">
       <use xlink:href="#DejaVuSans-32"/>
       <use xlink:href="#DejaVuSans-30" x="63.623047"/>
       <use xlink:href="#DejaVuSans-32" x="127.246094"/>
       <use xlink:href="#DejaVuSans-31" x="190.869141"/>
       <use xlink:href="#DejaVuSans-2d" x="254.492188"/>
       <use xlink:href="#DejaVuSans-31" x="290.576172"/>
       <use xlink:href="#DejaVuSans-30" x="354.199219"/>
      </g>
     </g>
    </g>
    <g id="xtick_9">
     <g id="line2d_9">
      <g>
       <use xlink:href="#m519214d833" x="1063.881288" y="368.3955" style="stroke: #000000; stroke-width: 0.8"/>
      </g>
     </g>
     <g id="text_9">
      <!-- 2022-01 -->
      <g transform="translate(1042.989881 382.993937)scale(0.1 -0.1)">
       <use xlink:href="#DejaVuSans-32"/>
       <use xlink:href="#DejaVuSans-30" x="63.623047"/>
       <use xlink:href="#DejaVuSans-32" x="127.246094"/>
       <use xlink:href="#DejaVuSans-32" x="190.869141"/>
       <use xlink:href="#DejaVuSans-2d" x="254.492188"/>
       <use xlink:href="#DejaVuSans-30" x="290.576172"/>
       <use xlink:href="#DejaVuSans-31" x="354.199219"/>
      </g>
     </g>
    </g>
    <g id="xtick_10">
     <g id="line2d_10">
      <g>
       <use xlink:href="#m519214d833" x="1184.554095" y="368.3955" style="stroke: #000000; stroke-width: 0.8"/>
      </g>
     </g>
     <g id="text_10">
      <!-- 2022-04 -->
      <g transform="translate(1163.662689 382.993937)scale(0.1 -0.1)">
       <use xlink:href="#DejaVuSans-32"/>
       <use xlink:href="#DejaVuSans-30" x="63.623047"/>
       <use xlink:href="#DejaVuSans-32" x="127.246094"/>
       <use xlink:href="#DejaVuSans-32" x="190.869141"/>
       <use xlink:href="#DejaVuSans-2d" x="254.492188"/>
       <use xlink:href="#DejaVuSans-30" x="290.576172"/>
       <use xlink:href="#DejaVuSans-34" x="354.199219"/>
      </g>
     </g>
    </g>
    <g id="xtick_11">
     <g id="line2d_11">
      <g>
       <use xlink:href="#m519214d833" x="1306.567711" y="368.3955" style="stroke: #000000; stroke-width: 0.8"/>
      </g>
     </g>
     <g id="text_11">
      <!-- 2022-07 -->
      <g transform="translate(1285.676305 382.993937)scale(0.1 -0.1)">
       <use xlink:href="#DejaVuSans-32"/>
       <use xlink:href="#DejaVuSans-30" x="63.623047"/>
       <use xlink:href="#DejaVuSans-32" x="127.246094"/>
       <use xlink:href="#DejaVuSans-32" x="190.869141"/>
       <use xlink:href="#DejaVuSans-2d" x="254.492188"/>
       <use xlink:href="#DejaVuSans-30" x="290.576172"/>
       <use xlink:href="#DejaVuSans-37" x="354.199219"/>
      </g>
     </g>
    </g>
   </g>
   <g id="matplotlib.axis_2">
    <g id="ytick_1">
     <g id="line2d_12">
      <defs>
       <path id="mc408bfbf74" d="M 0 0 
L -3.5 0 
" style="stroke: #000000; stroke-width: 0.8"/>
      </defs>
      <g>
       <use xlink:href="#mc408bfbf74" x="52.375" y="352.491006" style="stroke: #000000; stroke-width: 0.8"/>
      </g>
     </g>
     <g id="text_12">
      <!-- 0 -->
      <g transform="translate(39.0125 356.290225)scale(0.1 -0.1)">
       <use xlink:href="#DejaVuSans-30"/>
      </g>
     </g>
    </g>
    <g id="ytick_2">
     <g id="line2d_13">
      <g>
       <use xlink:href="#mc408bfbf74" x="52.375" y="306.823861" style="stroke: #000000; stroke-width: 0.8"/>
      </g>
     </g>
     <g id="text_13">
      <!-- 20000 -->
      <g transform="translate(13.5625 310.62308)scale(0.1 -0.1)">
       <use xlink:href="#DejaVuSans-32"/>
       <use xlink:href="#DejaVuSans-30" x="63.623047"/>
       <use xlink:href="#DejaVuSans-30" x="127.246094"/>
       <use xlink:href="#DejaVuSans-30" x="190.869141"/>
       <use xlink:href="#DejaVuSans-30" x="254.492188"/>
      </g>
     </g>
    </g>
    <g id="ytick_3">
     <g id="line2d_14">
      <g>
       <use xlink:href="#mc408bfbf74" x="52.375" y="261.156717" style="stroke: #000000; stroke-width: 0.8"/>
      </g>
     </g>
     <g id="text_14">
      <!-- 40000 -->
      <g transform="translate(13.5625 264.955936)scale(0.1 -0.1)">
       <use xlink:href="#DejaVuSans-34"/>
       <use xlink:href="#DejaVuSans-30" x="63.623047"/>
       <use xlink:href="#DejaVuSans-30" x="127.246094"/>
       <use xlink:href="#DejaVuSans-30" x="190.869141"/>
       <use xlink:href="#DejaVuSans-30" x="254.492188"/>
      </g>
     </g>
    </g>
    <g id="ytick_4">
     <g id="line2d_15">
      <g>
       <use xlink:href="#mc408bfbf74" x="52.375" y="215.489572" style="stroke: #000000; stroke-width: 0.8"/>
      </g>
     </g>
     <g id="text_15">
      <!-- 60000 -->
      <g transform="translate(13.5625 219.288791)scale(0.1 -0.1)">
       <defs>
        <path id="DejaVuSans-36" d="M 2113 2584 
Q 1688 2584 1439 2293 
Q 1191 2003 1191 1497 
Q 1191 994 1439 701 
Q 1688 409 2113 409 
Q 2538 409 2786 701 
Q 3034 994 3034 1497 
Q 3034 2003 2786 2293 
Q 2538 2584 2113 2584 
z
M 3366 4563 
L 3366 3988 
Q 3128 4100 2886 4159 
Q 2644 4219 2406 4219 
Q 1781 4219 1451 3797 
Q 1122 3375 1075 2522 
Q 1259 2794 1537 2939 
Q 1816 3084 2150 3084 
Q 2853 3084 3261 2657 
Q 3669 2231 3669 1497 
Q 3669 778 3244 343 
Q 2819 -91 2113 -91 
Q 1303 -91 875 529 
Q 447 1150 447 2328 
Q 447 3434 972 4092 
Q 1497 4750 2381 4750 
Q 2619 4750 2861 4703 
Q 3103 4656 3366 4563 
z
" transform="scale(0.015625)"/>
       </defs>
       <use xlink:href="#DejaVuSans-36"/>
       <use xlink:href="#DejaVuSans-30" x="63.623047"/>
       <use xlink:href="#DejaVuSans-30" x="127.246094"/>
       <use xlink:href="#DejaVuSans-30" x="190.869141"/>
       <use xlink:href="#DejaVuSans-30" x="254.492188"/>
      </g>
     </g>
    </g>
    <g id="ytick_5">
     <g id="line2d_16">
      <g>
       <use xlink:href="#mc408bfbf74" x="52.375" y="169.822428" style="stroke: #000000; stroke-width: 0.8"/>
      </g>
     </g>
     <g id="text_16">
      <!-- 80000 -->
      <g transform="translate(13.5625 173.621647)scale(0.1 -0.1)">
       <defs>
        <path id="DejaVuSans-38" d="M 2034 2216 
Q 1584 2216 1326 1975 
Q 1069 1734 1069 1313 
Q 1069 891 1326 650 
Q 1584 409 2034 409 
Q 2484 409 2743 651 
Q 3003 894 3003 1313 
Q 3003 1734 2745 1975 
Q 2488 2216 2034 2216 
z
M 1403 2484 
Q 997 2584 770 2862 
Q 544 3141 544 3541 
Q 544 4100 942 4425 
Q 1341 4750 2034 4750 
Q 2731 4750 3128 4425 
Q 3525 4100 3525 3541 
Q 3525 3141 3298 2862 
Q 3072 2584 2669 2484 
Q 3125 2378 3379 2068 
Q 3634 1759 3634 1313 
Q 3634 634 3220 271 
Q 2806 -91 2034 -91 
Q 1263 -91 848 271 
Q 434 634 434 1313 
Q 434 1759 690 2068 
Q 947 2378 1403 2484 
z
M 1172 3481 
Q 1172 3119 1398 2916 
Q 1625 2713 2034 2713 
Q 2441 2713 2670 2916 
Q 2900 3119 2900 3481 
Q 2900 3844 2670 4047 
Q 2441 4250 2034 4250 
Q 1625 4250 1398 4047 
Q 1172 3844 1172 3481 
z
" transform="scale(0.015625)"/>
       </defs>
       <use xlink:href="#DejaVuSans-38"/>
       <use xlink:href="#DejaVuSans-30" x="63.623047"/>
       <use xlink:href="#DejaVuSans-30" x="127.246094"/>
       <use xlink:href="#DejaVuSans-30" x="190.869141"/>
       <use xlink:href="#DejaVuSans-30" x="254.492188"/>
      </g>
     </g>
    </g>
    <g id="ytick_6">
     <g id="line2d_17">
      <g>
       <use xlink:href="#mc408bfbf74" x="52.375" y="124.155283" style="stroke: #000000; stroke-width: 0.8"/>
      </g>
     </g>
     <g id="text_17">
      <!-- 100000 -->
      <g transform="translate(7.2 127.954502)scale(0.1 -0.1)">
       <use xlink:href="#DejaVuSans-31"/>
       <use xlink:href="#DejaVuSans-30" x="63.623047"/>
       <use xlink:href="#DejaVuSans-30" x="127.246094"/>
       <use xlink:href="#DejaVuSans-30" x="190.869141"/>
       <use xlink:href="#DejaVuSans-30" x="254.492188"/>
       <use xlink:href="#DejaVuSans-30" x="318.115234"/>
      </g>
     </g>
    </g>
    <g id="ytick_7">
     <g id="line2d_18">
      <g>
       <use xlink:href="#mc408bfbf74" x="52.375" y="78.488139" style="stroke: #000000; stroke-width: 0.8"/>
      </g>
     </g>
     <g id="text_18">
      <!-- 120000 -->
      <g transform="translate(7.2 82.287358)scale(0.1 -0.1)">
       <use xlink:href="#DejaVuSans-31"/>
       <use xlink:href="#DejaVuSans-32" x="63.623047"/>
       <use xlink:href="#DejaVuSans-30" x="127.246094"/>
       <use xlink:href="#DejaVuSans-30" x="190.869141"/>
       <use xlink:href="#DejaVuSans-30" x="254.492188"/>
       <use xlink:href="#DejaVuSans-30" x="318.115234"/>
      </g>
     </g>
    </g>
   </g>
   <g id="line2d_19">
    <path d="M 113.247727 352.491006 
L 170.902513 352.484156 
L 172.243322 352.372271 
L 176.265749 352.459039 
L 178.947367 352.308337 
L 180.288176 352.301487 
L 181.628985 352.084568 
L 182.969794 352.317471 
L 184.310603 351.742065 
L 185.651412 351.472628 
L 188.33303 348.577331 
L 189.673839 344.63854 
L 191.014648 346.211773 
L 192.355457 341.574275 
L 193.696266 339.491853 
L 195.037074 341.537741 
L 196.377883 340.708882 
L 197.718692 337.521316 
L 199.059501 335.813365 
L 200.40031 334.911439 
L 201.741119 335.941233 
L 203.081928 336.473255 
L 204.422737 331.506953 
L 205.763546 319.327525 
L 207.104355 328.737241 
L 208.445164 328.116167 
L 209.785973 329.086594 
L 211.126782 327.385493 
L 212.467591 329.97482 
L 213.8084 335.564479 
L 215.149209 329.175645 
L 216.490018 324.928601 
L 217.830827 326.294048 
L 219.171636 333.007119 
L 220.512445 333.372456 
L 221.853254 334.559801 
L 223.194063 335.432044 
L 224.534872 337.288413 
L 225.875681 334.477601 
L 227.21649 336.539472 
L 228.557299 336.788358 
L 231.238917 337.909487 
L 232.579726 341.912212 
L 233.920535 342.766187 
L 236.602153 337.26558 
L 237.942962 330.931547 
L 239.283771 339.528387 
L 241.965388 345.851003 
L 243.306197 345.330398 
L 244.647006 342.496751 
L 245.987815 342.238732 
L 247.328624 342.501318 
L 248.669433 344.474139 
L 250.010242 345.314414 
L 251.351051 347.682255 
L 252.69186 347.643438 
L 254.032669 345.159146 
L 256.714287 346.474359 
L 258.055096 347.010948 
L 259.395905 348.326162 
L 260.736714 349.454141 
L 262.077523 349.02487 
L 263.418332 347.150233 
L 264.759141 347.358019 
L 266.09995 346.741512 
L 268.781568 349.070537 
L 270.122377 349.326273 
L 271.463186 349.828611 
L 272.803995 348.230261 
L 274.144804 348.152627 
L 275.485613 347.762173 
L 276.826422 348.362696 
L 278.167231 348.629849 
L 279.50804 350.296699 
L 280.848849 350.360633 
L 282.189658 349.851445 
L 283.530467 348.693783 
L 284.871276 349.35824 
L 286.212085 349.730427 
L 288.893702 350.050097 
L 290.234511 350.689437 
L 291.57532 349.723577 
L 294.256938 350.082064 
L 295.597747 350.534169 
L 299.620174 351.438378 
L 300.960983 350.641486 
L 302.301792 350.627786 
L 306.324219 350.968006 
L 307.665028 351.328777 
L 309.005837 351.552546 
L 310.346646 350.894939 
L 311.687455 350.609519 
L 313.028264 350.904072 
L 315.709882 351.02509 
L 317.050691 351.347044 
L 318.3915 351.410978 
L 319.732309 350.632353 
L 321.073118 350.598103 
L 325.095545 351.271693 
L 326.436354 351.342477 
L 327.777163 351.242009 
L 329.117972 350.420001 
L 330.458781 350.404017 
L 331.79959 350.716837 
L 333.140398 350.842422 
L 334.481207 351.299093 
L 335.822016 351.468062 
L 337.162825 351.194059 
L 339.844443 350.390317 
L 341.185252 350.486218 
L 343.86687 351.041074 
L 345.207679 350.497635 
L 346.548488 350.888089 
L 347.889297 350.458818 
L 349.230106 350.602669 
L 350.570915 350.598103 
L 351.911724 351.020524 
L 354.593342 350.892656 
L 355.934151 351.221459 
L 357.27496 350.543302 
L 358.615769 350.778488 
L 359.956578 350.755654 
L 361.297387 351.057057 
L 362.638196 351.041074 
L 363.979005 351.33791 
L 365.319814 351.184925 
L 366.660623 350.67117 
L 368.001432 350.915489 
L 369.342241 350.767071 
L 370.68305 351.228309 
L 373.364668 351.045641 
L 374.705477 351.385861 
L 376.046286 350.796755 
L 377.387095 351.171225 
L 378.727903 350.897222 
L 380.068712 351.180359 
L 381.409521 351.301377 
L 382.75033 351.162092 
L 384.091139 351.431528 
L 385.431948 351.02509 
L 388.113566 350.910923 
L 389.454375 351.098158 
L 390.795184 351.410978 
L 392.135993 351.26256 
L 393.476802 351.31051 
L 394.817611 350.931473 
L 396.15842 350.808171 
L 397.499229 350.931473 
L 398.840038 351.253426 
L 400.180847 351.410978 
L 401.521656 351.223743 
L 402.862465 351.390428 
L 404.203274 350.668887 
L 405.544083 350.96344 
L 408.225701 350.862972 
L 409.56651 350.926906 
L 410.907319 351.114141 
L 412.248128 351.01139 
L 413.588937 350.397167 
L 417.611364 350.810455 
L 418.952173 351.196342 
L 420.292982 351.34476 
L 422.9746 350.979423 
L 424.315408 350.136864 
L 426.997026 350.586686 
L 428.337835 350.979423 
L 431.019453 350.929189 
L 432.360262 350.150565 
L 433.701071 350.593536 
L 435.04188 350.431418 
L 436.382689 350.545585 
L 437.723498 351.041074 
L 440.405116 351.191776 
L 441.745925 349.977029 
L 443.086734 350.207649 
L 444.427543 349.812628 
L 445.768352 350.134581 
L 447.109161 350.278433 
L 449.790779 350.244182 
L 451.131588 349.467841 
L 452.472397 348.47458 
L 453.813206 348.638982 
L 455.154015 349.326273 
L 456.494824 349.871995 
L 457.835633 349.867428 
L 459.176442 349.709877 
L 460.517251 347.746189 
L 461.85806 348.817084 
L 463.198869 349.05912 
L 464.539678 349.582009 
L 467.221296 349.741844 
L 468.562105 349.98388 
L 469.902913 348.979202 
L 471.243722 348.501981 
L 472.584531 348.620715 
L 473.92534 349.03857 
L 475.266149 349.730427 
L 476.606958 349.66421 
L 477.947767 348.572765 
L 479.288576 348.170894 
L 480.629385 348.303329 
L 481.970194 347.641155 
L 483.311003 348.10696 
L 484.651812 348.963219 
L 485.992621 348.424347 
L 487.33343 348.584182 
L 488.674239 347.122833 
L 490.015048 347.17535 
L 491.355857 347.026932 
L 494.037475 348.221128 
L 495.378284 347.76674 
L 496.719093 347.769023 
L 498.059902 345.145446 
L 499.400711 345.159146 
L 500.74152 343.585913 
L 502.082329 344.31887 
L 503.423138 344.622557 
L 504.763947 343.455761 
L 506.104756 342.779887 
L 507.445565 340.560464 
L 508.786374 339.553504 
L 510.127183 339.756723 
L 511.467992 342.919172 
L 512.808801 342.878072 
L 514.14961 341.960162 
L 515.490419 341.357356 
L 516.831227 339.192733 
L 518.172036 339.400519 
L 519.512845 338.078455 
L 520.853654 339.521537 
L 522.194463 337.793035 
L 523.535272 341.343656 
L 524.876081 338.715512 
L 526.21689 335.795098 
L 527.557699 333.589375 
L 530.239317 339.982775 
L 531.580126 334.744753 
L 532.920935 336.308853 
L 534.261744 333.915895 
L 535.602553 329.319497 
L 536.943362 325.442356 
L 538.284171 327.250775 
L 539.62498 329.312647 
L 540.965789 333.189787 
L 542.306598 333.230888 
L 543.647407 331.351685 
L 544.988216 327.09094 
L 546.329025 327.09094 
L 547.669834 327.374076 
L 550.351452 329.34233 
L 551.692261 332.022992 
L 553.03307 330.984064 
L 554.373879 325.723209 
L 555.714688 323.60197 
L 557.055497 329.504449 
L 558.396306 331.244367 
L 559.737115 330.102688 
L 561.077924 331.043431 
L 562.418732 328.442687 
L 563.759541 322.752561 
L 565.10035 322.697761 
L 566.441159 327.079523 
L 567.781968 334.205881 
L 569.122777 333.612208 
L 570.463586 329.239579 
L 571.804395 322.996881 
L 573.145204 317.343288 
L 574.486013 313.598582 
L 575.826822 316.302077 
L 577.167631 324.56098 
L 578.50844 326.821504 
L 579.849249 322.483125 
L 581.190058 315.920756 
L 582.530867 312.331319 
L 583.871676 307.828538 
L 585.212485 311.758196 
L 586.553294 315.254016 
L 587.894103 320.115284 
L 589.234912 318.717869 
L 590.575721 318.916521 
L 591.91653 320.097017 
L 593.257339 308.036324 
L 594.598148 316.082875 
L 595.938957 321.222712 
L 597.279766 321.871185 
L 598.620575 323.444419 
L 599.961384 327.102357 
L 601.302193 320.734073 
L 602.643002 316.678831 
L 603.983811 320.73179 
L 605.32462 324.216193 
L 606.665429 325.154653 
L 608.006237 327.282742 
L 609.347046 328.824008 
L 610.687855 321.019493 
L 612.028664 322.919246 
L 613.369473 323.053964 
L 614.710282 326.896855 
L 616.051091 332.096059 
L 617.3919 334.340599 
L 618.732709 336.155868 
L 620.073518 336.576006 
L 621.414327 334.459334 
L 622.755136 326.250665 
L 624.095945 329.833252 
L 625.436754 332.004725 
L 626.777563 333.587091 
L 628.118372 337.457382 
L 629.459181 329.632317 
L 630.79999 332.591548 
L 632.140799 332.500213 
L 633.481608 333.47064 
L 634.822417 337.562416 
L 636.163226 337.171962 
L 637.504035 338.962114 
L 638.844844 330.611877 
L 640.185653 332.915784 
L 641.526462 333.680709 
L 642.867271 338.249707 
L 644.20808 338.112705 
L 645.548889 336.683324 
L 646.889698 338.473476 
L 648.230507 332.18511 
L 649.571316 334.05518 
L 650.912125 334.128247 
L 652.252934 334.619169 
L 653.593742 337.795319 
L 654.934551 337.920903 
L 656.27536 337.503049 
L 657.616169 335.438894 
L 658.956978 333.879361 
L 660.297787 333.936445 
L 661.638596 335.005056 
L 662.979405 340.069542 
L 664.320214 336.888826 
L 665.661023 338.548827 
L 667.001832 336.121618 
L 668.342641 342.841538 
L 669.68345 329.084311 
L 671.024259 337.222196 
L 672.365068 336.235786 
L 673.705877 337.167395 
L 675.046686 337.461949 
L 676.387495 339.898291 
L 677.728304 340.898401 
L 679.069113 337.267863 
L 680.409922 343.962667 
L 681.750731 346.106739 
L 683.09154 344.935377 
L 684.432349 289.369879 
L 685.773158 332.966018 
L 687.113967 334.08943 
L 688.454776 332.639498 
L 689.795585 332.146293 
L 691.136394 332.529897 
L 692.477203 339.076282 
L 693.818012 334.705936 
L 695.158821 331.55262 
L 696.49963 334.13738 
L 697.840439 334.78357 
L 699.181247 335.05529 
L 700.522056 337.28613 
L 701.862865 338.697245 
L 703.203674 337.322664 
L 704.544483 332.564147 
L 705.885292 332.712565 
L 707.226101 335.377243 
L 708.56691 337.352347 
L 709.907719 339.633421 
L 711.248528 341.021702 
L 713.930146 336.441288 
L 715.270955 338.005388 
L 716.611764 337.443682 
L 717.952573 339.610588 
L 719.293382 341.014852 
L 720.634191 342.042363 
L 721.975 342.690837 
L 723.315809 340.530781 
L 724.656618 341.423573 
L 725.997427 343.042474 
L 727.338236 343.211442 
L 728.679045 345.620384 
L 730.019854 344.928527 
L 731.360663 345.5633 
L 732.701472 343.592763 
L 734.042281 343.802832 
L 735.38309 343.649847 
L 736.723899 346.038238 
L 738.064708 346.947014 
L 739.405517 347.44707 
L 742.087135 346.456093 
L 743.427944 346.87623 
L 744.768753 345.494799 
L 747.45037 348.716616 
L 748.791179 349.157304 
L 750.131988 347.869491 
L 751.472797 347.499587 
L 752.813606 347.755323 
L 754.154415 348.380963 
L 755.495224 348.257661 
L 756.836033 349.387923 
L 758.176842 349.008886 
L 759.517651 349.438157 
L 760.85846 348.737166 
L 762.199269 348.897001 
L 764.880887 350.03868 
L 766.221696 350.296699 
L 768.903314 350.440551 
L 770.244123 349.869712 
L 771.584932 350.3515 
L 774.26655 350.618653 
L 775.607359 351.28311 
L 778.288977 351.577663 
L 779.629786 351.351611 
L 780.970595 350.730537 
L 782.311404 350.582119 
L 783.652213 351.333344 
L 784.993022 351.31051 
L 787.67464 351.493179 
L 790.356258 350.940606 
L 791.697066 351.486329 
L 793.037875 351.662147 
L 795.719493 351.744348 
L 797.060302 351.792298 
L 798.401111 351.472628 
L 805.105156 351.899616 
L 806.445965 351.89505 
L 807.786774 351.584513 
L 810.468392 351.705531 
L 811.809201 351.621047 
L 814.490819 351.9156 
L 817.172437 351.598213 
L 818.513246 351.342477 
L 819.854055 351.837966 
L 822.535673 351.641597 
L 823.876482 351.810565 
L 825.217291 351.662147 
L 826.5581 350.968006 
L 827.898909 350.792188 
L 829.239718 350.819588 
L 830.580527 350.67802 
L 831.921336 351.045641 
L 833.262145 351.02509 
L 834.602954 350.799038 
L 835.943763 350.321816 
L 837.284571 350.856122 
L 838.62538 349.369656 
L 841.306998 350.408584 
L 842.647807 349.938212 
L 843.988616 349.780661 
L 845.329425 348.750867 
L 846.670234 348.543081 
L 848.011043 348.159477 
L 849.351852 350.502202 
L 850.692661 346.52916 
L 852.03347 348.803384 
L 853.374279 348.211994 
L 854.715088 346.533727 
L 856.055897 346.606794 
L 857.396706 345.476532 
L 858.737515 346.613644 
L 860.078324 347.029215 
L 861.419133 345.567867 
L 862.759942 345.809903 
L 864.100751 344.417055 
L 865.44156 343.953533 
L 866.782369 342.236448 
L 868.123178 344.321154 
L 869.463987 347.77359 
L 870.804796 347.988225 
L 872.145605 337.29983 
L 873.486414 341.359639 
L 874.827223 341.891662 
L 876.168032 341.982996 
L 877.508841 342.441951 
L 880.190459 344.707041 
L 881.531268 341.546875 
L 882.872076 340.884701 
L 884.212885 343.156641 
L 885.553694 338.921014 
L 886.894503 342.08803 
L 888.235312 343.748031 
L 889.576121 344.65909 
L 890.91693 343.601896 
L 892.257739 340.243078 
L 893.598548 337.920903 
L 894.939357 347.109133 
L 896.280166 338.459776 
L 897.620975 339.608304 
L 898.961784 343.563079 
L 900.302593 342.795871 
L 901.643402 340.697466 
L 902.984211 338.87078 
L 904.32502 344.097385 
L 905.665829 338.569377 
L 907.006638 344.099668 
L 908.347447 345.074662 
L 909.688256 346.328225 
L 911.029065 338.062471 
L 912.369874 339.585471 
L 913.710683 338.144672 
L 915.051492 343.117824 
L 916.392301 340.549047 
L 917.73311 343.088141 
L 919.073919 341.46239 
L 920.414728 337.005277 
L 921.755537 338.786296 
L 923.096346 343.907866 
L 924.437155 336.009733 
L 925.777964 344.629407 
L 927.118773 340.279611 
L 928.459581 342.083464 
L 929.80039 340.955485 
L 931.141199 338.580794 
L 932.482008 343.138375 
L 933.822817 338.003104 
L 935.163626 345.565583 
L 936.504435 340.944068 
L 937.845244 340.909818 
L 939.186053 341.238621 
L 940.526862 339.336585 
L 941.867671 344.261786 
L 943.20848 344.29147 
L 944.549289 339.402802 
L 945.890098 343.608746 
L 947.230907 338.373008 
L 948.571716 339.882307 
L 949.912525 339.215567 
L 951.253334 343.882749 
L 952.594143 347.451636 
L 953.934952 335.765414 
L 955.275761 345.001594 
L 956.61657 342.08118 
L 957.957379 342.211332 
L 959.298188 338.281674 
L 960.638997 342.745637 
L 961.979806 344.880576 
L 963.320615 341.222638 
L 964.661424 345.092928 
L 966.002233 341.587975 
L 967.343042 342.528718 
L 968.683851 344.111085 
L 970.02466 344.202419 
L 971.365469 347.250701 
L 972.706278 341.832294 
L 974.047087 346.937881 
L 975.387895 342.955706 
L 976.728704 344.649957 
L 978.069513 339.747589 
L 979.410322 345.225363 
L 980.751131 345.743685 
L 982.09194 340.603848 
L 983.432749 345.736835 
L 984.773558 343.32561 
L 986.114367 341.907645 
L 987.455176 341.39389 
L 988.795985 343.108691 
L 990.136794 343.512845 
L 991.477603 340.576448 
L 992.818412 342.866655 
L 994.159221 340.839034 
L 995.50003 337.311247 
L 996.840839 338.233723 
L 998.181648 340.147177 
L 999.522457 342.464784 
L 1000.863266 337.512182 
L 1002.204075 341.019419 
L 1003.544884 338.628744 
L 1004.885693 333.988962 
L 1006.226502 335.160324 
L 1007.567311 339.044315 
L 1008.90812 333.217187 
L 1010.248929 340.382362 
L 1011.589738 339.786406 
L 1012.930547 336.336253 
L 1014.271356 336.29972 
L 1015.612165 334.644286 
L 1016.952974 344.595156 
L 1018.293783 341.466957 
L 1019.634592 335.135208 
L 1020.9754 337.28613 
L 1022.316209 331.089099 
L 1023.657018 326.554351 
L 1024.997827 326.876304 
L 1026.338636 334.043763 
L 1027.679445 333.49804 
L 1029.020254 328.438121 
L 1030.361063 333.050502 
L 1031.701872 330.876746 
L 1033.042681 325.732342 
L 1034.38349 326.627418 
L 1035.724299 332.342662 
L 1037.065108 333.751493 
L 1038.405917 321.658833 
L 1039.746726 332.285578 
L 1041.087535 323.538036 
L 1042.428344 311.609778 
L 1043.769153 304.77569 
L 1045.109962 320.325353 
L 1046.450771 293.208202 
L 1047.79158 300.937366 
L 1049.132389 297.149277 
L 1050.473198 288.002148 
L 1051.814007 271.637326 
L 1053.154816 281.391829 
L 1054.495625 352.491006 
L 1055.836434 164.456538 
L 1057.177243 268.627862 
L 1058.518052 244.940314 
L 1059.858861 210.463903 
L 1061.19967 188.575641 
L 1062.540479 174.18364 
L 1063.881288 267.056912 
L 1065.222097 274.028001 
L 1066.562905 50.8755 
L 1067.903714 233.192441 
L 1069.244523 178.955857 
L 1070.585332 173.779486 
L 1071.926141 158.225257 
L 1073.26695 166.653128 
L 1074.607759 146.940905 
L 1075.948568 220.36454 
L 1077.289377 232.868204 
L 1078.630186 225.860581 
L 1079.970995 212.804344 
L 1081.311804 246.993052 
L 1082.652613 259.761586 
L 1083.993422 245.497453 
L 1085.334231 261.709289 
L 1086.67504 297.955302 
L 1088.015849 300.371094 
L 1089.356658 283.819037 
L 1090.697467 286.803385 
L 1092.038276 301.524189 
L 1093.379085 292.470678 
L 1094.719894 324.22761 
L 1096.060703 319.583261 
L 1097.401512 308.849199 
L 1098.742321 313.931952 
L 1100.08313 319.804747 
L 1101.423939 324.716248 
L 1102.764748 336.502938 
L 1104.105557 335.336143 
L 1105.446366 337.601233 
L 1106.787175 330.362991 
L 1108.127984 330.168906 
L 1109.468793 333.968412 
L 1110.809602 339.329735 
L 1112.15041 336.304286 
L 1113.491219 343.745748 
L 1114.832028 342.802721 
L 1117.513646 335.699197 
L 1118.854455 341.631359 
L 1120.195264 344.451305 
L 1121.536073 342.546985 
L 1122.876882 346.887647 
L 1124.217691 347.310068 
L 1125.5585 342.782171 
L 1126.899309 343.969517 
L 1128.240118 341.501207 
L 1129.580927 346.832847 
L 1130.921736 347.611471 
L 1132.262545 346.54286 
L 1133.603354 348.12751 
L 1134.944163 347.415103 
L 1136.284972 346.396725 
L 1137.625781 347.125116 
L 1138.96659 348.282778 
L 1140.307399 347.659422 
L 1141.648208 349.776094 
L 1142.989017 349.095654 
L 1144.329826 348.177744 
L 1145.670635 347.033782 
L 1147.011444 351.691831 
L 1148.352253 344.791525 
L 1149.693062 347.1411 
L 1151.033871 350.132298 
L 1152.37468 350.150565 
L 1153.715489 348.629849 
L 1155.056298 348.501981 
L 1156.397107 347.401403 
L 1157.737915 349.303439 
L 1159.078724 347.463053 
L 1160.419533 350.248749 
L 1161.760342 345.348664 
L 1163.101151 347.83524 
L 1164.44196 347.111416 
L 1165.782769 347.805557 
L 1167.123578 347.49502 
L 1168.464387 346.401292 
L 1169.805196 349.803494 
L 1171.146005 348.830784 
L 1172.486814 351.232876 
L 1173.827623 337.429982 
L 1175.168432 344.403354 
L 1176.509241 352.491006 
L 1177.85005 339.000931 
L 1179.190859 347.271251 
L 1180.531668 347.024649 
L 1181.872477 345.350948 
L 1183.213286 341.615375 
L 1184.554095 343.736614 
L 1185.894904 344.987894 
L 1187.235713 345.723135 
L 1188.576522 342.848388 
L 1189.917331 347.218734 
L 1191.25814 342.165664 
L 1192.598949 338.678978 
L 1193.939758 339.279501 
L 1195.280567 342.156531 
L 1196.621376 341.76151 
L 1197.962185 338.411825 
L 1199.302994 343.357577 
L 1200.643803 350.634636 
L 1201.984612 323.410168 
L 1203.325421 337.185662 
L 1204.666229 339.334301 
L 1206.007038 352.491006 
L 1207.347847 325.85336 
L 1208.688656 341.919062 
L 1210.029465 335.105524 
L 1211.370274 336.395621 
L 1212.711083 333.139553 
L 1214.051892 340.960052 
L 1215.392701 341.037686 
L 1216.73351 336.623956 
L 1218.074319 340.855017 
L 1220.755937 330.582193 
L 1222.096746 332.381479 
L 1223.437555 337.233613 
L 1224.778364 339.281784 
L 1226.119173 333.913611 
L 1227.459982 338.548827 
L 1228.800791 332.79705 
L 1230.1416 328.917626 
L 1231.482409 320.866508 
L 1232.823218 333.977545 
L 1234.164027 352.491006 
L 1235.504836 319.699713 
L 1236.845645 326.600018 
L 1238.186454 330.751162 
L 1239.527263 321.654266 
L 1240.868072 347.1137 
L 1242.208881 352.491006 
L 1243.54969 313.260645 
L 1244.890499 311.714812 
L 1246.231308 333.863378 
L 1247.572117 328.563705 
L 1248.912926 326.501834 
L 1250.253734 328.677873 
L 1251.594543 336.107918 
L 1252.935352 338.411825 
L 1254.276161 326.157047 
L 1255.61697 337.843269 
L 1258.298588 329.910886 
L 1259.639397 330.917847 
L 1260.980206 352.491006 
L 1263.661824 352.491006 
L 1265.002633 299.112964 
L 1266.343442 328.200652 
L 1267.684251 338.859363 
L 1269.02506 333.187504 
L 1270.365869 343.357577 
L 1271.706678 352.491006 
L 1273.047487 320.254568 
L 1274.388296 341.485224 
L 1275.729105 335.696913 
L 1277.069914 337.331797 
L 1278.410723 345.29158 
L 1279.751532 344.439888 
L 1281.092341 345.588417 
L 1282.43315 326.264365 
L 1283.773959 343.211442 
L 1285.114768 341.585692 
L 1286.455577 338.357025 
L 1287.796386 339.740739 
L 1289.137195 345.723135 
L 1290.478004 346.84198 
L 1291.818813 347.205034 
L 1293.159622 327.812481 
L 1294.500431 342.841538 
L 1295.841239 338.89818 
L 1297.182048 336.203819 
L 1298.522857 345.469682 
L 1299.863666 346.081622 
L 1301.204475 328.132151 
L 1302.545284 347.652572 
L 1303.886093 335.084974 
L 1305.226902 335.774548 
L 1306.567711 343.62473 
L 1307.90852 335.977766 
L 1309.249329 346.106739 
L 1310.590138 347.143383 
L 1311.930947 325.558807 
L 1313.271756 342.170231 
L 1313.271756 342.170231 
" clip-path="url(#p46efab31b0)" style="fill: none; stroke: #0000ff; stroke-width: 1.5; stroke-linecap: square"/>
   </g>
   <g id="line2d_20">
    <path d="M 1073.26695 167.427535 
L 1074.607759 156.061439 
L 1075.948568 172.425353 
L 1077.289377 194.164682 
L 1078.630186 206.980412 
L 1079.970995 211.287048 
L 1081.311804 225.909872 
L 1082.652613 232.858331 
L 1083.993422 238.338271 
L 1085.334231 251.061527 
L 1086.67504 260.709197 
L 1088.015849 274.535582 
L 1090.697467 290.865966 
L 1092.038276 286.734317 
L 1093.379085 288.518123 
L 1094.719894 303.958383 
L 1096.060703 310.222097 
L 1097.401512 308.295238 
L 1098.742321 309.20067 
L 1100.08313 319.681445 
L 1101.423939 315.675194 
L 1102.764748 320.448668 
L 1104.105557 334.196553 
L 1105.446366 332.860329 
L 1106.787175 329.947619 
L 1108.127984 329.995359 
L 1109.468793 337.625842 
L 1110.809602 332.865252 
L 1112.15041 333.617684 
L 1113.491219 342.560374 
L 1114.832028 340.527392 
L 1116.172837 337.482643 
L 1117.513646 337.629632 
L 1118.854455 344.423679 
L 1120.195264 339.810857 
L 1121.536073 340.330593 
L 1122.876882 347.956787 
L 1124.217691 345.230226 
L 1125.5585 341.979016 
L 1126.899309 342.813533 
L 1128.240118 348.928221 
L 1129.580927 342.982907 
L 1130.921736 343.931943 
L 1132.262545 350.709287 
L 1133.603354 346.830082 
L 1134.944163 344.271332 
L 1136.284972 345.625434 
L 1137.625781 351.905147 
L 1138.96659 346.681388 
L 1140.307399 346.358933 
L 1141.648208 352.32506 
L 1142.989017 348.892583 
L 1144.329826 345.988412 
L 1145.670635 346.887058 
L 1147.011444 353.2755 
L 1148.352253 348.105248 
L 1149.693062 346.292084 
L 1151.033871 351.829985 
L 1152.37468 349.062003 
L 1153.715489 346.614201 
L 1155.056298 347.791629 
L 1156.397107 352.61177 
L 1157.737915 347.860668 
L 1159.078724 347.55442 
L 1160.419533 352.283677 
L 1161.760342 348.452972 
L 1163.101151 345.104887 
L 1164.44196 346.42263 
L 1165.782769 351.28271 
L 1167.123578 347.040771 
L 1168.464387 346.567975 
L 1169.805196 350.899321 
L 1171.146005 348.505065 
L 1172.486814 346.901576 
L 1173.827623 346.258604 
L 1175.168432 347.698541 
L 1176.509241 345.435064 
L 1177.85005 345.580112 
L 1179.190859 347.677971 
L 1180.531668 345.963361 
L 1181.872477 343.555395 
L 1183.213286 343.936369 
L 1184.554095 347.389191 
L 1185.894904 343.330011 
L 1187.235713 344.138074 
L 1188.576522 347.469339 
L 1191.25814 342.38773 
L 1192.598949 341.913416 
L 1193.939758 344.372555 
L 1195.280567 340.239977 
L 1196.621376 340.843543 
L 1197.962185 343.647963 
L 1199.302994 340.818317 
L 1200.643803 341.010439 
L 1201.984612 340.113534 
L 1203.325421 338.927565 
L 1204.666229 336.382797 
L 1206.007038 340.141391 
L 1207.347847 343.282099 
L 1208.688656 337.591747 
L 1210.029465 334.970306 
L 1211.370274 335.833902 
L 1212.711083 338.953991 
L 1214.051892 336.390166 
L 1215.392701 337.367361 
L 1216.73351 341.217671 
L 1218.074319 338.943674 
L 1219.415128 335.786873 
L 1220.755937 335.062884 
L 1222.096746 336.888803 
L 1223.437555 334.507889 
L 1224.778364 334.977476 
L 1226.119173 338.787804 
L 1227.459982 336.400911 
L 1228.800791 333.247264 
L 1230.1416 332.616116 
L 1231.482409 332.682696 
L 1232.823218 328.883901 
L 1235.504836 338.399364 
L 1236.845645 330.074314 
L 1238.186454 326.430697 
L 1239.527263 326.548099 
L 1240.868072 333.101754 
L 1242.208881 340.413013 
L 1243.54969 335.652892 
L 1244.890499 327.640782 
L 1246.231308 324.036944 
L 1247.572117 324.472447 
L 1248.912926 326.77917 
L 1250.253734 330.793744 
L 1251.594543 329.781445 
L 1252.935352 330.706567 
L 1254.276161 334.850483 
L 1255.61697 332.481424 
L 1256.957779 331.248107 
L 1258.298588 332.46645 
L 1259.639397 335.192255 
L 1260.980206 336.384826 
L 1262.321015 341.080653 
L 1263.661824 349.506467 
L 1265.002633 339.100806 
L 1266.343442 323.98995 
L 1267.684251 328.896178 
L 1269.02506 336.475411 
L 1270.365869 336.072414 
L 1271.706678 338.828166 
L 1273.047487 339.437051 
L 1274.388296 334.892391 
L 1275.729105 334.793763 
L 1277.069914 336.155224 
L 1278.410723 342.504807 
L 1279.751532 343.11765 
L 1281.092341 340.604118 
L 1282.43315 340.300724 
L 1283.773959 337.223442 
L 1285.114768 337.866599 
L 1286.455577 339.77121 
L 1287.796386 343.2874 
L 1289.137195 342.483193 
L 1290.478004 340.415599 
L 1291.818813 345.157112 
L 1293.159622 342.061451 
L 1294.500431 336.883937 
L 1297.182048 342.530751 
L 1299.863666 339.858828 
L 1301.204475 339.891065 
L 1302.545284 338.867749 
L 1303.886093 338.680148 
L 1305.226902 337.795684 
L 1306.567711 342.294472 
L 1307.90852 341.173427 
L 1309.249329 337.056765 
L 1310.590138 342.771221 
L 1311.930947 340.354621 
L 1313.271756 335.427512 
L 1313.271756 335.427512 
" clip-path="url(#p46efab31b0)" style="fill: none; stroke: #ffa500; stroke-width: 1.5; stroke-linecap: square"/>
   </g>
   <g id="line2d_21">
    <path d="M 1313.271756 335.427512 
L 1314.612565 337.985824 
L 1315.953374 340.635723 
L 1317.294183 340.126667 
L 1318.634992 336.867092 
L 1319.975801 338.158922 
L 1321.31661 338.2693 
L 1322.657419 336.696039 
L 1323.998228 337.916011 
L 1325.339037 340.758322 
L 1326.679846 340.193952 
L 1328.020655 337.096715 
L 1329.361464 338.327034 
L 1330.702273 338.433812 
" clip-path="url(#p46efab31b0)" style="fill: none; stroke: #ff0000; stroke-width: 1.5; stroke-linecap: square"/>
   </g>
   <g id="patch_3">
    <path d="M 52.375 368.3955 
L 52.375 35.7555 
" style="fill: none; stroke: #000000; stroke-width: 0.8; stroke-linejoin: miter; stroke-linecap: square"/>
   </g>
   <g id="patch_4">
    <path d="M 1391.575 368.3955 
L 1391.575 35.7555 
" style="fill: none; stroke: #000000; stroke-width: 0.8; stroke-linejoin: miter; stroke-linecap: square"/>
   </g>
   <g id="patch_5">
    <path d="M 52.375 368.3955 
L 1391.575 368.3955 
" style="fill: none; stroke: #000000; stroke-width: 0.8; stroke-linejoin: miter; stroke-linecap: square"/>
   </g>
   <g id="patch_6">
    <path d="M 52.375 35.7555 
L 1391.575 35.7555 
" style="fill: none; stroke: #000000; stroke-width: 0.8; stroke-linejoin: miter; stroke-linecap: square"/>
   </g>
   <g id="text_19">
    <!-- Daily Confirmed Cases Forecasting - New York -->
    <g transform="translate(583.998438 16.318125)scale(0.12 -0.12)">
     <defs>
      <path id="DejaVuSans-44" d="M 1259 4147 
L 1259 519 
L 2022 519 
Q 2988 519 3436 956 
Q 3884 1394 3884 2338 
Q 3884 3275 3436 3711 
Q 2988 4147 2022 4147 
L 1259 4147 
z
M 628 4666 
L 1925 4666 
Q 3281 4666 3915 4102 
Q 4550 3538 4550 2338 
Q 4550 1131 3912 565 
Q 3275 0 1925 0 
L 628 0 
L 628 4666 
z
" transform="scale(0.015625)"/>
      <path id="DejaVuSans-61" d="M 2194 1759 
Q 1497 1759 1228 1600 
Q 959 1441 959 1056 
Q 959 750 1161 570 
Q 1363 391 1709 391 
Q 2188 391 2477 730 
Q 2766 1069 2766 1631 
L 2766 1759 
L 2194 1759 
z
M 3341 1997 
L 3341 0 
L 2766 0 
L 2766 531 
Q 2569 213 2275 61 
Q 1981 -91 1556 -91 
Q 1019 -91 701 211 
Q 384 513 384 1019 
Q 384 1609 779 1909 
Q 1175 2209 1959 2209 
L 2766 2209 
L 2766 2266 
Q 2766 2663 2505 2880 
Q 2244 3097 1772 3097 
Q 1472 3097 1187 3025 
Q 903 2953 641 2809 
L 641 3341 
Q 956 3463 1253 3523 
Q 1550 3584 1831 3584 
Q 2591 3584 2966 3190 
Q 3341 2797 3341 1997 
z
" transform="scale(0.015625)"/>
      <path id="DejaVuSans-69" d="M 603 3500 
L 1178 3500 
L 1178 0 
L 603 0 
L 603 3500 
z
M 603 4863 
L 1178 4863 
L 1178 4134 
L 603 4134 
L 603 4863 
z
" transform="scale(0.015625)"/>
      <path id="DejaVuSans-6c" d="M 603 4863 
L 1178 4863 
L 1178 0 
L 603 0 
L 603 4863 
z
" transform="scale(0.015625)"/>
      <path id="DejaVuSans-79" d="M 2059 -325 
Q 1816 -950 1584 -1140 
Q 1353 -1331 966 -1331 
L 506 -1331 
L 506 -850 
L 844 -850 
Q 1081 -850 1212 -737 
Q 1344 -625 1503 -206 
L 1606 56 
L 191 3500 
L 800 3500 
L 1894 763 
L 2988 3500 
L 3597 3500 
L 2059 -325 
z
" transform="scale(0.015625)"/>
      <path id="DejaVuSans-20" transform="scale(0.015625)"/>
      <path id="DejaVuSans-43" d="M 4122 4306 
L 4122 3641 
Q 3803 3938 3442 4084 
Q 3081 4231 2675 4231 
Q 1875 4231 1450 3742 
Q 1025 3253 1025 2328 
Q 1025 1406 1450 917 
Q 1875 428 2675 428 
Q 3081 428 3442 575 
Q 3803 722 4122 1019 
L 4122 359 
Q 3791 134 3420 21 
Q 3050 -91 2638 -91 
Q 1578 -91 968 557 
Q 359 1206 359 2328 
Q 359 3453 968 4101 
Q 1578 4750 2638 4750 
Q 3056 4750 3426 4639 
Q 3797 4528 4122 4306 
z
" transform="scale(0.015625)"/>
      <path id="DejaVuSans-6f" d="M 1959 3097 
Q 1497 3097 1228 2736 
Q 959 2375 959 1747 
Q 959 1119 1226 758 
Q 1494 397 1959 397 
Q 2419 397 2687 759 
Q 2956 1122 2956 1747 
Q 2956 2369 2687 2733 
Q 2419 3097 1959 3097 
z
M 1959 3584 
Q 2709 3584 3137 3096 
Q 3566 2609 3566 1747 
Q 3566 888 3137 398 
Q 2709 -91 1959 -91 
Q 1206 -91 779 398 
Q 353 888 353 1747 
Q 353 2609 779 3096 
Q 1206 3584 1959 3584 
z
" transform="scale(0.015625)"/>
      <path id="DejaVuSans-6e" d="M 3513 2113 
L 3513 0 
L 2938 0 
L 2938 2094 
Q 2938 2591 2744 2837 
Q 2550 3084 2163 3084 
Q 1697 3084 1428 2787 
Q 1159 2491 1159 1978 
L 1159 0 
L 581 0 
L 581 3500 
L 1159 3500 
L 1159 2956 
Q 1366 3272 1645 3428 
Q 1925 3584 2291 3584 
Q 2894 3584 3203 3211 
Q 3513 2838 3513 2113 
z
" transform="scale(0.015625)"/>
      <path id="DejaVuSans-66" d="M 2375 4863 
L 2375 4384 
L 1825 4384 
Q 1516 4384 1395 4259 
Q 1275 4134 1275 3809 
L 1275 3500 
L 2222 3500 
L 2222 3053 
L 1275 3053 
L 1275 0 
L 697 0 
L 697 3053 
L 147 3053 
L 147 3500 
L 697 3500 
L 697 3744 
Q 697 4328 969 4595 
Q 1241 4863 1831 4863 
L 2375 4863 
z
" transform="scale(0.015625)"/>
      <path id="DejaVuSans-72" d="M 2631 2963 
Q 2534 3019 2420 3045 
Q 2306 3072 2169 3072 
Q 1681 3072 1420 2755 
Q 1159 2438 1159 1844 
L 1159 0 
L 581 0 
L 581 3500 
L 1159 3500 
L 1159 2956 
Q 1341 3275 1631 3429 
Q 1922 3584 2338 3584 
Q 2397 3584 2469 3576 
Q 2541 3569 2628 3553 
L 2631 2963 
z
" transform="scale(0.015625)"/>
      <path id="DejaVuSans-6d" d="M 3328 2828 
Q 3544 3216 3844 3400 
Q 4144 3584 4550 3584 
Q 5097 3584 5394 3201 
Q 5691 2819 5691 2113 
L 5691 0 
L 5113 0 
L 5113 2094 
Q 5113 2597 4934 2840 
Q 4756 3084 4391 3084 
Q 3944 3084 3684 2787 
Q 3425 2491 3425 1978 
L 3425 0 
L 2847 0 
L 2847 2094 
Q 2847 2600 2669 2842 
Q 2491 3084 2119 3084 
Q 1678 3084 1418 2786 
Q 1159 2488 1159 1978 
L 1159 0 
L 581 0 
L 581 3500 
L 1159 3500 
L 1159 2956 
Q 1356 3278 1631 3431 
Q 1906 3584 2284 3584 
Q 2666 3584 2933 3390 
Q 3200 3197 3328 2828 
z
" transform="scale(0.015625)"/>
      <path id="DejaVuSans-65" d="M 3597 1894 
L 3597 1613 
L 953 1613 
Q 991 1019 1311 708 
Q 1631 397 2203 397 
Q 2534 397 2845 478 
Q 3156 559 3463 722 
L 3463 178 
Q 3153 47 2828 -22 
Q 2503 -91 2169 -91 
Q 1331 -91 842 396 
Q 353 884 353 1716 
Q 353 2575 817 3079 
Q 1281 3584 2069 3584 
Q 2775 3584 3186 3129 
Q 3597 2675 3597 1894 
z
M 3022 2063 
Q 3016 2534 2758 2815 
Q 2500 3097 2075 3097 
Q 1594 3097 1305 2825 
Q 1016 2553 972 2059 
L 3022 2063 
z
" transform="scale(0.015625)"/>
      <path id="DejaVuSans-64" d="M 2906 2969 
L 2906 4863 
L 3481 4863 
L 3481 0 
L 2906 0 
L 2906 525 
Q 2725 213 2448 61 
Q 2172 -91 1784 -91 
Q 1150 -91 751 415 
Q 353 922 353 1747 
Q 353 2572 751 3078 
Q 1150 3584 1784 3584 
Q 2172 3584 2448 3432 
Q 2725 3281 2906 2969 
z
M 947 1747 
Q 947 1113 1208 752 
Q 1469 391 1925 391 
Q 2381 391 2643 752 
Q 2906 1113 2906 1747 
Q 2906 2381 2643 2742 
Q 2381 3103 1925 3103 
Q 1469 3103 1208 2742 
Q 947 2381 947 1747 
z
" transform="scale(0.015625)"/>
      <path id="DejaVuSans-73" d="M 2834 3397 
L 2834 2853 
Q 2591 2978 2328 3040 
Q 2066 3103 1784 3103 
Q 1356 3103 1142 2972 
Q 928 2841 928 2578 
Q 928 2378 1081 2264 
Q 1234 2150 1697 2047 
L 1894 2003 
Q 2506 1872 2764 1633 
Q 3022 1394 3022 966 
Q 3022 478 2636 193 
Q 2250 -91 1575 -91 
Q 1294 -91 989 -36 
Q 684 19 347 128 
L 347 722 
Q 666 556 975 473 
Q 1284 391 1588 391 
Q 1994 391 2212 530 
Q 2431 669 2431 922 
Q 2431 1156 2273 1281 
Q 2116 1406 1581 1522 
L 1381 1569 
Q 847 1681 609 1914 
Q 372 2147 372 2553 
Q 372 3047 722 3315 
Q 1072 3584 1716 3584 
Q 2034 3584 2315 3537 
Q 2597 3491 2834 3397 
z
" transform="scale(0.015625)"/>
      <path id="DejaVuSans-46" d="M 628 4666 
L 3309 4666 
L 3309 4134 
L 1259 4134 
L 1259 2759 
L 3109 2759 
L 3109 2228 
L 1259 2228 
L 1259 0 
L 628 0 
L 628 4666 
z
" transform="scale(0.015625)"/>
      <path id="DejaVuSans-63" d="M 3122 3366 
L 3122 2828 
Q 2878 2963 2633 3030 
Q 2388 3097 2138 3097 
Q 1578 3097 1268 2742 
Q 959 2388 959 1747 
Q 959 1106 1268 751 
Q 1578 397 2138 397 
Q 2388 397 2633 464 
Q 2878 531 3122 666 
L 3122 134 
Q 2881 22 2623 -34 
Q 2366 -91 2075 -91 
Q 1284 -91 818 406 
Q 353 903 353 1747 
Q 353 2603 823 3093 
Q 1294 3584 2113 3584 
Q 2378 3584 2631 3529 
Q 2884 3475 3122 3366 
z
" transform="scale(0.015625)"/>
      <path id="DejaVuSans-74" d="M 1172 4494 
L 1172 3500 
L 2356 3500 
L 2356 3053 
L 1172 3053 
L 1172 1153 
Q 1172 725 1289 603 
Q 1406 481 1766 481 
L 2356 481 
L 2356 0 
L 1766 0 
Q 1100 0 847 248 
Q 594 497 594 1153 
L 594 3053 
L 172 3053 
L 172 3500 
L 594 3500 
L 594 4494 
L 1172 4494 
z
" transform="scale(0.015625)"/>
      <path id="DejaVuSans-67" d="M 2906 1791 
Q 2906 2416 2648 2759 
Q 2391 3103 1925 3103 
Q 1463 3103 1205 2759 
Q 947 2416 947 1791 
Q 947 1169 1205 825 
Q 1463 481 1925 481 
Q 2391 481 2648 825 
Q 2906 1169 2906 1791 
z
M 3481 434 
Q 3481 -459 3084 -895 
Q 2688 -1331 1869 -1331 
Q 1566 -1331 1297 -1286 
Q 1028 -1241 775 -1147 
L 775 -588 
Q 1028 -725 1275 -790 
Q 1522 -856 1778 -856 
Q 2344 -856 2625 -561 
Q 2906 -266 2906 331 
L 2906 616 
Q 2728 306 2450 153 
Q 2172 0 1784 0 
Q 1141 0 747 490 
Q 353 981 353 1791 
Q 353 2603 747 3093 
Q 1141 3584 1784 3584 
Q 2172 3584 2450 3431 
Q 2728 3278 2906 2969 
L 2906 3500 
L 3481 3500 
L 3481 434 
z
" transform="scale(0.015625)"/>
      <path id="DejaVuSans-4e" d="M 628 4666 
L 1478 4666 
L 3547 763 
L 3547 4666 
L 4159 4666 
L 4159 0 
L 3309 0 
L 1241 3903 
L 1241 0 
L 628 0 
L 628 4666 
z
" transform="scale(0.015625)"/>
      <path id="DejaVuSans-77" d="M 269 3500 
L 844 3500 
L 1563 769 
L 2278 3500 
L 2956 3500 
L 3675 769 
L 4391 3500 
L 4966 3500 
L 4050 0 
L 3372 0 
L 2619 2869 
L 1863 0 
L 1184 0 
L 269 3500 
z
" transform="scale(0.015625)"/>
      <path id="DejaVuSans-59" d="M -13 4666 
L 666 4666 
L 1959 2747 
L 3244 4666 
L 3922 4666 
L 2272 2222 
L 2272 0 
L 1638 0 
L 1638 2222 
L -13 4666 
z
" transform="scale(0.015625)"/>
      <path id="DejaVuSans-6b" d="M 581 4863 
L 1159 4863 
L 1159 1991 
L 2875 3500 
L 3609 3500 
L 1753 1863 
L 3688 0 
L 2938 0 
L 1159 1709 
L 1159 0 
L 581 0 
L 581 4863 
z
" transform="scale(0.015625)"/>
     </defs>
     <use xlink:href="#DejaVuSans-44"/>
     <use xlink:href="#DejaVuSans-61" x="77.001953"/>
     <use xlink:href="#DejaVuSans-69" x="138.28125"/>
     <use xlink:href="#DejaVuSans-6c" x="166.064453"/>
     <use xlink:href="#DejaVuSans-79" x="193.847656"/>
     <use xlink:href="#DejaVuSans-20" x="253.027344"/>
     <use xlink:href="#DejaVuSans-43" x="284.814453"/>
     <use xlink:href="#DejaVuSans-6f" x="354.638672"/>
     <use xlink:href="#DejaVuSans-6e" x="415.820312"/>
     <use xlink:href="#DejaVuSans-66" x="479.199219"/>
     <use xlink:href="#DejaVuSans-69" x="514.404297"/>
     <use xlink:href="#DejaVuSans-72" x="542.1875"/>
     <use xlink:href="#DejaVuSans-6d" x="581.550781"/>
     <use xlink:href="#DejaVuSans-65" x="678.962891"/>
     <use xlink:href="#DejaVuSans-64" x="740.486328"/>
     <use xlink:href="#DejaVuSans-20" x="803.962891"/>
     <use xlink:href="#DejaVuSans-43" x="835.75"/>
     <use xlink:href="#DejaVuSans-61" x="905.574219"/>
     <use xlink:href="#DejaVuSans-73" x="966.853516"/>
     <use xlink:href="#DejaVuSans-65" x="1018.953125"/>
     <use xlink:href="#DejaVuSans-73" x="1080.476562"/>
     <use xlink:href="#DejaVuSans-20" x="1132.576172"/>
     <use xlink:href="#DejaVuSans-46" x="1164.363281"/>
     <use xlink:href="#DejaVuSans-6f" x="1218.257812"/>
     <use xlink:href="#DejaVuSans-72" x="1279.439453"/>
     <use xlink:href="#DejaVuSans-65" x="1318.302734"/>
     <use xlink:href="#DejaVuSans-63" x="1379.826172"/>
     <use xlink:href="#DejaVuSans-61" x="1434.806641"/>
     <use xlink:href="#DejaVuSans-73" x="1496.085938"/>
     <use xlink:href="#DejaVuSans-74" x="1548.185547"/>
     <use xlink:href="#DejaVuSans-69" x="1587.394531"/>
     <use xlink:href="#DejaVuSans-6e" x="1615.177734"/>
     <use xlink:href="#DejaVuSans-67" x="1678.556641"/>
     <use xlink:href="#DejaVuSans-20" x="1742.033203"/>
     <use xlink:href="#DejaVuSans-2d" x="1773.820312"/>
     <use xlink:href="#DejaVuSans-20" x="1809.904297"/>
     <use xlink:href="#DejaVuSans-4e" x="1841.691406"/>
     <use xlink:href="#DejaVuSans-65" x="1916.496094"/>
     <use xlink:href="#DejaVuSans-77" x="1978.019531"/>
     <use xlink:href="#DejaVuSans-20" x="2059.806641"/>
     <use xlink:href="#DejaVuSans-59" x="2091.59375"/>
     <use xlink:href="#DejaVuSans-6f" x="2139.427734"/>
     <use xlink:href="#DejaVuSans-72" x="2200.609375"/>
     <use xlink:href="#DejaVuSans-6b" x="2241.722656"/>
    </g>
    <!-- ARIMA (1, 1, 1)x(1, 0, 1, 7) (R2 = 0.898808) -->
    <g transform="translate(589.990937 29.7555)scale(0.12 -0.12)">
     <defs>
      <path id="DejaVuSans-41" d="M 2188 4044 
L 1331 1722 
L 3047 1722 
L 2188 4044 
z
M 1831 4666 
L 2547 4666 
L 4325 0 
L 3669 0 
L 3244 1197 
L 1141 1197 
L 716 0 
L 50 0 
L 1831 4666 
z
" transform="scale(0.015625)"/>
      <path id="DejaVuSans-52" d="M 2841 2188 
Q 3044 2119 3236 1894 
Q 3428 1669 3622 1275 
L 4263 0 
L 3584 0 
L 2988 1197 
Q 2756 1666 2539 1819 
Q 2322 1972 1947 1972 
L 1259 1972 
L 1259 0 
L 628 0 
L 628 4666 
L 2053 4666 
Q 2853 4666 3247 4331 
Q 3641 3997 3641 3322 
Q 3641 2881 3436 2590 
Q 3231 2300 2841 2188 
z
M 1259 4147 
L 1259 2491 
L 2053 2491 
Q 2509 2491 2742 2702 
Q 2975 2913 2975 3322 
Q 2975 3731 2742 3939 
Q 2509 4147 2053 4147 
L 1259 4147 
z
" transform="scale(0.015625)"/>
      <path id="DejaVuSans-49" d="M 628 4666 
L 1259 4666 
L 1259 0 
L 628 0 
L 628 4666 
z
" transform="scale(0.015625)"/>
      <path id="DejaVuSans-4d" d="M 628 4666 
L 1569 4666 
L 2759 1491 
L 3956 4666 
L 4897 4666 
L 4897 0 
L 4281 0 
L 4281 4097 
L 3078 897 
L 2444 897 
L 1241 4097 
L 1241 0 
L 628 0 
L 628 4666 
z
" transform="scale(0.015625)"/>
      <path id="DejaVuSans-28" d="M 1984 4856 
Q 1566 4138 1362 3434 
Q 1159 2731 1159 2009 
Q 1159 1288 1364 580 
Q 1569 -128 1984 -844 
L 1484 -844 
Q 1016 -109 783 600 
Q 550 1309 550 2009 
Q 550 2706 781 3412 
Q 1013 4119 1484 4856 
L 1984 4856 
z
" transform="scale(0.015625)"/>
      <path id="DejaVuSans-2c" d="M 750 794 
L 1409 794 
L 1409 256 
L 897 -744 
L 494 -744 
L 750 256 
L 750 794 
z
" transform="scale(0.015625)"/>
      <path id="DejaVuSans-29" d="M 513 4856 
L 1013 4856 
Q 1481 4119 1714 3412 
Q 1947 2706 1947 2009 
Q 1947 1309 1714 600 
Q 1481 -109 1013 -844 
L 513 -844 
Q 928 -128 1133 580 
Q 1338 1288 1338 2009 
Q 1338 2731 1133 3434 
Q 928 4138 513 4856 
z
" transform="scale(0.015625)"/>
      <path id="DejaVuSans-78" d="M 3513 3500 
L 2247 1797 
L 3578 0 
L 2900 0 
L 1881 1375 
L 863 0 
L 184 0 
L 1544 1831 
L 300 3500 
L 978 3500 
L 1906 2253 
L 2834 3500 
L 3513 3500 
z
" transform="scale(0.015625)"/>
      <path id="DejaVuSans-3d" d="M 678 2906 
L 4684 2906 
L 4684 2381 
L 678 2381 
L 678 2906 
z
M 678 1631 
L 4684 1631 
L 4684 1100 
L 678 1100 
L 678 1631 
z
" transform="scale(0.015625)"/>
      <path id="DejaVuSans-2e" d="M 684 794 
L 1344 794 
L 1344 0 
L 684 0 
L 684 794 
z
" transform="scale(0.015625)"/>
      <path id="DejaVuSans-39" d="M 703 97 
L 703 672 
Q 941 559 1184 500 
Q 1428 441 1663 441 
Q 2288 441 2617 861 
Q 2947 1281 2994 2138 
Q 2813 1869 2534 1725 
Q 2256 1581 1919 1581 
Q 1219 1581 811 2004 
Q 403 2428 403 3163 
Q 403 3881 828 4315 
Q 1253 4750 1959 4750 
Q 2769 4750 3195 4129 
Q 3622 3509 3622 2328 
Q 3622 1225 3098 567 
Q 2575 -91 1691 -91 
Q 1453 -91 1209 -44 
Q 966 3 703 97 
z
M 1959 2075 
Q 2384 2075 2632 2365 
Q 2881 2656 2881 3163 
Q 2881 3666 2632 3958 
Q 2384 4250 1959 4250 
Q 1534 4250 1286 3958 
Q 1038 3666 1038 3163 
Q 1038 2656 1286 2365 
Q 1534 2075 1959 2075 
z
" transform="scale(0.015625)"/>
     </defs>
     <use xlink:href="#DejaVuSans-41"/>
     <use xlink:href="#DejaVuSans-52" x="68.408203"/>
     <use xlink:href="#DejaVuSans-49" x="137.890625"/>
     <use xlink:href="#DejaVuSans-4d" x="167.382812"/>
     <use xlink:href="#DejaVuSans-41" x="253.662109"/>
     <use xlink:href="#DejaVuSans-20" x="322.070312"/>
     <use xlink:href="#DejaVuSans-28" x="353.857422"/>
     <use xlink:href="#DejaVuSans-31" x="392.871094"/>
     <use xlink:href="#DejaVuSans-2c" x="456.494141"/>
     <use xlink:href="#DejaVuSans-20" x="488.28125"/>
     <use xlink:href="#DejaVuSans-31" x="520.068359"/>
     <use xlink:href="#DejaVuSans-2c" x="583.691406"/>
     <use xlink:href="#DejaVuSans-20" x="615.478516"/>
     <use xlink:href="#DejaVuSans-31" x="647.265625"/>
     <use xlink:href="#DejaVuSans-29" x="710.888672"/>
     <use xlink:href="#DejaVuSans-78" x="749.902344"/>
     <use xlink:href="#DejaVuSans-28" x="809.082031"/>
     <use xlink:href="#DejaVuSans-31" x="848.095703"/>
     <use xlink:href="#DejaVuSans-2c" x="911.71875"/>
     <use xlink:href="#DejaVuSans-20" x="943.505859"/>
     <use xlink:href="#DejaVuSans-30" x="975.292969"/>
     <use xlink:href="#DejaVuSans-2c" x="1038.916016"/>
     <use xlink:href="#DejaVuSans-20" x="1070.703125"/>
     <use xlink:href="#DejaVuSans-31" x="1102.490234"/>
     <use xlink:href="#DejaVuSans-2c" x="1166.113281"/>
     <use xlink:href="#DejaVuSans-20" x="1197.900391"/>
     <use xlink:href="#DejaVuSans-37" x="1229.6875"/>
     <use xlink:href="#DejaVuSans-29" x="1293.310547"/>
     <use xlink:href="#DejaVuSans-20" x="1332.324219"/>
     <use xlink:href="#DejaVuSans-28" x="1364.111328"/>
     <use xlink:href="#DejaVuSans-52" x="1403.125"/>
     <use xlink:href="#DejaVuSans-32" x="1472.607422"/>
     <use xlink:href="#DejaVuSans-20" x="1536.230469"/>
     <use xlink:href="#DejaVuSans-3d" x="1568.017578"/>
     <use xlink:href="#DejaVuSans-20" x="1651.806641"/>
     <use xlink:href="#DejaVuSans-30" x="1683.59375"/>
     <use xlink:href="#DejaVuSans-2e" x="1747.216797"/>
     <use xlink:href="#DejaVuSans-38" x="1779.003906"/>
     <use xlink:href="#DejaVuSans-39" x="1842.626953"/>
     <use xlink:href="#DejaVuSans-38" x="1906.25"/>
     <use xlink:href="#DejaVuSans-38" x="1969.873047"/>
     <use xlink:href="#DejaVuSans-30" x="2033.496094"/>
     <use xlink:href="#DejaVuSans-38" x="2097.119141"/>
     <use xlink:href="#DejaVuSans-29" x="2160.742188"/>
    </g>
   </g>
   <g id="legend_1">
    <g id="patch_7">
     <path d="M 1287.495312 87.789875 
L 1384.575 87.789875 
Q 1386.575 87.789875 1386.575 85.789875 
L 1386.575 42.7555 
Q 1386.575 40.7555 1384.575 40.7555 
L 1287.495312 40.7555 
Q 1285.495312 40.7555 1285.495312 42.7555 
L 1285.495312 85.789875 
Q 1285.495312 87.789875 1287.495312 87.789875 
z
" style="fill: #ffffff; opacity: 0.8; stroke: #cccccc; stroke-linejoin: miter"/>
    </g>
    <g id="line2d_22">
     <path d="M 1289.495312 48.853937 
L 1299.495312 48.853937 
L 1309.495312 48.853937 
" style="fill: none; stroke: #0000ff; stroke-width: 1.5; stroke-linecap: square"/>
    </g>
    <g id="text_20">
     <!-- Actual Value -->
     <g transform="translate(1317.495312 52.353937)scale(0.1 -0.1)">
      <defs>
       <path id="DejaVuSans-75" d="M 544 1381 
L 544 3500 
L 1119 3500 
L 1119 1403 
Q 1119 906 1312 657 
Q 1506 409 1894 409 
Q 2359 409 2629 706 
Q 2900 1003 2900 1516 
L 2900 3500 
L 3475 3500 
L 3475 0 
L 2900 0 
L 2900 538 
Q 2691 219 2414 64 
Q 2138 -91 1772 -91 
Q 1169 -91 856 284 
Q 544 659 544 1381 
z
M 1991 3584 
L 1991 3584 
z
" transform="scale(0.015625)"/>
       <path id="DejaVuSans-56" d="M 1831 0 
L 50 4666 
L 709 4666 
L 2188 738 
L 3669 4666 
L 4325 4666 
L 2547 0 
L 1831 0 
z
" transform="scale(0.015625)"/>
      </defs>
      <use xlink:href="#DejaVuSans-41"/>
      <use xlink:href="#DejaVuSans-63" x="66.658203"/>
      <use xlink:href="#DejaVuSans-74" x="121.638672"/>
      <use xlink:href="#DejaVuSans-75" x="160.847656"/>
      <use xlink:href="#DejaVuSans-61" x="224.226562"/>
      <use xlink:href="#DejaVuSans-6c" x="285.505859"/>
      <use xlink:href="#DejaVuSans-20" x="313.289062"/>
      <use xlink:href="#DejaVuSans-56" x="345.076172"/>
      <use xlink:href="#DejaVuSans-61" x="405.734375"/>
      <use xlink:href="#DejaVuSans-6c" x="467.013672"/>
      <use xlink:href="#DejaVuSans-75" x="494.796875"/>
      <use xlink:href="#DejaVuSans-65" x="558.175781"/>
     </g>
    </g>
    <g id="line2d_23">
     <path d="M 1289.495312 63.532062 
L 1299.495312 63.532062 
L 1309.495312 63.532062 
" style="fill: none; stroke: #ffa500; stroke-width: 1.5; stroke-linecap: square"/>
    </g>
    <g id="text_21">
     <!-- Check Value -->
     <g transform="translate(1317.495312 67.032062)scale(0.1 -0.1)">
      <defs>
       <path id="DejaVuSans-68" d="M 3513 2113 
L 3513 0 
L 2938 0 
L 2938 2094 
Q 2938 2591 2744 2837 
Q 2550 3084 2163 3084 
Q 1697 3084 1428 2787 
Q 1159 2491 1159 1978 
L 1159 0 
L 581 0 
L 581 4863 
L 1159 4863 
L 1159 2956 
Q 1366 3272 1645 3428 
Q 1925 3584 2291 3584 
Q 2894 3584 3203 3211 
Q 3513 2838 3513 2113 
z
" transform="scale(0.015625)"/>
      </defs>
      <use xlink:href="#DejaVuSans-43"/>
      <use xlink:href="#DejaVuSans-68" x="69.824219"/>
      <use xlink:href="#DejaVuSans-65" x="133.203125"/>
      <use xlink:href="#DejaVuSans-63" x="194.726562"/>
      <use xlink:href="#DejaVuSans-6b" x="249.707031"/>
      <use xlink:href="#DejaVuSans-20" x="307.617188"/>
      <use xlink:href="#DejaVuSans-56" x="339.404297"/>
      <use xlink:href="#DejaVuSans-61" x="400.0625"/>
      <use xlink:href="#DejaVuSans-6c" x="461.341797"/>
      <use xlink:href="#DejaVuSans-75" x="489.125"/>
      <use xlink:href="#DejaVuSans-65" x="552.503906"/>
     </g>
    </g>
    <g id="line2d_24">
     <path d="M 1289.495312 78.210187 
L 1299.495312 78.210187 
L 1309.495312 78.210187 
" style="fill: none; stroke: #ff0000; stroke-width: 1.5; stroke-linecap: square"/>
    </g>
    <g id="text_22">
     <!-- Predict Value -->
     <g transform="translate(1317.495312 81.710187)scale(0.1 -0.1)">
      <defs>
       <path id="DejaVuSans-50" d="M 1259 4147 
L 1259 2394 
L 2053 2394 
Q 2494 2394 2734 2622 
Q 2975 2850 2975 3272 
Q 2975 3691 2734 3919 
Q 2494 4147 2053 4147 
L 1259 4147 
z
M 628 4666 
L 2053 4666 
Q 2838 4666 3239 4311 
Q 3641 3956 3641 3272 
Q 3641 2581 3239 2228 
Q 2838 1875 2053 1875 
L 1259 1875 
L 1259 0 
L 628 0 
L 628 4666 
z
" transform="scale(0.015625)"/>
      </defs>
      <use xlink:href="#DejaVuSans-50"/>
      <use xlink:href="#DejaVuSans-72" x="58.552734"/>
      <use xlink:href="#DejaVuSans-65" x="97.416016"/>
      <use xlink:href="#DejaVuSans-64" x="158.939453"/>
      <use xlink:href="#DejaVuSans-69" x="222.416016"/>
      <use xlink:href="#DejaVuSans-63" x="250.199219"/>
      <use xlink:href="#DejaVuSans-74" x="305.179688"/>
      <use xlink:href="#DejaVuSans-20" x="344.388672"/>
      <use xlink:href="#DejaVuSans-56" x="376.175781"/>
      <use xlink:href="#DejaVuSans-61" x="436.833984"/>
      <use xlink:href="#DejaVuSans-6c" x="498.113281"/>
      <use xlink:href="#DejaVuSans-75" x="525.896484"/>
      <use xlink:href="#DejaVuSans-65" x="589.275391"/>
     </g>
    </g>
   </g>
  </g>
 </g>
 <defs>
  <clipPath id="p46efab31b0">
   <rect x="52.375" y="35.7555" width="1339.2" height="332.64"/>
  </clipPath>
 </defs>
</svg>
