<?xml version="1.0" encoding="utf-8" standalone="no"?>
<!DOCTYPE svg PUBLIC "-//W3C//DTD SVG 1.1//EN"
  "http://www.w3.org/Graphics/SVG/1.1/DTD/svg11.dtd">
<svg xmlns:xlink="http://www.w3.org/1999/xlink" width="1392.4125pt" height="392.273625pt" viewBox="0 0 1392.4125 392.273625" xmlns="http://www.w3.org/2000/svg" version="1.1">
 <metadata>
  <rdf:RDF xmlns:dc="http://purl.org/dc/elements/1.1/" xmlns:cc="http://creativecommons.org/ns#" xmlns:rdf="http://www.w3.org/1999/02/22-rdf-syntax-ns#">
   <cc:Work>
    <dc:type rdf:resource="http://purl.org/dc/dcmitype/StillImage"/>
    <dc:date>2022-07-04T17:42:54.738994</dc:date>
    <dc:format>image/svg+xml</dc:format>
    <dc:creator>
     <cc:Agent>
      <dc:title>Matplotlib v3.5.2, https://matplotlib.org/</dc:title>
     </cc:Agent>
    </dc:creator>
   </cc:Work>
  </rdf:RDF>
 </metadata>
 <defs>
  <style type="text/css">*{stroke-linejoin: round; stroke-linecap: butt}</style>
 </defs>
 <g id="figure_1">
  <g id="patch_1">
   <path d="M 0 392.273625 
L 1392.4125 392.273625 
L 1392.4125 0 
L 0 0 
z
" style="fill: #ffffff"/>
  </g>
  <g id="axes_1">
   <g id="patch_2">
    <path d="M 46.0125 368.3955 
L 1385.2125 368.3955 
L 1385.2125 35.7555 
L 46.0125 35.7555 
z
" style="fill: #ffffff"/>
   </g>
   <g id="matplotlib.axis_1">
    <g id="xtick_1">
     <g id="line2d_1">
      <defs>
       <path id="m109abc5d0b" d="M 0 0 
L 0 3.5 
" style="stroke: #000000; stroke-width: 0.8"/>
      </defs>
      <g>
       <use xlink:href="#m109abc5d0b" x="77.289647" y="368.3955" style="stroke: #000000; stroke-width: 0.8"/>
      </g>
     </g>
     <g id="text_1">
      <!-- 2020-01 -->
      <g transform="translate(56.398241 382.993937)scale(0.1 -0.1)">
       <defs>
        <path id="DejaVuSans-32" d="M 1228 531 
L 3431 531 
L 3431 0 
L 469 0 
L 469 531 
Q 828 903 1448 1529 
Q 2069 2156 2228 2338 
Q 2531 2678 2651 2914 
Q 2772 3150 2772 3378 
Q 2772 3750 2511 3984 
Q 2250 4219 1831 4219 
Q 1534 4219 1204 4116 
Q 875 4013 500 3803 
L 500 4441 
Q 881 4594 1212 4672 
Q 1544 4750 1819 4750 
Q 2544 4750 2975 4387 
Q 3406 4025 3406 3419 
Q 3406 3131 3298 2873 
Q 3191 2616 2906 2266 
Q 2828 2175 2409 1742 
Q 1991 1309 1228 531 
z
" transform="scale(0.015625)"/>
        <path id="DejaVuSans-30" d="M 2034 4250 
Q 1547 4250 1301 3770 
Q 1056 3291 1056 2328 
Q 1056 1369 1301 889 
Q 1547 409 2034 409 
Q 2525 409 2770 889 
Q 3016 1369 3016 2328 
Q 3016 3291 2770 3770 
Q 2525 4250 2034 4250 
z
M 2034 4750 
Q 2819 4750 3233 4129 
Q 3647 3509 3647 2328 
Q 3647 1150 3233 529 
Q 2819 -91 2034 -91 
Q 1250 -91 836 529 
Q 422 1150 422 2328 
Q 422 3509 836 4129 
Q 1250 4750 2034 4750 
z
" transform="scale(0.015625)"/>
        <path id="DejaVuSans-2d" d="M 313 2009 
L 1997 2009 
L 1997 1497 
L 313 1497 
L 313 2009 
z
" transform="scale(0.015625)"/>
        <path id="DejaVuSans-31" d="M 794 531 
L 1825 531 
L 1825 4091 
L 703 3866 
L 703 4441 
L 1819 4666 
L 2450 4666 
L 2450 531 
L 3481 531 
L 3481 0 
L 794 0 
L 794 531 
z
" transform="scale(0.015625)"/>
       </defs>
       <use xlink:href="#DejaVuSans-32"/>
       <use xlink:href="#DejaVuSans-30" x="63.623047"/>
       <use xlink:href="#DejaVuSans-32" x="127.246094"/>
       <use xlink:href="#DejaVuSans-30" x="190.869141"/>
       <use xlink:href="#DejaVuSans-2d" x="254.492188"/>
       <use xlink:href="#DejaVuSans-30" x="290.576172"/>
       <use xlink:href="#DejaVuSans-31" x="354.199219"/>
      </g>
     </g>
    </g>
    <g id="xtick_2">
     <g id="line2d_2">
      <g>
       <use xlink:href="#m109abc5d0b" x="199.707729" y="368.3955" style="stroke: #000000; stroke-width: 0.8"/>
      </g>
     </g>
     <g id="text_2">
      <!-- 2020-04 -->
      <g transform="translate(178.816322 382.993937)scale(0.1 -0.1)">
       <defs>
        <path id="DejaVuSans-34" d="M 2419 4116 
L 825 1625 
L 2419 1625 
L 2419 4116 
z
M 2253 4666 
L 3047 4666 
L 3047 1625 
L 3713 1625 
L 3713 1100 
L 3047 1100 
L 3047 0 
L 2419 0 
L 2419 1100 
L 313 1100 
L 313 1709 
L 2253 4666 
z
" transform="scale(0.015625)"/>
       </defs>
       <use xlink:href="#DejaVuSans-32"/>
       <use xlink:href="#DejaVuSans-30" x="63.623047"/>
       <use xlink:href="#DejaVuSans-32" x="127.246094"/>
       <use xlink:href="#DejaVuSans-30" x="190.869141"/>
       <use xlink:href="#DejaVuSans-2d" x="254.492188"/>
       <use xlink:href="#DejaVuSans-30" x="290.576172"/>
       <use xlink:href="#DejaVuSans-34" x="354.199219"/>
      </g>
     </g>
    </g>
    <g id="xtick_3">
     <g id="line2d_3">
      <g>
       <use xlink:href="#m109abc5d0b" x="322.12581" y="368.3955" style="stroke: #000000; stroke-width: 0.8"/>
      </g>
     </g>
     <g id="text_3">
      <!-- 2020-07 -->
      <g transform="translate(301.234404 382.993937)scale(0.1 -0.1)">
       <defs>
        <path id="DejaVuSans-37" d="M 525 4666 
L 3525 4666 
L 3525 4397 
L 1831 0 
L 1172 0 
L 2766 4134 
L 525 4134 
L 525 4666 
z
" transform="scale(0.015625)"/>
       </defs>
       <use xlink:href="#DejaVuSans-32"/>
       <use xlink:href="#DejaVuSans-30" x="63.623047"/>
       <use xlink:href="#DejaVuSans-32" x="127.246094"/>
       <use xlink:href="#DejaVuSans-30" x="190.869141"/>
       <use xlink:href="#DejaVuSans-2d" x="254.492188"/>
       <use xlink:href="#DejaVuSans-30" x="290.576172"/>
       <use xlink:href="#DejaVuSans-37" x="354.199219"/>
      </g>
     </g>
    </g>
    <g id="xtick_4">
     <g id="line2d_4">
      <g>
       <use xlink:href="#m109abc5d0b" x="445.889145" y="368.3955" style="stroke: #000000; stroke-width: 0.8"/>
      </g>
     </g>
     <g id="text_4">
      <!-- 2020-10 -->
      <g transform="translate(424.997739 382.993937)scale(0.1 -0.1)">
       <use xlink:href="#DejaVuSans-32"/>
       <use xlink:href="#DejaVuSans-30" x="63.623047"/>
       <use xlink:href="#DejaVuSans-32" x="127.246094"/>
       <use xlink:href="#DejaVuSans-30" x="190.869141"/>
       <use xlink:href="#DejaVuSans-2d" x="254.492188"/>
       <use xlink:href="#DejaVuSans-31" x="290.576172"/>
       <use xlink:href="#DejaVuSans-30" x="354.199219"/>
      </g>
     </g>
    </g>
    <g id="xtick_5">
     <g id="line2d_5">
      <g>
       <use xlink:href="#m109abc5d0b" x="569.65248" y="368.3955" style="stroke: #000000; stroke-width: 0.8"/>
      </g>
     </g>
     <g id="text_5">
      <!-- 2021-01 -->
      <g transform="translate(548.761074 382.993937)scale(0.1 -0.1)">
       <use xlink:href="#DejaVuSans-32"/>
       <use xlink:href="#DejaVuSans-30" x="63.623047"/>
       <use xlink:href="#DejaVuSans-32" x="127.246094"/>
       <use xlink:href="#DejaVuSans-31" x="190.869141"/>
       <use xlink:href="#DejaVuSans-2d" x="254.492188"/>
       <use xlink:href="#DejaVuSans-30" x="290.576172"/>
       <use xlink:href="#DejaVuSans-31" x="354.199219"/>
      </g>
     </g>
    </g>
    <g id="xtick_6">
     <g id="line2d_6">
      <g>
       <use xlink:href="#m109abc5d0b" x="690.725308" y="368.3955" style="stroke: #000000; stroke-width: 0.8"/>
      </g>
     </g>
     <g id="text_6">
      <!-- 2021-04 -->
      <g transform="translate(669.833901 382.993937)scale(0.1 -0.1)">
       <use xlink:href="#DejaVuSans-32"/>
       <use xlink:href="#DejaVuSans-30" x="63.623047"/>
       <use xlink:href="#DejaVuSans-32" x="127.246094"/>
       <use xlink:href="#DejaVuSans-31" x="190.869141"/>
       <use xlink:href="#DejaVuSans-2d" x="254.492188"/>
       <use xlink:href="#DejaVuSans-30" x="290.576172"/>
       <use xlink:href="#DejaVuSans-34" x="354.199219"/>
      </g>
     </g>
    </g>
    <g id="xtick_7">
     <g id="line2d_7">
      <g>
       <use xlink:href="#m109abc5d0b" x="813.143389" y="368.3955" style="stroke: #000000; stroke-width: 0.8"/>
      </g>
     </g>
     <g id="text_7">
      <!-- 2021-07 -->
      <g transform="translate(792.251983 382.993937)scale(0.1 -0.1)">
       <use xlink:href="#DejaVuSans-32"/>
       <use xlink:href="#DejaVuSans-30" x="63.623047"/>
       <use xlink:href="#DejaVuSans-32" x="127.246094"/>
       <use xlink:href="#DejaVuSans-31" x="190.869141"/>
       <use xlink:href="#DejaVuSans-2d" x="254.492188"/>
       <use xlink:href="#DejaVuSans-30" x="290.576172"/>
       <use xlink:href="#DejaVuSans-37" x="354.199219"/>
      </g>
     </g>
    </g>
    <g id="xtick_8">
     <g id="line2d_8">
      <g>
       <use xlink:href="#m109abc5d0b" x="936.906724" y="368.3955" style="stroke: #000000; stroke-width: 0.8"/>
      </g>
     </g>
     <g id="text_8">
      <!-- 2021-10 -->
      <g transform="translate(916.015318 382.993937)scale(0.1 -0.1)">
       <use xlink:href="#DejaVuSans-32"/>
       <use xlink:href="#DejaVuSans-30" x="63.623047"/>
       <use xlink:href="#DejaVuSans-32" x="127.246094"/>
       <use xlink:href="#DejaVuSans-31" x="190.869141"/>
       <use xlink:href="#DejaVuSans-2d" x="254.492188"/>
       <use xlink:href="#DejaVuSans-31" x="290.576172"/>
       <use xlink:href="#DejaVuSans-30" x="354.199219"/>
      </g>
     </g>
    </g>
    <g id="xtick_9">
     <g id="line2d_9">
      <g>
       <use xlink:href="#m109abc5d0b" x="1060.670059" y="368.3955" style="stroke: #000000; stroke-width: 0.8"/>
      </g>
     </g>
     <g id="text_9">
      <!-- 2022-01 -->
      <g transform="translate(1039.778653 382.993937)scale(0.1 -0.1)">
       <use xlink:href="#DejaVuSans-32"/>
       <use xlink:href="#DejaVuSans-30" x="63.623047"/>
       <use xlink:href="#DejaVuSans-32" x="127.246094"/>
       <use xlink:href="#DejaVuSans-32" x="190.869141"/>
       <use xlink:href="#DejaVuSans-2d" x="254.492188"/>
       <use xlink:href="#DejaVuSans-30" x="290.576172"/>
       <use xlink:href="#DejaVuSans-31" x="354.199219"/>
      </g>
     </g>
    </g>
    <g id="xtick_10">
     <g id="line2d_10">
      <g>
       <use xlink:href="#m109abc5d0b" x="1181.742887" y="368.3955" style="stroke: #000000; stroke-width: 0.8"/>
      </g>
     </g>
     <g id="text_10">
      <!-- 2022-04 -->
      <g transform="translate(1160.85148 382.993937)scale(0.1 -0.1)">
       <use xlink:href="#DejaVuSans-32"/>
       <use xlink:href="#DejaVuSans-30" x="63.623047"/>
       <use xlink:href="#DejaVuSans-32" x="127.246094"/>
       <use xlink:href="#DejaVuSans-32" x="190.869141"/>
       <use xlink:href="#DejaVuSans-2d" x="254.492188"/>
       <use xlink:href="#DejaVuSans-30" x="290.576172"/>
       <use xlink:href="#DejaVuSans-34" x="354.199219"/>
      </g>
     </g>
    </g>
    <g id="xtick_11">
     <g id="line2d_11">
      <g>
       <use xlink:href="#m109abc5d0b" x="1304.160968" y="368.3955" style="stroke: #000000; stroke-width: 0.8"/>
      </g>
     </g>
     <g id="text_11">
      <!-- 2022-07 -->
      <g transform="translate(1283.269562 382.993937)scale(0.1 -0.1)">
       <use xlink:href="#DejaVuSans-32"/>
       <use xlink:href="#DejaVuSans-30" x="63.623047"/>
       <use xlink:href="#DejaVuSans-32" x="127.246094"/>
       <use xlink:href="#DejaVuSans-32" x="190.869141"/>
       <use xlink:href="#DejaVuSans-2d" x="254.492188"/>
       <use xlink:href="#DejaVuSans-30" x="290.576172"/>
       <use xlink:href="#DejaVuSans-37" x="354.199219"/>
      </g>
     </g>
    </g>
   </g>
   <g id="matplotlib.axis_2">
    <g id="ytick_1">
     <g id="line2d_12">
      <defs>
       <path id="m5e420cf58b" d="M 0 0 
L -3.5 0 
" style="stroke: #000000; stroke-width: 0.8"/>
      </defs>
      <g>
       <use xlink:href="#m5e420cf58b" x="46.0125" y="338.174945" style="stroke: #000000; stroke-width: 0.8"/>
      </g>
     </g>
     <g id="text_12">
      <!-- 0 -->
      <g transform="translate(32.65 341.974164)scale(0.1 -0.1)">
       <use xlink:href="#DejaVuSans-30"/>
      </g>
     </g>
    </g>
    <g id="ytick_2">
     <g id="line2d_13">
      <g>
       <use xlink:href="#m5e420cf58b" x="46.0125" y="266.137574" style="stroke: #000000; stroke-width: 0.8"/>
      </g>
     </g>
     <g id="text_13">
      <!-- 10000 -->
      <g transform="translate(7.2 269.936792)scale(0.1 -0.1)">
       <use xlink:href="#DejaVuSans-31"/>
       <use xlink:href="#DejaVuSans-30" x="63.623047"/>
       <use xlink:href="#DejaVuSans-30" x="127.246094"/>
       <use xlink:href="#DejaVuSans-30" x="190.869141"/>
       <use xlink:href="#DejaVuSans-30" x="254.492188"/>
      </g>
     </g>
    </g>
    <g id="ytick_3">
     <g id="line2d_14">
      <g>
       <use xlink:href="#m5e420cf58b" x="46.0125" y="194.100202" style="stroke: #000000; stroke-width: 0.8"/>
      </g>
     </g>
     <g id="text_14">
      <!-- 20000 -->
      <g transform="translate(7.2 197.899421)scale(0.1 -0.1)">
       <use xlink:href="#DejaVuSans-32"/>
       <use xlink:href="#DejaVuSans-30" x="63.623047"/>
       <use xlink:href="#DejaVuSans-30" x="127.246094"/>
       <use xlink:href="#DejaVuSans-30" x="190.869141"/>
       <use xlink:href="#DejaVuSans-30" x="254.492188"/>
      </g>
     </g>
    </g>
    <g id="ytick_4">
     <g id="line2d_15">
      <g>
       <use xlink:href="#m5e420cf58b" x="46.0125" y="122.062831" style="stroke: #000000; stroke-width: 0.8"/>
      </g>
     </g>
     <g id="text_15">
      <!-- 30000 -->
      <g transform="translate(7.2 125.862049)scale(0.1 -0.1)">
       <defs>
        <path id="DejaVuSans-33" d="M 2597 2516 
Q 3050 2419 3304 2112 
Q 3559 1806 3559 1356 
Q 3559 666 3084 287 
Q 2609 -91 1734 -91 
Q 1441 -91 1130 -33 
Q 819 25 488 141 
L 488 750 
Q 750 597 1062 519 
Q 1375 441 1716 441 
Q 2309 441 2620 675 
Q 2931 909 2931 1356 
Q 2931 1769 2642 2001 
Q 2353 2234 1838 2234 
L 1294 2234 
L 1294 2753 
L 1863 2753 
Q 2328 2753 2575 2939 
Q 2822 3125 2822 3475 
Q 2822 3834 2567 4026 
Q 2313 4219 1838 4219 
Q 1578 4219 1281 4162 
Q 984 4106 628 3988 
L 628 4550 
Q 988 4650 1302 4700 
Q 1616 4750 1894 4750 
Q 2613 4750 3031 4423 
Q 3450 4097 3450 3541 
Q 3450 3153 3228 2886 
Q 3006 2619 2597 2516 
z
" transform="scale(0.015625)"/>
       </defs>
       <use xlink:href="#DejaVuSans-33"/>
       <use xlink:href="#DejaVuSans-30" x="63.623047"/>
       <use xlink:href="#DejaVuSans-30" x="127.246094"/>
       <use xlink:href="#DejaVuSans-30" x="190.869141"/>
       <use xlink:href="#DejaVuSans-30" x="254.492188"/>
      </g>
     </g>
    </g>
    <g id="ytick_5">
     <g id="line2d_16">
      <g>
       <use xlink:href="#m5e420cf58b" x="46.0125" y="50.025459" style="stroke: #000000; stroke-width: 0.8"/>
      </g>
     </g>
     <g id="text_16">
      <!-- 40000 -->
      <g transform="translate(7.2 53.824678)scale(0.1 -0.1)">
       <use xlink:href="#DejaVuSans-34"/>
       <use xlink:href="#DejaVuSans-30" x="63.623047"/>
       <use xlink:href="#DejaVuSans-30" x="127.246094"/>
       <use xlink:href="#DejaVuSans-30" x="190.869141"/>
       <use xlink:href="#DejaVuSans-30" x="254.492188"/>
      </g>
     </g>
    </g>
   </g>
   <g id="line2d_17">
    <path d="M 106.885227 338.174945 
L 182.219431 338.066889 
L 183.564685 337.937222 
L 184.909938 338.009259 
L 186.255192 337.857981 
L 187.600446 337.49059 
L 188.945699 337.879592 
L 191.636207 337.771536 
L 192.98146 337.627461 
L 194.326714 337.238459 
L 195.671968 337.324904 
L 197.017221 337.613054 
L 198.362475 337.526609 
L 199.707729 338.174945 
L 201.052982 336.748605 
L 202.398236 337.00794 
L 203.743489 336.878272 
L 205.088743 336.928699 
L 206.433997 337.620257 
L 207.77925 337.735517 
L 209.124504 337.389738 
L 210.469758 338.117315 
L 211.815011 336.395622 
L 213.160265 337.425756 
L 214.505519 337.483386 
L 215.850772 337.742721 
L 217.196026 337.785943 
L 218.54128 337.231256 
L 219.886533 337.202441 
L 221.231787 337.382534 
L 225.267548 337.137607 
L 226.612801 337.569831 
L 227.958055 337.108792 
L 229.303309 336.971921 
L 233.33907 336.914291 
L 234.684323 337.360923 
L 236.029577 337.389738 
L 237.37483 337.079977 
L 238.720084 336.914291 
L 240.065338 337.051162 
L 241.410591 337.043958 
L 242.755845 336.806235 
L 244.101099 337.152014 
L 245.446352 337.224052 
L 246.791606 337.123199 
L 248.13686 337.245663 
L 249.482113 336.770216 
L 250.827367 336.849457 
L 254.863128 337.670683 
L 256.208381 336.820643 
L 257.553635 337.245663 
L 258.898889 336.993532 
L 260.244142 337.058366 
L 261.589396 336.95031 
L 264.279903 337.209644 
L 265.625157 336.791828 
L 266.970411 336.993532 
L 269.660918 336.712586 
L 271.006172 337.224052 
L 272.351425 337.245663 
L 273.696679 337.461775 
L 275.041932 337.555424 
L 277.73244 335.704063 
L 279.077693 336.23714 
L 280.422947 336.273158 
L 281.768201 336.71979 
L 283.113454 336.712586 
L 284.458708 336.049843 
L 285.803962 335.898564 
L 288.494469 334.241705 
L 289.839723 336.244344 
L 292.53023 336.467659 
L 295.220737 335.379895 
L 296.565991 335.833731 
L 297.911244 335.264635 
L 299.256498 335.783304 
L 300.601752 336.049843 
L 301.947005 335.804916 
L 304.637513 334.609095 
L 305.982766 333.953555 
L 307.32802 333.542942 
L 308.673273 335.336673 
L 310.018527 334.976486 
L 311.363781 335.336673 
L 315.399542 333.305219 
L 318.090049 334.774781 
L 319.435303 334.112037 
L 320.780556 334.191278 
L 322.12581 334.58028 
L 326.161571 333.305219 
L 327.506824 335.221413 
L 328.852078 334.450613 
L 330.197332 334.112037 
L 331.542585 332.973847 
L 332.887839 333.845499 
L 334.233093 331.929305 
L 335.578346 333.622183 
L 336.9236 333.643794 
L 339.614107 334.947671 
L 340.959361 335.199802 
L 342.304615 331.30258 
L 343.649868 332.937828 
L 346.340375 332.520011 
L 347.685629 335.228617 
L 350.376136 334.09763 
L 351.72139 334.421798 
L 353.066644 331.95812 
L 354.411897 333.413275 
L 355.757151 335.653637 
L 357.102405 335.034116 
L 358.447658 334.962078 
L 359.792912 335.732878 
L 361.138165 334.558669 
L 363.828673 334.529854 
L 365.173926 334.767577 
L 366.51918 335.624822 
L 367.864434 335.451932 
L 369.209687 335.142172 
L 370.554941 333.946351 
L 371.900195 334.861226 
L 373.245448 335.46634 
L 374.590702 335.46634 
L 375.935956 336.280362 
L 377.281209 335.567192 
L 378.626463 335.740082 
L 379.971716 335.768897 
L 381.31697 334.198482 
L 382.662224 335.689656 
L 384.007477 335.790508 
L 385.352731 336.431641 
L 386.697985 336.280362 
L 389.388492 334.854022 
L 390.733746 334.839615 
L 392.078999 335.516766 
L 394.769507 336.381215 
L 396.11476 335.271839 
L 397.460014 335.243024 
L 398.805267 335.415914 
L 400.150521 335.358284 
L 401.495775 334.875633 
L 402.841028 334.947671 
L 404.186282 336.3524 
L 405.531536 336.042639 
L 406.876789 335.156579 
L 408.222043 334.544262 
L 409.567297 334.479428 
L 410.91255 335.055727 
L 412.257804 335.379895 
L 413.603058 335.487951 
L 414.948311 335.826527 
L 416.293565 335.912972 
L 417.638818 335.682452 
L 418.984072 333.449294 
L 420.329326 334.054407 
L 421.674579 333.650998 
L 423.019833 334.119241 
L 424.365087 334.126445 
L 428.400848 330.128371 
L 429.746101 330.41652 
L 431.091355 331.547507 
L 432.436608 333.694221 
L 433.781862 333.492516 
L 435.127116 331.857268 
L 436.472369 329.544868 
L 437.817623 328.010472 
L 439.162877 330.848744 
L 440.50813 330.481354 
L 441.853384 332.217454 
L 443.198638 333.175552 
L 444.543891 331.648359 
L 447.234399 330.200408 
L 448.579652 330.481354 
L 449.924906 328.140139 
L 451.270159 330.214816 
L 452.615413 333.017069 
L 453.960667 330.920782 
L 455.30592 327.362136 
L 456.651174 328.500326 
L 457.996428 328.421085 
L 459.341681 329.530461 
L 460.686935 331.057653 
L 462.032189 331.064857 
L 463.377442 329.93387 
L 464.722696 327.383747 
L 466.06795 327.398154 
L 467.413203 328.521937 
L 468.758457 330.272445 
L 470.10371 329.76098 
L 471.448964 330.387705 
L 472.794218 328.356251 
L 474.139471 327.059579 
L 475.484725 324.05562 
L 476.829979 326.591336 
L 478.175232 325.460349 
L 479.520486 329.523257 
L 480.86574 329.926666 
L 482.210993 326.829059 
L 483.556247 324.94168 
L 484.901501 321.66398 
L 486.246754 325.755702 
L 487.592008 324.819216 
L 488.937261 329.559275 
L 491.627769 322.97506 
L 492.973022 317.954055 
L 494.318276 316.657382 
L 495.66353 316.880698 
L 497.008783 320.986828 
L 498.354037 321.988148 
L 499.699291 320.043139 
L 501.044544 321.354219 
L 502.389798 309.943499 
L 503.735051 322.68691 
L 505.080305 299.620544 
L 506.425559 318.962578 
L 507.770812 323.976379 
L 509.116066 315.281468 
L 510.46132 316.052268 
L 511.806573 309.590516 
L 513.151827 305.124199 
L 514.497081 313.718257 
L 515.842334 315.144597 
L 517.187588 322.009759 
L 518.532842 318.717651 
L 519.878095 325.345089 
L 521.223349 338.174945 
L 522.568602 293.929592 
L 523.913856 323.45771 
L 525.25911 325.77011 
L 526.604363 324.509456 
L 527.949617 320.093565 
L 529.294871 309.331182 
L 530.640124 309.756202 
L 531.985378 316.527715 
L 533.330632 311.708415 
L 534.675885 319.711767 
L 536.021139 322.103408 
L 537.366393 321.368626 
L 538.711646 319.632526 
L 540.0569 313.675035 
L 541.402153 322.449187 
L 542.747407 311.578748 
L 544.092661 323.169561 
L 545.437914 323.99799 
L 546.783168 324.379788 
L 548.128422 317.082403 
L 549.473675 315.101375 
L 550.818929 319.128264 
L 552.164183 320.828346 
L 553.509436 323.810693 
L 554.85469 325.071347 
L 556.199943 321.591942 
L 557.545197 319.358784 
L 558.890451 317.341737 
L 560.235704 338.174945 
L 561.580958 313.041106 
L 562.926212 332.44077 
L 564.271465 325.813332 
L 565.616719 318.46552 
L 566.961973 319.344376 
L 568.307226 304.519085 
L 569.65248 338.174945 
L 570.997734 301.853702 
L 572.342987 325.071347 
L 573.688241 322.614873 
L 575.033494 314.272945 
L 576.378748 311.02406 
L 577.724002 305.059365 
L 579.069255 310.85117 
L 580.414509 319.35158 
L 581.759763 321.779239 
L 583.105016 327.484599 
L 584.45027 322.715725 
L 585.795524 300.801957 
L 587.140777 318.422298 
L 588.486031 319.855842 
L 589.831285 322.68691 
L 591.176538 326.757022 
L 592.521792 330.380501 
L 593.867045 328.795679 
L 595.212299 322.622077 
L 596.557553 323.126338 
L 597.902806 319.092245 
L 599.24806 325.417127 
L 600.593314 327.25408 
L 601.938567 331.986935 
L 604.629075 323.702637 
L 607.319582 327.246876 
L 608.664836 327.599859 
L 610.010089 329.573683 
L 611.355343 333.967963 
L 612.700596 329.523257 
L 614.04585 326.713799 
L 615.391104 329.004588 
L 616.736357 329.415201 
L 618.081611 329.451219 
L 619.426865 331.633952 
L 620.772118 334.472224 
L 623.462626 328.817291 
L 624.807879 329.227904 
L 626.153133 330.538984 
L 627.498386 331.381821 
L 630.188894 334.846819 
L 631.534147 333.917536 
L 632.879401 331.684378 
L 634.224655 329.883444 
L 635.569908 332.001342 
L 638.260416 333.125125 
L 639.605669 335.740082 
L 640.950923 333.017069 
L 642.296177 332.325511 
L 643.64143 332.181436 
L 644.986684 333.485312 
L 646.331937 333.233181 
L 649.022445 336.323585 
L 651.712952 332.923421 
L 653.058206 333.773462 
L 654.403459 334.220093 
L 655.748713 334.068815 
L 658.43922 336.301973 
L 659.784474 334.148056 
L 661.129728 333.434886 
L 662.474981 333.521331 
L 663.820235 334.436206 
L 665.165488 334.63791 
L 666.510742 335.322265 
L 667.855996 336.582919 
L 669.201249 334.709948 
L 670.546503 333.139533 
L 671.891757 334.140852 
L 673.23701 334.954875 
L 674.582264 334.8108 
L 675.927518 335.473544 
L 677.272771 337.029551 
L 678.618025 335.415914 
L 679.963279 334.126445 
L 681.308532 334.378576 
L 682.653786 334.911652 
L 683.999039 334.861226 
L 685.344293 335.372691 
L 686.689547 336.77742 
L 688.0348 335.502359 
L 689.380054 334.472224 
L 690.725308 334.666725 
L 692.070561 335.134968 
L 693.415815 334.954875 
L 694.761069 335.69686 
L 696.106322 336.928699 
L 697.451576 336.013824 
L 698.796829 333.766258 
L 700.142083 334.69554 
L 702.83259 335.243024 
L 704.177844 335.69686 
L 705.523098 336.842254 
L 708.213605 334.356964 
L 709.558859 334.890041 
L 710.904112 334.839615 
L 712.249366 335.199802 
L 713.59462 336.388418 
L 714.939873 336.734198 
L 716.285127 335.905768 
L 717.63038 333.92474 
L 720.320888 335.69686 
L 721.666141 334.774781 
L 723.011395 336.150695 
L 724.356649 336.402826 
L 725.701902 335.819323 
L 727.047156 334.443409 
L 728.39241 334.839615 
L 729.737663 335.740082 
L 731.082917 335.221413 
L 732.428171 336.165102 
L 733.773424 336.532493 
L 735.118678 336.309177 
L 736.463931 334.717151 
L 737.809185 335.329469 
L 739.154439 335.394303 
L 740.499692 335.5816 
L 741.844946 336.503678 
L 743.1902 336.683772 
L 744.535453 336.561308 
L 745.880707 334.803596 
L 747.225961 335.163783 
L 748.571214 335.754489 
L 749.916468 335.869749 
L 752.606975 336.993532 
L 753.952229 336.323585 
L 755.297482 335.077338 
L 756.642736 336.258751 
L 757.98799 336.013824 
L 760.678497 336.510882 
L 762.023751 337.108792 
L 763.369004 336.842254 
L 764.714258 336.244344 
L 766.059512 335.94899 
L 767.404765 336.215529 
L 768.750019 336.791828 
L 770.095272 336.907087 
L 772.78578 337.368127 
L 774.131033 336.734198 
L 775.476287 335.704063 
L 776.821541 336.100269 
L 778.166794 335.970602 
L 779.512048 336.568512 
L 780.857302 336.921495 
L 782.202555 336.359603 
L 783.547809 335.5816 
L 786.238316 336.258751 
L 787.58357 335.603211 
L 788.928823 336.77742 
L 790.274077 336.957514 
L 791.619331 336.467659 
L 792.964584 335.199802 
L 798.345599 336.381215 
L 799.690853 337.022347 
L 801.036106 336.381215 
L 802.38136 334.378576 
L 803.726614 334.846819 
L 805.071867 335.94899 
L 806.417121 335.646433 
L 807.762374 336.143491 
L 809.107628 336.345196 
L 810.452882 335.574396 
L 811.798135 334.04 
L 813.143389 334.284927 
L 814.488643 335.070134 
L 815.833896 338.174945 
L 818.524404 338.174945 
L 819.869657 329.897851 
L 821.214911 335.336673 
L 822.560164 333.362849 
L 823.905418 333.456497 
L 825.250672 338.174945 
L 826.595925 338.174945 
L 827.941179 329.256719 
L 829.286433 334.781985 
L 830.631686 334.054407 
L 831.97694 333.182755 
L 833.322194 333.355645 
L 834.667447 338.174945 
L 836.012701 338.174945 
L 837.357955 326.994745 
L 838.703208 334.148056 
L 840.048462 331.886083 
L 841.393715 332.303899 
L 842.738969 338.174945 
L 845.429476 338.174945 
L 846.77473 321.829666 
L 848.119984 333.759054 
L 849.465237 332.102195 
L 850.810491 330.157186 
L 852.155745 329.451219 
L 853.500998 338.174945 
L 854.846252 338.174945 
L 856.191506 322.009759 
L 857.536759 332.930624 
L 858.882013 330.611021 
L 860.227266 330.279649 
L 861.57252 331.734804 
L 862.917774 338.174945 
L 864.263027 338.174945 
L 865.608281 323.637804 
L 866.953535 333.607776 
L 868.298788 330.149982 
L 869.644042 329.2207 
L 870.989296 331.713193 
L 872.334549 338.174945 
L 873.679803 338.174945 
L 875.025057 320.72029 
L 876.37031 331.237746 
L 877.715564 327.455784 
L 879.060817 328.954162 
L 880.406071 330.135574 
L 881.751325 338.174945 
L 883.096578 338.174945 
L 884.441832 318.595188 
L 885.787086 329.962685 
L 887.132339 326.757022 
L 888.477593 327.434173 
L 889.822847 328.910939 
L 891.1681 338.174945 
L 892.513354 338.174945 
L 893.858607 314.193704 
L 895.203861 329.400793 
L 896.549115 326.036648 
L 897.894368 326.022241 
L 899.239622 326.396835 
L 900.584876 338.174945 
L 903.275383 338.174945 
L 904.620637 304.627141 
L 905.96589 327.088394 
L 907.311144 322.578854 
L 908.656398 322.405964 
L 910.001651 338.174945 
L 911.346905 338.174945 
L 912.692158 307.8256 
L 914.037412 328.997384 
L 915.382666 324.595901 
L 916.727919 324.595901 
L 918.073173 325.575609 
L 919.418427 338.174945 
L 920.76368 338.174945 
L 922.108934 313.732665 
L 923.454188 328.62279 
L 924.799441 325.755702 
L 926.144695 326.663373 
L 927.489949 326.130297 
L 928.835202 338.174945 
L 930.180456 338.174945 
L 931.525709 315.295876 
L 932.870963 330.034722 
L 934.216217 325.309071 
L 935.56147 325.899777 
L 936.906724 325.820536 
L 938.251978 338.174945 
L 939.597231 338.174945 
L 940.942485 314.402612 
L 942.287739 329.069421 
L 943.632992 323.947564 
L 946.323499 326.382427 
L 947.668753 338.174945 
L 950.35926 338.174945 
L 951.704514 306.723429 
L 953.049768 324.88405 
L 954.395021 329.148662 
L 955.740275 327.419766 
L 957.085529 338.174945 
L 958.430782 338.174945 
L 959.776036 316.304399 
L 961.12129 328.500326 
L 962.466543 328.017676 
L 963.811797 321.3182 
L 965.15705 326.512095 
L 966.502304 338.174945 
L 967.847558 338.174945 
L 969.192811 311.982157 
L 970.538065 326.548113 
L 971.883319 323.277617 
L 973.228572 324.783198 
L 974.573826 325.136181 
L 975.91908 338.174945 
L 977.264333 338.174945 
L 978.609587 315.274265 
L 979.954841 329.170274 
L 981.300094 322.672503 
L 982.645348 321.844073 
L 983.990601 324.675142 
L 985.335855 338.174945 
L 986.681109 338.174945 
L 988.026362 309.561701 
L 989.371616 326.951523 
L 990.71687 327.146024 
L 992.062123 338.174945 
L 993.407377 310.498187 
L 994.752631 338.174945 
L 996.097884 338.174945 
L 997.443138 305.74372 
L 998.788392 329.256719 
L 1000.133645 322.838189 
L 1001.478899 325.287459 
L 1002.824152 325.467553 
L 1004.169406 338.174945 
L 1005.51466 338.174945 
L 1006.859913 310.591836 
L 1008.205167 329.869036 
L 1009.550421 325.179403 
L 1010.895674 338.174945 
L 1012.240928 320.77792 
L 1013.586182 338.174945 
L 1014.931435 338.174945 
L 1016.276689 320.338492 
L 1017.621942 329.566479 
L 1018.967196 321.627961 
L 1020.31245 323.904342 
L 1021.657703 324.682345 
L 1023.002957 338.174945 
L 1024.348211 338.174945 
L 1025.693464 313.271626 
L 1027.038718 330.092352 
L 1028.383972 327.924027 
L 1029.729225 328.111324 
L 1031.074479 328.593975 
L 1032.419733 338.174945 
L 1033.764986 338.174945 
L 1035.11024 318.948171 
L 1036.455493 331.547507 
L 1037.800747 328.766864 
L 1039.146001 330.222019 
L 1040.491254 330.848744 
L 1041.836508 338.174945 
L 1043.181762 338.174945 
L 1044.527015 320.165602 
L 1045.872269 332.332714 
L 1047.217523 328.046491 
L 1048.562776 328.889328 
L 1049.90803 338.174945 
L 1052.598537 338.174945 
L 1053.943791 304.987328 
L 1055.289044 325.092958 
L 1056.634298 314.381001 
L 1057.979552 312.50803 
L 1059.324805 338.174945 
L 1062.015313 338.174945 
L 1063.360566 231.891007 
L 1064.70582 304.598326 
L 1066.051074 285.969462 
L 1067.396327 273.968036 
L 1068.741581 269.962758 
L 1070.086835 338.174945 
L 1071.432088 338.174945 
L 1072.777342 164.226304 
L 1074.122595 267.484672 
L 1075.467849 264.552751 
L 1076.813103 244.598399 
L 1078.158356 258.011758 
L 1079.50361 338.174945 
L 1082.194117 338.174945 
L 1083.539371 50.8755 
L 1084.884625 247.667192 
L 1086.229878 254.553964 
L 1087.575132 254.60439 
L 1088.920385 338.174945 
L 1090.265639 338.174945 
L 1091.610893 179.90884 
L 1092.956146 290.63028 
L 1094.3014 284.197343 
L 1095.646654 287.511062 
L 1096.991907 293.756702 
L 1098.337161 338.174945 
L 1099.682415 338.174945 
L 1101.027668 264.178157 
L 1102.372922 317.680313 
L 1103.718176 312.176658 
L 1105.063429 313.091532 
L 1106.408683 317.946851 
L 1107.753936 338.174945 
L 1109.09919 338.174945 
L 1110.444444 298.525576 
L 1111.789697 328.514734 
L 1113.134951 323.320839 
L 1115.825458 325.273052 
L 1117.170712 338.174945 
L 1118.515966 338.174945 
L 1119.861219 315.641655 
L 1121.206473 332.620864 
L 1122.551727 328.147343 
L 1123.89698 330.740688 
L 1125.242234 330.978412 
L 1126.587487 338.174945 
L 1129.277995 338.174945 
L 1130.623248 323.277617 
L 1131.968502 333.75185 
L 1133.313756 333.658202 
L 1134.659009 335.113357 
L 1136.004263 338.174945 
L 1137.349517 338.174945 
L 1138.69477 331.720397 
L 1140.040024 336.172306 
L 1141.385277 334.854022 
L 1142.730531 335.322265 
L 1144.075785 336.29477 
L 1145.421038 338.174945 
L 1146.766292 338.174945 
L 1148.111546 334.263316 
L 1149.456799 337.454571 
L 1150.802053 336.748605 
L 1152.147307 336.83505 
L 1153.49256 336.417233 
L 1154.837814 338.174945 
L 1156.183068 338.174945 
L 1157.528321 335.632026 
L 1158.873575 337.497794 
L 1160.218828 336.856661 
L 1161.564082 336.928699 
L 1162.909336 337.310497 
L 1164.254589 338.174945 
L 1165.599843 338.174945 
L 1166.945097 335.704063 
L 1168.29035 337.389738 
L 1169.635604 337.3177 
L 1170.980858 337.079977 
L 1172.326111 337.231256 
L 1173.671365 338.174945 
L 1175.016619 338.174945 
L 1176.361872 336.337992 
L 1177.707126 337.468979 
L 1179.052379 337.216848 
L 1180.397633 337.166422 
L 1181.742887 338.174945 
L 1188.469155 338.174945 
L 1189.814409 333.139533 
L 1191.159662 338.174945 
L 1197.88593 338.174945 
L 1199.231184 332.84418 
L 1200.576438 338.174945 
L 1207.302706 338.174945 
L 1208.64796 329.552072 
L 1209.993213 338.174945 
L 1216.719481 338.174945 
L 1218.064735 325.964611 
L 1219.409989 338.174945 
L 1226.136257 338.174945 
L 1227.481511 314.935689 
L 1228.826764 338.174945 
L 1235.553032 338.174945 
L 1236.898286 313.790295 
L 1238.24354 338.174945 
L 1244.969808 338.174945 
L 1246.315062 305.729313 
L 1247.660315 338.174945 
L 1254.386583 338.174945 
L 1255.731837 297.754776 
L 1257.077091 338.174945 
L 1263.803359 338.174945 
L 1265.148613 296.911939 
L 1266.493866 338.174945 
L 1273.220134 338.174945 
L 1274.565388 284.132509 
L 1275.910642 338.174945 
L 1282.63691 338.174945 
L 1283.982163 291.192171 
L 1285.327417 338.174945 
L 1292.053685 338.174945 
L 1293.398939 289.362422 
L 1294.744193 338.174945 
L 1301.470461 338.174945 
L 1302.815714 284.953735 
L 1304.160968 338.174945 
L 1306.851475 338.174945 
L 1306.851475 338.174945 
" clip-path="url(#p0bdf820eab)" style="fill: none; stroke: #0000ff; stroke-width: 1.5; stroke-linecap: square"/>
   </g>
   <g id="line2d_18">
    <path d="M 1067.396327 318.722373 
L 1068.741581 306.212691 
L 1070.086835 299.261012 
L 1071.432088 255.06141 
L 1072.777342 293.845281 
L 1074.122595 275.10057 
L 1075.467849 268.748203 
L 1076.813103 274.281635 
L 1078.158356 280.999633 
L 1079.50361 277.324738 
L 1080.848864 204.701103 
L 1082.194117 254.602318 
L 1083.539371 280.471279 
L 1084.884625 262.841734 
L 1086.229878 254.093799 
L 1087.575132 301.621643 
L 1088.920385 266.012141 
L 1090.265639 239.579577 
L 1091.610893 186.170648 
L 1092.956146 240.22274 
L 1094.3014 250.639401 
L 1095.646654 267.099894 
L 1096.991907 303.883892 
L 1098.337161 323.148504 
L 1099.682415 257.871659 
L 1101.027668 264.083082 
L 1102.372922 290.777825 
L 1103.718176 297.315694 
L 1105.063429 306.043999 
L 1106.408683 343.164757 
L 1107.753936 351.428236 
L 1109.09919 294.483228 
L 1110.444444 310.872783 
L 1111.789697 320.798875 
L 1113.134951 322.048804 
L 1114.480205 325.682834 
L 1115.825458 350.662123 
L 1117.170712 353.2755 
L 1118.515966 312.158779 
L 1119.861219 327.788948 
L 1121.206473 330.201484 
L 1122.551727 330.43756 
L 1123.89698 331.565695 
L 1125.242234 348.076768 
L 1126.587487 349.000481 
L 1127.932741 321.877399 
L 1129.277995 333.391818 
L 1130.623248 335.283866 
L 1131.968502 335.317124 
L 1133.313756 334.822835 
L 1134.659009 346.747733 
L 1136.004263 344.92876 
L 1137.349517 332.555552 
L 1138.69477 333.00154 
L 1140.040024 335.895797 
L 1141.385277 336.120827 
L 1142.730531 336.803024 
L 1144.075785 342.45625 
L 1145.421038 343.058163 
L 1146.766292 334.716042 
L 1148.111546 336.038075 
L 1149.456799 336.811074 
L 1150.802053 336.955842 
L 1152.147307 337.576279 
L 1153.49256 341.043173 
L 1154.837814 341.267242 
L 1156.183068 336.01207 
L 1157.528321 337.53627 
L 1160.218828 337.508538 
L 1161.564082 337.549331 
L 1162.909336 339.681279 
L 1164.254589 339.747667 
L 1165.599843 336.437535 
L 1166.945097 337.743346 
L 1168.29035 337.528745 
L 1169.635604 337.446189 
L 1170.980858 337.580412 
L 1172.326111 338.811409 
L 1173.671365 338.798021 
L 1175.016619 336.477702 
L 1176.361872 337.634623 
L 1179.052379 337.44273 
L 1180.397633 337.540692 
L 1181.742887 338.375628 
L 1183.08814 338.444055 
L 1184.433394 336.790939 
L 1185.778648 337.627725 
L 1188.469155 337.782908 
L 1189.814409 338.47444 
L 1191.159662 338.531415 
L 1192.504916 338.189932 
L 1193.85017 337.420012 
L 1195.195423 337.239067 
L 1196.540677 337.510707 
L 1197.88593 336.019567 
L 1199.231184 338.171829 
L 1200.576438 338.106445 
L 1204.612199 337.388507 
L 1205.957452 337.627911 
L 1207.302706 335.253264 
L 1208.64796 338.294643 
L 1209.993213 337.769948 
L 1211.338467 337.384433 
L 1212.68372 337.301886 
L 1214.028974 336.775004 
L 1215.374228 337.219353 
L 1216.719481 333.497424 
L 1218.064735 338.189914 
L 1219.409989 337.402839 
L 1220.755242 336.911636 
L 1222.100496 336.978135 
L 1223.44575 336.220847 
L 1224.791003 336.847079 
L 1226.136257 331.374148 
L 1227.481511 338.487286 
L 1228.826764 336.617618 
L 1230.172018 335.511988 
L 1231.517271 335.74765 
L 1232.862525 334.060204 
L 1234.207779 335.383775 
L 1235.553032 325.875806 
L 1236.898286 337.631946 
L 1238.24354 336.369956 
L 1239.588793 335.651839 
L 1240.934047 335.972531 
L 1242.279301 334.686731 
L 1243.624554 335.809303 
L 1244.969808 323.689196 
L 1246.315062 338.118392 
L 1247.660315 336.111974 
L 1249.005569 334.952909 
L 1250.350822 335.314307 
L 1251.696076 333.437444 
L 1253.04133 334.962639 
L 1254.386583 319.305967 
L 1255.731837 337.946862 
L 1257.077091 335.559547 
L 1258.422344 334.188374 
L 1259.767598 334.656536 
L 1261.112852 332.393602 
L 1262.458105 334.255081 
L 1263.803359 314.424555 
L 1265.148613 337.433922 
L 1266.493866 335.579624 
L 1267.83912 334.533514 
L 1269.184373 335.013936 
L 1270.529627 333.14471 
L 1271.874881 334.764404 
L 1273.220134 312.443147 
L 1274.565388 338.217248 
L 1275.910642 335.024574 
L 1277.255895 333.181448 
L 1278.601149 333.739944 
L 1279.946403 330.784138 
L 1281.291656 333.163982 
L 1282.63691 306.062645 
L 1283.982163 336.831949 
L 1285.327417 335.367873 
L 1286.672671 334.567077 
L 1288.017924 335.102876 
L 1289.363178 333.476881 
L 1290.708432 334.989665 
L 1292.053685 307.16254 
L 1293.398939 337.760051 
L 1294.744193 335.821279 
L 1296.089446 334.716539 
L 1297.4347 335.146418 
L 1298.779954 333.264115 
L 1300.125207 334.845418 
L 1301.470461 306.397423 
L 1302.815714 337.890394 
L 1304.160968 335.521087 
L 1305.506222 334.16383 
L 1306.851475 334.643615 
L 1306.851475 334.643615 
" clip-path="url(#p0bdf820eab)" style="fill: none; stroke: #ffa500; stroke-width: 1.5; stroke-linecap: square"/>
   </g>
   <g id="line2d_19">
    <path d="M 1306.851475 334.643615 
L 1308.196729 332.573181 
L 1309.541983 334.304773 
L 1310.887236 303.559284 
L 1312.23249 335.045636 
L 1313.577744 334.813276 
L 1314.922997 334.502086 
L 1316.268251 333.404528 
L 1317.613505 332.793691 
L 1318.958758 333.408119 
L 1320.304012 308.708648 
L 1321.649265 333.616425 
L 1322.994519 333.534987 
L 1324.339773 333.437424 
" clip-path="url(#p0bdf820eab)" style="fill: none; stroke: #ff0000; stroke-width: 1.5; stroke-linecap: square"/>
   </g>
   <g id="patch_3">
    <path d="M 46.0125 368.3955 
L 46.0125 35.7555 
" style="fill: none; stroke: #000000; stroke-width: 0.8; stroke-linejoin: miter; stroke-linecap: square"/>
   </g>
   <g id="patch_4">
    <path d="M 1385.2125 368.3955 
L 1385.2125 35.7555 
" style="fill: none; stroke: #000000; stroke-width: 0.8; stroke-linejoin: miter; stroke-linecap: square"/>
   </g>
   <g id="patch_5">
    <path d="M 46.0125 368.3955 
L 1385.2125 368.3955 
" style="fill: none; stroke: #000000; stroke-width: 0.8; stroke-linejoin: miter; stroke-linecap: square"/>
   </g>
   <g id="patch_6">
    <path d="M 46.0125 35.7555 
L 1385.2125 35.7555 
" style="fill: none; stroke: #000000; stroke-width: 0.8; stroke-linejoin: miter; stroke-linecap: square"/>
   </g>
   <g id="text_17">
    <!-- Daily Confirmed Cases Forecasting - Utah -->
    <g transform="translate(590.889375 16.318125)scale(0.12 -0.12)">
     <defs>
      <path id="DejaVuSans-44" d="M 1259 4147 
L 1259 519 
L 2022 519 
Q 2988 519 3436 956 
Q 3884 1394 3884 2338 
Q 3884 3275 3436 3711 
Q 2988 4147 2022 4147 
L 1259 4147 
z
M 628 4666 
L 1925 4666 
Q 3281 4666 3915 4102 
Q 4550 3538 4550 2338 
Q 4550 1131 3912 565 
Q 3275 0 1925 0 
L 628 0 
L 628 4666 
z
" transform="scale(0.015625)"/>
      <path id="DejaVuSans-61" d="M 2194 1759 
Q 1497 1759 1228 1600 
Q 959 1441 959 1056 
Q 959 750 1161 570 
Q 1363 391 1709 391 
Q 2188 391 2477 730 
Q 2766 1069 2766 1631 
L 2766 1759 
L 2194 1759 
z
M 3341 1997 
L 3341 0 
L 2766 0 
L 2766 531 
Q 2569 213 2275 61 
Q 1981 -91 1556 -91 
Q 1019 -91 701 211 
Q 384 513 384 1019 
Q 384 1609 779 1909 
Q 1175 2209 1959 2209 
L 2766 2209 
L 2766 2266 
Q 2766 2663 2505 2880 
Q 2244 3097 1772 3097 
Q 1472 3097 1187 3025 
Q 903 2953 641 2809 
L 641 3341 
Q 956 3463 1253 3523 
Q 1550 3584 1831 3584 
Q 2591 3584 2966 3190 
Q 3341 2797 3341 1997 
z
" transform="scale(0.015625)"/>
      <path id="DejaVuSans-69" d="M 603 3500 
L 1178 3500 
L 1178 0 
L 603 0 
L 603 3500 
z
M 603 4863 
L 1178 4863 
L 1178 4134 
L 603 4134 
L 603 4863 
z
" transform="scale(0.015625)"/>
      <path id="DejaVuSans-6c" d="M 603 4863 
L 1178 4863 
L 1178 0 
L 603 0 
L 603 4863 
z
" transform="scale(0.015625)"/>
      <path id="DejaVuSans-79" d="M 2059 -325 
Q 1816 -950 1584 -1140 
Q 1353 -1331 966 -1331 
L 506 -1331 
L 506 -850 
L 844 -850 
Q 1081 -850 1212 -737 
Q 1344 -625 1503 -206 
L 1606 56 
L 191 3500 
L 800 3500 
L 1894 763 
L 2988 3500 
L 3597 3500 
L 2059 -325 
z
" transform="scale(0.015625)"/>
      <path id="DejaVuSans-20" transform="scale(0.015625)"/>
      <path id="DejaVuSans-43" d="M 4122 4306 
L 4122 3641 
Q 3803 3938 3442 4084 
Q 3081 4231 2675 4231 
Q 1875 4231 1450 3742 
Q 1025 3253 1025 2328 
Q 1025 1406 1450 917 
Q 1875 428 2675 428 
Q 3081 428 3442 575 
Q 3803 722 4122 1019 
L 4122 359 
Q 3791 134 3420 21 
Q 3050 -91 2638 -91 
Q 1578 -91 968 557 
Q 359 1206 359 2328 
Q 359 3453 968 4101 
Q 1578 4750 2638 4750 
Q 3056 4750 3426 4639 
Q 3797 4528 4122 4306 
z
" transform="scale(0.015625)"/>
      <path id="DejaVuSans-6f" d="M 1959 3097 
Q 1497 3097 1228 2736 
Q 959 2375 959 1747 
Q 959 1119 1226 758 
Q 1494 397 1959 397 
Q 2419 397 2687 759 
Q 2956 1122 2956 1747 
Q 2956 2369 2687 2733 
Q 2419 3097 1959 3097 
z
M 1959 3584 
Q 2709 3584 3137 3096 
Q 3566 2609 3566 1747 
Q 3566 888 3137 398 
Q 2709 -91 1959 -91 
Q 1206 -91 779 398 
Q 353 888 353 1747 
Q 353 2609 779 3096 
Q 1206 3584 1959 3584 
z
" transform="scale(0.015625)"/>
      <path id="DejaVuSans-6e" d="M 3513 2113 
L 3513 0 
L 2938 0 
L 2938 2094 
Q 2938 2591 2744 2837 
Q 2550 3084 2163 3084 
Q 1697 3084 1428 2787 
Q 1159 2491 1159 1978 
L 1159 0 
L 581 0 
L 581 3500 
L 1159 3500 
L 1159 2956 
Q 1366 3272 1645 3428 
Q 1925 3584 2291 3584 
Q 2894 3584 3203 3211 
Q 3513 2838 3513 2113 
z
" transform="scale(0.015625)"/>
      <path id="DejaVuSans-66" d="M 2375 4863 
L 2375 4384 
L 1825 4384 
Q 1516 4384 1395 4259 
Q 1275 4134 1275 3809 
L 1275 3500 
L 2222 3500 
L 2222 3053 
L 1275 3053 
L 1275 0 
L 697 0 
L 697 3053 
L 147 3053 
L 147 3500 
L 697 3500 
L 697 3744 
Q 697 4328 969 4595 
Q 1241 4863 1831 4863 
L 2375 4863 
z
" transform="scale(0.015625)"/>
      <path id="DejaVuSans-72" d="M 2631 2963 
Q 2534 3019 2420 3045 
Q 2306 3072 2169 3072 
Q 1681 3072 1420 2755 
Q 1159 2438 1159 1844 
L 1159 0 
L 581 0 
L 581 3500 
L 1159 3500 
L 1159 2956 
Q 1341 3275 1631 3429 
Q 1922 3584 2338 3584 
Q 2397 3584 2469 3576 
Q 2541 3569 2628 3553 
L 2631 2963 
z
" transform="scale(0.015625)"/>
      <path id="DejaVuSans-6d" d="M 3328 2828 
Q 3544 3216 3844 3400 
Q 4144 3584 4550 3584 
Q 5097 3584 5394 3201 
Q 5691 2819 5691 2113 
L 5691 0 
L 5113 0 
L 5113 2094 
Q 5113 2597 4934 2840 
Q 4756 3084 4391 3084 
Q 3944 3084 3684 2787 
Q 3425 2491 3425 1978 
L 3425 0 
L 2847 0 
L 2847 2094 
Q 2847 2600 2669 2842 
Q 2491 3084 2119 3084 
Q 1678 3084 1418 2786 
Q 1159 2488 1159 1978 
L 1159 0 
L 581 0 
L 581 3500 
L 1159 3500 
L 1159 2956 
Q 1356 3278 1631 3431 
Q 1906 3584 2284 3584 
Q 2666 3584 2933 3390 
Q 3200 3197 3328 2828 
z
" transform="scale(0.015625)"/>
      <path id="DejaVuSans-65" d="M 3597 1894 
L 3597 1613 
L 953 1613 
Q 991 1019 1311 708 
Q 1631 397 2203 397 
Q 2534 397 2845 478 
Q 3156 559 3463 722 
L 3463 178 
Q 3153 47 2828 -22 
Q 2503 -91 2169 -91 
Q 1331 -91 842 396 
Q 353 884 353 1716 
Q 353 2575 817 3079 
Q 1281 3584 2069 3584 
Q 2775 3584 3186 3129 
Q 3597 2675 3597 1894 
z
M 3022 2063 
Q 3016 2534 2758 2815 
Q 2500 3097 2075 3097 
Q 1594 3097 1305 2825 
Q 1016 2553 972 2059 
L 3022 2063 
z
" transform="scale(0.015625)"/>
      <path id="DejaVuSans-64" d="M 2906 2969 
L 2906 4863 
L 3481 4863 
L 3481 0 
L 2906 0 
L 2906 525 
Q 2725 213 2448 61 
Q 2172 -91 1784 -91 
Q 1150 -91 751 415 
Q 353 922 353 1747 
Q 353 2572 751 3078 
Q 1150 3584 1784 3584 
Q 2172 3584 2448 3432 
Q 2725 3281 2906 2969 
z
M 947 1747 
Q 947 1113 1208 752 
Q 1469 391 1925 391 
Q 2381 391 2643 752 
Q 2906 1113 2906 1747 
Q 2906 2381 2643 2742 
Q 2381 3103 1925 3103 
Q 1469 3103 1208 2742 
Q 947 2381 947 1747 
z
" transform="scale(0.015625)"/>
      <path id="DejaVuSans-73" d="M 2834 3397 
L 2834 2853 
Q 2591 2978 2328 3040 
Q 2066 3103 1784 3103 
Q 1356 3103 1142 2972 
Q 928 2841 928 2578 
Q 928 2378 1081 2264 
Q 1234 2150 1697 2047 
L 1894 2003 
Q 2506 1872 2764 1633 
Q 3022 1394 3022 966 
Q 3022 478 2636 193 
Q 2250 -91 1575 -91 
Q 1294 -91 989 -36 
Q 684 19 347 128 
L 347 722 
Q 666 556 975 473 
Q 1284 391 1588 391 
Q 1994 391 2212 530 
Q 2431 669 2431 922 
Q 2431 1156 2273 1281 
Q 2116 1406 1581 1522 
L 1381 1569 
Q 847 1681 609 1914 
Q 372 2147 372 2553 
Q 372 3047 722 3315 
Q 1072 3584 1716 3584 
Q 2034 3584 2315 3537 
Q 2597 3491 2834 3397 
z
" transform="scale(0.015625)"/>
      <path id="DejaVuSans-46" d="M 628 4666 
L 3309 4666 
L 3309 4134 
L 1259 4134 
L 1259 2759 
L 3109 2759 
L 3109 2228 
L 1259 2228 
L 1259 0 
L 628 0 
L 628 4666 
z
" transform="scale(0.015625)"/>
      <path id="DejaVuSans-63" d="M 3122 3366 
L 3122 2828 
Q 2878 2963 2633 3030 
Q 2388 3097 2138 3097 
Q 1578 3097 1268 2742 
Q 959 2388 959 1747 
Q 959 1106 1268 751 
Q 1578 397 2138 397 
Q 2388 397 2633 464 
Q 2878 531 3122 666 
L 3122 134 
Q 2881 22 2623 -34 
Q 2366 -91 2075 -91 
Q 1284 -91 818 406 
Q 353 903 353 1747 
Q 353 2603 823 3093 
Q 1294 3584 2113 3584 
Q 2378 3584 2631 3529 
Q 2884 3475 3122 3366 
z
" transform="scale(0.015625)"/>
      <path id="DejaVuSans-74" d="M 1172 4494 
L 1172 3500 
L 2356 3500 
L 2356 3053 
L 1172 3053 
L 1172 1153 
Q 1172 725 1289 603 
Q 1406 481 1766 481 
L 2356 481 
L 2356 0 
L 1766 0 
Q 1100 0 847 248 
Q 594 497 594 1153 
L 594 3053 
L 172 3053 
L 172 3500 
L 594 3500 
L 594 4494 
L 1172 4494 
z
" transform="scale(0.015625)"/>
      <path id="DejaVuSans-67" d="M 2906 1791 
Q 2906 2416 2648 2759 
Q 2391 3103 1925 3103 
Q 1463 3103 1205 2759 
Q 947 2416 947 1791 
Q 947 1169 1205 825 
Q 1463 481 1925 481 
Q 2391 481 2648 825 
Q 2906 1169 2906 1791 
z
M 3481 434 
Q 3481 -459 3084 -895 
Q 2688 -1331 1869 -1331 
Q 1566 -1331 1297 -1286 
Q 1028 -1241 775 -1147 
L 775 -588 
Q 1028 -725 1275 -790 
Q 1522 -856 1778 -856 
Q 2344 -856 2625 -561 
Q 2906 -266 2906 331 
L 2906 616 
Q 2728 306 2450 153 
Q 2172 0 1784 0 
Q 1141 0 747 490 
Q 353 981 353 1791 
Q 353 2603 747 3093 
Q 1141 3584 1784 3584 
Q 2172 3584 2450 3431 
Q 2728 3278 2906 2969 
L 2906 3500 
L 3481 3500 
L 3481 434 
z
" transform="scale(0.015625)"/>
      <path id="DejaVuSans-55" d="M 556 4666 
L 1191 4666 
L 1191 1831 
Q 1191 1081 1462 751 
Q 1734 422 2344 422 
Q 2950 422 3222 751 
Q 3494 1081 3494 1831 
L 3494 4666 
L 4128 4666 
L 4128 1753 
Q 4128 841 3676 375 
Q 3225 -91 2344 -91 
Q 1459 -91 1007 375 
Q 556 841 556 1753 
L 556 4666 
z
" transform="scale(0.015625)"/>
      <path id="DejaVuSans-68" d="M 3513 2113 
L 3513 0 
L 2938 0 
L 2938 2094 
Q 2938 2591 2744 2837 
Q 2550 3084 2163 3084 
Q 1697 3084 1428 2787 
Q 1159 2491 1159 1978 
L 1159 0 
L 581 0 
L 581 4863 
L 1159 4863 
L 1159 2956 
Q 1366 3272 1645 3428 
Q 1925 3584 2291 3584 
Q 2894 3584 3203 3211 
Q 3513 2838 3513 2113 
z
" transform="scale(0.015625)"/>
     </defs>
     <use xlink:href="#DejaVuSans-44"/>
     <use xlink:href="#DejaVuSans-61" x="77.001953"/>
     <use xlink:href="#DejaVuSans-69" x="138.28125"/>
     <use xlink:href="#DejaVuSans-6c" x="166.064453"/>
     <use xlink:href="#DejaVuSans-79" x="193.847656"/>
     <use xlink:href="#DejaVuSans-20" x="253.027344"/>
     <use xlink:href="#DejaVuSans-43" x="284.814453"/>
     <use xlink:href="#DejaVuSans-6f" x="354.638672"/>
     <use xlink:href="#DejaVuSans-6e" x="415.820312"/>
     <use xlink:href="#DejaVuSans-66" x="479.199219"/>
     <use xlink:href="#DejaVuSans-69" x="514.404297"/>
     <use xlink:href="#DejaVuSans-72" x="542.1875"/>
     <use xlink:href="#DejaVuSans-6d" x="581.550781"/>
     <use xlink:href="#DejaVuSans-65" x="678.962891"/>
     <use xlink:href="#DejaVuSans-64" x="740.486328"/>
     <use xlink:href="#DejaVuSans-20" x="803.962891"/>
     <use xlink:href="#DejaVuSans-43" x="835.75"/>
     <use xlink:href="#DejaVuSans-61" x="905.574219"/>
     <use xlink:href="#DejaVuSans-73" x="966.853516"/>
     <use xlink:href="#DejaVuSans-65" x="1018.953125"/>
     <use xlink:href="#DejaVuSans-73" x="1080.476562"/>
     <use xlink:href="#DejaVuSans-20" x="1132.576172"/>
     <use xlink:href="#DejaVuSans-46" x="1164.363281"/>
     <use xlink:href="#DejaVuSans-6f" x="1218.257812"/>
     <use xlink:href="#DejaVuSans-72" x="1279.439453"/>
     <use xlink:href="#DejaVuSans-65" x="1318.302734"/>
     <use xlink:href="#DejaVuSans-63" x="1379.826172"/>
     <use xlink:href="#DejaVuSans-61" x="1434.806641"/>
     <use xlink:href="#DejaVuSans-73" x="1496.085938"/>
     <use xlink:href="#DejaVuSans-74" x="1548.185547"/>
     <use xlink:href="#DejaVuSans-69" x="1587.394531"/>
     <use xlink:href="#DejaVuSans-6e" x="1615.177734"/>
     <use xlink:href="#DejaVuSans-67" x="1678.556641"/>
     <use xlink:href="#DejaVuSans-20" x="1742.033203"/>
     <use xlink:href="#DejaVuSans-2d" x="1773.820312"/>
     <use xlink:href="#DejaVuSans-20" x="1809.904297"/>
     <use xlink:href="#DejaVuSans-55" x="1841.691406"/>
     <use xlink:href="#DejaVuSans-74" x="1914.884766"/>
     <use xlink:href="#DejaVuSans-61" x="1954.09375"/>
     <use xlink:href="#DejaVuSans-68" x="2015.373047"/>
    </g>
    <!-- ARIMA (4, 1, 1)x(1, 0, 1, 7) (R2 = 0.167843) -->
    <g transform="translate(583.628438 29.7555)scale(0.12 -0.12)">
     <defs>
      <path id="DejaVuSans-41" d="M 2188 4044 
L 1331 1722 
L 3047 1722 
L 2188 4044 
z
M 1831 4666 
L 2547 4666 
L 4325 0 
L 3669 0 
L 3244 1197 
L 1141 1197 
L 716 0 
L 50 0 
L 1831 4666 
z
" transform="scale(0.015625)"/>
      <path id="DejaVuSans-52" d="M 2841 2188 
Q 3044 2119 3236 1894 
Q 3428 1669 3622 1275 
L 4263 0 
L 3584 0 
L 2988 1197 
Q 2756 1666 2539 1819 
Q 2322 1972 1947 1972 
L 1259 1972 
L 1259 0 
L 628 0 
L 628 4666 
L 2053 4666 
Q 2853 4666 3247 4331 
Q 3641 3997 3641 3322 
Q 3641 2881 3436 2590 
Q 3231 2300 2841 2188 
z
M 1259 4147 
L 1259 2491 
L 2053 2491 
Q 2509 2491 2742 2702 
Q 2975 2913 2975 3322 
Q 2975 3731 2742 3939 
Q 2509 4147 2053 4147 
L 1259 4147 
z
" transform="scale(0.015625)"/>
      <path id="DejaVuSans-49" d="M 628 4666 
L 1259 4666 
L 1259 0 
L 628 0 
L 628 4666 
z
" transform="scale(0.015625)"/>
      <path id="DejaVuSans-4d" d="M 628 4666 
L 1569 4666 
L 2759 1491 
L 3956 4666 
L 4897 4666 
L 4897 0 
L 4281 0 
L 4281 4097 
L 3078 897 
L 2444 897 
L 1241 4097 
L 1241 0 
L 628 0 
L 628 4666 
z
" transform="scale(0.015625)"/>
      <path id="DejaVuSans-28" d="M 1984 4856 
Q 1566 4138 1362 3434 
Q 1159 2731 1159 2009 
Q 1159 1288 1364 580 
Q 1569 -128 1984 -844 
L 1484 -844 
Q 1016 -109 783 600 
Q 550 1309 550 2009 
Q 550 2706 781 3412 
Q 1013 4119 1484 4856 
L 1984 4856 
z
" transform="scale(0.015625)"/>
      <path id="DejaVuSans-2c" d="M 750 794 
L 1409 794 
L 1409 256 
L 897 -744 
L 494 -744 
L 750 256 
L 750 794 
z
" transform="scale(0.015625)"/>
      <path id="DejaVuSans-29" d="M 513 4856 
L 1013 4856 
Q 1481 4119 1714 3412 
Q 1947 2706 1947 2009 
Q 1947 1309 1714 600 
Q 1481 -109 1013 -844 
L 513 -844 
Q 928 -128 1133 580 
Q 1338 1288 1338 2009 
Q 1338 2731 1133 3434 
Q 928 4138 513 4856 
z
" transform="scale(0.015625)"/>
      <path id="DejaVuSans-78" d="M 3513 3500 
L 2247 1797 
L 3578 0 
L 2900 0 
L 1881 1375 
L 863 0 
L 184 0 
L 1544 1831 
L 300 3500 
L 978 3500 
L 1906 2253 
L 2834 3500 
L 3513 3500 
z
" transform="scale(0.015625)"/>
      <path id="DejaVuSans-3d" d="M 678 2906 
L 4684 2906 
L 4684 2381 
L 678 2381 
L 678 2906 
z
M 678 1631 
L 4684 1631 
L 4684 1100 
L 678 1100 
L 678 1631 
z
" transform="scale(0.015625)"/>
      <path id="DejaVuSans-2e" d="M 684 794 
L 1344 794 
L 1344 0 
L 684 0 
L 684 794 
z
" transform="scale(0.015625)"/>
      <path id="DejaVuSans-36" d="M 2113 2584 
Q 1688 2584 1439 2293 
Q 1191 2003 1191 1497 
Q 1191 994 1439 701 
Q 1688 409 2113 409 
Q 2538 409 2786 701 
Q 3034 994 3034 1497 
Q 3034 2003 2786 2293 
Q 2538 2584 2113 2584 
z
M 3366 4563 
L 3366 3988 
Q 3128 4100 2886 4159 
Q 2644 4219 2406 4219 
Q 1781 4219 1451 3797 
Q 1122 3375 1075 2522 
Q 1259 2794 1537 2939 
Q 1816 3084 2150 3084 
Q 2853 3084 3261 2657 
Q 3669 2231 3669 1497 
Q 3669 778 3244 343 
Q 2819 -91 2113 -91 
Q 1303 -91 875 529 
Q 447 1150 447 2328 
Q 447 3434 972 4092 
Q 1497 4750 2381 4750 
Q 2619 4750 2861 4703 
Q 3103 4656 3366 4563 
z
" transform="scale(0.015625)"/>
      <path id="DejaVuSans-38" d="M 2034 2216 
Q 1584 2216 1326 1975 
Q 1069 1734 1069 1313 
Q 1069 891 1326 650 
Q 1584 409 2034 409 
Q 2484 409 2743 651 
Q 3003 894 3003 1313 
Q 3003 1734 2745 1975 
Q 2488 2216 2034 2216 
z
M 1403 2484 
Q 997 2584 770 2862 
Q 544 3141 544 3541 
Q 544 4100 942 4425 
Q 1341 4750 2034 4750 
Q 2731 4750 3128 4425 
Q 3525 4100 3525 3541 
Q 3525 3141 3298 2862 
Q 3072 2584 2669 2484 
Q 3125 2378 3379 2068 
Q 3634 1759 3634 1313 
Q 3634 634 3220 271 
Q 2806 -91 2034 -91 
Q 1263 -91 848 271 
Q 434 634 434 1313 
Q 434 1759 690 2068 
Q 947 2378 1403 2484 
z
M 1172 3481 
Q 1172 3119 1398 2916 
Q 1625 2713 2034 2713 
Q 2441 2713 2670 2916 
Q 2900 3119 2900 3481 
Q 2900 3844 2670 4047 
Q 2441 4250 2034 4250 
Q 1625 4250 1398 4047 
Q 1172 3844 1172 3481 
z
" transform="scale(0.015625)"/>
     </defs>
     <use xlink:href="#DejaVuSans-41"/>
     <use xlink:href="#DejaVuSans-52" x="68.408203"/>
     <use xlink:href="#DejaVuSans-49" x="137.890625"/>
     <use xlink:href="#DejaVuSans-4d" x="167.382812"/>
     <use xlink:href="#DejaVuSans-41" x="253.662109"/>
     <use xlink:href="#DejaVuSans-20" x="322.070312"/>
     <use xlink:href="#DejaVuSans-28" x="353.857422"/>
     <use xlink:href="#DejaVuSans-34" x="392.871094"/>
     <use xlink:href="#DejaVuSans-2c" x="456.494141"/>
     <use xlink:href="#DejaVuSans-20" x="488.28125"/>
     <use xlink:href="#DejaVuSans-31" x="520.068359"/>
     <use xlink:href="#DejaVuSans-2c" x="583.691406"/>
     <use xlink:href="#DejaVuSans-20" x="615.478516"/>
     <use xlink:href="#DejaVuSans-31" x="647.265625"/>
     <use xlink:href="#DejaVuSans-29" x="710.888672"/>
     <use xlink:href="#DejaVuSans-78" x="749.902344"/>
     <use xlink:href="#DejaVuSans-28" x="809.082031"/>
     <use xlink:href="#DejaVuSans-31" x="848.095703"/>
     <use xlink:href="#DejaVuSans-2c" x="911.71875"/>
     <use xlink:href="#DejaVuSans-20" x="943.505859"/>
     <use xlink:href="#DejaVuSans-30" x="975.292969"/>
     <use xlink:href="#DejaVuSans-2c" x="1038.916016"/>
     <use xlink:href="#DejaVuSans-20" x="1070.703125"/>
     <use xlink:href="#DejaVuSans-31" x="1102.490234"/>
     <use xlink:href="#DejaVuSans-2c" x="1166.113281"/>
     <use xlink:href="#DejaVuSans-20" x="1197.900391"/>
     <use xlink:href="#DejaVuSans-37" x="1229.6875"/>
     <use xlink:href="#DejaVuSans-29" x="1293.310547"/>
     <use xlink:href="#DejaVuSans-20" x="1332.324219"/>
     <use xlink:href="#DejaVuSans-28" x="1364.111328"/>
     <use xlink:href="#DejaVuSans-52" x="1403.125"/>
     <use xlink:href="#DejaVuSans-32" x="1472.607422"/>
     <use xlink:href="#DejaVuSans-20" x="1536.230469"/>
     <use xlink:href="#DejaVuSans-3d" x="1568.017578"/>
     <use xlink:href="#DejaVuSans-20" x="1651.806641"/>
     <use xlink:href="#DejaVuSans-30" x="1683.59375"/>
     <use xlink:href="#DejaVuSans-2e" x="1747.216797"/>
     <use xlink:href="#DejaVuSans-31" x="1779.003906"/>
     <use xlink:href="#DejaVuSans-36" x="1842.626953"/>
     <use xlink:href="#DejaVuSans-37" x="1906.25"/>
     <use xlink:href="#DejaVuSans-38" x="1969.873047"/>
     <use xlink:href="#DejaVuSans-34" x="2033.496094"/>
     <use xlink:href="#DejaVuSans-33" x="2097.119141"/>
     <use xlink:href="#DejaVuSans-29" x="2160.742188"/>
    </g>
   </g>
   <g id="legend_1">
    <g id="patch_7">
     <path d="M 1281.132812 87.789875 
L 1378.2125 87.789875 
Q 1380.2125 87.789875 1380.2125 85.789875 
L 1380.2125 42.7555 
Q 1380.2125 40.7555 1378.2125 40.7555 
L 1281.132812 40.7555 
Q 1279.132812 40.7555 1279.132812 42.7555 
L 1279.132812 85.789875 
Q 1279.132812 87.789875 1281.132812 87.789875 
z
" style="fill: #ffffff; opacity: 0.8; stroke: #cccccc; stroke-linejoin: miter"/>
    </g>
    <g id="line2d_20">
     <path d="M 1283.132812 48.853937 
L 1293.132812 48.853937 
L 1303.132812 48.853937 
" style="fill: none; stroke: #0000ff; stroke-width: 1.5; stroke-linecap: square"/>
    </g>
    <g id="text_18">
     <!-- Actual Value -->
     <g transform="translate(1311.132812 52.353937)scale(0.1 -0.1)">
      <defs>
       <path id="DejaVuSans-75" d="M 544 1381 
L 544 3500 
L 1119 3500 
L 1119 1403 
Q 1119 906 1312 657 
Q 1506 409 1894 409 
Q 2359 409 2629 706 
Q 2900 1003 2900 1516 
L 2900 3500 
L 3475 3500 
L 3475 0 
L 2900 0 
L 2900 538 
Q 2691 219 2414 64 
Q 2138 -91 1772 -91 
Q 1169 -91 856 284 
Q 544 659 544 1381 
z
M 1991 3584 
L 1991 3584 
z
" transform="scale(0.015625)"/>
       <path id="DejaVuSans-56" d="M 1831 0 
L 50 4666 
L 709 4666 
L 2188 738 
L 3669 4666 
L 4325 4666 
L 2547 0 
L 1831 0 
z
" transform="scale(0.015625)"/>
      </defs>
      <use xlink:href="#DejaVuSans-41"/>
      <use xlink:href="#DejaVuSans-63" x="66.658203"/>
      <use xlink:href="#DejaVuSans-74" x="121.638672"/>
      <use xlink:href="#DejaVuSans-75" x="160.847656"/>
      <use xlink:href="#DejaVuSans-61" x="224.226562"/>
      <use xlink:href="#DejaVuSans-6c" x="285.505859"/>
      <use xlink:href="#DejaVuSans-20" x="313.289062"/>
      <use xlink:href="#DejaVuSans-56" x="345.076172"/>
      <use xlink:href="#DejaVuSans-61" x="405.734375"/>
      <use xlink:href="#DejaVuSans-6c" x="467.013672"/>
      <use xlink:href="#DejaVuSans-75" x="494.796875"/>
      <use xlink:href="#DejaVuSans-65" x="558.175781"/>
     </g>
    </g>
    <g id="line2d_21">
     <path d="M 1283.132812 63.532062 
L 1293.132812 63.532062 
L 1303.132812 63.532062 
" style="fill: none; stroke: #ffa500; stroke-width: 1.5; stroke-linecap: square"/>
    </g>
    <g id="text_19">
     <!-- Check Value -->
     <g transform="translate(1311.132812 67.032062)scale(0.1 -0.1)">
      <defs>
       <path id="DejaVuSans-6b" d="M 581 4863 
L 1159 4863 
L 1159 1991 
L 2875 3500 
L 3609 3500 
L 1753 1863 
L 3688 0 
L 2938 0 
L 1159 1709 
L 1159 0 
L 581 0 
L 581 4863 
z
" transform="scale(0.015625)"/>
      </defs>
      <use xlink:href="#DejaVuSans-43"/>
      <use xlink:href="#DejaVuSans-68" x="69.824219"/>
      <use xlink:href="#DejaVuSans-65" x="133.203125"/>
      <use xlink:href="#DejaVuSans-63" x="194.726562"/>
      <use xlink:href="#DejaVuSans-6b" x="249.707031"/>
      <use xlink:href="#DejaVuSans-20" x="307.617188"/>
      <use xlink:href="#DejaVuSans-56" x="339.404297"/>
      <use xlink:href="#DejaVuSans-61" x="400.0625"/>
      <use xlink:href="#DejaVuSans-6c" x="461.341797"/>
      <use xlink:href="#DejaVuSans-75" x="489.125"/>
      <use xlink:href="#DejaVuSans-65" x="552.503906"/>
     </g>
    </g>
    <g id="line2d_22">
     <path d="M 1283.132812 78.210187 
L 1293.132812 78.210187 
L 1303.132812 78.210187 
" style="fill: none; stroke: #ff0000; stroke-width: 1.5; stroke-linecap: square"/>
    </g>
    <g id="text_20">
     <!-- Predict Value -->
     <g transform="translate(1311.132812 81.710187)scale(0.1 -0.1)">
      <defs>
       <path id="DejaVuSans-50" d="M 1259 4147 
L 1259 2394 
L 2053 2394 
Q 2494 2394 2734 2622 
Q 2975 2850 2975 3272 
Q 2975 3691 2734 3919 
Q 2494 4147 2053 4147 
L 1259 4147 
z
M 628 4666 
L 2053 4666 
Q 2838 4666 3239 4311 
Q 3641 3956 3641 3272 
Q 3641 2581 3239 2228 
Q 2838 1875 2053 1875 
L 1259 1875 
L 1259 0 
L 628 0 
L 628 4666 
z
" transform="scale(0.015625)"/>
      </defs>
      <use xlink:href="#DejaVuSans-50"/>
      <use xlink:href="#DejaVuSans-72" x="58.552734"/>
      <use xlink:href="#DejaVuSans-65" x="97.416016"/>
      <use xlink:href="#DejaVuSans-64" x="158.939453"/>
      <use xlink:href="#DejaVuSans-69" x="222.416016"/>
      <use xlink:href="#DejaVuSans-63" x="250.199219"/>
      <use xlink:href="#DejaVuSans-74" x="305.179688"/>
      <use xlink:href="#DejaVuSans-20" x="344.388672"/>
      <use xlink:href="#DejaVuSans-56" x="376.175781"/>
      <use xlink:href="#DejaVuSans-61" x="436.833984"/>
      <use xlink:href="#DejaVuSans-6c" x="498.113281"/>
      <use xlink:href="#DejaVuSans-75" x="525.896484"/>
      <use xlink:href="#DejaVuSans-65" x="589.275391"/>
     </g>
    </g>
   </g>
  </g>
 </g>
 <defs>
  <clipPath id="p0bdf820eab">
   <rect x="46.0125" y="35.7555" width="1339.2" height="332.64"/>
  </clipPath>
 </defs>
</svg>
