<?xml version="1.0" encoding="utf-8" standalone="no"?>
<!DOCTYPE svg PUBLIC "-//W3C//DTD SVG 1.1//EN"
  "http://www.w3.org/Graphics/SVG/1.1/DTD/svg11.dtd">
<svg xmlns:xlink="http://www.w3.org/1999/xlink" width="1392.4125pt" height="392.273625pt" viewBox="0 0 1392.4125 392.273625" xmlns="http://www.w3.org/2000/svg" version="1.1">
 <metadata>
  <rdf:RDF xmlns:dc="http://purl.org/dc/elements/1.1/" xmlns:cc="http://creativecommons.org/ns#" xmlns:rdf="http://www.w3.org/1999/02/22-rdf-syntax-ns#">
   <cc:Work>
    <dc:type rdf:resource="http://purl.org/dc/dcmitype/StillImage"/>
    <dc:date>2022-07-04T17:32:20.202940</dc:date>
    <dc:format>image/svg+xml</dc:format>
    <dc:creator>
     <cc:Agent>
      <dc:title>Matplotlib v3.5.2, https://matplotlib.org/</dc:title>
     </cc:Agent>
    </dc:creator>
   </cc:Work>
  </rdf:RDF>
 </metadata>
 <defs>
  <style type="text/css">*{stroke-linejoin: round; stroke-linecap: butt}</style>
 </defs>
 <g id="figure_1">
  <g id="patch_1">
   <path d="M 0 392.273625 
L 1392.4125 392.273625 
L 1392.4125 0 
L 0 0 
z
" style="fill: #ffffff"/>
  </g>
  <g id="axes_1">
   <g id="patch_2">
    <path d="M 46.0125 368.3955 
L 1385.2125 368.3955 
L 1385.2125 35.7555 
L 46.0125 35.7555 
z
" style="fill: #ffffff"/>
   </g>
   <g id="matplotlib.axis_1">
    <g id="xtick_1">
     <g id="line2d_1">
      <defs>
       <path id="m98b99a66f2" d="M 0 0 
L 0 3.5 
" style="stroke: #000000; stroke-width: 0.8"/>
      </defs>
      <g>
       <use xlink:href="#m98b99a66f2" x="77.289647" y="368.3955" style="stroke: #000000; stroke-width: 0.8"/>
      </g>
     </g>
     <g id="text_1">
      <!-- 2020-01 -->
      <g transform="translate(56.398241 382.993937)scale(0.1 -0.1)">
       <defs>
        <path id="DejaVuSans-32" d="M 1228 531 
L 3431 531 
L 3431 0 
L 469 0 
L 469 531 
Q 828 903 1448 1529 
Q 2069 2156 2228 2338 
Q 2531 2678 2651 2914 
Q 2772 3150 2772 3378 
Q 2772 3750 2511 3984 
Q 2250 4219 1831 4219 
Q 1534 4219 1204 4116 
Q 875 4013 500 3803 
L 500 4441 
Q 881 4594 1212 4672 
Q 1544 4750 1819 4750 
Q 2544 4750 2975 4387 
Q 3406 4025 3406 3419 
Q 3406 3131 3298 2873 
Q 3191 2616 2906 2266 
Q 2828 2175 2409 1742 
Q 1991 1309 1228 531 
z
" transform="scale(0.015625)"/>
        <path id="DejaVuSans-30" d="M 2034 4250 
Q 1547 4250 1301 3770 
Q 1056 3291 1056 2328 
Q 1056 1369 1301 889 
Q 1547 409 2034 409 
Q 2525 409 2770 889 
Q 3016 1369 3016 2328 
Q 3016 3291 2770 3770 
Q 2525 4250 2034 4250 
z
M 2034 4750 
Q 2819 4750 3233 4129 
Q 3647 3509 3647 2328 
Q 3647 1150 3233 529 
Q 2819 -91 2034 -91 
Q 1250 -91 836 529 
Q 422 1150 422 2328 
Q 422 3509 836 4129 
Q 1250 4750 2034 4750 
z
" transform="scale(0.015625)"/>
        <path id="DejaVuSans-2d" d="M 313 2009 
L 1997 2009 
L 1997 1497 
L 313 1497 
L 313 2009 
z
" transform="scale(0.015625)"/>
        <path id="DejaVuSans-31" d="M 794 531 
L 1825 531 
L 1825 4091 
L 703 3866 
L 703 4441 
L 1819 4666 
L 2450 4666 
L 2450 531 
L 3481 531 
L 3481 0 
L 794 0 
L 794 531 
z
" transform="scale(0.015625)"/>
       </defs>
       <use xlink:href="#DejaVuSans-32"/>
       <use xlink:href="#DejaVuSans-30" x="63.623047"/>
       <use xlink:href="#DejaVuSans-32" x="127.246094"/>
       <use xlink:href="#DejaVuSans-30" x="190.869141"/>
       <use xlink:href="#DejaVuSans-2d" x="254.492188"/>
       <use xlink:href="#DejaVuSans-30" x="290.576172"/>
       <use xlink:href="#DejaVuSans-31" x="354.199219"/>
      </g>
     </g>
    </g>
    <g id="xtick_2">
     <g id="line2d_2">
      <g>
       <use xlink:href="#m98b99a66f2" x="199.707729" y="368.3955" style="stroke: #000000; stroke-width: 0.8"/>
      </g>
     </g>
     <g id="text_2">
      <!-- 2020-04 -->
      <g transform="translate(178.816322 382.993937)scale(0.1 -0.1)">
       <defs>
        <path id="DejaVuSans-34" d="M 2419 4116 
L 825 1625 
L 2419 1625 
L 2419 4116 
z
M 2253 4666 
L 3047 4666 
L 3047 1625 
L 3713 1625 
L 3713 1100 
L 3047 1100 
L 3047 0 
L 2419 0 
L 2419 1100 
L 313 1100 
L 313 1709 
L 2253 4666 
z
" transform="scale(0.015625)"/>
       </defs>
       <use xlink:href="#DejaVuSans-32"/>
       <use xlink:href="#DejaVuSans-30" x="63.623047"/>
       <use xlink:href="#DejaVuSans-32" x="127.246094"/>
       <use xlink:href="#DejaVuSans-30" x="190.869141"/>
       <use xlink:href="#DejaVuSans-2d" x="254.492188"/>
       <use xlink:href="#DejaVuSans-30" x="290.576172"/>
       <use xlink:href="#DejaVuSans-34" x="354.199219"/>
      </g>
     </g>
    </g>
    <g id="xtick_3">
     <g id="line2d_3">
      <g>
       <use xlink:href="#m98b99a66f2" x="322.12581" y="368.3955" style="stroke: #000000; stroke-width: 0.8"/>
      </g>
     </g>
     <g id="text_3">
      <!-- 2020-07 -->
      <g transform="translate(301.234404 382.993937)scale(0.1 -0.1)">
       <defs>
        <path id="DejaVuSans-37" d="M 525 4666 
L 3525 4666 
L 3525 4397 
L 1831 0 
L 1172 0 
L 2766 4134 
L 525 4134 
L 525 4666 
z
" transform="scale(0.015625)"/>
       </defs>
       <use xlink:href="#DejaVuSans-32"/>
       <use xlink:href="#DejaVuSans-30" x="63.623047"/>
       <use xlink:href="#DejaVuSans-32" x="127.246094"/>
       <use xlink:href="#DejaVuSans-30" x="190.869141"/>
       <use xlink:href="#DejaVuSans-2d" x="254.492188"/>
       <use xlink:href="#DejaVuSans-30" x="290.576172"/>
       <use xlink:href="#DejaVuSans-37" x="354.199219"/>
      </g>
     </g>
    </g>
    <g id="xtick_4">
     <g id="line2d_4">
      <g>
       <use xlink:href="#m98b99a66f2" x="445.889145" y="368.3955" style="stroke: #000000; stroke-width: 0.8"/>
      </g>
     </g>
     <g id="text_4">
      <!-- 2020-10 -->
      <g transform="translate(424.997739 382.993937)scale(0.1 -0.1)">
       <use xlink:href="#DejaVuSans-32"/>
       <use xlink:href="#DejaVuSans-30" x="63.623047"/>
       <use xlink:href="#DejaVuSans-32" x="127.246094"/>
       <use xlink:href="#DejaVuSans-30" x="190.869141"/>
       <use xlink:href="#DejaVuSans-2d" x="254.492188"/>
       <use xlink:href="#DejaVuSans-31" x="290.576172"/>
       <use xlink:href="#DejaVuSans-30" x="354.199219"/>
      </g>
     </g>
    </g>
    <g id="xtick_5">
     <g id="line2d_5">
      <g>
       <use xlink:href="#m98b99a66f2" x="569.65248" y="368.3955" style="stroke: #000000; stroke-width: 0.8"/>
      </g>
     </g>
     <g id="text_5">
      <!-- 2021-01 -->
      <g transform="translate(548.761074 382.993937)scale(0.1 -0.1)">
       <use xlink:href="#DejaVuSans-32"/>
       <use xlink:href="#DejaVuSans-30" x="63.623047"/>
       <use xlink:href="#DejaVuSans-32" x="127.246094"/>
       <use xlink:href="#DejaVuSans-31" x="190.869141"/>
       <use xlink:href="#DejaVuSans-2d" x="254.492188"/>
       <use xlink:href="#DejaVuSans-30" x="290.576172"/>
       <use xlink:href="#DejaVuSans-31" x="354.199219"/>
      </g>
     </g>
    </g>
    <g id="xtick_6">
     <g id="line2d_6">
      <g>
       <use xlink:href="#m98b99a66f2" x="690.725308" y="368.3955" style="stroke: #000000; stroke-width: 0.8"/>
      </g>
     </g>
     <g id="text_6">
      <!-- 2021-04 -->
      <g transform="translate(669.833901 382.993937)scale(0.1 -0.1)">
       <use xlink:href="#DejaVuSans-32"/>
       <use xlink:href="#DejaVuSans-30" x="63.623047"/>
       <use xlink:href="#DejaVuSans-32" x="127.246094"/>
       <use xlink:href="#DejaVuSans-31" x="190.869141"/>
       <use xlink:href="#DejaVuSans-2d" x="254.492188"/>
       <use xlink:href="#DejaVuSans-30" x="290.576172"/>
       <use xlink:href="#DejaVuSans-34" x="354.199219"/>
      </g>
     </g>
    </g>
    <g id="xtick_7">
     <g id="line2d_7">
      <g>
       <use xlink:href="#m98b99a66f2" x="813.143389" y="368.3955" style="stroke: #000000; stroke-width: 0.8"/>
      </g>
     </g>
     <g id="text_7">
      <!-- 2021-07 -->
      <g transform="translate(792.251983 382.993937)scale(0.1 -0.1)">
       <use xlink:href="#DejaVuSans-32"/>
       <use xlink:href="#DejaVuSans-30" x="63.623047"/>
       <use xlink:href="#DejaVuSans-32" x="127.246094"/>
       <use xlink:href="#DejaVuSans-31" x="190.869141"/>
       <use xlink:href="#DejaVuSans-2d" x="254.492188"/>
       <use xlink:href="#DejaVuSans-30" x="290.576172"/>
       <use xlink:href="#DejaVuSans-37" x="354.199219"/>
      </g>
     </g>
    </g>
    <g id="xtick_8">
     <g id="line2d_8">
      <g>
       <use xlink:href="#m98b99a66f2" x="936.906724" y="368.3955" style="stroke: #000000; stroke-width: 0.8"/>
      </g>
     </g>
     <g id="text_8">
      <!-- 2021-10 -->
      <g transform="translate(916.015318 382.993937)scale(0.1 -0.1)">
       <use xlink:href="#DejaVuSans-32"/>
       <use xlink:href="#DejaVuSans-30" x="63.623047"/>
       <use xlink:href="#DejaVuSans-32" x="127.246094"/>
       <use xlink:href="#DejaVuSans-31" x="190.869141"/>
       <use xlink:href="#DejaVuSans-2d" x="254.492188"/>
       <use xlink:href="#DejaVuSans-31" x="290.576172"/>
       <use xlink:href="#DejaVuSans-30" x="354.199219"/>
      </g>
     </g>
    </g>
    <g id="xtick_9">
     <g id="line2d_9">
      <g>
       <use xlink:href="#m98b99a66f2" x="1060.670059" y="368.3955" style="stroke: #000000; stroke-width: 0.8"/>
      </g>
     </g>
     <g id="text_9">
      <!-- 2022-01 -->
      <g transform="translate(1039.778653 382.993937)scale(0.1 -0.1)">
       <use xlink:href="#DejaVuSans-32"/>
       <use xlink:href="#DejaVuSans-30" x="63.623047"/>
       <use xlink:href="#DejaVuSans-32" x="127.246094"/>
       <use xlink:href="#DejaVuSans-32" x="190.869141"/>
       <use xlink:href="#DejaVuSans-2d" x="254.492188"/>
       <use xlink:href="#DejaVuSans-30" x="290.576172"/>
       <use xlink:href="#DejaVuSans-31" x="354.199219"/>
      </g>
     </g>
    </g>
    <g id="xtick_10">
     <g id="line2d_10">
      <g>
       <use xlink:href="#m98b99a66f2" x="1181.742887" y="368.3955" style="stroke: #000000; stroke-width: 0.8"/>
      </g>
     </g>
     <g id="text_10">
      <!-- 2022-04 -->
      <g transform="translate(1160.85148 382.993937)scale(0.1 -0.1)">
       <use xlink:href="#DejaVuSans-32"/>
       <use xlink:href="#DejaVuSans-30" x="63.623047"/>
       <use xlink:href="#DejaVuSans-32" x="127.246094"/>
       <use xlink:href="#DejaVuSans-32" x="190.869141"/>
       <use xlink:href="#DejaVuSans-2d" x="254.492188"/>
       <use xlink:href="#DejaVuSans-30" x="290.576172"/>
       <use xlink:href="#DejaVuSans-34" x="354.199219"/>
      </g>
     </g>
    </g>
    <g id="xtick_11">
     <g id="line2d_11">
      <g>
       <use xlink:href="#m98b99a66f2" x="1304.160968" y="368.3955" style="stroke: #000000; stroke-width: 0.8"/>
      </g>
     </g>
     <g id="text_11">
      <!-- 2022-07 -->
      <g transform="translate(1283.269562 382.993937)scale(0.1 -0.1)">
       <use xlink:href="#DejaVuSans-32"/>
       <use xlink:href="#DejaVuSans-30" x="63.623047"/>
       <use xlink:href="#DejaVuSans-32" x="127.246094"/>
       <use xlink:href="#DejaVuSans-32" x="190.869141"/>
       <use xlink:href="#DejaVuSans-2d" x="254.492188"/>
       <use xlink:href="#DejaVuSans-30" x="290.576172"/>
       <use xlink:href="#DejaVuSans-37" x="354.199219"/>
      </g>
     </g>
    </g>
   </g>
   <g id="matplotlib.axis_2">
    <g id="ytick_1">
     <g id="line2d_12">
      <defs>
       <path id="m5bf754a4c9" d="M 0 0 
L -3.5 0 
" style="stroke: #000000; stroke-width: 0.8"/>
      </defs>
      <g>
       <use xlink:href="#m5bf754a4c9" x="46.0125" y="350.094023" style="stroke: #000000; stroke-width: 0.8"/>
      </g>
     </g>
     <g id="text_12">
      <!-- 0 -->
      <g transform="translate(32.65 353.893242)scale(0.1 -0.1)">
       <use xlink:href="#DejaVuSans-30"/>
      </g>
     </g>
    </g>
    <g id="ytick_2">
     <g id="line2d_13">
      <g>
       <use xlink:href="#m5bf754a4c9" x="46.0125" y="283.470732" style="stroke: #000000; stroke-width: 0.8"/>
      </g>
     </g>
     <g id="text_13">
      <!-- 5000 -->
      <g transform="translate(13.5625 287.269951)scale(0.1 -0.1)">
       <defs>
        <path id="DejaVuSans-35" d="M 691 4666 
L 3169 4666 
L 3169 4134 
L 1269 4134 
L 1269 2991 
Q 1406 3038 1543 3061 
Q 1681 3084 1819 3084 
Q 2600 3084 3056 2656 
Q 3513 2228 3513 1497 
Q 3513 744 3044 326 
Q 2575 -91 1722 -91 
Q 1428 -91 1123 -41 
Q 819 9 494 109 
L 494 744 
Q 775 591 1075 516 
Q 1375 441 1709 441 
Q 2250 441 2565 725 
Q 2881 1009 2881 1497 
Q 2881 1984 2565 2268 
Q 2250 2553 1709 2553 
Q 1456 2553 1204 2497 
Q 953 2441 691 2322 
L 691 4666 
z
" transform="scale(0.015625)"/>
       </defs>
       <use xlink:href="#DejaVuSans-35"/>
       <use xlink:href="#DejaVuSans-30" x="63.623047"/>
       <use xlink:href="#DejaVuSans-30" x="127.246094"/>
       <use xlink:href="#DejaVuSans-30" x="190.869141"/>
      </g>
     </g>
    </g>
    <g id="ytick_3">
     <g id="line2d_14">
      <g>
       <use xlink:href="#m5bf754a4c9" x="46.0125" y="216.847442" style="stroke: #000000; stroke-width: 0.8"/>
      </g>
     </g>
     <g id="text_14">
      <!-- 10000 -->
      <g transform="translate(7.2 220.64666)scale(0.1 -0.1)">
       <use xlink:href="#DejaVuSans-31"/>
       <use xlink:href="#DejaVuSans-30" x="63.623047"/>
       <use xlink:href="#DejaVuSans-30" x="127.246094"/>
       <use xlink:href="#DejaVuSans-30" x="190.869141"/>
       <use xlink:href="#DejaVuSans-30" x="254.492188"/>
      </g>
     </g>
    </g>
    <g id="ytick_4">
     <g id="line2d_15">
      <g>
       <use xlink:href="#m5bf754a4c9" x="46.0125" y="150.224151" style="stroke: #000000; stroke-width: 0.8"/>
      </g>
     </g>
     <g id="text_15">
      <!-- 15000 -->
      <g transform="translate(7.2 154.02337)scale(0.1 -0.1)">
       <use xlink:href="#DejaVuSans-31"/>
       <use xlink:href="#DejaVuSans-35" x="63.623047"/>
       <use xlink:href="#DejaVuSans-30" x="127.246094"/>
       <use xlink:href="#DejaVuSans-30" x="190.869141"/>
       <use xlink:href="#DejaVuSans-30" x="254.492188"/>
      </g>
     </g>
    </g>
    <g id="ytick_5">
     <g id="line2d_16">
      <g>
       <use xlink:href="#m5bf754a4c9" x="46.0125" y="83.60086" style="stroke: #000000; stroke-width: 0.8"/>
      </g>
     </g>
     <g id="text_16">
      <!-- 20000 -->
      <g transform="translate(7.2 87.400079)scale(0.1 -0.1)">
       <use xlink:href="#DejaVuSans-32"/>
       <use xlink:href="#DejaVuSans-30" x="63.623047"/>
       <use xlink:href="#DejaVuSans-30" x="127.246094"/>
       <use xlink:href="#DejaVuSans-30" x="190.869141"/>
       <use xlink:href="#DejaVuSans-30" x="254.492188"/>
      </g>
     </g>
    </g>
   </g>
   <g id="line2d_17">
    <path d="M 106.885227 350.094023 
L 178.18367 350.014075 
L 182.219431 349.880828 
L 183.564685 349.694283 
L 184.909938 349.294543 
L 186.255192 349.201271 
L 187.600446 349.534387 
L 188.945699 349.147972 
L 190.290953 349.334517 
L 191.636207 348.65496 
L 194.326714 348.974752 
L 195.671968 348.814856 
L 197.017221 348.921453 
L 198.362475 348.894804 
L 199.707729 348.281869 
L 201.052982 348.708258 
L 202.398236 347.68226 
L 203.743489 348.801531 
L 205.088743 347.65561 
L 206.433997 348.761557 
L 207.77925 347.735558 
L 209.124504 348.921453 
L 210.469758 346.669586 
L 211.815011 347.309169 
L 214.505519 348.241895 
L 215.850772 347.948753 
L 217.196026 348.161948 
L 218.54128 346.456391 
L 219.886533 346.576313 
L 221.231787 347.842156 
L 222.57704 347.68226 
L 223.922294 346.096625 
L 225.267548 346.922754 
L 227.958055 347.722234 
L 229.303309 346.642936 
L 230.648562 346.349794 
L 231.993816 346.30982 
L 233.33907 347.522364 
L 234.684323 347.65561 
L 236.029577 346.789508 
L 237.37483 347.069326 
L 238.720084 346.816157 
L 240.065338 344.804134 
L 241.410591 347.042676 
L 242.755845 348.641635 
L 244.101099 345.73686 
L 245.446352 345.696886 
L 246.791606 347.202572 
L 248.13686 346.602963 
L 249.482113 344.710861 
L 250.827367 346.256521 
L 252.172621 348.45509 
L 253.517874 347.788857 
L 254.863128 346.976053 
L 256.208381 347.668935 
L 257.553635 344.857432 
L 258.898889 345.856782 
L 260.244142 345.803483 
L 261.589396 347.788857 
L 262.93465 348.281869 
L 264.279903 346.469716 
L 266.970411 346.696235 
L 268.315664 344.724186 
L 269.660918 345.030653 
L 271.006172 346.696235 
L 272.351425 347.455741 
L 273.696679 346.456391 
L 275.041932 345.923405 
L 276.387186 345.723535 
L 277.73244 344.484342 
L 279.077693 344.284472 
L 280.422947 346.176573 
L 281.768201 347.042676 
L 283.113454 346.243197 
L 284.458708 346.349794 
L 285.803962 346.922754 
L 287.149215 347.309169 
L 288.494469 346.496365 
L 289.839723 347.016027 
L 291.184976 343.458343 
L 292.53023 345.363769 
L 293.875483 345.297146 
L 295.220737 350.094023 
L 296.565991 341.992631 
L 297.911244 346.669586 
L 299.256498 347.85548 
L 300.601752 346.323145 
L 301.947005 345.390419 
L 303.292259 343.578265 
L 304.637513 350.094023 
L 308.673273 350.094023 
L 310.018527 327.602 
L 311.363781 342.512292 
L 312.709034 343.085253 
L 314.054288 335.543496 
L 315.399542 342.765461 
L 316.744795 343.898057 
L 318.090049 345.283821 
L 319.435303 341.099879 
L 320.780556 341.033255 
L 322.12581 341.393021 
L 323.471064 338.50157 
L 324.816317 337.915285 
L 326.161571 336.902611 
L 327.506824 347.08265 
L 328.852078 345.33712 
L 330.197332 337.342325 
L 331.542585 341.113203 
L 332.887839 340.726788 
L 334.233093 336.3563 
L 335.578346 339.47427 
L 336.9236 338.52822 
L 338.268854 344.857432 
L 339.614107 338.608168 
L 340.959361 336.436248 
L 342.304615 333.704693 
L 343.649868 336.342976 
L 344.995122 336.542846 
L 346.340375 339.540894 
L 347.685629 333.424876 
L 349.030883 328.308207 
L 350.376136 329.480777 
L 351.72139 337.009209 
L 353.066644 329.680647 
L 354.411897 331.4928 
L 355.757151 334.464199 
L 357.102405 341.739462 
L 358.447658 332.718669 
L 359.792912 327.188936 
L 361.138165 326.442755 
L 362.483419 334.530822 
L 363.828673 334.983861 
L 365.173926 341.139853 
L 366.51918 342.472318 
L 367.864434 335.78334 
L 369.209687 333.504824 
L 370.554941 337.35565 
L 371.900195 336.289677 
L 373.245448 333.971187 
L 374.590702 343.071928 
L 375.935956 343.751486 
L 377.281209 341.512943 
L 378.626463 335.690067 
L 379.971716 341.939332 
L 381.31697 337.515546 
L 382.662224 339.10118 
L 384.007477 345.017328 
L 385.352731 346.416417 
L 388.043238 332.132384 
L 389.388492 338.181779 
L 390.733746 338.448272 
L 392.078999 337.502221 
L 393.424253 341.752787 
L 394.769507 343.285123 
L 396.11476 339.420972 
L 397.460014 338.048532 
L 398.805267 342.299098 
L 400.150521 342.112553 
L 401.495775 340.300399 
L 402.841028 341.472969 
L 404.186282 346.443067 
L 405.531536 341.64619 
L 406.876789 339.687465 
L 408.222043 340.087205 
L 409.567297 339.127829 
L 410.91255 342.912032 
L 412.257804 344.630913 
L 413.603058 346.869456 
L 414.948311 346.776183 
L 416.293565 344.417719 
L 417.638818 343.205175 
L 418.984072 338.72809 
L 420.329326 344.16455 
L 421.674579 346.70956 
L 423.019833 348.175272 
L 424.365087 343.365071 
L 425.71034 340.620191 
L 427.055594 340.753438 
L 428.400848 343.471668 
L 429.746101 341.366372 
L 431.091355 346.403093 
L 432.436608 347.535689 
L 433.781862 343.898057 
L 435.127116 342.738812 
L 436.472369 340.27375 
L 437.817623 340.47362 
L 439.162877 341.499618 
L 440.50813 347.668935 
L 441.853384 347.562338 
L 443.198638 342.245799 
L 444.543891 342.738812 
L 445.889145 340.820061 
L 447.234399 341.139853 
L 448.579652 341.979306 
L 449.924906 345.816808 
L 451.270159 347.229221 
L 452.615413 337.102481 
L 453.960667 342.59224 
L 455.30592 342.392371 
L 456.651174 338.608168 
L 457.996428 337.342325 
L 459.341681 346.176573 
L 460.686935 346.149924 
L 462.032189 340.593542 
L 463.377442 338.421622 
L 464.722696 332.478825 
L 466.06795 335.223704 
L 467.413203 340.087205 
L 468.758457 350.094023 
L 470.10371 342.285773 
L 471.448964 340.367023 
L 472.794218 339.420972 
L 474.139471 337.329 
L 475.484725 339.50092 
L 476.829979 333.944537 
L 478.175232 350.094023 
L 479.520486 341.099879 
L 480.86574 338.714765 
L 482.210993 336.769365 
L 483.556247 337.169105 
L 484.901501 340.113854 
L 486.246754 339.114505 
L 487.592008 345.563639 
L 488.937261 345.230523 
L 490.282515 341.512943 
L 491.627769 339.887335 
L 492.973022 328.614674 
L 494.318276 337.209079 
L 495.66353 336.3563 
L 497.008783 339.380998 
L 498.354037 343.218499 
L 499.699291 337.662117 
L 501.044544 333.358252 
L 502.389798 333.158382 
L 503.735051 332.705344 
L 505.080305 331.839241 
L 507.770812 342.245799 
L 509.116066 338.035207 
L 510.46132 328.867843 
L 511.806573 331.506125 
L 513.151827 328.268233 
L 514.497081 323.817797 
L 515.842334 339.714114 
L 517.187588 340.780087 
L 518.532842 341.233125 
L 519.878095 335.543496 
L 521.223349 326.82917 
L 522.568602 336.702742 
L 523.913856 329.400829 
L 525.25911 325.510029 
L 527.949617 334.890588 
L 529.294871 317.355338 
L 530.640124 321.206164 
L 531.985378 317.048871 
L 533.330632 324.217537 
L 534.675885 330.466802 
L 536.021139 333.26498 
L 537.366393 327.015715 
L 538.711646 313.504512 
L 540.0569 319.673828 
L 541.402153 319.087543 
L 542.747407 314.583809 
L 544.092661 330.107036 
L 545.437914 328.134986 
L 546.783168 320.713152 
L 548.128422 318.874349 
L 549.473675 319.966971 
L 550.818929 316.689105 
L 552.164183 327.442104 
L 553.509436 320.486633 
L 554.85469 334.544147 
L 556.199943 320.899697 
L 557.545197 314.996873 
L 558.890451 319.100868 
L 560.235704 329.74727 
L 561.580958 338.834687 
L 562.926212 331.905865 
L 564.271465 327.428779 
L 565.616719 324.204212 
L 566.961973 309.813581 
L 568.307226 313.371265 
L 569.65248 315.783028 
L 570.997734 324.897094 
L 572.342987 326.322833 
L 573.688241 328.561375 
L 575.033494 326.549352 
L 576.378748 312.904902 
L 577.724002 350.094023 
L 579.069255 277.741129 
L 580.414509 307.415143 
L 583.105016 333.744667 
L 584.45027 328.134986 
L 585.795524 324.217537 
L 587.140777 324.137589 
L 588.486031 318.887674 
L 589.831285 314.383939 
L 591.176538 328.694622 
L 592.521792 330.679996 
L 593.867045 334.197706 
L 595.212299 327.415455 
L 596.557553 319.580556 
L 597.902806 322.778474 
L 599.24806 325.363457 
L 600.593314 334.157732 
L 601.938567 337.742065 
L 603.283821 330.746619 
L 604.629075 322.458682 
L 605.974328 326.05634 
L 607.319582 320.96632 
L 608.664836 329.733945 
L 610.010089 339.287725 
L 611.355343 340.700139 
L 612.700596 339.10118 
L 614.04585 339.554218 
L 615.391104 333.971187 
L 616.736357 333.971187 
L 618.081611 336.289677 
L 619.426865 338.101831 
L 620.772118 341.632865 
L 622.117372 341.353047 
L 624.807879 337.955259 
L 626.153133 336.982559 
L 627.498386 340.833386 
L 628.84364 335.530172 
L 630.188894 342.845409 
L 631.534147 340.313724 
L 632.879401 340.979957 
L 634.224655 348.308519 
L 635.569908 345.297146 
L 636.915162 345.430393 
L 638.260416 344.897406 
L 639.605669 346.869456 
L 640.950923 345.457042 
L 642.296177 341.179827 
L 643.64143 337.835337 
L 646.331937 342.778786 
L 647.677191 340.713464 
L 649.022445 347.442416 
L 650.367698 346.083301 
L 651.712952 345.030653 
L 653.058206 343.711512 
L 654.403459 342.21915 
L 655.748713 342.41902 
L 657.093967 346.629612 
L 658.43922 349.161297 
L 659.784474 345.33712 
L 661.129728 344.271147 
L 662.474981 341.04658 
L 663.820235 339.927309 
L 665.165488 340.900009 
L 666.510742 347.389117 
L 667.855996 348.748232 
L 669.201249 345.177224 
L 670.546503 345.403743 
L 671.891757 345.803483 
L 673.23701 344.870757 
L 674.582264 345.283821 
L 675.927518 347.962078 
L 677.272771 348.82818 
L 678.618025 346.016678 
L 679.963279 344.93738 
L 681.308532 345.870106 
L 683.999039 347.295845 
L 685.344293 347.48239 
L 686.689547 349.041375 
L 688.0348 347.922104 
L 689.380054 346.256521 
L 690.725308 346.483041 
L 693.415815 346.229872 
L 694.761069 348.801531 
L 696.106322 349.161297 
L 697.451576 347.65561 
L 698.796829 346.496365 
L 700.142083 346.896105 
L 702.83259 346.922754 
L 704.177844 348.535038 
L 705.523098 349.161297 
L 706.868351 345.870106 
L 708.213605 346.429742 
L 709.558859 344.630913 
L 710.904112 347.215897 
L 712.249366 346.203223 
L 713.59462 348.002052 
L 714.939873 349.601011 
L 716.285127 345.270497 
L 717.63038 346.989378 
L 718.975634 345.843457 
L 720.320888 347.269195 
L 721.666141 350.094023 
L 723.011395 350.094023 
L 724.356649 341.592891 
L 725.701902 347.802182 
L 727.047156 345.643587 
L 728.39241 347.948753 
L 729.737663 346.816157 
L 731.082917 350.094023 
L 732.428171 350.094023 
L 733.773424 343.431694 
L 735.118678 347.322494 
L 736.463931 348.708258 
L 737.809185 347.242546 
L 739.154439 346.896105 
L 740.499692 350.094023 
L 741.844946 350.094023 
L 743.1902 343.311772 
L 744.535453 346.536339 
L 745.880707 347.362468 
L 747.225961 345.270497 
L 748.571214 347.415767 
L 749.916468 350.094023 
L 751.261721 350.094023 
L 753.952229 341.992631 
L 755.297482 346.669586 
L 756.642736 346.416417 
L 757.98799 348.694934 
L 759.333243 350.094023 
L 760.678497 350.094023 
L 762.023751 343.671538 
L 763.369004 348.002052 
L 764.714258 348.042026 
L 766.059512 347.28252 
L 767.404765 348.348493 
L 768.750019 350.094023 
L 770.095272 350.094023 
L 771.440526 346.016678 
L 772.78578 349.534387 
L 774.131033 348.748232 
L 775.476287 347.535689 
L 776.821541 348.215246 
L 778.166794 350.094023 
L 779.512048 350.094023 
L 780.857302 345.670236 
L 782.202555 349.334517 
L 783.547809 348.668285 
L 784.893063 347.509039 
L 786.238316 346.949404 
L 787.58357 350.094023 
L 788.928823 350.094023 
L 790.274077 346.549664 
L 791.619331 349.467764 
L 792.964584 348.988076 
L 794.309838 347.522364 
L 795.655092 346.842806 
L 797.000345 350.094023 
L 798.345599 350.094023 
L 799.690853 347.975402 
L 801.036106 349.201271 
L 802.38136 348.521713 
L 803.726614 346.069976 
L 805.071867 346.856131 
L 806.417121 350.094023 
L 807.762374 350.094023 
L 809.107628 346.083301 
L 810.452882 346.496365 
L 811.798135 345.350445 
L 813.143389 347.695584 
L 814.488643 346.869456 
L 815.833896 350.094023 
L 818.524404 350.094023 
L 819.869657 341.44632 
L 821.214911 345.043978 
L 822.560164 344.404394 
L 823.905418 344.550965 
L 825.250672 350.094023 
L 826.595925 350.094023 
L 827.941179 339.487595 
L 829.286433 347.175923 
L 830.631686 341.552917 
L 831.97694 342.672188 
L 833.322194 342.978655 
L 834.667447 350.094023 
L 836.012701 350.094023 
L 837.357955 319.100868 
L 838.703208 342.458994 
L 840.048462 337.289026 
L 841.393715 334.117758 
L 842.738969 332.545448 
L 844.084223 350.094023 
L 845.429476 350.094023 
L 846.77473 302.018656 
L 848.119984 332.891889 
L 849.465237 325.110289 
L 850.810491 324.670575 
L 852.155745 328.20161 
L 853.500998 350.094023 
L 854.846252 350.094023 
L 856.191506 283.590654 
L 857.536759 329.121011 
L 858.882013 312.505162 
L 860.227266 307.934805 
L 861.57252 322.192189 
L 862.917774 350.094023 
L 864.263027 350.094023 
L 865.608281 257.993986 
L 866.953535 303.617615 
L 868.298788 307.948129 
L 869.644042 291.305631 
L 870.989296 283.164265 
L 872.334549 350.094023 
L 873.679803 350.094023 
L 875.025057 245.642028 
L 876.37031 305.816184 
L 879.060817 286.042391 
L 880.406071 282.831149 
L 881.751325 350.094023 
L 883.096578 350.094023 
L 884.441832 253.503576 
L 885.787086 306.242573 
L 887.132339 304.990055 
L 888.477593 304.457069 
L 889.822847 296.249079 
L 891.1681 350.094023 
L 892.513354 350.094023 
L 893.858607 243.883173 
L 895.203861 335.290328 
L 896.549115 310.932853 
L 897.894368 298.794089 
L 899.239622 305.429769 
L 900.584876 350.094023 
L 901.930129 350.094023 
L 903.275383 273.064174 
L 904.620637 340.713464 
L 907.311144 308.281246 
L 908.656398 324.88377 
L 910.001651 350.094023 
L 911.346905 350.094023 
L 912.692158 299.953334 
L 914.037412 322.511981 
L 915.382666 318.741102 
L 916.727919 315.52986 
L 918.073173 319.167491 
L 919.418427 350.094023 
L 920.76368 350.094023 
L 922.108934 314.290667 
L 923.454188 327.855169 
L 924.799441 329.34753 
L 926.144695 322.498656 
L 927.489949 330.040412 
L 928.835202 350.094023 
L 930.180456 350.094023 
L 931.525709 326.469404 
L 932.870963 329.840543 
L 934.216217 335.463548 
L 935.56147 335.423574 
L 936.906724 339.141154 
L 938.251978 350.094023 
L 939.597231 350.094023 
L 940.942485 329.294232 
L 942.287739 337.475572 
L 943.632992 338.981258 
L 944.978246 335.277003 
L 946.323499 342.085903 
L 947.668753 350.094023 
L 949.014007 350.094023 
L 950.35926 336.223054 
L 951.704514 339.167803 
L 953.049768 340.513594 
L 954.395021 343.058603 
L 955.740275 344.617588 
L 957.085529 350.094023 
L 958.430782 350.094023 
L 959.776036 339.834036 
L 961.12129 333.06511 
L 962.466543 344.124576 
L 963.811797 344.457693 
L 965.15705 344.924056 
L 966.502304 350.094023 
L 967.847558 350.094023 
L 969.192811 342.698838 
L 970.538065 327.841844 
L 971.883319 345.510341 
L 973.228572 345.523665 
L 974.573826 345.976704 
L 975.91908 350.094023 
L 977.264333 350.094023 
L 978.609587 343.524966 
L 979.954841 344.031303 
L 981.300094 344.830783 
L 982.645348 345.017328 
L 983.990601 343.245149 
L 985.335855 350.094023 
L 986.681109 350.094023 
L 988.026362 342.632214 
L 989.371616 345.297146 
L 990.71687 346.10995 
L 992.062123 350.094023 
L 993.407377 340.84671 
L 994.752631 350.094023 
L 996.097884 350.094023 
L 997.443138 339.354348 
L 998.788392 344.204524 
L 1000.133645 347.095975 
L 1001.478899 345.030653 
L 1002.824152 344.417719 
L 1004.169406 350.094023 
L 1005.51466 350.094023 
L 1006.859913 334.277654 
L 1008.205167 346.562989 
L 1009.550421 344.337771 
L 1010.895674 350.094023 
L 1014.931435 350.094023 
L 1016.276689 336.902611 
L 1017.621942 342.778786 
L 1018.967196 343.858083 
L 1020.31245 342.512292 
L 1023.002957 350.094023 
L 1024.348211 350.094023 
L 1025.693464 337.009209 
L 1027.038718 341.406346 
L 1028.383972 339.607517 
L 1029.729225 340.167153 
L 1031.074479 344.16455 
L 1032.419733 350.094023 
L 1033.764986 350.094023 
L 1035.11024 340.287075 
L 1036.455493 344.657562 
L 1037.800747 342.432345 
L 1039.146001 340.633516 
L 1040.491254 337.955259 
L 1041.836508 350.094023 
L 1043.181762 350.094023 
L 1044.527015 330.986463 
L 1045.872269 340.233776 
L 1047.217523 338.461596 
L 1048.562776 350.094023 
L 1052.598537 350.094023 
L 1053.943791 256.048586 
L 1055.289044 314.144095 
L 1056.634298 302.205202 
L 1057.979552 285.003068 
L 1059.324805 350.094023 
L 1062.015313 350.094023 
L 1063.360566 116.579389 
L 1064.70582 285.602678 
L 1066.051074 262.257877 
L 1067.396327 255.768768 
L 1068.741581 259.832789 
L 1070.086835 350.094023 
L 1072.777342 350.094023 
L 1074.122595 54.006795 
L 1075.467849 240.778528 
L 1076.813103 238.75318 
L 1078.158356 226.174702 
L 1079.50361 350.094023 
L 1082.194117 350.094023 
L 1083.539371 50.8755 
L 1084.884625 237.367415 
L 1086.229878 239.112945 
L 1087.575132 250.039165 
L 1088.920385 350.094023 
L 1090.265639 350.094023 
L 1091.610893 180.724293 
L 1092.956146 284.683276 
L 1094.3014 262.204578 
L 1095.646654 263.017382 
L 1096.991907 276.36869 
L 1098.337161 350.094023 
L 1099.682415 350.094023 
L 1101.027668 220.151957 
L 1102.372922 293.477551 
L 1103.718176 270.945554 
L 1105.063429 264.603016 
L 1106.408683 245.642028 
L 1107.753936 350.094023 
L 1109.09919 350.094023 
L 1110.444444 128.971321 
L 1111.789697 322.578604 
L 1113.134951 319.154167 
L 1114.480205 327.961766 
L 1115.825458 320.619879 
L 1117.170712 350.094023 
L 1118.515966 350.094023 
L 1119.861219 287.214961 
L 1121.206473 333.398226 
L 1122.551727 335.943236 
L 1123.89698 342.272449 
L 1125.242234 334.23768 
L 1126.587487 350.094023 
L 1129.277995 350.094023 
L 1130.623248 325.203562 
L 1131.968502 342.872058 
L 1133.313756 342.885383 
L 1134.659009 342.405695 
L 1136.004263 350.094023 
L 1137.349517 350.094023 
L 1138.69477 338.315025 
L 1140.040024 347.056001 
L 1141.385277 344.124576 
L 1142.730531 345.163899 
L 1144.075785 347.135949 
L 1145.421038 350.094023 
L 1146.766292 350.094023 
L 1148.111546 341.979306 
L 1149.456799 348.108649 
L 1150.802053 347.922104 
L 1152.147307 347.962078 
L 1153.49256 346.483041 
L 1154.837814 350.094023 
L 1156.183068 350.094023 
L 1157.528321 344.897406 
L 1158.873575 348.05535 
L 1160.218828 348.788206 
L 1161.564082 349.068024 
L 1162.909336 348.601661 
L 1164.254589 350.094023 
L 1165.599843 350.094023 
L 1166.945097 346.829482 
L 1168.29035 348.681609 
L 1169.635604 348.375142 
L 1170.980858 348.894804 
L 1172.326111 348.321843 
L 1173.671365 350.094023 
L 1175.016619 350.094023 
L 1176.361872 348.335168 
L 1177.707126 349.201271 
L 1179.052379 348.295194 
L 1180.397633 348.348493 
L 1181.742887 347.922104 
L 1183.08814 350.094023 
L 1184.433394 350.094023 
L 1185.778648 344.191199 
L 1187.123901 348.308519 
L 1188.469155 348.628311 
L 1189.814409 347.362468 
L 1191.159662 347.28252 
L 1192.504916 350.094023 
L 1195.195423 350.094023 
L 1196.540677 347.442416 
L 1197.88593 348.548363 
L 1199.231184 348.45509 
L 1200.576438 348.948102 
L 1201.921691 350.094023 
L 1203.266945 350.094023 
L 1204.612199 348.121974 
L 1205.957452 349.42779 
L 1207.302706 348.774882 
L 1208.64796 348.82818 
L 1209.993213 348.761557 
L 1211.338467 350.094023 
L 1214.028974 350.094023 
L 1215.374228 345.816808 
L 1216.719481 348.921453 
L 1218.064735 347.908779 
L 1219.409989 347.935428 
L 1220.755242 350.094023 
L 1222.100496 350.094023 
L 1223.44575 345.470367 
L 1224.791003 348.188597 
L 1226.136257 347.189247 
L 1227.481511 347.642286 
L 1228.826764 346.70956 
L 1230.172018 350.094023 
L 1231.517271 350.094023 
L 1232.862525 338.275051 
L 1234.207779 346.536339 
L 1235.553032 345.217198 
L 1236.898286 342.299098 
L 1238.24354 340.753438 
L 1239.588793 350.094023 
L 1240.934047 350.094023 
L 1242.279301 337.368974 
L 1243.624554 345.93673 
L 1244.969808 343.205175 
L 1246.315062 344.071277 
L 1247.660315 345.297146 
L 1249.005569 350.094023 
L 1250.350822 350.094023 
L 1251.696076 337.875311 
L 1253.04133 346.696235 
L 1254.386583 343.365071 
L 1255.731837 343.365071 
L 1257.077091 342.99198 
L 1258.422344 350.094023 
L 1261.112852 350.094023 
L 1262.458105 330.107036 
L 1263.803359 342.765461 
L 1265.148613 337.808688 
L 1266.493866 341.113203 
L 1267.83912 350.094023 
L 1269.184373 350.094023 
L 1270.529627 332.119059 
L 1271.874881 341.179827 
L 1273.220134 338.794713 
L 1274.565388 339.380998 
L 1275.910642 339.10118 
L 1277.255895 350.094023 
L 1278.601149 350.094023 
L 1279.946403 328.867843 
L 1281.291656 338.394973 
L 1282.63691 335.436899 
L 1283.982163 337.395624 
L 1285.327417 334.690718 
L 1286.672671 350.094023 
L 1289.363178 350.094023 
L 1290.708432 303.964056 
L 1292.053685 332.518799 
L 1293.398939 329.14766 
L 1294.744193 331.745969 
L 1296.089446 350.094023 
L 1297.4347 350.094023 
L 1298.779954 314.423913 
L 1300.125207 334.823965 
L 1301.470461 350.094023 
L 1302.815714 311.345917 
L 1304.160968 328.281558 
L 1305.506222 350.094023 
L 1306.851475 350.094023 
L 1306.851475 350.094023 
" clip-path="url(#p1c2b4a317d)" style="fill: none; stroke: #0000ff; stroke-width: 1.5; stroke-linecap: square"/>
   </g>
   <g id="line2d_18">
    <path d="M 1067.396327 309.399156 
L 1068.741581 313.217991 
L 1070.086835 300.998833 
L 1071.432088 153.220944 
L 1072.777342 246.557442 
L 1074.122595 285.231718 
L 1075.467849 265.5438 
L 1076.813103 264.370507 
L 1078.158356 304.131112 
L 1079.50361 296.565155 
L 1080.848864 337.482452 
L 1082.194117 105.233682 
L 1083.539371 253.002532 
L 1084.884625 248.197761 
L 1086.229878 238.952249 
L 1087.575132 301.375013 
L 1088.920385 298.86376 
L 1090.265639 290.325051 
L 1091.610893 164.109254 
L 1092.956146 234.950801 
L 1094.3014 252.787041 
L 1095.646654 255.523474 
L 1096.991907 320.377959 
L 1098.337161 318.937982 
L 1099.682415 203.895501 
L 1101.027668 320.857942 
L 1102.372922 286.727411 
L 1103.718176 286.04376 
L 1105.063429 292.535305 
L 1106.408683 328.883269 
L 1107.753936 319.414132 
L 1109.09919 257.99413 
L 1110.444444 293.319887 
L 1111.789697 270.66853 
L 1113.134951 266.23506 
L 1114.480205 240.73849 
L 1115.825458 312.57277 
L 1117.170712 324.556771 
L 1118.515966 192.308188 
L 1119.861219 321.747197 
L 1121.206473 333.728215 
L 1122.551727 344.260082 
L 1123.89698 350.690143 
L 1125.242234 353.2755 
L 1126.587487 350.710478 
L 1127.932741 343.337696 
L 1129.277995 338.587869 
L 1130.623248 343.312511 
L 1131.968502 344.000909 
L 1133.313756 339.100565 
L 1134.659009 347.45369 
L 1136.004263 348.091205 
L 1137.349517 349.992395 
L 1138.69477 335.080828 
L 1140.040024 344.162783 
L 1141.385277 345.211299 
L 1142.730531 345.420104 
L 1144.075785 349.291862 
L 1145.421038 349.068781 
L 1146.766292 340.32007 
L 1148.111546 351.104476 
L 1149.456799 346.404311 
L 1150.802053 346.793552 
L 1153.49256 349.452272 
L 1154.837814 349.40013 
L 1156.183068 346.121154 
L 1157.528321 347.596799 
L 1158.873575 348.779888 
L 1160.218828 348.656126 
L 1161.564082 347.164665 
L 1162.909336 349.333175 
L 1164.254589 349.462183 
L 1165.599843 346.804585 
L 1166.945097 348.84537 
L 1168.29035 349.043852 
L 1169.635604 349.362333 
L 1170.980858 349.319636 
L 1172.326111 349.79048 
L 1173.671365 349.56198 
L 1175.016619 347.978583 
L 1176.361872 348.766712 
L 1177.707126 348.584468 
L 1179.052379 349.010348 
L 1180.397633 348.633176 
L 1181.742887 349.744891 
L 1183.08814 349.560622 
L 1184.433394 348.690064 
L 1185.778648 349.568778 
L 1187.123901 348.526569 
L 1188.469155 348.274974 
L 1189.814409 347.789098 
L 1191.159662 348.985018 
L 1192.504916 348.858791 
L 1193.85017 344.889816 
L 1195.195423 347.350039 
L 1196.540677 348.604112 
L 1197.88593 347.862111 
L 1199.231184 348.168966 
L 1200.576438 349.644992 
L 1201.921691 349.702284 
L 1203.266945 350.85381 
L 1204.612199 348.611889 
L 1208.64796 349.237913 
L 1209.993213 349.769401 
L 1211.338467 349.640195 
L 1212.68372 347.939483 
L 1214.028974 349.394828 
L 1215.374228 349.467392 
L 1216.719481 349.036345 
L 1218.064735 349.046399 
L 1219.409989 349.453321 
L 1220.755242 349.294249 
L 1222.100496 349.690177 
L 1223.44575 346.727974 
L 1224.791003 348.422647 
L 1227.481511 347.602847 
L 1228.826764 349.175148 
L 1230.172018 348.810022 
L 1231.517271 345.442241 
L 1232.862525 349.122328 
L 1234.207779 347.106615 
L 1235.553032 347.420799 
L 1236.898286 346.310687 
L 1238.24354 348.1527 
L 1239.588793 347.054118 
L 1240.934047 339.241275 
L 1242.279301 344.650992 
L 1243.624554 344.084963 
L 1244.969808 342.339859 
L 1246.315062 340.877558 
L 1247.660315 346.869664 
L 1249.005569 347.113186 
L 1250.350822 340.565365 
L 1251.696076 346.26036 
L 1253.04133 344.188178 
L 1254.386583 345.622592 
L 1255.731837 346.502814 
L 1257.077091 348.381686 
L 1258.422344 347.605586 
L 1259.767598 340.706477 
L 1261.112852 344.910581 
L 1262.458105 346.159086 
L 1263.803359 344.242595 
L 1265.148613 344.325603 
L 1266.493866 346.633081 
L 1267.83912 345.987552 
L 1269.184373 347.514194 
L 1270.529627 334.242552 
L 1271.874881 341.151533 
L 1273.220134 339.054129 
L 1274.565388 339.807251 
L 1275.910642 346.095028 
L 1277.255895 345.212579 
L 1278.601149 332.275318 
L 1279.946403 343.817986 
L 1281.291656 340.035677 
L 1282.63691 341.241091 
L 1283.982163 339.557262 
L 1285.327417 345.440752 
L 1286.672671 344.067686 
L 1288.017924 332.605799 
L 1289.363178 335.422195 
L 1290.708432 340.729159 
L 1292.053685 338.451277 
L 1293.398939 337.357085 
L 1294.744193 342.362136 
L 1296.089446 341.102897 
L 1297.4347 343.997578 
L 1298.779954 314.705129 
L 1300.125207 329.647775 
L 1301.470461 328.112434 
L 1302.815714 332.465268 
L 1304.160968 343.741551 
L 1305.506222 343.378739 
L 1306.851475 315.547326 
L 1306.851475 315.547326 
" clip-path="url(#p1c2b4a317d)" style="fill: none; stroke: #ffa500; stroke-width: 1.5; stroke-linecap: square"/>
   </g>
   <g id="line2d_19">
    <path d="M 1306.851475 315.547326 
L 1308.196729 340.165663 
L 1309.541983 346.2186 
L 1310.887236 320.041481 
L 1312.23249 331.053888 
L 1313.577744 343.549357 
L 1314.922997 343.561815 
L 1316.268251 326.288818 
L 1317.613505 337.25607 
L 1318.958758 340.102983 
L 1320.304012 328.868037 
L 1321.649265 333.560018 
L 1322.994519 338.966461 
L 1324.339773 338.975155 
" clip-path="url(#p1c2b4a317d)" style="fill: none; stroke: #ff0000; stroke-width: 1.5; stroke-linecap: square"/>
   </g>
   <g id="patch_3">
    <path d="M 46.0125 368.3955 
L 46.0125 35.7555 
" style="fill: none; stroke: #000000; stroke-width: 0.8; stroke-linejoin: miter; stroke-linecap: square"/>
   </g>
   <g id="patch_4">
    <path d="M 1385.2125 368.3955 
L 1385.2125 35.7555 
" style="fill: none; stroke: #000000; stroke-width: 0.8; stroke-linejoin: miter; stroke-linecap: square"/>
   </g>
   <g id="patch_5">
    <path d="M 46.0125 368.3955 
L 1385.2125 368.3955 
" style="fill: none; stroke: #000000; stroke-width: 0.8; stroke-linejoin: miter; stroke-linecap: square"/>
   </g>
   <g id="patch_6">
    <path d="M 46.0125 35.7555 
L 1385.2125 35.7555 
" style="fill: none; stroke: #000000; stroke-width: 0.8; stroke-linejoin: miter; stroke-linecap: square"/>
   </g>
   <g id="text_17">
    <!-- Daily Confirmed Cases Forecasting - Mississippi -->
    <g transform="translate(573.147188 16.318125)scale(0.12 -0.12)">
     <defs>
      <path id="DejaVuSans-44" d="M 1259 4147 
L 1259 519 
L 2022 519 
Q 2988 519 3436 956 
Q 3884 1394 3884 2338 
Q 3884 3275 3436 3711 
Q 2988 4147 2022 4147 
L 1259 4147 
z
M 628 4666 
L 1925 4666 
Q 3281 4666 3915 4102 
Q 4550 3538 4550 2338 
Q 4550 1131 3912 565 
Q 3275 0 1925 0 
L 628 0 
L 628 4666 
z
" transform="scale(0.015625)"/>
      <path id="DejaVuSans-61" d="M 2194 1759 
Q 1497 1759 1228 1600 
Q 959 1441 959 1056 
Q 959 750 1161 570 
Q 1363 391 1709 391 
Q 2188 391 2477 730 
Q 2766 1069 2766 1631 
L 2766 1759 
L 2194 1759 
z
M 3341 1997 
L 3341 0 
L 2766 0 
L 2766 531 
Q 2569 213 2275 61 
Q 1981 -91 1556 -91 
Q 1019 -91 701 211 
Q 384 513 384 1019 
Q 384 1609 779 1909 
Q 1175 2209 1959 2209 
L 2766 2209 
L 2766 2266 
Q 2766 2663 2505 2880 
Q 2244 3097 1772 3097 
Q 1472 3097 1187 3025 
Q 903 2953 641 2809 
L 641 3341 
Q 956 3463 1253 3523 
Q 1550 3584 1831 3584 
Q 2591 3584 2966 3190 
Q 3341 2797 3341 1997 
z
" transform="scale(0.015625)"/>
      <path id="DejaVuSans-69" d="M 603 3500 
L 1178 3500 
L 1178 0 
L 603 0 
L 603 3500 
z
M 603 4863 
L 1178 4863 
L 1178 4134 
L 603 4134 
L 603 4863 
z
" transform="scale(0.015625)"/>
      <path id="DejaVuSans-6c" d="M 603 4863 
L 1178 4863 
L 1178 0 
L 603 0 
L 603 4863 
z
" transform="scale(0.015625)"/>
      <path id="DejaVuSans-79" d="M 2059 -325 
Q 1816 -950 1584 -1140 
Q 1353 -1331 966 -1331 
L 506 -1331 
L 506 -850 
L 844 -850 
Q 1081 -850 1212 -737 
Q 1344 -625 1503 -206 
L 1606 56 
L 191 3500 
L 800 3500 
L 1894 763 
L 2988 3500 
L 3597 3500 
L 2059 -325 
z
" transform="scale(0.015625)"/>
      <path id="DejaVuSans-20" transform="scale(0.015625)"/>
      <path id="DejaVuSans-43" d="M 4122 4306 
L 4122 3641 
Q 3803 3938 3442 4084 
Q 3081 4231 2675 4231 
Q 1875 4231 1450 3742 
Q 1025 3253 1025 2328 
Q 1025 1406 1450 917 
Q 1875 428 2675 428 
Q 3081 428 3442 575 
Q 3803 722 4122 1019 
L 4122 359 
Q 3791 134 3420 21 
Q 3050 -91 2638 -91 
Q 1578 -91 968 557 
Q 359 1206 359 2328 
Q 359 3453 968 4101 
Q 1578 4750 2638 4750 
Q 3056 4750 3426 4639 
Q 3797 4528 4122 4306 
z
" transform="scale(0.015625)"/>
      <path id="DejaVuSans-6f" d="M 1959 3097 
Q 1497 3097 1228 2736 
Q 959 2375 959 1747 
Q 959 1119 1226 758 
Q 1494 397 1959 397 
Q 2419 397 2687 759 
Q 2956 1122 2956 1747 
Q 2956 2369 2687 2733 
Q 2419 3097 1959 3097 
z
M 1959 3584 
Q 2709 3584 3137 3096 
Q 3566 2609 3566 1747 
Q 3566 888 3137 398 
Q 2709 -91 1959 -91 
Q 1206 -91 779 398 
Q 353 888 353 1747 
Q 353 2609 779 3096 
Q 1206 3584 1959 3584 
z
" transform="scale(0.015625)"/>
      <path id="DejaVuSans-6e" d="M 3513 2113 
L 3513 0 
L 2938 0 
L 2938 2094 
Q 2938 2591 2744 2837 
Q 2550 3084 2163 3084 
Q 1697 3084 1428 2787 
Q 1159 2491 1159 1978 
L 1159 0 
L 581 0 
L 581 3500 
L 1159 3500 
L 1159 2956 
Q 1366 3272 1645 3428 
Q 1925 3584 2291 3584 
Q 2894 3584 3203 3211 
Q 3513 2838 3513 2113 
z
" transform="scale(0.015625)"/>
      <path id="DejaVuSans-66" d="M 2375 4863 
L 2375 4384 
L 1825 4384 
Q 1516 4384 1395 4259 
Q 1275 4134 1275 3809 
L 1275 3500 
L 2222 3500 
L 2222 3053 
L 1275 3053 
L 1275 0 
L 697 0 
L 697 3053 
L 147 3053 
L 147 3500 
L 697 3500 
L 697 3744 
Q 697 4328 969 4595 
Q 1241 4863 1831 4863 
L 2375 4863 
z
" transform="scale(0.015625)"/>
      <path id="DejaVuSans-72" d="M 2631 2963 
Q 2534 3019 2420 3045 
Q 2306 3072 2169 3072 
Q 1681 3072 1420 2755 
Q 1159 2438 1159 1844 
L 1159 0 
L 581 0 
L 581 3500 
L 1159 3500 
L 1159 2956 
Q 1341 3275 1631 3429 
Q 1922 3584 2338 3584 
Q 2397 3584 2469 3576 
Q 2541 3569 2628 3553 
L 2631 2963 
z
" transform="scale(0.015625)"/>
      <path id="DejaVuSans-6d" d="M 3328 2828 
Q 3544 3216 3844 3400 
Q 4144 3584 4550 3584 
Q 5097 3584 5394 3201 
Q 5691 2819 5691 2113 
L 5691 0 
L 5113 0 
L 5113 2094 
Q 5113 2597 4934 2840 
Q 4756 3084 4391 3084 
Q 3944 3084 3684 2787 
Q 3425 2491 3425 1978 
L 3425 0 
L 2847 0 
L 2847 2094 
Q 2847 2600 2669 2842 
Q 2491 3084 2119 3084 
Q 1678 3084 1418 2786 
Q 1159 2488 1159 1978 
L 1159 0 
L 581 0 
L 581 3500 
L 1159 3500 
L 1159 2956 
Q 1356 3278 1631 3431 
Q 1906 3584 2284 3584 
Q 2666 3584 2933 3390 
Q 3200 3197 3328 2828 
z
" transform="scale(0.015625)"/>
      <path id="DejaVuSans-65" d="M 3597 1894 
L 3597 1613 
L 953 1613 
Q 991 1019 1311 708 
Q 1631 397 2203 397 
Q 2534 397 2845 478 
Q 3156 559 3463 722 
L 3463 178 
Q 3153 47 2828 -22 
Q 2503 -91 2169 -91 
Q 1331 -91 842 396 
Q 353 884 353 1716 
Q 353 2575 817 3079 
Q 1281 3584 2069 3584 
Q 2775 3584 3186 3129 
Q 3597 2675 3597 1894 
z
M 3022 2063 
Q 3016 2534 2758 2815 
Q 2500 3097 2075 3097 
Q 1594 3097 1305 2825 
Q 1016 2553 972 2059 
L 3022 2063 
z
" transform="scale(0.015625)"/>
      <path id="DejaVuSans-64" d="M 2906 2969 
L 2906 4863 
L 3481 4863 
L 3481 0 
L 2906 0 
L 2906 525 
Q 2725 213 2448 61 
Q 2172 -91 1784 -91 
Q 1150 -91 751 415 
Q 353 922 353 1747 
Q 353 2572 751 3078 
Q 1150 3584 1784 3584 
Q 2172 3584 2448 3432 
Q 2725 3281 2906 2969 
z
M 947 1747 
Q 947 1113 1208 752 
Q 1469 391 1925 391 
Q 2381 391 2643 752 
Q 2906 1113 2906 1747 
Q 2906 2381 2643 2742 
Q 2381 3103 1925 3103 
Q 1469 3103 1208 2742 
Q 947 2381 947 1747 
z
" transform="scale(0.015625)"/>
      <path id="DejaVuSans-73" d="M 2834 3397 
L 2834 2853 
Q 2591 2978 2328 3040 
Q 2066 3103 1784 3103 
Q 1356 3103 1142 2972 
Q 928 2841 928 2578 
Q 928 2378 1081 2264 
Q 1234 2150 1697 2047 
L 1894 2003 
Q 2506 1872 2764 1633 
Q 3022 1394 3022 966 
Q 3022 478 2636 193 
Q 2250 -91 1575 -91 
Q 1294 -91 989 -36 
Q 684 19 347 128 
L 347 722 
Q 666 556 975 473 
Q 1284 391 1588 391 
Q 1994 391 2212 530 
Q 2431 669 2431 922 
Q 2431 1156 2273 1281 
Q 2116 1406 1581 1522 
L 1381 1569 
Q 847 1681 609 1914 
Q 372 2147 372 2553 
Q 372 3047 722 3315 
Q 1072 3584 1716 3584 
Q 2034 3584 2315 3537 
Q 2597 3491 2834 3397 
z
" transform="scale(0.015625)"/>
      <path id="DejaVuSans-46" d="M 628 4666 
L 3309 4666 
L 3309 4134 
L 1259 4134 
L 1259 2759 
L 3109 2759 
L 3109 2228 
L 1259 2228 
L 1259 0 
L 628 0 
L 628 4666 
z
" transform="scale(0.015625)"/>
      <path id="DejaVuSans-63" d="M 3122 3366 
L 3122 2828 
Q 2878 2963 2633 3030 
Q 2388 3097 2138 3097 
Q 1578 3097 1268 2742 
Q 959 2388 959 1747 
Q 959 1106 1268 751 
Q 1578 397 2138 397 
Q 2388 397 2633 464 
Q 2878 531 3122 666 
L 3122 134 
Q 2881 22 2623 -34 
Q 2366 -91 2075 -91 
Q 1284 -91 818 406 
Q 353 903 353 1747 
Q 353 2603 823 3093 
Q 1294 3584 2113 3584 
Q 2378 3584 2631 3529 
Q 2884 3475 3122 3366 
z
" transform="scale(0.015625)"/>
      <path id="DejaVuSans-74" d="M 1172 4494 
L 1172 3500 
L 2356 3500 
L 2356 3053 
L 1172 3053 
L 1172 1153 
Q 1172 725 1289 603 
Q 1406 481 1766 481 
L 2356 481 
L 2356 0 
L 1766 0 
Q 1100 0 847 248 
Q 594 497 594 1153 
L 594 3053 
L 172 3053 
L 172 3500 
L 594 3500 
L 594 4494 
L 1172 4494 
z
" transform="scale(0.015625)"/>
      <path id="DejaVuSans-67" d="M 2906 1791 
Q 2906 2416 2648 2759 
Q 2391 3103 1925 3103 
Q 1463 3103 1205 2759 
Q 947 2416 947 1791 
Q 947 1169 1205 825 
Q 1463 481 1925 481 
Q 2391 481 2648 825 
Q 2906 1169 2906 1791 
z
M 3481 434 
Q 3481 -459 3084 -895 
Q 2688 -1331 1869 -1331 
Q 1566 -1331 1297 -1286 
Q 1028 -1241 775 -1147 
L 775 -588 
Q 1028 -725 1275 -790 
Q 1522 -856 1778 -856 
Q 2344 -856 2625 -561 
Q 2906 -266 2906 331 
L 2906 616 
Q 2728 306 2450 153 
Q 2172 0 1784 0 
Q 1141 0 747 490 
Q 353 981 353 1791 
Q 353 2603 747 3093 
Q 1141 3584 1784 3584 
Q 2172 3584 2450 3431 
Q 2728 3278 2906 2969 
L 2906 3500 
L 3481 3500 
L 3481 434 
z
" transform="scale(0.015625)"/>
      <path id="DejaVuSans-4d" d="M 628 4666 
L 1569 4666 
L 2759 1491 
L 3956 4666 
L 4897 4666 
L 4897 0 
L 4281 0 
L 4281 4097 
L 3078 897 
L 2444 897 
L 1241 4097 
L 1241 0 
L 628 0 
L 628 4666 
z
" transform="scale(0.015625)"/>
      <path id="DejaVuSans-70" d="M 1159 525 
L 1159 -1331 
L 581 -1331 
L 581 3500 
L 1159 3500 
L 1159 2969 
Q 1341 3281 1617 3432 
Q 1894 3584 2278 3584 
Q 2916 3584 3314 3078 
Q 3713 2572 3713 1747 
Q 3713 922 3314 415 
Q 2916 -91 2278 -91 
Q 1894 -91 1617 61 
Q 1341 213 1159 525 
z
M 3116 1747 
Q 3116 2381 2855 2742 
Q 2594 3103 2138 3103 
Q 1681 3103 1420 2742 
Q 1159 2381 1159 1747 
Q 1159 1113 1420 752 
Q 1681 391 2138 391 
Q 2594 391 2855 752 
Q 3116 1113 3116 1747 
z
" transform="scale(0.015625)"/>
     </defs>
     <use xlink:href="#DejaVuSans-44"/>
     <use xlink:href="#DejaVuSans-61" x="77.001953"/>
     <use xlink:href="#DejaVuSans-69" x="138.28125"/>
     <use xlink:href="#DejaVuSans-6c" x="166.064453"/>
     <use xlink:href="#DejaVuSans-79" x="193.847656"/>
     <use xlink:href="#DejaVuSans-20" x="253.027344"/>
     <use xlink:href="#DejaVuSans-43" x="284.814453"/>
     <use xlink:href="#DejaVuSans-6f" x="354.638672"/>
     <use xlink:href="#DejaVuSans-6e" x="415.820312"/>
     <use xlink:href="#DejaVuSans-66" x="479.199219"/>
     <use xlink:href="#DejaVuSans-69" x="514.404297"/>
     <use xlink:href="#DejaVuSans-72" x="542.1875"/>
     <use xlink:href="#DejaVuSans-6d" x="581.550781"/>
     <use xlink:href="#DejaVuSans-65" x="678.962891"/>
     <use xlink:href="#DejaVuSans-64" x="740.486328"/>
     <use xlink:href="#DejaVuSans-20" x="803.962891"/>
     <use xlink:href="#DejaVuSans-43" x="835.75"/>
     <use xlink:href="#DejaVuSans-61" x="905.574219"/>
     <use xlink:href="#DejaVuSans-73" x="966.853516"/>
     <use xlink:href="#DejaVuSans-65" x="1018.953125"/>
     <use xlink:href="#DejaVuSans-73" x="1080.476562"/>
     <use xlink:href="#DejaVuSans-20" x="1132.576172"/>
     <use xlink:href="#DejaVuSans-46" x="1164.363281"/>
     <use xlink:href="#DejaVuSans-6f" x="1218.257812"/>
     <use xlink:href="#DejaVuSans-72" x="1279.439453"/>
     <use xlink:href="#DejaVuSans-65" x="1318.302734"/>
     <use xlink:href="#DejaVuSans-63" x="1379.826172"/>
     <use xlink:href="#DejaVuSans-61" x="1434.806641"/>
     <use xlink:href="#DejaVuSans-73" x="1496.085938"/>
     <use xlink:href="#DejaVuSans-74" x="1548.185547"/>
     <use xlink:href="#DejaVuSans-69" x="1587.394531"/>
     <use xlink:href="#DejaVuSans-6e" x="1615.177734"/>
     <use xlink:href="#DejaVuSans-67" x="1678.556641"/>
     <use xlink:href="#DejaVuSans-20" x="1742.033203"/>
     <use xlink:href="#DejaVuSans-2d" x="1773.820312"/>
     <use xlink:href="#DejaVuSans-20" x="1809.904297"/>
     <use xlink:href="#DejaVuSans-4d" x="1841.691406"/>
     <use xlink:href="#DejaVuSans-69" x="1927.970703"/>
     <use xlink:href="#DejaVuSans-73" x="1955.753906"/>
     <use xlink:href="#DejaVuSans-73" x="2007.853516"/>
     <use xlink:href="#DejaVuSans-69" x="2059.953125"/>
     <use xlink:href="#DejaVuSans-73" x="2087.736328"/>
     <use xlink:href="#DejaVuSans-73" x="2139.835938"/>
     <use xlink:href="#DejaVuSans-69" x="2191.935547"/>
     <use xlink:href="#DejaVuSans-70" x="2219.71875"/>
     <use xlink:href="#DejaVuSans-70" x="2283.195312"/>
     <use xlink:href="#DejaVuSans-69" x="2346.671875"/>
    </g>
    <!-- ARIMA (3, 1, 1)x(1, 0, 1, 7) (R2 = 0.015116) -->
    <g transform="translate(583.628438 29.7555)scale(0.12 -0.12)">
     <defs>
      <path id="DejaVuSans-41" d="M 2188 4044 
L 1331 1722 
L 3047 1722 
L 2188 4044 
z
M 1831 4666 
L 2547 4666 
L 4325 0 
L 3669 0 
L 3244 1197 
L 1141 1197 
L 716 0 
L 50 0 
L 1831 4666 
z
" transform="scale(0.015625)"/>
      <path id="DejaVuSans-52" d="M 2841 2188 
Q 3044 2119 3236 1894 
Q 3428 1669 3622 1275 
L 4263 0 
L 3584 0 
L 2988 1197 
Q 2756 1666 2539 1819 
Q 2322 1972 1947 1972 
L 1259 1972 
L 1259 0 
L 628 0 
L 628 4666 
L 2053 4666 
Q 2853 4666 3247 4331 
Q 3641 3997 3641 3322 
Q 3641 2881 3436 2590 
Q 3231 2300 2841 2188 
z
M 1259 4147 
L 1259 2491 
L 2053 2491 
Q 2509 2491 2742 2702 
Q 2975 2913 2975 3322 
Q 2975 3731 2742 3939 
Q 2509 4147 2053 4147 
L 1259 4147 
z
" transform="scale(0.015625)"/>
      <path id="DejaVuSans-49" d="M 628 4666 
L 1259 4666 
L 1259 0 
L 628 0 
L 628 4666 
z
" transform="scale(0.015625)"/>
      <path id="DejaVuSans-28" d="M 1984 4856 
Q 1566 4138 1362 3434 
Q 1159 2731 1159 2009 
Q 1159 1288 1364 580 
Q 1569 -128 1984 -844 
L 1484 -844 
Q 1016 -109 783 600 
Q 550 1309 550 2009 
Q 550 2706 781 3412 
Q 1013 4119 1484 4856 
L 1984 4856 
z
" transform="scale(0.015625)"/>
      <path id="DejaVuSans-33" d="M 2597 2516 
Q 3050 2419 3304 2112 
Q 3559 1806 3559 1356 
Q 3559 666 3084 287 
Q 2609 -91 1734 -91 
Q 1441 -91 1130 -33 
Q 819 25 488 141 
L 488 750 
Q 750 597 1062 519 
Q 1375 441 1716 441 
Q 2309 441 2620 675 
Q 2931 909 2931 1356 
Q 2931 1769 2642 2001 
Q 2353 2234 1838 2234 
L 1294 2234 
L 1294 2753 
L 1863 2753 
Q 2328 2753 2575 2939 
Q 2822 3125 2822 3475 
Q 2822 3834 2567 4026 
Q 2313 4219 1838 4219 
Q 1578 4219 1281 4162 
Q 984 4106 628 3988 
L 628 4550 
Q 988 4650 1302 4700 
Q 1616 4750 1894 4750 
Q 2613 4750 3031 4423 
Q 3450 4097 3450 3541 
Q 3450 3153 3228 2886 
Q 3006 2619 2597 2516 
z
" transform="scale(0.015625)"/>
      <path id="DejaVuSans-2c" d="M 750 794 
L 1409 794 
L 1409 256 
L 897 -744 
L 494 -744 
L 750 256 
L 750 794 
z
" transform="scale(0.015625)"/>
      <path id="DejaVuSans-29" d="M 513 4856 
L 1013 4856 
Q 1481 4119 1714 3412 
Q 1947 2706 1947 2009 
Q 1947 1309 1714 600 
Q 1481 -109 1013 -844 
L 513 -844 
Q 928 -128 1133 580 
Q 1338 1288 1338 2009 
Q 1338 2731 1133 3434 
Q 928 4138 513 4856 
z
" transform="scale(0.015625)"/>
      <path id="DejaVuSans-78" d="M 3513 3500 
L 2247 1797 
L 3578 0 
L 2900 0 
L 1881 1375 
L 863 0 
L 184 0 
L 1544 1831 
L 300 3500 
L 978 3500 
L 1906 2253 
L 2834 3500 
L 3513 3500 
z
" transform="scale(0.015625)"/>
      <path id="DejaVuSans-3d" d="M 678 2906 
L 4684 2906 
L 4684 2381 
L 678 2381 
L 678 2906 
z
M 678 1631 
L 4684 1631 
L 4684 1100 
L 678 1100 
L 678 1631 
z
" transform="scale(0.015625)"/>
      <path id="DejaVuSans-2e" d="M 684 794 
L 1344 794 
L 1344 0 
L 684 0 
L 684 794 
z
" transform="scale(0.015625)"/>
      <path id="DejaVuSans-36" d="M 2113 2584 
Q 1688 2584 1439 2293 
Q 1191 2003 1191 1497 
Q 1191 994 1439 701 
Q 1688 409 2113 409 
Q 2538 409 2786 701 
Q 3034 994 3034 1497 
Q 3034 2003 2786 2293 
Q 2538 2584 2113 2584 
z
M 3366 4563 
L 3366 3988 
Q 3128 4100 2886 4159 
Q 2644 4219 2406 4219 
Q 1781 4219 1451 3797 
Q 1122 3375 1075 2522 
Q 1259 2794 1537 2939 
Q 1816 3084 2150 3084 
Q 2853 3084 3261 2657 
Q 3669 2231 3669 1497 
Q 3669 778 3244 343 
Q 2819 -91 2113 -91 
Q 1303 -91 875 529 
Q 447 1150 447 2328 
Q 447 3434 972 4092 
Q 1497 4750 2381 4750 
Q 2619 4750 2861 4703 
Q 3103 4656 3366 4563 
z
" transform="scale(0.015625)"/>
     </defs>
     <use xlink:href="#DejaVuSans-41"/>
     <use xlink:href="#DejaVuSans-52" x="68.408203"/>
     <use xlink:href="#DejaVuSans-49" x="137.890625"/>
     <use xlink:href="#DejaVuSans-4d" x="167.382812"/>
     <use xlink:href="#DejaVuSans-41" x="253.662109"/>
     <use xlink:href="#DejaVuSans-20" x="322.070312"/>
     <use xlink:href="#DejaVuSans-28" x="353.857422"/>
     <use xlink:href="#DejaVuSans-33" x="392.871094"/>
     <use xlink:href="#DejaVuSans-2c" x="456.494141"/>
     <use xlink:href="#DejaVuSans-20" x="488.28125"/>
     <use xlink:href="#DejaVuSans-31" x="520.068359"/>
     <use xlink:href="#DejaVuSans-2c" x="583.691406"/>
     <use xlink:href="#DejaVuSans-20" x="615.478516"/>
     <use xlink:href="#DejaVuSans-31" x="647.265625"/>
     <use xlink:href="#DejaVuSans-29" x="710.888672"/>
     <use xlink:href="#DejaVuSans-78" x="749.902344"/>
     <use xlink:href="#DejaVuSans-28" x="809.082031"/>
     <use xlink:href="#DejaVuSans-31" x="848.095703"/>
     <use xlink:href="#DejaVuSans-2c" x="911.71875"/>
     <use xlink:href="#DejaVuSans-20" x="943.505859"/>
     <use xlink:href="#DejaVuSans-30" x="975.292969"/>
     <use xlink:href="#DejaVuSans-2c" x="1038.916016"/>
     <use xlink:href="#DejaVuSans-20" x="1070.703125"/>
     <use xlink:href="#DejaVuSans-31" x="1102.490234"/>
     <use xlink:href="#DejaVuSans-2c" x="1166.113281"/>
     <use xlink:href="#DejaVuSans-20" x="1197.900391"/>
     <use xlink:href="#DejaVuSans-37" x="1229.6875"/>
     <use xlink:href="#DejaVuSans-29" x="1293.310547"/>
     <use xlink:href="#DejaVuSans-20" x="1332.324219"/>
     <use xlink:href="#DejaVuSans-28" x="1364.111328"/>
     <use xlink:href="#DejaVuSans-52" x="1403.125"/>
     <use xlink:href="#DejaVuSans-32" x="1472.607422"/>
     <use xlink:href="#DejaVuSans-20" x="1536.230469"/>
     <use xlink:href="#DejaVuSans-3d" x="1568.017578"/>
     <use xlink:href="#DejaVuSans-20" x="1651.806641"/>
     <use xlink:href="#DejaVuSans-30" x="1683.59375"/>
     <use xlink:href="#DejaVuSans-2e" x="1747.216797"/>
     <use xlink:href="#DejaVuSans-30" x="1779.003906"/>
     <use xlink:href="#DejaVuSans-31" x="1842.626953"/>
     <use xlink:href="#DejaVuSans-35" x="1906.25"/>
     <use xlink:href="#DejaVuSans-31" x="1969.873047"/>
     <use xlink:href="#DejaVuSans-31" x="2033.496094"/>
     <use xlink:href="#DejaVuSans-36" x="2097.119141"/>
     <use xlink:href="#DejaVuSans-29" x="2160.742188"/>
    </g>
   </g>
   <g id="legend_1">
    <g id="patch_7">
     <path d="M 1281.132812 87.789875 
L 1378.2125 87.789875 
Q 1380.2125 87.789875 1380.2125 85.789875 
L 1380.2125 42.7555 
Q 1380.2125 40.7555 1378.2125 40.7555 
L 1281.132812 40.7555 
Q 1279.132812 40.7555 1279.132812 42.7555 
L 1279.132812 85.789875 
Q 1279.132812 87.789875 1281.132812 87.789875 
z
" style="fill: #ffffff; opacity: 0.8; stroke: #cccccc; stroke-linejoin: miter"/>
    </g>
    <g id="line2d_20">
     <path d="M 1283.132812 48.853937 
L 1293.132812 48.853937 
L 1303.132812 48.853937 
" style="fill: none; stroke: #0000ff; stroke-width: 1.5; stroke-linecap: square"/>
    </g>
    <g id="text_18">
     <!-- Actual Value -->
     <g transform="translate(1311.132812 52.353937)scale(0.1 -0.1)">
      <defs>
       <path id="DejaVuSans-75" d="M 544 1381 
L 544 3500 
L 1119 3500 
L 1119 1403 
Q 1119 906 1312 657 
Q 1506 409 1894 409 
Q 2359 409 2629 706 
Q 2900 1003 2900 1516 
L 2900 3500 
L 3475 3500 
L 3475 0 
L 2900 0 
L 2900 538 
Q 2691 219 2414 64 
Q 2138 -91 1772 -91 
Q 1169 -91 856 284 
Q 544 659 544 1381 
z
M 1991 3584 
L 1991 3584 
z
" transform="scale(0.015625)"/>
       <path id="DejaVuSans-56" d="M 1831 0 
L 50 4666 
L 709 4666 
L 2188 738 
L 3669 4666 
L 4325 4666 
L 2547 0 
L 1831 0 
z
" transform="scale(0.015625)"/>
      </defs>
      <use xlink:href="#DejaVuSans-41"/>
      <use xlink:href="#DejaVuSans-63" x="66.658203"/>
      <use xlink:href="#DejaVuSans-74" x="121.638672"/>
      <use xlink:href="#DejaVuSans-75" x="160.847656"/>
      <use xlink:href="#DejaVuSans-61" x="224.226562"/>
      <use xlink:href="#DejaVuSans-6c" x="285.505859"/>
      <use xlink:href="#DejaVuSans-20" x="313.289062"/>
      <use xlink:href="#DejaVuSans-56" x="345.076172"/>
      <use xlink:href="#DejaVuSans-61" x="405.734375"/>
      <use xlink:href="#DejaVuSans-6c" x="467.013672"/>
      <use xlink:href="#DejaVuSans-75" x="494.796875"/>
      <use xlink:href="#DejaVuSans-65" x="558.175781"/>
     </g>
    </g>
    <g id="line2d_21">
     <path d="M 1283.132812 63.532062 
L 1293.132812 63.532062 
L 1303.132812 63.532062 
" style="fill: none; stroke: #ffa500; stroke-width: 1.5; stroke-linecap: square"/>
    </g>
    <g id="text_19">
     <!-- Check Value -->
     <g transform="translate(1311.132812 67.032062)scale(0.1 -0.1)">
      <defs>
       <path id="DejaVuSans-68" d="M 3513 2113 
L 3513 0 
L 2938 0 
L 2938 2094 
Q 2938 2591 2744 2837 
Q 2550 3084 2163 3084 
Q 1697 3084 1428 2787 
Q 1159 2491 1159 1978 
L 1159 0 
L 581 0 
L 581 4863 
L 1159 4863 
L 1159 2956 
Q 1366 3272 1645 3428 
Q 1925 3584 2291 3584 
Q 2894 3584 3203 3211 
Q 3513 2838 3513 2113 
z
" transform="scale(0.015625)"/>
       <path id="DejaVuSans-6b" d="M 581 4863 
L 1159 4863 
L 1159 1991 
L 2875 3500 
L 3609 3500 
L 1753 1863 
L 3688 0 
L 2938 0 
L 1159 1709 
L 1159 0 
L 581 0 
L 581 4863 
z
" transform="scale(0.015625)"/>
      </defs>
      <use xlink:href="#DejaVuSans-43"/>
      <use xlink:href="#DejaVuSans-68" x="69.824219"/>
      <use xlink:href="#DejaVuSans-65" x="133.203125"/>
      <use xlink:href="#DejaVuSans-63" x="194.726562"/>
      <use xlink:href="#DejaVuSans-6b" x="249.707031"/>
      <use xlink:href="#DejaVuSans-20" x="307.617188"/>
      <use xlink:href="#DejaVuSans-56" x="339.404297"/>
      <use xlink:href="#DejaVuSans-61" x="400.0625"/>
      <use xlink:href="#DejaVuSans-6c" x="461.341797"/>
      <use xlink:href="#DejaVuSans-75" x="489.125"/>
      <use xlink:href="#DejaVuSans-65" x="552.503906"/>
     </g>
    </g>
    <g id="line2d_22">
     <path d="M 1283.132812 78.210187 
L 1293.132812 78.210187 
L 1303.132812 78.210187 
" style="fill: none; stroke: #ff0000; stroke-width: 1.5; stroke-linecap: square"/>
    </g>
    <g id="text_20">
     <!-- Predict Value -->
     <g transform="translate(1311.132812 81.710187)scale(0.1 -0.1)">
      <defs>
       <path id="DejaVuSans-50" d="M 1259 4147 
L 1259 2394 
L 2053 2394 
Q 2494 2394 2734 2622 
Q 2975 2850 2975 3272 
Q 2975 3691 2734 3919 
Q 2494 4147 2053 4147 
L 1259 4147 
z
M 628 4666 
L 2053 4666 
Q 2838 4666 3239 4311 
Q 3641 3956 3641 3272 
Q 3641 2581 3239 2228 
Q 2838 1875 2053 1875 
L 1259 1875 
L 1259 0 
L 628 0 
L 628 4666 
z
" transform="scale(0.015625)"/>
      </defs>
      <use xlink:href="#DejaVuSans-50"/>
      <use xlink:href="#DejaVuSans-72" x="58.552734"/>
      <use xlink:href="#DejaVuSans-65" x="97.416016"/>
      <use xlink:href="#DejaVuSans-64" x="158.939453"/>
      <use xlink:href="#DejaVuSans-69" x="222.416016"/>
      <use xlink:href="#DejaVuSans-63" x="250.199219"/>
      <use xlink:href="#DejaVuSans-74" x="305.179688"/>
      <use xlink:href="#DejaVuSans-20" x="344.388672"/>
      <use xlink:href="#DejaVuSans-56" x="376.175781"/>
      <use xlink:href="#DejaVuSans-61" x="436.833984"/>
      <use xlink:href="#DejaVuSans-6c" x="498.113281"/>
      <use xlink:href="#DejaVuSans-75" x="525.896484"/>
      <use xlink:href="#DejaVuSans-65" x="589.275391"/>
     </g>
    </g>
   </g>
  </g>
 </g>
 <defs>
  <clipPath id="p1c2b4a317d">
   <rect x="46.0125" y="35.7555" width="1339.2" height="332.64"/>
  </clipPath>
 </defs>
</svg>
