<?xml version="1.0" encoding="utf-8" standalone="no"?>
<!DOCTYPE svg PUBLIC "-//W3C//DTD SVG 1.1//EN"
  "http://www.w3.org/Graphics/SVG/1.1/DTD/svg11.dtd">
<svg xmlns:xlink="http://www.w3.org/1999/xlink" width="1386.05pt" height="392.273625pt" viewBox="0 0 1386.05 392.273625" xmlns="http://www.w3.org/2000/svg" version="1.1">
 <metadata>
  <rdf:RDF xmlns:dc="http://purl.org/dc/elements/1.1/" xmlns:cc="http://creativecommons.org/ns#" xmlns:rdf="http://www.w3.org/1999/02/22-rdf-syntax-ns#">
   <cc:Work>
    <dc:type rdf:resource="http://purl.org/dc/dcmitype/StillImage"/>
    <dc:date>2022-07-15T17:32:38.081581</dc:date>
    <dc:format>image/svg+xml</dc:format>
    <dc:creator>
     <cc:Agent>
      <dc:title>Matplotlib v3.5.2, https://matplotlib.org/</dc:title>
     </cc:Agent>
    </dc:creator>
   </cc:Work>
  </rdf:RDF>
 </metadata>
 <defs>
  <style type="text/css">*{stroke-linejoin: round; stroke-linecap: butt}</style>
 </defs>
 <g id="figure_1">
  <g id="patch_1">
   <path d="M 0 392.273625 
L 1386.05 392.273625 
L 1386.05 0 
L 0 0 
z
" style="fill: #ffffff"/>
  </g>
  <g id="axes_1">
   <g id="patch_2">
    <path d="M 39.65 368.3955 
L 1378.85 368.3955 
L 1378.85 35.7555 
L 39.65 35.7555 
z
" style="fill: #ffffff"/>
   </g>
   <g id="matplotlib.axis_1">
    <g id="xtick_1">
     <g id="line2d_1">
      <defs>
       <path id="me9a736fca5" d="M 0 0 
L 0 3.5 
" style="stroke: #000000; stroke-width: 0.8"/>
      </defs>
      <g>
       <use xlink:href="#me9a736fca5" x="71.282553" y="368.3955" style="stroke: #000000; stroke-width: 0.8"/>
      </g>
     </g>
     <g id="text_1">
      <!-- 2020-01 -->
      <g transform="translate(50.391146 382.993937)scale(0.1 -0.1)">
       <defs>
        <path id="DejaVuSans-32" d="M 1228 531 
L 3431 531 
L 3431 0 
L 469 0 
L 469 531 
Q 828 903 1448 1529 
Q 2069 2156 2228 2338 
Q 2531 2678 2651 2914 
Q 2772 3150 2772 3378 
Q 2772 3750 2511 3984 
Q 2250 4219 1831 4219 
Q 1534 4219 1204 4116 
Q 875 4013 500 3803 
L 500 4441 
Q 881 4594 1212 4672 
Q 1544 4750 1819 4750 
Q 2544 4750 2975 4387 
Q 3406 4025 3406 3419 
Q 3406 3131 3298 2873 
Q 3191 2616 2906 2266 
Q 2828 2175 2409 1742 
Q 1991 1309 1228 531 
z
" transform="scale(0.015625)"/>
        <path id="DejaVuSans-30" d="M 2034 4250 
Q 1547 4250 1301 3770 
Q 1056 3291 1056 2328 
Q 1056 1369 1301 889 
Q 1547 409 2034 409 
Q 2525 409 2770 889 
Q 3016 1369 3016 2328 
Q 3016 3291 2770 3770 
Q 2525 4250 2034 4250 
z
M 2034 4750 
Q 2819 4750 3233 4129 
Q 3647 3509 3647 2328 
Q 3647 1150 3233 529 
Q 2819 -91 2034 -91 
Q 1250 -91 836 529 
Q 422 1150 422 2328 
Q 422 3509 836 4129 
Q 1250 4750 2034 4750 
z
" transform="scale(0.015625)"/>
        <path id="DejaVuSans-2d" d="M 313 2009 
L 1997 2009 
L 1997 1497 
L 313 1497 
L 313 2009 
z
" transform="scale(0.015625)"/>
        <path id="DejaVuSans-31" d="M 794 531 
L 1825 531 
L 1825 4091 
L 703 3866 
L 703 4441 
L 1819 4666 
L 2450 4666 
L 2450 531 
L 3481 531 
L 3481 0 
L 794 0 
L 794 531 
z
" transform="scale(0.015625)"/>
       </defs>
       <use xlink:href="#DejaVuSans-32"/>
       <use xlink:href="#DejaVuSans-30" x="63.623047"/>
       <use xlink:href="#DejaVuSans-32" x="127.246094"/>
       <use xlink:href="#DejaVuSans-30" x="190.869141"/>
       <use xlink:href="#DejaVuSans-2d" x="254.492188"/>
       <use xlink:href="#DejaVuSans-30" x="290.576172"/>
       <use xlink:href="#DejaVuSans-31" x="354.199219"/>
      </g>
     </g>
    </g>
    <g id="xtick_2">
     <g id="line2d_2">
      <g>
       <use xlink:href="#me9a736fca5" x="192.230548" y="368.3955" style="stroke: #000000; stroke-width: 0.8"/>
      </g>
     </g>
     <g id="text_2">
      <!-- 2020-04 -->
      <g transform="translate(171.339142 382.993937)scale(0.1 -0.1)">
       <defs>
        <path id="DejaVuSans-34" d="M 2419 4116 
L 825 1625 
L 2419 1625 
L 2419 4116 
z
M 2253 4666 
L 3047 4666 
L 3047 1625 
L 3713 1625 
L 3713 1100 
L 3047 1100 
L 3047 0 
L 2419 0 
L 2419 1100 
L 313 1100 
L 313 1709 
L 2253 4666 
z
" transform="scale(0.015625)"/>
       </defs>
       <use xlink:href="#DejaVuSans-32"/>
       <use xlink:href="#DejaVuSans-30" x="63.623047"/>
       <use xlink:href="#DejaVuSans-32" x="127.246094"/>
       <use xlink:href="#DejaVuSans-30" x="190.869141"/>
       <use xlink:href="#DejaVuSans-2d" x="254.492188"/>
       <use xlink:href="#DejaVuSans-30" x="290.576172"/>
       <use xlink:href="#DejaVuSans-34" x="354.199219"/>
      </g>
     </g>
    </g>
    <g id="xtick_3">
     <g id="line2d_3">
      <g>
       <use xlink:href="#me9a736fca5" x="313.178543" y="368.3955" style="stroke: #000000; stroke-width: 0.8"/>
      </g>
     </g>
     <g id="text_3">
      <!-- 2020-07 -->
      <g transform="translate(292.287137 382.993937)scale(0.1 -0.1)">
       <defs>
        <path id="DejaVuSans-37" d="M 525 4666 
L 3525 4666 
L 3525 4397 
L 1831 0 
L 1172 0 
L 2766 4134 
L 525 4134 
L 525 4666 
z
" transform="scale(0.015625)"/>
       </defs>
       <use xlink:href="#DejaVuSans-32"/>
       <use xlink:href="#DejaVuSans-30" x="63.623047"/>
       <use xlink:href="#DejaVuSans-32" x="127.246094"/>
       <use xlink:href="#DejaVuSans-30" x="190.869141"/>
       <use xlink:href="#DejaVuSans-2d" x="254.492188"/>
       <use xlink:href="#DejaVuSans-30" x="290.576172"/>
       <use xlink:href="#DejaVuSans-37" x="354.199219"/>
      </g>
     </g>
    </g>
    <g id="xtick_4">
     <g id="line2d_4">
      <g>
       <use xlink:href="#me9a736fca5" x="435.455637" y="368.3955" style="stroke: #000000; stroke-width: 0.8"/>
      </g>
     </g>
     <g id="text_4">
      <!-- 2020-10 -->
      <g transform="translate(414.564231 382.993937)scale(0.1 -0.1)">
       <use xlink:href="#DejaVuSans-32"/>
       <use xlink:href="#DejaVuSans-30" x="63.623047"/>
       <use xlink:href="#DejaVuSans-32" x="127.246094"/>
       <use xlink:href="#DejaVuSans-30" x="190.869141"/>
       <use xlink:href="#DejaVuSans-2d" x="254.492188"/>
       <use xlink:href="#DejaVuSans-31" x="290.576172"/>
       <use xlink:href="#DejaVuSans-30" x="354.199219"/>
      </g>
     </g>
    </g>
    <g id="xtick_5">
     <g id="line2d_5">
      <g>
       <use xlink:href="#me9a736fca5" x="557.732731" y="368.3955" style="stroke: #000000; stroke-width: 0.8"/>
      </g>
     </g>
     <g id="text_5">
      <!-- 2021-01 -->
      <g transform="translate(536.841325 382.993937)scale(0.1 -0.1)">
       <use xlink:href="#DejaVuSans-32"/>
       <use xlink:href="#DejaVuSans-30" x="63.623047"/>
       <use xlink:href="#DejaVuSans-32" x="127.246094"/>
       <use xlink:href="#DejaVuSans-31" x="190.869141"/>
       <use xlink:href="#DejaVuSans-2d" x="254.492188"/>
       <use xlink:href="#DejaVuSans-30" x="290.576172"/>
       <use xlink:href="#DejaVuSans-31" x="354.199219"/>
      </g>
     </g>
    </g>
    <g id="xtick_6">
     <g id="line2d_6">
      <g>
       <use xlink:href="#me9a736fca5" x="677.351628" y="368.3955" style="stroke: #000000; stroke-width: 0.8"/>
      </g>
     </g>
     <g id="text_6">
      <!-- 2021-04 -->
      <g transform="translate(656.460221 382.993937)scale(0.1 -0.1)">
       <use xlink:href="#DejaVuSans-32"/>
       <use xlink:href="#DejaVuSans-30" x="63.623047"/>
       <use xlink:href="#DejaVuSans-32" x="127.246094"/>
       <use xlink:href="#DejaVuSans-31" x="190.869141"/>
       <use xlink:href="#DejaVuSans-2d" x="254.492188"/>
       <use xlink:href="#DejaVuSans-30" x="290.576172"/>
       <use xlink:href="#DejaVuSans-34" x="354.199219"/>
      </g>
     </g>
    </g>
    <g id="xtick_7">
     <g id="line2d_7">
      <g>
       <use xlink:href="#me9a736fca5" x="798.299623" y="368.3955" style="stroke: #000000; stroke-width: 0.8"/>
      </g>
     </g>
     <g id="text_7">
      <!-- 2021-07 -->
      <g transform="translate(777.408217 382.993937)scale(0.1 -0.1)">
       <use xlink:href="#DejaVuSans-32"/>
       <use xlink:href="#DejaVuSans-30" x="63.623047"/>
       <use xlink:href="#DejaVuSans-32" x="127.246094"/>
       <use xlink:href="#DejaVuSans-31" x="190.869141"/>
       <use xlink:href="#DejaVuSans-2d" x="254.492188"/>
       <use xlink:href="#DejaVuSans-30" x="290.576172"/>
       <use xlink:href="#DejaVuSans-37" x="354.199219"/>
      </g>
     </g>
    </g>
    <g id="xtick_8">
     <g id="line2d_8">
      <g>
       <use xlink:href="#me9a736fca5" x="920.576717" y="368.3955" style="stroke: #000000; stroke-width: 0.8"/>
      </g>
     </g>
     <g id="text_8">
      <!-- 2021-10 -->
      <g transform="translate(899.685311 382.993937)scale(0.1 -0.1)">
       <use xlink:href="#DejaVuSans-32"/>
       <use xlink:href="#DejaVuSans-30" x="63.623047"/>
       <use xlink:href="#DejaVuSans-32" x="127.246094"/>
       <use xlink:href="#DejaVuSans-31" x="190.869141"/>
       <use xlink:href="#DejaVuSans-2d" x="254.492188"/>
       <use xlink:href="#DejaVuSans-31" x="290.576172"/>
       <use xlink:href="#DejaVuSans-30" x="354.199219"/>
      </g>
     </g>
    </g>
    <g id="xtick_9">
     <g id="line2d_9">
      <g>
       <use xlink:href="#me9a736fca5" x="1042.853811" y="368.3955" style="stroke: #000000; stroke-width: 0.8"/>
      </g>
     </g>
     <g id="text_9">
      <!-- 2022-01 -->
      <g transform="translate(1021.962405 382.993937)scale(0.1 -0.1)">
       <use xlink:href="#DejaVuSans-32"/>
       <use xlink:href="#DejaVuSans-30" x="63.623047"/>
       <use xlink:href="#DejaVuSans-32" x="127.246094"/>
       <use xlink:href="#DejaVuSans-32" x="190.869141"/>
       <use xlink:href="#DejaVuSans-2d" x="254.492188"/>
       <use xlink:href="#DejaVuSans-30" x="290.576172"/>
       <use xlink:href="#DejaVuSans-31" x="354.199219"/>
      </g>
     </g>
    </g>
    <g id="xtick_10">
     <g id="line2d_10">
      <g>
       <use xlink:href="#me9a736fca5" x="1162.472707" y="368.3955" style="stroke: #000000; stroke-width: 0.8"/>
      </g>
     </g>
     <g id="text_10">
      <!-- 2022-04 -->
      <g transform="translate(1141.581301 382.993937)scale(0.1 -0.1)">
       <use xlink:href="#DejaVuSans-32"/>
       <use xlink:href="#DejaVuSans-30" x="63.623047"/>
       <use xlink:href="#DejaVuSans-32" x="127.246094"/>
       <use xlink:href="#DejaVuSans-32" x="190.869141"/>
       <use xlink:href="#DejaVuSans-2d" x="254.492188"/>
       <use xlink:href="#DejaVuSans-30" x="290.576172"/>
       <use xlink:href="#DejaVuSans-34" x="354.199219"/>
      </g>
     </g>
    </g>
    <g id="xtick_11">
     <g id="line2d_11">
      <g>
       <use xlink:href="#me9a736fca5" x="1283.420703" y="368.3955" style="stroke: #000000; stroke-width: 0.8"/>
      </g>
     </g>
     <g id="text_11">
      <!-- 2022-07 -->
      <g transform="translate(1262.529296 382.993937)scale(0.1 -0.1)">
       <use xlink:href="#DejaVuSans-32"/>
       <use xlink:href="#DejaVuSans-30" x="63.623047"/>
       <use xlink:href="#DejaVuSans-32" x="127.246094"/>
       <use xlink:href="#DejaVuSans-32" x="190.869141"/>
       <use xlink:href="#DejaVuSans-2d" x="254.492188"/>
       <use xlink:href="#DejaVuSans-30" x="290.576172"/>
       <use xlink:href="#DejaVuSans-37" x="354.199219"/>
      </g>
     </g>
    </g>
   </g>
   <g id="matplotlib.axis_2">
    <g id="ytick_1">
     <g id="line2d_12">
      <defs>
       <path id="md98123bf7c" d="M 0 0 
L -3.5 0 
" style="stroke: #000000; stroke-width: 0.8"/>
      </defs>
      <g>
       <use xlink:href="#md98123bf7c" x="39.65" y="345.944843" style="stroke: #000000; stroke-width: 0.8"/>
      </g>
     </g>
     <g id="text_12">
      <!-- 0 -->
      <g transform="translate(26.2875 349.744062)scale(0.1 -0.1)">
       <use xlink:href="#DejaVuSans-30"/>
      </g>
     </g>
    </g>
    <g id="ytick_2">
     <g id="line2d_13">
      <g>
       <use xlink:href="#md98123bf7c" x="39.65" y="292.001636" style="stroke: #000000; stroke-width: 0.8"/>
      </g>
     </g>
     <g id="text_13">
      <!-- 200 -->
      <g transform="translate(13.5625 295.800855)scale(0.1 -0.1)">
       <use xlink:href="#DejaVuSans-32"/>
       <use xlink:href="#DejaVuSans-30" x="63.623047"/>
       <use xlink:href="#DejaVuSans-30" x="127.246094"/>
      </g>
     </g>
    </g>
    <g id="ytick_3">
     <g id="line2d_14">
      <g>
       <use xlink:href="#md98123bf7c" x="39.65" y="238.058429" style="stroke: #000000; stroke-width: 0.8"/>
      </g>
     </g>
     <g id="text_14">
      <!-- 400 -->
      <g transform="translate(13.5625 241.857647)scale(0.1 -0.1)">
       <use xlink:href="#DejaVuSans-34"/>
       <use xlink:href="#DejaVuSans-30" x="63.623047"/>
       <use xlink:href="#DejaVuSans-30" x="127.246094"/>
      </g>
     </g>
    </g>
    <g id="ytick_4">
     <g id="line2d_15">
      <g>
       <use xlink:href="#md98123bf7c" x="39.65" y="184.115222" style="stroke: #000000; stroke-width: 0.8"/>
      </g>
     </g>
     <g id="text_15">
      <!-- 600 -->
      <g transform="translate(13.5625 187.91444)scale(0.1 -0.1)">
       <defs>
        <path id="DejaVuSans-36" d="M 2113 2584 
Q 1688 2584 1439 2293 
Q 1191 2003 1191 1497 
Q 1191 994 1439 701 
Q 1688 409 2113 409 
Q 2538 409 2786 701 
Q 3034 994 3034 1497 
Q 3034 2003 2786 2293 
Q 2538 2584 2113 2584 
z
M 3366 4563 
L 3366 3988 
Q 3128 4100 2886 4159 
Q 2644 4219 2406 4219 
Q 1781 4219 1451 3797 
Q 1122 3375 1075 2522 
Q 1259 2794 1537 2939 
Q 1816 3084 2150 3084 
Q 2853 3084 3261 2657 
Q 3669 2231 3669 1497 
Q 3669 778 3244 343 
Q 2819 -91 2113 -91 
Q 1303 -91 875 529 
Q 447 1150 447 2328 
Q 447 3434 972 4092 
Q 1497 4750 2381 4750 
Q 2619 4750 2861 4703 
Q 3103 4656 3366 4563 
z
" transform="scale(0.015625)"/>
       </defs>
       <use xlink:href="#DejaVuSans-36"/>
       <use xlink:href="#DejaVuSans-30" x="63.623047"/>
       <use xlink:href="#DejaVuSans-30" x="127.246094"/>
      </g>
     </g>
    </g>
    <g id="ytick_5">
     <g id="line2d_16">
      <g>
       <use xlink:href="#md98123bf7c" x="39.65" y="130.172014" style="stroke: #000000; stroke-width: 0.8"/>
      </g>
     </g>
     <g id="text_16">
      <!-- 800 -->
      <g transform="translate(13.5625 133.971233)scale(0.1 -0.1)">
       <defs>
        <path id="DejaVuSans-38" d="M 2034 2216 
Q 1584 2216 1326 1975 
Q 1069 1734 1069 1313 
Q 1069 891 1326 650 
Q 1584 409 2034 409 
Q 2484 409 2743 651 
Q 3003 894 3003 1313 
Q 3003 1734 2745 1975 
Q 2488 2216 2034 2216 
z
M 1403 2484 
Q 997 2584 770 2862 
Q 544 3141 544 3541 
Q 544 4100 942 4425 
Q 1341 4750 2034 4750 
Q 2731 4750 3128 4425 
Q 3525 4100 3525 3541 
Q 3525 3141 3298 2862 
Q 3072 2584 2669 2484 
Q 3125 2378 3379 2068 
Q 3634 1759 3634 1313 
Q 3634 634 3220 271 
Q 2806 -91 2034 -91 
Q 1263 -91 848 271 
Q 434 634 434 1313 
Q 434 1759 690 2068 
Q 947 2378 1403 2484 
z
M 1172 3481 
Q 1172 3119 1398 2916 
Q 1625 2713 2034 2713 
Q 2441 2713 2670 2916 
Q 2900 3119 2900 3481 
Q 2900 3844 2670 4047 
Q 2441 4250 2034 4250 
Q 1625 4250 1398 4047 
Q 1172 3844 1172 3481 
z
" transform="scale(0.015625)"/>
       </defs>
       <use xlink:href="#DejaVuSans-38"/>
       <use xlink:href="#DejaVuSans-30" x="63.623047"/>
       <use xlink:href="#DejaVuSans-30" x="127.246094"/>
      </g>
     </g>
    </g>
    <g id="ytick_6">
     <g id="line2d_17">
      <g>
       <use xlink:href="#md98123bf7c" x="39.65" y="76.228807" style="stroke: #000000; stroke-width: 0.8"/>
      </g>
     </g>
     <g id="text_17">
      <!-- 1000 -->
      <g transform="translate(7.2 80.028026)scale(0.1 -0.1)">
       <use xlink:href="#DejaVuSans-31"/>
       <use xlink:href="#DejaVuSans-30" x="63.623047"/>
       <use xlink:href="#DejaVuSans-30" x="127.246094"/>
       <use xlink:href="#DejaVuSans-30" x="190.869141"/>
      </g>
     </g>
    </g>
   </g>
   <g id="line2d_18">
    <path d="M 100.522727 345.944843 
L 169.635867 345.944843 
L 170.964966 345.135695 
L 172.294065 345.944843 
L 173.623164 345.405411 
L 174.952263 344.056831 
L 176.281362 345.405411 
L 177.610461 345.675127 
L 178.939559 342.708251 
L 180.268658 345.405411 
L 181.597757 345.135695 
L 182.926856 344.596263 
L 184.255955 343.787115 
L 186.914152 344.865979 
L 188.243251 345.675127 
L 189.57235 345.405411 
L 190.901449 342.977967 
L 194.888746 345.405411 
L 196.217844 343.517399 
L 197.546943 340.820238 
L 198.876042 345.675127 
L 200.205141 343.787115 
L 201.53424 345.944843 
L 202.863339 344.056831 
L 204.192437 345.405411 
L 205.521536 345.135695 
L 206.850635 345.944843 
L 209.508833 345.944843 
L 210.837932 345.405411 
L 212.167031 345.944843 
L 213.496129 345.675127 
L 214.825228 345.944843 
L 220.141624 345.944843 
L 221.470723 345.135695 
L 222.799821 345.405411 
L 224.12892 345.944843 
L 229.445316 345.944843 
L 230.774414 344.865979 
L 232.103513 345.944843 
L 237.419909 345.944843 
L 238.749008 344.865979 
L 240.078106 345.944843 
L 241.407205 345.405411 
L 242.736304 345.944843 
L 245.394502 345.944843 
L 246.723601 345.675127 
L 248.052699 345.944843 
L 249.381798 345.944843 
L 250.710897 345.405411 
L 252.039996 345.944843 
L 257.356391 345.944843 
L 258.68549 342.977967 
L 260.014589 345.944843 
L 261.343688 345.944843 
L 262.672787 345.675127 
L 264.001886 345.944843 
L 265.330985 345.675127 
L 266.660083 345.135695 
L 267.989182 345.675127 
L 269.318281 345.675127 
L 270.64738 345.944843 
L 271.976479 345.944843 
L 273.305578 345.135695 
L 274.634676 345.944843 
L 275.963775 345.405411 
L 277.292874 345.405411 
L 278.621973 345.944843 
L 282.60927 345.944843 
L 283.938368 345.675127 
L 285.267467 345.944843 
L 286.596566 345.135695 
L 287.925665 345.944843 
L 290.583863 345.944843 
L 291.912961 345.405411 
L 293.24206 345.675127 
L 294.571159 345.405411 
L 295.900258 344.865979 
L 297.229357 343.787115 
L 298.558456 340.01109 
L 299.887555 345.944843 
L 301.216653 345.944843 
L 302.545752 345.135695 
L 303.874851 345.675127 
L 305.20395 344.596263 
L 306.533049 341.629386 
L 307.862148 345.944843 
L 309.191247 345.944843 
L 310.520345 344.326547 
L 311.849444 344.865979 
L 313.178543 343.247683 
L 314.507642 342.438534 
L 315.836741 345.944843 
L 318.494938 345.944843 
L 319.824037 340.280806 
L 321.153136 345.405411 
L 322.482235 344.865979 
L 323.811334 345.405411 
L 325.140433 345.675127 
L 326.469532 345.405411 
L 327.79863 345.944843 
L 330.456828 345.944843 
L 331.785927 345.675127 
L 333.115026 345.675127 
L 334.444125 345.944843 
L 335.773224 345.675127 
L 337.102322 345.944843 
L 339.76052 343.787115 
L 341.089619 345.135695 
L 342.418718 345.405411 
L 343.747817 344.596263 
L 345.076915 345.944843 
L 346.406014 345.944843 
L 347.735113 342.708251 
L 349.064212 345.405411 
L 350.393311 345.135695 
L 351.72241 345.405411 
L 353.051509 345.944843 
L 354.380607 345.135695 
L 355.709706 343.517399 
L 357.038805 344.056831 
L 358.367904 342.168818 
L 359.697003 343.787115 
L 361.026102 342.168818 
L 362.3552 345.944843 
L 363.684299 345.675127 
L 365.013398 344.326547 
L 366.342497 345.944843 
L 367.671596 341.629386 
L 369.000695 341.899102 
L 370.329794 338.392794 
L 371.658892 339.201942 
L 372.987991 342.168818 
L 374.31709 345.944843 
L 375.646189 334.616769 
L 376.975288 340.820238 
L 378.304387 340.01109 
L 379.633486 317.624659 
L 380.962584 328.952733 
L 382.291683 345.944843 
L 383.620782 331.649893 
L 384.949881 322.479548 
L 386.27898 325.176708 
L 387.608079 309.263462 
L 388.937177 315.736647 
L 390.266276 331.110461 
L 391.595375 329.761881 
L 392.924474 345.944843 
L 394.253573 332.998473 
L 395.582672 331.919609 
L 396.911771 333.268189 
L 398.240869 328.143585 
L 400.899067 331.919609 
L 402.228166 345.944843 
L 403.557265 345.944843 
L 404.886364 334.616769 
L 406.215462 333.807621 
L 407.544561 322.209832 
L 408.87366 341.35967 
L 410.202759 338.392794 
L 411.531858 345.944843 
L 412.860957 336.235066 
L 414.190056 335.425918 
L 415.519154 333.268189 
L 416.848253 337.31393 
L 418.177352 338.123078 
L 419.506451 334.347053 
L 420.83555 345.944843 
L 422.164649 337.853362 
L 423.493748 334.347053 
L 424.822846 333.807621 
L 426.151945 338.392794 
L 427.481044 345.944843 
L 428.810143 321.400684 
L 430.139242 345.944843 
L 431.468341 336.235066 
L 432.797439 331.649893 
L 434.126538 333.807621 
L 435.455637 329.222449 
L 436.784736 327.873869 
L 438.113835 323.828128 
L 439.442934 345.944843 
L 440.772033 331.380177 
L 442.101131 328.413301 
L 443.43023 332.459041 
L 444.759329 328.143585 
L 446.088428 331.110461 
L 447.417527 327.873869 
L 448.746626 315.197215 
L 450.075724 345.944843 
L 451.404823 320.052104 
L 452.733922 325.71614 
L 454.063021 322.749264 
L 455.39212 316.006363 
L 456.721219 324.637276 
L 458.050318 330.301313 
L 459.379416 324.097844 
L 460.708515 310.881758 
L 462.037614 323.828128 
L 463.366713 322.209832 
L 464.695812 323.01898 
L 466.024911 336.774498 
L 467.35401 334.886486 
L 468.683108 313.578919 
L 470.012207 323.828128 
L 471.341306 332.998473 
L 472.670405 323.558412 
L 473.999504 324.637276 
L 475.328603 331.649893 
L 476.657701 343.517399 
L 477.9868 345.135695 
L 479.315899 313.848635 
L 480.644998 321.400684 
L 481.974097 318.703523 
L 483.303196 326.255572 
L 484.632295 336.235066 
L 485.961393 313.578919 
L 487.290492 281.212994 
L 488.619591 297.126241 
L 489.94869 318.703523 
L 491.277789 320.32182 
L 492.606888 325.985856 
L 493.935987 334.886486 
L 495.265085 303.869141 
L 496.594184 331.380177 
L 497.923283 330.031597 
L 499.252382 315.736647 
L 500.581481 327.06472 
L 501.91058 336.235066 
L 503.239678 339.471658 
L 504.568777 326.255572 
L 505.897876 331.649893 
L 507.226975 331.649893 
L 508.556074 332.459041 
L 509.885173 334.347053 
L 511.214272 340.550522 
L 512.54337 342.168818 
L 513.872469 336.235066 
L 515.201568 336.774498 
L 516.530667 335.96535 
L 517.859766 337.583646 
L 519.188865 340.01109 
L 520.517963 341.35967 
L 521.847062 345.944843 
L 523.176161 345.944843 
L 524.50526 329.761881 
L 525.834359 345.944843 
L 527.163458 340.550522 
L 528.492557 342.438534 
L 529.821655 338.66251 
L 531.150754 345.944843 
L 532.479853 345.944843 
L 533.808952 330.301313 
L 535.138051 342.708251 
L 536.46715 340.820238 
L 537.796249 341.899102 
L 539.125347 343.247683 
L 540.454446 345.944843 
L 541.783545 345.944843 
L 543.112644 341.089954 
L 544.441743 338.66251 
L 545.770842 340.820238 
L 547.09994 343.517399 
L 548.429039 345.405411 
L 551.087237 346.484275 
L 552.416336 341.899102 
L 553.745435 342.708251 
L 555.074534 341.899102 
L 556.403632 345.944843 
L 557.732731 341.089954 
L 559.06183 345.944843 
L 560.390929 345.944843 
L 561.720028 341.089954 
L 563.049127 342.438534 
L 564.378225 340.280806 
L 565.707324 343.787115 
L 567.036423 342.438534 
L 568.365522 345.944843 
L 569.694621 345.944843 
L 571.02372 339.471658 
L 572.352819 344.326547 
L 573.681917 341.899102 
L 575.011016 342.438534 
L 576.340115 341.35967 
L 577.669214 345.944843 
L 580.327412 345.944843 
L 581.656511 334.886486 
L 582.985609 344.326547 
L 584.314708 345.944843 
L 585.643807 338.932226 
L 586.972906 345.944843 
L 588.302005 345.944843 
L 589.631104 344.056831 
L 590.960202 342.708251 
L 592.289301 345.405411 
L 593.6184 344.865979 
L 594.947499 344.056831 
L 596.276598 345.944843 
L 597.605697 345.944843 
L 598.934796 338.123078 
L 600.263894 345.405411 
L 601.592993 343.787115 
L 602.922092 344.865979 
L 604.251191 342.168818 
L 605.58029 345.944843 
L 606.909389 345.944843 
L 608.238487 338.392794 
L 609.567586 343.517399 
L 610.896685 345.944843 
L 612.225784 342.438534 
L 613.554883 345.135695 
L 614.883982 345.944843 
L 616.213081 345.944843 
L 617.542179 343.247683 
L 618.871278 345.405411 
L 621.529476 345.405411 
L 622.858575 343.247683 
L 624.187674 345.944843 
L 625.516773 345.944843 
L 626.845871 342.708251 
L 628.17497 345.944843 
L 629.504069 345.405411 
L 630.833168 345.944843 
L 632.162267 344.596263 
L 633.491366 345.675127 
L 636.149563 345.675127 
L 637.478662 344.596263 
L 638.807761 345.135695 
L 641.465959 345.675127 
L 642.795058 345.675127 
L 644.124156 345.944843 
L 645.453255 345.405411 
L 646.782354 345.675127 
L 648.111453 344.865979 
L 649.440552 345.405411 
L 650.769651 343.247683 
L 652.09875 345.944843 
L 653.427848 345.944843 
L 654.756947 344.596263 
L 656.086046 345.944843 
L 657.415145 345.135695 
L 658.744244 344.865979 
L 660.073343 345.944843 
L 662.73154 345.944843 
L 664.060639 344.865979 
L 665.389738 344.596263 
L 666.718837 345.944843 
L 668.047936 344.596263 
L 669.377035 345.135695 
L 670.706133 345.135695 
L 672.035232 345.944843 
L 673.364331 344.865979 
L 674.69343 345.675127 
L 677.351628 345.135695 
L 678.680726 345.405411 
L 680.009825 344.865979 
L 681.338924 345.944843 
L 682.668023 344.056831 
L 683.997122 345.405411 
L 685.326221 345.135695 
L 686.65532 345.405411 
L 687.984418 345.135695 
L 689.313517 345.405411 
L 690.642616 345.405411 
L 691.971715 344.596263 
L 693.300814 344.596263 
L 694.629913 344.865979 
L 695.959012 344.596263 
L 697.28811 345.135695 
L 698.617209 344.326547 
L 699.946308 344.865979 
L 701.275407 343.247683 
L 702.604506 344.596263 
L 703.933605 342.438534 
L 705.262703 342.708251 
L 706.591802 345.405411 
L 707.920901 344.865979 
L 709.25 345.944843 
L 711.908198 341.629386 
L 714.566395 343.787115 
L 715.895494 344.596263 
L 717.224593 342.977967 
L 718.553692 344.326547 
L 719.882791 343.787115 
L 721.21189 341.899102 
L 722.540988 342.708251 
L 723.870087 344.865979 
L 725.199186 342.168818 
L 726.528285 345.944843 
L 727.857384 345.944843 
L 729.186483 343.517399 
L 730.515582 345.675127 
L 731.84468 341.35967 
L 733.173779 345.405411 
L 734.502878 338.66251 
L 735.831977 345.944843 
L 737.161076 345.675127 
L 738.490175 342.708251 
L 739.819274 344.326547 
L 741.148372 343.517399 
L 742.477471 344.326547 
L 743.80657 344.056831 
L 745.135669 345.944843 
L 746.464768 345.135695 
L 747.793867 345.405411 
L 749.122965 344.596263 
L 750.452064 345.405411 
L 751.781163 342.977967 
L 753.110262 345.405411 
L 754.439361 345.944843 
L 757.097559 345.944843 
L 758.426657 341.35967 
L 759.755756 342.168818 
L 761.084855 344.326547 
L 762.413954 342.977967 
L 763.743053 345.944843 
L 765.072152 345.944843 
L 766.40125 344.326547 
L 767.730349 344.596263 
L 769.059448 343.517399 
L 770.388547 344.326547 
L 771.717646 344.326547 
L 773.046745 345.944843 
L 774.375844 345.944843 
L 775.704942 343.787115 
L 777.034041 344.056831 
L 778.36314 343.247683 
L 779.692239 344.596263 
L 781.021338 345.675127 
L 782.350437 345.944843 
L 783.679536 345.944843 
L 785.008634 341.35967 
L 786.337733 340.550522 
L 787.666832 344.326547 
L 788.995931 344.326547 
L 790.32503 342.708251 
L 791.654129 345.944843 
L 792.983227 345.944843 
L 794.312326 341.629386 
L 795.641425 344.865979 
L 796.970524 343.517399 
L 798.299623 343.517399 
L 799.628722 344.056831 
L 800.957821 345.944843 
L 803.616018 345.944843 
L 804.945117 340.280806 
L 806.274216 342.168818 
L 807.603315 341.899102 
L 808.932414 343.787115 
L 810.261513 345.944843 
L 811.590611 345.944843 
L 812.91971 339.741374 
L 814.248809 342.438534 
L 815.577908 344.865979 
L 816.907007 345.405411 
L 818.236106 344.865979 
L 819.565204 345.944843 
L 820.894303 345.944843 
L 822.223402 345.675127 
L 823.552501 343.787115 
L 824.8816 345.944843 
L 826.210699 342.168818 
L 827.539798 345.675127 
L 828.868896 345.944843 
L 830.197995 345.944843 
L 831.527094 344.596263 
L 832.856193 343.787115 
L 834.185292 343.787115 
L 835.514391 344.056831 
L 836.843489 342.708251 
L 838.172588 345.944843 
L 839.501687 345.944843 
L 840.830786 339.741374 
L 842.159885 338.123078 
L 843.488984 337.853362 
L 844.818083 338.123078 
L 846.147181 340.280806 
L 847.47628 345.944843 
L 848.805379 345.944843 
L 850.134478 331.919609 
L 851.463577 334.077337 
L 852.792676 332.998473 
L 854.121775 332.998473 
L 855.450873 333.537905 
L 856.779972 345.944843 
L 858.109071 345.944843 
L 859.43817 317.085227 
L 860.767269 328.952733 
L 862.096368 335.96535 
L 863.425466 323.828128 
L 864.754565 319.512671 
L 866.083664 345.944843 
L 867.412763 320.052104 
L 868.741862 321.130968 
L 870.070961 311.960622 
L 871.40006 306.296586 
L 872.729158 316.815511 
L 874.058257 297.665673 
L 875.387356 316.545795 
L 876.716455 323.288696 
L 878.045554 315.197215 
L 879.374653 290.38334 
L 880.703751 297.126241 
L 882.03285 300.362833 
L 883.361949 292.810784 
L 884.691048 345.944843 
L 886.020147 295.77766 
L 887.349246 345.675127 
L 888.678345 291.73192 
L 890.007443 258.287131 
L 891.336542 287.955895 
L 892.665641 293.889648 
L 893.99474 327.873869 
L 895.323839 323.01898 
L 896.652938 299.014253 
L 897.982037 286.877031 
L 899.311135 291.462204 
L 900.640234 299.823401 
L 901.969333 290.922772 
L 903.298432 321.940116 
L 904.627531 320.591536 
L 905.95663 311.42119 
L 907.285728 292.271352 
L 908.614827 308.72403 
L 909.943926 318.703523 
L 911.273025 305.487438 
L 912.602124 345.944843 
L 913.931223 311.960622 
L 915.260322 302.250845 
L 916.58942 300.362833 
L 917.918519 294.159364 
L 919.247618 307.105734 
L 920.576717 311.690906 
L 921.905816 323.288696 
L 923.234915 316.276079 
L 924.564013 318.164091 
L 925.893112 301.441697 
L 927.222211 303.059993 
L 928.55131 308.72403 
L 929.880409 310.612042 
L 931.209508 345.944843 
L 932.538607 345.944843 
L 933.867705 287.146747 
L 935.196804 296.047376 
L 936.525903 309.802894 
L 937.855002 320.32182 
L 939.184101 317.624659 
L 940.5132 345.944843 
L 941.842299 345.944843 
L 943.171397 293.0805 
L 944.500496 301.981129 
L 945.829595 313.039487 
L 947.158694 318.164091 
L 948.487793 320.861252 
L 949.816892 336.235066 
L 951.14599 336.504782 
L 952.475089 311.42119 
L 953.804188 304.948006 
L 955.133287 313.309203 
L 956.462386 320.052104 
L 957.791485 316.006363 
L 959.120584 336.235066 
L 960.449682 340.280806 
L 961.778781 324.906992 
L 963.10788 336.504782 
L 964.436979 321.940116 
L 965.766078 319.782388 
L 967.095177 324.637276 
L 968.424276 335.695634 
L 969.753374 341.899102 
L 971.082473 332.728757 
L 972.411572 328.683017 
L 973.740671 322.209832 
L 975.06977 345.944843 
L 976.398869 339.741374 
L 977.727967 338.392794 
L 979.057066 340.01109 
L 980.386165 338.123078 
L 981.715264 334.886486 
L 983.044363 337.31393 
L 984.373462 339.201942 
L 985.702561 339.201942 
L 987.031659 344.865979 
L 988.360758 345.944843 
L 989.689857 332.998473 
L 991.018956 345.944843 
L 992.348055 338.123078 
L 993.677154 343.517399 
L 995.006252 345.944843 
L 996.335351 343.787115 
L 997.66445 345.944843 
L 998.993549 341.629386 
L 1000.322648 340.550522 
L 1001.651747 341.899102 
L 1002.980846 342.438534 
L 1004.309944 342.708251 
L 1005.639043 343.787115 
L 1006.968142 345.675127 
L 1008.297241 340.01109 
L 1009.62634 341.35967 
L 1010.955439 345.944843 
L 1012.284538 342.438534 
L 1013.613636 344.056831 
L 1014.942735 345.944843 
L 1016.271834 345.675127 
L 1017.600933 341.35967 
L 1018.930032 341.899102 
L 1020.259131 343.787115 
L 1021.588229 343.517399 
L 1022.917328 343.517399 
L 1024.246427 344.326547 
L 1025.575526 345.944843 
L 1026.904625 341.089954 
L 1028.233724 341.35967 
L 1029.562823 344.056831 
L 1030.891921 342.438534 
L 1032.22102 344.596263 
L 1033.550119 345.944843 
L 1034.879218 345.944843 
L 1036.208317 338.932226 
L 1037.537416 334.347053 
L 1038.866514 337.853362 
L 1040.195613 325.446424 
L 1041.524712 345.944843 
L 1042.853811 342.977967 
L 1044.18291 345.944843 
L 1045.512009 326.795004 
L 1046.841108 289.304475 
L 1048.170206 294.968512 
L 1049.499305 275.009526 
L 1050.828404 280.403846 
L 1052.157503 320.591536 
L 1053.486602 313.309203 
L 1054.815701 262.602588 
L 1056.1448 232.124676 
L 1057.473898 206.771369 
L 1058.802997 231.85496 
L 1060.132096 174.405444 
L 1061.461195 345.944843 
L 1062.790294 291.192488 
L 1064.119393 275.009526 
L 1065.448491 174.135728 
L 1066.77759 126.126274 
L 1068.106689 150.670433 
L 1069.435788 50.8755 
L 1070.764887 345.944843 
L 1072.093986 345.944843 
L 1073.423085 71.373919 
L 1074.752183 141.230372 
L 1076.081282 116.686213 
L 1077.410381 145.545829 
L 1078.73948 125.586842 
L 1080.068579 139.34236 
L 1081.397678 345.944843 
L 1082.726776 203.804492 
L 1084.055875 136.375483 
L 1085.384974 162.537939 
L 1086.714073 124.238262 
L 1088.043172 140.421224 
L 1089.372271 238.867577 
L 1090.70137 253.162527 
L 1092.030468 211.356541 
L 1093.359567 118.304509 
L 1094.688666 185.733518 
L 1096.017765 178.181469 
L 1097.346864 84.85972 
L 1098.675963 345.944843 
L 1100.005062 252.892811 
L 1101.33416 266.378612 
L 1102.663259 181.148345 
L 1103.992358 212.435405 
L 1105.321457 239.676725 
L 1106.650556 177.911753 
L 1107.979655 345.944843 
L 1110.637852 272.042649 
L 1111.966951 239.946441 
L 1113.29605 251.813947 
L 1114.625149 271.503217 
L 1115.954248 271.772933 
L 1117.283347 283.101007 
L 1118.612445 345.944843 
L 1119.941544 345.944843 
L 1121.270643 210.547393 
L 1122.599742 284.989019 
L 1123.928841 300.362833 
L 1125.25794 293.619932 
L 1126.587039 331.380177 
L 1127.916137 331.649893 
L 1129.245236 345.944843 
L 1130.574335 266.378612 
L 1131.903434 301.981129 
L 1133.232533 345.944843 
L 1134.561632 265.299748 
L 1135.89073 337.31393 
L 1137.219829 345.944843 
L 1138.548928 324.36756 
L 1139.878027 314.388067 
L 1141.207126 328.413301 
L 1142.536225 330.571029 
L 1143.865324 326.255572 
L 1145.194422 345.944843 
L 1146.523521 344.056831 
L 1147.85262 324.637276 
L 1149.181719 323.288696 
L 1150.510818 332.728757 
L 1151.839917 327.873869 
L 1153.169015 327.334437 
L 1154.498114 345.944843 
L 1155.827213 345.405411 
L 1157.156312 334.616769 
L 1158.485411 330.031597 
L 1159.81451 335.425918 
L 1161.143609 333.807621 
L 1162.472707 328.413301 
L 1163.801806 344.056831 
L 1165.130905 345.944843 
L 1166.460004 332.728757 
L 1167.789103 334.347053 
L 1169.118202 337.044214 
L 1170.447301 331.919609 
L 1171.776399 335.425918 
L 1173.105498 342.708251 
L 1174.434597 345.944843 
L 1175.763696 336.774498 
L 1177.092795 337.31393 
L 1178.421894 339.471658 
L 1179.750992 338.66251 
L 1181.080091 334.347053 
L 1182.40919 345.944843 
L 1183.738289 342.438534 
L 1185.067388 335.695634 
L 1186.396487 332.459041 
L 1187.725586 333.807621 
L 1189.054684 337.583646 
L 1190.383783 335.96535 
L 1191.712882 344.596263 
L 1193.041981 345.944843 
L 1194.37108 338.123078 
L 1195.700179 333.268189 
L 1197.029277 333.268189 
L 1198.358376 333.537905 
L 1199.687475 339.471658 
L 1201.016574 344.596263 
L 1202.345673 345.944843 
L 1203.674772 345.944843 
L 1205.003871 315.736647 
L 1206.332969 338.392794 
L 1207.662068 340.550522 
L 1208.991167 340.280806 
L 1210.320266 345.944843 
L 1211.649365 345.944843 
L 1212.978464 333.537905 
L 1214.307563 337.31393 
L 1215.636661 337.853362 
L 1216.96576 335.695634 
L 1218.294859 338.66251 
L 1219.623958 345.944843 
L 1220.953057 345.944843 
L 1222.282156 333.537905 
L 1223.611254 333.537905 
L 1224.940353 339.741374 
L 1226.269452 331.110461 
L 1227.598551 340.01109 
L 1228.92765 345.944843 
L 1230.256749 345.944843 
L 1231.585848 325.985856 
L 1232.914946 328.413301 
L 1234.244045 335.695634 
L 1235.573144 334.616769 
L 1236.902243 329.492165 
L 1238.231342 345.944843 
L 1240.889539 345.944843 
L 1242.218638 322.209832 
L 1243.547737 318.973239 
L 1244.876836 317.354943 
L 1246.205935 329.222449 
L 1247.535034 345.944843 
L 1248.864133 345.944843 
L 1250.193231 305.757154 
L 1251.52233 320.32182 
L 1252.851429 305.487438 
L 1254.180528 329.492165 
L 1255.509627 303.869141 
L 1256.838726 345.944843 
L 1258.167825 345.944843 
L 1259.496923 296.047376 
L 1260.826022 319.782388 
L 1262.155121 306.296586 
L 1263.48422 313.309203 
L 1264.813319 312.769771 
L 1266.142418 345.944843 
L 1267.471516 345.944843 
L 1268.800615 301.441697 
L 1270.129714 315.197215 
L 1271.458813 313.039487 
L 1272.787912 325.71614 
L 1274.117011 305.487438 
L 1275.44611 345.944843 
L 1276.775208 345.944843 
L 1278.104307 291.192488 
L 1279.433406 305.217722 
L 1280.762505 297.126241 
L 1282.091604 311.151474 
L 1283.420703 300.362833 
L 1284.749802 345.944843 
L 1287.407999 345.944843 
L 1288.737098 266.108896 
L 1290.066197 304.408573 
L 1291.395296 311.690906 
L 1292.724395 297.665673 
L 1294.053493 345.944843 
L 1295.382592 345.944843 
L 1296.711691 280.403846 
L 1298.04079 306.02687 
L 1299.369889 305.757154 
L 1300.698988 320.052104 
L 1300.698988 320.052104 
" clip-path="url(#p8b172fb526)" style="fill: none; stroke: #0000ff; stroke-width: 1.5; stroke-linecap: square"/>
   </g>
   <g id="line2d_19">
    <path d="M 1061.461195 251.321603 
L 1062.790294 217.939355 
L 1064.119393 216.137195 
L 1065.448491 209.88051 
L 1066.77759 222.032666 
L 1068.106689 173.948246 
L 1069.435788 259.393273 
L 1070.764887 210.700226 
L 1072.093986 188.081002 
L 1073.423085 158.849881 
L 1074.752183 133.987815 
L 1076.081282 120.69798 
L 1077.410381 59.382942 
L 1078.73948 253.475449 
L 1080.068579 255.759969 
L 1081.397678 93.965347 
L 1082.726776 106.767132 
L 1084.055875 116.372452 
L 1085.384974 152.794994 
L 1086.714073 127.185079 
L 1088.043172 179.729284 
L 1089.372271 290.920749 
L 1090.70137 183.617408 
L 1092.030468 156.460085 
L 1093.359567 159.663222 
L 1094.688666 144.629461 
L 1096.017765 144.435661 
L 1097.346864 219.878911 
L 1098.675963 252.180704 
L 1100.005062 202.820403 
L 1101.33416 165.416957 
L 1102.663259 205.882988 
L 1103.992358 206.537909 
L 1105.321457 155.307802 
L 1106.650556 320.83739 
L 1107.979655 282.568733 
L 1109.308753 283.278373 
L 1110.637852 226.085247 
L 1111.966951 254.345232 
L 1113.29605 266.111241 
L 1114.625149 221.949728 
L 1115.954248 353.119964 
L 1117.283347 326.855585 
L 1118.612445 306.661584 
L 1119.941544 262.832973 
L 1121.270643 285.724213 
L 1122.599742 301.399471 
L 1123.928841 279.643422 
L 1125.25794 317.789033 
L 1126.587039 348.949852 
L 1127.916137 346.937299 
L 1129.245236 262.615308 
L 1130.574335 304.149567 
L 1131.903434 317.231704 
L 1133.232533 311.885086 
L 1134.561632 343.142884 
L 1135.89073 349.753039 
L 1137.219829 347.628787 
L 1138.548928 284.987898 
L 1141.207126 340.027007 
L 1142.536225 300.101513 
L 1143.865324 347.452134 
L 1145.194422 353.2755 
L 1146.523521 347.263534 
L 1147.85262 325.227302 
L 1149.181719 335.900242 
L 1150.510818 340.503151 
L 1151.839917 328.452496 
L 1153.169015 348.631979 
L 1154.498114 346.866111 
L 1155.827213 333.854271 
L 1157.156312 328.372287 
L 1158.485411 336.806236 
L 1159.81451 336.067137 
L 1161.143609 333.006023 
L 1162.472707 347.821588 
L 1163.801806 346.8941 
L 1165.130905 336.920772 
L 1166.460004 332.79144 
L 1167.789103 337.456839 
L 1169.118202 335.835748 
L 1170.447301 332.494538 
L 1171.776399 344.299803 
L 1173.105498 344.954466 
L 1174.434597 335.992933 
L 1175.763696 335.80772 
L 1177.092795 338.661045 
L 1178.421894 335.758084 
L 1179.750992 337.145883 
L 1181.080091 344.30905 
L 1182.40919 346.502136 
L 1183.738289 338.758599 
L 1185.067388 339.095993 
L 1186.396487 339.977378 
L 1187.725586 337.910602 
L 1189.054684 334.368244 
L 1190.383783 341.867323 
L 1191.712882 340.822316 
L 1193.041981 335.880546 
L 1194.37108 334.850207 
L 1195.700179 336.850247 
L 1197.029277 338.638749 
L 1198.358376 336.504338 
L 1199.687475 342.296048 
L 1201.016574 342.463004 
L 1202.345673 337.784336 
L 1203.674772 335.140702 
L 1205.003871 336.501499 
L 1207.662068 336.102789 
L 1208.991167 342.243718 
L 1210.320266 344.351113 
L 1211.649365 343.540006 
L 1212.978464 326.163935 
L 1214.307563 338.216252 
L 1215.636661 338.980876 
L 1216.96576 341.77729 
L 1218.294859 345.086715 
L 1219.623958 344.233239 
L 1220.953057 336.870821 
L 1222.282156 335.583066 
L 1223.611254 338.611008 
L 1224.940353 336.8428 
L 1226.269452 338.647072 
L 1227.598551 343.523155 
L 1228.92765 342.718019 
L 1230.256749 334.777384 
L 1231.585848 335.079142 
L 1232.914946 338.747432 
L 1234.244045 331.481052 
L 1236.902243 340.993411 
L 1238.231342 340.975749 
L 1239.560441 326.933166 
L 1240.889539 329.75904 
L 1242.218638 337.226494 
L 1243.547737 337.270399 
L 1244.876836 331.634181 
L 1246.205935 337.61558 
L 1247.535034 335.715436 
L 1248.864133 334.410994 
L 1250.193231 323.592804 
L 1251.52233 321.08913 
L 1252.851429 314.46015 
L 1254.180528 320.525984 
L 1255.509627 331.993527 
L 1256.838726 333.233726 
L 1258.167825 307.789341 
L 1259.496923 317.150369 
L 1260.826022 308.989265 
L 1262.155121 319.669289 
L 1263.48422 307.394675 
L 1264.813319 333.060988 
L 1266.142418 332.483199 
L 1267.471516 301.390782 
L 1268.800615 319.051103 
L 1270.129714 310.651764 
L 1271.458813 316.384117 
L 1272.787912 312.81267 
L 1274.117011 339.140987 
L 1275.44611 339.732258 
L 1276.775208 305.906183 
L 1278.104307 318.98025 
L 1279.433406 315.048646 
L 1280.762505 319.707247 
L 1282.091604 304.604215 
L 1283.420703 330.580083 
L 1284.749802 329.82332 
L 1286.0789 292.788335 
L 1287.407999 307.141871 
L 1288.737098 308.406598 
L 1290.066197 321.45374 
L 1291.395296 302.929186 
L 1292.724395 335.571323 
L 1294.053493 334.927704 
L 1295.382592 326.562465 
L 1296.711691 286.538996 
L 1298.04079 303.897076 
L 1299.369889 304.152425 
L 1300.698988 300.075426 
L 1300.698988 300.075426 
" clip-path="url(#p8b172fb526)" style="fill: none; stroke: #ffa500; stroke-width: 1.5; stroke-linecap: square"/>
   </g>
   <g id="line2d_20">
    <path d="M 1300.698988 300.075426 
L 1302.028087 335.930752 
L 1303.357185 337.366144 
L 1304.686284 297.63218 
L 1306.015383 302.587126 
L 1307.344482 307.117218 
L 1308.673581 316.615995 
L 1310.00268 303.055369 
L 1311.331778 331.070598 
L 1312.660877 331.887015 
L 1313.989976 300.665704 
L 1315.319075 304.595484 
L 1316.648174 308.141048 
L 1317.977273 315.641852 
" clip-path="url(#p8b172fb526)" style="fill: none; stroke: #ff0000; stroke-width: 1.5; stroke-linecap: square"/>
   </g>
   <g id="patch_3">
    <path d="M 39.65 368.3955 
L 39.65 35.7555 
" style="fill: none; stroke: #000000; stroke-width: 0.8; stroke-linejoin: miter; stroke-linecap: square"/>
   </g>
   <g id="patch_4">
    <path d="M 1378.85 368.3955 
L 1378.85 35.7555 
" style="fill: none; stroke: #000000; stroke-width: 0.8; stroke-linejoin: miter; stroke-linecap: square"/>
   </g>
   <g id="patch_5">
    <path d="M 39.65 368.3955 
L 1378.85 368.3955 
" style="fill: none; stroke: #000000; stroke-width: 0.8; stroke-linejoin: miter; stroke-linecap: square"/>
   </g>
   <g id="patch_6">
    <path d="M 39.65 35.7555 
L 1378.85 35.7555 
" style="fill: none; stroke: #000000; stroke-width: 0.8; stroke-linejoin: miter; stroke-linecap: square"/>
   </g>
   <g id="text_18">
    <!-- Daily Confirmed Cases Forecasting - Guam -->
    <g transform="translate(580.776875 16.318125)scale(0.12 -0.12)">
     <defs>
      <path id="DejaVuSans-44" d="M 1259 4147 
L 1259 519 
L 2022 519 
Q 2988 519 3436 956 
Q 3884 1394 3884 2338 
Q 3884 3275 3436 3711 
Q 2988 4147 2022 4147 
L 1259 4147 
z
M 628 4666 
L 1925 4666 
Q 3281 4666 3915 4102 
Q 4550 3538 4550 2338 
Q 4550 1131 3912 565 
Q 3275 0 1925 0 
L 628 0 
L 628 4666 
z
" transform="scale(0.015625)"/>
      <path id="DejaVuSans-61" d="M 2194 1759 
Q 1497 1759 1228 1600 
Q 959 1441 959 1056 
Q 959 750 1161 570 
Q 1363 391 1709 391 
Q 2188 391 2477 730 
Q 2766 1069 2766 1631 
L 2766 1759 
L 2194 1759 
z
M 3341 1997 
L 3341 0 
L 2766 0 
L 2766 531 
Q 2569 213 2275 61 
Q 1981 -91 1556 -91 
Q 1019 -91 701 211 
Q 384 513 384 1019 
Q 384 1609 779 1909 
Q 1175 2209 1959 2209 
L 2766 2209 
L 2766 2266 
Q 2766 2663 2505 2880 
Q 2244 3097 1772 3097 
Q 1472 3097 1187 3025 
Q 903 2953 641 2809 
L 641 3341 
Q 956 3463 1253 3523 
Q 1550 3584 1831 3584 
Q 2591 3584 2966 3190 
Q 3341 2797 3341 1997 
z
" transform="scale(0.015625)"/>
      <path id="DejaVuSans-69" d="M 603 3500 
L 1178 3500 
L 1178 0 
L 603 0 
L 603 3500 
z
M 603 4863 
L 1178 4863 
L 1178 4134 
L 603 4134 
L 603 4863 
z
" transform="scale(0.015625)"/>
      <path id="DejaVuSans-6c" d="M 603 4863 
L 1178 4863 
L 1178 0 
L 603 0 
L 603 4863 
z
" transform="scale(0.015625)"/>
      <path id="DejaVuSans-79" d="M 2059 -325 
Q 1816 -950 1584 -1140 
Q 1353 -1331 966 -1331 
L 506 -1331 
L 506 -850 
L 844 -850 
Q 1081 -850 1212 -737 
Q 1344 -625 1503 -206 
L 1606 56 
L 191 3500 
L 800 3500 
L 1894 763 
L 2988 3500 
L 3597 3500 
L 2059 -325 
z
" transform="scale(0.015625)"/>
      <path id="DejaVuSans-20" transform="scale(0.015625)"/>
      <path id="DejaVuSans-43" d="M 4122 4306 
L 4122 3641 
Q 3803 3938 3442 4084 
Q 3081 4231 2675 4231 
Q 1875 4231 1450 3742 
Q 1025 3253 1025 2328 
Q 1025 1406 1450 917 
Q 1875 428 2675 428 
Q 3081 428 3442 575 
Q 3803 722 4122 1019 
L 4122 359 
Q 3791 134 3420 21 
Q 3050 -91 2638 -91 
Q 1578 -91 968 557 
Q 359 1206 359 2328 
Q 359 3453 968 4101 
Q 1578 4750 2638 4750 
Q 3056 4750 3426 4639 
Q 3797 4528 4122 4306 
z
" transform="scale(0.015625)"/>
      <path id="DejaVuSans-6f" d="M 1959 3097 
Q 1497 3097 1228 2736 
Q 959 2375 959 1747 
Q 959 1119 1226 758 
Q 1494 397 1959 397 
Q 2419 397 2687 759 
Q 2956 1122 2956 1747 
Q 2956 2369 2687 2733 
Q 2419 3097 1959 3097 
z
M 1959 3584 
Q 2709 3584 3137 3096 
Q 3566 2609 3566 1747 
Q 3566 888 3137 398 
Q 2709 -91 1959 -91 
Q 1206 -91 779 398 
Q 353 888 353 1747 
Q 353 2609 779 3096 
Q 1206 3584 1959 3584 
z
" transform="scale(0.015625)"/>
      <path id="DejaVuSans-6e" d="M 3513 2113 
L 3513 0 
L 2938 0 
L 2938 2094 
Q 2938 2591 2744 2837 
Q 2550 3084 2163 3084 
Q 1697 3084 1428 2787 
Q 1159 2491 1159 1978 
L 1159 0 
L 581 0 
L 581 3500 
L 1159 3500 
L 1159 2956 
Q 1366 3272 1645 3428 
Q 1925 3584 2291 3584 
Q 2894 3584 3203 3211 
Q 3513 2838 3513 2113 
z
" transform="scale(0.015625)"/>
      <path id="DejaVuSans-66" d="M 2375 4863 
L 2375 4384 
L 1825 4384 
Q 1516 4384 1395 4259 
Q 1275 4134 1275 3809 
L 1275 3500 
L 2222 3500 
L 2222 3053 
L 1275 3053 
L 1275 0 
L 697 0 
L 697 3053 
L 147 3053 
L 147 3500 
L 697 3500 
L 697 3744 
Q 697 4328 969 4595 
Q 1241 4863 1831 4863 
L 2375 4863 
z
" transform="scale(0.015625)"/>
      <path id="DejaVuSans-72" d="M 2631 2963 
Q 2534 3019 2420 3045 
Q 2306 3072 2169 3072 
Q 1681 3072 1420 2755 
Q 1159 2438 1159 1844 
L 1159 0 
L 581 0 
L 581 3500 
L 1159 3500 
L 1159 2956 
Q 1341 3275 1631 3429 
Q 1922 3584 2338 3584 
Q 2397 3584 2469 3576 
Q 2541 3569 2628 3553 
L 2631 2963 
z
" transform="scale(0.015625)"/>
      <path id="DejaVuSans-6d" d="M 3328 2828 
Q 3544 3216 3844 3400 
Q 4144 3584 4550 3584 
Q 5097 3584 5394 3201 
Q 5691 2819 5691 2113 
L 5691 0 
L 5113 0 
L 5113 2094 
Q 5113 2597 4934 2840 
Q 4756 3084 4391 3084 
Q 3944 3084 3684 2787 
Q 3425 2491 3425 1978 
L 3425 0 
L 2847 0 
L 2847 2094 
Q 2847 2600 2669 2842 
Q 2491 3084 2119 3084 
Q 1678 3084 1418 2786 
Q 1159 2488 1159 1978 
L 1159 0 
L 581 0 
L 581 3500 
L 1159 3500 
L 1159 2956 
Q 1356 3278 1631 3431 
Q 1906 3584 2284 3584 
Q 2666 3584 2933 3390 
Q 3200 3197 3328 2828 
z
" transform="scale(0.015625)"/>
      <path id="DejaVuSans-65" d="M 3597 1894 
L 3597 1613 
L 953 1613 
Q 991 1019 1311 708 
Q 1631 397 2203 397 
Q 2534 397 2845 478 
Q 3156 559 3463 722 
L 3463 178 
Q 3153 47 2828 -22 
Q 2503 -91 2169 -91 
Q 1331 -91 842 396 
Q 353 884 353 1716 
Q 353 2575 817 3079 
Q 1281 3584 2069 3584 
Q 2775 3584 3186 3129 
Q 3597 2675 3597 1894 
z
M 3022 2063 
Q 3016 2534 2758 2815 
Q 2500 3097 2075 3097 
Q 1594 3097 1305 2825 
Q 1016 2553 972 2059 
L 3022 2063 
z
" transform="scale(0.015625)"/>
      <path id="DejaVuSans-64" d="M 2906 2969 
L 2906 4863 
L 3481 4863 
L 3481 0 
L 2906 0 
L 2906 525 
Q 2725 213 2448 61 
Q 2172 -91 1784 -91 
Q 1150 -91 751 415 
Q 353 922 353 1747 
Q 353 2572 751 3078 
Q 1150 3584 1784 3584 
Q 2172 3584 2448 3432 
Q 2725 3281 2906 2969 
z
M 947 1747 
Q 947 1113 1208 752 
Q 1469 391 1925 391 
Q 2381 391 2643 752 
Q 2906 1113 2906 1747 
Q 2906 2381 2643 2742 
Q 2381 3103 1925 3103 
Q 1469 3103 1208 2742 
Q 947 2381 947 1747 
z
" transform="scale(0.015625)"/>
      <path id="DejaVuSans-73" d="M 2834 3397 
L 2834 2853 
Q 2591 2978 2328 3040 
Q 2066 3103 1784 3103 
Q 1356 3103 1142 2972 
Q 928 2841 928 2578 
Q 928 2378 1081 2264 
Q 1234 2150 1697 2047 
L 1894 2003 
Q 2506 1872 2764 1633 
Q 3022 1394 3022 966 
Q 3022 478 2636 193 
Q 2250 -91 1575 -91 
Q 1294 -91 989 -36 
Q 684 19 347 128 
L 347 722 
Q 666 556 975 473 
Q 1284 391 1588 391 
Q 1994 391 2212 530 
Q 2431 669 2431 922 
Q 2431 1156 2273 1281 
Q 2116 1406 1581 1522 
L 1381 1569 
Q 847 1681 609 1914 
Q 372 2147 372 2553 
Q 372 3047 722 3315 
Q 1072 3584 1716 3584 
Q 2034 3584 2315 3537 
Q 2597 3491 2834 3397 
z
" transform="scale(0.015625)"/>
      <path id="DejaVuSans-46" d="M 628 4666 
L 3309 4666 
L 3309 4134 
L 1259 4134 
L 1259 2759 
L 3109 2759 
L 3109 2228 
L 1259 2228 
L 1259 0 
L 628 0 
L 628 4666 
z
" transform="scale(0.015625)"/>
      <path id="DejaVuSans-63" d="M 3122 3366 
L 3122 2828 
Q 2878 2963 2633 3030 
Q 2388 3097 2138 3097 
Q 1578 3097 1268 2742 
Q 959 2388 959 1747 
Q 959 1106 1268 751 
Q 1578 397 2138 397 
Q 2388 397 2633 464 
Q 2878 531 3122 666 
L 3122 134 
Q 2881 22 2623 -34 
Q 2366 -91 2075 -91 
Q 1284 -91 818 406 
Q 353 903 353 1747 
Q 353 2603 823 3093 
Q 1294 3584 2113 3584 
Q 2378 3584 2631 3529 
Q 2884 3475 3122 3366 
z
" transform="scale(0.015625)"/>
      <path id="DejaVuSans-74" d="M 1172 4494 
L 1172 3500 
L 2356 3500 
L 2356 3053 
L 1172 3053 
L 1172 1153 
Q 1172 725 1289 603 
Q 1406 481 1766 481 
L 2356 481 
L 2356 0 
L 1766 0 
Q 1100 0 847 248 
Q 594 497 594 1153 
L 594 3053 
L 172 3053 
L 172 3500 
L 594 3500 
L 594 4494 
L 1172 4494 
z
" transform="scale(0.015625)"/>
      <path id="DejaVuSans-67" d="M 2906 1791 
Q 2906 2416 2648 2759 
Q 2391 3103 1925 3103 
Q 1463 3103 1205 2759 
Q 947 2416 947 1791 
Q 947 1169 1205 825 
Q 1463 481 1925 481 
Q 2391 481 2648 825 
Q 2906 1169 2906 1791 
z
M 3481 434 
Q 3481 -459 3084 -895 
Q 2688 -1331 1869 -1331 
Q 1566 -1331 1297 -1286 
Q 1028 -1241 775 -1147 
L 775 -588 
Q 1028 -725 1275 -790 
Q 1522 -856 1778 -856 
Q 2344 -856 2625 -561 
Q 2906 -266 2906 331 
L 2906 616 
Q 2728 306 2450 153 
Q 2172 0 1784 0 
Q 1141 0 747 490 
Q 353 981 353 1791 
Q 353 2603 747 3093 
Q 1141 3584 1784 3584 
Q 2172 3584 2450 3431 
Q 2728 3278 2906 2969 
L 2906 3500 
L 3481 3500 
L 3481 434 
z
" transform="scale(0.015625)"/>
      <path id="DejaVuSans-47" d="M 3809 666 
L 3809 1919 
L 2778 1919 
L 2778 2438 
L 4434 2438 
L 4434 434 
Q 4069 175 3628 42 
Q 3188 -91 2688 -91 
Q 1594 -91 976 548 
Q 359 1188 359 2328 
Q 359 3472 976 4111 
Q 1594 4750 2688 4750 
Q 3144 4750 3555 4637 
Q 3966 4525 4313 4306 
L 4313 3634 
Q 3963 3931 3569 4081 
Q 3175 4231 2741 4231 
Q 1884 4231 1454 3753 
Q 1025 3275 1025 2328 
Q 1025 1384 1454 906 
Q 1884 428 2741 428 
Q 3075 428 3337 486 
Q 3600 544 3809 666 
z
" transform="scale(0.015625)"/>
      <path id="DejaVuSans-75" d="M 544 1381 
L 544 3500 
L 1119 3500 
L 1119 1403 
Q 1119 906 1312 657 
Q 1506 409 1894 409 
Q 2359 409 2629 706 
Q 2900 1003 2900 1516 
L 2900 3500 
L 3475 3500 
L 3475 0 
L 2900 0 
L 2900 538 
Q 2691 219 2414 64 
Q 2138 -91 1772 -91 
Q 1169 -91 856 284 
Q 544 659 544 1381 
z
M 1991 3584 
L 1991 3584 
z
" transform="scale(0.015625)"/>
     </defs>
     <use xlink:href="#DejaVuSans-44"/>
     <use xlink:href="#DejaVuSans-61" x="77.001953"/>
     <use xlink:href="#DejaVuSans-69" x="138.28125"/>
     <use xlink:href="#DejaVuSans-6c" x="166.064453"/>
     <use xlink:href="#DejaVuSans-79" x="193.847656"/>
     <use xlink:href="#DejaVuSans-20" x="253.027344"/>
     <use xlink:href="#DejaVuSans-43" x="284.814453"/>
     <use xlink:href="#DejaVuSans-6f" x="354.638672"/>
     <use xlink:href="#DejaVuSans-6e" x="415.820312"/>
     <use xlink:href="#DejaVuSans-66" x="479.199219"/>
     <use xlink:href="#DejaVuSans-69" x="514.404297"/>
     <use xlink:href="#DejaVuSans-72" x="542.1875"/>
     <use xlink:href="#DejaVuSans-6d" x="581.550781"/>
     <use xlink:href="#DejaVuSans-65" x="678.962891"/>
     <use xlink:href="#DejaVuSans-64" x="740.486328"/>
     <use xlink:href="#DejaVuSans-20" x="803.962891"/>
     <use xlink:href="#DejaVuSans-43" x="835.75"/>
     <use xlink:href="#DejaVuSans-61" x="905.574219"/>
     <use xlink:href="#DejaVuSans-73" x="966.853516"/>
     <use xlink:href="#DejaVuSans-65" x="1018.953125"/>
     <use xlink:href="#DejaVuSans-73" x="1080.476562"/>
     <use xlink:href="#DejaVuSans-20" x="1132.576172"/>
     <use xlink:href="#DejaVuSans-46" x="1164.363281"/>
     <use xlink:href="#DejaVuSans-6f" x="1218.257812"/>
     <use xlink:href="#DejaVuSans-72" x="1279.439453"/>
     <use xlink:href="#DejaVuSans-65" x="1318.302734"/>
     <use xlink:href="#DejaVuSans-63" x="1379.826172"/>
     <use xlink:href="#DejaVuSans-61" x="1434.806641"/>
     <use xlink:href="#DejaVuSans-73" x="1496.085938"/>
     <use xlink:href="#DejaVuSans-74" x="1548.185547"/>
     <use xlink:href="#DejaVuSans-69" x="1587.394531"/>
     <use xlink:href="#DejaVuSans-6e" x="1615.177734"/>
     <use xlink:href="#DejaVuSans-67" x="1678.556641"/>
     <use xlink:href="#DejaVuSans-20" x="1742.033203"/>
     <use xlink:href="#DejaVuSans-2d" x="1773.820312"/>
     <use xlink:href="#DejaVuSans-20" x="1809.904297"/>
     <use xlink:href="#DejaVuSans-47" x="1841.691406"/>
     <use xlink:href="#DejaVuSans-75" x="1919.181641"/>
     <use xlink:href="#DejaVuSans-61" x="1982.560547"/>
     <use xlink:href="#DejaVuSans-6d" x="2043.839844"/>
    </g>
    <!-- ARIMA (2, 1, 1)x(1, 0, 1, 7) (R2 = 0.495858) -->
    <g transform="translate(577.265938 29.7555)scale(0.12 -0.12)">
     <defs>
      <path id="DejaVuSans-41" d="M 2188 4044 
L 1331 1722 
L 3047 1722 
L 2188 4044 
z
M 1831 4666 
L 2547 4666 
L 4325 0 
L 3669 0 
L 3244 1197 
L 1141 1197 
L 716 0 
L 50 0 
L 1831 4666 
z
" transform="scale(0.015625)"/>
      <path id="DejaVuSans-52" d="M 2841 2188 
Q 3044 2119 3236 1894 
Q 3428 1669 3622 1275 
L 4263 0 
L 3584 0 
L 2988 1197 
Q 2756 1666 2539 1819 
Q 2322 1972 1947 1972 
L 1259 1972 
L 1259 0 
L 628 0 
L 628 4666 
L 2053 4666 
Q 2853 4666 3247 4331 
Q 3641 3997 3641 3322 
Q 3641 2881 3436 2590 
Q 3231 2300 2841 2188 
z
M 1259 4147 
L 1259 2491 
L 2053 2491 
Q 2509 2491 2742 2702 
Q 2975 2913 2975 3322 
Q 2975 3731 2742 3939 
Q 2509 4147 2053 4147 
L 1259 4147 
z
" transform="scale(0.015625)"/>
      <path id="DejaVuSans-49" d="M 628 4666 
L 1259 4666 
L 1259 0 
L 628 0 
L 628 4666 
z
" transform="scale(0.015625)"/>
      <path id="DejaVuSans-4d" d="M 628 4666 
L 1569 4666 
L 2759 1491 
L 3956 4666 
L 4897 4666 
L 4897 0 
L 4281 0 
L 4281 4097 
L 3078 897 
L 2444 897 
L 1241 4097 
L 1241 0 
L 628 0 
L 628 4666 
z
" transform="scale(0.015625)"/>
      <path id="DejaVuSans-28" d="M 1984 4856 
Q 1566 4138 1362 3434 
Q 1159 2731 1159 2009 
Q 1159 1288 1364 580 
Q 1569 -128 1984 -844 
L 1484 -844 
Q 1016 -109 783 600 
Q 550 1309 550 2009 
Q 550 2706 781 3412 
Q 1013 4119 1484 4856 
L 1984 4856 
z
" transform="scale(0.015625)"/>
      <path id="DejaVuSans-2c" d="M 750 794 
L 1409 794 
L 1409 256 
L 897 -744 
L 494 -744 
L 750 256 
L 750 794 
z
" transform="scale(0.015625)"/>
      <path id="DejaVuSans-29" d="M 513 4856 
L 1013 4856 
Q 1481 4119 1714 3412 
Q 1947 2706 1947 2009 
Q 1947 1309 1714 600 
Q 1481 -109 1013 -844 
L 513 -844 
Q 928 -128 1133 580 
Q 1338 1288 1338 2009 
Q 1338 2731 1133 3434 
Q 928 4138 513 4856 
z
" transform="scale(0.015625)"/>
      <path id="DejaVuSans-78" d="M 3513 3500 
L 2247 1797 
L 3578 0 
L 2900 0 
L 1881 1375 
L 863 0 
L 184 0 
L 1544 1831 
L 300 3500 
L 978 3500 
L 1906 2253 
L 2834 3500 
L 3513 3500 
z
" transform="scale(0.015625)"/>
      <path id="DejaVuSans-3d" d="M 678 2906 
L 4684 2906 
L 4684 2381 
L 678 2381 
L 678 2906 
z
M 678 1631 
L 4684 1631 
L 4684 1100 
L 678 1100 
L 678 1631 
z
" transform="scale(0.015625)"/>
      <path id="DejaVuSans-2e" d="M 684 794 
L 1344 794 
L 1344 0 
L 684 0 
L 684 794 
z
" transform="scale(0.015625)"/>
      <path id="DejaVuSans-39" d="M 703 97 
L 703 672 
Q 941 559 1184 500 
Q 1428 441 1663 441 
Q 2288 441 2617 861 
Q 2947 1281 2994 2138 
Q 2813 1869 2534 1725 
Q 2256 1581 1919 1581 
Q 1219 1581 811 2004 
Q 403 2428 403 3163 
Q 403 3881 828 4315 
Q 1253 4750 1959 4750 
Q 2769 4750 3195 4129 
Q 3622 3509 3622 2328 
Q 3622 1225 3098 567 
Q 2575 -91 1691 -91 
Q 1453 -91 1209 -44 
Q 966 3 703 97 
z
M 1959 2075 
Q 2384 2075 2632 2365 
Q 2881 2656 2881 3163 
Q 2881 3666 2632 3958 
Q 2384 4250 1959 4250 
Q 1534 4250 1286 3958 
Q 1038 3666 1038 3163 
Q 1038 2656 1286 2365 
Q 1534 2075 1959 2075 
z
" transform="scale(0.015625)"/>
      <path id="DejaVuSans-35" d="M 691 4666 
L 3169 4666 
L 3169 4134 
L 1269 4134 
L 1269 2991 
Q 1406 3038 1543 3061 
Q 1681 3084 1819 3084 
Q 2600 3084 3056 2656 
Q 3513 2228 3513 1497 
Q 3513 744 3044 326 
Q 2575 -91 1722 -91 
Q 1428 -91 1123 -41 
Q 819 9 494 109 
L 494 744 
Q 775 591 1075 516 
Q 1375 441 1709 441 
Q 2250 441 2565 725 
Q 2881 1009 2881 1497 
Q 2881 1984 2565 2268 
Q 2250 2553 1709 2553 
Q 1456 2553 1204 2497 
Q 953 2441 691 2322 
L 691 4666 
z
" transform="scale(0.015625)"/>
     </defs>
     <use xlink:href="#DejaVuSans-41"/>
     <use xlink:href="#DejaVuSans-52" x="68.408203"/>
     <use xlink:href="#DejaVuSans-49" x="137.890625"/>
     <use xlink:href="#DejaVuSans-4d" x="167.382812"/>
     <use xlink:href="#DejaVuSans-41" x="253.662109"/>
     <use xlink:href="#DejaVuSans-20" x="322.070312"/>
     <use xlink:href="#DejaVuSans-28" x="353.857422"/>
     <use xlink:href="#DejaVuSans-32" x="392.871094"/>
     <use xlink:href="#DejaVuSans-2c" x="456.494141"/>
     <use xlink:href="#DejaVuSans-20" x="488.28125"/>
     <use xlink:href="#DejaVuSans-31" x="520.068359"/>
     <use xlink:href="#DejaVuSans-2c" x="583.691406"/>
     <use xlink:href="#DejaVuSans-20" x="615.478516"/>
     <use xlink:href="#DejaVuSans-31" x="647.265625"/>
     <use xlink:href="#DejaVuSans-29" x="710.888672"/>
     <use xlink:href="#DejaVuSans-78" x="749.902344"/>
     <use xlink:href="#DejaVuSans-28" x="809.082031"/>
     <use xlink:href="#DejaVuSans-31" x="848.095703"/>
     <use xlink:href="#DejaVuSans-2c" x="911.71875"/>
     <use xlink:href="#DejaVuSans-20" x="943.505859"/>
     <use xlink:href="#DejaVuSans-30" x="975.292969"/>
     <use xlink:href="#DejaVuSans-2c" x="1038.916016"/>
     <use xlink:href="#DejaVuSans-20" x="1070.703125"/>
     <use xlink:href="#DejaVuSans-31" x="1102.490234"/>
     <use xlink:href="#DejaVuSans-2c" x="1166.113281"/>
     <use xlink:href="#DejaVuSans-20" x="1197.900391"/>
     <use xlink:href="#DejaVuSans-37" x="1229.6875"/>
     <use xlink:href="#DejaVuSans-29" x="1293.310547"/>
     <use xlink:href="#DejaVuSans-20" x="1332.324219"/>
     <use xlink:href="#DejaVuSans-28" x="1364.111328"/>
     <use xlink:href="#DejaVuSans-52" x="1403.125"/>
     <use xlink:href="#DejaVuSans-32" x="1472.607422"/>
     <use xlink:href="#DejaVuSans-20" x="1536.230469"/>
     <use xlink:href="#DejaVuSans-3d" x="1568.017578"/>
     <use xlink:href="#DejaVuSans-20" x="1651.806641"/>
     <use xlink:href="#DejaVuSans-30" x="1683.59375"/>
     <use xlink:href="#DejaVuSans-2e" x="1747.216797"/>
     <use xlink:href="#DejaVuSans-34" x="1779.003906"/>
     <use xlink:href="#DejaVuSans-39" x="1842.626953"/>
     <use xlink:href="#DejaVuSans-35" x="1906.25"/>
     <use xlink:href="#DejaVuSans-38" x="1969.873047"/>
     <use xlink:href="#DejaVuSans-35" x="2033.496094"/>
     <use xlink:href="#DejaVuSans-38" x="2097.119141"/>
     <use xlink:href="#DejaVuSans-29" x="2160.742188"/>
    </g>
   </g>
   <g id="legend_1">
    <g id="patch_7">
     <path d="M 1274.770313 87.789875 
L 1371.85 87.789875 
Q 1373.85 87.789875 1373.85 85.789875 
L 1373.85 42.7555 
Q 1373.85 40.7555 1371.85 40.7555 
L 1274.770313 40.7555 
Q 1272.770313 40.7555 1272.770313 42.7555 
L 1272.770313 85.789875 
Q 1272.770313 87.789875 1274.770313 87.789875 
z
" style="fill: #ffffff; opacity: 0.8; stroke: #cccccc; stroke-linejoin: miter"/>
    </g>
    <g id="line2d_21">
     <path d="M 1276.770313 48.853937 
L 1286.770313 48.853937 
L 1296.770313 48.853937 
" style="fill: none; stroke: #0000ff; stroke-width: 1.5; stroke-linecap: square"/>
    </g>
    <g id="text_19">
     <!-- Actual Value -->
     <g transform="translate(1304.770313 52.353937)scale(0.1 -0.1)">
      <defs>
       <path id="DejaVuSans-56" d="M 1831 0 
L 50 4666 
L 709 4666 
L 2188 738 
L 3669 4666 
L 4325 4666 
L 2547 0 
L 1831 0 
z
" transform="scale(0.015625)"/>
      </defs>
      <use xlink:href="#DejaVuSans-41"/>
      <use xlink:href="#DejaVuSans-63" x="66.658203"/>
      <use xlink:href="#DejaVuSans-74" x="121.638672"/>
      <use xlink:href="#DejaVuSans-75" x="160.847656"/>
      <use xlink:href="#DejaVuSans-61" x="224.226562"/>
      <use xlink:href="#DejaVuSans-6c" x="285.505859"/>
      <use xlink:href="#DejaVuSans-20" x="313.289062"/>
      <use xlink:href="#DejaVuSans-56" x="345.076172"/>
      <use xlink:href="#DejaVuSans-61" x="405.734375"/>
      <use xlink:href="#DejaVuSans-6c" x="467.013672"/>
      <use xlink:href="#DejaVuSans-75" x="494.796875"/>
      <use xlink:href="#DejaVuSans-65" x="558.175781"/>
     </g>
    </g>
    <g id="line2d_22">
     <path d="M 1276.770313 63.532062 
L 1286.770313 63.532062 
L 1296.770313 63.532062 
" style="fill: none; stroke: #ffa500; stroke-width: 1.5; stroke-linecap: square"/>
    </g>
    <g id="text_20">
     <!-- Check Value -->
     <g transform="translate(1304.770313 67.032062)scale(0.1 -0.1)">
      <defs>
       <path id="DejaVuSans-68" d="M 3513 2113 
L 3513 0 
L 2938 0 
L 2938 2094 
Q 2938 2591 2744 2837 
Q 2550 3084 2163 3084 
Q 1697 3084 1428 2787 
Q 1159 2491 1159 1978 
L 1159 0 
L 581 0 
L 581 4863 
L 1159 4863 
L 1159 2956 
Q 1366 3272 1645 3428 
Q 1925 3584 2291 3584 
Q 2894 3584 3203 3211 
Q 3513 2838 3513 2113 
z
" transform="scale(0.015625)"/>
       <path id="DejaVuSans-6b" d="M 581 4863 
L 1159 4863 
L 1159 1991 
L 2875 3500 
L 3609 3500 
L 1753 1863 
L 3688 0 
L 2938 0 
L 1159 1709 
L 1159 0 
L 581 0 
L 581 4863 
z
" transform="scale(0.015625)"/>
      </defs>
      <use xlink:href="#DejaVuSans-43"/>
      <use xlink:href="#DejaVuSans-68" x="69.824219"/>
      <use xlink:href="#DejaVuSans-65" x="133.203125"/>
      <use xlink:href="#DejaVuSans-63" x="194.726562"/>
      <use xlink:href="#DejaVuSans-6b" x="249.707031"/>
      <use xlink:href="#DejaVuSans-20" x="307.617188"/>
      <use xlink:href="#DejaVuSans-56" x="339.404297"/>
      <use xlink:href="#DejaVuSans-61" x="400.0625"/>
      <use xlink:href="#DejaVuSans-6c" x="461.341797"/>
      <use xlink:href="#DejaVuSans-75" x="489.125"/>
      <use xlink:href="#DejaVuSans-65" x="552.503906"/>
     </g>
    </g>
    <g id="line2d_23">
     <path d="M 1276.770313 78.210187 
L 1286.770313 78.210187 
L 1296.770313 78.210187 
" style="fill: none; stroke: #ff0000; stroke-width: 1.5; stroke-linecap: square"/>
    </g>
    <g id="text_21">
     <!-- Predict Value -->
     <g transform="translate(1304.770313 81.710187)scale(0.1 -0.1)">
      <defs>
       <path id="DejaVuSans-50" d="M 1259 4147 
L 1259 2394 
L 2053 2394 
Q 2494 2394 2734 2622 
Q 2975 2850 2975 3272 
Q 2975 3691 2734 3919 
Q 2494 4147 2053 4147 
L 1259 4147 
z
M 628 4666 
L 2053 4666 
Q 2838 4666 3239 4311 
Q 3641 3956 3641 3272 
Q 3641 2581 3239 2228 
Q 2838 1875 2053 1875 
L 1259 1875 
L 1259 0 
L 628 0 
L 628 4666 
z
" transform="scale(0.015625)"/>
      </defs>
      <use xlink:href="#DejaVuSans-50"/>
      <use xlink:href="#DejaVuSans-72" x="58.552734"/>
      <use xlink:href="#DejaVuSans-65" x="97.416016"/>
      <use xlink:href="#DejaVuSans-64" x="158.939453"/>
      <use xlink:href="#DejaVuSans-69" x="222.416016"/>
      <use xlink:href="#DejaVuSans-63" x="250.199219"/>
      <use xlink:href="#DejaVuSans-74" x="305.179688"/>
      <use xlink:href="#DejaVuSans-20" x="344.388672"/>
      <use xlink:href="#DejaVuSans-56" x="376.175781"/>
      <use xlink:href="#DejaVuSans-61" x="436.833984"/>
      <use xlink:href="#DejaVuSans-6c" x="498.113281"/>
      <use xlink:href="#DejaVuSans-75" x="525.896484"/>
      <use xlink:href="#DejaVuSans-65" x="589.275391"/>
     </g>
    </g>
   </g>
  </g>
 </g>
 <defs>
  <clipPath id="p8b172fb526">
   <rect x="39.65" y="35.7555" width="1339.2" height="332.64"/>
  </clipPath>
 </defs>
</svg>
