<?xml version="1.0" encoding="utf-8" standalone="no"?>
<!DOCTYPE svg PUBLIC "-//W3C//DTD SVG 1.1//EN"
  "http://www.w3.org/Graphics/SVG/1.1/DTD/svg11.dtd">
<svg xmlns:xlink="http://www.w3.org/1999/xlink" width="1394.429688pt" height="392.273625pt" viewBox="0 0 1394.429688 392.273625" xmlns="http://www.w3.org/2000/svg" version="1.1">
 <metadata>
  <rdf:RDF xmlns:dc="http://purl.org/dc/elements/1.1/" xmlns:cc="http://creativecommons.org/ns#" xmlns:rdf="http://www.w3.org/1999/02/22-rdf-syntax-ns#">
   <cc:Work>
    <dc:type rdf:resource="http://purl.org/dc/dcmitype/StillImage"/>
    <dc:date>2022-07-28T17:29:14.872701</dc:date>
    <dc:format>image/svg+xml</dc:format>
    <dc:creator>
     <cc:Agent>
      <dc:title>Matplotlib v3.5.2, https://matplotlib.org/</dc:title>
     </cc:Agent>
    </dc:creator>
   </cc:Work>
  </rdf:RDF>
 </metadata>
 <defs>
  <style type="text/css">*{stroke-linejoin: round; stroke-linecap: butt}</style>
 </defs>
 <g id="figure_1">
  <g id="patch_1">
   <path d="M 0 392.273625 
L 1394.429688 392.273625 
L 1394.429688 0 
L 0 0 
z
" style="fill: #ffffff"/>
  </g>
  <g id="axes_1">
   <g id="patch_2">
    <path d="M 48.029688 368.3955 
L 1387.229688 368.3955 
L 1387.229688 35.7555 
L 48.029688 35.7555 
z
" style="fill: #ffffff"/>
   </g>
   <g id="matplotlib.axis_1">
    <g id="xtick_1">
     <g id="line2d_1">
      <defs>
       <path id="mdc5f980027" d="M 0 0 
L 0 3.5 
" style="stroke: #000000; stroke-width: 0.8"/>
      </defs>
      <g>
       <use xlink:href="#mdc5f980027" x="80.071414" y="368.3955" style="stroke: #000000; stroke-width: 0.8"/>
      </g>
     </g>
     <g id="text_1">
      <!-- 2020-01 -->
      <g transform="translate(59.180007 382.993937)scale(0.1 -0.1)">
       <defs>
        <path id="DejaVuSans-32" d="M 1228 531 
L 3431 531 
L 3431 0 
L 469 0 
L 469 531 
Q 828 903 1448 1529 
Q 2069 2156 2228 2338 
Q 2531 2678 2651 2914 
Q 2772 3150 2772 3378 
Q 2772 3750 2511 3984 
Q 2250 4219 1831 4219 
Q 1534 4219 1204 4116 
Q 875 4013 500 3803 
L 500 4441 
Q 881 4594 1212 4672 
Q 1544 4750 1819 4750 
Q 2544 4750 2975 4387 
Q 3406 4025 3406 3419 
Q 3406 3131 3298 2873 
Q 3191 2616 2906 2266 
Q 2828 2175 2409 1742 
Q 1991 1309 1228 531 
z
" transform="scale(0.015625)"/>
        <path id="DejaVuSans-30" d="M 2034 4250 
Q 1547 4250 1301 3770 
Q 1056 3291 1056 2328 
Q 1056 1369 1301 889 
Q 1547 409 2034 409 
Q 2525 409 2770 889 
Q 3016 1369 3016 2328 
Q 3016 3291 2770 3770 
Q 2525 4250 2034 4250 
z
M 2034 4750 
Q 2819 4750 3233 4129 
Q 3647 3509 3647 2328 
Q 3647 1150 3233 529 
Q 2819 -91 2034 -91 
Q 1250 -91 836 529 
Q 422 1150 422 2328 
Q 422 3509 836 4129 
Q 1250 4750 2034 4750 
z
" transform="scale(0.015625)"/>
        <path id="DejaVuSans-2d" d="M 313 2009 
L 1997 2009 
L 1997 1497 
L 313 1497 
L 313 2009 
z
" transform="scale(0.015625)"/>
        <path id="DejaVuSans-31" d="M 794 531 
L 1825 531 
L 1825 4091 
L 703 3866 
L 703 4441 
L 1819 4666 
L 2450 4666 
L 2450 531 
L 3481 531 
L 3481 0 
L 794 0 
L 794 531 
z
" transform="scale(0.015625)"/>
       </defs>
       <use xlink:href="#DejaVuSans-32"/>
       <use xlink:href="#DejaVuSans-30" x="63.623047"/>
       <use xlink:href="#DejaVuSans-32" x="127.246094"/>
       <use xlink:href="#DejaVuSans-30" x="190.869141"/>
       <use xlink:href="#DejaVuSans-2d" x="254.492188"/>
       <use xlink:href="#DejaVuSans-30" x="290.576172"/>
       <use xlink:href="#DejaVuSans-31" x="354.199219"/>
      </g>
     </g>
    </g>
    <g id="xtick_2">
     <g id="line2d_2">
      <g>
       <use xlink:href="#mdc5f980027" x="199.326918" y="368.3955" style="stroke: #000000; stroke-width: 0.8"/>
      </g>
     </g>
     <g id="text_2">
      <!-- 2020-04 -->
      <g transform="translate(178.435512 382.993937)scale(0.1 -0.1)">
       <defs>
        <path id="DejaVuSans-34" d="M 2419 4116 
L 825 1625 
L 2419 1625 
L 2419 4116 
z
M 2253 4666 
L 3047 4666 
L 3047 1625 
L 3713 1625 
L 3713 1100 
L 3047 1100 
L 3047 0 
L 2419 0 
L 2419 1100 
L 313 1100 
L 313 1709 
L 2253 4666 
z
" transform="scale(0.015625)"/>
       </defs>
       <use xlink:href="#DejaVuSans-32"/>
       <use xlink:href="#DejaVuSans-30" x="63.623047"/>
       <use xlink:href="#DejaVuSans-32" x="127.246094"/>
       <use xlink:href="#DejaVuSans-30" x="190.869141"/>
       <use xlink:href="#DejaVuSans-2d" x="254.492188"/>
       <use xlink:href="#DejaVuSans-30" x="290.576172"/>
       <use xlink:href="#DejaVuSans-34" x="354.199219"/>
      </g>
     </g>
    </g>
    <g id="xtick_3">
     <g id="line2d_3">
      <g>
       <use xlink:href="#mdc5f980027" x="318.582423" y="368.3955" style="stroke: #000000; stroke-width: 0.8"/>
      </g>
     </g>
     <g id="text_3">
      <!-- 2020-07 -->
      <g transform="translate(297.691016 382.993937)scale(0.1 -0.1)">
       <defs>
        <path id="DejaVuSans-37" d="M 525 4666 
L 3525 4666 
L 3525 4397 
L 1831 0 
L 1172 0 
L 2766 4134 
L 525 4134 
L 525 4666 
z
" transform="scale(0.015625)"/>
       </defs>
       <use xlink:href="#DejaVuSans-32"/>
       <use xlink:href="#DejaVuSans-30" x="63.623047"/>
       <use xlink:href="#DejaVuSans-32" x="127.246094"/>
       <use xlink:href="#DejaVuSans-30" x="190.869141"/>
       <use xlink:href="#DejaVuSans-2d" x="254.492188"/>
       <use xlink:href="#DejaVuSans-30" x="290.576172"/>
       <use xlink:href="#DejaVuSans-37" x="354.199219"/>
      </g>
     </g>
    </g>
    <g id="xtick_4">
     <g id="line2d_4">
      <g>
       <use xlink:href="#mdc5f980027" x="439.148427" y="368.3955" style="stroke: #000000; stroke-width: 0.8"/>
      </g>
     </g>
     <g id="text_4">
      <!-- 2020-10 -->
      <g transform="translate(418.257021 382.993937)scale(0.1 -0.1)">
       <use xlink:href="#DejaVuSans-32"/>
       <use xlink:href="#DejaVuSans-30" x="63.623047"/>
       <use xlink:href="#DejaVuSans-32" x="127.246094"/>
       <use xlink:href="#DejaVuSans-30" x="190.869141"/>
       <use xlink:href="#DejaVuSans-2d" x="254.492188"/>
       <use xlink:href="#DejaVuSans-31" x="290.576172"/>
       <use xlink:href="#DejaVuSans-30" x="354.199219"/>
      </g>
     </g>
    </g>
    <g id="xtick_5">
     <g id="line2d_5">
      <g>
       <use xlink:href="#mdc5f980027" x="559.714432" y="368.3955" style="stroke: #000000; stroke-width: 0.8"/>
      </g>
     </g>
     <g id="text_5">
      <!-- 2021-01 -->
      <g transform="translate(538.823025 382.993937)scale(0.1 -0.1)">
       <use xlink:href="#DejaVuSans-32"/>
       <use xlink:href="#DejaVuSans-30" x="63.623047"/>
       <use xlink:href="#DejaVuSans-32" x="127.246094"/>
       <use xlink:href="#DejaVuSans-31" x="190.869141"/>
       <use xlink:href="#DejaVuSans-2d" x="254.492188"/>
       <use xlink:href="#DejaVuSans-30" x="290.576172"/>
       <use xlink:href="#DejaVuSans-31" x="354.199219"/>
      </g>
     </g>
    </g>
    <g id="xtick_6">
     <g id="line2d_6">
      <g>
       <use xlink:href="#mdc5f980027" x="677.659436" y="368.3955" style="stroke: #000000; stroke-width: 0.8"/>
      </g>
     </g>
     <g id="text_6">
      <!-- 2021-04 -->
      <g transform="translate(656.76803 382.993937)scale(0.1 -0.1)">
       <use xlink:href="#DejaVuSans-32"/>
       <use xlink:href="#DejaVuSans-30" x="63.623047"/>
       <use xlink:href="#DejaVuSans-32" x="127.246094"/>
       <use xlink:href="#DejaVuSans-31" x="190.869141"/>
       <use xlink:href="#DejaVuSans-2d" x="254.492188"/>
       <use xlink:href="#DejaVuSans-30" x="290.576172"/>
       <use xlink:href="#DejaVuSans-34" x="354.199219"/>
      </g>
     </g>
    </g>
    <g id="xtick_7">
     <g id="line2d_7">
      <g>
       <use xlink:href="#mdc5f980027" x="796.91494" y="368.3955" style="stroke: #000000; stroke-width: 0.8"/>
      </g>
     </g>
     <g id="text_7">
      <!-- 2021-07 -->
      <g transform="translate(776.023534 382.993937)scale(0.1 -0.1)">
       <use xlink:href="#DejaVuSans-32"/>
       <use xlink:href="#DejaVuSans-30" x="63.623047"/>
       <use xlink:href="#DejaVuSans-32" x="127.246094"/>
       <use xlink:href="#DejaVuSans-31" x="190.869141"/>
       <use xlink:href="#DejaVuSans-2d" x="254.492188"/>
       <use xlink:href="#DejaVuSans-30" x="290.576172"/>
       <use xlink:href="#DejaVuSans-37" x="354.199219"/>
      </g>
     </g>
    </g>
    <g id="xtick_8">
     <g id="line2d_8">
      <g>
       <use xlink:href="#mdc5f980027" x="917.480945" y="368.3955" style="stroke: #000000; stroke-width: 0.8"/>
      </g>
     </g>
     <g id="text_8">
      <!-- 2021-10 -->
      <g transform="translate(896.589539 382.993937)scale(0.1 -0.1)">
       <use xlink:href="#DejaVuSans-32"/>
       <use xlink:href="#DejaVuSans-30" x="63.623047"/>
       <use xlink:href="#DejaVuSans-32" x="127.246094"/>
       <use xlink:href="#DejaVuSans-31" x="190.869141"/>
       <use xlink:href="#DejaVuSans-2d" x="254.492188"/>
       <use xlink:href="#DejaVuSans-31" x="290.576172"/>
       <use xlink:href="#DejaVuSans-30" x="354.199219"/>
      </g>
     </g>
    </g>
    <g id="xtick_9">
     <g id="line2d_9">
      <g>
       <use xlink:href="#mdc5f980027" x="1038.046949" y="368.3955" style="stroke: #000000; stroke-width: 0.8"/>
      </g>
     </g>
     <g id="text_9">
      <!-- 2022-01 -->
      <g transform="translate(1017.155543 382.993937)scale(0.1 -0.1)">
       <use xlink:href="#DejaVuSans-32"/>
       <use xlink:href="#DejaVuSans-30" x="63.623047"/>
       <use xlink:href="#DejaVuSans-32" x="127.246094"/>
       <use xlink:href="#DejaVuSans-32" x="190.869141"/>
       <use xlink:href="#DejaVuSans-2d" x="254.492188"/>
       <use xlink:href="#DejaVuSans-30" x="290.576172"/>
       <use xlink:href="#DejaVuSans-31" x="354.199219"/>
      </g>
     </g>
    </g>
    <g id="xtick_10">
     <g id="line2d_10">
      <g>
       <use xlink:href="#mdc5f980027" x="1155.991954" y="368.3955" style="stroke: #000000; stroke-width: 0.8"/>
      </g>
     </g>
     <g id="text_10">
      <!-- 2022-04 -->
      <g transform="translate(1135.100548 382.993937)scale(0.1 -0.1)">
       <use xlink:href="#DejaVuSans-32"/>
       <use xlink:href="#DejaVuSans-30" x="63.623047"/>
       <use xlink:href="#DejaVuSans-32" x="127.246094"/>
       <use xlink:href="#DejaVuSans-32" x="190.869141"/>
       <use xlink:href="#DejaVuSans-2d" x="254.492188"/>
       <use xlink:href="#DejaVuSans-30" x="290.576172"/>
       <use xlink:href="#DejaVuSans-34" x="354.199219"/>
      </g>
     </g>
    </g>
    <g id="xtick_11">
     <g id="line2d_11">
      <g>
       <use xlink:href="#mdc5f980027" x="1275.247458" y="368.3955" style="stroke: #000000; stroke-width: 0.8"/>
      </g>
     </g>
     <g id="text_11">
      <!-- 2022-07 -->
      <g transform="translate(1254.356052 382.993937)scale(0.1 -0.1)">
       <use xlink:href="#DejaVuSans-32"/>
       <use xlink:href="#DejaVuSans-30" x="63.623047"/>
       <use xlink:href="#DejaVuSans-32" x="127.246094"/>
       <use xlink:href="#DejaVuSans-32" x="190.869141"/>
       <use xlink:href="#DejaVuSans-2d" x="254.492188"/>
       <use xlink:href="#DejaVuSans-30" x="290.576172"/>
       <use xlink:href="#DejaVuSans-37" x="354.199219"/>
      </g>
     </g>
    </g>
   </g>
   <g id="matplotlib.axis_2">
    <g id="ytick_1">
     <g id="line2d_12">
      <defs>
       <path id="m3aaadad640" d="M 0 0 
L -3.5 0 
" style="stroke: #000000; stroke-width: 0.8"/>
      </defs>
      <g>
       <use xlink:href="#m3aaadad640" x="48.029688" y="338.459157" style="stroke: #000000; stroke-width: 0.8"/>
      </g>
     </g>
     <g id="text_12">
      <!-- −1000 -->
      <g transform="translate(7.2 342.258375)scale(0.1 -0.1)">
       <defs>
        <path id="DejaVuSans-2212" d="M 678 2272 
L 4684 2272 
L 4684 1741 
L 678 1741 
L 678 2272 
z
" transform="scale(0.015625)"/>
       </defs>
       <use xlink:href="#DejaVuSans-2212"/>
       <use xlink:href="#DejaVuSans-31" x="83.789062"/>
       <use xlink:href="#DejaVuSans-30" x="147.412109"/>
       <use xlink:href="#DejaVuSans-30" x="211.035156"/>
       <use xlink:href="#DejaVuSans-30" x="274.658203"/>
      </g>
     </g>
    </g>
    <g id="ytick_2">
     <g id="line2d_13">
      <g>
       <use xlink:href="#m3aaadad640" x="48.029688" y="286.104586" style="stroke: #000000; stroke-width: 0.8"/>
      </g>
     </g>
     <g id="text_13">
      <!-- 0 -->
      <g transform="translate(34.667188 289.903805)scale(0.1 -0.1)">
       <use xlink:href="#DejaVuSans-30"/>
      </g>
     </g>
    </g>
    <g id="ytick_3">
     <g id="line2d_14">
      <g>
       <use xlink:href="#m3aaadad640" x="48.029688" y="233.750015" style="stroke: #000000; stroke-width: 0.8"/>
      </g>
     </g>
     <g id="text_14">
      <!-- 1000 -->
      <g transform="translate(15.579688 237.549234)scale(0.1 -0.1)">
       <use xlink:href="#DejaVuSans-31"/>
       <use xlink:href="#DejaVuSans-30" x="63.623047"/>
       <use xlink:href="#DejaVuSans-30" x="127.246094"/>
       <use xlink:href="#DejaVuSans-30" x="190.869141"/>
      </g>
     </g>
    </g>
    <g id="ytick_4">
     <g id="line2d_15">
      <g>
       <use xlink:href="#m3aaadad640" x="48.029688" y="181.395445" style="stroke: #000000; stroke-width: 0.8"/>
      </g>
     </g>
     <g id="text_15">
      <!-- 2000 -->
      <g transform="translate(15.579688 185.194663)scale(0.1 -0.1)">
       <use xlink:href="#DejaVuSans-32"/>
       <use xlink:href="#DejaVuSans-30" x="63.623047"/>
       <use xlink:href="#DejaVuSans-30" x="127.246094"/>
       <use xlink:href="#DejaVuSans-30" x="190.869141"/>
      </g>
     </g>
    </g>
    <g id="ytick_5">
     <g id="line2d_16">
      <g>
       <use xlink:href="#m3aaadad640" x="48.029688" y="129.040874" style="stroke: #000000; stroke-width: 0.8"/>
      </g>
     </g>
     <g id="text_16">
      <!-- 3000 -->
      <g transform="translate(15.579688 132.840093)scale(0.1 -0.1)">
       <defs>
        <path id="DejaVuSans-33" d="M 2597 2516 
Q 3050 2419 3304 2112 
Q 3559 1806 3559 1356 
Q 3559 666 3084 287 
Q 2609 -91 1734 -91 
Q 1441 -91 1130 -33 
Q 819 25 488 141 
L 488 750 
Q 750 597 1062 519 
Q 1375 441 1716 441 
Q 2309 441 2620 675 
Q 2931 909 2931 1356 
Q 2931 1769 2642 2001 
Q 2353 2234 1838 2234 
L 1294 2234 
L 1294 2753 
L 1863 2753 
Q 2328 2753 2575 2939 
Q 2822 3125 2822 3475 
Q 2822 3834 2567 4026 
Q 2313 4219 1838 4219 
Q 1578 4219 1281 4162 
Q 984 4106 628 3988 
L 628 4550 
Q 988 4650 1302 4700 
Q 1616 4750 1894 4750 
Q 2613 4750 3031 4423 
Q 3450 4097 3450 3541 
Q 3450 3153 3228 2886 
Q 3006 2619 2597 2516 
z
" transform="scale(0.015625)"/>
       </defs>
       <use xlink:href="#DejaVuSans-33"/>
       <use xlink:href="#DejaVuSans-30" x="63.623047"/>
       <use xlink:href="#DejaVuSans-30" x="127.246094"/>
       <use xlink:href="#DejaVuSans-30" x="190.869141"/>
      </g>
     </g>
    </g>
    <g id="ytick_6">
     <g id="line2d_17">
      <g>
       <use xlink:href="#m3aaadad640" x="48.029688" y="76.686303" style="stroke: #000000; stroke-width: 0.8"/>
      </g>
     </g>
     <g id="text_17">
      <!-- 4000 -->
      <g transform="translate(15.579688 80.485522)scale(0.1 -0.1)">
       <use xlink:href="#DejaVuSans-34"/>
       <use xlink:href="#DejaVuSans-30" x="63.623047"/>
       <use xlink:href="#DejaVuSans-30" x="127.246094"/>
       <use xlink:href="#DejaVuSans-30" x="190.869141"/>
      </g>
     </g>
    </g>
   </g>
   <g id="line2d_18">
    <path d="M 108.902415 286.104586 
L 173.116917 286.104586 
L 174.427417 285.947522 
L 178.358917 285.999877 
L 179.669417 285.685749 
L 180.979917 285.947522 
L 182.290418 285.528686 
L 184.911418 285.790458 
L 186.221918 285.528686 
L 187.532418 285.476331 
L 188.842918 284.219821 
L 190.153418 285.319267 
L 191.463918 285.528686 
L 192.774418 284.376885 
L 194.084918 283.434503 
L 195.395418 285.162204 
L 196.705918 284.42924 
L 198.016418 283.225084 
L 199.326918 283.539212 
L 200.637418 284.795722 
L 201.947918 283.120375 
L 203.258418 278.617882 
L 204.568918 281.91622 
L 205.879418 280.345583 
L 207.189918 278.513173 
L 208.500418 276.261927 
L 209.810919 281.235611 
L 211.121419 279.979101 
L 212.431919 278.094337 
L 213.742419 278.460819 
L 215.052919 279.141428 
L 216.363419 277.309018 
L 217.673919 281.497384 
L 218.984419 283.17273 
L 220.294919 273.173007 
L 221.605419 274.534226 
L 222.915919 286.104586 
L 224.226419 275.26719 
L 225.536919 276.366636 
L 226.847419 272.021206 
L 228.157919 280.450292 
L 229.468419 279.089073 
L 230.778919 279.089073 
L 232.089419 262.126193 
L 233.399919 279.403201 
L 234.710419 264.482148 
L 236.02092 281.91622 
L 237.33142 281.968575 
L 238.64192 276.471345 
L 239.95242 279.822037 
L 241.26292 277.204309 
L 242.57342 281.91622 
L 243.88392 281.759157 
L 245.19442 264.796276 
L 246.50492 277.6755 
L 247.81542 277.0996 
L 249.12592 277.413727 
L 250.43642 286.104586 
L 251.74692 271.02647 
L 253.05742 276.890181 
L 254.36792 275.057771 
L 255.67842 271.916497 
L 256.98892 278.2514 
L 258.29942 276.994891 
L 259.60992 279.664974 
L 260.92042 275.686026 
L 262.23092 277.309018 
L 263.541421 277.884918 
L 264.851921 276.052508 
L 266.162421 278.617882 
L 267.472921 286.104586 
L 268.783421 271.445306 
L 270.093921 277.937273 
L 271.404421 280.816774 
L 272.714921 284.533949 
L 274.025421 282.177993 
L 275.335921 282.701539 
L 276.646421 276.366636 
L 277.956921 282.125639 
L 279.267421 280.502647 
L 280.577921 281.91622 
L 281.888421 284.691012 
L 283.198921 284.32453 
L 284.509421 284.691012 
L 285.819921 282.335057 
L 287.130421 281.026193 
L 288.440921 284.533949 
L 289.751422 283.591566 
L 291.061922 284.219821 
L 292.372422 283.486857 
L 293.682922 282.59683 
L 294.993422 283.17273 
L 296.303922 284.272176 
L 297.614422 282.125639 
L 298.924922 282.806248 
L 300.235422 283.958048 
L 301.545922 283.225084 
L 302.856422 280.240874 
L 304.166922 282.439766 
L 305.477422 281.183256 
L 306.787922 283.74863 
L 308.098422 284.691012 
L 309.408922 283.905694 
L 310.719422 281.34032 
L 312.029922 284.167467 
L 313.340422 282.230348 
L 314.650922 279.036719 
L 315.961423 278.2514 
L 317.271923 280.973838 
L 318.582423 284.219821 
L 319.892923 274.534226 
L 321.203423 276.052508 
L 322.513923 282.282702 
L 323.824423 279.193783 
L 325.134923 277.466082 
L 326.445423 279.769683 
L 327.755923 283.591566 
L 329.066423 282.49212 
L 330.376923 279.769683 
L 332.997923 282.910957 
L 335.618923 281.392675 
L 336.929423 281.863866 
L 338.239923 282.753893 
L 339.550423 274.429517 
L 340.860923 281.287965 
L 342.171423 281.392675 
L 344.792424 279.717328 
L 346.102924 283.696276 
L 347.413424 279.193783 
L 348.723924 271.550015 
L 350.034424 287.518159 
L 351.344924 280.08381 
L 352.655424 280.031456 
L 353.965924 282.439766 
L 355.276424 279.50791 
L 356.586924 281.549738 
L 357.897424 280.921483 
L 359.207924 281.445029 
L 360.518424 282.335057 
L 361.828924 280.555001 
L 363.139424 281.811511 
L 364.449924 277.780209 
L 365.760424 282.49212 
L 367.070924 281.91622 
L 368.381424 283.120375 
L 369.691925 282.282702 
L 371.002425 283.015666 
L 372.312925 282.701539 
L 373.623425 282.649184 
L 374.933925 275.528963 
L 376.244425 266.576331 
L 377.554925 283.17273 
L 378.865425 283.225084 
L 380.175925 281.654447 
L 381.486425 283.120375 
L 382.796925 283.486857 
L 384.107425 282.177993 
L 385.417925 283.382148 
L 386.728425 283.068021 
L 388.038925 282.59683 
L 389.349425 283.643921 
L 390.659925 285.057494 
L 391.970425 284.848076 
L 393.280925 286.628132 
L 394.591425 280.502647 
L 395.901925 272.17827 
L 397.212426 286.418713 
L 398.522926 281.602093 
L 399.833426 280.555001 
L 401.143926 285.371622 
L 402.454426 280.659711 
L 403.764926 280.921483 
L 405.075426 278.774946 
L 406.385926 278.199046 
L 407.696426 275.319544 
L 409.006926 283.015666 
L 410.317426 286.104586 
L 411.627926 277.832564 
L 412.938426 281.235611 
L 414.248926 277.361373 
L 415.559426 279.664974 
L 416.869926 281.497384 
L 418.180426 275.633672 
L 419.490926 281.026193 
L 420.801426 281.706802 
L 422.111926 283.591566 
L 424.732927 279.979101 
L 426.043427 280.816774 
L 427.353927 281.183256 
L 428.664427 282.49212 
L 429.974927 279.979101 
L 431.285427 278.879655 
L 432.595927 282.387411 
L 433.906427 280.659711 
L 435.216927 279.350846 
L 436.527427 278.670237 
L 437.837927 281.811511 
L 439.148427 276.994891 
L 440.458927 278.2514 
L 441.769427 276.261927 
L 443.079927 279.926747 
L 444.390427 279.822037 
L 447.011427 281.706802 
L 448.321927 279.193783 
L 449.632427 278.513173 
L 450.942928 277.151954 
L 452.253428 279.193783 
L 453.563928 277.780209 
L 454.874428 280.607356 
L 456.184928 282.387411 
L 457.495428 281.130902 
L 458.805928 277.518436 
L 460.116428 274.691289 
L 461.426928 278.199046 
L 462.737428 280.712065 
L 464.047928 279.350846 
L 465.358428 283.486857 
L 466.668928 278.094337 
L 467.979428 277.780209 
L 469.289928 277.727855 
L 470.600428 280.136165 
L 471.910928 275.26719 
L 473.221428 281.863866 
L 474.531928 278.617882 
L 475.842428 277.6755 
L 477.152929 275.738381 
L 478.463429 275.633672 
L 479.773929 276.942536 
L 481.084429 276.41899 
L 482.394929 280.08381 
L 483.705429 280.450292 
L 485.015929 274.638935 
L 486.326429 271.340597 
L 487.636929 274.429517 
L 488.947429 268.042259 
L 490.257929 270.136442 
L 491.568429 275.424253 
L 492.878929 274.063035 
L 494.189429 275.424253 
L 495.499929 261.497938 
L 496.810429 266.262204 
L 498.120929 264.743921 
L 499.431429 265.319821 
L 500.741929 267.675777 
L 502.052429 275.476608 
L 503.36293 265.267467 
L 504.67343 251.393506 
L 505.98393 259.665528 
L 507.29443 260.60791 
L 508.60493 265.005694 
L 509.91543 262.387965 
L 511.22593 268.775223 
L 512.53643 255.529517 
L 513.84693 255.163035 
L 515.15743 259.927301 
L 516.46793 255.68658 
L 517.77843 265.005694 
L 519.08893 250.032287 
L 520.39943 267.518713 
L 521.70993 246.419821 
L 523.02043 236.78658 
L 524.33093 249.561096 
L 525.64143 243.383256 
L 526.95193 244.273284 
L 528.26243 246.681594 
L 529.57293 237.46719 
L 530.883431 252.440597 
L 532.193931 245.163312 
L 533.504431 230.71345 
L 534.814931 255.529517 
L 536.125431 233.907079 
L 537.435931 250.241705 
L 538.746431 244.901539 
L 540.056931 242.179101 
L 541.367431 268.251677 
L 542.677931 232.336442 
L 543.988431 260.974392 
L 545.298931 263.068575 
L 546.609431 256.419544 
L 547.919931 254.063589 
L 549.230431 245.268021 
L 550.540931 252.70237 
L 551.851431 243.173838 
L 553.161931 255.529517 
L 554.472431 263.539766 
L 555.782931 249.404032 
L 557.093432 264.796276 
L 558.403932 241.079655 
L 559.714432 254.273007 
L 561.024932 243.749738 
L 562.335432 254.115943 
L 563.645932 241.655555 
L 564.956432 245.94863 
L 566.266932 253.173561 
L 567.577432 222.23201 
L 568.887932 257.100154 
L 570.198432 235.215943 
L 571.508932 244.325639 
L 572.819432 257.100154 
L 574.129932 253.697107 
L 575.440432 248.042813 
L 576.750932 239.404309 
L 578.061432 251.44586 
L 579.371932 252.335888 
L 580.682432 237.833672 
L 581.992932 253.85417 
L 583.303432 265.110403 
L 584.613933 261.812065 
L 585.924433 246.943367 
L 587.234933 248.932841 
L 588.545433 250.398769 
L 589.855933 251.550569 
L 591.166433 253.85417 
L 592.476933 270.450569 
L 593.787433 268.199323 
L 595.097933 251.393506 
L 596.408433 263.068575 
L 597.718933 253.85417 
L 600.339933 263.906248 
L 601.650433 275.581317 
L 602.960933 271.131179 
L 604.271433 273.382425 
L 605.581933 269.298769 
L 606.892433 271.131179 
L 608.202933 246.210403 
L 609.513433 268.461096 
L 610.823934 271.497661 
L 612.134434 272.963589 
L 613.444934 264.429794 
L 614.755434 265.791012 
L 616.065934 264.691566 
L 617.376434 268.775223 
L 618.686934 273.748907 
L 619.997434 279.298492 
L 621.307934 275.005417 
L 623.928934 268.879932 
L 625.239434 267.780486 
L 626.549934 275.581317 
L 627.860434 267.36165 
L 629.170934 278.879655 
L 630.481434 271.550015 
L 631.791934 270.659988 
L 633.102434 270.555278 
L 634.412934 264.168021 
L 635.723434 271.340597 
L 637.033934 271.392952 
L 638.344435 280.188519 
L 639.654935 273.958325 
L 640.965435 274.691289 
L 642.275935 274.01068 
L 643.586435 272.230625 
L 644.896935 274.848353 
L 646.207435 275.162481 
L 647.517935 280.031456 
L 648.828435 275.005417 
L 650.138935 244.79683 
L 651.449435 274.01068 
L 652.759935 273.277716 
L 654.070435 274.324807 
L 655.380935 273.905971 
L 656.691435 278.93201 
L 658.001935 266.628686 
L 659.312435 270.293506 
L 660.622935 275.110126 
L 661.933435 270.031733 
L 663.243935 268.042259 
L 664.554436 278.670237 
L 665.864936 276.680763 
L 667.175436 275.110126 
L 668.485936 274.638935 
L 669.796436 271.078824 
L 671.106936 266.419267 
L 672.417436 267.204586 
L 673.727936 268.304032 
L 675.038436 277.151954 
L 676.348936 274.115389 
L 677.659436 265.895722 
L 678.969936 265.058048 
L 680.280436 260.60791 
L 681.590936 270.450569 
L 682.901436 275.581317 
L 684.211936 274.115389 
L 685.522436 273.748907 
L 686.832936 267.152231 
L 688.143436 266.209849 
L 689.453936 264.168021 
L 690.764436 266.890458 
L 692.074937 267.518713 
L 693.385437 275.110126 
L 694.695937 266.209849 
L 696.006437 265.162758 
L 697.316937 264.796276 
L 698.627437 262.283256 
L 699.937937 266.157494 
L 701.248437 265.738658 
L 702.558937 277.727855 
L 703.869437 271.131179 
L 705.179937 271.759434 
L 706.490437 269.036996 
L 707.800937 268.618159 
L 709.111437 270.659988 
L 710.421937 273.696553 
L 711.732437 278.565528 
L 713.042937 273.487134 
L 714.353437 275.947799 
L 715.663937 266.890458 
L 716.974437 274.795999 
L 718.284938 271.02647 
L 719.595438 277.832564 
L 720.905938 278.93201 
L 722.216438 275.790735 
L 723.526938 277.151954 
L 724.837438 275.476608 
L 726.147938 277.047245 
L 727.458438 275.633672 
L 728.768938 280.659711 
L 730.079438 281.445029 
L 731.389938 280.136165 
L 734.010938 279.036719 
L 735.321438 277.832564 
L 736.631938 279.089073 
L 737.942438 281.811511 
L 739.252938 281.602093 
L 740.563438 246.681594 
L 741.873938 280.712065 
L 743.184438 279.036719 
L 744.494939 280.136165 
L 745.805439 281.654447 
L 748.426439 286.104586 
L 749.736939 279.664974 
L 751.047439 282.177993 
L 752.357939 282.230348 
L 753.668439 281.445029 
L 754.978939 283.434503 
L 756.289439 283.74863 
L 757.599939 284.638658 
L 758.910439 285.214558 
L 760.220939 283.696276 
L 761.531439 283.591566 
L 762.841939 282.701539 
L 764.152439 283.17273 
L 765.462939 283.958048 
L 766.773439 285.00514 
L 768.083939 284.167467 
L 769.394439 284.376885 
L 770.704939 284.115112 
L 772.01544 284.743367 
L 773.32594 284.219821 
L 774.63644 285.00514 
L 775.94694 283.905694 
L 777.25744 286.26165 
L 778.56794 283.382148 
L 779.87844 284.481594 
L 781.18894 284.691012 
L 782.49944 285.057494 
L 785.12044 285.423976 
L 786.43094 284.952785 
L 787.74144 285.00514 
L 789.05194 285.266913 
L 791.67294 284.795722 
L 794.29394 285.476331 
L 795.60444 284.42924 
L 796.91494 284.743367 
L 798.225441 283.486857 
L 799.535941 284.743367 
L 800.846441 284.586303 
L 802.156941 285.266913 
L 804.777941 286.104586 
L 806.088441 284.481594 
L 807.398941 283.225084 
L 808.709441 284.376885 
L 810.019941 283.225084 
L 811.330441 285.109849 
L 812.640941 285.109849 
L 813.951441 282.439766 
L 815.261941 283.539212 
L 816.572441 284.062758 
L 817.882941 282.49212 
L 819.193441 283.591566 
L 820.503941 284.219821 
L 821.814441 284.32453 
L 823.124941 283.74863 
L 824.435441 282.387411 
L 825.745942 282.701539 
L 827.056442 281.34032 
L 828.366942 282.544475 
L 829.677442 282.701539 
L 830.987942 281.863866 
L 832.298442 282.282702 
L 833.608942 280.188519 
L 834.919442 278.460819 
L 836.229942 279.193783 
L 837.540442 277.937273 
L 840.161442 281.863866 
L 841.471942 279.717328 
L 842.782442 276.366636 
L 844.092942 274.167744 
L 845.403442 272.492398 
L 846.713942 274.900708 
L 848.024442 275.895445 
L 849.334942 279.664974 
L 850.645442 277.6755 
L 851.955943 268.775223 
L 853.266443 271.916497 
L 854.576943 268.618159 
L 855.887443 270.450569 
L 857.197943 271.235888 
L 858.508443 278.670237 
L 859.818943 269.141705 
L 861.129443 263.644475 
L 863.750443 265.791012 
L 865.060943 269.874669 
L 866.371443 271.445306 
L 867.681943 275.895445 
L 868.992443 268.251677 
L 870.302943 263.644475 
L 871.613443 258.461373 
L 872.923943 266.10514 
L 874.234443 270.398215 
L 875.544943 265.476885 
L 876.855443 273.958325 
L 878.165943 268.932287 
L 879.476444 257.466636 
L 880.786944 256.995445 
L 883.407944 266.890458 
L 884.718444 272.544752 
L 886.028944 267.885195 
L 887.339444 273.644198 
L 888.649944 267.675777 
L 889.960444 252.074115 
L 891.270944 253.801816 
L 893.891944 262.859157 
L 895.202444 273.068298 
L 896.512944 272.911234 
L 897.823444 257.100154 
L 899.133944 253.749461 
L 900.444444 255.68658 
L 901.754944 262.545029 
L 903.065444 263.120929 
L 904.375944 271.864143 
L 905.686445 272.125916 
L 906.996945 252.440597 
L 908.307445 256.262481 
L 909.617945 254.744198 
L 910.928445 266.157494 
L 912.238945 263.906248 
L 913.549445 270.92176 
L 914.859945 270.712342 
L 916.170445 258.304309 
L 917.480945 252.807079 
L 918.791445 253.749461 
L 920.101945 265.058048 
L 921.412445 266.995168 
L 922.722945 271.288242 
L 924.033445 263.69683 
L 926.654445 259.089627 
L 927.964945 254.377716 
L 929.275445 269.822314 
L 930.585945 267.309295 
L 931.896445 277.466082 
L 933.206946 269.298769 
L 934.517446 260.241428 
L 935.827946 262.963866 
L 937.138446 260.241428 
L 938.448946 286.104586 
L 939.759446 255.320098 
L 941.069946 276.209572 
L 942.380446 270.764697 
L 943.690946 266.262204 
L 945.001446 265.476885 
L 946.311946 268.251677 
L 947.622446 270.607633 
L 948.932946 273.225361 
L 950.243446 280.502647 
L 951.553946 272.387688 
L 952.864446 269.76996 
L 954.174946 271.340597 
L 955.485446 265.843367 
L 956.795946 273.120652 
L 958.106446 275.686026 
L 959.416947 282.125639 
L 960.727447 271.340597 
L 962.037947 270.34586 
L 963.348447 271.759434 
L 965.969447 270.869406 
L 967.279947 273.748907 
L 968.590447 282.544475 
L 969.900947 271.60237 
L 971.211447 269.560542 
L 972.521947 263.435057 
L 973.832447 270.398215 
L 975.142947 268.199323 
L 976.453447 271.759434 
L 977.763947 278.565528 
L 979.074447 266.157494 
L 980.384947 264.010957 
L 981.695447 261.497938 
L 983.005947 260.974392 
L 984.316447 268.356386 
L 985.626948 273.539489 
L 986.937448 272.963589 
L 988.247948 271.02647 
L 989.558448 260.398492 
L 990.868948 259.403755 
L 992.179448 273.43478 
L 993.489948 272.335334 
L 994.800448 273.853616 
L 996.110948 271.131179 
L 997.421448 256.157771 
L 1000.042448 247.571622 
L 1001.352948 245.634503 
L 1002.663448 258.251954 
L 1003.973948 286.104586 
L 1005.284448 248.35694 
L 1006.594948 255.948353 
L 1007.905448 241.655555 
L 1009.215948 244.273284 
L 1010.526448 248.147522 
L 1011.836948 252.388242 
L 1013.147449 255.163035 
L 1014.457949 270.869406 
L 1015.768449 250.451123 
L 1017.078949 249.979932 
L 1018.389449 230.032841 
L 1019.699949 242.597938 
L 1021.010449 249.561096 
L 1022.320949 250.974669 
L 1023.631449 258.461373 
L 1024.941949 250.86996 
L 1026.252449 226.525084 
L 1027.562949 213.959988 
L 1028.873449 204.745583 
L 1030.183949 219.928409 
L 1031.494449 263.539766 
L 1032.804949 256.471899 
L 1034.115449 229.299877 
L 1035.425949 183.803755 
L 1036.736449 102.706525 
L 1038.046949 102.130625 
L 1039.35745 122.967744 
L 1040.66795 161.18658 
L 1041.97845 167.416774 
L 1043.28895 217.048907 
L 1044.59945 148.307356 
L 1045.90995 133.909849 
L 1047.22045 90.874392 
L 1048.53095 107.889627 
L 1049.84145 144.747245 
L 1051.15195 176.317051 
L 1052.46245 99.931733 
L 1053.77295 50.8755 
L 1055.08345 112.025639 
L 1056.39395 114.22453 
L 1057.70445 155.218159 
L 1059.01495 172.75694 
L 1060.32545 227.62453 
L 1061.63595 220.347245 
L 1064.25695 172.023976 
L 1065.56745 156.317605 
L 1066.877951 198.253616 
L 1068.188451 223.907356 
L 1069.498951 236.001262 
L 1070.809451 240.137273 
L 1072.119951 206.106802 
L 1073.430451 217.677162 
L 1074.740951 237.833672 
L 1076.051451 250.555832 
L 1077.361951 261.340874 
L 1078.672451 268.51345 
L 1079.982951 261.86442 
L 1081.293451 243.906802 
L 1082.603951 254.953616 
L 1083.914451 262.806802 
L 1085.224951 263.277993 
L 1086.535451 271.707079 
L 1087.845951 275.528963 
L 1089.156451 265.215112 
L 1090.466951 259.979655 
L 1091.777451 262.911511 
L 1093.087952 271.340597 
L 1094.398452 273.43478 
L 1095.708952 274.900708 
L 1097.019452 279.141428 
L 1098.329952 275.528963 
L 1099.640452 267.36165 
L 1100.950952 271.550015 
L 1102.261452 274.220098 
L 1103.571952 278.2514 
L 1106.192952 282.073284 
L 1107.503452 280.973838 
L 1108.813952 243.069129 
L 1110.124452 279.298492 
L 1111.434952 280.345583 
L 1112.745452 280.659711 
L 1115.366452 284.272176 
L 1116.676952 281.026193 
L 1117.987452 278.670237 
L 1119.297952 277.204309 
L 1120.608453 280.031456 
L 1121.918953 281.445029 
L 1123.229453 283.225084 
L 1124.539953 283.905694 
L 1125.850453 282.387411 
L 1127.160953 264.639212 
L 1128.471453 276.890181 
L 1129.781953 286.104586 
L 1131.092453 277.6755 
L 1132.402953 283.958048 
L 1133.713453 282.910957 
L 1135.023953 282.963312 
L 1136.334453 281.863866 
L 1137.644953 281.654447 
L 1138.955453 281.811511 
L 1140.265953 282.125639 
L 1141.576453 284.115112 
L 1142.886953 284.638658 
L 1144.197453 282.649184 
L 1145.507953 275.633672 
L 1146.818454 276.576054 
L 1148.128954 286.104586 
L 1149.439454 276.209572 
L 1150.749954 284.481594 
L 1152.060454 283.591566 
L 1153.370954 281.602093 
L 1154.681454 280.450292 
L 1155.991954 280.921483 
L 1157.302454 280.76442 
L 1158.612954 281.968575 
L 1159.923454 283.486857 
L 1161.233954 283.643921 
L 1162.544454 281.130902 
L 1163.854954 277.0996 
L 1165.165454 353.2755 
L 1166.475954 280.345583 
L 1167.786454 278.722591 
L 1169.096954 281.549738 
L 1170.407454 282.282702 
L 1173.028455 274.272453 
L 1174.338955 273.277716 
L 1175.649455 286.104586 
L 1176.959955 286.104586 
L 1178.270455 263.330348 
L 1179.580955 281.392675 
L 1180.891455 277.256663 
L 1182.201955 276.523699 
L 1183.512455 275.633672 
L 1184.822955 271.392952 
L 1186.133455 286.104586 
L 1187.443955 272.440043 
L 1188.754455 280.76442 
L 1190.064955 275.84309 
L 1191.375455 272.85888 
L 1192.685955 273.015943 
L 1193.996455 286.104586 
L 1195.306955 286.104586 
L 1196.617455 249.299323 
L 1197.927955 280.607356 
L 1199.238455 275.110126 
L 1200.548956 260.764974 
L 1201.859456 264.482148 
L 1203.169956 286.104586 
L 1204.480456 286.104586 
L 1205.790956 228.723976 
L 1207.101456 273.801262 
L 1208.411956 286.104586 
L 1209.722456 235.530071 
L 1211.032956 255.11068 
L 1212.343456 286.104586 
L 1213.653956 286.104586 
L 1214.964456 198.148907 
L 1216.274956 272.85888 
L 1217.585456 253.644752 
L 1218.895956 250.86996 
L 1220.206456 244.063866 
L 1221.516956 286.104586 
L 1222.827456 286.104586 
L 1224.137956 201.656663 
L 1225.448456 270.398215 
L 1226.758957 259.141982 
L 1229.379957 254.011234 
L 1230.690457 286.104586 
L 1232.000957 286.104586 
L 1233.311457 204.693229 
L 1234.621957 276.41899 
L 1235.932457 279.193783 
L 1237.242957 264.325084 
L 1238.553457 261.026747 
L 1239.863957 286.104586 
L 1241.174457 286.104586 
L 1242.484957 236.734226 
L 1243.795457 272.073561 
L 1245.105957 286.104586 
L 1246.416457 286.104586 
L 1247.726957 214.117051 
L 1249.037457 286.104586 
L 1252.968957 286.104586 
L 1254.279458 228.776331 
L 1255.589958 271.60237 
L 1256.900458 267.152231 
L 1258.210958 286.104586 
L 1259.521458 286.104586 
L 1260.831958 246.472176 
L 1262.142458 277.413727 
L 1263.452958 280.450292 
L 1264.763458 267.623422 
L 1266.073958 272.387688 
L 1267.384458 286.104586 
L 1268.694958 286.104586 
L 1270.005458 249.351677 
L 1271.315958 279.455555 
L 1272.626458 271.864143 
L 1275.247458 267.414004 
L 1276.557958 286.104586 
L 1277.868458 286.104586 
L 1279.178958 250.18935 
L 1280.489459 278.879655 
L 1281.799959 276.41899 
L 1283.110459 269.08935 
L 1284.420959 268.251677 
L 1285.731459 286.104586 
L 1287.041959 286.104586 
L 1288.352459 233.017051 
L 1289.662959 276.314281 
L 1290.973459 270.188796 
L 1292.283959 286.104586 
L 1293.594459 250.346414 
L 1294.904959 286.104586 
L 1296.215459 286.104586 
L 1297.525959 241.917328 
L 1298.836459 270.869406 
L 1300.146959 286.104586 
L 1301.457459 243.645029 
L 1304.078459 286.104586 
L 1305.388959 286.104586 
L 1306.699459 234.116497 
L 1308.00996 273.539489 
L 1309.32046 266.733395 
L 1309.32046 266.733395 
" clip-path="url(#p4cb2f45e70)" style="fill: none; stroke: #0000ff; stroke-width: 1.5; stroke-linecap: square"/>
   </g>
   <g id="line2d_19">
    <path d="M 1069.498951 222.140826 
L 1070.809451 205.017701 
L 1072.119951 200.51554 
L 1073.430451 199.773847 
L 1074.740951 240.887191 
L 1076.051451 259.934714 
L 1077.361951 275.689893 
L 1078.672451 266.145903 
L 1079.982951 239.714173 
L 1081.293451 244.251769 
L 1082.603951 251.075491 
L 1083.914451 272.826538 
L 1086.535451 287.851572 
L 1087.845951 277.511756 
L 1089.156451 253.562248 
L 1090.466951 262.744836 
L 1091.777451 266.029046 
L 1093.087952 277.839602 
L 1094.398452 284.986748 
L 1095.708952 287.609353 
L 1097.019452 278.306334 
L 1098.329952 265.911044 
L 1099.640452 270.502716 
L 1102.261452 280.466559 
L 1103.571952 285.224476 
L 1104.882452 288.221365 
L 1106.192952 281.248137 
L 1107.503452 272.691296 
L 1108.813952 261.454077 
L 1110.124452 276.362059 
L 1111.434952 281.519071 
L 1114.055952 286.771699 
L 1115.366452 282.953749 
L 1116.676952 265.065509 
L 1117.987452 285.498191 
L 1119.297952 282.337033 
L 1120.608453 284.173991 
L 1123.229453 287.238881 
L 1124.539953 283.354106 
L 1125.850453 273.25363 
L 1127.160953 275.926258 
L 1128.471453 279.290906 
L 1129.781953 284.469333 
L 1131.092453 282.453941 
L 1132.402953 285.244235 
L 1133.713453 282.201231 
L 1135.023953 271.659404 
L 1136.334453 284.262615 
L 1137.644953 286.134753 
L 1138.955453 282.275213 
L 1140.265953 285.701576 
L 1141.576453 285.490596 
L 1142.886953 284.259914 
L 1144.197453 277.254976 
L 1145.507953 280.634663 
L 1146.818454 281.066852 
L 1148.128954 283.094432 
L 1149.439454 281.614425 
L 1150.749954 284.019847 
L 1152.060454 282.477876 
L 1153.370954 276.387286 
L 1154.681454 280.927091 
L 1155.991954 284.870476 
L 1157.302454 279.102134 
L 1158.612954 284.80637 
L 1159.923454 283.898698 
L 1161.233954 282.585306 
L 1162.544454 278.494913 
L 1163.854954 279.418362 
L 1165.165454 318.211915 
L 1166.475954 291.187247 
L 1167.786454 289.904974 
L 1169.096954 287.370261 
L 1170.407454 284.419589 
L 1171.717954 278.876469 
L 1173.028455 302.87157 
L 1174.338955 266.329691 
L 1175.649455 277.528173 
L 1176.959955 282.754436 
L 1178.270455 272.404482 
L 1179.580955 276.305495 
L 1180.891455 273.275836 
L 1182.201955 288.069694 
L 1183.512455 273.71579 
L 1184.822955 272.921933 
L 1186.133455 273.65836 
L 1187.443955 277.925273 
L 1188.754455 276.740155 
L 1190.064955 274.193648 
L 1191.375455 280.449287 
L 1192.685955 271.306224 
L 1193.996455 283.696518 
L 1196.617455 268.274429 
L 1197.927955 273.788984 
L 1200.548956 269.844529 
L 1201.859456 269.425751 
L 1203.169956 280.666917 
L 1204.480456 265.80023 
L 1205.790956 260.138609 
L 1207.101456 266.792549 
L 1208.411956 269.930827 
L 1209.722456 254.294332 
L 1211.032956 265.23057 
L 1212.343456 277.213866 
L 1213.653956 252.436193 
L 1214.964456 246.362708 
L 1216.274956 266.417368 
L 1217.585456 239.039687 
L 1218.895956 253.852235 
L 1220.206456 262.312546 
L 1221.516956 275.443034 
L 1222.827456 235.382443 
L 1224.137956 253.410543 
L 1225.448456 259.574105 
L 1226.758957 246.953708 
L 1228.069457 253.66607 
L 1229.379957 274.21329 
L 1230.690457 280.234726 
L 1232.000957 231.341115 
L 1233.311457 259.123004 
L 1234.621957 263.587651 
L 1235.932457 263.17807 
L 1237.242957 262.39175 
L 1238.553457 283.164583 
L 1239.863957 284.858967 
L 1241.174457 231.58044 
L 1242.484957 279.615485 
L 1243.795457 272.87851 
L 1245.105957 271.450633 
L 1246.416457 276.647537 
L 1247.726957 264.159397 
L 1249.037457 280.56384 
L 1250.347957 237.462661 
L 1251.658457 296.692253 
L 1252.968957 290.074614 
L 1254.279458 255.435232 
L 1255.589958 245.177209 
L 1256.900458 289.611141 
L 1258.210958 285.827343 
L 1259.521458 261.891174 
L 1260.831958 273.535362 
L 1262.142458 259.936748 
L 1263.452958 281.418148 
L 1264.763458 258.450572 
L 1266.073958 290.665263 
L 1267.384458 287.330244 
L 1268.694958 261.182056 
L 1270.005458 275.903731 
L 1271.315958 270.689836 
L 1272.626458 273.122297 
L 1273.936958 265.221376 
L 1275.247458 284.143888 
L 1276.557958 284.976176 
L 1277.868458 259.560697 
L 1279.178958 275.526823 
L 1280.489459 271.215888 
L 1281.799959 273.983997 
L 1283.110459 267.04921 
L 1284.420959 283.487933 
L 1285.731459 284.739847 
L 1287.041959 259.671052 
L 1288.352459 266.810212 
L 1289.662959 269.475638 
L 1290.973459 267.201102 
L 1292.283959 273.943751 
L 1293.594459 274.655947 
L 1294.904959 282.156424 
L 1296.215459 252.450286 
L 1297.525959 271.806326 
L 1298.836459 267.85166 
L 1300.146959 281.093745 
L 1301.457459 248.074436 
L 1302.767959 278.664216 
L 1304.078459 281.362789 
L 1305.388959 251.883077 
L 1306.699459 265.374802 
L 1308.00996 273.539966 
L 1309.32046 258.04517 
L 1309.32046 258.04517 
" clip-path="url(#p4cb2f45e70)" style="fill: none; stroke: #ffa500; stroke-width: 1.5; stroke-linecap: square"/>
   </g>
   <g id="line2d_20">
    <path d="M 1309.32046 258.04517 
L 1310.63096 258.53718 
L 1311.94146 275.854299 
L 1313.25196 275.873565 
L 1314.56246 242.375868 
L 1315.87296 267.441303 
L 1317.18346 266.626757 
L 1318.49396 257.547638 
L 1319.80446 257.680919 
L 1321.11496 272.542513 
L 1322.42546 272.549489 
L 1323.73596 243.697696 
L 1325.04646 265.285097 
L 1326.35696 264.583508 
" clip-path="url(#p4cb2f45e70)" style="fill: none; stroke: #ff0000; stroke-width: 1.5; stroke-linecap: square"/>
   </g>
   <g id="patch_3">
    <path d="M 48.029688 368.3955 
L 48.029688 35.7555 
" style="fill: none; stroke: #000000; stroke-width: 0.8; stroke-linejoin: miter; stroke-linecap: square"/>
   </g>
   <g id="patch_4">
    <path d="M 1387.229688 368.3955 
L 1387.229688 35.7555 
" style="fill: none; stroke: #000000; stroke-width: 0.8; stroke-linejoin: miter; stroke-linecap: square"/>
   </g>
   <g id="patch_5">
    <path d="M 48.029687 368.3955 
L 1387.229687 368.3955 
" style="fill: none; stroke: #000000; stroke-width: 0.8; stroke-linejoin: miter; stroke-linecap: square"/>
   </g>
   <g id="patch_6">
    <path d="M 48.029687 35.7555 
L 1387.229687 35.7555 
" style="fill: none; stroke: #000000; stroke-width: 0.8; stroke-linejoin: miter; stroke-linecap: square"/>
   </g>
   <g id="text_18">
    <!-- Daily Confirmed Cases Forecasting - Delaware -->
    <g transform="translate(578.866563 16.318125)scale(0.12 -0.12)">
     <defs>
      <path id="DejaVuSans-44" d="M 1259 4147 
L 1259 519 
L 2022 519 
Q 2988 519 3436 956 
Q 3884 1394 3884 2338 
Q 3884 3275 3436 3711 
Q 2988 4147 2022 4147 
L 1259 4147 
z
M 628 4666 
L 1925 4666 
Q 3281 4666 3915 4102 
Q 4550 3538 4550 2338 
Q 4550 1131 3912 565 
Q 3275 0 1925 0 
L 628 0 
L 628 4666 
z
" transform="scale(0.015625)"/>
      <path id="DejaVuSans-61" d="M 2194 1759 
Q 1497 1759 1228 1600 
Q 959 1441 959 1056 
Q 959 750 1161 570 
Q 1363 391 1709 391 
Q 2188 391 2477 730 
Q 2766 1069 2766 1631 
L 2766 1759 
L 2194 1759 
z
M 3341 1997 
L 3341 0 
L 2766 0 
L 2766 531 
Q 2569 213 2275 61 
Q 1981 -91 1556 -91 
Q 1019 -91 701 211 
Q 384 513 384 1019 
Q 384 1609 779 1909 
Q 1175 2209 1959 2209 
L 2766 2209 
L 2766 2266 
Q 2766 2663 2505 2880 
Q 2244 3097 1772 3097 
Q 1472 3097 1187 3025 
Q 903 2953 641 2809 
L 641 3341 
Q 956 3463 1253 3523 
Q 1550 3584 1831 3584 
Q 2591 3584 2966 3190 
Q 3341 2797 3341 1997 
z
" transform="scale(0.015625)"/>
      <path id="DejaVuSans-69" d="M 603 3500 
L 1178 3500 
L 1178 0 
L 603 0 
L 603 3500 
z
M 603 4863 
L 1178 4863 
L 1178 4134 
L 603 4134 
L 603 4863 
z
" transform="scale(0.015625)"/>
      <path id="DejaVuSans-6c" d="M 603 4863 
L 1178 4863 
L 1178 0 
L 603 0 
L 603 4863 
z
" transform="scale(0.015625)"/>
      <path id="DejaVuSans-79" d="M 2059 -325 
Q 1816 -950 1584 -1140 
Q 1353 -1331 966 -1331 
L 506 -1331 
L 506 -850 
L 844 -850 
Q 1081 -850 1212 -737 
Q 1344 -625 1503 -206 
L 1606 56 
L 191 3500 
L 800 3500 
L 1894 763 
L 2988 3500 
L 3597 3500 
L 2059 -325 
z
" transform="scale(0.015625)"/>
      <path id="DejaVuSans-20" transform="scale(0.015625)"/>
      <path id="DejaVuSans-43" d="M 4122 4306 
L 4122 3641 
Q 3803 3938 3442 4084 
Q 3081 4231 2675 4231 
Q 1875 4231 1450 3742 
Q 1025 3253 1025 2328 
Q 1025 1406 1450 917 
Q 1875 428 2675 428 
Q 3081 428 3442 575 
Q 3803 722 4122 1019 
L 4122 359 
Q 3791 134 3420 21 
Q 3050 -91 2638 -91 
Q 1578 -91 968 557 
Q 359 1206 359 2328 
Q 359 3453 968 4101 
Q 1578 4750 2638 4750 
Q 3056 4750 3426 4639 
Q 3797 4528 4122 4306 
z
" transform="scale(0.015625)"/>
      <path id="DejaVuSans-6f" d="M 1959 3097 
Q 1497 3097 1228 2736 
Q 959 2375 959 1747 
Q 959 1119 1226 758 
Q 1494 397 1959 397 
Q 2419 397 2687 759 
Q 2956 1122 2956 1747 
Q 2956 2369 2687 2733 
Q 2419 3097 1959 3097 
z
M 1959 3584 
Q 2709 3584 3137 3096 
Q 3566 2609 3566 1747 
Q 3566 888 3137 398 
Q 2709 -91 1959 -91 
Q 1206 -91 779 398 
Q 353 888 353 1747 
Q 353 2609 779 3096 
Q 1206 3584 1959 3584 
z
" transform="scale(0.015625)"/>
      <path id="DejaVuSans-6e" d="M 3513 2113 
L 3513 0 
L 2938 0 
L 2938 2094 
Q 2938 2591 2744 2837 
Q 2550 3084 2163 3084 
Q 1697 3084 1428 2787 
Q 1159 2491 1159 1978 
L 1159 0 
L 581 0 
L 581 3500 
L 1159 3500 
L 1159 2956 
Q 1366 3272 1645 3428 
Q 1925 3584 2291 3584 
Q 2894 3584 3203 3211 
Q 3513 2838 3513 2113 
z
" transform="scale(0.015625)"/>
      <path id="DejaVuSans-66" d="M 2375 4863 
L 2375 4384 
L 1825 4384 
Q 1516 4384 1395 4259 
Q 1275 4134 1275 3809 
L 1275 3500 
L 2222 3500 
L 2222 3053 
L 1275 3053 
L 1275 0 
L 697 0 
L 697 3053 
L 147 3053 
L 147 3500 
L 697 3500 
L 697 3744 
Q 697 4328 969 4595 
Q 1241 4863 1831 4863 
L 2375 4863 
z
" transform="scale(0.015625)"/>
      <path id="DejaVuSans-72" d="M 2631 2963 
Q 2534 3019 2420 3045 
Q 2306 3072 2169 3072 
Q 1681 3072 1420 2755 
Q 1159 2438 1159 1844 
L 1159 0 
L 581 0 
L 581 3500 
L 1159 3500 
L 1159 2956 
Q 1341 3275 1631 3429 
Q 1922 3584 2338 3584 
Q 2397 3584 2469 3576 
Q 2541 3569 2628 3553 
L 2631 2963 
z
" transform="scale(0.015625)"/>
      <path id="DejaVuSans-6d" d="M 3328 2828 
Q 3544 3216 3844 3400 
Q 4144 3584 4550 3584 
Q 5097 3584 5394 3201 
Q 5691 2819 5691 2113 
L 5691 0 
L 5113 0 
L 5113 2094 
Q 5113 2597 4934 2840 
Q 4756 3084 4391 3084 
Q 3944 3084 3684 2787 
Q 3425 2491 3425 1978 
L 3425 0 
L 2847 0 
L 2847 2094 
Q 2847 2600 2669 2842 
Q 2491 3084 2119 3084 
Q 1678 3084 1418 2786 
Q 1159 2488 1159 1978 
L 1159 0 
L 581 0 
L 581 3500 
L 1159 3500 
L 1159 2956 
Q 1356 3278 1631 3431 
Q 1906 3584 2284 3584 
Q 2666 3584 2933 3390 
Q 3200 3197 3328 2828 
z
" transform="scale(0.015625)"/>
      <path id="DejaVuSans-65" d="M 3597 1894 
L 3597 1613 
L 953 1613 
Q 991 1019 1311 708 
Q 1631 397 2203 397 
Q 2534 397 2845 478 
Q 3156 559 3463 722 
L 3463 178 
Q 3153 47 2828 -22 
Q 2503 -91 2169 -91 
Q 1331 -91 842 396 
Q 353 884 353 1716 
Q 353 2575 817 3079 
Q 1281 3584 2069 3584 
Q 2775 3584 3186 3129 
Q 3597 2675 3597 1894 
z
M 3022 2063 
Q 3016 2534 2758 2815 
Q 2500 3097 2075 3097 
Q 1594 3097 1305 2825 
Q 1016 2553 972 2059 
L 3022 2063 
z
" transform="scale(0.015625)"/>
      <path id="DejaVuSans-64" d="M 2906 2969 
L 2906 4863 
L 3481 4863 
L 3481 0 
L 2906 0 
L 2906 525 
Q 2725 213 2448 61 
Q 2172 -91 1784 -91 
Q 1150 -91 751 415 
Q 353 922 353 1747 
Q 353 2572 751 3078 
Q 1150 3584 1784 3584 
Q 2172 3584 2448 3432 
Q 2725 3281 2906 2969 
z
M 947 1747 
Q 947 1113 1208 752 
Q 1469 391 1925 391 
Q 2381 391 2643 752 
Q 2906 1113 2906 1747 
Q 2906 2381 2643 2742 
Q 2381 3103 1925 3103 
Q 1469 3103 1208 2742 
Q 947 2381 947 1747 
z
" transform="scale(0.015625)"/>
      <path id="DejaVuSans-73" d="M 2834 3397 
L 2834 2853 
Q 2591 2978 2328 3040 
Q 2066 3103 1784 3103 
Q 1356 3103 1142 2972 
Q 928 2841 928 2578 
Q 928 2378 1081 2264 
Q 1234 2150 1697 2047 
L 1894 2003 
Q 2506 1872 2764 1633 
Q 3022 1394 3022 966 
Q 3022 478 2636 193 
Q 2250 -91 1575 -91 
Q 1294 -91 989 -36 
Q 684 19 347 128 
L 347 722 
Q 666 556 975 473 
Q 1284 391 1588 391 
Q 1994 391 2212 530 
Q 2431 669 2431 922 
Q 2431 1156 2273 1281 
Q 2116 1406 1581 1522 
L 1381 1569 
Q 847 1681 609 1914 
Q 372 2147 372 2553 
Q 372 3047 722 3315 
Q 1072 3584 1716 3584 
Q 2034 3584 2315 3537 
Q 2597 3491 2834 3397 
z
" transform="scale(0.015625)"/>
      <path id="DejaVuSans-46" d="M 628 4666 
L 3309 4666 
L 3309 4134 
L 1259 4134 
L 1259 2759 
L 3109 2759 
L 3109 2228 
L 1259 2228 
L 1259 0 
L 628 0 
L 628 4666 
z
" transform="scale(0.015625)"/>
      <path id="DejaVuSans-63" d="M 3122 3366 
L 3122 2828 
Q 2878 2963 2633 3030 
Q 2388 3097 2138 3097 
Q 1578 3097 1268 2742 
Q 959 2388 959 1747 
Q 959 1106 1268 751 
Q 1578 397 2138 397 
Q 2388 397 2633 464 
Q 2878 531 3122 666 
L 3122 134 
Q 2881 22 2623 -34 
Q 2366 -91 2075 -91 
Q 1284 -91 818 406 
Q 353 903 353 1747 
Q 353 2603 823 3093 
Q 1294 3584 2113 3584 
Q 2378 3584 2631 3529 
Q 2884 3475 3122 3366 
z
" transform="scale(0.015625)"/>
      <path id="DejaVuSans-74" d="M 1172 4494 
L 1172 3500 
L 2356 3500 
L 2356 3053 
L 1172 3053 
L 1172 1153 
Q 1172 725 1289 603 
Q 1406 481 1766 481 
L 2356 481 
L 2356 0 
L 1766 0 
Q 1100 0 847 248 
Q 594 497 594 1153 
L 594 3053 
L 172 3053 
L 172 3500 
L 594 3500 
L 594 4494 
L 1172 4494 
z
" transform="scale(0.015625)"/>
      <path id="DejaVuSans-67" d="M 2906 1791 
Q 2906 2416 2648 2759 
Q 2391 3103 1925 3103 
Q 1463 3103 1205 2759 
Q 947 2416 947 1791 
Q 947 1169 1205 825 
Q 1463 481 1925 481 
Q 2391 481 2648 825 
Q 2906 1169 2906 1791 
z
M 3481 434 
Q 3481 -459 3084 -895 
Q 2688 -1331 1869 -1331 
Q 1566 -1331 1297 -1286 
Q 1028 -1241 775 -1147 
L 775 -588 
Q 1028 -725 1275 -790 
Q 1522 -856 1778 -856 
Q 2344 -856 2625 -561 
Q 2906 -266 2906 331 
L 2906 616 
Q 2728 306 2450 153 
Q 2172 0 1784 0 
Q 1141 0 747 490 
Q 353 981 353 1791 
Q 353 2603 747 3093 
Q 1141 3584 1784 3584 
Q 2172 3584 2450 3431 
Q 2728 3278 2906 2969 
L 2906 3500 
L 3481 3500 
L 3481 434 
z
" transform="scale(0.015625)"/>
      <path id="DejaVuSans-77" d="M 269 3500 
L 844 3500 
L 1563 769 
L 2278 3500 
L 2956 3500 
L 3675 769 
L 4391 3500 
L 4966 3500 
L 4050 0 
L 3372 0 
L 2619 2869 
L 1863 0 
L 1184 0 
L 269 3500 
z
" transform="scale(0.015625)"/>
     </defs>
     <use xlink:href="#DejaVuSans-44"/>
     <use xlink:href="#DejaVuSans-61" x="77.001953"/>
     <use xlink:href="#DejaVuSans-69" x="138.28125"/>
     <use xlink:href="#DejaVuSans-6c" x="166.064453"/>
     <use xlink:href="#DejaVuSans-79" x="193.847656"/>
     <use xlink:href="#DejaVuSans-20" x="253.027344"/>
     <use xlink:href="#DejaVuSans-43" x="284.814453"/>
     <use xlink:href="#DejaVuSans-6f" x="354.638672"/>
     <use xlink:href="#DejaVuSans-6e" x="415.820312"/>
     <use xlink:href="#DejaVuSans-66" x="479.199219"/>
     <use xlink:href="#DejaVuSans-69" x="514.404297"/>
     <use xlink:href="#DejaVuSans-72" x="542.1875"/>
     <use xlink:href="#DejaVuSans-6d" x="581.550781"/>
     <use xlink:href="#DejaVuSans-65" x="678.962891"/>
     <use xlink:href="#DejaVuSans-64" x="740.486328"/>
     <use xlink:href="#DejaVuSans-20" x="803.962891"/>
     <use xlink:href="#DejaVuSans-43" x="835.75"/>
     <use xlink:href="#DejaVuSans-61" x="905.574219"/>
     <use xlink:href="#DejaVuSans-73" x="966.853516"/>
     <use xlink:href="#DejaVuSans-65" x="1018.953125"/>
     <use xlink:href="#DejaVuSans-73" x="1080.476562"/>
     <use xlink:href="#DejaVuSans-20" x="1132.576172"/>
     <use xlink:href="#DejaVuSans-46" x="1164.363281"/>
     <use xlink:href="#DejaVuSans-6f" x="1218.257812"/>
     <use xlink:href="#DejaVuSans-72" x="1279.439453"/>
     <use xlink:href="#DejaVuSans-65" x="1318.302734"/>
     <use xlink:href="#DejaVuSans-63" x="1379.826172"/>
     <use xlink:href="#DejaVuSans-61" x="1434.806641"/>
     <use xlink:href="#DejaVuSans-73" x="1496.085938"/>
     <use xlink:href="#DejaVuSans-74" x="1548.185547"/>
     <use xlink:href="#DejaVuSans-69" x="1587.394531"/>
     <use xlink:href="#DejaVuSans-6e" x="1615.177734"/>
     <use xlink:href="#DejaVuSans-67" x="1678.556641"/>
     <use xlink:href="#DejaVuSans-20" x="1742.033203"/>
     <use xlink:href="#DejaVuSans-2d" x="1773.820312"/>
     <use xlink:href="#DejaVuSans-20" x="1809.904297"/>
     <use xlink:href="#DejaVuSans-44" x="1841.691406"/>
     <use xlink:href="#DejaVuSans-65" x="1918.693359"/>
     <use xlink:href="#DejaVuSans-6c" x="1980.216797"/>
     <use xlink:href="#DejaVuSans-61" x="2008"/>
     <use xlink:href="#DejaVuSans-77" x="2069.279297"/>
     <use xlink:href="#DejaVuSans-61" x="2151.066406"/>
     <use xlink:href="#DejaVuSans-72" x="2212.345703"/>
     <use xlink:href="#DejaVuSans-65" x="2251.208984"/>
    </g>
    <!-- ARIMA (1, 1, 1)x(1, 0, 1, 7) (R2 = 0.220637) -->
    <g transform="translate(585.645625 29.7555)scale(0.12 -0.12)">
     <defs>
      <path id="DejaVuSans-41" d="M 2188 4044 
L 1331 1722 
L 3047 1722 
L 2188 4044 
z
M 1831 4666 
L 2547 4666 
L 4325 0 
L 3669 0 
L 3244 1197 
L 1141 1197 
L 716 0 
L 50 0 
L 1831 4666 
z
" transform="scale(0.015625)"/>
      <path id="DejaVuSans-52" d="M 2841 2188 
Q 3044 2119 3236 1894 
Q 3428 1669 3622 1275 
L 4263 0 
L 3584 0 
L 2988 1197 
Q 2756 1666 2539 1819 
Q 2322 1972 1947 1972 
L 1259 1972 
L 1259 0 
L 628 0 
L 628 4666 
L 2053 4666 
Q 2853 4666 3247 4331 
Q 3641 3997 3641 3322 
Q 3641 2881 3436 2590 
Q 3231 2300 2841 2188 
z
M 1259 4147 
L 1259 2491 
L 2053 2491 
Q 2509 2491 2742 2702 
Q 2975 2913 2975 3322 
Q 2975 3731 2742 3939 
Q 2509 4147 2053 4147 
L 1259 4147 
z
" transform="scale(0.015625)"/>
      <path id="DejaVuSans-49" d="M 628 4666 
L 1259 4666 
L 1259 0 
L 628 0 
L 628 4666 
z
" transform="scale(0.015625)"/>
      <path id="DejaVuSans-4d" d="M 628 4666 
L 1569 4666 
L 2759 1491 
L 3956 4666 
L 4897 4666 
L 4897 0 
L 4281 0 
L 4281 4097 
L 3078 897 
L 2444 897 
L 1241 4097 
L 1241 0 
L 628 0 
L 628 4666 
z
" transform="scale(0.015625)"/>
      <path id="DejaVuSans-28" d="M 1984 4856 
Q 1566 4138 1362 3434 
Q 1159 2731 1159 2009 
Q 1159 1288 1364 580 
Q 1569 -128 1984 -844 
L 1484 -844 
Q 1016 -109 783 600 
Q 550 1309 550 2009 
Q 550 2706 781 3412 
Q 1013 4119 1484 4856 
L 1984 4856 
z
" transform="scale(0.015625)"/>
      <path id="DejaVuSans-2c" d="M 750 794 
L 1409 794 
L 1409 256 
L 897 -744 
L 494 -744 
L 750 256 
L 750 794 
z
" transform="scale(0.015625)"/>
      <path id="DejaVuSans-29" d="M 513 4856 
L 1013 4856 
Q 1481 4119 1714 3412 
Q 1947 2706 1947 2009 
Q 1947 1309 1714 600 
Q 1481 -109 1013 -844 
L 513 -844 
Q 928 -128 1133 580 
Q 1338 1288 1338 2009 
Q 1338 2731 1133 3434 
Q 928 4138 513 4856 
z
" transform="scale(0.015625)"/>
      <path id="DejaVuSans-78" d="M 3513 3500 
L 2247 1797 
L 3578 0 
L 2900 0 
L 1881 1375 
L 863 0 
L 184 0 
L 1544 1831 
L 300 3500 
L 978 3500 
L 1906 2253 
L 2834 3500 
L 3513 3500 
z
" transform="scale(0.015625)"/>
      <path id="DejaVuSans-3d" d="M 678 2906 
L 4684 2906 
L 4684 2381 
L 678 2381 
L 678 2906 
z
M 678 1631 
L 4684 1631 
L 4684 1100 
L 678 1100 
L 678 1631 
z
" transform="scale(0.015625)"/>
      <path id="DejaVuSans-2e" d="M 684 794 
L 1344 794 
L 1344 0 
L 684 0 
L 684 794 
z
" transform="scale(0.015625)"/>
      <path id="DejaVuSans-36" d="M 2113 2584 
Q 1688 2584 1439 2293 
Q 1191 2003 1191 1497 
Q 1191 994 1439 701 
Q 1688 409 2113 409 
Q 2538 409 2786 701 
Q 3034 994 3034 1497 
Q 3034 2003 2786 2293 
Q 2538 2584 2113 2584 
z
M 3366 4563 
L 3366 3988 
Q 3128 4100 2886 4159 
Q 2644 4219 2406 4219 
Q 1781 4219 1451 3797 
Q 1122 3375 1075 2522 
Q 1259 2794 1537 2939 
Q 1816 3084 2150 3084 
Q 2853 3084 3261 2657 
Q 3669 2231 3669 1497 
Q 3669 778 3244 343 
Q 2819 -91 2113 -91 
Q 1303 -91 875 529 
Q 447 1150 447 2328 
Q 447 3434 972 4092 
Q 1497 4750 2381 4750 
Q 2619 4750 2861 4703 
Q 3103 4656 3366 4563 
z
" transform="scale(0.015625)"/>
     </defs>
     <use xlink:href="#DejaVuSans-41"/>
     <use xlink:href="#DejaVuSans-52" x="68.408203"/>
     <use xlink:href="#DejaVuSans-49" x="137.890625"/>
     <use xlink:href="#DejaVuSans-4d" x="167.382812"/>
     <use xlink:href="#DejaVuSans-41" x="253.662109"/>
     <use xlink:href="#DejaVuSans-20" x="322.070312"/>
     <use xlink:href="#DejaVuSans-28" x="353.857422"/>
     <use xlink:href="#DejaVuSans-31" x="392.871094"/>
     <use xlink:href="#DejaVuSans-2c" x="456.494141"/>
     <use xlink:href="#DejaVuSans-20" x="488.28125"/>
     <use xlink:href="#DejaVuSans-31" x="520.068359"/>
     <use xlink:href="#DejaVuSans-2c" x="583.691406"/>
     <use xlink:href="#DejaVuSans-20" x="615.478516"/>
     <use xlink:href="#DejaVuSans-31" x="647.265625"/>
     <use xlink:href="#DejaVuSans-29" x="710.888672"/>
     <use xlink:href="#DejaVuSans-78" x="749.902344"/>
     <use xlink:href="#DejaVuSans-28" x="809.082031"/>
     <use xlink:href="#DejaVuSans-31" x="848.095703"/>
     <use xlink:href="#DejaVuSans-2c" x="911.71875"/>
     <use xlink:href="#DejaVuSans-20" x="943.505859"/>
     <use xlink:href="#DejaVuSans-30" x="975.292969"/>
     <use xlink:href="#DejaVuSans-2c" x="1038.916016"/>
     <use xlink:href="#DejaVuSans-20" x="1070.703125"/>
     <use xlink:href="#DejaVuSans-31" x="1102.490234"/>
     <use xlink:href="#DejaVuSans-2c" x="1166.113281"/>
     <use xlink:href="#DejaVuSans-20" x="1197.900391"/>
     <use xlink:href="#DejaVuSans-37" x="1229.6875"/>
     <use xlink:href="#DejaVuSans-29" x="1293.310547"/>
     <use xlink:href="#DejaVuSans-20" x="1332.324219"/>
     <use xlink:href="#DejaVuSans-28" x="1364.111328"/>
     <use xlink:href="#DejaVuSans-52" x="1403.125"/>
     <use xlink:href="#DejaVuSans-32" x="1472.607422"/>
     <use xlink:href="#DejaVuSans-20" x="1536.230469"/>
     <use xlink:href="#DejaVuSans-3d" x="1568.017578"/>
     <use xlink:href="#DejaVuSans-20" x="1651.806641"/>
     <use xlink:href="#DejaVuSans-30" x="1683.59375"/>
     <use xlink:href="#DejaVuSans-2e" x="1747.216797"/>
     <use xlink:href="#DejaVuSans-32" x="1779.003906"/>
     <use xlink:href="#DejaVuSans-32" x="1842.626953"/>
     <use xlink:href="#DejaVuSans-30" x="1906.25"/>
     <use xlink:href="#DejaVuSans-36" x="1969.873047"/>
     <use xlink:href="#DejaVuSans-33" x="2033.496094"/>
     <use xlink:href="#DejaVuSans-37" x="2097.119141"/>
     <use xlink:href="#DejaVuSans-29" x="2160.742188"/>
    </g>
   </g>
   <g id="legend_1">
    <g id="patch_7">
     <path d="M 1283.15 87.789875 
L 1380.229688 87.789875 
Q 1382.229688 87.789875 1382.229688 85.789875 
L 1382.229688 42.7555 
Q 1382.229688 40.7555 1380.229688 40.7555 
L 1283.15 40.7555 
Q 1281.15 40.7555 1281.15 42.7555 
L 1281.15 85.789875 
Q 1281.15 87.789875 1283.15 87.789875 
z
" style="fill: #ffffff; opacity: 0.8; stroke: #cccccc; stroke-linejoin: miter"/>
    </g>
    <g id="line2d_21">
     <path d="M 1285.15 48.853937 
L 1295.15 48.853937 
L 1305.15 48.853937 
" style="fill: none; stroke: #0000ff; stroke-width: 1.5; stroke-linecap: square"/>
    </g>
    <g id="text_19">
     <!-- Actual Value -->
     <g transform="translate(1313.15 52.353937)scale(0.1 -0.1)">
      <defs>
       <path id="DejaVuSans-75" d="M 544 1381 
L 544 3500 
L 1119 3500 
L 1119 1403 
Q 1119 906 1312 657 
Q 1506 409 1894 409 
Q 2359 409 2629 706 
Q 2900 1003 2900 1516 
L 2900 3500 
L 3475 3500 
L 3475 0 
L 2900 0 
L 2900 538 
Q 2691 219 2414 64 
Q 2138 -91 1772 -91 
Q 1169 -91 856 284 
Q 544 659 544 1381 
z
M 1991 3584 
L 1991 3584 
z
" transform="scale(0.015625)"/>
       <path id="DejaVuSans-56" d="M 1831 0 
L 50 4666 
L 709 4666 
L 2188 738 
L 3669 4666 
L 4325 4666 
L 2547 0 
L 1831 0 
z
" transform="scale(0.015625)"/>
      </defs>
      <use xlink:href="#DejaVuSans-41"/>
      <use xlink:href="#DejaVuSans-63" x="66.658203"/>
      <use xlink:href="#DejaVuSans-74" x="121.638672"/>
      <use xlink:href="#DejaVuSans-75" x="160.847656"/>
      <use xlink:href="#DejaVuSans-61" x="224.226562"/>
      <use xlink:href="#DejaVuSans-6c" x="285.505859"/>
      <use xlink:href="#DejaVuSans-20" x="313.289062"/>
      <use xlink:href="#DejaVuSans-56" x="345.076172"/>
      <use xlink:href="#DejaVuSans-61" x="405.734375"/>
      <use xlink:href="#DejaVuSans-6c" x="467.013672"/>
      <use xlink:href="#DejaVuSans-75" x="494.796875"/>
      <use xlink:href="#DejaVuSans-65" x="558.175781"/>
     </g>
    </g>
    <g id="line2d_22">
     <path d="M 1285.15 63.532062 
L 1295.15 63.532062 
L 1305.15 63.532062 
" style="fill: none; stroke: #ffa500; stroke-width: 1.5; stroke-linecap: square"/>
    </g>
    <g id="text_20">
     <!-- Check Value -->
     <g transform="translate(1313.15 67.032062)scale(0.1 -0.1)">
      <defs>
       <path id="DejaVuSans-68" d="M 3513 2113 
L 3513 0 
L 2938 0 
L 2938 2094 
Q 2938 2591 2744 2837 
Q 2550 3084 2163 3084 
Q 1697 3084 1428 2787 
Q 1159 2491 1159 1978 
L 1159 0 
L 581 0 
L 581 4863 
L 1159 4863 
L 1159 2956 
Q 1366 3272 1645 3428 
Q 1925 3584 2291 3584 
Q 2894 3584 3203 3211 
Q 3513 2838 3513 2113 
z
" transform="scale(0.015625)"/>
       <path id="DejaVuSans-6b" d="M 581 4863 
L 1159 4863 
L 1159 1991 
L 2875 3500 
L 3609 3500 
L 1753 1863 
L 3688 0 
L 2938 0 
L 1159 1709 
L 1159 0 
L 581 0 
L 581 4863 
z
" transform="scale(0.015625)"/>
      </defs>
      <use xlink:href="#DejaVuSans-43"/>
      <use xlink:href="#DejaVuSans-68" x="69.824219"/>
      <use xlink:href="#DejaVuSans-65" x="133.203125"/>
      <use xlink:href="#DejaVuSans-63" x="194.726562"/>
      <use xlink:href="#DejaVuSans-6b" x="249.707031"/>
      <use xlink:href="#DejaVuSans-20" x="307.617188"/>
      <use xlink:href="#DejaVuSans-56" x="339.404297"/>
      <use xlink:href="#DejaVuSans-61" x="400.0625"/>
      <use xlink:href="#DejaVuSans-6c" x="461.341797"/>
      <use xlink:href="#DejaVuSans-75" x="489.125"/>
      <use xlink:href="#DejaVuSans-65" x="552.503906"/>
     </g>
    </g>
    <g id="line2d_23">
     <path d="M 1285.15 78.210187 
L 1295.15 78.210187 
L 1305.15 78.210187 
" style="fill: none; stroke: #ff0000; stroke-width: 1.5; stroke-linecap: square"/>
    </g>
    <g id="text_21">
     <!-- Predict Value -->
     <g transform="translate(1313.15 81.710187)scale(0.1 -0.1)">
      <defs>
       <path id="DejaVuSans-50" d="M 1259 4147 
L 1259 2394 
L 2053 2394 
Q 2494 2394 2734 2622 
Q 2975 2850 2975 3272 
Q 2975 3691 2734 3919 
Q 2494 4147 2053 4147 
L 1259 4147 
z
M 628 4666 
L 2053 4666 
Q 2838 4666 3239 4311 
Q 3641 3956 3641 3272 
Q 3641 2581 3239 2228 
Q 2838 1875 2053 1875 
L 1259 1875 
L 1259 0 
L 628 0 
L 628 4666 
z
" transform="scale(0.015625)"/>
      </defs>
      <use xlink:href="#DejaVuSans-50"/>
      <use xlink:href="#DejaVuSans-72" x="58.552734"/>
      <use xlink:href="#DejaVuSans-65" x="97.416016"/>
      <use xlink:href="#DejaVuSans-64" x="158.939453"/>
      <use xlink:href="#DejaVuSans-69" x="222.416016"/>
      <use xlink:href="#DejaVuSans-63" x="250.199219"/>
      <use xlink:href="#DejaVuSans-74" x="305.179688"/>
      <use xlink:href="#DejaVuSans-20" x="344.388672"/>
      <use xlink:href="#DejaVuSans-56" x="376.175781"/>
      <use xlink:href="#DejaVuSans-61" x="436.833984"/>
      <use xlink:href="#DejaVuSans-6c" x="498.113281"/>
      <use xlink:href="#DejaVuSans-75" x="525.896484"/>
      <use xlink:href="#DejaVuSans-65" x="589.275391"/>
     </g>
    </g>
   </g>
  </g>
 </g>
 <defs>
  <clipPath id="p4cb2f45e70">
   <rect x="48.029688" y="35.7555" width="1339.2" height="332.64"/>
  </clipPath>
 </defs>
</svg>
