<?xml version="1.0" encoding="utf-8" standalone="no"?>
<!DOCTYPE svg PUBLIC "-//W3C//DTD SVG 1.1//EN"
  "http://www.w3.org/Graphics/SVG/1.1/DTD/svg11.dtd">
<svg xmlns:xlink="http://www.w3.org/1999/xlink" width="1400.792188pt" height="392.273625pt" viewBox="0 0 1400.792188 392.273625" xmlns="http://www.w3.org/2000/svg" version="1.1">
 <metadata>
  <rdf:RDF xmlns:dc="http://purl.org/dc/elements/1.1/" xmlns:cc="http://creativecommons.org/ns#" xmlns:rdf="http://www.w3.org/1999/02/22-rdf-syntax-ns#">
   <cc:Work>
    <dc:type rdf:resource="http://purl.org/dc/dcmitype/StillImage"/>
    <dc:date>2022-06-24T17:32:16.702229</dc:date>
    <dc:format>image/svg+xml</dc:format>
    <dc:creator>
     <cc:Agent>
      <dc:title>Matplotlib v3.5.2, https://matplotlib.org/</dc:title>
     </cc:Agent>
    </dc:creator>
   </cc:Work>
  </rdf:RDF>
 </metadata>
 <defs>
  <style type="text/css">*{stroke-linejoin: round; stroke-linecap: butt}</style>
 </defs>
 <g id="figure_1">
  <g id="patch_1">
   <path d="M 0 392.273625 
L 1400.792188 392.273625 
L 1400.792188 0 
L 0 0 
z
" style="fill: #ffffff"/>
  </g>
  <g id="axes_1">
   <g id="patch_2">
    <path d="M 54.392188 368.3955 
L 1393.592188 368.3955 
L 1393.592188 35.7555 
L 54.392188 35.7555 
z
" style="fill: #ffffff"/>
   </g>
   <g id="matplotlib.axis_1">
    <g id="xtick_1">
     <g id="line2d_1">
      <defs>
       <path id="m7eaa0cd9af" d="M 0 0 
L 0 3.5 
" style="stroke: #000000; stroke-width: 0.8"/>
      </defs>
      <g>
       <use xlink:href="#m7eaa0cd9af" x="85.338658" y="368.3955" style="stroke: #000000; stroke-width: 0.8"/>
      </g>
     </g>
     <g id="text_1">
      <!-- 2020-01 -->
      <g transform="translate(64.447252 382.993937)scale(0.1 -0.1)">
       <defs>
        <path id="DejaVuSans-32" d="M 1228 531 
L 3431 531 
L 3431 0 
L 469 0 
L 469 531 
Q 828 903 1448 1529 
Q 2069 2156 2228 2338 
Q 2531 2678 2651 2914 
Q 2772 3150 2772 3378 
Q 2772 3750 2511 3984 
Q 2250 4219 1831 4219 
Q 1534 4219 1204 4116 
Q 875 4013 500 3803 
L 500 4441 
Q 881 4594 1212 4672 
Q 1544 4750 1819 4750 
Q 2544 4750 2975 4387 
Q 3406 4025 3406 3419 
Q 3406 3131 3298 2873 
Q 3191 2616 2906 2266 
Q 2828 2175 2409 1742 
Q 1991 1309 1228 531 
z
" transform="scale(0.015625)"/>
        <path id="DejaVuSans-30" d="M 2034 4250 
Q 1547 4250 1301 3770 
Q 1056 3291 1056 2328 
Q 1056 1369 1301 889 
Q 1547 409 2034 409 
Q 2525 409 2770 889 
Q 3016 1369 3016 2328 
Q 3016 3291 2770 3770 
Q 2525 4250 2034 4250 
z
M 2034 4750 
Q 2819 4750 3233 4129 
Q 3647 3509 3647 2328 
Q 3647 1150 3233 529 
Q 2819 -91 2034 -91 
Q 1250 -91 836 529 
Q 422 1150 422 2328 
Q 422 3509 836 4129 
Q 1250 4750 2034 4750 
z
" transform="scale(0.015625)"/>
        <path id="DejaVuSans-2d" d="M 313 2009 
L 1997 2009 
L 1997 1497 
L 313 1497 
L 313 2009 
z
" transform="scale(0.015625)"/>
        <path id="DejaVuSans-31" d="M 794 531 
L 1825 531 
L 1825 4091 
L 703 3866 
L 703 4441 
L 1819 4666 
L 2450 4666 
L 2450 531 
L 3481 531 
L 3481 0 
L 794 0 
L 794 531 
z
" transform="scale(0.015625)"/>
       </defs>
       <use xlink:href="#DejaVuSans-32"/>
       <use xlink:href="#DejaVuSans-30" x="63.623047"/>
       <use xlink:href="#DejaVuSans-32" x="127.246094"/>
       <use xlink:href="#DejaVuSans-30" x="190.869141"/>
       <use xlink:href="#DejaVuSans-2d" x="254.492188"/>
       <use xlink:href="#DejaVuSans-30" x="290.576172"/>
       <use xlink:href="#DejaVuSans-31" x="354.199219"/>
      </g>
     </g>
    </g>
    <g id="xtick_2">
     <g id="line2d_2">
      <g>
       <use xlink:href="#m7eaa0cd9af" x="209.124539" y="368.3955" style="stroke: #000000; stroke-width: 0.8"/>
      </g>
     </g>
     <g id="text_2">
      <!-- 2020-04 -->
      <g transform="translate(188.233133 382.993937)scale(0.1 -0.1)">
       <defs>
        <path id="DejaVuSans-34" d="M 2419 4116 
L 825 1625 
L 2419 1625 
L 2419 4116 
z
M 2253 4666 
L 3047 4666 
L 3047 1625 
L 3713 1625 
L 3713 1100 
L 3047 1100 
L 3047 0 
L 2419 0 
L 2419 1100 
L 313 1100 
L 313 1709 
L 2253 4666 
z
" transform="scale(0.015625)"/>
       </defs>
       <use xlink:href="#DejaVuSans-32"/>
       <use xlink:href="#DejaVuSans-30" x="63.623047"/>
       <use xlink:href="#DejaVuSans-32" x="127.246094"/>
       <use xlink:href="#DejaVuSans-30" x="190.869141"/>
       <use xlink:href="#DejaVuSans-2d" x="254.492188"/>
       <use xlink:href="#DejaVuSans-30" x="290.576172"/>
       <use xlink:href="#DejaVuSans-34" x="354.199219"/>
      </g>
     </g>
    </g>
    <g id="xtick_3">
     <g id="line2d_3">
      <g>
       <use xlink:href="#m7eaa0cd9af" x="332.91042" y="368.3955" style="stroke: #000000; stroke-width: 0.8"/>
      </g>
     </g>
     <g id="text_3">
      <!-- 2020-07 -->
      <g transform="translate(312.019014 382.993937)scale(0.1 -0.1)">
       <defs>
        <path id="DejaVuSans-37" d="M 525 4666 
L 3525 4666 
L 3525 4397 
L 1831 0 
L 1172 0 
L 2766 4134 
L 525 4134 
L 525 4666 
z
" transform="scale(0.015625)"/>
       </defs>
       <use xlink:href="#DejaVuSans-32"/>
       <use xlink:href="#DejaVuSans-30" x="63.623047"/>
       <use xlink:href="#DejaVuSans-32" x="127.246094"/>
       <use xlink:href="#DejaVuSans-30" x="190.869141"/>
       <use xlink:href="#DejaVuSans-2d" x="254.492188"/>
       <use xlink:href="#DejaVuSans-30" x="290.576172"/>
       <use xlink:href="#DejaVuSans-37" x="354.199219"/>
      </g>
     </g>
    </g>
    <g id="xtick_4">
     <g id="line2d_4">
      <g>
       <use xlink:href="#m7eaa0cd9af" x="458.056586" y="368.3955" style="stroke: #000000; stroke-width: 0.8"/>
      </g>
     </g>
     <g id="text_4">
      <!-- 2020-10 -->
      <g transform="translate(437.165179 382.993937)scale(0.1 -0.1)">
       <use xlink:href="#DejaVuSans-32"/>
       <use xlink:href="#DejaVuSans-30" x="63.623047"/>
       <use xlink:href="#DejaVuSans-32" x="127.246094"/>
       <use xlink:href="#DejaVuSans-30" x="190.869141"/>
       <use xlink:href="#DejaVuSans-2d" x="254.492188"/>
       <use xlink:href="#DejaVuSans-31" x="290.576172"/>
       <use xlink:href="#DejaVuSans-30" x="354.199219"/>
      </g>
     </g>
    </g>
    <g id="xtick_5">
     <g id="line2d_5">
      <g>
       <use xlink:href="#m7eaa0cd9af" x="583.202751" y="368.3955" style="stroke: #000000; stroke-width: 0.8"/>
      </g>
     </g>
     <g id="text_5">
      <!-- 2021-01 -->
      <g transform="translate(562.311345 382.993937)scale(0.1 -0.1)">
       <use xlink:href="#DejaVuSans-32"/>
       <use xlink:href="#DejaVuSans-30" x="63.623047"/>
       <use xlink:href="#DejaVuSans-32" x="127.246094"/>
       <use xlink:href="#DejaVuSans-31" x="190.869141"/>
       <use xlink:href="#DejaVuSans-2d" x="254.492188"/>
       <use xlink:href="#DejaVuSans-30" x="290.576172"/>
       <use xlink:href="#DejaVuSans-31" x="354.199219"/>
      </g>
     </g>
    </g>
    <g id="xtick_6">
     <g id="line2d_6">
      <g>
       <use xlink:href="#m7eaa0cd9af" x="705.628348" y="368.3955" style="stroke: #000000; stroke-width: 0.8"/>
      </g>
     </g>
     <g id="text_6">
      <!-- 2021-04 -->
      <g transform="translate(684.736942 382.993937)scale(0.1 -0.1)">
       <use xlink:href="#DejaVuSans-32"/>
       <use xlink:href="#DejaVuSans-30" x="63.623047"/>
       <use xlink:href="#DejaVuSans-32" x="127.246094"/>
       <use xlink:href="#DejaVuSans-31" x="190.869141"/>
       <use xlink:href="#DejaVuSans-2d" x="254.492188"/>
       <use xlink:href="#DejaVuSans-30" x="290.576172"/>
       <use xlink:href="#DejaVuSans-34" x="354.199219"/>
      </g>
     </g>
    </g>
    <g id="xtick_7">
     <g id="line2d_7">
      <g>
       <use xlink:href="#m7eaa0cd9af" x="829.414229" y="368.3955" style="stroke: #000000; stroke-width: 0.8"/>
      </g>
     </g>
     <g id="text_7">
      <!-- 2021-07 -->
      <g transform="translate(808.522823 382.993937)scale(0.1 -0.1)">
       <use xlink:href="#DejaVuSans-32"/>
       <use xlink:href="#DejaVuSans-30" x="63.623047"/>
       <use xlink:href="#DejaVuSans-32" x="127.246094"/>
       <use xlink:href="#DejaVuSans-31" x="190.869141"/>
       <use xlink:href="#DejaVuSans-2d" x="254.492188"/>
       <use xlink:href="#DejaVuSans-30" x="290.576172"/>
       <use xlink:href="#DejaVuSans-37" x="354.199219"/>
      </g>
     </g>
    </g>
    <g id="xtick_8">
     <g id="line2d_8">
      <g>
       <use xlink:href="#m7eaa0cd9af" x="954.560395" y="368.3955" style="stroke: #000000; stroke-width: 0.8"/>
      </g>
     </g>
     <g id="text_8">
      <!-- 2021-10 -->
      <g transform="translate(933.668988 382.993937)scale(0.1 -0.1)">
       <use xlink:href="#DejaVuSans-32"/>
       <use xlink:href="#DejaVuSans-30" x="63.623047"/>
       <use xlink:href="#DejaVuSans-32" x="127.246094"/>
       <use xlink:href="#DejaVuSans-31" x="190.869141"/>
       <use xlink:href="#DejaVuSans-2d" x="254.492188"/>
       <use xlink:href="#DejaVuSans-31" x="290.576172"/>
       <use xlink:href="#DejaVuSans-30" x="354.199219"/>
      </g>
     </g>
    </g>
    <g id="xtick_9">
     <g id="line2d_9">
      <g>
       <use xlink:href="#m7eaa0cd9af" x="1079.70656" y="368.3955" style="stroke: #000000; stroke-width: 0.8"/>
      </g>
     </g>
     <g id="text_9">
      <!-- 2022-01 -->
      <g transform="translate(1058.815154 382.993937)scale(0.1 -0.1)">
       <use xlink:href="#DejaVuSans-32"/>
       <use xlink:href="#DejaVuSans-30" x="63.623047"/>
       <use xlink:href="#DejaVuSans-32" x="127.246094"/>
       <use xlink:href="#DejaVuSans-32" x="190.869141"/>
       <use xlink:href="#DejaVuSans-2d" x="254.492188"/>
       <use xlink:href="#DejaVuSans-30" x="290.576172"/>
       <use xlink:href="#DejaVuSans-31" x="354.199219"/>
      </g>
     </g>
    </g>
    <g id="xtick_10">
     <g id="line2d_10">
      <g>
       <use xlink:href="#m7eaa0cd9af" x="1202.132157" y="368.3955" style="stroke: #000000; stroke-width: 0.8"/>
      </g>
     </g>
     <g id="text_10">
      <!-- 2022-04 -->
      <g transform="translate(1181.240751 382.993937)scale(0.1 -0.1)">
       <use xlink:href="#DejaVuSans-32"/>
       <use xlink:href="#DejaVuSans-30" x="63.623047"/>
       <use xlink:href="#DejaVuSans-32" x="127.246094"/>
       <use xlink:href="#DejaVuSans-32" x="190.869141"/>
       <use xlink:href="#DejaVuSans-2d" x="254.492188"/>
       <use xlink:href="#DejaVuSans-30" x="290.576172"/>
       <use xlink:href="#DejaVuSans-34" x="354.199219"/>
      </g>
     </g>
    </g>
    <g id="xtick_11">
     <g id="line2d_11">
      <g>
       <use xlink:href="#m7eaa0cd9af" x="1325.918038" y="368.3955" style="stroke: #000000; stroke-width: 0.8"/>
      </g>
     </g>
     <g id="text_11">
      <!-- 2022-07 -->
      <g transform="translate(1305.026632 382.993937)scale(0.1 -0.1)">
       <use xlink:href="#DejaVuSans-32"/>
       <use xlink:href="#DejaVuSans-30" x="63.623047"/>
       <use xlink:href="#DejaVuSans-32" x="127.246094"/>
       <use xlink:href="#DejaVuSans-32" x="190.869141"/>
       <use xlink:href="#DejaVuSans-2d" x="254.492188"/>
       <use xlink:href="#DejaVuSans-30" x="290.576172"/>
       <use xlink:href="#DejaVuSans-37" x="354.199219"/>
      </g>
     </g>
    </g>
   </g>
   <g id="matplotlib.axis_2">
    <g id="ytick_1">
     <g id="line2d_12">
      <defs>
       <path id="m00092c8bc2" d="M 0 0 
L -3.5 0 
" style="stroke: #000000; stroke-width: 0.8"/>
      </defs>
      <g>
       <use xlink:href="#m00092c8bc2" x="54.392188" y="359.398413" style="stroke: #000000; stroke-width: 0.8"/>
      </g>
     </g>
     <g id="text_12">
      <!-- −10000 -->
      <g transform="translate(7.2 363.197631)scale(0.1 -0.1)">
       <defs>
        <path id="DejaVuSans-2212" d="M 678 2272 
L 4684 2272 
L 4684 1741 
L 678 1741 
L 678 2272 
z
" transform="scale(0.015625)"/>
       </defs>
       <use xlink:href="#DejaVuSans-2212"/>
       <use xlink:href="#DejaVuSans-31" x="83.789062"/>
       <use xlink:href="#DejaVuSans-30" x="147.412109"/>
       <use xlink:href="#DejaVuSans-30" x="211.035156"/>
       <use xlink:href="#DejaVuSans-30" x="274.658203"/>
       <use xlink:href="#DejaVuSans-30" x="338.28125"/>
      </g>
     </g>
    </g>
    <g id="ytick_2">
     <g id="line2d_13">
      <g>
       <use xlink:href="#m00092c8bc2" x="54.392188" y="297.861602" style="stroke: #000000; stroke-width: 0.8"/>
      </g>
     </g>
     <g id="text_13">
      <!-- 0 -->
      <g transform="translate(41.029688 301.660821)scale(0.1 -0.1)">
       <use xlink:href="#DejaVuSans-30"/>
      </g>
     </g>
    </g>
    <g id="ytick_3">
     <g id="line2d_14">
      <g>
       <use xlink:href="#m00092c8bc2" x="54.392188" y="236.324791" style="stroke: #000000; stroke-width: 0.8"/>
      </g>
     </g>
     <g id="text_14">
      <!-- 10000 -->
      <g transform="translate(15.579688 240.12401)scale(0.1 -0.1)">
       <use xlink:href="#DejaVuSans-31"/>
       <use xlink:href="#DejaVuSans-30" x="63.623047"/>
       <use xlink:href="#DejaVuSans-30" x="127.246094"/>
       <use xlink:href="#DejaVuSans-30" x="190.869141"/>
       <use xlink:href="#DejaVuSans-30" x="254.492188"/>
      </g>
     </g>
    </g>
    <g id="ytick_4">
     <g id="line2d_15">
      <g>
       <use xlink:href="#m00092c8bc2" x="54.392188" y="174.78798" style="stroke: #000000; stroke-width: 0.8"/>
      </g>
     </g>
     <g id="text_15">
      <!-- 20000 -->
      <g transform="translate(15.579688 178.587199)scale(0.1 -0.1)">
       <use xlink:href="#DejaVuSans-32"/>
       <use xlink:href="#DejaVuSans-30" x="63.623047"/>
       <use xlink:href="#DejaVuSans-30" x="127.246094"/>
       <use xlink:href="#DejaVuSans-30" x="190.869141"/>
       <use xlink:href="#DejaVuSans-30" x="254.492188"/>
      </g>
     </g>
    </g>
    <g id="ytick_5">
     <g id="line2d_16">
      <g>
       <use xlink:href="#m00092c8bc2" x="54.392188" y="113.251169" style="stroke: #000000; stroke-width: 0.8"/>
      </g>
     </g>
     <g id="text_16">
      <!-- 30000 -->
      <g transform="translate(15.579688 117.050388)scale(0.1 -0.1)">
       <defs>
        <path id="DejaVuSans-33" d="M 2597 2516 
Q 3050 2419 3304 2112 
Q 3559 1806 3559 1356 
Q 3559 666 3084 287 
Q 2609 -91 1734 -91 
Q 1441 -91 1130 -33 
Q 819 25 488 141 
L 488 750 
Q 750 597 1062 519 
Q 1375 441 1716 441 
Q 2309 441 2620 675 
Q 2931 909 2931 1356 
Q 2931 1769 2642 2001 
Q 2353 2234 1838 2234 
L 1294 2234 
L 1294 2753 
L 1863 2753 
Q 2328 2753 2575 2939 
Q 2822 3125 2822 3475 
Q 2822 3834 2567 4026 
Q 2313 4219 1838 4219 
Q 1578 4219 1281 4162 
Q 984 4106 628 3988 
L 628 4550 
Q 988 4650 1302 4700 
Q 1616 4750 1894 4750 
Q 2613 4750 3031 4423 
Q 3450 4097 3450 3541 
Q 3450 3153 3228 2886 
Q 3006 2619 2597 2516 
z
" transform="scale(0.015625)"/>
       </defs>
       <use xlink:href="#DejaVuSans-33"/>
       <use xlink:href="#DejaVuSans-30" x="63.623047"/>
       <use xlink:href="#DejaVuSans-30" x="127.246094"/>
       <use xlink:href="#DejaVuSans-30" x="190.869141"/>
       <use xlink:href="#DejaVuSans-30" x="254.492188"/>
      </g>
     </g>
    </g>
    <g id="ytick_6">
     <g id="line2d_17">
      <g>
       <use xlink:href="#m00092c8bc2" x="54.392188" y="51.714358" style="stroke: #000000; stroke-width: 0.8"/>
      </g>
     </g>
     <g id="text_17">
      <!-- 40000 -->
      <g transform="translate(15.579688 55.513577)scale(0.1 -0.1)">
       <use xlink:href="#DejaVuSans-34"/>
       <use xlink:href="#DejaVuSans-30" x="63.623047"/>
       <use xlink:href="#DejaVuSans-30" x="127.246094"/>
       <use xlink:href="#DejaVuSans-30" x="190.869141"/>
       <use xlink:href="#DejaVuSans-30" x="254.492188"/>
      </g>
     </g>
    </g>
   </g>
   <g id="line2d_18">
    <path d="M 115.264915 297.861602 
L 181.918851 297.82468 
L 184.63942 297.738528 
L 185.999704 297.843141 
L 187.359988 297.221619 
L 188.720273 297.406229 
L 190.080557 296.957011 
L 191.440842 295.744736 
L 192.801126 296.944703 
L 194.16141 295.172443 
L 195.521695 294.249391 
L 196.881979 292.138678 
L 199.602548 293.387876 
L 200.962832 282.637395 
L 202.323117 285.868077 
L 203.683401 283.714289 
L 205.043686 283.941975 
L 206.40397 277.862138 
L 207.764255 285.185019 
L 209.124539 275.960651 
L 210.484823 277.339075 
L 211.845108 271.370005 
L 213.205392 271.837685 
L 214.565677 277.056006 
L 215.925961 275.800655 
L 217.286245 277.394459 
L 218.64653 279.271331 
L 220.006814 275.769887 
L 221.367099 275.948343 
L 222.727383 275.936036 
L 224.087667 275.099135 
L 225.447952 281.037438 
L 226.808236 271.769994 
L 228.168521 284.286581 
L 229.528805 271.480771 
L 230.889089 278.477506 
L 232.249374 279.689782 
L 233.609658 273.979166 
L 234.969943 276.809859 
L 236.330227 275.308361 
L 237.690512 276.157569 
L 239.050796 272.563819 
L 240.41108 284.50196 
L 241.771365 277.542147 
L 243.131649 276.077571 
L 244.491934 284.631187 
L 245.852218 281.443581 
L 247.212502 282.422016 
L 248.572787 283.788133 
L 249.933071 282.163561 
L 251.293356 282.280481 
L 252.65364 279.228256 
L 254.013924 288.428009 
L 255.374209 283.511218 
L 256.734493 289.861816 
L 258.094778 284.883488 
L 259.455062 286.403448 
L 260.815346 288.231091 
L 262.175631 289.498749 
L 263.535915 288.840305 
L 264.8962 293.387876 
L 266.256484 293.818633 
L 267.616769 290.717178 
L 268.977053 289.923353 
L 270.337337 291.03717 
L 273.057906 287.104967 
L 274.418191 290.895635 
L 275.778475 288.98184 
L 277.138759 292.778661 
L 278.499044 291.609462 
L 279.859328 294.384772 
L 281.219613 291.591001 
L 282.579897 292.070988 
L 283.940181 293.634023 
L 285.300466 292.452516 
L 286.66075 294.317082 
L 288.021035 287.603415 
L 289.381319 293.123267 
L 290.741603 292.704817 
L 292.101888 294.870913 
L 293.462172 293.81248 
L 294.822457 294.53246 
L 296.182741 294.920142 
L 297.543025 292.784815 
L 298.90331 294.378618 
L 300.263594 296.144725 
L 301.623879 295.720121 
L 302.984163 295.917039 
L 304.344448 294.378618 
L 305.704732 294.81553 
L 307.065016 295.603201 
L 308.425301 295.055523 
L 309.785585 296.113956 
L 311.14587 296.360104 
L 312.506154 295.689352 
L 313.866438 296.009344 
L 315.226723 295.246287 
L 316.587007 295.283209 
L 317.947292 295.677045 
L 320.66786 295.984729 
L 322.028145 295.658584 
L 323.388429 296.7724 
L 324.748714 295.800119 
L 326.108998 295.326285 
L 327.469282 295.947807 
L 328.829567 295.861655 
L 330.189851 297.043162 
L 331.550136 295.190904 
L 332.91042 296.009344 
L 334.270705 294.926296 
L 335.630989 295.289363 
L 336.991273 295.997036 
L 338.351558 295.449359 
L 339.711842 296.372411 
L 341.072127 295.873963 
L 342.432411 296.637019 
L 343.792695 296.144725 
L 345.15298 295.41859 
L 346.513264 295.597047 
L 347.873549 295.547818 
L 349.233833 296.095495 
L 350.594117 295.061677 
L 351.954402 295.320132 
L 353.314686 296.175493 
L 354.674971 297.264695 
L 356.035255 296.083188 
L 357.395539 297.910831 
L 358.755824 296.384718 
L 361.476393 295.135521 
L 362.836677 296.107803 
L 364.196961 294.797069 
L 365.557246 294.483231 
L 366.91753 294.575536 
L 368.277815 294.81553 
L 369.638099 294.495538 
L 370.998384 295.76935 
L 372.358668 295.3509 
L 373.718952 293.258648 
L 375.079237 295.369361 
L 377.799806 295.966268 
L 379.16009 295.443205 
L 383.240943 295.357054 
L 385.961512 295.609355 
L 387.321796 295.978575 
L 388.682081 294.913989 
L 390.042365 294.667841 
L 391.40265 293.590947 
L 392.762934 294.052473 
L 395.483503 297.615455 
L 396.843787 295.646277 
L 398.204072 295.517049 
L 399.564356 295.58474 
L 400.924641 296.993933 
L 402.284925 295.824733 
L 403.645209 294.446309 
L 405.005494 296.747786 
L 406.365778 296.144725 
L 407.726063 295.738582 
L 409.086347 295.787811 
L 410.446631 295.707813 
L 411.806916 295.369361 
L 413.1672 295.553971 
L 414.527485 295.917039 
L 415.887769 295.387822 
L 418.608338 295.732428 
L 421.328907 294.710917 
L 422.689191 295.597047 
L 424.049475 295.76935 
L 425.40976 295.609355 
L 426.770044 295.70166 
L 428.130329 295.424744 
L 430.850898 294.600151 
L 432.211182 294.913989 
L 433.571466 295.824733 
L 434.931751 295.473974 
L 436.292035 294.833991 
L 437.65232 295.067831 
L 439.012604 293.966322 
L 440.372888 294.538614 
L 441.733173 294.809376 
L 444.453742 294.913989 
L 445.814026 294.729378 
L 447.17431 294.833991 
L 448.534595 295.984729 
L 449.894879 291.941761 
L 451.255164 292.840198 
L 452.615448 293.166343 
L 455.336017 294.354004 
L 456.696301 292.858659 
L 458.056586 293.449412 
L 459.41687 292.723278 
L 460.777154 291.547925 
L 462.137439 293.584793 
L 463.497723 294.132471 
L 464.858008 293.29557 
L 466.218292 294.015551 
L 467.578577 289.154143 
L 468.938861 291.769458 
L 470.299145 291.941761 
L 471.65943 292.710971 
L 473.019714 293.966322 
L 474.379999 290.532568 
L 475.740283 290.797176 
L 477.100567 290.704871 
L 478.460852 291.437159 
L 479.821136 291.166397 
L 481.181421 291.141782 
L 482.541705 286.7419 
L 483.901989 290.071042 
L 485.262274 289.744896 
L 486.622558 289.037223 
L 487.982843 289.591054 
L 489.343127 284.391194 
L 490.703411 289.160297 
L 492.063696 287.664952 
L 493.42398 285.548086 
L 494.784265 284.975794 
L 496.144549 285.708082 
L 497.504834 283.289685 
L 498.865118 287.080353 
L 500.225402 284.489653 
L 501.585687 285.874231 
L 502.945971 282.809698 
L 504.306256 279.080567 
L 505.66654 281.978951 
L 507.026824 280.871288 
L 508.387109 275.17298 
L 509.747393 282.42817 
L 511.107678 281.111282 
L 512.467962 270.471567 
L 513.828246 274.391462 
L 515.188531 272.502282 
L 516.548815 273.105343 
L 517.9091 267.997788 
L 519.269384 266.767051 
L 520.629668 279.819009 
L 521.989953 268.674692 
L 523.350237 268.674692 
L 524.710522 267.782409 
L 526.070806 271.819223 
L 527.43109 266.21322 
L 528.791375 270.600795 
L 530.151659 271.517693 
L 531.511944 267.117811 
L 532.872228 268.773151 
L 534.232513 267.788562 
L 535.592797 268.133169 
L 536.953081 274.852988 
L 538.313366 265.91169 
L 539.67365 273.006884 
L 541.033935 264.200966 
L 542.394219 266.674746 
L 543.754503 263.591752 
L 545.114788 258.521119 
L 546.475072 261.351812 
L 547.835357 257.191924 
L 549.195641 270.533104 
L 550.555925 259.856467 
L 551.91621 266.379369 
L 553.276494 262.059485 
L 554.636779 271.413081 
L 555.997063 256.053493 
L 557.357347 268.982376 
L 558.717632 263.794823 
L 560.077916 269.468517 
L 561.438201 258.945723 
L 562.798485 268.287011 
L 564.15877 269.702357 
L 565.519054 268.545465 
L 566.879338 262.834849 
L 568.239623 273.954551 
L 569.599907 265.536315 
L 570.960192 264.465575 
L 572.320476 265.265553 
L 573.68076 264.44096 
L 575.041045 269.216216 
L 576.401329 279.148258 
L 577.761614 275.314514 
L 579.121898 270.686946 
L 580.482182 264.32404 
L 583.202751 260.841056 
L 584.563036 259.96108 
L 585.92332 271.720765 
L 587.283604 286.803437 
L 588.643889 253.844321 
L 590.004173 263.050228 
L 591.364458 256.607324 
L 592.724742 261.364119 
L 594.085027 257.505761 
L 595.445311 263.536369 
L 596.805595 265.037867 
L 598.16588 269.634667 
L 599.526164 249.370595 
L 602.246733 259.025721 
L 603.607017 260.588755 
L 604.967302 266.280911 
L 606.327586 274.151469 
L 609.048155 264.397884 
L 610.408439 266.791666 
L 611.768724 272.016141 
L 613.129008 253.881243 
L 614.489293 265.419395 
L 615.849577 272.366901 
L 617.209861 268.139322 
L 618.570146 268.594695 
L 619.93043 268.656231 
L 621.290715 261.025667 
L 622.650999 265.407088 
L 624.011283 271.486925 
L 625.371568 276.219105 
L 626.731852 278.477506 
L 628.092137 283.640445 
L 630.812706 271.843838 
L 632.17299 270.102346 
L 633.533274 271.203855 
L 634.893559 282.102025 
L 636.253843 275.856038 
L 637.614128 270.970015 
L 638.974412 275.363744 
L 640.334696 274.896064 
L 641.694981 274.742222 
L 643.055265 284.520421 
L 644.41555 288.969533 
L 645.775834 275.505278 
L 647.136118 272.576126 
L 648.496403 277.695989 
L 649.856687 279.111336 
L 651.216972 280.157461 
L 652.577256 285.369629 
L 653.93754 281.222048 
L 655.297825 278.428277 
L 656.658109 278.668271 
L 658.018394 275.849885 
L 660.738963 272.422284 
L 662.099247 283.160458 
L 663.459531 278.539043 
L 664.819816 277.622145 
L 666.1801 275.148365 
L 667.540385 278.212898 
L 668.900669 275.086828 
L 670.260953 274.969908 
L 671.621238 282.360479 
L 672.981522 283.66506 
L 674.341807 272.471514 
L 675.702091 274.631456 
L 677.062375 274.385308 
L 678.42266 272.945347 
L 679.782944 274.071471 
L 681.143229 277.468303 
L 682.503513 280.483606 
L 683.863797 275.012984 
L 685.224082 271.222316 
L 686.584366 270.410031 
L 687.944651 269.856199 
L 689.304935 267.653181 
L 690.665219 277.935982 
L 692.025504 278.471353 
L 693.385788 268.305472 
L 694.746073 272.656124 
L 696.106357 273.579176 
L 697.466642 263.407141 
L 698.826926 269.173141 
L 700.18721 270.114654 
L 701.547495 275.579123 
L 702.907779 267.887021 
L 704.268064 275.265285 
L 705.628348 263.364066 
L 706.988632 269.99158 
L 708.348917 270.508489 
L 709.709201 274.483767 
L 711.069486 280.440531 
L 712.42977 275.031445 
L 713.790054 271.751533 
L 715.150339 271.203855 
L 716.510623 272.059217 
L 717.870908 275.714504 
L 719.231192 277.019084 
L 720.591476 282.674317 
L 721.951761 273.474564 
L 723.312045 275.936036 
L 726.032614 271.154626 
L 727.392899 273.726865 
L 728.753183 278.48366 
L 730.113467 284.428116 
L 732.834036 276.47756 
L 734.194321 277.985212 
L 735.554605 280.42207 
L 736.914889 280.735907 
L 738.275174 287.437266 
L 739.635458 353.2755 
L 740.995743 284.791183 
L 742.356027 284.858874 
L 743.716311 284.065049 
L 745.076596 286.428062 
L 746.43688 288.083403 
L 747.797165 290.489492 
L 749.157449 291.812533 
L 750.517733 291.683306 
L 751.878018 282.305096 
L 753.238302 289.16645 
L 754.598587 286.551136 
L 755.958871 299.221565 
L 757.319156 295.775504 
L 758.67944 296.926242 
L 760.039724 294.409387 
L 764.120578 295.873963 
L 765.480862 293.886324 
L 766.841146 296.206262 
L 768.201431 295.726274 
L 769.561715 293.886324 
L 770.922 295.129367 
L 772.282284 294.409387 
L 773.642568 293.849402 
L 775.002853 295.53551 
L 776.363137 296.009344 
L 777.723422 297.233926 
L 779.083706 295.46782 
L 781.804275 295.437051 
L 783.164559 296.224723 
L 785.885128 296.347796 
L 788.605697 296.88932 
L 789.965981 296.181647 
L 791.326266 296.132417 
L 792.68655 297.406229 
L 794.046835 294.310928 
L 795.407119 296.575482 
L 798.127688 296.661634 
L 799.487972 296.729325 
L 800.848257 295.757043 
L 802.208541 296.175493 
L 803.568825 297.861602 
L 804.92911 295.055523 
L 806.289394 296.440101 
L 809.009963 296.12011 
L 810.370247 296.397026 
L 811.730532 296.224723 
L 814.451101 296.975472 
L 815.811385 297.086238 
L 817.171669 296.347796 
L 819.892238 296.187801 
L 821.252523 295.713967 
L 822.612807 296.403179 
L 823.973092 296.93855 
L 825.333376 296.957011 
L 826.69366 296.489331 
L 828.053945 296.661634 
L 829.414229 296.520099 
L 830.774514 295.953961 
L 832.134798 296.692402 
L 833.495082 297.17239 
L 834.855367 297.332385 
L 836.215651 296.913935 
L 837.575936 296.12011 
L 838.93622 295.824733 
L 840.296504 295.412437 
L 841.656789 295.947807 
L 843.017073 296.12011 
L 844.377358 296.53856 
L 845.737642 295.627816 
L 847.097926 295.615508 
L 848.458211 295.11706 
L 851.17878 294.483231 
L 853.899348 295.941653 
L 855.259633 293.81248 
L 857.980202 293.270956 
L 859.340486 292.267906 
L 860.700771 292.563282 
L 862.061055 294.194008 
L 863.421339 294.655534 
L 864.781624 292.975579 
L 866.141908 292.027912 
L 867.502193 291.234087 
L 868.862477 290.975633 
L 870.222761 290.587951 
L 871.583046 292.150986 
L 872.94333 292.45867 
L 874.303615 289.781819 
L 875.663899 290.292574 
L 877.024183 288.840305 
L 878.384468 289.578747 
L 879.744752 288.391087 
L 881.105037 290.667949 
L 882.465321 292.563282 
L 883.825605 287.837255 
L 885.18589 287.486496 
L 886.546174 286.452677 
L 887.906459 286.514214 
L 889.266743 282.083564 
L 890.627028 290.021812 
L 891.987312 289.837202 
L 893.347596 286.655749 
L 894.707881 287.541879 
L 896.068165 285.418859 
L 897.42845 279.769779 
L 898.788734 284.581958 
L 900.149018 288.938764 
L 901.509303 287.868024 
L 904.229872 284.858874 
L 905.590156 285.221941 
L 906.95044 281.91126 
L 908.310725 285.960383 
L 909.671009 286.477292 
L 911.031294 288.581851 
L 912.391578 284.766568 
L 913.751862 283.812748 
L 915.112147 282.218945 
L 916.472431 287.184965 
L 917.832716 284.028127 
L 919.193 287.314192 
L 920.553285 285.85577 
L 921.913569 295.683199 
L 923.273853 276.336025 
L 924.634138 284.261967 
L 925.994422 281.468195 
L 927.354707 282.514321 
L 928.714991 286.495753 
L 930.075275 288.354165 
L 931.43556 285.3204 
L 932.795844 283.861977 
L 934.156129 279.659013 
L 935.516413 283.252763 
L 936.876697 281.720496 
L 938.236982 286.114225 
L 939.597266 287.874177 
L 940.957551 284.538882 
L 942.317835 283.394298 
L 943.678119 284.003512 
L 946.398688 284.114278 
L 947.758973 291.031016 
L 949.119257 290.729485 
L 950.479541 286.243452 
L 951.839826 285.572701 
L 953.20011 283.541986 
L 954.560395 287.566493 
L 955.920679 285.954229 
L 957.280964 288.91415 
L 958.641248 290.194115 
L 960.001532 287.720335 
L 962.722101 285.15425 
L 964.082386 286.360372 
L 965.44267 286.612673 
L 966.802954 289.043377 
L 968.163239 291.99099 
L 969.523523 287.757257 
L 970.883808 287.117275 
L 972.244092 287.781872 
L 973.604376 289.351061 
L 974.964661 288.926457 
L 976.324945 292.347904 
L 977.68523 293.141728 
L 979.045514 290.243345 
L 980.405798 291.055631 
L 981.766083 288.827998 
L 983.126367 287.363422 
L 984.486652 290.846405 
L 985.846936 293.018655 
L 987.207221 292.058681 
L 988.567505 288.79723 
L 989.927789 289.929507 
L 991.288074 285.769618 
L 992.648358 289.824894 
L 994.008643 290.292574 
L 995.368927 290.384879 
L 996.729211 292.80943 
L 998.089496 290.384879 
L 999.44978 289.874124 
L 1000.810065 288.606465 
L 1002.170349 289.338754 
L 1003.530633 289.227987 
L 1004.890918 292.163293 
L 1006.251202 292.618666 
L 1007.611487 288.852613 
L 1010.332055 286.643441 
L 1011.69234 286.655749 
L 1013.052624 287.781872 
L 1014.412909 287.39419 
L 1015.773193 289.480288 
L 1017.133477 287.16035 
L 1018.493762 285.874231 
L 1019.854046 282.643549 
L 1021.214331 284.08351 
L 1022.574615 284.329657 
L 1023.9349 288.003405 
L 1025.295184 288.366472 
L 1026.655468 281.615884 
L 1028.015753 284.274274 
L 1029.376037 280.317457 
L 1030.736322 284.66811 
L 1032.096606 285.615776 
L 1033.45689 286.360372 
L 1034.817175 284.071203 
L 1036.177459 277.855985 
L 1037.537744 278.243667 
L 1038.898028 270.403877 
L 1040.258312 270.397723 
L 1041.618597 270.699254 
L 1042.978881 276.348333 
L 1044.339166 279.468249 
L 1045.69945 273.554562 
L 1047.059734 271.659228 
L 1048.420019 263.296375 
L 1049.780303 264.244042 
L 1051.140588 269.579284 
L 1052.500872 274.219159 
L 1053.861157 277.683682 
L 1055.221441 270.803866 
L 1056.581725 267.160887 
L 1057.94201 253.413563 
L 1059.302294 252.342823 
L 1060.662579 250.822864 
L 1062.022863 252.662814 
L 1063.383147 254.201235 
L 1064.743432 245.592235 
L 1066.103716 224.595875 
L 1067.464001 186.344593 
L 1068.824285 181.304728 
L 1070.184569 177.981741 
L 1071.544854 210.731631 
L 1072.905138 237.973978 
L 1074.265423 204.116424 
L 1075.625707 134.955202 
L 1076.985991 81.40587 
L 1079.70656 98.537718 
L 1081.066845 135.08443 
L 1082.427129 164.062114 
L 1085.147698 68.421603 
L 1086.507982 99.319235 
L 1087.868267 61.184874 
L 1089.228551 96.63623 
L 1090.588836 122.395539 
L 1091.94912 155.970023 
L 1093.309404 141.515027 
L 1094.669689 154.634675 
L 1096.029973 152.191663 
L 1097.390258 155.656186 
L 1098.750542 194.116692 
L 1100.110826 202.817997 
L 1101.471111 242.767695 
L 1102.831395 228.651151 
L 1104.19168 230.700326 
L 1105.551964 223.562056 
L 1106.912248 224.737409 
L 1108.272533 242.946152 
L 1109.632817 241.278504 
L 1110.993102 268.053171 
L 1112.353386 262.650239 
L 1113.71367 254.004317 
L 1115.073955 256.48425 
L 1116.434239 235.598657 
L 1117.794524 264.760951 
L 1119.154808 284.465038 
L 1120.515093 285.105021 
L 1121.875377 276.637556 
L 1123.235661 273.289953 
L 1124.595946 273.806862 
L 1125.95623 279.259024 
L 1127.316515 279.640552 
L 1128.676799 286.637288 
L 1130.037083 290.852559 
L 1131.397368 286.144993 
L 1132.757652 283.529679 
L 1134.117937 278.219052 
L 1135.478221 281.997412 
L 1136.838505 286.212684 
L 1138.19879 291.111014 
L 1139.559074 290.858713 
L 1140.919359 288.188015 
L 1142.279643 282.514321 
L 1143.639927 280.988208 
L 1145.000212 283.66506 
L 1146.360496 297.861602 
L 1147.720781 297.861602 
L 1149.081065 276.816013 
L 1150.44135 290.458723 
L 1151.801634 290.680256 
L 1153.161918 297.861602 
L 1154.522203 278.305203 
L 1155.882487 290.994094 
L 1157.242772 290.021812 
L 1158.603056 293.203265 
L 1159.96334 290.994094 
L 1161.323625 289.061838 
L 1162.683909 289.997197 
L 1164.044194 289.049531 
L 1166.764762 293.800172 
L 1168.125047 291.917146 
L 1169.485331 290.514107 
L 1170.845616 291.9233 
L 1172.2059 289.381829 
L 1173.566184 290.231037 
L 1174.926469 293.467874 
L 1176.286753 294.981679 
L 1177.647038 295.215519 
L 1179.007322 293.375568 
L 1180.367606 287.504957 
L 1181.727891 291.197165 
L 1183.088175 288.489546 
L 1184.44846 292.514053 
L 1185.808744 294.704763 
L 1187.169029 294.46477 
L 1188.529313 292.57559 
L 1189.889597 291.067938 
L 1191.249882 288.317242 
L 1192.610166 290.624873 
L 1193.970451 292.267906 
L 1195.330735 292.070988 
L 1196.691019 293.904785 
L 1199.411588 289.437212 
L 1200.771873 288.827998 
L 1202.132157 288.526468 
L 1203.492441 288.674156 
L 1204.852726 297.861602 
L 1206.21301 286.612673 
L 1207.573295 287.954175 
L 1210.293863 284.883488 
L 1211.654148 285.443473 
L 1213.014432 287.837255 
L 1214.374717 286.717285 
L 1215.735001 290.975633 
L 1217.095286 285.665006 
L 1218.45557 283.880438 
L 1219.815854 281.062052 
L 1221.176139 283.240456 
L 1222.536423 284.55119 
L 1223.896708 287.714182 
L 1225.256992 297.861602 
L 1226.617276 280.551297 
L 1227.977561 284.046588 
L 1229.337845 280.649756 
L 1230.69813 280.200537 
L 1232.058414 282.280481 
L 1233.418698 287.492649 
L 1234.778983 289.769511 
L 1236.139267 281.086667 
L 1237.499552 278.877496 
L 1240.22012 277.954444 
L 1241.580405 277.837524 
L 1242.940689 283.726596 
L 1244.300974 279.308253 
L 1245.661258 281.597423 
L 1247.021543 276.932932 
L 1248.381827 271.16078 
L 1249.742111 271.609998 
L 1251.102396 273.333029 
L 1252.46268 277.499071 
L 1253.822965 284.698878 
L 1255.183249 270.828481 
L 1256.543533 267.554722 
L 1257.903818 259.911851 
L 1259.264102 257.936519 
L 1260.624387 266.065532 
L 1261.984671 273.40072 
L 1263.344955 277.425227 
L 1264.70524 269.437749 
L 1266.065524 266.410138 
L 1267.425809 260.970284 
L 1268.786093 260.127229 
L 1270.146377 265.44401 
L 1271.506662 273.696096 
L 1272.866946 279.677474 
L 1274.227231 260.176459 
L 1275.587515 268.003941 
L 1276.947799 264.194813 
L 1278.308084 265.899382 
L 1279.668368 268.459314 
L 1281.028653 297.861602 
L 1282.388937 259.585705 
L 1283.749222 282.945079 
L 1286.46979 268.723922 
L 1287.830075 268.588541 
L 1289.190359 271.056167 
L 1290.550644 279.431327 
L 1291.910928 283.086614 
L 1293.271212 275.148365 
L 1294.631497 276.237566 
L 1295.991781 274.840681 
L 1297.352066 275.24067 
L 1298.71235 277.677528 
L 1300.072634 284.1512 
L 1301.432919 291.837148 
L 1302.793203 278.619041 
L 1304.153488 278.969801 
L 1305.513772 278.188283 
L 1306.874056 276.489867 
L 1308.234341 281.831263 
L 1309.594625 283.234302 
L 1310.95491 289.012608 
L 1312.315194 280.274381 
L 1313.675479 276.003727 
L 1315.035763 278.01598 
L 1315.035763 278.01598 
" clip-path="url(#p1117344410)" style="fill: none; stroke: #0000ff; stroke-width: 1.5; stroke-linecap: square"/>
   </g>
   <g id="line2d_19">
    <path d="M 1075.625707 139.774725 
L 1076.985991 98.577114 
L 1078.346276 91.743365 
L 1079.70656 109.655619 
L 1081.066845 137.778018 
L 1082.427129 140.750905 
L 1085.147698 50.8755 
L 1086.507982 86.291528 
L 1087.868267 72.332433 
L 1089.228551 106.86719 
L 1090.588836 131.878946 
L 1091.94912 124.719392 
L 1093.309404 108.84247 
L 1094.669689 144.366862 
L 1096.029973 135.372181 
L 1097.390258 163.800227 
L 1098.750542 199.48871 
L 1100.110826 219.141804 
L 1101.471111 222.643248 
L 1102.831395 224.148505 
L 1104.19168 228.946147 
L 1105.551964 222.66126 
L 1106.912248 243.470784 
L 1108.272533 250.924144 
L 1109.632817 265.200651 
L 1110.993102 258.027658 
L 1112.353386 261.220017 
L 1113.71367 253.676227 
L 1115.073955 255.263133 
L 1116.434239 254.795783 
L 1117.794524 263.033903 
L 1119.154808 293.877638 
L 1120.515093 283.280057 
L 1121.875377 275.435849 
L 1123.235661 274.208813 
L 1124.595946 265.598687 
L 1125.95623 289.896663 
L 1127.316515 291.253745 
L 1128.676799 293.093015 
L 1130.037083 286.903698 
L 1131.397368 284.108253 
L 1132.757652 283.984829 
L 1134.117937 279.905743 
L 1136.838505 291.168081 
L 1138.19879 294.197883 
L 1139.559074 288.766817 
L 1140.919359 286.695252 
L 1142.279643 281.868226 
L 1143.639927 282.71122 
L 1145.000212 286.281789 
L 1146.360496 297.430898 
L 1147.720781 298.491451 
L 1149.081065 281.998567 
L 1150.44135 284.94856 
L 1151.801634 287.612397 
L 1153.161918 295.948245 
L 1154.522203 290.566292 
L 1155.882487 291.815133 
L 1157.242772 282.512245 
L 1158.603056 294.514772 
L 1159.96334 291.469213 
L 1161.323625 292.359691 
L 1162.683909 283.460986 
L 1164.044194 294.054492 
L 1165.404478 292.197146 
L 1166.764762 292.228206 
L 1168.125047 292.520089 
L 1169.485331 290.216768 
L 1170.845616 292.441927 
L 1172.2059 287.937903 
L 1173.566184 292.369036 
L 1174.926469 294.003397 
L 1176.286753 293.618321 
L 1177.647038 294.276488 
L 1179.007322 293.957334 
L 1180.367606 288.93441 
L 1183.088175 291.118939 
L 1184.44846 292.907643 
L 1185.808744 293.909095 
L 1187.169029 293.437013 
L 1188.529313 290.619616 
L 1189.889597 292.181628 
L 1191.249882 288.418169 
L 1192.610166 292.085508 
L 1193.970451 293.316296 
L 1195.330735 292.328891 
L 1196.691019 292.398508 
L 1199.411588 289.11596 
L 1200.771873 289.501987 
L 1202.132157 290.119182 
L 1203.492441 289.387571 
L 1204.852726 295.74973 
L 1206.21301 288.458871 
L 1207.573295 286.889809 
L 1210.293863 285.333663 
L 1211.654148 285.826764 
L 1213.014432 290.873931 
L 1214.374717 283.834095 
L 1215.735001 288.820561 
L 1217.095286 285.740125 
L 1218.45557 283.767775 
L 1219.815854 282.188245 
L 1221.176139 283.959101 
L 1222.536423 284.964183 
L 1223.896708 287.282787 
L 1225.256992 292.331393 
L 1226.617276 283.454955 
L 1227.977561 282.531196 
L 1229.337845 282.197713 
L 1230.69813 281.679774 
L 1232.058414 283.505661 
L 1233.418698 290.324915 
L 1234.778983 282.528936 
L 1236.139267 282.66561 
L 1237.499552 278.408288 
L 1238.859836 278.495273 
L 1240.22012 279.188189 
L 1241.580405 280.747614 
L 1242.940689 284.822649 
L 1244.300974 275.584558 
L 1245.661258 279.055399 
L 1247.021543 276.959678 
L 1248.381827 272.916791 
L 1249.742111 272.294397 
L 1251.102396 276.018995 
L 1252.46268 275.854789 
L 1253.822965 281.114159 
L 1255.183249 272.216096 
L 1256.543533 266.618267 
L 1257.903818 262.256017 
L 1259.264102 260.113663 
L 1260.624387 266.610755 
L 1261.984671 273.680212 
L 1263.344955 270.517141 
L 1264.70524 267.930317 
L 1266.065524 263.18724 
L 1267.425809 260.958087 
L 1268.786093 263.828757 
L 1270.146377 268.523639 
L 1271.506662 274.297267 
L 1272.866946 273.134436 
L 1274.227231 262.721848 
L 1276.947799 263.274451 
L 1279.668368 272.6325 
L 1281.028653 292.564593 
L 1282.388937 261.392957 
L 1283.749222 278.444462 
L 1285.109506 274.349734 
L 1286.46979 271.097707 
L 1287.830075 271.301435 
L 1289.190359 283.978952 
L 1290.550644 266.656627 
L 1291.910928 284.330178 
L 1293.271212 276.146458 
L 1294.631497 272.667203 
L 1295.991781 274.218173 
L 1297.352066 276.414837 
L 1298.71235 284.220387 
L 1300.072634 281.564151 
L 1301.432919 287.204291 
L 1302.793203 281.303463 
L 1304.153488 278.181125 
L 1306.874056 278.502583 
L 1308.234341 285.270153 
L 1309.594625 286.202518 
L 1310.95491 282.506652 
L 1312.315194 281.107523 
L 1313.675479 276.934653 
L 1315.035763 277.040586 
L 1315.035763 277.040586 
" clip-path="url(#p1117344410)" style="fill: none; stroke: #ffa500; stroke-width: 1.5; stroke-linecap: square"/>
   </g>
   <g id="line2d_20">
    <path d="M 1315.035763 277.040586 
L 1316.396047 279.547844 
L 1317.756332 281.391153 
L 1319.116616 284.328063 
L 1320.476901 279.288505 
L 1321.837185 277.627811 
L 1323.197469 278.20982 
L 1324.557754 277.648389 
L 1325.918038 279.35185 
L 1327.278323 280.604217 
L 1328.638607 282.599589 
L 1329.998891 279.175652 
L 1331.359176 278.047356 
L 1332.71946 278.44278 
" clip-path="url(#p1117344410)" style="fill: none; stroke: #ff0000; stroke-width: 1.5; stroke-linecap: square"/>
   </g>
   <g id="patch_3">
    <path d="M 54.392188 368.3955 
L 54.392188 35.7555 
" style="fill: none; stroke: #000000; stroke-width: 0.8; stroke-linejoin: miter; stroke-linecap: square"/>
   </g>
   <g id="patch_4">
    <path d="M 1393.592188 368.3955 
L 1393.592188 35.7555 
" style="fill: none; stroke: #000000; stroke-width: 0.8; stroke-linejoin: miter; stroke-linecap: square"/>
   </g>
   <g id="patch_5">
    <path d="M 54.392188 368.3955 
L 1393.592188 368.3955 
" style="fill: none; stroke: #000000; stroke-width: 0.8; stroke-linejoin: miter; stroke-linecap: square"/>
   </g>
   <g id="patch_6">
    <path d="M 54.392188 35.7555 
L 1393.592188 35.7555 
" style="fill: none; stroke: #000000; stroke-width: 0.8; stroke-linejoin: miter; stroke-linecap: square"/>
   </g>
   <g id="text_18">
    <!-- Daily Confirmed Cases Forecasting - New Jersey -->
    <g transform="translate(580.200312 16.318125)scale(0.12 -0.12)">
     <defs>
      <path id="DejaVuSans-44" d="M 1259 4147 
L 1259 519 
L 2022 519 
Q 2988 519 3436 956 
Q 3884 1394 3884 2338 
Q 3884 3275 3436 3711 
Q 2988 4147 2022 4147 
L 1259 4147 
z
M 628 4666 
L 1925 4666 
Q 3281 4666 3915 4102 
Q 4550 3538 4550 2338 
Q 4550 1131 3912 565 
Q 3275 0 1925 0 
L 628 0 
L 628 4666 
z
" transform="scale(0.015625)"/>
      <path id="DejaVuSans-61" d="M 2194 1759 
Q 1497 1759 1228 1600 
Q 959 1441 959 1056 
Q 959 750 1161 570 
Q 1363 391 1709 391 
Q 2188 391 2477 730 
Q 2766 1069 2766 1631 
L 2766 1759 
L 2194 1759 
z
M 3341 1997 
L 3341 0 
L 2766 0 
L 2766 531 
Q 2569 213 2275 61 
Q 1981 -91 1556 -91 
Q 1019 -91 701 211 
Q 384 513 384 1019 
Q 384 1609 779 1909 
Q 1175 2209 1959 2209 
L 2766 2209 
L 2766 2266 
Q 2766 2663 2505 2880 
Q 2244 3097 1772 3097 
Q 1472 3097 1187 3025 
Q 903 2953 641 2809 
L 641 3341 
Q 956 3463 1253 3523 
Q 1550 3584 1831 3584 
Q 2591 3584 2966 3190 
Q 3341 2797 3341 1997 
z
" transform="scale(0.015625)"/>
      <path id="DejaVuSans-69" d="M 603 3500 
L 1178 3500 
L 1178 0 
L 603 0 
L 603 3500 
z
M 603 4863 
L 1178 4863 
L 1178 4134 
L 603 4134 
L 603 4863 
z
" transform="scale(0.015625)"/>
      <path id="DejaVuSans-6c" d="M 603 4863 
L 1178 4863 
L 1178 0 
L 603 0 
L 603 4863 
z
" transform="scale(0.015625)"/>
      <path id="DejaVuSans-79" d="M 2059 -325 
Q 1816 -950 1584 -1140 
Q 1353 -1331 966 -1331 
L 506 -1331 
L 506 -850 
L 844 -850 
Q 1081 -850 1212 -737 
Q 1344 -625 1503 -206 
L 1606 56 
L 191 3500 
L 800 3500 
L 1894 763 
L 2988 3500 
L 3597 3500 
L 2059 -325 
z
" transform="scale(0.015625)"/>
      <path id="DejaVuSans-20" transform="scale(0.015625)"/>
      <path id="DejaVuSans-43" d="M 4122 4306 
L 4122 3641 
Q 3803 3938 3442 4084 
Q 3081 4231 2675 4231 
Q 1875 4231 1450 3742 
Q 1025 3253 1025 2328 
Q 1025 1406 1450 917 
Q 1875 428 2675 428 
Q 3081 428 3442 575 
Q 3803 722 4122 1019 
L 4122 359 
Q 3791 134 3420 21 
Q 3050 -91 2638 -91 
Q 1578 -91 968 557 
Q 359 1206 359 2328 
Q 359 3453 968 4101 
Q 1578 4750 2638 4750 
Q 3056 4750 3426 4639 
Q 3797 4528 4122 4306 
z
" transform="scale(0.015625)"/>
      <path id="DejaVuSans-6f" d="M 1959 3097 
Q 1497 3097 1228 2736 
Q 959 2375 959 1747 
Q 959 1119 1226 758 
Q 1494 397 1959 397 
Q 2419 397 2687 759 
Q 2956 1122 2956 1747 
Q 2956 2369 2687 2733 
Q 2419 3097 1959 3097 
z
M 1959 3584 
Q 2709 3584 3137 3096 
Q 3566 2609 3566 1747 
Q 3566 888 3137 398 
Q 2709 -91 1959 -91 
Q 1206 -91 779 398 
Q 353 888 353 1747 
Q 353 2609 779 3096 
Q 1206 3584 1959 3584 
z
" transform="scale(0.015625)"/>
      <path id="DejaVuSans-6e" d="M 3513 2113 
L 3513 0 
L 2938 0 
L 2938 2094 
Q 2938 2591 2744 2837 
Q 2550 3084 2163 3084 
Q 1697 3084 1428 2787 
Q 1159 2491 1159 1978 
L 1159 0 
L 581 0 
L 581 3500 
L 1159 3500 
L 1159 2956 
Q 1366 3272 1645 3428 
Q 1925 3584 2291 3584 
Q 2894 3584 3203 3211 
Q 3513 2838 3513 2113 
z
" transform="scale(0.015625)"/>
      <path id="DejaVuSans-66" d="M 2375 4863 
L 2375 4384 
L 1825 4384 
Q 1516 4384 1395 4259 
Q 1275 4134 1275 3809 
L 1275 3500 
L 2222 3500 
L 2222 3053 
L 1275 3053 
L 1275 0 
L 697 0 
L 697 3053 
L 147 3053 
L 147 3500 
L 697 3500 
L 697 3744 
Q 697 4328 969 4595 
Q 1241 4863 1831 4863 
L 2375 4863 
z
" transform="scale(0.015625)"/>
      <path id="DejaVuSans-72" d="M 2631 2963 
Q 2534 3019 2420 3045 
Q 2306 3072 2169 3072 
Q 1681 3072 1420 2755 
Q 1159 2438 1159 1844 
L 1159 0 
L 581 0 
L 581 3500 
L 1159 3500 
L 1159 2956 
Q 1341 3275 1631 3429 
Q 1922 3584 2338 3584 
Q 2397 3584 2469 3576 
Q 2541 3569 2628 3553 
L 2631 2963 
z
" transform="scale(0.015625)"/>
      <path id="DejaVuSans-6d" d="M 3328 2828 
Q 3544 3216 3844 3400 
Q 4144 3584 4550 3584 
Q 5097 3584 5394 3201 
Q 5691 2819 5691 2113 
L 5691 0 
L 5113 0 
L 5113 2094 
Q 5113 2597 4934 2840 
Q 4756 3084 4391 3084 
Q 3944 3084 3684 2787 
Q 3425 2491 3425 1978 
L 3425 0 
L 2847 0 
L 2847 2094 
Q 2847 2600 2669 2842 
Q 2491 3084 2119 3084 
Q 1678 3084 1418 2786 
Q 1159 2488 1159 1978 
L 1159 0 
L 581 0 
L 581 3500 
L 1159 3500 
L 1159 2956 
Q 1356 3278 1631 3431 
Q 1906 3584 2284 3584 
Q 2666 3584 2933 3390 
Q 3200 3197 3328 2828 
z
" transform="scale(0.015625)"/>
      <path id="DejaVuSans-65" d="M 3597 1894 
L 3597 1613 
L 953 1613 
Q 991 1019 1311 708 
Q 1631 397 2203 397 
Q 2534 397 2845 478 
Q 3156 559 3463 722 
L 3463 178 
Q 3153 47 2828 -22 
Q 2503 -91 2169 -91 
Q 1331 -91 842 396 
Q 353 884 353 1716 
Q 353 2575 817 3079 
Q 1281 3584 2069 3584 
Q 2775 3584 3186 3129 
Q 3597 2675 3597 1894 
z
M 3022 2063 
Q 3016 2534 2758 2815 
Q 2500 3097 2075 3097 
Q 1594 3097 1305 2825 
Q 1016 2553 972 2059 
L 3022 2063 
z
" transform="scale(0.015625)"/>
      <path id="DejaVuSans-64" d="M 2906 2969 
L 2906 4863 
L 3481 4863 
L 3481 0 
L 2906 0 
L 2906 525 
Q 2725 213 2448 61 
Q 2172 -91 1784 -91 
Q 1150 -91 751 415 
Q 353 922 353 1747 
Q 353 2572 751 3078 
Q 1150 3584 1784 3584 
Q 2172 3584 2448 3432 
Q 2725 3281 2906 2969 
z
M 947 1747 
Q 947 1113 1208 752 
Q 1469 391 1925 391 
Q 2381 391 2643 752 
Q 2906 1113 2906 1747 
Q 2906 2381 2643 2742 
Q 2381 3103 1925 3103 
Q 1469 3103 1208 2742 
Q 947 2381 947 1747 
z
" transform="scale(0.015625)"/>
      <path id="DejaVuSans-73" d="M 2834 3397 
L 2834 2853 
Q 2591 2978 2328 3040 
Q 2066 3103 1784 3103 
Q 1356 3103 1142 2972 
Q 928 2841 928 2578 
Q 928 2378 1081 2264 
Q 1234 2150 1697 2047 
L 1894 2003 
Q 2506 1872 2764 1633 
Q 3022 1394 3022 966 
Q 3022 478 2636 193 
Q 2250 -91 1575 -91 
Q 1294 -91 989 -36 
Q 684 19 347 128 
L 347 722 
Q 666 556 975 473 
Q 1284 391 1588 391 
Q 1994 391 2212 530 
Q 2431 669 2431 922 
Q 2431 1156 2273 1281 
Q 2116 1406 1581 1522 
L 1381 1569 
Q 847 1681 609 1914 
Q 372 2147 372 2553 
Q 372 3047 722 3315 
Q 1072 3584 1716 3584 
Q 2034 3584 2315 3537 
Q 2597 3491 2834 3397 
z
" transform="scale(0.015625)"/>
      <path id="DejaVuSans-46" d="M 628 4666 
L 3309 4666 
L 3309 4134 
L 1259 4134 
L 1259 2759 
L 3109 2759 
L 3109 2228 
L 1259 2228 
L 1259 0 
L 628 0 
L 628 4666 
z
" transform="scale(0.015625)"/>
      <path id="DejaVuSans-63" d="M 3122 3366 
L 3122 2828 
Q 2878 2963 2633 3030 
Q 2388 3097 2138 3097 
Q 1578 3097 1268 2742 
Q 959 2388 959 1747 
Q 959 1106 1268 751 
Q 1578 397 2138 397 
Q 2388 397 2633 464 
Q 2878 531 3122 666 
L 3122 134 
Q 2881 22 2623 -34 
Q 2366 -91 2075 -91 
Q 1284 -91 818 406 
Q 353 903 353 1747 
Q 353 2603 823 3093 
Q 1294 3584 2113 3584 
Q 2378 3584 2631 3529 
Q 2884 3475 3122 3366 
z
" transform="scale(0.015625)"/>
      <path id="DejaVuSans-74" d="M 1172 4494 
L 1172 3500 
L 2356 3500 
L 2356 3053 
L 1172 3053 
L 1172 1153 
Q 1172 725 1289 603 
Q 1406 481 1766 481 
L 2356 481 
L 2356 0 
L 1766 0 
Q 1100 0 847 248 
Q 594 497 594 1153 
L 594 3053 
L 172 3053 
L 172 3500 
L 594 3500 
L 594 4494 
L 1172 4494 
z
" transform="scale(0.015625)"/>
      <path id="DejaVuSans-67" d="M 2906 1791 
Q 2906 2416 2648 2759 
Q 2391 3103 1925 3103 
Q 1463 3103 1205 2759 
Q 947 2416 947 1791 
Q 947 1169 1205 825 
Q 1463 481 1925 481 
Q 2391 481 2648 825 
Q 2906 1169 2906 1791 
z
M 3481 434 
Q 3481 -459 3084 -895 
Q 2688 -1331 1869 -1331 
Q 1566 -1331 1297 -1286 
Q 1028 -1241 775 -1147 
L 775 -588 
Q 1028 -725 1275 -790 
Q 1522 -856 1778 -856 
Q 2344 -856 2625 -561 
Q 2906 -266 2906 331 
L 2906 616 
Q 2728 306 2450 153 
Q 2172 0 1784 0 
Q 1141 0 747 490 
Q 353 981 353 1791 
Q 353 2603 747 3093 
Q 1141 3584 1784 3584 
Q 2172 3584 2450 3431 
Q 2728 3278 2906 2969 
L 2906 3500 
L 3481 3500 
L 3481 434 
z
" transform="scale(0.015625)"/>
      <path id="DejaVuSans-4e" d="M 628 4666 
L 1478 4666 
L 3547 763 
L 3547 4666 
L 4159 4666 
L 4159 0 
L 3309 0 
L 1241 3903 
L 1241 0 
L 628 0 
L 628 4666 
z
" transform="scale(0.015625)"/>
      <path id="DejaVuSans-77" d="M 269 3500 
L 844 3500 
L 1563 769 
L 2278 3500 
L 2956 3500 
L 3675 769 
L 4391 3500 
L 4966 3500 
L 4050 0 
L 3372 0 
L 2619 2869 
L 1863 0 
L 1184 0 
L 269 3500 
z
" transform="scale(0.015625)"/>
      <path id="DejaVuSans-4a" d="M 628 4666 
L 1259 4666 
L 1259 325 
Q 1259 -519 939 -900 
Q 619 -1281 -91 -1281 
L -331 -1281 
L -331 -750 
L -134 -750 
Q 284 -750 456 -515 
Q 628 -281 628 325 
L 628 4666 
z
" transform="scale(0.015625)"/>
     </defs>
     <use xlink:href="#DejaVuSans-44"/>
     <use xlink:href="#DejaVuSans-61" x="77.001953"/>
     <use xlink:href="#DejaVuSans-69" x="138.28125"/>
     <use xlink:href="#DejaVuSans-6c" x="166.064453"/>
     <use xlink:href="#DejaVuSans-79" x="193.847656"/>
     <use xlink:href="#DejaVuSans-20" x="253.027344"/>
     <use xlink:href="#DejaVuSans-43" x="284.814453"/>
     <use xlink:href="#DejaVuSans-6f" x="354.638672"/>
     <use xlink:href="#DejaVuSans-6e" x="415.820312"/>
     <use xlink:href="#DejaVuSans-66" x="479.199219"/>
     <use xlink:href="#DejaVuSans-69" x="514.404297"/>
     <use xlink:href="#DejaVuSans-72" x="542.1875"/>
     <use xlink:href="#DejaVuSans-6d" x="581.550781"/>
     <use xlink:href="#DejaVuSans-65" x="678.962891"/>
     <use xlink:href="#DejaVuSans-64" x="740.486328"/>
     <use xlink:href="#DejaVuSans-20" x="803.962891"/>
     <use xlink:href="#DejaVuSans-43" x="835.75"/>
     <use xlink:href="#DejaVuSans-61" x="905.574219"/>
     <use xlink:href="#DejaVuSans-73" x="966.853516"/>
     <use xlink:href="#DejaVuSans-65" x="1018.953125"/>
     <use xlink:href="#DejaVuSans-73" x="1080.476562"/>
     <use xlink:href="#DejaVuSans-20" x="1132.576172"/>
     <use xlink:href="#DejaVuSans-46" x="1164.363281"/>
     <use xlink:href="#DejaVuSans-6f" x="1218.257812"/>
     <use xlink:href="#DejaVuSans-72" x="1279.439453"/>
     <use xlink:href="#DejaVuSans-65" x="1318.302734"/>
     <use xlink:href="#DejaVuSans-63" x="1379.826172"/>
     <use xlink:href="#DejaVuSans-61" x="1434.806641"/>
     <use xlink:href="#DejaVuSans-73" x="1496.085938"/>
     <use xlink:href="#DejaVuSans-74" x="1548.185547"/>
     <use xlink:href="#DejaVuSans-69" x="1587.394531"/>
     <use xlink:href="#DejaVuSans-6e" x="1615.177734"/>
     <use xlink:href="#DejaVuSans-67" x="1678.556641"/>
     <use xlink:href="#DejaVuSans-20" x="1742.033203"/>
     <use xlink:href="#DejaVuSans-2d" x="1773.820312"/>
     <use xlink:href="#DejaVuSans-20" x="1809.904297"/>
     <use xlink:href="#DejaVuSans-4e" x="1841.691406"/>
     <use xlink:href="#DejaVuSans-65" x="1916.496094"/>
     <use xlink:href="#DejaVuSans-77" x="1978.019531"/>
     <use xlink:href="#DejaVuSans-20" x="2059.806641"/>
     <use xlink:href="#DejaVuSans-4a" x="2091.59375"/>
     <use xlink:href="#DejaVuSans-65" x="2121.085938"/>
     <use xlink:href="#DejaVuSans-72" x="2182.609375"/>
     <use xlink:href="#DejaVuSans-73" x="2223.722656"/>
     <use xlink:href="#DejaVuSans-65" x="2275.822266"/>
     <use xlink:href="#DejaVuSans-79" x="2337.345703"/>
    </g>
    <!-- ARIMA (0, 1, 1)x(1, 0, 1, 7) (R2 = 0.980477) -->
    <g transform="translate(592.008125 29.7555)scale(0.12 -0.12)">
     <defs>
      <path id="DejaVuSans-41" d="M 2188 4044 
L 1331 1722 
L 3047 1722 
L 2188 4044 
z
M 1831 4666 
L 2547 4666 
L 4325 0 
L 3669 0 
L 3244 1197 
L 1141 1197 
L 716 0 
L 50 0 
L 1831 4666 
z
" transform="scale(0.015625)"/>
      <path id="DejaVuSans-52" d="M 2841 2188 
Q 3044 2119 3236 1894 
Q 3428 1669 3622 1275 
L 4263 0 
L 3584 0 
L 2988 1197 
Q 2756 1666 2539 1819 
Q 2322 1972 1947 1972 
L 1259 1972 
L 1259 0 
L 628 0 
L 628 4666 
L 2053 4666 
Q 2853 4666 3247 4331 
Q 3641 3997 3641 3322 
Q 3641 2881 3436 2590 
Q 3231 2300 2841 2188 
z
M 1259 4147 
L 1259 2491 
L 2053 2491 
Q 2509 2491 2742 2702 
Q 2975 2913 2975 3322 
Q 2975 3731 2742 3939 
Q 2509 4147 2053 4147 
L 1259 4147 
z
" transform="scale(0.015625)"/>
      <path id="DejaVuSans-49" d="M 628 4666 
L 1259 4666 
L 1259 0 
L 628 0 
L 628 4666 
z
" transform="scale(0.015625)"/>
      <path id="DejaVuSans-4d" d="M 628 4666 
L 1569 4666 
L 2759 1491 
L 3956 4666 
L 4897 4666 
L 4897 0 
L 4281 0 
L 4281 4097 
L 3078 897 
L 2444 897 
L 1241 4097 
L 1241 0 
L 628 0 
L 628 4666 
z
" transform="scale(0.015625)"/>
      <path id="DejaVuSans-28" d="M 1984 4856 
Q 1566 4138 1362 3434 
Q 1159 2731 1159 2009 
Q 1159 1288 1364 580 
Q 1569 -128 1984 -844 
L 1484 -844 
Q 1016 -109 783 600 
Q 550 1309 550 2009 
Q 550 2706 781 3412 
Q 1013 4119 1484 4856 
L 1984 4856 
z
" transform="scale(0.015625)"/>
      <path id="DejaVuSans-2c" d="M 750 794 
L 1409 794 
L 1409 256 
L 897 -744 
L 494 -744 
L 750 256 
L 750 794 
z
" transform="scale(0.015625)"/>
      <path id="DejaVuSans-29" d="M 513 4856 
L 1013 4856 
Q 1481 4119 1714 3412 
Q 1947 2706 1947 2009 
Q 1947 1309 1714 600 
Q 1481 -109 1013 -844 
L 513 -844 
Q 928 -128 1133 580 
Q 1338 1288 1338 2009 
Q 1338 2731 1133 3434 
Q 928 4138 513 4856 
z
" transform="scale(0.015625)"/>
      <path id="DejaVuSans-78" d="M 3513 3500 
L 2247 1797 
L 3578 0 
L 2900 0 
L 1881 1375 
L 863 0 
L 184 0 
L 1544 1831 
L 300 3500 
L 978 3500 
L 1906 2253 
L 2834 3500 
L 3513 3500 
z
" transform="scale(0.015625)"/>
      <path id="DejaVuSans-3d" d="M 678 2906 
L 4684 2906 
L 4684 2381 
L 678 2381 
L 678 2906 
z
M 678 1631 
L 4684 1631 
L 4684 1100 
L 678 1100 
L 678 1631 
z
" transform="scale(0.015625)"/>
      <path id="DejaVuSans-2e" d="M 684 794 
L 1344 794 
L 1344 0 
L 684 0 
L 684 794 
z
" transform="scale(0.015625)"/>
      <path id="DejaVuSans-39" d="M 703 97 
L 703 672 
Q 941 559 1184 500 
Q 1428 441 1663 441 
Q 2288 441 2617 861 
Q 2947 1281 2994 2138 
Q 2813 1869 2534 1725 
Q 2256 1581 1919 1581 
Q 1219 1581 811 2004 
Q 403 2428 403 3163 
Q 403 3881 828 4315 
Q 1253 4750 1959 4750 
Q 2769 4750 3195 4129 
Q 3622 3509 3622 2328 
Q 3622 1225 3098 567 
Q 2575 -91 1691 -91 
Q 1453 -91 1209 -44 
Q 966 3 703 97 
z
M 1959 2075 
Q 2384 2075 2632 2365 
Q 2881 2656 2881 3163 
Q 2881 3666 2632 3958 
Q 2384 4250 1959 4250 
Q 1534 4250 1286 3958 
Q 1038 3666 1038 3163 
Q 1038 2656 1286 2365 
Q 1534 2075 1959 2075 
z
" transform="scale(0.015625)"/>
      <path id="DejaVuSans-38" d="M 2034 2216 
Q 1584 2216 1326 1975 
Q 1069 1734 1069 1313 
Q 1069 891 1326 650 
Q 1584 409 2034 409 
Q 2484 409 2743 651 
Q 3003 894 3003 1313 
Q 3003 1734 2745 1975 
Q 2488 2216 2034 2216 
z
M 1403 2484 
Q 997 2584 770 2862 
Q 544 3141 544 3541 
Q 544 4100 942 4425 
Q 1341 4750 2034 4750 
Q 2731 4750 3128 4425 
Q 3525 4100 3525 3541 
Q 3525 3141 3298 2862 
Q 3072 2584 2669 2484 
Q 3125 2378 3379 2068 
Q 3634 1759 3634 1313 
Q 3634 634 3220 271 
Q 2806 -91 2034 -91 
Q 1263 -91 848 271 
Q 434 634 434 1313 
Q 434 1759 690 2068 
Q 947 2378 1403 2484 
z
M 1172 3481 
Q 1172 3119 1398 2916 
Q 1625 2713 2034 2713 
Q 2441 2713 2670 2916 
Q 2900 3119 2900 3481 
Q 2900 3844 2670 4047 
Q 2441 4250 2034 4250 
Q 1625 4250 1398 4047 
Q 1172 3844 1172 3481 
z
" transform="scale(0.015625)"/>
     </defs>
     <use xlink:href="#DejaVuSans-41"/>
     <use xlink:href="#DejaVuSans-52" x="68.408203"/>
     <use xlink:href="#DejaVuSans-49" x="137.890625"/>
     <use xlink:href="#DejaVuSans-4d" x="167.382812"/>
     <use xlink:href="#DejaVuSans-41" x="253.662109"/>
     <use xlink:href="#DejaVuSans-20" x="322.070312"/>
     <use xlink:href="#DejaVuSans-28" x="353.857422"/>
     <use xlink:href="#DejaVuSans-30" x="392.871094"/>
     <use xlink:href="#DejaVuSans-2c" x="456.494141"/>
     <use xlink:href="#DejaVuSans-20" x="488.28125"/>
     <use xlink:href="#DejaVuSans-31" x="520.068359"/>
     <use xlink:href="#DejaVuSans-2c" x="583.691406"/>
     <use xlink:href="#DejaVuSans-20" x="615.478516"/>
     <use xlink:href="#DejaVuSans-31" x="647.265625"/>
     <use xlink:href="#DejaVuSans-29" x="710.888672"/>
     <use xlink:href="#DejaVuSans-78" x="749.902344"/>
     <use xlink:href="#DejaVuSans-28" x="809.082031"/>
     <use xlink:href="#DejaVuSans-31" x="848.095703"/>
     <use xlink:href="#DejaVuSans-2c" x="911.71875"/>
     <use xlink:href="#DejaVuSans-20" x="943.505859"/>
     <use xlink:href="#DejaVuSans-30" x="975.292969"/>
     <use xlink:href="#DejaVuSans-2c" x="1038.916016"/>
     <use xlink:href="#DejaVuSans-20" x="1070.703125"/>
     <use xlink:href="#DejaVuSans-31" x="1102.490234"/>
     <use xlink:href="#DejaVuSans-2c" x="1166.113281"/>
     <use xlink:href="#DejaVuSans-20" x="1197.900391"/>
     <use xlink:href="#DejaVuSans-37" x="1229.6875"/>
     <use xlink:href="#DejaVuSans-29" x="1293.310547"/>
     <use xlink:href="#DejaVuSans-20" x="1332.324219"/>
     <use xlink:href="#DejaVuSans-28" x="1364.111328"/>
     <use xlink:href="#DejaVuSans-52" x="1403.125"/>
     <use xlink:href="#DejaVuSans-32" x="1472.607422"/>
     <use xlink:href="#DejaVuSans-20" x="1536.230469"/>
     <use xlink:href="#DejaVuSans-3d" x="1568.017578"/>
     <use xlink:href="#DejaVuSans-20" x="1651.806641"/>
     <use xlink:href="#DejaVuSans-30" x="1683.59375"/>
     <use xlink:href="#DejaVuSans-2e" x="1747.216797"/>
     <use xlink:href="#DejaVuSans-39" x="1779.003906"/>
     <use xlink:href="#DejaVuSans-38" x="1842.626953"/>
     <use xlink:href="#DejaVuSans-30" x="1906.25"/>
     <use xlink:href="#DejaVuSans-34" x="1969.873047"/>
     <use xlink:href="#DejaVuSans-37" x="2033.496094"/>
     <use xlink:href="#DejaVuSans-37" x="2097.119141"/>
     <use xlink:href="#DejaVuSans-29" x="2160.742188"/>
    </g>
   </g>
   <g id="legend_1">
    <g id="patch_7">
     <path d="M 1289.5125 87.789875 
L 1386.592188 87.789875 
Q 1388.592188 87.789875 1388.592188 85.789875 
L 1388.592188 42.7555 
Q 1388.592188 40.7555 1386.592188 40.7555 
L 1289.5125 40.7555 
Q 1287.5125 40.7555 1287.5125 42.7555 
L 1287.5125 85.789875 
Q 1287.5125 87.789875 1289.5125 87.789875 
z
" style="fill: #ffffff; opacity: 0.8; stroke: #cccccc; stroke-linejoin: miter"/>
    </g>
    <g id="line2d_21">
     <path d="M 1291.5125 48.853937 
L 1301.5125 48.853937 
L 1311.5125 48.853937 
" style="fill: none; stroke: #0000ff; stroke-width: 1.5; stroke-linecap: square"/>
    </g>
    <g id="text_19">
     <!-- Actual Value -->
     <g transform="translate(1319.5125 52.353937)scale(0.1 -0.1)">
      <defs>
       <path id="DejaVuSans-75" d="M 544 1381 
L 544 3500 
L 1119 3500 
L 1119 1403 
Q 1119 906 1312 657 
Q 1506 409 1894 409 
Q 2359 409 2629 706 
Q 2900 1003 2900 1516 
L 2900 3500 
L 3475 3500 
L 3475 0 
L 2900 0 
L 2900 538 
Q 2691 219 2414 64 
Q 2138 -91 1772 -91 
Q 1169 -91 856 284 
Q 544 659 544 1381 
z
M 1991 3584 
L 1991 3584 
z
" transform="scale(0.015625)"/>
       <path id="DejaVuSans-56" d="M 1831 0 
L 50 4666 
L 709 4666 
L 2188 738 
L 3669 4666 
L 4325 4666 
L 2547 0 
L 1831 0 
z
" transform="scale(0.015625)"/>
      </defs>
      <use xlink:href="#DejaVuSans-41"/>
      <use xlink:href="#DejaVuSans-63" x="66.658203"/>
      <use xlink:href="#DejaVuSans-74" x="121.638672"/>
      <use xlink:href="#DejaVuSans-75" x="160.847656"/>
      <use xlink:href="#DejaVuSans-61" x="224.226562"/>
      <use xlink:href="#DejaVuSans-6c" x="285.505859"/>
      <use xlink:href="#DejaVuSans-20" x="313.289062"/>
      <use xlink:href="#DejaVuSans-56" x="345.076172"/>
      <use xlink:href="#DejaVuSans-61" x="405.734375"/>
      <use xlink:href="#DejaVuSans-6c" x="467.013672"/>
      <use xlink:href="#DejaVuSans-75" x="494.796875"/>
      <use xlink:href="#DejaVuSans-65" x="558.175781"/>
     </g>
    </g>
    <g id="line2d_22">
     <path d="M 1291.5125 63.532062 
L 1301.5125 63.532062 
L 1311.5125 63.532062 
" style="fill: none; stroke: #ffa500; stroke-width: 1.5; stroke-linecap: square"/>
    </g>
    <g id="text_20">
     <!-- Check Value -->
     <g transform="translate(1319.5125 67.032062)scale(0.1 -0.1)">
      <defs>
       <path id="DejaVuSans-68" d="M 3513 2113 
L 3513 0 
L 2938 0 
L 2938 2094 
Q 2938 2591 2744 2837 
Q 2550 3084 2163 3084 
Q 1697 3084 1428 2787 
Q 1159 2491 1159 1978 
L 1159 0 
L 581 0 
L 581 4863 
L 1159 4863 
L 1159 2956 
Q 1366 3272 1645 3428 
Q 1925 3584 2291 3584 
Q 2894 3584 3203 3211 
Q 3513 2838 3513 2113 
z
" transform="scale(0.015625)"/>
       <path id="DejaVuSans-6b" d="M 581 4863 
L 1159 4863 
L 1159 1991 
L 2875 3500 
L 3609 3500 
L 1753 1863 
L 3688 0 
L 2938 0 
L 1159 1709 
L 1159 0 
L 581 0 
L 581 4863 
z
" transform="scale(0.015625)"/>
      </defs>
      <use xlink:href="#DejaVuSans-43"/>
      <use xlink:href="#DejaVuSans-68" x="69.824219"/>
      <use xlink:href="#DejaVuSans-65" x="133.203125"/>
      <use xlink:href="#DejaVuSans-63" x="194.726562"/>
      <use xlink:href="#DejaVuSans-6b" x="249.707031"/>
      <use xlink:href="#DejaVuSans-20" x="307.617188"/>
      <use xlink:href="#DejaVuSans-56" x="339.404297"/>
      <use xlink:href="#DejaVuSans-61" x="400.0625"/>
      <use xlink:href="#DejaVuSans-6c" x="461.341797"/>
      <use xlink:href="#DejaVuSans-75" x="489.125"/>
      <use xlink:href="#DejaVuSans-65" x="552.503906"/>
     </g>
    </g>
    <g id="line2d_23">
     <path d="M 1291.5125 78.210187 
L 1301.5125 78.210187 
L 1311.5125 78.210187 
" style="fill: none; stroke: #ff0000; stroke-width: 1.5; stroke-linecap: square"/>
    </g>
    <g id="text_21">
     <!-- Predict Value -->
     <g transform="translate(1319.5125 81.710187)scale(0.1 -0.1)">
      <defs>
       <path id="DejaVuSans-50" d="M 1259 4147 
L 1259 2394 
L 2053 2394 
Q 2494 2394 2734 2622 
Q 2975 2850 2975 3272 
Q 2975 3691 2734 3919 
Q 2494 4147 2053 4147 
L 1259 4147 
z
M 628 4666 
L 2053 4666 
Q 2838 4666 3239 4311 
Q 3641 3956 3641 3272 
Q 3641 2581 3239 2228 
Q 2838 1875 2053 1875 
L 1259 1875 
L 1259 0 
L 628 0 
L 628 4666 
z
" transform="scale(0.015625)"/>
      </defs>
      <use xlink:href="#DejaVuSans-50"/>
      <use xlink:href="#DejaVuSans-72" x="58.552734"/>
      <use xlink:href="#DejaVuSans-65" x="97.416016"/>
      <use xlink:href="#DejaVuSans-64" x="158.939453"/>
      <use xlink:href="#DejaVuSans-69" x="222.416016"/>
      <use xlink:href="#DejaVuSans-63" x="250.199219"/>
      <use xlink:href="#DejaVuSans-74" x="305.179688"/>
      <use xlink:href="#DejaVuSans-20" x="344.388672"/>
      <use xlink:href="#DejaVuSans-56" x="376.175781"/>
      <use xlink:href="#DejaVuSans-61" x="436.833984"/>
      <use xlink:href="#DejaVuSans-6c" x="498.113281"/>
      <use xlink:href="#DejaVuSans-75" x="525.896484"/>
      <use xlink:href="#DejaVuSans-65" x="589.275391"/>
     </g>
    </g>
   </g>
  </g>
 </g>
 <defs>
  <clipPath id="p1117344410">
   <rect x="54.392188" y="35.7555" width="1339.2" height="332.64"/>
  </clipPath>
 </defs>
</svg>
